<?xml version="1.0" ?><svg height="50.44mm" viewBox="0 0 220.11 142.97" width="77.65mm" xmlns="http://www.w3.org/2000/svg" xmlns:xlink="http://www.w3.org/1999/xlink">
  <defs>
    <linearGradient gradientTransform="matrix(1, 0, 0, -1, -50.35, 87.76)" gradientUnits="userSpaceOnUse" id="linear-gradient" x1="132.32" x2="138.14" y1="43.88" y2="43.88">
      <stop offset="0" stop-color="#fff"/>
      <stop offset="0.02" stop-color="#f8f8f8"/>
      <stop offset="0.33" stop-color="#cccbcb"/>
      <stop offset="0.4" stop-color="#d9d8d8"/>
      <stop offset="0.48" stop-color="#f2f2f9"/>
      <stop offset="0.57" stop-color="#d3d3d3"/>
      <stop offset="0.73" stop-color="#d4d4d4"/>
      <stop offset="0.83" stop-color="#ededed"/>
      <stop offset="1" stop-color="#c2c1c1"/>
    </linearGradient>
    <linearGradient gradientTransform="matrix(-1, 0, 0, 1, 220.11, 0)" gradientUnits="userSpaceOnUse" id="linear-gradient-2" x1="137.67" x2="138.14" y1="52.23" y2="52.23">
      <stop offset="0" stop-color="#d3d3d3"/>
      <stop offset="0.21" stop-color="#f8f8f8"/>
      <stop offset="0.43" stop-color="#cccbcb"/>
      <stop offset="0.66" stop-color="#d9d8d8"/>
      <stop offset="0.81" stop-color="#d7d6d6"/>
      <stop offset="0.9" stop-color="#d4d4d4"/>
      <stop offset="1" stop-color="#c2c1c1"/>
    </linearGradient>
    <linearGradient gradientTransform="matrix(1, 0, 0, -1, 0.38, 121.31)" gradientUnits="userSpaceOnUse" id="linear-gradient-3" x1="46.85" x2="172.88" y1="60.66" y2="60.66">
      <stop offset="0.23" stop-color="#dedede"/>
      <stop offset="0.64" stop-color="#f8f8f8"/>
      <stop offset="0.72" stop-color="#ddd"/>
      <stop offset="0.73" stop-color="#dedede"/>
      <stop offset="0.93" stop-color="#f8f8f8"/>
    </linearGradient>
    <linearGradient data-name="Gold 29" gradientTransform="matrix(-1, 0, 0, 1, 220.11, 0)" gradientUnits="userSpaceOnUse" id="Gold_29" x1="73.25" x2="122.82" y1="125.86" y2="125.86">
      <stop offset="0.02" stop-color="#603512"/>
      <stop offset="0.07" stop-color="#86581a"/>
      <stop offset="0.14" stop-color="#b68525"/>
      <stop offset="0.18" stop-color="#c89629"/>
      <stop offset="0.5" stop-color="#faf290"/>
      <stop offset="0.57" stop-color="#f1e27e"/>
      <stop offset="0.72" stop-color="#dab84e"/>
      <stop offset="0.82" stop-color="#c89628"/>
      <stop offset="0.98" stop-color="#603512"/>
    </linearGradient>
    <linearGradient id="Gold_29-2" x1="114.87" x2="131.18" xlink:href="#Gold_29" y1="139.59" y2="139.59"/>
    <linearGradient gradientTransform="matrix(1, 0, 0, -1, -40.79, 247.03)" id="Gold_29-3" x1="112.22" x2="148.68" xlink:href="#Gold_29" y1="123.52" y2="123.52"/>
    <linearGradient id="Gold_29-4" x1="68" x2="73.25" xlink:href="#Gold_29" y1="109.49" y2="109.49"/>
    <linearGradient id="Gold_29-5" x1="73.25" x2="116.37" xlink:href="#Gold_29" y1="135.39" y2="135.39"/>
    <linearGradient id="Gold_29-6" x1="105" x2="114.87" xlink:href="#Gold_29" y1="140.48" y2="140.48"/>
    <linearGradient gradientTransform="matrix(-1, 0, 0, 1, 220.11, 0)" gradientUnits="userSpaceOnUse" id="linear-gradient-4" x1="80.62" x2="143.81" y1="110.89" y2="110.89">
      <stop offset="0" stop-color="#272527"/>
      <stop offset="0.37" stop-color="#8b8a8a"/>
      <stop offset="0.5" stop-color="#7a7978"/>
      <stop offset="0.64" stop-color="#8d8c8a"/>
      <stop offset="0.99" stop-color="#272527"/>
    </linearGradient>
    <linearGradient gradientTransform="matrix(1, 0, 0, -1, -40.74, 276.09)" id="Gold_29-7" x1="112.17" x2="148.68" xlink:href="#Gold_29" y1="138.04" y2="138.04"/>
    <linearGradient data-name="Silver 01" gradientTransform="matrix(1, 0, 0, -1, -98.32, 240.63)" gradientUnits="userSpaceOnUse" id="Silver_01" x1="159.22" x2="159.22" y1="121.25" y2="119.38">
      <stop offset="0" stop-color="#cbd1d6"/>
      <stop offset="0.2" stop-color="#bac0c5"/>
      <stop offset="0.43" stop-color="#aab1b5"/>
      <stop offset="0.52" stop-color="#b7bec2"/>
      <stop offset="0.84" stop-color="#e3eaed"/>
      <stop offset="1" stop-color="#f4fbfe"/>
    </linearGradient>
    <linearGradient gradientTransform="matrix(-1, 0, 0, 1, 220.11, 0)" id="Silver_01-2" x1="171.82" x2="171.82" xlink:href="#Silver_01" y1="121.25" y2="117.63"/>
    <linearGradient gradientTransform="matrix(-1, 0, 0, 1, 220.11, 0)" id="Silver_01-3" x1="171.82" x2="171.82" xlink:href="#Silver_01" y1="136.79" y2="133.17"/>
    <linearGradient gradientTransform="matrix(-1, 0, 0, 1, 220.11, 0)" id="Silver_01-4" x1="161.29" x2="161.29" xlink:href="#Silver_01" y1="119.38" y2="112.31"/>
    <linearGradient gradientTransform="matrix(1, 0, 0, -1, -98.32, 271.83)" id="Silver_01-5" x1="159.22" x2="159.22" xlink:href="#Silver_01" y1="136.85" y2="134.98"/>
    <linearGradient gradientTransform="matrix(-1, 0, 0, 1, 220.11, 0)" id="Silver_01-6" x1="161.29" x2="161.29" xlink:href="#Silver_01" y1="134.98" y2="127.92"/>
    <linearGradient gradientTransform="matrix(1, 0, 0, -1, -0.93, 125.27)" id="linear-gradient-5" x1="47.53" x2="173.52" xlink:href="#linear-gradient" y1="62.64" y2="62.64"/>
    <linearGradient id="linear-gradient-6" x1="81.61" x2="82.26" xlink:href="#linear-gradient-2" y1="52.23" y2="52.23"/>
    <linearGradient gradientTransform="matrix(-1, 0, 0, 1, 220.11, 0)" gradientUnits="userSpaceOnUse" id="linear-gradient-7" x1="152.72" x2="152.72" y1="54.32" y2="13.99">
      <stop offset="0.34" stop-color="#dedede"/>
      <stop offset="0.45" stop-color="#dcdcdc"/>
      <stop offset="0.47" stop-color="#f8f8f8"/>
      <stop offset="0.85" stop-color="#f8f8f8"/>
    </linearGradient>
    <linearGradient gradientTransform="matrix(-1, 0, 0, 1, 220.11, 0)" gradientUnits="userSpaceOnUse" id="linear-gradient-8" x1="132.32" x2="172.88" y1="37" y2="37">
      <stop offset="0" stop-color="#dcdcdc"/>
      <stop offset="0.22" stop-color="#dedede"/>
      <stop offset="0.64" stop-color="#f8f8f8"/>
      <stop offset="0.85" stop-color="#f8f8f8"/>
    </linearGradient>
    <linearGradient gradientTransform="matrix(-1, 0, 0, 1, 220.11, 0)" gradientUnits="userSpaceOnUse" id="linear-gradient-9" x1="131.83" x2="132.33" y1="37.21" y2="37.21">
      <stop offset="0.2" stop-color="#dcdcdc"/>
      <stop offset="0.48" stop-color="#bdbebf"/>
      <stop offset="0.79" stop-color="#dedede"/>
    </linearGradient>
    <linearGradient id="linear-gradient-10" x1="131.82" x2="132.33" xlink:href="#linear-gradient-9" y1="40.47" y2="40.47"/>
    <linearGradient id="linear-gradient-11" x1="126.3" x2="172.88" xlink:href="#linear-gradient-8" y1="48.8" y2="48.8"/>
    <linearGradient gradientTransform="translate(34.93)" id="linear-gradient-12" x1="118.19" x2="118.19" xlink:href="#linear-gradient-7" y1="54.32" y2="13.99"/>
    <linearGradient gradientTransform="translate(34.93)" id="linear-gradient-13" x1="97.79" x2="138.35" xlink:href="#linear-gradient-8" y1="37" y2="37"/>
    <linearGradient gradientTransform="translate(34.93)" id="linear-gradient-14" x1="97.29" x2="97.8" xlink:href="#linear-gradient-9" y1="37.21" y2="37.21"/>
    <linearGradient gradientTransform="translate(34.93)" id="linear-gradient-15" x1="97.29" x2="97.8" xlink:href="#linear-gradient-9" y1="40.47" y2="40.47"/>
    <linearGradient gradientTransform="translate(34.93)" id="linear-gradient-16" x1="87.15" x2="138.35" xlink:href="#linear-gradient-8" y1="48.8" y2="48.8"/>
    <linearGradient gradientTransform="matrix(-1, 0, 0, 1, 220.11, 0)" gradientUnits="userSpaceOnUse" id="linear-gradient-17" x1="89.77" x2="89.77" y1="138.61" y2="138.61">
      <stop offset="0" stop-color="#bec1ae"/>
      <stop offset="0.6" stop-color="#d7d7d4"/>
      <stop offset="0.97" stop-color="#f8f8f8"/>
    </linearGradient>
    <linearGradient id="linear-gradient-18" x1="81.54" x2="81.54" xlink:href="#linear-gradient-17" y1="131.65" y2="131.65"/>
    <linearGradient gradientTransform="matrix(-1, 0, 0, 1, 220.11, 0)" gradientUnits="userSpaceOnUse" id="linear-gradient-19" x1="130.89" x2="135.14" y1="43.95" y2="43.84">
      <stop offset="0.25" stop-color="#dcdcdc"/>
      <stop offset="0.28" stop-color="#bdbebf"/>
      <stop offset="0.32" stop-color="#dedede"/>
    </linearGradient>
    <linearGradient gradientTransform="translate(34.93)" id="linear-gradient-20" x1="96.02" x2="101.24" xlink:href="#linear-gradient-19" y1="43.96" y2="43.82"/>
    <linearGradient gradientTransform="matrix(-1, 0, 0, 1, 220.11, 0)" gradientUnits="userSpaceOnUse" id="linear-gradient-21" x1="165.32" x2="183.83" y1="29.71" y2="29.71">
      <stop offset="0" stop-color="#fff"/>
      <stop offset="0.24" stop-color="#f8f8f8"/>
      <stop offset="0.33" stop-color="#cccbcb"/>
      <stop offset="0.42" stop-color="#d9d8d8"/>
      <stop offset="0.47" stop-color="#f2f2f9"/>
      <stop offset="0.55" stop-color="#d3d3d3"/>
      <stop offset="0.73" stop-color="#d4d4d4"/>
    </linearGradient>
    <linearGradient gradientTransform="matrix(-1, 0, 0, 1, 220.11, 0)" gradientUnits="userSpaceOnUse" id="linear-gradient-22" x1="166.64" x2="184.65" y1="30.25" y2="30.25">
      <stop offset="0" stop-color="#fff"/>
      <stop offset="0.24" stop-color="#f8f8f8"/>
      <stop offset="0.33" stop-color="#cccbcb"/>
      <stop offset="0.51" stop-color="#d9d8d8"/>
      <stop offset="0.53" stop-color="#f2f2f9"/>
      <stop offset="0.58" stop-color="#d3d3d3"/>
      <stop offset="0.73" stop-color="#d4d4d4"/>
    </linearGradient>
    <linearGradient id="linear-gradient-23" x1="163.66" x2="191.85" xlink:href="#linear-gradient-21" y1="30.25" y2="30.25"/>
    <linearGradient gradientTransform="matrix(-1, 0, 0, 1, 220.11, 0)" gradientUnits="userSpaceOnUse" id="linear-gradient-24" x1="169.2" x2="183.48" y1="30.29" y2="30.29">
      <stop offset="0" stop-color="#fff"/>
      <stop offset="0.24" stop-color="#f8f8f8"/>
      <stop offset="0.43" stop-color="#d9d8d8"/>
      <stop offset="0.51" stop-color="#cccbcb"/>
      <stop offset="0.58" stop-color="#d3d3d3"/>
      <stop offset="0.73" stop-color="#d4d4d4"/>
      <stop offset="0.8" stop-color="#f2f2f9"/>
    </linearGradient>
    <linearGradient id="linear-gradient-25" x1="170.76" x2="188.77" xlink:href="#linear-gradient-22" y1="30.25" y2="30.25"/>
    <linearGradient id="linear-gradient-26" x1="173.33" x2="187.61" xlink:href="#linear-gradient-24" y1="30.29" y2="30.29"/>
    <linearGradient id="linear-gradient-27" x1="167.9" x2="196.09" xlink:href="#linear-gradient-21" y1="30.25" y2="30.25"/>
    <linearGradient id="linear-gradient-28" x1="175" x2="193.01" xlink:href="#linear-gradient-22" y1="30.25" y2="30.25"/>
    <linearGradient id="linear-gradient-29" x1="177.56" x2="191.85" xlink:href="#linear-gradient-24" y1="30.29" y2="30.29"/>
    <linearGradient id="linear-gradient-30" x1="172.23" x2="200.42" xlink:href="#linear-gradient-21" y1="30.25" y2="30.25"/>
    <linearGradient id="linear-gradient-31" x1="179.34" x2="197.34" xlink:href="#linear-gradient-22" y1="30.25" y2="30.25"/>
    <linearGradient id="linear-gradient-32" x1="181.9" x2="196.18" xlink:href="#linear-gradient-24" y1="30.29" y2="30.29"/>
    <linearGradient id="linear-gradient-33" x1="176.47" x2="204.66" xlink:href="#linear-gradient-21" y1="30.25" y2="30.25"/>
    <linearGradient id="linear-gradient-34" x1="183.58" x2="201.58" xlink:href="#linear-gradient-22" y1="30.25" y2="30.25"/>
    <linearGradient id="linear-gradient-35" x1="186.14" x2="200.42" xlink:href="#linear-gradient-24" y1="30.29" y2="30.29"/>
    <linearGradient id="linear-gradient-36" x1="180.71" x2="208.9" xlink:href="#linear-gradient-21" y1="30.25" y2="30.25"/>
    <linearGradient id="linear-gradient-37" x1="187.82" x2="205.82" xlink:href="#linear-gradient-22" y1="30.25" y2="30.25"/>
    <linearGradient id="linear-gradient-38" x1="190.38" x2="204.66" xlink:href="#linear-gradient-24" y1="30.29" y2="30.29"/>
    <linearGradient id="linear-gradient-39" x1="184.95" x2="213.14" xlink:href="#linear-gradient-21" y1="30.25" y2="30.25"/>
    <linearGradient id="linear-gradient-40" x1="192.06" x2="210.06" xlink:href="#linear-gradient-22" y1="30.25" y2="30.25"/>
    <linearGradient id="linear-gradient-41" x1="194.62" x2="208.9" xlink:href="#linear-gradient-24" y1="30.29" y2="30.29"/>
    <linearGradient id="linear-gradient-42" x1="189.19" x2="217.38" xlink:href="#linear-gradient-21" y1="30.25" y2="30.25"/>
    <linearGradient id="linear-gradient-43" x1="196.3" x2="214.3" xlink:href="#linear-gradient-22" y1="30.25" y2="30.25"/>
    <linearGradient id="linear-gradient-44" x1="198.86" x2="213.14" xlink:href="#linear-gradient-24" y1="30.29" y2="30.29"/>
    <linearGradient id="linear-gradient-45" x1="193.43" x2="221.62" xlink:href="#linear-gradient-21" y1="30.25" y2="30.25"/>
    <linearGradient id="linear-gradient-46" x1="200.54" x2="218.54" xlink:href="#linear-gradient-22" y1="30.25" y2="30.25"/>
    <linearGradient id="linear-gradient-47" x1="203.1" x2="217.38" xlink:href="#linear-gradient-24" y1="30.29" y2="30.29"/>
    <linearGradient id="linear-gradient-48" x1="197.67" x2="225.86" xlink:href="#linear-gradient-21" y1="30.25" y2="30.25"/>
    <linearGradient id="linear-gradient-49" x1="204.78" x2="222.78" xlink:href="#linear-gradient-22" y1="30.25" y2="30.25"/>
    <linearGradient id="linear-gradient-50" x1="207.34" x2="221.62" xlink:href="#linear-gradient-24" y1="30.29" y2="30.29"/>
    <linearGradient id="linear-gradient-51" x1="201.91" x2="230.1" xlink:href="#linear-gradient-21" y1="30.25" y2="30.25"/>
    <linearGradient id="linear-gradient-52" x1="209.01" x2="227.02" xlink:href="#linear-gradient-22" y1="30.25" y2="30.25"/>
    <linearGradient id="linear-gradient-53" x1="211.58" x2="225.86" xlink:href="#linear-gradient-24" y1="30.29" y2="30.29"/>
    <linearGradient id="linear-gradient-54" x1="213.13" x2="224.81" xlink:href="#linear-gradient-21" y1="30.25" y2="30.25"/>
    <linearGradient gradientTransform="translate(173.28)" id="linear-gradient-55" x1="-7.96" x2="10.55" xlink:href="#linear-gradient-21" y1="29.71" y2="29.71"/>
    <linearGradient gradientTransform="translate(173.28)" id="linear-gradient-56" x1="-6.64" x2="11.37" xlink:href="#linear-gradient-22" y1="30.25" y2="30.25"/>
    <linearGradient gradientTransform="translate(173.28)" id="linear-gradient-57" x1="-9.62" x2="18.57" xlink:href="#linear-gradient-21" y1="30.25" y2="30.25"/>
    <linearGradient gradientTransform="translate(173.28)" id="linear-gradient-58" x1="-4.08" x2="10.2" xlink:href="#linear-gradient-24" y1="30.29" y2="30.29"/>
    <linearGradient gradientTransform="translate(173.28)" id="linear-gradient-59" x1="-2.52" x2="15.49" xlink:href="#linear-gradient-22" y1="30.25" y2="30.25"/>
    <linearGradient gradientTransform="translate(173.28)" id="linear-gradient-60" x1="0.05" x2="14.33" xlink:href="#linear-gradient-24" y1="30.29" y2="30.29"/>
    <linearGradient gradientTransform="translate(173.28)" id="linear-gradient-61" x1="-5.38" x2="22.81" xlink:href="#linear-gradient-21" y1="30.25" y2="30.25"/>
    <linearGradient gradientTransform="translate(173.28)" id="linear-gradient-62" x1="1.72" x2="19.73" xlink:href="#linear-gradient-22" y1="30.25" y2="30.25"/>
    <linearGradient gradientTransform="translate(173.28)" id="linear-gradient-63" x1="4.28" x2="18.57" xlink:href="#linear-gradient-24" y1="30.29" y2="30.29"/>
    <linearGradient gradientTransform="translate(173.28)" id="linear-gradient-64" x1="-1.05" x2="27.14" xlink:href="#linear-gradient-21" y1="30.25" y2="30.25"/>
    <linearGradient gradientTransform="translate(173.28)" id="linear-gradient-65" x1="6.06" x2="24.06" xlink:href="#linear-gradient-22" y1="30.25" y2="30.25"/>
    <linearGradient gradientTransform="translate(173.28)" id="linear-gradient-66" x1="8.62" x2="22.9" xlink:href="#linear-gradient-24" y1="30.29" y2="30.29"/>
    <linearGradient gradientTransform="translate(173.28)" id="linear-gradient-67" x1="3.19" x2="31.38" xlink:href="#linear-gradient-21" y1="30.25" y2="30.25"/>
    <linearGradient gradientTransform="translate(173.28)" id="linear-gradient-68" x1="10.3" x2="28.3" xlink:href="#linear-gradient-22" y1="30.25" y2="30.25"/>
    <linearGradient gradientTransform="translate(173.28)" id="linear-gradient-69" x1="12.86" x2="27.14" xlink:href="#linear-gradient-24" y1="30.29" y2="30.29"/>
    <linearGradient gradientTransform="translate(173.28)" id="linear-gradient-70" x1="7.43" x2="35.62" xlink:href="#linear-gradient-21" y1="30.25" y2="30.25"/>
    <linearGradient gradientTransform="translate(173.28)" id="linear-gradient-71" x1="14.54" x2="32.54" xlink:href="#linear-gradient-22" y1="30.25" y2="30.25"/>
    <linearGradient gradientTransform="translate(173.28)" id="linear-gradient-72" x1="17.1" x2="31.38" xlink:href="#linear-gradient-24" y1="30.29" y2="30.29"/>
    <linearGradient gradientTransform="translate(173.28)" id="linear-gradient-73" x1="11.67" x2="39.86" xlink:href="#linear-gradient-21" y1="30.25" y2="30.25"/>
    <linearGradient gradientTransform="translate(173.28)" id="linear-gradient-74" x1="18.78" x2="36.78" xlink:href="#linear-gradient-22" y1="30.25" y2="30.25"/>
    <linearGradient gradientTransform="translate(173.28)" id="linear-gradient-75" x1="21.34" x2="35.62" xlink:href="#linear-gradient-24" y1="30.29" y2="30.29"/>
    <linearGradient gradientTransform="translate(173.28)" id="linear-gradient-76" x1="15.91" x2="44.1" xlink:href="#linear-gradient-21" y1="30.25" y2="30.25"/>
    <linearGradient gradientTransform="translate(173.28)" id="linear-gradient-77" x1="23.02" x2="41.02" xlink:href="#linear-gradient-22" y1="30.25" y2="30.25"/>
    <linearGradient gradientTransform="translate(173.28)" id="linear-gradient-78" x1="25.58" x2="39.86" xlink:href="#linear-gradient-24" y1="30.29" y2="30.29"/>
    <linearGradient gradientTransform="translate(173.28)" id="linear-gradient-79" x1="20.15" x2="48.34" xlink:href="#linear-gradient-21" y1="30.25" y2="30.25"/>
    <linearGradient gradientTransform="translate(173.28)" id="linear-gradient-80" x1="27.26" x2="45.26" xlink:href="#linear-gradient-22" y1="30.25" y2="30.25"/>
    <linearGradient gradientTransform="translate(173.28)" id="linear-gradient-81" x1="29.82" x2="44.1" xlink:href="#linear-gradient-24" y1="30.29" y2="30.29"/>
    <linearGradient gradientTransform="translate(173.28)" id="linear-gradient-82" x1="24.39" x2="52.58" xlink:href="#linear-gradient-21" y1="30.25" y2="30.25"/>
    <linearGradient gradientTransform="translate(173.28)" id="linear-gradient-83" x1="31.49" x2="49.5" xlink:href="#linear-gradient-22" y1="30.25" y2="30.25"/>
    <linearGradient gradientTransform="translate(173.28)" id="linear-gradient-84" x1="34.06" x2="48.34" xlink:href="#linear-gradient-24" y1="30.29" y2="30.29"/>
    <linearGradient gradientTransform="translate(173.28)" id="linear-gradient-85" x1="28.63" x2="56.82" xlink:href="#linear-gradient-21" y1="30.25" y2="30.25"/>
    <linearGradient gradientTransform="translate(173.28)" id="linear-gradient-86" x1="35.73" x2="53.74" xlink:href="#linear-gradient-22" y1="30.25" y2="30.25"/>
    <linearGradient gradientTransform="translate(173.28)" id="linear-gradient-87" x1="38.3" x2="52.58" xlink:href="#linear-gradient-24" y1="30.29" y2="30.29"/>
    <linearGradient gradientTransform="translate(173.28)" id="linear-gradient-88" x1="39.77" x2="51.59" xlink:href="#linear-gradient-21" y1="30.25" y2="30.25"/>
    <linearGradient gradientTransform="matrix(1, 0, 0, -1, 1.5, 54.05)" gradientUnits="userSpaceOnUse" id="linear-gradient-89" x1="109.31" x2="109.31" y1="43.53" y2="10.52">
      <stop offset="0" stop-color="#cccbcb"/>
      <stop offset="0.11" stop-color="#dbdada"/>
      <stop offset="0.26" stop-color="#f8f8f8"/>
      <stop offset="0.29" stop-color="#efefef"/>
      <stop offset="0.37" stop-color="#dfdede"/>
      <stop offset="0.43" stop-color="#d9d8d8"/>
      <stop offset="0.46" stop-color="#d9d8d8"/>
      <stop offset="0.46" stop-color="#dbdada"/>
      <stop offset="0.49" stop-color="#dcdcdc"/>
      <stop offset="0.89" stop-color="#f2f2f9"/>
      <stop offset="1" stop-color="#d4d4d4"/>
    </linearGradient>
    <linearGradient gradientTransform="matrix(-1, 0, 0, 1, 220.11, 0)" id="linear-gradient-90" x1="81.94" x2="137.61" xlink:href="#linear-gradient" y1="36.24" y2="36.24"/>
    <linearGradient gradientTransform="matrix(-1, 0, 0, 1, 220.11, 0)" gradientUnits="userSpaceOnUse" id="linear-gradient-91" x1="101.17" x2="118.67" y1="27.3" y2="-3.02">
      <stop offset="0" stop-color="#cccbcb"/>
      <stop offset="0.49" stop-color="#fff"/>
      <stop offset="0.9" stop-color="#d4d4d4"/>
      <stop offset="1" stop-color="#d3d3d3"/>
      <stop offset="1" stop-color="#c2c1c1"/>
    </linearGradient>
  </defs>
  <title>12V Solenoid Valve</title>
  <g data-name="Layer 2" id="Layer_2">
    <rect height="0.99" style="fill: url(#linear-gradient)" transform="translate(169.76 87.76) rotate(-180)" width="5.81" x="81.98" y="43.39"/>
    <path d="M82,61.13V43.33l.46,1.11,0,15.87C82.53,60.64,82.34,60.9,82,61.13Z" style="fill: url(#linear-gradient-2)"/>
    <rect height="0.94" style="fill: url(#linear-gradient-3)" transform="translate(220.49 121.31) rotate(-180)" width="126.04" x="47.23" y="60.19"/>
    <path d="M113.89,138.65c11.17-.84,20.32-4,24.66-10.11l.06-.07v0c1-1.11.73-5.5.82-11.28V117a7.22,7.22,0,0,0,5-1.7,7.32,7.32,0,0,0,2.47-5.41v18.66l-1.81,6.63-28.88,6.63-6-1.77-6.75,1.77L97.29,139C103.66,139.05,109.64,139.05,113.89,138.65Z" style="fill: url(#Gold_29)"/>
    <path d="M105.24,140v2.92s0,.05,0,.08a56.79,56.79,0,0,1-16.28-3.25v-3.5A44,44,0,0,0,105.24,140Z" style="fill: url(#Gold_29-2)"/>
    <rect height="27.22" style="fill: url(#Gold_29-3)" transform="translate(179.33 247.03) rotate(-180)" width="36.47" x="71.43" y="109.91"/>
    <path d="M146.87,126.69V83.06h5.23v41.58c.23,5.39-1.57,9.08-5.2,11.26l0,0v-9.24Z" style="fill: url(#Gold_29-4)"/>
    <path d="M115.21,140a62.47,62.47,0,0,0,15.13-2.84h0a42.9,42.9,0,0,1,8.21-1.75c4.82-1,7.7-3.41,8.31-7.56v8.11a19.8,19.8,0,0,1-8.41,2.45,48.14,48.14,0,0,0-8.11,1.72h0A63.73,63.73,0,0,1,115.12,143v-3.24A1.19,1.19,0,0,1,115.21,140Z" style="fill: url(#Gold_29-5)"/>
    <path d="M115.12,139.73V143c-.65-2.72-9.26-2.59-9.87-.08V140C105.76,137.37,114.17,137.38,115.12,139.73Z" style="fill: url(#Gold_29-6)"/>
    <path d="M135.68,69.31h-3.2C133.67,68.39,134.74,68.39,135.68,69.31Z" style="fill: none"/>
    <path d="M139.43,93.69c.25,10.21-.32,20.44,0,30.65a9,9,0,0,1-.82,4.13c-.71,1.49-1.88,2.79-4.83,4.57a36.87,36.87,0,0,1-10.09,4.13c-2.31.53-4.3.87-5.86,1.08,0,0-2.81.39-6.34.58-1.26.07-1.44,0-2.12.09-.3,0-.61,0-.91,0s-.68,0-.76-.12,0-.1,0-.24a3.18,3.18,0,0,0,0-.62,2,2,0,0,1,.17-.85A69.68,69.68,0,0,1,95.49,136a43.7,43.7,0,0,1-8.72-2.42,32.06,32.06,0,0,1-4.25-2.08,15,15,0,0,1-3.66-2.59,8.2,8.2,0,0,1-2-3.22,7.64,7.64,0,0,1-.35-2.06c-.39-9.86-.12-16.65-.12-16.65.07-1.74,0,0,0-13.42,0-4.14,0-7.77,0-10.75l63,.25C139.32,87.67,139.37,91.37,139.43,93.69Z" style="fill: url(#linear-gradient-4)"/>
    <path d="M126.22,80.48a40.73,40.73,0,0,0-6.65-11.17h12.91C130.62,70.75,128.49,74.45,126.22,80.48Z" style="fill: none"/>
    <rect height="1.84" style="fill: url(#Gold_29-7)" transform="translate(179.37 276.09) rotate(-180)" width="36.51" x="71.43" y="137.13"/>
    <rect height="1.87" style="fill: url(#Silver_01)" transform="translate(121.8 240.63) rotate(-180)" width="21.06" x="50.37" y="119.38"/>
    <polygon points="46.23 117.63 46.23 119.38 50.37 121.25 50.37 119.38 46.23 117.63" style="fill: url(#Silver_01-2)"/>
    <polygon points="46.23 133.17 46.23 134.92 50.37 136.79 50.37 134.92 46.23 133.17" style="fill: url(#Silver_01-3)"/>
    <path d="M46.23,114.06v3.56l4.14,1.75H71.43v-7.06H50.37Zm3.94,1.76c0-.5.92-.91,2.06-.91s2.06.41,2.06.91-.92.91-2.06.91S50.16,116.33,50.16,115.82Z" style="fill: url(#Silver_01-4)"/>
    <rect height="1.88" style="fill: url(#Silver_01-5)" transform="translate(121.8 271.83) rotate(-180)" width="21.06" x="50.37" y="134.98"/>
    <path d="M46.23,129.67v3.56L50.37,135H71.43v-7.06H50.37Zm3.94,1.76c0-.5.92-.91,2.06-.91s2.06.41,2.06.91-.92.91-2.06.91S50.16,131.93,50.16,131.42Z" style="fill: url(#Silver_01-6)"/>
    <rect height="18.92" style="fill: #e4e8eb" transform="translate(219.28 147.21) rotate(-180)" width="116.75" x="51.26" y="64.15"/>
    <rect height="3.02" style="fill: url(#linear-gradient-5)" transform="translate(219.18 125.27) rotate(-180)" width="125.99" x="46.6" y="61.13"/>
    <path d="M136.64,44.31l.72-.37.58.46,0,0a1,1,0,0,1-.66.66h0A1,1,0,0,0,136.64,44.31Z" style="fill: none"/>
    <path d="M138.51,61.13V43.33l-.64,1.18V60.19a.92.92,0,0,0,0,.32c0,.24.22.57.5.62A.42.42,0,0,0,138.51,61.13Z" style="fill: url(#linear-gradient-6)"/>
    <path d="M47.23,36.59V35.38H85.08l2.23,1.11.24.11H47.23Z" style="fill: url(#linear-gradient-7)"/>
    <polygon points="87.77 43.5 82.02 43.5 82.02 60.19 47.23 60.19 47.23 37.5 87.77 37.5 87.77 43.5" style="fill: none"/>
    <rect height="0.91" style="fill: none" x="47.23" y="36.59"/>
    <path d="M87.44,36.59h.12c.18.09.25.19.22.29v.53H47.23v-.82Z" style="fill: url(#linear-gradient-8)"/>
    <path d="M87.78,37.41v-.5c.16,0,.34.3.51.58L88,37.41Z" style="fill: url(#linear-gradient-9)"/>
    <polygon points="88.03 37.41 88.29 37.49 88.29 37.5 88.29 43.53 88.03 43.45 87.78 43.45 87.78 37.41 88.03 37.41" style="fill: url(#linear-gradient-10)"/>
    <polygon points="93.81 37.41 47.23 37.5 47.23 60.19 87.2 60.19 87.16 43.39 93.81 43.39 93.81 37.41" style="fill: url(#linear-gradient-11)"/>
    <path d="M173.28,36.59V35.38H135.43l-2.23,1.11-.24.11h40.32Z" style="fill: url(#linear-gradient-12)"/>
    <polygon points="132.74 43.5 138.49 43.5 138.49 60.19 173.28 60.19 173.28 37.5 132.74 37.5 132.74 43.5" style="fill: none"/>
    <rect height="0.91" style="fill: none" x="173.28" y="36.59"/>
    <path d="M133.07,36.59h-.12c-.18.09-.25.19-.22.29v.53h40.55v-.82Z" style="fill: url(#linear-gradient-13)"/>
    <path d="M132.73,37.41v-.5c-.16,0-.34.3-.51.58l.25-.08Z" style="fill: url(#linear-gradient-14)"/>
    <polygon points="132.47 37.41 132.22 37.49 132.22 37.5 132.22 43.53 132.47 43.45 132.73 43.45 132.73 37.41 132.47 37.41" style="fill: url(#linear-gradient-15)"/>
    <path d="M137.49,44a3.77,3.77,0,0,1,.58.48l.46-1.05C138.19,43.58,137.84,43.77,137.49,44Z" style="fill: none"/>
    <polygon points="122.08 37.41 173.28 37.5 173.28 60.19 129.35 60.19 129.4 43.39 122.08 43.39 122.08 37.41" style="fill: url(#linear-gradient-16)"/>
    <line style="fill: url(#linear-gradient-17)" x1="130.35" x2="130.35" y1="137.13" y2="140.09"/>
    <line style="fill: url(#linear-gradient-18)" x1="138.58" x2="138.58" y1="127.92" y2="135.39"/>
    <path d="M82.5,60.66c16.89,7.09,38.23,7.26,55.44,0V44.44" style="fill: none"/>
    <path d="M88.29,43.53v0a.88.88,0,0,1-.19.52,1,1,0,0,1-.31.28v-.92H88Z" style="fill: url(#linear-gradient-19)"/>
    <path d="M132.22,43.51h-.11s0,0,0,.06,0,0,0,.09a1.22,1.22,0,0,0,.06.19.87.87,0,0,0,.17.28.79.79,0,0,0,.38.22v-.92h-.26Z" style="fill: url(#linear-gradient-20)"/>
    <path d="M46.33,2.92h.35l.15.33V56.5l-1.1-.71c-1-19.38-1.38-42.39-2-50.92Z" style="fill: url(#linear-gradient-21)"/>
    <path d="M42.71,2.92c.49,3.78.63,11.51.77,19.25.28,14.26.52,29,1.29,35.42l1-1.79c-.74-20.1-1.58-45.33-2-50.92Z" style="fill: url(#linear-gradient-22)"/>
    <path d="M42.21,2.92h.35l.15.33q.62,27.41,1.63,54.33L41.6,55.79c-1-19.38-1.38-42.39-2-50.92Z" style="fill: url(#linear-gradient-23)"/>
    <path d="M44.77,57.58C43.4,35.89,43.62,9.41,42.71,2.92h-.33c.43,3,.58,9.78.75,16.33l.6,22.85c0,5.68.15,11,.6,15.48a.37.37,0,0,0,.44,0" style="fill: url(#linear-gradient-24)"/>
    <path d="M38.58,2.92c.49,3.78.63,11.51.77,19.25.28,14.26.52,29,1.29,35.42l1-1.79c-.74-20.1-1.58-45.33-2-50.92Z" style="fill: url(#linear-gradient-25)"/>
    <path d="M40.65,57.58c-1.37-21.7-1.15-48.17-2.06-54.67h-.33c.43,3,.58,9.78.75,16.33l.6,22.85c0,5.68.15,11,.6,15.48a.37.37,0,0,0,.44,0" style="fill: url(#linear-gradient-26)"/>
    <path d="M38,2.92h.35l.15.33q.62,27.41,1.63,54.33l-2.73-1.79c-1-19.38-1.38-42.39-2-50.92Z" style="fill: url(#linear-gradient-27)"/>
    <path d="M34.34,2.92c.49,3.78.63,11.51.77,19.25.28,14.26.52,29,1.29,35.42l1-1.79c-.74-20.1-1.58-45.33-2-50.92Z" style="fill: url(#linear-gradient-28)"/>
    <path d="M36.41,57.58C35,35.89,35.25,9.41,34.34,2.92H34c.43,3,.58,9.78.75,16.33l.6,22.85c0,5.68.15,11,.6,15.48a.37.37,0,0,0,.44,0" style="fill: url(#linear-gradient-29)"/>
    <path d="M33.64,2.92H34l.15.33q.62,27.41,1.63,54.33L33,55.79C32,36.41,31.65,13.4,31,4.87Z" style="fill: url(#linear-gradient-30)"/>
    <path d="M30,2.92c.49,3.78.63,11.51.77,19.25.28,14.26.52,29,1.29,35.42l1-1.79c-.74-20.1-1.58-45.33-2-50.92Z" style="fill: url(#linear-gradient-31)"/>
    <path d="M32.07,57.58C30.7,35.89,30.92,9.41,30,2.92h-.33c.43,3,.58,9.78.75,16.33L31,42.1c0,5.68.15,11,.6,15.48a.37.37,0,0,0,.44,0" style="fill: url(#linear-gradient-32)"/>
    <path d="M29.4,2.92h.35l.15.33q.62,27.41,1.63,54.33l-2.73-1.79c-1-19.38-1.38-42.39-2-50.92Z" style="fill: url(#linear-gradient-33)"/>
    <path d="M25.77,2.92c.49,3.78.63,11.51.77,19.25.28,14.26.52,29,1.29,35.42l1-1.79c-.74-20.1-1.58-45.33-2-50.92Z" style="fill: url(#linear-gradient-34)"/>
    <path d="M27.83,57.58c-1.37-21.7-1.15-48.17-2.06-54.67h-.33c.43,3,.58,9.78.75,16.33l.6,22.85c0,5.68.15,11,.6,15.48a.37.37,0,0,0,.44,0" style="fill: url(#linear-gradient-35)"/>
    <path d="M25.16,2.92h.35l.15.33q.62,27.41,1.63,54.33l-2.73-1.79c-1-19.38-1.38-42.39-2-50.92Z" style="fill: url(#linear-gradient-36)"/>
    <path d="M21.53,2.92c.49,3.78.63,11.51.77,19.25.28,14.26.52,29,1.29,35.42l1-1.79c-.74-20.1-1.58-45.33-2-50.92Z" style="fill: url(#linear-gradient-37)"/>
    <path d="M23.59,57.58c-1.37-21.7-1.15-48.17-2.06-54.67H21.2c.43,3,.58,9.78.75,16.33l.6,22.85c0,5.68.15,11,.6,15.48a.37.37,0,0,0,.44,0" style="fill: url(#linear-gradient-38)"/>
    <path d="M20.92,2.92h.35l.15.33Q22,30.66,23,57.58l-2.73-1.79c-1-19.38-1.38-42.39-2-50.92Z" style="fill: url(#linear-gradient-39)"/>
    <path d="M17.29,2.92c.49,3.78.63,11.51.77,19.25.28,14.26.52,29,1.29,35.42l1-1.79c-.74-20.1-1.58-45.33-2-50.92Z" style="fill: url(#linear-gradient-40)"/>
    <path d="M19.35,57.58C18,35.89,18.2,9.41,17.29,2.92H17c.43,3,.58,9.78.75,16.33l.6,22.85c0,5.68.15,11,.6,15.48a.37.37,0,0,0,.44,0" style="fill: url(#linear-gradient-41)"/>
    <path d="M16.68,2.92H17l.15.33q.62,27.41,1.63,54.33l-2.73-1.79c-1-19.38-1.38-42.39-2-50.92Z" style="fill: url(#linear-gradient-42)"/>
    <path d="M13.05,2.92c.49,3.78.63,11.51.77,19.25.28,14.26.52,29,1.29,35.42l1-1.79c-.74-20.1-1.58-45.33-2-50.92Z" style="fill: url(#linear-gradient-43)"/>
    <path d="M15.11,57.58C13.74,35.89,14,9.41,13.05,2.92h-.33c.43,3,.58,9.78.75,16.33l.6,22.85c0,5.68.15,11,.6,15.48a.37.37,0,0,0,.44,0" style="fill: url(#linear-gradient-44)"/>
    <path d="M12.44,2.92h.35l.15.33q.62,27.41,1.63,54.33l-2.73-1.79c-1-19.38-1.38-42.39-2-50.92Z" style="fill: url(#linear-gradient-45)"/>
    <path d="M8.81,2.92c.49,3.78.63,11.51.77,19.25.28,14.26.52,29,1.29,35.42l1-1.79c-.74-20.1-1.58-45.33-2-50.92Z" style="fill: url(#linear-gradient-46)"/>
    <path d="M10.88,57.58C9.5,35.89,9.72,9.41,8.81,2.92H8.48c.43,3,.58,9.78.75,16.33l.6,22.85c0,5.68.15,11,.6,15.48a.37.37,0,0,0,.44,0" style="fill: url(#linear-gradient-47)"/>
    <path d="M8.2,2.92h.35l.15.33q.62,27.41,1.62,54.33L7.59,55.79c-1-19.38-1.38-42.39-2-50.92Z" style="fill: url(#linear-gradient-48)"/>
    <path d="M4.57,2.92c.49,3.78.63,11.51.77,19.25.28,14.26.52,29,1.29,35.42l1-1.79C6.86,35.69,6,10.46,5.59,4.87Z" style="fill: url(#linear-gradient-49)"/>
    <path d="M6.64,57.58C5.26,35.89,5.48,9.41,4.57,2.92H4.24c.43,3,.58,9.78.75,16.33l.6,22.85c0,5.68.15,11,.6,15.48a.37.37,0,0,0,.44,0" style="fill: url(#linear-gradient-50)"/>
    <path d="M4,2.92h.35l.15.33q.62,27.41,1.62,54.33L3.35,55.79C2.34,36.41,2,13.4,1.35,4.87Z" style="fill: url(#linear-gradient-51)"/>
    <path d="M.33,2.92C.82,6.7,1,14.43,1.1,22.17c.28,14.26.52,29,1.29,35.42l1-1.79c-.74-20.1-1.58-45.33-2-50.92Z" style="fill: url(#linear-gradient-52)"/>
    <path d="M2.4,57.58C1,35.89,1.24,9.41.33,2.92H0C.43,6,.58,12.7.75,19.25l.6,22.85c0,5.68.15,11,.6,15.48a.37.37,0,0,0,.44,0" style="fill: url(#linear-gradient-53)"/>
    <path d="M.9,56.5,2,57.58C1.34,35.69.75,11,0,2.92Z" style="fill: url(#linear-gradient-54)"/>
    <path d="M173.78,2.92h-.35l-.15.33V56.5l1.1-.71c1-19.38,1.38-42.39,2-50.92Z" style="fill: url(#linear-gradient-55)"/>
    <path d="M177.41,2.92c-.49,3.78-.63,11.51-.77,19.25-.28,14.26-.52,29-1.29,35.42l-1-1.79c.74-20.1,1.58-45.33,2-50.92Z" style="fill: url(#linear-gradient-56)"/>
    <path d="M177.91,2.92h-.35l-.15.33q-.62,27.41-1.62,54.33l2.73-1.79c1-19.38,1.38-42.39,2-50.92Z" style="fill: url(#linear-gradient-57)"/>
    <path d="M175.34,57.58c1.37-21.7,1.15-48.17,2.06-54.67h.33c-.43,3-.58,9.78-.75,16.33l-.6,22.85c0,5.68-.15,11-.6,15.48a.37.37,0,0,1-.44,0" style="fill: url(#linear-gradient-58)"/>
    <path d="M181.53,2.92c-.49,3.78-.63,11.51-.77,19.25-.28,14.26-.52,29-1.29,35.42l-1-1.79c.74-20.1,1.58-45.33,2-50.92Z" style="fill: url(#linear-gradient-59)"/>
    <path d="M179.47,57.58c1.37-21.7,1.15-48.17,2.06-54.67h.33c-.43,3-.58,9.78-.75,16.33l-.6,22.85c0,5.68-.15,11-.6,15.48a.37.37,0,0,1-.44,0" style="fill: url(#linear-gradient-60)"/>
    <path d="M182.14,2.92h-.35l-.15.33Q181,30.66,180,57.58l2.73-1.79c1-19.38,1.38-42.39,2-50.92Z" style="fill: url(#linear-gradient-61)"/>
    <path d="M185.77,2.92c-.49,3.78-.63,11.51-.77,19.25-.28,14.26-.52,29-1.29,35.42l-1-1.79c.74-20.1,1.58-45.33,2-50.92Z" style="fill: url(#linear-gradient-62)"/>
    <path d="M183.71,57.58c1.37-21.7,1.15-48.17,2.06-54.67h.33c-.43,3-.58,9.78-.75,16.33l-.6,22.85c0,5.68-.15,11-.6,15.48a.37.37,0,0,1-.44,0" style="fill: url(#linear-gradient-63)"/>
    <path d="M186.48,2.92h-.35l-.15.33q-.62,27.41-1.62,54.33l2.73-1.79c1-19.38,1.38-42.39,2-50.92Z" style="fill: url(#linear-gradient-64)"/>
    <path d="M190.1,2.92c-.49,3.78-.63,11.51-.77,19.25-.28,14.26-.52,29-1.29,35.42l-1-1.79c.74-20.1,1.58-45.33,2-50.92Z" style="fill: url(#linear-gradient-65)"/>
    <path d="M188,57.58c1.37-21.7,1.15-48.17,2.06-54.67h.33c-.43,3-.58,9.78-.75,16.33l-.6,22.85c0,5.68-.15,11-.6,15.48a.37.37,0,0,1-.44,0" style="fill: url(#linear-gradient-66)"/>
    <path d="M190.72,2.92h-.35l-.15.33q-.62,27.41-1.62,54.33l2.73-1.79c1-19.38,1.38-42.39,2-50.92Z" style="fill: url(#linear-gradient-67)"/>
    <path d="M194.34,2.92c-.49,3.78-.63,11.51-.77,19.25-.28,14.26-.52,29-1.29,35.42l-1-1.79c.74-20.1,1.58-45.33,2-50.92Z" style="fill: url(#linear-gradient-68)"/>
    <path d="M192.28,57.58c1.37-21.7,1.15-48.17,2.06-54.67h.33c-.43,3-.58,9.78-.75,16.33l-.6,22.85c0,5.68-.15,11-.6,15.48a.37.37,0,0,1-.44,0" style="fill: url(#linear-gradient-69)"/>
    <path d="M195,2.92h-.35l-.15.33q-.62,27.41-1.62,54.33l2.73-1.79c1-19.38,1.38-42.39,2-50.92Z" style="fill: url(#linear-gradient-70)"/>
    <path d="M198.58,2.92c-.49,3.78-.63,11.51-.77,19.25-.28,14.26-.52,29-1.29,35.42l-1-1.79c.74-20.1,1.58-45.33,2-50.92Z" style="fill: url(#linear-gradient-71)"/>
    <path d="M196.52,57.58c1.37-21.7,1.15-48.17,2.06-54.67h.33c-.43,3-.58,9.78-.75,16.33l-.6,22.85c0,5.68-.15,11-.6,15.48a.37.37,0,0,1-.44,0" style="fill: url(#linear-gradient-72)"/>
    <path d="M199.2,2.92h-.35l-.15.33q-.62,27.41-1.62,54.33l2.73-1.79c1-19.38,1.38-42.39,2-50.92Z" style="fill: url(#linear-gradient-73)"/>
    <path d="M202.82,2.92c-.49,3.78-.63,11.51-.77,19.25-.28,14.26-.52,29-1.29,35.42l-1-1.79c.74-20.1,1.58-45.33,2-50.92Z" style="fill: url(#linear-gradient-74)"/>
    <path d="M200.76,57.58c1.37-21.7,1.15-48.17,2.06-54.67h.33c-.43,3-.58,9.78-.75,16.33l-.6,22.85c0,5.68-.15,11-.6,15.48a.37.37,0,0,1-.44,0" style="fill: url(#linear-gradient-75)"/>
    <path d="M203.44,2.92h-.35l-.15.33q-.62,27.41-1.62,54.33L204,55.79c1-19.38,1.38-42.39,2-50.92Z" style="fill: url(#linear-gradient-76)"/>
    <path d="M207.06,2.92c-.49,3.78-.63,11.51-.77,19.25-.28,14.26-.52,29-1.29,35.42l-1-1.79c.74-20.1,1.58-45.33,2-50.92Z" style="fill: url(#linear-gradient-77)"/>
    <path d="M205,57.58c1.37-21.7,1.15-48.17,2.06-54.67h.33c-.43,3-.58,9.78-.75,16.33L206,42.1c0,5.68-.15,11-.6,15.48a.37.37,0,0,1-.44,0" style="fill: url(#linear-gradient-78)"/>
    <path d="M207.68,2.92h-.35l-.15.33q-.62,27.41-1.62,54.33l2.73-1.79c1-19.38,1.38-42.39,2-50.92Z" style="fill: url(#linear-gradient-79)"/>
    <path d="M211.3,2.92c-.49,3.78-.63,11.51-.77,19.25-.28,14.26-.52,29-1.29,35.42l-1-1.79c.74-20.1,1.58-45.33,2-50.92Z" style="fill: url(#linear-gradient-80)"/>
    <path d="M209.24,57.58c1.37-21.7,1.15-48.17,2.06-54.67h.33c-.43,3-.58,9.78-.75,16.33l-.6,22.85c0,5.68-.15,11-.6,15.48a.37.37,0,0,1-.44,0" style="fill: url(#linear-gradient-81)"/>
    <path d="M211.92,2.92h-.35l-.15.33q-.62,27.41-1.62,54.33l2.73-1.79c1-19.38,1.38-42.39,2-50.92Z" style="fill: url(#linear-gradient-82)"/>
    <path d="M215.54,2.92c-.49,3.78-.63,11.51-.77,19.25-.28,14.26-.52,29-1.29,35.42l-1-1.79c.74-20.1,1.58-45.33,2-50.92Z" style="fill: url(#linear-gradient-83)"/>
    <path d="M213.48,57.58c1.37-21.7,1.15-48.17,2.06-54.67h.33c-.43,3-.58,9.78-.75,16.33l-.6,22.85c0,5.68-.15,11-.6,15.48a.37.37,0,0,1-.44,0" style="fill: url(#linear-gradient-84)"/>
    <path d="M216.16,2.92h-.35l-.15.33Q215,30.66,214,57.58l2.73-1.79c1-19.38,1.38-42.39,2-50.92Z" style="fill: url(#linear-gradient-85)"/>
    <path d="M219.78,2.92c-.49,3.78-.63,11.51-.77,19.25-.28,14.26-.52,29-1.29,35.42l-1-1.79c.74-20.1,1.58-45.33,2-50.92Z" style="fill: url(#linear-gradient-86)"/>
    <path d="M217.72,57.58c1.37-21.7,1.15-48.17,2.06-54.67h.33c-.43,3-.58,9.78-.75,16.33l-.6,22.85c0,5.68-.15,11-.6,15.48a.37.37,0,0,1-.44,0" style="fill: url(#linear-gradient-87)"/>
    <path d="M219.22,56.5l-1.06,1.08c-.26,0,1.7-54.68,2-54.67Z" style="fill: url(#linear-gradient-88)"/>
    <rect height="33.01" style="fill: url(#linear-gradient-89)" transform="translate(221.61 54.05) rotate(-180)" width="126.2" x="47.71" y="10.52"/>
    <rect height="48.19" style="fill: url(#linear-gradient-90)" width="55.67" x="82.5" y="12.14"/>
    <ellipse cx="110.19" cy="12.14" rx="27.98" ry="12.14" style="fill: url(#linear-gradient-91)"/>
  </g>
  <g id="Connectors">
    <circle cx="52.19" cy="115.84" data-cir-type="female" id="circuitoCon_Coil2" r="0.94" style="fill: none"/>
    <circle cx="52.19" cy="131.45" data-cir-type="female" id="circuitoCon_Coil1" r="0.94" style="fill: none"/>
  </g>
</svg>