<?xml version="1.0" ?><svg height="18.26mm" viewBox="0 0 37.78 51.75" width="13.33mm" xmlns="http://www.w3.org/2000/svg">
  <title>Triple-axis Magnetometer (Compass) Board - HMC5883L</title>
  <g data-name="Dark Blue" id="Dark_Blue">
    <circle cx="33.79" cy="47.18" r="1.42" style="fill: none"/>
    <circle cx="26.59" cy="47.18" r="1.42" style="fill: none"/>
    <circle cx="4.99" cy="47.18" r="1.42" style="fill: none"/>
    <circle cx="12.19" cy="47.18" r="1.42" style="fill: none"/>
    <circle cx="19.39" cy="47.18" r="1.42" style="fill: none"/>
    <rect height="8.44" style="fill: #1b1a20" width="8.29" x="14.94" y="19.63"/>
    <rect height="1.31" style="fill: #969192" width="0.77" x="16.63" y="18.31"/>
    <rect height="1.31" style="fill: #969192" width="0.77" x="19.54" y="18.31"/>
    <rect height="1.02" style="fill: #969192" width="0.77" x="18.09" y="18.61"/>
    <rect height="1.31" style="fill: #969192" width="0.77" x="20.86" y="18.31"/>
    <rect height="0.83" style="fill: #969192" width="1.23" x="23.23" y="25.58"/>
    <rect height="0.83" style="fill: #969192" width="1.23" x="23.23" y="24.23"/>
    <rect height="0.83" style="fill: #969192" width="1.23" x="23.23" y="22.79"/>
    <rect height="0.83" style="fill: #969192" width="1.23" x="23.23" y="21.33"/>
    <rect height="1.25" style="fill: #969192" width="0.77" x="20.86" y="28.06"/>
    <rect height="1.25" style="fill: #969192" width="0.77" x="18.18" y="28.06"/>
    <rect height="1.04" style="fill: #969192" width="0.77" x="19.55" y="28.06"/>
    <rect height="1.25" style="fill: #969192" width="0.77" x="16.74" y="28.06"/>
    <rect height="0.83" style="fill: #969192" width="1.09" x="13.84" y="25.58"/>
    <rect height="0.83" style="fill: #969192" width="1.09" x="13.84" y="24.23"/>
    <rect height="0.83" style="fill: #969192" width="1.09" x="13.84" y="22.86"/>
    <rect height="0.83" style="fill: #969192" width="1.09" x="13.84" y="21.33"/>
    <circle cx="26.59" cy="47.18" r="1.42" style="fill: none"/>
    <circle cx="4.99" cy="47.18" r="1.42" style="fill: none"/>
    <circle cx="33.79" cy="47.18" r="1.42" style="fill: none"/>
    <circle cx="12.19" cy="47.18" r="1.42" style="fill: none"/>
    <circle cx="19.39" cy="47.18" r="1.42" style="fill: none"/>
    <circle cx="7.25" cy="7.25" r="4.38" style="fill: none"/>
    <circle cx="31.33" cy="7.25" r="4.38" style="fill: none"/>
    <path d="M0,0V51.75H37.78V0ZM5,48.6a1.42,1.42,0,1,1,1.42-1.42A1.42,1.42,0,0,1,5,48.6ZM8.65,32.73a1.21,1.21,0,1,1,1.21-1.21A1.21,1.21,0,0,1,8.65,32.73ZM12.19,48.6a1.42,1.42,0,1,1,1.42-1.42A1.42,1.42,0,0,1,12.19,48.6ZM10.58,21.75A1.21,1.21,0,1,1,11.79,23,1.21,1.21,0,0,1,10.58,21.75Zm3.57,9.77a1.21,1.21,0,1,1,1.21,1.21A1.21,1.21,0,0,1,14.15,31.52ZM19.39,48.6a1.42,1.42,0,1,1,1.42-1.42A1.42,1.42,0,0,1,19.39,48.6Zm7.2,0A1.42,1.42,0,1,1,28,47.18,1.42,1.42,0,0,1,26.59,48.6Zm4-3.41h-.69a6.19,6.19,0,0,0-3-1.78v1.52H26V43.47a3.62,3.62,0,0,0-2.78,1.66l-1,0a3.91,3.91,0,0,0-1.38-1.22,4.27,4.27,0,0,0-3.37-.15L15.92,42.1v-.67H17.8v-.61h.82v.66h1.79v1.09h4V41.48H26.3V42h1V39.68h4.27V41.5h.8v2.32a1.7,1.7,0,0,0-1,.25A1.76,1.76,0,0,0,30.63,45.19ZM23.56,16.13V12.4h.57V20l-.91.91V19.71h-.87V17.93h-.53v.39h-1l-1.32-1.48v-.69H20.8v-.4h.83v.38ZM19.75,30.31a1.21,1.21,0,1,1-1.21,1.21A1.21,1.21,0,0,1,19.75,30.31Zm14,18.29a1.42,1.42,0,1,1,1.42-1.42A1.42,1.42,0,0,1,33.79,48.6Zm3.35-2.85-2.35-2.21V41.62h1v-8l-1.52-.1v.56h-1v-.56H31.73v1.35h.63v.71h-5.2V33.3H24.35a.7.7,0,0,0-.25-.51.69.69,0,0,0-.5-.15,1,1,0,0,0-1,.4H21.8V31.38l.82-.94,0-2.37h.58v-.87h2.08V22.35l1.26-1.26V11.54L22.94,7.91H15.5l-2.56,2.56V16l2.76,2.76v1h-.76v.83H13.25a1.78,1.78,0,0,0-3.21.75,3.12,3.12,0,0,0,.54,2.19H6L1.57,27.89V1.35H37.14Z" style="fill: #1a2c80"/>
    <path d="M1.57,27.89,6,23.48h4.6A3.12,3.12,0,0,1,10,21.29a1.78,1.78,0,0,1,3.21-.75h1.69v-.83h.76v-1L12.94,16V10.48L15.5,7.91h7.44l3.63,3.63V21.1l-1.26,1.26v4.83H23.23v.88h-.58l0,2.38-.82.94V33h.84a1,1,0,0,1,1-.4.69.69,0,0,1,.5.15.7.7,0,0,1,.25.51h2.81v2.28h5.2v-.71h-.63V33.52h1.54v.56h1v-.56l1.52.1v8h-1v1.92l2.35,2.21V1.35H1.57Zm22.54,4a.48.48,0,1,1,.48-.48A.48.48,0,0,1,24.11,31.86Zm9.73,0a.48.48,0,1,1,.48-.48A.48.48,0,0,1,33.84,31.86Zm-2.5-29A4.38,4.38,0,1,1,27,7.25,4.37,4.37,0,0,1,31.33,2.88Zm-24.08,0A4.38,4.38,0,1,1,2.88,7.25,4.37,4.37,0,0,1,7.25,2.88Z" style="fill: #0b5597"/>
    <path d="M20.8,15.75v.4H19.54v.69l1.32,1.48h1v-.39h.53v1.78h.88v1.23l.91-.91V12.4h-.57v3.73H21.63v-.38Zm2.54.79a.48.48,0,1,1-.48.48A.48.48,0,0,1,23.33,16.54Z" style="fill: #0b5597"/>
    <path d="M8.65,30.31a1.21,1.21,0,1,0,1.21,1.21A1.21,1.21,0,0,0,8.65,30.31Zm.29,1.55a.48.48,0,1,1,.48-.48A.48.48,0,0,1,8.94,31.86Z" style="fill: #0b5597"/>
    <path d="M16.57,31.52a1.21,1.21,0,1,0-1.21,1.21A1.21,1.21,0,0,0,16.57,31.52Zm-1,.34a.48.48,0,1,1,.48-.48A.48.48,0,0,1,15.52,31.86Z" style="fill: #0b5597"/>
    <path d="M18.54,31.52a1.21,1.21,0,1,0,1.21-1.21A1.21,1.21,0,0,0,18.54,31.52Zm1.21-.63a.48.48,0,1,1-.48.48A.48.48,0,0,1,19.75,30.89Z" style="fill: #0b5597"/>
    <path d="M11.79,23a1.21,1.21,0,1,0-1.21-1.21A1.21,1.21,0,0,0,11.79,23Zm0-1.76a.48.48,0,1,1-.48.48A.48.48,0,0,1,11.79,21.2Z" style="fill: #0b5597"/>
    <path d="M32.36,41.5h-.8V39.68H27.3V42h-1v-.56H24.38v1.09h-4V41.48H18.61v-.66H17.8v.61H15.92v.67l1.64,1.64a4.27,4.27,0,0,1,3.37.15,3.91,3.91,0,0,1,1.38,1.22l1,0A3.62,3.62,0,0,1,26,43.47v1.45h.84V43.41a6.19,6.19,0,0,1,3,1.78h.69a1.76,1.76,0,0,1,.76-1.12,1.7,1.7,0,0,1,1-.25Zm-2.49.6a.48.48,0,1,1,.48-.48A.48.48,0,0,1,29.87,42.1Z" style="fill: #0b5597"/>
  </g>
  <g data-name="Light Blue" id="Light_Blue">
    <line style="fill: none;stroke: #0b5597;stroke-miterlimit: 10" x1="16.52" x2="20.44" y1="15.06" y2="18.98"/>
    <polyline points="24.14 21.75 25.31 20.58 25.31 11.66 23.86 10.22 22.94 10.22" style="fill: none;stroke: #0b5597;stroke-miterlimit: 10"/>
    <polyline points="17.59 18.97 13.9 15.27 13.9 11.26 15.02 10.13 16.08 10.13" style="fill: none;stroke: #0b5597;stroke-miterlimit: 10"/>
    <path d="M5.11,45.35,2.47,42.24V29.1l4.61-4.61h7.31" style="fill: none;stroke: #0b5597;stroke-miterlimit: 10"/>
    <polyline points="8.58 30.57 13.05 26.17 14.21 26.17" style="fill: none;stroke: #0b5597;stroke-miterlimit: 10"/>
    <polyline points="9.5 40.55 11.33 42.38 14.79 42.38 18.09 45.68" style="fill: none;stroke: #0b5597;stroke-miterlimit: 10"/>
    <polyline points="5.25 40.46 5.25 41.48 7.05 43.28 9.17 43.28 11.08 45.19" style="fill: none;stroke: #0b5597;stroke-miterlimit: 10"/>
    <line style="fill: none;stroke: #0b5597;stroke-miterlimit: 10" x1="33.52" x2="33.52" y1="40.69" y2="45.13"/>
    <line style="fill: none;stroke: #0b5597;stroke-miterlimit: 10" x1="12.49" x2="14.75" y1="21.75" y2="21.75"/>
    <polyline points="15.94 31.05 17.04 29.9 17.04 28.69" style="fill: none;stroke: #0b5597;stroke-miterlimit: 10"/>
    <polyline points="18.56 28.83 18.56 30.13 19.35 30.92" style="fill: none;stroke: #0b5597;stroke-miterlimit: 10"/>
    <polyline points="20.38 31.15 21.33 30.19 21.33 27.32" style="fill: none;stroke: #0b5597;stroke-miterlimit: 10"/>
    <polyline points="18.82 34.52 19.72 33.62 19.72 32.09" style="fill: none;stroke: #0b5597;stroke-miterlimit: 10"/>
    <line style="fill: none;stroke: #0b5597;stroke-miterlimit: 10" x1="31" x2="32.68" y1="37.54" y2="39.22"/>
    <polyline points="22.21 39.74 17.93 35.46 5.36 35.46" style="fill: none;stroke: #0b5597;stroke-miterlimit: 10"/>
    <polyline points="22.21 35.82 22.21 37.68 24.78 37.68" style="fill: none;stroke: #0b5597;stroke-miterlimit: 10"/>
  </g>
  <g id="Conectori">
    <rect height="5.6" style="fill: #1e1d18" width="1.52" x="23.23" y="21.04"/>
    <rect height="1.52" style="fill: #1e1d18" width="5.61" x="16.49" y="27.32"/>
    <rect height="5.56" style="fill: #1e1d18" width="1.42" x="13.62" y="20.94"/>
    <rect height="1.17" style="fill: #1e1d18" width="6.35" x="16.01" y="18.46"/>
    <rect height="3.65" style="fill: #b1aeaa" width="3.02" x="15.65" y="12.1"/>
    <rect height="3.65" style="fill: #b1aeaa" width="3.02" x="20.31" y="12.1"/>
    <rect height="3.65" style="fill: #b1aeaa" width="3.02" x="15.65" y="8.25"/>
    <rect height="3.65" style="fill: #b1aeaa" width="3.02" x="20.31" y="8.25"/>
    <rect height="2.63" style="fill: #1e1d18" width="3.03" x="20.61" y="33.43"/>
    <rect height="2.63" style="fill: #1e1d18" width="3.03" x="20.61" y="39.24"/>
    <rect height="2.97" style="fill: #1e1d18" width="4.25" x="26.59" y="36.05"/>
    <rect height="7.96" style="fill: #252426" width="3.29" x="23.4" y="33.52"/>
    <rect height="7.73" style="fill: #1f1d24" width="8.33" x="14.94" y="19.63"/>
    <g>
      <rect height="1.23" style="fill: #fff" width="0.66" x="16.74" y="27.35"/>
      <rect height="1.23" style="fill: #fff" width="0.66" x="18.03" y="27.35"/>
      <rect height="1.23" style="fill: #fff" width="0.66" x="19.33" y="27.35"/>
      <rect height="1.23" style="fill: #fff" width="0.66" x="20.63" y="27.35"/>
    </g>
    <g>
      <rect height="1.23" style="fill: #fff" width="0.66" x="16.74" y="18.36"/>
      <rect height="1.23" style="fill: #fff" width="0.66" x="18.03" y="18.36"/>
      <rect height="1.23" style="fill: #fff" width="0.66" x="19.33" y="18.36"/>
      <rect height="1.23" style="fill: #fff" width="0.66" x="20.63" y="18.36"/>
    </g>
    <g>
      <rect height="1.23" style="fill: #fff" transform="translate(-11.24 39.89) rotate(-90)" width="0.66" x="13.99" y="24.95"/>
      <rect height="1.23" style="fill: #fff" transform="translate(-9.95 38.6) rotate(-90)" width="0.66" x="13.99" y="23.66"/>
      <rect height="1.23" style="fill: #fff" transform="translate(-8.65 37.3) rotate(-90)" width="0.66" x="13.99" y="22.36"/>
      <rect height="1.23" style="fill: #fff" transform="translate(-7.36 36.01) rotate(-90)" width="0.66" x="13.99" y="21.07"/>
    </g>
    <g>
      <rect height="1.23" style="fill: #fff" transform="translate(-1.68 49.45) rotate(-90)" width="0.66" x="23.56" y="24.95"/>
      <rect height="1.23" style="fill: #fff" transform="translate(-0.39 48.16) rotate(-90)" width="0.66" x="23.56" y="23.66"/>
      <rect height="1.23" style="fill: #fff" transform="translate(0.91 46.86) rotate(-90)" width="0.66" x="23.56" y="22.36"/>
      <rect height="1.23" style="fill: #fff" transform="translate(2.2 45.57) rotate(-90)" width="0.66" x="23.56" y="21.07"/>
    </g>
  </g>
  <g id="Gauri">
    <g>
      <rect height="2.36" style="fill: #cac6bb" transform="translate(0.07 -0.13) rotate(0.39)" width="5.91" x="16.42" y="8.84"/>
      <rect height="2.94" style="fill: #d0d1cd" transform="translate(0.07 -0.13) rotate(0.39)" width="3.77" x="17.34" y="8.52"/>
      <path d="M20.79,11.47l-3.07,0A3.22,3.22,0,0,0,17.94,10a2.89,2.89,0,0,0-.2-1.45l3.07,0A4.79,4.79,0,0,0,20.57,10,5.16,5.16,0,0,0,20.79,11.47Z" style="fill: #745034"/>
    </g>
    <g>
      <rect height="2.36" style="fill: #cac6bb" transform="translate(0.1 -0.13) rotate(0.39)" width="5.91" x="16.42" y="12.77"/>
      <rect height="2.94" style="fill: #d0d1cd" transform="translate(0.1 -0.13) rotate(0.39)" width="3.77" x="17.34" y="12.46"/>
      <path d="M20.79,15.4l-3.07,0a3.22,3.22,0,0,0,.22-1.49,2.89,2.89,0,0,0-.2-1.45l3.07,0a4.79,4.79,0,0,0-.24,1.45A5.16,5.16,0,0,0,20.79,15.4Z" style="fill: #665a48"/>
    </g>
  </g>
  <g data-name="Layer 4" id="Layer_4">
    <rect height="2.6" style="fill: #b1aeaa" width="3.56" x="27.06" y="36.19"/>
    <rect height="0.79" style="fill: #b1aeaa" width="0.75" x="30.42" y="37.1"/>
    <polygon points="23.58 34.38 23.08 34.38 23.08 33.48 22.65 33.48 22.65 33.04 21.8 33.04 21.8 33.48 21.15 33.48 21.15 36.19 21.96 36.19 21.96 36.33 22.81 36.33 22.81 36.19 23.08 36.19 23.08 35.5 23.58 35.5 23.58 34.38" style="fill: #b1aeaa"/>
    <rect height="2.25" style="fill: #b1aeaa" width="2.13" x="21.15" y="39.25"/>
    <line style="fill: none;stroke: #9c9594;stroke-miterlimit: 10;stroke-width: 0.2px" x1="21.81" x2="21.1" y1="39.58" y2="38.88"/>
    <line style="fill: none;stroke: #9c9594;stroke-miterlimit: 10;stroke-width: 0.2px" x1="22.21" x2="21.51" y1="39.48" y2="38.78"/>
  </g>
  <g data-name="Layer 9" id="Layer_9">
    <path d="M24,21.68" style="fill: none;stroke: #0f314c;stroke-miterlimit: 10"/>
  </g>
  <g id="PAths">
    <path d="M5,44.76a2.42,2.42,0,1,0,2.42,2.42A2.42,2.42,0,0,0,5,44.76ZM5,48.6a1.42,1.42,0,1,1,1.42-1.42A1.42,1.42,0,0,1,5,48.6Z" data-name="5" id="_5" style="fill: #e2e2e2"/>
    <path d="M12.19,44.76a2.42,2.42,0,1,0,2.42,2.42A2.42,2.42,0,0,0,12.19,44.76Zm0,3.84a1.42,1.42,0,1,1,1.42-1.42A1.42,1.42,0,0,1,12.19,48.6Z" data-name="4" id="_4" style="fill: #e2e2e2"/>
    <path d="M19.39,44.76a2.42,2.42,0,1,0,2.42,2.42A2.42,2.42,0,0,0,19.39,44.76Zm0,3.84a1.42,1.42,0,1,1,1.42-1.42A1.42,1.42,0,0,1,19.39,48.6Z" data-name="3" id="_3" style="fill: #e2e2e2"/>
    <path d="M26.59,44.76A2.42,2.42,0,1,0,29,47.18,2.42,2.42,0,0,0,26.59,44.76Zm0,3.84A1.42,1.42,0,1,1,28,47.18,1.42,1.42,0,0,1,26.59,48.6Z" data-name="2" id="_2" style="fill: #e2e2e2"/>
    <path d="M33.79,44.76a2.42,2.42,0,1,0,2.42,2.42A2.42,2.42,0,0,0,33.79,44.76Zm0,3.84a1.42,1.42,0,1,1,1.42-1.42A1.42,1.42,0,0,1,33.79,48.6Z" data-name="1" id="_1" style="fill: #e2e2e2"/>
    <circle cx="7.25" cy="7.25" r="4.54" style="fill: none;stroke: #fafafa;stroke-miterlimit: 10"/>
    <circle cx="31.33" cy="7.25" r="4.54" style="fill: none;stroke: #fafafa;stroke-miterlimit: 10"/>
  </g>
  <g id="Connectors">
    <circle cx="33.79" cy="47.18" data-cir-type="male" id="circuitoCon_VCC" r="1.42" style="fill: none"/>
    <circle cx="26.59" cy="47.18" data-cir-type="male" id="circuitoCon_GND" r="1.42" style="fill: none"/>
    <circle cx="19.4" cy="47.18" data-cir-type="male" id="circuitoCon_SCL" r="1.42" style="fill: none"/>
    <circle cx="12.19" cy="47.18" data-cir-type="male" id="circuitoCon_SDA" r="1.42" style="fill: none"/>
  </g>
  <g id="text">
    <g>
      <path d="M19,25.68a.15.15,0,0,1,.3,0V27H17.11a.15.15,0,0,1,0-.3H19Z" style="fill: #4e4b4a"/>
      <path d="M17,24.6a.14.14,0,0,1,.15-.15H18a.31.31,0,0,1,.08-.22.29.29,0,0,1,.22-.08H19a.28.28,0,0,1,.3.3v.88a.28.28,0,0,1-.3.3h-.72a.29.29,0,0,1-.22-.08.31.31,0,0,1-.08-.22h-.87a.14.14,0,0,1-.15-.15Zm1,.15h-.72V25H18Zm1-.3h-.72v.88H19Z" style="fill: #4e4b4a"/>
      <path d="M17,23a.14.14,0,0,1,.15-.15H18a.31.31,0,0,1,.08-.22.29.29,0,0,1,.22-.08H19a.28.28,0,0,1,.3.3v.88a.28.28,0,0,1-.3.3h-.72a.29.29,0,0,1-.22-.08.31.31,0,0,1-.08-.22h-.87a.14.14,0,0,1-.15-.15Zm1,.15h-.72v.28H18Zm1-.3h-.72v.88H19Z" style="fill: #4e4b4a"/>
      <path d="M17.26,22.54a.15.15,0,0,1-.3,0v-1a.29.29,0,0,1,.3-.3h.58a.35.35,0,0,1,.29.12.35.35,0,0,1,.29-.12H19a.29.29,0,0,1,.3.3v1a.15.15,0,0,1-.3,0v-1h-.5c-.17,0-.22.07-.22.15v.59a.15.15,0,1,1-.3,0v-.59c0-.08-.05-.15-.22-.15h-.5Z" style="fill: #4e4b4a"/>
    </g>
    <g>
      <path d="M21.6,26.83v-1a.15.15,0,0,1,.3,0v1.33h-1a.3.3,0,0,1-.34-.34V26h-.72v1a.15.15,0,0,1-.3,0V26a.31.31,0,0,1,.35-.34h.62a.31.31,0,0,1,.35.34v.85Z" style="fill: #4e4b4a"/>
      <path d="M21.6,24.15H21a.15.15,0,1,1,0-.3h.76a.14.14,0,0,1,.15.15v1.18a.15.15,0,0,1-.3,0v-.44H19.86v.44a.15.15,0,0,1-.3,0v-.74h2Z" style="fill: #4e4b4a"/>
      <path d="M19.56,22.59a.3.3,0,0,1,.3-.3H21.6a.3.3,0,0,1,.3.3v.88a.3.3,0,0,1-.3.3H19.86a.3.3,0,0,1-.3-.3Zm2,0H19.86v.88H21.6Z" style="fill: #4e4b4a"/>
      <path d="M19.86,22.15a.15.15,0,1,1,0,.3h-.15a.15.15,0,0,1-.15-.15V21h.87c.1,0,.12,0,.19.08l.36.42c.07.08.08.08.18.08h.58a.15.15,0,0,1,0,.3H21a.16.16,0,0,1-.17-.08l-.36-.42c-.09-.1-.08-.09-.22-.09h-.42Z" style="fill: #4e4b4a"/>
    </g>
    <g>
      <g>
        <rect height="2.26" style="fill: #b1aeaa" width="2.61" x="4.64" y="34.08"/>
        <rect height="2.26" style="fill: #b1aeaa" width="2.61" x="4.64" y="38.83"/>
        <rect height="3.91" style="fill: #edca9c" width="2.98" x="4.42" y="35.72"/>
        <rect height="2.68" style="fill: #f7f6e9" width="2.98" x="4.42" y="36.34"/>
      </g>
      <rect height="2.59" style="fill: #26292b" width="1.88" x="4.95" y="36.34"/>
      <g>
        <path d="M5.77,37.08H6.2a.07.07,0,0,1,.07.07.07.07,0,0,1-.07.08H5.77a.07.07,0,0,1-.15,0H5.32a.07.07,0,0,1-.07-.08c0-.05,0-.07.07-.07h.31v-.44h.71a.07.07,0,0,1,.07.08.07.07,0,0,1-.07.07H5.77Z" style="fill: #fff"/>
        <path d="M6.26,37.46a.08.08,0,0,1-.07-.08.08.08,0,0,1,.07-.07h.08a.08.08,0,0,1,.07.07v.66H6c-.05,0-.06,0-.09,0L5.7,37.8s0,0-.09,0H5.32a.08.08,0,0,1,0-.15h.36a.08.08,0,0,1,.09,0l.18.21s0,0,.11,0h.21Z" style="fill: #fff"/>
        <path d="M5.39,38.33v.51a.07.07,0,0,1-.15,0v-.66h.49a.15.15,0,0,1,.17.17v.42h.36v-.51a.07.07,0,0,1,.15,0v.5a.16.16,0,0,1,0,.12.16.16,0,0,1-.13,0H5.92a.16.16,0,0,1-.13,0,.16.16,0,0,1,0-.12v-.42Z" style="fill: #fff"/>
      </g>
    </g>
    <g>
      <g>
        <rect height="2.26" style="fill: #b1aeaa" width="2.61" x="8.53" y="34.08"/>
        <rect height="2.26" style="fill: #b1aeaa" width="2.61" x="8.53" y="38.83"/>
        <rect height="3.91" style="fill: #edca9c" width="2.98" x="8.32" y="35.72"/>
        <rect height="2.68" style="fill: #f7f6e9" width="2.98" x="8.32" y="36.34"/>
      </g>
      <rect height="2.59" style="fill: #26292b" width="1.88" x="8.84" y="36.34"/>
    </g>
    <g>
      <g>
        <rect height="2.26" style="fill: #b1aeaa" width="2.61" x="12.62" y="34.08"/>
        <rect height="2.26" style="fill: #b1aeaa" width="2.61" x="12.62" y="38.83"/>
        <rect height="3.91" style="fill: #edca9c" width="2.98" x="12.41" y="35.72"/>
        <rect height="2.68" style="fill: #f7f6e9" width="2.98" x="12.41" y="36.34"/>
      </g>
      <rect height="2.59" style="fill: #76563f" width="1.88" x="12.93" y="36.34"/>
    </g>
    <g>
      <g>
        <rect height="2.26" style="fill: #b1aeaa" width="2.61" x="32.54" y="34.08"/>
        <rect height="2.26" style="fill: #b1aeaa" width="2.61" x="32.54" y="38.83"/>
        <rect height="3.91" style="fill: #edca9c" width="2.98" x="32.32" y="35.72"/>
        <rect height="2.68" style="fill: #f7f6e9" width="2.98" x="32.32" y="36.34"/>
      </g>
      <rect height="2.59" style="fill: #76563f" width="1.88" x="32.85" y="36.34"/>
    </g>
    <g>
      <g>
        <rect height="2.26" style="fill: #b1aeaa" width="2.61" x="16.69" y="34.08"/>
        <rect height="2.26" style="fill: #b1aeaa" width="2.61" x="16.69" y="38.83"/>
        <rect height="3.91" style="fill: #edca9c" width="2.98" x="16.47" y="35.72"/>
        <rect height="2.68" style="fill: #f7f6e9" width="2.98" x="16.47" y="36.34"/>
      </g>
      <rect height="2.59" style="fill: #9a876a" width="1.88" x="17" y="36.34"/>
    </g>
    <ellipse cx="16.13" cy="26.21" rx="0.57" ry="0.54" style="fill: none;stroke: #4e4b4a;stroke-miterlimit: 10;stroke-width: 0.2px"/>
    <line style="fill: none;stroke: #4e4b4a;stroke-miterlimit: 10;stroke-width: 0.2px" x1="15.56" x2="16.7" y1="26.21" y2="26.21"/>
    <circle cx="29.12" cy="25.46" r="1.5" style="fill: #fff"/>
    <line style="fill: none;stroke: #fff;stroke-linecap: round;stroke-miterlimit: 10" x1="29.38" x2="35.52" y1="25.46" y2="25.46"/>
    <line style="fill: none;stroke: #fff;stroke-linecap: round;stroke-miterlimit: 10" x1="29.09" x2="29.09" y1="25.46" y2="19.31"/>
    <polyline points="27.82 19.8 29.13 18.49 30.42 19.79" style="fill: none;stroke: #fff;stroke-linecap: round;stroke-linejoin: round"/>
    <polyline points="34.87 24.16 36.17 25.46 34.88 26.76" style="fill: none;stroke: #fff;stroke-linecap: round;stroke-linejoin: round"/>
    <path d="M26.14,17.24a.17.17,0,1,1,0-.34h1.1l.88-.68h.35a.17.17,0,1,1,0,.34h-.23l-.66.5.66.5h.23a.17.17,0,1,1,0,.34h-.35l-.88-.68Z" style="fill: #fff"/>
    <path d="M28.5,29l-2.1-1.23v1.06a.17.17,0,0,1-.34,0V27.35h.22l2.11,1.23V27.52a.17.17,0,0,1,.34,0V29Z" style="fill: #fff"/>
    <path d="M35.15,22.31l1-.61a.23.23,0,0,1,.12,0,.17.17,0,0,1,.16.17c0,.11-.09.15-.17.2l-.82.48.82.48c.08,0,.17.09.17.2a.17.17,0,0,1-.16.17.23.23,0,0,1-.12,0l-1-.61-1.05.61a.23.23,0,0,1-.12,0,.17.17,0,0,1-.16-.17c0-.11.09-.15.17-.2l.82-.48L34,22c-.08,0-.17-.09-.17-.2a.17.17,0,0,1,.16-.17.23.23,0,0,1,.12,0Z" style="fill: #fff"/>
    <g>
      <path d="M5.52,13.64H4.59a.16.16,0,0,1,0-.32H6.77a.16.16,0,1,1,0,.32H5.84v.94h.93a.16.16,0,1,1,0,.32H4.59a.16.16,0,0,1,0-.32h.93Z" style="fill: #fff"/>
      <path d="M6.93,17.13v.4H4.59a.16.16,0,0,1,0-.32H6.48L6,16.9H6c-.1,0-.19,0-.19-.16s.09-.16.19-.16H6l.45-.3H4.59a.16.16,0,0,1,0-.32H6.93v.4l-.56.39Z" style="fill: #fff"/>
      <path d="M4.43,19.18a.48.48,0,0,1,.3-.48l.6-.29a.72.72,0,0,1,.34-.09A.7.7,0,0,1,6,18.4l.59.29a.48.48,0,0,1,.31.49v.54a.15.15,0,0,1-.16.16.15.15,0,0,1-.16-.16V19.2c0-.14,0-.16-.13-.22l-.56-.28a.49.49,0,0,0-.24-.07.45.45,0,0,0-.22.07L4.89,19c-.13.06-.14.1-.14.24v.52a.15.15,0,0,1-.16.16.15.15,0,0,1-.16-.16Z" style="fill: #fff"/>
      <path d="M5.84,21.58v.59a.33.33,0,0,1-.09.26.31.31,0,0,1-.27.1H4.79a.34.34,0,0,1-.25-.08.31.31,0,0,1-.11-.28v-.71a.47.47,0,0,1,.06-.21l.05-.12c0-.09.07-.18.18-.18a.16.16,0,0,1,.16.15.23.23,0,0,1,0,.1l0,.1a.55.55,0,0,0-.06.17v.74h.77v-.95H6.93v1.11a.16.16,0,0,1-.32,0v-.79Z" style="fill: #fff"/>
      <path d="M6.93,24.6a.15.15,0,0,1-.16.16H5.84a.33.33,0,0,1-.09.23.31.31,0,0,1-.23.09H4.75a.3.3,0,0,1-.32-.32v-.94a.3.3,0,0,1,.32-.32h.76a.31.31,0,0,1,.23.09.33.33,0,0,1,.09.23h.93a.15.15,0,0,1,.16.16Zm-2.17.16h.77v-.94H4.75Zm1.09-.32h.77v-.3H5.84Z" style="fill: #fff"/>
      <path d="M6.93,27.16a.15.15,0,0,1-.16.16H5.84a.33.33,0,0,1-.09.23.31.31,0,0,1-.23.09H4.75a.3.3,0,0,1-.32-.32v-.94a.3.3,0,0,1,.32-.32h.76a.31.31,0,0,1,.23.09.33.33,0,0,1,.09.23h.93a.15.15,0,0,1,.16.16Zm-2.17.16h.77v-.94H4.75ZM5.84,27h.77v-.3H5.84Z" style="fill: #fff"/>
      <path d="M6.61,28.84a.16.16,0,0,1,.32,0v1.1a.31.31,0,0,1-.32.32H6a.37.37,0,0,1-.31-.12.37.37,0,0,1-.31.13H4.75a.31.31,0,0,1-.32-.32v-1.1a.16.16,0,0,1,.32,0v1.1h.53c.18,0,.23-.07.23-.16v-.63a.16.16,0,0,1,.32,0v.63c0,.09.05.16.23.16h.53Z" style="fill: #fff"/>
      <path d="M4.75,32.41a.16.16,0,0,1-.32,0V31H6.77a.16.16,0,1,1,0,.32h-2Z" style="fill: #fff"/>
    </g>
    <g>
      <path d="M9.92,38.45H9.55a.06.06,0,0,1,0-.12h.36a.06.06,0,0,1,.13,0h.26a.05.05,0,0,1,.06.06s0,.06-.06.06H10v.37H9.45a.06.06,0,0,1,0-.12h.47Z" style="fill: #fff"/>
      <path d="M9.51,37.85a.06.06,0,0,1,0,.13H9.45a.06.06,0,0,1-.06-.06v-.56h.36s0,0,.08,0l.15.17s0,0,.08,0h.24a.06.06,0,0,1,0,.13H10a.07.07,0,0,1-.07,0l-.15-.17s0,0-.09,0H9.51Z" style="fill: #fff"/>
      <path d="M10.23,37v-.43a.06.06,0,0,1,.13,0v.56H10a.13.13,0,0,1-.14-.14v-.35h-.3V37a.06.06,0,0,1-.13,0V36.6a.13.13,0,0,1,.15-.14h.26a.13.13,0,0,1,.15.14V37Z" style="fill: #fff"/>
    </g>
  </g>
</svg>