<?xml version="1.0" ?><svg data-name="Layer 16" height="35.42mm" id="Layer_16" viewBox="0 0 51.33 100.4" width="18.11mm" xmlns="http://www.w3.org/2000/svg">
  <title>Arduino Pro Mini 328 - 5V-16MHz</title>
  <g>
  <path d="M51.33,94.21V0H0V94.21ZM4.17,80.89c2.73,0,2.73,4.24,0,4.24S1.44,80.89,4.17,80.89Zm0-43.37c2.73,0,2.73,4.24,0,4.24S1.44,37.51,4.17,37.51Zm0-7.37c2.73,0,2.73,4.24,0,4.24S1.44,30.14,4.17,30.14Zm0,14.38c2.73,0,2.73,4.24,0,4.24S1.44,44.51,4.17,44.51Zm0,7.13c2.73,0,2.73,4.24,0,4.24S1.44,51.64,4.17,51.64Zm0,7.63c2.73,0,2.73,4.24,0,4.24S1.44,59.26,4.17,59.26Zm0,7c2.73,0,2.73,4.24,0,4.24S1.44,66.26,4.17,66.26Zm0,7.25c2.73,0,2.73,4.24,0,4.24S1.44,73.51,4.17,73.51Zm43.25,11.3c-2.73,0-2.73-4.24,0-4.24S50.15,84.81,47.42,84.81Zm0-7.06c-2.73,0-2.73-4.24,0-4.24S50.15,77.75,47.42,77.75Zm0-28.81c-2.73,0-2.73-4.24,0-4.24S50.15,48.94,47.42,48.94Zm.06-7.31c-2.73,0-2.73-4.24,0-4.24S50.21,41.63,47.48,41.63Zm-.06-11.11c2.73,0,2.73,4.24,0,4.24S44.69,30.51,47.42,30.51Zm.06-3c-2.73,0-2.73-4.24,0-4.24S50.21,27.5,47.48,27.5Zm0-7.44c-2.73,0-2.73-4.24,0-4.24S50.21,20.06,47.48,20.06Zm-.06-6.75c-2.73,0-2.73-4.24,0-4.24S50.15,13.31,47.42,13.31ZM47.3,1.45c2.73,0,2.73,4.24,0,4.24S44.57,1.45,47.3,1.45Zm0,50.5c2.73,0,2.73,4.24,0,4.24S44.57,51.95,47.3,51.95Zm0,7.13c2.73,0,2.73,4.24,0,4.24S44.57,59.07,47.3,59.07Zm0,7.38c2.73,0,2.73,4.24,0,4.24S44.57,66.45,47.3,66.45ZM43.73,88.07c2.73,0,2.73,4.24,0,4.24S41,88.07,43.73,88.07Zm-6.94-.25c2.73,0,2.73,4.24,0,4.24S34.07,87.82,36.8,87.82Zm-7.38.06c2.73,0,2.73,4.24,0,4.24S26.69,87.89,29.42,87.89ZM22.36,88c2.73,0,2.73,4.24,0,4.24S19.63,88,22.36,88ZM15,92.25c-2.73,0-2.73-4.24,0-4.24S17.77,92.25,15,92.25Zm-2.56-32c-2.73,0-2.73-4.24,0-4.24S15.21,60.25,12.48,60.25Zm.1-40.56A1.55,1.55,0,1,1,11,21.24,1.55,1.55,0,0,1,12.59,19.7Zm0,7.2A1.55,1.55,0,1,1,11,28.44,1.55,1.55,0,0,1,12.59,26.9Zm-.23,21.93c2.73,0,2.73,4.24,0,4.24S9.63,48.82,12.36,48.82ZM7.61,92c-2.73,0-2.73-4.24,0-4.24S10.34,92,7.61,92ZM4.23,1.51C7,1.51,7,5.75,4.23,5.75S1.51,1.51,4.23,1.51ZM4.3,13c-2.73,0-2.73-4.24,0-4.24S7,13,4.3,13Zm-.12,3c2.73,0,2.73,4.24,0,4.24S1.44,16,4.17,16Zm-.06,6.94c2.73,0,2.73,4.24,0,4.24S1.38,22.95,4.11,22.95Z" style="fill: #082e80"/>
  <path d="M25.87,26.34q0-1.88,0-3.75L27,21.11" style="fill: none;stroke: #0b4299;stroke-miterlimit: 10;stroke-width: 0.5px"/>
  <rect height="20.1" rx="2.12" ry="2.12" style="fill: #0d1110" transform="translate(15.86 85.85) rotate(-135)" width="20.1" x="15.66" y="29.59"/>
  <path d="M14,41.35l10.12,10a2.52,2.52,0,0,0,3.55,0l10.12-10a2.47,2.47,0,0,0,0-3.52l-10.12-10a2.52,2.52,0,0,0-3.55,0L14,37.83A2.47,2.47,0,0,0,14,41.35Zm11.9,5.76a1.66,1.66,0,1,1-1.67,1.66A1.66,1.66,0,0,1,25.87,47.11Z" style="fill: #323036"/>
  <polygon points="23.52 46.15 23.86 45.05 24.2 43.94 24.95 44.69 25.71 45.44 24.62 45.79 23.52 46.15" style="fill: none;stroke: #5b5a5a;stroke-miterlimit: 10;stroke-width: 0.30000000000000004px"/>
  <path d="M22.8,42.49l.52.52-1.79.44c-1,.28-.84,0-.37-.48l1.05-1.05" style="fill: none;stroke: #5b5a5a;stroke-miterlimit: 10;stroke-width: 0.30000000000000004px"/>
  <line style="fill: none;stroke: #5b5a5a;stroke-linecap: round;stroke-linejoin: round;stroke-width: 0.30000000000000004px" x1="20.05" x2="14.79" y1="43.94" y2="38.68"/>
  <line style="fill: none;stroke: #5b5a5a;stroke-linecap: round;stroke-linejoin: round;stroke-width: 0.30000000000000004px" x1="19.57" x2="21.69" y1="43.46" y2="41.34"/>
  <polyline points="16.77 39.44 17.59 40.27 18.21 39.64 18.94 38.91 18.16 38.14" style="fill: none;stroke: #5b5a5a;stroke-linecap: round;stroke-linejoin: round;stroke-width: 0.30000000000000004px"/>
  <line style="fill: none;stroke: #5b5a5a;stroke-linecap: round;stroke-linejoin: round;stroke-width: 0.30000000000000004px" x1="17.53" x2="18.21" y1="38.88" y2="39.64"/>
  <polyline points="20.91 40.94 19.57 42.13 18.42 40.94 19.78 39.64" style="fill: none;stroke: #5b5a5a;stroke-linecap: round;stroke-linejoin: round;stroke-width: 0.30000000000000004px"/>
  <line style="fill: none;stroke: #5b5a5a;stroke-linecap: round;stroke-linejoin: round;stroke-width: 0.30000000000000004px" x1="20.37" x2="18.99" y1="40.27" y2="41.53"/>
  <polyline points="16.23 38.88 17.53 37.58 16.84 36.89" style="fill: none;stroke: #5b5a5a;stroke-linecap: round;stroke-linejoin: round;stroke-width: 0.30000000000000004px"/>
  <line style="fill: none;stroke: #5b5a5a;stroke-linecap: round;stroke-linejoin: round;stroke-width: 0.30000000000000004px" x1="23.91" x2="17.8" y1="42.66" y2="36.56"/>
  <g>
    <path d="M27.74,45l-.3-.3,1.35-1.35.19.19-1.13,1.13h0l.86-.52.15.15-.52.86h0l1.13-1.13.19.19-1.35,1.35L28,45.31l.37-.67h0Z" style="fill: #5b5a5a"/>
    <path d="M27.27,43.44,26.78,43l.19-.19.49.49.42-.43-.58-.58.19-.19.78.78-1.35,1.35-.75-.75.19-.19.56.56Z" style="fill: #5b5a5a"/>
    <path d="M26.07,41.71l-.19.19-.45-.45.66-.66a1.3,1.3,0,0,1,.44.28c.38.38.13.83-.21,1.18s-.8.58-1.2.19a.46.46,0,0,1-.07-.62l0,0,.19.19c-.06.1,0,.17.05.25.27.27.54.08.8-.17s.5-.56.22-.84a.54.54,0,0,0-.19-.12l-.34.33Z" style="fill: #5b5a5a"/>
    <path d="M25,40.38l.48-.3.19.19-1.7,1L23.76,41l1-1.7.19.19-.3.48Zm-1,.59h0l.72-.45-.28-.28Z" style="fill: #5b5a5a"/>
    <path d="M22.27,39.34l.71,0a.57.57,0,0,1,0-.83.67.67,0,0,1,1,.05,1.17,1.17,0,0,1,.26.43l-.21.21a.84.84,0,0,0-.24-.45.41.41,0,0,0-.62,0,.37.37,0,0,0,0,.57l.15.15-.16.16-.73,0,.57.57-.19.19-.82-.82Z" style="fill: #5b5a5a"/>
    <path d="M22,36.94l.19-.19.8.8-.11.11a1,1,0,0,1-1,.28c-.17,0-.41-.09-.55.05a.31.31,0,0,0,0,.43,1,1,0,0,0,.55.24l-.22.22a.86.86,0,0,1-.49-.24.55.55,0,0,1,0-.83c.26-.26.54-.19.85-.13a.72.72,0,0,0,.64-.1l0,0Z" style="fill: #5b5a5a"/>
    <path d="M19.67,36.56a.6.6,0,0,1,.58-.11.64.64,0,0,1,.14-.71.64.64,0,0,1,.9.9.65.65,0,0,1-.71.14.6.6,0,0,1-.12.58.58.58,0,0,1-.8-.8Zm.62.59c.11-.12.07-.32,0-.44s-.32-.09-.44,0,0,.27.06.36S20.17,37.27,20.29,37.14Zm.27-1.21c-.16.16-.1.36,0,.57.21.06.41.11.57,0a.37.37,0,0,0-.52-.52Z" style="fill: #5b5a5a"/>
    <path d="M18.92,36.19l-.43-.42a.53.53,0,0,1,0-.83.54.54,0,0,1,.83,0l.22.22.56-.56.19.19Zm.19-1c-.13-.13-.29-.2-.45,0s-.11.31,0,.45l.23.23.42-.42Z" style="fill: #5b5a5a"/>
  </g>
  <g>
    <path d="M30.29,42l.48-.3.19.19-1.7,1L29,42.64l1-1.7.19.19-.3.48Zm-1,.59h0l.72-.45-.28-.28Z" style="fill: #5b5a5a"/>
    <path d="M28,41.66l.89-.89c.19-.19.25-.34.06-.53s-.34-.13-.53.06l-.89.89L27.38,41l.9-.9a.6.6,0,1,1,.85.85l-.9.9Z" style="fill: #5b5a5a"/>
  </g>
  <g>
    <path d="M26.23,38.94,26,39.2l-.56,0-.17-.17,1.45-1.45.15.15L25.63,39Z" style="fill: #5b5a5a"/>
    <path d="M24.9,36.82l.19-.19.13.13.32-.32.15.15-.32.32.41.41-.22.22-1.24.6L24.18,38l1.28-.62-.26-.26-.3.3-.15-.15L25,37Z" style="fill: #5b5a5a"/>
    <path d="M24.07,36.79l-.26.26-.56,0-.17-.17,1.45-1.45.15.15-1.22,1.22Z" style="fill: #5b5a5a"/>
    <path d="M23.87,34.78a4.59,4.59,0,0,0-.93.19h0a.34.34,0,0,1,.17.09c.2.2.14.55-.12.81s-.64.34-.86.11-.16-.57.15-.88a2.58,2.58,0,0,1,1.39-.54Zm-1.05.94c.17-.17.2-.37.07-.5s-.33-.09-.5.08-.21.37-.08.5S22.63,35.91,22.82,35.73Z" style="fill: #5b5a5a"/>
  </g>
  <rect height="2.67" rx="0.39" ry="0.39" style="fill: none;stroke: #02398b;stroke-miterlimit: 10;stroke-width: 0.05px" transform="translate(35.07 4.34) rotate(180)" width="4.85" x="15.11" y="0.83"/>
  <rect height="2.67" rx="0.39" ry="0.39" style="fill: none;stroke: #02398b;stroke-miterlimit: 10;stroke-width: 0.05px" transform="translate(66.78 4.34) rotate(180)" width="4.85" x="30.96" y="0.83"/>
  <path d="M45.39,87.08l.5-.62c.13-.37.75.19,1.55.11a3.78,3.78,0,0,0,2.05-.47c.35-.26.61-.25.64.49v5.49c.08.53-.33.65-.94.61H47.53c-.65,0-.82-.32-.44-.94.2-.33.38-.66.23-.8H47V89.54c.29,0,.47,0,.27-.52A3.79,3.79,0,0,0,45.39,87.08Z" style="fill: #0b4299"/>
  <rect height="1.38" style="fill: #0b4299" width="3.1" x="38.7" y="89.57"/>
  <polyline points="9.43 88.73 11.46 86.69 13.78 86.69 16.59 83.88" style="fill: none;stroke: #0b4299;stroke-miterlimit: 10;stroke-width: 0.5px"/>
  <polyline points="19.92 86.65 19.92 80.67 16.95 77.7 16.95 70.32 16.17 69.55 16.17 67.8 16.8 67.11 16.94 61.38 17.63 60.63 17.55 56.08 20.38 53.32" style="fill: none;stroke: #0b4299;stroke-miterlimit: 10;stroke-width: 0.5px"/>
  <polyline points="36.5 64.4 35.15 64.4 33.57 66.01 31.17 66.01" style="fill: none;stroke: #0b4299;stroke-miterlimit: 10;stroke-width: 0.5px"/>
  <path d="M36.9,61.9l-4.9.21a1.19,1.19,0,0,0-.14,2.1,1.09,1.09,0,0,0,1.21-1.81l-3.75-3.5" style="fill: none;stroke: #0b4299;stroke-miterlimit: 10;stroke-width: 0.5px"/>
  <polyline points="29.32 57.38 34.85 51.84 34.85 50.95 34.33 50.41" style="fill: none;stroke: #0b4299;stroke-miterlimit: 10;stroke-width: 0.5px"/>
  <polyline points="29.05 65.61 28.27 64.53 28.38 63.01" style="fill: none;stroke: #0b4299;stroke-miterlimit: 10;stroke-width: 0.5px"/>
  <path d="M20.7,64.31h-.59l-.47.54V67l.53,1.22h.76v.94h-.85l-.22.41a.7.7,0,0,1-.39.78l-.62.68c-.3.21-.57.31-.69-.08v-.86c0-.23-.21-.4-.56-.52a1.61,1.61,0,0,1,.13-2.14c.38,0,.51-.18.47-.53l-.09-5,.73-.84V56.65l1.08-1.08c.31-.52.6-.35.86.06l.93.94c0,.31.11.45.67.18l.67.78a1,1,0,0,0,.48.84s.51.21.54.21h1.82v1.14l.28.33v.44a.59.59,0,0,1-.78-.22c-.22-.37-.46-.57-.74-.51L22,59.83l-.25.12-.67.68V63.7l.14.24C21.28,64.32,21.09,64.43,20.7,64.31Z" style="fill: #00398a"/>
  <line style="fill: none;stroke: #0b4299;stroke-miterlimit: 10;stroke-width: 0.5px" x1="12.23" x2="13.91" y1="48.74" y2="46.83"/>
  <circle cx="7.55" cy="43.29" r="1.25" style="fill: none;stroke: #0b4299;stroke-miterlimit: 10;stroke-width: 0.5px"/>
  <polyline points="8.43 42.4 11 39.78 12.94 39.78" style="fill: none;stroke: #0b4299;stroke-miterlimit: 10;stroke-width: 0.5px"/>
  <line style="fill: none;stroke: #0b4299;stroke-miterlimit: 10;stroke-width: 0.5px" x1="12.59" x2="14.09" y1="31.2" y2="32.72"/>
  <path d="M36.3,54.26h-.62c0,.36.15.7.71,1s.52.53,0,.73a1.09,1.09,0,0,1-1.53-.17l-1.09,0v1H32.32c.3-1.18,1.46-2.35,3.08-3.53.25-.11.41,0,.42.33l.65,0Z" style="fill: #023988"/>
  <circle cx="24.74" cy="56.36" r="1.21" style="fill: none;stroke: #0b4299;stroke-miterlimit: 10;stroke-width: 0.5px"/>
  <circle cx="11.31" cy="77.68" r="1.21" style="fill: none;stroke: #0b4299;stroke-miterlimit: 10;stroke-width: 0.5px"/>
  <circle cx="9.17" cy="72.21" r="1.21" style="fill: none;stroke: #0b4299;stroke-miterlimit: 10;stroke-width: 0.5px"/>
  <circle cx="33.11" cy="75.06" r="1.21" style="fill: none;stroke: #0b4299;stroke-miterlimit: 10;stroke-width: 0.5px"/>
  <circle cx="19.41" cy="74.42" r="1.21" style="fill: none;stroke: #0b4299;stroke-miterlimit: 10;stroke-width: 0.5px"/>
  <line style="fill: none;stroke: #0b4299;stroke-miterlimit: 10;stroke-width: 0.5px" x1="24.17" x2="23.07" y1="55.3" y2="54.17"/>
  <circle cx="43.11" cy="6.03" r="1.1" style="fill: none;stroke: #0b4299;stroke-miterlimit: 10;stroke-width: 0.5px"/>
  <circle cx="34.12" cy="8.53" r="1.1" style="fill: none;stroke: #0b4299;stroke-miterlimit: 10;stroke-width: 0.5px"/>
  <path d="M45.13,1.23,41,1.13q-1-.28-.69.55l-.09.62c.12.49-.38.51-.88.51V3.94h.63c.35.1.42.22.34.35l0,.63c.46.45.79.61.78,0l1-1.11,2,.06a3,3,0,0,1,.07-1A3.14,3.14,0,0,1,45.13,1.23Z" style="fill: #1246a1"/>
  <path d="M36,6q-.2.63-1,.42a2.53,2.53,0,0,0-2.59.19V3.82l.31.27,0-1.43,1,.22,0,.75c-.15.2,0,.31.44.31h1.55c.29,0,.43.2.44.54-.3.23-.38.52-.08.92A.41.41,0,0,1,36,6Z" style="fill: #094092"/>
  <line style="fill: none;stroke: #0b4299;stroke-miterlimit: 10;stroke-width: 0.5px" x1="37.11" x2="35.22" y1="8.53" y2="8.53"/>
  <path d="M35.8,16v2.28q.42,1-.84,1H31.17a.78.78,0,0,1-1-.66c0-.4-.32-.52-.75-.54h-3a.51.51,0,0,0-.74.39c-.27.3-.56.2-.88-.14h-.94l-.26,0V19H22.25v-.61h-.7c-.52-.17-.8,0-.85.52v.92H22v1.25H20.36L15,15.72c-.36-.41-.35-.66,0-.74l5.07.09a1.52,1.52,0,0,1,1.52-.81l8-.34a.92.92,0,0,0,.86.38l.3.59,4.55.09C35.7,14.77,35.87,15.16,35.8,16Z" style="fill: #02398b"/>
  <path d="M17.92,10.83l-3,.14c-.45,0-.54-.36-.56-.8V9.1c0-.34.22-.44,1-.19,1.19.13,2-.36,2.12-1.81-.06-1.34-1-1.89-2.94-1.42-.66-.1-1.06-.41-1-1a1.65,1.65,0,0,1,1-1,1,1,0,0,0,1.06.28l1.22,0L17.59,3l1.24.78-.16,6.75Z" style="fill: #083683"/>
  <polyline points="19.47 73.21 19.47 72.05 20.68 71.22" style="fill: none;stroke: #0b4299;stroke-miterlimit: 10;stroke-width: 0.5px"/>
  <polyline points="11.38 83.17 10.47 83.17 8.09 80.51 8.09 74.42 6.3 72.76 6.3 71.8 7.85 69.98 7.84 64.13 10.13 61.63 14.58 61.63 16.28 59.93 16.17 50.95 17.53 49.54" style="fill: none;stroke: #0b4299;stroke-miterlimit: 10;stroke-width: 0.5px"/>
  <path d="M24.58,24V22.85q0-.42-.67-.28l-.27,0v-.4H22.25C23,23.09,24.58,25,24.58,24Z" style="fill: #02398b"/>
  <path d="M8.92,16.26c-.37.62-.72.83-1,.21L5.76,14.13,6,7.84S5.76,6.71,5.76,7s1.6-5.17,1.6-5.17c.17-.48.36-.77.62-.58H9.83c-.15.36.06.47.45.45h.62V3h-.7c-.46.3-.34.67,0,1.08s.08.52-.36.5v8.75c.53.46.42.85,0,1.2v.84Z" style="fill: #043886"/>
  <rect height="2.67" rx="0.39" ry="0.39" style="fill: none;stroke: #02398b;stroke-miterlimit: 10;stroke-width: 0.05px" transform="translate(35.07 26.18) rotate(180)" width="4.85" x="15.11" y="11.76"/>
  <rect height="2.67" rx="0.39" ry="0.39" style="fill: none;stroke: #02398b;stroke-miterlimit: 10;stroke-width: 0.05px" transform="translate(66.78 26.18) rotate(180)" width="4.85" x="30.96" y="11.76"/>
  <rect height="2.18" rx="0.39" ry="0.39" style="fill: none;stroke: #02398b;stroke-miterlimit: 10;stroke-width: 0.05px" transform="translate(58.32 142.92) rotate(180)" width="4.85" x="26.73" y="70.37"/>
  <rect height="2.18" rx="0.39" ry="0.39" style="fill: none;stroke: #02398b;stroke-miterlimit: 10;stroke-width: 0.05px" transform="translate(58.63 132.01) rotate(180)" width="4.85" x="26.89" y="64.92"/>
  <rect height="2.18" rx="0.39" ry="0.39" style="fill: none;stroke: #02398b;stroke-miterlimit: 10;stroke-width: 0.05px" transform="translate(45.22 137.55) rotate(180)" width="4.85" x="20.18" y="67.68"/>
  <rect height="2.18" rx="0.39" ry="0.39" style="fill: none;stroke: #02398b;stroke-miterlimit: 10;stroke-width: 0.05px" transform="translate(45.22 132.01) rotate(180)" width="4.85" x="20.18" y="64.92"/>
  <rect height="2.18" rx="0.39" ry="0.39" style="fill: none;stroke: #02398b;stroke-miterlimit: 10;stroke-width: 0.05px" transform="translate(45.16 132.07) rotate(180)" width="4.85" x="20.15" y="64.95"/>
  <rect height="2.18" rx="0.39" ry="0.39" style="fill: none;stroke: #02398b;stroke-miterlimit: 10;stroke-width: 0.05px" transform="translate(45.22 142.92) rotate(180)" width="4.85" x="20.18" y="70.37"/>
  <polyline points="41.4 50.41 42.27 50.41 42.74 49.95 42.74 48.76 39.48 45.49" style="fill: none;stroke: #0b4299;stroke-miterlimit: 10;stroke-width: 0.5px"/>
  <polyline points="40.86 43.48 44.25 46.88 44.52 50.57 43.61 51.48 43.65 56.3 42.69 57.38 41.52 57.38" style="fill: none;stroke: #0b4299;stroke-miterlimit: 10;stroke-width: 0.5px"/>
  <line style="fill: none;stroke: #0b4299;stroke-miterlimit: 10;stroke-width: 0.5px" x1="5.36" x2="12.99" y1="52.31" y2="44.69"/>
  <polyline points="10.67 43.55 7.61 46.83 6.3 46.83" style="fill: none;stroke: #0b4299;stroke-miterlimit: 10;stroke-width: 0.5px"/>
  <polyline points="10.47 35.99 7.73 36.13 5.65 38.14" style="fill: none;stroke: #0b4299;stroke-miterlimit: 10;stroke-width: 0.5px"/>
  <polyline points="6.42 32.43 10.47 32.43 12.17 34.07" style="fill: none;stroke: #0b4299;stroke-miterlimit: 10;stroke-width: 0.5px"/>
  <line style="fill: none;stroke: #0b4299;stroke-miterlimit: 10;stroke-width: 0.5px" x1="13.91" x2="18.83" y1="22.85" y2="27.77"/>
  <line style="fill: none;stroke: #0b4299;stroke-miterlimit: 10;stroke-width: 0.5px" x1="13.45" x2="21.73" y1="15.98" y2="24.32"/>
  <polyline points="38.09 18.42 38.09 19.42 37.07 20.42 29.07 20.42" style="fill: none;stroke: #0b4299;stroke-miterlimit: 10;stroke-width: 0.5px"/>
  <polyline points="45.67 33.31 43.63 35.15 41.57 35.15 40.61 35.67" style="fill: none;stroke: #0b4299;stroke-miterlimit: 10;stroke-width: 0.5px"/>
  <polyline points="39.25 34.3 40.1 33.44 43.14 33.44 45.15 31.79" style="fill: none;stroke: #0b4299;stroke-miterlimit: 10;stroke-width: 0.5px"/>
  <polyline points="37.32 32.55 38.48 31.66 44 31.66 44 30.38 46.96 27.28" style="fill: none;stroke: #0b4299;stroke-miterlimit: 10;stroke-width: 0.5px"/>
  <polyline points="41.86 31.66 42.48 30.96 42.48 29.92 43.86 28.41 43.86 23.36 47.45 19.86" style="fill: none;stroke: #0b4299;stroke-miterlimit: 10;stroke-width: 0.5px"/>
  <polyline points="36.11 30.96 36.83 30.28 40.61 30.28 40.96 29.92 40.96 29.13 42.44 27.77 42.44 22.73 43.9 21.28 43.9 16.19 46.96 12.88" style="fill: none;stroke: #0b4299;stroke-miterlimit: 10;stroke-width: 0.5px"/>
  <path d="M34.46,29.19l1-.78h1.15l.54.39h2.1L41,26.91V21.84l1.42-1.31v-5l1.42-1.42V8.88l2.2-2" style="fill: none;stroke: #0b4299;stroke-miterlimit: 10;stroke-width: 0.5px"/>
  <polyline points="33.02 27.77 33.85 27.07 38.36 27.28 39.48 26.21 39.48 21.11 40.89 19.86 40.89 14.69 42.39 13.32 42.39 7.36 42.39 6.86" style="fill: none;stroke: #0b4299;stroke-miterlimit: 10;stroke-width: 0.5px"/>
  <polyline points="4.67 23.18 7.71 20.42 7.71 18.92 11.21 15.8" style="fill: none;stroke: #0b4299;stroke-miterlimit: 10;stroke-width: 0.5px"/>
  <path d="M43.85,85.38H41.11q-1.31-.09-.12-.94A1.72,1.72,0,0,0,41,81.57c-1.48-.42-2.52-.13-2.91,1.26a1.78,1.78,0,0,0,1,1.61c.65.6.6.89,0,.94H21.89c-1,.14-1-.6-.78-1.5V80.07l-2.66-2.69c-.52-.45-.5-.73.25-.81a1.71,1.71,0,0,0,1.68,0c.49-.45.8-.39.92.25l0,.63c-.06.49.37.63,1.13.53l.5,0,0-.81,1.22.13.22.66,1,0c.42-.32.83-.43,1.19.09l3.78,0,.44-.39,0-.9c.27-.41.53-.46.78-.12.06.4.6.69,1.84.81L36,77.35l0,1.53c-.69-.4-1.26-.57-1.33.22v1.06a.88.88,0,0,0,1,.47h1.63l0-.87,1.56-.09v.91l1.55.21.43-.43.13-4.22-.69-.87V72.69l.69-.16.06-4.37L42,67.41l-.09-4.88,0-.5-2.48-2.16h-4c-.57-.43-.79-.82,0-1.12a3.13,3.13,0,0,1,2.22.42h3.09l.53-.28,1.88-.2c.71-1.26,1.48-2,2.38-1.82.09.31.45.46,1,.5.28.57-.06.9-.84,1.06a2.44,2.44,0,0,0-1.69,2.25c-.21,1.39.13,2.68,2,3.71.63.33.54.59,0,.8A3.6,3.6,0,0,0,44,68.79a3.38,3.38,0,0,0,2,2.91c.61.39.52.65-.09.81a3.79,3.79,0,0,0,0,6.53c.64.09.7.34,0,.81A3.48,3.48,0,0,0,44,83.1l.13.59A1.32,1.32,0,0,1,43.85,85.38Z" style="fill: #063c90"/>
  <path d="M27.67,69.63h4l.56.35v2.18a.61.61,0,0,0,.63.59h1c.43,0,.65-.17.49-.69l.05-4L36,66.69l-.72-.31a2.57,2.57,0,0,1-1.91.91c-.58-.36-1.16-.13-1.75.41l-4.09-.06Z" style="fill: #053685"/>
  <polyline points="46.4 84.44 44.19 86.65 29.65 86.65 18.86 86.65 16.7 88.81" style="fill: none;stroke: #0b4299;stroke-miterlimit: 10;stroke-width: 0.5px"/>
  <rect height="4.56" rx="0.3" ry="0.3" style="fill: none;stroke: #14347f;stroke-miterlimit: 10;stroke-width: 0.05px" transform="translate(75.68 126.33) rotate(180)" width="4.28" x="35.7" y="60.88"/>
  <path d="M39.48,63.44h-.17v-.72h.25V62.3H40v-.74h-.27c-.16.08-.19,0-.18-.22.08-.38-.11-.4-.34-.36a.72.72,0,0,1-.66.27H36.67c-.14-.32-.35-.38-.65-.13v.37l-.31,0v.65l.37,0a2.44,2.44,0,0,1,0,1.72H35.7v.62h.38v.63h3.34c.16.09.2,0,.19-.26V63.43Z" style="fill: #eaebe5"/>
  <g>
    <rect height="9.38" style="fill: #e2e5eb" transform="translate(78.19 107.9) rotate(180)" width="3.74" x="37.22" y="49.26"/>
    <rect height="8.73" rx="0.57" ry="0.57" style="fill: #585348" transform="translate(78.03 107.98) rotate(180)" width="3.17" x="37.43" y="49.63"/>
    <rect height="7.93" rx="0.57" ry="0.57" style="fill: #9f9c9b" transform="translate(78.03 108.04) rotate(180)" width="2.58" x="37.72" y="50.05"/>
  </g>
  <path d="M37.23,56.85c-1.43.34-1.4,1.25,0,1.32Z" style="fill: #666767"/>
  <path d="M37.23,53.33c-1.43.34-1.4,1.25,0,1.32Z" style="fill: #666767"/>
  <path d="M37.23,49.9c-1.43.34-1.4,1.25,0,1.32Z" style="fill: #666767"/>
  <path d="M41,51.22c1.43-.34,1.4-1.25,0-1.32Z" style="fill: #666767"/>
  <path d="M41,54.73c1.43-.34,1.4-1.25,0-1.32Z" style="fill: #666767"/>
  <path d="M41,58.16c1.43-.34,1.4-1.25,0-1.32Z" style="fill: #666767"/>
  <g>
    <g>
      <rect height="3.58" rx="0.18" ry="0.18" style="fill: #fff" transform="translate(42.59 90.81) rotate(-135)" width="1.57" x="39.32" y="34.79"/>
      <rect height="1.15" rx="0.32" ry="0.32" style="fill: #717274" transform="translate(92.94 37.78) rotate(135)" width="0.92" x="38.19" y="37.56"/>
    </g>
    <g>
      <rect height="3.58" rx="0.18" ry="0.18" style="fill: #fff" transform="translate(41.04 87.08) rotate(-135)" width="1.57" x="37.77" y="33.25"/>
      <rect height="1.15" rx="0.32" ry="0.32" style="fill: #717274" transform="translate(89.21 36.24) rotate(135.01)" width="0.92" x="36.64" y="36.02"/>
    </g>
    <g>
      <rect height="3.58" rx="0.18" ry="0.18" style="fill: #fff" transform="translate(39.32 82.91) rotate(-135)" width="1.57" x="36.04" y="31.52"/>
      <rect height="1.15" rx="0.32" ry="0.32" style="fill: #717274" transform="translate(85.03 34.5) rotate(135)" width="0.92" x="34.91" y="34.29"/>
    </g>
    <g>
      <rect height="3.58" rx="0.18" ry="0.18" style="fill: #fff" transform="translate(37.8 79.24) rotate(-135)" width="1.57" x="34.52" y="30"/>
      <rect height="1.15" rx="0.32" ry="0.32" style="fill: #717274" transform="translate(81.37 32.97) rotate(134.99)" width="0.92" x="33.39" y="32.77"/>
    </g>
    <g>
      <rect height="3.58" rx="0.18" ry="0.18" style="fill: #fff" transform="translate(36.12 75.18) rotate(-135)" width="1.57" x="32.84" y="28.32"/>
      <rect height="1.15" rx="0.32" ry="0.32" style="fill: #717274" transform="translate(77.31 31.31) rotate(135.01)" width="0.92" x="31.71" y="31.09"/>
    </g>
    <g>
      <rect height="3.58" rx="0.18" ry="0.18" style="fill: #fff" transform="translate(34.61 71.53) rotate(-135)" width="1.57" x="31.33" y="26.81"/>
      <rect height="1.15" rx="0.32" ry="0.32" style="fill: #717274" transform="translate(73.66 29.78) rotate(134.99)" width="0.92" x="30.2" y="29.58"/>
    </g>
    <g>
      <rect height="3.58" rx="0.18" ry="0.18" style="fill: #fff" transform="translate(32.86 67.33) rotate(-135)" width="1.57" x="29.59" y="25.07"/>
      <rect height="1.15" rx="0.32" ry="0.32" style="fill: #717274" transform="translate(69.46 28.06) rotate(135.01)" width="0.92" x="28.46" y="27.84"/>
    </g>
    <g>
      <rect height="3.58" rx="0.18" ry="0.18" style="fill: #fff" transform="translate(31.36 63.7) rotate(-135)" width="1.57" x="28.09" y="23.56"/>
      <rect height="1.15" rx="0.32" ry="0.32" style="fill: #717274" transform="translate(65.83 26.54) rotate(134.99)" width="0.92" x="26.96" y="26.33"/>
    </g>
  </g>
  <g>
    <rect height="3.58" rx="0.18" ry="0.18" style="fill: #fff" transform="translate(33.55 4.38) rotate(45)" width="1.57" x="10.7" y="40.9"/>
    <rect height="1.15" rx="0.32" ry="0.32" style="fill: #717274" transform="translate(-25.29 21.19) rotate(-44.99)" width="0.92" x="12.48" y="40.56"/>
  </g>
  <g>
    <rect height="3.58" rx="0.18" ry="0.18" style="fill: #fff" transform="translate(35.09 3.74) rotate(45)" width="1.57" x="12.24" y="42.44"/>
    <rect height="1.15" rx="0.32" ry="0.32" style="fill: #717274" transform="translate(-25.94 22.74) rotate(-45)" width="0.92" x="14.03" y="42.11"/>
  </g>
  <g>
    <rect height="3.58" rx="0.18" ry="0.18" style="fill: #fff" transform="translate(36.82 3.03) rotate(45)" width="1.57" x="13.97" y="44.17"/>
    <rect height="1.15" rx="0.32" ry="0.32" style="fill: #717274" transform="translate(-26.65 24.46) rotate(-44.99)" width="0.92" x="15.76" y="43.84"/>
  </g>
  <g>
    <rect height="3.58" rx="0.18" ry="0.18" style="fill: #fff" transform="translate(38.34 2.4) rotate(45)" width="1.57" x="15.49" y="45.69"/>
    <rect height="1.15" rx="0.32" ry="0.32" style="fill: #717274" transform="translate(-27.29 26) rotate(-45.01)" width="0.92" x="17.28" y="45.35"/>
  </g>
  <g>
    <rect height="3.58" rx="0.18" ry="0.18" style="fill: #fff" transform="translate(40.02 1.7) rotate(45)" width="1.57" x="17.17" y="47.37"/>
    <rect height="1.15" rx="0.32" ry="0.32" style="fill: #717274" transform="translate(-27.98 27.67) rotate(-45)" width="0.92" x="18.96" y="47.04"/>
  </g>
  <g>
    <rect height="3.58" rx="0.18" ry="0.18" style="fill: #fff" transform="translate(41.53 1.07) rotate(45)" width="1.57" x="18.68" y="48.88"/>
    <rect height="1.15" rx="0.32" ry="0.32" style="fill: #717274" transform="translate(-28.61 29.2) rotate(-45.01)" width="0.92" x="20.47" y="48.55"/>
  </g>
  <g>
    <rect height="3.58" rx="0.18" ry="0.18" style="fill: #fff" transform="translate(43.27 0.35) rotate(45)" width="1.57" x="20.42" y="50.62"/>
    <rect height="1.15" rx="0.32" ry="0.32" style="fill: #717274" transform="translate(-29.32 30.92) rotate(-45)" width="0.92" x="22.21" y="50.29"/>
  </g>
  <g>
    <rect height="3.58" rx="0.18" ry="0.18" style="fill: #fff" transform="translate(44.77 -0.27) rotate(45)" width="1.57" x="21.93" y="52.12"/>
    <rect height="1.15" rx="0.32" ry="0.32" style="fill: #717274" transform="translate(-29.95 32.44) rotate(-45.01)" width="0.92" x="23.71" y="51.79"/>
  </g>
  <g>
    <rect height="2.69" rx="0.18" ry="0.18" style="fill: #716b63" transform="translate(88.1 43.97) rotate(90)" width="1.45" x="21.34" y="64.69"/>
    <rect height="1.06" rx="0.24" ry="0.24" style="fill: #717274" width="0.69" x="23.32" y="65.45"/>
  </g>
  <g>
    <rect height="2.69" rx="0.18" ry="0.18" style="fill: #716b63" transform="translate(90.8 46.67) rotate(90)" width="1.45" x="21.34" y="67.39"/>
    <rect height="1.05" rx="0.24" ry="0.24" style="fill: #717274" width="0.69" x="23.32" y="68.15"/>
  </g>
  <g>
    <rect height="2.96" rx="0.18" ry="0.18" style="fill: #fafbfa" transform="translate(-36.1 95.92) rotate(-90)" width="1.59" x="29.11" y="64.53"/>
    <rect height="1.16" rx="0.24" ry="0.24" style="fill: #fafbfa" transform="translate(56.31 132.15) rotate(180)" width="0.76" x="27.77" y="65.5"/>
  </g>
  <g>
    <rect height="2.96" rx="0.18" ry="0.18" style="fill: #fafbfa" transform="translate(-41.49 101.31) rotate(-90)" width="1.59" x="29.11" y="69.92"/>
    <rect height="1.16" rx="0.24" ry="0.24" style="fill: #fafbfa" transform="translate(56.31 142.94) rotate(180)" width="0.76" x="27.77" y="70.89"/>
  </g>
  <g>
    <rect height="2.69" rx="0.18" ry="0.18" style="fill: #716b63" transform="translate(93.53 49.4) rotate(90)" width="1.45" x="21.34" y="70.12"/>
    <rect height="1.06" rx="0.24" ry="0.24" style="fill: #717274" width="0.69" x="23.32" y="70.87"/>
  </g>
  <g>
    <g>
      <rect height="3.58" rx="0.18" ry="0.18" style="fill: #fff" transform="translate(-29.7 36.19) rotate(-45)" width="1.57" x="28.05" y="52.16"/>
      <rect height="1.15" rx="0.32" ry="0.32" style="fill: #717274" transform="translate(9.47 108.9) rotate(-135)" width="0.92" x="26.83" y="51.92"/>
    </g>
    <g>
      <rect height="3.58" rx="0.18" ry="0.18" style="fill: #fff" transform="translate(-28.15 36.83) rotate(-45)" width="1.57" x="29.6" y="50.61"/>
      <rect height="1.15" rx="0.32" ry="0.32" style="fill: #717274" transform="translate(13.21 107.36) rotate(-135.01)" width="0.92" x="28.37" y="50.37"/>
    </g>
    <g>
      <rect height="3.58" rx="0.18" ry="0.18" style="fill: #fff" transform="translate(-26.43 37.55) rotate(-45)" width="1.57" x="31.33" y="48.88"/>
      <rect height="1.15" rx="0.32" ry="0.32" style="fill: #717274" transform="translate(17.37 105.63) rotate(-135)" width="0.92" x="30.1" y="48.65"/>
    </g>
    <g>
      <rect height="3.58" rx="0.18" ry="0.18" style="fill: #fff" transform="translate(-24.91 38.18) rotate(-45)" width="1.57" x="32.85" y="47.36"/>
      <rect height="1.15" rx="0.32" ry="0.32" style="fill: #717274" transform="translate(21.02 104.11) rotate(-134.99)" width="0.92" x="31.62" y="47.13"/>
    </g>
    <g>
      <rect height="3.58" rx="0.18" ry="0.18" style="fill: #fff" transform="translate(-23.23 38.88) rotate(-45)" width="1.57" x="34.53" y="45.68"/>
      <rect height="1.15" rx="0.32" ry="0.32" style="fill: #717274" transform="translate(25.11 102.43) rotate(-135.01)" width="0.92" x="33.3" y="45.45"/>
    </g>
    <g>
      <rect height="3.58" rx="0.18" ry="0.18" style="fill: #fff" transform="translate(-21.71 39.5) rotate(-45)" width="1.57" x="36.04" y="44.17"/>
      <rect height="1.15" rx="0.32" ry="0.32" style="fill: #717274" transform="translate(28.74 100.92) rotate(-135)" width="0.92" x="34.81" y="43.93"/>
    </g>
    <g>
      <rect height="3.58" rx="0.18" ry="0.18" style="fill: #fff" transform="translate(-19.98 40.22) rotate(-45)" width="1.57" x="37.78" y="42.43"/>
      <rect height="1.15" rx="0.32" ry="0.32" style="fill: #717274" transform="translate(32.96 99.18) rotate(-135.01)" width="0.92" x="36.55" y="42.19"/>
    </g>
    <g>
      <rect height="3.58" rx="0.18" ry="0.18" style="fill: #fff" transform="translate(-18.47 40.85) rotate(-45)" width="1.57" x="39.28" y="40.93"/>
      <rect height="1.15" rx="0.32" ry="0.32" style="fill: #717274" transform="translate(36.57 97.67) rotate(-135)" width="0.92" x="38.06" y="40.69"/>
    </g>
  </g>
  <g>
    <g>
      <path d="M21,24.51l.86-.86a.18.18,0,0,1,.25,0l2.28,2.29a.18.18,0,0,1,0,.25l-.86.86a.18.18,0,0,1-.25,0L21,24.76A.18.18,0,0,1,21,24.51Z" style="fill: #fff"/>
      <path d="M23.93,27.32l-.2-.2a.32.32,0,0,1,0-.45l.36-.36a.32.32,0,0,1,.45,0l.2.2a.32.32,0,0,1,0,.45l-.36.36A.32.32,0,0,1,23.93,27.32Z" style="fill: #717274"/>
    </g>
    <g>
      <path d="M19.44,26.06l.86-.86a.18.18,0,0,1,.25,0l2.28,2.29a.18.18,0,0,1,0,.25l-.86.86a.18.18,0,0,1-.25,0l-2.28-2.29A.18.18,0,0,1,19.44,26.06Z" style="fill: #fff"/>
      <path d="M22.38,28.88l-.2-.2a.32.32,0,0,1,0-.45l.36-.36a.32.32,0,0,1,.45,0l.2.2a.32.32,0,0,1,0,.45l-.36.36A.32.32,0,0,1,22.38,28.88Z" style="fill: #717274"/>
    </g>
    <g>
      <path d="M17.71,27.8l.86-.86a.18.18,0,0,1,.25,0l2.28,2.29a.18.18,0,0,1,0,.26l-.86.86a.18.18,0,0,1-.25,0l-2.28-2.29A.18.18,0,0,1,17.71,27.8Z" style="fill: #fff"/>
      <path d="M20.65,30.61l-.2-.2a.32.32,0,0,1,0-.45l.36-.36a.32.32,0,0,1,.45,0l.2.2a.32.32,0,0,1,0,.45l-.36.36A.32.32,0,0,1,20.65,30.61Z" style="fill: #717274"/>
    </g>
    <g>
      <path d="M16.19,29.33l.86-.86a.18.18,0,0,1,.25,0l2.28,2.29a.18.18,0,0,1,0,.25l-.86.86a.18.18,0,0,1-.25,0l-2.28-2.29A.18.18,0,0,1,16.19,29.33Z" style="fill: #fff"/>
      <path d="M19.13,32.14l-.2-.2a.32.32,0,0,1,0-.45l.36-.36a.32.32,0,0,1,.45,0l.2.2a.32.32,0,0,1,0,.45l-.36.36A.32.32,0,0,1,19.13,32.14Z" style="fill: #717274"/>
    </g>
    <g>
      <path d="M14.51,31l.86-.86a.18.18,0,0,1,.25,0l2.28,2.29a.18.18,0,0,1,0,.25l-.86.86a.18.18,0,0,1-.25,0l-2.28-2.29A.18.18,0,0,1,14.51,31Z" style="fill: #fff"/>
      <path d="M17.45,33.83l-.2-.2a.32.32,0,0,1,0-.45l.36-.36a.32.32,0,0,1,.45,0l.2.2a.32.32,0,0,1,0,.45l-.36.36A.32.32,0,0,1,17.45,33.83Z" style="fill: #717274"/>
    </g>
    <g>
      <path d="M13,32.54l.86-.86a.18.18,0,0,1,.25,0L16.39,34a.18.18,0,0,1,0,.25l-.86.86a.18.18,0,0,1-.25,0L13,32.79A.18.18,0,0,1,13,32.54Z" style="fill: #fff"/>
      <path d="M15.94,35.35l-.2-.2a.32.32,0,0,1,0-.45l.36-.36a.32.32,0,0,1,.45,0l.2.2a.32.32,0,0,1,0,.45l-.36.36A.32.32,0,0,1,15.94,35.35Z" style="fill: #717274"/>
    </g>
    <g>
      <path d="M11.26,34.29l.86-.86a.18.18,0,0,1,.25,0l2.28,2.29a.18.18,0,0,1,0,.25l-.86.86a.18.18,0,0,1-.25,0l-2.28-2.29A.18.18,0,0,1,11.26,34.29Z" style="fill: #fff"/>
      <path d="M14.2,37.1l-.2-.2a.32.32,0,0,1,0-.45l.36-.36a.32.32,0,0,1,.45,0l.2.2a.32.32,0,0,1,0,.45l-.36.36A.32.32,0,0,1,14.2,37.1Z" style="fill: #717274"/>
    </g>
    <g>
      <path d="M9.75,35.8l.86-.86a.18.18,0,0,1,.25,0l2.28,2.29a.18.18,0,0,1,0,.25l-.86.86a.18.18,0,0,1-.25,0L9.75,36.05A.18.18,0,0,1,9.75,35.8Z" style="fill: #fff"/>
      <path d="M12.7,38.62l-.2-.2a.32.32,0,0,1,0-.45l.36-.36a.32.32,0,0,1,.45,0l.2.2a.32.32,0,0,1,0,.45l-.36.36A.32.32,0,0,1,12.7,38.62Z" style="fill: #717274"/>
    </g>
  </g>
  <path d="M38.86,20.32c-.87,1.12-1.73,1.83-2.56,1.56A2.74,2.74,0,0,0,34,25.23a1.56,1.56,0,0,0,.66,1.28c.21.13.41,0,.59-.41l.38,0,.59.66c.11.21.1.4-.25.56s-.46.19-.34.41a1.06,1.06,0,0,0,1.5,0c.64-.42.83-.85.63-1.28L37,25.23c-.25-.3-.28-.63.34-1.07.61.08,1,.28.81.84,0,.33.09.53.53.22.29.08.56-.05.78-.72V20.32C39.39,19.76,39.18,19.8,38.86,20.32Z" style="fill: #ececea"/>
  <ellipse cx="47.45" cy="32.43" rx="3.48" ry="3.4" style="fill: none;stroke: #d7e3e4;stroke-miterlimit: 10;stroke-width: 0.30000000000000004px"/>
  <ellipse cx="47.45" cy="46.94" rx="3.48" ry="3.4" style="fill: none;stroke: #d7e3e4;stroke-miterlimit: 10;stroke-width: 0.30000000000000004px"/>
  <ellipse cx="47.45" cy="25.23" rx="3.48" ry="3.4" style="fill: none;stroke: #d7e3e4;stroke-miterlimit: 10;stroke-width: 0.30000000000000004px"/>
  <ellipse cx="4.25" cy="10.84" rx="3.48" ry="3.4" style="fill: none;stroke: #d7e3e4;stroke-miterlimit: 10;stroke-width: 0.30000000000000004px"/>
  <ellipse cx="4.25" cy="3.63" rx="3.48" ry="3.4" style="fill: none;stroke: #d7e3e4;stroke-miterlimit: 10;stroke-width: 0.30000000000000004px"/>
  <ellipse cx="47.45" cy="3.77" rx="3.48" ry="3.4" style="fill: none;stroke: #d7e3e4;stroke-miterlimit: 10;stroke-width: 0.30000000000000004px"/>
  <polyline points="41.14 77.22 41.14 81.41 34.45 81.41 34.33 77.22" style="fill: none;stroke: #d7e3e4;stroke-linecap: round;stroke-linejoin: round;stroke-width: 0.5px"/>
  <polyline points="41.14 71.19 41.14 68.1 39.98 66.94 35.61 66.94 34.42 68.13 34.42 71.19" style="fill: none;stroke: #d7e3e4;stroke-linecap: round;stroke-linejoin: round;stroke-width: 0.5px"/>
  <polyline points="10.07 65.7 10.07 61.51 16.76 61.51 16.88 65.7" style="fill: none;stroke: #d7e3e4;stroke-linecap: round;stroke-linejoin: round;stroke-width: 0.5px"/>
  <polyline points="10.07 71.73 10.07 74.83 11.23 75.98 15.6 75.98 16.79 74.79 16.79 71.73" style="fill: none;stroke: #d7e3e4;stroke-linecap: round;stroke-linejoin: round;stroke-width: 0.5px"/>
  <rect height="6.49" rx="0.78" ry="0.78" style="fill: none;stroke: #d7e3e4;stroke-linecap: round;stroke-linejoin: round;stroke-width: 0.5px" transform="translate(75.44 126.58) rotate(180)" width="5.72" x="34.86" y="60.04"/>
  <line style="fill: none;stroke: #d7e3e4;stroke-linecap: round;stroke-linejoin: round;stroke-width: 0.5px" x1="40.95" x2="37.23" y1="59.47" y2="59.47"/>
  <line style="fill: none;stroke: #d7e3e4;stroke-linecap: round;stroke-linejoin: round;stroke-width: 0.5px" x1="40.8" x2="37.55" y1="48.74" y2="48.74"/>
  <path d="M29.71,14.84H21" style="fill: none;stroke: #d7e3e4;stroke-linecap: round;stroke-linejoin: round;stroke-width: 0.5px"/>
  <line style="fill: none;stroke: #d7e3e4;stroke-linecap: round;stroke-linejoin: round;stroke-width: 0.5px" x1="32.46" x2="32.46" y1="11.03" y2="4.09"/>
  <line style="fill: none;stroke: #d7e3e4;stroke-linecap: round;stroke-linejoin: round;stroke-width: 0.5px" x1="29.71" x2="21" y1="0.43" y2="0.43"/>
  <rect height="2.13" rx="0.27" ry="0.27" style="fill: #90867c" transform="translate(66.78 4.25) rotate(180)" width="4.25" x="31.27" y="1.06"/>
  <rect height="2.13" rx="0.27" ry="0.27" style="fill: #90867c" transform="translate(66.78 25.98) rotate(180)" width="4.25" x="31.27" y="11.92"/>
  <rect height="1.54" rx="0.33" ry="0.33" style="fill: #fffffc" transform="translate(62.39 25.05) rotate(180)" width="3.64" x="29.37" y="11.75"/>
  <rect height="1.54" rx="0.33" ry="0.33" style="fill: #fffffc" transform="translate(62.39 3.94) rotate(180)" width="3.64" x="29.37" y="1.2"/>
  <rect height="2.13" rx="0.27" ry="0.27" style="fill: #90867c" width="4.25" x="15.3" y="1.06"/>
  <rect height="1.54" rx="0.33" ry="0.33" style="fill: #fffffc" width="3.64" x="17.76" y="1.2"/>
  <rect height="2.13" rx="0.27" ry="0.27" style="fill: #90867c" width="4.25" x="15.3" y="11.94"/>
  <rect height="1.54" rx="0.33" ry="0.33" style="fill: #fffffc" width="3.64" x="17.76" y="11.75"/>
  <rect height="2.18" rx="0.51" ry="0.51" style="fill: #f1f2e9" transform="translate(75.45 157.73) rotate(180)" width="4.63" x="35.41" y="77.77"/>
  <rect height="2.18" rx="0.51" ry="0.51" style="fill: #f1f2e9" transform="translate(75.45 137.79) rotate(180)" width="4.63" x="35.41" y="67.8"/>
  <rect height="2.05" rx="0.42" ry="0.42" style="fill: #e7e6e8" transform="translate(85.58 30.41) rotate(90)" width="3.22" x="25.97" y="56.97"/>
  <rect height="1.02" rx="0.35" ry="0.35" style="fill: #e7e6e8" transform="translate(86.86 29.12) rotate(90)" width="3.32" x="27.21" y="57.48"/>
  <rect height="2.49" rx="0.73" ry="0.73" style="fill: #fffdf3" transform="translate(91.3 24.68) rotate(90)" width="3.17" x="31.73" y="56.74"/>
  <rect height="2.05" rx="0.42" ry="0.42" style="fill: #e7e6e8" transform="translate(84.73 39.25) rotate(90)" width="3.22" x="21.13" y="60.97"/>
  <rect height="2.49" rx="0.73" ry="0.73" style="fill: #fffdf3" transform="translate(90.45 33.53) rotate(90)" width="3.17" x="26.88" y="60.74"/>
  <rect height="4.17" rx="0.92" ry="0.92" style="fill: #8b6141" transform="translate(88.88 27) rotate(90)" width="2.54" x="29.67" y="55.86"/>
  <path d="M32.34,56.53q.77-.17.77.86l-.05,1.68c-.2.44-.45.58-.83.18a5.81,5.81,0,0,1-.2-2.17A.52.52,0,0,1,32.34,56.53Z" style="fill: #757376"/>
  <path d="M29.24,59.4q-.77.17-.77-.86l.05-1.68c.2-.44.45-.58.83-.18a5.81,5.81,0,0,1,.2,2.17A.52.52,0,0,1,29.24,59.4Z" style="fill: #757376"/>
  <g>
    <rect height="2.05" rx="0.42" ry="0.42" style="fill: #e7e6e8" transform="translate(94.98 71.36) rotate(90)" width="3.22" x="10.2" y="82.15"/>
    <rect height="1.02" rx="0.35" ry="0.35" style="fill: #e7e6e8" transform="translate(96.27 70.08) rotate(90)" width="3.32" x="11.43" y="82.67"/>
    <rect height="2.49" rx="0.73" ry="0.73" style="fill: #fffdf3" transform="translate(100.71 65.64) rotate(90)" width="3.17" x="15.95" y="81.93"/>
    <rect height="4.17" rx="0.92" ry="0.92" style="fill: #8b6141" transform="translate(98.29 67.95) rotate(90)" width="2.54" x="13.9" y="81.04"/>
    <path d="M16.57,81.71q.77-.17.77.86l-.05,1.68c-.2.44-.45.58-.83.18a5.81,5.81,0,0,1-.2-2.17A.52.52,0,0,1,16.57,81.71Z" style="fill: #757376"/>
    <path d="M13.47,84.58q-.77.17-.77-.86l.05-1.68c.2-.44.45-.58.83-.18a5.81,5.81,0,0,1,.2,2.17A.52.52,0,0,1,13.47,84.58Z" style="fill: #757376"/>
  </g>
  <g>
    <rect height="2.05" rx="0.42" ry="0.42" style="fill: #e7e6e8" transform="translate(42.75 -1.9) rotate(90)" width="3.22" x="20.72" y="19.4"/>
    <rect height="1.02" rx="0.35" ry="0.35" style="fill: #e7e6e8" transform="translate(44.03 -3.19) rotate(90)" width="3.32" x="21.95" y="19.92"/>
    <rect height="2.49" rx="0.73" ry="0.73" style="fill: #fffdf3" transform="translate(48.48 -7.63) rotate(90)" width="3.17" x="26.47" y="19.18"/>
    <rect height="4.17" rx="0.92" ry="0.92" style="fill: #8b6141" transform="translate(46.06 -5.31) rotate(90)" width="2.54" x="24.42" y="18.29"/>
    <path d="M27.08,19q.77-.17.77.86l-.05,1.68c-.2.44-.45.58-.83.18a5.81,5.81,0,0,1-.2-2.17A.52.52,0,0,1,27.08,19Z" style="fill: #757376"/>
    <path d="M24,21.83q-.77.17-.77-.86l.05-1.68c.2-.44.45-.58.83-.18a5.81,5.81,0,0,1,.2,2.17A.52.52,0,0,1,24,21.83Z" style="fill: #757376"/>
  </g>
  <g>
    <rect height="2.05" rx="0.42" ry="0.42" style="fill: #e7e6e8" width="3.22" x="36.48" y="7.63"/>
    <rect height="1.02" rx="0.35" ry="0.35" style="fill: #e7e6e8" width="3.32" x="36.43" y="6.87"/>
    <rect height="2.49" rx="0.73" ry="0.73" style="fill: #fffdf3" width="3.17" x="36.5" y="1.68"/>
    <rect height="4.17" rx="0.92" ry="0.92" style="fill: #8b6141" width="2.54" x="36.77" y="3.22"/>
    <path d="M36.62,3.9q-.17-.77.86-.77l1.68.05c.44.2.58.45.18.83a5.81,5.81,0,0,1-2.17.2A.52.52,0,0,1,36.62,3.9Z" style="fill: #757376"/>
    <path d="M39.5,7q.17.77-.86.77L37,7.71c-.44-.2-.58-.45-.18-.83A5.81,5.81,0,0,1,39,6.68.52.52,0,0,1,39.5,7Z" style="fill: #757376"/>
  </g>
  <g>
    <rect height="2.05" rx="0.42" ry="0.42" style="fill: #e7e6e8" width="3.45" x="36.36" y="16.8"/>
    <rect height="2.5" rx="0.73" ry="0.73" style="fill: #e7e6e8" width="3.39" x="36.39" y="10.83"/>
    <rect height="4.18" rx="0.92" ry="0.92" style="fill: #e7e6e8" width="2.98" x="36.6" y="12.96"/>
    <rect height="2.41" style="fill: #2a292d" transform="translate(53.12 -23.03) rotate(90)" width="3.19" x="36.48" y="13.84"/>
    <g>
      <path d="M37.69,15.51a1.3,1.3,0,0,1,.31,0,.94.94,0,0,1,.42.07.25.25,0,0,1,0,.31,1,1,0,0,1-.42.06,1.3,1.3,0,0,1-.31,0c-.12,0-.14-.1-.14-.19S37.57,15.54,37.69,15.51Zm.08.31H38a1.18,1.18,0,0,0,.31,0s0-.07,0-.1,0-.08,0-.1a1.22,1.22,0,0,0-.31,0h-.25c-.1,0-.1,0-.1.12S37.67,15.8,37.77,15.82Z" style="fill: #ececea"/>
      <path d="M37.91,15.22h-.16l-.18-.16V15h.9v.09h-.76Z" style="fill: #ececea"/>
      <path d="M37.82,14.28a.08.08,0,0,0-.08.08c0,.1.21.12.31.12s.32,0,.32-.12a.09.09,0,0,0-.09-.08v-.09a.19.19,0,0,1,.21.17c0,.17-.24.21-.43.21s-.43,0-.43-.21a.18.18,0,0,1,.2-.17Z" style="fill: #ececea"/>
    </g>
  </g>
  <g>
    <rect height="2.05" rx="0.42" ry="0.42" style="fill: #e7e6e8" width="3.45" x="10.15" y="15.87"/>
    <rect height="2.5" rx="0.73" ry="0.73" style="fill: #e7e6e8" width="3.39" x="10.18" y="9.9"/>
    <rect height="4.18" rx="0.92" ry="0.92" style="fill: #e7e6e8" width="2.98" x="10.39" y="12.03"/>
    <rect height="2.41" style="fill: #2a292d" transform="translate(25.99 2.25) rotate(90)" width="3.19" x="10.27" y="12.91"/>
    <g>
      <path d="M11.48,14.58l.23.17c0-.11.11-.19.27-.19a.26.26,0,0,1,.29.26.34.34,0,0,1-.05.17h-.13a.25.25,0,0,0,.06-.17.16.16,0,0,0-.18-.16c-.12,0-.17.07-.17.15v.07h-.1l-.24-.17V15h-.12v-.4Z" style="fill: #ececea"/>
      <path d="M11.48,13.93l.23.17c0-.11.11-.19.27-.19a.26.26,0,0,1,.29.26.34.34,0,0,1-.05.17h-.13a.25.25,0,0,0,.06-.17A.16.16,0,0,0,12,14c-.12,0-.17.07-.17.15v.07h-.1L11.47,14v.28h-.12v-.4Z" style="fill: #ececea"/>
      <path d="M11.7,13.64h-.16l-.18-.16v-.1h.9v.09H11.5Z" style="fill: #ececea"/>
    </g>
  </g>
  <rect height="8.52" rx="0.39" ry="0.39" style="fill: #646666" transform="translate(75.44 147.66) rotate(180)" width="4.65" x="35.39" y="69.57"/>
  <rect height="6.23" rx="0.47" ry="0.47" style="fill: #111114" transform="translate(75.44 149.64) rotate(180)" width="4.52" x="35.46" y="71.7"/>
  <rect height="2.18" rx="0.51" ry="0.51" style="fill: #f1f2e9" width="4.63" x="11.28" y="62.51"/>
  <rect height="2.18" rx="0.51" ry="0.51" style="fill: #f1f2e9" width="4.63" x="11.28" y="72.48"/>
  <rect height="8.52" rx="0.39" ry="0.39" style="fill: #646666" width="4.65" x="11.28" y="64.38"/>
  <rect height="6.23" rx="0.47" ry="0.47" style="fill: #111114" width="4.52" x="11.34" y="64.54"/>
  <rect height="2.35" style="fill: #d6ceb5" transform="translate(51.61 124.12) rotate(180)" width="4.56" x="23.52" y="60.88"/>
  <rect height="2.05" rx="0.42" ry="0.42" style="fill: #e7e6e8" width="3.22" x="10.53" y="6.96"/>
  <rect height="2.49" rx="0.73" ry="0.73" style="fill: #fffdf3" width="3.17" x="10.56" y="1.01"/>
  <rect height="2.35" style="fill: #d6ceb5" transform="translate(17.13 -7.3) rotate(90)" width="4.56" x="9.93" y="3.74"/>
  <g>
    <rect height="2.05" rx="0.42" ry="0.42" style="fill: #e7e6e8" transform="translate(98.96 53.01) rotate(90)" width="3.22" x="21.36" y="74.96"/>
    <rect height="2.49" rx="0.73" ry="0.73" style="fill: #fffdf3" transform="translate(104.68 47.28) rotate(90)" width="3.17" x="27.11" y="74.74"/>
    <rect height="2.35" style="fill: #e7e6e8" transform="translate(52.08 152.1) rotate(180)" width="4.56" x="23.76" y="74.87"/>
    <rect height="2.35" style="fill: #6d6879" transform="translate(52.31 152.1) rotate(180)" width="2.6" x="24.86" y="74.87"/>
  </g>
  <g>
    <path d="M25.33,75.5a1.15,1.15,0,0,1,0,.31.82.82,0,0,1-.07.42.32.32,0,0,1-.36,0,.83.83,0,0,1-.07-.42,1.19,1.19,0,0,1,0-.31c0-.12.12-.13.22-.13S25.29,75.38,25.33,75.5Zm-.35.08a2.07,2.07,0,0,0,0,.25,1,1,0,0,0,0,.31s.08,0,.11,0,.09,0,.11,0a1.05,1.05,0,0,0,0-.31,2.18,2.18,0,0,0,0-.25c0-.09-.05-.1-.13-.1S25,75.48,25,75.58Z" style="fill: #fff"/>
    <path d="M25.65,75.72v-.16l.18-.18H26v.89h-.11v-.75Z" style="fill: #fff"/>
    <path d="M26.72,75.63a.09.09,0,0,0-.09-.08c-.11,0-.13.21-.13.31s0,.31.13.31a.09.09,0,0,0,.09-.09h.11a.19.19,0,0,1-.19.21c-.19,0-.24-.24-.24-.42s.05-.43.24-.43a.19.19,0,0,1,.19.2Z" style="fill: #fff"/>
  </g>
  <rect height="8.37" style="fill: #96979d" transform="translate(51.61 137.46) rotate(180)" width="4.47" x="23.57" y="64.55"/>
  <rect height="7.58" style="fill: #111114" transform="translate(51.59 137.47) rotate(180)" width="4.06" x="23.76" y="64.94"/>
  <circle cx="15.65" cy="7.11" r="0.98" style="fill: #e7e6e8"/>
  <path d="M29,14.54H21.36q-.27-1.94-1-.87L18.64,12c.36-.65.17-.95-.59-.87V3.48c.66,0,1-.27,1-1l1.34-1.28q1,.11.84-.84h7.69c0,.5.21.78.75.75L31.17,2.6c0,.53.25.86.94.72V11.1c-.65-.08-.92.15-.75.72l-1.45,1.44C29.2,13,29,13.6,29,14.54Z" style="fill: #88826f"/>
  <polygon points="28.67 13.04 21.6 13.04 19.33 10.79 19.33 3.94 21.61 1.68 28.67 1.68 30.68 3.67 30.68 10.96 28.67 13.04" style="fill: #e5e2de"/>
  <polygon points="28.13 12.01 29.91 10.38 29.91 4.29 27.92 2.31 22.05 2.31 20.16 4.19 20.16 10.17 22.02 12.03 28.13 12.01" style="fill: #8f8874"/>
  <circle cx="25.09" cy="7.13" r="3.04" style="fill: #bcb388"/>
  <circle cx="25.06" cy="7.11" r="2.81" style="fill: #9d7732"/>
  <g>
    <path d="M48.78,88.72h-.13a.66.66,0,0,1-.41-.13.4.4,0,0,1-.17-.32v-.7h2.31v.7a.4.4,0,0,1-.17.32.66.66,0,0,1-.42.13h-.12a.65.65,0,0,1-.44-.16A.67.67,0,0,1,48.78,88.72Zm-.13-.23h.12a.34.34,0,0,0,.21-.07.2.2,0,0,0,.09-.16V87.8h-.71v.46a.2.2,0,0,0,.09.16A.32.32,0,0,0,48.66,88.49Zm1,0h.12a.33.33,0,0,0,.21-.07.2.2,0,0,0,.09-.16V87.8h-.71v.46a.2.2,0,0,0,.09.16A.33.33,0,0,0,49.67,88.49Z" style="fill: #fff"/>
    <path d="M48.07,89.25h2.17a.16.16,0,0,1,.1,0,.1.1,0,0,1,0,.08.1.1,0,0,1,0,.08.17.17,0,0,1-.1,0H48.36v.81a.1.1,0,0,1,0,.08.16.16,0,0,1-.1,0,.16.16,0,0,1-.1,0,.1.1,0,0,1,0-.08Z" style="fill: #fff"/>
    <path d="M48.21,90.93h2a.17.17,0,0,1,.11,0,.1.1,0,0,1,0,.08.1.1,0,0,1,0,.08.17.17,0,0,1-.1,0h-.69l.8.73a.11.11,0,0,1,0,.09.1.1,0,0,1,0,.08.17.17,0,0,1-.1,0,.15.15,0,0,1-.1,0l-.9-.83-.92.83a.13.13,0,0,1-.09,0,.18.18,0,0,1-.11,0,.1.1,0,0,1,0-.08.11.11,0,0,1,0-.08l.8-.73h-.7a.16.16,0,0,1-.1,0,.1.1,0,0,1,0-.16A.16.16,0,0,1,48.21,90.93Z" style="fill: #fff"/>
  </g>
  <g>
    <path d="M3.74,88.27v.39a.11.11,0,0,1,0,.08.16.16,0,0,1-.1,0,.15.15,0,0,1-.11,0,.11.11,0,0,1,0-.08v-.38a.11.11,0,0,0-.06-.1l-.53-.33a.31.31,0,0,0-.17,0H1.87a.16.16,0,0,0-.11,0,.1.1,0,0,0,0,.08v.48a.1.1,0,0,0,0,.08.16.16,0,0,0,.1,0h.32v-.25a.1.1,0,0,1,0-.08.17.17,0,0,1,.21,0,.1.1,0,0,1,0,.08v.48H1.86a.48.48,0,0,1-.31-.1.31.31,0,0,1-.13-.25v-.48a.32.32,0,0,1,.13-.25.47.47,0,0,1,.31-.11h.81a.68.68,0,0,1,.37.09l.55.35a.32.32,0,0,1,.11.11A.26.26,0,0,1,3.74,88.27Z" style="fill: #fff"/>
    <path d="M1.57,89.33H3.74v.84a.31.31,0,0,1-.13.25.48.48,0,0,1-.31.11H3.13a.49.49,0,0,1-.31-.1.32.32,0,0,1-.13-.25V90l-1,.48-.09,0a.15.15,0,0,1-.1,0,.11.11,0,0,1,0-.08.11.11,0,0,1,.08-.11l1.18-.56v-.17H1.57a.15.15,0,0,1-.1,0,.11.11,0,0,1,0-.08.1.1,0,0,1,0-.08A.16.16,0,0,1,1.57,89.33ZM3,89.57v.6a.1.1,0,0,0,0,.08.16.16,0,0,0,.1,0H3.3a.16.16,0,0,0,.1,0,.1.1,0,0,0,0-.08v-.6Z" style="fill: #fff"/>
    <path d="M3.59,92.27H1.42v-.32l1.8-.64H1.57a.16.16,0,0,1-.1,0,.1.1,0,0,1,0-.17.16.16,0,0,1,.1,0H3.74v.31L1.94,92H3.59a.16.16,0,0,1,.11,0,.11.11,0,0,1,0,.08.1.1,0,0,1,0,.08A.17.17,0,0,1,3.59,92.27Z" style="fill: #fff"/>
  </g>
  <g>
    <path d="M38.84,86.35h-.26a.07.07,0,0,1-.06,0,.1.1,0,0,1,0-.07.09.09,0,0,1,0-.07.07.07,0,0,1,.05,0h.25a.08.08,0,0,0,.06,0l.22-.34a.18.18,0,0,0,0-.11v-.51a.1.1,0,0,0,0-.07.07.07,0,0,0-.06,0h-.32a.07.07,0,0,0-.05,0,.1.1,0,0,0,0,.07v.2h.16a.07.07,0,0,1,.06,0,.11.11,0,0,1,0,.13.07.07,0,0,1-.06,0h-.32v-.39a.29.29,0,0,1,.07-.2.21.21,0,0,1,.17-.08h.32a.21.21,0,0,1,.17.08.29.29,0,0,1,.07.2v.51a.42.42,0,0,1-.06.23l-.23.35a.21.21,0,0,1-.07.07Z" style="fill: #fff"/>
    <path d="M37.35,86.26V84.88h.21L38,86V85a.1.1,0,0,1,0-.06.07.07,0,0,1,.11,0,.1.1,0,0,1,0,.06v1.38h-.21l-.42-1.14v1a.1.1,0,0,1,0,.07.07.07,0,0,1-.06,0,.07.07,0,0,1-.06,0A.1.1,0,0,1,37.35,86.26Z" style="fill: #fff"/>
    <path d="M36.91,86.35H36.6a.19.19,0,0,1-.12,0,.28.28,0,0,1-.08-.11l-.15-.37a.53.53,0,0,1,0-.21.52.52,0,0,1,0-.21l.16-.37a.27.27,0,0,1,.09-.11.2.2,0,0,1,.12,0h.3a.07.07,0,0,1,.06,0A.1.1,0,0,1,37,85,.11.11,0,0,1,37,85a.07.07,0,0,1-.06,0h-.08v1.1h.08a.07.07,0,0,1,.06,0,.1.1,0,0,1,0,.07.1.1,0,0,1,0,.07A.07.07,0,0,1,36.91,86.35Zm-.24-.19v-1.1h-.05a.08.08,0,0,0-.08.06l-.15.37a.34.34,0,0,0,0,.12.29.29,0,0,0,0,.12l.16.38a.09.09,0,0,0,.08.06Z" style="fill: #fff"/>
  </g>
  <g>
    <path d="M30,16.12v2.09h-.84a.32.32,0,0,1-.25-.13.45.45,0,0,1-.1-.3v-.16a.46.46,0,0,1,.1-.3.32.32,0,0,1,.25-.12h.15l-.48-1a.19.19,0,0,1,0-.09.14.14,0,0,1,0-.1.11.11,0,0,1,.08,0,.11.11,0,0,1,.11.08l.55,1.14h.17V16.12a.15.15,0,0,1,0-.1.11.11,0,0,1,.08,0,.11.11,0,0,1,.08,0A.15.15,0,0,1,30,16.12Zm-.24,1.36h-.6a.11.11,0,0,0-.08,0,.15.15,0,0,0,0,.1v.16a.15.15,0,0,0,0,.1.1.1,0,0,0,.08,0h.6Z" style="fill: #fff"/>
    <path d="M27,17.07v-.34a.15.15,0,0,1,0-.1.11.11,0,0,1,.08,0H28v-.08a.16.16,0,0,0-.05-.12l-.07-.07a.16.16,0,0,0-.11-.05h-.61a.11.11,0,0,1-.08,0,.15.15,0,0,1,0-.1.15.15,0,0,1,0-.1.11.11,0,0,1,.08,0h.63a.31.31,0,0,1,.13,0l.1.06.11.11a.36.36,0,0,1,.08.13.43.43,0,0,1,0,.15v.65a.45.45,0,0,1,0,.15.39.39,0,0,1-.09.15l-.1.09a.3.3,0,0,1-.22.09h-.33a.32.32,0,0,1-.24-.12l-.09-.1A.43.43,0,0,1,27,17.07Zm1,0v-.22h-.72v.2a.17.17,0,0,0,0,.12l.07.07a.15.15,0,0,0,.1.05h.3a.14.14,0,0,0,.1,0L28,17.2A.14.14,0,0,0,28,17.09Z" style="fill: #fff"/>
    <path d="M26.16,17.6h-.54a.32.32,0,0,1-.22-.09.25.25,0,0,1-.1-.18.14.14,0,0,1,0-.1.11.11,0,0,1,.08,0,.13.13,0,0,1,.1.06.13.13,0,0,0,.1.06h.54a.07.07,0,0,0,.08-.08.09.09,0,0,0-.05-.08l-.63-.33a.39.39,0,0,1-.16-.16.51.51,0,0,1-.06-.25.46.46,0,0,1,.11-.31.32.32,0,0,1,.25-.13h.48a.35.35,0,0,1,.23.09.24.24,0,0,1,.11.17.15.15,0,0,1,0,.1.11.11,0,0,1-.09,0,.14.14,0,0,1-.1-.06.18.18,0,0,0-.15-.06h-.44a.11.11,0,0,0-.09,0,.18.18,0,0,0,0,.11.14.14,0,0,0,.08.14l.64.34a.33.33,0,0,1,.14.14.4.4,0,0,1,0,.19.41.41,0,0,1-.09.26A.27.27,0,0,1,26.16,17.6Z" style="fill: #fff"/>
    <path d="M23.56,17.07v-.34a.15.15,0,0,1,0-.1.11.11,0,0,1,.08,0h.84v-.08a.16.16,0,0,0-.05-.12l-.07-.07a.16.16,0,0,0-.11-.05h-.61a.11.11,0,0,1-.08,0,.15.15,0,0,1,0-.1.15.15,0,0,1,0-.1.11.11,0,0,1,.08,0h.63a.31.31,0,0,1,.13,0l.1.06.11.11a.36.36,0,0,1,.08.13.43.43,0,0,1,0,.15v.65a.45.45,0,0,1,0,.15.39.39,0,0,1-.09.15l-.1.09a.3.3,0,0,1-.22.09H24a.32.32,0,0,1-.24-.12l-.09-.1A.43.43,0,0,1,23.56,17.07Zm1,0v-.22h-.72v.2a.17.17,0,0,0,0,.12l.07.07a.15.15,0,0,0,.1.05h.3a.14.14,0,0,0,.1,0l.07-.07A.14.14,0,0,0,24.51,17.09Z" style="fill: #fff"/>
    <path d="M22.17,16h.24a.32.32,0,0,1,.25.12.45.45,0,0,1,.11.3v.92h.12a.11.11,0,0,1,.08,0,.16.16,0,0,1,0,.2.11.11,0,0,1-.08,0h-.12v.35a.15.15,0,0,1,0,.1.1.1,0,0,1-.17,0,.15.15,0,0,1,0-.1V17.6h-.48a.1.1,0,0,1-.08,0,.16.16,0,0,1,0-.2.11.11,0,0,1,.08,0h.48V16.4a.15.15,0,0,0,0-.1.11.11,0,0,0-.08,0h-.23c-.06,0-.1,0-.13.12s-.06.12-.12.12a.1.1,0,0,1-.09,0,.16.16,0,0,1,0-.1.41.41,0,0,1,.1-.25A.31.31,0,0,1,22.17,16Z" style="fill: #fff"/>
  </g>
  <g>
    <path d="M26.19,82.65v.07l.22.42v-1.7a.16.16,0,0,1,0-.1.09.09,0,0,1,.15,0,.16.16,0,0,1,0,.1v2.09h-.27L26.08,83l-.27.51h-.27V81.43a.16.16,0,0,1,0-.1.09.09,0,0,1,.08,0,.09.09,0,0,1,.07,0,.16.16,0,0,1,0,.1v1.7l.21-.4v-.08a.16.16,0,0,1,0-.1.09.09,0,0,1,.15,0A.16.16,0,0,1,26.19,82.65Z" style="fill: #fff"/>
    <path d="M24.2,81.3h.65a.09.09,0,0,1,.07,0,.16.16,0,0,1,0,.1.16.16,0,0,1,0,.1.09.09,0,0,1-.07,0h-.22v1.05h.21a.09.09,0,0,1,.07,0,.16.16,0,0,1,0,.1.17.17,0,0,1,0,.1.09.09,0,0,1-.07,0h-.32a.09.09,0,0,1-.07,0,.17.17,0,0,1,0-.1V81.58H24.2a.09.09,0,0,1-.08,0,.16.16,0,0,1,0-.1.16.16,0,0,1,0-.1A.09.09,0,0,1,24.2,81.3Zm.43,2.35h-.11a.09.09,0,0,1-.07,0,.16.16,0,0,1,0-.1v-.12a.17.17,0,0,1,0-.1.09.09,0,0,1,.07,0h.11a.09.09,0,0,1,.08,0,.16.16,0,0,1,0,.1v.12a.16.16,0,0,1,0,.1A.09.09,0,0,1,24.63,83.65Z" style="fill: #fff"/>
    <path d="M23,82.59l.29-.25v-.9a.16.16,0,0,1,0-.1.09.09,0,0,1,.07,0,.09.09,0,0,1,.07,0,.16.16,0,0,1,0,.1v1.34a.17.17,0,0,1,0,.1.09.09,0,0,1-.15,0,.17.17,0,0,1,0-.1v-.09l-.19.16a.33.33,0,0,1-.22.08h-.1a.27.27,0,0,1-.22-.12.49.49,0,0,1-.1-.29l0-1.07a.15.15,0,0,1,0-.1.09.09,0,0,1,.08,0,.1.1,0,0,1,.07,0,.16.16,0,0,1,0,.1l0,1.05c0,.1,0,.15.12.15h.1A.16.16,0,0,0,23,82.59Z" style="fill: #fff"/>
    <path d="M21.08,81.3h.65a.09.09,0,0,1,.07,0,.16.16,0,0,1,0,.1.16.16,0,0,1,0,.1.09.09,0,0,1-.07,0h-.22v1.05h.21a.09.09,0,0,1,.07,0,.16.16,0,0,1,0,.1.17.17,0,0,1,0,.1.09.09,0,0,1-.07,0H21.4a.09.09,0,0,1-.07,0,.17.17,0,0,1,0-.1V81.58h-.21a.09.09,0,0,1-.08,0,.16.16,0,0,1,0-.1.16.16,0,0,1,0-.1A.09.09,0,0,1,21.08,81.3Zm.43,2.35H21.4a.09.09,0,0,1-.07,0,.16.16,0,0,1,0-.1v-.12a.17.17,0,0,1,0-.1.09.09,0,0,1,.07,0h.11a.09.09,0,0,1,.08,0,.16.16,0,0,1,0,.1v.12a.16.16,0,0,1,0,.1A.09.09,0,0,1,21.51,83.65Z" style="fill: #fff"/>
  </g>
  <g>
    <path d="M16.4,78.4v2.09h-.75a.27.27,0,0,1-.22-.12.49.49,0,0,1-.09-.3v-.53a.48.48,0,0,1,.09-.3.27.27,0,0,1,.22-.12h.54V78.4a.16.16,0,0,1,0-.1.09.09,0,0,1,.07,0,.09.09,0,0,1,.08,0A.16.16,0,0,1,16.4,78.4Zm-.21,1h-.54a.09.09,0,0,0-.07,0,.16.16,0,0,0,0,.1v.53a.16.16,0,0,0,0,.1.09.09,0,0,0,.07,0h.54Z" style="fill: #fff"/>
    <path d="M14.84,78.4v1.34a.17.17,0,0,1,0,.1.09.09,0,0,1-.08,0,.09.09,0,0,1-.07,0,.17.17,0,0,1,0-.1v-.18l-.17.2a.29.29,0,0,1-.21.12h-.15a.27.27,0,0,1-.22-.12.49.49,0,0,1-.09-.3v-.08a.17.17,0,0,1,0-.1.09.09,0,0,1,.07,0,.09.09,0,0,1,.08,0,.16.16,0,0,1,0,.1v.08a.16.16,0,0,0,0,.1.09.09,0,0,0,.08,0h.14a.15.15,0,0,0,.1-.06l.3-.35V78.4a.16.16,0,0,1,0-.1.09.09,0,0,1,.15,0A.16.16,0,0,1,14.84,78.4Z" style="fill: #fff"/>
    <path d="M12.22,79.37v-.6a.54.54,0,0,1,.13-.35.37.37,0,0,1,.28-.16h.25a.37.37,0,0,1,.28.16.54.54,0,0,1,.13.35v.6a.56.56,0,0,1-.13.35.36.36,0,0,1-.28.16h-.25a.36.36,0,0,1-.28-.16A.54.54,0,0,1,12.22,79.37Zm.85,0v-.57a.18.18,0,0,0,0-.12L13,78.58a.09.09,0,0,0-.07,0h-.25a.13.13,0,0,0-.1.05l-.06.08a.15.15,0,0,0,0,.11v.57a.17.17,0,0,0,0,.12l.07.08a.12.12,0,0,0,.09,0h.22a.14.14,0,0,0,.11,0l.07-.08A.17.17,0,0,0,13.07,79.36Z" style="fill: #fff"/>
  </g>
  <g>
    <path d="M32.25,78.46l-.44,1.93c0,.07-.05.1-.11.1a.1.1,0,0,1-.1-.09l-.43-2a.19.19,0,0,1,0,0,.16.16,0,0,1,0-.1.09.09,0,0,1,.07,0c.06,0,.09,0,.11.1l.09.38H32l.09-.41a.08.08,0,0,1,0-.05l.06,0a.1.1,0,0,1,.08,0,.17.17,0,0,1,0,.1A.24.24,0,0,1,32.25,78.46Zm-.55,1.38.19-.81h-.37Z" style="fill: #fff"/>
    <path d="M30.66,78.4v1.34a.17.17,0,0,1,0,.1.09.09,0,0,1-.08,0,.09.09,0,0,1-.08,0,.16.16,0,0,1,0-.1v-.18l-.18.2a.3.3,0,0,1-.21.12h-.16a.28.28,0,0,1-.23-.12.47.47,0,0,1-.1-.3v-.08a.17.17,0,0,1,0-.1.09.09,0,0,1,.15,0,.16.16,0,0,1,0,.1v.08a.16.16,0,0,0,0,.1.1.1,0,0,0,.08,0H30a.15.15,0,0,0,.1-.06l.31-.35V78.4a.16.16,0,0,1,0-.1.09.09,0,0,1,.15,0A.16.16,0,0,1,30.66,78.4Z" style="fill: #fff"/>
    <path d="M28.19,79.69v.67a.16.16,0,0,1,0,.1.09.09,0,0,1-.08,0,.1.1,0,0,1-.08,0,.15.15,0,0,1,0-.1v-2a.16.16,0,0,1,0-.1.1.1,0,0,1,.08,0,.09.09,0,0,1,.08,0,.16.16,0,0,1,0,.1v.06c.11-.13.21-.2.3-.2h.19a.31.31,0,0,1,.22.13l.09.1a.41.41,0,0,1,.06.13.58.58,0,0,1,0,.17v.57a.57.57,0,0,1,0,.19.39.39,0,0,1-.07.13l-.09.1a.29.29,0,0,1-.23.11h-.16a.31.31,0,0,1-.23-.12Zm.32-.08h.15a.11.11,0,0,0,.09,0l.07-.08a.16.16,0,0,0,0-.11v-.6a.15.15,0,0,0,0-.11l-.07-.08a.1.1,0,0,0-.07,0h-.18a.13.13,0,0,0-.08.05l-.17.19a.17.17,0,0,0,0,.12v.31a.22.22,0,0,0,0,.15l.18.2A.11.11,0,0,0,28.5,79.6Z" style="fill: #fff"/>
    <path d="M26.94,78.55l-.37.3v.89a.17.17,0,0,1,0,.1.09.09,0,0,1-.08,0,.09.09,0,0,1-.08,0,.17.17,0,0,1,0-.1V78.4a.15.15,0,0,1,0-.1.09.09,0,0,1,.15,0,.16.16,0,0,1,0,.1v.11l.19-.16a.35.35,0,0,1,.23-.09h.1a.29.29,0,0,1,.23.12.5.5,0,0,1,.1.3l0,1.06a.14.14,0,0,1,0,.1.1.1,0,0,1-.08,0,.09.09,0,0,1-.08,0,.17.17,0,0,1,0-.1l0-1c0-.1,0-.15-.13-.15Z" style="fill: #fff"/>
    <path d="M25,78.26h.66a.1.1,0,0,1,.08,0,.16.16,0,0,1,0,.1.16.16,0,0,1,0,.1.1.1,0,0,1-.08,0h-.22V79.6h.22a.09.09,0,0,1,.08,0,.16.16,0,0,1,0,.1.17.17,0,0,1,0,.1.09.09,0,0,1-.08,0h-.33a.09.09,0,0,1-.08,0,.17.17,0,0,1,0-.1V78.55H25a.1.1,0,0,1-.08,0,.15.15,0,0,1,0-.1.16.16,0,0,1,0-.1A.09.09,0,0,1,25,78.26Zm.44,2.35h-.11a.09.09,0,0,1-.08,0,.16.16,0,0,1,0-.1v-.12a.17.17,0,0,1,0-.1.09.09,0,0,1,.08,0h.12a.09.09,0,0,1,.08,0,.16.16,0,0,1,0,.1v.12a.16.16,0,0,1,0,.1A.09.09,0,0,1,25.43,80.62Z" style="fill: #fff"/>
    <path d="M23.75,79.55l.3-.25v-.9a.16.16,0,0,1,0-.1.09.09,0,0,1,.08,0,.1.1,0,0,1,.08,0,.16.16,0,0,1,0,.1v1.34a.17.17,0,0,1,0,.1.09.09,0,0,1-.15,0,.17.17,0,0,1,0-.1v-.09l-.2.16a.35.35,0,0,1-.23.08h-.1a.28.28,0,0,1-.22-.12.48.48,0,0,1-.1-.29l0-1.07a.15.15,0,0,1,0-.1.1.1,0,0,1,.08,0,.1.1,0,0,1,.07,0,.16.16,0,0,1,0,.1l0,1.05c0,.1,0,.15.12.15h.11A.17.17,0,0,0,23.75,79.55Z" style="fill: #fff"/>
    <path d="M21.57,79.37v-.6a.53.53,0,0,1,.14-.35.38.38,0,0,1,.28-.16h.25a.38.38,0,0,1,.28.16.54.54,0,0,1,.14.35v.6a.55.55,0,0,1-.13.35.37.37,0,0,1-.29.16H22a.37.37,0,0,1-.28-.16A.53.53,0,0,1,21.57,79.37Zm.88,0v-.57a.17.17,0,0,0,0-.12l-.08-.09a.1.1,0,0,0-.08,0H22a.13.13,0,0,0-.1.05l-.07.08a.15.15,0,0,0,0,.11v.57a.17.17,0,0,0,0,.12l.08.08a.12.12,0,0,0,.09,0h.23a.14.14,0,0,0,.11,0l.07-.08A.16.16,0,0,0,22.45,79.36Z" style="fill: #fff"/>
  </g>
  <g>
    <path d="M31.69,86.26v-.34L32,85s0-.07.08-.07.06,0,.08.07l.32,1v.34a.1.1,0,0,1,0,.07.07.07,0,0,1-.11,0,.1.1,0,0,1,0-.07V86l-.24-.72-.24.72v.31a.1.1,0,0,1,0,.07.07.07,0,0,1-.11,0A.1.1,0,0,1,31.69,86.26Z" style="fill: #fff"/>
    <path d="M30.9,85.07h-.28a.07.07,0,0,1-.06,0,.1.1,0,0,1,0-.07.09.09,0,0,1,0-.06.07.07,0,0,1,.06,0h.29a.21.21,0,0,1,.12,0,.25.25,0,0,1,.08.09l.18.42a.49.49,0,0,1,0,.18.43.43,0,0,1,0,.18l-.18.41a.28.28,0,0,1-.08.1.17.17,0,0,1-.11,0h-.31a.07.07,0,0,1-.06,0,.1.1,0,0,1,0-.07.1.1,0,0,1,0-.07.07.07,0,0,1,.06,0h.3s0,0,.06-.05l.17-.38a.26.26,0,0,0,0-.11.27.27,0,0,0,0-.12L31,85.13A.08.08,0,0,0,30.9,85.07Z" style="fill: #fff"/>
    <path d="M29.75,85.07h-.28a.07.07,0,0,1-.06,0,.1.1,0,0,1,0-.07.09.09,0,0,1,0-.06.07.07,0,0,1,.06,0h.29a.21.21,0,0,1,.12,0A.25.25,0,0,1,30,85l.18.42a.49.49,0,0,1,0,.18.43.43,0,0,1,0,.18l-.18.41a.28.28,0,0,1-.08.1.17.17,0,0,1-.11,0h-.31a.07.07,0,0,1-.06,0,.1.1,0,0,1,0-.07.1.1,0,0,1,0-.07.07.07,0,0,1,.06,0h.3s0,0,.06-.05l.17-.38a.26.26,0,0,0,0-.11.27.27,0,0,0,0-.12l-.17-.38A.08.08,0,0,0,29.75,85.07Z" style="fill: #fff"/>
  </g>
  <g>
    <path d="M25,85v1.38h-.55a.21.21,0,0,1-.17-.08.31.31,0,0,1-.07-.2V86a.3.3,0,0,1,.07-.2.21.21,0,0,1,.17-.08h.1L24.27,85a.11.11,0,0,1,0-.06.09.09,0,0,1,0-.06.07.07,0,0,1,.06,0,.08.08,0,0,1,.07,0l.37.75h.11V85a.09.09,0,0,1,0-.06.07.07,0,0,1,.06,0,.07.07,0,0,1,.06,0A.1.1,0,0,1,25,85Zm-.16.9h-.4a.07.07,0,0,0-.06,0,.1.1,0,0,0,0,.07v.11a.1.1,0,0,0,0,.07.07.07,0,0,0,.06,0h.4Z" style="fill: #fff"/>
    <path d="M23.48,85.43l.25-.51a.07.07,0,0,1,.07,0,.07.07,0,0,1,.06,0,.09.09,0,0,1,0,.06.13.13,0,0,1,0,.05l-.29.59.29.58a.15.15,0,0,1,0,.06.09.09,0,0,1,0,.06.07.07,0,0,1-.05,0,.07.07,0,0,1-.07,0l-.25-.5-.25.5a.07.07,0,0,1-.07,0,.07.07,0,0,1-.06,0,.1.1,0,0,1,0-.07.11.11,0,0,1,0,0l.29-.59L23.1,85a.11.11,0,0,1,0-.11.07.07,0,0,1,.12,0Z" style="fill: #fff"/>
    <path d="M22.66,86.35H22a.07.07,0,0,1-.05,0,.1.1,0,0,1,0-.07.1.1,0,0,1,0-.07.07.07,0,0,1,.05,0h.24v-1.1H22A.07.07,0,0,1,22,85,.1.1,0,0,1,22,85a.09.09,0,0,1,0-.06.07.07,0,0,1,.05,0h.63a.07.07,0,0,1,.06,0,.1.1,0,0,1,0,.06.1.1,0,0,1,0,.07.07.07,0,0,1-.06,0h-.24v1.1h.24a.07.07,0,0,1,.06,0,.1.1,0,0,1,0,.07.1.1,0,0,1,0,.07A.07.07,0,0,1,22.66,86.35Z" style="fill: #fff"/>
  </g>
  <g>
    <path d="M17.61,86.1v.25h-.79V86.1a.1.1,0,0,1,0-.07A.07.07,0,0,1,17,86a.09.09,0,0,1,0,.06v.07h.16V85a.1.1,0,0,1,0-.06.07.07,0,0,1,.06,0,.07.07,0,0,1,.06,0,.09.09,0,0,1,0,.06v1.19h.16V86.1a.1.1,0,0,1,0-.06.07.07,0,0,1,.11,0A.1.1,0,0,1,17.61,86.1Z" style="fill: #fff"/>
    <path d="M16.05,85.43l.25-.51a.07.07,0,0,1,.07,0,.07.07,0,0,1,.06,0,.09.09,0,0,1,0,.06.13.13,0,0,1,0,.05l-.29.59.29.58a.15.15,0,0,1,0,.06.09.09,0,0,1,0,.06.07.07,0,0,1-.05,0,.07.07,0,0,1-.07,0l-.25-.5-.25.5a.07.07,0,0,1-.07,0,.07.07,0,0,1-.06,0,.1.1,0,0,1,0-.07.11.11,0,0,1,0,0l.29-.59-.29-.6a.11.11,0,0,1,0-.11.07.07,0,0,1,.12,0Z" style="fill: #fff"/>
    <path d="M14.52,86.26V84.88h.21L15.15,86V85a.1.1,0,0,1,0-.06.07.07,0,0,1,.11,0,.1.1,0,0,1,0,.06v1.38H15.1l-.42-1.14v1a.1.1,0,0,1,0,.07.07.07,0,0,1-.06,0,.07.07,0,0,1-.06,0A.1.1,0,0,1,14.52,86.26Z" style="fill: #fff"/>
  </g>
  <g>
    <path d="M9.33,59.94H8.81l-1.46-.48c-.07,0-.11-.06-.11-.12s0-.1.11-.12l1.46-.48h.52a.16.16,0,0,1,.1,0,.1.1,0,0,1,0,.17.16.16,0,0,1-.1,0H8.87l-1.1.36,1.09.36h.46a.16.16,0,0,1,.1,0,.11.11,0,0,1,0,.17A.16.16,0,0,1,9.33,59.94Z" style="fill: #fff"/>
    <path d="M7.53,61.14v.43a.11.11,0,0,1,0,.09.16.16,0,0,1-.2,0,.11.11,0,0,1,0-.08v-.44a.31.31,0,0,1,.06-.17.36.36,0,0,1,.14-.13l.63-.27a.74.74,0,0,1,.28-.05.66.66,0,0,1,.27.05l.62.28a.42.42,0,0,1,.15.12.26.26,0,0,1,.07.16v.47a.11.11,0,0,1,0,.08.15.15,0,0,1-.1,0,.16.16,0,0,1-.1,0,.1.1,0,0,1,0-.08v-.45s0-.07-.08-.09l-.58-.26a.38.38,0,0,0-.16,0,.42.42,0,0,0-.17,0L7.62,61A.12.12,0,0,0,7.53,61.14Z" style="fill: #fff"/>
    <path d="M7.53,62.88v.43a.11.11,0,0,1,0,.09.16.16,0,0,1-.2,0,.11.11,0,0,1,0-.08v-.44a.31.31,0,0,1,.06-.17.36.36,0,0,1,.14-.13l.63-.27a.74.74,0,0,1,.28-.05.66.66,0,0,1,.27.05l.62.28a.42.42,0,0,1,.15.12.26.26,0,0,1,.07.16v.47a.11.11,0,0,1,0,.08.15.15,0,0,1-.1,0,.16.16,0,0,1-.1,0,.1.1,0,0,1,0-.08v-.45s0-.07-.08-.09l-.58-.26a.38.38,0,0,0-.16,0,.42.42,0,0,0-.17,0l-.57.25A.12.12,0,0,0,7.53,62.88Z" style="fill: #fff"/>
  </g>
  <g>
    <path d="M7.39,65.56H9.48v.84a.32.32,0,0,1-.13.25.45.45,0,0,1-.3.1H8.89a.46.46,0,0,1-.3-.1.32.32,0,0,1-.12-.25v-.15l-1,.48-.09,0a.14.14,0,0,1-.1,0,.11.11,0,0,1,0-.08.11.11,0,0,1,.08-.11L8.46,66V65.8H7.39a.15.15,0,0,1-.1,0,.11.11,0,0,1,0-.08.11.11,0,0,1,0-.08A.15.15,0,0,1,7.39,65.56Zm1.36.24v.6a.11.11,0,0,0,0,.08.15.15,0,0,0,.1,0h.16a.15.15,0,0,0,.1,0,.1.1,0,0,0,0-.08v-.6Z" style="fill: #fff"/>
    <path d="M9.48,67.57v.62a.29.29,0,0,1-.11.21.4.4,0,0,1-.27.1.15.15,0,0,1-.1,0,.1.1,0,0,1,0-.08.09.09,0,0,1,0-.08l.12,0c.06,0,.09,0,.09-.09v-.59s0,0,0,0l0,0-1.34.88a.37.37,0,0,1-.21.06.34.34,0,0,1-.22-.08.22.22,0,0,1-.1-.17v-.64a.28.28,0,0,1,.12-.22.39.39,0,0,1,.25-.09q.16,0,.16.12a.1.1,0,0,1,0,.08.15.15,0,0,1-.1,0,.11.11,0,0,0-.08,0,.08.08,0,0,0,0,.07v.59s0,0,0,0l0,0,1.34-.88a.38.38,0,0,1,.21-.06.35.35,0,0,1,.23.08A.24.24,0,0,1,9.48,67.57Z" style="fill: #fff"/>
    <path d="M9.09,69h.38v1.2H9.09a.15.15,0,0,1-.1,0,.11.11,0,0,1,0-.08A.11.11,0,0,1,9,70a.15.15,0,0,1,.1,0h.1v-.24H7.39a.15.15,0,0,1-.1,0,.11.11,0,0,1,0-.08.11.11,0,0,1,0-.09.15.15,0,0,1,.1,0H9.19v-.24h-.1a.15.15,0,0,1-.1,0,.11.11,0,0,1,0-.17A.15.15,0,0,1,9.09,69Z" style="fill: #fff"/>
  </g>
  <g>
    <path d="M9.48,73.68v.39a.11.11,0,0,1,0,.08.16.16,0,0,1-.2,0,.11.11,0,0,1,0-.08V73.7a.11.11,0,0,0-.06-.1l-.51-.33a.28.28,0,0,0-.17,0H7.67a.15.15,0,0,0-.1,0,.11.11,0,0,0,0,.08v.48a.11.11,0,0,0,0,.08.15.15,0,0,0,.1,0H8V73.7a.11.11,0,0,1,0-.08.17.17,0,0,1,.2,0,.1.1,0,0,1,0,.08v.48H7.67a.44.44,0,0,1-.3-.1.32.32,0,0,1-.12-.25v-.48a.32.32,0,0,1,.12-.25.45.45,0,0,1,.3-.11h.78a.63.63,0,0,1,.35.09l.53.35a.33.33,0,0,1,.1.11A.27.27,0,0,1,9.48,73.68Z" style="fill: #fff"/>
    <path d="M9.33,75.93H7.24v-.32L9,75H7.39a.15.15,0,0,1-.1,0,.1.1,0,0,1,0-.08.11.11,0,0,1,0-.08.15.15,0,0,1,.1,0H9.48V75l-1.73.64H9.33a.16.16,0,0,1,.1,0,.11.11,0,0,1,0,.09.11.11,0,0,1,0,.08A.16.16,0,0,1,9.33,75.93Z" style="fill: #fff"/>
    <path d="M9.48,76.6v.47a.3.3,0,0,1-.07.18.42.42,0,0,1-.17.13l-.56.23a.78.78,0,0,1-.32.07A.8.8,0,0,1,8,77.6l-.56-.24a.41.41,0,0,1-.17-.13A.31.31,0,0,1,7.24,77v-.45a.11.11,0,0,1,0-.08.15.15,0,0,1,.1,0,.16.16,0,0,1,.1,0,.11.11,0,0,1,0,.08v.13H9.19V76.6a.11.11,0,0,1,0-.08.16.16,0,0,1,.1,0,.16.16,0,0,1,.1,0A.11.11,0,0,1,9.48,76.6ZM9.19,77H7.53V77a.13.13,0,0,0,.09.12l.55.23a.51.51,0,0,0,.18,0,.44.44,0,0,0,.17,0l.57-.24A.13.13,0,0,0,9.19,77Z" style="fill: #fff"/>
  </g>
  <g>
    <path d="M7.39,80.43H9.48v.84a.32.32,0,0,1-.13.25.45.45,0,0,1-.3.11H8.89a.46.46,0,0,1-.3-.1.32.32,0,0,1-.12-.25v-.15l-1,.48-.09,0a.14.14,0,0,1-.1,0,.11.11,0,0,1,0-.08.11.11,0,0,1,.08-.11l1.14-.55v-.17H7.39a.15.15,0,0,1-.1,0,.11.11,0,0,1,0-.08.11.11,0,0,1,0-.08A.15.15,0,0,1,7.39,80.43Zm1.36.24v.6a.11.11,0,0,0,0,.08.15.15,0,0,0,.1,0h.16a.15.15,0,0,0,.1,0,.11.11,0,0,0,0-.08v-.6Z" style="fill: #fff"/>
    <path d="M7.44,82.18l1.93.48a.12.12,0,0,1,.1.12.11.11,0,0,1-.09.11l-2,.47h0a.15.15,0,0,1-.1,0,.1.1,0,0,1,0-.08.11.11,0,0,1,.1-.12L7.73,83V82.5l-.41-.1-.05,0a.11.11,0,0,1,0-.07.11.11,0,0,1,0-.09.15.15,0,0,1,.1,0Zm1.38.6L8,82.57V83Z" style="fill: #fff"/>
    <path d="M8.6,84.63H7.66l-.14.07v.1l.14.07H9.33a.16.16,0,0,1,.1,0,.11.11,0,0,1,0,.09.11.11,0,0,1,0,.08.15.15,0,0,1-.1,0H7.62l-.09,0L7.32,85a.11.11,0,0,1-.07-.1v-.22a.13.13,0,0,1,.11-.14q-.11,0-.11-.13v-.21A.13.13,0,0,1,7.32,84l.2-.1.1,0H9.33a.15.15,0,0,1,.1,0,.11.11,0,0,1,0,.08.1.1,0,0,1,0,.08.16.16,0,0,1-.1,0H7.66l-.13.07v.1l.14.08H8.6a.15.15,0,0,1,.1,0,.11.11,0,0,1,0,.08.1.1,0,0,1,0,.08A.15.15,0,0,1,8.6,84.63Z" style="fill: #fff"/>
  </g>
  <g>
    <path d="M44,59.43v.39a.11.11,0,0,1,0,.08.16.16,0,0,1-.2,0,.11.11,0,0,1,0-.08v-.38a.11.11,0,0,0-.06-.1L43.17,59A.29.29,0,0,0,43,59h-.78a.15.15,0,0,0-.1,0,.1.1,0,0,0,0,.08v.48a.11.11,0,0,0,0,.08.15.15,0,0,0,.1,0h.31v-.25a.11.11,0,0,1,0-.08.16.16,0,0,1,.2,0,.1.1,0,0,1,0,.08v.48h-.59a.45.45,0,0,1-.3-.1.32.32,0,0,1-.12-.25v-.48a.32.32,0,0,1,.12-.25.44.44,0,0,1,.3-.1H43a.63.63,0,0,1,.35.09l.53.35a.33.33,0,0,1,.1.11A.27.27,0,0,1,44,59.43Z" style="fill: #fff"/>
    <path d="M43.88,61.68H41.79v-.32l1.73-.64H41.94a.15.15,0,0,1-.1,0,.11.11,0,0,1,0-.17.15.15,0,0,1,.1,0H44v.31l-1.73.64h1.59a.15.15,0,0,1,.1,0,.11.11,0,0,1,0,.09.11.11,0,0,1,0,.08A.16.16,0,0,1,43.88,61.68Z" style="fill: #fff"/>
    <path d="M44,62.35v.47A.3.3,0,0,1,44,63a.42.42,0,0,1-.17.13l-.56.23a.77.77,0,0,1-.64,0L42,63.12a.41.41,0,0,1-.17-.13.31.31,0,0,1-.06-.19v-.45a.11.11,0,0,1,0-.08.15.15,0,0,1,.1,0,.16.16,0,0,1,.1,0,.1.1,0,0,1,0,.08v.12h1.66v-.12a.1.1,0,0,1,0-.08.16.16,0,0,1,.1,0,.15.15,0,0,1,.1,0A.11.11,0,0,1,44,62.35Zm-.29.36H42.08v.08a.13.13,0,0,0,.09.12l.55.23a.52.52,0,0,0,.18,0,.44.44,0,0,0,.17,0l.57-.24a.13.13,0,0,0,.09-.12Z" style="fill: #fff"/>
  </g>
  <g>
    <path d="M41.94,65.56H44v.84a.32.32,0,0,1-.13.25.45.45,0,0,1-.3.1h-.16a.46.46,0,0,1-.3-.1.32.32,0,0,1-.12-.25v-.15l-1,.48-.09,0a.14.14,0,0,1-.1,0,.11.11,0,0,1,0-.08.11.11,0,0,1,.08-.11L43,66V65.8H41.94a.15.15,0,0,1-.1,0,.11.11,0,0,1,0-.08.11.11,0,0,1,0-.08A.15.15,0,0,1,41.94,65.56Zm1.36.24v.6a.11.11,0,0,0,0,.08.15.15,0,0,0,.1,0h.16a.15.15,0,0,0,.1,0,.1.1,0,0,0,0-.08v-.6Z" style="fill: #fff"/>
    <path d="M44,67.57v.62a.29.29,0,0,1-.11.21.4.4,0,0,1-.27.1.15.15,0,0,1-.1,0,.1.1,0,0,1,0-.08.09.09,0,0,1,0-.08l.12,0c.06,0,.09,0,.09-.09v-.59s0,0,0,0l0,0-1.34.88a.37.37,0,0,1-.21.06.34.34,0,0,1-.22-.08.22.22,0,0,1-.1-.17v-.64a.28.28,0,0,1,.12-.22.39.39,0,0,1,.25-.09q.16,0,.16.12a.1.1,0,0,1,0,.08.15.15,0,0,1-.1,0,.11.11,0,0,0-.08,0,.08.08,0,0,0,0,.07v.59s0,0,0,0l0,0,1.34-.88a.38.38,0,0,1,.21-.06.35.35,0,0,1,.23.08A.24.24,0,0,1,44,67.57Z" style="fill: #fff"/>
    <path d="M43.64,69H44v1.2h-.38a.15.15,0,0,1-.1,0,.11.11,0,0,1,0-.08.11.11,0,0,1,0-.09.15.15,0,0,1,.1,0h.1v-.24H41.94a.15.15,0,0,1-.1,0,.11.11,0,0,1,0-.08.11.11,0,0,1,0-.09.15.15,0,0,1,.1,0h1.81v-.24h-.1a.15.15,0,0,1-.1,0,.11.11,0,0,1,0-.17A.15.15,0,0,1,43.64,69Z" style="fill: #fff"/>
  </g>
  <g>
    <path d="M41.94,73H44v.84a.32.32,0,0,1-.13.25.45.45,0,0,1-.3.11h-.16a.46.46,0,0,1-.3-.1.32.32,0,0,1-.12-.25v-.15l-1,.48-.09,0a.14.14,0,0,1-.1,0,.11.11,0,0,1,0-.08.11.11,0,0,1,.08-.11L43,73.41v-.17H41.94a.15.15,0,0,1-.1,0,.11.11,0,0,1,0-.08.11.11,0,0,1,0-.08A.15.15,0,0,1,41.94,73Zm1.36.24v.6a.11.11,0,0,0,0,.08.15.15,0,0,0,.1,0h.16a.15.15,0,0,0,.1,0,.11.11,0,0,0,0-.08v-.6Z" style="fill: #fff"/>
    <path d="M42.63,75.35,41.86,75a.11.11,0,0,1-.07-.1.11.11,0,0,1,0-.09.15.15,0,0,1,.1,0l.08,0,.9.44.88-.43.1,0a.14.14,0,0,1,.09,0,.11.11,0,0,1,0,.08A.11.11,0,0,1,44,75l-.76.38.76.38a.11.11,0,0,1,.07.1.11.11,0,0,1,0,.09.14.14,0,0,1-.1,0l-.08,0-.9-.45-.9.44-.07,0a.15.15,0,0,1-.1,0,.11.11,0,0,1,0-.08.11.11,0,0,1,.07-.1Z" style="fill: #fff"/>
    <path d="M44,76.6v1a.11.11,0,0,1,0,.08.15.15,0,0,1-.1,0,.16.16,0,0,1-.1,0,.11.11,0,0,1,0-.08V77.2H42.08v.36a.11.11,0,0,1,0,.08.15.15,0,0,1-.1,0,.15.15,0,0,1-.1,0,.11.11,0,0,1,0-.08v-1a.11.11,0,0,1,0-.08.16.16,0,0,1,.2,0,.11.11,0,0,1,0,.08V77h1.66V76.6a.11.11,0,0,1,0-.08.15.15,0,0,1,.1,0,.16.16,0,0,1,.1,0A.11.11,0,0,1,44,76.6Z" style="fill: #fff"/>
  </g>
  <g>
    <path d="M43.64,80.42H44v1.2h-.38a.15.15,0,0,1-.1,0,.11.11,0,0,1,0-.08.11.11,0,0,1,0-.09.15.15,0,0,1,.1,0h.1v-.24H41.94a.15.15,0,0,1-.1,0,.11.11,0,0,1,0-.08.11.11,0,0,1,0-.09.15.15,0,0,1,.1,0h1.81v-.24h-.1a.15.15,0,0,1-.1,0,.1.1,0,0,1,0-.08.11.11,0,0,1,0-.08A.15.15,0,0,1,43.64,80.42Z" style="fill: #fff"/>
    <path d="M42.63,82.79l-.77-.38a.11.11,0,0,1-.07-.1.11.11,0,0,1,0-.09.15.15,0,0,1,.1,0l.08,0,.9.44.88-.43.1,0a.14.14,0,0,1,.09,0,.11.11,0,0,1,0,.08.11.11,0,0,1-.07.1l-.76.38.76.38a.11.11,0,0,1,.07.1.11.11,0,0,1,0,.09.14.14,0,0,1-.1,0l-.08,0-.9-.45-.9.44-.07,0a.15.15,0,0,1-.1,0,.11.11,0,0,1,0-.08.11.11,0,0,1,.07-.1Z" style="fill: #fff"/>
    <path d="M43.82,84.79l-.63.26a.74.74,0,0,1-.56,0L42,84.79a.29.29,0,0,1-.21-.28.27.27,0,0,1,.06-.17.38.38,0,0,1,.15-.11l.63-.26a.72.72,0,0,1,.28-.05.73.73,0,0,1,.28.05l.63.26a.3.3,0,0,1,.21.28A.29.29,0,0,1,43.82,84.79Zm-.14-.36-.59-.25a.49.49,0,0,0-.17,0,.47.47,0,0,0-.18,0l-.6.25a.07.07,0,0,0-.06.07.08.08,0,0,0,.06.07l.6.25a.48.48,0,0,0,.18,0,.44.44,0,0,0,.17,0l.59-.25s.07,0,.07-.08S43.72,84.45,43.68,84.43Z" style="fill: #fff"/>
  </g>
  <path d="M41.37,54.74V53.49h.9a.25.25,0,0,1,.19.08.27.27,0,0,1,.08.19v.83h.63v-1a.14.14,0,0,1,0-.1.13.13,0,0,1,.18,0,.14.14,0,0,1,0,.1v1a.28.28,0,0,1-.08.2.24.24,0,0,1-.18.08h-.63a.25.25,0,0,1-.19-.08.28.28,0,0,1-.08-.2v-.83h-.64v1a.14.14,0,0,1,0,.1.12.12,0,0,1-.18,0A.14.14,0,0,1,41.37,54.74Z" style="fill: #fff"/>
  <path d="M43.17,47.56h-.49a.36.36,0,0,1-.28-.11.38.38,0,0,1-.26.11h-.51a.24.24,0,0,1-.18-.08.28.28,0,0,1-.08-.2v-1a.14.14,0,0,1,0-.1.13.13,0,0,1,.18,0,.14.14,0,0,1,0,.1v1h.51a.13.13,0,0,0,.09,0,.13.13,0,0,0,0-.1v-.55a.14.14,0,0,1,0-.1.13.13,0,0,1,.19,0,.14.14,0,0,1,0,.1v.56a.14.14,0,0,0,0,.1.12.12,0,0,0,.09,0h.5v-1a.14.14,0,0,1,0-.1.13.13,0,0,1,.18,0,.14.14,0,0,1,0,.1v1a.27.27,0,0,1-.08.19A.25.25,0,0,1,43.17,47.56Z" style="fill: #fff"/>
  <path d="M41.5,39.58H42v-.83H43.3a.12.12,0,0,1,.09,0,.14.14,0,0,1,0,.1.13.13,0,0,1,0,.1.13.13,0,0,1-.09,0h-1v.55h.76a.13.13,0,0,1,.09,0,.14.14,0,0,1,0,.19.13.13,0,0,1-.09,0H42.3a.14.14,0,0,1,0,.1.13.13,0,0,1-.18,0,.14.14,0,0,1,0-.1H41.5a.12.12,0,0,1-.09,0,.14.14,0,0,1,0-.1.14.14,0,0,1,0-.1A.12.12,0,0,1,41.5,39.58Z" style="fill: #fff"/>
  <path d="M41.63,31.86v.64h.64v-.83h1.16v1a.13.13,0,0,1,0,.1.12.12,0,0,1-.18,0,.14.14,0,0,1,0-.1v-.69h-.64v.55a.27.27,0,0,1-.08.19.25.25,0,0,1-.18.08h-.64a.24.24,0,0,1-.18-.08.27.27,0,0,1-.08-.19v-.64a.49.49,0,0,1,0-.18l.08-.21a.12.12,0,0,1,.12-.08.13.13,0,0,1,.09,0,.13.13,0,0,1,0,.09.24.24,0,0,1,0,.09l-.07.18A.14.14,0,0,0,41.63,31.86Z" style="fill: #fff"/>
  <path d="M43.43,24.59v.14a.14.14,0,0,1,0,.1.13.13,0,0,1-.18,0,.14.14,0,0,1,0-.1H42.3v1a.13.13,0,0,1,0,.1.13.13,0,0,1-.09,0H41.5a.12.12,0,0,1-.09,0,.14.14,0,0,1,0-.1v-1.1a.14.14,0,0,1,0-.1.12.12,0,0,1,.09,0h1.8a.12.12,0,0,1,.09,0A.14.14,0,0,1,43.43,24.59ZM42,24.72h-.41v.83H42Z" style="fill: #fff"/>
  <path d="M43.18,17.12h.11a.12.12,0,0,1,.09,0,.14.14,0,0,1,0,.1V18.5h-.8a.13.13,0,0,1-.11-.05l-.41-.51H41.5a.13.13,0,0,1-.09,0,.13.13,0,0,1,0-.1.14.14,0,0,1,0-.1.12.12,0,0,1,.09,0h.66a.14.14,0,0,1,.12,0l.41.51h.48v-.83a.13.13,0,0,1-.11-.14.14.14,0,0,1,0-.1A.12.12,0,0,1,43.18,17.12Z" style="fill: #fff"/>
  <path d="M41.63,9.62h.64a.24.24,0,0,1,.18.08.28.28,0,0,1,.08.2h.77a.12.12,0,0,1,.09,0,.13.13,0,0,1,0,.1v.56a.14.14,0,0,1,0,.1.12.12,0,0,1-.09,0h-.77a.28.28,0,0,1-.08.19.24.24,0,0,1-.19.08h-.64a.24.24,0,0,1-.18-.08.27.27,0,0,1-.08-.19V9.9a.27.27,0,0,1,.08-.2A.25.25,0,0,1,41.63,9.62Zm.64.28h-.64v.83h.64Zm.9.27h-.64v.28h.64Z" style="fill: #fff"/>
  <path d="M41.37,3.55V3.42a.14.14,0,0,1,0-.1.12.12,0,0,1,.09,0,.12.12,0,0,1,.09,0,.14.14,0,0,1,0,.1h.86v-1a.14.14,0,0,1,0-.1.12.12,0,0,1,.09,0h.68a.12.12,0,0,1,.09,0,.14.14,0,0,1,0,.1V3.55a.14.14,0,0,1,0,.1.12.12,0,0,1-.09,0H41.5a.12.12,0,0,1-.09,0A.14.14,0,0,1,41.37,3.55Zm1.39-.13h.41V2.58h-.41Z" style="fill: #fff"/>
  <g>
    <path d="M7.72,23.65v.42H9.26v-.42a.14.14,0,0,1,0-.1.13.13,0,0,1,.18,0,.14.14,0,0,1,0,.1v.69H7.72v.27h.54a.12.12,0,0,1,.09,0,.13.13,0,0,1,0,.1.14.14,0,0,1,0,.1.12.12,0,0,1-.09,0H7.59a.12.12,0,0,1-.09,0,.14.14,0,0,1,0-.1V23.65a.13.13,0,0,1,0-.1.13.13,0,0,1,.09,0,.12.12,0,0,1,.09,0A.14.14,0,0,1,7.72,23.65Z" style="fill: #fff"/>
    <path d="M9.26,26.93H8.77a.36.36,0,0,1-.28-.11.38.38,0,0,1-.26.11H7.72a.24.24,0,0,1-.18-.08.28.28,0,0,1-.08-.2v-1a.14.14,0,0,1,0-.1.13.13,0,0,1,.18,0,.14.14,0,0,1,0,.1v1h.51a.13.13,0,0,0,.09,0,.13.13,0,0,0,0-.1V26a.14.14,0,0,1,0-.1.13.13,0,0,1,.19,0,.14.14,0,0,1,0,.1v.56a.14.14,0,0,0,0,.1.12.12,0,0,0,.09,0h.5v-1a.14.14,0,0,1,0-.1.13.13,0,0,1,.18,0,.14.14,0,0,1,0,.1v1a.27.27,0,0,1-.08.19A.25.25,0,0,1,9.26,26.93Z" style="fill: #fff"/>
  </g>
  <g>
    <path d="M7.64,31.05l1.78.55a.13.13,0,0,1,.1.14.12.12,0,0,1-.08.13l-1.81.55h0a.12.12,0,0,1-.09,0,.13.13,0,0,1,0-.09.13.13,0,0,1,.09-.14l.35-.11v-.63l-.38-.12a.08.08,0,0,1,0,0,.15.15,0,0,1,0-.08.14.14,0,0,1,0-.1.13.13,0,0,1,.09,0Zm1.28.69-.75-.24V32Z" style="fill: #fff"/>
    <path d="M7.71,33.06H9.27a.24.24,0,0,1,.18.08.26.26,0,0,1,.07.19v.86a.26.26,0,0,1-.07.18.24.24,0,0,1-.18.08H7.71a.24.24,0,0,1-.18-.08.26.26,0,0,1-.07-.19v-.85a.26.26,0,0,1,.07-.19A.24.24,0,0,1,7.71,33.06Zm0,1.11H9.26v-.84H7.72Z" style="fill: #fff"/>
  </g>
  <g>
    <path d="M7.64,37.93l1.78.55a.13.13,0,0,1,.1.14.12.12,0,0,1-.08.13l-1.81.55h0a.12.12,0,0,1-.09,0,.13.13,0,0,1,0-.09A.13.13,0,0,1,7.55,39l.35-.11V38.3l-.38-.12a.08.08,0,0,1,0,0,.15.15,0,0,1,0-.08.14.14,0,0,1,0-.1.13.13,0,0,1,.09,0Zm1.28.69-.75-.24v.46Z" style="fill: #fff"/>
    <path d="M7.72,40.07v.42H9.26v-.42a.14.14,0,0,1,0-.1.13.13,0,0,1,.18,0,.14.14,0,0,1,0,.1v.69H7.72V41h.54a.12.12,0,0,1,.09,0,.13.13,0,0,1,0,.1.14.14,0,0,1,0,.1.12.12,0,0,1-.09,0H7.59a.12.12,0,0,1-.09,0,.14.14,0,0,1,0-.1V40.07a.13.13,0,0,1,0-.1.13.13,0,0,1,.09,0,.12.12,0,0,1,.09,0A.14.14,0,0,1,7.72,40.07Z" style="fill: #fff"/>
  </g>
  <g>
    <path d="M7.64,45.13l1.78.55a.13.13,0,0,1,.1.14.12.12,0,0,1-.08.13l-1.81.55h0a.12.12,0,0,1-.09,0,.13.13,0,0,1,0-.09.13.13,0,0,1,.09-.14l.35-.11V45.5l-.38-.12a.08.08,0,0,1,0,0,.15.15,0,0,1,0-.08.14.14,0,0,1,0-.1.13.13,0,0,1,.09,0Zm1.28.69-.75-.24V46Z" style="fill: #fff"/>
    <path d="M7.46,48.39V47.14h.9a.25.25,0,0,1,.19.08.27.27,0,0,1,.08.19v.83h.63v-1a.14.14,0,0,1,0-.1.13.13,0,0,1,.18,0,.14.14,0,0,1,0,.1v1a.28.28,0,0,1-.08.2.24.24,0,0,1-.18.08H8.63a.25.25,0,0,1-.19-.08.28.28,0,0,1-.08-.2v-.83H7.72v1a.14.14,0,0,1,0,.1.12.12,0,0,1-.18,0A.14.14,0,0,1,7.46,48.39Z" style="fill: #fff"/>
  </g>
  <g>
    <path d="M7.64,52.46,9.43,53a.13.13,0,0,1,.1.14.12.12,0,0,1-.08.13l-1.81.55h0a.12.12,0,0,1-.09,0,.13.13,0,0,1,0-.09.13.13,0,0,1,.09-.14l.35-.11v-.63l-.38-.12a.08.08,0,0,1,0,0,.15.15,0,0,1,0-.08.14.14,0,0,1,0-.1.13.13,0,0,1,.09,0Zm1.28.69-.75-.24v.46Z" style="fill: #fff"/>
    <path d="M9.26,55.86H8.77a.36.36,0,0,1-.28-.11.38.38,0,0,1-.26.11H7.72a.24.24,0,0,1-.18-.08.28.28,0,0,1-.08-.2v-1a.14.14,0,0,1,0-.1.13.13,0,0,1,.18,0,.14.14,0,0,1,0,.1v1h.51a.13.13,0,0,0,.09,0,.13.13,0,0,0,0-.1v-.55a.14.14,0,0,1,0-.1.13.13,0,0,1,.19,0,.14.14,0,0,1,0,.1v.56a.14.14,0,0,0,0,.1.12.12,0,0,0,.09,0h.5v-1a.14.14,0,0,1,0-.1.13.13,0,0,1,.18,0,.14.14,0,0,1,0,.1v1a.27.27,0,0,1-.08.19A.25.25,0,0,1,9.26,55.86Z" style="fill: #fff"/>
  </g>
  <g>
    <path d="M7.72,17.25v.42H9.26v-.42a.14.14,0,0,1,0-.1.13.13,0,0,1,.18,0,.14.14,0,0,1,0,.1v.69H7.72v.27h.54a.12.12,0,0,1,.09,0,.13.13,0,0,1,0,.1.14.14,0,0,1,0,.1.12.12,0,0,1-.09,0H7.59a.12.12,0,0,1-.09,0,.14.14,0,0,1,0-.1V17.25a.13.13,0,0,1,0-.1.13.13,0,0,1,.09,0,.12.12,0,0,1,.09,0A.14.14,0,0,1,7.72,17.25Z" style="fill: #fff"/>
    <path d="M7.46,20.39V19.14h.9a.25.25,0,0,1,.19.08.27.27,0,0,1,.08.19v.83h.63v-1a.14.14,0,0,1,0-.1.13.13,0,0,1,.18,0,.14.14,0,0,1,0,.1v1a.28.28,0,0,1-.08.2.24.24,0,0,1-.18.08H8.63a.25.25,0,0,1-.19-.08.28.28,0,0,1-.08-.2v-.83H7.72v1a.14.14,0,0,1,0,.1.12.12,0,0,1-.18,0A.14.14,0,0,1,7.46,20.39Z" style="fill: #fff"/>
  </g>
  <g>
    <path d="M7.72,9.76v.42H9.26V9.76a.14.14,0,0,1,0-.1.13.13,0,0,1,.18,0,.14.14,0,0,1,0,.1v.69H7.72v.27h.54a.12.12,0,0,1,.09,0,.13.13,0,0,1,0,.1.14.14,0,0,1,0,.1.12.12,0,0,1-.09,0H7.59a.12.12,0,0,1-.09,0,.14.14,0,0,1,0-.1V9.76a.13.13,0,0,1,0-.1.13.13,0,0,1,.09,0,.12.12,0,0,1,.09,0A.14.14,0,0,1,7.72,9.76Z" style="fill: #fff"/>
    <path d="M7.72,11.78v.42H9.26v-.42a.14.14,0,0,1,0-.1.13.13,0,0,1,.18,0,.14.14,0,0,1,0,.1v.69H7.72v.27h.54a.12.12,0,0,1,.09,0,.13.13,0,0,1,0,.1.14.14,0,0,1,0,.1.12.12,0,0,1-.09,0H7.59a.12.12,0,0,1-.09,0,.14.14,0,0,1,0-.1V11.78a.13.13,0,0,1,0-.1.13.13,0,0,1,.09,0,.12.12,0,0,1,.09,0A.14.14,0,0,1,7.72,11.78Z" style="fill: #fff"/>
  </g>
  <g>
    <path d="M7.72,2.43v.42H9.26V2.44a.14.14,0,0,1,0-.1.13.13,0,0,1,.18,0,.14.14,0,0,1,0,.1v.69H7.72v.27h.54a.12.12,0,0,1,.09,0,.13.13,0,0,1,0,.1.14.14,0,0,1,0,.1.12.12,0,0,1-.09,0H7.59a.12.12,0,0,1-.09,0,.14.14,0,0,1,0-.1V2.43a.13.13,0,0,1,0-.1.13.13,0,0,1,.09,0,.12.12,0,0,1,.09,0A.14.14,0,0,1,7.72,2.43Z" style="fill: #fff"/>
    <path d="M7.71,4.32H9.27a.24.24,0,0,1,.18.08.26.26,0,0,1,.07.19v.86a.26.26,0,0,1-.07.18.24.24,0,0,1-.18.08H7.71a.24.24,0,0,1-.18-.08.26.26,0,0,1-.07-.19V4.59a.26.26,0,0,1,.07-.19A.24.24,0,0,1,7.71,4.32Zm0,1.11H9.26V4.6H7.72Z" style="fill: #fff"/>
  </g>
  <g>
    <path d="M37.92,73.38v.17a0,0,0,0,1,0,0h-.09a0,0,0,0,1,0,0v-.18a.11.11,0,0,1,0-.07l.07-.05.29-.11.13,0,.12,0,.28.11.07,0a.1.1,0,0,1,0,.06v.19a0,0,0,0,1,0,0h-.09a0,0,0,0,1,0,0v-.18s0,0,0,0l-.27-.11h-.15l-.26.1S37.92,73.35,37.92,73.38Z" style="fill: #474746"/>
    <path d="M37.92,74.56v.15h.76v-.14a0,0,0,0,1,0,0h.09a0,0,0,0,1,0,0v.24h-.89v.09h.31a0,0,0,0,1,0,0,0,0,0,0,1,0,0h-.42a0,0,0,0,1,0,0v-.38a0,0,0,0,1,0,0h.09A0,0,0,0,1,37.92,74.56Z" style="fill: #474746"/>
    <path d="M37.91,75.21h.77a.14.14,0,0,1,.09,0,.08.08,0,0,1,0,.06v.3a.08.08,0,0,1,0,.06.15.15,0,0,1-.09,0h-.77a.15.15,0,0,1-.09,0,.08.08,0,0,1,0-.06V75.3a.08.08,0,0,1,0-.07A.14.14,0,0,1,37.91,75.21Zm0,.38h.76v-.29h-.76Z" style="fill: #474746"/>
    <path d="M37.85,75.91h.93a0,0,0,0,1,0,.07h-.42v.29h.42a0,0,0,0,1,0,0,0,0,0,0,1,0,0h-1a0,0,0,0,1,0,0,0,0,0,0,1,0,0h.43V76h-.43a0,0,0,0,1,0-.07Z" style="fill: #474746"/>
  </g>
  <g>
    <path d="M36.11,73.2v.19h.76v-.18a.06.06,0,0,1,0,0l0,0,0,0a.06.06,0,0,1,0,0v.3h-.89v.12h.27l0,0a.06.06,0,0,1,0,.09l0,0H36l0,0a.06.06,0,0,1,0,0V73.2a.05.05,0,0,1,0,0l0,0,0,0A.06.06,0,0,1,36.11,73.2Z" style="fill: #474746"/>
    <path d="M36,74.43h.27v-.36h.62l0,0a.06.06,0,0,1,0,0,.05.05,0,0,1,0,0l0,0h-.49v.24h.38l0,0a.05.05,0,0,1,0,0,.06.06,0,0,1,0,0l0,0h-.38a.06.06,0,0,1,0,0l0,0,0,0a.06.06,0,0,1,0,0H36l0,0a.06.06,0,0,1,0,0,.06.06,0,0,1,0,0Z" style="fill: #474746"/>
    <path d="M36,75.47v-.55h.44a.13.13,0,0,1,.09,0,.11.11,0,0,1,0,.09v.37h.31V75a.06.06,0,0,1,0,0l0,0,0,0a.06.06,0,0,1,0,0v.43a.12.12,0,0,1,0,.09.13.13,0,0,1-.09,0h-.31a.13.13,0,0,1-.09,0,.12.12,0,0,1,0-.09V75h-.31v.43a.06.06,0,0,1,0,0l0,0,0,0A.06.06,0,0,1,36,75.47Z" style="fill: #474746"/>
    <path d="M36.11,75.81h.77a.12.12,0,0,1,.09,0,.11.11,0,0,1,0,.08v.38a.1.1,0,0,1,0,.08.12.12,0,0,1-.09,0h-.77a.12.12,0,0,1-.09,0,.11.11,0,0,1,0-.08v-.37a.11.11,0,0,1,0-.08A.12.12,0,0,1,36.11,75.81Zm0,.49h.76v-.37h-.76Z" style="fill: #474746"/>
  </g>
  <g>
    <path d="M13.4,69.09v-.17a0,0,0,0,1,0,0h.09a0,0,0,0,1,0,0v.18a.12.12,0,0,1,0,.07l-.07.05-.29.11-.13,0-.12,0-.28-.11-.07,0a.1.1,0,0,1,0-.06v-.19a0,0,0,0,1,0,0h.09a0,0,0,0,1,0,0v.18s0,0,0,0l.27.11h.15l.26-.1S13.4,69.11,13.4,69.09Z" style="fill: #474746"/>
    <path d="M13.4,67.91v-.15h-.76v.14a0,0,0,0,1,0,0h-.09a0,0,0,0,1,0,0v-.24h.89v-.09h-.31a0,0,0,0,1,0,0,0,0,0,0,1,0,0h.42a0,0,0,0,1,0,0v.38a0,0,0,0,1,0,0h-.09A0,0,0,0,1,13.4,67.91Z" style="fill: #474746"/>
    <path d="M13.4,67.26h-.77a.14.14,0,0,1-.09,0,.08.08,0,0,1,0-.06v-.3a.08.08,0,0,1,0-.06.14.14,0,0,1,.09,0h.77a.14.14,0,0,1,.09,0,.08.08,0,0,1,0,.06v.29a.08.08,0,0,1,0,.06A.14.14,0,0,1,13.4,67.26Zm0-.38h-.76v.29h.76Z" style="fill: #474746"/>
    <path d="M13.47,66.56h-.93a0,0,0,0,1,0,0,0,0,0,0,1,0,0H13v-.29h-.42a0,0,0,0,1,0-.07h1a0,0,0,0,1,0,0,0,0,0,0,1,0,0h-.43v.29h.43a0,0,0,0,1,0,0,0,0,0,0,1,0,0Z" style="fill: #474746"/>
  </g>
  <g>
    <path d="M15.21,69.27v-.19h-.76v.18a.06.06,0,0,1,0,0l0,0,0,0a.06.06,0,0,1,0,0V69h.89v-.12h-.27l0,0a.06.06,0,0,1,0,0,.06.06,0,0,1,0,0l0,0h.33l0,0a.06.06,0,0,1,0,0v.49a.05.05,0,0,1,0,0l0,0,0,0A.06.06,0,0,1,15.21,69.27Z" style="fill: #474746"/>
    <path d="M15.27,68H15v.36h-.62l0,0a.06.06,0,0,1,0,0,.05.05,0,0,1,0,0l0,0h.49V68H14.5l0,0a.06.06,0,0,1,0,0,.05.05,0,0,1,0,0l0,0h.38a.06.06,0,0,1,0,0l0,0,0,0a.06.06,0,0,1,0,0h.27l0,0a.06.06,0,0,1,0,.09Z" style="fill: #474746"/>
    <path d="M15.33,67v.55h-.44a.13.13,0,0,1-.09,0,.11.11,0,0,1,0-.09v-.37h-.31v.43a.06.06,0,0,1,0,0l0,0,0,0a.06.06,0,0,1,0,0v-.43a.12.12,0,0,1,0-.09.13.13,0,0,1,.09,0h.31a.13.13,0,0,1,.09,0,.12.12,0,0,1,0,.09v.37h.31V67a.06.06,0,0,1,0,0l0,0,0,0A.06.06,0,0,1,15.33,67Z" style="fill: #474746"/>
    <path d="M15.21,66.66h-.77a.12.12,0,0,1-.09,0,.11.11,0,0,1,0-.08v-.38a.11.11,0,0,1,0-.08.12.12,0,0,1,.09,0h.77a.13.13,0,0,1,.09,0,.11.11,0,0,1,0,.08v.38a.11.11,0,0,1,0,.08A.13.13,0,0,1,15.21,66.66Zm0-.49h-.76v.37h.76Z" style="fill: #474746"/>
  </g>
  <g>
    <path d="M38.78,50.43h.31a.12.12,0,0,1,.09,0,.14.14,0,0,1,0,.1h.38l0,0a.07.07,0,0,1,0,0v.28a.07.07,0,0,1,0,0l0,0h-.38a.14.14,0,0,1,0,.1.12.12,0,0,1-.09,0h-.31a.12.12,0,0,1-.09,0,.14.14,0,0,1,0-.1v-.42a.13.13,0,0,1,0-.1A.12.12,0,0,1,38.78,50.43Zm.31.14h-.31V51h.31Zm.44.14h-.31v.14h.31Z" style="fill: #b0a99b"/>
    <path d="M38.77,51.45h.77a.11.11,0,0,1,.09,0,.13.13,0,0,1,0,.09V52a.13.13,0,0,1,0,.09.11.11,0,0,1-.09,0h-.77a.12.12,0,0,1-.09,0,.13.13,0,0,1,0-.09v-.43a.13.13,0,0,1,0-.09A.12.12,0,0,1,38.77,51.45Zm0,.56h.76v-.42h-.76Z" style="fill: #b0a99b"/>
    <path d="M39.26,53l0,0a.07.07,0,0,1,0,0,.07.07,0,0,1,0,0l0,0h.27v-.21a.07.07,0,0,1,0,0l0,0,0,0a.07.07,0,0,1,0,0V53a.07.07,0,0,1,0,0l0,0Z" style="fill: #b0a99b"/>
    <path d="M38.71,54.52h1V55a.21.21,0,0,1-.06.15.18.18,0,0,1-.14.06h-.07a.18.18,0,0,1-.14-.06A.21.21,0,0,1,39.2,55v-.09l-.45.28h0l0,0a.07.07,0,0,1,0,0,.07.07,0,0,1,0-.06l.52-.32v-.1h-.49l0,0a.07.07,0,0,1,0-.05.07.07,0,0,1,0,0Zm.62.14V55a.07.07,0,0,0,0,0l0,0h.08l0,0a.07.07,0,0,0,0,0v-.35Z" style="fill: #b0a99b"/>
  </g>
  <g>
    <path d="M26.28,70.53H25.22l-.06,0a.06.06,0,0,1,0,0,.06.06,0,0,1,0,0l.05,0h.36L25.16,70a.06.06,0,0,1,0,0,.06.06,0,0,1,0,0l.05,0,.05,0,.48.48.48-.48,0,0,.06,0a.06.06,0,0,1,0,0,.07.07,0,0,1,0,0l-.42.42h.37l.05,0a.06.06,0,0,1,0,.09Z" style="fill: #4e483a"/>
    <path d="M26.2,69.56h-.38a.16.16,0,0,1-.11,0,.12.12,0,0,1,0-.09h-.45l-.05,0a.06.06,0,0,1,0,0V69.1a.06.06,0,0,1,0,0l.05,0h.45a.12.12,0,0,1,0-.09.16.16,0,0,1,.11,0h.38a.16.16,0,0,1,.11,0,.12.12,0,0,1,0,.09v.4a.12.12,0,0,1,0,.09A.17.17,0,0,1,26.2,69.56Zm-.91-.26h.38v-.14h-.38Zm.53.13h.38V69h-.38Z" style="fill: #4e483a"/>
    <path d="M25.29,67.93h.29a.24.24,0,0,1,.16.05.25.25,0,0,1,.16-.05h.3a.16.16,0,0,1,.11,0,.12.12,0,0,1,0,.09v.46a.06.06,0,0,1,0,0l-.05,0-.05,0a.06.06,0,0,1,0,0v-.46h-.3l-.06,0a.06.06,0,0,0,0,0v.26a.06.06,0,0,1,0,0l-.06,0-.05,0a.06.06,0,0,1,0,0v-.27a.06.06,0,0,0,0,0l-.05,0h-.3v.47a.06.06,0,0,1,0,0l-.05,0-.05,0a.06.06,0,0,1,0,0v-.47a.12.12,0,0,1,0-.09A.17.17,0,0,1,25.29,67.93Z" style="fill: #4e483a"/>
    <path d="M25.29,67h.29a.24.24,0,0,1,.16.05A.25.25,0,0,1,25.9,67h.3a.16.16,0,0,1,.11,0,.12.12,0,0,1,0,.09v.46a.06.06,0,0,1,0,0l-.05,0-.05,0a.06.06,0,0,1,0,0V67.1h-.3l-.06,0a.06.06,0,0,0,0,0v.26a.06.06,0,0,1,0,0l-.06,0-.05,0a.06.06,0,0,1,0,0v-.27a.06.06,0,0,0,0,0l-.05,0h-.3v.47a.06.06,0,0,1,0,0l-.05,0-.05,0a.06.06,0,0,1,0,0V67.1a.12.12,0,0,1,0-.09A.17.17,0,0,1,25.29,67Z" style="fill: #4e483a"/>
  </g>
  </g>
  <g id="Connectors">
  <circle cx="7.85" cy="90.03" id="connector14pin" r="2.05" style="fill: none;stroke: #e8e9da;stroke-miterlimit: 10"/>
  <circle cx="15.05" cy="90.03" id="connector15pin" r="2.05" style="fill: none;stroke: #e8e9da;stroke-miterlimit: 10"/>
  <circle cx="22.25" cy="90.03" id="connector16pin" r="2.05" style="fill: none;stroke: #e8e9da;stroke-miterlimit: 10"/>
  <circle cx="29.45" cy="90.03" id="connector17pin" r="2.05" style="fill: none;stroke: #e8e9da;stroke-miterlimit: 10"/>
  <circle cx="36.65" cy="90.03" id="connector18pin" r="2.05" style="fill: none;stroke: #e8e9da;stroke-miterlimit: 10"/>
  <circle cx="43.85" cy="90.03" id="connector19pin" r="2.05" style="fill: none;stroke: #e8e9da;stroke-miterlimit: 10"/>
  <circle cx="12.53" cy="50.79" data-cir-type="female" id="circuitoCon_A4" r="2.05" style="fill: none;stroke: #e8e9da;stroke-miterlimit: 10"/>
  <circle cx="12.53" cy="57.99" data-cir-type="female" id="circuitoCon_A5" r="2.05" style="fill: none;stroke: #e8e9da;stroke-miterlimit: 10"/>
  <circle cx="4.25" cy="82.83" data-cir-color="red" data-cir-type="male" id="circuitoCon_RAW" r="2.05" style="fill: none;stroke: #e8e9da;stroke-miterlimit: 10"/>
  <circle cx="4.25" cy="75.63" data-cir-color="black" data-cir-type="male" id="circuitoCon_GND1" r="2.05" style="fill: none;stroke: #e8e9da;stroke-miterlimit: 10"/>
  <circle cx="4.25" cy="68.43" id="connector27pin" r="2.05" style="fill: none;stroke: #e8e9da;stroke-miterlimit: 10"/>
  <circle cx="4.25" cy="61.23" data-cir-color="darkred" data-cir-type="male" id="circuitoCon_VCC" r="2.05" style="fill: none;stroke: #e8e9da;stroke-miterlimit: 10"/>
  <circle cx="4.25" cy="54.03" data-cir-type="male" id="circuitoCon_A3" r="2.05" style="fill: none;stroke: #e8e9da;stroke-miterlimit: 10"/>
  <circle cx="4.25" cy="46.83" data-cir-type="male" id="circuitoCon_A2" r="2.05" style="fill: none;stroke: #e8e9da;stroke-miterlimit: 10"/>
  <circle cx="4.25" cy="39.63" data-cir-type="male" id="circuitoCon_A1" r="2.05" style="fill: none;stroke: #e8e9da;stroke-miterlimit: 10"/>
  <circle cx="4.25" cy="32.43" data-cir-type="male" id="circuitoCon_A0" r="2.05" style="fill: none;stroke: #e8e9da;stroke-miterlimit: 10"/>
  <circle cx="4.25" cy="25.23" data-cir-type="male" id="circuitoCon_13" r="2.05" style="fill: none;stroke: #e8e9da;stroke-miterlimit: 10"/>
  <circle cx="12.59" cy="28.44" id="connector32pin" r="2.05" style="fill: none;stroke: #e8e9da;stroke-miterlimit: 10"/>
  <circle cx="12.59" cy="21.24" id="connector30pin" r="2.05" style="fill: none;stroke: #e8e9da;stroke-miterlimit: 10"/>
  <circle cx="4.25" cy="18.03" data-cir-type="male" id="circuitoCon_12" r="2.05" style="fill: none;stroke: #e8e9da;stroke-miterlimit: 10"/>
  <circle cx="4.25" cy="10.83" data-cir-type="male" id="circuitoCon_11" r="2.05" style="fill: none;stroke: #e8e9da;stroke-miterlimit: 10"/>
  <circle cx="4.25" cy="3.63" data-cir-type="male" id="circuitoCon_10" r="2.05" style="fill: none;stroke: #e8e9da;stroke-miterlimit: 10"/>
  <circle cx="47.45" cy="3.63" data-cir-type="male" id="circuitoCon_9" r="2.05" style="fill: none;stroke: #e8e9da;stroke-miterlimit: 10"/>
  <circle cx="47.45" cy="10.83" data-cir-type="male" id="circuitoCon_8" r="2.05" style="fill: none;stroke: #e8e9da;stroke-miterlimit: 10"/>
  <circle cx="47.45" cy="18.03" data-cir-type="male" id="circuitoCon_7" r="2.05" style="fill: none;stroke: #e8e9da;stroke-miterlimit: 10"/>
  <circle cx="47.45" cy="25.23" data-cir-type="male" id="circuitoCon_6" r="2.05" style="fill: none;stroke: #e8e9da;stroke-miterlimit: 10"/>
  <circle cx="47.45" cy="32.43" data-cir-type="male" id="circuitoCon_5" r="2.05" style="fill: none;stroke: #e8e9da;stroke-miterlimit: 10"/>
  <circle cx="47.45" cy="39.63" data-cir-type="male" id="circuitoCon_4" r="2.05" style="fill: none;stroke: #e8e9da;stroke-miterlimit: 10"/>
  <circle cx="47.45" cy="46.77" data-cir-type="male" id="circuitoCon_3" r="2.05" style="fill: none;stroke: #e8e9da;stroke-miterlimit: 10"/>
  <circle cx="47.45" cy="54.03" data-cir-type="male" id="circuitoCon_2" r="2.05" style="fill: none;stroke: #e8e9da;stroke-miterlimit: 10"/>
  <circle cx="47.45" cy="61.23" data-cir-color="black" data-cir-type="male" id="circuitoCon_GND" r="2.05" style="fill: none;stroke: #e8e9da;stroke-miterlimit: 10"/>
  <circle cx="47.45" cy="68.43" id="connector46pin" r="2.05" style="fill: none;stroke: #e8e9da;stroke-miterlimit: 10"/>
  <circle cx="47.45" cy="75.63" id="connector47pin" r="2.05" style="fill: none;stroke: #e8e9da;stroke-miterlimit: 10"/>
  <circle cx="47.45" cy="82.83" id="connector48pin" r="2.05" style="fill: none;stroke: #e8e9da;stroke-miterlimit: 10"/>
  <rect data-cir-type="power" height="47.09" id="circuitoCon_FTDI" style="fill: none" transform="translate(-72.25 123.43) rotate(-90)" width="5.13" x="23" y="74.29"/>
  <g data-name="Layer 18" id="Layer_18">
    <polygon points="10.38 86.55 11.81 88.08 11.81 92.32 10.38 93.75 6.15 93.75 4.61 92.32 4.61 88.08 6.15 86.55 10.38 86.55" style="fill: #323232"/>
    <rect height="4.04" style="fill: #b0acb0" width="2.27" x="7.19" y="90.15"/>
    <polygon points="17.58 86.55 19.01 88.08 19.01 92.32 17.58 93.75 13.35 93.75 11.81 92.32 11.81 88.08 13.35 86.55 17.58 86.55" style="fill: #323232"/>
    <rect height="4.04" style="fill: #b0acb0" width="2.27" x="14.39" y="90.15"/>
    <polygon points="24.78 86.55 26.21 88.08 26.21 92.32 24.78 93.75 20.55 93.75 19.01 92.32 19.01 88.08 20.55 86.55 24.78 86.55" style="fill: #323232"/>
    <rect height="4.04" style="fill: #b0acb0" width="2.27" x="21.59" y="90.15"/>
    <polygon points="31.98 86.63 33.41 88.16 33.41 92.4 31.98 93.83 27.75 93.83 26.21 92.4 26.21 88.16 27.75 86.63 31.98 86.63" style="fill: #323232"/>
    <rect height="4.04" style="fill: #b0acb0" width="2.27" x="28.79" y="90.18"/>
    <polygon points="39.18 86.63 40.61 88.16 40.61 92.4 39.18 93.83 34.95 93.83 33.41 92.4 33.41 88.16 34.95 86.63 39.18 86.63" style="fill: #323232"/>
    <rect height="4.04" style="fill: #b0acb0" width="2.27" x="35.99" y="90.18"/>
    <polygon points="46.38 86.63 47.81 88.16 47.81 92.4 46.38 93.83 42.15 93.83 40.61 92.4 40.61 88.16 42.15 86.63 46.38 86.63" style="fill: #323232"/>
    <rect height="4.04" style="fill: #b0acb0" width="2.27" x="43.19" y="90.18"/>
  </g>
</g>
</svg>