<?xml version="1.0" ?><svg height="20.55mm" viewBox="0 0 65.42 58.25" width="23.08mm" xmlns="http://www.w3.org/2000/svg">
  <title>SparkFun Particle Sensor Breakout - MAX30105</title>
  <g data-name="Layer 9" id="Layer_9">
    <circle cx="18.64" cy="9.21" r="0.59" style="fill: none"/>
    <path d="M33.28,36.63V35.44h-.7V36.8h-3l-.44.45H28V35.67H26.37v1.46h-.83s-.59.17-.47-3.33l0-.54h-1v3.59l-.31.26h-1.1V35.67H21.21v1.6H19.92v-4.1h-1v3.61L17.76,37.9v6.5l2.76,6.05,1.74,1.73L24,50.46h3.5l1.81,1.81L31,50.53l5.8-6V37.65l-1.17-1Z" style="fill: none"/>
    <circle cx="29.12" cy="25.32" r="0.59" style="fill: none"/>
    <path d="M33.91,19.29v6.83l-1.59,1.59v4.15l1-.37V29.76c-.08-1.8.68-1.68.83-.55h.69l.15-.74h.6l.69-.7h1.2V29h1.27V27.74h1L40.19,29h.54l.85-1c-.66-2.17-.14-3.28,1.3-3.6V22.81l-3.52-3.52Z" style="fill: none"/>
    <circle cx="29.12" cy="15.71" r="0.59" style="fill: none"/>
    <circle cx="57.96" cy="7.26" r="5.02" style="fill: none"/>
    <circle cx="7.48" cy="50.45" r="5.02" style="fill: none" transform="translate(-1.8 0.3) rotate(-2.05)"/>
    <circle cx="7.48" cy="7.26" r="5.02" style="fill: none"/>
    <circle cx="14.58" cy="26.52" r="0.59" style="fill: none"/>
    <path d="M63.2,11a16,16,0,0,1-1.38,1.63,7.29,7.29,0,0,1-8.72-.51c-1.78-1.31-1.78-4.81-1.9-5.44S50,6.17,50,6.17c-2.39-.89-1.64-2.74-1.11-3.78s-.52-.89-.52-.89H11.43a.47.47,0,0,0,.14.74,9.77,9.77,0,0,1,2.82,5l2.07-2.06h4.87c.17,0,1,1,1,1h2.46V3.37H32.4v.78h.77V3.37h7.37v4h3.31l1.87,1.66a3.8,3.8,0,0,1,1.82-.31c1.28,0,3.09,2.42,3.09,2.42l.34,1s-1,0-.12.12.82.77.82.77v3.39l-.5.5.43.43v3.29l-1.25,1.14a7.41,7.41,0,0,0,.94,3.07c.77,1.05,1,.46,1,.46a2.28,2.28,0,0,1,3.2-.58,2.17,2.17,0,0,1,.42,3l.55.55v4.09l-.42.41.37.38v3.47l-1,1v2.49l-7,6.79v3.61H49l1.89,1.89v3.44l-.5.49a9.86,9.86,0,0,1,2,0c1.86.06,1.39-.45,1.32-.52.1.1,2.65,2.5,0-.16s-2.38-5.23-2.38-5.23-.71,5.07,0-.3,4.75-6,4.75-6c4.85-.78,6.63,2.35,6.63,2.35.64.77,1,.69,1-.38V25.91s-.06-12.48,0-13.64S63.67,10.3,63.2,11Z" style="fill: none"/>
    <circle cx="54.21" cy="26.52" r="0.59" style="fill: none"/>
    <path d="M34.55,12.31v1.34l-.68.67v2.73H40.4l1.46,1.47s.53.22.34-.81h.17v-1.1H42V13l.55-.55h.68V9.79H40.4v4H35.26V11.75Z" style="fill: none"/>
    <circle cx="57.96" cy="50.45" r="5.02" style="fill: none"/>
    <circle cx="43.51" cy="26.52" r="0.59" style="fill: none"/>
    <circle cx="43.51" cy="39.56" r="0.59" style="fill: none"/>
    <path d="M0,0V58.25H65.42V0ZM58,2.24a5,5,0,1,1-5,5A5,5,0,0,1,58,2.24ZM7.48,55.46a5,5,0,1,1,5-5A5,5,0,0,1,7.48,55.46Zm0-43.19a5,5,0,1,1,5-5A5,5,0,0,1,7.48,12.27Zm7.1,14.83a.59.59,0,1,1,.59-.58A.58.58,0,0,1,14.58,27.1ZM18.23,56a2,2,0,1,1,2-2A2,2,0,0,1,18.23,56Zm7.16,0a2,2,0,1,1,2-2A2,2,0,0,1,25.39,56Zm7.32,0a2,2,0,1,1,2-2A2,2,0,0,1,32.71,56Zm4.11-11.48-5.8,6-1.74,1.74-1.81-1.81H24l-1.71,1.72-1.74-1.73L17.76,44.4V37.9l1.12-1.12V33.17h1v4.1h1.29v-1.6h1.47v1.44h1.1l.31-.26V33.26h1l0,.54c-.12,3.5.47,3.33.47,3.33h.83V35.67H28v1.58H29.1l.44-.45h3V35.44h.7v1.19h2.37l1.17,1ZM18.05,9.21a.59.59,0,1,1,.59.58A.58.58,0,0,1,18.05,9.21ZM29.12,24.74a.59.59,0,1,1-.58.58A.58.58,0,0,1,29.12,24.74Zm-.58-9a.59.59,0,1,1,.58.59A.58.58,0,0,1,28.54,15.71ZM39.78,56a2,2,0,1,1,2-2A2,2,0,0,1,39.78,56Zm3.1-31.63c-1.44.32-2,1.43-1.3,3.6l-.85,1h-.54l-.41-1.25h-1V29H37.52V27.77h-1.2l-.69.7H35l-.15.74h-.69c-.15-1.13-.91-1.25-.83.55v1.73l-1,.37V27.71l1.59-1.59V19.29h5.45l3.52,3.52ZM40.4,13.83v-4h2.83v2.7h-.68L42,13v3.57h.37v1.1H42.2c.19,1-.34.81-.34.81L40.4,17.05H33.87V14.32l.68-.67V12.31l.71-.56v2.08Zm3.11,26.31a.59.59,0,1,1,.58-.58A.58.58,0,0,1,43.51,40.14Zm0-13a.59.59,0,1,1,.58-.58A.58.58,0,0,1,43.51,27.1ZM46.9,56a2,2,0,1,1,2-2A2,2,0,0,1,46.9,56ZM58,55.46a5,5,0,1,1,5-5A5,5,0,0,1,58,55.46Zm5.77-43.19c-.06,1.16,0,13.64,0,13.64V46.08c0,1.07-.36,1.15-1,.38,0,0-1.78-3.13-6.63-2.35,0,0-4,.66-4.75,6s0,.3,0,.3S51,53,53.73,55.68s.08.26,0,.16c.07.07.54.58-1.32.52a9.86,9.86,0,0,0-2,0l.5-.49V52.43L49,50.54h-.57V46.93l7-6.79V37.65l1-1V33.15L56,32.77l.42-.41V28.27l-.55-.55a2.17,2.17,0,0,0-.42-3,2.28,2.28,0,0,0-3.2.58s-.23.59-1-.46a7.41,7.41,0,0,1-.94-3.07l1.25-1.14V17.36l-.43-.43.5-.5V13s.09-.64-.82-.77.12-.12.12-.12l-.34-1s-1.81-2.41-3.09-2.42a3.8,3.8,0,0,0-1.82.31L43.85,7.4H40.54v-4H33.17v.78H32.4V3.37H24.83V6.26H22.37s-.87-1-1-1H16.46L14.39,7.28a9.77,9.77,0,0,0-2.82-5,.47.47,0,0,1-.14-.74h36.9s1.06-.15.52.89S47.57,5.28,50,6.17c0,0,1.11-.13,1.24.5s.12,4.13,1.9,5.44a7.29,7.29,0,0,0,8.72.51A16,16,0,0,0,63.2,11C63.67,10.3,63.79,11.12,63.73,12.27ZM53.63,26.52a.59.59,0,1,1,.58.58A.58.58,0,0,1,53.63,26.52Z" style="fill: #8a231e"/>
  </g>
  <g id="holes">
    <path d="M53.7,55.83h0Z" style="fill: #cf2f27"/>
    <path d="M63.2,11a16,16,0,0,1-1.38,1.63,7.29,7.29,0,0,1-8.72-.51c-1.78-1.31-1.78-4.81-1.9-5.44S50,6.17,50,6.17c-2.39-.89-1.64-2.74-1.11-3.78s-.52-.89-.52-.89H11.43a.47.47,0,0,0,.14.74,9.77,9.77,0,0,1,2.82,5l2.07-2.06h4.87c.17,0,1,1,1,1h2.46V3.37H32.4v.78h.77V3.37h7.37v4h3.31l1.87,1.66a3.8,3.8,0,0,1,1.82-.31c1.28,0,3.09,2.42,3.09,2.42l.34,1s-1,0-.12.12.82.77.82.77v3.39l-.5.5.43.43v3.29l-1.25,1.14a7.41,7.41,0,0,0,.94,3.07c.77,1.05,1,.46,1,.46a2.28,2.28,0,0,1,3.2-.58,2.17,2.17,0,0,1,.42,3l.55.55v4.09l-.42.41.37.38v3.47l-1,1v2.49l-7,6.79v3.61H49l1.89,1.89v3.44l-.5.49a9.86,9.86,0,0,1,2,0c1.86.06,1.39-.45,1.32-.52h0c.1.1,2.65,2.5,0-.16s-2.38-5.23-2.38-5.23-.71,5.07,0-.3,4.75-6,4.75-6c4.85-.78,6.63,2.35,6.63,2.35.64.77,1,.69,1-.38V25.91s-.06-12.48,0-13.64S63.67,10.3,63.2,11ZM16.44,4.29A.59.59,0,1,1,17,3.71.59.59,0,0,1,16.44,4.29Zm3.37,0a.59.59,0,1,1,0-1.17.59.59,0,0,1,0,1.17Zm23.82.25A.59.59,0,1,1,44.22,4,.59.59,0,0,1,43.63,4.54Zm3,3.3a.59.59,0,0,1,0-1.17.59.59,0,1,1,0,1.17Z" style="fill: #cf2f27"/>
    <path d="M33.91,19.29v6.83l-1.59,1.59v4.15l1-.37V29.76c-.08-1.8.68-1.68.83-.55h.69l.15-.74h.6l.69-.7h1.2V29h1.27V27.74h1L40.19,29h.54l.85-1c-.66-2.17-.14-3.28,1.3-3.6V22.81l-3.52-3.52ZM36,25.91a.59.59,0,1,1,.58-.59A.58.58,0,0,1,36,25.91Zm0-3.53a.59.59,0,1,1,.58-.59A.59.59,0,0,1,36,22.38Z" style="fill: #cf2f27"/>
    <path d="M34.55,12.31v1.34l-.68.67v2.73H40.4l1.46,1.47s.53.22.34-.81h.17v-1.1H42V13l.55-.55h.68V9.79H40.4v4H35.26V11.75ZM36,14.71a.59.59,0,0,1,.58.59.59.59,0,0,1-1.17,0A.59.59,0,0,1,36,14.71Z" style="fill: #cf2f27"/>
    <path d="M33.28,36.63V35.44h-.7V36.8h-3l-.44.45H28V35.67H26.37v1.46h-.83s-.59.17-.47-3.33l0-.54h-1v3.59l-.31.26h-1.1V35.67H21.21v1.6H19.92v-4.1h-1v3.61L17.76,37.9v6.5l2.76,6.05,1.74,1.73L24,50.46h3.5l1.81,1.81L31,50.53l5.8-6V37.65l-1.17-1Zm-.38,5.6a.59.59,0,1,1,.59-.59A.59.59,0,0,1,32.9,42.23Zm0-3.41a.59.59,0,1,1,.59-.58A.58.58,0,0,1,32.9,38.82Z" style="fill: #cf2f27"/>
  </g>
  <g id="lines">
    <polyline points="15.85 13.65 15.85 7.56 17.04 6.37 20.92 6.37 22.09 7.55 25.39 7.55" style="fill: none;stroke: #cf2f27;stroke-miterlimit: 10;stroke-width: 0.5px"/>
    <line style="fill: none;stroke: #cf2f27;stroke-miterlimit: 10;stroke-width: 0.5px" x1="20.39" x2="25.58" y1="9.21" y2="9.21"/>
    <circle cx="18.89" cy="9.21" r="1.27" style="fill: none;stroke: #cf2f27;stroke-miterlimit: 10;stroke-width: 0.5px"/>
    <circle cx="29.12" cy="15.71" r="0.9" style="fill: none;stroke: #cf2f27;stroke-miterlimit: 10;stroke-width: 0.5px"/>
    <circle cx="29.12" cy="25.29" r="0.9" style="fill: none;stroke: #cf2f27;stroke-miterlimit: 10;stroke-width: 0.5px"/>
    <circle cx="43.51" cy="39.56" r="0.9" style="fill: none;stroke: #cf2f27;stroke-miterlimit: 10;stroke-width: 0.5px"/>
    <circle cx="43.51" cy="26.52" r="0.9" style="fill: none;stroke: #cf2f27;stroke-miterlimit: 10;stroke-width: 0.5px"/>
    <circle cx="54.21" cy="26.52" r="0.9" style="fill: none;stroke: #cf2f27;stroke-miterlimit: 10;stroke-width: 0.5px"/>
    <circle cx="14.58" cy="26.52" r="0.9" style="fill: none;stroke: #cf2f27;stroke-miterlimit: 10;stroke-width: 0.5px"/>
    <polyline points="28.09 12.07 28.09 14.44 28.54 14.89" style="fill: none;stroke: #cf2f27;stroke-linecap: round;stroke-linejoin: round;stroke-width: 0.5px"/>
    <polyline points="29.79 15.02 30.36 14.45 30.36 12.07" style="fill: none;stroke: #cf2f27;stroke-linecap: round;stroke-linejoin: round;stroke-width: 0.5px"/>
    <line style="fill: none;stroke: #cf2f27;stroke-linecap: round;stroke-linejoin: round;stroke-width: 0.5px" x1="20.98" x2="20.98" y1="16.21" y2="18.35"/>
    <line style="fill: none;stroke: #cf2f27;stroke-linecap: round;stroke-linejoin: round;stroke-width: 0.5px" x1="15.75" x2="15.75" y1="15.98" y2="18.58"/>
    <polyline points="21.27 18.96 22.99 18.96 23.73 18.21 36.44 18.21 39.83 18.21 43.78 22.16" style="fill: none;stroke: #cf2f27;stroke-linecap: round;stroke-linejoin: round;stroke-width: 0.5px"/>
    <polyline points="40.19 8.47 43.38 8.47 44.55 9.68 44.55 13.65" style="fill: none;stroke: #cf2f27;stroke-linecap: round;stroke-linejoin: round;stroke-width: 0.5px"/>
    <polyline points="32.53 11.75 32.53 25.32 31.19 26.9 31.19 29.65" style="fill: none;stroke: #cf2f27;stroke-linecap: round;stroke-linejoin: round;stroke-width: 0.5px"/>
    <line style="fill: none;stroke: #cf2f27;stroke-linecap: round;stroke-linejoin: round;stroke-width: 0.5px" x1="18.89" x2="27.96" y1="24.93" y2="24.93"/>
    <polyline points="15.35 26.98 16.25 27.88 16.25 29.29" style="fill: none;stroke: #cf2f27;stroke-miterlimit: 10;stroke-width: 0.5px"/>
    <line style="fill: none;stroke: #cf2f27;stroke-miterlimit: 10;stroke-width: 0.5px" x1="23.01" x2="31.18" y1="30.11" y2="30.11"/>
    <polyline points="16.44 35.93 16.44 45.43 18.23 46.49 18.23 51.27 18.23 51.9" style="fill: none;stroke: #cf2f27;stroke-miterlimit: 10;stroke-width: 0.5px"/>
    <polyline points="37.76 35.73 37.76 44.92 32.58 50.1 32.58 51.71" style="fill: none;stroke: #cf2f27;stroke-miterlimit: 10;stroke-width: 0.5px"/>
    <polyline points="48.76 36.24 48.76 37.65 39.77 46.63 39.77 52.09" style="fill: none;stroke: #cf2f27;stroke-miterlimit: 10;stroke-width: 0.5px"/>
    <polyline points="54 35.93 54 39.71 46.9 46.81 46.9 52.09" style="fill: none;stroke: #cf2f27;stroke-miterlimit: 10;stroke-width: 0.5px"/>
    <line style="fill: none;stroke: #cf2f27;stroke-miterlimit: 10;stroke-width: 0.5px" x1="43.38" x2="43.38" y1="38.58" y2="35.67"/>
    <polyline points="44.09 27.2 48.19 27.2 48.79 27.8 48.79 29.75" style="fill: none;stroke: #cf2f27;stroke-miterlimit: 10;stroke-width: 0.5px"/>
    <polyline points="47.92 24.93 49.76 24.93 51.12 26.29 51.12 33.81 52.85 35.54" style="fill: none;stroke: #cf2f27;stroke-miterlimit: 10;stroke-width: 0.5px"/>
    <path d="M25.44,32.66a.84.84,0,1,1-.84-.84A.83.83,0,0,1,25.44,32.66Z" style="fill: #cf2f27"/>
    <circle cx="19.37" cy="32.66" r="0.84" style="fill: #cf2f27"/>
  </g>
  <g data-name="Layer 25" id="Layer_25">
    <path d="M3.57,25.17a1,1,0,0,0,.74,1.31l.4,0h3.5l.15,0-.14-.12c-.44-.4-.89-.79-1.33-1.2a1,1,0,0,1-.34-.82,2.35,2.35,0,0,0,0-.65A2.51,2.51,0,0,0,3.9,21.8a2,2,0,0,0-1.23.49,3.64,3.64,0,0,0-.28.34h.12c.35,0,.49.2.34.51a1.62,1.62,0,0,1-.38.52.49.49,0,0,1-.84-.29,2.66,2.66,0,0,1,0-.35,1.39,1.39,0,0,0-.24,1.28,1.1,1.1,0,0,0,.82.8.94.94,0,0,0,.74-.21c.17-.13.33-.29.5-.44a.81.81,0,0,1,.45-.25.58.58,0,0,1,.62.52.67.67,0,0,1-.34.78.31.31,0,0,1-.38-.08Z" style="fill: #fff"/>
    <g>
      <path d="M15.72,39.54c-.31.35-.61.7-.92,1a.17.17,0,0,1-.1,0h-5c-.08,0-.12,0-.13-.1,0-.29-.1-.58-.15-.86a.2.2,0,0,0,0-.07h.51l0,0a1.25,1.25,0,0,1-.56-.93,1.71,1.71,0,0,1,.4-1.41,2,2,0,0,1,1.07-.58,2.78,2.78,0,0,1,1.73.16A1.64,1.64,0,0,1,13.33,39a1.33,1.33,0,0,1-.39.49l0,0v0h2.84Zm-4.33-1.89a1.68,1.68,0,0,0-.77.15.84.84,0,0,0-.53.82.82.82,0,0,0,.54.8,1.68,1.68,0,0,0,.62.13,1.75,1.75,0,0,0,.9-.15.89.89,0,0,0,0-1.62A1.82,1.82,0,0,0,11.39,37.65Z" style="fill: #fff"/>
      <path d="M13.36,24.93v1.28s0,.06-.07.08l-1.61,1-.1.06.4.41h1.38v1.1H8.55a.13.13,0,0,1-.14-.08c-.16-.31-.33-.62-.5-.92a.93.93,0,0,1,0-.1h3l-.08-.08-1.3-1.25a.27.27,0,0,1,0-.11c0-.39,0-.77,0-1.15V25.1l1.46,1.5Z" style="fill: #fff"/>
      <path d="M10.59,35v1.09a1.22,1.22,0,0,1-1-.6,1.91,1.91,0,0,1-.28-.93,3.18,3.18,0,0,1,.12-1.34,1,1,0,0,1,.66-.71,1.47,1.47,0,0,1,.36,0h2.14a2.17,2.17,0,0,0,.79-.12v1c0,.06,0,.09-.07.1l-.29.06v0a1.86,1.86,0,0,1,.45,1.49,1.59,1.59,0,0,1-.07.38,1.08,1.08,0,0,1-1.15.79,1,1,0,0,1-1.07-.87c-.08-.34-.11-.69-.17-1,0-.16-.06-.32-.1-.47a.35.35,0,0,0-.31-.28.46.46,0,0,0-.51.24,1.09,1.09,0,0,0,0,.9.51.51,0,0,0,.37.28Zm.85-1.42a1.42,1.42,0,0,1,.1.29c0,.15.05.31.08.46a2.85,2.85,0,0,0,.15.52.48.48,0,0,0,.53.27.45.45,0,0,0,.41-.38,2,2,0,0,0,0-.42.72.72,0,0,0-.67-.74A4.28,4.28,0,0,0,11.44,33.6Z" style="fill: #fff"/>
      <path d="M13.36,16.65v1.08h-4v-1h.54v0l-.06-.05a1.34,1.34,0,0,1-.59-1.08,2.31,2.31,0,0,1,0-.59,1.09,1.09,0,0,1,.94-.9,4.52,4.52,0,0,1,.53-.06h2.57v1.09H10.91a1.36,1.36,0,0,0-.39.08.53.53,0,0,0-.38.48,1.71,1.71,0,0,0,0,.32.69.69,0,0,0,.65.62,3,3,0,0,0,.52,0h2Z" style="fill: #fff"/>
      <path d="M13.36,18.35v1H12.8l0,.05a1.43,1.43,0,0,1,.62,1.41,1.41,1.41,0,0,1-.25.76,1.2,1.2,0,0,1-.82.44,5.09,5.09,0,0,1-.55,0H9.38V21h2.18A3.15,3.15,0,0,0,12,21a.66.66,0,0,0,.61-.81.74.74,0,0,0-.78-.69,3,3,0,0,0-.43,0h-2V18.35Z" style="fill: #fff"/>
      <path d="M10.53,41.16v1a.56.56,0,0,0-.52.62,2.58,2.58,0,0,0,0,.48.31.31,0,0,0,.27.26.31.31,0,0,0,.36-.19,6.21,6.21,0,0,0,.2-.61,5.3,5.3,0,0,1,.31-1.1.94.94,0,0,1,.73-.59,1.24,1.24,0,0,1,1.4.84,3,3,0,0,1,.14,1.39,2.07,2.07,0,0,1-.35,1,1.31,1.31,0,0,1-1,.5v-1l.1,0a.56.56,0,0,0,.45-.33,1.11,1.11,0,0,0,0-.91.59.59,0,0,0-.1-.17.38.38,0,0,0-.63.05,2.62,2.62,0,0,0-.2.53c-.09.32-.15.64-.24,1a1.65,1.65,0,0,1-.16.36.86.86,0,0,1-.92.46,1.09,1.09,0,0,1-1-.79,2.8,2.8,0,0,1,0-1.83A1.21,1.21,0,0,1,10.53,41.16Z" style="fill: #fff"/>
      <path d="M10.11,24.25v1.07L10,25.25c-.19-.2-.38-.4-.58-.59a.18.18,0,0,1-.06-.17v-.24a2.43,2.43,0,0,1-.27,0,1.93,1.93,0,0,1-.42-.05,1,1,0,0,1-.8-.95,6.74,6.74,0,0,1,0-.9h.8v.34a1,1,0,0,0,0,.17.26.26,0,0,0,.24.27,3.14,3.14,0,0,0,.45,0v-.76h.72v.75h3.26v1.09Z" style="fill: #fff"/>
      <path d="M9.38,30.82h.72v0l-.06,0a1.38,1.38,0,0,1-.77-1.29c0-.19,0-.19.2-.19h.85a2.42,2.42,0,0,0,0,.25,2.7,2.7,0,0,0,0,.49.92.92,0,0,0,.79.69,2.74,2.74,0,0,0,.5,0h1.74v1.09H9.66c-.08,0-.1,0-.12-.09,0-.29-.1-.57-.15-.86A.31.31,0,0,0,9.38,30.82Z" style="fill: #fff"/>
    </g>
    <g>
      <path d="M16.77,49.84V48.1a.21.21,0,0,1,.07-.15.22.22,0,0,1,.3,0,.18.18,0,0,1,.07.15v.65h2.53V48.1a.21.21,0,0,1,.07-.15.21.21,0,0,1,.36.15v1.74a.2.2,0,0,1-.06.15.2.2,0,0,1-.3,0,.21.21,0,0,1-.07-.15v-.66H17.21v.66a.22.22,0,0,1-.44,0Z" style="fill: #fff"/>
      <path d="M17,44.72h3.18v.58l-2.64,1.16H20a.21.21,0,0,1,.15.36.18.18,0,0,1-.15.07H16.77v-.57l2.64-1.16H17a.22.22,0,0,1-.15-.38A.2.2,0,0,1,17,44.72Z" style="fill: #fff"/>
      <path d="M17.36,43.72h-.58V41.55h.58a.26.26,0,0,1,.16.07.22.22,0,0,1,0,.3.21.21,0,0,1-.16.07h-.15v.43H20a.21.21,0,0,1,.15.07.2.2,0,0,1,.06.15.25.25,0,0,1-.06.16.2.2,0,0,1-.15.06H17.21v.43h.15a.21.21,0,0,1,.15.07.21.21,0,0,1-.15.36Z" style="fill: #fff"/>
    </g>
    <g>
      <path d="M24.07,48.81v-.72a.2.2,0,0,1,.06-.15.25.25,0,0,1,.16-.06.2.2,0,0,1,.15.06.21.21,0,0,1,.07.15v.68a.23.23,0,0,0,.09.18l.78.6a.37.37,0,0,0,.25.08h1.19a.2.2,0,0,0,.16-.07.2.2,0,0,0,.06-.15v-.87a.2.2,0,0,0-.06-.15.18.18,0,0,0-.15-.07h-.47v.45a.21.21,0,0,1-.21.21.25.25,0,0,1-.16-.06.2.2,0,0,1-.06-.15v-.88h.9a.65.65,0,0,1,.64.65v.87a.62.62,0,0,1-.19.46.58.58,0,0,1-.45.19H25.64a.8.8,0,0,1-.54-.17l-.81-.63a.67.67,0,0,1-.16-.2A.57.57,0,0,1,24.07,48.81Z" style="fill: #fff"/>
      <path d="M24.29,44.72h3.18v.58l-2.64,1.16h2.43a.21.21,0,0,1,.15.36.18.18,0,0,1-.15.07H24.07v-.57l2.64-1.16H24.29a.21.21,0,0,1-.15-.07.18.18,0,0,1-.07-.15.21.21,0,0,1,.22-.22Z" style="fill: #fff"/>
      <path d="M24.07,43.51v-.85a.56.56,0,0,1,.11-.32.64.64,0,0,1,.25-.24l.86-.42a1.07,1.07,0,0,1,.49-.12,1,1,0,0,1,.48.13l.85.42a.67.67,0,0,1,.26.24.59.59,0,0,1,.1.34v.82a.23.23,0,0,1-.06.16.2.2,0,0,1-.15.06.25.25,0,0,1-.16-.06.23.23,0,0,1-.06-.16v-.22H24.51v.22a.21.21,0,0,1-.07.15.2.2,0,0,1-.15.06.25.25,0,0,1-.16-.06A.2.2,0,0,1,24.07,43.51Zm.44-.65H27v-.15a.22.22,0,0,0-.14-.22l-.84-.42a.76.76,0,0,0-.28-.08.63.63,0,0,0-.27.06l-.87.44a.24.24,0,0,0-.13.23Z" style="fill: #fff"/>
    </g>
    <g>
      <path d="M34.23,49.27v-1h-1v1.3H31.27V48.06a.25.25,0,0,1,.06-.16.22.22,0,0,1,.3,0,.26.26,0,0,1,.07.16v1.08h1.05v-.87a.41.41,0,0,1,.12-.3.42.42,0,0,1,.31-.13h1a.44.44,0,0,1,.43.43v1a.74.74,0,0,1-.06.28l-.14.33a.2.2,0,0,1-.2.13.2.2,0,0,1-.15-.06A.18.18,0,0,1,34,49.8a.43.43,0,0,1,0-.14l.12-.29A.19.19,0,0,0,34.23,49.27Z" style="fill: #fff"/>
      <path d="M31.49,44.71h.79l2.23.88a.22.22,0,0,1,0,.42l-2.23.87h-.79a.21.21,0,0,1-.16-.06.2.2,0,0,1-.06-.15.23.23,0,0,1,.06-.16.21.21,0,0,1,.16-.06h.7l1.67-.65-1.67-.66h-.7a.21.21,0,0,1-.16-.06.2.2,0,0,1-.06-.15.25.25,0,0,1,.06-.16A.21.21,0,0,1,31.49,44.71Z" style="fill: #fff"/>
    </g>
    <g>
      <path d="M38.46,49.57V48.45a.6.6,0,0,1,.59-.57.25.25,0,0,1,.16.06.22.22,0,0,1,.06.15.21.21,0,0,1-.05.15l-.19.08a.15.15,0,0,0-.13.16v1.07c0,.05,0,.07.05.07l.07,0,2-1.6a.54.54,0,0,1,.32-.11.43.43,0,0,1,.33.14.4.4,0,0,1,.15.31v1.16a.58.58,0,0,1-.56.57.21.21,0,0,1-.24-.23.21.21,0,0,1,.21-.21.14.14,0,0,0,.11,0,.21.21,0,0,0,0-.12V48.39s0-.07,0-.07l-.07,0-2,1.59a.49.49,0,0,1-.32.12.51.51,0,0,1-.49-.49Z" style="fill: #fff"/>
      <path d="M38.46,46.68v-.85a.62.62,0,0,1,.11-.33.68.68,0,0,1,.25-.23l.86-.42a1,1,0,0,1,.49-.12,1.13,1.13,0,0,1,.48.12l.85.43a.6.6,0,0,1,.26.24.57.57,0,0,1,.1.34v.82a.2.2,0,0,1-.06.15.21.21,0,0,1-.15.07.2.2,0,0,1-.16-.07.2.2,0,0,1-.06-.15v-.22H38.89v.22a.2.2,0,0,1-.06.15.25.25,0,0,1-.16.06.24.24,0,0,1-.15-.06A.2.2,0,0,1,38.46,46.68Zm.43-.65h2.54v-.15a.24.24,0,0,0-.14-.22l-.85-.42a.57.57,0,0,0-.27-.08.6.6,0,0,0-.27.06l-.88.44a.25.25,0,0,0-.13.23Z" style="fill: #fff"/>
      <path d="M41.56,43.71l-2.94-.87a.21.21,0,0,1-.16-.22.19.19,0,0,1,.13-.2l3-.86h.07a.19.19,0,0,1,.15.07.18.18,0,0,1,.06.14.2.2,0,0,1-.16.21l-.58.17v1l.63.18a.15.15,0,0,1,.07.07.19.19,0,0,1,0,.12.23.23,0,0,1-.06.16.25.25,0,0,1-.16.06Zm-2.11-1.08,1.24.37v-.73Z" style="fill: #fff"/>
    </g>
    <g>
      <path d="M45.65,49.57V48.45a.6.6,0,0,1,.59-.57.21.21,0,0,1,.16.06.22.22,0,0,1,.06.15.17.17,0,0,1-.05.15l-.18.08a.16.16,0,0,0-.14.16v1.07c0,.05,0,.07,0,.07a.11.11,0,0,0,.07,0l2-1.6a.56.56,0,0,1,.32-.11.45.45,0,0,1,.34.14.39.39,0,0,1,.14.31v1.16a.54.54,0,0,1-.17.4.57.57,0,0,1-.39.17.21.21,0,0,1-.24-.23.18.18,0,0,1,.07-.15.2.2,0,0,1,.14-.06.16.16,0,0,0,.12,0,.19.19,0,0,0,0-.12V48.39s0-.07,0-.07l-.07,0-2,1.59a.47.47,0,0,1-.66,0A.45.45,0,0,1,45.65,49.57Z" style="fill: #fff"/>
      <path d="M48.62,45.71v-.78a.21.21,0,0,1,.07-.15.2.2,0,0,1,.3,0,.2.2,0,0,1,.06.15v.8a.65.65,0,0,1-.09.32.61.61,0,0,1-.22.23l-1,.5a1.08,1.08,0,0,1-.43.1.78.78,0,0,1-.41-.1l-.95-.5a.71.71,0,0,1-.24-.22.6.6,0,0,1-.1-.3v-.84a.2.2,0,0,1,.07-.16.22.22,0,0,1,.3,0,.2.2,0,0,1,.07.16v.81a.19.19,0,0,0,.12.17l.89.48a.49.49,0,0,0,.25,0,.53.53,0,0,0,.26-.06l.88-.45A.23.23,0,0,0,48.62,45.71Z" style="fill: #fff"/>
      <path d="M49.05,43.72H45.87a.2.2,0,0,1-.15-.06.21.21,0,0,1-.07-.16.21.21,0,0,1,.07-.15.2.2,0,0,1,.15-.06h2.75V41.77a.26.26,0,0,1,.07-.16.22.22,0,0,1,.3,0,.25.25,0,0,1,.06.16Z" style="fill: #fff"/>
    </g>
    <g>
      <path d="M59.31,40.88h-.12l-.66.46h2.71a.21.21,0,0,1,.16.07.2.2,0,0,1,.06.15.22.22,0,0,1-.22.23H57.91v-.58l.8-.55-.8-.57v-.57h3.33a.25.25,0,0,1,.16.06.25.25,0,0,1,.06.17.2.2,0,0,1-.06.15.21.21,0,0,1-.16.07h-2.7l.64.46h.13a.2.2,0,0,1,.15.06.21.21,0,0,1,.07.16.2.2,0,0,1-.07.16A.21.21,0,0,1,59.31,40.88Z" style="fill: #fff"/>
      <path d="M61.15,38.46l-3.07-.91a.21.21,0,0,1-.17-.22c0-.12.05-.19.14-.21l3.12-.9h.07a.25.25,0,0,1,.16.06.22.22,0,0,1,.06.15.2.2,0,0,1-.16.22l-.61.18v1l.65.2a.12.12,0,0,1,.09.06.31.31,0,0,1,0,.13.21.21,0,0,1-.23.23ZM59,37.33l1.29.38V37Z" style="fill: #fff"/>
      <path d="M60.14,34l1.22.72a.2.2,0,0,1,.1.19.2.2,0,0,1-.07.16.18.18,0,0,1-.15.07.22.22,0,0,1-.13,0l-1.42-.84-1.41.82a.26.26,0,0,1-.15,0,.2.2,0,0,1-.15-.06.21.21,0,0,1-.07-.16.2.2,0,0,1,.11-.19L59.23,34,58,33.27a.21.21,0,0,1-.11-.19.25.25,0,0,1,.06-.16.21.21,0,0,1,.16-.07.27.27,0,0,1,.12,0l1.44.85,1.44-.84a.2.2,0,0,1,.11,0,.23.23,0,0,1,.16.06.25.25,0,0,1,.06.16.22.22,0,0,1-.1.2Z" style="fill: #fff"/>
      <path d="M58.36,29.59h.84a.65.65,0,0,1,.48.18.68.68,0,0,1,.45-.18H61a.44.44,0,0,1,.32.13.48.48,0,0,1,.13.32v1.59a.2.2,0,0,1-.07.16.21.21,0,0,1-.16.06.25.25,0,0,1-.16-.06.23.23,0,0,1-.06-.16V30.05h-.88a.25.25,0,0,0-.16.06.21.21,0,0,0-.07.16v.91a.21.21,0,0,1-.22.22.22.22,0,0,1-.23-.22v-.91a.23.23,0,0,0-.06-.16.21.21,0,0,0-.16-.07h-.87v1.61a.18.18,0,0,1-.07.15.19.19,0,0,1-.16.07.24.24,0,0,1-.22-.22V30a.44.44,0,0,1,.13-.32A.48.48,0,0,1,58.36,29.59Z" style="fill: #fff"/>
      <path d="M61,28.56H58.34a.44.44,0,0,1-.44-.44v-1.4a.44.44,0,0,1,.44-.43H61a.43.43,0,0,1,.3.13.42.42,0,0,1,.13.31v1.39a.39.39,0,0,1-.13.31A.43.43,0,0,1,61,28.56Zm0-1.82H58.36v1.37H61Z" style="fill: #fff"/>
      <path d="M61,25v-.69H58.36V25a.2.2,0,0,1-.07.16.21.21,0,0,1-.16.06.2.2,0,0,1-.15-.06.2.2,0,0,1-.07-.16V23.89H61v-.45h-.94a.21.21,0,0,1-.22-.22.22.22,0,0,1,.22-.23h1.16a.24.24,0,0,1,.23.23V25a.2.2,0,0,1-.07.16.22.22,0,0,1-.32,0A.23.23,0,0,1,61,25Z" style="fill: #fff"/>
      <path d="M61,21.94H58.34a.44.44,0,0,1-.44-.43v-1.4A.46.46,0,0,1,58,19.8a.45.45,0,0,1,.31-.12H61a.42.42,0,0,1,.3.12.42.42,0,0,1,.13.31v1.4a.38.38,0,0,1-.13.3A.39.39,0,0,1,61,21.94Zm0-1.82H58.36v1.37H61Z" style="fill: #fff"/>
      <path d="M61,17.8v-1h-1.1v1.36h-2V16.54a.2.2,0,0,1,.07-.16.18.18,0,0,1,.15-.07.24.24,0,0,1,.23.23v1.13h1.1v-.91a.4.4,0,0,1,.13-.31.45.45,0,0,1,.32-.14H61a.44.44,0,0,1,.45.45v1a.72.72,0,0,1-.07.3l-.14.34a.21.21,0,0,1-.21.13.21.21,0,0,1-.16-.06.18.18,0,0,1-.07-.15.34.34,0,0,1,0-.15l.13-.3A.2.2,0,0,0,61,17.8Z" style="fill: #fff"/>
    </g>
    <polygon points="14.96 52.27 16.78 50.45 20.52 50.45 22.25 52.18 23.97 50.46 27.47 50.46 29.28 52.27 31.02 50.53 34.67 50.53 36.41 52.27 38.14 50.55 41.77 50.55 43.47 52.25 45.23 50.48 49.05 50.48 50.85 52.27 50.85 55.83 49.12 57.56 45.44 57.56 43.6 56.17 41.96 57.56 38.15 57.56 36.4 55.98 34.9 57.56 31.06 57.56 29.31 56.07 27.73 57.65 23.79 57.65 22.21 56.07 20.64 57.64 16.92 57.64 14.97 55.7 14.96 52.27" style="fill: none;stroke: #fff;stroke-linecap: round;stroke-linejoin: round;stroke-width: 0.5px"/>
  </g>
  <g data-name="Layer 23" id="Layer_23">
    <rect height="9.33" rx="0.5" ry="0.5" style="fill: #8a6369" width="16.44" x="24.39" y="3.71"/>
    <rect height="8.83" rx="0.5" ry="0.5" style="fill: #2d2627" width="15.56" x="24.83" y="3.96"/>
    <rect height="4.45" style="fill: #463425" width="4.45" x="31.43" y="6.17"/>
    <g>
      <rect height="1.02" style="fill: #b1aeaa" transform="translate(69.58 0.54) rotate(90)" width="1.33" x="33.86" y="34.55"/>
      <rect height="0.73" style="fill: #bcbcbc" transform="translate(68.61 -0.41) rotate(90)" width="0.6" x="34.21" y="33.73"/>
      <rect height="1.02" style="fill: #b1aeaa" transform="translate(67.91 2.22) rotate(90)" width="1.33" x="32.18" y="34.55"/>
      <rect height="0.73" style="fill: #bcbcbc" transform="translate(66.94 1.26) rotate(90)" width="0.6" x="32.54" y="33.73"/>
      <rect height="1.02" style="fill: #b1aeaa" transform="translate(66.25 3.87) rotate(90)" width="1.33" x="30.52" y="34.55"/>
      <rect height="0.73" style="fill: #bcbcbc" transform="translate(65.28 2.92) rotate(90)" width="0.6" x="30.88" y="33.73"/>
      <rect height="1.02" style="fill: #b1aeaa" transform="translate(1.58 60.89) rotate(-90)" width="1.33" x="30.57" y="29.14"/>
      <rect height="0.73" style="fill: #bcbcbc" transform="translate(0.63 61.86) rotate(-90)" width="0.6" x="30.95" y="30.25"/>
      <rect height="1.02" style="fill: #b1aeaa" transform="translate(4.89 64.2) rotate(-90)" width="1.33" x="33.88" y="29.14"/>
      <rect height="0.73" style="fill: #bcbcbc" transform="translate(3.94 65.17) rotate(-90)" width="0.6" x="34.26" y="30.25"/>
      <rect height="4.99" style="fill: #303030" transform="translate(65.12 -0.41) rotate(90)" width="2.88" x="31.32" y="29.86"/>
    </g>
    <g>
      <path d="M31.09,32.77v-1a.17.17,0,0,1,.16-.16h.52a.18.18,0,0,1,.12.05.15.15,0,0,1,0,.11v1a.16.16,0,0,1,0,.12.17.17,0,0,1-.12,0h-.52a.15.15,0,0,1-.11,0A.17.17,0,0,1,31.09,32.77Zm.68,0v-1h-.51v1Z" style="fill: #9c918a"/>
      <path d="M32.32,32.77v-1a.17.17,0,0,1,.16-.16H33a.18.18,0,0,1,.12.05.15.15,0,0,1,0,.11v1a.16.16,0,0,1,0,.12.17.17,0,0,1-.12,0h-.52a.15.15,0,0,1-.11,0A.17.17,0,0,1,32.32,32.77Zm.68,0v-1h-.51v1Z" style="fill: #9c918a"/>
      <path d="M33.63,32.77h.26v-1h-.25l-.06,0a.07.07,0,0,1,0-.12s0,0,.06,0h.42v1.15h.16v-.35a.09.09,0,0,1,0-.06s0,0,.06,0a.07.07,0,0,1,.06,0,.14.14,0,0,1,0,.06v.43a.14.14,0,0,1,0,.06.07.07,0,0,1-.06,0h-.68a.07.07,0,0,1-.06,0,.1.1,0,0,1,0-.12Z" style="fill: #9c918a"/>
    </g>
    <g>
      <path d="M15,19.91h0v.25a.08.08,0,0,0,.08.08h1a.08.08,0,0,0,.09-.08v-.25h.58a.28.28,0,0,0,.28-.27V17.79a.28.28,0,0,0-.28-.27H15a.27.27,0,0,0-.28.27v1.85A.27.27,0,0,0,15,19.91Z" style="fill: #b1aeaa"/>
      <path d="M19.86,19.88h.06v.25a.07.07,0,0,0,.08.08h1a.08.08,0,0,0,.08-.08v-.25h.59a.27.27,0,0,0,.27-.27V17.76a.26.26,0,0,0-.27-.26h-1.8a.26.26,0,0,0-.27.26v1.85A.27.27,0,0,0,19.86,19.88Z" style="fill: #b1aeaa"/>
      <path d="M19.29,23.7h-.06v-.25a.08.08,0,0,0-.09-.08H18.06a.08.08,0,0,0-.09.08v.25h-.65A.28.28,0,0,0,17,24v1.85a.28.28,0,0,0,.29.26h2a.29.29,0,0,0,.3-.26V24A.29.29,0,0,0,19.29,23.7Z" style="fill: #b1aeaa"/>
      <rect height="3.89" rx="0.91" ry="0.91" style="fill: #3a393c" transform="translate(36.61 44.01) rotate(180)" width="7.92" x="14.35" y="20.06"/>
    </g>
    <g>
      <path d="M20.3,21.62v.27s0,0,0,.05a.08.08,0,0,1-.12,0,.08.08,0,0,1,0-.05v-.27a.09.09,0,0,0,0-.06s0,0-.06,0h-.17a.07.07,0,0,0-.06,0,.14.14,0,0,0,0,.06v1a.12.12,0,0,1-.08.08.06.06,0,0,1-.06,0,.09.09,0,0,1,0-.06v-1a.25.25,0,0,1,.08-.18.23.23,0,0,1,.17-.07h.17a.24.24,0,0,1,.25.25Z" style="fill: #9c918a"/>
      <path d="M19.08,21.54h-.26v1h.25a.11.11,0,0,1,.09.09.05.05,0,0,1,0,.05.06.06,0,0,1-.06,0h-.42V21.54h-.16v.35a.05.05,0,0,1,0,.05.06.06,0,0,1-.06,0,.09.09,0,0,1-.06,0,.08.08,0,0,1,0-.05v-.44a.14.14,0,0,1,0-.06l.06,0h.68l.06,0a.14.14,0,0,1,0,.07.08.08,0,0,1,0,.05A.09.09,0,0,1,19.08,21.54Z" style="fill: #9c918a"/>
      <path d="M17.08,22.24v-.06a.09.09,0,0,1,0-.07l.59-.58h-.53s-.05,0-.06,0a.07.07,0,0,1,0-.12.08.08,0,0,1,.06,0h.67l.06,0a.07.07,0,0,1,0,.06v.07a.1.1,0,0,1,0,.08l-.58.56h.5l.06,0a.08.08,0,0,1,0,.07s0,0,0,.05a.09.09,0,0,1-.06,0h-.63a.11.11,0,0,1-.09-.09Z" style="fill: #9c918a"/>
    </g>
    <g>
      <path d="M43.65,19.91h.06v.25a.08.08,0,0,0,.08.08h1a.08.08,0,0,0,.09-.08v-.25h.58a.27.27,0,0,0,.27-.27V17.79a.27.27,0,0,0-.27-.27h-1.8a.27.27,0,0,0-.27.27v1.85A.27.27,0,0,0,43.65,19.91Z" style="fill: #b1aeaa"/>
      <path d="M48.56,19.88h.06v.25a.07.07,0,0,0,.08.08h1a.08.08,0,0,0,.08-.08v-.25h.59a.27.27,0,0,0,.27-.27V17.76a.26.26,0,0,0-.27-.26h-1.8a.26.26,0,0,0-.27.26v1.85A.27.27,0,0,0,48.56,19.88Z" style="fill: #b1aeaa"/>
      <path d="M48,23.7h-.06v-.25a.08.08,0,0,0-.09-.08H46.76a.09.09,0,0,0-.1.08v.25H46a.29.29,0,0,0-.3.27v1.85a.29.29,0,0,0,.3.26h2a.29.29,0,0,0,.3-.26V24A.29.29,0,0,0,48,23.7Z" style="fill: #b1aeaa"/>
      <rect height="3.89" rx="0.91" ry="0.91" style="fill: #3a393c" transform="translate(94.01 44.01) rotate(180)" width="7.92" x="43.04" y="20.06"/>
    </g>
    <g>
      <path d="M49,21.62v.27a.08.08,0,0,1,0,.05.08.08,0,0,1-.12,0s0,0,0-.05v-.27a.09.09,0,0,0,0-.06.07.07,0,0,0-.06,0h-.17a.07.07,0,0,0-.08.08v1a.05.05,0,0,1,0,.05.06.06,0,0,1-.06,0,.09.09,0,0,1-.06,0,.14.14,0,0,1,0-.06v-1a.24.24,0,0,1,.07-.18.27.27,0,0,1,.18-.07h.17a.24.24,0,0,1,.25.25Z" style="fill: #9c918a"/>
      <path d="M47.78,21.54h-.26v1h.25a.11.11,0,0,1,.09.09.05.05,0,0,1,0,.05.06.06,0,0,1-.06,0h-.42V21.54h-.16v.35a.05.05,0,0,1,0,.05.06.06,0,0,1-.06,0,.09.09,0,0,1-.06,0,.08.08,0,0,1,0-.05v-.44a.14.14,0,0,1,0-.06l.06,0h.68l.06,0a.14.14,0,0,1,0,.07.08.08,0,0,1,0,.05Z" style="fill: #9c918a"/>
      <path d="M45.78,22.24v-.06a.09.09,0,0,1,0-.07l.59-.58h-.53s0,0-.06,0a.07.07,0,0,1,0-.12l.06,0h.67l.06,0a.07.07,0,0,1,0,.06v.07a.1.1,0,0,1,0,.08l-.58.56h.5l.06,0a.14.14,0,0,1,0,.07.08.08,0,0,1,0,.05.09.09,0,0,1-.06,0h-.64a.05.05,0,0,1,0,0A.06.06,0,0,1,45.78,22.24Z" style="fill: #9c918a"/>
    </g>
    <g>
      <path d="M23.06,30.64H20.75a1.13,1.13,0,0,1,0-2.22h2.31a1.13,1.13,0,0,1,0,2.22Z" style="fill: #bcbcbc"/>
      <path d="M23.06,36.55H20.75a1.13,1.13,0,0,1,0-2.22h2.31a1.13,1.13,0,0,1,0,2.22Z" style="fill: #bcbcbc"/>
      <rect height="5.92" rx="0.58" ry="0.58" style="fill: #e2e2e2" width="2.54" x="20.63" y="29.53"/>
      <rect height="2.77" style="fill: #b7967a" width="2.54" x="20.63" y="31.04"/>
    </g>
    <g>
      <path d="M28.18,30.64H25.87a1.13,1.13,0,0,1,0-2.22h2.31a1.13,1.13,0,0,1,0,2.22Z" style="fill: #bcbcbc"/>
      <path d="M28.18,36.55H25.87a1.13,1.13,0,0,1,0-2.22h2.31a1.13,1.13,0,0,1,0,2.22Z" style="fill: #bcbcbc"/>
      <rect height="5.92" rx="0.58" ry="0.58" style="fill: #e2e2e2" width="2.54" x="25.76" y="29.53"/>
      <rect height="2.77" style="fill: #b7967a" width="2.54" x="25.76" y="31.04"/>
    </g>
    <g>
      <path d="M39.25,30.64H36.94a1.13,1.13,0,0,1,0-2.22h2.31a1.13,1.13,0,0,1,0,2.22Z" style="fill: #bcbcbc"/>
      <path d="M39.25,36.55H36.94a1.13,1.13,0,0,1,0-2.22h2.31a1.13,1.13,0,0,1,0,2.22Z" style="fill: #bcbcbc"/>
      <rect height="5.92" rx="0.58" ry="0.58" style="fill: #e2e2e2" width="2.54" x="36.82" y="29.53"/>
      <rect height="2.77" style="fill: #b7967a" width="2.54" x="36.82" y="31.04"/>
    </g>
    <g>
      <path d="M44.66,30.64H42.35a1.13,1.13,0,0,1,0-2.22h2.31a1.13,1.13,0,0,1,0,2.22Z" style="fill: #bcbcbc"/>
      <path d="M44.66,36.55H42.35a1.13,1.13,0,0,1,0-2.22h2.31a1.13,1.13,0,0,1,0,2.22Z" style="fill: #bcbcbc"/>
      <rect height="5.92" rx="0.58" ry="0.58" style="fill: #e2e2e2" width="3.86" x="41.58" y="29.53"/>
      <rect height="2.77" style="fill: #b7967a" width="3.86" x="41.58" y="31.04"/>
    </g>
    <g>
      <g>
        <path d="M17.59,30.86H15.28a1.12,1.12,0,0,1,0-2.21h2.31a1.12,1.12,0,0,1,0,2.21Z" style="fill: #bcbcbc"/>
        <path d="M17.59,36.78H15.28a1.13,1.13,0,0,1,0-2.22h2.31a1.13,1.13,0,0,1,0,2.22Z" style="fill: #bcbcbc"/>
        <rect height="5.92" rx="0.58" ry="0.58" style="fill: #e2e2e2" width="2.54" x="15.17" y="29.76"/>
        <rect height="2.77" width="2.54" x="15.17" y="31.27"/>
      </g>
      <g>
        <path d="M16.8,33.41h-.23v.32H16a.08.08,0,0,1,0,0s0,0,0,0l0,0h.41v-.21h-.31l0,0a.05.05,0,0,1,0,0l0,0h.35a.05.05,0,0,1,0,0l0,0,0,0s0,0,0,0h.27a.08.08,0,0,1,0,0s0,0,0,0Z" style="fill: #fff"/>
        <path d="M16.1,33h-.05l0,0a.05.05,0,0,1,0,0v-.49h.33l.05,0,.17.2h.25l0,0a0,0,0,0,1,0,0s0,0,0,0l0,0h-.27a.06.06,0,0,1-.05,0l-.17-.2h-.2v.33s0,0,0,0,0,0,0,0Z" style="fill: #fff"/>
        <path d="M16.85,31.68v.49h-.37a.1.1,0,0,1-.11-.11v-.33h-.26v.39a.05.05,0,0,1,0,0H16s0,0,0,0v-.39a.09.09,0,0,1,0-.07.11.11,0,0,1,.08,0h.26a.11.11,0,0,1,.08,0,.09.09,0,0,1,0,.07v.33h.26v-.38a.05.05,0,0,1,0,0h.08S16.85,31.66,16.85,31.68Z" style="fill: #fff"/>
      </g>
    </g>
    <g>
      <g>
        <path d="M49.91,30.86H47.6a1.12,1.12,0,0,1,0-2.21h2.31a1.12,1.12,0,0,1,0,2.21Z" style="fill: #bcbcbc"/>
        <path d="M49.91,36.78H47.6a1.13,1.13,0,0,1,0-2.22h2.31a1.13,1.13,0,0,1,0,2.22Z" style="fill: #bcbcbc"/>
        <rect height="5.92" rx="0.58" ry="0.58" style="fill: #e2e2e2" width="2.54" x="47.48" y="29.76"/>
        <rect height="2.77" width="2.54" x="47.48" y="31.27"/>
      </g>
      <g>
        <path d="M49.11,33.41h-.22v.32h-.56l0,0a.05.05,0,0,1,0,0l0,0h.41v-.21h-.32l0,0s0,0,0,0a.06.06,0,0,1,0,0h.36s0,0,0,0l0,0,0,0a.05.05,0,0,1,0,0h.26l0,0a.05.05,0,0,1,0,0Z" style="fill: #fff"/>
        <path d="M48.42,33h-.05l0,0s0,0,0,0v-.49h.33l0,0,.17.2h.25l0,0,0,0a.07.07,0,0,1-.06.06h-.27l-.05,0-.17-.2h-.2v.33s0,0,0,0a.05.05,0,0,1,0,0Z" style="fill: #fff"/>
        <path d="M49.17,31.68v.49h-.38a.09.09,0,0,1-.07,0,.11.11,0,0,1,0-.08v-.33h-.27v.39s0,0,0,0h-.08a.05.05,0,0,1,0,0v-.39a.08.08,0,0,1,0-.07.09.09,0,0,1,.07,0h.27a.1.1,0,0,1,.1.1v.33h.27v-.38s0,0,0,0h.08A.05.05,0,0,1,49.17,31.68Z" style="fill: #fff"/>
      </g>
    </g>
    <g>
      <g>
        <path d="M55.37,30.86H53.06a1.12,1.12,0,0,1,0-2.21h2.31a1.12,1.12,0,0,1,0,2.21Z" style="fill: #bcbcbc"/>
        <path d="M55.37,36.78H53.06a1.13,1.13,0,0,1,0-2.22h2.31a1.13,1.13,0,0,1,0,2.22Z" style="fill: #bcbcbc"/>
        <rect height="5.92" rx="0.58" ry="0.58" style="fill: #e2e2e2" width="2.54" x="52.94" y="29.76"/>
        <rect height="2.77" width="2.54" x="52.94" y="31.27"/>
      </g>
      <g>
        <path d="M54.57,33.41h-.22v.32h-.56l0,0a.05.05,0,0,1,0,0l0,0h.41v-.21h-.32l0,0a.05.05,0,0,1,0,0,.08.08,0,0,1,0,0h.36s0,0,0,0l0,0,0,0a.05.05,0,0,1,0,0h.26l0,0a.05.05,0,0,1,0,0Z" style="fill: #fff"/>
        <path d="M53.87,33h0l0,0a.05.05,0,0,1,0,0v-.49h.34l0,0,.17.2h.25l0,0,0,0a.07.07,0,0,1-.06.06H54.3l0,0-.17-.2h-.2v.33s0,0,0,0a.05.05,0,0,1,0,0Z" style="fill: #fff"/>
        <path d="M54.63,31.68v.49h-.38a.12.12,0,0,1-.11-.11v-.33h-.26v.39a.05.05,0,0,1,0,0h-.07a.05.05,0,0,1,0,0v-.39a.09.09,0,0,1,0-.07.11.11,0,0,1,.08,0h.26a.11.11,0,0,1,.08,0,.09.09,0,0,1,0,.07v.33h.27v-.38s0,0,0,0h.08A.05.05,0,0,1,54.63,31.68Z" style="fill: #fff"/>
      </g>
    </g>
    <g>
      <g>
        <path d="M20.16,15.87V13.56a1.12,1.12,0,0,1,2.21,0v2.31a1.12,1.12,0,0,1-2.21,0Z" style="fill: #bcbcbc"/>
        <path d="M14.24,15.87V13.56a1,1,0,0,1,1.11-.94,1,1,0,0,1,1.11.94v2.31a1,1,0,0,1-1.11.94A1,1,0,0,1,14.24,15.87Z" style="fill: #bcbcbc"/>
        <rect height="5.92" rx="0.58" ry="0.58" style="fill: #e2e2e2" transform="translate(33.02 -3.59) rotate(90)" width="2.54" x="17.03" y="11.75"/>
        <rect height="2.77" transform="translate(33.08 -3.65) rotate(90)" width="2.54" x="17.09" y="13.33"/>
      </g>
      <g>
        <path d="M17.61,15.07v-.22h-.32v-.52s0,0,0,0l0,0,0,0a.05.05,0,0,1,0,0v.41h.21v-.32l0,0a.05.05,0,0,1,0,0s0,0,0,0a0,0,0,0,1,0,0v.32h0l0,0a.05.05,0,0,1,0,0l0,0v.22s0,0,0,0l0,0a.07.07,0,0,1-.06-.06Z" style="fill: #fff"/>
        <path d="M18.05,14.37v0a.05.05,0,0,1,0,0l0,0h.49v.33a.08.08,0,0,1,0,.05l-.2.17v.25a.08.08,0,0,1,0,0l0,0,0,0a.05.05,0,0,1,0,0V14.8a.08.08,0,0,1,0-.05l.2-.17v-.2h-.33s0,0-.05,0l0,0A.05.05,0,0,1,18.05,14.37Z" style="fill: #fff"/>
        <path d="M19.34,15.13h-.49v-.38a.12.12,0,0,1,.11-.11h.32v-.26H18.9l0,0a0,0,0,0,1,0,0s0,0,0,0l0,0h.38a.1.1,0,0,1,.08,0,.11.11,0,0,1,0,.08v.26a.11.11,0,0,1,0,.08.1.1,0,0,1-.08,0H19V15h.42a.06.06,0,0,1,0,0s0,0,0,0Z" style="fill: #fff"/>
      </g>
    </g>
    <g>
      <g>
        <path d="M45.16,13.56v2.31a1.13,1.13,0,0,1-2.22,0V13.56a1.13,1.13,0,0,1,2.22,0Z" style="fill: #bcbcbc"/>
        <path d="M51.07,13.56v2.31a1.13,1.13,0,0,1-2.22,0V13.56a1.13,1.13,0,0,1,2.22,0Z" style="fill: #bcbcbc"/>
        <rect height="5.92" rx="0.58" ry="0.58" style="fill: #e2e2e2" transform="translate(32.29 61.72) rotate(-90)" width="2.54" x="45.73" y="11.76"/>
        <rect height="2.77" transform="translate(32.24 61.66) rotate(-90)" width="2.54" x="45.68" y="13.33"/>
      </g>
      <g>
        <path d="M47.7,14.35v.23H48v.52a.08.08,0,0,1,0,0h-.08a.06.06,0,0,1,0,0v-.41H47.7V15s0,0,0,0l0,0,0,0,0,0v-.32l0,0a0,0,0,0,1,0,0s0,0,0,0l0,0v-.23l0,0,0,0,0,0S47.7,14.34,47.7,14.35Z" style="fill: #fff"/>
        <path d="M47.26,15.05v0l0,0h-.52v-.33s0,0,0,0l.19-.17v-.25A.07.07,0,0,1,47,14.3l0,0a0,0,0,0,1,0,0v.28a.06.06,0,0,1,0,0l-.2.16V15h.33a.05.05,0,0,1,.06,0h0A.08.08,0,0,1,47.26,15.05Z" style="fill: #fff"/>
        <path d="M46,14.3h.49v.37a.11.11,0,0,1,0,.08.09.09,0,0,1-.07,0H46v.27h.42a.05.05,0,0,1,0,0l0,0H46a.11.11,0,0,1-.08,0,.09.09,0,0,1,0-.07v-.27a.12.12,0,0,1,.11-.11h.33v-.26H46l0,0s0,0,0,0a0,0,0,0,1,0,0Z" style="fill: #fff"/>
      </g>
    </g>
    <line style="fill: none;stroke: #fff;stroke-linecap: round;stroke-linejoin: round;stroke-width: 0.5px" x1="15.98" x2="15.98" y1="40.61" y2="49.86"/>
    <circle cx="4.07" cy="43.3" r="1.45" style="fill: #fff"/>
    <circle cx="47.01" cy="11.17" r="1.45" style="fill: #fff"/>
    <circle cx="50.63" cy="3.84" r="1.45" style="fill: #fff"/>
    <rect height="1.04" style="fill: #62564e" width="1.65" x="32.88" y="7.71"/>
    <rect height="0.96" style="fill: none;stroke: #dbc088;stroke-miterlimit: 10;stroke-width: 0.25px" width="0.96" x="27.48" y="6.17"/>
    <rect height="0.96" style="fill: #673e36" width="0.96" x="27.48" y="6.17"/>
    <rect height="0.96" style="fill: none;stroke: #dbc088;stroke-miterlimit: 10;stroke-width: 0.25px" width="0.96" x="28.25" y="8.1"/>
    <rect height="0.96" style="fill: #5e554b" width="0.96" x="28.25" y="8.1"/>
    <rect height="0.96" style="fill: none;stroke: #dbc088;stroke-miterlimit: 10;stroke-width: 0.25px" width="0.96" x="27.48" y="9.79"/>
    <rect height="0.96" style="fill: #d4cfb6" width="0.96" x="27.48" y="9.79"/>
    <rect height="0.86" style="fill: #e1c38e" width="0.6" x="27.96" y="7.12"/>
    <rect height="0.73" style="fill: #e1c38e" width="0.39" x="27.35" y="8.95"/>
    <rect height="0.72" style="fill: #e1c38e" width="0.52" x="28.84" y="6.54"/>
    <rect height="0.56" style="fill: #e1c38e" width="0.25" x="31.81" y="9.99"/>
    <rect height="0.56" style="fill: #e1c38e" width="0.25" x="32.4" y="9.99"/>
    <rect height="0.56" style="fill: #e1c38e" width="0.25" x="33.45" y="9.99"/>
    <rect height="0.56" style="fill: #e1c38e" width="0.25" x="35.26" y="6.26"/>
    <rect height="0.56" style="fill: #e1c38e" width="0.25" x="34.87" y="6.26"/>
    <rect height="0.56" style="fill: #e1c38e" width="0.25" x="33.04" y="6.26"/>
    <rect height="0.56" style="fill: #e1c38e" width="0.25" x="32.65" y="6.26"/>
    <rect height="0.56" style="fill: #e1c38e" width="0.25" x="32.28" y="6.26"/>
    <rect height="0.56" style="fill: #e1c38e" width="0.25" x="31.81" y="6.26"/>
    <rect height="0.56" style="fill: #e1c38e" width="0.25" x="34.74" y="9.99"/>
    <rect height="0.56" style="fill: #e1c38e" width="0.25" x="34.99" y="9.99"/>
    <rect height="0.56" style="fill: #e1c38e" width="0.25" x="35.39" y="9.99"/>
    <rect height="4.18" style="fill: none;stroke: #463425;stroke-miterlimit: 10;stroke-width: 0.25px" width="2.96" x="35.88" y="6.31"/>
    <path d="M37.32,4.75H28.09a2.51,2.51,0,0,0-2.51,2.51V9.8a2.51,2.51,0,0,0,2.51,2.51h9.23A2.51,2.51,0,0,0,39.83,9.8V7.26A2.51,2.51,0,0,0,37.32,4.75Zm-7.53,5.76a.82.82,0,0,1-.82.82H27.22a.82.82,0,0,1-.82-.82v-4a.82.82,0,0,1,.82-.82H29a.82.82,0,0,1,.82.82Zm9.31-.29A1.11,1.11,0,0,1,38,11.33H32.18a1.12,1.12,0,0,1-1.12-1.11V6.72A1.12,1.12,0,0,1,32.18,5.6H38A1.11,1.11,0,0,1,39.1,6.72Z" style="fill: #87939f"/>
    <circle cx="41.41" cy="5.29" r="0.59" style="fill: #fff"/>
  </g>
  <g id="Connectors">
    <ellipse cx="18.23" cy="54.08" data-cir-type="male" id="circuitoCon_INT" rx="2.05" ry="1.99" style="fill: none;stroke: #e8e5df;stroke-miterlimit: 10;stroke-width: 1.224px"/>
    <ellipse cx="25.42" cy="54.08" data-cir-type="male" id="circuitoCon_GND" rx="2.05" ry="1.99" style="fill: none;stroke: #e8e5df;stroke-miterlimit: 10;stroke-width: 1.224px"/>
    <ellipse cx="32.62" cy="54.08" data-cir-type="male" id="circuitoCon_5v" rx="2.05" ry="1.99" style="fill: none;stroke: #e8e5df;stroke-miterlimit: 10;stroke-width: 1.224px"/>
    <ellipse cx="47.01" cy="54.08" data-cir-type="male" id="circuitoCon_SCL" rx="2.05" ry="1.99" style="fill: none;stroke: #e8e5df;stroke-miterlimit: 10;stroke-width: 1.224px"/>
    <ellipse cx="39.81" cy="54.08" data-cir-type="male" id="circuitoCon_SDA" rx="2.05" ry="1.99" style="fill: none;stroke: #e8e5df;stroke-miterlimit: 10;stroke-width: 1.224px"/>
  </g>
</svg>