<?xml version="1.0" ?><svg height="24.31mm" viewBox="0 0 50.79 68.92" width="17.92mm" xmlns="http://www.w3.org/2000/svg" xmlns:xlink="http://www.w3.org/1999/xlink">
  <defs>
    <linearGradient gradientUnits="userSpaceOnUse" id="Tin" x1="13.15" x2="17.33" y1="11.54" y2="11.54">
      <stop offset="0.03" stop-color="#a7a9ac"/>
      <stop offset="0.23" stop-color="#b6b8ba"/>
      <stop offset="0.38" stop-color="#c4c6c8"/>
      <stop offset="0.57" stop-color="#b5b7ba"/>
      <stop offset="0.72" stop-color="#a7a9ac"/>
      <stop offset="1" stop-color="#d1d3d4"/>
      <stop offset="1" stop-color="#a7a9ac"/>
    </linearGradient>
    <linearGradient data-name="Tin" id="Tin-2" x1="17.83" x2="42.17" xlink:href="#Tin" y1="45.77" y2="45.77"/>
    <linearGradient data-name="Tin" id="Tin-3" x1="3.82" x2="15.71" xlink:href="#Tin" y1="49.81" y2="49.81"/>
    <linearGradient data-name="Tin" id="Tin-4" x1="15.43" x2="42.87" xlink:href="#Tin" y1="24.67" y2="24.67"/>
    <linearGradient gradientUnits="userSpaceOnUse" id="Lead" x1="4.46" x2="44.74" y1="28.54" y2="28.54">
      <stop offset="0.01" stop-color="#c4c6c8"/>
      <stop offset="0.36" stop-color="#939598"/>
      <stop offset="0.59" stop-color="#a2a4a7"/>
      <stop offset="0.65" stop-color="#a7a9ac"/>
      <stop offset="0.87" stop-color="#a9abae"/>
      <stop offset="1" stop-color="#a7a9ac"/>
      <stop offset="1" stop-color="#d1d3d4"/>
    </linearGradient>
  </defs>
  <title>SparkFun Level Shifting microSD Breakout</title>
  <g data-name="ROUND CIRCLES" id="ROUND_CIRCLES">
    <polygon points="50.42 0 0 0 0 68.38 1.47 68.38 1.47 0.85 47.83 0.85 49.46 0.85 49.46 2.48 49.46 68.38 50.42 68.38 50.42 0" style="fill: #8a231e"/>
    <rect height="0.17" style="fill: #cf2f27" width="47.99" x="1.47" y="68.38"/>
    <path d="M47.83,4.1a1.63,1.63,0,0,1,0-3.25H1.47V68.38h48V2.48A1.62,1.62,0,0,1,47.83,4.1Zm.26,1.06a.7.7,0,0,1,.65.73.69.69,0,0,1-.73.64.68.68,0,0,1-.64-.72A.68.68,0,0,1,48.09,5.16ZM17.57,53.56a.69.69,0,1,1-.68.68A.69.69,0,0,1,17.57,53.56ZM2.73,1.47a.68.68,0,1,1-.68.68A.68.68,0,0,1,2.73,1.47ZM2.36,39a.68.68,0,1,1-.68.68A.67.67,0,0,1,2.36,39ZM3.82,67.06a2,2,0,1,1,2-2A2,2,0,0,1,3.82,67.06ZM5.68,53.12a.68.68,0,1,1,1.36,0,.68.68,0,0,1-1.36,0Zm1.68,8.49A1.42,1.42,0,1,1,8.78,60.2,1.41,1.41,0,0,1,7.36,61.61Zm3.7,5.45a2,2,0,1,1,2-2A2,2,0,0,1,11.06,67.06Zm7.38,0a2,2,0,1,1,2-2A2,2,0,0,1,18.44,67.06Zm4-9a.68.68,0,0,1-.69-.68.69.69,0,1,1,1.37,0A.68.68,0,0,1,22.4,58.05Zm3.05,9a2,2,0,1,1,2-2A2,2,0,0,1,25.45,67.06ZM28,59.59a.69.69,0,1,1,.68-.68A.68.68,0,0,1,28,59.59Zm4.63,7.47a2,2,0,1,1,2-2A2,2,0,0,1,32.65,67.06ZM37,56a.67.67,0,0,1,.68-.68.68.68,0,1,1,0,1.36A.67.67,0,0,1,37,56Zm2.88,11.06a2,2,0,1,1,2-2A2,2,0,0,1,39.84,67.06Zm4.52-15.18a.69.69,0,0,1,.69-.69.69.69,0,1,1-.69.69ZM47,67.06a2,2,0,1,1,2-2A2,2,0,0,1,47,67.06Zm1.7-7.47a.69.69,0,1,1,.69-.68A.69.69,0,0,1,48.67,59.59Z" style="fill: #cf2f27"/>
    <path d="M49.46,2.48V.85H47.83A1.63,1.63,0,0,1,49.46,2.48Z" style="fill: #cf2f27"/>
  </g>
  <g data-name="DRAK RED" id="DRAK_RED">
    <polyline points="20.13 47.96 20.31 51.42 22.21 51.42 22.21 52.56 24.83 55.32 28.7 55.32 36.41 62.95" style="fill: none;stroke: #8a231e;stroke-linecap: round;stroke-linejoin: round;stroke-width: 0.5px"/>
    <polyline points="25.96 49.29 25.96 51.42 23.73 51.42 23.73 52.21 25.28 53.76 29.21 53.76 37.51 62.06" style="fill: none;stroke: #8a231e;stroke-linecap: round;stroke-linejoin: round;stroke-width: 0.5px"/>
    <polyline points="36.41 48.17 36.41 51.46 42.17 51.46 42.17 49.92" style="fill: none;stroke: #8a231e;stroke-linecap: round;stroke-linejoin: round;stroke-width: 0.5px"/>
    <circle cx="6.36" cy="53.12" r="1" style="fill: none;stroke: #8a231e;stroke-linecap: round;stroke-linejoin: round;stroke-width: 0.25px"/>
    <circle cx="7.36" cy="60.2" r="1.65" style="fill: none;stroke: #8a231e;stroke-linecap: round;stroke-linejoin: round;stroke-width: 0.25px"/>
    <circle cx="17.57" cy="54.24" r="0.86" style="fill: none;stroke: #8a231e;stroke-linecap: round;stroke-linejoin: round;stroke-width: 0.25px"/>
    <circle cx="2.36" cy="39.65" r="0.89" style="fill: none;stroke: #8a231e;stroke-linecap: round;stroke-linejoin: round;stroke-width: 0.25px"/>
    <circle cx="37.64" cy="56" r="0.97" style="fill: none;stroke: #8a231e;stroke-linecap: round;stroke-linejoin: round;stroke-width: 0.25px"/>
    <circle cx="45.05" cy="51.88" r="0.85" style="fill: none;stroke: #8a231e;stroke-linecap: round;stroke-linejoin: round;stroke-width: 0.25px"/>
    <circle cx="47.83" cy="2.48" r="1.81" style="fill: none;stroke: #8a231e;stroke-linecap: round;stroke-linejoin: round;stroke-width: 0.25px"/>
    <circle cx="48.05" cy="5.85" r="0.92" style="fill: none;stroke: #8a231e;stroke-linecap: round;stroke-linejoin: round;stroke-width: 0.25px"/>
    <circle cx="2.73" cy="2.15" r="0.87" style="fill: none;stroke: #8a231e;stroke-linecap: round;stroke-linejoin: round;stroke-width: 0.25px"/>
    <polyline points="6.68 5.46 9.15 5.46 9.15 7.23" style="fill: none;stroke: #8a231e;stroke-linecap: round;stroke-linejoin: round;stroke-width: 0.25px"/>
    <polyline points="5.87 5.46 3.9 5.46 3.9 8.38" style="fill: none;stroke: #8a231e;stroke-linecap: round;stroke-linejoin: round;stroke-width: 0.25px"/>
  </g>
  <g data-name="WHITE COLORS" id="WHITE_COLORS">
    <polyline points="50.42 63.25 49.02 61.5 45.25 61.5 43.46 63.25 41.89 61.5 38.17 61.5 36.25 63.08 34.5 61.5 30.88 61.5 29.08 63.08 27.5 61.5 23.75 61.5 21.92 63.25 20.31 61.5 16.54 61.5 14.79 63.25 13.11 61.5 9.38 61.5 7.54 63.08 5.67 61.5 2 61.5 0.54 63.08 0.54 67.06 1.77 68.38" style="fill: none;stroke: #e8e5df;stroke-linecap: round;stroke-linejoin: round;stroke-width: 0.75px"/>
    <polyline points="5.87 68.38 7.54 67.06 9.29 68.54" style="fill: none;stroke: #e8e5df;stroke-linecap: round;stroke-linejoin: round;stroke-width: 0.75px"/>
    <polyline points="13.11 68.38 14.79 67.06 16.54 68.54" style="fill: none;stroke: #e8e5df;stroke-linecap: round;stroke-linejoin: round;stroke-width: 0.75px"/>
    <polyline points="20.31 68.38 21.98 67.06 23.73 68.54" style="fill: none;stroke: #e8e5df;stroke-linecap: round;stroke-linejoin: round;stroke-width: 0.75px"/>
    <polyline points="27.5 68.38 29.17 67.06 30.92 68.54" style="fill: none;stroke: #e8e5df;stroke-linecap: round;stroke-linejoin: round;stroke-width: 0.75px"/>
    <polyline points="34.69 68.38 36.37 67.06 38.12 68.54" style="fill: none;stroke: #e8e5df;stroke-linecap: round;stroke-linejoin: round;stroke-width: 0.75px"/>
    <polyline points="41.89 68.38 43.56 67.06 45.31 68.54" style="fill: none;stroke: #e8e5df;stroke-linecap: round;stroke-linejoin: round;stroke-width: 0.75px"/>
    <line style="fill: none;stroke: #e8e5df;stroke-linecap: round;stroke-linejoin: round;stroke-width: 0.75px" x1="49.02" x2="50.42" y1="68.38" y2="67.28"/>
    <line style="fill: none;stroke: #e8e5df;stroke-linecap: round;stroke-linejoin: round;stroke-width: 0.75px" x1="16.77" x2="40.83" y1="11.23" y2="11.23"/>
    <polyline points="45.33 15.54 45.33 49.92 43.4 49.92" style="fill: none;stroke: #e8e5df;stroke-linecap: round;stroke-linejoin: round;stroke-width: 0.75px"/>
  </g>
  <g id="TEXT">
    <g>
      <path d="M8.08,4.07a.75.75,0,0,1,.14.42.51.51,0,0,1-.53.56H6.77a.52.52,0,0,1-.42-.16.65.65,0,0,1-.2-.46c0-.16.08-.3.22-.3a.23.23,0,0,1,.2.25c0,.15.07.17.18.17h.91s.14,0,.14-.06-.06-.11-.07-.14L6.29,2.14a.68.68,0,0,1-.14-.41.59.59,0,0,1,.22-.48.5.5,0,0,1,.35-.09h.89A.57.57,0,0,1,8,1.32a.79.79,0,0,1,.19.48c0,.16-.06.29-.22.29s-.2-.1-.2-.24-.07-.19-.2-.19H6.71s-.14,0-.14.07,0,.1.06.13Z" style="fill: #fff"/>
      <path d="M10.35,2.83a.24.24,0,0,0-.13,0l-.59.44v1.4c0,.17,0,.33-.2.33s-.21-.16-.21-.33v-3c0-.16,0-.33.21-.33s.2.17.2.33V2.77L10,2.51a.65.65,0,0,1,.37-.16h.26a.47.47,0,0,1,.39.18.81.81,0,0,1,.18.65l0,1.51c0,.17,0,.36-.2.36s-.2-.16-.2-.32l0-1.49c0-.23,0-.41-.23-.41Z" style="fill: #fff"/>
      <path d="M13.44,4.57h.31c.13,0,.27,0,.27.24s-.16.24-.27.24h-1c-.12,0-.27,0-.27-.24s.14-.24.27-.24H13V2.83h-.32c-.12,0-.27,0-.27-.24s.14-.24.27-.24h.43c.23,0,.29,0,.29.34Zm-.6-3.19c0-.17.08-.22.18-.22h.24c.1,0,.18.05.18.22v.23c0,.17-.08.23-.18.23H13c-.1,0-.18-.06-.18-.23Z" style="fill: #fff"/>
      <path d="M15.86,2.83h-.11c-.12,0-.28,0-.28-.24s.15-.24.28-.24h.11V2.29a.93.93,0,0,1,.2-.69.69.69,0,0,1,.62-.24H17c.14,0,.29,0,.29.24s-.13.24-.27.24h-.32c-.27,0-.38.07-.38.42v.09h.35c.14,0,.28,0,.28.24s-.16.24-.28.24h-.35V4.72c0,.17,0,.33-.21.33s-.2-.16-.2-.33Z" style="fill: #fff"/>
      <path d="M19.11,4.15c0,.27,0,.42.26.42h.21c.16,0,.24,0,.28-.21s.1-.19.2-.19a.22.22,0,0,1,.21.24.8.8,0,0,1-.14.4.59.59,0,0,1-.55.24h-.21a.59.59,0,0,1-.52-.24,1,1,0,0,1-.15-.67V2.83h-.13c-.11,0-.27,0-.27-.24s.14-.24.27-.24h.13V1.86c0-.16,0-.33.2-.33s.21.17.21.33v.49h.67c.14,0,.28,0,.28.24s-.16.24-.28.24h-.67Z" style="fill: #fff"/>
      <path d="M22.52,4.57h.3c.13,0,.27,0,.27.24s-.15.24-.27.24h-1c-.11,0-.27,0-.27-.24s.14-.24.27-.24h.32V2.83h-.32c-.11,0-.27,0-.27-.24s.14-.24.27-.24h.43c.23,0,.3,0,.3.34Zm-.61-3.19c0-.17.08-.22.19-.22h.23c.11,0,.19.05.19.22v.23c0,.17-.08.23-.19.23H22.1c-.11,0-.19-.06-.19-.23Z" style="fill: #fff"/>
      <path d="M24.75,3.32v1.4c0,.17,0,.33-.2.33s-.21-.16-.21-.33v-2c0-.18,0-.36.21-.36s.2.18.2.35v.06h0l.32-.26a.62.62,0,0,1,.35-.16h.3a.44.44,0,0,1,.37.18.81.81,0,0,1,.18.65l.05,1.51c0,.17,0,.36-.2.36s-.2-.16-.2-.32l0-1.49c0-.29,0-.41-.28-.41h-.13a.24.24,0,0,0-.13,0Z" style="fill: #fff"/>
      <path d="M27.37,3.25a.74.74,0,0,1,.14-.51l.29-.27a.33.33,0,0,1,.25-.12h.39c.11,0,.24.1.4.24l.1.1V2.63c0-.15.06-.28.2-.28s.2.18.2.34V5c0,.43,0,.52-.2.69L29,5.87a.6.6,0,0,1-.51.2h-.66c-.12,0-.28,0-.28-.24s.14-.24.28-.24h.74a.27.27,0,0,0,.2-.11l.1-.11a.34.34,0,0,0,.06-.2V4.51l-.09.1c-.09.11-.21.24-.33.24h-.47a.37.37,0,0,1-.3-.15l-.26-.27A.62.62,0,0,1,27.37,4Zm.4.66a.37.37,0,0,0,.05.25l.17.16a.17.17,0,0,0,.12,0h.29c.05,0,.11,0,.18-.13l.31-.31a.23.23,0,0,0,.05-.16V3.42a.25.25,0,0,0-.05-.16L28.58,3c-.07-.08-.13-.13-.18-.13h-.29a.17.17,0,0,0-.12,0L27.82,3c-.05,0-.05.15-.05.25Z" style="fill: #fff"/>
    </g>
    <g>
      <path d="M36.67,3.31V3c0-.17,0-.34.22-.34s.22.17.22.34v.2a.64.64,0,0,1-.06.31L36,6.25c-.09.23-.15.25-.35.25h-.33c-.13,0-.3,0-.3-.24s.15-.25.3-.25h.3l.32-.75h0c-.18,0-.19-.1-.26-.27l-.54-1.33a1,1,0,0,1-.1-.41V3c0-.17,0-.34.21-.34s.22.17.22.34v.28L36,4.76h.1Z" style="fill: #fff"/>
      <path d="M40.29,4.45a.65.65,0,0,1,.16.43.54.54,0,0,1-.57.58h-1a.63.63,0,0,1-.46-.17.68.68,0,0,1-.21-.47c0-.17.08-.31.24-.31a.24.24,0,0,1,.22.26c0,.15.07.17.2.17h1S40,5,40,4.88s-.07-.12-.09-.15L38.35,2.47a.64.64,0,0,1-.15-.42.6.6,0,0,1,.24-.49.57.57,0,0,1,.38-.09h1a.59.59,0,0,1,.45.17.69.69,0,0,1,.21.48c0,.17-.07.3-.23.3A.22.22,0,0,1,40,2.18c0-.17-.08-.2-.22-.2h-1c-.05,0-.15,0-.15.07s.05.11.06.14Z" style="fill: #fff"/>
      <path d="M41.94,2h-.17c-.15,0-.28-.06-.28-.26a.23.23,0,0,1,.26-.25h.76A.68.68,0,0,1,43.2,2l.41.9a1.36,1.36,0,0,1,0,1.16L43.19,5a.68.68,0,0,1-.72.49h-.75a.23.23,0,0,1-.23-.26.23.23,0,0,1,.23-.26h.22Zm.45,3h.09c.19,0,.24,0,.32-.21l.4-.91a.82.82,0,0,0,.09-.34.89.89,0,0,0-.12-.42l-.38-.86C42.7,2,42.66,2,42.45,2h-.06Z" style="fill: #fff"/>
    </g>
    <g>
      <path d="M26.19,59.46a.52.52,0,0,1,.27-.1.33.33,0,0,1,.35.36v.61a.36.36,0,0,1-.1.28.39.39,0,0,1-.29.13c-.1,0-.19-.05-.19-.14s.07-.13.16-.13.11,0,.11-.13v-.6s0-.1,0-.1-.07,0-.09.06L25,60.65a.39.39,0,0,1-.26.09.37.37,0,0,1-.3-.14.4.4,0,0,1-.05-.24v-.59a.35.35,0,0,1,.1-.27.43.43,0,0,1,.3-.14c.1,0,.18,0,.18.15a.13.13,0,0,1-.15.13c-.1,0-.12,0-.12.14v.59s0,.1,0,.1a.16.16,0,0,0,.09,0Z" style="fill: #fff"/>
      <path d="M26.81,58a.41.41,0,0,1-.3.42l-.58.25a.76.76,0,0,1-.33.08.69.69,0,0,1-.35-.08l-.58-.26a.41.41,0,0,1-.3-.43v-.47a.13.13,0,0,1,.15-.14.14.14,0,0,1,.16.14V58c0,.12,0,.14.13.19l.55.24a.48.48,0,0,0,.24.06.51.51,0,0,0,.21-.06l.55-.24c.13,0,.14-.08.14-.21v-.45a.13.13,0,0,1,.15-.14.14.14,0,0,1,.16.14Z" style="fill: #fff"/>
      <path d="M24.52,56.71c-.1,0-.15,0-.15-.14s.05-.13.15-.13h.72l-.81-.86a.17.17,0,0,1-.06-.11.15.15,0,0,1,.16-.14.21.21,0,0,1,.13.07l.93,1,.92-1a.23.23,0,0,1,.14-.07.15.15,0,0,1,.16.14c0,.06-.06.1-.09.15l-.79.82h.72c.1,0,.16,0,.16.13s-.06.14-.16.14Z" style="fill: #fff"/>
    </g>
    <g>
      <path d="M3.53,59.64H3c-.1,0-.15,0-.15-.14s0-.14.15-.14h.5l.12,0,1.53.54c.08,0,.14,0,.14.14s-.06.11-.14.14l-1.53.53H3c-.1,0-.15,0-.15-.13s0-.14.15-.14h.51l1.2-.41Z" style="fill: #fff"/>
      <path d="M5.31,58a.41.41,0,0,1-.3.42l-.58.25a.76.76,0,0,1-.33.08.69.69,0,0,1-.35-.08l-.58-.26a.41.41,0,0,1-.3-.43v-.47A.13.13,0,0,1,3,57.35a.14.14,0,0,1,.16.14V58c0,.12,0,.14.13.19l.55.24a.48.48,0,0,0,.24.06.51.51,0,0,0,.21-.06l.55-.24c.13,0,.14-.08.14-.21v-.45a.13.13,0,0,1,.15-.14.14.14,0,0,1,.16.14Z" style="fill: #fff"/>
      <path d="M5.31,56a.41.41,0,0,1-.3.42l-.58.26a.75.75,0,0,1-.33.07.81.81,0,0,1-.35-.07l-.58-.26a.42.42,0,0,1-.3-.43v-.48A.13.13,0,0,1,3,55.33a.14.14,0,0,1,.16.14v.47c0,.12,0,.14.13.19l.55.25a.61.61,0,0,0,.24.06.51.51,0,0,0,.21-.06l.55-.24c.13-.06.14-.08.14-.21v-.46a.13.13,0,0,1,.15-.14.14.14,0,0,1,.16.14Z" style="fill: #fff"/>
    </g>
    <g>
      <path d="M47.64,59.92a.16.16,0,0,1-.32,0v-.56h.62a.44.44,0,0,1,.49.45v.48a.38.38,0,0,1-.12.32.46.46,0,0,1-.39.13h-.78a.67.67,0,0,1-.46-.14l-.48-.33a.41.41,0,0,1-.21-.39V59.5c0-.07,0-.14.16-.14a.13.13,0,0,1,.15.14v.34c0,.15,0,.14.13.23l.44.31a.63.63,0,0,0,.41.09h.61c.18,0,.23,0,.23-.2v-.44c0-.1,0-.19-.16-.19h-.32Z" style="fill: #fff"/>
      <path d="M46.15,57.63c-.1,0-.16,0-.16-.14s.06-.14.16-.14h2.29v.37l-1.89.72h1.73c.1,0,.15,0,.15.14s0,.14-.15.14H46v-.37l1.91-.73H46.15Z" style="fill: #fff"/>
      <path d="M46.3,56.44v.1c0,.1,0,.17-.15.17a.14.14,0,0,1-.16-.16v-.46a.43.43,0,0,1,.31-.43l.56-.24a.77.77,0,0,1,.36-.09.86.86,0,0,1,.35.09l.57.25a.42.42,0,0,1,.29.44v.46c0,.08,0,.14-.15.14s-.16-.06-.16-.14v-.13Zm1.82-.28v0c0-.12,0-.15-.13-.2l-.56-.24a.51.51,0,0,0-.21-.06.72.72,0,0,0-.25.07l-.53.24c-.14,0-.14.08-.14.21v0Z" style="fill: #fff"/>
    </g>
    <g>
      <path d="M12.5,60a.43.43,0,0,1-.3.42l-.59.26a.7.7,0,0,1-.33.07.8.8,0,0,1-.34-.07l-.59-.26a.42.42,0,0,1-.3-.43V59.5a.14.14,0,0,1,.16-.14.15.15,0,0,1,.16.14V60c0,.12,0,.14.13.19l.55.25a.6.6,0,0,0,.23.06.51.51,0,0,0,.22-.06l.55-.24c.12-.06.13-.08.13-.21V59.5a.14.14,0,0,1,.16-.14.15.15,0,0,1,.16.14Z" style="fill: #fff"/>
      <path d="M11.88,57.45a.42.42,0,0,1,.26-.1.33.33,0,0,1,.36.35v.62a.39.39,0,0,1-.1.28.44.44,0,0,1-.3.13c-.1,0-.18,0-.18-.15s.07-.13.16-.13.1-.05.1-.12v-.61s0-.09,0-.09-.08,0-.1,0l-1.38,1a.41.41,0,0,1-.26.09.34.34,0,0,1-.3-.15.32.32,0,0,1-.06-.23v-.59a.37.37,0,0,1,.11-.28.43.43,0,0,1,.29-.13c.11,0,.19,0,.19.14a.13.13,0,0,1-.15.14c-.11,0-.12,0-.12.13v.6s0,.09,0,.09a.25.25,0,0,0,.09,0Z" style="fill: #fff"/>
    </g>
    <g>
      <path d="M17.3,60.47v.1c0,.1,0,.17-.15.17a.14.14,0,0,1-.16-.16v-.46a.41.41,0,0,1,.31-.42l.56-.25a.77.77,0,0,1,.36-.09.86.86,0,0,1,.35.09l.57.25a.43.43,0,0,1,.3.44v.47c0,.07-.05.13-.16.13s-.16-.06-.16-.13v-.14Zm1.82-.28v0c0-.12,0-.15-.13-.2l-.56-.24a.51.51,0,0,0-.2-.06.71.71,0,0,0-.26.07l-.53.24c-.14,0-.14.08-.14.21v0Z" style="fill: #fff"/>
      <path d="M19.12,57.9v-.41c0-.07,0-.14.16-.14a.14.14,0,0,1,.16.14v1.1a.14.14,0,0,1-.16.14c-.12,0-.16-.07-.16-.14v-.41H17.3v.41a.13.13,0,0,1-.15.14c-.12,0-.16-.07-.16-.14v-1.1c0-.07,0-.14.16-.14a.13.13,0,0,1,.15.14v.41Z" style="fill: #fff"/>
    </g>
    <g>
      <path d="M31.74,60.47v.1c0,.1,0,.17-.16.17s-.15-.07-.15-.16v-.46a.41.41,0,0,1,.31-.42l.55-.25a.78.78,0,0,1,.37-.09.86.86,0,0,1,.35.09l.57.25a.42.42,0,0,1,.29.44v.47c0,.07,0,.13-.15.13s-.16-.06-.16-.13v-.14Zm1.82-.28v0c0-.12,0-.15-.13-.2l-.56-.24a.56.56,0,0,0-.21-.06.72.72,0,0,0-.25.07l-.54.24c-.13,0-.13.08-.13.21v0Z" style="fill: #fff"/>
      <path d="M32.31,57.42a.81.81,0,0,1,.35-.07.92.92,0,0,1,.37.09l.58.26a.35.35,0,0,1,0,.68l-.58.26a.92.92,0,0,1-.37.09.81.81,0,0,1-.35-.07l-.62-.28a.35.35,0,0,1,0-.68Zm-.47.52c-.05,0-.1,0-.1.1s.05.07.1.09l.57.26a.54.54,0,0,0,.25.06.5.5,0,0,0,.21-.05l.59-.27s.1,0,.1-.09-.05-.08-.1-.1l-.59-.26a.5.5,0,0,0-.21,0,.54.54,0,0,0-.25.06Z" style="fill: #fff"/>
    </g>
    <g>
      <path d="M41.19,60a.43.43,0,0,1-.3.42l-.59.26a.72.72,0,0,1-.33.07.84.84,0,0,1-.35-.07L39,60.41a.41.41,0,0,1-.3-.43V59.5a.14.14,0,0,1,.16-.14.14.14,0,0,1,.15.14V60c0,.12,0,.14.14.19l.54.25a.65.65,0,0,0,.24.06.55.55,0,0,0,.22-.06l.54-.24c.13-.06.14-.08.14-.21V59.5a.14.14,0,0,1,.16-.14.15.15,0,0,1,.16.14Z" style="fill: #fff"/>
      <path d="M39.62,57.42a.87.87,0,0,1,.35-.07,1,1,0,0,1,.38.09l.57.26a.35.35,0,0,1,0,.68l-.57.26a1,1,0,0,1-.38.09.87.87,0,0,1-.35-.07L39,58.38a.35.35,0,0,1,0-.68Zm-.47.52s-.1,0-.1.1.05.07.1.09l.57.26a.54.54,0,0,0,.25.06.5.5,0,0,0,.21-.05l.6-.27s.09,0,.09-.09,0-.08-.09-.1l-.6-.26a.5.5,0,0,0-.21,0,.54.54,0,0,0-.25.06Z" style="fill: #fff"/>
    </g>
  </g>
  <g id="CONECTORS">
    <rect height="34.61" style="fill: #2f3036" transform="translate(-2.17 1.01) rotate(-4.45)" width="9.06" x="7.37" y="11.15"/>
    <rect height="5.43" style="fill: #f3f0ef" width="4.11" x="41.64" y="8.73"/>
    <rect height="5.43" style="fill: #f3f0ef" width="4.11" x="4.46" y="6.02"/>
    <rect height="2.72" style="fill: #f3f0ef" width="4.11" x="20.76" y="48.17"/>
    <rect height="2.72" style="fill: #f3f0ef" width="4.11" x="37.01" y="48.17"/>
    <rect height="5.43" rx="1.9" ry="1.9" style="fill: #f3f0ef" width="4.11" x="9.15" y="6.02"/>
    <rect height="9.25" style="fill: url(#Tin)" width="4.19" x="13.15" y="6.92"/>
    <circle cx="19.44" cy="24.07" r="1.47" style="fill: #4f4f54"/>
    <polygon points="22.79 51.35 22.82 50.51 21.33 50.42 21.33 51.19 22.79 51.35" style="fill: none"/>
    <polygon points="39.05 50.95 39.06 50.6 37.6 50.6 37.6 50.79 39.05 50.95" style="fill: none"/>
    <polygon points="22.82 50.51 22.79 51.35 21.33 51.19 21.33 50.42 19.35 50.3 19.21 51.88 24.58 51.47 24.6 50.6 24.29 50.6 22.82 50.51" style="fill: none"/>
    <polygon points="39.06 50.6 39.05 50.95 37.6 50.79 37.6 50.6 35.55 50.6 35.47 51.46 40.85 51.06 40.86 50.6 40.67 50.6 39.06 50.6" style="fill: none"/>
    <path d="M17.83,41.73v8.08H42.17V41.73Zm5.42,4.42a1.67,1.67,0,0,1-2.34,0,1.65,1.65,0,0,1,0-2.34,1.65,1.65,0,0,1,2.34,2.34Zm16.24,0a1.65,1.65,0,1,1,0-2.34A1.65,1.65,0,0,1,39.49,46.15Z" style="fill: url(#Tin-2)"/>
    <rect height="1.7" style="fill: url(#Tin-3)" width="11.89" x="3.82" y="48.96"/>
    <path d="M16.87,21.54h2l.25,1.75a1.11,1.11,0,0,0,.41,2.16,1.13,1.13,0,0,0,.31-2.13V21.7l.63.08.12,1.06h3.87l.27-1.1,1,.08c0,.46.5.44.48,0h3l13.65.29v4.71l-25.27,1-2.17-1.41Z" style="fill: url(#Tin-4)"/>
    <g>
      <rect height="4.35" style="fill: #6b5d5f" width="2.44" x="18.36" y="17.52"/>
      <rect height="6.05" style="fill: #4f4f54" width="0.83" x="19.17" y="17.27"/>
      <circle cx="19.58" cy="21.18" r="0.7" style="fill: #f3f4f3"/>
      <rect height="4.35" style="fill: #6b5d5f" width="2.44" x="21.55" y="18.58"/>
      <rect height="6.05" style="fill: #bebab9" width="0.83" x="22.35" y="18.33"/>
      <circle cx="22.77" cy="22.24" r="0.7" style="fill: #f3f4f3"/>
      <rect height="4.35" style="fill: #6b5d5f" width="2.44" x="24.65" y="17.52"/>
      <rect height="6.05" style="fill: #bebab9" width="0.83" x="25.45" y="17.27"/>
      <circle cx="25.87" cy="21.18" r="0.7" style="fill: #f3f4f3"/>
      <rect height="4.35" style="fill: #6b5d5f" width="2.44" x="30.9" y="17.52"/>
      <rect height="6.05" style="fill: #bebab9" width="0.83" x="31.7" y="17.27"/>
      <circle cx="32.04" cy="20.48" r="0.7" style="fill: #f3f4f3"/>
      <rect height="4.35" style="fill: #6b5d5f" width="2.44" x="34.03" y="17.52"/>
      <rect height="6.05" style="fill: #bebab9" width="0.83" x="34.83" y="17.27"/>
      <circle cx="35.17" cy="20.48" r="0.7" style="fill: #f3f4f3"/>
      <rect height="4.35" style="fill: #6b5d5f" width="2.44" x="37.03" y="17.52"/>
      <rect height="6.05" style="fill: #bebab9" width="0.83" x="37.83" y="17.27"/>
      <circle cx="38.17" cy="20.48" r="0.7" style="fill: #f3f4f3"/>
      <g>
        <rect height="4.35" style="fill: #6b5d5f" width="2.44" x="40.21" y="17.52"/>
        <rect height="6.05" style="fill: #bebab9" width="0.83" x="41.02" y="17.27"/>
        <circle cx="41.35" cy="20.48" r="0.7" style="fill: #f3f4f3"/>
      </g>
    </g>
    <circle cx="26.29" cy="24.39" r="1.54" style="fill: #2f2a2d"/>
    <rect height="1.81" style="fill: #a6b1bf" width="4.19" x="13.15" y="6.92"/>
    <circle cx="6.68" cy="8.39" r="1.23" style="fill: #a49695"/>
    <circle cx="42.87" cy="11.54" r="1.23" style="fill: #a49695"/>
    <path d="M41,11.77,39.18,15H37.66l-.61.67h-3l-.52-.65L22,14.77l-.62.62H18.72l-.86-.62H16.12L12.78,7.33l-1.16-.71H5.33L5.2,11.77h0L4.76,28,4.55,40.59l-.08,6.89c0,.46.09.65.66.6H6.59c.35,0,.61.14.65.52l0,.83a.58.58,0,0,0,.47.68H11c.71,0,1.09-.12,1.09-.7l-.15-1.54c0-1.58,1.05-1.21,1.14-.06h2.08c.07-1.4,1.27-1.17,1.12.21L16,50l3.5.12h.14l.09-1V34.46c0-2.79,1.06-2.83,1.06-.2l.38,7.08.46,2.72v6.21l1.48.09L23.36,44l.34-2.45L24,34.26c-.07-2.18,1.12-2.22,1.19,0l-.32,16.25h11L36,48.82V34.42c0-2.73,1.07-2.78,1.07-.2l.37,6.92.46,2.67v6.65h1.47l.28-6.74.33-2.4.31-7.1c-.07-2.13,1.12-2.18,1.19,0l-.32,16.29H43a2.22,2.22,0,0,1,1.07-1.82l.59-33.87h0l.07-4.25C43.65,9.25,42.24,9.64,41,11.77ZM9.43,13.68c0-1.5,3-1.5,3,0l-.08,2.8.41,1.37L12.53,28.1l-.71.44-2.2-.23.08-2L11,24.85V19.1l-1.52-3Zm5.89,26.5v4c0,1.83-2.29,1.83-2.29,0l0-2.88,1.5-4.25c.18-.92.18-1.68-.75-1.71l-3,0c-.57.07-.74.51-.71,1.13L11.1,41v3.58a1,1,0,1,1-2.07,0l.17-4.17-.92-3.58V34.52A1.36,1.36,0,0,1,9.43,33h5.85a1.76,1.76,0,0,1,1.17,1.75v2.08ZM29.08,24.51a1.25,1.25,0,0,1-1.25,1.26H18.31a1.25,1.25,0,0,1-1.26-1.26v-6.4a1.25,1.25,0,0,1,1.26-1.26h9.52a1.25,1.25,0,0,1,1.25,1.26ZM42.4,25a1.26,1.26,0,0,1-1.26,1.26H31.62A1.25,1.25,0,0,1,30.37,25v-6.4a1.25,1.25,0,0,1,1.25-1.26h9.52a1.26,1.26,0,0,1,1.26,1.26Z" style="fill: url(#Lead)"/>
  </g>
  <g id="Connectors">
    <ellipse cx="39.84" cy="65.07" data-cir-type="male" id="circuitoCon_CO" rx="2.05" ry="1.99" style="fill: none;stroke: #e8e5df;stroke-miterlimit: 10;stroke-width: 1.224px"/>
    <ellipse cx="32.65" cy="65.07" data-cir-type="male" id="circuitoCon_DO" rx="2.05" ry="1.99" style="fill: none;stroke: #e8e5df;stroke-miterlimit: 10;stroke-width: 1.224px"/>
    <ellipse cx="25.45" cy="65.07" data-cir-type="male" id="circuitoCon_SCK" rx="2.05" ry="1.99" style="fill: none;stroke: #e8e5df;stroke-miterlimit: 10;stroke-width: 1.224px"/>
    <ellipse cx="11.06" cy="65.07" data-cir-type="male" id="circuitoCon_CS" rx="2.05" ry="1.99" style="fill: none;stroke: #e8e5df;stroke-miterlimit: 10;stroke-width: 1.224px"/>
    <ellipse cx="3.82" cy="65.07" data-cir-type="male" id="circuitoCon_VCC" rx="2.05" ry="1.99" style="fill: none;stroke: #e8e5df;stroke-miterlimit: 10;stroke-width: 1.224px"/>
    <ellipse cx="18.26" cy="65.07" data-cir-type="male" id="circuitoCon_DI" rx="2.05" ry="1.99" style="fill: none;stroke: #e8e5df;stroke-miterlimit: 10;stroke-width: 1.224px"/>
    <ellipse cx="46.97" cy="65.07" data-cir-type="male" id="circuitoCon_GND" rx="2.05" ry="1.99" style="fill: none;stroke: #e8e5df;stroke-miterlimit: 10;stroke-width: 1.224px"/>
  </g>
</svg>