<?xml version="1.0" ?><svg height="50.77mm" viewBox="0 0 226.77 143.92" width="80mm" xmlns="http://www.w3.org/2000/svg" xmlns:xlink="http://www.w3.org/1999/xlink">
  <defs>
    <linearGradient gradientTransform="translate(226.77 102.05) rotate(180)" gradientUnits="userSpaceOnUse" id="linear-gradient" x1="4.52" x2="219.12" y1="4.3" y2="96.4">
      <stop offset="0" stop-color="#2e9b77"/>
      <stop offset="1" stop-color="#2e9060"/>
    </linearGradient>
    <linearGradient gradientTransform="translate(-0.35 -1.2)" gradientUnits="userSpaceOnUse" id="linear-gradient-2" x1="92.91" x2="132.12" y1="1.46" y2="96.68">
      <stop offset="0.19" stop-color="#fff"/>
      <stop offset="0.6" stop-color="#fff" stop-opacity="0"/>
    </linearGradient>
  </defs>
  <title>LCD Display Screen 16x2 I2C</title>
  <g data-name="Layer 9" id="Layer_9">
    <rect height="52.56" width="115.53" x="92.4" y="91.35"/>
    <polyline points="97.28 95.46 106.84 105.02 106.84 109.08" style="fill: none;stroke: #232122;stroke-miterlimit: 10"/>
    <path d="M97.09,97.66l8,7.82v8.34h-.19v11.86h-2.54l-9.42-9.25.22-20.33S93.9,98.67,97.09,97.66Z" style="fill: #232122"/>
    <polyline points="96.97 122.72 101.93 127.67 106.36 127.67 109.3 131.52" style="fill: none;stroke: #232122;stroke-miterlimit: 10"/>
    <line style="fill: none;stroke: #232122;stroke-miterlimit: 10" x1="119.15" x2="110.66" y1="136.98" y2="128.5"/>
    <line style="fill: none;stroke: #232122;stroke-miterlimit: 10" x1="114.01" x2="118.3" y1="131.84" y2="127.54"/>
    <polyline points="121.68 139.17 124.47 141.96 134.04 141.96 134.04 138.29" style="fill: none;stroke: #232122;stroke-miterlimit: 10"/>
    <polyline points="136.15 138.6 136.15 141.96 145.62 141.96 150.01 137.56" style="fill: none;stroke: #232122;stroke-miterlimit: 10"/>
    <line style="fill: none;stroke: #232122;stroke-miterlimit: 10" x1="148.43" x2="152.98" y1="142.29" y2="137.74"/>
    <polyline points="171.74 131.48 171.74 129.69 170.46 128.41 162.37 128.41" style="fill: none;stroke: #232122;stroke-miterlimit: 10"/>
    <polyline points="177.99 131.48 177.99 128.5 174.08 124.58 163.12 124.58" style="fill: none;stroke: #232122;stroke-miterlimit: 10"/>
    <line style="fill: none;stroke: #232122;stroke-miterlimit: 10" x1="183.74" x2="183.74" y1="131.48" y2="121.98"/>
    <path d="M192.93,96.42l2.47,2.47V112l5.55,5.55h5.59v25.33H185.82V129.94l-.94-.94V106.73h-3.73L189.89,98A2.92,2.92,0,0,0,192.93,96.42Z" style="fill: #232122"/>
    <path d="M201.87,115.39" style="fill: #fff"/>
    <line style="fill: none;stroke: #232122;stroke-miterlimit: 10" x1="188.87" x2="178.71" y1="96.5" y2="106.65"/>
    <path d="M173.71,106.2" style="fill: none;stroke: #fff;stroke-miterlimit: 10"/>
    <path d="M183.49,96.42" style="fill: none;stroke: #fff;stroke-miterlimit: 10"/>
    <polyline points="162.68 110.73 163.74 110.73 165.55 108.92 165.55 99.14 168.21 96.48" style="fill: none;stroke: #232122;stroke-miterlimit: 10"/>
    <polyline points="162.24 114.14 163.43 114.14 167.99 109.57 167.99 100.76 171.65 97.11 173.39 95.36" style="fill: none;stroke: #232122;stroke-miterlimit: 10"/>
    <polyline points="161.58 117.69 163.1 117.69 170.13 110.66 182.71 98.08 182.71 95.73" style="fill: none;stroke: #232122;stroke-miterlimit: 10"/>
    <line style="fill: none;stroke: #232122;stroke-miterlimit: 10" x1="163.12" x2="171.43" y1="121.23" y2="121.23"/>
    <polyline points="144.87 129.94 141 133.81 130.74 133.81 127.05 137.49" style="fill: none;stroke: #232122;stroke-miterlimit: 10"/>
    <line style="fill: none;stroke: #232122;stroke-miterlimit: 10" x1="150.01" x2="141.99" y1="129.69" y2="137.71"/>
    <polyline points="156.3 130.35 165.18 130.35 165.44 129.94 169.55 129.94" style="fill: none;stroke: #232122;stroke-miterlimit: 10"/>
    <polyline points="109.92 112.46 122.02 100.36 123.21 100.36" style="fill: none;stroke: #232122;stroke-miterlimit: 10"/>
    <path d="M110.07,114.4h1.79a1.77,1.77,0,0,0,.17-2.67l3.08-3.08,4.46-4.46h1l1.23-1.23h5.21V108" style="fill: none;stroke: #232122;stroke-miterlimit: 10"/>
    <polygon points="118.95 129.15 116.62 131.48 121.76 136.62 126.49 136.62 130.47 132.64 140.41 132.64 143.8 129.25 118.95 129.15" style="fill: #232122"/>
    <polygon points="171.74 126.42 170.94 127.21 173.16 129.43 174.08 129.43 174.08 136.29 172.9 136.29 172.9 138.26 176.24 138.26 176.24 135.2 175.52 135.2 175.52 128.41 173.56 126.45 171.74 126.42" style="fill: #232122"/>
    <polygon points="182.37 123.11 182.37 137.98 178.87 137.98 178.87 136.35 180.62 136.35 180.62 123.11 182.37 123.11" style="fill: #232122"/>
    <polyline points="201.87 115.14 197.51 110.78 197.51 96.11" style="fill: none;stroke: #232122;stroke-miterlimit: 10"/>
    <polyline points="169.55 129.94 169.62 138.36 168.12 139.09 166.57 141.31 162.14 141.31 161.31 139.09 157.82 139.09 157.82 136.28 161.82 134.35 161.87 130.35 165.18 130.35 165.52 130.02 169.55 130.02 169.55 138.36" style="fill: #232122"/>
    <circle cx="124.24" cy="100.35" r="0.81" style="fill: none;stroke: #232122;stroke-miterlimit: 10;stroke-width: 0.760273170596429px"/>
    <path d="M112.24,113.94" style="fill: none;stroke: #232122;stroke-miterlimit: 10;stroke-width: 0.760273170596429px"/>
    <line style="fill: none;stroke: #232122;stroke-miterlimit: 10;stroke-width: 0.760273170596429px" x1="130.11" x2="126.7" y1="128.36" y2="127.12"/>
    <line style="fill: none;stroke: #232122;stroke-miterlimit: 10;stroke-width: 0.760273170596429px" x1="130.11" x2="126.64" y1="124.85" y2="121.39"/>
    <polygon points="111.24 114.81 112.95 118.44 112.95 122.72 128.4 122.72 128.4 116.48 119.41 116.48 116.62 116.48 116.62 115.86 114.01 115.86 112.21 114.06 111.24 114.81" style="fill: #232122"/>
    <circle cx="129.15" cy="109.35" r="0.68" style="fill: none;stroke: #232122;stroke-miterlimit: 10;stroke-width: 0.75px"/>
    <circle cx="107.12" cy="117.01" r="0.68" style="fill: none;stroke: #232122;stroke-miterlimit: 10;stroke-width: 0.75px"/>
    <line style="fill: none;stroke: #232122;stroke-miterlimit: 10;stroke-width: 0.75px" x1="106.43" x2="104.12" y1="117.01" y2="117.01"/>
    <rect height="4.1" style="fill: #cfced3" width="3.35" x="104.89" y="106.76"/>
    <rect height="4.1" style="fill: #cfced3" width="3.35" x="101.77" y="112.17"/>
    <rect height="4.1" style="fill: #cfced3" width="3.35" x="107.69" y="112.18"/>
    <rect height="29.63" rx="1.77" ry="1.77" style="fill: #2d2726" width="21.8" x="136.55" y="101.29"/>
    <rect height="27.33" style="fill: #444141" width="18.23" x="138.06" y="102.6"/>
    <path d="M156.27,129.92H149.8a2.14,2.14,0,0,0-2.25-1.72,2.32,2.32,0,0,0-2.36,1.72H138V102.58h18.23Z" style="fill: #4b4544"/>
    <g>
      <rect height="4.22" rx="0.55" ry="0.55" style="fill: #e7e6e8" transform="translate(250.1 210.74) rotate(180)" width="4.02" x="123.04" y="103.26"/>
      <rect height="3.61" rx="0.81" ry="0.81" style="fill: #fffdf3" transform="translate(250.1 224.66) rotate(180)" width="3.96" x="123.07" y="110.52"/>
      <rect height="4.88" rx="0.92" ry="0.92" style="fill: #cea468" transform="translate(250.23 218.42) rotate(180)" width="3.17" x="123.53" y="106.77"/>
      <rect height="1.21" rx="0.6" ry="0.6" style="fill: #757376" transform="translate(250.23 214.05) rotate(180)" width="3.17" x="123.53" y="106.42"/>
      <rect height="1.21" rx="0.6" ry="0.6" style="fill: #757376" transform="translate(250.23 222.05) rotate(180)" width="3.17" x="123.53" y="110.42"/>
    </g>
    <g>
      <rect height="9.6" style="fill: #ccc" width="4" x="102.62" y="119.8"/>
      <polygon points="103.04 121.85 104.18 121.85 104.74 122.35 105.19 121.9 106.31 121.9 106.31 127.78 105.13 127.78 104.68 127.33 104.11 127.91 103.04 127.91 103.04 121.85" style="fill: #ffe9ab"/>
      <circle cx="104.62" cy="124.88" r="0.61" style="fill: #ccc"/>
    </g>
    <g>
      <rect height="2.64" rx="0.44" ry="0.44" style="fill: #e7e6e8" transform="translate(-10.58 265.15) rotate(-90)" width="4.02" x="125.27" y="136.55"/>
      <rect height="3.22" rx="0.77" ry="0.77" style="fill: #e7e6e8" transform="translate(-17.97 257.77) rotate(-90)" width="3.96" x="117.92" y="136.26"/>
      <rect height="5.38" rx="0.96" ry="0.96" style="fill: #e7e6e8" transform="translate(-13.97 261.39) rotate(-90)" width="3.29" x="122.07" y="134.99"/>
    </g>
    <rect height="2.81" style="fill: #2a292d" width="4.1" x="121.66" y="136.28"/>
    <g>
      <path d="M124.82,137.86V138l-.23.21h-.14v-1h.13v.87Z" style="fill: #fbfcfe"/>
      <path d="M123.37,138.11a1.25,1.25,0,0,1,0-.36.91.91,0,0,1,.09-.48.42.42,0,0,1,.44,0,.91.91,0,0,1,.09.48,1.25,1.25,0,0,1,0,.36c0,.14-.14.16-.27.16S123.42,138.26,123.37,138.11Zm.44-.09a2,2,0,0,0,0-.29,1.12,1.12,0,0,0,0-.36s-.1,0-.14,0-.12,0-.14,0a1.14,1.14,0,0,0,0,.36,2.32,2.32,0,0,0,0,.29c0,.11.06.11.17.11S123.79,138.13,123.81,138Z" style="fill: #fbfcfe"/>
      <path d="M122.45,138.11l.23-.26a.28.28,0,0,1-.27-.31.33.33,0,0,1,.36-.33.56.56,0,0,1,.24.06v.15a.41.41,0,0,0-.24-.07c-.12,0-.23.06-.23.21a.18.18,0,0,0,.21.19h.1v.11l-.24.27h.4v.13h-.56Z" style="fill: #fbfcfe"/>
    </g>
    <g>
      <rect height="2.64" rx="0.44" ry="0.44" style="fill: #e7e6e8" transform="translate(4.03 279.76) rotate(-90)" width="4.02" x="139.88" y="136.55"/>
      <rect height="3.22" rx="0.77" ry="0.77" style="fill: #e7e6e8" transform="translate(-3.36 272.38) rotate(-90)" width="3.96" x="132.53" y="136.26"/>
      <rect height="5.38" rx="0.96" ry="0.96" style="fill: #e7e6e8" transform="translate(0.64 276) rotate(-90)" width="3.29" x="136.68" y="134.99"/>
    </g>
    <rect height="2.81" style="fill: #2a292d" width="4.1" x="136.27" y="136.28"/>
    <g>
      <path d="M139.43,137.86V138l-.23.21h-.14v-1h.13v.87Z" style="fill: #fbfcfe"/>
      <path d="M138,138.11a1.28,1.28,0,0,1,0-.36.91.91,0,0,1,.09-.48.32.32,0,0,1,.22-.06.32.32,0,0,1,.22.06.92.92,0,0,1,.09.48,1.28,1.28,0,0,1,0,.36c0,.14-.15.16-.27.16S138,138.26,138,138.11Zm.44-.09a2.32,2.32,0,0,0,0-.29,1.12,1.12,0,0,0,0-.36s-.1,0-.14,0-.12,0-.14,0a1.14,1.14,0,0,0,0,.36,2.53,2.53,0,0,0,0,.29c0,.11.06.11.17.11S138.4,138.13,138.42,138Z" style="fill: #fbfcfe"/>
      <path d="M137.06,138.11l.23-.26a.28.28,0,0,1-.27-.31.33.33,0,0,1,.36-.33.55.55,0,0,1,.24.06v.15a.4.4,0,0,0-.24-.07.2.2,0,0,0-.23.21c0,.14.1.19.21.19h.1v.11l-.24.27h.4v.13h-.56Z" style="fill: #fbfcfe"/>
    </g>
    <g>
      <rect height="2.64" rx="0.44" ry="0.44" style="fill: #e7e6e8" transform="translate(19.34 295.08) rotate(-90)" width="4.02" x="155.2" y="136.55"/>
      <rect height="3.22" rx="0.77" ry="0.77" style="fill: #e7e6e8" transform="translate(11.95 287.69) rotate(-90)" width="3.96" x="147.84" y="136.26"/>
      <rect height="5.38" rx="0.96" ry="0.96" style="fill: #e7e6e8" transform="translate(15.95 291.32) rotate(-90)" width="3.29" x="151.99" y="134.99"/>
    </g>
    <rect height="2.81" style="fill: #2a292d" width="4.1" x="151.58" y="136.28"/>
    <g>
      <path d="M154.75,137.86V138l-.23.21h-.14v-1h.13v.87Z" style="fill: #fbfcfe"/>
      <path d="M153.3,138.11a1.28,1.28,0,0,1,0-.36.91.91,0,0,1,.09-.48.32.32,0,0,1,.22-.06.32.32,0,0,1,.22.06.92.92,0,0,1,.09.48,1.28,1.28,0,0,1,0,.36c0,.14-.15.16-.27.16S153.34,138.26,153.3,138.11Zm.44-.09a2.32,2.32,0,0,0,0-.29,1.12,1.12,0,0,0,0-.36s-.1,0-.14,0-.12,0-.14,0a1.14,1.14,0,0,0,0,.36,2.53,2.53,0,0,0,0,.29c0,.11.06.11.17.11S153.72,138.13,153.73,138Z" style="fill: #fbfcfe"/>
      <path d="M152.38,138.11l.23-.26a.28.28,0,0,1-.27-.31.33.33,0,0,1,.36-.33.55.55,0,0,1,.24.06v.15a.4.4,0,0,0-.24-.07.2.2,0,0,0-.23.21c0,.14.1.19.21.19h.1v.11l-.24.27h.4v.13h-.56Z" style="fill: #fbfcfe"/>
    </g>
    <g>
      <rect height="2.64" rx="0.44" ry="0.44" style="fill: #e7e6e8" transform="translate(237.67 240.52) rotate(180)" width="4.02" x="116.82" y="118.94"/>
      <rect height="3.22" rx="0.77" ry="0.77" style="fill: #e7e6e8" transform="translate(237.67 255.3) rotate(180)" width="3.96" x="116.85" y="126.04"/>
      <rect height="5.38" rx="0.96" ry="0.96" style="fill: #e7e6e8" transform="translate(237.29 247.67) rotate(180)" width="3.29" x="117" y="121.15"/>
    </g>
    <rect height="2.81" style="fill: #2a292d" transform="translate(-5.19 242.48) rotate(-90)" width="4.1" x="116.59" y="122.43"/>
    <g>
      <path d="M118.54,123.27h-.13v-.11h-.23V123h.23v-.35h.15l.65.27v.14l-.67-.28V123h.21v.13h-.21Z" style="fill: #fbfcfe"/>
      <path d="M119.08,123.6h.13v.61h0a.37.37,0,0,1-.16,0l-.15-.1a.8.8,0,0,0-.54-.23h-.17v-.13h.17a.92.92,0,0,1,.58.23l.06,0a.19.19,0,0,0,.1.05Z" style="fill: #fbfcfe"/>
      <path d="M118.32,125.09h-.13v-.55h.08a.49.49,0,0,1,.47.26c0,.07.11.17.22.17a.16.16,0,0,0,.16-.14.49.49,0,0,0-.11-.27h.16a.41.41,0,0,1,.09.25.27.27,0,0,1-.28.3c-.19,0-.26-.12-.35-.25a.36.36,0,0,0-.26-.18h0Z" style="fill: #fbfcfe"/>
    </g>
    <g>
      <rect height="2.64" rx="0.44" ry="0.44" style="fill: #e7e6e8" width="4.02" x="123.64" y="126.61"/>
      <rect height="3.22" rx="0.77" ry="0.77" style="fill: #e7e6e8" width="3.96" x="123.68" y="118.93"/>
      <rect height="5.38" rx="0.96" ry="0.96" style="fill: #e7e6e8" width="3.29" x="124.2" y="121.66"/>
    </g>
    <rect height="2.81" style="fill: #2a292d" transform="translate(250.2 -1.49) rotate(90)" width="4.1" x="123.79" y="122.95"/>
    <g>
      <path d="M125.95,124.91h.13V125h.23v.13h-.23v.35h-.15l-.65-.27v-.14l.67.28v-.23h-.21V125h.21Z" style="fill: #fbfcfe"/>
      <path d="M125.41,124.59h-.13V124h0a.36.36,0,0,1,.16,0l.15.1a.8.8,0,0,0,.54.23h.17v.13h-.17a.93.93,0,0,1-.58-.23l-.06,0a.2.2,0,0,0-.1-.05Z" style="fill: #fbfcfe"/>
      <path d="M126.17,123.1h.13v.55h-.08a.49.49,0,0,1-.47-.26c0-.07-.11-.17-.21-.17a.16.16,0,0,0-.16.14.49.49,0,0,0,.11.27h-.16a.41.41,0,0,1-.09-.25.27.27,0,0,1,.28-.29c.19,0,.26.12.35.25a.36.36,0,0,0,.26.18h0Z" style="fill: #fbfcfe"/>
    </g>
    <g>
      <rect height="2.64" rx="0.44" ry="0.44" style="fill: #e7e6e8" width="4.02" x="109.79" y="126.61"/>
      <rect height="3.22" rx="0.77" ry="0.77" style="fill: #e7e6e8" width="3.96" x="109.82" y="118.93"/>
      <rect height="5.38" rx="0.96" ry="0.96" style="fill: #e7e6e8" width="3.29" x="110.34" y="121.66"/>
    </g>
    <rect height="2.81" style="fill: #2a292d" transform="translate(236.34 12.37) rotate(90)" width="4.1" x="109.94" y="122.95"/>
    <g>
      <path d="M111.81,125.47h-.18l-.21-.23v-.14h1v.13h-.87Z" style="fill: #fbfcfe"/>
      <path d="M111.55,124a1.25,1.25,0,0,1,.36,0,.9.9,0,0,1,.48.09.42.42,0,0,1,0,.44.91.91,0,0,1-.48.09,1.25,1.25,0,0,1-.36,0c-.14,0-.16-.14-.16-.27S111.41,124.06,111.55,124Zm.09.44h.29a1.11,1.11,0,0,0,.36,0s0-.1,0-.14,0-.12,0-.14a1.14,1.14,0,0,0-.36,0h-.29c-.11,0-.11.06-.11.17S111.54,124.43,111.65,124.45Z" style="fill: #fbfcfe"/>
      <path d="M112.32,123.1h.13v.55h-.08a.49.49,0,0,1-.47-.26c0-.07-.11-.17-.22-.17a.16.16,0,0,0-.16.14.48.48,0,0,0,.11.27h-.16a.41.41,0,0,1-.09-.25.27.27,0,0,1,.28-.29c.19,0,.26.12.35.25a.36.36,0,0,0,.26.18h0Z" style="fill: #fbfcfe"/>
    </g>
    <g>
      <rect height="2.64" rx="0.44" ry="0.44" style="fill: #e7e6e8" width="4.02" x="115.83" y="111.07"/>
      <rect height="3.22" rx="0.77" ry="0.77" style="fill: #e7e6e8" width="3.96" x="115.86" y="103.39"/>
      <rect height="5.38" rx="0.96" ry="0.96" style="fill: #e7e6e8" width="3.29" x="116.38" y="106.12"/>
    </g>
    <rect height="2.81" style="fill: #2a292d" transform="translate(226.84 -9.22) rotate(90)" width="4.1" x="115.98" y="107.41"/>
    <g>
      <path d="M118.13,109.37h.13v.11h.23v.13h-.23V110h-.15l-.65-.27v-.14l.67.28v-.23h-.21v-.13h.21Z" style="fill: #fbfcfe"/>
      <path d="M117.59,109h-.13v-.61h0a.36.36,0,0,1,.16,0l.15.1a.8.8,0,0,0,.54.23h.17v.13h-.17a.93.93,0,0,1-.58-.23l-.06,0a.2.2,0,0,0-.1-.05Z" style="fill: #fbfcfe"/>
      <path d="M118.36,107.56h.13v.55h-.08a.49.49,0,0,1-.47-.26c0-.07-.11-.17-.21-.17a.16.16,0,0,0-.16.14.49.49,0,0,0,.11.27h-.16a.41.41,0,0,1-.09-.25.27.27,0,0,1,.28-.29c.19,0,.26.12.35.25a.36.36,0,0,0,.26.18h0Z" style="fill: #fbfcfe"/>
    </g>
    <g>
      <g>
        <rect height="11.71" style="fill: #42444a" width="11.71" x="173.1" y="108.58"/>
        <rect height="8.38" style="fill: #9e9ea9" width="8.38" x="169.62" y="104.75"/>
        <rect height="8.38" style="fill: #9e9ea9" width="8.38" x="180.3" y="104.75"/>
        <rect height="8.38" style="fill: #9e9ea9" width="8.38" x="180.3" y="115.16"/>
        <rect height="8.38" style="fill: #9e9ea9" width="8.38" x="169.63" y="115.16"/>
        <circle cx="179.14" cy="114.15" r="1.54" style="fill: #777"/>
      </g>
      <circle cx="181.54" cy="111.95" r="0.53" style="fill: #42444a"/>
      <circle cx="181.54" cy="116.45" r="0.53" style="fill: #42444a"/>
      <g>
        <path d="M169.16,104.21v19.88h19.6V104.21Zm10,14.15a4.21,4.21,0,1,1,4.21-4.21A4.21,4.21,0,0,1,179.13,118.35Z" style="fill: #4377b5"/>
        <g>
          <g>
            <circle cx="179.15" cy="114.11" r="4.77" style="fill: none;stroke: #306baf;stroke-miterlimit: 10"/>
            <line style="fill: none;stroke: #306baf;stroke-linecap: round;stroke-miterlimit: 10" x1="178.99" x2="178.99" y1="109.08" y2="106.44"/>
            <line style="fill: none;stroke: #306baf;stroke-linecap: round;stroke-miterlimit: 10" x1="182.48" x2="184.4" y1="117.78" y2="119.7"/>
            <line style="fill: none;stroke: #306baf;stroke-linecap: round;stroke-miterlimit: 10" x1="183.56" x2="185.04" y1="115.74" y2="116.23"/>
            <line style="fill: none;stroke: #306baf;stroke-linecap: round;stroke-miterlimit: 10" x1="181.28" x2="182.05" y1="109.84" y2="108.54"/>
            <line style="fill: none;stroke: #306baf;stroke-linecap: round;stroke-miterlimit: 10" x1="183.18" x2="184.27" y1="111.56" y2="110.47"/>
            <line style="fill: none;stroke: #306baf;stroke-linecap: round;stroke-miterlimit: 10" x1="183.85" x2="185.43" y1="113.33" y2="113.33"/>
            <line style="fill: none;stroke: #306baf;stroke-linecap: round;stroke-miterlimit: 10" x1="174.58" x2="173.09" y1="115.48" y2="115.97"/>
            <line style="fill: none;stroke: #306baf;stroke-linecap: round;stroke-miterlimit: 10" x1="176.92" x2="176.14" y1="109.56" y2="108.26"/>
            <line style="fill: none;stroke: #306baf;stroke-linecap: round;stroke-miterlimit: 10" x1="175.02" x2="173.93" y1="111.28" y2="110.19"/>
            <line style="fill: none;stroke: #306baf;stroke-linecap: round;stroke-miterlimit: 10" x1="174.34" x2="172.77" y1="113.05" y2="113.05"/>
            <line style="fill: none;stroke: #306baf;stroke-linecap: round;stroke-miterlimit: 10" x1="175.65" x2="174.56" y1="117.35" y2="118.44"/>
          </g>
          <path d="M170.4,120.83l.18-.08.18-.1.17-.12.15-.13h.31v2.08H171V121l-.2.11-.22.09Z" style="fill: #306baf"/>
          <path d="M186.06,122.66h-.17l-.17,0-.15,0-.11,0,.09-.37.2.07a1.06,1.06,0,0,0,.3,0,.48.48,0,0,0,.3-.08.26.26,0,0,0,.1-.21.25.25,0,0,0,0-.14.26.26,0,0,0-.09-.09l-.14,0h-.35v-.36h.33l.11,0a.21.21,0,0,0,.08-.08.24.24,0,0,0,0-.12.2.2,0,0,0,0-.1.21.21,0,0,0-.06-.07l-.09,0h-.1a.7.7,0,0,0-.24,0l-.2.1-.16-.33.11-.06.14-.06.17,0,.19,0a1,1,0,0,1,.32,0,.59.59,0,0,1,.22.12.48.48,0,0,1,.13.19.62.62,0,0,1,0,.23.46.46,0,0,1-.07.24.45.45,0,0,1-.19.17.52.52,0,0,1,.34.51.72.72,0,0,1,0,.27.55.55,0,0,1-.15.21.72.72,0,0,1-.26.14A1.25,1.25,0,0,1,186.06,122.66Z" style="fill: #306baf"/>
          <g>
            <path d="M175.14,122.53h-.24l-.25,0-.22,0-.15,0,.12-.42.28.08a1.86,1.86,0,0,0,.43,0,.81.81,0,0,0,.43-.09.27.27,0,0,0,.14-.23.24.24,0,0,0,0-.15.35.35,0,0,0-.13-.1.7.7,0,0,0-.2-.05h-.49v-.4h.46l.16,0a.29.29,0,0,0,.11-.09.24.24,0,0,0,0-.14.19.19,0,0,0,0-.11.28.28,0,0,0-.09-.08l-.12,0-.14,0a1.24,1.24,0,0,0-.34,0,1.57,1.57,0,0,0-.28.11l-.22-.37.16-.07.2-.07.24-.05.27,0a1.82,1.82,0,0,1,.45,0,.93.93,0,0,1,.31.14.55.55,0,0,1,.24.47.43.43,0,0,1-.1.27.61.61,0,0,1-.26.2.76.76,0,0,1,.35.22.52.52,0,0,1,.13.35.65.65,0,0,1-.07.3.63.63,0,0,1-.21.24,1.14,1.14,0,0,1-.37.15A2.2,2.2,0,0,1,175.14,122.53Z" style="fill: #306baf"/>
            <path d="M177.55,122.53h-.24l-.25,0-.22,0-.15,0,.12-.42.28.08a1.86,1.86,0,0,0,.43,0A.81.81,0,0,0,178,122a.27.27,0,0,0,.14-.23.24.24,0,0,0,0-.15.35.35,0,0,0-.13-.1.7.7,0,0,0-.2-.05h-.49v-.4h.46l.16,0a.29.29,0,0,0,.11-.09.24.24,0,0,0,0-.14.19.19,0,0,0,0-.11.28.28,0,0,0-.09-.08l-.12,0-.14,0a1.24,1.24,0,0,0-.34,0,1.57,1.57,0,0,0-.28.11l-.22-.37.16-.07.2-.07.24-.05.27,0a1.82,1.82,0,0,1,.45,0,.93.93,0,0,1,.31.14.55.55,0,0,1,.24.47.43.43,0,0,1-.1.27.61.61,0,0,1-.26.2.76.76,0,0,1,.35.22.52.52,0,0,1,.13.35.65.65,0,0,1-.07.3.63.63,0,0,1-.21.24,1.14,1.14,0,0,1-.37.15A2.2,2.2,0,0,1,177.55,122.53Z" style="fill: #306baf"/>
            <path d="M180.24,121a1.63,1.63,0,0,1,.47.06.92.92,0,0,1,.32.16.6.6,0,0,1,.18.23.76.76,0,0,1,.05.29.69.69,0,0,1-.06.28.73.73,0,0,1-.19.25,1,1,0,0,1-.32.19,1.28,1.28,0,0,1-.46.07,1.12,1.12,0,0,1-.81-.26,1,1,0,0,1-.28-.73,1.3,1.3,0,0,1,.13-.59,1.2,1.2,0,0,1,.38-.43,1.78,1.78,0,0,1,.59-.27,3.14,3.14,0,0,1,.78-.1l0,.2,0,.21-.41,0a1.58,1.58,0,0,0-.34.09,1,1,0,0,0-.27.16.66.66,0,0,0-.18.23l.19,0Zm-.08.39H180l-.17,0v0s0,0,0,0a1.21,1.21,0,0,0,0,.23.54.54,0,0,0,.07.19.36.36,0,0,0,.14.13.45.45,0,0,0,.21,0,.42.42,0,0,0,.18,0,.4.4,0,0,0,.12-.09.35.35,0,0,0,.07-.12.4.4,0,0,0,0-.13.32.32,0,0,0-.11-.26A.56.56,0,0,0,180.16,121.39Z" style="fill: #306baf"/>
            <path d="M183.51,120.77a.5.5,0,0,1-.06.25,1.06,1.06,0,0,1-.17.23,2,2,0,0,1-.23.21l-.25.19-.14.11-.14.12-.12.11a.28.28,0,0,0-.07.09h1.26v.42h-2a.41.41,0,0,1,0-.09v-.08a.66.66,0,0,1,.07-.29,1,1,0,0,1,.17-.25,1.84,1.84,0,0,1,.24-.22l.26-.2.19-.15.16-.13a.62.62,0,0,0,.11-.13.26.26,0,0,0,0-.13.22.22,0,0,0-.11-.21.53.53,0,0,0-.26-.06.79.79,0,0,0-.21,0l-.18.07-.14.08-.09.06-.31-.35a1.69,1.69,0,0,1,.43-.23,1.56,1.56,0,0,1,.53-.09,1.86,1.86,0,0,1,.45,0,.93.93,0,0,1,.31.13.54.54,0,0,1,.18.21A.65.65,0,0,1,183.51,120.77Z" style="fill: #306baf"/>
          </g>
        </g>
        <line style="fill: #306baf;stroke: #306baf;stroke-linecap: round;stroke-miterlimit: 10;stroke-width: 0.5px" x1="169.96" x2="187.74" y1="122.59" y2="122.59"/>
      </g>
    </g>
    <g>
      <rect height="2.72" rx="1.25" ry="1.25" style="fill: #36322e" width="6.08" x="129.62" y="102.02"/>
      <g>
        <line style="fill: #36322e;stroke: #a7a29f;stroke-miterlimit: 10" x1="132.63" x2="135.46" y1="103.38" y2="103.38"/>
        <path d="M135.2,102.73h1.33a.57.57,0,0,1,.57.57v.24a.51.51,0,0,1-.51.51H135.2a0,0,0,0,1,0,0v-1.31A0,0,0,0,1,135.2,102.73Z" style="fill: #dadada"/>
      </g>
      <line style="fill: none;stroke: #dadada;stroke-linecap: round;stroke-miterlimit: 10;stroke-width: 1.2000000000000002px" x1="130.21" x2="131.83" y1="103.38" y2="103.38"/>
    </g>
    <g>
      <rect height="2.72" rx="1.25" ry="1.25" style="fill: #36322e" width="6.08" x="129.62" y="105.66"/>
      <g>
        <line style="fill: #36322e;stroke: #a7a29f;stroke-miterlimit: 10" x1="132.63" x2="135.46" y1="107.02" y2="107.02"/>
        <path d="M135.2,106.37h1.33a.57.57,0,0,1,.57.57v.24a.51.51,0,0,1-.51.51H135.2a0,0,0,0,1,0,0v-1.31A0,0,0,0,1,135.2,106.37Z" style="fill: #dadada"/>
      </g>
      <line style="fill: none;stroke: #dadada;stroke-linecap: round;stroke-miterlimit: 10;stroke-width: 1.2000000000000002px" x1="130.21" x2="131.83" y1="107.02" y2="107.02"/>
    </g>
    <g>
      <rect height="2.72" rx="1.25" ry="1.25" style="fill: #36322e" width="6.08" x="129.62" y="109.2"/>
      <g>
        <line style="fill: #36322e;stroke: #a7a29f;stroke-miterlimit: 10" x1="132.63" x2="135.46" y1="110.56" y2="110.56"/>
        <path d="M135.2,109.91h1.33a.57.57,0,0,1,.57.57v.24a.51.51,0,0,1-.51.51H135.2a0,0,0,0,1,0,0v-1.31A0,0,0,0,1,135.2,109.91Z" style="fill: #dadada"/>
      </g>
      <line style="fill: none;stroke: #dadada;stroke-linecap: round;stroke-miterlimit: 10;stroke-width: 1.2000000000000002px" x1="130.21" x2="131.83" y1="110.56" y2="110.56"/>
    </g>
    <g>
      <rect height="2.72" rx="1.25" ry="1.25" style="fill: #36322e" width="6.08" x="129.62" y="112.74"/>
      <g>
        <line style="fill: #36322e;stroke: #a7a29f;stroke-miterlimit: 10" x1="132.63" x2="135.46" y1="114.1" y2="114.1"/>
        <path d="M135.2,113.45h1.33a.57.57,0,0,1,.57.57v.24a.51.51,0,0,1-.51.51H135.2a0,0,0,0,1,0,0v-1.31A0,0,0,0,1,135.2,113.45Z" style="fill: #dadada"/>
      </g>
      <line style="fill: none;stroke: #dadada;stroke-linecap: round;stroke-miterlimit: 10;stroke-width: 1.2000000000000002px" x1="130.21" x2="131.83" y1="114.1" y2="114.1"/>
    </g>
    <g>
      <rect height="2.72" rx="1.25" ry="1.25" style="fill: #36322e" width="6.08" x="129.62" y="116.33"/>
      <g>
        <line style="fill: #36322e;stroke: #a7a29f;stroke-miterlimit: 10" x1="132.63" x2="135.46" y1="117.69" y2="117.69"/>
        <path d="M135.2,117h1.33a.57.57,0,0,1,.57.57v.24a.51.51,0,0,1-.51.51H135.2a0,0,0,0,1,0,0V117A0,0,0,0,1,135.2,117Z" style="fill: #dadada"/>
      </g>
      <line style="fill: none;stroke: #dadada;stroke-linecap: round;stroke-miterlimit: 10;stroke-width: 1.2000000000000002px" x1="130.21" x2="131.83" y1="117.69" y2="117.69"/>
    </g>
    <g>
      <rect height="2.72" rx="1.25" ry="1.25" style="fill: #36322e" width="6.08" x="129.62" y="119.99"/>
      <g>
        <line style="fill: #36322e;stroke: #a7a29f;stroke-miterlimit: 10" x1="132.63" x2="135.46" y1="121.35" y2="121.35"/>
        <path d="M135.2,120.7h1.33a.57.57,0,0,1,.57.57v.24a.51.51,0,0,1-.51.51H135.2a0,0,0,0,1,0,0V120.7A0,0,0,0,1,135.2,120.7Z" style="fill: #dadada"/>
      </g>
      <line style="fill: none;stroke: #dadada;stroke-linecap: round;stroke-miterlimit: 10;stroke-width: 1.2000000000000002px" x1="130.21" x2="131.83" y1="121.35" y2="121.35"/>
    </g>
    <g>
      <rect height="2.72" rx="1.25" ry="1.25" style="fill: #36322e" width="6.08" x="129.62" y="123.66"/>
      <g>
        <line style="fill: #36322e;stroke: #a7a29f;stroke-miterlimit: 10" x1="132.63" x2="135.46" y1="125.02" y2="125.02"/>
        <path d="M135.2,124.36h1.33a.57.57,0,0,1,.57.57v.24a.51.51,0,0,1-.51.51H135.2a0,0,0,0,1,0,0v-1.31A0,0,0,0,1,135.2,124.36Z" style="fill: #dadada"/>
      </g>
      <line style="fill: none;stroke: #dadada;stroke-linecap: round;stroke-miterlimit: 10;stroke-width: 1.2000000000000002px" x1="130.21" x2="131.83" y1="125.02" y2="125.02"/>
    </g>
    <g>
      <rect height="2.72" rx="1.25" ry="1.25" style="fill: #36322e" width="6.08" x="129.62" y="127.32"/>
      <g>
        <line style="fill: #36322e;stroke: #a7a29f;stroke-miterlimit: 10" x1="132.63" x2="135.46" y1="128.69" y2="128.69"/>
        <path d="M135.2,128h1.33a.57.57,0,0,1,.57.57v.24a.51.51,0,0,1-.51.51H135.2a0,0,0,0,1,0,0V128A0,0,0,0,1,135.2,128Z" style="fill: #dadada"/>
      </g>
      <line style="fill: none;stroke: #dadada;stroke-linecap: round;stroke-miterlimit: 10;stroke-width: 1.2000000000000002px" x1="130.21" x2="131.83" y1="128.69" y2="128.69"/>
    </g>
    <g>
      <rect height="2.72" rx="1.25" ry="1.25" style="fill: #36322e" transform="translate(322.63 206.77) rotate(-180)" width="6.08" x="158.27" y="102.02"/>
      <line style="fill: #36322e;stroke: #a7a29f;stroke-miterlimit: 10" x1="161.34" x2="158.51" y1="103.38" y2="103.38"/>
      <path d="M157.88,102.73h1.39a.51.51,0,0,1,.51.51v.24a.57.57,0,0,1-.57.57h-1.33a0,0,0,0,1,0,0v-1.31A0,0,0,0,1,157.88,102.73Z" style="fill: #dadada" transform="translate(317.65 206.77) rotate(-180)"/>
      <line style="fill: none;stroke: #dadada;stroke-linecap: round;stroke-miterlimit: 10;stroke-width: 1.2000000000000002px" x1="163.76" x2="162.14" y1="103.38" y2="103.38"/>
      <rect height="2.72" rx="1.25" ry="1.25" style="fill: #36322e" transform="translate(322.63 214.04) rotate(-180)" width="6.08" x="158.27" y="105.66"/>
      <line style="fill: #36322e;stroke: #a7a29f;stroke-miterlimit: 10" x1="161.34" x2="158.51" y1="107.02" y2="107.02"/>
      <path d="M157.88,106.37h1.39a.51.51,0,0,1,.51.51v.24a.57.57,0,0,1-.57.57h-1.33a0,0,0,0,1,0,0v-1.31A0,0,0,0,1,157.88,106.37Z" style="fill: #dadada" transform="translate(317.65 214.04) rotate(-180)"/>
      <line style="fill: none;stroke: #dadada;stroke-linecap: round;stroke-miterlimit: 10;stroke-width: 1.2000000000000002px" x1="163.76" x2="162.14" y1="107.02" y2="107.02"/>
      <rect height="2.72" rx="1.25" ry="1.25" style="fill: #36322e" transform="translate(322.63 221.13) rotate(-180)" width="6.08" x="158.27" y="109.2"/>
      <line style="fill: #36322e;stroke: #a7a29f;stroke-miterlimit: 10" x1="161.34" x2="158.51" y1="110.56" y2="110.56"/>
      <path d="M157.88,109.91h1.39a.51.51,0,0,1,.51.51v.24a.57.57,0,0,1-.57.57h-1.33a0,0,0,0,1,0,0v-1.31A0,0,0,0,1,157.88,109.91Z" style="fill: #dadada" transform="translate(317.65 221.13) rotate(-180)"/>
      <line style="fill: none;stroke: #dadada;stroke-linecap: round;stroke-miterlimit: 10;stroke-width: 1.2000000000000002px" x1="163.76" x2="162.14" y1="110.56" y2="110.56"/>
      <rect height="2.72" rx="1.25" ry="1.25" style="fill: #36322e" transform="translate(322.63 228.21) rotate(-180)" width="6.08" x="158.27" y="112.74"/>
      <line style="fill: #36322e;stroke: #a7a29f;stroke-miterlimit: 10" x1="161.34" x2="158.51" y1="114.1" y2="114.1"/>
      <path d="M157.88,113.45h1.39a.51.51,0,0,1,.51.51v.24a.57.57,0,0,1-.57.57h-1.33a0,0,0,0,1,0,0v-1.31A0,0,0,0,1,157.88,113.45Z" style="fill: #dadada" transform="translate(317.65 228.21) rotate(-180)"/>
      <line style="fill: none;stroke: #dadada;stroke-linecap: round;stroke-miterlimit: 10;stroke-width: 1.2000000000000002px" x1="163.76" x2="162.14" y1="114.1" y2="114.1"/>
      <rect height="2.72" rx="1.25" ry="1.25" style="fill: #36322e" transform="translate(322.63 235.38) rotate(-180)" width="6.08" x="158.27" y="116.33"/>
      <line style="fill: #36322e;stroke: #a7a29f;stroke-miterlimit: 10" x1="161.34" x2="158.51" y1="117.69" y2="117.69"/>
      <path d="M157.88,117h1.39a.51.51,0,0,1,.51.51v.24a.57.57,0,0,1-.57.57h-1.33a0,0,0,0,1,0,0V117A0,0,0,0,1,157.88,117Z" style="fill: #dadada" transform="translate(317.65 235.38) rotate(-180)"/>
      <line style="fill: none;stroke: #dadada;stroke-linecap: round;stroke-miterlimit: 10;stroke-width: 1.2000000000000002px" x1="163.76" x2="162.14" y1="117.69" y2="117.69"/>
      <rect height="2.72" rx="1.25" ry="1.25" style="fill: #36322e" transform="translate(322.63 242.71) rotate(-180)" width="6.08" x="158.27" y="119.99"/>
      <line style="fill: #36322e;stroke: #a7a29f;stroke-miterlimit: 10" x1="161.34" x2="158.51" y1="121.35" y2="121.35"/>
      <path d="M157.88,120.7h1.39a.51.51,0,0,1,.51.51v.24a.57.57,0,0,1-.57.57h-1.33a0,0,0,0,1,0,0V120.7a0,0,0,0,1,0,0Z" style="fill: #dadada" transform="translate(317.65 242.71) rotate(-180)"/>
      <line style="fill: none;stroke: #dadada;stroke-linecap: round;stroke-miterlimit: 10;stroke-width: 1.2000000000000002px" x1="163.76" x2="162.14" y1="121.35" y2="121.35"/>
      <rect height="2.72" rx="1.25" ry="1.25" style="fill: #36322e" transform="translate(322.63 250.04) rotate(-180)" width="6.08" x="158.27" y="123.66"/>
      <line style="fill: #36322e;stroke: #a7a29f;stroke-miterlimit: 10" x1="161.34" x2="158.51" y1="125.02" y2="125.02"/>
      <path d="M157.88,124.36h1.39a.51.51,0,0,1,.51.51v.24a.57.57,0,0,1-.57.57h-1.33a0,0,0,0,1,0,0v-1.31A0,0,0,0,1,157.88,124.36Z" style="fill: #dadada" transform="translate(317.65 250.04) rotate(-180)"/>
      <line style="fill: none;stroke: #dadada;stroke-linecap: round;stroke-miterlimit: 10;stroke-width: 1.2000000000000002px" x1="163.76" x2="162.14" y1="125.02" y2="125.02"/>
      <rect height="2.72" rx="1.25" ry="1.25" style="fill: #36322e" transform="translate(322.63 257.37) rotate(-180)" width="6.08" x="158.27" y="127.32"/>
      <line style="fill: #36322e;stroke: #a7a29f;stroke-miterlimit: 10" x1="161.34" x2="158.51" y1="128.69" y2="128.69"/>
      <path d="M157.88,128h1.39a.51.51,0,0,1,.51.51v.24a.57.57,0,0,1-.57.57h-1.33a0,0,0,0,1,0,0V128A0,0,0,0,1,157.88,128Z" style="fill: #dadada" transform="translate(317.65 257.37) rotate(-180)"/>
      <line style="fill: none;stroke: #dadada;stroke-linecap: round;stroke-miterlimit: 10;stroke-width: 1.2000000000000002px" x1="163.76" x2="162.14" y1="128.69" y2="128.69"/>
    </g>
    <g>
      <rect height="4.61" style="fill: #3d3c3d" width="4.61" x="169.62" y="134.72"/>
      <rect height="4.28" style="fill: #3d3c3d" width="4.28" x="169.56" y="129.84"/>
      <polygon points="170.57 135.4 173.1 135.4 173.1 138.69 172.41 138.69 172.2 139.09 171.49 139.09 171.41 138.65 170.57 138.69 170.41 137.68 169.63 137.68 169.63 136.28 170.53 136.28 170.57 135.4" style="fill: #bbb5b8"/>
      <line style="fill: none;stroke: #bbb5b8;stroke-miterlimit: 10;stroke-width: 0.25px" x1="169.85" x2="171.5" y1="139.46" y2="139.46"/>
      <line style="fill: none;stroke: #bbb5b8;stroke-miterlimit: 10;stroke-width: 0.25px" x1="172.38" x2="174.02" y1="139.46" y2="139.46"/>
      <line style="fill: none;stroke: #bbb5b8;stroke-miterlimit: 10;stroke-width: 0.25px" x1="173.2" x2="174.23" y1="136.35" y2="136.35"/>
      <line style="fill: none;stroke: #bbb5b8;stroke-miterlimit: 10;stroke-width: 0.25px" x1="173.35" x2="174.23" y1="138.36" y2="138.36"/>
    </g>
    <g>
      <rect height="4.61" style="fill: #3d3c3d" width="4.61" x="175.31" y="134.72"/>
      <polygon points="176.26 135.4 178.79 135.4 178.79 138.69 178.09 138.69 177.89 139.09 177.18 139.09 177.09 138.65 176.26 138.69 176.09 137.68 175.32 137.68 175.32 136.28 176.22 136.28 176.26 135.4" style="fill: #bbb5b8"/>
      <line style="fill: none;stroke: #bbb5b8;stroke-miterlimit: 10;stroke-width: 0.25px" x1="175.54" x2="177.19" y1="139.46" y2="139.46"/>
      <line style="fill: none;stroke: #bbb5b8;stroke-miterlimit: 10;stroke-width: 0.25px" x1="178.06" x2="179.71" y1="139.46" y2="139.46"/>
      <line style="fill: none;stroke: #bbb5b8;stroke-miterlimit: 10;stroke-width: 0.25px" x1="178.89" x2="179.92" y1="136.35" y2="136.35"/>
    </g>
    <g>
      <rect height="4.61" style="fill: #3d3c3d" width="4.61" x="181.5" y="134.72"/>
      <polygon points="182.45 135.4 184.98 135.4 184.98 138.69 184.28 138.69 184.07 139.09 183.37 139.09 183.28 138.65 182.45 138.69 182.28 137.68 181.51 137.68 181.51 136.28 182.41 136.28 182.45 135.4" style="fill: #bbb5b8"/>
      <line style="fill: none;stroke: #bbb5b8;stroke-miterlimit: 10;stroke-width: 0.25px" x1="181.73" x2="183.37" y1="139.46" y2="139.46"/>
      <line style="fill: none;stroke: #bbb5b8;stroke-miterlimit: 10;stroke-width: 0.25px" x1="184.25" x2="185.9" y1="139.46" y2="139.46"/>
      <line style="fill: none;stroke: #bbb5b8;stroke-miterlimit: 10;stroke-width: 0.25px" x1="185.07" x2="186.11" y1="136.35" y2="136.35"/>
    </g>
    <rect height="2.92" style="fill: #36322e" width="7.72" x="102.62" y="110.52"/>
    <g>
      <path d="M104.63,112.27l.2,0a.43.43,0,0,0,.07.26.23.23,0,0,0,.18.07.27.27,0,0,0,.14,0,.2.2,0,0,0,.08-.1.71.71,0,0,0,0-.21v-1.16h.22v1.15a.83.83,0,0,1-.05.33.36.36,0,0,1-.16.18.53.53,0,0,1-.26.06.44.44,0,0,1-.34-.13A.53.53,0,0,1,104.63,112.27Z"/>
      <path d="M105.84,112.3l.21,0a.45.45,0,0,0,.12.25.3.3,0,0,0,.21.08.33.33,0,0,0,.25-.1.34.34,0,0,0,.1-.25.32.32,0,0,0-.09-.24.32.32,0,0,0-.24-.09l-.15,0,0-.18h0a.42.42,0,0,0,.24-.07.24.24,0,0,0,.11-.21.25.25,0,0,0-.08-.19.27.27,0,0,0-.2-.07.28.28,0,0,0-.2.08.38.38,0,0,0-.1.23l-.21,0a.53.53,0,0,1,.17-.32.5.5,0,0,1,.33-.11.54.54,0,0,1,.25.06.42.42,0,0,1,.18.16.41.41,0,0,1,.06.22.35.35,0,0,1-.06.2.15.15,0,1,0,.06.29.43.43,0,0,1,.08.27.5.5,0,0,1-.16.37.57.57,0,0,1-.41.15.53.53,0,0,1-.37-.13A.51.51,0,0,1,105.84,112.3Z"/>
      <path d="M107.7,112.75V112l-.65-1h.27l.33.51.17.28.18-.3.33-.5h.26l-.67,1v.71Z"/>
    </g>
    <g>
      <path d="M98.63,134.51a.21.21,0,1,1-.42,0v-3H99.6a.61.61,0,0,1,.48.17.63.63,0,0,1,.2.55v.57a.69.69,0,0,1-.17.54.64.64,0,0,1-.56.2h-.92Zm0-1.44h.93c.25,0,.3-.06.3-.3v-.58c0-.24-.05-.3-.3-.3h-.93Z" style="fill: #fff"/>
      <path d="M103.18,132.64a1,1,0,0,1,.11.46,1,1,0,0,1-.14.5l-.38.77a.55.55,0,0,1-1,0l-.38-.77a1,1,0,0,1-.14-.5,1,1,0,0,1,.11-.46l.42-.83a.55.55,0,0,1,1,0Zm-.78-.63c0-.07-.05-.13-.14-.13s-.11.06-.14.13l-.38.76a.64.64,0,0,0-.1.34.56.56,0,0,0,.07.28l.4.79c0,.06.06.13.14.13s.11-.07.14-.13l.4-.79a.56.56,0,0,0,.07-.28.64.64,0,0,0-.1-.34Z" style="fill: #fff"/>
      <path d="M105.52,134.72c-.14,0-.23,0-.25-.18h0c0,.15-.11.18-.25.18h-.31a.23.23,0,0,1-.25-.15l-.15-.25a.29.29,0,0,1-.06-.21v-2.42a.21.21,0,1,1,.42,0v2.42l.11.2h.18l.11-.2v-1.32c0-.13.06-.25.21-.25s.21.12.21.25v1.32l.11.2h.18l.11-.2v-2.42a.21.21,0,0,1,.42,0v2.42a.3.3,0,0,1-.06.21l-.15.25a.23.23,0,0,1-.25.15Z" style="fill: #fff"/>
      <path d="M109.09,134.3a.21.21,0,1,1,0,.42h-1.86v-3.25h1.86a.21.21,0,1,1,0,.42h-1.44v1h.61a.21.21,0,1,1,0,.42h-.61v1Z" style="fill: #fff"/>
      <path d="M110.66,134.51a.21.21,0,1,1-.42,0v-3h1.4a.63.63,0,0,1,.66.61v.29a.61.61,0,0,1-.66.59h-.38l.94,1.35a.42.42,0,0,1,.1.22.2.2,0,0,1-.21.2.22.22,0,0,1-.18-.12L110.76,133h-.1Zm0-2h.93c.12,0,.3,0,.3-.18v-.29c0-.17-.17-.19-.3-.19h-.93Z" style="fill: #fff"/>
    </g>
    <g>
      <path d="M94.76,106.1a.21.21,0,0,1,0,.43H92.88v-3.1a.21.21,0,1,1,.42,0v2.67Z" style="fill: #fff"/>
      <path d="M97.81,106.1a.21.21,0,0,1,0,.43H95.93v-3.31h1.88a.21.21,0,0,1,0,.43H96.35v1H97a.21.21,0,0,1,0,.43h-.62v1Z" style="fill: #fff"/>
      <path d="M99.4,103.64h-.16c-.14,0-.26-.05-.26-.21s.11-.21.25-.21h.71a.64.64,0,0,1,.64.43l.37.75a1,1,0,0,1,0,1l-.39.77a.64.64,0,0,1-.67.4h-.7a.21.21,0,0,1,0-.43h.2Zm.42,2.46h.08c.18,0,.22,0,.3-.18l.37-.76a.6.6,0,0,0,.08-.28.72.72,0,0,0-.11-.35l-.35-.72c-.09-.18-.13-.18-.32-.18h-.05Z" style="fill: #fff"/>
    </g>
    <g>
      <path d="M193.48,130.68a.56.56,0,0,1,.15.36.48.48,0,0,1-.54.48h-.94a.63.63,0,0,1-.43-.14.54.54,0,0,1-.2-.4.23.23,0,0,1,.23-.26.21.21,0,0,1,.2.22c0,.13.07.15.19.15h.93s.14,0,.14-.05-.06-.1-.08-.12L191.66,129a.52.52,0,0,1-.14-.35.48.48,0,0,1,.23-.41.57.57,0,0,1,.36-.08H193a.61.61,0,0,1,.42.14.58.58,0,0,1,.2.41.22.22,0,0,1-.22.25.19.19,0,0,1-.21-.2c0-.15-.07-.17-.21-.17h-.91s-.15,0-.15.06,0,.09.06.12Z" style="fill: #fff"/>
      <path d="M195.75,131.52a.64.64,0,0,1-.64-.41l-.39-.8a1,1,0,0,1-.12-.45.93.93,0,0,1,.12-.48l.39-.79a.64.64,0,0,1,.66-.41h.73a.21.21,0,0,1,0,.43h-.72c-.18,0-.21,0-.3.18l-.37.75a.66.66,0,0,0-.09.33.6.6,0,0,0,.09.3l.37.74c.08.18.13.19.32.19h.7a.2.2,0,0,1,.21.21.2.2,0,0,1-.21.21Z" style="fill: #fff"/>
      <path d="M199.59,131.09a.21.21,0,0,1,0,.43h-1.9V128.4a.21.21,0,1,1,.43,0v2.69Z" style="fill: #fff"/>
    </g>
    <g>
      <path d="M193.48,123.76a.56.56,0,0,1,.15.36.48.48,0,0,1-.54.48h-.94a.63.63,0,0,1-.43-.14.54.54,0,0,1-.2-.4.23.23,0,0,1,.23-.26.21.21,0,0,1,.2.22c0,.13.07.15.19.15h.93s.14,0,.14-.05-.06-.1-.08-.12l-1.47-1.89a.52.52,0,0,1-.14-.35.48.48,0,0,1,.23-.41.57.57,0,0,1,.36-.08H193a.61.61,0,0,1,.42.14.58.58,0,0,1,.2.41.22.22,0,0,1-.22.25.19.19,0,0,1-.21-.2c0-.15-.07-.17-.21-.17h-.91s-.15,0-.15.06,0,.09.06.12Z" style="fill: #fff"/>
      <path d="M195,121.69h-.16c-.14,0-.26-.05-.26-.21s.12-.21.25-.21h.72a.64.64,0,0,1,.65.43l.38.75a1,1,0,0,1,0,1l-.39.78a.65.65,0,0,1-.68.4h-.71a.21.21,0,1,1,0-.43H195Zm.43,2.48h.08c.18,0,.22,0,.3-.18l.38-.76a.6.6,0,0,0,.08-.28.71.71,0,0,0-.11-.35l-.36-.72c-.09-.18-.13-.18-.33-.18h-.05Z" style="fill: #fff"/>
      <path d="M198.52,121.48c0-.12.08-.22.22-.22s.19.11.22.22l.83,2.9c0,.1-.08.21-.21.21a.26.26,0,0,1-.23-.21l-.16-.51h-.91l-.16.51a.26.26,0,0,1-.23.21c-.12,0-.24-.11-.21-.21Zm.22.8h0l-.33,1.16h.67Z" style="fill: #fff"/>
    </g>
    <g>
      <path d="M193.21,115.08v-.69a.21.21,0,1,1,.43,0v.68a.44.44,0,0,1,0,.17l-.82,2.09c0,.11-.08.19-.21.19s-.17-.08-.21-.19l-.82-2.09a.47.47,0,0,1,0-.17v-.68a.21.21,0,1,1,.43,0v.69l.63,1.64Z" style="fill: #fff"/>
      <path d="M195.75,117.51a.64.64,0,0,1-.64-.41l-.39-.8a1,1,0,0,1-.12-.45.93.93,0,0,1,.12-.48l.39-.79a.64.64,0,0,1,.66-.41h.73a.21.21,0,0,1,0,.43h-.72c-.18,0-.21,0-.3.18l-.37.75a.66.66,0,0,0-.09.33.6.6,0,0,0,.09.3l.37.74c.08.18.13.19.32.19h.7a.2.2,0,0,1,.21.21.2.2,0,0,1-.21.21Z" style="fill: #fff"/>
      <path d="M198.84,117.51a.64.64,0,0,1-.64-.41l-.39-.8a1,1,0,0,1-.12-.45.93.93,0,0,1,.12-.48l.39-.79a.64.64,0,0,1,.66-.41h.73a.21.21,0,0,1,0,.43h-.72c-.18,0-.21,0-.3.18l-.37.75a.66.66,0,0,0-.09.33.6.6,0,0,0,.09.3l.37.74c.08.18.13.19.32.19h.7a.2.2,0,0,1,.21.21.2.2,0,0,1-.21.21Z" style="fill: #fff"/>
    </g>
    <g>
      <path d="M192.79,109.3a.21.21,0,0,1,0-.43h.84v.84a.64.64,0,0,1-.69.67h-.74a.65.65,0,0,1-.49-.17.62.62,0,0,1-.2-.53v-1.07a.88.88,0,0,1,.22-.63l.51-.65a.65.65,0,0,1,.6-.29h.58a.21.21,0,0,1,0,.43h-.51c-.24,0-.22,0-.36.18l-.47.6a.81.81,0,0,0-.13.56v.84c0,.24.05.31.3.31h.68c.15,0,.28,0,.28-.22v-.44Z" style="fill: #fff"/>
      <path d="M196.29,107.27a.21.21,0,0,1,.43,0v3.12h-.57L195,107.82h0v2.36a.21.21,0,1,1-.43,0v-3.12h.57l1.12,2.6h0Z" style="fill: #fff"/>
      <path d="M198.1,107.48h-.16c-.14,0-.26-.05-.26-.21s.12-.21.25-.21h.72a.64.64,0,0,1,.65.43l.38.75a1,1,0,0,1,0,1l-.39.78a.65.65,0,0,1-.68.4h-.71a.21.21,0,1,1,0-.43h.21Zm.43,2.48h.08c.18,0,.22,0,.3-.18l.38-.76a.6.6,0,0,0,.08-.28.71.71,0,0,0-.11-.35l-.36-.72c-.09-.18-.13-.18-.33-.18h-.05Z" style="fill: #fff"/>
    </g>
    <g>
      <path d="M170.1,140.47c0-.11.07-.2.2-.2s.18.1.21.2l.76,2.67c0,.09-.08.2-.19.2a.23.23,0,0,1-.21-.2l-.15-.47h-.84l-.15.47a.23.23,0,0,1-.21.2c-.11,0-.22-.1-.19-.2Zm.2.73h0l-.31,1.07h.62Z" style="fill: #fff"/>
      <path d="M173.72,140.27a.39.39,0,0,1,.39.39v2.28a.39.39,0,0,1-.39.39h-1.16a.39.39,0,0,1-.39-.39v-2.28a.39.39,0,0,1,.39-.39Zm0,2.67v-2.28h-1.16v2.28Z" style="fill: #fff"/>
    </g>
    <g>
      <path d="M175.94,140.47c0-.11.07-.2.2-.2s.18.1.21.2l.76,2.67c0,.09-.08.2-.19.2a.23.23,0,0,1-.21-.2l-.15-.47h-.84l-.15.47a.23.23,0,0,1-.21.2c-.11,0-.22-.1-.19-.2Zm.2.73h0l-.31,1.07h.62Z" style="fill: #fff"/>
      <path d="M179.55,142.94v-.79a.2.2,0,1,1,.39,0v1a.18.18,0,0,1-.2.2H178.2a.2.2,0,0,1,0-.39h.58v-2.28h-.58a.2.2,0,0,1,0-.39h1v2.67Z" style="fill: #fff"/>
    </g>
    <g>
      <path d="M182,140.47c0-.11.07-.2.2-.2s.18.1.21.2l.76,2.67c0,.09-.08.2-.19.2a.23.23,0,0,1-.21-.2l-.15-.47h-.84l-.15.47a.23.23,0,0,1-.21.2c-.11,0-.22-.1-.19-.2Zm.2.73h0l-.31,1.07h.62Z" style="fill: #fff"/>
      <path d="M184.44,142.94h1.35a.2.2,0,1,1,0,.39H184V142a.39.39,0,0,1,.44-.45h1.11v-.94h-1.35a.2.2,0,0,1,0-.39h1.31a.41.41,0,0,1,.44.46v.81a.41.41,0,0,1-.44.46h-1.11Z" style="fill: #fff"/>
    </g>
    <rect height="1.71" style="fill: #9f8f89" transform="translate(-37.51 192.74) rotate(-90)" width="4.38" x="75.43" y="114.27"/>
    <rect height="1.71" rx="0.85" ry="0.85" style="fill: #9f8f89" transform="translate(152.19 223.42) rotate(-180)" width="4.38" x="73.91" y="110.85"/>
    <rect height="1.71" rx="0.85" ry="0.85" style="fill: #9f8f89" transform="translate(152.19 237.42) rotate(180)" width="4.38" x="73.91" y="117.85"/>
    <rect height="4.08" style="fill: #595859" width="3.38" x="77.03" y="108.9"/>
    <rect height="4.08" style="fill: #595859" width="3.38" x="77.03" y="117.29"/>
    <path d="M91.82,122.41H79.91v-5.09a2,2,0,0,0,1.63-2.21A1.9,1.9,0,0,0,79.91,113v-4.8H91.82Z" style="fill: #434244"/>
    <g>
      <polygon points="98.66 115.93 93.7 115.93 92.68 114.28 92.68 109.12 93.86 108.23 98.69 108.23 99.8 109.29 99.8 114.22 98.66 115.93" style="fill: #434244"/>
      <polygon points="93.65 115.93 98.59 115.93 99.8 116.87 99.8 122.42 98.62 123.31 93.79 123.31 92.68 122.25 92.68 116.72 93.65 115.93" style="fill: #434244"/>
      <rect height="1.1" style="fill: #595859" width="4.38" x="94.01" y="114.83"/>
      <rect height="5.71" style="fill: #595859" width="5.13" x="93.61" y="116.22"/>
      <polygon points="98.38 123.94 97.53 123.94 96.65 123.28 94.55 123.94 94.01 123.94 94.01 122.61 98.38 122.61 98.38 123.94" style="fill: #595859"/>
    </g>
    <rect height="1.71" style="fill: #9f8f89" width="4.88" x="91.82" y="111.23"/>
    <rect height="1.71" style="fill: #9f8f89" width="4.88" x="91.82" y="118.44"/>
    <path d="M76,108.08h.91a.75.75,0,0,1,.75.75V113a0,0,0,0,1,0,0h-2.5a0,0,0,0,1,0,0v-4.05A.84.84,0,0,1,76,108.08Z" style="fill: #434244"/>
    <path d="M75.93,117.29h.91a.75.75,0,0,1,.75.75v4.15a0,0,0,0,1,0,0h-2.5a0,0,0,0,1,0,0v-4.05a.84.84,0,0,1,.84-.84Z" style="fill: #434244" transform="translate(152.66 239.48) rotate(180)"/>
    <polyline points="94.49 92.36 93.11 92.36 93.11 98.48 207.62 98.48 207.62 92.36" style="fill: none;stroke: #fff;stroke-miterlimit: 10;stroke-width: 0.5px"/>
    <polyline points="207.62 105.04 200.93 105.04 200.93 133.48 207.93 133.48" style="fill: none;stroke: #fff;stroke-miterlimit: 10;stroke-width: 0.5px"/>
    <line style="fill: none;stroke: #fff;stroke-miterlimit: 10;stroke-width: 0.5px" x1="200.93" x2="207.93" y1="112.1" y2="112.1"/>
    <line style="fill: none;stroke: #fff;stroke-miterlimit: 10;stroke-width: 0.5px" x1="200.93" x2="207.93" y1="119.26" y2="119.26"/>
    <line style="fill: none;stroke: #fff;stroke-miterlimit: 10;stroke-width: 0.5px" x1="200.93" x2="207.93" y1="126.6" y2="126.6"/>
    <polyline points="108.86 125.36 108.86 130.6 114.68 130.6 114.68 125.36" style="fill: none;stroke: #fff;stroke-miterlimit: 10;stroke-width: 0.5px"/>
    <polyline points="114.68 122.67 114.68 117.51 108.86 117.51 108.86 122.67" style="fill: none;stroke: #fff;stroke-miterlimit: 10;stroke-width: 0.5px"/>
    <polyline points="114.89 110.22 114.89 115.47 120.7 115.47 120.7 110.22" style="fill: none;stroke: #fff;stroke-miterlimit: 10;stroke-width: 0.5px"/>
    <polyline points="101.81 125.91 101.81 130.6 107.62 130.6 107.62 125.91" style="fill: none;stroke: #fff;stroke-miterlimit: 10;stroke-width: 0.47269469499588px"/>
    <polyline points="107.79 123.66 107.79 118.97 101.98 118.97 101.98 123.66" style="fill: none;stroke: #fff;stroke-miterlimit: 10;stroke-width: 0.47269469499588px"/>
    <polyline points="120.7 107.53 120.7 102.37 114.89 102.37 114.89 107.53" style="fill: none;stroke: #fff;stroke-miterlimit: 10;stroke-width: 0.5px"/>
    <polyline points="121.98 110.22 121.98 115.47 127.8 115.47 127.8 110.22" style="fill: none;stroke: #fff;stroke-miterlimit: 10;stroke-width: 0.5px"/>
    <polyline points="127.8 107.53 127.8 102.37 121.98 102.37 121.98 107.53" style="fill: none;stroke: #fff;stroke-miterlimit: 10;stroke-width: 0.5px"/>
    <polyline points="115.86 125.36 115.86 130.6 121.68 130.6 121.68 125.36" style="fill: none;stroke: #fff;stroke-miterlimit: 10;stroke-width: 0.5px"/>
    <polyline points="121.68 122.67 121.68 117.51 115.86 117.51 115.86 122.67" style="fill: none;stroke: #fff;stroke-miterlimit: 10;stroke-width: 0.5px"/>
    <polyline points="122.86 125.36 122.86 130.6 128.68 130.6 128.68 125.36" style="fill: none;stroke: #fff;stroke-miterlimit: 10;stroke-width: 0.5px"/>
    <polyline points="128.68 122.67 128.68 117.51 122.86 117.51 122.86 122.67" style="fill: none;stroke: #fff;stroke-miterlimit: 10;stroke-width: 0.5px"/>
    <polyline points="122.22 134.92 116.97 134.92 116.97 140.73 122.22 140.73" style="fill: none;stroke: #fff;stroke-miterlimit: 10;stroke-width: 0.5px"/>
    <polyline points="124.91 140.73 130.07 140.73 130.07 134.92 124.91 134.92" style="fill: none;stroke: #fff;stroke-miterlimit: 10;stroke-width: 0.5px"/>
    <polyline points="137.22 134.92 131.97 134.92 131.97 140.73 137.22 140.73" style="fill: none;stroke: #fff;stroke-miterlimit: 10;stroke-width: 0.5px"/>
    <polyline points="139.91 140.73 145.07 140.73 145.07 134.92 139.91 134.92" style="fill: none;stroke: #fff;stroke-miterlimit: 10;stroke-width: 0.5px"/>
    <polyline points="152.22 134.92 146.97 134.92 146.97 140.73 152.22 140.73" style="fill: none;stroke: #fff;stroke-miterlimit: 10;stroke-width: 0.5px"/>
    <polyline points="154.91 140.73 160.07 140.73 160.07 134.92 154.91 134.92" style="fill: none;stroke: #fff;stroke-miterlimit: 10;stroke-width: 0.5px"/>
    <polyline points="104.67 108.81 102.62 108.81 102.62 110.13" style="fill: none;stroke: #fff;stroke-miterlimit: 10;stroke-width: 0.47269469499588px"/>
    <polyline points="109.36 108.81 110.91 108.81 110.91 112.33" style="fill: none;stroke: #fff;stroke-miterlimit: 10;stroke-width: 0.47269469499588px"/>
    <line style="fill: none;stroke: #fff;stroke-miterlimit: 10;stroke-width: 0.47269469499588px" x1="105.99" x2="101.84" y1="116.77" y2="116.77"/>
    <circle cx="115.32" cy="114.14" r="0.63" style="fill: none;stroke: #9b8781;stroke-miterlimit: 10;stroke-width: 0.5px"/>
    <circle cx="127.37" cy="115.33" r="0.63" style="fill: none;stroke: #9b8781;stroke-miterlimit: 10;stroke-width: 0.5px"/>
    <circle cx="118.4" cy="117.51" r="0.63" style="fill: none;stroke: #9b8781;stroke-miterlimit: 10;stroke-width: 0.5px"/>
    <rect height="4.29" style="fill: #ccc" width="111.27" x="94.26" y="92.68"/>
  </g>
  <g data-name="Layer 5" id="Layer_5">
    <g id="Body">
      <path d="M226.77,102V0H0V102ZM219.69,3.49a3.6,3.6,0,1,1-3.6,3.6A3.6,3.6,0,0,1,219.69,3.49Zm0,87.87a3.6,3.6,0,1,1-3.6,3.6A3.6,3.6,0,0,1,219.69,91.36Zm-15.59,2a1.44,1.44,0,1,1-1.44,1.44A1.44,1.44,0,0,1,204.09,93.34Zm-7.2,0a1.44,1.44,0,1,1-1.44,1.44A1.44,1.44,0,0,1,196.89,93.34Zm-7.2,0a1.44,1.44,0,1,1-1.44,1.44A1.44,1.44,0,0,1,189.69,93.34Zm-7.2,0a1.44,1.44,0,1,1-1.44,1.44A1.44,1.44,0,0,1,182.49,93.34Zm-7.2,0a1.44,1.44,0,1,1-1.44,1.44A1.44,1.44,0,0,1,175.29,93.34Zm-7.2,0a1.44,1.44,0,1,1-1.44,1.44A1.44,1.44,0,0,1,168.09,93.34Zm-7.2,0a1.44,1.44,0,1,1-1.44,1.44A1.44,1.44,0,0,1,160.89,93.34Zm-7.2,0a1.44,1.44,0,1,1-1.44,1.44A1.44,1.44,0,0,1,153.69,93.34Zm-7.2,0a1.44,1.44,0,1,1-1.44,1.44A1.44,1.44,0,0,1,146.49,93.34Zm-7.2,0a1.44,1.44,0,1,1-1.44,1.44A1.44,1.44,0,0,1,139.29,93.34Zm-7.2,0a1.44,1.44,0,1,1-1.44,1.44A1.44,1.44,0,0,1,132.09,93.34Zm-7.2,0a1.44,1.44,0,1,1-1.44,1.44A1.44,1.44,0,0,1,124.89,93.34Zm-7.2,0a1.44,1.44,0,1,1-1.44,1.44A1.44,1.44,0,0,1,117.69,93.34Zm-7.2,0a1.44,1.44,0,1,1-1.44,1.44A1.44,1.44,0,0,1,110.49,93.34Zm-7.2,0a1.44,1.44,0,1,1-1.44,1.44A1.44,1.44,0,0,1,103.29,93.34Zm-7.2,0a1.44,1.44,0,1,1-1.44,1.44A1.44,1.44,0,0,1,96.09,93.34ZM7.09,3.49a3.6,3.6,0,1,1-3.6,3.6A3.6,3.6,0,0,1,7.09,3.49Zm0,87.87A3.6,3.6,0,1,1,3.49,95,3.6,3.6,0,0,1,7.09,91.36Z" style="fill: url(#linear-gradient)"/>
      <polygon points="10.97 81.85 212.57 81.85 212.57 14.06 210.65 12.46 14.07 12.46 10.97 15.57 10.97 81.85" style="fill: #2b6d2d;opacity: 0.5"/>
      <polygon points="15 86.14 211.77 86.14 214.3 83.62 214.3 17.23 211.77 14.71 15 14.71 12.47 17.23 12.47 83.62 15 86.14" style="fill: #303030"/>
      <rect height="45.35" rx="3.05" ry="3.05" style="fill: #21201e" transform="translate(226.77 100.85) rotate(180)" width="187.09" x="19.84" y="27.75"/>
      <polygon points="27.2 34.13 199.57 34.13 199.57 49.14 199.57 66.72 27.2 66.72 27.2 34.13" style="fill: #2b6d2d"/>
      <g>
        <path d="M19.84,80.23a1.62,1.62,0,0,0,1.62,1.62H205.31a1.62,1.62,0,0,0,1.62-1.62,1.6,1.6,0,0,0,0-.2h-187A1.6,1.6,0,0,0,19.84,80.23Z" style="fill: #21201e"/>
        <path d="M206.91,80a1.62,1.62,0,0,0-1.6-1.43H21.46A1.62,1.62,0,0,0,19.86,80Z" style="fill: #4d4d4d"/>
      </g>
      <g>
        <path d="M19.84,20.62a1.62,1.62,0,0,0,1.62,1.62H205.31a1.62,1.62,0,0,0,1.62-1.62,1.6,1.6,0,0,0,0-.2h-187A1.6,1.6,0,0,0,19.84,20.62Z" style="fill: #21201e"/>
        <path d="M206.91,20.43a1.62,1.62,0,0,0-1.6-1.43H21.46a1.62,1.62,0,0,0-1.6,1.43Z" style="fill: #4d4d4d"/>
      </g>
      <g>
        <line style="fill: #006837;stroke: #303030;stroke-miterlimit: 10;stroke-width: 0.25px;opacity: 0.30000000000000004" x1="27.2" x2="199.57" y1="50.43" y2="50.43"/>
        <line style="fill: #006837;stroke: #303030;stroke-miterlimit: 10;stroke-width: 0.25px;opacity: 0.30000000000000004" x1="188.95" x2="188.95" y1="66.72" y2="34.13"/>
        <line style="fill: #006837;stroke: #303030;stroke-miterlimit: 10;stroke-width: 0.25px;opacity: 0.30000000000000004" x1="178.18" x2="178.18" y1="66.72" y2="34.13"/>
        <line style="fill: #006837;stroke: #303030;stroke-miterlimit: 10;stroke-width: 0.25px;opacity: 0.30000000000000004" x1="167.41" x2="167.41" y1="66.72" y2="34.13"/>
        <line style="fill: #006837;stroke: #303030;stroke-miterlimit: 10;stroke-width: 0.25px;opacity: 0.30000000000000004" x1="156.64" x2="156.64" y1="66.72" y2="34.13"/>
        <line style="fill: #006837;stroke: #303030;stroke-miterlimit: 10;stroke-width: 0.25px;opacity: 0.30000000000000004" x1="145.86" x2="145.86" y1="66.72" y2="34.13"/>
        <line style="fill: #006837;stroke: #303030;stroke-miterlimit: 10;stroke-width: 0.25px;opacity: 0.30000000000000004" x1="135.09" x2="135.09" y1="66.72" y2="34.13"/>
        <line style="fill: #006837;stroke: #303030;stroke-miterlimit: 10;stroke-width: 0.25px;opacity: 0.30000000000000004" x1="124.32" x2="124.32" y1="66.72" y2="34.13"/>
        <line style="fill: #006837;stroke: #303030;stroke-miterlimit: 10;stroke-width: 0.25px;opacity: 0.30000000000000004" x1="113.54" x2="113.54" y1="66.72" y2="34.13"/>
        <line style="fill: #006837;stroke: #303030;stroke-miterlimit: 10;stroke-width: 0.25px;opacity: 0.30000000000000004" x1="102.77" x2="102.77" y1="66.72" y2="34.13"/>
        <line style="fill: #006837;stroke: #303030;stroke-miterlimit: 10;stroke-width: 0.25px;opacity: 0.30000000000000004" x1="92" x2="92" y1="66.72" y2="34.13"/>
        <line style="fill: #006837;stroke: #303030;stroke-miterlimit: 10;stroke-width: 0.25px;opacity: 0.30000000000000004" x1="81.22" x2="81.22" y1="66.72" y2="34.13"/>
        <line style="fill: #006837;stroke: #303030;stroke-miterlimit: 10;stroke-width: 0.25px;opacity: 0.30000000000000004" x1="70.45" x2="70.45" y1="66.72" y2="34.13"/>
        <line style="fill: #006837;stroke: #303030;stroke-miterlimit: 10;stroke-width: 0.25px;opacity: 0.30000000000000004" x1="59.68" x2="59.68" y1="66.72" y2="34.13"/>
        <line style="fill: #006837;stroke: #303030;stroke-miterlimit: 10;stroke-width: 0.25px;opacity: 0.30000000000000004" x1="48.9" x2="48.9" y1="66.72" y2="34.13"/>
        <line style="fill: #006837;stroke: #303030;stroke-miterlimit: 10;stroke-width: 0.25px;opacity: 0.30000000000000004" x1="38.13" x2="38.13" y1="66.72" y2="34.13"/>
      </g>
      <circle cx="7.06" cy="7.15" r="3.97" style="fill: #e8e5df"/>
      <circle cx="7.03" cy="94.98" r="3.97" style="fill: #e8e5df"/>
      <circle cx="219.78" cy="7.15" r="3.97" style="fill: #e8e5df"/>
      <circle cx="219.74" cy="94.98" r="3.97" style="fill: #e8e5df"/>
      <rect height="32.6" style="opacity: 0.15;fill: url(#linear-gradient-2)" transform="translate(226.42 100.85) rotate(180)" width="172.02" x="27.2" y="34.13"/>
    </g>
    <g id="parts">
      <path d="M98.64,102V94.45a2.55,2.55,0,0,0-5.1,0V102Zm-2.55-8.7a1.44,1.44,0,1,1-1.44,1.44A1.44,1.44,0,0,1,96.09,93.34Z" style="fill: #e8e5df"/>
      <path d="M105.84,102V94.45a2.55,2.55,0,1,0-5.1,0V102Zm-2.55-8.7a1.44,1.44,0,1,1-1.44,1.44A1.44,1.44,0,0,1,103.29,93.34Z" style="fill: #e8e5df"/>
      <path d="M113,102V94.45a2.55,2.55,0,0,0-5.1,0V102Zm-2.55-8.7a1.44,1.44,0,1,1-1.44,1.44A1.44,1.44,0,0,1,110.49,93.34Z" style="fill: #e8e5df"/>
      <path d="M120.24,102V94.45a2.55,2.55,0,0,0-5.1,0V102Zm-2.55-8.7a1.44,1.44,0,1,1-1.44,1.44A1.44,1.44,0,0,1,117.69,93.34Z" style="fill: #e8e5df"/>
      <path d="M127.44,102V94.45a2.55,2.55,0,0,0-5.1,0V102Zm-2.55-8.7a1.44,1.44,0,1,1-1.44,1.44A1.44,1.44,0,0,1,124.89,93.34Z" style="fill: #e8e5df"/>
      <path d="M134.64,102V94.45a2.55,2.55,0,1,0-5.1,0V102Zm-2.55-8.7a1.44,1.44,0,1,1-1.44,1.44A1.44,1.44,0,0,1,132.09,93.34Z" style="fill: #e8e5df"/>
      <path d="M141.84,102V94.45a2.55,2.55,0,1,0-5.1,0V102Zm-2.55-8.7a1.44,1.44,0,1,1-1.44,1.44A1.44,1.44,0,0,1,139.29,93.34Z" style="fill: #e8e5df"/>
      <path d="M149,102V94.45a2.55,2.55,0,1,0-5.1,0V102Zm-2.55-8.7a1.44,1.44,0,1,1-1.44,1.44A1.44,1.44,0,0,1,146.49,93.34Z" style="fill: #e8e5df"/>
      <path d="M156.24,102V94.45a2.55,2.55,0,1,0-5.1,0V102Zm-2.55-8.7a1.44,1.44,0,1,1-1.44,1.44A1.44,1.44,0,0,1,153.69,93.34Z" style="fill: #e8e5df"/>
      <path d="M163.44,102V94.45a2.55,2.55,0,1,0-5.1,0V102Zm-2.55-8.7a1.44,1.44,0,1,1-1.44,1.44A1.44,1.44,0,0,1,160.89,93.34Z" style="fill: #e8e5df"/>
      <path d="M170.64,102V94.45a2.55,2.55,0,1,0-5.1,0V102Zm-2.55-8.7a1.44,1.44,0,1,1-1.44,1.44A1.44,1.44,0,0,1,168.09,93.34Z" style="fill: #e8e5df"/>
      <path d="M177.84,102V94.45a2.55,2.55,0,1,0-5.1,0V102Zm-2.55-8.7a1.44,1.44,0,1,1-1.44,1.44A1.44,1.44,0,0,1,175.29,93.34Z" style="fill: #e8e5df"/>
      <path d="M185,102V94.45a2.55,2.55,0,1,0-5.1,0V102Zm-2.55-8.7a1.44,1.44,0,1,1-1.44,1.44A1.44,1.44,0,0,1,182.49,93.34Z" style="fill: #e8e5df"/>
      <path d="M192.24,102V94.45a2.55,2.55,0,0,0-5.1,0V102Zm-2.55-8.7a1.44,1.44,0,1,1-1.44,1.44A1.44,1.44,0,0,1,189.69,93.34Z" style="fill: #e8e5df"/>
      <path d="M199.44,102V94.45a2.55,2.55,0,0,0-5.1,0V102Zm-2.55-8.7a1.44,1.44,0,1,1-1.44,1.44A1.44,1.44,0,0,1,196.89,93.34Z" style="fill: #e8e5df"/>
      <path d="M206.64,102V94.45a2.55,2.55,0,0,0-5.1,0V102Zm-2.55-8.7a1.44,1.44,0,1,1-1.44,1.44A1.44,1.44,0,0,1,204.09,93.34Z" style="fill: #e8e5df"/>
    </g>
    <g id="Text">
      <path d="M96.9,88.62v2.26a.16.16,0,0,1,0,.12.16.16,0,0,1-.12,0,.16.16,0,0,1-.12,0,.16.16,0,0,1,0-.12v-.78l-1.05.9a.18.18,0,0,1-.12,0,.15.15,0,0,1-.12,0,.16.16,0,0,1,0-.12.15.15,0,0,1,.05-.11l1.19-1-1.19-1a.13.13,0,0,1,0-.11.17.17,0,0,1,0-.12.15.15,0,0,1,.12-.05.18.18,0,0,1,.12,0l1,.9v-.78a.16.16,0,0,1,0-.12.16.16,0,0,1,.23,0A.16.16,0,0,1,96.9,88.62Z" style="fill: #f2f2f2"/>
      <path d="M104.09,88.68l-.66,2.25a.16.16,0,0,1-.17.12.14.14,0,0,1-.15-.1l-.65-2.28a.18.18,0,0,1,0,0,.16.16,0,0,1,0-.12.15.15,0,0,1,.11,0,.15.15,0,0,1,.16.12l.13.45h.75l.14-.48a.1.1,0,0,1,0-.06.17.17,0,0,1,.21,0,.17.17,0,0,1,0,.12A.19.19,0,0,1,104.09,88.68Zm-.82,1.61.28-.94H103Z" style="fill: #f2f2f2"/>
      <g>
        <path d="M112.34,91h-.65a.45.45,0,0,1-.25-.08.51.51,0,0,1-.18-.19l-.32-.66a.77.77,0,0,1,0-.74l.33-.65a.51.51,0,0,1,.18-.2.47.47,0,0,1,.26-.08h.63a.17.17,0,0,1,.16.16.16.16,0,0,1,0,.12.16.16,0,0,1-.12,0h-.17v1.93h.17a.16.16,0,0,1,.12,0,.16.16,0,0,1,0,.12.17.17,0,0,1-.16.16Zm-.5-.33V88.78h-.12a.17.17,0,0,0-.16.11l-.32.64a.5.5,0,0,0-.06.21.44.44,0,0,0,0,.2l.34.67a.18.18,0,0,0,.17.1Z" style="fill: #f2f2f2"/>
        <path d="M110.1,90.74v.14a.16.16,0,0,1,0,.12.16.16,0,0,1-.12,0h-1.49V90a.17.17,0,0,1,.06-.13l.6-.52v-.76a.16.16,0,0,1,0-.12.16.16,0,0,1,.12,0,.16.16,0,0,1,.12,0,.16.16,0,0,1,0,.12v.83a.18.18,0,0,1-.06.14l-.61.51v.61h1a.17.17,0,0,1,.28-.09A.16.16,0,0,1,110.1,90.74Z" style="fill: #f2f2f2"/>
      </g>
      <g>
        <path d="M119.54,91h-.65a.45.45,0,0,1-.25-.08.51.51,0,0,1-.18-.19l-.32-.66a.77.77,0,0,1,0-.74l.33-.65a.51.51,0,0,1,.18-.2.47.47,0,0,1,.26-.08h.63a.17.17,0,0,1,.16.16.16.16,0,0,1,0,.12.16.16,0,0,1-.12,0h-.17v1.93h.17a.16.16,0,0,1,.12,0,.16.16,0,0,1,0,.12.17.17,0,0,1-.16.16Zm-.5-.33V88.78h-.12a.17.17,0,0,0-.16.11l-.32.64a.5.5,0,0,0-.06.21.44.44,0,0,0,0,.2l.34.67a.18.18,0,0,0,.17.1Z" style="fill: #f2f2f2"/>
        <path d="M117.12,91H117a.17.17,0,0,1-.16-.16.16.16,0,0,1,0-.12.16.16,0,0,1,.12,0V89.64H115.8a.16.16,0,0,1-.12,0,.16.16,0,0,1,0-.12v-.85a.15.15,0,0,1,0-.12.17.17,0,0,1,.12,0h1.32a.16.16,0,0,1,.12,0,.16.16,0,0,1,0,.12v2.26a.16.16,0,0,1,0,.12A.17.17,0,0,1,117.12,91ZM117,89.3v-.52h-1v.52Z" style="fill: #f2f2f2"/>
      </g>
      <g>
        <path d="M126.75,91h-.65a.45.45,0,0,1-.25-.08.51.51,0,0,1-.18-.19l-.32-.66a.77.77,0,0,1,0-.74l.33-.65a.51.51,0,0,1,.18-.2.47.47,0,0,1,.26-.08h.63a.17.17,0,0,1,.16.16.16.16,0,0,1,0,.12.16.16,0,0,1-.12,0h-.17v1.93h.17a.16.16,0,0,1,.12,0,.16.16,0,0,1,0,.12.17.17,0,0,1-.16.16Zm-.5-.33V88.78h-.12a.17.17,0,0,0-.16.11l-.32.64a.5.5,0,0,0-.06.21.44.44,0,0,0,0,.2l.34.67a.18.18,0,0,0,.17.1Z" style="fill: #f2f2f2"/>
        <path d="M123.89,88.78h-.76v.8h1V91H123a.17.17,0,0,1-.16-.16.16.16,0,0,1,0-.12.16.16,0,0,1,.12,0h.82v-.8h-.66a.33.33,0,0,1-.33-.33v-.8a.33.33,0,0,1,.33-.33h.76a.57.57,0,0,1,.22,0l.25.1a.15.15,0,0,1,.1.16.16.16,0,0,1,0,.12.15.15,0,0,1-.11,0l-.11,0-.22-.09Z" style="fill: #f2f2f2"/>
      </g>
      <g>
        <path d="M133.94,91h-.65A.45.45,0,0,1,133,91a.51.51,0,0,1-.18-.19l-.32-.66a.77.77,0,0,1,0-.74l.33-.65a.51.51,0,0,1,.18-.2.47.47,0,0,1,.26-.08h.63a.17.17,0,0,1,.16.16.16.16,0,0,1,0,.12.16.16,0,0,1-.12,0h-.17v1.93h.17a.16.16,0,0,1,.12,0,.16.16,0,0,1,0,.12.17.17,0,0,1-.16.16Zm-.5-.33V88.78h-.12a.17.17,0,0,0-.16.11l-.32.64a.5.5,0,0,0-.06.21.44.44,0,0,0,0,.2l.34.67a.18.18,0,0,0,.17.1Z" style="fill: #f2f2f2"/>
        <path d="M130.62,88.62v.68h1v1.58a.17.17,0,0,1-.17.17.16.16,0,0,1-.12,0,.16.16,0,0,1,0-.12V89.64h-.66v1a.16.16,0,0,1,0,.12.16.16,0,0,1-.23,0,.16.16,0,0,1,0-.12v-1a.16.16,0,0,1-.12,0,.17.17,0,0,1,0-.23.16.16,0,0,1,.12,0v-.69a.16.16,0,0,1,0-.12.16.16,0,0,1,.23,0A.16.16,0,0,1,130.62,88.62Z" style="fill: #f2f2f2"/>
      </g>
      <g>
        <path d="M141.15,91h-.65a.45.45,0,0,1-.25-.08.51.51,0,0,1-.18-.19l-.32-.66a.77.77,0,0,1,0-.74l.33-.65a.51.51,0,0,1,.18-.2.47.47,0,0,1,.26-.08h.63a.17.17,0,0,1,.16.16.16.16,0,0,1,0,.12.16.16,0,0,1-.12,0H141v1.93h.17a.16.16,0,0,1,.12,0,.16.16,0,0,1,0,.12.17.17,0,0,1-.16.16Zm-.5-.33V88.78h-.12a.17.17,0,0,0-.16.11l-.32.64a.5.5,0,0,0-.06.21.44.44,0,0,0,0,.2l.34.67a.18.18,0,0,0,.17.1Z" style="fill: #f2f2f2"/>
        <path d="M137.24,90.72V90.1a.47.47,0,0,1,.13-.35.49.49,0,0,1-.14-.33v-.64a.31.31,0,0,1,.1-.23.32.32,0,0,1,.23-.1h1.16a.16.16,0,0,1,.12,0,.17.17,0,0,1,0,.23.16.16,0,0,1-.12,0h-1.16v.64a.16.16,0,0,0,0,.12.16.16,0,0,0,.12,0h.66a.16.16,0,0,1,.12,0,.17.17,0,0,1,0,.23.16.16,0,0,1-.12,0h-.66a.16.16,0,0,0-.12,0,.16.16,0,0,0,0,.12v.63h1.17a.16.16,0,0,1,.12,0,.17.17,0,0,1,0,.23.16.16,0,0,1-.12,0h-1.17a.31.31,0,0,1-.23-.1A.32.32,0,0,1,137.24,90.72Z" style="fill: #f2f2f2"/>
      </g>
      <g>
        <path d="M148.34,91h-.65a.45.45,0,0,1-.25-.08.51.51,0,0,1-.18-.19l-.32-.66a.77.77,0,0,1,0-.74l.33-.65a.51.51,0,0,1,.18-.2.47.47,0,0,1,.26-.08h.63a.17.17,0,0,1,.16.16.16.16,0,0,1,0,.12.16.16,0,0,1-.12,0h-.17v1.93h.17a.16.16,0,0,1,.12,0,.16.16,0,0,1,0,.12.17.17,0,0,1-.16.16Zm-.5-.33V88.78h-.12a.17.17,0,0,0-.16.11l-.32.64a.5.5,0,0,0-.06.21.44.44,0,0,0,0,.2l.34.67a.18.18,0,0,0,.17.1Z" style="fill: #f2f2f2"/>
        <path d="M144.6,88.46h1.49v1.13a.32.32,0,0,1-.1.23.31.31,0,0,1-.23.1h-1v.8h1.17a.16.16,0,1,1,0,.33h-1.17a.32.32,0,0,1-.23-.1.31.31,0,0,1-.1-.23v-.8a.32.32,0,0,1,.1-.24.32.32,0,0,1,.23-.1h1v-.8H144.6a.16.16,0,0,1-.12,0,.16.16,0,0,1,0-.23A.16.16,0,0,1,144.6,88.46Z" style="fill: #f2f2f2"/>
      </g>
      <g>
        <path d="M155.54,91h-.65a.45.45,0,0,1-.25-.08.51.51,0,0,1-.18-.19l-.32-.66a.77.77,0,0,1,0-.74l.33-.65a.51.51,0,0,1,.18-.2.47.47,0,0,1,.26-.08h.63a.17.17,0,0,1,.16.16.16.16,0,0,1,0,.12.16.16,0,0,1-.12,0h-.17v1.93h.17a.16.16,0,0,1,.12,0,.16.16,0,0,1,0,.12.17.17,0,0,1-.16.16Zm-.5-.33V88.78h-.12a.17.17,0,0,0-.16.11l-.32.64a.5.5,0,0,0-.06.21.44.44,0,0,0,0,.2l.34.67a.18.18,0,0,0,.17.1Z" style="fill: #f2f2f2"/>
        <path d="M153.14,88.78h-.5v1.94h.5a.16.16,0,0,1,.12,0,.17.17,0,0,1,0,.23.16.16,0,0,1-.12,0h-.82V88.78H152v.68a.17.17,0,0,1-.16.16.16.16,0,0,1-.12,0,.16.16,0,0,1,0-.12v-.85a.16.16,0,0,1,0-.12.16.16,0,0,1,.12,0h1.32a.16.16,0,0,1,.12,0,.16.16,0,0,1,0,.12.15.15,0,0,1,0,.11A.16.16,0,0,1,153.14,88.78Z" style="fill: #f2f2f2"/>
      </g>
      <g>
        <path d="M162.75,91h-.65a.45.45,0,0,1-.25-.08.51.51,0,0,1-.18-.19l-.32-.66a.77.77,0,0,1,0-.74l.33-.65a.51.51,0,0,1,.18-.2.47.47,0,0,1,.26-.08h.63a.17.17,0,0,1,.16.16.16.16,0,0,1,0,.12.16.16,0,0,1-.12,0h-.17v1.93h.17a.16.16,0,0,1,.12,0,.16.16,0,0,1,0,.12.17.17,0,0,1-.16.16Zm-.5-.33V88.78h-.12a.17.17,0,0,0-.16.11l-.32.64a.5.5,0,0,0-.06.21.44.44,0,0,0,0,.2l.34.67a.18.18,0,0,0,.17.1Z" style="fill: #f2f2f2"/>
        <path d="M160.5,88.77v2a.32.32,0,0,1-.32.32h-1a.3.3,0,0,1-.22-.09.31.31,0,0,1-.09-.22v-2a.31.31,0,0,1,.09-.22.3.3,0,0,1,.22-.09h1a.3.3,0,0,1,.22.09A.31.31,0,0,1,160.5,88.77Zm-1.33,0v1.94h1V88.78Z" style="fill: #f2f2f2"/>
      </g>
      <path d="M167.41,90.72h1.16v-.8h-.5a.17.17,0,0,1-.16-.16.16.16,0,0,1,0-.12.16.16,0,0,1,.12,0h.5v-.8H167.4a.16.16,0,0,1-.12,0,.16.16,0,0,1,0-.12.15.15,0,0,1,0-.12.17.17,0,0,1,.12,0h1.49V91h-1.49a.17.17,0,0,1-.17-.17.16.16,0,0,1,0-.12A.16.16,0,0,1,167.41,90.72Z" style="fill: #f2f2f2"/>
      <g>
        <path d="M184.5,88.62V91h-1.16a.47.47,0,0,1-.35-.15.48.48,0,0,1-.15-.35v-.19A.48.48,0,0,1,183,90a.47.47,0,0,1,.35-.15h.21l-.67-1.15a.2.2,0,0,1,0-.1.15.15,0,0,1,.05-.11.17.17,0,0,1,.12,0,.16.16,0,0,1,.15.09l.77,1.33h.24V88.62a.15.15,0,0,1,0-.12.17.17,0,0,1,.12,0,.16.16,0,0,1,.12,0A.16.16,0,0,1,184.5,88.62Zm-.33,1.58h-.83a.16.16,0,0,0-.12,0,.16.16,0,0,0,0,.12v.19a.16.16,0,0,0,0,.12.16.16,0,0,0,.12,0h.83Z" style="fill: #f2f2f2"/>
        <path d="M181.72,91h-.85a.43.43,0,0,1-.3-.13.42.42,0,0,1-.14-.32.16.16,0,0,1,0-.12.16.16,0,0,1,.11,0,.14.14,0,0,1,.12,0,.41.41,0,0,1,.06.14.12.12,0,0,0,.13.1h.81s.06,0,.06,0a.08.08,0,0,0,0-.05l-1.22-1.56a.39.39,0,0,1-.09-.24.36.36,0,0,1,.11-.26.32.32,0,0,1,.24-.11h.88a.41.41,0,0,1,.31.13.41.41,0,0,1,.13.29c0,.12-.06.18-.17.18a.16.16,0,0,1-.16-.16.12.12,0,0,0,0-.09.13.13,0,0,0-.09,0h-.82s-.05,0-.05,0a.08.08,0,0,0,0,.05L182,90.43a.39.39,0,0,1,.09.24.36.36,0,0,1-.11.26A.36.36,0,0,1,181.72,91Z" style="fill: #f2f2f2"/>
      </g>
      <g>
        <path d="M177.3,88.62V91h-1.16a.47.47,0,0,1-.35-.15.48.48,0,0,1-.15-.35v-.19a.48.48,0,0,1,.14-.35.47.47,0,0,1,.35-.15h.21l-.67-1.15a.2.2,0,0,1,0-.1.15.15,0,0,1,.05-.11.17.17,0,0,1,.12,0,.16.16,0,0,1,.15.09l.77,1.33H177V88.62a.15.15,0,0,1,0-.12.17.17,0,0,1,.12,0,.16.16,0,0,1,.12,0A.16.16,0,0,1,177.3,88.62ZM177,90.2h-.83a.16.16,0,0,0-.12,0,.16.16,0,0,0,0,.12v.19a.16.16,0,0,0,0,.12.16.16,0,0,0,.12,0H177Z" style="fill: #f2f2f2"/>
        <path d="M173.9,90V88.94l-.1-.16h-.14l-.1.16v1.94a.17.17,0,0,1-.17.17.17.17,0,0,1-.16-.16v-2a.22.22,0,0,1,0-.1l.15-.25a.15.15,0,0,1,.14-.08h.31a.19.19,0,0,0,.37,0h.29a.19.19,0,0,1,.18.09l.14.24a.22.22,0,0,1,0,.11v2a.17.17,0,0,1-.17.17.15.15,0,0,1-.11,0,.16.16,0,0,1,0-.12V88.94l-.1-.16h-.14l-.1.16V90a.16.16,0,0,1,0,.12.17.17,0,0,1-.23,0A.16.16,0,0,1,173.9,90Z" style="fill: #f2f2f2"/>
      </g>
      <g>
        <path d="M190,90.88v-.6l.67-1.7a.17.17,0,0,1,.32,0l.66,1.7v.6a.16.16,0,0,1,0,.12.16.16,0,0,1-.23,0,.17.17,0,0,1,0-.12v-.53l-.5-1.27-.5,1.27v.54a.17.17,0,0,1,0,.12.16.16,0,0,1-.23,0A.16.16,0,0,1,190,90.88Z" style="fill: #f2f2f2"/>
        <path d="M189.3,88.77v2a.32.32,0,0,1-.32.32h-1a.3.3,0,0,1-.22-.09.31.31,0,0,1-.09-.22v-2a.31.31,0,0,1,.09-.22.3.3,0,0,1,.22-.09h1a.3.3,0,0,1,.22.09A.31.31,0,0,1,189.3,88.77Zm-1.33,0v1.94h1V88.78Z" style="fill: #f2f2f2"/>
      </g>
      <g>
        <path d="M198.45,90.88v-.6l.67-1.7a.17.17,0,0,1,.32,0l.66,1.7v.6a.16.16,0,0,1,0,.12.16.16,0,0,1-.23,0,.17.17,0,0,1,0-.12v-.53l-.5-1.27-.5,1.27v.54a.17.17,0,0,1,0,.12.16.16,0,0,1-.23,0A.16.16,0,0,1,198.45,90.88Z" style="fill: #f2f2f2"/>
        <path d="M197.54,91h-.65a.45.45,0,0,1-.25-.08.51.51,0,0,1-.18-.19l-.32-.66a.77.77,0,0,1,0-.74l.33-.65a.51.51,0,0,1,.18-.2.47.47,0,0,1,.26-.08h.63a.17.17,0,0,1,.16.16.16.16,0,0,1,0,.12.16.16,0,0,1-.12,0h-.17v1.93h.17a.16.16,0,0,1,.12,0,.16.16,0,0,1,0,.12.17.17,0,0,1-.16.16Zm-.5-.33V88.78h-.12a.17.17,0,0,0-.16.11l-.32.64a.5.5,0,0,0-.06.21.44.44,0,0,0,0,.2l.34.67a.18.18,0,0,0,.17.1Z" style="fill: #f2f2f2"/>
        <path d="M195.12,91h-.65a.45.45,0,0,1-.25-.08.51.51,0,0,1-.18-.19l-.32-.66a.77.77,0,0,1,0-.74l.33-.65a.51.51,0,0,1,.18-.2.47.47,0,0,1,.26-.08h.63a.17.17,0,0,1,.16.16.16.16,0,0,1,0,.12.16.16,0,0,1-.12,0H195v1.93h.17a.16.16,0,0,1,.12,0,.16.16,0,0,1,0,.12.17.17,0,0,1-.16.16Zm-.5-.33V88.78h-.12a.17.17,0,0,0-.16.11l-.32.64a.5.5,0,0,0-.06.21.44.44,0,0,0,0,.2l.34.67a.18.18,0,0,0,.17.1Z" style="fill: #f2f2f2"/>
      </g>
      <g>
        <path d="M206.5,90.88v-.6l.67-1.7a.17.17,0,0,1,.32,0l.66,1.7v.6a.16.16,0,0,1,0,.12.16.16,0,0,1-.23,0,.17.17,0,0,1,0-.12v-.53l-.5-1.27-.5,1.27v.54a.17.17,0,0,1,0,.12.16.16,0,0,1-.23,0A.16.16,0,0,1,206.5,90.88Z" style="fill: #f2f2f2"/>
        <path d="M205.37,91h-.85a.43.43,0,0,1-.3-.13.42.42,0,0,1-.14-.32.16.16,0,0,1,0-.12.16.16,0,0,1,.11,0,.14.14,0,0,1,.12,0,.41.41,0,0,1,.06.14.12.12,0,0,0,.13.1h.81s.06,0,.06,0a.08.08,0,0,0,0-.05l-1.22-1.56a.39.39,0,0,1-.09-.24.36.36,0,0,1,.11-.26.32.32,0,0,1,.24-.11h.88a.41.41,0,0,1,.31.13.41.41,0,0,1,.13.29c0,.12-.06.18-.17.18a.16.16,0,0,1-.16-.16.12.12,0,0,0,0-.09.13.13,0,0,0-.09,0h-.82s-.05,0-.05,0a.08.08,0,0,0,0,.05l1.22,1.56a.39.39,0,0,1,.09.24.36.36,0,0,1-.11.26A.36.36,0,0,1,205.37,91Z" style="fill: #f2f2f2"/>
        <path d="M203,91h-.85a.43.43,0,0,1-.3-.13.42.42,0,0,1-.14-.32.16.16,0,0,1,0-.12.16.16,0,0,1,.11,0,.14.14,0,0,1,.12,0,.41.41,0,0,1,.06.14.12.12,0,0,0,.13.1h.81s.06,0,.06,0a.08.08,0,0,0,0-.05l-1.22-1.56a.39.39,0,0,1-.09-.24.36.36,0,0,1,.11-.26.32.32,0,0,1,.24-.11h.88a.41.41,0,0,1,.31.13.41.41,0,0,1,.13.29c0,.12-.06.18-.17.18a.16.16,0,0,1-.16-.16.12.12,0,0,0,0-.09.13.13,0,0,0-.09,0h-.82s-.05,0-.05,0a.08.08,0,0,0,0,.05l1.22,1.56a.39.39,0,0,1,.09.24.36.36,0,0,1-.11.26A.36.36,0,0,1,203,91Z" style="fill: #f2f2f2"/>
      </g>
    </g>
  </g>
  <g data-name="Layer 7" id="Layer_7">
    <polygon points="200.93 113.58 202.46 112.15 206.7 112.15 208.13 113.58 208.13 117.81 206.7 119.35 202.46 119.35 200.93 117.81 200.93 113.58" style="fill: #323232"/>
    <polygon points="224.17 114.5 224.17 114.5 223.03 115.63 224.17 116.76 224.17 116.76 224.17 114.5" style="fill: #e9e9ea"/>
    <polygon points="221.91 114.5 221.91 114.5 223.04 115.64 221.91 116.77 221.91 116.77 221.91 114.5" style="fill: #b0acb0"/>
    <polygon points="224.17 116.77 224.17 116.77 223.04 115.63 221.91 116.76 221.91 116.77 224.17 116.77" style="fill: #d3d1d3"/>
    <polygon points="224.17 114.5 224.17 114.5 223.03 115.64 221.9 114.51 221.9 114.5 224.17 114.5" style="fill: #989498"/>
    <rect height="2.27" style="fill: #b0acb0" width="17.37" x="204.53" y="114.5"/>
    <polygon points="200.93 106.38 202.46 104.95 206.7 104.95 208.13 106.38 208.13 110.61 206.7 112.15 202.46 112.15 200.93 110.61 200.93 106.38" style="fill: #323232"/>
    <polygon points="224.17 107.3 224.17 107.3 223.03 108.43 224.17 109.56 224.17 109.56 224.17 107.3" style="fill: #e9e9ea"/>
    <polygon points="221.91 107.3 221.91 107.3 223.04 108.44 221.91 109.57 221.91 109.57 221.91 107.3" style="fill: #b0acb0"/>
    <polygon points="224.17 109.57 224.17 109.57 223.04 108.43 221.91 109.56 221.91 109.57 224.17 109.57" style="fill: #d3d1d3"/>
    <polygon points="224.17 107.3 224.17 107.3 223.03 108.44 221.9 107.31 221.9 107.3 224.17 107.3" style="fill: #989498"/>
    <rect height="2.27" style="fill: #b0acb0" width="17.37" x="204.53" y="107.3"/>
    <polygon points="200.93 120.78 202.46 119.35 206.7 119.35 208.13 120.78 208.13 125.01 206.7 126.55 202.46 126.55 200.93 125.01 200.93 120.78" style="fill: #323232"/>
    <polygon points="224.17 121.7 224.16 121.7 223.03 122.83 224.16 123.96 224.17 123.96 224.17 121.7" style="fill: #e9e9ea"/>
    <polygon points="221.9 121.7 221.9 121.7 223.04 122.84 221.91 123.97 221.9 123.97 221.9 121.7" style="fill: #b0acb0"/>
    <polygon points="224.17 123.97 224.17 123.97 223.03 122.83 221.9 123.96 221.9 123.97 224.17 123.97" style="fill: #d3d1d3"/>
    <polygon points="224.16 121.7 224.16 121.7 223.03 122.84 221.9 121.71 221.9 121.7 224.16 121.7" style="fill: #989498"/>
    <rect height="2.27" style="fill: #b0acb0" width="17.37" x="204.53" y="121.7"/>
    <polygon points="200.93 127.98 202.46 126.55 206.7 126.55 208.13 127.98 208.13 132.21 206.7 133.75 202.46 133.75 200.93 132.21 200.93 127.98" style="fill: #323232"/>
    <polygon points="224.17 128.9 224.16 128.9 223.03 130.03 224.16 131.16 224.17 131.16 224.17 128.9" style="fill: #e9e9ea"/>
    <polygon points="221.9 128.9 221.9 128.9 223.04 130.04 221.91 131.17 221.9 131.17 221.9 128.9" style="fill: #b0acb0"/>
    <polygon points="224.17 131.17 224.17 131.17 223.03 130.03 221.9 131.16 221.9 131.17 224.17 131.17" style="fill: #d3d1d3"/>
    <polygon points="224.16 128.9 224.16 128.9 223.03 130.04 221.9 128.91 221.9 128.9 224.16 128.9" style="fill: #989498"/>
    <rect height="2.27" style="fill: #b0acb0" width="17.37" x="204.53" y="128.9"/>
  </g>
  <g id="Connectors">
    <rect data-cir-type="male" height="1.13" id="circuitoCon_SDA" style="fill: #c0bec2" width="1.13" x="222.47" y="122.27"/>
    <rect data-cir-type="male" height="1.13" id="circuitoCon_GND" style="fill: #c0bec2" width="1.13" x="222.47" y="107.87"/>
    <rect data-cir-type="male" height="1.13" id="circuitoCon_SCL" style="fill: #c0bec2" width="1.13" x="222.46" y="129.46"/>
    <rect data-cir-type="male" height="1.13" id="circuitoCon_VCC" style="fill: #c0bec2" width="1.13" x="222.47" y="115.07"/>
  </g>
</svg>