<?xml version="1.0" ?><svg height="20.01mm" viewBox="0 0 58.52 56.72" width="20.64mm" xmlns="http://www.w3.org/2000/svg" xmlns:xlink="http://www.w3.org/1999/xlink">
  <defs>
    <linearGradient gradientUnits="userSpaceOnUse" id="linear-gradient" x1="7.51" x2="50.49" y1="31.34" y2="31.34">
      <stop offset="0" stop-color="#171717"/>
      <stop offset="1"/>
    </linearGradient>
  </defs>
  <title>SparkFun Micro OLED Breakout</title>
  <g data-name="Layer 6" id="Layer_6">
    <path d="M56,0H1.78A1.78,1.78,0,0,0,0,1.78V54.91a1.78,1.78,0,0,0,1.78,1.78H56a1.78,1.78,0,0,0,1.78-1.78V1.78A1.78,1.78,0,0,0,56,0ZM3.61,55.74a1.56,1.56,0,1,1,1.56-1.56A1.56,1.56,0,0,1,3.61,55.74Zm0-50.56A1.56,1.56,0,1,1,5.18,3.61,1.56,1.56,0,0,1,3.61,5.18Zm7.22,50.56a1.56,1.56,0,1,1,1.56-1.56A1.56,1.56,0,0,1,10.83,55.74Zm0-50.56A1.56,1.56,0,1,1,12.4,3.61,1.56,1.56,0,0,1,10.83,5.18Zm7.22,50.56a1.56,1.56,0,1,1,1.56-1.56A1.56,1.56,0,0,1,18.06,55.74Zm0-50.56a1.56,1.56,0,1,1,1.56-1.56A1.56,1.56,0,0,1,18.06,5.18Zm7.22,50.56a1.56,1.56,0,1,1,1.56-1.56A1.56,1.56,0,0,1,25.28,55.74Zm0-50.56a1.56,1.56,0,1,1,1.56-1.56A1.56,1.56,0,0,1,25.28,5.18ZM32.5,55.74a1.56,1.56,0,1,1,1.56-1.56A1.56,1.56,0,0,1,32.5,55.74Zm0-50.56a1.56,1.56,0,1,1,1.56-1.56A1.56,1.56,0,0,1,32.5,5.18Zm7.22,50.56a1.56,1.56,0,1,1,1.56-1.56A1.56,1.56,0,0,1,39.73,55.74Zm0-50.56a1.56,1.56,0,1,1,1.56-1.56A1.56,1.56,0,0,1,39.73,5.18Zm7.22,50.56a1.56,1.56,0,1,1,1.56-1.56A1.56,1.56,0,0,1,46.95,55.74Zm0-50.56a1.56,1.56,0,1,1,1.56-1.56A1.56,1.56,0,0,1,46.95,5.18Zm7.22,50.56a1.56,1.56,0,1,1,1.56-1.56A1.56,1.56,0,0,1,54.17,55.74Zm0-50.56a1.56,1.56,0,1,1,1.56-1.56A1.56,1.56,0,0,1,54.17,5.18Z" style="fill: #8a231e"/>
  </g>
  <g data-name="Layer 5" id="Layer_5">
    <circle cx="11.16" cy="43.35" r="1.55" style="fill: #cf2f27"/>
    <circle cx="7.75" cy="43.35" r="1.55" style="fill: #cf2f27"/>
    <circle cx="26.59" cy="43.2" r="1.55" style="fill: #cf2f27"/>
    <circle cx="29.14" cy="30.17" r="1.55" style="fill: #cf2f27"/>
    <circle cx="36.15" cy="26.1" r="1.55" style="fill: #cf2f27"/>
    <circle cx="39.79" cy="29.63" r="1.55" style="fill: #cf2f27"/>
    <circle cx="36.34" cy="15.13" r="1.55" style="fill: #cf2f27"/>
    <circle cx="25.58" cy="14.23" r="1.55" style="fill: #cf2f27"/>
    <circle cx="9.45" cy="21.89" r="1.55" style="fill: #cf2f27"/>
    <circle cx="20.41" cy="27.63" r="1.55" style="fill: #cf2f27"/>
    <circle cx="11.16" cy="29.81" r="1.55" style="fill: #cf2f27"/>
    <circle cx="7.67" cy="30.34" r="1.55" style="fill: #cf2f27"/>
    <circle cx="46.95" cy="11.77" r="1.55" style="fill: #cf2f27"/>
    <circle cx="3.96" cy="43.2" r="1.55" style="fill: #cf2f27"/>
    <line style="fill: none;stroke: #cf2f27;stroke-miterlimit: 10;stroke-width: 0.802560895026827px" x1="5.24" x2="6.48" y1="32.59" y2="31.35"/>
    <line style="fill: none;stroke: #cf2f27;stroke-miterlimit: 10;stroke-width: 0.802560895026827px" x1="11.16" x2="11.16" y1="31.01" y2="32.59"/>
    <line style="fill: none;stroke: #cf2f27;stroke-miterlimit: 10;stroke-width: 0.802560895026827px" x1="3.96" x2="3.96" y1="41.9" y2="39.26"/>
    <line style="fill: none;stroke: #cf2f27;stroke-miterlimit: 10;stroke-width: 0.802560895026827px" x1="8.38" x2="10.9" y1="42.2" y2="39.67"/>
    <polyline points="12.06 42.32 13.36 41.03 18.23 41.03 18.23 39.67" style="fill: none;stroke: #cf2f27;stroke-miterlimit: 10;stroke-width: 0.802560895026827px"/>
    <polyline points="18.23 41.03 18.23 44.6 18.75 45.11 19.99 45.11" style="fill: none;stroke: #cf2f27;stroke-miterlimit: 10;stroke-width: 0.802560895026827px"/>
    <polyline points="24.23 44.91 24.58 44.91 24.88 44.91 25.68 44.1" style="fill: none;stroke: #cf2f27;stroke-miterlimit: 10;stroke-width: 0.802560895026827px"/>
    <polyline points="25.83 42.05 25.36 41.57 25.36 39.67" style="fill: none;stroke: #cf2f27;stroke-miterlimit: 10;stroke-width: 0.802560895026827px"/>
    <polyline points="27.58 42.97 32.6 42.97 36.16 39.42 36.16 29.81 46.85 19.12 46.85 12.95" style="fill: none;stroke: #cf2f27;stroke-miterlimit: 10;stroke-width: 0.802560895026827px"/>
    <line style="fill: none;stroke: #cf2f27;stroke-miterlimit: 10;stroke-width: 0.802560895026827px" x1="36.15" x2="36.15" y1="16.16" y2="24.82"/>
    <polyline points="34.59 22.8 33.89 22.8 26.35 15.26" style="fill: none;stroke: #cf2f27;stroke-miterlimit: 10;stroke-width: 0.802560895026827px"/>
    <polyline points="27.39 19.07 27.76 19.07 32.53 23.84 32.53 31.89" style="fill: none;stroke: #cf2f27;stroke-miterlimit: 10;stroke-width: 0.802560895026827px"/>
    <polyline points="29.09 28.84 29.09 22.8 27.62 21.33 26.35 21.33" style="fill: none;stroke: #cf2f27;stroke-miterlimit: 10;stroke-width: 0.802560895026827px"/>
    <line style="fill: none;stroke: #cf2f27;stroke-miterlimit: 10;stroke-width: 0.802560895026827px" x1="16.33" x2="25.33" y1="19.22" y2="19.22"/>
    <polyline points="16.2 21.43 19.16 21.43 20.38 22.65 20.38 26.35" style="fill: none;stroke: #cf2f27;stroke-miterlimit: 10;stroke-width: 0.802560895026827px"/>
    <line style="fill: none;stroke: #cf2f27;stroke-miterlimit: 10;stroke-width: 0.802560895026827px" x1="5.66" x2="8.35" y1="21.43" y2="21.43"/>
    <line style="fill: none;stroke: #cf2f27;stroke-miterlimit: 10;stroke-width: 0.802560895026827px" x1="5.35" x2="13.12" y1="19.07" y2="19.07"/>
    <line style="fill: none;stroke: #cf2f27;stroke-miterlimit: 10;stroke-width: 0.802560895026827px" x1="46.81" x2="46.81" y1="29.88" y2="26.19"/>
    <polyline points="50.42 26.09 50.42 29.41 53.24 32.22" style="fill: none;stroke: #cf2f27;stroke-miterlimit: 10;stroke-width: 0.802560895026827px"/>
    <line style="fill: none;stroke: #cf2f27;stroke-miterlimit: 10;stroke-width: 0.802560895026827px" x1="39.79" x2="39.79" y1="30.91" y2="32.22"/>
    <polygon points="5.24 40.58 5.24 41.31 6.2 41.31 6.5 41.01 7.97 41.01 8.59 40.4 8.59 36.53 9.55 36.53 9.55 35.14 8.83 35.14 8.38 34.7 8.38 32.59 6.67 32.59 6.67 34.6 5.65 35.63 5.65 36.53 6.68 37.56 6.68 39.93 6.17 40.45 5.24 40.58" style="fill: #cf2f27"/>
    <path d="M1.73,31.56H4.06l1-1,0-2.22a4.18,4.18,0,0,1,4.18-.09,2.72,2.72,0,0,1,1.8-.9,2.78,2.78,0,0,1,2.18.9v3.11l.37.37v3.19l-.95.27v1.45h.8v3.08H16.2V31.25h1.53v.84h1.12v-.84h1.53v9.33h-1V42h4.61V40.58H23.2V34h.85V32.94h-.7V31.36H25v.54h1v-.71h1v-6h-1.1v-.38h-1v.67H23.1l-.38-.38v-.73h.89v-.93h-1V21.78l-1.4-1.4h-.4l-.41.41L21.65,22v3.29a2.6,2.6,0,0,1,.21,4,2.18,2.18,0,0,1-3.21-.15,2.21,2.21,0,0,1,0-3.27l.47-.47V22.8H18l-.65.65h-1v.64h1v1.11l-.55.55H15.4l-.13-.13v-.78h-.93v.8H12.06V24.54h.66V23.45H5.63v.64H6.9v1.39H4.31V24.42H3.68v1.2h-2Z" style="fill: #cf2f27"/>
    <path d="M50.48,6.73v-2A4.5,4.5,0,0,1,46.85,7.3,5,5,0,0,1,45,6.67a5.06,5.06,0,0,1-1.92-2.06,3.74,3.74,0,0,1-.95,1.63,4,4,0,0,1-2.86,1.09,5.34,5.34,0,0,1-1.56-.74,5.43,5.43,0,0,1-1.73-2,4.42,4.42,0,0,1-3.59,2.83,5.86,5.86,0,0,1-1.76-.82,5.94,5.94,0,0,1-1.87-2.09,4.43,4.43,0,0,1-1.12,1.67,4.49,4.49,0,0,1-2.4,1.14,5.66,5.66,0,0,1-3.66-3,5.18,5.18,0,0,1-3.56,2.88A4.85,4.85,0,0,1,14.5,4.48,3.85,3.85,0,0,1,11,7.35,4.65,4.65,0,0,1,8.56,6,4.57,4.57,0,0,1,7.51,4.29,6.12,6.12,0,0,1,5.67,6.45,6.43,6.43,0,0,1,1.2,7.55V9.09l.87.7A2.16,2.16,0,0,1,4.36,8.71,2.17,2.17,0,0,1,6,11,2.49,2.49,0,0,1,4,12.87a2.62,2.62,0,0,1-2.21-1l-.2.2v4.45H6.19a1,1,0,0,1,.74.38,1,1,0,0,1,.2.56v.32h4.06a1.19,1.19,0,0,1,1.22-1.22h4.89l1.24,1.24h8.69l-3.72-2.46a2.21,2.21,0,0,1-.16-2.22,2.34,2.34,0,0,1,1.83-1.23,2.51,2.51,0,0,1,1.54.44,2.81,2.81,0,0,1,1,2.36l5.31,5.22,1.72-1.72V17.13a2.48,2.48,0,0,1,1.54-4.53A2.42,2.42,0,0,1,37.51,17v1.28h.61v6.83l.38.38,7.16-7.16V13.66a2.29,2.29,0,0,1,1-4.34,2.51,2.51,0,0,1,2.47,2,2.48,2.48,0,0,1-1,2.47V19.5l-3.4,3.4.52.16a2.8,2.8,0,0,1,3.15.24,2.79,2.79,0,0,1,4.82,2.12,2.41,2.41,0,0,1-1.46,2.19v1.73l2,1.85h2.71V6.73Z" style="fill: #cf2f27"/>
    <polygon points="27.34 32.08 27.34 40.86 28.39 41.91 31.84 41.91 32.83 40.92 32.2 40.57 31 40.86 30.45 40.04 30.45 32.45 30.17 32.17 27.34 32.08" style="fill: #cf2f27"/>
    <line style="fill: none;stroke: #cf2f27;stroke-miterlimit: 10;stroke-width: 2.407682685080481px" x1="15.45" x2="45.26" y1="35.69" y2="35.69"/>
    <line style="fill: none;stroke: #cf2f27;stroke-miterlimit: 10;stroke-width: 0.802560895026827px" x1="33.89" x2="36.28" y1="38.18" y2="38.18"/>
    <polyline points="5.94 51.75 10.93 46.77 10.93 44.76" style="fill: none;stroke: #cf2f27;stroke-miterlimit: 10;stroke-width: 0.802560895026827px"/>
    <path d="M13.51,42.2h3.35v3.33l1.94,1.94H25V46.33l.9-.9h1.73l1.24-1.24h4.78L37.76,40l.4.4H39V39.25h1.3v1.33h1l.55-.55V29.16L40.43,27.4l3.78-3.78v2.73l1.23,1.23v1H43.87l-.49.49V39.25h1.28v1.33H43.54V43h6.12V40.23h-.24V39.5h.24V37h-.71V34.72h1.19V31.41l1,1v2.4h1.61v1.71H51.69v3.34h4.69V51H51.49l-1.24,1.24a3.64,3.64,0,0,0-1.48-2A3.56,3.56,0,0,0,47,49.7a3.9,3.9,0,0,0-1.69.59,4.09,4.09,0,0,0-1.69,2.34h-.53a3.62,3.62,0,0,0-1.21-1.89A3.7,3.7,0,0,0,39.2,50a3.94,3.94,0,0,0-2.46,2.66H36a4.21,4.21,0,0,0-1.35-1.84A4.27,4.27,0,0,0,32,49.92a5.14,5.14,0,0,0-2.73,2.71h-.48a3.55,3.55,0,0,0-3.17-2.81,3.84,3.84,0,0,0-3.35,2.81h-.63A3.53,3.53,0,0,0,18.23,50a4.64,4.64,0,0,0-1.43.58,4.83,4.83,0,0,0-1.86,2.16H14.5a5.71,5.71,0,0,0-3.34-3.51l1.55-2.52V44.91a2.71,2.71,0,0,0,.73-1.08A2.74,2.74,0,0,0,13.51,42.2Z" style="fill: #cf2f27"/>
  </g>
  <g data-name="Layer 4" id="Layer_4">
    <rect height="4.52" style="fill: #b1aeaa" width="5.22" x="44.2" y="29.63"/>
    <rect height="4.64" style="fill: #b1aeaa" width="5.36" x="44.13" y="37.91"/>
    <rect height="8.49" style="fill: #edca9c" width="4.28" x="44.67" y="32.08"/>
    <rect height="5.81" style="fill: #9f7a59" width="4.28" x="44.67" y="33.43"/>
    <rect height="2.71" style="fill: #b1aeaa" width="3.13" x="52.5" y="31.89"/>
    <rect height="2.78" style="fill: #b1aeaa" width="3.21" x="52.46" y="36.96"/>
    <rect height="5.09" style="fill: #edca9c" width="2.57" x="52.78" y="33.46"/>
    <rect height="3.49" style="fill: #9f7a59" width="2.57" x="52.78" y="34.27"/>
    <rect height="2.71" style="fill: #b1aeaa" width="3.13" x="38.19" y="31.89"/>
    <rect height="2.78" style="fill: #b1aeaa" width="3.21" x="38.15" y="36.96"/>
    <rect height="5.09" style="fill: #edca9c" width="2.57" x="38.48" y="33.46"/>
    <rect height="3.49" width="2.57" x="38.48" y="34.27"/>
    <rect height="2.71" style="fill: #b1aeaa" width="3.13" x="31.04" y="31.89"/>
    <rect height="2.78" style="fill: #b1aeaa" width="3.21" x="31" y="36.96"/>
    <rect height="5.09" style="fill: #edca9c" width="2.57" x="31.32" y="33.46"/>
    <rect height="3.49" width="2.57" x="31.32" y="34.27"/>
    <rect height="2.71" style="fill: #b1aeaa" width="3.13" x="23.95" y="31.89"/>
    <rect height="2.78" style="fill: #b1aeaa" width="3.21" x="23.91" y="36.96"/>
    <rect height="5.09" style="fill: #edca9c" width="2.57" x="24.23" y="33.46"/>
    <rect height="3.49" style="fill: #9f7a59" width="2.57" x="24.23" y="34.27"/>
    <rect height="2.71" style="fill: #b1aeaa" width="3.13" x="16.86" y="31.89"/>
    <rect height="2.78" style="fill: #b1aeaa" width="3.21" x="16.82" y="36.96"/>
    <rect height="5.09" style="fill: #edca9c" width="2.57" x="17.14" y="33.46"/>
    <rect height="3.49" style="fill: #9f7a59" width="2.57" x="17.14" y="34.27"/>
    <rect height="2.71" style="fill: #b1aeaa" width="3.13" x="9.59" y="32.08"/>
    <rect height="2.78" style="fill: #b1aeaa" width="3.21" x="9.55" y="37.15"/>
    <rect height="5.09" style="fill: #edca9c" width="2.57" x="9.88" y="33.65"/>
    <rect height="3.49" style="fill: #d0b395" transform="translate(47.37 25.05) rotate(90)" width="2.57" x="9.88" y="34.47"/>
    <rect height="2.71" style="fill: #b1aeaa" width="3.13" x="2.5" y="32.08"/>
    <rect height="2.78" style="fill: #b1aeaa" width="3.21" x="2.46" y="37.15"/>
    <rect height="5.09" style="fill: #edca9c" width="2.57" x="2.78" y="33.65"/>
    <rect height="3.49" style="fill: #d0b395" transform="translate(40.27 32.15) rotate(90)" width="2.57" x="2.78" y="34.47"/>
    <path d="M53.26,19a.33.33,0,0,1,.09.4.73.73,0,0,1-.84.37.63.63,0,0,1-.56-.67.84.84,0,0,1,.27-.49,6.26,6.26,0,0,0,.48-.54,1,1,0,0,0,.23-.79,1.18,1.18,0,0,0-.86-.89,1.5,1.5,0,0,0-1.38.26,3.21,3.21,0,0,1,.39.05.53.53,0,0,1,.3.9,1.8,1.8,0,0,1-.56.41c-.33.16-.55,0-.55-.37,0,0,0,0,0-.13a3.41,3.41,0,0,0-.37.3,2.16,2.16,0,0,0-.54,1.32,2.71,2.71,0,0,0,2,2.82,2.59,2.59,0,0,0,.7.06,1.07,1.07,0,0,1,.89.37l1.28,1.44.13.15c0-.07,0-.11,0-.16q0-1.88,0-3.77a2.16,2.16,0,0,0,0-.43,1.08,1.08,0,0,0-1.41-.8Z" style="fill: #fff"/>
    <rect height="4.39" style="fill: #998177" width="4.09" x="1.88" y="20.43"/>
    <polygon points="5.97 22.36 5.97 20.98 1.88 20.98 1.88 22.36 3.46 22.36 3.46 23.02 1.88 23.02 1.88 24.09 3.67 24.09 3.67 23.21 4.17 23.21 4.17 24.09 5.96 24.09 5.96 23.02 4.46 23.02 4.46 22.36 5.97 22.36" style="fill: #fbf9f9"/>
    <rect height="1.81" style="fill: #fbf9f9" width="3.63" x="2.02" y="18.15"/>
    <rect height="0.64" style="fill: #fbf9f9" width="0.62" x="5.35" y="18.76"/>
    <rect height="8.49" rx="0.66" ry="0.66" style="fill: none;stroke: #fbf9f9;stroke-miterlimit: 10;stroke-width: 0.3210243580107308px" width="5.67" x="1" y="17.13"/>
    <rect height="0.33" rx="0.17" ry="0.17" style="fill: none;stroke: #fbf9f9;stroke-miterlimit: 10;stroke-width: 0.3210243580107308px" width="1.22" x="6.67" y="19.06"/>
    <rect height="0.33" rx="0.17" ry="0.17" style="fill: none;stroke: #fbf9f9;stroke-miterlimit: 10;stroke-width: 0.3210243580107308px" width="1.22" x="6.67" y="23.92"/>
    <rect height="4.39" style="fill: #998177" width="4.09" x="12.64" y="20.43"/>
    <polygon points="16.73 22.36 16.73 20.98 12.64 20.98 12.64 22.36 14.22 22.36 14.22 23.02 12.64 23.02 12.64 24.09 14.43 24.09 14.43 23.21 14.93 23.21 14.93 24.09 16.72 24.09 16.72 23.02 15.22 23.02 15.22 22.36 16.73 22.36" style="fill: #fbf9f9"/>
    <rect height="1.81" style="fill: #fbf9f9" width="3.63" x="12.78" y="18.15"/>
    <rect height="0.64" style="fill: #fbf9f9" width="0.62" x="16.11" y="18.76"/>
    <rect height="1.81" style="fill: #fbf9f9" width="3.63" x="23.61" y="18.15"/>
    <rect height="0.64" style="fill: #fbf9f9" width="0.62" x="26.94" y="18.76"/>
    <rect height="1.81" style="fill: #fbf9f9" width="3.63" x="23.61" y="20.48"/>
    <rect height="0.64" style="fill: #fbf9f9" width="0.62" x="26.94" y="21.08"/>
    <rect height="1.81" style="fill: #fbf9f9" width="3.63" x="23.61" y="23.02"/>
    <rect height="0.64" style="fill: #fbf9f9" width="0.87" x="24.88" y="24.42"/>
    <rect height="1.81" style="fill: #fbf9f9" width="3.63" x="34.33" y="21.89"/>
    <rect height="0.64" style="fill: #fbf9f9" width="0.87" x="35.61" y="23.3"/>
    <rect height="1.81" style="fill: #fbf9f9" transform="translate(72.09 40.42) rotate(-180)" width="3.63" x="34.23" y="19.31"/>
    <rect height="0.64" style="fill: #fbf9f9" transform="translate(72.3 38.78) rotate(-180)" width="0.87" x="35.71" y="19.07"/>
    <rect height="8.49" rx="0.66" ry="0.66" style="fill: none;stroke: #fbf9f9;stroke-miterlimit: 10;stroke-width: 0.3210243580107308px" width="5.67" x="11.76" y="17.13"/>
    <rect height="0.33" rx="0.17" ry="0.17" style="fill: none;stroke: #fbf9f9;stroke-miterlimit: 10;stroke-width: 0.3210243580107308px" width="1.22" x="17.43" y="19.06"/>
    <rect height="0.33" rx="0.17" ry="0.17" style="fill: none;stroke: #fbf9f9;stroke-miterlimit: 10;stroke-width: 0.3210243580107308px" width="1.22" x="17.43" y="23.92"/>
    <rect height="0.33" rx="0.17" ry="0.17" style="fill: none;stroke: #fbf9f9;stroke-miterlimit: 10;stroke-width: 0.3210243580107308px" width="1.22" x="10.46" y="19.06"/>
    <rect height="0.33" rx="0.17" ry="0.17" style="fill: none;stroke: #fbf9f9;stroke-miterlimit: 10;stroke-width: 0.3210243580107308px" width="1.22" x="10.46" y="23.92"/>
    <rect height="8.49" rx="0.66" ry="0.66" style="fill: none;stroke: #fbf9f9;stroke-miterlimit: 10;stroke-width: 0.3210243580107308px" width="5.67" x="22.5" y="17.13"/>
    <rect height="0.33" rx="0.17" ry="0.17" style="fill: none;stroke: #fbf9f9;stroke-miterlimit: 10;stroke-width: 0.3210243580107308px" width="1.22" x="21.19" y="19.06"/>
    <rect height="0.33" rx="0.17" ry="0.17" style="fill: none;stroke: #fbf9f9;stroke-miterlimit: 10;stroke-width: 0.3210243580107308px" width="1.22" x="21.19" y="23.92"/>
    <path d="M34.23,18.52a.86.86,0,0,0-.76.11.83.83,0,0,0-.31.59V23.7a.76.76,0,0,0,.24.49.8.8,0,0,0,.7.16" style="fill: none;stroke: #fbf9f9;stroke-miterlimit: 10;stroke-width: 0.24076826850804814px"/>
    <path d="M37.7,24.47a.86.86,0,0,0,.76-.11.83.83,0,0,0,.31-.59V19.29a.76.76,0,0,0-.24-.49.8.8,0,0,0-.7-.16" style="fill: none;stroke: #fbf9f9;stroke-miterlimit: 10;stroke-width: 0.24076826850804814px"/>
    <polygon points="24.58 44.57 24.34 44.57 24.34 43.09 22.54 43.09 22.54 44.57 21.38 44.57 21.38 43.09 19.58 43.09 19.58 44.37 19.34 44.37 19.34 45.24 19.58 45.24 19.58 46.72 21.38 46.72 21.38 45.12 22.54 45.12 22.54 46.72 24.34 46.72 24.34 45.44 24.58 45.44 24.58 44.57" style="fill: #fbf9f9"/>
  </g>
  <g data-name="Layer 3" id="Layer_3">
    <path d="M46.81,44.25a2.4,2.4,0,1,0,2.4,2.4A2.4,2.4,0,0,0,46.81,44.25Zm0,3.87a1.47,1.47,0,1,1,1.47-1.47A1.47,1.47,0,0,1,46.81,48.12Z" style="fill: #8a231e"/>
    <circle cx="46.81" cy="46.65" r="1.47" style="fill: #fff"/>
    <path d="M50.42,22.45a2.4,2.4,0,1,0,2.4,2.4A2.4,2.4,0,0,0,50.42,22.45Zm0,3.87a1.47,1.47,0,1,1,1.47-1.47A1.47,1.47,0,0,1,50.42,26.32Z" style="fill: none"/>
    <circle cx="50.42" cy="24.84" r="1.47" style="fill: #fff"/>
    <path d="M46.34,22.91A2.13,2.13,0,1,0,48.47,25,2.13,2.13,0,0,0,46.34,22.91Zm0,3.44A1.31,1.31,0,1,1,47.65,25,1.31,1.31,0,0,1,46.34,26.35Z" style="fill: none"/>
    <circle cx="46.57" cy="25.04" r="1.31" style="fill: #fff"/>
    <path d="M5.18,44.6A2.4,2.4,0,1,0,7.57,47,2.4,2.4,0,0,0,5.18,44.6Zm0,3.87A1.47,1.47,0,1,1,6.65,47,1.47,1.47,0,0,1,5.18,48.47Z" style="fill: none"/>
    <circle cx="5.18" cy="47" r="1.47" style="fill: #fff"/>
    <path d="M52.28,44.25a2.4,2.4,0,1,0,2.4,2.4A2.4,2.4,0,0,0,52.28,44.25Zm0,3.87a1.47,1.47,0,1,1,1.47-1.47A1.47,1.47,0,0,1,52.28,48.12Z" style="fill: #8a231e"/>
    <circle cx="52.28" cy="46.65" r="1.47" style="fill: #fff"/>
    <path d="M3.79,8.27a2.4,2.4,0,1,0,2.4,2.4A2.4,2.4,0,0,0,3.79,8.27Zm0,3.87a1.47,1.47,0,1,1,1.47-1.47A1.47,1.47,0,0,1,3.79,12.14Z" style="fill: none"/>
    <circle cx="3.79" cy="10.67" r="1.47" style="fill: #fff"/>
    <circle cx="14.95" cy="44.25" r="0.75" style="fill: #a66219;stroke: #fff;stroke-miterlimit: 10;stroke-width: 0.1605121790053654px"/>
    <circle cx="26.59" cy="43.2" r="0.75" style="fill: #a66219;stroke: #fff;stroke-miterlimit: 10;stroke-width: 0.1605121790053654px"/>
    <circle cx="52.64" cy="42.6" r="0.75" style="fill: #a66219;stroke: #fff;stroke-miterlimit: 10;stroke-width: 0.1605121790053654px"/>
    <circle cx="11.16" cy="43.35" r="0.75" style="fill: #a66219;stroke: #fff;stroke-miterlimit: 10;stroke-width: 0.1605121790053654px"/>
    <circle cx="7.75" cy="43.35" r="0.75" style="fill: #a66219;stroke: #fff;stroke-miterlimit: 10;stroke-width: 0.1605121790053654px"/>
    <circle cx="3.96" cy="43.35" r="0.75" style="fill: #a66219;stroke: #fff;stroke-miterlimit: 10;stroke-width: 0.1605121790053654px"/>
    <circle cx="39.76" cy="29.74" r="0.9" style="fill: #fff"/>
    <circle cx="36.15" cy="26.1" r="0.9" style="fill: #fff"/>
    <circle cx="29.09" cy="30.17" r="0.9" style="fill: #fff"/>
    <circle cx="20.5" cy="27.63" r="0.9" style="fill: #fff"/>
    <circle cx="36.34" cy="15.13" r="0.9" style="fill: #fff"/>
    <circle cx="46.95" cy="11.9" r="0.9" style="fill: #fff"/>
    <circle cx="25.58" cy="14.23" r="0.9" style="fill: #fff"/>
    <circle cx="11.16" cy="29.81" r="0.9" style="fill: #fff"/>
    <circle cx="7.57" cy="30.34" r="0.9" style="fill: #fff"/>
    <circle cx="3.68" cy="29.81" r="0.9" style="fill: #fff"/>
    <circle cx="9.41" cy="21.78" r="0.9" style="fill: #fff"/>
  </g>
  <g data-name="Layer 8" id="Layer_8">
    <g>
      <path d="M2.3,48.84v-.51a.14.14,0,0,1,.16-.16.14.14,0,0,1,.16.16v.51a.33.33,0,0,1,0,.13L2,50.52c0,.08-.06.14-.16.14s-.13-.06-.16-.14L1.06,49a.33.33,0,0,1,0-.12v-.51a.14.14,0,0,1,.16-.16.14.14,0,0,1,.16.16v.51l.47,1.22Z" style="fill: #fff"/>
      <path d="M3.35,48.16h.9c.47,0,.69.29.69.74a.62.62,0,0,1-.21.51.69.69,0,0,1,.21.58.63.63,0,0,1-.69.67h-.9Zm.32,1.09h.58c.23,0,.37-.1.37-.35s-.07-.42-.37-.42H3.67Zm0,1.09h.58c.23,0,.37-.1.37-.35s-.07-.42-.37-.42H3.67Z" style="fill: #fff"/>
    </g>
    <g>
      <path d="M9.33,50.66c-.11,0-.17,0-.2-.14h0c0,.12-.09.14-.2.14H8.69a.17.17,0,0,1-.2-.12l-.11-.2a.23.23,0,0,1,0-.16V48.32a.16.16,0,0,1,.32,0v1.86l.09.15h.14L9,50.18v-1c0-.1,0-.19.16-.19s.16.09.16.19v1l.09.15h.14l.09-.15V48.32a.16.16,0,0,1,.32,0v1.86a.23.23,0,0,1,0,.16l-.11.2a.17.17,0,0,1-.2.12Z" style="fill: #fff"/>
      <path d="M11,50.5a.16.16,0,0,1-.32,0V48.16h1.08a.48.48,0,0,1,.51.46v.22a.46.46,0,0,1-.51.46h-.29l.72,1a.32.32,0,0,1,.08.17.15.15,0,0,1-.16.15.17.17,0,0,1-.14-.09L11,49.3H11ZM11,49h.71c.09,0,.23,0,.23-.13v-.22c0-.13-.13-.14-.23-.14H11Z" style="fill: #fff"/>
    </g>
    <g>
      <path d="M16,50.5a.16.16,0,0,1-.32,0V48.16h1.08a.48.48,0,0,1,.51.46v.22a.46.46,0,0,1-.51.46h-.29l.72,1a.32.32,0,0,1,.08.17.15.15,0,0,1-.16.15.17.17,0,0,1-.14-.09L16,49.3H16ZM16,49h.71c.09,0,.23,0,.23-.13v-.22c0-.13-.13-.14-.23-.14H16Z" style="fill: #fff"/>
      <path d="M18.26,48.48h-.12c-.11,0-.2,0-.2-.16s.09-.16.19-.16h.54a.48.48,0,0,1,.48.32l.28.56a.74.74,0,0,1,0,.72l-.29.58a.48.48,0,0,1-.51.3h-.53a.16.16,0,1,1,0-.32h.15Zm.32,1.85h.06c.13,0,.17,0,.22-.13l.28-.57a.45.45,0,0,0,.06-.21.53.53,0,0,0-.08-.26l-.27-.54c-.07-.14-.1-.13-.24-.13h0Z" style="fill: #fff"/>
    </g>
    <g>
      <path d="M23.25,48.48h-.12c-.11,0-.2,0-.2-.16s.09-.16.19-.16h.54a.48.48,0,0,1,.48.32l.28.56a.74.74,0,0,1,0,.72l-.29.58a.48.48,0,0,1-.51.3h-.53a.16.16,0,1,1,0-.32h.15Zm.32,1.85h.06c.13,0,.17,0,.22-.13l.28-.57a.44.44,0,0,0,.06-.21.53.53,0,0,0-.08-.26l-.27-.54c-.07-.14-.1-.13-.24-.13h0Z" style="fill: #fff"/>
      <path d="M25.41,48.48a.16.16,0,0,1,0-.32h1.1a.31.31,0,0,1,.32.32v.62a.37.37,0,0,1-.12.31.37.37,0,0,1,.12.31v.62a.31.31,0,0,1-.32.32h-1.1a.16.16,0,0,1,0-.32h1.1V49.8c0-.18-.07-.23-.16-.23h-.63a.16.16,0,1,1,0-.32h.63c.09,0,.16-.05.16-.23v-.53Z" style="fill: #fff"/>
    </g>
    <g>
      <path d="M30.55,48.48h-.12c-.11,0-.2,0-.2-.16s.09-.16.19-.16H31a.48.48,0,0,1,.48.32l.28.56a.75.75,0,0,1,.1.37.76.76,0,0,1-.09.35l-.29.58a.48.48,0,0,1-.51.3h-.53a.16.16,0,1,1,0-.32h.15Zm.32,1.85h.06c.13,0,.17,0,.22-.13l.28-.57a.45.45,0,0,0,.06-.21.53.53,0,0,0-.08-.26l-.27-.54c-.07-.14-.1-.13-.24-.13h0Z" style="fill: #fff"/>
      <path d="M33.65,49.52V48.6a.16.16,0,0,1,.32,0v.93a.16.16,0,0,1,0,.32v.65a.16.16,0,0,1-.32,0v-.65H32.7V48.32a.16.16,0,0,1,.32,0v1.2Z" style="fill: #fff"/>
    </g>
    <g>
      <path d="M37.84,48.48h-.12c-.11,0-.2,0-.2-.16s.09-.16.19-.16h.54a.48.48,0,0,1,.48.32L39,49a.75.75,0,0,1,.1.37.76.76,0,0,1-.09.35l-.29.58a.48.48,0,0,1-.51.3h-.53a.16.16,0,0,1,0-.32h.15Zm.32,1.85h.06c.13,0,.17,0,.22-.13l.28-.57a.45.45,0,0,0,.06-.21.55.55,0,0,0-.08-.26l-.27-.54c-.07-.14-.1-.13-.24-.13h0Z" style="fill: #fff"/>
      <path d="M40.48,49.25h.59a.33.33,0,0,1,.26.09.32.32,0,0,1,.1.27v.69a.34.34,0,0,1-.08.25.31.31,0,0,1-.28.11h-.71a.47.47,0,0,1-.21-.06L40,50.54c-.09,0-.18-.07-.18-.18A.16.16,0,0,1,40,50.2a.22.22,0,0,1,.1,0l.1,0a.54.54,0,0,0,.17.06h.74v-.77h-.95V48.16h1.11a.16.16,0,0,1,0,.32h-.79Z" style="fill: #fff"/>
    </g>
    <g>
      <path d="M45.14,48.48H45c-.11,0-.2,0-.2-.16s.09-.16.19-.16h.54a.48.48,0,0,1,.48.32l.28.56a.75.75,0,0,1,.1.37.76.76,0,0,1-.09.35l-.29.58a.48.48,0,0,1-.51.3H45a.16.16,0,1,1,0-.32h.15Zm.32,1.85h.06c.13,0,.17,0,.22-.13l.28-.57a.45.45,0,0,0,.06-.21.55.55,0,0,0-.08-.26l-.27-.54c-.07-.14-.1-.13-.24-.13h0Z" style="fill: #fff"/>
      <path d="M47.46,49.52h1.07c.16,0,.19.07.19.21v.72c0,.15-.06.2-.21.2H47.35c-.15,0-.21-.05-.21-.2V48.32c0-.07,0-.16.14-.16h.19a.16.16,0,0,1,.15.16.15.15,0,0,1-.16.16Zm0,.32v.49h.94v-.49Z" style="fill: #fff"/>
    </g>
    <g>
      <path d="M52.44,48.48h-.12c-.11,0-.2,0-.2-.16s.09-.16.19-.16h.54a.48.48,0,0,1,.48.32l.28.56a.75.75,0,0,1,.1.37.76.76,0,0,1-.09.35l-.29.58a.48.48,0,0,1-.51.3h-.53a.16.16,0,1,1,0-.32h.15Zm.32,1.85h.06c.13,0,.17,0,.22-.13l.28-.57a.45.45,0,0,0,.06-.21.53.53,0,0,0-.08-.26L53,48.62c-.07-.14-.1-.13-.24-.13h0Z" style="fill: #fff"/>
      <path d="M54.76,48.48a.16.16,0,0,1-.32,0v-.16a.16.16,0,0,1,.16-.16H56v.93c0,.11,0,.13-.09.2l-.45.39c-.08.07-.09.08-.09.19v.62a.16.16,0,0,1-.32,0v-.77a.17.17,0,0,1,.08-.19l.44-.38c.11-.09.1-.09.1-.23v-.44Z" style="fill: #fff"/>
    </g>
    <g>
      <path d="M51.66,8.62a.16.16,0,0,1,0-.32h.63v.63a.48.48,0,0,1-.51.5h-.55a.49.49,0,0,1-.37-.13.46.46,0,0,1-.15-.39v-.8a.65.65,0,0,1,.17-.47l.38-.48a.49.49,0,0,1,.45-.22h.43a.16.16,0,0,1,0,.32h-.38c-.18,0-.16,0-.27.13l-.35.45a.61.61,0,0,0-.1.42v.63c0,.18,0,.23.22.23h.51c.12,0,.21,0,.21-.17V8.62Z" style="fill: #fff"/>
      <path d="M54.28,7.11a.16.16,0,0,1,.32,0V9.44h-.42l-.84-1.92h0V9.27a.16.16,0,0,1-.32,0V6.94h.42l.84,1.95h0Z" style="fill: #fff"/>
      <path d="M55.64,7.26h-.12c-.11,0-.2,0-.2-.16s.09-.16.19-.16H56a.48.48,0,0,1,.48.32l.28.56a.75.75,0,0,1,.1.37.76.76,0,0,1-.09.35l-.29.58a.49.49,0,0,1-.51.3h-.53a.16.16,0,0,1,0-.32h.15ZM56,9.11H56c.13,0,.17,0,.22-.13l.28-.57a.45.45,0,0,0,.06-.21.54.54,0,0,0-.08-.26l-.27-.54c-.07-.14-.1-.13-.24-.13h0Z" style="fill: #fff"/>
    </g>
    <g>
      <path d="M44.14,7.68V7.16a.16.16,0,1,1,.32,0v.51a.34.34,0,0,1,0,.13l-.61,1.56c0,.08-.06.14-.16.14s-.13-.06-.16-.14L42.9,7.79a.34.34,0,0,1,0-.12V7.16a.16.16,0,0,1,.32,0v.51l.47,1.22Z" style="fill: #fff"/>
      <path d="M45.51,7.32h-.12c-.11,0-.2,0-.2-.16s.09-.16.19-.16h.54a.48.48,0,0,1,.48.32l.28.56a.75.75,0,0,1,.1.37.76.76,0,0,1-.09.35l-.29.58a.49.49,0,0,1-.51.3h-.53a.16.16,0,0,1,0-.32h.15Zm.32,1.85h.06c.13,0,.17,0,.22-.13l.28-.57a.45.45,0,0,0,.06-.21A.55.55,0,0,0,46.38,8l-.27-.54c-.07-.14-.1-.13-.24-.13h0Z" style="fill: #fff"/>
      <path d="M47.82,7.32H47.7c-.11,0-.2,0-.2-.16s.09-.16.19-.16h.54a.48.48,0,0,1,.48.32l.28.56a.75.75,0,0,1,.1.37.76.76,0,0,1-.09.35l-.29.58a.49.49,0,0,1-.51.3h-.53a.16.16,0,0,1,0-.32h.15Zm.32,1.85h.06c.13,0,.17,0,.22-.13l.28-.57a.45.45,0,0,0,.06-.21A.54.54,0,0,0,48.69,8l-.27-.54c-.07-.14-.1-.13-.24-.13h0Z" style="fill: #fff"/>
    </g>
    <g>
      <path d="M36.82,7.14h-.12c-.11,0-.2,0-.2-.16s.09-.16.19-.16h.54a.48.48,0,0,1,.48.32l.28.56a.75.75,0,0,1,.1.37.76.76,0,0,1-.09.35L37.71,9a.49.49,0,0,1-.51.3h-.53a.16.16,0,0,1,0-.32h.15ZM37.15,9h.06c.13,0,.17,0,.22-.13l.28-.57a.45.45,0,0,0,.06-.21.55.55,0,0,0-.08-.26l-.27-.54c-.07-.14-.1-.13-.24-.13h0Z" style="fill: #fff"/>
      <path d="M40.09,9V8.35a.16.16,0,1,1,.32,0v.81a.15.15,0,0,1-.16.16H39A.16.16,0,0,1,39,9h.47V7.14H39a.16.16,0,0,1,0-.32h.79V9Z" style="fill: #fff"/>
    </g>
    <g>
      <path d="M29.48,7.08h-.12c-.11,0-.2,0-.2-.16s.09-.16.19-.16h.54a.48.48,0,0,1,.48.32l.28.56a.74.74,0,0,1,0,.72L30.37,9a.48.48,0,0,1-.51.3h-.53a.16.16,0,0,1,0-.32h.15Zm.32,1.85h.06c.13,0,.17,0,.22-.13l.28-.57A.45.45,0,0,0,30.43,8a.54.54,0,0,0-.08-.26l-.27-.54c-.07-.14-.1-.13-.24-.13h0Z" style="fill: #fff"/>
      <path d="M32.74,6.76a.32.32,0,0,1,.32.32V8.93a.32.32,0,0,1-.32.32H31.8a.32.32,0,0,1-.32-.32V7.08a.32.32,0,0,1,.32-.32Zm0,2.17V7.08H31.8V8.93Z" style="fill: #fff"/>
    </g>
    <g>
      <path d="M23.2,7h-.12c-.11,0-.2,0-.2-.16s.09-.16.19-.16h.54a.48.48,0,0,1,.48.32l.28.56a.76.76,0,0,1,.1.37.76.76,0,0,1-.09.35l-.29.58a.48.48,0,0,1-.51.3H23a.16.16,0,0,1,0-.32h.15Zm.32,1.85h.06c.13,0,.17,0,.22-.13l.28-.57A.45.45,0,0,0,24.14,8a.54.54,0,0,0-.08-.26l-.27-.54C23.73,7,23.7,7,23.55,7h0Z" style="fill: #fff"/>
      <path d="M25.51,8.87h1.1a.16.16,0,0,1,0,.32H25.19v-1a.32.32,0,0,1,.36-.36h.9V7h-1.1a.16.16,0,0,1,0-.32h1.06a.33.33,0,0,1,.36.38v.66a.33.33,0,0,1-.36.37h-.9Z" style="fill: #fff"/>
    </g>
    <g>
      <path d="M8,7.2H7.93c-.11,0-.2,0-.2-.16s.09-.16.19-.16h.54a.48.48,0,0,1,.48.32l.28.56a.76.76,0,0,1,.1.37.76.76,0,0,1-.09.35l-.29.58a.48.48,0,0,1-.51.3H7.9a.16.16,0,0,1,0-.32H8Zm.32,1.85h.06c.13,0,.17,0,.22-.13l.28-.57A.44.44,0,0,0,9,8.14a.54.54,0,0,0-.08-.26l-.27-.54c-.07-.14-.1-.13-.24-.13h0Z" style="fill: #fff"/>
      <path d="M10.36,9.26c0,.07-.08.11-.16.11A.16.16,0,0,1,10,9.22a.33.33,0,0,1,.07-.17L11.32,7c0-.06.08-.12.16-.12a.16.16,0,0,1,.16.15.25.25,0,0,1,0,.13Z" style="fill: #fff"/>
      <path d="M13.35,9.37a.48.48,0,0,1-.48-.3l-.29-.6a.72.72,0,0,1-.09-.34.7.7,0,0,1,.09-.36l.29-.59a.48.48,0,0,1,.49-.31h.54a.15.15,0,0,1,.16.16.15.15,0,0,1-.16.16h-.54c-.14,0-.16,0-.22.13l-.28.56a.49.49,0,0,0-.07.24.45.45,0,0,0,.07.22l.27.55c.06.13.1.14.24.14h.52a.15.15,0,0,1,.16.16.15.15,0,0,1-.16.16Z" style="fill: #fff"/>
      <path d="M15.12,9.21a.16.16,0,0,1-.32,0V6.88h1.08a.48.48,0,0,1,.51.46v.22a.46.46,0,0,1-.51.46h-.29l.72,1a.32.32,0,0,1,.08.17.15.15,0,0,1-.16.15.17.17,0,0,1-.14-.09L15.19,8h-.07Zm0-1.51h.71c.09,0,.23,0,.23-.13V7.35c0-.13-.13-.14-.23-.14h-.71Z" style="fill: #fff"/>
      <path d="M18.58,8.75a.41.41,0,0,1,.11.27.36.36,0,0,1-.4.36h-.71a.47.47,0,0,1-.32-.1.41.41,0,0,1-.15-.3.17.17,0,0,1,.17-.19.15.15,0,0,1,.15.16c0,.1.05.11.14.11h.7s.11,0,.11,0,0-.07-.06-.09l-1.1-1.41a.39.39,0,0,1-.11-.26.36.36,0,0,1,.17-.31.43.43,0,0,1,.27-.06h.68a.45.45,0,0,1,.32.11.44.44,0,0,1,.15.3.16.16,0,0,1-.17.19.14.14,0,0,1-.15-.15c0-.11-.05-.12-.15-.12h-.68s-.11,0-.11,0,0,.07,0,.09Z" style="fill: #fff"/>
      <path d="M19.74,7.2v.12a.16.16,0,0,1-.32,0V6.88H21v.44a.16.16,0,0,1-.32,0V7.2h-.31v2a.16.16,0,0,1-.32,0v-2Z" style="fill: #fff"/>
    </g>
    <g>
      <path d="M1.67,9.13a.48.48,0,0,1-.48-.3L.9,8.23A.72.72,0,0,1,.81,7.9.7.7,0,0,1,.9,7.54l.29-.59a.48.48,0,0,1,.49-.31h.54a.15.15,0,0,1,.16.16A.15.15,0,0,1,2.24,7H1.7c-.14,0-.16,0-.22.13l-.28.56a.49.49,0,0,0-.07.24.45.45,0,0,0,.07.22l.27.55c.06.13.1.14.24.14h.52A.15.15,0,0,1,2.4,9a.15.15,0,0,1-.16.16Z" style="fill: #fff"/>
      <path d="M4.6,8.5a.41.41,0,0,1,.11.27.36.36,0,0,1-.4.36H3.6A.47.47,0,0,1,3.27,9a.41.41,0,0,1-.15-.3.17.17,0,0,1,.17-.19.15.15,0,0,1,.15.16c0,.1.05.11.14.11h.7s.11,0,.11,0,0-.07-.06-.09L3.23,7.27A.39.39,0,0,1,3.12,7a.36.36,0,0,1,.17-.31.43.43,0,0,1,.27-.06h.68a.45.45,0,0,1,.32.11.44.44,0,0,1,.15.3.16.16,0,0,1-.17.19.14.14,0,0,1-.15-.15C4.39,7,4.33,7,4.23,7H3.55s-.11,0-.11,0,0,.07,0,.09Z" style="fill: #fff"/>
    </g>
    <path d="M20.84,34.6v-.67c0-.35.22-.52.56-.52a.47.47,0,0,1,.38.16.52.52,0,0,1,.44-.16.47.47,0,0,1,.5.52v.67Zm.82-.24v-.43c0-.17-.08-.28-.26-.28s-.32.06-.32.28v.43Zm.82,0v-.43c0-.17-.08-.28-.26-.28s-.32.06-.32.28v.43Z" style="fill: #fff"/>
    <path d="M22.14,36.38h.39a.12.12,0,1,1,0,.24h-.47l-1.17-.46c-.06,0-.11,0-.11-.12s0-.1.11-.12l1.17-.46h.47a.12.12,0,1,1,0,.24h-.39l-.92.35Z" style="fill: #fff"/>
    <path d="M22.14,42.4h.39a.12.12,0,1,1,0,.24h-.47l-1.17-.46c-.06,0-.11,0-.11-.12s0-.1.11-.12l1.17-.46h.47a.12.12,0,1,1,0,.24h-.39l-.92.35Z" style="fill: #fff"/>
    <path d="M21.24,38.82s-.06.08-.12.08a.12.12,0,0,1-.12-.11.25.25,0,0,1,.05-.12l.9-1.55S22,37,22.07,37a.12.12,0,0,1,.12.11.19.19,0,0,1,0,.09Z" style="fill: #fff"/>
    <path d="M21.17,40.25v.09c0,.08,0,.15-.12.15s-.12-.07-.12-.14v-.4a.36.36,0,0,1,.24-.36l.42-.21a.56.56,0,0,1,.28-.07.58.58,0,0,1,.27.07l.44.22a.36.36,0,0,1,.23.38v.4a.12.12,0,0,1-.24,0v-.12ZM22.57,40v0c0-.1,0-.12-.1-.17L22,39.58a.34.34,0,0,0-.16,0,.41.41,0,0,0-.2.06l-.41.2c-.1.05-.1.07-.1.18v0Z" style="fill: #fff"/>
    <g>
      <path d="M32.69,35.8a.36.36,0,0,1-.18,0,.39.39,0,0,1-.19-.05L32,35.65a.21.21,0,0,1,0-.39l.29-.15a.39.39,0,0,1,.19-.05.36.36,0,0,1,.18,0l.32.16a.21.21,0,0,1,0,.39Zm.24-.3s0,0,0-.05,0,0,0-.05l-.29-.14a.25.25,0,0,0-.13,0,.22.22,0,0,0-.11,0l-.3.15s0,0,0,.05,0,0,0,.05l.3.15a.22.22,0,0,0,.11,0,.24.24,0,0,0,.13,0Z" style="fill: #fff"/>
      <path d="M33.06,36a.08.08,0,1,1,0,.16H32.7l.42.49a.11.11,0,0,1,0,.07.08.08,0,0,1-.08.08.09.09,0,0,1-.07,0l-.47-.55-.47.55a.09.09,0,0,1-.07,0,.08.08,0,0,1-.08-.08s0-.06,0-.09l.4-.47H32A.08.08,0,0,1,32,36Z" style="fill: #fff"/>
    </g>
  </g>
  <g data-name="Layer 7" id="Layer_7">
    <rect height="5.64" style="fill: #362629" width="32.33" x="12.97" y="10.25"/>
    <path d="M51.36,26.88H7.48A1.73,1.73,0,0,1,5.57,25.4V19.27a1.73,1.73,0,0,1,1.91-1.48H51.36a1.73,1.73,0,0,1,1.91,1.48V25.4A1.73,1.73,0,0,1,51.36,26.88Z" style="fill: #202021"/>
    <path d="M10.85,18.24a3,3,0,0,0,2-1.09A1.69,1.69,0,0,0,13,15.56l32.29,0a1.9,1.9,0,0,0,.57,1.58,3.22,3.22,0,0,0,1.81.85Z" style="fill: #252226"/>
    <rect height="30.91" rx="0.23" ry="0.23" style="stroke: #3b3b3b;stroke-miterlimit: 10;stroke-width: 0.8318662240343336px;fill: url(#linear-gradient)" width="42.98" x="7.51" y="15.89"/>
  </g>
  <g id="Connectors">
    <circle cx="54.17" cy="3.61" data-cir-type="male" id="circuitoCon_GND" r="2.06" style="fill: none;stroke: #e8e5df;stroke-width: 0.982334517143678px"/>
    <rect height="4.12" id="rect355" style="fill: none;stroke: #e8e5df;stroke-width: 0.982334517143678px" width="4.12" x="52.11" y="1.55"/>
    <circle cx="46.95" cy="3.61" data-cir-type="male" id="circuitoCon_VDD" r="2.06" style="fill: none;stroke: #e8e5df;stroke-width: 0.982334517143678px"/>
    <circle cx="39.73" cy="3.61" data-cir-type="male" data-name="circuitoCon_D1/MOSI" id="circuitoCon_D1_MOSI" r="2.06" style="fill: none;stroke: #e8e5df;stroke-width: 0.982334517143678px"/>
    <circle cx="32.5" cy="3.61" data-cir-type="male" data-name="circuitoCon_D0/SCK" id="circuitoCon_D0_SCK" r="2.06" style="fill: none;stroke: #e8e5df;stroke-width: 0.982334517143678px"/>
    <circle cx="25.28" cy="3.61" data-cir-type="male" id="circuitoCon_D2" r="2.06" style="fill: none;stroke: #e8e5df;stroke-width: 0.982334517143678px"/>
    <circle cx="18.06" cy="3.61" data-cir-type="male" id="circuitoCon_RESET" r="2.06" style="fill: none;stroke: #e8e5df;stroke-width: 0.982334517143678px"/>
    <circle cx="10.83" cy="3.61" data-cir-type="male" id="circuitoCon_DC" r="2.06" style="fill: none;stroke: #e8e5df;stroke-width: 0.982334517143678px"/>
    <circle cx="3.61" cy="3.61" data-cir-type="male" id="circuitoCon_CS" r="2.06" style="fill: none;stroke: #e8e5df;stroke-width: 0.982334517143678px"/>
    <circle cx="3.61" cy="54.17" id="connector22pin" r="2.06" style="fill: none;stroke: #e8e5df;stroke-width: 0.982334517143678px"/>
    <rect height="4.12" id="rect365" style="fill: none;stroke: #e8e5df;stroke-width: 0.982334517143678px" width="4.12" x="1.55" y="52.11"/>
    <circle cx="10.83" cy="54.17" id="connector23pin" r="2.06" style="fill: none;stroke: #e8e5df;stroke-width: 0.982334517143678px"/>
    <circle cx="18.06" cy="54.17" id="connector24pin" r="2.06" style="fill: none;stroke: #e8e5df;stroke-width: 0.982334517143678px"/>
    <circle cx="25.28" cy="54.17" id="connector25pin" r="2.06" style="fill: none;stroke: #e8e5df;stroke-width: 0.982334517143678px"/>
    <circle cx="32.5" cy="54.17" id="connector26pin" r="2.06" style="fill: none;stroke: #e8e5df;stroke-width: 0.982334517143678px"/>
    <circle cx="39.73" cy="54.17" id="connector27pin" r="2.06" style="fill: none;stroke: #e8e5df;stroke-width: 0.982334517143678px"/>
    <circle cx="46.95" cy="54.17" id="connector28pin" r="2.06" style="fill: none;stroke: #e8e5df;stroke-width: 0.982334517143678px"/>
    <circle cx="54.17" cy="54.17" id="connector29pin" r="2.06" style="fill: none;stroke: #e8e5df;stroke-width: 0.982334517143678px"/>
  </g>
</svg>