<?xml version="1.0" ?><svg height="9.96mm" viewBox="0 0 283.47 28.23" width="100mm" xmlns="http://www.w3.org/2000/svg" xmlns:xlink="http://www.w3.org/1999/xlink">
  <defs>
    <linearGradient gradientUnits="userSpaceOnUse" id="linear-gradient" x1="2.35" x2="2.35" y1="9.24" y2="3.08">
      <stop offset="0" stop-color="#cb9552"/>
      <stop offset="0.5" stop-color="#d7b189"/>
      <stop offset="0.84" stop-color="#ab6c2e"/>
      <stop offset="0.96" stop-color="#9c530d"/>
    </linearGradient>
    <linearGradient id="linear-gradient-2" x1="2.35" x2="2.35" xlink:href="#linear-gradient" y1="25.53" y2="19.37"/>
    <linearGradient gradientTransform="matrix(-1, 0, 0, 1, 17.37, 0)" id="linear-gradient-3" x1="-122.19" x2="-122.19" xlink:href="#linear-gradient" y1="9.25" y2="3.09"/>
    <linearGradient gradientTransform="matrix(-1, 0, 0, 1, 17.37, 0)" id="linear-gradient-4" x1="-122.19" x2="-122.19" xlink:href="#linear-gradient" y1="25.55" y2="19.39"/>
    <linearGradient gradientUnits="userSpaceOnUse" id="linear-gradient-5" x1="17.16" x2="19.73" y1="21.49" y2="21.49">
      <stop offset="0" stop-color="#e5e2df"/>
      <stop offset="0" stop-color="#ded9d6"/>
      <stop offset="0.27" stop-color="#e8e6e5"/>
      <stop offset="0.49" stop-color="#f3f4f4"/>
      <stop offset="0.58" stop-color="#e5e5e6"/>
      <stop offset="0.75" stop-color="#c0bec0"/>
      <stop offset="0.98" stop-color="#858085"/>
      <stop offset="1" stop-color="#807b80"/>
      <stop offset="1" stop-color="#d1d3d4"/>
    </linearGradient>
    <linearGradient id="linear-gradient-6" x1="21.55" x2="24.12" xlink:href="#linear-gradient-5" y1="21.56" y2="21.56"/>
    <linearGradient id="linear-gradient-7" x1="25.93" x2="28.51" xlink:href="#linear-gradient-5" y1="21.56" y2="21.56"/>
    <linearGradient id="linear-gradient-8" x1="17.16" x2="19.73" xlink:href="#linear-gradient-5" y1="6.68" y2="6.68"/>
    <linearGradient id="linear-gradient-9" x1="21.55" x2="24.12" xlink:href="#linear-gradient-5" y1="6.75" y2="6.75"/>
    <linearGradient id="linear-gradient-10" x1="25.93" x2="28.51" xlink:href="#linear-gradient-5" y1="6.75" y2="6.75"/>
    <linearGradient gradientUnits="userSpaceOnUse" id="linear-gradient-11" x1="16.1" x2="29.57" y1="14.11" y2="14.11">
      <stop offset="0" stop-color="#fff"/>
      <stop offset="0.31" stop-color="#e6e7e8"/>
      <stop offset="1" stop-color="#d6d6d6"/>
    </linearGradient>
    <radialGradient cx="22.82" cy="14.13" gradientUnits="userSpaceOnUse" id="radial-gradient" r="5.63">
      <stop offset="0" stop-color="#fff33b"/>
      <stop offset="0.52" stop-color="#fff139"/>
      <stop offset="0.71" stop-color="#ffeb32"/>
      <stop offset="0.85" stop-color="#fee027"/>
      <stop offset="0.95" stop-color="#fdd016"/>
      <stop offset="1" stop-color="#fdc70c"/>
    </radialGradient>
    <linearGradient id="linear-gradient-12" x1="64.94" x2="67.52" xlink:href="#linear-gradient-5" y1="21.5" y2="21.5"/>
    <linearGradient id="linear-gradient-13" x1="69.33" x2="71.9" xlink:href="#linear-gradient-5" y1="21.57" y2="21.57"/>
    <linearGradient id="linear-gradient-14" x1="73.72" x2="76.29" xlink:href="#linear-gradient-5" y1="21.57" y2="21.57"/>
    <linearGradient id="linear-gradient-15" x1="64.94" x2="67.52" xlink:href="#linear-gradient-5" y1="6.68" y2="6.68"/>
    <linearGradient id="linear-gradient-16" x1="69.33" x2="71.9" xlink:href="#linear-gradient-5" y1="6.75" y2="6.75"/>
    <linearGradient id="linear-gradient-17" x1="73.72" x2="76.29" xlink:href="#linear-gradient-5" y1="6.75" y2="6.75"/>
    <linearGradient id="linear-gradient-18" x1="63.88" x2="77.35" xlink:href="#linear-gradient-11" y1="14.12" y2="14.12"/>
    <radialGradient cx="70.6" cy="14.14" id="radial-gradient-2" r="5.63" xlink:href="#radial-gradient"/>
    <linearGradient id="linear-gradient-19" x1="112.72" x2="115.3" xlink:href="#linear-gradient-5" y1="21.5" y2="21.5"/>
    <linearGradient id="linear-gradient-20" x1="117.11" x2="119.69" xlink:href="#linear-gradient-5" y1="21.57" y2="21.57"/>
    <linearGradient id="linear-gradient-21" x1="121.5" x2="124.07" xlink:href="#linear-gradient-5" y1="21.57" y2="21.57"/>
    <linearGradient id="linear-gradient-22" x1="112.72" x2="115.3" xlink:href="#linear-gradient-5" y1="6.69" y2="6.69"/>
    <linearGradient id="linear-gradient-23" x1="117.11" x2="119.69" xlink:href="#linear-gradient-5" y1="6.76" y2="6.76"/>
    <linearGradient id="linear-gradient-24" x1="121.5" x2="124.07" xlink:href="#linear-gradient-5" y1="6.76" y2="6.76"/>
    <linearGradient id="linear-gradient-25" x1="111.67" x2="125.13" xlink:href="#linear-gradient-11" y1="14.12" y2="14.12"/>
    <radialGradient cx="118.38" cy="14.14" id="radial-gradient-3" r="5.63" xlink:href="#radial-gradient"/>
    <linearGradient id="linear-gradient-26" x1="40.13" x2="43.77" xlink:href="#linear-gradient-5" y1="14.84" y2="14.84"/>
    <linearGradient gradientUnits="userSpaceOnUse" id="linear-gradient-27" x1="40.13" x2="43.77" y1="14.78" y2="14.78">
      <stop offset="0" stop-color="#323232"/>
      <stop offset="0.5" stop-color="#919191"/>
      <stop offset="1" stop-color="#1a1a1a"/>
    </linearGradient>
    <linearGradient id="linear-gradient-28" x1="50.49" x2="54.14" xlink:href="#linear-gradient-5" y1="14.82" y2="14.82"/>
    <linearGradient id="linear-gradient-29" x1="50.49" x2="54.14" xlink:href="#linear-gradient-27" y1="14.76" y2="14.76"/>
    <linearGradient id="linear-gradient-30" x1="93.15" x2="96.79" xlink:href="#linear-gradient-5" y1="14.32" y2="14.32"/>
    <linearGradient id="linear-gradient-31" x1="93.15" x2="96.79" xlink:href="#linear-gradient-27" y1="14.26" y2="14.26"/>
    <linearGradient id="linear-gradient-32" x1="143.99" x2="143.99" xlink:href="#linear-gradient" y1="9.27" y2="3.11"/>
    <linearGradient id="linear-gradient-33" x1="143.99" x2="143.99" xlink:href="#linear-gradient" y1="25.57" y2="19.41"/>
    <linearGradient gradientTransform="matrix(-1, 0, 0, 1, 17.37, 0)" id="linear-gradient-34" x1="-263.82" x2="-263.82" xlink:href="#linear-gradient" y1="9.29" y2="3.13"/>
    <linearGradient gradientTransform="matrix(-1, 0, 0, 1, 17.37, 0)" id="linear-gradient-35" x1="-263.82" x2="-263.82" xlink:href="#linear-gradient" y1="25.58" y2="19.42"/>
    <linearGradient id="linear-gradient-36" x1="158.79" x2="161.37" xlink:href="#linear-gradient-5" y1="21.53" y2="21.53"/>
    <linearGradient id="linear-gradient-37" x1="163.18" x2="165.75" xlink:href="#linear-gradient-5" y1="21.6" y2="21.6"/>
    <linearGradient id="linear-gradient-38" x1="167.57" x2="170.14" xlink:href="#linear-gradient-5" y1="21.6" y2="21.6"/>
    <linearGradient id="linear-gradient-39" x1="158.79" x2="161.37" xlink:href="#linear-gradient-5" y1="6.71" y2="6.71"/>
    <linearGradient id="linear-gradient-40" x1="163.18" x2="165.75" xlink:href="#linear-gradient-5" y1="6.78" y2="6.78"/>
    <linearGradient id="linear-gradient-41" x1="167.57" x2="170.14" xlink:href="#linear-gradient-5" y1="6.78" y2="6.78"/>
    <linearGradient id="linear-gradient-42" x1="157.73" x2="171.2" xlink:href="#linear-gradient-11" y1="14.15" y2="14.15"/>
    <radialGradient cx="164.45" cy="14.17" id="radial-gradient-4" r="5.63" xlink:href="#radial-gradient"/>
    <linearGradient id="linear-gradient-43" x1="206.57" x2="209.15" xlink:href="#linear-gradient-5" y1="21.54" y2="21.54"/>
    <linearGradient id="linear-gradient-44" x1="210.96" x2="213.54" xlink:href="#linear-gradient-5" y1="21.6" y2="21.6"/>
    <linearGradient id="linear-gradient-45" x1="215.35" x2="217.92" xlink:href="#linear-gradient-5" y1="21.6" y2="21.6"/>
    <linearGradient id="linear-gradient-46" x1="206.57" x2="209.15" xlink:href="#linear-gradient-5" y1="6.72" y2="6.72"/>
    <linearGradient id="linear-gradient-47" x1="210.96" x2="213.54" xlink:href="#linear-gradient-5" y1="6.79" y2="6.79"/>
    <linearGradient id="linear-gradient-48" x1="215.35" x2="217.92" xlink:href="#linear-gradient-5" y1="6.79" y2="6.79"/>
    <linearGradient id="linear-gradient-49" x1="205.51" x2="218.98" xlink:href="#linear-gradient-11" y1="14.15" y2="14.15"/>
    <radialGradient cx="212.23" cy="14.17" id="radial-gradient-5" r="5.63" xlink:href="#radial-gradient"/>
    <linearGradient id="linear-gradient-50" x1="254.36" x2="256.93" xlink:href="#linear-gradient-5" y1="21.54" y2="21.54"/>
    <linearGradient id="linear-gradient-51" x1="258.74" x2="261.32" xlink:href="#linear-gradient-5" y1="21.61" y2="21.61"/>
    <linearGradient id="linear-gradient-52" x1="263.13" x2="265.71" xlink:href="#linear-gradient-5" y1="21.61" y2="21.61"/>
    <linearGradient id="linear-gradient-53" x1="254.36" x2="256.93" xlink:href="#linear-gradient-5" y1="6.72" y2="6.72"/>
    <linearGradient id="linear-gradient-54" x1="258.74" x2="261.32" xlink:href="#linear-gradient-5" y1="6.79" y2="6.79"/>
    <linearGradient id="linear-gradient-55" x1="263.13" x2="265.71" xlink:href="#linear-gradient-5" y1="6.79" y2="6.79"/>
    <linearGradient id="linear-gradient-56" x1="253.3" x2="266.77" xlink:href="#linear-gradient-11" y1="14.16" y2="14.16"/>
    <radialGradient cx="260.01" cy="14.18" id="radial-gradient-6" r="5.63" xlink:href="#radial-gradient"/>
    <linearGradient id="linear-gradient-57" x1="181.76" x2="185.4" xlink:href="#linear-gradient-5" y1="14.87" y2="14.87"/>
    <linearGradient id="linear-gradient-58" x1="181.76" x2="185.4" xlink:href="#linear-gradient-27" y1="14.81" y2="14.81"/>
    <linearGradient id="linear-gradient-59" x1="192.13" x2="195.77" xlink:href="#linear-gradient-5" y1="14.86" y2="14.86"/>
    <linearGradient id="linear-gradient-60" x1="192.13" x2="195.77" xlink:href="#linear-gradient-27" y1="14.8" y2="14.8"/>
    <linearGradient id="linear-gradient-61" x1="234.78" x2="238.42" xlink:href="#linear-gradient-5" y1="14.36" y2="14.36"/>
    <linearGradient id="linear-gradient-62" x1="234.78" x2="238.42" xlink:href="#linear-gradient-27" y1="14.3" y2="14.3"/>
  </defs>
  <title>Single Color LED Weatherproof Flexi-Strip 60 LED - (1 m)</title>
  <g data-name="Layer 5" id="Layer_5">
    <rect height="28.23" style="fill: #e6e7e8" width="283.4" x="0.07"/>
  </g>
  <g data-name="Layer 9" id="Layer_9">
    <g data-name="Layer 4" id="Layer_4">
      <g data-name="Layer 1" id="Layer_1">
        <g>
          <g>
            <g>
              <path d="M111.28,22h-1.94V6h2.1a.23.23,0,0,1,0,.45h-1.65V21.6h1.49a.23.23,0,1,1,0,.45Z" style="fill: #585856"/>
              <path d="M127.82,22h-1.94a.23.23,0,0,1,0-.45h1.49V6.5h-1.65a.23.23,0,0,1,0-.45h2.1Z" style="fill: #585856"/>
            </g>
            <g>
              <path d="M63.5,22H61.56V6h2.1a.23.23,0,1,1,0,.45H62V21.6H63.5a.23.23,0,1,1,0,.45Z" style="fill: #585856"/>
              <path d="M80,22H78.1a.23.23,0,0,1,0-.45h1.49V6.5H77.94a.23.23,0,1,1,0-.45H80Z" style="fill: #585856"/>
            </g>
            <g>
              <path d="M15.72,22H13.77V6h2.1a.23.23,0,1,1,0,.45H14.23V21.6h1.49a.23.23,0,0,1,0,.45Z" style="fill: #585856"/>
              <path d="M32.26,22H30.31a.23.23,0,1,1,0-.45h1.49V6.5H30.16a.23.23,0,0,1,0-.45h2.1Z" style="fill: #585856"/>
            </g>
          </g>
          <g>
            <path d="M4.63,6.16A3.08,3.08,0,0,1,1.55,9.24H.07V3.08H1.55A3.08,3.08,0,0,1,4.63,6.16Z" style="fill: url(#linear-gradient)"/>
            <path d="M4.63,22.45a3.08,3.08,0,0,1-3.08,3.08H.07V19.37H1.55A3.08,3.08,0,0,1,4.63,22.45Z" style="fill: url(#linear-gradient-2)"/>
          </g>
          <g>
            <path d="M137.28,6.17a3.08,3.08,0,0,0,3.08,3.08h1.48V3.09h-1.48A3.08,3.08,0,0,0,137.28,6.17Z" style="fill: url(#linear-gradient-3)"/>
            <path d="M137.28,22.47a3.08,3.08,0,0,0,3.08,3.08h1.48V19.39h-1.48A3.08,3.08,0,0,0,137.28,22.47Z" style="fill: url(#linear-gradient-4)"/>
          </g>
          <g>
            <path d="M3.44,16.71c-.51-.88-1.33-1.33-1.87-1l-.11.08-.27-.56C1,14.83.8,14.43.59,14c.56-1.13,1.09-2.27,1.47-3.14s.87-2.29.87-2.29l-.16-.08s-.88,1.22-1.38,2C1,11.1.64,11.8.22,12.55V0H0V28.1H.22V15.59l0,.09c.28.52.57,1,.82,1.4.12.18.23.36.33.5l.12.23A2,2,0,0,0,3,18.93a.71.71,0,0,0,.37-.09.81.81,0,0,0,.37-.51A2.24,2.24,0,0,0,3.44,16.71ZM3.32,18.2a.36.36,0,0,1-.15.23c-.17.09-.48,0-.78-.3a2.29,2.29,0,0,1-.44-.56,1.82,1.82,0,0,1-.28-1.25l0-.06a.33.33,0,0,1,.13-.17.3.3,0,0,1,.14,0A1.59,1.59,0,0,1,3,17,1.82,1.82,0,0,1,3.32,18.2Z" style="fill: #585856"/>
            <path d="M141.62,0V12.55c-.41-.74-.82-1.44-1.17-2-.5-.81-1.38-2-1.38-2l-.16.08s.49,1.42.87,2.29.91,2,1.47,3.14c-.21.4-.42.8-.61,1.18l-.27.56-.11-.08c-.54-.31-1.36.14-1.87,1a2.24,2.24,0,0,0-.33,1.61.82.82,0,0,0,.37.51.71.71,0,0,0,.37.09,2,2,0,0,0,1.49-1.12l.12-.23c.1-.15.21-.32.33-.5.25-.4.54-.87.82-1.4l0-.09V28.1h.22V0Zm-1.73,17.58a2.29,2.29,0,0,1-.44.56c-.3.28-.61.39-.78.3a.36.36,0,0,1-.15-.23A1.82,1.82,0,0,1,138.8,17a1.59,1.59,0,0,1,1.08-.89.3.3,0,0,1,.14,0,.32.32,0,0,1,.13.17l0,.06A1.82,1.82,0,0,1,139.89,17.58Z" style="fill: #585856"/>
          </g>
        </g>
      </g>
      <g id="Text">
        <g>
          <path d="M3,15.27h.59V13H3a.19.19,0,1,1,0-.38H4v2.64h.38v-.8a.19.19,0,0,1,.06-.13.18.18,0,0,1,.14-.06.19.19,0,0,1,.19.19v1a.19.19,0,0,1-.19.19H3a.18.18,0,0,1-.14-.06.19.19,0,0,1-.06-.14.18.18,0,0,1,.06-.13A.19.19,0,0,1,3,15.27Z" style="fill: #585856"/>
          <path d="M7.38,15.65H5.64V14.33a.37.37,0,0,1,.11-.27A.37.37,0,0,1,6,13.94H7.19V13H5.82A.19.19,0,0,1,5.68,13a.2.2,0,0,1,0-.27.19.19,0,0,1,.14-.06H7.19a.38.38,0,0,1,.27.11.37.37,0,0,1,.11.27v.93a.37.37,0,0,1-.11.27.38.38,0,0,1-.27.11H6v.94H7.38a.19.19,0,0,1,.13.06.19.19,0,0,1,0,.27A.19.19,0,0,1,7.38,15.65Z" style="fill: #585856"/>
          <path d="M10.4,12.82v.7l-.78,2a.2.2,0,0,1-.38,0l-.78-2v-.7a.19.19,0,0,1,.06-.14.18.18,0,0,1,.14-.06.19.19,0,0,1,.14.06.19.19,0,0,1,.06.14v.62l.58,1.49L10,13.45v-.63a.19.19,0,0,1,.06-.14.19.19,0,0,1,.14-.06.18.18,0,0,1,.14.06A.19.19,0,0,1,10.4,12.82Z" style="fill: #585856"/>
        </g>
        <path d="M7.53,5.86V6a.19.19,0,0,1-.06.14.18.18,0,0,1-.14.06H5.79a.18.18,0,0,1-.14-.06A.19.19,0,0,1,5.6,6V5.86a.19.19,0,0,1,.19-.19H7.34a.19.19,0,0,1,.13.05A.18.18,0,0,1,7.53,5.86Z" style="fill: #585856"/>
        <path d="M6.37,22.44v-.59a.18.18,0,0,1,.06-.13.2.2,0,0,1,.14-.05.18.18,0,0,1,.13.05.18.18,0,0,1,.05.13v.59h.59a.19.19,0,0,1,.14.06.19.19,0,0,1,0,.27.19.19,0,0,1-.14.06H6.76v.59a.19.19,0,0,1-.06.14.19.19,0,0,1-.14.06.18.18,0,0,1-.14-.06.19.19,0,0,1-.06-.14v-.59H5.78a.19.19,0,0,1-.13-.06.18.18,0,0,1-.06-.14.18.18,0,0,1,.06-.13.19.19,0,0,1,.13-.06Z" style="fill: #585856"/>
        <g>
          <path d="M130.5,15.16h.59V12.9h-.58a.19.19,0,1,1,0-.38h1v2.64h.38v-.8a.19.19,0,0,1,.06-.13.18.18,0,0,1,.14-.06.19.19,0,0,1,.19.19v1a.19.19,0,0,1-.19.19H130.5a.18.18,0,0,1-.14-.06.19.19,0,0,1-.06-.14.18.18,0,0,1,.06-.13A.19.19,0,0,1,130.5,15.16Z" style="fill: #585856"/>
          <path d="M134.88,15.54h-1.74V14.22a.37.37,0,0,1,.11-.27.37.37,0,0,1,.27-.11h1.16V12.9h-1.37a.19.19,0,0,1-.14-.06.2.2,0,0,1,0-.27.19.19,0,0,1,.14-.06h1.37a.38.38,0,0,1,.27.11.37.37,0,0,1,.11.27v.93a.37.37,0,0,1-.11.27.38.38,0,0,1-.27.11h-1.16v.94h1.36a.19.19,0,0,1,.13.06.19.19,0,0,1,0,.27A.19.19,0,0,1,134.88,15.54Z" style="fill: #585856"/>
          <path d="M137.9,12.71v.7l-.78,2a.2.2,0,0,1-.38,0l-.78-2v-.7a.19.19,0,0,1,.06-.14.18.18,0,0,1,.14-.06.19.19,0,0,1,.14.06.19.19,0,0,1,.06.14v.62l.58,1.49.58-1.48v-.63a.19.19,0,0,1,.06-.14.19.19,0,0,1,.14-.06.18.18,0,0,1,.14.06A.19.19,0,0,1,137.9,12.71Z" style="fill: #585856"/>
        </g>
        <path d="M135,5.74v.17a.19.19,0,0,1-.06.14.18.18,0,0,1-.14.06h-1.55a.18.18,0,0,1-.14-.06.19.19,0,0,1-.06-.14V5.74a.19.19,0,0,1,.19-.19h1.55a.19.19,0,0,1,.13.05A.18.18,0,0,1,135,5.74Z" style="fill: #585856"/>
        <path d="M133.87,22.32v-.59a.18.18,0,0,1,.06-.13.2.2,0,0,1,.14-.05.18.18,0,0,1,.13.05.18.18,0,0,1,.05.13v.59h.59a.19.19,0,0,1,.14.06.19.19,0,0,1,0,.27.19.19,0,0,1-.14.06h-.58v.59a.19.19,0,0,1-.06.14.19.19,0,0,1-.14.06.18.18,0,0,1-.14-.06.19.19,0,0,1-.06-.14v-.59h-.59a.19.19,0,0,1-.13-.06.18.18,0,0,1-.06-.14.18.18,0,0,1,.06-.13.19.19,0,0,1,.13-.06Z" style="fill: #585856"/>
      </g>
    </g>
    <g id="LED">
      <g data-name="Layer 8" id="Layer_8">
        <g>
          <rect height="4.39" rx="0.76" ry="0.76" style="fill: url(#linear-gradient-5)" width="2.57" x="17.16" y="19.3"/>
          <rect height="4.39" rx="0.76" ry="0.76" style="fill: url(#linear-gradient-6)" width="2.57" x="21.55" y="19.37"/>
          <rect height="4.39" rx="0.76" ry="0.76" style="fill: url(#linear-gradient-7)" width="2.57" x="25.93" y="19.37"/>
          <rect height="4.39" rx="0.76" ry="0.76" style="fill: url(#linear-gradient-8)" width="2.57" x="17.16" y="4.48"/>
          <rect height="4.39" rx="0.76" ry="0.76" style="fill: url(#linear-gradient-9)" width="2.57" x="21.55" y="4.55"/>
          <rect height="4.39" rx="0.76" ry="0.76" style="fill: url(#linear-gradient-10)" width="2.57" x="25.93" y="4.55"/>
          <rect height="13.47" style="fill: url(#linear-gradient-11)" width="13.47" x="16.1" y="7.38"/>
          <circle cx="22.82" cy="14.13" r="5.63" style="fill: url(#radial-gradient)"/>
        </g>
        <g>
          <rect height="4.39" rx="0.76" ry="0.76" style="fill: url(#linear-gradient-12)" width="2.57" x="64.94" y="19.3"/>
          <rect height="4.39" rx="0.76" ry="0.76" style="fill: url(#linear-gradient-13)" width="2.57" x="69.33" y="19.37"/>
          <rect height="4.39" rx="0.76" ry="0.76" style="fill: url(#linear-gradient-14)" width="2.57" x="73.72" y="19.37"/>
          <rect height="4.39" rx="0.76" ry="0.76" style="fill: url(#linear-gradient-15)" width="2.57" x="64.94" y="4.49"/>
          <rect height="4.39" rx="0.76" ry="0.76" style="fill: url(#linear-gradient-16)" width="2.57" x="69.33" y="4.56"/>
          <rect height="4.39" rx="0.76" ry="0.76" style="fill: url(#linear-gradient-17)" width="2.57" x="73.72" y="4.56"/>
          <rect height="13.47" style="fill: url(#linear-gradient-18)" width="13.47" x="63.88" y="7.38"/>
          <circle cx="70.6" cy="14.14" r="5.63" style="fill: url(#radial-gradient-2)"/>
        </g>
        <g>
          <rect height="4.39" rx="0.76" ry="0.76" style="fill: url(#linear-gradient-19)" width="2.57" x="112.72" y="19.31"/>
          <rect height="4.39" rx="0.76" ry="0.76" style="fill: url(#linear-gradient-20)" width="2.57" x="117.11" y="19.38"/>
          <rect height="4.39" rx="0.76" ry="0.76" style="fill: url(#linear-gradient-21)" width="2.57" x="121.5" y="19.38"/>
          <rect height="4.39" rx="0.76" ry="0.76" style="fill: url(#linear-gradient-22)" width="2.57" x="112.72" y="4.49"/>
          <rect height="4.39" rx="0.76" ry="0.76" style="fill: url(#linear-gradient-23)" width="2.57" x="117.11" y="4.56"/>
          <rect height="4.39" rx="0.76" ry="0.76" style="fill: url(#linear-gradient-24)" width="2.57" x="121.5" y="4.56"/>
          <rect height="13.47" style="fill: url(#linear-gradient-25)" width="13.47" x="111.67" y="7.39"/>
          <circle cx="118.38" cy="14.14" r="5.63" style="fill: url(#radial-gradient-3)"/>
        </g>
        <g>
          <g>
            <path d="M45.91,12.45a.23.23,0,0,1-.23-.23V6.57H37.76v5.65a.23.23,0,1,1-.45,0V6.12h8.83v6.1A.23.23,0,0,1,45.91,12.45Z" style="fill: #585856"/>
            <path d="M46.14,23.65H37.31v-6.1a.23.23,0,1,1,.45,0V23.2h7.93V17.55a.23.23,0,1,1,.45,0Z" style="fill: #585856"/>
          </g>
          <g>
            <path d="M56.28,12.45a.23.23,0,0,1-.23-.23V6.57H48.13v5.65a.23.23,0,1,1-.45,0V6.12h8.83v6.1A.23.23,0,0,1,56.28,12.45Z" style="fill: #585856"/>
            <path d="M56.51,23.65H47.68v-6.1a.23.23,0,1,1,.45,0V23.2h7.93V17.55a.23.23,0,1,1,.45,0Z" style="fill: #585856"/>
          </g>
          <g>
            <path d="M98.88,12a.23.23,0,0,1-.23-.23V6.13H90.73v5.65a.23.23,0,1,1-.45,0V5.68H99.1v6.1A.23.23,0,0,1,98.88,12Z" style="fill: #585856"/>
            <path d="M99.1,23.21H90.28v-6.1a.23.23,0,1,1,.45,0v5.65h7.93V17.11a.23.23,0,1,1,.45,0Z" style="fill: #585856"/>
          </g>
        </g>
        <rect height="12.88" rx="1.82" ry="1.82" style="fill: url(#linear-gradient-26)" width="3.64" x="40.13" y="8.4"/>
        <rect height="6.78" style="fill: url(#linear-gradient-27)" width="3.64" x="40.13" y="11.39"/>
        <rect height="12.88" rx="1.82" ry="1.82" style="fill: url(#linear-gradient-28)" width="3.64" x="50.49" y="8.38"/>
        <rect height="6.78" style="fill: url(#linear-gradient-29)" width="3.64" x="50.49" y="11.37"/>
        <rect height="12.88" rx="1.82" ry="1.82" style="fill: url(#linear-gradient-30)" width="3.64" x="93.15" y="7.88"/>
        <rect height="6.78" style="fill: url(#linear-gradient-31)" width="3.64" x="93.15" y="10.87"/>
      </g>
    </g>
  </g>
  <g data-name="Layer 10" id="Layer_10">
    <g>
      <g>
        <g>
          <path d="M252.92,22.09H251v-16h2.1a.23.23,0,0,1,0,.45h-1.65v15.1h1.49a.23.23,0,1,1,0,.45Z" style="fill: #585856"/>
          <path d="M269.45,22.09h-1.94a.23.23,0,0,1,0-.45H269V6.53h-1.65a.23.23,0,0,1,0-.45h2.1Z" style="fill: #585856"/>
        </g>
        <g>
          <path d="M205.13,22.09h-1.94v-16h2.1a.23.23,0,1,1,0,.45h-1.65v15.1h1.49a.23.23,0,1,1,0,.45Z" style="fill: #585856"/>
          <path d="M221.67,22.09h-1.94a.23.23,0,0,1,0-.45h1.49V6.53h-1.65a.23.23,0,1,1,0-.45h2.1Z" style="fill: #585856"/>
        </g>
        <g>
          <path d="M157.35,22.09h-1.94v-16h2.1a.23.23,0,1,1,0,.45h-1.65v15.1h1.49a.23.23,0,0,1,0,.45Z" style="fill: #585856"/>
          <path d="M173.89,22.09h-1.94a.23.23,0,1,1,0-.45h1.49V6.53h-1.65a.23.23,0,0,1,0-.45h2.1Z" style="fill: #585856"/>
        </g>
      </g>
      <g>
        <path d="M146.26,6.19a3.08,3.08,0,0,1-3.08,3.08h-1.48V3.11h1.48A3.08,3.08,0,0,1,146.26,6.19Z" style="fill: url(#linear-gradient-32)"/>
        <path d="M146.26,22.49a3.08,3.08,0,0,1-3.08,3.08h-1.48V19.41h1.48A3.08,3.08,0,0,1,146.26,22.49Z" style="fill: url(#linear-gradient-33)"/>
      </g>
      <g>
        <path d="M278.92,6.21A3.08,3.08,0,0,0,282,9.29h1.48V3.13H282A3.08,3.08,0,0,0,278.92,6.21Z" style="fill: url(#linear-gradient-34)"/>
        <path d="M278.92,22.5A3.08,3.08,0,0,0,282,25.58h1.48V19.42H282A3.08,3.08,0,0,0,278.92,22.5Z" style="fill: url(#linear-gradient-35)"/>
      </g>
      <g>
        <path d="M145.08,16.75c-.51-.88-1.33-1.33-1.87-1l-.11.08-.27-.56c-.18-.38-.4-.78-.61-1.18.56-1.13,1.09-2.27,1.47-3.14s.87-2.29.87-2.29l-.16-.08s-.88,1.22-1.38,2c-.35.56-.75,1.26-1.17,2V0h-.22v28.1h.22V15.63l0,.09c.28.52.57,1,.82,1.4.12.18.23.36.33.5l.12.23A2,2,0,0,0,144.66,19a.71.71,0,0,0,.37-.09.81.81,0,0,0,.37-.51A2.24,2.24,0,0,0,145.08,16.75ZM145,18.24a.36.36,0,0,1-.15.23c-.17.09-.48,0-.78-.3a2.29,2.29,0,0,1-.44-.56,1.82,1.82,0,0,1-.28-1.25l0-.06a.33.33,0,0,1,.13-.17.3.3,0,0,1,.14,0,1.59,1.59,0,0,1,1.08.89A1.82,1.82,0,0,1,145,18.24Z" style="fill: #585856"/>
        <path d="M283.25,0V12.58c-.41-.74-.82-1.44-1.17-2-.5-.81-1.38-2-1.38-2l-.16.08s.49,1.42.87,2.29.91,2,1.47,3.14c-.21.4-.42.8-.61,1.18l-.27.56-.11-.08c-.54-.31-1.36.14-1.87,1a2.24,2.24,0,0,0-.33,1.61.82.82,0,0,0,.37.51.71.71,0,0,0,.37.09,2,2,0,0,0,1.49-1.12l.12-.23c.1-.15.21-.32.33-.5.25-.4.54-.87.82-1.4l0-.09v12.5h.22V0Zm-1.73,17.58a2.29,2.29,0,0,1-.44.56c-.3.28-.61.39-.78.3a.36.36,0,0,1-.15-.23,1.82,1.82,0,0,1,.28-1.25,1.59,1.59,0,0,1,1.08-.89.3.3,0,0,1,.14,0,.32.32,0,0,1,.13.17l0,.06A1.82,1.82,0,0,1,281.53,17.61Z" style="fill: #585856"/>
      </g>
    </g>
    <g>
      <path d="M144.64,15.3h.59V13h-.58a.19.19,0,1,1,0-.38h1V15.3H146v-.8a.19.19,0,0,1,.06-.13.18.18,0,0,1,.14-.06.19.19,0,0,1,.19.19v1a.19.19,0,0,1-.19.19h-1.55a.18.18,0,0,1-.14-.06.19.19,0,0,1-.06-.14.18.18,0,0,1,.06-.13A.19.19,0,0,1,144.64,15.3Z" style="fill: #585856"/>
      <path d="M149,15.69h-1.74V14.36a.37.37,0,0,1,.11-.27.37.37,0,0,1,.27-.11h1.16V13h-1.37a.19.19,0,0,1-.14-.06.2.2,0,0,1,0-.27.19.19,0,0,1,.14-.06h1.37a.38.38,0,0,1,.27.11.37.37,0,0,1,.11.27V14a.37.37,0,0,1-.11.27.38.38,0,0,1-.27.11h-1.16v.94H149a.19.19,0,0,1,.13.06.19.19,0,0,1,0,.27A.19.19,0,0,1,149,15.69Z" style="fill: #585856"/>
      <path d="M152,12.86v.7l-.78,2a.2.2,0,0,1-.38,0l-.78-2v-.7a.19.19,0,0,1,.06-.14.18.18,0,0,1,.14-.06.19.19,0,0,1,.14.06.19.19,0,0,1,.06.14v.62l.58,1.49.58-1.48v-.63a.19.19,0,0,1,.06-.14.19.19,0,0,1,.14-.06.18.18,0,0,1,.14.06A.19.19,0,0,1,152,12.86Z" style="fill: #585856"/>
    </g>
    <path d="M149.16,5.89v.17a.19.19,0,0,1-.06.14.18.18,0,0,1-.14.06h-1.55a.18.18,0,0,1-.14-.06.19.19,0,0,1-.06-.14V5.89a.19.19,0,0,1,.19-.19H149a.19.19,0,0,1,.13.05A.18.18,0,0,1,149.16,5.89Z" style="fill: #585856"/>
    <path d="M148,22.47v-.59a.18.18,0,0,1,.06-.13.2.2,0,0,1,.14-.05.18.18,0,0,1,.13.05.18.18,0,0,1,.05.13v.59H149a.19.19,0,0,1,.14.06.19.19,0,0,1,0,.27.19.19,0,0,1-.14.06h-.58v.59a.19.19,0,0,1-.06.14.19.19,0,0,1-.14.06.18.18,0,0,1-.14-.06.19.19,0,0,1-.06-.14v-.59h-.59a.19.19,0,0,1-.13-.06.18.18,0,0,1-.06-.14.18.18,0,0,1,.06-.13.19.19,0,0,1,.13-.06Z" style="fill: #585856"/>
    <g>
      <path d="M272.14,15.19h.59V12.93h-.58a.18.18,0,0,1-.14-.06.19.19,0,0,1,0-.27.18.18,0,0,1,.14-.06h1v2.64h.38v-.8a.19.19,0,0,1,.19-.19.19.19,0,0,1,.19.19v1a.18.18,0,0,1-.06.14.18.18,0,0,1-.14.06h-1.55a.18.18,0,0,1-.14-.06.19.19,0,0,1-.06-.14.18.18,0,0,1,.06-.13A.19.19,0,0,1,272.14,15.19Z" style="fill: #585856"/>
      <path d="M276.52,15.58h-1.74V14.25a.37.37,0,0,1,.11-.27.37.37,0,0,1,.27-.11h1.16v-.93H275a.18.18,0,0,1-.14-.06.2.2,0,0,1,0-.27.18.18,0,0,1,.14-.06h1.37a.37.37,0,0,1,.27.11.37.37,0,0,1,.11.27v.93a.39.39,0,0,1-.39.39h-1.16v.94h1.36a.19.19,0,0,1,0,.38Z" style="fill: #585856"/>
      <path d="M279.54,12.75v.7l-.78,2a.2.2,0,0,1-.38,0l-.78-2v-.7a.19.19,0,0,1,.06-.14.19.19,0,0,1,.27,0,.19.19,0,0,1,.06.14v.62l.58,1.49.58-1.48v-.63a.19.19,0,0,1,.06-.14.19.19,0,0,1,.14-.06.18.18,0,0,1,.14.06A.19.19,0,0,1,279.54,12.75Z" style="fill: #585856"/>
    </g>
    <path d="M276.66,5.78v.17a.19.19,0,0,1-.06.14.18.18,0,0,1-.14.06h-1.55a.18.18,0,0,1-.14-.06.19.19,0,0,1-.06-.14V5.78a.19.19,0,0,1,.19-.19h1.55a.19.19,0,0,1,.13.05A.18.18,0,0,1,276.66,5.78Z" style="fill: #585856"/>
    <path d="M275.51,22.36v-.59a.18.18,0,0,1,.06-.13.19.19,0,0,1,.14-.06.18.18,0,0,1,.13.06.18.18,0,0,1,.05.13v.59h.59a.19.19,0,0,1,.14.06.19.19,0,0,1,0,.27.19.19,0,0,1-.14.06h-.58v.59a.19.19,0,0,1-.06.14.19.19,0,0,1-.14.06.18.18,0,0,1-.14-.06.19.19,0,0,1-.06-.14v-.59h-.59a.18.18,0,0,1-.13-.06.18.18,0,0,1-.06-.14.2.2,0,0,1,.19-.19Z" style="fill: #585856"/>
    <g>
      <rect height="4.39" rx="0.76" ry="0.76" style="fill: url(#linear-gradient-36)" width="2.57" x="158.79" y="19.33"/>
      <rect height="4.39" rx="0.76" ry="0.76" style="fill: url(#linear-gradient-37)" width="2.57" x="163.18" y="19.4"/>
      <rect height="4.39" rx="0.76" ry="0.76" style="fill: url(#linear-gradient-38)" width="2.57" x="167.57" y="19.4"/>
      <rect height="4.39" rx="0.76" ry="0.76" style="fill: url(#linear-gradient-39)" width="2.57" x="158.79" y="4.52"/>
      <rect height="4.39" rx="0.76" ry="0.76" style="fill: url(#linear-gradient-40)" width="2.57" x="163.18" y="4.59"/>
      <rect height="4.39" rx="0.76" ry="0.76" style="fill: url(#linear-gradient-41)" width="2.57" x="167.57" y="4.59"/>
      <rect height="13.47" style="fill: url(#linear-gradient-42)" width="13.47" x="157.73" y="7.41"/>
      <circle cx="164.45" cy="14.17" r="5.63" style="fill: url(#radial-gradient-4)"/>
    </g>
    <g>
      <rect height="4.39" rx="0.76" ry="0.76" style="fill: url(#linear-gradient-43)" width="2.57" x="206.57" y="19.34"/>
      <rect height="4.39" rx="0.76" ry="0.76" style="fill: url(#linear-gradient-44)" width="2.57" x="210.96" y="19.41"/>
      <rect height="4.39" rx="0.76" ry="0.76" style="fill: url(#linear-gradient-45)" width="2.57" x="215.35" y="19.41"/>
      <rect height="4.39" rx="0.76" ry="0.76" style="fill: url(#linear-gradient-46)" width="2.57" x="206.57" y="4.52"/>
      <rect height="4.39" rx="0.76" ry="0.76" style="fill: url(#linear-gradient-47)" width="2.57" x="210.96" y="4.59"/>
      <rect height="4.39" rx="0.76" ry="0.76" style="fill: url(#linear-gradient-48)" width="2.57" x="215.35" y="4.59"/>
      <rect height="13.47" style="fill: url(#linear-gradient-49)" width="13.47" x="205.51" y="7.42"/>
      <circle cx="212.23" cy="14.17" r="5.63" style="fill: url(#radial-gradient-5)"/>
    </g>
    <g>
      <rect height="4.39" rx="0.76" ry="0.76" style="fill: url(#linear-gradient-50)" width="2.57" x="254.36" y="19.34"/>
      <rect height="4.39" rx="0.76" ry="0.76" style="fill: url(#linear-gradient-51)" width="2.57" x="258.74" y="19.41"/>
      <rect height="4.39" rx="0.76" ry="0.76" style="fill: url(#linear-gradient-52)" width="2.57" x="263.13" y="19.41"/>
      <rect height="4.39" rx="0.76" ry="0.76" style="fill: url(#linear-gradient-53)" width="2.57" x="254.36" y="4.53"/>
      <rect height="4.39" rx="0.76" ry="0.76" style="fill: url(#linear-gradient-54)" width="2.57" x="258.74" y="4.6"/>
      <rect height="4.39" rx="0.76" ry="0.76" style="fill: url(#linear-gradient-55)" width="2.57" x="263.13" y="4.6"/>
      <rect height="13.47" style="fill: url(#linear-gradient-56)" width="13.47" x="253.3" y="7.42"/>
      <circle cx="260.01" cy="14.18" r="5.63" style="fill: url(#radial-gradient-6)"/>
    </g>
    <g>
      <g>
        <path d="M187.54,12.48a.23.23,0,0,1-.23-.23V6.61h-7.93v5.65a.23.23,0,1,1-.45,0V6.16h8.83v6.1A.23.23,0,0,1,187.54,12.48Z" style="fill: #585856"/>
        <path d="M187.77,23.69h-8.83v-6.1a.23.23,0,1,1,.45,0v5.65h7.93V17.58a.23.23,0,1,1,.45,0Z" style="fill: #585856"/>
      </g>
      <g>
        <path d="M197.91,12.48a.23.23,0,0,1-.23-.23V6.61h-7.93v5.65a.23.23,0,1,1-.45,0V6.16h8.83v6.1A.23.23,0,0,1,197.91,12.48Z" style="fill: #585856"/>
        <path d="M198.14,23.69h-8.83v-6.1a.23.23,0,1,1,.45,0v5.65h7.93V17.58a.23.23,0,1,1,.45,0Z" style="fill: #585856"/>
      </g>
      <g>
        <path d="M240.51,12a.23.23,0,0,1-.23-.23V6.16h-7.93v5.65a.23.23,0,1,1-.45,0V5.71h8.83v6.1A.23.23,0,0,1,240.51,12Z" style="fill: #585856"/>
        <path d="M240.74,23.24h-8.83v-6.1a.23.23,0,1,1,.45,0v5.65h7.93V17.14a.23.23,0,1,1,.45,0Z" style="fill: #585856"/>
      </g>
    </g>
    <rect height="12.88" rx="1.82" ry="1.82" style="fill: url(#linear-gradient-57)" width="3.64" x="181.76" y="8.43"/>
    <rect height="6.78" style="fill: url(#linear-gradient-58)" width="3.64" x="181.76" y="11.43"/>
    <rect height="12.88" rx="1.82" ry="1.82" style="fill: url(#linear-gradient-59)" width="3.64" x="192.13" y="8.42"/>
    <rect height="6.78" style="fill: url(#linear-gradient-60)" width="3.64" x="192.13" y="11.41"/>
    <rect height="12.88" rx="1.82" ry="1.82" style="fill: url(#linear-gradient-61)" width="3.64" x="234.78" y="7.92"/>
    <rect height="6.78" style="fill: url(#linear-gradient-62)" width="3.64" x="234.78" y="10.91"/>
  </g>
  <g id="Connectors">
    <circle cx="1.73" cy="22.45" data-cir-type="female" id="circuitoCon_VDD" r="0.93" style="fill: none"/>
    <circle cx="1.73" cy="6.05" data-cir-type="female" id="circuitoCon_SIG" r="0.93" style="fill: none"/>
  </g>
</svg>