<?xml version="1.0" ?><svg height="77.38mm" viewBox="0 0 181.5 219.34" width="64.03mm" xmlns="http://www.w3.org/2000/svg" xmlns:xlink="http://www.w3.org/1999/xlink">
  <defs>
    <linearGradient gradientTransform="matrix(1, 0, 0, -1, -73.46, 112.8)" gradientUnits="userSpaceOnUse" id="linear-gradient" x1="148.37" x2="148.37" y1="-83.15" y2="-89.4">
      <stop offset="0" stop-color="#999"/>
      <stop offset="1" stop-color="#f2f2f2"/>
    </linearGradient>
    <linearGradient gradientTransform="matrix(1, 0, 0, -1, -59.06, 112.8)" id="linear-gradient-2" x1="141.18" x2="141.18" xlink:href="#linear-gradient" y1="-83.15" y2="-89.4"/>
    <linearGradient gradientTransform="matrix(1, 0, 0, -1, -44.66, 112.8)" id="linear-gradient-3" x1="133.98" x2="133.98" xlink:href="#linear-gradient" y1="-83.15" y2="-89.4"/>
    <linearGradient gradientTransform="matrix(1, 0, 0, -1, -30.27, 112.8)" id="linear-gradient-4" x1="126.78" x2="126.78" xlink:href="#linear-gradient" y1="-83.15" y2="-89.4"/>
    <linearGradient gradientTransform="matrix(1, 0, 0, -1, -15.87, 112.8)" id="linear-gradient-5" x1="119.58" x2="119.58" xlink:href="#linear-gradient" y1="-83.15" y2="-89.4"/>
  </defs>
  <title>Membrane 1x4 Matrix Keypad</title>
  <g id="square">
    <rect height="53.17" style="fill: #1c1c1c" width="181.5"/>
    <rect height="119.67" style="fill: #cadee4;opacity: 0.63" width="36" x="71.29" y="53.11"/>
  </g>
  <g id="buttons">
    <rect height="28.5" rx="3.77" ry="3.77" style="fill: #0094db" width="28.75" x="17.92" y="12.46"/>
    <rect height="28.5" rx="3.77" ry="3.77" style="fill: #0094db" width="28.75" x="56.17" y="12.46"/>
    <rect height="28.5" rx="3.77" ry="3.77" style="fill: #0094db" width="28.75" x="94.92" y="12.46"/>
    <rect height="28.5" rx="3.77" ry="3.77" style="fill: #0094db" width="28.75" x="133.79" y="12.46"/>
  </g>
  <g id="text">
    <path d="M34.45,35.3H32.39V19.76a4.78,4.78,0,0,1-.7.55,11.42,11.42,0,0,1-1,.61q-.57.3-1.2.56a8.76,8.76,0,0,1-1.24.41V19.81a12,12,0,0,0,1.44-.51q.76-.32,1.49-.71t1.39-.83a11.06,11.06,0,0,0,1.13-.85h.78Z" style="fill: #fff"/>
    <path d="M73.72,22a3.73,3.73,0,0,0-.26-1.44A2.79,2.79,0,0,0,71.71,19a4.1,4.1,0,0,0-1.3-.2,4.3,4.3,0,0,0-1.18.16,5.75,5.75,0,0,0-1.12.45,6.89,6.89,0,0,0-1.05.69,7.61,7.61,0,0,0-.95.89V18.74A6.15,6.15,0,0,1,68,17.46,6.82,6.82,0,0,1,70.66,17a6.31,6.31,0,0,1,2,.32,4.68,4.68,0,0,1,1.63.93,4.32,4.32,0,0,1,1.08,1.52,5.11,5.11,0,0,1,.4,2.07,7.09,7.09,0,0,1-.25,1.93,6,6,0,0,1-.74,1.63,7.89,7.89,0,0,1-1.25,1.47,17.57,17.57,0,0,1-1.77,1.43q-1.27.9-2.09,1.54a9.29,9.29,0,0,0-1.3,1.2,3.49,3.49,0,0,0-.68,1.12,3.9,3.9,0,0,0-.19,1.29h9V35.3H65.4v-.89a7.41,7.41,0,0,1,.25-2,5.27,5.27,0,0,1,.83-1.67A9.26,9.26,0,0,1,68,29.13q.93-.79,2.29-1.78A14.43,14.43,0,0,0,71.92,26,7,7,0,0,0,73,24.73a4.6,4.6,0,0,0,.57-1.3A5.62,5.62,0,0,0,73.72,22Z" style="fill: #fff"/>
    <path d="M114.65,30.21a5.24,5.24,0,0,1-.46,2.21,4.89,4.89,0,0,1-1.29,1.71,6,6,0,0,1-2,1.1,8.1,8.1,0,0,1-2.57.39,7.48,7.48,0,0,1-4.09-1V32.43a6.55,6.55,0,0,0,4.16,1.43,5.65,5.65,0,0,0,1.7-.24,3.8,3.8,0,0,0,1.3-.69,3.07,3.07,0,0,0,.84-1.09,3.41,3.41,0,0,0,.29-1.44q0-3.52-5-3.52H106V25.13h1.42q4.44,0,4.44-3.31,0-3.06-3.39-3.06A5.76,5.76,0,0,0,104.94,20V18A7.81,7.81,0,0,1,109,17a6.28,6.28,0,0,1,2,.31,4.68,4.68,0,0,1,1.57.88,3.89,3.89,0,0,1,1,1.35A4.18,4.18,0,0,1,114,21.3a4.39,4.39,0,0,1-3.59,4.56v.05a5.68,5.68,0,0,1,1.69.45,4.52,4.52,0,0,1,1.34.9,4,4,0,0,1,.88,1.3A4.13,4.13,0,0,1,114.65,30.21Z" style="fill: #fff"/>
    <path d="M152,17.31V29.19h2.31v1.88H152V35.3h-2V31.07h-8.45V29.29q1.18-1.33,2.38-2.84t2.3-3.07q1.1-1.55,2-3.1a28.37,28.37,0,0,0,1.57-3Zm-8.16,11.88H150v-8.8q-.94,1.64-1.78,2.93t-1.6,2.35q-.76,1.05-1.45,1.91Z" style="fill: #fff"/>
  </g>
  <g data-name="line4s white" id="line4s_white">
    <g>
      <rect height="119.96" style="fill: #e5d2c1" width="3.25" x="74.67" y="53.04"/>
      <rect height="119.96" style="fill: #e5d2c1" width="3.25" x="81.33" y="53.04"/>
      <rect height="119.96" style="fill: #e5d2c1" width="3.25" x="87.92" y="53.04"/>
      <rect height="119.96" style="fill: #e5d2c1" width="3.25" x="94.54" y="53.04"/>
      <rect height="119.96" style="fill: #e5d2c1" width="3.25" x="100.79" y="53.04"/>
    </g>
    <g>
      <rect data-name="&lt;Rectangle&gt;" height="32.4" id="_Rectangle_" style="fill: #333" transform="translate(178.59 377.72) rotate(-180)" width="36" x="71.29" y="172.66"/>
      <rect height="7.2" style="fill: #323232" width="7.2" x="71.3" y="204.91"/>
      <polygon points="72.53 206.13 72.53 206.13 74.9 208.51 77.27 206.14 77.27 206.13 72.53 206.13" style="fill: #1a1a1a"/>
      <polygon points="72.54 210.87 72.54 210.87 74.91 208.49 77.28 210.86 77.28 210.87 72.54 210.87" style="fill: #4d4d4d"/>
      <polygon points="77.28 206.13 77.27 206.13 74.9 208.5 77.27 210.87 77.28 210.87 77.28 206.13" style="fill: #666"/>
      <polygon points="72.54 206.14 72.54 206.14 74.91 208.51 72.54 210.88 72.54 210.88 72.54 206.14" style="fill: #323232"/>
      <rect height="2.83" style="fill: #1a1a1a" width="2.83" x="73.49" y="207.08"/>
      <rect height="7.2" style="fill: #323232" width="7.2" x="78.5" y="204.91"/>
      <polygon points="79.73 206.13 79.73 206.13 82.1 208.51 84.47 206.14 84.47 206.13 79.73 206.13" style="fill: #1a1a1a"/>
      <polygon points="79.74 210.87 79.74 210.87 82.11 208.49 84.48 210.86 84.48 210.87 79.74 210.87" style="fill: #4d4d4d"/>
      <polygon points="84.48 206.13 84.47 206.13 82.1 208.5 84.47 210.87 84.48 210.87 84.48 206.13" style="fill: #666"/>
      <polygon points="79.74 206.14 79.74 206.14 82.11 208.51 79.74 210.88 79.74 210.88 79.74 206.14" style="fill: #323232"/>
      <rect height="2.83" style="fill: #1a1a1a" width="2.83" x="80.69" y="207.08"/>
      <rect height="7.2" style="fill: #323232" width="7.2" x="85.7" y="204.91"/>
      <polygon points="86.93 206.13 86.93 206.13 89.3 208.51 91.67 206.14 91.67 206.13 86.93 206.13" style="fill: #1a1a1a"/>
      <polygon points="86.94 210.87 86.94 210.87 89.31 208.49 91.68 210.86 91.68 210.87 86.94 210.87" style="fill: #4d4d4d"/>
      <polygon points="91.68 206.13 91.67 206.13 89.3 208.5 91.67 210.87 91.68 210.87 91.68 206.13" style="fill: #666"/>
      <polygon points="86.94 206.14 86.94 206.14 89.31 208.51 86.94 210.88 86.94 210.88 86.94 206.14" style="fill: #323232"/>
      <rect height="2.83" style="fill: #1a1a1a" width="2.83" x="87.89" y="207.08"/>
      <rect height="7.2" style="fill: #323232" width="7.2" x="92.9" y="204.91"/>
      <polygon points="94.13 206.13 94.13 206.13 96.5 208.51 98.87 206.14 98.87 206.13 94.13 206.13" style="fill: #1a1a1a"/>
      <polygon points="94.14 210.87 94.14 210.87 96.51 208.49 98.88 210.86 98.88 210.87 94.14 210.87" style="fill: #4d4d4d"/>
      <polygon points="98.88 206.13 98.87 206.13 96.5 208.5 98.87 210.87 98.88 210.87 98.88 206.13" style="fill: #666"/>
      <polygon points="94.14 206.14 94.14 206.14 96.51 208.51 94.14 210.88 94.14 210.88 94.14 206.14" style="fill: #323232"/>
      <rect height="2.83" style="fill: #1a1a1a" width="2.83" x="95.09" y="207.08"/>
      <rect height="7.2" style="fill: #323232" width="7.2" x="100.1" y="204.91"/>
      <polygon points="101.33 206.13 101.33 206.13 103.7 208.51 106.07 206.14 106.07 206.13 101.33 206.13" style="fill: #1a1a1a"/>
      <polygon points="101.34 210.87 101.34 210.87 103.71 208.49 106.08 210.86 106.08 210.87 101.34 210.87" style="fill: #4d4d4d"/>
      <polygon points="106.08 206.13 106.07 206.13 103.7 208.5 106.07 210.87 106.08 210.87 106.08 206.13" style="fill: #666"/>
      <polygon points="101.34 206.14 101.34 206.14 103.71 208.51 101.34 210.88 101.34 210.88 101.34 206.14" style="fill: #323232"/>
      <rect height="2.83" style="fill: #1a1a1a" width="2.83" x="102.29" y="207.08"/>
      <g>
        <g data-name="&lt;Group&gt;" id="_Group_">
          <rect data-name="&lt;Rectangle&gt;" height="6.24" id="_Rectangle_2" style="fill: url(#linear-gradient)" transform="translate(149.83 398.16) rotate(-180)" width="2.92" x="73.46" y="195.96"/>
        </g>
        <g data-name="&lt;Group&gt;" id="_Group_2">
          <rect data-name="&lt;Rectangle&gt;" height="6.24" id="_Rectangle_3" style="fill: url(#linear-gradient-2)" transform="translate(164.23 398.16) rotate(-180)" width="2.92" x="80.66" y="195.96"/>
        </g>
        <g data-name="&lt;Group&gt;" id="_Group_3">
          <rect data-name="&lt;Rectangle&gt;" height="6.24" id="_Rectangle_4" style="fill: url(#linear-gradient-3)" transform="translate(178.63 398.16) rotate(-180)" width="2.92" x="87.85" y="195.96"/>
        </g>
        <g data-name="&lt;Group&gt;" id="_Group_4">
          <rect data-name="&lt;Rectangle&gt;" height="6.24" id="_Rectangle_5" style="fill: url(#linear-gradient-4)" transform="translate(193.02 398.16) rotate(-180)" width="2.92" x="95.05" y="195.96"/>
        </g>
        <g data-name="&lt;Group&gt;" id="_Group_5">
          <rect data-name="&lt;Rectangle&gt;" height="6.24" id="_Rectangle_6" style="fill: url(#linear-gradient-5)" transform="translate(207.42 398.16) rotate(-180)" width="2.92" x="102.25" y="195.96"/>
        </g>
      </g>
    </g>
  </g>
  <g data-name="Layer 7" id="Layer_7">
    <rect data-name="5" height="2.83" id="_5" style="fill: #1a1a1a" width="2.83" x="73.49" y="207.08"/>
    <rect data-name="4" height="2.83" id="_4" style="fill: #1a1a1a" width="2.83" x="80.69" y="207.08"/>
    <rect data-name="3" height="2.83" id="_3" style="fill: #1a1a1a" width="2.83" x="87.89" y="207.08"/>
    <rect data-name="2" height="2.83" id="_2" style="fill: #1a1a1a" width="2.83" x="95.09" y="207.08"/>
    <rect data-name="1" height="2.83" id="_1" style="fill: #1a1a1a" width="2.83" x="102.29" y="207.08"/>
  </g>
  <g id="Connectors">
    <rect data-cir-type="male" height="2.83" id="circuitoCon_1" style="fill: none" width="2.83" x="73.49" y="216.5"/>
    <rect data-cir-type="male" height="2.83" id="circuitoCon_2" style="fill: none" width="2.83" x="80.69" y="216.5"/>
    <rect data-cir-type="male" height="2.83" id="circuitoCon_3" style="fill: none" width="2.83" x="87.89" y="216.5"/>
    <rect data-cir-type="male" height="2.83" id="circuitoCon_4" style="fill: none" width="2.83" x="95.09" y="216.5"/>
    <rect data-cir-type="male" height="2.83" id="circuitoCon_5" style="fill: none" width="2.83" x="102.29" y="216.5"/>
  </g>
  <g data-name="Layer 8" id="Layer_8">
    <rect height="12.02" style="fill: #aeaaae" width="2.27" x="80.97" y="207.32"/>
    <rect height="12.02" style="fill: #aeaaae" width="2.27" x="88.17" y="207.32"/>
    <rect height="12.02" style="fill: #aeaaae" width="2.27" x="73.77" y="207.32"/>
    <rect height="12.02" style="fill: #aeaaae" width="2.27" x="95.36" y="207.32"/>
    <rect height="12.02" style="fill: #aeaaae" width="2.27" x="102.56" y="207.32"/>
  </g>
</svg>