<?xml version="1.0" ?><svg height="35.36mm" viewBox="0 0 75.28 100.24" width="26.56mm" xmlns="http://www.w3.org/2000/svg" xmlns:xlink="http://www.w3.org/1999/xlink">
  <defs>
    <linearGradient gradientUnits="userSpaceOnUse" id="linear-gradient" x1="20.28" x2="55" y1="77.54" y2="17.41">
      <stop offset="0" stop-color="#030303"/>
      <stop offset="0.1" stop-color="#171717"/>
      <stop offset="0.23" stop-color="#292929"/>
      <stop offset="0.36" stop-color="#333"/>
      <stop offset="0.51" stop-color="#373737"/>
      <stop offset="1" stop-color="#171717"/>
    </linearGradient>
    <radialGradient cx="37.58" cy="29.56" gradientTransform="translate(0 5.91) scale(1 0.8)" gradientUnits="userSpaceOnUse" id="radial-gradient" r="30.71">
      <stop offset="0" stop-color="#2b2b2b"/>
      <stop offset="0.29" stop-color="#191919"/>
      <stop offset="0.66" stop-color="#090909"/>
      <stop offset="0.94" stop-color="#030303"/>
      <stop offset="0.98" stop-color="#0d0d0d"/>
      <stop offset="1" stop-color="#141414"/>
    </radialGradient>
    <linearGradient gradientUnits="userSpaceOnUse" id="linear-gradient-2" x1="23.84" x2="50.99" y1="50.93" y2="3.89">
      <stop offset="0" stop-color="#030303"/>
      <stop offset="0.1" stop-color="#171717"/>
      <stop offset="0.24" stop-color="#292929"/>
      <stop offset="0.38" stop-color="#333"/>
      <stop offset="0.54" stop-color="#373737"/>
      <stop offset="1" stop-color="#171717"/>
    </linearGradient>
  </defs>
  <title>SparkFun Thumb Joystick</title>
  <g id="HOLES">
    <circle cx="66.84" cy="16.45" r="5.79" style="fill: none;stroke: #fff;stroke-miterlimit: 10"/>
    <circle cx="8.88" cy="17.23" r="5.79" style="fill: none;stroke: #fff;stroke-miterlimit: 10"/>
    <circle cx="66.84" cy="92.42" r="5.79" style="fill: none;stroke: #fff;stroke-miterlimit: 10"/>
    <circle cx="8.88" cy="93.21" r="5.79" style="fill: none;stroke: #fff;stroke-miterlimit: 10"/>
    <circle cx="28.41" cy="13.48" r="2.04" style="fill: none;stroke: #fff;stroke-miterlimit: 10"/>
    <circle cx="46.7" cy="13.48" r="2.04" style="fill: none;stroke: #fff;stroke-miterlimit: 10"/>
    <circle cx="46.7" cy="27.74" r="2.04" style="fill: none;stroke: #fff;stroke-miterlimit: 10"/>
    <circle cx="28.41" cy="27.91" r="2.04" style="fill: none;stroke: #fff;stroke-miterlimit: 10"/>
    <circle cx="15.85" cy="30.72" r="2.59" style="fill: none;stroke: #fff;stroke-miterlimit: 10"/>
    <circle cx="59.35" cy="30.72" r="2.59" style="fill: none;stroke: #fff;stroke-miterlimit: 10"/>
    <circle cx="15.85" cy="68.37" r="2.59" style="fill: none;stroke: #fff;stroke-miterlimit: 10"/>
    <circle cx="59.35" cy="68.37" r="2.59" style="fill: none;stroke: #fff;stroke-miterlimit: 10"/>
    <circle cx="8.57" cy="42.62" r="2.04" style="fill: none;stroke: #fff;stroke-miterlimit: 10"/>
    <circle cx="8.57" cy="49.79" r="2.04" style="fill: none;stroke: #fff;stroke-miterlimit: 10"/>
    <circle cx="8.57" cy="56.95" r="2.04" style="fill: none;stroke: #fff;stroke-miterlimit: 10"/>
    <circle cx="30.47" cy="78.37" r="2.04" style="fill: none;stroke: #fff;stroke-miterlimit: 10"/>
    <circle cx="37.64" cy="78.37" r="2.04" style="fill: none;stroke: #fff;stroke-miterlimit: 10"/>
    <circle cx="44.81" cy="78.37" r="2.04" style="fill: none;stroke: #fff;stroke-miterlimit: 10"/>
    <path d="M1.38,9.74v90.5H73.72V9.74Zm58,18.61A2.38,2.38,0,1,1,57,30.72,2.38,2.38,0,0,1,59.35,28.35ZM28.41,11.61a1.87,1.87,0,1,1-1.87,1.87A1.87,1.87,0,0,1,28.41,11.61ZM8.88,11.44a5.79,5.79,0,1,1-5.79,5.79A5.8,5.8,0,0,1,8.88,11.44ZM8.57,51.66a1.87,1.87,0,1,1,1.87-1.87A1.87,1.87,0,0,1,8.57,51.66ZM10.44,57a1.87,1.87,0,1,1-1.87-1.86A1.86,1.86,0,0,1,10.44,57ZM8.57,44.49a1.87,1.87,0,1,1,1.87-1.87A1.87,1.87,0,0,1,8.57,44.49ZM8.88,99a5.8,5.8,0,1,1,5.8-5.79A5.79,5.79,0,0,1,8.88,99Zm7-28.26a2.38,2.38,0,1,1,2.38-2.37A2.37,2.37,0,0,1,15.85,70.74Zm0-37.64a2.38,2.38,0,1,1,2.38-2.38A2.38,2.38,0,0,1,15.85,33.1ZM23.2,98.25a1.87,1.87,0,1,1,1.87-1.87A1.87,1.87,0,0,1,23.2,98.25Zm3.34-70.34a1.87,1.87,0,1,1,1.87,1.87A1.87,1.87,0,0,1,26.54,27.91Zm3.93,70.34a1.87,1.87,0,1,1,1.87-1.87A1.87,1.87,0,0,1,30.47,98.25Zm0-18a1.87,1.87,0,1,1,1.87-1.87A1.87,1.87,0,0,1,30.47,80.24Zm7,18a1.87,1.87,0,1,1,1.87-1.87A1.86,1.86,0,0,1,37.5,98.25Zm.14-18a1.87,1.87,0,1,1,1.87-1.87A1.87,1.87,0,0,1,37.64,80.24Zm7.17-3.74a1.87,1.87,0,1,1-1.87,1.87A1.87,1.87,0,0,1,44.81,76.5Zm0,21.75a1.87,1.87,0,1,1,1.87-1.87A1.87,1.87,0,0,1,44.85,98.25ZM46.7,29.61a1.87,1.87,0,1,1,1.87-1.87A1.87,1.87,0,0,1,46.7,29.61Zm0-14.26a1.87,1.87,0,1,1,1.87-1.87A1.87,1.87,0,0,1,46.7,15.35ZM52,98.25a1.87,1.87,0,1,1,1.87-1.87A1.87,1.87,0,0,1,52,98.25Zm7.32-27.51a2.38,2.38,0,1,1,2.38-2.37A2.37,2.37,0,0,1,59.35,70.74Zm7.49,27.47a5.79,5.79,0,1,1,5.79-5.79A5.79,5.79,0,0,1,66.84,98.21Zm0-76a5.79,5.79,0,1,1,5.79-5.79A5.79,5.79,0,0,1,66.84,22.24Z" style="fill: #cf2f27"/>
  </g>
  <g data-name="light lines" id="light_lines">
    <line style="fill: #8a231e;stroke: #cf2f27;stroke-miterlimit: 10" x1="28.41" x2="28.41" y1="29.95" y2="56.95"/>
    <polyline points="10.62 56.95 41.07 56.95 44.76 60.64 44.76 76.07" style="fill: #cf2f27;stroke: #cf2f27;stroke-miterlimit: 10"/>
    <polyline points="6.71 44.07 4.8 45.97 4.8 60.45 8.71 64.35 26.54 64.35 30.14 67.95 30.14 76.07" style="fill: #cf2f27;stroke: #cf2f27;stroke-miterlimit: 10"/>
  </g>
  <g data-name="white lines" id="white_lines">
    <polyline points="54.82 99.01 55.95 97.89 55.95 94.39 54.13 92.58 50.57 92.58 48.82 94.33 46.98 92.48 43.13 92.48 41.4 94.22 39.68 92.5 36.01 92.5 34.16 94.35 32.39 92.59 29.07 92.59 27.07 94.58 25.27 92.78 20.76 92.78 19.05 94.49 19.05 98.37 20.32 99.64" style="fill: none;stroke: #e8e5df;stroke-linecap: round;stroke-linejoin: round;stroke-width: 0.75px"/>
    <polyline points="25.7 99.64 27.17 98.17 28.82 99.83" style="fill: none;stroke: #e8e5df;stroke-linecap: round;stroke-linejoin: round;stroke-width: 0.75px"/>
    <polyline points="32.49 99.64 33.97 98.17 35.62 99.83" style="fill: none;stroke: #e8e5df;stroke-linecap: round;stroke-linejoin: round;stroke-width: 0.75px"/>
    <polyline points="39.69 99.64 41.16 98.17 42.82 99.83" style="fill: none;stroke: #e8e5df;stroke-linecap: round;stroke-linejoin: round;stroke-width: 0.75px"/>
    <polyline points="46.88 99.64 48.35 98.17 50.01 99.83" style="fill: none;stroke: #e8e5df;stroke-linecap: round;stroke-linejoin: round;stroke-width: 0.75px"/>
    <polyline points="16.38 72.24 16.38 74.82 24.3 74.82 24.3 81.74 52.03 81.74 52.03 74.41 59.88 74.41 59.88 72.24" style="fill: none;stroke: #fff;stroke-linecap: round;stroke-linejoin: round;stroke-width: 0.75px"/>
    <polyline points="59.88 64.24 59.88 60.82 65.47 60.82 65.47 37.82 59.88 37.82 59.88 34.16" style="fill: none;stroke: #fff;stroke-linecap: round;stroke-linejoin: round;stroke-width: 0.75px"/>
    <polyline points="16.38 34.57 16.38 36.32 6.13 36.32 6.13 63.32 16.38 63.32 16.38 64.49" style="fill: none;stroke: #fff;stroke-linecap: round;stroke-linejoin: round;stroke-width: 0.75px"/>
    <polyline points="21.8 10.66 21.8 29.32 20.13 29.32" style="fill: none;stroke: #fff;stroke-linecap: round;stroke-linejoin: round;stroke-width: 0.75px"/>
    <polyline points="53.88 10.66 53.88 29.32 56.13 29.32" style="fill: none;stroke: #fff;stroke-linecap: round;stroke-linejoin: round;stroke-width: 0.75px"/>
    <g>
      <line style="fill: none;stroke: #fff;stroke-linecap: round;stroke-linejoin: round;stroke-width: 0.75px" x1="8.88" x2="8.88" y1="24.31" y2="32.07"/>
      <path d="M5.28,29.43a.37.37,0,0,0,.52-.11l3.08-4.84L12,29.32a.37.37,0,0,0,.63-.4L9.2,23.58a.37.37,0,0,0-.32-.17.37.37,0,0,0-.31.17l-3.4,5.34a.36.36,0,0,0-.06.2A.37.37,0,0,0,5.28,29.43Z" style="fill: #fff"/>
    </g>
    <g>
      <line style="fill: none;stroke: #fff;stroke-linecap: round;stroke-linejoin: round;stroke-width: 0.75px" x1="63.58" x2="71.34" y1="27.41" y2="27.41"/>
      <path d="M68.7,31a.38.38,0,0,0-.11-.52l-4.84-3.08,4.84-3.09a.37.37,0,0,0,.11-.51.36.36,0,0,0-.51-.12l-5.34,3.4a.37.37,0,0,0-.17.32.37.37,0,0,0,.17.31l5.34,3.4a.36.36,0,0,0,.2.06A.37.37,0,0,0,68.7,31Z" style="fill: #fff"/>
    </g>
    <circle cx="38.13" cy="49.53" r="1.96" style="fill: none;stroke: #fff;stroke-linecap: round;stroke-linejoin: round;stroke-width: 0.75px"/>
    <path d="M65.47,76.7a1.35,1.35,0,0,0-1.77,1,3.07,3.07,0,0,0-.05.53V83a1.91,1.91,0,0,0,0,.2l.16-.18c.54-.6,1.07-1.21,1.62-1.8a1.35,1.35,0,0,1,1.12-.46,3.26,3.26,0,0,0,.88-.06A3.4,3.4,0,0,0,70,77.14a2.63,2.63,0,0,0-.67-1.66,4.91,4.91,0,0,0-.45-.38v.17c0,.46-.28.66-.69.45a2.1,2.1,0,0,1-.7-.52.66.66,0,0,1,.38-1.13,3.28,3.28,0,0,1,.49-.06,1.89,1.89,0,0,0-1.73-.33,1.47,1.47,0,0,0-1.08,1.11,1.27,1.27,0,0,0,.28,1,7.56,7.56,0,0,0,.59.68,1,1,0,0,1,.33.61.78.78,0,0,1-.7.84.9.9,0,0,1-1-.46.43.43,0,0,1,.11-.51C65.24,76.85,65.36,76.78,65.47,76.7Z" style="fill: #fff"/>
  </g>
  <g id="text">
    <g>
      <path d="M6.06,78.34c0-.1.06-.18.18-.18s.15.08.18.18l.68,2.38a.16.16,0,0,1-.17.18.2.2,0,0,1-.19-.18l-.13-.42H5.86l-.14.42a.2.2,0,0,1-.19.18c-.09,0-.19-.09-.16-.18Zm.18.65h0L6,80h.55Z" style="fill: #fff"/>
      <path d="M8.28,79.68v1c0,.11,0,.23-.17.23s-.17-.12-.17-.23V79.25c0-.12,0-.25.17-.25s.17.13.17.25v0h0l.28-.18A.61.61,0,0,1,8.85,79H9.1a.41.41,0,0,1,.31.12c.16.13.15.28.16.46l0,1.06c0,.12,0,.26-.16.26s-.17-.12-.17-.23l0-1c0-.21,0-.29-.23-.29H8.89a.23.23,0,0,0-.11,0Z" style="fill: #fff"/>
      <path d="M11.05,79.34c-.1,0-.23,0-.23-.17s.12-.17.23-.17h.46a.54.54,0,0,1,.44.15.47.47,0,0,1,.15.4l0,1.15c0,.1-.05.2-.16.2a.17.17,0,0,1-.17-.17l-.24.12a.28.28,0,0,1-.2.05H11a.53.53,0,0,1-.38-.12.49.49,0,0,1-.18-.42v-.15a.42.42,0,0,1,.17-.37.54.54,0,0,1,.39-.13h.73v-.08c0-.25-.06-.29-.3-.29Zm0,.71c-.1,0-.23,0-.23.15v.22c0,.12.14.14.22.14h.37l.38-.19v-.08c0-.18-.06-.24-.24-.24Z" style="fill: #fff"/>
      <path d="M14,80.56h.26c.11,0,.23,0,.23.17s-.13.17-.23.17h-.86c-.1,0-.24,0-.24-.17s.12-.17.24-.17h.26V78.64h-.26c-.1,0-.24,0-.24-.17s.12-.17.24-.17h.35c.2,0,.25,0,.25.24Z" style="fill: #fff"/>
      <path d="M15.56,79.63a.45.45,0,0,1,.21-.44.6.6,0,0,1,.48-.19h.27a.61.61,0,0,1,.48.19.45.45,0,0,1,.21.44v.64a.48.48,0,0,1-.23.45.57.57,0,0,1-.46.18h-.27a.56.56,0,0,1-.46-.18.48.48,0,0,1-.23-.45Zm.33.64c0,.07,0,.11.13.2a.3.3,0,0,0,.23.09h.27a.32.32,0,0,0,.23-.09c.1-.09.12-.13.12-.2v-.64c0-.07,0-.12-.12-.2a.32.32,0,0,0-.23-.09h-.27a.3.3,0,0,0-.23.09c-.1.08-.13.13-.13.2Z" style="fill: #fff"/>
      <path d="M18.09,79.63a.5.5,0,0,1,.12-.36l.25-.19a.28.28,0,0,1,.21-.08H19a.65.65,0,0,1,.33.17l.08.06v0a.18.18,0,0,1,.17-.2c.15,0,.17.12.17.23v1.66c0,.3,0,.37-.17.49l-.11.09a.51.51,0,0,1-.42.15h-.56c-.1,0-.24,0-.24-.17s.12-.17.24-.17h.62a.25.25,0,0,0,.17-.08l.08-.08a.17.17,0,0,0,.05-.14v-.46l-.07.07a.45.45,0,0,1-.28.16h-.4a.34.34,0,0,1-.25-.1l-.21-.19a.36.36,0,0,1-.11-.32Zm.34.46c0,.08,0,.15,0,.18l.14.11a.18.18,0,0,0,.1,0H19s.09,0,.16-.09l.26-.22a.16.16,0,0,0,0-.11v-.25a.18.18,0,0,0,0-.11l-.26-.21a.29.29,0,0,0-.16-.09h-.25a.17.17,0,0,0-.1,0l-.14.11s0,.11,0,.18Z" style="fill: #fff"/>
    </g>
    <g>
      <path d="M23,90.34h-.56c-.12,0-.18,0-.18-.17s.06-.18.18-.18H23a.32.32,0,0,1,.14,0l1.72.67c.09,0,.15.07.15.18S25,91,24.86,91l-1.72.67a.32.32,0,0,1-.14,0h-.55c-.12,0-.18,0-.18-.18s.06-.17.18-.17H23l1.35-.52Z" style="fill: #fff"/>
      <path d="M25,88.24a.52.52,0,0,1-.33.53L24,89.1a.81.81,0,0,1-.76,0l-.65-.32a.53.53,0,0,1-.34-.54v-.6a.17.17,0,0,1,.18-.18.17.17,0,0,1,.17.18v.59c0,.15,0,.17.15.24l.61.31a.64.64,0,0,0,.27.07.55.55,0,0,0,.25-.07l.61-.3c.14-.07.15-.11.15-.27v-.57a.17.17,0,0,1,.18-.18.17.17,0,0,1,.17.18Z" style="fill: #fff"/>
      <path d="M25,85.71a.53.53,0,0,1-.33.53l-.66.32a.77.77,0,0,1-.76,0l-.65-.33a.53.53,0,0,1-.34-.54v-.6a.17.17,0,0,1,.18-.18.17.17,0,0,1,.17.18v.59c0,.15,0,.18.15.24l.61.31a.64.64,0,0,0,.27.07.55.55,0,0,0,.25-.07l.61-.3c.14-.07.15-.11.15-.26v-.58a.17.17,0,0,1,.18-.18.17.17,0,0,1,.17.18Z" style="fill: #fff"/>
    </g>
    <g>
      <path d="M30.49,90.34h-.56c-.11,0-.18,0-.18-.17a.16.16,0,0,1,.18-.18h.56a.3.3,0,0,1,.13,0l1.72.67c.09,0,.16.07.16.18s-.07.14-.16.18l-1.72.67a.3.3,0,0,1-.13,0h-.56a.16.16,0,0,1-.18-.18c0-.12.07-.17.18-.17h.56l1.35-.52Z" style="fill: #fff"/>
      <path d="M32.14,87.63a.18.18,0,0,1,.36,0v1.56H29.75V87.63a.18.18,0,0,1,.36,0v1.21H31v-.52a.16.16,0,0,1,.17-.17.16.16,0,0,1,.18.17v.52h.84Z" style="fill: #fff"/>
      <path d="M32.32,86.3a.18.18,0,0,1,0,.36H29.75V85.47a.54.54,0,0,1,.51-.56h.25a.52.52,0,0,1,.5.56v.33l1.13-.8a.37.37,0,0,1,.19-.09.18.18,0,0,1,.17.18.21.21,0,0,1-.1.16l-1.39,1v.08Zm-1.66,0v-.78c0-.1,0-.25-.15-.25h-.25c-.14,0-.15.14-.15.25v.78Z" style="fill: #fff"/>
      <path d="M30.11,83.77h.12c.11,0,.18,0,.18.17a.16.16,0,0,1-.18.18h-.48V82.38h.48c.11,0,.18.05.18.17a.16.16,0,0,1-.18.18h-.12v.34h2.21a.16.16,0,0,1,.18.18c0,.13-.07.17-.18.17H30.11Z" style="fill: #fff"/>
    </g>
    <g>
      <path d="M46.19,90.11a.45.45,0,0,1,.29-.12.39.39,0,0,1,.4.44v.78a.49.49,0,0,1-.11.35.45.45,0,0,1-.33.17.19.19,0,0,1-.21-.19.16.16,0,0,1,.18-.16c.1,0,.12-.06.12-.16v-.76s0-.12,0-.12-.08,0-.11.06l-1.55,1.21a.4.4,0,0,1-.63-.07.49.49,0,0,1-.06-.29V90.5a.52.52,0,0,1,.12-.35.47.47,0,0,1,.33-.16.18.18,0,0,1,.2.18.15.15,0,0,1-.16.17c-.12,0-.14.06-.14.17v.75s0,.12,0,.12a.21.21,0,0,0,.1-.06Z" style="fill: #fff"/>
      <path d="M46.53,87.63a.17.17,0,0,1,.18-.18.16.16,0,0,1,.17.18v1.56H44.14V87.63a.17.17,0,0,1,.18-.18.16.16,0,0,1,.17.18v1.21h.84v-.52a.18.18,0,0,1,.36,0v.52h.84Z" style="fill: #fff"/>
      <path d="M46.53,85.09a.17.17,0,0,1,.18-.18.16.16,0,0,1,.17.18v1.57H44.32c-.12,0-.18,0-.18-.18s.06-.18.18-.18h2.21Z" style="fill: #fff"/>
    </g>
    <g>
      <path d="M53.18,90.68a.17.17,0,0,1-.18.18.16.16,0,0,1-.17-.18V90h.69a.53.53,0,0,1,.56.56v.61a.5.5,0,0,1-.15.4.47.47,0,0,1-.43.17h-.88a.71.71,0,0,1-.51-.18l-.54-.42a.53.53,0,0,1-.24-.49v-.47a.18.18,0,1,1,.36,0v.42c0,.19,0,.18.14.29l.49.39a.68.68,0,0,0,.46.11h.69c.19,0,.25,0,.25-.25v-.56c0-.12,0-.23-.18-.23h-.36Z" style="fill: #fff"/>
      <path d="M51.51,87.8c-.11,0-.17,0-.17-.18a.15.15,0,0,1,.17-.17h2.57v.46L52,88.83H53.9a.16.16,0,0,1,.18.18c0,.12-.07.17-.18.17H51.33v-.46l2.14-.92h-2Z" style="fill: #fff"/>
      <path d="M51.69,86.31v.13c0,.12,0,.22-.18.22s-.18-.1-.18-.21v-.59a.54.54,0,0,1,.36-.53l.62-.31a.81.81,0,0,1,.41-.11.73.73,0,0,1,.38.11l.64.32a.52.52,0,0,1,.34.55v.59a.18.18,0,1,1-.36,0v-.17Zm2-.35v-.07c0-.15,0-.18-.14-.25L53,85.33a.6.6,0,0,0-.23-.06.7.7,0,0,0-.29.08l-.6.3c-.15.07-.14.1-.14.27v0Z" style="fill: #fff"/>
    </g>
    <g>
      <path d="M38.22,91.38h1a.15.15,0,0,1,.17.17c0,.13-.06.18-.17.18H36.85c-.12,0-.18,0-.18-.18s.06-.17.18-.17h1v-1h-1c-.12,0-.18,0-.18-.17s.06-.18.18-.18h2.39c.11,0,.17.05.17.18a.15.15,0,0,1-.17.17h-1Z" style="fill: #fff"/>
      <path d="M37.66,87.54a.89.89,0,0,1,.39-.09.86.86,0,0,1,.42.12l.65.32a.48.48,0,0,1,.29.43.46.46,0,0,1-.29.43l-.65.33a.85.85,0,0,1-.42.11.77.77,0,0,1-.39-.09l-.7-.35a.48.48,0,0,1-.29-.43A.46.46,0,0,1,37,87.9Zm-.53.66c-.06,0-.11,0-.11.12s0,.09.11.12l.64.32a.54.54,0,0,0,.28.08.44.44,0,0,0,.23-.06l.67-.34s.11,0,.11-.12S39,88.23,39,88.2l-.67-.34a.56.56,0,0,0-.23-.06.54.54,0,0,0-.28.08Z" style="fill: #fff"/>
      <path d="M39.24,86.3c.11,0,.17,0,.17.18s-.06.18-.17.18H36.67V85.47a.54.54,0,0,1,.51-.56h.24a.52.52,0,0,1,.5.56v.33l1.14-.8a.34.34,0,0,1,.19-.09.18.18,0,0,1,.16.18.19.19,0,0,1-.1.16l-1.39,1v.08Zm-1.67,0v-.78c0-.1,0-.25-.15-.25h-.24c-.14,0-.16.14-.16.25v.78Z" style="fill: #fff"/>
      <path d="M36.9,82.38l2.16,1.26V82.55a.16.16,0,0,1,.18-.17.16.16,0,0,1,.17.17v1.57h-.22L37,82.86v1.08a.16.16,0,0,1-.17.18.17.17,0,0,1-.18-.18V82.38Z" style="fill: #fff"/>
    </g>
    <g>
      <path d="M4.45,84.22a.63.63,0,0,1-.06.33.49.49,0,0,1-.49.27H3.71a.52.52,0,0,1-.47-.21.56.56,0,0,1-.1-.36v-.51c0-.11,0-.17.16-.17a.15.15,0,0,1,.17.17v.46c0,.21,0,.26.24.26h.18c.14,0,.23,0,.23-.19v-2c0-.11,0-.18.17-.18s.16.07.16.18Z" style="fill: #fff"/>
      <path d="M5.42,83.55a.45.45,0,0,1,.2-.44.56.56,0,0,1,.46-.19h.25a.56.56,0,0,1,.46.19.45.45,0,0,1,.2.44v.63a.5.5,0,0,1-.22.46.52.52,0,0,1-.44.18H6.08a.52.52,0,0,1-.44-.18.5.5,0,0,1-.22-.46Zm.32.63c0,.07,0,.12.12.2a.27.27,0,0,0,.22.1h.25a.27.27,0,0,0,.22-.1c.1-.08.12-.13.12-.2v-.63c0-.07,0-.12-.12-.2a.27.27,0,0,0-.22-.1H6.08a.27.27,0,0,0-.22.1c-.1.08-.12.13-.12.2Z" style="fill: #fff"/>
      <path d="M9.08,83.34v-.19c0-.12,0-.23.16-.23s.16.11.16.23v.14a.49.49,0,0,1,0,.21l-.81,1.86c-.07.16-.11.17-.25.17H8.05c-.09,0-.22,0-.22-.17s.11-.16.22-.16h.22l.24-.52h0c-.13,0-.14-.07-.19-.18l-.39-.92a.6.6,0,0,1-.08-.28v-.15c0-.12,0-.23.16-.23s.16.11.16.23v.19l.43,1h.07Z" style="fill: #fff"/>
      <path d="M10.79,83.25c-.07,0-.18,0-.18.1a.12.12,0,0,0,.08.1l.81.38a.49.49,0,0,1,.31.48.48.48,0,0,1-.53.51h-.49a.54.54,0,0,1-.4-.11c-.06,0-.15-.11-.15-.2a.18.18,0,0,1,.17-.17.16.16,0,0,1,.12.06.33.33,0,0,0,.26.08h.43c.12,0,.27,0,.27-.19s-.09-.13-.17-.17l-.75-.36a.43.43,0,0,1,.16-.84h.55a.47.47,0,0,1,.37.11.25.25,0,0,1,.12.19.16.16,0,0,1-.16.17.16.16,0,0,1-.14-.07.22.22,0,0,0-.19-.07Z" style="fill: #fff"/>
      <path d="M13.29,84.18c0,.19,0,.3.22.3h.16c.13,0,.19,0,.23-.15a.17.17,0,0,1,.16-.14.17.17,0,0,1,.16.17.5.5,0,0,1-.55.46h-.16a.52.52,0,0,1-.42-.17.67.67,0,0,1-.12-.48v-.92h-.1c-.09,0-.22,0-.22-.17s.11-.16.22-.16H13v-.35c0-.12,0-.23.16-.23s.16.11.16.23v.35h.54c.11,0,.22,0,.22.16s-.12.17-.22.17h-.54Z" style="fill: #fff"/>
      <path d="M16,84.48h.24c.11,0,.22,0,.22.17s-.12.17-.22.17h-.81c-.1,0-.22,0-.22-.17s.11-.17.22-.17h.25V83.25h-.25c-.1,0-.22,0-.22-.17s.11-.16.22-.16h.34c.18,0,.23,0,.23.23Zm-.48-2.25c0-.12.06-.16.15-.16h.18c.09,0,.15,0,.15.16v.16c0,.12-.06.16-.15.16h-.18c-.09,0-.15,0-.15-.16Z" style="fill: #fff"/>
      <path d="M17.47,83.7a.48.48,0,0,1,.19-.44l.24-.21a.48.48,0,0,1,.41-.13h.51c.11,0,.22,0,.22.16s-.13.17-.22.17h-.56a.31.31,0,0,0-.19.09l-.19.17a.19.19,0,0,0-.09.15v.41a.19.19,0,0,0,.09.15l.19.17a.31.31,0,0,0,.19.09h.56c.09,0,.22,0,.22.17s-.11.17-.22.17h-.51a.49.49,0,0,1-.41-.14l-.24-.21a.48.48,0,0,1-.19-.44Z" style="fill: #fff"/>
      <path d="M20.94,83.05s.13-.13.21-.13a.16.16,0,0,1,.16.17c0,.08,0,.12-.1.17l-.63.54.76.66c.06.06.11.09.11.18a.17.17,0,0,1-.16.18c-.06,0-.1,0-.15-.09l-.8-.7-.14.12v.43c0,.12,0,.24-.16.24s-.16-.12-.16-.24V82.45c0-.12,0-.23.16-.23s.16.11.16.23V83.7Z" style="fill: #fff"/>
    </g>
    <path d="M70.25,32.15v2.07a.3.3,0,0,1-.34.35c-.25,0-.34-.13-.34-.35V29.36c0-.23.09-.35.34-.35s.34.12.34.35v2.07h2V29.36c0-.23.1-.35.34-.35s.34.12.34.35v4.86a.34.34,0,1,1-.68,0V32.15Z" style="fill: #fff"/>
    <path d="M18.5,20.76V19.61c0-.23.1-.35.34-.35s.34.12.34.35v1.13a.82.82,0,0,1,0,.28l-1.3,3.49c-.07.18-.13.31-.34.31s-.27-.13-.34-.31L15.86,21a.82.82,0,0,1,0-.28V19.61c0-.23.09-.35.34-.35s.34.12.34.35v1.15l1,2.73Z" style="fill: #fff"/>
  </g>
  <g id="Connectors">
    <ellipse cx="52.03" cy="96.38" data-cir-type="male" id="circuitoCon_GND" rx="2.05" ry="1.99" style="fill: none;stroke: #e8e5df;stroke-miterlimit: 10;stroke-width: 1.224px"/>
    <ellipse cx="44.83" cy="96.38" data-cir-type="male" id="circuitoCon_SEL" rx="2.05" ry="1.99" style="fill: none;stroke: #e8e5df;stroke-miterlimit: 10;stroke-width: 1.224px"/>
    <ellipse cx="30.45" cy="96.38" data-cir-type="male" id="circuitoCon_VERT" rx="2.05" ry="1.99" style="fill: none;stroke: #e8e5df;stroke-miterlimit: 10;stroke-width: 1.224px"/>
    <ellipse cx="23.2" cy="96.38" data-cir-type="male" id="circuitoCon_VCC" rx="2.05" ry="1.99" style="fill: none;stroke: #e8e5df;stroke-miterlimit: 10;stroke-width: 1.224px"/>
    <ellipse cx="37.64" cy="96.38" data-cir-type="male" id="circuitoCon_HORZ" rx="2.05" ry="1.99" style="fill: none;stroke: #e8e5df;stroke-miterlimit: 10;stroke-width: 1.224px"/>
    <ellipse cx="37.64" cy="47.47" rx="37.64" ry="33.68" style="fill: url(#linear-gradient)"/>
    <ellipse cx="37.58" cy="29.56" rx="31.82" ry="29.56" style="fill: url(#radial-gradient)"/>
    <ellipse cx="37.41" cy="27.41" rx="29.16" ry="26.45" style="fill: url(#linear-gradient-2)"/>
  </g>
</svg>