<?xml version="1.0" ?><svg height="35.42mm" viewBox="0 0 98.88 100.41" width="34.88mm" xmlns="http://www.w3.org/2000/svg">
  <title>Monochrome 1.3 128x64 OLED graphic display</title>
  <g data-name="Layer 11" id="Layer_11">
    <path d="M97.32,9.29c-.43-.22-.34,1.1-2.22,3.64s-6.15,2.21-8.25.42S84,9.92,84.48,6.7,89,2.23,89,2.23A.67.67,0,1,0,89,.92H49.35s-37.21,0-39,0-1,.65-1,.65c1.75.28,2.47,1.28,3.94,2.36s1.6,4.3,1.6,4.5c0,1.92.18,1.52.18,1.52l2.85-3,3.56-.25c.12-1.22,2.09-1.82,2.09-1.82A3.39,3.39,0,0,1,27.44,7.1a3,3,0,0,1-.62,3c-.36.35.21.89.21.89l1.61-1.61-.29-.78c-.09-2.6,1.16-3.38,3-3.69a3.17,3.17,0,0,1,3.23,2,3.11,3.11,0,0,1-.87,3.75,2.87,2.87,0,0,1-3.44.61l-2.6,2.61H56.88l2-2v-.71A3.57,3.57,0,0,1,57,8.43c.21-2.62,1.77-3.24,3.34-3.35s2.52.48,3.25,2.52-1.84,3.65-1.84,3.65v1.48a34.87,34.87,0,0,1-3.08,3.08c-1.17.94.17,1.09.17,1.09h2.93l.43.2v2.07H37.79V16.6H23l-.69.69V19H21.23V17l1.37-1.31L57.73,16,61.1,12.6V10.42h-.39a2.31,2.31,0,0,1-.46.05h-.17V12.2l-2.19,2.2H22.06l-1.79,1.83v4.06h-2V17.21l3.57-4H20.42l-4,4v2.62h-.85v-2.7l4.68-4.68h7.32l2.24-2.24-.43-.43-2,2H20L14.73,17v2.06H14V16.7L19.71,11s1.87,0,2.35,0,.27-.39,0-.6A4.35,4.35,0,0,1,21.4,9.3H18.84L12,16.19v2.75H11.4v-3l7.29-7.29H21.9V7.5H18.31l-8,8v4.27H9.54V15.47a11.88,11.88,0,0,1,1-1c.69-.64-.69-.21-.69-.21A6.1,6.1,0,0,1,2.42,9.6c-.19-2.25-1.07-.81-1.07-.81v9.13l1.4,1.62s41.6,5.94,42.35,5.94,52.57-6.56,52.57-6.56V11.64C97.67,9.39,97.76,9.51,97.32,9.29ZM38.57,10.47a2,2,0,1,1,2-2A2,2,0,0,1,38.57,10.47Zm7.22,0a2,2,0,1,1,2.05-2A2,2,0,0,1,45.79,10.47Zm7.23,0a2,2,0,1,1,2-2A2,2,0,0,1,53,10.47Zm14.45,0a2,2,0,1,1,2-2A2,2,0,0,1,67.47,10.47Zm7.36,0A2,2,0,1,1,76.74,8.3,2.06,2.06,0,0,1,74.83,10.47Z" style="fill: none"/>
    <path d="M98.87,81.67V12.94A12.93,12.93,0,0,0,85.94,0H12.25A12.24,12.24,0,0,0,0,12.25V91.87a8.54,8.54,0,0,0,8.54,8.54h3.88a4,4,0,0,0,4-4V84.66h66V96.41a4,4,0,0,0,4,4h3.88a8.54,8.54,0,0,0,8.54-8.54V81.67ZM94.81,8.18a4,4,0,1,1-4.22-3.73A4,4,0,0,1,94.81,8.18ZM8.34,4.45A4,4,0,1,1,4.61,8.67,4,4,0,0,1,8.34,4.45Zm.49,91.69a4,4,0,1,1,3.73-4.22A4,4,0,0,1,8.83,96.14Zm82.25,0a4,4,0,1,1,3.73-4.22A4,4,0,0,1,91.08,96.14Zm6.59-84.5v7.28S45.85,25.48,45.1,25.48,2.75,19.54,2.75,19.54l-1.4-1.62V8.79s.88-1.44,1.07.81a6.1,6.1,0,0,0,7.43,4.66s1.38-.43.69.21a11.88,11.88,0,0,0-1,1v4.32h.75V15.52l8-8H21.9V8.63H18.69L11.4,15.92v3H12V16.19L18.84,9.3H21.4a4.35,4.35,0,0,0,.66,1.12c.27.21.48.62,0,.6s-2.35,0-2.35,0L14,16.7v2.36h.7V17L20,11.72h7.43l2-2,.43.43-2.24,2.24H20.29l-4.68,4.68v2.7h.85V17.17l4-4h1.46l-3.57,4v3.08h2V16.23l1.79-1.83H57.89l2.19-2.2V10.46h0a2,2,0,1,1,.62,0h.39V12.6L57.73,16,22.6,15.67,21.23,17v2h1.06V17.29L23,16.6H37.79v2.57H62.24V17.1l-.43-.2H58.88s-1.34-.15-.17-1.09a34.87,34.87,0,0,0,3.08-3.08V11.25s2.56-1.6,1.84-3.65S61.94,5,60.38,5.08,57.25,5.81,57,8.43a3.57,3.57,0,0,0,1.81,2.8v.71l-2,2H27.63l2.6-2.61a2.87,2.87,0,0,0,3.44-.61A3.11,3.11,0,0,0,34.54,7a3.17,3.17,0,0,0-3.23-2c-1.8.31-3,1.09-3,3.69l.29.78L27,11s-.57-.54-.21-.89a3,3,0,0,0,.62-3,3.39,3.39,0,0,0-3.87-2.19s-2,.6-2.09,1.82L17.92,7l-2.85,3s-.18.4-.18-1.52c0-.2-.13-3.43-1.6-4.5S11.1,1.85,9.35,1.57c0,0-.71-.68,1-.65s39,0,39,0H89a.67.67,0,1,1,0,1.31s-4,1.25-4.5,4.47.28,4.87,2.37,6.65,6.38,2.12,8.25-.42,1.79-3.86,2.22-3.64S97.67,9.39,97.67,11.64ZM22.06,8.43a2.05,2.05,0,1,1,2.05,2A2.05,2.05,0,0,1,22.06,8.43Zm7.23,0a2.05,2.05,0,1,1,2.05,2A2.05,2.05,0,0,1,29.29,8.43Z" style="fill: #1a2c80"/>
    <path d="M60.71,10.42h-.3l-.32,0h.16A2.31,2.31,0,0,0,60.71,10.42Z"/>
  </g>
  <g data-name="Layer 5" id="Layer_5">
    <path d="M60.08,10.42v0l.33,0Z"/>
    <path d="M97.67,11.64c0-2.25.09-2.13-.35-2.35s-.34,1.1-2.22,3.64-6.15,2.21-8.25.42S84,9.92,84.48,6.7,89,2.23,89,2.23A.67.67,0,1,0,89,.92H49.35s-37.21,0-39,0-1,.65-1,.65c1.75.28,2.47,1.28,3.94,2.36s1.6,4.3,1.6,4.5c0,1.92.18,1.52.18,1.52l2.85-3,3.56-.25c.12-1.22,2.09-1.82,2.09-1.82A3.39,3.39,0,0,1,27.44,7.1a3,3,0,0,1-.62,3c-.36.35.21.89.21.89l1.61-1.61-.29-.78c-.09-2.6,1.16-3.38,3-3.69a3.17,3.17,0,0,1,3.23,2,3.11,3.11,0,0,1-.87,3.75,2.87,2.87,0,0,1-3.44.61l-2.6,2.61H56.88l2-2v-.71A3.57,3.57,0,0,1,57,8.43c.21-2.62,1.77-3.24,3.34-3.35s2.52.48,3.25,2.52-1.84,3.65-1.84,3.65v1.48a34.87,34.87,0,0,1-3.08,3.08c-1.17.94.17,1.09.17,1.09h2.93l.43.2v2.07H37.79V16.6H23l-.69.69V19H21.23V17l1.37-1.31L57.73,16,61.1,12.6V10.42h-.69l-.33,0V12.2l-2.19,2.2H22.06l-1.79,1.83v4.06h-2V17.21l3.57-4H20.42l-4,4v2.62h-.85v-2.7l4.68-4.68h7.32l2.24-2.24-.43-.43-2,2H20L14.73,17v2.06H14V16.7L19.71,11s1.87,0,2.35,0,.27-.39,0-.6A4.35,4.35,0,0,1,21.4,9.3H18.84L12,16.19v2.75H11.4v-3l7.29-7.29H21.9V7.5H18.31l-8,8v4.27H9.54V15.47a11.88,11.88,0,0,1,1-1c.69-.64-.69-.21-.69-.21A6.1,6.1,0,0,1,2.42,9.6c-.19-2.25-1.07-.81-1.07-.81v9.13l1.4,1.62s41.6,5.94,42.35,5.94,52.57-6.56,52.57-6.56Zm-59.1-1.17a2,2,0,1,1,2-2A2,2,0,0,1,38.57,10.47Zm7.21,0a2,2,0,1,1,2-2A2,2,0,0,1,45.78,10.47Zm7.22,0a2,2,0,1,1,2-2A2,2,0,0,1,53,10.47Zm14.39,0a2,2,0,1,1,2-2A2,2,0,0,1,67.39,10.47Zm7.19,0a2,2,0,1,1,2-2A2,2,0,0,1,74.58,10.47Z" style="fill: #0b5597"/>
  </g>
  <g data-name="lighted lines" id="lighted_lines">
    <path d="M15.23,80.92V91.48S13.85,86.6,10,85.54s-5.75.69-6.69,1.63a14.27,14.27,0,0,0-2,3.81V74h11V70.73H.85V18.35S16.79,64.42,16.42,65.17,15.23,80.92,15.23,80.92Z" style="fill: #0b5597"/>
    <path d="M83.58,79.42s-.33,12.06,0,12.06.75-6.17,6.09-6a7.39,7.39,0,0,1,7,4.88c1.83,5.09,1-5.5,1-5.5V61.58l-7.92-7.41-4.33,8.25Z" style="fill: #0b5597"/>
  </g>
  <g data-name="Layer 2" id="Layer_2">
    <path d="M95.06,71.61c-1.21-2.91-.64-4.76-3-4.92-1.45-.1-24.28.23-42.53.59C31.29,66.92,8.46,66.59,7,66.69c-2.34.16-1.78,2-3,4.92S2.5,74.35,2.42,76.77s7.58.72,7.58.72v4.44l15.56.64s10.56.16,18.46-.24c1.74-.09,3.63-.13,5.53-.13s3.78,0,5.52.13c7.9.4,18.46.24,18.46.24l15.56-.64V77.49s7.66,1.7,7.58-.72S96.27,74.51,95.06,71.61Z" style="fill: #080808"/>
    <path d="M66.69,81.15v2.2a2.21,2.21,0,0,1-.5.84c-.38.37-1.46,1.25,0,2,0,0,.83.62.21.67s-34,0-34,0-.08-.59.79-.63,1.17-1.33.5-1.67-1.5-.54-1.29-2.83S66.69,81.15,66.69,81.15Z" style="fill: #54442d"/>
    <rect height="50.63" style="fill: #1c1a27" width="95.25" x="1.92" y="19.27"/>
    <rect height="3.75" width="97" x="0.67" y="17.54"/>
    <rect height="11.5" rx="2.67" ry="2.67" style="fill: #1b1c1c" width="43.58" x="27.76" y="71.27"/>
  </g>
  <g id="text">
    <g>
      <path d="M20.58,1.54h.65a.38.38,0,0,1,.24.08.54.54,0,0,1,.18.19l.32.66a.78.78,0,0,1,.09.37A.8.8,0,0,1,22,3.2l-.33.65a.44.44,0,0,1-.18.2.47.47,0,0,1-.26.08h-.63a.16.16,0,0,1-.11,0A.17.17,0,0,1,20.41,4a.16.16,0,0,1,.05-.11.13.13,0,0,1,.11-.05h.18V1.87h-.17a.17.17,0,0,1-.12-.05.21.21,0,0,1-.05-.12.18.18,0,0,1,.05-.12A.16.16,0,0,1,20.58,1.54Zm.49.33V3.8h.12a.18.18,0,0,0,.16-.11l.32-.64a.46.46,0,0,0,.07-.21.5.5,0,0,0,0-.21L21.35,2a.17.17,0,0,0-.17-.1Z" style="fill: #fff"/>
      <path d="M23.32,3H24a.44.44,0,0,1,.15,0V2.74a.17.17,0,0,0-.05-.12A.16.16,0,0,0,24,2.57h-.63a.13.13,0,0,1-.11,0,.13.13,0,0,1-.05-.11.13.13,0,0,1,.05-.12.15.15,0,0,1,.11,0H24a.44.44,0,0,1,.34.14.45.45,0,0,1,.15.35l0,1.22a.13.13,0,0,1-.05.12.16.16,0,0,1-.11,0A.17.17,0,0,1,24.15,4l-.28.17h-.55a.51.51,0,0,1-.5-.5V3.44A.47.47,0,0,1,23,3.09.46.46,0,0,1,23.32,3Zm.82.63V3.45a.17.17,0,0,0-.05-.12A.16.16,0,0,0,24,3.28h-.65a.17.17,0,0,0-.17.17v.18a.16.16,0,0,0,.05.11.15.15,0,0,0,.12,0h.46Z" style="fill: #fff"/>
      <path d="M26.39,4.13h-.32A.45.45,0,0,1,25.72,4a.45.45,0,0,1-.15-.34V2.57H25.4a.15.15,0,0,1-.11,0,.18.18,0,0,1-.05-.12.17.17,0,0,1,.05-.12.15.15,0,0,1,.11,0h.17V1.84a.16.16,0,0,1,.05-.11.17.17,0,0,1,.12-.05.16.16,0,0,1,.11.05.13.13,0,0,1,0,.11v.41h.66a.17.17,0,0,1,.12,0,.18.18,0,0,1,.05.12.21.21,0,0,1-.05.12.17.17,0,0,1-.12,0H25.9V3.64a.16.16,0,0,0,.05.11.17.17,0,0,0,.12,0h.32a.18.18,0,0,0,.17-.14c0-.1.08-.14.17-.14a.13.13,0,0,1,.11,0,.16.16,0,0,1,.05.11.5.5,0,0,1-.5.45Z" style="fill: #fff"/>
      <path d="M28.14,3h.65a.5.5,0,0,1,.15,0V2.74a.17.17,0,0,0-.17-.17h-.62a.15.15,0,0,1-.12,0A.16.16,0,0,1,28,2.41.17.17,0,0,1,28,2.29a.16.16,0,0,1,.12,0h.62a.46.46,0,0,1,.35.14.54.54,0,0,1,.15.35l0,1.22a.17.17,0,0,1-.17.17.16.16,0,0,1-.11,0A.13.13,0,0,1,29,4l-.28.17h-.56a.5.5,0,0,1-.49-.5V3.44a.5.5,0,0,1,.14-.35A.47.47,0,0,1,28.14,3Zm.82.63V3.45a.16.16,0,0,0,0-.12.18.18,0,0,0-.12-.05h-.65a.16.16,0,0,0-.11.05.17.17,0,0,0-.05.12v.18a.16.16,0,0,0,.05.11.13.13,0,0,0,.11,0h.47Z" style="fill: #fff"/>
    </g>
    <g>
      <path d="M35.79,1.54h.85a.44.44,0,0,1,.3.13.42.42,0,0,1,.14.32.16.16,0,0,1,0,.11.14.14,0,0,1-.11,0,.17.17,0,0,1-.12,0A.57.57,0,0,1,36.74,2a.13.13,0,0,0-.13-.1H35.8s0,0,0,0,0,0,0,.05L37,3.52a.36.36,0,0,1,.09.24A.38.38,0,0,1,37,4a.34.34,0,0,1-.24.11h-.88a.46.46,0,0,1-.44-.43.16.16,0,0,1,.18-.18.13.13,0,0,1,.11,0,.14.14,0,0,1,0,.11.11.11,0,0,0,0,.08.12.12,0,0,0,.09,0h.82s.05,0,.05,0,0,0,0,0L35.5,2.15a.36.36,0,0,1-.09-.24.36.36,0,0,1,.11-.26A.35.35,0,0,1,35.79,1.54Z" style="fill: #fff"/>
      <path d="M37.84,3.9l.66-2.24a.16.16,0,0,1,.17-.12.14.14,0,0,1,.15.1l.65,2.28a.06.06,0,0,1,0,0,.13.13,0,0,1,0,.12.14.14,0,0,1-.1,0A.16.16,0,0,1,39.16,4L39,3.56h-.75L38.14,4s0,0,0,.06a.16.16,0,0,1-.09,0A.17.17,0,0,1,37.83,4,.13.13,0,0,1,37.84,3.9Zm.82-1.61-.28.94h.56Z" style="fill: #fff"/>
      <path d="M40.24,3.81v-2a.29.29,0,0,1,.09-.22.28.28,0,0,1,.22-.1h1a.27.27,0,0,1,.22.1.3.3,0,0,1,.1.22v2a.32.32,0,0,1-.1.22.29.29,0,0,1-.22.09h-1A.29.29,0,0,1,40.33,4,.31.31,0,0,1,40.24,3.81Zm1.32,0V1.86h-1V3.8Z" style="fill: #fff"/>
    </g>
    <g>
      <path d="M28.74,14.55h.59a.17.17,0,0,1,.12,0,.16.16,0,0,1,.05.11.17.17,0,0,1-.17.17h-.61a.46.46,0,0,1-.24-.08.48.48,0,0,1-.18-.16l-.38-.73a.78.78,0,0,1-.07-.33.66.66,0,0,1,.07-.32l.38-.72a.58.58,0,0,1,.17-.18.41.41,0,0,1,.23-.07h.64a.16.16,0,0,1,.12,0,.18.18,0,0,1,.05.12.21.21,0,0,1-.05.12.17.17,0,0,1-.12,0h-.62a.15.15,0,0,0-.13.09l-.36.68a.36.36,0,0,0,0,.19.45.45,0,0,0,0,.2l.35.67A.16.16,0,0,0,28.74,14.55Z" style="fill: #fff"/>
      <path d="M31.58,14.88h-1a.17.17,0,0,1-.12-.05.18.18,0,0,1,0-.12.21.21,0,0,1,0-.12.16.16,0,0,1,.12,0h.32V12.61h-.33a.15.15,0,0,1-.11,0,.16.16,0,0,1,0-.12.13.13,0,0,1,0-.12.15.15,0,0,1,.11,0h.5a.19.19,0,0,1,.12,0,.17.17,0,0,1,0,.12v2.1h.34a.15.15,0,0,1,.11,0,.21.21,0,0,1,0,.12.18.18,0,0,1,0,.12A.16.16,0,0,1,31.58,14.88Z" style="fill: #fff"/>
      <path d="M32.67,14.71V12.45a.19.19,0,0,1,0-.12.2.2,0,0,1,.24,0,.19.19,0,0,1,0,.12v1.34l.89-.75A.16.16,0,0,1,34,13a.15.15,0,0,1,.12.05.15.15,0,0,1,0,.11.13.13,0,0,1,0,.12l-.69.58.85.74a.13.13,0,0,1,0,.11.19.19,0,0,1,0,.12.18.18,0,0,1-.12.05.17.17,0,0,1-.12-.05l-.87-.76-.18.15v.49a.16.16,0,0,1,0,.12.17.17,0,0,1-.24,0A.16.16,0,0,1,32.67,14.71Z" style="fill: #fff"/>
      <path d="M37.65,12.29h.65a.41.41,0,0,1,.25.08.51.51,0,0,1,.17.19l.33.66a.78.78,0,0,1,.09.37A.7.7,0,0,1,39,14l-.32.65a.59.59,0,0,1-.18.2.5.5,0,0,1-.27.08h-.62a.17.17,0,0,1-.17-.17.16.16,0,0,1,.05-.11.13.13,0,0,1,.12,0h.17V12.62h-.17a.16.16,0,0,1-.11,0,.16.16,0,0,1,0-.12.15.15,0,0,1,0-.12A.15.15,0,0,1,37.65,12.29Zm.5.33v1.93h.11a.2.2,0,0,0,.17-.11l.32-.64a.57.57,0,0,0,.06-.21.5.5,0,0,0-.05-.21l-.33-.66a.19.19,0,0,0-.18-.1Z" style="fill: #fff"/>
      <path d="M40.8,14.55h.6a.16.16,0,0,1,.11,0,.13.13,0,0,1,.05.11.13.13,0,0,1-.05.12.16.16,0,0,1-.11.05h-.62a.46.46,0,0,1-.24-.08.44.44,0,0,1-.17-.16L40,13.91a.8.8,0,0,1-.08-.33.66.66,0,0,1,.08-.32l.38-.72a.42.42,0,0,1,.17-.18.38.38,0,0,1,.22-.07h.65a.15.15,0,0,1,.11,0,.18.18,0,0,1,0,.12.21.21,0,0,1,0,.12.16.16,0,0,1-.11,0h-.63a.14.14,0,0,0-.12.09l-.37.68a.36.36,0,0,0,0,.19.46.46,0,0,0,0,.2l.34.67A.17.17,0,0,0,40.8,14.55Z" style="fill: #fff"/>
      <path d="M44.73,14.71V12.29h1.16a.46.46,0,0,1,.35.14.47.47,0,0,1,.14.35V13a.47.47,0,0,1-.14.35.46.46,0,0,1-.35.14h-.21l.67,1.15a.23.23,0,0,1,0,.11.13.13,0,0,1-.05.11.16.16,0,0,1-.11.05.16.16,0,0,1-.15-.09l-.77-1.33h-.23v1.25a.17.17,0,0,1,0,.12.21.21,0,0,1-.12.05.17.17,0,0,1-.17-.17Zm.33-1.57h.83a.17.17,0,0,0,.17-.17v-.19a.21.21,0,0,0-.05-.12.16.16,0,0,0-.12,0h-.83Z" style="fill: #fff"/>
      <path d="M47.6,13h.75a.48.48,0,0,1,.31.1c.09.07.14.14.14.2a.17.17,0,0,1,0,.12.15.15,0,0,1-.11,0,.17.17,0,0,1-.14-.07.23.23,0,0,0-.14-.07h-.74c-.07,0-.11,0-.11.09a.1.1,0,0,0,.07.1l.87.39a.45.45,0,0,1,.22.19.47.47,0,0,1,.09.28.49.49,0,0,1-.15.36.46.46,0,0,1-.34.15h-.66a.54.54,0,0,1-.32-.11c-.1-.06-.15-.13-.15-.2a.16.16,0,0,1,0-.11.17.17,0,0,1,.12-.05.21.21,0,0,1,.14.07.24.24,0,0,0,.2.07h.61a.14.14,0,0,0,.12-.06.18.18,0,0,0,0-.12.15.15,0,0,0-.11-.16l-.88-.4a.43.43,0,0,1-.19-.16.38.38,0,0,1-.07-.22.45.45,0,0,1,.12-.31A.41.41,0,0,1,47.6,13Z" style="fill: #fff"/>
      <path d="M50.71,14.88h-.33a.47.47,0,0,1-.35-.15.45.45,0,0,1-.15-.34V13.32h-.16a.16.16,0,0,1-.12,0,.18.18,0,0,1-.05-.12A.17.17,0,0,1,49.6,13a.16.16,0,0,1,.12,0h.17v-.41a.13.13,0,0,1,0-.11.16.16,0,0,1,.11-.05.21.21,0,0,1,.12.05.16.16,0,0,1,0,.11V13h.65A.16.16,0,0,1,51,13a.18.18,0,0,1,0,.12.21.21,0,0,1,0,.12.16.16,0,0,1-.12,0h-.66v1.07a.16.16,0,0,0,0,.11.17.17,0,0,0,.12.05h.32a.17.17,0,0,0,.17-.14.17.17,0,0,1,.17-.14.13.13,0,0,1,.12.05.15.15,0,0,1,0,.11.42.42,0,0,1-.14.3A.45.45,0,0,1,50.71,14.88Z" style="fill: #fff"/>
      <path d="M58.45,12.61v.62a.44.44,0,0,1-.14.34.53.53,0,0,1,.14.34v.64a.3.3,0,0,1-.1.23.32.32,0,0,1-.23.09H57a.16.16,0,0,1-.12,0,.17.17,0,0,1,0-.24.16.16,0,0,1,.12,0h1.15v-.64a.16.16,0,0,0,0-.12.18.18,0,0,0-.12,0h-.66a.18.18,0,0,1-.12-.05.16.16,0,0,1,0-.12.15.15,0,0,1,0-.11.18.18,0,0,1,.12-.05H58a.17.17,0,0,0,.12-.05.16.16,0,0,0,0-.11v-.64H57a.16.16,0,0,1-.12,0,.21.21,0,0,1,0-.12.17.17,0,0,1,0-.12.16.16,0,0,1,.12,0h1.17a.32.32,0,0,1,.23.09A.34.34,0,0,1,58.45,12.61Z" style="fill: #fff"/>
      <path d="M60.86,13.16v.31l-.57,1.29c0,.08-.08.12-.14.12h-.21a.17.17,0,0,1-.17-.12l-.57-1.28v-.32a.17.17,0,0,1,0-.12.16.16,0,0,1,.12,0,.15.15,0,0,1,.11,0,.13.13,0,0,1,.05.12v.25l.5,1.12.5-1.12v-.25a.13.13,0,0,1,0-.12.16.16,0,0,1,.12,0,.15.15,0,0,1,.11,0A.17.17,0,0,1,60.86,13.16Z" style="fill: #fff"/>
      <path d="M63.27,12.61v.62a.44.44,0,0,1-.13.34.52.52,0,0,1,.13.34v.64a.33.33,0,0,1-.09.23.36.36,0,0,1-.24.09H61.78a.15.15,0,0,1-.11,0,.17.17,0,0,1,0-.24.15.15,0,0,1,.11,0h1.16v-.64a.17.17,0,0,0,0-.12.16.16,0,0,0-.11,0h-.66a.17.17,0,0,1-.17-.17.16.16,0,0,1,0-.11.17.17,0,0,1,.12-.05h.66a.16.16,0,0,0,.11-.05.13.13,0,0,0,0-.11v-.64H61.77a.15.15,0,0,1-.11,0,.16.16,0,0,1,0-.12.13.13,0,0,1,0-.12.15.15,0,0,1,.11,0h1.17a.32.32,0,0,1,.23.09A.3.3,0,0,1,63.27,12.61Z" style="fill: #fff"/>
    </g>
    <g>
      <path d="M51.94,3.8h.59a.17.17,0,0,1,.12.05A.16.16,0,0,1,52.7,4a.17.17,0,0,1-.17.17h-.61a.46.46,0,0,1-.24-.08.57.57,0,0,1-.18-.16l-.37-.73a.8.8,0,0,1-.08-.33.66.66,0,0,1,.07-.32l.38-.72a.58.58,0,0,1,.17-.18.41.41,0,0,1,.23-.07h.64a.16.16,0,0,1,.12,0,.18.18,0,0,1,.05.12.21.21,0,0,1-.05.12.17.17,0,0,1-.12.05h-.62c-.05,0-.09,0-.13.09l-.36.68a.36.36,0,0,0,0,.19.45.45,0,0,0,0,.2l.35.67A.16.16,0,0,0,51.94,3.8Z" style="fill: #fff"/>
      <path d="M53.82,1.54h.86a.41.41,0,0,1,.29.13.39.39,0,0,1,.14.32.13.13,0,0,1,0,.11.13.13,0,0,1-.11,0,.16.16,0,0,1-.11,0A.57.57,0,0,1,54.78,2a.13.13,0,0,0-.13-.1h-.81s-.06,0-.06,0a.09.09,0,0,0,0,.05L55,3.52a.41.41,0,0,1,.08.24A.37.37,0,0,1,55,4a.34.34,0,0,1-.24.11h-.88A.43.43,0,0,1,53.58,4a.39.39,0,0,1-.13-.29c0-.12.06-.18.17-.18a.13.13,0,0,1,.12,0,.14.14,0,0,1,0,.11.12.12,0,0,0,0,.08.1.1,0,0,0,.09,0h.82s.05,0,.05,0,0,0,0,0L53.54,2.15a.36.36,0,0,1-.09-.24.36.36,0,0,1,.11-.26A.33.33,0,0,1,53.82,1.54Z" style="fill: #fff"/>
    </g>
    <g>
      <path d="M66.24,1.7v.61L65.57,4c0,.09-.09.13-.16.13s-.13,0-.17-.13l-.66-1.69V1.7a.21.21,0,0,1,0-.12.16.16,0,0,1,.12,0,.15.15,0,0,1,.11,0,.21.21,0,0,1,0,.12v.54l.5,1.27.5-1.27V1.7a.16.16,0,0,1,0-.12.15.15,0,0,1,.11,0,.16.16,0,0,1,.12,0A.21.21,0,0,1,66.24,1.7Z" style="fill: #fff"/>
      <path d="M68.31,4.12h-1a.16.16,0,0,1-.12,0,.18.18,0,0,1,0-.12.21.21,0,0,1,0-.12.16.16,0,0,1,.12,0h.33V2.57h-.33a.15.15,0,0,1-.12,0,.16.16,0,0,1,0-.11.17.17,0,0,1,0-.12.18.18,0,0,1,.12,0h.5a.16.16,0,0,1,.11,0,.13.13,0,0,1,0,.12V3.8h.33a.17.17,0,0,1,.12,0,.17.17,0,0,1,0,.24A.16.16,0,0,1,68.31,4.12Zm-.66-2.73h.17a.16.16,0,0,1,.11.05.13.13,0,0,1,0,.11V1.7a.13.13,0,0,1,0,.11.13.13,0,0,1-.11.05h-.18a.13.13,0,0,1-.11-.05.13.13,0,0,1,0-.11V1.55a.16.16,0,0,1,0-.11A.17.17,0,0,1,67.65,1.39Z" style="fill: #fff"/>
      <path d="M70.18,2.63l-.45.29V4a.13.13,0,0,1,0,.12.16.16,0,0,1-.11,0,.18.18,0,0,1-.12,0,.17.17,0,0,1,0-.12V2.41a.17.17,0,0,1,.17-.17.16.16,0,0,1,.11,0,.13.13,0,0,1,0,.12v.11l.3-.18a.57.57,0,0,1,.34-.1h.15a.48.48,0,0,1,.34.14.45.45,0,0,1,.15.34l0,1.24a.17.17,0,0,1-.17.17.16.16,0,0,1-.11,0,.17.17,0,0,1,0-.12l0-1.22c0-.11-.06-.17-.18-.17h-.16A.29.29,0,0,0,70.18,2.63Z" style="fill: #fff"/>
    </g>
    <g>
      <path d="M72.74,12.54h.54a.17.17,0,0,1,.12,0,.17.17,0,0,1,0,.12.14.14,0,0,1-.06.12.16.16,0,0,1-.11,0h-.52a.16.16,0,0,0-.13.07l-.46.59a.29.29,0,0,0-.06.19v.91a.17.17,0,0,0,0,.12.16.16,0,0,0,.11.05h.67a.18.18,0,0,0,.12-.05.16.16,0,0,0,0-.11v-.36h-.34a.13.13,0,0,1-.12,0,.16.16,0,0,1-.05-.11.17.17,0,0,1,.17-.17h.66v.69a.48.48,0,0,1-.14.34.47.47,0,0,1-.35.15h-.67a.49.49,0,0,1-.35-.15.48.48,0,0,1-.14-.34v-.91a.63.63,0,0,1,.13-.41l.48-.62.15-.12A.45.45,0,0,1,72.74,12.54Z" style="fill: #fff"/>
      <path d="M75,13.63l-.45.29v1a.17.17,0,0,1-.17.17.16.16,0,0,1-.11-.05.17.17,0,0,1,0-.12V13.41a.17.17,0,0,1,0-.12.16.16,0,0,1,.11,0,.17.17,0,0,1,.17.17v.11l.3-.18a.57.57,0,0,1,.34-.1h.15a.49.49,0,0,1,.34.14.53.53,0,0,1,.15.34l0,1.24a.16.16,0,0,1,0,.12.17.17,0,0,1-.24,0,.22.22,0,0,1,0-.12l0-1.22a.17.17,0,0,0-.18-.17h-.16A.27.27,0,0,0,75,13.63Z" style="fill: #fff"/>
      <path d="M77.93,13.47V12.7a.17.17,0,0,1,0-.12.15.15,0,0,1,.11,0,.16.16,0,0,1,.12,0,.17.17,0,0,1,.05.12V15a.17.17,0,0,1-.17.17.16.16,0,0,1-.11-.05.17.17,0,0,1,0-.12v-.07a.67.67,0,0,1-.45.24H77.2a.49.49,0,0,1-.33-.15l-.14-.11a.49.49,0,0,1-.09-.15.51.51,0,0,1,0-.2v-.67a.54.54,0,0,1,.05-.21.38.38,0,0,1,.11-.16l.13-.11a.48.48,0,0,1,.34-.13h.24a.54.54,0,0,1,.35.14Zm-.48.1h-.22a.18.18,0,0,0-.13.06l-.11.09a.13.13,0,0,0,0,.12v.7a.17.17,0,0,0,.06.12l.11.09a.16.16,0,0,0,.1.05h.27a.22.22,0,0,0,.13-.06l.26-.22a.18.18,0,0,0,.06-.14V14a.21.21,0,0,0-.07-.18l-.26-.23A.25.25,0,0,0,77.45,13.57Z" style="fill: #fff"/>
    </g>
  </g>
  <g id="elipse">
    <path d="M90.83,3.93a4.5,4.5,0,1,0,4.5,4.5A4.5,4.5,0,0,0,90.83,3.93Zm0,8a3.46,3.46,0,1,1,3.46-3.45A3.44,3.44,0,0,1,90.83,11.88Z" style="fill: #e4cdab"/>
    <path d="M8.58,3.93a4.5,4.5,0,1,0,4.5,4.5A4.5,4.5,0,0,0,8.58,3.93Zm0,8A3.46,3.46,0,1,1,12,8.43,3.44,3.44,0,0,1,8.58,11.88Z" style="fill: #e4cdab"/>
    <path d="M90.83,87.67a4.5,4.5,0,1,0,4.5,4.5A4.5,4.5,0,0,0,90.83,87.67Zm0,8a3.46,3.46,0,1,1,3.46-3.46A3.45,3.45,0,0,1,90.83,95.63Z" style="fill: #e4cdab"/>
    <path d="M8.58,87.67a4.5,4.5,0,1,0,4.5,4.5A4.5,4.5,0,0,0,8.58,87.67Zm0,8A3.46,3.46,0,1,1,12,92.17,3.45,3.45,0,0,1,8.58,95.63Z" style="fill: #e4cdab"/>
    <circle cx="8.58" cy="92.17" r="5.83" style="fill: none;stroke: #fff;stroke-miterlimit: 10;stroke-width: 0.5px"/>
    <circle cx="90.83" cy="92.17" r="5.83" style="fill: none;stroke: #fff;stroke-miterlimit: 10;stroke-width: 0.5px"/>
    <circle cx="8.58" cy="8.43" r="5.83" style="fill: none;stroke: #fff;stroke-miterlimit: 10;stroke-width: 0.5px"/>
    <circle cx="90.83" cy="8.43" r="5.83" style="fill: none;stroke: #fff;stroke-miterlimit: 10;stroke-width: 0.5px"/>
  </g>
  <g data-name="Layer 24" id="Layer_24">
    <path d="M84.82,10.24a2.52,2.52,0,0,0-2-1,3.78,3.78,0,0,0,.36-2c0-.51-.16-.73-.71-.28A2.22,2.22,0,0,0,81,8.45c-.21-.64-.92-.91-1.81-1.06-.59-.15-.72.09-.57.58a2.61,2.61,0,0,0,.74,1.61c.28.14.4.24.14.27a2.8,2.8,0,0,0-1.45,1.52c-.31.53,0,.62.43.53a2.44,2.44,0,0,0,1.77-.24c.22-.12.37-.18.31,0a.56.56,0,0,0,0,.5,5.38,5.38,0,0,0,1,1.41c.24.32.42.26.54-.12s.29-.58.38-.8a1.92,1.92,0,0,0,.18-.8c0-.08,0-.14,0-.19l-.15-.22c-.14-.26-.06-.33.23-.2a2.12,2.12,0,0,0,1.83-.31C85,10.77,85.08,10.53,84.82,10.24Z" style="fill: #fff"/>
    <path d="M81.64,9.23a1.71,1.71,0,0,1,.2-.64,1.69,1.69,0,0,1,.42-.52,1.66,1.66,0,0,1-.2.64A1.75,1.75,0,0,1,81.64,9.23Z" style="fill: #1a2c80"/>
    <path d="M80.52,9.12A1.8,1.8,0,0,1,80,8.74a1.82,1.82,0,0,1-.37-.56,1.85,1.85,0,0,1,.55.38A1.82,1.82,0,0,1,80.52,9.12Z" style="fill: #1a2c80"/>
    <path d="M81.76,12.53a1.93,1.93,0,0,1-.25-.62,1.68,1.68,0,0,1,0-.67,1.84,1.84,0,0,1,.25.62A1.68,1.68,0,0,1,81.76,12.53Z" style="fill: #1a2c80"/>
    <path d="M83.57,10.42a1.89,1.89,0,0,1-.66.1,1.71,1.71,0,0,1-.65-.15,1.89,1.89,0,0,1,.66-.1A1.67,1.67,0,0,1,83.57,10.42Z" style="fill: #1a2c80"/>
    <path d="M80.65,10.44a1.72,1.72,0,0,1-.53.41,1.7,1.7,0,0,1-.64.19,1.68,1.68,0,0,1,.52-.41A1.75,1.75,0,0,1,80.65,10.44Z" style="fill: #1a2c80"/>
  </g>
  <g data-name="Layer 7" id="Layer_7">
    <g id="Connectors">
      <ellipse cx="31.51" cy="8.43" data-cir-type="male" data-name="circuitoCon Clk" id="circuitoCon_Clk" rx="2.05" ry="1.99" style="fill: none;stroke: #e3e1db;stroke-miterlimit: 10;stroke-width: 1.2239999771118164px"/>
      <ellipse cx="24.31" cy="8.43" data-cir-type="male" data-name="circuitoCon Data" id="circuitoCon_Data" rx="2.05" ry="1.99" style="fill: none;stroke: #e3e1db;stroke-miterlimit: 10;stroke-width: 1.2239999771118164px"/>
      <ellipse cx="74.78" cy="8.43" data-cir-type="male" data-name="circuitoCon GND" id="circuitoCon_GND" rx="2.05" ry="1.99" style="fill: none;stroke: #e3e1db;stroke-miterlimit: 10;stroke-width: 1.2239999771118164px"/>
      <ellipse cx="67.59" cy="8.43" data-cir-type="male" data-name="circuitoCon VIN" id="circuitoCon_VIN" rx="2.05" ry="1.99" style="fill: none;stroke: #e3e1db;stroke-miterlimit: 10;stroke-width: 1.2239999771118164px"/>
      <ellipse cx="60.4" cy="8.43" data-cir-type="male" data-name="circuitoCon 3V3" id="circuitoCon_3V3" rx="2.05" ry="1.99" style="fill: none;stroke: #e3e1db;stroke-miterlimit: 10;stroke-width: 1.2239999771118164px"/>
      <ellipse cx="46.01" cy="8.43" data-cir-type="male" data-name="circuitoCon RST" id="circuitoCon_RST" rx="2.05" ry="1.99" style="fill: none;stroke: #e3e1db;stroke-miterlimit: 10;stroke-width: 1.2239999771118164px"/>
      <ellipse cx="38.77" cy="8.43" data-cir-type="male" data-name="circuitoCon DC" id="circuitoCon_DC" rx="2.05" ry="1.99" style="fill: none;stroke: #e3e1db;stroke-miterlimit: 10;stroke-width: 1.2239999771118164px"/>
      <ellipse cx="53.2" cy="8.43" data-cir-type="male" data-name="circuitoCon CS" id="circuitoCon_CS" rx="2.05" ry="1.99" style="fill: none;stroke: #e3e1db;stroke-miterlimit: 10;stroke-width: 1.2239999771118164px"/>
    </g>
  </g>
</svg>