<?xml version="1.0" ?><svg height="43.36mm" viewBox="0 0 45 122.9" width="15.87mm" xmlns="http://www.w3.org/2000/svg">
  <title>HM-10 BLE Bluetooth 4.0</title>
  <g data-name="Layer 6" id="Layer_6">
    <rect height="109.13" style="fill: #1a2c80" width="45"/>
  </g>
  <g data-name="Layer 5" id="Layer_5">
    <polygon points="10.19 18.5 16.41 18.5 16.41 20.61 18.04 22.24 18.9 23.1 21.39 23.1 21.39 25.69 19.81 25.69 19.81 32.19 22.89 32.19 22.89 35.04 17.12 35.04 17.12 32.35 14.66 32.35 14.66 31.03 8 31.03 8 27.71 14.02 27.71 14.02 22.75 6.25 22.75 6.25 20.18 5.31 20.18 5.06 18.63 5.06 16.23 9.81 16.23 9.81 18.34 10.19 18.5" style="fill: #0b5597"/>
    <polygon points="26.35 33.3 28.45 33.3 28.45 30 27.59 29.1 26.65 23.09 26.14 23.09 26.14 33.3 26.35 33.3" style="fill: #0b5597"/>
    <polygon points="19.31 15.75 40.97 15.75 40.97 19.02 39.74 19.02 38.96 21.42 39.13 23.63 38.17 23.63 36.59 25.2 36.59 23.63 30.79 23.63 29.98 22.81 27.11 22.81 26.29 23.64 26.29 25.32 24.86 25.32 24.86 19.75 19.44 19.75 18.71 20.48 18.71 21.75 17.05 20.1 17.05 18.34 19.31 15.75" style="fill: #0b5597"/>
    <polyline points="28.33 43.35 30.98 40.7 30.98 34.4 32.44 32.95" style="fill: none;stroke: #0b5597;stroke-miterlimit: 10;stroke-width: 0.5px"/>
    <polyline points="26.85 43.25 29.47 40.63 29.47 35.25 28.12 33.91" style="fill: none;stroke: #0b5597;stroke-miterlimit: 10;stroke-width: 0.5px"/>
    <polyline points="25.31 43.25 25.31 42.17 27.74 39.74" style="fill: none;stroke: #0b5597;stroke-miterlimit: 10;stroke-width: 0.5px"/>
    <polyline points="23.96 43.35 23.96 41.32 25.05 40.23" style="fill: none;stroke: #0b5597;stroke-miterlimit: 10;stroke-width: 0.5px"/>
    <line style="fill: none;stroke: #0b5597;stroke-miterlimit: 10;stroke-width: 0.5px" x1="22.29" x2="22.29" y1="43.35" y2="40.04"/>
    <line style="fill: none;stroke: #0b5597;stroke-miterlimit: 10;stroke-width: 0.5px" x1="18.1" x2="18.1" y1="43.46" y2="39.42"/>
    <polyline points="16.46 43.05 15.83 42.42 14.5 42.42 12.23 40.15" style="fill: none;stroke: #0b5597;stroke-miterlimit: 10;stroke-width: 0.5px"/>
    <polyline points="8.8 35.77 8.8 47.15 10.01 48.36 12.78 48.36" style="fill: none;stroke: #0b5597;stroke-miterlimit: 10;stroke-width: 0.5px"/>
    <polyline points="13.31 49.62 9.77 49.62 9.13 49.62 7.43 47.92 7.43 26.94" style="fill: none;stroke: #0b5597;stroke-miterlimit: 10;stroke-width: 0.5px"/>
    <polyline points="13.15 51.07 7.23 51.07 4.92 48.76" style="fill: none;stroke: #0b5597;stroke-miterlimit: 10;stroke-width: 0.5px"/>
    <line style="fill: none;stroke: #0b5597;stroke-miterlimit: 10;stroke-width: 0.5px" x1="13.15" x2="5.52" y1="52.61" y2="52.61"/>
    <polyline points="13.31 54.04 7.29 54.04 5.15 56.19" style="fill: none;stroke: #0b5597;stroke-miterlimit: 10;stroke-width: 0.5px"/>
    <line style="fill: none;stroke: #0b5597;stroke-miterlimit: 10;stroke-width: 0.5px" x1="13.31" x2="9.77" y1="55.5" y2="55.5"/>
    <line style="fill: none;stroke: #0b5597;stroke-miterlimit: 10;stroke-width: 0.5px" x1="10.63" x2="10.63" y1="61.92" y2="59.1"/>
    <line style="fill: none;stroke: #0b5597;stroke-miterlimit: 10;stroke-width: 0.5px" x1="33.02" x2="35.53" y1="46.76" y2="46.76"/>
    <polyline points="33.19 48.25 35.28 48.25 36.02 48.25 36.79 47.48 36.79 46.25" style="fill: none;stroke: #0b5597;stroke-miterlimit: 10;stroke-width: 0.5px"/>
    <polyline points="33.47 49.67 36.02 49.67 37.76 47.93 37.76 36.09 39.12 34.74 39.12 28.98 41.12 26.98" style="fill: none;stroke: #0b5597;stroke-miterlimit: 10;stroke-width: 0.5px"/>
    <polyline points="33.19 52.61 34.88 52.61 38.42 49.06 38.42 37.42 40.49 35.35" style="fill: none;stroke: #0b5597;stroke-miterlimit: 10;stroke-width: 0.5px"/>
    <polyline points="33.38 55.44 34.42 55.44 39.52 50.34 39.52 46.25 41.19 44.58" style="fill: none;stroke: #0b5597;stroke-miterlimit: 10;stroke-width: 0.5px"/>
    <polyline points="33.58 54.16 34.6 54.16 38.96 49.81 38.96 41.79 40.59 40.16" style="fill: none;stroke: #0b5597;stroke-miterlimit: 10;stroke-width: 0.5px"/>
    <polyline points="33.38 57.05 34.25 57.05 40.86 50.44 40.86 49.84" style="fill: none;stroke: #0b5597;stroke-miterlimit: 10;stroke-width: 0.5px"/>
    <polyline points="33.47 58.49 34.79 58.49 40.17 53.12" style="fill: none;stroke: #0b5597;stroke-miterlimit: 10;stroke-width: 0.5px"/>
    <polyline points="33.38 59.93 34.9 59.93 37.81 57.02 40.17 57.02" style="fill: none;stroke: #0b5597;stroke-miterlimit: 10;stroke-width: 0.5px"/>
    <path d="M26.75,63.58v4l1.44,1.44s9.5-.05,9.55,0,2.74-2.74,2.74-2.74" style="fill: none;stroke: #0b5597;stroke-miterlimit: 10;stroke-width: 0.5px"/>
    <polyline points="25.31 63.4 25.31 67.73 27.74 70.16 40.31 70.16" style="fill: none;stroke: #0b5597;stroke-miterlimit: 10;stroke-width: 0.5px"/>
    <polyline points="19.54 64.18 19.54 68.54 18.17 69.91" style="fill: none;stroke: #0b5597;stroke-miterlimit: 10;stroke-width: 0.5px"/>
    <line style="fill: none;stroke: #0b5597;stroke-miterlimit: 10;stroke-width: 0.5px" x1="18.1" x2="18.1" y1="63.5" y2="70.06"/>
    <line style="fill: none;stroke: #0b5597;stroke-miterlimit: 10;stroke-width: 0.5px" x1="19.54" x2="19.54" y1="63.5" y2="64.58"/>
    <polyline points="15.57 61.92 15.57 63.21 12.81 65.97 10.38 65.97" style="fill: none;stroke: #0b5597;stroke-miterlimit: 10;stroke-width: 0.5px"/>
    <path d="M13.31,41.23v.83l1.31,1.31h1.08v1.75h-.32l-.69-.69-.44.44s-.18-.07-.11,0,0,.48,0,.48l-.31.31h-.69v-.54h-.46v-4Z" style="fill: #0b5597"/>
    <rect height="1.2" style="fill: #0b5597" width="4.18" x="29.94" y="43.35"/>
    <rect height="1.52" style="fill: #0b5597" width="3.29" x="30.91" y="41.15"/>
    <path d="M31.55,60.87l3.67-.39,2.85-2.81a1.77,1.77,0,0,1,1.55.46,1.63,1.63,0,0,1,.42,1l-.8.84-.11,3.3-4.36,4.36H30.65V60.83Z" style="fill: #0b5597"/>
    <line style="fill: none;stroke: #0b5597;stroke-miterlimit: 10" x1="20.92" x2="20.92" y1="63.5" y2="69.71"/>
    <polyline points="22.43 63.08 22.43 66.78 28.33 66.78 28.33 68.19 35.52 68.19 36.08 67.63 41.19 62.25" style="fill: none;stroke: #0b5597;stroke-miterlimit: 10;stroke-width: 0.6000000000000001px"/>
    <polygon points="7.88 67.17 12.98 67.17 15.48 64.67 16.5 63.64 17.12 63.64 17.12 67.69 7.59 67.69 7.59 67.17 7.88 67.17" style="fill: #0b5597"/>
    <path d="M3.79,71.42a4.89,4.89,0,0,1,6,0L11.38,73l.72.72a8,8,0,0,0,4.08.73c1.33-.13,2.12-.6,4-.75a13.49,13.49,0,0,1,2.34,0v1.6h5.12a4.07,4.07,0,0,0,2.26-2.36A3.77,3.77,0,0,0,30,71h8.77l1.93,1.93a1.61,1.61,0,0,0-1.15.88,1.54,1.54,0,0,0,0,1.18A2.14,2.14,0,0,0,40,76a2.17,2.17,0,0,0,1.18.71v3H39l-2,2v1.91L35.1,85.49v-2.2l.66-.66V78.79a2.17,2.17,0,0,0-2-1.75,3,3,0,0,0-.83.3,3.05,3.05,0,0,0-1.09,1,3.28,3.28,0,0,0-2.21-1.17,3.26,3.26,0,0,0-2.17,1.44A3,3,0,0,0,25,77.36a3.47,3.47,0,0,0-2.1,1.43,2.13,2.13,0,0,0-.67-1.11,2.22,2.22,0,0,0-1.7-.48,2.42,2.42,0,0,0-2,1.31,2.82,2.82,0,0,0-2.31-1.29A4,4,0,0,0,14,78.62a2,2,0,0,0-2.25-1.09,1.88,1.88,0,0,0-.81.17,1.94,1.94,0,0,0-.9.87H3.79A5,5,0,0,1,3.79,71.42Z" style="fill: #0b5597"/>
    <line style="fill: none;stroke: #ad997d;stroke-miterlimit: 10;stroke-width: 0.6000000000000001px" x1="3.77" x2="3.77" y1="74.71" y2="1.06"/>
    <line style="fill: none;stroke: #0b5597;stroke-miterlimit: 10" x1="20.3" x2="17.22" y1="85.49" y2="85.49"/>
    <line style="fill: none;stroke: #0b5597;stroke-miterlimit: 10" x1="28.94" x2="33.05" y1="98.48" y2="102.59"/>
  </g>
  <g data-name="Layer 8" id="Layer_8">
    <circle cx="37.85" cy="75.98" r="0.36" style="fill: #1a2c80"/>
    <circle cx="35.96" cy="74.03" r="0.36" style="fill: #1a2c80"/>
    <circle cx="37.49" cy="71.56" r="0.36" style="fill: #1a2c80"/>
    <circle cx="34.02" cy="71.56" r="0.36" style="fill: #1a2c80"/>
    <circle cx="30.84" cy="71.67" r="0.36" style="fill: #1a2c80"/>
    <circle cx="10" cy="74.39" r="0.36" style="fill: #1a2c80"/>
    <circle cx="19.44" cy="67.14" r="0.36" style="fill: #1a2c80"/>
    <circle cx="8.13" cy="75.86" r="0.36" style="fill: #1a2c80"/>
    <circle cx="7.96" cy="73.07" r="0.36" style="fill: #1a2c80"/>
    <circle cx="33.53" cy="62.93" r="0.36" style="fill: #1a2c80"/>
    <circle cx="35.91" cy="60.74" r="0.36" style="fill: #1a2c80"/>
    <circle cx="38.17" cy="59.18" r="0.36" style="fill: #1a2c80"/>
    <circle cx="9.19" cy="55.5" r="0.36" style="fill: #1a2c80"/>
    <circle cx="40.03" cy="17.2" r="0.36" style="fill: #1a2c80"/>
    <circle cx="36.95" cy="17.2" r="0.36" style="fill: #1a2c80"/>
    <circle cx="33.56" cy="17.2" r="0.36" style="fill: #1a2c80"/>
    <circle cx="30.17" cy="17.2" r="0.36" style="fill: #1a2c80"/>
    <circle cx="26.78" cy="17.2" r="0.36" style="fill: #1a2c80"/>
    <circle cx="23.62" cy="17.03" r="0.36" style="fill: #1a2c80"/>
    <circle cx="14.46" cy="20.41" r="0.36" style="fill: #1a2c80"/>
    <circle cx="11.8" cy="20.41" r="0.36" style="fill: #1a2c80"/>
    <circle cx="17.87" cy="23.25" r="0.36" style="fill: #1a2c80"/>
    <circle cx="15.36" cy="27.27" r="0.36" style="fill: #1a2c80"/>
    <circle cx="10.29" cy="29.18" r="0.36" style="fill: #1a2c80"/>
    <circle cx="13.23" cy="29.3" r="0.36" style="fill: #1a2c80"/>
    <circle cx="18.63" cy="30.8" r="0.36" style="fill: #1a2c80"/>
    <circle cx="18.93" cy="27.43" r="0.36" style="fill: #1a2c80"/>
    <circle cx="5.42" cy="18.65" r="0.36" style="fill: #1a2c80"/>
    <circle cx="8.72" cy="18.65" r="0.36" style="fill: #1a2c80"/>
    <circle cx="26.89" cy="20.33" r="0.36" style="fill: #1a2c80"/>
    <circle cx="30.17" cy="20.25" r="0.36" style="fill: #1a2c80"/>
    <circle cx="33.45" cy="20.17" r="0.36" style="fill: #1a2c80"/>
    <circle cx="36.74" cy="20.1" r="0.36" style="fill: #1a2c80"/>
  </g>
  <g data-name="Layer 4" id="Layer_4">
    <rect height="6.54" style="fill: none;stroke: #fff;stroke-miterlimit: 10;stroke-width: 0.4px" width="3.37" x="26.25" y="70.35"/>
    <rect height="9.53" style="fill: none;stroke: #fff;stroke-miterlimit: 10;stroke-width: 0.4px" width="3.87" x="22.42" y="68"/>
    <rect height="6.59" style="fill: none;stroke: #fff;stroke-miterlimit: 10;stroke-width: 0.4px" width="2.92" x="19.42" y="68.7"/>
    <rect height="9.44" style="fill: none;stroke: #fff;stroke-miterlimit: 10;stroke-width: 0.4px" width="7.38" x="12.05" y="67.92"/>
    <polyline points="5.85 68.7 5.85 68.17 12.17 68.17 12.17 71.63 5.67 71.63" style="fill: none;stroke: #fff;stroke-miterlimit: 10;stroke-width: 0.4px"/>
    <polyline points="5.79 67.17 11.96 67.17 11.96 63.96 5.67 63.96" style="fill: none;stroke: #fff;stroke-miterlimit: 10;stroke-width: 0.4px"/>
    <polyline points="11.85 63.85 11.85 47.15 8.92 47.15 8.92 40.88 10.16 40.88 10.16 35.77 8 35.77 8 27.71 5.75 27.71" style="fill: none;stroke: #fff;stroke-miterlimit: 10;stroke-width: 0.4px"/>
    <polyline points="9.23 27.51 8 27.51 8 27.02" style="fill: none;stroke: #fff;stroke-miterlimit: 10;stroke-width: 0.4px"/>
    <line style="fill: none;stroke: #fff;stroke-miterlimit: 10;stroke-width: 0.4px" x1="8.17" x2="8.17" y1="24.74" y2="23.81"/>
    <line style="fill: none;stroke: #fff;stroke-miterlimit: 10;stroke-width: 0.4px" x1="5.53" x2="5.53" y1="22.75" y2="24.2"/>
    <polyline points="5.75 21.42 14.58 21.42 14.58 28.58 17.38 28.58 17.38 32.19" style="fill: none;stroke: #fff;stroke-miterlimit: 10;stroke-width: 0.4px"/>
    <polyline points="14.84 28.76 14.02 28.76 14.02 30.81" style="fill: none;stroke: #fff;stroke-miterlimit: 10;stroke-width: 0.4px"/>
    <polyline points="15 30.73 14.66 30.73 14.66 32.08 14.43 32.08" style="fill: none;stroke: #fff;stroke-miterlimit: 10;stroke-width: 0.4px"/>
    <polyline points="9.77 40.88 10.46 40.88 10.46 41.15 12.56 41.15 12.56 45.78 12.03 46.32 12.03 46.95" style="fill: none;stroke: #fff;stroke-miterlimit: 10;stroke-width: 0.4px"/>
    <line style="fill: none;stroke: #fff;stroke-miterlimit: 10" x1="12.34" x2="29.61" y1="41.15" y2="41.15"/>
    <polyline points="13.69 41.15 13.69 35.04 37.56 35.04 37.56 47.67 34.29 47.67 34.29 35.04" style="fill: none;stroke: #fff;stroke-miterlimit: 10;stroke-width: 0.4px"/>
    <polyline points="37.56 41.03 31.03 41.03 30.85 41.21 30.85 35.04" style="fill: none;stroke: #fff;stroke-miterlimit: 10;stroke-width: 0.4px"/>
    <polyline points="29.81 35.04 29.81 41.32 29.1 41.32 30.79 41.32" style="fill: none;stroke: #fff;stroke-miterlimit: 10;stroke-width: 0.4px"/>
    <line style="fill: none;stroke: #fff;stroke-miterlimit: 10;stroke-width: 0.4px" x1="16.66" x2="16.66" y1="35.12" y2="40.88"/>
    <line style="fill: none;stroke: #fff;stroke-miterlimit: 10;stroke-width: 0.4px" x1="19.92" x2="19.92" y1="35.12" y2="41.04"/>
    <line style="fill: none;stroke: #fff;stroke-miterlimit: 10;stroke-width: 0.4px" x1="22.89" x2="22.89" y1="35.12" y2="41.04"/>
    <line style="fill: none;stroke: #fff;stroke-miterlimit: 10;stroke-width: 0.4px" x1="26.14" x2="26.14" y1="35.12" y2="41.04"/>
    <polyline points="16.66 34.85 16.66 31.65 19.92 31.65 19.92 26.06 18.7 26.06 18.45 26.06 18.45 19.75 24.85 19.75 24.85 25.58 26.5 25.58 26.65 25.58 26.65 22.98 30.08 22.98 30.08 24.2" style="fill: none;stroke: #fff;stroke-miterlimit: 10;stroke-width: 0.4px"/>
    <polyline points="30.08 23.46 38.17 23.46 38.17 35.04 37.56 35.04" style="fill: none;stroke: #fff;stroke-miterlimit: 10;stroke-width: 0.4px"/>
    <polyline points="19.92 26.06 24.13 26.06 24.86 25.32" style="fill: none;stroke: #fff;stroke-miterlimit: 10;stroke-width: 0.4px"/>
    <line style="fill: none;stroke: #fff;stroke-miterlimit: 10;stroke-width: 0.4px" x1="21.39" x2="21.39" y1="19.9" y2="25.92"/>
    <line style="fill: none;stroke: #fff;stroke-miterlimit: 10;stroke-width: 0.4px" x1="20.98" x2="22.04" y1="22.91" y2="22.91"/>
    <polyline points="19.92 31.41 19.92 32.19 22.89 32.19 22.89 34.94" style="fill: none;stroke: #fff;stroke-miterlimit: 10;stroke-width: 0.4px"/>
    <line style="fill: none;stroke: #fff;stroke-miterlimit: 10;stroke-width: 0.4px" x1="22.89" x2="22.89" y1="26.02" y2="32.19"/>
    <polyline points="23 32.02 26.29 32.02 26.29 25.79 26.29 25.64" style="fill: none;stroke: #fff;stroke-miterlimit: 10;stroke-width: 0.4px"/>
    <line style="fill: none;stroke: #fff;stroke-miterlimit: 10;stroke-width: 0.4px" x1="26.35" x2="30.85" y1="29.32" y2="29.32"/>
    <polyline points="26.35 31.41 29.1 31.41 29.1 35.13" style="fill: none;stroke: #fff;stroke-miterlimit: 10;stroke-width: 0.4px"/>
    <line style="fill: none;stroke: #fff;stroke-miterlimit: 10;stroke-width: 0.4px" x1="6.56" x2="11.85" y1="56.79" y2="56.79"/>
    <line style="fill: none;stroke: #fff;stroke-miterlimit: 10;stroke-width: 0.4px" x1="6.2" x2="11.85" y1="60.52" y2="60.52"/>
    <polyline points="11.85 60.69 15.35 64.18 34.13 64.18 34.13 41.04" style="fill: none;stroke: #fff;stroke-miterlimit: 10;stroke-width: 0.4px"/>
    <polyline points="27.73 64.18 27.73 67.62 34.13 67.62 34.13 63.96" style="fill: none;stroke: #fff;stroke-miterlimit: 10;stroke-width: 0.4px"/>
    <line style="fill: none;stroke: #fff;stroke-miterlimit: 10;stroke-width: 0.4px" x1="44.02" x2="44.02" y1="85.4" y2="97.6"/>
    <line style="fill: none;stroke: #fff;stroke-miterlimit: 10;stroke-width: 0.7000000000000001px" x1="3.47" x2="41.57" y1="80.22" y2="80"/>
    <polyline points="4.17 98.9 0.46 98.9 0.46 85.8 3.91 85.8" style="fill: none;stroke: #fff;stroke-miterlimit: 10;stroke-width: 0.7000000000000001px"/>
    <polyline points="5.57 85.62 9.33 85.62 9.33 98.9 5.57 98.9" style="fill: none;stroke: #fff;stroke-miterlimit: 10;stroke-width: 0.7000000000000001px"/>
    <line style="fill: none;stroke: #fff;stroke-miterlimit: 10;stroke-width: 0.7000000000000001px" x1="0.46" x2="4.17" y1="94.44" y2="94.44"/>
    <line style="fill: none;stroke: #fff;stroke-miterlimit: 10;stroke-width: 0.7000000000000001px" x1="0.46" x2="4.17" y1="90.1" y2="90.1"/>
    <line style="fill: none;stroke: #fff;stroke-miterlimit: 10;stroke-width: 0.7000000000000001px" x1="9.33" x2="5.39" y1="90.1" y2="90.1"/>
    <polyline points="13.37 94.44 9.33 94.44 5.57 94.44" style="fill: none;stroke: #fff;stroke-miterlimit: 10;stroke-width: 0.7000000000000001px"/>
    <line style="fill: none;stroke: #fff;stroke-miterlimit: 10;stroke-width: 0.7000000000000001px" x1="9.33" x2="13.37" y1="98.9" y2="98.9"/>
    <line style="fill: none;stroke: #fff;stroke-miterlimit: 10;stroke-width: 0.7000000000000001px" x1="14.6" x2="22.52" y1="98.9" y2="98.9"/>
    <line style="fill: none;stroke: #fff;stroke-miterlimit: 10;stroke-width: 0.7000000000000001px" x1="14.25" x2="22.21" y1="94.44" y2="94.44"/>
    <line style="fill: none;stroke: #fff;stroke-miterlimit: 10;stroke-width: 0.7000000000000001px" x1="18.31" x2="18.31" y1="94.44" y2="98.9"/>
    <polyline points="19.44 89.9 36.39 89.9 36.39 97.02 36.05 97.36 36.05 98.73 32.31 98.73" style="fill: none;stroke: #fff;stroke-miterlimit: 10;stroke-width: 0.7000000000000001px"/>
    <line style="fill: none;stroke: #fff;stroke-miterlimit: 10;stroke-width: 0.7000000000000001px" x1="36.39" x2="32.35" y1="94.31" y2="94.31"/>
    <line style="fill: none;stroke: #fff;stroke-miterlimit: 10;stroke-width: 0.7000000000000001px" x1="27.18" x2="27.18" y1="90.74" y2="98.48"/>
    <line style="fill: none;stroke: #fff;stroke-miterlimit: 10;stroke-width: 0.7000000000000001px" x1="23.46" x2="30.74" y1="98.73" y2="98.73"/>
    <line style="fill: none;stroke: #fff;stroke-miterlimit: 10;stroke-width: 0.7000000000000001px" x1="23.27" x2="30.91" y1="94.31" y2="94.31"/>
    <polyline points="18.02 87.86 18.02 86.03 16.6 86.03" style="fill: none;stroke: #fff;stroke-miterlimit: 10;stroke-width: 0.7000000000000001px"/>
    <polyline points="9.99 87.65 9.99 86.31 11.3 86.31" style="fill: none;stroke: #fff;stroke-miterlimit: 10;stroke-width: 0.7000000000000001px"/>
    <polyline points="10.44 15.16 9.81 15.16 9.81 18.63 23 18.63 23 15.16 12.66 15.16" style="fill: none;stroke: #fff;stroke-miterlimit: 10;stroke-width: 0.4px"/>
    <line style="fill: none;stroke: #fff;stroke-miterlimit: 10;stroke-width: 0.4px" x1="16.06" x2="16.06" y1="15.16" y2="18.62"/>
    <line style="fill: none;stroke: #ad997d;stroke-miterlimit: 10;stroke-width: 3px" x1="7.08" x2="7.08" y1="16.54" y2="1.81"/>
    <polyline points="6.9 2.17 18.46 2.17 18.46 12.42 23.56 12.42 23.56 2.17 29.65 2.17 29.65 12.5 34.48 12.5 34.48 2.27 40.31 2.27 40.31 12.5 40.31 12.83" style="fill: none;stroke: #ad997d;stroke-miterlimit: 10;stroke-width: 0.7000000000000001px"/>
    <line style="fill: none;stroke: #ad997d;stroke-miterlimit: 10;stroke-width: 0.7000000000000001px" x1="11.73" x2="11.73" y1="2.17" y2="16.7"/>
    <polygon points="32.3 100.54 30.3 102.58 28.48 100.71 24.8 100.71 23.05 102.52 21.2 100.62 17.48 100.62 15.6 102.56 13.79 100.7 9.99 100.7 8.06 102.68 6.11 100.67 2.61 100.67 0.94 102.39 0.94 107.27 2.61 108.99 6.11 108.99 8.06 106.98 9.99 108.96 13.79 108.96 15.6 107.11 17.48 109.05 21.2 109.05 23.05 107.15 24.8 108.96 28.48 108.96 30.3 107.09 32.3 109.13 35.73 109.13 37.7 107.11 39.33 108.9 42.67 108.9 44.61 106.67 44.61 102.67 42.94 100.74 39.33 100.74 37.7 102.56 35.73 100.54 32.3 100.54" style="fill: none;stroke: #eeefeb;stroke-miterlimit: 10;stroke-width: 0.5px"/>
  </g>
  <g data-name="Layer 3" id="Layer_3">
    <path d="M29.18,61.76h.92v1.73a.55.55,0,0,1-.41.28.53.53,0,0,1-.52-.28Z" style="fill: #d8d6dd"/>
    <path d="M27.73,61.76h.92v1.73a.55.55,0,0,1-.41.28.53.53,0,0,1-.52-.28Z" style="fill: #d8d6dd"/>
    <path d="M26.29,61.76h.92v1.73a.55.55,0,0,1-.41.28.53.53,0,0,1-.52-.28Z" style="fill: #d8d6dd"/>
    <path d="M24.85,61.76h.92v1.73a.55.55,0,0,1-.41.28.53.53,0,0,1-.52-.28Z" style="fill: #d8d6dd"/>
    <path d="M23.41,61.76h.92v1.73a.55.55,0,0,1-.41.28.53.53,0,0,1-.52-.28Z" style="fill: #d8d6dd"/>
    <path d="M22,61.76h.92v1.73a.55.55,0,0,1-.41.28.53.53,0,0,1-.52-.28Z" style="fill: #d8d6dd"/>
    <path d="M20.52,61.76h.92v1.73a.55.55,0,0,1-.41.28.53.53,0,0,1-.52-.28Z" style="fill: #d8d6dd"/>
    <path d="M19.08,61.76H20v1.73a.55.55,0,0,1-.41.28.53.53,0,0,1-.52-.28Z" style="fill: #d8d6dd"/>
    <path d="M17.64,61.76h.92v1.73a.55.55,0,0,1-.41.28.53.53,0,0,1-.52-.28Z" style="fill: #d8d6dd"/>
    <path d="M16.19,61.76h.92v1.73a.55.55,0,0,1-.41.28.53.53,0,0,1-.52-.28Z" style="fill: #d8d6dd"/>
    <path d="M17.12,45.12h-.92V43.39a.55.55,0,0,1,.41-.28.53.53,0,0,1,.52.28Z" style="fill: #d8d6dd"/>
    <path d="M18.56,45.12h-.92V43.39a.55.55,0,0,1,.41-.28.53.53,0,0,1,.52.28Z" style="fill: #d8d6dd"/>
    <path d="M20,45.12h-.92V43.39a.55.55,0,0,1,.41-.28.53.53,0,0,1,.52.28Z" style="fill: #d8d6dd"/>
    <path d="M21.44,45.12h-.92V43.39a.55.55,0,0,1,.41-.28.53.53,0,0,1,.52.28Z" style="fill: #d8d6dd"/>
    <path d="M22.89,45.12H22V43.39a.55.55,0,0,1,.41-.28.53.53,0,0,1,.52.28Z" style="fill: #d8d6dd"/>
    <path d="M24.33,45.12h-.92V43.39a.55.55,0,0,1,.41-.28.53.53,0,0,1,.52.28Z" style="fill: #d8d6dd"/>
    <path d="M25.77,45.12h-.92V43.39a.55.55,0,0,1,.41-.28.53.53,0,0,1,.52.28Z" style="fill: #d8d6dd"/>
    <path d="M27.21,45.12h-.92V43.39a.55.55,0,0,1,.41-.28.53.53,0,0,1,.52.28Z" style="fill: #d8d6dd"/>
    <path d="M28.66,45.12h-.92V43.39a.55.55,0,0,1,.41-.28.53.53,0,0,1,.52.28Z" style="fill: #d8d6dd"/>
    <path d="M30.1,45.12h-.92V43.39a.55.55,0,0,1,.41-.28.53.53,0,0,1,.52.28Z" style="fill: #d8d6dd"/>
    <path d="M31.65,47.41v-.92h1.73a.55.55,0,0,1,.28.41.53.53,0,0,1-.28.52Z" style="fill: #d8d6dd"/>
    <path d="M31.65,48.85v-.92h1.73a.55.55,0,0,1,.28.41.53.53,0,0,1-.28.52Z" style="fill: #d8d6dd"/>
    <path d="M31.65,50.3v-.92h1.73a.55.55,0,0,1,.28.41.53.53,0,0,1-.28.52Z" style="fill: #d8d6dd"/>
    <path d="M31.65,51.74v-.92h1.73a.55.55,0,0,1,.28.41.53.53,0,0,1-.28.52Z" style="fill: #d8d6dd"/>
    <path d="M31.65,53.18v-.92h1.73a.55.55,0,0,1,.28.41.53.53,0,0,1-.28.52Z" style="fill: #d8d6dd"/>
    <path d="M31.65,54.62V53.7h1.73a.55.55,0,0,1,.28.41.53.53,0,0,1-.28.52Z" style="fill: #d8d6dd"/>
    <path d="M31.65,56.07v-.92h1.73a.55.55,0,0,1,.28.41.53.53,0,0,1-.28.52Z" style="fill: #d8d6dd"/>
    <path d="M31.65,57.51v-.92h1.73a.55.55,0,0,1,.28.41.53.53,0,0,1-.28.52Z" style="fill: #d8d6dd"/>
    <path d="M31.65,59V58h1.73a.55.55,0,0,1,.28.41.53.53,0,0,1-.28.52Z" style="fill: #d8d6dd"/>
    <path d="M31.65,60.39v-.92h1.73a.55.55,0,0,1,.28.41.53.53,0,0,1-.28.52Z" style="fill: #d8d6dd"/>
    <path d="M14.89,59.21v.92H13.15a.55.55,0,0,1-.28-.41.53.53,0,0,1,.28-.52Z" style="fill: #d8d6dd"/>
    <path d="M14.89,57.77v.92H13.15a.55.55,0,0,1-.28-.41.53.53,0,0,1,.28-.52Z" style="fill: #d8d6dd"/>
    <path d="M14.89,56.33v.92H13.15a.55.55,0,0,1-.28-.41.53.53,0,0,1,.28-.52Z" style="fill: #d8d6dd"/>
    <path d="M14.89,54.88v.92H13.15a.55.55,0,0,1-.28-.41.53.53,0,0,1,.28-.52Z" style="fill: #d8d6dd"/>
    <path d="M14.89,53.44v.92H13.15a.55.55,0,0,1-.28-.41.53.53,0,0,1,.28-.52Z" style="fill: #d8d6dd"/>
    <path d="M14.89,52v.92H13.15a.55.55,0,0,1-.28-.41.53.53,0,0,1,.28-.52Z" style="fill: #d8d6dd"/>
    <path d="M14.89,50.56v.92H13.15a.55.55,0,0,1-.28-.41.53.53,0,0,1,.28-.52Z" style="fill: #d8d6dd"/>
    <path d="M14.89,49.11V50H13.15a.55.55,0,0,1-.28-.41.53.53,0,0,1,.28-.52Z" style="fill: #d8d6dd"/>
    <path d="M14.89,47.67v.92H13.15a.55.55,0,0,1-.28-.41.53.53,0,0,1,.28-.52Z" style="fill: #d8d6dd"/>
    <path d="M14.89,46.23v.92H13.15a.55.55,0,0,1-.28-.41.53.53,0,0,1,.28-.52Z" style="fill: #d8d6dd"/>
    <rect height="3.69" style="fill: #b5b0b2" width="3.46" x="30.63" y="83.96"/>
    <rect height="8.98" rx="1.26" ry="1.26" style="fill: #b38f70" width="7" x="30.79" y="25.17"/>
    <rect height="2.25" style="fill: #cac6bb" width="7.16" x="10.19" y="95.63"/>
    <rect height="2.8" style="fill: #d0d1cd" width="4.56" x="11.3" y="95.33"/>
    <path d="M15.48,98.13H11.77A2.51,2.51,0,0,0,12,96.71c0-1.11-.25-1.38-.25-1.38h3.71a3.7,3.7,0,0,0-.28,1.38A4,4,0,0,0,15.48,98.13Z" style="fill: #b38f70"/>
    <rect height="2.25" style="fill: #cac6bb" width="7.16" x="19.35" y="95.63"/>
    <rect height="2.8" style="fill: #d0d1cd" width="4.56" x="20.46" y="95.33"/>
    <path d="M24.64,98.13H20.93a2.51,2.51,0,0,0,.25-1.42c0-1.11-.25-1.38-.25-1.38h3.71a3.7,3.7,0,0,0-.28,1.38A4,4,0,0,0,24.64,98.13Z" style="fill: #b38f70"/>
    <rect height="2.25" style="fill: #cac6bb" width="7.16" x="28.16" y="95.63"/>
    <rect height="2.8" style="fill: #d0d1cd" width="4.56" x="29.27" y="95.33"/>
    <path d="M33.45,98.13H29.74A2.51,2.51,0,0,0,30,96.71c0-1.11-.25-1.38-.25-1.38h3.71a3.7,3.7,0,0,0-.28,1.38A4,4,0,0,0,33.45,98.13Z" style="fill: #b38f70"/>
    <rect height="2.25" style="fill: #cac6bb" width="7.16" x="28.16" y="91.04"/>
    <rect height="2.8" style="fill: #d0d1cd" width="4.56" x="29.27" y="90.74"/>
    <path d="M33.45,93.54H29.74A2.51,2.51,0,0,0,30,92.12c0-1.11-.25-1.38-.25-1.38h3.71a3.7,3.7,0,0,0-.28,1.38A4,4,0,0,0,33.45,93.54Z" style="fill: #b38f70"/>
    <rect height="2.25" style="fill: #cac6bb" width="7.16" x="19.35" y="91.04"/>
    <rect height="2.8" style="fill: #d0d1cd" width="4.56" x="20.46" y="90.74"/>
    <path d="M24.64,93.54H20.93a2.51,2.51,0,0,0,.25-1.42c0-1.11-.25-1.38-.25-1.38h3.71a3.7,3.7,0,0,0-.28,1.38A4,4,0,0,0,24.64,93.54Z" style="fill: #b38f70"/>
    <rect height="2.25" style="fill: #cac6bb" width="7.16" x="1.35" y="91.04"/>
    <rect height="2.8" style="fill: #d0d1cd" width="4.56" x="2.46" y="90.74"/>
    <path d="M6.64,93.54H2.93a2.51,2.51,0,0,0,.25-1.42c0-1.11-.25-1.38-.25-1.38H6.64a3.7,3.7,0,0,0-.28,1.38A4,4,0,0,0,6.64,93.54Z" style="fill: #b38f70"/>
    <rect height="2.25" style="fill: #cac6bb" width="7.16" x="1.35" y="86.85"/>
    <rect height="2.8" style="fill: #d0d1cd" width="4.56" x="2.46" y="86.55"/>
    <path d="M6.64,89.35H2.93a2.51,2.51,0,0,0,.25-1.42c0-1.11-.25-1.38-.25-1.38H6.64a3.7,3.7,0,0,0-.28,1.38A4,4,0,0,0,6.64,89.35Z" style="fill: #b38f70"/>
    <rect height="2.25" style="fill: #cac6bb" width="7.16" x="1.35" y="95.66"/>
    <rect height="2.8" style="fill: #d0d1cd" width="4.56" x="2.46" y="95.36"/>
    <path d="M6.64,98.16H2.93a2.51,2.51,0,0,0,.25-1.42c0-1.11-.25-1.38-.25-1.38H6.64a3.7,3.7,0,0,0-.28,1.38A4,4,0,0,0,6.64,98.16Z" style="fill: #b38f70"/>
    <rect height="1.45" style="fill: #cac6bb" width="4.61" x="6.97" y="69.54"/>
    <rect height="1.8" style="fill: #d0d1cd" width="2.94" x="7.69" y="69.35"/>
    <path d="M10.38,71.15H8a1.61,1.61,0,0,0,.16-.91c0-.71-.16-.89-.16-.89h2.39a2.39,2.39,0,0,0-.18.89A2.57,2.57,0,0,0,10.38,71.15Z"/>
    <rect height="1.45" style="fill: #cac6bb" width="4.61" x="6.97" y="64.88"/>
    <rect height="1.8" style="fill: #d0d1cd" width="2.94" x="7.69" y="64.69"/>
    <path d="M10.38,66.49H8a1.61,1.61,0,0,0,.16-.91c0-.71-.16-.89-.16-.89h2.39a2.39,2.39,0,0,0-.18.89A2.57,2.57,0,0,0,10.38,66.49Z" style="fill: #b38f70"/>
    <rect height="1.45" style="fill: #cac6bb" width="4.61" x="29.25" y="65.63"/>
    <rect height="1.8" style="fill: #d0d1cd" width="2.94" x="29.97" y="65.43"/>
    <path d="M32.66,67.24H30.27a1.61,1.61,0,0,0,.16-.91c0-.71-.16-.89-.16-.89h2.39a2.39,2.39,0,0,0-.18.89A2.57,2.57,0,0,0,32.66,67.24Z" style="fill: #b38f70"/>
    <rect height="2.16" style="fill: #cac6bb" transform="translate(87.55 58.57) rotate(90)" width="6.86" x="11.06" y="71.98"/>
    <rect height="2.69" style="fill: #d0d1cd" transform="translate(87.4 58.37) rotate(90)" width="4.37" x="12.33" y="71.54"/>
    <path d="M13.18,74.71V71.15a2.4,2.4,0,0,0,1.36.24c1.06,0,1.32-.24,1.32-.24v3.56a3.55,3.55,0,0,0-1.33-.27A3.82,3.82,0,0,0,13.18,74.71Z" style="fill: #b38f70"/>
    <rect height="2.16" style="fill: #cac6bb" transform="translate(90.74 55.38) rotate(90)" width="6.86" x="14.25" y="71.98"/>
    <rect height="2.69" style="fill: #d0d1cd" transform="translate(90.59 55.18) rotate(90)" width="4.37" x="15.52" y="71.54"/>
    <path d="M16.36,74.71V71.15a2.4,2.4,0,0,0,1.36.24c1.06,0,1.32-.24,1.32-.24v3.56a3.55,3.55,0,0,0-1.33-.27A3.82,3.82,0,0,0,16.36,74.71Z" style="fill: #b38f70"/>
    <rect height="2.16" style="fill: #cac6bb" transform="translate(97.61 48.51) rotate(90)" width="6.86" x="21.12" y="71.98"/>
    <rect height="2.69" style="fill: #d0d1cd" transform="translate(97.46 48.31) rotate(90)" width="4.37" x="22.39" y="71.54"/>
    <path d="M23.24,74.71V71.15a2.4,2.4,0,0,0,1.36.24c1.06,0,1.32-.24,1.32-.24v3.56a3.55,3.55,0,0,0-1.33-.27A3.82,3.82,0,0,0,23.24,74.71Z" style="fill: #b38f70"/>
    <rect height="1.33" style="fill: #cac6bb" transform="translate(93.08 51.28) rotate(90)" width="4.23" x="18.78" y="71.51"/>
    <rect height="1.66" style="fill: #d0d1cd" transform="translate(92.99 51.16) rotate(90)" width="2.7" x="19.57" y="71.24"/>
    <path d="M20.09,73.2V71a1.48,1.48,0,0,0,.84.15c.65,0,.82-.15.82-.15v2.2a2.19,2.19,0,0,0-.82-.16A2.36,2.36,0,0,0,20.09,73.2Z" style="fill: #b38f70"/>
    <rect height="1.33" style="fill: #cac6bb" transform="translate(102.08 46.03) rotate(90)" width="4.23" x="25.91" y="73.39"/>
    <rect height="1.66" style="fill: #d0d1cd" transform="translate(101.99 45.91) rotate(90)" width="2.7" x="26.69" y="73.12"/>
    <path d="M27.21,75.07v-2.2a1.48,1.48,0,0,0,.84.15c.65,0,.82-.15.82-.15v2.2a2.19,2.19,0,0,0-.82-.16A2.36,2.36,0,0,0,27.21,75.07Z" style="fill: #b38f70"/>
    <rect height="1.45" style="fill: #cac6bb" width="4.61" x="6.97" y="61.76"/>
    <rect height="1.8" style="fill: #d0d1cd" width="2.94" x="7.69" y="61.57"/>
    <path d="M10.38,63.37H8a1.61,1.61,0,0,0,.16-.91c0-.71-.16-.89-.16-.89h2.39a2.39,2.39,0,0,0-.18.89A2.57,2.57,0,0,0,10.38,63.37Z" style="fill: #b38f70"/>
    <rect height="1.45" style="fill: #cac6bb" width="4.61" x="6.97" y="58.2"/>
    <rect height="1.8" style="fill: #d0d1cd" width="2.94" x="7.69" y="58"/>
    <path d="M10.38,59.81H8a1.61,1.61,0,0,0,.16-.91C8.15,58.18,8,58,8,58h2.39a2.39,2.39,0,0,0-.18.89A2.57,2.57,0,0,0,10.38,59.81Z" style="fill: #b38f70"/>
    <rect height="1.45" style="fill: #cac6bb" transform="translate(50.12 26.02) rotate(90)" width="4.61" x="9.75" y="37.34"/>
    <rect height="1.8" style="fill: #d0d1cd" transform="translate(50.02 25.88) rotate(90)" width="2.94" x="10.6" y="37.05"/>
    <path d="M11.17,39.18V36.78a1.61,1.61,0,0,0,.91.16c.71,0,.89-.16.89-.16v2.39a2.39,2.39,0,0,0-.89-.18A2.57,2.57,0,0,0,11.17,39.18Z"/>
    <rect height="1.45" style="fill: #cac6bb" transform="translate(53.46 22.68) rotate(90)" width="4.61" x="13.08" y="37.34"/>
    <rect height="1.8" style="fill: #d0d1cd" transform="translate(53.36 22.55) rotate(90)" width="2.94" x="13.93" y="37.05"/>
    <path d="M14.5,39.18V36.78a1.61,1.61,0,0,0,.91.16c.71,0,.89-.16.89-.16v2.39a2.39,2.39,0,0,0-.89-.18A2.57,2.57,0,0,0,14.5,39.18Z" style="fill: #b38f70"/>
    <rect height="1.45" style="fill: #cac6bb" transform="translate(37.58 34.85) rotate(180)" width="4.61" x="16.48" y="16.7"/>
    <rect height="1.8" style="fill: #d0d1cd" transform="translate(37.81 34.88) rotate(180)" width="2.94" x="17.44" y="16.54"/>
    <path d="M17.68,16.54h2.39a1.61,1.61,0,0,0-.16.91c0,.71.16.89.16.89H17.68a2.39,2.39,0,0,0,.18-.89A2.57,2.57,0,0,0,17.68,16.54Z" style="fill: #c7b299"/>
    <rect height="1.45" style="fill: #cac6bb" transform="translate(26.95 34.85) rotate(180)" width="4.61" x="11.17" y="16.7"/>
    <rect height="1.8" style="fill: #d0d1cd" transform="translate(27.19 34.88) rotate(180)" width="2.94" x="12.12" y="16.54"/>
    <path d="M12.37,16.54h2.39a1.61,1.61,0,0,0-.16.91c0,.71.16.89.16.89H12.37a2.39,2.39,0,0,0,.18-.89A2.57,2.57,0,0,0,12.37,16.54Z" style="fill: #c7b299"/>
    <rect height="1.45" style="fill: #cac6bb" transform="translate(39.61 67.35) rotate(180)" width="4.61" x="17.5" y="32.95"/>
    <rect height="1.8" style="fill: #d0d1cd" transform="translate(39.85 67.38) rotate(180)" width="2.94" x="18.46" y="32.79"/>
    <path d="M18.7,32.79h2.39a1.61,1.61,0,0,0-.16.91c0,.71.16.89.16.89H18.7a2.39,2.39,0,0,0,.18-.89A2.57,2.57,0,0,0,18.7,32.79Z" style="fill: #c7b299"/>
    <rect height="1.45" style="fill: #cac6bb" transform="translate(52.29 67.35) rotate(180)" width="4.61" x="23.84" y="32.95"/>
    <rect height="1.8" style="fill: #d0d1cd" transform="translate(52.52 67.38) rotate(180)" width="2.94" x="24.79" y="32.79"/>
    <path d="M25,32.79h2.39a1.61,1.61,0,0,0-.16.91c0,.71.16.89.16.89H25a2.39,2.39,0,0,0,.18-.89A2.57,2.57,0,0,0,25,32.79Z" style="fill: #c7b299"/>
    <rect height="1.45" style="fill: #cac6bb" transform="translate(50.96 7.22) rotate(90)" width="4.61" x="19.56" y="28.37"/>
    <rect height="1.8" style="fill: #d0d1cd" transform="translate(50.86 7.09) rotate(90)" width="2.94" x="20.42" y="28.07"/>
    <path d="M21,30.2V27.81a1.61,1.61,0,0,0,.91.16c.71,0,.89-.16.89-.16V30.2A2.39,2.39,0,0,0,21.9,30,2.57,2.57,0,0,0,21,30.2Z" style="fill: #c7b299"/>
    <rect height="1.45" style="fill: #cac6bb" transform="translate(53.7 4.25) rotate(90)" width="4.61" x="22.42" y="28.25"/>
    <rect height="1.8" style="fill: #d0d1cd" transform="translate(53.6 4.12) rotate(90)" width="2.94" x="23.27" y="27.96"/>
    <path d="M23.84,30.08V27.69a1.61,1.61,0,0,0,.91.16c.71,0,.89-.16.89-.16v2.39a2.39,2.39,0,0,0-.89-.18A2.57,2.57,0,0,0,23.84,30.08Z" style="fill: #c7b299"/>
    <rect height="1.45" style="fill: #cac6bb" transform="translate(46.3 -0.12) rotate(90)" width="4.61" x="20.9" y="22.37"/>
    <rect height="1.8" style="fill: #d0d1cd" transform="translate(46.2 -0.25) rotate(90)" width="2.94" x="21.76" y="22.07"/>
    <path d="M22.33,24.2V21.81a1.61,1.61,0,0,0,.91.16c.71,0,.89-.16.89-.16V24.2a2.39,2.39,0,0,0-.89-.18A2.57,2.57,0,0,0,22.33,24.2Z" style="fill: #c7b299"/>
    <rect height="1.45" style="fill: #cac6bb" transform="translate(55.06 -2.71) rotate(90)" width="4.61" x="26.58" y="25.45"/>
    <rect height="1.8" style="fill: #d0d1cd" transform="translate(54.96 -2.84) rotate(90)" width="2.94" x="27.43" y="25.16"/>
    <path d="M28,27.28V24.89a1.61,1.61,0,0,0,.91.16c.71,0,.89-.16.89-.16v2.39a2.39,2.39,0,0,0-.89-.18A2.57,2.57,0,0,0,28,27.28Z" style="fill: #c7b299"/>
    <rect height="1.45" style="fill: #cac6bb" transform="translate(56.46 19.68) rotate(90)" width="4.61" x="16.08" y="37.34"/>
    <rect height="1.8" style="fill: #d0d1cd" transform="translate(56.36 19.55) rotate(90)" width="2.94" x="16.93" y="37.05"/>
    <path d="M17.5,39.18V36.78a1.61,1.61,0,0,0,.91.16c.71,0,.89-.16.89-.16v2.39a2.39,2.39,0,0,0-.89-.18A2.57,2.57,0,0,0,17.5,39.18Z" style="fill: #c7b299"/>
    <rect height="1.45" style="fill: #cac6bb" transform="translate(59.96 16.18) rotate(90)" width="4.61" x="19.58" y="37.34"/>
    <rect height="1.8" style="fill: #d0d1cd" transform="translate(59.86 16.05) rotate(90)" width="2.94" x="20.43" y="37.05"/>
    <path d="M21,39.18V36.78a1.61,1.61,0,0,0,.91.16c.71,0,.89-.16.89-.16v2.39a2.39,2.39,0,0,0-.89-.18A2.57,2.57,0,0,0,21,39.18Z" style="fill: #c7b299"/>
    <rect height="1.45" style="fill: #cac6bb" transform="translate(63.08 13.06) rotate(90)" width="4.61" x="22.71" y="37.34"/>
    <rect height="1.8" style="fill: #d0d1cd" transform="translate(62.98 12.92) rotate(90)" width="2.94" x="23.56" y="37.05"/>
    <path d="M24.13,39.18V36.78a1.61,1.61,0,0,0,.91.16c.71,0,.89-.16.89-.16v2.39A2.39,2.39,0,0,0,25,39,2.57,2.57,0,0,0,24.13,39.18Z" style="fill: #c7b299"/>
    <rect height="1.45" style="fill: #cac6bb" transform="translate(66.25 9.89) rotate(90)" width="4.61" x="25.87" y="37.34"/>
    <rect height="1.8" style="fill: #d0d1cd" transform="translate(66.15 9.76) rotate(90)" width="2.94" x="26.73" y="37.05"/>
    <path d="M27.3,39.18V36.78a1.61,1.61,0,0,0,.91.16c.71,0,.89-.16.89-.16v2.39a2.39,2.39,0,0,0-.89-.18A2.57,2.57,0,0,0,27.3,39.18Z" style="fill: #c7b299"/>
    <rect height="1.45" style="fill: #cac6bb" transform="translate(71 5.14) rotate(90)" width="4.61" x="30.62" y="37.34"/>
    <rect height="1.8" style="fill: #d0d1cd" transform="translate(70.9 5.01) rotate(90)" width="2.94" x="31.48" y="37.05"/>
    <path d="M32,39.18V36.78a1.61,1.61,0,0,0,.91.16c.71,0,.89-.16.89-.16v2.39A2.39,2.39,0,0,0,33,39,2.57,2.57,0,0,0,32,39.18Z" style="fill: #c7b299"/>
    <rect height="1.45" style="fill: #cac6bb" transform="translate(74.23 1.91) rotate(90)" width="4.61" x="33.86" y="37.34"/>
    <rect height="1.8" style="fill: #d0d1cd" transform="translate(74.13 1.77) rotate(90)" width="2.94" x="34.71" y="37.05"/>
    <path d="M35.28,39.18V36.78a1.61,1.61,0,0,0,.91.16c.71,0,.89-.16.89-.16v2.39a2.39,2.39,0,0,0-.89-.18A2.57,2.57,0,0,0,35.28,39.18Z" style="fill: #b38f70"/>
    <rect height="1.45" style="fill: #cac6bb" transform="translate(80.83 8.44) rotate(90)" width="4.61" x="33.89" y="43.91"/>
    <rect height="1.8" style="fill: #d0d1cd" transform="translate(80.73 8.31) rotate(90)" width="2.94" x="34.74" y="43.61"/>
    <path d="M35.31,45.74V43.35a1.61,1.61,0,0,0,.91.16c.71,0,.89-.16.89-.16v2.39a2.39,2.39,0,0,0-.89-.18A2.57,2.57,0,0,0,35.31,45.74Z"/>
    <rect height="1.45" style="fill: #cac6bb" transform="translate(55 33.22) rotate(90)" width="4.61" x="8.58" y="43.39"/>
    <rect height="1.8" style="fill: #d0d1cd" transform="translate(54.9 33.09) rotate(90)" width="2.94" x="9.44" y="43.09"/>
    <path d="M10,45.22V42.83a1.61,1.61,0,0,0,.91.16c.71,0,.89-.16.89-.16v2.39a2.39,2.39,0,0,0-.89-.18A2.57,2.57,0,0,0,10,45.22Z" style="fill: #b38f70"/>
    <rect height="7.67" rx="0.6" ry="0.6" style="fill: #969492" width="5.65" x="31.47" y="25.79"/>
    <rect height="3.54" style="fill: #969492" width="4.58" x="9.23" y="31.4"/>
    <rect height="3.54" style="fill: #969492" width="4.58" x="9.23" y="23.4"/>
    <rect height="1.62" style="fill: #969492" width="1.88" x="6.85" y="22.4"/>
    <rect height="1.62" style="fill: #969492" width="1.88" x="6.85" y="25.52"/>
    <rect height="1.62" style="fill: #969492" width="1.88" x="19.44" y="20.84"/>
    <rect height="1.62" style="fill: #969492" width="1.88" x="19.44" y="23.96"/>
    <rect height="1.4" style="fill: #969492" width="1.62" x="14.84" y="29.63"/>
    <rect height="1.45" style="fill: #969492" width="1.63" x="14.83" y="32.95"/>
    <rect height="3.77" style="fill: #434546" width="8.81" x="9.5" y="87.44"/>
    <rect height="2.63" style="fill: #928e94" width="2.65" x="12.73" y="83.9"/>
    <rect height="2.63" style="fill: #928e94" width="2.65" x="15.37" y="91.12"/>
    <rect height="2.63" style="fill: #928e94" width="2.65" x="9.81" y="91.12"/>
    <rect height="1.13" style="fill: #302c29" width="3.02" x="12.35" y="86.31"/>
    <rect height="4.6" width="7.81" x="23.27" y="83.5"/>
    <rect height="3.69" style="fill: #b5b0b2" width="3.46" x="19.81" y="84.19"/>
    <rect height="0.82" style="fill: #b5b0b2" width="1.26" x="19.67" y="85.21"/>
    <rect height="17.62" style="fill: #47494d" width="17.5" x="14.66" y="44.63"/>
    <path d="M41.42,72.81l-.15,0a1.57,1.57,0,0,0,0,3.15,1.24,1.24,0,0,0,.3-.05A6.06,6.06,0,0,1,41.42,72.81Z" style="fill: #d2ba82"/>
    <path d="M43.39,75.77l-2.45-.21a1.4,1.4,0,0,1-.75-1.26,1.49,1.49,0,0,1,.71-1.19L43.39,73Z" style="fill: #928d9a"/>
    <path d="M41.42,68.5l-.15,0a1.57,1.57,0,0,0,0,3.15,1.24,1.24,0,0,0,.3-.05A6.06,6.06,0,0,1,41.42,68.5Z" style="fill: #d2ba82"/>
    <path d="M43.39,71.46l-2.45-.21A1.4,1.4,0,0,1,40.19,70a1.49,1.49,0,0,1,.71-1.19l2.49-.14Z" style="fill: #928d9a"/>
    <path d="M41.42,64.48l-.15,0a1.57,1.57,0,0,0,0,3.15,1.24,1.24,0,0,0,.3-.05A6.06,6.06,0,0,1,41.42,64.48Z" style="fill: #d2ba82"/>
    <path d="M43.39,67.44l-2.45-.21A1.4,1.4,0,0,1,40.19,66a1.49,1.49,0,0,1,.71-1.19l2.49-.14Z" style="fill: #928d9a"/>
    <path d="M41.42,59.78l-.15,0a1.57,1.57,0,0,0,0,3.15,1.24,1.24,0,0,0,.3-.05A6.06,6.06,0,0,1,41.42,59.78Z" style="fill: #d2ba82"/>
    <path d="M43.39,62.73l-2.45-.21a1.4,1.4,0,0,1-.75-1.26,1.49,1.49,0,0,1,.71-1.19l2.49-.14Z" style="fill: #928d9a"/>
    <path d="M41.42,55.07l-.15,0a1.57,1.57,0,0,0,0,3.15,1.24,1.24,0,0,0,.3-.05A6.06,6.06,0,0,1,41.42,55.07Z" style="fill: #d2ba82"/>
    <path d="M43.39,58l-2.45-.21a1.4,1.4,0,0,1-.75-1.26,1.49,1.49,0,0,1,.71-1.19l2.49-.14Z" style="fill: #928d9a"/>
    <path d="M41.42,51l-.15,0a1.57,1.57,0,0,0,0,3.15,1.24,1.24,0,0,0,.3-.05A6.06,6.06,0,0,1,41.42,51Z" style="fill: #d2ba82"/>
    <path d="M43.39,54l-2.45-.21a1.4,1.4,0,0,1-.75-1.26,1.49,1.49,0,0,1,.71-1.19l2.49-.14Z" style="fill: #928d9a"/>
    <path d="M41.42,46.6l-.15,0a1.57,1.57,0,0,0,0,3.15,1.24,1.24,0,0,0,.3-.05A6.06,6.06,0,0,1,41.42,46.6Z" style="fill: #d2ba82"/>
    <path d="M43.39,49.56l-2.45-.21a1.4,1.4,0,0,1-.75-1.26,1.49,1.49,0,0,1,.71-1.19l2.49-.14Z" style="fill: #928d9a"/>
    <path d="M41.42,42.17l-.15,0a1.57,1.57,0,0,0,0,3.15,1.24,1.24,0,0,0,.3-.05A6.06,6.06,0,0,1,41.42,42.17Z" style="fill: #d2ba82"/>
    <path d="M43.39,45.13l-2.45-.21a1.4,1.4,0,0,1-.75-1.26,1.49,1.49,0,0,1,.71-1.19l2.49-.14Z" style="fill: #928d9a"/>
    <path d="M41.42,37.74l-.15,0a1.57,1.57,0,0,0,0,3.15,1.24,1.24,0,0,0,.3-.05A6.06,6.06,0,0,1,41.42,37.74Z" style="fill: #d2ba82"/>
    <path d="M43.39,40.7l-2.45-.21a1.4,1.4,0,0,1-.75-1.26A1.49,1.49,0,0,1,40.9,38l2.49-.14Z" style="fill: #928d9a"/>
    <path d="M41.42,33.32l-.15,0a1.57,1.57,0,0,0,0,3.15,1.24,1.24,0,0,0,.3-.05A6.06,6.06,0,0,1,41.42,33.32Z" style="fill: #d2ba82"/>
    <path d="M43.39,36.27l-2.45-.21a1.4,1.4,0,0,1-.75-1.26,1.49,1.49,0,0,1,.71-1.19l2.49-.14Z" style="fill: #928d9a"/>
    <path d="M41.42,28.89l-.15,0a1.57,1.57,0,0,0,0,3.15,1.24,1.24,0,0,0,.3-.05A6.06,6.06,0,0,1,41.42,28.89Z" style="fill: #d2ba82"/>
    <path d="M43.39,31.84l-2.45-.21a1.4,1.4,0,0,1-.75-1.26,1.49,1.49,0,0,1,.71-1.19L43.39,29Z" style="fill: #928d9a"/>
    <path d="M41.42,24.46l-.15,0a1.57,1.57,0,0,0,0,3.15,1.24,1.24,0,0,0,.3-.05A6.06,6.06,0,0,1,41.42,24.46Z" style="fill: #d2ba82"/>
    <path d="M43.39,27.41l-2.45-.21a1.4,1.4,0,0,1-.75-1.26,1.49,1.49,0,0,1,.71-1.19l2.49-.14Z" style="fill: #928d9a"/>
    <path d="M41.42,20l-.15,0a1.57,1.57,0,0,0,0,3.15,1.24,1.24,0,0,0,.3-.05A6.06,6.06,0,0,1,41.42,20Z" style="fill: #d2ba82"/>
    <path d="M43.39,23l-2.45-.21a1.4,1.4,0,0,1-.75-1.26,1.49,1.49,0,0,1,.71-1.19l2.49-.14Z" style="fill: #928d9a"/>
    <path d="M4.3,23.56l.15,0a1.57,1.57,0,0,0,0-3.15,1.24,1.24,0,0,0-.3.05A6.06,6.06,0,0,1,4.3,23.56Z" style="fill: #d2ba82"/>
    <path d="M2.32,20.61l2.45.21a1.4,1.4,0,0,1,.75,1.26,1.49,1.49,0,0,1-.71,1.19l-2.49.14Z" style="fill: #928d9a"/>
    <path d="M4.3,27.87l.15,0a1.57,1.57,0,0,0,0-3.15,1.24,1.24,0,0,0-.3.05A6.06,6.06,0,0,1,4.3,27.87Z" style="fill: #d2ba82"/>
    <path d="M2.32,24.91l2.45.21a1.4,1.4,0,0,1,.75,1.26,1.49,1.49,0,0,1-.71,1.19l-2.49.14Z" style="fill: #928d9a"/>
    <path d="M4.3,31.89l.15,0a1.57,1.57,0,0,0,0-3.15,1.24,1.24,0,0,0-.3.05A6.06,6.06,0,0,1,4.3,31.89Z" style="fill: #d2ba82"/>
    <path d="M2.32,28.93l2.45.21a1.4,1.4,0,0,1,.75,1.26,1.49,1.49,0,0,1-.71,1.19l-2.49.14Z" style="fill: #928d9a"/>
    <path d="M4.3,36.6l.15,0a1.57,1.57,0,0,0,0-3.15,1.24,1.24,0,0,0-.3.05A6.06,6.06,0,0,1,4.3,36.6Z" style="fill: #d2ba82"/>
    <path d="M2.32,33.64l2.45.21a1.4,1.4,0,0,1,.75,1.26,1.49,1.49,0,0,1-.71,1.19l-2.49.14Z" style="fill: #928d9a"/>
    <path d="M4.3,41.31l.15,0a1.57,1.57,0,0,0,0-3.15,1.24,1.24,0,0,0-.3.05A6.06,6.06,0,0,1,4.3,41.31Z" style="fill: #d2ba82"/>
    <path d="M2.32,38.35l2.45.21a1.4,1.4,0,0,1,.75,1.26A1.49,1.49,0,0,1,4.82,41l-2.49.14Z" style="fill: #928d9a"/>
    <path d="M4.3,45.34l.15,0a1.57,1.57,0,0,0,0-3.15,1.24,1.24,0,0,0-.3.05A6.06,6.06,0,0,1,4.3,45.34Z" style="fill: #d2ba82"/>
    <path d="M2.32,42.39l2.45.21a1.4,1.4,0,0,1,.75,1.26A1.49,1.49,0,0,1,4.82,45l-2.49.14Z" style="fill: #928d9a"/>
    <path d="M4.3,49.77l.15,0a1.57,1.57,0,0,0,0-3.15,1.24,1.24,0,0,0-.3.05A6.06,6.06,0,0,1,4.3,49.77Z" style="fill: #d2ba82"/>
    <path d="M2.32,46.81,4.77,47a1.4,1.4,0,0,1,.75,1.26,1.49,1.49,0,0,1-.71,1.19l-2.49.14Z" style="fill: #928d9a"/>
    <path d="M4.3,54.2l.15,0a1.57,1.57,0,0,0,0-3.15,1.24,1.24,0,0,0-.3.05A6.06,6.06,0,0,1,4.3,54.2Z" style="fill: #d2ba82"/>
    <path d="M2.32,51.24l2.45.21a1.4,1.4,0,0,1,.75,1.26,1.49,1.49,0,0,1-.71,1.19L2.32,54Z" style="fill: #928d9a"/>
    <path d="M4.3,58.63l.15,0a1.57,1.57,0,0,0,0-3.15,1.24,1.24,0,0,0-.3.05A6.06,6.06,0,0,1,4.3,58.63Z" style="fill: #d2ba82"/>
    <path d="M2.32,55.67l2.45.21a1.4,1.4,0,0,1,.75,1.26,1.49,1.49,0,0,1-.71,1.19l-2.49.14Z" style="fill: #928d9a"/>
    <path d="M4.3,63.06l.15,0a1.57,1.57,0,0,0,0-3.15,1.24,1.24,0,0,0-.3.05A6.06,6.06,0,0,1,4.3,63.06Z" style="fill: #d2ba82"/>
    <path d="M2.32,60.1l2.45.21a1.4,1.4,0,0,1,.75,1.26,1.49,1.49,0,0,1-.71,1.19l-2.49.14Z" style="fill: #928d9a"/>
    <path d="M4.3,67.49l.15,0a1.57,1.57,0,0,0,0-3.15,1.24,1.24,0,0,0-.3.05A6.06,6.06,0,0,1,4.3,67.49Z" style="fill: #d2ba82"/>
    <path d="M2.32,64.53l2.45.21A1.4,1.4,0,0,1,5.52,66a1.49,1.49,0,0,1-.71,1.19l-2.49.14Z" style="fill: #928d9a"/>
    <path d="M4.3,71.91l.15,0a1.57,1.57,0,0,0,0-3.15,1.24,1.24,0,0,0-.3.05A6.06,6.06,0,0,1,4.3,71.91Z" style="fill: #d2ba82"/>
    <path d="M2.32,69l2.45.21a1.4,1.4,0,0,1,.75,1.26,1.49,1.49,0,0,1-.71,1.19l-2.49.14Z" style="fill: #928d9a"/>
    <path d="M4.3,76.34l.15,0a1.57,1.57,0,0,0,0-3.15,1.24,1.24,0,0,0-.3.05A6.06,6.06,0,0,1,4.3,76.34Z" style="fill: #d2ba82"/>
    <path d="M2.32,73.39l2.45.21a1.4,1.4,0,0,1,.75,1.26A1.49,1.49,0,0,1,4.82,76l-2.49.14Z" style="fill: #928d9a"/>
    <path d="M8.52,79.85a1.05,1.05,0,0,0,0-.15,1.57,1.57,0,0,0-3.15,0,1.24,1.24,0,0,0,.05.3A6.06,6.06,0,0,1,8.52,79.85Z" style="fill: #d2ba82"/>
    <path d="M5.57,81.82l.21-2.45A1.4,1.4,0,0,1,7,78.62a1.49,1.49,0,0,1,1.19.71l.14,2.49Z" style="fill: #928d9a"/>
    <path d="M12.95,79.85a1.05,1.05,0,0,0,0-.15,1.57,1.57,0,0,0-3.15,0,1.24,1.24,0,0,0,.05.3A6.06,6.06,0,0,1,12.95,79.85Z" style="fill: #d2ba82"/>
    <path d="M10,81.82l.21-2.45a1.4,1.4,0,0,1,1.26-.75,1.49,1.49,0,0,1,1.19.71l.14,2.49Z" style="fill: #928d9a"/>
    <path d="M17.38,79.85a1.05,1.05,0,0,0,0-.15,1.57,1.57,0,0,0-3.15,0,1.24,1.24,0,0,0,.05.3A6.06,6.06,0,0,1,17.38,79.85Z" style="fill: #d2ba82"/>
    <path d="M14.42,81.82l.21-2.45a1.4,1.4,0,0,1,1.26-.75,1.49,1.49,0,0,1,1.19.71l.14,2.49Z" style="fill: #928d9a"/>
    <path d="M21.81,79.85a1.05,1.05,0,0,0,0-.15,1.57,1.57,0,0,0-3.15,0,1.24,1.24,0,0,0,.05.3A6.06,6.06,0,0,1,21.81,79.85Z" style="fill: #d2ba82"/>
    <path d="M18.85,81.82l.21-2.45a1.4,1.4,0,0,1,1.26-.75,1.49,1.49,0,0,1,1.19.71l.14,2.49Z" style="fill: #928d9a"/>
    <path d="M26.24,79.85a1.05,1.05,0,0,0,0-.15,1.57,1.57,0,0,0-3.15,0,1.24,1.24,0,0,0,.05.3A6.06,6.06,0,0,1,26.24,79.85Z" style="fill: #d2ba82"/>
    <path d="M23.28,81.82l.21-2.45a1.4,1.4,0,0,1,1.26-.75,1.49,1.49,0,0,1,1.19.71l.14,2.49Z" style="fill: #928d9a"/>
    <path d="M30.66,79.85a1.05,1.05,0,0,0,0-.15,1.57,1.57,0,0,0-3.15,0,1.24,1.24,0,0,0,.05.3A6.06,6.06,0,0,1,30.66,79.85Z" style="fill: #d2ba82"/>
    <path d="M27.71,81.82l.21-2.45a1.4,1.4,0,0,1,1.26-.75,1.49,1.49,0,0,1,1.19.71l.14,2.49Z" style="fill: #928d9a"/>
    <path d="M35.09,79.85a1.05,1.05,0,0,0,0-.15,1.57,1.57,0,0,0-3.15,0A1.24,1.24,0,0,0,32,80,6.06,6.06,0,0,1,35.09,79.85Z" style="fill: #d2ba82"/>
    <path d="M32.14,81.82l.21-2.45a1.4,1.4,0,0,1,1.26-.75,1.49,1.49,0,0,1,1.19.71l.14,2.49Z" style="fill: #928d9a"/>
    <path d="M39.52,79.85a1.05,1.05,0,0,0,0-.15,1.57,1.57,0,0,0-3.15,0,1.24,1.24,0,0,0,.05.3A6.06,6.06,0,0,1,39.52,79.85Z" style="fill: #d2ba82"/>
    <path d="M36.57,81.82l.21-2.45A1.4,1.4,0,0,1,38,78.62a1.49,1.49,0,0,1,1.19.71l.14,2.49Z" style="fill: #928d9a"/>
    <rect height="3.36" style="fill: #928d9a" width="6.25" x="37.56" y="83.16"/>
  </g>
  <g data-name="Layer 7" id="Layer_7">
    <g>
      <path d="M20.11,58.46a.37.37,0,0,1-.24.38l-.47.23a.57.57,0,0,1-.26.07.54.54,0,0,1-.28-.07l-.46-.23a.38.38,0,0,1-.24-.38V58a.12.12,0,0,1,.13-.12.12.12,0,0,1,.13.13v.42c0,.11,0,.13.1.17l.44.22a.39.39,0,0,0,.19.05.36.36,0,0,0,.17-.05l.43-.21c.1,0,.11-.08.11-.19V58a.12.12,0,0,1,.13-.12.12.12,0,0,1,.13.13Z" style="fill: #fff"/>
      <path d="M20.11,56.66a.37.37,0,0,1-.24.38l-.47.23a.57.57,0,0,1-.54,0L18.4,57a.38.38,0,0,1-.24-.39v-.43a.12.12,0,0,1,.13-.12.12.12,0,0,1,.13.13v.42c0,.11,0,.13.1.17L19,57a.39.39,0,0,0,.19.05.35.35,0,0,0,.17-.05l.43-.21c.1,0,.11-.08.11-.19v-.41a.12.12,0,0,1,.13-.12.12.12,0,0,1,.13.13Z" style="fill: #fff"/>
      <path d="M19.86,55.28v-.86a.13.13,0,0,1,.25,0v1.11h-.82a.25.25,0,0,1-.28-.28v-.7h-.6v.86a.13.13,0,0,1-.25,0v-.83a.26.26,0,0,1,.29-.28H19a.26.26,0,0,1,.29.28v.71Z" style="fill: #fff"/>
      <path d="M19,53.53v-.46a.25.25,0,0,1,.07-.2.25.25,0,0,1,.21-.08h.54a.27.27,0,0,1,.2.06.24.24,0,0,1,.08.22v.56a.36.36,0,0,1,0,.16l0,.1c0,.07-.05.14-.14.14a.13.13,0,0,1-.12-.12.18.18,0,0,1,0-.08l0-.08a.42.42,0,0,0,.05-.13V53h-.6v.74h-1.1v-.86a.13.13,0,0,1,.25,0v.61Z" style="fill: #fff"/>
      <path d="M19.22,51.42H18.5a.13.13,0,0,1,0-.25h.72a.13.13,0,0,1,.25,0H20a.13.13,0,0,1,0,.25h-.51v.74H18.29a.13.13,0,1,1,0-.25h.94Z" style="fill: #fff"/>
      <path d="M19.86,49.69h-.51a.13.13,0,1,1,0-.25H20a.12.12,0,0,1,.13.13v1a.12.12,0,1,1-.25,0v-.37H18.41v.37a.13.13,0,0,1-.25,0v-.62h1.7Z" style="fill: #fff"/>
    </g>
    <g>
      <path d="M20.76,59.13V58A.13.13,0,0,1,21,58v.86h.38v-.62a.13.13,0,1,1,.25,0v.62h.94a.13.13,0,1,1,0,.25Z" style="fill: #fff"/>
      <path d="M22.45,57.08v-.86a.13.13,0,0,1,.25,0v1.11h-.82A.25.25,0,0,1,21.6,57v-.7H21v.86a.13.13,0,0,1-.25,0v-.83a.26.26,0,0,1,.29-.28h.51a.26.26,0,0,1,.29.28v.71Z" style="fill: #fff"/>
      <path d="M21.6,55v-.46a.25.25,0,0,1,.07-.2.25.25,0,0,1,.21-.08h.54a.27.27,0,0,1,.2.06.24.24,0,0,1,.08.22v.56a.36.36,0,0,1,0,.16l0,.1c0,.07-.05.14-.14.14a.13.13,0,0,1-.12-.12.18.18,0,0,1,0-.08l0-.08a.42.42,0,0,0,.05-.13v-.58h-.6v.74h-1.1v-.86a.13.13,0,0,1,.25,0V55Z" style="fill: #fff"/>
      <path d="M21.82,53.48v-.83c0-.13.05-.15.17-.15h.56c.12,0,.16,0,.16.16v.91c0,.12,0,.16-.16.16H20.88c-.06,0-.12,0-.12-.11v-.15a.12.12,0,0,1,.13-.12.12.12,0,0,1,.13.13Zm.25,0h.39v-.73h-.39Z" style="fill: #fff"/>
    </g>
    <g>
      <path d="M23.93,58.88H24a.13.13,0,0,1,0,.25h-.34V57.89H24a.13.13,0,1,1,0,.25h-.09v.24H25.5a.13.13,0,1,1,0,.25H23.93Z" style="fill: #fff"/>
      <path d="M25.37,57v-.37a.13.13,0,0,1,.25,0v1a.13.13,0,0,1-.25,0v-.37H23.93v.37a.13.13,0,0,1-.25,0v-1a.13.13,0,0,1,.25,0V57Z" style="fill: #fff"/>
      <path d="M24.53,53.63v-.46a.26.26,0,0,1,.07-.2.25.25,0,0,1,.21-.08h.54a.27.27,0,0,1,.2.06.24.24,0,0,1,.08.22v.56a.37.37,0,0,1,0,.17l0,.09c0,.07-.05.14-.14.14a.13.13,0,0,1-.12-.12.17.17,0,0,1,0-.08l0-.08a.41.41,0,0,0,.05-.13v-.58h-.6v.74h-1.1V53a.13.13,0,0,1,.25,0v.61Z" style="fill: #fff"/>
      <path d="M24.57,51.69v.86a.13.13,0,0,1-.13.13H23.8a.13.13,0,0,1-.12-.12v-1a.13.13,0,0,1,.13-.12h1.7a.12.12,0,0,1,.13.13v.13a.12.12,0,0,1-.12.13.12.12,0,0,1-.12-.12Zm-.25,0h-.39v.74h.39Z" style="fill: #fff"/>
      <path d="M25.37,50.19h-.51a.13.13,0,1,1,0-.25h.63a.12.12,0,0,1,.13.13v1a.12.12,0,1,1-.25,0v-.37H23.93v.37a.13.13,0,0,1-.25,0v-.62h1.7Z" style="fill: #fff"/>
    </g>
    <g>
      <path d="M26.76,58.64c-.07,0-.13,0-.13-.13s.06-.11.13-.13l1.69-.48c.06,0,.13,0,.13.12a.15.15,0,0,1-.12.13l-.3.09v.53l.3.09a.15.15,0,0,1,.13.14c0,.07-.07.14-.12.12Zm.47-.13h0l.68.2v-.39Z" style="fill: #fff"/>
      <path d="M27.48,56.83v-.46a.26.26,0,0,1,.07-.2.25.25,0,0,1,.21-.08h.54a.27.27,0,0,1,.2.06.24.24,0,0,1,.08.22v.55a.37.37,0,0,1,0,.17l0,.09c0,.07-.05.14-.14.14a.13.13,0,0,1-.12-.12.18.18,0,0,1,0-.08l0-.08a.42.42,0,0,0,.05-.13v-.58h-.6v.74h-1.1v-.86a.13.13,0,0,1,.25,0v.61Z" style="fill: #fff"/>
      <path d="M27.69,54.67H27a.12.12,0,0,1,0-.25h.72a.13.13,0,0,1,.25,0h.51a.13.13,0,1,1,0,.25h-.51v.74H26.76a.13.13,0,1,1,0-.25h.94Z" style="fill: #fff"/>
      <path d="M28.45,53.48a.13.13,0,0,1,0,.25H26.63v-.84a.38.38,0,0,1,.36-.4h.17a.36.36,0,0,1,.36.4v.23l.81-.56a.25.25,0,0,1,.13-.06.12.12,0,0,1,.12.13.13.13,0,0,1-.07.11l-1,.69v.06Zm-1.18,0v-.55c0-.07,0-.18-.1-.18H27c-.1,0-.11.1-.11.18v.56Z" style="fill: #fff"/>
      <path d="M27.69,50.93v-.84c0-.12.05-.15.17-.15h.56c.12,0,.16.05.16.16V51c0,.12,0,.16-.16.16H26.76c-.06,0-.12,0-.12-.11v-.15a.12.12,0,0,1,.13-.12.12.12,0,0,1,.13.13Zm.25,0h.39v-.74h-.39Z" style="fill: #fff"/>
      <path d="M27.69,48.52H27a.13.13,0,0,1,0-.25h.72a.13.13,0,0,1,.25,0h.51a.13.13,0,0,1,0,.25h-.51v.74H26.76a.13.13,0,0,1,0-.25h.94Z" style="fill: #fff"/>
    </g>
    <line style="fill: none;stroke: #fff;stroke-miterlimit: 10;stroke-width: 0.5px" x1="29.07" x2="29.07" y1="48.25" y2="50.72"/>
    <g>
      <path d="M11.88,89.56h.67c.1,0,.12,0,.12.13v.45c0,.09,0,.13-.13.13h-.73c-.09,0-.13,0-.13-.13V88.82s0-.1.09-.1h.12a.1.1,0,0,1,.09.1.1.1,0,0,1-.1.1Zm0,.2v.31h.59v-.31Z" style="fill: #fff"/>
      <path d="M13,90.07h.69a.1.1,0,1,1,0,.2h-.89v-.65a.2.2,0,0,1,.23-.23h.56v-.48h-.69a.1.1,0,1,1,0-.2h.66a.21.21,0,0,1,.22.23v.41a.21.21,0,0,1-.22.23H13Z" style="fill: #fff"/>
      <path d="M14.2,90.07h.69a.1.1,0,1,1,0,.2H14v-.65a.2.2,0,0,1,.23-.23h.56v-.48H14.1a.1.1,0,1,1,0-.2h.66a.21.21,0,0,1,.22.23v.41a.21.21,0,0,1-.22.23H14.2Z" style="fill: #fff"/>
      <path d="M15.08,88.82a.09.09,0,0,1,.1-.1c.07,0,.1,0,.1.1v.46l.61-.52a.13.13,0,0,1,.08,0,.1.1,0,0,1,.1.1.12.12,0,0,1,0,.08l-.69.59.69.59a.12.12,0,0,1,0,.09.1.1,0,0,1-.1.1s-.08,0-.11-.06l-.58-.5v.46a.1.1,0,0,1-.2,0Z" style="fill: #fff"/>
    </g>
    <g>
      <path d="M27.36,86h.37a.21.21,0,0,1,.16.06.2.2,0,0,1,.06.17v.43a.21.21,0,0,1,0,.16.19.19,0,0,1-.17.07h-.44a.28.28,0,0,1-.13,0l-.08,0c-.05,0-.11,0-.11-.11a.1.1,0,0,1,.1-.1l.06,0,.06,0a.32.32,0,0,0,.11,0h.46v-.48h-.59v-.88h.69a.1.1,0,1,1,0,.2h-.49Z" style="fill: #fff"/>
      <path d="M29.09,86.2v-.58a.1.1,0,0,1,.2,0v.58a.1.1,0,1,1,0,.2v.41a.1.1,0,0,1-.2,0V86.4H28.5v-.95a.1.1,0,0,1,.2,0v.75Z" style="fill: #fff"/>
    </g>
    <line style="fill: #fff;stroke: #fff;stroke-miterlimit: 10;stroke-width: 0.2px" x1="24.84" x2="24.84" y1="83.8" y2="87.97"/>
    <line style="fill: #fff;stroke: #fff;stroke-miterlimit: 10;stroke-width: 0.2px" x1="25.31" x2="25.31" y1="83.8" y2="87.97"/>
    <line style="fill: #fff;stroke: #fff;stroke-miterlimit: 10;stroke-width: 0.2px" x1="25.78" x2="25.78" y1="83.8" y2="87.97"/>
    <g>
      <path d="M31,92.85v-.3a.07.07,0,1,1,.15,0v.38a.07.07,0,0,1-.07.08h-.59a.07.07,0,1,1,0-.15h.22V92h-.22a.07.07,0,0,1-.07-.08.07.07,0,0,1,.07-.07h.37v1Z" style="fill: #fff"/>
      <path d="M31.91,91.83a.15.15,0,0,1,.15.15v.86a.15.15,0,0,1-.15.15h-.44a.15.15,0,0,1-.15-.15V92a.15.15,0,0,1,.15-.15Zm0,1V92h-.44v.86Z" style="fill: #fff"/>
      <path d="M32.26,92a.07.07,0,0,1-.07-.08.07.07,0,0,1,.07-.07h.51a.15.15,0,0,1,.15.15v.29a.17.17,0,0,1-.06.14.18.18,0,0,1,.06.15v.29a.15.15,0,0,1-.15.15h-.51a.07.07,0,1,1,0-.15h.51V92.6c0-.08,0-.11-.07-.11h-.29a.07.07,0,0,1-.07-.08.07.07,0,0,1,.07-.07h.29s.07,0,.07-.11V92Z" style="fill: #fff"/>
    </g>
    <g>
      <path d="M30.87,97.1h.51a.07.07,0,1,1,0,.15h-.66v-.49a.15.15,0,0,1,.17-.17h.42v-.36h-.51a.07.07,0,0,1-.07-.08.07.07,0,0,1,.07-.07h.5a.15.15,0,0,1,.17.17v.31a.16.16,0,0,1,0,.13.16.16,0,0,1-.12,0h-.42Z" style="fill: #fff"/>
      <path d="M32.15,96.09a.15.15,0,0,1,.15.15v.86a.15.15,0,0,1-.15.15h-.44a.15.15,0,0,1-.15-.15v-.86a.15.15,0,0,1,.15-.15Zm0,1v-.86h-.44v.86Z" style="fill: #fff"/>
      <path d="M32.55,97.1h.51a.07.07,0,1,1,0,.15H32.4v-.49a.15.15,0,0,1,.17-.17H33v-.36h-.51a.07.07,0,0,1-.07-.08.07.07,0,0,1,.07-.07H33a.15.15,0,0,1,.17.17v.31a.16.16,0,0,1,0,.13.16.16,0,0,1-.12,0h-.42Z" style="fill: #fff"/>
    </g>
    <g>
      <path d="M3.87,97.27h.51a.07.07,0,1,1,0,.15H3.72v-.49a.15.15,0,0,1,.17-.17h.42v-.36H3.8a.07.07,0,0,1-.07-.08.07.07,0,0,1,.07-.07h.5a.15.15,0,0,1,.17.17v.31a.16.16,0,0,1,0,.13.16.16,0,0,1-.12,0H3.87Z" style="fill: #fff"/>
      <path d="M4.71,97.27h.51a.07.07,0,1,1,0,.15H4.56v-.49a.15.15,0,0,1,.17-.17h.42v-.36H4.64a.07.07,0,0,1-.07-.08.07.07,0,0,1,.07-.07h.5a.15.15,0,0,1,.17.17v.31a.16.16,0,0,1,0,.13.16.16,0,0,1-.12,0H4.71Z" style="fill: #fff"/>
      <path d="M5.55,97.27h.51a.07.07,0,1,1,0,.15H5.4v-.49a.15.15,0,0,1,.17-.17H6v-.36H5.48a.07.07,0,0,1-.07-.08.07.07,0,0,1,.07-.07H6a.15.15,0,0,1,.17.17v.31a.16.16,0,0,1,0,.13.16.16,0,0,1-.12,0H5.55Z" style="fill: #fff"/>
    </g>
    <g>
      <path d="M32.76,32.1a.07.07,0,0,1-.08.07.07.07,0,0,1-.07-.07v-.52a.15.15,0,0,1,.15-.15H33a.17.17,0,0,1,.14.06.18.18,0,0,1,.15-.06h.29a.15.15,0,0,1,.15.15v.52a.07.07,0,0,1-.15,0v-.52h-.25c-.08,0-.11,0-.11.08V32a.07.07,0,0,1-.08.07.07.07,0,0,1-.07-.07v-.29s0-.08-.11-.08h-.25Z" style="fill: #fff"/>
      <path d="M33.62,31.22V30.7a.07.07,0,0,1,.15,0v.66h-.49a.15.15,0,0,1-.17-.17v-.42h-.36v.51a.07.07,0,0,1-.08.07.07.07,0,0,1-.07-.07v-.5a.16.16,0,0,1,.17-.17h.31a.15.15,0,0,1,.13,0,.16.16,0,0,1,0,.12v.42Z" style="fill: #fff"/>
      <path d="M33.58,30.18s0,.06,0,.08a.09.09,0,0,1-.07,0H33.4a.09.09,0,0,1-.07,0s0,0,0-.08v-.11s0-.06,0-.08a.1.1,0,0,1,.07,0h.08a.1.1,0,0,1,.07,0s0,0,0,.08Z" style="fill: #fff"/>
    </g>
    <g>
      <path d="M34.18,30.15V30h1.09a.08.08,0,0,1,0,.15h-.88l.21.14h0s.09,0,.09.08,0,.08-.09.08h0l-.21.14h.88a.07.07,0,1,1,0,.15H34.18v-.19l.26-.18Z" style="fill: #fff"/>
      <path d="M34.83,29.48h.43a.07.07,0,1,1,0,.15h-1s-.07,0-.07-.08a.06.06,0,0,1,.07-.07h.43V29h-.43s-.07,0-.07-.08,0-.08.07-.08h1a.08.08,0,0,1,0,.15h-.43Z" style="fill: #fff"/>
      <path d="M34.27,27.81l.92.54v-.46a.07.07,0,1,1,.15,0v.66h-.09L34.33,28v.46a.07.07,0,0,1-.08.08.07.07,0,0,1-.07-.08v-.66Z" style="fill: #fff"/>
    </g>
    <g>
      <path d="M33.66,27.35v-.06s0-.09.08-.09.07,0,.07.09v.25a.23.23,0,0,1-.15.23l-.26.13a.35.35,0,0,1-.17,0,.36.36,0,0,1-.16,0l-.27-.14a.22.22,0,0,1-.14-.24v-.25a.07.07,0,0,1,.15,0v.07Zm-.86.15v0c0,.06,0,.08.06.1l.27.13a.21.21,0,0,0,.1,0,.26.26,0,0,0,.12,0l.25-.12c.06,0,.06,0,.06-.11v0Z" style="fill: #fff"/>
      <path d="M33.39,28.68a.34.34,0,0,1-.17,0,.37.37,0,0,1-.18,0l-.28-.14a.2.2,0,0,1,0-.37L33,28a.37.37,0,0,1,.18,0,.33.33,0,0,1,.17,0l.3.15a.19.19,0,0,1,0,.36Zm.23-.28s0,0,0-.05,0,0,0-.05l-.27-.13a.23.23,0,0,0-.12,0,.2.2,0,0,0-.1,0l-.28.14s0,0,0,.05,0,0,0,.05l.28.14a.2.2,0,0,0,.1,0,.23.23,0,0,0,.12,0Z" style="fill: #fff"/>
      <path d="M33,29.35a.07.07,0,1,1,.15,0v.29h-.29a.22.22,0,0,1-.23-.24v-.26A.23.23,0,0,1,32.7,29a.21.21,0,0,1,.18-.07h.37a.3.3,0,0,1,.22.08l.23.18a.23.23,0,0,1,.1.21v.2a.07.07,0,0,1-.15,0v-.18c0-.08,0-.08-.06-.13l-.21-.16a.29.29,0,0,0-.19,0H32.9c-.08,0-.11,0-.11.1v.24c0,.05,0,.1.08.1H33Z" style="fill: #fff"/>
    </g>
  </g>
  <g data-name="Layer 9" id="Layer_9">
    <polygon points="14.26 101.93 15.69 103.46 15.69 107.7 14.26 109.13 10.03 109.13 8.49 107.7 8.49 103.46 10.03 101.93 14.26 101.93" style="fill: #323232"/>
    <rect height="17.37" style="fill: #b0acb0" width="2.27" x="11.07" y="105.53"/>
    <polygon points="21.46 101.93 22.89 103.46 22.89 107.7 21.46 109.13 17.23 109.13 15.69 107.7 15.69 103.46 17.23 101.93 21.46 101.93" style="fill: #323232"/>
    <rect height="17.37" style="fill: #b0acb0" width="2.27" x="18.27" y="105.53"/>
    <polygon points="7.06 101.93 8.49 103.46 8.49 107.7 7.06 109.13 2.83 109.13 1.29 107.7 1.29 103.46 2.83 101.93 7.06 101.93" style="fill: #323232"/>
    <rect height="17.37" style="fill: #b0acb0" width="2.27" x="3.87" y="105.53"/>
    <polygon points="35.85 101.93 37.28 103.46 37.28 107.7 35.85 109.13 31.63 109.13 30.09 107.7 30.09 103.46 31.63 101.93 35.85 101.93" style="fill: #323232"/>
    <rect height="17.37" style="fill: #b0acb0" width="2.27" x="32.67" y="105.53"/>
    <polygon points="43.05 101.93 44.48 103.46 44.48 107.7 43.05 109.13 38.83 109.13 37.28 107.7 37.28 103.46 38.83 101.93 43.05 101.93" style="fill: #323232"/>
    <rect height="17.37" style="fill: #b0acb0" width="2.27" x="39.86" y="105.53"/>
    <polygon points="28.66 101.93 30.09 103.46 30.09 107.7 28.66 109.13 24.43 109.13 22.89 107.7 22.89 103.46 24.43 101.93 28.66 101.93" style="fill: #323232"/>
    <rect height="17.37" style="fill: #b0acb0" width="2.27" x="25.47" y="105.53"/>
  </g>
  <g id="Connectors">
    <rect data-cir-type="male" height="1.13" id="circuitoCon_RX" style="fill: none" width="1.13" x="11.64" y="121.65"/>
    <rect data-cir-type="male" height="1.13" id="circuitoCon_TX" style="fill: none" width="1.13" x="18.84" y="121.65"/>
    <rect data-cir-type="male" height="1.13" id="circuitoCon_STATE" style="fill: none" width="1.13" x="4.44" y="121.65"/>
    <rect data-cir-type="male" height="1.13" id="circuitoCon_VCC" style="fill: none" width="1.13" x="33.24" y="121.65"/>
    <rect data-cir-type="male" height="1.13" id="circuitoCon_BRK" style="fill: none" width="1.13" x="40.43" y="121.65"/>
    <rect data-cir-type="male" height="1.13" id="circuitoCon_GND" style="fill: none" width="1.13" x="26.04" y="121.65"/>
  </g>
</svg>