<?xml version="1.0" ?><svg height="8.36mm" viewBox="0 0 20.6 23.69" width="7.27mm" xmlns="http://www.w3.org/2000/svg" xmlns:xlink="http://www.w3.org/1999/xlink">
  <defs>
    <linearGradient gradientTransform="matrix(1, 0, 0, -1, 0, 3.67)" gradientUnits="userSpaceOnUse" id="linear-gradient" x1="16.45" x2="18.61" y1="0.3" y2="0.3">
      <stop offset="0.01" stop-color="#fbc926"/>
      <stop offset="0.25" stop-color="#fffbcc"/>
      <stop offset="0.3" stop-color="#f8f0bb"/>
      <stop offset="0.41" stop-color="#e7d28e"/>
      <stop offset="0.55" stop-color="#cca246"/>
      <stop offset="0.6" stop-color="#c3922e"/>
      <stop offset="0.87" stop-color="#eed688"/>
      <stop offset="1" stop-color="#fffbcc"/>
    </linearGradient>
    <linearGradient id="linear-gradient-2" x1="2.14" x2="4.3" xlink:href="#linear-gradient" y1="0.3" y2="0.3"/>
    <linearGradient id="linear-gradient-3" x1="2.14" x2="4.3" xlink:href="#linear-gradient" y1="-16.6" y2="-16.6"/>
    <linearGradient id="linear-gradient-4" x1="16.58" x2="18.65" xlink:href="#linear-gradient" y1="-16.6" y2="-16.6"/>
    <linearGradient gradientTransform="matrix(1, 0, 0, 1, 0, 0)" id="linear-gradient-5" x1="9.46" x2="11.62" xlink:href="#linear-gradient" y1="1.14" y2="1.14"/>
    <radialGradient cx="10.3" cy="-8.32" gradientTransform="matrix(1, 0, 0, -1, 0, 3.67)" gradientUnits="userSpaceOnUse" id="radial-gradient" r="10.3">
      <stop offset="0" stop-color="#fff"/>
      <stop offset="0" stop-color="#f9f9f9"/>
      <stop offset="0.06" stop-color="#eaeaea"/>
      <stop offset="0.18" stop-color="#c4c4c4"/>
      <stop offset="0.26" stop-color="#a7a7a7"/>
      <stop offset="0.52" stop-color="#fff"/>
      <stop offset="0.58" stop-color="#fff"/>
      <stop offset="0.7" stop-color="#ddd"/>
      <stop offset="0.86" stop-color="#a1a1a1"/>
      <stop offset="0.88" stop-color="#9c9c9c"/>
      <stop offset="1" stop-color="#f1f1f1"/>
      <stop offset="1" stop-color="#c7c7c7"/>
    </radialGradient>
    <radialGradient cx="10.32" cy="-8.32" gradientTransform="matrix(1, 0, 0, -1, 0, 3.67)" gradientUnits="userSpaceOnUse" id="radial-gradient-2" r="8.63">
      <stop offset="0" stop-color="#fff"/>
      <stop offset="0.19" stop-color="#fff"/>
      <stop offset="0.56" stop-color="#e8e8e8"/>
      <stop offset="0.79" stop-color="#cdcdcd"/>
      <stop offset="0.85" stop-color="#c4c4c4"/>
      <stop offset="1" stop-color="#6c6c6c"/>
    </radialGradient>
    <radialGradient cx="10.32" cy="-8.32" gradientTransform="matrix(1, 0, 0, -1, 0, 3.67)" gradientUnits="userSpaceOnUse" id="radial-gradient-3" r="6.91">
      <stop offset="0" stop-color="#fff"/>
      <stop offset="0.06" stop-color="#fff"/>
      <stop offset="0.19" stop-color="#eaeaea"/>
      <stop offset="0.36" stop-color="#aeaeae"/>
      <stop offset="0.52" stop-color="#6c6c6c"/>
      <stop offset="0.58" stop-color="gray"/>
      <stop offset="0.73" stop-color="#adadad"/>
      <stop offset="0.8" stop-color="#bebebe"/>
      <stop offset="0.81" stop-color="#c2c2c2"/>
      <stop offset="0.83" stop-color="#cdcdcd"/>
      <stop offset="0.86" stop-color="#c3c3c3"/>
      <stop offset="0.91" stop-color="#ababab"/>
      <stop offset="0.97" stop-color="#838383"/>
      <stop offset="1" stop-color="#6c6c6c"/>
    </radialGradient>
    <linearGradient gradientTransform="matrix(1, 0, 0, -1, 0, 3.67)" gradientUnits="userSpaceOnUse" id="linear-gradient-6" x1="12.28" x2="8.37" y1="-11.7" y2="-4.93">
      <stop offset="0" stop-color="#090054"/>
      <stop offset="0.52" stop-color="#160066"/>
      <stop offset="1" stop-color="#4900ae"/>
    </linearGradient>
  </defs>
  <title>Infrared Thermometer - MLX90614</title>
  <g data-name="Layer 1" id="Layer_1">
    <g data-name="Layer 2" id="Layer_2">
      <g data-name="Layer 3" id="Layer_3">
        <path d="M18.69,0V6.2c-.1.33-.3.55-.6.55h-1a.68.68,0,0,1-.6-.66V0Z" style="fill: url(#linear-gradient)"/>
        <path d="M4.3,0V6.2a.58.58,0,0,1-.6.55h-1a.68.68,0,0,1-.6-.66V0Z" style="fill: url(#linear-gradient-2)"/>
        <path d="M2.1,23.69V17.51a.68.68,0,0,1,.6-.66h1a.68.68,0,0,1,.6.66v6.18Z" style="fill: url(#linear-gradient-3)"/>
        <path d="M16.6,23.69V17.51a.68.68,0,0,1,.6-.66h1a.52.52,0,0,1,.49.66v6.18Z" style="fill: url(#linear-gradient-4)"/>
      </g>
      <rect height="1.65" style="fill: url(#linear-gradient-5)" width="2.2" x="9.41" y="0.31"/>
      <circle cx="10.3" cy="11.95" r="10.3" style="fill: url(#radial-gradient)"/>
      <circle cx="10.3" cy="11.95" r="8.6" style="fill: url(#radial-gradient-2)"/>
      <circle cx="10.3" cy="11.95" r="6.9" style="fill: url(#radial-gradient-3)"/>
      <circle cx="10.3" cy="11.95" r="3.9" style="fill: url(#linear-gradient-6)"/>
    </g>
  </g>
  <g id="Connectors">
    <rect data-cir-type="male" height="1.65" id="circuitoCon_SCL" style="fill: none" width="2.2" x="2.1"/>
    <rect data-cir-type="male" height="1.65" id="circuitoCon_GND" style="fill: none" width="2.2" x="16.49"/>
    <rect data-cir-type="male" height="1.65" id="circuitoCon_VCC" style="fill: none" width="2.2" x="16.6" y="22.04"/>
    <rect data-cir-type="male" height="1.65" id="circuitoCon_SDA" style="fill: none" width="2.2" x="2.1" y="22.04"/>
  </g>
</svg>