<?xml version="1.0" ?><svg height="16.14mm" viewBox="0 0 35.44 45.76" width="12.5mm" xmlns="http://www.w3.org/2000/svg" xmlns:xlink="http://www.w3.org/1999/xlink">
  <defs>
    <linearGradient gradientTransform="translate(49.77 -41.94) rotate(180)" gradientUnits="userSpaceOnUse" id="Lead" x1="14.94" x2="48.89" y1="-75.97" y2="-75.97">
      <stop offset="0.01" stop-color="#c5c6c8"/>
      <stop offset="0.36" stop-color="#939598"/>
      <stop offset="0.58" stop-color="#a2a4a7"/>
      <stop offset="0.65" stop-color="#a8aaad"/>
      <stop offset="0.87" stop-color="#aaacaf"/>
      <stop offset="1" stop-color="#a8aaad"/>
      <stop offset="1" stop-color="#d2d3d4"/>
    </linearGradient>
    <linearGradient data-name="Lead" gradientTransform="matrix(-1, 0, 0, 1, 49.77, 57.26)" id="Lead-2" x1="15.23" x2="49.18" xlink:href="#Lead" y1="-43.99" y2="-43.99"/>
    <radialGradient cx="31.89" cy="-65.18" data-name="Tin Radial" gradientTransform="translate(49.77 -41.94) rotate(180)" gradientUnits="userSpaceOnUse" id="Tin_Radial" r="10.5">
      <stop offset="0.01" stop-color="#c5c6c8"/>
      <stop offset="0.3" stop-color="#bdbec0"/>
      <stop offset="0.66" stop-color="#a8aaad"/>
      <stop offset="1" stop-color="#9b9da0"/>
    </radialGradient>
    <radialGradient cx="31.83" cy="-65.3" gradientTransform="translate(49.77 -41.94) rotate(180)" gradientUnits="userSpaceOnUse" id="radial-gradient" r="8.44">
      <stop offset="0" stop-color="#e5e2df"/>
      <stop offset="0" stop-color="#dedad6"/>
      <stop offset="0.06" stop-color="#cfcbc9"/>
      <stop offset="0.19" stop-color="#a8a4a7"/>
      <stop offset="0.26" stop-color="#8c888e"/>
      <stop offset="0.52" stop-color="#f3f4f4"/>
      <stop offset="0.58" stop-color="#e5e5e6"/>
      <stop offset="0.7" stop-color="#c0bec0"/>
      <stop offset="0.87" stop-color="#858084"/>
      <stop offset="0.88" stop-color="#817c80"/>
      <stop offset="1" stop-color="#d2d3d4"/>
      <stop offset="1" stop-color="#a8aaad"/>
    </radialGradient>
    <radialGradient cx="31.64" cy="-65.24" data-name="Steel Radial" gradientTransform="translate(49.77 -41.94) rotate(180)" gradientUnits="userSpaceOnUse" id="Steel_Radial" r="6.63">
      <stop offset="0" stop-color="#e5e2df"/>
      <stop offset="0" stop-color="#f1efee"/>
      <stop offset="0" stop-color="#fff"/>
      <stop offset="0.13" stop-color="#f0f0f1"/>
      <stop offset="0.37" stop-color="#c9cacb"/>
      <stop offset="0.52" stop-color="#aeafb1"/>
      <stop offset="0.6" stop-color="#a4a6a8"/>
      <stop offset="0.74" stop-color="#8a8e91"/>
      <stop offset="0.91" stop-color="#60686a"/>
      <stop offset="1" stop-color="#475154"/>
    </radialGradient>
  </defs>
  <title>RotaryEncoder</title>
  <g data-name="Layer 1" id="Layer_1">
    <g>
      <rect height="5" rx="0.68" ry="0.68" style="fill: #c8ab77" transform="translate(49.42 85.97) rotate(180)" width="4.35" x="22.53" y="40.49"/>
      <rect height="5.48" rx="0.46" ry="0.46" style="fill: #c59357" transform="translate(49.42 86.03) rotate(180)" width="1.23" x="24.09" y="40.28"/>
    </g>
    <g>
      <rect height="5" rx="0.68" ry="0.68" style="fill: #c8ab77" transform="translate(35.33 85.97) rotate(180)" width="4.35" x="15.49" y="40.49"/>
      <rect height="5.48" rx="0.46" ry="0.46" style="fill: #c59357" transform="translate(35.33 86.03) rotate(180)" width="1.23" x="17.05" y="40.28"/>
    </g>
    <g>
      <rect height="5" rx="0.68" ry="0.68" style="fill: #c8ab77" transform="translate(21.17 85.97) rotate(180)" width="4.35" x="8.41" y="40.49"/>
      <rect height="5.48" rx="0.46" ry="0.46" style="fill: #c59357" transform="translate(21.17 86.03) rotate(180)" width="1.23" x="9.97" y="40.28"/>
    </g>
    <g>
      <rect height="8.28" rx="0.87" ry="0.87" style="fill: #c8ab77" transform="translate(21.17 8.97) rotate(180)" width="4.35" x="8.41" y="0.34"/>
      <rect height="9.07" rx="0.59" ry="0.59" style="fill: #c59357" transform="translate(21.17 9.07) rotate(180)" width="1.23" x="9.97"/>
    </g>
    <g>
      <rect height="8.28" rx="0.87" ry="0.87" style="fill: #c8ab77" transform="translate(49.04 8.97) rotate(180)" width="4.35" x="22.34" y="0.34"/>
      <rect height="9.07" rx="0.59" ry="0.59" style="fill: #c59357" transform="translate(49.04 9.07) rotate(180)" width="1.23" x="23.91"/>
    </g>
    <rect height="11.25" rx="1.56" ry="1.56" style="fill: #fdfefc" transform="translate(35.44 47.72) rotate(180)" width="35.44" y="18.24"/>
    <rect height="34.88" rx="3.25" ry="3.25" style="fill: #8b8072" transform="translate(35.81 47.72) rotate(180)" width="34.06" x="0.88" y="6.42"/>
    <g>
      <rect height="25.38" style="fill: #957e6f" transform="translate(35.86 48.1) rotate(180)" width="31.19" x="2.34" y="11.36"/>
      <g>
        <path d="M34.16,36.24l-.77,1.12c.33,2.4-.28,3.65-2.14,3.38L4.54,41c-2,.17-1.93-1.57-2-4-.92-.29-1.53-.09-1.38-1L.88,27.42h6C10.73,37.8,24.42,38.8,30,27.42c.17-.32.56-.36,1-.31h3.85v9.15Z" style="fill: url(#Lead)"/>
        <path d="M33.87,11.07,33.1,10c.33-2.41-.28-3.66-2.14-3.38L4.25,6.34c-2-.17-1.93,1.56-2,4-.92.29-1.53.08-1.38,1L.59,19.88h6c3.9-10.37,17.59-11.37,23.11,0,.17.33.56.37,1,.32h3.85V11.05Z" style="fill: url(#Lead-2)"/>
      </g>
    </g>
    <g>
      <circle cx="17.88" cy="23.24" r="10.5" style="fill: url(#Tin_Radial)"/>
      <circle cx="17.94" cy="23.36" r="8.44" style="fill: url(#radial-gradient)"/>
      <path d="M11.5,23.3a6.63,6.63,0,1,1,12.19,3.6.61.61,0,0,0-.07.1A6.63,6.63,0,0,1,11.5,23.3Z" style="fill: url(#Steel_Radial)"/>
    </g>
    <line style="fill: none;stroke: #a9a095;stroke-linecap: round;stroke-miterlimit: 10" x1="23.16" x2="11.97" y1="26.8" y2="22.99"/>
  </g>
  <g id="Connectors">
    <rect data-cir-type="male" height="2.39" id="circuitoCon_A" style="fill: none" width="2.39" x="9.32" y="43.2"/>
    <rect data-cir-type="male" height="2.39" id="circuitoCon_GND" style="fill: none" width="2.39" x="16.52" y="43.2"/>
    <rect data-cir-type="male" height="2.39" id="circuitoCon_B" style="fill: none" width="2.39" x="23.72" y="43.2"/>
    <rect data-cir-type="male" height="2.39" id="circuitoCon_SW" style="fill: none" width="2.39" x="9.27" y="0.34"/>
    <rect data-cir-type="male" height="2.39" id="circuitoCon_GND2" style="fill: none" width="2.39" x="23.67" y="0.34"/>
  </g>
</svg>