<?xml version="1.0" ?><svg height="13.81mm" viewBox="0 0 39.16 39.16" width="13.81mm" xmlns="http://www.w3.org/2000/svg">
  <title>Flora NeoPixel</title>
  <g id="HPOLR">
    <path d="M35.27,29.82a1,1,0,0,1,1.51-1.05A19.38,19.38,0,0,0,37,11a1,1,0,0,1-.75.34,1,1,0,0,1-1-1,1,1,0,0,1,.83-1c-.08-.13-.15-.26-.23-.38a1,1,0,0,1-.79.4,1,1,0,0,1-.36-2c-.16-.19-.34-.37-.5-.56a1,1,0,0,1-.85.49,1,1,0,0,1-.52-1.88c-.16-.15-.31-.29-.48-.43A1,1,0,1,1,30.7,3.74l-.49-.34a1,1,0,1,1-1.73-1A19.39,19.39,0,0,0,24.79,1C24.45,4.5,21.9,7.2,19.25,7.67,16.55,7.2,14.37,4.45,14,1a19.94,19.94,0,0,0-3,1.21.9.9,0,0,1,.2.43,1,1,0,0,1-.85,1.17,1,1,0,0,1-1.09-.63c-.17.11-.35.2-.51.31a1.08,1.08,0,0,1,.4.66,1,1,0,0,1-.85,1.17,1,1,0,0,1-1.1-.67l-.41.37a1,1,0,0,1,.43.67,1,1,0,0,1-1.86.72c-.18.19-.36.38-.53.58a1,1,0,0,1,.52.72,1,1,0,0,1-1.73.85L3.33,9a1,1,0,0,1,.47.7A1,1,0,0,1,3,10.83a1,1,0,0,1-.65-.13A19.39,19.39,0,0,0,1,13.88c3.55.33,6.26,2.88,6.73,5.54-.48,2.75-3.32,5-6.82,5.29a13.4,13.4,0,0,1-.52-1.88A19.51,19.51,0,0,0,2.2,28.45a1,1,0,0,1,.9,1.6c.11.17.2.35.31.51a1.7,1.7,0,0,1,.24-.09,1,1,0,0,1,1.18.82,1,1,0,0,1-.24.84l.33.36a1,1,0,0,1,.3-.12,1,1,0,0,1,1.19.82,1.06,1.06,0,0,1-.14.7c.19.17.38.35.57.51a1.13,1.13,0,0,1,.43-.2A1,1,0,0,1,8.46,35a1,1,0,0,1-.09.58c.14.1.26.2.4.29a1.14,1.14,0,0,1,.44-.22,1,1,0,0,1,1.19.83,1.09,1.09,0,0,1,0,.36,19.36,19.36,0,0,0,17.7.31,1,1,0,0,1-.13-.33,1,1,0,0,1,1.9-.65l.48-.29a1,1,0,0,1-.34-.58,1,1,0,0,1,.84-1.18,1,1,0,0,1,1.08.59l.38-.34a1,1,0,0,1-.38-.62A1,1,0,0,1,33.74,33c.18-.19.35-.37.52-.57a1,1,0,0,1-.48-.69,1,1,0,0,1,.83-1.18,1,1,0,0,1,.88.3c.09-.12.18-.23.26-.35A1,1,0,0,1,35.27,29.82ZM13.89,38.24c.18-3.6,2.68-6.42,5.34-7,2.77.4,5.08,3.17,5.5,6.66C21.49,39.22,17.82,39.14,13.89,38.24Zm17-11.68a1,1,0,1,1,1-1A1,1,0,0,1,30.9,26.56Zm.15-7.4c.48-2.76,3.32-5,6.82-5.3,1.21,3.28,1,7,0,10.85C34.27,24.42,31.53,21.83,31.05,19.16Z"/>
  </g>
  <g data-name="Layer 2" id="Layer_2">
    <path d="M19.58,0A19.58,19.58,0,1,0,39.16,19.58,19.58,19.58,0,0,0,19.58,0ZM4,21.51c-2.86,0-2.85-4.44,0-4.44S6.8,21.51,4,21.51ZM19.26,37.26c-2.86,0-2.85-4.44,0-4.44S22.11,37.26,19.26,37.26Zm.12-31.13c-2.85,0-2.85-4.43,0-4.43S22.23,6.13,19.38,6.13Zm15.5,15.31C32,21.44,32,17,34.88,17S37.73,21.44,34.88,21.44Z"/>
    <path d="M4.15,12.78V11.66a.35.35,0,0,1,.1-.26.45.45,0,0,1,.27-.1.37.37,0,0,1,.25.1.36.36,0,0,1,.11.26v1.12H6a.33.33,0,0,1,.26.11.31.31,0,0,1,.11.25.31.31,0,0,1-.11.26.36.36,0,0,1-.26.11H4.89v1.12a.36.36,0,0,1-.12.27.36.36,0,0,1-.52,0,.38.38,0,0,1-.1-.27V13.51H3a.36.36,0,0,1-.25-.11.35.35,0,0,1-.11-.26A.38.38,0,0,1,3,12.78Z" style="fill: #fff"/>
    <g>
      <line style="fill: none;stroke: #fff;stroke-linecap: round;stroke-linejoin: round;stroke-width: 0.5363843215988595px" x1="19.2" x2="19.2" y1="30.53" y2="28.08"/>
      <path d="M17.93,29" style="fill: none;stroke: #fff;stroke-linecap: round;stroke-linejoin: round;stroke-width: 0.5363843215988595px"/>
      <polyline points="20.44 29.05 19.2 30.74 17.85 29.05" style="fill: none;stroke: #fff;stroke-linecap: round;stroke-linejoin: round;stroke-width: 0.5363843215988595px"/>
    </g>
    <polyline points="28.45 20.06 31.05 22.7 31.05 24.2" style="fill: none;stroke: #1c1c1c;stroke-linecap: round;stroke-linejoin: round;stroke-width: 0.75px"/>
    <circle cx="30.9" cy="25.57" r="1.15" style="fill: none;stroke: #1c1c1c;stroke-linecap: round;stroke-linejoin: round;stroke-width: 0.75px"/>
    <polyline points="28.45 14.26 29.75 14.26 32.73 17.24" style="fill: none;stroke: #1c1c1c;stroke-linecap: round;stroke-linejoin: round;stroke-width: 0.75px"/>
    <line style="fill: none;stroke: #1c1c1c;stroke-linecap: round;stroke-linejoin: round;stroke-width: 0.75px" x1="26.83" x2="30.9" y1="14.26" y2="10.17"/>
    <polyline points="20.47 9.89 22.69 7.67 24.51 7.67" style="fill: none;stroke: #1c1c1c;stroke-linecap: round;stroke-linejoin: round;stroke-width: 0.75px"/>
    <polyline points="13.96 8.16 16.49 8.16 17.77 9.45" style="fill: none;stroke: #1c1c1c;stroke-linecap: round;stroke-linejoin: round;stroke-width: 0.75px"/>
    <polyline points="10.57 13.86 9.12 13.86 7.93 15.05 7.93 28.45" style="fill: none;stroke: #1c1c1c;stroke-linecap: round;stroke-linejoin: round;stroke-width: 0.75px"/>
    <polyline points="14.33 31.79 15.6 31.79 17.19 33.37" style="fill: none;stroke: #1c1c1c;stroke-linecap: round;stroke-linejoin: round;stroke-width: 0.75px"/>
    <polyline points="19.72 26.56 23.06 30.43 25.54 30.43" style="fill: none;stroke: #1c1c1c;stroke-linecap: round;stroke-linejoin: round;stroke-width: 0.75px"/>
    <g>
      <g>
        <path d="M26.33,28.59v2.84a1.16,1.16,0,0,1-2.31,0V28.59a1.16,1.16,0,0,1,2.31,0Z" style="fill: #bcbcbc"/>
        <path d="M32.48,28.59v2.84a1.16,1.16,0,0,1-2.31,0V28.59a1.16,1.16,0,0,1,2.31,0Z" style="fill: #bcbcbc"/>
        <rect height="6.15" rx="0.58" ry="0.58" style="fill: #e2e2e2" transform="translate(-1.75 58.26) rotate(-90)" width="3.12" x="26.69" y="26.93"/>
        <rect height="2.88" transform="translate(-1.82 58.2) rotate(-90)" width="3.12" x="26.63" y="28.57"/>
      </g>
      <g>
        <path d="M29.38,29.74h-.14v.54h.17s0,0,0,0,0,0,0,0a.05.05,0,0,1,0,0h-.22v-.63h-.1v.19a0,0,0,0,1,0,0H29s0,0,0,0v-.24s0,0,0,0h.43s0,0,0,0a0,0,0,0,1,0,0Z" style="fill: #fff"/>
        <path d="M28.75,29.74v.54a.14.14,0,0,1,0,.06.09.09,0,0,1-.07,0h-.28a.11.11,0,0,1-.09-.09v-.54a.09.09,0,0,1,0-.07l.06,0h.28l.07,0A.14.14,0,0,1,28.75,29.74Zm-.37,0v.54h.28v-.54Z" style="fill: #fff"/>
        <path d="M28.08,29.74v.54a.14.14,0,0,1,0,.06.09.09,0,0,1-.07,0h-.28a.11.11,0,0,1-.09-.09v-.54a.09.09,0,0,1,0-.07l.06,0H28l.07,0A.14.14,0,0,1,28.08,29.74Zm-.37,0v.54H28v-.54Z" style="fill: #fff"/>
        <path d="M27.37,29.74h-.14v.54h.17a0,0,0,0,1,0,.06l0,0h-.23v-.63h-.09v.19s0,0,0,0H27a0,0,0,0,1,0,0v-.24a0,0,0,0,1,0,0h.43s0,0,0,0a0,0,0,0,1,0,0Z" style="fill: #fff"/>
      </g>
    </g>
    <g>
      <g>
        <path d="M9.12,28.59v2.84a1.16,1.16,0,0,1-2.31,0V28.59a1.16,1.16,0,0,1,2.31,0Z" style="fill: #bcbcbc"/>
        <path d="M15.27,28.59v2.84a1.15,1.15,0,0,1-2.3,0V28.59a1.15,1.15,0,0,1,2.3,0Z" style="fill: #bcbcbc"/>
        <rect height="6.15" rx="0.58" ry="0.58" style="fill: #e2e2e2" transform="translate(-18.96 41.05) rotate(-90)" width="3.12" x="9.48" y="26.93"/>
        <rect height="2.88" transform="translate(-19.02 40.99) rotate(-90)" width="3.12" x="9.42" y="28.57"/>
      </g>
      <g>
        <path d="M10.35,30.43H9.86v-.37A.1.1,0,0,1,10,30h.33v-.26H9.91l0,0a0,0,0,0,1,0,0s0,0,0,0l0,0h.39a.09.09,0,0,1,.07,0,.11.11,0,0,1,0,.08V30a.11.11,0,0,1,0,.08.09.09,0,0,1-.07,0H10v.26h.38l0,0s0,0,0,0a0,0,0,0,1,0,0Z" style="fill: #fff"/>
        <path d="M11.14,30.43h-.49v-.37a.11.11,0,0,1,0-.08.13.13,0,0,1,.08,0h.33v-.26H10.7l0,0a0,0,0,0,1,0,0s0,0,0,0l0,0h.39a.09.09,0,0,1,.07,0,.12.12,0,0,1,0,.08V30a.12.12,0,0,1,0,.08.09.09,0,0,1-.07,0h-.33v.26h.38l0,0a.05.05,0,0,1,0,0s0,0,0,0Z" style="fill: #fff"/>
        <path d="M11.44,30.33v-.65a.11.11,0,0,1,0-.07.11.11,0,0,1,.08,0h.33a.09.09,0,0,1,.07,0,.11.11,0,0,1,0,.07v.65a.11.11,0,0,1,0,.07.09.09,0,0,1-.07,0h-.33a.11.11,0,0,1-.08,0A.11.11,0,0,1,11.44,30.33Zm.44,0v-.63h-.33v.63Z" style="fill: #fff"/>
      </g>
    </g>
    <g>
      <g>
        <path d="M9.12,7V9.84a1.16,1.16,0,1,1-2.31,0V7A1.16,1.16,0,1,1,9.12,7Z" style="fill: #bcbcbc"/>
        <path d="M15.27,7V9.84a1.15,1.15,0,1,1-2.3,0V7a1.15,1.15,0,1,1,2.3,0Z" style="fill: #bcbcbc"/>
        <rect height="6.15" rx="0.58" ry="0.58" style="fill: #e2e2e2" transform="translate(2.62 19.47) rotate(-90)" width="3.12" x="9.48" y="5.35"/>
        <rect height="2.88" transform="translate(2.56 19.41) rotate(-90)" width="3.12" x="9.42" y="6.98"/>
      </g>
      <g>
        <path d="M10.35,8.85H9.86V8.48A.1.1,0,0,1,10,8.37h.33V8.11H9.91l0,0s0,0,0,0a.06.06,0,0,1,0,0h.43a.09.09,0,0,1,.07,0,.11.11,0,0,1,0,.08v.26a.09.09,0,0,1,0,.07.08.08,0,0,1-.07,0H10v.26h.38s0,0,0,0,0,0,0,0,0,0,0,0Z" style="fill: #fff"/>
        <path d="M11.14,8.85h-.49V8.48a.11.11,0,0,1,0-.08.13.13,0,0,1,.08,0h.33V8.11H10.7l0,0s0,0,0,0a.06.06,0,0,1,0,0h.43a.09.09,0,0,1,.07,0,.12.12,0,0,1,0,.08v.26a.1.1,0,0,1,0,.07.08.08,0,0,1-.07,0h-.33v.26h.38s0,0,0,0,0,0,0,0a.05.05,0,0,1,0,0Z" style="fill: #fff"/>
        <path d="M11.44,8.74V8.1a.09.09,0,0,1,0-.07.11.11,0,0,1,.08,0h.33a.1.1,0,0,1,.1.1v.64a.11.11,0,0,1,0,.08.09.09,0,0,1-.07,0h-.33a.1.1,0,0,1-.11-.11Zm.44,0V8.11h-.33v.63Z" style="fill: #fff"/>
      </g>
    </g>
    <g>
      <path d="M25.67,7.31v2.84a1.16,1.16,0,0,1-2.31,0V7.31a1.16,1.16,0,0,1,2.31,0Z" style="fill: #bcbcbc"/>
      <path d="M31.82,7.31v2.84a1.16,1.16,0,0,1-2.31,0V7.31a1.16,1.16,0,0,1,2.31,0Z" style="fill: #bcbcbc"/>
      <rect height="6.15" rx="0.58" ry="0.58" style="fill: #e2e2e2" transform="translate(18.86 36.32) rotate(-90)" width="3.12" x="26.03" y="5.65"/>
      <rect height="2.88" style="fill: #b17e5b" transform="translate(18.8 36.26) rotate(-90)" width="3.12" x="25.97" y="7.29"/>
    </g>
    <path d="M1,13.88l-.09,0a19.94,19.94,0,0,0-.52,9A20.36,20.36,0,0,1,.1,19.69,19.5,19.5,0,0,1,1,13.88Z" style="fill: #5b4c39"/>
    <path d="M7.71,19.42C7.24,16.76,4.53,14.21,1,13.88A19.5,19.5,0,0,0,.1,19.69a20.36,20.36,0,0,0,.27,3.14,13.4,13.4,0,0,0,.52,1.88C4.39,24.4,7.23,22.17,7.71,19.42Zm-6.4-4.81A6.41,6.41,0,0,1,7.18,19.4C6.77,21.77,4.32,23.69,1.31,24A15.51,15.51,0,0,1,1.31,14.61Z" style="fill: #5b4c39"/>
    <path d="M1.31,14.61a15.51,15.51,0,0,0,0,9.35c3-.27,5.46-2.19,5.87-4.56A6.41,6.41,0,0,0,1.31,14.61ZM4,21.51c-2.86,0-2.85-4.44,0-4.44S6.8,21.51,4,21.51Z" style="fill: #d9b684"/>
    <path d="M24.79,1a.44.44,0,0,1,0-.1c-3.9-1-7.57-1.21-10.85,0A1.08,1.08,0,0,0,14,1,19.22,19.22,0,0,1,24.79,1Z" style="fill: #5b4c39"/>
    <path d="M19.25,7.67C21.9,7.2,24.45,4.5,24.79,1A19.22,19.22,0,0,0,14,1C14.37,4.45,16.55,7.2,19.25,7.67Zm4.81-6.41a6.42,6.42,0,0,1-4.79,5.88C16.9,6.73,15,4.28,14.71,1.26,17.53.22,20.7.39,24.06,1.26Z" style="fill: #5b4c39"/>
    <path d="M14.71,1.26c.27,3,2.19,5.47,4.56,5.88a6.42,6.42,0,0,0,4.79-5.88C20.7.39,17.53.22,14.71,1.26Zm4.67,4.87c-2.85,0-2.85-4.43,0-4.43S22.23,6.13,19.38,6.13Z" style="fill: #d9b684"/>
    <path d="M37.87,13.86c-3.5.32-6.34,2.54-6.82,5.3.48,2.67,3.22,5.26,6.82,5.55C38.89,20.81,39.08,17.14,37.87,13.86Zm-6.29,5.32c.41-2.38,2.86-4.29,5.88-4.57,1,2.83.87,6,0,9.35A6.41,6.41,0,0,1,31.58,19.18Z" style="fill: #5b4c39"/>
    <path d="M37.46,14.61c-3,.28-5.47,2.19-5.88,4.57A6.41,6.41,0,0,0,37.46,24C38.33,20.6,38.5,17.44,37.46,14.61Zm-2.58,6.83C32,21.44,32,17,34.88,17S37.73,21.44,34.88,21.44Z" style="fill: #d9b684"/>
    <path d="M19.23,31.25c-2.66.57-5.16,3.39-5.34,7,3.93.9,7.6,1,10.84-.33C24.31,34.42,22,31.65,19.23,31.25ZM14.62,37.8a6.41,6.41,0,0,1,4.61-6c2.38.34,4.37,2.73,4.74,5.73C21.18,38.65,18,38.58,14.62,37.8Z" style="fill: #5b4c39"/>
    <path d="M19.23,31.79a6.41,6.41,0,0,0-4.61,6c3.39.78,6.56.85,9.35-.28C23.6,34.52,21.61,32.13,19.23,31.79Zm0,5.47c-2.86,0-2.85-4.44,0-4.44S22.11,37.26,19.26,37.26Z" style="fill: #d9b684"/>
    <line style="fill: #fff;stroke: #fff;stroke-linecap: round;stroke-miterlimit: 10;stroke-width: 0.9921259880065918px" x1="33.55" x2="36.38" y1="25.86" y2="25.86"/>
    <g>
      <line style="fill: none;stroke: #fff;stroke-linecap: round;stroke-linejoin: round;stroke-width: 0.5363843215988595px" x1="19.27" x2="19.27" y1="10.57" y2="8.12"/>
      <path d="M18,9" style="fill: none;stroke: #fff;stroke-linecap: round;stroke-linejoin: round;stroke-width: 0.5363843215988595px"/>
      <polyline points="20.51 9.09 19.27 10.78 17.92 9.09" style="fill: none;stroke: #fff;stroke-linecap: round;stroke-linejoin: round;stroke-width: 0.5363843215988595px"/>
    </g>
  </g>
  <g data-name="Layer 4" id="Layer_4">
    <g data-name="Layer 3" id="Layer_3">
      <rect height="15.12" style="fill: #e8e8ea" transform="translate(-0.4 39.14) rotate(-89.71)" width="15.25" x="11.85" y="12.21"/>
      <rect height="3.4" style="fill: #e8e8ea" transform="translate(12.63 37.03) rotate(-89.08)" width="0.97" x="24.64" y="10.4"/>
      <rect height="0.97" style="fill: #e8e8ea" transform="translate(-0.48 0.55) rotate(-2.26)" width="3.4" x="12.05" y="11.93"/>
      <rect height="2.59" style="fill: #948b81" transform="translate(-0.15 0.17) rotate(-0.35)" width="0.84" x="26.9" y="23.27"/>
      <polygon points="28.9 25.85 26.91 26.36 26.91 25.66 26.89 22.81 28.88 23.26 28.9 25.85" style="fill: #948b81"/>
      <polygon points="28.9 20.84 26.91 21.35 26.91 20.65 26.89 17.8 28.88 18.25 28.9 20.84" style="fill: #948b81"/>
      <polygon points="28.94 16.17 26.85 16.68 26.84 15.99 26.83 13.13 28.92 13.58 28.94 16.17" style="fill: #948b81"/>
      <polygon points="9.82 13.74 11.99 13.22 12 13.92 12.02 16.77 9.83 16.32 9.82 13.74" style="fill: #948b81"/>
      <polygon points="9.82 18.27 11.99 17.75 12 18.45 12.02 21.3 9.83 20.85 9.82 18.27" style="fill: #948b81"/>
      <polygon points="10.01 23.41 12.05 22.9 12.06 23.6 12.07 26.45 10.02 26 10.01 23.41" style="fill: #948b81"/>
      <rect height="15.13" style="fill: none" transform="translate(-0.12 0.12) rotate(-0.35)" width="14.84" x="12.04" y="12.12"/>
      <rect height="3.4" style="fill: #e8e8ea" transform="translate(0.2 25.6) rotate(-88.28)" width="0.97" x="12.81" y="11"/>
      <path d="M19.49,25.81a6.09,6.09,0,1,0-6.13-6v0A6.1,6.1,0,0,0,19.49,25.81ZM19.42,14.6a3.72,3.72,0,1,1-.05,0h.05Z" style="fill: #d5d4d2"/>
      <circle cx="19.45" cy="19.69" r="5.12" style="fill: none"/>
      <path d="M23.36,23a.55.55,0,0,1-.45-.16.64.64,0,0,1-.15-.51v-.83l-.27-.26H20.74l-.67.63.18.26-.06,2.63A5.42,5.42,0,0,0,22,24.1,5.31,5.31,0,0,0,23.36,23Z" style="fill: #9b9c9f"/>
      <path d="M19.14,24.81V22.53l-.34-.26H17.42l-.13-.09a.77.77,0,0,1,0,.52.82.82,0,0,1-.24.32H15.57a5.35,5.35,0,0,0,1.57,1.23A5.64,5.64,0,0,0,19.14,24.81Z" style="fill: #9b9c9f"/>
      <path d="M23.28,16.29a.56.56,0,0,0-.39.13.46.46,0,0,0-.13.2v1.19l-.28.28H20.77l-.67-.6v-2.9a5.26,5.26,0,0,1,1.78.59A5.2,5.2,0,0,1,23.28,16.29Z" style="fill: #9b9c9f"/>
      <path d="M19.07,14.58,19,16.75l-.28.25H17.3a.85.85,0,0,0-.09-.38.6.6,0,0,0-.2-.25h-.15a1.13,1.13,0,0,0-.41-.05H15.6a5.27,5.27,0,0,1,3.47-1.74Z" style="fill: #9b9c9f"/>
      <path d="M14.75,21.73h1.6V17.64H14.76a5.11,5.11,0,0,0-.44,2A5.35,5.35,0,0,0,14.75,21.73Z" style="fill: #9b9c9f"/>
      <path d="M24.28,21.4a4.73,4.73,0,0,0-.45-.71l-.31-.36H19.63a.75.75,0,0,0-.23.32.94.94,0,0,0,0,.7H17.49A2.35,2.35,0,0,1,17.38,18l.11-.11h1.92v.72l.13.18a1,1,0,0,0,.2.15h3.74l.27-.33a5.49,5.49,0,0,0,.51-.78,5.1,5.1,0,0,1,0,3.53Z" style="fill: #9b9c9f"/>
      <rect height="2.26" style="fill: #392f26;stroke: #000;stroke-miterlimit: 10;stroke-width: 0.057080678641796px" transform="translate(-0.12 0.11) rotate(-0.35)" width="2.97" x="16.24" y="18.68"/>
      <rect height="1.13" style="fill: #6a5d54" transform="translate(-0.12 0.11) rotate(-0.35)" width="1.14" x="16.87" y="18.79"/>
      <circle cx="20.77" cy="19.67" r="0.6" style="fill: #c6c2ba"/>
      <rect height="0.7" style="fill: #8d5436;stroke: #000;stroke-miterlimit: 10;stroke-width: 0.057080678641796px" transform="translate(-0.12 0.13) rotate(-0.35)" width="0.62" x="20.47" y="19.3"/>
      <circle cx="20.77" cy="19.67" r="0.18" style="fill: #d1b270"/>
      <circle cx="18.47" cy="20.02" r="0.18" style="fill: #d1b270"/>
      <circle cx="18.47" cy="19.6" r="0.18" style="fill: #d1b270"/>
      <circle cx="18.47" cy="19.2" r="0.18" style="fill: #d1b270"/>
      <circle cx="18.61" cy="18.85" r="0.17" style="fill: #d1b270"/>
      <circle cx="17.38" cy="20.02" r="0.17" style="fill: #d1b270"/>
      <circle cx="17.25" cy="20.48" r="0.17" style="fill: #d1b270"/>
      <circle cx="15.08" cy="20.59" r="0.17" style="fill: #d1b270"/>
      <circle cx="16.53" cy="19.85" r="0.17" style="fill: #d1b270"/>
      <circle cx="16.59" cy="19.27" r="0.17" style="fill: #d1b270"/>
      <circle cx="18.07" cy="16.22" r="0.17" style="fill: #d1b270"/>
      <circle cx="20.43" cy="15.26" r="0.17" style="fill: #d1b270"/>
      <circle cx="21.43" cy="17.05" r="0.17" style="fill: #d1b270"/>
      <circle cx="21.88" cy="17.42" r="0.17" style="fill: #d1b270"/>
      <circle cx="23.6" cy="19.47" r="0.17" style="fill: #d1b270"/>
      <circle cx="23.23" cy="19.75" r="0.17" style="fill: #d1b270"/>
      <circle cx="21.46" cy="22.06" r="0.17" style="fill: #d1b270"/>
      <circle cx="21.04" cy="22.45" r="0.17" style="fill: #d1b270"/>
      <circle cx="18.54" cy="22.7" r="0.17" style="fill: #d1b270"/>
      <circle cx="17.23" cy="23.42" r="0.17" style="fill: #d1b270"/>
      <rect height="0.25" style="fill: #6f676e" transform="translate(-0.12 0.11) rotate(-0.35)" width="0.1" x="18.18" y="19.84"/>
      <rect height="0.26" style="fill: #6f676e" transform="translate(-0.12 0.11) rotate(-0.35)" width="0.1" x="18.17" y="19.48"/>
      <rect height="0.3" style="fill: #6f676e" transform="translate(-0.12 0.11) rotate(-0.35)" width="0.1" x="18.17" y="19.06"/>
      <rect height="0.33" style="fill: #6a5d54" transform="translate(-0.12 0.1) rotate(-0.35)" width="0.25" x="16.37" y="20.28"/>
      <rect height="0.27" style="fill: #6a5d54" transform="translate(-0.12 0.1) rotate(-0.35)" width="0.24" x="16.92" y="19.95"/>
      <rect height="0.28" style="fill: #6a5d54" transform="translate(-0.12 0.11) rotate(-0.35)" width="0.21" x="17.67" y="20.06"/>
      <polyline points="18.49 22.61 17.98 22.03 17.41 20.14" style="fill: none;stroke: #d1b270;stroke-miterlimit: 10;stroke-width: 0.057080678641796px"/>
      <polyline points="17.23 23.37 17.16 21.85 17.28 20.48" style="fill: none;stroke: #d1b270;stroke-miterlimit: 10;stroke-width: 0.057080678641796px"/>
      <polyline points="20.91 22.35 19.4 21.02 18.52 20.05" style="fill: none;stroke: #d1b270;stroke-miterlimit: 10;stroke-width: 0.057080678641796px"/>
      <polyline points="20.68 19.6 19.62 19.66 18.47 19.53" style="fill: none;stroke: #d1b270;stroke-miterlimit: 10;stroke-width: 0.057080678641796px"/>
      <path d="M18.55,19.26" style="fill: none;stroke: #d1b270;stroke-miterlimit: 10;stroke-width: 0.057080678641796px"/>
      <polyline points="18.52 19.2 20.16 17.67 21.34 17.05" style="fill: none;stroke: #d1b270;stroke-miterlimit: 10;stroke-width: 0.057080678641796px"/>
      <line style="fill: none;stroke: #d1b270;stroke-miterlimit: 10;stroke-width: 0.057080678641796px" x1="18.69" x2="20.43" y1="18.84" y2="15.38"/>
      <polyline points="18.07 16.3 17.43 17.85 16.55 19.27" style="fill: none;stroke: #d1b270;stroke-miterlimit: 10;stroke-width: 0.057080678641796px"/>
      <polyline points="15.14 20.55 15.45 20.33 15.29 20.24 16.53 19.79" style="fill: none;stroke: #d1b270;stroke-miterlimit: 10;stroke-width: 0.057080678641796px"/>
      <line style="fill: none;stroke: #d1b270;stroke-miterlimit: 10;stroke-width: 0.057080678641796px" x1="23.23" x2="21.46" y1="19.75" y2="22"/>
      <line style="fill: none;stroke: #d1b270;stroke-miterlimit: 10;stroke-width: 0.057080678641796px" x1="23.5" x2="21.88" y1="19.34" y2="17.42"/>
    </g>
  </g>
  <g id="Connectors">
    <circle cx="19.38" cy="3.95" data-cir-type="female" id="circuitoCon_DIN" r="1.78" style="fill: none"/>
    <circle cx="34.97" cy="19.34" data-cir-type="female" id="circuitoCon_GND" r="1.78" style="fill: none"/>
    <circle cx="19.22" cy="35.08" data-cir-type="female" id="circuitoCon_DOUT" r="1.78" style="fill: none"/>
    <circle cx="3.95" cy="19.34" data-cir-type="female" id="circuitoCon_VCC" r="1.78" style="fill: none"/>
  </g>
</svg>