<?xml version="1.0" ?><svg data-name="Layer 9" height="15.3mm" id="Layer_9" viewBox="0 0 43.34 43.38" width="15.29mm" xmlns="http://www.w3.org/2000/svg">
  <title>Digital Temperature Sensor Breakout - TMP102 finish</title>
  <g data-name="Layer 4" id="Layer_4">
    <path d="M.06,0V43.2h43.2V0ZM35.87,2.93a4.56,4.56,0,1,1-4.56,4.56A4.56,4.56,0,0,1,35.87,2.93ZM3.61,41.33A1.73,1.73,0,1,1,5.35,39.6,1.73,1.73,0,0,1,3.61,41.33Zm0-18A1.52,1.52,0,1,1,5.18,21.8,1.53,1.53,0,0,1,3.66,23.32ZM2.37,7.49a4.56,4.56,0,1,1,4.56,4.56A4.56,4.56,0,0,1,2.37,7.49Zm8.29,33.76a1.65,1.65,0,1,1,1.65-1.65A1.65,1.65,0,0,1,10.66,41.25Zm3.65-18.48a1,1,0,1,1,1-1A1,1,0,0,1,14.31,22.77Zm1.31-15a1,1,0,1,1,1-1A1,1,0,0,1,15.62,7.8Zm2.3,33.39a1.59,1.59,0,1,1,1.59-1.59A1.59,1.59,0,0,1,17.92,41.19ZM21.5,23.83a1,1,0,1,1,1-1A1,1,0,0,1,21.5,23.83ZM25.1,41.21a1.61,1.61,0,1,1,1.61-1.61A1.61,1.61,0,0,1,25.1,41.21Zm2.21-17.37a1,1,0,1,1,1-1A1,1,0,0,1,27.31,23.83Zm1.38-3.56a1,1,0,1,1,1-1A1,1,0,0,1,28.69,20.27ZM28.62,5.43a1.56,1.56,0,1,1,1.56-1.56A1.56,1.56,0,0,1,28.62,5.43ZM32.46,41.3A1.58,1.58,0,1,1,34,39.73,1.58,1.58,0,0,1,32.46,41.3Zm3.46-18.53a1,1,0,1,1,1-1A1,1,0,0,1,35.92,22.77Zm3.74,18.28a1.61,1.61,0,1,1,1.61-1.61A1.61,1.61,0,0,1,39.66,41.05Z" style="fill: #8a231e"/>
  </g>
  <g id="circuit">
    <polygon points="25.58 37.73 24.83 37.73 24.83 20.43 24.4 20 18.81 20 18.43 20.38 18.43 37.28 17.68 37.28 17.68 20.07 18.5 19.25 24.71 19.25 25.58 20.12 25.58 37.73" style="fill: #cf2f27"/>
    <rect height="0.75" style="fill: #cf2f27" width="8.29" x="17.6" y="17.91"/>
    <polygon points="32.72 37.37 31.97 37.37 31.97 18.51 30.7 17.24 24.18 17.24 24.18 16.49 31.01 16.49 32.72 18.2 32.72 37.37" style="fill: #cf2f27"/>
    <rect height="0.75" style="fill: #cf2f27" width="2.66" x="29.68" y="31.03"/>
    <polygon points="40.03 37.37 39.28 37.37 39.28 16.73 37.45 14.9 23.09 14.9 21.54 16.44 21.01 15.91 22.78 14.15 37.76 14.15 40.03 16.42 40.03 37.37" style="fill: #cf2f27"/>
    <path d="M14.35,23.54a1.74,1.74,0,1,1,1.74-1.74A1.74,1.74,0,0,1,14.35,23.54Zm0-2.73a1,1,0,1,0,1,1A1,1,0,0,0,14.35,20.81Z" style="fill: #cf2f27"/>
    <path d="M21.63,24.62a1.74,1.74,0,1,1,1.74-1.74A1.74,1.74,0,0,1,21.63,24.62Zm0-2.73a1,1,0,1,0,1,1A1,1,0,0,0,21.63,21.89Z" style="fill: #cf2f27"/>
    <path d="M27.31,24.62a1.74,1.74,0,1,1,1.74-1.74A1.74,1.74,0,0,1,27.31,24.62Zm0-2.73a1,1,0,1,0,1,1A1,1,0,0,0,27.31,21.89Z" style="fill: #cf2f27"/>
    <path d="M35.88,23.54a1.74,1.74,0,1,1,1.74-1.74A1.74,1.74,0,0,1,35.88,23.54Zm0-2.73a1,1,0,1,0,1,1A1,1,0,0,0,35.88,20.81Z" style="fill: #cf2f27"/>
    <polyline points="10.01 37.73 10.01 19.91 12.49 17.43 17.31 17.43 18.11 18.23 17.25 19.09 13.27 19.09 11.45 20.91 11.45 37.73 10.01 37.73" style="fill: #cf2f27"/>
    <polygon points="29.23 25.72 28.23 25.72 28.23 24.53 27.91 24.21 28.62 23.51 29.23 24.12 29.23 25.72" style="fill: #cf2f27"/>
    <rect height="3.03" style="fill: #cf2f27" width="1" x="35.38" y="23.16"/>
    <path d="M32.14,12.69a8.73,8.73,0,0,1-2.22-2.94,4.65,4.65,0,0,1-.2-3,.57.57,0,0,0-.58-.66,2.43,2.43,0,0,1-2.59-1.53,2.75,2.75,0,0,1,.7-2.55l-.35-.49H11c-.67,0-.43.74-.43.74L12.2,3.54l1,2,.42,2-.37,2.17-1.2,2.14-1.78,1.42L8.17,14H5.82l-2-.81L1.29,10.8V21.07c.08-.92,1.3-1.64,2.33-1.62A2.27,2.27,0,0,1,5.95,21.8a2.34,2.34,0,0,1-2.42,2.33,3.06,3.06,0,0,1-2.12-.94V36.94A3.52,3.52,0,0,1,3.5,36.1c2.4-.07,3.66,2.78,3.66,2.78,0-1.23,2-2.73,2-2.73V33.93l-.28-.28h-1v-1H6.4v1H5.47L5,33.22V32.08h.81V30.6H5V24.32H9.26V19.77l3.06-3.06h5l.86-.86h1.93l2.37-2.37h9.69S32.78,13.29,32.14,12.69ZM15.62,7.78a1,1,0,1,1,1-1A1,1,0,0,1,15.62,7.78Z" style="fill: #cf2f27"/>
    <path d="M25.21,17.95l0,.54,1.14,1.14v1.21H28l.92.46.46.81v1.33l.81.81h1.1V18.76l-.82-.82Zm3.48,2.31a1,1,0,1,1,1-1A1,1,0,0,1,28.69,20.26Z" style="fill: #cf2f27"/>
  </g>
  <g id="chip">
    <g>
      <rect height="3.19" style="fill: #d9d0d0" width="2.77" x="12.91" y="24.99"/>
      <rect height="3.19" style="fill: #d9d0d0" width="2.77" x="12.91" y="29.74"/>
      <rect height="3" style="fill: #282828" width="2.25" x="13.18" y="27.45"/>
      <g>
        <path d="M14.32,29.65H14a.05.05,0,1,1,0-.1h.29a.05.05,0,1,1,.1,0h.21a0,0,0,0,1,.05.05s0,.05-.05.05h-.21v.3h-.48a.05.05,0,0,1,0-.1h.38Z" style="fill: #fff"/>
        <path d="M14,29.17a.05.05,0,0,1,0,.1h-.05a.05.05,0,0,1,0-.05v-.45h.29s0,0,.06,0l.12.14s0,0,.06,0h.2a0,0,0,0,1,.05.05s0,.05-.05.05h-.24a.06.06,0,0,1-.06,0l-.12-.14s0,0-.07,0H14Z" style="fill: #fff"/>
        <path d="M14.58,28.45v-.35a.05.05,0,1,1,.1,0v.45h-.33a.1.1,0,0,1-.11-.11v-.28H14v.35a0,0,0,0,1-.05.05,0,0,0,0,1,0-.05v-.33a.11.11,0,0,1,0-.08.1.1,0,0,1,.09,0h.21a.11.11,0,0,1,.09,0,.11.11,0,0,1,0,.08v.28Z" style="fill: #fff"/>
      </g>
    </g>
    <g>
      <rect height="3.19" style="fill: #d9d0d0" width="2.77" x="5.7" y="24.99"/>
      <rect height="3.19" style="fill: #d9d0d0" width="2.77" x="5.7" y="29.74"/>
      <rect height="3" style="fill: #895c41" width="2.25" x="5.8" y="27.43"/>
    </g>
    <g>
      <rect height="3.19" style="fill: #d9d0d0" width="2.77" x="20.18" y="24.99"/>
      <rect height="3.19" style="fill: #d9d0d0" width="2.77" x="20.18" y="29.74"/>
      <rect height="3" style="fill: #282828" width="2.25" x="20.44" y="27.45"/>
      <g>
        <path d="M21.59,29.65H21.3a.05.05,0,1,1,0-.1h.29a.05.05,0,1,1,.1,0h.21a0,0,0,0,1,.05.05s0,.05-.05.05h-.21v.3h-.48a.05.05,0,0,1,0-.1h.38Z" style="fill: #fff"/>
        <path d="M21.26,29.17a.05.05,0,0,1,0,.1h-.05a.05.05,0,0,1,0-.05v-.45h.29s0,0,.06,0l.12.14s0,0,.06,0h.2a0,0,0,0,1,.05.05s0,.05-.05.05h-.24a.06.06,0,0,1-.06,0l-.12-.14s0,0-.07,0h-.14Z" style="fill: #fff"/>
        <path d="M21.84,28.45v-.35a.05.05,0,1,1,.1,0v.45h-.33a.1.1,0,0,1-.11-.11v-.28h-.24v.35a0,0,0,0,1-.05.05,0,0,0,0,1,0-.05v-.33a.11.11,0,0,1,0-.08.1.1,0,0,1,.09,0h.21a.11.11,0,0,1,.09,0,.11.11,0,0,1,0,.08v.28Z" style="fill: #fff"/>
      </g>
    </g>
    <g>
      <rect height="3.19" style="fill: #d9d0d0" width="2.77" x="27.26" y="24.99"/>
      <rect height="3.19" style="fill: #d9d0d0" width="2.77" x="27.26" y="29.74"/>
      <rect height="3" style="fill: #282828" width="2.25" x="27.52" y="27.45"/>
      <g>
        <path d="M28.74,28.44a.23.23,0,0,1-.11,0,.25.25,0,0,1-.12,0l-.18-.09a.13.13,0,0,1,0-.25l.18-.09a.25.25,0,0,1,.12,0,.23.23,0,0,1,.11,0l.2.1a.13.13,0,0,1,0,.24Zm.15-.19s0,0,0,0,0,0,0,0l-.18-.09-.08,0-.07,0-.19.1s0,0,0,0,0,0,0,0l.19.1.07,0,.08,0Z" style="fill: #fff"/>
        <path d="M28.34,29v.15a.05.05,0,1,1-.1,0v-.4a.05.05,0,1,1,.1,0v.15h.58v-.15a0,0,0,0,1,.05-.05,0,0,0,0,1,0,.05v.4a0,0,0,0,1,0,.05,0,0,0,0,1-.05-.05V29Z" style="fill: #fff"/>
        <path d="M28.24,29.68a.15.15,0,0,1,.1-.15l.19-.09a.23.23,0,0,1,.22,0l.19.09a.15.15,0,0,1,.1.15v.17a0,0,0,0,1,0,.05,0,0,0,0,1-.05-.05v-.17s0-.05,0-.07l-.18-.09-.08,0-.07,0-.17.09s0,0,0,.08v.16a0,0,0,0,1,0,.05,0,0,0,0,1-.05-.05Z" style="fill: #fff"/>
      </g>
    </g>
    <g>
      <rect height="3.19" style="fill: #d9d0d0" width="2.77" x="34.67" y="24.99"/>
      <rect height="3.19" style="fill: #d9d0d0" width="2.77" x="34.67" y="29.74"/>
      <rect height="3" style="fill: #282828" width="2.25" x="34.93" y="27.45"/>
      <g>
        <path d="M36.15,28.44a.23.23,0,0,1-.11,0,.25.25,0,0,1-.12,0l-.18-.09a.13.13,0,0,1,0-.25l.18-.09A.25.25,0,0,1,36,28a.23.23,0,0,1,.11,0l.2.1a.13.13,0,0,1,0,.24Zm.15-.19s0,0,0,0,0,0,0,0l-.18-.09-.08,0-.07,0-.19.1s0,0,0,0,0,0,0,0l.19.1.07,0,.08,0Z" style="fill: #fff"/>
        <path d="M35.75,29v.15a.05.05,0,1,1-.1,0v-.4a.05.05,0,1,1,.1,0v.15h.58v-.15a0,0,0,0,1,.05-.05,0,0,0,0,1,0,.05v.4a0,0,0,0,1,0,.05,0,0,0,0,1-.05-.05V29Z" style="fill: #fff"/>
        <path d="M35.65,29.68a.15.15,0,0,1,.1-.15l.19-.09a.23.23,0,0,1,.22,0l.19.09a.15.15,0,0,1,.1.15v.17a0,0,0,0,1,0,.05,0,0,0,0,1-.05-.05v-.17s0-.05,0-.07l-.18-.09-.08,0-.07,0-.17.09s0,0,0,.08v.16a0,0,0,0,1,0,.05,0,0,0,0,1-.05-.05Z" style="fill: #fff"/>
      </g>
    </g>
    <rect height="0.98" style="fill: #d9d0d0" width="1.96" x="18.37" y="16.37"/>
    <rect height="0.98" style="fill: #d9d0d0" width="1.96" x="18.37" y="17.8"/>
    <rect height="0.98" style="fill: #d9d0d0" width="1.96" x="18.37" y="19.26"/>
    <rect height="0.98" style="fill: #d9d0d0" width="1.96" x="22.73" y="16.37"/>
    <rect height="0.98" style="fill: #644f45" width="1.96" x="20.67" y="15.93"/>
    <rect height="0.98" style="fill: #644f45" width="1.96" x="20.55" y="19.64"/>
    <rect height="0.98" style="fill: #d9d0d0" width="1.96" x="22.73" y="17.8"/>
    <rect height="0.98" style="fill: #d9d0d0" width="1.96" x="22.73" y="19.26"/>
    <rect height="4.33" style="fill: #282828" width="3.05" x="20.03" y="16.12"/>
    <g>
      <path d="M22.05,19.16a.17.17,0,0,1-.11.17l-.22.11a.26.26,0,0,1-.12,0,.25.25,0,0,1-.13,0l-.21-.11a.17.17,0,0,1-.11-.18V19a.05.05,0,0,1,.06-.06.06.06,0,0,1,.06.06v.19s0,.06,0,.08l.2.1.09,0a.16.16,0,0,0,.08,0l.2-.1s.05,0,.05-.09V19A.05.05,0,0,1,22,18.9a.06.06,0,0,1,.06.06Z" style="fill: #fff"/>
      <path d="M21.15,18.64v-.32c0-.17.1-.25.27-.25a.23.23,0,0,1,.18.08.25.25,0,0,1,.21-.08.23.23,0,0,1,.24.25v.32Zm.39-.12v-.21c0-.08,0-.13-.12-.13s-.15,0-.15.13v.21Zm.39,0v-.21c0-.08,0-.13-.12-.13s-.15,0-.15.13v.21Z" style="fill: #fff"/>
      <path d="M21.22,17.23l.71.42v-.36a.06.06,0,1,1,.12,0v.52H22l-.71-.42v.36a.06.06,0,1,1-.12,0v-.52Z" style="fill: #fff"/>
    </g>
  </g>
  <g id="text">
    <g>
      <path d="M14.12,10.11v.14a.2.2,0,0,1-.4,0V9.71h2v.54a.2.2,0,0,1-.4,0v-.14h-.39v2.51a.2.2,0,0,1-.4,0V10.11Z" style="fill: #fff"/>
      <path d="M18.07,9.71h.5v2.91a.2.2,0,0,1-.4,0V10.26h0l-.38.56v.06c0,.12,0,.24-.2.24s-.2-.12-.2-.24v-.06L17,10.26h0v2.36a.2.2,0,0,1-.4,0V9.71h.5l.49.7Z" style="fill: #fff"/>
      <path d="M19.88,12.62a.2.2,0,0,1-.4,0V9.71h1.33a.59.59,0,0,1,.46.16.6.6,0,0,1,.19.52v.54a.66.66,0,0,1-.16.51.62.62,0,0,1-.54.19h-.87Zm0-1.38h.89c.24,0,.29-.06.29-.29V10.4c0-.23-.05-.29-.29-.29h-.89Z" style="fill: #fff"/>
      <path d="M23.93,12.42v-.81a.2.2,0,1,1,.4,0v1a.18.18,0,0,1-.2.2H22.56a.2.2,0,0,1,0-.4h.59V10.11h-.59a.2.2,0,0,1,0-.4h1v2.71Z" style="fill: #fff"/>
      <path d="M26.81,9.71a.4.4,0,0,1,.4.4v2.31a.39.39,0,0,1-.4.4H25.64a.39.39,0,0,1-.4-.4V10.11a.4.4,0,0,1,.4-.4Zm0,2.71V10.11H25.64v2.31Z" style="fill: #fff"/>
      <path d="M28.52,12.42h1.38a.2.2,0,1,1,0,.4H28.12v-1.3a.4.4,0,0,1,.45-.45h1.12v-1H28.32a.2.2,0,0,1,0-.4h1.33a.41.41,0,0,1,.45.47V11a.41.41,0,0,1-.45.47H28.52Z" style="fill: #fff"/>
    </g>
    <g>
      <path d="M4.12,34.07a.15.15,0,0,1-.3,0v-.59h.59a.45.45,0,0,1,.47.48v.52a.46.46,0,0,1-.12.35A.44.44,0,0,1,4.4,35H3.65a.61.61,0,0,1-.44-.16l-.45-.35A.46.46,0,0,1,2.55,34v-.4a.15.15,0,1,1,.3,0V34c0,.17,0,.15.12.25l.42.33a.57.57,0,0,0,.39.09h.59c.17,0,.22,0,.22-.21V34c0-.11,0-.2-.16-.2H4.12Z" style="fill: #fff"/>
      <path d="M2.7,31.61a.15.15,0,0,1,0-.3H4.89v.4l-1.8.78H4.74a.15.15,0,1,1,0,.3H2.55v-.4l1.83-.78H2.7Z" style="fill: #fff"/>
      <path d="M2.85,30.35v.11c0,.1,0,.18-.15.18s-.15-.08-.15-.17V30a.45.45,0,0,1,.3-.45l.53-.26a.69.69,0,0,1,.68,0l.55.27a.45.45,0,0,1,.28.48v.5a.15.15,0,0,1-.3,0v-.14ZM4.59,30V30c0-.13,0-.16-.13-.21l-.54-.26a.42.42,0,0,0-.2-.06.5.5,0,0,0-.25.08L3,29.78c-.13.06-.13.09-.13.23v0Z" style="fill: #fff"/>
    </g>
    <g>
      <path d="M11.59,33.56H11a.15.15,0,1,1,0-.3h.76a.14.14,0,0,1,.15.15v1.18a.15.15,0,0,1-.3,0v-.44H9.85v.44a.15.15,0,0,1-.3,0v-.74h2Z" style="fill: #fff"/>
      <path d="M11.5,31.95c0,.07,0,.11-.06.16a.2.2,0,0,1-.14,0h-.17a.19.19,0,0,1-.14,0c-.06,0-.06-.09-.06-.16v-.22c0-.07,0-.11.06-.16a.19.19,0,0,1,.14,0h.17a.19.19,0,0,1,.14,0c.06,0,.06.09.06.16Z" style="fill: #fff"/>
      <path d="M10.82,29.39H10a.15.15,0,0,1,0-.3h.87a.15.15,0,1,1,.3,0h.61a.15.15,0,0,1,0,.3h-.61v.88H9.7a.15.15,0,1,1,0-.3h1.12Z" style="fill: #fff"/>
      <path d="M10.54,27.17c0-.12,0-.18.18-.18s.18.06.18.18v.7c0,.12,0,.18-.18.18s-.18-.06-.18-.18Z" style="fill: #fff"/>
      <path d="M9.85,26a.15.15,0,0,1-.3,0v-1a.29.29,0,0,1,.3-.3h.58a.35.35,0,0,1,.29.12.35.35,0,0,1,.29-.12h.58a.29.29,0,0,1,.3.3v1a.15.15,0,0,1-.3,0v-1h-.5c-.17,0-.22.07-.22.15v.59a.15.15,0,0,1-.3,0v-.59c0-.08-.05-.15-.22-.15h-.5Z" style="fill: #fff"/>
      <path d="M11.5,23.31c0,.07,0,.11-.06.16a.2.2,0,0,1-.14,0h-.17a.19.19,0,0,1-.14,0c-.06,0-.06-.09-.06-.16v-.22c0-.07,0-.11.06-.16a.19.19,0,0,1,.14,0h.17a.19.19,0,0,1,.14,0c.06,0,.06.09.06.16Z" style="fill: #fff"/>
      <path d="M10.82,21.48v-1c0-.15.06-.18.2-.18h.67c.14,0,.19.06.19.2v1.09c0,.14-.05.2-.19.2h-2c-.07,0-.15,0-.15-.13v-.18a.15.15,0,0,1,.15-.14.14.14,0,0,1,.15.15Zm.3,0h.46V20.6h-.46Z" style="fill: #fff"/>
      <path d="M10.18,18.44H9.7a.15.15,0,0,1,0-.3h.47l.12,0,1.46.57c.08,0,.13.06.13.15s-.06.12-.13.15l-1.46.57-.12,0H9.7a.15.15,0,1,1,0-.3h.48l1.15-.44Z" style="fill: #fff"/>
    </g>
    <g>
      <path d="M18.74,33.46a.39.39,0,0,1,.25-.11.34.34,0,0,1,.34.38v.66a.45.45,0,0,1-.1.3.38.38,0,0,1-.28.14.16.16,0,0,1-.18-.16.14.14,0,0,1,.15-.14c.09,0,.1,0,.1-.13v-.65s0-.1,0-.1-.07,0-.09.05l-1.33,1a.36.36,0,0,1-.25.1.33.33,0,0,1-.29-.16.4.4,0,0,1-.05-.25v-.64a.43.43,0,0,1,.1-.3.41.41,0,0,1,.29-.14.15.15,0,0,1,.17.16.13.13,0,0,1-.14.14c-.1,0-.12.05-.12.14v.64s0,.1,0,.1.06,0,.08,0Z" style="fill: #fff"/>
      <path d="M17.29,32.38v.11c0,.1,0,.18-.15.18S17,32.6,17,32.5V32a.45.45,0,0,1,.3-.45l.53-.26a.69.69,0,0,1,.68,0l.55.27a.45.45,0,0,1,.28.48v.5a.15.15,0,0,1-.3,0v-.14Zm1.74-.3V32c0-.13,0-.16-.13-.21l-.54-.26a.42.42,0,0,0-.2-.06.5.5,0,0,0-.25.08l-.51.25c-.13.06-.13.09-.13.23v0Z" style="fill: #fff"/>
      <path d="M17.14,29.93c-.08,0-.15-.06-.15-.15s.08-.14.15-.16l2-.58c.07,0,.15.06.15.14a.18.18,0,0,1-.15.16l-.36.11v.64l.36.11a.18.18,0,0,1,.15.16c0,.08-.08.17-.15.14Zm.56-.16h0l.81.23v-.47Z" style="fill: #fff"/>
    </g>
    <g>
      <path d="M26,33.46a.39.39,0,0,1,.25-.11.34.34,0,0,1,.34.38v.66a.45.45,0,0,1-.1.3.38.38,0,0,1-.28.14.16.16,0,0,1-.18-.16.14.14,0,0,1,.15-.14c.09,0,.1,0,.1-.13v-.65s0-.1,0-.1-.07,0-.09.05l-1.33,1a.36.36,0,0,1-.25.1.33.33,0,0,1-.29-.16.4.4,0,0,1-.05-.25v-.64a.43.43,0,0,1,.1-.3.41.41,0,0,1,.29-.14.15.15,0,0,1,.17.16.13.13,0,0,1-.14.14c-.1,0-.12.05-.12.14v.64s0,.1,0,.1.06,0,.08,0Z" style="fill: #fff"/>
      <path d="M26.57,31.87a.45.45,0,0,1-.29.45l-.56.28a.67.67,0,0,1-.32.08.66.66,0,0,1-.33-.08l-.56-.28a.45.45,0,0,1-.29-.46v-.51a.14.14,0,0,1,.15-.15.14.14,0,0,1,.15.15v.5c0,.13,0,.15.13.21l.52.26a.46.46,0,0,0,.23.06.42.42,0,0,0,.21-.06l.52-.26c.12-.06.13-.09.13-.23v-.49a.14.14,0,0,1,.15-.15.14.14,0,0,1,.15.15Z" style="fill: #fff"/>
      <path d="M26.27,29.18a.15.15,0,1,1,.3,0v1.33H24.39a.15.15,0,1,1,0-.3h1.89Z" style="fill: #fff"/>
    </g>
    <g>
      <path d="M31.7,34.25c-.08,0-.15-.06-.15-.15s.08-.14.15-.16l2-.58c.07,0,.15.06.15.14a.18.18,0,0,1-.15.16l-.36.11v.64l.36.11a.18.18,0,0,1,.15.16c0,.08-.08.17-.15.14Zm.56-.16h0l.81.23v-.47Z" style="fill: #fff"/>
      <path d="M33.59,31.34a.15.15,0,1,1,.3,0v1.33H31.7a.15.15,0,1,1,0-.3h1.89Z" style="fill: #fff"/>
      <path d="M31.85,30.22H32a.15.15,0,1,1,0,.3h-.41V29H32a.15.15,0,1,1,0,.3h-.11v.29h1.89a.15.15,0,0,1,0,.3H31.85Z" style="fill: #fff"/>
    </g>
    <g>
      <path d="M38.89,34.25c-.08,0-.15-.06-.15-.15s.08-.14.15-.16l2-.58c.07,0,.15.06.15.14a.18.18,0,0,1-.15.16l-.36.11v.64l.36.11a.18.18,0,0,1,.15.16c0,.08-.08.17-.15.14Zm.56-.16h0l.81.23v-.47Z" style="fill: #fff"/>
      <path d="M39,32.38v.11c0,.1,0,.18-.15.18s-.15-.08-.15-.17V32a.45.45,0,0,1,.3-.45l.53-.26a.69.69,0,0,1,.68,0l.55.27a.45.45,0,0,1,.28.48v.5a.15.15,0,0,1-.3,0v-.14Zm1.74-.3V32c0-.13,0-.16-.13-.21l-.54-.26a.42.42,0,0,0-.2-.06.5.5,0,0,0-.25.08l-.51.25c-.13.06-.13.09-.13.23v0Z" style="fill: #fff"/>
      <path d="M39,30.22v.11c0,.1,0,.18-.15.18s-.15-.08-.15-.17v-.5a.45.45,0,0,1,.3-.45l.53-.26a.69.69,0,0,1,.68,0l.55.27a.45.45,0,0,1,.28.48v.5a.15.15,0,0,1-.3,0v-.14Zm1.74-.3v-.06c0-.13,0-.16-.13-.21l-.54-.26a.42.42,0,0,0-.2-.06.5.5,0,0,0-.25.08l-.51.25c-.13.06-.13.09-.13.23v0Z" style="fill: #fff"/>
      <path d="M38.74,27.17a.3.3,0,0,1,.3-.3h1.74a.3.3,0,0,1,.3.3v.88a.3.3,0,0,1-.3.3H39a.3.3,0,0,1-.3-.3Zm2,0H39v.88h1.74Z" style="fill: #fff"/>
    </g>
  </g>
  <g id="white">
    <polygon points="42.87 37.55 41.28 35.96 37.61 35.96 35.94 37.62 34.14 35.81 30.41 35.81 28.52 37.7 26.84 36.02 23.21 36.02 21.5 37.73 19.73 35.96 16.2 35.96 14.43 37.73 12.68 35.98 9.06 35.98 7.22 37.82 5.39 36 1.81 36 0.38 37.43 0.38 41.41 1.89 42.93 5.5 42.93 7.17 41.25 8.83 42.9 12.67 42.9 14.38 41.19 16.15 42.96 19.76 42.96 21.35 41.37 22.98 43 26.79 43 28.61 41.19 30.42 43.01 34.14 43.01 35.9 41.24 37.59 42.93 41.56 42.93 42.96 41.53 42.87 37.55" style="fill: none;stroke: #fff;stroke-miterlimit: 10;stroke-width: 0.75px"/>
    <path d="M19,8.93V5A1.09,1.09,0,0,1,20.16,3.9c.57,0,.33.29.13.39-.37.18,0,.48.27.48s.95,0,.61-.65a1.64,1.64,0,0,1-.79-1.23,1.08,1.08,0,0,1,1.1-1.17c.55,0,.87.05,1.06.36s-.43.08-.54.37,0,.42.21.6.49.22.53.07.18-.36.22-.32a1.81,1.81,0,0,1,.92,1.58c0,1.1-.71,2.49-1.56,2.65a13.45,13.45,0,0,1-1.65.19Z" style="fill: #fff"/>
  </g>
  <g id="Connectors">
    <circle cx="39.6" cy="39.56" data-cir-type="male" id="circuitoCon_ADD0" r="2.05" style="fill: none;stroke: #e8e5df;stroke-width: 1.224px"/>
    <circle cx="32.43" cy="39.65" id="circuitoCon_ALT" r="2.05" style="fill: none;stroke: #e8e5df;stroke-width: 1.224px"/>
    <circle cx="25.26" cy="39.65" data-cir-type="male" id="circuitoCon_SCL" r="2.05" style="fill: none;stroke: #e8e5df;stroke-width: 1.224px"/>
    <circle cx="18" cy="39.65" data-cir-type="male" id="circuitoCon_SDA" r="2.05" style="fill: none;stroke: #e8e5df;stroke-width: 1.224px"/>
    <circle cx="10.78" cy="39.65" data-cir-type="male" id="circuitoCon_VCC" r="2.05" style="fill: none;stroke: #e8e5df;stroke-width: 1.224px"/>
    <circle cx="3.61" cy="39.65" data-cir-type="male" id="circuitoCon_GND" r="2.05" style="fill: none;stroke: #e8e5df;stroke-width: 1.224px"/>
  </g>
</svg>