<?xml version="1.0" ?><svg data-name="Layer 20" height="15.56mm" id="Layer_20" viewBox="0 0 74.25 44.12" width="26.19mm" xmlns="http://www.w3.org/2000/svg">
  <title>Triple Axis Accelerometer and Gyro Breakout - MPU-6050</title>
  <g id="BACKGROUND">
    <path d="M11.8,9.9a4.58,4.58,0,0,0,.83-2.83,4.82,4.82,0,0,0-1.4-3A4.88,4.88,0,0,0,7.8,2.75,4.65,4.65,0,0,0,4.82,4,4.77,4.77,0,0,0,3.48,7.75a5,5,0,0,0,1.92,3.1,4.88,4.88,0,0,0,2.79.92A4.82,4.82,0,0,0,11.8,9.9Z" style="fill: none"/>
    <circle cx="26.29" cy="10.99" r="0.85" style="fill: none" transform="translate(0.51 23.13) rotate(-47.9)"/>
    <circle cx="22.5" cy="13.87" r="0.85" style="fill: none" transform="translate(-2.87 21.27) rotate(-47.9)"/>
    <circle cx="36.96" cy="26.93" r="0.85" style="fill: none" transform="translate(-7.8 36.3) rotate(-47.91)"/>
    <circle cx="51.47" cy="29" r="0.85" style="fill: none" transform="translate(-4.55 47.75) rotate(-47.9)"/>
    <circle cx="32.85" cy="4.07" r="0.85" style="fill: none" transform="translate(7.81 25.72) rotate(-47.9)"/>
    <circle cx="48" cy="4.33" r="0.85" style="fill: none"/>
    <circle cx="66.05" cy="7.39" r="4.6" style="fill: none"/>
    <circle cx="45.05" cy="26.5" r="0.85" style="fill: none" transform="translate(-4.81 42.16) rotate(-47.9)"/>
    <circle cx="60.43" cy="20.05" r="0.85" style="fill: none" transform="translate(5.04 51.45) rotate(-47.9)"/>
    <circle cx="69.6" cy="18.35" r="0.85" style="fill: none" transform="translate(9.32 57.69) rotate(-47.9)"/>
    <path d="M70.9,11.91a7.07,7.07,0,0,1-9.52.1c-2.44-2.58-3.06-6.08.29-9.42q1.62-1.33,0-1.17H52v.44l.81,0,0,12,1.75.17,0,.67h6L70.88,25.07l-.08,11,.92.42.19-24.31C72.22,10.43,71.73,10.72,70.9,11.91Zm-.66,7a.85.85,0,1,1-.06-1.21A.85.85,0,0,1,70.23,18.92Z" style="fill: #cf2f27"/>
    <path d="M53.75,29.2l-4-4.06c-.7-.63-1.11-.34-1.44.23a4.18,4.18,0,0,1-3.58,3.33,3.87,3.87,0,0,1-2.15-1.24c-.25-.35-.57-.28-.94,0,.54,1.27-.1,2.85-2.73,5v.84l.47.19-.13,2.63h3.23l1.76,1.77,1.82-1.77,3.68,0,1.84,1.71,2.13-1.75Zm-1.64.37A.85.85,0,1,1,52,28.36.85.85,0,0,1,52.11,29.57Z" style="fill: #cf2f27"/>
    <path d="M41.78,11.43h3.16c.9.29,1.41-.22.81-.87L46,9.7l.91-.15.06-.62-1-.44.31-.84a.74.74,0,0,1,1.22,0V8.2h.69l.31-.87a1.53,1.53,0,0,1,1.5.35c.81-.49.25-1.56.25-2.62l.22-.66L48.91,2.71h-4c-.56-.21-.87,0-.91.63l.06.91a1.52,1.52,0,0,1-.16,1.38l-1.16,0V4.43l-.69,0V5.83h-.86v.59l.86.9ZM48,3.48a.85.85,0,1,1-.85.85A.85.85,0,0,1,48,3.48Z" style="fill: #cf2f27"/>
    <circle cx="22.5" cy="13.87" r="0.85" style="fill: none" transform="translate(-2.87 21.27) rotate(-47.9)"/>
    <path d="M26.2,41.18a1.56,1.56,0,0,1-1.43-.95,1.55,1.55,0,0,0,2.86,0A1.56,1.56,0,0,1,26.2,41.18Z" style="fill: none"/>
    <path d="M18.93,41.18a1.56,1.56,0,0,1-1.43-.95,1.55,1.55,0,0,0,2.86,0A1.56,1.56,0,0,1,18.93,41.18Z" style="fill: none"/>
    <path d="M33.4,41.18A1.56,1.56,0,0,1,32,40.23a1.55,1.55,0,0,0,2.86,0A1.56,1.56,0,0,1,33.4,41.18Z" style="fill: none"/>
    <path d="M40.6,41.18a1.56,1.56,0,0,1-1.43-.95,1.55,1.55,0,0,0,2.86,0A1.56,1.56,0,0,1,40.6,41.18Z" style="fill: none"/>
    <path d="M11.73,41.18a1.56,1.56,0,0,1-1.43-.95,1.55,1.55,0,0,0,2.86,0A1.56,1.56,0,0,1,11.73,41.18Z" style="fill: none"/>
    <circle cx="36.96" cy="26.93" r="0.85" style="fill: none" transform="translate(-7.8 36.3) rotate(-47.91)"/>
    <circle cx="26.29" cy="10.99" r="0.85" style="fill: none" transform="translate(0.51 23.13) rotate(-47.9)"/>
    <path d="M41.78,11.43h3.16c.9.29,1.41-.22.81-.87L46,9.7l.91-.15.06-.62-1-.44.31-.84a.74.74,0,0,1,1.22,0V8.2h.69l.31-.87a1.53,1.53,0,0,1,1.5.35c.81-.49.25-1.56.25-2.62l.22-.66L48.91,2.71h-4c-.56-.21-.87,0-.91.63l.06.91a1.52,1.52,0,0,1-.16,1.38l-1.16,0V4.43l-.69,0V5.83h-.86v.59l.86.9Z" style="fill: none"/>
    <circle cx="66.05" cy="7.39" r="4.6" style="fill: none"/>
    <circle cx="45.05" cy="26.5" r="0.85" style="fill: none" transform="translate(-4.81 42.16) rotate(-47.9)"/>
    <circle cx="32.85" cy="4.07" r="0.85" style="fill: none" transform="translate(7.81 25.72) rotate(-47.91)"/>
    <path d="M11.8,9.9a4.58,4.58,0,0,0,.83-2.83,4.82,4.82,0,0,0-1.4-3A4.88,4.88,0,0,0,7.8,2.75,4.65,4.65,0,0,0,4.82,4,4.77,4.77,0,0,0,3.48,7.75a5,5,0,0,0,1.92,3.1,4.88,4.88,0,0,0,2.79.92A4.82,4.82,0,0,0,11.8,9.9Z" style="fill: none"/>
    <path d="M4.54,41.18a1.56,1.56,0,0,1-1.43-.95,1.55,1.55,0,0,0,2.86,0A1.56,1.56,0,0,1,4.54,41.18Z" style="fill: none"/>
    <path d="M47.72,41.18a1.56,1.56,0,0,1-1.43-.95,1.55,1.55,0,0,0,2.86,0A1.56,1.56,0,0,1,47.72,41.18Z" style="fill: none"/>
    <path d="M54.92,41.18a1.56,1.56,0,0,1-1.43-.95,1.55,1.55,0,0,0,2.86,0A1.56,1.56,0,0,1,54.92,41.18Z" style="fill: none"/>
    <path d="M53.75,29.2l-4-4.06c-.7-.63-1.11-.34-1.44.23a4.18,4.18,0,0,1-3.58,3.33,3.87,3.87,0,0,1-2.15-1.24c-.25-.35-.57-.28-.94,0,.54,1.27-.1,2.85-2.73,5v.84l.47.19-.13,2.63h3.23l1.76,1.77,1.82-1.77,3.68,0,1.84,1.71,2.13-1.75Z" style="fill: none"/>
    <path d="M62.12,41.18a1.56,1.56,0,0,1-1.43-.95,1.55,1.55,0,0,0,2.86,0A1.56,1.56,0,0,1,62.12,41.18Z" style="fill: none"/>
    <path d="M69.93,38.19a1.56,1.56,0,1,1-1.48,2.72,1.54,1.54,0,0,0,.88.27,1.56,1.56,0,0,0,.6-3Z" style="fill: none"/>
    <path d="M70.9,11.91a7.07,7.07,0,0,1-9.52.1c-2.44-2.58-3.06-6.08.29-9.42q1.62-1.33,0-1.17H52v.44l.81,0,0,12,1.75.17,0,.67h6L70.88,25.07l-.08,11,.92.42.19-24.31C72.22,10.43,71.73,10.72,70.9,11.91Z" style="fill: none"/>
    <circle cx="60.43" cy="20.05" r="0.85" style="fill: none" transform="translate(5.04 51.45) rotate(-47.9)"/>
    <circle cx="26.29" cy="10.99" r="0.85" style="fill: none" transform="translate(0.51 23.13) rotate(-47.9)"/>
    <path d="M11.8,9.9a4.58,4.58,0,0,0,.83-2.83,4.82,4.82,0,0,0-1.4-3A4.88,4.88,0,0,0,7.8,2.75,4.65,4.65,0,0,0,4.82,4,4.77,4.77,0,0,0,3.48,7.75a5,5,0,0,0,1.92,3.1,4.88,4.88,0,0,0,2.79.92A4.82,4.82,0,0,0,11.8,9.9Z" style="fill: none"/>
    <circle cx="36.96" cy="26.93" r="0.85" style="fill: none" transform="translate(-7.8 36.3) rotate(-47.91)"/>
    <circle cx="22.5" cy="13.87" r="0.85" style="fill: none" transform="translate(-2.87 21.27) rotate(-47.9)"/>
    <path d="M41.78,11.43h3.16c.9.29,1.41-.22.81-.87L46,9.7l.91-.15.06-.62-1-.44.31-.84a.74.74,0,0,1,1.22,0V8.2h.69l.31-.87a1.53,1.53,0,0,1,1.5.35c.81-.49.25-1.56.25-2.62l.22-.66L48.91,2.71h-4c-.56-.21-.87,0-.91.63l.06.91a1.52,1.52,0,0,1-.16,1.38l-1.16,0V4.43l-.69,0V5.83h-.86v.59l.86.9Z" style="fill: none"/>
    <circle cx="32.85" cy="4.07" r="0.85" style="fill: none" transform="translate(7.81 25.72) rotate(-47.91)"/>
    <circle cx="45.05" cy="26.5" r="0.85" style="fill: none" transform="translate(-4.81 42.16) rotate(-47.9)"/>
    <circle cx="66.05" cy="7.39" r="4.6" style="fill: none"/>
    <path d="M53.75,29.2l-4-4.06c-.7-.63-1.11-.34-1.44.23a4.18,4.18,0,0,1-3.58,3.33,3.87,3.87,0,0,1-2.15-1.24c-.25-.35-.57-.28-.94,0,.54,1.27-.1,2.85-2.73,5v.84l.47.19-.13,2.63h3.23l1.76,1.77,1.82-1.77,3.68,0,1.84,1.71,2.13-1.75Z" style="fill: none"/>
    <path d="M70.9,11.91a7.07,7.07,0,0,1-9.52.1c-2.44-2.58-3.06-6.08.29-9.42q1.62-1.33,0-1.17H52v.44l.81,0,0,12,1.75.17,0,.67h6L70.88,25.07l-.08,11,.92.42.19-24.31C72.22,10.43,71.73,10.72,70.9,11.91Z" style="fill: none"/>
    <circle cx="60.43" cy="20.05" r="0.85" style="fill: none" transform="translate(5.04 51.45) rotate(-47.9)"/>
    <circle cx="26.29" cy="10.99" r="0.85" style="fill: none" transform="translate(0.51 23.13) rotate(-47.9)"/>
    <circle cx="32.85" cy="4.07" r="0.85" style="fill: none" transform="translate(7.81 25.72) rotate(-47.91)"/>
    <circle cx="45.05" cy="26.5" r="0.85" style="fill: none" transform="translate(-4.81 42.16) rotate(-47.9)"/>
    <path d="M53.75,29.2l-4-4.06c-.7-.63-1.11-.34-1.44.23a4.18,4.18,0,0,1-3.58,3.33,3.87,3.87,0,0,1-2.15-1.24c-.25-.35-.57-.28-.94,0,.54,1.27-.1,2.85-2.73,5v.84l.47.19-.13,2.63h3.23l1.76,1.77,1.82-1.77,3.68,0,1.84,1.71,2.13-1.75Z" style="fill: none"/>
    <circle cx="36.96" cy="26.93" r="0.85" style="fill: none" transform="translate(-7.8 36.3) rotate(-47.91)"/>
    <path d="M11.8,9.9a4.58,4.58,0,0,0,.83-2.83,4.82,4.82,0,0,0-1.4-3A4.88,4.88,0,0,0,7.8,2.75,4.65,4.65,0,0,0,4.82,4,4.77,4.77,0,0,0,3.48,7.75a5,5,0,0,0,1.92,3.1,4.88,4.88,0,0,0,2.79.92A4.82,4.82,0,0,0,11.8,9.9Z" style="fill: none"/>
    <circle cx="22.5" cy="13.87" r="0.85" style="fill: none" transform="translate(-2.87 21.27) rotate(-47.9)"/>
    <path d="M70.9,11.91a7.07,7.07,0,0,1-9.52.1c-2.44-2.58-3.06-6.08.29-9.42q1.62-1.33,0-1.17H52v.44l.81,0,0,12,1.75.17,0,.67h6L70.88,25.07l-.08,11,.92.42.19-24.31C72.22,10.43,71.73,10.72,70.9,11.91Z" style="fill: none"/>
    <circle cx="60.43" cy="20.05" r="0.85" style="fill: none" transform="translate(5.04 51.45) rotate(-47.9)"/>
    <circle cx="66.05" cy="7.39" r="4.6" style="fill: none"/>
    <path d="M41.78,11.43h3.16c.9.29,1.41-.22.81-.87L46,9.7l.91-.15.06-.62-1-.44.31-.84a.74.74,0,0,1,1.22,0V8.2h.69l.31-.87a1.53,1.53,0,0,1,1.5.35c.81-.49.25-1.56.25-2.62l.22-.66L48.91,2.71h-4c-.56-.21-.87,0-.91.63l.06.91a1.52,1.52,0,0,1-.16,1.38l-1.16,0V4.43l-.69,0V5.83h-.86v.59l.86.9Z" style="fill: none"/>
    <path d="M.65.62V43.39H73.42V.62ZM66,2.79a4.6,4.6,0,1,1-4.6,4.6A4.6,4.6,0,0,1,66,2.79Zm-24.82,3h.86V4.4l.69,0V5.65l1.16,0a1.52,1.52,0,0,0,.16-1.37L44,3.33c0-.64.35-.83.91-.62h4L50.44,4.4l-.22.66c0,1.06.56,2.13-.25,2.63a1.53,1.53,0,0,0-1.5-.35l-.31.87h-.69V7.65a.74.74,0,0,0-1.22,0l-.31.84,1,.44-.06.62L46,9.7l-.22.86c.59.65.08,1.15-.81.87H41.78l.3-4.1-.86-.9Zm4.46,21.24a.85.85,0,1,1-.06-1.21A.85.85,0,0,1,45.69,27.07ZM32.22,3.5a.85.85,0,1,1,.06,1.21A.85.85,0,0,1,32.22,3.5Zm-6.56,6.92a.85.85,0,1,1,.06,1.21A.85.85,0,0,1,25.66,10.42ZM4.54,41.23a1.6,1.6,0,1,1,1.6-1.6A1.6,1.6,0,0,1,4.54,41.23ZM5.4,10.85a5,5,0,0,1-1.92-3.1A4.77,4.77,0,0,1,4.82,4a4.65,4.65,0,0,1,3-1.29A4.88,4.88,0,0,1,11.23,4.1a4.82,4.82,0,0,1,1.4,3A4.58,4.58,0,0,1,11.8,9.9a4.82,4.82,0,0,1-3.6,1.88A4.88,4.88,0,0,1,5.4,10.85Zm6.33,30.38a1.6,1.6,0,1,1,1.6-1.6A1.6,1.6,0,0,1,11.73,41.23Zm7.2,0a1.6,1.6,0,1,1,1.6-1.6A1.6,1.6,0,0,1,18.93,41.23Zm4.2-26.79a.85.85,0,1,1-.06-1.21A.85.85,0,0,1,23.14,14.44Zm3,26.79a1.6,1.6,0,1,1,1.6-1.6A1.6,1.6,0,0,1,26.13,41.23Zm7.2,0a1.6,1.6,0,1,1,1.6-1.6A1.6,1.6,0,0,1,33.33,41.23ZM37.59,27.5a.85.85,0,1,1-.06-1.21A.85.85,0,0,1,37.59,27.5Zm2.94,13.73a1.6,1.6,0,1,1,1.6-1.6A1.6,1.6,0,0,1,40.53,41.23Zm7.2,0a1.6,1.6,0,1,1,1.6-1.6A1.6,1.6,0,0,1,47.73,41.23Zm2-5.1-3.68,0-1.82,1.77-1.76-1.77H39.28l.13-2.62-.47-.19v-.84c2.63-2.12,3.27-3.7,2.73-5,.37-.28.69-.35.94,0a3.87,3.87,0,0,0,2.15,1.24,4.18,4.18,0,0,0,3.58-3.33c.33-.57.74-.86,1.44-.23l4,4.06v6.89l-2.13,1.75Zm5.15,5.1a1.6,1.6,0,1,1,1.6-1.6A1.6,1.6,0,0,1,54.93,41.23Zm4.94-20.56a.85.85,0,1,1,1.21-.06A.85.85,0,0,1,59.86,20.68Zm2.26,20.56a1.6,1.6,0,1,1,1.6-1.6A1.6,1.6,0,0,1,62.12,41.23Zm7.2,0a1.6,1.6,0,1,1,1.6-1.6A1.6,1.6,0,0,1,69.32,41.23Zm2.57-29-.19,24.31-.92-.42.08-11L60.58,14.74h-6l0-.67-1.75-.17,0-12-.81,0V1.43h9.69q1.62-.17,0,1.17c-3.35,3.33-2.73,6.84-.29,9.42a7.07,7.07,0,0,0,9.52-.1C71.73,10.72,72.22,10.43,71.9,12.22Z" style="fill: #8a231e"/>
  </g>
  <g data-name="LIGHTER RED PATHS" id="LIGHTER_RED_PATHS">
    <polyline points="53.04 15.82 59.92 15.82 69.33 25.2 69.33 37.45" style="fill: none;stroke: #cf2f27;stroke-miterlimit: 10;stroke-width: 0.75px"/>
    <g>
      <polyline points="52.46 18.2 58.46 18.2 59.39 19.13" style="fill: none;stroke: #cf2f27;stroke-miterlimit: 10;stroke-width: 0.75px"/>
      <circle cx="60.35" cy="20.07" r="1.23" style="fill: none;stroke: #cf2f27;stroke-miterlimit: 10;stroke-width: 0.75px"/>
    </g>
    <path d="M54.41,19.46H57.5q.8-.06.53.61a2.47,2.47,0,0,0,4.48,1.23c.28-.76.63-.76,1-.23l4.77,4.77v5.88c-.15.53-.33.79-.6.23-.9-1.41-2-1.56-3.15-.65a1.76,1.76,0,0,0,.81,3,2.06,2.06,0,0,0,2.29-1.08c.1-.37.29-.39.54-.18l-.08,3.13-2,1.59-1.91-1.62-3.62,0L58.78,38l-1.66-1.62-.75-.16V28.4l-6-6H43.5l-.84-.23L41.38,20.4v-.94H45.5L48,17h5.28l0,2.56Z" style="fill: #cf2f27"/>
    <polyline points="40.6 21.83 42.3 23.53 50.06 23.53 55 28.47 55 36.08 55 37.57" style="fill: none;stroke: #cf2f27;stroke-miterlimit: 10;stroke-width: 0.75px"/>
    <g>
      <line style="fill: none;stroke: #cf2f27;stroke-miterlimit: 10;stroke-width: 0.75px" x1="39.28" x2="43.33" y1="22.16" y2="26.21"/>
      <circle cx="44.94" cy="26.45" r="1.31" style="fill: none;stroke: #cf2f27;stroke-miterlimit: 10;stroke-width: 0.75px"/>
    </g>
    <polyline points="37.84 22 37.84 23.24 40.6 25.8 40.6 29.21 37.84 31.36" style="fill: none;stroke: #cf2f27;stroke-miterlimit: 10;stroke-width: 0.75px"/>
    <polyline points="36.27 22.06 36.27 23.59 36.96 24.34 36.96 25.55" style="fill: none;stroke: #cf2f27;stroke-miterlimit: 10;stroke-width: 0.75px"/>
    <circle cx="36.96" cy="26.96" r="1.14" style="fill: none;stroke: #cf2f27;stroke-miterlimit: 10;stroke-width: 0.75px"/>
    <polyline points="34.78 22.16 34.78 24.19 33.75 25.3 31.47 25.3 31.47 26.96 26.2 32.62 26.03 37.45" style="fill: none;stroke: #cf2f27;stroke-miterlimit: 10;stroke-width: 0.75px"/>
    <path d="M34.78,36.08l.15-1.19H36V34H34.78a2,2,0,0,0,0-2.41l-.31-1.31V27.08c-.18-1.09-.61-.61-1.07,0l-6.22,6v3H28l1.84,1.74,1.85-1.74Z" style="fill: #cf2f27"/>
    <path d="M24.92,36.08V33a1.84,1.84,0,0,1,1.11-2l3.12-3.12c-.08-.34-.39-.5-.89-.51v-.89h-.63v.85a1.27,1.27,0,0,1-1.42-.65v-.81H27V24.9H26.2V23.58H15l-2.59,2.85v9.65h1.09l1.81,1.67,1.86-1.67H20.8l1.72,1.77,1.76-1.77Z" style="fill: #cf2f27"/>
    <polyline points="33.45 21.83 32.52 22.53 14.79 22.18 11.73 25.55 11.58 37.58" style="fill: none;stroke: #cf2f27;stroke-miterlimit: 10;stroke-width: 0.75px"/>
    <polyline points="4.42 37.58 4.42 21.83 7.92 18.33 30.41 18.33" style="fill: none;stroke: #cf2f27;stroke-miterlimit: 10;stroke-width: 0.75px"/>
    <polyline points="30.41 10.99 29.15 10.99 28.69 11.45 28.69 12.74 27.68 13.75 23.58 13.75" style="fill: none;stroke: #cf2f27;stroke-miterlimit: 10;stroke-width: 0.75px"/>
    <circle cx="22.52" cy="13.7" r="1.21" style="fill: none;stroke: #cf2f27;stroke-miterlimit: 10;stroke-width: 0.75px"/>
    <circle cx="26.36" cy="10.99" r="1.21" style="fill: none;stroke: #cf2f27;stroke-miterlimit: 10;stroke-width: 0.75px" transform="translate(-1.5 4.71) rotate(-9.93)"/>
    <circle cx="32.68" cy="4.02" r="1.21" style="fill: none;stroke: #cf2f27;stroke-miterlimit: 10;stroke-width: 0.5px" transform="translate(-0.2 5.7) rotate(-9.93)"/>
    <polyline points="33.38 7.18 32.98 6.78 31.13 6.78 30.25 7.32 27.88 7.32" style="fill: none;stroke: #cb200f;stroke-linecap: round;stroke-miterlimit: 10;stroke-width: 0.5px"/>
    <polyline points="28.73 7.97 28.73 8.82 27.27 10.14" style="fill: none;stroke: #cf2f27;stroke-miterlimit: 10;stroke-width: 0.75px"/>
    <line style="fill: none;stroke: #cf2f27;stroke-miterlimit: 10;stroke-width: 0.5px" x1="28.85" x2="31.47" y1="3.74" y2="3.74"/>
    <polyline points="33.65 4.89 34.87 6.11 34.87 8.2" style="fill: none;stroke: #cf2f27;stroke-miterlimit: 10;stroke-width: 0.5px"/>
    <polyline points="37.97 4.89 39.22 6.78 39.2 7.97" style="fill: none;stroke: #cf2f27;stroke-miterlimit: 10;stroke-width: 0.75px"/>
    <line style="fill: none;stroke: #cf2f27;stroke-miterlimit: 10;stroke-width: 0.75px" x1="51.41" x2="51.41" y1="5.83" y2="15.48"/>
    <polyline points="49.72 15.83 47.41 15.83 44.94 18.2 43.01 18.2" style="fill: none;stroke: #cf2f27;stroke-miterlimit: 10;stroke-width: 0.75px"/>
    <line style="fill: none;stroke: #cf2f27;stroke-miterlimit: 10;stroke-width: 0.75px" x1="47.8" x2="47.8" y1="13.44" y2="15.83"/>
    <polyline points="50.44 2.74 49.15 1.45 25.03 1.45 24.31 1.74 24.31 2.93" style="fill: none;stroke: #cf2f27;stroke-miterlimit: 10;stroke-width: 0.5px"/>
  </g>
  <g data-name="LINES AROUND" id="LINES_AROUND">
    <polyline points="49.94 13.68 54.44 13.68 54.44 22.65 46.77 22.65" style="fill: none;stroke: #fff;stroke-linecap: round;stroke-linejoin: round;stroke-width: 0.5px"/>
    <line style="fill: none;stroke: #fff;stroke-linecap: round;stroke-linejoin: round;stroke-width: 0.5px" x1="48.66" x2="48.66" y1="14.38" y2="22.65"/>
    <line style="fill: none;stroke: #fff;stroke-linecap: round;stroke-linejoin: round;stroke-width: 0.5px" x1="49.22" x2="49.22" y1="22.65" y2="24.23"/>
  </g>
  <g data-name="WHITE POINTS" id="WHITE_POINTS">
    <circle cx="65.91" cy="32.61" r="1" style="fill: #eaeaea" transform="translate(13.58 84.28) rotate(-70.96)"/>
    <circle cx="15.23" cy="3.6" r="1" style="fill: #eaeaea" transform="translate(6.85 16.82) rotate(-70.96)"/>
  </g>
  <g data-name="LaLONG WHITE CONNECTORSyer 3" id="LaLONG_WHITE_CONNECTORSyer_3">
    <rect height="44.12" style="fill: none" width="74.25"/>
    <polygon points="0.65 0.61 73.58 0.72 73.25 43.32 0.65 43.39 0.65 37.58 0.65 0.61" style="fill: none"/>
    <polygon points="0.65 38.01 2.48 36.17 6.23 36.17 8 37.77 9.98 36.08 13.53 36.08 15.34 37.76 17.2 36.08 20.8 36.08 22.52 37.85 24.41 36.08 25.11 36.08 27.96 36.08 29.79 37.83 31.64 36.08 35.28 36.08 37.12 37.88 38.99 36.08 42.51 36.08 44.27 37.85 46.1 36.08 49.77 36.13 51.62 37.84 53.36 36.08 57.09 36.08 58.75 37.87 60.6 36.13 64.17 36.13 65.92 37.92 67.84 36.18 71.43 36.17 73.08 37.88 73.08 41.61 71.38 43.18 67.52 43.18 66.03 41.57 64.31 43.18 60.33 43.12 58.73 41.51 56.98 43.18 53.1 43.12 51.51 41.53 49.77 43.18 45.85 43.12 44.25 41.47 42.56 43.18 38.69 43.18 37.12 41.55 35.18 43.39 31.59 43.36 29.85 41.54 29.56 41.51 28.1 43.28 24.25 43.2 22.62 41.45 20.98 43.12 16.88 43.13 15.33 41.5 13.45 43.24 9.96 43.2 8.09 41.48 6.39 43.14 2.57 43.18 0.65 40.83 0.65 38.01" style="fill: none;stroke: #fff;stroke-miterlimit: 10;stroke-width: 0.75px"/>
    <g>
      <path d="M42.79,16.42h1.1a.74.74,0,0,1,.45.22.69.69,0,0,1,.14.22.72.72,0,0,1-.17.24.78.78,0,0,1-.55.19l-1,0Z" style="fill: #dadbd3"/>
      <path d="M42.79,17.92h1.1a.74.74,0,0,1,.45.22.69.69,0,0,1,.14.22.72.72,0,0,1-.17.24.78.78,0,0,1-.55.19l-1,0Z" style="fill: #dadbd3"/>
      <path d="M42.79,15h1.1a.74.74,0,0,1,.45.22.69.69,0,0,1,.14.22.72.72,0,0,1-.17.24.78.78,0,0,1-.55.19l-1,0Z" style="fill: #dadbd3"/>
      <path d="M42.79,13.51h1.1a.74.74,0,0,1,.45.22.69.69,0,0,1,.14.22.72.72,0,0,1-.17.24.78.78,0,0,1-.55.19l-1,0Z" style="fill: #dadbd3"/>
      <path d="M42.79,12.11h1.1a.74.74,0,0,1,.45.22.69.69,0,0,1,.14.22.72.72,0,0,1-.17.24.78.78,0,0,1-.55.19l-1,0Z" style="fill: #dadbd3"/>
      <path d="M42.79,10.56h1.1a.74.74,0,0,1,.45.22.69.69,0,0,1,.14.22.72.72,0,0,1-.17.24.78.78,0,0,1-.55.19l-1,0Z" style="fill: #dadbd3"/>
    </g>
    <g>
      <path d="M31.46,12.93h-1.1a.74.74,0,0,1-.45-.22.69.69,0,0,1-.14-.22.72.72,0,0,1,.17-.24.78.78,0,0,1,.55-.19l1,0Z" style="fill: #dadbd3"/>
      <path d="M31.46,11.43h-1.1a.74.74,0,0,1-.45-.22.69.69,0,0,1-.14-.22.72.72,0,0,1,.17-.24.78.78,0,0,1,.55-.19l1,0Z" style="fill: #dadbd3"/>
      <path d="M31.46,14.3h-1.1a.74.74,0,0,1-.45-.22.69.69,0,0,1-.14-.22.72.72,0,0,1,.17-.24.78.78,0,0,1,.55-.19l1,0Z" style="fill: #dadbd3"/>
      <path d="M31.46,15.83h-1.1a.74.74,0,0,1-.45-.22.69.69,0,0,1-.14-.22.72.72,0,0,1,.17-.24A.78.78,0,0,1,30.5,15l1,0Z" style="fill: #dadbd3"/>
      <path d="M31.46,17.24h-1.1a.74.74,0,0,1-.45-.22.69.69,0,0,1-.14-.22.72.72,0,0,1,.17-.24.78.78,0,0,1,.55-.19l1,0Z" style="fill: #dadbd3"/>
      <path d="M31.46,18.78h-1.1a.74.74,0,0,1-.45-.22.69.69,0,0,1-.14-.22.72.72,0,0,1,.17-.24.78.78,0,0,1,.55-.19l1,0Z" style="fill: #dadbd3"/>
    </g>
    <polygon points="42.76 19.34 43.27 19.34 43.27 20.75 42.75 20.75 42.76 19.34" style="fill: #fff"/>
    <path d="M41.23,21.38" style="fill: none"/>
    <polygon points="31.47 9.7 30.73 9.7 31.66 8.48 32.23 8.48 32.23 8.75 32 8.77 32 9.09 32.52 9.31 32.52 9.6 31.48 9.58 31.47 9.7" style="fill: #d9d0cc"/>
    <polyline points="42.08 8.64 43.13 8.64 43.13 9.54" style="fill: none;stroke: #dadbd3;stroke-linecap: round;stroke-linejoin: round;stroke-width: 0.30000000000000004px"/>
    <polyline points="32.15 20.45 31.11 20.45 31.11 19.54" style="fill: none;stroke: #dadbd3;stroke-linecap: round;stroke-linejoin: round;stroke-width: 0.30000000000000004px"/>
    <g>
      <line style="fill: #d9d0cc;stroke: #dadbd3;stroke-linecap: round;stroke-miterlimit: 10;stroke-width: 0.7000000000000001px" x1="33.38" x2="33.38" y1="7.32" y2="10.14"/>
      <line style="fill: #d9d0cc;stroke: #dadbd3;stroke-linecap: round;stroke-miterlimit: 10;stroke-width: 0.7000000000000001px" x1="34.86" x2="34.86" y1="7.32" y2="10.14"/>
      <line style="fill: #d9d0cc;stroke: #dadbd3;stroke-linecap: round;stroke-miterlimit: 10;stroke-width: 0.7000000000000001px" x1="36.28" x2="36.28" y1="7.32" y2="10.14"/>
      <line style="fill: #d9d0cc;stroke: #dadbd3;stroke-linecap: round;stroke-miterlimit: 10;stroke-width: 0.7000000000000001px" x1="37.77" x2="37.77" y1="7.32" y2="10.14"/>
      <line style="fill: #d9d0cc;stroke: #dadbd3;stroke-linecap: round;stroke-miterlimit: 10;stroke-width: 0.7000000000000001px" x1="39.2" x2="39.2" y1="7.32" y2="10.14"/>
      <line style="fill: #d9d0cc;stroke: #dadbd3;stroke-linecap: round;stroke-miterlimit: 10;stroke-width: 0.7000000000000001px" x1="40.7" x2="40.7" y1="7.32" y2="10.14"/>
    </g>
    <g>
      <line style="fill: #d9d0cc;stroke: #dadbd3;stroke-linecap: round;stroke-miterlimit: 10;stroke-width: 0.7000000000000001px" x1="33.45" x2="33.45" y1="19.35" y2="22.16"/>
      <line style="fill: #d9d0cc;stroke: #dadbd3;stroke-linecap: round;stroke-miterlimit: 10;stroke-width: 0.7000000000000001px" x1="34.93" x2="34.93" y1="19.35" y2="22.16"/>
      <line style="fill: #d9d0cc;stroke: #dadbd3;stroke-linecap: round;stroke-miterlimit: 10;stroke-width: 0.7000000000000001px" x1="36.36" x2="36.36" y1="19.35" y2="22.16"/>
      <line style="fill: #d9d0cc;stroke: #dadbd3;stroke-linecap: round;stroke-miterlimit: 10;stroke-width: 0.7000000000000001px" x1="37.84" x2="37.84" y1="19.35" y2="22.16"/>
      <line style="fill: #d9d0cc;stroke: #dadbd3;stroke-linecap: round;stroke-miterlimit: 10;stroke-width: 0.7000000000000001px" x1="39.28" x2="39.28" y1="19.35" y2="22.16"/>
      <line style="fill: #d9d0cc;stroke: #dadbd3;stroke-linecap: round;stroke-miterlimit: 10;stroke-width: 0.7000000000000001px" x1="40.78" x2="40.78" y1="19.35" y2="22.16"/>
    </g>
  </g>
  <g data-name="Layer 14" id="Layer_14">
    <path d="M44,38.78v1.56h1.3a3.08,3.08,0,0,1,0-1.58Z" style="fill: #8a231e"/>
  </g>
  <g data-name="BLACK SQUARE" id="BLACK_SQUARE">
    <rect height="11.41" style="fill: #343437" width="11.28" x="31.47" y="9.54"/>
  </g>
  <g data-name="RIGHT SQUARE" id="RIGHT_SQUARE">
    <polygon points="49.71 15.47 49.71 15 51.14 15 51.14 14.75 51.81 14.75 51.81 15.01 53.23 15.03 53.23 15.36 53.48 15.53 53.48 16.24 53.23 16.24 53.23 16.79 49.71 16.79 49.71 16.24 49.38 16.24 49.38 15.55 49.7 15.56 49.71 15.47" style="fill: #827577"/>
    <polygon points="49.8 17.38 53.25 17.38 53.25 19.08 52.75 19.08 52.73 19.61 53.25 19.61 53.25 19.99 53.52 19.99 53.52 20.93 53.25 20.93 53.25 21.36 53.14 21.36 53.14 21.44 52.59 21.44 52.52 21.36 51.91 21.35 51.89 21.69 51 21.69 50.97 21.3 49.8 21.3 49.73 21.02 49.43 21.02 49.43 20.1 49.77 20.1 49.75 19.68 50.28 19.68 50.25 19.18 49.8 19.15 49.8 17.38" style="fill: #827577"/>
  </g>
  <g id="ARROWS">
    <g>
      <path d="M8.34,23.12c-2.51-.12-3.19-3.78-1.44-5" style="fill: none;stroke: #fff;stroke-linecap: round;stroke-linejoin: round;stroke-width: 0.5px"/>
      <polygon points="6.25 17.24 7.94 17.24 7.94 19.18 6.25 17.24" style="fill: #fff;stroke: #fff;stroke-linecap: round;stroke-linejoin: round;stroke-width: 0.5px"/>
    </g>
    <circle cx="8.65" cy="20.37" r="2.02" style="fill: #fff"/>
    <polygon points="8.62 19.78 8.39 19.35 8.16 18.93 8.64 18.95 9.13 18.96 8.87 19.37 8.62 19.78" style="fill: #c02015"/>
    <polygon points="8.67 20.97 8.9 21.39 9.13 21.82 8.64 21.8 8.16 21.78 8.42 21.38 8.67 20.97" style="fill: #c02015"/>
    <polygon points="8.05 20.4 7.63 20.63 7.2 20.85 7.22 20.37 7.23 19.89 7.64 20.15 8.05 20.4" style="fill: #c02015"/>
    <polygon points="9.24 20.34 9.66 20.12 10.09 19.89 10.07 20.37 10.06 20.85 9.65 20.6 9.24 20.34" style="fill: #c02015"/>
    <g>
      <g>
        <path d="M11.95,22.06C12,20.14,14.31,19.62,15,21" style="fill: none;stroke: #fff;stroke-linecap: round;stroke-linejoin: round;stroke-width: 0.5px"/>
        <polygon points="15.62 20.46 15.62 21.75 14.41 21.75 15.62 20.46" style="fill: #fff;stroke: #fff;stroke-linecap: round;stroke-linejoin: round;stroke-width: 0.5px"/>
      </g>
      <line style="fill: none;stroke: #fff;stroke-linecap: round;stroke-linejoin: round;stroke-width: 0.5px" x1="13.33" x2="13.33" y1="18.35" y2="23.44"/>
      <polygon points="12.48 18.79 13.46 17.8 14.42 18.77 12.48 18.79" style="fill: #fff;stroke: #fff;stroke-linecap: round;stroke-linejoin: round;stroke-width: 0.5px"/>
    </g>
    <g>
      <g>
        <path d="M17.63,18.84c2.21.09,2.8,2.72,1.27,3.56" style="fill: none;stroke: #fff;stroke-linecap: round;stroke-linejoin: round;stroke-width: 0.5px"/>
        <polygon points="19.47 23.06 17.98 23.06 17.98 21.67 19.47 23.06" style="fill: #fff;stroke: #fff;stroke-linecap: round;stroke-linejoin: round;stroke-width: 0.5px"/>
      </g>
      <line style="fill: none;stroke: #fff;stroke-linecap: round;stroke-linejoin: round;stroke-width: 0.5px" x1="16.46" x2="21.25" y1="20.75" y2="20.75"/>
      <polygon points="20.76 19.88 21.74 20.86 20.78 21.83 20.76 19.88" style="fill: #fff;stroke: #fff;stroke-linecap: round;stroke-linejoin: round;stroke-width: 0.5px"/>
    </g>
    <path d="M49.05,2.45h1.78V2.26l2.94.09a1.21,1.21,0,0,1,.64.73,1.15,1.15,0,0,1,0,.66h-.21V3.51a.7.7,0,0,0-.76.25.58.58,0,0,0-.08.35.73.73,0,0,0,.4.81.75.75,0,0,0,.67-.08c.62-.74,1.34-1.14,1.79-.94a1.33,1.33,0,0,1,.41.35,2.21,2.21,0,0,1,.47.91L57,5.83,56.88,6a.68.68,0,0,1-.12.21.36.36,0,0,1-.24.09.83.83,0,0,0-.34-.69.63.63,0,0,0-.29-.08,1.21,1.21,0,0,0-.31.18,1.27,1.27,0,0,0-.41.6.54.54,0,0,0,.13.24c.13.14.29.13.33.25a.25.25,0,0,1,0,.22,1.94,1.94,0,0,1-.52.49A2,2,0,0,1,54,7.87a4.31,4.31,0,0,1-2.28-.78L50.91,6c0-.4,0-.73-.06-1,0-.59,0-.75-.13-1s-.36-.34-.65-.54A3.61,3.61,0,0,1,49.05,2.45Z" style="fill: #eae6e4"/>
  </g>
  <g id="COECT">
    <g>
      <g>
        <rect height="1.52" rx="0.42" ry="0.42" style="fill: #e7e6e8" transform="translate(24.75 31.96) rotate(-90)" width="2.69" x="27.01" y="2.84"/>
        <rect height="1.86" rx="0.54" ry="0.54" style="fill: #e7e6e8" transform="translate(20.49 27.7) rotate(-90)" width="2.65" x="22.77" y="2.68"/>
        <rect height="3.1" rx="0.61" ry="0.61" style="fill: #e7e6e8" transform="translate(22.82 29.77) rotate(-90)" width="2.2" x="25.19" y="1.93"/>
      </g>
      <rect height="1.88" style="fill: #2a292d" width="2.37" x="25.11" y="2.54"/>
      <g>
        <path d="M25.58,3.54V3.26s0,0,0,0,0,0,0,0v.27s0,0,0,0,0,0,0,0v.19s0,0,0,0,0,0,0,0V3.63h-.22V3.18s0,0,0,0,0,0,0,0v.35Z" style="fill: #fbfcfe"/>
        <path d="M25.93,3.23s0,0,0,0,0,0,0,0v0s0,0,0,0h.33v.27s0,0,0,.06l-.1.11a.06.06,0,0,0,0,.06v.18s0,0,0,0,0,0,0,0V3.6s0,0,0-.05l.1-.11s0,0,0-.07V3.23Z" style="fill: #fbfcfe"/>
        <path d="M26.68,3.14a.09.09,0,0,1,.07.09v.55c0,.05,0,.09-.07.09h-.22a.09.09,0,0,1-.08-.09V3.23a.09.09,0,0,1,.08-.09Zm0,.64V3.23h-.22v.55Z" style="fill: #fbfcfe"/>
        <path d="M27.22,3.78V3.59s0,0,0,0,0,0,0,0v.24s0,0,0,0H27s0,0,0,0,0,0,0,0h.11V3.23H27s0,0,0,0,0,0,0,0h.18v.64Z" style="fill: #fbfcfe"/>
      </g>
    </g>
    <g>
      <g>
        <rect height="1.52" rx="0.42" ry="0.42" style="fill: #e7e6e8" transform="translate(20.97 35.74) rotate(-90)" width="2.69" x="27.01" y="6.62"/>
        <rect height="1.86" rx="0.54" ry="0.54" style="fill: #e7e6e8" transform="translate(16.71 31.48) rotate(-90)" width="2.65" x="22.77" y="6.46"/>
        <rect height="3.1" rx="0.61" ry="0.61" style="fill: #e7e6e8" transform="translate(19.03 33.56) rotate(-90)" width="2.2" x="25.19" y="5.71"/>
      </g>
      <rect height="1.88" style="fill: #2a292d" width="2.37" x="25.11" y="6.32"/>
      <g>
        <path d="M25.61,7.25h-.26a0,0,0,0,1,0,0V7a0,0,0,0,1,0,0h.29a0,0,0,0,1,0,0v.64s0,0,0,0h0s0,0,0,0,0,0,0,0Zm0-.09V7h-.22v.15Z" style="fill: #fbfcfe"/>
        <path d="M26.15,7.56V7.37s0,0,0,0,0,0,0,0v.24s0,0,0,0h-.29s0,0,0,0,0,0,0,0H26V7h-.11s0,0,0,0,0,0,0,0h.18v.64Z" style="fill: #fbfcfe"/>
        <path d="M26.68,6.92a.09.09,0,0,1,.07.09v.55c0,.05,0,.09-.07.09h-.22a.09.09,0,0,1-.08-.09V7a.09.09,0,0,1,.08-.09Zm0,.64V7h-.22v.55Z" style="fill: #fbfcfe"/>
        <path d="M27.22,7.56V7.37s0,0,0,0,0,0,0,0v.24s0,0,0,0H27s0,0,0,0,0,0,0,0h.11V7H27s0,0,0,0,0,0,0,0h.18v.64Z" style="fill: #fbfcfe"/>
      </g>
    </g>
    <g>
      <rect height="1.58" rx="0.41" ry="0.41" style="fill: #e7e6e8" width="2.65" x="46.53" y="12.49"/>
      <rect height="0.78" rx="0.2" ry="0.2" style="fill: #e7e6e8" width="2.73" x="46.49" y="11.9"/>
      <rect height="1.92" rx="0.5" ry="0.5" style="fill: #fffdf3" width="2.61" x="46.55" y="7.91"/>
      <rect height="3.21" rx="0.54" ry="0.54" style="fill: #cea468" width="2.08" x="46.77" y="9.09"/>
      <path d="M46.65,9.62q-.14-.6.7-.59l1.38,0c.36.15.48.35.14.64a5.08,5.08,0,0,1-1.78.15A.43.43,0,0,1,46.65,9.62Z" style="fill: #d4d0d0"/>
      <path d="M49,12q.14.6-.7.59l-1.38,0c-.36-.15-.48-.35-.14-.64a5.08,5.08,0,0,1,1.78-.15A.43.43,0,0,1,49,12Z" style="fill: #d4d0d0"/>
    </g>
    <g>
      <rect height="1.58" rx="0.41" ry="0.41" style="fill: #e7e6e8" width="2.65" x="35.68" y="34.07"/>
      <rect height="0.78" rx="0.2" ry="0.2" style="fill: #e7e6e8" width="2.73" x="35.63" y="33.48"/>
      <rect height="1.92" rx="0.5" ry="0.5" style="fill: #fffdf3" width="2.61" x="35.7" y="29.49"/>
      <rect height="3.21" rx="0.54" ry="0.54" style="fill: #b9a27d" width="2.08" x="35.92" y="30.67"/>
      <path d="M35.8,31.2q-.14-.6.7-.59l1.38,0c.36.15.48.35.14.64a5.08,5.08,0,0,1-1.78.15A.43.43,0,0,1,35.8,31.2Z" style="fill: #fff9fe"/>
      <path d="M38.16,33.58q.14.6-.7.59l-1.38,0c-.36-.15-.48-.35-.14-.64a5.08,5.08,0,0,1,1.78-.15A.43.43,0,0,1,38.16,33.58Z" style="fill: #fff9fe"/>
    </g>
    <g>
      <rect height="1.58" rx="0.41" ry="0.41" style="fill: #e7e6e8" transform="translate(6.83 57.3) rotate(-90)" width="2.65" x="30.74" y="24.45"/>
      <rect height="0.78" rx="0.2" ry="0.2" style="fill: #e7e6e8" transform="translate(5.84 56.31) rotate(-90)" width="2.73" x="29.71" y="24.84"/>
      <rect height="1.92" rx="0.5" ry="0.5" style="fill: #fffdf3" transform="translate(2.42 52.89) rotate(-90)" width="2.61" x="26.35" y="24.27"/>
      <rect height="3.21" rx="0.54" ry="0.54" style="fill: #b9a27d" transform="translate(4.2 54.75) rotate(-90)" width="2.08" x="28.44" y="23.67"/>
      <path d="M28.4,26.44q-.6.14-.59-.7l0-1.38c.15-.36.35-.48.64-.14A5.08,5.08,0,0,1,28.65,26,.43.43,0,0,1,28.4,26.44Z" style="fill: #d4d0d0"/>
      <path d="M30.79,24.07q.6-.14.59.7l0,1.38c-.15.36-.35.48-.64.14a5.08,5.08,0,0,1-.15-1.78A.43.43,0,0,1,30.79,24.07Z" style="fill: #d4d0d0"/>
    </g>
    <g>
      <rect height="1.58" rx="0.41" ry="0.41" style="fill: #e7e6e8" transform="translate(39.32 46.82) rotate(-90)" width="2.89" x="41.63" y="2.96"/>
      <rect height="0.78" rx="0.2" ry="0.2" style="fill: #e7e6e8" transform="translate(38.33 45.83) rotate(-90)" width="2.98" x="40.59" y="3.36"/>
      <rect height="1.92" rx="0.5" ry="0.5" style="fill: #fffdf3" transform="translate(34.91 42.41) rotate(-90)" width="2.84" x="37.24" y="2.79"/>
      <rect height="3.21" rx="0.54" ry="0.54" style="fill: #d0ba96" transform="translate(36.69 44.28) rotate(-90)" width="2.27" x="39.35" y="2.19"/>
      <path d="M39.41,5.06q-.6.15-.59-.77l0-1.5c.15-.39.35-.52.64-.16a6,6,0,0,1,.15,1.94A.48.48,0,0,1,39.41,5.06Z" style="fill: #d4d0d0"/>
      <path d="M41.79,2.48q.6-.15.59.77l0,1.5c-.15.39-.35.52-.64.16A6,6,0,0,1,41.55,3,.48.48,0,0,1,41.79,2.48Z" style="fill: #d4d0d0"/>
    </g>
  </g>
  <g id="TEXT">
    <g>
      <path d="M6.22,25.67c.12,0,.23.07.23.19s-.11.17-.23.19l-3,.72A.19.19,0,0,1,3,26.6c0-.12.12-.18.22-.2l.54-.14v-.8l-.54-.14c-.11,0-.22-.09-.22-.2a.19.19,0,0,1,.22-.18Zm-.83.19h0l-1.21-.29v.59Z" style="fill: #fff"/>
      <path d="M3.86,29.35a.64.64,0,0,1-.37.13A.46.46,0,0,1,3,29v-.82a.49.49,0,0,1,.14-.38.61.61,0,0,1,.42-.18c.14,0,.27.07.27.2S3.7,28,3.58,28s-.15.06-.15.17V29s0,.12.05.12.1-.05.13-.07l2-1.28a.59.59,0,0,1,.37-.12.53.53,0,0,1,.43.2.44.44,0,0,1,.08.31v.79a.48.48,0,0,1-.15.37.66.66,0,0,1-.42.18c-.14,0-.26-.06-.26-.19s.08-.18.21-.18S6,29,6,28.93v-.79S6,28,5.94,28a.3.3,0,0,0-.12.06Z" style="fill: #fff"/>
      <path d="M6,30.7v-.14a.22.22,0,0,1,.45,0v.62c0,.29-.14.44-.45.56l-.78.33a1.2,1.2,0,0,1-1,0l-.81-.34A.56.56,0,0,1,3,31.14v-.62c0-.1.06-.19.22-.19s.22.09.22.19v.18Zm-2.58.37v.07c0,.16,0,.19.19.26l.79.33a.72.72,0,0,0,.29.07.85.85,0,0,0,.37-.09l.75-.31c.19-.08.19-.11.19-.28v0Z" style="fill: #fff"/>
      <path d="M6.22,33.76c.12,0,.23.07.23.19s-.11.17-.23.19l-3,.72A.19.19,0,0,1,3,34.69c0-.12.12-.18.22-.2l.54-.14v-.8l-.54-.14c-.11,0-.22-.09-.22-.2A.19.19,0,0,1,3.21,33ZM5.4,34h0l-1.21-.29v.59Z" style="fill: #fff"/>
    </g>
    <g>
      <path d="M13.65,25.67c.13,0,.24.07.24.19s-.12.17-.24.19l-3.17.72a.2.2,0,0,1-.23-.18c0-.12.12-.18.23-.2l.56-.14v-.8l-.56-.14c-.11,0-.23-.09-.23-.2a.2.2,0,0,1,.23-.18Zm-.87.19h0l-1.27-.29v.59Z" style="fill: #fff"/>
      <path d="M11.16,29.35a.7.7,0,0,1-.39.13.47.47,0,0,1-.53-.47v-.82a.48.48,0,0,1,.15-.38.65.65,0,0,1,.44-.18c.15,0,.28.07.28.2S11,28,10.87,28s-.16.06-.16.17V29s0,.12.06.12.11-.05.14-.07L13,27.76a.65.65,0,0,1,.38-.12.56.56,0,0,1,.45.2.42.42,0,0,1,.08.31v.79a.47.47,0,0,1-.16.37.71.71,0,0,1-.44.18c-.15,0-.27-.06-.27-.19s.09-.18.22-.18.18-.06.18-.18v-.79s0-.13-.07-.13a.33.33,0,0,0-.13.06Z" style="fill: #fff"/>
      <path d="M10.24,31.34c0-.28.14-.44.44-.56l.87-.34a1.27,1.27,0,0,1,.49-.1,1.23,1.23,0,0,1,.52.1l.87.34c.32.13.45.29.45.58V32c0,.08-.06.19-.23.19s-.23-.1-.23-.19v-.62c0-.16,0-.19-.2-.26l-.82-.33a.87.87,0,0,0-.36-.08.78.78,0,0,0-.32.08l-.81.32c-.19.08-.21.11-.21.28V32c0,.08-.06.19-.23.19s-.23-.1-.23-.19Z" style="fill: #fff"/>
      <path d="M10.71,34.69c0,.1-.07.19-.23.19s-.23-.09-.23-.19V33h3.41c.15,0,.23.05.23.19s-.08.19-.23.19H10.71Z" style="fill: #fff"/>
    </g>
    <g>
      <path d="M17.43,28.75c0-.26.14-.41.44-.52l.87-.32a1.34,1.34,0,0,1,.49-.09,1.32,1.32,0,0,1,.52.1l.87.32c.32.12.45.27.45.53v.59c0,.08-.06.17-.23.17s-.23-.09-.23-.17v-.58c0-.15,0-.17-.2-.24l-.82-.3a.93.93,0,0,0-.36-.07.82.82,0,0,0-.32.07l-.81.29c-.19.07-.21.1-.21.26v.57c0,.08-.06.17-.23.17s-.23-.09-.23-.17Z" style="fill: #fff"/>
      <path d="M17.9,31.85c0,.09-.07.17-.23.17s-.23-.08-.23-.17V30.31h3.41c.15,0,.23,0,.23.17s-.08.17-.23.17H17.9Z" style="fill: #fff"/>
      <path d="M20.84,32.8c.15,0,.23,0,.23.17s-.08.17-.23.17H19.76L21,34.21s.09.09.09.14-.11.17-.24.17a.31.31,0,0,1-.2-.08l-1.38-1.19-1.38,1.19a.3.3,0,0,1-.2.09c-.13,0-.24-.07-.24-.17s.08-.13.14-.19l1.18-1H17.66c-.15,0-.23,0-.23-.17s.08-.17.23-.17Z" style="fill: #fff"/>
    </g>
    <g>
      <path d="M27.15,29.87h.75c.15,0,.23,0,.23.17s-.08.17-.23.17h-.74a.66.66,0,0,1-.18,0l-2.28-.65c-.12,0-.21-.07-.21-.17s.09-.14.21-.17L27,28.55a.66.66,0,0,1,.18,0h.74c.15,0,.23,0,.23.17s-.08.17-.23.17h-.75l-1.79.5Z" style="fill: #fff"/>
      <path d="M25,32v.5c0,.09-.07.17-.23.17s-.23-.08-.23-.17V31.16c0-.09.07-.17.23-.17s.23.08.23.17v.5h2.71v-.5c0-.09.07-.17.23-.17s.23.08.23.17v1.35c0,.09-.07.17-.23.17s-.23-.08-.23-.17V32Z" style="fill: #fff"/>
      <path d="M26.82,35a1.38,1.38,0,0,1-.52.09,1.47,1.47,0,0,1-.56-.11l-.86-.31c-.22-.08-.39-.22-.39-.42s.16-.33.39-.42l.86-.31a1.47,1.47,0,0,1,.56-.11,1.38,1.38,0,0,1,.52.09l.93.34c.22.08.38.22.38.41s-.16.33-.38.41Zm.71-.64c.08,0,.14,0,.14-.12s-.07-.09-.14-.12l-.85-.31a.93.93,0,0,0-.38-.08.83.83,0,0,0-.31.06l-.89.33c-.07,0-.14,0-.14.12s.08.09.14.12l.89.33a.83.83,0,0,0,.31.06.93.93,0,0,0,.38-.08Z" style="fill: #fff"/>
    </g>
    <g>
      <path d="M32.88,29.78a.68.68,0,0,1-.39.13.48.48,0,0,1-.53-.48v-.85a.5.5,0,0,1,.15-.39.65.65,0,0,1,.44-.18c.15,0,.28.07.28.2s-.11.18-.24.18-.16.06-.16.17v.83s0,.13.06.13.11-.05.14-.07l2.07-1.32a.63.63,0,0,1,.38-.13.55.55,0,0,1,.45.2.44.44,0,0,1,.08.32v.82a.49.49,0,0,1-.16.38.7.7,0,0,1-.44.18c-.15,0-.27-.06-.27-.2s.09-.18.22-.18.18-.07.18-.18v-.81s0-.13-.07-.13a.33.33,0,0,0-.13.06Z" style="fill: #fff"/>
      <path d="M35.14,31.15V31a.23.23,0,0,1,.47,0v.64c0,.3-.15.45-.47.58l-.82.34a1.29,1.29,0,0,1-1.06,0l-.85-.35a.58.58,0,0,1-.44-.61V31c0-.1.07-.19.23-.19s.23.09.23.19v.18Zm-2.71.38v.07c0,.16,0,.2.2.27l.83.34a.77.77,0,0,0,.3.07.91.91,0,0,0,.38-.1l.79-.32c.2-.08.2-.12.2-.29v0Z" style="fill: #fff"/>
      <path d="M35.36,34.3c.13,0,.24.07.24.2s-.12.17-.24.2l-3.17.74a.2.2,0,0,1-.23-.18c0-.12.12-.18.23-.21l.56-.14v-.82l-.56-.15c-.11,0-.23-.09-.23-.21a.2.2,0,0,1,.23-.18Zm-.87.2h0l-1.27-.3v.6Z" style="fill: #fff"/>
    </g>
    <g>
      <path d="M40.22,29.65a.7.7,0,0,1-.38.14.47.47,0,0,1-.54-.45l0-.81a.47.47,0,0,1,.14-.38.66.66,0,0,1,.43-.19c.15,0,.28.06.29.19s-.11.18-.23.18-.16.07-.15.17l0,.8s0,.12.06.12a.48.48,0,0,0,.13-.07L42,28a.65.65,0,0,1,.38-.14.57.57,0,0,1,.46.18.41.41,0,0,1,.09.3l0,.78a.46.46,0,0,1-.14.37.72.72,0,0,1-.44.19c-.15,0-.27,0-.28-.18s.08-.18.21-.19.18-.07.18-.18l0-.78s0-.13-.07-.12a.34.34,0,0,0-.12.06Z" style="fill: #fff"/>
      <path d="M39.28,31.81c0-.28.13-.44.43-.57l.86-.37a1.29,1.29,0,0,1,.49-.12,1.23,1.23,0,0,1,.52.08l.88.31c.33.11.46.27.47.55l0,.63c0,.08,0,.19-.23.19s-.24-.09-.24-.18l0-.62c0-.16,0-.18-.21-.25l-.83-.29a.89.89,0,0,0-.36-.06.8.8,0,0,0-.32.09l-.8.34c-.19.08-.2.12-.2.29l0,.6c0,.08-.05.19-.23.19s-.24-.09-.24-.18Z" style="fill: #fff"/>
      <path d="M39.77,35.26c0,.1-.06.19-.23.19s-.24-.08-.24-.18l-.05-1.64,3.41-.12c.15,0,.24,0,.24.18s-.08.19-.23.19L39.73,34Z" style="fill: #fff"/>
    </g>
    <g>
      <path d="M54.29,29v.52c0,.09-.07.18-.23.18s-.23-.09-.23-.18v-1.4c0-.09.07-.18.23-.18s.23.09.23.18v.52H57v-.52c0-.09.07-.18.23-.18s.23.09.23.18v1.4c0,.09-.07.18-.23.18s-.23-.09-.23-.18V29Z" style="fill: #fff"/>
      <path d="M57.23,31.95c.15,0,.23,0,.23.18s-.08.18-.23.18H53.82v-.47l2.81-.93H54.06c-.15,0-.23,0-.23-.18s.08-.18.23-.18h3.41V31l-2.84.93h2.6Z" style="fill: #fff"/>
      <path d="M57,33.46h-.17c-.15,0-.23,0-.23-.18s.08-.18.23-.18h.64v1.76h-.64c-.15,0-.23,0-.23-.18s.08-.18.23-.18H57v-.34H54.06c-.15,0-.23,0-.23-.18s.08-.18.23-.18H57Z" style="fill: #fff"/>
    </g>
    <g>
      <path d="M47.28,27.09a.73.73,0,0,1-.39.12c-.35,0-.53-.19-.53-.43V26a.42.42,0,0,1,.15-.35.69.69,0,0,1,.44-.16c.15,0,.28.06.28.18s-.11.16-.24.16-.16.05-.16.15v.74s0,.11.06.11a.46.46,0,0,0,.14-.06l2.07-1.17a.69.69,0,0,1,.38-.11.59.59,0,0,1,.45.18A.36.36,0,0,1,50,26v.72a.41.41,0,0,1-.15.34.74.74,0,0,1-.45.16c-.15,0-.27-.05-.27-.18s.09-.16.22-.16.18-.06.18-.16V26s0-.12-.07-.12a.35.35,0,0,0-.13.05Z" style="fill: #fff"/>
      <path d="M46.6,29c-.15,0-.23,0-.23-.17s.08-.17.23-.17h1.5L49.3,28h.48c.15,0,.23,0,.23.17s-.08.17-.23.17h-.32l-.89.5.89.5h.32c.15,0,.23,0,.23.17s-.08.17-.23.17H49.3L48.1,29Z" style="fill: #fff"/>
      <path d="M49.77,31.79c.15,0,.23,0,.23.17s-.08.17-.23.17H46.36v-.45l2.81-.89H46.6c-.15,0-.23,0-.23-.17s.08-.17.23-.17H50v.45l-2.84.89h2.6Z" style="fill: #fff"/>
      <path d="M46.37,33.82c0-.26.14-.4.45-.51l.87-.31a1.36,1.36,0,0,1,.49-.09,1.33,1.33,0,0,1,.52.1l.87.31c.32.12.45.26.45.53v.58c0,.07-.06.17-.23.17s-.23-.09-.23-.17v-.57c0-.15,0-.17-.2-.24l-.82-.3a.94.94,0,0,0-.36-.07.84.84,0,0,0-.32.07l-.81.29c-.19.07-.21.1-.21.26v.56c0,.07-.06.17-.23.17s-.23-.09-.23-.17Z" style="fill: #fff"/>
    </g>
    <g>
      <path d="M62.09,28.34a.24.24,0,0,1,.47,0v.86h-.92a.67.67,0,0,1-.74-.7v-.75a.63.63,0,0,1,.19-.5.7.7,0,0,1,.58-.2h1.17a1,1,0,0,1,.68.23l.71.51a.65.65,0,0,1,.32.61V29a.24.24,0,0,1-.47,0v-.52c0-.24,0-.22-.19-.37l-.65-.47a.94.94,0,0,0-.61-.13h-.92c-.26,0-.34.05-.34.3v.69c0,.16,0,.29.24.29h.48Z" style="fill: #fff"/>
      <path d="M64.31,31.9c.15,0,.23.06.23.22s-.08.22-.23.22H60.9v-.57l2.81-1.14H61.14c-.15,0-.23-.06-.23-.22s.08-.22.23-.22h3.41v.57L61.7,31.89h2.6Z" style="fill: #fff"/>
      <path d="M64.08,33.74v-.16c0-.14.06-.27.23-.27a.22.22,0,0,1,.23.25v.73a.66.66,0,0,1-.47.66l-.82.38a1.16,1.16,0,0,1-.54.13,1.18,1.18,0,0,1-.51-.13l-.85-.4a.65.65,0,0,1-.44-.69v-.72a.23.23,0,0,1,.47,0v.21Zm-2.71.43v.08c0,.18,0,.23.2.3l.83.38a.69.69,0,0,0,.3.08.82.82,0,0,0,.38-.11l.79-.36c.2-.09.2-.13.2-.33v-.05Z" style="fill: #fff"/>
    </g>
    <g>
      <path d="M70.66,28.76h.75c.15,0,.23.06.23.22s-.08.22-.23.22h-.74a.5.5,0,0,1-.18,0l-2.28-.83c-.12,0-.21-.08-.21-.22s.09-.17.21-.22l2.28-.83a.52.52,0,0,1,.18,0h.74c.15,0,.23.06.23.22s-.08.22-.23.22h-.75l-1.79.64Z" style="fill: #fff"/>
      <path d="M71.17,30.61v-.16c0-.14.06-.27.23-.27a.22.22,0,0,1,.23.25v.73a.66.66,0,0,1-.47.66l-.82.38a1.16,1.16,0,0,1-.54.13,1.18,1.18,0,0,1-.51-.13l-.85-.4a.65.65,0,0,1-.44-.69V30.4a.23.23,0,0,1,.47,0v.21ZM68.46,31v.08c0,.18,0,.23.2.3l.83.38a.69.69,0,0,0,.3.08.82.82,0,0,0,.38-.11l.79-.36c.2-.09.2-.13.2-.33V31Z" style="fill: #fff"/>
      <path d="M71.17,33.74v-.16c0-.14.06-.27.23-.27a.22.22,0,0,1,.23.25v.73a.66.66,0,0,1-.47.66l-.82.38a1.16,1.16,0,0,1-.54.13,1.18,1.18,0,0,1-.51-.13l-.85-.4a.65.65,0,0,1-.44-.69v-.72a.23.23,0,0,1,.47,0v.21Zm-2.71.43v.08c0,.18,0,.23.2.3l.83.38a.69.69,0,0,0,.3.08.82.82,0,0,0,.38-.11l.79-.36c.2-.09.2-.13.2-.33v-.05Z" style="fill: #fff"/>
    </g>
    <path d="M9.82,16.26,7.31,14.89v1.18a.21.21,0,0,1-.41,0V14.38h.26l2.51,1.37V14.57a.21.21,0,0,1,.41,0v1.69Z" style="fill: #fff"/>
    <path d="M12.08,15.51c-.13,0-.21-.05-.21-.19s.07-.19.21-.19h1.31l1-.75h.42c.13,0,.2.05.2.19s-.07.19-.2.19h-.28l-.78.56.78.56h.28c.13,0,.2.05.2.19s-.07.19-.2.19h-.42l-1-.75Z" style="fill: #fff"/>
    <path d="M18.34,15.1l1.25-.68a.27.27,0,0,1,.15,0,.19.19,0,0,1,.19.19c0,.13-.1.17-.2.22l-1,.53,1,.53c.1.05.2.1.2.22a.19.19,0,0,1-.19.19.27.27,0,0,1-.15,0l-1.25-.68-1.25.68a.27.27,0,0,1-.15,0,.19.19,0,0,1-.19-.19c0-.13.1-.17.2-.22l1-.53-1-.53c-.1-.05-.2-.1-.2-.22a.19.19,0,0,1,.19-.19.27.27,0,0,1,.15,0Z" style="fill: #fff"/>
    <g>
      <path d="M57.9,16c.11,0,.21.06.21.17s-.1.15-.21.17l-2.77.62a.17.17,0,0,1-.2-.16c0-.1.11-.15.2-.17l.49-.12v-.69l-.49-.12c-.1,0-.2-.07-.2-.17a.17.17,0,0,1,.2-.16Zm-.76.17h0L56,15.88v.51Z" style="fill: #fff"/>
      <path d="M57.7,18v-.12a.21.21,0,0,1,.41,0v.54c0,.25-.13.38-.41.49l-.72.28a1.17,1.17,0,0,1-.92,0l-.75-.29a.49.49,0,0,1-.38-.51v-.54c0-.08.06-.16.2-.16s.21.08.21.16V18Zm-2.36.32v.06c0,.14,0,.17.17.23l.73.28a.67.67,0,0,0,.27.06.81.81,0,0,0,.33-.08l.69-.27c.18-.07.17-.1.17-.25v0Z" style="fill: #fff"/>
      <path d="M58.11,21.27a.38.38,0,0,1-.41.32H55.33a.37.37,0,0,1-.41-.32v-1a.37.37,0,0,1,.41-.32H57.7a.38.38,0,0,1,.41.32Zm-2.77,0H57.7v-1H55.33Z" style="fill: #fff"/>
    </g>
  </g>
  <g id="Connectors">
    <circle cx="47.73" cy="39.62" id="connector6pin" r="2.05" style="fill: none;stroke: #e8e5df;stroke-miterlimit: 10"/>
    <circle cx="69.32" cy="39.63" data-cir-type="male" id="circuitoCon_VCC" r="2.05" style="fill: none;stroke: #e8e5df;stroke-miterlimit: 10"/>
    <circle cx="54.92" cy="39.61" data-name="connector6pin" id="connector6pin-2" r="2.05" style="fill: none;stroke: #e8e5df;stroke-miterlimit: 10"/>
    <circle cx="62.12" cy="39.62" data-cir-type="male" id="circuitoCon_GND" r="2.05" style="fill: none;stroke: #e8e5df;stroke-miterlimit: 10"/>
    <circle cx="26.13" cy="39.62" data-cir-type="male" id="circuitoCon_VIO" r="2.05" style="fill: none;stroke: #e8e5df;stroke-miterlimit: 10"/>
    <circle cx="33.33" cy="39.62" data-cir-type="male" id="circuitoCon_SDA" r="2.05" style="fill: none;stroke: #e8e5df;stroke-miterlimit: 10"/>
    <circle cx="40.53" cy="39.63" data-cir-type="male" id="circuitoCon_SCL" r="2.05" style="fill: none;stroke: #e8e5df;stroke-miterlimit: 10"/>
    <circle cx="4.53" cy="39.63" data-name="connector6pin" id="connector6pin-3" r="2.05" style="fill: none;stroke: #e8e5df;stroke-miterlimit: 10"/>
    <circle cx="11.73" cy="39.62" data-name="connector6pin" id="connector6pin-4" r="2.05" style="fill: none;stroke: #e8e5df;stroke-miterlimit: 10"/>
    <circle cx="18.93" cy="39.63" data-name="connector6pin" id="connector6pin-5" r="2.05" style="fill: none;stroke: #e8e5df;stroke-miterlimit: 10"/>
  </g>
</svg>