<?xml version="1.0" ?><svg height="15.41mm" viewBox="0 0 72.12 43.68" width="25.44mm" xmlns="http://www.w3.org/2000/svg">
  <title>Triple Axis Accelerometer ,Gyro and Magnetometer Breakout - MPU-9255</title>
  <g data-name="Layer 6" id="Layer_6">
    <path d="M1.42.61,1,1.07.72,38.14l1.69-2V29.26q.33-.34.66-.72l.25-.3L3.22,15.33a5,5,0,0,1,2.57-2.55H15.88l.95-.95V4.26l2.06-2.06H39.69l2.45,3H43.5a2.16,2.16,0,0,1,1.22-.5,2.2,2.2,0,0,1,1.53.5h8.94l4.91,4.91v7.78l.33-.33a2.32,2.32,0,0,1,1.89.13,2.23,2.23,0,0,1,.94,1.06,3,3,0,0,1,0,2.07,2.91,2.91,0,0,1-.79,1.12v9.61l4.66,4.66a5.09,5.09,0,0,1,4.13,1.22l.36-.36V.61H1.42Z" style="fill: none" transform="translate(0 0.36)"/>
    <path d="M0-.36V43.32H72.12V-.36ZM3.66,41A1.38,1.38,0,1,1,5,39.61,1.38,1.38,0,0,1,3.66,41Zm7.2,0a1.38,1.38,0,1,1,1.38-1.38A1.38,1.38,0,0,1,10.86,41Zm7.2,0a1.38,1.38,0,1,1,1.38-1.38A1.38,1.38,0,0,1,18.06,41Zm7.2,0a1.38,1.38,0,1,1,1.38-1.38A1.38,1.38,0,0,1,25.26,41Zm7.2,0a1.38,1.38,0,1,1,1.38-1.38A1.38,1.38,0,0,1,32.46,41Zm7.2,0A1.38,1.38,0,1,1,41,39.61,1.38,1.38,0,0,1,39.66,41Zm7.2,0a1.38,1.38,0,1,1,1.38-1.38A1.38,1.38,0,0,1,46.86,41Zm7.2,0a1.38,1.38,0,1,1,1.38-1.38A1.38,1.38,0,0,1,54.06,41Zm7.2,0a1.38,1.38,0,1,1,1.38-1.38A1.38,1.38,0,0,1,61.26,41Zm7.2,0a1.38,1.38,0,1,1,1.38-1.38A1.38,1.38,0,0,1,68.46,41Zm3.12-4-.36.36a5.09,5.09,0,0,0-4.12-1.22l-4.66-4.66V21.91a2.91,2.91,0,0,0,.79-1.12,3,3,0,0,0,0-2.07,2.23,2.23,0,0,0-.94-1.06,2.32,2.32,0,0,0-1.89-.13l-.33.33V10.08L55.19,5.17H46.25a2.2,2.2,0,0,0-1.53-.5,2.16,2.16,0,0,0-1.22.5H42.14l-2.45-3H18.88L16.82,4.26v7.56l-.95.95H5.79a5,5,0,0,0-2.57,2.55l.09,12.92-.25.3q-.33.38-.66.72v6.91l-1.69,2L1,1.07,1.42.61H71.58Z" style="fill: #1a2c80" transform="translate(0 0.36)"/>
  </g>
  <g data-name="Layer 5" id="Layer_5">
    <circle cx="61.4" cy="19.21" r="1.12" style="fill: #0b5597"/>
    <circle cx="54.27" cy="19.27" r="1.12" style="fill: #0b5597"/>
    <circle cx="44.98" cy="6.6" r="1.12" style="fill: #0b5597"/>
    <circle cx="41.07" cy="12.28" r="1.12" style="fill: #0b5597"/>
    <circle cx="38.7" cy="12.24" r="1.12" style="fill: #0b5597"/>
    <circle cx="29.39" cy="15.66" r="1.12" style="fill: #0b5597"/>
    <circle cx="35.8" cy="27.64" r="1.12" style="fill: #0b5597"/>
    <circle cx="44.27" cy="22.52" r="1.12" style="fill: none;stroke: #0b5597;stroke-miterlimit: 10"/>
    <circle cx="50.42" cy="29.05" r="1.12" style="fill: none;stroke: #0b5597;stroke-miterlimit: 10;stroke-width: 0.7000000000000001px"/>
    <circle cx="27.6" cy="6.46" r="1.12" style="fill: #0b5597"/>
    <circle cx="21.85" cy="9.98" r="1.12" style="fill: #0b5597"/>
    <circle cx="50.55" cy="19.27" r="1.12" style="fill: #0b5597"/>
    <polyline points="41.58 23.08 42.14 23.64 42.14 31.46 39.74 33.86 39.74 37.29" style="fill: none;stroke: #0b5597;stroke-miterlimit: 10;stroke-width: 0.7000000000000001px"/>
    <polyline points="45.39 38.4 44.12 37.12 44.12 25.5 45.5 24.12 49.78 24.12" style="fill: none;stroke: #0b5597;stroke-miterlimit: 10;stroke-width: 0.7000000000000001px"/>
    <path d="M44,21.35" style="fill: none;stroke: #0b5597;stroke-miterlimit: 10;stroke-width: 0.7000000000000001px" transform="translate(0 0.36)"/>
    <line style="fill: none;stroke: #0b5597;stroke-miterlimit: 10;stroke-width: 0.7000000000000001px" x1="43.56" x2="41.33" y1="21.91" y2="21.91"/>
    <polyline points="41.69 20.66 43.96 20.66 44.71 19.9 48.08 19.9 49.47 21.29" style="fill: none;stroke: #0b5597;stroke-miterlimit: 10;stroke-width: 0.7000000000000001px"/>
    <polyline points="41.56 19.58 43.15 19.58 45.91 16.82" style="fill: none;stroke: #0b5597;stroke-miterlimit: 10;stroke-width: 0.7000000000000001px"/>
    <polyline points="41.56 18.36 42.35 18.36 44.44 16.27 44.44 11.12 45.25 10.31 53.15 10.31 54.14 11.3 54.14 18.41" style="fill: none;stroke: #0b5597;stroke-miterlimit: 10;stroke-width: 0.7000000000000001px"/>
    <polyline points="41.78 17.19 43.44 15.53 43.44 9.69 44.46 8.66 54.14 8.66 56.41 10.94 56.41 37.44 55.83 38.02" style="fill: none;stroke: #0b5597;stroke-miterlimit: 10;stroke-width: 0.7000000000000001px"/>
    <polyline points="45.86 6.6 54.79 6.6 58.8 10.61 58.8 36.54 60.12 37.86" style="fill: none;stroke: #0b5597;stroke-miterlimit: 10;stroke-width: 0.7000000000000001px"/>
    <polyline points="61.4 20.33 61.4 32.35 66.9 37.85" style="fill: none;stroke: #0b5597;stroke-miterlimit: 10;stroke-width: 0.7000000000000001px"/>
    <polyline points="32.96 25.67 32.96 26.93 33.63 27.59 35.14 27.59" style="fill: none;stroke: #0b5597;stroke-miterlimit: 10;stroke-width: 0.7000000000000001px"/>
    <path d="M30.51,23c-.05.07-3.08,3.08-3.08,3.08H25.85" style="fill: none;stroke: #0b5597;stroke-miterlimit: 10;stroke-width: 0.7000000000000001px" transform="translate(0 0.36)"/>
    <polyline points="30.21 21.83 27.87 24.18 22.42 24.18" style="fill: none;stroke: #0b5597;stroke-miterlimit: 10;stroke-width: 0.7000000000000001px"/>
    <line style="fill: none;stroke: #0b5597;stroke-miterlimit: 10;stroke-width: 0.7000000000000001px" x1="24.29" x2="22.88" y1="21.95" y2="21.95"/>
    <polyline points="30.71 19.44 29.77 19.44 29.11 18.78 29.11 16.5" style="fill: none;stroke: #0b5597;stroke-miterlimit: 10;stroke-width: 0.7000000000000001px"/>
    <polyline points="26.13 13.27 27.13 13.27 27.51 13.66 27.51 19.35 28.94 20.78 30.51 20.78" style="fill: none;stroke: #0b5597;stroke-miterlimit: 10;stroke-width: 0.7000000000000001px"/>
    <polyline points="26.48 11.4 27.6 11.4 27.6 7.46" style="fill: none;stroke: #0b5597;stroke-miterlimit: 10;stroke-width: 0.7000000000000001px"/>
    <line style="fill: none;stroke: #0b5597;stroke-miterlimit: 10;stroke-width: 0.7000000000000001px" x1="21.54" x2="21.54" y1="18.25" y2="20.57"/>
    <polyline points="21.55 27.78 21.55 33.73 18.03 37.25 18.21 37.92" style="fill: none;stroke: #0b5597;stroke-miterlimit: 10;stroke-width: 0.7000000000000001px"/>
    <polyline points="4.52 16.33 6.27 14.48 16.25 14.48 18.05 12.68 18.05 5.48 19.64 3.89 38.39 3.89 39.2 4.69 39.97 5.46 39.97 6.22" style="fill: none;stroke: #0b5597;stroke-miterlimit: 10"/>
    <line style="fill: none;stroke: #0b5597;stroke-miterlimit: 10" x1="13.66" x2="13.66" y1="14.85" y2="20.57"/>
    <polyline points="4.42 26.93 4.42 28.88 16.71 28.88 18.04 27.54 18.04 25.86" style="fill: none;stroke: #0b5597;stroke-miterlimit: 10"/>
    <line style="fill: none;stroke: #0b5597;stroke-miterlimit: 10" x1="13.66" x2="13.66" y1="24.5" y2="28.79"/>
    <line style="fill: none;stroke: #0b5597;stroke-miterlimit: 10" x1="9.77" x2="9.77" y1="26.45" y2="28.55"/>
    <path d="M49.47,28H46.71l-1.54,2.41v5.75a4.17,4.17,0,0,1,5.08,2.77h.43a3.86,3.86,0,0,1,2-2.52,3.76,3.76,0,0,1,2.67-.17v-8.1" style="fill: #0b5597" transform="translate(0 0.36)"/>
    <path d="M5,36.06V29.81H17.21l2.15-2.15h1v5.53a4.17,4.17,0,0,0-2.93,2.93,3.35,3.35,0,0,0-1.74.78,3.38,3.38,0,0,0-1.1,2h-.33A6,6,0,0,0,11.39,36v.8l-.95,0V36a3,3,0,0,0-2.92,2.72H7Z" style="fill: #0b5597" transform="translate(0 0.36)"/>
    <path d="M18.25,34.67" style="fill: none" transform="translate(0 0.36)"/>
    <polyline points="4.75 28.69 3.56 29.88 3.56 37.09 3.56 37.55" style="fill: none;stroke: #0b5597;stroke-miterlimit: 10"/>
    <line style="fill: none;stroke: #0b5597;stroke-miterlimit: 10" x1="25.26" x2="25.26" y1="27.64" y2="37.77"/>
    <polygon points="19.42 20.3 20.38 20.3 20.38 18.81 19.97 18.81 19.79 18.81 19.79 16.52 18.17 14.9 17.57 15.5 15.31 15.5 15.31 18.29 15.98 18.96 16.39 20.16 19.42 20.3" style="fill: #0b5597"/>
    <line style="fill: none;stroke: #0b5597;stroke-miterlimit: 10" x1="17.73" x2="20.86" y1="13" y2="16.13"/>
    <polyline points="6.27 19.21 6.27 18.73 6.1 18.73 6 16.96 6.88 15.69 8.25 15.69 8.79 16.33 8.85 18.73 8.52 19 8.46 19.41" style="fill: #0b5597"/>
    <polyline points="21.24 10.92 21.14 10.53 19.94 10.69 19.78 10.17 19.78 6.16 20.13 5.75 25.91 5.75 25.91 7.58 26.28 7.58 26.59 7.98 26.59 10.69 22.56 10.69" style="fill: #0b5597"/>
    <path d="M1.42.61,1,1.07.72,38.14l1.69-2V29.26q.33-.34.66-.72l.25-.3L3.22,15.33a5,5,0,0,1,2.57-2.55H15.88l.95-.95V4.26l2.06-2.06H39.69l2.45,3H43.5a2.16,2.16,0,0,1,1.22-.5,2.2,2.2,0,0,1,1.53.5h8.94l4.91,4.91v7.78l.33-.33a2.32,2.32,0,0,1,1.89.13,2.23,2.23,0,0,1,.94,1.06,3,3,0,0,1,0,2.07,2.91,2.91,0,0,1-.79,1.12v9.61l4.66,4.66a5.09,5.09,0,0,1,4.13,1.22l.36-.36V.61H1.42ZM7.07,10.92a4.41,4.41,0,1,1,4.41-4.41A4.41,4.41,0,0,1,7.07,10.92Zm58,0A4.41,4.41,0,1,1,69.5,6.51,4.41,4.41,0,0,1,65.1,10.92Z" style="fill: #0b5597" transform="translate(0 0.36)"/>
  </g>
  <g data-name="Layer 4" id="Layer_4">
    <rect height="0.97" style="fill: #998675" width="0.81" x="39.69" y="16.75"/>
    <rect height="0.72" style="fill: #fffaff" width="1.61" x="40.36" y="16.83"/>
    <rect height="0.97" style="fill: #998675" width="0.81" x="39.69" y="17.92"/>
    <rect height="0.72" style="fill: #fffaff" width="1.61" x="40.36" y="18"/>
    <rect height="0.97" style="fill: #998675" width="0.81" x="39.69" y="19"/>
    <rect height="0.72" style="fill: #fffaff" width="1.61" x="40.36" y="19.08"/>
    <rect height="0.97" style="fill: #998675" width="0.81" x="39.69" y="20.17"/>
    <rect height="0.72" style="fill: #fffaff" width="1.61" x="40.36" y="20.25"/>
    <rect height="0.97" style="fill: #998675" width="0.81" x="39.69" y="21.47"/>
    <rect height="0.72" style="fill: #fffaff" width="1.61" x="40.36" y="21.55"/>
    <rect height="0.97" style="fill: #998675" width="0.81" x="39.69" y="22.59"/>
    <rect height="0.72" style="fill: #fffaff" width="1.61" x="40.36" y="22.67"/>
    <rect height="0.97" style="fill: #998675" transform="translate(63.95 45.65) rotate(180)" width="0.81" x="31.57" y="22.16"/>
    <rect height="0.72" style="fill: #fffaff" transform="translate(61.81 45.74) rotate(180)" width="1.61" x="30.1" y="22.33"/>
    <rect height="0.97" style="fill: #998675" transform="translate(63.95 43.31) rotate(180)" width="0.81" x="31.57" y="20.99"/>
    <rect height="0.72" style="fill: #fffaff" transform="translate(61.81 43.4) rotate(180)" width="1.61" x="30.1" y="21.16"/>
    <rect height="0.97" style="fill: #998675" transform="translate(63.95 41.15) rotate(180)" width="0.81" x="31.57" y="19.91"/>
    <rect height="0.72" style="fill: #fffaff" transform="translate(61.81 41.24) rotate(180)" width="1.61" x="30.1" y="20.08"/>
    <rect height="0.97" style="fill: #998675" transform="translate(63.95 38.81) rotate(180)" width="0.81" x="31.57" y="18.74"/>
    <rect height="0.72" style="fill: #fffaff" transform="translate(61.81 38.9) rotate(180)" width="1.61" x="30.1" y="18.91"/>
    <rect height="0.97" style="fill: #998675" transform="translate(63.95 36.21) rotate(180)" width="0.81" x="31.57" y="17.44"/>
    <rect height="0.72" style="fill: #fffaff" transform="translate(61.81 36.31) rotate(180)" width="1.61" x="30.1" y="17.61"/>
    <rect height="0.97" style="fill: #998675" transform="translate(63.95 33.96) rotate(180)" width="0.81" x="31.57" y="16.32"/>
    <rect height="0.72" style="fill: #fffaff" transform="translate(61.81 34.06) rotate(180)" width="1.61" x="30.1" y="16.49"/>
    <rect height="0.97" style="fill: #998675" transform="translate(62.59 -14.8) rotate(90)" width="0.81" x="38.47" y="23.23"/>
    <rect height="0.72" style="fill: #fffaff" transform="translate(63.71 -13.77) rotate(90)" width="1.61" x="38.12" y="24.43"/>
    <rect height="0.97" style="fill: #998675" transform="translate(61.42 -13.62) rotate(90)" width="0.81" x="37.3" y="23.23"/>
    <rect height="0.72" style="fill: #fffaff" transform="translate(62.54 -12.6) rotate(90)" width="1.61" x="36.95" y="24.43"/>
    <rect height="0.97" style="fill: #998675" transform="translate(60.34 -12.55) rotate(90)" width="0.81" x="36.22" y="23.23"/>
    <rect height="0.72" style="fill: #fffaff" transform="translate(61.46 -11.52) rotate(90)" width="1.61" x="35.87" y="24.43"/>
    <rect height="0.97" style="fill: #998675" transform="translate(59.17 -11.37) rotate(90)" width="0.81" x="35.05" y="23.23"/>
    <rect height="0.72" style="fill: #fffaff" transform="translate(60.29 -10.35) rotate(90)" width="1.61" x="34.7" y="24.43"/>
    <rect height="0.97" style="fill: #998675" transform="translate(57.87 -10.08) rotate(90)" width="0.81" x="33.75" y="23.23"/>
    <rect height="0.72" style="fill: #fffaff" transform="translate(58.99 -9.05) rotate(90)" width="1.61" x="33.4" y="24.43"/>
    <rect height="0.97" style="fill: #998675" transform="translate(56.75 -8.95) rotate(90)" width="0.81" x="32.63" y="23.23"/>
    <rect height="0.72" style="fill: #fffaff" transform="translate(57.87 -7.93) rotate(90)" width="1.61" x="32.27" y="24.43"/>
    <rect height="0.97" style="fill: #998675" transform="translate(17.22 48.71) rotate(-90)" width="0.81" x="32.38" y="15.08"/>
    <rect height="0.72" style="fill: #fffaff" transform="translate(18.25 47.59) rotate(-90)" width="1.61" x="31.93" y="14.13"/>
    <rect height="0.97" style="fill: #998675" transform="translate(18.4 49.88) rotate(-90)" width="0.81" x="33.55" y="15.08"/>
    <rect height="0.72" style="fill: #fffaff" transform="translate(19.42 48.76) rotate(-90)" width="1.61" x="33.11" y="14.13"/>
    <rect height="0.97" style="fill: #998675" transform="translate(19.47 50.96) rotate(-90)" width="0.81" x="34.63" y="15.08"/>
    <rect height="0.72" style="fill: #fffaff" transform="translate(20.5 49.84) rotate(-90)" width="1.61" x="34.18" y="14.13"/>
    <rect height="0.97" style="fill: #998675" transform="translate(20.65 52.13) rotate(-90)" width="0.81" x="35.8" y="15.08"/>
    <rect height="0.72" style="fill: #fffaff" transform="translate(21.67 51.01) rotate(-90)" width="1.61" x="35.36" y="14.13"/>
    <rect height="0.97" style="fill: #998675" transform="translate(21.94 53.43) rotate(-90)" width="0.81" x="37.1" y="15.08"/>
    <rect height="0.72" style="fill: #fffaff" transform="translate(22.97 52.31) rotate(-90)" width="1.61" x="36.65" y="14.13"/>
    <rect height="0.97" style="fill: #998675" transform="translate(23.07 54.55) rotate(-90)" width="0.81" x="38.22" y="15.08"/>
    <rect height="0.72" style="fill: #fffaff" transform="translate(24.09 53.43) rotate(-90)" width="1.61" x="37.78" y="14.13"/>
    <rect height="8.5" style="fill: #292929" width="8.33" x="31.54" y="15.83"/>
    <rect height="1.64" style="fill: #b1aeaa" transform="translate(35.27 16.08) rotate(90)" width="2.14" x="8.71" y="24.68"/>
    <rect height="1.17" style="fill: #bcbcbc" transform="translate(33.71 14.55) rotate(90)" width="0.96" x="9.28" y="23.37"/>
    <rect height="1.64" style="fill: #b1aeaa" transform="translate(32.59 18.77) rotate(90)" width="2.14" x="6.02" y="24.68"/>
    <rect height="1.17" style="fill: #bcbcbc" transform="translate(31.03 17.24) rotate(90)" width="0.96" x="6.59" y="23.37"/>
    <rect height="1.64" style="fill: #b1aeaa" transform="translate(29.93 21.43) rotate(90)" width="2.14" x="3.36" y="24.68"/>
    <rect height="1.17" style="fill: #bcbcbc" transform="translate(28.37 19.9) rotate(90)" width="0.96" x="3.94" y="23.37"/>
    <rect height="1.64" style="fill: #b1aeaa" transform="translate(-12.31 21.69) rotate(-90)" width="2.14" x="3.44" y="16"/>
    <rect height="1.17" style="fill: #bcbcbc" transform="translate(-13.85 23.25) rotate(-90)" width="0.96" x="4.04" y="17.78"/>
    <rect height="1.64" style="fill: #b1aeaa" transform="translate(-7.01 27) rotate(-90)" width="2.14" x="8.75" y="16"/>
    <rect height="1.17" style="fill: #bcbcbc" transform="translate(-8.54 28.56) rotate(-90)" width="0.96" x="9.35" y="17.78"/>
    <rect height="8" style="fill: #303030" transform="translate(28.12 14.56) rotate(90)" width="4.63" x="4.65" y="17.16"/>
    <g>
      <line style="fill: none;stroke: #bcbcbc;stroke-linecap: round;stroke-miterlimit: 10" x1="17.09" x2="19.16" y1="20.57" y2="20.57"/>
      <line style="fill: none;stroke: #bcbcbc;stroke-linecap: round;stroke-miterlimit: 10" x1="17.09" x2="19.16" y1="27.1" y2="27.1"/>
      <rect height="6.52" rx="0.58" ry="0.58" style="fill: #e2e2e2" width="2.27" x="16.92" y="20.57"/>
    </g>
    <rect height="3.06" style="fill: #b8b07e" width="2.27" x="16.92" y="22.24"/>
    <g>
      <line style="fill: none;stroke: #bcbcbc;stroke-linecap: round;stroke-miterlimit: 10" x1="20.75" x2="22.81" y1="20.94" y2="20.94"/>
      <line style="fill: none;stroke: #bcbcbc;stroke-linecap: round;stroke-miterlimit: 10" x1="20.75" x2="22.81" y1="27.47" y2="27.47"/>
      <rect height="6.52" rx="0.58" ry="0.58" style="fill: #e2e2e2" width="2.27" x="20.58" y="20.94"/>
    </g>
    <rect height="3.06" width="2.27" x="20.58" y="22.61"/>
    <g>
      <line style="fill: none;stroke: #bcbcbc;stroke-linecap: round;stroke-miterlimit: 10" x1="24.29" x2="26.36" y1="20.94" y2="20.94"/>
      <line style="fill: none;stroke: #bcbcbc;stroke-linecap: round;stroke-miterlimit: 10" x1="24.29" x2="26.36" y1="27.47" y2="27.47"/>
      <rect height="6.52" rx="0.58" ry="0.58" style="fill: #e2e2e2" width="2.27" x="24.12" y="20.94"/>
    </g>
    <rect height="3.06" width="2.27" x="24.12" y="22.61"/>
    <g>
      <line style="fill: none;stroke: #bcbcbc;stroke-linecap: round;stroke-miterlimit: 10" x1="45.86" x2="47.92" y1="20.94" y2="20.94"/>
      <line style="fill: none;stroke: #bcbcbc;stroke-linecap: round;stroke-miterlimit: 10" x1="45.86" x2="47.92" y1="27.47" y2="27.47"/>
      <rect height="6.52" rx="0.58" ry="0.58" style="fill: #e2e2e2" width="2.27" x="45.69" y="20.94"/>
    </g>
    <rect height="3.06" style="fill: #b8b07e" width="2.27" x="45.69" y="22.61"/>
    <g>
      <line style="fill: none;stroke: #bcbcbc;stroke-linecap: round;stroke-miterlimit: 10" x1="49.52" x2="51.58" y1="20.94" y2="20.94"/>
      <line style="fill: none;stroke: #bcbcbc;stroke-linecap: round;stroke-miterlimit: 10" x1="49.52" x2="51.58" y1="27.47" y2="27.47"/>
      <rect height="6.52" rx="0.58" ry="0.58" style="fill: #e2e2e2" width="2.27" x="49.34" y="20.94"/>
    </g>
    <rect height="3.06" width="2.27" x="49.34" y="22.61"/>
    <g>
      <line style="fill: none;stroke: #bcbcbc;stroke-linecap: round;stroke-miterlimit: 10" x1="53.06" x2="55.12" y1="20.94" y2="20.94"/>
      <line style="fill: none;stroke: #bcbcbc;stroke-linecap: round;stroke-miterlimit: 10" x1="53.06" x2="55.12" y1="27.47" y2="27.47"/>
      <rect height="6.52" rx="0.58" ry="0.58" style="fill: #e2e2e2" width="2.27" x="52.89" y="20.94"/>
    </g>
    <rect height="3.06" width="2.27" x="52.89" y="22.61"/>
    <g>
      <line style="fill: none;stroke: #bcbcbc;stroke-linecap: round;stroke-miterlimit: 10" x1="24.29" x2="26.36" y1="11.28" y2="11.28"/>
      <line style="fill: none;stroke: #bcbcbc;stroke-linecap: round;stroke-miterlimit: 10" x1="24.29" x2="26.36" y1="17.8" y2="17.8"/>
      <rect height="6.52" rx="0.58" ry="0.58" style="fill: #e2e2e2" width="2.27" x="24.12" y="11.28"/>
    </g>
    <rect height="3.06" width="2.27" x="24.12" y="12.95"/>
    <g>
      <line style="fill: none;stroke: #bcbcbc;stroke-linecap: round;stroke-miterlimit: 10" x1="20.82" x2="22.88" y1="11.28" y2="11.28"/>
      <line style="fill: none;stroke: #bcbcbc;stroke-linecap: round;stroke-miterlimit: 10" x1="20.82" x2="22.88" y1="17.8" y2="17.8"/>
      <rect height="6.52" rx="0.58" ry="0.58" style="fill: #e2e2e2" width="2.27" x="20.65" y="11.28"/>
    </g>
    <rect height="3.06" style="fill: #b8b07e" width="2.27" x="20.65" y="12.95"/>
    <g>
      <line style="fill: none;stroke: #bcbcbc;stroke-linecap: round;stroke-miterlimit: 10" x1="49.46" x2="51.52" y1="11.28" y2="11.28"/>
      <line style="fill: none;stroke: #bcbcbc;stroke-linecap: round;stroke-miterlimit: 10" x1="49.46" x2="51.52" y1="17.8" y2="17.8"/>
      <rect height="6.52" rx="0.58" ry="0.58" style="fill: #e2e2e2" width="2.27" x="49.29" y="11.28"/>
    </g>
    <rect height="3.06" style="fill: #b8b07e" width="2.27" x="49.29" y="12.95"/>
    <g>
      <line style="fill: none;stroke: #bcbcbc;stroke-linecap: round;stroke-miterlimit: 10" x1="45.99" x2="48.05" y1="11.28" y2="11.28"/>
      <line style="fill: none;stroke: #bcbcbc;stroke-linecap: round;stroke-miterlimit: 10" x1="45.99" x2="48.05" y1="17.8" y2="17.8"/>
      <rect height="6.52" rx="0.58" ry="0.58" style="fill: #e2e2e2" width="2.27" x="45.81" y="11.28"/>
    </g>
    <rect height="3.06" style="fill: #b8b07e" width="2.27" x="45.81" y="12.95"/>
    <rect height="4.54" style="fill: #292929" width="3.56" x="29.88" y="6.38"/>
    <rect height="4.54" style="fill: #292929" width="3.56" x="38.58" y="6.38"/>
    <rect height="5.17" style="fill: #f2dc6a" width="9.46" x="30.9" y="5.75"/>
    <path d="M11.92,21.79h3.54v2a.8.8,0,0,1-.15.4.86.86,0,0,1-.58.33H12.92a1.25,1.25,0,0,1-.81-.46,1.2,1.2,0,0,1-.24-.59Z" style="fill: #8f8993" transform="translate(0 0.36)"/>
    <path d="M15.57,21H12V19a.8.8,0,0,1,.15-.4.86.86,0,0,1,.58-.33h1.81a1.25,1.25,0,0,1,.81.46,1.2,1.2,0,0,1,.24.59Z" style="fill: #8f8993" transform="translate(0 0.36)"/>
    <circle cx="21.85" cy="9.98" r="0.71" style="fill: #0a184a"/>
    <circle cx="27.6" cy="6.46" r="0.71" style="fill: #0a184a"/>
    <circle cx="44.98" cy="6.6" r="0.71" style="fill: #0a184a"/>
    <circle cx="50.49" cy="19.21" r="0.71" style="fill: #0a184a"/>
    <circle cx="44.27" cy="22.52" r="0.71" style="fill: #0a184a"/>
    <circle cx="35.86" cy="27.64" r="0.71" style="fill: #0a184a"/>
    <circle cx="50.49" cy="29.05" r="0.71" style="fill: #0a184a"/>
    <circle cx="50.68" cy="31.64" r="0.71" style="fill: #0a184a"/>
    <circle cx="61.4" cy="19.21" r="0.71" style="fill: #0a184a"/>
    <circle cx="69.43" cy="18" r="0.71" style="fill: #0a184a"/>
    <circle cx="69.54" cy="14.05" r="0.71" style="fill: #0a184a"/>
    <circle cx="54.27" cy="19.21" r="0.71" style="fill: #0a184a"/>
    <circle cx="29.39" cy="15.66" r="0.71" style="fill: #0a184a"/>
    <circle cx="41.07" cy="12.28" r="0.71" style="fill: #0a184a"/>
    <circle cx="38.7" cy="12.24" r="0.71" style="fill: #0a184a"/>
    <circle cx="33.1" cy="11.99" r="0.71" style="fill: #0a184a"/>
    <circle cx="30.9" cy="11.99" r="0.71" style="fill: #0a184a"/>
    <circle cx="17.97" cy="18.99" r="0.71" style="fill: #0a184a"/>
    <circle cx="14.37" cy="33.91" r="0.71" style="fill: #0a184a"/>
    <circle cx="7.2" cy="33.91" r="0.71" style="fill: #0a184a"/>
    <circle cx="2.13" cy="17.89" r="0.71" style="fill: #0a184a"/>
    <circle cx="2.13" cy="14.18" r="0.71" style="fill: #0a184a"/>
  </g>
  <g data-name="Layer 7" id="Layer_7">
    <circle cx="63.17" cy="21.23" r="1.31" style="fill: #fff"/>
    <polyline points="63.17 20.75 63.17 15.72 63.17 15.26" style="fill: #fff;stroke: #fff;stroke-miterlimit: 10;stroke-width: 0.7000000000000001px"/>
    <polyline points="61.96 16.15 63.21 14.9 64.29 15.98" style="fill: none;stroke: #fff;stroke-linecap: round;stroke-miterlimit: 10;stroke-width: 0.7000000000000001px"/>
    <polyline points="62.7 21.19 57.66 21.19 57.21 21.19" style="fill: #fff;stroke: #fff;stroke-miterlimit: 10;stroke-width: 0.7000000000000001px"/>
    <polyline points="58.09 22.4 56.84 21.15 57.93 20.06" style="fill: none;stroke: #fff;stroke-linecap: round;stroke-miterlimit: 10;stroke-width: 0.7000000000000001px"/>
    <line style="fill: #fff;stroke: #fff;stroke-linecap: round;stroke-miterlimit: 10;stroke-width: 0.7000000000000001px" x1="59.13" x2="61.56" y1="15.05" y2="13.31"/>
    <line style="fill: #fff;stroke: #fff;stroke-linecap: round;stroke-miterlimit: 10;stroke-width: 0.7000000000000001px" x1="59" x2="61.56" y1="13.23" y2="15.05"/>
    <polyline points="56.3 23.06 56.92 23.06 57.33 23.59 57.47 23.88 56.78 24.56 56.22 24.56" style="fill: none;stroke: #fff;stroke-linecap: round;stroke-miterlimit: 10;stroke-width: 0.7000000000000001px"/>
    <line style="fill: #fff;stroke: #fff;stroke-linecap: round;stroke-miterlimit: 10;stroke-width: 0.7000000000000001px" x1="57.55" x2="58.97" y1="23.81" y2="23.81"/>
    <polyline points="62.92 25.04 62.92 23.13 63.22 23.13 64.86 24.77 65.19 24.77 65.19 22.86" style="fill: none;stroke: #fff;stroke-linecap: round;stroke-miterlimit: 10;stroke-width: 0.7000000000000001px"/>
    <g>
      <path d="M3.3,33.84H2.66a.2.2,0,1,1,0-.4h.63a.42.42,0,0,1,.16,0l1.95.76c.1,0,.18.08.18.2s-.08.16-.18.2l-1.95.76a.42.42,0,0,1-.16,0H2.66a.2.2,0,1,1,0-.4H3.3l1.53-.59Z" style="fill: #fff" transform="translate(0 0.36)"/>
      <path d="M5.57,31.94a.6.6,0,0,1-.38.6l-.74.37A.9.9,0,0,1,4,33a.87.87,0,0,1-.44-.11l-.74-.37a.6.6,0,0,1-.38-.62v-.68a.19.19,0,0,1,.2-.2.19.19,0,0,1,.2.2v.67c0,.17,0,.2.17.28l.7.35a.62.62,0,0,0,.3.08.57.57,0,0,0,.28-.08L5,32.19c.16-.08.18-.12.18-.3v-.65a.19.19,0,0,1,.2-.2.19.19,0,0,1,.2.2Z" style="fill: #fff" transform="translate(0 0.36)"/>
      <path d="M5.57,29.3a.6.6,0,0,1-.38.6l-.74.37a.91.91,0,0,1-.42.11.88.88,0,0,1-.44-.11l-.74-.37a.6.6,0,0,1-.38-.62V28.6a.19.19,0,0,1,.2-.2.19.19,0,0,1,.2.2v.67c0,.17,0,.2.17.28l.7.35A.61.61,0,0,0,4,30a.55.55,0,0,0,.28-.08L5,29.55c.16-.08.18-.12.18-.3V28.6a.19.19,0,0,1,.2-.2.19.19,0,0,1,.2.2Z" style="fill: #fff" transform="translate(0 0.36)"/>
    </g>
    <g>
      <path d="M11.47,34.39a.2.2,0,1,1-.4,0V33.6h.79a.6.6,0,0,1,.63.64v.69a.61.61,0,0,1-.16.46.58.58,0,0,1-.49.19h-1a.81.81,0,0,1-.58-.21l-.6-.47a.61.61,0,0,1-.27-.56V33.8a.2.2,0,1,1,.4,0v.48c0,.22,0,.2.16.34l.56.44a.76.76,0,0,0,.52.12h.78c.22,0,.29,0,.29-.28v-.63c0-.14,0-.26-.21-.26h-.41Z" style="fill: #fff" transform="translate(0 0.36)"/>
      <path d="M9.58,31.2a.2.2,0,1,1,0-.4h2.91v.53l-2.4,1h2.19a.2.2,0,1,1,0,.4H9.38v-.53l2.43-1H9.58Z" style="fill: #fff" transform="translate(0 0.36)"/>
      <path d="M9.78,29.83V30c0,.13,0,.24-.2.24s-.2-.11-.2-.23v-.67a.6.6,0,0,1,.4-.6l.7-.35a.93.93,0,0,1,.9,0l.73.36a.6.6,0,0,1,.38.63V30a.2.2,0,1,1-.4,0v-.19Zm2.31-.4v-.08c0-.17,0-.21-.17-.28l-.71-.35a.56.56,0,0,0-.26-.08.67.67,0,0,0-.33.1l-.68.33c-.17.08-.17.12-.17.3v0Z" style="fill: #fff" transform="translate(0 0.36)"/>
    </g>
    <g>
      <path d="M18.87,33.58a.52.52,0,0,1,.33-.14.45.45,0,0,1,.45.5v.88a.59.59,0,0,1-.13.4.51.51,0,0,1-.37.19.22.22,0,0,1-.24-.21.19.19,0,0,1,.2-.19c.12,0,.14-.06.14-.18V34s0-.13,0-.13-.09.06-.12.07l-1.76,1.37a.48.48,0,0,1-.33.13.45.45,0,0,1-.38-.21.54.54,0,0,1-.07-.33V34a.57.57,0,0,1,.13-.4.55.55,0,0,1,.38-.19.2.2,0,0,1,.23.21.18.18,0,0,1-.19.19c-.14,0-.16.07-.16.19v.85s0,.14.06.14.08,0,.11-.06Z" style="fill: #fff" transform="translate(0 0.36)"/>
      <path d="M19.66,31.78a.6.6,0,0,1-.38.6l-.74.37a.9.9,0,0,1-.42.11.87.87,0,0,1-.44-.11l-.74-.37a.6.6,0,0,1-.38-.62v-.68a.19.19,0,0,1,.2-.2.19.19,0,0,1,.2.2v.67c0,.17,0,.2.17.28l.7.35a.62.62,0,0,0,.3.08.57.57,0,0,0,.28-.08l.69-.34c.16-.08.18-.12.18-.3v-.65a.19.19,0,0,1,.2-.2.19.19,0,0,1,.2.2Z" style="fill: #fff" transform="translate(0 0.36)"/>
      <path d="M19.26,28.28a.2.2,0,0,1,.4,0v1.78H16.75a.2.2,0,1,1,0-.4h2.51Z" style="fill: #fff" transform="translate(0 0.36)"/>
    </g>
    <g>
      <path d="M26.41,33.58a.52.52,0,0,1,.33-.14.45.45,0,0,1,.45.5v.88a.59.59,0,0,1-.13.4.51.51,0,0,1-.37.19.22.22,0,0,1-.24-.21.19.19,0,0,1,.2-.19c.12,0,.14-.06.14-.18V34s0-.13,0-.13-.09.06-.12.07l-1.76,1.37a.48.48,0,0,1-.33.13.45.45,0,0,1-.38-.21.54.54,0,0,1-.07-.33V34a.57.57,0,0,1,.13-.4.55.55,0,0,1,.38-.19.2.2,0,0,1,.23.21.18.18,0,0,1-.19.19c-.14,0-.16.07-.16.19v.85s0,.14.06.14.08,0,.11-.06Z" style="fill: #fff" transform="translate(0 0.36)"/>
      <path d="M24.49,32.55v.15c0,.13,0,.24-.2.24s-.2-.11-.2-.23V32a.6.6,0,0,1,.4-.6l.7-.35a.92.92,0,0,1,.9,0l.73.36a.6.6,0,0,1,.38.63v.66a.2.2,0,1,1-.4,0v-.19Zm2.31-.4v-.08c0-.17,0-.21-.17-.28l-.71-.35a.55.55,0,0,0-.26-.08.68.68,0,0,0-.33.1l-.68.33c-.17.08-.17.12-.17.3v0Z" style="fill: #fff" transform="translate(0 0.36)"/>
      <path d="M24.29,29.35c-.11,0-.2-.08-.2-.2s.1-.18.2-.21L27,28.17c.1,0,.2.08.2.19a.24.24,0,0,1-.2.22l-.48.15v.85l.48.15a.24.24,0,0,1,.2.22c0,.11-.1.22-.2.19Zm.74-.21h0l1.08.31v-.63Z" style="fill: #fff" transform="translate(0 0.36)"/>
    </g>
    <g>
      <path d="M33.8,33.35a.2.2,0,1,1,.4,0v1.78H31.09V33.35a.2.2,0,1,1,.4,0v1.38h1v-.59a.2.2,0,0,1,.4,0v.59h1Z" style="fill: #fff" transform="translate(0 0.36)"/>
      <path d="M31.49,32.09v.15c0,.13,0,.24-.2.24s-.2-.11-.2-.23v-.67a.6.6,0,0,1,.4-.6l.7-.35a.92.92,0,0,1,.9,0l.73.36a.6.6,0,0,1,.38.63v.66a.2.2,0,0,1-.4,0v-.19Zm2.31-.4v-.08c0-.17,0-.21-.17-.28L32.92,31a.56.56,0,0,0-.26-.08.67.67,0,0,0-.33.1l-.68.33c-.17.08-.17.12-.17.3v0Z" style="fill: #fff" transform="translate(0 0.36)"/>
      <path d="M31.29,28.9c-.11,0-.2-.08-.2-.2s.1-.18.2-.21L34,27.72c.1,0,.2.08.2.19a.24.24,0,0,1-.2.21l-.48.15v.85l.48.15a.24.24,0,0,1,.2.21c0,.11-.1.22-.2.19Zm.74-.21h0l1.08.31v-.63Z" style="fill: #fff" transform="translate(0 0.36)"/>
    </g>
    <g>
      <path d="M41,33.1a.2.2,0,1,1,.4,0v1.78H38.3V33.1a.2.2,0,1,1,.4,0v1.38h1v-.59a.2.2,0,0,1,.4,0v.59h1Z" style="fill: #fff" transform="translate(0 0.36)"/>
      <path d="M41.41,31.08a.6.6,0,0,1-.38.6l-.74.37a.9.9,0,0,1-.42.11.87.87,0,0,1-.44-.11l-.74-.37a.6.6,0,0,1-.38-.62v-.68a.19.19,0,0,1,.2-.2.19.19,0,0,1,.2.2V31c0,.17,0,.2.17.28l.7.35a.62.62,0,0,0,.3.08.56.56,0,0,0,.28-.08l.69-.34c.16-.08.18-.12.18-.3v-.65a.19.19,0,0,1,.2-.2.19.19,0,0,1,.2.2Z" style="fill: #fff" transform="translate(0 0.36)"/>
      <path d="M41,27.66a.2.2,0,1,1,.4,0v1.77H38.5a.2.2,0,1,1,0-.4H41Z" style="fill: #fff" transform="translate(0 0.36)"/>
    </g>
    <g>
      <path d="M45.5,34.63c-.11,0-.2-.08-.2-.2s.1-.18.2-.21l2.71-.77c.1,0,.2.08.2.19a.24.24,0,0,1-.2.22l-.48.15v.85l.48.15a.24.24,0,0,1,.2.22c0,.11-.1.22-.2.19Zm.74-.21h0l1.08.31v-.63Z" style="fill: #fff" transform="translate(0 0.36)"/>
      <path d="M45.7,32.15v.15c0,.13,0,.24-.2.24s-.2-.11-.2-.23v-.67a.6.6,0,0,1,.4-.6l.7-.35a.92.92,0,0,1,.9,0L48,31a.61.61,0,0,1,.38.63v.66a.2.2,0,1,1-.4,0v-.19Zm2.31-.4v-.08c0-.17,0-.21-.17-.28L47.13,31a.56.56,0,0,0-.26-.08.68.68,0,0,0-.33.1l-.68.33c-.17.08-.17.12-.17.3v0Z" style="fill: #fff" transform="translate(0 0.36)"/>
      <path d="M45.7,29.75v.15c0,.13,0,.24-.2.24s-.2-.11-.2-.23v-.67a.6.6,0,0,1,.4-.6l.7-.35a.93.93,0,0,1,.9,0l.73.36a.6.6,0,0,1,.38.63v.66a.2.2,0,1,1-.4,0v-.19Zm2.31-.4v-.08c0-.17,0-.21-.17-.28l-.71-.35a.56.56,0,0,0-.26-.08.67.67,0,0,0-.33.1l-.68.33c-.17.08-.17.12-.17.3v0Z" style="fill: #fff" transform="translate(0 0.36)"/>
    </g>
    <g>
      <path d="M55.51,34.44v-.59a.2.2,0,1,1,.4,0v1.57a.2.2,0,1,1-.4,0v-.59H53.2v.59a.2.2,0,1,1-.4,0V33.85a.2.2,0,1,1,.4,0v.59Z" style="fill: #fff" transform="translate(0 0.36)"/>
      <path d="M53,31.41a.2.2,0,1,1,0-.4h2.91v.53l-2.4,1h2.19a.2.2,0,1,1,0,.4H52.8v-.53l2.43-1H53Z" style="fill: #fff" transform="translate(0 0.36)"/>
      <path d="M53.2,29.95h.14a.2.2,0,0,1,0,.4H52.8v-2h.54a.2.2,0,0,1,0,.4H53.2v.39h2.51a.2.2,0,1,1,0,.4H53.2Z" style="fill: #fff" transform="translate(0 0.36)"/>
    </g>
    <g>
      <path d="M60,33.57a.2.2,0,1,1,0-.4H62.9v.53l-2.4,1H62.7a.2.2,0,1,1,0,.4H59.79v-.53l2.43-1H60Z" style="fill: #fff" transform="translate(0 0.36)"/>
      <path d="M62.9,31.51a.6.6,0,0,1-.38.6l-.74.37a.9.9,0,0,1-.42.11.87.87,0,0,1-.44-.11l-.74-.37a.6.6,0,0,1-.38-.62v-.68a.19.19,0,0,1,.2-.2.19.19,0,0,1,.2.2v.67c0,.17,0,.2.17.28l.7.35a.62.62,0,0,0,.3.08.56.56,0,0,0,.28-.08l.69-.34c.16-.08.18-.12.18-.3v-.65a.19.19,0,0,1,.2-.2.19.19,0,0,1,.2.2Z" style="fill: #fff" transform="translate(0 0.36)"/>
      <path d="M62.12,27.87a.51.51,0,0,1,.33-.14.45.45,0,0,1,.45.5v.88a.59.59,0,0,1-.13.4.5.5,0,0,1-.37.19.22.22,0,0,1-.24-.21.19.19,0,0,1,.2-.19c.12,0,.14-.06.14-.18v-.87s0-.13,0-.13-.09.06-.12.07l-1.76,1.37a.48.48,0,0,1-.33.13.44.44,0,0,1-.38-.21.53.53,0,0,1-.07-.33v-.85a.57.57,0,0,1,.13-.4.54.54,0,0,1,.38-.19.2.2,0,0,1,.23.21.18.18,0,0,1-.19.19c-.14,0-.16.07-.16.19v.85s0,.14.06.14.08,0,.11-.06Z" style="fill: #fff" transform="translate(0 0.36)"/>
    </g>
    <g>
      <path d="M66.75,34.94V33.16a.2.2,0,1,1,.4,0v1.38h.62v-1a.2.2,0,0,1,.4,0v1h1.5a.2.2,0,1,1,0,.4Z" style="fill: #fff" transform="translate(0 0.36)"/>
      <path d="M69.08,30.62a.51.51,0,0,1,.33-.14.45.45,0,0,1,.45.5v.88a.59.59,0,0,1-.13.4.5.5,0,0,1-.37.19.22.22,0,0,1-.24-.21.19.19,0,0,1,.2-.19c.12,0,.14-.06.14-.18V31s0-.13,0-.13-.09.06-.12.07l-1.76,1.37a.48.48,0,0,1-.33.13.44.44,0,0,1-.38-.21.53.53,0,0,1-.07-.33v-.85a.57.57,0,0,1,.13-.4.54.54,0,0,1,.38-.19.2.2,0,0,1,.23.21.18.18,0,0,1-.19.19c-.14,0-.16.07-.16.19v.85s0,.14.06.14.08,0,.11-.06Z" style="fill: #fff" transform="translate(0 0.36)"/>
      <path d="M69.67,28.47a.2.2,0,1,1,0,.4H68.39l-1,.79H67a.2.2,0,1,1,0-.4h.27l.76-.59-.76-.59H67a.2.2,0,1,1,0-.4h.41l1,.79Z" style="fill: #fff" transform="translate(0 0.36)"/>
      <path d="M67,25.6a.2.2,0,1,1,0-.4h2.91v.53l-2.4,1h2.19a.2.2,0,1,1,0,.4H66.75v-.53l2.43-1H67Z" style="fill: #fff" transform="translate(0 0.36)"/>
      <path d="M69.87,23.38a.6.6,0,0,1-.38.6l-.74.37a.91.91,0,0,1-.42.11.88.88,0,0,1-.44-.11L67.14,24a.6.6,0,0,1-.38-.62v-.68a.19.19,0,0,1,.2-.2.19.19,0,0,1,.2.2v.67c0,.17,0,.2.17.28L68,24a.61.61,0,0,0,.3.08A.55.55,0,0,0,68.6,24l.69-.34c.16-.08.18-.12.18-.3v-.65a.19.19,0,0,1,.2-.2.19.19,0,0,1,.2.2Z" style="fill: #fff" transform="translate(0 0.36)"/>
    </g>
    <g>
      <path d="M46.44.57c.14,0,.22,0,.24.17h0c0-.14.11-.17.24-.17h.3a.22.22,0,0,1,.24.14l.14.24a.28.28,0,0,1,.06.2V3.48a.2.2,0,1,1-.4,0V1.16L47.17,1H47l-.11.19V2.42c0,.12-.06.24-.2.24s-.2-.11-.2-.24V1.16L46.38,1h-.17l-.11.19V3.48a.2.2,0,1,1-.4,0V1.16a.28.28,0,0,1,.06-.2l.14-.24a.22.22,0,0,1,.24-.14Z" style="fill: #fff" transform="translate(0 0.36)"/>
      <path d="M44.39.77a.2.2,0,1,1,.4,0V3.68H43.47A.59.59,0,0,1,43,3.51.6.6,0,0,1,42.82,3V2.45A.66.66,0,0,1,43,1.93a.62.62,0,0,1,.54-.19h.88Zm0,1.38h-.89c-.24,0-.29.06-.29.29V3c0,.23.05.29.29.29h.89Z" style="fill: #fff" transform="translate(0 0.36)"/>
      <path d="M41.75.57a.61.61,0,0,1,.5.2.64.64,0,0,1,.15.48V3.48a.2.2,0,1,1-.4,0V1.25C42,1,41.93,1,41.75,1h-.68c-.18,0-.25.06-.25.28V3.48a.2.2,0,1,1-.4,0V1.25a.63.63,0,0,1,.15-.48.61.61,0,0,1,.5-.2Z" style="fill: #fff" transform="translate(0 0.36)"/>
      <path d="M38.22,2.36c-.16,0-.24-.06-.24-.24s.08-.24.24-.24h.94c.16,0,.24.06.24.24s-.08.24-.24.24Z" style="fill: #fff" transform="translate(0 0.36)"/>
      <path d="M35.78,2.25h1.38a.2.2,0,0,1,.2.2v1a.2.2,0,0,1-.2.2H35.58a.2.2,0,0,1-.2-.2V.77a.2.2,0,0,1,.2-.2h.2a.2.2,0,0,1,.2.2.19.19,0,0,1-.2.2Zm0,.4v.62H37V2.65Z" style="fill: #fff" transform="translate(0 0.36)"/>
      <path d="M34.07,1H32.7a.18.18,0,0,1-.2-.2.18.18,0,0,1,.2-.2h1.77v1.3a.4.4,0,0,1-.45.45H32.9v1h1.38a.2.2,0,0,1,0,.4H32.95a.41.41,0,0,1-.45-.47V2.39a.41.41,0,0,1,.45-.47h1.13Z" style="fill: #fff" transform="translate(0 0.36)"/>
      <path d="M31.44.71c0-.08.1-.14.2-.14a.2.2,0,0,1,.2.19.42.42,0,0,1-.09.21l-1.5,2.56c0,.08-.1.15-.2.15a.19.19,0,0,1-.2-.19.32.32,0,0,1,0-.16Z" style="fill: #fff" transform="translate(0 0.36)"/>
      <path d="M29,2H27.7c-.2,0-.24-.08-.24-.27V.82c0-.19.08-.25.26-.25h1.46c.19,0,.26.07.26.25V3.48c0,.09,0,.2-.17.2H29a.2.2,0,0,1-.19-.2.19.19,0,0,1,.2-.2Zm0-.4V1H27.86v.62Z" style="fill: #fff" transform="translate(0 0.36)"/>
      <path d="M26.32,2.32h-.74a.41.41,0,0,1-.32-.11.39.39,0,0,1-.12-.34V1a.42.42,0,0,1,.1-.31.39.39,0,0,1,.35-.14h.89a.58.58,0,0,1,.26.07l.15.07c.11,0,.23.08.23.22a.2.2,0,0,1-.19.2.29.29,0,0,1-.13,0L26.67,1A.67.67,0,0,0,26.46,1h-.92v1h1.18V3.68H25.34a.2.2,0,1,1,0-.4h1Z" style="fill: #fff" transform="translate(0 0.36)"/>
    </g>
    <g>
      <path d="M25.49,24.6h-.3a.07.07,0,1,1,0-.15h.38a.07.07,0,0,1,.07.07v.59a.07.07,0,0,1-.15,0v-.22h-.86v.22a.07.07,0,0,1-.15,0v-.37h1Z" style="fill: #fff" transform="translate(0 0.36)"/>
      <path d="M24.47,23.82a.15.15,0,0,1,.15-.15h.86a.15.15,0,0,1,.15.15v.44a.15.15,0,0,1-.15.15h-.86a.15.15,0,0,1-.15-.15Zm1,0h-.86v.44h.86Z" style="fill: #fff" transform="translate(0 0.36)"/>
      <path d="M24.62,23.55a.07.07,0,0,1-.15,0V23a.15.15,0,0,1,.15-.15h.29a.17.17,0,0,1,.15.06.17.17,0,0,1,.15-.06h.29a.15.15,0,0,1,.15.15v.51a.07.07,0,0,1-.15,0V23h-.25c-.08,0-.11,0-.11.08v.29a.07.07,0,0,1-.15,0v-.29s0-.08-.11-.08h-.25Z" style="fill: #fff" transform="translate(0 0.36)"/>
    </g>
    <g>
      <path d="M54.58,24.6h-.3a.07.07,0,0,1,0-.15h.38a.07.07,0,0,1,.08.07v.59a.07.07,0,0,1-.08.07.07.07,0,0,1-.07-.07v-.22h-.86v.22a.08.08,0,0,1-.15,0v-.37h1Z" style="fill: #fff" transform="translate(0 0.36)"/>
      <path d="M53.57,23.82a.15.15,0,0,1,.15-.15h.86a.15.15,0,0,1,.15.15v.44a.15.15,0,0,1-.15.15h-.86a.15.15,0,0,1-.15-.15Zm1,0h-.86v.44h.86Z" style="fill: #fff" transform="translate(0 0.36)"/>
      <path d="M53.72,23.55a.08.08,0,0,1-.15,0V23a.15.15,0,0,1,.15-.15H54a.21.21,0,0,0,.29,0h.29a.15.15,0,0,1,.15.15v.51a.07.07,0,0,1-.08.07.07.07,0,0,1-.07-.07V23h-.25c-.08,0-.11,0-.11.08v.29a.07.07,0,0,1-.08.07.07.07,0,0,1-.07-.07v-.29S54,23,54,23h-.25Z" style="fill: #fff" transform="translate(0 0.36)"/>
    </g>
    <g>
      <path d="M49.64,23.39h.3a.07.07,0,0,1,.08.07.07.07,0,0,1-.08.08h-.38a.07.07,0,0,1-.07-.08v-.59a.07.07,0,1,1,.15,0v.22h.86v-.22a.08.08,0,0,1,.15,0v.37h-1Z" style="fill: #fff" transform="translate(0 0.36)"/>
      <path d="M50.65,24.17a.15.15,0,0,1-.15.15h-.86a.15.15,0,0,1-.15-.15v-.44a.15.15,0,0,1,.15-.15h.86a.15.15,0,0,1,.15.15Zm-1,0h.86v-.44h-.86Z" style="fill: #fff" transform="translate(0 0.36)"/>
      <path d="M50.5,24.43a.08.08,0,0,1,.15,0v.51a.15.15,0,0,1-.15.15h-.29a.17.17,0,0,1-.14-.06.17.17,0,0,1-.15.06h-.29a.15.15,0,0,1-.15-.15v-.51a.07.07,0,0,1,.15,0v.51h.25c.08,0,.11,0,.11-.07v-.29a.07.07,0,0,1,.15,0v.29s0,.07.11.07h.25Z" style="fill: #fff" transform="translate(0 0.36)"/>
    </g>
    <g>
      <path d="M21.23,23.22h.3a.07.07,0,1,1,0,.15h-.38a.07.07,0,0,1-.07-.07v-.59a.07.07,0,1,1,.15,0v.22h.86v-.22a.07.07,0,0,1,.15,0v.37h-1Z" style="fill: #fff" transform="translate(0 0.36)"/>
      <path d="M22.25,24a.15.15,0,0,1-.15.15h-.86a.15.15,0,0,1-.15-.15v-.44a.15.15,0,0,1,.15-.15h.86a.15.15,0,0,1,.15.15Zm-1,0h.86v-.44h-.86Z" style="fill: #fff" transform="translate(0 0.36)"/>
      <path d="M22.1,24.27a.07.07,0,1,1,.15,0v.51a.15.15,0,0,1-.15.15h-.29a.18.18,0,0,1-.15-.06.17.17,0,0,1-.15.06h-.29a.15.15,0,0,1-.15-.15v-.51a.07.07,0,1,1,.15,0v.51h.25c.08,0,.11,0,.11-.08v-.29a.07.07,0,1,1,.15,0v.29s0,.08.11.08h.25Z" style="fill: #fff" transform="translate(0 0.36)"/>
    </g>
    <g>
      <path d="M25.49,15.16h-.3a.07.07,0,1,1,0-.15h.38a.07.07,0,0,1,.07.07v.59a.07.07,0,1,1-.15,0v-.22h-.86v.22a.07.07,0,0,1-.15,0v-.37h1Z" style="fill: #fff" transform="translate(0 0.36)"/>
      <path d="M24.47,14.38a.15.15,0,0,1,.15-.15h.86a.15.15,0,0,1,.15.15v.44a.15.15,0,0,1-.15.15h-.86a.15.15,0,0,1-.15-.15Zm1,0h-.86v.44h.86Z" style="fill: #fff" transform="translate(0 0.36)"/>
      <path d="M24.62,14.12a.07.07,0,0,1-.15,0V13.6a.15.15,0,0,1,.15-.15h.29a.17.17,0,0,1,.15.06.17.17,0,0,1,.15-.06h.29a.15.15,0,0,1,.15.15v.51a.07.07,0,0,1-.15,0V13.6h-.25c-.08,0-.11,0-.11.07V14A.07.07,0,1,1,25,14v-.29s0-.07-.11-.07h-.25Z" style="fill: #fff" transform="translate(0 0.36)"/>
    </g>
    <g>
      <path d="M36.12,20v-.5c0-.07,0-.09.1-.09h.33c.07,0,.09,0,.09.1v.54c0,.07,0,.1-.09.1h-1s-.07,0-.07-.06V20a.07.07,0,0,1,.07-.07.07.07,0,0,1,.08.07Zm.15,0h.23v-.44h-.23Z" style="fill: #fff" transform="translate(0 0.36)"/>
      <path d="M36.12,18.73h-.43a.07.07,0,1,1,0-.15h.43a.07.07,0,1,1,.15,0h.31a.07.07,0,1,1,0,.15h-.31v.44h-.71a.07.07,0,0,1,0-.15h.56Z" style="fill: #fff" transform="translate(0 0.36)"/>
      <path d="M35.48,17.77a.07.07,0,0,1,.07-.07H36a.15.15,0,0,1,0-.11.15.15,0,0,1,.11,0h.36a.14.14,0,0,1,.15.15v.44a.14.14,0,0,1-.15.15h-.36a.15.15,0,0,1-.11,0,.15.15,0,0,1,0-.11h-.43a.07.07,0,0,1-.07-.07Zm.51.08h-.36V18H36Zm.51-.15h-.36v.44h.36Z" style="fill: #fff" transform="translate(0 0.36)"/>
      <path d="M36.5,16.68h-.3a.07.07,0,0,1,0-.15h.38a.07.07,0,0,1,.07.07v.59a.07.07,0,0,1-.15,0V17h-.86v.22a.07.07,0,0,1-.15,0v-.37h1Z" style="fill: #fff" transform="translate(0 0.36)"/>
    </g>
    <g>
      <path d="M38.21,20.67h-.3a.07.07,0,0,1-.08-.08.07.07,0,0,1,.08-.07h.38a.07.07,0,0,1,.07.07v.59a.07.07,0,0,1-.07.08.07.07,0,0,1-.08-.08V21h-.86v.22a.07.07,0,1,1-.15,0v-.37h1Z" style="fill: #fff" transform="translate(0 0.36)"/>
      <path d="M37.83,19.67H37.4a.07.07,0,1,1,0-.15h.43a.07.07,0,0,1,.08-.07.07.07,0,0,1,.07.07h.31s.07,0,.07.08a.06.06,0,0,1-.07.07H38v.44h-.71A.07.07,0,0,1,37.2,20a.07.07,0,0,1,.08-.08h.56Z" style="fill: #fff" transform="translate(0 0.36)"/>
      <path d="M38.21,18.51h-.3a.07.07,0,0,1-.08-.08.07.07,0,0,1,.08-.07h.38a.07.07,0,0,1,.07.07V19a.07.07,0,0,1-.07.08.07.07,0,0,1-.08-.08v-.22h-.86V19a.07.07,0,1,1-.15,0v-.37h1Z" style="fill: #fff" transform="translate(0 0.36)"/>
      <path d="M37.2,17.43a.15.15,0,0,1,.15-.15h.86a.15.15,0,0,1,.15.15v.44a.15.15,0,0,1-.15.15h-.86a.15.15,0,0,1-.15-.15Zm1,0h-.86v.44h.86Z" style="fill: #fff" transform="translate(0 0.36)"/>
    </g>
    <g>
      <path d="M6.67,21.6a.26.26,0,0,1,.07.17.23.23,0,0,1-.25.23H6.05a.3.3,0,0,1-.2-.06.25.25,0,0,1-.09-.19.11.11,0,0,1,.11-.12.1.1,0,0,1,.09.1c0,.06,0,.07.09.07h.43s.07,0,.07,0,0,0,0-.06l-.69-.88a.24.24,0,0,1-.07-.16.22.22,0,0,1,.11-.19.27.27,0,0,1,.17,0h.42a.28.28,0,0,1,.2.07.27.27,0,0,1,.09.19.1.1,0,0,1-.1.12.09.09,0,0,1-.1-.09c0-.07,0-.08-.1-.08H6s-.07,0-.07,0,0,0,0,.05Z" style="fill: #fff" transform="translate(0 0.36)"/>
      <path d="M7,21.79h.69a.1.1,0,1,1,0,.2H6.84v-.65a.2.2,0,0,1,.23-.23h.56v-.48H6.94a.1.1,0,0,1,0-.2H7.6a.21.21,0,0,1,.22.23v.41a.21.21,0,0,1-.22.23H7Z" style="fill: #fff" transform="translate(0 0.36)"/>
      <path d="M8.45,22a.3.3,0,0,1-.3-.19L8,21.43a.45.45,0,0,1-.05-.21A.44.44,0,0,1,8,21l.18-.37a.3.3,0,0,1,.31-.19H8.8a.09.09,0,0,1,.1.1.09.09,0,0,1-.1.1H8.47c-.09,0-.1,0-.14.08l-.17.35a.31.31,0,0,0,0,.15.28.28,0,0,0,0,.14l.17.35c0,.08.06.09.15.09H8.8a.09.09,0,0,1,.1.1.1.1,0,0,1-.1.1Z" style="fill: #fff" transform="translate(0 0.36)"/>
      <path d="M9,20.44h.89a.1.1,0,1,1,0,.2H9.16v.31h.49a.1.1,0,1,1,0,.2H9.16v.75a.1.1,0,1,1-.2,0Z" style="fill: #fff" transform="translate(0 0.36)"/>
    </g>
  </g>
  <g id="Pads">
    <circle cx="39.66" cy="39.98" id="connector5pin" r="2.05" style="fill: none;stroke: #e8e5df;stroke-width: 1.52999997138977px"/>
    <rect height="0.01" id="rect158" style="fill: none" width="0.01" x="36.99" y="39.97"/>
    <circle cx="32.46" cy="39.98" id="connector4pin" r="2.05" style="fill: none;stroke: #e8e5df;stroke-width: 1.52999997138977px"/>
    <rect height="0.01" id="rect174" style="fill: none" width="0.01" x="32.52" y="39.97"/>
    <circle cx="25.26" cy="39.98" id="connector3pin" r="2.05" style="fill: none;stroke: #e8e5df;stroke-width: 1.52999997138977px"/>
    <circle cx="18.06" cy="39.98" id="connector2pin" r="2.05" style="fill: none;stroke: #e8e5df;stroke-width: 1.52999997138977px"/>
    <circle cx="10.86" cy="39.98" id="connector1pin" r="2.05" style="fill: none;stroke: #e8e5df;stroke-width: 1.52999997138977px"/>
    <circle cx="3.66" cy="39.98" id="connector0pin" r="2.05" style="fill: none;stroke: #e8e5df;stroke-width: 1.52999997138977px"/>
    <rect height="0.01" id="rect232" style="fill: none" width="0.01" x="0.99" y="39.97"/>
    <circle cx="68.45" cy="39.98" id="connector9pin" r="2.05" style="fill: none;stroke: #e8e5df;stroke-width: 1.52999997138977px"/>
    <rect height="0.01" id="rect248" style="fill: none" width="0.01" x="65.78" y="39.97"/>
    <circle cx="61.25" cy="39.98" id="connector8pin" r="2.05" style="fill: none;stroke: #e8e5df;stroke-width: 1.52999997138977px"/>
    <rect height="0.01" id="rect264" style="fill: none" width="0.01" x="58.58" y="39.97"/>
    <circle cx="54.05" cy="39.98" id="connector7pin" r="2.05" style="fill: none;stroke: #e8e5df;stroke-width: 1.52999997138977px"/>
    <rect height="0.01" id="rect280" style="fill: none" width="0.01" x="51.38" y="39.97"/>
    <circle cx="46.85" cy="39.98" id="connector6pin" r="2.05" style="fill: none;stroke: #e8e5df;stroke-width: 1.52999997138977px"/>
    <rect height="0.01" id="rect296" style="fill: none" width="0.01" x="44.18" y="39.97"/>
  </g>
  <g id="Connectors">
    <circle cx="3.66" cy="39.99" data-cir-type="male" id="circuitoCon_VCC" r="1.26" style="fill: none"/>
    <circle cx="10.86" cy="39.99" data-cir-type="male" id="circuitoCon_GND" r="1.26" style="fill: none"/>
    <circle cx="18.06" cy="39.99" data-cir-type="male" id="circuitoCon_SCL" r="1.26" style="fill: none"/>
    <circle cx="25.26" cy="39.99" data-cir-type="male" id="circuitoCon_SDA" r="1.26" style="fill: none"/>
    <circle cx="32.45" cy="39.99" data-cir-type="male" id="circuitoCon_EDA" r="1.26" style="fill: none"/>
    <circle cx="39.65" cy="39.99" data-cir-type="male" id="circuitoCon_ECL" r="1.26" style="fill: none"/>
    <circle cx="46.94" cy="39.99" data-cir-type="male" id="circuitoCon_AD0" r="1.26" style="fill: none"/>
    <circle cx="54.14" cy="39.99" data-cir-type="male" id="circuitoCon_INT" r="1.26" style="fill: none"/>
    <circle cx="61.34" cy="39.99" data-cir-type="male" id="circuitoCon_NCS" r="1.26" style="fill: none"/>
    <circle cx="68.45" cy="39.97" data-cir-type="male" id="circuitoCon_FSYNC" r="1.26" style="fill: none"/>
  </g>
</svg>