<?xml version="1.0" ?><svg height="26.76mm" viewBox="0 0 22.2 75.86" width="7.83mm" xmlns="http://www.w3.org/2000/svg" xmlns:xlink="http://www.w3.org/1999/xlink">
  <defs>
    <linearGradient data-name="Silver 01" gradientUnits="userSpaceOnUse" id="Silver_01" x1="11.85" x2="14.23" y1="63.95" y2="63.95">
      <stop offset="0" stop-color="#cbd1d6"/>
      <stop offset="0.2" stop-color="#bac0c5"/>
      <stop offset="0.43" stop-color="#aab1b5"/>
      <stop offset="0.52" stop-color="#b7bec2"/>
      <stop offset="0.84" stop-color="#e3eaed"/>
      <stop offset="1" stop-color="#f4fbfe"/>
    </linearGradient>
    <linearGradient id="Silver_01-2" x1="5.11" x2="6.2" xlink:href="#Silver_01" y1="63.95" y2="63.95"/>
  </defs>
  <title>Fast Vibration Sensor Switch (Easy to trigger)</title>
  <g data-name="Layer 1" id="Layer_1">
    <g>
      <path d="M22.2,2.72c0-1.5-5-2.72-11.1-2.72S0,1.22,0,2.72v0H0v49c0,1.5,5,2.71,11.1,2.71s11.1-1.21,11.1-2.71v-49h0Z" style="fill: #064368"/>
      <ellipse cx="11.1" cy="52.63" rx="7.44" ry="1.21" style="fill: #323335"/>
      <g>
        <path d="M11.85,75.86V53.53A1.37,1.37,0,0,1,13,52a1.37,1.37,0,0,1,1.19,1.5V75.86Z" style="fill: url(#Silver_01)"/>
        <path d="M5.11,75.86V53.53c0-.83.24-1.5.54-1.5s.55.67.55,1.5V75.86Z" style="fill: url(#Silver_01-2)"/>
      </g>
      <g>
        <path d="M15.26,45.56l.06.06a.14.14,0,0,1,0,.07.19.19,0,0,1-.05.1l-.1.16a1,1,0,0,0-.1.23.91.91,0,0,0-.05.31,1,1,0,0,0,.05.32.54.54,0,0,0,.13.22.52.52,0,0,0,.19.14.6.6,0,0,0,.24,0,.48.48,0,0,0,.27-.08.79.79,0,0,0,.18-.22,1.42,1.42,0,0,0,.13-.3l.12-.34a3.42,3.42,0,0,1,.13-.34,1.17,1.17,0,0,1,.19-.3.83.83,0,0,1,.28-.21,1,1,0,0,1,.41-.08,1.28,1.28,0,0,1,.48.09,1,1,0,0,1,.39.25,1.31,1.31,0,0,1,.26.41,1.59,1.59,0,0,1,.09.55,1.67,1.67,0,0,1-.13.69,1.58,1.58,0,0,1-.37.53l-.25-.15,0,0a.1.1,0,0,1,0-.07.12.12,0,0,1,0-.08l.08-.1a1,1,0,0,1,.09-.13,1,1,0,0,0,.1-.17c0-.06.05-.13.07-.21a1.12,1.12,0,0,0,0-.27.9.9,0,0,0-.06-.34.68.68,0,0,0-.14-.25.61.61,0,0,0-.23-.15.65.65,0,0,0-.29-.06.55.55,0,0,0-.29.08.91.91,0,0,0-.18.21,1.36,1.36,0,0,0-.13.3c0,.11-.07.23-.11.34a3.62,3.62,0,0,1-.13.35,1.17,1.17,0,0,1-.19.3,1.27,1.27,0,0,1-.29.21,1.12,1.12,0,0,1-.44.08,1.14,1.14,0,0,1-.4-.08,1.11,1.11,0,0,1-.34-.24,1.18,1.18,0,0,1-.24-.37,1.42,1.42,0,0,1-.09-.52,1.59,1.59,0,0,1,.11-.59,1.22,1.22,0,0,1,.3-.47Z" style="fill: #fff"/>
        <path d="M14.65,39.58l3.89,1.21v.47l-3,1-.09,0-.11,0,.11,0,.09,0,3,1v.47L14.65,45V44.6a.21.21,0,0,1,0-.12l.09-.06,2.71-.81.16,0,.17,0-.18,0-.15,0-2.71-.92a.16.16,0,0,1-.08-.06.16.16,0,0,1,0-.12v-.15a.2.2,0,0,1,0-.11l.09-.07,2.71-.91.15,0,.17,0-.17,0-.15,0-2.71-.81a.24.24,0,0,1-.09-.06.2.2,0,0,1,0-.11Z" style="fill: #fff"/>
        <path d="M16.71,39.24V37.9h.41v1.34Z" style="fill: #fff"/>
        <path d="M18.17,34.8h.37v2.08h-.37v-.83h-2.9l.6.69,0,.07v.07l0,.06s0,0,0,0l-.21.15-1-1.16v-.4h3.53Z" style="fill: #fff"/>
        <path d="M16.51,32.28a1,1,0,0,1,.35-.56.94.94,0,0,1,.62-.2,1,1,0,0,1,.46.1.89.89,0,0,1,.34.27,1.25,1.25,0,0,1,.23.41,1.79,1.79,0,0,1,.07.53,1.81,1.81,0,0,1-.07.54,1.25,1.25,0,0,1-.23.41.89.89,0,0,1-.34.27,1,1,0,0,1-.46.1.94.94,0,0,1-.62-.2,1,1,0,0,1-.35-.56,1,1,0,0,1-.34.47,1,1,0,0,1-.54.15,1,1,0,0,1-.4-.08,1,1,0,0,1-.33-.24,1.25,1.25,0,0,1-.22-.37,1.53,1.53,0,0,1-.08-.49,1.51,1.51,0,0,1,.08-.48A1.14,1.14,0,0,1,14.9,32a1,1,0,0,1,.33-.24,1,1,0,0,1,.4-.08,1,1,0,0,1,.54.15A1,1,0,0,1,16.51,32.28ZM15,32.83a1,1,0,0,0,0,.31.55.55,0,0,0,.14.22.57.57,0,0,0,.21.13.71.71,0,0,0,.26,0,.73.73,0,0,0,.25,0,.52.52,0,0,0,.22-.12.6.6,0,0,0,.16-.22.81.81,0,0,0,.06-.33.79.79,0,0,0-.06-.32.6.6,0,0,0-.16-.22.52.52,0,0,0-.22-.12.73.73,0,0,0-.25,0,.71.71,0,0,0-.26,0,.57.57,0,0,0-.21.13.55.55,0,0,0-.14.22A.94.94,0,0,0,15,32.83Zm3.22,0a.93.93,0,0,0-.06-.34.68.68,0,0,0-.14-.25.78.78,0,0,0-.24-.16.68.68,0,0,0-.29-.06.75.75,0,0,0-.35.07.58.58,0,0,0-.23.18.71.71,0,0,0-.13.26,1,1,0,0,0,0,.3,1.06,1.06,0,0,0,0,.31.71.71,0,0,0,.13.26.58.58,0,0,0,.23.18.75.75,0,0,0,.35.07.68.68,0,0,0,.29-.06.78.78,0,0,0,.24-.16.68.68,0,0,0,.14-.25A1,1,0,0,0,18.2,32.83Z" style="fill: #fff"/>
        <path d="M16.59,28.27a3.28,3.28,0,0,1,.89.11,1.79,1.79,0,0,1,.62.3,1.28,1.28,0,0,1,.36.45,1.31,1.31,0,0,1,.12.56,1.26,1.26,0,0,1-.12.55,1.28,1.28,0,0,1-.36.45,2,2,0,0,1-.62.3,3.62,3.62,0,0,1-1.77,0,1.89,1.89,0,0,1-.62-.3,1.21,1.21,0,0,1-.37-.45,1.26,1.26,0,0,1-.12-.55,1.31,1.31,0,0,1,.12-.56,1.21,1.21,0,0,1,.37-.45,1.71,1.71,0,0,1,.62-.3A3.25,3.25,0,0,1,16.59,28.27Zm0,.5a3.1,3.1,0,0,0-.74.08,1.32,1.32,0,0,0-.49.2.82.82,0,0,0-.27.29.85.85,0,0,0-.08.35.81.81,0,0,0,.08.34.82.82,0,0,0,.27.29,1.32,1.32,0,0,0,.49.2,3.51,3.51,0,0,0,1.49,0,1.39,1.39,0,0,0,.49-.2.71.71,0,0,0,.26-.29.68.68,0,0,0,.08-.34.75.75,0,0,0-.34-.64,1.39,1.39,0,0,0-.49-.2A3.13,3.13,0,0,0,16.59,28.77Z" style="fill: #fff"/>
        <path d="M18.17,25.34h.37v2.09h-.37v-.84h-2.9l.6.69a.25.25,0,0,1,0,.07v.06s0,0,0,.06l0,0-.21.15-1-1.16v-.39h3.53Z" style="fill: #fff"/>
        <path d="M16.59,22a2.93,2.93,0,0,1,.89.11,1.79,1.79,0,0,1,.62.3,1.13,1.13,0,0,1,.36.45,1.26,1.26,0,0,1,.12.55,1.31,1.31,0,0,1-.12.56,1.17,1.17,0,0,1-.36.44,1.79,1.79,0,0,1-.62.3,2.93,2.93,0,0,1-.89.11,2.9,2.9,0,0,1-.88-.11,1.71,1.71,0,0,1-.62-.3,1.11,1.11,0,0,1-.37-.44,1.31,1.31,0,0,1-.12-.56,1.26,1.26,0,0,1,.12-.55,1.07,1.07,0,0,1,.37-.45,1.71,1.71,0,0,1,.62-.3A2.9,2.9,0,0,1,16.59,22Zm0,.5a3.15,3.15,0,0,0-.74.07,1.51,1.51,0,0,0-.49.2,1,1,0,0,0-.27.3.81.81,0,0,0-.08.34.85.85,0,0,0,.08.35.92.92,0,0,0,.27.29,1.51,1.51,0,0,0,.49.2,3.15,3.15,0,0,0,.74.07,3.18,3.18,0,0,0,.75-.07,1.61,1.61,0,0,0,.49-.2.78.78,0,0,0,.26-.29.72.72,0,0,0,.08-.35.68.68,0,0,0-.08-.34.81.81,0,0,0-.26-.3,1.61,1.61,0,0,0-.49-.2A3.18,3.18,0,0,0,16.59,22.47Z" style="fill: #fff"/>
        <path d="M14.65,20.16a2.14,2.14,0,0,1,.08-.65,1.22,1.22,0,0,1,.25-.45.94.94,0,0,1,.38-.27,1.26,1.26,0,0,1,.49-.08,1.35,1.35,0,0,1,.5.09,1.08,1.08,0,0,1,.39.28,1.22,1.22,0,0,1,.25.45,2,2,0,0,1,.09.63v.62h1.46v.53H14.65Zm2,0a1.2,1.2,0,0,0-.06-.4.82.82,0,0,0-.17-.29.68.68,0,0,0-.26-.18.88.88,0,0,0-.33-.06.75.75,0,0,0-.58.23,1,1,0,0,0-.21.7v.62h1.61Z" style="fill: #fff"/>
      </g>
      <g>
        <path d="M5.53,42.94a.45.45,0,0,1,.1.09.21.21,0,0,1,0,.12.34.34,0,0,1-.08.18,2.51,2.51,0,0,0-.18.27,2,2,0,0,0-.17.38,1.71,1.71,0,0,0-.08.54,1.69,1.69,0,0,0,.08.53,1.27,1.27,0,0,0,.22.38.76.76,0,0,0,.33.23.9.9,0,0,0,.4.08.74.74,0,0,0,.46-.13A1.23,1.23,0,0,0,7,45.25a2.38,2.38,0,0,0,.22-.51c.07-.19.13-.38.2-.58a5.83,5.83,0,0,1,.23-.58,1.91,1.91,0,0,1,.32-.51,1.51,1.51,0,0,1,.47-.36,1.6,1.6,0,0,1,.69-.13,2.48,2.48,0,0,1,.82.14A2,2,0,0,1,11,43.85a2.54,2.54,0,0,1,.16.94,2.77,2.77,0,0,1-.86,2.07l-.42-.26a.2.2,0,0,1-.09-.09.21.21,0,0,1,0-.12.2.2,0,0,1,.05-.13l.12-.18.16-.22a1.47,1.47,0,0,0,.16-.28,1.9,1.9,0,0,0,.12-.36,2.16,2.16,0,0,0,0-.46,1.6,1.6,0,0,0-.09-.56,1.37,1.37,0,0,0-.24-.43,1.22,1.22,0,0,0-.38-.26,1.35,1.35,0,0,0-.5-.09.83.83,0,0,0-.49.13,1.12,1.12,0,0,0-.32.36,3,3,0,0,0-.22.51L8,45c-.06.19-.14.39-.22.58a1.71,1.71,0,0,1-.32.5,1.43,1.43,0,0,1-.5.36,1.82,1.82,0,0,1-2-.39,2,2,0,0,1-.41-.65,2.33,2.33,0,0,1-.15-.87,2.75,2.75,0,0,1,.18-1,2.4,2.4,0,0,1,.5-.8Z" style="fill: #fff"/>
        <path d="M11.1,36.07v.69A.27.27,0,0,1,11,37a.44.44,0,0,1-.15.12L6,39v.39l4.92,1.9a.36.36,0,0,1,.14.11.26.26,0,0,1,.07.19v.69L4.49,39.61v-.9ZM6,39l-.28.1-.34.09a6,6,0,0,1,.63.2" style="fill: #fff"/>
        <path d="M11.1,27.22v.69a.32.32,0,0,1-.06.2.42.42,0,0,1-.15.11L6,30.12v.39l4.92,1.91a.26.26,0,0,1,.14.1.27.27,0,0,1,.07.2v.69L4.49,30.77v-.91ZM6,30.12l-.28.1-.34.09a6,6,0,0,1,.63.2" style="fill: #fff"/>
        <path d="M11.1,34.3v.9H4.49v-.9Z" style="fill: #fff"/>
      </g>
      <g>
        <path d="M5.25,19.37a.35.35,0,0,1,.11.09.21.21,0,0,1,0,.12.28.28,0,0,1-.08.18,2.62,2.62,0,0,0-.17.27,2,2,0,0,0-.17.38,1.71,1.71,0,0,0-.08.54,1.69,1.69,0,0,0,.08.53,1.27,1.27,0,0,0,.22.38.9.9,0,0,0,.32.23.94.94,0,0,0,.41.08A.76.76,0,0,0,6.38,22a1.23,1.23,0,0,0,.31-.36,3,3,0,0,0,.22-.51c.06-.19.13-.38.2-.58A5.83,5.83,0,0,1,7.34,20a1.91,1.91,0,0,1,.32-.51,1.4,1.4,0,0,1,.47-.36A1.6,1.6,0,0,1,8.82,19a2.48,2.48,0,0,1,.82.14,2,2,0,0,1,.66.44,2.1,2.1,0,0,1,.44.69,2.54,2.54,0,0,1,.16.94A2.77,2.77,0,0,1,10,23.29L9.61,23a.24.24,0,0,1-.08-.09.25.25,0,0,1,0-.12.27.27,0,0,1,0-.13l.13-.18.16-.22A2.32,2.32,0,0,0,10,22a1.9,1.9,0,0,0,.12-.36,2.16,2.16,0,0,0,.05-.46,1.7,1.7,0,0,0-.09-.57,1.27,1.27,0,0,0-.25-.42,1,1,0,0,0-.38-.26A1.26,1.26,0,0,0,9,19.85a.83.83,0,0,0-.49.13,1.12,1.12,0,0,0-.32.36,2.38,2.38,0,0,0-.22.51l-.18.58c-.07.19-.14.39-.22.58a1.74,1.74,0,0,1-.33.5,1.39,1.39,0,0,1-.49.36A1.78,1.78,0,0,1,6,23a1.75,1.75,0,0,1-.67-.14,1.63,1.63,0,0,1-.58-.4,1.81,1.81,0,0,1-.41-.64A2.33,2.33,0,0,1,4.15,21a3,3,0,0,1,.17-1,2.48,2.48,0,0,1,.51-.8Z" style="fill: #fff"/>
        <path d="M10.83,12.5v.69a.27.27,0,0,1-.06.19.31.31,0,0,1-.16.11L5.69,15.4v.39l4.92,1.9a.33.33,0,0,1,.15.11.26.26,0,0,1,.07.19v.69L4.22,16v-.9ZM5.69,15.4l-.28.09-.34.1a5.08,5.08,0,0,1,.62.2" style="fill: #fff"/>
        <path d="M10.83,3.65v.69a.32.32,0,0,1-.06.2.38.38,0,0,1-.16.11L5.69,6.55v.39l4.92,1.91a.25.25,0,0,1,.15.1.26.26,0,0,1,.07.19v.7L4.22,7.2V6.29ZM5.69,6.55l-.28.1-.34.09a5.08,5.08,0,0,1,.62.2" style="fill: #fff"/>
        <path d="M10.83,10.73v.9H4.22v-.9Z" style="fill: #fff"/>
      </g>
      <g>
        <path d="M15.26,15.3l.06,0a.19.19,0,0,1,0,.07.21.21,0,0,1-.05.11l-.1.16a1.12,1.12,0,0,0-.1.22,1,1,0,0,0-.05.32.91.91,0,0,0,.05.31.58.58,0,0,0,.13.23.52.52,0,0,0,.19.14.61.61,0,0,0,.24,0,.41.41,0,0,0,.27-.08.63.63,0,0,0,.18-.21,2.08,2.08,0,0,0,.13-.3l.12-.34a3.42,3.42,0,0,1,.13-.34,1.17,1.17,0,0,1,.19-.3.83.83,0,0,1,.28-.21.86.86,0,0,1,.41-.08,1.51,1.51,0,0,1,.48.08,1.16,1.16,0,0,1,.39.26,1.31,1.31,0,0,1,.26.41,1.55,1.55,0,0,1,.09.55,1.61,1.61,0,0,1-.5,1.22l-.25-.15s0,0,0-.05a.1.1,0,0,1,0-.07.12.12,0,0,1,0-.08l.08-.1L18,17a.62.62,0,0,0,.1-.16c0-.07.05-.14.07-.22a1.09,1.09,0,0,0,0-.26.9.9,0,0,0-.06-.34.68.68,0,0,0-.14-.25.51.51,0,0,0-.23-.15.65.65,0,0,0-.29-.06.55.55,0,0,0-.29.08.91.91,0,0,0-.18.21,1.36,1.36,0,0,0-.13.3c0,.11-.07.23-.11.34s-.08.23-.13.35a1.17,1.17,0,0,1-.19.3,1.27,1.27,0,0,1-.29.21,1.12,1.12,0,0,1-.44.08,1.14,1.14,0,0,1-.4-.08,1.31,1.31,0,0,1-.34-.24,1.12,1.12,0,0,1-.24-.38,1.36,1.36,0,0,1-.09-.51,1.55,1.55,0,0,1,.11-.59,1.34,1.34,0,0,1,.3-.48Z" style="fill: #fff"/>
        <path d="M14.65,9.32l3.89,1.21V11l-3,1-.09,0-.11,0,.11,0,.09,0,3,1v.47l-3.89,1.21v-.43a.21.21,0,0,1,0-.12l.09-.06,2.71-.81.16,0,.17,0-.18,0-.15,0-2.71-.92a.16.16,0,0,1-.08-.06.16.16,0,0,1,0-.12V12a.18.18,0,0,1,0-.11l.09-.07,2.71-.91.15,0,.17,0a.47.47,0,0,1-.17,0l-.15,0L14.77,9.9l-.09-.06a.2.2,0,0,1,0-.11Z" style="fill: #fff"/>
        <path d="M16.71,9V7.64h.41V9Z" style="fill: #fff"/>
        <path d="M18.17,4.54h.37V6.62h-.37V5.79h-2.9l.6.69,0,.07v.07s0,0,0,0l0,0-.21.16-1-1.16V5.3h3.53Z" style="fill: #fff"/>
        <path d="M16.51,2a1,1,0,0,1,.35-.56.94.94,0,0,1,.62-.2,1,1,0,0,1,.46.1.89.89,0,0,1,.34.27,1.25,1.25,0,0,1,.23.41,1.79,1.79,0,0,1,.07.53,1.81,1.81,0,0,1-.07.54,1.25,1.25,0,0,1-.23.41.89.89,0,0,1-.34.27,1.15,1.15,0,0,1-.46.1.94.94,0,0,1-.62-.2,1,1,0,0,1-.35-.56.92.92,0,0,1-.34.46.89.89,0,0,1-.54.16,1,1,0,0,1-.4-.08,1,1,0,0,1-.33-.24,1.25,1.25,0,0,1-.22-.37,1.53,1.53,0,0,1-.08-.49,1.51,1.51,0,0,1,.08-.48,1.14,1.14,0,0,1,.22-.37,1,1,0,0,1,.33-.24,1,1,0,0,1,.4-.08,1,1,0,0,1,.54.15A1,1,0,0,1,16.51,2ZM15,2.57a1,1,0,0,0,0,.31.55.55,0,0,0,.14.22.57.57,0,0,0,.21.13.71.71,0,0,0,.26,0,1.09,1.09,0,0,0,.25,0,.66.66,0,0,0,.22-.12.6.6,0,0,0,.16-.22.81.81,0,0,0,.06-.33.79.79,0,0,0-.06-.32A.6.6,0,0,0,16.11,2a.43.43,0,0,0-.22-.12.73.73,0,0,0-.25,0,1,1,0,0,0-.26,0,.6.6,0,0,0-.21.14.55.55,0,0,0-.14.22A.94.94,0,0,0,15,2.57Zm3.22,0a.93.93,0,0,0-.06-.34A.68.68,0,0,0,18,2a.63.63,0,0,0-.24-.16.68.68,0,0,0-.29-.06.75.75,0,0,0-.35.07.58.58,0,0,0-.23.18.71.71,0,0,0-.13.26,1,1,0,0,0,0,.3,1.06,1.06,0,0,0,0,.31.71.71,0,0,0,.13.26.58.58,0,0,0,.23.18.91.91,0,0,0,.35.07.68.68,0,0,0,.29-.06A.78.78,0,0,0,18,3.17a.65.65,0,0,0,.14-.26A.9.9,0,0,0,18.2,2.57Z" style="fill: #fff"/>
      </g>
    </g>
  </g>
  <g id="Connectors">
    <rect data-cir-type="male" height="1.08" id="circuitoCon_2" style="fill: none" width="1.08" x="5.11" y="74.78"/>
    <rect data-cir-type="male" height="1.08" id="circuitoCon_1" style="fill: none" width="1.08" x="12.5" y="74.78"/>
  </g>
</svg>