<?xml version="1.0" ?><svg height="20.68mm" viewBox="0 0 76.5 58.63" width="26.99mm" xmlns="http://www.w3.org/2000/svg">
  <title>Adafruit 9-DOF Absolute Orientation IMU Fusion Breakout - BNO055</title>
  <g id="ELLIPSE">
    <path d="M3.32,51.31A3.72,3.72,0,1,0,7,47.59,3.73,3.73,0,0,0,3.32,51.31Z" style="fill: #fff"/>
  </g>
  <g id="BACKGROUND">
    <path d="M56.4,53.14a1.91,1.91,0,1,0,1.69,2.11A1.91,1.91,0,0,0,56.4,53.14Z" style="fill: none"/>
    <path d="M43.86,55.25a1.91,1.91,0,1,0-2.1,1.69A1.91,1.91,0,0,0,43.86,55.25Z" style="fill: none"/>
    <path d="M45.57,42.23a1,1,0,1,0,1-1A1,1,0,0,0,45.57,42.23Z" style="fill: none"/>
    <path d="M65.45,51.31a3.72,3.72,0,1,0,3.72-3.72A3.72,3.72,0,0,0,65.45,51.31Z" style="fill: none"/>
    <path d="M3.32,51.31A3.72,3.72,0,1,0,7,47.59,3.73,3.73,0,0,0,3.32,51.31Z" style="fill: none"/>
    <path d="M50.84,55.25a1.91,1.91,0,0,0-3.8-.42,1.91,1.91,0,1,0,3.8.42Z" style="fill: none"/>
    <path d="M10.76,7.71A3.72,3.72,0,1,0,7,11.43,3.71,3.71,0,0,0,10.76,7.71Z" style="fill: none"/>
    <path d="M56.92,10.29a1,1,0,1,0-1-1A1,1,0,0,0,56.92,10.29Z" style="fill: none"/>
    <path d="M22.06,55.25A1.91,1.91,0,1,0,20,56.94,1.91,1.91,0,0,0,22.06,55.25Z" style="fill: none"/>
    <path d="M36.34,55.25a1.91,1.91,0,1,0-2.11,1.69A1.92,1.92,0,0,0,36.34,55.25Z" style="fill: none"/>
    <path d="M29,55.25a1.91,1.91,0,1,0-2.11,1.69A1.92,1.92,0,0,0,29,55.25Z" style="fill: none"/>
    <path d="M39.73,3.78a1.91,1.91,0,1,0,2.11-1.69A1.92,1.92,0,0,0,39.73,3.78Z" style="fill: none"/>
    <path d="M25.46,3.78a1.91,1.91,0,1,0,2.1-1.69A1.91,1.91,0,0,0,25.46,3.78Z" style="fill: none"/>
    <path d="M32.41,3.78a1.91,1.91,0,1,0,2.11-1.69A1.92,1.92,0,0,0,32.41,3.78Z" style="fill: none"/>
    <path d="M65.45,7.71A3.72,3.72,0,1,0,69.17,4,3.72,3.72,0,0,0,65.45,7.71Z" style="fill: none"/>
    <circle cx="48.99" cy="3.99" r="1.91" style="fill: none" transform="translate(33.7 50.71) rotate(-76.53)"/>
    <path d="M45.57,38.23a1,1,0,1,0,1-1A1,1,0,0,0,45.57,38.23Z" style="fill: none"/>
    <path d="M58.11,31.69a1,1,0,1,0,1-1A1,1,0,0,0,58.11,31.69Z" style="fill: none"/>
    <path d="M49.63,25a1,1,0,1,0,1-1A1,1,0,0,0,49.63,25Z" style="fill: none"/>
    <path d="M29.74,21.43a1,1,0,1,0,1-1A1,1,0,0,0,29.74,21.43Z" style="fill: none"/>
    <path d="M0,6.69V51.94a6.69,6.69,0,0,0,6.69,6.69H69.81a6.69,6.69,0,0,0,6.69-6.69V6.69A6.68,6.68,0,0,0,69.81,0H6.69A6.68,6.68,0,0,0,0,6.69Zm3.32,1A3.72,3.72,0,1,1,7,11.43,3.72,3.72,0,0,1,3.32,7.71Zm53.6.64a1,1,0,1,1-1,1A1,1,0,0,1,56.92,8.35ZM20,56.94a1.91,1.91,0,1,1,2.11-1.69A1.91,1.91,0,0,1,20,56.94Zm7,0A1.91,1.91,0,1,1,29,55.25,1.9,1.9,0,0,1,26.91,56.94Zm7.32,0a1.91,1.91,0,1,1,2.11-1.69A1.9,1.9,0,0,1,34.23,56.94Zm7.53,0a1.91,1.91,0,1,1,2.1-1.69A1.9,1.9,0,0,1,41.76,56.94Zm7,0a1.91,1.91,0,0,1,.41-3.8,1.91,1.91,0,1,1-.41,3.8Zm7.25,0a1.91,1.91,0,0,1,.42-3.8,1.91,1.91,0,1,1-.42,3.8Zm16.91-5.63a3.72,3.72,0,1,1-3.72-3.72A3.73,3.73,0,0,1,72.89,51.31Zm-62.13,0A3.72,3.72,0,1,1,7,47.59,3.72,3.72,0,0,1,10.76,51.31Zm36.76-9.08a1,1,0,1,1-1-1A1,1,0,0,1,47.52,42.23Zm0-4a1,1,0,1,1-1-1A1,1,0,0,1,47.52,38.23Zm12.54-6.54a1,1,0,1,1-1-1A1,1,0,0,1,60.06,31.69ZM51.58,25a1,1,0,1,1-1-1A1,1,0,0,1,51.58,25ZM31.69,21.43a1,1,0,1,1-1-1A1,1,0,0,1,31.69,21.43Zm25.85-3.18a1,1,0,1,1-1-1A1,1,0,0,1,57.54,18.25ZM72.89,7.71A3.72,3.72,0,1,1,69.17,4,3.73,3.73,0,0,1,72.89,7.71ZM49.2,2.09a1.91,1.91,0,1,1-.42,3.8,1.91,1.91,0,0,1,.42-3.8Zm-7.36,0a1.91,1.91,0,1,1-2.11,1.69A1.9,1.9,0,0,1,41.84,2.09Zm-7.32,0a1.91,1.91,0,1,1-2.11,1.69A1.9,1.9,0,0,1,34.52,2.09Zm-7,0a1.91,1.91,0,1,1-2.1,1.69A1.9,1.9,0,0,1,27.56,2.09Z" style="fill: #1a2c80"/>
  </g>
  <g data-name="         lines" id="_lines">
    <g>
      <path d="M16.27,34.61h.79V36h-.9v1.51l.53.53h1.2v-.78h1.53v1h7.44v.86H15l-.8-.8.76-.77V36.25H14V34.83h1V33.47l-.62-.62H12.81v1.72H11.16V32.82l.55-.56V29.49h-5V32.3l.47.47H9.08v2.09h.83v1.52H9.14v1.27l.41.41L9,38.58v4.47l.55.55H10.8v1.48h-.5L8.83,44.3h-1s-.61,0-.28-.73.9-3.35-.94-4.57a4,4,0,0,0-4.31-.12c-.76.47-1.66,2.35-1.52,1.56.06-.31,0-28.14,0-28.14s0-1.23.48-.21,5.56,5.23,10.52.73,0-10.36,0-10.36l-.92-1.1A.29.29,0,0,1,11.12,1C11.5,1,22.9,1,22.9,1h1s.68,0,.38.44a3.49,3.49,0,0,0-.4,4.24s1.44,1.81,2.59,1.62l3,3v3.6l.51.5-.51.75v1.29s1.11-.14,1.11,0a8.65,8.65,0,0,1,0,1.53H29.44v5.08l1.1.55a.85.85,0,0,1,1.24.48c0,.11,0,6.35,0,6.35l-.84,0L29,28.5l0,1.18,1.62,1.53,1.32.06-.11.67-1.5-.12s-1.56-1.32-1.58-1.38l-.63-1.67-2.12.1.12,4.49h2.8l.67-.62L32,32.66l-.15.72L30,33.33l-.77.8-4,0,.11-2.74,1.8-10a9.58,9.58,0,0,0,.34-3.71l-.39-1H25.33V11.35l-.48-.48H20.69l-.55.55s-.61-.72-.71-.72H18.11v1.13h-1.5v-1s-1.86-.36-1.92.5a9.53,9.53,0,0,0,0,1.44h.92V14.4H14.7v1.65s0,.61.72.58a8.09,8.09,0,0,1,1,0v-1h1.44v1h1.5l.45-.34.86.36h.86v2.21l.78.38.07,2.67H11.77v-4.7l-.5-.6H7.08l-.53.52v4.52l15.89,6.89v3.65l-1.07.56-.54-.4H19.61v1.28H18V32.36H16.66a3.49,3.49,0,0,0-.43.43S16.27,34.61,16.27,34.61Z" style="fill: #0b5597"/>
      <path d="M33.56,22.79c-.06-.06-1.87-3.94-1.87-3.94h1.62v1.07l.9.54.5-.48h.62v.48h1.61V19.27h.87v3.44h.84V21.17l.46-.47h1.41l1.13-1.13V17.06l3.42-3.41v1.06l-2.79,2.78v2.3L41,21.12H39.48v2.07H41.6v-2l1.11-1.11V17.6L44.35,16h4.73l.47-.47.6.59h1.2V14.69H53V16h1.23a.69.69,0,0,0,.66-.75V13.79h-1.1V12.21h1.1V11.15s.32-.67.86,0,1,.33,1.44.35,1.7,1.6,1.7,1.6h1.94l.33.48-.27.38H58.62s-.68-.09-.7.81l.08.29-1,1a2.69,2.69,0,0,0-2.71,1.69H50.54l-.58.56-.57-.57H45.56a.8.8,0,0,0-1,.86c0,1.15,0,3.69,0,3.69v.54l-2.25.84-2,4.35,1.25,1.69H47l.54-.21h8.5l.57.62.58.25-.25.86v1.06l.31.31,0,.59H55.54v-2L55,30.58H53.81l-.16,1.27-1.28.38,0-1.36v-.25H50.92l-.67.36-.63-.4h-6.5v4.15Z" style="fill: #0b5597"/>
      <polygon points="48.75 38 53.54 38 53.98 38.75 54.63 38.75 54.81 38.38 55.48 38.38 55.48 36.69 55.12 36.32 53.73 36.32 53.73 35.54 52.12 35.54 52.12 36.46 48.4 36.46 48.06 36.79 48.75 38" style="fill: #0b5597"/>
      <path d="M51.42,11.52V10.21H50.08l-.45.46-.58-.58H47.9l-.44-.76V8L48,7.48s2.62.44,3.6-1a4.09,4.09,0,0,0,.23-4.9s-.37-.35.11-.39,5.06,0,5.06,0,.87-.09.25.56a3.25,3.25,0,0,0-1,3.33c.42,1.71.94,1.36,1,1.79,0,0,.35.5-.85.55s-1.89,2-1.7,2.5-.78.32-1.28.28-.38,0-.38,0a7.76,7.76,0,0,1,0,1.17C52.92,11.34,51.42,11.52,51.42,11.52Z" style="fill: #0b5597"/>
      <path d="M39.23,9.38V7s3.55,1.38,4.85-.36S45.16,4.91,45.5,5s.23,1.59.22,2.86,0,2.2,0,2.2h-1l-.55.55v2.78s-2.58,2.88-2.73,2.73l-1-1,.67-.67V10l-.68-.68Z" style="fill: #0b5597"/>
      <path d="M23.83,53.92a2,2,0,0,1,.44-1c.36-.36,0-.68-.57-1.19S21,49,21,49V46.77h-.81l-.65.95h-.68v3.73h1.79l1.25.61.76.77.66,1.09S23.51,54.83,23.83,53.92Z" style="fill: #0b5597"/>
      <path d="M26.66,51.47a3.62,3.62,0,0,1,3.76,2.17s.49.94.85,0,1.79-2,2.34-1.89v1.48h1.54V51.78a3.39,3.39,0,0,1,2.54,1.7c.31.76.59.75.85.08.23-.2.49-1.47,1.93-1.84v-2.8a1.46,1.46,0,0,1-1.41-.64s-.42-.39-.64.2-.31.91-1,.9-1.14,0-1.14,0v-1.1H34.72v1H33.08l-.31-.47H30.86s.12-1,0-1H29.3V49H27.73a1,1,0,0,1-.57-.8c0-.54-.13-.47-1.16-.5s-2.87,0-2.87,0l3.4,3.68Z" style="fill: #0b5597"/>
      <polyline points="50.42 43.58 48.99 43.58 47.7 44.87 45.38 44.87 43 42.5" style="fill: none;stroke: #0b5597;stroke-linecap: round;stroke-linejoin: round;stroke-width: 0.5px"/>
      <line style="fill: none;stroke: #0b5597;stroke-linecap: round;stroke-linejoin: round;stroke-width: 0.5px" x1="45.75" x2="43.68" y1="37.47" y2="35.4"/>
      <line style="fill: none;stroke: #0b5597;stroke-linecap: round;stroke-linejoin: round;stroke-width: 0.5px" x1="41.8" x2="41.8" y1="53.05" y2="47.28"/>
      <line style="fill: none;stroke: #0b5597;stroke-linecap: round;stroke-linejoin: round;stroke-width: 0.5px" x1="40.47" x2="22.56" y1="43.31" y2="43.31"/>
      <path d="M16.38,46.31H13.25l-1.07-1.07V42.06" style="fill: none;stroke: #0b5597;stroke-linecap: round;stroke-linejoin: round;stroke-width: 0.5px"/>
      <path d="M18.12,53.66a4.78,4.78,0,0,1-.62-.94V46.53" style="fill: none;stroke: #0b5597;stroke-linecap: round;stroke-linejoin: round;stroke-width: 0.5px"/>
      <path d="M26.67,53.19c-.12.05-4.45-4.66-4.45-4.66V46.31" style="fill: none;stroke: #0b5597;stroke-linecap: round;stroke-linejoin: round;stroke-width: 0.5px"/>
      <polyline points="49.16 53.06 49.16 48.41 49.75 47.81 50.5 47.06" style="fill: none;stroke: #0b5597;stroke-linecap: round;stroke-linejoin: round;stroke-width: 0.5px"/>
      <line style="fill: none;stroke: #0b5597;stroke-linecap: round;stroke-linejoin: round;stroke-width: 0.5px" x1="52.06" x2="58.97" y1="46.66" y2="46.66"/>
      <path d="M52.25,43.5c.09,0,2.13,0,2.13,0" style="fill: none;stroke: #0b5597;stroke-linecap: round;stroke-linejoin: round;stroke-width: 0.5px"/>
      <line style="fill: none;stroke: #0b5597;stroke-linecap: round;stroke-linejoin: round;stroke-width: 0.5px" x1="54.78" x2="57.22" y1="43.91" y2="43.91"/>
      <line style="fill: none;stroke: #0b5597;stroke-linecap: round;stroke-linejoin: round;stroke-width: 0.5px" x1="62.22" x2="62.22" y1="39.69" y2="36.88"/>
      <polyline points="63.56 34.73 63.56 33 59.53 28.97" style="fill: none;stroke: #0b5597;stroke-linecap: round;stroke-linejoin: round;stroke-width: 0.5px"/>
      <path d="M62.91,26.13V22.38" style="fill: none;stroke: #0b5597;stroke-linecap: round;stroke-linejoin: round;stroke-width: 0.5px"/>
      <path d="M58.81,26.13V22.38" style="fill: none;stroke: #0b5597;stroke-linecap: round;stroke-linejoin: round;stroke-width: 0.5px"/>
      <polyline points="62.91 18.25 62.91 13.87 61.2 12.12 59.29 12.12 57.46 10.25" style="fill: none;stroke: #0b5597;stroke-linecap: round;stroke-linejoin: round;stroke-width: 0.5px"/>
      <line style="fill: none;stroke: #0b5597;stroke-linecap: round;stroke-linejoin: round;stroke-width: 0.5px" x1="53.88" x2="56.56" y1="22.13" y2="22.13"/>
      <line style="fill: none;stroke: #0b5597;stroke-linecap: round;stroke-linejoin: round;stroke-width: 0.5px" x1="46.89" x2="46.89" y1="27.09" y2="22.13"/>
      <polyline points="43.13 40.48 44.56 40.48 45.58 41.42" style="fill: none;stroke: #0b5597;stroke-linecap: round;stroke-linejoin: round;stroke-width: 0.5px"/>
      <polyline points="47.52 41.42 48.33 40.6 50.02 40.6" style="fill: none;stroke: #0b5597;stroke-linecap: round;stroke-linejoin: round;stroke-width: 0.5px"/>
      <line style="fill: none;stroke: #0b5597;stroke-linecap: round;stroke-linejoin: round;stroke-width: 0.5px" x1="25.65" x2="34.31" y1="40.6" y2="40.6"/>
      <line style="fill: none;stroke: #0b5597;stroke-linecap: round;stroke-linejoin: round;stroke-width: 0.5px" x1="31.4" x2="34.31" y1="46.65" y2="46.65"/>
      <polyline points="30.1 39.1 30.1 35.63 31.28 34.45 33.29 34.45" style="fill: none;stroke: #0b5597;stroke-linecap: round;stroke-linejoin: round;stroke-width: 0.5px"/>
      <line style="fill: none;stroke: #0b5597;stroke-linecap: round;stroke-linejoin: round;stroke-width: 0.5px" x1="37.39" x2="37.39" y1="39.42" y2="36.43"/>
      <path d="M37.17,40c.06,0,2.91-2.9,2.91-2.9l1.08-1.08" style="fill: none;stroke: #0b5597;stroke-linecap: round;stroke-linejoin: round;stroke-width: 0.5px"/>
      <line style="fill: none;stroke: #0b5597;stroke-linecap: round;stroke-linejoin: round;stroke-width: 0.5px" x1="56.52" x2="56.52" y1="40.08" y2="35.85"/>
      <line style="fill: none;stroke: #0b5597;stroke-linecap: round;stroke-linejoin: round;stroke-width: 0.5px" x1="58.97" x2="58.97" y1="34.4" y2="32.86"/>
      <circle cx="59.08" cy="31.69" r="1.08" style="fill: none;stroke: #0b5597;stroke-linecap: round;stroke-linejoin: round;stroke-width: 0.5px"/>
      <circle cx="50.61" cy="25.04" r="1.08" style="fill: none;stroke: #0b5597;stroke-linecap: round;stroke-linejoin: round;stroke-width: 0.5px"/>
      <circle cx="56.92" cy="9.32" r="1.08" style="fill: none;stroke: #0b5597;stroke-linecap: round;stroke-linejoin: round;stroke-width: 0.5px"/>
      <circle cx="56.56" cy="18.25" r="1.08" style="fill: none;stroke: #0b5597;stroke-linecap: round;stroke-linejoin: round;stroke-width: 0.5px"/>
      <circle cx="46.55" cy="38.23" r="1.08" style="fill: none;stroke: #0b5597;stroke-linecap: round;stroke-linejoin: round;stroke-width: 0.5px"/>
      <circle cx="46.55" cy="42.23" r="1.08" style="fill: none;stroke: #0b5597;stroke-linecap: round;stroke-linejoin: round;stroke-width: 0.5px"/>
      <circle cx="30.71" cy="21.43" r="1.08" style="fill: none;stroke: #0b5597;stroke-linecap: round;stroke-linejoin: round;stroke-width: 0.5px"/>
      <polyline points="57.27 17.43 58.27 16.4 59.53 16.4" style="fill: none;stroke: #0b5597;stroke-linecap: round;stroke-linejoin: round;stroke-width: 0.5px"/>
      <line style="fill: none;stroke: #0b5597;stroke-linecap: round;stroke-linejoin: round;stroke-width: 0.5px" x1="33.84" x2="37.84" y1="17.63" y2="17.63"/>
      <polyline points="38.16 11.09 38.16 7.78 35.88 5.5" style="fill: none;stroke: #0b5597;stroke-linecap: round;stroke-linejoin: round;stroke-width: 0.5px"/>
      <line style="fill: none;stroke: #0b5597;stroke-linecap: round;stroke-linejoin: round;stroke-width: 0.5px" x1="31.22" x2="27.03" y1="10.56" y2="5.98"/>
      <polyline points="23.75 18.78 22.86 17.89 22.86 15.13" style="fill: none;stroke: #0b5597;stroke-linecap: round;stroke-linejoin: round;stroke-width: 0.5px"/>
      <circle cx="56.92" cy="13.04" r="0.73" style="fill: none;stroke: #0b5597;stroke-linecap: round;stroke-linejoin: round;stroke-width: 0.5px"/>
      <circle cx="42.73" cy="11.98" r="0.73" style="fill: none;stroke: #000;stroke-linecap: round;stroke-linejoin: round;stroke-width: 0.5px"/>
      <circle cx="27.03" cy="10.23" r="0.73" style="fill: none;stroke: #0b5597;stroke-linecap: round;stroke-linejoin: round;stroke-width: 0.5px"/>
      <circle cx="30.83" cy="26.23" r="0.73" style="fill: none;stroke: #0b5597;stroke-linecap: round;stroke-linejoin: round;stroke-width: 0.5px"/>
      <circle cx="7.21" cy="36.05" r="0.73" style="fill: #1977bc"/>
    </g>
  </g>
  <g id="text">
    <g>
      <path d="M1.19,37.74v-1.3c0-.69.41-1,1.07-1a.9.9,0,0,1,.74.31,1,1,0,0,1,.84-.31.92.92,0,0,1,1,1v1.3Zm1.57-.46v-.84c0-.34-.15-.53-.5-.53s-.61.11-.61.53v.84Zm1.58,0v-.84c0-.34-.15-.53-.5-.53s-.61.11-.61.53v.84Z" style="fill: #fff"/>
      <path d="M1.42,32.55a.2.2,0,0,1-.23-.23c0-.17.08-.24.23-.24H4.81v.62L2,33.91H4.57a.21.21,0,0,1,.24.24.21.21,0,0,1-.24.23H1.19v-.62L4,32.56H1.42Z" style="fill: #fff"/>
      <path d="M2.49,28.86A1.06,1.06,0,0,1,3,28.73a1.07,1.07,0,0,1,.55.16l.86.43a.62.62,0,0,1,.39.56.64.64,0,0,1-.39.57l-.86.43A1.16,1.16,0,0,1,3,31a1,1,0,0,1-.52-.12l-.92-.46a.64.64,0,0,1-.38-.57.62.62,0,0,1,.38-.56Zm-.7.87c-.07,0-.14.06-.14.15s.07.13.14.16l.84.42a.76.76,0,0,0,.38.11.68.68,0,0,0,.31-.08L4.2,30c.07,0,.14-.06.14-.16s-.07-.12-.14-.15l-.88-.45A.68.68,0,0,0,3,29.2a.76.76,0,0,0-.38.11Z" style="fill: #fff"/>
      <path d="M1.19,25.85a.46.46,0,0,1,.46-.47H4.34a.46.46,0,0,1,.47.47v1.36a.46.46,0,0,1-.47.47H1.65a.46.46,0,0,1-.46-.47Zm3.15,0H1.65v1.36H4.34Z" style="fill: #fff"/>
      <path d="M2.76,23.4v-.86a.5.5,0,0,1,.13-.37.47.47,0,0,1,.4-.14h1a.5.5,0,0,1,.37.11.44.44,0,0,1,.16.4v1a.65.65,0,0,1-.09.3l-.08.18c0,.13-.1.27-.26.27a.24.24,0,0,1-.23-.23.28.28,0,0,1,0-.15l.06-.14a1,1,0,0,0,.09-.24V22.49H3.23v1.37h-2v-1.6A.21.21,0,0,1,1.42,22a.21.21,0,0,1,.23.23V23.4Z" style="fill: #fff"/>
      <path d="M2.76,20.05v-.86a.5.5,0,0,1,.13-.37.47.47,0,0,1,.4-.15h1a.54.54,0,0,1,.37.11.46.46,0,0,1,.16.41v1a.73.73,0,0,1-.09.31l-.08.18c0,.12-.1.26-.26.26a.23.23,0,0,1-.23-.22.26.26,0,0,1,0-.15l.06-.14a1.06,1.06,0,0,0,.09-.25V19.14H3.23v1.37h-2v-1.6a.21.21,0,0,1,.23-.24.22.22,0,0,1,.23.24v1.14Z" style="fill: #fff"/>
    </g>
    <g>
      <path d="M18.72,49.85v-.41c0-.08,0-.12.12-.12s.13,0,.13.12v.41a.18.18,0,0,1,0,.1l-.47,1.25c0,.06-.05.11-.13.11s-.1-.05-.12-.11L17.75,50a.18.18,0,0,1,0-.1v-.41c0-.08,0-.12.13-.12s.12,0,.12.12v.41l.37,1Z" style="fill: #fff"/>
      <path d="M20.27,51.06h.18c.08,0,.17,0,.17.13s-.1.12-.17.12h-.61c-.07,0-.16,0-.16-.12s.08-.13.16-.13H20v-.89h-.19c-.07,0-.16,0-.16-.12s.08-.12.16-.12h.26c.13,0,.17,0,.17.17Zm-.36-1.63c0-.09.05-.11.11-.11h.14c.07,0,.11,0,.11.11v.12c0,.09,0,.11-.11.11H20c-.06,0-.11,0-.11-.11Z" style="fill: #fff"/>
      <path d="M21.6,50.42v.72c0,.08,0,.17-.12.17s-.12-.09-.12-.17v-1c0-.09,0-.18.12-.18s.12.09.12.18v0h0l.19-.13a.42.42,0,0,1,.21-.08h.18a.27.27,0,0,1,.22.09c.11.09.1.2.11.33l0,.78c0,.08,0,.18-.11.18s-.12-.09-.12-.17l0-.76c0-.15,0-.21-.16-.21H22a.13.13,0,0,0-.08,0Z" style="fill: #fff"/>
      <path d="M25.05,49.57a.11.11,0,0,1-.12-.13.11.11,0,0,1,.12-.12h.86a.25.25,0,0,1,.25.25v.49a.29.29,0,0,1-.1.25.3.3,0,0,1,.1.25v.49a.25.25,0,0,1-.25.26h-.86a.13.13,0,0,1,0-.26h.86v-.42c0-.15-.05-.19-.12-.19H25.3a.13.13,0,0,1,0-.26h.49c.07,0,.12,0,.12-.18v-.43Z" style="fill: #fff"/>
      <path d="M27.69,50.24v-.13c0-.09,0-.18.12-.18s.12.07.12.15v.17a.19.19,0,0,1,0,.1l-.36.81c0,.05-.06.15-.12.15h-.16c-.06,0-.1-.1-.12-.15l-.36-.81a.19.19,0,0,1,0-.1v-.17c0-.08,0-.15.12-.15s.12.09.12.18v.13l.35.81Z" style="fill: #fff"/>
      <path d="M28.55,50.39a.33.33,0,0,1,.15-.32.44.44,0,0,1,.34-.14h.2a.44.44,0,0,1,.34.14.33.33,0,0,1,.15.32v.46a.36.36,0,0,1-.17.33.37.37,0,0,1-.32.13H29a.37.37,0,0,1-.32-.13.36.36,0,0,1-.17-.33Zm.24.46s0,.09.09.15a.23.23,0,0,0,.16.06h.2A.23.23,0,0,0,29.4,51c.07-.06.09-.1.09-.15v-.46s0-.09-.09-.15a.2.2,0,0,0-.16-.07H29a.2.2,0,0,0-.16.07c-.07.06-.09.1-.09.15Z" style="fill: #fff"/>
      <path d="M32.86,50.66a.13.13,0,0,1,0-.26h.49v.51a.37.37,0,0,1-.4.4h-.43a.36.36,0,0,1-.28-.1.38.38,0,0,1-.12-.32v-.64a.5.5,0,0,1,.13-.37l.29-.39a.38.38,0,0,1,.35-.17h.34a.11.11,0,0,1,.12.12.11.11,0,0,1-.12.13h-.3c-.14,0-.13,0-.21.11l-.27.35a.5.5,0,0,0-.08.34v.5c0,.14,0,.18.17.18h.4c.09,0,.16,0,.16-.13v-.26Z" style="fill: #fff"/>
      <path d="M34.91,49.45c0-.09,0-.13.12-.13s.13,0,.13.13v1.86h-.33l-.66-1.54h0v1.41a.12.12,0,0,1-.13.13c-.09,0-.12-.05-.12-.13V49.32h.33l.65,1.55h0Z" style="fill: #fff"/>
      <path d="M36,49.57h-.09c-.08,0-.15,0-.15-.13s.06-.12.14-.12h.42a.39.39,0,0,1,.38.25l.22.45a.63.63,0,0,1,.07.3.68.68,0,0,1-.07.28l-.23.47a.38.38,0,0,1-.39.24h-.42a.13.13,0,0,1,0-.26H36Zm.25,1.48h0c.1,0,.13,0,.17-.1l.22-.46a.34.34,0,0,0,.05-.17.56.56,0,0,0-.06-.21l-.21-.43c0-.11-.07-.11-.19-.11h0Z" style="fill: #fff"/>
      <path d="M40.46,50.81a.31.31,0,0,1,.09.21.29.29,0,0,1-.32.29h-.55a.39.39,0,0,1-.25-.08.33.33,0,0,1-.12-.24.15.15,0,0,1,.14-.16.13.13,0,0,1,.11.14c0,.07,0,.08.11.08h.55s.08,0,.08,0,0-.06,0-.07l-.85-1.13a.29.29,0,0,1,.05-.46.34.34,0,0,1,.2,0h.53a.36.36,0,0,1,.25.08.33.33,0,0,1,.12.24c0,.09,0,.15-.13.15a.11.11,0,0,1-.12-.12c0-.09,0-.1-.12-.1h-.53s-.09,0-.09,0,0,0,0,.07Z" style="fill: #fff"/>
      <path d="M41.36,49.57h-.1c-.08,0-.15,0-.15-.13s.07-.12.15-.12h.41a.37.37,0,0,1,.38.25l.22.45a.64.64,0,0,1,.08.3.57.57,0,0,1-.08.28l-.22.47a.38.38,0,0,1-.4.24h-.41a.13.13,0,0,1,0-.26h.12Zm.25,1.48h0c.11,0,.13,0,.18-.1l.22-.46a.34.34,0,0,0,.05-.17.44.44,0,0,0-.07-.21l-.2-.43c-.06-.11-.08-.11-.19-.11h0Z" style="fill: #fff"/>
      <path d="M43.4,49.45c0-.07.05-.13.13-.13s.11.06.13.13l.48,1.73c0,.06,0,.13-.12.13a.14.14,0,0,1-.13-.13l-.1-.31h-.53l-.1.31a.14.14,0,0,1-.13.13c-.07,0-.14-.07-.12-.13Zm.13.47h0l-.19.7h.39Z" style="fill: #fff"/>
      <path d="M47.65,50.81a.31.31,0,0,1,.09.21.28.28,0,0,1-.31.29h-.55a.4.4,0,0,1-.26-.08.36.36,0,0,1-.11-.24c0-.08,0-.16.13-.16a.13.13,0,0,1,.12.14c0,.07,0,.08.11.08h.54s.08,0,.08,0a.16.16,0,0,0,0-.07l-.86-1.13a.32.32,0,0,1-.08-.21.28.28,0,0,1,.13-.25.38.38,0,0,1,.21,0h.53a.35.35,0,0,1,.24.08.33.33,0,0,1,.12.24c0,.09,0,.15-.13.15a.12.12,0,0,1-.12-.12c0-.09,0-.1-.12-.1h-.53s-.08,0-.08,0a.21.21,0,0,0,0,.07Z" style="fill: #fff"/>
      <path d="M49,51.31a.38.38,0,0,1-.38-.24l-.23-.48a.64.64,0,0,1-.07-.27.55.55,0,0,1,.07-.28l.23-.48a.38.38,0,0,1,.39-.24h.43a.11.11,0,0,1,.12.12.12.12,0,0,1-.12.13H49c-.11,0-.13,0-.18.11l-.21.45a.31.31,0,0,0-.06.19.39.39,0,0,0,.06.18l.21.44c0,.11.08.11.19.11h.41a.12.12,0,0,1,.12.13.12.12,0,0,1-.12.13Z" style="fill: #fff"/>
      <path d="M51.21,51.05a.13.13,0,0,1,0,.26H50.1V49.44c0-.08,0-.12.13-.12s.12,0,.12.12v1.61Z" style="fill: #fff"/>
      <path d="M54,51.18a.12.12,0,0,1-.13.13c-.09,0-.12-.05-.12-.13V49.32h.84a.38.38,0,0,1,.4.37v.17a.38.38,0,0,1-.4.37h-.23l.56.82a.27.27,0,0,1,.07.14.12.12,0,0,1-.13.12.14.14,0,0,1-.11-.07l-.69-1H54ZM54,50h.55c.08,0,.19,0,.19-.11v-.17c0-.11-.11-.12-.18-.12H54Z" style="fill: #fff"/>
      <path d="M56.65,50.81a.3.3,0,0,1,.08.21.28.28,0,0,1-.31.29h-.55a.36.36,0,0,1-.25-.08A.33.33,0,0,1,55.5,51c0-.08,0-.16.13-.16a.13.13,0,0,1,.12.14c0,.07,0,.08.11.08h.54s.08,0,.08,0a.16.16,0,0,0,0-.07l-.86-1.13a.32.32,0,0,1-.08-.21.28.28,0,0,1,.13-.25.38.38,0,0,1,.21,0h.53a.39.39,0,0,1,.25.08.36.36,0,0,1,.11.24c0,.09,0,.15-.13.15a.12.12,0,0,1-.12-.12c0-.09,0-.1-.12-.1h-.53s-.08,0-.08,0,0,0,0,.07Z" style="fill: #fff"/>
      <path d="M57.55,49.57v.09c0,.09,0,.13-.13.13s-.12,0-.12-.13v-.34h1.23v.34c0,.09,0,.13-.12.13s-.13,0-.13-.13v-.09H58v1.61a.12.12,0,0,1-.13.13c-.09,0-.12-.05-.12-.13V49.57Z" style="fill: #fff"/>
    </g>
    <g>
      <path d="M24,9.4c0,.09,0,.14-.13.14a.12.12,0,0,1-.14-.14v-2h.9a.41.41,0,0,1,.44.46v.37a.45.45,0,0,1-.11.35.42.42,0,0,1-.36.13H24Zm0-.92h.6c.16,0,.2,0,.2-.2V7.9c0-.15,0-.19-.2-.19H24Z" style="fill: #fff"/>
      <path d="M26.94,9a.36.36,0,0,1,.09.22.3.3,0,0,1-.34.31H26.1a.38.38,0,0,1-.27-.09.31.31,0,0,1-.13-.25A.15.15,0,0,1,25.84,9a.13.13,0,0,1,.13.14c0,.08,0,.09.12.09h.58s.09,0,.09,0,0-.06,0-.08L25.79,8a.31.31,0,0,1-.09-.22.3.3,0,0,1,.14-.26.37.37,0,0,1,.23,0h.57a.38.38,0,0,1,.27.09.35.35,0,0,1,.12.25c0,.09,0,.16-.14.16a.12.12,0,0,1-.13-.13c0-.09,0-.1-.13-.1h-.57s-.09,0-.09,0,0,0,0,.07Z" style="fill: #fff"/>
      <path d="M28.91,8.2a.6.6,0,0,1,.07.3.7.7,0,0,1-.09.32l-.25.5a.35.35,0,0,1-.33.22A.37.37,0,0,1,28,9.32l-.25-.5a.69.69,0,0,1-.08-.32.51.51,0,0,1,.07-.3L28,7.66a.35.35,0,0,1,.32-.22.37.37,0,0,1,.33.22Zm-.51-.41s0-.08-.09-.08-.07,0-.09.08L28,8.28a.43.43,0,0,0-.06.22.37.37,0,0,0,0,.18l.26.51s0,.08.09.08a.09.09,0,0,0,.09-.08l.26-.51a.37.37,0,0,0,.05-.18.43.43,0,0,0-.06-.22Z" style="fill: #fff"/>
      <path d="M31.81,9.4a.12.12,0,0,1-.14.14c-.1,0-.13,0-.13-.14v-2h.89a.39.39,0,0,1,.31.11.4.4,0,0,1,.13.35v.37a.45.45,0,0,1-.11.35.42.42,0,0,1-.36.13h-.59Zm0-.92h.59c.16,0,.2,0,.2-.2V7.9c0-.15,0-.19-.2-.19h-.59Z" style="fill: #fff"/>
      <path d="M34.72,9a.36.36,0,0,1,.09.22.3.3,0,0,1-.34.31h-.59a.38.38,0,0,1-.27-.09.31.31,0,0,1-.13-.25A.15.15,0,0,1,33.62,9a.13.13,0,0,1,.13.14c0,.08,0,.09.12.09h.59s.08,0,.08,0,0-.06,0-.08L33.57,8a.31.31,0,0,1-.09-.22.3.3,0,0,1,.14-.26.37.37,0,0,1,.23,0h.57a.38.38,0,0,1,.27.09.35.35,0,0,1,.12.25c0,.09,0,.16-.14.16a.12.12,0,0,1-.13-.13c0-.09,0-.1-.13-.1h-.57s-.09,0-.09,0,0,0,0,.07Z" style="fill: #fff"/>
      <path d="M36.23,9.27h.39a.13.13,0,0,1,.14.13.13.13,0,0,1-.14.14H35.56a.12.12,0,0,1-.13-.14.12.12,0,0,1,.13-.13H36V7.71h-.4a.12.12,0,0,1-.13-.14.12.12,0,0,1,.13-.13h1.06a.13.13,0,0,1,.14.13.13.13,0,0,1-.14.14h-.39Z" style="fill: #fff"/>
      <path d="M40.12,9.27h.39a.13.13,0,0,1,.14.13.13.13,0,0,1-.14.14H39.45a.12.12,0,0,1-.13-.14.12.12,0,0,1,.13-.13h.4V7.71h-.4a.12.12,0,0,1-.13-.14.12.12,0,0,1,.13-.13h1.06a.13.13,0,0,1,.14.13.13.13,0,0,1-.14.14h-.39Z" style="fill: #fff"/>
      <path d="M42.33,7.58c0-.09,0-.14.13-.14a.12.12,0,0,1,.14.14v2h-.36l-.7-1.62h0V9.4c0,.09,0,.14-.13.14a.12.12,0,0,1-.14-.14v-2h.36l.7,1.64h0Z" style="fill: #fff"/>
      <path d="M43.48,7.71v.1c0,.08,0,.13-.14.13s-.13-.05-.13-.13V7.44h1.33v.37c0,.08,0,.13-.14.13a.12.12,0,0,1-.13-.13v-.1H44V9.4a.12.12,0,0,1-.14.14c-.09,0-.13,0-.13-.14V7.71Z" style="fill: #fff"/>
      <path d="M47.63,7.58c0-.08,0-.14.13-.14s.12.07.14.14l.52,1.82c0,.07-.05.14-.13.14s-.12-.07-.14-.14l-.1-.32h-.58l-.1.32c0,.07-.06.14-.14.14s-.15-.07-.13-.14Zm.14.5h0l-.21.73H48Z" style="fill: #fff"/>
      <path d="M49.31,7.71h-.1c-.09,0-.17,0-.17-.14s.07-.13.16-.13h.45a.42.42,0,0,1,.41.27l.23.47a.59.59,0,0,1,.08.32.57.57,0,0,1-.07.29l-.25.5a.41.41,0,0,1-.43.25h-.44A.13.13,0,0,1,49,9.4a.13.13,0,0,1,.14-.13h.13Zm.27,1.56h.05c.11,0,.14,0,.19-.11l.23-.48a.41.41,0,0,0,.05-.18A.43.43,0,0,0,50,8.28l-.23-.46c-.05-.11-.08-.11-.2-.11h0Z" style="fill: #fff"/>
      <path d="M51.26,9.4a.12.12,0,0,1-.14.14c-.1,0-.13,0-.13-.14v-2h.9a.41.41,0,0,1,.43.39V8a.39.39,0,0,1-.43.38h-.24l.6.87a.27.27,0,0,1,.07.14.13.13,0,0,1-.14.13.14.14,0,0,1-.12-.08L51.32,8.4h-.06Zm0-1.27h.6c.07,0,.19,0,.19-.11V7.83c0-.11-.11-.12-.19-.12h-.6Z" style="fill: #fff"/>
    </g>
    <g>
      <path d="M68.45,40.45v1.2a.17.17,0,0,1-.17.17h-.89a.18.18,0,0,1-.18-.17V40.28a.19.19,0,0,1,.18-.18h2.36a.17.17,0,0,1,.17.18v.17a.17.17,0,0,1-.17.18.17.17,0,0,1-.18-.18Zm-.35,0h-.54v1h.54Z" style="fill: #fff"/>
      <path d="M68.36,38.06c0-.15,0-.21.21-.21s.21.06.21.21v.81c0,.14,0,.21-.21.21s-.21-.07-.21-.21Z" style="fill: #fff"/>
      <path d="M67.39,36.14c-.09,0-.18-.07-.18-.18s.09-.15.18-.18l2.36-.67c.08,0,.17.07.17.17s-.09.16-.17.19l-.42.12v.74l.42.14a.2.2,0,0,1,.17.19c0,.09-.09.19-.17.16ZM68,36h0l.94.27v-.55Z" style="fill: #fff"/>
      <path d="M69,33.69l-.6.51a.25.25,0,0,1-.16.08.17.17,0,0,1-.17-.17c0-.1.1-.16.17-.22l.52-.43L68.22,33c-.07-.06-.17-.13-.17-.23a.17.17,0,0,1,.17-.16.29.29,0,0,1,.16.07l.6.52.61-.52a.29.29,0,0,1,.16-.07.17.17,0,0,1,.17.16c0,.1-.1.17-.17.23l-.52.42.52.43c.07.06.17.12.17.22a.17.17,0,0,1-.17.17.25.25,0,0,1-.16-.08Z" style="fill: #fff"/>
      <path d="M67.37,31.29c-.12,0-.16-.06-.16-.15v-.2c0-.09,0-.15.16-.15h.16c.12,0,.16.06.16.15v.2c0,.09,0,.15-.16.15Zm2.22-.5v-.25c0-.11,0-.23.16-.23s.17.13.17.23v.85c0,.09,0,.23-.17.23s-.16-.12-.16-.23v-.27H68.38v.27c0,.09,0,.23-.17.23s-.16-.12-.16-.23V31c0-.19,0-.24.23-.24Z" style="fill: #fff"/>
      <path d="M68.38,28.71c0,.07,0,.19.09.19s.08,0,.1-.09L69,28a.47.47,0,0,1,.47-.33.48.48,0,0,1,.5.55v.52a.66.66,0,0,1-.1.42c0,.06-.12.15-.2.15a.18.18,0,0,1-.17-.18.14.14,0,0,1,.06-.12.35.35,0,0,0,.08-.27v-.45c0-.12,0-.28-.19-.28s-.13.09-.17.17l-.35.79a.42.42,0,0,1-.41.29.43.43,0,0,1-.42-.46V28.2a.52.52,0,0,1,.11-.39c0-.06.09-.13.19-.13a.18.18,0,0,1,.17.17.19.19,0,0,1-.07.14.26.26,0,0,0-.07.21Z" style="fill: #fff"/>
      <path d="M67.39,23.64c-.09,0-.18-.07-.18-.18s.09-.16.18-.18l2.36-.67c.08,0,.17.07.17.16a.2.2,0,0,1-.17.19l-.42.13v.74l.42.13c.08,0,.17.08.17.19s-.09.19-.17.17Zm.65-.18h0l.94.27v-.54Z" style="fill: #fff"/>
      <path d="M68.29,21.44l-.06-.06c-.11-.11-.18-.17-.18-.33v-.37a.37.37,0,0,1,.11-.24l.1-.12a.46.46,0,0,1,.39-.18h.67a.43.43,0,0,1,.38.18l.1.12a.42.42,0,0,1,.12.26V21a.49.49,0,0,1-.17.33l-.07.07h0c.11,0,.22,0,.22.17s-.12.17-.23.17h-2.1c-.12,0-.23,0-.23-.17s.11-.17.23-.17Zm.83,0a.22.22,0,0,0,.22-.1l.16-.19s.09-.09.09-.13v-.25a.18.18,0,0,0,0-.11l-.13-.14s-.11,0-.17,0h-.6a.2.2,0,0,0-.14,0l-.11.15a.11.11,0,0,0,0,.08V21a.22.22,0,0,0,.06.14l.19.21a.2.2,0,0,0,.19.1Z" style="fill: #fff"/>
      <path d="M68.38,18.71c0,.06,0,.18.09.18s.08,0,.1-.09L69,18a.47.47,0,0,1,.47-.33.48.48,0,0,1,.5.55v.52a.62.62,0,0,1-.1.41c0,.07-.12.16-.2.16a.18.18,0,0,1-.11-.31.33.33,0,0,0,.08-.26v-.46c0-.12,0-.28-.19-.28s-.13.1-.17.18l-.35.78a.42.42,0,0,1-.41.3.43.43,0,0,1-.42-.46V18.2a.51.51,0,0,1,.11-.39c0-.06.09-.13.19-.13a.18.18,0,0,1,.17.17.19.19,0,0,1-.07.14.26.26,0,0,0-.07.21Z" style="fill: #fff"/>
      <path d="M69.48,16.08c0,.08,0,.13-.07.18a.22.22,0,0,1-.16,0h-.19a.22.22,0,0,1-.16,0c-.07-.05-.07-.1-.07-.18v-.25a.19.19,0,0,1,.07-.18.22.22,0,0,1,.16,0h.19a.22.22,0,0,1,.16,0,.19.19,0,0,1,.07.18Z" style="fill: #fff"/>
    </g>
    <g>
      <path d="M72.81,39.89a.74.74,0,0,1,.36-.09.84.84,0,0,1,.38.11l.59.3a.42.42,0,0,1,0,.78l-.59.3a.84.84,0,0,1-.38.11.74.74,0,0,1-.36-.09L72.17,41a.42.42,0,0,1,0-.78Zm-.49.6s-.09,0-.09.11,0,.08.09.11l.58.29a.52.52,0,0,0,.27.07.5.5,0,0,0,.21,0l.61-.31c.05,0,.1-.05.1-.11s0-.09-.1-.11l-.61-.31a.5.5,0,0,0-.21,0,.52.52,0,0,0-.27.07Z" style="fill: #fff"/>
      <path d="M72.9,39c-.11,0-.23,0-.23-.15s.11-.16.21-.16H73l-.2-.24a.43.43,0,0,1-.13-.27V38a.41.41,0,0,1,.12-.3.48.48,0,0,1,.36-.14c.1,0,.21,0,.21.15s-.09.16-.19.16a.19.19,0,0,0-.13,0c-.06,0-.06.11-.06.19v.09a.21.21,0,0,0,.08.15l.35.43h.79c.1,0,.21,0,.21.16s-.11.15-.21.15Z" style="fill: #fff"/>
      <path d="M72.05,36.26c-.11,0-.15-.06-.15-.14v-.18a.13.13,0,0,1,.15-.15h.15c.11,0,.14.06.14.15v.18c0,.08,0,.14-.14.14Zm2-.47v-.23c0-.1,0-.21.15-.21s.16.12.16.21v.79c0,.09,0,.21-.16.21s-.15-.11-.15-.21V36.1H73v.25c0,.09,0,.21-.15.21s-.16-.11-.16-.21V36c0-.18,0-.23.22-.23Z" style="fill: #fff"/>
      <path d="M74.41,33.82a.32.32,0,0,1-.09.28l-.11.13a.39.39,0,0,1-.35.16h-.59a.42.42,0,0,1-.38-.15l-.09-.11a.45.45,0,0,1-.13-.34V33.5a.44.44,0,0,1,.12-.34l.1-.12a.41.41,0,0,1,.4-.16h.25c.17,0,.22,0,.22.21v1h.11A.14.14,0,0,0,74,34L74,34s.06-.11.06-.21v-.66c0-.11,0-.21.15-.21s.16.12.16.21Zm-1,.26v-.9h-.19a.19.19,0,0,0-.15,0l-.1.12a.26.26,0,0,0,0,.15v.26a.23.23,0,0,0,0,.16l.07.1a.16.16,0,0,0,.15.07Z" style="fill: #fff"/>
      <path d="M73.3,31.76h.9c.1,0,.21,0,.21.15s-.11.16-.21.16H72.9c-.11,0-.23,0-.23-.16s.12-.15.23-.15h0l-.16-.26a.43.43,0,0,1-.11-.26V31a.42.42,0,0,1,.12-.29c.11-.14.25-.13.41-.14l1,0c.11,0,.23,0,.23.15s-.11.15-.21.16l-1,0c-.19,0-.27,0-.27.21v.1a.19.19,0,0,0,0,.1Z" style="fill: #fff"/>
      <path d="M73.83,29.12c.17,0,.27,0,.27-.2v-.16c0-.13,0-.19-.14-.22a.16.16,0,0,1-.12-.15.16.16,0,0,1,.15-.16.41.41,0,0,1,.26.11.48.48,0,0,1,.16.42v.16a.51.51,0,0,1-.16.4.54.54,0,0,1-.43.11H73v.1c0,.09,0,.21-.15.21s-.16-.11-.16-.21v-.1h-.31c-.11,0-.22,0-.22-.15s.11-.16.22-.16h.31V28.6c0-.1,0-.21.16-.21s.15.12.15.21v.52Z" style="fill: #fff"/>
      <path d="M73,26.9c0,.09,0,.21-.15.21s-.16-.11-.16-.21v-.42a.5.5,0,0,1,.14-.4.44.44,0,0,1,.37-.14l1,0a.15.15,0,0,1,.18.14.16.16,0,0,1-.16.16l.11.21a.26.26,0,0,1,0,.19v.3a.49.49,0,0,1-.11.35.43.43,0,0,1-.38.16h-.14a.42.42,0,0,1-.34-.15.54.54,0,0,1-.12-.36v-.67h-.07c-.23,0-.27.06-.27.28Zm.65,0c0,.09,0,.21.14.21H74c.11,0,.13-.12.13-.2v-.34l-.18-.34h-.07c-.17,0-.22.05-.22.22Z" style="fill: #fff"/>
      <path d="M73.83,24.48c.17,0,.27,0,.27-.21v-.16c0-.12,0-.18-.14-.21a.16.16,0,0,1-.12-.16.16.16,0,0,1,.15-.16.47.47,0,0,1,.26.11.49.49,0,0,1,.16.43v.15a.5.5,0,0,1-.16.4.54.54,0,0,1-.43.11H73v.1c0,.09,0,.22-.15.22s-.16-.11-.16-.22v-.1h-.31c-.11,0-.22,0-.22-.15s.11-.15.22-.15h.31V24c0-.11,0-.22.16-.22s.15.13.15.22v.52Z" style="fill: #fff"/>
      <path d="M72.05,22.32c-.11,0-.15-.06-.15-.14V22c0-.08,0-.14.15-.14h.15c.11,0,.14.06.14.14v.18c0,.08,0,.14-.14.14Zm2-.46v-.23c0-.11,0-.22.15-.22s.16.12.16.22v.78c0,.09,0,.21-.16.21s-.15-.11-.15-.21v-.24H73v.24c0,.09,0,.21-.15.21s-.16-.11-.16-.21v-.32c0-.18,0-.23.22-.23Z" style="fill: #fff"/>
      <path d="M73.25,20.45a.41.41,0,0,1-.4-.19.57.57,0,0,1-.18-.44v-.25a.57.57,0,0,1,.18-.44.41.41,0,0,1,.4-.19h.58a.45.45,0,0,1,.42.21.53.53,0,0,1,.16.42v.25a.53.53,0,0,1-.16.42.45.45,0,0,1-.42.21Zm.58-.31c.07,0,.11,0,.19-.11a.32.32,0,0,0,.08-.21v-.25a.32.32,0,0,0-.08-.21c-.08-.09-.12-.11-.19-.11h-.58c-.07,0-.11,0-.18.11a.29.29,0,0,0-.09.21v.25a.29.29,0,0,0,.09.21c.07.09.11.11.18.11Z" style="fill: #fff"/>
      <path d="M73.3,17.82h.9c.1,0,.21,0,.21.15s-.11.16-.21.16H72.9c-.11,0-.23,0-.23-.16s.12-.15.23-.15h0l-.16-.25a.46.46,0,0,1-.11-.27v-.23a.38.38,0,0,1,.12-.28.45.45,0,0,1,.41-.14l1,0c.11,0,.23,0,.23.15s-.11.15-.21.15l-1,0c-.19,0-.27,0-.27.21v.11a.16.16,0,0,0,0,.09Z" style="fill: #fff"/>
    </g>
  </g>
  <g data-name="Layer 2" id="Layer_2">
    <circle cx="4.58" cy="41.91" r="2.72" style="fill: #6e6b59"/>
    <path d="M18.74,2.15a2.53,2.53,0,0,0-1,2,3.86,3.86,0,0,0-2-.4c-.5,0-.73.14-.29.71a2.22,2.22,0,0,0,1.46,1.45c-.65.19-.94.9-1.1,1.78-.17.59.07.73.57.58A2.64,2.64,0,0,0,18,7.58c.14-.27.24-.4.27-.13a2.75,2.75,0,0,0,1.48,1.48c.52.33.62.07.54-.42a2.51,2.51,0,0,0-.2-1.78c-.11-.21-.17-.37,0-.31a.55.55,0,0,0,.5,0A5.48,5.48,0,0,0,22,5.49c.32-.23.27-.41-.11-.54s-.58-.3-.79-.4a2,2,0,0,0-.8-.2l-.18,0-.23.15c-.27.13-.33.05-.19-.23a2.19,2.19,0,0,0-.27-1.84C19.27,1.94,19,1.89,18.74,2.15Z" style="fill: #fff"/>
    <path d="M1.25,7.71A5.79,5.79,0,1,0,7,1.92,5.79,5.79,0,0,0,1.25,7.71Zm9.51,0A3.72,3.72,0,1,1,7,4,3.72,3.72,0,0,1,10.76,7.71Z" style="fill: #f2e2b4"/>
    <path d="M1.25,51.31A5.79,5.79,0,1,0,7,45.52,5.79,5.79,0,0,0,1.25,51.31Zm9.51,0A3.72,3.72,0,1,1,7,47.59,3.72,3.72,0,0,1,10.76,51.31Z" style="fill: #f2e2b4"/>
    <path d="M63.38,7.71a5.79,5.79,0,1,0,5.79-5.79A5.79,5.79,0,0,0,63.38,7.71Zm9.51,0A3.72,3.72,0,1,1,69.17,4,3.73,3.73,0,0,1,72.89,7.71Z" style="fill: #f2e2b4"/>
    <path d="M63.38,51.31a5.79,5.79,0,1,0,5.79-5.79A5.79,5.79,0,0,0,63.38,51.31Zm9.51,0a3.72,3.72,0,1,1-3.72-3.72A3.73,3.73,0,0,1,72.89,51.31Z" style="fill: #f2e2b4"/>
    <circle cx="4.58" cy="41.91" r="1.43" style="fill: #f2e3b8"/>
    <circle cx="59.79" cy="4.64" r="2.72" style="fill: #6e6b59"/>
    <circle cx="59.79" cy="4.64" r="1.43" style="fill: #f2e3b8"/>
    <g>
      <path d="M10.85,40.29h2.68a1.09,1.09,0,0,1,0,2.18H10.85a1.09,1.09,0,0,1,0-2.18Z" style="fill: #bababa"/>
      <path d="M10.85,34.47h2.68a1.1,1.1,0,0,1,0,2.19H10.85a1.1,1.1,0,0,1,0-2.19Z" style="fill: #bababa"/>
      <rect height="5.82" rx="0.58" ry="0.58" style="fill: #e0e0e0" transform="translate(24.57 76.95) rotate(180)" width="2.95" x="10.81" y="35.56"/>
      <rect height="2.73" style="fill: #ac947a" transform="translate(24.57 77.06) rotate(180)" width="2.95" x="10.81" y="37.17"/>
    </g>
    <g>
      <path d="M23.27,36.91V34.22a1.09,1.09,0,0,1,2.18,0v2.69a1.09,1.09,0,0,1-2.18,0Z" style="fill: #bababa"/>
      <path d="M17.45,36.91V34.22a1.09,1.09,0,0,1,2.18,0v2.69a1.09,1.09,0,0,1-2.18,0Z" style="fill: #bababa"/>
      <rect height="5.82" rx="0.58" ry="0.58" style="fill: #f1f0f0" transform="translate(57.01 14.12) rotate(90)" width="2.95" x="19.97" y="32.66"/>
      <rect height="2.73" style="fill: #dddcd5" transform="translate(57.07 14.06) rotate(90)" width="2.95" x="20.03" y="34.2"/>
    </g>
    <g>
      <path d="M21.45,15.16V12.48a1.09,1.09,0,1,1,2.18,0v2.68a1.09,1.09,0,0,1-2.18,0Z" style="fill: #bababa"/>
      <path d="M15.63,15.16V12.48a1.09,1.09,0,1,1,2.18,0v2.68a1.09,1.09,0,0,1-2.18,0Z" style="fill: #bababa"/>
      <rect height="5.82" rx="0.58" ry="0.58" style="fill: #f1f0f0" transform="translate(33.45 -5.81) rotate(90)" width="2.95" x="18.15" y="10.91"/>
      <rect height="2.73" style="fill: #dddcd5" transform="translate(33.5 -5.87) rotate(90)" width="2.95" x="18.21" y="12.45"/>
    </g>
    <g>
      <path d="M52,34.77V32.09a1.09,1.09,0,1,1,2.18,0v2.68a1.09,1.09,0,1,1-2.18,0Z" style="fill: #bababa"/>
      <path d="M46.13,34.77V32.09a1.09,1.09,0,1,1,2.18,0v2.68a1.09,1.09,0,1,1-2.18,0Z" style="fill: #bababa"/>
      <rect height="5.82" rx="0.58" ry="0.58" style="fill: #f1f0f0" transform="translate(83.57 -16.7) rotate(90)" width="2.95" x="48.65" y="30.52"/>
      <rect height="2.73" style="fill: #cba157" transform="translate(83.62 -16.76) rotate(90)" width="2.95" x="48.71" y="32.07"/>
    </g>
    <g>
      <path d="M28.79,45.41h2.68a1.09,1.09,0,0,1,0,2.18H28.79a1.09,1.09,0,1,1,0-2.18Z" style="fill: #bababa"/>
      <path d="M28.79,39.59h2.68a1.09,1.09,0,1,1,0,2.18H28.79a1.09,1.09,0,1,1,0-2.18Z" style="fill: #bababa"/>
      <rect height="5.82" rx="0.58" ry="0.58" style="fill: #e0e0e0" transform="translate(60.43 87.18) rotate(180)" width="2.95" x="28.74" y="40.68"/>
      <rect height="2.73" style="fill: #ac947a" transform="translate(60.43 87.29) rotate(180)" width="2.95" x="28.74" y="42.28"/>
    </g>
    <g>
      <path d="M34.29,45.41H37a1.09,1.09,0,0,1,0,2.18H34.29a1.09,1.09,0,1,1,0-2.18Z" style="fill: #bababa"/>
      <path d="M34.29,39.59H37a1.09,1.09,0,1,1,0,2.18H34.29a1.09,1.09,0,1,1,0-2.18Z" style="fill: #bababa"/>
      <rect height="5.82" rx="0.58" ry="0.58" style="fill: #e0e0e0" transform="translate(71.43 87.18) rotate(180)" width="2.95" x="34.24" y="40.68"/>
      <rect height="2.73" style="fill: #ac947a" transform="translate(71.43 87.29) rotate(180)" width="2.95" x="34.24" y="42.28"/>
    </g>
    <g>
      <g>
        <path d="M40.53,45.41h2.68a1.09,1.09,0,1,1,0,2.18H40.53a1.09,1.09,0,0,1,0-2.18Z" style="fill: #bababa"/>
        <path d="M40.53,39.59h2.68a1.09,1.09,0,1,1,0,2.18H40.53a1.09,1.09,0,0,1,0-2.18Z" style="fill: #bababa"/>
        <rect height="5.82" rx="0.58" ry="0.58" style="fill: #e0e0e0" transform="translate(83.93 87.18) rotate(180)" width="2.95" x="40.49" y="40.68"/>
        <rect height="2.73" transform="translate(83.93 87.29) rotate(180)" width="2.95" x="40.49" y="42.28"/>
      </g>
      <g>
        <path d="M41.72,42.75h.19a0,0,0,0,1,0,0s0,.05,0,.05h-.23s0,0,0-.05v-.36s0,0,0,0a0,0,0,0,1,0,0v.14h.53v-.14s0,0,0,0a0,0,0,0,1,0,0v.23h-.62Z" style="fill: #fff"/>
        <path d="M42.34,43.41a.09.09,0,0,1-.09.09h-.53a.09.09,0,0,1-.09-.09v-.27a.09.09,0,0,1,.09-.09h.53a.09.09,0,0,1,.09.09Zm-.62,0h.53v-.27h-.53Z" style="fill: #fff"/>
        <path d="M42.34,44.08a.09.09,0,0,1-.09.09h-.53a.09.09,0,0,1-.09-.09v-.27a.09.09,0,0,1,.09-.1h.53a.1.1,0,0,1,.09.1Zm-.62,0h.53v-.27h-.53Z" style="fill: #fff"/>
        <path d="M41.72,44.47v.32a0,0,0,0,1,0,0s0,0,0,0v-.41h.3c.07,0,.1,0,.1.1v.26h.22v-.31s0,0,0,0,0,0,0,0v.3a.08.08,0,0,1,0,.07.09.09,0,0,1-.08,0h-.19a.08.08,0,0,1-.08,0,.09.09,0,0,1,0-.07v-.26Z" style="fill: #fff"/>
      </g>
    </g>
    <g>
      <g>
        <path d="M52.59,41.77H49.91a1.09,1.09,0,1,1,0-2.18h2.68a1.09,1.09,0,1,1,0,2.18Z" style="fill: #bababa"/>
        <path d="M52.59,47.59H49.91a1.09,1.09,0,1,1,0-2.18h2.68a1.09,1.09,0,0,1,0,2.18Z" style="fill: #bababa"/>
        <rect height="5.82" rx="0.58" ry="0.58" style="fill: #e0e0e0" width="2.95" x="49.68" y="40.68"/>
        <rect height="2.73" width="2.95" x="49.68" y="42.17"/>
      </g>
      <g>
        <path d="M51.4,44.43h-.19a0,0,0,0,1,0,0s0,0,0,0h.23s.05,0,.05,0v.36s0,0-.05,0a0,0,0,0,1,0,0v-.14h-.53v.14s0,0,0,0a0,0,0,0,1,0,0v-.23h.62Z" style="fill: #fff"/>
        <path d="M50.78,43.77a.09.09,0,0,1,.09-.09h.53a.09.09,0,0,1,.09.09V44a.09.09,0,0,1-.09.09h-.53a.09.09,0,0,1-.09-.09Zm.62,0h-.53V44h.53Z" style="fill: #fff"/>
        <path d="M50.78,43.1a.09.09,0,0,1,.09-.09h.53a.09.09,0,0,1,.09.09v.27a.09.09,0,0,1-.09.09h-.53a.09.09,0,0,1-.09-.09Zm.62,0h-.53v.27h.53Z" style="fill: #fff"/>
        <path d="M51.4,42.71v-.32a0,0,0,0,1,0,0s.05,0,.05,0v.41h-.3a.09.09,0,0,1-.1-.1v-.26h-.22v.31s0,0,0,0,0,0,0,0v-.3a.08.08,0,0,1,0-.07.09.09,0,0,1,.08,0h.19s.06,0,.08,0a.09.09,0,0,1,0,.07v.26Z" style="fill: #fff"/>
      </g>
    </g>
    <g>
      <g>
        <path d="M59,34.67v2.68a1.09,1.09,0,1,1-2.18,0V34.67a1.09,1.09,0,1,1,2.18,0Z" style="fill: #bababa"/>
        <path d="M64.81,34.67v2.68a1.09,1.09,0,1,1-2.18,0V34.67a1.09,1.09,0,1,1,2.18,0Z" style="fill: #bababa"/>
        <rect height="5.82" rx="0.58" ry="0.58" style="fill: #e0e0e0" transform="translate(24.71 96.91) rotate(-90)" width="2.95" x="59.33" y="33.19"/>
        <rect height="2.73" transform="translate(24.65 96.85) rotate(-90)" width="2.95" x="59.28" y="34.74"/>
      </g>
      <g>
        <path d="M61.65,35.86V36s0,.05,0,.05,0,0,0-.05v-.23s0,0,0,0H62a0,0,0,0,1,0,0s0,0,0,0h-.14v.53H62a0,0,0,0,1,0,0s0,0,0,0h-.23v-.62Z" style="fill: #fff"/>
        <path d="M61,36.48a.09.09,0,0,1-.09-.09v-.53a.09.09,0,0,1,.09-.09h.27a.09.09,0,0,1,.09.09v.53a.09.09,0,0,1-.09.09Zm0-.62v.53h.27v-.53Z" style="fill: #fff"/>
        <path d="M60.32,36.48a.09.09,0,0,1-.09-.09v-.53a.09.09,0,0,1,.09-.09h.27a.09.09,0,0,1,.1.09v.53a.1.1,0,0,1-.1.09Zm0-.62v.53h.27v-.53Z" style="fill: #fff"/>
        <path d="M59.93,35.86h-.32s0,0,0,0a0,0,0,0,1,0,0H60v.3c0,.07,0,.1-.1.1h-.26v.22H60s.05,0,.05,0,0,0-.05,0h-.3s-.05,0-.07,0,0,0,0-.08v-.18a.1.1,0,0,1,0-.09.08.08,0,0,1,.07,0h.26Z" style="fill: #fff"/>
      </g>
    </g>
    <g>
      <g>
        <path d="M62.63,28.76V26.08a1.09,1.09,0,1,1,2.18,0v2.68a1.09,1.09,0,0,1-2.18,0Z" style="fill: #bababa"/>
        <path d="M56.81,28.76V26.08a1.09,1.09,0,1,1,2.18,0v2.68a1.09,1.09,0,0,1-2.18,0Z" style="fill: #bababa"/>
        <rect height="5.82" rx="0.58" ry="0.58" style="fill: #e0e0e0" transform="translate(88.14 -33.49) rotate(90)" width="2.95" x="59.33" y="24.42"/>
        <rect height="2.73" transform="translate(88.19 -33.54) rotate(90)" width="2.95" x="59.39" y="25.96"/>
      </g>
      <g>
        <path d="M60,27.57v-.19s0,0,0,0,.05,0,.05,0v.23s0,.05-.05.05h-.36s0,0,0-.05a0,0,0,0,1,0,0h.14V27h-.14a0,0,0,0,1,0-.05,0,0,0,0,1,0,0h.23v.62Z" style="fill: #fff"/>
        <path d="M60.63,27a.09.09,0,0,1,.09.09v.53a.09.09,0,0,1-.09.09h-.27a.09.09,0,0,1-.09-.09V27a.09.09,0,0,1,.09-.09Zm0,.62V27h-.27v.53Z" style="fill: #fff"/>
        <path d="M61.3,27a.09.09,0,0,1,.09.09v.53a.09.09,0,0,1-.09.09H61a.09.09,0,0,1-.09-.09V27A.09.09,0,0,1,61,27Zm0,.62V27H61v.53Z" style="fill: #fff"/>
        <path d="M61.69,27.57H62a0,0,0,0,1,0,0s0,.05,0,.05H61.6v-.3a.09.09,0,0,1,.1-.1H62V27h-.31a0,0,0,0,1,0-.05s0,0,0,0H62A.08.08,0,0,1,62,27a.09.09,0,0,1,0,.08v.19a.08.08,0,0,1,0,.08.09.09,0,0,1-.07,0h-.26Z" style="fill: #fff"/>
      </g>
    </g>
    <g>
      <g>
        <path d="M51.5,22.13V19.45a1.09,1.09,0,1,1,2.18,0v2.68a1.09,1.09,0,1,1-2.18,0Z" style="fill: #bababa"/>
        <path d="M45.68,22.13V19.45a1.09,1.09,0,1,1,2.18,0v2.68a1.09,1.09,0,1,1-2.18,0Z" style="fill: #bababa"/>
        <rect height="5.82" rx="0.58" ry="0.58" style="fill: #e0e0e0" transform="translate(70.38 -28.98) rotate(90)" width="2.95" x="48.2" y="17.79"/>
        <rect height="2.73" transform="translate(70.44 -29.04) rotate(90)" width="2.95" x="48.26" y="19.34"/>
      </g>
      <g>
        <path d="M48.84,20.94v-.18s0-.05,0-.05,0,0,0,.05V21s0,0,0,0h-.36a0,0,0,0,1,0,0s0,0,0,0h.14v-.53h-.14a0,0,0,0,1,0,0s0-.05,0-.05h.23v.62Z" style="fill: #fff"/>
        <path d="M49.5,20.32a.09.09,0,0,1,.09.09v.53a.09.09,0,0,1-.09.09h-.27a.09.09,0,0,1-.09-.09v-.53a.09.09,0,0,1,.09-.09Zm0,.62v-.53h-.27v.53Z" style="fill: #fff"/>
        <path d="M50.17,20.32a.09.09,0,0,1,.09.09v.53a.09.09,0,0,1-.09.09H49.9a.08.08,0,0,1-.09-.09v-.53a.09.09,0,0,1,.09-.09Zm0,.62v-.53H49.9v.53Z" style="fill: #fff"/>
        <path d="M50.56,20.94h.32s0,0,0,0a0,0,0,0,1,0,0h-.41v-.3a.09.09,0,0,1,.1-.1h.26v-.22h-.31s-.05,0-.05,0,0-.05.05-.05h.3a.09.09,0,0,1,.07,0s0,0,0,.08v.19a.09.09,0,0,1,0,.08.08.08,0,0,1-.07,0h-.26Z" style="fill: #fff"/>
      </g>
    </g>
    <g>
      <g>
        <path d="M47.86,11.79v2.69a1.09,1.09,0,1,1-2.18,0V11.79a1.09,1.09,0,1,1,2.18,0Z" style="fill: #bababa"/>
        <path d="M53.68,11.79v2.69a1.09,1.09,0,1,1-2.18,0V11.79a1.09,1.09,0,1,1,2.18,0Z" style="fill: #bababa"/>
        <rect height="5.82" rx="0.58" ry="0.58" style="fill: #e0e0e0" transform="translate(36.45 62.91) rotate(-90)" width="2.95" x="48.2" y="10.32"/>
        <rect height="2.73" transform="translate(36.4 62.85) rotate(-90)" width="2.95" x="48.15" y="11.86"/>
      </g>
      <g>
        <path d="M50.52,13v.19s0,.05,0,.05,0,0,0-.05v-.23a0,0,0,0,1,0,0h.36a0,0,0,0,1,0,0,0,0,0,0,1,0,0H50.7v.53h.14a.05.05,0,0,1,0,.1h-.23V13Z" style="fill: #fff"/>
        <path d="M49.86,13.61a.1.1,0,0,1-.09-.1V13a.09.09,0,0,1,.09-.09h.27a.09.09,0,0,1,.09.09v.53a.1.1,0,0,1-.09.1Zm0-.63v.53h.27V13Z" style="fill: #fff"/>
        <path d="M49.19,13.61a.1.1,0,0,1-.09-.1V13a.09.09,0,0,1,.09-.09h.27a.08.08,0,0,1,.09.09v.53a.1.1,0,0,1-.09.1Zm0-.63v.53h.27V13Z" style="fill: #fff"/>
        <path d="M48.8,13h-.32a0,0,0,0,1,0,0,0,0,0,0,1,0,0h.41v.3a.09.09,0,0,1-.1.1h-.26v.22h.31a0,0,0,0,1,0,.1h-.3a.09.09,0,0,1-.07,0,.08.08,0,0,1,0-.08v-.19a.08.08,0,0,1,0-.08.09.09,0,0,1,.07,0h.26Z" style="fill: #fff"/>
      </g>
    </g>
    <g>
      <g>
        <path d="M36.93,16.65h2.68a1.09,1.09,0,1,1,0,2.18H36.93a1.09,1.09,0,1,1,0-2.18Z" style="fill: #bababa"/>
        <path d="M36.93,10.83h2.68a1.09,1.09,0,1,1,0,2.18H36.93a1.09,1.09,0,1,1,0-2.18Z" style="fill: #bababa"/>
        <rect height="5.82" rx="0.58" ry="0.58" style="fill: #e0e0e0" transform="translate(76.73 29.66) rotate(180)" width="2.95" x="36.89" y="11.92"/>
        <rect height="2.73" transform="translate(76.73 29.77) rotate(180)" width="2.95" x="36.89" y="13.52"/>
      </g>
      <g>
        <path d="M38.12,14h.19a.05.05,0,0,1,0,.1h-.23A0,0,0,0,1,38,14v-.36a0,0,0,0,1,0-.05s0,0,0,.05v.13h.53v-.13a.05.05,0,0,1,.05-.05s0,0,0,.05v.23h-.62Z" style="fill: #fff"/>
        <path d="M38.74,14.65a.09.09,0,0,1-.09.09h-.53a.09.09,0,0,1-.09-.09v-.27a.09.09,0,0,1,.09-.09h.53a.09.09,0,0,1,.09.09Zm-.62,0h.53v-.27h-.53Z" style="fill: #fff"/>
        <path d="M38.74,15.31a.1.1,0,0,1-.09.1h-.53a.09.09,0,0,1-.09-.1V15a.09.09,0,0,1,.09-.09h.53a.09.09,0,0,1,.09.09Zm-.62,0h.53V15h-.53Z" style="fill: #fff"/>
        <path d="M38.12,15.71V16s0,.05,0,.05,0,0,0-.05v-.4h.3c.07,0,.1,0,.1.1V16h.22v-.32a0,0,0,0,1,.05,0,0,0,0,0,1,0,0V16a.08.08,0,0,1,0,.07.09.09,0,0,1-.08,0h-.19a.08.08,0,0,1-.08,0,.09.09,0,0,1,0-.07v-.26Z" style="fill: #fff"/>
      </g>
    </g>
    <g>
      <g>
        <path d="M31,16.65h2.68a1.09,1.09,0,0,1,0,2.18H31a1.09,1.09,0,1,1,0-2.18Z" style="fill: #bababa"/>
        <path d="M31,10.83h2.68a1.09,1.09,0,0,1,0,2.18H31a1.09,1.09,0,0,1,0-2.18Z" style="fill: #bababa"/>
        <rect height="5.82" rx="0.58" ry="0.58" style="fill: #e0e0e0" transform="translate(64.92 29.66) rotate(180)" width="2.95" x="30.98" y="11.92"/>
        <rect height="2.73" transform="translate(64.92 29.77) rotate(180)" width="2.95" x="30.98" y="13.52"/>
      </g>
      <g>
        <path d="M32.22,14h.18a0,0,0,0,1,0,.1h-.23s0,0,0-.05v-.36s0-.05,0-.05a.05.05,0,0,1,0,.05v.13h.53v-.13s0-.05,0-.05a0,0,0,0,1,.05.05v.23h-.62Z" style="fill: #fff"/>
        <path d="M32.84,14.65a.09.09,0,0,1-.09.09h-.53a.09.09,0,0,1-.09-.09v-.27a.09.09,0,0,1,.09-.09h.53a.09.09,0,0,1,.09.09Zm-.62,0h.53v-.27h-.53Z" style="fill: #fff"/>
        <path d="M32.84,15.31a.1.1,0,0,1-.09.1h-.53a.09.09,0,0,1-.09-.1V15a.09.09,0,0,1,.09-.09h.53a.09.09,0,0,1,.09.09Zm-.62,0h.53V15h-.53Z" style="fill: #fff"/>
        <path d="M32.22,15.71V16a0,0,0,0,1,0,.05s0,0,0-.05v-.4h.29c.07,0,.11,0,.11.1V16h.22v-.32a0,0,0,0,1,0,0s.05,0,.05,0V16a.09.09,0,0,1,0,.07.08.08,0,0,1-.08,0h-.19a.09.09,0,0,1-.08,0,.08.08,0,0,1,0-.07v-.26Z" style="fill: #fff"/>
      </g>
    </g>
    <g>
      <rect height="10.51" style="fill: #969184" transform="translate(23.17 78.7) rotate(-90)" width="2.49" x="49.69" y="22.51"/>
      <rect height="4.52" transform="translate(23.32 78.85) rotate(-90)" width="3.87" x="49.15" y="25.5"/>
    </g>
    <g>
      <rect height="3.11" style="fill: #c9c07b" transform="translate(13.12 106.46) rotate(-90)" width="3.31" x="58.13" y="45.11"/>
      <rect height="3.11" style="fill: #c9c07b" transform="translate(15.77 97.59) rotate(-90)" width="3.31" x="55.02" y="39.35"/>
      <rect height="3.11" style="fill: #c9c07b" transform="translate(21.21 103.02) rotate(-90)" width="3.31" x="60.46" y="39.35"/>
      <g>
        <rect height="6.07" style="fill: #131116" transform="translate(16.06 103.13) rotate(-90)" width="2.96" x="58.12" y="40.5"/>
        <g>
          <path d="M57.83,42.87a.1.1,0,0,1-.1.1.09.09,0,0,1-.1-.1v-.1a.1.1,0,0,1,.1-.1h.89v.58c0,.08,0,.08,0,.13l-.28.25c-.06,0-.06,0-.06.12v.39a.1.1,0,1,1-.2,0v-.49c0-.07,0-.07,0-.12l.28-.24c.07,0,.06,0,.06-.14v-.28Z" style="fill: #2c2c2e"/>
          <path d="M59.38,43.35h-.05c-.06,0-.13,0-.13-.1s.07-.1.13-.1h.05v0a.33.33,0,0,1,.1-.28.37.37,0,0,1,.3-.1h.13c.06,0,.14,0,.14.1s-.07.1-.14.1h-.15c-.13,0-.18,0-.18.16v0h.17c.06,0,.13,0,.13.1s-.07.1-.13.1h-.17v.75c0,.07,0,.14-.1.14s-.1-.07-.1-.14Z" style="fill: #2c2c2e"/>
          <path d="M60.89,43.7l-.3-.35a.18.18,0,0,1,0-.1.1.1,0,0,1,.09-.1c.06,0,.1.06.14.1l.24.31.25-.31s.07-.1.13-.1a.1.1,0,0,1,.09.1.18.18,0,0,1,0,.1l-.3.35.3.35a.13.13,0,0,1,0,.09.1.1,0,0,1-.09.1c-.06,0-.1-.06-.13-.1L61,43.83l-.24.31s-.08.1-.14.1a.1.1,0,0,1-.09-.1.13.13,0,0,1,0-.09Z" style="fill: #2c2c2e"/>
        </g>
      </g>
    </g>
    <g>
      <rect height="3.11" style="fill: #c9c07b" transform="translate(75.95 -43.63) rotate(90)" width="3.31" x="58.13" y="14.61"/>
      <rect height="3.11" style="fill: #c9c07b" transform="translate(84.82 -40.98) rotate(90)" width="3.31" x="61.24" y="20.37"/>
      <rect height="3.11" style="fill: #c9c07b" transform="translate(79.39 -35.54) rotate(90)" width="3.31" x="55.81" y="20.37"/>
      <g>
        <rect height="6.07" style="fill: #131116" transform="translate(79.28 -40.69) rotate(90)" width="2.96" x="58.5" y="16.26"/>
        <g>
          <path d="M61.75,20a.1.1,0,0,1,.1-.1.09.09,0,0,1,.1.1v.1a.1.1,0,0,1-.1.1H61v-.59c0-.07,0-.07,0-.12l.28-.25c.06,0,.06-.05.06-.12v-.39a.1.1,0,0,1,.2,0v.49c0,.06,0,.07,0,.11l-.28.24c-.07.06-.06.06-.06.15V20Z" style="fill: #2c2c2e"/>
          <path d="M60.2,19.48h0c.06,0,.13,0,.13.1s-.07.1-.13.1h0v0a.34.34,0,0,1-.1.28.37.37,0,0,1-.3.1h-.13c-.06,0-.14,0-.14-.1s.07-.1.14-.1h.15c.13,0,.18,0,.18-.16v0h-.17c-.06,0-.13,0-.13-.1s.07-.1.13-.1H60v-.76c0-.06,0-.13.1-.13s.1.07.1.13Z" style="fill: #2c2c2e"/>
          <path d="M58.69,19.13l.3.35a.18.18,0,0,1,0,.09.1.1,0,0,1-.09.11c-.06,0-.1-.06-.14-.11l-.24-.3-.25.3c0,.05-.07.11-.13.11a.1.1,0,0,1-.09-.11.18.18,0,0,1,0-.09l.3-.35-.3-.35a.15.15,0,0,1,0-.09.1.1,0,0,1,.09-.1c.06,0,.1.06.13.1l.25.3.24-.3s.08-.1.14-.1a.1.1,0,0,1,.09.1.15.15,0,0,1,0,.09Z" style="fill: #2c2c2e"/>
        </g>
      </g>
    </g>
    <g>
      <g>
        <rect height="3.11" style="fill: #c9c07b" transform="translate(-5.11 55.49) rotate(-90)" width="3.31" x="23.53" y="28.75"/>
        <rect height="3.11" style="fill: #c9c07b" transform="translate(6.01 44.36) rotate(-90)" width="3.31" x="23.53" y="17.62"/>
        <rect height="3.11" style="fill: #c9c07b" transform="translate(-21.05 39.55) rotate(-90)" width="3.31" x="7.6" y="28.75"/>
        <rect height="3.11" style="fill: #c9c07b" transform="translate(-9.92 28.43) rotate(-90)" width="3.31" x="7.6" y="17.62"/>
      </g>
      <rect height="22.91" rx="0.78" ry="0.78" style="fill: #272727" transform="translate(-7.99 42.27) rotate(-90)" width="9.51" x="12.39" y="13.67"/>
      <rect height="19.25" rx="0.78" ry="0.78" style="fill: #323133" transform="translate(-9.27 41.52) rotate(-90)" width="8.28" x="11.98" y="15.77"/>
      <g>
        <circle cx="8.42" cy="25.33" r="1.15" style="fill: #111216"/>
        <circle cx="8.42" cy="25.33" r="0.42" style="fill: #424547"/>
      </g>
      <g>
        <path d="M21.79,26.87c.07,0,.13,0,.13.12a.12.12,0,0,1-.13.13h-.88a.25.25,0,0,1-.26-.25v-.5a.28.28,0,0,1,.1-.24.31.31,0,0,1-.1-.25v-.5a.25.25,0,0,1,.26-.25h.88a.12.12,0,0,1,.13.13c0,.09-.06.12-.13.12h-.88v.43c0,.14.06.19.13.19h.5a.12.12,0,0,1,.13.13c0,.09-.06.12-.13.12H21c-.07,0-.13.05-.13.19v.43Z" style="fill: #444249"/>
        <path d="M19.82,25.38h-.88c-.07,0-.13,0-.13-.12a.12.12,0,0,1,.13-.13h1.14V26a.25.25,0,0,1-.29.29h-.72v.62H20c.07,0,.13,0,.13.12a.12.12,0,0,1-.13.13H19.1a.26.26,0,0,1-.29-.3V26.3a.27.27,0,0,1,.08-.23A.28.28,0,0,1,19.1,26h.72Z" style="fill: #444249"/>
        <path d="M17.23,27.12a.26.26,0,0,1-.26-.25V25.38a.25.25,0,0,1,.26-.25H18a.25.25,0,0,1,.26.25v1.49a.26.26,0,0,1-.26.25Zm0-1.74v1.49H18V25.38Z" style="fill: #444249"/>
        <path d="M15.52,26v.74a.12.12,0,0,1-.13.12.11.11,0,0,1-.13-.12V26a.12.12,0,0,1-.13-.13.12.12,0,0,1,.13-.13v-.52c0-.09,0-.13.13-.13s.13,0,.13.13v.52h.75V27A.13.13,0,1,1,16,27V26Z" style="fill: #444249"/>
        <path d="M13.55,25.38v.52a.12.12,0,0,1-.13.13c-.1,0-.13-.05-.13-.13v-.64a.12.12,0,0,1,.13-.13h1a.12.12,0,0,1,.13.13c0,.09-.06.12-.13.12h-.38v1.49h.38c.07,0,.13,0,.13.12a.12.12,0,0,1-.13.13h-.64V25.38Z" style="fill: #444249"/>
        <path d="M12.46,26H11.6c-.13,0-.15-.06-.15-.18v-.57c0-.12.05-.16.17-.16h.93c.12,0,.17,0,.17.16V27a.12.12,0,0,1-.12.13h-.15a.12.12,0,0,1-.12-.13.12.12,0,0,1,.13-.12Zm0-.26v-.4h-.75v.4Z" style="fill: #444249"/>
      </g>
    </g>
    <rect height="10.88" rx="0.88" ry="0.88" style="fill: #302f34" transform="translate(8.12 67.88) rotate(-90)" width="15.4" x="30.3" y="24.44"/>
    <rect height="11.75" rx="0.88" ry="0.88" style="fill: none;stroke: #fff;stroke-miterlimit: 10;stroke-width: 0.25px" transform="translate(8.12 67.88) rotate(-90)" width="16.62" x="29.69" y="24"/>
    <circle cx="36.04" cy="33.43" r="0.73" style="fill: #545452"/>
    <polyline points="57.4 45.79 54.54 45.79 54.54 42.05" style="fill: none;stroke: #fff;stroke-linecap: round;stroke-linejoin: round;stroke-width: 0.25px"/>
    <polyline points="61.79 45.79 64.45 45.79 64.45 41.76" style="fill: none;stroke: #fff;stroke-linecap: round;stroke-linejoin: round;stroke-width: 0.25px"/>
    <line style="fill: none;stroke: #fff;stroke-linecap: round;stroke-linejoin: round;stroke-width: 0.25px" x1="47.54" x2="53.68" y1="25.83" y2="25.83"/>
    <line style="fill: none;stroke: #fff;stroke-linecap: round;stroke-linejoin: round;stroke-width: 0.25px" x1="47.54" x2="53.68" y1="29.7" y2="29.7"/>
    <polyline points="55.13 21.33 55.13 17.29 64.81 17.29 64.81 21.33" style="fill: none;stroke: #fff;stroke-linecap: round;stroke-linejoin: round;stroke-width: 0.25px"/>
    <line style="fill: none;stroke: #fff;stroke-linecap: round;stroke-linejoin: round;stroke-width: 0.5px" x1="11.83" x2="22.54" y1="19.18" y2="19.18"/>
    <line style="fill: none;stroke: #fff;stroke-linecap: round;stroke-linejoin: round;stroke-width: 0.5px" x1="11.83" x2="22.54" y1="30.67" y2="30.67"/>
    <line style="fill: none;stroke: #fff;stroke-linecap: round;stroke-linejoin: round;stroke-width: 0.5px" x1="19" x2="23.45" y1="38.71" y2="38.71"/>
    <line style="fill: none;stroke: #fff;stroke-linecap: round;stroke-linejoin: round;stroke-width: 0.5px" x1="19.46" x2="23.91" y1="48.13" y2="48.13"/>
    <g>
      <rect height="1.64" style="fill: #aeaba8" transform="translate(34.33 92.25) rotate(180)" width="2.14" x="16.1" y="45.31"/>
      <rect height="1.17" style="fill: #bababa" transform="translate(37.43 92.22) rotate(180)" width="0.96" x="18.24" y="45.53"/>
      <rect height="1.64" style="fill: #aeaba8" transform="translate(34.33 86.88) rotate(180)" width="2.14" x="16.1" y="42.62"/>
      <rect height="1.17" style="fill: #bababa" transform="translate(37.43 86.85) rotate(180)" width="0.96" x="18.24" y="42.84"/>
      <rect height="1.64" style="fill: #aeaba8" transform="translate(34.33 81.56) rotate(180)" width="2.14" x="16.1" y="39.96"/>
      <rect height="1.17" style="fill: #bababa" transform="translate(37.43 81.54) rotate(180)" width="0.96" x="18.24" y="40.18"/>
      <rect height="1.64" style="fill: #aeaba8" width="2.14" x="24.78" y="40.04"/>
      <rect height="1.17" style="fill: #bababa" width="0.96" x="23.82" y="40.29"/>
      <rect height="1.64" style="fill: #aeaba8" width="2.14" x="24.78" y="45.35"/>
      <rect height="1.17" style="fill: #bababa" width="0.96" x="23.82" y="45.59"/>
      <rect height="8" style="fill: #333" transform="translate(43.01 86.63) rotate(180)" width="4.63" x="19.19" y="39.31"/>
    </g>
  </g>
  <g id="Connectors">
    <ellipse cx="56.19" cy="55.04" data-cir-type="male" data-name="circuitoCon RST" id="circuitoCon_RST" rx="2.05" ry="1.99" style="fill: none;stroke: #e5e3dd;stroke-miterlimit: 10;stroke-width: 1.224px"/>
    <ellipse cx="48.99" cy="55.04" data-cir-type="male" data-name="circuitoCon SCL" id="circuitoCon_SCL" rx="2.05" ry="1.99" style="fill: none;stroke: #e5e3dd;stroke-miterlimit: 10;stroke-width: 1.224px"/>
    <ellipse cx="41.8" cy="55.04" data-cir-type="male" data-name="circuitoCon SDA" id="circuitoCon_SDA" rx="2.05" ry="1.99" style="fill: none;stroke: #e5e3dd;stroke-miterlimit: 10;stroke-width: 1.224px"/>
    <ellipse cx="27.45" cy="55" data-cir-type="male" data-name="circuitoCon 3v0" id="circuitoCon_3v0" rx="2.05" ry="1.99" style="fill: none;stroke: #e5e3dd;stroke-miterlimit: 10;stroke-width: 1.224px"/>
    <ellipse cx="20.21" cy="55" data-cir-type="male" data-name="circuitoCon VR" id="circuitoCon_VIN" rx="2.05" ry="1.99" style="fill: none;stroke: #e5e3dd;stroke-miterlimit: 10;stroke-width: 1.224px"/>
    <ellipse cx="20.19" cy="3.99" data-cir-type="male" data-name="circuitoCon VIN" id="circuitoCon_VR" rx="2.05" ry="1.99" style="fill: none"/>
    <ellipse cx="34.61" cy="55.04" data-cir-type="male" data-name="circuitoCon GND" id="circuitoCon_GND" rx="2.05" ry="1.99" style="fill: none;stroke: #e5e3dd;stroke-miterlimit: 10;stroke-width: 1.224px"/>
    <ellipse cx="48.98" cy="3.95" data-cir-type="male" data-name="circuitoCon ADR" id="circuitoCon_ADR" rx="2.05" ry="1.99" style="fill: none;stroke: #e5e3dd;stroke-miterlimit: 10;stroke-width: 1.224px"/>
    <ellipse cx="41.78" cy="3.95" data-cir-type="male" data-name="circuitoCon INT" id="circuitoCon_INT" rx="2.05" ry="1.99" style="fill: none;stroke: #e5e3dd;stroke-miterlimit: 10;stroke-width: 1.224px"/>
    <ellipse cx="34.59" cy="3.95" data-cir-type="male" data-name="circuitoCon PS1" id="circuitoCon_PS1" rx="2.05" ry="1.99" style="fill: none;stroke: #e5e3dd;stroke-miterlimit: 10;stroke-width: 1.224px"/>
    <ellipse cx="27.4" cy="3.95" data-cir-type="male" data-name="circuitoCon PS0" id="circuitoCon_PS0" rx="2.05" ry="1.99" style="fill: none;stroke: #e5e3dd;stroke-miterlimit: 10;stroke-width: 1.224px"/>
  </g>
</svg>