<?xml version="1.0" ?><svg height="19.74mm" viewBox="0 0 69.42 55.96" width="24.49mm" xmlns="http://www.w3.org/2000/svg" xmlns:xlink="http://www.w3.org/1999/xlink">
  <defs>
    <radialGradient cx="34.75" cy="28.45" gradientUnits="userSpaceOnUse" id="radial-gradient" r="7.98">
      <stop offset="0.03" stop-color="#fff"/>
      <stop offset="0.9" stop-color="#e0ddd8"/>
      <stop offset="1" stop-color="#949494"/>
    </radialGradient>
    <linearGradient gradientUnits="userSpaceOnUse" id="linear-gradient" x1="30.05" x2="33.71" y1="26.19" y2="26.19">
      <stop offset="0.21" stop-color="#bcb9b5"/>
      <stop offset="0.49" stop-color="#edede9"/>
      <stop offset="0.77" stop-color="#bcb9b5"/>
    </linearGradient>
    <linearGradient id="linear-gradient-2" x1="35.44" x2="39.11" xlink:href="#linear-gradient" y1="26.19" y2="26.19"/>
    <linearGradient id="linear-gradient-3" x1="32.94" x2="36.34" xlink:href="#linear-gradient" y1="26.75" y2="26.75"/>
  </defs>
  <title>Pixie - 3W Chainable Smart LED Pixel</title>
  <g id="background">
    <path d="M68.25,24.33A6.07,6.07,0,0,0,64.57,22L63,20.48V14A8.68,8.68,0,0,0,57.25,7.2l-5.62-.12A4.24,4.24,0,0,1,49.38,5.7a4.12,4.12,0,0,1-.81-1.56,4.5,4.5,0,0,0-2-3.94H23.88a3.15,3.15,0,0,0-1.81,1.06,3.08,3.08,0,0,0-.66,1.44,4.5,4.5,0,0,1-.84,3.15,4.43,4.43,0,0,1-2.19,1.54H14.13a7.35,7.35,0,0,0-4.4,1.25,7.43,7.43,0,0,0-3,4.38l-.48,8.71a7.77,7.77,0,0,0-4.08,2A6.54,6.54,0,0,0,0,27.85a6.73,6.73,0,0,0,1.54,4.67,8.49,8.49,0,0,0,3.67,2.83L7.9,36.56c-.14.23-2.5,4.27-.4,8.33A8.59,8.59,0,0,0,12.57,49l4.38.31a3.16,3.16,0,0,1,2.38.19,3.85,3.85,0,0,1,1.56,1.93,20.11,20.11,0,0,0,1,2.41,6.54,6.54,0,0,0,1,1.19c1.17,1.06,10.56,1.45,23.37.78a4.16,4.16,0,0,0,2.38-2.37,4.16,4.16,0,0,1,3.58-4.56,8.35,8.35,0,0,0,6-.06A8.63,8.63,0,0,0,63,43.26l.19-7.44a3.18,3.18,0,0,1,.75-1.25,3.24,3.24,0,0,1,1.75-.91,6.26,6.26,0,0,0,3.69-5.07A6.08,6.08,0,0,0,68.25,24.33ZM27.82,52.59a2.94,2.94,0,1,1,2.94-2.94A2.94,2.94,0,0,1,27.82,52.59Zm0-43.2a2.94,2.94,0,1,1,2.94-2.94A2.94,2.94,0,0,1,27.82,9.39ZM35,51.45a1.8,1.8,0,1,1,1.8-1.8A1.8,1.8,0,0,1,35,51.45Zm0-43.2a1.8,1.8,0,1,1,1.8-1.8A1.8,1.8,0,0,1,35,8.25Zm7.2,44.34a2.94,2.94,0,1,1,2.94-2.94A2.94,2.94,0,0,1,42.22,52.59Zm0-43.2a2.94,2.94,0,1,1,2.94-2.94A2.94,2.94,0,0,1,42.22,9.39Z" style="fill: #1c1918" transform="translate(0 -0.2)"/>
  </g>
  <g id="Last">
    <g id="breadboard">
      <g id="g4344">
        <g id="g4534">
          <circle cx="42.22" cy="49.45" id="connector13pin" r="3.19" style="fill: none;stroke: #9a916c;stroke-width: 1.27559995651245px"/>
          <circle cx="35.02" cy="49.45" id="connector14pin" r="1.8" style="fill: none;stroke: #9a916c;stroke-width: 0.72000002861023px"/>
          <circle cx="27.82" cy="49.45" id="connector15pin" r="3.19" style="fill: none;stroke: #9a916c;stroke-width: 1.27559995651245px"/>
          <circle cx="42.22" cy="6.25" id="connector16pin" r="3.19" style="fill: none;stroke: #9a916c;stroke-width: 1.27559995651245px"/>
          <circle cx="35.02" cy="6.25" id="connector17pin" r="1.8" style="fill: none;stroke: #9a916c;stroke-width: 0.72000002861023px"/>
          <circle cx="27.82" cy="6.25" id="connector18pin" r="3.19" style="fill: none;stroke: #9a916c;stroke-width: 1.27559995651245px"/>
        </g>
      </g>
    </g>
  </g>
  <g data-name="Back to the future" id="Back_to_the_future">
    <g>
      <rect height="5.91" style="fill: #b89245" transform="translate(48.19 65.76) rotate(-180)" width="5.49" x="21.35" y="30.03"/>
      <rect height="5.91" rx="1.67" ry="1.67" style="fill: #b1aeaa" transform="translate(33.23 65.76) rotate(180)" width="13.23" x="10" y="30.03"/>
      <rect height="5.41" rx="1.65" ry="1.65" style="fill: #b1aeaa" transform="translate(31.58 65.76) rotate(180)" width="11.58" x="10" y="30.28"/>
      <rect height="2.23" rx="0.72" ry="0.72" style="fill: #958c7b" transform="translate(47.14 65.76) rotate(-180)" width="3.38" x="21.88" y="31.87"/>
    </g>
    <g>
      <rect height="5.91" style="fill: #b89245" transform="translate(48.19 48.12) rotate(-180)" width="5.49" x="21.35" y="21.21"/>
      <rect height="5.91" rx="1.67" ry="1.67" style="fill: #b1aeaa" transform="translate(33.23 48.12) rotate(180)" width="13.23" x="10" y="21.21"/>
      <rect height="5.41" rx="1.65" ry="1.65" style="fill: #b1aeaa" transform="translate(31.58 48.12) rotate(180)" width="11.58" x="10" y="21.46"/>
      <rect height="2.23" rx="0.72" ry="0.72" style="fill: #958c7b" transform="translate(47.14 48.12) rotate(-180)" width="3.38" x="21.88" y="23.04"/>
    </g>
    <g>
      <rect height="5.91" style="fill: #b89245" width="5.49" x="42.58" y="21.05"/>
      <rect height="5.91" rx="1.67" ry="1.67" style="fill: #b1aeaa" width="13.23" x="46.19" y="21.05"/>
      <rect height="5.41" rx="1.65" ry="1.65" style="fill: #b1aeaa" width="11.58" x="47.84" y="21.3"/>
      <rect height="2.23" rx="0.72" ry="0.72" style="fill: #958c7b" width="3.38" x="44.16" y="22.88"/>
    </g>
    <g>
      <rect height="5.91" style="fill: #b89245" width="5.49" x="42.58" y="29.87"/>
      <rect height="5.91" rx="1.67" ry="1.67" style="fill: #b1aeaa" width="13.23" x="46.19" y="29.87"/>
      <rect height="5.41" rx="1.65" ry="1.65" style="fill: #b1aeaa" width="11.58" x="47.84" y="30.12"/>
      <rect height="2.23" rx="0.72" ry="0.72" style="fill: #958c7b" width="3.38" x="44.16" y="31.71"/>
    </g>
  </g>
  <g id="Large">
    <circle cx="34.75" cy="28.45" r="7.98" style="fill: url(#radial-gradient)"/>
    <path d="M32.63,51.45" style="fill: none;stroke: #9a916c" transform="translate(0 -0.2)"/>
    <ellipse cx="34.66" cy="28.39" rx="9.31" ry="9.89" style="fill: none;stroke: #edede9;stroke-miterlimit: 10;stroke-width: 4px"/>
    <rect height="3.5" rx="0.48" ry="0.48" style="fill: url(#linear-gradient)" width="3.67" x="30.05" y="24.44"/>
    <rect height="3.5" rx="0.57" ry="0.57" style="fill: url(#linear-gradient-2)" width="3.67" x="35.44" y="24.44"/>
    <rect height="1.75" style="fill: url(#linear-gradient-3)" width="3.4" x="32.94" y="25.87"/>
    <rect height="3.67" style="fill: #caa98b" width="3.71" x="32.75" y="30.25"/>
    <line style="fill: none;stroke: #fff;stroke-miterlimit: 10;stroke-width: 0.2px" x1="32.75" x2="36.46" y1="30.66" y2="30.66"/>
    <line style="fill: none;stroke: #fff;stroke-miterlimit: 10;stroke-width: 0.2px" x1="32.75" x2="36.46" y1="31.06" y2="31.06"/>
    <line style="fill: none;stroke: #fff;stroke-miterlimit: 10;stroke-width: 0.2px" x1="32.75" x2="36.46" y1="31.46" y2="31.46"/>
    <line style="fill: none;stroke: #fff;stroke-miterlimit: 10;stroke-width: 0.2px" x1="32.75" x2="36.46" y1="31.86" y2="31.86"/>
    <line style="fill: none;stroke: #fff;stroke-miterlimit: 10;stroke-width: 0.2px" x1="32.75" x2="36.46" y1="32.26" y2="32.26"/>
    <line style="fill: none;stroke: #fff;stroke-miterlimit: 10;stroke-width: 0.2px" x1="32.75" x2="36.46" y1="32.66" y2="32.66"/>
    <line style="fill: none;stroke: #fff;stroke-miterlimit: 10;stroke-width: 0.2px" x1="32.75" x2="36.46" y1="33.06" y2="33.06"/>
    <line style="fill: none;stroke: #fff;stroke-miterlimit: 10;stroke-width: 0.2px" x1="32.75" x2="36.46" y1="33.46" y2="33.46"/>
    <line style="fill: none;stroke: #fff;stroke-miterlimit: 10;stroke-width: 0.2px" x1="33.68" x2="33.68" y1="30.25" y2="33.92"/>
    <line style="fill: none;stroke: #fff;stroke-miterlimit: 10;stroke-width: 0.2px" x1="35.33" x2="35.33" y1="30.25" y2="33.92"/>
  </g>
  <g data-name="Gauri de aer" id="Gauri_de_aer">
    <circle cx="64.07" cy="27.62" r="2.79" style="fill: none"/>
    <circle cx="6" cy="27.94" r="2.79" style="fill: none"/>
  </g>
  <g data-name="Alb Text" id="Alb_Text">
    <g>
      <path d="M31.48,13.46a.2.2,0,1,1,0,.4H29.71V10.75h1.77a.2.2,0,1,1,0,.4H30.11v1h.59a.2.2,0,0,1,0,.4h-.59v1Z" style="fill: #fff" transform="translate(0 -0.2)"/>
      <path d="M32.79,11.15a.2.2,0,1,1,0-.4h1.38a.39.39,0,0,1,.4.4v.77a.46.46,0,0,1-.16.39.46.46,0,0,1,.16.39v.77a.39.39,0,0,1-.4.4H32.79a.2.2,0,1,1,0-.4h1.38v-.66c0-.22-.09-.29-.2-.29h-.78a.2.2,0,1,1,0-.4H34c.11,0,.2-.07.2-.29v-.66Z" style="fill: #fff" transform="translate(0 -0.2)"/>
      <path d="M35.67,11.15a.2.2,0,1,1,0-.4H37a.39.39,0,0,1,.4.4v.77a.46.46,0,0,1-.16.39.46.46,0,0,1,.16.39v.77a.39.39,0,0,1-.4.4H35.67a.2.2,0,1,1,0-.4H37v-.66c0-.22-.09-.29-.2-.29h-.78a.2.2,0,0,1,0-.4h.78c.11,0,.2-.07.2-.29v-.66Z" style="fill: #fff" transform="translate(0 -0.2)"/>
      <path d="M38.11,12.44h1.33c.2,0,.24.08.24.27v.9c0,.19-.08.25-.26.25H38c-.19,0-.26-.07-.26-.25V10.95c0-.09,0-.2.17-.2h.24a.2.2,0,0,1,.19.2.19.19,0,0,1-.2.2Zm0,.4v.62h1.17v-.62Z" style="fill: #fff" transform="translate(0 -0.2)"/>
      <path d="M40.83,11.15a.2.2,0,1,1-.4,0v-.2a.2.2,0,0,1,.2-.2H42.4v1.16c0,.14,0,.16-.11.25l-.56.48c-.1.09-.11.1-.11.24v.78a.2.2,0,0,1-.4,0v-1a.22.22,0,0,1,.1-.23l.55-.48c.13-.12.12-.11.12-.29v-.55Z" style="fill: #fff" transform="translate(0 -0.2)"/>
      <path d="M43.94,12.1h.74a.41.41,0,0,1,.32.11.39.39,0,0,1,.12.34v.86a.42.42,0,0,1-.1.31.39.39,0,0,1-.35.14h-.89a.58.58,0,0,1-.26-.07l-.15-.07c-.11,0-.23-.08-.23-.22a.2.2,0,0,1,.19-.2.29.29,0,0,1,.13,0l.12.05a.67.67,0,0,0,.21.08h.92v-1H43.54V10.75h1.38a.2.2,0,1,1,0,.4h-1Z" style="fill: #fff" transform="translate(0 -0.2)"/>
      <path d="M46.82,12.1h.74a.41.41,0,0,1,.32.11.39.39,0,0,1,.12.34v.86a.42.42,0,0,1-.1.31.39.39,0,0,1-.35.14h-.89a.58.58,0,0,1-.26-.07l-.15-.07c-.11,0-.23-.08-.23-.22a.2.2,0,0,1,.19-.2.29.29,0,0,1,.13,0l.12.05a.68.68,0,0,0,.21.08h.92v-1H46.42V10.75H47.8a.2.2,0,1,1,0,.4h-1Z" style="fill: #fff" transform="translate(0 -0.2)"/>
    </g>
    <g>
      <path d="M34,1.67a.64.64,0,0,1,.07.31.69.69,0,0,1-.09.34l-.26.52a.37.37,0,0,1-.69,0l-.26-.52A.69.69,0,0,1,32.65,2a.65.65,0,0,1,.07-.31L33,1.11a.37.37,0,0,1,.69,0Zm-.53-.43s0-.09-.1-.09-.07,0-.1.09L33,1.76a.44.44,0,0,0-.07.23.38.38,0,0,0,0,.19l.27.54s0,.09.1.09.08,0,.1-.09l.27-.54a.38.38,0,0,0,0-.19.44.44,0,0,0-.07-.23Z" style="fill: #fff" transform="translate(0 -0.2)"/>
      <path d="M35.15,3.08a.43.43,0,0,1-.35-.14.45.45,0,0,1-.11-.34V1A.14.14,0,0,1,35,1V2.6c0,.16,0,.2.18.2h.48c.13,0,.18,0,.18-.2V1a.14.14,0,0,1,.28,0V2.6a.45.45,0,0,1-.11.34.43.43,0,0,1-.35.14Z" style="fill: #fff" transform="translate(0 -0.2)"/>
      <path d="M37,1.16v.1a.14.14,0,1,1-.28,0V.88h1.4v.39a.14.14,0,1,1-.28,0v-.1h-.28V2.94a.14.14,0,1,1-.28,0V1.16Z" style="fill: #fff" transform="translate(0 -0.2)"/>
    </g>
    <g>
      <path d="M34,55.3h.42a.14.14,0,0,1,0,.28H33.32a.14.14,0,1,1,0-.28h.42V53.66h-.42a.14.14,0,0,1,0-.28h1.12a.14.14,0,0,1,0,.28H34Z" style="fill: #fff" transform="translate(0 -0.2)"/>
      <path d="M36.34,53.52a.14.14,0,0,1,.28,0v2.07h-.37l-.74-1.7h0v1.56a.14.14,0,0,1-.28,0V53.38h.37l.74,1.72h0Z" style="fill: #fff" transform="translate(0 -0.2)"/>
    </g>
    <path d="M26,12.15h-.09l-1.1,1.58a.21.21,0,0,1-.18.11.19.19,0,0,1-.2-.19.4.4,0,0,1,.1-.21l.9-1.29h-.37a.58.58,0,0,1-.63-.57v-.28a.6.6,0,0,1,.63-.58h1.34v2.91a.2.2,0,0,1-.4,0Zm0-1h-.89c-.12,0-.28,0-.28.18v.28c0,.16.18.17.29.17H26Z" style="fill: #fff" transform="translate(0 -0.2)"/>
    <path d="M27.84,54.74h.42a.14.14,0,0,1,0,.28h-.42v.42a.14.14,0,0,1-.28,0V55h-.42a.14.14,0,0,1,0-.28h.42v-.42a.14.14,0,0,1,.28,0Z" style="fill: #fff" transform="translate(0 -0.2)"/>
    <path d="M42.58,54.71c.12,0,.17,0,.17.17s-.05.17-.17.17h-.67c-.12,0-.17,0-.17-.17s.05-.17.17-.17Z" style="fill: #fff" transform="translate(0 -0.2)"/>
    <path d="M27.84,1.13h.42a.13.13,0,0,1,.14.14.13.13,0,0,1-.14.14h-.42v.42a.14.14,0,1,1-.28,0V1.41h-.42A.13.13,0,0,1,27,1.27a.13.13,0,0,1,.14-.14h.42V.7a.14.14,0,0,1,.28,0Z" style="fill: #fff" transform="translate(0 -0.2)"/>
    <path d="M42.58,1.1c.12,0,.17,0,.17.17s-.05.17-.17.17h-.67c-.12,0-.17,0-.17-.17s.05-.17.17-.17Z" style="fill: #fff" transform="translate(0 -0.2)"/>
    <path d="M28.77,13.16a.67.67,0,0,1-.08.38.61.61,0,0,1-.58.3h-.23a.63.63,0,0,1-.56-.23.59.59,0,0,1-.12-.4v-.58a.2.2,0,1,1,.4,0v.52c0,.23,0,.3.28.3h.22c.17,0,.27,0,.27-.22V10.93a.2.2,0,1,1,.4,0Z" style="fill: #fff" transform="translate(0 -0.2)"/>
    <g>
      <path d="M23.8,17.16a.2.2,0,0,1,0-.4h.79v.79a.59.59,0,0,1-.64.63h-.69A.61.61,0,0,1,22.8,18a.58.58,0,0,1-.19-.49v-1a.82.82,0,0,1,.21-.58l.47-.6a.61.61,0,0,1,.56-.27h.54a.2.2,0,1,1,0,.4h-.48c-.22,0-.2,0-.34.16l-.44.56a.76.76,0,0,0-.12.52v.78c0,.22,0,.29.28.29h.64c.14,0,.26,0,.26-.21v-.41Z" style="fill: #fff" transform="translate(0 -0.2)"/>
      <path d="M26.57,18.17a.6.6,0,0,1-.6-.38L25.6,17a.9.9,0,0,1-.11-.42.87.87,0,0,1,.11-.44l.37-.74a.6.6,0,0,1,.62-.38h.68a.19.19,0,0,1,.2.2.19.19,0,0,1-.2.2H26.6c-.17,0-.2,0-.28.17l-.35.7a.62.62,0,0,0-.08.3.56.56,0,0,0,.08.28l.34.69c.08.16.12.18.3.18h.65a.19.19,0,0,1,.2.2.19.19,0,0,1-.2.2Z" style="fill: #fff" transform="translate(0 -0.2)"/>
      <path d="M29.83,16.38c.16,0,.24.06.24.24s-.08.24-.24.24h-.94c-.16,0-.24-.06-.24-.24s.08-.24.24-.24Z" style="fill: #fff" transform="translate(0 -0.2)"/>
      <path d="M31.65,17.77H33a.2.2,0,1,1,0,.4H31.25v-1.3a.4.4,0,0,1,.45-.45h1.12v-1H31.45a.2.2,0,1,1,0-.4h1.33a.41.41,0,0,1,.45.47v.82a.41.41,0,0,1-.45.47H31.65Z" style="fill: #fff" transform="translate(0 -0.2)"/>
    </g>
    <g>
      <path d="M38.4,16.52H37a.2.2,0,0,1-.2-.2v-1a.2.2,0,0,1,.2-.2H38.6a.2.2,0,0,1,.2.2V18a.2.2,0,0,1-.2.2h-.2a.2.2,0,0,1-.2-.2.19.19,0,0,1,.2-.2Zm0-.4v-.62H37.22v.62Z" style="fill: #fff" transform="translate(0 -0.2)"/>
      <path d="M40.92,16.79V15.63a.2.2,0,1,1,.4,0v1.16a.2.2,0,1,1,0,.4V18a.2.2,0,1,1-.4,0v-.82H39.74V15.29a.2.2,0,1,1,.4,0v1.5Z" style="fill: #fff" transform="translate(0 -0.2)"/>
      <path d="M43.28,15.93v-.64a.2.2,0,1,1,.4,0v.63a.42.42,0,0,1,0,.16L42.89,18c0,.1-.08.18-.2.18s-.16-.08-.2-.18l-.76-1.95a.42.42,0,0,1,0-.16v-.63a.2.2,0,1,1,.4,0v.64l.59,1.53Z" style="fill: #fff" transform="translate(0 -0.2)"/>
      <path d="M46,16.41c.16,0,.24.06.24.24s-.08.24-.24.24H45.1c-.16,0-.24-.06-.24-.24s.08-.24.24-.24Z" style="fill: #fff" transform="translate(0 -0.2)"/>
      <path d="M49,15.09a.4.4,0,0,1,.4.4V17.8a.39.39,0,0,1-.4.4H47.86a.39.39,0,0,1-.4-.4V15.49a.4.4,0,0,1,.4-.4Zm0,2.71V15.49H47.86V17.8Z" style="fill: #fff" transform="translate(0 -0.2)"/>
    </g>
    <g>
      <path d="M46.82,42.59l-2.1-.07a.41.41,0,0,1-.31-.33l.52-.17,1.72.06Zm-2.4-.53.06-1.65.13-.12.37.39,0,1.21Zm2.16-3.55-1.52-.05-.5-.21a.41.41,0,0,1,.33-.31l1.9.07ZM46.66,40l.25.26-.26.25L45,40.49l-.25-.26L45,40Zm0-.19,0-1.33.21-.5a.41.41,0,0,1,.31.33l-.06,1.78-.13.12Z" style="fill: #fff" transform="translate(0 -0.2)"/>
      <path d="M50.13,42.71,48,42.64a.41.41,0,0,1-.31-.33l.51-.17,1.72.06Zm-2.4-.53.06-1.65.13-.12.37.4,0,1.21Zm2.16-3.55-1.52-.05-.5-.21a.41.41,0,0,1,.33-.31l1.9.07ZM50,40.16l.25.26-.26.25-1.65-.06L48,40.35l.26-.25ZM50,40l0-1.33.21-.5a.41.41,0,0,1,.31.33l-.06,1.78-.13.12Z" style="fill: #fff" transform="translate(0 -0.2)"/>
      <path d="M54.23,40.62l.12.13-.06,1.78a.41.41,0,0,1-.33.31l-.17-.52,0-1.34Zm-.36-.52,0-1.33.21-.5a.41.41,0,0,1,.31.33l-.06,1.78-.13.12Z" style="fill: #fff" transform="translate(0 -0.2)"/>
      <path d="M58,43l-1.91-.07a.41.41,0,0,1-.31-.33l.51-.17,1.53.05ZM56.4,39l0,1.21-.39.37-.12-.13.06-1.65Zm1.72-.07-1.71-.06-.5-.21a.41.41,0,0,1,.33-.31l2.09.07ZM58,40.44l.25.26-.26.25-1.65-.06-.24-.26.26-.25Zm.37.33.12.13-.06,1.78a.41.41,0,0,1-.33.31l-.17-.52,0-1.34Z" style="fill: #fff" transform="translate(0 -0.2)"/>
    </g>
    <path d="M20.22,38.72A22.57,22.57,0,0,1,18.71,43a22.54,22.54,0,0,1-1.6,2.83,1.33,1.33,0,0,1-1.5.58,1.14,1.14,0,0,1-.58-.56" style="fill: none;stroke: #fff;stroke-linecap: round;stroke-miterlimit: 10;stroke-width: 0.400000005960465px" transform="translate(0 -0.2)"/>
    <path d="M18.77,42.83c1.49.38,4.41.37,4.78-1.66.26-1.39-1.31-2.59-2.33-3.33a8.21,8.21,0,0,0-4.94-1.65c-2.1.14-3.85,2.11-1.94,4" style="fill: none;stroke: #fff;stroke-linecap: round;stroke-miterlimit: 10;stroke-width: 0.400000005960465px" transform="translate(0 -0.2)"/>
    <path d="M21.55,41.64c-.46,0-1.33,6.22,5.33-.29-2.44,2.05-6.06,4.18-5.77,7.65" style="fill: none;stroke: #fff;stroke-linecap: round;stroke-miterlimit: 10;stroke-width: 0.400000005960465px" transform="translate(0 -0.2)"/>
    <path d="M26.89,41.35a8.36,8.36,0,0,0-.79,3.48l.1,0c.82.26,1.82-.78,2.15-1.15" style="fill: none;stroke: #fff;stroke-linecap: round;stroke-miterlimit: 10;stroke-width: 0.400000005960465px" transform="translate(0 -0.2)"/>
    <path d="M25.17,45.89a8.78,8.78,0,0,1-1.81-4.21" style="fill: none;stroke: #fff;stroke-linecap: round;stroke-miterlimit: 10;stroke-width: 0.400000005960465px" transform="translate(0 -0.2)"/>
    <path d="M30.92,44.07a1.28,1.28,0,0,1-2.38-.29c-.12-.67,1.09-2.53,1.56-3,2-2,1.53,1.27-.53,1" style="fill: none;stroke: #fff;stroke-linecap: round;stroke-miterlimit: 10;stroke-width: 0.400000005960465px" transform="translate(0 -0.2)"/>
    <path d="M31,41.65a3.71,3.71,0,0,0,2.1-.6" style="fill: none;stroke: #fff;stroke-linecap: round;stroke-miterlimit: 10;stroke-width: 0.400000005960465px" transform="translate(0 -0.2)"/>
    <ellipse cx="21.83" cy="40.47" rx="0.42" ry="0.45" style="fill: #fff"/>
    <path d="M27.19,40.81a.66.66,0,0,0,.42,0,.71.71,0,0,0,.4-.46,1.09,1.09,0,0,0-.19-.94,1,1,0,0,0-.85.71,2.88,2.88,0,0,0,0,.29c0,.1,0,.2,0,.28" style="fill: #fff" transform="translate(0 -0.2)"/>
  </g>
  <g id="Connectors">
    <circle cx="27.82" cy="49.45" data-cir-type="female" id="circuitoCon_5V" r="2.52" style="fill: none"/>
    <circle cx="42.22" cy="49.45" data-cir-type="female" id="circuitoCon_GND" r="2.52" style="fill: none"/>
    <circle cx="27.82" cy="6.25" data-cir-type="female" id="circuitoCon_5V_Ch" r="2.52" style="fill: none"/>
    <circle cx="42.22" cy="6.25" data-cir-type="female" id="circuitoCon_GND_Ch" r="2.52" style="fill: none"/>
    <circle cx="35.02" cy="49.45" data-cir-type="female" id="circuitoCon_IN" r="1.45" style="fill: none"/>
    <circle cx="35.02" cy="6.25" data-cir-type="female" id="circuitoCon_OUT" r="1.45" style="fill: none"/>
  </g>
</svg>