<?xml version="1.0" ?><svg height="62.63mm" viewBox="0 0 160.64 177.53" width="56.67mm" xmlns="http://www.w3.org/2000/svg" xmlns:xlink="http://www.w3.org/1999/xlink">
  <defs>
    <linearGradient gradientUnits="userSpaceOnUse" id="linear-gradient" x1="27.29" x2="25.62" y1="6.65" y2="6.77">
      <stop offset="0.34" stop-color="#191518"/>
      <stop offset="0.59" stop-color="#737577"/>
    </linearGradient>
    <linearGradient id="linear-gradient-2" x1="28.02" x2="24.08" xlink:href="#linear-gradient" y1="19.64" y2="19.93"/>
    <linearGradient gradientUnits="userSpaceOnUse" id="linear-gradient-3" x1="18.17" x2="26.72" y1="25.76" y2="25.19">
      <stop offset="0.34" stop-color="#191518"/>
      <stop offset="0.48" stop-color="#737577"/>
    </linearGradient>
    <linearGradient gradientUnits="userSpaceOnUse" id="linear-gradient-4" x1="23.27" x2="23.27" y1="5.7" y2="41.86">
      <stop offset="0.02" stop-color="#191518"/>
      <stop offset="0.48" stop-color="#737577"/>
      <stop offset="0.99" stop-color="#191518"/>
    </linearGradient>
    <linearGradient id="linear-gradient-5" x1="27.94" x2="22.16" xlink:href="#linear-gradient" y1="25.32" y2="25.74"/>
    <linearGradient gradientTransform="translate(0.52 -2.81) rotate(1.11)" id="linear-gradient-6" x1="20.97" x2="15.38" xlink:href="#linear-gradient" y1="27.83" y2="28.23"/>
    <linearGradient gradientUnits="userSpaceOnUse" id="linear-gradient-7" x1="13.84" x2="20.18" y1="25.67" y2="25.52">
      <stop offset="0.4" stop-color="#191518"/>
      <stop offset="0.58" stop-color="#737577"/>
    </linearGradient>
    <linearGradient id="linear-gradient-8" x1="-1.17" x2="8.91" xlink:href="#linear-gradient-3" y1="25.75" y2="25.07"/>
    <linearGradient id="linear-gradient-9" x1="4.28" x2="4.28" xlink:href="#linear-gradient-4" y1="5.73" y2="41.83"/>
    <linearGradient id="linear-gradient-10" x1="8.57" x2="3.35" xlink:href="#linear-gradient" y1="25.54" y2="25.91"/>
    <linearGradient id="linear-gradient-11" x1="5.43" x2="9.58" xlink:href="#linear-gradient-4" y1="25.55" y2="25.55"/>
    <linearGradient gradientTransform="translate(0.52 -2.81) rotate(1.11)" id="linear-gradient-12" x1="5.42" x2="16.01" xlink:href="#linear-gradient-3" y1="28.45" y2="27.74"/>
    <linearGradient gradientTransform="matrix(1, 0.02, -0.02, 1, 0.53, -2.98)" id="linear-gradient-13" x1="11.12" x2="11.12" xlink:href="#linear-gradient-4" y1="8.37" y2="44.47"/>
    <linearGradient gradientTransform="translate(0.52 -2.81) rotate(1.11)" id="linear-gradient-14" x1="14.55" x2="9.33" xlink:href="#linear-gradient" y1="28.02" y2="28.4"/>
    <linearGradient gradientTransform="translate(0.52 -2.81) rotate(1.11)" id="linear-gradient-15" x1="11.42" x2="16.44" xlink:href="#linear-gradient-4" y1="28.14" y2="28.14"/>
    <linearGradient id="linear-gradient-16" x1="11.99" x2="18.6" xlink:href="#linear-gradient-7" y1="25.65" y2="25.5"/>
    <linearGradient gradientTransform="matrix(1, 0, 0, -1, -82.81, 126.41)" gradientUnits="userSpaceOnUse" id="linear-gradient-17" x1="170.57" x2="170.57" y1="-32.29" y2="-39.73">
      <stop offset="0" stop-color="#999"/>
      <stop offset="1" stop-color="#f2f2f2"/>
    </linearGradient>
    <linearGradient gradientTransform="matrix(1, 0, 0, -1, -96.75, 126.41)" id="linear-gradient-18" x1="177.54" x2="177.54" xlink:href="#linear-gradient-17" y1="-32.29" y2="-39.73"/>
    <linearGradient gradientTransform="matrix(1, 0, 0, -1, -110.68, 126.41)" id="linear-gradient-19" x1="184.51" x2="184.51" xlink:href="#linear-gradient-17" y1="-32.29" y2="-39.73"/>
    <radialGradient cx="80.66" cy="46.03" gradientUnits="userSpaceOnUse" id="radial-gradient" r="45.9">
      <stop offset="0.04" stop-color="#6a626f"/>
      <stop offset="0.95" stop-color="#39383d"/>
      <stop offset="1" stop-color="#2b2626"/>
    </radialGradient>
    <linearGradient gradientUnits="userSpaceOnUse" id="linear-gradient-20" x1="80.66" x2="80.66" y1="77.35" y2="-34.78">
      <stop offset="0.23" stop-color="#242224"/>
      <stop offset="0.33" stop-color="#5e5e5e"/>
      <stop offset="0.47" stop-color="#666"/>
      <stop offset="0.63" stop-color="#242224"/>
    </linearGradient>
    <radialGradient cx="116.78" cy="9.7" gradientUnits="userSpaceOnUse" id="radial-gradient-2" r="9.72">
      <stop offset="0.16" stop-color="#847270"/>
      <stop offset="0.4" stop-color="#71676a"/>
      <stop offset="0.67" stop-color="#3f393b"/>
      <stop offset="0.83"/>
    </radialGradient>
    <radialGradient cx="116.78" cy="9.7" gradientUnits="userSpaceOnUse" id="radial-gradient-3" r="3.37">
      <stop offset="0.08"/>
      <stop offset="0.47" stop-color="#2b2626"/>
      <stop offset="0.96" stop-color="#847270"/>
    </radialGradient>
    <radialGradient cx="55.22" cy="0.91" gradientUnits="userSpaceOnUse" id="radial-gradient-4" r="16.8">
      <stop offset="0.16" stop-color="#777"/>
      <stop offset="0.83"/>
    </radialGradient>
    <radialGradient cx="127.6" cy="2.06" id="radial-gradient-5" r="16.8" xlink:href="#radial-gradient-4"/>
    <radialGradient cx="80.66" cy="46.03" gradientUnits="userSpaceOnUse" id="radial-gradient-6" r="35.19">
      <stop offset="0.05" stop-color="#37363b"/>
      <stop offset="0.86" stop-color="#39383d"/>
      <stop offset="0.93" stop-color="#2b2626"/>
    </radialGradient>
    <linearGradient id="linear-gradient-21" x1="160.76" x2="159.09" xlink:href="#linear-gradient" y1="6.65" y2="6.77"/>
    <linearGradient id="linear-gradient-22" x1="161.49" x2="157.55" xlink:href="#linear-gradient" y1="19.64" y2="19.93"/>
    <linearGradient id="linear-gradient-23" x1="151.64" x2="160.19" xlink:href="#linear-gradient-3" y1="25.76" y2="25.19"/>
    <linearGradient id="linear-gradient-24" x1="156.74" x2="156.74" xlink:href="#linear-gradient-4" y1="5.7" y2="41.86"/>
    <linearGradient id="linear-gradient-25" x1="161.15" x2="155.7" xlink:href="#linear-gradient" y1="24.99" y2="25.38"/>
    <linearGradient gradientTransform="translate(0.52 -2.81) rotate(1.11)" id="linear-gradient-26" x1="154.41" x2="148.82" xlink:href="#linear-gradient" y1="25.23" y2="25.64"/>
    <linearGradient id="linear-gradient-27" x1="147.31" x2="153.65" xlink:href="#linear-gradient-7" y1="25.67" y2="25.52"/>
    <linearGradient id="linear-gradient-28" x1="133.14" x2="141.66" xlink:href="#linear-gradient-3" y1="25.73" y2="25.16"/>
    <linearGradient id="linear-gradient-29" x1="137.75" x2="137.75" xlink:href="#linear-gradient-4" y1="5.73" y2="41.83"/>
    <linearGradient id="linear-gradient-30" x1="142.04" x2="136.82" xlink:href="#linear-gradient" y1="25.54" y2="25.91"/>
    <linearGradient id="linear-gradient-31" x1="138.91" x2="143.05" xlink:href="#linear-gradient-4" y1="25.55" y2="25.55"/>
    <linearGradient gradientTransform="translate(0.52 -2.81) rotate(1.11)" id="linear-gradient-32" x1="138.86" x2="149.46" xlink:href="#linear-gradient-3" y1="25.85" y2="25.14"/>
    <linearGradient gradientTransform="matrix(1, 0.02, -0.02, 1, 0.53, -2.98)" id="linear-gradient-33" x1="144.56" x2="144.56" xlink:href="#linear-gradient-4" y1="5.78" y2="41.88"/>
    <linearGradient gradientTransform="translate(0.52 -2.81) rotate(1.11)" id="linear-gradient-34" x1="147.99" x2="142.78" xlink:href="#linear-gradient" y1="25.43" y2="25.81"/>
    <linearGradient gradientTransform="translate(0.52 -2.81) rotate(1.11)" id="linear-gradient-35" x1="144.87" x2="149.88" xlink:href="#linear-gradient-4" y1="25.54" y2="25.54"/>
    <linearGradient id="linear-gradient-36" x1="145.47" x2="152.07" xlink:href="#linear-gradient-7" y1="25.65" y2="25.5"/>
    <linearGradient id="linear-gradient-37" x1="155.4" x2="151.67" xlink:href="#linear-gradient" y1="25.47" y2="25.74"/>
    <linearGradient gradientUnits="userSpaceOnUse" id="linear-gradient-38" x1="21.93" x2="18.2" y1="25.47" y2="25.74">
      <stop offset="0.23" stop-color="#191518"/>
      <stop offset="0.59" stop-color="#737577"/>
    </linearGradient>
    <linearGradient id="linear-gradient-39" x1="-0.4" x2="4.31" xlink:href="#linear-gradient-3" y1="34.54" y2="34.23"/>
    <linearGradient id="linear-gradient-40" x1="0.14" x2="3.02" xlink:href="#linear-gradient-3" y1="45.48" y2="45.29"/>
  </defs>
  <title>Water Flow Sensor G12</title>
  <g data-name="Layer 2" id="Layer_2">
    <polygon points="26.66 1.89 26.66 13.43 25.62 0.03 26.66 1.89" style="fill: url(#linear-gradient)"/>
    <path d="M25.62,0c.63,2.43.84,7.5,1,12.66V39.58L24.59.11A2.43,2.43,0,0,1,25.62,0Z" style="fill: url(#linear-gradient-2)"/>
    <path d="M20.9,3q.95,10.57,1.75,21.43.88,11.91,1.55,23.5-.34.66-.74,1.35c-.38.66-.77,1.26-1.15,1.82-.1-.46-.26-1.24-.41-2.2a74.79,74.79,0,0,1-.56-9.17c0-.87-.07-1.74-.1-2.61C21,30.89,20.09,24.42,20,23.35c-.43-3.84-.84-10.58-.79-23.31Z" style="fill: url(#linear-gradient-3)"/>
    <path d="M22.61,3.19q.77,10.12,1.46,20.38.83,12.26,1.54,24.35l-1.39,0q-.8-9.54-1.53-19.22-1-12.89-1.77-25.55Z" style="fill: url(#linear-gradient-4)"/>
    <path d="M24.59.11c.16.71.31,1.47.42,2.27a36.43,36.43,0,0,1,.33,4.69h0c-.55.55-.12,1,.19,1.71a13.62,13.62,0,0,1,.42,3.6c.33,2.74.15,7.43.19,14a78.35,78.35,0,0,0,.36,9.15c.16,1.32.28,1.91.37,3.33.13,2,.16,4.86.19,6.59,0,.22,0,.76.08,1.48.05.51.07.47.13.94.12,1.13,0,1.25.1,2.25,0,.4.11.67,0,.69s-.32-.44-.48-.75a19.87,19.87,0,0,0-1.37-2.24c0-.26-.07-.59-.11-1s-.09-.81-.14-1.29c-.21-2.17-.25-3.33-.4-6-.19-3.24-.23-3.1-.36-5.53-.09-1.63-.13-2.44-.19-4.82-.07-2.76-.35-6.61-.83-13-.28-3.77-.44-5.6-.72-9.84-.09-1.36-.16-2.48-.2-3.22Z" style="fill: url(#linear-gradient-5)"/>
    <path d="M18.2,0l.09.19a3.86,3.86,0,0,1,.29,1.27c.11,1.14.09.61.14,1.29.07,1,.07,1.44.11,2.13,0,.48.07,1.19.17,2.06l1.71,38.56c.21,2,.29,3,.31,3.5a7.05,7.05,0,0,0,.13,1.21,3.73,3.73,0,0,1,.15.69c-.07,0-.49-.56-2-3.25a8.08,8.08,0,0,1-1.06-2.18c-.48-1.54-.14-2.19-.29-6-.13-3.24-.17-3.1-.25-5.53-.07-2.06-.09-3.74-.09-4.82l-.68-20c0-.53-.07-1.67-.22-3.17-.11-1.15-.24-2.11-.34-2.8Q17.1,1.8,18,.36Z" style="fill: url(#linear-gradient-6)"/>
    <path d="M16.31,3.22c.8.48,1.21,11.64,1.53,19.25l1.08,20.9c0,.62.07,1.28.14,2,.1.93.24,1.78.4,2.56L17.84,48c-1.35-3.6-1.32-8.77-1.35-14.62-.17-3.4-.26-7.28-.3-11.41l-.53-10.33-.91-8.42Z" style="fill: url(#linear-gradient-7)"/>
    <path d="M1.92,3.08C2.83,9.8,3.61,16.94,4.17,24.45c.61,8.24.9,16.08,1,23.46l-2,3.19c0-.14-.12-.34-.19-.59a10.05,10.05,0,0,1-.34-3.12c0-1-.08,0-.34-4.91-.13-2.31-.18-4-.19-4.16C1.95,35.82,1.46,26.25,0,0Z" style="fill: url(#linear-gradient-8)"/>
    <path d="M3.63,3.22c.88.5,2,38.94,3,44.69H5.13C3.73,43,3.81,16.72,1.94,3.22Z" style="fill: url(#linear-gradient-9)"/>
    <path d="M5.44.14c.59,1,.68,4,.81,6.86L7.91,45.44c.19,2.68.38,5.3.69,5.72l-2-3.31c-.06-.52-.16-1.3-.25-2.25-.21-2.17-.25-3.33-.4-6-.19-3.24-.23-3.1-.36-5.53-.11-2.06-.16-3.74-.19-4.82l-1.07-20c-.06-1-.15-2.07-.28-3.17s-.25-2-.4-2.93Z" style="fill: url(#linear-gradient-10)"/>
    <path d="M6.44.07a5.22,5.22,0,0,1,.29,1.09c1.2,11.78.78,20.63,1.58,30,.39,4.56,0,11.28,1.21,19.56.07.19.1.34,0,.39H8.59A17.87,17.87,0,0,1,8,46.62q-.08-1.15-.16-2.32Q7.57,40,7.5,35.91L7,24.77l-.5-11.53c-.23-5-.41-8.64-.46-9.34C6,3.36,6,2.78,6,2.78c0-.4-.05-.61-.08-.82A9.63,9.63,0,0,0,5.58.43L5.44.14a.08.08,0,0,1,0,0C5.5-.07,6.14,0,6.44.07Z" style="fill: url(#linear-gradient-11)"/>
    <path d="M9.19,3.09C10,9.83,10.61,17,11,24.5c.45,8.25.59,16.09.5,23.47L9.58,51.1c-.17-.71-.26-1.3-.32-1.72s0-.36-.16-1.71C9,46.69,9,46.51,8.95,46c0-.26,0-.47,0-.88s-.06-.75-.08-1c-.13-1.79-.2-3.15-.2-3.36C8.53,38.58,7.69,22.59,6.5.12Z" style="fill: url(#linear-gradient-12)"/>
    <path d="M10.9,3.11c.87.52,1.27,39.11,2.13,44.9l-1.5,0c-.82-8.09-1-14.64-1-19.23,0,0-.06-13.78-.86-21.75-.14-1.4-.32-2.79-.32-2.79-.06-.47-.11-.86-.15-1.14Z" style="fill: url(#linear-gradient-13)"/>
    <path d="M11.89,0c.57,1,.6,4,.68,6.88l.91,38.46c.14,2.69.28,5.3.58,5.73l-2-3.35c-.05-.52-.13-1.3-.21-2.25-.17-2.17-.18-3.33-.29-6-.13-3.24-.17-3.1-.25-5.53-.07-2.06-.09-3.74-.09-4.82l-.68-20c0-1-.11-2.07-.22-3.17S10.15,4,10,3.08Z" style="fill: url(#linear-gradient-14)"/>
    <path d="M12.89.09c.22,1.28.52,3.19.73,5.53.27,3,.26,5,.29,7.33,0,2.53.08,1.55.46,10.75.33,8,.28,8.24.46,12,.16,3.51.45,8.66,1,15a.56.56,0,0,0,.07.35l-1.86.08a17.87,17.87,0,0,1-.52-4.5q-.06-1.15-.11-2.32-.18-4.3-.17-8.4L13,24.79l-.27-11.54c-.13-5-.24-8.64-.28-9.35,0-.53-.06-1.12-.06-1.12,0-.4,0-.61-.06-.82A9.62,9.62,0,0,0,12,.43L11.89.13a.08.08,0,0,1,0,0C12-.08,12.6,0,12.89.09Z" style="fill: url(#linear-gradient-15)"/>
    <path d="M14.75,3.22c.6-.07,1.74,21.68,1.44,21.87.35,9.51.66,20.75,1.66,22.91l-1.69,2.91c-.2.35-.31.25-.33-.4-.3-3.31-.56-7-.79-10.94-.19-3.24-.33-6.59-.43-10l-.46-11.06c-.17-2.82-.27-5.55-.27-8.18a67.62,67.62,0,0,0-.64-8L12.89.09Z" style="fill: url(#linear-gradient-16)"/>
    <g data-name="Layer 3" id="Layer_3">
      <g data-name="&lt;Group&gt;" id="_Group_">
        <polyline data-name="&lt;Path&gt;" id="_Path_" points="78.49 153.04 78.8 53.7 74.2 53.7 74.2 153.04" style="fill: #4d4845"/>
        <path d="M111.78,174.3" data-name="&lt;Path&gt;" id="_Path_2" style="fill: #4d4845"/>
      </g>
      <g data-name="&lt;Group&gt;" id="_Group_2">
        <polyline data-name="&lt;Path&gt;" id="_Path_3" points="82.79 153.04 83.1 49.41 78.49 49.41 78.49 153.04" style="fill: #fd4f57"/>
      </g>
      <g data-name="&lt;Group&gt;" id="_Group_3">
        <polyline data-name="&lt;Path&gt;" id="_Path_4" points="87.39 153.04 87.39 45.11 82.79 45.11 82.79 153.04" style="fill: #ffc600"/>
      </g>
      <g>
        <rect data-name="&lt;Rectangle&gt;" height="37.48" id="_Rectangle_" style="fill: #333" transform="translate(161.59 314.7) rotate(-180)" width="23.47" x="69.06" y="138.61"/>
        <g data-name="&lt;Group&gt;" id="_Group_4">
          <rect data-name="&lt;Rectangle&gt;" height="14.88" id="_Rectangle_2" style="fill: #1a1a1a" transform="translate(175.52 332.29) rotate(-180)" width="2.89" x="86.32" y="158.7"/>
          <rect data-name="&lt;Rectangle&gt;" height="7.44" id="_Rectangle_3" style="fill: url(#linear-gradient-17)" transform="translate(175.52 324.84) rotate(-180)" width="2.89" x="86.32" y="158.7"/>
          <rect data-name="&lt;Rectangle&gt;" height="14.88" id="_Rectangle_4" style="fill: #1a1a1a" transform="translate(161.59 332.29) rotate(-180)" width="2.89" x="79.35" y="158.7"/>
          <rect data-name="&lt;Rectangle&gt;" height="7.44" id="_Rectangle_5" style="fill: url(#linear-gradient-18)" transform="translate(161.59 324.84) rotate(-180)" width="2.89" x="79.35" y="158.7"/>
          <rect data-name="&lt;Rectangle&gt;" height="14.88" id="_Rectangle_6" style="fill: #1a1a1a" transform="translate(147.66 332.29) rotate(-180)" width="2.89" x="72.38" y="158.7"/>
          <rect data-name="&lt;Rectangle&gt;" height="7.44" id="_Rectangle_7" style="fill: url(#linear-gradient-19)" transform="translate(147.66 324.84) rotate(-180)" width="2.89" x="72.38" y="158.7"/>
        </g>
      </g>
    </g>
    <circle cx="80.66" cy="46.03" r="45.9" style="fill: url(#radial-gradient)"/>
    <polygon points="24.6 0.03 133.47 0.03 136.72 51.16 27.35 51.16 24.6 0.03" style="fill: url(#linear-gradient-20)"/>
    <g>
      <ellipse cx="116.78" cy="9.7" rx="9.77" ry="9.67" style="fill: url(#radial-gradient-2)"/>
      <ellipse cx="116.78" cy="9.7" rx="3.37" ry="3.36" style="fill: url(#radial-gradient-3)"/>
    </g>
    <g>
      <ellipse cx="44.41" cy="9.7" rx="9.77" ry="9.67" style="fill: url(#radial-gradient-4)"/>
      <ellipse cx="44.41" cy="9.7" rx="3.37" ry="3.36" style="fill: #0a0a0a"/>
    </g>
    <g>
      <ellipse cx="116.78" cy="10.85" rx="9.77" ry="9.67" style="fill: url(#radial-gradient-5)"/>
      <ellipse cx="116.78" cy="10.85" rx="3.37" ry="3.36" style="fill: #0a0a0a"/>
    </g>
    <ellipse cx="80.66" cy="46.03" rx="31.12" ry="31.5" style="fill: #fffdfe"/>
    <circle cx="80.66" cy="46.03" r="35.19" style="fill: url(#radial-gradient-6)"/>
    <g>
      <polygon points="160.13 1.89 160.13 13.43 159.09 0.03 160.13 1.89" style="fill: url(#linear-gradient-21)"/>
      <path d="M159.09,0c.63,2.43.84,7.5,1,12.66V39.58L158.06.11A2.43,2.43,0,0,1,159.09,0Z" style="fill: url(#linear-gradient-22)"/>
      <path d="M154.37,3q.95,10.57,1.75,21.43Q157,36.38,157.68,48q-.34.66-.74,1.35c-.38.66-.77,1.26-1.15,1.82-.21-1-.34-1.75-.41-2.2-.5-3.37-.23-5-.53-10,0-.39-.06-.85-.12-1.78-.48-6.65-1.25-13.52-1.28-13.81C153,19.5,152.6,12.76,152.65,0Z" style="fill: url(#linear-gradient-23)"/>
      <path d="M156.08,3.19q.77,10.12,1.46,20.38.83,12.26,1.54,24.35l-1.39,0q-.8-9.54-1.53-19.22-1-12.89-1.77-25.55Z" style="fill: url(#linear-gradient-24)"/>
      <path d="M158.06.11c.16.71.31,1.47.42,2.27a36.43,36.43,0,0,1,.33,4.69c0,4.1.93,15.45,1.15,28.46,0,0,.1,5.93.39,9.87,0,.52,0,1,.1,1.55a16.21,16.21,0,0,1,.14,3.12.06.06,0,0,1,0,0s-.15,0-.19-.07A18.44,18.44,0,0,1,159,47.81c0-.26-.07-.59-.11-1s-.09-.81-.14-1.29c-.21-2.17-.25-3.33-.4-6-.19-3.24-.23-3.1-.36-5.53-.09-1.63-.13-2.44-.19-4.82-.07-2.76-.35-6.61-.83-13-.28-3.77-.44-5.6-.72-9.84-.09-1.36-.16-2.48-.2-3.22Z" style="fill: url(#linear-gradient-25)"/>
      <path d="M151.67,0l.09.19a3.86,3.86,0,0,1,.29,1.27c.11,1.14.09.61.14,1.29.07,1,.07,1.44.11,2.13,0,.48.07,1.19.17,2.06l1.71,38.56c.21,2,.29,3,.31,3.5a7.05,7.05,0,0,0,.13,1.21,3.73,3.73,0,0,1,.15.69c-.07,0-.49-.56-2-3.25a8.08,8.08,0,0,1-1.06-2.18c-.48-1.54-.14-2.19-.29-6-.13-3.24-.17-3.1-.25-5.53-.07-2.06-.09-3.74-.09-4.82l-.68-20c0-.53-.07-1.67-.22-3.17-.11-1.15-.24-2.11-.34-2.8q.76-1.42,1.66-2.86Z" style="fill: url(#linear-gradient-26)"/>
      <path d="M149.78,3.22c.8.48,1.21,11.64,1.53,19.25l1.08,20.9c0,.62.07,1.28.14,2,.1.93.24,1.78.4,2.56l-1.62.09C150,44.4,150,39.23,150,33.38c-.17-3.4-.26-7.28-.3-11.41l-.53-10.33-.91-8.42Z" style="fill: url(#linear-gradient-27)"/>
      <g>
        <path d="M135.39,3.08c.92,6.73,1.69,13.86,2.25,21.38.61,8.24.9,16.08,1,23.46l-1.87,3.25L133.47,0Z" style="fill: url(#linear-gradient-28)"/>
        <path d="M137.1,3.22c.88.5,2,38.94,3,44.69h-1.5c-1.39-5-1.31-31.19-3.18-44.69Z" style="fill: url(#linear-gradient-29)"/>
        <path d="M138.91.14c.59,1,.68,4,.81,6.86l1.66,38.44c.19,2.68.38,5.3.69,5.72l-2-3.31c-.06-.52-.16-1.3-.25-2.25-.21-2.17-.25-3.33-.4-6-.19-3.24-.23-3.1-.36-5.53-.11-2.06-.16-3.74-.19-4.82l-1.07-20c-.06-1-.15-2.07-.28-3.17s-.25-2-.4-2.93Z" style="fill: url(#linear-gradient-30)"/>
      </g>
      <path d="M139.91.07a5.22,5.22,0,0,1,.29,1.09c1.2,11.78.78,20.63,1.58,30,.39,4.56,0,11.28,1.21,19.56.07.19.1.34,0,.39h-.93a17.87,17.87,0,0,1-.6-4.48q-.08-1.15-.16-2.32Q141,40,141,35.91l-.48-11.14L140,13.24c-.23-5-.41-8.64-.46-9.34,0-.53-.09-1.11-.09-1.11,0-.4-.05-.61-.08-.82A9.63,9.63,0,0,0,139,.43l-.14-.29a.08.08,0,0,1,0,0C139-.07,139.61,0,139.91.07Z" style="fill: url(#linear-gradient-31)"/>
      <path d="M142.66,3.09c.79,6.74,1.42,13.89,1.83,21.41.45,8.25.59,16.09.5,23.47l-1.94,3.12c-.17-.71-.26-1.3-.32-1.72s0-.36-.16-1.71c-.1-1-.13-1.17-.15-1.67,0-.26,0-.47,0-.88s-.06-.75-.08-1c-.13-1.79-.2-3.15-.2-3.36C142,38.58,141.16,22.59,140,.12Z" style="fill: url(#linear-gradient-32)"/>
      <path d="M144.37,3.11c.87.52,1.27,39.11,2.13,44.9L145,48c-.82-8.09-1-14.64-1-19.23,0,0-.06-13.78-.86-21.75-.14-1.4-.32-2.79-.32-2.79-.06-.47-.11-.86-.15-1.14Z" style="fill: url(#linear-gradient-33)"/>
      <path d="M145.36,0c.57,1,.6,4,.68,6.88l.91,38.46c.14,2.69.28,5.3.58,5.73l-2-3.35c-.05-.52-.13-1.3-.21-2.25-.17-2.17-.18-3.33-.29-6-.13-3.24-.17-3.1-.25-5.53-.07-2.06-.09-3.74-.09-4.82l-.68-20c0-1-.11-2.07-.22-3.17s-.21-2-.35-2.94Z" style="fill: url(#linear-gradient-34)"/>
      <path d="M146.36.09c.22,1.28.52,3.19.73,5.53.27,3,.26,5,.29,7.33,0,2.53.08,1.55.46,10.75.33,8,.28,8.24.46,12,.16,3.51.45,8.66,1,15a.56.56,0,0,0,.07.35l-1.86.08a17.87,17.87,0,0,1-.52-4.5q-.06-1.15-.11-2.32-.18-4.3-.17-8.4l-.26-11.15-.27-11.54c-.13-5-.24-8.64-.28-9.35,0-.53-.06-1.12-.06-1.12,0-.4,0-.61-.06-.82A9.62,9.62,0,0,0,145.5.43l-.13-.29a.08.08,0,0,1,0,0C145.43-.08,146.07,0,146.36.09Z" style="fill: url(#linear-gradient-35)"/>
      <path d="M148.22,3.22c.6-.07,1.74,21.68,1.44,21.87.35,9.51.66,20.75,1.66,22.91l-1.69,2.91c-.2.35-.31.25-.33-.4-.3-3.31-.56-7-.79-10.94-.19-3.24-.33-6.59-.43-10l-.46-11.06c-.17-2.82-.27-5.55-.27-8.18a67.62,67.62,0,0,0-.64-8L146.36.09Z" style="fill: url(#linear-gradient-36)"/>
      <path d="M152.65,0a52.31,52.31,0,0,1,.8,8.56L154,20.76l.5,10.69L155,42l.46,7a5.83,5.83,0,0,0,.42,2.14,4.5,4.5,0,0,1-1,0,8.78,8.78,0,0,1-.33-2.32c-.25-2.69-.45-5.48-.62-8.36l-.28-6.93-.34-7.12-.43-9.87-.6-12.43a21.62,21.62,0,0,0-.54-4,3.82,3.82,0,0,1,1,0" style="fill: url(#linear-gradient-37)"/>
    </g>
    <path d="M19.18,0A52.31,52.31,0,0,1,20,8.6l.54,12.17L21,31.45,21.5,42,22,49a5.83,5.83,0,0,0,.42,2.14,4.5,4.5,0,0,1-1,0A8.78,8.78,0,0,1,21,48.79c-.25-2.69-.45-5.48-.62-8.36l-.28-6.93-.34-7.12-.43-9.87-.6-12.43a21.62,21.62,0,0,0-.54-4,3.82,3.82,0,0,1,1,0" style="fill: url(#linear-gradient-38)"/>
    <path d="M2.06,51.1a2,2,0,0,0,1,0L1,17.63c0,2,0,5.07,0,8.81C.93,34.49.89,36,1,38.57A115.32,115.32,0,0,0,2.06,51.1Z" style="fill: url(#linear-gradient-39)"/>
    <path d="M1,49.19l1,1.91L1,39.67Z" style="fill: url(#linear-gradient-40)"/>
  </g>
  <g id="Connectors">
    <rect data-cir-color="black" data-cir-type="female" height="2.89" id="circuitoCon_GND" style="fill: none" transform="translate(-102.26 249.92) rotate(-90)" width="2.89" x="72.38" y="174.64"/>
    <rect data-cir-type="female" height="2.89" id="circuitoCon_VCC" style="fill: none" transform="translate(-95.29 256.88) rotate(-90)" width="2.89" x="79.35" y="174.64"/>
    <rect data-cir-color="yellow" data-cir-type="female" height="2.89" id="circuitoCon_SIG" style="fill: none" transform="translate(-88.33 263.85) rotate(-90)" width="2.89" x="86.32" y="174.64"/>
  </g>
</svg>