<?xml version="1.0" ?><svg data-name="Layer 1" height="49.69mm" id="Layer_1" viewBox="0 0 112.58 140.84" width="39.72mm" xmlns="http://www.w3.org/2000/svg" xmlns:xlink="http://www.w3.org/1999/xlink">
  <defs>
    <linearGradient gradientTransform="matrix(1, 0, 0, -1, 0, 140.83)" gradientUnits="userSpaceOnUse" id="linear-gradient" x1="55.83" x2="55.83" y1="71.38" y2="101.51">
      <stop offset="0.15"/>
      <stop offset="0.37" stop-color="#838484"/>
      <stop offset="0.44" stop-color="#808081"/>
      <stop offset="0.59" stop-color="#6d6c6c"/>
      <stop offset="0.75"/>
    </linearGradient>
    <linearGradient gradientTransform="matrix(1, 0, 0, -1, 0, 140.83)" gradientUnits="userSpaceOnUse" id="linear-gradient-2" x1="55.83" x2="55.83" y1="74.8" y2="101.55">
      <stop offset="0.15"/>
      <stop offset="0.29" stop-color="#838484"/>
      <stop offset="0.44" stop-color="#808081"/>
      <stop offset="0.48" stop-color="#6d6c6c"/>
      <stop offset="0.68"/>
    </linearGradient>
  </defs>
  <title>Thin Speaker</title>
  <g id="ellipse">
    <polyline points="36.44 106.69 36.44 140.84 38.7 140.84 38.7 106.69" style="fill: #b1ada9"/>
    <polyline points="72.38 106.69 72.38 140.84 74.76 140.84 74.76 106.69" style="fill: #b1ada9"/>
    <path d="M62.26.31A56.88,56.88,0,0,0,56.39,0a56.29,56.29,0,1,0,9.76.87Z" style="fill: #81c99e"/>
    <circle cx="55.83" cy="55.93" r="52.97" style="fill: #161717"/>
    <circle cx="55.83" cy="55.93" r="46.14" style="fill: #161616"/>
    <circle cx="55.83" cy="55.93" r="36.64" style="fill: #1a1a1a"/>
    <ellipse cx="55.9" cy="55.75" rx="15.83" ry="15.95" style="fill: #1a1a1a"/>
    <circle cx="55.83" cy="55.79" r="13.98" style="fill: url(#linear-gradient)"/>
    <circle cx="55.83" cy="56.29" r="12.22" style="fill: #1a1a1a"/>
    <circle cx="55.83" cy="55.79" r="9.42" style="fill: url(#linear-gradient-2)"/>
    <circle cx="55.83" cy="56.04" r="7.5" style="fill: #191818"/>
    <ellipse cx="55.83" cy="55.93" rx="14.65" ry="14.79" style="fill: none;stroke: #646565;stroke-miterlimit: 10;stroke-width: 0.5px"/>
    <circle cx="55.83" cy="55.79" r="15.75" style="fill: none;stroke: #646565;stroke-miterlimit: 10;stroke-width: 0.5px"/>
    <path d="M52.53,50.48C51,52.61,49.9,54.61,50,56.29c-.48-.23-.87-.07-1.12.69C48.55,54.19,49.6,52,52.53,50.48Z" style="fill: #696969;opacity: 0.5799999833107;isolation: isolate"/>
    <path d="M59.9,50.08c2.58,2.07,3.64,4.59,2.65,7.69a1.26,1.26,0,0,1-1.14-.25c.29-1.77-.57-4.2-1.8-6.83C59.52,50.31,59.63,50.12,59.9,50.08Z" style="fill: #696969"/>
    <path d="M84.34,21.67c24.75,30.5,10.75,62.88-15.25,75.25a8.56,8.56,0,0,0,8.38-1c23.13-12.25,35.13-47.38,9.25-73.25A3.26,3.26,0,0,0,84.34,21.67Z" style="fill: #838484"/>
    <path d="M26.54,22.83c-24,31.09-9.22,63.12,17.07,74.86a8.56,8.56,0,0,1-8.4-.8c-23.41-11.68-36.26-46.5-11.06-73A3.26,3.26,0,0,1,26.54,22.83Z" style="fill: #838484"/>
    <circle cx="55.83" cy="55.79" r="46.76" style="fill: none;stroke: #646565;stroke-miterlimit: 10;stroke-width: 1.5px"/>
  </g>
  <g id="Connectors">
    <rect data-cir-type="male" data-name="circuitoCon NEG" height="2.27" id="circuitoCon_NEG" style="fill: none" width="2.28" x="36.42" y="138.57"/>
    <rect data-cir-type="male" data-name="circuitoCon POS" height="2.23" id="circuitoCon_POS" style="fill: none" width="2.39" x="72.37" y="138.57"/>
  </g>
</svg>