<?xml version="1.0" ?><svg height="94.42mm" viewBox="0 0 64.92 267.65" width="22.9mm" xmlns="http://www.w3.org/2000/svg" xmlns:xlink="http://www.w3.org/1999/xlink">
  <defs>
    <linearGradient gradientUnits="userSpaceOnUse" id="linear-gradient" x1="25.74" x2="31.92" y1="202.6" y2="202.6">
      <stop offset="0"/>
      <stop offset="0.89" stop-color="#222"/>
      <stop offset="1"/>
    </linearGradient>
    <linearGradient id="linear-gradient-2" x1="17.58" x2="47.95" xlink:href="#linear-gradient" y1="126.16" y2="126.16"/>
    <linearGradient id="linear-gradient-3" x1="7.05" x2="58.95" xlink:href="#linear-gradient" y1="62.57" y2="62.57"/>
    <linearGradient id="linear-gradient-4" x1="32.71" x2="32.71" xlink:href="#linear-gradient" y1="9.23" y2="0"/>
    <linearGradient id="linear-gradient-5" x1="26.78" x2="37.77" xlink:href="#linear-gradient" y1="156.32" y2="156.32"/>
    <linearGradient gradientUnits="userSpaceOnUse" id="linear-gradient-6" x1="7.12" x2="58.95" y1="109.52" y2="109.52">
      <stop offset="0" stop-color="#424242"/>
      <stop offset="0.89" stop-color="#d9d9d9"/>
      <stop offset="1" stop-color="#595959"/>
    </linearGradient>
    <linearGradient gradientTransform="matrix(1, 0, 0, -1, -25.85, 223.44)" gradientUnits="userSpaceOnUse" id="linear-gradient-7" x1="64.32" x2="64.32" y1="-27.84" y2="-34.08">
      <stop offset="0" stop-color="#999"/>
      <stop offset="1" stop-color="#f2f2f2"/>
    </linearGradient>
    <linearGradient gradientTransform="matrix(1, 0, 0, -1, -4.17, 223.59)" id="linear-gradient-8" x1="53.48" x2="53.48" xlink:href="#linear-gradient-7" y1="-27.76" y2="-34"/>
    <linearGradient gradientTransform="matrix(1, 0, 0, -1, -47.53, 223.74)" id="linear-gradient-9" x1="75.16" x2="75.16" xlink:href="#linear-gradient-7" y1="-27.69" y2="-33.93"/>
    <linearGradient gradientTransform="matrix(1, 0, 0, -1, -69.21, 223.89)" id="linear-gradient-10" x1="86" x2="86" xlink:href="#linear-gradient-7" y1="-27.61" y2="-33.86"/>
  </defs>
  <title>Positioning IR Camera</title>
  <g data-name="Layer 3" id="Layer_3">
    <polyline points="28.57 177.15 16.8 207.63 16.77 228.2" style="fill: none;stroke: #c60000;stroke-linejoin: round;stroke-width: 2.5511810779571533px"/>
    <polyline points="30.66 177.15 27.04 207.63 27.02 228.2" style="fill: none;stroke-miterlimit: 10;stroke-width: 2.5511810779571533px;stroke: url(#linear-gradient)"/>
    <polyline points="35.98 177.15 48.56 207.63 48.59 228.2" style="fill: none;stroke: #3ab700;stroke-miterlimit: 10;stroke-width: 2.5511810779571533px"/>
    <polyline points="33.88 177.15 38.32 207.63 38.34 228.2" style="fill: none;stroke: #ffec00;stroke-miterlimit: 10;stroke-width: 2.5511810779571533px"/>
    <path d="M46,117.26H19.51a1.93,1.93,0,0,0-1.82,2.58l4.92,13.92a1.94,1.94,0,0,0,1.83,1.29H41.09a1.94,1.94,0,0,0,1.83-1.29l4.92-13.92A1.93,1.93,0,0,0,46,117.26Z" style="fill: url(#linear-gradient-2)"/>
    <path d="M7.13,116.36s24,9.72,51.82,0L58.3,4.62s-51-.33-51.17,0S7.13,116.36,7.13,116.36Z" style="fill: url(#linear-gradient-3)"/>
    <g data-name="Layer 2" id="Layer_2">
      <path d="M7.58,7s20,8.75,50.15,2.43" style="fill: none;stroke: #1c1c1c;stroke-linecap: round;stroke-miterlimit: 10;stroke-width: 1.0846566145416714px"/>
      <path d="M7.58,9.65s20,8.74,50.15,2.43" style="fill: none;stroke: #1c1c1c;stroke-linecap: round;stroke-miterlimit: 10;stroke-width: 1.0846566145416714px"/>
      <path d="M7.58,12.25s20,8.75,50.15,2.43" style="fill: none;stroke: #1c1c1c;stroke-linecap: round;stroke-miterlimit: 10;stroke-width: 1.0846566145416714px"/>
      <path d="M7.58,14.85s20,8.75,50.15,2.43" style="fill: none;stroke: #1c1c1c;stroke-linecap: round;stroke-miterlimit: 10;stroke-width: 1.0846566145416714px"/>
      <path d="M7.58,17.46s20,8.74,50.15,2.43" style="fill: none;stroke: #1c1c1c;stroke-linecap: round;stroke-miterlimit: 10;stroke-width: 1.0846566145416714px"/>
      <path d="M7.58,20.06S27.72,28.81,58,22.49" style="fill: none;stroke: #1c1c1c;stroke-linecap: round;stroke-miterlimit: 10;stroke-width: 1.0879624196289348px"/>
      <path d="M7.58,22.66S27.72,31.41,58,25.09" style="fill: none;stroke: #1c1c1c;stroke-linecap: round;stroke-miterlimit: 10;stroke-width: 1.0879624196289348px"/>
      <path d="M7.58,25.27S27.72,34,58,27.7" style="fill: none;stroke: #1c1c1c;stroke-linecap: round;stroke-miterlimit: 10;stroke-width: 1.0879624196289348px"/>
      <path d="M7.58,27.87S27.72,36.61,58,30.3" style="fill: none;stroke: #1c1c1c;stroke-linecap: round;stroke-miterlimit: 10;stroke-width: 1.0879624196289348px"/>
      <path d="M7.58,64.31S27.72,73.06,58,66.74" style="fill: none;stroke: #1c1c1c;stroke-linecap: round;stroke-miterlimit: 10;stroke-width: 1.0879624196289348px"/>
      <path d="M7.58,66.92S27.72,75.66,58,69.35" style="fill: none;stroke: #1c1c1c;stroke-linecap: round;stroke-miterlimit: 10;stroke-width: 1.0879624196289348px"/>
      <path d="M7.58,69.52S27.72,78.26,58,72" style="fill: none;stroke: #1c1c1c;stroke-linecap: round;stroke-miterlimit: 10;stroke-width: 1.0879624196289348px"/>
      <path d="M7.58,72.12S27.72,80.87,58,74.55" style="fill: none;stroke: #1c1c1c;stroke-linecap: round;stroke-miterlimit: 10;stroke-width: 1.0879624196289348px"/>
      <path d="M7.58,74.73S27.72,83.47,58,77.15" style="fill: none;stroke: #1c1c1c;stroke-linecap: round;stroke-miterlimit: 10;stroke-width: 1.0879624196289348px"/>
      <path d="M7.58,77.33S27.72,86.07,58,79.76" style="fill: none;stroke: #1c1c1c;stroke-linecap: round;stroke-miterlimit: 10;stroke-width: 1.0879624196289348px"/>
      <path d="M7.58,79.93S27.72,88.68,58,82.36" style="fill: none;stroke: #1c1c1c;stroke-linecap: round;stroke-miterlimit: 10;stroke-width: 1.0879624196289348px"/>
      <path d="M7.58,82.53S27.72,91.28,58,85" style="fill: none;stroke: #1c1c1c;stroke-linecap: round;stroke-miterlimit: 10;stroke-width: 1.0879624196289348px"/>
      <path d="M7.58,85.14S27.72,93.88,58,87.57" style="fill: none;stroke: #1c1c1c;stroke-linecap: round;stroke-miterlimit: 10;stroke-width: 1.0879624196289348px"/>
      <path d="M7.58,87.74S27.72,96.49,58,90.17" style="fill: none;stroke: #1c1c1c;stroke-linecap: round;stroke-miterlimit: 10;stroke-width: 1.0879624196289348px"/>
      <path d="M7.58,90.34S27.72,99.09,58,92.77" style="fill: none;stroke: #1c1c1c;stroke-linecap: round;stroke-miterlimit: 10;stroke-width: 1.0879624196289348px"/>
      <path d="M7.58,93S27.72,101.69,58,95.38" style="fill: none;stroke: #1c1c1c;stroke-linecap: round;stroke-miterlimit: 10;stroke-width: 1.0879624196289348px"/>
      <path d="M7.58,95.55S27.72,104.3,58,98" style="fill: none;stroke: #1c1c1c;stroke-linecap: round;stroke-miterlimit: 10;stroke-width: 1.0879624196289348px"/>
      <path d="M7.54,53.9S27.67,62.65,58,56.33" style="fill: none;stroke: #1c1c1c;stroke-linecap: round;stroke-miterlimit: 10;stroke-width: 1.0879624196289348px"/>
      <path d="M7.54,56.5S27.67,65.25,58,58.93" style="fill: none;stroke: #1c1c1c;stroke-linecap: round;stroke-miterlimit: 10;stroke-width: 1.0879624196289348px"/>
      <path d="M7.54,59.11S27.67,67.85,58,61.54" style="fill: none;stroke: #1c1c1c;stroke-linecap: round;stroke-miterlimit: 10;stroke-width: 1.0879624196289348px"/>
      <path d="M7.54,61.71S27.67,70.45,58,64.14" style="fill: none;stroke: #1c1c1c;stroke-linecap: round;stroke-miterlimit: 10;stroke-width: 1.0879624196289348px"/>
      <path d="M7.58,30.47S27.72,39.22,58,32.9" style="fill: none;stroke: #1c1c1c;stroke-linecap: round;stroke-miterlimit: 10;stroke-width: 1.0879624196289348px"/>
      <path d="M7.58,33.08S27.72,41.82,58,35.5" style="fill: none;stroke: #1c1c1c;stroke-linecap: round;stroke-miterlimit: 10;stroke-width: 1.0879624196289348px"/>
      <path d="M7.58,35.68S27.72,44.42,58,38.11" style="fill: none;stroke: #1c1c1c;stroke-linecap: round;stroke-miterlimit: 10;stroke-width: 1.0879624196289348px"/>
      <path d="M7.58,38.28S27.72,47,58,40.71" style="fill: none;stroke: #1c1c1c;stroke-linecap: round;stroke-miterlimit: 10;stroke-width: 1.0879624196289348px"/>
      <path d="M7.58,40.88S27.72,49.63,58,43.31" style="fill: none;stroke: #1c1c1c;stroke-linecap: round;stroke-miterlimit: 10;stroke-width: 1.0879624196289348px"/>
      <path d="M7.58,43.49S27.72,52.23,58,45.92" style="fill: none;stroke: #1c1c1c;stroke-linecap: round;stroke-miterlimit: 10;stroke-width: 1.0879624196289348px"/>
      <path d="M7.58,46.09S27.72,54.84,58,48.52" style="fill: none;stroke: #1c1c1c;stroke-linecap: round;stroke-miterlimit: 10;stroke-width: 1.0879624196289348px"/>
      <path d="M7.58,48.69S27.72,57.44,58,51.12" style="fill: none;stroke: #1c1c1c;stroke-linecap: round;stroke-miterlimit: 10;stroke-width: 1.0879624196289348px"/>
      <path d="M7.58,51.3S27.72,60,58,53.73" style="fill: none;stroke: #1c1c1c;stroke-linecap: round;stroke-miterlimit: 10;stroke-width: 1.0879624196289348px"/>
    </g>
    <ellipse cx="32.71" cy="4.62" rx="25.59" ry="4.62" style="fill: url(#linear-gradient-4)"/>
    <rect height="42.52" style="fill: url(#linear-gradient-5)" width="10.99" x="26.78" y="135.05"/>
    <path d="M7.13,116.36s23.48,9.23,51.82,0l-.06-17.78s-19.87,7.61-51.77,0Z" style="fill: url(#linear-gradient-6)"/>
    <g>
      <path d="M19,109.47c0,.16-.08.24-.26.23s-.24-.1-.23-.26c.09-1.41.13-2.12.22-3.53l1.63.09a.75.75,0,0,1,.74.75l0,.34a.7.7,0,0,1-.81.64l-.45,0c.4.65.6,1,1,1.63a.43.43,0,0,1,.11.26.22.22,0,0,1-.26.21.24.24,0,0,1-.21-.14l-1.25-2h-.11C19,108.39,19,108.75,19,109.47Zm.14-2.29,1.08.06c.14,0,.36,0,.37-.18l0-.33c0-.2-.19-.23-.34-.24l-1.08-.07Z" style="fill: #2d2d2d"/>
      <path d="M22.93,109.93a.49.49,0,0,1-.42-.15l-.19-.18a.59.59,0,0,1-.22-.54l0-.9a.6.6,0,0,1,.25-.54l.18-.14a.62.62,0,0,1,.52-.17l.43,0a.68.68,0,0,1,.52.2l.18.15a.66.66,0,0,1,.22.62l0,.38c0,.26-.05.34-.33.33l-1.52-.07v.16a.19.19,0,0,0,.07.13l.11.14c.06.07.15.09.31.1l1,0c.16,0,.33,0,.32.25s-.2.23-.34.22Zm-.33-1.46,1.37.06v-.28c0-.08,0-.16-.05-.22l-.17-.16a.32.32,0,0,0-.23-.07l-.39,0a.43.43,0,0,0-.25,0l-.16.11a.23.23,0,0,0-.11.21Z" style="fill: #2d2d2d"/>
      <path d="M27,107.47a.65.65,0,0,1,.46.27l.08.08c0-.39,0-.59,0-1,0-.16,0-.32.24-.31s.23.16.22.32c0,1.18-.05,1.77-.08,2.94,0,.16,0,.33-.25.32s-.23-.16-.22-.32v0l-.11.1a.8.8,0,0,1-.46.23l-.46,0a.71.71,0,0,1-.4-.18l-.16-.14a.6.6,0,0,1-.24-.55l0-.94a.59.59,0,0,1,.28-.53l.16-.13a.63.63,0,0,1,.46-.15ZM26.12,109c0,.13,0,.3.06.36l.14.12a.41.41,0,0,0,.18.1h.33a.45.45,0,0,0,.24-.11l.27-.22c.07-.06.15-.12.15-.2l0-.59c0-.09-.07-.15-.14-.21l-.26-.24a.37.37,0,0,0-.22-.12h-.34a.36.36,0,0,0-.18.08l-.14.11c-.08.06-.08.22-.09.35Z" style="fill: #2d2d2d"/>
      <path d="M30.19,107.9c-.11,0-.18,0-.25-.1a.33.33,0,0,1-.05-.22v-.27a.33.33,0,0,1,.05-.22.28.28,0,0,1,.26-.09h.35c.11,0,.19,0,.25.1a.25.25,0,0,1,.05.22v.27a.29.29,0,0,1-.06.22c-.07.09-.15.09-.26.09Zm0,1.65c-.11,0-.19,0-.26-.09a.29.29,0,0,1,0-.22V109a.3.3,0,0,1,.06-.22c.07-.09.15-.08.26-.08h.35c.11,0,.19,0,.25.1a.25.25,0,0,1,0,.22v.27a.28.28,0,0,1-.06.22c-.07.09-.15.09-.26.09Z" style="fill: #2d2d2d"/>
      <path d="M38.13,107.45v-.78c0-.15.06-.24.24-.24s.24.08.24.24v.77a.42.42,0,0,1,0,.19c-.36,1-.54,1.42-.91,2.37,0,.13-.1.22-.25.22s-.2-.09-.25-.21c-.38-1-.57-1.42-.94-2.37a.4.4,0,0,1,0-.19v-.77c0-.15.07-.24.25-.24a.21.21,0,0,1,.24.24v.78c.29.74.43,1.11.73,1.86Z" style="fill: #2d2d2d"/>
      <path d="M41.09,110.17a.73.73,0,0,1-.75-.45c-.18-.36-.28-.53-.46-.89a1,1,0,0,1-.14-.51.92.92,0,0,1,.13-.54c.17-.37.26-.55.43-.91a.72.72,0,0,1,.74-.48l.83,0a.23.23,0,0,1,.25.24.25.25,0,0,1-.24.25h-.81c-.21,0-.25,0-.34.21-.16.35-.24.52-.41.86a.78.78,0,0,0-.09.37.62.62,0,0,0,.11.33l.43.84c.1.2.15.21.37.2H42a.23.23,0,0,1,.25.23.23.23,0,0,1-.24.25Z" style="fill: #2d2d2d"/>
      <path d="M44.65,110.08a.75.75,0,0,1-.76-.44l-.48-.89a1,1,0,0,1-.14-.51.93.93,0,0,1,.12-.54l.42-.92a.75.75,0,0,1,.74-.49l.82,0a.22.22,0,0,1,.26.23.24.24,0,0,1-.24.25l-.81,0c-.21,0-.25,0-.33.22l-.4.85a.73.73,0,0,0-.09.38.68.68,0,0,0,.11.33l.44.83c.11.19.16.21.38.2l.8,0a.24.24,0,0,1,.26.24.25.25,0,0,1-.24.25Z" style="fill: #2d2d2d"/>
      <path d="M18.32,111.73l1.39.09a1,1,0,0,1,1,1.18,1,1,0,0,1-.37.75,1,1,0,0,1,.28.89,1,1,0,0,1-1.13,1l-1.41-.09C18.18,114,18.23,113.24,18.32,111.73Zm.4,1.68.9,0c.36,0,.58-.12.6-.49s-.08-.64-.53-.67l-.9,0C18.76,112.71,18.75,113,18.72,113.41Zm-.1,1.65.9,0c.37,0,.59-.12.61-.49s-.08-.65-.54-.67l-.9-.06C18.66,114.36,18.65,114.59,18.62,115.06Z" style="fill: #2d2d2d"/>
      <path d="M23.23,115.32h.36c.16,0,.33,0,.32.25s-.2.23-.34.22l-1.23,0c-.14,0-.33,0-.32-.25s.18-.23.34-.22l.38,0c.05-1.06.08-1.59.13-2.65l-.38,0c-.14,0-.33,0-.32-.25s.18-.22.34-.22l.5,0c.28,0,.35.06.34.34C23.3,113.64,23.28,114.2,23.23,115.32Z" style="fill: #2d2d2d"/>
      <path d="M26.28,113.75c-.14,0-.33,0-.32-.25s.18-.22.34-.22l.66,0a.77.77,0,0,1,.61.23.68.68,0,0,1,.2.56v1.59a.23.23,0,0,1-.23.27.25.25,0,0,1-.24-.25l-.34.16a.51.51,0,0,1-.3.06l-.46,0a.71.71,0,0,1-.54-.18.66.66,0,0,1-.24-.58v-.21a.6.6,0,0,1,.26-.51.8.8,0,0,1,.56-.16l1,0v-.11c0-.35-.07-.41-.41-.42Zm0,1c-.13,0-.32,0-.32.19v.32c0,.15.18.19.3.2h.53l.54-.25v-.1c0-.26-.07-.34-.33-.35Z" style="fill: #2d2d2d"/>
      <path d="M29.06,114.45a.67.67,0,0,1,.3-.61l.36-.28a.79.79,0,0,1,.63-.17h.76c.16,0,.33,0,.32.24s-.19.23-.33.23l-.85,0A.49.49,0,0,0,30,114l-.29.23c-.08.06-.13.1-.13.19l0,.58a.24.24,0,0,0,.13.21l.28.24a.46.46,0,0,0,.28.12l.85,0c.14,0,.33,0,.33.24s-.18.23-.34.22H30.3a.77.77,0,0,1-.63-.2l-.35-.29a.65.65,0,0,1-.27-.62Z" style="fill: #2d2d2d"/>
      <path d="M34.26,113.63c.09-.08.21-.19.32-.19a.24.24,0,0,1,.24.24c0,.11-.07.16-.16.23l-.94.75c.46.36.68.55,1.14.92.09.07.17.12.17.24a.25.25,0,0,1-.25.24.39.39,0,0,1-.22-.11l-1.21-1-.2.18v.59c0,.16,0,.32-.24.32s-.24-.16-.24-.32l0-3c0-.16,0-.32.24-.32s.24.17.24.33l0,1.73Z" style="fill: #2d2d2d"/>
      <path d="M37.27,113.79a.27.27,0,0,1-.26-.1.3.3,0,0,1,0-.21v-.28a.34.34,0,0,1,0-.22c.07-.09.15-.09.26-.09h.36c.11,0,.19,0,.26.09a.38.38,0,0,1,.06.22v.27a.29.29,0,0,1-.06.22.27.27,0,0,1-.25.09Zm0,1.65c-.11,0-.19,0-.26-.09a.33.33,0,0,1-.05-.22v-.27a.29.29,0,0,1,.06-.22c.07-.09.15-.09.26-.1h.36c.11,0,.19,0,.26.09a.29.29,0,0,1,.06.22v.27a.32.32,0,0,1-.05.22c-.07.1-.15.1-.26.1Z" style="fill: #2d2d2d"/>
      <path d="M44.94,114.67a.22.22,0,0,1-.26-.23.22.22,0,0,1,.24-.25l1,0,0,1a.73.73,0,0,1-.77.79l-.87,0a.79.79,0,0,1-.59-.18.71.71,0,0,1-.25-.59l0-1.22a1,1,0,0,1,.24-.71c.23-.3.35-.45.57-.76a.77.77,0,0,1,.69-.35l.66,0a.23.23,0,0,1,.26.23.23.23,0,0,1-.24.26l-.6,0c-.27,0-.25,0-.41.21l-.52.69a1,1,0,0,0-.14.64l0,.95c0,.27.07.35.36.34l.8,0c.18,0,.33,0,.32-.27l0-.49Z" style="fill: #2d2d2d"/>
      <path d="M48.93,112.21c0-.16.06-.25.24-.26a.22.22,0,0,1,.26.23c.07,1.42.1,2.12.17,3.54l-.66,0c-.58-1.14-.87-1.71-1.44-2.86h0c0,1.07.07,1.6.11,2.67,0,.16-.06.25-.24.26s-.26-.08-.26-.23L47,112.05l.66,0c.57,1.16.86,1.73,1.44,2.89h0C49,113.83,49,113.29,48.93,112.21Z" style="fill: #2d2d2d"/>
      <path d="M51.05,112.33l-.19,0c-.16,0-.31,0-.32-.23s.13-.25.28-.26l.83,0a.75.75,0,0,1,.78.44c.19.34.29.5.49.83a1.21,1.21,0,0,1,.19.56,1.15,1.15,0,0,1-.12.54l-.4.91a.77.77,0,0,1-.77.51l-.83,0a.23.23,0,0,1-.27-.23.22.22,0,0,1,.24-.25l.24,0Zm.65,2.78h.1c.21,0,.26,0,.34-.23.16-.35.23-.53.39-.89a.6.6,0,0,0,.07-.32.92.92,0,0,0-.14-.39l-.47-.8c-.11-.2-.16-.19-.39-.18h-.06C51.61,113.43,51.64,114,51.7,115.11Z" style="fill: #2d2d2d"/>
    </g>
  </g>
  <g data-name="Layer 4" id="Layer_4">
    <path d="M7,17.9,0,21.62v9.55L18,46.24H44.24l20.68-11.5V25.51L58.35,17.9S58.19,26,44.08,28.42s-21.48.65-26.29-.65S8.35,23.73,7,17.9Z" style="fill: #0f0f0f"/>
    <polygon points="18.46 36.68 44.37 36.68 44.7 46.24 18.14 46.24 18.46 36.68" style="fill: #2d2d2d"/>
    <polygon points="64.92 25.51 44.37 36.68 44.69 46.24 64.92 34.74 64.92 25.51" style="fill: #232222"/>
    <polygon points="18.46 36.68 18.14 46.24 0 31.18 0 21.62 18.46 36.68" style="fill: #232222"/>
    <g>
      <rect data-name="&lt;Rectangle&gt;" height="32.4" id="_Rectangle_" style="fill: #333" transform="translate(76.91 488.36) rotate(-180)" width="7.2" x="34.85" y="227.98"/>
      <g data-name="17x1" id="_17x1">
        <g>
          <rect height="7.2" style="fill: #323232" width="7.2" x="34.86" y="260.23"/>
          <g>
            <polygon points="36.09 261.45 36.09 261.45 38.46 263.82 40.83 261.46 40.83 261.45 36.09 261.45" style="fill: #1a1a1a"/>
            <polygon points="36.09 266.19 36.09 266.18 38.47 263.81 40.83 266.18 40.83 266.19 36.09 266.19" style="fill: #4d4d4d"/>
            <polygon points="40.83 261.44 40.83 261.44 38.46 263.82 40.83 266.19 40.83 266.19 40.83 261.44" style="fill: #666"/>
            <polygon points="36.09 261.45 36.09 261.45 38.47 263.83 36.1 266.19 36.09 266.19 36.09 261.45" style="fill: #323232"/>
            <rect height="2.83" style="fill: #1a1a1a" width="2.83" x="37.05" y="262.39"/>
          </g>
        </g>
      </g>
      <g data-name="&lt;Group&gt;" id="_Group_">
        <rect data-name="&lt;Rectangle&gt;" height="6.24" id="_Rectangle_2" style="fill: url(#linear-gradient-7)" transform="translate(76.95 508.79) rotate(-180)" width="2.92" x="37.02" y="251.28"/>
      </g>
    </g>
    <g>
      <rect data-name="&lt;Rectangle&gt;" height="32.4" id="_Rectangle_3" style="fill: #333" transform="translate(98.59 488.5) rotate(-180)" width="7.2" x="45.69" y="228.05"/>
      <g data-name="17x1" id="_17x1-2">
        <g>
          <rect height="7.2" style="fill: #323232" width="7.2" x="45.7" y="260.3"/>
          <g>
            <polygon points="46.93 261.52 46.93 261.53 49.3 263.9 51.67 261.53 51.67 261.52 46.93 261.52" style="fill: #1a1a1a"/>
            <polygon points="46.93 266.26 46.93 266.26 49.31 263.88 51.67 266.25 51.67 266.26 46.93 266.26" style="fill: #4d4d4d"/>
            <polygon points="51.67 261.52 51.67 261.52 49.3 263.89 51.67 266.26 51.67 266.26 51.67 261.52" style="fill: #666"/>
            <polygon points="46.93 261.53 46.94 261.53 49.31 263.9 46.94 266.27 46.93 266.27 46.93 261.53" style="fill: #323232"/>
            <rect height="2.83" style="fill: #1a1a1a" width="2.83" x="47.89" y="262.47"/>
          </g>
        </g>
      </g>
      <g data-name="&lt;Group&gt;" id="_Group_2">
        <rect data-name="&lt;Rectangle&gt;" height="6.24" id="_Rectangle_4" style="fill: url(#linear-gradient-8)" transform="translate(98.63 508.94) rotate(-180)" width="2.92" x="47.86" y="251.35"/>
      </g>
    </g>
    <g>
      <rect data-name="&lt;Rectangle&gt;" height="32.4" id="_Rectangle_5" style="fill: #333" transform="translate(55.23 488.65) rotate(-180)" width="7.2" x="24.01" y="228.13"/>
      <g data-name="17x1" id="_17x1-3">
        <g>
          <rect height="7.2" style="fill: #323232" width="7.2" x="24.02" y="260.37"/>
          <g>
            <polygon points="25.25 261.6 25.25 261.6 27.62 263.97 29.99 261.61 29.99 261.6 25.25 261.6" style="fill: #1a1a1a"/>
            <polygon points="25.25 266.33 25.25 266.33 27.63 263.96 29.99 266.33 29.99 266.33 25.25 266.33" style="fill: #4d4d4d"/>
            <polygon points="29.99 261.59 29.99 261.59 27.62 263.97 29.99 266.33 29.99 266.33 29.99 261.59" style="fill: #666"/>
            <polygon points="25.25 261.6 25.25 261.6 27.63 263.98 25.26 266.34 25.25 266.34 25.25 261.6" style="fill: #323232"/>
            <rect height="2.83" style="fill: #1a1a1a" width="2.83" x="26.21" y="262.54"/>
          </g>
        </g>
      </g>
      <g data-name="&lt;Group&gt;" id="_Group_3">
        <rect data-name="&lt;Rectangle&gt;" height="6.24" id="_Rectangle_6" style="fill: url(#linear-gradient-9)" transform="translate(55.27 509.09) rotate(-180)" width="2.92" x="26.18" y="251.42"/>
      </g>
    </g>
    <g>
      <rect data-name="&lt;Rectangle&gt;" height="32.4" id="_Rectangle_7" style="fill: #333" transform="translate(33.54 488.8) rotate(-180)" width="7.2" x="13.17" y="228.2"/>
      <g data-name="17x1" id="_17x1-4">
        <g>
          <rect height="7.2" style="fill: #323232" width="7.2" x="13.17" y="260.45"/>
          <g>
            <polygon points="14.41 261.67 14.41 261.67 16.78 264.05 19.15 261.68 19.15 261.67 14.41 261.67" style="fill: #1a1a1a"/>
            <polygon points="14.41 266.41 14.41 266.41 16.79 264.03 19.15 266.4 19.15 266.41 14.41 266.41" style="fill: #4d4d4d"/>
            <polygon points="19.15 261.67 19.15 261.67 16.78 264.04 19.15 266.41 19.15 266.41 19.15 261.67" style="fill: #666"/>
            <polygon points="14.41 261.68 14.41 261.68 16.79 264.05 14.42 266.42 14.41 266.42 14.41 261.68" style="fill: #323232"/>
            <rect height="2.83" style="fill: #1a1a1a" width="2.83" x="15.37" y="262.62"/>
          </g>
        </g>
      </g>
      <g data-name="&lt;Group&gt;" id="_Group_4">
        <rect data-name="&lt;Rectangle&gt;" height="6.24" id="_Rectangle_8" style="fill: url(#linear-gradient-10)" transform="translate(33.59 509.24) rotate(-180)" width="2.92" x="15.34" y="251.5"/>
      </g>
    </g>
  </g>
  <g id="Connectors">
    <rect data-cir-type="male" height="2.83" id="circuitoCon_VCC" style="fill: none" width="2.83" x="15.37" y="262.62"/>
    <rect data-cir-type="male" height="2.83" id="circuitoCon_GND" style="fill: none" width="2.83" x="26.22" y="262.62"/>
    <rect data-cir-type="male" height="2.83" id="circuitoCon_SDA" style="fill: none" width="2.83" x="37.05" y="262.39"/>
    <rect data-cir-type="male" height="2.83" id="circuitoCon_SCL" style="fill: none" width="2.83" x="47.85" y="262.39"/>
  </g>
</svg>