<?xml version="1.0" ?><svg height="90.93mm" viewBox="0 0 70.83 257.75" width="24.99mm" xmlns="http://www.w3.org/2000/svg" xmlns:xlink="http://www.w3.org/1999/xlink">
  <defs>
    <linearGradient gradientTransform="translate(-66.15 190.18) rotate(90)" gradientUnits="userSpaceOnUse" id="linear-gradient" x1="-163.77" x2="-163.42" y1="-124.4" y2="-79.46">
      <stop offset="0.01" stop-color="#353233"/>
      <stop offset="0.18" stop-color="#6a6869"/>
      <stop offset="0.27" stop-color="#dcdcde"/>
      <stop offset="0.41" stop-color="#bfbfc0"/>
      <stop offset="0.49" stop-color="#bababb"/>
      <stop offset="0.89" stop-color="#332f30"/>
      <stop offset="0.96"/>
    </linearGradient>
    <linearGradient id="linear-gradient-2" x1="-162.54" x2="-162.18" xlink:href="#linear-gradient" y1="-125.75" y2="-79.28"/>
    <linearGradient id="linear-gradient-3" x1="-162.58" x2="-162.31" xlink:href="#linear-gradient" y1="-115.32" y2="-80.38"/>
    <linearGradient gradientTransform="translate(147.1 179.53)" gradientUnits="userSpaceOnUse" id="linear-gradient-4" x1="-111.95" x2="-111.95" y1="-144.44" y2="-46.31">
      <stop offset="0.01" stop-color="#353233"/>
      <stop offset="0.14" stop-color="#6a6869"/>
      <stop offset="0.24" stop-color="#dcdcde"/>
      <stop offset="0.41" stop-color="#bfbfc0"/>
      <stop offset="0.49" stop-color="#bababb"/>
      <stop offset="0.76" stop-color="#332f30"/>
      <stop offset="0.87"/>
    </linearGradient>
    <linearGradient gradientTransform="translate(-66.15 190.18) rotate(90)" gradientUnits="userSpaceOnUse" id="linear-gradient-5" x1="-94.25" x2="-63.05" y1="-95.53" y2="-110.25">
      <stop offset="0.01" stop-color="#353233"/>
      <stop offset="0.14" stop-color="#dcdcde"/>
      <stop offset="0.64" stop-color="#bababb"/>
      <stop offset="0.92"/>
    </linearGradient>
    <linearGradient gradientTransform="translate(112.78 214.18)" gradientUnits="userSpaceOnUse" id="linear-gradient-6" x1="-77.47" x2="-77.47" y1="-119.38" y2="-80.78">
      <stop offset="0.01" stop-color="#353233"/>
      <stop offset="0.19" stop-color="#dcdcde"/>
      <stop offset="0.57" stop-color="#bababb"/>
      <stop offset="0.62" stop-color="#b6b6b7"/>
      <stop offset="0.67" stop-color="#ababac"/>
      <stop offset="0.72" stop-color="#99999a"/>
      <stop offset="0.77" stop-color="#7f7f80"/>
      <stop offset="0.81" stop-color="#5e5e5e"/>
      <stop offset="0.86" stop-color="#353535"/>
      <stop offset="0.9" stop-color="#050505"/>
      <stop offset="0.91"/>
    </linearGradient>
    <linearGradient gradientTransform="translate(107.64 219.63)" gradientUnits="userSpaceOnUse" id="linear-gradient-7" x1="-72.06" x2="-72.27" y1="-126.56" y2="-78.31">
      <stop offset="0.08" stop-color="#353233"/>
      <stop offset="0.21" stop-color="#dcdcde"/>
      <stop offset="0.23" stop-color="#dbdbdd"/>
      <stop offset="0.48" stop-color="#b1b1b2"/>
      <stop offset="0.64" stop-color="#bababb"/>
      <stop offset="0.79" stop-color="#8d8c8d"/>
      <stop offset="0.92"/>
    </linearGradient>
    <linearGradient gradientTransform="translate(100.48 226.79)" gradientUnits="userSpaceOnUse" id="linear-gradient-8" x1="-65.1" x2="-64.97" y1="-129.56" y2="-73.76">
      <stop offset="0.09" stop-color="#353233"/>
      <stop offset="0.22" stop-color="#dcdcde"/>
      <stop offset="0.62" stop-color="#bababb"/>
      <stop offset="0.66" stop-color="#b4b4b5"/>
      <stop offset="0.7" stop-color="#a5a5a6"/>
      <stop offset="0.75" stop-color="#8b8b8b"/>
      <stop offset="0.81" stop-color="#666667"/>
      <stop offset="0.87" stop-color="#383838"/>
      <stop offset="0.92"/>
    </linearGradient>
    <linearGradient gradientTransform="translate(89.96 237.31)" gradientUnits="userSpaceOnUse" id="linear-gradient-9" x1="-64.27" x2="-41.11" y1="-101.55" y2="-101.82">
      <stop offset="0.01" stop-color="#353233"/>
      <stop offset="0.14" stop-color="#dcdcde"/>
      <stop offset="0.56" stop-color="#bababb"/>
      <stop offset="0.78"/>
    </linearGradient>
    <linearGradient gradientTransform="translate(100.63 226.95)" gradientUnits="userSpaceOnUse" id="linear-gradient-10" x1="-65.01" x2="-65.01" y1="-117.95" y2="-84.57">
      <stop offset="0.01" stop-color="#353233"/>
      <stop offset="0.19" stop-color="#dcdcde"/>
      <stop offset="0.45" stop-color="#bdbdbe"/>
      <stop offset="0.72" stop-color="#bababb"/>
      <stop offset="0.75" stop-color="#b6b6b7"/>
      <stop offset="0.78" stop-color="#ababac"/>
      <stop offset="0.81" stop-color="#99999a"/>
      <stop offset="0.83" stop-color="#7f7f80"/>
      <stop offset="0.86" stop-color="#5e5e5e"/>
      <stop offset="0.88" stop-color="#353535"/>
      <stop offset="0.91" stop-color="#050505"/>
      <stop offset="0.91"/>
    </linearGradient>
    <linearGradient gradientTransform="translate(56.51 270.76)" gradientUnits="userSpaceOnUse" id="linear-gradient-11" x1="-20.49" x2="-22.93" y1="-114.25" y2="-58.22">
      <stop offset="0.01" stop-color="#353233"/>
      <stop offset="0.1" stop-color="#231f20"/>
      <stop offset="0.48" stop-color="#969596"/>
      <stop offset="0.61" stop-color="#908e8f"/>
      <stop offset="0.91"/>
    </linearGradient>
    <linearGradient id="linear-gradient-12" x1="-166.3" x2="-165.98" xlink:href="#linear-gradient" y1="-124.13" y2="-81.83"/>
    <linearGradient gradientTransform="translate(-66.15 190.18) rotate(90)" gradientUnits="userSpaceOnUse" id="linear-gradient-13" x1="-170.74" x2="-162.07" y1="-102.11" y2="-102.29">
      <stop offset="0.01" stop-color="#353233"/>
      <stop offset="0.18" stop-color="#6a6869"/>
      <stop offset="0.37" stop-color="#bfbfc0"/>
      <stop offset="0.64" stop-color="#332f30"/>
      <stop offset="0.81" stop-color="#bababb"/>
      <stop offset="0.96"/>
    </linearGradient>
    <linearGradient gradientTransform="translate(-66.15 190.18) rotate(90)" gradientUnits="userSpaceOnUse" id="linear-gradient-14" x1="-169.15" x2="-168.81" y1="-124.33" y2="-80">
      <stop offset="0.01" stop-color="#353233"/>
      <stop offset="0.18" stop-color="#6a6869"/>
      <stop offset="0.32" stop-color="#dcdcde"/>
      <stop offset="0.41" stop-color="#bfbfc0"/>
      <stop offset="0.48" stop-color="#bcbcbd"/>
      <stop offset="0.49" stop-color="#bababb"/>
      <stop offset="0.52" stop-color="#ababac"/>
      <stop offset="0.64" stop-color="#787677"/>
      <stop offset="0.75" stop-color="#524f50"/>
      <stop offset="0.83" stop-color="#3b3839"/>
      <stop offset="0.89" stop-color="#332f30"/>
      <stop offset="0.96"/>
    </linearGradient>
    <linearGradient id="linear-gradient-15" x1="-175.44" x2="-162.17" xlink:href="#linear-gradient-13" y1="-102.03" y2="-102.31"/>
    <linearGradient gradientTransform="translate(-66.15 190.18) rotate(90)" gradientUnits="userSpaceOnUse" id="linear-gradient-16" x1="-177" x2="-164.23" y1="-102" y2="-102.27">
      <stop offset="0.01" stop-color="#353233"/>
      <stop offset="0.29" stop-color="#6a6869"/>
      <stop offset="0.4" stop-color="#dcdcde"/>
      <stop offset="0.56" stop-color="#bababb"/>
      <stop offset="0.59" stop-color="#bfbfc0"/>
      <stop offset="0.65" stop-color="#bcbcbd"/>
      <stop offset="0.7" stop-color="#b2b2b3"/>
      <stop offset="0.74" stop-color="#a1a1a2"/>
      <stop offset="0.79" stop-color="#8a8889"/>
      <stop offset="0.83" stop-color="#6c696a"/>
      <stop offset="0.87" stop-color="#474445"/>
      <stop offset="0.89" stop-color="#332f30"/>
      <stop offset="0.96"/>
    </linearGradient>
    <linearGradient id="linear-gradient-17" x1="-178.76" x2="-166.05" xlink:href="#linear-gradient-16" y1="-102.09" y2="-102.36"/>
    <linearGradient id="linear-gradient-18" x1="-180.16" x2="-168.03" xlink:href="#linear-gradient-16" y1="-102.06" y2="-102.32"/>
    <linearGradient id="linear-gradient-19" x1="-182.03" x2="-169.73" xlink:href="#linear-gradient-16" y1="-102.04" y2="-102.29"/>
    <linearGradient id="linear-gradient-20" x1="-183.47" x2="-171.94" xlink:href="#linear-gradient-16" y1="-102.01" y2="-102.25"/>
    <linearGradient id="linear-gradient-21" x1="-185.17" x2="-173.11" xlink:href="#linear-gradient-16" y1="-102.04" y2="-102.29"/>
    <linearGradient id="linear-gradient-22" x1="-187.07" x2="-174.63" xlink:href="#linear-gradient-16" y1="-102" y2="-102.26"/>
    <linearGradient id="linear-gradient-23" x1="-188.94" x2="-175.9" xlink:href="#linear-gradient-16" y1="-102.48" y2="-102.75"/>
    <linearGradient id="linear-gradient-24" x1="-189.79" x2="-178.78" xlink:href="#linear-gradient-16" y1="-102.46" y2="-102.69"/>
    <linearGradient id="linear-gradient-25" x1="-191.87" x2="-180.1" xlink:href="#linear-gradient-16" y1="-102.04" y2="-102.28"/>
    <linearGradient id="linear-gradient-26" x1="-192.17" x2="-182.62" xlink:href="#linear-gradient-16" y1="-102.03" y2="-102.23"/>
    <linearGradient id="linear-gradient-27" x1="-191.49" x2="-187.6" xlink:href="#linear-gradient-16" y1="-102.12" y2="-102.2"/>
    <linearGradient gradientTransform="matrix(1, 0, 0, -1, 231.94, 142)" gradientUnits="userSpaceOnUse" id="linear-gradient-28" x1="-189.83" x2="-189.83" y1="-98.37" y2="-105.81">
      <stop offset="0" stop-color="#999"/>
      <stop offset="1" stop-color="#f2f2f2"/>
    </linearGradient>
    <linearGradient gradientTransform="matrix(1, 0, 0, -1, 218.01, 142)" id="linear-gradient-29" x1="-182.86" x2="-182.86" xlink:href="#linear-gradient-28" y1="-98.37" y2="-105.81"/>
    <linearGradient gradientTransform="matrix(1, 0, 0, -1, 204.07, 142)" id="linear-gradient-30" x1="-175.9" x2="-175.9" xlink:href="#linear-gradient-28" y1="-98.37" y2="-105.81"/>
  </defs>
  <title>Gravity Analog Water Pressure Sensor</title>
  <g data-name="Layer 2" id="Layer_2">
    <path d="M51.47,26.08l2.43-1.49-36.39.55,1.86,1.76S41.85,30.83,51.47,26.08Z" style="fill: url(#linear-gradient)"/>
    <path d="M55.12,28.79l-3.65-2.71s-2.85,2-31.49-.94l-2.47,1.22v4.41Z" style="fill: url(#linear-gradient-2)"/>
    <path d="M17.51,28.93V26.36L20,25.14s21.6.67,25.8,0v4.47S18.62,31.91,17.51,28.93Z" style="fill: url(#linear-gradient-3)"/>
    <g>
      <g>
        <rect height="58.1" style="fill: #595b5a" transform="translate(73.28 2.99) rotate(90)" width="20.32" x="24.99" y="9.09"/>
        <polygon points="70.83 31.1 70.83 45.05 64.87 48.3 58.24 48.3 52.82 45.59 52.82 31.1 58.91 27.98 65.96 27.98 70.83 31.1" style="fill: #828282"/>
        <polygon points="18.01 31.1 18.01 45.05 12.05 48.3 5.42 48.3 0 45.59 0 31.1 6.09 27.98 13.14 27.98 18.01 31.1" style="fill: #2a2b2b"/>
        <polygon points="52.82 31.1 52.82 45.59 42.12 47.62 28.85 47.62 18.01 45.05 18.01 31.1 28.98 27.98 42.66 27.98 52.82 31.1" style="fill: #959797"/>
        <rect height="58.1" style="fill: url(#linear-gradient-4)" transform="translate(113.37 43.08) rotate(90)" width="59.86" x="5.21" y="49.18"/>
        <polygon points="64.2 108.16 63.11 110.46 7.86 110.46 6.09 108.16 64.2 108.16" style="fill: url(#linear-gradient-5)"/>
        <rect height="30.68" style="fill: url(#linear-gradient-6)" transform="translate(148.03 77.4) rotate(90)" width="4.5" x="33.06" y="97.38"/>
        <rect height="38.09" style="fill: url(#linear-gradient-7)" transform="translate(153.48 82.54) rotate(90)" width="6.09" x="32.42" y="98.97"/>
        <rect height="44.19" rx="2.95" ry="2.95" style="fill: url(#linear-gradient-8)" transform="translate(160.64 89.71) rotate(90)" width="8.23" x="31.35" y="103.08"/>
        <path d="M29.07,116.64h5.74a7.06,7.06,0,0,1,7.06,7.06v23.72a7.31,7.31,0,0,1-7.31,7.31H29.07a0,0,0,0,1,0,0V116.64A0,0,0,0,1,29.07,116.64Z" style="fill: url(#linear-gradient-9)" transform="translate(171.15 100.22) rotate(90)"/>
        <rect height="58.1" style="fill: #231f20" transform="translate(94.21 23.92) rotate(90)" width="6.91" x="31.69" y="30.01"/>
        <rect height="58.1" style="fill: #231f20" transform="translate(129.96 59.67) rotate(90)" width="11.78" x="29.25" y="65.77"/>
        <rect height="23.3" style="fill: url(#linear-gradient-10)" transform="translate(160.79 89.55) rotate(90)" width="8.23" x="31.51" y="113.53"/>
        <rect height="15.47" style="fill: url(#linear-gradient-11)" transform="translate(204.61 133.67) rotate(90)" width="54.11" x="8.41" y="161.4"/>
      </g>
      <rect height="57.89" style="fill: #fff" transform="translate(110.92 40.52) rotate(90)" width="26.41" x="21.99" y="46.78"/>
    </g>
    <path d="M53.9,24.59a14,14,0,0,0-3-1.62l-31.28.81L20,25.14Z" style="fill: url(#linear-gradient-12)"/>
    <path d="M50.92,23s3.8-1.63,3-1.76S18,23,18,23l1.63.81Z" style="fill: url(#linear-gradient-13)"/>
    <polygon points="53.9 21.21 51.53 19.45 19.64 21.2 18.01 22.97 53.9 21.21" style="fill: url(#linear-gradient-14)"/>
    <path d="M51.53,19.45l2.37-1.83S19.64,19,18,19.45l1.63,1.75Z" style="fill: url(#linear-gradient-15)"/>
    <polygon points="53.9 17.62 51.4 15.99 20.05 17.62 18.01 19.45 53.9 17.62" style="fill: url(#linear-gradient-16)"/>
    <polygon points="51.4 15.99 54.02 14.17 18.01 15.99 20.05 17.62 51.4 15.99" style="fill: url(#linear-gradient-17)"/>
    <polygon points="54.02 14.17 51.53 12.68 19.64 14.17 18.01 15.99 54.02 14.17" style="fill: url(#linear-gradient-18)"/>
    <path d="M51.53,12.68l2.37-1.76S36.5,10.71,18,12.41l1.63,1.76Z" style="fill: url(#linear-gradient-19)"/>
    <polygon points="53.9 10.92 51.2 9.22 20.05 10.91 18.01 12.41 53.9 10.92" style="fill: url(#linear-gradient-20)"/>
    <path d="M51.2,9.22c.4-.2,2.7-1.62,2.7-1.62S19.1,8.82,18,9.22l2,1.69Z" style="fill: url(#linear-gradient-21)"/>
    <path d="M53.9,7.6,51.47,5.84S21.06,7,20,7.6L18,9.22Z" style="fill: url(#linear-gradient-22)"/>
    <path d="M51.47,5.84,53.9,4.08s-31.15.54-35,1.76L20,7.6Z" style="fill: url(#linear-gradient-23)"/>
    <path d="M53.9,4.08,51.06,2.79S20.72,3.67,20,4.08s-1.09,1.76-1.09,1.76Z" style="fill: url(#linear-gradient-24)"/>
    <polygon points="51.06 2.79 53.9 0.83 18.01 2.79 19.98 4.08 51.06 2.79" style="fill: url(#linear-gradient-25)"/>
    <path d="M53.9.83S53.09-.12,52.82,0,19.64.83,19.64.83L18,2.79Z" style="fill: url(#linear-gradient-26)"/>
    <path d="M53.09,0c-1.69.08-34.2,0-34.2,0l.75.83Z" style="fill: url(#linear-gradient-27)"/>
    <g>
      <rect data-name="&lt;Rectangle&gt;" height="37.48" id="_Rectangle_" style="fill: #333" transform="translate(70.29 478.03) rotate(-180)" width="23.47" x="23.41" y="220.28"/>
      <g data-name="&lt;Group&gt;" id="_Group_">
        <rect data-name="&lt;Rectangle&gt;" height="14.88" id="_Rectangle_2" style="fill: #1a1a1a" transform="translate(84.22 495.62) rotate(-180)" width="2.89" x="40.67" y="240.37"/>
        <rect data-name="&lt;Rectangle&gt;" height="7.44" id="_Rectangle_3" style="fill: url(#linear-gradient-28)" transform="translate(84.22 488.18) rotate(-180)" width="2.89" x="40.67" y="240.37"/>
        <rect data-name="&lt;Rectangle&gt;" height="14.88" id="_Rectangle_4" style="fill: #1a1a1a" transform="translate(70.29 495.62) rotate(-180)" width="2.89" x="33.7" y="240.37"/>
        <rect data-name="&lt;Rectangle&gt;" height="7.44" id="_Rectangle_5" style="fill: url(#linear-gradient-29)" transform="translate(70.29 488.18) rotate(-180)" width="2.89" x="33.7" y="240.37"/>
        <rect data-name="&lt;Rectangle&gt;" height="14.88" id="_Rectangle_6" style="fill: #1a1a1a" transform="translate(56.36 495.62) rotate(-180)" width="2.89" x="26.73" y="240.37"/>
        <rect data-name="&lt;Rectangle&gt;" height="7.44" id="_Rectangle_7" style="fill: url(#linear-gradient-30)" transform="translate(56.36 488.18) rotate(-180)" width="2.89" x="26.73" y="240.37"/>
      </g>
    </g>
  </g>
  <g data-name="Layer 5" id="Layer_5">
    <rect data-name="6" height="24.43" id="_6" style="fill: #d35055" width="2.77" x="34.04" y="196.19"/>
    <rect data-name="5" height="24.43" id="_5" style="fill: #ffe700" width="2.77" x="38.31" y="196.19"/>
    <rect data-name="1" height="24.43" id="_1" style="fill: #4b4846" width="2.77" x="29.86" y="196.19"/>
  </g>
  <g id="Connectors">
    <rect data-cir-type="male" height="2.89" id="circuitoCon_GND" style="fill: none" transform="translate(-228.13 284.49) rotate(-90)" width="2.89" x="26.73" y="254.86"/>
    <rect data-cir-type="male" height="2.89" id="circuitoCon_5V" style="fill: none" transform="translate(-221.16 291.45) rotate(-90)" width="2.89" x="33.7" y="254.86"/>
    <rect data-cir-type="male" height="2.89" id="circuitoCon_SIG" style="fill: none" transform="translate(-214.2 298.42) rotate(-90)" width="2.89" x="40.67" y="254.86"/>
  </g>
  <g id="text">
    <g>
      <path d="M62.49,95.19V93.07l-.1-.31h-.14l-.1.32v3.76a.56.56,0,0,1,0,.23.13.13,0,0,1-.24,0,.51.51,0,0,1,0-.22V93a.63.63,0,0,1,0-.2l.16-.49c0-.11.08-.16.14-.16h.32c.1,0,.17.08.19.26,0-.18.1-.26.19-.26h.3q.12,0,.18.18l.14.45a.69.69,0,0,1,0,.22v3.86a.43.43,0,0,1,0,.23.14.14,0,0,1-.12.09s-.08,0-.11-.09a.43.43,0,0,1,0-.23V93.07l-.1-.31h-.14l-.11.32v2.11a.52.52,0,0,1,0,.23.13.13,0,0,1-.24,0A.52.52,0,0,1,62.49,95.19Z" style="fill: #fff"/>
      <path d="M60.53,94.42h-.66a.41.41,0,0,1-.16,0v.45a.56.56,0,0,0,0,.23q.06.09.12.09h.64a.14.14,0,0,1,.12.09.43.43,0,0,1,0,.23.4.4,0,0,1,0,.22.14.14,0,0,1-.12.09h-.64c-.14,0-.25-.09-.35-.27a1.55,1.55,0,0,1-.16-.68l0-2.38a.52.52,0,0,1,.05-.23.12.12,0,0,1,.24,0,.52.52,0,0,1,.05.23l.29-.32h.57c.14,0,.26.09.36.28a1.42,1.42,0,0,1,.15.68v.37a1.42,1.42,0,0,1-.15.68C60.79,94.33,60.67,94.42,60.53,94.42Zm-.85-1.23v.26a.71.71,0,0,0,.05.23q.06.09.12.09h.67s.08,0,.12-.09a.52.52,0,0,0,.05-.23V93.1a.56.56,0,0,0-.05-.23q-.06-.09-.12-.09h-.48Z" style="fill: #fff"/>
      <path d="M57.36,92.13h.34c.14,0,.26.09.36.28a1.41,1.41,0,0,1,.15.67v2.07h.17a.14.14,0,0,1,.12.09.39.39,0,0,1,0,.23.4.4,0,0,1,0,.22.14.14,0,0,1-.12.09h-.17v.78a.52.52,0,0,1-.05.23.14.14,0,0,1-.12.09s-.08,0-.12-.09a.52.52,0,0,1-.05-.23v-.78h-.68s-.08,0-.12-.09a.51.51,0,0,1,0-.22.52.52,0,0,1,0-.23q.06-.09.12-.09h.68V93.08a.4.4,0,0,0,0-.22c0-.06-.07-.1-.12-.1h-.33c-.09,0-.15.1-.18.28s-.08.27-.17.27a.14.14,0,0,1-.12-.09.52.52,0,0,1,0-.23,1.25,1.25,0,0,1,.15-.58A.41.41,0,0,1,57.36,92.13Z" style="fill: #fff"/>
      <path d="M54.37,94.59v-.77a.56.56,0,0,1,.05-.23.14.14,0,0,1,.12-.09h1.19v-.19a.4.4,0,0,0-.08-.27l-.09-.16c-.06-.08-.11-.12-.16-.12h-.86a.14.14,0,0,1-.12-.09.51.51,0,0,1-.05-.22.56.56,0,0,1,.05-.23c0-.06.07-.09.12-.09h.89a.27.27,0,0,1,.18.07.51.51,0,0,1,.15.14l.15.25a1.12,1.12,0,0,1,.11.3,1.55,1.55,0,0,1,0,.35V94.7A1.76,1.76,0,0,1,56,95a1.07,1.07,0,0,1-.13.33l-.14.21a.39.39,0,0,1-.31.21H55c-.12,0-.23-.09-.34-.28l-.12-.22A1.32,1.32,0,0,1,54.37,94.59Zm1.35,0v-.5h-1v.45a.49.49,0,0,0,.06.27l.1.16c0,.08.1.12.14.12h.42a.17.17,0,0,0,.14-.1l.1-.16A.43.43,0,0,0,55.72,94.64Z" style="fill: #fff"/>
      <path d="M53.59,92.45v3a.51.51,0,0,1-.05.22c0,.07-.08.1-.12.1a.14.14,0,0,1-.12-.09.43.43,0,0,1,0-.23v-.4l-.28.44q-.16.27-.33.27h-.25c-.14,0-.26-.09-.35-.28a1.38,1.38,0,0,1-.15-.67v-.17a.41.41,0,0,1,0-.23c0-.07.07-.1.12-.1s.08,0,.12.1a.48.48,0,0,1,0,.22v.18a.56.56,0,0,0,.05.23q.06.09.12.09h.22s.1-.05.16-.14l.48-.79V92.45a.41.41,0,0,1,0-.23.14.14,0,0,1,.12-.09s.08,0,.12.09A.52.52,0,0,1,53.59,92.45Z" style="fill: #fff"/>
      <path d="M48.62,92.45v4.71H47.43c-.14,0-.26-.09-.36-.28a1.45,1.45,0,0,1-.15-.68V95a1.42,1.42,0,0,1,.15-.68c.1-.18.22-.28.36-.28h.85v-1.6a.52.52,0,0,1,0-.23.12.12,0,0,1,.24,0A.41.41,0,0,1,48.62,92.45Zm-.34,2.24h-.85a.14.14,0,0,0-.12.09.52.52,0,0,0-.05.23V96.2a.56.56,0,0,0,.05.23.14.14,0,0,0,.12.09h.85Z" style="fill: #fff"/>
      <path d="M46.14,92.45v3a.4.4,0,0,1,0,.22c0,.07-.07.1-.12.1s-.08,0-.12-.09a.56.56,0,0,1-.05-.23v-.4l-.27.44c-.11.18-.23.27-.33.27H45c-.14,0-.26-.09-.36-.28a1.38,1.38,0,0,1-.15-.67v-.17a.52.52,0,0,1,.05-.23c0-.07.08-.1.12-.1s.09,0,.12.1a.48.48,0,0,1,.05.22v.18a.56.56,0,0,0,0,.23.14.14,0,0,0,.12.09h.22s.1-.05.15-.14l.48-.79V92.45a.52.52,0,0,1,.05-.23q.06-.09.12-.09a.14.14,0,0,1,.12.09A.41.41,0,0,1,46.14,92.45Z" style="fill: #fff"/>
      <path d="M42,94.59v-.77a.56.56,0,0,1,0-.23q.06-.09.12-.09h1.19v-.19a.45.45,0,0,0-.07-.27l-.1-.16q-.07-.12-.15-.12h-.87s-.08,0-.12-.09a.51.51,0,0,1,0-.22.56.56,0,0,1,0-.23q.06-.09.12-.09H43a.32.32,0,0,1,.19.07.47.47,0,0,1,.14.14l.15.25a.85.85,0,0,1,.12.3,1.5,1.5,0,0,1,0,.35V94.7a1.19,1.19,0,0,1,0,.33.73.73,0,0,1-.13.33l-.14.21a.37.37,0,0,1-.3.21h-.48c-.12,0-.23-.09-.34-.28l-.12-.22A1.42,1.42,0,0,1,42,94.59Zm1.36,0v-.5h-1v.45a.5.5,0,0,0,.05.27l.1.16c0,.08.1.12.14.12H43a.17.17,0,0,0,.14-.1l.1-.16A.36.36,0,0,0,43.32,94.64Z" style="fill: #fff"/>
      <path d="M40.71,95.78h-.78a.36.36,0,0,1-.31-.2.64.64,0,0,1-.14-.39.39.39,0,0,1,.05-.23c0-.06.07-.09.11-.09s.1,0,.15.14.09.14.14.14h.76c.07,0,.11-.06.11-.18a.25.25,0,0,0-.07-.19l-.9-.75a.78.78,0,0,1-.22-.37,1.6,1.6,0,0,1-.09-.56,1.47,1.47,0,0,1,.15-.69c.11-.19.22-.28.35-.28h.68a.4.4,0,0,1,.33.2.64.64,0,0,1,.15.39.4.4,0,0,1,0,.22c0,.06-.07.1-.12.1s-.09-.05-.14-.14a.24.24,0,0,0-.21-.14H40c-.05,0-.09,0-.13.11a.66.66,0,0,0,0,.25.37.37,0,0,0,.12.31l.9.77a.61.61,0,0,1,.2.32,1.23,1.23,0,0,1,.07.42,1.32,1.32,0,0,1-.12.59C40.93,95.7,40.83,95.78,40.71,95.78Z" style="fill: #fff"/>
      <path d="M38.22,95.78h-.77a.39.39,0,0,1-.32-.2.7.7,0,0,1-.13-.39.39.39,0,0,1,0-.23c0-.06.07-.09.11-.09s.1,0,.15.14.09.14.14.14h.76c.07,0,.11-.06.11-.18a.22.22,0,0,0-.08-.19L37.35,94a.78.78,0,0,1-.22-.37A1.6,1.6,0,0,1,37,93.1a1.47,1.47,0,0,1,.15-.69c.1-.19.22-.28.35-.28h.68a.4.4,0,0,1,.33.2.64.64,0,0,1,.15.39.51.51,0,0,1-.05.22.15.15,0,0,1-.13.1s-.08-.05-.13-.14a.24.24,0,0,0-.22-.14h-.62s-.09,0-.13.11a.66.66,0,0,0-.05.25.4.4,0,0,0,.11.31l.91.77a.68.68,0,0,1,.2.32,1.23,1.23,0,0,1,.07.42,1.32,1.32,0,0,1-.12.59C38.45,95.7,38.35,95.78,38.22,95.78Z" style="fill: #fff"/>
      <path d="M35.41,92.77l-.56.68v2a.51.51,0,0,1-.05.22c0,.07-.07.1-.12.1s-.09,0-.12-.1a.51.51,0,0,1-.05-.22v-3a.56.56,0,0,1,.05-.23.14.14,0,0,1,.12-.09s.08,0,.12.09a.56.56,0,0,1,.05.23v.25l.29-.36a.46.46,0,0,1,.35-.21h.15a.43.43,0,0,1,.36.27,1.47,1.47,0,0,1,.16.67l.05,2.4a.54.54,0,0,1-.05.22.13.13,0,0,1-.24,0,.51.51,0,0,1-.05-.22l0-2.36c0-.22-.07-.34-.2-.34Z" style="fill: #fff"/>
      <path d="M33.73,92.45v3a.4.4,0,0,1,0,.22c0,.07-.07.1-.12.1s-.08,0-.11-.09a.43.43,0,0,1-.05-.23v-.4l-.28.44q-.16.27-.33.27h-.25c-.14,0-.26-.09-.35-.28a1.38,1.38,0,0,1-.15-.67v-.17a.41.41,0,0,1,.05-.23c0-.07.07-.1.12-.1s.08,0,.11.1a.38.38,0,0,1,0,.22v.18a.56.56,0,0,0,.05.23q.06.09.12.09h.22c.05,0,.1-.05.16-.14l.48-.79V92.45a.41.41,0,0,1,.05-.23c0-.06.07-.09.11-.09a.14.14,0,0,1,.12.09A.41.41,0,0,1,33.73,92.45Z" style="fill: #fff"/>
      <path d="M29.55,94.59v-.77a.44.44,0,0,1,.06-.23c0-.06.07-.09.11-.09h1.2v-.19a.46.46,0,0,0-.08-.27l-.1-.16q-.07-.12-.15-.12h-.87s-.08,0-.11-.09a.4.4,0,0,1-.06-.22.44.44,0,0,1,.06-.23c0-.06.07-.09.11-.09h.89a.32.32,0,0,1,.19.07.47.47,0,0,1,.14.14l.15.25a.85.85,0,0,1,.12.3,1.55,1.55,0,0,1,.05.35V94.7a1.76,1.76,0,0,1-.05.33,1.07,1.07,0,0,1-.13.33l-.14.21a.4.4,0,0,1-.31.21h-.48c-.11,0-.23-.09-.33-.28l-.13-.22A1.42,1.42,0,0,1,29.55,94.59Zm1.36,0v-.5h-1v.45a.49.49,0,0,0,.06.27l.1.16c.05.08.09.12.13.12h.42c.06,0,.1,0,.15-.1l.1-.16A.43.43,0,0,0,30.91,94.64Z" style="fill: #fff"/>
      <path d="M25.91,97.16H25c-.11,0-.21-.08-.3-.25a1.21,1.21,0,0,1-.15-.62.52.52,0,0,1,.05-.23c0-.07.08-.1.12-.1a.12.12,0,0,1,.12.08,1.41,1.41,0,0,1,.06.27c0,.13.06.2.13.2h.83s.06,0,.06-.07a.23.23,0,0,0,0-.11l-1.26-3a1.19,1.19,0,0,1-.09-.47,1.15,1.15,0,0,1,.11-.5c.08-.14.16-.21.25-.21h.91c.12,0,.22.08.31.26a1.2,1.2,0,0,1,.13.57c0,.23-.06.35-.17.35a.14.14,0,0,1-.12-.09A.48.48,0,0,1,26,93a.47.47,0,0,0,0-.17s-.06-.07-.1-.07H25s-.05,0-.05.09a.51.51,0,0,0,0,.09l1.26,3a1.45,1.45,0,0,1,.08.47,1.08,1.08,0,0,1-.11.52Q26.08,97.16,25.91,97.16Z" style="fill: #fff"/>
      <path d="M22.11,94.59v-.77a.56.56,0,0,1,.05-.23c0-.06.07-.09.12-.09h1.19v-.19A.45.45,0,0,0,23.4,93l-.1-.16c-.05-.08-.11-.12-.15-.12h-.87c-.05,0-.08,0-.12-.09a.51.51,0,0,1-.05-.22.56.56,0,0,1,.05-.23q.06-.09.12-.09h.89a.27.27,0,0,1,.18.07.41.41,0,0,1,.15.14l.15.25a1.09,1.09,0,0,1,.12.3,1.5,1.5,0,0,1,0,.35V94.7a1.19,1.19,0,0,1,0,.33.87.87,0,0,1-.13.33l-.14.21a.37.37,0,0,1-.31.21h-.47c-.12,0-.23-.09-.34-.28l-.12-.22A1.42,1.42,0,0,1,22.11,94.59Zm1.36,0v-.5h-1v.45a.49.49,0,0,0,.06.27l.1.16c0,.08.1.12.14.12h.42a.17.17,0,0,0,.14-.1l.1-.16A.36.36,0,0,0,23.47,94.64Z" style="fill: #fff"/>
      <path d="M20.53,95.05l.46-.57v-2a.56.56,0,0,1,.05-.23.14.14,0,0,1,.12-.09s.08,0,.12.09a.56.56,0,0,1,0,.23v3a.51.51,0,0,1,0,.22c0,.07-.07.1-.12.1s-.09,0-.12-.1a.51.51,0,0,1-.05-.22v-.22l-.31.36a.45.45,0,0,1-.35.18h-.15c-.14,0-.25-.09-.35-.27a1.46,1.46,0,0,1-.16-.66l0-2.41a.43.43,0,0,1,.05-.23.14.14,0,0,1,.12-.09.14.14,0,0,1,.11.08.43.43,0,0,1,.05.24L20,94.82q0,.33.18.33h.17A.22.22,0,0,0,20.53,95.05Z" style="fill: #fff"/>
      <path d="M18.37,95.78H17.6a.39.39,0,0,1-.32-.2.72.72,0,0,1-.14-.39A.39.39,0,0,1,17.2,95c0-.06.07-.09.11-.09s.1,0,.15.14.09.14.13.14h.77c.07,0,.11-.06.11-.18a.26.26,0,0,0-.08-.19L17.5,94a.87.87,0,0,1-.23-.37,1.89,1.89,0,0,1-.08-.56,1.47,1.47,0,0,1,.15-.69c.1-.19.22-.28.35-.28h.68a.4.4,0,0,1,.33.2.64.64,0,0,1,.15.39.51.51,0,0,1-.05.22.16.16,0,0,1-.13.1s-.09-.05-.13-.14a.24.24,0,0,0-.22-.14H17.7c-.05,0-.09,0-.13.11a.66.66,0,0,0-.05.25.4.4,0,0,0,.11.31l.91.77a.68.68,0,0,1,.2.32,1.23,1.23,0,0,1,.07.42,1.2,1.2,0,0,1-.13.59C18.6,95.7,18.5,95.78,18.37,95.78Z" style="fill: #fff"/>
      <path d="M14.67,94.64V93.29a1.56,1.56,0,0,1,.21-.79c.14-.24.29-.36.44-.36h.4c.15,0,.3.12.44.36a1.58,1.58,0,0,1,.21.79v1.35a1.55,1.55,0,0,1-.21.78c-.13.25-.28.37-.44.37h-.4c-.15,0-.3-.11-.44-.35A1.59,1.59,0,0,1,14.67,94.64Zm1.36,0V93.32A.55.55,0,0,0,16,93l-.13-.2a.11.11,0,0,0-.11-.07h-.39a.19.19,0,0,0-.16.12l-.1.17a.44.44,0,0,0-.07.25V94.6a.5.5,0,0,0,.07.28l.11.18a.18.18,0,0,0,.15.09h.34a.19.19,0,0,0,.18-.1l.11-.18A.42.42,0,0,0,16,94.61Z" style="fill: #fff"/>
      <path d="M13.88,92.45v3a.4.4,0,0,1-.05.22c0,.07-.07.1-.12.1s-.08,0-.12-.09a.56.56,0,0,1,0-.23v-.4l-.28.44q-.16.27-.33.27h-.25c-.14,0-.26-.09-.36-.28a1.51,1.51,0,0,1-.14-.67v-.17a.53.53,0,0,1,0-.23c0-.07.08-.1.12-.1s.09,0,.12.1a.38.38,0,0,1,0,.22v.18a.56.56,0,0,0,.05.23.14.14,0,0,0,.12.09h.22c.05,0,.1-.05.16-.14l.48-.79V92.45a.41.41,0,0,1,0-.23c0-.06.07-.09.11-.09a.14.14,0,0,1,.12.09A.41.41,0,0,1,13.88,92.45Z" style="fill: #fff"/>
    </g>
  </g>
</svg>