<?xml version="1.0" ?><svg height="53.76mm" viewBox="0 0 52.59 152.4" width="18.55mm" xmlns="http://www.w3.org/2000/svg" xmlns:xlink="http://www.w3.org/1999/xlink">
  <defs>
    <linearGradient data-name="Silver 01" gradientUnits="userSpaceOnUse" id="Silver_01" x1="1.57" x2="50.97" y1="31.42" y2="31.42">
      <stop offset="0" stop-color="#cbd1d6"/>
      <stop offset="0.2" stop-color="#bac0c5"/>
      <stop offset="0.43" stop-color="#aab1b5"/>
      <stop offset="0.52" stop-color="#b7bec2"/>
      <stop offset="0.84" stop-color="#e3eaed"/>
      <stop offset="1" stop-color="#f4fbfe"/>
    </linearGradient>
    <linearGradient id="Silver_01-2" x1="2.75" x2="49.09" xlink:href="#Silver_01" y1="31.99" y2="31.99"/>
  </defs>
  <title>Ethernet LAN Network Module - ENC28J60</title>
  <g data-name="Layer 5" id="Layer_5">
    <path d="M3.82,15V155.31H56.17V15ZM51.21,78.36A1.17,1.17,0,1,1,50,77.19,1.17,1.17,0,0,1,51.21,78.36Zm-1.87,38.87a.46.46,0,1,1-.46-.46A.46.46,0,0,1,49.35,117.23Zm-.23-46.3a1.17,1.17,0,1,1-1.17,1.17A1.17,1.17,0,0,1,49.11,70.93ZM30.05,67.69a1.17,1.17,0,1,1-1.17,1.17A1.17,1.17,0,0,1,30.05,67.69Zm-.41,13.93a1.17,1.17,0,1,1-1.17,1.17A1.17,1.17,0,0,1,29.64,81.62Zm-3.59,0a1.17,1.17,0,1,1-1.17,1.17A1.17,1.17,0,0,1,26.05,81.62ZM19.22,71.23a1.17,1.17,0,1,1-1.17,1.17A1.17,1.17,0,0,1,19.22,71.23Zm-.31,5.92a1.17,1.17,0,1,1-1.17,1.17A1.17,1.17,0,0,1,18.91,77.15ZM5.51,82.33h.92a7.58,7.58,0,0,0,3.15,2.8h5.32l1.31,1.31h3.46v3.9h-.46v3.06l.88,2-1.72.16v1.63H16.24L5.54,89.31V86.6a.22.22,0,0,1,0-.17Zm-.51,59a1.17,1.17,0,1,1,1.17,1.17A1.17,1.17,0,0,1,5,141.33Zm18.2-16.94L9.66,137.92v9.77a3.38,3.38,0,0,0,1.2,2.34v4.75H5.37V143.59a2.58,2.58,0,0,0,2.06-.53,2.55,2.55,0,0,0,.88-1.73,2.45,2.45,0,0,0-.48-1.62,2.65,2.65,0,0,0-2.25-.92v-20a6.93,6.93,0,0,0,8.13.23,6.84,6.84,0,0,0,2.53-5v-7l2.6-2.78v6.56h1.37v.66l-.81.81v5.47a2.27,2.27,0,0,0-.86,2.21A2.4,2.4,0,0,0,20,121.65a1.91,1.91,0,0,0,2.4-2.56v-1l.38-.38v-.52l.46-.31Zm-2.78-5.12a.46.46,0,1,1-.46.46A.46.46,0,0,1,20.41,119.27Zm15.69-32-1-.75-13.67,0-1.14-1.14H16.65l-1.27-1.27h-6l-3-3a1,1,0,0,1,0-1.08,1,1,0,0,1,1.47.07v.41l2,2h6L17.41,84h3.26l1.07,1.07H35.31l1.1.9,2.18.16,1,.72a1.13,1.13,0,0,1,2,0h.11a1.15,1.15,0,0,1,2.2,0l1.48,0,.85,1h-.45l-2.08,0a1.13,1.13,0,0,1-1.79,0H41.6a1.15,1.15,0,0,1-2.06,0H39.1l-.89-.64Zm18.88,67H47.74v-7.53l-.87,1.09-6.71-4.65-1.38-1.82v-2.17l1.1-1.09v-20.3h2.53a1.14,1.14,0,0,1,1.56,0h.39v4.63l3,3.15a2.31,2.31,0,0,0,.92,1.8,2.22,2.22,0,1,0,1.2-4.06l-1.91-1.81,0-2.52,2,.44a.12.12,0,0,1,.08-.05q.23,0,.59,1.23v1.91l5,.11.28,31.28Zm-6.82-28.63a1.17,1.17,0,1,1,1.17,1.17A1.17,1.17,0,0,1,48.18,125.67Zm7.69-34.93H54.21V92H53V90.71H51.2V81.5h4.65Z" style="fill: #1a2c80" transform="translate(-3.82 -2.92)"/>
  </g>
  <g data-name="Layer 8" id="Layer_8">
    <path d="M18.91,79.49a1.17,1.17,0,1,0-1.17-1.17A1.17,1.17,0,0,0,18.91,79.49Zm0-1.63a.46.46,0,1,1-.46.46A.46.46,0,0,1,18.91,77.86Z" style="fill: #0b5597" transform="translate(-3.82 -2.92)"/>
    <path d="M19.22,73.57a1.17,1.17,0,1,0-1.17-1.17A1.17,1.17,0,0,0,19.22,73.57Zm0-1.63a.46.46,0,1,1-.46.46A.46.46,0,0,1,19.22,71.94Z" style="fill: #0b5597" transform="translate(-3.82 -2.92)"/>
    <path d="M30.05,70a1.17,1.17,0,1,0-1.17-1.17A1.17,1.17,0,0,0,30.05,70Zm0-1.45a.46.46,0,1,1-.46.46A.46.46,0,0,1,30.05,68.58Z" style="fill: #0b5597" transform="translate(-3.82 -2.92)"/>
    <path d="M48.87,78.36A1.17,1.17,0,1,0,50,77.19,1.17,1.17,0,0,0,48.87,78.36Zm1.51,0a.46.46,0,1,1-.46-.46A.46.46,0,0,1,50.38,78.32Z" style="fill: #0b5597" transform="translate(-3.82 -2.92)"/>
    <path d="M42.69,86.79a.45.45,0,0,1,.31.13h.87a1.15,1.15,0,0,0-2.2,0h.73A.45.45,0,0,1,42.69,86.79Z" style="fill: #0b5597" transform="translate(-3.82 -2.92)"/>
    <path d="M41.55,86.89a1.13,1.13,0,0,0-2,0h0Z" style="fill: #0b5597" transform="translate(-3.82 -2.92)"/>
    <path d="M49.11,73.27a1.17,1.17,0,1,0-1.17-1.17A1.17,1.17,0,0,0,49.11,73.27Zm-.24-1.63a.46.46,0,1,1-.46.46A.46.46,0,0,1,48.87,71.64Z" style="fill: #0b5597" transform="translate(-3.82 -2.92)"/>
    <path d="M6,86A.46.46,0,1,1,6,87a.45.45,0,0,1-.44-.37v2.71l10.7,7.87h2.14V95.55l1.72-.16-.88-2V90.34h.46v-3.9H16.22l-1.31-1.31H9.58a7.58,7.58,0,0,1-3.15-2.8H5.51l0,4.09A.45.45,0,0,1,6,86Zm12.59,3.28a.46.46,0,1,1-.46.46A.46.46,0,0,1,18.57,89.33Z" style="fill: #0b5597" transform="translate(-3.82 -2.92)"/>
    <path d="M39.54,88a1.05,1.05,0,0,1,.06-1.16l-1-.72L36.4,86l-1.1-.9H21.74L20.67,84H17.41L16,82.54h-6l-2-2v-.41a1,1,0,0,0-1.47-.07,1,1,0,0,0,0,1.08l3,3h6l1.27,1.27h3.68l1.14,1.14,13.67,0,1,.75,2.11.08.89.64Z" style="fill: #0b5597" transform="translate(-3.82 -2.92)"/>
    <path d="M41.73,87.47a1.11,1.11,0,0,1,0,.22,1.16,1.16,0,0,0,.19.29l1.79,0a1.15,1.15,0,0,0,.27-.71,1.13,1.13,0,0,0-.06-.32H43a.46.46,0,1,1-.61,0h-.73a1.17,1.17,0,0,0,0,.13A1.16,1.16,0,0,1,41.73,87.47Z" style="fill: #0b5597" transform="translate(-3.82 -2.92)"/>
    <path d="M39.54,88l2.06,0a1.15,1.15,0,0,0,.09-.29,1.16,1.16,0,0,1-.09-.45,1.11,1.11,0,0,1,0-.22,1.13,1.13,0,0,0-.09-.14l-1.94,0h0A1.05,1.05,0,0,0,39.54,88Zm.93-1a.46.46,0,1,1-.46.46A.46.46,0,0,1,40.47,87Z" style="fill: #0b5597" transform="translate(-3.82 -2.92)"/>
    <path d="M22.73,117.74l-.38.38v1a1.91,1.91,0,0,1-2.4,2.56A2.4,2.4,0,0,1,18.53,120a2.27,2.27,0,0,1,.86-2.21v-5.47l.81-.81v-.66H18.84v-6.56L16.24,107v7a6.84,6.84,0,0,1-2.53,5,6.93,6.93,0,0,1-8.13-.23v20a2.65,2.65,0,0,1,2.25.92,2.45,2.45,0,0,1,.48,1.63,2.55,2.55,0,0,1-.88,1.73,2.58,2.58,0,0,1-2.06.53v11.19h5.5V150a3.38,3.38,0,0,1-1.2-2.34v-9.77L23.2,124.38v-7.48l-.46.31ZM6.18,137.22a.46.46,0,1,1,.46-.46A.46.46,0,0,1,6.18,137.22Zm0-6.37a.46.46,0,1,1,.46-.46A.46.46,0,0,1,6.18,130.86Zm2.59,5.55a.46.46,0,1,1,.46-.46A.46.46,0,0,1,8.77,136.4ZM11,134a.46.46,0,1,1,.46-.46A.46.46,0,0,1,11,134Zm1.36-5.62a.46.46,0,1,1,.46-.46A.46.46,0,0,1,12.32,128.34Zm2.31-6.69a.46.46,0,1,1,.46-.46A.46.46,0,0,1,14.63,121.65ZM17.19,110a.46.46,0,1,1,.46.46A.46.46,0,0,1,17.19,110Zm.73,4.72a.46.46,0,1,1,.46.46A.46.46,0,0,1,17.93,114.73Z" style="fill: #0b5597" transform="translate(-3.82 -2.92)"/>
    <path d="M50.27,122.55v-1.91q-.37-1.26-.59-1.23a.12.12,0,0,0-.08.05l-2-.44,0,2.52,1.91,1.81A2.28,2.28,0,0,1,51.71,125a2.22,2.22,0,0,1-3.37,2.39,2.31,2.31,0,0,1-.92-1.8l-3.25-3.36-4.08,15.69-1.29,1.28v2.17l1.38,1.82,6.71,4.65.87-1.09v7.53H55l.59-.36-.28-31.28Zm-1.39-.4a.46.46,0,1,1,.46-.46A.46.46,0,0,1,48.89,122.15Zm-.46,9.6a.46.46,0,1,1,.46-.46A.46.46,0,0,1,48.43,131.75Zm5.06,19.75a.46.46,0,1,1,.46-.46A.46.46,0,0,1,53.49,151.5Zm.14-5.5a.46.46,0,1,1,.46-.46A.46.46,0,0,1,53.63,146Zm0-5.31a.46.46,0,1,1,.46-.46A.46.46,0,0,1,53.63,140.69Z" style="fill: #0b5597" transform="translate(-3.82 -2.92)"/>
    <path d="M51.2,90.71H53V92h1.22V90.74h1.65V81.5H51.21Zm2.62-1.83a.46.46,0,1,1-.46.46A.46.46,0,0,1,53.82,88.87Z" style="fill: #0b5597" transform="translate(-3.82 -2.92)"/>
    <polyline points="35.79 63.9 37.25 65.94 37.33 80.17 39.04 81.98 42.98 82.08 44.31 82.83 44.19 91.51" style="fill: none;stroke: #0b5597;stroke-miterlimit: 10;stroke-width: 0.7000000000000001px"/>
    <polyline points="49.79 67.48 49.79 66.71 48.56 65.81 39.43 65.81 38.71 66.54 38.71 78.79 40.12 80.21 44.81 80.21 45.75 81.15 45.75 92.86 44.63 93.98" style="fill: none;stroke: #0b5597;stroke-miterlimit: 10;stroke-width: 0.7000000000000001px"/>
    <path d="M44.16,122.25l.21.21v-3.78a1.17,1.17,0,0,1-1.17,1.17,1.15,1.15,0,0,1-.93-.49,1.16,1.16,0,0,1-1.1.8,1.17,1.17,0,1,1,0-2.34H39.89v20.3l.19-.19Z" style="fill: #0b5597" transform="translate(-3.82 -2.92)"/>
    <path d="M40,119a1.17,1.17,0,0,0,1.17,1.17,1.16,1.16,0,0,0,1.1-.8,1,1,0,0,1-.17-1.05,1.15,1.15,0,0,0-.93-.49A1.17,1.17,0,0,0,40,119Zm1.17-.46a.46.46,0,1,1-.46.46A.46.46,0,0,1,41.18,118.54Z" style="fill: #0b5597" transform="translate(-3.82 -2.92)"/>
    <path d="M42.1,118.32a1,1,0,0,1,.17,1.05,1.15,1.15,0,0,0,.93.49,1.17,1.17,0,0,0,1.17-1.17,1.16,1.16,0,0,0-.39-.86H42.42A1.15,1.15,0,0,0,42.1,118.32Zm1.1-.09a.46.46,0,1,1-.46.46A.46.46,0,0,1,43.2,118.23Z" style="fill: #0b5597" transform="translate(-3.82 -2.92)"/>
  </g>
  <g data-name="Layer 7" id="Layer_7">
    <circle cx="14.04" cy="106.92" r="1.17" style="fill: #0b5597"/>
    <circle cx="16.61" cy="116.81" r="0.98" style="fill: none;stroke: #0b5597;stroke-miterlimit: 10"/>
    <circle cx="45.06" cy="114.31" r="0.94" style="fill: none;stroke: #0b5597;stroke-miterlimit: 10"/>
    <circle cx="2.09" cy="83.38" r="1.17" style="fill: #0b5597"/>
    <line style="fill: none;stroke: #0b5597;stroke-miterlimit: 10;stroke-width: 0.5px" x1="32.64" x2="32.64" y1="84.17" y2="86.21"/>
    <line style="fill: none;stroke: #0b5597;stroke-miterlimit: 10;stroke-width: 0.5px" x1="34.54" x2="34.54" y1="84.38" y2="86.42"/>
    <line style="fill: none;stroke: #0b5597;stroke-miterlimit: 10;stroke-width: 0.5px" x1="42.14" x2="42.14" y1="84.92" y2="86.7"/>
    <path d="M35.66,87.74" style="fill: none;stroke: #0b5597;stroke-miterlimit: 10" transform="translate(-3.82 -2.92)"/>
    <line style="fill: none;stroke: #0b5597;stroke-miterlimit: 10;stroke-width: 0.7000000000000001px" x1="12.62" x2="16.87" y1="67.68" y2="64.15"/>
    <line style="fill: none;stroke: #0b5597;stroke-miterlimit: 10;stroke-width: 0.7000000000000001px" x1="4.74" x2="9.17" y1="67.73" y2="63.98"/>
    <polyline points="33.29 67.69 33.29 65.29 32 63.76" style="fill: none;stroke: #0b5597;stroke-miterlimit: 10;stroke-width: 0.7000000000000001px"/>
    <polyline points="42.38 114.17 42.38 119.04 44.8 121.47" style="fill: none;stroke: #0b5597;stroke-miterlimit: 10;stroke-width: 0.7000000000000001px"/>
    <polyline points="34.43 113.84 34.71 134.96 33.56 136 33.56 139.58" style="fill: none;stroke: #0b5597;stroke-miterlimit: 10;stroke-width: 0.7000000000000001px"/>
    <polyline points="32.67 113.65 32.67 133.83 30.26 136.24 30.26 141.95" style="fill: none;stroke: #0b5597;stroke-miterlimit: 10;stroke-width: 0.7000000000000001px"/>
    <polyline points="30.88 114.17 30.88 131.67 26.2 136.34 26.2 139.58" style="fill: none;stroke: #0b5597;stroke-miterlimit: 10;stroke-width: 0.7000000000000001px"/>
    <polyline points="28.69 114.29 28.69 130.13 22.29 136.53 22.29 141.95" style="fill: none;stroke: #0b5597;stroke-miterlimit: 10;stroke-width: 0.7000000000000001px"/>
    <polyline points="27.04 113.85 27.04 127.48 18.89 135.64 18.89 138.71" style="fill: none;stroke: #0b5597;stroke-miterlimit: 10;stroke-width: 0.7000000000000001px"/>
    <polyline points="24.85 113.84 24.85 125.42 14.93 135.34 14.93 140.29" style="fill: none;stroke: #0b5597;stroke-miterlimit: 10;stroke-width: 0.7000000000000001px"/>
    <polyline points="22.93 113.84 22.93 123.21 11.16 134.97 11.16 138.48" style="fill: none;stroke: #0b5597;stroke-miterlimit: 10;stroke-width: 0.7000000000000001px"/>
    <polyline points="21.1 113.85 21.1 121.83 8.65 134.28 8.65 140.29" style="fill: none;stroke: #0b5597;stroke-miterlimit: 10;stroke-width: 0.7000000000000001px"/>
    <line style="fill: none;stroke: #0b5597;stroke-miterlimit: 10;stroke-width: 0.7000000000000001px" x1="17.18" x2="17.18" y1="114.04" y2="116.19"/>
    <polygon points="49.93 64.13 49.93 64.71 50.79 65.57 51.59 65.57 51.59 63.63 49.93 64.13" style="fill: #0b5597"/>
    <polyline points="45.06 95.43 46.23 94.78 46.67 95.67 46.67 100.55 47.92 101.33 47.92 106.92 46.49 107.18 46.49 112.14 44.25 112.14 44.25 109.86 42.81 108.42 42.81 107.74 45.06 95.43" style="fill: #0b5597"/>
    <line style="fill: #0b5597" x1="52.04" x2="51.46" y1="119.36" y2="119.23"/>
    <line style="fill: none;stroke: #0b5597;stroke-miterlimit: 10" x1="49.17" x2="49.17" y1="99.08" y2="108.91"/>
    <polyline points="14.29 91.63 44.79 91.63 44.79 92.57" style="fill: none;stroke: #bcbcbc;stroke-miterlimit: 10;stroke-width: 0.5px"/>
  </g>
  <g data-name="Layer 6" id="Layer_6">
    <polyline points="46.56 73.54 46.56 78.06 52.14 78.06 52.14 73.35" style="fill: none;stroke: #eeeeed;stroke-linecap: round;stroke-miterlimit: 10;stroke-width: 0.5px"/>
    <polyline points="52.34 71.13 52.34 66.13 46.76 66.13 46.76 71.34" style="fill: none;stroke: #eeeeed;stroke-linecap: round;stroke-miterlimit: 10;stroke-width: 0.5px"/>
    <polyline points="39.23 73.54 39.23 78.06 44.81 78.06 44.81 73.35" style="fill: none;stroke: #eeeeed;stroke-linecap: round;stroke-miterlimit: 10;stroke-width: 0.5px"/>
    <polyline points="45.02 71.13 45.02 66.13 39.43 66.13 39.43 71.34" style="fill: none;stroke: #eeeeed;stroke-linecap: round;stroke-miterlimit: 10;stroke-width: 0.5px"/>
    <polyline points="30.3 73.54 30.3 78.06 35.88 78.06 35.88 73.35" style="fill: none;stroke: #eeeeed;stroke-linecap: round;stroke-miterlimit: 10;stroke-width: 0.5px"/>
    <polyline points="36.09 71.13 36.09 66.13 30.5 66.13 30.5 71.34" style="fill: none;stroke: #eeeeed;stroke-linecap: round;stroke-miterlimit: 10;stroke-width: 0.5px"/>
    <polyline points="23.7 73.54 23.7 78.06 29.28 78.06 29.28 73.35" style="fill: none;stroke: #eeeeed;stroke-linecap: round;stroke-miterlimit: 10;stroke-width: 0.5px"/>
    <polyline points="29.49 71.13 29.49 66.13 23.91 66.13 23.91 71.34" style="fill: none;stroke: #eeeeed;stroke-linecap: round;stroke-miterlimit: 10;stroke-width: 0.5px"/>
    <polyline points="15.29 73.54 15.29 78.06 20.88 78.06 20.88 73.35" style="fill: none;stroke: #eeeeed;stroke-linecap: round;stroke-miterlimit: 10;stroke-width: 0.5px"/>
    <polyline points="21.08 71.13 21.08 66.13 15.5 66.13 15.5 71.34" style="fill: none;stroke: #eeeeed;stroke-linecap: round;stroke-miterlimit: 10;stroke-width: 0.5px"/>
    <polyline points="8.29 73.54 8.29 78.06 13.88 78.06 13.88 73.35" style="fill: none;stroke: #eeeeed;stroke-linecap: round;stroke-miterlimit: 10;stroke-width: 0.5px"/>
    <polyline points="14.08 71.13 14.08 66.13 8.5 66.13 8.5 71.34" style="fill: none;stroke: #eeeeed;stroke-linecap: round;stroke-miterlimit: 10;stroke-width: 0.5px"/>
    <polyline points="0.43 73.54 0.43 78.06 6.01 78.06 6.01 73.35" style="fill: none;stroke: #eeeeed;stroke-linecap: round;stroke-miterlimit: 10;stroke-width: 0.5px"/>
    <polyline points="6.22 71.13 6.22 66.13 0.63 66.13 0.63 71.34" style="fill: none;stroke: #eeeeed;stroke-linecap: round;stroke-miterlimit: 10;stroke-width: 0.5px"/>
  </g>
  <g data-name="Layer 4" id="Layer_4">
    <rect height="62.83" style="fill: url(#Silver_01)" width="49.41" x="1.57"/>
    <rect height="4.07" style="fill: #b9a381" width="4.13" x="47.1" y="88.93"/>
    <rect height="4.07" style="fill: #b9a381" width="4.13" x="47.1" y="95.67"/>
    <rect height="4.77" style="fill: #e6e8e1" width="3.96" x="47.17" y="92.4"/>
    <circle cx="15.09" cy="75.4" r="1.17" style="fill: none"/>
    <path d="M5.53,86.6v2.71l10.7,7.87h2.14V95.55l1.72-.16-.88-2V90.34h.46v-3.9H16.22l-1.31-1.31H9.58a7.58,7.58,0,0,1-3.15-2.8H5.51l0,4.09a.22.22,0,0,0,0,.17Z" style="fill: none" transform="translate(-3.82 -2.92)"/>
    <path d="M39.54,88a1.15,1.15,0,0,0,2.06,0h.28a1.13,1.13,0,0,0,1.79,0l2.08,0h.45l-.85-1-1.48,0a1.15,1.15,0,0,0-2.2,0h-.11a1.13,1.13,0,0,0-2,0l-1-.72L36.4,86l-1.1-.9H21.74L20.67,84H17.41L16,82.54h-6l-2-2v-.41a1,1,0,0,0-1.47-.07,1,1,0,0,0,0,1.08l3,3h6l1.27,1.27h3.68l1.14,1.14,13.67,0,1,.75,2.11.08.89.64Z" style="fill: none" transform="translate(-3.82 -2.92)"/>
    <circle cx="15.4" cy="69.48" r="1.17" style="fill: none"/>
    <circle cx="2.35" cy="138.41" r="1.17" style="fill: none"/>
    <path d="M22.73,117.74l-.38.38v1a1.91,1.91,0,0,1-2.4,2.56A2.4,2.4,0,0,1,18.53,120a2.27,2.27,0,0,1,.86-2.21v-5.47l.81-.81v-.66H18.84v-6.56L16.24,107v7a6.84,6.84,0,0,1-2.53,5,6.93,6.93,0,0,1-8.13-.23v20a2.65,2.65,0,0,1,2.25.92,2.45,2.45,0,0,1,.48,1.63,2.55,2.55,0,0,1-.88,1.73,2.58,2.58,0,0,1-2.06.53v11.19h5.5V150a3.38,3.38,0,0,1-1.2-2.34v-9.77L23.2,124.38v-7.48l-.46.31Z" style="fill: none" transform="translate(-3.82 -2.92)"/>
    <circle cx="16.59" cy="116.81" r="0.46" style="fill: none"/>
    <circle cx="45.06" cy="114.31" r="0.46" style="fill: none"/>
    <circle cx="22.23" cy="79.87" r="1.17" style="fill: none"/>
    <circle cx="45.29" cy="69.18" r="1.17" style="fill: none"/>
    <circle cx="46.22" cy="75.45" r="1.17" style="fill: none"/>
    <circle cx="25.82" cy="79.87" r="1.17" style="fill: none"/>
    <circle cx="26.23" cy="65.94" r="1.17" style="fill: none"/>
    <path d="M50.27,122.55v-1.91q-.37-1.26-.59-1.23a.12.12,0,0,0-.08.05l-2-.44,0,2.52,1.91,1.81A2.28,2.28,0,0,1,51.71,125a2.22,2.22,0,0,1-3.37,2.39,2.31,2.31,0,0,1-.92-1.8l-3-3.15v17.08H39.89v-1.41l-1.1,1.09v2.17l1.38,1.82,6.71,4.65.87-1.09v7.53H55l.59-.36-.28-31.28Z" style="fill: none" transform="translate(-3.82 -2.92)"/>
    <circle cx="45.52" cy="122.75" r="1.17" style="fill: none"/>
    <polygon points="47.38 87.79 49.17 87.79 49.17 89.04 50.39 89.04 50.39 87.83 52.04 87.83 52.04 78.58 47.39 78.58 47.38 87.79" style="fill: none"/>
    <path d="M44.37,139.54V122.46l-.21-.21-4.08,15.69-.19.19v1.41Z" style="fill: #0b5597" transform="translate(-3.82 -2.92)"/>
    <path d="M42.1,118.32a1.15,1.15,0,0,1,.31-.49H41.18A1.15,1.15,0,0,1,42.1,118.32Z" style="fill: #0b5597" transform="translate(-3.82 -2.92)"/>
    <path d="M44.37,118.69v-.86H44A1.16,1.16,0,0,1,44.37,118.69Z" style="fill: #0b5597" transform="translate(-3.82 -2.92)"/>
    <path d="M43.2,117.52a1.16,1.16,0,0,0-.78.31H44A1.16,1.16,0,0,0,43.2,117.52Z" style="fill: #0b5597" transform="translate(-3.82 -2.92)"/>
    <path d="M42.1,118.32a1,1,0,0,0,.17,1.05,1,1,0,0,0-.17-1.05Z" style="fill: #0b5597" transform="translate(-3.82 -2.92)"/>
    <path d="M26.05,84a1.17,1.17,0,1,0-1.17-1.17A1.17,1.17,0,0,0,26.05,84Zm0-1.63a.46.46,0,1,1-.46.46A.46.46,0,0,1,26.05,82.33Z" style="fill: #0b5597" transform="translate(-3.82 -2.92)"/>
    <path d="M49.35,126.84a1.17,1.17,0,1,0-1.17-1.17A1.17,1.17,0,0,0,49.35,126.84Zm0-1.83a.66.66,0,1,1-.66.66A.66.66,0,0,1,49.35,125Z" style="fill: #1a2c80" transform="translate(-3.82 -2.92)"/>
    <path d="M29.64,84a1.17,1.17,0,1,0-1.17-1.17A1.17,1.17,0,0,0,29.64,84Zm0-1.63a.46.46,0,1,1-.46.46A.46.46,0,0,1,29.64,82.33Z" style="fill: #0b5597" transform="translate(-3.82 -2.92)"/>
    <path d="M42.77,88.41a1.15,1.15,0,0,0,.9-.46l-1.79,0A1.15,1.15,0,0,0,42.77,88.41Z" style="fill: #0b5597" transform="translate(-3.82 -2.92)"/>
    <path d="M40.56,88.64a1.16,1.16,0,0,0,1-.66l-2.06,0A1.16,1.16,0,0,0,40.56,88.64Z" style="fill: #0b5597" transform="translate(-3.82 -2.92)"/>
    <path d="M41.6,88h.28a1.16,1.16,0,0,1-.19-.29A1.15,1.15,0,0,1,41.6,88Z" style="fill: #0b5597" transform="translate(-3.82 -2.92)"/>
    <path d="M43.67,88l2.08,0h.45l-.85-1-1.48,0a1.13,1.13,0,0,1,.06.32A1.15,1.15,0,0,1,43.67,88Z" style="fill: #0b5597" transform="translate(-3.82 -2.92)"/>
    <path d="M41.67,86.89h-.11a1.13,1.13,0,0,1,.09.14A1.17,1.17,0,0,1,41.67,86.89Z" style="fill: #0b5597" transform="translate(-3.82 -2.92)"/>
    <path d="M41.64,87a1.11,1.11,0,0,0,0,.22,1.16,1.16,0,0,0,.09.45,1.11,1.11,0,0,0,0-.22A1.16,1.16,0,0,0,41.64,87Z" style="fill: #0b5597" transform="translate(-3.82 -2.92)"/>
    <path d="M42.39,86.9H43a.45.45,0,0,0-.61,0Z" transform="translate(-3.82 -2.92)"/>
    <path d="M5.53,86.6v-.17a.22.22,0,0,0,0,.17Z" transform="translate(-3.82 -2.92)"/>
    <circle cx="2.35" cy="138.41" r="1.17"/>
    <circle cx="18.1" cy="104.65" r="1.4" style="fill: #5e6163"/>
    <rect height="1.78" style="fill: #f0f0ed" width="1.25" x="16.61" y="108.08"/>
    <rect height="1.27" style="fill: #5e5d56" width="1.06" x="16.71" y="109.86"/>
    <rect height="1.14" style="fill: #fffffe" width="0.81" x="16.86" y="111.13"/>
    <rect height="1.38" style="fill: #fffffe" width="1.25" x="16.61" y="112.27"/>
    <path d="M21.28,117.08a.38.38,0,0,1-.56,0v-.77h.56Z" style="fill: #fffffe" transform="translate(-3.82 -2.92)"/>
    <rect height="1.78" style="fill: #f0f0ed" width="1.25" x="18.53" y="108.08"/>
    <rect height="1.27" style="fill: #5e5d56" width="1.06" x="18.63" y="109.86"/>
    <rect height="1.14" style="fill: #fffffe" width="0.81" x="18.78" y="111.13"/>
    <rect height="1.38" style="fill: #fffffe" width="1.25" x="18.53" y="112.27"/>
    <path d="M23.2,117.08a.38.38,0,0,1-.56,0v-.77h.56Z" style="fill: #fffffe" transform="translate(-3.82 -2.92)"/>
    <rect height="1.78" style="fill: #f0f0ed" width="1.25" x="20.44" y="108.08"/>
    <rect height="1.27" style="fill: #5e5d56" width="1.06" x="20.54" y="109.86"/>
    <rect height="1.14" style="fill: #fffffe" width="0.81" x="20.69" y="111.13"/>
    <rect height="1.38" style="fill: #fffffe" width="1.25" x="20.44" y="112.27"/>
    <path d="M25.12,117.08a.38.38,0,0,1-.56,0v-.77h.56Z" style="fill: #fffffe" transform="translate(-3.82 -2.92)"/>
    <rect height="1.78" style="fill: #f0f0ed" width="1.25" x="22.36" y="108.08"/>
    <rect height="1.27" style="fill: #5e5d56" width="1.06" x="22.46" y="109.86"/>
    <rect height="1.14" style="fill: #fffffe" width="0.81" x="22.61" y="111.13"/>
    <rect height="1.38" style="fill: #fffffe" width="1.25" x="22.36" y="112.27"/>
    <path d="M27,117.08a.38.38,0,0,1-.56,0v-.77H27Z" style="fill: #fffffe" transform="translate(-3.82 -2.92)"/>
    <rect height="1.78" style="fill: #f0f0ed" width="1.25" x="24.28" y="108.08"/>
    <rect height="1.27" style="fill: #5e5d56" width="1.06" x="24.38" y="109.86"/>
    <rect height="1.14" style="fill: #fffffe" width="0.81" x="24.53" y="111.13"/>
    <rect height="1.38" style="fill: #fffffe" width="1.25" x="24.28" y="112.27"/>
    <path d="M28.95,117.08a.38.38,0,0,1-.56,0v-.77h.56Z" style="fill: #fffffe" transform="translate(-3.82 -2.92)"/>
    <rect height="1.78" style="fill: #f0f0ed" width="1.25" x="26.19" y="108.08"/>
    <rect height="1.27" style="fill: #5e5d56" width="1.06" x="26.29" y="109.86"/>
    <rect height="1.14" style="fill: #fffffe" width="0.81" x="26.44" y="111.13"/>
    <rect height="1.38" style="fill: #fffffe" width="1.25" x="26.19" y="112.27"/>
    <path d="M30.87,117.08a.38.38,0,0,1-.56,0v-.77h.56Z" style="fill: #fffffe" transform="translate(-3.82 -2.92)"/>
    <rect height="1.78" style="fill: #f0f0ed" width="1.25" x="28.11" y="108.08"/>
    <rect height="1.27" style="fill: #5e5d56" width="1.06" x="28.21" y="109.86"/>
    <rect height="1.14" style="fill: #fffffe" width="0.81" x="28.36" y="111.13"/>
    <rect height="1.38" style="fill: #fffffe" width="1.25" x="28.11" y="112.27"/>
    <path d="M32.78,117.08a.38.38,0,0,1-.56,0v-.77h.56Z" style="fill: #fffffe" transform="translate(-3.82 -2.92)"/>
    <rect height="1.78" style="fill: #f0f0ed" width="1.25" x="30.03" y="108.08"/>
    <rect height="1.27" style="fill: #5e5d56" width="1.06" x="30.13" y="109.86"/>
    <rect height="1.14" style="fill: #fffffe" width="0.81" x="30.28" y="111.13"/>
    <rect height="1.38" style="fill: #fffffe" width="1.25" x="30.03" y="112.27"/>
    <path d="M34.7,117.08a.38.38,0,0,1-.56,0v-.77h.56Z" style="fill: #fffffe" transform="translate(-3.82 -2.92)"/>
    <rect height="1.78" style="fill: #f0f0ed" width="1.25" x="31.94" y="108.08"/>
    <rect height="1.27" style="fill: #5e5d56" width="1.06" x="32.04" y="109.86"/>
    <rect height="1.14" style="fill: #fffffe" width="0.81" x="32.19" y="111.13"/>
    <rect height="1.38" style="fill: #fffffe" width="1.25" x="31.94" y="112.27"/>
    <path d="M36.62,117.08a.38.38,0,0,1-.56,0v-.77h.56Z" style="fill: #fffffe" transform="translate(-3.82 -2.92)"/>
    <rect height="1.78" style="fill: #f0f0ed" width="1.25" x="33.86" y="108.08"/>
    <rect height="1.27" style="fill: #5e5d56" width="1.06" x="33.96" y="109.86"/>
    <rect height="1.14" style="fill: #fffffe" width="0.81" x="34.11" y="111.13"/>
    <rect height="1.38" style="fill: #fffffe" width="1.25" x="33.86" y="112.27"/>
    <path d="M38.53,117.08a.38.38,0,0,1-.56,0v-.77h.56Z" style="fill: #fffffe" transform="translate(-3.82 -2.92)"/>
    <rect height="1.78" style="fill: #f0f0ed" width="1.25" x="35.78" y="108.08"/>
    <rect height="1.27" style="fill: #5e5d56" width="1.06" x="35.88" y="109.86"/>
    <rect height="1.14" style="fill: #fffffe" width="0.81" x="36.03" y="111.13"/>
    <rect height="1.38" style="fill: #fffffe" width="1.25" x="35.78" y="112.27"/>
    <path d="M40.45,117.08a.38.38,0,0,1-.56,0v-.77h.56Z" style="fill: #fffffe" transform="translate(-3.82 -2.92)"/>
    <rect height="1.78" style="fill: #f0f0ed" width="1.25" x="37.69" y="108.08"/>
    <rect height="1.27" style="fill: #5e5d56" width="1.06" x="37.79" y="109.86"/>
    <rect height="1.14" style="fill: #fffffe" width="0.81" x="37.94" y="111.13"/>
    <rect height="1.38" style="fill: #fffffe" width="1.25" x="37.69" y="112.27"/>
    <path d="M42.37,117.08a.38.38,0,0,1-.56,0v-.77h.56Z" style="fill: #fffffe" transform="translate(-3.82 -2.92)"/>
    <rect height="1.78" style="fill: #f0f0ed" width="1.25" x="39.61" y="108.08"/>
    <rect height="1.27" style="fill: #5e5d56" width="1.06" x="39.71" y="109.86"/>
    <rect height="1.14" style="fill: #fffffe" width="0.81" x="39.86" y="111.13"/>
    <rect height="1.38" style="fill: #fffffe" width="1.25" x="39.61" y="112.27"/>
    <path d="M44.28,117.08a.38.38,0,0,1-.56,0v-.77h.56Z" style="fill: #fffffe" transform="translate(-3.82 -2.92)"/>
    <rect height="1.78" style="fill: #f0f0ed" width="1.25" x="41.53" y="108.08"/>
    <rect height="1.27" style="fill: #5e5d56" width="1.06" x="41.63" y="109.86"/>
    <rect height="1.14" style="fill: #fffffe" width="0.81" x="41.78" y="111.13"/>
    <rect height="1.38" style="fill: #fffffe" width="1.25" x="41.53" y="112.27"/>
    <path d="M46.2,117.08a.38.38,0,0,1-.56,0v-.77h.56Z" style="fill: #fffffe" transform="translate(-3.82 -2.92)"/>
    <rect height="1.78" style="fill: #f0f0ed" transform="translate(88.13 185.93) rotate(180)" width="1.25" x="45.35" y="93.54"/>
    <rect height="1.27" style="fill: #5e5d56" transform="translate(88.12 182.88) rotate(180)" width="1.06" x="45.45" y="92.27"/>
    <rect height="1.14" style="fill: #fffffe" transform="translate(88.07 180.48) rotate(180)" width="0.81" x="45.54" y="91.13"/>
    <rect height="1.38" style="fill: #fffffe" transform="translate(88.13 177.96) rotate(180)" width="1.25" x="45.35" y="89.75"/>
    <path d="M45.75,89.23a.38.38,0,0,1,.56,0V90h-.56Z" style="fill: #fffffe" transform="translate(-3.82 -2.92)"/>
    <rect height="1.78" style="fill: #f0f0ed" transform="translate(84.29 185.93) rotate(180)" width="1.25" x="43.44" y="93.54"/>
    <rect height="1.27" style="fill: #5e5d56" transform="translate(84.29 182.88) rotate(180)" width="1.06" x="43.53" y="92.27"/>
    <rect height="1.14" style="fill: #fffffe" transform="translate(84.24 180.48) rotate(180)" width="0.81" x="43.62" y="91.13"/>
    <rect height="1.38" style="fill: #fffffe" transform="translate(84.29 177.96) rotate(180)" width="1.25" x="43.44" y="89.75"/>
    <path d="M43.84,89.23a.38.38,0,0,1,.56,0V90h-.56Z" style="fill: #fffffe" transform="translate(-3.82 -2.92)"/>
    <rect height="1.78" style="fill: #f0f0ed" transform="translate(80.46 185.93) rotate(180)" width="1.25" x="41.52" y="93.54"/>
    <rect height="1.27" style="fill: #5e5d56" transform="translate(80.46 182.88) rotate(180)" width="1.06" x="41.61" y="92.27"/>
    <rect height="1.14" style="fill: #fffffe" transform="translate(80.4 180.48) rotate(180)" width="0.81" x="41.71" y="91.13"/>
    <rect height="1.38" style="fill: #fffffe" transform="translate(80.46 177.96) rotate(180)" width="1.25" x="41.52" y="89.75"/>
    <path d="M41.92,89.23a.38.38,0,0,1,.56,0V90h-.56Z" style="fill: #fffffe" transform="translate(-3.82 -2.92)"/>
    <rect height="1.78" style="fill: #f0f0ed" transform="translate(76.63 185.93) rotate(180)" width="1.25" x="39.6" y="93.54"/>
    <rect height="1.27" style="fill: #5e5d56" transform="translate(76.62 182.88) rotate(180)" width="1.06" x="39.7" y="92.27"/>
    <rect height="1.14" style="fill: #fffffe" transform="translate(76.57 180.48) rotate(180)" width="0.81" x="39.79" y="91.13"/>
    <rect height="1.38" style="fill: #fffffe" transform="translate(76.63 177.96) rotate(180)" width="1.25" x="39.6" y="89.75"/>
    <path d="M40,89.23a.38.38,0,0,1,.56,0V90H40Z" style="fill: #fffffe" transform="translate(-3.82 -2.92)"/>
    <rect height="1.78" style="fill: #f0f0ed" transform="translate(72.79 185.93) rotate(180)" width="1.25" x="37.69" y="93.54"/>
    <rect height="1.27" style="fill: #5e5d56" transform="translate(72.79 182.88) rotate(180)" width="1.06" x="37.78" y="92.27"/>
    <rect height="1.14" style="fill: #fffffe" transform="translate(72.74 180.48) rotate(180)" width="0.81" x="37.87" y="91.13"/>
    <rect height="1.38" style="fill: #fffffe" transform="translate(72.79 177.96) rotate(180)" width="1.25" x="37.69" y="89.75"/>
    <path d="M38.09,89.23a.38.38,0,0,1,.56,0V90h-.56Z" style="fill: #fffffe" transform="translate(-3.82 -2.92)"/>
    <rect height="1.78" style="fill: #f0f0ed" transform="translate(68.96 185.93) rotate(180)" width="1.25" x="35.77" y="93.54"/>
    <rect height="1.27" style="fill: #5e5d56" transform="translate(68.96 182.88) rotate(180)" width="1.06" x="35.86" y="92.27"/>
    <rect height="1.14" style="fill: #fffffe" transform="translate(68.9 180.48) rotate(180)" width="0.81" x="35.96" y="91.13"/>
    <rect height="1.38" style="fill: #fffffe" transform="translate(68.96 177.96) rotate(180)" width="1.25" x="35.77" y="89.75"/>
    <path d="M36.17,89.23a.38.38,0,0,1,.56,0V90h-.56Z" style="fill: #fffffe" transform="translate(-3.82 -2.92)"/>
    <rect height="1.78" style="fill: #f0f0ed" transform="translate(65.13 185.93) rotate(180)" width="1.25" x="33.85" y="93.54"/>
    <rect height="1.27" style="fill: #5e5d56" transform="translate(65.13 182.88) rotate(180)" width="1.06" x="33.95" y="92.27"/>
    <rect height="1.14" style="fill: #fffffe" transform="translate(65.07 180.48) rotate(180)" width="0.81" x="34.04" y="91.13"/>
    <rect height="1.38" style="fill: #fffffe" transform="translate(65.13 177.96) rotate(180)" width="1.25" x="33.85" y="89.75"/>
    <path d="M34.25,89.23a.38.38,0,0,1,.56,0V90h-.56Z" style="fill: #fffffe" transform="translate(-3.82 -2.92)"/>
    <rect height="1.78" style="fill: #f0f0ed" transform="translate(61.29 185.93) rotate(180)" width="1.25" x="31.94" y="93.54"/>
    <rect height="1.27" style="fill: #5e5d56" transform="translate(61.29 182.88) rotate(180)" width="1.06" x="32.03" y="92.27"/>
    <rect height="1.14" style="fill: #fffffe" transform="translate(61.24 180.48) rotate(180)" width="0.81" x="32.12" y="91.13"/>
    <rect height="1.38" style="fill: #fffffe" transform="translate(61.29 177.96) rotate(180)" width="1.25" x="31.94" y="89.75"/>
    <path d="M32.34,89.23a.38.38,0,0,1,.56,0V90h-.56Z" style="fill: #fffffe" transform="translate(-3.82 -2.92)"/>
    <rect height="1.78" style="fill: #f0f0ed" transform="translate(57.46 185.93) rotate(180)" width="1.25" x="30.02" y="93.54"/>
    <rect height="1.27" style="fill: #5e5d56" transform="translate(57.46 182.88) rotate(180)" width="1.06" x="30.11" y="92.27"/>
    <rect height="1.14" style="fill: #fffffe" transform="translate(57.4 180.48) rotate(180)" width="0.81" x="30.21" y="91.13"/>
    <rect height="1.38" style="fill: #fffffe" transform="translate(57.46 177.96) rotate(180)" width="1.25" x="30.02" y="89.75"/>
    <path d="M30.42,89.23a.38.38,0,0,1,.56,0V90h-.56Z" style="fill: #fffffe" transform="translate(-3.82 -2.92)"/>
    <rect height="1.78" style="fill: #f0f0ed" transform="translate(53.63 185.93) rotate(180)" width="1.25" x="28.1" y="93.54"/>
    <rect height="1.27" style="fill: #5e5d56" transform="translate(53.63 182.88) rotate(180)" width="1.06" x="28.2" y="92.27"/>
    <rect height="1.14" style="fill: #fffffe" transform="translate(53.57 180.48) rotate(180)" width="0.81" x="28.29" y="91.13"/>
    <rect height="1.38" style="fill: #fffffe" transform="translate(53.63 177.96) rotate(180)" width="1.25" x="28.1" y="89.75"/>
    <path d="M28.5,89.23a.38.38,0,0,1,.56,0V90H28.5Z" style="fill: #fffffe" transform="translate(-3.82 -2.92)"/>
    <rect height="1.78" style="fill: #f0f0ed" transform="translate(49.79 185.93) rotate(180)" width="1.25" x="26.19" y="93.54"/>
    <rect height="1.27" style="fill: #5e5d56" transform="translate(49.79 182.88) rotate(180)" width="1.06" x="26.28" y="92.27"/>
    <rect height="1.14" style="fill: #fffffe" transform="translate(49.74 180.48) rotate(180)" width="0.81" x="26.37" y="91.13"/>
    <rect height="1.38" style="fill: #fffffe" transform="translate(49.79 177.96) rotate(180)" width="1.25" x="26.19" y="89.75"/>
    <path d="M26.59,89.23a.38.38,0,0,1,.56,0V90h-.56Z" style="fill: #fffffe" transform="translate(-3.82 -2.92)"/>
    <rect height="1.78" style="fill: #f0f0ed" transform="translate(45.96 185.93) rotate(180)" width="1.25" x="24.27" y="93.54"/>
    <rect height="1.27" style="fill: #5e5d56" transform="translate(45.96 182.88) rotate(180)" width="1.06" x="24.36" y="92.27"/>
    <rect height="1.14" style="fill: #fffffe" transform="translate(45.9 180.48) rotate(180)" width="0.81" x="24.46" y="91.13"/>
    <rect height="1.38" style="fill: #fffffe" transform="translate(45.96 177.96) rotate(180)" width="1.25" x="24.27" y="89.75"/>
    <path d="M24.67,89.23a.38.38,0,0,1,.56,0V90h-.56Z" style="fill: #fffffe" transform="translate(-3.82 -2.92)"/>
    <rect height="1.78" style="fill: #f0f0ed" transform="translate(42.13 185.93) rotate(180)" width="1.25" x="22.35" y="93.54"/>
    <rect height="1.27" style="fill: #5e5d56" transform="translate(42.13 182.88) rotate(180)" width="1.06" x="22.45" y="92.27"/>
    <rect height="1.14" style="fill: #fffffe" transform="translate(42.07 180.48) rotate(180)" width="0.81" x="22.54" y="91.13"/>
    <rect height="1.38" style="fill: #fffffe" transform="translate(42.13 177.96) rotate(180)" width="1.25" x="22.35" y="89.75"/>
    <path d="M22.75,89.23a.38.38,0,0,1,.56,0V90h-.56Z" style="fill: #fffffe" transform="translate(-3.82 -2.92)"/>
    <rect height="1.78" style="fill: #f0f0ed" transform="translate(38.29 185.93) rotate(180)" width="1.25" x="20.44" y="93.54"/>
    <rect height="1.27" style="fill: #5e5d56" transform="translate(38.29 182.88) rotate(180)" width="1.06" x="20.53" y="92.27"/>
    <rect height="1.14" style="fill: #fffffe" transform="translate(38.24 180.48) rotate(180)" width="0.81" x="20.62" y="91.13"/>
    <rect height="1.38" style="fill: #fffffe" transform="translate(38.29 177.96) rotate(180)" width="1.25" x="20.44" y="89.75"/>
    <path d="M20.84,89.23a.38.38,0,0,1,.56,0V90h-.56Z" style="fill: #fffffe" transform="translate(-3.82 -2.92)"/>
    <rect height="3.84" style="fill: #fffffe" width="3.75" x="1.45" y="67.11"/>
    <rect height="3.84" style="fill: #fffffe" width="3.75" x="1.45" y="73.48"/>
    <path d="M8.83,78.67a2.13,2.13,0,0,1-1.57.95,2.15,2.15,0,0,1-1.8-.95V71a2.66,2.66,0,0,1,3.36,0Z" style="fill: #3e3630" transform="translate(-3.82 -2.92)"/>
    <rect height="1.28" rx="0.45" ry="0.45" style="fill: #f4f6f6" width="2.46" x="2.09" y="69.29"/>
    <rect height="1.28" rx="0.45" ry="0.45" style="fill: #f4f6f6" width="2.46" x="2.09" y="73.78"/>
    <rect height="4.49" style="fill: #bebbb0" width="3.21" x="9.58" y="69.94"/>
    <rect height="4.49" width="3.21" x="1.72" y="70"/>
    <rect height="3.84" style="fill: #fffffe" width="3.75" x="9.31" y="67.11"/>
    <rect height="3.84" style="fill: #fffffe" width="3.75" x="9.31" y="73.48"/>
    <path d="M16.69,78.67a2.13,2.13,0,0,1-1.57.95,2.15,2.15,0,0,1-1.8-.95V71a2.66,2.66,0,0,1,3.36,0Z" style="fill: #3e3630" transform="translate(-3.82 -2.92)"/>
    <rect height="1.28" rx="0.45" ry="0.45" style="fill: #f4f6f6" width="2.46" x="9.96" y="69.29"/>
    <rect height="1.28" rx="0.45" ry="0.45" style="fill: #f4f6f6" width="2.46" x="9.96" y="73.78"/>
    <rect height="4.49" width="3.21" x="9.58" y="70"/>
    <rect height="3.84" style="fill: #fffffe" width="3.75" x="16.31" y="67.32"/>
    <rect height="3.84" style="fill: #fffffe" width="3.75" x="16.31" y="73.69"/>
    <path d="M23.69,78.88a2.13,2.13,0,0,1-1.57.95,2.15,2.15,0,0,1-1.8-.95V71.24a2.66,2.66,0,0,1,3.36,0Z" style="fill: #3e3630" transform="translate(-3.82 -2.92)"/>
    <rect height="1.28" rx="0.45" ry="0.45" style="fill: #f4f6f6" width="2.46" x="16.96" y="69.5"/>
    <rect height="1.28" rx="0.45" ry="0.45" style="fill: #f4f6f6" width="2.46" x="16.96" y="73.99"/>
    <rect height="4.49" width="3.21" x="16.58" y="70.21"/>
    <rect height="3.84" style="fill: #fffffe" width="3.75" x="24.52" y="67.35"/>
    <rect height="3.84" style="fill: #fffffe" width="3.75" x="24.52" y="73.71"/>
    <path d="M31.9,78.91a2.13,2.13,0,0,1-1.57.95,2.15,2.15,0,0,1-1.8-.95V71.27a2.66,2.66,0,0,1,3.36,0Z" style="fill: #3e3630" transform="translate(-3.82 -2.92)"/>
    <rect height="1.28" rx="0.45" ry="0.45" style="fill: #f4f6f6" width="2.46" x="25.17" y="69.52"/>
    <rect height="1.28" rx="0.45" ry="0.45" style="fill: #f4f6f6" width="2.46" x="25.17" y="74.02"/>
    <rect height="4.49" width="3.21" x="24.79" y="70.23"/>
    <rect height="3.84" style="fill: #fffffe" width="3.75" x="31.65" y="67.35"/>
    <rect height="3.84" style="fill: #fffffe" width="3.75" x="31.65" y="73.71"/>
    <path d="M39,78.91a2.13,2.13,0,0,1-1.57.95,2.15,2.15,0,0,1-1.8-.95V71.27a2.66,2.66,0,0,1,3.36,0Z" style="fill: #3e3630" transform="translate(-3.82 -2.92)"/>
    <rect height="1.28" rx="0.45" ry="0.45" style="fill: #f4f6f6" width="2.46" x="32.29" y="69.52"/>
    <rect height="1.28" rx="0.45" ry="0.45" style="fill: #f4f6f6" width="2.46" x="32.29" y="74.02"/>
    <rect height="4.49" width="3.21" x="31.92" y="70.23"/>
    <rect height="3.84" style="fill: #fffffe" width="3.75" x="40.56" y="67.37"/>
    <rect height="3.84" style="fill: #fffffe" width="3.75" x="40.56" y="73.73"/>
    <rect height="3.84" style="fill: #fffffe" width="3.75" x="47.75" y="67.16"/>
    <rect height="3.84" style="fill: #fffffe" width="3.75" x="47.75" y="73.52"/>
    <path d="M47.94,78.93a2.13,2.13,0,0,1-1.57.95,2.15,2.15,0,0,1-1.8-.95V71.29a2.66,2.66,0,0,1,3.36,0Z" style="fill: #3e3630" transform="translate(-3.82 -2.92)"/>
    <rect height="1.28" rx="0.45" ry="0.45" style="fill: #f4f6f6" width="2.46" x="41.21" y="69.54"/>
    <rect height="1.28" rx="0.45" ry="0.45" style="fill: #f4f6f6" width="2.46" x="41.21" y="74.04"/>
    <rect height="4.49" width="3.21" x="40.83" y="70.25"/>
    <path d="M55.13,78.93a2.13,2.13,0,0,1-1.57.95,2.15,2.15,0,0,1-1.8-.95V71.29a2.66,2.66,0,0,1,3.36,0Z" style="fill: #3e3630" transform="translate(-3.82 -2.92)"/>
    <rect height="1.28" rx="0.45" ry="0.45" style="fill: #f4f6f6" width="2.46" x="48.4" y="69.54"/>
    <rect height="1.28" rx="0.45" ry="0.45" style="fill: #f4f6f6" width="2.46" x="48.4" y="74.04"/>
    <rect height="4.49" width="3.21" x="48.02" y="70.25"/>
    <rect height="3.84" style="fill: #fffffe" width="3.75" x="47.27" y="108.29"/>
    <rect height="3.84" style="fill: #fffffe" width="3.75" x="47.27" y="114.66"/>
    <path d="M54.65,120.06a2.13,2.13,0,0,1-1.57.95,2.15,2.15,0,0,1-1.8-.95v-7.64a2.66,2.66,0,0,1,3.36,0Z" style="fill: #3e3630" transform="translate(-3.82 -2.92)"/>
    <rect height="1.28" rx="0.45" ry="0.45" style="fill: #f4f6f6" width="2.46" x="47.92" y="110.68"/>
    <rect height="1.28" rx="0.45" ry="0.45" style="fill: #f4f6f6" width="2.46" x="47.92" y="115.17"/>
    <rect height="4.49" width="3.21" x="47.54" y="111.38"/>
    <rect height="0.94" style="fill: #91cca9" width="0.47" x="47.99" y="92.4"/>
    <rect height="0.94" style="fill: #91cca9" width="0.47" x="49.53" y="92.4"/>
    <circle cx="48.96" cy="94.08" r="0.44" style="fill: #d3ccc2"/>
    <rect height="54.67" rx="6" ry="6" style="fill: url(#Silver_01-2)" width="46.33" x="2.75" y="4.65"/>
    <path d="M7.44,43.84l-1.16-.61a2.87,2.87,0,0,0-1.83,2.19A2.93,2.93,0,0,0,6.29,48.5l1.09-1.09" style="fill: none;stroke: #ebedee;stroke-miterlimit: 10" transform="translate(-3.82 -2.92)"/>
    <polyline points="46.35 114.5 46.35 119.5 51.94 119.5 51.94 114.29" style="fill: none;stroke: #eeeeed;stroke-linecap: round;stroke-miterlimit: 10;stroke-width: 0.5px"/>
    <polyline points="51.81 111.92 51.81 106.92 46.23 106.92 46.23 112.14" style="fill: none;stroke: #eeeeed;stroke-linecap: round;stroke-miterlimit: 10;stroke-width: 0.5px"/>
    <polyline points="46.38 95.79 46.38 100.79 51.96 100.79 51.96 95.58" style="fill: none;stroke: #eeeeed;stroke-linecap: round;stroke-miterlimit: 10;stroke-width: 0.5px"/>
    <polyline points="51.81 92.36 51.81 87.36 46.23 87.36 46.23 92.57" style="fill: none;stroke: #eeeeed;stroke-linecap: round;stroke-miterlimit: 10;stroke-width: 0.5px"/>
    <polyline points="2.01 62.83 2.01 63.71 2.45 64.15 5.55 64.15 6.14 64.15" style="fill: none;stroke: #b39f89;stroke-miterlimit: 10"/>
    <polyline points="49.93 62.58 49.93 63.46 49.49 63.9 46.39 63.9 45.8 63.9" style="fill: none;stroke: #b39f89;stroke-miterlimit: 10"/>
    <line style="fill: none;stroke: #b39f89;stroke-miterlimit: 10" x1="23.17" x2="29.25" y1="63.98" y2="63.98"/>
    <polygon points="22.96 62.83 23.58 63.29 28.89 63.29 29.56 62.83 22.96 62.83" style="fill: #fafafa"/>
    <polygon points="4.27 62.83 4.27 63.49 4.42 63.64 7.21 63.64 8.03 62.83 4.27 62.83" style="fill: #fafafa"/>
    <polygon points="46.29 62.83 46.9 63.39 49.33 63.39 49.45 63.26 49.45 62.83 46.29 62.83" style="fill: #fafafa"/>
    <line style="fill: none;stroke: #fafafa;stroke-miterlimit: 10" x1="6.12" x2="23.15" y1="64.1" y2="64.1"/>
    <line style="fill: none;stroke: #fafafa;stroke-miterlimit: 10" x1="28.59" x2="45.8" y1="63.93" y2="63.93"/>
    <path d="M16.45,70.39" style="fill: none;stroke: #0b5597;stroke-miterlimit: 10" transform="translate(-3.82 -2.92)"/>
    <line style="fill: none;stroke: #0b5597;stroke-miterlimit: 10" x1="36.63" x2="36.63" y1="113.23" y2="115.17"/>
    <line style="fill: none;stroke: #bcbcbc;stroke-miterlimit: 10;stroke-width: 0.5px" x1="12.65" x2="14.29" y1="94.08" y2="94.08"/>
    <line style="fill: none;stroke: #bcbcbc;stroke-miterlimit: 10;stroke-width: 0.5px" x1="12.42" x2="14.2" y1="95.99" y2="95.99"/>
    <polyline points="14.98 98.02 14.29 98.02 14.29 92.72" style="fill: none;stroke: #bcbcbc;stroke-miterlimit: 10;stroke-width: 0.5px"/>
    <rect height="15.69" style="fill: #585e65" width="30.5" x="14.56" y="92.4"/>
  </g>
  <g data-name="Layer 9" id="Layer_9">
    <g>
      <path d="M45.73,50.92l.7-2.6a.54.54,0,0,1,.57-.45c.32,0,.41.16.33.45l-1.64,6.11a.54.54,0,0,1-.57.45c-.32,0-.41-.16-.33-.45l.7-2.6H42.84l-.7,2.6a.54.54,0,0,1-.57.45c-.32,0-.41-.16-.33-.45l1.64-6.11a.54.54,0,0,1,.57-.45c.32,0,.41.16.33.45l-.7,2.6Z" transform="translate(-3.82 -2.92)"/>
      <path d="M39.42,51.86c.25,0,.58.05.48.43s-.42.43-.71.43H38a1.08,1.08,0,0,1-1-.39,1.05,1.05,0,0,1-.11-1l.7-2.94a.6.6,0,0,1,.54-.5.32.32,0,0,1,.32.43l.68-.31a.93.93,0,0,1,.57-.13h.83a1.08,1.08,0,0,1,.9.31,1,1,0,0,1,.17,1.06l-.1.38a1.55,1.55,0,0,1-.68,1,1.76,1.76,0,0,1-1.09.32H37.84l-.05.2c-.17.65-.06.76.56.76Zm.5-1.82c.23,0,.59-.06.68-.38l.15-.58c.08-.29-.26-.35-.46-.35h-1l-1.09.5,0,.19c-.13.48,0,.62.45.62Z" transform="translate(-3.82 -2.92)"/>
      <path d="M35,51l.67-2.51c.08-.3.22-.59.59-.59s.35.3.27.59l-1,3.62c-.08.31-.21.64-.6.64s-.34-.32-.26-.63l0-.1v0l-.83.46a1.83,1.83,0,0,1-.83.29h-.64a.84.84,0,0,1-.72-.32c-.3-.33-.18-.7-.07-1.17l.64-2.72c.07-.31.21-.65.6-.65s.34.3.28.59l-.62,2.66c-.12.53-.14.74.39.74h.29a.64.64,0,0,0,.29-.08Z" transform="translate(-3.82 -2.92)"/>
      <path d="M29.68,48.32a.54.54,0,0,1,.57-.45c.32,0,.41.16.33.45l-1.76,6.56h-3a1,1,0,0,1-1.07-1.31l.17-.62a1.81,1.81,0,0,1,1.77-1.28h.83l-1.25-2.9a.72.72,0,0,1-.1-.48.6.6,0,0,1,.57-.42.34.34,0,0,1,.33.25l1.53,3.55h.21Zm-1.14,4.25h-2c-.25,0-.65,0-.75.38l-.17.62c-.1.36.26.41.53.41h2Z" transform="translate(-3.82 -2.92)"/>
      <path d="M20.44,48.51c.05-.2.14-.64.59-.64s.35.31.27.6l0,.14.83-.46a1.83,1.83,0,0,1,.82-.29h.64a.92.92,0,0,1,.72.31c.3.33.19.7.08,1.17l-.64,2.72c-.08.32-.21.65-.61.65s-.33-.32-.26-.59l.62-2.66a1.45,1.45,0,0,0,.06-.56c0-.13-.25-.18-.46-.18h-.29a.59.59,0,0,0-.29.08l-1.48.8-.67,2.51c-.08.3-.22.59-.59.59s-.35-.3-.27-.59Z" transform="translate(-3.82 -2.92)"/>
      <path d="M17.74,51l.67-2.51c.08-.3.22-.59.59-.59s.35.3.27.59l-1,3.62c-.08.31-.21.64-.6.64s-.34-.32-.26-.63l0-.1v0l-.83.46a1.83,1.83,0,0,1-.83.29h-.64a.84.84,0,0,1-.72-.32c-.3-.33-.18-.7-.07-1.17L15,48.51c.07-.31.21-.65.6-.65s.34.3.28.59l-.62,2.66c-.12.53-.14.74.39.74H16a.64.64,0,0,0,.29-.08Z" transform="translate(-3.82 -2.92)"/>
    </g>
    <g>
      <path d="M48.68,34.65V32.34a.4.4,0,1,1,.8,0v5.42a.4.4,0,1,1-.8,0V35.45H46.33v2.31a.4.4,0,1,1-.8,0V32.34a.4.4,0,1,1,.8,0v2.31Z" transform="translate(-3.82 -2.92)"/>
      <path d="M43.72,32.34a.4.4,0,1,1,.8,0v5.82H41.83A1.21,1.21,0,0,1,40.57,37v-.55a1.16,1.16,0,0,1,1.26-1.14h.74l-1.8-2.57a.8.8,0,0,1-.2-.42.38.38,0,0,1,.41-.38.42.42,0,0,1,.35.22l2.21,3.15h.18Zm0,3.77H41.94c-.22,0-.58,0-.58.34V37c0,.32.33.36.57.36h1.78Z" transform="translate(-3.82 -2.92)"/>
      <path d="M36.89,35.31h2.75a.41.41,0,0,1,.4.4v2a.41.41,0,0,1-.4.4H36.49a.41.41,0,0,1-.4-.4V32.34a.39.39,0,0,1,.4-.4h.4a.39.39,0,0,1,.4.4.38.38,0,0,1-.4.4Zm0,.8v1.25h2.35V36.11Z" transform="translate(-3.82 -2.92)"/>
      <path d="M32.09,32.74v1.61a.4.4,0,1,1-.8,0v-2a.37.37,0,0,1,.4-.4h3.15a.4.4,0,1,1,0,.8H33.66v4.62h1.17a.4.4,0,1,1,0,.8h-2V32.74Z" transform="translate(-3.82 -2.92)"/>
      <path d="M28.41,32.74v1.61a.4.4,0,1,1-.8,0v-2a.37.37,0,0,1,.4-.4h3.15a.4.4,0,1,1,0,.8H30v4.62h1.17a.4.4,0,1,1,0,.8h-2V32.74Z" transform="translate(-3.82 -2.92)"/>
      <path d="M24.73,32.74v1.61a.4.4,0,1,1-.8,0v-2a.37.37,0,0,1,.4-.4h3.15a.4.4,0,1,1,0,.8H26.3v4.62h1.17a.4.4,0,1,1,0,.8h-2V32.74Z" transform="translate(-3.82 -2.92)"/>
      <path d="M20.89,38.16a.8.8,0,0,1-.8-.8V32.74a.79.79,0,0,1,.8-.8h2.35a.79.79,0,0,1,.8.8v4.62a.8.8,0,0,1-.8.8Zm0-5.42v4.62h2.35V32.74Z" transform="translate(-3.82 -2.92)"/>
      <path d="M18.45,35.45H17a.82.82,0,0,1-.64-.22.79.79,0,0,1-.25-.68V32.83a.84.84,0,0,1,.19-.62.77.77,0,0,1,.7-.27h1.78a1.17,1.17,0,0,1,.53.14l.3.14c.22.1.46.17.46.45a.4.4,0,0,1-.38.4A.58.58,0,0,1,19.4,33l-.24-.1a1.36,1.36,0,0,0-.42-.16H16.89v1.91h2.36v3.51H16.49a.4.4,0,1,1,0-.8h2Z" transform="translate(-3.82 -2.92)"/>
      <path d="M13.83,37.75c-.06.22-.15.41-.41.41s-.36-.2-.42-.41l-1.54-5.41c-.06-.19.16-.4.38-.4a.48.48,0,0,1,.43.4l.3,1h1.7l.3-1a.48.48,0,0,1,.43-.4c.22,0,.44.21.38.4Zm-.42-1.49h0l.62-2.17H12.8Z" transform="translate(-3.82 -2.92)"/>
    </g>
    <g>
      <path d="M37.08,18.32v1.61a.4.4,0,1,1-.8,0v-2a.37.37,0,0,1,.4-.4h3.15a.4.4,0,0,1,0,.8H38.65v4.62h1.18a.4.4,0,0,1,0,.8h-2V18.32Z" transform="translate(-3.82 -2.92)"/>
      <path d="M35.11,20.35H32.44c-.4,0-.48-.17-.48-.54V18c0-.38.16-.5.52-.5h2.91c.38,0,.52.14.52.5v5.32c0,.18-.06.4-.34.4h-.48a.4.4,0,0,1-.38-.4.38.38,0,0,1,.4-.4Zm0-.8V18.32H32.76v1.23Z" transform="translate(-3.82 -2.92)"/>
      <path d="M31.44,17.8c.1-.17.19-.28.39-.28a.4.4,0,0,1,.4.38.83.83,0,0,1-.18.42l-3,5.13c-.1.16-.19.3-.39.3a.39.39,0,0,1-.39-.38.62.62,0,0,1,.09-.31Z" transform="translate(-3.82 -2.92)"/>
      <path d="M25.24,23.74a.8.8,0,0,1-.8-.8V18.32a.79.79,0,0,1,.8-.8h2.35a.79.79,0,0,1,.8.8v4.62a.8.8,0,0,1-.8.8Zm0-5.42v4.62h2.35V18.32Z" transform="translate(-3.82 -2.92)"/>
      <path d="M22.47,18.32H19.72a.4.4,0,1,1,0-.8h3.55v2.61a.8.8,0,0,1-.9.9H20.12v1.91h2.75a.4.4,0,1,1,0,.8H20.21a.83.83,0,0,1-.9-.94V21.17a.83.83,0,0,1,.9-.94h2.25Z" transform="translate(-3.82 -2.92)"/>
    </g>
    <g>
      <path d="M15.12,73.71h.58a.1.1,0,1,1,0,.2h-.58a.1.1,0,1,1-.2,0h-.41a.1.1,0,1,1,0-.2h.41v-.59h.95a.1.1,0,1,1,0,.2h-.75Z" style="fill: #fff" transform="translate(-3.82 -2.92)"/>
      <path d="M15.26,74.73V74a.1.1,0,0,1,.1-.1h.51a.1.1,0,0,1,.1.1v.79a.1.1,0,0,1-.1.1H14.51a.1.1,0,0,1-.1-.1v-.1a.1.1,0,0,1,.1-.1.1.1,0,0,1,.1.1Zm.2,0h.31v-.59h-.31Z" style="fill: #fff" transform="translate(-3.82 -2.92)"/>
      <path d="M14.51,75.18a.1.1,0,1,1,0-.2H16v.67a.3.3,0,0,1-.29.32h-.14a.29.29,0,0,1-.28-.32v-.18l-.64.45a.2.2,0,0,1-.11,0,.1.1,0,0,1-.09-.1.11.11,0,0,1,.06-.09l.79-.55v0Zm.94,0v.44c0,.06,0,.14.08.14h.14c.08,0,.09-.08.09-.14v-.45Z" style="fill: #fff" transform="translate(-3.82 -2.92)"/>
      <path d="M15.26,76.77v-.69a.1.1,0,0,1,.1-.1h.51a.1.1,0,0,1,.1.1v.79a.1.1,0,0,1-.1.1H14.51a.1.1,0,0,1-.1-.1v-.1a.1.1,0,0,1,.1-.1.1.1,0,0,1,.1.1Zm.2,0h.31v-.59h-.31Z" style="fill: #fff" transform="translate(-3.82 -2.92)"/>
    </g>
    <g>
      <path d="M30.22,73.94h.58a.1.1,0,1,1,0,.2h-.58a.1.1,0,1,1-.2,0h-.41a.1.1,0,1,1,0-.2H30v-.59H31a.1.1,0,1,1,0,.2h-.75Z" style="fill: #fff" transform="translate(-3.82 -2.92)"/>
      <path d="M30.36,75v-.69a.1.1,0,0,1,.1-.1H31a.1.1,0,0,1,.1.1v.79a.1.1,0,0,1-.1.1H29.62a.1.1,0,0,1-.1-.1V75a.1.1,0,0,1,.1-.1.1.1,0,0,1,.1.1Zm.2,0h.31v-.59h-.31Z" style="fill: #fff" transform="translate(-3.82 -2.92)"/>
      <path d="M29.62,75.42a.1.1,0,1,1,0-.2h1.46v.67a.3.3,0,0,1-.29.32h-.14a.29.29,0,0,1-.28-.32V75.7l-.64.45a.2.2,0,0,1-.11,0,.1.1,0,0,1-.09-.1.11.11,0,0,1,.06-.09l.79-.55v0Zm.94,0v.44c0,.06,0,.14.08.14h.14c.08,0,.09-.08.09-.14v-.45Z" style="fill: #fff" transform="translate(-3.82 -2.92)"/>
      <path d="M30.36,77v-.69a.1.1,0,0,1,.1-.1H31a.1.1,0,0,1,.1.1v.79a.1.1,0,0,1-.1.1H29.62a.1.1,0,0,1-.1-.1V77a.1.1,0,0,1,.1-.1.1.1,0,0,1,.1.1Zm.2,0h.31v-.59h-.31Z" style="fill: #fff" transform="translate(-3.82 -2.92)"/>
    </g>
    <g>
      <path d="M53.38,73.94H54a.1.1,0,1,1,0,.2h-.58a.1.1,0,1,1-.2,0h-.41a.1.1,0,1,1,0-.2h.41v-.59h.95a.1.1,0,1,1,0,.2h-.75Z" style="fill: #fff" transform="translate(-3.82 -2.92)"/>
      <path d="M53.51,75v-.69a.1.1,0,0,1,.1-.1h.51a.1.1,0,0,1,.1.1v.79a.1.1,0,0,1-.1.1H52.77a.1.1,0,0,1-.1-.1V75a.1.1,0,0,1,.1-.1.1.1,0,0,1,.1.1Zm.2,0H54v-.59h-.31Z" style="fill: #fff" transform="translate(-3.82 -2.92)"/>
      <path d="M52.77,75.42a.1.1,0,1,1,0-.2h1.46v.67a.3.3,0,0,1-.29.32H53.8a.29.29,0,0,1-.28-.32V75.7l-.64.45a.2.2,0,0,1-.11,0,.1.1,0,0,1-.09-.1.11.11,0,0,1,.06-.09l.79-.55v0Zm.94,0v.44c0,.06,0,.14.08.14h.14c.08,0,.09-.08.09-.14v-.45Z" style="fill: #fff" transform="translate(-3.82 -2.92)"/>
      <path d="M53.51,77v-.69a.1.1,0,0,1,.1-.1h.51a.1.1,0,0,1,.1.1v.79a.1.1,0,0,1-.1.1H52.77a.1.1,0,0,1-.1-.1V77a.1.1,0,0,1,.1-.1.1.1,0,0,1,.1.1Zm.2,0H54v-.59h-.31Z" style="fill: #fff" transform="translate(-3.82 -2.92)"/>
    </g>
    <g>
      <path d="M37.42,76.63h-.58a.1.1,0,1,1,0-.2h.58a.1.1,0,1,1,.2,0H38c.06,0,.1,0,.1.1a.09.09,0,0,1-.1.1h-.41v.59h-.95a.1.1,0,1,1,0-.2h.75Z" style="fill: #fff" transform="translate(-3.82 -2.92)"/>
      <path d="M37.28,75.61v.69a.1.1,0,0,1-.1.1h-.51a.1.1,0,0,1-.1-.1v-.79a.1.1,0,0,1,.1-.1H38a.1.1,0,0,1,.1.1v.1a.1.1,0,0,1-.1.1.1.1,0,0,1-.1-.1Zm-.2,0h-.31v.59h.31Z" style="fill: #fff" transform="translate(-3.82 -2.92)"/>
      <path d="M38,75.15a.09.09,0,0,1,.1.1c0,.07,0,.1-.1.1H36.57v-.67a.3.3,0,0,1,.29-.32H37a.29.29,0,0,1,.28.32v.18l.64-.45a.2.2,0,0,1,.11,0,.1.1,0,0,1,.09.1.11.11,0,0,1-.06.09l-.79.55v0Zm-.94,0v-.44c0-.06,0-.14-.08-.14h-.14c-.08,0-.09.08-.09.14v.45Z" style="fill: #fff" transform="translate(-3.82 -2.92)"/>
      <path d="M37.28,73.57v.69a.1.1,0,0,1-.1.1h-.51a.1.1,0,0,1-.1-.1v-.79a.1.1,0,0,1,.1-.1H38a.1.1,0,0,1,.1.1v.1a.1.1,0,0,1-.1.1.1.1,0,0,1-.1-.1Zm-.2,0h-.31v.59h.31Z" style="fill: #fff" transform="translate(-3.82 -2.92)"/>
    </g>
    <g>
      <path d="M53.55,117.22h-.4a.1.1,0,1,1,0-.2h.5a.09.09,0,0,1,.1.1v.79a.1.1,0,1,1-.2,0v-.29H52.39v.29a.1.1,0,1,1-.2,0v-.49h1.35Z" style="fill: #fff" transform="translate(-3.82 -2.92)"/>
      <path d="M52.19,116.14a.2.2,0,0,1,.2-.2h1.16a.2.2,0,0,1,.2.2v.59a.2.2,0,0,1-.2.2H52.39a.2.2,0,0,1-.2-.2Zm1.35,0H52.39v.59h1.16Z" style="fill: #fff" transform="translate(-3.82 -2.92)"/>
      <path d="M53.55,115.57v-.69a.1.1,0,0,1,.2,0v.89h-.65a.2.2,0,0,1-.23-.23V115h-.48v.69a.1.1,0,1,1-.2,0V115a.21.21,0,0,1,.23-.22h.41a.21.21,0,0,1,.23.22v.56Z" style="fill: #fff" transform="translate(-3.82 -2.92)"/>
    </g>
    <g>
      <path d="M15.69,127.57V127a.2.2,0,1,1,.4,0v1.58a.2.2,0,0,1-.4,0V128H13.37v.59a.2.2,0,0,1-.4,0V127a.2.2,0,1,1,.4,0v.59Z" style="fill: #fff" transform="translate(-3.82 -2.92)"/>
      <path d="M13.18,124.3a.2.2,0,1,1,0-.4h2.91v.53l-2.4,1h2.19a.2.2,0,1,1,0,.4H13v-.53l2.43-1H13.18Z" style="fill: #fff" transform="translate(-3.82 -2.92)"/>
      <path d="M13.37,122.6h.14a.2.2,0,0,1,0,.4H13v-2h.54a.2.2,0,0,1,0,.4h-.14v.39h2.51a.2.2,0,1,1,0,.4H13.37Z" style="fill: #fff" transform="translate(-3.82 -2.92)"/>
    </g>
    <g>
      <path d="M16.09,136.81a.6.6,0,0,1-.38.6l-.74.37a.91.91,0,0,1-.42.11.87.87,0,0,1-.44-.11l-.74-.37a.6.6,0,0,1-.38-.62v-.68a.19.19,0,0,1,.2-.2.19.19,0,0,1,.2.2v.67c0,.17,0,.2.17.28l.7.35a.62.62,0,0,0,.3.08.56.56,0,0,0,.28-.08l.69-.34c.16-.08.18-.12.18-.3v-.65a.19.19,0,0,1,.2-.2.19.19,0,0,1,.2.2Z" style="fill: #fff" transform="translate(-3.82 -2.92)"/>
      <path d="M15.69,133.87a.2.2,0,1,1,.4,0v1.77H13.17a.2.2,0,1,1,0-.4h2.51Z" style="fill: #fff" transform="translate(-3.82 -2.92)"/>
      <path d="M13.17,132.76a.2.2,0,1,1,0-.4h.92l-1-1.22A.26.26,0,0,1,13,131a.2.2,0,0,1,.21-.19.24.24,0,0,1,.17.09l1.18,1.38,1.17-1.37a.23.23,0,0,1,.17-.1.2.2,0,0,1,.21.19c0,.08-.07.15-.12.22l-1,1.17h.92a.2.2,0,1,1,0,.4Z" style="fill: #fff" transform="translate(-3.82 -2.92)"/>
    </g>
    <g>
      <path d="M23.71,136.27c0,.14,0,.22-.17.24h0c.14,0,.17.11.17.24v.3a.22.22,0,0,1-.14.24l-.24.14a.28.28,0,0,1-.2.06H20.8a.2.2,0,1,1,0-.4h2.32l.19-.11v-.17l-.19-.11H21.86c-.12,0-.24-.06-.24-.2s.11-.2.24-.2h1.26l.19-.11V136l-.19-.11H20.8a.2.2,0,1,1,0-.4h2.32a.28.28,0,0,1,.2.06l.24.14a.22.22,0,0,1,.14.24Z" style="fill: #fff" transform="translate(-3.82 -2.92)"/>
      <path d="M21.72,132.76a.91.91,0,0,1,.44-.1,1,1,0,0,1,.48.13l.74.37a.52.52,0,0,1,0,1l-.74.37a1,1,0,0,1-.48.13.91.91,0,0,1-.44-.1l-.79-.4a.52.52,0,0,1,0-1Zm-.6.75c-.06,0-.12.05-.12.14s.06.1.12.14l.72.36a.63.63,0,0,0,.32.09.54.54,0,0,0,.26-.07l.76-.38c.06,0,.12-.06.12-.14s-.06-.11-.12-.14l-.76-.38a.54.54,0,0,0-.26-.07.62.62,0,0,0-.32.09Z" style="fill: #fff" transform="translate(-3.82 -2.92)"/>
      <path d="M23.31,130.53a.2.2,0,1,1,.4,0v1.77H20.8a.2.2,0,1,1,0-.4h2.51Z" style="fill: #fff" transform="translate(-3.82 -2.92)"/>
    </g>
    <g>
      <path d="M23.44,126.67a.52.52,0,0,1,.33-.14.45.45,0,0,1,.45.5v.88a.59.59,0,0,1-.13.4.5.5,0,0,1-.37.19.21.21,0,0,1-.24-.21.19.19,0,0,1,.2-.19c.12,0,.14-.06.14-.18v-.87s0-.13,0-.13-.09.06-.12.07l-1.76,1.37a.48.48,0,0,1-.33.13.44.44,0,0,1-.38-.21.53.53,0,0,1-.07-.33v-.85a.57.57,0,0,1,.13-.4.55.55,0,0,1,.38-.19.2.2,0,0,1,.23.21.18.18,0,0,1-.19.19c-.14,0-.16.07-.16.19V128s0,.14.06.14.08,0,.11-.06Z" style="fill: #fff" transform="translate(-3.82 -2.92)"/>
      <path d="M22.24,124.24a.91.91,0,0,1,.44-.1,1,1,0,0,1,.48.13l.74.37a.52.52,0,0,1,0,1l-.74.37a1,1,0,0,1-.48.13.91.91,0,0,1-.44-.1l-.79-.4a.52.52,0,0,1,0-1Zm-.6.75c-.06,0-.12.05-.12.14s.06.1.12.14l.72.36a.63.63,0,0,0,.32.09.54.54,0,0,0,.26-.07l.76-.38c.06,0,.12-.06.12-.14s-.06-.11-.12-.14l-.76-.38a.54.54,0,0,0-.26-.07.62.62,0,0,0-.32.09Z" style="fill: #fff" transform="translate(-3.82 -2.92)"/>
    </g>
    <g>
      <path d="M30.82,126.67a.52.52,0,0,1,.33-.14.45.45,0,0,1,.45.5v.88a.59.59,0,0,1-.13.4.5.5,0,0,1-.37.19.21.21,0,0,1-.24-.21.19.19,0,0,1,.2-.19c.12,0,.14-.06.14-.18v-.87s0-.13,0-.13-.09.06-.12.07l-1.76,1.37a.48.48,0,0,1-.33.13.44.44,0,0,1-.38-.21.53.53,0,0,1-.07-.33v-.85a.57.57,0,0,1,.13-.4.55.55,0,0,1,.38-.19.2.2,0,0,1,.23.21.18.18,0,0,1-.19.19c-.14,0-.16.07-.16.19V128s0,.14.06.14.08,0,.11-.06Z" style="fill: #fff" transform="translate(-3.82 -2.92)"/>
      <path d="M31.6,125.43a.6.6,0,0,1-.38.6l-.74.37a.91.91,0,0,1-.42.11.87.87,0,0,1-.44-.11l-.74-.37a.6.6,0,0,1-.38-.62v-.68a.19.19,0,0,1,.2-.2.19.19,0,0,1,.2.2v.67c0,.17,0,.2.17.28l.7.35a.62.62,0,0,0,.3.08.56.56,0,0,0,.28-.08l.69-.34c.16-.08.18-.12.18-.3v-.65a.19.19,0,0,1,.2-.2.19.19,0,0,1,.2.2Z" style="fill: #fff" transform="translate(-3.82 -2.92)"/>
      <path d="M28.69,123.87a.2.2,0,1,1,0-.4h.92l-1-1.22a.26.26,0,0,1-.08-.16.2.2,0,0,1,.21-.19.24.24,0,0,1,.17.09L30,123.36,31.22,122a.23.23,0,0,1,.17-.1.2.2,0,0,1,.21.19c0,.08-.07.15-.12.22l-1,1.17h.92a.2.2,0,1,1,0,.4Z" style="fill: #fff" transform="translate(-3.82 -2.92)"/>
    </g>
    <g>
      <path d="M30.82,135a.52.52,0,0,1,.33-.14.45.45,0,0,1,.45.5v.88a.59.59,0,0,1-.13.4.5.5,0,0,1-.37.19.21.21,0,0,1-.24-.21.19.19,0,0,1,.2-.19c.12,0,.14-.06.14-.18v-.87s0-.13,0-.13-.09.06-.12.07l-1.76,1.37a.48.48,0,0,1-.33.13.44.44,0,0,1-.38-.21.53.53,0,0,1-.07-.33v-.85a.57.57,0,0,1,.13-.4.55.55,0,0,1,.38-.19.2.2,0,0,1,.23.21.18.18,0,0,1-.19.19c-.14,0-.16.07-.16.19v.85s0,.14.06.14.08,0,.11-.06Z" style="fill: #fff" transform="translate(-3.82 -2.92)"/>
      <path d="M31.2,133.67v-.59a.2.2,0,1,1,.4,0v1.58a.2.2,0,0,1-.4,0v-.59H28.89v.59a.2.2,0,0,1-.4,0v-1.58a.2.2,0,1,1,.4,0v.59Z" style="fill: #fff" transform="translate(-3.82 -2.92)"/>
    </g>
    <g>
      <path d="M39.1,136.06a.6.6,0,0,1-.38.6L38,137a.91.91,0,0,1-.42.11.87.87,0,0,1-.44-.11l-.74-.37A.6.6,0,0,1,36,136v-.68a.19.19,0,0,1,.2-.2.19.19,0,0,1,.2.2V136c0,.17,0,.2.17.28l.7.35a.62.62,0,0,0,.3.08.56.56,0,0,0,.28-.08l.69-.34c.16-.08.18-.12.18-.3v-.65a.19.19,0,0,1,.2-.2.19.19,0,0,1,.2.2Z" style="fill: #fff" transform="translate(-3.82 -2.92)"/>
      <path d="M38.32,132.66a.51.51,0,0,1,.33-.14.45.45,0,0,1,.45.5v.88a.59.59,0,0,1-.13.4.5.5,0,0,1-.37.19.21.21,0,0,1-.24-.21.19.19,0,0,1,.2-.19c.12,0,.14-.06.14-.18V133s0-.13,0-.13-.09.06-.12.07l-1.76,1.37a.48.48,0,0,1-.33.13.44.44,0,0,1-.38-.21.53.53,0,0,1-.07-.33v-.85a.57.57,0,0,1,.13-.4.54.54,0,0,1,.38-.19.2.2,0,0,1,.23.21.18.18,0,0,1-.19.19c-.14,0-.16.07-.16.19V134s0,.14.06.14.08,0,.11-.06Z" style="fill: #fff" transform="translate(-3.82 -2.92)"/>
    </g>
    <g>
      <path d="M38.24,128.43a.2.2,0,1,1,0,.4H35.33v-1.34a.6.6,0,0,1,.58-.63h.28a.58.58,0,0,1,.57.63v.37L38,127a.4.4,0,0,1,.21-.1.19.19,0,0,1,.19.2.21.21,0,0,1-.11.18l-1.58,1.1v.09Zm-1.89,0v-.89c0-.11,0-.29-.17-.29h-.28c-.16,0-.18.16-.18.28v.89Z" style="fill: #fff" transform="translate(-3.82 -2.92)"/>
      <path d="M37.66,124.83a.52.52,0,0,1,.33-.14.45.45,0,0,1,.45.5v.88a.59.59,0,0,1-.13.4.5.5,0,0,1-.37.19.21.21,0,0,1-.24-.21.19.19,0,0,1,.2-.19c.12,0,.14-.06.14-.18v-.87s0-.13,0-.13-.09.06-.12.07l-1.76,1.37a.48.48,0,0,1-.33.13.44.44,0,0,1-.38-.21.53.53,0,0,1-.07-.33v-.85a.57.57,0,0,1,.13-.4.55.55,0,0,1,.38-.19.2.2,0,0,1,.23.21.18.18,0,0,1-.19.19c-.14,0-.16.07-.16.19v.85s0,.14.06.14.08,0,.11-.06Z" style="fill: #fff" transform="translate(-3.82 -2.92)"/>
      <path d="M35.73,124.19h.14a.2.2,0,0,1,0,.4h-.54v-2h.54a.2.2,0,0,1,0,.4h-.14v.39h2.51a.2.2,0,1,1,0,.4H35.73Z" style="fill: #fff" transform="translate(-3.82 -2.92)"/>
    </g>
    <g>
      <path d="M45.21,127.68a.2.2,0,0,1-.4,0v-.79h.79a.6.6,0,0,1,.63.64v.69a.61.61,0,0,1-.16.46.58.58,0,0,1-.49.19h-1a.81.81,0,0,1-.58-.21l-.6-.47a.61.61,0,0,1-.27-.56v-.54a.2.2,0,1,1,.4,0v.48c0,.22,0,.2.16.34l.56.44a.76.76,0,0,0,.52.12h.78c.22,0,.29,0,.29-.28v-.64c0-.14,0-.26-.21-.26h-.41Z" style="fill: #fff" transform="translate(-3.82 -2.92)"/>
      <path d="M43.32,125.13a.2.2,0,1,1,0-.4h2.91v.53l-2.4,1H46a.2.2,0,1,1,0,.4H43.11v-.53l2.43-1H43.32Z" style="fill: #fff" transform="translate(-3.82 -2.92)"/>
      <path d="M43.51,124.15v.15c0,.13,0,.24-.2.24s-.2-.11-.2-.23v-.67a.6.6,0,0,1,.4-.6l.7-.35a.92.92,0,0,1,.9,0l.73.36a.61.61,0,0,1,.38.63v.66a.2.2,0,0,1-.4,0v-.19Zm2.31-.4v-.08c0-.17,0-.21-.17-.28l-.71-.35a.56.56,0,0,0-.26-.08.68.68,0,0,0-.33.1l-.68.33c-.17.08-.17.12-.17.3v0Z" style="fill: #fff" transform="translate(-3.82 -2.92)"/>
    </g>
    <g>
      <path d="M44,136.5h-.64a.2.2,0,1,1,0-.4h.63a.4.4,0,0,1,.16,0l1.95.76c.1,0,.18.08.18.2s-.08.16-.18.2l-1.95.76a.42.42,0,0,1-.16,0h-.63a.2.2,0,1,1,0-.4H44l1.53-.59Z" style="fill: #fff" transform="translate(-3.82 -2.92)"/>
      <path d="M46.22,135.08a.6.6,0,0,1-.38.6l-.74.37a.91.91,0,0,1-.42.11.87.87,0,0,1-.44-.11l-.74-.37a.6.6,0,0,1-.38-.62v-.68a.19.19,0,0,1,.2-.2.19.19,0,0,1,.2.2V135c0,.17,0,.2.17.28l.7.35a.62.62,0,0,0,.3.08.56.56,0,0,0,.28-.08l.69-.34c.16-.08.18-.12.18-.3v-.65a.19.19,0,0,1,.2-.2.19.19,0,0,1,.2.2Z" style="fill: #fff" transform="translate(-3.82 -2.92)"/>
      <path d="M46.22,132.68a.6.6,0,0,1-.38.6l-.74.37a.91.91,0,0,1-.42.11.87.87,0,0,1-.44-.11l-.74-.37a.6.6,0,0,1-.38-.62V132a.19.19,0,0,1,.2-.2.19.19,0,0,1,.2.2v.67c0,.17,0,.2.17.28l.7.35a.62.62,0,0,0,.3.08.56.56,0,0,0,.28-.08l.69-.34c.16-.08.18-.12.18-.3V132a.19.19,0,0,1,.2-.2.19.19,0,0,1,.2.2Z" style="fill: #fff" transform="translate(-3.82 -2.92)"/>
    </g>
    <g>
      <path d="M54.4,127.59a.2.2,0,1,1,0,.4H51.49v-1.34a.6.6,0,0,1,.58-.63h.28a.58.58,0,0,1,.57.63V127l1.29-.9a.4.4,0,0,1,.21-.1.19.19,0,0,1,.19.2.21.21,0,0,1-.11.18l-1.58,1.1v.09Zm-1.89,0v-.89c0-.11,0-.29-.17-.29h-.28c-.16,0-.18.16-.18.28v.89Z" style="fill: #fff" transform="translate(-3.82 -2.92)"/>
      <path d="M52.84,125.36v-.74a.41.41,0,0,1,.11-.32.39.39,0,0,1,.34-.12h.86a.42.42,0,0,1,.31.1.39.39,0,0,1,.14.35v.89a.59.59,0,0,1-.07.26l-.07.15c0,.11-.08.23-.22.23A.2.2,0,0,1,54,126a.28.28,0,0,1,0-.13l.05-.12a.69.69,0,0,0,.08-.21v-.92h-1v1.18H51.49v-1.38a.2.2,0,1,1,.4,0v1Z" style="fill: #fff" transform="translate(-3.82 -2.92)"/>
    </g>
    <g>
      <path d="M53,108.26v.15c0,.13,0,.24-.2.24s-.2-.11-.2-.23v-.67a.6.6,0,0,1,.4-.6l.7-.35a.92.92,0,0,1,.9,0l.73.36a.61.61,0,0,1,.38.63v.66a.2.2,0,0,1-.4,0v-.19Zm2.31-.4v-.08c0-.17,0-.21-.17-.28l-.71-.35a.56.56,0,0,0-.26-.08.67.67,0,0,0-.33.1l-.68.33c-.17.08-.17.12-.17.3v0Z" style="fill: #fff" transform="translate(-3.82 -2.92)"/>
      <path d="M55.32,104.76h-.81a.2.2,0,1,1,0-.4h1a.18.18,0,0,1,.2.2v1.58a.2.2,0,0,1-.4,0v-.59H53v.59a.2.2,0,0,1-.4,0v-1h2.71Z" style="fill: #fff" transform="translate(-3.82 -2.92)"/>
    </g>
    <g>
      <path d="M55.15,86.93a.2.2,0,1,1,0,.4H52.24V86a.6.6,0,0,1,.58-.63h.28a.58.58,0,0,1,.57.63v.37l1.29-.9a.4.4,0,0,1,.21-.1.19.19,0,0,1,.19.2.21.21,0,0,1-.11.18l-1.58,1.1v.09Zm-1.89,0V86c0-.11,0-.29-.17-.29h-.28c-.16,0-.18.16-.18.28v.89Z" style="fill: #fff" transform="translate(-3.82 -2.92)"/>
      <path d="M53.66,83.28v1.38a.2.2,0,0,1-.2.2h-1a.2.2,0,0,1-.2-.2V83.08a.2.2,0,0,1,.2-.2h2.71a.2.2,0,0,1,.2.2v.2a.2.2,0,0,1-.2.2.19.19,0,0,1-.2-.2Zm-.4,0h-.62v1.18h.62Z" style="fill: #fff" transform="translate(-3.82 -2.92)"/>
    </g>
    <g>
      <path d="M47.89,86.81a.6.6,0,0,1-.38.6l-.74.37a.91.91,0,0,1-.42.11.87.87,0,0,1-.44-.11l-.74-.37a.6.6,0,0,1-.38-.62v-.68a.19.19,0,0,1,.2-.2.19.19,0,0,1,.2.2v.67c0,.17,0,.2.17.28l.7.35a.62.62,0,0,0,.3.08.56.56,0,0,0,.28-.08l.69-.34c.16-.08.18-.12.18-.3v-.65a.19.19,0,0,1,.2-.2.19.19,0,0,1,.2.2Z" style="fill: #fff" transform="translate(-3.82 -2.92)"/>
      <path d="M46.13,84.21v-.74a.41.41,0,0,1,.11-.32.39.39,0,0,1,.34-.12h.86a.42.42,0,0,1,.31.1.39.39,0,0,1,.14.35v.89a.59.59,0,0,1-.07.26l-.07.15c0,.11-.08.23-.22.23a.2.2,0,0,1-.2-.19.28.28,0,0,1,0-.13l.05-.12a.69.69,0,0,0,.08-.21v-.92h-1v1.18H44.78V83.24a.2.2,0,1,1,.4,0v1Z" style="fill: #fff" transform="translate(-3.82 -2.92)"/>
    </g>
    <g>
      <path d="M38,86.4a.2.2,0,1,1,0,.4H35.06V85.46a.6.6,0,0,1,.58-.63h.28a.58.58,0,0,1,.57.63v.37l1.29-.9a.4.4,0,0,1,.21-.1.19.19,0,0,1,.19.2.21.21,0,0,1-.11.18l-1.58,1.1v.09Zm-1.89,0v-.89c0-.11,0-.29-.17-.29h-.28c-.16,0-.18.16-.18.28v.89Z" style="fill: #fff" transform="translate(-3.82 -2.92)"/>
      <path d="M35.06,82.54a.19.19,0,0,1,.2-.2h1.16a.41.41,0,0,1,.11-.29.39.39,0,0,1,.29-.11h1a.37.37,0,0,1,.4.4v1.18a.37.37,0,0,1-.4.4h-1a.39.39,0,0,1-.29-.11.41.41,0,0,1-.11-.29H35.26a.19.19,0,0,1-.2-.2Zm1.36.2h-1v.38h1Zm1.36-.4h-1v1.18h1Z" style="fill: #fff" transform="translate(-3.82 -2.92)"/>
    </g>
    <g>
      <path d="M30.65,86.8a.2.2,0,1,1,0,.4H27.74V85.86a.6.6,0,0,1,.58-.63h.28a.58.58,0,0,1,.57.63v.37l1.29-.9a.4.4,0,0,1,.21-.1.19.19,0,0,1,.19.2.21.21,0,0,1-.11.18l-1.58,1.1v.09Zm-1.89,0v-.89c0-.11,0-.29-.17-.29h-.28c-.16,0-.18.16-.18.28v.89Z" style="fill: #fff" transform="translate(-3.82 -2.92)"/>
      <path d="M28.14,83.92a.2.2,0,1,1,0,.4h-.2a.2.2,0,0,1-.2-.2V82.35H28.9c.14,0,.16,0,.25.11l.48.56c.09.1.1.11.24.11h.78a.2.2,0,1,1,0,.4h-1a.22.22,0,0,1-.23-.1L29,82.87c-.12-.13-.11-.12-.29-.12h-.55Z" style="fill: #fff" transform="translate(-3.82 -2.92)"/>
    </g>
    <g>
      <path d="M23.79,85.44a.6.6,0,0,1-.38.6l-.74.37a.91.91,0,0,1-.42.11.87.87,0,0,1-.44-.11L21.07,86a.6.6,0,0,1-.38-.62v-.68a.19.19,0,0,1,.2-.2.19.19,0,0,1,.2.2v.67c0,.17,0,.2.17.28l.7.35a.62.62,0,0,0,.3.08.56.56,0,0,0,.28-.08l.69-.34c.16-.08.18-.12.18-.3v-.65a.19.19,0,0,1,.2-.2.19.19,0,0,1,.2.2Z" style="fill: #fff" transform="translate(-3.82 -2.92)"/>
      <path d="M22.38,82.26H21.22a.2.2,0,1,1,0-.4h1.16a.2.2,0,1,1,.4,0h.82a.2.2,0,1,1,0,.4h-.82v1.18H20.88a.2.2,0,0,1,0-.4h1.5Z" style="fill: #fff" transform="translate(-3.82 -2.92)"/>
    </g>
    <g>
      <path d="M15.72,86.12a.2.2,0,1,1,0,.4H12.81V85.17a.6.6,0,0,1,.58-.63h.28a.58.58,0,0,1,.57.63v.37l1.29-.9a.4.4,0,0,1,.21-.1.19.19,0,0,1,.19.2.21.21,0,0,1-.11.18L14.23,86v.09Zm-1.89,0v-.89c0-.11,0-.29-.17-.29h-.28c-.16,0-.18.16-.18.28v.89Z" style="fill: #fff" transform="translate(-3.82 -2.92)"/>
      <path d="M14.5,83.56V82.22c0-.2.08-.24.27-.24h.9c.19,0,.25.08.25.26V83.7c0,.19-.07.26-.25.26H13c-.09,0-.2,0-.2-.17v-.24a.2.2,0,0,1,.2-.19.19.19,0,0,1,.2.2Zm.4,0h.62V82.38H14.9Z" style="fill: #fff" transform="translate(-3.82 -2.92)"/>
    </g>
    <g>
      <path d="M8.35,84.34a.2.2,0,1,1,.4,0v1.77H5.84a.2.2,0,1,1,0-.4H8.35Z" style="fill: #fff" transform="translate(-3.82 -2.92)"/>
      <path d="M8.35,82.54H7.54a.2.2,0,1,1,0-.4h1a.18.18,0,0,1,.2.2v1.58a.2.2,0,0,1-.4,0v-.59H6v.59a.2.2,0,0,1-.4,0v-1H8.35Z" style="fill: #fff" transform="translate(-3.82 -2.92)"/>
    </g>
    <g>
      <path d="M7.61,146.73a.67.67,0,0,1,.08-.38.61.61,0,0,1,.58-.3H8.5a.63.63,0,0,1,.56.23.6.6,0,0,1,.12.4v.58a.2.2,0,0,1-.4,0v-.52c0-.23,0-.3-.28-.3H8.28c-.17,0-.27,0-.27.22V149a.2.2,0,1,1-.4,0Z" style="fill: #fff" transform="translate(-3.82 -2.92)"/>
      <path d="M5.89,146.45v.81a.2.2,0,1,1-.4,0v-1a.18.18,0,0,1,.2-.2H7.26a.2.2,0,1,1,0,.4H6.68v2.31h.59a.2.2,0,1,1,0,.4h-1v-2.71Z" style="fill: #fff" transform="translate(-3.82 -2.92)"/>
    </g>
    <polyline points="44.78 151.71 44.78 136.71 7.1 136.83 7.1 151.71" style="fill: none;stroke: #bcc1bc;stroke-miterlimit: 10;stroke-width: 0.6000000000000001px"/>
    <line style="fill: none;stroke: #bcc1bc;stroke-miterlimit: 10;stroke-width: 0.6000000000000001px" x1="7.1" x2="45.6" y1="127" y2="127"/>
    <rect height="12.01" rx="5.3" ry="5.3" style="fill: #bcbcbc" transform="translate(-98.91 112.85) rotate(-90)" width="30.85" x="-5.09" y="99.43"/>
    <g id="DETAILS">
      <path d="M6,114.64V96.22A4.09,4.09,0,0,1,10,92h.6a4.09,4.09,0,0,1,4,4.17v18.42a4.09,4.09,0,0,1-4,4.17H10A4.09,4.09,0,0,1,6,114.64Z" style="fill: #dbddda" transform="translate(-3.82 -2.92)"/>
    </g>
  </g>
  <g data-name="Layer 3" id="Layer_3">
    <polygon points="35.29 144.82 36.72 146.36 36.72 150.6 35.29 152.03 31.06 152.03 29.52 150.6 29.52 146.36 31.06 144.82 35.29 144.82" style="fill: #323232"/>
    <polygon points="34.37 149.44 34.37 149.44 33.23 148.3 32.1 149.43 32.1 149.44 34.37 149.44" style="fill: #e9e9ea"/>
    <polygon points="34.36 147.17 34.36 147.17 33.23 148.31 32.1 147.18 32.1 147.17 34.36 147.17" style="fill: #b0acb0"/>
    <polygon points="32.1 149.44 32.1 149.44 33.23 148.3 32.1 147.17 32.1 147.17 32.1 149.44" style="fill: #d3d1d3"/>
    <polygon points="34.36 149.43 34.36 149.43 33.23 148.3 34.36 147.17 34.36 147.17 34.36 149.43" style="fill: #989498"/>
    <polygon points="42.49 144.82 43.92 146.36 43.92 150.6 42.49 152.03 38.26 152.03 36.72 150.6 36.72 146.36 38.26 144.82 42.49 144.82" style="fill: #323232"/>
    <polygon points="41.57 149.44 41.57 149.44 40.43 148.3 39.3 149.43 39.3 149.44 41.57 149.44" style="fill: #e9e9ea"/>
    <polygon points="41.56 147.17 41.56 147.17 40.43 148.31 39.3 147.18 39.3 147.17 41.56 147.17" style="fill: #b0acb0"/>
    <polygon points="39.3 149.44 39.3 149.44 40.43 148.3 39.3 147.17 39.3 147.17 39.3 149.44" style="fill: #d3d1d3"/>
    <polygon points="41.56 149.43 41.56 149.43 40.43 148.3 41.56 147.17 41.56 147.17 41.56 149.43" style="fill: #989498"/>
    <polygon points="28.09 144.82 29.52 146.36 29.52 150.6 28.09 152.03 23.86 152.03 22.32 150.6 22.32 146.36 23.86 144.82 28.09 144.82" style="fill: #323232"/>
    <polygon points="27.17 149.44 27.17 149.44 26.03 148.3 24.9 149.43 24.9 149.44 27.17 149.44" style="fill: #e9e9ea"/>
    <polygon points="27.16 147.17 27.16 147.17 26.03 148.31 24.9 147.18 24.9 147.17 27.16 147.17" style="fill: #b0acb0"/>
    <polygon points="24.9 149.44 24.9 149.44 26.03 148.3 24.9 147.17 24.9 147.17 24.9 149.44" style="fill: #d3d1d3"/>
    <polygon points="27.16 149.43 27.16 149.43 26.03 148.3 27.16 147.17 27.16 147.17 27.16 149.43" style="fill: #989498"/>
    <polygon points="20.89 144.82 22.32 146.36 22.32 150.6 20.89 152.03 16.66 152.03 15.12 150.6 15.12 146.36 16.66 144.82 20.89 144.82" style="fill: #323232"/>
    <polygon points="19.97 149.44 19.97 149.44 18.83 148.3 17.7 149.43 17.7 149.44 19.97 149.44" style="fill: #e9e9ea"/>
    <polygon points="19.96 147.17 19.96 147.17 18.83 148.31 17.7 147.18 17.7 147.17 19.96 147.17" style="fill: #b0acb0"/>
    <polygon points="17.7 149.44 17.7 149.44 18.83 148.3 17.7 147.17 17.7 147.17 17.7 149.44" style="fill: #d3d1d3"/>
    <polygon points="19.96 149.43 19.96 149.43 18.83 148.3 19.96 147.17 19.96 147.17 19.96 149.43" style="fill: #989498"/>
    <polygon points="13.69 144.82 15.12 146.36 15.12 150.6 13.69 152.03 9.46 152.03 7.92 150.6 7.92 146.36 9.46 144.82 13.69 144.82" style="fill: #323232"/>
    <polygon points="12.77 149.44 12.77 149.44 11.63 148.3 10.5 149.43 10.5 149.44 12.77 149.44" style="fill: #e9e9ea"/>
    <polygon points="12.76 147.17 12.76 147.17 11.63 148.31 10.5 147.18 10.5 147.17 12.76 147.17" style="fill: #b0acb0"/>
    <polygon points="10.5 149.44 10.5 149.44 11.63 148.3 10.5 147.17 10.5 147.17 10.5 149.44" style="fill: #d3d1d3"/>
    <polygon points="12.76 149.43 12.76 149.43 11.63 148.3 12.76 147.17 12.76 147.17 12.76 149.43" style="fill: #989498"/>
    <polygon points="35.29 137.63 36.72 139.16 36.72 143.4 35.29 144.82 31.06 144.82 29.52 143.4 29.52 139.16 31.06 137.63 35.29 137.63" style="fill: #323232"/>
    <polygon points="34.37 142.24 34.37 142.24 33.23 141.1 32.1 142.23 32.1 142.24 34.37 142.24" style="fill: #e9e9ea"/>
    <polygon points="34.36 139.97 34.36 139.97 33.23 141.11 32.1 139.98 32.1 139.97 34.36 139.97" style="fill: #b0acb0"/>
    <polygon points="32.1 142.24 32.1 142.24 33.23 141.1 32.1 139.97 32.1 139.97 32.1 142.24" style="fill: #d3d1d3"/>
    <polygon points="34.36 142.23 34.36 142.23 33.23 141.1 34.36 139.97 34.36 139.97 34.36 142.23" style="fill: #989498"/>
    <polygon points="42.49 137.63 43.92 139.16 43.92 143.4 42.49 144.82 38.26 144.82 36.72 143.4 36.72 139.16 38.26 137.63 42.49 137.63" style="fill: #323232"/>
    <polygon points="41.57 142.24 41.57 142.24 40.43 141.1 39.3 142.23 39.3 142.24 41.57 142.24" style="fill: #e9e9ea"/>
    <polygon points="41.56 139.97 41.56 139.97 40.43 141.11 39.3 139.98 39.3 139.97 41.56 139.97" style="fill: #b0acb0"/>
    <polygon points="39.3 142.24 39.3 142.24 40.43 141.1 39.3 139.97 39.3 139.97 39.3 142.24" style="fill: #d3d1d3"/>
    <polygon points="41.56 142.23 41.56 142.23 40.43 141.1 41.56 139.97 41.56 139.97 41.56 142.23" style="fill: #989498"/>
    <polygon points="28.09 137.63 29.52 139.16 29.52 143.4 28.09 144.82 23.86 144.82 22.32 143.4 22.32 139.16 23.86 137.63 28.09 137.63" style="fill: #323232"/>
    <polygon points="27.17 142.24 27.17 142.24 26.03 141.1 24.9 142.23 24.9 142.24 27.17 142.24" style="fill: #e9e9ea"/>
    <polygon points="27.16 139.97 27.16 139.97 26.03 141.11 24.9 139.98 24.9 139.97 27.16 139.97" style="fill: #b0acb0"/>
    <polygon points="24.9 142.24 24.9 142.24 26.03 141.1 24.9 139.97 24.9 139.97 24.9 142.24" style="fill: #d3d1d3"/>
    <polygon points="27.16 142.23 27.16 142.23 26.03 141.1 27.16 139.97 27.16 139.97 27.16 142.23" style="fill: #989498"/>
    <polygon points="20.89 137.63 22.32 139.16 22.32 143.4 20.89 144.82 16.66 144.82 15.12 143.4 15.12 139.16 16.66 137.63 20.89 137.63" style="fill: #323232"/>
    <polygon points="19.97 142.24 19.97 142.24 18.83 141.1 17.7 142.23 17.7 142.24 19.97 142.24" style="fill: #e9e9ea"/>
    <polygon points="19.96 139.97 19.96 139.97 18.83 141.11 17.7 139.98 17.7 139.97 19.96 139.97" style="fill: #b0acb0"/>
    <polygon points="17.7 142.24 17.7 142.24 18.83 141.1 17.7 139.97 17.7 139.97 17.7 142.24" style="fill: #d3d1d3"/>
    <polygon points="19.96 142.23 19.96 142.23 18.83 141.1 19.96 139.97 19.96 139.97 19.96 142.23" style="fill: #989498"/>
    <polygon points="13.69 137.63 15.12 139.16 15.12 143.4 13.69 144.82 9.46 144.82 7.92 143.4 7.92 139.16 9.46 137.63 13.69 137.63" style="fill: #323232"/>
    <polygon points="12.77 142.24 12.77 142.24 11.63 141.1 10.5 142.23 10.5 142.24 12.77 142.24" style="fill: #e9e9ea"/>
    <polygon points="12.76 139.97 12.76 139.97 11.63 141.11 10.5 139.98 10.5 139.97 12.76 139.97" style="fill: #b0acb0"/>
    <polygon points="10.5 142.24 10.5 142.24 11.63 141.1 10.5 139.97 10.5 139.97 10.5 142.24" style="fill: #d3d1d3"/>
    <polygon points="12.76 142.23 12.76 142.23 11.63 141.1 12.76 139.97 12.76 139.97 12.76 142.23" style="fill: #989498"/>
  </g>
  <g id="Connectors">
    <rect data-cir-type="female" height="1.13" id="circuitoCon_CS" style="fill: #c0bec2" transform="translate(70.29 299.52) rotate(180)" width="1.13" x="36.49" y="150.65"/>
    <rect data-cir-type="female" height="1.13" id="circuitoCon_VCC" style="fill: #c0bec2" transform="translate(84.69 299.52) rotate(180)" width="1.13" x="43.69" y="150.65"/>
    <rect data-cir-type="female" height="1.13" id="circuitoCon_SI" style="fill: #c0bec2" transform="translate(55.89 299.52) rotate(180)" width="1.13" x="29.29" y="150.65"/>
    <rect data-cir-type="female" height="1.13" id="circuitoCon_WOL" style="fill: #c0bec2" transform="translate(41.49 299.52) rotate(180)" width="1.13" x="22.09" y="150.65"/>
    <rect data-cir-type="female" height="1.13" id="circuitoCon_CLKOUT" style="fill: #c0bec2" transform="translate(27.09 299.52) rotate(180)" width="1.13" x="14.89" y="150.65"/>
    <rect data-cir-type="female" height="1.13" id="circuitoCon_RESET" style="fill: #c0bec2" transform="translate(70.29 285.12) rotate(180)" width="1.13" x="36.49" y="143.45"/>
    <rect data-cir-type="female" height="1.13" id="circuitoCon_GND" style="fill: #c0bec2" transform="translate(84.69 285.12) rotate(180)" width="1.13" x="43.69" y="143.45"/>
    <rect data-cir-type="female" height="1.13" id="circuitoCon_SCK" style="fill: #c0bec2" transform="translate(55.89 285.12) rotate(180)" width="1.13" x="29.29" y="143.45"/>
    <rect data-cir-type="female" height="1.13" id="circuitoCon_SO" style="fill: #c0bec2" transform="translate(41.49 285.12) rotate(180)" width="1.13" x="22.09" y="143.45"/>
    <rect data-cir-type="female" height="1.13" id="circuitoCon_INT" style="fill: #c0bec2" transform="translate(27.09 285.12) rotate(180)" width="1.13" x="14.89" y="143.45"/>
  </g>
</svg>