<?xml version="1.0" ?><svg height="8.35mm" viewBox="0 0 11.1 23.67" width="3.92mm" xmlns="http://www.w3.org/2000/svg" xmlns:xlink="http://www.w3.org/1999/xlink">
  <defs>
    <radialGradient cx="5.55" cy="11.98" gradientTransform="translate(-18.41 17.53) rotate(-90) scale(1 2)" gradientUnits="userSpaceOnUse" id="radial-gradient" r="6.27">
      <stop offset="0" stop-color="#e3e3e3"/>
      <stop offset="0.28" stop-color="#e0e0e0"/>
      <stop offset="0.5" stop-color="#d6d6d6"/>
      <stop offset="0.7" stop-color="#c5c5c5"/>
      <stop offset="0.89" stop-color="#aeaeae"/>
      <stop offset="1" stop-color="#9c9c9c"/>
    </radialGradient>
    <radialGradient cx="5.55" cy="5.66" gradientUnits="userSpaceOnUse" id="radial-gradient-2" r="0.48">
      <stop offset="0" stop-color="#fff"/>
      <stop offset="1" stop-color="#939393"/>
    </radialGradient>
    <radialGradient cx="5.55" cy="18.12" id="radial-gradient-3" r="0.48" xlink:href="#radial-gradient-2"/>
  </defs>
  <title>LDR (Mini Photocell)</title>
  <g data-name="Layer 1" id="Layer_1">
    <g>
      <line id="connector0leg" style="fill: none;stroke: #8c8c8c;stroke-width: 2.49409660695409px" x1="5.55" x2="5.55" y1="6.65"/>
      <line data-name="connector0leg" id="connector0leg-2" style="fill: none;stroke: #8c8c8c;stroke-width: 2.49409660695409px" x1="5.55" x2="5.55" y1="23.67" y2="17.02"/>
      <g>
        <rect height="10.39" rx="5.19" ry="5.19" style="stroke: #a71e22;stroke-miterlimit: 10;stroke-width: 0.4251968562603px;fill: url(#radial-gradient)" transform="translate(17.53 6.43) rotate(90)" width="14.39" x="-1.64" y="6.79"/>
        <g>
          <path d="M10.33,13.92v-5H10v5a.41.41,0,0,1-.81,0v-5H8.87v5a.73.73,0,0,0,1.46,0Z" style="fill: #a71e22;stroke: #a71e22;stroke-miterlimit: 10;stroke-width: 0.141732290387154px"/>
          <path d="M9.19,8v5H8.87V8a.41.41,0,1,0-.81,0v5H7.73V8A.73.73,0,0,1,9.19,8Z" style="fill: #a71e22;stroke: #a71e22;stroke-miterlimit: 10;stroke-width: 0.141732290387154px"/>
          <path d="M8.05,16.13v-5H7.73v5a.41.41,0,0,1-.81,0v-5H6.6v5a.73.73,0,0,0,1.46,0Z" style="fill: #a71e22;stroke: #a71e22;stroke-miterlimit: 10;stroke-width: 0.141732290387154px"/>
          <path d="M6.91,7.15v5H6.59v-5a.41.41,0,0,0-.81,0v5H5.46v-5a.73.73,0,0,1,1.46,0Z" style="fill: #a71e22;stroke: #a71e22;stroke-miterlimit: 10;stroke-width: 0.141732290387154px"/>
          <path d="M.9,9.76v6.81h.32V9.76a.41.41,0,1,1,.81,0v5h.32v-5a.73.73,0,0,0-1.46,0Z" style="fill: #a71e22;stroke: #a71e22;stroke-miterlimit: 10;stroke-width: 0.141732290387154px"/>
          <path d="M2,15.71v-5h.32v5a.41.41,0,1,0,.81,0v-5H3.5v5a.73.73,0,1,1-1.46,0Z" style="fill: #a71e22;stroke: #a71e22;stroke-miterlimit: 10;stroke-width: 0.141732290387154px"/>
          <path d="M3.18,7.55v5H3.5v-5a.41.41,0,0,1,.81,0v5h.32v-5a.73.73,0,0,0-1.46,0Z" style="fill: #a71e22;stroke: #a71e22;stroke-miterlimit: 10;stroke-width: 0.141732290387154px"/>
          <path d="M4.32,16.53v-5h.32v5a.41.41,0,0,0,.81,0v-5h.32v5a.73.73,0,0,1-1.46,0Z" style="fill: #a71e22;stroke: #a71e22;stroke-miterlimit: 10;stroke-width: 0.141732290387154px"/>
          <path d="M10,9V7.9l.32.65s0,.08,0,.47S10,9,10,9Z" style="fill: #a71e22;stroke: #a71e22;stroke-miterlimit: 10;stroke-width: 0.141732290387154px"/>
        </g>
      </g>
      <rect height="0.97" rx="0.48" ry="0.48" style="fill: url(#radial-gradient-2)" width="0.97" x="5.06" y="5.18"/>
      <rect height="0.97" rx="0.48" ry="0.48" style="fill: url(#radial-gradient-3)" width="0.97" x="5.06" y="17.63"/>
    </g>
  </g>
  <g id="Connectors">
    <rect data-cir-type="male" height="0.7" id="circuitoCon_con0" style="fill: none" width="2.44" x="4.32"/>
    <rect data-cir-type="male" height="0.7" id="circuitoCon_con1" style="fill: none" width="2.44" x="4.32" y="22.97"/>
  </g>
</svg>