<?xml version="1.0" ?><svg height="43.01mm" viewBox="0 0 93.54 121.92" width="33mm" xmlns="http://www.w3.org/2000/svg" xmlns:xlink="http://www.w3.org/1999/xlink">
  <defs>
    <linearGradient data-name="Carbon 03" gradientUnits="userSpaceOnUse" id="Carbon_03" x1="26.9" x2="46.38" y1="102.53" y2="102.53">
      <stop offset="0" stop-color="#0e0f10"/>
      <stop offset="0.15" stop-color="#1d1e1f"/>
      <stop offset="0.28" stop-color="#2e3033"/>
      <stop offset="0.41" stop-color="#151515"/>
      <stop offset="0.59" stop-color="#2a2d32"/>
      <stop offset="0.74" stop-color="#313439"/>
      <stop offset="0.92" stop-color="#1e282c"/>
      <stop offset="1" stop-color="#151515"/>
    </linearGradient>
    <linearGradient data-name="Silver 01" gradientUnits="userSpaceOnUse" id="Silver_01" x1="50.99" x2="58.6" y1="106.64" y2="106.64">
      <stop offset="0" stop-color="#cbd1d6"/>
      <stop offset="0.2" stop-color="#bac0c5"/>
      <stop offset="0.43" stop-color="#aab1b5"/>
      <stop offset="0.52" stop-color="#b7bec2"/>
      <stop offset="0.84" stop-color="#e3eaed"/>
      <stop offset="1" stop-color="#f4fbfe"/>
    </linearGradient>
    <linearGradient id="Silver_01-2" x1="59.82" x2="66.64" xlink:href="#Silver_01" y1="105.82" y2="105.82"/>
    <linearGradient gradientUnits="userSpaceOnUse" id="linear-gradient" x1="8.94" x2="84.57" y1="27.87" y2="27.87">
      <stop offset="0" stop-color="#e31b22"/>
      <stop offset="0.89" stop-color="#9e2126"/>
      <stop offset="1" stop-color="#e31b22"/>
    </linearGradient>
    <linearGradient id="linear-gradient-2" x1="8.94" x2="84.57" xlink:href="#linear-gradient" y1="31.25" y2="31.25"/>
    <linearGradient id="linear-gradient-3" x1="8.94" x2="84.57" xlink:href="#linear-gradient" y1="34.66" y2="34.66"/>
    <linearGradient id="linear-gradient-4" x1="8.94" x2="84.57" xlink:href="#linear-gradient" y1="38.37" y2="38.37"/>
    <linearGradient id="linear-gradient-5" x1="8.94" x2="84.57" xlink:href="#linear-gradient" y1="41.75" y2="41.75"/>
    <linearGradient id="linear-gradient-6" x1="8.94" x2="84.57" xlink:href="#linear-gradient" y1="45.16" y2="45.16"/>
    <linearGradient id="linear-gradient-7" x1="8.94" x2="84.57" xlink:href="#linear-gradient" y1="48.84" y2="48.84"/>
    <linearGradient id="linear-gradient-8" x1="8.94" x2="84.57" xlink:href="#linear-gradient" y1="52.23" y2="52.23"/>
    <linearGradient id="linear-gradient-9" x1="8.94" x2="84.57" xlink:href="#linear-gradient" y1="55.63" y2="55.63"/>
    <linearGradient id="linear-gradient-10" x1="8.94" x2="84.57" xlink:href="#linear-gradient" y1="59.29" y2="59.29"/>
    <linearGradient id="linear-gradient-11" x1="8.94" x2="84.57" xlink:href="#linear-gradient" y1="62.68" y2="62.68"/>
    <linearGradient id="linear-gradient-12" x1="8.94" x2="84.57" xlink:href="#linear-gradient" y1="66.08" y2="66.08"/>
    <linearGradient id="linear-gradient-13" x1="8.94" x2="84.57" xlink:href="#linear-gradient" y1="69.77" y2="69.77"/>
    <linearGradient id="linear-gradient-14" x1="8.94" x2="84.57" xlink:href="#linear-gradient" y1="73.15" y2="73.15"/>
    <linearGradient id="linear-gradient-15" x1="8.94" x2="84.57" xlink:href="#linear-gradient" y1="76.56" y2="76.56"/>
    <linearGradient id="linear-gradient-16" x1="8.94" x2="84.57" xlink:href="#linear-gradient" y1="80.22" y2="80.22"/>
    <linearGradient id="linear-gradient-17" x1="8.94" x2="84.57" xlink:href="#linear-gradient" y1="83.6" y2="83.6"/>
    <linearGradient id="linear-gradient-18" x1="8.94" x2="84.57" xlink:href="#linear-gradient" y1="87.01" y2="87.01"/>
    <linearGradient id="linear-gradient-19" x1="8.94" x2="84.57" xlink:href="#linear-gradient" y1="90.65" y2="90.65"/>
    <linearGradient id="linear-gradient-20" x1="8.94" x2="84.57" xlink:href="#linear-gradient" y1="94.03" y2="94.03"/>
    <linearGradient id="linear-gradient-21" x1="8.94" x2="84.57" xlink:href="#linear-gradient" y1="97.43" y2="97.43"/>
    <linearGradient id="linear-gradient-22" x1="10.84" x2="17.79" xlink:href="#linear-gradient" y1="109.24" y2="109.24"/>
    <linearGradient id="linear-gradient-23" x1="8.96" x2="26" xlink:href="#linear-gradient" y1="101.6" y2="101.6"/>
    <linearGradient id="linear-gradient-24" x1="15.39" x2="26" xlink:href="#linear-gradient" y1="107.42" y2="107.42"/>
    <linearGradient id="Silver_01-3" x1="28.65" x2="36.25" xlink:href="#Silver_01" y1="113.94" y2="113.94"/>
    <linearGradient id="Silver_01-4" x1="37.48" x2="44.3" xlink:href="#Silver_01" y1="113.12" y2="113.12"/>
    <linearGradient gradientUnits="userSpaceOnUse" id="linear-gradient-25" x2="93.54" y1="20.21" y2="20.21">
      <stop offset="0" stop-color="#e31b22"/>
      <stop offset="0.89" stop-color="#610f12"/>
      <stop offset="1" stop-color="#e31b22"/>
    </linearGradient>
    <linearGradient id="linear-gradient-26" x1="15.43" x2="78.11" xlink:href="#linear-gradient" y1="6.93" y2="6.93"/>
    <linearGradient gradientTransform="matrix(-1, 0, 0, 1, 249.57, 0)" id="linear-gradient-27" x1="166.84" x2="173.8" xlink:href="#linear-gradient" y1="108.56" y2="108.56"/>
    <linearGradient gradientTransform="matrix(-1, 0, 0, 1, 249.57, 0)" id="linear-gradient-28" x1="164.97" x2="182" xlink:href="#linear-gradient" y1="100.7" y2="100.7"/>
    <linearGradient gradientTransform="matrix(-1, 0, 0, 1, 249.57, 0)" id="linear-gradient-29" x1="171.4" x2="182" xlink:href="#linear-gradient" y1="106.74" y2="106.74"/>
    <linearGradient data-name="Carbon 05" gradientUnits="userSpaceOnUse" id="Carbon_05" x1="53.15" x2="56.67" y1="105.36" y2="105.36">
      <stop offset="0" stop-color="#040404"/>
      <stop offset="0.13" stop-color="#0a0a0a"/>
      <stop offset="0.25" stop-color="#131313"/>
      <stop offset="0.38" stop-color="#1f1f1f"/>
      <stop offset="0.5" stop-color="#414141"/>
      <stop offset="0.64" stop-color="#1f1f1f"/>
      <stop offset="0.75" stop-color="#131313"/>
      <stop offset="0.88" stop-color="#0a0a0a"/>
      <stop offset="1" stop-color="#040404"/>
    </linearGradient>
    <linearGradient id="Carbon_05-2" x1="61.44" x2="64.96" xlink:href="#Carbon_05" y1="104.85" y2="104.85"/>
    <linearGradient id="Carbon_05-3" x1="54.43" x2="55.4" xlink:href="#Carbon_05" y1="105.36" y2="105.36"/>
  </defs>
  <title>ArcadeButton</title>
  <g data-name="Layer 1" id="Layer_1">
    <path d="M26.9,99.16H46.38a0,0,0,0,1,0,0v5.19a1.54,1.54,0,0,1-1.54,1.54H28.45a1.54,1.54,0,0,1-1.54-1.54V99.16A0,0,0,0,1,26.9,99.16Z" style="stroke: #000;stroke-miterlimit: 10;stroke-width: 0.19965314827363095px;fill: url(#Carbon_03)"/>
    <path d="M51,98.67v13.7a2.25,2.25,0,0,0,2.25,2.25h3.1a2.26,2.26,0,0,0,2.26-2.25V98.67Zm3.75,13a1.47,1.47,0,1,1,1.46-1.47A1.47,1.47,0,0,1,54.74,111.66Z" style="fill: url(#Silver_01)"/>
    <path d="M59.82,98.67V111a2,2,0,0,0,2,2h2.78a2,2,0,0,0,2-2V98.67Zm3.36,11.51a1.32,1.32,0,1,1,1.31-1.31A1.32,1.32,0,0,1,63.18,110.18Z" style="fill: url(#Silver_01-2)"/>
    <polygon points="10.87 26.9 8.94 28.49 10.87 30.31 82.41 29.06 84.57 26.9 82.64 25.43 10.87 26.9" style="stroke: #000;stroke-miterlimit: 10;stroke-width: 0.19314027261687353px;fill: url(#linear-gradient)"/>
    <polygon points="10.87 30.28 8.94 31.87 10.87 33.69 82.41 32.44 84.57 30.28 82.64 28.81 10.87 30.28" style="stroke: #000;stroke-miterlimit: 10;stroke-width: 0.19314027261687353px;fill: url(#linear-gradient-2)"/>
    <polygon points="10.87 33.69 8.94 35.28 10.87 37.1 82.41 35.85 84.57 33.69 82.64 32.22 10.87 33.69" style="stroke: #000;stroke-miterlimit: 10;stroke-width: 0.19314027261687353px;fill: url(#linear-gradient-3)"/>
    <polygon points="10.87 37.4 8.94 38.99 10.87 40.81 82.41 39.56 84.57 37.4 82.64 35.93 10.87 37.4" style="stroke: #000;stroke-miterlimit: 10;stroke-width: 0.19314027261687353px;fill: url(#linear-gradient-4)"/>
    <polygon points="10.87 40.78 8.94 42.37 10.87 44.19 82.41 42.94 84.57 40.78 82.64 39.31 10.87 40.78" style="stroke: #000;stroke-miterlimit: 10;stroke-width: 0.19314027261687353px;fill: url(#linear-gradient-5)"/>
    <polygon points="10.87 44.19 8.94 45.78 10.87 47.6 82.41 46.35 84.57 44.19 82.64 42.72 10.87 44.19" style="stroke: #000;stroke-miterlimit: 10;stroke-width: 0.19314027261687353px;fill: url(#linear-gradient-6)"/>
    <polygon points="10.87 47.88 8.94 49.47 10.87 51.28 82.41 50.03 84.57 47.88 82.64 46.4 10.87 47.88" style="stroke: #000;stroke-miterlimit: 10;stroke-width: 0.19314027261687353px;fill: url(#linear-gradient-7)"/>
    <polygon points="10.87 51.26 8.94 52.85 10.87 54.67 82.41 53.42 84.57 51.26 82.64 49.78 10.87 51.26" style="stroke: #000;stroke-miterlimit: 10;stroke-width: 0.19314027261687353px;fill: url(#linear-gradient-8)"/>
    <polygon points="10.87 54.67 8.94 56.26 10.87 58.07 82.41 56.83 84.57 54.67 82.64 53.19 10.87 54.67" style="stroke: #000;stroke-miterlimit: 10;stroke-width: 0.19314027261687353px;fill: url(#linear-gradient-9)"/>
    <polygon points="10.87 58.33 8.94 59.92 10.87 61.74 82.41 60.49 84.57 58.33 82.64 56.85 10.87 58.33" style="stroke: #000;stroke-miterlimit: 10;stroke-width: 0.19314027261687353px;fill: url(#linear-gradient-10)"/>
    <polygon points="10.87 61.71 8.94 63.3 10.87 65.12 82.41 63.87 84.57 61.71 82.64 60.23 10.87 61.71" style="stroke: #000;stroke-miterlimit: 10;stroke-width: 0.19314027261687353px;fill: url(#linear-gradient-11)"/>
    <polygon points="10.87 65.12 8.94 66.71 10.87 68.53 82.41 67.28 84.57 65.12 82.64 63.64 10.87 65.12" style="stroke: #000;stroke-miterlimit: 10;stroke-width: 0.19314027261687353px;fill: url(#linear-gradient-12)"/>
    <polygon points="10.87 68.8 8.94 70.39 10.87 72.21 82.41 70.96 84.57 68.8 82.64 67.33 10.87 68.8" style="stroke: #000;stroke-miterlimit: 10;stroke-width: 0.19314027261687353px;fill: url(#linear-gradient-13)"/>
    <polygon points="10.87 72.18 8.94 73.77 10.87 75.59 82.41 74.34 84.57 72.18 82.64 70.71 10.87 72.18" style="stroke: #000;stroke-miterlimit: 10;stroke-width: 0.19314027261687353px;fill: url(#linear-gradient-14)"/>
    <polygon points="10.87 75.59 8.94 77.18 10.87 79 82.41 77.75 84.57 75.59 82.64 74.11 10.87 75.59" style="stroke: #000;stroke-miterlimit: 10;stroke-width: 0.19314027261687353px;fill: url(#linear-gradient-15)"/>
    <polygon points="10.87 79.25 8.94 80.84 10.87 82.66 82.41 81.41 84.57 79.25 82.64 77.78 10.87 79.25" style="stroke: #000;stroke-miterlimit: 10;stroke-width: 0.19314027261687353px;fill: url(#linear-gradient-16)"/>
    <polygon points="10.87 82.64 8.94 84.22 10.87 86.04 82.41 84.79 84.57 82.64 82.64 81.16 10.87 82.64" style="stroke: #000;stroke-miterlimit: 10;stroke-width: 0.19314027261687353px;fill: url(#linear-gradient-17)"/>
    <polygon points="10.87 86.04 8.94 87.63 10.87 89.45 82.41 88.2 84.57 86.04 82.64 84.57 10.87 86.04" style="stroke: #000;stroke-miterlimit: 10;stroke-width: 0.19314027261687353px;fill: url(#linear-gradient-18)"/>
    <polygon points="10.87 89.68 8.94 91.27 10.87 93.09 82.41 91.84 84.57 89.68 82.64 88.2 10.87 89.68" style="stroke: #000;stroke-miterlimit: 10;stroke-width: 0.19314027261687353px;fill: url(#linear-gradient-19)"/>
    <polygon points="10.87 93.06 8.94 94.65 10.87 96.47 82.41 95.22 84.57 93.06 82.64 91.59 10.87 93.06" style="stroke: #000;stroke-miterlimit: 10;stroke-width: 0.19314027261687353px;fill: url(#linear-gradient-20)"/>
    <polygon points="10.87 96.47 8.94 98.06 10.87 99.88 82.41 98.63 84.57 96.47 82.64 94.99 10.87 96.47" style="stroke: #000;stroke-miterlimit: 10;stroke-width: 0.19314027261687353px;fill: url(#linear-gradient-21)"/>
    <path d="M11.35,103.58l-.51,11.5,4.38-.09a4.53,4.53,0,0,0,2.56-4.43c-.21-3.23-.09-7.15-.09-7.15Z" style="stroke: #000;stroke-miterlimit: 10;stroke-width: 0.19314027261687353px;fill: url(#linear-gradient-22)"/>
    <path d="M11.48,102.34l-.13,1.24,6.34-.17.09-.68a2.25,2.25,0,0,1,.77-2.52S26,99.62,26,99.62l-15.2.17L9,102.51Z" style="stroke: #000;stroke-miterlimit: 10;stroke-width: 0.19314027261687353px;fill: url(#linear-gradient-23)"/>
    <path d="M15.39,115s6.26,1.41,7.16-2.64a39.59,39.59,0,0,0,.64-8.94L26,99.62l-7.24.51a2.92,2.92,0,0,0-1.15,2c0,1.2.13,9.41.13,9.41A4.6,4.6,0,0,1,15.39,115Z" style="stroke: #000;stroke-miterlimit: 10;stroke-width: 0.19314027261687353px;fill: url(#linear-gradient-24)"/>
    <path d="M28.65,106v13.7a2.25,2.25,0,0,0,2.25,2.26H34a2.26,2.26,0,0,0,2.25-2.26V106Zm3.74,13a1.47,1.47,0,1,1,1.47-1.47A1.47,1.47,0,0,1,32.39,119Z" style="fill: url(#Silver_01-3)"/>
    <path d="M37.48,106v12.29a2,2,0,0,0,2,2h2.78a2,2,0,0,0,2-2V106Zm3.35,11.52a1.32,1.32,0,1,1,1.32-1.32A1.32,1.32,0,0,1,40.83,117.48Z" style="fill: url(#Silver_01-4)"/>
    <path d="M9.31,13.85C2.38,16,0,26.57,0,26.57H93.54S91.16,16,84.23,13.85H8.94" style="fill: url(#linear-gradient-25)"/>
    <path d="M78.11,13.85H15.43V4.51C15.43,2,29.46,0,46.77,0S78.11,2,78.11,4.51v8.75" style="fill: url(#linear-gradient-26)"/>
    <path d="M82.21,102.9l.51,11.5-4.39-.09a4.53,4.53,0,0,1-2.55-4.43c.21-3.24.08-7.15.08-7.15Z" style="stroke: #000;stroke-miterlimit: 10;stroke-width: 0.19314027261687353px;fill: url(#linear-gradient-27)"/>
    <path d="M82.08,101.66l.13,1.24-6.35-.17-.08-.68A2.25,2.25,0,0,0,75,99.53s-7.45-.59-7.45-.59l14.93-.43,2.1,3.32Z" style="stroke: #000;stroke-miterlimit: 10;stroke-width: 0.19314027261687353px;fill: url(#linear-gradient-28)"/>
    <path d="M78.16,114.31s-6.26,1.41-7.15-2.64a39.61,39.61,0,0,1-.64-8.94l-2.81-3.79,7.24.51a2.92,2.92,0,0,1,1.15,2c0,1.19-.13,9.41-.13,9.41A4.57,4.57,0,0,0,78.16,114.31Z" style="stroke: #000;stroke-miterlimit: 10;stroke-width: 0.19314027261687353px;fill: url(#linear-gradient-29)"/>
  </g>
  <g id="Connectors">
    <circle cx="32.37" cy="117.49" data-cir-type="male" id="circuitoCon_BUTTON_SIG" r="1.49" style="fill: none"/>
    <circle cx="40.83" cy="116.16" data-cir-type="male" id="circuitoCon_BUTTON_VCC" r="1.35" style="fill: none"/>
    <circle cx="54.69" cy="110.22" data-cir-type="male" id="circuitoCon_LED_VCC" r="1.49" style="fill: none"/>
    <circle cx="63.15" cy="108.89" data-cir-type="male" id="circuitoCon_LED_GND" r="1.35" style="fill: none"/>
    <line style="fill: none;stroke-linecap: round;stroke-linejoin: round;stroke-width: 0.9657013427783786px;stroke: url(#Carbon_05)" x1="53.64" x2="56.19" y1="105.36" y2="105.36"/>
    <line style="stroke-linecap: round;stroke-miterlimit: 10;stroke-width: 0.9657013427783786px;stroke: url(#Carbon_05-2)" x1="61.93" x2="64.48" y1="104.85" y2="104.85"/>
    <line style="fill: none;stroke-linecap: round;stroke-linejoin: round;stroke-width: 0.9657013427783786px;stroke: url(#Carbon_05-3)" x1="54.91" x2="54.91" y1="104.1" y2="106.61"/>
  </g>
</svg>