<?xml version="1.0" ?><svg data-name="Layer 11" height="26.09mm" id="Layer_11" viewBox="0 0 139.56 73.95" width="49.23mm" xmlns="http://www.w3.org/2000/svg">
  <title>Ultrasonic Sensor - HC-SR04</title>
  <g id="Background">
    <path d="M2.94,1V60.72H137.36V1ZM5.5,10a.62.62,0,1,1,.62-.62A.62.62,0,0,1,5.5,10ZM13,3.39a.62.62,0,1,1,.62-.62A.62.62,0,0,1,13,3.39Z" style="fill: #143975"/>
  </g>
  <g data-name="Layer 10" id="Layer_10">
    <polygon points="83.35 13.15 86.71 13.15 86.98 2.77 84.69 2.94 83.35 13.15" style="fill: #fff"/>
    <polyline points="86.98 18.08 85.16 18.08 79.9 13.55" style="fill: none;stroke: #24224a;stroke-miterlimit: 10"/>
    <polyline points="88.62 15.49 86.09 15.49 82.72 12.27" style="fill: none;stroke: #24224a;stroke-miterlimit: 10"/>
  </g>
  <g id="Cercuri">
    <path d="M27.35,7.44A21.27,21.27,0,1,0,48.62,28.71,21.41,21.41,0,0,0,27.35,7.44ZM28.19,45A16.31,16.31,0,1,1,44.36,28.71,16.24,16.24,0,0,1,28.19,45Z" style="fill: #191115"/>
    <path d="M28.21,12.33a16.61,16.61,0,0,0,0,33.22,16.61,16.61,0,0,0,0-33.22Zm.25,26.9A10.85,10.85,0,1,1,39.31,28.38,10.85,10.85,0,0,1,28.46,39.24Z" style="fill: #46403a"/>
    <circle cx="28.47" cy="28.27" r="10.86" style="fill: none"/>
    <circle cx="6.08" cy="55.99" r="2.77" style="fill: #fff"/>
    <circle cx="5.99" cy="56.03" r="3.05" style="fill: none;stroke: #9a858a;stroke-miterlimit: 10;stroke-width: 0.600000023841858px"/>
    <circle cx="6.41" cy="4.35" r="2.77" style="fill: #fff"/>
    <circle cx="6.32" cy="4.39" r="3.05" style="fill: none;stroke: #9a858a;stroke-miterlimit: 10;stroke-width: 0.600000023841858px"/>
    <circle cx="133.86" cy="4.35" r="2.77" style="fill: #fff"/>
    <circle cx="133.86" cy="4.35" r="3.05" style="fill: none;stroke: #9a858a;stroke-miterlimit: 10;stroke-width: 0.600000023841858px"/>
    <circle cx="133.58" cy="56.49" r="2.77" style="fill: #fff"/>
    <circle cx="133.49" cy="56.53" r="3.05" style="fill: none;stroke: #9a858a;stroke-miterlimit: 10;stroke-width: 0.600000023841858px"/>
    <path d="M20.56,20.83l6.31,7.44-7.27,6.29A11,11,0,0,1,17.69,26,10.42,10.42,0,0,1,20.56,20.83Z" style="fill: #806757"/>
    <path d="M20.56,20.83l6.31,7.44L30.5,17.6a10.62,10.62,0,0,0-9.94,3.24Z" style="fill: #564b51"/>
    <path d="M30.5,17.6,26.87,28.27l10.56-6.13A11.06,11.06,0,0,0,30.5,17.6Z" style="fill: #7f675c"/>
    <path d="M26.87,28.27l10.56-6.13a10.31,10.31,0,0,1,.75,11Z" style="fill: #5f5a59"/>
    <path d="M26.87,28.27l-7.35,6.27a10.9,10.9,0,0,0,10.42,4.69c5.59-.77,8.07-5.72,8.25-6.1Z" style="fill: #d5d5ce"/>
    <path d="M110.92,8.7A20.79,20.79,0,1,0,131.7,29.49,20.92,20.92,0,0,0,110.92,8.7Zm.82,36.72a15.94,15.94,0,1,1,15.8-15.94A15.87,15.87,0,0,1,111.74,45.42Z" style="fill: #191115"/>
    <path d="M111.75,13.48a16.23,16.23,0,1,0,16,16.36A16.25,16.25,0,0,0,111.75,13.48ZM112,39.78A10.61,10.61,0,1,1,122.6,29.17,10.61,10.61,0,0,1,112,39.78Z" style="fill: #46403a"/>
    <circle cx="112.01" cy="29.06" r="10.62" style="fill: none"/>
    <path d="M104.28,21.79l6.17,7.27-7.1,6.14a10.77,10.77,0,0,1-1.88-8.41A10.18,10.18,0,0,1,104.28,21.79Z" style="fill: #806757"/>
    <path d="M104.28,21.79l6.17,7.27L114,18.63a10.38,10.38,0,0,0-9.71,3.16Z" style="fill: #564b51"/>
    <path d="M114,18.63l-3.54,10.43,10.32-6A10.81,10.81,0,0,0,114,18.63Z" style="fill: #7f675c"/>
    <path d="M110.45,29.06l10.32-6a10.08,10.08,0,0,1,.73,10.73Z" style="fill: #5f5a59"/>
    <path d="M110.45,29.06l-7.19,6.13a10.65,10.65,0,0,0,10.18,4.58c5.46-.76,7.88-5.59,8.06-6Z" style="fill: #d5d5ce"/>
    <path d="M56.59,29.89a2.33,2.33,0,0,1,1.06,1.38,2.41,2.41,0,0,1-.11,1.48,2.81,2.81,0,0,1-.4.72,3,3,0,0,1-1,.83" style="fill: #24224a"/>
    <path d="M55.7,36.23l0,.07a1.6,1.6,0,0,1-.89,2.82l-.58,1.39a3.61,3.61,0,0,0,2-.75,3.56,3.56,0,0,0,1-1.32A3.12,3.12,0,0,0,56,35" style="fill: #24224a"/>
    <path d="M51.42,45.11l1.2-.09a2.77,2.77,0,0,0,2,1,2.71,2.71,0,0,0,1.75-.66,2.69,2.69,0,0,0-.6-4.54,3.06,3.06,0,0,0-1.6-.27l-.81,1.56a1.71,1.71,0,0,1,1.41-.38,1.62,1.62,0,0,1,.89.55,1.37,1.37,0,0,1,.44.86,1.42,1.42,0,0,1-.45,1.13,1.81,1.81,0,0,1-1.28.51,1.92,1.92,0,0,1-1.51-1l-.59.08Z" style="fill: #24224a"/>
    <circle cx="54.47" cy="43.12" r="0.62" style="fill: #24224a"/>
    <circle cx="81.45" cy="31.3" r="0.62" style="fill: #24224a"/>
    <circle cx="91.39" cy="55.53" r="0.62" style="fill: #24224a"/>
    <circle cx="85.68" cy="51.26" r="0.62" style="fill: #24224a"/>
    <circle cx="77.47" cy="43.93" r="0.62" style="fill: #24224a"/>
    <circle cx="62.72" cy="49.58" r="0.62" style="fill: #24224a"/>
    <circle cx="56.94" cy="16.12" r="0.62" style="fill: #24224a"/>
    <circle cx="64.12" cy="16.12" r="0.62" style="fill: #24224a"/>
    <circle cx="69.88" cy="15.21" r="0.62" style="fill: #24224a"/>
    <path d="M95.33,51,92.1,54.23a2,2,0,0,0-2.19.79,1.84,1.84,0,0,0,.74,2.27,1.73,1.73,0,0,0,2.11-.67,1.3,1.3,0,0,0,.31-.73,1.32,1.32,0,0,0-.26-.9l3.42-3.27,1,.65L94,55.63a2.37,2.37,0,0,1-.09,1.78,2.26,2.26,0,0,1-.76.87,3.42,3.42,0,0,1-3.83-.33,3.51,3.51,0,0,1-.73-2.72,3.32,3.32,0,0,1,.86-1.68,2.36,2.36,0,0,1,1.88-.43l3-3Z" style="fill: #24224a"/>
    <circle cx="44.03" cy="53.7" r="0.62" style="fill: #24224a"/>
    <circle cx="5.5" cy="49.06" r="0.62" style="stroke: #000;stroke-miterlimit: 10;stroke-width: 0.600000023841858px"/>
  </g>
  <g id="Conectori">
    <path d="M84.12,19.54,80.81,16l-9.46-.15a2.49,2.49,0,0,1-.71.63,1.71,1.71,0,0,1-1.54,0,1.63,1.63,0,0,1-.76-1L69,13.71H59.12a8.42,8.42,0,0,1-2.2-.87,8.32,8.32,0,0,1-.86-.56l-.8.6-2.51,2.21.81,1.38.45-.34.91,2.09,10.15,9.15-.22,23.28-1.5,3.26-.28,3.5,1.25,2,3.19.26,2.81-2.16,1.13-.75V54.43l1.25-1.31.22-.28.19-4.44L69.81,45l.07-22-5.57-5.31a1.61,1.61,0,0,1-1.25-.33,1.58,1.58,0,0,1-.55-1,1.21,1.21,0,0,1,.2-1A1.2,1.2,0,0,1,63.5,15a1.89,1.89,0,0,1,1.28.06,1.81,1.81,0,0,1,.64.47l.11,1.22,6.09,6-.19,21.84,3.19,2.13v5.81l1.31,2.09v2.94l-.28.91,1.19-2.16V53.87l-1.13-2,0-5.9-3-2.15L73,22.4l-3.28-3.12,2.47-1.94,8.06.17,3.42,3.63,2.9.33.65-1.56ZM68,26.27,67.65,52.9a3.26,3.26,0,0,1,.84,1.41,4.76,4.76,0,0,1,0,1.95,4.44,4.44,0,0,1-.43,1.86,2.83,2.83,0,0,1-1.9,1.09,3.38,3.38,0,0,1-1.27-.7,3.65,3.65,0,0,1-1.16-2.44,2.84,2.84,0,0,1,1.9-3.24L66.31,27l-9.15-9.16L56,17.62a1.91,1.91,0,0,1-.66-.75,2,2,0,0,1,0-1.55,2,2,0,0,1,1.36-.7,1.9,1.9,0,0,1,.94.19,1.73,1.73,0,0,1,.81,1,1.66,1.66,0,0,1,0,.9Z" style="fill: #24224a"/>
    <path d="M58.37,15.83a1.73,1.73,0,0,0-.81-1,1.9,1.9,0,0,0-.94-.19,2,2,0,0,0-1.36.7,2,2,0,0,0,0,1.55,1.91,1.91,0,0,0,.66.75l1.19.18L66.31,27l-.69,25.88a3.1,3.1,0,0,0-2,3.22,4.51,4.51,0,0,0,1.35,2.39,4.3,4.3,0,0,0,1.21.77,3.13,3.13,0,0,0,2.62-3,4.54,4.54,0,0,0-1.12-3.28L68,26.27l-9.65-9.53A1.66,1.66,0,0,0,58.37,15.83Z" style="fill: none"/>
    <path d="M84.28,29.89H82.9a2.13,2.13,0,0,0-3.81,1.7,2.39,2.39,0,0,0,4.22,1.18l1.16-.22" style="fill: none;stroke: #24224a;stroke-miterlimit: 10"/>
    <path d="M60.87,55.69a3,3,0,0,0-.52-3.13,2.91,2.91,0,0,0-1.81-.88,3.11,3.11,0,0,0-2.74,4.15" style="fill: none;stroke: #24224a;stroke-miterlimit: 10"/>
    <path d="M78.62,55.56a2.59,2.59,0,0,1,.52-2.17,2.51,2.51,0,0,1,1.61-.83" style="fill: none;stroke: #24224a;stroke-miterlimit: 10"/>
    <path d="M81.94,52.46a2.49,2.49,0,0,1,1.88,3" style="fill: none;stroke: #24224a;stroke-miterlimit: 10"/>
  </g>
  <g id="Text">
    <g>
      <path d="M57.19,20.76v1.73a.3.3,0,1,1-.6,0V18.42a.3.3,0,1,1,.6,0v1.73H59V18.42a.3.3,0,1,1,.6,0v4.07a.3.3,0,1,1-.6,0V20.76Z" style="fill: #f6f5ef"/>
      <path d="M62.52,22.79a.9.9,0,0,1-.9-.57l-.55-1.12a1.35,1.35,0,0,1-.16-.63,1.31,1.31,0,0,1,.17-.67l.55-1.11a.9.9,0,0,1,.92-.58h1a.28.28,0,0,1,.3.3.29.29,0,0,1-.3.3h-1c-.26,0-.3,0-.41.25l-.52,1a.93.93,0,0,0-.13.46.83.83,0,0,0,.13.41l.51,1c.12.25.18.26.45.26h1a.28.28,0,0,1,.3.3.29.29,0,0,1-.3.3Z" style="fill: #f6f5ef"/>
      <path d="M67.41,20.1c.25,0,.36.1.36.37s-.11.37-.36.37H66c-.25,0-.36-.1-.36-.37s.11-.37.36-.37Z" style="fill: #f6f5ef"/>
      <path d="M72.06,21.61a.78.78,0,0,1,.21.5.68.68,0,0,1-.76.68H70.2a.88.88,0,0,1-.61-.19.76.76,0,0,1-.28-.56.32.32,0,0,1,.32-.36.29.29,0,0,1,.28.31c0,.18.1.2.26.2h1.3s.2,0,.2-.07-.08-.14-.11-.17L69.51,19.3a.72.72,0,0,1-.2-.49.67.67,0,0,1,.32-.58.8.8,0,0,1,.5-.11H71.4a.85.85,0,0,1,.59.2.82.82,0,0,1,.28.57.31.31,0,0,1-.31.35.27.27,0,0,1-.29-.28c0-.2-.1-.23-.29-.23H70.11c-.07,0-.2,0-.2.08s.07.13.09.16Z" style="fill: #f6f5ef"/>
      <path d="M74.23,22.49a.3.3,0,1,1-.6,0V18.12h2a.91.91,0,0,1,.95.87v.41a.87.87,0,0,1-.95.85h-.55l1.35,1.93a.6.6,0,0,1,.15.32.29.29,0,0,1-.31.28.32.32,0,0,1-.26-.17l-1.66-2.36h-.14Zm0-2.83h1.33c.17,0,.43,0,.43-.25V19c0-.24-.25-.27-.43-.27H74.23Z" style="fill: #f6f5ef"/>
      <path d="M80.31,18.12a.6.6,0,0,1,.6.6v3.47a.59.59,0,0,1-.6.6H78.55a.59.59,0,0,1-.6-.6V18.72a.6.6,0,0,1,.6-.6Zm0,4.07V18.72H78.55v3.47Z" style="fill: #f6f5ef"/>
      <path d="M84.33,20.67V18.93a.3.3,0,1,1,.6,0v1.73a.3.3,0,0,1,0,.6v1.22a.3.3,0,1,1-.6,0V21.27H82.57V18.42a.3.3,0,1,1,.6,0v2.24Z" style="fill: #f6f5ef"/>
    </g>
    <path d="M12.07,53.92v.32a.39.39,0,0,1-.45.45.39.39,0,0,1-.45-.45V53h4.45v1.22a.45.45,0,0,1-.9,0v-.32h-.87v5.65a.45.45,0,1,1-.9,0V53.92Z" style="fill: #f6f5ef"/>
    <path d="M125.48,59.24a.45.45,0,1,1-.9,0V52.68h3A1.36,1.36,0,0,1,129,54v.62a1.31,1.31,0,0,1-1.42,1.28h-.83l2,2.9a.9.9,0,0,1,.23.48.43.43,0,0,1-.46.42.48.48,0,0,1-.4-.25l-2.48-3.55h-.21Zm0-4.25h2c.25,0,.65,0,.65-.38V54c0-.36-.37-.41-.64-.41h-2Z" style="fill: #f6f5ef"/>
    <g>
      <path d="M58.11,48.95h-.64a.2.2,0,1,1,0-.4h.63a.4.4,0,0,1,.16,0l1.95.76c.1,0,.18.08.18.2s-.08.16-.18.2l-1.95.76a.4.4,0,0,1-.16,0h-.63a.2.2,0,1,1,0-.4h.64l1.53-.59Z" style="fill: #f6f5ef"/>
      <path d="M59.12,47.92a.54.54,0,0,1-.5-.23l-.24-.28a.61.61,0,0,1-.15-.5V46.3c0-.13,0-.26.19-.26s.19.15.19.26V47a.36.36,0,0,0,.1.22l.2.23c0,.06.09.1.16.1h.48c.08,0,.12,0,.16-.1l.2-.23A.37.37,0,0,0,60,47V46.3c0-.11,0-.26.19-.26s.19.14.19.26v.61a.61.61,0,0,1-.15.5l-.24.28a.54.54,0,0,1-.5.23Z" style="fill: #f6f5ef"/>
      <path d="M59.12,45a.54.54,0,0,1-.5-.23l-.24-.28a.61.61,0,0,1-.15-.5v-.61c0-.13,0-.26.19-.26s.19.15.19.26v.68a.36.36,0,0,0,.1.22l.2.23c0,.06.09.1.16.1h.48c.08,0,.12,0,.16-.1l.2-.23a.36.36,0,0,0,.1-.22v-.68c0-.11,0-.26.19-.26s.19.14.19.26V44a.61.61,0,0,1-.15.5l-.24.28a.54.54,0,0,1-.5.23Z" style="fill: #f6f5ef"/>
    </g>
    <g>
      <path d="M65,49.9h.14a.2.2,0,0,1,0,.4h-.54v-2h.54a.2.2,0,0,1,0,.4H65v.39h2.51a.2.2,0,1,1,0,.4H65Z" style="fill: #f6f5ef"/>
      <path d="M65.81,47.93c-.14,0-.28,0-.28-.19s.13-.19.26-.19h.16l-.25-.3a.58.58,0,0,1-.16-.34V46.6a.51.51,0,0,1,.15-.38.56.56,0,0,1,.44-.17c.13,0,.27,0,.27.19s-.11.2-.24.2a.25.25,0,0,0-.17,0c-.07,0-.07.14-.07.23v.11A.29.29,0,0,0,66,47l.44.54h1c.13,0,.26,0,.26.19s-.13.19-.26.19Z" style="fill: #f6f5ef"/>
      <path d="M67.28,43.92h-.81a.2.2,0,1,1,0-.4h1a.18.18,0,0,1,.2.2V45.3a.2.2,0,1,1-.4,0v-.59H65v.59a.2.2,0,1,1-.4,0v-1h2.71Z" style="fill: #f6f5ef"/>
      <path d="M66,41v1.38a.2.2,0,0,1-.2.2h-1a.2.2,0,0,1-.2-.2V40.85a.2.2,0,0,1,.2-.2h2.71a.2.2,0,0,1,.2.2V41a.2.2,0,0,1-.2.2.19.19,0,0,1-.2-.2Zm-.4,0H65v1.18h.62Z" style="fill: #f6f5ef"/>
    </g>
    <g>
      <path d="M74.62,49a.2.2,0,0,1,.4,0v1.78H71.91V49a.2.2,0,0,1,.4,0v1.38h1v-.59a.2.2,0,1,1,.4,0v.59h1Z" style="fill: #f6f5ef"/>
      <path d="M73.76,47.8a.54.54,0,0,1-.5-.23L73,47.29a.61.61,0,0,1-.15-.5v-.61c0-.13,0-.26.19-.26s.19.15.19.26v.68a.36.36,0,0,0,.1.22l.2.23c0,.06.09.1.16.1h.48c.08,0,.12,0,.16-.1l.2-.23a.36.36,0,0,0,.1-.22v-.68c0-.11,0-.26.19-.26s.19.14.19.26v.61a.61.61,0,0,1-.15.5l-.24.28a.54.54,0,0,1-.5.23Z" style="fill: #f6f5ef"/>
      <path d="M73.25,43.85a.24.24,0,0,0,0,.12l.36.57h1.12c.13,0,.26,0,.26.19s-.13.19-.26.19H72.34c-.13,0-.26,0-.26-.19s.13-.19.26-.19h.86l-.2-.31a.66.66,0,0,1-.13-.34v-.26a.51.51,0,0,1,.14-.37c.15-.17.31-.16.52-.17l1.21,0c.14,0,.29,0,.29.19s-.13.19-.26.19l-1.18,0c-.18,0-.33,0-.33.21Z" style="fill: #f6f5ef"/>
      <path d="M73.58,42a.52.52,0,0,1-.5-.24.69.69,0,0,1-.22-.54V41a.69.69,0,0,1,.22-.54.52.52,0,0,1,.5-.24h.72a.56.56,0,0,1,.52.26A.64.64,0,0,1,75,41v.3a.64.64,0,0,1-.2.52.56.56,0,0,1-.52.26Zm.72-.38c.08,0,.13,0,.23-.14a.35.35,0,0,0,.1-.26V41a.35.35,0,0,0-.1-.26c-.1-.11-.15-.14-.23-.14h-.72c-.08,0-.13,0-.23.14a.35.35,0,0,0-.1.26v.3a.35.35,0,0,0,.1.26c.1.11.15.14.23.14Z" style="fill: #f6f5ef"/>
    </g>
    <g>
      <path d="M81.44,49.54a.2.2,0,1,1-.4,0v-.79h.79a.59.59,0,0,1,.63.64v.69a.61.61,0,0,1-.16.46.58.58,0,0,1-.49.19h-1a.81.81,0,0,1-.58-.21l-.6-.47a.61.61,0,0,1-.27-.56V49a.2.2,0,0,1,.4,0v.48c0,.22,0,.2.16.34l.56.44a.76.76,0,0,0,.52.12h.78c.22,0,.29,0,.29-.28v-.64c0-.14,0-.26-.21-.26h-.41Z" style="fill: #f6f5ef"/>
      <path d="M81.08,47.42h1.12c.13,0,.26,0,.26.19s-.13.19-.26.19H80.59c-.14,0-.28,0-.28-.19s.14-.19.28-.19h.05l-.2-.31a.64.64,0,0,1-.13-.33v-.28a.49.49,0,0,1,.14-.36c.15-.17.31-.16.52-.17l1.21,0c.14,0,.29,0,.29.19s-.13.19-.26.19l-1.18,0c-.24,0-.33,0-.33.26v.13a.24.24,0,0,0,0,.12Z" style="fill: #f6f5ef"/>
      <path d="M80.3,43.87a.55.55,0,0,1,.21-.38l.07-.06h-.81c-.13,0-.26,0-.26-.19s.13-.19.26-.19h2.42c.13,0,.27,0,.27.19s-.13.19-.26.19h0l.08.08a.61.61,0,0,1,.2.37v.37a.59.59,0,0,1-.14.33l-.11.13a.5.5,0,0,1-.44.21H81a.5.5,0,0,1-.44-.21l-.11-.13a.48.48,0,0,1-.14-.37Zm1.31.67c.11,0,.24,0,.29-.06l.09-.12a.26.26,0,0,0,.08-.14v-.27a.32.32,0,0,0-.1-.19l-.19-.22c0-.06-.1-.11-.17-.11h-.48c-.07,0-.12.06-.17.11l-.19.22a.32.32,0,0,0-.1.19v.27a.26.26,0,0,0,.08.14l.09.12c0,.06.18.06.29.06Z" style="fill: #f6f5ef"/>
    </g>
  </g>
  <g data-name="Lini negre" id="Lini_negre">
    <path d="M58,60.72,56.62,59.4,55,59.18l.44-5.7,2.84-2L61.56,54v4.53l2.72,2.16h-4.1a1.93,1.93,0,0,0-2.17,0Z" style="fill: none"/>
  </g>
  <g id="Grilaj">
    <line style="fill: none;stroke: #000;stroke-miterlimit: 10;stroke-width: 0.600000023841858px" x1="92.24" x2="89.44" y1="17.88" y2="32.77"/>
    <line style="fill: none;stroke: #000;stroke-miterlimit: 10;stroke-width: 0.600000023841858px" x1="94.85" x2="90.52" y1="14.7" y2="37.69"/>
    <line style="fill: none;stroke: #000;stroke-miterlimit: 10;stroke-width: 0.600000023841858px" x1="97.53" x2="91.8" y1="12.17" y2="41.67"/>
    <line style="fill: none;stroke: #000;stroke-miterlimit: 10;stroke-width: 0.600000023841858px" x1="99.82" x2="93.58" y1="10.18" y2="43.67"/>
    <line style="fill: none;stroke: #000;stroke-miterlimit: 10;stroke-width: 0.600000023841858px" x1="102.05" x2="95.17" y1="9.11" y2="46.26"/>
    <line style="fill: none;stroke: #000;stroke-miterlimit: 10;stroke-width: 0.600000023841858px" x1="104.15" x2="96.7" y1="7.98" y2="47.78"/>
    <line style="fill: none;stroke: #000;stroke-miterlimit: 10;stroke-width: 0.600000023841858px" x1="106.31" x2="98.61" y1="7.39" y2="49.18"/>
    <line style="fill: none;stroke: #000;stroke-miterlimit: 10;stroke-width: 0.600000023841858px" x1="108.41" x2="100.14" y1="7.05" y2="50.77"/>
    <line style="fill: none;stroke: #000;stroke-miterlimit: 10;stroke-width: 0.600000023841858px" x1="110.39" x2="102.05" y1="7.05" y2="51.37"/>
    <line style="fill: none;stroke: #000;stroke-miterlimit: 10;stroke-width: 0.600000023841858px" x1="112.61" x2="104.15" y1="7.05" y2="52.24"/>
    <line style="fill: none;stroke: #000;stroke-miterlimit: 10;stroke-width: 0.600000023841858px" x1="114.84" x2="106.22" y1="7.39" y2="52.24"/>
    <line style="fill: none;stroke: #000;stroke-miterlimit: 10;stroke-width: 0.600000023841858px" x1="116.88" x2="107.9" y1="7.98" y2="52.83"/>
    <line style="fill: none;stroke: #000;stroke-miterlimit: 10;stroke-width: 0.600000023841858px" x1="118.37" x2="110.05" y1="7.98" y2="53.41"/>
    <line style="fill: none;stroke: #000;stroke-miterlimit: 10;stroke-width: 0.600000023841858px" x1="120.32" x2="112.39" y1="9.11" y2="52.83"/>
    <line style="fill: none;stroke: #000;stroke-miterlimit: 10;stroke-width: 0.600000023841858px" x1="122.19" x2="114.21" y1="10.18" y2="52.83"/>
    <line style="fill: none;stroke: #000;stroke-miterlimit: 10;stroke-width: 0.600000023841858px" x1="123.88" x2="116.35" y1="11.24" y2="52.24"/>
    <line style="fill: none;stroke: #000;stroke-miterlimit: 10;stroke-width: 0.600000023841858px" x1="125.33" x2="118.37" y1="13.37" y2="51.37"/>
    <line style="fill: none;stroke: #000;stroke-miterlimit: 10;stroke-width: 0.600000023841858px" x1="127.36" x2="120.74" y1="15.4" y2="50.22"/>
    <line style="fill: none;stroke: #000;stroke-miterlimit: 10;stroke-width: 0.600000023841858px" x1="128.72" x2="122.61" y1="17.18" y2="49.18"/>
    <line style="fill: none;stroke: #000;stroke-miterlimit: 10;stroke-width: 0.600000023841858px" x1="129.91" x2="125.33" y1="20.19" y2="46.77"/>
    <line style="fill: none;stroke: #000;stroke-miterlimit: 10;stroke-width: 0.600000023841858px" x1="131.46" x2="127.62" y1="24.66" y2="43.67"/>
    <line style="fill: none;stroke: #000;stroke-miterlimit: 10;stroke-width: 0.600000023841858px" x1="105.67" x2="121.02" y1="7.39" y2="10.18"/>
    <line style="fill: none;stroke: #000;stroke-miterlimit: 10;stroke-width: 0.600000023841858px" x1="102.05" x2="124.05" y1="8.78" y2="12.5"/>
    <line style="fill: none;stroke: #000;stroke-miterlimit: 10;stroke-width: 0.600000023841858px" x1="99.82" x2="126.24" y1="10.18" y2="14.7"/>
    <line style="fill: none;stroke: #000;stroke-miterlimit: 10;stroke-width: 0.600000023841858px" x1="97.97" x2="128.28" y1="11.24" y2="16.82"/>
    <line style="fill: none;stroke: #000;stroke-miterlimit: 10;stroke-width: 0.600000023841858px" x1="96.38" x2="129.54" y1="13.37" y2="19.08"/>
    <line style="fill: none;stroke: #000;stroke-miterlimit: 10;stroke-width: 0.600000023841858px" x1="94.21" x2="129.91" y1="14.7" y2="21.14"/>
    <line style="fill: none;stroke: #000;stroke-miterlimit: 10;stroke-width: 0.600000023841858px" x1="93.58" x2="130.63" y1="16.22" y2="23"/>
    <line style="fill: none;stroke: #000;stroke-miterlimit: 10;stroke-width: 0.600000023841858px" x1="92.24" x2="131.32" y1="17.88" y2="25.33"/>
    <line style="fill: none;stroke: #000;stroke-miterlimit: 10;stroke-width: 0.600000023841858px" x1="91.29" x2="131.84" y1="19.61" y2="26.92"/>
    <line style="fill: none;stroke: #000;stroke-miterlimit: 10;stroke-width: 0.600000023841858px" x1="90.84" x2="132.16" y1="21.14" y2="28.91"/>
    <line style="fill: none;stroke: #000;stroke-miterlimit: 10;stroke-width: 0.600000023841858px" x1="89.44" x2="132.16" y1="23.27" y2="30.7"/>
    <line style="fill: none;stroke: #000;stroke-miterlimit: 10;stroke-width: 0.600000023841858px" x1="88.48" x2="131.84" y1="24.66" y2="32.37"/>
    <line style="fill: none;stroke: #000;stroke-miterlimit: 10;stroke-width: 0.600000023841858px" x1="88.48" x2="131.32" y1="26.59" y2="34.5"/>
    <line style="fill: none;stroke: #000;stroke-miterlimit: 10;stroke-width: 0.600000023841858px" x1="88.74" x2="131.01" y1="28.28" y2="36.42"/>
    <line style="fill: none;stroke: #000;stroke-miterlimit: 10;stroke-width: 0.600000023841858px" x1="88.74" x2="130.63" y1="29.81" y2="38.15"/>
    <line style="fill: none;stroke: #000;stroke-miterlimit: 10;stroke-width: 0.600000023841858px" x1="88.48" x2="129.91" y1="32.35" y2="39.81"/>
    <line style="fill: none;stroke: #000;stroke-miterlimit: 10;stroke-width: 0.600000023841858px" x1="89.44" x2="129.54" y1="34.16" y2="41.21"/>
    <line style="fill: none;stroke: #000;stroke-miterlimit: 10;stroke-width: 0.600000023841858px" x1="89.44" x2="128.72" y1="36.08" y2="43"/>
    <line style="fill: none;stroke: #000;stroke-miterlimit: 10;stroke-width: 0.600000023841858px" x1="90.52" x2="127.62" y1="37.69" y2="44.73"/>
    <line style="fill: none;stroke: #000;stroke-miterlimit: 10;stroke-width: 0.600000023841858px" x1="90.52" x2="125.67" y1="39.81" y2="46.26"/>
    <line style="fill: none;stroke: #000;stroke-miterlimit: 10;stroke-width: 0.600000023841858px" x1="92.24" x2="124.46" y1="42.27" y2="47.78"/>
    <line style="fill: none;stroke: #000;stroke-miterlimit: 10;stroke-width: 0.600000023841858px" x1="93.58" x2="122.19" y1="44.13" y2="49.18"/>
    <line style="fill: none;stroke: #000;stroke-miterlimit: 10;stroke-width: 0.600000023841858px" x1="94.21" x2="119.24" y1="46.26" y2="50.77"/>
    <line style="fill: none;stroke: #000;stroke-miterlimit: 10;stroke-width: 0.600000023841858px" x1="97.97" x2="115.35" y1="48.52" y2="51.84"/>
    <line style="fill: none;stroke: #000;stroke-miterlimit: 10;stroke-width: 0.600000023841858px" x1="9.66" x2="6.91" y1="18.83" y2="32.83"/>
    <line style="fill: none;stroke: #000;stroke-miterlimit: 10;stroke-width: 0.600000023841858px" x1="11.39" x2="6.96" y1="14.1" y2="36.76"/>
    <line style="fill: none;stroke: #000;stroke-miterlimit: 10;stroke-width: 0.600000023841858px" x1="14.13" x2="8.27" y1="11.61" y2="40.68"/>
    <line style="fill: none;stroke: #000;stroke-miterlimit: 10;stroke-width: 0.600000023841858px" x1="16.47" x2="10.09" y1="9.65" y2="42.65"/>
    <line style="fill: none;stroke: #000;stroke-miterlimit: 10;stroke-width: 0.600000023841858px" x1="18.75" x2="11.72" y1="8.6" y2="45.2"/>
    <line style="fill: none;stroke: #000;stroke-miterlimit: 10;stroke-width: 0.600000023841858px" x1="20.9" x2="13.28" y1="7.49" y2="46.71"/>
    <line style="fill: none;stroke: #000;stroke-miterlimit: 10;stroke-width: 0.600000023841858px" x1="23.11" x2="15.24" y1="6.9" y2="48.08"/>
    <line style="fill: none;stroke: #000;stroke-miterlimit: 10;stroke-width: 0.600000023841858px" x1="25.26" x2="16.8" y1="6.57" y2="49.65"/>
    <line style="fill: none;stroke: #000;stroke-miterlimit: 10;stroke-width: 0.600000023841858px" x1="27.28" x2="18.75" y1="6.57" y2="50.24"/>
    <line style="fill: none;stroke: #000;stroke-miterlimit: 10;stroke-width: 0.600000023841858px" x1="29.56" x2="20.9" y1="6.57" y2="51.09"/>
    <line style="fill: none;stroke: #000;stroke-miterlimit: 10;stroke-width: 0.600000023841858px" x1="31.84" x2="23.02" y1="6.9" y2="51.09"/>
    <line style="fill: none;stroke: #000;stroke-miterlimit: 10;stroke-width: 0.600000023841858px" x1="33.93" x2="24.74" y1="7.49" y2="51.68"/>
    <line style="fill: none;stroke: #000;stroke-miterlimit: 10;stroke-width: 0.600000023841858px" x1="35.44" x2="26.94" y1="7.49" y2="52.25"/>
    <line style="fill: none;stroke: #000;stroke-miterlimit: 10;stroke-width: 0.600000023841858px" x1="37.44" x2="29.33" y1="8.6" y2="51.68"/>
    <line style="fill: none;stroke: #000;stroke-miterlimit: 10;stroke-width: 0.600000023841858px" x1="39.35" x2="31.19" y1="9.65" y2="51.68"/>
    <line style="fill: none;stroke: #000;stroke-miterlimit: 10;stroke-width: 0.600000023841858px" x1="41.09" x2="33.39" y1="10.7" y2="51.09"/>
    <line style="fill: none;stroke: #000;stroke-miterlimit: 10;stroke-width: 0.600000023841858px" x1="42.57" x2="35.44" y1="12.79" y2="50.24"/>
    <line style="fill: none;stroke: #000;stroke-miterlimit: 10;stroke-width: 0.600000023841858px" x1="44.65" x2="37.88" y1="14.8" y2="49.11"/>
    <line style="fill: none;stroke: #000;stroke-miterlimit: 10;stroke-width: 0.600000023841858px" x1="46.04" x2="39.79" y1="16.55" y2="48.08"/>
    <line style="fill: none;stroke: #000;stroke-miterlimit: 10;stroke-width: 0.600000023841858px" x1="47.25" x2="42.57" y1="19.52" y2="45.7"/>
    <line style="fill: none;stroke: #000;stroke-miterlimit: 10;stroke-width: 0.600000023841858px" x1="48.84" x2="44.91" y1="23.92" y2="42.65"/>
    <line style="fill: none;stroke: #000;stroke-miterlimit: 10;stroke-width: 0.600000023841858px" x1="22.46" x2="38.16" y1="6.9" y2="9.65"/>
    <line style="fill: none;stroke: #000;stroke-miterlimit: 10;stroke-width: 0.600000023841858px" x1="18.75" x2="41.26" y1="8.28" y2="11.94"/>
    <line style="fill: none;stroke: #000;stroke-miterlimit: 10;stroke-width: 0.600000023841858px" x1="16.47" x2="43.5" y1="9.65" y2="14.1"/>
    <line style="fill: none;stroke: #000;stroke-miterlimit: 10;stroke-width: 0.600000023841858px" x1="14.58" x2="45.58" y1="10.7" y2="16.2"/>
    <line style="fill: none;stroke: #000;stroke-miterlimit: 10;stroke-width: 0.600000023841858px" x1="12.96" x2="46.87" y1="12.79" y2="18.42"/>
    <line style="fill: none;stroke: #000;stroke-miterlimit: 10;stroke-width: 0.600000023841858px" x1="10.74" x2="47.25" y1="14.1" y2="20.45"/>
    <line style="fill: none;stroke: #000;stroke-miterlimit: 10;stroke-width: 0.600000023841858px" x1="10.09" x2="47.99" y1="15.61" y2="22.29"/>
    <line style="fill: none;stroke: #000;stroke-miterlimit: 10;stroke-width: 0.600000023841858px" x1="8.72" x2="48.7" y1="17.25" y2="24.58"/>
    <line style="fill: none;stroke: #000;stroke-miterlimit: 10;stroke-width: 0.600000023841858px" x1="7.75" x2="49.23" y1="18.95" y2="26.15"/>
    <line style="fill: none;stroke: #000;stroke-miterlimit: 10;stroke-width: 0.600000023841858px" x1="7.29" x2="49.55" y1="20.45" y2="28.11"/>
    <line style="fill: none;stroke: #000;stroke-miterlimit: 10;stroke-width: 0.600000023841858px" x1="5.86" x2="49.55" y1="22.55" y2="29.87"/>
    <line style="fill: none;stroke: #000;stroke-miterlimit: 10;stroke-width: 0.600000023841858px" x1="4.88" x2="49.23" y1="23.92" y2="31.52"/>
    <line style="fill: none;stroke: #000;stroke-miterlimit: 10;stroke-width: 0.600000023841858px" x1="4.88" x2="48.7" y1="25.82" y2="33.61"/>
    <line style="fill: none;stroke: #000;stroke-miterlimit: 10;stroke-width: 0.600000023841858px" x1="5.14" x2="48.38" y1="27.49" y2="35.51"/>
    <line style="fill: none;stroke: #000;stroke-miterlimit: 10;stroke-width: 0.600000023841858px" x1="5.14" x2="47.99" y1="29" y2="37.21"/>
    <line style="fill: none;stroke: #000;stroke-miterlimit: 10;stroke-width: 0.600000023841858px" x1="4.88" x2="47.25" y1="31.5" y2="38.85"/>
    <line style="fill: none;stroke: #000;stroke-miterlimit: 10;stroke-width: 0.600000023841858px" x1="5.86" x2="46.87" y1="33.29" y2="40.23"/>
    <line style="fill: none;stroke: #000;stroke-miterlimit: 10;stroke-width: 0.600000023841858px" x1="5.86" x2="46.04" y1="35.18" y2="41.99"/>
    <line style="fill: none;stroke: #000;stroke-miterlimit: 10;stroke-width: 0.600000023841858px" x1="6.96" x2="44.91" y1="36.76" y2="43.7"/>
    <line style="fill: none;stroke: #000;stroke-miterlimit: 10;stroke-width: 0.600000023841858px" x1="6.96" x2="42.91" y1="38.85" y2="45.2"/>
    <line style="fill: none;stroke: #000;stroke-miterlimit: 10;stroke-width: 0.600000023841858px" x1="8.72" x2="41.68" y1="41.27" y2="46.71"/>
    <line style="fill: none;stroke: #000;stroke-miterlimit: 10;stroke-width: 0.600000023841858px" x1="10.09" x2="39.35" y1="43.11" y2="48.08"/>
    <line style="fill: none;stroke: #000;stroke-miterlimit: 10;stroke-width: 0.600000023841858px" x1="10.74" x2="36.33" y1="45.2" y2="49.65"/>
    <line style="fill: none;stroke: #000;stroke-miterlimit: 10;stroke-width: 0.600000023841858px" x1="14.58" x2="32.36" y1="47.43" y2="50.7"/>
  </g>
  <g data-name="Cercuri exterioare" id="Cercuri_exterioare">
    <path d="M137.55,30.65c-.41,13.88-12.69,24.7-26.32,24.37-13.31-.32-25-11.2-25.09-25C86,16.07,98,4.94,111.46,4.75,125.52,4.54,138,16.29,137.55,30.65Z" style="fill: none;stroke: #f6f5ef;stroke-miterlimit: 10;stroke-width: 4px"/>
    <path d="M111.46,5.13a24.28,24.28,0,1,0,24.28,24.28A24.28,24.28,0,0,0,111.46,5.13Zm-.52,45.13c-11.66,0-21.47-10-20.89-21.68A21,21,0,0,1,110.62,9C122,8.88,132,18.43,131.71,30.09A20.94,20.94,0,0,1,110.94,50.25Z" style="fill: #96938f"/>
    <path d="M54.6,29.9c-.42,14.2-13,25.28-26.93,24.94C14.05,54.5,2.1,43.37,2,29.3,1.9,15,14.11,3.59,27.91,3.39,42.3,3.19,55,15.2,54.6,29.9Z" style="fill: none;stroke: #f6f5ef;stroke-miterlimit: 10;stroke-width: 4px"/>
    <path d="M27.9,3.78A24.85,24.85,0,1,0,52.75,28.63,24.85,24.85,0,0,0,27.9,3.78ZM27.37,50C15.44,50,5.4,39.7,6,27.77A21.44,21.44,0,0,1,27,7.75c11.67-.12,21.83,9.65,21.57,21.57A21.43,21.43,0,0,1,27.37,50Z" style="fill: #96938f"/>
  </g>
  <g data-name="Layer 12" id="Layer_12">
    <polygon points="61.13 51.6 62.56 53.13 62.56 57.37 61.13 58.8 56.9 58.8 55.36 57.37 55.36 53.13 56.9 51.6 61.13 51.6" style="fill: #323232"/>
    <rect height="18.75" style="fill: #b0acb0" width="2.27" x="58.05" y="55.2"/>
    <polygon points="68.33 51.6 69.76 53.13 69.76 57.37 68.33 58.8 64.1 58.8 62.56 57.37 62.56 53.13 64.1 51.6 68.33 51.6" style="fill: #323232"/>
    <rect height="18.75" style="fill: #b0acb0" width="2.27" x="65.25" y="55.2"/>
    <polygon points="75.53 51.6 76.96 53.13 76.96 57.37 75.53 58.8 71.3 58.8 69.76 57.37 69.76 53.13 71.3 51.6 75.53 51.6" style="fill: #323232"/>
    <rect height="18.75" style="fill: #b0acb0" width="2.27" x="72.45" y="55.2"/>
    <polygon points="82.73 51.6 84.16 53.13 84.16 57.37 82.73 58.8 78.5 58.8 76.96 57.37 76.96 53.13 78.5 51.6 82.73 51.6" style="fill: #323232"/>
    <rect height="18.75" style="fill: #b0acb0" width="2.27" x="79.65" y="55.2"/>
  </g>
  <g id="Connectors">
    <g id="Amplificator">
      <rect height="12.52" rx="6.26" ry="6.26" style="fill: none" width="30.85" x="56.65"/>
      <g id="DETAILS">
        <rect height="8.97" rx="4.17" ry="4.17" style="fill: none" width="26.76" x="58.7" y="1.77"/>
      </g>
    </g>
    <rect data-cir-type="male" height="1.13" id="circuitoCon_VCC" style="fill: none" transform="translate(118.36 146.75) rotate(180)" width="1.13" x="58.61" y="72.81"/>
    <rect data-cir-type="male" height="1.13" id="circuitoCon_TRIG" style="fill: none" transform="translate(132.76 146.75) rotate(180)" width="1.13" x="65.81" y="72.81"/>
    <rect data-cir-type="male" height="1.13" id="circuitoCon_ECHO" style="fill: none" transform="translate(147.16 146.75) rotate(180)" width="1.13" x="73.01" y="72.81"/>
    <rect data-cir-type="male" height="1.13" id="circuitoCon_GND" style="fill: none" transform="translate(161.56 146.75) rotate(180)" width="1.13" x="80.21" y="72.81"/>
  </g>
</svg>