<?xml version="1.0" ?><svg height="92.39mm" viewBox="0 0 315.09 261.9" width="111.16mm" xmlns="http://www.w3.org/2000/svg" xmlns:xlink="http://www.w3.org/1999/xlink">
  <defs>
    <linearGradient data-name="Carbon 3" gradientUnits="userSpaceOnUse" id="Carbon_3" x1="157.75" x2="157.75" y1="261.9" y2="78.85">
      <stop offset="0" stop-color="#141414"/>
      <stop offset="0.35" stop-color="#454545"/>
      <stop offset="0.5" stop-color="#424242"/>
      <stop offset="0.65" stop-color="#454545"/>
      <stop offset="1" stop-color="#141414"/>
    </linearGradient>
    <linearGradient id="Carbon_3-2" x1="0.21" x2="315.3" xlink:href="#Carbon_3" y1="170.37" y2="170.37"/>
    <linearGradient data-name="Carbon 04" gradientUnits="userSpaceOnUse" id="Carbon_04" x1="157.41" x2="157.41" y1="255.06" y2="84.24">
      <stop offset="0" stop-color="#141414"/>
      <stop offset="0.35" stop-color="#343434"/>
      <stop offset="0.5" stop-color="#424242"/>
      <stop offset="0.65" stop-color="#343434"/>
      <stop offset="1" stop-color="#141414"/>
    </linearGradient>
    <linearGradient gradientUnits="userSpaceOnUse" id="linear-gradient" x1="167.91" x2="167.91" y1="237.37" y2="84.24">
      <stop offset="0" stop-color="#141414"/>
      <stop offset="0.35" stop-color="#1f1f1f"/>
      <stop offset="0.65" stop-color="#1f1f1f"/>
      <stop offset="1" stop-color="#141414"/>
    </linearGradient>
    <linearGradient id="linear-gradient-2" x1="49.06" x2="73.8" xlink:href="#linear-gradient" y1="205.3" y2="205.3"/>
    <radialGradient cx="40.1" cy="107.07" gradientUnits="userSpaceOnUse" id="radial-gradient" r="9.97">
      <stop offset="0.68" stop-color="#141414"/>
      <stop offset="0.68" stop-color="#1d1d1d"/>
      <stop offset="0.69" stop-color="#2e2e2e"/>
      <stop offset="0.69" stop-color="#393939"/>
      <stop offset="0.7" stop-color="#404040"/>
      <stop offset="0.73" stop-color="#424242"/>
      <stop offset="0.74" stop-color="#3f3f3f"/>
      <stop offset="0.75" stop-color="#3d3d3d"/>
      <stop offset="0.76" stop-color="#393939"/>
      <stop offset="0.81" stop-color="#343434"/>
      <stop offset="1" stop-color="#141414"/>
    </radialGradient>
    <linearGradient gradientUnits="userSpaceOnUse" id="linear-gradient-3" x1="33.71" x2="46.49" y1="107.07" y2="107.07">
      <stop offset="0" stop-color="#343434"/>
      <stop offset="1" stop-color="#141414"/>
    </linearGradient>
    <radialGradient cx="40.1" cy="138.8" id="radial-gradient-2" r="7.37" xlink:href="#radial-gradient"/>
    <radialGradient cx="40.83" cy="138.39" gradientUnits="userSpaceOnUse" id="radial-gradient-3" r="21.24">
      <stop offset="0.04" stop-color="#14b614"/>
      <stop offset="0.57" stop-color="#343434"/>
      <stop offset="0.58" stop-color="#333a33"/>
      <stop offset="0.72" stop-color="#266f26"/>
      <stop offset="0.84" stop-color="#1c961c"/>
      <stop offset="0.94" stop-color="#16ad16"/>
      <stop offset="1" stop-color="#14b614"/>
    </radialGradient>
    <linearGradient gradientUnits="userSpaceOnUse" id="linear-gradient-4" x1="165.84" x2="165.84" y1="226.03" y2="110.22">
      <stop offset="0" stop-color="#fff"/>
      <stop offset="0.44" stop-color="#fff"/>
      <stop offset="0.74" stop-color="#d6d6d6"/>
      <stop offset="1" stop-color="#fff"/>
    </linearGradient>
    <linearGradient id="linear-gradient-5" x1="51.55" x2="73.8" xlink:href="#linear-gradient" y1="182.16" y2="182.16"/>
    <linearGradient id="Carbon_04-2" x1="61.43" x2="61.43" xlink:href="#Carbon_04" y1="229.07" y2="179.19"/>
    <linearGradient id="Carbon_04-3" x1="62.67" x2="62.67" xlink:href="#Carbon_04" y1="229.07" y2="183.47"/>
    <linearGradient gradientTransform="translate(-155.79 17.65) rotate(-90)" gradientUnits="userSpaceOnUse" id="linear-gradient-6" x1="-0.77" x2="17.65" y1="425.15" y2="425.15">
      <stop offset="0" stop-color="#424242"/>
      <stop offset="0.02" stop-color="#b2b2b2"/>
      <stop offset="0.07" stop-color="#d8d8d8"/>
      <stop offset="0.48" stop-color="#c9c9c9"/>
      <stop offset="0.53" stop-color="#c7c7c7"/>
      <stop offset="0.84" stop-color="#bcbec0"/>
      <stop offset="0.97" stop-color="#c5c7c9"/>
      <stop offset="0.98" stop-color="#e5e5e5"/>
      <stop offset="0.99" stop-color="#333"/>
      <stop offset="1" stop-color="#a7a9ac"/>
    </linearGradient>
    <linearGradient gradientTransform="translate(45.66 253.16) rotate(-90)" id="linear-gradient-7" x1="234.75" x2="253.16" xlink:href="#linear-gradient-6" y1="192.54" y2="192.54"/>
    <linearGradient gradientTransform="translate(251.38 -420.03)" id="linear-gradient-8" x1="14.55" x2="16.16" xlink:href="#linear-gradient-6" y1="422.32" y2="422.32"/>
    <linearGradient gradientTransform="translate(256.99 -425.63)" id="linear-gradient-9" x1="14.55" x2="16.16" xlink:href="#linear-gradient-6" y1="427.92" y2="427.92"/>
    <linearGradient gradientTransform="translate(-77.7 -162.34)" id="linear-gradient-10" x1="309.39" x2="310.99" xlink:href="#linear-gradient-6" y1="164.81" y2="164.81"/>
    <linearGradient gradientTransform="translate(-71.46 -168.57)" id="linear-gradient-11" x1="309.39" x2="310.99" xlink:href="#linear-gradient-6" y1="171.04" y2="171.04"/>
    <linearGradient gradientTransform="translate(-65.86 -174.18)" id="linear-gradient-12" x1="309.39" x2="310.99" xlink:href="#linear-gradient-6" y1="176.65" y2="176.65"/>
  </defs>
  <title>Thermal Receipt Printer</title>
  <g style="isolation: isolate">
    <g data-name="Layer 2" id="Layer_2">
      <g>
        <path d="M310.33,78.85H5.18a5,5,0,0,0-5,5V256.93a5,5,0,0,0,5,5H310.33a5,5,0,0,0,5-5V83.82A5,5,0,0,0,310.33,78.85Z" style="fill: url(#Carbon_3)" transform="translate(-0.21)"/>
        <path d="M310.33,79.27a4.56,4.56,0,0,1,4.56,4.55V256.93a4.56,4.56,0,0,1-4.56,4.55H5.18a4.56,4.56,0,0,1-4.56-4.55V83.82a4.56,4.56,0,0,1,4.56-4.55H310.33m0-.42H5.18a5,5,0,0,0-5,5V256.93a5,5,0,0,0,5,5H310.33a5,5,0,0,0,5-5V83.82a5,5,0,0,0-5-5Z" style="fill: url(#Carbon_3-2)" transform="translate(-0.21)"/>
      </g>
      <rect height="170.81" style="fill: url(#Carbon_04)" width="300.44" x="7.19" y="84.24"/>
      <rect height="153.12" style="fill: url(#linear-gradient)" width="188.23" x="73.8" y="84.24"/>
      <rect height="67.16" style="fill: url(#linear-gradient-2)" width="24.74" x="49.06" y="171.72"/>
      <circle cx="40.1" cy="107.07" r="9.97" style="fill: url(#radial-gradient)"/>
      <circle cx="40.1" cy="107.07" r="6.39" style="fill: url(#linear-gradient-3)"/>
      <circle cx="40.1" cy="138.8" r="7.37" style="fill: url(#radial-gradient-2)"/>
      <circle cx="40.1" cy="138.8" r="4.98" style="fill: url(#radial-gradient-3)"/>
      <rect height="115.81" style="fill: url(#linear-gradient-4)" width="160.86" x="85.41" y="110.22"/>
      <rect height="2.63" style="fill: url(#linear-gradient-5)" width="22.25" x="51.55" y="180.84"/>
      <rect height="49.89" style="fill: url(#Carbon_04-2)" width="24.74" x="49.06" y="179.19"/>
      <rect height="45.61" style="fill: url(#Carbon_04-3)" width="22.25" x="51.55" y="183.47"/>
      <rect height="11.33" style="fill: none;stroke: #000;stroke-miterlimit: 10;stroke-width: 0.11752355766606648px" width="168.05" x="85.41" y="226.03"/>
      <g>
        <rect height="86.52" width="1.02" x="110.39" y="122.39"/>
        <rect height="86.52" width="1.02" x="112.79" y="122.39"/>
      </g>
      <rect height="80.03" width="3.42" x="115.2" y="122.39"/>
      <rect height="80.03" width="2.22" x="120" y="122.39"/>
      <g>
        <rect height="80.03" width="1.02" x="126.01" y="122.39"/>
        <rect height="80.03" width="1.02" x="129.62" y="122.39"/>
      </g>
      <g>
        <rect height="80.03" width="2.22" x="132.02" y="122.39"/>
        <rect height="80.03" width="2.22" x="136.83" y="122.39"/>
        <rect height="80.03" width="2.22" x="140.43" y="122.39"/>
      </g>
      <g>
        <rect height="80.03" width="1.02" x="146.44" y="122.39"/>
        <rect height="80.03" width="1.02" x="152.45" y="122.39"/>
        <rect height="80.03" width="1.02" x="154.85" y="122.39"/>
      </g>
      <rect height="80.03" width="2.22" x="157.25" y="122.39"/>
      <g>
        <rect height="80.03" width="1.02" x="163.26" y="122.39"/>
        <rect height="86.52" width="1.02" x="165.67" y="122.39"/>
        <rect height="86.52" width="1.02" x="168.07" y="122.39"/>
      </g>
      <rect height="80.03" width="3.42" x="170.47" y="122.39"/>
      <rect height="80.03" width="1.02" x="175.28" y="122.39"/>
      <g>
        <rect height="80.03" width="2.22" x="178.88" y="122.39"/>
        <rect height="80.03" width="2.22" x="182.49" y="122.39"/>
      </g>
      <rect height="80.03" width="1.02" x="187.3" y="122.39"/>
      <rect height="80.03" width="3.42" x="189.7" y="122.39"/>
      <g>
        <rect height="80.03" width="1.02" x="195.71" y="122.39"/>
        <rect height="80.03" width="1.02" x="200.51" y="122.39"/>
      </g>
      <rect height="80.03" width="3.42" x="204.12" y="122.39"/>
      <g>
        <rect height="80.03" width="1.02" x="208.93" y="122.39"/>
        <rect height="80.03" width="1.02" x="212.53" y="122.39"/>
        <rect height="80.03" width="1.02" x="214.93" y="122.39"/>
        <rect height="86.52" width="1.02" x="220.94" y="122.39"/>
        <rect height="86.52" width="1.02" x="223.35" y="122.39"/>
      </g>
      <path d="M99.87,212.82a5.47,5.47,0,0,0,1,0,3.64,3.64,0,0,0,2-.91,4.14,4.14,0,0,0,1.24-2.5h0a2.82,2.82,0,0,1-5-1.86,3.22,3.22,0,0,1,3.2-3.33c1.92,0,3.1,1.56,3.1,3.95a5.93,5.93,0,0,1-1.61,4.4,4.71,4.71,0,0,1-2.73,1.26,6.41,6.41,0,0,1-1.17.07Zm2.3-7.67c-1.07,0-1.83.95-1.83,2.28a1.8,1.8,0,0,0,1.8,2,2.09,2.09,0,0,0,1.84-1,.8.8,0,0,0,.12-.47c0-1.6-.59-2.82-1.92-2.82Z" transform="translate(-0.21)"/>
      <g>
        <path d="M122.05,204.34v.84L118,213.71h-1.32l4.07-8.29v0h-4.58v-1Z" transform="translate(-0.21)"/>
        <path d="M126.1,208.78a2.32,2.32,0,0,1-1.49-2.1,2.63,2.63,0,0,1,2.9-2.5,2.42,2.42,0,0,1,2.73,2.31,2.39,2.39,0,0,1-1.54,2.19v0a2.62,2.62,0,0,1,1.88,2.43c0,1.63-1.39,2.72-3.18,2.72-2,0-3.15-1.17-3.15-2.54a2.7,2.7,0,0,1,1.86-2.51Zm3.2,2.5c0-1.14-.79-1.69-2.06-2.05a2,2,0,0,0-1.69,1.93,1.74,1.74,0,0,0,1.88,1.79A1.7,1.7,0,0,0,129.3,211.28Zm-3.49-4.69c0,.94.71,1.44,1.79,1.73a1.84,1.84,0,0,0,1.43-1.7,1.46,1.46,0,0,0-1.59-1.53A1.49,1.49,0,0,0,125.81,206.59Z" transform="translate(-0.21)"/>
        <path d="M135.53,205.52h0l-1.63.88-.24-1,2-1.1h1.09v9.37h-1.23Z" transform="translate(-0.21)"/>
        <path d="M146.78,205.41H143.2l-.36,2.41a4.9,4.9,0,0,1,.77-.06,4,4,0,0,1,2,.5,2.68,2.68,0,0,1,1.35,2.41,3.25,3.25,0,0,1-3.49,3.2,4.58,4.58,0,0,1-2.34-.58l.32-1a4.19,4.19,0,0,0,2,.52,2.07,2.07,0,0,0,2.22-2c0-1.21-.82-2.07-2.69-2.07a10.14,10.14,0,0,0-1.3.1l.6-4.5h4.49Z" transform="translate(-0.21)"/>
        <path d="M154.94,205.23a4.73,4.73,0,0,0-.95.06,3.8,3.8,0,0,0-3.26,3.33h0a2.86,2.86,0,0,1,5.09,1.95,3.13,3.13,0,0,1-3.11,3.3c-2,0-3.32-1.56-3.32-4a5.88,5.88,0,0,1,1.59-4.23,5.08,5.08,0,0,1,3-1.38,5.7,5.7,0,0,1,.92-.07Zm-2.18,7.66c1.08,0,1.82-.91,1.82-2.25a1.91,1.91,0,0,0-1.93-2.15,2.09,2.09,0,0,0-1.82,1.16,1,1,0,0,0-.14.56c0,1.54.73,2.68,2.06,2.68Z" transform="translate(-0.21)"/>
        <path d="M163.59,205.41H160l-.36,2.41a4.9,4.9,0,0,1,.77-.06,4,4,0,0,1,2,.5,2.69,2.69,0,0,1,1.34,2.41,3.25,3.25,0,0,1-3.49,3.2,4.58,4.58,0,0,1-2.34-.58l.32-1a4.19,4.19,0,0,0,2,.52,2.07,2.07,0,0,0,2.22-2c0-1.21-.82-2.07-2.69-2.07a10.3,10.3,0,0,0-1.3.1l.61-4.5h4.48Z" transform="translate(-0.21)"/>
      </g>
      <g>
        <path d="M172,212.82a5.47,5.47,0,0,0,1,0,3.64,3.64,0,0,0,2-.91,4.14,4.14,0,0,0,1.24-2.5h0a2.82,2.82,0,0,1-5-1.86,3.21,3.21,0,0,1,3.2-3.33c1.92,0,3.1,1.56,3.1,3.95a5.93,5.93,0,0,1-1.61,4.4,4.71,4.71,0,0,1-2.73,1.26,6.41,6.41,0,0,1-1.17.07Zm2.3-7.67c-1.07,0-1.83.95-1.83,2.28a1.8,1.8,0,0,0,1.8,2,2.09,2.09,0,0,0,1.84-1,.8.8,0,0,0,.12-.47c0-1.6-.59-2.82-1.92-2.82Z" transform="translate(-0.21)"/>
        <path d="M179.65,213.71v-.78l1-1c2.39-2.28,3.48-3.49,3.49-4.9a1.67,1.67,0,0,0-1.86-1.84,3.19,3.19,0,0,0-2,.8l-.4-.9a4.15,4.15,0,0,1,2.65-.95,2.64,2.64,0,0,1,2.87,2.73c0,1.73-1.26,3.13-3.23,5l-.75.69v0h4.21v1.05Z" transform="translate(-0.21)"/>
        <path d="M192,213.71v-2.55h-4.35v-.84l4.18-6h1.37v5.83h1.31v1h-1.31v2.55Zm0-3.54V207c0-.49,0-1,.05-1.47H192c-.28.54-.51,1-.77,1.38l-2.3,3.19v0Z" transform="translate(-0.21)"/>
        <path d="M202.54,204.34v.84l-4.08,8.53h-1.31l4.07-8.29v0h-4.59v-1Z" transform="translate(-0.21)"/>
        <path d="M205.6,212.82a5.37,5.37,0,0,0,1,0,3.67,3.67,0,0,0,2-.91,4.19,4.19,0,0,0,1.24-2.5h-.05a2.81,2.81,0,0,1-5-1.86,3.21,3.21,0,0,1,3.2-3.33c1.92,0,3.1,1.56,3.1,3.95a5.9,5.9,0,0,1-1.62,4.4,4.68,4.68,0,0,1-2.72,1.26,6.46,6.46,0,0,1-1.17.07Zm2.29-7.67c-1.06,0-1.83.95-1.83,2.28a1.81,1.81,0,0,0,1.81,2,2.09,2.09,0,0,0,1.84-1,.88.88,0,0,0,.12-.47c0-1.6-.6-2.82-1.92-2.82Z" transform="translate(-0.21)"/>
        <path d="M218.62,205.23a4.73,4.73,0,0,0-1,.06,3.81,3.81,0,0,0-3.26,3.33h0a2.81,2.81,0,0,1,2.27-1.08,2.78,2.78,0,0,1,2.82,3,3.12,3.12,0,0,1-3.11,3.3c-2,0-3.32-1.56-3.32-4a5.92,5.92,0,0,1,1.59-4.23,5.11,5.11,0,0,1,3-1.38,5.7,5.7,0,0,1,.92-.07Zm-2.18,7.66c1.09,0,1.82-.91,1.82-2.25a1.9,1.9,0,0,0-1.93-2.15,2.1,2.1,0,0,0-1.82,1.16,1.13,1.13,0,0,0-.14.56c0,1.54.73,2.68,2.06,2.68Z" transform="translate(-0.21)"/>
      </g>
      <g>
        <g style="mix-blend-mode: multiply">
          <rect height="60.44" style="fill: #fb5058" width="3.87" x="270.2" y="18.41"/>
        </g>
        <g style="mix-blend-mode: multiply">
          <rect height="60.44" style="fill: #4b4846" width="3.87" x="264.6" y="18.41"/>
        </g>
        <g>
          <rect height="18.41" style="mix-blend-mode: soft-light;fill: url(#linear-gradient-6)" width="14.67" x="262.03"/>
          <rect height="14.67" style="fill: #c9c9c9" transform="translate(271.83 -267.1) rotate(90)" width="4.94" x="267.1" y="-4.87"/>
        </g>
        <rect height="1.73" style="fill: #c9c9c9" transform="translate(284.4 -254.48) rotate(90)" width="6.7" x="266.19" y="14.2"/>
      </g>
      <g>
        <rect height="60.44" style="fill: #4b4846" width="3.87" x="242.19" y="18.41"/>
        <rect height="60.44" style="fill: #d6d000" width="3.87" x="236.58" y="18.41"/>
        <rect height="60.44" style="fill: #00a537" width="3.87" x="230.35" y="18.41"/>
        <g>
          <rect height="18.41" style="mix-blend-mode: soft-light;fill: url(#linear-gradient-7)" width="22.01" x="227.2"/>
          <rect height="22.01" style="fill: #c9c9c9" transform="translate(240.67 -235.94) rotate(90)" width="4.94" x="235.94" y="-8.54"/>
        </g>
        <rect height="1.73" style="fill: #c9c9c9" transform="translate(253.24 -223.32) rotate(90)" width="6.7" x="235.03" y="14.2"/>
      </g>
      <rect height="1.61" style="fill: url(#linear-gradient-8)" transform="translate(264.24 269.03) rotate(-90)" width="1.61" x="265.93" y="1.49"/>
      <rect height="1.61" style="fill: url(#linear-gradient-9)" transform="translate(269.85 274.63) rotate(-90)" width="1.61" x="271.54" y="1.49"/>
      <rect height="1.61" style="fill: url(#linear-gradient-10)" transform="translate(229.81 234.96) rotate(-90)" width="1.61" x="231.68" y="1.67"/>
      <rect height="1.61" style="fill: url(#linear-gradient-11)" transform="translate(236.05 241.19) rotate(-90)" width="1.61" x="237.92" y="1.67"/>
      <rect height="1.61" style="fill: url(#linear-gradient-12)" transform="translate(241.66 246.8) rotate(-90)" width="1.61" x="243.53" y="1.67"/>
    </g>
    <g id="Connectors">
      <rect data-cir-type="female" height="1.61" id="circuitoCon_VCC" style="fill: none" transform="translate(274.43 -270.05) rotate(90)" width="1.61" x="271.54" y="1.49"/>
      <rect data-cir-type="female" height="1.61" id="circuitoCon_GND" style="fill: none" transform="translate(268.8 -264.43) rotate(90)" width="1.61" x="265.91" y="1.49"/>
      <rect data-cir-type="female" height="1.61" id="circuitoCon_DOUT" style="fill: none" transform="translate(229.81 234.96) rotate(-90)" width="1.61" x="231.68" y="1.67"/>
      <rect data-cir-type="female" height="1.61" id="circuitoCon_DIN" style="fill: none" transform="translate(236.05 241.19) rotate(-90)" width="1.61" x="237.92" y="1.67"/>
      <rect data-cir-type="female" height="1.61" id="circuitoCon_GND_COM" style="fill: none" transform="translate(241.66 246.8) rotate(-90)" width="1.61" x="243.53" y="1.67"/>
    </g>
  </g>
</svg>