<?xml version="1.0" ?><svg height="20.46mm" viewBox="0 0 43.73 58" width="15.43mm" xmlns="http://www.w3.org/2000/svg">
  <title>SparkFun RGB and Gesture Sensor - APDS-9960</title>
  <g data-name="Layer 12" id="Layer_12">
    <g id="BACKGROUND">
      <ellipse cx="36.27" cy="6.74" rx="5.08" ry="5" style="fill: none"/>
      <ellipse cx="7.27" cy="6.74" rx="5.08" ry="5" style="fill: none"/>
      <circle cx="27.51" cy="2.11" r="0.64" style="fill: none"/>
      <path d="M.35,58H43.73V0H.35ZM16,1.13a1.52,1.52,0,1,1-.68,2A1.52,1.52,0,0,1,16,1.13ZM2.19,6.74a5,5,0,0,1,5.08-5,5,5,0,0,1,5.08,5,5,5,0,0,1-5.08,5A5,5,0,0,1,2.19,6.74ZM41.31,53.65a1.49,1.49,0,1,1-1.49-1.49A1.49,1.49,0,0,1,41.31,53.65Zm-7.21,0a1.49,1.49,0,1,1-1.49-1.49A1.49,1.49,0,0,1,34.1,53.65Zm-7.2,0a1.49,1.49,0,1,1-1.49-1.49A1.49,1.49,0,0,1,26.9,53.65Zm-7.2,0a1.49,1.49,0,1,1-1.49-1.49A1.49,1.49,0,0,1,19.7,53.65Zm-7.2,0A1.49,1.49,0,1,1,11,52.16,1.49,1.49,0,0,1,12.5,53.65Zm-7.21,0a1.49,1.49,0,1,1-1.49-1.49A1.49,1.49,0,0,1,5.29,53.65Zm36.59-9.16a1.52,1.52,0,1,1-2-.68A1.52,1.52,0,0,1,41.88,44.49ZM41.35,6.74a5.08,5.08,0,0,1-10.17,0,5.08,5.08,0,0,1,10.17,0ZM32.29.84c.55.1.81.31.13.9-2.26,1.73-3.12,4.15-2.31,7.39,1.62,3.23,4.29,4.84,8.89,3.5A9.57,9.57,0,0,0,41.35,11c.57-.93,1.13-1,.85.45v30.8c.08.8-.17,1.1-.85.78-2.46-.34-3.47,1.14-3,2.81a2.17,2.17,0,0,0,2.07,1.7A2.22,2.22,0,0,0,41.91,47c.29-.18.45,0,.4.59v2.87l-.53-.47-3.53-.13-1.94,1.73-2.07-1.73H30.89l-1.94,1.73-1.6-1.73L23.57,50,21.85,51.5,20,49.89H16.42l-1.85,1.65L12.81,50H9.1L7.21,51.64,5.3,49.94V43l1.82-1.54c.64-.4,1-.22,1,1.08l0,1.46H35.21V40.29H33.74V38.77h1.47V34.92h-4.6v-1.6h5.32l1.42-1.4V23.06l-1.56,0c-1.44,0-1.44-1.41,0-1.41l.91,0,.93-.59a2.1,2.1,0,0,0,3.53-1.34A2,2,0,0,0,37.71,18a.68.68,0,0,1-.55-.58c-.6-.06-.91-.28-.9-.7l-1.56-1.68H33.2L27.33,9.2V6.34L23.87,2.87H19.4C19,2.94,18.87,2.62,19,2Q18.17.81,19.26.84Z" style="fill: #8a231e"/>
      <path d="M19,2c-.13.59,0,.91.39.84h4.48l3.47,3.47V9.2l5.87,5.87h1.52l1.56,1.68c0,.42.3.65.9.7a.68.68,0,0,0,.55.58,2,2,0,0,1,3.45,1.7,2.1,2.1,0,0,1-3.53,1.34l-.93.59-.91,0c-1.44,0-1.44,1.41,0,1.41l1.56,0v8.85l-1.42,1.4H30.61v1.6h4.6v3.85H33.74v1.52h1.47V44H8.14l0-1.46c0-1.31-.36-1.49-1-1.08L5.3,43v6.94l1.91,1.7L9.1,50h3.71l1.77,1.58,1.85-1.65H20l1.81,1.61L23.57,50l3.77-.15,1.6,1.73,1.94-1.73h3.36l2.07,1.73,1.94-1.73,3.53.13.53.47V47.54c.05-.63-.1-.77-.4-.59a2.22,2.22,0,0,1-1.52.59,2.17,2.17,0,0,1-2.07-1.7c-.44-1.67.57-3.14,3-2.81.68.32.93,0,.85-.78V11.45c.27-1.47-.28-1.38-.85-.45A9.57,9.57,0,0,1,39,12.63c-4.6,1.35-7.27-.26-8.89-3.5-.81-3.24.06-5.66,2.31-7.39.69-.59.42-.8-.12-.9h-13Q18.17.81,19,2Zm9.15.08a.64.64,0,1,1-.64-.64A.64.64,0,0,1,28.15,2.11Z" style="fill: #cf2f27"/>
      <circle cx="16.69" cy="2.49" r="1.52" style="fill: #d7d4d0" transform="translate(0.66 7.76) rotate(-26.68)"/>
      <circle cx="40.52" cy="45.18" r="1.52" style="fill: #d7d4d0" transform="translate(-15.97 23.01) rotate(-26.68)"/>
    </g>
    <g id="SQUARE">
      <g>
        <g>
          <polygon points="9.17 25.83 12.38 25.83 10.77 24.23 9.17 25.83" style="fill: #878383"/>
          <polygon points="10.77 24.23 12.38 22.62 9.17 22.62 10.77 24.23" style="fill: #878383"/>
          <polygon points="10.77 24.23 9.17 25.83 12.38 25.83 10.77 24.23" style="fill: #878383"/>
        </g>
        <g>
          <polygon points="12.38 25.83 12.38 22.62 10.77 24.23 12.38 25.83" style="fill: #878383"/>
          <polygon points="10.77 24.23 9.17 22.62 9.17 25.83 10.77 24.23" style="fill: #878383"/>
          <polygon points="10.77 24.23 12.38 25.83 12.38 22.62 10.77 24.23" style="fill: #878383"/>
        </g>
      </g>
      <g>
        <g>
          <polygon points="1.42 28.69 5.59 28.69 3.5 26.61 1.42 28.69" style="fill: #878383"/>
          <polygon points="3.5 26.61 5.59 24.52 1.42 24.52 3.5 26.61" style="fill: #878383"/>
          <polygon points="3.5 26.61 1.42 28.69 5.59 28.69 3.5 26.61" style="fill: #878383"/>
        </g>
        <g>
          <polygon points="5.59 28.69 5.59 24.52 3.5 26.61 5.59 28.69" style="fill: #878383"/>
          <polygon points="3.5 26.61 1.42 24.52 1.42 28.69 3.5 26.61" style="fill: #878383"/>
          <polygon points="3.5 26.61 5.59 28.69 5.59 24.52 3.5 26.61" style="fill: #878383"/>
        </g>
      </g>
      <g>
        <g>
          <polygon points="37.76 30.09 41.73 30.09 39.74 26.8 37.76 30.09" style="fill: #878383"/>
          <polygon points="39.74 26.8 41.73 23.5 37.76 23.5 39.74 26.8" style="fill: #878383"/>
          <polygon points="39.74 26.8 37.76 30.09 41.73 30.09 39.74 26.8" style="fill: #878383"/>
        </g>
        <g>
          <polygon points="41.73 30.09 41.73 23.5 39.74 26.8 41.73 30.09" style="fill: #878383"/>
          <polygon points="39.74 26.8 37.76 23.5 37.76 30.09 39.74 26.8" style="fill: #878383"/>
          <polygon points="39.74 26.8 41.73 30.09 41.73 23.5 39.74 26.8" style="fill: #878383"/>
        </g>
      </g>
      <path d="M2.46,23.21v-1.4a1.2,1.2,0,0,1,0-1.28V19c-.29-1.32.23-1.75.94-2,1.14-.06,1.75.75,1.31,2v1.4a1.16,1.16,0,0,1,0,1.44l0,1.38Z" style="fill: #cf2f27"/>
      <polyline points="8.37 18.08 8.37 16.18 14.87 9.68 18.65 9.68" style="fill: none;stroke: #cf2f27;stroke-linecap: round;stroke-linejoin: round;stroke-width: 1.5px"/>
      <polyline points="16.58 9.68 16.58 7.75 20.27 4.01 23.14 4.01 26 6.85 26 9.13" style="fill: none;stroke: #cf2f27;stroke-linejoin: round"/>
      <polyline points="26.2 9.58 32.62 16.09 34.12 16.09 35.03 17.01 35.03 18.48" style="fill: none;stroke: #cf2f27;stroke-linejoin: round"/>
      <polyline points="25.23 30.27 25.23 31.42 25.92 32.1 27.75 32.1 35.44 32.1 36.27 31.27 36.27 30.09 36.27 29.57 37.02 29.57" style="fill: none;stroke: #cf2f27;stroke-linejoin: round"/>
      <line style="fill: none;stroke: #cf2f27;stroke-linejoin: round" x1="33.51" x2="36.92" y1="24.34" y2="24.34"/>
      <path d="M14.6,33.42l-1.09-1.49c-.48-.43-.58-.87,0-1.32a1.7,1.7,0,0,0,1.09-.71c.73-.85,1.26-1.09,1.38,0v.81l.46.44,3.15.14c.48-.12.75-.38.69-.83V30a1.49,1.49,0,0,1,1-1c1.19-.48,2-.54,1.85.4V31c.6.2,1.08.46,1,.95l1.31,1.24Z" style="fill: #cf2f27"/>
      <polyline points="11.57 29 13.11 29 14.17 27.94 14.17 25.57 15.55 24.18 17.2 24.18" style="fill: none;stroke: #cf2f27;stroke-linecap: round;stroke-linejoin: round;stroke-width: 1.5px"/>
      <polyline points="18.38 23.94 19.67 22.62 19.67 19.42" style="fill: none;stroke: #cf2f27;stroke-linecap: round;stroke-linejoin: round;stroke-width: 1.5px"/>
      <path d="M12.38,20.13l.16,1.4.58.84v1.05c.17.55.47.7,1,.26l.83-.78,1.5-1.06,1.14.06c.4-.24.62-.51.47-.84V14.75a4.31,4.31,0,0,1-2.44.19l-.81-1c-.09-.92-.48-1.12-1.28-.35l-2.66,2.66c-.85.49-.95,1-.08,1.41l.58-.25h1l.59.87h.94l.09-.87c1.13-.37,1.76-.11,1.63,1.11h-1v1.57h.91c.3.92,0,1.44-1.37,1.32l-1-1.32h-.73" style="fill: #cf2f27"/>
      <path d="M9.52,28.41H8.37L6.56,26.6v2.1L6.31,29a1.19,1.19,0,0,1,1.17.8H9.83Z" style="fill: #cf2f27"/>
      <path d="M6.14,23.57h1V22a3,3,0,0,1,.54-1.23h.9c.75.29,1,.78.27,1.65v2L7.2,26H6.48A3.47,3.47,0,0,0,6.14,23.57Z" style="fill: #cf2f27"/>
      <polyline points="25.41 12.77 26.93 12.77 27.54 13.37 27.54 14.42" style="fill: none;stroke: #cf2f27;stroke-linejoin: round;stroke-width: 0.75px"/>
      <polyline points="27.54 16.42 27.54 17.04 29.07 18.58" style="fill: none;stroke: #cf2f27;stroke-linejoin: round;stroke-width: 0.75px"/>
      <circle cx="27.51" cy="15.47" r="1.27" style="fill: none;stroke: #cf2f27;stroke-linejoin: round;stroke-width: 0.75px"/>
      <circle cx="21.71" cy="6.4" r="0.9" style="fill: none;stroke: #cf2f27;stroke-linejoin: round;stroke-width: 0.75px"/>
      <circle cx="16.43" cy="12.77" r="0.9" style="fill: none;stroke: #cf2f27;stroke-linejoin: round;stroke-width: 0.75px"/>
      <circle cx="21.71" cy="26.63" r="1.27" style="fill: none;stroke: #cf2f27;stroke-linejoin: round;stroke-width: 0.75px"/>
      <circle cx="28.96" cy="29.18" r="1.27" style="fill: none;stroke: #cf2f27;stroke-linejoin: round;stroke-width: 0.75px"/>
      <circle cx="36.27" cy="26.63" r="1.27" style="fill: none;stroke: #cf2f27;stroke-linejoin: round;stroke-width: 0.75px"/>
      <circle cx="39.03" cy="19.48" r="1.27" style="fill: none;stroke: #cf2f27;stroke-linejoin: round;stroke-width: 0.75px"/>
      <polyline points="24.38 24.34 22.4 24.34 21.71 24.85 21.71 25.5" style="fill: none;stroke: #cf2f27;stroke-linejoin: round;stroke-width: 0.75px"/>
      <line style="fill: none;stroke: #cf2f27;stroke-linejoin: round;stroke-width: 0.75px" x1="30.06" x2="31.44" y1="29.18" y2="29.18"/>
      <line style="fill: none;stroke: #cf2f27;stroke-linejoin: round;stroke-width: 0.75px" x1="35.94" x2="37.98" y1="19.48" y2="19.48"/>
      <line style="fill: none;stroke: #cf2f27;stroke-linejoin: round;stroke-width: 0.75px" x1="22.4" x2="23.52" y1="6.98" y2="8.1"/>
      <line style="fill: none;stroke: #cf2f27;stroke-linejoin: round" x1="21.44" x2="18.52" y1="29.69" y2="28.56"/>
      <path d="M10.86,33.79,9.71,32.64V30.21h2.36v1.06a1.1,1.1,0,0,0,.63,1.17l.95,1.17-2.8.19" style="fill: #cf2f27"/>
      <path d="M1.13,16.83v-6c.12-1,.67-.7,1.05,0,1.9,2,3.68,2.74,5.36,2.41.92-.09,1.63-.05,1,.8L7.16,15.38c-.38.26-.5.8-.43,1.54l-.8.76c-.32,0-.5-.14-.52-.61a2.54,2.54,0,0,0-3.29-.44C1.5,17.25,1.35,17.26,1.13,16.83Z" style="fill: #cf2f27"/>
      <g>
        <path d="M25.54,8.7v1h.22L26,10h1l.41-.41V8.75L27,8.38H26l-.32.32Zm1.18.43a.26.26,0,1,1-.26-.26A.26.26,0,0,1,26.72,9.13Z" style="fill: #fff;stroke: #fff;stroke-linecap: round;stroke-linejoin: round;stroke-width: 0.4px"/>
        <rect height="11.93" rx="0.69" ry="0.69" style="fill: #fff;stroke: #fff;stroke-linecap: round;stroke-linejoin: round;stroke-width: 0.4px" width="7.63" x="17.89" y="7.92"/>
      </g>
      <g>
        <g>
          <polygon points="9.17 30.61 12.38 30.61 10.77 29 9.17 30.61" style="fill: #878383"/>
          <polygon points="10.77 29 12.38 27.39 9.17 27.39 10.77 29" style="fill: #878383"/>
          <polygon points="10.77 29 9.17 30.61 12.38 30.61 10.77 29" style="fill: #878383"/>
        </g>
        <g>
          <polygon points="12.38 30.61 12.38 27.39 10.77 29 12.38 30.61" style="fill: #878383"/>
          <polygon points="10.77 29 9.17 27.39 9.17 30.61 10.77 29" style="fill: #878383"/>
          <polygon points="10.77 29 12.38 30.61 12.38 27.39 10.77 29" style="fill: #878383"/>
        </g>
      </g>
      <path d="M2.46,51.83V41.33H1.13V29.21l.86.38H5.29l1,.42.17.38.5,0,.5.27h.89l.72.94v1.61c.94.64,1.32,1.24.17,1.72l-.57-.21L8.14,35l0,2.06c-.78,0-1.53.1-1.08,1.36H9.26l-.09,2.13-2.23,0-2.09,2v9.29Z" style="fill: #cf2f27"/>
    </g>
    <g data-name="POINTS]" id="POINTS_">
      <circle cx="3.72" cy="20.97" r="0.64" style="fill: #e51b2d"/>
      <circle cx="3.64" cy="18.31" r="0.64" style="fill: #e51b2d"/>
      <circle cx="2.45" cy="14.95" r="0.64" style="fill: #e51b2d"/>
      <circle cx="13.66" cy="15.83" r="0.64" style="fill: #e51b2d"/>
      <circle cx="16.43" cy="16.47" r="0.64" style="fill: #e51b2d"/>
      <circle cx="16.46" cy="12.77" r="0.64" style="fill: #e51b2d"/>
      <circle cx="21.82" cy="6.36" r="0.64" style="fill: #e51b2d"/>
      <circle cx="36.07" cy="26.62" r="0.64" style="fill: #e51b2d"/>
      <circle cx="39" cy="19.48" r="0.64" style="fill: #e51b2d"/>
      <circle cx="40.59" cy="15.88" r="0.64" style="fill: #e51b2d"/>
      <circle cx="40.59" cy="32.49" r="0.64" style="fill: #e51b2d"/>
      <circle cx="36.27" cy="50.45" r="0.64" style="fill: #e51b2d"/>
      <circle cx="21.71" cy="26.63" r="0.87" style="fill: #e51b2d"/>
      <circle cx="27.51" cy="15.47" r="0.87" style="fill: #e51b2d"/>
      <circle cx="28.96" cy="29.18" r="0.87" style="fill: #e51b2d"/>
      <circle cx="21.82" cy="30.97" r="0.64" style="fill: #e51b2d"/>
      <circle cx="6.63" cy="33.13" r="0.64" style="fill: #e51b2d"/>
    </g>
    <g data-name="WHITE LINES" id="WHITE_LINES">
      <rect height="5.81" rx="0.69" ry="0.69" style="fill: none;stroke: #fff;stroke-linecap: round;stroke-linejoin: round;stroke-width: 0.4px" transform="translate(13.37 66.27) rotate(-90)" width="8.78" x="35.43" y="23.55"/>
      <polyline points="27.51 31.92 35.94 31.92 35.94 46.25 27.51 46.25" style="fill: none;stroke: #fff;stroke-linecap: round;stroke-linejoin: round;stroke-width: 0.4px"/>
      <polyline points="15.88 46.25 10.38 46.25 7.48 43.34 7.48 34.88 10.43 31.93 15.88 31.93" style="fill: none;stroke: #fff;stroke-linecap: round;stroke-linejoin: round;stroke-width: 0.4px"/>
      <rect height="5.67" rx="1.19" ry="1.19" style="fill: none;stroke: #fff;stroke-linecap: round;stroke-linejoin: round;stroke-width: 0.4px" transform="translate(-22.75 30.04) rotate(-90)" width="6.38" x="0.46" y="23.56"/>
    </g>
    <g data-name="BLACK SQUARES" id="BLACK_SQUARES">
      <rect height="3.38" style="fill: #958b81" transform="translate(-6.54 72.06) rotate(-90)" width="7.83" x="28.84" y="37.6"/>
      <rect height="2.53" style="fill: #958b81" transform="translate(-29.34 49.26) rotate(-90)" width="7.83" x="6.04" y="38.03"/>
      <rect height="6.1" style="fill: #4d3e3e" transform="translate(5.87 37.27) rotate(-90)" width="3.49" x="19.83" y="12.65"/>
      <rect height="20.34" rx="0.89" ry="0.89" style="fill: #545258" transform="translate(-18.13 60.49) rotate(-90)" width="12.38" x="14.99" y="29.14"/>
      <rect height="6.68" rx="0.65" ry="0.65" style="fill: #3b3839" transform="translate(3.53 39.57) rotate(-90)" width="3.21" x="19.95" y="14.68"/>
      <rect height="6.86" rx="0.74" ry="0.74" style="fill: #3e383a" transform="translate(9.48 33.81) rotate(-90)" width="7.42" x="17.94" y="8.74"/>
      <g>
        <circle cx="21.55" cy="18.11" r="1.28" style="fill: #1a1218"/>
        <path d="M20.1,18a1.46,1.46,0,1,0,1.46-1.46A1.46,1.46,0,0,0,20.1,18Zm2.74,0a1.28,1.28,0,1,1-1.28-1.28A1.28,1.28,0,0,1,22.84,18Z" style="fill: #453f41"/>
        <circle cx="21.55" cy="18.08" r="0.64" style="fill: #6f6a6b"/>
      </g>
      <circle cx="21.55" cy="10.29" r="1.42" style="fill: #493933" transform="translate(-1.89 5.74) rotate(-14.54)"/>
      <path d="M20,10.34a1.59,1.59,0,1,0,1.59-1.59A1.59,1.59,0,0,0,20,10.34Zm3,0a1.4,1.4,0,1,1-1.4-1.4A1.4,1.4,0,0,1,22.95,10.34Z" style="fill: #654c42"/>
      <rect height="1.61" style="fill: #746560" transform="translate(10.95 32.24) rotate(-90)" width="1.61" x="20.79" y="9.84"/>
      <rect height="1.2" style="fill: #2a2225" transform="translate(10.96 32.29) rotate(-90)" width="1.2" x="21.02" y="10.06"/>
      <rect height="1.75" rx="0.28" ry="0.28" style="fill: #3b3839" transform="translate(8.06 39.97) rotate(-90)" width="0.67" x="23.68" y="15.08"/>
      <rect height="1.75" rx="0.28" ry="0.28" style="fill: #3b3839" transform="translate(3.44 35.35) rotate(-90)" width="0.67" x="19.06" y="15.08"/>
      <line style="fill: none;stroke: #fff;stroke-miterlimit: 10;stroke-width: 0.09px" x1="11.57" x2="11.57" y1="45.44" y2="33.16"/>
      <line style="fill: none;stroke: #fff;stroke-miterlimit: 10;stroke-width: 0.09px" x1="11.23" x2="11.23" y1="45.18" y2="33.44"/>
      <line style="fill: none;stroke: #fff;stroke-miterlimit: 10;stroke-width: 0.09px" x1="11.89" x2="11.89" y1="45.44" y2="33.16"/>
      <line style="fill: none;stroke: #fff;stroke-miterlimit: 10;stroke-width: 0.09px" x1="12.21" x2="12.21" y1="45.44" y2="33.16"/>
      <line style="fill: none;stroke: #fff;stroke-miterlimit: 10;stroke-width: 0.09px" x1="12.54" x2="12.54" y1="45.44" y2="33.16"/>
      <line style="fill: none;stroke: #fff;stroke-miterlimit: 10;stroke-width: 0.09px" x1="12.86" x2="12.86" y1="45.44" y2="33.16"/>
      <line style="fill: none;stroke: #fff;stroke-miterlimit: 10;stroke-width: 0.09px" x1="13.11" x2="13.11" y1="45.44" y2="33.16"/>
      <line style="fill: none;stroke: #fff;stroke-miterlimit: 10;stroke-width: 0.09px" x1="13.51" x2="13.51" y1="45.44" y2="33.16"/>
      <line style="fill: none;stroke: #fff;stroke-miterlimit: 10;stroke-width: 0.09px" x1="13.88" x2="13.88" y1="45.44" y2="33.16"/>
      <line style="fill: none;stroke: #fff;stroke-miterlimit: 10;stroke-width: 0.09px" x1="14.1" x2="14.1" y1="45.44" y2="33.16"/>
    </g>
    <g id="TEXT">
      <g>
        <path d="M4.73,34.12c.07,0,.12,0,.12.13s0,.13-.12.13H3v-.85a.4.4,0,0,1,.1-.29.33.33,0,0,1,.3-.12h.32a.36.36,0,0,1,.3.1.42.42,0,0,1,.11.34v.56Zm-.8,0v-.57c0-.15,0-.18-.17-.18H3.44c-.13,0-.17,0-.17.18v.57Z" style="fill: #fff"/>
        <path d="M4.4,31.38a.29.29,0,0,1,.19-.09c.17,0,.26.15.26.32v.56a.4.4,0,0,1-.07.26.28.28,0,0,1-.22.12.13.13,0,0,1-.14-.13.12.12,0,0,1,.12-.12c.07,0,.08,0,.08-.11v-.55s0-.08,0-.08-.05,0-.07,0l-1,.87a.27.27,0,0,1-.19.08.25.25,0,0,1-.22-.13.37.37,0,0,1,0-.21v-.54a.39.39,0,0,1,.08-.25.31.31,0,0,1,.22-.12.12.12,0,0,1,.13.13.11.11,0,0,1-.11.12c-.08,0-.09,0-.09.12v.54s0,.09,0,.09,0,0,.06,0Z" style="fill: #fff"/>
      </g>
      <g>
        <path d="M8.32,48.49a.12.12,0,1,1,0-.23h.5v.46a.36.36,0,0,1-.41.36H8A.41.41,0,0,1,7.68,49a.32.32,0,0,1-.12-.29v-.58a.45.45,0,0,1,.13-.34l.3-.35a.4.4,0,0,1,.36-.16h.34a.12.12,0,1,1,0,.23H8.38c-.14,0-.13,0-.21.09l-.28.32a.41.41,0,0,0-.08.3v.45c0,.13,0,.17.18.17h.4c.09,0,.17,0,.17-.12v-.24Z" style="fill: #fff"/>
        <path d="M10.4,47.4c0-.07,0-.12.13-.12s.13,0,.13.12v1.69h-.34l-.67-1.39h0V49c0,.07,0,.12-.13.12s-.13,0-.13-.12V47.28h.34l.67,1.41h0Z" style="fill: #fff"/>
        <path d="M11.48,47.51h-.09c-.08,0-.16,0-.16-.12s.07-.12.15-.12h.43a.38.38,0,0,1,.38.23l.22.41a.5.5,0,0,1,.08.27.51.51,0,0,1-.07.26l-.23.42a.39.39,0,0,1-.4.22h-.42a.12.12,0,1,1,0-.23h.12Zm.25,1.34h0c.11,0,.13,0,.18-.1l.22-.41a.3.3,0,0,0,0-.15.36.36,0,0,0-.06-.19L12,47.61c-.05-.1-.08-.1-.19-.1h0Z" style="fill: #fff"/>
      </g>
      <g>
        <path d="M2.65,47.76v-.37c0-.07,0-.12.13-.12s.13,0,.13.12v.37a.21.21,0,0,1,0,.09L2.4,49c0,.06,0,.1-.13.1s-.1,0-.13-.1l-.49-1.13a.22.22,0,0,1,0-.09v-.37c0-.07,0-.12.13-.12s.13,0,.13.12v.37l.37.89Z" style="fill: #fff"/>
        <path d="M4.61,48.85a.12.12,0,1,1,0,.23H3.47V47.39c0-.07,0-.12.13-.12s.13,0,.13.12v1.46Z" style="fill: #fff"/>
      </g>
      <g>
        <path d="M16.23,47.76v-.37c0-.07,0-.12.13-.12s.13,0,.13.12v.37a.21.21,0,0,1,0,.09L16,49c0,.06,0,.1-.13.1s-.1,0-.13-.1l-.49-1.13a.22.22,0,0,1,0-.09v-.37c0-.07,0-.12.13-.12s.13,0,.13.12v.37l.37.89Z" style="fill: #fff"/>
        <path d="M17.74,49.08a.38.38,0,0,1-.38-.22l-.23-.43a.48.48,0,0,1-.07-.24.47.47,0,0,1,.07-.26l.23-.43a.39.39,0,0,1,.39-.22h.43a.12.12,0,0,1,.13.12.12.12,0,0,1-.13.12h-.43c-.11,0-.13,0-.18.1l-.22.4a.33.33,0,0,0-.05.18.3.3,0,0,0,.05.16l.22.4c.05.1.08.1.19.1h.42a.11.11,0,0,1,.13.12.12.12,0,0,1-.13.12Z" style="fill: #fff"/>
        <path d="M19.58,49.08a.38.38,0,0,1-.38-.22L19,48.43a.48.48,0,0,1-.07-.24.47.47,0,0,1,.07-.26l.23-.43a.39.39,0,0,1,.39-.22H20a.12.12,0,0,1,.13.12.12.12,0,0,1-.13.12H19.6c-.11,0-.13,0-.18.1l-.22.4a.33.33,0,0,0-.05.18.3.3,0,0,0,.05.16l.22.4c.05.1.08.1.19.1H20a.11.11,0,0,1,.13.12.12.12,0,0,1-.13.12Z" style="fill: #fff"/>
      </g>
      <g>
        <path d="M23.69,48.63a.29.29,0,0,1,.09.19c0,.17-.15.26-.32.26h-.56a.4.4,0,0,1-.26-.07.28.28,0,0,1-.12-.22.13.13,0,0,1,.13-.14.12.12,0,0,1,.12.12c0,.07,0,.08.11.08h.55s.08,0,.08,0,0-.05,0-.07l-.87-1a.27.27,0,0,1-.08-.19.25.25,0,0,1,.13-.22.37.37,0,0,1,.21,0h.54a.38.38,0,0,1,.25.08.31.31,0,0,1,.12.22.12.12,0,0,1-.13.13.11.11,0,0,1-.12-.11c0-.08,0-.09-.12-.09h-.54s-.09,0-.09,0,0,0,0,.06Z" style="fill: #fff"/>
        <path d="M24.6,47.51h-.09c-.08,0-.16,0-.16-.12s.07-.12.15-.12h.43a.38.38,0,0,1,.38.23l.22.41a.5.5,0,0,1,.08.27.51.51,0,0,1-.07.26l-.23.42a.39.39,0,0,1-.4.22h-.42a.12.12,0,1,1,0-.23h.12Zm.25,1.34h0c.11,0,.13,0,.18-.1l.22-.41a.3.3,0,0,0,0-.15.36.36,0,0,0-.06-.19l-.21-.39c-.05-.1-.08-.1-.19-.1h0Z" style="fill: #fff"/>
        <path d="M26.68,47.4c0-.06,0-.12.13-.12s.12.06.13.12L27.44,49c0,.06-.05.12-.12.12a.15.15,0,0,1-.14-.12l-.09-.28h-.54l-.1.28a.15.15,0,0,1-.14.12c-.07,0-.14-.06-.12-.12Zm.13.43h0l-.2.63H27Z" style="fill: #fff"/>
      </g>
      <g>
        <path d="M31.69,48.63a.29.29,0,0,1,.09.19c0,.17-.15.26-.32.26H30.9a.4.4,0,0,1-.26-.07.28.28,0,0,1-.12-.22.13.13,0,0,1,.13-.14.12.12,0,0,1,.12.12c0,.07,0,.08.11.08h.55s.08,0,.08,0,0-.05,0-.07l-.87-1a.26.26,0,0,1-.08-.19.25.25,0,0,1,.13-.22.37.37,0,0,1,.21,0h.54a.38.38,0,0,1,.25.08.31.31,0,0,1,.12.22.12.12,0,0,1-.13.13.11.11,0,0,1-.12-.11c0-.08,0-.09-.12-.09h-.54s-.09,0-.09,0,0,0,0,.06Z" style="fill: #fff"/>
        <path d="M33,49.08a.39.39,0,0,1-.38-.22l-.23-.43a.49.49,0,0,1-.07-.24.47.47,0,0,1,.07-.26l.23-.43a.39.39,0,0,1,.39-.22h.43a.11.11,0,0,1,.13.12.12.12,0,0,1-.13.12h-.42c-.11,0-.13,0-.18.1l-.22.4a.34.34,0,0,0-.05.18.3.3,0,0,0,.05.16l.22.4c.05.1.08.1.19.1h.42a.12.12,0,0,1,.13.12.12.12,0,0,1-.13.12Z" style="fill: #fff"/>
        <path d="M35.32,48.85a.12.12,0,1,1,0,.23H34.19V47.39c0-.07,0-.12.13-.12s.13,0,.13.12v1.46Z" style="fill: #fff"/>
      </g>
      <g>
        <path d="M38.08,48.92h.42a.13.13,0,1,1,0,.26H37.38a.13.13,0,1,1,0-.26h.42V47.43h-.42a.13.13,0,1,1,0-.26H38.5a.13.13,0,1,1,0,.26h-.42Z" style="fill: #fff"/>
        <path d="M40.4,47.31c0-.08,0-.13.14-.13s.14,0,.14.13v1.88h-.37l-.74-1.55h0v1.42c0,.08,0,.13-.14.13s-.14,0-.14-.13V47.18h.38l.74,1.57h0Z" style="fill: #fff"/>
        <path d="M41.61,47.43v.09c0,.08,0,.13-.14.13s-.14,0-.14-.13v-.35h1.4v.35c0,.08,0,.13-.14.13s-.14,0-.14-.13v-.09h-.27v1.62c0,.08,0,.13-.14.13s-.14,0-.14-.13V47.43Z" style="fill: #fff"/>
      </g>
      <g>
        <path d="M42.09,36.52c.07,0,.12,0,.12.13s0,.13-.12.13H40.4v-.85a.4.4,0,0,1,.09-.29.34.34,0,0,1,.3-.12h.32a.36.36,0,0,1,.3.1.42.42,0,0,1,.11.34v.56Zm-.8,0V36c0-.15,0-.18-.17-.18H40.8c-.13,0-.17,0-.17.18v.57Z" style="fill: #fff"/>
        <path d="M42.2,34.53a.41.41,0,0,1-.12.32.35.35,0,0,1-.28.1H40.52c-.07,0-.12,0-.12-.13s0-.13.12-.13h1.29c.13,0,.16,0,.16-.16v-.43c0-.11,0-.16-.16-.16H40.52c-.07,0-.12,0-.12-.13s0-.13.12-.13h1.29a.35.35,0,0,1,.28.1.41.41,0,0,1,.12.32Z" style="fill: #fff"/>
      </g>
      <g>
        <path d="M38.76,37.48H38.3c-.07,0-.12,0-.12-.13s0-.13.12-.13h.58a.11.11,0,0,1,.12.13v1a.12.12,0,1,1-.23,0V38H37.42v.37a.12.12,0,1,1-.23,0v-.63h1.57Z" style="fill: #fff"/>
        <path d="M38.76,36.39v-.88a.12.12,0,1,1,.23,0v1.13h-.76c-.17,0-.26-.1-.26-.29v-.72h-.55v.88a.12.12,0,1,1-.23,0v-.85a.28.28,0,0,1,.07-.21.23.23,0,0,1,.21-.08h.48a.23.23,0,0,1,.21.08.28.28,0,0,1,.07.21v.72Z" style="fill: #fff"/>
        <path d="M39,34.13a.38.38,0,0,1-.22.38l-.43.23a.48.48,0,0,1-.24.07.46.46,0,0,1-.26-.07l-.43-.23a.39.39,0,0,1-.22-.39v-.43a.12.12,0,0,1,.12-.13.12.12,0,0,1,.12.13v.43c0,.11,0,.13.1.18l.4.22a.33.33,0,0,0,.18.05.3.3,0,0,0,.16-.05l.4-.22c.1-.05.1-.08.1-.19v-.42a.12.12,0,1,1,.23,0Z" style="fill: #fff"/>
      </g>
      <path d="M2.93,38.21A1,1,0,0,0,1.62,39a2,2,0,0,0,0,.4q0,1.75,0,3.5s0,.08,0,.14l.12-.14,1.2-1.33a1,1,0,0,1,.83-.33,2.41,2.41,0,0,0,.65,0A2.51,2.51,0,0,0,6.3,38.54a2,2,0,0,0-.5-1.23A3.17,3.17,0,0,0,5.47,37c0,.08,0,.1,0,.12,0,.34-.2.49-.51.34a1.67,1.67,0,0,1-.52-.38.49.49,0,0,1,.28-.84,3,3,0,0,1,.36,0A1.39,1.39,0,0,0,3.8,36a1.1,1.1,0,0,0-.8.83.93.93,0,0,0,.21.73,5.81,5.81,0,0,0,.44.5.78.78,0,0,1,.24.45.58.58,0,0,1-.52.62.67.67,0,0,1-.78-.34.31.31,0,0,1,.09-.37Z" style="fill: #fff"/>
      <g>
        <rect height="2.09" rx="0.42" ry="0.42" style="fill: #e7e6e8" transform="translate(50.83 47.61) rotate(180)" width="3.09" x="23.87" y="22.76"/>
        <rect height="2.55" rx="0.73" ry="0.73" style="fill: #e7e6e8" transform="translate(50.83 59.14) rotate(180)" width="3.04" x="23.89" y="28.3"/>
        <rect height="4.26" rx="0.92" ry="0.92" style="fill: #e7e6e8" transform="translate(50.83 53.27) rotate(180)" width="2.53" x="24.15" y="24.51"/>
        <rect height="2.16" style="fill: #2a292d" transform="translate(-1.17 52.1) rotate(-90)" width="3.25" x="23.84" y="25.56"/>
      </g>
      <g>
        <rect height="2.09" rx="0.42" ry="0.42" style="fill: #e7e6e8" transform="translate(65.23 47.61) rotate(180)" width="3.09" x="31.07" y="22.76"/>
        <rect height="2.55" rx="0.73" ry="0.73" style="fill: #e7e6e8" transform="translate(65.23 59.14) rotate(180)" width="3.04" x="31.09" y="28.3"/>
        <rect height="4.26" rx="0.92" ry="0.92" style="fill: #e7e6e8" transform="translate(65.23 53.27) rotate(180)" width="2.53" x="31.35" y="24.51"/>
        <rect height="2.16" style="fill: #2a292d" transform="translate(6.03 59.3) rotate(-90)" width="3.25" x="31.04" y="25.56"/>
      </g>
      <rect height="2.09" rx="0.42" ry="0.42" style="fill: #d2cac6" transform="translate(16.29 55.03) rotate(-90)" width="3.09" x="34.11" y="18.32"/>
      <rect height="2.55" rx="0.73" ry="0.73" style="fill: #d2cac6" transform="translate(10.52 49.26) rotate(-90)" width="3.04" x="28.37" y="18.1"/>
      <rect height="4.26" rx="0.92" ry="0.92" style="fill: #d2cac6" transform="translate(13.46 52.2) rotate(-90)" width="2.53" x="31.57" y="17.24"/>
      <rect height="2.16" style="fill: #2a292d" width="3.25" x="31.2" y="18.34"/>
      <g>
        <path d="M25.47,26h.32s.06,0,.06,0,0,0-.06,0h-.32s0,0-.05,0-.05,0-.05,0h-.22s-.05,0-.05,0,0,0,.05,0h.22v-.26h.52s.05,0,.05,0,0,0-.05,0h-.41Z" style="fill: #fbfcfe"/>
        <path d="M25.82,26.43s-.06,0-.06,0,0,0,.06,0h.05s.05,0,.05,0v.4h-.32s0,0-.07,0l-.13-.13a.07.07,0,0,0-.07,0h-.21s-.05,0-.05,0,0,0,.05,0h.26a.07.07,0,0,1,.06,0l.13.12s0,0,.08,0h.15Z" style="fill: #fbfcfe"/>
        <path d="M25.19,27.07v.31s0,0-.05,0-.05,0-.05,0V27h.36c.08,0,.12,0,.12.1v.25h.26V27s0,0,.05,0,.05,0,.05,0v.3a.08.08,0,0,1,0,.07.13.13,0,0,1-.1,0h-.23a.13.13,0,0,1-.1,0,.08.08,0,0,1,0-.07v-.25Z" style="fill: #fbfcfe"/>
      </g>
      <g>
        <path d="M32.51,27.12h-.32s-.06,0-.06,0,0,0,.06,0h.32s0,0,.05,0,.05,0,.05,0h.22s.05,0,.05,0,0,0-.05,0h-.22v.26h-.52s-.05,0-.05,0,0,0,.05,0h.41Z" style="fill: #fbfcfe"/>
        <path d="M32.15,26.69s.06,0,.06,0,0,0-.06,0h-.05s-.05,0-.05,0v-.4h.32s0,0,.07,0l.13.13a.07.07,0,0,0,.07,0h.21s.05,0,.05,0,0,0-.05,0h-.26a.07.07,0,0,1-.06,0l-.13-.12s0,0-.08,0h-.15Z" style="fill: #fbfcfe"/>
        <path d="M32.78,26v-.31s0,0,.05,0,.05,0,.05,0v.4h-.36c-.08,0-.12,0-.12-.1v-.25h-.26v.31s0,0-.05,0-.05,0-.05,0v-.3a.08.08,0,0,1,0-.07.13.13,0,0,1,.1,0h.23a.13.13,0,0,1,.1,0,.08.08,0,0,1,0,.07V26Z" style="fill: #fbfcfe"/>
      </g>
      <g>
        <path d="M33.28,19.85a.1.1,0,0,1-.09-.11V19.1a.1.1,0,0,1,.09-.11h.26a.1.1,0,0,1,.09.11v.64a.1.1,0,0,1-.09.11Zm0-.75v.64h.26V19.1Z" style="fill: #fbfcfe"/>
        <path d="M32.64,19.1v.22s0,.05,0,.05,0,0,0-.05V19s0-.05,0-.05h.35s0,0,0,.05,0,.05,0,.05h-.13v.64h.13s0,0,0,.05,0,.05,0,.05h-.22V19.1Z" style="fill: #fbfcfe"/>
        <path d="M32.11,19a.14.14,0,0,1,.13.1l.08.2a.28.28,0,0,1,0,.12.29.29,0,0,1,0,.12l-.08.2a.14.14,0,0,1-.14.11h-.15s0,0,0-.05,0-.05,0-.05h.15s0,0,.06,0l.08-.19a.2.2,0,0,0,0-.08.18.18,0,0,0,0-.08l-.08-.19s0,0-.07,0h-.15s0,0,0-.05,0-.05,0-.05Z" style="fill: #fbfcfe"/>
      </g>
      <g>
        <rect height="2.1" rx="0.42" ry="0.42" style="fill: #e7e6e8" transform="translate(35.69 47.62) rotate(180)" width="2.82" x="16.43" y="22.76"/>
        <rect height="2.56" rx="0.73" ry="0.73" style="fill: #fffdf3" transform="translate(35.69 59.38) rotate(180)" width="2.78" x="16.46" y="28.41"/>
        <rect height="4.28" rx="0.92" ry="0.92" style="fill: #b99069" transform="translate(35.78 54.52) rotate(180)" width="2.22" x="16.78" y="25.12"/>
        <path d="M16.61,25.51q-.15-.8.75-.79l1.47.05c.39.2.51.47.15.85a4.39,4.39,0,0,1-1.9.21A.45.45,0,0,1,16.61,25.51Z" style="fill: #757376"/>
        <path d="M16.61,29.2q-.15-.8.75-.79l1.47.05c.39.2.51.47.15.85a4.39,4.39,0,0,1-1.9.21A.45.45,0,0,1,16.61,29.2Z" style="fill: #757376"/>
      </g>
      <g>
        <rect height="2.1" rx="0.42" ry="0.42" style="fill: #e7e6e8" transform="translate(27.25 11.69) rotate(90)" width="2.82" x="6.37" y="18.41"/>
        <rect height="2.56" rx="0.73" ry="0.73" style="fill: #fffdf3" transform="translate(33.12 5.81) rotate(90)" width="2.78" x="12.27" y="18.19"/>
        <rect height="4.28" rx="0.92" ry="0.92" style="fill: #b99069" transform="translate(30.65 8.2) rotate(90)" width="2.22" x="10.11" y="17.28"/>
        <path d="M9.48,20.7q-.8.15-.79-.75l.05-1.47c.2-.39.47-.51.85-.15a4.39,4.39,0,0,1,.21,1.9A.45.45,0,0,1,9.48,20.7Z" style="fill: #757376"/>
        <path d="M13.16,20.7q-.8.15-.79-.75l.05-1.47c.2-.39.47-.51.85-.15a4.39,4.39,0,0,1,.21,1.9A.45.45,0,0,1,13.16,20.7Z" style="fill: #757376"/>
      </g>
      <g>
        <path d="M17,38v-.56a.13.13,0,1,1,.27,0v.7a.13.13,0,0,1-.13.14H16A.14.14,0,0,1,16,38h.39v-1.6H16a.14.14,0,0,1,0-.28h.66V38Z" style="fill: #fff"/>
        <path d="M18.88,36.16a.27.27,0,0,1,.27.28V38a.27.27,0,0,1-.27.28H18.1a.27.27,0,0,1-.27-.28v-1.6a.27.27,0,0,1,.27-.28Zm0,1.88v-1.6H18.1V38Z" style="fill: #fff"/>
        <path d="M20.8,36.16a.27.27,0,0,1,.27.28V38a.27.27,0,0,1-.27.28H20a.27.27,0,0,1-.27-.28v-1.6a.27.27,0,0,1,.27-.28Zm0,1.88v-1.6H20V38Z" style="fill: #fff"/>
        <path d="M22.65,37.08c.11,0,.16,0,.16.17s-.05.17-.16.17H22c-.11,0-.16,0-.16-.17s.05-.17.16-.17Z" style="fill: #fff"/>
        <path d="M24.65,38v-.56a.13.13,0,1,1,.27,0v.7a.13.13,0,0,1-.13.14H23.73a.14.14,0,0,1,0-.28h.39v-1.6h-.39a.14.14,0,0,1,0-.28h.66V38Z" style="fill: #fff"/>
        <path d="M26.57,36.16a.27.27,0,0,1,.27.28V38a.27.27,0,0,1-.27.28h-.79a.27.27,0,0,1-.27-.28v-1.6a.27.27,0,0,1,.27-.28Zm0,1.88v-1.6h-.79V38Z" style="fill: #fff"/>
        <path d="M28.63,38a.14.14,0,0,1,0,.28H27.44v-2c0-.09,0-.14.13-.14s.13,0,.13.14V38Z" style="fill: #fff"/>
      </g>
      <g>
        <path d="M18.23,43.24c.12,0,.24.05.24.2s-.11.2-.24.2H16.14V40.58h2.09c.12,0,.24.05.24.2s-.11.2-.24.2H16.61v.94h.69c.12,0,.24.06.24.2s-.11.2-.24.2h-.69v.94Z" style="fill: #fff"/>
        <path d="M20,43.24h1.62c.12,0,.24.05.24.2s-.11.2-.24.2H19.53V42.35c0-.29.18-.44.53-.44h1.33V41H19.76c-.12,0-.24-.06-.24-.2s.11-.2.24-.2h1.57a.56.56,0,0,1,.38.11.37.37,0,0,1,.15.35v.8a.37.37,0,0,1-.15.35.56.56,0,0,1-.38.11H20Z" style="fill: #fff"/>
      </g>
      <path d="M25.46,43.46h1.36c.1,0,.2,0,.2.16s-.09.16-.2.16H25.07V42.72c0-.25.15-.37.45-.37h1.11v-.78H25.26c-.1,0-.2,0-.2-.16s.09-.16.2-.16h1.31a.47.47,0,0,1,.32.09.31.31,0,0,1,.12.29v.67a.31.31,0,0,1-.12.29.47.47,0,0,1-.32.09H25.46Z" style="fill: #fff"/>
      <circle cx="25.87" cy="42.54" r="2" style="fill: none;stroke: #fff;stroke-miterlimit: 10;stroke-width: 0.4px"/>
      <line style="fill: none;stroke: #fff;stroke-linecap: round;stroke-miterlimit: 10;stroke-width: 0.4px" x1="23.89" x2="27.87" y1="39.96" y2="39.96"/>
      <line style="fill: none;stroke: #fff;stroke-linecap: round;stroke-miterlimit: 10;stroke-width: 0.4px" x1="9.83" x2="11.89" y1="26.42" y2="26.42"/>
      <polygon points="34.25 49.82 30.89 49.82 28.95 51.55 27.17 49.97 23.57 49.97 21.86 51.5 20.05 49.89 16.42 49.89 14.57 51.53 12.8 49.96 9.1 49.96 7.21 51.64 5.3 49.94 1.88 49.94 0.25 51.39 0.25 55.53 1.88 56.99 5.3 56.99 7.21 55.29 9.1 56.97 12.8 56.97 14.57 55.39 16.42 57.04 20.05 57.04 21.86 55.43 23.57 56.96 27.17 56.96 28.95 55.38 30.89 57.11 34.25 57.11 36.14 55.42 37.79 57.08 41.73 57.08 43.39 55.41 43.39 51.55 41.79 49.95 38.06 49.82 36.18 51.53 34.25 49.82" style="fill: none;stroke: #eeefeb;stroke-miterlimit: 10;stroke-width: 0.5px"/>
    </g>
  </g>
  <g id="Connectors">
    <circle cx="3.81" cy="53.65" data-cir-type="male" id="circuitoCon_VL" r="2.1" style="fill: none;stroke: #e8e5df;stroke-width: 1.224px"/>
    <circle cx="11.01" cy="53.65" data-cir-type="male" id="circuitoCon_GND" r="2.1" style="fill: none;stroke: #e8e5df;stroke-width: 1.224px"/>
    <circle cx="18.21" cy="53.65" data-cir-type="male" id="circuitoCon_VCC" r="2.1" style="fill: none;stroke: #e8e5df;stroke-width: 1.224px"/>
    <circle cx="25.41" cy="53.65" data-cir-type="male" id="circuitoCon_SDA" r="2.1" style="fill: none;stroke: #e8e5df;stroke-width: 1.224px"/>
    <circle cx="32.61" cy="53.65" data-cir-type="male" id="circuitoCon_SCL" r="2.1" style="fill: none;stroke: #e8e5df;stroke-width: 1.224px"/>
    <circle cx="39.81" cy="53.65" data-cir-type="male" id="circuitoCon_INT" r="2.1" style="fill: none;stroke: #e8e5df;stroke-width: 1.224px"/>
  </g>
</svg>