<?xml version="1.0" ?><svg height="44.78mm" viewBox="0 0 35.75 126.93" width="12.61mm" xmlns="http://www.w3.org/2000/svg">
  <title>Infrared Flame Detection Sensor gata</title>
  <g id="motherb">
    <circle cx="2.44" cy="32.25" r="1.57" style="fill: none"/>
    <circle cx="32.26" cy="32.25" r="1.57" style="fill: none"/>
    <path d="M0,27.75v84.63H35.75V27.75Zm2.44,6.07A1.57,1.57,0,1,1,4,32.25,1.57,1.57,0,0,1,2.44,33.82ZM17.38,99.31A6.31,6.31,0,1,1,23.69,93,6.31,6.31,0,0,1,17.38,99.31ZM32.26,33.82a1.57,1.57,0,1,1,1.57-1.57A1.57,1.57,0,0,1,32.26,33.82Z" style="fill: #10385b"/>
    <circle cx="17.45" cy="93" r="5.82" style="fill: none;stroke: #575664;stroke-miterlimit: 10"/>
  </g>
  <g id="circuit">
    <polyline points="30.72 33.41 22.46 33.41 19 35.96 19 40.67 19 50.29" style="fill: none;stroke: #0e283e;stroke-miterlimit: 10"/>
    <polyline points="15.92 40.67 15.92 34.5 19 30.96 30.67 30.96" style="fill: none;stroke: #0e283e;stroke-miterlimit: 10"/>
    <line style="fill: none;stroke: #0e283e;stroke-miterlimit: 10" x1="32.83" x2="32.83" y1="75.38" y2="95.94"/>
    <line style="fill: #1a2c80" x1="34.13" x2="31.96" y1="99.31" y2="101.48"/>
    <line style="fill: #1a2c80" x1="28.9" x2="3.38" y1="100.81" y2="100.81"/>
    <line style="fill: #1a2c80" x1="4.44" x2="8.28" y1="104.11" y2="104.11"/>
    <line style="fill: none;stroke: #0e283e;stroke-miterlimit: 10" x1="2.85" x2="2.85" y1="82.98" y2="91.33"/>
    <polyline points="5.17 91.33 5.17 82.98 5.17 94.19" style="fill: none;stroke: #0e283e;stroke-miterlimit: 10"/>
    <path d="M8.31,82.13v5.19a1.59,1.59,0,0,0,3.19,0V82" style="fill: none;stroke: #0e283e;stroke-miterlimit: 10"/>
    <line style="fill: #1a2c80" x1="29.54" x2="29.54" y1="82.67" y2="93.42"/>
    <rect height="7.62" style="fill: #0e283e" width="1.28" x="31.66" y="83.03"/>
    <polyline points="22.96 50.29 13.33 50.29 13.33 64.29" style="fill: none;stroke: #0e283e;stroke-miterlimit: 10"/>
    <line style="fill: none;stroke: #0e283e;stroke-miterlimit: 10" x1="11.17" x2="11.17" y1="48.5" y2="64.29"/>
    <line style="fill: none;stroke: #0e283e;stroke-miterlimit: 10" x1="6.79" x2="6.79" y1="49.88" y2="64.29"/>
    <line style="fill: #1a2c80" x1="6.79" x2="12" y1="40" y2="40"/>
    <rect height="12.66" style="fill: #0e283e" width="1.69" x="2.88" y="49.88"/>
    <path d="M11,75V71.84h-.75V75a1.29,1.29,0,1,1-2.58,0V71.84H6.82V75a1.29,1.29,0,1,1-2.58,0V71.84H3.38V75A1.29,1.29,0,1,1,.79,75L2,73.72" style="fill: none;stroke: #0e283e;stroke-miterlimit: 10"/>
    <path d="M11,75a1.29,1.29,0,1,0,2.58,0L12.4,73.79" style="fill: none;stroke: #0e283e;stroke-miterlimit: 10"/>
    <line style="fill: none;stroke: #0e283e;stroke-miterlimit: 10" x1="29.75" x2="29.75" y1="81.52" y2="91.76"/>
    <polyline points="29.5 98.82 27.37 100.95 5.31 100.95 3.03 98.68" style="fill: none;stroke: #0e283e;stroke-miterlimit: 10"/>
    <polyline points="15.75 50.29 15.75 44.33 6.79 44.33 6.4 63.04" style="fill: none;stroke: #0e283e;stroke-miterlimit: 10"/>
    <line style="fill: none;stroke: #0e283e;stroke-miterlimit: 10" x1="15.75" x2="15.75" y1="40.42" y2="44.33"/>
    <polyline points="15.75 40 2.94 40 2.94 42.7" style="fill: none;stroke: #0e283e;stroke-miterlimit: 10"/>
    <line style="fill: none;stroke: #0e283e;stroke-miterlimit: 10" x1="28.67" x2="28.67" y1="47.62" y2="58.73"/>
    <line style="fill: none;stroke: #0e283e;stroke-miterlimit: 10" x1="30.96" x2="30.96" y1="47.64" y2="59.38"/>
    <path d="M7.6,62.83V56.4a1.23,1.23,0,0,1,2.46,0v8.1" style="fill: none;stroke: #0e283e;stroke-miterlimit: 10"/>
    <circle cx="32.26" cy="32.19" r="2.19" style="fill: none;stroke: #0e283e;stroke-miterlimit: 10"/>
  </g>
  <g id="white">
    <g>
      <line style="fill: none;stroke: #fff;stroke-miterlimit: 10;stroke-width: 0.5px" x1="20.94" x2="22.49" y1="100.27" y2="100.27"/>
      <line style="fill: none;stroke: #fff;stroke-miterlimit: 10;stroke-width: 0.5px" x1="20.59" x2="22.84" y1="101.18" y2="101.18"/>
      <line style="fill: none;stroke: #fff;stroke-miterlimit: 10;stroke-width: 0.5px" x1="20.06" x2="23.37" y1="102.24" y2="102.24"/>
    </g>
    <rect height="6.78" style="fill: none;stroke: #fff;stroke-miterlimit: 10;stroke-width: 0.602866953556358px" width="29.8" x="3.03" y="103.88"/>
    <line style="fill: none;stroke: #fff;stroke-miterlimit: 10;stroke-width: 0.5px" x1="25.53" x2="25.53" y1="103.88" y2="110.66"/>
    <line style="fill: none;stroke: #fff;stroke-miterlimit: 10;stroke-width: 0.5px" x1="18" x2="18" y1="103.88" y2="110.66"/>
    <line style="fill: none;stroke: #fff;stroke-miterlimit: 10;stroke-width: 0.5px" x1="10.8" x2="10.8" y1="103.88" y2="110.66"/>
    <polyline points="9.56 78.5 14.83 78.5 14.83 84.58 9.56 84.58" style="fill: none;stroke: #fff;stroke-miterlimit: 10;stroke-width: 0.75px"/>
    <polyline points="7.06 84.58 1.81 84.58 1.81 78.5 7.06 78.5" style="fill: none;stroke: #fff;stroke-miterlimit: 10;stroke-width: 0.75px"/>
    <polyline points="29.63 78.5 34.9 78.5 34.9 84.58 29.63 84.58" style="fill: none;stroke: #fff;stroke-miterlimit: 10;stroke-width: 0.75px"/>
    <polyline points="27.13 84.58 21.88 84.58 21.88 78.5 27.13 78.5" style="fill: none;stroke: #fff;stroke-miterlimit: 10;stroke-width: 0.75px"/>
    <polyline points="2.44 43.72 2.44 38.45 8.52 38.45 8.52 43.72" style="fill: none;stroke: #fff;stroke-miterlimit: 10;stroke-width: 0.75px"/>
    <polyline points="8.52 46.22 8.52 51.47 2.44 51.47 2.44 46.22" style="fill: none;stroke: #fff;stroke-miterlimit: 10;stroke-width: 0.75px"/>
    <polyline points="10.23 43.72 10.23 38.45 16.31 38.45 16.31 43.72" style="fill: none;stroke: #fff;stroke-miterlimit: 10;stroke-width: 0.75px"/>
    <polyline points="16.31 46.22 16.31 51.47 10.23 51.47 10.23 46.22" style="fill: none;stroke: #fff;stroke-miterlimit: 10;stroke-width: 0.75px"/>
    <path d="M18.67,43.72v-3a2.93,2.93,0,0,1,2.93-2.93h0a3.16,3.16,0,0,1,3.16,3.15v2.82" style="fill: none;stroke: #fff;stroke-miterlimit: 10;stroke-width: 0.75px"/>
    <path d="M24.75,46.22l0,2.87a3.22,3.22,0,0,1-3.22,3.19h0a2.87,2.87,0,0,1-2.87-2.89l0-3.17" style="fill: none;stroke: #fff;stroke-miterlimit: 10;stroke-width: 0.75px"/>
    <path d="M26.88,43.72v-3a2.93,2.93,0,0,1,2.93-2.93h0A3.16,3.16,0,0,1,33,40.9v2.82" style="fill: none;stroke: #fff;stroke-miterlimit: 10;stroke-width: 0.75px"/>
    <path d="M33,46.22l0,2.87a3.22,3.22,0,0,1-3.22,3.19h0a2.87,2.87,0,0,1-2.87-2.89l0-3.17" style="fill: none;stroke: #fff;stroke-miterlimit: 10;stroke-width: 0.75px"/>
    <path d="M28.13,94.19" style="fill: none;stroke: #fff;stroke-miterlimit: 10;stroke-width: 0.75px"/>
    <rect height="6.81" style="fill: none;stroke: #fff;stroke-miterlimit: 10;stroke-width: 0.75px" width="13.63" x="10.75" y="28.38"/>
    <rect height="19.46" style="fill: none;stroke: #fff;stroke-miterlimit: 10;stroke-width: 0.5px" width="18.88" x="16.35" y="55.88"/>
    <polyline points="12.35 61.16 14.38 61.16 14.38 69.37 11.85 69.37" style="fill: none;stroke: #fff;stroke-miterlimit: 10;stroke-width: 0.5px"/>
  </g>
  <g id="text">
    <path d="M27.1,30v1.5h1.45v.38H27.1v1.52h-.41V31.93H25.24v-.38h1.44V30Z" style="fill: #fff"/>
    <path d="M9.33,31.38v.51H7.75v-.51Z" style="fill: #fff"/>
    <g>
      <path d="M15.54,99.62v-.11c0-.1,0-.19.17-.19a.16.16,0,0,1,.17.18V100a.46.46,0,0,1-.34.46l-.6.27a.88.88,0,0,1-.39.09.89.89,0,0,1-.37-.09l-.62-.28a.46.46,0,0,1-.32-.48v-.51a.17.17,0,0,1,.34,0v.15Zm-2,.31V100c0,.13,0,.16.14.21l.61.27a.51.51,0,0,0,.22.06.62.62,0,0,0,.28-.08l.58-.25c.15-.06.14-.09.14-.23v0Z" style="fill: #fff"/>
      <path d="M15.88,102.73a.33.33,0,0,1-.34.31h-2a.32.32,0,0,1-.34-.31v-.9a.32.32,0,0,1,.34-.31h2a.33.33,0,0,1,.34.31Zm-2.31,0h2v-.9h-2Z" style="fill: #fff"/>
    </g>
    <g>
      <path d="M8,99.92c.09,0,.17.06.17.16s-.09.14-.17.16l-2.3.59a.15.15,0,0,1-.17-.15c0-.09.09-.14.17-.16l.41-.11v-.65l-.41-.12c-.08,0-.17-.07-.17-.17a.15.15,0,0,1,.17-.15Zm-.63.16h0l-.92-.24v.48Z" style="fill: #fff"/>
      <path d="M8.15,102.73a.33.33,0,0,1-.34.31h-2a.32.32,0,0,1-.34-.31v-.9a.32.32,0,0,1,.34-.31h2a.33.33,0,0,1,.34.31Zm-2.31,0h2v-.9h-2Z" style="fill: #fff"/>
    </g>
    <g id="VCC">
      <path d="M29.14,97.48h.54c.11,0,.17,0,.17.15s-.06.15-.17.15h-.54l-.13,0-1.66-.58c-.09,0-.15-.06-.15-.15s.06-.12.15-.15L29,96.3l.13,0h.54c.11,0,.17,0,.17.15s-.06.15-.17.15h-.54l-1.3.45Z" style="fill: #fff"/>
      <path d="M27.21,99.3a.46.46,0,0,1,.32-.46l.63-.28a.84.84,0,0,1,.36-.08.81.81,0,0,1,.38.09l.63.28a.46.46,0,0,1,.33.47v.52a.15.15,0,0,1-.17.15.15.15,0,0,1-.17-.15v-.51c0-.13,0-.15-.14-.21l-.59-.27a.58.58,0,0,0-.26-.06.52.52,0,0,0-.23.06l-.59.26c-.14.06-.15.09-.15.23v.5a.15.15,0,0,1-.17.15.15.15,0,0,1-.17-.15Z" style="fill: #fff"/>
      <path d="M27.21,101.5a.46.46,0,0,1,.32-.46l.63-.28a.84.84,0,0,1,.36-.08.81.81,0,0,1,.38.09l.63.28a.46.46,0,0,1,.33.47V102a.15.15,0,0,1-.17.15.15.15,0,0,1-.17-.15v-.51c0-.13,0-.15-.14-.21l-.59-.27a.58.58,0,0,0-.26-.06.52.52,0,0,0-.23.06l-.59.26c-.14.06-.15.09-.15.23v.5a.15.15,0,0,1-.17.15.15.15,0,0,1-.17-.15Z" style="fill: #fff"/>
    </g>
  </g>
  <g id="chip">
    <rect height="10.73" style="fill: #343236" width="12.66" x="0.78" y="61.47"/>
    <g>
      <rect height="10.99" style="fill: #42444a" transform="translate(-39.22 92.3) rotate(-90)" width="10.99" x="21.05" y="60.26"/>
      <rect height="7.74" style="fill: #645d63" width="1.64" x="25.88" y="62.83"/>
      <rect height="7.86" style="fill: #9e9ea9" transform="translate(-49.21 91.97) rotate(-90)" width="7.86" x="17.45" y="66.66"/>
      <rect height="7.86" style="fill: #9e9ea9" transform="translate(-39.19 81.95) rotate(-90)" width="7.86" x="17.45" y="56.63"/>
      <rect height="7.86" style="fill: #9e9ea9" transform="translate(-29.41 91.72) rotate(-90)" width="7.86" x="27.23" y="56.63"/>
      <rect height="7.86" style="fill: #9e9ea9" transform="translate(-39.42 101.74) rotate(-90)" width="7.86" x="27.23" y="66.65"/>
      <circle cx="24.22" cy="63.33" r="0.5" style="fill: #42444a"/>
      <circle cx="24.22" cy="68.03" r="0.5" style="fill: #42444a"/>
      <g>
        <path d="M16.95,75H35.6V56.56H16.95Zm13.28-9.37a4,4,0,1,1-4-4A4,4,0,0,1,30.22,65.59Z" style="fill: #4377b5"/>
        <g>
          <g>
            <circle cx="26.24" cy="65.58" r="4.48" style="fill: none;stroke: #306baf;stroke-miterlimit: 10;stroke-width: 0.938761111535495px"/>
            <line style="fill: none;stroke: #306baf;stroke-linecap: round;stroke-miterlimit: 10;stroke-width: 0.938761111535495px" x1="21.52" x2="19.04" y1="65.72" y2="65.72"/>
            <line style="fill: none;stroke: #306baf;stroke-linecap: round;stroke-miterlimit: 10;stroke-width: 0.938761111535495px" x1="29.68" x2="31.49" y1="62.45" y2="60.65"/>
            <line style="fill: none;stroke: #306baf;stroke-linecap: round;stroke-miterlimit: 10;stroke-width: 0.938761111535495px" x1="27.77" x2="28.23" y1="61.44" y2="60.05"/>
            <line style="fill: none;stroke: #306baf;stroke-linecap: round;stroke-miterlimit: 10;stroke-width: 0.938761111535495px" x1="22.23" x2="21.01" y1="63.58" y2="62.85"/>
            <line style="fill: none;stroke: #306baf;stroke-linecap: round;stroke-miterlimit: 10;stroke-width: 0.938761111535495px" x1="23.85" x2="22.83" y1="61.79" y2="60.77"/>
            <line style="fill: none;stroke: #306baf;stroke-linecap: round;stroke-miterlimit: 10;stroke-width: 0.938761111535495px" x1="25.51" x2="25.51" y1="61.16" y2="59.68"/>
            <line style="fill: none;stroke: #306baf;stroke-linecap: round;stroke-miterlimit: 10;stroke-width: 0.938761111535495px" x1="27.52" x2="27.99" y1="69.87" y2="71.26"/>
            <line style="fill: none;stroke: #306baf;stroke-linecap: round;stroke-miterlimit: 10;stroke-width: 0.938761111535495px" x1="21.97" x2="20.74" y1="67.67" y2="68.4"/>
            <line style="fill: none;stroke: #306baf;stroke-linecap: round;stroke-miterlimit: 10;stroke-width: 0.938761111535495px" x1="23.58" x2="22.56" y1="69.45" y2="70.48"/>
            <line style="fill: none;stroke: #306baf;stroke-linecap: round;stroke-miterlimit: 10;stroke-width: 0.938761111535495px" x1="25.24" x2="25.24" y1="70.09" y2="71.57"/>
            <line style="fill: none;stroke: #306baf;stroke-linecap: round;stroke-miterlimit: 10;stroke-width: 0.938761111535495px" x1="29.28" x2="30.3" y1="68.86" y2="69.88"/>
          </g>
          <path d="M32.55,73.79l-.08-.17-.1-.17-.11-.16-.12-.14v-.29h2v.42H32.69a1.34,1.34,0,0,1,.1.19l.08.2Z" style="fill: #306baf"/>
          <path d="M34.27,59.09a1.33,1.33,0,0,1,0,.16c0,.06,0,.11,0,.16l0,.14,0,.1-.35-.08.07-.19a1,1,0,0,0,0-.28.45.45,0,0,0-.07-.28.26.26,0,0,0-.33-.06.25.25,0,0,0-.08.09.41.41,0,0,0,0,.13,1.1,1.1,0,0,0,0,.17v.16H33v-.19A.68.68,0,0,0,33,59a.34.34,0,0,0,0-.1.2.2,0,0,0-.07-.07.23.23,0,0,0-.12,0l-.09,0-.06.06a.22.22,0,0,0,0,.08.34.34,0,0,0,0,.09.67.67,0,0,0,0,.22,1,1,0,0,0,.09.19l-.31.15-.06-.11a.91.91,0,0,1-.06-.13,1.18,1.18,0,0,1,0-.16.84.84,0,0,1,0-.18,1,1,0,0,1,0-.3.56.56,0,0,1,.12-.21.46.46,0,0,1,.17-.12.58.58,0,0,1,.22,0,.43.43,0,0,1,.22.06.42.42,0,0,1,.16.17.49.49,0,0,1,.48-.32.67.67,0,0,1,.25,0,.5.5,0,0,1,.2.14.68.68,0,0,1,.13.24A1.2,1.2,0,0,1,34.27,59.09Z" style="fill: #306baf"/>
          <g>
            <path d="M34.15,69.34c0,.07,0,.15,0,.23s0,.16,0,.23,0,.14,0,.2l0,.14L33.63,70c0-.07,0-.16.07-.26a1.71,1.71,0,0,0,0-.4.76.76,0,0,0-.08-.4.25.25,0,0,0-.22-.13.23.23,0,0,0-.14,0,.33.33,0,0,0-.09.13.66.66,0,0,0-.05.19,1.76,1.76,0,0,0,0,.23v.23h-.38v-.26a1.06,1.06,0,0,0,0-.17.53.53,0,0,0,0-.15.27.27,0,0,0-.08-.1.22.22,0,0,0-.13,0,.17.17,0,0,0-.1,0,.25.25,0,0,0-.07.08.4.4,0,0,0,0,.12.68.68,0,0,0,0,.13,1.16,1.16,0,0,0,0,.32,1.48,1.48,0,0,0,.1.27l-.34.21L32,69.94a1.78,1.78,0,0,1-.06-.19,2.23,2.23,0,0,1,0-.22,1.55,1.55,0,0,1,0-.25,1.71,1.71,0,0,1,0-.42.88.88,0,0,1,.13-.29.52.52,0,0,1,.44-.23.41.41,0,0,1,.25.09.57.57,0,0,1,.18.25.71.71,0,0,1,.21-.33.49.49,0,0,1,.33-.12.61.61,0,0,1,.28.06.59.59,0,0,1,.22.2,1.05,1.05,0,0,1,.14.34A2,2,0,0,1,34.15,69.34Z" style="fill: #306baf"/>
            <path d="M34.15,67.07c0,.07,0,.15,0,.23s0,.16,0,.23,0,.14,0,.2l0,.14-.39-.12c0-.07,0-.16.07-.26a1.71,1.71,0,0,0,0-.4.76.76,0,0,0-.08-.4.25.25,0,0,0-.22-.13.23.23,0,0,0-.14,0,.33.33,0,0,0-.09.13.66.66,0,0,0-.05.19,1.76,1.76,0,0,0,0,.23v.23h-.38v-.26a1.06,1.06,0,0,0,0-.17.53.53,0,0,0,0-.15.27.27,0,0,0-.08-.1.22.22,0,0,0-.13,0,.17.17,0,0,0-.1,0,.25.25,0,0,0-.07.08.4.4,0,0,0,0,.12.68.68,0,0,0,0,.13,1.16,1.16,0,0,0,0,.32,1.48,1.48,0,0,0,.1.27l-.34.21L32,67.68a1.78,1.78,0,0,1-.06-.19,2.23,2.23,0,0,1,0-.22,1.55,1.55,0,0,1,0-.25,1.71,1.71,0,0,1,0-.42.88.88,0,0,1,.13-.29.52.52,0,0,1,.44-.23.41.41,0,0,1,.25.09.57.57,0,0,1,.18.25.71.71,0,0,1,.21-.33.49.49,0,0,1,.33-.12.61.61,0,0,1,.28.06.59.59,0,0,1,.22.2,1.05,1.05,0,0,1,.14.34A2,2,0,0,1,34.15,67.07Z" style="fill: #306baf"/>
            <path d="M32.71,64.55a1.55,1.55,0,0,1,.05-.44.88.88,0,0,1,.15-.3.57.57,0,0,1,.22-.17.69.69,0,0,1,.27-.05.64.64,0,0,1,.26.06.71.71,0,0,1,.24.18.92.92,0,0,1,.18.3,1.2,1.2,0,0,1,.07.43,1.05,1.05,0,0,1-.25.76.91.91,0,0,1-.69.26,1.2,1.2,0,0,1-.56-.12,1.13,1.13,0,0,1-.41-.35,1.67,1.67,0,0,1-.25-.55,2.92,2.92,0,0,1-.09-.73l.19,0,.19,0a2.87,2.87,0,0,0,0,.38,1.54,1.54,0,0,0,.08.32.91.91,0,0,0,.15.25.62.62,0,0,0,.22.17.88.88,0,0,1,0-.18A1.2,1.2,0,0,1,32.71,64.55Zm.37.08a1.43,1.43,0,0,0,0,.19.64.64,0,0,0,0,.16h.08l.21,0a.49.49,0,0,0,.18-.07.33.33,0,0,0,.12-.13.42.42,0,0,0,0-.2.4.4,0,0,0,0-.17.37.37,0,0,0-.08-.12.33.33,0,0,0-.11-.07l-.12,0a.31.31,0,0,0-.25.1A.53.53,0,0,0,33.08,64.63Z" style="fill: #306baf"/>
            <path d="M32.49,61.48a.47.47,0,0,1,.23.06,1,1,0,0,1,.21.16,2,2,0,0,1,.2.21l.18.24.1.13.11.13.11.11.08.06V61.4h.39v1.84h-.16a.61.61,0,0,1-.28-.06,1,1,0,0,1-.23-.16,1.71,1.71,0,0,1-.2-.23L33,62.55l-.14-.18-.13-.15-.12-.1a.24.24,0,0,0-.12,0,.21.21,0,0,0-.2.1.49.49,0,0,0-.06.25.7.7,0,0,0,0,.2,1.12,1.12,0,0,0,.06.17l.07.13.06.08-.33.29a1.6,1.6,0,0,1-.21-.41,1.47,1.47,0,0,1-.08-.5,1.73,1.73,0,0,1,0-.42A.85.85,0,0,1,32,61.7a.49.49,0,0,1,.2-.17A.6.6,0,0,1,32.49,61.48Z" style="fill: #306baf"/>
          </g>
        </g>
        <path d="M34.2,57.51" style="fill: #306baf;stroke: #306baf;stroke-linecap: round;stroke-miterlimit: 10;stroke-width: 0.469380555767747px"/>
        <path d="M34.2,74.2" style="fill: #306baf;stroke: #306baf;stroke-linecap: round;stroke-miterlimit: 10;stroke-width: 0.469380555767747px"/>
      </g>
      <rect height="2.15" style="fill: #645d63" width="1.35" x="23.07" y="64.5"/>
      <circle cx="30.43" cy="72.65" r="0.82" style="fill: #306baf"/>
      <circle cx="30.43" cy="72.65" r="0.58" style="fill: #9a9db2"/>
      <line style="fill: none;stroke: #6d6164;stroke-miterlimit: 10;stroke-width: 0.253411443529119px" x1="30.43" x2="30.43" y1="72.07" y2="72.65"/>
    </g>
    <circle cx="2.08" cy="74.96" r="0.85" style="fill: #deddf1"/>
    <rect height="3.12" style="fill: #deddf1" width="1.04" x="1.58" y="71.84"/>
    <rect height="3.12" style="fill: #deddf1" width="1.04" x="1.58" y="58.34"/>
    <circle cx="5.54" cy="74.96" r="0.85" style="fill: #deddf1"/>
    <rect height="3.12" style="fill: #deddf1" width="1.04" x="5.04" y="71.84"/>
    <circle cx="8.9" cy="74.96" r="0.85" style="fill: #deddf1"/>
    <rect height="3.12" style="fill: #deddf1" width="1.04" x="8.4" y="71.84"/>
    <circle cx="12.35" cy="74.96" r="0.85" style="fill: #deddf1"/>
    <rect height="3.12" style="fill: #deddf1" width="1.04" x="11.85" y="71.84"/>
    <rect height="3.04" style="fill: #d6d6d8" width="1.71" x="1.23" y="55.29"/>
    <rect height="3.12" style="fill: #deddf1" width="1.04" x="5.02" y="58.34"/>
    <rect height="3.04" style="fill: #d6d6d8" width="1.71" x="4.67" y="55.29"/>
    <rect height="3.12" style="fill: #deddf1" width="1.04" x="11.69" y="58.34"/>
    <rect height="3.04" style="fill: #d6d6d8" width="1.71" x="11.33" y="55.29"/>
    <rect height="3.12" style="fill: #deddf1" width="1.04" x="8.31" y="58.34"/>
    <rect height="2.71" style="fill: #d6d6d8" width="1.71" x="7.96" y="55.63"/>
    <g style="opacity: 0.13">
      <path d="M5.89,69.48V63.85h.89v.8a2.13,2.13,0,0,1,1.87-.93,2.53,2.53,0,0,1,1,.18,1.53,1.53,0,0,1,.67.48,1.81,1.81,0,0,1,.31.71,5.27,5.27,0,0,1,.06.93v3.46h-1V66.05a2.47,2.47,0,0,0-.12-.87.93.93,0,0,0-.41-.46,1.35,1.35,0,0,0-.69-.17,1.65,1.65,0,0,0-1.1.39,1.86,1.86,0,0,0-.46,1.47v3.07Z" style="fill: #fff"/>
    </g>
    <rect height="10.61" style="fill: #ffc280;opacity: 0.17" width="1.5" x="2.94" y="61.56"/>
    <g>
      <rect height="2.64" rx="0.44" ry="0.44" style="fill: #e7e6e8" transform="translate(10.77 82.75) rotate(180)" width="4.02" x="3.37" y="40.06"/>
      <rect height="3.22" rx="0.77" ry="0.77" style="fill: #e7e6e8" transform="translate(10.77 97.53) rotate(180)" width="3.96" x="3.41" y="47.16"/>
      <rect height="5.38" rx="0.96" ry="0.96" style="fill: #e7e6e8" transform="translate(10.39 89.9) rotate(180)" width="3.29" x="3.55" y="42.26"/>
    </g>
    <rect height="2.81" style="fill: #2a292d" transform="translate(-39.75 50.15) rotate(-90)" width="4.1" x="3.14" y="43.54"/>
    <g>
      <path d="M5.38,43.84h.18l.21.23v.14h-1v-.13H5.6Z" style="fill: #fbfcfe"/>
      <path d="M5.63,45.29a1.27,1.27,0,0,1-.36,0,.9.9,0,0,1-.48-.09A.32.32,0,0,1,4.72,45a.32.32,0,0,1,.06-.22.92.92,0,0,1,.48-.09,1.27,1.27,0,0,1,.36,0c.14,0,.16.15.16.27S5.77,45.25,5.63,45.29Zm-.09-.44H5.25a1.11,1.11,0,0,0-.36,0s0,.1,0,.14,0,.12,0,.14a1.14,1.14,0,0,0,.36,0h.29c.11,0,.11-.06.11-.17S5.65,44.87,5.54,44.85Z" style="fill: #fbfcfe"/>
      <path d="M5.62,46.21,5.36,46a.28.28,0,0,1-.31.27.33.33,0,0,1-.33-.36.55.55,0,0,1,.06-.24h.15a.4.4,0,0,0-.07.24.2.2,0,0,0,.21.23c.14,0,.19-.1.19-.21v-.1h.11l.27.24v-.4h.13v.56Z" style="fill: #fbfcfe"/>
    </g>
    <g>
      <rect height="2.64" rx="0.44" ry="0.44" style="fill: #e7e6e8" transform="translate(26.84 82.75) rotate(180)" width="4.02" x="11.41" y="40.06"/>
      <rect height="3.22" rx="0.77" ry="0.77" style="fill: #e7e6e8" transform="translate(26.84 97.53) rotate(180)" width="3.96" x="11.44" y="47.16"/>
      <rect height="5.38" rx="0.96" ry="0.96" style="fill: #e7e6e8" transform="translate(26.46 89.9) rotate(180)" width="3.29" x="11.59" y="42.26"/>
    </g>
    <rect height="2.81" style="fill: #2a292d" transform="translate(-31.72 58.18) rotate(-90)" width="4.1" x="11.18" y="43.54"/>
    <g>
      <path d="M13.41,43.84h.18l.21.23v.14h-1v-.13h.87Z" style="fill: #fbfcfe"/>
      <path d="M13.66,45.29a1.27,1.27,0,0,1-.36,0,.9.9,0,0,1-.48-.09.32.32,0,0,1-.06-.22.32.32,0,0,1,.06-.22.92.92,0,0,1,.48-.09,1.27,1.27,0,0,1,.36,0c.14,0,.16.15.16.27S13.8,45.25,13.66,45.29Zm-.09-.44h-.29a1.11,1.11,0,0,0-.36,0s0,.1,0,.14,0,.12,0,.14a1.14,1.14,0,0,0,.36,0h.29c.11,0,.11-.06.11-.17S13.68,44.87,13.57,44.85Z" style="fill: #fbfcfe"/>
      <path d="M13.66,46.21,13.4,46a.28.28,0,0,1-.31.27.33.33,0,0,1-.33-.36.55.55,0,0,1,.06-.24H13a.4.4,0,0,0-.07.24.2.2,0,0,0,.21.23c.14,0,.19-.1.19-.21v-.1h.11l.27.24v-.4h.13v.56Z" style="fill: #fbfcfe"/>
    </g>
    <g>
      <g>
        <rect height="2.64" rx="0.44" ry="0.44" style="fill: #e7e6e8" transform="translate(86.02 77.8) rotate(90)" width="4.02" x="2.1" y="80.59"/>
        <rect height="3.22" rx="0.77" ry="0.77" style="fill: #e7e6e8" transform="translate(93.41 70.41) rotate(90)" width="3.96" x="9.52" y="80.3"/>
        <rect height="5.38" rx="0.96" ry="0.96" style="fill: #e7e6e8" transform="translate(89.78 74.41) rotate(90)" width="3.29" x="6.04" y="79.41"/>
      </g>
      <rect height="2.81" style="fill: #2a292d" transform="translate(15.37 164.19) rotate(180)" width="4.1" x="5.63" y="80.69"/>
      <g>
        <path d="M6.57,81.92v-.18l.23-.21h.14v1H6.81v-.87Z" style="fill: #fbfcfe"/>
        <path d="M8,81.66a1.27,1.27,0,0,1,0,.36.9.9,0,0,1-.09.48.32.32,0,0,1-.22.06.32.32,0,0,1-.22-.06A.92.92,0,0,1,7.44,82a1.27,1.27,0,0,1,0-.36c0-.14.15-.16.27-.16S8,81.52,8,81.66Zm-.44.09a2.15,2.15,0,0,0,0,.29,1.11,1.11,0,0,0,0,.36s.1,0,.14,0,.12,0,.14,0a1.14,1.14,0,0,0,0-.36,2.42,2.42,0,0,0,0-.29c0-.11-.06-.11-.17-.11S7.6,81.64,7.59,81.75Z" style="fill: #fbfcfe"/>
        <path d="M8.94,82.42v.13H8.39v-.08A.49.49,0,0,1,8.65,82c.07,0,.17-.11.17-.22a.16.16,0,0,0-.14-.16.48.48,0,0,0-.27.11v-.16a.41.41,0,0,1,.25-.09.27.27,0,0,1,.3.28c0,.19-.12.26-.25.35a.36.36,0,0,0-.18.26v0Z" style="fill: #fbfcfe"/>
      </g>
    </g>
    <g>
      <rect height="2.64" rx="0.44" ry="0.44" style="fill: #e7e6e8" transform="translate(-49.57 113.58) rotate(-90)" width="4.02" x="29.99" y="80.25"/>
      <rect height="3.22" rx="0.77" ry="0.77" style="fill: #e7e6e8" transform="translate(-56.96 106.19) rotate(-90)" width="3.96" x="22.64" y="79.97"/>
      <rect height="5.38" rx="0.96" ry="0.96" style="fill: #e7e6e8" transform="translate(-52.95 109.82) rotate(-90)" width="3.29" x="26.79" y="78.7"/>
    </g>
    <rect height="2.81" style="fill: #2a292d" width="4.1" x="26.38" y="79.98"/>
    <g>
      <path d="M29.54,81.56v.18l-.23.21h-.14v-1h.13v.87Z" style="fill: #fbfcfe"/>
      <path d="M28.09,81.82a1.25,1.25,0,0,1,0-.36.9.9,0,0,1,.09-.48.42.42,0,0,1,.44,0,.91.91,0,0,1,.09.48,1.25,1.25,0,0,1,0,.36c0,.14-.14.16-.27.16S28.14,82,28.09,81.82Zm.44-.09a2,2,0,0,0,0-.29,1.11,1.11,0,0,0,0-.36s-.1,0-.14,0-.12,0-.14,0a1.14,1.14,0,0,0,0,.36,2.32,2.32,0,0,0,0,.29c0,.11.06.11.17.11S28.51,81.84,28.53,81.73Z" style="fill: #fbfcfe"/>
      <path d="M27.17,81.06v-.13h.55V81a.49.49,0,0,1-.26.47c-.07,0-.17.11-.17.22a.16.16,0,0,0,.14.16.48.48,0,0,0,.27-.11v.16a.41.41,0,0,1-.25.09.27.27,0,0,1-.29-.28c0-.19.12-.26.25-.35a.36.36,0,0,0,.18-.26v0Z" style="fill: #fbfcfe"/>
    </g>
    <g>
      <rect height="4.22" rx="0.55" ry="0.55" style="fill: #e7e6e8" transform="translate(59.92 84.02) rotate(180)" width="4.02" x="27.95" y="39.9"/>
      <rect height="3.61" rx="0.81" ry="0.81" style="fill: #fffdf3" transform="translate(59.92 97.94) rotate(180)" width="3.96" x="27.98" y="47.16"/>
      <rect height="4.88" rx="0.92" ry="0.92" style="fill: #cea468" transform="translate(60.05 91.7) rotate(180)" width="3.17" x="28.44" y="43.41"/>
      <rect height="1.21" rx="0.6" ry="0.6" style="fill: #757376" transform="translate(60.05 87.32) rotate(180)" width="3.17" x="28.44" y="43.06"/>
      <rect height="1.21" rx="0.6" ry="0.6" style="fill: #757376" transform="translate(60.05 95.32) rotate(180)" width="3.17" x="28.44" y="47.06"/>
    </g>
    <g>
      <rect height="4.22" rx="0.55" ry="0.55" style="fill: #e7e6e8" transform="translate(43.11 84.02) rotate(180)" width="4.02" x="19.54" y="39.9"/>
      <rect height="3.61" rx="0.81" ry="0.81" style="fill: #fffdf3" transform="translate(43.11 97.94) rotate(180)" width="3.96" x="19.58" y="47.16"/>
      <rect height="4.88" rx="0.92" ry="0.92" style="fill: #cea468" transform="translate(43.24 91.7) rotate(180)" width="3.17" x="20.04" y="43.41"/>
      <rect height="1.21" rx="0.6" ry="0.6" style="fill: #757376" transform="translate(43.24 87.32) rotate(180)" width="3.17" x="20.04" y="43.06"/>
      <rect height="1.21" rx="0.6" ry="0.6" style="fill: #757376" transform="translate(43.24 95.32) rotate(180)" width="3.17" x="20.04" y="47.06"/>
    </g>
  </g>
  <g id="led">
    <g>
      <circle cx="13.87" cy="32.19" r="2.19" style="fill: #b5afba"/>
      <line style="fill: #0e2e4b;stroke: #9a9396;stroke-miterlimit: 10;stroke-width: 0.75px" x1="13.88" x2="13.88" y1="32.19" y2="23.06"/>
    </g>
    <g>
      <circle cx="20.94" cy="32.19" r="2.19" style="fill: #b5afba"/>
      <line style="fill: #0e2e4b;stroke: #9a9396;stroke-miterlimit: 10;stroke-width: 0.75px" x1="20.94" x2="20.94" y1="32.19" y2="23.06"/>
    </g>
    <rect height="3.27" style="fill: #171312" width="14.54" x="10.13" y="19.79"/>
    <path d="M16.5,0h1.67a5.5,5.5,0,0,1,5.5,5.5V19.79a0,0,0,0,1,0,0H11a0,0,0,0,1,0,0V5.5A5.5,5.5,0,0,1,16.5,0Z" style="fill: #171312"/>
    <rect height="0.96" style="fill: #494949" width="14.54" x="10.13" y="19.79"/>
    <path d="M17.33.42a5.55,5.55,0,0,0-4.25,1.46A6,6,0,0,0,11.42,6V19.33S12.08,6.67,13.88,4A10.44,10.44,0,0,1,17.33.42Z" style="fill: #494949"/>
  </g>
  <g data-name="Layer 10" id="Layer_10">
    <polygon points="16.57 103.69 18 105.22 18 109.46 16.57 110.89 12.34 110.89 10.8 109.46 10.8 105.22 12.34 103.69 16.57 103.69" style="fill: #323232"/>
    <polygon points="15.65 126.93 15.65 126.93 14.52 125.79 13.39 126.93 13.39 126.93 15.65 126.93" style="fill: #e9e9ea"/>
    <polygon points="15.65 124.67 15.65 124.67 14.51 125.8 13.38 124.67 13.38 124.67 15.65 124.67" style="fill: #b0acb0"/>
    <polygon points="13.38 126.93 13.38 126.93 14.52 125.8 13.39 124.67 13.38 124.67 13.38 126.93" style="fill: #d3d1d3"/>
    <polygon points="15.65 126.93 15.65 126.93 14.51 125.79 15.64 124.66 15.65 124.66 15.65 126.93" style="fill: #989498"/>
    <rect height="17.37" style="fill: #b0acb0" width="2.27" x="13.38" y="107.29"/>
    <polygon points="23.77 103.69 25.2 105.22 25.2 109.46 23.77 110.89 19.54 110.89 18 109.46 18 105.22 19.54 103.69 23.77 103.69" style="fill: #323232"/>
    <polygon points="22.85 126.93 22.85 126.93 21.72 125.79 20.59 126.93 20.59 126.93 22.85 126.93" style="fill: #e9e9ea"/>
    <polygon points="22.85 124.67 22.85 124.67 21.71 125.8 20.58 124.67 20.58 124.67 22.85 124.67" style="fill: #b0acb0"/>
    <polygon points="20.58 126.93 20.58 126.93 21.72 125.8 20.59 124.67 20.58 124.67 20.58 126.93" style="fill: #d3d1d3"/>
    <polygon points="22.85 126.93 22.85 126.93 21.71 125.79 22.84 124.66 22.85 124.66 22.85 126.93" style="fill: #989498"/>
    <rect height="17.37" style="fill: #b0acb0" width="2.27" x="20.58" y="107.29"/>
    <polygon points="30.97 103.69 32.4 105.22 32.4 109.46 30.97 110.89 26.74 110.89 25.2 109.46 25.2 105.22 26.74 103.69 30.97 103.69" style="fill: #323232"/>
    <polygon points="30.05 126.93 30.05 126.93 28.92 125.79 27.79 126.93 27.79 126.93 30.05 126.93" style="fill: #e9e9ea"/>
    <polygon points="30.05 124.67 30.05 124.67 28.91 125.8 27.78 124.67 27.78 124.67 30.05 124.67" style="fill: #b0acb0"/>
    <polygon points="27.78 126.93 27.78 126.93 28.92 125.8 27.79 124.67 27.78 124.67 27.78 126.93" style="fill: #d3d1d3"/>
    <polygon points="30.05 126.93 30.05 126.93 28.91 125.79 30.04 124.66 30.05 124.66 30.05 126.93" style="fill: #989498"/>
    <rect height="17.37" style="fill: #b0acb0" width="2.27" x="27.78" y="107.29"/>
    <polygon points="9.37 103.69 10.8 105.22 10.8 109.46 9.37 110.89 5.14 110.89 3.6 109.46 3.6 105.22 5.14 103.69 9.37 103.69" style="fill: #323232"/>
    <polygon points="8.45 126.93 8.45 126.92 7.32 125.79 6.19 126.92 6.19 126.93 8.45 126.93" style="fill: #e9e9ea"/>
    <polygon points="8.45 124.66 8.45 124.66 7.31 125.8 6.18 124.67 6.18 124.66 8.45 124.66" style="fill: #b0acb0"/>
    <polygon points="6.18 126.93 6.18 126.93 7.32 125.79 6.19 124.66 6.18 124.66 6.18 126.93" style="fill: #d3d1d3"/>
    <polygon points="8.45 126.92 8.45 126.92 7.31 125.79 8.44 124.66 8.45 124.66 8.45 126.92" style="fill: #989498"/>
    <rect height="17.37" style="fill: #b0acb0" width="2.27" x="6.18" y="107.29"/>
  </g>
  <g id="Connectors">
    <rect data-cir-type="male" height="1.13" id="circuitoCon_DOUT" style="fill: #c0bec2" width="1.13" x="13.95" y="125.22"/>
    <rect data-cir-type="male" height="1.13" id="circuitoCon_GND" style="fill: #c0bec2" width="1.13" x="21.15" y="125.22"/>
    <rect data-cir-type="male" height="1.13" id="circuitoCon_5V" style="fill: #c0bec2" width="1.13" x="28.35" y="125.22"/>
    <rect data-cir-type="male" height="1.13" id="circuitoCon_AOUT" style="fill: #c0bec2" width="1.13" x="6.75" y="125.22"/>
  </g>
</svg>