<?xml version="1.0" ?><svg height="35.2mm" viewBox="0 0 284.13 99.78" width="100.23mm" xmlns="http://www.w3.org/2000/svg" xmlns:xlink="http://www.w3.org/1999/xlink">
  <defs>
    <linearGradient gradientUnits="userSpaceOnUse" id="linear-gradient" x1="142.23" x2="206.7" y1="106.51" y2="-5.16">
      <stop offset="0" stop-color="#1a1a1a"/>
      <stop offset="1"/>
    </linearGradient>
  </defs>
  <title>Serial Enabled 16x2 LCD</title>
  <g id="BACKGROUND">
    <path d="M0,.29V99.78H284.13V.29Zm84.46,4.4c2.7,0,2.7,4.19,0,4.19S81.76,4.69,84.46,4.69ZM78,4.36c2.7,0,2.7,4.19,0,4.19S75.26,4.36,78,4.36Zm-7.17,0c2.7,0,2.7,4.19,0,4.19S68.09,4.36,70.79,4.36Zm-6.67-.17c2.7,0,2.7,4.19,0,4.19S61.43,4.19,64.13,4.19Zm-7.33.33c2.7,0,2.7,4.19,0,4.19S54.09,4.53,56.79,4.53Zm-6.67,0c2.7,0,2.7,4.19,0,4.19S47.43,4.53,50.13,4.53Zm-7-.17c2.7,0,2.7,4.19,0,4.19S40.43,4.36,43.13,4.36ZM44.3,29.87A.27.27,0,1,1,44,29.6.27.27,0,0,1,44.3,29.87ZM36.46,4.69c2.7,0,2.7,4.19,0,4.19S33.76,4.69,36.46,4.69Zm1.41,43.47a.27.27,0,1,1-.27.27A.27.27,0,0,1,37.86,48.16ZM37.41,34.5a.27.27,0,1,1,.27.27A.27.27,0,0,1,37.41,34.5Zm.72,21.11a.27.27,0,1,1-.27.27A.27.27,0,0,1,38.13,55.61ZM35.59,37.87a.27.27,0,1,1-.27-.27A.27.27,0,0,1,35.59,37.87Zm-7-33c2.7,0,2.7,4.19,0,4.19S25.93,4.86,28.63,4.86ZM21.29,94.22c-2.7,0-2.7-4.19,0-4.19S24,94.22,21.29,94.22Zm7,0c-2.7,0-2.7-4.19,0-4.19S31,94.22,28.29,94.22Zm14.17.17c-2.7,0-2.7-4.19,0-4.19S45.16,94.39,42.46,94.39Zm7-.5c-2.7,0-2.7-4.19,0-4.19S52.16,93.89,49.46,93.89Zm6.83.17c-2.7,0-2.7-4.19,0-4.19S59,94.06,56.29,94.06Zm227.37,4.22H60.13c.14-3.42.34-7-.54-8.29-2.09-2.18-4.22-2.1-6.4,0-.23.51-.46.77-.71,0-2.47-2.53-4.54-2.1-6.37.06-.15.35-.3.78-.46,0-3.07-2.84-5.48-2.46-7.21,1.21v6.88h-6V91.54c-2-3.79-4.39-4.25-7.26-1.6-.28.55-.48.57-.59,0a2.55,2.55,0,0,0-1.44-1.37V84.25L38.75,68.69H50.41l4.94-5.41V49.06l-3.94-4.19c-1.78-4.34-7.31-.81-2.84,2.31l3.13,3.13v1.52l.66.66v7.58l-.83.83v1.41l-2.84,2.84H37.41L19.72,82.84V88.5a4.73,4.73,0,0,0-2.24,3.91v5.47H.63q0-30.19,0-60.37l3.59,2.74c-.2-.23-.45-.52-.75-.9L.66,37.5,1.19.5H25.25l.06,6.69c.79,2.69,4.31,4.47,6.94,1.5.52-.69.82-.53,1,.22A1.5,1.5,0,0,0,34.47,10l-.22,16.91L29.06,32l-.34,14.91L10,27.66c.72-7.19-10.5-3.78-5.09,2.28-2.05,1.62-2,3.44.06,5.47A3.33,3.33,0,0,0,3.72,37a3.68,3.68,0,0,0,.57,3.25l0,0,.07.08a4.39,4.39,0,0,0,.31.33,3.16,3.16,0,0,0,1.06.63,4.13,4.13,0,0,0,1.4.27,3.53,3.53,0,0,0,3.07-2.21A3.65,3.65,0,0,0,8,34.92c1.62-1.07,1.86-2.24.77-3.5L38,60.5l8.9.06c2.63,1.75,5.17-1.29,3.17-3.35,1-1.5.95-2.7.13-3.65.89-.48.84-1,.48-1.56l-1.9-2.12a.86.86,0,0,0-1.19.06l-7.87.17.71-2,5.25-5.48.13-6.79a4.91,4.91,0,0,0-.19-2.67l.4-1-.08-.83.5-.71c.42-1.06,0-2.06-.92-3L62.9,10.29a3.41,3.41,0,0,0,4.35-1.6c.53-.53.86-.74.6,0a3.47,3.47,0,0,0,1.34,1.48v6.26L53.13,32.48H49.9l-.31-.57H48L46.6,33.31v2c.4.38.44.67,0,.85v3.17a2.53,2.53,0,0,0,3.44.17,3.06,3.06,0,0,0,3.13-.31l7.6-7.6c.6-.65.65-.23.65.29,2,2.29,4.83.85,4.15-1.87-.3-.62-.41-1.11,0-1.28L83.88,10.41a4,4,0,0,0,5.38-3.16V.88L277,1.8l.51,0a5.67,5.67,0,0,1,.58,0l5.42,0V27.42c-5.58-2.08-8.06,3.09-4.46,6.5l0,4.33-1,.92L277.1,62.9l1.48,1.48v4.42c-3.71,4.33.38,8.75,5.08,6.38ZM49.1,44.8a.27.27,0,1,1-.27-.27A.27.27,0,0,1,49.1,44.8Zm-.34,14.09a.27.27,0,1,1-.27-.27A.27.27,0,0,1,48.76,58.89Zm-.19-7a.27.27,0,1,1,.27.27A.27.27,0,0,1,48.57,51.92Zm-.29,3.78a.27.27,0,1,1,.27-.27A.27.27,0,0,1,48.28,55.7ZM63.85,30.82a.27.27,0,1,1-.27-.27A.27.27,0,0,1,63.85,30.82ZM48.54,34.76a.27.27,0,1,1,.27-.27A.27.27,0,0,1,48.54,34.76Zm.06,3.11a.27.27,0,1,1-.27-.27A.27.27,0,0,1,48.6,37.87Z" style="fill: #8a231e"/>
    <path d="M8.25,30.88l.55.55A5.57,5.57,0,0,0,8.25,30.88Z" style="fill: #cf2f27"/>
    <path d="M278.58,68.79V64.38L277.1,62.9,278,39.17l1-.92,0-4.33c-3.61-3.41-1.12-8.58,4.46-6.5V1.83l-5.42,0c5.66.59,5.45,9.67-.58,9.67S271.22,2.31,277,1.8L89.25.88V7.25a4,4,0,0,1-5.37,3.16L65.54,28.74c-.38.17-.28.66,0,1.28.69,2.73-2.12,4.17-4.15,1.88,0-.52,0-.95-.65-.29l-7.6,7.6a3.06,3.06,0,0,1-3.12.31,2.53,2.53,0,0,1-3.44-.17V36.19c.44-.18.4-.48,0-.85v-2L48,31.91h1.57l.31.57h3.23L69.2,16.41V10.15a3.47,3.47,0,0,1-1.34-1.48c.26-.72-.07-.51-.6,0a3.41,3.41,0,0,1-4.35,1.6L45.5,27.67c.88,1,1.34,2,.92,3l-.5.71.08.83-.4,1a4.91,4.91,0,0,1,.19,2.67l-.12,6.79-5.25,5.48-.71,2,7.88-.17a.86.86,0,0,1,1.19-.06L50.67,52c.36.55.41,1.08-.48,1.56.82.95.83,2.15-.12,3.65,2,2.06-.54,5.1-3.17,3.35L38,60.5,8.8,31.42c1.09,1.26.84,2.42-.77,3.5a3.65,3.65,0,0,1,2.13,4.42,3.53,3.53,0,0,1-3.07,2.21,4.13,4.13,0,0,1-1.4-.27,3.16,3.16,0,0,1-1.06-.62,4.39,4.39,0,0,1-.31-.33l-.07-.08L.66,37.5q0,30.19,0,60.38H17.48V92.41a4.73,4.73,0,0,1,2.24-3.91V82.84L37.41,65.16H48.69l2.84-2.84V60.91l.83-.83V52.5l-.66-.66V50.31l-3.13-3.13c-4.47-3.12,1.06-6.65,2.84-2.31l3.94,4.19V63.28l-4.94,5.41H38.75L23.19,84.25v4.31a2.55,2.55,0,0,1,1.44,1.38c.11.57.32.55.59,0,2.87-2.65,5.3-2.19,7.26,1.6v6.58h6V91.25c1.73-3.67,4.14-4,7.21-1.21.16.78.31.35.46,0,1.84-2.16,3.91-2.59,6.38-.06.25.77.48.51.71,0,2.17-2.1,4.31-2.18,6.4,0,.88,1.32.68,4.88.54,8.29H283.67V75.17C279,77.54,274.88,73.13,278.58,68.79ZM6.46,68.93a1.89,1.89,0,0,1,0-3.78A1.89,1.89,0,0,1,6.46,68.93ZM6.21,75.6a1.89,1.89,0,0,1,0-3.78A1.89,1.89,0,0,1,6.21,75.6ZM6.13,58.07a1.89,1.89,0,0,1,0,3.78A1.89,1.89,0,0,1,6.13,58.07Zm.67,38.4c-6.25,0-6.24-9.7,0-9.7S13,96.47,6.79,96.47Zm28.67-2.25c-2.7,0-2.7-4.19,0-4.19S38.16,94.22,35.46,94.22ZM279.34,81.29a.27.27,0,1,1-.27.27A.27.27,0,0,1,279.34,81.29Zm-3.72-61.47a.27.27,0,1,1-.27.27A.27.27,0,0,1,275.63,19.82ZM92.55,3.92a.27.27,0,1,1,.27-.27A.27.27,0,0,1,92.55,3.92Zm16.69,6a.27.27,0,1,1,.27-.27A.27.27,0,0,1,109.23,9.95Zm.27-6.77a.27.27,0,1,1,.27-.27A.27.27,0,0,1,109.5,3.18Zm2.59,8.3a.27.27,0,1,1,.27-.27A.27.27,0,0,1,112.09,11.48Zm10.19-.27a.27.27,0,1,1,.27-.27A.27.27,0,0,1,122.28,11.22Zm7.05-7.47a.83.83,0,1,1,.83-.83A.83.83,0,0,1,129.33,3.75Zm5.16,85a.27.27,0,1,1,.27-.27A.27.27,0,0,1,134.49,88.72Zm12.82-77.24a.27.27,0,1,1,.27-.27A.27.27,0,0,1,147.31,11.48Zm5.56-8a.27.27,0,1,1,.27-.27A.27.27,0,0,1,152.88,3.45Zm24.7,0a.27.27,0,1,1,.27-.27A.27.27,0,0,1,177.58,3.45Zm15.8,8a.27.27,0,1,1,.27-.27A.27.27,0,0,1,193.38,11.48Zm9.44-8a.27.27,0,1,1,.27-.27A.27.27,0,0,1,202.81,3.45Zm7.56,8.3a.27.27,0,1,1,.27-.27A.27.27,0,0,1,210.38,11.75ZM214,89.25a.27.27,0,1,1,.27-.27A.27.27,0,0,1,214,89.25ZM225.73,12a.27.27,0,1,1,.27-.27A.27.27,0,0,1,225.73,12Zm1.89-8.57a.27.27,0,1,1,.27-.27A.27.27,0,0,1,227.63,3.45Zm27.5.27a.27.27,0,1,1,.27-.27A.27.27,0,0,1,255.13,3.71Zm22,93.09c-6.25,0-6.24-9.7,0-9.7S283.36,96.81,277.13,96.81Z" style="fill: #cf2f27"/>
    <path d="M33.22,8.91c-.15-.75-.45-.91-1-.22-2.62,3-6.14,1.19-6.94-1.5L25.25.5H1.19l-.53,37L3.5,39.34c.3.38.55.67.75.9l.19.22-.17-.22A3.8,3.8,0,0,1,3.72,37,3.36,3.36,0,0,1,5,35.41c-2.11-2-2.12-3.85-.06-5.47-5.41-6.06,5.81-9.47,5.09-2.28L28.72,46.91,29.06,32l5.19-5.12L34.47,10A1.5,1.5,0,0,1,33.22,8.91ZM6.79,11.81c-6.25,0-6.24-9.7,0-9.7S13,11.81,6.79,11.81ZM22,8.35c-2.7,0-2.7-4.19,0-4.19S24.7,8.35,22,8.35Z" style="fill: #cf2f27"/>
    <rect height="4.34" style="fill: #cf2f27" width="2.8" x="0.67" y="36.42"/>
    <path d="M2.81,38.72s-.06,1.47-.06,1.47l1.5.47-.92-1.94" style="fill: #cf2f27"/>
    <path d="M3.62,39l.91,1.75" style="fill: #cf2f27"/>
    <rect height="0.61" style="fill: #cf2f27" transform="translate(-24.47 11.55) rotate(-39.35)" width="0.2" x="3.82" y="39.68"/>
  </g>
  <g data-name="lines around" id="lines_around">
    <line style="fill: none;stroke: #cf2f27;stroke-miterlimit: 10;stroke-width: 0.75px" x1="281.33" x2="281.33" y1="33" y2="39.69"/>
    <line style="fill: none;stroke: #cf2f27;stroke-miterlimit: 10" x1="281.21" x2="281.21" y1="63.42" y2="70.13"/>
    <polyline points="8.19 28.47 37.59 58.75 47.38 58.75" style="fill: none;stroke: #cf2f27;stroke-miterlimit: 10"/>
    <polyline points="36.04 8.79 36.04 27.42 30.65 32.81 30.65 48.25 37.68 55.28" style="fill: none;stroke: #cf2f27;stroke-miterlimit: 10"/>
    <circle cx="38.08" cy="55.88" r="0.96" style="fill: none;stroke: #cf2f27;stroke-miterlimit: 10"/>
    <circle cx="48.33" cy="55.43" r="0.96" style="fill: none;stroke: #cf2f27;stroke-miterlimit: 10"/>
    <circle cx="48.83" cy="51.92" r="0.96" style="fill: none;stroke: #cf2f27;stroke-miterlimit: 10"/>
    <circle cx="48.83" cy="44.8" r="0.96" style="fill: none;stroke: #cf2f27;stroke-miterlimit: 10"/>
    <circle cx="44.03" cy="29.87" r="0.96" style="fill: none;stroke: #cf2f27;stroke-miterlimit: 10"/>
    <circle cx="48.54" cy="34.5" r="0.96" style="fill: none;stroke: #cf2f27;stroke-miterlimit: 10"/>
    <circle cx="48.33" cy="37.87" r="0.96" style="fill: none;stroke: #cf2f27;stroke-miterlimit: 10"/>
    <circle cx="63.59" cy="30.82" r="0.96" style="fill: none;stroke: #cf2f27;stroke-miterlimit: 10"/>
    <circle cx="37.68" cy="34.5" r="0.96" style="fill: none;stroke: #cf2f27;stroke-miterlimit: 10"/>
    <circle cx="35.33" cy="37.87" r="0.96" style="fill: none;stroke: #cf2f27;stroke-miterlimit: 10"/>
    <circle cx="37.86" cy="48.43" r="0.96" style="fill: none;stroke: #cf2f27;stroke-miterlimit: 10"/>
    <circle cx="48.49" cy="58.89" r="0.96" style="fill: none;stroke: #cf2f27;stroke-miterlimit: 10"/>
    <polyline points="43.13 8.79 43.13 22.19 32.06 33.25 32.06 47.63 37.31 52.88 46.38 52.88 47.88 54.92" style="fill: none;stroke: #cf2f27;stroke-miterlimit: 10"/>
    <polyline points="49.45 45.53 53.56 49.64 53.56 63.31 49.91 66.97 38.08 66.97 21.55 83.49 21.55 89.56" style="fill: none;stroke: #cf2f27;stroke-miterlimit: 10"/>
    <polyline points="44.03 30.82 44.03 42.09 38.46 47.67" style="fill: none;stroke: #cf2f27;stroke-miterlimit: 10"/>
    <polyline points="47.71 51.92 37.86 51.92 33.21 47.08 33.21 33.79 49.96 17.21 49.96 8.79" style="fill: none;stroke: #cf2f27;stroke-miterlimit: 10"/>
    <path d="M57.08,8.79v2.88L35.33,33.33v3.58" style="fill: none;stroke: #cf2f27;stroke-miterlimit: 10"/>
    <polyline points="62.38 8.33 37.68 32.75 37.68 33.54" style="fill: none;stroke: #cf2f27;stroke-miterlimit: 10"/>
    <polyline points="70.96 8.79 70.96 17.08 53.77 34.27 49.29 34.27" style="fill: none;stroke: #cf2f27;stroke-miterlimit: 10"/>
    <polyline points="78.13 8.79 78.13 12.08 51.79 37.87 49.04 37.87" style="fill: none;stroke: #cf2f27;stroke-miterlimit: 10"/>
    <polyline points="83.58 8.33 63.58 27.96 63.59 29.87" style="fill: none;stroke: #cf2f27;stroke-miterlimit: 10"/>
  </g>
  <g data-name="Layer 6" id="Layer_6">
    <polyline points="73.62 30.25 69.39 33.29 69.39 87.46 77.81 95.63 263.13 96.68 273.46 87.46" style="fill: none;stroke: #8a231e;stroke-linecap: round;stroke-linejoin: round"/>
    <polyline points="80.46 93.13 262.63 94.38 270.13 86.53" style="fill: none;stroke: #8a231e;stroke-linecap: round;stroke-linejoin: round"/>
    <polyline points="76.38 84.63 81.46 91.04 261.21 91.61 267.29 86.38" style="fill: none;stroke: #8a231e;stroke-linecap: round;stroke-linejoin: round"/>
    <path d="M256,86.54" style="fill: none;stroke: #8a231e;stroke-linecap: round;stroke-linejoin: round"/>
    <rect height="3.33" rx="1.67" ry="1.67" style="fill: none;stroke: #8a231e;stroke-linecap: round;stroke-linejoin: round" width="15.75" x="240.21" y="86.38"/>
    <rect height="3.33" rx="1.67" ry="1.67" style="fill: none;stroke: #8a231e;stroke-linecap: round;stroke-linejoin: round" width="15.75" x="165.5" y="86.38"/>
    <rect height="3.33" rx="1.67" ry="1.67" style="fill: none;stroke: #8a231e;stroke-linecap: round;stroke-linejoin: round" width="15.75" x="165.5" y="12.46"/>
    <rect height="3.33" rx="1.67" ry="1.67" style="fill: none;stroke: #8a231e;stroke-linecap: round;stroke-linejoin: round" width="15.75" x="240.21" y="12.46"/>
    <rect height="3.33" rx="1.67" ry="1.67" style="fill: none;stroke: #8a231e;stroke-linecap: round;stroke-linejoin: round" width="15.75" x="90.83" y="12.46"/>
    <rect height="3.33" rx="1.67" ry="1.67" style="fill: none;stroke: #8a231e;stroke-linecap: round;stroke-linejoin: round" width="15.75" x="90.83" y="86.38"/>
    <polyline points="76.38 31.04 72.46 34.63 72.46 78.71" style="fill: none;stroke: #8a231e;stroke-linecap: round;stroke-linejoin: round"/>
    <polygon points="71.46 78.71 76.38 78.71 76.38 86.53 75.46 86.53 80.75 92.97 80.22 93.48 77.94 93.48 71.46 87.09 71.46 78.71" style="fill: #8b231e"/>
  </g>
  <g id="goldellipse">
    <g>
      <path d="M19.33,0V7c0,3.17,5.54,3.17,5.54,0V.1ZM22.1,8.15a1.46,1.46,0,1,1,1.46-1.46A1.46,1.46,0,0,1,22.1,8.15Z" style="fill: #e8c491"/>
      <path d="M26.3,0V7c0,3.17,5.54,3.17,5.54,0V.1Zm2.77,8.15a1.46,1.46,0,1,1,1.46-1.46A1.46,1.46,0,0,1,29.07,8.15Z" style="fill: #e8c491"/>
      <path d="M33.26,0V7c0,3.17,5.54,3.17,5.54,0V.1ZM36,8.15a1.46,1.46,0,1,1,1.46-1.46A1.46,1.46,0,0,1,36,8.15Z" style="fill: #e8c491"/>
      <path d="M40.22,0V7c0,3.17,5.54,3.17,5.54,0V.1ZM43,8.15a1.46,1.46,0,1,1,1.46-1.46A1.46,1.46,0,0,1,43,8.15Z" style="fill: #e8c491"/>
      <path d="M47.19,0V7c0,3.17,5.54,3.17,5.54,0V.1ZM50,8.15a1.46,1.46,0,1,1,1.46-1.46A1.46,1.46,0,0,1,50,8.15Z" style="fill: #e8c491"/>
      <path d="M54.15,0V7c0,3.17,5.54,3.17,5.54,0V.1Zm2.77,8.15a1.46,1.46,0,1,1,1.46-1.46A1.46,1.46,0,0,1,56.92,8.15Z" style="fill: #e8c491"/>
      <path d="M61.11,0V7c0,3.17,5.54,3.17,5.54,0V.1Zm2.77,8.15a1.46,1.46,0,1,1,1.46-1.46A1.46,1.46,0,0,1,63.88,8.15Z" style="fill: #e8c491"/>
      <path d="M68.07,0V7c0,3.17,5.54,3.17,5.54,0V.1Zm2.77,8.15A1.46,1.46,0,1,1,72.3,6.69,1.46,1.46,0,0,1,70.84,8.15Z" style="fill: #e8c491"/>
      <path d="M75,0V7c0,3.17,5.54,3.17,5.54,0V.1Zm2.77,8.15a1.46,1.46,0,1,1,1.46-1.46A1.46,1.46,0,0,1,77.81,8.15Z" style="fill: #e8c491"/>
      <path d="M82,0V7c0,3.17,5.54,3.17,5.54,0V.1Zm2.77,8.15a1.46,1.46,0,1,1,1.46-1.46A1.46,1.46,0,0,1,84.77,8.15Z" style="fill: #e8c491"/>
    </g>
    <g>
      <path d="M59,98.71v-7c0-3.17-5.54-3.17-5.54,0V98.6Zm-2.77-8.15A1.46,1.46,0,1,1,54.75,92,1.46,1.46,0,0,1,56.21,90.56Z" style="fill: #e8c491"/>
      <path d="M52,98.71v-7c0-3.17-5.54-3.17-5.54,0V98.6Zm-2.77-8.15A1.46,1.46,0,1,1,47.79,92,1.46,1.46,0,0,1,49.25,90.56Z" style="fill: #e8c491"/>
      <path d="M45.05,98.71v-7c0-3.17-5.54-3.17-5.54,0V98.6Zm-2.77-8.15A1.46,1.46,0,1,1,40.82,92,1.46,1.46,0,0,1,42.28,90.56Z" style="fill: #e8c491"/>
      <path d="M38.09,98.71v-7c0-3.17-5.54-3.17-5.54,0V98.6Zm-2.77-8.15A1.46,1.46,0,1,1,33.86,92,1.46,1.46,0,0,1,35.32,90.56Z" style="fill: #e8c491"/>
      <path d="M31.13,98.71v-7c0-3.17-5.54-3.17-5.54,0V98.6Zm-2.77-8.15A1.46,1.46,0,1,1,26.9,92,1.46,1.46,0,0,1,28.36,90.56Z" style="fill: #e8c491"/>
      <path d="M24.16,98.71v-7c0-3.17-5.54-3.17-5.54,0V98.6Zm-2.77-8.15A1.46,1.46,0,1,1,19.94,92,1.46,1.46,0,0,1,21.39,90.56Z" style="fill: #e8c491"/>
    </g>
    <g>
      <circle cx="7.17" cy="6.69" r="5.07" style="fill: none;stroke: #e8c491;stroke-miterlimit: 10;stroke-width: 3px"/>
      <circle cx="7.17" cy="91.61" r="5.07" style="fill: none;stroke: #e8c491;stroke-miterlimit: 10;stroke-width: 3px"/>
    </g>
    <g>
      <circle cx="277.31" cy="6.69" r="5.07" style="fill: none;stroke: #e8c491;stroke-miterlimit: 10;stroke-width: 3px"/>
      <circle cx="277.31" cy="91.61" r="5.07" style="fill: none;stroke: #e8c491;stroke-miterlimit: 10;stroke-width: 3px"/>
    </g>
    <circle cx="281.08" cy="30.75" r="2.13" style="fill: none;stroke: #e8c491;stroke-miterlimit: 10"/>
    <circle cx="281.08" cy="41.63" r="2.13" style="fill: none;stroke: #e8c491;stroke-miterlimit: 10"/>
    <circle cx="281.08" cy="61.17" r="2.13" style="fill: none;stroke: #e8c491;stroke-miterlimit: 10"/>
    <circle cx="281.08" cy="72.27" r="2.13" style="fill: none;stroke: #e8c491;stroke-miterlimit: 10"/>
    <g>
      <circle cx="6.72" cy="32.72" r="2.47" style="fill: #e8c491"/>
      <circle cx="6.72" cy="27" r="2.47" style="fill: #e8c491"/>
      <circle cx="6.72" cy="38.44" r="2.47" style="fill: #e8c491"/>
    </g>
    <g>
      <rect height="2.17" rx="1.08" ry="1.08" style="fill: #d4b5ac" width="14.17" x="91.62" y="86.38"/>
      <rect height="2.17" rx="1.08" ry="1.08" style="fill: #d4b5ac" width="14.17" x="166.29" y="86.38"/>
      <rect height="2.17" rx="1.08" ry="1.08" style="fill: #d4b5ac" width="14.17" x="241.12" y="86.38"/>
    </g>
    <g id="g3634">
      <g id="breadboard">
        <g data-name="breadboard" id="breadboard-2">
          <g id="g8">
            <g id="g9">
              <circle cx="6.27" cy="73.85" id="connector16pin" r="1.75" style="fill: none;stroke: #e8c491;stroke-miterlimit: 10"/>
              <circle cx="6.27" cy="66.85" id="connector17pin" r="1.75" style="fill: none;stroke: #e8c491;stroke-miterlimit: 10"/>
              <circle cx="6.27" cy="59.85" id="connector18pin" r="1.75" style="fill: none;stroke: #e8c491;stroke-miterlimit: 10"/>
            </g>
          </g>
        </g>
      </g>
    </g>
  </g>
  <g data-name="Layer 5" id="Layer_5">
    <rect height="73.33" rx="5.51" ry="5.51" style="fill: #211c1a" width="199.36" x="75.04" y="14.13"/>
    <rect height="47.43" rx="4.5" ry="4.5" style="fill: url(#linear-gradient)" width="182.31" x="83.31" y="26.96"/>
    <rect height="3.08" rx="1.17" ry="1.17" style="fill: #28231d" width="188.5" x="81.04" y="17"/>
    <rect height="3.08" rx="1.17" ry="1.17" style="fill: #28231d" width="188.5" x="81.04" y="80.54"/>
    <polygon points="273.46 33.38 282.39 44.63 282.46 57.29 273.46 68.71 273.46 33.38" style="fill: #c6c4c5"/>
    <g>
      <path d="M12.83,61.35a.25.25,0,0,1-.51,0v-3.7H14a.77.77,0,0,1,.8.74v.35a.74.74,0,0,1-.8.72h-.47l1.14,1.64a.51.51,0,0,1,.13.27.24.24,0,0,1-.26.24.27.27,0,0,1-.22-.14l-1.4-2h-.12Zm0-2.4H14c.14,0,.37,0,.37-.21v-.35c0-.2-.21-.23-.36-.23H12.83Z" style="fill: #fff"/>
      <path d="M16.94,59.62,16,58.07a.34.34,0,0,1-.06-.18.25.25,0,0,1,.25-.24c.17,0,.22.13.29.25l.71,1.21.71-1.21c.07-.12.13-.25.29-.25a.25.25,0,0,1,.25.24.34.34,0,0,1-.06.18l-.9,1.55.9,1.55a.33.33,0,0,1,.06.18.25.25,0,0,1-.25.24c-.17,0-.22-.13-.29-.25l-.71-1.21-.71,1.21c-.07.12-.13.25-.29.25a.25.25,0,0,1-.25-.24.33.33,0,0,1,.06-.18Z" style="fill: #fff"/>
    </g>
    <g>
      <path d="M13.83,67.48a.25.25,0,0,1,0-.51h1v1a.76.76,0,0,1-.81.8h-.87a.78.78,0,0,1-.58-.2.73.73,0,0,1-.24-.62V66.67a1,1,0,0,1,.26-.74l.6-.77a.78.78,0,0,1,.71-.35h.68a.25.25,0,0,1,0,.51H14c-.28,0-.26,0-.43.21l-.55.71a1,1,0,0,0-.16.66v1c0,.28.06.37.35.37H14c.18,0,.33,0,.33-.26v-.52Z" style="fill: #fff"/>
      <path d="M18,65.07a.25.25,0,0,1,.51,0v3.7h-.67l-1.33-3h0v2.79a.25.25,0,0,1-.51,0v-3.7h.67L18,67.9h0Z" style="fill: #fff"/>
      <path d="M20.12,65.32h-.19c-.17,0-.31-.06-.31-.25s.14-.25.29-.25h.85a.76.76,0,0,1,.77.51l.45.89a1.17,1.17,0,0,1,0,1.15l-.46.92a.77.77,0,0,1-.8.48h-.84a.25.25,0,0,1,0-.51h.24Zm.51,2.94h.1c.21,0,.26,0,.36-.21l.45-.9a.71.71,0,0,0,.1-.33.85.85,0,0,0-.13-.42l-.42-.86c-.11-.22-.15-.21-.39-.21h-.06Z" style="fill: #fff"/>
    </g>
    <g>
      <path d="M14.32,73v-.81a.25.25,0,0,1,.51,0V73a.52.52,0,0,1,0,.2l-1,2.47c-.05.13-.1.22-.25.22s-.2-.1-.25-.22l-1-2.47a.52.52,0,0,1,0-.2v-.8a.25.25,0,0,1,.51,0V73L13.57,75Z" style="fill: #fff"/>
      <path d="M17.34,75.93a.76.76,0,0,1-.76-.48l-.47-.94A1.15,1.15,0,0,1,16,74a1.11,1.11,0,0,1,.14-.56l.47-.94a.76.76,0,0,1,.78-.49h.86a.24.24,0,0,1,.25.25.24.24,0,0,1-.25.25h-.85c-.22,0-.25,0-.35.21l-.44.88a.78.78,0,0,0-.11.39.7.7,0,0,0,.11.35l.43.88c.1.21.15.22.38.22h.83a.24.24,0,0,1,.25.25.24.24,0,0,1-.25.25Z" style="fill: #fff"/>
      <path d="M21,75.93a.76.76,0,0,1-.76-.48l-.47-.94a1.15,1.15,0,0,1-.14-.53,1.11,1.11,0,0,1,.14-.56l.47-.94A.76.76,0,0,1,21,72h.86a.24.24,0,0,1,.25.25.24.24,0,0,1-.25.25H21c-.22,0-.25,0-.35.21l-.44.88a.78.78,0,0,0-.11.39.7.7,0,0,0,.11.35l.43.88c.1.21.15.22.38.22h.83a.24.24,0,0,1,.25.25.24.24,0,0,1-.25.25Z" style="fill: #fff"/>
    </g>
  </g>
  <g id="Connectors">
    <circle cx="6.27" cy="73.85" data-cir-type="male" id="circuitoCon_VCC" r="1.24" style="fill: none"/>
    <circle cx="6.27" cy="66.85" data-cir-type="male" id="circuitoCon_GND" r="1.24" style="fill: none"/>
    <circle cx="6.27" cy="59.85" data-cir-type="male" id="circuitoCon_RX" r="1.24" style="fill: none"/>
  </g>
</svg>