<?xml version="1.0" ?><svg height="13.4mm" viewBox="0 0 60.5 37.99" width="21.34mm" xmlns="http://www.w3.org/2000/svg" xmlns:xlink="http://www.w3.org/1999/xlink">
  <defs>
    <clipPath id="clip-path" transform="translate(3.84 3.6)">
      <circle cx="15.36" cy="14.75" r="11.69" style="fill: none"/>
    </clipPath>
  </defs>
  <title>Electret Microphone Breakout finish</title>
  <g id="motherboard">
    <path d="M1.06-.06V28.53h55.6V-.06ZM56.13,28.18H1.5V.62H56.13Z" style="fill: #efe6e4" transform="translate(3.84 3.6)"/>
    <circle cx="49.28" cy="16.99" r="0.81" style="fill: none"/>
    <circle cx="56.91" cy="25.2" r="1.42" style="fill: none"/>
    <circle cx="45.81" cy="8.55" r="0.81" style="fill: none"/>
    <circle cx="44.68" cy="24.8" r="0.81" style="fill: none"/>
    <circle cx="56.91" cy="10.8" r="1.42" style="fill: none"/>
    <circle cx="56.91" cy="17.98" r="1.42" style="fill: none"/>
    <path d="M1.5.62V28.18H56.13V.62ZM40.84,22a.81.81,0,1,1,.81-.81A.81.81,0,0,1,40.84,22ZM42,5.77A.81.81,0,1,1,42.78,5,.81.81,0,0,1,42,5.77Zm3.47,8.44a.81.81,0,1,1,.81-.81A.81.81,0,0,1,45.44,14.21Zm7.64,8.92a1.52,1.52,0,1,1,1.52-1.52A1.52,1.52,0,0,1,53.08,23.13Zm0-7.2a1.52,1.52,0,1,1,1.52-1.52A1.52,1.52,0,0,1,53.09,15.93Zm0-7.22a1.55,1.55,0,1,1,1.53-1.55A1.54,1.54,0,0,1,53.06,8.71Z" style="fill: #cf2f27" transform="translate(3.84 3.6)"/>
    <path d="M40.84,23.52a2.31,2.31,0,0,1-.1-4.62l.07-11.55a2.66,2.66,0,1,1,2.38,0l0,13.9A2.31,2.31,0,0,1,40.84,23.52Zm0-3.62a1.31,1.31,0,1,0,1.31,1.31l0-14.57.33-.12a1.66,1.66,0,1,0-1.06,0l.35.11-.08,13.23Z" style="fill: #8a231e" transform="translate(3.84 3.6)"/>
    <path d="M55.63,5.06" style="fill: none;stroke: #c52127;stroke-miterlimit: 10" transform="translate(3.84 3.6)"/>
    <g>
      <path d="M1.54,28.24V.62H56.13V6.29l-.88-1a2.78,2.78,0,0,0-2.18-.91,2.9,2.9,0,0,0-2.9,2.9A2.75,2.75,0,0,0,53.08,10a2.82,2.82,0,0,0,2.17-.93l.88-1v5.42l-.88-1a2.88,2.88,0,0,0-5,1.17l-1-.25a3.9,3.9,0,0,1,2.32-2.65,3.62,3.62,0,0,1-2.44-3.46,3.9,3.9,0,0,1,3.9-3.9,4.05,4.05,0,0,1,2.05.53V1.62H2.54V27.24l52.59-.16V24.87a3.85,3.85,0,0,1-2.07.61A3.9,3.9,0,0,1,51.59,18a3.92,3.92,0,0,1-2.33-2.78l1-.21a2.89,2.89,0,0,0,5,1.28l.88-1v5.47l-.88-1a2.9,2.9,0,1,0,0,3.76l.88-1v5.64ZM54.53,18a3.93,3.93,0,0,1,.6.31v-.62A4,4,0,0,1,54.53,18Zm0-7.23a3.91,3.91,0,0,1,.61.31v-.61A3.69,3.69,0,0,1,54.51,10.74Z" style="fill: #8a231e" transform="translate(3.84 3.6)"/>
      <rect height="19.05" style="fill: #8a231e" width="1" x="58.96" y="8.17"/>
    </g>
  </g>
  <g id="text">
    <g>
      <path d="M45.48,24c0,.16-.11.31-.31.31s-.27-.15-.31-.31L43.71,20c0-.14.12-.3.29-.3a.36.36,0,0,1,.32.3l.22.72h1.28L46,20a.36.36,0,0,1,.32-.3c.17,0,.33.16.29.3Zm-.31-1.12h0l.47-1.62h-.94Z" style="fill: #fff" transform="translate(3.84 3.6)"/>
      <path d="M41.37,19.68a.91.91,0,0,1,.74.31,1,1,0,0,1,.23.71V24a.3.3,0,0,1-.6,0V20.7c0-.34-.1-.42-.37-.42h-1c-.27,0-.37.08-.37.42V24a.3.3,0,0,1-.6,0V20.7A1,1,0,0,1,39.6,20a.91.91,0,0,1,.74-.31Z" style="fill: #fff" transform="translate(3.84 3.6)"/>
      <path d="M37.43,23.75h.22c.2,0,.37.07.37.3s-.16.3-.35.3h-1a.9.9,0,0,1-.91-.6l-.53-1.05a1.39,1.39,0,0,1,0-1.36l.55-1.09a.91.91,0,0,1,.95-.56h1a.3.3,0,1,1,0,.6h-.29Zm-.6-3.47h-.11c-.25,0-.31,0-.42.25l-.53,1.07a.84.84,0,0,0-.11.39,1,1,0,0,0,.15.49l.5,1c.13.26.18.25.46.25h.07Z" style="fill: #fff" transform="translate(3.84 3.6)"/>
    </g>
    <path d="M36.3,12.74l-.53,1.07a.84.84,0,0,0-.11.39,1,1,0,0,0,.15.49l.5,1c.13.26.18.25.46.25h.07V12.49h-.11C36.47,12.49,36.41,12.52,36.3,12.74Z" style="fill: none" transform="translate(3.84 3.6)"/>
    <path d="M36.24,5.12a.9.9,0,0,1,.9.57l.55,1.12a1.35,1.35,0,0,1,.16.63,1.31,1.31,0,0,1-.17.67l-.55,1.11a.9.9,0,0,1-.92.58h-1a.28.28,0,0,1-.3-.3.29.29,0,0,1,.3-.3h1c.26,0,.3,0,.41-.25l.52-1a.93.93,0,0,0,.13-.46A.83.83,0,0,0,37.13,7l-.51-1c-.12-.25-.18-.26-.45-.26h-1a.28.28,0,0,1-.3-.3.29.29,0,0,1,.3-.3Z" style="fill: #fff" transform="translate(3.84 3.6)"/>
    <path d="M44.29,8.53v1a.3.3,0,1,1-.6,0V8.54a.61.61,0,0,1,0-.23l1.14-2.92c.06-.15.11-.26.3-.26s.24.11.3.26L46.62,8.3a.63.63,0,0,1,0,.23v.95a.3.3,0,0,1-.6,0v-1l-.88-2.29Z" style="fill: #fff" transform="translate(3.84 3.6)"/>
    <path d="M37.27,16.06h.22c.2,0,.37.07.37.3s-.16.3-.35.3h-1a.9.9,0,0,1-.91-.6L35.07,15a1.42,1.42,0,0,1-.18-.7,1.43,1.43,0,0,1,.17-.66l.55-1.09a.91.91,0,0,1,.95-.56h1a.3.3,0,1,1,0,.6h-.29Zm-.6-3.47h-.11c-.25,0-.31,0-.42.25l-.53,1.07a.83.83,0,0,0-.12.39,1,1,0,0,0,.15.49l.5,1c.13.26.18.25.46.25h.07Z" style="fill: #fff" transform="translate(3.84 3.6)"/>
    <path d="M40,16.35a.3.3,0,1,1-.6,0V12h.79l1.57,3.6h0v-3.3a.3.3,0,0,1,.6,0v4.37h-.79L40,13h0Z" style="fill: #fff" transform="translate(3.84 3.6)"/>
    <path d="M41.9,5.85a.79.79,0,0,1-.78-.74h0a1,1,0,0,0-1.1,1h.62a.49.49,0,0,1,.5-.44c.67,0,.75,1.06.75,1.54s-.1,1.51-.75,1.51a.47.47,0,0,1-.5-.41H40a1,1,0,0,0,1.1,1c1.1,0,1.4-1.16,1.4-2.1a3,3,0,0,0-.31-1.4A.79.79,0,0,1,41.9,5.85Z" style="fill: #fff" transform="translate(3.84 3.6)"/>
    <path d="M44.9,12.54a1.59,1.59,0,0,0-.34.06V13A.92.92,0,0,1,44.9,12.54Z" style="fill: none" transform="translate(3.84 3.6)"/>
    <path d="M44.56,13.61h0Z" style="fill: none" transform="translate(3.84 3.6)"/>
    <path d="M44.63,13.61h0a.81.81,0,0,1,0-.14Z" style="fill: none" transform="translate(3.84 3.6)"/>
    <path d="M45.44,12.58l.13,0a1,1,0,0,0-.45-.11,1.36,1.36,0,0,0-.5.1v.74A.82.82,0,0,1,45.44,12.58Z" style="fill: none" transform="translate(3.84 3.6)"/>
    <path d="M45.21,11.84a3.65,3.65,0,0,0-1.31.27v2.15h1.28a.89.89,0,0,1-.55-.61h0V13.5s0,0,0-.07,0,0,0-.07v-.8a1.58,1.58,0,0,1,.56-.1,1.1,1.1,0,0,1,.5.11.89.89,0,0,1,.77.86.84.84,0,0,1-.16.47c0,.09,0,.18,0,.27,0,.83-.16,1.58-1.13,1.58-.3,0-.48-.07-.55-.33H43.9v.05c0,.45.58.89,1.24.89,1.42,0,1.82-1.07,1.82-2.25S46.59,11.84,45.21,11.84Z" style="fill: #fff" transform="translate(3.84 3.6)"/>
    <path d="M44.61,13.41s0,0,0,.06v-.13S44.61,13.38,44.61,13.41Z" style="fill: #fff" transform="translate(3.84 3.6)"/>
  </g>
  <g id="microphone">
    <circle cx="19.21" cy="18.25" r="13.34" style="fill: #c6c6c6"/>
    <circle cx="19.21" cy="18.25" r="12.63" style="fill: #aca5b1"/>
    <g style="clip-path: url(#clip-path)">
      <line style="fill: none;stroke: #383838;stroke-miterlimit: 10;stroke-width: 0.25px" x1="18.44" x2="0.76" y1="0.09" y2="17.77"/>
      <line style="fill: none;stroke: #383838;stroke-miterlimit: 10;stroke-width: 0.25px" x1="18.75" x2="1.07" y1="0.4" y2="18.08"/>
      <line style="fill: none;stroke: #383838;stroke-miterlimit: 10;stroke-width: 0.25px" x1="19.07" x2="1.38" y1="0.71" y2="18.4"/>
      <line style="fill: none;stroke: #383838;stroke-miterlimit: 10;stroke-width: 0.25px" x1="19.38" x2="1.69" y1="1.02" y2="18.71"/>
      <line style="fill: none;stroke: #383838;stroke-miterlimit: 10;stroke-width: 0.25px" x1="19.69" x2="2" y1="1.33" y2="19.02"/>
      <line style="fill: none;stroke: #383838;stroke-miterlimit: 10;stroke-width: 0.25px" x1="20" x2="2.32" y1="1.64" y2="19.33"/>
      <line style="fill: none;stroke: #383838;stroke-miterlimit: 10;stroke-width: 0.25px" x1="20.31" x2="2.63" y1="1.96" y2="19.64"/>
      <line style="fill: none;stroke: #383838;stroke-miterlimit: 10;stroke-width: 0.25px" x1="20.62" x2="2.94" y1="2.27" y2="19.95"/>
      <line style="fill: none;stroke: #383838;stroke-miterlimit: 10;stroke-width: 0.25px" x1="20.93" x2="3.25" y1="2.58" y2="20.26"/>
      <line style="fill: none;stroke: #383838;stroke-miterlimit: 10;stroke-width: 0.25px" x1="21.24" x2="3.56" y1="2.89" y2="20.57"/>
      <line style="fill: none;stroke: #383838;stroke-miterlimit: 10;stroke-width: 0.25px" x1="21.56" x2="3.87" y1="3.2" y2="20.89"/>
      <line style="fill: none;stroke: #383838;stroke-miterlimit: 10;stroke-width: 0.25px" x1="21.87" x2="4.18" y1="3.51" y2="21.2"/>
      <line style="fill: none;stroke: #383838;stroke-miterlimit: 10;stroke-width: 0.25px" x1="22.18" x2="4.49" y1="3.82" y2="21.51"/>
      <line style="fill: none;stroke: #383838;stroke-miterlimit: 10;stroke-width: 0.25px" x1="22.49" x2="4.81" y1="4.13" y2="21.82"/>
      <line style="fill: none;stroke: #383838;stroke-miterlimit: 10;stroke-width: 0.25px" x1="22.8" x2="5.12" y1="4.45" y2="22.13"/>
      <line style="fill: none;stroke: #383838;stroke-miterlimit: 10;stroke-width: 0.25px" x1="23.11" x2="5.43" y1="4.76" y2="22.44"/>
      <line style="fill: none;stroke: #383838;stroke-miterlimit: 10;stroke-width: 0.25px" x1="23.42" x2="5.74" y1="5.07" y2="22.75"/>
      <line style="fill: none;stroke: #383838;stroke-miterlimit: 10;stroke-width: 0.25px" x1="23.73" x2="6.05" y1="5.38" y2="23.06"/>
      <line style="fill: none;stroke: #383838;stroke-miterlimit: 10;stroke-width: 0.25px" x1="24.05" x2="6.36" y1="5.69" y2="23.38"/>
      <line style="fill: none;stroke: #383838;stroke-miterlimit: 10;stroke-width: 0.25px" x1="24.36" x2="6.67" y1="6" y2="23.69"/>
      <line style="fill: none;stroke: #383838;stroke-miterlimit: 10;stroke-width: 0.25px" x1="24.67" x2="6.98" y1="6.31" y2="24"/>
      <line style="fill: none;stroke: #383838;stroke-miterlimit: 10;stroke-width: 0.25px" x1="24.98" x2="7.3" y1="6.62" y2="24.31"/>
      <line style="fill: none;stroke: #383838;stroke-miterlimit: 10;stroke-width: 0.25px" x1="25.29" x2="7.61" y1="6.94" y2="24.62"/>
      <line style="fill: none;stroke: #383838;stroke-miterlimit: 10;stroke-width: 0.25px" x1="25.6" x2="7.92" y1="7.25" y2="24.93"/>
      <line style="fill: none;stroke: #383838;stroke-miterlimit: 10;stroke-width: 0.25px" x1="25.91" x2="8.23" y1="7.56" y2="25.24"/>
      <line style="fill: none;stroke: #383838;stroke-miterlimit: 10;stroke-width: 0.25px" x1="26.22" x2="8.54" y1="7.87" y2="25.55"/>
      <line style="fill: none;stroke: #383838;stroke-miterlimit: 10;stroke-width: 0.25px" x1="26.54" x2="8.85" y1="8.18" y2="25.87"/>
      <line style="fill: none;stroke: #383838;stroke-miterlimit: 10;stroke-width: 0.25px" x1="26.85" x2="9.16" y1="8.49" y2="26.18"/>
      <line style="fill: none;stroke: #383838;stroke-miterlimit: 10;stroke-width: 0.25px" x1="27.16" x2="9.47" y1="8.8" y2="26.49"/>
      <line style="fill: none;stroke: #383838;stroke-miterlimit: 10;stroke-width: 0.25px" x1="27.47" x2="9.79" y1="9.11" y2="26.8"/>
      <line style="fill: none;stroke: #383838;stroke-miterlimit: 10;stroke-width: 0.25px" x1="27.78" x2="10.1" y1="9.43" y2="27.11"/>
      <line style="fill: none;stroke: #383838;stroke-miterlimit: 10;stroke-width: 0.25px" x1="28.09" x2="10.41" y1="9.74" y2="27.42"/>
      <line style="fill: none;stroke: #383838;stroke-miterlimit: 10;stroke-width: 0.25px" x1="28.4" x2="10.72" y1="10.05" y2="27.73"/>
      <line style="fill: none;stroke: #383838;stroke-miterlimit: 10;stroke-width: 0.25px" x1="28.71" x2="11.03" y1="10.36" y2="28.04"/>
      <line style="fill: none;stroke: #383838;stroke-miterlimit: 10;stroke-width: 0.25px" x1="29.03" x2="11.34" y1="10.67" y2="28.36"/>
      <line style="fill: none;stroke: #383838;stroke-miterlimit: 10;stroke-width: 0.25px" x1="29.34" x2="11.65" y1="10.98" y2="28.67"/>
      <line style="fill: none;stroke: #383838;stroke-miterlimit: 10;stroke-width: 0.25px" x1="29.65" x2="11.96" y1="11.29" y2="28.98"/>
      <line style="fill: none;stroke: #383838;stroke-miterlimit: 10;stroke-width: 0.25px" x1="29.96" x2="12.28" y1="11.6" y2="29.29"/>
      <line style="fill: none;stroke: #383838;stroke-miterlimit: 10;stroke-width: 0.25px" x1="30.27" x2="12.59" y1="11.92" y2="29.6"/>
      <line style="fill: none;stroke: #383838;stroke-miterlimit: 10;stroke-width: 0.25px" x1="30.58" x2="12.9" y1="12.23" y2="29.91"/>
      <line style="fill: none;stroke: #383838;stroke-miterlimit: 10;stroke-width: 0.25px" x1="30.89" x2="13.21" y1="12.54" y2="30.22"/>
      <line style="fill: none;stroke: #383838;stroke-miterlimit: 10;stroke-width: 0.25px" x1="31.2" x2="13.52" y1="12.85" y2="30.53"/>
      <line style="fill: none;stroke: #383838;stroke-miterlimit: 10;stroke-width: 0.25px" x1="31.52" x2="13.83" y1="13.16" y2="30.85"/>
      <line style="fill: none;stroke: #383838;stroke-miterlimit: 10;stroke-width: 0.25px" x1="31.83" x2="14.14" y1="13.47" y2="31.16"/>
      <line style="fill: none;stroke: #383838;stroke-miterlimit: 10;stroke-width: 0.25px" x1="32.14" x2="14.45" y1="13.78" y2="31.47"/>
      <line style="fill: none;stroke: #383838;stroke-miterlimit: 10;stroke-width: 0.25px" x1="32.45" x2="14.77" y1="14.09" y2="31.78"/>
      <line style="fill: none;stroke: #383838;stroke-miterlimit: 10;stroke-width: 0.25px" x1="32.76" x2="15.08" y1="14.41" y2="32.09"/>
      <line style="fill: none;stroke: #383838;stroke-miterlimit: 10;stroke-width: 0.25px" x1="33.07" x2="15.39" y1="14.72" y2="32.4"/>
      <line style="fill: none;stroke: #383838;stroke-miterlimit: 10;stroke-width: 0.25px" x1="33.38" x2="15.7" y1="15.03" y2="32.71"/>
      <line style="fill: none;stroke: #383838;stroke-miterlimit: 10;stroke-width: 0.25px" x1="33.69" x2="16.01" y1="15.34" y2="33.02"/>
      <line style="fill: none;stroke: #383838;stroke-miterlimit: 10;stroke-width: 0.25px" x1="34.01" x2="16.32" y1="15.65" y2="33.34"/>
      <line style="fill: none;stroke: #383838;stroke-miterlimit: 10;stroke-width: 0.25px" x1="34.32" x2="16.63" y1="15.96" y2="33.65"/>
      <line style="fill: none;stroke: #383838;stroke-miterlimit: 10;stroke-width: 0.25px" x1="34.63" x2="16.94" y1="16.27" y2="33.96"/>
      <line style="fill: none;stroke: #383838;stroke-miterlimit: 10;stroke-width: 0.25px" x1="34.94" x2="17.26" y1="16.58" y2="34.27"/>
      <line style="fill: none;stroke: #383838;stroke-miterlimit: 10;stroke-width: 0.25px" x1="35.25" x2="17.57" y1="16.9" y2="34.58"/>
      <line style="fill: none;stroke: #383838;stroke-miterlimit: 10;stroke-width: 0.25px" x1="35.56" x2="17.88" y1="17.21" y2="34.89"/>
      <line style="fill: none;stroke: #383838;stroke-miterlimit: 10;stroke-width: 0.25px" x1="35.87" x2="18.19" y1="17.52" y2="35.2"/>
      <line style="fill: none;stroke: #383838;stroke-miterlimit: 10;stroke-width: 0.25px" x1="36.18" x2="18.5" y1="17.83" y2="35.51"/>
      <line style="fill: none;stroke: #383838;stroke-miterlimit: 10;stroke-width: 0.25px" x1="36.5" x2="18.81" y1="18.14" y2="35.83"/>
      <line style="fill: none;stroke: #383838;stroke-miterlimit: 10;stroke-width: 0.25px" x1="36.81" x2="19.12" y1="18.45" y2="36.14"/>
      <line style="fill: none;stroke: #383838;stroke-miterlimit: 10;stroke-width: 0.25px" x1="37.12" x2="19.43" y1="18.76" y2="36.45"/>
      <line style="fill: none;stroke: #383838;stroke-miterlimit: 10;stroke-width: 0.25px" x1="37.43" x2="19.75" y1="19.07" y2="36.76"/>
      <line style="fill: none;stroke: #383838;stroke-miterlimit: 10;stroke-width: 0.25px" x1="37.74" x2="20.06" y1="19.39" y2="37.07"/>
      <path d="M-3.33,9" style="fill: #fff;stroke: #000;stroke-miterlimit: 10" transform="translate(3.84 3.6)"/>
      <line style="fill: none;stroke: #383838;stroke-miterlimit: 10;stroke-width: 0.25px" x1="0.09" x2="17.77" y1="20.21" y2="37.9"/>
      <line style="fill: none;stroke: #383838;stroke-miterlimit: 10;stroke-width: 0.25px" x1="0.4" x2="18.08" y1="19.9" y2="37.59"/>
      <line style="fill: none;stroke: #383838;stroke-miterlimit: 10;stroke-width: 0.25px" x1="0.71" x2="18.4" y1="19.59" y2="37.28"/>
      <line style="fill: none;stroke: #383838;stroke-miterlimit: 10;stroke-width: 0.25px" x1="1.02" x2="18.71" y1="19.28" y2="36.96"/>
      <line style="fill: none;stroke: #383838;stroke-miterlimit: 10;stroke-width: 0.25px" x1="1.33" x2="19.02" y1="18.97" y2="36.65"/>
      <line style="fill: none;stroke: #383838;stroke-miterlimit: 10;stroke-width: 0.25px" x1="1.64" x2="19.33" y1="18.66" y2="36.34"/>
      <line style="fill: none;stroke: #383838;stroke-miterlimit: 10;stroke-width: 0.25px" x1="1.96" x2="19.64" y1="18.35" y2="36.03"/>
      <line style="fill: none;stroke: #383838;stroke-miterlimit: 10;stroke-width: 0.25px" x1="2.27" x2="19.95" y1="18.04" y2="35.72"/>
      <line style="fill: none;stroke: #383838;stroke-miterlimit: 10;stroke-width: 0.25px" x1="2.58" x2="20.26" y1="17.72" y2="35.41"/>
      <line style="fill: none;stroke: #383838;stroke-miterlimit: 10;stroke-width: 0.25px" x1="2.89" x2="20.57" y1="17.41" y2="35.1"/>
      <line style="fill: none;stroke: #383838;stroke-miterlimit: 10;stroke-width: 0.25px" x1="3.2" x2="20.89" y1="17.1" y2="34.79"/>
      <line style="fill: none;stroke: #383838;stroke-miterlimit: 10;stroke-width: 0.25px" x1="3.51" x2="21.2" y1="16.79" y2="34.47"/>
      <line style="fill: none;stroke: #383838;stroke-miterlimit: 10;stroke-width: 0.25px" x1="3.82" x2="21.51" y1="16.48" y2="34.16"/>
      <line style="fill: none;stroke: #383838;stroke-miterlimit: 10;stroke-width: 0.25px" x1="4.13" x2="21.82" y1="16.17" y2="33.85"/>
      <line style="fill: none;stroke: #383838;stroke-miterlimit: 10;stroke-width: 0.25px" x1="4.45" x2="22.13" y1="15.86" y2="33.54"/>
      <line style="fill: none;stroke: #383838;stroke-miterlimit: 10;stroke-width: 0.25px" x1="4.76" x2="22.44" y1="15.55" y2="33.23"/>
      <line style="fill: none;stroke: #383838;stroke-miterlimit: 10;stroke-width: 0.25px" x1="5.07" x2="22.75" y1="15.23" y2="32.92"/>
      <line style="fill: none;stroke: #383838;stroke-miterlimit: 10;stroke-width: 0.25px" x1="5.38" x2="23.06" y1="14.92" y2="32.61"/>
      <line style="fill: none;stroke: #383838;stroke-miterlimit: 10;stroke-width: 0.25px" x1="5.69" x2="23.38" y1="14.61" y2="32.3"/>
      <line style="fill: none;stroke: #383838;stroke-miterlimit: 10;stroke-width: 0.25px" x1="6" x2="23.69" y1="14.3" y2="31.98"/>
      <line style="fill: none;stroke: #383838;stroke-miterlimit: 10;stroke-width: 0.25px" x1="6.31" x2="24" y1="13.99" y2="31.67"/>
      <line style="fill: none;stroke: #383838;stroke-miterlimit: 10;stroke-width: 0.25px" x1="6.62" x2="24.31" y1="13.68" y2="31.36"/>
      <line style="fill: none;stroke: #383838;stroke-miterlimit: 10;stroke-width: 0.25px" x1="6.94" x2="24.62" y1="13.37" y2="31.05"/>
      <line style="fill: none;stroke: #383838;stroke-miterlimit: 10;stroke-width: 0.25px" x1="7.25" x2="24.93" y1="13.06" y2="30.74"/>
      <line style="fill: none;stroke: #383838;stroke-miterlimit: 10;stroke-width: 0.25px" x1="7.56" x2="25.24" y1="12.74" y2="30.43"/>
      <line style="fill: none;stroke: #383838;stroke-miterlimit: 10;stroke-width: 0.25px" x1="7.87" x2="25.55" y1="12.43" y2="30.12"/>
      <line style="fill: none;stroke: #383838;stroke-miterlimit: 10;stroke-width: 0.25px" x1="8.18" x2="25.87" y1="12.12" y2="29.81"/>
      <line style="fill: none;stroke: #383838;stroke-miterlimit: 10;stroke-width: 0.25px" x1="8.49" x2="26.18" y1="11.81" y2="29.49"/>
      <line style="fill: none;stroke: #383838;stroke-miterlimit: 10;stroke-width: 0.25px" x1="8.8" x2="26.49" y1="11.5" y2="29.18"/>
      <line style="fill: none;stroke: #383838;stroke-miterlimit: 10;stroke-width: 0.25px" x1="9.11" x2="26.8" y1="11.19" y2="28.87"/>
      <line style="fill: none;stroke: #383838;stroke-miterlimit: 10;stroke-width: 0.25px" x1="9.43" x2="27.11" y1="10.88" y2="28.56"/>
      <line style="fill: none;stroke: #383838;stroke-miterlimit: 10;stroke-width: 0.25px" x1="9.74" x2="27.42" y1="10.57" y2="28.25"/>
      <line style="fill: none;stroke: #383838;stroke-miterlimit: 10;stroke-width: 0.25px" x1="10.05" x2="27.73" y1="10.25" y2="27.94"/>
      <line style="fill: none;stroke: #383838;stroke-miterlimit: 10;stroke-width: 0.25px" x1="10.36" x2="28.04" y1="9.94" y2="27.63"/>
      <line style="fill: none;stroke: #383838;stroke-miterlimit: 10;stroke-width: 0.25px" x1="10.67" x2="28.36" y1="9.63" y2="27.32"/>
      <line style="fill: none;stroke: #383838;stroke-miterlimit: 10;stroke-width: 0.25px" x1="10.98" x2="28.67" y1="9.32" y2="27"/>
      <line style="fill: none;stroke: #383838;stroke-miterlimit: 10;stroke-width: 0.25px" x1="11.29" x2="28.98" y1="9.01" y2="26.69"/>
      <line style="fill: none;stroke: #383838;stroke-miterlimit: 10;stroke-width: 0.25px" x1="11.6" x2="29.29" y1="8.7" y2="26.38"/>
      <line style="fill: none;stroke: #383838;stroke-miterlimit: 10;stroke-width: 0.25px" x1="11.92" x2="29.6" y1="8.39" y2="26.07"/>
      <line style="fill: none;stroke: #383838;stroke-miterlimit: 10;stroke-width: 0.25px" x1="12.23" x2="29.91" y1="8.08" y2="25.76"/>
      <line style="fill: none;stroke: #383838;stroke-miterlimit: 10;stroke-width: 0.25px" x1="12.54" x2="30.22" y1="7.76" y2="25.45"/>
      <line style="fill: none;stroke: #383838;stroke-miterlimit: 10;stroke-width: 0.25px" x1="12.85" x2="30.53" y1="7.45" y2="25.14"/>
      <line style="fill: none;stroke: #383838;stroke-miterlimit: 10;stroke-width: 0.25px" x1="13.16" x2="30.85" y1="7.14" y2="24.83"/>
      <line style="fill: none;stroke: #383838;stroke-miterlimit: 10;stroke-width: 0.25px" x1="13.47" x2="31.16" y1="6.83" y2="24.51"/>
      <line style="fill: none;stroke: #383838;stroke-miterlimit: 10;stroke-width: 0.25px" x1="13.78" x2="31.47" y1="6.52" y2="24.2"/>
      <line style="fill: none;stroke: #383838;stroke-miterlimit: 10;stroke-width: 0.25px" x1="14.09" x2="31.78" y1="6.21" y2="23.89"/>
      <line style="fill: none;stroke: #383838;stroke-miterlimit: 10;stroke-width: 0.25px" x1="14.41" x2="32.09" y1="5.9" y2="23.58"/>
      <line style="fill: none;stroke: #383838;stroke-miterlimit: 10;stroke-width: 0.25px" x1="14.72" x2="32.4" y1="5.59" y2="23.27"/>
      <line style="fill: none;stroke: #383838;stroke-miterlimit: 10;stroke-width: 0.25px" x1="15.03" x2="32.71" y1="5.27" y2="22.96"/>
      <line style="fill: none;stroke: #383838;stroke-miterlimit: 10;stroke-width: 0.25px" x1="15.34" x2="33.02" y1="4.96" y2="22.65"/>
      <line style="fill: none;stroke: #383838;stroke-miterlimit: 10;stroke-width: 0.25px" x1="15.65" x2="33.34" y1="4.65" y2="22.34"/>
      <line style="fill: none;stroke: #383838;stroke-miterlimit: 10;stroke-width: 0.25px" x1="15.96" x2="33.65" y1="4.34" y2="22.02"/>
      <line style="fill: none;stroke: #383838;stroke-miterlimit: 10;stroke-width: 0.25px" x1="16.27" x2="33.96" y1="4.03" y2="21.71"/>
      <line style="fill: none;stroke: #383838;stroke-miterlimit: 10;stroke-width: 0.25px" x1="16.58" x2="34.27" y1="3.72" y2="21.4"/>
      <line style="fill: none;stroke: #383838;stroke-miterlimit: 10;stroke-width: 0.25px" x1="16.9" x2="34.58" y1="3.41" y2="21.09"/>
      <line style="fill: none;stroke: #383838;stroke-miterlimit: 10;stroke-width: 0.25px" x1="17.21" x2="34.89" y1="3.1" y2="20.78"/>
      <line style="fill: none;stroke: #383838;stroke-miterlimit: 10;stroke-width: 0.25px" x1="17.52" x2="35.2" y1="2.78" y2="20.47"/>
      <line style="fill: none;stroke: #383838;stroke-miterlimit: 10;stroke-width: 0.25px" x1="17.83" x2="35.51" y1="2.47" y2="20.16"/>
      <line style="fill: none;stroke: #383838;stroke-miterlimit: 10;stroke-width: 0.25px" x1="18.14" x2="35.83" y1="2.16" y2="19.85"/>
      <line style="fill: none;stroke: #383838;stroke-miterlimit: 10;stroke-width: 0.25px" x1="18.45" x2="36.14" y1="1.85" y2="19.53"/>
      <line style="fill: none;stroke: #383838;stroke-miterlimit: 10;stroke-width: 0.25px" x1="18.76" x2="36.45" y1="1.54" y2="19.22"/>
      <line style="fill: none;stroke: #383838;stroke-miterlimit: 10;stroke-width: 0.25px" x1="19.07" x2="36.76" y1="1.23" y2="18.91"/>
      <line style="fill: none;stroke: #383838;stroke-miterlimit: 10;stroke-width: 0.25px" x1="19.39" x2="37.07" y1="0.92" y2="18.6"/>
    </g>
  </g>
  <g id="Connectors">
    <line style="fill: none" x1="60.5" x2="60.5" y1="3.51" y2="32.42"/>
    <circle cx="56.9" cy="25.17" data-cir-type="male" id="circuitoCon_Sig" r="2.05" style="fill: none;stroke: #e8e5df;stroke-width: 1.224px"/>
    <circle cx="56.9" cy="17.97" data-cir-type="male" id="circuitoCon_0" r="2.05" style="fill: none;stroke: #e8e5df;stroke-width: 1.224px"/>
    <circle cx="56.9" cy="10.77" data-cir-type="male" id="circuitoCon_Vin" r="2.05" style="fill: none;stroke: #e8e5df;stroke-width: 1.224px"/>
  </g>
</svg>