<?xml version="1.0" ?><svg height="50.9mm" viewBox="0 0 126.5 144.28" width="44.63mm" xmlns="http://www.w3.org/2000/svg" xmlns:xlink="http://www.w3.org/1999/xlink">
  <defs>
    <radialGradient cx="-288.6" cy="147.32" gradientTransform="translate(190.12 409.24) rotate(90)" gradientUnits="userSpaceOnUse" id="radial-gradient" r="7.11">
      <stop offset="0" stop-color="#fff"/>
      <stop offset="0.21" stop-color="#ebeced"/>
      <stop offset="0.21" stop-color="#ebeced"/>
      <stop offset="0.46" stop-color="#c2c8d0"/>
      <stop offset="0.66" stop-color="#a9b1be"/>
      <stop offset="0.78" stop-color="#a0a9b7"/>
      <stop offset="0.83" stop-color="#a6afbc"/>
      <stop offset="0.9" stop-color="#b9c1c9"/>
      <stop offset="0.96" stop-color="#cdd5d8"/>
      <stop offset="1" stop-color="#d8e0e4"/>
    </radialGradient>
    <radialGradient cx="-288.61" cy="146.95" gradientTransform="matrix(0, 1, -1, 0, 189.86, 408.6)" gradientUnits="userSpaceOnUse" id="radial-gradient-2" r="6.43">
      <stop offset="0" stop-color="#fff"/>
      <stop offset="0.6" stop-color="#a3a7ac"/>
      <stop offset="1" stop-color="#636972"/>
    </radialGradient>
    <linearGradient gradientTransform="translate(350.4 218.92) rotate(45)" gradientUnits="userSpaceOnUse" id="linear-gradient" x1="-288.63" x2="-288.63" y1="146.93" y2="152.62">
      <stop offset="0" stop-color="#fff"/>
      <stop offset="1" stop-color="#cacdd1"/>
    </linearGradient>
    <linearGradient id="linear-gradient-2" x1="-288.63" x2="-288.63" xlink:href="#linear-gradient" y1="148.6" y2="149.31"/>
    <radialGradient cx="-288.55" cy="150.65" gradientTransform="translate(350.4 218.92) rotate(45)" gradientUnits="userSpaceOnUse" id="radial-gradient-3" r="3.09">
      <stop offset="0" stop-color="#858a91"/>
      <stop offset="0.32" stop-color="#7e838b"/>
      <stop offset="0.8" stop-color="#6a6f79"/>
      <stop offset="1" stop-color="#60656f"/>
    </radialGradient>
    <radialGradient cx="-298.53" cy="157.46" gradientTransform="translate(186.07 419.31) rotate(90)" id="radial-gradient-4" r="7.11" xlink:href="#radial-gradient"/>
    <radialGradient cx="-298.54" cy="157.09" gradientTransform="translate(185.81 418.68) rotate(90)" id="radial-gradient-5" r="6.43" xlink:href="#radial-gradient-2"/>
    <linearGradient id="linear-gradient-3" x1="-298.56" x2="-298.56" xlink:href="#linear-gradient" y1="157.07" y2="162.76"/>
    <linearGradient id="linear-gradient-4" x1="-298.56" x2="-298.56" xlink:href="#linear-gradient" y1="158.74" y2="159.45"/>
    <radialGradient cx="-298.48" cy="160.79" id="radial-gradient-6" r="3.09" xlink:href="#radial-gradient-3"/>
    <radialGradient cx="-278.51" cy="137.34" gradientTransform="translate(194.33 399.22) rotate(90)" id="radial-gradient-7" r="7.11" xlink:href="#radial-gradient"/>
    <radialGradient cx="-278.52" cy="136.97" gradientTransform="translate(194.07 398.59) rotate(90)" id="radial-gradient-8" r="6.43" xlink:href="#radial-gradient-2"/>
    <linearGradient id="linear-gradient-5" x1="-278.55" x2="-278.55" xlink:href="#linear-gradient" y1="136.95" y2="142.64"/>
    <linearGradient id="linear-gradient-6" x1="-278.55" x2="-278.55" xlink:href="#linear-gradient" y1="138.62" y2="139.33"/>
    <radialGradient cx="-278.47" cy="140.67" id="radial-gradient-9" r="3.09" xlink:href="#radial-gradient-3"/>
    <radialGradient cx="-259.15" cy="9.98" gradientTransform="translate(-249.1 108.86) rotate(180)" id="radial-gradient-10" r="7.11" xlink:href="#radial-gradient"/>
    <radialGradient cx="-259.15" cy="9.61" gradientTransform="translate(-248.47 108.6) rotate(180)" id="radial-gradient-11" r="6.43" xlink:href="#radial-gradient-2"/>
    <linearGradient gradientTransform="translate(-164.53 288.54) rotate(135)" id="linear-gradient-7" x1="-259.18" x2="-259.18" xlink:href="#linear-gradient" y1="9.58" y2="15.28"/>
    <linearGradient gradientTransform="translate(-164.53 288.54) rotate(135)" id="linear-gradient-8" x1="-259.18" x2="-259.18" xlink:href="#linear-gradient" y1="11.26" y2="11.97"/>
    <radialGradient cx="-259.1" cy="13.3" gradientTransform="translate(-164.53 288.54) rotate(135)" id="radial-gradient-12" r="3.09" xlink:href="#radial-gradient-3"/>
    <radialGradient cx="-269.08" cy="20.12" gradientTransform="translate(-259.18 104.81) rotate(180)" id="radial-gradient-13" r="7.11" xlink:href="#radial-gradient"/>
    <radialGradient cx="-269.08" cy="19.74" gradientTransform="translate(-258.54 104.55) rotate(180)" id="radial-gradient-14" r="6.43" xlink:href="#radial-gradient-2"/>
    <linearGradient gradientTransform="translate(-164.53 288.54) rotate(135)" id="linear-gradient-9" x1="-269.11" x2="-269.11" xlink:href="#linear-gradient" y1="19.72" y2="25.41"/>
    <linearGradient gradientTransform="translate(-164.53 288.54) rotate(135)" id="linear-gradient-10" x1="-269.11" x2="-269.11" xlink:href="#linear-gradient" y1="21.4" y2="22.1"/>
    <radialGradient cx="-269.03" cy="23.44" gradientTransform="translate(-164.53 288.54) rotate(135)" id="radial-gradient-15" r="3.09" xlink:href="#radial-gradient-3"/>
    <radialGradient cx="-381.9" cy="-110.84" gradientTransform="translate(498.58 190.98)" id="radial-gradient-16" r="7.11" xlink:href="#radial-gradient"/>
    <radialGradient cx="-381.91" cy="-111.22" gradientTransform="translate(497.95 191.24)" id="radial-gradient-17" r="6.43" xlink:href="#radial-gradient-2"/>
    <linearGradient gradientTransform="translate(463.49 -110.89) rotate(-45)" id="linear-gradient-11" x1="-381.94" x2="-381.94" xlink:href="#linear-gradient" y1="-111.24" y2="-105.55"/>
    <linearGradient gradientTransform="translate(463.49 -110.89) rotate(-45)" id="linear-gradient-12" x1="-381.94" x2="-381.94" xlink:href="#linear-gradient" y1="-109.56" y2="-108.86"/>
    <radialGradient cx="-381.86" cy="-107.52" gradientTransform="translate(463.49 -110.89) rotate(-45)" id="radial-gradient-18" r="3.09" xlink:href="#radial-gradient-3"/>
    <radialGradient cx="-391.83" cy="-100.71" gradientTransform="translate(508.65 195.03)" id="radial-gradient-19" r="7.11" xlink:href="#radial-gradient"/>
    <radialGradient cx="-391.84" cy="-101.08" gradientTransform="translate(508.02 195.29)" id="radial-gradient-20" r="6.43" xlink:href="#radial-gradient-2"/>
    <linearGradient gradientTransform="translate(463.49 -110.89) rotate(-45)" id="linear-gradient-13" x1="-391.87" x2="-391.87" xlink:href="#linear-gradient" y1="-101.1" y2="-95.41"/>
    <linearGradient gradientTransform="translate(463.49 -110.89) rotate(-45)" id="linear-gradient-14" x1="-391.87" x2="-391.87" xlink:href="#linear-gradient" y1="-99.43" y2="-98.72"/>
    <radialGradient cx="-391.79" cy="-97.38" gradientTransform="translate(463.49 -110.89) rotate(-45)" id="radial-gradient-21" r="3.09" xlink:href="#radial-gradient-3"/>
  </defs>
  <title>L298N Motor Driver Board Module</title>
  <g style="isolation: isolate">
    <g data-name="Layer 7" id="Layer_7">
      <circle cx="115.24" cy="13.35" r="3.88" style="fill: none"/>
      <circle cx="9.36" cy="15.1" r="4.6" style="fill: none"/>
      <circle cx="10.71" cy="120.83" r="3.88" style="fill: none"/>
      <circle cx="116.65" cy="120.64" r="3.88" style="fill: none"/>
      <path d="M123.81,4.5H2.69A2.69,2.69,0,0,0,0,7.19V127.31A2.69,2.69,0,0,0,2.69,130H123.81a2.69,2.69,0,0,0,2.69-2.69V7.19A2.69,2.69,0,0,0,123.81,4.5ZM4.76,15.1a4.6,4.6,0,1,1,4.6,4.6A4.6,4.6,0,0,1,4.76,15.1Zm5.95,109.6a3.88,3.88,0,1,1,3.88-3.87A3.87,3.87,0,0,1,10.71,124.71ZM40.54,45.06a1.29,1.29,0,1,1,1.29-1.29A1.29,1.29,0,0,1,40.54,45.06Zm7.37,0a1.29,1.29,0,1,1,1.29-1.29A1.29,1.29,0,0,1,47.91,45.06Zm7.37,0a1.29,1.29,0,1,1,1.29-1.29A1.29,1.29,0,0,1,55.28,45.06Zm7.37,0a1.29,1.29,0,1,1,1.29-1.29A1.29,1.29,0,0,1,62.65,45.06Zm7.37,0a1.29,1.29,0,1,1,1.29-1.29A1.29,1.29,0,0,1,70,45.06Zm7.37,0a1.29,1.29,0,1,1,1.29-1.29A1.29,1.29,0,0,1,77.39,45.06Zm7.37,0A1.29,1.29,0,1,1,86,43.77,1.29,1.29,0,0,1,84.76,45.06Zm26.61-31.71a3.88,3.88,0,1,1,3.88,3.88A3.88,3.88,0,0,1,111.36,13.35Zm5.28,111.16a3.88,3.88,0,1,1,3.88-3.87A3.87,3.87,0,0,1,116.65,124.51Z" style="fill: #8a231e"/>
    </g>
    <g data-name="Layer 6" id="Layer_6">
      <polyline points="23.65 52.26 40.54 52.26 40.54 45.71" style="fill: none;stroke: #cf2f27;stroke-miterlimit: 10;stroke-width: 4px"/>
      <line style="fill: none;stroke: #cf2f27;stroke-miterlimit: 10;stroke-width: 4px" x1="40.54" x2="101.48" y1="52.26" y2="52.26"/>
      <line style="fill: none;stroke: #cf2f27;stroke-miterlimit: 10;stroke-width: 4px" x1="23.11" x2="101.97" y1="63.54" y2="63.54"/>
      <polyline points="43.43 88.33 43.43 91.02 37.95 96.51 37.95 97.61" style="fill: none;stroke: #cf2f27;stroke-miterlimit: 10;stroke-width: 3px"/>
      <polyline points="46.06 109.33 46.06 96.88 53.07 89.87 63.4 89.87" style="fill: none;stroke: #cf2f27;stroke-miterlimit: 10;stroke-width: 3px"/>
      <line style="fill: none;stroke: #cf2f27;stroke-miterlimit: 10;stroke-width: 4px" x1="19.91" x2="19.91" y1="66.5" y2="77.79"/>
      <polyline points="28.38 31.67 25.81 29.1 25.23 28.52 19.21 28.52" style="fill: none;stroke: #cf2f27;stroke-miterlimit: 10;stroke-width: 3px"/>
      <polyline points="29.04 37.79 26.35 40.48 25.29 40.48 24.47 40.48 22.42 40.48" style="fill: none;stroke: #cf2f27;stroke-miterlimit: 10;stroke-width: 3px"/>
      <polyline points="53.94 74.4 56.72 74.4 57.68 74.4 59.58 76.3 72.48 76.3" style="fill: none;stroke: #cf2f27;stroke-miterlimit: 10;stroke-width: 3px"/>
      <line style="fill: none;stroke: #cf2f27;stroke-miterlimit: 10;stroke-width: 3px" x1="54.92" x2="64.33" y1="69.21" y2="69.21"/>
      <line style="fill: none;stroke: #cf2f27;stroke-miterlimit: 10;stroke-width: 3px" x1="71.45" x2="102.33" y1="115.1" y2="115.1"/>
      <rect height="21.69" style="fill: #cf2f27" width="33.37" x="63.4" y="81.94"/>
      <rect height="19.03" style="fill: #cf2f27" width="29.47" x="24.47" y="69.9"/>
      <rect height="5.16" rx="1.26" ry="1.26" style="fill: #cf2f27" width="4.68" x="54.36" y="81.24"/>
      <rect height="11.85" style="fill: #cf2f27" width="8.55" x="24.47" y="85.4"/>
    </g>
    <g>
      <g data-name="Layer 2" id="Layer_2">
        <g>
          <rect height="14.1" style="fill: #78b4e3" transform="translate(81.9 240.5) rotate(180)" width="42.19" x="19.86" y="113.2"/>
          <rect height="9.16" style="fill: #1f3354" transform="translate(95.01 241.15) rotate(180)" width="1.47" x="46.77" y="116"/>
          <rect height="9.16" style="fill: #1f3354" transform="translate(66.95 241.33) rotate(180)" width="1.47" x="32.74" y="116.08"/>
          <rect height="1.91" style="fill: #5b6cae" width="42.19" x="19.86" y="127.3"/>
          <path d="M62,108.34H19.86v4.86H62Z" style="fill: #5b6cae"/>
          <g>
            <circle cx="40.53" cy="120.61" r="4.95" style="fill: url(#radial-gradient)" transform="translate(-73.41 63.99) rotate(-45)"/>
            <circle cx="41.17" cy="119.97" r="3.81" style="opacity: 0.8;mix-blend-mode: soft-light;fill: url(#radial-gradient-2)" transform="translate(-72.78 64.25) rotate(-45)"/>
            <g>
              <path d="M42.93,122.24l-1.5-1.5,1.5-1.5-1-1-1.5,1.5-1.5-1.5-.85.85a.25.25,0,0,0,0,.36l1.32,1.32-1.32,1.32a.25.25,0,0,0,0,.36l.67.67a.25.25,0,0,0,.36,0l1.32-1.32,1.32,1.32a.25.25,0,0,0,.36,0Z" style="opacity: 0.8;fill: url(#linear-gradient)"/>
              <path d="M38.1,119l1.5,1.5L38.1,122l1,1,1.5-1.5,1.5,1.5.85-.85a.25.25,0,0,0,0-.36l-1.32-1.32L43,119.19a.25.25,0,0,0,0-.36l-.67-.67a.25.25,0,0,0-.36,0l-1.32,1.32-1.32-1.32a.25.25,0,0,0-.36,0Z" style="fill: url(#linear-gradient-2)"/>
              <path d="M43,122l-1.39-1.39L43,119.22a.16.16,0,0,0,0-.22l-.81-.81a.16.16,0,0,0-.22,0l-1.39,1.39-1.39-1.39a.16.16,0,0,0-.22,0l-.81.81a.16.16,0,0,0,0,.22l1.39,1.39L38.12,122a.16.16,0,0,0,0,.22l.81.81a.16.16,0,0,0,.22,0l1.39-1.39L41.92,123a.16.16,0,0,0,.22,0l.81-.81A.16.16,0,0,0,43,122Z" style="fill: url(#radial-gradient-3)"/>
              <g>
                <path d="M38.75,118.59,40,119.86a.16.16,0,0,0,.23,0l.28-.28-1.39-1.39a.16.16,0,0,0-.22,0l-.4.4A.16.16,0,0,1,38.75,118.59Z" style="fill: #363b3c;opacity: 0.43"/>
                <path d="M41.75,118.59l.81.81a.16.16,0,0,1,0,.22l.4-.4a.16.16,0,0,0,0-.22l-.81-.81a.16.16,0,0,0-.22,0l-.4.4A.16.16,0,0,1,41.75,118.59Z" style="fill: #363b3c;opacity: 0.43"/>
                <path d="M43,122l-1.39-1.39-.28.28a.16.16,0,0,0,0,.23l1.27,1.27a.16.16,0,0,1,0,.22l.4-.4A.16.16,0,0,0,43,122Z" style="fill: #363b3c;opacity: 0.43"/>
              </g>
            </g>
          </g>
          <g>
            <circle cx="26.35" cy="120.75" r="4.95" style="fill: url(#radial-gradient-4)" transform="translate(-77.67 54) rotate(-45)"/>
            <circle cx="26.98" cy="120.12" r="3.81" style="opacity: 0.8;mix-blend-mode: soft-light;fill: url(#radial-gradient-5)" transform="translate(-77.04 54.26) rotate(-45)"/>
            <g>
              <path d="M28.74,122.38l-1.5-1.5,1.5-1.5-1-1-1.5,1.5-1.5-1.5-.85.85a.25.25,0,0,0,0,.36l1.32,1.32-1.32,1.32a.25.25,0,0,0,0,.36l.67.67a.25.25,0,0,0,.36,0l1.32-1.32,1.32,1.32a.25.25,0,0,0,.36,0Z" style="opacity: 0.8;fill: url(#linear-gradient-3)"/>
              <path d="M23.91,119.16l1.5,1.5-1.5,1.5,1,1,1.5-1.5,1.5,1.5.85-.85a.25.25,0,0,0,0-.36l-1.32-1.32,1.32-1.32a.25.25,0,0,0,0-.36l-.67-.67a.25.25,0,0,0-.36,0l-1.32,1.32-1.32-1.32a.25.25,0,0,0-.36,0Z" style="fill: url(#linear-gradient-4)"/>
              <path d="M28.76,122.14l-1.39-1.39,1.39-1.39a.16.16,0,0,0,0-.22l-.81-.81a.16.16,0,0,0-.22,0l-1.39,1.39L25,118.34a.16.16,0,0,0-.22,0l-.81.81a.16.16,0,0,0,0,.22l1.39,1.39-1.39,1.39a.16.16,0,0,0,0,.22l.81.81a.16.16,0,0,0,.22,0l1.39-1.39,1.39,1.39a.16.16,0,0,0,.22,0l.81-.81A.16.16,0,0,0,28.76,122.14Z" style="fill: url(#radial-gradient-6)"/>
              <g>
                <path d="M24.56,118.73,25.84,120a.16.16,0,0,0,.23,0l.28-.28L25,118.34a.16.16,0,0,0-.22,0l-.4.4A.16.16,0,0,1,24.56,118.73Z" style="fill: #363b3c;opacity: 0.43"/>
                <path d="M27.56,118.73l.81.81a.16.16,0,0,1,0,.22l.4-.4a.16.16,0,0,0,0-.22l-.81-.81a.16.16,0,0,0-.22,0l-.4.4A.16.16,0,0,1,27.56,118.73Z" style="fill: #363b3c;opacity: 0.43"/>
                <path d="M28.76,122.14l-1.39-1.39-.28.28a.16.16,0,0,0,0,.23l1.27,1.27a.16.16,0,0,1,0,.22l.4-.4A.16.16,0,0,0,28.76,122.14Z" style="fill: #363b3c;opacity: 0.43"/>
              </g>
            </g>
          </g>
          <g>
            <circle cx="54.72" cy="120.68" r="4.95" style="fill: url(#radial-gradient-7)" transform="translate(-69.31 74.04) rotate(-45)"/>
            <circle cx="55.36" cy="120.05" r="3.81" style="opacity: 0.8;mix-blend-mode: soft-light;fill: url(#radial-gradient-8)" transform="translate(-68.67 74.3) rotate(-45)"/>
            <g>
              <path d="M57.12,122.31l-1.5-1.5,1.5-1.5-1-1-1.5,1.5-1.5-1.5-.85.85a.25.25,0,0,0,0,.36l1.32,1.32-1.32,1.32a.25.25,0,0,0,0,.36l.67.67a.25.25,0,0,0,.36,0l1.32-1.32,1.32,1.32a.25.25,0,0,0,.36,0Z" style="opacity: 0.8;fill: url(#linear-gradient-5)"/>
              <path d="M52.29,119.09l1.5,1.5-1.5,1.5,1,1,1.5-1.5,1.5,1.5.85-.85a.25.25,0,0,0,0-.36l-1.32-1.32,1.32-1.32a.25.25,0,0,0,0-.36l-.67-.67a.25.25,0,0,0-.36,0l-1.32,1.32-1.32-1.32a.25.25,0,0,0-.36,0Z" style="fill: url(#linear-gradient-6)"/>
              <path d="M57.14,122.07l-1.39-1.39,1.39-1.39a.16.16,0,0,0,0-.22l-.81-.81a.16.16,0,0,0-.22,0l-1.39,1.39-1.39-1.39a.16.16,0,0,0-.22,0l-.81.81a.16.16,0,0,0,0,.22l1.39,1.39-1.39,1.39a.16.16,0,0,0,0,.22l.81.81a.16.16,0,0,0,.22,0l1.39-1.39,1.39,1.39a.16.16,0,0,0,.22,0l.81-.81A.16.16,0,0,0,57.14,122.07Z" style="fill: url(#radial-gradient-9)"/>
              <g>
                <path d="M52.94,118.66l1.27,1.27a.16.16,0,0,0,.23,0l.28-.28-1.39-1.39a.16.16,0,0,0-.22,0l-.4.4A.16.16,0,0,1,52.94,118.66Z" style="fill: #363b3c;opacity: 0.43"/>
                <path d="M55.93,118.66l.81.81a.16.16,0,0,1,0,.22l.4-.4a.16.16,0,0,0,0-.22l-.81-.81a.16.16,0,0,0-.22,0l-.4.4A.16.16,0,0,1,55.93,118.66Z" style="fill: #363b3c;opacity: 0.43"/>
                <path d="M57.14,122.07l-1.39-1.39-.28.28a.16.16,0,0,0,0,.23l1.27,1.27a.16.16,0,0,1,0,.22l.4-.4A.16.16,0,0,0,57.14,122.07Z" style="fill: #363b3c;opacity: 0.43"/>
              </g>
            </g>
          </g>
          <g>
            <circle cx="54.72" cy="111.21" r="1.19" style="fill: #2c466f"/>
            <path d="M55.29,110.17l.07,0a.79.79,0,0,1,.18.14l-1.48,1.86-.13-.1-.1-.09Z" style="fill: #2c466f"/>
          </g>
          <g>
            <circle cx="40.55" cy="111.21" r="1.19" style="fill: #2c466f"/>
            <path d="M41.12,110.17l.07,0a.79.79,0,0,1,.18.14L39.9,112.2l-.13-.1-.1-.09Z" style="fill: #2c466f"/>
          </g>
          <g>
            <circle cx="26.39" cy="111.21" r="1.19" style="fill: #2c466f"/>
            <path d="M27,110.17l.07,0a.79.79,0,0,1,.18.14l-1.48,1.86-.13-.1-.1-.09Z" style="fill: #2c466f"/>
          </g>
        </g>
        <g>
          <rect height="14.1" style="fill: #78b4e3" transform="translate(-79.44 100.31) rotate(-90)" width="27.87" x="-3.5" y="82.83"/>
          <rect height="9.16" style="fill: #1f3354" transform="translate(-79.54 99.58) rotate(-90)" width="1.47" x="9.28" y="84.98"/>
          <rect height="27.87" style="fill: #5b6cae" width="1.91" x="1.48" y="75.94"/>
          <path d="M22.34,103.81V75.94H17.48v27.87Z" style="fill: #5b6cae"/>
          <g>
            <circle cx="10.08" cy="96.62" r="4.95" style="fill: url(#radial-gradient-10)" transform="translate(-65.37 35.42) rotate(-45)"/>
            <circle cx="10.71" cy="97.25" r="3.81" style="opacity: 0.8;mix-blend-mode: soft-light;fill: url(#radial-gradient-11)" transform="translate(-65.63 36.06) rotate(-45)"/>
            <g>
              <path d="M8.44,99l1.5-1.5,1.5,1.5,1-1L11,96.49l1.5-1.5-.85-.85a.25.25,0,0,0-.36,0L9.94,95.46,8.62,94.14a.25.25,0,0,0-.36,0l-.67.67a.25.25,0,0,0,0,.36l1.32,1.32L7.6,97.81a.25.25,0,0,0,0,.36Z" style="opacity: 0.8;fill: url(#linear-gradient-7)"/>
              <path d="M11.67,94.19l-1.5,1.5-1.5-1.5-1,1,1.5,1.5-1.5,1.5.85.85a.25.25,0,0,0,.36,0l1.32-1.32,1.32,1.32a.25.25,0,0,0,.36,0l.67-.67a.25.25,0,0,0,0-.36L11.2,96.72l1.32-1.32a.25.25,0,0,0,0-.36Z" style="fill: url(#linear-gradient-8)"/>
              <path d="M8.69,99l1.39-1.39L11.47,99a.16.16,0,0,0,.22,0l.81-.81a.16.16,0,0,0,0-.22l-1.39-1.39,1.39-1.39a.16.16,0,0,0,0-.22l-.81-.81a.16.16,0,0,0-.22,0l-1.39,1.39L8.69,94.21a.16.16,0,0,0-.22,0L7.66,95a.16.16,0,0,0,0,.22L9,96.62,7.66,98a.16.16,0,0,0,0,.22l.81.81A.16.16,0,0,0,8.69,99Z" style="fill: url(#radial-gradient-12)"/>
              <g>
                <path d="M12.1,94.84l-1.27,1.27a.16.16,0,0,0,0,.23l.28.28,1.39-1.39a.16.16,0,0,0,0-.22l-.4-.4A.16.16,0,0,1,12.1,94.84Z" style="fill: #363b3c;opacity: 0.43"/>
                <path d="M12.1,97.83l-.81.81a.16.16,0,0,1-.22,0l.4.4a.16.16,0,0,0,.22,0l.81-.81a.16.16,0,0,0,0-.22l-.4-.4A.16.16,0,0,1,12.1,97.83Z" style="fill: #363b3c;opacity: 0.43"/>
                <path d="M8.69,99l1.39-1.39-.28-.28a.16.16,0,0,0-.23,0L8.29,98.64a.16.16,0,0,1-.22,0l.4.4A.16.16,0,0,0,8.69,99Z" style="fill: #363b3c;opacity: 0.43"/>
              </g>
            </g>
          </g>
          <g>
            <circle cx="9.93" cy="82.43" r="4.95" style="fill: url(#radial-gradient-13)" transform="translate(-55.38 31.17) rotate(-45)"/>
            <circle cx="10.56" cy="83.07" r="3.81" style="opacity: 0.8;mix-blend-mode: soft-light;fill: url(#radial-gradient-14)" transform="translate(-55.64 31.8) rotate(-45)"/>
            <g>
              <path d="M8.3,84.83l1.5-1.5,1.5,1.5,1-1-1.5-1.5,1.5-1.5L11.47,80a.25.25,0,0,0-.36,0L9.8,81.27,8.48,80a.25.25,0,0,0-.36,0l-.67.67a.25.25,0,0,0,0,.36L8.77,82.3,7.45,83.62a.25.25,0,0,0,0,.36Z" style="opacity: 0.8;fill: url(#linear-gradient-9)"/>
              <path d="M11.52,80,10,81.5,8.53,80l-1,1L9,82.53,7.5,84l.85.85a.25.25,0,0,0,.36,0L10,83.56l1.32,1.32a.25.25,0,0,0,.36,0l.67-.67a.25.25,0,0,0,0-.36l-1.32-1.32,1.32-1.32a.25.25,0,0,0,0-.36Z" style="fill: url(#linear-gradient-10)"/>
              <path d="M8.54,84.85l1.39-1.39,1.39,1.39a.16.16,0,0,0,.22,0l.81-.81a.16.16,0,0,0,0-.22L11,82.43,12.35,81a.16.16,0,0,0,0-.22L11.54,80a.16.16,0,0,0-.22,0L9.93,81.41,8.54,80a.16.16,0,0,0-.22,0l-.81.81a.16.16,0,0,0,0,.22L8.9,82.43,7.51,83.82a.16.16,0,0,0,0,.22l.81.81A.16.16,0,0,0,8.54,84.85Z" style="fill: url(#radial-gradient-15)"/>
              <g>
                <path d="M11.95,80.65l-1.27,1.27a.16.16,0,0,0,0,.23l.28.28L12.35,81a.16.16,0,0,0,0-.22l-.4-.4A.16.16,0,0,1,11.95,80.65Z" style="fill: #363b3c;opacity: 0.43"/>
                <path d="M11.95,83.65l-.81.81a.16.16,0,0,1-.22,0l.4.4a.16.16,0,0,0,.22,0l.81-.81a.16.16,0,0,0,0-.22l-.4-.4A.16.16,0,0,1,11.95,83.65Z" style="fill: #363b3c;opacity: 0.43"/>
                <path d="M8.54,84.85l1.39-1.39-.28-.28a.16.16,0,0,0-.23,0L8.15,84.45a.16.16,0,0,1-.22,0l.4.4A.16.16,0,0,0,8.54,84.85Z" style="fill: #363b3c;opacity: 0.43"/>
              </g>
            </g>
          </g>
          <g>
            <circle cx="19.48" cy="96.64" r="1.19" style="fill: #2c466f"/>
            <path d="M20.51,97.21l0,.07a.79.79,0,0,1-.14.18L18.48,96l.1-.13.09-.1Z" style="fill: #2c466f"/>
          </g>
          <g>
            <circle cx="19.48" cy="82.48" r="1.19" style="fill: #2c466f"/>
            <path d="M20.51,83l0,.07a.79.79,0,0,1-.14.18l-1.86-1.48.1-.13.09-.1Z" style="fill: #2c466f"/>
          </g>
        </g>
        <g>
          <rect height="14.1" style="fill: #78b4e3" transform="translate(205.43 -27.14) rotate(90)" width="27.87" x="102.35" y="82.09"/>
          <rect height="9.16" style="fill: #1f3354" transform="translate(206.16 -27.24) rotate(90)" width="1.47" x="115.97" y="84.88"/>
          <rect height="27.87" style="fill: #5b6cae" width="1.91" x="123.34" y="75.21"/>
          <path d="M104.38,75.21v27.87h4.86V75.21Z" style="fill: #5b6cae"/>
          <g>
            <circle cx="116.65" cy="82.4" r="4.95" style="fill: url(#radial-gradient-16)" transform="translate(-24.1 106.62) rotate(-45)"/>
            <circle cx="116.01" cy="81.77" r="3.81" style="opacity: 0.8;mix-blend-mode: soft-light;fill: url(#radial-gradient-17)" transform="translate(-23.84 105.98) rotate(-45)"/>
            <g>
              <path d="M118.28,80l-1.5,1.5-1.5-1.5-1,1,1.5,1.5-1.5,1.5.85.85a.25.25,0,0,0,.36,0l1.32-1.32,1.32,1.32a.25.25,0,0,0,.36,0l.67-.67a.25.25,0,0,0,0-.36l-1.32-1.32,1.32-1.32a.25.25,0,0,0,0-.36Z" style="opacity: 0.8;fill: url(#linear-gradient-11)"/>
              <path d="M115.05,84.83l1.5-1.5,1.5,1.5,1-1-1.5-1.5,1.5-1.5-.85-.85a.25.25,0,0,0-.36,0l-1.32,1.32L115.23,80a.25.25,0,0,0-.36,0l-.67.67a.25.25,0,0,0,0,.36l1.32,1.32-1.32,1.32a.25.25,0,0,0,0,.36Z" style="fill: url(#linear-gradient-12)"/>
              <path d="M118,80l-1.39,1.39L115.26,80a.16.16,0,0,0-.22,0l-.81.81a.16.16,0,0,0,0,.22l1.39,1.39-1.39,1.39a.16.16,0,0,0,0,.22l.81.81a.16.16,0,0,0,.22,0l1.39-1.39L118,84.81a.16.16,0,0,0,.22,0l.81-.81a.16.16,0,0,0,0-.22l-1.39-1.39L119.06,81a.16.16,0,0,0,0-.22l-.81-.81A.16.16,0,0,0,118,80Z" style="fill: url(#radial-gradient-18)"/>
              <g>
                <path d="M114.63,84.18l1.27-1.27a.16.16,0,0,0,0-.23l-.28-.28-1.39,1.39a.16.16,0,0,0,0,.22l.4.4A.16.16,0,0,1,114.63,84.18Z" style="fill: #363b3c;opacity: 0.43"/>
                <path d="M114.63,81.19l.81-.81a.16.16,0,0,1,.22,0l-.4-.4a.16.16,0,0,0-.22,0l-.81.81a.16.16,0,0,0,0,.22l.4.4A.16.16,0,0,1,114.63,81.19Z" style="fill: #363b3c;opacity: 0.43"/>
                <path d="M118,80l-1.39,1.39.28.28a.16.16,0,0,0,.23,0l1.27-1.27a.16.16,0,0,1,.22,0l-.4-.4A.16.16,0,0,0,118,80Z" style="fill: #363b3c;opacity: 0.43"/>
              </g>
            </g>
          </g>
          <g>
            <circle cx="116.79" cy="96.59" r="4.95" style="fill: url(#radial-gradient-19)" transform="translate(-34.09 110.87) rotate(-45)"/>
            <circle cx="116.16" cy="95.95" r="3.81" style="opacity: 0.8;mix-blend-mode: soft-light;fill: url(#radial-gradient-20)" transform="translate(-33.83 110.24) rotate(-45)"/>
            <g>
              <path d="M118.42,94.19l-1.5,1.5-1.5-1.5-1,1,1.5,1.5-1.5,1.5.85.85a.25.25,0,0,0,.36,0l1.32-1.32,1.32,1.32a.25.25,0,0,0,.36,0l.67-.67a.25.25,0,0,0,0-.36L118,96.72l1.32-1.32a.25.25,0,0,0,0-.36Z" style="opacity: 0.8;fill: url(#linear-gradient-13)"/>
              <path d="M115.2,99l1.5-1.5,1.5,1.5,1-1-1.5-1.5,1.5-1.5-.85-.85a.25.25,0,0,0-.36,0l-1.32,1.32-1.32-1.32a.25.25,0,0,0-.36,0l-.67.67a.25.25,0,0,0,0,.36l1.32,1.32-1.32,1.32a.25.25,0,0,0,0,.36Z" style="fill: url(#linear-gradient-14)"/>
              <path d="M118.18,94.17l-1.39,1.39-1.39-1.39a.16.16,0,0,0-.22,0l-.81.81a.16.16,0,0,0,0,.22l1.39,1.39L114.38,98a.16.16,0,0,0,0,.22l.81.81a.16.16,0,0,0,.22,0l1.39-1.39L118.18,99a.16.16,0,0,0,.22,0l.81-.81a.16.16,0,0,0,0-.22l-1.39-1.39,1.39-1.39a.16.16,0,0,0,0-.22l-.81-.81A.16.16,0,0,0,118.18,94.17Z" style="fill: url(#radial-gradient-21)"/>
              <g>
                <path d="M114.77,98.37,116,97.1a.16.16,0,0,0,0-.23l-.28-.28L114.38,98a.16.16,0,0,0,0,.22l.4.4A.16.16,0,0,1,114.77,98.37Z" style="fill: #363b3c;opacity: 0.43"/>
                <path d="M114.77,95.37l.81-.81a.16.16,0,0,1,.22,0l-.4-.4a.16.16,0,0,0-.22,0l-.81.81a.16.16,0,0,0,0,.22l.4.4A.16.16,0,0,1,114.77,95.37Z" style="fill: #363b3c;opacity: 0.43"/>
                <path d="M118.18,94.17l-1.39,1.39.28.28a.16.16,0,0,0,.23,0l1.27-1.27a.16.16,0,0,1,.22,0l-.4-.4A.16.16,0,0,0,118.18,94.17Z" style="fill: #363b3c;opacity: 0.43"/>
              </g>
            </g>
          </g>
          <g>
            <circle cx="107.24" cy="82.38" r="1.19" style="fill: #2c466f"/>
            <path d="M106.21,81.81l0-.07a.79.79,0,0,1,.14-.18L108.24,83l-.1.13-.09.1Z" style="fill: #2c466f"/>
          </g>
          <g>
            <circle cx="107.24" cy="96.55" r="1.19" style="fill: #2c466f"/>
            <path d="M106.21,96l0-.07a.79.79,0,0,1,.14-.18l1.86,1.48-.1.13-.09.1Z" style="fill: #2c466f"/>
          </g>
        </g>
      </g>
    </g>
    <g data-name="Layer 5" id="Layer_5">
      <rect height="8.2" style="fill: #a9acab" width="15.06" x="26.9" y="96.12"/>
      <rect height="1.02" style="fill: #211f1b" width="4.45" x="32.27" y="96.89"/>
      <rect height="1.02" style="fill: #211f1b" width="4.45" x="32.27" y="102.5"/>
      <polyline points="70.05 101.93 70.05 104.8 75.24 109.99 94.14 109.99 94.14 102.46" style="fill: none;stroke: #fff;stroke-miterlimit: 10;stroke-width: 0.6000000000000001px"/>
      <polyline points="75.33 86.53 62.67 86.53 62.67 65.67 96.3 65.67 96.3 86.53 87.32 86.53" style="fill: none;stroke: #fff;stroke-miterlimit: 10;stroke-width: 0.6000000000000001px"/>
      <polyline points="31.44 82 31.44 85.17 36.5 90.22 54.92 90.22 54.92 83.3" style="fill: none;stroke: #fff;stroke-miterlimit: 10;stroke-width: 0.6000000000000001px"/>
      <path d="M89.18,68.74H91.9a1.62,1.62,0,0,1,.72.23,1.82,1.82,0,0,1,.78,1.27v11.5a2.8,2.8,0,0,1-1.9,1.9H89.18Z" style="fill: #b4b194"/>
      <rect height="2.29" style="fill: #eae3d2" width="2.42" x="71.73" y="74.4"/>
      <rect height="6.13" style="fill: #dcd8cd" width="3.41" x="55.21" y="75.11"/>
      <rect height="6.03" style="fill: #dcd8cd" width="4.97" x="26.76" y="75.25"/>
      <circle cx="30.31" cy="77.17" r="2.21" style="fill: #695737"/>
      <circle cx="55.63" cy="77.79" r="2.21" style="fill: #695737"/>
      <polygon points="54.48 65.89 47.52 65.89 47.53 65.9 47.52 65.89 36.16 65.89 31.24 70.81 31.24 83.93 36.73 89.42 53.73 89.42 55.21 87.94 55.21 72.97 55.39 72.97 55.63 72.73 55.63 67.04 54.48 65.89" style="fill: #5d5d5e"/>
      <rect height="7.38" style="fill: #fff" width="7.78" x="101.27" y="25.24"/>
      <rect height="7.38" style="fill: #fff" width="7.78" x="112.86" y="25.24"/>
      <ellipse cx="105.08" cy="28.58" rx="2.83" ry="3.17" style="fill: #ac925d"/>
      <ellipse cx="117.27" cy="28.58" rx="2.83" ry="3.17" style="fill: #ac925d"/>
      <rect height="12.88" style="fill: #f8f8f4" width="1.79" x="43.17" y="43.58"/>
      <rect height="12.88" style="fill: #f8f8f4" width="1.79" x="50.81" y="43.58"/>
      <rect height="12.88" style="fill: #f8f8f4" width="1.79" x="58.15" y="43.58"/>
      <rect height="12.88" style="fill: #f8f8f4" width="1.79" x="65.31" y="43.58"/>
      <rect height="12.88" style="fill: #f8f8f4" width="1.79" x="72.48" y="43.58"/>
      <rect height="12.88" style="fill: #f8f8f4" width="1.79" x="79.88" y="43.58"/>
      <rect height="12.88" style="fill: #f8f8f4" width="1.79" x="87.06" y="43.58"/>
      <circle cx="40.54" cy="43.77" r="1.75" style="fill: none;stroke: #6d604f;stroke-miterlimit: 10"/>
      <circle cx="47.91" cy="43.77" r="1.75" style="fill: none;stroke: #6d604f;stroke-miterlimit: 10"/>
      <circle cx="55.28" cy="43.77" r="1.75" style="fill: none;stroke: #6d604f;stroke-miterlimit: 10"/>
      <circle cx="62.65" cy="43.77" r="1.75" style="fill: none;stroke: #6d604f;stroke-miterlimit: 10"/>
      <circle cx="70.02" cy="43.77" r="1.75" style="fill: none;stroke: #6d604f;stroke-miterlimit: 10"/>
      <circle cx="77.39" cy="43.77" r="1.75" style="fill: none;stroke: #6d604f;stroke-miterlimit: 10"/>
      <circle cx="84.76" cy="43.77" r="1.75" style="fill: none;stroke: #6d604f;stroke-miterlimit: 10"/>
      <rect height="8.73" style="fill: #595752" width="57.75" x="32.08" y="33.04"/>
      <ellipse cx="61.81" cy="35" rx="6.85" ry="2.46" style="fill: #cda652"/>
      <path d="M38,31.29l-6,.85c0,.32.08.62.12.9h58.5c0-.13,0-.28.07-.42l-6.07-1.33Z" style="fill: #7c705a"/>
      <path d="M90.58,26.88H32.08A18.95,18.95,0,0,0,32,32.14l6-.85H84.58l6.07,1.33a16.34,16.34,0,0,0-.07-5.74Z" style="fill: #5d584b"/>
      <rect height="4.42" style="fill: #fff" width="46.96" x="37.87" y="26.88"/>
      <ellipse cx="58.45" cy="35.52" rx="2.37" ry="1.04" style="fill: #5e402f"/>
      <ellipse cx="65.1" cy="35.75" rx="2.37" ry="1.04" style="fill: #5e402f"/>
      <rect height="0.5" style="fill: #5e402f" width="2.69" x="60.6" y="35.5"/>
      <rect height="1.81" style="fill: #604d3b" width="56.25" x="33.15" y="41.77"/>
      <rect height="4.29" style="fill: #6d604f" width="4.58" x="34.87" y="55.88"/>
      <circle cx="44.46" cy="58.02" r="2.23" style="fill: #8e8176"/>
      <circle cx="51.71" cy="57.77" r="2.23" style="fill: #8e8176"/>
      <circle cx="59.04" cy="57.77" r="2.23" style="fill: #8e8176"/>
      <circle cx="66.21" cy="57.77" r="2.23" style="fill: #8e8176"/>
      <circle cx="73.41" cy="58.02" r="2.23" style="fill: #8e8176"/>
      <circle cx="80.78" cy="58.02" r="2.23" style="fill: #8e8176"/>
      <circle cx="87.96" cy="58.02" r="2.23" style="fill: #8e8176"/>
      <path d="M95.19,0V18H92V21.9a2.29,2.29,0,0,1-2.12,1.39,2.32,2.32,0,0,1-2.19-2V18.33H84.56V0H82.69V18.33H82.4v5.39H71.58V0H69.52V19.45H55V0H53.21V23.72H42.29V18.33H42V0H40.13V18.33H37v2.91a2.32,2.32,0,0,1-2.19,2,2.29,2.29,0,0,1-2.12-1.39V18H29.5V0H27.42V48.15H29.5V26.85H95.19v21.3h2.08V0Z" style="fill: #303030"/>
      <rect height="6.33" style="fill: #606160" width="11.17" x="105.58" y="25.42"/>
      <polyline points="109.65 24.58 101.77 24.58 100.46 25.9 100.46 32.62 102.02 34.18 109.52 34.18" style="fill: none;stroke: #fff;stroke-miterlimit: 10;stroke-width: 0.6000000000000001px"/>
      <polyline points="112.86 34.05 121.46 34.05 121.46 24.58 112.99 24.58" style="fill: none;stroke: #fff;stroke-linecap: round;stroke-miterlimit: 10;stroke-width: 0.6000000000000001px"/>
      <rect height="7.38" style="fill: #fff" width="7.78" x="101.48" y="36.58"/>
      <rect height="7.38" style="fill: #fff" width="7.78" x="113.07" y="36.58"/>
      <ellipse cx="105.29" cy="39.92" rx="2.83" ry="3.17" style="fill: #ac925d"/>
      <ellipse cx="117.48" cy="39.92" rx="2.83" ry="3.17" style="fill: #ac925d"/>
      <rect height="6.33" style="fill: #606160" width="11.17" x="105.79" y="36.76"/>
      <polyline points="109.85 35.92 101.98 35.92 100.67 37.23 100.67 43.96 102.23 45.52 109.73 45.52" style="fill: none;stroke: #fff;stroke-miterlimit: 10;stroke-width: 0.6000000000000001px"/>
      <polyline points="113.07 45.39 121.67 45.39 121.67 35.92 113.2 35.92" style="fill: none;stroke: #fff;stroke-linecap: round;stroke-miterlimit: 10;stroke-width: 0.6000000000000001px"/>
      <rect height="7.38" style="fill: #fff" width="7.78" x="101.48" y="48.11"/>
      <rect height="7.38" style="fill: #fff" width="7.78" x="113.07" y="48.11"/>
      <ellipse cx="105.29" cy="51.45" rx="2.83" ry="3.17" style="fill: #ac925d"/>
      <ellipse cx="117.48" cy="51.45" rx="2.83" ry="3.17" style="fill: #ac925d"/>
      <rect height="6.33" style="fill: #606160" width="11.17" x="105.79" y="48.29"/>
      <polyline points="109.85 47.45 101.98 47.45 100.67 48.77 100.67 55.49 102.23 57.05 109.73 57.05" style="fill: none;stroke: #fff;stroke-miterlimit: 10;stroke-width: 0.6000000000000001px"/>
      <polyline points="113.07 56.92 121.67 56.92 121.67 47.45 113.2 47.45" style="fill: none;stroke: #fff;stroke-linecap: round;stroke-miterlimit: 10;stroke-width: 0.6000000000000001px"/>
      <rect height="7.38" style="fill: #fff" width="7.78" x="101.48" y="59.39"/>
      <rect height="7.38" style="fill: #fff" width="7.78" x="113.07" y="59.39"/>
      <ellipse cx="105.29" cy="62.73" rx="2.83" ry="3.17" style="fill: #ac925d"/>
      <ellipse cx="117.48" cy="62.73" rx="2.83" ry="3.17" style="fill: #ac925d"/>
      <rect height="6.33" style="fill: #606160" width="11.17" x="105.79" y="59.57"/>
      <polyline points="109.85 58.73 101.98 58.73 100.67 60.05 100.67 66.77 102.23 68.33 109.73 68.33" style="fill: none;stroke: #fff;stroke-miterlimit: 10;stroke-width: 0.6000000000000001px"/>
      <polyline points="113.07 68.2 121.67 68.2 121.67 58.73 113.2 58.73" style="fill: none;stroke: #fff;stroke-linecap: round;stroke-miterlimit: 10;stroke-width: 0.6000000000000001px"/>
      <circle cx="99.56" cy="30.98" r="0.43" style="fill: #893e2b"/>
      <circle cx="99.46" cy="38.06" r="0.43" style="fill: #893e2b"/>
      <circle cx="101.7" cy="37.96" r="0.43" style="fill: #534338"/>
      <circle cx="101.54" cy="40.1" r="0.43" style="fill: #893e2b"/>
      <circle cx="116.84" cy="34.05" r="0.43" style="fill: #893e2b"/>
      <rect height="7.38" style="fill: #fff" width="7.78" x="4.07" y="25.7"/>
      <rect height="7.38" style="fill: #fff" width="7.78" x="15.66" y="25.7"/>
      <ellipse cx="7.88" cy="29.04" rx="2.83" ry="3.17" style="fill: #ac925d"/>
      <ellipse cx="20.07" cy="29.04" rx="2.83" ry="3.17" style="fill: #ac925d"/>
      <rect height="6.33" style="fill: #606160" width="11.17" x="8.38" y="25.88"/>
      <polyline points="15.66 34.51 24.26 34.51 24.26 25.04 15.79 25.04" style="fill: none;stroke: #fff;stroke-linecap: round;stroke-miterlimit: 10;stroke-width: 0.6000000000000001px"/>
      <rect height="7.38" style="fill: #fff" width="7.78" x="4.28" y="37.04"/>
      <rect height="7.38" style="fill: #fff" width="7.78" x="15.87" y="37.04"/>
      <ellipse cx="8.09" cy="40.38" rx="2.83" ry="3.17" style="fill: #ac925d"/>
      <ellipse cx="20.28" cy="40.38" rx="2.83" ry="3.17" style="fill: #ac925d"/>
      <rect height="6.33" style="fill: #606160" width="11.17" x="8.59" y="37.21"/>
      <polyline points="15.87 45.85 24.47 45.85 24.47 36.38 16 36.38" style="fill: none;stroke: #fff;stroke-linecap: round;stroke-miterlimit: 10;stroke-width: 0.6000000000000001px"/>
      <rect height="7.38" style="fill: #fff" width="7.78" x="4.28" y="48.57"/>
      <rect height="7.38" style="fill: #fff" width="7.78" x="15.87" y="48.57"/>
      <ellipse cx="8.09" cy="51.91" rx="2.83" ry="3.17" style="fill: #ac925d"/>
      <ellipse cx="20.28" cy="51.91" rx="2.83" ry="3.17" style="fill: #ac925d"/>
      <rect height="6.33" style="fill: #606160" width="11.17" x="8.59" y="48.74"/>
      <polyline points="12.66 47.91 4.78 47.91 3.47 49.22 3.47 55.95 5.03 57.51 12.53 57.51" style="fill: none;stroke: #fff;stroke-miterlimit: 10;stroke-width: 0.6000000000000001px"/>
      <polyline points="15.87 57.38 24.47 57.38 24.47 47.91 16 47.91" style="fill: none;stroke: #fff;stroke-linecap: round;stroke-miterlimit: 10;stroke-width: 0.6000000000000001px"/>
      <rect height="7.38" style="fill: #fff" width="7.78" x="4.28" y="59.85"/>
      <rect height="7.38" style="fill: #fff" width="7.78" x="15.87" y="59.85"/>
      <ellipse cx="8.09" cy="63.19" rx="2.83" ry="3.17" style="fill: #ac925d"/>
      <ellipse cx="20.28" cy="63.19" rx="2.83" ry="3.17" style="fill: #ac925d"/>
      <rect height="6.33" style="fill: #606160" width="11.17" x="8.59" y="60.03"/>
      <polyline points="12.66 59.19 4.78 59.19 3.47 60.51 3.47 67.23 5.03 68.79 12.53 68.79" style="fill: none;stroke: #fff;stroke-miterlimit: 10;stroke-width: 0.6000000000000001px"/>
      <polyline points="15.87 68.66 24.47 68.66 24.47 59.19 16 59.19" style="fill: none;stroke: #fff;stroke-linecap: round;stroke-miterlimit: 10;stroke-width: 0.6000000000000001px"/>
      <circle cx="19.64" cy="34.51" r="0.43" style="fill: #893e2b"/>
      <circle cx="27.33" cy="93.63" r="0.43" style="fill: #571a1a"/>
      <circle cx="30.05" cy="94.49" r="0.43" style="fill: #571a1a"/>
      <circle cx="27.33" cy="92.02" r="0.43" style="fill: #571a1a"/>
      <circle cx="30.05" cy="91.74" r="0.43" style="fill: #571a1a"/>
      <circle cx="27.41" cy="89.3" r="0.43" style="fill: #571a1a"/>
      <circle cx="29.62" cy="89.3" r="0.43" style="fill: #571a1a"/>
      <circle cx="27.19" cy="86.44" r="0.43" style="fill: #571a1a"/>
      <circle cx="29.62" cy="86.44" r="0.68" style="fill: #571a1a"/>
      <circle cx="57" cy="82.42" r="0.68" style="fill: #571a1a"/>
      <circle cx="57.4" cy="84.91" r="0.68" style="fill: #571a1a"/>
      <circle cx="27.41" cy="83.07" r="0.43" style="fill: #571a1a"/>
      <circle cx="29.62" cy="83.07" r="0.43" style="fill: #571a1a"/>
      <circle cx="27.19" cy="73.38" r="0.43" style="fill: #571a1a"/>
      <circle cx="29.74" cy="73.38" r="0.43" style="fill: #571a1a"/>
      <ellipse cx="42.53" cy="76.38" rx="11.41" ry="11.66" style="fill: #aeaba8"/>
      <path d="M48.56,84.37l.25-16a12.69,12.69,0,0,1,3.75,7.91,13.66,13.66,0,0,1-4,8.07Z" style="fill: #2e2f31"/>
      <rect height="6.13" style="fill: #dcd8cd" width="3.41" x="94.14" y="94.83"/>
      <rect height="6.03" style="fill: #dcd8cd" width="4.97" x="65.69" y="94.96"/>
      <circle cx="69.24" cy="96.88" r="2.21" style="fill: #695737"/>
      <circle cx="94.56" cy="97.51" r="2.21" style="fill: #695737"/>
      <polygon points="93.41 86.53 86.44 86.53 86.46 86.54 86.44 86.53 75.09 86.53 70.17 91.26 70.17 103.86 75.66 109.13 92.66 109.13 94.14 107.72 94.14 93.33 94.32 93.33 94.56 93.1 94.56 87.63 93.41 86.53" style="fill: #5d5d5e"/>
      <ellipse cx="81.46" cy="96.6" rx="11.41" ry="11.2" style="fill: #aeaba8"/>
      <path d="M87.49,104.28l.25-15.35a12.24,12.24,0,0,1,2.65,3.63,11.83,11.83,0,0,1,1.1,4,12.75,12.75,0,0,1-1.07,3.7A13.22,13.22,0,0,1,87.49,104.28Z" style="fill: #2e2f31"/>
      <circle cx="95.62" cy="93.41" r="0.68" style="fill: #571a1a"/>
      <circle cx="95.36" cy="88.1" r="0.68" style="fill: #571a1a"/>
      <circle cx="95.16" cy="90.91" r="0.68" style="fill: #571a1a"/>
      <circle cx="94.94" cy="84.72" r="0.68" style="fill: #571a1a"/>
      <circle cx="95.36" cy="75.97" r="0.68" style="fill: #571a1a"/>
      <circle cx="72.05" cy="85.85" r="0.68" style="fill: #571a1a"/>
      <rect height="18.86" rx="0.92" ry="0.92" style="fill: #4e535e" width="15.88" x="73.46" y="66.54"/>
      <rect height="4.86" style="fill: #ebeff4" width="8.87" x="63.65" y="66.93"/>
      <ellipse cx="67.57" cy="69.07" rx="3.42" ry="2.14" style="fill: #685235"/>
      <rect height="1.78" style="fill: #b5a888" width="8.56" x="64.9" y="68.11"/>
      <rect height="1.78" style="fill: #ede7e1" width="2.91" x="64.9" y="68.11"/>
      <rect height="4.86" style="fill: #ebeff4" width="8.87" x="63.65" y="79.86"/>
      <ellipse cx="67.57" cy="82.01" rx="3.42" ry="2.14" style="fill: #685235"/>
      <rect height="1.78" style="fill: #b5a888" width="8.56" x="64.9" y="81.05"/>
      <rect height="1.78" style="fill: #ede7e1" width="2.91" x="64.9" y="81.05"/>
      <rect height="2.35" style="fill: #aeaba8" width="1.48" x="50.24" y="99.85"/>
      <rect height="2.35" style="fill: #aeaba8" width="1.32" x="45.41" y="99.85"/>
      <rect height="0.19" style="fill: #e2c89c" width="0.55" x="46.72" y="99.66"/>
      <rect height="0.19" style="fill: #e2c89c" width="0.56" x="49.68" y="99.66"/>
      <rect height="0.14" style="fill: #e2c89c" width="0.56" x="49.68" y="102.2"/>
      <rect height="0.14" style="fill: #e2c89c" width="0.55" x="46.72" y="102.2"/>
      <rect height="2.35" style="fill: #e2c89c" width="0.56" x="49.68" y="99.85"/>
      <rect height="2.35" style="fill: #e2c89c" width="0.55" x="46.72" y="99.85"/>
      <polygon points="49.68 99.85 49.68 99.66 47.27 99.66 47.27 99.85 47.44 99.85 47.44 102.2 47.27 102.2 47.27 102.34 49.68 102.34 49.68 102.2 49.68 99.85"/>
      <rect height="2.35" style="fill: #f5f5e8" width="0.17" x="47.27" y="99.85"/>
      <rect height="6.62" style="fill: #615f5d" width="4.86" x="27.41" y="96.89"/>
      <rect height="6.62" style="fill: #615f5d" width="4.86" x="36.69" y="96.89"/>
      <rect height="2.59" style="fill: #211f1b" width="9.39" x="29.66" y="99.04"/>
      <rect height="1.2" style="fill: #e2d6bc" width="1.19" x="30.25" y="99.76"/>
      <circle cx="32.24" cy="100.43" r="0.48" style="fill: #e2d6bc"/>
      <rect height="1.2" style="fill: #e2d6bc" transform="translate(75.63 200.72) rotate(-180)" width="1.19" x="37.22" y="99.76"/>
      <circle cx="36.43" cy="100.29" r="0.48" style="fill: #e2d6bc"/>
      <circle cx="115.24" cy="13.35" r="5.29" style="fill: none;stroke: #fff;stroke-miterlimit: 10"/>
      <circle cx="116.65" cy="120.64" r="5.29" style="fill: none;stroke: #fff;stroke-miterlimit: 10"/>
      <circle cx="9.36" cy="15.1" r="5.29" style="fill: none;stroke: #fff;stroke-miterlimit: 10"/>
      <circle cx="102.73" cy="14.69" r="2.5" style="fill: #fff"/>
      <circle cx="10.71" cy="120.83" r="5.29" style="fill: none;stroke: #fff;stroke-miterlimit: 10"/>
      <path d="M32.32,97.9h-1.2v-1h1.2a.73.73,0,0,1,.21.47A.74.74,0,0,1,32.32,97.9Z" style="fill: #615f5d"/>
      <path d="M32.32,103.51h-1.2v-1h1.2a.73.73,0,0,1,.21.47A.74.74,0,0,1,32.32,103.51Z" style="fill: #615f5d"/>
      <path d="M36.72,102.5h1.2v1h-1.2a.73.73,0,0,1-.21-.47A.74.74,0,0,1,36.72,102.5Z" style="fill: #615f5d"/>
      <path d="M36.72,96.89h1.2v1h-1.2a.73.73,0,0,1-.21-.47A.74.74,0,0,1,36.72,96.89Z" style="fill: #615f5d"/>
      <line style="fill: none;stroke: #fff;stroke-miterlimit: 10" x1="71.95" x2="101.95" y1="119.27" y2="119.27"/>
      <rect height="4.78" style="fill: none;stroke: #fff;stroke-linecap: round;stroke-miterlimit: 10;stroke-width: 0.6000000000000001px" width="8.21" x="44.31" y="99.21"/>
      <circle cx="2.74" cy="58.5" r="0.43" style="fill: #571a1a"/>
      <circle cx="2.57" cy="51.02" r="0.43" style="fill: #571a1a"/>
      <circle cx="2.66" cy="48.74" r="0.43" style="fill: #571a1a"/>
      <circle cx="2.03" cy="45.24" r="0.43" style="fill: #571a1a"/>
      <circle cx="2.46" cy="34.51" r="0.43" style="fill: #571a1a"/>
      <circle cx="2.03" cy="24.38" r="0.43" style="fill: #571a1a"/>
      <circle cx="4.4" cy="24.38" r="0.43" style="fill: #571a1a"/>
      <circle cx="7.53" cy="24.24" r="0.43" style="fill: #571a1a"/>
      <circle cx="4.83" cy="34.51" r="0.43" style="fill: #571a1a"/>
      <circle cx="6.78" cy="34.64" r="0.43" style="fill: #571a1a"/>
      <circle cx="8.59" cy="34.59" r="0.43" style="fill: #571a1a"/>
      <circle cx="10.79" cy="34.73" r="0.43" style="fill: #571a1a"/>
      <circle cx="3.61" cy="46.54" r="0.43" style="fill: #571a1a"/>
      <circle cx="5.9" cy="46.54" r="0.43" style="fill: #571a1a"/>
      <circle cx="8.66" cy="46.1" r="0.43" style="fill: #571a1a"/>
      <circle cx="10.82" cy="46.1" r="0.43" style="fill: #571a1a"/>
      <circle cx="4.9" cy="58.4" r="0.43" style="fill: #571a1a"/>
      <circle cx="6.96" cy="58.4" r="0.43" style="fill: #571a1a"/>
      <circle cx="9.09" cy="58.4" r="0.43" style="fill: #571a1a"/>
      <polyline points="12.66 36.38 4.78 36.38 3.47 37.69 3.47 44.42 5.03 45.98 12.53 45.98" style="fill: none;stroke: #fff;stroke-miterlimit: 10;stroke-width: 0.6000000000000001px"/>
      <polyline points="12.45 25.04 4.57 25.04 3.26 26.35 3.26 33.08 4.82 34.64 12.32 34.64" style="fill: none;stroke: #fff;stroke-miterlimit: 10;stroke-width: 0.6000000000000001px"/>
    </g>
    <g data-name="Layer 8" id="Layer_8">
      <g>
        <path d="M7.39,107.07l.36.74a.73.73,0,0,1,0,.65l-.36.73a.4.4,0,0,1-.39.24.42.42,0,0,1-.24-.07.45.45,0,0,1-.16-.17l-.36-.73a.71.71,0,0,1-.07-.32.72.72,0,0,1,.07-.33l.36-.74a.41.41,0,0,1,.39-.24A.4.4,0,0,1,7.39,107.07Zm-.5.16-.34.69a.49.49,0,0,0,0,.2.47.47,0,0,0,0,.21l.35.7a.1.1,0,0,0,.1.06.1.1,0,0,0,.1-.06l.35-.7a.48.48,0,0,0,0-.21.44.44,0,0,0,0-.2l-.34-.69a.11.11,0,0,0-.1-.08A.12.12,0,0,0,6.89,107.24Z" style="fill: #fff"/>
        <path d="M8.27,108.94V107a.16.16,0,0,1,0-.12.16.16,0,0,1,.12,0,.17.17,0,0,1,.16.16v1.94a.15.15,0,0,0,0,.11.16.16,0,0,0,.12,0h.67a.16.16,0,0,0,.12,0,.15.15,0,0,0,0-.11V107a.16.16,0,0,1,0-.12.16.16,0,0,1,.23,0,.16.16,0,0,1,0,.12v1.93a.48.48,0,0,1-.15.35.47.47,0,0,1-.35.15H8.76a.49.49,0,0,1-.49-.49Z" style="fill: #fff"/>
        <path d="M10.36,107.28v-.44H12v.45a.17.17,0,0,1-.16.16.16.16,0,0,1-.12,0,.16.16,0,0,1,0-.12v-.12h-.33v2.1a.17.17,0,0,1-.16.16.16.16,0,0,1-.12,0,.16.16,0,0,1,0-.12v-2.1h-.33v.12a.16.16,0,1,1-.33,0Z" style="fill: #fff"/>
        <path d="M13.79,109.43H12.3v-1.13a.32.32,0,0,1,.1-.23.31.31,0,0,1,.23-.1h1v-.8H12.45a.16.16,0,0,1-.12,0,.17.17,0,0,1,0-.23.16.16,0,0,1,.12,0h1.17a.32.32,0,0,1,.23.1.31.31,0,0,1,.1.23v.8a.32.32,0,0,1-.1.24.32.32,0,0,1-.23.1h-1v.8h1.16a.16.16,0,0,1,0,.33Z" style="fill: #fff"/>
      </g>
      <g>
        <path d="M7.39,71.07l.36.74a.73.73,0,0,1,0,.65l-.36.73a.4.4,0,0,1-.39.24.42.42,0,0,1-.24-.07.45.45,0,0,1-.16-.17l-.36-.73a.71.71,0,0,1-.07-.32.72.72,0,0,1,.07-.33l.36-.74A.41.41,0,0,1,7,70.83.4.4,0,0,1,7.39,71.07Zm-.5.16-.34.69a.49.49,0,0,0,0,.2.47.47,0,0,0,0,.21l.35.7a.1.1,0,0,0,.1.06A.1.1,0,0,0,7.1,73l.35-.7a.48.48,0,0,0,0-.21.44.44,0,0,0,0-.2l-.34-.69a.11.11,0,0,0-.1-.08A.12.12,0,0,0,6.89,71.24Z" style="fill: #fff"/>
        <path d="M8.27,72.94V71a.16.16,0,0,1,0-.12.16.16,0,0,1,.12,0A.17.17,0,0,1,8.6,71v1.94a.15.15,0,0,0,0,.11.16.16,0,0,0,.12,0h.67a.16.16,0,0,0,.12,0,.15.15,0,0,0,0-.11V71a.16.16,0,0,1,0-.12.16.16,0,0,1,.23,0,.16.16,0,0,1,0,.12v1.93a.48.48,0,0,1-.15.35.47.47,0,0,1-.35.15H8.76a.49.49,0,0,1-.49-.49Z" style="fill: #fff"/>
        <path d="M10.36,71.28v-.44H12v.45a.17.17,0,0,1-.16.16.16.16,0,0,1-.12,0,.16.16,0,0,1,0-.12v-.12h-.33v2.1a.17.17,0,0,1-.16.16.16.16,0,0,1-.12,0,.16.16,0,0,1,0-.12v-2.1h-.33v.12a.16.16,0,1,1-.33,0Z" style="fill: #fff"/>
        <path d="M12.22,73.1h.5V71.16h-.5a.16.16,0,1,1,0-.33H13V73.1h.33v-.68a.16.16,0,1,1,.33,0v.85a.16.16,0,0,1-.16.16H12.22a.16.16,0,0,1-.12,0,.16.16,0,0,1,0-.12.15.15,0,0,1,0-.11A.16.16,0,0,1,12.22,73.1Z" style="fill: #fff"/>
      </g>
      <g>
        <path d="M31.57,95.6h.59a.16.16,0,0,1,.12,0,.16.16,0,0,1,0,.23.16.16,0,0,1-.12,0h-.61a.47.47,0,0,1-.24-.07.45.45,0,0,1-.17-.17L30.76,95a.74.74,0,0,1-.08-.32.67.67,0,0,1,.07-.32l.38-.72a.51.51,0,0,1,.17-.18.4.4,0,0,1,.22-.08h.65a.17.17,0,0,1,.16.16.16.16,0,0,1,0,.12.16.16,0,0,1-.12,0h-.62a.15.15,0,0,0-.13.09l-.36.68a.39.39,0,0,0,0,.19.42.42,0,0,0,0,.2l.35.67A.17.17,0,0,0,31.57,95.6Z" style="fill: #fff"/>
        <path d="M34.31,93.57l.36.74a.73.73,0,0,1,0,.65l-.36.73a.4.4,0,0,1-.39.24.42.42,0,0,1-.24-.07.45.45,0,0,1-.16-.17L33.16,95a.71.71,0,0,1-.07-.32.72.72,0,0,1,.07-.33l.36-.74a.41.41,0,0,1,.39-.24A.4.4,0,0,1,34.31,93.57Zm-.5.16-.34.69a.49.49,0,0,0,0,.2.47.47,0,0,0,0,.21l.35.7a.1.1,0,0,0,.1.06.1.1,0,0,0,.1-.06l.35-.7a.48.48,0,0,0,0-.21.44.44,0,0,0,0-.2L34,93.74a.11.11,0,0,0-.1-.08A.12.12,0,0,0,33.81,93.74Z" style="fill: #fff"/>
        <path d="M36.68,93.5v2.43h-.44l-.88-2v1.85a.16.16,0,1,1-.33,0V93.33h.43l.89,2V93.5a.17.17,0,0,1,.17-.17.16.16,0,0,1,.12,0A.16.16,0,0,1,36.68,93.5Z" style="fill: #fff"/>
        <path d="M37.64,95.6h.76v-.8h-1V93.33h1.16a.17.17,0,0,1,.16.16.16.16,0,0,1-.16.16h-.82v.8h.66a.33.33,0,0,1,.33.33v.8a.33.33,0,0,1-.33.33h-.76a.57.57,0,0,1-.22,0l-.25-.1a.15.15,0,0,1-.1-.16.16.16,0,0,1,0-.12.14.14,0,0,1,.11,0l.11,0,.22.09Z" style="fill: #fff"/>
      </g>
      <g>
        <path d="M46.37,97.41V95h1.16a.47.47,0,0,1,.35.15.48.48,0,0,1,.15.35v.19a.5.5,0,0,1-.49.5h-.21L48,97.31a.2.2,0,0,1,0,.1.15.15,0,0,1-.05.11.17.17,0,0,1-.26,0l-.77-1.33H46.7v1.25a.16.16,0,0,1,0,.12.16.16,0,0,1-.12,0,.16.16,0,0,1-.16-.16Zm.33-1.58h.83a.16.16,0,0,0,.16-.16v-.19a.16.16,0,0,0-.16-.16h-.83Z" style="fill: #fff"/>
        <path d="M49.85,97.41v-.68h-1V95.14A.17.17,0,0,1,49,95a.16.16,0,0,1,.12,0,.16.16,0,0,1,0,.12v1.25h.66v-1a.16.16,0,0,1,0-.12.16.16,0,0,1,.23,0,.16.16,0,0,1,0,.12v1a.16.16,0,1,1,0,.33v.69a.16.16,0,1,1-.33,0Z" style="fill: #fff"/>
      </g>
      <g>
        <path d="M27.27,61.06h.65a.45.45,0,0,1,.25.08.51.51,0,0,1,.18.19l.32.66a.77.77,0,0,1,0,.74l-.33.65a.5.5,0,0,1-.18.2.48.48,0,0,1-.26.08h-.63a.17.17,0,0,1-.16-.16.16.16,0,0,1,0-.12.16.16,0,0,1,.12,0h.17V61.39h-.17a.16.16,0,0,1-.12,0,.16.16,0,0,1,0-.12.17.17,0,0,1,.16-.16Zm.5.33v1.94h.12a.17.17,0,0,0,.16-.11l.32-.64a.52.52,0,0,0,.06-.21.44.44,0,0,0,0-.2L28,61.49a.18.18,0,0,0-.17-.1Z" style="fill: #fff"/>
        <path d="M30.6,63.49v-.68h-1V61.23a.17.17,0,0,1,.17-.17.16.16,0,0,1,.12,0,.16.16,0,0,1,0,.12v1.25h.66v-1a.16.16,0,0,1,0-.12.16.16,0,0,1,.23,0,.16.16,0,0,1,0,.12v1a.16.16,0,1,1,0,.33v.69a.16.16,0,1,1-.33,0Z" style="fill: #fff"/>
      </g>
      <g>
        <path d="M27.27,53.25h.65a.45.45,0,0,1,.25.08.51.51,0,0,1,.18.19l.32.66a.77.77,0,0,1,0,.74l-.33.65a.5.5,0,0,1-.18.2.48.48,0,0,1-.26.08h-.63a.17.17,0,0,1-.16-.16.16.16,0,0,1,0-.12.16.16,0,0,1,.12,0h.17V53.58h-.17a.16.16,0,0,1-.12,0,.16.16,0,0,1,0-.12.17.17,0,0,1,.16-.16Zm.5.33v1.94h.12a.17.17,0,0,0,.16-.11l.32-.64a.52.52,0,0,0,.06-.21.44.44,0,0,0,0-.2L28,53.68a.18.18,0,0,0-.17-.1Z" style="fill: #fff"/>
        <path d="M31,53.58v.62a.47.47,0,0,1-.13.35.49.49,0,0,1,.14.33v.64a.31.31,0,0,1-.1.23.32.32,0,0,1-.23.1H29.53a.16.16,0,1,1,0-.33h1.16v-.64a.16.16,0,0,0,0-.12.16.16,0,0,0-.12,0h-.66a.16.16,0,0,1-.12,0,.16.16,0,0,1,.12-.28h.66a.17.17,0,0,0,.16-.16v-.63H29.52a.16.16,0,1,1,0-.33h1.17a.31.31,0,0,1,.23.1A.32.32,0,0,1,31,53.58Z" style="fill: #fff"/>
      </g>
      <g>
        <path d="M98,74V72.06a.16.16,0,0,1,0-.12.16.16,0,0,1,.12,0,.17.17,0,0,1,.16.16V74a.15.15,0,0,0,0,.11.16.16,0,0,0,.12,0h.67a.16.16,0,0,0,.12,0,.15.15,0,0,0,0-.11V72.06a.16.16,0,0,1,0-.12.16.16,0,0,1,.23,0,.16.16,0,0,1,0,.12V74a.48.48,0,0,1-.15.35.47.47,0,0,1-.35.15h-.67A.49.49,0,0,1,98,74Z" style="fill: #fff"/>
        <path d="M101.93,72.22v.62a.47.47,0,0,1-.13.35.49.49,0,0,1,.14.33v.64a.31.31,0,0,1-.1.23.32.32,0,0,1-.23.1h-1.16a.16.16,0,1,1,0-.33h1.16v-.64a.16.16,0,0,0,0-.12.16.16,0,0,0-.12,0h-.66a.16.16,0,0,1-.12,0,.16.16,0,0,1,.12-.28h.66a.17.17,0,0,0,.16-.16v-.63h-1.17a.16.16,0,1,1,0-.33h1.17a.31.31,0,0,1,.23.1A.32.32,0,0,1,101.93,72.22Z" style="fill: #fff"/>
      </g>
      <g>
        <path d="M95.89,61.49h.65a.45.45,0,0,1,.25.08.51.51,0,0,1,.18.19l.32.66a.77.77,0,0,1,0,.74l-.33.65a.5.5,0,0,1-.18.2.48.48,0,0,1-.26.08h-.63a.17.17,0,0,1-.16-.16.16.16,0,0,1,0-.12.16.16,0,0,1,.12,0h.17V61.82h-.17a.16.16,0,0,1-.12,0,.16.16,0,0,1,0-.12.17.17,0,0,1,.16-.16Zm.5.33v1.94h.12a.17.17,0,0,0,.16-.11L97,63a.52.52,0,0,0,.06-.21.44.44,0,0,0,0-.2l-.34-.67a.18.18,0,0,0-.17-.1Z" style="fill: #fff"/>
        <path d="M97.57,63.75v-.8a.31.31,0,0,1,.1-.23.32.32,0,0,1,.23-.1v-1a.16.16,0,0,1,0-.12.16.16,0,0,1,.12,0h.67a.16.16,0,0,1,.16.16v1a.32.32,0,0,1,.23.09.31.31,0,0,1,.1.23v.8a.31.31,0,0,1-.1.23.32.32,0,0,1-.23.1h-1a.31.31,0,0,1-.24-.1A.32.32,0,0,1,97.57,63.75Zm.33-.8v.8h1v-.8Zm.33-1.13v.8h.34v-.8Z" style="fill: #fff"/>
      </g>
      <g>
        <path d="M95.89,51.16h.65a.45.45,0,0,1,.25.08.51.51,0,0,1,.18.19l.32.66a.77.77,0,0,1,0,.74l-.33.65a.5.5,0,0,1-.18.2.48.48,0,0,1-.26.08h-.63a.17.17,0,0,1-.16-.16.16.16,0,0,1,0-.12.16.16,0,0,1,.12,0h.17V51.49h-.17a.16.16,0,0,1-.12,0,.16.16,0,0,1,0-.12.17.17,0,0,1,.16-.16Zm.5.33v1.94h.12a.17.17,0,0,0,.16-.11l.32-.64a.52.52,0,0,0,.06-.21.44.44,0,0,0,0-.2l-.34-.67a.18.18,0,0,0-.17-.1Z" style="fill: #fff"/>
        <path d="M97.58,51.46v-.14a.16.16,0,0,1,.16-.16h1.49v1a.17.17,0,0,1-.06.13l-.6.52v.76a.16.16,0,0,1,0,.12.16.16,0,0,1-.12,0,.16.16,0,0,1-.12,0,.16.16,0,0,1,0-.12v-.83a.18.18,0,0,1,.06-.14l.61-.51v-.61h-1a.16.16,0,0,1-.16.14.16.16,0,0,1-.16-.16Z" style="fill: #fff"/>
      </g>
      <g>
        <path d="M100.57,9.68V9.59l-.34-.48v2a.16.16,0,0,1-.33,0V8.66h.42l.4.59.42-.59h.42v2.43a.16.16,0,0,1,0,.12.16.16,0,0,1-.12,0,.17.17,0,0,1-.16-.16v-2l-.33.47v.09a.16.16,0,0,1-.33,0Z" style="fill: #fff"/>
        <path d="M102.18,11l.66-2.25a.16.16,0,0,1,.17-.12.14.14,0,0,1,.15.1l.65,2.28a.18.18,0,0,1,0,0,.16.16,0,0,1,0,.12.15.15,0,0,1-.11,0,.15.15,0,0,1-.16-.12l-.13-.45h-.75l-.14.48a.1.1,0,0,1,0,.06.17.17,0,0,1-.09,0,.16.16,0,0,1-.12,0,.17.17,0,0,1,0-.12A.19.19,0,0,1,102.18,11ZM103,9.42l-.28.94h.55Z" style="fill: #fff"/>
        <path d="M104.19,11.09V8.66h1.16a.47.47,0,0,1,.35.15.48.48,0,0,1,.15.35v.19a.5.5,0,0,1-.49.5h-.21l.67,1.15a.2.2,0,0,1,0,.1.15.15,0,0,1-.05.11.17.17,0,0,1-.26,0l-.77-1.33h-.24v1.25a.16.16,0,0,1,0,.12.16.16,0,0,1-.12,0,.16.16,0,0,1-.16-.16Zm.33-1.58h.83a.16.16,0,0,0,.16-.16V9.15a.16.16,0,0,0-.16-.16h-.83Z" style="fill: #fff"/>
        <path d="M106.19,11.09V8.82a.16.16,0,0,1,0-.12.16.16,0,0,1,.28.12V9.6l1.05-.9a.18.18,0,0,1,.12,0,.15.15,0,0,1,.12,0,.17.17,0,0,1,0,.12.15.15,0,0,1-.05.11l-1.19,1,1.19,1a.13.13,0,0,1,0,.11.17.17,0,0,1,0,.12.15.15,0,0,1-.12.05.18.18,0,0,1-.12,0l-1-.9v.78a.16.16,0,0,1-.33,0Z" style="fill: #fff"/>
      </g>
      <g>
        <path d="M61.75,12V9.62a.2.2,0,0,1,.06-.15.2.2,0,0,1,.35.14V12a.19.19,0,0,0,.06.14.2.2,0,0,0,.14.06h.84a.2.2,0,0,0,.15-.06.19.19,0,0,0,.06-.14V9.62a.2.2,0,0,1,.06-.15.2.2,0,0,1,.29,0,.2.2,0,0,1,.06.15V12a.6.6,0,0,1-.18.44.59.59,0,0,1-.43.18h-.84a.62.62,0,0,1-.62-.62Z" style="fill: #fff"/>
        <path d="M66.11,12.44v-.85H64.88v-2a.21.21,0,0,1,.21-.21.2.2,0,0,1,.14.06.21.21,0,0,1,.06.15v1.56h.82V10a.2.2,0,0,1,.06-.15.2.2,0,0,1,.29,0,.2.2,0,0,1,.06.15v1.2a.21.21,0,1,1,0,.41v.86a.21.21,0,1,1-.41,0Z" style="fill: #fff"/>
      </g>
      <g>
        <path d="M67,110.31H65.84v.8h.5a.17.17,0,0,1,.16.16.16.16,0,0,1,0,.12.16.16,0,0,1-.12,0h-.5v.8H67a.17.17,0,0,1,.16.16.16.16,0,0,1,0,.12.16.16,0,0,1-.12,0H65.51V110H67a.17.17,0,0,1,.17.17.16.16,0,0,1,0,.12A.16.16,0,0,1,67,110.31Z" style="fill: #fff"/>
        <path d="M69,110.15v2.43h-.44l-.88-2v1.85a.16.16,0,1,1-.33,0V110h.43l.89,2v-1.84a.17.17,0,0,1,.17-.17.16.16,0,0,1,.12,0A.16.16,0,0,1,69,110.15Z" style="fill: #fff"/>
        <path d="M69.47,112.35l.66-2.25a.16.16,0,0,1,.17-.12.14.14,0,0,1,.15.1l.65,2.28a.18.18,0,0,1,0,0,.16.16,0,0,1,0,.12.15.15,0,0,1-.11,0,.15.15,0,0,1-.16-.12l-.13-.45h-.75l-.14.48a.1.1,0,0,1,0,.06.17.17,0,0,1-.09,0,.16.16,0,0,1-.12,0,.17.17,0,0,1,0-.12A.19.19,0,0,1,69.47,112.35Zm.82-1.61-.28.94h.55Z" style="fill: #fff"/>
      </g>
      <g>
        <path d="M23.43,107.44h.5v-1.94h-.5a.16.16,0,1,1,0-.33h.82v2.26h.33v-.68a.16.16,0,1,1,.33,0v.85a.16.16,0,0,1-.16.16H23.43a.16.16,0,0,1-.12,0,.16.16,0,0,1,0-.12.15.15,0,0,1,0-.11A.16.16,0,0,1,23.43,107.44Z" style="fill: #fff"/>
        <path d="M27.18,107.77H25.69v-1.13a.32.32,0,0,1,.1-.23.31.31,0,0,1,.23-.1h1v-.8H25.84a.16.16,0,0,1-.12,0,.17.17,0,0,1,0-.23.16.16,0,0,1,.12,0H27a.32.32,0,0,1,.23.1.31.31,0,0,1,.1.23v.8a.32.32,0,0,1-.1.24.32.32,0,0,1-.23.1H26v.8h1.16a.16.16,0,0,1,0,.33Z" style="fill: #fff"/>
        <path d="M29.77,105.35v.6l-.67,1.7a.17.17,0,0,1-.32,0l-.66-1.7v-.6a.16.16,0,0,1,0-.12.16.16,0,0,1,.23,0,.17.17,0,0,1,0,.12v.54l.5,1.27.5-1.27v-.54a.17.17,0,0,1,0-.12.16.16,0,0,1,.23,0A.16.16,0,0,1,29.77,105.35Z" style="fill: #fff"/>
      </g>
      <g>
        <path d="M39,105.18h.54a.16.16,0,0,1,.16.16.16.16,0,0,1-.05.12.16.16,0,0,1-.11,0H39a.16.16,0,0,0-.13.07l-.46.59a.3.3,0,0,0-.06.2v.91a.16.16,0,0,0,0,.12.16.16,0,0,0,.12,0h.67a.17.17,0,0,0,.16-.16v-.36H39a.16.16,0,0,1-.12,0,.17.17,0,0,1,0-.23.16.16,0,0,1,.12,0h.67v.68a.49.49,0,0,1-.49.49h-.67a.5.5,0,0,1-.5-.49v-.91a.65.65,0,0,1,.13-.41l.48-.62a.41.41,0,0,1,.15-.12A.43.43,0,0,1,39,105.18Z" style="fill: #fff"/>
        <path d="M42.1,105.35v2.43h-.44l-.88-2v1.85a.16.16,0,1,1-.33,0v-2.43h.43l.89,2v-1.84a.17.17,0,0,1,.17-.17.16.16,0,0,1,.12,0A.16.16,0,0,1,42.1,105.35Z" style="fill: #fff"/>
        <path d="M43,105.18h.65a.45.45,0,0,1,.25.08.51.51,0,0,1,.18.19l.32.66a.77.77,0,0,1,0,.74l-.33.65a.5.5,0,0,1-.18.2.48.48,0,0,1-.26.08H43a.17.17,0,0,1-.16-.16.16.16,0,0,1,0-.12.16.16,0,0,1,.12,0h.17v-1.93H43a.16.16,0,0,1-.12,0,.16.16,0,0,1,0-.12.17.17,0,0,1,.16-.16Zm.5.33v1.94h.12a.17.17,0,0,0,.16-.11l.32-.64a.52.52,0,0,0,.06-.21.44.44,0,0,0,0-.2l-.34-.67a.18.18,0,0,0-.17-.1Z" style="fill: #fff"/>
      </g>
      <g>
        <path d="M53.13,107.44h.76v-.8h-1v-1.46h1.16a.17.17,0,0,1,.16.16.16.16,0,0,1-.16.16h-.82v.8h.66a.33.33,0,0,1,.33.33v.8a.33.33,0,0,1-.33.33h-.76a.57.57,0,0,1-.22,0l-.25-.1a.15.15,0,0,1-.1-.16.16.16,0,0,1,0-.12.14.14,0,0,1,.11,0l.11,0,.22.09Z" style="fill: #fff"/>
        <path d="M56.6,105.35v.6l-.67,1.7a.17.17,0,0,1-.32,0l-.66-1.7v-.6a.16.16,0,0,1,0-.12.16.16,0,0,1,.23,0,.17.17,0,0,1,0,.12v.54l.5,1.27.5-1.27v-.54a.17.17,0,0,1,0-.12.16.16,0,0,1,.23,0A.16.16,0,0,1,56.6,105.35Z" style="fill: #fff"/>
      </g>
      <g>
        <path d="M104.82,110.31h-1.16v.8h.5a.17.17,0,0,1,.16.16.16.16,0,0,1,0,.12.16.16,0,0,1-.12,0h-.5v.8h1.16a.17.17,0,0,1,.16.16.16.16,0,0,1,0,.12.16.16,0,0,1-.12,0h-1.49V110h1.49a.17.17,0,0,1,.17.17.16.16,0,0,1,0,.12A.16.16,0,0,1,104.82,110.31Z" style="fill: #fff"/>
        <path d="M106.68,110.15v2.43h-.44l-.88-2v1.85a.16.16,0,1,1-.33,0V110h.43l.89,2v-1.84a.17.17,0,0,1,.17-.17.16.16,0,0,1,.12,0A.16.16,0,0,1,106.68,110.15Z" style="fill: #fff"/>
        <path d="M108.62,111.77v.14a.64.64,0,0,1-.19.47.63.63,0,0,1-.46.19h-1V110h1a.63.63,0,0,1,.46.19.64.64,0,0,1,.19.47v.14a.65.65,0,0,1-.22.5A.66.66,0,0,1,108.62,111.77Zm-.34-1v-.13a.32.32,0,0,0-.1-.23.31.31,0,0,0-.23-.1h-.67v.79H108a.32.32,0,0,0,.23-.1A.31.31,0,0,0,108.28,110.77Zm0,1.14v-.14a.32.32,0,0,0-.1-.23.31.31,0,0,0-.23-.1h-.66v.8H108a.32.32,0,0,0,.23-.1A.31.31,0,0,0,108.28,111.91Z" style="fill: #fff"/>
      </g>
      <g>
        <path d="M113.6,105.42l.36.74a.73.73,0,0,1,0,.65l-.36.73a.4.4,0,0,1-.39.24.42.42,0,0,1-.24-.07.45.45,0,0,1-.16-.17l-.36-.73a.71.71,0,0,1-.07-.32.72.72,0,0,1,.07-.33l.36-.74a.41.41,0,0,1,.39-.24A.4.4,0,0,1,113.6,105.42Zm-.5.16-.34.69a.49.49,0,0,0,0,.2.47.47,0,0,0,0,.21l.35.7a.1.1,0,0,0,.1.06.1.1,0,0,0,.1-.06l.35-.7a.48.48,0,0,0,0-.21.44.44,0,0,0,0-.2l-.34-.69a.11.11,0,0,0-.1-.08A.12.12,0,0,0,113.1,105.58Z" style="fill: #fff"/>
        <path d="M114.56,107.28v-1.94a.16.16,0,0,1,0-.12.16.16,0,0,1,.12,0,.17.17,0,0,1,.16.16v1.94a.15.15,0,0,0,0,.11.16.16,0,0,0,.12,0h.67a.16.16,0,0,0,.12,0,.15.15,0,0,0,0-.11v-1.94a.16.16,0,0,1,0-.12.16.16,0,0,1,.23,0,.16.16,0,0,1,0,.12v1.93a.48.48,0,0,1-.15.35.47.47,0,0,1-.35.15h-.67a.49.49,0,0,1-.49-.49Z" style="fill: #fff"/>
        <path d="M116.58,105.62v-.44h1.66v.45a.17.17,0,0,1-.16.16.16.16,0,0,1-.12,0,.16.16,0,0,1,0-.12v-.12h-.33v2.1a.17.17,0,0,1-.16.16.16.16,0,0,1-.12,0,.16.16,0,0,1,0-.12v-2.1h-.33v.12a.16.16,0,1,1-.33,0Z" style="fill: #fff"/>
        <path d="M119.93,105.51v.62a.47.47,0,0,1-.13.35.49.49,0,0,1,.14.33v.64a.31.31,0,0,1-.1.23.32.32,0,0,1-.23.1h-1.16a.16.16,0,1,1,0-.33h1.16v-.64a.16.16,0,0,0,0-.12.16.16,0,0,0-.12,0h-.66a.16.16,0,0,1-.12,0,.16.16,0,0,1,.12-.28h.66a.17.17,0,0,0,.16-.16v-.63h-1.17a.16.16,0,1,1,0-.33h1.17a.31.31,0,0,1,.23.1A.32.32,0,0,1,119.93,105.51Z" style="fill: #fff"/>
      </g>
      <g>
        <path d="M113.6,70.5l.36.74a.73.73,0,0,1,0,.65l-.36.73a.4.4,0,0,1-.39.24.42.42,0,0,1-.24-.07.45.45,0,0,1-.16-.17l-.36-.73a.71.71,0,0,1-.07-.32.72.72,0,0,1,.07-.33l.36-.74a.41.41,0,0,1,.39-.24A.4.4,0,0,1,113.6,70.5Zm-.5.16-.34.69a.49.49,0,0,0,0,.2.47.47,0,0,0,0,.21l.35.7a.1.1,0,0,0,.1.06.1.1,0,0,0,.1-.06l.35-.7a.48.48,0,0,0,0-.21.44.44,0,0,0,0-.2l-.34-.69a.11.11,0,0,0-.1-.08A.12.12,0,0,0,113.1,70.66Z" style="fill: #fff"/>
        <path d="M114.56,72.36V70.43a.16.16,0,0,1,0-.12.16.16,0,0,1,.12,0,.17.17,0,0,1,.16.16v1.94a.15.15,0,0,0,0,.11.16.16,0,0,0,.12,0h.67a.16.16,0,0,0,.12,0,.15.15,0,0,0,0-.11V70.43a.16.16,0,0,1,0-.12.16.16,0,0,1,.23,0,.16.16,0,0,1,0,.12v1.93a.48.48,0,0,1-.15.35.47.47,0,0,1-.35.15h-.67a.49.49,0,0,1-.49-.49Z" style="fill: #fff"/>
        <path d="M116.58,70.71v-.44h1.66v.45a.17.17,0,0,1-.16.16.16.16,0,0,1-.12,0,.16.16,0,0,1,0-.12v-.12h-.33v2.1a.17.17,0,0,1-.16.16.16.16,0,0,1-.12,0,.16.16,0,0,1,0-.12v-2.1h-.33v.12a.16.16,0,1,1-.33,0Z" style="fill: #fff"/>
        <path d="M119.35,72.69V72h-1V70.42a.17.17,0,0,1,.17-.17.16.16,0,0,1,.12,0,.16.16,0,0,1,0,.12v1.25h.66v-1a.16.16,0,0,1,0-.12.16.16,0,0,1,.23,0,.16.16,0,0,1,0,.12v1a.16.16,0,1,1,0,.33v.69a.16.16,0,1,1-.33,0Z" style="fill: #fff"/>
      </g>
      <g>
        <path d="M83.5,101.37h3v2.27a.64.64,0,0,1-.19.47.63.63,0,0,1-.46.2h-2v1.6h2.34a.32.32,0,0,1,.23.1.33.33,0,0,1,0,.46.32.32,0,0,1-.23.1H83.84a.64.64,0,0,1-.47-.19.63.63,0,0,1-.2-.46v-1.6a.66.66,0,0,1,.66-.66h2V102H83.5a.32.32,0,0,1-.23-.1.33.33,0,0,1,0-.46A.32.32,0,0,1,83.5,101.37Z" style="fill: #fff"/>
        <path d="M80.11,101.37h3v2.27a.64.64,0,0,1-.19.47.63.63,0,0,1-.46.2h-2v1.6h2.34a.32.32,0,0,1,.23.1.33.33,0,0,1,0,.46.32.32,0,0,1-.23.1H80.44a.64.64,0,0,1-.47-.19.63.63,0,0,1-.2-.46v-1.6a.66.66,0,0,1,.66-.66h2V102H80.11a.32.32,0,0,1-.23-.1.33.33,0,0,1,0-.46A.32.32,0,0,1,80.11,101.37Z" style="fill: #fff"/>
        <path d="M79.23,102v3.93a.64.64,0,0,1-.63.63h-2a.6.6,0,0,1-.44-.19.61.61,0,0,1-.19-.45V102a.63.63,0,0,1,.63-.63h2a.61.61,0,0,1,.45.19A.61.61,0,0,1,79.23,102Zm-2.66,0v3.87h2V102Z" style="fill: #fff"/>
      </g>
      <g>
        <path d="M83,98.8V97.57a.94.94,0,0,1,.27-.7,1,1,0,0,1-.27-.66V94.93a.63.63,0,0,1,.2-.46.64.64,0,0,1,.47-.19H86a.33.33,0,1,1,0,.66H83.67v1.28a.33.33,0,0,0,.1.24.31.31,0,0,0,.23.1h1.32a.32.32,0,0,1,.23.09.33.33,0,0,1-.23.56H84a.32.32,0,0,0-.23.1.31.31,0,0,0-.1.23V98.8H86a.33.33,0,1,1,0,.66H83.66A.66.66,0,0,1,83,98.8Z" style="fill: #fff"/>
        <path d="M81.88,94.93H80.36v1.61h2v2.92H80a.33.33,0,0,1-.33-.33A.33.33,0,0,1,80,98.8h1.65V97.19H80.36a.67.67,0,0,1-.66-.66V94.93a.66.66,0,0,1,.66-.66h1.52a1.11,1.11,0,0,1,.43.1l.5.21a.31.31,0,0,1,.2.31.33.33,0,0,1-.09.23.29.29,0,0,1-.22.1.56.56,0,0,1-.23-.06L82,95A.31.31,0,0,0,81.88,94.93Z" style="fill: #fff"/>
        <path d="M76,99.12V97.91l1.34-3.4a.34.34,0,0,1,.65,0l1.33,3.4v1.21a.33.33,0,0,1-.1.24.33.33,0,0,1-.47,0,.33.33,0,0,1-.1-.24V98l-1-2.55L76.7,98v1.08a.33.33,0,0,1-.1.24.33.33,0,0,1-.47,0A.33.33,0,0,1,76,99.12Z" style="fill: #fff"/>
      </g>
      <g>
        <path d="M84.74,93.12H83a.86.86,0,0,1-.59-.26.85.85,0,0,1-.28-.64.32.32,0,0,1,.1-.24.31.31,0,0,1,.22-.1.29.29,0,0,1,.23.08.82.82,0,0,1,.12.28.25.25,0,0,0,.25.21H84.7q.12,0,.12-.08a.16.16,0,0,0,0-.11l-2.44-3.11a.78.78,0,0,1-.18-.48.72.72,0,0,1,.21-.52.64.64,0,0,1,.47-.22h1.77a.9.9,0,0,1,.87.86q0,.37-.34.37a.31.31,0,0,1-.23-.1.31.31,0,0,1-.09-.22.24.24,0,0,0-.07-.18.25.25,0,0,0-.18-.07H82.93c-.07,0-.11,0-.11.08a.16.16,0,0,0,0,.1l2.44,3.11a.78.78,0,0,1,.17.48.73.73,0,0,1-.22.53A.71.71,0,0,1,84.74,93.12Z" style="fill: #fff"/>
        <path d="M79.45,90.42V88.26a.31.31,0,0,1,.1-.23.32.32,0,0,1,.23-.1A.33.33,0,0,1,80,88a.31.31,0,0,1,.1.23v2.16l1.32,1.67v.7a.33.33,0,0,1-.1.24.31.31,0,0,1-.23.1.32.32,0,0,1-.24-.1.32.32,0,0,1-.1-.24v-.45l-1-1.26-1,1.26v.46a.32.32,0,0,1-.1.24.31.31,0,0,1-.23.1.33.33,0,0,1-.23-.09.32.32,0,0,1-.1-.24V92.1Z" style="fill: #fff"/>
        <path d="M77.26,88.26v4.53a.33.33,0,0,1-.1.24.31.31,0,0,1-.23.1.33.33,0,0,1-.33-.33V91.24L74.5,93a.36.36,0,0,1-.25.09A.3.3,0,0,1,74,93a.33.33,0,0,1-.09-.23.29.29,0,0,1,.11-.23l2.38-2L74,88.48a.26.26,0,0,1-.1-.21A.34.34,0,0,1,74,88a.31.31,0,0,1,.24-.11.36.36,0,0,1,.24.09l2.09,1.8V88.26a.33.33,0,0,1,.33-.33.32.32,0,0,1,.23.1A.31.31,0,0,1,77.26,88.26Z" style="fill: #fff"/>
      </g>
      <g>
        <path d="M45.43,80h3v2.27a.64.64,0,0,1-.19.47.63.63,0,0,1-.46.2h-2v1.6H48.1a.32.32,0,0,1,.23.1.33.33,0,0,1,0,.46.32.32,0,0,1-.23.1H45.76a.64.64,0,0,1-.47-.19.63.63,0,0,1-.2-.46v-1.6a.66.66,0,0,1,.66-.66h2V80.65H45.43a.32.32,0,0,1-.23-.1.33.33,0,0,1,0-.46A.32.32,0,0,1,45.43,80Z" style="fill: #fff"/>
        <path d="M42,80h3v2.27a.64.64,0,0,1-.19.47.63.63,0,0,1-.46.2h-2v1.6h2.34a.32.32,0,0,1,.23.1.33.33,0,0,1,0,.46.32.32,0,0,1-.23.1H42.37A.64.64,0,0,1,41.9,85a.63.63,0,0,1-.2-.46v-1.6a.66.66,0,0,1,.66-.66h2V80.65H42a.32.32,0,0,1-.23-.1.33.33,0,0,1,0-.46A.32.32,0,0,1,42,80Z" style="fill: #fff"/>
        <path d="M41.15,80.63v3.93a.64.64,0,0,1-.63.63h-2A.6.6,0,0,1,38,85a.61.61,0,0,1-.19-.45V80.63a.63.63,0,0,1,.63-.63h2a.61.61,0,0,1,.45.19A.61.61,0,0,1,41.15,80.63Zm-2.66,0v3.87h2V80.65Z" style="fill: #fff"/>
      </g>
      <g>
        <path d="M44.93,77.43V76.19a.94.94,0,0,1,.27-.7,1,1,0,0,1-.27-.66V73.55a.63.63,0,0,1,.2-.46.64.64,0,0,1,.47-.19h2.32a.33.33,0,1,1,0,.66H45.6v1.28a.33.33,0,0,0,.1.24.31.31,0,0,0,.23.1h1.32a.32.32,0,0,1,.23.09.33.33,0,0,1-.23.56H45.92a.32.32,0,0,0-.23.1.31.31,0,0,0-.1.23v1.27h2.34a.33.33,0,1,1,0,.66H45.59a.66.66,0,0,1-.66-.66Z" style="fill: #fff"/>
        <path d="M43.8,73.55H42.28v1.61h2v2.92H42a.33.33,0,0,1-.33-.33.33.33,0,0,1,.33-.33H43.6V75.82H42.28a.67.67,0,0,1-.66-.66V73.55a.66.66,0,0,1,.66-.66H43.8a1.11,1.11,0,0,1,.43.1l.5.21a.31.31,0,0,1,.2.31.33.33,0,0,1-.09.23.29.29,0,0,1-.22.1.56.56,0,0,1-.23-.06L44,73.6A.31.31,0,0,0,43.8,73.55Z" style="fill: #fff"/>
        <path d="M38,77.75V76.54l1.34-3.4a.34.34,0,0,1,.65,0l1.33,3.4v1.21a.33.33,0,0,1-.1.24.33.33,0,0,1-.47,0,.33.33,0,0,1-.1-.24V76.68l-1-2.55-1,2.54v1.08a.33.33,0,0,1-.1.24.33.33,0,0,1-.47,0A.33.33,0,0,1,38,77.75Z" style="fill: #fff"/>
      </g>
      <g>
        <path d="M46.66,71.75H45a.86.86,0,0,1-.59-.26.85.85,0,0,1-.28-.64.32.32,0,0,1,.1-.24.31.31,0,0,1,.22-.1.29.29,0,0,1,.23.08.82.82,0,0,1,.12.28.25.25,0,0,0,.25.21h1.62q.12,0,.12-.08a.16.16,0,0,0,0-.11l-2.44-3.11a.78.78,0,0,1-.18-.48.72.72,0,0,1,.21-.52.64.64,0,0,1,.47-.22h1.77a.9.9,0,0,1,.87.86q0,.37-.34.37a.31.31,0,0,1-.23-.1.31.31,0,0,1-.09-.22.24.24,0,0,0-.07-.18.25.25,0,0,0-.18-.07H44.86c-.07,0-.11,0-.11.08a.16.16,0,0,0,0,.1l2.44,3.11a.78.78,0,0,1,.17.48.73.73,0,0,1-.22.53A.71.71,0,0,1,46.66,71.75Z" style="fill: #fff"/>
        <path d="M41.38,69V66.88a.31.31,0,0,1,.1-.23.32.32,0,0,1,.23-.1.33.33,0,0,1,.24.1.31.31,0,0,1,.1.23V69l1.32,1.67v.7a.33.33,0,0,1-.1.24.31.31,0,0,1-.23.1.32.32,0,0,1-.24-.1.32.32,0,0,1-.1-.24V71l-1-1.26-1,1.26v.46a.32.32,0,0,1-.1.24.31.31,0,0,1-.23.1.33.33,0,0,1-.23-.09.32.32,0,0,1-.1-.24v-.69Z" style="fill: #fff"/>
        <path d="M39.19,66.88v4.53a.33.33,0,0,1-.1.24.31.31,0,0,1-.23.1.33.33,0,0,1-.33-.33V69.87l-2.1,1.79a.36.36,0,0,1-.25.09.3.3,0,0,1-.23-.1.33.33,0,0,1-.09-.23.29.29,0,0,1,.11-.23l2.38-2L36,67.11a.26.26,0,0,1-.1-.21.34.34,0,0,1,.1-.24.31.31,0,0,1,.24-.11.36.36,0,0,1,.24.09l2.09,1.8V66.88a.33.33,0,0,1,.33-.33.32.32,0,0,1,.23.1A.31.31,0,0,1,39.19,66.88Z" style="fill: #fff"/>
      </g>
      <g>
        <path d="M49.4,100.67h-.19v.73h.19l0,0a.06.06,0,0,1,0,0,.06.06,0,0,1,0,0l0,0h-.31v-.85H49v.26a.06.06,0,0,1,0,0l0,0,0,0a.06.06,0,0,1,0,0v-.32a.06.06,0,0,1,0,0l0,0h.5l0,0a.06.06,0,0,1,0,0,.06.06,0,0,1,0,0Z" style="fill: #fff"/>
        <path d="M48.79,100.67v.74a.11.11,0,0,1,0,.08.12.12,0,0,1-.08,0h-.38a.12.12,0,0,1-.12-.12v-.74a.12.12,0,0,1,.12-.12h.38a.11.11,0,0,1,.08,0A.11.11,0,0,1,48.79,100.67Zm-.5,0v.73h.38v-.73Z" style="fill: #fff"/>
        <path d="M47.53,100.55h.56V101a.12.12,0,0,1,0,.09.12.12,0,0,1-.09,0H47.6v.3H48l0,0a.06.06,0,0,1,0,0,.06.06,0,0,1,0,0l0,0H47.6a.12.12,0,0,1-.09,0,.12.12,0,0,1,0-.09v-.3a.12.12,0,0,1,0-.09.12.12,0,0,1,.09,0H48v-.3h-.44l0,0a.06.06,0,0,1,0-.09Z" style="fill: #fff"/>
      </g>
      <g>
        <path d="M74.79,117.71v-1.33a.16.16,0,0,1,0-.11.16.16,0,0,1,.12,0,.16.16,0,0,1,.12,0,.16.16,0,0,1,0,.12v.5h1.94v-.5a.16.16,0,0,1,.33,0v1.33a.16.16,0,1,1-.33,0v-.5H75.12v.5a.17.17,0,0,1-.16.16.16.16,0,0,1-.12,0A.16.16,0,0,1,74.79,117.71Z" style="fill: #fff"/>
        <path d="M75,113.8h2.43v.44l-2,.88h1.85a.16.16,0,1,1,0,.33H74.79V115l2-.89H75a.17.17,0,0,1-.17-.17.16.16,0,0,1,0-.12A.16.16,0,0,1,75,113.8Z" style="fill: #fff"/>
        <path d="M77.05,113.36v-.5H75.12v.5a.16.16,0,1,1-.33,0v-.82h2.26v-.33h-.68a.16.16,0,1,1,0-.33h.85a.16.16,0,0,1,.16.16v1.32a.16.16,0,0,1,0,.12.16.16,0,0,1-.12,0,.15.15,0,0,1-.11,0A.16.16,0,0,1,77.05,113.36Z" style="fill: #fff"/>
      </g>
      <g>
        <path d="M82.46,117.46v-1.33a.16.16,0,0,1,0-.11.16.16,0,0,1,.12,0,.16.16,0,0,1,.12,0,.16.16,0,0,1,0,.12v.5h1.94v-.5a.16.16,0,0,1,.33,0v1.33a.16.16,0,1,1-.33,0V117H82.79v.5a.17.17,0,0,1-.16.16.16.16,0,0,1-.12,0A.16.16,0,0,1,82.46,117.46Z" style="fill: #fff"/>
        <path d="M82.63,113.55h2.43V114l-2,.88h1.85a.16.16,0,1,1,0,.33H82.46v-.43l2-.89H82.63a.17.17,0,0,1-.17-.17.16.16,0,0,1,0-.12A.16.16,0,0,1,82.63,113.55Z" style="fill: #fff"/>
        <path d="M85.05,111.54V113H83.92a.32.32,0,0,1-.23-.1.31.31,0,0,1-.1-.23v-1h-.8v1.17a.16.16,0,0,1,0,.12.17.17,0,0,1-.23,0,.16.16,0,0,1,0-.12v-1.17a.32.32,0,0,1,.1-.23.31.31,0,0,1,.23-.1h.8a.32.32,0,0,1,.24.1.32.32,0,0,1,.1.23v1h.8v-1.16a.16.16,0,0,1,.33,0Z" style="fill: #fff"/>
      </g>
      <g>
        <path d="M90,117.46v-1.33a.16.16,0,0,1,0-.11.16.16,0,0,1,.12,0,.16.16,0,0,1,.12,0,.16.16,0,0,1,0,.12v.5h1.94v-.5a.16.16,0,0,1,.33,0v1.33a.16.16,0,1,1-.33,0V117H90.29v.5a.17.17,0,0,1-.16.16.16.16,0,0,1-.12,0A.16.16,0,0,1,90,117.46Z" style="fill: #fff"/>
        <path d="M90.13,113.55h2.43V114l-2,.88h1.85a.16.16,0,1,1,0,.33H90v-.43l2-.89H90.13a.17.17,0,0,1-.17-.17.16.16,0,0,1,0-.12A.16.16,0,0,1,90.13,113.55Z" style="fill: #fff"/>
        <path d="M90.29,111.29h.62a.47.47,0,0,1,.35.13.49.49,0,0,1,.33-.14h.64a.31.31,0,0,1,.23.1.32.32,0,0,1,.1.23v1.16a.16.16,0,1,1-.33,0v-1.16h-.64a.16.16,0,0,0-.12,0,.16.16,0,0,0,0,.12v.66a.16.16,0,0,1,0,.12.16.16,0,0,1-.28-.12v-.66a.17.17,0,0,0-.16-.16h-.63v1.17a.16.16,0,1,1-.33,0v-1.17a.31.31,0,0,1,.1-.23A.32.32,0,0,1,90.29,111.29Z" style="fill: #fff"/>
      </g>
      <g>
        <path d="M96.58,117.46v-1.33a.16.16,0,0,1,0-.11.16.16,0,0,1,.12,0,.16.16,0,0,1,.12,0,.16.16,0,0,1,0,.12v.5h1.94v-.5a.16.16,0,0,1,.33,0v1.33a.16.16,0,1,1-.33,0V117H96.92v.5a.17.17,0,0,1-.16.16.16.16,0,0,1-.12,0A.16.16,0,0,1,96.58,117.46Z" style="fill: #fff"/>
        <path d="M96.75,113.55h2.43V114l-2,.88H99a.16.16,0,1,1,0,.33H96.58v-.43l2-.89H96.75a.17.17,0,0,1-.17-.17.16.16,0,0,1,0-.12A.16.16,0,0,1,96.75,113.55Z" style="fill: #fff"/>
        <path d="M99,111.87h-.68v1H96.75a.17.17,0,0,1-.17-.17.16.16,0,0,1,0-.12.16.16,0,0,1,.12,0H98v-.66H97a.16.16,0,0,1-.12,0,.16.16,0,0,1,0-.23.16.16,0,0,1,.12,0h1a.16.16,0,1,1,.33,0H99a.16.16,0,1,1,0,.33Z" style="fill: #fff"/>
      </g>
    </g>
    <g data-name="Layer 9" id="Layer_9">
      <polygon points="85.4 120.98 86.83 122.51 86.83 126.75 85.4 128.18 81.17 128.18 79.63 126.75 79.63 122.51 81.17 120.98 85.4 120.98" style="fill: #353535"/>
      <polygon points="84.48 144.22 84.48 144.22 83.35 143.08 82.22 144.22 82.22 144.22 84.48 144.22" style="fill: #e7e7e8"/>
      <polygon points="84.48 141.96 84.48 141.96 83.34 143.09 82.21 141.96 82.21 141.96 84.48 141.96" style="fill: #aca9ad"/>
      <polygon points="82.21 144.22 82.21 144.22 83.35 143.09 82.22 141.96 82.21 141.96 82.21 144.22" style="fill: #d0cfd1"/>
      <polygon points="84.48 144.22 84.48 144.22 83.34 143.08 84.47 141.95 84.48 141.95 84.48 144.22" style="fill: #949295"/>
      <rect height="17.37" style="fill: #aca9ad" width="2.27" x="82.21" y="124.58"/>
      <polygon points="92.6 120.98 94.03 122.51 94.03 126.75 92.6 128.18 88.37 128.18 86.83 126.75 86.83 122.51 88.37 120.98 92.6 120.98" style="fill: #353535"/>
      <polygon points="91.68 144.22 91.68 144.22 90.55 143.08 89.42 144.22 89.42 144.22 91.68 144.22" style="fill: #e7e7e8"/>
      <polygon points="91.68 141.96 91.68 141.96 90.54 143.09 89.41 141.96 89.41 141.96 91.68 141.96" style="fill: #aca9ad"/>
      <polygon points="89.41 144.22 89.41 144.22 90.55 143.09 89.42 141.96 89.41 141.96 89.41 144.22" style="fill: #d0cfd1"/>
      <polygon points="91.68 144.22 91.68 144.22 90.54 143.08 91.67 141.95 91.68 141.95 91.68 144.22" style="fill: #949295"/>
      <rect height="17.37" style="fill: #aca9ad" width="2.27" x="89.41" y="124.58"/>
      <polygon points="99.81 121.04 101.23 122.57 101.23 126.81 99.81 128.24 95.58 128.24 94.03 126.81 94.03 122.57 95.58 121.04 99.81 121.04" style="fill: #353535"/>
      <polygon points="98.89 144.28 98.89 144.28 97.75 143.14 96.63 144.28 96.63 144.28 98.89 144.28" style="fill: #e7e7e8"/>
      <polygon points="98.89 142.02 98.89 142.02 97.75 143.15 96.61 142.02 96.61 142.02 98.89 142.02" style="fill: #aca9ad"/>
      <polygon points="96.61 144.28 96.61 144.28 97.75 143.15 96.63 142.02 96.61 142.02 96.61 144.28" style="fill: #d0cfd1"/>
      <polygon points="98.89 144.28 98.89 144.28 97.75 143.14 98.88 142.01 98.89 142.01 98.89 144.28" style="fill: #949295"/>
      <rect height="17.37" style="fill: #aca9ad" width="2.27" x="96.62" y="124.64"/>
      <polygon points="78.2 120.98 79.63 122.51 79.63 126.75 78.2 128.18 73.97 128.18 72.43 126.75 72.43 122.51 73.97 120.98 78.2 120.98" style="fill: #353535"/>
      <polygon points="77.28 144.22 77.28 144.21 76.15 143.08 75.02 144.21 75.02 144.22 77.28 144.22" style="fill: #e7e7e8"/>
      <polygon points="77.28 141.95 77.28 141.95 76.14 143.09 75.01 141.96 75.01 141.95 77.28 141.95" style="fill: #aca9ad"/>
      <polygon points="75.01 144.22 75.01 144.22 76.15 143.08 75.02 141.95 75.01 141.95 75.01 144.22" style="fill: #d0cfd1"/>
      <polygon points="77.28 144.21 77.28 144.21 76.14 143.08 77.27 141.95 77.28 141.95 77.28 144.21" style="fill: #949295"/>
      <rect height="17.37" style="fill: #aca9ad" width="2.27" x="75.01" y="124.58"/>
    </g>
    <g data-name="Layer 11" id="Layer_11">
      <polygon points="71.35 119.84 69.82 121.27 65.58 121.27 64.15 119.84 64.15 115.61 65.58 114.07 69.82 114.07 71.35 115.61 71.35 119.84" style="fill: #353535"/>
      <polygon points="66.74 118.92 66.74 118.92 67.87 117.78 66.74 116.65 66.74 116.65 66.74 118.92" style="fill: #e7e7e8"/>
      <polygon points="69 118.92 69 118.92 67.86 117.78 69 116.65 69 116.65 69 118.92" style="fill: #aca9ad"/>
      <polygon points="66.73 116.65 66.73 116.65 67.87 117.78 69 116.65 69 116.65 66.73 116.65" style="fill: #d0cfd1"/>
      <polygon points="66.74 118.92 66.74 118.92 67.87 117.78 69 118.91 69 118.92 66.74 118.92" style="fill: #949295"/>
      <rect height="1.13" style="fill: #bdbcbf" transform="translate(-49.91 185.65) rotate(-90)" width="1.13" x="67.3" y="117.22"/>
      <polygon points="71.35 127.04 69.82 128.47 65.58 128.47 64.15 127.04 64.15 122.81 65.58 121.27 69.82 121.27 71.35 122.81 71.35 127.04" style="fill: #353535"/>
      <polygon points="66.74 126.12 66.74 126.12 67.87 124.98 66.74 123.85 66.74 123.85 66.74 126.12" style="fill: #e7e7e8"/>
      <polygon points="69 126.11 69 126.11 67.86 124.98 69 123.85 69 123.85 69 126.11" style="fill: #aca9ad"/>
      <polygon points="66.73 123.85 66.73 123.85 67.87 124.98 69 123.85 69 123.85 66.73 123.85" style="fill: #d0cfd1"/>
      <polygon points="66.74 126.11 66.74 126.11 67.87 124.98 69 126.11 69 126.11 66.74 126.11" style="fill: #949295"/>
      <polygon points="109.81 119.84 108.28 121.27 104.04 121.27 102.61 119.84 102.61 115.61 104.04 114.07 108.28 114.07 109.81 115.61 109.81 119.84" style="fill: #353535"/>
      <polygon points="105.2 118.92 105.2 118.92 106.33 117.78 105.2 116.65 105.2 116.65 105.2 118.92" style="fill: #e7e7e8"/>
      <polygon points="107.46 118.92 107.46 118.92 106.33 117.78 107.46 116.65 107.46 116.65 107.46 118.92" style="fill: #aca9ad"/>
      <polygon points="105.2 116.65 105.2 116.65 106.33 117.78 107.46 116.65 107.46 116.65 105.2 116.65" style="fill: #d0cfd1"/>
      <polygon points="105.2 118.92 105.2 118.92 106.34 117.78 107.47 118.91 107.47 118.92 105.2 118.92" style="fill: #949295"/>
      <rect height="1.13" style="fill: #bdbcbf" transform="translate(-11.45 224.12) rotate(-90)" width="1.13" x="105.77" y="117.22"/>
      <polygon points="109.81 127.04 108.28 128.47 104.04 128.47 102.61 127.04 102.61 122.81 104.04 121.27 108.28 121.27 109.81 122.81 109.81 127.04" style="fill: #353535"/>
      <polygon points="105.2 126.12 105.2 126.12 106.33 124.98 105.2 123.85 105.2 123.85 105.2 126.12" style="fill: #e7e7e8"/>
      <polygon points="107.46 126.11 107.46 126.11 106.33 124.98 107.46 123.85 107.46 123.85 107.46 126.11" style="fill: #aca9ad"/>
      <polygon points="105.2 123.85 105.2 123.85 106.33 124.98 107.46 123.85 107.46 123.85 105.2 123.85" style="fill: #d0cfd1"/>
      <polygon points="105.2 126.11 105.2 126.11 106.34 124.98 107.47 126.11 107.47 126.11 105.2 126.11" style="fill: #949295"/>
    </g>
    <g data-name="Connectors" id="Connectors">
      <rect data-cir-type="male" height="1.13" id="circuitoCon_INT2" style="fill: #bdbcbf" width="1.13" x="82.78" y="142.52"/>
      <rect data-cir-type="male" height="1.13" id="circuitoCon_INT3" style="fill: #bdbcbf" width="1.13" x="89.98" y="142.52"/>
      <rect data-cir-type="male" height="1.13" id="circuitoCon_INT4" style="fill: #bdbcbf" width="1.13" x="97.19" y="142.58"/>
      <rect data-cir-type="male" height="1.13" id="circuitoCon_INT1" style="fill: #bdbcbf" width="1.13" x="75.58" y="142.52"/>
      <rect data-cir-type="female" height="4.66" id="circuitoCon_OUT4" style="fill: none" width="1.91" x="123.34" y="79.88"/>
      <rect data-cir-type="female" height="4.66" id="circuitoCon_OUT3" style="fill: none" width="1.91" x="123.34" y="94.62"/>
      <rect data-cir-type="female" height="4.66" id="circuitoCon_OUT1" style="fill: none" width="1.91" x="1.48" y="79.61"/>
      <rect data-cir-type="female" height="4.66" id="circuitoCon_OUT2" style="fill: none" width="1.91" x="1.48" y="94.35"/>
      <rect data-cir-type="female" height="4.66" id="circuitoCon_12V" style="fill: none" transform="translate(-101.8 154.57) rotate(-90)" width="1.91" x="25.43" y="125.85"/>
      <rect data-cir-type="female" height="4.66" id="circuitoCon_GND" style="fill: none" transform="translate(-87.75 168.8) rotate(-90)" width="1.91" x="39.57" y="125.95"/>
      <rect data-cir-type="male" height="4.66" id="circuitoCon_5V" style="fill: none" transform="translate(-73.51 183.04) rotate(-90)" width="1.91" x="53.81" y="125.95"/>
      <rect data-cir-type="male" height="1.13" id="circuitoCon_ENA" style="fill: #bdbcbf" transform="translate(-57.11 192.85) rotate(-90)" width="1.13" x="67.3" y="124.42"/>
      <rect data-cir-type="female" height="1.13" id="circuitoCon_ENB" style="fill: #bdbcbf" transform="translate(-18.65 231.32) rotate(-90)" width="1.13" x="105.77" y="124.42"/>
    </g>
  </g>
</svg>