<?xml version="1.0" ?><svg height="64.03mm" viewBox="0 0 73.5 181.5" width="25.93mm" xmlns="http://www.w3.org/2000/svg" xmlns:xlink="http://www.w3.org/1999/xlink">
  <defs>
    <radialGradient cx="18.92" cy="89.07" gradientUnits="userSpaceOnUse" id="radial-gradient" r="5.59">
      <stop offset="0" stop-color="#fffbcc"/>
      <stop offset="0.15" stop-color="#f8f0bb"/>
      <stop offset="0.45" stop-color="#e7d28e"/>
      <stop offset="0.87" stop-color="#cca246"/>
      <stop offset="1" stop-color="#c3922e"/>
    </radialGradient>
  </defs>
  <title>Ublox NEO-6M GPS Module</title>
  <g data-name="squaere blue" id="squaere_blue">
    <path d="M62.81,95.87c-3.93-3-4.41-6.35-.58-10.25,1.08-.5.5-1.62-.54-1.19-.12,0-49.16.47-49.16.47-1-.22-1.63-.22-.59.72a6.69,6.69,0,0,1,2.34,5.22c-.37,5.55-5.91,8.09-11,4.53-.57-1-.93-1.28-1-.54v74.78c0,2.26.31,2.92,1,1,1.21-1.72,3-2.15,4.93-2.06,6.65.85,8.11,6.17,4.32,11.06-.44.38-.66.74-.5,1.08l11-.06c1.3.18,1.26-.08.58-.54a3.69,3.69,0,0,1-1.25-3.27c1.27-3.35,5.06-4.19,6.67-1.17.25,1,.57.73.92,0a4.69,4.69,0,0,1,2.21-2c.74-.18.84.42.49,1.58l.84,0,.23-2-1.6-1.67.53-1.7,3-.58h2.5L39.87,171v4.56l.43.16h.14a1.6,1.6,0,0,1,.53.1l.28-5.2-2.63-2.44H28.09l-2.16-2.67V157.4l1.74-1.65H46.15L48.31,154v-7.29h2.29v4.84L53.1,154v4.19l2.44.67-.14,4.64h2.68l1.44,1L63,162.71l3.22,3.63-1.57,1.57H58.09l-1.25-1.25v-2.35H55.71v.9H51.22v.63H47.38l0-.63h-.79l-.73-.9H44.58v.9l4.81,4.53v4.14l.48.44c1.66,1.76,1.76,3.51.46,5.23-.72.5-1.29,1-.37,1.18l10.28-.1c1.89.32,1.84-.18,1-1-2.66-2.62-2.88-5.53-.61-8.75a6.65,6.65,0,0,1,10.38.88c.57,1.1.88,1.2.87.08V93.34C69.13,96.73,66.09,97.45,62.81,95.87ZM10.53,98.42a.4.4,0,1,1-.4.4A.4.4,0,0,1,10.53,98.42Zm0,4.94a.4.4,0,1,1-.4.4A.4.4,0,0,1,10.53,103.35Zm0,4.69a.4.4,0,1,1-.4.4A.4.4,0,0,1,10.53,108Zm-.4,5.58a.4.4,0,1,1,.4.4A.4.4,0,0,1,10.13,113.62Zm.25,20.08a.4.4,0,1,1,.4.4A.4.4,0,0,1,10.39,133.71ZM11,166.65a.4.4,0,1,1,.4-.4A.4.4,0,0,1,11,166.65Zm0-4.09a.4.4,0,1,1,.4-.4A.4.4,0,0,1,11,162.56Zm0-5.16a.4.4,0,1,1,.4-.4A.4.4,0,0,1,11,157.4Zm0-5.15a.4.4,0,1,1,.4-.4A.4.4,0,0,1,11,152.25Zm0-5.94a.4.4,0,1,1,.4-.4A.4.4,0,0,1,11,146.31Zm0-6.67a.4.4,0,1,1,.4-.4A.4.4,0,0,1,11,139.64Zm6.37,22.49a.4.4,0,1,1,.4-.4A.4.4,0,0,1,17.33,162.13Zm.4,3.72a.4.4,0,1,1-.4-.4A.4.4,0,0,1,17.73,165.85Zm-.4-8.85a.4.4,0,1,1,.4-.4A.4.4,0,0,1,17.33,157Zm0-5.15a.4.4,0,1,1,.4-.4A.4.4,0,0,1,17.33,151.85Zm.3-48a.4.4,0,1,1-.4-.4A.4.4,0,0,1,17.63,103.88ZM17,97.15a.4.4,0,1,1-.4.4A.4.4,0,0,1,17,97.15Zm0,3.29a.4.4,0,1,1-.4.4A.4.4,0,0,1,17,100.44Zm-.29,6.37a.4.4,0,1,1,.4.4A.4.4,0,0,1,16.76,106.81Zm.18,63.75a.4.4,0,1,1,.4.4A.4.4,0,0,1,16.94,170.56Zm.79,9a.4.4,0,1,1,.4-.4A.4.4,0,0,1,17.73,179.56Zm0-3.25a.4.4,0,1,1,.4-.4A.4.4,0,0,1,17.73,176.31Zm2.69-26.5a.4.4,0,1,1,.4-.4A.4.4,0,0,1,20.42,149.81Zm3.4-44.15a.4.4,0,1,1,.4-.4A.4.4,0,0,1,23.82,105.66Zm0-6.33a.4.4,0,1,1,.4-.4A.4.4,0,0,1,23.82,99.33Zm.3-2.33a.4.4,0,1,1,.4.4A.4.4,0,0,1,24.12,97Zm.61,52.81a.4.4,0,1,1,.4-.4A.4.4,0,0,1,24.73,149.81ZM34,96.4a.4.4,0,1,1-.4.4A.4.4,0,0,1,34,96.4Zm0,4.44a.4.4,0,1,1-.4.4A.4.4,0,0,1,34,100.83Zm-7.41-15a.4.4,0,1,1-.4.4A.4.4,0,0,1,26.56,85.83Zm0,20.66a.4.4,0,1,1,.4-.4A.4.4,0,0,1,26.57,106.49Zm1.28-10.1a.4.4,0,1,1,.4-.4A.4.4,0,0,1,27.85,96.4Zm1.3,53.81a.4.4,0,1,1,.4-.4A.4.4,0,0,1,29.15,150.21Zm.39-63.58a.4.4,0,1,1,.4-.4A.4.4,0,0,1,29.54,86.62Zm.79,7.19a.4.4,0,1,1,.4-.4A.4.4,0,0,1,30.33,93.81Zm.23-4.1a.4.4,0,1,1,.4-.4A.4.4,0,0,1,30.57,89.71Zm3.24,60.1a.4.4,0,1,1,.4-.4A.4.4,0,0,1,33.81,149.81Zm.3-43.76a.4.4,0,1,1,.4.4A.4.4,0,0,1,34.11,106.06ZM34.77,145a.4.4,0,1,1,.4-.4A.4.4,0,0,1,34.77,145Zm2.12-41a.4.4,0,1,1,.4-.4A.4.4,0,0,1,36.89,104Zm1.36,45.83a.4.4,0,1,1,.4-.4A.4.4,0,0,1,38.25,149.81ZM40,103.88a.4.4,0,1,1,.4-.4A.4.4,0,0,1,40,103.88Zm1.8,45.93a.4.4,0,1,1,.4-.4A.4.4,0,0,1,41.81,149.81ZM44.57,104a.4.4,0,1,1,.4-.4A.4.4,0,0,1,44.57,104ZM41.38,98a6.21,6.21,0,1,1,6.21-6.21A6.21,6.21,0,0,1,41.38,98Zm7.41,5.74a.4.4,0,1,1,.4-.4A.4.4,0,0,1,48.78,103.78Zm.2-4.84a.4.4,0,1,1,.4-.4A.4.4,0,0,1,49,98.94Zm4.11-11.48a.4.4,0,1,1-.4.4A.4.4,0,0,1,53.09,87.46Zm0,5.17a.4.4,0,1,1,.4-.4A.4.4,0,0,1,53.09,92.62Zm.54,6.31a.4.4,0,1,1,.4-.4A.4.4,0,0,1,53.64,98.94Zm1,7.91a.4.4,0,1,1,.4-.4A.4.4,0,0,1,54.63,106.85Zm2.59-.2a.4.4,0,1,1,.4-.4A.4.4,0,0,1,57.22,106.65Zm.56-7.71a.4.4,0,1,1,.4-.4A.4.4,0,0,1,57.78,98.94Zm1.34,51.27a.4.4,0,1,1,.4-.4A.4.4,0,0,1,59.13,150.21Zm1.79-44a.4.4,0,1,1,.4.4A.4.4,0,0,1,60.92,106.25Zm.63,43.6a.4.4,0,1,1,.4-.4A.4.4,0,0,1,61.54,149.85Zm1.08-50.7a.4.4,0,1,1,.4-.4A.4.4,0,0,1,62.63,99.16Zm.4,12.75a.4.4,0,1,1,.4.4A.4.4,0,0,1,63,111.91Zm.79,37.82a.4.4,0,1,1,.4-.4A.4.4,0,0,1,63.82,149.73Zm-14.53,18a.4.4,0,1,1,.4-.4A.4.4,0,0,1,49.29,167.74Zm3.63,0a.4.4,0,1,1,.4-.4A.4.4,0,0,1,52.92,167.74Zm1.49,2.58a.4.4,0,1,1,.4-.4A.4.4,0,0,1,54.42,170.32Zm1.13-2.58a.4.4,0,1,1,.4-.4A.4.4,0,0,1,55.54,167.74Zm2.54,2.58a.4.4,0,1,1,.4-.4A.4.4,0,0,1,58.08,170.32Zm2.15-.18a.4.4,0,1,1,.4-.4A.4.4,0,0,1,60.24,170.14Zm6.57-57.84a.4.4,0,1,1,.4-.4A.4.4,0,0,1,66.8,112.31Zm1.1-13a.4.4,0,1,1,.4-.4A.4.4,0,0,1,67.91,99.33Zm1.81,67.31a.4.4,0,1,1,.4-.4A.4.4,0,0,1,69.72,166.64Zm.5-54.34a.4.4,0,1,1,.4-.4A.4.4,0,0,1,70.21,112.31Z" style="fill: #0b5597"/>
  </g>
  <g data-name="lines lighter blue" id="lines_lighter_blue">
    <polyline points="49.94 110.56 49.94 105.36 52.81 102.49 63.02 102.49" style="fill: none;stroke: #1a2c80;stroke-miterlimit: 10;stroke-width: 0.5px"/>
    <polyline points="63.42 104.36 53.63 104.36 51.98 106.02 51.98 111.1" style="fill: none;stroke: #1a2c80;stroke-miterlimit: 10;stroke-width: 0.5px"/>
    <rect height="2.46" style="fill: #1a2c80" width="22.55" x="36.89" y="108.47"/>
    <rect height="8.04" rx="1.41" ry="1.41" style="fill: #1a2c80" width="8.85" x="63.02" y="101.66"/>
    <rect height="2.13" style="fill: #1a2c80" width="8.78" x="62.58" y="114.17"/>
    <polyline points="63.04 131.21 63.04 134.86 59.83 134.86" style="fill: none;stroke: #1a2c80;stroke-linecap: round;stroke-linejoin: round;stroke-width: 0.5px"/>
    <polyline points="65.09 129.54 65.09 135.56 64.04 136.62 59.83 136.62" style="fill: none;stroke: #1a2c80;stroke-linecap: round;stroke-linejoin: round;stroke-width: 0.5px"/>
    <path d="M66.86,129.79c.14.13,0,5.73,0,5.73l-1.28,2H57.47" style="fill: none;stroke: #1a2c80;stroke-linecap: round;stroke-linejoin: round;stroke-width: 0.5px"/>
    <rect height="1.38" style="fill: #1a2c80" width="10.54" x="60.21" y="137.33"/>
    <polyline points="68.83 129.54 68.83 135.25 69 135.96 68.92 137.57" style="fill: none;stroke: #1a2c80;stroke-linecap: round;stroke-linejoin: round;stroke-width: 0.5px"/>
    <rect height="3.17" style="fill: #1a2c80" width="16.25" x="15.71" y="143.62"/>
    <rect height="3.17" style="fill: #1a2c80" width="22.44" x="36.69" y="143.62"/>
    <rect height="1.75" style="fill: #1a2c80" width="1.9" x="61.15" y="146.21"/>
    <rect height="1.75" style="fill: #1a2c80" width="1.9" x="63.8" y="146.21"/>
    <rect height="5.96" style="fill: #1a2c80" width="5.06" x="60.92" y="139.96"/>
    <path d="M55,146.21v2.73l2.45,2.45v9.83" style="fill: none;stroke: #1a2c80;stroke-miterlimit: 10"/>
    <polygon points="51.46 146.21 51.46 151.36 53.45 153.35 53.45 158.5 55 158.67 55 160.52 55.94 160.74 55.94 151.46 54.12 149.63 54.12 146.46 51.46 146.21" style="fill: #1a2c80"/>
    <rect height="1.63" style="fill: #1a2c80" width="3.87" x="54.21" y="161.33"/>
    <polyline points="46.15 146.31 46.15 153.13 44.98 154.29 26.63 154.29 24.31 156.6 24.31 166.25 27.68 169.61 38.15 169.61" style="fill: none;stroke: #1a2c80;stroke-miterlimit: 10;stroke-width: 2px"/>
    <polyline points="44.12 146.67 44.12 151.42 42.96 152.59 26.04 152.59 22.35 156.28 22.35 167.02 26.77 171.45 30.45 171.45 32.89 173.89" style="fill: none;stroke: #1a2c80;stroke-miterlimit: 10;stroke-width: 0.5px"/>
  </g>
  <g id="ellips">
    <rect height="97.86" style="fill: #0b5597" width="0.33" x="73.17" y="83.31"/>
    <rect height="0.33" style="fill: #1a2c80" width="73.17" y="181.17"/>
    <path d="M0,83.31v97.86H73.17V83.31Zm66.35,2.62a4.66,4.66,0,1,1-4.66,4.66A4.66,4.66,0,0,1,66.35,85.93Zm-58.08,0A4.66,4.66,0,1,1,3.6,90.59,4.66,4.66,0,0,1,8.27,85.93Zm0,93.4a4.66,4.66,0,1,1,4.66-4.66A4.66,4.66,0,0,1,8.27,179.33ZM26,178.89a1.61,1.61,0,1,1,1.61-1.61A1.61,1.61,0,0,1,26,178.89Zm7.25,0a1.61,1.61,0,1,1,1.61-1.61A1.61,1.61,0,0,1,33.28,178.89Zm14.35,0a1.61,1.61,0,1,1,1.61-1.61A1.61,1.61,0,0,1,47.63,178.89Zm18.72.44A4.66,4.66,0,1,1,71,174.66,4.66,4.66,0,0,1,66.35,179.33ZM71,171.75a6.65,6.65,0,0,0-10.38-.87c-2.28,3.22-2.05,6.13.61,8.75.83.84.88,1.34-1,1l-10.28.1c-.92-.21-.35-.68.38-1.18,1.3-1.72,1.2-3.46-.46-5.23l-.48-.44v-4.14l-4.81-4.53v-.9h1.22l.73.9h.79l0,.63h3.84v-.63h4.49v-.9h1.13v2.35l1.25,1.25H64.7l1.57-1.57L63,162.71l-3.52,1.77-1.44-1H55.4l.14-4.64-2.44-.67V154l-2.49-2.49v-4.84H48.31V154l-2.16,1.78H27.67l-1.74,1.65v8.06l2.16,2.67H38.62l2.63,2.44-.28,5.2a1.61,1.61,0,1,1-.67-.08l-.43-.16V171l-1.62-1.61h-2.5l-3,.58-.53,1.7,1.6,1.67-.23,2-.84,0c.35-1.16.25-1.76-.49-1.58a4.69,4.69,0,0,0-2.21,2c-.34.73-.66,1-.92,0-1.6-3-5.4-2.19-6.67,1.17A3.69,3.69,0,0,0,23.71,180c.68.46.72.72-.58.54l-11,.06c-.16-.33.06-.7.5-1.08,3.79-4.9,2.33-10.21-4.32-11.06-2-.09-3.72.35-4.93,2.06-.69,2-1,1.31-1-1V94.83c0-.74.41-.45,1,.54,5.06,3.56,10.59,1,11-4.53a6.69,6.69,0,0,0-2.34-5.22c-1-.94-.42-.94.59-.72,0,0,49-.42,49.16-.47,1-.43,1.62.68.54,1.19-3.84,3.9-3.36,7.28.58,10.25,3.29,1.57,6.32.85,9.07-2.53v78.49C71.89,172.95,71.58,172.85,71,171.75ZM30.34,157a.4.4,0,1,1-.4-.4A.4.4,0,0,1,30.34,157Z" style="fill: #1a2c80"/>
    <path d="M40.3,175.68l.66.24v-.16a1.6,1.6,0,0,0-.53-.1Z" style="fill: #030f1b"/>
  </g>
  <g data-name="Layer 2" id="Layer_2">
    <circle cx="26.03" cy="177.27" id="connector9pin" r="2.05" style="fill: none;stroke: #e8e5df;stroke-width: 1.22399997711182px"/>
    <circle cx="33.23" cy="177.27" id="connector10pin" r="2.05" style="fill: none;stroke: #e8e5df;stroke-width: 1.22399997711182px"/>
    <circle cx="40.43" cy="177.27" id="connector11pin" r="2.05" style="fill: none;stroke: #e8e5df;stroke-width: 1.22399997711182px"/>
    <circle cx="47.63" cy="177.27" id="connector12pin" r="2.05" style="fill: none;stroke: #e8e5df;stroke-width: 1.22399997711182px"/>
  </g>
  <g data-name="big square middle" id="big_square_middle">
    <path d="M35.38,58.92v4.25c0,4.16-2.73,6.78-7.83,8.13a37.34,37.34,0,0,0-9.46,3.83c-5,2.66-5.6,6.13-2.63,10.25" style="fill: none;stroke: #16181c;stroke-miterlimit: 10;stroke-width: 3px"/>
    <polygon points="24.61 87.85 24.61 87.63 22.33 87.63 22.33 86.46 18.92 86.46 18.92 88.55 16.84 88.55 16.84 87.85 14.88 87.85 14.88 94.42 16.84 94.42 16.84 95.11 18.92 95.11 18.92 97.4 22.33 97.4 22.33 95.11 24.61 95.11 24.61 95.34 27.07 95.34 27.07 87.85 24.61 87.85" style="fill: #d5d4e4"/>
    <polygon points="59 161.81 58.57 162.24 57.69 162.24 57.69 167.15 64.79 167.15 59 161.81" style="fill: #c1bebe"/>
    <path d="M68.33,152.17c7.6,4.45,3.48,15-2.94,14.47l-1.33-1.73H62.27l-3.54-3h-1v-1.62H58v-7.55l.8-.8H61.1v1.33l7.23-1.1" style="fill: #a29d8a"/>
    <circle cx="65.2" cy="157.84" r="6.47" style="fill: #aca395"/>
    <g>
      <g>
        <rect height="4.52" style="fill: #a9a0a2" width="0.94" x="63.81" y="114.4"/>
        <rect height="4.52" style="fill: #a9a0a2" width="0.94" x="65.66" y="114.4"/>
        <rect height="4.52" style="fill: #a9a0a2" width="0.94" x="67.5" y="114.4"/>
        <rect height="4.52" style="fill: #a9a0a2" width="0.94" x="69.35" y="114.4"/>
      </g>
      <g>
        <rect height="4.52" style="fill: #a9a0a2" width="0.94" x="63.81" y="130.18"/>
        <rect height="4.52" style="fill: #a9a0a2" width="0.94" x="65.66" y="130.18"/>
        <rect height="4.52" style="fill: #a9a0a2" width="0.94" x="67.5" y="130.18"/>
        <rect height="4.52" style="fill: #a9a0a2" width="0.94" x="69.35" y="130.18"/>
      </g>
    </g>
    <g>
      <rect height="2.24" style="fill: #999898" width="1.99" x="16.39" y="143.68"/>
      <rect height="2.24" style="fill: #999898" width="1.99" x="19.42" y="143.68"/>
      <rect height="2.24" style="fill: #999898" width="1.99" x="22.58" y="143.68"/>
      <rect height="2.24" style="fill: #999898" width="1.99" x="25.93" y="143.68"/>
      <rect height="2.24" style="fill: #999898" width="1.99" x="28.98" y="143.68"/>
      <rect height="2.24" style="fill: #999898" width="1.99" x="16.39" y="108.69"/>
      <rect height="2.24" style="fill: #999898" width="1.99" x="19.42" y="108.69"/>
      <rect height="2.24" style="fill: #999898" width="1.99" x="22.58" y="108.69"/>
      <rect height="2.24" style="fill: #999898" width="1.99" x="25.93" y="108.69"/>
      <rect height="2.24" style="fill: #999898" width="1.99" x="28.98" y="108.69"/>
      <rect height="2.24" style="fill: #999898" width="1.99" x="37.63" y="143.68"/>
      <rect height="2.24" style="fill: #999898" width="1.99" x="40.66" y="143.68"/>
      <rect height="2.24" style="fill: #999898" width="1.99" x="43.82" y="143.68"/>
      <rect height="2.24" style="fill: #999898" width="1.99" x="47.17" y="143.68"/>
      <rect height="2.24" style="fill: #999898" width="1.99" x="50.22" y="143.68"/>
      <rect height="2.24" style="fill: #999898" width="1.99" x="53.41" y="143.68"/>
      <rect height="2.24" style="fill: #999898" width="1.99" x="56.47" y="143.68"/>
      <rect height="2.24" style="fill: #999898" width="1.99" x="37.63" y="108.69"/>
      <rect height="2.24" style="fill: #999898" width="1.99" x="40.66" y="108.69"/>
      <rect height="2.24" style="fill: #999898" width="1.99" x="43.82" y="108.69"/>
      <rect height="2.24" style="fill: #999898" width="1.99" x="47.17" y="108.69"/>
      <rect height="2.24" style="fill: #999898" width="1.99" x="50.22" y="108.69"/>
      <rect height="2.24" style="fill: #999898" width="1.99" x="53.41" y="108.69"/>
      <rect height="2.24" style="fill: #999898" width="1.99" x="56.47" y="108.69"/>
    </g>
    <rect height="34.65" style="fill: #267033" width="45.54" x="15.38" y="109.81"/>
    <polygon points="16.65 112.31 17.73 111.1 57.72 111.1 58.93 112.31 58.93 140.64 57.22 142.34 17.75 142.34 16.65 141.25 16.65 112.31" style="fill: #867769"/>
    <line style="fill: none;stroke: #2a2c35;stroke-miterlimit: 10;stroke-width: 0.200000002980232px" x1="28.33" x2="31" y1="134.86" y2="137.57"/>
    <rect height="28.94" rx="1.47" ry="1.47" style="fill: #f1f3f4" width="37.25" x="19" y="112.31"/>
    <circle cx="52.81" cy="116.75" r="1.88" style="fill: #2a2c35"/>
    <path d="M31.44,136.27a1.88,1.88,0,1,1-1.87-1.87A1.87,1.87,0,0,1,31.44,136.27Z" style="fill: none;stroke: #2a2c35;stroke-miterlimit: 10;stroke-width: 0.200000002980232px"/>
    <path d="M49.29,116.08A1.27,1.27,0,1,1,48,114.81,1.27,1.27,0,0,1,49.29,116.08Z" style="fill: none;stroke: #2a2c35;stroke-miterlimit: 10;stroke-width: 0.200000002980232px"/>
    <ellipse cx="23.29" cy="136.27" rx="2.48" ry="1.74" style="fill: none;stroke: #2a2c35;stroke-miterlimit: 10;stroke-width: 0.200000002980232px"/>
    <g>
      <path d="M21.6,114.4v.85h1.65V116h.92v.75h.92v1h.5v-2.5h1.25v2.5h.58v-2.5h1v2.69H27.6v.6H29v-1.6h1.23v1.6h1.44v-.6h-.81v-1h.81v-.62h-.77v-1h1.9V117h-.9v.71h.81V122h-2v-1.69h-.67v3.31h-.75v.65H30V125h.69v-.67h.77v-.67h-.75V122.6h1.94v1.71h-1V125h.9v.92s.75,0,.75,0V114.4Z" style="fill: #2a2c35"/>
      <polygon points="21.6 116.04 23.04 116.04 23.04 119.15 22.32 119.15 22.32 118.35 21.6 118.35 21.6 117.59 22.32 117.59 22.32 116.96 21.6 116.96 21.6 116.04" style="fill: #2a2c35"/>
      <rect height="0.77" style="fill: #2a2c35" width="0.69" x="21.48" y="119.25"/>
      <rect height="0.77" style="fill: #2a2c35" width="0.69" x="23.23" y="119.25"/>
      <rect height="0.77" style="fill: #2a2c35" width="0.69" x="22.32" y="121.75"/>
      <rect height="0.77" style="fill: #2a2c35" width="0.69" x="21.48" y="120.98"/>
      <rect height="0.77" style="fill: #2a2c35" width="0.69" x="23.23" y="120.98"/>
      <rect height="0.77" style="fill: #2a2c35" width="0.69" x="22.32" y="125.04"/>
      <rect height="0.77" style="fill: #2a2c35" width="0.69" x="21.48" y="124.27"/>
      <rect height="0.77" style="fill: #2a2c35" width="0.69" x="23.23" y="124.27"/>
      <rect height="0.77" style="fill: #2a2c35" width="0.69" x="21.48" y="122.58"/>
      <rect height="0.77" style="fill: #2a2c35" width="0.69" x="23.23" y="122.58"/>
      <rect height="0.77" style="fill: #2a2c35" width="0.69" x="28.2" y="124.34"/>
      <rect height="0.77" style="fill: #2a2c35" width="0.69" x="28.2" y="122.79"/>
      <rect height="0.77" style="fill: #2a2c35" width="0.69" x="27.35" y="125.18"/>
      <rect height="0.77" style="fill: #2a2c35" width="0.69" x="29.1" y="125.18"/>
      <rect height="0.77" style="fill: #2a2c35" width="0.69" x="30.73" y="125.18"/>
      <polygon points="24.02 123.56 24.6 123.56 24.6 124.4 25.75 124.4 25.75 123.56 26.46 123.56 26.46 124.27 27.17 124.27 27.17 125.04 26.35 125.04 26.35 125.81 25.71 125.81 25.71 125.04 24.6 125.04 24.6 125.81 23.92 125.81 23.92 125.04 23.92 123.56 24.02 123.56" style="fill: #2a2c35"/>
      <polygon points="25 118.5 25.63 118.5 25.63 119.42 26.67 119.42 26.67 118.5 27.35 118.5 27.35 120.17 29.1 120.17 29.1 120.98 28.2 120.98 28.2 122.52 27.27 122.52 27.27 123.35 26.63 123.35 26.63 122.58 25.81 122.58 25.81 121.75 26.58 121.75 26.58 120.98 25 120.98 25 118.5" style="fill: #2a2c35"/>
      <rect height="1.67" style="fill: #2a2c35" width="0.75" x="29.23" y="118.5"/>
    </g>
    <line style="fill: none;stroke: #2a2c35;stroke-miterlimit: 10;stroke-width: 0.200000002980232px" x1="31.06" x2="31.06" y1="137.52" y2="137.52"/>
    <rect height="8.06" style="fill: #eeeee5" width="2.16" x="48.31" y="157"/>
    <rect height="11.68" style="fill: #343b43" width="7.95" x="63.42" y="118.5"/>
    <circle cx="64.7" cy="158.19" r="0.88" style="fill: #5b4f46"/>
    <circle cx="65.09" cy="155.74" r="0.88" style="fill: #5b4f46"/>
    <circle cx="66.86" cy="157.51" r="0.88" style="fill: #5b4f46"/>
    <polygon points="13.5 85.46 14.23 84.73 13.98 84.48 15.23 83.46 15.62 83.84 16.29 83.31 18.67 85.83 20.5 85.73 21.98 87.65 21.98 88.6 23.17 88.46 24.33 90.35 24.33 92.52 23.21 93.81 22.63 93.6 21.06 94.83 19.67 94.83 17.75 93.19 18 91.96 16.65 91.46 15.35 89.31 15.48 88.1 13.5 85.46" style="fill: url(#radial-gradient)"/>
  </g>
  <g data-name="yellow up square" id="yellow_up_square">
    <rect height="57.6" rx="10.01" ry="10.01" style="fill: #fff" width="57.6" x="6.5" y="1.91"/>
    <path d="M55.31,0H16.94A11.94,11.94,0,0,0,5,11.94v37.5A11.94,11.94,0,0,0,16.94,61.37H55.31A11.94,11.94,0,0,0,67.25,49.44V11.94A11.94,11.94,0,0,0,55.31,0Zm5.44,54.25H16.5l-4.31-4.31.19-43.31h43.5l4.88,4.88Z" style="fill: #cbc390"/>
    <circle cx="36.13" cy="24.12" r="5.25" style="fill: #8d8f94"/>
  </g>
  <g id="connctors">
    <g>
      <path d="M64,142.59H62.8a.57.57,0,0,1,0-1.12H64a.57.57,0,0,1,0,1.12Z" style="fill: #bcbcbc"/>
      <path d="M64,145.58H62.8a.57.57,0,0,1,0-1.12H64a.57.57,0,0,1,0,1.12Z" style="fill: #bcbcbc"/>
      <rect height="2.99" rx="0.58" ry="0.58" style="fill: #e2e2e2" width="2.05" x="62.39" y="142.03"/>
      <rect height="1.4" style="fill: #b7967a" width="2.05" x="62.39" y="142.8"/>
    </g>
    <g>
      <path d="M45.74,160.28H44.51a.57.57,0,0,1,0-1.12h1.23a.57.57,0,0,1,0,1.12Z" style="fill: #bcbcbc"/>
      <path d="M45.74,163.27H44.51a.57.57,0,0,1,0-1.12h1.23a.57.57,0,0,1,0,1.12Z" style="fill: #bcbcbc"/>
      <rect height="2.99" rx="0.58" ry="0.58" style="fill: #e2e2e2" width="2.05" x="44.1" y="159.72"/>
      <rect height="1.4" style="fill: #b7967a" width="2.05" x="44.1" y="160.49"/>
    </g>
    <path d="M54.17,159.69H52.94c-.28,0-.5-.37-.5-.83s.22-.83.5-.83h1.23c.28,0,.5.37.5.83S54.44,159.69,54.17,159.69Z" style="fill: #bcbcbc"/>
    <path d="M54.17,164.12H52.94c-.28,0-.5-.37-.5-.83s.22-.83.5-.83h1.23c.28,0,.5.37.5.83S54.44,164.12,54.17,164.12Z" style="fill: #bcbcbc"/>
    <rect height="4.43" rx="0.58" ry="0.58" style="fill: #e2e2e2" width="2.05" x="52.53" y="158.86"/>
    <rect height="2.71" style="fill: #222426" width="2.05" x="52.53" y="159.69"/>
    <g>
      <rect height="4.79" style="fill: #363d3d" width="3.21" x="47.68" y="158.5"/>
      <rect height="2.71" style="fill: #222426" width="3.21" x="47.68" y="159.69"/>
    </g>
    <g>
      <path d="M65.91,103.88H64.68c-.28,0-.5-.37-.5-.83s.22-.83.5-.83h1.23c.28,0,.5.37.5.83S66.19,103.88,65.91,103.88Z" style="fill: #bcbcbc"/>
      <path d="M65.91,108.31H64.68c-.28,0-.5-.37-.5-.83s.22-.83.5-.83h1.23c.28,0,.5.37.5.83S66.19,108.31,65.91,108.31Z" style="fill: #bcbcbc"/>
      <rect height="4.43" rx="0.58" ry="0.58" style="fill: #e2e2e2" width="2.05" x="64.27" y="103.05"/>
      <rect height="2.71" style="fill: #222426" width="2.05" x="64.27" y="103.88"/>
    </g>
    <g>
      <path d="M30.78,102.5H29.55c-.28,0-.5-.37-.5-.83s.22-.83.5-.83h1.23c.28,0,.5.37.5.83S31.06,102.5,30.78,102.5Z" style="fill: #bcbcbc"/>
      <path d="M30.78,106.93H29.55c-.28,0-.5-.37-.5-.83s.22-.83.5-.83h1.23c.28,0,.5.37.5.83S31.06,106.93,30.78,106.93Z" style="fill: #bcbcbc"/>
      <rect height="4.43" rx="0.58" ry="0.58" style="fill: #e2e2e2" width="2.05" x="29.14" y="101.66"/>
      <rect height="2.71" style="fill: #222426" width="2.05" x="29.14" y="102.5"/>
    </g>
    <g>
      <path d="M28.65,160.28H27.42a.57.57,0,0,1,0-1.12h1.23a.57.57,0,0,1,0,1.12Z" style="fill: #bcbcbc"/>
      <path d="M28.65,163.27H27.42a.57.57,0,0,1,0-1.12h1.23a.57.57,0,0,1,0,1.12Z" style="fill: #bcbcbc"/>
      <rect height="2.99" rx="0.58" ry="0.58" style="fill: #e2e2e2" width="2.05" x="27.01" y="159.72"/>
      <rect height="1.4" style="fill: #b7967a" width="2.05" x="27.01" y="160.49"/>
    </g>
    <g>
      <rect height="2.94" style="fill: #b1aeaa" transform="translate(-81.6 122.04) rotate(-90)" width="3.54" x="18.45" y="100.35"/>
      <rect height="2.94" style="fill: #b1aeaa" transform="translate(-75.43 128.2) rotate(-90)" width="3.54" x="24.61" y="100.35"/>
      <rect height="5.07" style="fill: #ebeae7" transform="translate(-78.44 125.28) rotate(-90)" width="4.04" x="21.4" y="99.32"/>
      <rect height="3.47" style="fill: #f7f6e9" transform="translate(-78.43 125.28) rotate(-90)" width="4.04" x="21.4" y="100.12"/>
    </g>
    <g>
      <rect height="1.96" style="fill: #b1aeaa" transform="translate(140.37 214.99) rotate(-180)" width="2.36" x="69" y="106.51"/>
      <rect height="1.96" style="fill: #b1aeaa" transform="translate(140.37 206.77) rotate(-180)" width="2.36" x="69" y="102.41"/>
      <rect height="3.38" style="fill: #ebeae7" transform="translate(140.42 210.72) rotate(-180)" width="2.69" x="68.86" y="103.67"/>
      <rect height="2.32" style="fill: #f7f6e9" transform="translate(140.42 210.71) rotate(-180)" width="2.69" x="68.86" y="104.2"/>
    </g>
    <g>
      <rect height="1.64" style="fill: #b1aeaa" transform="translate(65.48 328.06) rotate(180)" width="2.14" x="31.67" y="163.21"/>
      <rect height="1.17" style="fill: #bcbcbc" transform="translate(68.57 328.03) rotate(180)" width="0.96" x="33.81" y="163.43"/>
      <rect height="1.64" style="fill: #b1aeaa" transform="translate(65.48 322.68) rotate(180)" width="2.14" x="31.67" y="160.52"/>
      <rect height="1.17" style="fill: #bcbcbc" transform="translate(68.57 322.66) rotate(180)" width="0.96" x="33.81" y="160.74"/>
      <rect height="1.64" style="fill: #b1aeaa" transform="translate(65.48 317.37) rotate(180)" width="2.14" x="31.67" y="157.87"/>
      <rect height="1.17" style="fill: #bcbcbc" transform="translate(68.57 317.34) rotate(180)" width="0.96" x="33.81" y="158.09"/>
      <rect height="1.64" style="fill: #b1aeaa" width="2.14" x="40.35" y="157.95"/>
      <rect height="1.17" style="fill: #bcbcbc" width="0.96" x="39.39" y="158.19"/>
      <rect height="1.64" style="fill: #b1aeaa" width="2.14" x="40.35" y="163.25"/>
      <rect height="1.17" style="fill: #bcbcbc" width="0.96" x="39.39" y="163.5"/>
      <rect height="8" style="fill: #303030" transform="translate(74.16 322.43) rotate(180)" width="4.63" x="34.77" y="157.22"/>
    </g>
    <g>
      <rect height="11.67" style="fill: #969aa6" width="4.38" x="66.38" y="137.79"/>
      <rect height="8.5" style="fill: #c5984c" width="4.92" x="66.17" y="139"/>
      <rect height="2.25" style="fill: #c3804c" width="4.92" x="66.17" y="139"/>
    </g>
  </g>
  <g id="text">
    <g>
      <path d="M53.21,160.41h.23a.06.06,0,1,1,0,.11h-.28a.05.05,0,0,1-.06-.06V160a.06.06,0,0,1,.11,0v.17h.65V160a.06.06,0,0,1,.11,0v.28h-.77Z" style="fill: #fff"/>
      <path d="M54,161.22a.11.11,0,0,1-.11.11h-.65a.11.11,0,0,1-.11-.11v-.33a.11.11,0,0,1,.11-.11h.65a.11.11,0,0,1,.11.11Zm-.77,0h.65v-.33h-.65Z" style="fill: #fff"/>
      <path d="M53.21,161.7v.39a.06.06,0,1,1-.11,0v-.5h.37a.11.11,0,0,1,.13.13V162h.27v-.39a.06.06,0,0,1,.11,0V162a.12.12,0,0,1,0,.09.12.12,0,0,1-.1,0h-.23a.12.12,0,0,1-.13-.13v-.32Z" style="fill: #fff"/>
    </g>
    <g>
      <path d="M49,161.77s-.08,0-.08-.05,0-.05.07-.05h0l-.07-.08a.16.16,0,0,1,0-.1v-.09a.14.14,0,0,1,0-.11.16.16,0,0,1,.12,0s.08,0,.08.05,0,.06-.07.06h0s0,0,0,.07v0a.09.09,0,0,0,0,.05l.13.15h.27s.07,0,.07.05,0,.05-.07.05Z" style="fill: #fff"/>
      <path d="M49,160.78s0,.06,0,.06,0,0,0,0l.12-.27a.16.16,0,0,1,.15-.11c.11,0,.16.07.16.18v.17a.19.19,0,0,1,0,.14s0,0-.06,0a.05.05,0,0,1-.05-.06.05.05,0,0,1,0,0,.11.11,0,0,0,0-.09v-.15s0-.09-.06-.09,0,0-.05.06l-.12.25a.13.13,0,0,1-.13.09.14.14,0,0,1-.14-.15v-.19a.15.15,0,0,1,0-.12s0,0,.06,0a.05.05,0,0,1,.05.05.06.06,0,0,1,0,0,.08.08,0,0,0,0,.07Z" style="fill: #fff"/>
    </g>
    <g>
      <path d="M65.65,105.89h-.23a.06.06,0,0,1,0-.11h.28a.05.05,0,0,1,.06.06v.45a.06.06,0,0,1-.11,0v-.17H65v.17a.06.06,0,0,1-.11,0V106h.77Z" style="fill: #fff"/>
      <path d="M64.88,105.08A.11.11,0,0,1,65,105h.65a.11.11,0,0,1,.11.11v.33a.11.11,0,0,1-.11.11H65a.11.11,0,0,1-.11-.11Zm.77,0H65v.33h.65Z" style="fill: #fff"/>
      <path d="M65.65,104.6v-.39a.06.06,0,0,1,.11,0v.5H65.4a.11.11,0,0,1-.13-.13v-.32H65v.39a.06.06,0,0,1-.11,0v-.37a.12.12,0,0,1,0-.09.12.12,0,0,1,.1,0h.23a.12.12,0,0,1,.13.13v.32Z" style="fill: #fff"/>
    </g>
    <path d="M30.63,104.42a.06.06,0,0,1-.11,0v-.18c0-.05,0-.06,0-.08l-.2-.1-.08,0-.09,0-.2.1s0,0,0,.08v.19a.06.06,0,0,1-.11,0v-.19a.17.17,0,0,1,.11-.17l.21-.1a.25.25,0,0,1,.13,0,.25.25,0,0,1,.12,0l.21.1a.17.17,0,0,1,.11.17Z" style="fill: #fff"/>
    <path d="M29.71,103.28a.06.06,0,0,1,.11,0v.18c0,.05,0,.06,0,.08l.2.1.08,0,.09,0,.2-.1s0,0,0-.08v-.19a.06.06,0,0,1,.11,0v.19a.17.17,0,0,1-.11.17l-.21.1a.25.25,0,0,1-.13,0,.25.25,0,0,1-.12,0l-.21-.1a.17.17,0,0,1-.11-.17Z" style="fill: #fff"/>
    <g>
      <path d="M52.24,171.81v.62a.19.19,0,1,1-.39,0v-.61a.4.4,0,0,1,0-.15l.74-1.89c0-.1.07-.17.2-.17s.16.07.19.17l.74,1.89a.4.4,0,0,1,0,.15v.61a.19.19,0,1,1-.39,0v-.62l-.57-1.49Z" style="fill: #fff"/>
      <path d="M49.92,169.6a.58.58,0,0,1,.58.37l.36.72a.87.87,0,0,1,.11.41.84.84,0,0,1-.11.43l-.36.72a.59.59,0,0,1-.6.37h-.66a.19.19,0,1,1,0-.39h.65c.17,0,.19,0,.27-.16l.34-.68a.61.61,0,0,0,.08-.3.55.55,0,0,0-.08-.27l-.33-.67c-.08-.16-.12-.17-.29-.17h-.63a.18.18,0,0,1-.2-.19.19.19,0,0,1,.2-.19Z" style="fill: #fff"/>
      <path d="M47.11,169.6a.58.58,0,0,1,.58.37l.36.72a.87.87,0,0,1,.11.41.84.84,0,0,1-.11.43l-.36.72a.59.59,0,0,1-.6.37h-.66a.19.19,0,1,1,0-.39h.65c.17,0,.19,0,.27-.16l.34-.68a.61.61,0,0,0,.08-.3.55.55,0,0,0-.08-.27l-.33-.67c-.08-.16-.12-.17-.29-.17h-.63a.18.18,0,0,1-.2-.19.19.19,0,0,1,.2-.19Z" style="fill: #fff"/>
    </g>
    <g>
      <path d="M42.42,169.79a.19.19,0,0,1,.39,0v2.83H41.5a.59.59,0,0,1-.62-.56v-.27a.56.56,0,0,1,.62-.55h.36L41,170a.39.39,0,0,1-.1-.21.19.19,0,0,1,.2-.18.21.21,0,0,1,.17.11l1.07,1.53h.09Zm0,1.84h-.86c-.11,0-.28,0-.28.16v.27c0,.16.16.18.28.18h.87Z" style="fill: #fff"/>
      <path d="M39.26,171.11,40,172.3a.25.25,0,0,1,0,.14.19.19,0,0,1-.19.18c-.13,0-.17-.1-.23-.19L39,171.5l-.54.93c-.05.09-.1.19-.23.19a.19.19,0,0,1-.19-.18.25.25,0,0,1,0-.14l.69-1.19-.69-1.19a.25.25,0,0,1,0-.14.19.19,0,0,1,.19-.18c.13,0,.17.1.23.19l.54.93.54-.93c.05-.09.1-.19.23-.19a.19.19,0,0,1,.19.18.25.25,0,0,1,0,.14Z" style="fill: #fff"/>
    </g>
    <g>
      <path d="M34.92,172.23v-.14a.19.19,0,0,1,.39,0v.53H33.39v-.53a.19.19,0,0,1,.39,0v.14h.38v-2.44a.19.19,0,0,1,.39,0v2.44Z" style="fill: #fff"/>
      <path d="M31.77,171.11l.69,1.19a.25.25,0,0,1,0,.14.19.19,0,0,1-.19.18c-.13,0-.17-.1-.23-.19l-.54-.93-.54.93c-.05.09-.1.19-.23.19a.19.19,0,0,1-.19-.18.25.25,0,0,1,0-.14l.69-1.19-.69-1.19a.25.25,0,0,1,0-.14.19.19,0,0,1,.19-.18c.13,0,.17.1.23.19l.54.93.54-.93c.05-.09.1-.19.23-.19a.19.19,0,0,1,.19.18.25.25,0,0,1,0,.14Z" style="fill: #fff"/>
    </g>
    <g>
      <path d="M28,170.4a.19.19,0,1,1,0,.39h-.77V170a.58.58,0,0,1,.62-.61h.67a.59.59,0,0,1,.45.16.56.56,0,0,1,.18.48v1a.8.8,0,0,1-.2.57l-.46.59a.59.59,0,0,1-.54.26h-.52a.19.19,0,1,1,0-.39h.47c.21,0,.2,0,.33-.16l.42-.54a.74.74,0,0,0,.12-.51v-.76c0-.21,0-.28-.27-.28h-.62c-.14,0-.26,0-.26.2v.4Z" style="fill: #fff"/>
      <path d="M24.76,172.24a.19.19,0,1,1-.39,0V169.4h.51l1,2.33h0V169.6a.19.19,0,0,1,.39,0v2.83h-.51l-1-2.36h0Z" style="fill: #fff"/>
      <path d="M23.11,172h.14c.13,0,.24,0,.24.19s-.11.2-.23.2h-.65A.58.58,0,0,1,22,172l-.34-.69a.9.9,0,0,1,0-.88l.35-.71a.59.59,0,0,1,.61-.37h.65a.19.19,0,0,1,0,.39h-.19Zm-.39-2.25h-.07c-.16,0-.2,0-.27.16l-.34.69a.54.54,0,0,0-.07.25.64.64,0,0,0,.1.32l.32.66c.08.17.12.16.3.16h0Z" style="fill: #fff"/>
    </g>
    <g>
      <path d="M7.62,143.43a.19.19,0,1,1-.39,0v-.77H8a.58.58,0,0,1,.61.62V144a.59.59,0,0,1-.16.45.56.56,0,0,1-.48.18H7a.8.8,0,0,1-.57-.2l-.59-.46a.59.59,0,0,1-.26-.54v-.52a.19.19,0,1,1,.39,0v.47c0,.21,0,.2.16.33l.54.42a.74.74,0,0,0,.51.12h.76c.21,0,.28,0,.28-.27v-.62c0-.14,0-.26-.2-.26h-.4Z" style="fill: #fff"/>
      <path d="M8.41,140.62a.19.19,0,0,1,0,.39H7.17l-1,.77h-.4a.19.19,0,1,1,0-.39H6l.74-.57L6,140.24H5.77a.19.19,0,1,1,0-.39h.4l1,.77Z" style="fill: #fff"/>
      <path d="M6.86,137.55c0-.16.06-.23.24-.23s.24.07.24.23v.91c0,.16-.06.23-.24.23s-.24-.07-.24-.23Z" style="fill: #fff"/>
      <path d="M7.62,135a.19.19,0,1,1-.39,0v-.77H8a.58.58,0,0,1,.61.62v.67a.59.59,0,0,1-.16.45.56.56,0,0,1-.48.18H7a.8.8,0,0,1-.57-.2l-.59-.46a.59.59,0,0,1-.26-.54v-.52a.19.19,0,1,1,.39,0v.47c0,.21,0,.2.16.33l.54.42a.74.74,0,0,0,.51.12h.76c.21,0,.28,0,.28-.27v-.62c0-.14,0-.26-.2-.26h-.4Z" style="fill: #fff"/>
      <path d="M8.41,133a.19.19,0,0,1,0,.39H5.58v-1.29a.57.57,0,0,1,.16-.45.59.59,0,0,1,.51-.18h.53a.64.64,0,0,1,.5.16.6.6,0,0,1,.19.52V133Zm-1.34,0v-.86c0-.23-.06-.28-.28-.28H6.25c-.22,0-.28.05-.28.28V133Z" style="fill: #fff"/>
      <path d="M7.84,128.76a.5.5,0,0,1,.32-.14.44.44,0,0,1,.44.49V130a.57.57,0,0,1-.12.39.49.49,0,0,1-.36.18.21.21,0,0,1-.23-.21.19.19,0,0,1,.2-.18c.12,0,.13-.06.13-.17v-.84s0-.13,0-.13-.09.05-.11.07l-1.72,1.33a.47.47,0,0,1-.32.13.43.43,0,0,1-.37-.21.52.52,0,0,1-.07-.32v-.83a.55.55,0,0,1,.13-.38.53.53,0,0,1,.37-.18.2.2,0,0,1,.23.2.17.17,0,0,1-.18.19c-.13,0-.15.07-.15.19V130s0,.13.05.13.08,0,.1-.06Z" style="fill: #fff"/>
      <path d="M7.23,127.35v-1.3c0-.2.08-.23.26-.23h.87c.18,0,.25.08.25.25v1.42c0,.18-.07.25-.25.25H5.77c-.09,0-.19,0-.19-.17v-.23a.19.19,0,0,1,.19-.18.19.19,0,0,1,.19.19Zm.39,0h.6v-1.14h-.6Z" style="fill: #fff"/>
      <path d="M5.58,123.5V123H8.41a.19.19,0,0,1,0,.39H6.12l.55.37h.06c.12,0,.23,0,.23.2s-.11.19-.23.19H6.67l-.55.37h2.3a.19.19,0,0,1,0,.39H5.58v-.49l.69-.47Z" style="fill: #fff"/>
      <path d="M6.4,120.6H5.77a.19.19,0,1,1,0-.39h.61a.4.4,0,0,1,.15,0l1.89.74c.1,0,.17.07.17.2s-.07.16-.17.19l-1.89.74a.4.4,0,0,1-.15,0H5.77a.19.19,0,1,1,0-.39H6.4l1.49-.57Z" style="fill: #fff"/>
      <path d="M8.22,118.93V117.6a.19.19,0,1,1,.39,0v1.73H7.34a.39.39,0,0,1-.44-.44v-1.09H6v1.34a.19.19,0,0,1-.39,0v-1.29A.4.4,0,0,1,6,117.4h.8a.4.4,0,0,1,.46.44v1.1Z" style="fill: #fff"/>
    </g>
    <g>
      <path d="M65.92,123.88c.05,0,.1,0,.1.1s0,.09-.1.1l-1.29.37s-.1,0-.1-.09a.11.11,0,0,1,.1-.1l.23-.07v-.41l-.23-.07a.11.11,0,0,1-.1-.1c0-.05,0-.1.1-.09Zm-.35.1h0l-.52-.15v.3Z" style="fill: #4b4e50"/>
      <path d="M65.21,125.07v.64c0,.1,0,.12-.13.12h-.43c-.09,0-.12,0-.12-.12V125c0-.09,0-.12.12-.12h1.27s.1,0,.1.08v.11a.09.09,0,0,1-.1.09.09.09,0,0,1-.1-.1Zm-.19,0h-.29v.56H65Z" style="fill: #4b4e50"/>
      <path d="M64.72,127h.39a.1.1,0,0,1,0,.19h-.48a.09.09,0,0,1-.1-.1v-.75a.1.1,0,0,1,.19,0v.28h1.1v-.28a.1.1,0,0,1,.19,0v.47H64.72Z" style="fill: #4b4e50"/>
      <path d="M65.83,127.81a.1.1,0,0,1,0-.19h.1a.1.1,0,0,1,.1.09v.85h-.55c-.07,0-.07,0-.12-.05l-.23-.27s0-.05-.11-.05h-.37a.1.1,0,0,1,0-.19h.46a.1.1,0,0,1,.11,0l.23.26c.06.06.05.06.14.06h.26Z" style="fill: #4b4e50"/>
    </g>
    <g>
      <path d="M68.58,123.27h.55s.1,0,.1.09,0,.09-.1.09h-.55a.1.1,0,0,1-.19,0H68c-.06,0-.1,0-.1-.09s0-.09.1-.09h.39v-.51h.9s.1,0,.1.09,0,.09-.1.09h-.71Z" style="fill: #4b4e50"/>
      <path d="M69.2,124a.1.1,0,0,1,.19,0v.59a.18.18,0,0,1-.19.17h-.37a.23.23,0,0,1-.18-.07.23.23,0,0,1-.19.07H68.1a.18.18,0,0,1-.19-.17V124a.1.1,0,0,1,.19,0v.59h.32c.11,0,.14,0,.14-.09v-.34a.1.1,0,0,1,.19,0v.34s0,.09.14.09h.32Z" style="fill: #4b4e50"/>
      <path d="M68.1,125.34v.59a.1.1,0,0,1-.19,0v-.76h.62c.14,0,.21.07.21.19v.48h.46v-.59a.1.1,0,0,1,.19,0v.57a.17.17,0,0,1-.05.14.22.22,0,0,1-.17.05h-.39a.22.22,0,0,1-.17-.05.17.17,0,0,1-.05-.14v-.49Z" style="fill: #4b4e50"/>
      <path d="M68,126.59c-.06,0-.1,0-.1-.09s0-.09.1-.09h1.39V127a.27.27,0,0,1-.28.27H69a.26.26,0,0,1-.27-.27v-.16l-.61.39a.2.2,0,0,1-.1,0,.09.09,0,0,1-.09-.09.09.09,0,0,1,.05-.08l.75-.48v0Zm.9,0V127s0,.12.08.12h.13c.08,0,.09-.07.09-.12v-.38Z" style="fill: #4b4e50"/>
      <path d="M69.2,127.83h-.07c-.06,0-.1,0-.1-.09s0-.09.1-.09h.26v.85h-.26c-.06,0-.1,0-.1-.09s0-.09.1-.09h.07v-.17H68c-.06,0-.1,0-.1-.09s0-.09.1-.09h1.2Z" style="fill: #4b4e50"/>
    </g>
    <g>
      <path d="M53.38,123.5v.57c0,.08,0,.14-.13.14s-.13-.06-.13-.14v-.71a.12.12,0,0,1,.13-.14h1a.14.14,0,0,1,0,.28h-.38v1.63h.38a.14.14,0,0,1,0,.28h-.64V123.5Z"/>
      <path d="M51.65,124.22V125a.13.13,0,1,1-.26,0v-.82a.14.14,0,0,1,0-.28v-.58c0-.09,0-.14.13-.14s.13.05.13.14v.58h.76v1.34a.12.12,0,0,1-.13.14c-.1,0-.13-.07-.13-.14v-1.06Z"/>
      <path d="M49.8,124.22V125a.13.13,0,1,1-.26,0v-.82a.14.14,0,0,1,0-.28v-.58c0-.09,0-.14.13-.14s.13.05.13.14v.58h.76v1.34a.12.12,0,0,1-.13.14c-.1,0-.13-.07-.13-.14v-1.06Z"/>
      <path d="M48.58,124.22h-.86c-.13,0-.16-.06-.16-.19v-.63c0-.13.05-.18.17-.18h.94c.12,0,.17,0,.17.18v1.88c0,.07,0,.14-.11.14h-.15a.13.13,0,0,1-.12-.14.13.13,0,0,1,.13-.14Zm0-.28v-.43h-.76v.43Z"/>
    </g>
    <g>
      <path d="M54.14,127.42h-.89a.14.14,0,0,1,0-.28h1.15v.92c0,.21-.1.32-.29.32h-.72v.67h.89a.14.14,0,0,1,0,.28h-.86a.26.26,0,0,1-.21-.08.31.31,0,0,1-.08-.25v-.58a.31.31,0,0,1,.08-.25.26.26,0,0,1,.21-.08h.73Z"/>
      <path d="M51.65,128.14V129a.13.13,0,1,1-.26,0v-.82a.14.14,0,0,1,0-.28v-.58c0-.09,0-.14.13-.14s.13.05.13.14v.58h.76v1.34a.12.12,0,0,1-.13.14c-.1,0-.13-.07-.13-.14v-1.06Z"/>
      <path d="M50.43,127.42h-.89a.14.14,0,0,1,0-.28h1.15v.92c0,.21-.1.32-.29.32h-.72v.67h.89a.14.14,0,0,1,0,.28H49.7a.26.26,0,0,1-.21-.08.31.31,0,0,1-.08-.25v-.58a.31.31,0,0,1,.08-.25.26.26,0,0,1,.21-.08h.73Z"/>
      <path d="M48.71,129.05a.14.14,0,0,1,0,.28h-.89a.27.27,0,0,1-.26-.28v-.54a.42.42,0,0,0,0-.55v-.54a.27.27,0,0,1,.26-.28h.89a.14.14,0,0,1,0,.28h-.89v.47c0,.16.06.21.13.21h.51a.14.14,0,0,1,0,.28h-.51c-.07,0-.13,0-.13.21v.47Z"/>
      <path d="M46.1,128.14V129a.13.13,0,1,1-.26,0v-.82a.14.14,0,0,1,0-.28v-.58c0-.09,0-.14.13-.14s.13.05.13.14v.58h.76v1.34a.12.12,0,0,1-.13.14c-.1,0-.13-.07-.13-.14v-1.06Z"/>
      <path d="M45,129.05a.14.14,0,0,1,0,.28h-.89a.27.27,0,0,1-.26-.28v-.54a.42.42,0,0,0,0-.55v-.54a.27.27,0,0,1,.26-.28H45a.14.14,0,0,1,0,.28h-.89v.47c0,.16.06.21.13.21h.51a.14.14,0,0,1,0,.28h-.51c-.07,0-.13,0-.13.21v.47Z"/>
      <path d="M43,129.05a.13.13,0,1,1,.26,0v.14a.14.14,0,0,1-.13.14H42v-.82c0-.1,0-.11.07-.18l.36-.34a.17.17,0,0,0,.07-.17v-.55c0-.09,0-.14.13-.14s.13.05.13.14V128a.16.16,0,0,1-.07.16l-.36.34c-.08.08-.08.08-.08.2v.39Z"/>
      <path d="M40.41,127.42V128c0,.08,0,.14-.13.14s-.13-.06-.13-.14v-.71a.12.12,0,0,1,.13-.14h1a.14.14,0,0,1,0,.28h-.38v1.63h.38a.14.14,0,0,1,0,.28h-.64v-1.91Z"/>
      <path d="M39.06,128.38h-.47a.25.25,0,0,1-.21-.08.29.29,0,0,1-.08-.24v-.6a.32.32,0,0,1,.06-.22.24.24,0,0,1,.22-.1h.57a.35.35,0,0,1,.17.05l.1,0c.07,0,.15.06.15.16a.14.14,0,0,1-.12.14l-.08,0-.08,0a.42.42,0,0,0-.14-.06h-.6v.67h.76v1.24h-.89a.14.14,0,0,1,0-.28h.63Z"/>
      <path d="M36.84,129.33a.13.13,0,0,1-.13-.14v-.82a.25.25,0,0,1-.19-.08.29.29,0,0,1-.07-.21v-.67a.25.25,0,0,1,.26-.28h.76a.25.25,0,0,1,.26.28v.67a.29.29,0,0,1-.07.21.25.25,0,0,1-.19.08v.82a.13.13,0,0,1-.13.14Zm-.13-1.91v.67h.76v-.67Zm.26,1v.67h.24v-.67Z"/>
    </g>
    <g>
      <path d="M53.25,130.46a.14.14,0,0,1,0-.28h1.15v2.2H53.25a.14.14,0,0,1,0-.28h.89v-.67h-.38a.14.14,0,0,1,0-.28h.38v-.67Z"/>
      <path d="M51.33,131.58a.69.69,0,0,1-.07-.31.74.74,0,0,1,.08-.34l.24-.52a.33.33,0,0,1,.63,0l.24.52a.74.74,0,0,1,.09.34.69.69,0,0,1-.07.31l-.26.56a.33.33,0,0,1-.62,0Zm.48.43s0,.08.09.08.07,0,.09-.08l.23-.51a.48.48,0,0,0,.06-.23.41.41,0,0,0,0-.19l-.25-.54s0-.08-.09-.08-.07,0-.09.08l-.25.54a.41.41,0,0,0,0,.19.47.47,0,0,0,.06.23Z"/>
      <path d="M49.67,132.23c0,.09,0,.14-.13.14s-.13-.05-.13-.14v-2.05h.34l.67,1.69h0v-1.55c0-.09,0-.14.13-.14s.13.05.13.14v2.05h-.34l-.67-1.71h0Z"/>
      <path d="M47.9,131.45c-.11,0-.15,0-.15-.17s0-.17.15-.17h.6c.11,0,.16,0,.16.17s0,.17-.16.17Z"/>
      <path d="M46.73,131.18h-.86c-.13,0-.16-.06-.16-.19v-.63c0-.13.05-.18.17-.18h.94c.12,0,.17,0,.17.18v1.88c0,.07,0,.14-.11.14h-.15a.13.13,0,0,1-.12-.14.13.13,0,0,1,.13-.14Zm0-.28v-.43H46v.43Z"/>
      <path d="M44.18,132.37h-.32v-2.05c0-.09,0-.14.13-.14s.13.05.13.14V132h0l.25-.4v0c0-.09,0-.17.13-.17s.13.08.13.17v0l.25.4h0v-1.67c0-.09,0-.14.13-.14s.13.05.13.14v2.05h-.32l-.32-.5Z"/>
      <path d="M42.34,131.45c-.11,0-.15,0-.15-.17s0-.17.15-.17h.6c.11,0,.16,0,.16.17s0,.17-.16.17Z"/>
      <path d="M40.41,132.37a.27.27,0,0,1-.26-.28v-1.63a.27.27,0,0,1,.26-.28h.76a.27.27,0,0,1,.26.28v1.63a.27.27,0,0,1-.26.28Zm0-1.91v1.63h.76v-1.63Z"/>
      <path d="M38.64,131.45c-.11,0-.15,0-.15-.17s0-.17.15-.17h.6c.11,0,.15,0,.15.17s0,.17-.15.17Z"/>
      <path d="M36.71,132.37a.27.27,0,0,1-.26-.28v-1.63a.27.27,0,0,1,.26-.28h.76a.27.27,0,0,1,.26.28v1.63a.27.27,0,0,1-.26.28Zm0-1.91v1.63h.76v-1.63Z"/>
      <path d="M34.85,132.37a.27.27,0,0,1-.26-.28v-1.63a.27.27,0,0,1,.26-.28h.76a.27.27,0,0,1,.26.28v1.63a.27.27,0,0,1-.26.28Zm0-1.91v1.63h.76v-1.63Z"/>
      <path d="M33,130.46V131c0,.08,0,.14-.13.14s-.13-.06-.13-.14v-.71a.12.12,0,0,1,.13-.14h1a.14.14,0,0,1,0,.28h-.38v1.63h.38a.14.14,0,0,1,0,.28h-.64v-1.91Z"/>
    </g>
    <g>
      <path d="M53.38,122.22a.27.27,0,0,1-.26-.28V120.3a.27.27,0,0,1,.26-.28h.76a.27.27,0,0,1,.26.28v1.63a.27.27,0,0,1-.26.28Zm0-1.91v1.63h.76V120.3Z"/>
      <path d="M52.41,121.93a.14.14,0,0,1,0,.28h-.89a.27.27,0,0,1-.26-.28v-.54a.42.42,0,0,0,0-.55v-.54a.27.27,0,0,1,.26-.28h.89a.14.14,0,0,1,0,.28h-.89v.47c0,.16.06.21.13.21h.51a.14.14,0,0,1,0,.28h-.51c-.07,0-.13,0-.13.21v.47Z"/>
      <path d="M49.67,122.22a.27.27,0,0,1-.26-.28V120.3a.27.27,0,0,1,.26-.28h.76a.27.27,0,0,1,.26.28v1.63a.27.27,0,0,1-.26.28Zm0-1.91v1.63h.76V120.3Z"/>
      <path d="M47.82,122.22a.27.27,0,0,1-.26-.28V120.3a.27.27,0,0,1,.26-.28h.76a.27.27,0,0,1,.26.28v1.63a.27.27,0,0,1-.26.28Zm0-1.91v1.63h.76V120.3Z"/>
    </g>
    <g>
      <path d="M44.29,122.22a.27.27,0,0,1-.26-.28V120.3a.27.27,0,0,1,.26-.28h.76a.27.27,0,0,1,.26.28v1.63a.27.27,0,0,1-.26.28Zm0-1.91v1.63h.76V120.3Z"/>
      <path d="M43.33,121.93a.14.14,0,0,1,0,.28h-.89a.27.27,0,0,1-.26-.28v-.54a.42.42,0,0,0,0-.55v-.54a.27.27,0,0,1,.26-.28h.89a.14.14,0,0,1,0,.28h-.89v.47c0,.16.06.21.13.21h.51a.14.14,0,0,1,0,.28h-.51c-.07,0-.13,0-.13.21v.47Z"/>
    </g>
    <path d="M48.11,115.64a.21.21,0,0,1,.21.15l.13.29a.38.38,0,0,1,0,.16.37.37,0,0,1,0,.17l-.13.29a.21.21,0,0,1-.22.15h-.24a.08.08,0,0,1,0-.16h.24c.06,0,.07,0,.1-.07l.12-.27a.26.26,0,0,0,0-.12.24.24,0,0,0,0-.11l-.12-.27c0-.06,0-.07-.11-.07h-.23a.07.07,0,0,1-.07-.08.07.07,0,0,1,.07-.08Z"/>
    <g>
      <path d="M23.58,136.79a.16.16,0,0,1-.15-.16v-.94a.15.15,0,0,1,.15-.16H24a.15.15,0,0,1,.15.16v.94a.16.16,0,0,1-.15.16Zm0-1.11v.94H24v-.94Z"/>
      <path d="M22.59,136.1v.47s0,.08-.07.08-.07,0-.07-.08v-.47a.07.07,0,0,1-.07-.08.07.07,0,0,1,.07-.08v-.33c0-.05,0-.08.07-.08s.07,0,.07.08v.33H23v.77s0,.08-.07.08-.07,0-.07-.08v-.61Z"/>
    </g>
    <g>
      <path d="M30.43,135.68c0-.07,0-.11.1-.11s.1,0,.1.11v1.62H30a.28.28,0,0,1-.23-.09.36.36,0,0,1-.09-.29v-.3a.39.39,0,0,1,.08-.29.29.29,0,0,1,.27-.11h.44Zm0,.77H30c-.12,0-.15,0-.15.16v.31c0,.13,0,.16.15.16h.45Z"/>
      <path d="M29,136.61l0,0c-.06.07-.1.12-.19.12h-.21a.22.22,0,0,1-.14-.08l-.07-.06a.29.29,0,0,1-.1-.25V136a.3.3,0,0,1,.1-.25l.07-.06a.25.25,0,0,1,.15-.08h.2a.27.27,0,0,1,.19.11l0,0h0c0-.07,0-.14.1-.14s.1.08.1.15v1.35c0,.07,0,.15-.1.15s-.1-.07-.1-.15Zm0-.53a.15.15,0,0,0-.06-.14l-.11-.1s-.05-.05-.07-.05h-.15l-.06,0-.08.08s0,.07,0,.11v.38a.12.12,0,0,0,0,.09l.09.08,0,0h.13a.12.12,0,0,0,.08,0l.13-.12a.15.15,0,0,0,.06-.13Z"/>
    </g>
  </g>
  <g id="Connectors">
    <circle cx="26.03" cy="177.27" data-cir-type="male" id="circuitoCon_GND" r="1.36" style="fill: none"/>
    <circle cx="33.23" cy="177.27" data-cir-type="male" id="circuitoCon_TX" r="1.36" style="fill: none"/>
    <circle cx="40.43" cy="177.27" data-cir-type="male" id="circuitoCon_RX" r="1.36" style="fill: none"/>
    <circle cx="47.63" cy="177.27" data-cir-type="male" id="circuitoCon_VCC" r="1.36" style="fill: none"/>
  </g>
</svg>