<?xml version="1.0" ?><svg height="16.51mm" viewBox="0 0 50.13 46.79" width="17.68mm" xmlns="http://www.w3.org/2000/svg">
  <title>Adafruit BME680 - Temperature, Humidity, Pressure and Gas Sensor</title>
  <g id="HOLES">
    <path d="M43.06,0h-36A7.06,7.06,0,0,0,0,7.06V39.73a7.06,7.06,0,0,0,7.06,7.06h36a7.07,7.07,0,0,0,7.07-7.06V7.06A7.07,7.07,0,0,0,43.06,0Zm.56,4.33A3.68,3.68,0,1,1,40,8,3.68,3.68,0,0,1,43.62,4.33ZM40.09,30.16a.76.76,0,1,1-.75.76A.76.76,0,0,1,40.09,30.16Zm-1.72-8.47a.76.76,0,1,1-.76.75A.76.76,0,0,1,38.37,21.69ZM33,22.17a.76.76,0,1,1,0,1.51.76.76,0,0,1,0-1.51Zm-7.79,13a.76.76,0,0,1,.76.76.76.76,0,1,1-.76-.76Zm-6.29-17.4a.75.75,0,0,1,.75.75.76.76,0,1,1-.75-.75Zm-1,14.4a.76.76,0,1,1-.76.76A.76.76,0,0,1,18,32.18ZM3.68,42.69a2,2,0,1,1,2-2A2,2,0,0,1,3.68,42.69ZM3.57,8a3.68,3.68,0,1,1,3.68,3.67A3.68,3.68,0,0,1,3.57,8Zm7.37,34.68a2,2,0,1,1,2-2A2,2,0,0,1,10.94,42.69ZM13,29.35a.76.76,0,1,1,.75-.75A.76.76,0,0,1,13,29.35Zm5.19,13.34a2,2,0,1,1,2-2A2,2,0,0,1,18.19,42.69Zm7.25,0a2,2,0,1,1,2-2A2,2,0,0,1,25.44,42.69Zm2.52-14a.76.76,0,1,1,.75-.75A.76.76,0,0,1,28,28.73Zm4.61,14a2,2,0,1,1,2-2A2,2,0,0,1,32.57,42.69Zm4.63-6.75a.76.76,0,0,1,.76-.76.75.75,0,0,1,.75.76.74.74,0,0,1-.75.75A.75.75,0,0,1,37.2,35.94Zm2.57,6.75a2,2,0,1,1,2-2A2,2,0,0,1,39.77,42.69Zm3.15-24.36a.76.76,0,1,1,.76-.76A.76.76,0,0,1,42.92,18.33Zm4,24.36a2,2,0,1,1,2-2A2,2,0,0,1,47,42.69Z" style="fill: #1a2c80"/>
  </g>
  <g id="LINMES">
    <polyline points="4.26 16.94 4.26 15.81 5.17 14.89 11.31 14.89 18.19 22.24 18.19 28.11" style="fill: none;stroke: #0b5597;stroke-linecap: round;stroke-linejoin: round;stroke-width: 0.5px"/>
    <polyline points="18.19 23.25 20.23 23.25 21.38 23.59" style="fill: none;stroke: #0b5597;stroke-linecap: round;stroke-linejoin: round;stroke-width: 0.5px"/>
    <polyline points="21.67 19.49 20.23 20.87 20.23 23.25" style="fill: none;stroke: #0b5597;stroke-linecap: round;stroke-linejoin: round;stroke-width: 0.5px"/>
    <line style="fill: none;stroke: #0b5597;stroke-linecap: round;stroke-linejoin: round;stroke-width: 0.5px" x1="12.93" x2="12.93" y1="24.76" y2="27.48"/>
    <polyline points="9.81 30.13 11.58 30.13 12.18 29.53" style="fill: none;stroke: #0b5597;stroke-linecap: round;stroke-linejoin: round;stroke-width: 0.5px"/>
    <line style="fill: none;stroke: #0b5597;stroke-linecap: round;stroke-linejoin: round;stroke-width: 0.5px" x1="6.44" x2="8.74" y1="26.97" y2="28.99"/>
    <line style="fill: none;stroke: #0b5597;stroke-linecap: round;stroke-linejoin: round;stroke-width: 0.5px" x1="4.17" x2="4.17" y1="26.26" y2="29.53"/>
    <polyline points="17.31 29.33 14.88 31.72 14.88 36.69 12.61 38.96" style="fill: none;stroke: #0b5597;stroke-linecap: round;stroke-linejoin: round;stroke-width: 0.5px"/>
    <polyline points="22.24 30.16 22.24 32.74 24.49 34.98" style="fill: none;stroke: #0b5597;stroke-linecap: round;stroke-linejoin: round;stroke-width: 0.5px"/>
    <polyline points="25.31 26.53 25.31 29.53 26.44 30.66 29.16 30.66 31.37 28.44" style="fill: none;stroke: #0b5597;stroke-linecap: round;stroke-linejoin: round;stroke-width: 0.5px"/>
    <polyline points="32.01 30.52 32.01 33.88 27 38.89" style="fill: none;stroke: #0b5597;stroke-linecap: round;stroke-linejoin: round;stroke-width: 0.5px"/>
    <polyline points="32.01 32.34 37.78 32.34 39.1 33.66 41.17 33.66 42.79 32.04 42.79 29.77" style="fill: none;stroke: #0b5597;stroke-linecap: round;stroke-linejoin: round;stroke-width: 0.5px"/>
    <polyline points="44.8 29.83 44.8 34.14 43 35.94 39.23 35.94" style="fill: none;stroke: #0b5597;stroke-linecap: round;stroke-linejoin: round;stroke-width: 0.5px"/>
    <polyline points="37.51 26.04 40.5 23.05 41.82 23.05" style="fill: none;stroke: #0b5597;stroke-linecap: round;stroke-linejoin: round;stroke-width: 0.5px"/>
    <polyline points="41.88 25.25 40.88 25.25 40.09 26.26 40.09 29.77" style="fill: none;stroke: #0b5597;stroke-linecap: round;stroke-linejoin: round;stroke-width: 0.5px"/>
    <polyline points="37.4 30.66 38 30.88 38.94 30.88" style="fill: none;stroke: #0b5597;stroke-linecap: round;stroke-linejoin: round;stroke-width: 0.5px"/>
    <polyline points="34.56 26.12 34.56 25.25 35.63 24.14 35.63 21.43 38.2 18.77" style="fill: none;stroke: #0b5597;stroke-linecap: round;stroke-linejoin: round;stroke-width: 0.5px"/>
    <polyline points="38.94 17.56 41.66 15.13 45.34 15.13 47.22 17 47.22 18.83" style="fill: none;stroke: #0b5597;stroke-linecap: round;stroke-linejoin: round;stroke-width: 0.5px"/>
    <polyline points="47.84 20.32 49.31 20.32 49.31 25.25 48.16 25.25" style="fill: none;stroke: #0b5597;stroke-linecap: round;stroke-linejoin: round;stroke-width: 0.5px"/>
    <line style="fill: none;stroke: #0b5597;stroke-linecap: round;stroke-linejoin: round;stroke-width: 0.5px" x1="41.56" x2="39.66" y1="20.4" y2="22"/>
    <polyline points="29.31 22 30.56 20 30.56 16.48" style="fill: none;stroke: #0b5597;stroke-linecap: round;stroke-linejoin: round;stroke-width: 0.5px"/>
    <line style="fill: none;stroke: #0b5597;stroke-linecap: round;stroke-linejoin: round;stroke-width: 0.5px" x1="28.73" x2="31.53" y1="23.41" y2="23.41"/>
    <line style="fill: none;stroke: #0b5597;stroke-linecap: round;stroke-linejoin: round;stroke-width: 0.5px" x1="32.22" x2="32.22" y1="23.76" y2="26.14"/>
    <line style="fill: none;stroke: #0b5597;stroke-linecap: round;stroke-linejoin: round;stroke-width: 0.5px" x1="30.56" x2="34.16" y1="18.39" y2="18.39"/>
    <line style="fill: none;stroke: #0b5597;stroke-linecap: round;stroke-linejoin: round;stroke-width: 0.5px" x1="19.78" x2="21.22" y1="17.76" y2="15.96"/>
    <line style="fill: none;stroke: #0b5597;stroke-linecap: round;stroke-linejoin: round" x1="17.97" x2="17.97" y1="34.02" y2="38.31"/>
    <line style="fill: none;stroke: #0b5597;stroke-linecap: round;stroke-linejoin: round;stroke-width: 0.5px" x1="3.68" x2="3.68" y1="31.98" y2="38.31"/>
    <circle cx="37.96" cy="35.94" r="0.96" style="fill: none;stroke: #0b5597;stroke-linecap: round;stroke-linejoin: round;stroke-width: 0.5px"/>
    <circle cx="25.22" cy="35.94" r="0.96" style="fill: none;stroke: #0b5597;stroke-linecap: round;stroke-linejoin: round;stroke-width: 0.5px"/>
    <circle cx="17.97" cy="32.94" r="0.96" style="fill: none;stroke: #0b5597;stroke-linecap: round;stroke-linejoin: round;stroke-width: 0.5px"/>
    <circle cx="27.96" cy="27.98" r="0.96" style="fill: none;stroke: #0b5597;stroke-linecap: round;stroke-linejoin: round;stroke-width: 0.5px"/>
    <circle cx="13" cy="28.6" r="0.96" style="fill: none;stroke: #0b5597;stroke-linecap: round;stroke-linejoin: round;stroke-width: 0.5px"/>
    <circle cx="18.93" cy="18.53" r="0.96" style="fill: none;stroke: #0b5597;stroke-linecap: round;stroke-linejoin: round;stroke-width: 0.5px"/>
    <circle cx="33.01" cy="22.93" r="0.96" style="fill: none;stroke: #0b5597;stroke-linecap: round;stroke-linejoin: round;stroke-width: 0.5px"/>
    <circle cx="38.37" cy="22.44" r="0.96" style="fill: none;stroke: #0b5597;stroke-linecap: round;stroke-linejoin: round;stroke-width: 0.5px"/>
    <circle cx="42.92" cy="17.57" r="0.96" style="fill: none;stroke: #0b5597;stroke-linecap: round;stroke-linejoin: round;stroke-width: 0.5px"/>
    <circle cx="40.09" cy="30.92" r="0.96" style="fill: none;stroke: #0b5597;stroke-linecap: round;stroke-linejoin: round;stroke-width: 0.5px"/>
    <g>
      <path d="M19.65,12.64a2.89,2.89,0,0,0-2.57-.34,4.3,4.3,0,0,0-.32-2.37c-.16-.55-.42-.74-.87,0a2.56,2.56,0,0,0-1,2.12c-.44-.63-1.32-.68-2.35-.54-.69,0-.76.36-.41.84a3,3,0,0,0,1.37,1.51c.34,0,.52.13.24.25a3.15,3.15,0,0,0-1.06,2.16c-.17.69.15.7.66.43a2.85,2.85,0,0,0,1.85-.87c.19-.2.34-.32.34-.11a.65.65,0,0,0,.21.54,6.14,6.14,0,0,0,1.52,1.21c.38.27.55.15.55-.31s.11-.74.14-1a2.09,2.09,0,0,0-.08-.94c0-.08-.07-.15-.09-.2l-.25-.19c-.24-.24-.17-.34.18-.29a2.49,2.49,0,0,0,1.91-1C20.07,13.15,20,12.87,19.65,12.64Z" style="fill: #fff"/>
      <path d="M14.51,13.13a1.93,1.93,0,0,1-.87-.27,2.07,2.07,0,0,1-.67-.62,2,2,0,0,1,.87.28A2.15,2.15,0,0,1,14.51,13.13Z" style="fill: #003481"/>
      <path d="M18.73,13.19A2.12,2.12,0,0,1,17,13.4a2.22,2.22,0,0,1,.86-.3A2.05,2.05,0,0,1,18.73,13.19Z" style="fill: #003481"/>
      <path d="M15.92,12.51a2,2,0,0,1-.07-.9,2,2,0,0,1,.31-.86,1.92,1.92,0,0,1,.08.91A2,2,0,0,1,15.92,12.51Z" style="fill: #003481"/>
      <path d="M17.14,16.12a2.09,2.09,0,0,1-.65-.64,2,2,0,0,1-.33-.85,1.9,1.9,0,0,1,.65.64A1.94,1.94,0,0,1,17.14,16.12Z" style="fill: #003481"/>
      <path d="M13.74,15.81A2.12,2.12,0,0,1,15,14.54a2,2,0,0,1-.48.77A1.94,1.94,0,0,1,13.74,15.81Z" style="fill: #003481"/>
    </g>
  </g>
  <g id="CIRCLS">
    <polygon points="19.94 14.84 19.94 17.09 20.77 17.09 21.18 16.68 29.53 16.68 29.96 17.1 30.75 17.1 30.75 14.73 30.2 14.73 29.06 14.09 28.59 14.09 28.59 13.63 22.24 13.63 22.24 14.16 19.94 14.84" style="fill: #a9a2b0"/>
    <rect height="3.6" style="fill: #2e2928" width="4.68" x="22.99" y="14.16"/>
    <rect height="8.78" style="fill: #fcf8f4" width="8.78" x="20.92" y="18.39"/>
    <rect height="8.38" rx="1.23" ry="1.23" style="fill: #977972" width="8.75" x="20.93" y="18.59"/>
    <circle cx="35.87" cy="13.3" r="2.25" style="fill: #536c6e"/>
    <path d="M7.25,3.47A4.54,4.54,0,1,0,11.78,8,4.54,4.54,0,0,0,7.25,3.47Zm0,7.68A3.15,3.15,0,1,1,10.39,8,3.15,3.15,0,0,1,7.25,11.15Z" style="fill: #e2bd80"/>
    <path d="M43.62,3.47A4.54,4.54,0,1,0,48.16,8,4.54,4.54,0,0,0,43.62,3.47Zm0,7.68A3.15,3.15,0,1,1,46.77,8,3.15,3.15,0,0,1,43.62,11.15Z" style="fill: #e2bd80"/>
    <circle cx="43.62" cy="8.01" r="5.49" style="fill: none;stroke: #fff;stroke-miterlimit: 10;stroke-width: 0.5px"/>
    <circle cx="7.5" cy="8.01" r="5.49" style="fill: none;stroke: #fff;stroke-miterlimit: 10;stroke-width: 0.5px"/>
    <circle cx="35.87" cy="13.3" r="1.34" style="fill: #eacb8c"/>
    <circle cx="11.45" cy="35.36" r="2.25" style="fill: #536c6e"/>
    <circle cx="11.45" cy="35.36" r="1.34" style="fill: #eacb8c"/>
    <g>
      <rect height="1.64" style="fill: #b1aeaa" transform="translate(35.66 16.62) rotate(90)" width="2.14" x="8.46" y="25.32"/>
      <rect height="1.17" style="fill: #bcbcbc" transform="translate(34.1 15.09) rotate(90)" width="0.96" x="9.03" y="24.01"/>
      <rect height="1.64" style="fill: #b1aeaa" transform="translate(32.98 19.31) rotate(90)" width="2.14" x="5.77" y="25.32"/>
      <rect height="1.17" style="fill: #bcbcbc" transform="translate(31.42 17.77) rotate(90)" width="0.96" x="6.34" y="24.01"/>
      <rect height="1.64" style="fill: #b1aeaa" transform="translate(30.32 21.96) rotate(90)" width="2.14" x="3.11" y="25.32"/>
      <rect height="1.17" style="fill: #bcbcbc" transform="translate(28.76 20.43) rotate(90)" width="0.96" x="3.69" y="24.01"/>
      <rect height="1.64" style="fill: #b1aeaa" transform="translate(-13.21 21.72) rotate(-90)" width="2.14" x="3.19" y="16.65"/>
      <rect height="1.17" style="fill: #bcbcbc" transform="translate(-14.74 23.28) rotate(-90)" width="0.96" x="3.79" y="18.43"/>
      <rect height="1.64" style="fill: #b1aeaa" transform="translate(-7.9 27.03) rotate(-90)" width="2.14" x="8.5" y="16.65"/>
      <rect height="1.17" style="fill: #bcbcbc" transform="translate(-9.43 28.59) rotate(-90)" width="0.96" x="9.1" y="18.43"/>
      <rect height="8" style="fill: #303030" transform="translate(28.51 15.09) rotate(90)" width="4.63" x="4.4" y="17.8"/>
    </g>
    <g>
      <rect height="1.35" style="fill: #b1aeaa" width="1.43" x="36.76" y="25.41"/>
      <rect height="0.97" style="fill: #bcbcbc" width="0.64" x="36.12" y="25.61"/>
      <rect height="1.35" style="fill: #b1aeaa" width="1.43" x="36.76" y="27.63"/>
      <rect height="0.97" style="fill: #bcbcbc" width="0.79" x="36.12" y="27.84"/>
      <rect height="1.35" style="fill: #b1aeaa" width="1.43" x="36.76" y="29.83"/>
      <rect height="0.97" style="fill: #bcbcbc" width="0.64" x="36.12" y="30.04"/>
      <rect height="1.35" style="fill: #b1aeaa" transform="translate(63.3 60.89) rotate(180)" width="1.43" x="30.93" y="29.77"/>
      <rect height="0.97" style="fill: #bcbcbc" transform="translate(65.38 60.86) rotate(180)" width="0.64" x="32.37" y="29.95"/>
      <rect height="1.35" style="fill: #b1aeaa" transform="translate(63.3 52.11) rotate(180)" width="1.43" x="30.93" y="25.38"/>
      <rect height="0.97" style="fill: #bcbcbc" transform="translate(65.38 52.09) rotate(180)" width="0.64" x="32.37" y="25.56"/>
      <rect height="1.35" style="fill: #b1aeaa" transform="translate(63.3 56.25) rotate(180)" width="1.43" x="30.93" y="27.45"/>
      <rect height="0.97" style="fill: #bcbcbc" transform="translate(65.38 56.22) rotate(180)" width="0.64" x="32.37" y="27.63"/>
      <rect height="6.62" style="fill: #303030" width="3.11" x="33.01" y="25.11"/>
    </g>
    <g>
      <g>
        <rect height="1.35" style="fill: #b1aeaa" transform="translate(83.77 50.87) rotate(180)" width="1.43" x="41.17" y="24.76"/>
        <rect height="0.97" style="fill: #bcbcbc" transform="translate(85.84 50.85) rotate(180)" width="0.64" x="42.6" y="24.94"/>
      </g>
      <g>
        <rect height="1.35" style="fill: #b1aeaa" transform="translate(83.77 55.91) rotate(180)" width="1.43" x="41.17" y="27.28"/>
        <rect height="0.97" style="fill: #bcbcbc" transform="translate(85.84 55.89) rotate(180)" width="0.64" x="42.6" y="27.46"/>
      </g>
      <g>
        <rect height="1.35" style="fill: #b1aeaa" transform="translate(83.77 40.79) rotate(180)" width="1.43" x="41.17" y="19.72"/>
        <rect height="0.97" style="fill: #bcbcbc" transform="translate(85.84 40.76) rotate(180)" width="0.64" x="42.6" y="19.9"/>
      </g>
      <g>
        <rect height="1.35" style="fill: #b1aeaa" transform="translate(83.77 45.83) rotate(180)" width="1.43" x="41.17" y="22.24"/>
        <rect height="0.97" style="fill: #bcbcbc" transform="translate(85.84 45.81) rotate(180)" width="0.64" x="42.6" y="22.42"/>
      </g>
      <g>
        <rect height="1.35" style="fill: #b1aeaa" width="1.43" x="46.99" y="22.24"/>
        <rect height="0.97" style="fill: #bcbcbc" width="0.64" x="46.35" y="22.44"/>
      </g>
      <g>
        <rect height="1.35" style="fill: #b1aeaa" width="1.43" x="46.99" y="19.72"/>
        <rect height="0.97" style="fill: #bcbcbc" width="0.64" x="46.35" y="19.92"/>
      </g>
      <g>
        <rect height="1.35" style="fill: #b1aeaa" width="1.43" x="46.99" y="27.28"/>
        <rect height="0.97" style="fill: #bcbcbc" width="0.64" x="46.35" y="27.48"/>
      </g>
      <g>
        <rect height="1.35" style="fill: #b1aeaa" width="1.43" x="46.99" y="24.76"/>
        <rect height="0.97" style="fill: #bcbcbc" width="0.64" x="46.35" y="24.96"/>
      </g>
      <rect height="9.39" style="fill: #303030" width="3.11" x="43.24" y="19.44"/>
    </g>
    <g>
      <g>
        <path d="M9.33,21.21v1a.17.17,0,0,1-.05.12.16.16,0,0,1-.11.05H8.64a.16.16,0,0,1-.11-.05.17.17,0,0,1,0-.12v-1a.17.17,0,0,1,0-.12A.16.16,0,0,1,8.64,21h.53a.16.16,0,0,1,.11.05A.17.17,0,0,1,9.33,21.21Zm-.68,0v1h.51v-1Z" style="fill: #7a6e61"/>
        <path d="M8,21.21H7.75v1H8a.07.07,0,0,1,.06,0,.08.08,0,0,1,0,.12.07.07,0,0,1-.06,0H7.58V21.21H7.41v.35a.09.09,0,0,1,0,.06.05.05,0,0,1,0,0,.11.11,0,0,1-.09-.09v-.43A.11.11,0,0,1,7.33,21H8a.05.05,0,0,1,.05,0,.08.08,0,0,1,0,.12Z" style="fill: #7a6e61"/>
        <path d="M6,22.21v-.32a.29.29,0,0,1,.07-.18A.28.28,0,0,1,6,21.54v-.33A.17.17,0,0,1,6.16,21h.6a.09.09,0,0,1,.06,0,.08.08,0,0,1,0,.06.14.14,0,0,1,0,.06l-.06,0H6.17v.33a.07.07,0,0,0,0,.06.09.09,0,0,0,.06,0h.34a.07.07,0,0,1,.06,0,.1.1,0,0,1,0,.12.07.07,0,0,1-.06,0H6.25a.06.06,0,0,0-.06,0,.09.09,0,0,0,0,.06v.33h.6s0,0,.06,0a.08.08,0,0,1,0,.12s0,0-.06,0h-.6A.16.16,0,0,1,6,22.32.16.16,0,0,1,6,22.21Z" style="fill: #7a6e61"/>
        <path d="M4.75,22.21v-.32a.29.29,0,0,1,.07-.18.28.28,0,0,1-.07-.17v-.33A.17.17,0,0,1,4.92,21h.6a.09.09,0,0,1,.06,0,.08.08,0,0,1,0,.06.14.14,0,0,1,0,.06l-.06,0h-.6v.33a.11.11,0,0,0,.09.09h.34a.07.07,0,0,1,.06,0,.1.1,0,0,1,0,.12.07.07,0,0,1-.06,0H5a.06.06,0,0,0-.06,0,.09.09,0,0,0,0,.06v.33h.6s.05,0,.06,0a.08.08,0,0,1,0,.12s0,0-.06,0h-.6a.16.16,0,0,1-.12-.05A.16.16,0,0,1,4.75,22.21Z" style="fill: #7a6e61"/>
      </g>
      <line style="fill: none;stroke: #7a6e61;stroke-miterlimit: 10;stroke-width: 0.25px" x1="7.4" x2="9.15" y1="20.54" y2="20.54"/>
    </g>
    <g>
      <path d="M12,18.4a1.15,1.15,0,0,1,1.16-1.15H16a1.16,1.16,0,1,1,0,2.31H13.14A1.16,1.16,0,0,1,12,18.4Z" style="fill: #bababa"/>
      <path d="M12,24.57a1.16,1.16,0,0,1,1.16-1.16H16a1.16,1.16,0,1,1,0,2.32H13.14A1.16,1.16,0,0,1,12,24.57Z" style="fill: #bababa"/>
      <rect height="6.17" rx="0.58" ry="0.58" style="fill: #e0e0e0" width="3.13" x="13" y="18.4"/>
      <rect height="2.89" style="fill: #b5947a" width="3.13" x="13" y="19.98"/>
    </g>
    <g>
      <path d="M3.35,32.74A1.15,1.15,0,0,1,2.2,31.58V28.74a1.16,1.16,0,1,1,2.31,0v2.84A1.16,1.16,0,0,1,3.35,32.74Z" style="fill: #bababa"/>
      <path d="M9.52,32.74a1.16,1.16,0,0,1-1.16-1.16V28.74a1.16,1.16,0,0,1,2.32,0v2.84A1.16,1.16,0,0,1,9.52,32.74Z" style="fill: #bababa"/>
      <rect height="6.17" rx="0.58" ry="0.58" style="fill: #e0e0e0" transform="translate(-23.72 36.59) rotate(-90)" width="3.13" x="4.87" y="27.07"/>
      <rect height="2.89" style="fill: #b5947a" transform="translate(-23.78 36.53) rotate(-90)" width="3.13" x="4.81" y="28.71"/>
    </g>
    <g>
      <path d="M22.24,27a.85.85,0,0,1,.86.86V30a.86.86,0,0,1-1.72,0V27.9A.86.86,0,0,1,22.24,27Z" style="fill: #bababa"/>
      <path d="M17.65,27a.86.86,0,0,1,.86.86V30a.87.87,0,0,1-1.73,0V27.9A.86.86,0,0,1,17.65,27Z" style="fill: #bababa"/>
      <rect height="4.6" rx="0.58" ry="0.58" style="fill: #e0e0e0" transform="translate(48.9 9.02) rotate(90)" width="2.33" x="18.78" y="26.66"/>
      <rect height="2.15" transform="translate(48.95 8.97) rotate(90)" width="2.33" x="18.82" y="27.88"/>
    </g>
    <g>
      <path d="M19,29.24v-.56a.11.11,0,0,1,.09-.09h.29a.07.07,0,0,1,.06,0,.09.09,0,0,1,0,.06v.56a.09.09,0,0,1,0,.06.07.07,0,0,1-.06,0h-.29a.07.07,0,0,1-.06,0A.09.09,0,0,1,19,29.24Zm.38,0v-.54h-.29v.54Z" style="fill: #fff"/>
      <path d="M19.76,29.23h.14v-.54h-.14l0,0a.05.05,0,0,1,0-.06l0,0H20v.64h.09V29a0,0,0,0,1,0,0l0,0a.05.05,0,0,1,0,0,0,0,0,0,1,0,0v.24a0,0,0,0,1,0,0l0,0h-.37l0,0,0,0s0,0,0,0Z" style="fill: #fff"/>
      <path d="M20.66,29.23h.16l0,0a.05.05,0,0,1,0,.06l0,0h-.17l-.07,0s0,0,0,0l-.11-.21a.21.21,0,0,1,0-.18l.11-.2,0-.06.06,0h.19l0,0a0,0,0,0,1,0,.06l0,0h-.18s0,0,0,0l-.1.19a.18.18,0,0,0,0,.12l.1.18A0,0,0,0,0,20.66,29.23Z" style="fill: #fff"/>
    </g>
    <g>
      <path d="M38.37,16.48a.87.87,0,0,1,.86.86v2.12a.86.86,0,0,1-1.72,0V17.34A.86.86,0,0,1,38.37,16.48Z" style="fill: #bababa"/>
      <path d="M33.77,16.48a.86.86,0,0,1,.86.86v2.12a.86.86,0,1,1-1.72,0V17.34A.86.86,0,0,1,33.77,16.48Z" style="fill: #bababa"/>
      <rect height="4.6" rx="0.58" ry="0.58" style="fill: #e0e0e0" transform="translate(54.47 -17.67) rotate(90)" width="2.33" x="34.9" y="16.1"/>
      <rect height="2.15" transform="translate(54.52 -17.71) rotate(90)" width="2.33" x="34.95" y="17.33"/>
    </g>
    <g>
      <path d="M35.16,18.68v-.56a.14.14,0,0,1,0-.06.09.09,0,0,1,.07,0h.29a.09.09,0,0,1,.06,0,.14.14,0,0,1,0,.06v.56a.14.14,0,0,1,0,.06.09.09,0,0,1-.07,0h-.28a.09.09,0,0,1-.07,0A.14.14,0,0,1,35.16,18.68Zm.37,0v-.55h-.28v.55Z" style="fill: #fff"/>
      <path d="M35.88,18.68H36v-.55h-.14a.05.05,0,0,1,0,0s0,0,0,0v0a.05.05,0,0,1,0,0h.23v.65h.09v-.2s0,0,0,0h.06s0,0,0,0v.24s0,0,0,0l0,0h-.38l0,0a.05.05,0,0,1,0-.06Z" style="fill: #fff"/>
      <path d="M36.78,18.68H37l0,0a.05.05,0,0,1,0,0h-.21l-.06,0-.05-.05-.11-.21a.29.29,0,0,1,0-.09.15.15,0,0,1,0-.09l.11-.2a.1.1,0,0,1,0-.05l.07,0H37l0,0,0,0s0,0,0,0l0,0h-.18l0,0-.1.2a.08.08,0,0,0,0,0,.14.14,0,0,0,0,.06l.09.19A.05.05,0,0,0,36.78,18.68Z" style="fill: #fff"/>
    </g>
    <g>
      <path d="M45.2,25.44v-.22h-.81v.21a.08.08,0,0,1,0,.05.06.06,0,0,1,0,0s0,0,0,0,0,0,0-.05v-.34h1V25h-.28l-.05,0a.06.06,0,0,1,0-.05s0,0,0-.05,0,0,.05,0h.35s0,0,0,0,0,0,0,.05v.56a.06.06,0,0,1,0,0l0,0-.05,0S45.2,25.46,45.2,25.44Z" style="fill: #fff"/>
      <path d="M45.21,24.48h-.83a.14.14,0,0,1-.13-.13v-.43a.13.13,0,0,1,0-.1.13.13,0,0,1,.09,0h.83a.13.13,0,0,1,.09,0,.13.13,0,0,1,0,.1v.43a.14.14,0,0,1-.13.13Zm0-.56h-.81v.42h.81Z" style="fill: #fff"/>
      <path d="M44.39,22.76h.26a.17.17,0,0,1,.14.06.22.22,0,0,1,.14-.06h.27a.12.12,0,0,1,.1,0,.13.13,0,0,1,0,.1v.49a.06.06,0,0,1,0,.05l0,0-.05,0s0,0,0-.05V22.9h-.27l0,0a.08.08,0,0,0,0,0v.28a.06.06,0,0,1,0,.05l-.05,0,0,0s0,0,0-.05V23s0,0,0,0l-.05,0h-.26v.49a.08.08,0,0,1,0,.05.06.06,0,0,1,0,0s0,0,0,0,0,0,0-.05V22.9a.14.14,0,0,1,.14-.14Z" style="fill: #fff"/>
    </g>
    <line style="fill: none;stroke: #fff;stroke-linecap: round;stroke-linejoin: round;stroke-width: 0.5px" x1="5.65" x2="8.27" y1="18.77" y2="18.77"/>
    <line style="fill: none;stroke: #fff;stroke-linecap: round;stroke-linejoin: round;stroke-width: 0.5px" x1="11.58" x2="11.58" y1="19.12" y2="23.98"/>
    <line style="fill: none;stroke: #fff;stroke-linecap: round;stroke-linejoin: round;stroke-width: 0.5px" x1="2.2" x2="2.2" y1="19.12" y2="23.98"/>
    <line style="fill: none;stroke: #fff;stroke-linecap: round;stroke-linejoin: round;stroke-width: 0.5px" x1="1.96" x2="1.96" y1="27.98" y2="32.29"/>
    <line style="fill: none;stroke: #fff;stroke-linecap: round;stroke-linejoin: round;stroke-width: 0.5px" x1="40.71" x2="48.94" y1="18.87" y2="18.87"/>
    <line style="fill: none;stroke: #fff;stroke-linecap: round;stroke-linejoin: round;stroke-width: 0.5px" x1="40.71" x2="48.94" y1="29.83" y2="29.83"/>
    <line style="fill: none;stroke: #fff;stroke-linecap: round;stroke-linejoin: round;stroke-width: 0.5px" x1="33.15" x2="35.96" y1="31.98" y2="31.98"/>
    <circle cx="35.62" cy="32.94" r="0.59" style="fill: #fff"/>
    <rect height="6.96" rx="1.23" ry="1.23" style="fill: #aea39a" width="7.27" x="21.67" y="19.3"/>
    <circle cx="23.74" cy="24.57" r="0.49" style="fill: #8a7852"/>
    <g>
      <path d="M25.46,23.62h-.67a.11.11,0,0,1-.07,0,.11.11,0,0,1,0-.08v-.34a.11.11,0,0,1,0-.08.11.11,0,0,1,.07,0h.67a.1.1,0,0,1,.11.11v.34a.1.1,0,0,1-.11.11Zm0-.45H24.8v.34h.66Z" style="fill: #fff"/>
      <path d="M25.46,22.8h-.67a.11.11,0,0,1-.07,0,.11.11,0,0,1,0-.08v-.34a.11.11,0,0,1,0-.08.11.11,0,0,1,.07,0h.67a.1.1,0,0,1,.11.11v.34a.1.1,0,0,1-.11.11Zm0-.45H24.8v.34h.66Z" style="fill: #fff"/>
      <path d="M25.51,21.62h-.23V22h-.54l0,0s0,0,0,0a.08.08,0,0,1,0,0h.47v-.22h-.33l0,0s0,0,0,0,0,0,0,0l0,0h.33a.08.08,0,0,1,0,0h.08s0,0,0,0h.23l0,0a.06.06,0,0,1,0,.1Z" style="fill: #fff"/>
      <path d="M26.32,23.49V23.2a.14.14,0,0,1,0-.1.15.15,0,0,1,.11,0h0l0,0a.05.05,0,0,1,0,0s0,0,0,0a0,0,0,0,0,0,0v.28a0,0,0,0,0,0,0h0l.53-.42a.12.12,0,0,1,.08,0,.12.12,0,0,1,.09,0,.1.1,0,0,1,0,.08v.3a.16.16,0,0,1-.05.11.18.18,0,0,1-.1,0,.05.05,0,0,1-.06-.06l0,0h0a.05.05,0,0,0,0,0,0,0,0,0,0,0,0v-.27s0,0,0,0h0l-.53.41-.08,0a.14.14,0,0,1-.13-.13Z" style="fill: #fff"/>
      <path d="M27.14,22.8h-.82v-.4a.13.13,0,0,1,.05-.11.13.13,0,0,1,.12-.05h.2a.13.13,0,0,1,.12.05.13.13,0,0,1,.05.11v.29h.32a.08.08,0,0,1,0,0,.07.07,0,0,1-.06.06Zm-.39-.11V22.4s0,0,0,0h-.28l0,0v.29Z" style="fill: #fff"/>
    </g>
    <g>
      <path d="M24.11,15.44v-.27h1v.27a.09.09,0,0,1,0,.07.11.11,0,0,1-.07,0,.09.09,0,0,1-.07,0s0,0,0-.07v-.07h-.21v1.28a.11.11,0,0,1,0,.07.1.1,0,0,1-.14,0,.11.11,0,0,1,0-.07V15.37h-.2v.07a.1.1,0,0,1-.2,0Z" style="fill: #fff"/>
      <path d="M26.23,16.64v-.41h-.6v-1a.09.09,0,0,1,0-.07.11.11,0,0,1,.07,0,.1.1,0,0,1,.1.1V16h.4v-.59a.11.11,0,0,1,0-.07.1.1,0,0,1,.14,0,.11.11,0,0,1,0,.07V16a.1.1,0,0,1,.1.1.11.11,0,0,1,0,.07.09.09,0,0,1-.07,0v.41a.1.1,0,0,1-.2,0Z" style="fill: #fff"/>
    </g>
    <circle cx="27.07" cy="20.58" r="0.49" style="fill: #fff"/>
    <line style="fill: none;stroke: #fff;stroke-linecap: round;stroke-linejoin: round;stroke-width: 0.75px" x1="22.24" x2="28.4" y1="18.03" y2="18.03"/>
    <path d="M31.41,19.11v1.28a.57.57,0,0,0,.55.19c.35-.07-1.14,1.21-2,.21S30.37,18.19,31.41,19.11Z" style="fill: #fff"/>
  </g>
  <g id="text">
    <g>
      <path d="M16.6,7.29v.24a1,1,0,0,1-.31.77,1,1,0,0,1-.77.32H13.86V4.33h1.66a1,1,0,0,1,.77.32,1,1,0,0,1,.31.77v.23a1.07,1.07,0,0,1-.37.82A1.08,1.08,0,0,1,16.6,7.29Zm-.55-1.65V5.42A.57.57,0,0,0,15.89,5a.53.53,0,0,0-.39-.16H14.4V6.19h1.1a.55.55,0,0,0,.55-.55Zm0,1.89V7.3a.53.53,0,0,0-.16-.38.54.54,0,0,0-.39-.17H14.41V8.07H15.5a.55.55,0,0,0,.55-.54Z" style="fill: #fff"/>
      <path d="M19,6V5.88l-.56-.81V8.35a.26.26,0,0,1-.08.19.24.24,0,0,1-.19.08.27.27,0,0,1-.28-.27v-4h.71l.66,1,.69-1h.69v4a.22.22,0,0,1-.08.19.26.26,0,0,1-.2.08.25.25,0,0,1-.19-.08.26.26,0,0,1-.08-.19V5.09l-.55.77V6a.26.26,0,0,1-.08.2.27.27,0,0,1-.38,0A.3.3,0,0,1,19,6Z" style="fill: #fff"/>
      <path d="M24.33,4.88H22.41V6.2h.83a.29.29,0,0,1,.19.08.27.27,0,0,1,.08.19.3.3,0,0,1-.08.2.27.27,0,0,1-.19.08h-.83V8.08h1.92a.3.3,0,0,1,.2.08.27.27,0,0,1,.08.19.23.23,0,0,1-.09.19.24.24,0,0,1-.19.08H21.87V4.33h2.46a.24.24,0,0,1,.19.08.25.25,0,0,1,.09.2.26.26,0,0,1-.09.19A.27.27,0,0,1,24.33,4.88Z" style="fill: #fff"/>
      <path d="M26.14,4.33h.27a.26.26,0,0,1,.2.08.27.27,0,0,1,0,.38.3.3,0,0,1-.2.08V6.66h1.92a.26.26,0,0,1,.19.09.27.27,0,0,1,.08.19V8.35a.29.29,0,0,1-.08.19.3.3,0,0,1-.2.08H26.14A.27.27,0,0,1,26,8.54a.26.26,0,0,1-.09-.19V4.6A.23.23,0,0,1,26,4.41.22.22,0,0,1,26.14,4.33Zm.27,2.88v.86h1.64V7.21Z" style="fill: #fff"/>
      <path d="M29.84,8.07V6.74A.52.52,0,0,1,30,6.36a.49.49,0,0,1,.38-.16V4.6a.26.26,0,0,1,.08-.19.24.24,0,0,1,.2-.08h1.1A.27.27,0,0,1,32,4.6V6.2a.55.55,0,0,1,.54.54V8.07a.55.55,0,0,1-.54.55H30.39A.54.54,0,0,1,30,8.45.57.57,0,0,1,29.84,8.07Zm.55-1.33V8.07H32V6.74Zm.55-1.87V6.2h.56V4.87Z" style="fill: #fff"/>
      <path d="M33.85,8.09V4.84A.49.49,0,0,1,34,4.48a.5.5,0,0,1,.37-.16h1.7a.46.46,0,0,1,.36.16.49.49,0,0,1,.15.36V8.09a.5.5,0,0,1-.15.37.47.47,0,0,1-.37.16H34.37A.49.49,0,0,1,34,8.46.5.5,0,0,1,33.85,8.09Zm2.2,0V4.87H34.39v3.2Z" style="fill: #fff"/>
    </g>
    <g>
      <path d="M2.8,34.94v.64l-.7,1.79c0,.09-.09.13-.17.13a.17.17,0,0,1-.17-.13l-.7-1.79v-.64a.17.17,0,1,1,.34,0v.56l.53,1.35.53-1.34v-.57a.17.17,0,1,1,.34,0Z" style="fill: #fff"/>
      <path d="M3.77,34.76h1.4a.17.17,0,0,1,.17.18.15.15,0,0,1,0,.12.13.13,0,0,1-.12,0H4.65v2h.52a.17.17,0,0,1,.12.29.17.17,0,0,1-.12,0H3.77a.17.17,0,0,1-.12,0,.17.17,0,0,1,.12-.29H4.3v-2H3.77a.17.17,0,0,1-.17-.17.17.17,0,0,1,.17-.18Z" style="fill: #fff"/>
      <path d="M7.89,34.94V37.5H7.43L6.5,35.38v1.95a.14.14,0,0,1-.06.12.17.17,0,0,1-.29-.12V34.76h.46l.93,2.12V34.94a.17.17,0,0,1,0-.12.18.18,0,0,1,.13-.06.17.17,0,0,1,.12.05A.21.21,0,0,1,7.89,34.94Z" style="fill: #fff"/>
    </g>
    <g>
      <path d="M16,34.76h.58a.21.21,0,0,1,.12.05.21.21,0,0,1,0,.13.14.14,0,0,1-.06.12.13.13,0,0,1-.12,0H16a.17.17,0,0,0-.14.08l-.49.62a.33.33,0,0,0-.06.21v1a.17.17,0,0,0,.05.12.14.14,0,0,0,.12.06h.71a.17.17,0,0,0,.12-.06.17.17,0,0,0,.05-.12v-.37H16a.17.17,0,0,1-.12,0,.21.21,0,0,1-.05-.13.21.21,0,0,1,.05-.12.17.17,0,0,1,.12-.05h.71V37a.52.52,0,0,1-.16.37.49.49,0,0,1-.36.15H15.5a.53.53,0,0,1-.37-.15A.51.51,0,0,1,15,37V36a.69.69,0,0,1,.14-.43l.51-.65a.64.64,0,0,1,.15-.13A.54.54,0,0,1,16,34.76Z" style="fill: #fff"/>
      <path d="M19.28,34.94V37.5h-.47l-.93-2.12v1.95a.17.17,0,0,1-.29.12.13.13,0,0,1-.05-.12V34.76H18l.94,2.12V34.94a.17.17,0,0,1,.05-.12.17.17,0,0,1,.12-.06.17.17,0,0,1,.18.18Z" style="fill: #fff"/>
      <path d="M20.25,34.76h.69a.48.48,0,0,1,.26.09.57.57,0,0,1,.18.2l.34.7a.76.76,0,0,1,.1.39.87.87,0,0,1-.1.39l-.35.68a.43.43,0,0,1-.19.21.5.5,0,0,1-.27.08h-.66a.17.17,0,0,1-.12,0,.16.16,0,0,1-.06-.12.18.18,0,0,1,.06-.13.17.17,0,0,1,.12-.05h.18v-2h-.18a.13.13,0,0,1-.12,0,.18.18,0,0,1-.05-.12.21.21,0,0,1,.05-.13A.17.17,0,0,1,20.25,34.76Zm.52.35v2h.13a.18.18,0,0,0,.17-.11l.34-.68a.56.56,0,0,0,.06-.22.42.42,0,0,0,0-.22l-.35-.7a.2.2,0,0,0-.18-.11Z" style="fill: #fff"/>
    </g>
    <g>
      <path d="M29.54,34.76h.91a.48.48,0,0,1,.31.14.45.45,0,0,1,.14.34.17.17,0,0,1,0,.13.16.16,0,0,1-.11.05.22.22,0,0,1-.13,0,.57.57,0,0,1-.06-.15c0-.08-.06-.11-.13-.11h-.86s-.06,0-.06,0a.15.15,0,0,0,0,.06l1.28,1.64a.4.4,0,0,1,.09.25.35.35,0,0,1-.11.27.33.33,0,0,1-.25.12h-.93a.45.45,0,0,1-.32-.14.44.44,0,0,1-.14-.31c0-.13.06-.19.18-.19a.13.13,0,0,1,.12,0,.17.17,0,0,1,.05.12.12.12,0,0,0,0,.09.15.15,0,0,0,.09,0h.87a0,0,0,0,0,.05,0l0,0-1.29-1.64a.43.43,0,0,1-.09-.26.38.38,0,0,1,.12-.28A.36.36,0,0,1,29.54,34.76Z" style="fill: #fff"/>
      <path d="M31.87,34.76h.68a.48.48,0,0,1,.27.09.57.57,0,0,1,.18.2l.34.7a.76.76,0,0,1,.1.39.87.87,0,0,1-.1.39l-.35.68a.43.43,0,0,1-.19.21.5.5,0,0,1-.27.08h-.66a.21.21,0,0,1-.13,0,.18.18,0,0,1,0-.12.17.17,0,0,1,.18-.18h.18v-2h-.18a.13.13,0,0,1-.12,0,.15.15,0,0,1-.05-.12.17.17,0,0,1,.17-.18Zm.52.35v2h.12a.18.18,0,0,0,.18-.11l.34-.68a.56.56,0,0,0,.06-.22.42.42,0,0,0-.05-.22l-.35-.7a.2.2,0,0,0-.18-.11Z" style="fill: #fff"/>
      <path d="M35.53,35l.38.77a.82.82,0,0,1,.08.35.81.81,0,0,1-.08.34l-.38.77a.42.42,0,0,1-.41.25.43.43,0,0,1-.25-.07.58.58,0,0,1-.17-.18l-.38-.77a.74.74,0,0,1-.07-.34.81.81,0,0,1,.07-.35L34.7,35a.45.45,0,0,1,.42-.26A.43.43,0,0,1,35.53,35Zm-.53.17-.36.73a.52.52,0,0,0,0,.21.54.54,0,0,0,0,.22l.37.74a.12.12,0,0,0,.11.07.12.12,0,0,0,.1-.07l.37-.74a.54.54,0,0,0,0-.22.54.54,0,0,0,0-.21l-.36-.73s-.06-.08-.11-.08A.14.14,0,0,0,35,35.19Z" style="fill: #fff"/>
    </g>
    <g>
      <path d="M8.4,44v.65a.48.48,0,0,1-.14.37.5.5,0,0,1,.15.35V46a.37.37,0,0,1-.1.25.35.35,0,0,1-.25.1H6.83a.21.21,0,0,1-.12,0,.17.17,0,0,1,0-.24A.17.17,0,0,1,6.83,46H8.05v-.67A.13.13,0,0,0,8,45.25a.14.14,0,0,0-.12-.06H7.19a.17.17,0,1,1,0-.34h.7A.21.21,0,0,0,8,44.8a.21.21,0,0,0,.05-.13V44H6.82a.13.13,0,0,1-.12,0,.17.17,0,0,1,0-.24.13.13,0,0,1,.12-.05H8.06a.31.31,0,0,1,.24.1A.33.33,0,0,1,8.4,44Z" style="fill: #fff"/>
      <path d="M11,43.83v.64l-.7,1.8a.18.18,0,0,1-.35,0l-.7-1.8v-.64a.18.18,0,0,1,0-.12.21.21,0,0,1,.13-.05.17.17,0,0,1,.12.05.18.18,0,0,1,.05.12v.57l.53,1.34.52-1.34v-.57a.18.18,0,0,1,.05-.12.18.18,0,0,1,.25,0A.18.18,0,0,1,11,43.83Z" style="fill: #fff"/>
      <path d="M13.5,45v.73a.55.55,0,0,1-.22.43.65.65,0,0,1-.45.2h-.41a.66.66,0,0,1-.45-.2.6.6,0,0,1-.22-.43V45A.61.61,0,0,1,12,44.6a.68.68,0,0,1,.46-.2h.41a.7.7,0,0,1,.45.2A.55.55,0,0,1,13.5,45Zm-1.4,0v.7a.21.21,0,0,0,.07.15l.13.11a.21.21,0,0,0,.12,0h.4A.23.23,0,0,0,13,46l.11-.09a.17.17,0,0,0,.06-.14v-.7a.18.18,0,0,0-.06-.15L13,44.8a.25.25,0,0,0-.15,0h-.35a.29.29,0,0,0-.19.06l-.11.1A.15.15,0,0,0,12.1,45.05Z" style="fill: #fff"/>
    </g>
    <g>
      <path d="M21.88,43.66h.9a.44.44,0,0,1,.32.14.45.45,0,0,1,.14.33.15.15,0,0,1,0,.13.17.17,0,0,1-.12.05.15.15,0,0,1-.12,0,.57.57,0,0,1-.06-.15.13.13,0,0,0-.13-.11H21.9s-.06,0-.06,0a.14.14,0,0,0,0,.06l1.29,1.64a.43.43,0,0,1,.09.26.36.36,0,0,1-.11.27.33.33,0,0,1-.25.12H22a.41.41,0,0,1-.32-.15.39.39,0,0,1-.14-.31.18.18,0,1,1,.35,0,.14.14,0,0,0,.13.13h.86s.06,0,.06,0a.09.09,0,0,0,0-.06l-1.28-1.64a.4.4,0,0,1-.09-.25.41.41,0,0,1,.11-.28A.38.38,0,0,1,21.88,43.66Z" style="fill: #fff"/>
      <path d="M25,46.05h.62a.21.21,0,0,1,.13.05.17.17,0,0,1,0,.24.18.18,0,0,1-.13.06H25a.52.52,0,0,1-.26-.08.44.44,0,0,1-.18-.18l-.4-.77a.84.84,0,0,1-.08-.34.63.63,0,0,1,.08-.34l.4-.76a.54.54,0,0,1,.18-.19.46.46,0,0,1,.23-.08h.69a.21.21,0,0,1,.12.05.17.17,0,0,1,.05.12.21.21,0,0,1-.05.13.21.21,0,0,1-.12,0H25c-.06,0-.1,0-.14.1l-.38.71a.33.33,0,0,0,0,.2.41.41,0,0,0,0,.22l.37.7A.18.18,0,0,0,25,46.05Z" style="fill: #fff"/>
      <path d="M26.58,46.22V43.83a.18.18,0,0,1,.05-.12.21.21,0,0,1,.13-.05.15.15,0,0,1,.12.05.17.17,0,0,1,.05.12v.82L28,43.7a.2.2,0,0,1,.13,0,.17.17,0,0,1,.12.05.21.21,0,0,1,.05.12.14.14,0,0,1-.06.12L27,45l1.25,1.08a.13.13,0,0,1,0,.12.16.16,0,0,1,0,.12.14.14,0,0,1-.12.06.21.21,0,0,1-.13,0l-1.1-1v.82a.17.17,0,0,1-.05.12.16.16,0,0,1-.12.06.18.18,0,0,1-.13-.06A.17.17,0,0,1,26.58,46.22Z" style="fill: #fff"/>
    </g>
    <g>
      <path d="M36.77,43.66h.91a.48.48,0,0,1,.45.47.15.15,0,0,1-.05.13.16.16,0,0,1-.11.05.17.17,0,0,1-.13,0,.57.57,0,0,1-.06-.15.13.13,0,0,0-.13-.11h-.86s-.06,0-.06,0a.09.09,0,0,0,0,.06L38,45.75a.43.43,0,0,1,.09.26.36.36,0,0,1-.11.27.33.33,0,0,1-.25.12h-.93a.5.5,0,0,1-.46-.46.18.18,0,1,1,.35,0,.1.1,0,0,0,0,.09.11.11,0,0,0,.09,0h.87s.05,0,.05,0a.14.14,0,0,0,0-.06l-1.29-1.64a.4.4,0,0,1-.09-.25.38.38,0,0,1,.12-.28A.36.36,0,0,1,36.77,43.66Z" style="fill: #fff"/>
      <path d="M39.1,43.66h.69a.56.56,0,0,1,.26.08.6.6,0,0,1,.18.21l.34.69a.81.81,0,0,1,0,.78l-.35.69a.54.54,0,0,1-.19.21.5.5,0,0,1-.27.08H39.1a.18.18,0,0,1-.13-.06.17.17,0,0,1,0-.24A.18.18,0,0,1,39.1,46h.18V44H39.1A.17.17,0,0,1,39,44a.21.21,0,0,1,0-.13.17.17,0,0,1,.17-.17Zm.52.35v2h.13a.2.2,0,0,0,.17-.11l.34-.68a.6.6,0,0,0,.06-.23.38.38,0,0,0,0-.21l-.35-.71a.19.19,0,0,0-.18-.1Z" style="fill: #fff"/>
      <path d="M41.65,43.66h1.4a.21.21,0,0,1,.12.05.13.13,0,0,1,0,.12.17.17,0,0,1-.17.18h-.52v2h.52a.17.17,0,0,1,.12.05.17.17,0,0,1,0,.24.14.14,0,0,1-.12.06h-1.4a.14.14,0,0,1-.12-.06.17.17,0,0,1,0-.24.17.17,0,0,1,.12-.05h.53V44h-.53a.17.17,0,0,1-.17-.18.15.15,0,0,1,.05-.12A.17.17,0,0,1,41.65,43.66Z" style="fill: #fff"/>
    </g>
    <g>
      <path d="M45.44,37.16h.62a.17.17,0,0,1,.13.29.21.21,0,0,1-.13,0h-.65a.52.52,0,0,1-.25-.08.43.43,0,0,1-.18-.17l-.4-.77a.74.74,0,0,1-.08-.35.67.67,0,0,1,.07-.33L45,35a.46.46,0,0,1,.18-.19.43.43,0,0,1,.23-.08h.68a.17.17,0,0,1,.18.18.18.18,0,0,1,0,.12.17.17,0,0,1-.13,0h-.65c-.06,0-.1,0-.14.1l-.38.72a.39.39,0,0,0,0,.2.46.46,0,0,0,0,.21l.37.71A.18.18,0,0,0,45.44,37.16Z" style="fill: #fff"/>
      <path d="M47.42,34.76h.91a.5.5,0,0,1,.46.48.18.18,0,0,1-.06.13.16.16,0,0,1-.11.05.17.17,0,0,1-.12,0,.35.35,0,0,1-.07-.15c0-.08-.06-.11-.13-.11h-.86s-.06,0-.06,0a.15.15,0,0,0,0,.06l1.28,1.64a.42.42,0,0,1,.1.25.36.36,0,0,1-.12.27.32.32,0,0,1-.25.12h-.93a.45.45,0,0,1-.32-.14.44.44,0,0,1-.14-.31c0-.13.06-.19.18-.19a.17.17,0,0,1,.17.17.12.12,0,0,0,0,.09.18.18,0,0,0,.1,0h.86a0,0,0,0,0,0,0l0,0-1.29-1.64a.43.43,0,0,1-.09-.26.38.38,0,0,1,.12-.28A.36.36,0,0,1,47.42,34.76Z" style="fill: #fff"/>
    </g>
  </g>
  <g id="Connectors">
    <ellipse cx="3.68" cy="40.7" data-cir-type="male" id="circuitoCon_VIN" rx="2.05" ry="1.99" style="fill: none;stroke: #e8e5df;stroke-miterlimit: 10;stroke-width: 1.224px"/>
    <ellipse cx="46.96" cy="40.7" id="circuitoCon_CS" rx="2.05" ry="1.99" style="fill: none;stroke: #e8e5df;stroke-miterlimit: 10;stroke-width: 1.224px"/>
    <ellipse cx="39.77" cy="40.7" data-cir-type="male" id="circuitoCon_SDI" rx="2.05" ry="1.99" style="fill: none;stroke: #e8e5df;stroke-miterlimit: 10;stroke-width: 1.224px"/>
    <ellipse cx="32.57" cy="40.7" id="circuitoCon_SDO" rx="2.05" ry="1.99" style="fill: none;stroke: #e8e5df;stroke-miterlimit: 10;stroke-width: 1.224px"/>
    <ellipse cx="18.19" cy="40.7" data-cir-type="male" id="circuitoCon_GND" rx="2.05" ry="1.99" style="fill: none;stroke: #e8e5df;stroke-miterlimit: 10;stroke-width: 1.224px"/>
    <ellipse cx="10.94" cy="40.7" id="circuitoCon_3Vo" rx="2.05" ry="1.99" style="fill: none;stroke: #e8e5df;stroke-miterlimit: 10;stroke-width: 1.224px"/>
    <ellipse cx="25.38" cy="40.7" data-cir-type="male" id="circuitoCon_SCK" rx="2.05" ry="1.99" style="fill: none;stroke: #e8e5df;stroke-miterlimit: 10;stroke-width: 1.224px"/>
  </g>
</svg>