<?xml version="1.0" ?><svg height="36.09mm" viewBox="0 0 70.04 102.29" width="24.71mm" xmlns="http://www.w3.org/2000/svg" xmlns:xlink="http://www.w3.org/1999/xlink">
  <defs>
    <radialGradient cx="-108.15" cy="198.22" gradientTransform="translate(-161.67 -98.75) rotate(-90)" gradientUnits="userSpaceOnUse" id="radial-gradient" r="6.08">
      <stop offset="0" stop-color="#fff"/>
      <stop offset="0.21" stop-color="#eceeef"/>
      <stop offset="0.22" stop-color="#eaeced"/>
      <stop offset="0.47" stop-color="#c1c9d2"/>
      <stop offset="0.66" stop-color="#a8b4c0"/>
      <stop offset="0.78" stop-color="#9facba"/>
      <stop offset="0.83" stop-color="#a5b2bf"/>
      <stop offset="0.9" stop-color="#b8c3cb"/>
      <stop offset="0.96" stop-color="#ccd7da"/>
      <stop offset="1" stop-color="#d7e2e6"/>
    </radialGradient>
    <radialGradient cx="-108.16" cy="197.91" gradientTransform="translate(-161.45 -98.21) rotate(-90)" gradientUnits="userSpaceOnUse" id="radial-gradient-2" r="5.5">
      <stop offset="0" stop-color="#fff"/>
      <stop offset="0.59" stop-color="#a3a8ae"/>
      <stop offset="1" stop-color="#616973"/>
    </radialGradient>
    <linearGradient gradientTransform="translate(-179.54 74.47) rotate(-135)" gradientUnits="userSpaceOnUse" id="linear-gradient" x1="-108.18" x2="-108.18" y1="197.89" y2="202.75">
      <stop offset="0" stop-color="#fff"/>
      <stop offset="1" stop-color="#cbcfd3"/>
    </linearGradient>
    <linearGradient id="linear-gradient-2" x1="-108.18" x2="-108.18" xlink:href="#linear-gradient" y1="199.32" y2="199.92"/>
    <radialGradient cx="-108.11" cy="201.07" gradientTransform="translate(-179.54 74.47) rotate(-135)" gradientUnits="userSpaceOnUse" id="radial-gradient-3" r="2.64">
      <stop offset="0" stop-color="#858c94"/>
      <stop offset="0.31" stop-color="#7e858e"/>
      <stop offset="0.75" stop-color="#6a727c"/>
      <stop offset="1" stop-color="#5d6570"/>
    </radialGradient>
    <radialGradient cx="-116.64" cy="206.89" gradientTransform="matrix(0, -1, 1, 0, -158.21, -107.37)" id="radial-gradient-4" r="6.08" xlink:href="#radial-gradient"/>
    <radialGradient cx="-116.65" cy="206.57" gradientTransform="matrix(0, -1, 1, 0, -157.99, -106.82)" id="radial-gradient-5" r="5.5" xlink:href="#radial-gradient-2"/>
    <linearGradient id="linear-gradient-3" x1="-116.67" x2="-116.67" xlink:href="#linear-gradient" y1="206.55" y2="211.42"/>
    <linearGradient id="linear-gradient-4" x1="-116.67" x2="-116.67" xlink:href="#linear-gradient" y1="207.99" y2="208.59"/>
    <radialGradient cx="-116.6" cy="209.73" id="radial-gradient-6" r="2.64" xlink:href="#radial-gradient-3"/>
    <radialGradient cx="-99.53" cy="189.69" gradientTransform="matrix(0, -1, 1, 0, -165.27, -90.19)" id="radial-gradient-7" r="6.08" xlink:href="#radial-gradient"/>
    <radialGradient cx="-99.53" cy="189.37" gradientTransform="translate(-165.05 -89.65) rotate(-90)" id="radial-gradient-8" r="5.5" xlink:href="#radial-gradient-2"/>
    <linearGradient id="linear-gradient-5" x1="-99.56" x2="-99.56" xlink:href="#linear-gradient" y1="189.35" y2="194.22"/>
    <linearGradient id="linear-gradient-6" x1="-99.56" x2="-99.56" xlink:href="#linear-gradient" y1="190.78" y2="191.39"/>
    <radialGradient cx="-99.49" cy="192.53" id="radial-gradient-9" r="2.64" xlink:href="#radial-gradient-3"/>
  </defs>
  <title>Relay Module</title>
  <g style="isolation: isolate">
    <g id="Background">
      <rect height="89.96" width="70.04"/>
    </g>
    <g data-name="Layer 5" id="Layer_5">
      <rect height="51.21" rx="2.75" ry="2.75" style="fill: #398dcc" width="42" x="17.13" y="22.37"/>
    </g>
    <g data-name="Layer 3" id="Layer_3">
      <line style="fill: #2e2e2e" x1="1.88" x2="67.63" y1="86.34" y2="86.34"/>
      <line id="rect17" style="fill: #fff" x1="55.16" x2="33.65" y1="84.42" y2="84.42"/>
      <rect height="0.03" id="connector1terminal" style="fill: none" x="44.4" y="93.64"/>
      <rect height="0.03" id="connector2terminal" style="fill: none" x="51.6" y="93.64"/>
      <circle cx="7.31" cy="83.44" r="5.1" style="fill: none;stroke: #c7b299;stroke-miterlimit: 10"/>
      <ellipse cx="7.31" cy="83.42" rx="4.43" ry="4.48" style="fill: #fff"/>
      <circle cx="62.52" cy="82.21" r="5.1" style="fill: none;stroke: #c7b299;stroke-miterlimit: 10"/>
      <circle cx="62.52" cy="82.16" r="4.43" style="fill: #fff"/>
      <circle cx="62.52" cy="7.58" r="5.1" style="fill: none;stroke: #c7b299;stroke-miterlimit: 10"/>
      <circle cx="62.52" cy="7.53" r="4.43" style="fill: #fff"/>
      <circle cx="7.19" cy="6.39" r="5.1" style="fill: none;stroke: #c7b299;stroke-miterlimit: 10"/>
      <circle cx="7.2" cy="6.38" r="4.43" style="fill: #fff"/>
      <rect height="3.71" style="fill: #cac6bb" transform="translate(75.55 61.18) rotate(90)" width="8.27" x="3.05" y="66.51"/>
      <rect height="4.61" style="fill: #d0d1cd" transform="translate(75.38 60.93) rotate(90)" width="5.27" x="4.59" y="65.85"/>
      <path d="M4.93,70.35V66.06a5.58,5.58,0,0,0,2.33.29,5,5,0,0,0,2.27-.29v4.29A8.32,8.32,0,0,0,7.26,70,9,9,0,0,0,4.93,70.35Z" style="fill: #282228"/>
      <g>
        <rect height="3.22" style="fill: #b1aeaa" transform="translate(108.72 55.05) rotate(90)" width="3.54" x="25.07" y="80.27"/>
        <rect height="3.22" style="fill: #b1aeaa" transform="translate(101.96 61.81) rotate(90)" width="3.54" x="18.3" y="80.27"/>
        <rect height="5.57" style="fill: #edca9c" transform="translate(105.17 58.52) rotate(90)" width="4.04" x="21.31" y="79.06"/>
        <rect height="3.81" style="fill: #f7f6e9" transform="translate(105.16 58.53) rotate(90)" width="4.04" x="21.3" y="79.94"/>
      </g>
    </g>
    <g data-name="Layer 4" id="Layer_4">
      <rect height="2.75" rx="0.45" ry="0.45" style="fill: #e2d9cf" width="2.89" x="7.33" y="52.68"/>
      <rect height="2.63" style="fill: #282228" width="2.64" x="4.78" y="58.61"/>
      <rect height="2.63" style="fill: #282228" width="2.98" x="9.77" y="58.61"/>
      <path d="M11.62,18.66A2.92,2.92,0,1,0,7,21l-.15.22.64.4.1-.3a2.7,2.7,0,0,0,1.56.17v.13l1.41-.26v-.53A2.9,2.9,0,0,0,11.62,18.66Z" style="fill: #ded3c6;stroke: #000;stroke-miterlimit: 10;stroke-width: 0.2px"/>
      <path d="M11.51,45.89a3,3,0,1,0-2.09,3v.38a3.63,3.63,0,0,0,2.44-3.17Z" style="fill: #caae87;stroke: #000210;stroke-miterlimit: 10;stroke-width: 0.2px"/>
      <circle cx="8.77" cy="45.94" r="1.65" style="fill: #5c5657"/>
      <circle cx="8.75" cy="45.94" r="0.92" style="fill: #526082"/>
      <circle cx="8.7" cy="18.79" r="1.65" style="fill: #c7b299"/>
      <path d="M38.33,46.55a3.31,3.31,0,1,0,3.31,3.31A3.31,3.31,0,0,0,38.33,46.55Zm0,6.31a2.78,2.78,0,1,1,2.78-2.78A2.78,2.78,0,0,1,38.33,52.86Z" style="fill: #035099"/>
      <path d="M38.33,47.3a2.78,2.78,0,1,0,2.78,2.78A2.78,2.78,0,0,0,38.33,47.3Zm-.15,3.53a1,1,0,1,1,1-1A1,1,0,0,1,38.19,50.83Z" style="fill: #4e86bc"/>
      <circle cx="38.19" cy="49.86" r="0.97" style="fill: #479dcd"/>
      <path d="M53.88,64.61a3.31,3.31,0,1,0,3.31,3.31A3.31,3.31,0,0,0,53.88,64.61Zm0,6.31a2.78,2.78,0,1,1,2.78-2.78A2.78,2.78,0,0,1,53.88,70.93Z" style="fill: #035099"/>
      <path d="M53.88,65.36a2.78,2.78,0,1,0,2.78,2.78A2.78,2.78,0,0,0,53.88,65.36Zm-.15,3.53a1,1,0,1,1,1-1A1,1,0,0,1,53.73,68.9Z" style="fill: #4e86bc"/>
      <circle cx="53.73" cy="67.93" r="0.97" style="fill: #4e86bc"/>
      <path d="M6.47,59.24,5.41,59.1l-.16,1.36,1,.14Z" style="fill: #423a35"/>
      <path d="M6.47,59.24h.38a1.2,1.2,0,0,1,.31.47,1.22,1.22,0,0,1,0,.77l-.35.28a.48.48,0,0,1-.34,0,.48.48,0,0,1-.23-.17Z" style="fill: #37506c"/>
      <circle cx="10.98" cy="60.02" r="0.77" style="fill: #423a35"/>
      <polygon points="11.36 59.62 11.89 58.82 12.75 58.54 12.75 61.24 12.25 61.24 11.36 60.13 11.36 59.62" style="fill: #37506c"/>
      <rect height="3.16" style="fill: #433c39" width="7.34" x="5.03" y="55.21"/>
      <g>
        <rect height="12.05" style="fill: #4fb6e7" width="36.08" x="20.09" y="3.71"/>
        <rect height="7.83" style="fill: #072f54" width="1.26" x="31.89" y="5.54"/>
        <rect height="7.83" style="fill: #072f54" width="1.26" x="43.89" y="5.46"/>
        <rect height="1.63" style="fill: #536cb3" width="36.08" x="20.09" y="2.08"/>
        <path d="M20.09,19.91H56.16V15.76H20.09Z" style="fill: #536cb3"/>
        <g>
          <circle cx="38.48" cy="9.43" r="4.23" style="fill: url(#radial-gradient)" transform="translate(4.61 29.97) rotate(-45)"/>
          <circle cx="37.94" cy="9.97" r="3.25" style="opacity: 0.8;mix-blend-mode: soft-light;fill: url(#radial-gradient-2)" transform="translate(4.06 29.75) rotate(-45)"/>
          <g>
            <path d="M36.44,8l1.28,1.28-1.28,1.28.88.88,1.28-1.28,1.28,1.28.73-.73a.22.22,0,0,0,0-.31L39.48,9.31,40.6,8.19a.22.22,0,0,0,0-.31L40,7.31a.22.22,0,0,0-.31,0L38.6,8.43,37.47,7.31a.22.22,0,0,0-.31,0Z" style="opacity: 0.8;fill: url(#linear-gradient)"/>
            <path d="M40.56,10.79,39.28,9.51l1.28-1.28-.88-.88L38.4,8.63,37.12,7.35l-.73.73a.22.22,0,0,0,0,.31l1.13,1.13-1.13,1.13a.22.22,0,0,0,0,.31l.57.57a.22.22,0,0,0,.31,0l1.13-1.13,1.13,1.13a.22.22,0,0,0,.31,0Z" style="fill: url(#linear-gradient-2)"/>
            <path d="M36.42,8.24,37.6,9.43l-1.19,1.19a.13.13,0,0,0,0,.19l.69.69a.13.13,0,0,0,.19,0l1.19-1.19,1.19,1.19a.13.13,0,0,0,.19,0l.69-.69a.13.13,0,0,0,0-.19L39.36,9.43l1.19-1.19a.13.13,0,0,0,0-.19l-.69-.69a.13.13,0,0,0-.19,0L38.48,8.55,37.29,7.36a.13.13,0,0,0-.19,0l-.69.69A.13.13,0,0,0,36.42,8.24Z" style="fill: url(#radial-gradient-3)"/>
            <g>
              <path d="M40,11.15l-1.09-1.09a.14.14,0,0,0-.19,0l-.24.24,1.19,1.19a.13.13,0,0,0,.19,0l.34-.34A.13.13,0,0,1,40,11.15Z" style="fill: #30383a;opacity: 0.43"/>
              <path d="M37.45,11.15l-.69-.69a.13.13,0,0,1,0-.19l-.34.34a.13.13,0,0,0,0,.19l.69.69a.13.13,0,0,0,.19,0l.34-.34A.13.13,0,0,1,37.45,11.15Z" style="fill: #30383a;opacity: 0.43"/>
              <path d="M36.42,8.24,37.6,9.43l.24-.24a.14.14,0,0,0,0-.19L36.76,7.9a.13.13,0,0,1,0-.19l-.34.34A.13.13,0,0,0,36.42,8.24Z" style="fill: #30383a;opacity: 0.43"/>
            </g>
          </g>
        </g>
        <g>
          <circle cx="50.61" cy="9.3" r="4.23" style="fill: url(#radial-gradient-4)" transform="translate(8.25 38.51) rotate(-45)"/>
          <circle cx="50.07" cy="9.84" r="3.25" style="opacity: 0.8;mix-blend-mode: soft-light;fill: url(#radial-gradient-5)" transform="translate(7.71 38.29) rotate(-45)"/>
          <g>
            <path d="M48.57,7.91l1.28,1.28-1.28,1.28.88.88,1.28-1.28L52,11.35l.73-.73a.22.22,0,0,0,0-.31L51.61,9.19l1.13-1.13a.22.22,0,0,0,0-.31l-.57-.57a.22.22,0,0,0-.31,0L50.73,8.31,49.6,7.18a.22.22,0,0,0-.31,0Z" style="opacity: 0.8;fill: url(#linear-gradient-3)"/>
            <path d="M52.69,10.66,51.41,9.38,52.69,8.1l-.88-.88L50.53,8.5,49.25,7.22l-.73.73a.22.22,0,0,0,0,.31l1.13,1.13-1.13,1.13a.22.22,0,0,0,0,.31l.57.57a.22.22,0,0,0,.31,0l1.13-1.13,1.13,1.13a.22.22,0,0,0,.31,0Z" style="fill: url(#linear-gradient-4)"/>
            <path d="M48.55,8.12,49.73,9.3l-1.19,1.19a.13.13,0,0,0,0,.19l.69.69a.13.13,0,0,0,.19,0l1.19-1.19,1.19,1.19a.13.13,0,0,0,.19,0l.69-.69a.13.13,0,0,0,0-.19L51.49,9.3l1.19-1.19a.13.13,0,0,0,0-.19L52,7.24a.13.13,0,0,0-.19,0L50.61,8.42,49.43,7.24a.13.13,0,0,0-.19,0l-.69.69A.13.13,0,0,0,48.55,8.12Z" style="fill: url(#radial-gradient-6)"/>
            <g>
              <path d="M52.14,11,51,9.94a.14.14,0,0,0-.19,0l-.24.24,1.19,1.19a.13.13,0,0,0,.19,0l.34-.34A.13.13,0,0,1,52.14,11Z" style="fill: #30383a;opacity: 0.43"/>
              <path d="M49.58,11l-.69-.69a.13.13,0,0,1,0-.19l-.34.34a.13.13,0,0,0,0,.19l.69.69a.13.13,0,0,0,.19,0l.34-.34A.13.13,0,0,1,49.58,11Z" style="fill: #30383a;opacity: 0.43"/>
              <path d="M48.55,8.12,49.73,9.3,50,9.06a.14.14,0,0,0,0-.19L48.89,7.78a.13.13,0,0,1,0-.19l-.34.34A.13.13,0,0,0,48.55,8.12Z" style="fill: #30383a;opacity: 0.43"/>
            </g>
          </g>
        </g>
        <g>
          <circle cx="26.35" cy="9.36" r="4.23" style="fill: url(#radial-gradient-7)" transform="translate(1.1 21.38) rotate(-45)"/>
          <circle cx="25.81" cy="9.91" r="3.25" style="opacity: 0.8;mix-blend-mode: soft-light;fill: url(#radial-gradient-8)" transform="translate(0.56 21.15) rotate(-45)"/>
          <g>
            <path d="M24.3,8l1.28,1.28L24.3,10.53l.88.88,1.28-1.28,1.28,1.28.73-.73a.22.22,0,0,0,0-.31L27.34,9.25l1.13-1.13a.22.22,0,0,0,0-.31l-.57-.57a.22.22,0,0,0-.31,0L26.46,8.37,25.34,7.24a.22.22,0,0,0-.31,0Z" style="opacity: 0.8;fill: url(#linear-gradient-5)"/>
            <path d="M28.43,10.73,27.15,9.44l1.28-1.28-.88-.88L26.27,8.57,25,7.28,24.26,8a.22.22,0,0,0,0,.31l1.13,1.13-1.13,1.13a.22.22,0,0,0,0,.31l.57.57a.22.22,0,0,0,.31,0l1.13-1.13,1.13,1.13a.22.22,0,0,0,.31,0Z" style="fill: url(#linear-gradient-6)"/>
            <path d="M24.28,8.18l1.19,1.19-1.19,1.19a.13.13,0,0,0,0,.19l.69.69a.13.13,0,0,0,.19,0l1.19-1.19,1.19,1.19a.13.13,0,0,0,.19,0l.69-.69a.13.13,0,0,0,0-.19L27.23,9.37l1.19-1.19a.13.13,0,0,0,0-.19l-.69-.69a.13.13,0,0,0-.19,0L26.35,8.49,25.16,7.3a.13.13,0,0,0-.19,0L24.28,8A.13.13,0,0,0,24.28,8.18Z" style="fill: url(#radial-gradient-9)"/>
            <g>
              <path d="M27.88,11.09,26.79,10a.14.14,0,0,0-.19,0l-.24.24,1.19,1.19a.13.13,0,0,0,.19,0l.34-.34A.13.13,0,0,1,27.88,11.09Z" style="fill: #30383a;opacity: 0.43"/>
              <path d="M25.31,11.09l-.69-.69a.13.13,0,0,1,0-.19l-.34.34a.13.13,0,0,0,0,.19l.69.69a.13.13,0,0,0,.19,0l.34-.34A.13.13,0,0,1,25.31,11.09Z" style="fill: #30383a;opacity: 0.43"/>
              <path d="M24.28,8.18l1.19,1.19.24-.24a.14.14,0,0,0,0-.19L24.62,7.84a.13.13,0,0,1,0-.19L24.28,8A.13.13,0,0,0,24.28,8.18Z" style="fill: #30383a;opacity: 0.43"/>
            </g>
          </g>
        </g>
        <g>
          <circle cx="26.35" cy="17.47" r="1.02" style="fill: #114471"/>
          <path d="M25.86,18.35l-.06,0a.68.68,0,0,1-.16-.12l1.26-1.59.11.09.08.08Z" style="fill: #114471"/>
        </g>
        <g>
          <circle cx="38.46" cy="17.47" r="1.02" style="fill: #114471"/>
          <path d="M38,18.35l-.06,0a.68.68,0,0,1-.16-.12L39,16.61l.11.09.08.08Z" style="fill: #114471"/>
        </g>
        <g>
          <circle cx="50.58" cy="17.47" r="1.02" style="fill: #114471"/>
          <path d="M50.09,18.35l-.06,0a.68.68,0,0,1-.16-.12l1.26-1.59.11.09.08.08Z" style="fill: #114471"/>
        </g>
      </g>
    </g>
    <g data-name="Text Alb" id="Text_Alb">
      <polyline points="5.46 24 5.46 41.92 12.13 41.92 12.13 24 4.97 24" style="fill: none;stroke: #ded7d2;stroke-miterlimit: 10"/>
      <rect height="11.42" style="fill: none;stroke: #ded7d2;stroke-miterlimit: 10" width="6.33" x="4.13" y="63.04"/>
      <polyline points="4.13 57.88 4.13 54.5 5.46 54.5" style="fill: none;stroke: #ded7d2;stroke-miterlimit: 10"/>
      <g>
        <path d="M17.49,87.13a.91.91,0,0,1,.1.44,1,1,0,0,1-.13.48l-.37.74a.52.52,0,0,1-1,0L15.75,88a1,1,0,0,1-.13-.48.91.91,0,0,1,.1-.44l.4-.79a.52.52,0,0,1,1,0Zm-.75-.6c0-.06-.05-.12-.14-.12s-.1.06-.14.12l-.36.72a.62.62,0,0,0-.09.32.54.54,0,0,0,.07.26l.38.76c0,.06.06.12.14.12s.11-.06.14-.12l.38-.76a.54.54,0,0,0,.07-.26.62.62,0,0,0-.09-.32Z" style="fill: #ded7d2"/>
        <path d="M19.52,86.21a.2.2,0,1,1,.4,0v2.91h-.53l-1-2.4h0v2.2a.2.2,0,1,1-.4,0V86h.53l1,2.43h0Z" style="fill: #ded7d2"/>
        <path d="M22.84,89.35v.4H20v-.4Z" style="fill: #ded7d2"/>
        <path d="M24.51,88.72a.2.2,0,1,1,0,.4H22.74V86.21a.2.2,0,1,1,.4,0v2.51Z" style="fill: #ded7d2"/>
        <path d="M25.81,89.12a.41.41,0,0,1-.34-.1l-.16-.14a.48.48,0,0,1-.2-.43V87.7a.51.51,0,0,1,.19-.46l.14-.12a.52.52,0,0,1,.42-.16h.35a.55.55,0,0,1,.42.14l.16.12a.54.54,0,0,1,.2.5V88c0,.22,0,.28-.26.28H25.49v.13a.19.19,0,0,0,.06.11l.1.1a.32.32,0,0,0,.26.07h.82c.13,0,.26,0,.26.19s-.15.19-.26.19Zm-.32-1.18H26.6V87.7c0-.07,0-.13,0-.18l-.15-.13a.27.27,0,0,0-.18,0H25.9a.3.3,0,0,0-.2,0l-.13.1a.17.17,0,0,0-.08.18Z" style="fill: #ded7d2"/>
        <path d="M28.64,87a.55.55,0,0,1,.38.21l.06.07v-.81c0-.13,0-.26.19-.26s.19.13.19.26v2.42c0,.13,0,.27-.19.27s-.19-.13-.19-.26v0l-.08.08a.61.61,0,0,1-.37.2h-.37a.59.59,0,0,1-.33-.14l-.13-.11a.5.5,0,0,1-.21-.44v-.77a.5.5,0,0,1,.21-.44l.13-.11A.48.48,0,0,1,28.3,87ZM28,88.27c0,.11,0,.24.06.29l.12.09a.25.25,0,0,0,.14.08h.27a.32.32,0,0,0,.19-.1l.22-.19c.06,0,.11-.1.11-.17V87.8c0-.07-.06-.12-.11-.17l-.22-.19a.32.32,0,0,0-.19-.1h-.27a.25.25,0,0,0-.14.08l-.12.09c-.06,0-.06.18-.06.29Z" style="fill: #ded7d2"/>
      </g>
      <g>
        <path d="M35.66,88.92a.51.51,0,0,1,.14.33.45.45,0,0,1-.5.45h-.88a.59.59,0,0,1-.4-.13.5.5,0,0,1-.19-.37A.21.21,0,0,1,34,89a.19.19,0,0,1,.19.2c0,.12.06.14.18.14h.87s.13,0,.13,0-.06-.09-.07-.12L34,87.38a.48.48,0,0,1-.13-.33.44.44,0,0,1,.21-.38.53.53,0,0,1,.33-.07h.85a.57.57,0,0,1,.4.13.54.54,0,0,1,.19.38.2.2,0,0,1-.21.23.18.18,0,0,1-.19-.19c0-.14-.07-.16-.19-.16h-.85s-.14,0-.14.06,0,.08.06.11Z" style="fill: #ded7d2"/>
        <path d="M41.41,87.35a.2.2,0,1,1,.4,0V88h.59a.2.2,0,1,1,0,.4h-.59v.59a.2.2,0,1,1-.4,0v-.59h-.59a.2.2,0,0,1,0-.4h.59Z" style="fill: #ded7d2"/>
        <path d="M49,87.91c.16,0,.24.06.24.24s-.08.24-.24.24H48c-.16,0-.24-.06-.24-.24s.08-.24.24-.24Z" style="fill: #ded7d2"/>
      </g>
      <polyline points="34.96 79.17 32.83 79.17 32.83 85.96 53.38 85.96 53.38 84.46" style="fill: none;stroke: #ded7d2;stroke-miterlimit: 10"/>
      <g>
        <path d="M61.85,68.46a.25.25,0,0,1,0-.5H63l-1.3-1.53a.33.33,0,0,1-.1-.21.24.24,0,0,1,.26-.24.3.3,0,0,1,.21.12l1.47,1.73L65,66.11a.3.3,0,0,1,.22-.12.25.25,0,0,1,.26.24c0,.11-.09.19-.15.27L64.09,68h1.16a.25.25,0,1,1,0,.5Z" style="fill: #fff"/>
        <path d="M65.5,63.91a.51.51,0,0,1-.13.43l-.18.21a.6.6,0,0,1-.54.25h-.93a.63.63,0,0,1-.58-.24L63,64.39a.64.64,0,0,1-.2-.53v-.44a.69.69,0,0,1,.17-.53l.16-.2a.68.68,0,0,1,.63-.25h.38c.28,0,.36,0,.36.33v1.54h.16a.24.24,0,0,0,.14-.07l.13-.12a.4.4,0,0,0,.09-.32v-1c0-.16,0-.33.24-.33s.24.19.24.33Zm-1.48.4V62.92h-.29c-.09,0-.17,0-.23.06l-.16.19a.34.34,0,0,0-.06.23v.41a.38.38,0,0,0,.06.25l.12.17a.22.22,0,0,0,.22.1Z" style="fill: #fff"/>
        <path d="M63.41,59.32h-.27c-.17,0-.33,0-.33-.24s.17-.24.33-.24h.19a.64.64,0,0,1,.31.06l2.64,1.21c.23.11.25.16.25.38v.37c0,.14,0,.33-.24.33S66,61,66,60.87v-.33l-.74-.36v0c0,.2-.09.21-.26.29l-1.31.59a.94.94,0,0,1-.39.11h-.21c-.17,0-.33,0-.33-.24s.17-.24.33-.24h.27l1.42-.65V60Z" style="fill: #fff"/>
        <path d="M65.5,57.22a.51.51,0,0,1-.13.43l-.18.21a.6.6,0,0,1-.54.25h-.93a.63.63,0,0,1-.58-.24L63,57.69a.64.64,0,0,1-.2-.53v-.44a.69.69,0,0,1,.17-.53l.16-.2a.68.68,0,0,1,.63-.25h.38c.28,0,.36,0,.36.33v1.54h.16a.24.24,0,0,0,.14-.07l.13-.12a.4.4,0,0,0,.09-.32v-1c0-.16,0-.33.24-.33s.24.19.24.33Zm-1.48.4V56.22h-.29c-.09,0-.17,0-.23.06l-.16.19a.34.34,0,0,0-.06.23v.41a.38.38,0,0,0,.06.25l.12.17a.22.22,0,0,0,.22.1Z" style="fill: #fff"/>
        <path d="M63.28,53.48c0,.1,0,.27.14.27s.11-.06.14-.13l.55-1.2a.68.68,0,0,1,.68-.47.69.69,0,0,1,.72.79v.74a.87.87,0,0,1-.15.6c-.07.09-.16.22-.28.22a.25.25,0,0,1-.24-.25.23.23,0,0,1,.08-.19.51.51,0,0,0,.11-.38v-.65c0-.17,0-.4-.27-.4-.12,0-.19.14-.24.25L64,53.81a.59.59,0,0,1-.59.42.61.61,0,0,1-.61-.66v-.82a.69.69,0,0,1,.17-.56c.08-.09.13-.19.27-.19a.24.24,0,0,1,.24.25.25.25,0,0,1-.1.21.35.35,0,0,0-.09.3Z" style="fill: #fff"/>
        <path d="M65.79,48h.5v3.6h-.5Z" style="fill: #fff"/>
        <path d="M64.52,45.36a.65.65,0,0,1,.42-.18.56.56,0,0,1,.57.63v1.1a.74.74,0,0,1-.16.51.64.64,0,0,1-.47.24.27.27,0,0,1-.3-.27.24.24,0,0,1,.25-.24c.15,0,.17-.08.17-.22V45.85s0-.17-.06-.17-.12.07-.15.09l-2.21,1.72a.61.61,0,0,1-.41.17.56.56,0,0,1-.48-.27A.67.67,0,0,1,61.6,47V45.92a.71.71,0,0,1,.17-.5.68.68,0,0,1,.47-.24.26.26,0,0,1,.29.26.22.22,0,0,1-.24.24c-.17,0-.19.08-.19.24V47c0,.06,0,.17.07.17s.11-.05.14-.08Z" style="fill: #fff"/>
        <path d="M65.25,43.66a.25.25,0,1,1,0,.5H61.6V42.48a.76.76,0,0,1,.73-.79h.34a.73.73,0,0,1,.71.79v.46L65,41.81a.5.5,0,0,1,.26-.12.24.24,0,0,1,.24.25.26.26,0,0,1-.14.22l-2,1.38v.12Zm-2.36,0V42.55c0-.14,0-.36-.21-.36h-.34c-.2,0-.23.21-.23.36v1.12Z" style="fill: #fff"/>
        <path d="M65,39.49H64a.25.25,0,0,1,0-.5h1.26a.23.23,0,0,1,.25.25v2a.25.25,0,0,1-.5,0v-.74H62.1v.74a.25.25,0,0,1-.5,0V40H65Z" style="fill: #fff"/>
        <path d="M63.41,36h-.27c-.17,0-.33,0-.33-.24s.17-.24.33-.24h.19a.64.64,0,0,1,.31.06l2.64,1.21c.23.11.25.16.25.38v.37c0,.14,0,.33-.24.33s-.24-.17-.24-.33v-.33l-.74-.36v0c0,.2-.09.21-.26.29l-1.31.59a.94.94,0,0,1-.39.11h-.21c-.17,0-.33,0-.33-.24s.17-.24.33-.24h.27l1.42-.65v-.1Z" style="fill: #fff"/>
      </g>
      <path d="M39.1,44.17,40,43.5l-.23-2.44a3.5,3.5,0,0,1-.2-2.79l4.11,2.15a7.81,7.81,0,0,1-2.12,1.13A12.46,12.46,0,0,1,41,40.19c-.1-.36-.19-.7-.25-1L40,39l0,1.17.58.75,0,2.5,4.83-2.92L39.1,36.77l-.67,1.56.08,1.27.29.63.06.6a11,11,0,0,1,.23,3.33Z" style="fill: #fff"/>
      <path d="M48.29,26.87,50.42,28V38.87a4.15,4.15,0,0,1-1.23-1,4.2,4.2,0,0,1-.9-2Z" style="fill: #fff"/>
      <path d="M56.57,42.91l-2.12-1.08V30.91a4.15,4.15,0,0,1,1.23,1,4.2,4.2,0,0,1,.9,2Z" style="fill: #fff"/>
      <polygon points="51.47 28.71 53.72 30.02 53.72 40.99 51.47 39.49 51.47 28.71" style="fill: #fff"/>
      <path d="M40.61,63.18a.77.77,0,0,1,.1-.51l4.5-1.83L45,56.12,41.5,57.29v1l-2.62-.37-.21-.17v1.67a10.41,10.41,0,0,1,1.71.73l.54.31-2.25,1L38.88,65a.78.78,0,0,0,.28.4.79.79,0,0,0,.55.14l5.5-1.83V62.12L40.75,63.5A.74.74,0,0,1,40.61,63.18Zm2-4.91,1.11-.3V59.9l-1.11.23Z" style="fill: #fff"/>
      <polygon points="43.75 57.97 42.64 58.27 42.64 60.13 43.75 59.9 43.75 57.97" style="fill: none"/>
      <ellipse cx="41.88" cy="30.8" rx="3.44" ry="5.22" style="fill: none;stroke: #fff;stroke-miterlimit: 10;stroke-width: 0.4px"/>
      <circle cx="49.35" cy="42.36" r="1.8" style="fill: none;stroke: #fff;stroke-miterlimit: 10;stroke-width: 0.4px"/>
      <g>
        <path d="M22.5,26.71a.65.65,0,0,1-.42.18.56.56,0,0,1-.57-.63v-1.1a.74.74,0,0,1,.16-.51.63.63,0,0,1,.47-.24.27.27,0,0,1,.3.27.24.24,0,0,1-.25.24c-.15,0-.17.08-.17.22v1.09s0,.17.06.17.12-.07.15-.09l2.21-1.72a.6.6,0,0,1,.41-.17.56.56,0,0,1,.48.27.67.67,0,0,1,.09.42v1.06a.71.71,0,0,1-.17.5.68.68,0,0,1-.48.24.26.26,0,0,1-.29-.26.22.22,0,0,1,.24-.24c.17,0,.2-.08.2-.24V25.08c0-.06,0-.17-.07-.17s-.1.06-.14.08Z" style="fill: #fff"/>
        <path d="M21.77,29.11a.25.25,0,0,1,0-.5h3.64v1.68a.76.76,0,0,1-.73.79h-.35a.73.73,0,0,1-.71-.79v-.46L22,31a.5.5,0,0,1-.27.13.24.24,0,0,1-.24-.26.26.26,0,0,1,.14-.22l2-1.38v-.12Zm2.36,0v1.11c0,.14,0,.36.21.36h.35c.2,0,.23-.21.23-.36V29.11Z" style="fill: #fff"/>
        <path d="M24.92,32.9v-.19c0-.17.06-.31.25-.31s.25.14.25.29v.84a.75.75,0,0,1-.5.76l-.88.44a1.16,1.16,0,0,1-1.13,0L22,34.28a.76.76,0,0,1-.47-.79v-.83a.25.25,0,1,1,.5,0v.24ZM22,33.4v.1c0,.21,0,.26.21.35l.89.44a.7.7,0,0,0,.33.1.84.84,0,0,0,.41-.12l.85-.42c.22-.1.21-.15.21-.38V33.4Z" style="fill: #fff"/>
        <path d="M23.77,37.43c0,.21-.08.3-.31.3s-.31-.1-.31-.3V36.26c0-.21.08-.3.31-.3s.31.1.31.3Z" style="fill: #fff"/>
        <path d="M25.42,40.08a.5.5,0,0,1-.5.5H22a.49.49,0,0,1-.5-.5V38.61a.49.49,0,0,1,.5-.5h2.89a.5.5,0,0,1,.5.5Zm-3.39,0h2.89V38.61H22Z" style="fill: #fff"/>
        <path d="M23.72,42.31v.92a.52.52,0,0,1-.14.4.49.49,0,0,1-.43.16H22.08a.53.53,0,0,1-.39-.12.49.49,0,0,1-.17-.44V42.12a.73.73,0,0,1,.09-.33l.09-.19c.06-.13.1-.29.28-.29a.25.25,0,0,1,.25.24.36.36,0,0,1,0,.16l-.06.15a.85.85,0,0,0-.1.26v1.16h1.2V41.81h2.2v1.73a.25.25,0,0,1-.5,0V42.31Z" style="fill: #fff"/>
        <path d="M24.37,46.68h.8a.25.25,0,0,1,0,.5h-.79a.51.51,0,0,1-.19,0l-2.44-1c-.12,0-.22-.09-.22-.25s.1-.2.22-.25l2.44-1a.51.51,0,0,1,.19,0h.79a.25.25,0,0,1,0,.5h-.8l-1.91.74Z" style="fill: #fff"/>
        <path d="M24.92,49.5v-.18c0-.17.06-.31.25-.31s.25.14.25.29v.84a.75.75,0,0,1-.5.76l-.88.44a1.18,1.18,0,0,1-.58.15,1.19,1.19,0,0,1-.55-.15L22,50.88a.76.76,0,0,1-.47-.79v-.83a.25.25,0,0,1,.5,0v.24ZM22,50v.09c0,.21,0,.26.21.35l.89.44a.7.7,0,0,0,.33.09.84.84,0,0,0,.41-.12l.85-.42c.22-.11.21-.15.21-.38V50Z" style="fill: #fff"/>
        <path d="M21.52,54A.75.75,0,0,1,22,53.2l.93-.46a1.12,1.12,0,0,1,.53-.14,1.09,1.09,0,0,1,.56.14l.93.46a.75.75,0,0,1,.48.77v.85a.23.23,0,0,1-.25.25.24.24,0,0,1-.25-.25V54c0-.22,0-.25-.21-.35l-.87-.44a.78.78,0,0,0-.38-.1.7.7,0,0,0-.35.1l-.87.43c-.21.1-.22.15-.22.38v.82a.23.23,0,0,1-.25.25.24.24,0,0,1-.25-.25Z" style="fill: #fff"/>
        <path d="M23.77,57.63c0,.21-.08.3-.31.3s-.31-.09-.31-.3V56.46c0-.21.08-.3.31-.3s.31.09.31.3Z" style="fill: #fff"/>
        <path d="M22.5,61.31a.65.65,0,0,1-.42.17.56.56,0,0,1-.57-.63v-1.1a.74.74,0,0,1,.16-.51.63.63,0,0,1,.47-.24.27.27,0,0,1,.3.27.24.24,0,0,1-.25.24c-.15,0-.17.08-.17.22v1.09s0,.17.06.17.12-.07.15-.09l2.21-1.72a.6.6,0,0,1,.41-.17.56.56,0,0,1,.48.27.67.67,0,0,1,.09.42v1.06a.71.71,0,0,1-.17.5.68.68,0,0,1-.48.24.26.26,0,0,1-.29-.26.22.22,0,0,1,.24-.24c.17,0,.2-.08.2-.24V59.68c0-.05,0-.17-.07-.17s-.1.05-.14.07Z" style="fill: #fff"/>
        <path d="M22,64.53a.25.25,0,0,1-.5,0V62.31h3.64a.25.25,0,0,1,0,.5H22Z" style="fill: #fff"/>
        <path d="M23.77,66.63c0,.21-.08.3-.31.3s-.31-.09-.31-.3V65.46c0-.21.08-.3.31-.3s.31.09.31.3Z" style="fill: #fff"/>
        <path d="M21.52,68.85A.75.75,0,0,1,22,68.1l.93-.46a1.13,1.13,0,0,1,.53-.13,1.09,1.09,0,0,1,.56.14l.93.46a.75.75,0,0,1,.48.77v.85a.23.23,0,0,1-.25.25.24.24,0,0,1-.25-.25v-.84c0-.22,0-.25-.21-.35l-.87-.44a.78.78,0,0,0-.38-.1.7.7,0,0,0-.35.1l-.87.43c-.21.1-.22.15-.22.38v.82a.23.23,0,0,1-.25.25.24.24,0,0,1-.25-.25Z" style="fill: #fff"/>
      </g>
      <g>
        <path d="M26.79,25.88h1a.25.25,0,0,1,0,.5H26.54a.23.23,0,0,1-.25-.25v-2a.25.25,0,1,1,.5,0v.74h2.89v-.74a.25.25,0,1,1,.5,0V25.4H26.79Z" style="fill: #fff"/>
        <path d="M30.19,28.48a.5.5,0,0,1-.5.5H26.79a.49.49,0,0,1-.5-.5V27a.49.49,0,0,1,.5-.5h2.89a.5.5,0,0,1,.5.5Zm-3.39,0h2.89V27H26.79Z" style="fill: #fff"/>
        <path d="M29.93,30.09c.13,0,.25.1.25.26s-.12.23-.25.26l-3.39,1c-.12,0-.25-.1-.25-.24a.3.3,0,0,1,.25-.27l.6-.19V29.81l-.6-.19a.3.3,0,0,1-.25-.27c0-.14.13-.27.25-.24Zm-.93.26h0L27.64,30v.79Z" style="fill: #fff"/>
        <path d="M29.69,33.56a.25.25,0,1,1,.5,0v1.72a.49.49,0,0,1-.5.5h-1a.58.58,0,0,1-.49-.2.58.58,0,0,1-.49.2h-1a.49.49,0,0,1-.5-.5V33.56a.25.25,0,1,1,.5,0v1.72h.83c.28,0,.37-.11.37-.25v-1a.25.25,0,0,1,.5,0v1c0,.14.08.25.37.25h.83Z" style="fill: #fff"/>
        <path d="M30.19,38.08a.5.5,0,0,1-.5.5H26.79a.49.49,0,0,1-.5-.5V36.61a.49.49,0,0,1,.5-.5h2.89a.5.5,0,0,1,.5.5Zm-3.39,0h2.89V36.61H26.79Z" style="fill: #fff"/>
        <path d="M29.14,40.78h.8a.25.25,0,1,1,0,.5h-.79a.52.52,0,0,1-.19,0l-2.44-1c-.12,0-.22-.1-.22-.25s.1-.2.22-.25l2.44-1a.52.52,0,0,1,.19,0h.79a.25.25,0,0,1,0,.5h-.8L27.22,40Z" style="fill: #fff"/>
        <path d="M29.69,41.9v-.18c0-.17.06-.31.25-.31s.25.14.25.29v.84a.75.75,0,0,1-.5.76l-.88.44a1.18,1.18,0,0,1-.58.15,1.19,1.19,0,0,1-.55-.15l-.91-.46a.76.76,0,0,1-.47-.79v-.83a.25.25,0,0,1,.5,0v.24Zm-2.89.5v.09c0,.21,0,.26.21.35l.89.44a.7.7,0,0,0,.33.09.84.84,0,0,0,.41-.12l.85-.42c.22-.11.21-.15.21-.38V42.4Z" style="fill: #fff"/>
        <path d="M26.29,45.66a.75.75,0,0,1,.48-.75l.93-.46a1.13,1.13,0,0,1,.53-.13,1.09,1.09,0,0,1,.56.14l.93.46a.75.75,0,0,1,.48.77v.85a.23.23,0,0,1-.25.25.24.24,0,0,1-.25-.25V45.7c0-.22,0-.25-.21-.35l-.87-.44a.78.78,0,0,0-.38-.1.7.7,0,0,0-.35.1l-.87.43c-.21.1-.22.15-.22.38v.82a.23.23,0,0,1-.25.25.24.24,0,0,1-.25-.25Z" style="fill: #fff"/>
        <path d="M26.79,50.88h1a.25.25,0,0,1,0,.5H26.54a.23.23,0,0,1-.25-.25v-2a.25.25,0,0,1,.5,0v.74h2.89v-.74a.25.25,0,0,1,.5,0v1.24H26.79Z" style="fill: #fff"/>
        <path d="M26.29,52.75a.75.75,0,0,1,.48-.75l.93-.46a1.12,1.12,0,0,1,.53-.14,1.09,1.09,0,0,1,.56.14l.93.46a.75.75,0,0,1,.48.77v.85a.23.23,0,0,1-.25.25.24.24,0,0,1-.25-.25v-.84c0-.22,0-.25-.21-.35L28.61,52a.78.78,0,0,0-.38-.1.7.7,0,0,0-.35.1l-.87.43c-.21.1-.22.15-.22.38v.82a.23.23,0,0,1-.25.25.24.24,0,0,1-.25-.25Z" style="fill: #fff"/>
        <path d="M29.93,55.09c.13,0,.25.09.25.25s-.12.23-.25.26l-3.39,1c-.12,0-.25-.1-.25-.24a.3.3,0,0,1,.25-.27l.6-.19V54.81l-.6-.19a.3.3,0,0,1-.25-.27c0-.14.13-.28.25-.24Zm-.93.26h0l-1.36-.39v.79Z" style="fill: #fff"/>
        <path d="M26.79,58.41v1.72a.25.25,0,0,1-.5,0V57.91h1.63a.5.5,0,0,1,.57.57v1.41h1.2V58.16a.25.25,0,0,1,.5,0v1.66a.52.52,0,0,1-.59.56h-1a.52.52,0,0,1-.59-.56V58.41Z" style="fill: #fff"/>
        <path d="M30.19,62.33a.24.24,0,0,1-.25.25H28.49a.51.51,0,0,1-.14.37.48.48,0,0,1-.37.14H26.79a.47.47,0,0,1-.5-.5V61.11a.47.47,0,0,1,.5-.5H28a.48.48,0,0,1,.37.14.51.51,0,0,1,.14.37h1.45a.24.24,0,0,1,.25.25Zm-3.39.25H28V61.11h-1.2Zm1.7-.5h1.2v-.47h-1.2Z" style="fill: #fff"/>
        <path d="M29.14,64.88h.8a.25.25,0,0,1,0,.5h-.79a.51.51,0,0,1-.19,0l-2.44-1c-.12,0-.22-.09-.22-.25s.1-.2.22-.25l2.44-1a.51.51,0,0,1,.19,0h.79a.25.25,0,0,1,0,.5h-.8l-1.91.74Z" style="fill: #fff"/>
        <path d="M29.69,66.2V66c0-.17.06-.31.25-.31s.25.14.25.29v.84a.75.75,0,0,1-.5.76l-.88.44a1.18,1.18,0,0,1-.58.15,1.19,1.19,0,0,1-.55-.15l-.91-.46a.76.76,0,0,1-.47-.79V66a.25.25,0,0,1,.5,0v.24Zm-2.89.5v.09c0,.21,0,.26.21.35l.89.44a.7.7,0,0,0,.33.09.84.84,0,0,0,.41-.12l.85-.42c.22-.11.21-.15.21-.38V66.7Z" style="fill: #fff"/>
        <path d="M26.29,69.85a.75.75,0,0,1,.48-.75l.93-.46a1.12,1.12,0,0,1,.53-.14,1.09,1.09,0,0,1,.56.14l.93.46a.75.75,0,0,1,.48.77v.85a.23.23,0,0,1-.25.25.24.24,0,0,1-.25-.25v-.84c0-.22,0-.25-.21-.35l-.87-.44a.78.78,0,0,0-.38-.1.7.7,0,0,0-.35.1l-.87.43c-.21.1-.22.15-.22.38v.82a.23.23,0,0,1-.25.25.24.24,0,0,1-.25-.25Z" style="fill: #fff"/>
      </g>
      <g>
        <path d="M31.31,25.88h1a.25.25,0,0,1,0,.5H31.06a.23.23,0,0,1-.25-.25v-2a.25.25,0,1,1,.5,0v.74h2.89v-.74a.25.25,0,1,1,.5,0V25.4H31.31Z" style="fill: #fff"/>
        <path d="M34.71,28.58a.5.5,0,0,1-.5.5H31.31a.49.49,0,0,1-.5-.5V27.11a.49.49,0,0,1,.5-.5h2.89a.5.5,0,0,1,.5.5Zm-3.39,0h2.89V27.11H31.31Z" style="fill: #fff"/>
        <path d="M34.45,30.29c.13,0,.25.1.25.26s-.12.23-.25.26l-3.39,1c-.12,0-.25-.1-.25-.24a.3.3,0,0,1,.25-.27l.6-.19V30l-.6-.19a.3.3,0,0,1-.25-.27c0-.14.13-.27.25-.24Zm-.93.26h0l-1.36-.39v.79Z" style="fill: #fff"/>
        <path d="M31.31,33.51v1.72a.25.25,0,1,1-.5,0V33h1.63a.5.5,0,0,1,.57.57V35h1.2V33.26a.25.25,0,1,1,.5,0v1.66a.52.52,0,0,1-.59.56h-1a.52.52,0,0,1-.59-.56V33.51Z" style="fill: #fff"/>
        <path d="M33,36.51v.92a.52.52,0,0,1-.14.4.49.49,0,0,1-.43.16H31.37a.53.53,0,0,1-.39-.12.49.49,0,0,1-.17-.44V36.32A.73.73,0,0,1,30.9,36L31,35.8c.06-.14.1-.29.28-.29a.25.25,0,0,1,.25.24.36.36,0,0,1,0,.16l-.06.15a.84.84,0,0,0-.1.27v1.16h1.2V36h2.2v1.73a.25.25,0,1,1-.5,0V36.51Z" style="fill: #fff"/>
        <path d="M33.3,40.45a1.14,1.14,0,0,1-.56.13,1.23,1.23,0,0,1-.6-.17L31.23,40a.66.66,0,0,1,0-1.22l.92-.46a1.23,1.23,0,0,1,.6-.17,1.13,1.13,0,0,1,.56.13l1,.5a.65.65,0,0,1,0,1.21Zm.76-.94c.08,0,.15-.06.15-.17s-.07-.13-.15-.17l-.91-.45a.77.77,0,0,0-.41-.12.68.68,0,0,0-.33.09l-1,.48c-.07,0-.15.07-.15.17s.08.14.15.17l1,.48a.67.67,0,0,0,.33.08.78.78,0,0,0,.41-.11Z" style="fill: #fff"/>
        <path d="M33.66,42.58h.8a.25.25,0,0,1,0,.5h-.79a.51.51,0,0,1-.2,0L31,42.1c-.12,0-.22-.09-.22-.25s.1-.2.22-.25l2.44-1a.51.51,0,0,1,.2,0h.79a.25.25,0,0,1,0,.5h-.8l-1.91.74Z" style="fill: #fff"/>
        <path d="M34.45,43.89c.13,0,.25.09.25.25s-.12.23-.25.26l-3.39,1c-.12,0-.25-.1-.25-.24a.3.3,0,0,1,.25-.27l.6-.19V43.61l-.6-.19a.3.3,0,0,1-.25-.27c0-.14.13-.28.25-.24Zm-.93.26h0l-1.36-.39v.79Z" style="fill: #fff"/>
        <path d="M30.81,46.65a.75.75,0,0,1,.48-.75l.93-.46a1.12,1.12,0,0,1,.53-.14,1.09,1.09,0,0,1,.56.14l.93.46a.75.75,0,0,1,.48.77v.85a.23.23,0,0,1-.25.25.24.24,0,0,1-.25-.25v-.84c0-.22,0-.25-.21-.35l-.87-.44a.78.78,0,0,0-.38-.1.7.7,0,0,0-.35.1l-.87.43c-.21.1-.22.15-.22.38v.82a.23.23,0,0,1-.25.25.24.24,0,0,1-.25-.25Z" style="fill: #fff"/>
        <path d="M31.31,51.28h1a.25.25,0,0,1,0,.5H31.06a.23.23,0,0,1-.25-.25v-2a.25.25,0,0,1,.5,0v.74h2.89v-.74a.25.25,0,1,1,.5,0v1.24H31.31Z" style="fill: #fff"/>
        <path d="M33.3,54.15a1.14,1.14,0,0,1-.56.13,1.23,1.23,0,0,1-.6-.17l-.92-.46a.66.66,0,0,1,0-1.22l.92-.46a1.23,1.23,0,0,1,.6-.17,1.14,1.14,0,0,1,.56.13l1,.5a.65.65,0,0,1,0,1.21Zm.76-.94c.08,0,.15-.06.15-.17s-.07-.13-.15-.17l-.91-.45a.78.78,0,0,0-.41-.11.67.67,0,0,0-.33.08l-1,.48c-.07,0-.15.07-.15.17s.08.13.15.17l1,.48a.67.67,0,0,0,.33.08.78.78,0,0,0,.41-.11Z" style="fill: #fff"/>
        <path d="M34.45,55.09c.13,0,.25.09.25.25s-.12.23-.25.26l-3.39,1c-.12,0-.25-.1-.25-.24a.3.3,0,0,1,.25-.27l.6-.19V54.81l-.6-.19a.3.3,0,0,1-.25-.27c0-.14.13-.28.25-.24Zm-.93.26h0l-1.36-.39v.79Z" style="fill: #fff"/>
        <path d="M31.31,59.28h1a.25.25,0,0,1,0,.5H31.06a.23.23,0,0,1-.25-.25v-2a.25.25,0,0,1,.5,0v.74h2.89v-.74a.25.25,0,0,1,.5,0v1.24H31.31Z" style="fill: #fff"/>
        <path d="M31.31,60.41v1.72a.25.25,0,0,1-.5,0V59.91h1.63a.5.5,0,0,1,.57.57v1.41h1.2V60.16a.25.25,0,1,1,.5,0v1.66a.52.52,0,0,1-.59.56h-1a.52.52,0,0,1-.59-.56V60.41Z" style="fill: #fff"/>
        <path d="M33,63.5v.92a.52.52,0,0,1-.14.4.49.49,0,0,1-.43.16H31.37a.53.53,0,0,1-.39-.12.49.49,0,0,1-.17-.44V63.31A.73.73,0,0,1,30.9,63l.09-.19c.06-.13.1-.29.28-.29a.25.25,0,0,1,.25.24.36.36,0,0,1,0,.16l-.06.15a.85.85,0,0,0-.1.26v1.16h1.2V63h2.2v1.73a.25.25,0,0,1-.5,0V63.5Z" style="fill: #fff"/>
        <path d="M33.66,67h.8a.25.25,0,0,1,0,.5h-.79a.51.51,0,0,1-.2,0l-2.44-1c-.12,0-.22-.09-.22-.25s.1-.2.22-.25l2.44-1a.51.51,0,0,1,.2,0h.79a.25.25,0,0,1,0,.5h-.8l-1.91.74Z" style="fill: #fff"/>
        <path d="M34.45,67.89c.13,0,.25.09.25.25s-.12.23-.25.26l-3.39,1c-.12,0-.25-.1-.25-.24a.3.3,0,0,1,.25-.27l.6-.19V67.61l-.6-.19a.3.3,0,0,1-.25-.27c0-.14.13-.28.25-.24Zm-.93.26h0l-1.36-.39v.79Z" style="fill: #fff"/>
        <path d="M30.81,70.65a.75.75,0,0,1,.48-.75l.93-.46a1.12,1.12,0,0,1,.53-.14,1.09,1.09,0,0,1,.56.14l.93.46a.75.75,0,0,1,.48.77v.85a.23.23,0,0,1-.25.25.24.24,0,0,1-.25-.25v-.84c0-.22,0-.25-.21-.35l-.87-.44a.78.78,0,0,0-.38-.1.7.7,0,0,0-.35.1l-.87.43c-.21.1-.22.15-.22.38v.82a.23.23,0,0,1-.25.25.24.24,0,0,1-.25-.25Z" style="fill: #fff"/>
      </g>
      <g>
        <path d="M42.11,26.21a.68.68,0,0,1,.63.29l.29.36a.76.76,0,0,1,.19.62v.76c0,.16,0,.33-.24.33s-.24-.19-.24-.33v-.85a.45.45,0,0,0-.12-.28l-.25-.29c-.06-.08-.11-.13-.21-.13h-.59c-.09,0-.15.05-.21.13l-.24.29a.45.45,0,0,0-.12.28v.85c0,.14,0,.33-.24.33s-.24-.17-.24-.33v-.76a.76.76,0,0,1,.19-.62l.3-.36a.68.68,0,0,1,.63-.29Z" style="fill: #fff"/>
        <path d="M41,31.14l-.28-.33a.62.62,0,0,1-.18-.45.59.59,0,0,1,.19-.44.64.64,0,0,1,.49-.17h1.31a1,1,0,0,1,.83.4l.87,1a.6.6,0,0,1-.45,1.05H42.44a1,1,0,0,1-.86-.4l-.26-.29-.3.13V32a.25.25,0,0,1-.25.27c-.21,0-.25-.16-.25-.33v-.58Zm.84.21.09.12a.55.55,0,0,0,.56.26h1.25c.08,0,.2,0,.2-.1s0-.09-.08-.14l-.87-1a.51.51,0,0,0-.46-.22H41.2c-.08,0-.17,0-.17.11a.25.25,0,0,0,.08.15l.38.43.33-.13a.67.67,0,0,1,.24-.07.25.25,0,0,1,.24.25c0,.2-.17.23-.32.29Z" style="fill: #fff"/>
        <path d="M42.11,32.71a.68.68,0,0,1,.63.29l.29.36a.76.76,0,0,1,.19.62v.76c0,.16,0,.33-.24.33s-.24-.19-.24-.33v-.85a.45.45,0,0,0-.12-.28l-.25-.29c-.06-.08-.11-.13-.21-.13h-.59c-.09,0-.15.05-.21.13l-.24.29a.45.45,0,0,0-.12.28v.85c0,.14,0,.33-.24.33s-.24-.17-.24-.33V34a.76.76,0,0,1,.19-.62L41,33a.68.68,0,0,1,.63-.29Z" style="fill: #fff"/>
      </g>
      <path d="M40.25,54.43a.68.68,0,0,1,.63.29l.29.36a.76.76,0,0,1,.19.62v.76c0,.16,0,.33-.24.33s-.24-.19-.24-.33V55.6a.45.45,0,0,0-.12-.28L40.52,55c-.06-.08-.11-.13-.21-.13h-.6c-.09,0-.15.05-.21.13l-.25.29a.45.45,0,0,0-.12.28v.85c0,.14,0,.33-.24.33s-.24-.17-.24-.33v-.76a.76.76,0,0,1,.19-.62l.29-.36a.68.68,0,0,1,.63-.29Z" style="fill: #fff"/>
      <g>
        <path d="M39,67.27a.6.6,0,0,1,.2-.5.63.63,0,0,1,.48-.15h2.23a.2.2,0,1,1,0,.4H39.68c-.22,0-.28.07-.28.25v.68c0,.18.06.25.28.25h2.23a.2.2,0,1,1,0,.4H39.68a.63.63,0,0,1-.48-.15.6.6,0,0,1-.2-.5Z" style="fill: #fff"/>
        <path d="M39.78,70.69a.52.52,0,0,1-.33.14.45.45,0,0,1-.45-.5v-.88a.59.59,0,0,1,.13-.4.5.5,0,0,1,.37-.19.21.21,0,0,1,.24.21.19.19,0,0,1-.2.19c-.12,0-.14.06-.14.18v.87s0,.13,0,.13.09-.06.12-.07L41.33,69a.48.48,0,0,1,.33-.13.44.44,0,0,1,.38.21.53.53,0,0,1,.07.33v.85a.57.57,0,0,1-.13.4.55.55,0,0,1-.38.19.2.2,0,0,1-.23-.21.18.18,0,0,1,.19-.19c.14,0,.16-.07.16-.19v-.85s0-.14-.06-.14-.08,0-.11.06Z" style="fill: #fff"/>
      </g>
      <path d="M43.87,69.49h1a.25.25,0,0,1,0,.5H43.62a.23.23,0,0,1-.25-.25v-2a.25.25,0,1,1,.5,0v.74h2.89v-.74a.25.25,0,1,1,.5,0V69H43.87Z" style="fill: #fff"/>
      <path d="M48.29,41.82a.15.15,0,1,1,0-.3h2.19v1A.46.46,0,0,1,50,43h-.21a.44.44,0,0,1-.43-.48v-.28l-1,.68a.3.3,0,0,1-.16.08.14.14,0,0,1-.14-.15.16.16,0,0,1,.08-.13l1.19-.83v-.07Zm1.42,0v.67c0,.08,0,.22.13.22H50c.12,0,.14-.12.14-.21v-.67Z" style="fill: #fff"/>
      <g>
        <path d="M52.1,47.22a.48.48,0,0,1-.34.07.55.55,0,0,1-.46-.57v-.85a.47.47,0,0,1,.13-.37.46.46,0,0,1,.39-.11.27.27,0,0,1,.25.25c0,.11-.1.16-.21.14s-.14,0-.14.14v.84s0,.13,0,.14.1,0,.12,0l1.83-1A.45.45,0,0,1,54,45.8a.58.58,0,0,1,.39.28.54.54,0,0,1,.07.33v.82a.45.45,0,0,1-.14.36.49.49,0,0,1-.39.11.25.25,0,0,1-.24-.24c0-.12.08-.17.19-.15s.16,0,.16-.16v-.82s0-.13-.06-.14-.09,0-.11,0Z" style="fill: #fff"/>
        <path d="M53.33,50.27a.93.93,0,0,1-.46,0,1.25,1.25,0,0,1-.49-.22l-.76-.49a.65.65,0,0,1-.34-.53.42.42,0,0,1,.35-.41l.76-.22a1,1,0,0,1,.49,0,1.16,1.16,0,0,1,.46.18l.82.54a.65.65,0,0,1,.33.53.42.42,0,0,1-.34.41Zm.63-.61c.07,0,.12,0,.12-.11S54,49.44,54,49.4l-.75-.48a.78.78,0,0,0-.33-.15.54.54,0,0,0-.27,0l-.79.23c-.06,0-.12,0-.12.11s.07.12.12.15l.78.51a.68.68,0,0,0,.27.12.61.61,0,0,0,.33,0Z" style="fill: #fff"/>
        <path d="M54.26,52.94a.21.21,0,0,1,.21.23c0,.14-.08.18-.21.16l-3-.55v-.51l2.48-.56h0l-2.27-.41a.21.21,0,0,1-.21-.23c0-.14.08-.18.21-.16l3,.55V52L52,52.52h0Z" style="fill: #fff"/>
        <path d="M52.29,55.69c0-.1.06-.18.21-.16a.23.23,0,0,1,.2.23v.76l-.81-.15a.74.74,0,0,1-.65-.74V55a.48.48,0,0,1,.17-.41.55.55,0,0,1,.51-.09l1,.19a1.05,1.05,0,0,1,.6.31l.62.57a.7.7,0,0,1,.28.59v.52c0,.1-.06.18-.21.16a.23.23,0,0,1-.21-.23v-.46c0-.21,0-.2-.17-.36l-.57-.53a1,1,0,0,0-.54-.22L52,54.87c-.23,0-.3,0-.3.21v.61c0,.14,0,.26.21.29l.42.08Z" style="fill: #fff"/>
        <path d="M51.63,59.23c0,.1-.06.18-.21.16a.23.23,0,0,1-.21-.23V57.44l3,.55a.21.21,0,0,1,.21.23c0,.14-.08.18-.21.16l-2.59-.47Z" style="fill: #fff"/>
        <path d="M51.62,62c0,.1-.06.18-.21.16a.23.23,0,0,1-.21-.23V60.23l3.21.59v1.71c0,.1-.06.18-.21.16a.23.23,0,0,1-.21-.23V61.13l-1-.18v.57c0,.1-.06.18-.21.16a.23.23,0,0,1-.21-.23v-.57l-1-.18Z" style="fill: #fff"/>
      </g>
      <g>
        <path d="M6.71,52.17l-.26.22a.49.49,0,0,1-.36.14.47.47,0,0,1-.35-.15A.51.51,0,0,1,5.6,52v-1a.79.79,0,0,1,.32-.66l.82-.7a.49.49,0,0,1,.34-.16.49.49,0,0,1,.5.52V51a.79.79,0,0,1-.32.69l-.24.2.1.24h.24a.2.2,0,0,1,.22.2c0,.17-.12.2-.26.2H6.85Zm.16-.67L7,51.42A.44.44,0,0,0,7.18,51V50c0-.06,0-.16-.08-.16s-.08,0-.11.07l-.8.7A.41.41,0,0,0,6,51v1c0,.06,0,.14.09.14a.2.2,0,0,0,.12-.06l.34-.3-.1-.26a.54.54,0,0,1-.06-.19.2.2,0,0,1,.2-.19c.16,0,.18.14.23.26Z" style="fill: #fff"/>
        <path d="M10.06,52.13v-.81a.2.2,0,1,1,.4,0v1a.18.18,0,0,1-.2.2H8.68a.2.2,0,1,1,0-.4h.59V49.82H8.68a.2.2,0,1,1,0-.4h1v2.71Z" style="fill: #fff"/>
      </g>
      <g>
        <path d="M14,70.2a.2.2,0,1,1,0,.4H11.13V69.26a.6.6,0,0,1,.58-.63H12a.58.58,0,0,1,.57.63v.37l1.29-.9a.39.39,0,0,1,.21-.1.19.19,0,0,1,.19.2.21.21,0,0,1-.11.18l-1.58,1.1v.09Zm-1.89,0v-.89c0-.11,0-.29-.17-.29h-.28c-.16,0-.18.16-.18.28v.89Z" style="fill: #fff"/>
        <path d="M13.84,66.94H13a.2.2,0,1,1,0-.4h1a.18.18,0,0,1,.2.2v1.57a.2.2,0,1,1-.4,0v-.59H11.53v.59a.2.2,0,1,1-.4,0v-1h2.71Z" style="fill: #fff"/>
      </g>
    </g>
    <g data-name="Layer 7" id="Layer_7">
      <line id="connector0leg" style="fill: none;stroke: #8b8b8b;stroke-linecap: round;stroke-width: 2.09999990463257px" x1="8.75" x2="8.75" y1="46.19" y2="38.31"/>
      <line data-name="connector0leg" id="connector0leg-2" style="fill: none;stroke: #8b8b8b;stroke-linecap: round;stroke-width: 2.09999990463257px" x1="8.7" x2="8.7" y1="18.79" y2="27.85"/>
      <g>
        <polygon points="12.64 24.96 12.64 28.12 12.64 28.14 12.64 40.91 9.08 40.91 8.7 40.91 8.32 40.91 4.77 40.91 4.76 28.12 4.76 24.96 12.64 24.96" style="fill: #333"/>
        <polygon points="12.64 24.96 12.64 28.12 9.08 28.12 8.7 28.12 8.32 28.12 4.76 28.12 4.76 24.96 12.64 24.96" style="fill: #979797"/>
        <rect height="15.95" style="fill: #1a1a1a" width="3.94" x="8.7" y="24.96"/>
        <rect height="3.18" style="fill: gray" width="3.94" x="8.7" y="24.96"/>
      </g>
    </g>
    <g data-name="Layer 9" id="Layer_9">
      <g id="Connectors">
        <polygon points="46.8 79.06 48.23 80.58 48.23 84.83 46.8 86.25 42.58 86.25 41.03 84.83 41.03 80.58 42.58 79.06 46.8 79.06" style="fill: #323232"/>
        <polygon points="45.88 102.29 45.88 102.29 44.76 101.15 43.63 102.29 43.63 102.29 45.88 102.29" style="fill: #e9e9ea"/>
        <polygon points="45.88 100.03 45.88 100.03 44.74 101.16 43.62 100.03 43.62 100.03 45.88 100.03" style="fill: #b0acb0"/>
        <polygon points="43.62 102.29 43.62 102.29 44.76 101.16 43.63 100.03 43.62 100.03 43.62 102.29" style="fill: #d3d1d3"/>
        <polygon points="45.88 102.29 45.88 102.29 44.74 101.15 45.88 100.02 45.88 100.02 45.88 102.29" style="fill: #989498"/>
        <rect height="1.13" style="fill: #c0bec2" width="1.13" x="44.18" y="100.59"/>
        <rect height="17.37" style="fill: #b0acb0" width="2.27" x="43.61" y="82.66"/>
        <polygon points="54 79.06 55.43 80.58 55.43 84.83 54 86.25 49.77 86.25 48.23 84.83 48.23 80.58 49.77 79.06 54 79.06" style="fill: #323232"/>
        <polygon points="53.08 102.29 53.08 102.29 51.95 101.15 50.82 102.29 50.82 102.29 53.08 102.29" style="fill: #e9e9ea"/>
        <polygon points="53.08 100.03 53.08 100.03 51.94 101.16 50.81 100.03 50.81 100.03 53.08 100.03" style="fill: #b0acb0"/>
        <polygon points="50.81 102.29 50.81 102.29 51.95 101.16 50.82 100.03 50.81 100.03 50.81 102.29" style="fill: #d3d1d3"/>
        <polygon points="53.08 102.29 53.08 102.29 51.94 101.15 53.07 100.02 53.08 100.02 53.08 102.29" style="fill: #989498"/>
        <rect height="1.13" style="fill: #c0bec2" width="1.13" x="51.38" y="100.59"/>
        <rect height="17.37" style="fill: #b0acb0" width="2.27" x="50.81" y="82.66"/>
        <polygon points="39.6 79.06 41.03 80.58 41.03 84.83 39.6 86.25 35.38 86.25 33.84 84.83 33.84 80.58 35.38 79.06 39.6 79.06" style="fill: #323232"/>
        <polygon points="38.69 102.29 38.69 102.28 37.55 101.15 36.42 102.28 36.42 102.29 38.69 102.29" style="fill: #e9e9ea"/>
        <polygon points="38.69 100.02 38.69 100.02 37.55 101.16 36.41 100.03 36.41 100.02 38.69 100.02" style="fill: #b0acb0"/>
        <polygon points="36.41 102.29 36.41 102.29 37.55 101.15 36.42 100.02 36.41 100.02 36.41 102.29" style="fill: #d3d1d3"/>
        <polygon points="38.69 102.28 38.69 102.28 37.55 101.15 38.67 100.02 38.69 100.02 38.69 102.28" style="fill: #989498"/>
        <rect height="1.13" style="fill: #c0bec2" width="1.13" x="36.98" y="100.59"/>
        <rect height="17.37" style="fill: #b0acb0" width="2.27" x="36.42" y="82.66"/>
      </g>
    </g>
    <g data-name="Layer 8" id="Layer_8">
      <rect height="1.13" id="circuitoCon_power" style="fill: #c0bec2" width="1.13" x="44.18" y="100.59"/>
      <rect height="1.13" id="circuitoCon_ground" style="fill: #c0bec2" width="1.13" x="51.38" y="100.59"/>
      <rect height="1.13" id="circuitoCon_signal" style="fill: #c0bec2" width="1.13" x="36.98" y="100.59"/>
    </g>
  </g>
</svg>