<?xml version="1.0" ?><svg height="23.63mm" viewBox="0 0 191.97 66.99" width="67.72mm" xmlns="http://www.w3.org/2000/svg" xmlns:xlink="http://www.w3.org/1999/xlink">
  <defs>
    <linearGradient gradientTransform="matrix(1, 0, 0, -1, -358.86, 355.68)" gradientUnits="userSpaceOnUse" id="linear-gradient" x1="372.53" x2="372.53" y1="297.17" y2="289.73">
      <stop offset="0" stop-color="#999"/>
      <stop offset="1" stop-color="#f2f2f2"/>
    </linearGradient>
    <linearGradient gradientTransform="matrix(1, 0, 0, -1, -365.83, 348.71)" id="linear-gradient-2" x1="379.5" x2="379.5" xlink:href="#linear-gradient" y1="297.17" y2="289.73"/>
    <linearGradient gradientTransform="matrix(1, 0, 0, -1, -372.8, 341.75)" id="linear-gradient-3" x1="386.46" x2="386.46" xlink:href="#linear-gradient" y1="297.17" y2="289.73"/>
    <linearGradient data-name="Neutral 19" gradientTransform="matrix(1, 0, 0, -1, -225.71, 9.44)" gradientUnits="userSpaceOnUse" id="Neutral_19" x1="381.48" x2="392.9" y1="4.72" y2="4.72">
      <stop offset="0" stop-color="#97a4b7"/>
      <stop offset="0.88" stop-color="#fff"/>
    </linearGradient>
    <linearGradient gradientTransform="matrix(1, 0, 0, -1, -214.62, 9.44)" id="Neutral_19-2" x1="381.48" x2="381.8" xlink:href="#Neutral_19" y1="4.72" y2="4.72"/>
    <linearGradient gradientTransform="matrix(1, 0, 0, -1, -216.2, 9.44)" id="Neutral_19-3" x1="382.27" x2="382.59" xlink:href="#Neutral_19" y1="4.72" y2="4.72"/>
    <linearGradient gradientTransform="matrix(1, 0, 0, -1, -217.79, 9.44)" id="Neutral_19-4" x1="383.07" x2="383.39" xlink:href="#Neutral_19" y1="4.72" y2="4.72"/>
    <linearGradient gradientTransform="matrix(1, 0, 0, -1, -219.37, 9.44)" id="Neutral_19-5" x1="383.86" x2="384.18" xlink:href="#Neutral_19" y1="4.72" y2="4.72"/>
    <linearGradient gradientTransform="matrix(1, 0, 0, -1, -220.96, 9.44)" id="Neutral_19-6" x1="384.65" x2="384.97" xlink:href="#Neutral_19" y1="4.72" y2="4.72"/>
    <linearGradient gradientTransform="matrix(1, 0, 0, -1, -222.54, 9.44)" id="Neutral_19-7" x1="385.44" x2="385.76" xlink:href="#Neutral_19" y1="4.72" y2="4.72"/>
    <linearGradient gradientTransform="matrix(1, 0, 0, -1, -224.13, 9.44)" id="Neutral_19-8" x1="386.24" x2="386.56" xlink:href="#Neutral_19" y1="4.72" y2="4.72"/>
    <linearGradient id="Neutral_19-9" x1="387.03" x2="387.35" xlink:href="#Neutral_19" y1="4.72" y2="4.72"/>
    <linearGradient gradientTransform="matrix(1, 0, 0, -1, -227.3, 9.44)" id="Neutral_19-10" x1="387.82" x2="388.14" xlink:href="#Neutral_19" y1="4.72" y2="4.72"/>
    <linearGradient gradientTransform="matrix(1, 0, 0, -1, -228.88, 9.44)" id="Neutral_19-11" x1="388.61" x2="388.94" xlink:href="#Neutral_19" y1="4.72" y2="4.72"/>
    <linearGradient gradientTransform="matrix(1, 0, 0, -1, -230.47, 9.44)" id="Neutral_19-12" x1="389.41" x2="389.73" xlink:href="#Neutral_19" y1="4.72" y2="4.72"/>
    <linearGradient gradientTransform="matrix(1, 0, 0, -1, -232.05, 9.44)" id="Neutral_19-13" x1="390.2" x2="390.52" xlink:href="#Neutral_19" y1="4.72" y2="4.72"/>
    <linearGradient gradientTransform="matrix(1, 0, 0, -1, -233.64, 9.44)" id="Neutral_19-14" x1="390.99" x2="391.31" xlink:href="#Neutral_19" y1="4.72" y2="4.72"/>
    <linearGradient gradientTransform="matrix(1, 0, 0, -1, -235.22, 9.44)" id="Neutral_19-15" x1="391.79" x2="392.11" xlink:href="#Neutral_19" y1="4.72" y2="4.72"/>
    <linearGradient gradientTransform="matrix(1, 0, 0, -1, -236.81, 9.44)" id="Neutral_19-16" x1="392.58" x2="392.9" xlink:href="#Neutral_19" y1="4.72" y2="4.72"/>
    <linearGradient gradientTransform="matrix(1, 0, 0, -1, -193.74, 131.28)" gradientUnits="userSpaceOnUse" id="linear-gradient-4" x1="369.7" x2="372.71" y1="65.64" y2="65.64">
      <stop offset="0" stop-color="#f2f2f2"/>
      <stop offset="0.5" stop-color="#999"/>
      <stop offset="1" stop-color="#f2f2f2"/>
    </linearGradient>
    <linearGradient gradientTransform="matrix(1, 0, 0, -1, -318.75, 131.28)" id="linear-gradient-5" x1="432.2" x2="435.22" xlink:href="#linear-gradient-4" y1="65.64" y2="65.64"/>
    <linearGradient gradientTransform="matrix(1, 0, 0, -1, -256.29, 49.05)" gradientUnits="userSpaceOnUse" id="linear-gradient-6" x1="356.7" x2="448.26" y1="24.52" y2="24.52">
      <stop offset="0" stop-color="#0c69e8"/>
      <stop offset="0.05" stop-color="#0c17e8"/>
      <stop offset="0.95" stop-color="#0c17e8"/>
      <stop offset="1" stop-color="#0c69e8"/>
    </linearGradient>
    <linearGradient gradientTransform="matrix(1, 0, 0, -1, -261.38, 25.36)" gradientUnits="userSpaceOnUse" id="linear-gradient-7" x1="397.38" x2="412.67" y1="12.68" y2="12.68">
      <stop offset="0" stop-color="#0c69e8"/>
      <stop offset="0.02" stop-color="#0c5ee8"/>
      <stop offset="0.09" stop-color="#0c44e8"/>
      <stop offset="0.16" stop-color="#0c30e8"/>
      <stop offset="0.24" stop-color="#0c22e8"/>
      <stop offset="0.34" stop-color="#0c1ae8"/>
      <stop offset="0.5" stop-color="#0c17e8"/>
      <stop offset="0.66" stop-color="#0c1ae8"/>
      <stop offset="0.76" stop-color="#0c22e8"/>
      <stop offset="0.84" stop-color="#0c30e8"/>
      <stop offset="0.91" stop-color="#0c44e8"/>
      <stop offset="0.98" stop-color="#0c5ee8"/>
      <stop offset="1" stop-color="#0c69e8"/>
    </linearGradient>
    <linearGradient gradientTransform="matrix(1, 0, 0, -1, -225.71, 24.57)" id="linear-gradient-8" x1="371.9" x2="402.48" xlink:href="#linear-gradient-7" y1="12.29" y2="12.29"/>
    <linearGradient gradientTransform="matrix(1, 0, 0, -1, -256.29, 81.08)" id="linear-gradient-9" x1="369.07" x2="435.88" xlink:href="#linear-gradient-6" y1="40.54" y2="40.54"/>
    <linearGradient gradientTransform="matrix(1, 0, 0, -1, -256.29, 43.27)" id="linear-gradient-10" x1="369.07" x2="435.88" xlink:href="#linear-gradient-6" y1="21.63" y2="21.63"/>
    <linearGradient data-name="Gold 03" gradientUnits="userSpaceOnUse" id="Gold_03" x1="130.98" x2="161.11" y1="42.13" y2="42.13">
      <stop offset="0" stop-color="#c79317"/>
      <stop offset="0.5" stop-color="#eee64a"/>
      <stop offset="1" stop-color="#c79416"/>
    </linearGradient>
    <linearGradient id="Gold_03-2" x1="131.06" x2="134.46" xlink:href="#Gold_03" y1="33.49" y2="33.49"/>
    <linearGradient id="Gold_03-3" x1="134.06" x2="137" xlink:href="#Gold_03" y1="34.18" y2="34.18"/>
    <linearGradient id="Gold_03-4" x1="137.31" x2="141.87" xlink:href="#Gold_03" y1="34.18" y2="34.18"/>
    <linearGradient id="Gold_03-5" x1="142.18" x2="144.9" xlink:href="#Gold_03" y1="34.18" y2="34.18"/>
    <linearGradient id="Gold_03-6" x1="145.56" x2="147.3" xlink:href="#Gold_03" y1="34.15" y2="34.15"/>
    <linearGradient id="Gold_03-7" x1="149.33" x2="152.23" xlink:href="#Gold_03" y1="33.49" y2="33.49"/>
    <linearGradient id="Gold_03-8" x1="152.79" x2="154.52" xlink:href="#Gold_03" y1="34.15" y2="34.15"/>
    <linearGradient id="Gold_03-9" x1="154.7" x2="157.63" xlink:href="#Gold_03" y1="34.18" y2="34.18"/>
    <linearGradient id="Gold_03-10" x1="157.99" x2="159.29" xlink:href="#Gold_03" y1="32.91" y2="32.91"/>
    <linearGradient id="Gold_03-11" x1="159.53" x2="161.26" xlink:href="#Gold_03" y1="32.91" y2="32.91"/>
    <linearGradient id="Gold_03-12" x1="140.98" x2="143.06" xlink:href="#Gold_03" y1="49.79" y2="49.79"/>
    <linearGradient id="Gold_03-13" x1="143.14" x2="145.94" xlink:href="#Gold_03" y1="49.79" y2="49.79"/>
    <linearGradient id="Gold_03-14" x1="146.09" x2="148.17" xlink:href="#Gold_03" y1="49.78" y2="49.78"/>
    <linearGradient id="Gold_03-15" x1="148.25" x2="150.57" xlink:href="#Gold_03" y1="49.79" y2="49.79"/>
    <linearGradient id="Gold_03-16" x1="129.36" x2="162.71" xlink:href="#Gold_03" y1="40.84" y2="40.84"/>
    <linearGradient id="Gold_03-17" x1="129.79" x2="162.25" xlink:href="#Gold_03" y1="37.57" y2="37.57"/>
    <linearGradient id="Gold_03-18" x1="129.72" x2="162.24" xlink:href="#Gold_03" y1="46.75" y2="46.75"/>
  </defs>
  <title>9g Micro Servo</title>
  <g data-name="Layer 6" id="Layer_6">
    <g>
      <g>
        <g data-name="&lt;Group&gt;" id="_Group_">
          <polyline data-name="&lt;Path&gt;" id="_Path_" points="23.05 52.96 122.38 53.26 122.38 48.66 23.05 48.66" style="fill: #ffe000"/>
        </g>
        <g data-name="&lt;Group&gt;" id="_Group_2">
          <polyline data-name="&lt;Path&gt;" id="_Path_2" points="23.05 57.25 126.68 57.56 126.68 52.96 23.05 52.96" style="fill: #ff8135"/>
        </g>
        <g data-name="&lt;Group&gt;" id="_Group_3">
          <polyline data-name="&lt;Path&gt;" id="_Path_3" points="23.05 61.86 130.98 61.86 130.98 57.25 23.05 57.25" style="fill: #b2876f"/>
        </g>
      </g>
      <g>
        <rect data-name="&lt;Rectangle&gt;" height="37.48" id="_Rectangle_" style="fill: #333" transform="translate(-36.52 74) rotate(-90)" width="23.47" x="7" y="36.52"/>
        <g data-name="&lt;Group&gt;" id="_Group_4">
          <rect data-name="&lt;Rectangle&gt;" height="14.88" id="_Rectangle_2" style="fill: #1a1a1a" transform="translate(-52.28 72.17) rotate(-90)" width="2.89" x="8.5" y="54.78"/>
          <rect data-name="&lt;Rectangle&gt;" height="7.44" id="_Rectangle_3" style="fill: url(#linear-gradient)" transform="translate(-48.56 75.89) rotate(-90)" width="2.89" x="12.22" y="58.5"/>
          <rect data-name="&lt;Rectangle&gt;" height="14.88" id="_Rectangle_4" style="fill: #1a1a1a" transform="translate(-45.31 65.2) rotate(-90)" width="2.89" x="8.5" y="47.82"/>
          <rect data-name="&lt;Rectangle&gt;" height="7.44" id="_Rectangle_5" style="fill: url(#linear-gradient-2)" transform="translate(-41.59 68.92) rotate(-90)" width="2.89" x="12.22" y="51.54"/>
          <rect data-name="&lt;Rectangle&gt;" height="14.88" id="_Rectangle_6" style="fill: #1a1a1a" transform="translate(-38.35 58.24) rotate(-90)" width="2.89" x="8.5" y="40.85"/>
          <rect data-name="&lt;Rectangle&gt;" height="7.44" id="_Rectangle_7" style="fill: url(#linear-gradient-3)" transform="translate(-34.63 61.96) rotate(-90)" width="2.89" x="12.22" y="44.57"/>
        </g>
      </g>
    </g>
  </g>
  <g data-name="Layer 1" id="Layer_1">
    <g data-name="&lt;Group&gt;" id="_Group_5">
      <rect data-name="&lt;Rectangle&gt;" height="9.44" id="_Rectangle_8" style="fill: url(#Neutral_19)" transform="translate(322.95 9.44) rotate(-180)" width="11.42" x="155.77"/>
      <rect data-name="&lt;Rectangle&gt;" height="9.44" id="_Rectangle_9" style="fill: url(#Neutral_19-2)" transform="translate(334.05 9.44) rotate(-180)" width="0.32" x="166.86"/>
      <rect data-name="&lt;Rectangle&gt;" height="9.44" id="_Rectangle_10" style="fill: url(#Neutral_19-3)" transform="translate(332.47 9.44) rotate(-180)" width="0.32" x="166.07"/>
      <rect data-name="&lt;Rectangle&gt;" height="9.44" id="_Rectangle_11" style="fill: url(#Neutral_19-4)" transform="translate(330.88 9.44) rotate(-180)" width="0.32" x="165.28"/>
      <rect data-name="&lt;Rectangle&gt;" height="9.44" id="_Rectangle_12" style="fill: url(#Neutral_19-5)" transform="translate(329.29 9.44) rotate(-180)" width="0.32" x="164.49"/>
      <rect data-name="&lt;Rectangle&gt;" height="9.44" id="_Rectangle_13" style="fill: url(#Neutral_19-6)" transform="translate(327.71 9.44) rotate(-180)" width="0.32" x="163.69"/>
      <rect data-name="&lt;Rectangle&gt;" height="9.44" id="_Rectangle_14" style="fill: url(#Neutral_19-7)" transform="translate(326.12 9.44) rotate(-180)" width="0.32" x="162.9"/>
      <rect data-name="&lt;Rectangle&gt;" height="9.44" id="_Rectangle_15" style="fill: url(#Neutral_19-8)" transform="translate(324.54 9.44) rotate(-180)" width="0.32" x="162.11"/>
      <rect data-name="&lt;Rectangle&gt;" height="9.44" id="_Rectangle_16" style="fill: url(#Neutral_19-9)" transform="translate(322.95 9.44) rotate(-180)" width="0.32" x="161.32"/>
      <rect data-name="&lt;Rectangle&gt;" height="9.44" id="_Rectangle_17" style="fill: url(#Neutral_19-10)" transform="translate(321.37 9.44) rotate(-180)" width="0.32" x="160.52"/>
      <rect data-name="&lt;Rectangle&gt;" height="9.44" id="_Rectangle_18" style="fill: url(#Neutral_19-11)" transform="translate(319.78 9.44) rotate(-180)" width="0.32" x="159.73"/>
      <rect data-name="&lt;Rectangle&gt;" height="9.44" id="_Rectangle_19" style="fill: url(#Neutral_19-12)" transform="translate(318.2 9.44) rotate(-180)" width="0.32" x="158.94"/>
      <rect data-name="&lt;Rectangle&gt;" height="9.44" id="_Rectangle_20" style="fill: url(#Neutral_19-13)" transform="translate(316.61 9.44) rotate(-180)" width="0.32" x="158.15"/>
      <rect data-name="&lt;Rectangle&gt;" height="9.44" id="_Rectangle_21" style="fill: url(#Neutral_19-14)" transform="translate(315.03 9.44) rotate(-180)" width="0.32" x="157.35"/>
      <rect data-name="&lt;Rectangle&gt;" height="9.44" id="_Rectangle_22" style="fill: url(#Neutral_19-15)" transform="translate(313.44 9.44) rotate(-180)" width="0.32" x="156.56"/>
      <rect data-name="&lt;Rectangle&gt;" height="9.44" id="_Rectangle_23" style="fill: url(#Neutral_19-16)" transform="translate(311.86 9.44) rotate(-180)" width="0.32" x="155.77"/>
    </g>
    <path d="M177,65.11h.91A1.06,1.06,0,0,1,179,66.17v0a0,0,0,0,1,0,0h-3a0,0,0,0,1,0,0v0A1.06,1.06,0,0,1,177,65.11Z" data-name="&lt;Rectangle&gt;" id="_Rectangle_24" style="fill: url(#linear-gradient-4)" transform="translate(354.92 131.28) rotate(-180)"/>
    <path d="M114.5,65.11h.91a1.06,1.06,0,0,1,1.06,1.06v0a0,0,0,0,1,0,0h-3a0,0,0,0,1,0,0v0a1.06,1.06,0,0,1,1.06-1.06Z" data-name="&lt;Rectangle&gt;" id="_Rectangle_25" style="fill: url(#linear-gradient-5)" transform="translate(229.91 131.28) rotate(180)"/>
    <g>
      <path d="M120.23,63.52h51.92a2.94,2.94,0,0,1,2.94,2.94v0a0,0,0,0,1,0,0H117.29a0,0,0,0,1,0,0v0A2.94,2.94,0,0,1,120.23,63.52Z" data-name="&lt;Rectangle&gt;" id="_Rectangle_26" style="fill: #0c17e8" transform="translate(292.38 129.99) rotate(-180)"/>
      <rect data-name="&lt;Rectangle&gt;" height="5.78" id="_Rectangle_27" style="fill: url(#linear-gradient-6)" transform="translate(292.38 49.05) rotate(-180)" width="91.56" x="100.41" y="21.63"/>
      <path d="M136,7.47h15.29a0,0,0,0,1,0,0V13.4a4.49,4.49,0,0,1-4.49,4.49H136a0,0,0,0,1,0,0V7.47A0,0,0,0,1,136,7.47Z" data-name="&lt;Rectangle&gt;" id="_Rectangle_28" style="fill: url(#linear-gradient-7)" transform="translate(287.29 25.36) rotate(-180)"/>
      <path d="M146.19,6.68h30.57a0,0,0,0,1,0,0V13.4a4.49,4.49,0,0,1-4.49,4.49H150.68a4.49,4.49,0,0,1-4.49-4.49V6.68a0,0,0,0,1,0,0Z" data-name="&lt;Rectangle&gt;" id="_Rectangle_29" style="fill: url(#linear-gradient-8)" transform="translate(322.95 24.57) rotate(-180)"/>
      <rect data-name="&lt;Rectangle&gt;" height="49.37" id="_Rectangle_30" rx="1.71" ry="1.71" style="fill: url(#linear-gradient-9)" transform="translate(292.38 81.08) rotate(-180)" width="66.81" x="112.79" y="15.85"/>
      <rect data-name="&lt;Rectangle&gt;" height="11.56" id="_Rectangle_31" rx="0.83" ry="0.83" style="fill: url(#linear-gradient-10)" transform="translate(292.38 43.27) rotate(-180)" width="66.81" x="112.79" y="15.85"/>
    </g>
    <rect data-name="&lt;Rectangle&gt;" height="0.45" id="_Rectangle_32" style="fill: #201e20" transform="translate(292.38 110.52) rotate(-180)" width="66.81" x="112.79" y="55.03"/>
    <rect data-name="&lt;Rectangle&gt;" height="0.45" id="_Rectangle_33" style="fill: #201e20" transform="translate(292.38 54.35) rotate(-180)" width="66.81" x="112.79" y="26.95"/>
    <path d="M116.53,60.84" data-name="&lt;Path&gt;" id="_Path_4" style="fill: none;stroke: #c69c6d;stroke-miterlimit: 10;stroke-width: 15px"/>
  </g>
  <g data-name="Layer 4" id="Layer_4">
    <rect height="26.82" width="35.9" x="128.24" y="27.62"/>
    <rect height="7.34" style="fill: url(#Gold_03)" width="30.13" x="130.98" y="38.46"/>
    <g>
      <path d="M134.46,31.67h-1.41v4.18h-.59V31.67h-1.41v-.54h3.41Z" style="fill: url(#Gold_03-2)"/>
      <path d="M135.53,32.46a1.47,1.47,0,0,1,.61.12,1.31,1.31,0,0,1,.46.35,1.55,1.55,0,0,1,.29.54,2.53,2.53,0,0,1,0,1.42,1.55,1.55,0,0,1-.29.54,1.29,1.29,0,0,1-.46.34,1.48,1.48,0,0,1-.61.12,1.5,1.5,0,0,1-.61-.12,1.29,1.29,0,0,1-.46-.34,1.55,1.55,0,0,1-.29-.54,2.53,2.53,0,0,1,0-1.42,1.55,1.55,0,0,1,.29-.54,1.3,1.3,0,0,1,.46-.35A1.48,1.48,0,0,1,135.53,32.46Zm0,3a.77.77,0,0,0,.68-.33,1.63,1.63,0,0,0,.22-.92,1.65,1.65,0,0,0-.22-.93.77.77,0,0,0-.68-.33.89.89,0,0,0-.4.09.76.76,0,0,0-.29.25,1.13,1.13,0,0,0-.17.4,2.29,2.29,0,0,0-.06.53,1.62,1.62,0,0,0,.23.92A.78.78,0,0,0,135.53,35.44Z" style="fill: url(#Gold_03-3)"/>
      <path d="M141.87,32.51l-1,3.33h-.43c-.05,0-.09,0-.11-.11l-.68-2.26a1.3,1.3,0,0,1,0-.15l0-.15,0,.15a1.49,1.49,0,0,1,0,.16l-.69,2.26c0,.07-.06.11-.12.11h-.41l-1-3.33h.42a.16.16,0,0,1,.11,0,.18.18,0,0,1,.06.09l.59,2.15q.05.24.08.45l.06-.22.06-.23.65-2.16a.18.18,0,0,1,.05-.08.14.14,0,0,1,.09,0h.24a.15.15,0,0,1,.1,0,.17.17,0,0,1,.05.08l.63,2.16.06.23.05.22c0-.07,0-.15,0-.22l.05-.23.6-2.15a.17.17,0,0,1,.06-.09.15.15,0,0,1,.1,0Z" style="fill: url(#Gold_03-4)"/>
      <path d="M144.85,35.38a1.07,1.07,0,0,1-.24.23,1.43,1.43,0,0,1-.3.16,1.73,1.73,0,0,1-.33.09,1.85,1.85,0,0,1-.34,0,1.45,1.45,0,0,1-.59-.12,1.29,1.29,0,0,1-.46-.34,1.6,1.6,0,0,1-.3-.56,2.43,2.43,0,0,1-.11-.76,2.09,2.09,0,0,1,.1-.65,1.57,1.57,0,0,1,.28-.52,1.32,1.32,0,0,1,.45-.35,1.39,1.39,0,0,1,.6-.13,1.29,1.29,0,0,1,.51.1,1.16,1.16,0,0,1,.41.29,1.34,1.34,0,0,1,.27.47,1.91,1.91,0,0,1,.1.63.41.41,0,0,1,0,.18.11.11,0,0,1-.1,0h-2.05a2.08,2.08,0,0,0,.08.55,1.13,1.13,0,0,0,.2.39.8.8,0,0,0,.3.23,1,1,0,0,0,.39.08,1.07,1.07,0,0,0,.35-.05l.25-.11.18-.11a.23.23,0,0,1,.12-.05.12.12,0,0,1,.1.06Zm-.44-1.56a1.26,1.26,0,0,0-.05-.37.87.87,0,0,0-.15-.29A.7.7,0,0,0,144,33a.78.78,0,0,0-.33-.07.79.79,0,0,0-.61.25,1.2,1.2,0,0,0-.28.68Z" style="fill: url(#Gold_03-5)"/>
      <path d="M146.08,33.18a1.51,1.51,0,0,1,.36-.53.75.75,0,0,1,.52-.19l.19,0a.48.48,0,0,1,.16.07l0,.44a.09.09,0,0,1-.09.08l-.12,0-.19,0a.7.7,0,0,0-.26,0,.61.61,0,0,0-.2.14,1,1,0,0,0-.16.22,2,2,0,0,0-.13.3v2.11h-.54V32.51h.31a.16.16,0,0,1,.12,0,.23.23,0,0,1,0,.13Z" style="fill: url(#Gold_03-6)"/>
      <path d="M150.61,31.13a2.24,2.24,0,0,1,.72.1,1.35,1.35,0,0,1,.51.29,1.2,1.2,0,0,1,.3.46,1.75,1.75,0,0,1,.1.6,1.65,1.65,0,0,1-.11.6,1.29,1.29,0,0,1-.31.47,1.42,1.42,0,0,1-.51.31,2,2,0,0,1-.7.11h-.7v1.76h-.59V31.13Zm0,2.45a1.26,1.26,0,0,0,.44-.07.91.91,0,0,0,.32-.2.83.83,0,0,0,.2-.31,1.13,1.13,0,0,0,.07-.4,1,1,0,0,0-.26-.7,1.07,1.07,0,0,0-.78-.25h-.7v1.94Z" style="fill: url(#Gold_03-7)"/>
      <path d="M153.3,33.18a1.51,1.51,0,0,1,.36-.53.75.75,0,0,1,.52-.19l.19,0a.48.48,0,0,1,.16.07l0,.44a.09.09,0,0,1-.09.08l-.12,0-.19,0a.7.7,0,0,0-.26,0,.61.61,0,0,0-.2.14,1,1,0,0,0-.16.22,2,2,0,0,0-.13.3v2.11h-.54V32.51h.31a.16.16,0,0,1,.12,0,.23.23,0,0,1,0,.13Z" style="fill: url(#Gold_03-8)"/>
      <path d="M156.17,32.46a1.47,1.47,0,0,1,.61.12,1.31,1.31,0,0,1,.46.35,1.55,1.55,0,0,1,.29.54,2.53,2.53,0,0,1,0,1.42,1.55,1.55,0,0,1-.29.54,1.29,1.29,0,0,1-.46.34,1.48,1.48,0,0,1-.61.12,1.5,1.5,0,0,1-.61-.12,1.29,1.29,0,0,1-.46-.34,1.55,1.55,0,0,1-.29-.54,2.53,2.53,0,0,1,0-1.42,1.55,1.55,0,0,1,.29-.54,1.3,1.3,0,0,1,.46-.35A1.48,1.48,0,0,1,156.17,32.46Zm0,3a.77.77,0,0,0,.68-.33,1.63,1.63,0,0,0,.22-.92,1.65,1.65,0,0,0-.22-.93.77.77,0,0,0-.68-.33.89.89,0,0,0-.4.09.76.76,0,0,0-.29.25,1.13,1.13,0,0,0-.17.4,2.29,2.29,0,0,0-.06.53,1.62,1.62,0,0,0,.23.92A.78.78,0,0,0,156.17,35.44Z" style="fill: url(#Gold_03-9)"/>
    </g>
    <g>
      <path d="M159.29,32.16h-.54v1.71h-.22V32.16H158v-.22h1.3Z" style="fill: url(#Gold_03-10)"/>
      <path d="M161.26,31.94v1.93h-.2V32.45s0,0,0-.06v-.07l-.57,1.21a.09.09,0,0,1-.08.06h0a.09.09,0,0,1-.08-.06l-.58-1.21a1.29,1.29,0,0,1,0,.13v1.42h-.2V31.94h.21l0,0,.57,1.19,0,.07,0,.07,0-.07,0-.07L161,32l0,0h.21Z" style="fill: url(#Gold_03-11)"/>
    </g>
    <g>
      <path d="M135.67,39.14V41.8h-.32v-2s0-.05,0-.08v-.09l-.91,1.67a.14.14,0,0,1-.13.08h-.05a.14.14,0,0,1-.13-.08l-.93-1.67a1.65,1.65,0,0,1,0,.18v2h-.32V39.14h.34a.1.1,0,0,1,.05.05l.92,1.64,0,.09,0,.1,0-.1,0-.09.9-1.64a.1.1,0,0,1,0-.05h.34Z"/>
      <path d="M137.34,39.33a.21.21,0,0,1,0,.09l-.05.07-.08.05-.09,0-.09,0-.07-.05-.05-.07a.22.22,0,0,1,0-.09.24.24,0,0,1,0-.09l.05-.08.07-.05.09,0,.09,0,.08.05a.26.26,0,0,1,.05.08A.22.22,0,0,1,137.34,39.33Zm-.07.59V41.8h-.33V39.92Z"/>
      <path d="M139.79,40.26l0,0h0l-.06,0-.08-.05-.12-.05-.18,0a.58.58,0,0,0-.25,0,.48.48,0,0,0-.18.14.65.65,0,0,0-.11.23,1.1,1.1,0,0,0,0,.3,1.09,1.09,0,0,0,0,.3.65.65,0,0,0,.11.22.48.48,0,0,0,.17.14.53.53,0,0,0,.23,0,.58.58,0,0,0,.2,0l.13-.06.09-.06.07,0a.07.07,0,0,1,.06,0l.09.12a.65.65,0,0,1-.14.13l-.17.09-.19.05-.2,0a.82.82,0,0,1-.33-.06.75.75,0,0,1-.26-.19.88.88,0,0,1-.17-.3,1.34,1.34,0,0,1,0-.8.87.87,0,0,1,.17-.31.77.77,0,0,1,.28-.2.93.93,0,0,1,.38-.07.89.89,0,0,1,.35.06.83.83,0,0,1,.27.18Z"/>
      <path d="M141.24,40.3a.85.85,0,0,1,.22-.3.48.48,0,0,1,.32-.11h.11l.1,0,0,.25a.05.05,0,0,1-.06,0h-.19l-.16,0a.37.37,0,0,0-.12.08.54.54,0,0,0-.1.13,1.06,1.06,0,0,0-.08.17V41.8h-.33V39.92h.19l.07,0a.12.12,0,0,1,0,.07Z"/>
      <path d="M143.66,39.89A1,1,0,0,1,144,40a.8.8,0,0,1,.28.2.85.85,0,0,1,.18.31,1.32,1.32,0,0,1,0,.8.86.86,0,0,1-.18.31.79.79,0,0,1-.28.19,1,1,0,0,1-.37.07,1,1,0,0,1-.37-.07.78.78,0,0,1-.28-.19.86.86,0,0,1-.18-.31,1.33,1.33,0,0,1,0-.8.85.85,0,0,1,.18-.31.79.79,0,0,1,.28-.2A1,1,0,0,1,143.66,39.89Zm0,1.68a.48.48,0,0,0,.42-.19,1.06,1.06,0,0,0,0-1,.48.48,0,0,0-.42-.19.58.58,0,0,0-.25,0,.45.45,0,0,0-.17.14.62.62,0,0,0-.1.22,1.2,1.2,0,0,0,0,.3.86.86,0,0,0,.14.52A.49.49,0,0,0,143.66,41.57Z"/>
      <path d="M148.71,39.56l0,0h0l-.07,0-.11-.07-.15-.07a.66.66,0,0,0-.22,0,.64.64,0,0,0-.21,0,.46.46,0,0,0-.15.09.36.36,0,0,0-.09.13.42.42,0,0,0,0,.16.3.3,0,0,0,.06.19.46.46,0,0,0,.15.13l.2.09.23.08.23.09a.83.83,0,0,1,.2.13.6.6,0,0,1,.15.19.64.64,0,0,1,.05.28.9.9,0,0,1-.06.33.76.76,0,0,1-.17.27.81.81,0,0,1-.28.18,1,1,0,0,1-.38.06,1.16,1.16,0,0,1-.47-.09,1.11,1.11,0,0,1-.36-.25l.1-.17,0,0h0l.05,0,.07,0,.09.06.11.06.15,0,.18,0a.69.69,0,0,0,.23,0,.49.49,0,0,0,.17-.1.42.42,0,0,0,.11-.15.51.51,0,0,0,0-.2.33.33,0,0,0-.06-.2.45.45,0,0,0-.14-.13l-.2-.09-.23-.07-.23-.09a.75.75,0,0,1-.2-.13.6.6,0,0,1-.14-.2.73.73,0,0,1,.16-.8.79.79,0,0,1,.26-.16.94.94,0,0,1,.35-.06,1.12,1.12,0,0,1,.41.07,1,1,0,0,1,.32.2Z"/>
      <path d="M151.47,41.54a.63.63,0,0,1-.15.13l-.18.09-.2.05-.21,0a1,1,0,0,1-.36-.07.79.79,0,0,1-.28-.19.89.89,0,0,1-.19-.31,1.28,1.28,0,0,1-.07-.43,1.09,1.09,0,0,1,.06-.37.87.87,0,0,1,.17-.3.8.8,0,0,1,.28-.2.9.9,0,0,1,.37-.07.85.85,0,0,1,.31.06.72.72,0,0,1,.25.16.76.76,0,0,1,.16.26,1,1,0,0,1,.06.36.22.22,0,0,1,0,.1.07.07,0,0,1-.06,0h-1.26a1.09,1.09,0,0,0,0,.31.62.62,0,0,0,.12.22.5.5,0,0,0,.19.13.63.63,0,0,0,.24,0,.7.7,0,0,0,.21,0l.16-.06.11-.06.08,0a.07.07,0,0,1,.06,0Zm-.27-.88a.66.66,0,0,0,0-.21.48.48,0,0,0-.09-.17.42.42,0,0,0-.15-.11.57.57,0,0,0-.58.1.65.65,0,0,0-.17.38Z"/>
      <path d="M152.89,40.3a.85.85,0,0,1,.22-.3.48.48,0,0,1,.32-.11h.11l.1,0,0,.25a.05.05,0,0,1-.06,0h-.19l-.16,0a.37.37,0,0,0-.12.08.54.54,0,0,0-.1.13,1.06,1.06,0,0,0-.08.17V41.8h-.33V39.92h.19l.07,0a.12.12,0,0,1,0,.07Z"/>
      <path d="M156.21,39.92l-.77,1.88h-.3l-.77-1.88h.27l.07,0a.1.1,0,0,1,0,0l.48,1.21,0,.13,0,.13,0-.13,0-.13.48-1.21a.11.11,0,0,1,0,0l.06,0Z"/>
      <path d="M157.92,39.89a1,1,0,0,1,.37.07.8.8,0,0,1,.28.2.85.85,0,0,1,.18.31,1.32,1.32,0,0,1,0,.8.86.86,0,0,1-.18.31.79.79,0,0,1-.28.19,1,1,0,0,1-.37.07,1,1,0,0,1-.37-.07.78.78,0,0,1-.28-.19.86.86,0,0,1-.18-.31,1.33,1.33,0,0,1,0-.8.85.85,0,0,1,.18-.31.79.79,0,0,1,.28-.2A1,1,0,0,1,157.92,39.89Zm0,1.68a.48.48,0,0,0,.42-.19,1.06,1.06,0,0,0,0-1,.48.48,0,0,0-.42-.19.58.58,0,0,0-.25,0,.45.45,0,0,0-.17.14.62.62,0,0,0-.1.22,1.2,1.2,0,0,0,0,.3.86.86,0,0,0,.14.52A.49.49,0,0,0,157.92,41.57Z"/>
    </g>
    <g>
      <path d="M144.72,43.91l.08-.1.07-.1a.74.74,0,0,1-.23.12.85.85,0,0,1-.27,0,.8.8,0,0,1-.29-.05.68.68,0,0,1-.24-.15.71.71,0,0,1-.16-.24.83.83,0,0,1-.06-.33.82.82,0,0,1,.06-.33.8.8,0,0,1,.18-.27.85.85,0,0,1,.28-.18.94.94,0,0,1,.35-.06.92.92,0,0,1,.35.06.77.77,0,0,1,.44.45,1,1,0,0,1,.06.35,1.08,1.08,0,0,1,0,.22,1.17,1.17,0,0,1-.06.2,1.42,1.42,0,0,1-.1.2L145,44l-.65.94a.17.17,0,0,1-.07.06l-.1,0h-.3Zm-.77-.82a.66.66,0,0,0,0,.23.46.46,0,0,0,.1.17.43.43,0,0,0,.17.1.64.64,0,0,0,.22,0,.6.6,0,0,0,.24,0,.53.53,0,0,0,.17-.12.5.5,0,0,0,.11-.17.54.54,0,0,0,0-.2.61.61,0,0,0,0-.23.5.5,0,0,0-.11-.17.48.48,0,0,0-.17-.11.59.59,0,0,0-.21,0,.59.59,0,0,0-.22,0,.51.51,0,0,0-.17.11.48.48,0,0,0-.11.17A.58.58,0,0,0,143.95,43.09Z"/>
      <path d="M148.1,43.16v.12s0,.07-.08.08l-.21,0a.58.58,0,0,1,.06.27.57.57,0,0,1-.05.25.57.57,0,0,1-.15.19.64.64,0,0,1-.22.12.89.89,0,0,1-.28,0,1,1,0,0,1-.25,0l-.09.08a.14.14,0,0,0,0,.08.11.11,0,0,0,.05.1.4.4,0,0,0,.14,0l.2,0h.23l.23,0a.72.72,0,0,1,.2.07.38.38,0,0,1,.14.13.37.37,0,0,1,.05.21.5.5,0,0,1-.06.23.64.64,0,0,1-.17.2.9.9,0,0,1-.28.14,1.21,1.21,0,0,1-.37.05,1.44,1.44,0,0,1-.36,0,.84.84,0,0,1-.26-.11.47.47,0,0,1-.15-.16.38.38,0,0,1-.05-.19.34.34,0,0,1,.09-.24.6.6,0,0,1,.24-.15.34.34,0,0,1-.13-.1.29.29,0,0,1,0-.25.35.35,0,0,1,0-.09l.08-.08.1-.07a.58.58,0,0,1-.22-.21.57.57,0,0,1-.08-.3.58.58,0,0,1,.05-.25.56.56,0,0,1,.15-.19.67.67,0,0,1,.23-.12.93.93,0,0,1,.29,0l.23,0a.71.71,0,0,1,.19.08Zm-.34,1.91a.16.16,0,0,0,0-.11.26.26,0,0,0-.1-.07l-.15,0-.19,0h-.2l-.19,0a.51.51,0,0,0-.17.12.25.25,0,0,0-.07.17.23.23,0,0,0,0,.12.28.28,0,0,0,.1.09.58.58,0,0,0,.17.06l.24,0,.24,0a.6.6,0,0,0,.18-.07.34.34,0,0,0,.11-.11A.24.24,0,0,0,147.76,45.07Zm-.6-1a.51.51,0,0,0,.18,0,.36.36,0,0,0,.13-.08.32.32,0,0,0,.08-.12.43.43,0,0,0,0-.15.37.37,0,0,0-.1-.27.51.51,0,0,0-.61,0,.37.37,0,0,0-.1.27.43.43,0,0,0,0,.15.33.33,0,0,0,.08.12A.36.36,0,0,0,147,44,.51.51,0,0,0,147.16,44Z"/>
    </g>
    <g>
      <path d="M142.88,48.83l0,0h-.06l-.09,0-.13-.07-.19-.07a.91.91,0,0,0-.26,0,.86.86,0,0,0-.26,0,.58.58,0,0,0-.19.09.38.38,0,0,0-.11.14.39.39,0,0,0,0,.17.29.29,0,0,0,.07.19.55.55,0,0,0,.17.13l.25.1.28.08.28.1a1,1,0,0,1,.25.14.64.64,0,0,1,.17.2.6.6,0,0,1,.07.29.84.84,0,0,1-.07.35.8.8,0,0,1-.21.28,1,1,0,0,1-.34.19,1.41,1.41,0,0,1-.46.07,1.56,1.56,0,0,1-.57-.1,1.36,1.36,0,0,1-.44-.27l.13-.18,0,0h.06l.07,0,.08.05.11.07.14.07.18.05.22,0a.93.93,0,0,0,.27,0,.61.61,0,0,0,.2-.1.46.46,0,0,0,.13-.16.48.48,0,0,0,0-.21.32.32,0,0,0-.07-.21.53.53,0,0,0-.17-.14l-.25-.09-.28-.08-.28-.09a.93.93,0,0,1-.25-.14.64.64,0,0,1-.17-.21.72.72,0,0,1,0-.6.75.75,0,0,1,.19-.25,1,1,0,0,1,.31-.17,1.28,1.28,0,0,1,.42-.06,1.52,1.52,0,0,1,.49.07,1.19,1.19,0,0,1,.39.22Z" style="fill: url(#Gold_03-12)"/>
      <path d="M145.94,49.85v1.08a1.89,1.89,0,0,1-.52.23,2.26,2.26,0,0,1-.6.08,2.17,2.17,0,0,1-.7-.1,1.59,1.59,0,0,1-.53-.29,1.28,1.28,0,0,1-.34-.45,1.4,1.4,0,0,1-.12-.58,1.45,1.45,0,0,1,.12-.59,1.29,1.29,0,0,1,.33-.45,1.49,1.49,0,0,1,.52-.29,2.09,2.09,0,0,1,.68-.1l.35,0,.3.07.26.11.22.15-.12.17a.13.13,0,0,1-.07.05.15.15,0,0,1-.1,0l-.12-.07-.17-.08-.23-.06-.32,0a1.46,1.46,0,0,0-.49.08,1,1,0,0,0-.37.22,1,1,0,0,0-.24.35,1.22,1.22,0,0,0-.08.46,1.24,1.24,0,0,0,.09.47,1,1,0,0,0,.25.35,1.08,1.08,0,0,0,.39.22,1.78,1.78,0,0,0,.91,0,1.85,1.85,0,0,0,.34-.12v-.62H145l-.07,0a.07.07,0,0,1,0-.05v-.22Z" style="fill: url(#Gold_03-13)"/>
      <path d="M147.42,50.08l.09-.11.08-.1a.94.94,0,0,1-.28.13,1.17,1.17,0,0,1-.33,0,1.11,1.11,0,0,1-.34-.05.85.85,0,0,1-.29-.16.75.75,0,0,1-.2-.25.82.82,0,0,1,0-.69.86.86,0,0,1,.22-.28,1,1,0,0,1,.34-.19,1.28,1.28,0,0,1,.43-.07,1.25,1.25,0,0,1,.42.07,1,1,0,0,1,.32.19.81.81,0,0,1,.21.29.91.91,0,0,1,.07.37,1,1,0,0,1,0,.23,1.16,1.16,0,0,1-.07.21,1.46,1.46,0,0,1-.12.21l-.16.21-.78,1a.2.2,0,0,1-.08.06l-.12,0h-.37Zm-.93-.86a.62.62,0,0,0,0,.24.48.48,0,0,0,.13.18.54.54,0,0,0,.2.11.87.87,0,0,0,.26,0,.81.81,0,0,0,.29,0,.64.64,0,0,0,.21-.12.52.52,0,0,0,.13-.18.5.5,0,0,0,0-.21.57.57,0,0,0,0-.24.53.53,0,0,0-.13-.18.6.6,0,0,0-.2-.11.79.79,0,0,0-.26,0,.82.82,0,0,0-.27,0,.64.64,0,0,0-.21.12.51.51,0,0,0-.13.18A.55.55,0,0,0,146.49,49.22Z" style="fill: url(#Gold_03-14)"/>
      <path d="M150.57,49.8a2,2,0,0,1-.09.64,1.28,1.28,0,0,1-.25.45,1,1,0,0,1-.37.26,1.22,1.22,0,0,1-.46.09,1.2,1.2,0,0,1-.46-.09,1,1,0,0,1-.37-.26,1.26,1.26,0,0,1-.25-.45,2.33,2.33,0,0,1,0-1.28,1.27,1.27,0,0,1,.25-.45,1,1,0,0,1,.37-.26,1.2,1.2,0,0,1,.46-.09,1.22,1.22,0,0,1,.46.09,1,1,0,0,1,.37.26,1.29,1.29,0,0,1,.25.45A2,2,0,0,1,150.57,49.8Zm-.41,0a2,2,0,0,0-.06-.54,1,1,0,0,0-.17-.35.61.61,0,0,0-.24-.19.73.73,0,0,0-.57,0,.6.6,0,0,0-.24.19,1,1,0,0,0-.16.35,2.39,2.39,0,0,0,0,1.08,1,1,0,0,0,.16.35.6.6,0,0,0,.24.19.73.73,0,0,0,.57,0,.6.6,0,0,0,.24-.19,1,1,0,0,0,.17-.35A2,2,0,0,0,150.16,49.8Z" style="fill: url(#Gold_03-15)"/>
    </g>
    <rect height="23.96" style="fill: none;stroke-miterlimit: 10;stroke: url(#Gold_03-16)" width="32.36" x="129.86" y="28.86"/>
    <line style="fill: none;stroke-miterlimit: 10;stroke: url(#Gold_03-17)" x1="129.79" x2="162.24" y1="37.6" y2="37.53"/>
    <line style="fill: none;stroke-miterlimit: 10;stroke: url(#Gold_03-18)" x1="162.24" x2="129.72" y1="46.75" y2="46.75"/>
  </g>
  <g id="Connectors">
    <rect data-cir-type="female" height="2.89" id="circuitoCon_Sig" style="fill: none" width="2.89" y="46.85"/>
      <rect data-cir-color="red" data-cir-type="female" height="2.89" id="circuitoCon_Vin" style="fill: none" width="2.89" y="53.81"/>
      <rect data-cir-color="black" data-cir-type="female" height="2.89" id="circuitoCon_0" style="fill: none" width="2.89" y="60.78"/>
  </g>
</svg>