<?xml version="1.0" ?><svg height="8.39mm" viewBox="0 0 59.33 23.79" width="20.93mm" xmlns="http://www.w3.org/2000/svg">
  <title>L293D Motor Driver IC</title>
  <g data-name="Layer 2" id="Layer_2">
    <rect height="15.55" rx="1.42" ry="1.42" style="fill: #292e32" transform="translate(59.33 23.78) rotate(180)" width="59.33" y="4.12"/>
    <path d="M2.78,11.89A2.78,2.78,0,0,0,0,9.11v5.56A2.78,2.78,0,0,0,2.78,11.89Z" style="fill: #1b1b1b"/>
    <g>
      <path d="M19.26,13.77V10.14a.24.24,0,0,1,.49,0v3.14h1.73a.25.25,0,0,1,.18.07.24.24,0,0,1,0,.35.25.25,0,0,1-.18.07Z" style="fill: #fff"/>
      <path d="M25.09,13.76H22.86V12.07a.48.48,0,0,1,.14-.35.47.47,0,0,1,.35-.15h1.49V10.39H23.09a.23.23,0,0,1-.17-.07.25.25,0,0,1,0-.35.23.23,0,0,1,.17-.07h1.75a.48.48,0,0,1,.35.14.47.47,0,0,1,.15.35v1.19a.49.49,0,0,1-.5.5H23.35v1.2h1.74a.24.24,0,0,1,.17.07.24.24,0,0,1,0,.35A.24.24,0,0,1,25.09,13.76Z" style="fill: #fff"/>
      <path d="M28.69,13.76h-.24a.24.24,0,1,1,0-.49V11.65H26.72a.25.25,0,0,1-.24-.24V10.14a.25.25,0,0,1,.24-.24h2a.25.25,0,0,1,.24.24v3.38a.24.24,0,0,1-.24.24Zm-.24-2.6v-.77H27v.77Z" style="fill: #fff"/>
      <path d="M32.54,10.39v.92a.7.7,0,0,1-.2.52.73.73,0,0,1,.2.5v1a.47.47,0,0,1-.15.34.48.48,0,0,1-.35.14H30.32a.24.24,0,1,1,0-.49H32v-1a.24.24,0,0,0-.07-.18.23.23,0,0,0-.17-.07h-1a.24.24,0,0,1-.17-.07.25.25,0,0,1,.17-.42h1a.24.24,0,0,0,.17-.07.23.23,0,0,0,.07-.17v-.95H30.3a.24.24,0,1,1,0-.49H32a.49.49,0,0,1,.49.49Z" style="fill: #fff"/>
      <path d="M33.92,9.9h1a.68.68,0,0,1,.37.12.75.75,0,0,1,.26.29l.48,1a1.15,1.15,0,0,1,0,1.1l-.49,1a.75.75,0,0,1-.27.3.7.7,0,0,1-.39.11h-.94a.24.24,0,0,1-.17-.07.24.24,0,0,1-.07-.17.25.25,0,0,1,.07-.18.23.23,0,0,1,.17-.07h.26V10.39h-.25a.23.23,0,0,1-.17-.07.25.25,0,0,1-.07-.18.24.24,0,0,1,.07-.17A.23.23,0,0,1,33.92,9.9Zm.74.5v2.89h.17a.26.26,0,0,0,.24-.16l.48-1a.79.79,0,0,0,.09-.32.66.66,0,0,0-.07-.3l-.5-1a.27.27,0,0,0-.26-.15Z" style="fill: #fff"/>
    </g>
    <circle cx="4.57" cy="16.13" r="1.39" style="fill: #1b1b1b"/>
  </g>
  <g data-name="Layer 3" id="Layer_3">
    <path d="M3.54,1.85h0V.33c0-.18.08-.33.19-.33h1.6c.1,0,.19.15.19.33V1.85h0c.07,0,.14.09.15.21H3.39C3.4,1.94,3.46,1.85,3.54,1.85Z" style="fill: #9d9d9e"/>
    <path d="M6.27,4.13v-2a.33.33,0,0,0,0-.07H2.88a.33.33,0,0,0,0,.07v2Z" style="fill: #ababab"/>
    <path d="M17.94,1.85h0V.33c0-.18.08-.33.19-.33h1.6c.1,0,.19.15.19.33V1.85h0c.07,0,.14.09.15.21H17.78C17.8,1.94,17.86,1.85,17.94,1.85Z" style="fill: #9d9d9e"/>
    <path d="M20.67,4.13v-2a.33.33,0,0,0,0-.07H17.28a.33.33,0,0,0,0,.07v2Z" style="fill: #ababab"/>
    <path d="M10.74,1.85h0V.33c0-.18.08-.33.19-.33h1.6c.1,0,.19.15.19.33V1.85h0c.07,0,.14.09.15.21H10.58C10.6,1.94,10.66,1.85,10.74,1.85Z" style="fill: #9d9d9e"/>
    <path d="M13.47,4.13v-2a.33.33,0,0,0,0-.07H10.08a.33.33,0,0,0,0,.07v2Z" style="fill: #ababab"/>
    <path d="M25.14,1.85h0V.33c0-.18.08-.33.19-.33H27c.1,0,.19.15.19.33V1.85h0c.07,0,.14.09.15.21H25C25,1.94,25.06,1.85,25.14,1.85Z" style="fill: #9d9d9e"/>
    <path d="M28.24,4.13v-2a.27.27,0,0,0,0-.07H24.11a.27.27,0,0,0,0,.07v2Z" style="fill: #ababab"/>
    <path d="M32.33,1.85h0V.33c0-.18.08-.33.19-.33h1.6c.1,0,.19.15.19.33V1.85h0c.07,0,.14.09.15.21H32.18C32.2,1.94,32.26,1.85,32.33,1.85Z" style="fill: #9d9d9e"/>
    <path d="M35.07,4.13v-2a.33.33,0,0,0,0-.07H31.68a.33.33,0,0,0,0,.07v2Z" style="fill: #ababab"/>
    <path d="M39.53,1.85h0V.33c0-.18.08-.33.19-.33h1.6c.1,0,.19.15.19.33V1.85h0c.07,0,.14.09.15.21H39.38C39.4,1.94,39.46,1.85,39.53,1.85Z" style="fill: #9d9d9e"/>
    <path d="M42.27,4.13v-2a.33.33,0,0,0,0-.07H38.88a.33.33,0,0,0,0,.07v2Z" style="fill: #ababab"/>
    <path d="M46.73,1.85h0V.33c0-.18.08-.33.19-.33h1.6c.1,0,.19.15.19.33V1.85h0c.07,0,.14.09.15.21H46.58C46.6,1.94,46.66,1.85,46.73,1.85Z" style="fill: #9d9d9e"/>
    <path d="M49.47,4.13v-2a.33.33,0,0,0,0-.07H46.07a.33.33,0,0,0,0,.07v2Z" style="fill: #ababab"/>
    <path d="M53.93,1.85h0V.33c0-.18.08-.33.19-.33h1.6c.1,0,.19.15.19.33V1.85h0c.07,0,.14.09.15.21H53.78C53.8,1.94,53.86,1.85,53.93,1.85Z" style="fill: #9d9d9e"/>
    <path d="M56.67,4.13v-2a.33.33,0,0,0,0-.07H53.27a.33.33,0,0,0,0,.07v2Z" style="fill: #ababab"/>
    <path d="M3.54,21.93h0v1.53c0,.18.08.33.19.33h1.6c.1,0,.19-.15.19-.33V21.93h0c.07,0,.14-.09.15-.21H3.39C3.4,21.84,3.46,21.93,3.54,21.93Z" style="fill: #9d9d9e"/>
    <rect height="0.56" style="fill: #9a9a9b" width="3.4" x="2.87" y="19.66"/>
    <path d="M2.87,21.66a.33.33,0,0,0,0,.07H6.27a.33.33,0,0,0,0-.07V20.22H2.87Z" style="fill: #ababab"/>
    <path d="M10.74,21.93h0v1.53c0,.18.08.33.19.33h1.6c.1,0,.19-.15.19-.33V21.93h0c.07,0,.14-.09.15-.21H10.58C10.6,21.84,10.66,21.93,10.74,21.93Z" style="fill: #9d9d9e"/>
    <rect height="0.56" style="fill: #9a9a9b" width="3.4" x="10.07" y="19.66"/>
    <path d="M10.08,21.72h3.39a.33.33,0,0,0,0-.07V20.22h-3.4v1.44A.33.33,0,0,0,10.08,21.72Z" style="fill: #ababab"/>
    <path d="M17.94,21.93h0v1.53c0,.18.08.33.19.33h1.6c.1,0,.19-.15.19-.33V21.93h0c.07,0,.14-.09.15-.21H17.78C17.8,21.84,17.86,21.93,17.94,21.93Z" style="fill: #9d9d9e"/>
    <rect height="0.56" style="fill: #9a9a9b" width="3.4" x="17.27" y="19.66"/>
    <path d="M17.28,21.72h3.39a.33.33,0,0,0,0-.07V20.22h-3.4v1.44A.33.33,0,0,0,17.28,21.72Z" style="fill: #ababab"/>
    <path d="M25.14,21.93h0v1.53c0,.18.08.33.19.33H27c.1,0,.19-.15.19-.33V21.93h0c.07,0,.14-.09.15-.21H25C25,21.84,25.06,21.93,25.14,21.93Z" style="fill: #9d9d9e"/>
    <rect height="0.56" style="fill: #9a9a9b" width="3.4" x="24.47" y="19.66"/>
    <path d="M24.48,21.72h3.39a.33.33,0,0,0,0-.07V20.22h-3.4v1.44A.33.33,0,0,0,24.48,21.72Z" style="fill: #ababab"/>
    <path d="M32.34,21.93h0v1.53c0,.18.08.33.19.33h1.6c.1,0,.19-.15.19-.33V21.93h0c.07,0,.14-.09.15-.21H32.18C32.2,21.84,32.26,21.93,32.34,21.93Z" style="fill: #9d9d9e"/>
    <path d="M31.68,21.72h3.39a.33.33,0,0,0,0-.07V20.22h-3.4v1.44A.33.33,0,0,0,31.68,21.72Z" style="fill: #ababab"/>
    <rect height="0.56" style="fill: #9a9a9b" width="3.4" x="31.67" y="19.66"/>
    <path d="M39.53,21.93h0v1.53c0,.18.08.33.19.33h1.6c.1,0,.19-.15.19-.33V21.93h0c.07,0,.14-.09.15-.21H39.38C39.4,21.84,39.46,21.93,39.53,21.93Z" style="fill: #9d9d9e"/>
    <rect height="0.56" style="fill: #9a9a9b" width="3.4" x="38.87" y="19.66"/>
    <path d="M38.88,21.72h3.39a.33.33,0,0,0,0-.07V20.22h-3.4v1.44A.33.33,0,0,0,38.88,21.72Z" style="fill: #ababab"/>
    <path d="M46.73,21.93h0v1.53c0,.18.08.33.19.33h1.6c.1,0,.19-.15.19-.33V21.93h0c.07,0,.14-.09.15-.21H46.58C46.6,21.84,46.66,21.93,46.73,21.93Z" style="fill: #9d9d9e"/>
    <path d="M46.07,21.72h3.39a.33.33,0,0,0,0-.07V20.22h-3.4v1.44A.33.33,0,0,0,46.07,21.72Z" style="fill: #ababab"/>
    <rect height="0.56" style="fill: #9a9a9b" width="3.4" x="46.07" y="19.66"/>
    <path d="M53.93,21.93h0v1.53c0,.18.08.33.19.33h1.6c.1,0,.19-.15.19-.33V21.93h0c.07,0,.14-.09.15-.21H53.78C53.8,21.84,53.86,21.93,53.93,21.93Z" style="fill: #9d9d9e"/>
    <path d="M53.27,21.72h3.39a.33.33,0,0,0,0-.07V20.22h-3.4v1.44A.33.33,0,0,0,53.27,21.72Z" style="fill: #ababab"/>
    <rect height="0.56" style="fill: #9a9a9b" width="3.4" x="53.27" y="19.66"/>
  </g>
  <g id="Connectors">
    <rect data-cir-type="male" data-name="circuitoCon_+V" height="1.72" id="circuitoCon_+V" style="fill: none" width="1.98" x="3.58" y="0.08"/>
    <rect data-cir-type="male" height="1.72" id="circuitoCon_Out4" style="fill: none" width="1.98" x="17.99" y="0.08"/>
    <rect data-cir-type="male" height="1.72" id="circuitoCon_In4" style="fill: none" width="1.98" x="10.78" y="0.08"/>
    <rect data-cir-type="male" height="1.72" id="circuitoCon_GND4" style="fill: none" width="1.98" x="25.18" y="0.08"/>
    <rect data-cir-type="male" height="1.72" id="circuitoCon_GND3" style="fill: none" width="1.98" x="32.39" y="0.08"/>
    <rect data-cir-type="male" height="1.72" id="circuitoCon_Out3" style="fill: none" width="1.98" x="39.59" y="0.08"/>
    <rect data-cir-type="male" height="1.72" id="circuitoCon_In3" style="fill: none" width="1.98" x="46.79" y="0.08"/>
    <rect data-cir-type="male" height="1.72" id="circuitoCon_Enable2" style="fill: none" width="1.98" x="53.98" y="0.08"/>
    <rect data-cir-type="male" height="1.83" id="circuitoCon_Enable1" style="fill: none" width="1.98" x="3.59" y="21.95"/>
    <rect data-cir-type="male" height="1.83" id="circuitoCon_In1" style="fill: none" width="1.98" x="10.79" y="21.95"/>
    <rect data-cir-type="male" height="1.83" id="circuitoCon_Out1" style="fill: none" width="1.98" x="17.99" y="21.95"/>
    <rect data-cir-type="male" height="1.83" id="circuitoCon_GND1" style="fill: none" width="1.98" x="25.19" y="21.95"/>
    <rect data-cir-type="male" height="1.83" id="circuitoCon_GND2" style="fill: none" width="1.98" x="32.39" y="21.95"/>
    <rect data-cir-type="male" height="1.83" id="circuitoCon_Out2" style="fill: none" width="1.98" x="39.59" y="21.95"/>
    <rect data-cir-type="male" height="1.83" id="circuitoCon_In2" style="fill: none" width="1.98" x="46.8" y="21.95"/>
    <rect data-cir-type="male" data-name="circuitoCon_+Vmotor" height="1.83" id="circuitoCon_+Vmotor" style="fill: none" width="1.98" x="53.98" y="21.95"/>
  </g>
</svg>