<?xml version="1.0" ?><svg height="30.19mm" viewBox="0 0 220.13 85.59" width="77.66mm" xmlns="http://www.w3.org/2000/svg" xmlns:xlink="http://www.w3.org/1999/xlink">
  <defs>
    <linearGradient gradientTransform="matrix(1, 0, 0, -1, -216.92, 12.15)" gradientUnits="userSpaceOnUse" id="linear-gradient" x1="390.43" x2="405.13" y1="6.08" y2="6.08">
      <stop offset="0" stop-color="#7d7d7d"/>
      <stop offset="1" stop-color="#fff"/>
    </linearGradient>
    <linearGradient gradientTransform="matrix(1, 0, 0, -1, -202.63, 12.15)" id="linear-gradient-2" x1="390.43" x2="390.85" xlink:href="#linear-gradient" y1="6.08" y2="6.08"/>
    <linearGradient gradientTransform="matrix(1, 0, 0, -1, -204.67, 12.15)" id="linear-gradient-3" x1="391.45" x2="391.87" xlink:href="#linear-gradient" y1="6.08" y2="6.08"/>
    <linearGradient gradientTransform="matrix(1, 0, 0, -1, -206.71, 12.15)" id="linear-gradient-4" x1="392.47" x2="392.89" xlink:href="#linear-gradient" y1="6.08" y2="6.08"/>
    <linearGradient gradientTransform="matrix(1, 0, 0, -1, -208.75, 12.15)" id="linear-gradient-5" x1="393.49" x2="393.91" xlink:href="#linear-gradient" y1="6.08" y2="6.08"/>
    <linearGradient gradientTransform="matrix(1, 0, 0, -1, -210.8, 12.15)" id="linear-gradient-6" x1="394.52" x2="394.93" xlink:href="#linear-gradient" y1="6.08" y2="6.08"/>
    <linearGradient gradientTransform="matrix(1, 0, 0, -1, -212.84, 12.15)" id="linear-gradient-7" x1="395.54" x2="395.95" xlink:href="#linear-gradient" y1="6.08" y2="6.08"/>
    <linearGradient gradientTransform="matrix(1, 0, 0, -1, -214.88, 12.15)" id="linear-gradient-8" x1="396.56" x2="396.97" xlink:href="#linear-gradient" y1="6.08" y2="6.08"/>
    <linearGradient id="linear-gradient-9" x1="397.58" x2="397.99" xlink:href="#linear-gradient" y1="6.08" y2="6.08"/>
    <linearGradient gradientTransform="matrix(1, 0, 0, -1, -218.96, 12.15)" id="linear-gradient-10" x1="398.6" x2="399.01" xlink:href="#linear-gradient" y1="6.08" y2="6.08"/>
    <linearGradient gradientTransform="matrix(1, 0, 0, -1, -221, 12.15)" id="linear-gradient-11" x1="399.62" x2="400.03" xlink:href="#linear-gradient" y1="6.08" y2="6.08"/>
    <linearGradient gradientTransform="matrix(1, 0, 0, -1, -223.04, 12.15)" id="linear-gradient-12" x1="400.64" x2="401.05" xlink:href="#linear-gradient" y1="6.08" y2="6.08"/>
    <linearGradient gradientTransform="matrix(1, 0, 0, -1, -225.08, 12.15)" id="linear-gradient-13" x1="401.66" x2="402.07" xlink:href="#linear-gradient" y1="6.08" y2="6.08"/>
    <linearGradient gradientTransform="matrix(1, 0, 0, -1, -227.13, 12.15)" id="linear-gradient-14" x1="402.68" x2="403.09" xlink:href="#linear-gradient" y1="6.08" y2="6.08"/>
    <linearGradient gradientTransform="matrix(1, 0, 0, -1, -229.17, 12.15)" id="linear-gradient-15" x1="403.7" x2="404.11" xlink:href="#linear-gradient" y1="6.08" y2="6.08"/>
    <linearGradient gradientTransform="matrix(1, 0, 0, -1, -231.21, 12.15)" id="linear-gradient-16" x1="404.72" x2="405.13" xlink:href="#linear-gradient" y1="6.08" y2="6.08"/>
    <linearGradient gradientTransform="matrix(1, 0, 0, -1, -175.75, 169.03)" gradientUnits="userSpaceOnUse" id="linear-gradient-17" x1="375.26" x2="379.15" y1="84.52" y2="84.52">
      <stop offset="0" stop-color="#f2f2f2"/>
      <stop offset="0.5" stop-color="#999"/>
      <stop offset="1" stop-color="#f2f2f2"/>
    </linearGradient>
    <linearGradient gradientTransform="matrix(1, 0, 0, -1, -336.72, 169.03)" id="linear-gradient-18" x1="455.74" x2="459.63" xlink:href="#linear-gradient-17" y1="84.52" y2="84.52"/>
    <linearGradient gradientTransform="matrix(1, 0, 0, -1, -256.29, 63.15)" gradientUnits="userSpaceOnUse" id="linear-gradient-19" x1="358.52" x2="476.41" y1="31.58" y2="31.58">
      <stop offset="0" stop-color="#666"/>
      <stop offset="0.05" stop-color="#333"/>
      <stop offset="0.95" stop-color="#333"/>
      <stop offset="1" stop-color="#666"/>
    </linearGradient>
    <linearGradient gradientTransform="matrix(1, 0, 0, -1, -262.85, 32.66)" gradientUnits="userSpaceOnUse" id="linear-gradient-20" x1="410.91" x2="430.59" y1="16.33" y2="16.33">
      <stop offset="0" stop-color="#555355"/>
      <stop offset="0.06" stop-color="#494749"/>
      <stop offset="0.16" stop-color="#3b393c"/>
      <stop offset="0.29" stop-color="#333133"/>
      <stop offset="0.5" stop-color="#302e31"/>
      <stop offset="0.71" stop-color="#333133"/>
      <stop offset="0.84" stop-color="#3b393c"/>
      <stop offset="0.94" stop-color="#494749"/>
      <stop offset="1" stop-color="#555355"/>
    </linearGradient>
    <linearGradient gradientTransform="matrix(1, 0, 0, -1, -216.92, 31.64)" id="linear-gradient-21" x1="378.1" x2="417.47" xlink:href="#linear-gradient-20" y1="15.82" y2="15.82"/>
    <linearGradient gradientTransform="matrix(1, 0, 0, -1, -256.29, 104.39)" id="linear-gradient-22" x1="374.46" x2="460.48" xlink:href="#linear-gradient-19" y1="52.2" y2="52.2"/>
    <linearGradient gradientTransform="matrix(1, 0, 0, -1, -256.29, 55.71)" id="linear-gradient-23" x1="374.46" x2="460.48" xlink:href="#linear-gradient-19" y1="27.86" y2="27.86"/>
    <linearGradient gradientTransform="matrix(1, 0, 0, -1, -410.26, 441.01)" gradientUnits="userSpaceOnUse" id="linear-gradient-24" x1="423.93" x2="423.93" y1="365.54" y2="358.1">
      <stop offset="0" stop-color="#999"/>
      <stop offset="1" stop-color="#f2f2f2"/>
    </linearGradient>
    <linearGradient gradientTransform="matrix(1, 0, 0, -1, -417.23, 434.05)" id="linear-gradient-25" x1="430.89" x2="430.89" xlink:href="#linear-gradient-24" y1="365.54" y2="358.1"/>
    <linearGradient gradientTransform="matrix(1, 0, 0, -1, -424.19, 427.08)" id="linear-gradient-26" x1="437.86" x2="437.86" xlink:href="#linear-gradient-24" y1="365.54" y2="358.1"/>
  </defs>
  <title>circuito_Servo - Generic Continuous Rotation (Micro Size)</title>
  <g data-name="Layer 1" id="Layer_1">
    <g data-name="&lt;Group&gt;" id="_Group_">
      <polyline data-name="&lt;Path&gt;" id="_Path_" points="23.05 69.92 122.38 70.23 122.38 65.63 23.05 65.63" style="fill: #fcee21"/>
      <path d="M1.78,103.22" data-name="&lt;Path&gt;" id="_Path_2" style="fill: #fcee21"/>
    </g>
    <g data-name="&lt;Group&gt;" id="_Group_2">
      <polyline data-name="&lt;Path&gt;" id="_Path_3" points="23.05 74.22 126.68 74.53 126.68 69.92 23.05 69.92" style="fill: #f7931e"/>
    </g>
    <g data-name="&lt;Group&gt;" id="_Group_3">
      <polyline data-name="&lt;Path&gt;" id="_Path_4" points="23.05 78.83 130.98 78.83 130.98 74.22 23.05 74.22" style="fill: #8c6239"/>
    </g>
    <g data-name="&lt;Group&gt;" id="_Group_4">
      <rect data-name="&lt;Rectangle&gt;" height="12.15" id="_Rectangle_" style="fill: url(#linear-gradient)" transform="translate(361.73 12.15) rotate(-180)" width="14.7" x="173.51"/>
      <rect data-name="&lt;Rectangle&gt;" height="12.15" id="_Rectangle_2" style="fill: url(#linear-gradient-2)" transform="translate(376.02 12.15) rotate(-180)" width="0.41" x="187.8"/>
      <rect data-name="&lt;Rectangle&gt;" height="12.15" id="_Rectangle_3" style="fill: url(#linear-gradient-3)" transform="translate(373.98 12.15) rotate(-180)" width="0.41" x="186.78"/>
      <rect data-name="&lt;Rectangle&gt;" height="12.15" id="_Rectangle_4" style="fill: url(#linear-gradient-4)" transform="translate(371.93 12.15) rotate(-180)" width="0.41" x="185.76"/>
      <rect data-name="&lt;Rectangle&gt;" height="12.15" id="_Rectangle_5" style="fill: url(#linear-gradient-5)" transform="translate(369.89 12.15) rotate(-180)" width="0.41" x="184.74"/>
      <rect data-name="&lt;Rectangle&gt;" height="12.15" id="_Rectangle_6" style="fill: url(#linear-gradient-6)" transform="translate(367.85 12.15) rotate(-180)" width="0.41" x="183.72"/>
      <rect data-name="&lt;Rectangle&gt;" height="12.15" id="_Rectangle_7" style="fill: url(#linear-gradient-7)" transform="translate(365.81 12.15) rotate(-180)" width="0.41" x="182.7"/>
      <rect data-name="&lt;Rectangle&gt;" height="12.15" id="_Rectangle_8" style="fill: url(#linear-gradient-8)" transform="translate(363.77 12.15) rotate(-180)" width="0.41" x="181.68"/>
      <rect data-name="&lt;Rectangle&gt;" height="12.15" id="_Rectangle_9" style="fill: url(#linear-gradient-9)" transform="translate(361.73 12.15) rotate(-180)" width="0.41" x="180.66"/>
      <rect data-name="&lt;Rectangle&gt;" height="12.15" id="_Rectangle_10" style="fill: url(#linear-gradient-10)" transform="translate(359.69 12.15) rotate(-180)" width="0.41" x="179.64"/>
      <rect data-name="&lt;Rectangle&gt;" height="12.15" id="_Rectangle_11" style="fill: url(#linear-gradient-11)" transform="translate(357.65 12.15) rotate(-180)" width="0.41" x="178.62"/>
      <rect data-name="&lt;Rectangle&gt;" height="12.15" id="_Rectangle_12" style="fill: url(#linear-gradient-12)" transform="translate(355.6 12.15) rotate(-180)" width="0.41" x="177.6"/>
      <rect data-name="&lt;Rectangle&gt;" height="12.15" id="_Rectangle_13" style="fill: url(#linear-gradient-13)" transform="translate(353.56 12.15) rotate(-180)" width="0.41" x="176.58"/>
      <rect data-name="&lt;Rectangle&gt;" height="12.15" id="_Rectangle_14" style="fill: url(#linear-gradient-14)" transform="translate(351.52 12.15) rotate(-180)" width="0.41" x="175.55"/>
      <rect data-name="&lt;Rectangle&gt;" height="12.15" id="_Rectangle_15" style="fill: url(#linear-gradient-15)" transform="translate(349.48 12.15) rotate(-180)" width="0.41" x="174.53"/>
      <rect data-name="&lt;Rectangle&gt;" height="12.15" id="_Rectangle_16" style="fill: url(#linear-gradient-16)" transform="translate(347.44 12.15) rotate(-180)" width="0.41" x="173.51"/>
    </g>
    <path d="M200.84,83.84h1.21a1.34,1.34,0,0,1,1.34,1.34v0a0,0,0,0,1,0,0H199.5a0,0,0,0,1,0,0v0A1.34,1.34,0,0,1,200.84,83.84Z" data-name="&lt;Rectangle&gt;" id="_Rectangle_17" style="fill: url(#linear-gradient-17)" transform="translate(402.89 169.03) rotate(-180)"/>
    <path d="M120.36,83.84h1.21a1.34,1.34,0,0,1,1.34,1.34v0a0,0,0,0,1,0,0H119a0,0,0,0,1,0,0v0A1.34,1.34,0,0,1,120.36,83.84Z" data-name="&lt;Rectangle&gt;" id="_Rectangle_18" style="fill: url(#linear-gradient-18)" transform="translate(241.93 169.03) rotate(180)"/>
    <path d="M127,81.79h68.45a3,3,0,0,1,3,3v.8a0,0,0,0,1,0,0H124a0,0,0,0,1,0,0v-.8A3,3,0,0,1,127,81.79Z" data-name="&lt;Rectangle&gt;" id="_Rectangle_19" style="fill: #242224" transform="translate(322.36 167.38) rotate(-180)"/>
    <rect data-name="&lt;Rectangle&gt;" height="7.44" id="_Rectangle_20" style="fill: url(#linear-gradient-19)" transform="translate(322.36 63.15) rotate(-180)" width="117.89" x="102.23" y="27.86"/>
    <path d="M148.06,9.62h19.68a0,0,0,0,1,0,0V20.54A2.49,2.49,0,0,1,165.25,23H148.06a0,0,0,0,1,0,0V9.62A0,0,0,0,1,148.06,9.62Z" data-name="&lt;Rectangle&gt;" id="_Rectangle_21" style="fill: url(#linear-gradient-20)" transform="translate(315.8 32.66) rotate(-180)"/>
    <path d="M161.18,8.6h39.37a0,0,0,0,1,0,0V20.54A2.49,2.49,0,0,1,198.05,23H163.68a2.49,2.49,0,0,1-2.49-2.49V8.6a0,0,0,0,1,0,0Z" data-name="&lt;Rectangle&gt;" id="_Rectangle_22" style="fill: url(#linear-gradient-21)" transform="translate(361.73 31.64) rotate(-180)"/>
    <rect data-name="&lt;Rectangle&gt;" height="63.57" id="_Rectangle_23" rx="0.95" ry="0.95" style="fill: url(#linear-gradient-22)" transform="translate(322.36 104.39) rotate(-180)" width="86.02" x="118.17" y="20.41"/>
    <rect data-name="&lt;Rectangle&gt;" height="14.89" id="_Rectangle_24" rx="0.46" ry="0.46" style="fill: url(#linear-gradient-23)" transform="translate(322.36 55.71) rotate(-180)" width="86.02" x="118.17" y="20.41"/>
    <rect data-name="&lt;Rectangle&gt;" height="0.58" id="_Rectangle_25" style="fill: #201e20" transform="translate(322.36 142.3) rotate(-180)" width="86.02" x="118.17" y="70.86"/>
    <rect data-name="&lt;Rectangle&gt;" height="0.58" id="_Rectangle_26" style="fill: #201e20" transform="translate(322.36 69.98) rotate(-180)" width="86.02" x="118.17" y="34.7"/>
    <path d="M123,78.34" data-name="&lt;Path&gt;" id="_Path_5" style="fill: none;stroke: #c69c6d;stroke-miterlimit: 10;stroke-width: 8.33083927631378px"/>
    <g>
      <rect data-name="&lt;Rectangle&gt;" height="37.48" id="_Rectangle_27" style="fill: #333" transform="translate(-53.49 90.97) rotate(-90)" width="23.47" x="7" y="53.49"/>
      <g data-name="&lt;Group&gt;" id="_Group_5">
        <rect data-name="&lt;Rectangle&gt;" height="14.88" id="_Rectangle_28" style="fill: #1a1a1a" transform="translate(-69.25 89.14) rotate(-90)" width="2.89" x="8.5" y="71.75"/>
        <rect data-name="&lt;Rectangle&gt;" height="7.44" id="_Rectangle_29" style="fill: url(#linear-gradient-24)" transform="translate(-65.53 92.86) rotate(-90)" width="2.89" x="12.22" y="75.47"/>
        <rect data-name="&lt;Rectangle&gt;" height="14.88" id="_Rectangle_30" style="fill: #1a1a1a" transform="translate(-62.28 82.17) rotate(-90)" width="2.89" x="8.5" y="64.79"/>
        <rect data-name="&lt;Rectangle&gt;" height="7.44" id="_Rectangle_31" style="fill: url(#linear-gradient-25)" transform="translate(-58.56 85.89) rotate(-90)" width="2.89" x="12.22" y="68.51"/>
        <rect data-name="&lt;Rectangle&gt;" height="14.88" id="_Rectangle_32" style="fill: #1a1a1a" transform="translate(-55.32 75.2) rotate(-90)" width="2.89" x="8.5" y="57.82"/>
        <rect data-name="&lt;Rectangle&gt;" height="7.44" id="_Rectangle_33" style="fill: url(#linear-gradient-26)" transform="translate(-51.6 78.93) rotate(-90)" width="2.89" x="12.22" y="61.54"/>
      </g>
    </g>
  </g>
  <g data-name="Layer 4" id="Layer_4">
    <rect height="33.43" rx="4.68" ry="4.68" style="fill: #fff" width="53.66" x="134.35" y="36.37"/>
    <path d="M188,56.71V65.9a4.7,4.7,0,0,1-4.68,4.68H139a4.7,4.7,0,0,1-4.68-4.68V56.71Z" style="fill: #231f20"/>
    <path d="M179.7,48.86a2.12,2.12,0,0,1-1.77.64,3.12,3.12,0,0,1-2.11-.7,2.45,2.45,0,0,1-.7-1.09,3.85,3.85,0,0,1-.17-1.15,2.85,2.85,0,0,1,3-3,3.89,3.89,0,0,1,.79.09,2.13,2.13,0,0,1,.59.23.89.89,0,0,1,.44.78.58.58,0,0,1-.14.41.5.5,0,0,1-.39.16.92.92,0,0,1-.72-.34.52.52,0,0,0,.17-.33.32.32,0,0,0-.16-.3.63.63,0,0,0-.41-.12,1.07,1.07,0,0,0-.94.57,1.84,1.84,0,0,0-.2.6c0,.24-.05.58-.05,1a7,7,0,0,0,.13,1.53,2,2,0,0,0,.27.6,1.29,1.29,0,0,0,.44.35,1.63,1.63,0,0,0,.58.13c.47,0,.69-.22.69-.64v-.13a.85.85,0,0,1,.48.21.93.93,0,0,1,.22.49"/>
    <path d="M172.38,47.48a.69.69,0,0,0,.26-.21.89.89,0,0,0,.2-.47,6.78,6.78,0,0,0,0-.94c0-.37,0-.63,0-.8a1.09,1.09,0,0,0-.14-.42.83.83,0,0,0-.34-.3v-.66a3.61,3.61,0,0,1,.88.09,2,2,0,0,1,.71.29,1.89,1.89,0,0,1,.85,1.65,1.86,1.86,0,0,1-.45,1.3,3.19,3.19,0,0,1-1.42.9,1.6,1.6,0,0,0,.49.44,1.31,1.31,0,0,0,.6.16,1.59,1.59,0,0,0,.78-.26,1.53,1.53,0,0,1-.23.82.92.92,0,0,1-.4.31,1.35,1.35,0,0,1-.57.12,1.23,1.23,0,0,1-.82-.29,3.26,3.26,0,0,1-.42-.53v-1.2m-.5.1H172a1.05,1.05,0,0,0,.38-.09h0v1.2a5,5,0,0,1-.27-.52H172l-.11,0v1.2h-1.81v-5.7h2.31v.66a1,1,0,0,0-.41-.08h-.09Z"/>
    <path d="M169.54,49a2.69,2.69,0,0,1-1.68.47,2.78,2.78,0,0,1-3-3,3.42,3.42,0,0,1,.47-1.82,2.5,2.5,0,0,1,2.25-1.15,2.56,2.56,0,0,1,1,.17,2,2,0,0,1,.76.56.8.8,0,0,1-.62.38.8.8,0,0,0-.29-.41.68.68,0,0,0-.44-.12,1.13,1.13,0,0,0-1,.57,1.23,1.23,0,0,0-.17.54,7.58,7.58,0,0,0,0,1.1c0,.71,0,1.23,0,1.53a1.49,1.49,0,0,0,.18.66.75.75,0,0,0,.26.27,1.14,1.14,0,0,0,.41.11V45.26h1.81V49"/>
    <polyline points="162.87 39.95 164.85 40.95 161.56 42.96 167.37 40.77 162.87 39.95"/>
    <path d="M168.7,41.11l1-.3-.91-.32c4.59-.12,7.87.75,8.31,2.48h0l0,.06h0c.27,1.3-1,2.77-3.36,4.17a37.71,37.71,0,0,1-9.32,3.6c-.65.17-1.31.33-2,.47h0c-1.21.27-2.4.48-3.55.66s-2.26.29-3.33.37c-5.57.41-9.7-.44-10.21-2.39h0v0c-.29-1.31,1-2.78,3.36-4.18a37.31,37.31,0,0,1,9.31-3.6c.66-.17,1.32-.32,2-.47h0c.37-.09.74-.16,1.12-.23l.88.1-1.2.6-.67.14h0c-.68.15-1.34.3-2,.46A36.8,36.8,0,0,0,149,46.23c-2.11,1.24-3.28,2.49-3.06,3.5v0c.43,1.62,4.3,2.31,9.56,1.91,1.05-.08,2.14-.2,3.28-.38s2.31-.37,3.5-.63h0c.68-.14,1.33-.3,2-.47a36.53,36.53,0,0,0,9.15-3.52c2.1-1.24,3.28-2.5,3.06-3.51l0,0c-.37-1.45-3.43-2.15-7.76-2"/>
    <polyline points="164.54 49.38 163.89 49.38 160.68 46.28 160.68 49.38 160.16 49.38 160.16 43.68 160.75 43.68 164.02 46.82 164.02 43.68 164.54 43.68 164.54 49.38"/>
    <rect height="5.7" width="1.81" x="157.76" y="43.68"/>
    <path d="M154.9,47.48a.69.69,0,0,0,.26-.21,1.08,1.08,0,0,0,.19-.47,6.42,6.42,0,0,0,.06-.94,6.9,6.9,0,0,0,0-.8,1,1,0,0,0-.15-.42.77.77,0,0,0-.32-.3v-.66a3.61,3.61,0,0,1,.88.09,2.07,2.07,0,0,1,.7.29,1.88,1.88,0,0,1,.86,1.65,1.9,1.9,0,0,1-.45,1.3,3.25,3.25,0,0,1-1.42.9,1.56,1.56,0,0,0,.48.44,1.31,1.31,0,0,0,.59.16,1.54,1.54,0,0,0,.79-.26,1.45,1.45,0,0,1-.22.82.92.92,0,0,1-.4.31,1.4,1.4,0,0,1-.58.12,1.23,1.23,0,0,1-.82-.29,2.16,2.16,0,0,1-.41-.53v-1.2m-.52.1h.08a1.06,1.06,0,0,0,.4-.09h0v1.2c-.09-.15-.18-.32-.28-.52h-.12a.3.3,0,0,1-.12,0v1.2h-1.8v-5.7h2.32v.66a1,1,0,0,0-.41-.08h-.11Z"/>
    <path d="M149.82,47.44a.82.82,0,0,0,.22-.18,1,1,0,0,0,.22-.46,4.11,4.11,0,0,0,.07-.83,3.67,3.67,0,0,0-.12-1.16.8.8,0,0,0-.28-.42l-.11,0v-.66h.07a4.78,4.78,0,0,1,.88,0,2.08,2.08,0,0,1,.58.22,1.7,1.7,0,0,1,.68.75,2,2,0,0,1,.24,1,2.2,2.2,0,0,1-.51,1.46,2.68,2.68,0,0,1-1.73.92h-.21v-.66m-.5.1a1.06,1.06,0,0,0,.5-.1v.66l-.5,0v1.24h-1.81v-5.7h2.31v.66a1,1,0,0,0-.42-.08h-.08Z"/>
    <path d="M146.53,44.33a1.07,1.07,0,0,1-.61.46,1.63,1.63,0,0,0-.47-.5,1.24,1.24,0,0,0-.64-.16.67.67,0,0,0-.41.11.33.33,0,0,0-.18.29.33.33,0,0,0,.23.31c.05,0,.25.09.56.19s.74.24,1,.34a2.25,2.25,0,0,1,.57.37,2.37,2.37,0,0,1,0,3.16,1.93,1.93,0,0,1-.73.45,2.64,2.64,0,0,1-1,.15,2.57,2.57,0,0,1-1.63-.48,1.49,1.49,0,0,1-.62-1.19,1.46,1.46,0,0,1,.44-1,1.42,1.42,0,0,1,.42.22,2,2,0,0,1,.43.33,1.41,1.41,0,0,0-.37.3.44.44,0,0,0-.11.3.86.86,0,0,0,.36.68,1.62,1.62,0,0,0,1,.29,1.73,1.73,0,0,0,1-.24.6.6,0,0,0,.25-.27.57.57,0,0,0,.1-.35.78.78,0,0,0-.37-.64,4,4,0,0,0-.85-.34,6.57,6.57,0,0,1-.95-.35,1.53,1.53,0,0,1-.5-.32,1.57,1.57,0,0,1-.56-1.25,1.46,1.46,0,0,1,.55-1.26,2.19,2.19,0,0,1,1.33-.36,2.71,2.71,0,0,1,1.11.21,1.36,1.36,0,0,1,.67.57"/>
    <path d="M177.89,41.06v-.93h.37a.42.42,0,0,1,.18,0,.22.22,0,0,1,.09.08.32.32,0,0,1,0,.14.24.24,0,0,1-.06.17.26.26,0,0,1-.17.09l.07,0a.62.62,0,0,1,.09.12l.14.25h-.14l-.11-.19a1.19,1.19,0,0,0-.1-.16l-.06-.05H178v.41h-.11m.11-.52h.24a.22.22,0,0,0,.12,0l.06-.05a.12.12,0,0,0,0-.09.16.16,0,0,0,0-.11.22.22,0,0,0-.13,0H178Z"/>
    <path d="M179.19,40.6h-.08a.85.85,0,1,1-.85-.85.86.86,0,0,1,.85.85h.15a1,1,0,1,0-1,1,1,1,0,0,0,1-1h-.07"/>
    <path d="M136.31,65.07l.83-.07a2.47,2.47,0,0,0,.3,1,1.74,1.74,0,0,0,.67.58,2.24,2.24,0,0,0,1,.22,1.82,1.82,0,0,0,1.22-.37,1.21,1.21,0,0,0,.43-1,1.09,1.09,0,0,0-.16-.61,1.14,1.14,0,0,0-.47-.42,8.87,8.87,0,0,0-1.37-.47,4.8,4.8,0,0,1-1.33-.54,1.87,1.87,0,0,1-.62-.69,2,2,0,0,1-.22-1,2,2,0,0,1,.63-1.55,2.41,2.41,0,0,1,1.71-.6,2.8,2.8,0,0,1,1.3.28,2.1,2.1,0,0,1,.86.81A2.76,2.76,0,0,1,141.4,62l-.84.07a1.64,1.64,0,0,0-.47-1.13,1.61,1.61,0,0,0-1.14-.37,1.81,1.81,0,0,0-1.15.32,1.05,1.05,0,0,0-.39.84.93.93,0,0,0,.29.74A3.42,3.42,0,0,0,139,63a8.49,8.49,0,0,1,1.38.45,2.15,2.15,0,0,1,.91.79,2.08,2.08,0,0,1,.31,1.17,2.44,2.44,0,0,1-.32,1.22,2.27,2.27,0,0,1-.89.85,2.93,2.93,0,0,1-1.35.28,2.54,2.54,0,0,1-2.72-2.67" style="fill: #fff"/>
    <path d="M142.68,67.61V59.78H144l1.57,5.54.32,1.16c.08-.28.19-.7.35-1.25l1.59-5.45H149v7.83h-.85V61.06l-1.92,6.55h-.79l-1.92-6.67v6.67h-.84" style="fill: #fff"/>
    <rect height="0.97" style="fill: #fff" width="2.5" x="149.95" y="64.29"/>
    <path d="M153.24,65.07l.83-.07a2.2,2.2,0,0,0,.3,1,1.74,1.74,0,0,0,.67.58,2.24,2.24,0,0,0,1,.22,1.77,1.77,0,0,0,1.21-.37,1.21,1.21,0,0,0,.44-1,1.08,1.08,0,0,0-.64-1,8.47,8.47,0,0,0-1.37-.47,5.09,5.09,0,0,1-1.33-.54,1.84,1.84,0,0,1-.61-.69,2,2,0,0,1-.23-1,2.06,2.06,0,0,1,.64-1.55,2.38,2.38,0,0,1,1.71-.6,2.79,2.79,0,0,1,1.29.28,2,2,0,0,1,.86.81,2.53,2.53,0,0,1,.33,1.25l-.83.07a1.45,1.45,0,0,0-1.62-1.5,1.78,1.78,0,0,0-1.14.32,1.05,1.05,0,0,0-.39.84,1,1,0,0,0,.28.74,3.59,3.59,0,0,0,1.29.52,7.85,7.85,0,0,1,1.38.45,2.18,2.18,0,0,1,.92.79,2.08,2.08,0,0,1,.31,1.17,2.35,2.35,0,0,1-.33,1.22,2.18,2.18,0,0,1-.88.85,3,3,0,0,1-1.35.28,2.66,2.66,0,0,1-2-.72,2.7,2.7,0,0,1-.76-2" style="fill: #fff"/>
    <path d="M159.29,65.53l.81-.12c.17,1,.6,1.54,1.29,1.54a1.25,1.25,0,0,0,1-.45,1.74,1.74,0,0,0,.41-1.19,1.6,1.6,0,0,0-.38-1.1,1.2,1.2,0,0,0-.92-.41,2,2,0,0,0-.57.1l.09-.84h.13a1.36,1.36,0,0,0,1-.36,1.42,1.42,0,0,0,.06-1.84,1,1,0,0,0-.77-.33,1.05,1.05,0,0,0-.79.35,1.92,1.92,0,0,0-.41,1.06l-.81-.17a2.54,2.54,0,0,1,.69-1.52,1.84,1.84,0,0,1,1.31-.51,1.81,1.81,0,0,1,1.36.58,2,2,0,0,1,.56,1.45,1.83,1.83,0,0,1-.24.94,1.65,1.65,0,0,1-.66.65,1.51,1.51,0,0,1,.65.35,1.57,1.57,0,0,1,.42.66,2.42,2.42,0,0,1,.16.91,2.49,2.49,0,0,1-.65,1.77,2.08,2.08,0,0,1-1.57.68,1.93,1.93,0,0,1-1.44-.6,2.46,2.46,0,0,1-.67-1.61" style="fill: #fff"/>
    <path d="M164.46,65.53l.81-.12c.17,1,.6,1.54,1.29,1.54a1.29,1.29,0,0,0,1-.45,1.74,1.74,0,0,0,.41-1.19,1.6,1.6,0,0,0-.38-1.1,1.22,1.22,0,0,0-.92-.41,1.9,1.9,0,0,0-.57.1l.09-.84h.13a1.34,1.34,0,0,0,1-.36,1.39,1.39,0,0,0,.06-1.84,1,1,0,0,0-.76-.33,1,1,0,0,0-.79.35,1.78,1.78,0,0,0-.41,1.06l-.82-.17a2.61,2.61,0,0,1,.7-1.52,1.91,1.91,0,0,1,2.67.07,2,2,0,0,1,.56,1.45,1.83,1.83,0,0,1-.24.94,1.68,1.68,0,0,1-.67.65,1.49,1.49,0,0,1,.66.35,1.79,1.79,0,0,1,.42.66,2.42,2.42,0,0,1,.16.91,2.46,2.46,0,0,1-.66,1.77,2.07,2.07,0,0,1-1.57.68,2,2,0,0,1-1.44-.6,2.51,2.51,0,0,1-.67-1.61" style="fill: #fff"/>
    <path d="M172.69,67.61h-.81V61.49a4.61,4.61,0,0,1-.75.65,5.23,5.23,0,0,1-.87.51v-.93a5,5,0,0,0,1.18-.91,3.61,3.61,0,0,0,.73-1.06h.52v7.86" style="fill: #fff"/>
    <path d="M174.87,60.81v-.93h4.28v.75a11.79,11.79,0,0,0-1.69,3.14,13.39,13.39,0,0,0-.84,3.84h-.83a11.26,11.26,0,0,1,.32-2.29,14.58,14.58,0,0,1,.84-2.49,11.1,11.1,0,0,1,1.15-2h-3.23" style="fill: #fff"/>
    <path d="M180,65.07l.84-.07a2.2,2.2,0,0,0,.3,1,1.67,1.67,0,0,0,.67.58,2.21,2.21,0,0,0,1,.22,1.79,1.79,0,0,0,1.21-.37,1.21,1.21,0,0,0,.43-1,1.09,1.09,0,0,0-.16-.61,1.14,1.14,0,0,0-.47-.42,8.87,8.87,0,0,0-1.37-.47,4.94,4.94,0,0,1-1.33-.54,1.87,1.87,0,0,1-.62-.69,2,2,0,0,1-.22-1,2,2,0,0,1,.64-1.55,2.38,2.38,0,0,1,1.71-.6,2.79,2.79,0,0,1,1.29.28,2,2,0,0,1,.86.81,2.53,2.53,0,0,1,.33,1.25l-.83.07a1.65,1.65,0,0,0-.48-1.13,1.61,1.61,0,0,0-1.14-.37,1.78,1.78,0,0,0-1.14.32,1,1,0,0,0-.4.84,1,1,0,0,0,.29.74,3.42,3.42,0,0,0,1.29.52,8.49,8.49,0,0,1,1.38.45,2,2,0,0,1,1.23,2,2.35,2.35,0,0,1-.33,1.22,2.21,2.21,0,0,1-.89.85,2.93,2.93,0,0,1-1.35.28,2.67,2.67,0,0,1-2-.72,2.74,2.74,0,0,1-.76-2" style="fill: #fff"/>
  </g>
  <g id="Connectors">
    <rect data-cir-type="female" data-name="circuitoCon Sig" height="2.89" id="circuitoCon_Sig" style="fill: none" width="2.89" x="2.5" y="63.82"/>
    <rect data-cir-color="red" data-cir-type="female" data-name="circuitoCon Vin" height="2.89" id="circuitoCon_Vin" style="fill: none" width="2.89" x="2.5" y="70.78"/>
    <rect data-cir-color="black" data-cir-type="female" data-name="circuitoCon 0" height="2.89" id="circuitoCon_0" style="fill: none" width="2.89" x="2.5" y="77.75"/>
  </g>
</svg>