<?xml version="1.0" ?><svg height="9.99mm" viewBox="0 0 283.61 28.32" width="100.05mm" xmlns="http://www.w3.org/2000/svg" xmlns:xlink="http://www.w3.org/1999/xlink">
  <defs>
    <linearGradient gradientUnits="userSpaceOnUse" id="linear-gradient" x1="2.35" x2="2.35" y1="6.16">
      <stop offset="0" stop-color="#cb9552"/>
      <stop offset="0.5" stop-color="#d7b189"/>
      <stop offset="0.84" stop-color="#ab6c2e"/>
      <stop offset="0.96" stop-color="#9c530d"/>
    </linearGradient>
    <linearGradient id="linear-gradient-2" x1="2.35" x2="2.35" xlink:href="#linear-gradient" y1="13.49" y2="7.33"/>
    <linearGradient id="linear-gradient-3" x1="2.35" x2="2.35" xlink:href="#linear-gradient" y1="20.82" y2="14.66"/>
    <linearGradient id="linear-gradient-4" x1="2.35" x2="2.35" xlink:href="#linear-gradient" y1="28.15" y2="22"/>
    <linearGradient gradientTransform="matrix(-1, 0, 0, 1, 219.88, -0.16)" id="linear-gradient-5" x1="80.32" x2="80.32" xlink:href="#linear-gradient" y1="6.39" y2="0.24"/>
    <linearGradient gradientTransform="matrix(-1, 0, 0, 1, 219.88, -0.16)" id="linear-gradient-6" x1="80.32" x2="80.32" xlink:href="#linear-gradient" y1="13.73" y2="7.57"/>
    <linearGradient gradientTransform="matrix(-1, 0, 0, 1, 219.88, -0.16)" id="linear-gradient-7" x1="80.32" x2="80.32" xlink:href="#linear-gradient" y1="21.06" y2="14.9"/>
    <linearGradient gradientTransform="matrix(-1, 0, 0, 1, 219.88, -0.16)" id="linear-gradient-8" x1="80.32" x2="80.32" xlink:href="#linear-gradient" y1="28.39" y2="22.23"/>
    <linearGradient gradientUnits="userSpaceOnUse" id="linear-gradient-9" x1="112.97" x2="115.6" y1="21.51" y2="21.51">
      <stop offset="0" stop-color="#e5e2df"/>
      <stop offset="0" stop-color="#ded9d6"/>
      <stop offset="0.27" stop-color="#e8e6e5"/>
      <stop offset="0.49" stop-color="#f3f4f4"/>
      <stop offset="0.58" stop-color="#e5e5e6"/>
      <stop offset="0.75" stop-color="#c0bec0"/>
      <stop offset="0.98" stop-color="#858085"/>
      <stop offset="1" stop-color="#807b80"/>
      <stop offset="1" stop-color="#d1d3d4"/>
    </linearGradient>
    <linearGradient id="linear-gradient-10" x1="117.45" x2="120.07" xlink:href="#linear-gradient-9" y1="21.58" y2="21.58"/>
    <linearGradient id="linear-gradient-11" x1="121.92" x2="124.55" xlink:href="#linear-gradient-9" y1="21.58" y2="21.58"/>
    <linearGradient id="linear-gradient-12" x1="112.97" x2="115.6" xlink:href="#linear-gradient-9" y1="6.62" y2="6.62"/>
    <linearGradient id="linear-gradient-13" x1="117.45" x2="120.07" xlink:href="#linear-gradient-9" y1="6.69" y2="6.69"/>
    <linearGradient id="linear-gradient-14" x1="121.92" x2="124.55" xlink:href="#linear-gradient-9" y1="6.69" y2="6.69"/>
    <linearGradient id="linear-gradient-15" x1="65.14" x2="67.76" xlink:href="#linear-gradient-9" y1="21.51" y2="21.51"/>
    <linearGradient id="linear-gradient-16" x1="69.61" x2="72.24" xlink:href="#linear-gradient-9" y1="21.58" y2="21.58"/>
    <linearGradient id="linear-gradient-17" x1="74.09" x2="76.71" xlink:href="#linear-gradient-9" y1="21.58" y2="21.58"/>
    <linearGradient id="linear-gradient-18" x1="65.14" x2="67.76" xlink:href="#linear-gradient-9" y1="6.62" y2="6.62"/>
    <linearGradient id="linear-gradient-19" x1="69.61" x2="72.24" xlink:href="#linear-gradient-9" y1="6.69" y2="6.69"/>
    <linearGradient id="linear-gradient-20" x1="74.09" x2="76.71" xlink:href="#linear-gradient-9" y1="6.69" y2="6.69"/>
    <linearGradient id="linear-gradient-21" x1="17.4" x2="20.03" xlink:href="#linear-gradient-9" y1="21.51" y2="21.51"/>
    <linearGradient id="linear-gradient-22" x1="21.88" x2="24.5" xlink:href="#linear-gradient-9" y1="21.58" y2="21.58"/>
    <linearGradient id="linear-gradient-23" x1="26.35" x2="28.98" xlink:href="#linear-gradient-9" y1="21.58" y2="21.58"/>
    <linearGradient id="linear-gradient-24" x1="17.4" x2="20.03" xlink:href="#linear-gradient-9" y1="6.62" y2="6.62"/>
    <linearGradient id="linear-gradient-25" x1="21.88" x2="24.5" xlink:href="#linear-gradient-9" y1="6.69" y2="6.69"/>
    <linearGradient id="linear-gradient-26" x1="26.35" x2="28.98" xlink:href="#linear-gradient-9" y1="6.69" y2="6.69"/>
    <linearGradient id="linear-gradient-27" x1="144.12" x2="144.12" xlink:href="#linear-gradient" y1="6.25" y2="0.09"/>
    <linearGradient id="linear-gradient-28" x1="144.12" x2="144.12" xlink:href="#linear-gradient" y1="13.58" y2="7.42"/>
    <linearGradient id="linear-gradient-29" x1="144.12" x2="144.12" xlink:href="#linear-gradient" y1="20.91" y2="14.76"/>
    <linearGradient id="linear-gradient-30" x1="144.12" x2="144.12" xlink:href="#linear-gradient" y1="28.25" y2="22.09"/>
    <linearGradient gradientTransform="matrix(-1, 0, 0, 1, 219.88, -0.16)" id="linear-gradient-31" x1="-61.45" x2="-61.45" xlink:href="#linear-gradient" y1="6.49" y2="0.33"/>
    <linearGradient gradientTransform="matrix(-1, 0, 0, 1, 219.88, -0.16)" id="linear-gradient-32" x1="-61.45" x2="-61.45" xlink:href="#linear-gradient" y1="13.82" y2="7.66"/>
    <linearGradient gradientTransform="matrix(-1, 0, 0, 1, 219.88, -0.16)" id="linear-gradient-33" x1="-61.45" x2="-61.45" xlink:href="#linear-gradient" y1="21.15" y2="14.99"/>
    <linearGradient gradientTransform="matrix(-1, 0, 0, 1, 219.88, -0.16)" id="linear-gradient-34" x1="-61.45" x2="-61.45" xlink:href="#linear-gradient" y1="28.48" y2="22.32"/>
    <linearGradient id="linear-gradient-35" x1="254.73" x2="257.36" xlink:href="#linear-gradient-9" y1="21.6" y2="21.6"/>
    <linearGradient id="linear-gradient-36" x1="259.21" x2="261.83" xlink:href="#linear-gradient-9" y1="21.67" y2="21.67"/>
    <linearGradient id="linear-gradient-37" x1="263.68" x2="266.31" xlink:href="#linear-gradient-9" y1="21.67" y2="21.67"/>
    <linearGradient id="linear-gradient-38" x1="254.73" x2="257.36" xlink:href="#linear-gradient-9" y1="6.71" y2="6.71"/>
    <linearGradient id="linear-gradient-39" x1="259.21" x2="261.83" xlink:href="#linear-gradient-9" y1="6.78" y2="6.78"/>
    <linearGradient id="linear-gradient-40" x1="263.68" x2="266.31" xlink:href="#linear-gradient-9" y1="6.78" y2="6.78"/>
    <linearGradient id="linear-gradient-41" x1="206.9" x2="209.53" xlink:href="#linear-gradient-9" y1="21.6" y2="21.6"/>
    <linearGradient id="linear-gradient-42" x1="211.37" x2="214" xlink:href="#linear-gradient-9" y1="21.67" y2="21.67"/>
    <linearGradient id="linear-gradient-43" x1="215.85" x2="218.48" xlink:href="#linear-gradient-9" y1="21.67" y2="21.67"/>
    <linearGradient id="linear-gradient-44" x1="206.9" x2="209.53" xlink:href="#linear-gradient-9" y1="6.71" y2="6.71"/>
    <linearGradient id="linear-gradient-45" x1="211.37" x2="214" xlink:href="#linear-gradient-9" y1="6.78" y2="6.78"/>
    <linearGradient id="linear-gradient-46" x1="215.85" x2="218.48" xlink:href="#linear-gradient-9" y1="6.78" y2="6.78"/>
    <linearGradient id="linear-gradient-47" x1="159.17" x2="161.79" xlink:href="#linear-gradient-9" y1="21.6" y2="21.6"/>
    <linearGradient id="linear-gradient-48" x1="163.64" x2="166.27" xlink:href="#linear-gradient-9" y1="21.67" y2="21.67"/>
    <linearGradient id="linear-gradient-49" x1="168.12" x2="170.74" xlink:href="#linear-gradient-9" y1="21.67" y2="21.67"/>
    <linearGradient id="linear-gradient-50" x1="159.17" x2="161.79" xlink:href="#linear-gradient-9" y1="6.71" y2="6.71"/>
    <linearGradient id="linear-gradient-51" x1="163.64" x2="166.27" xlink:href="#linear-gradient-9" y1="6.78" y2="6.78"/>
    <linearGradient id="linear-gradient-52" x1="168.12" x2="170.74" xlink:href="#linear-gradient-9" y1="6.78" y2="6.78"/>
    <linearGradient id="linear-gradient-53" x1="39.88" x2="43.52" xlink:href="#linear-gradient-9" y1="14.56" y2="14.56"/>
    <linearGradient gradientUnits="userSpaceOnUse" id="linear-gradient-54" x1="39.88" x2="43.52" y1="14.51" y2="14.51">
      <stop offset="0" stop-color="#323232"/>
      <stop offset="0.5" stop-color="#919191"/>
      <stop offset="1" stop-color="#1a1a1a"/>
    </linearGradient>
    <linearGradient id="linear-gradient-55" x1="50.24" x2="53.89" xlink:href="#linear-gradient-9" y1="14.55" y2="14.55"/>
    <linearGradient id="linear-gradient-56" x1="50.24" x2="53.89" xlink:href="#linear-gradient-54" y1="14.49" y2="14.49"/>
    <linearGradient id="linear-gradient-57" x1="92.9" x2="96.54" xlink:href="#linear-gradient-9" y1="14.05" y2="14.05"/>
    <linearGradient id="linear-gradient-58" x1="92.9" x2="96.54" xlink:href="#linear-gradient-54" y1="13.99" y2="13.99"/>
    <linearGradient id="linear-gradient-59" x1="181.75" x2="185.39" xlink:href="#linear-gradient-9" y1="14.74" y2="14.74"/>
    <linearGradient id="linear-gradient-60" x1="181.75" x2="185.39" xlink:href="#linear-gradient-54" y1="14.68" y2="14.68"/>
    <linearGradient id="linear-gradient-61" x1="192.01" x2="195.65" xlink:href="#linear-gradient-9" y1="14.88" y2="14.88"/>
    <linearGradient id="linear-gradient-62" x1="192.01" x2="195.65" xlink:href="#linear-gradient-54" y1="14.83" y2="14.83"/>
    <linearGradient id="linear-gradient-63" x1="234.66" x2="238.3" xlink:href="#linear-gradient-9" y1="14.38" y2="14.38"/>
    <linearGradient id="linear-gradient-64" x1="234.66" x2="238.3" xlink:href="#linear-gradient-54" y1="14.33" y2="14.33"/>
  </defs>
  <title>LED RGB Strip - Bare (1m)</title>
  <g data-name="Layer 4" id="Layer_4">
    <g data-name="Layer 1" id="Layer_1">
      <g>
        <rect height="28.1" style="fill: #c7c6c5" width="141.84"/>
        <rect height="27.84" style="fill: #ededee" width="141.84" y="0.13"/>
        <g>
          <g>
            <path d="M111.28,22h-1.94V6h2.1a.23.23,0,0,1,0,.45h-1.65V21.6h1.49a.23.23,0,1,1,0,.45Z" style="fill: #585856"/>
            <path d="M127.82,22h-1.94a.23.23,0,0,1,0-.45h1.49V6.5h-1.65a.23.23,0,0,1,0-.45h2.1Z" style="fill: #585856"/>
          </g>
          <g>
            <path d="M63.5,22H61.56V6h2.1a.23.23,0,1,1,0,.45H62V21.6H63.5a.23.23,0,1,1,0,.45Z" style="fill: #585856"/>
            <path d="M80,22H78.1a.23.23,0,0,1,0-.45h1.49V6.5H77.94a.23.23,0,1,1,0-.45H80Z" style="fill: #585856"/>
          </g>
          <g>
            <path d="M15.72,22H13.77V6h2.1a.23.23,0,1,1,0,.45H14.23V21.6h1.49a.23.23,0,0,1,0,.45Z" style="fill: #585856"/>
            <path d="M32.26,22H30.31a.23.23,0,1,1,0-.45h1.49V6.5H30.16a.23.23,0,0,1,0-.45h2.1Z" style="fill: #585856"/>
          </g>
        </g>
        <g>
          <path d="M4.63,3.08A3.08,3.08,0,0,1,1.55,6.16H.07V0H1.55A3.08,3.08,0,0,1,4.63,3.08Z" style="fill: url(#linear-gradient)"/>
          <path d="M4.63,10.41a3.08,3.08,0,0,1-3.08,3.08H.07V7.33H1.55A3.08,3.08,0,0,1,4.63,10.41Z" style="fill: url(#linear-gradient-2)"/>
          <path d="M4.63,17.74a3.08,3.08,0,0,1-3.08,3.08H.07V14.66H1.55A3.08,3.08,0,0,1,4.63,17.74Z" style="fill: url(#linear-gradient-3)"/>
          <path d="M4.63,25.08a3.08,3.08,0,0,1-3.08,3.08H.07V22H1.55A3.08,3.08,0,0,1,4.63,25.08Z" style="fill: url(#linear-gradient-4)"/>
        </g>
        <g>
          <path d="M137.28,3.15a3.08,3.08,0,0,0,3.08,3.08h1.48V.07h-1.48A3.08,3.08,0,0,0,137.28,3.15Z" style="fill: url(#linear-gradient-5)"/>
          <path d="M137.28,10.48a3.08,3.08,0,0,0,3.08,3.08h1.48V7.4h-1.48A3.08,3.08,0,0,0,137.28,10.48Z" style="fill: url(#linear-gradient-6)"/>
          <path d="M137.28,17.82a3.08,3.08,0,0,0,3.08,3.08h1.48V14.74h-1.48A3.08,3.08,0,0,0,137.28,17.82Z" style="fill: url(#linear-gradient-7)"/>
          <path d="M137.28,25.15a3.08,3.08,0,0,0,3.08,3.08h1.48V22.07h-1.48A3.08,3.08,0,0,0,137.28,25.15Z" style="fill: url(#linear-gradient-8)"/>
        </g>
        <g>
          <path d="M3.44,16.71c-.51-.88-1.33-1.33-1.87-1l-.11.08-.27-.56C1,14.83.8,14.43.59,14c.56-1.13,1.09-2.27,1.47-3.14s.87-2.29.87-2.29l-.16-.08s-.88,1.22-1.38,2C1,11.1.64,11.8.22,12.55V0H0V28.1H.22V15.59l0,.09c.28.52.57,1,.82,1.4.12.18.23.36.33.5l.12.23A2,2,0,0,0,3,18.93a.71.71,0,0,0,.37-.09.81.81,0,0,0,.37-.51A2.24,2.24,0,0,0,3.44,16.71ZM3.32,18.2a.36.36,0,0,1-.15.23c-.17.09-.48,0-.78-.3a2.29,2.29,0,0,1-.44-.56,1.82,1.82,0,0,1-.28-1.25l0-.06a.33.33,0,0,1,.13-.17.3.3,0,0,1,.14,0A1.59,1.59,0,0,1,3,17,1.82,1.82,0,0,1,3.32,18.2Z" style="fill: #585856"/>
          <path d="M141.62,0V12.55c-.41-.74-.82-1.44-1.17-2-.5-.81-1.38-2-1.38-2l-.16.08s.49,1.42.87,2.29.91,2,1.47,3.14c-.21.4-.42.8-.61,1.18l-.27.56-.11-.08c-.54-.31-1.36.14-1.87,1a2.24,2.24,0,0,0-.33,1.61.82.82,0,0,0,.37.51.71.71,0,0,0,.37.09,2,2,0,0,0,1.49-1.12l.12-.23c.1-.15.21-.32.33-.5.25-.4.54-.87.82-1.4l0-.09V28.1h.22V0Zm-1.73,17.58a2.29,2.29,0,0,1-.44.56c-.3.28-.61.39-.78.3a.36.36,0,0,1-.15-.23A1.82,1.82,0,0,1,138.8,17a1.59,1.59,0,0,1,1.08-.89.3.3,0,0,1,.14,0,.32.32,0,0,1,.13.17l0,.06A1.82,1.82,0,0,1,139.89,17.58Z" style="fill: #585856"/>
        </g>
        <g>
          <g>
            <path d="M45.94,12.13a.23.23,0,0,1-.23-.23V6.25H37.79V11.9a.23.23,0,1,1-.45,0V5.8h8.83v6.1A.23.23,0,0,1,45.94,12.13Z" style="fill: #585856"/>
            <path d="M46.17,23.33H37.34v-6.1a.23.23,0,1,1,.45,0v5.65h7.93V17.23a.23.23,0,1,1,.45,0Z" style="fill: #585856"/>
          </g>
          <g>
            <path d="M56.31,12.13a.23.23,0,0,1-.23-.23V6.25H48.16V11.9a.23.23,0,1,1-.45,0V5.8h8.83v6.1A.23.23,0,0,1,56.31,12.13Z" style="fill: #585856"/>
            <path d="M56.53,23.33H47.71v-6.1a.23.23,0,1,1,.45,0v5.65h7.93V17.23a.23.23,0,1,1,.45,0Z" style="fill: #585856"/>
          </g>
          <g>
            <path d="M98.91,11.68a.23.23,0,0,1-.23-.23V5.81H90.75v5.65a.23.23,0,1,1-.45,0V5.36h8.83v6.1A.23.23,0,0,1,98.91,11.68Z" style="fill: #585856"/>
            <path d="M99.13,22.89H90.3v-6.1a.23.23,0,1,1,.45,0v5.65h7.93V16.78a.23.23,0,1,1,.45,0Z" style="fill: #585856"/>
          </g>
        </g>
      </g>
    </g>
    <g id="Text">
      <g>
        <path d="M5.78,4.1h.59V1.84H5.79a.19.19,0,1,1,0-.38h1V4.1h.38V3.3a.19.19,0,0,1,.06-.13.18.18,0,0,1,.14-.06.19.19,0,0,1,.19.19v1a.19.19,0,0,1-.19.19H5.78a.18.18,0,0,1-.14-.06.19.19,0,0,1-.06-.14.18.18,0,0,1,.06-.13A.19.19,0,0,1,5.78,4.1Z" style="fill: #585856"/>
        <path d="M10.16,4.48H8.42V3.16a.37.37,0,0,1,.11-.27.37.37,0,0,1,.27-.11H10V1.84H8.6a.19.19,0,0,1-.14-.06.2.2,0,0,1,0-.27.19.19,0,0,1,.14-.06H10a.38.38,0,0,1,.27.11.37.37,0,0,1,.11.27v.93a.37.37,0,0,1-.11.27.38.38,0,0,1-.27.11H8.8V4.1h1.36a.19.19,0,0,1,.13.06.19.19,0,0,1,0,.27A.19.19,0,0,1,10.16,4.48Z" style="fill: #585856"/>
        <path d="M13.18,1.65v.7l-.78,2a.2.2,0,0,1-.38,0l-.78-2v-.7a.19.19,0,0,1,.06-.14.18.18,0,0,1,.14-.06.19.19,0,0,1,.14.06.19.19,0,0,1,.06.14v.62l.58,1.49.58-1.48V1.65a.19.19,0,0,1,.06-.14A.19.19,0,0,1,13,1.46a.18.18,0,0,1,.14.06A.19.19,0,0,1,13.18,1.65Z" style="fill: #585856"/>
        <path d="M14.83,2.77V2.19a.18.18,0,0,1,.06-.13A.19.19,0,0,1,15,2a.19.19,0,0,1,.19.19v.59h.59a.19.19,0,0,1,.14.06.19.19,0,0,1,0,.27.19.19,0,0,1-.14.06h-.58v.59a.19.19,0,0,1-.06.14.19.19,0,0,1-.14.06.18.18,0,0,1-.14-.06.19.19,0,0,1-.06-.14V3.16h-.59a.19.19,0,0,1,0-.38Z" style="fill: #585856"/>
      </g>
      <path d="M6.71,8.83h.64A.19.19,0,0,1,7.54,9a.18.18,0,0,1-.06.14.19.19,0,0,1-.13.06H6.74a.19.19,0,0,0-.16.08L6,10a.34.34,0,0,0-.07.23v1.06a.19.19,0,0,0,.06.14.18.18,0,0,0,.14.06H7a.19.19,0,0,0,.19-.19v-.42h-.4a.18.18,0,0,1-.14-.06.2.2,0,0,1,0-.27.18.18,0,0,1,.14-.06h.78v.8a.58.58,0,0,1-.57.57H6.17a.56.56,0,0,1-.41-.17.55.55,0,0,1-.17-.41V10.22a.76.76,0,0,1,.15-.48L6.31,9a.53.53,0,0,1,.4-.2Z" style="fill: #585856"/>
      <path d="M5.61,19V16.19H7a.55.55,0,0,1,.4.17.56.56,0,0,1,.17.41V17a.56.56,0,0,1-.17.41.55.55,0,0,1-.41.17H6.72l.78,1.35a.22.22,0,0,1,0,.12.18.18,0,0,1-.06.13.19.19,0,0,1-.13.06.19.19,0,0,1-.17-.1l-.9-1.55H6V19a.18.18,0,0,1-.06.14.19.19,0,0,1-.14.06A.19.19,0,0,1,5.61,19ZM6,17.19H7A.19.19,0,0,0,7.15,17v-.22A.19.19,0,0,0,7,16.58H6Z" style="fill: #585856"/>
      <path d="M7.53,25.65v.17a.75.75,0,0,1-.22.54.73.73,0,0,1-.54.23H5.59v-3H6.76a.74.74,0,0,1,.54.23.74.74,0,0,1,.22.54v.16a.76.76,0,0,1-.26.58A.76.76,0,0,1,7.53,25.65Zm-.39-1.16v-.16A.37.37,0,0,0,7,24.06a.37.37,0,0,0-.27-.11H6v.93h.78a.39.39,0,0,0,.38-.38Zm0,1.33v-.16A.37.37,0,0,0,7,25.38a.37.37,0,0,0-.27-.11H6v.93h.78a.39.39,0,0,0,.38-.38Z" style="fill: #585856"/>
      <g>
        <path d="M126.15,4.14h.59V1.88h-.58a.19.19,0,1,1,0-.38h1V4.14h.38v-.8a.19.19,0,0,1,.06-.13.18.18,0,0,1,.14-.06.19.19,0,0,1,.19.19v1a.19.19,0,0,1-.19.19h-1.55a.18.18,0,0,1-.14-.06.19.19,0,0,1-.06-.14.18.18,0,0,1,.06-.13A.19.19,0,0,1,126.15,4.14Z" style="fill: #585856"/>
        <path d="M130.53,4.52h-1.74V3.2a.37.37,0,0,1,.11-.27.37.37,0,0,1,.27-.11h1.16V1.88H129a.19.19,0,0,1-.14-.06.2.2,0,0,1,0-.27A.19.19,0,0,1,129,1.5h1.37a.38.38,0,0,1,.27.11.37.37,0,0,1,.11.27v.93a.37.37,0,0,1-.11.27.38.38,0,0,1-.27.11h-1.16v.94h1.36a.19.19,0,0,1,.13.06.19.19,0,0,1,0,.27A.19.19,0,0,1,130.53,4.52Z" style="fill: #585856"/>
        <path d="M133.55,1.69v.7l-.78,2a.2.2,0,0,1-.38,0l-.78-2v-.7a.19.19,0,0,1,.06-.14.18.18,0,0,1,.14-.06.19.19,0,0,1,.14.06.19.19,0,0,1,.06.14v.62l.58,1.49.58-1.48V1.69a.19.19,0,0,1,.06-.14.19.19,0,0,1,.14-.06.18.18,0,0,1,.14.06A.19.19,0,0,1,133.55,1.69Z" style="fill: #585856"/>
        <path d="M135.2,2.81V2.22a.18.18,0,0,1,.06-.13A.19.19,0,0,1,135.4,2a.19.19,0,0,1,.19.19v.59h.59a.19.19,0,0,1,.14.06.19.19,0,0,1,0,.27.19.19,0,0,1-.14.06h-.58v.59a.19.19,0,0,1-.06.14.19.19,0,0,1-.14.06.18.18,0,0,1-.14-.06.19.19,0,0,1-.06-.14V3.2h-.59a.19.19,0,0,1,0-.38Z" style="fill: #585856"/>
      </g>
      <path d="M135.54,8.86h.64a.19.19,0,0,1,.19.19.18.18,0,0,1-.06.14.19.19,0,0,1-.13.06h-.61a.19.19,0,0,0-.16.08l-.54.69a.34.34,0,0,0-.07.23v1.06a.19.19,0,0,0,.06.14.18.18,0,0,0,.14.06h.78a.19.19,0,0,0,.19-.19V10.9h-.4a.18.18,0,0,1-.14-.06.2.2,0,0,1,0-.27.18.18,0,0,1,.14-.06h.78v.8a.58.58,0,0,1-.57.57H135a.56.56,0,0,1-.41-.17.55.55,0,0,1-.17-.41V10.26a.76.76,0,0,1,.15-.48l.57-.72a.53.53,0,0,1,.4-.2Z" style="fill: #585856"/>
      <path d="M134.43,19.07V16.23h1.35a.55.55,0,0,1,.4.17.56.56,0,0,1,.17.41V17a.56.56,0,0,1-.17.41.55.55,0,0,1-.41.17h-.24l.78,1.35a.22.22,0,0,1,0,.12.18.18,0,0,1-.06.13.19.19,0,0,1-.13.06.19.19,0,0,1-.17-.1l-.9-1.55h-.28v1.46a.18.18,0,0,1-.06.14.19.19,0,0,1-.14.06.19.19,0,0,1-.19-.19Zm.38-1.84h1A.19.19,0,0,0,136,17v-.22a.19.19,0,0,0-.19-.19h-1Z" style="fill: #585856"/>
      <path d="M136.36,25.69v.17a.75.75,0,0,1-.22.54.73.73,0,0,1-.54.23h-1.17v-3h1.17a.74.74,0,0,1,.54.23.74.74,0,0,1,.22.54v.16a.76.76,0,0,1-.26.58A.76.76,0,0,1,136.36,25.69ZM136,24.52v-.16a.37.37,0,0,0-.11-.27.37.37,0,0,0-.27-.11h-.78v.93h.78a.39.39,0,0,0,.38-.38Zm0,1.33v-.16a.37.37,0,0,0-.11-.27.37.37,0,0,0-.27-.11h-.78v.93h.78a.39.39,0,0,0,.38-.38Z" style="fill: #585856"/>
    </g>
    <g id="Leds">
      <g>
        <g>
          <rect height="4.48" rx="1.3" ry="1.3" style="fill: url(#linear-gradient-9)" width="2.63" x="112.97" y="19.27"/>
          <rect height="4.48" rx="1.3" ry="1.3" style="fill: url(#linear-gradient-10)" width="2.63" x="117.45" y="19.34"/>
          <rect height="4.48" rx="1.3" ry="1.3" style="fill: url(#linear-gradient-11)" width="2.63" x="121.92" y="19.34"/>
        </g>
        <g>
          <rect height="4.48" rx="1.3" ry="1.3" style="fill: url(#linear-gradient-12)" width="2.63" x="112.97" y="4.38"/>
          <rect height="4.48" rx="1.3" ry="1.3" style="fill: url(#linear-gradient-13)" width="2.63" x="117.45" y="4.45"/>
          <rect height="4.48" rx="1.3" ry="1.3" style="fill: url(#linear-gradient-14)" width="2.63" x="121.92" y="4.45"/>
        </g>
        <rect height="15.79" style="fill: #d4d4d4" width="15.66" x="110.78" y="6.31"/>
        <polygon points="111.11 6.54 111.11 19.48 113.17 21.74 126.19 21.74 126.39 21.5 126.39 6.54 111.11 6.54" style="fill: #ededee"/>
        <path d="M117,10.86l-.36-.06a3.93,3.93,0,0,0-.89,0,.42.42,0,0,1-.23-.16.45.45,0,0,1,0-.48,5.05,5.05,0,0,0-1.94,3.26l2.8.11.74-.92Z" style="fill: #87909e"/>
        <path d="M115.8,14.51l-2.25-.05A4.62,4.62,0,0,0,115.32,18V16.9a.28.28,0,0,1,.08-.2.26.26,0,0,1,.11-.06H116V14.72a.49.49,0,0,0-.23-.22Z" style="fill: #87909e"/>
        <path d="M116.54,18.82a4.71,4.71,0,0,0,4.24-.06V17.22h-4.32Z" style="fill: #87909e"/>
        <path d="M121.4,14.45a.3.3,0,0,0-.15.12.29.29,0,0,0,0,.14l-.09,1.93.55,0a.19.19,0,0,1,.12.06.19.19,0,0,1,0,.16l0,1.07.08,0a4.52,4.52,0,0,0,1.37-1.92,4.46,4.46,0,0,0,.27-1.66Z" style="fill: #87909e"/>
        <path d="M123.12,11.68a4.48,4.48,0,0,0-1.26-1.51v.42l-.21.21h-1.17l-.28.31V12.8l.67.69h2.74A4.47,4.47,0,0,0,123.12,11.68Z" style="fill: #87909e"/>
        <path d="M117.13,9.82a.91.91,0,0,1,.63.36.7.7,0,0,1,.08.17v3.56a.29.29,0,0,1-.11.22.27.27,0,0,1-.15.05h-.76v2.15a.59.59,0,0,0,.19.25h3.1a.26.26,0,0,0,.14,0,.32.32,0,0,0,.14-.25V14.23h-.8a.31.31,0,0,1-.15-.08.32.32,0,0,1-.09-.19v-3.5a.47.47,0,0,1,.37-.48l.47-.14,0-.47a4.89,4.89,0,0,0-3.09-.11.42.42,0,0,0-.14.36A.37.37,0,0,0,117.13,9.82Z" style="fill: #87909e"/>
        <circle cx="121.34" cy="12.49" r="0.72" style="fill: #dbdbd7"/>
        <circle cx="116.03" cy="12.64" r="0.72" style="fill: #dbdbd7"/>
        <circle cx="118.56" cy="15.73" r="0.72" style="fill: #dbdbd7"/>
        <rect height="0.81" style="fill: #843c39;stroke: #010101;stroke-miterlimit: 10;stroke-width: 0.1px" width="0.7" x="118.12" y="15.28"/>
        <path d="M118.63,7.71a6.4,6.4,0,1,0,6.4,6.4A6.4,6.4,0,0,0,118.63,7.71Zm-1.46,1.55a4.89,4.89,0,0,1,3.09.11l0,.47-.47.14a.47.47,0,0,0-.37.48V14a.32.32,0,0,0,.09.19.31.31,0,0,0,.15.08h.8V16.3a.32.32,0,0,1-.14.25.26.26,0,0,1-.14,0H117a.59.59,0,0,1-.19-.25V14.18h.76a.27.27,0,0,0,.15-.05.29.29,0,0,0,.11-.22V10.35a.7.7,0,0,0-.08-.17.91.91,0,0,0-.63-.36.37.37,0,0,1-.1-.2A.42.42,0,0,1,117.16,9.26ZM116,16.55v.09h-.52a.26.26,0,0,0-.11.06.28.28,0,0,0-.08.2V18a4.62,4.62,0,0,1-1.77-3.58l2.25.05a.49.49,0,0,1,.23.22Zm-2.48-3.13a5.05,5.05,0,0,1,1.94-3.26.45.45,0,0,0,0,.48.42.42,0,0,0,.23.16,3.93,3.93,0,0,1,.89,0l.36.06.12,1.75-.74.92Zm7.22,5.34a4.71,4.71,0,0,1-4.24.06l-.08-1.61h4.32Zm-.58-6V11.11l.28-.31h1.17l.21-.21v-.42a4.46,4.46,0,0,1,1.74,3.32h-2.74Zm3.13,3.27A4.52,4.52,0,0,1,122,18l-.08,0,0-1.07a.19.19,0,0,0,0-.16.19.19,0,0,0-.12-.06l-.55,0,.09-1.93a.29.29,0,0,1,0-.14.3.3,0,0,1,.15-.12l2.2,0A4.46,4.46,0,0,1,123.34,16.07Z" style="fill: #ccc8c3"/>
        <circle cx="115.75" cy="12.36" r="0.18" style="fill: #010101"/>
        <circle cx="116.18" cy="12.93" r="0.18" style="fill: #010101"/>
        <circle cx="121.09" cy="12.26" r="0.18" style="fill: #010101"/>
        <circle cx="121.56" cy="12.85" r="0.18" style="fill: #010101"/>
        <circle cx="115.16" cy="11.12" r="0.14" style="fill: #c6b38c"/>
        <circle cx="115.75" cy="12.36" r="0.13" style="fill: #c6b38c"/>
        <circle cx="116.18" cy="12.93" r="0.13" style="fill: #c6b38c"/>
        <circle cx="115.62" cy="15.02" r="0.13" style="fill: #c6b38c"/>
        <circle cx="118.75" cy="17.68" r="0.13" style="fill: #c6b38c"/>
        <circle cx="118.43" cy="15.67" r="0.13" style="fill: #c6b38c"/>
        <circle cx="121.63" cy="15.02" r="0.13" style="fill: #c6b38c"/>
        <circle cx="121.09" cy="12.26" r="0.13" style="fill: #c6b38c"/>
        <circle cx="121.56" cy="12.85" r="0.13" style="fill: #c6b38c"/>
        <circle cx="122.14" cy="11.12" r="0.13" style="fill: #c6b38c"/>
        <line style="fill: none;stroke: #c6b38c;stroke-miterlimit: 10;stroke-width: 0.045354329049587px" x1="115.17" x2="115.8" y1="11.18" y2="12.27"/>
        <polyline points="116.15 12.96 115.92 13.35 115.68 14.97" style="fill: none;stroke: #c6b38c;stroke-miterlimit: 10;stroke-width: 0.045354329049587px"/>
        <line style="fill: none;stroke: #c6b38c;stroke-miterlimit: 10;stroke-width: 0.045354329049587px" x1="118.45" x2="118.78" y1="15.73" y2="17.65"/>
        <line style="fill: none;stroke: #c6b38c;stroke-miterlimit: 10;stroke-width: 0.030047243461013px" x1="118.43" x2="118.21" y1="15.67" y2="15.89"/>
        <line style="fill: none;stroke: #c6b38c;stroke-miterlimit: 10;stroke-width: 0.030047243461013px" x1="118.49" x2="118.68" y1="15.64" y2="15.45"/>
        <polyline points="118.46 15.67 118.7 15.91 118.21 15.42" style="fill: none;stroke: #c6b38c;stroke-miterlimit: 10;stroke-width: 0.030047243461013px"/>
        <polyline points="121.6 12.87 121.66 14.97 121.56 12.82" style="fill: none;stroke: #c6b38c;stroke-miterlimit: 10;stroke-width: 0.045354329049587px"/>
        <line style="fill: none;stroke: #c6b38c;stroke-miterlimit: 10;stroke-width: 0.045354329049587px" x1="122.12" x2="121.04" y1="11.12" y2="12.23"/>
      </g>
      <g>
        <g>
          <rect height="4.48" rx="1.3" ry="1.3" style="fill: url(#linear-gradient-15)" width="2.63" x="65.14" y="19.27"/>
          <rect height="4.48" rx="1.3" ry="1.3" style="fill: url(#linear-gradient-16)" width="2.63" x="69.61" y="19.34"/>
          <rect height="4.48" rx="1.3" ry="1.3" style="fill: url(#linear-gradient-17)" width="2.63" x="74.09" y="19.34"/>
        </g>
        <g>
          <rect height="4.48" rx="1.3" ry="1.3" style="fill: url(#linear-gradient-18)" width="2.63" x="65.14" y="4.38"/>
          <rect height="4.48" rx="1.3" ry="1.3" style="fill: url(#linear-gradient-19)" width="2.63" x="69.61" y="4.45"/>
          <rect height="4.48" rx="1.3" ry="1.3" style="fill: url(#linear-gradient-20)" width="2.63" x="74.09" y="4.45"/>
        </g>
        <rect height="15.79" style="fill: #d4d4d4" width="15.66" x="62.95" y="6.31"/>
        <polygon points="63.27 6.54 63.27 19.48 65.33 21.74 78.36 21.74 78.55 21.5 78.55 6.54 63.27 6.54" style="fill: #ededee"/>
        <path d="M69.13,10.86l-.36-.06a3.93,3.93,0,0,0-.89,0,.42.42,0,0,1-.23-.16.45.45,0,0,1,0-.48,5.05,5.05,0,0,0-1.94,3.26l2.8.11.74-.92Z" style="fill: #87909e"/>
        <path d="M68,14.51l-2.25-.05A4.62,4.62,0,0,0,67.49,18V16.9a.28.28,0,0,1,.08-.2.26.26,0,0,1,.11-.06h.52V14.72a.49.49,0,0,0-.23-.22Z" style="fill: #87909e"/>
        <path d="M68.7,18.82a4.71,4.71,0,0,0,4.24-.06V17.22H68.62Z" style="fill: #87909e"/>
        <path d="M73.57,14.45a.3.3,0,0,0-.15.12.29.29,0,0,0,0,.14l-.09,1.93.55,0a.19.19,0,0,1,.12.06.19.19,0,0,1,0,.16l0,1.07.08,0a4.52,4.52,0,0,0,1.37-1.92,4.46,4.46,0,0,0,.27-1.66Z" style="fill: #87909e"/>
        <path d="M75.29,11.68A4.48,4.48,0,0,0,74,10.17v.42l-.21.21H72.65l-.28.31V12.8l.67.69h2.74A4.47,4.47,0,0,0,75.29,11.68Z" style="fill: #87909e"/>
        <path d="M69.29,9.82a.91.91,0,0,1,.63.36.7.7,0,0,1,.08.17v3.56a.29.29,0,0,1-.11.22.27.27,0,0,1-.15.05H69v2.15a.59.59,0,0,0,.19.25h3.1a.26.26,0,0,0,.14,0,.32.32,0,0,0,.14-.25V14.23h-.8a.31.31,0,0,1-.15-.08.32.32,0,0,1-.09-.19v-3.5A.47.47,0,0,1,71.9,10l.47-.14,0-.47a4.89,4.89,0,0,0-3.09-.11.42.42,0,0,0-.14.36A.37.37,0,0,0,69.29,9.82Z" style="fill: #87909e"/>
        <circle cx="73.51" cy="12.49" r="0.72" style="fill: #dbdbd7"/>
        <circle cx="68.2" cy="12.64" r="0.72" style="fill: #dbdbd7"/>
        <circle cx="70.73" cy="15.73" r="0.72" style="fill: #dbdbd7"/>
        <rect height="0.81" style="fill: #843c39;stroke: #010101;stroke-miterlimit: 10;stroke-width: 0.1px" width="0.7" x="70.29" y="15.28"/>
        <path d="M70.79,7.71a6.4,6.4,0,1,0,6.4,6.4A6.4,6.4,0,0,0,70.79,7.71ZM69.33,9.26a4.89,4.89,0,0,1,3.09.11l0,.47L71.9,10a.47.47,0,0,0-.37.48V14a.32.32,0,0,0,.09.19.31.31,0,0,0,.15.08h.8V16.3a.32.32,0,0,1-.14.25.26.26,0,0,1-.14,0h-3.1a.59.59,0,0,1-.19-.25V14.18h.76a.27.27,0,0,0,.15-.05.29.29,0,0,0,.11-.22V10.35a.7.7,0,0,0-.08-.17.91.91,0,0,0-.63-.36.37.37,0,0,1-.1-.2A.42.42,0,0,1,69.33,9.26ZM68.2,16.55v.09h-.52a.26.26,0,0,0-.11.06.28.28,0,0,0-.08.2V18a4.62,4.62,0,0,1-1.77-3.58l2.25.05a.49.49,0,0,1,.23.22Zm-2.48-3.13a5.05,5.05,0,0,1,1.94-3.26.45.45,0,0,0,0,.48.42.42,0,0,0,.23.16,3.93,3.93,0,0,1,.89,0l.36.06.12,1.75-.74.92Zm7.22,5.34a4.71,4.71,0,0,1-4.24.06l-.08-1.61h4.32Zm-.58-6V11.11l.28-.31h1.17l.21-.21v-.42a4.46,4.46,0,0,1,1.74,3.32H73Zm3.13,3.27A4.52,4.52,0,0,1,74.13,18l-.08,0,0-1.07a.19.19,0,0,0,0-.16.19.19,0,0,0-.12-.06l-.55,0,.09-1.93a.29.29,0,0,1,0-.14.3.3,0,0,1,.15-.12l2.2,0A4.46,4.46,0,0,1,75.5,16.07Z" style="fill: #ccc8c3"/>
        <circle cx="67.92" cy="12.36" r="0.18" style="fill: #010101"/>
        <circle cx="68.35" cy="12.93" r="0.18" style="fill: #010101"/>
        <circle cx="73.26" cy="12.26" r="0.18" style="fill: #010101"/>
        <circle cx="73.73" cy="12.85" r="0.18" style="fill: #010101"/>
        <circle cx="67.32" cy="11.12" r="0.14" style="fill: #c6b38c"/>
        <circle cx="67.92" cy="12.36" r="0.13" style="fill: #c6b38c"/>
        <circle cx="68.35" cy="12.93" r="0.13" style="fill: #c6b38c"/>
        <circle cx="67.79" cy="15.02" r="0.13" style="fill: #c6b38c"/>
        <circle cx="70.91" cy="17.68" r="0.13" style="fill: #c6b38c"/>
        <circle cx="70.6" cy="15.67" r="0.13" style="fill: #c6b38c"/>
        <circle cx="73.8" cy="15.02" r="0.13" style="fill: #c6b38c"/>
        <circle cx="73.26" cy="12.26" r="0.13" style="fill: #c6b38c"/>
        <circle cx="73.73" cy="12.85" r="0.13" style="fill: #c6b38c"/>
        <circle cx="74.3" cy="11.12" r="0.13" style="fill: #c6b38c"/>
        <line style="fill: none;stroke: #c6b38c;stroke-miterlimit: 10;stroke-width: 0.045354329049587px" x1="67.34" x2="67.97" y1="11.18" y2="12.27"/>
        <polyline points="68.32 12.96 68.08 13.35 67.84 14.97" style="fill: none;stroke: #c6b38c;stroke-miterlimit: 10;stroke-width: 0.045354329049587px"/>
        <line style="fill: none;stroke: #c6b38c;stroke-miterlimit: 10;stroke-width: 0.045354329049587px" x1="70.62" x2="70.95" y1="15.73" y2="17.65"/>
        <line style="fill: none;stroke: #c6b38c;stroke-miterlimit: 10;stroke-width: 0.030047243461013px" x1="70.6" x2="70.37" y1="15.67" y2="15.89"/>
        <line style="fill: none;stroke: #c6b38c;stroke-miterlimit: 10;stroke-width: 0.030047243461013px" x1="70.65" x2="70.85" y1="15.64" y2="15.45"/>
        <polyline points="70.62 15.67 70.87 15.91 70.38 15.42" style="fill: none;stroke: #c6b38c;stroke-miterlimit: 10;stroke-width: 0.030047243461013px"/>
        <polyline points="73.77 12.87 73.82 14.97 73.73 12.82" style="fill: none;stroke: #c6b38c;stroke-miterlimit: 10;stroke-width: 0.045354329049587px"/>
        <line style="fill: none;stroke: #c6b38c;stroke-miterlimit: 10;stroke-width: 0.045354329049587px" x1="74.28" x2="73.21" y1="11.12" y2="12.23"/>
      </g>
      <g>
        <g>
          <rect height="4.48" rx="1.3" ry="1.3" style="fill: url(#linear-gradient-21)" width="2.63" x="17.4" y="19.27"/>
          <rect height="4.48" rx="1.3" ry="1.3" style="fill: url(#linear-gradient-22)" width="2.63" x="21.88" y="19.34"/>
          <rect height="4.48" rx="1.3" ry="1.3" style="fill: url(#linear-gradient-23)" width="2.63" x="26.35" y="19.34"/>
        </g>
        <g>
          <rect height="4.48" rx="1.3" ry="1.3" style="fill: url(#linear-gradient-24)" width="2.63" x="17.4" y="4.38"/>
          <rect height="4.48" rx="1.3" ry="1.3" style="fill: url(#linear-gradient-25)" width="2.63" x="21.88" y="4.45"/>
          <rect height="4.48" rx="1.3" ry="1.3" style="fill: url(#linear-gradient-26)" width="2.63" x="26.35" y="4.45"/>
        </g>
        <rect height="15.79" style="fill: #d4d4d4" width="15.66" x="15.21" y="6.31"/>
        <polygon points="15.54 6.54 15.54 19.48 17.6 21.74 30.63 21.74 30.82 21.5 30.82 6.54 15.54 6.54" style="fill: #ededee"/>
        <path d="M21.4,10.86,21,10.8a3.93,3.93,0,0,0-.89,0,.42.42,0,0,1-.23-.16.45.45,0,0,1,0-.48A5.05,5.05,0,0,0,18,13.42l2.8.11.74-.92Z" style="fill: #87909e"/>
        <path d="M20.24,14.51,18,14.45A4.62,4.62,0,0,0,19.76,18V16.9a.28.28,0,0,1,.08-.2.26.26,0,0,1,.11-.06h.52V14.72a.49.49,0,0,0-.23-.22Z" style="fill: #87909e"/>
        <path d="M21,18.82a4.71,4.71,0,0,0,4.24-.06V17.22H20.89Z" style="fill: #87909e"/>
        <path d="M25.83,14.45a.3.3,0,0,0-.15.12.29.29,0,0,0,0,.14l-.09,1.93.55,0a.19.19,0,0,1,.12.06.19.19,0,0,1,0,.16l0,1.07.08,0a4.52,4.52,0,0,0,1.37-1.92A4.46,4.46,0,0,0,28,14.41Z" style="fill: #87909e"/>
        <path d="M27.56,11.68a4.48,4.48,0,0,0-1.26-1.51v.42l-.21.21H24.92l-.28.31V12.8l.67.69H28A4.47,4.47,0,0,0,27.56,11.68Z" style="fill: #87909e"/>
        <path d="M21.56,9.82a.91.91,0,0,1,.63.36.7.7,0,0,1,.08.17v3.56a.29.29,0,0,1-.11.22.27.27,0,0,1-.15.05h-.76v2.15a.59.59,0,0,0,.19.25h3.1a.26.26,0,0,0,.14,0,.32.32,0,0,0,.14-.25V14.23H24a.31.31,0,0,1-.15-.08A.32.32,0,0,1,23.8,14v-3.5a.47.47,0,0,1,.37-.48l.47-.14,0-.47a4.89,4.89,0,0,0-3.09-.11.42.42,0,0,0-.14.36A.37.37,0,0,0,21.56,9.82Z" style="fill: #87909e"/>
        <circle cx="25.77" cy="12.49" r="0.72" style="fill: #dbdbd7"/>
        <circle cx="20.46" cy="12.64" r="0.72" style="fill: #dbdbd7"/>
        <circle cx="23" cy="15.73" r="0.72" style="fill: #dbdbd7"/>
        <rect height="0.81" style="fill: #843c39;stroke: #010101;stroke-miterlimit: 10;stroke-width: 0.1px" width="0.7" x="22.55" y="15.28"/>
        <path d="M23.06,7.71a6.4,6.4,0,1,0,6.4,6.4A6.4,6.4,0,0,0,23.06,7.71ZM21.6,9.26a4.89,4.89,0,0,1,3.09.11l0,.47-.47.14a.47.47,0,0,0-.37.48V14a.32.32,0,0,0,.09.19.31.31,0,0,0,.15.08h.8V16.3a.32.32,0,0,1-.14.25.26.26,0,0,1-.14,0h-3.1a.59.59,0,0,1-.19-.25V14.18H22a.27.27,0,0,0,.15-.05.29.29,0,0,0,.11-.22V10.35a.7.7,0,0,0-.08-.17.91.91,0,0,0-.63-.36.37.37,0,0,1-.1-.2A.42.42,0,0,1,21.6,9.26Zm-1.13,7.29v.09h-.52a.26.26,0,0,0-.11.06.28.28,0,0,0-.08.2V18A4.62,4.62,0,0,1,18,14.45l2.25.05a.49.49,0,0,1,.23.22ZM18,13.42a5.05,5.05,0,0,1,1.94-3.26.45.45,0,0,0,0,.48.42.42,0,0,0,.23.16,3.93,3.93,0,0,1,.89,0l.36.06.12,1.75-.74.92Zm7.22,5.34a4.71,4.71,0,0,1-4.24.06l-.08-1.61h4.32Zm-.58-6V11.11l.28-.31h1.17l.21-.21v-.42A4.46,4.46,0,0,1,28,13.49H25.3Zm3.13,3.27A4.52,4.52,0,0,1,26.4,18l-.08,0,0-1.07a.19.19,0,0,0,0-.16.19.19,0,0,0-.12-.06l-.55,0,.09-1.93a.29.29,0,0,1,0-.14.3.3,0,0,1,.15-.12l2.2,0A4.46,4.46,0,0,1,27.77,16.07Z" style="fill: #ccc8c3"/>
        <circle cx="20.19" cy="12.36" r="0.18" style="fill: #010101"/>
        <circle cx="20.62" cy="12.93" r="0.18" style="fill: #010101"/>
        <circle cx="25.52" cy="12.26" r="0.18" style="fill: #010101"/>
        <circle cx="26" cy="12.85" r="0.18" style="fill: #010101"/>
        <circle cx="19.59" cy="11.12" r="0.14" style="fill: #c6b38c"/>
        <circle cx="20.19" cy="12.36" r="0.13" style="fill: #c6b38c"/>
        <circle cx="20.62" cy="12.93" r="0.13" style="fill: #c6b38c"/>
        <circle cx="20.05" cy="15.02" r="0.13" style="fill: #c6b38c"/>
        <circle cx="23.18" cy="17.68" r="0.13" style="fill: #c6b38c"/>
        <circle cx="22.86" cy="15.67" r="0.13" style="fill: #c6b38c"/>
        <circle cx="26.06" cy="15.02" r="0.13" style="fill: #c6b38c"/>
        <circle cx="25.52" cy="12.26" r="0.13" style="fill: #c6b38c"/>
        <circle cx="26" cy="12.85" r="0.13" style="fill: #c6b38c"/>
        <circle cx="26.57" cy="11.12" r="0.13" style="fill: #c6b38c"/>
        <line style="fill: none;stroke: #c6b38c;stroke-miterlimit: 10;stroke-width: 0.045354329049587px" x1="19.61" x2="20.23" y1="11.18" y2="12.27"/>
        <polyline points="20.59 12.96 20.35 13.35 20.11 14.97" style="fill: none;stroke: #c6b38c;stroke-miterlimit: 10;stroke-width: 0.045354329049587px"/>
        <line style="fill: none;stroke: #c6b38c;stroke-miterlimit: 10;stroke-width: 0.045354329049587px" x1="22.88" x2="23.21" y1="15.73" y2="17.65"/>
        <line style="fill: none;stroke: #c6b38c;stroke-miterlimit: 10;stroke-width: 0.030047243461013px" x1="22.86" x2="22.64" y1="15.67" y2="15.89"/>
        <line style="fill: none;stroke: #c6b38c;stroke-miterlimit: 10;stroke-width: 0.030047243461013px" x1="22.92" x2="23.12" y1="15.64" y2="15.45"/>
        <polyline points="22.89 15.67 23.14 15.91 22.65 15.42" style="fill: none;stroke: #c6b38c;stroke-miterlimit: 10;stroke-width: 0.030047243461013px"/>
        <polyline points="26.04 12.87 26.09 14.97 26 12.82" style="fill: none;stroke: #c6b38c;stroke-miterlimit: 10;stroke-width: 0.045354329049587px"/>
        <line style="fill: none;stroke: #c6b38c;stroke-miterlimit: 10;stroke-width: 0.045354329049587px" x1="26.55" x2="25.47" y1="11.12" y2="12.23"/>
      </g>
    </g>
  </g>
  <g data-name="Layer 9" id="Layer_9">
    <g>
      <rect height="28.1" style="fill: #c7c6c5" width="141.84" x="141.76" y="0.09"/>
      <rect height="27.84" style="fill: #ededee" width="141.84" x="141.76" y="0.22"/>
      <g>
        <g>
          <path d="M253,22.14H251.1v-16h2.1a.23.23,0,0,1,0,.45h-1.65v15.1H253a.23.23,0,1,1,0,.45Z" style="fill: #585856"/>
          <path d="M269.59,22.14h-1.94a.23.23,0,0,1,0-.45h1.49V6.59h-1.65a.23.23,0,0,1,0-.45h2.1Z" style="fill: #585856"/>
        </g>
        <g>
          <path d="M205.27,22.14h-1.94v-16h2.1a.23.23,0,1,1,0,.45h-1.65v15.1h1.49a.23.23,0,1,1,0,.45Z" style="fill: #585856"/>
          <path d="M221.8,22.14h-1.94a.23.23,0,0,1,0-.45h1.49V6.59H219.7a.23.23,0,1,1,0-.45h2.1Z" style="fill: #585856"/>
        </g>
        <g>
          <path d="M157.48,22.14h-1.94v-16h2.1a.23.23,0,1,1,0,.45H156v15.1h1.49a.23.23,0,0,1,0,.45Z" style="fill: #585856"/>
          <path d="M174,22.14h-1.94a.23.23,0,1,1,0-.45h1.49V6.59h-1.65a.23.23,0,0,1,0-.45H174Z" style="fill: #585856"/>
        </g>
      </g>
      <g>
        <path d="M146.4,3.17a3.08,3.08,0,0,1-3.08,3.08h-1.48V.09h1.48A3.08,3.08,0,0,1,146.4,3.17Z" style="fill: url(#linear-gradient-27)"/>
        <path d="M146.4,10.5a3.08,3.08,0,0,1-3.08,3.08h-1.48V7.42h1.48A3.08,3.08,0,0,1,146.4,10.5Z" style="fill: url(#linear-gradient-28)"/>
        <path d="M146.4,17.83a3.08,3.08,0,0,1-3.08,3.08h-1.48V14.76h1.48A3.08,3.08,0,0,1,146.4,17.83Z" style="fill: url(#linear-gradient-29)"/>
        <path d="M146.4,25.17a3.08,3.08,0,0,1-3.08,3.08h-1.48V22.09h1.48A3.08,3.08,0,0,1,146.4,25.17Z" style="fill: url(#linear-gradient-30)"/>
      </g>
      <g>
        <path d="M279,3.24a3.08,3.08,0,0,0,3.08,3.08h1.48V.16h-1.48A3.08,3.08,0,0,0,279,3.24Z" style="fill: url(#linear-gradient-31)"/>
        <path d="M279,10.57a3.08,3.08,0,0,0,3.08,3.08h1.48V7.5h-1.48A3.08,3.08,0,0,0,279,10.57Z" style="fill: url(#linear-gradient-32)"/>
        <path d="M279,17.91A3.08,3.08,0,0,0,282.13,21h1.48V14.83h-1.48A3.08,3.08,0,0,0,279,17.91Z" style="fill: url(#linear-gradient-33)"/>
        <path d="M279,25.24a3.08,3.08,0,0,0,3.08,3.08h1.48V22.16h-1.48A3.08,3.08,0,0,0,279,25.24Z" style="fill: url(#linear-gradient-34)"/>
      </g>
      <g>
        <path d="M145.21,16.81c-.51-.88-1.33-1.33-1.87-1l-.11.08L143,15.3c-.18-.38-.4-.78-.61-1.18.56-1.13,1.09-2.27,1.47-3.14s.87-2.29.87-2.29l-.16-.08s-.88,1.22-1.38,2c-.35.56-.75,1.26-1.17,2V.09h-.22v28.1H142V15.68l0,.09c.28.52.57,1,.82,1.4.12.18.23.36.33.5l.12.23A2,2,0,0,0,144.79,19a.71.71,0,0,0,.37-.09.81.81,0,0,0,.37-.51A2.24,2.24,0,0,0,145.21,16.81Zm-.12,1.49a.36.36,0,0,1-.15.23c-.17.09-.48,0-.78-.3a2.29,2.29,0,0,1-.44-.56,1.82,1.82,0,0,1-.28-1.25l0-.06a.33.33,0,0,1,.13-.17.3.3,0,0,1,.14,0,1.59,1.59,0,0,1,1.08.89A1.82,1.82,0,0,1,145.09,18.29Z" style="fill: #585856"/>
        <path d="M283.39.09V12.64c-.41-.74-.82-1.44-1.17-2-.5-.81-1.38-2-1.38-2l-.16.08s.49,1.42.87,2.29.91,2,1.47,3.14c-.21.4-.42.8-.61,1.18l-.27.56-.11-.08c-.54-.31-1.36.14-1.87,1a2.24,2.24,0,0,0-.33,1.61.82.82,0,0,0,.37.51.71.71,0,0,0,.37.09,2,2,0,0,0,1.49-1.12l.12-.23c.1-.15.21-.32.33-.5.25-.4.54-.87.82-1.4l0-.09v12.5h.22V.09Zm-1.73,17.58a2.29,2.29,0,0,1-.44.56c-.3.28-.61.39-.78.3a.36.36,0,0,1-.15-.23,1.82,1.82,0,0,1,.28-1.25,1.59,1.59,0,0,1,1.08-.89.3.3,0,0,1,.14,0,.32.32,0,0,1,.13.17l0,.06A1.82,1.82,0,0,1,281.66,17.67Z" style="fill: #585856"/>
      </g>
      <g>
        <g>
          <path d="M187.7,12.22a.23.23,0,0,1-.23-.23V6.34h-7.93V12a.23.23,0,1,1-.45,0V5.89h8.83V12A.23.23,0,0,1,187.7,12.22Z" style="fill: #585856"/>
          <path d="M187.93,23.42H179.1v-6.1a.23.23,0,1,1,.45,0V23h7.93V17.32a.23.23,0,1,1,.45,0Z" style="fill: #585856"/>
        </g>
        <g>
          <path d="M198.07,12.22a.23.23,0,0,1-.23-.23V6.34h-7.93V12a.23.23,0,1,1-.45,0V5.89h8.83V12A.23.23,0,0,1,198.07,12.22Z" style="fill: #585856"/>
          <path d="M198.3,23.42h-8.83v-6.1a.23.23,0,1,1,.45,0V23h7.93V17.32a.23.23,0,1,1,.45,0Z" style="fill: #585856"/>
        </g>
        <g>
          <path d="M240.67,11.77a.23.23,0,0,1-.23-.23V5.9h-7.93v5.65a.23.23,0,1,1-.45,0V5.45h8.83v6.1A.23.23,0,0,1,240.67,11.77Z" style="fill: #585856"/>
          <path d="M240.9,23h-8.83v-6.1a.23.23,0,1,1,.45,0v5.65h7.93V16.88a.23.23,0,1,1,.45,0Z" style="fill: #585856"/>
        </g>
      </g>
    </g>
    <g>
      <path d="M147.54,4.19h.59V1.93h-.58a.19.19,0,1,1,0-.38h1V4.19h.38v-.8a.19.19,0,0,1,.06-.13.18.18,0,0,1,.14-.06.19.19,0,0,1,.19.19v1a.19.19,0,0,1-.19.19h-1.55a.18.18,0,0,1-.14-.06.19.19,0,0,1-.06-.14.18.18,0,0,1,.06-.13A.19.19,0,0,1,147.54,4.19Z" style="fill: #585856"/>
      <path d="M151.92,4.58h-1.74V3.25a.37.37,0,0,1,.11-.27.37.37,0,0,1,.27-.11h1.16V1.93h-1.37a.19.19,0,0,1-.14-.06.2.2,0,0,1,0-.27.19.19,0,0,1,.14-.06h1.37a.38.38,0,0,1,.27.11.37.37,0,0,1,.11.27v.93a.37.37,0,0,1-.11.27.38.38,0,0,1-.27.11h-1.16v.94h1.36a.19.19,0,0,1,.13.06.19.19,0,0,1,0,.27A.19.19,0,0,1,151.92,4.58Z" style="fill: #585856"/>
      <path d="M154.95,1.75v.7l-.78,2a.2.2,0,0,1-.38,0l-.78-2v-.7a.19.19,0,0,1,.06-.14.18.18,0,0,1,.14-.06.19.19,0,0,1,.14.06.19.19,0,0,1,.06.14v.62L154,3.86l.58-1.48V1.75a.19.19,0,0,1,.06-.14.19.19,0,0,1,.14-.06.18.18,0,0,1,.14.06A.19.19,0,0,1,154.95,1.75Z" style="fill: #585856"/>
      <path d="M156.6,2.86V2.28a.18.18,0,0,1,.06-.13.19.19,0,0,1,.14-.06.19.19,0,0,1,.19.19v.59h.59a.19.19,0,0,1,.14.06.19.19,0,0,1,0,.27.19.19,0,0,1-.14.06H157v.59a.19.19,0,0,1-.06.14.19.19,0,0,1-.14.06.18.18,0,0,1-.14-.06.19.19,0,0,1-.06-.14V3.25H156a.19.19,0,0,1,0-.38Z" style="fill: #585856"/>
    </g>
    <path d="M148.48,8.92h.64a.19.19,0,0,1,.19.19.18.18,0,0,1-.06.14.19.19,0,0,1-.13.06h-.61a.19.19,0,0,0-.16.08l-.54.69a.34.34,0,0,0-.07.23v1.06a.19.19,0,0,0,.06.14.18.18,0,0,0,.14.06h.78a.19.19,0,0,0,.19-.19V11h-.4a.18.18,0,0,1-.14-.06.2.2,0,0,1,0-.27.18.18,0,0,1,.14-.06h.78v.8a.58.58,0,0,1-.57.57h-.78a.56.56,0,0,1-.41-.17.55.55,0,0,1-.17-.41V10.31a.76.76,0,0,1,.15-.48l.57-.72a.53.53,0,0,1,.4-.2Z" style="fill: #585856"/>
    <path d="M147.37,19.12V16.28h1.35a.55.55,0,0,1,.4.17.56.56,0,0,1,.17.41v.22a.56.56,0,0,1-.17.41.55.55,0,0,1-.41.17h-.24l.78,1.35a.22.22,0,0,1,0,.12.18.18,0,0,1-.06.13.19.19,0,0,1-.13.06.19.19,0,0,1-.17-.1l-.9-1.55h-.28v1.46a.18.18,0,0,1-.06.14.19.19,0,0,1-.14.06.19.19,0,0,1-.19-.19Zm.38-1.84h1a.19.19,0,0,0,.19-.19v-.22a.19.19,0,0,0-.19-.19h-1Z" style="fill: #585856"/>
    <path d="M149.3,25.74v.17a.75.75,0,0,1-.22.54.73.73,0,0,1-.54.23h-1.17v-3h1.17a.74.74,0,0,1,.54.23.74.74,0,0,1,.22.54v.16a.76.76,0,0,1-.26.58A.76.76,0,0,1,149.3,25.74Zm-.39-1.16v-.16a.37.37,0,0,0-.11-.27.37.37,0,0,0-.27-.11h-.78V25h.78a.39.39,0,0,0,.38-.38Zm0,1.33v-.16a.37.37,0,0,0-.11-.27.37.37,0,0,0-.27-.11h-.78v.93h.78a.39.39,0,0,0,.38-.38Z" style="fill: #585856"/>
    <g>
      <path d="M267.91,4.23h.59V2h-.58a.19.19,0,1,1,0-.38h1V4.23h.38v-.8a.19.19,0,0,1,.06-.13.18.18,0,0,1,.14-.06.19.19,0,0,1,.19.19v1a.19.19,0,0,1-.19.19h-1.55a.18.18,0,0,1-.14-.06.19.19,0,0,1-.06-.14.18.18,0,0,1,.06-.13A.19.19,0,0,1,267.91,4.23Z" style="fill: #585856"/>
      <path d="M272.29,4.61h-1.74V3.29a.37.37,0,0,1,.11-.27.37.37,0,0,1,.27-.11h1.16V2h-1.37a.19.19,0,1,1,0-.38h1.37a.38.38,0,0,1,.27.11.36.36,0,0,1,.11.27V2.9a.37.37,0,0,1-.11.27.38.38,0,0,1-.27.11h-1.16v.94h1.36a.19.19,0,0,1,.13.06.19.19,0,0,1,0,.27A.19.19,0,0,1,272.29,4.61Z" style="fill: #585856"/>
      <path d="M275.31,1.78v.7l-.78,2a.2.2,0,0,1-.38,0l-.78-2v-.7a.19.19,0,0,1,.06-.14.18.18,0,0,1,.14-.06.19.19,0,0,1,.14.06.19.19,0,0,1,.06.14v.62l.58,1.49.58-1.48V1.78a.19.19,0,0,1,.06-.14.19.19,0,0,1,.27,0A.19.19,0,0,1,275.31,1.78Z" style="fill: #585856"/>
      <path d="M277,2.9V2.32a.18.18,0,0,1,.06-.13.19.19,0,0,1,.14-.06.18.18,0,0,1,.13.06.18.18,0,0,1,.05.13V2.9h.59a.19.19,0,0,1,.14.06.19.19,0,0,1,0,.27.19.19,0,0,1-.14.06h-.58v.59a.19.19,0,0,1-.06.14.19.19,0,0,1-.14.06A.18.18,0,0,1,277,4a.19.19,0,0,1-.06-.14V3.29h-.59a.19.19,0,0,1,0-.38Z" style="fill: #585856"/>
    </g>
    <path d="M277.3,9h.64a.19.19,0,0,1,.14.06.19.19,0,0,1,0,.28.19.19,0,0,1-.13.06h-.61a.19.19,0,0,0-.16.08l-.54.69a.34.34,0,0,0-.07.23V11.4a.19.19,0,0,0,.06.14.18.18,0,0,0,.14.06h.78a.2.2,0,0,0,.19-.19V11h-.4a.18.18,0,0,1-.14-.06.2.2,0,0,1,0-.27.18.18,0,0,1,.14-.06h.78v.8a.58.58,0,0,1-.58.57h-.78a.56.56,0,0,1-.41-.17.55.55,0,0,1-.17-.41V10.35a.76.76,0,0,1,.15-.48l.57-.72a.53.53,0,0,1,.4-.2Z" style="fill: #585856"/>
    <path d="M276.2,19.16V16.32h1.35a.55.55,0,0,1,.41.17.56.56,0,0,1,.17.41v.22a.56.56,0,0,1-.17.41.55.55,0,0,1-.41.17h-.24l.78,1.35a.22.22,0,0,1,0,.12.18.18,0,0,1-.06.13.19.19,0,0,1-.13.06.19.19,0,0,1-.17-.1l-.9-1.55h-.28v1.46a.18.18,0,0,1-.06.14.19.19,0,0,1-.14.06.19.19,0,0,1-.19-.19Zm.38-1.84h1a.18.18,0,0,0,.14-.06.18.18,0,0,0,.06-.14V16.9a.19.19,0,0,0-.19-.19h-1Z" style="fill: #585856"/>
    <path d="M278.12,25.78v.17a.74.74,0,0,1-.22.54.73.73,0,0,1-.54.23h-1.17v-3h1.17a.77.77,0,0,1,.77.77v.16a.76.76,0,0,1-.26.58A.76.76,0,0,1,278.12,25.78Zm-.39-1.16v-.16a.38.38,0,0,0-.11-.27.37.37,0,0,0-.27-.11h-.78V25h.78a.37.37,0,0,0,.27-.11A.37.37,0,0,0,277.73,24.61Zm0,1.33v-.16a.38.38,0,0,0-.11-.27.37.37,0,0,0-.27-.11h-.78v.93h.78a.39.39,0,0,0,.38-.38Z" style="fill: #585856"/>
    <g>
      <g>
        <rect height="4.48" rx="1.3" ry="1.3" style="fill: url(#linear-gradient-35)" width="2.63" x="254.73" y="19.36"/>
        <rect height="4.48" rx="1.3" ry="1.3" style="fill: url(#linear-gradient-36)" width="2.63" x="259.21" y="19.43"/>
        <rect height="4.48" rx="1.3" ry="1.3" style="fill: url(#linear-gradient-37)" width="2.63" x="263.68" y="19.43"/>
      </g>
      <g>
        <rect height="4.48" rx="1.3" ry="1.3" style="fill: url(#linear-gradient-38)" width="2.63" x="254.73" y="4.47"/>
        <rect height="4.48" rx="1.3" ry="1.3" style="fill: url(#linear-gradient-39)" width="2.63" x="259.21" y="4.54"/>
        <rect height="4.48" rx="1.3" ry="1.3" style="fill: url(#linear-gradient-40)" width="2.63" x="263.68" y="4.54"/>
      </g>
      <rect height="15.79" style="fill: #d4d4d4" width="15.66" x="252.55" y="6.4"/>
      <polygon points="252.87 6.63 252.87 19.57 254.93 21.83 267.96 21.83 268.15 21.59 268.15 6.63 252.87 6.63" style="fill: #ededee"/>
      <path d="M258.73,10.95l-.36-.06a3.93,3.93,0,0,0-.89,0,.42.42,0,0,1-.23-.16.45.45,0,0,1,0-.48,5.05,5.05,0,0,0-1.94,3.26l2.8.11.74-.92Z" style="fill: #87909e"/>
      <path d="M257.57,14.6l-2.25-.05a4.62,4.62,0,0,0,1.77,3.58V17a.28.28,0,0,1,.08-.2.26.26,0,0,1,.11-.06h.52V14.82a.49.49,0,0,0-.23-.22Z" style="fill: #87909e"/>
      <path d="M258.3,18.92a4.71,4.71,0,0,0,4.24-.06V17.31h-4.32Z" style="fill: #87909e"/>
      <path d="M263.17,14.54a.3.3,0,0,0-.15.12.29.29,0,0,0,0,.14l-.09,1.93.55,0a.19.19,0,0,1,.12.06.19.19,0,0,1,0,.16l0,1.07.08,0a4.52,4.52,0,0,0,1.37-1.92,4.46,4.46,0,0,0,.27-1.66Z" style="fill: #87909e"/>
      <path d="M264.89,11.77a4.48,4.48,0,0,0-1.26-1.51v.42l-.21.21h-1.17l-.28.31v1.69l.67.69h2.74A4.47,4.47,0,0,0,264.89,11.77Z" style="fill: #87909e"/>
      <path d="M258.89,9.91a.91.91,0,0,1,.63.36.7.7,0,0,1,.08.17V14a.29.29,0,0,1-.11.22.27.27,0,0,1-.15.05h-.76v2.15a.59.59,0,0,0,.19.25h3.1a.26.26,0,0,0,.14,0,.32.32,0,0,0,.14-.25V14.32h-.8a.31.31,0,0,1-.15-.08.32.32,0,0,1-.09-.19v-3.5a.47.47,0,0,1,.37-.48l.47-.14,0-.47a4.89,4.89,0,0,0-3.09-.11.42.42,0,0,0-.14.36A.37.37,0,0,0,258.89,9.91Z" style="fill: #87909e"/>
      <circle cx="263.1" cy="12.58" r="0.72" style="fill: #dbdbd7"/>
      <circle cx="257.8" cy="12.73" r="0.72" style="fill: #dbdbd7"/>
      <circle cx="260.33" cy="15.82" r="0.72" style="fill: #dbdbd7"/>
      <rect height="0.81" style="fill: #843c39;stroke: #010101;stroke-miterlimit: 10;stroke-width: 0.1px" width="0.7" x="259.89" y="15.37"/>
      <path d="M260.39,7.8a6.4,6.4,0,1,0,6.4,6.4A6.4,6.4,0,0,0,260.39,7.8Zm-1.46,1.55a4.89,4.89,0,0,1,3.09.11l0,.47-.47.14a.47.47,0,0,0-.37.48v3.5a.32.32,0,0,0,.09.19.31.31,0,0,0,.15.08h.8v2.07a.32.32,0,0,1-.14.25.26.26,0,0,1-.14,0h-3.1a.59.59,0,0,1-.19-.25V14.27h.76a.27.27,0,0,0,.15-.05.29.29,0,0,0,.11-.22V10.44a.7.7,0,0,0-.08-.17.91.91,0,0,0-.63-.36.37.37,0,0,1-.1-.2A.42.42,0,0,1,258.93,9.35Zm-1.13,7.29v.09h-.52a.26.26,0,0,0-.11.06.28.28,0,0,0-.08.2v1.14a4.62,4.62,0,0,1-1.77-3.58l2.25.05a.49.49,0,0,1,.23.22Zm-2.48-3.13a5.05,5.05,0,0,1,1.94-3.26.45.45,0,0,0,0,.48.42.42,0,0,0,.23.16,3.93,3.93,0,0,1,.89,0l.36.06.12,1.75-.74.92Zm7.22,5.34a4.71,4.71,0,0,1-4.24.06l-.08-1.61h4.32Zm-.58-6V11.2l.28-.31h1.17l.21-.21v-.42a4.46,4.46,0,0,1,1.74,3.32h-2.74Zm3.13,3.27a4.52,4.52,0,0,1-1.37,1.92l-.08,0,0-1.07a.19.19,0,0,0,0-.16.19.19,0,0,0-.12-.06l-.55,0L263,14.8a.29.29,0,0,1,0-.14.3.3,0,0,1,.15-.12l2.2,0A4.46,4.46,0,0,1,265.1,16.16Z" style="fill: #ccc8c3"/>
      <circle cx="257.52" cy="12.45" r="0.18" style="fill: #010101"/>
      <circle cx="257.95" cy="13.02" r="0.18" style="fill: #010101"/>
      <circle cx="262.86" cy="12.35" r="0.18" style="fill: #010101"/>
      <circle cx="263.33" cy="12.94" r="0.18" style="fill: #010101"/>
      <circle cx="256.92" cy="11.21" r="0.14" style="fill: #c6b38c"/>
      <circle cx="257.52" cy="12.45" r="0.13" style="fill: #c6b38c"/>
      <circle cx="257.95" cy="13.02" r="0.13" style="fill: #c6b38c"/>
      <circle cx="257.39" cy="15.11" r="0.13" style="fill: #c6b38c"/>
      <circle cx="260.51" cy="17.77" r="0.13" style="fill: #c6b38c"/>
      <circle cx="260.2" cy="15.76" r="0.13" style="fill: #c6b38c"/>
      <circle cx="263.4" cy="15.11" r="0.13" style="fill: #c6b38c"/>
      <circle cx="262.86" cy="12.35" r="0.13" style="fill: #c6b38c"/>
      <circle cx="263.33" cy="12.94" r="0.13" style="fill: #c6b38c"/>
      <circle cx="263.9" cy="11.21" r="0.13" style="fill: #c6b38c"/>
      <line style="fill: none;stroke: #c6b38c;stroke-miterlimit: 10;stroke-width: 0.045354329049587px" x1="256.94" x2="257.56" y1="11.27" y2="12.36"/>
      <polyline points="257.92 13.05 257.68 13.44 257.44 15.06" style="fill: none;stroke: #c6b38c;stroke-miterlimit: 10;stroke-width: 0.045354329049587px"/>
      <line style="fill: none;stroke: #c6b38c;stroke-miterlimit: 10;stroke-width: 0.045354329049587px" x1="260.21" x2="260.54" y1="15.82" y2="17.74"/>
      <line style="fill: none;stroke: #c6b38c;stroke-miterlimit: 10;stroke-width: 0.030047243461013px" x1="260.2" x2="259.97" y1="15.76" y2="15.98"/>
      <line style="fill: none;stroke: #c6b38c;stroke-miterlimit: 10;stroke-width: 0.030047243461013px" x1="260.25" x2="260.45" y1="15.73" y2="15.54"/>
      <polyline points="260.22 15.76 260.47 16 259.98 15.51" style="fill: none;stroke: #c6b38c;stroke-miterlimit: 10;stroke-width: 0.030047243461013px"/>
      <polyline points="263.37 12.96 263.42 15.06 263.33 12.91" style="fill: none;stroke: #c6b38c;stroke-miterlimit: 10;stroke-width: 0.045354329049587px"/>
      <line style="fill: none;stroke: #c6b38c;stroke-miterlimit: 10;stroke-width: 0.045354329049587px" x1="263.88" x2="262.8" y1="11.21" y2="12.32"/>
    </g>
    <g>
      <g>
        <rect height="4.48" rx="1.3" ry="1.3" style="fill: url(#linear-gradient-41)" width="2.63" x="206.9" y="19.36"/>
        <rect height="4.48" rx="1.3" ry="1.3" style="fill: url(#linear-gradient-42)" width="2.63" x="211.37" y="19.43"/>
        <rect height="4.48" rx="1.3" ry="1.3" style="fill: url(#linear-gradient-43)" width="2.63" x="215.85" y="19.43"/>
      </g>
      <g>
        <rect height="4.48" rx="1.3" ry="1.3" style="fill: url(#linear-gradient-44)" width="2.63" x="206.9" y="4.47"/>
        <rect height="4.48" rx="1.3" ry="1.3" style="fill: url(#linear-gradient-45)" width="2.63" x="211.37" y="4.54"/>
        <rect height="4.48" rx="1.3" ry="1.3" style="fill: url(#linear-gradient-46)" width="2.63" x="215.85" y="4.54"/>
      </g>
      <rect height="15.79" style="fill: #d4d4d4" width="15.66" x="204.71" y="6.4"/>
      <polygon points="205.03 6.63 205.03 19.57 207.1 21.83 220.12 21.83 220.32 21.59 220.32 6.63 205.03 6.63" style="fill: #ededee"/>
      <path d="M210.9,10.95l-.36-.06a3.93,3.93,0,0,0-.89,0,.42.42,0,0,1-.23-.16.45.45,0,0,1,0-.48,5.05,5.05,0,0,0-1.94,3.26l2.8.11.74-.92Z" style="fill: #87909e"/>
      <path d="M209.73,14.6l-2.25-.05a4.62,4.62,0,0,0,1.77,3.58V17a.28.28,0,0,1,.08-.2.26.26,0,0,1,.11-.06H210V14.82a.49.49,0,0,0-.23-.22Z" style="fill: #87909e"/>
      <path d="M210.47,18.92a4.71,4.71,0,0,0,4.24-.06V17.31h-4.32Z" style="fill: #87909e"/>
      <path d="M215.33,14.54a.3.3,0,0,0-.15.12.29.29,0,0,0,0,.14l-.09,1.93.55,0a.19.19,0,0,1,.12.06.19.19,0,0,1,0,.16l0,1.07.08,0a4.52,4.52,0,0,0,1.37-1.92,4.46,4.46,0,0,0,.27-1.66Z" style="fill: #87909e"/>
      <path d="M217.05,11.77a4.48,4.48,0,0,0-1.26-1.51v.42l-.21.21h-1.17l-.28.31v1.69l.67.69h2.74A4.47,4.47,0,0,0,217.05,11.77Z" style="fill: #87909e"/>
      <path d="M211.06,9.91a.91.91,0,0,1,.63.36.7.7,0,0,1,.08.17V14a.29.29,0,0,1-.11.22.27.27,0,0,1-.15.05h-.76v2.15a.59.59,0,0,0,.19.25h3.1a.26.26,0,0,0,.14,0,.32.32,0,0,0,.14-.25V14.32h-.8a.31.31,0,0,1-.15-.08.32.32,0,0,1-.09-.19v-3.5a.47.47,0,0,1,.37-.48l.47-.14,0-.47a4.89,4.89,0,0,0-3.09-.11.42.42,0,0,0-.14.36A.37.37,0,0,0,211.06,9.91Z" style="fill: #87909e"/>
      <circle cx="215.27" cy="12.58" r="0.72" style="fill: #dbdbd7"/>
      <circle cx="209.96" cy="12.73" r="0.72" style="fill: #dbdbd7"/>
      <circle cx="212.49" cy="15.82" r="0.72" style="fill: #dbdbd7"/>
      <rect height="0.81" style="fill: #843c39;stroke: #010101;stroke-miterlimit: 10;stroke-width: 0.1px" width="0.7" x="212.05" y="15.37"/>
      <path d="M212.55,7.8a6.4,6.4,0,1,0,6.4,6.4A6.4,6.4,0,0,0,212.55,7.8Zm-1.46,1.55a4.89,4.89,0,0,1,3.09.11l0,.47-.47.14a.47.47,0,0,0-.37.48v3.5a.32.32,0,0,0,.09.19.31.31,0,0,0,.15.08h.8v2.07a.32.32,0,0,1-.14.25.26.26,0,0,1-.14,0H211a.59.59,0,0,1-.19-.25V14.27h.76a.27.27,0,0,0,.15-.05.29.29,0,0,0,.11-.22V10.44a.7.7,0,0,0-.08-.17.91.91,0,0,0-.63-.36.37.37,0,0,1-.1-.2A.42.42,0,0,1,211.09,9.35ZM210,16.64v.09h-.52a.26.26,0,0,0-.11.06.28.28,0,0,0-.08.2v1.14a4.62,4.62,0,0,1-1.77-3.58l2.25.05a.49.49,0,0,1,.23.22Zm-2.48-3.13a5.05,5.05,0,0,1,1.94-3.26.45.45,0,0,0,0,.48.42.42,0,0,0,.23.16,3.93,3.93,0,0,1,.89,0l.36.06L211,12.7l-.74.92Zm7.22,5.34a4.71,4.71,0,0,1-4.24.06l-.08-1.61h4.32Zm-.58-6V11.2l.28-.31h1.17l.21-.21v-.42a4.46,4.46,0,0,1,1.74,3.32H214.8Zm3.13,3.27a4.52,4.52,0,0,1-1.37,1.92l-.08,0,0-1.07a.19.19,0,0,0,0-.16.19.19,0,0,0-.12-.06l-.55,0,.09-1.93a.29.29,0,0,1,0-.14.3.3,0,0,1,.15-.12l2.2,0A4.46,4.46,0,0,1,217.26,16.16Z" style="fill: #ccc8c3"/>
      <circle cx="209.68" cy="12.45" r="0.18" style="fill: #010101"/>
      <circle cx="210.11" cy="13.02" r="0.18" style="fill: #010101"/>
      <circle cx="215.02" cy="12.35" r="0.18" style="fill: #010101"/>
      <circle cx="215.49" cy="12.94" r="0.18" style="fill: #010101"/>
      <circle cx="209.09" cy="11.21" r="0.14" style="fill: #c6b38c"/>
      <circle cx="209.68" cy="12.45" r="0.13" style="fill: #c6b38c"/>
      <circle cx="210.11" cy="13.02" r="0.13" style="fill: #c6b38c"/>
      <circle cx="209.55" cy="15.11" r="0.13" style="fill: #c6b38c"/>
      <circle cx="212.68" cy="17.77" r="0.13" style="fill: #c6b38c"/>
      <circle cx="212.36" cy="15.76" r="0.13" style="fill: #c6b38c"/>
      <circle cx="215.56" cy="15.11" r="0.13" style="fill: #c6b38c"/>
      <circle cx="215.02" cy="12.35" r="0.13" style="fill: #c6b38c"/>
      <circle cx="215.49" cy="12.94" r="0.13" style="fill: #c6b38c"/>
      <circle cx="216.07" cy="11.21" r="0.13" style="fill: #c6b38c"/>
      <line style="fill: none;stroke: #c6b38c;stroke-miterlimit: 10;stroke-width: 0.045354329049587px" x1="209.1" x2="209.73" y1="11.27" y2="12.36"/>
      <polyline points="210.08 13.05 209.85 13.44 209.61 15.06" style="fill: none;stroke: #c6b38c;stroke-miterlimit: 10;stroke-width: 0.045354329049587px"/>
      <line style="fill: none;stroke: #c6b38c;stroke-miterlimit: 10;stroke-width: 0.045354329049587px" x1="212.38" x2="212.71" y1="15.82" y2="17.74"/>
      <line style="fill: none;stroke: #c6b38c;stroke-miterlimit: 10;stroke-width: 0.030047243461013px" x1="212.36" x2="212.14" y1="15.76" y2="15.98"/>
      <line style="fill: none;stroke: #c6b38c;stroke-miterlimit: 10;stroke-width: 0.030047243461013px" x1="212.42" x2="212.61" y1="15.73" y2="15.54"/>
      <polyline points="212.39 15.76 212.63 16 212.14 15.51" style="fill: none;stroke: #c6b38c;stroke-miterlimit: 10;stroke-width: 0.030047243461013px"/>
      <polyline points="215.53 12.96 215.59 15.06 215.49 12.91" style="fill: none;stroke: #c6b38c;stroke-miterlimit: 10;stroke-width: 0.045354329049587px"/>
      <line style="fill: none;stroke: #c6b38c;stroke-miterlimit: 10;stroke-width: 0.045354329049587px" x1="216.05" x2="214.97" y1="11.21" y2="12.32"/>
    </g>
    <g>
      <g>
        <rect height="4.48" rx="1.3" ry="1.3" style="fill: url(#linear-gradient-47)" width="2.63" x="159.17" y="19.36"/>
        <rect height="4.48" rx="1.3" ry="1.3" style="fill: url(#linear-gradient-48)" width="2.63" x="163.64" y="19.43"/>
        <rect height="4.48" rx="1.3" ry="1.3" style="fill: url(#linear-gradient-49)" width="2.63" x="168.12" y="19.43"/>
      </g>
      <g>
        <rect height="4.48" rx="1.3" ry="1.3" style="fill: url(#linear-gradient-50)" width="2.63" x="159.17" y="4.47"/>
        <rect height="4.48" rx="1.3" ry="1.3" style="fill: url(#linear-gradient-51)" width="2.63" x="163.64" y="4.54"/>
        <rect height="4.48" rx="1.3" ry="1.3" style="fill: url(#linear-gradient-52)" width="2.63" x="168.12" y="4.54"/>
      </g>
      <rect height="15.79" style="fill: #d4d4d4" width="15.66" x="156.98" y="6.4"/>
      <polygon points="157.3 6.63 157.3 19.57 159.37 21.83 172.39 21.83 172.58 21.59 172.58 6.63 157.3 6.63" style="fill: #ededee"/>
      <path d="M163.16,10.95l-.36-.06a3.93,3.93,0,0,0-.89,0,.42.42,0,0,1-.23-.16.45.45,0,0,1,0-.48,5.05,5.05,0,0,0-1.94,3.26l2.8.11.74-.92Z" style="fill: #87909e"/>
      <path d="M162,14.6l-2.25-.05a4.62,4.62,0,0,0,1.77,3.58V17a.28.28,0,0,1,.08-.2.26.26,0,0,1,.11-.06h.52V14.82a.49.49,0,0,0-.23-.22Z" style="fill: #87909e"/>
      <path d="M162.73,18.92a4.71,4.71,0,0,0,4.24-.06V17.31h-4.32Z" style="fill: #87909e"/>
      <path d="M167.6,14.54a.3.3,0,0,0-.15.12.29.29,0,0,0,0,.14l-.09,1.93.55,0a.19.19,0,0,1,.12.06.19.19,0,0,1,0,.16l0,1.07.08,0a4.52,4.52,0,0,0,1.37-1.92,4.46,4.46,0,0,0,.27-1.66Z" style="fill: #87909e"/>
      <path d="M169.32,11.77a4.48,4.48,0,0,0-1.26-1.51v.42l-.21.21h-1.17l-.28.31v1.69l.67.69h2.74A4.47,4.47,0,0,0,169.32,11.77Z" style="fill: #87909e"/>
      <path d="M163.32,9.91a.91.91,0,0,1,.63.36.7.7,0,0,1,.08.17V14a.29.29,0,0,1-.11.22.27.27,0,0,1-.15.05H163v2.15a.59.59,0,0,0,.19.25h3.1a.26.26,0,0,0,.14,0,.32.32,0,0,0,.14-.25V14.32h-.8a.31.31,0,0,1-.15-.08.32.32,0,0,1-.09-.19v-3.5a.47.47,0,0,1,.37-.48l.47-.14,0-.47a4.89,4.89,0,0,0-3.09-.11.42.42,0,0,0-.14.36A.37.37,0,0,0,163.32,9.91Z" style="fill: #87909e"/>
      <circle cx="167.54" cy="12.58" r="0.72" style="fill: #dbdbd7"/>
      <circle cx="162.23" cy="12.73" r="0.72" style="fill: #dbdbd7"/>
      <circle cx="164.76" cy="15.82" r="0.72" style="fill: #dbdbd7"/>
      <rect height="0.81" style="fill: #843c39;stroke: #010101;stroke-miterlimit: 10;stroke-width: 0.1px" width="0.7" x="164.32" y="15.37"/>
      <path d="M164.82,7.8a6.4,6.4,0,1,0,6.4,6.4A6.4,6.4,0,0,0,164.82,7.8Zm-1.46,1.55a4.89,4.89,0,0,1,3.09.11l0,.47-.47.14a.47.47,0,0,0-.37.48v3.5a.32.32,0,0,0,.09.19.31.31,0,0,0,.15.08h.8v2.07a.32.32,0,0,1-.14.25.26.26,0,0,1-.14,0h-3.1a.59.59,0,0,1-.19-.25V14.27h.76a.27.27,0,0,0,.15-.05A.29.29,0,0,0,164,14V10.44a.7.7,0,0,0-.08-.17.91.91,0,0,0-.63-.36.37.37,0,0,1-.1-.2A.42.42,0,0,1,163.36,9.35Zm-1.13,7.29v.09h-.52a.26.26,0,0,0-.11.06.28.28,0,0,0-.08.2v1.14a4.62,4.62,0,0,1-1.77-3.58l2.25.05a.49.49,0,0,1,.23.22Zm-2.48-3.13a5.05,5.05,0,0,1,1.94-3.26.45.45,0,0,0,0,.48.42.42,0,0,0,.23.16,3.93,3.93,0,0,1,.89,0l.36.06.12,1.75-.74.92ZM167,18.85a4.71,4.71,0,0,1-4.24.06l-.08-1.61H167Zm-.58-6V11.2l.28-.31h1.17l.21-.21v-.42a4.46,4.46,0,0,1,1.74,3.32h-2.74Zm3.13,3.27a4.52,4.52,0,0,1-1.37,1.92l-.08,0L168,17a.19.19,0,0,0,0-.16.19.19,0,0,0-.12-.06l-.55,0,.09-1.93a.29.29,0,0,1,0-.14.3.3,0,0,1,.15-.12l2.2,0A4.46,4.46,0,0,1,169.53,16.16Z" style="fill: #ccc8c3"/>
      <circle cx="161.95" cy="12.45" r="0.18" style="fill: #010101"/>
      <circle cx="162.38" cy="13.02" r="0.18" style="fill: #010101"/>
      <circle cx="167.29" cy="12.35" r="0.18" style="fill: #010101"/>
      <circle cx="167.76" cy="12.94" r="0.18" style="fill: #010101"/>
      <circle cx="161.35" cy="11.21" r="0.14" style="fill: #c6b38c"/>
      <circle cx="161.95" cy="12.45" r="0.13" style="fill: #c6b38c"/>
      <circle cx="162.38" cy="13.02" r="0.13" style="fill: #c6b38c"/>
      <circle cx="161.82" cy="15.11" r="0.13" style="fill: #c6b38c"/>
      <circle cx="164.95" cy="17.77" r="0.13" style="fill: #c6b38c"/>
      <circle cx="164.63" cy="15.76" r="0.13" style="fill: #c6b38c"/>
      <circle cx="167.83" cy="15.11" r="0.13" style="fill: #c6b38c"/>
      <circle cx="167.29" cy="12.35" r="0.13" style="fill: #c6b38c"/>
      <circle cx="167.76" cy="12.94" r="0.13" style="fill: #c6b38c"/>
      <circle cx="168.33" cy="11.21" r="0.13" style="fill: #c6b38c"/>
      <line style="fill: none;stroke: #c6b38c;stroke-miterlimit: 10;stroke-width: 0.045354329049587px" x1="161.37" x2="162" y1="11.27" y2="12.36"/>
      <polyline points="162.35 13.05 162.11 13.44 161.87 15.06" style="fill: none;stroke: #c6b38c;stroke-miterlimit: 10;stroke-width: 0.045354329049587px"/>
      <line style="fill: none;stroke: #c6b38c;stroke-miterlimit: 10;stroke-width: 0.045354329049587px" x1="164.65" x2="164.98" y1="15.82" y2="17.74"/>
      <line style="fill: none;stroke: #c6b38c;stroke-miterlimit: 10;stroke-width: 0.030047243461013px" x1="164.63" x2="164.4" y1="15.76" y2="15.98"/>
      <line style="fill: none;stroke: #c6b38c;stroke-miterlimit: 10;stroke-width: 0.030047243461013px" x1="164.68" x2="164.88" y1="15.73" y2="15.54"/>
      <polyline points="164.65 15.76 164.9 16 164.41 15.51" style="fill: none;stroke: #c6b38c;stroke-miterlimit: 10;stroke-width: 0.030047243461013px"/>
      <polyline points="167.8 12.96 167.85 15.06 167.76 12.91" style="fill: none;stroke: #c6b38c;stroke-miterlimit: 10;stroke-width: 0.045354329049587px"/>
      <line style="fill: none;stroke: #c6b38c;stroke-miterlimit: 10;stroke-width: 0.045354329049587px" x1="168.31" x2="167.24" y1="11.21" y2="12.32"/>
    </g>
  </g>
  <g id="Connectors">
    <circle cx="1.73" cy="3.08" data-cir-type="female" id="circuitoCon_VDD" r="0.93" style="fill: none"/>
    <circle cx="1.73" cy="25.08" data-cir-type="female" id="circuitoCon_B" r="0.93" style="fill: none"/>
    <circle cx="1.73" cy="17.74" data-cir-type="female" id="circuitoCon_R" r="0.93" style="fill: none"/>
    <circle cx="1.73" cy="10.41" data-cir-type="female" id="circuitoCon_G" r="0.93" style="fill: none"/>
  </g>
  <g data-name="Layer 11" id="Layer_11">
    <rect height="12.88" rx="1.82" ry="1.82" style="fill: url(#linear-gradient-53)" width="3.64" x="39.88" y="8.13"/>
    <rect height="6.78" style="fill: url(#linear-gradient-54)" width="3.64" x="39.88" y="11.12"/>
    <rect height="12.88" rx="1.82" ry="1.82" style="fill: url(#linear-gradient-55)" width="3.64" x="50.24" y="8.11"/>
    <rect height="6.78" style="fill: url(#linear-gradient-56)" width="3.64" x="50.24" y="11.1"/>
    <rect height="12.88" rx="1.82" ry="1.82" style="fill: url(#linear-gradient-57)" width="3.64" x="92.9" y="7.61"/>
    <rect height="6.78" style="fill: url(#linear-gradient-58)" width="3.64" x="92.9" y="10.6"/>
    <rect height="12.88" rx="1.82" ry="1.82" style="fill: url(#linear-gradient-59)" width="3.64" x="181.75" y="8.3"/>
    <rect height="6.78" style="fill: url(#linear-gradient-60)" width="3.64" x="181.75" y="11.29"/>
    <rect height="12.88" rx="1.82" ry="1.82" style="fill: url(#linear-gradient-61)" width="3.64" x="192.01" y="8.45"/>
    <rect height="6.78" style="fill: url(#linear-gradient-62)" width="3.64" x="192.01" y="11.44"/>
    <rect height="12.88" rx="1.82" ry="1.82" style="fill: url(#linear-gradient-63)" width="3.64" x="234.66" y="7.95"/>
    <rect height="6.78" style="fill: url(#linear-gradient-64)" width="3.64" x="234.66" y="10.94"/>
  </g>
</svg>