<?xml version="1.0" ?><svg height="40.2mm" viewBox="0 0 190.23 113.96" width="67.11mm" xmlns="http://www.w3.org/2000/svg" xmlns:xlink="http://www.w3.org/1999/xlink">
  <defs>
    <linearGradient gradientUnits="userSpaceOnUse" id="linear-gradient" x1="90.52" x2="90.52" y1="113.96" y2="37.77">
      <stop offset="0"/>
      <stop offset="0.11" stop-color="#040404"/>
      <stop offset="0.23" stop-color="#111"/>
      <stop offset="0.32" stop-color="#212121"/>
      <stop offset="0.33" stop-color="#202020"/>
      <stop offset="0.46" stop-color="#0e0e0e"/>
      <stop offset="0.6" stop-color="#030303"/>
      <stop offset="0.76"/>
      <stop offset="0.8" stop-color="#070707"/>
      <stop offset="0.87" stop-color="#1b1b1b"/>
      <stop offset="0.93" stop-color="#333"/>
      <stop offset="0.98" stop-color="#0f0f0f"/>
      <stop offset="1"/>
    </linearGradient>
    <linearGradient id="linear-gradient-2" x1="71.47" x2="75.62" xlink:href="#linear-gradient" y1="75.86" y2="75.86"/>
    <linearGradient id="linear-gradient-3" x1="119.95" x2="124.09" xlink:href="#linear-gradient" y1="75.86" y2="75.86"/>
    <linearGradient id="linear-gradient-4" x1="153.14" x2="153.14" xlink:href="#linear-gradient" y1="93.18" y2="61.31"/>
    <linearGradient id="linear-gradient-5" x1="150.64" x2="150.64" xlink:href="#linear-gradient" y1="93.18" y2="61.31"/>
    <linearGradient id="linear-gradient-6" x1="166.91" x2="166.91" xlink:href="#linear-gradient" y1="89.03" y2="65.45"/>
    <linearGradient gradientTransform="translate(98.7 145.34) rotate(-90)" id="linear-gradient-7" x1="110.23" x2="133.81" xlink:href="#linear-gradient" y1="23.32" y2="23.32"/>
    <linearGradient id="linear-gradient-8" x1="178.38" x2="178.38" xlink:href="#linear-gradient" y1="90.53" y2="63.96"/>
    <linearGradient id="linear-gradient-9" x1="186.28" x2="186.28" xlink:href="#linear-gradient" y1="90.53" y2="63.96"/>
    <linearGradient id="linear-gradient-10" x1="108.55" x2="135.49" xlink:href="#linear-gradient" y1="11.86" y2="11.86"/>
    <linearGradient id="linear-gradient-11" x1="108.55" x2="135.49" xlink:href="#linear-gradient" y1="3.95" y2="3.95"/>
    <linearGradient id="linear-gradient-12" x1="106.03" x2="138.01" xlink:href="#linear-gradient" y1="34.11" y2="34.11"/>
    <linearGradient gradientUnits="userSpaceOnUse" id="linear-gradient-13" x1="17.08" x2="17.08" y1="105.52" y2="101.65">
      <stop offset="0" stop-color="red"/>
      <stop offset="0.46" stop-color="#fd0100"/>
      <stop offset="0.62" stop-color="#f60400"/>
      <stop offset="0.74" stop-color="#eb0a00"/>
      <stop offset="0.83" stop-color="#da1200"/>
      <stop offset="0.91" stop-color="#c41d00"/>
      <stop offset="0.98" stop-color="#a92a00"/>
      <stop offset="1" stop-color="#a22d00"/>
    </linearGradient>
    <linearGradient gradientUnits="userSpaceOnUse" id="linear-gradient-14" x1="17.08" x2="17.08" y1="111.13" y2="107.25">
      <stop offset="0"/>
      <stop offset="0.44" stop-color="#020202"/>
      <stop offset="0.6" stop-color="#090909"/>
      <stop offset="0.71" stop-color="#141414"/>
      <stop offset="0.8" stop-color="#252525"/>
      <stop offset="0.88" stop-color="#3b3b3b"/>
      <stop offset="0.95" stop-color="#565656"/>
      <stop offset="1" stop-color="#6e6e6e"/>
    </linearGradient>
  </defs>
  <title>Submersible Pool Water Pump</title>
  <g style="isolation: isolate">
    <g data-name="Layer 1" id="Layer_1">
      <rect height="76.19" style="fill: url(#linear-gradient)" width="112.73" x="34.15" y="37.77"/>
      <rect height="76.19" style="fill: url(#linear-gradient-2)" width="4.15" x="71.47" y="37.77"/>
      <rect height="76.19" style="fill: url(#linear-gradient-3)" width="4.15" x="119.95" y="37.77"/>
      <rect height="31.87" style="fill: url(#linear-gradient-4)" width="12.51" x="146.88" y="61.31"/>
      <rect height="31.87" style="fill: url(#linear-gradient-5)" width="7.52" x="146.88" y="61.31"/>
      <rect height="23.58" style="fill: url(#linear-gradient-6)" width="15.03" x="159.39" y="65.45"/>
      <rect height="23.58" style="fill: url(#linear-gradient-7)" transform="translate(145.34 -98.7) rotate(90)" width="15.03" x="114.5" y="11.53"/>
      <polygon points="182.33 87.87 174.42 90.53 174.42 63.96 182.33 66.61 182.33 87.87" style="fill: url(#linear-gradient-8)"/>
      <polygon points="190.23 87.87 182.33 90.53 182.33 63.96 190.23 66.61 190.23 87.87" style="fill: url(#linear-gradient-9)"/>
      <polygon points="132.79 7.9 135.49 15.81 108.55 15.81 111.25 7.9 132.79 7.9" style="fill: url(#linear-gradient-10)"/>
      <polygon points="132.79 0 135.49 7.9 108.55 7.9 111.25 0 132.79 0" style="fill: url(#linear-gradient-11)"/>
      <rect height="7.32" style="fill: url(#linear-gradient-12)" width="31.97" x="106.03" y="30.45"/>
      <g style="mix-blend-mode: multiply">
        <rect height="3.87" style="fill: url(#linear-gradient-13)" width="34.15" y="101.65"/>
      </g>
      <rect height="3.87" style="fill: url(#linear-gradient-14)" width="34.15" y="107.25"/>
    </g>
    <g id="Connectors">
      <rect data-cir-color="red" data-cir-type="female" height="3.87" id="circuitoCon_Coil2" style="fill: none" width="3.87" y="101.65"/>
      <rect data-cir-color="black" data-cir-type="female" height="3.87" id="circuitoCon_Coil1" style="fill: none" width="3.87" y="107.25"/>
    </g>
  </g>
</svg>