<?xml version="1.0" ?><svg data-name="Layer 1" height="100.02mm" id="Layer_1" viewBox="0 0 28.26 283.51" width="9.97mm" xmlns="http://www.w3.org/2000/svg" xmlns:xlink="http://www.w3.org/1999/xlink">
  <defs>
    <linearGradient gradientTransform="matrix(0, 1, 1, 0, -129.23, 127.58)" gradientUnits="userSpaceOnUse" id="linear-gradient" x1="-125.27" x2="-125.27" y1="151.27" y2="157.42">
      <stop offset="0" stop-color="#cb9552"/>
      <stop offset="0.5" stop-color="#d7b189"/>
      <stop offset="0.84" stop-color="#ab6c2e"/>
      <stop offset="0.96" stop-color="#9c530d"/>
    </linearGradient>
    <linearGradient id="linear-gradient-2" x1="-125.27" x2="-125.27" xlink:href="#linear-gradient" y1="139.94" y2="146.09"/>
    <linearGradient id="linear-gradient-3" x1="-125.27" x2="-125.27" xlink:href="#linear-gradient" y1="129.27" y2="135.43"/>
    <linearGradient gradientTransform="translate(-129.23 -436.87) rotate(-90)" id="linear-gradient-4" x1="-576.5" x2="-576.5" xlink:href="#linear-gradient" y1="151.32" y2="157.48"/>
    <linearGradient gradientTransform="translate(-129.23 -436.87) rotate(-90)" id="linear-gradient-5" x1="-576.5" x2="-576.5" xlink:href="#linear-gradient" y1="139.99" y2="146.15"/>
    <linearGradient gradientTransform="translate(-129.23 -436.87) rotate(-90)" id="linear-gradient-6" x1="-576.5" x2="-576.5" xlink:href="#linear-gradient" y1="129.33" y2="135.49"/>
    <linearGradient gradientTransform="matrix(0, 1, 1, 0, -129.23, 127.58)" gradientUnits="userSpaceOnUse" id="linear-gradient-7" x1="-14.65" x2="-12.02" y1="135.92" y2="135.92">
      <stop offset="0" stop-color="#e5e2df"/>
      <stop offset="0" stop-color="#ded9d6"/>
      <stop offset="0.27" stop-color="#e8e6e5"/>
      <stop offset="0.49" stop-color="#f3f4f4"/>
      <stop offset="0.58" stop-color="#e5e5e6"/>
      <stop offset="0.75" stop-color="#c0bec0"/>
      <stop offset="0.98" stop-color="#858085"/>
      <stop offset="1" stop-color="#807b80"/>
      <stop offset="1" stop-color="#d1d3d4"/>
    </linearGradient>
    <linearGradient id="linear-gradient-8" x1="-10.17" x2="-7.55" xlink:href="#linear-gradient-7" y1="135.84" y2="135.84"/>
    <linearGradient id="linear-gradient-9" x1="-5.7" x2="-3.07" xlink:href="#linear-gradient-7" y1="135.84" y2="135.84"/>
    <linearGradient id="linear-gradient-10" x1="-14.65" x2="-12.02" xlink:href="#linear-gradient-7" y1="150.81" y2="150.81"/>
    <linearGradient id="linear-gradient-11" x1="-10.17" x2="-7.55" xlink:href="#linear-gradient-7" y1="150.74" y2="150.74"/>
    <linearGradient id="linear-gradient-12" x1="-5.7" x2="-3.07" xlink:href="#linear-gradient-7" y1="150.74" y2="150.74"/>
    <linearGradient id="linear-gradient-13" x1="-62.48" x2="-59.86" xlink:href="#linear-gradient-7" y1="135.92" y2="135.92"/>
    <linearGradient id="linear-gradient-14" x1="-58.01" x2="-55.38" xlink:href="#linear-gradient-7" y1="135.84" y2="135.84"/>
    <linearGradient id="linear-gradient-15" x1="-53.53" x2="-50.91" xlink:href="#linear-gradient-7" y1="135.84" y2="135.84"/>
    <linearGradient id="linear-gradient-16" x1="-62.48" x2="-59.86" xlink:href="#linear-gradient-7" y1="150.81" y2="150.81"/>
    <linearGradient id="linear-gradient-17" x1="-58.01" x2="-55.38" xlink:href="#linear-gradient-7" y1="150.74" y2="150.74"/>
    <linearGradient id="linear-gradient-18" x1="-53.53" x2="-50.91" xlink:href="#linear-gradient-7" y1="150.74" y2="150.74"/>
    <linearGradient id="linear-gradient-19" x1="-110.22" x2="-107.59" xlink:href="#linear-gradient-7" y1="135.92" y2="135.92"/>
    <linearGradient id="linear-gradient-20" x1="-105.74" x2="-103.12" xlink:href="#linear-gradient-7" y1="135.84" y2="135.84"/>
    <linearGradient id="linear-gradient-21" x1="-101.27" x2="-98.64" xlink:href="#linear-gradient-7" y1="135.84" y2="135.84"/>
    <linearGradient id="linear-gradient-22" x1="-110.22" x2="-107.59" xlink:href="#linear-gradient-7" y1="150.81" y2="150.81"/>
    <linearGradient id="linear-gradient-23" x1="-105.74" x2="-103.12" xlink:href="#linear-gradient-7" y1="150.74" y2="150.74"/>
    <linearGradient id="linear-gradient-24" x1="-101.27" x2="-98.64" xlink:href="#linear-gradient-7" y1="150.74" y2="150.74"/>
    <linearGradient id="linear-gradient-25" x1="16.5" x2="16.5" xlink:href="#linear-gradient" y1="151.32" y2="157.48"/>
    <linearGradient id="linear-gradient-26" x1="16.5" x2="16.5" xlink:href="#linear-gradient" y1="139.99" y2="146.15"/>
    <linearGradient id="linear-gradient-27" x1="16.5" x2="16.5" xlink:href="#linear-gradient" y1="129.33" y2="135.49"/>
    <linearGradient gradientTransform="translate(-129.23 -436.87) rotate(-90)" id="linear-gradient-28" x1="-718.25" x2="-718.25" xlink:href="#linear-gradient" y1="151.38" y2="157.54"/>
    <linearGradient gradientTransform="translate(-129.23 -436.87) rotate(-90)" id="linear-gradient-29" x1="-718.25" x2="-718.25" xlink:href="#linear-gradient" y1="140.05" y2="146.21"/>
    <linearGradient gradientTransform="translate(-129.23 -436.87) rotate(-90)" id="linear-gradient-30" x1="-718.25" x2="-718.25" xlink:href="#linear-gradient" y1="129.39" y2="135.54"/>
    <linearGradient id="linear-gradient-31" x1="127.11" x2="129.74" xlink:href="#linear-gradient-7" y1="135.97" y2="135.97"/>
    <linearGradient id="linear-gradient-32" x1="131.59" x2="134.21" xlink:href="#linear-gradient-7" y1="135.9" y2="135.9"/>
    <linearGradient id="linear-gradient-33" x1="136.06" x2="138.69" xlink:href="#linear-gradient-7" y1="135.9" y2="135.9"/>
    <linearGradient id="linear-gradient-34" x1="127.11" x2="129.74" xlink:href="#linear-gradient-7" y1="150.87" y2="150.87"/>
    <linearGradient id="linear-gradient-35" x1="131.59" x2="134.21" xlink:href="#linear-gradient-7" y1="150.79" y2="150.79"/>
    <linearGradient id="linear-gradient-36" x1="136.06" x2="138.69" xlink:href="#linear-gradient-7" y1="150.79" y2="150.79"/>
    <linearGradient id="linear-gradient-37" x1="79.28" x2="81.91" xlink:href="#linear-gradient-7" y1="135.97" y2="135.97"/>
    <linearGradient id="linear-gradient-38" x1="83.75" x2="86.38" xlink:href="#linear-gradient-7" y1="135.9" y2="135.9"/>
    <linearGradient id="linear-gradient-39" x1="88.23" x2="90.86" xlink:href="#linear-gradient-7" y1="135.9" y2="135.9"/>
    <linearGradient id="linear-gradient-40" x1="79.28" x2="81.91" xlink:href="#linear-gradient-7" y1="150.87" y2="150.87"/>
    <linearGradient id="linear-gradient-41" x1="83.75" x2="86.38" xlink:href="#linear-gradient-7" y1="150.79" y2="150.79"/>
    <linearGradient id="linear-gradient-42" x1="88.23" x2="90.86" xlink:href="#linear-gradient-7" y1="150.79" y2="150.79"/>
    <linearGradient id="linear-gradient-43" x1="31.55" x2="34.17" xlink:href="#linear-gradient-7" y1="135.97" y2="135.97"/>
    <linearGradient id="linear-gradient-44" x1="36.02" x2="38.65" xlink:href="#linear-gradient-7" y1="135.9" y2="135.9"/>
    <linearGradient id="linear-gradient-45" x1="40.5" x2="43.12" xlink:href="#linear-gradient-7" y1="135.9" y2="135.9"/>
    <linearGradient id="linear-gradient-46" x1="31.55" x2="34.17" xlink:href="#linear-gradient-7" y1="150.87" y2="150.87"/>
    <linearGradient id="linear-gradient-47" x1="36.02" x2="38.65" xlink:href="#linear-gradient-7" y1="150.79" y2="150.79"/>
    <linearGradient id="linear-gradient-48" x1="40.5" x2="43.12" xlink:href="#linear-gradient-7" y1="150.79" y2="150.79"/>
    <linearGradient id="linear-gradient-49" x1="-87.74" x2="-84.1" xlink:href="#linear-gradient-7" y1="142.86" y2="142.86"/>
    <linearGradient gradientTransform="matrix(0, 1, 1, 0, -129.23, 127.58)" gradientUnits="userSpaceOnUse" id="linear-gradient-50" x1="-87.74" x2="-84.1" y1="142.92" y2="142.92">
      <stop offset="0" stop-color="#323232"/>
      <stop offset="0.5" stop-color="#919191"/>
      <stop offset="1" stop-color="#1a1a1a"/>
    </linearGradient>
    <linearGradient id="linear-gradient-51" x1="-77.38" x2="-73.73" xlink:href="#linear-gradient-7" y1="142.87" y2="142.87"/>
    <linearGradient id="linear-gradient-52" x1="-77.38" x2="-73.73" xlink:href="#linear-gradient-50" y1="142.93" y2="142.93"/>
    <linearGradient id="linear-gradient-53" x1="-34.72" x2="-31.08" xlink:href="#linear-gradient-7" y1="143.37" y2="143.37"/>
    <linearGradient id="linear-gradient-54" x1="-34.72" x2="-31.08" xlink:href="#linear-gradient-50" y1="143.43" y2="143.43"/>
    <linearGradient id="linear-gradient-55" x1="54.13" x2="57.77" xlink:href="#linear-gradient-7" y1="142.68" y2="142.68"/>
    <linearGradient id="linear-gradient-56" x1="54.13" x2="57.77" xlink:href="#linear-gradient-50" y1="142.74" y2="142.74"/>
    <linearGradient id="linear-gradient-57" x1="64.39" x2="68.03" xlink:href="#linear-gradient-7" y1="142.54" y2="142.54"/>
    <linearGradient id="linear-gradient-58" x1="64.39" x2="68.03" xlink:href="#linear-gradient-50" y1="142.6" y2="142.6"/>
    <linearGradient id="linear-gradient-59" x1="107.04" x2="110.68" xlink:href="#linear-gradient-7" y1="143.04" y2="143.04"/>
    <linearGradient id="linear-gradient-60" x1="107.04" x2="110.68" xlink:href="#linear-gradient-50" y1="143.1" y2="143.1"/>
  </defs>
  <title>circuito_LED RGB Strip - Addressable, Sealed (1m) - For LED Strip 90</title>
  <g data-name="Layer 4" id="Layer_4">
    <g data-name="Layer 1" id="Layer_1-2">
      <g>
        <rect height="141.8" style="fill: #c7c6c5" width="28.09" x="0.05"/>
        <rect height="141.8" style="fill: #ededee" width="27.83" x="0.18"/>
        <g>
          <g>
            <path d="M6.1,111.25v-1.94h16v2.1a.22.22,0,0,1-.27.17.23.23,0,0,1-.18-.17v-1.65H6.55v1.49a.24.24,0,0,1-.18.27.22.22,0,0,1-.27-.18A.14.14,0,0,1,6.1,111.25Z" style="fill: #585856"/>
            <path d="M6.1,127.78v-1.94a.23.23,0,0,1,.45,0v1.49h15.1v-1.65a.25.25,0,0,1,.28-.18.24.24,0,0,1,.17.18v2.1Z" style="fill: #585856"/>
          </g>
          <g>
            <path d="M6.1,63.48V61.54h16v2.1a.22.22,0,0,1-.17.27.23.23,0,0,1-.28-.17V62H6.55v1.5a.24.24,0,0,1-.18.27.22.22,0,0,1-.27-.17A.17.17,0,0,1,6.1,63.48Z" style="fill: #585856"/>
            <path d="M6.1,80v-1.9a.22.22,0,0,1,.27-.18.24.24,0,0,1,.18.18v1.49h15.1V77.92a.25.25,0,0,1,.18-.28.24.24,0,0,1,.27.18.17.17,0,0,1,0,.1V80Z" style="fill: #585856"/>
          </g>
          <g>
            <path d="M6.1,15.72v-2h16v2.1a.23.23,0,0,1-.17.27.25.25,0,0,1-.28-.18V14.23H6.55v1.49a.23.23,0,0,1-.27.17A.24.24,0,0,1,6.1,15.72Z" style="fill: #585856"/>
            <path d="M6.1,32.25V30.3A.22.22,0,0,1,6.28,30a.23.23,0,0,1,.27.18v1.58h15.1V30.15a.25.25,0,0,1,.28-.18.24.24,0,0,1,.17.18v2.1Z" style="fill: #585856"/>
          </g>
        </g>
        <g>
          <path d="M25.07,4.63A3.08,3.08,0,0,1,22,1.55h0V.07h6.15V1.55A3.08,3.08,0,0,1,25.07,4.63Z" style="fill: url(#linear-gradient)"/>
          <path d="M13.74,4.63a3.08,3.08,0,0,1-3.07-3.08V.07h6.14V1.55a3.07,3.07,0,0,1-3.07,3.08Z" style="fill: url(#linear-gradient-2)"/>
          <path d="M3.08,4.63A3.08,3.08,0,0,1,0,1.55V.07H6.16V1.55A3.08,3.08,0,0,1,3.08,4.63Z" style="fill: url(#linear-gradient-3)"/>
        </g>
        <g>
          <path d="M25.12,137.17A3.08,3.08,0,0,0,22,140.25h0v1.48H28.2v-1.48a3.08,3.08,0,0,0-3.08-3.08Z" style="fill: url(#linear-gradient-4)"/>
          <path d="M13.8,137.17a3.08,3.08,0,0,0-3.08,3.08h0v1.48h6.15v-1.48a3.07,3.07,0,0,0-3.07-3.08Z" style="fill: url(#linear-gradient-5)"/>
          <path d="M3.14,137.17a3.08,3.08,0,0,0-3.08,3.08h0v1.48H6.22v-1.48a3.08,3.08,0,0,0-3.08-3.08Z" style="fill: url(#linear-gradient-6)"/>
        </g>
        <g>
          <path d="M11.44,3.44c.88-.51,1.33-1.33,1-1.87l-.08-.11.56-.27c.41-.19.81-.39,1.21-.6,1.14.55,2.26,1.09,3.13,1.47s2.29.87,2.29.87l.08-.16s-1.22-.88-2-1.38c-.56-.35-1.25-.75-2-1.17h12.5V0H.05V.22H12.47c-.52.28-1,.57-1.4.82l-.5.33-.23.12A2,2,0,0,0,9.27,3a.68.68,0,0,0,0,.4.78.78,0,0,0,.51.37A2.27,2.27,0,0,0,11.44,3.44ZM10,3.32a.34.34,0,0,1-.23-.15c-.09-.17,0-.48.3-.78A2.18,2.18,0,0,1,10.58,2a1.83,1.83,0,0,1,1.25-.28h.06a.31.31,0,0,1,.17.13.33.33,0,0,1,0,.14A1.63,1.63,0,0,1,11.2,3,1.86,1.86,0,0,1,10,3.32Z" style="fill: #585856"/>
          <path d="M28.14,141.58H15.61c.74-.41,1.43-.82,2-1.17.81-.5,2-1.38,2-1.38l-.08-.16s-1.42.49-2.29.87-2,.91-3.13,1.47l-1.18-.61-.56-.27.08-.11c.31-.54-.14-1.36-1-1.87A2.23,2.23,0,0,0,9.83,138a.78.78,0,0,0-.51.37.6.6,0,0,0-.09.37,2,2,0,0,0,1.12,1.49l.23.12.5.33c.4.25.87.54,1.4.82H.07v.22H28.14Zm-17.57-1.73a2.42,2.42,0,0,1-.56-.44c-.28-.3-.39-.61-.3-.78a.34.34,0,0,1,.23-.15,1.85,1.85,0,0,1,1.25.28,1.62,1.62,0,0,1,.89,1.08.33.33,0,0,1,0,.14.37.37,0,0,1-.17.13h-.06a1.82,1.82,0,0,1-1.27-.26Z" style="fill: #585856"/>
        </g>
        <g>
          <g>
            <path d="M16,45.93a.23.23,0,0,1,.23-.23h5.63V37.78H16.27a.23.23,0,1,1-.1-.45h6.17v8.83H16.27a.23.23,0,0,1-.24-.22Z" style="fill: #585856"/>
            <path d="M4.82,46.16V37.33h6.1a.23.23,0,1,1,.09.45H5.27v7.93h5.66a.23.23,0,0,1,.27.17.23.23,0,0,1-.18.28H4.82Z" style="fill: #585856"/>
          </g>
          <g>
            <path d="M16,56.29a.23.23,0,0,1,.23-.23h5.63V48.15H16.27A.25.25,0,0,1,16,48a.23.23,0,0,1,.18-.27.17.17,0,0,1,.1,0h6.07v8.82H16.27A.22.22,0,0,1,16,56.3Z" style="fill: #585856"/>
            <path d="M4.82,56.51V47.7h6.1a.23.23,0,0,1,.27.17.23.23,0,0,1-.18.28H5.27v7.92h5.66a.24.24,0,0,1,.27.18.22.22,0,0,1-.18.27H4.82Z" style="fill: #585856"/>
          </g>
          <g>
            <path d="M16.46,98.88a.23.23,0,0,1,.23-.23h5.65V90.72H16.69a.23.23,0,0,1-.27-.17.25.25,0,0,1,.18-.28h6.19V99.1h-6.1A.24.24,0,0,1,16.46,98.88Z" style="fill: #585856"/>
            <path d="M5.27,99.1V90.27h6.1a.24.24,0,0,1,.27.18.22.22,0,0,1-.18.27.14.14,0,0,1-.09,0H5.72v7.93h5.65a.23.23,0,1,1,.09.45.14.14,0,0,1-.09,0Z" style="fill: #585856"/>
          </g>
        </g>
      </g>
      <g>
        <line style="fill: none;stroke: #585856;stroke-linecap: round;stroke-linejoin: round;stroke-width: 0.4251968562602997px" x1="25.54" x2="25.54" y1="130.18" y2="126.07"/>
        <line style="fill: none;stroke: #585856;stroke-linecap: round;stroke-linejoin: round;stroke-width: 0.4251968562602997px" x1="25.54" x2="26.5" y1="130.26" y2="129.3"/>
        <line style="fill: none;stroke: #585856;stroke-linecap: round;stroke-linejoin: round;stroke-width: 0.4251968562602997px" x1="25.53" x2="24.57" y1="130.26" y2="129.3"/>
      </g>
    </g>
    <g id="Text">
      <g>
        <path d="M26.69,5.79v.76a.53.53,0,0,1-.1.29.63.63,0,0,1-.23.16l-.77.38a.93.93,0,0,1-.86,0L24,7a.66.66,0,0,1-.23-.21.56.56,0,0,1-.09-.31v-.7a.18.18,0,0,1,.06-.14.18.18,0,0,1,.13-.06.17.17,0,0,1,.14.06.18.18,0,0,1,.06.14V6h2.21V5.8a.18.18,0,0,1,.06-.14.2.2,0,0,1,.14-.06.18.18,0,0,1,.19.19Zm-.43.58H24V6.5a.21.21,0,0,0,.13.19l.75.38a.78.78,0,0,0,.25.07.48.48,0,0,0,.24-.06l.78-.39a.2.2,0,0,0,.07-.2Z" style="fill: #585856"/>
        <path d="M26.69,8.61v1.55a.18.18,0,0,1-.06.13.18.18,0,0,1-.27,0,.18.18,0,0,1-.06-.13V9.58H24v.58a.19.19,0,0,1-.19.19.2.2,0,0,1-.19-.19V8.61a.19.19,0,0,1,.19-.19.18.18,0,0,1,.19.19h0V9.2h2.22V8.61a.17.17,0,0,1,.06-.14.18.18,0,0,1,.13-.06.18.18,0,0,1,.14.06A.17.17,0,0,1,26.69,8.61Z" style="fill: #585856"/>
        <path d="M26.49,13.17H23.66v-.51l2.35-1H23.85a.2.2,0,0,1-.19-.19.19.19,0,0,1,.19-.19h2.84v.51l-2.35,1h2.15a.2.2,0,0,1,.2.2.2.2,0,0,1-.06.14A.23.23,0,0,1,26.49,13.17Z" style="fill: #585856"/>
      </g>
      <g>
        <path d="M12.45,6.3v.89h.94V6h1.7V7.38a.2.2,0,0,1-.19.19.19.19,0,0,1-.19-.19h0v-1h-.94v.77a.4.4,0,0,1-.38.38h-.94a.39.39,0,0,1-.38-.38V6.3a.51.51,0,0,1,.06-.3l.14-.24a.16.16,0,0,1,.18-.12.19.19,0,0,1,.14.05.2.2,0,0,1,.06.13V6l-.11.25Z" style="fill: #585856"/>
        <path d="M14.9,10.36h-.7l-2-.78a.2.2,0,0,1-.13-.26.2.2,0,0,1,.13-.12l2-.78h.7a.2.2,0,0,1,.14.06.17.17,0,0,1,.06.14.25.25,0,0,1-.06.14.2.2,0,0,1-.14.06h-.63l-1.49.58,1.49.6h.63a.2.2,0,0,1,.14.06.2.2,0,0,1,.06.14.2.2,0,0,1-.06.14A.24.24,0,0,1,14.9,10.36Z" style="fill: #585856"/>
      </g>
      <g>
        <path d="M4.56,6.71v.64a.2.2,0,0,1-.19.19h0a.18.18,0,0,1-.14-.06.18.18,0,0,1-.06-.13V6.74a.18.18,0,0,0-.08-.16L3.4,6a.3.3,0,0,0-.23,0H2.11A.17.17,0,0,0,2,6a.17.17,0,0,0-.06.14V7a.19.19,0,0,0,.19.19h.42v-.4a.18.18,0,0,1,.19-.19h0a.16.16,0,0,1,.14.05.17.17,0,0,1,.06.14v.78h-.8A.58.58,0,0,1,1.53,7V6.17a.57.57,0,0,1,.17-.41.53.53,0,0,1,.41-.17H3.16a.76.76,0,0,1,.48.15l.72.57A.56.56,0,0,1,4.56,6.71Z" style="fill: #585856"/>
        <path d="M4.36,10.35H1.53V9.84l2.35-1H1.72a.19.19,0,0,1-.19-.19h0a.17.17,0,0,1,.06-.14.2.2,0,0,1,.14-.06H4.56V9L2.21,10H4.36A.2.2,0,0,1,4.5,10a.17.17,0,0,1,.06.14.2.2,0,0,1-.06.14A.24.24,0,0,1,4.36,10.35Z" style="fill: #585856"/>
        <path d="M4.56,11.43v.76a.53.53,0,0,1-.1.29.66.66,0,0,1-.23.21l-.77.38a.93.93,0,0,1-.86,0l-.76-.38a.66.66,0,0,1-.23-.21.59.59,0,0,1-.09-.31v-.73a.18.18,0,0,1,.19-.19h0a.2.2,0,0,1,.14.06.17.17,0,0,1,.06.14v.2H4.17v-.2a.17.17,0,0,1,.06-.14.18.18,0,0,1,.14-.06.18.18,0,0,1,.13.06A.23.23,0,0,1,4.56,11.43ZM4.17,12H1.91v.13a.22.22,0,0,0,.12.19l.75.38a.72.72,0,0,0,.25.07.5.5,0,0,0,.24-.06l.78-.39a.22.22,0,0,0,.12-.2Z" style="fill: #585856"/>
      </g>
      <g>
        <path d="M27,131.26V132a.51.51,0,0,1-.1.29.52.52,0,0,1-.23.21l-.77.38a.88.88,0,0,1-.86,0l-.76-.38a.66.66,0,0,1-.23-.21.56.56,0,0,1-.09-.31v-.73a.2.2,0,0,1,.06-.14.18.18,0,0,1,.13-.06.17.17,0,0,1,.14.06.2.2,0,0,1,.06.14v.2h2.26v-.2a.21.21,0,0,1,.2-.2.19.19,0,0,1,.19.19Zm-.39.58H24.32V132a.21.21,0,0,0,.13.19l.75.38a.72.72,0,0,0,.25.07.48.48,0,0,0,.24-.06l.78-.39a.2.2,0,0,0,.12-.2Z" style="fill: #585856"/>
        <path d="M26.69,135.31l-.86.42a.85.85,0,0,1-.76,0l-.85-.42a.47.47,0,0,1-.28-.46.5.5,0,0,1,.08-.27.49.49,0,0,1,.2-.18l.85-.44a.94.94,0,0,1,.76,0l.86.42a.47.47,0,0,1,.28.46A.46.46,0,0,1,26.69,135.31Zm-.19-.58-.81-.4a.64.64,0,0,0-.24-.05.52.52,0,0,0-.24.05l-.82.41a.13.13,0,0,0-.08.12.13.13,0,0,0,.08.11l.82.41a.53.53,0,0,0,.24.06.48.48,0,0,0,.24-.06l.81-.4a.14.14,0,0,0,.09-.12A.13.13,0,0,0,26.5,134.73Z" style="fill: #585856"/>
      </g>
      <g>
        <path d="M12.73,131.77v.89h.94V131.5h1.7v1.35a.2.2,0,0,1-.19.19.19.19,0,0,1-.19-.19v-1h-.94v.77a.4.4,0,0,1-.38.38h-.94a.39.39,0,0,1-.38-.38v-.89a.54.54,0,0,1,.06-.25l.12-.29a.17.17,0,0,1,.18-.12.24.24,0,0,1,.14.05.2.2,0,0,1,.06.13v.13l-.11.25Z" style="fill: #585856"/>
        <path d="M15.18,135.83h-.7l-2-.78a.19.19,0,0,1-.13-.25.21.21,0,0,1,.13-.13l2-.78h.7a.2.2,0,0,1,.14.06.18.18,0,0,1,.06.14.25.25,0,0,1-.06.14.2.2,0,0,1-.14.06h-.62l-1.49.58,1.48.58h.63a.2.2,0,0,1,.14.06.25.25,0,0,1,.06.14.2.2,0,0,1-.06.14A.23.23,0,0,1,15.18,135.83Z" style="fill: #585856"/>
      </g>
      <g>
        <path d="M4.84,129.36v.6a.19.19,0,0,1-.19.19h0a.18.18,0,0,1-.14-.06.16.16,0,0,1-.06-.13v-.61a.21.21,0,0,0-.08-.16l-.69-.54a.39.39,0,0,0-.23-.07H2.39a.21.21,0,0,0-.2.2v.78a.18.18,0,0,0,.19.19H2.8v-.4a.19.19,0,0,1,.19-.19H3a.24.24,0,0,1,.14.05.2.2,0,0,1,.06.14v.78h-.8a.57.57,0,0,1-.58-.57v-.78a.58.58,0,0,1,.17-.41.57.57,0,0,1,.41-.17h1a.83.83,0,0,1,.48.15l.72.57a.56.56,0,0,1,.2.4Z" style="fill: #585856"/>
        <path d="M4.64,133H1.81v-.51l2.35-1H2a.18.18,0,0,1-.19-.19h0a.21.21,0,0,1,.2-.2H4.84v.51l-2.35,1H4.64a.2.2,0,0,1,.14.34A.24.24,0,0,1,4.64,133Z" style="fill: #585856"/>
        <path d="M4.84,134.08v.76a.53.53,0,0,1-.1.29.66.66,0,0,1-.23.21l-.77.38a.93.93,0,0,1-.86,0l-.76-.38a.66.66,0,0,1-.23-.21.56.56,0,0,1-.09-.31v-.73A.18.18,0,0,1,2,133.9H2a.2.2,0,0,1,.14.06.18.18,0,0,1,.06.14v.2H4.45v-.2a.21.21,0,0,1,.2-.2.18.18,0,0,1,.13.06A.23.23,0,0,1,4.84,134.08Zm-.39.58H2.19v.13a.21.21,0,0,0,.08.17l.75.38a.72.72,0,0,0,.25.07.53.53,0,0,0,.24-.06l.78-.39a.22.22,0,0,0,.12-.2Z" style="fill: #585856"/>
      </g>
    </g>
    <g id="Leds">
      <g>
        <g>
          <rect height="2.63" rx="1.3" ry="1.3" style="fill: url(#linear-gradient-7)" width="4.48" x="4.41" y="112.94"/>
          <rect height="2.63" rx="1.3" ry="1.3" style="fill: url(#linear-gradient-8)" width="4.48" x="4.33" y="117.41"/>
          <rect height="2.63" rx="1.3" ry="1.3" style="fill: url(#linear-gradient-9)" width="4.48" x="4.33" y="121.88"/>
        </g>
        <g>
          <rect height="2.63" rx="1.3" ry="1.3" style="fill: url(#linear-gradient-10)" width="4.48" x="19.29" y="112.94"/>
          <rect height="2.63" rx="1.3" ry="1.3" style="fill: url(#linear-gradient-11)" width="4.48" x="19.22" y="117.41"/>
          <rect height="2.63" rx="1.3" ry="1.3" style="fill: url(#linear-gradient-12)" width="4.48" x="19.22" y="121.88"/>
        </g>
        <rect height="15.66" style="fill: #d4d4d4" width="15.79" x="6.05" y="110.75"/>
        <polygon points="21.6 111.08 8.67 111.08 6.41 113.14 6.41 126.15 6.66 126.35 21.6 126.35 21.6 111.08" style="fill: #ededee"/>
        <path d="M17.26,117l.06-.36a3.32,3.32,0,0,0,0-.89.53.53,0,0,1,.16-.23.46.46,0,0,1,.48,0,5,5,0,0,0-3.25-1.93l-.11,2.79.92.74Z" style="fill: #87909e"/>
        <path d="M13.65,115.76l0-2.24a4.59,4.59,0,0,0-3.58,1.76h1.15a.32.32,0,0,1,.2.08.3.3,0,0,1,.06.11V116h1.9a.54.54,0,0,0,.22-.23Z" style="fill: #87909e"/>
        <path d="M9.33,116.5a4.69,4.69,0,0,0,.06,4.24h1.55v-4.32Z" style="fill: #87909e"/>
        <path d="M13.7,121.36a.44.44,0,0,0-.12-.15h-.14l-1.93-.09v.55a.23.23,0,0,1-.06.12.15.15,0,0,1-.16,0H10.22v.08a4.47,4.47,0,0,0,1.92,1.37,4.26,4.26,0,0,0,1.66.27Z" style="fill: #87909e"/>
        <path d="M16.47,123.08A4.29,4.29,0,0,0,18,121.82h-.42l-.21-.21v-1.17l-.31-.28H15.36l-.69.67v2.74A4.36,4.36,0,0,0,16.47,123.08Z" style="fill: #87909e"/>
        <path d="M18.32,117.09a.84.84,0,0,1-.36.63.38.38,0,0,1-.17.08H14.27a.27.27,0,0,1-.22-.11.2.2,0,0,1-.05-.15v-.76H11.85a.6.6,0,0,0-.25.19v3.1a.17.17,0,0,0,0,.14.29.29,0,0,0,.25.14h2.08v-.8a.37.37,0,0,1,.08-.15.31.31,0,0,1,.19-.09h3.49a.47.47,0,0,1,.48.37l.14.47h.47a4.88,4.88,0,0,0,.11-3.09.33.33,0,0,0-.57,0Z" style="fill: #87909e"/>
        <circle cx="15.66" cy="121.3" r="0.72" style="fill: #dbdbd7"/>
        <circle cx="15.51" cy="115.99" r="0.72" style="fill: #dbdbd7"/>
        <circle cx="12.42" cy="118.52" r="0.72" style="fill: #dbdbd7"/>
        <rect height="0.7" style="fill: #843c39;stroke: #010101;stroke-miterlimit: 10;stroke-width: 0.10000000149011612px" width="0.81" x="12.07" y="118.08"/>
        <path d="M20.44,118.59a6.4,6.4,0,1,0-6.39,6.4,6.39,6.39,0,0,0,6.39-6.4Zm-1.55-1.46a4.88,4.88,0,0,1-.11,3.09h-.47l-.14-.47a.47.47,0,0,0-.48-.37H14.2a.31.31,0,0,0-.19.09.37.37,0,0,0-.08.15v.8H11.86a.29.29,0,0,1-.25-.14.17.17,0,0,1,0-.14V117a.6.6,0,0,1,.25-.19H14v.76a.2.2,0,0,0,0,.15.27.27,0,0,0,.22.11H17.8a.38.38,0,0,0,.17-.08.84.84,0,0,0,.36-.63.54.54,0,0,1,.2-.1.43.43,0,0,1,.35.14ZM11.6,116h-.09v-.52a.3.3,0,0,0-.06-.11.32.32,0,0,0-.2-.08H10.11a4.59,4.59,0,0,1,3.58-1.76l0,2.24a.54.54,0,0,1-.22.23Zm3.13-2.47A5,5,0,0,1,18,115.42a.46.46,0,0,0-.48,0,.53.53,0,0,0-.16.23,3.32,3.32,0,0,1,0,.89l-.08.42-1.74.12-.92-.74ZM9.39,120.7a4.69,4.69,0,0,1-.06-4.24l1.61-.08v4.32Zm6-.58H17l.31.28v1.17l.21.21H18a4.43,4.43,0,0,1-3.31,1.74v-2.74Zm-3.27,3.13A4.37,4.37,0,0,1,10.17,122v-.08h1.07a.15.15,0,0,0,.16,0,.23.23,0,0,0,.06-.12v-.55l1.93.09h.14a.44.44,0,0,1,.12.15v2.2a4.43,4.43,0,0,1-1.57-.35Z" style="fill: #ccc8c3"/>
        <circle cx="15.79" cy="115.71" r="0.18" style="fill: #010101"/>
        <circle cx="15.23" cy="116.14" r="0.18" style="fill: #010101"/>
        <circle cx="15.89" cy="121.05" r="0.18" style="fill: #010101"/>
        <circle cx="15.31" cy="121.52" r="0.18" style="fill: #010101"/>
        <circle cx="17.03" cy="115.13" r="0.14" style="fill: #c6b38c"/>
        <circle cx="15.79" cy="115.71" r="0.13" style="fill: #c6b38c"/>
        <circle cx="15.23" cy="116.14" r="0.13" style="fill: #c6b38c"/>
        <circle cx="13.14" cy="115.58" r="0.13" style="fill: #c6b38c"/>
        <circle cx="10.47" cy="118.71" r="0.13" style="fill: #c6b38c"/>
        <circle cx="12.49" cy="118.39" r="0.13" style="fill: #c6b38c"/>
        <circle cx="13.14" cy="121.59" r="0.13" style="fill: #c6b38c"/>
        <circle cx="15.89" cy="121.05" r="0.13" style="fill: #c6b38c"/>
        <circle cx="15.31" cy="121.52" r="0.13" style="fill: #c6b38c"/>
        <circle cx="17.03" cy="122.1" r="0.13" style="fill: #c6b38c"/>
        <line style="fill: none;stroke: #c6b38c;stroke-miterlimit: 10;stroke-width: 0.04535432904958725px" x1="16.96" x2="15.88" y1="115.14" y2="115.76"/>
        <polyline points="15.19 116.11 14.8 115.89 13.18 115.64" style="fill: none;stroke: #c6b38c;stroke-miterlimit: 10;stroke-width: 0.04535432904958725px"/>
        <line style="fill: none;stroke: #c6b38c;stroke-miterlimit: 10;stroke-width: 0.04535432904958725px" x1="12.42" x2="10.5" y1="118.41" y2="118.74"/>
        <line style="fill: none;stroke: #c6b38c;stroke-miterlimit: 10;stroke-width: 0.03004724346101284px" x1="12.49" x2="12.26" y1="118.39" y2="118.17"/>
        <line style="fill: none;stroke: #c6b38c;stroke-miterlimit: 10;stroke-width: 0.03004724346101284px" x1="12.51" x2="12.71" y1="118.45" y2="118.64"/>
        <polyline points="12.49 118.42 12.24 118.66 12.73 118.17" style="fill: none;stroke: #c6b38c;stroke-miterlimit: 10;stroke-width: 0.03004724346101284px"/>
        <polyline points="15.29 121.56 13.18 121.62 15.32 121.52" style="fill: none;stroke: #c6b38c;stroke-miterlimit: 10;stroke-width: 0.04535432904958725px"/>
        <line style="fill: none;stroke: #c6b38c;stroke-miterlimit: 10;stroke-width: 0.04535432904958725px" x1="17.03" x2="15.93" y1="122.08" y2="121"/>
      </g>
      <g>
        <g>
          <rect height="2.63" rx="1.3" ry="1.3" style="fill: url(#linear-gradient-13)" width="4.48" x="4.41" y="65.12"/>
          <rect height="2.63" rx="1.3" ry="1.3" style="fill: url(#linear-gradient-14)" width="4.48" x="4.33" y="69.59"/>
          <rect height="2.63" rx="1.3" ry="1.3" style="fill: url(#linear-gradient-15)" width="4.48" x="4.33" y="74.07"/>
        </g>
        <g>
          <rect height="2.63" rx="1.3" ry="1.3" style="fill: url(#linear-gradient-16)" width="4.48" x="19.29" y="65.12"/>
          <rect height="2.63" rx="1.3" ry="1.3" style="fill: url(#linear-gradient-17)" width="4.48" x="19.22" y="69.59"/>
          <rect height="2.63" rx="1.3" ry="1.3" style="fill: url(#linear-gradient-18)" width="4.48" x="19.22" y="74.07"/>
        </g>
        <rect height="15.66" style="fill: #d4d4d4" width="15.79" x="6.05" y="62.93"/>
        <polygon points="21.6 63.25 8.67 63.25 6.41 65.31 6.41 78.34 6.66 78.53 21.6 78.53 21.6 63.25" style="fill: #ededee"/>
        <path d="M17.26,69.11l.06-.36a3.32,3.32,0,0,0,0-.89.53.53,0,0,1,.16-.23.46.46,0,0,1,.48,0,5,5,0,0,0-3.25-1.94l-.11,2.8.92.74Z" style="fill: #87909e"/>
        <path d="M13.65,68l0-2.25a4.63,4.63,0,0,0-3.58,1.77h1.15a.32.32,0,0,1,.2.08.24.24,0,0,1,.06.11v.52h1.9A.54.54,0,0,0,13.65,68Z" style="fill: #87909e"/>
        <path d="M9.33,68.68a4.69,4.69,0,0,0,.06,4.24h1.55V68.6Z" style="fill: #87909e"/>
        <path d="M13.7,73.55a.36.36,0,0,0-.12-.15.33.33,0,0,0-.14,0l-1.93-.09v.55a.27.27,0,0,1-.06.12.19.19,0,0,1-.18,0H10.2v.08a4.47,4.47,0,0,0,1.92,1.37,4.66,4.66,0,0,0,1.66.27Z" style="fill: #87909e"/>
        <path d="M16.47,75.27A4.48,4.48,0,0,0,18,74h-.42l-.21-.21V72.63L17,72.35H15.36l-.69.67v2.74A4.52,4.52,0,0,0,16.47,75.27Z" style="fill: #87909e"/>
        <path d="M18.32,69.27a.86.86,0,0,1-.36.63l-.17.08H14.27a.27.27,0,0,1-.22-.11.23.23,0,0,1-.05-.15V69H11.85a.53.53,0,0,0-.25.19v3.1a.17.17,0,0,0,0,.14.34.34,0,0,0,.25.14h2.08v-.8A.28.28,0,0,1,14,71.6a.31.31,0,0,1,.19-.09h3.49a.46.46,0,0,1,.48.37l.14.47h.47a4.88,4.88,0,0,0,.11-3.09.41.41,0,0,0-.36-.14A.39.39,0,0,0,18.32,69.27Z" style="fill: #87909e"/>
        <circle cx="15.66" cy="73.49" r="0.72" style="fill: #dbdbd7"/>
        <circle cx="15.51" cy="68.18" r="0.72" style="fill: #dbdbd7"/>
        <circle cx="12.42" cy="70.71" r="0.72" style="fill: #dbdbd7"/>
        <rect height="0.7" style="fill: #843c39;stroke: #010101;stroke-miterlimit: 10;stroke-width: 0.10000000149011612px" width="0.81" x="12.07" y="70.27"/>
        <path d="M20.44,70.77a6.4,6.4,0,1,0-6.39,6.4,6.39,6.39,0,0,0,6.39-6.4Zm-1.56-1.46a4.88,4.88,0,0,1-.11,3.09H18.3l-.14-.47a.46.46,0,0,0-.48-.37H14.19a.31.31,0,0,0-.19.09.28.28,0,0,0-.08.15v.8H11.85a.34.34,0,0,1-.25-.14.17.17,0,0,1,0-.14v-3.1a.53.53,0,0,1,.25-.19H14v.76a.23.23,0,0,0,0,.15.31.31,0,0,0,.25,0H17.8L18,69.9a.86.86,0,0,0,.36-.63.42.42,0,0,1,.2-.1A.4.4,0,0,1,18.88,69.31ZM11.6,68.18h-.09v-.52a.24.24,0,0,0-.06-.11.32.32,0,0,0-.2-.08H10.11a4.63,4.63,0,0,1,3.58-1.77l0,2.25a.54.54,0,0,1-.22.23Zm3.13-2.48A5,5,0,0,1,18,67.64a.46.46,0,0,0-.48,0,.53.53,0,0,0-.16.23,3.32,3.32,0,0,1,0,.89l-.06.36-1.74.12-.92-.74ZM9.39,72.92a4.69,4.69,0,0,1-.06-4.24l1.61-.08v4.32Zm6-.58H17l.31.28v1.17l.21.21H18a4.46,4.46,0,0,1-3.31,1.74V73Zm-3.27,3.13A4.47,4.47,0,0,1,10.2,74.1V74l1.07,0a.22.22,0,0,0,.16,0,.27.27,0,0,0,.06-.12v-.55l1.93.09a.33.33,0,0,1,.14,0,.36.36,0,0,1,.12.15v2.2a4.56,4.56,0,0,1-1.6-.27Z" style="fill: #ccc8c3"/>
        <circle cx="15.79" cy="67.9" r="0.18" style="fill: #010101"/>
        <circle cx="15.23" cy="68.33" r="0.18" style="fill: #010101"/>
        <circle cx="15.89" cy="73.24" r="0.18" style="fill: #010101"/>
        <circle cx="15.31" cy="73.71" r="0.18" style="fill: #010101"/>
        <circle cx="17.03" cy="67.3" r="0.14" style="fill: #c6b38c"/>
        <circle cx="15.79" cy="67.9" r="0.13" style="fill: #c6b38c"/>
        <circle cx="15.23" cy="68.33" r="0.13" style="fill: #c6b38c"/>
        <circle cx="13.14" cy="67.77" r="0.13" style="fill: #c6b38c"/>
        <circle cx="10.47" cy="70.89" r="0.13" style="fill: #c6b38c"/>
        <circle cx="12.49" cy="70.58" r="0.13" style="fill: #c6b38c"/>
        <circle cx="13.14" cy="73.78" r="0.13" style="fill: #c6b38c"/>
        <circle cx="15.89" cy="73.24" r="0.13" style="fill: #c6b38c"/>
        <circle cx="15.31" cy="73.71" r="0.13" style="fill: #c6b38c"/>
        <circle cx="17.03" cy="74.28" r="0.13" style="fill: #c6b38c"/>
        <line style="fill: none;stroke: #c6b38c;stroke-miterlimit: 10;stroke-width: 0.04535432904958725px" x1="16.96" x2="15.88" y1="67.32" y2="67.95"/>
        <polyline points="15.19 68.3 14.8 68.06 13.18 67.82" style="fill: none;stroke: #c6b38c;stroke-miterlimit: 10;stroke-width: 0.04535432904958725px"/>
        <line style="fill: none;stroke: #c6b38c;stroke-miterlimit: 10;stroke-width: 0.04535432904958725px" x1="12.42" x2="10.5" y1="70.6" y2="70.93"/>
        <line style="fill: none;stroke: #c6b38c;stroke-miterlimit: 10;stroke-width: 0.03004724346101284px" x1="12.49" x2="12.26" y1="70.58" y2="70.35"/>
        <line style="fill: none;stroke: #c6b38c;stroke-miterlimit: 10;stroke-width: 0.03004724346101284px" x1="12.51" x2="12.71" y1="70.63" y2="70.83"/>
        <polyline points="12.49 70.6 12.24 70.85 12.73 70.36" style="fill: none;stroke: #c6b38c;stroke-miterlimit: 10;stroke-width: 0.03004724346101284px"/>
        <polyline points="15.29 73.75 13.18 73.8 15.32 73.71" style="fill: none;stroke: #c6b38c;stroke-miterlimit: 10;stroke-width: 0.04535432904958725px"/>
        <line style="fill: none;stroke: #c6b38c;stroke-miterlimit: 10;stroke-width: 0.04535432904958725px" x1="17.03" x2="15.93" y1="74.26" y2="73.19"/>
      </g>
      <g>
        <g>
          <rect height="2.63" rx="1.3" ry="1.3" style="fill: url(#linear-gradient-19)" width="4.48" x="4.41" y="17.39"/>
          <rect height="2.63" rx="1.3" ry="1.3" style="fill: url(#linear-gradient-20)" width="4.48" x="4.33" y="21.87"/>
          <rect height="2.63" rx="1.3" ry="1.3" style="fill: url(#linear-gradient-21)" width="4.48" x="4.33" y="26.34"/>
        </g>
        <g>
          <rect height="2.63" rx="1.3" ry="1.3" style="fill: url(#linear-gradient-22)" width="4.48" x="19.29" y="17.39"/>
          <rect height="2.63" rx="1.3" ry="1.3" style="fill: url(#linear-gradient-23)" width="4.48" x="19.22" y="21.87"/>
          <rect height="2.63" rx="1.3" ry="1.3" style="fill: url(#linear-gradient-24)" width="4.48" x="19.22" y="26.34"/>
        </g>
        <rect height="15.66" style="fill: #d4d4d4" width="15.79" x="6.05" y="15.21"/>
        <polygon points="21.6 15.54 8.67 15.54 6.41 17.59 6.41 30.62 6.66 30.81 21.6 30.81 21.6 15.54" style="fill: #ededee"/>
        <path d="M17.26,21.39l.08-.4a3.32,3.32,0,0,0,0-.89.53.53,0,0,1,.16-.23.46.46,0,0,1,.48,0A5.08,5.08,0,0,0,14.73,18l-.11,2.8.92.74Z" style="fill: #87909e"/>
        <path d="M13.65,20.23l0-2.24a4.63,4.63,0,0,0-3.58,1.77h1.15a.32.32,0,0,1,.2.08.3.3,0,0,1,.06.11v.52h1.9a.54.54,0,0,0,.22-.23Z" style="fill: #87909e"/>
        <path d="M9.33,21a4.69,4.69,0,0,0,.06,4.24h1.55V20.88Z" style="fill: #87909e"/>
        <path d="M13.7,25.82a.44.44,0,0,0-.12-.15.33.33,0,0,0-.14,0l-1.93-.09v.55a.23.23,0,0,1-.06.12.15.15,0,0,1-.16,0H10.22v.08a4.47,4.47,0,0,0,1.92,1.37,4.36,4.36,0,0,0,1.6.29Z" style="fill: #87909e"/>
        <path d="M16.47,27.55A4.29,4.29,0,0,0,18,26.29h-.42l-.21-.21V24.91L17,24.63H15.36l-.69.67V28A4.5,4.5,0,0,0,16.47,27.55Z" style="fill: #87909e"/>
        <path d="M18.32,21.55a.86.86,0,0,1-.36.63.53.53,0,0,1-.17.08H14.27a.27.27,0,0,1-.22-.11A.2.2,0,0,1,14,22v-.76H11.85a.6.6,0,0,0-.25.19v3.1a.17.17,0,0,0,0,.14.29.29,0,0,0,.25.14h2.08V24a.31.31,0,0,1,.08-.15.31.31,0,0,1,.19-.09h3.49a.47.47,0,0,1,.48.37l.14.47h.47a4.88,4.88,0,0,0,.11-3.09.43.43,0,0,0-.36-.14A.43.43,0,0,0,18.32,21.55Z" style="fill: #87909e"/>
        <circle cx="15.66" cy="25.76" r="0.72" style="fill: #dbdbd7"/>
        <circle cx="15.51" cy="20.45" r="0.72" style="fill: #dbdbd7"/>
        <circle cx="12.42" cy="22.99" r="0.72" style="fill: #dbdbd7"/>
        <rect height="0.7" style="fill: #843c39;stroke: #010101;stroke-miterlimit: 10;stroke-width: 0.10000000149011612px" width="0.81" x="12.07" y="22.54"/>
        <path d="M20.44,23.05a6.4,6.4,0,1,0-6.39,6.4h0A6.39,6.39,0,0,0,20.44,23.05Zm-1.56-1.46a4.88,4.88,0,0,1-.11,3.09H18.3l-.14-.47a.47.47,0,0,0-.48-.37H14.19a.31.31,0,0,0-.19.09.31.31,0,0,0-.08.15v.8H11.85a.29.29,0,0,1-.25-.14.17.17,0,0,1,0-.14V21.5a.6.6,0,0,1,.25-.19H14V22a.2.2,0,0,0,0,.15.27.27,0,0,0,.22.11H17.8a.53.53,0,0,0,.17-.08.86.86,0,0,0,.36-.63.54.54,0,0,1,.2-.1A.41.41,0,0,1,18.88,21.59ZM11.6,20.46h-.09v-.52a.3.3,0,0,0-.06-.11.32.32,0,0,0-.2-.08H10.11A4.62,4.62,0,0,1,13.7,18l0,2.25a.54.54,0,0,1-.22.23ZM14.73,18A5.07,5.07,0,0,1,18,19.93a.46.46,0,0,0-.48,0,.53.53,0,0,0-.16.23,3.32,3.32,0,0,1,0,.89l-.06.36-1.74.12-.92-.74ZM9.39,25.21A4.69,4.69,0,0,1,9.33,21l1.61-.08v4.32Zm6-.58H17l.31.28v1.17l.21.21H18A4.4,4.4,0,0,1,14.66,28v-2.7Zm-3.27,3.13a4.48,4.48,0,0,1-1.95-1.37v-.08h1.07a.15.15,0,0,0,.16,0,.23.23,0,0,0,.06-.12v-.55l1.93.09a.33.33,0,0,1,.14,0,.44.44,0,0,1,.12.15v2.2a4.44,4.44,0,0,1-1.57-.32Z" style="fill: #ccc8c3"/>
        <circle cx="15.79" cy="20.18" r="0.18" style="fill: #010101"/>
        <circle cx="15.23" cy="20.61" r="0.18" style="fill: #010101"/>
        <circle cx="15.89" cy="25.51" r="0.18" style="fill: #010101"/>
        <circle cx="15.31" cy="25.99" r="0.18" style="fill: #010101"/>
        <circle cx="17.03" cy="19.58" r="0.14" style="fill: #c6b38c"/>
        <circle cx="15.79" cy="20.18" r="0.13" style="fill: #c6b38c"/>
        <circle cx="15.23" cy="20.61" r="0.13" style="fill: #c6b38c"/>
        <circle cx="13.14" cy="20.04" r="0.13" style="fill: #c6b38c"/>
        <circle cx="10.47" cy="23.17" r="0.13" style="fill: #c6b38c"/>
        <circle cx="12.49" cy="22.85" r="0.13" style="fill: #c6b38c"/>
        <circle cx="13.14" cy="26.05" r="0.13" style="fill: #c6b38c"/>
        <circle cx="15.89" cy="25.51" r="0.13" style="fill: #c6b38c"/>
        <circle cx="15.31" cy="25.99" r="0.13" style="fill: #c6b38c"/>
        <circle cx="17.03" cy="26.56" r="0.13" style="fill: #c6b38c"/>
        <line style="fill: none;stroke: #c6b38c;stroke-miterlimit: 10;stroke-width: 0.04535432904958725px" x1="16.96" x2="15.88" y1="19.6" y2="20.22"/>
        <polyline points="15.19 20.58 14.8 20.34 13.18 20.1" style="fill: none;stroke: #c6b38c;stroke-miterlimit: 10;stroke-width: 0.04535432904958725px"/>
        <line style="fill: none;stroke: #c6b38c;stroke-miterlimit: 10;stroke-width: 0.04535432904958725px" x1="12.42" x2="10.5" y1="22.87" y2="23.2"/>
        <line style="fill: none;stroke: #c6b38c;stroke-miterlimit: 10;stroke-width: 0.03004724346101284px" x1="12.49" x2="12.26" y1="22.85" y2="22.63"/>
        <line style="fill: none;stroke: #c6b38c;stroke-miterlimit: 10;stroke-width: 0.03004724346101284px" x1="12.51" x2="12.71" y1="22.91" y2="23.11"/>
        <polyline points="12.49 22.88 12.24 23.13 12.73 22.64" style="fill: none;stroke: #c6b38c;stroke-miterlimit: 10;stroke-width: 0.03004724346101284px"/>
        <polyline points="15.29 26.03 13.18 26.08 15.32 25.99" style="fill: none;stroke: #c6b38c;stroke-miterlimit: 10;stroke-width: 0.04535432904958725px"/>
        <line style="fill: none;stroke: #c6b38c;stroke-miterlimit: 10;stroke-width: 0.04535432904958725px" x1="17.03" x2="15.93" y1="26.54" y2="25.46"/>
      </g>
    </g>
  </g>
  <g data-name="Layer 8" id="Layer_8">
    <g>
      <rect height="141.8" style="fill: #c7c6c5" width="28.09" x="0.11" y="141.72"/>
      <rect height="141.8" style="fill: #ededee" width="27.83" x="0.24" y="141.72"/>
      <g>
        <g>
          <path d="M6.16,252.92V251h16v2.1a.22.22,0,0,1-.27.18.24.24,0,0,1-.18-.18v-1.65H6.62v1.45a.25.25,0,0,1-.18.28.24.24,0,0,1-.27-.18.17.17,0,0,1,0-.1Z" style="fill: #585856"/>
          <path d="M6.16,269.51v-1.94a.23.23,0,0,1,.27-.18.24.24,0,0,1,.18.18v1.49H21.7v-1.65a.23.23,0,0,1,.45,0v2.1Z" style="fill: #585856"/>
        </g>
        <g>
          <path d="M6.16,205.21v-1.94h16v2.1a.23.23,0,0,1-.17.27.23.23,0,0,1-.28-.18v-1.74H6.62v1.49a.24.24,0,0,1-.18.27.22.22,0,0,1-.27-.18.14.14,0,0,1,0-.09Z" style="fill: #585856"/>
          <path d="M6.16,221.73v-1.94a.22.22,0,0,1,.27-.17.21.21,0,0,1,.18.17v1.49H21.7v-1.65a.24.24,0,0,1,.18-.27.22.22,0,0,1,.27.18.14.14,0,0,1,0,.09v2.1Z" style="fill: #585856"/>
        </g>
        <g>
          <path d="M6.16,157.43v-1.94h16v2.1a.22.22,0,0,1-.17.27.23.23,0,0,1-.28-.17V156H6.62v1.49a.23.23,0,0,1-.27.18.24.24,0,0,1-.18-.18Z" style="fill: #585856"/>
          <path d="M6.16,174V172a.22.22,0,0,1,.18-.27.23.23,0,0,1,.27.17v1.59H21.7v-1.65a.23.23,0,0,1,.28-.18.24.24,0,0,1,.17.18V174Z" style="fill: #585856"/>
        </g>
      </g>
      <g>
        <path d="M25.12,146.36A3.08,3.08,0,0,1,22,143.28h0V141.8H28.2v1.48a3.08,3.08,0,0,1-3.08,3.08Z" style="fill: url(#linear-gradient-25)"/>
        <path d="M13.8,146.36a3.08,3.08,0,0,1-3.08-3.08h0V141.8h6.15v1.48a3.07,3.07,0,0,1-3.07,3.08Z" style="fill: url(#linear-gradient-26)"/>
        <path d="M3.14,146.36a3.08,3.08,0,0,1-3.08-3.08h0V141.8H6.22v1.48a3.08,3.08,0,0,1-3.08,3.08Z" style="fill: url(#linear-gradient-27)"/>
      </g>
      <g>
        <path d="M25.18,278.92a3.08,3.08,0,0,0-3.08,3v1.48h6.16v-1.48A3.07,3.07,0,0,0,25.18,278.92Z" style="fill: url(#linear-gradient-28)"/>
        <path d="M13.86,278.92a3.07,3.07,0,0,0-3.08,3v1.48h6.15v-1.48A3.06,3.06,0,0,0,13.86,278.92Z" style="fill: url(#linear-gradient-29)"/>
        <path d="M3.19,278.92a3.07,3.07,0,0,0-3.07,3v1.48H6.27v-1.48A3.08,3.08,0,0,0,3.19,278.92Z" style="fill: url(#linear-gradient-30)"/>
      </g>
      <g>
        <path d="M11.5,145.17c.88-.51,1.33-1.33,1-1.87l-.08-.11.56-.27c.38-.18.78-.4,1.18-.61,1.13.56,2.27,1.09,3.13,1.47s2.29.87,2.29.87l.08-.16s-1.22-.88-2-1.38c-.56-.35-1.25-.75-2-1.17H28.2v-.22H.11V142H12.53c-.52.28-1,.57-1.4.82l-.5.33-.23.12a2,2,0,0,0-1.13,1.52.62.62,0,0,0,.09.37.81.81,0,0,0,.51.37A2.29,2.29,0,0,0,11.5,145.17ZM10,145.05a.38.38,0,0,1-.23-.15c-.09-.17,0-.48.3-.78a2,2,0,0,1,.56-.44,1.78,1.78,0,0,1,1.25-.28H12a.31.31,0,0,1,.17.13.33.33,0,0,1,0,.14,1.66,1.66,0,0,1-.89,1.08,1.88,1.88,0,0,1-1.22.3Z" style="fill: #585856"/>
        <path d="M28.2,283.3H15.67c.74-.41,1.43-.82,2-1.17.81-.5,2-1.38,2-1.38l-.08-.16s-1.42.49-2.29.87-2,.91-3.13,1.47L13,282.32l-.56-.27.08-.11c.31-.54-.14-1.36-1-1.87a2.28,2.28,0,0,0-1.61-.32.8.8,0,0,0-.51.36.64.64,0,0,0-.09.37A2,2,0,0,0,10.41,282l.23.12.5.33c.4.25.87.54,1.4.82H.13v.22H28.2Zm-17.57-1.73a2,2,0,0,1-.56-.44c-.28-.3-.39-.61-.3-.78a.38.38,0,0,1,.23-.15,1.85,1.85,0,0,1,1.25.28,1.66,1.66,0,0,1,.89,1.08.33.33,0,0,1,0,.14.27.27,0,0,1-.17.13h-.06a1.77,1.77,0,0,1-1.27-.26Z" style="fill: #585856"/>
      </g>
      <g>
        <g>
          <path d="M16.09,187.64a.23.23,0,0,1,.23-.23H22v-7.92H16.27a.25.25,0,0,1-.28-.18.23.23,0,0,1,.18-.27H22.4v8.82H16.27A.22.22,0,0,1,16.09,187.64Z" style="fill: #585856"/>
          <path d="M4.88,187.87v-8.82H11a.23.23,0,0,1,.27.17.23.23,0,0,1-.18.28H5.33v7.92H11a.24.24,0,0,1,.27.18.22.22,0,0,1-.18.27H4.88Z" style="fill: #585856"/>
        </g>
        <g>
          <path d="M16.09,198a.23.23,0,0,1,.23-.23H22v-7.93H16.27a.23.23,0,0,1-.28-.17.25.25,0,0,1,.18-.28H22.4v8.83H16.27A.22.22,0,0,1,16.09,198Z" style="fill: #585856"/>
          <path d="M4.88,198.24v-8.83H11a.24.24,0,0,1,.27.18.22.22,0,0,1-.18.27H5.33v7.93H11a.23.23,0,1,1,.09.45H4.88Z" style="fill: #585856"/>
        </g>
        <g>
          <path d="M16.52,240.6a.23.23,0,0,1,.23-.23H22.4v-7.93H16.75a.23.23,0,0,1-.27-.18.24.24,0,0,1,.18-.27.14.14,0,0,1,.09,0h6.1v8.83h-6.1A.24.24,0,0,1,16.52,240.6Z" style="fill: #585856"/>
          <path d="M5.33,240.83V232h6.1a.23.23,0,0,1,.09.45.14.14,0,0,1-.09,0H5.78v7.93h5.65a.23.23,0,0,1,.27.17.23.23,0,0,1-.18.28H5.33Z" style="fill: #585856"/>
        </g>
      </g>
    </g>
    <g>
      <line style="fill: none;stroke: #585856;stroke-linecap: round;stroke-linejoin: round;stroke-width: 0.4251968562602997px" x1="25.6" x2="25.6" y1="271.91" y2="267.79"/>
      <line style="fill: none;stroke: #585856;stroke-linecap: round;stroke-linejoin: round;stroke-width: 0.4251968562602997px" x1="25.6" x2="26.56" y1="271.98" y2="271.02"/>
      <line style="fill: none;stroke: #585856;stroke-linecap: round;stroke-linejoin: round;stroke-width: 0.4251968562602997px" x1="25.59" x2="24.63" y1="271.98" y2="271.02"/>
    </g>
    <g>
      <path d="M26.74,147.51v.75a.48.48,0,0,1-.1.29.47.47,0,0,1-.23.21l-.77.38a.88.88,0,0,1-.86,0l-.76-.38a.58.58,0,0,1-.23-.21.56.56,0,0,1-.09-.31v-.72a.17.17,0,0,1,.06-.14.18.18,0,0,1,.13-.06.14.14,0,0,1,.14.06.17.17,0,0,1,.06.14v.2h2.27v-.2a.17.17,0,0,1,.06-.14.16.16,0,0,1,.14-.06.18.18,0,0,1,.19.19h0Zm-.39.58H24.1v.12a.19.19,0,0,0,.13.19l.75.38a.49.49,0,0,0,.49,0l.79-.38a.19.19,0,0,0,.12-.2Z" style="fill: #585856"/>
      <path d="M26.74,150.32v1.55a.21.21,0,0,1-.19.19.2.2,0,0,1-.14-.06.16.16,0,0,1-.06-.13v-.58H24.1v.58a.18.18,0,0,1-.19.19.19.19,0,0,1-.19-.19v-1.55a.2.2,0,0,1,.19-.19.19.19,0,0,1,.19.19V151h2.26v-.59a.2.2,0,0,1,.06-.14.31.31,0,0,1,.13-.06.22.22,0,0,1,.14.06A.16.16,0,0,1,26.74,150.32Z" style="fill: #585856"/>
      <path d="M26.55,154.89H23.71v-.51l2.35-1H23.9a.19.19,0,0,1-.19-.19.2.2,0,0,1,.19-.19h2.84v.51l-2.35,1h2.16a.2.2,0,0,1,.2.2.17.17,0,0,1-.06.14A.18.18,0,0,1,26.55,154.89Z" style="fill: #585856"/>
    </g>
    <g>
      <path d="M12.51,148V149h.94V147.8h1.7v1.34a.19.19,0,0,1-.19.19.18.18,0,0,1-.19-.19v-1h-.94v.8a.39.39,0,0,1-.38.38h-.94a.38.38,0,0,1-.38-.38v-.88a.51.51,0,0,1,.06-.25l.12-.29a.16.16,0,0,1,.18-.12.16.16,0,0,1,.14.05.2.2,0,0,1,.06.13v.13l-.11.25Z" style="fill: #585856"/>
      <path d="M15,152.07h-.69l-2-.78a.19.19,0,0,1-.13-.25.21.21,0,0,1,.13-.13l2-.78H15a.25.25,0,0,1,.14.06.2.2,0,0,1,.06.14.2.2,0,0,1-.06.14.2.2,0,0,1-.14.06h-.62l-1.49.58,1.48.58H15a.21.21,0,0,1,.2.2.17.17,0,0,1-.06.14A.17.17,0,0,1,15,152.07Z" style="fill: #585856"/>
    </g>
    <g>
      <path d="M4.62,148.43v.64a.19.19,0,0,1-.19.19h0a.15.15,0,0,1-.14-.06.16.16,0,0,1-.06-.13v-.61a.21.21,0,0,0-.08-.16l-.69-.53a.29.29,0,0,0-.23-.07H2.17a.16.16,0,0,0-.14.06.17.17,0,0,0-.06.14v.77a.18.18,0,0,0,.19.19h.42v-.4a.19.19,0,0,1,.19-.19h0a.24.24,0,0,1,.14,0,.2.2,0,0,1,.06.14v.78h-.8a.57.57,0,0,1-.58-.57v-.77a.55.55,0,0,1,.17-.41.5.5,0,0,1,.41-.17h1.1a.71.71,0,0,1,.48.15l.72.57a.53.53,0,0,1,.2.39Z" style="fill: #585856"/>
      <path d="M4.42,152.07H1.59v-.51l2.35-1H1.78a.18.18,0,0,1-.19-.19h0a.2.2,0,0,1,.06-.14.25.25,0,0,1,.14-.06H4.62v.51l-2.35,1H4.42a.25.25,0,0,1,.14.06.2.2,0,0,1,.06.14.17.17,0,0,1-.06.14A.16.16,0,0,1,4.42,152.07Z" style="fill: #585856"/>
      <path d="M4.62,153.14V154a.48.48,0,0,1-.1.29.58.58,0,0,1-.23.21l-.77.38a.88.88,0,0,1-.86,0l-.76-.38a.66.66,0,0,1-.23-.21.56.56,0,0,1-.09-.31v-.73a.19.19,0,0,1,.19-.19h0a.21.21,0,0,1,.2.2v.2h2.3v-.2a.2.2,0,0,1,.06-.14.18.18,0,0,1,.14-.06.31.31,0,0,1,.13.06A.25.25,0,0,1,4.62,153.14Zm-.39.58H2v.13a.21.21,0,0,0,.12.19l.75.38a.55.55,0,0,0,.25.07.5.5,0,0,0,.24-.06l.78-.39a.2.2,0,0,0,.12-.2Z" style="fill: #585856"/>
    </g>
    <g>
      <path d="M27,273v.76a.53.53,0,0,1-.1.29.52.52,0,0,1-.23.21l-.77.38a.92.92,0,0,1-.43.11,1.09,1.09,0,0,1-.43-.11l-.76-.38a.66.66,0,0,1-.23-.21.59.59,0,0,1-.09-.31V273a.19.19,0,0,1,.19-.19h0a.21.21,0,0,1,.2.2v.2h2.27V273a.17.17,0,0,1,.06-.14.2.2,0,0,1,.14-.06.16.16,0,0,1,.13.06A.17.17,0,0,1,27,273Zm-.39.58H24.38v.13a.21.21,0,0,0,.13.19l.75.38a.72.72,0,0,0,.25.07.48.48,0,0,0,.24-.06l.77-.36a.2.2,0,0,0,.12-.2Z" style="fill: #585856"/>
      <path d="M26.74,277l-.86.42a.85.85,0,0,1-.76,0l-.85-.42a.48.48,0,0,1-.28-.46.5.5,0,0,1,.08-.27.49.49,0,0,1,.2-.18l.85-.42a.94.94,0,0,1,.76,0l.86.42a.51.51,0,0,1,0,.91Zm-.19-.58-.81-.4a.49.49,0,0,0-.24-.05.42.42,0,0,0-.24.05l-.82.41a.11.11,0,0,0-.08.12.13.13,0,0,0,.08.11l.82.41.24.06a.61.61,0,0,0,.24-.06l.81-.4a.14.14,0,0,0,.09-.12.12.12,0,0,0-.09-.14Z" style="fill: #585856"/>
    </g>
    <g>
      <path d="M12.79,273.5v.89h.94v-1.16h1.7v1.35a.31.31,0,0,1-.06.13.2.2,0,0,1-.27,0h0a.2.2,0,0,1-.06-.14v-1H14.1v.77a.41.41,0,0,1-.38.38h-.94a.39.39,0,0,1-.38-.38v-.89a.54.54,0,0,1,.06-.25l.12-.29a.16.16,0,0,1,.18-.12.16.16,0,0,1,.14,0A.2.2,0,0,1,13,273v.13l-.11.25Z" style="fill: #585856"/>
      <path d="M15.27,277.56h-.7l-2-.78a.2.2,0,0,1-.13-.26.2.2,0,0,1,.13-.12l2-.78h.7a.2.2,0,0,1,.14.06.17.17,0,0,1,.06.14.21.21,0,0,1-.2.2h-.62l-1.49.58,1.48.58h.63a.2.2,0,0,1,.14.06.19.19,0,0,1,0,.26h0A.24.24,0,0,1,15.27,277.56Z" style="fill: #585856"/>
    </g>
    <g>
      <path d="M4.9,271.09v.64a.2.2,0,0,1-.19.19h0a.18.18,0,0,1-.14-.06.18.18,0,0,1-.06-.13v-.61a.18.18,0,0,0-.08-.16l-.69-.54a.33.33,0,0,0-.23-.07H2.45a.2.2,0,0,0-.14.06.17.17,0,0,0-.06.14v.78a.2.2,0,0,0,.19.19h.42v-.4a.17.17,0,0,1,.06-.14.2.2,0,0,1,.27,0,.17.17,0,0,1,.06.14v.8h-.8a.58.58,0,0,1-.57-.58v-.78a.57.57,0,0,1,.17-.41.53.53,0,0,1,.41-.17h1a.71.71,0,0,1,.48.15l.72.57a.39.39,0,0,1,.14.17A.43.43,0,0,1,4.9,271.09Z" style="fill: #585856"/>
      <path d="M4.7,274.73H1.87v-.51l2.35-1H2.06a.18.18,0,0,1-.14-.06.2.2,0,0,1-.06-.14.18.18,0,0,1,.19-.19H4.9v.51l-2.35,1H4.7a.19.19,0,0,1,.2.17.23.23,0,0,1-.06.16A.2.2,0,0,1,4.7,274.73Z" style="fill: #585856"/>
      <path d="M4.9,275.81v.76a.63.63,0,0,1-.1.29.66.66,0,0,1-.23.21l-.77.38a1.05,1.05,0,0,1-.43.11,1.24,1.24,0,0,1-.43-.11l-.76-.38a.59.59,0,0,1-.32-.52v-.73a.17.17,0,0,1,.06-.14.16.16,0,0,1,.13-.06.2.2,0,0,1,.14.06.17.17,0,0,1,.06.14v.2H4.51v-.2a.17.17,0,0,1,.06-.14.18.18,0,0,1,.14-.06.19.19,0,0,1,.19.19Zm-.39.58H2.27v.13a.21.21,0,0,0,.13.19l.75.38a.72.72,0,0,0,.25.07.5.5,0,0,0,.24-.06l.78-.39a.22.22,0,0,0,.12-.2Z" style="fill: #585856"/>
    </g>
    <g>
      <g>
        <rect height="2.63" rx="1.3" ry="1.3" style="fill: url(#linear-gradient-31)" width="4.48" x="4.46" y="254.65"/>
        <rect height="2.63" rx="1.3" ry="1.3" style="fill: url(#linear-gradient-32)" width="4.48" x="4.39" y="259.13"/>
        <rect height="2.63" rx="1.3" ry="1.3" style="fill: url(#linear-gradient-33)" width="4.48" x="4.39" y="263.6"/>
      </g>
      <g>
        <rect height="2.63" rx="1.3" ry="1.3" style="fill: url(#linear-gradient-34)" width="4.48" x="19.35" y="254.65"/>
        <rect height="2.63" rx="1.3" ry="1.3" style="fill: url(#linear-gradient-35)" width="4.48" x="19.27" y="259.13"/>
        <rect height="2.63" rx="1.3" ry="1.3" style="fill: url(#linear-gradient-36)" width="4.48" x="19.27" y="263.6"/>
      </g>
      <rect height="15.66" style="fill: #d4d4d4" width="15.79" x="6.11" y="252.47"/>
      <polygon points="21.66 252.79 8.73 252.79 6.47 254.85 6.47 267.88 6.72 268.07 21.66 268.07 21.66 252.79" style="fill: #ededee"/>
      <path d="M17.34,258.65l.06-.36a3.32,3.32,0,0,0,0-.89.53.53,0,0,1,.16-.23.46.46,0,0,1,.48,0,5.07,5.07,0,0,0-3.25-1.94l-.11,2.8.92.74Z" style="fill: #87909e"/>
      <path d="M13.7,257.49l.05-2.25A4.63,4.63,0,0,0,10.17,257h1.1a.32.32,0,0,1,.2.08.24.24,0,0,1,.06.11v.52h2a.54.54,0,0,0,.22-.23Z" style="fill: #87909e"/>
      <path d="M9.39,258.22a4.69,4.69,0,0,0,.06,4.24H11v-4.32Z" style="fill: #87909e"/>
      <path d="M13.76,263.09a.44.44,0,0,0-.12-.15H13.5l-1.93-.09v.55a.23.23,0,0,1-.06.12.22.22,0,0,1-.16,0H10.28v.08a4.45,4.45,0,0,0,3.58,1.64Z" style="fill: #87909e"/>
      <path d="M16.53,264.81A4.29,4.29,0,0,0,18,263.55h-.42l-.21-.21v-1.17l-.31-.28H15.42l-.69.67v2.74A4.36,4.36,0,0,0,16.53,264.81Z" style="fill: #87909e"/>
      <path d="M18.38,258.81a.86.86,0,0,1-.36.63.53.53,0,0,1-.17.08H14.27a.27.27,0,0,1-.22-.11.2.2,0,0,1-.05-.15v-.76H11.85a.6.6,0,0,0-.25.19v3.1a.17.17,0,0,0,0,.14.31.31,0,0,0,.25.14H14v-.8a.28.28,0,0,1,.08-.15.31.31,0,0,1,.19-.09h3.49a.47.47,0,0,1,.48.37l.14.52h.47a4.88,4.88,0,0,0,.11-3.09.43.43,0,0,0-.36-.14A.47.47,0,0,0,18.38,258.81Z" style="fill: #87909e"/>
      <circle cx="15.72" cy="263.02" r="0.72" style="fill: #dbdbd7"/>
      <circle cx="15.57" cy="257.72" r="0.72" style="fill: #dbdbd7"/>
      <circle cx="12.48" cy="260.25" r="0.72" style="fill: #dbdbd7"/>
      <rect height="0.7" style="fill: #843c39;stroke: #010101;stroke-miterlimit: 10;stroke-width: 0.10000000149011612px" width="0.81" x="12.13" y="259.81"/>
      <path d="M20.49,260.31a6.4,6.4,0,1,0-6.39,6.4h0A6.4,6.4,0,0,0,20.49,260.31Zm-1.55-1.46a4.88,4.88,0,0,1-.11,3.09h-.47l-.14-.47a.47.47,0,0,0-.48-.37H14.27a.31.31,0,0,0-.19.09.28.28,0,0,0-.08.15v.8H11.93a.31.31,0,0,1-.25-.14.17.17,0,0,1,0-.14v-3.1a.6.6,0,0,1,.25-.19H14v.76a.2.2,0,0,0,.05.15.27.27,0,0,0,.22.11h3.55a.53.53,0,0,0,.17-.08.86.86,0,0,0,.36-.63.42.42,0,0,1,.2-.1.42.42,0,0,1,.36.07Zm-7.28-1.13h-.09v-.52a.24.24,0,0,0-.06-.11.32.32,0,0,0-.2-.08H10.17a4.63,4.63,0,0,1,3.58-1.77l-.05,2.25a.54.54,0,0,1-.22.23Zm3.13-2.48A5.07,5.07,0,0,1,18,257.18a.46.46,0,0,0-.48,0,.53.53,0,0,0-.16.23,3.32,3.32,0,0,1,0,.89l-.06.36-1.74.12-.92-.74Zm-5.34,7.22a4.69,4.69,0,0,1-.06-4.24l1.61-.08v4.32Zm6-.58h1.64l.31.28v1.17l.21.21H18a4.43,4.43,0,0,1-3.31,1.74v-2.74ZM12.18,265a4.51,4.51,0,0,1-1.91-1.36v-.08h1.07a.22.22,0,0,0,.16,0,.23.23,0,0,0,.06-.12v-.55l1.93.09h.14a.44.44,0,0,1,.12.15v2.2a4.62,4.62,0,0,1-1.61-.32Z" style="fill: #ccc8c3"/>
      <circle cx="15.85" cy="257.44" r="0.18" style="fill: #010101"/>
      <circle cx="15.29" cy="257.87" r="0.18" style="fill: #010101"/>
      <circle cx="15.95" cy="262.78" r="0.18" style="fill: #010101"/>
      <circle cx="15.36" cy="263.25" r="0.18" style="fill: #010101"/>
      <circle cx="17.08" cy="256.84" r="0.14" style="fill: #c6b38c"/>
      <circle cx="15.85" cy="257.44" r="0.13" style="fill: #c6b38c"/>
      <circle cx="15.29" cy="257.87" r="0.13" style="fill: #c6b38c"/>
      <circle cx="13.2" cy="257.31" r="0.13" style="fill: #c6b38c"/>
      <circle cx="10.53" cy="260.43" r="0.13" style="fill: #c6b38c"/>
      <circle cx="12.55" cy="260.12" r="0.13" style="fill: #c6b38c"/>
      <circle cx="13.2" cy="263.32" r="0.13" style="fill: #c6b38c"/>
      <circle cx="15.95" cy="262.78" r="0.13" style="fill: #c6b38c"/>
      <circle cx="15.36" cy="263.25" r="0.13" style="fill: #c6b38c"/>
      <circle cx="17.08" cy="263.82" r="0.13" style="fill: #c6b38c"/>
      <line style="fill: none;stroke: #c6b38c;stroke-miterlimit: 10;stroke-width: 0.04535432904958725px" x1="17.02" x2="15.94" y1="256.86" y2="257.48"/>
      <polyline points="15.24 257.84 14.86 257.6 13.24 257.36" style="fill: none;stroke: #c6b38c;stroke-miterlimit: 10;stroke-width: 0.04535432904958725px"/>
      <line style="fill: none;stroke: #c6b38c;stroke-miterlimit: 10;stroke-width: 0.04535432904958725px" x1="12.48" x2="10.56" y1="260.13" y2="260.46"/>
      <line style="fill: none;stroke: #c6b38c;stroke-miterlimit: 10;stroke-width: 0.03004724346101284px" x1="12.55" x2="12.32" y1="260.12" y2="259.89"/>
      <line style="fill: none;stroke: #c6b38c;stroke-miterlimit: 10;stroke-width: 0.03004724346101284px" x1="12.57" x2="12.77" y1="260.17" y2="260.37"/>
      <polyline points="12.55 260.14 12.3 260.39 12.79 259.9" style="fill: none;stroke: #c6b38c;stroke-miterlimit: 10;stroke-width: 0.03004724346101284px"/>
      <polyline points="15.34 263.29 13.24 263.34 15.38 263.25" style="fill: none;stroke: #c6b38c;stroke-miterlimit: 10;stroke-width: 0.04535432904958725px"/>
      <line style="fill: none;stroke: #c6b38c;stroke-miterlimit: 10;stroke-width: 0.04535432904958725px" x1="17.08" x2="15.98" y1="263.8" y2="262.72"/>
    </g>
    <g>
      <g>
        <rect height="2.63" rx="1.3" ry="1.3" style="fill: url(#linear-gradient-37)" width="4.48" x="4.46" y="206.84"/>
        <rect height="2.63" rx="1.3" ry="1.3" style="fill: url(#linear-gradient-38)" width="4.48" x="4.39" y="211.31"/>
        <rect height="2.63" rx="1.3" ry="1.3" style="fill: url(#linear-gradient-39)" width="4.48" x="4.39" y="215.78"/>
      </g>
      <g>
        <rect height="2.63" rx="1.3" ry="1.3" style="fill: url(#linear-gradient-40)" width="4.48" x="19.35" y="206.84"/>
        <rect height="2.63" rx="1.3" ry="1.3" style="fill: url(#linear-gradient-41)" width="4.48" x="19.27" y="211.31"/>
        <rect height="2.63" rx="1.3" ry="1.3" style="fill: url(#linear-gradient-42)" width="4.48" x="19.27" y="215.78"/>
      </g>
      <rect height="15.66" style="fill: #d4d4d4" width="15.79" x="6.11" y="204.65"/>
      <polygon points="21.66 204.97 8.73 204.97 6.47 207.04 6.47 220.05 6.72 220.25 21.66 220.25 21.66 204.97" style="fill: #ededee"/>
      <path d="M17.34,210.84l.06-.36a3.32,3.32,0,0,0,0-.89.44.44,0,0,1,.16-.23.42.42,0,0,1,.48,0,5,5,0,0,0-3.25-1.94l-.11,2.8.92.74Z" style="fill: #87909e"/>
      <path d="M13.7,209.67l.05-2.25a4.57,4.57,0,0,0-3.58,1.77h1.1a.27.27,0,0,1,.2.08.24.24,0,0,1,.06.11v.56h2a.54.54,0,0,0,.22-.23Z" style="fill: #87909e"/>
      <path d="M9.39,210.41a4.67,4.67,0,0,0,.06,4.23H11v-4.31Z" style="fill: #87909e"/>
      <path d="M13.76,215.26a.44.44,0,0,0-.12-.15.33.33,0,0,0-.14,0L11.57,215v.55a.23.23,0,0,1-.06.12.15.15,0,0,1-.16,0H10.28v.08a4.39,4.39,0,0,0,1.92,1.37,4.26,4.26,0,0,0,1.66.27Z" style="fill: #87909e"/>
      <path d="M16.53,217A4.29,4.29,0,0,0,18,215.72h-.42l-.21-.21v-1.17l-.31-.28H15.42l-.69.67v2.74A4.36,4.36,0,0,0,16.53,217Z" style="fill: #87909e"/>
      <path d="M18.38,211a.88.88,0,0,1-.36.63l-.17.08H14.27a.33.33,0,0,1-.22-.11.23.23,0,0,1-.05-.15v-.76H11.85a.53.53,0,0,0-.25.19V214a.15.15,0,0,0,0,.13.29.29,0,0,0,.25.14H14v-.79a.28.28,0,0,1,.08-.15.23.23,0,0,1,.19-.09h3.49a.46.46,0,0,1,.48.37l.14.47h.47a4.88,4.88,0,0,0,.11-3.09.38.38,0,0,0-.36-.14A.41.41,0,0,0,18.38,211Z" style="fill: #87909e"/>
      <circle cx="15.72" cy="215.2" r="0.72" style="fill: #dbdbd7"/>
      <circle cx="15.57" cy="209.9" r="0.72" style="fill: #dbdbd7"/>
      <circle cx="12.48" cy="212.43" r="0.72" style="fill: #dbdbd7"/>
      <rect height="0.7" style="fill: #843c39;stroke: #010101;stroke-miterlimit: 10;stroke-width: 0.10000000149011612px" width="0.81" x="12.13" y="211.99"/>
      <path d="M20.49,212.49a6.4,6.4,0,1,0-6.39,6.39h0A6.39,6.39,0,0,0,20.49,212.49ZM18.94,211a4.85,4.85,0,0,1-.11,3.08h-.47l-.14-.46a.46.46,0,0,0-.48-.37H14.27a.23.23,0,0,0-.19.09.28.28,0,0,0-.08.15v.79H11.93a.29.29,0,0,1-.25-.14.17.17,0,0,1,0-.14v-3.09a.53.53,0,0,1,.25-.19H14v.76a.23.23,0,0,0,.05.15.33.33,0,0,0,.22.11h3.55l.17-.08a.88.88,0,0,0,.36-.63.35.35,0,0,1,.2-.1A.39.39,0,0,1,18.94,211Zm-7.28-1.09h-.09v-.52a.24.24,0,0,0-.06-.11.27.27,0,0,0-.2-.08H10.17a4.57,4.57,0,0,1,3.58-1.77l-.05,2.25a.54.54,0,0,1-.22.23Zm3.13-2.48A5,5,0,0,1,18,209.4a.42.42,0,0,0-.48,0,.44.44,0,0,0-.16.23,3.32,3.32,0,0,1,0,.89l-.06.36L15.6,211l-.92-.74Zm-5.34,7.21a4.67,4.67,0,0,1-.06-4.23l1.61-.08v4.31Zm6-.58h1.64l.31.28v1.17l.21.21H18a4.43,4.43,0,0,1-3.31,1.74v-2.76Zm-3.27,3.13a4.43,4.43,0,0,1-1.91-1.4v-.08h1.07a.15.15,0,0,0,.16,0,.23.23,0,0,0,.06-.12v-.55l1.93.09h.14a.44.44,0,0,1,.12.15v2.2a4.2,4.2,0,0,1-1.61-.32Z" style="fill: #ccc8c3"/>
      <circle cx="15.85" cy="209.62" r="0.18" style="fill: #010101"/>
      <circle cx="15.29" cy="210.05" r="0.18" style="fill: #010101"/>
      <circle cx="15.95" cy="214.95" r="0.18" style="fill: #010101"/>
      <circle cx="15.36" cy="215.42" r="0.18" style="fill: #010101"/>
      <circle cx="17.08" cy="209.03" r="0.14" style="fill: #c6b38c"/>
      <circle cx="15.85" cy="209.62" r="0.13" style="fill: #c6b38c"/>
      <circle cx="15.29" cy="210.05" r="0.13" style="fill: #c6b38c"/>
      <circle cx="13.2" cy="209.49" r="0.13" style="fill: #c6b38c"/>
      <circle cx="10.53" cy="212.62" r="0.13" style="fill: #c6b38c"/>
      <circle cx="12.55" cy="212.3" r="0.13" style="fill: #c6b38c"/>
      <circle cx="13.2" cy="215.49" r="0.13" style="fill: #c6b38c"/>
      <circle cx="15.95" cy="214.95" r="0.13" style="fill: #c6b38c"/>
      <circle cx="15.36" cy="215.42" r="0.13" style="fill: #c6b38c"/>
      <circle cx="17.08" cy="216" r="0.13" style="fill: #c6b38c"/>
      <line style="fill: none;stroke: #c6b38c;stroke-miterlimit: 10;stroke-width: 0.04535432904958725px" x1="17.02" x2="15.94" y1="209.04" y2="209.67"/>
      <polyline points="15.24 210.02 14.86 209.79 13.24 209.55" style="fill: none;stroke: #c6b38c;stroke-miterlimit: 10;stroke-width: 0.04535432904958725px"/>
      <line style="fill: none;stroke: #c6b38c;stroke-miterlimit: 10;stroke-width: 0.04535432904958725px" x1="12.48" x2="10.56" y1="212.32" y2="212.65"/>
      <line style="fill: none;stroke: #c6b38c;stroke-miterlimit: 10;stroke-width: 0.03004724346101284px" x1="12.55" x2="12.32" y1="212.3" y2="212.08"/>
      <line style="fill: none;stroke: #c6b38c;stroke-miterlimit: 10;stroke-width: 0.03004724346101284px" x1="12.57" x2="12.77" y1="212.36" y2="212.55"/>
      <polyline points="12.55 212.33 12.3 212.56 12.79 212.08" style="fill: none;stroke: #c6b38c;stroke-miterlimit: 10;stroke-width: 0.03004724346101284px"/>
      <polyline points="15.34 215.47 13.24 215.53 15.38 215.43" style="fill: none;stroke: #c6b38c;stroke-miterlimit: 10;stroke-width: 0.04535432904958725px"/>
      <line style="fill: none;stroke: #c6b38c;stroke-miterlimit: 10;stroke-width: 0.04535432904958725px" x1="17.08" x2="15.98" y1="215.98" y2="214.9"/>
    </g>
    <g>
      <g>
        <rect height="2.63" rx="1.3" ry="1.3" style="fill: url(#linear-gradient-43)" width="4.48" x="4.46" y="159.12"/>
        <rect height="2.63" rx="1.3" ry="1.3" style="fill: url(#linear-gradient-44)" width="4.48" x="4.39" y="163.59"/>
        <rect height="2.63" rx="1.3" ry="1.3" style="fill: url(#linear-gradient-45)" width="4.48" x="4.39" y="168.07"/>
      </g>
      <g>
        <rect height="2.63" rx="1.3" ry="1.3" style="fill: url(#linear-gradient-46)" width="4.48" x="19.35" y="159.12"/>
        <rect height="2.63" rx="1.3" ry="1.3" style="fill: url(#linear-gradient-47)" width="4.48" x="19.27" y="163.59"/>
        <rect height="2.63" rx="1.3" ry="1.3" style="fill: url(#linear-gradient-48)" width="4.48" x="19.27" y="168.07"/>
      </g>
      <rect height="15.66" style="fill: #d4d4d4" width="15.79" x="6.11" y="156.93"/>
      <polygon points="21.66 157.25 8.73 157.25 6.47 159.32 6.47 172.34 6.72 172.53 21.66 172.53 21.66 157.25" style="fill: #ededee"/>
      <path d="M17.34,163.11l.06-.36a3.32,3.32,0,0,0,0-.89.53.53,0,0,1,.16-.23.46.46,0,0,1,.48,0,5.07,5.07,0,0,0-3.25-1.94l-.11,2.8.92.74Z" style="fill: #87909e"/>
      <path d="M13.7,162l.05-2.25a4.63,4.63,0,0,0-3.58,1.77h1.1a.32.32,0,0,1,.2.08.24.24,0,0,1,.06.11v.52h2a.54.54,0,0,0,.22-.23Z" style="fill: #87909e"/>
      <path d="M9.39,162.68a4.69,4.69,0,0,0,.06,4.24H11V162.6Z" style="fill: #87909e"/>
      <path d="M13.76,167.55a.36.36,0,0,0-.12-.15.33.33,0,0,0-.14,0l-1.93-.09v.55a.27.27,0,0,1-.06.12.22.22,0,0,1-.16,0H10.28v.08a4.47,4.47,0,0,0,1.92,1.37,4.66,4.66,0,0,0,1.66.27Z" style="fill: #87909e"/>
      <path d="M16.53,169.27A4.29,4.29,0,0,0,18,168h-.42l-.21-.21v-1.17l-.31-.28H15.42l-.69.67v2.74A4.52,4.52,0,0,0,16.53,169.27Z" style="fill: #87909e"/>
      <path d="M18.38,163.27a.86.86,0,0,1-.36.63l-.17.08H14.27a.27.27,0,0,1-.22-.11.21.21,0,0,1-.05-.15V163H11.85a.6.6,0,0,0-.25.19v3.1a.17.17,0,0,0,0,.14.34.34,0,0,0,.25.14H14v-.8a.28.28,0,0,1,.08-.15.31.31,0,0,1,.19-.09h3.49a.47.47,0,0,1,.48.37l.14.47h.47a4.88,4.88,0,0,0,.11-3.09.31.31,0,0,0-.56,0Z" style="fill: #87909e"/>
      <circle cx="15.72" cy="167.49" r="0.72" style="fill: #dbdbd7"/>
      <circle cx="15.57" cy="162.18" r="0.72" style="fill: #dbdbd7"/>
      <circle cx="12.48" cy="164.71" r="0.72" style="fill: #dbdbd7"/>
      <rect height="0.7" style="fill: #843c39;stroke: #010101;stroke-miterlimit: 10;stroke-width: 0.10000000149011612px" width="0.81" x="12.13" y="164.27"/>
      <path d="M20.49,164.77a6.4,6.4,0,1,0-6.39,6.4h0A6.4,6.4,0,0,0,20.49,164.77Zm-1.55-1.46a4.88,4.88,0,0,1-.11,3.09h-.47l-.14-.47a.47.47,0,0,0-.48-.37H14.27a.31.31,0,0,0-.19.09.28.28,0,0,0-.08.15v.8H11.93a.34.34,0,0,1-.25-.14.17.17,0,0,1,0-.14v-3.1a.6.6,0,0,1,.25-.19H14v.76a.21.21,0,0,0,.05.15.31.31,0,0,0,.19,0h3.58l.17-.08a.86.86,0,0,0,.36-.63.42.42,0,0,1,.2-.1A.41.41,0,0,1,18.94,163.31Zm-7.28-1.13h-.09v-.52a.24.24,0,0,0-.06-.11.32.32,0,0,0-.2-.08H10.17a4.63,4.63,0,0,1,3.58-1.77L13.7,162a.54.54,0,0,1-.22.23Zm3.13-2.48A5.07,5.07,0,0,1,18,161.64a.46.46,0,0,0-.48,0,.53.53,0,0,0-.16.23,3.32,3.32,0,0,1,0,.89l-.06.36-1.74.12-.92-.74ZM9.45,167a4.69,4.69,0,0,1-.06-4.24l1.61-.08V167Zm6-.58h1.64l.31.28v1.17l.21.21H18a4.46,4.46,0,0,1-3.31,1.74V167Zm-3.27,3.13a4.57,4.57,0,0,1-1.91-1.39V168h1.07a.22.22,0,0,0,.16,0,.27.27,0,0,0,.06-.12v-.55l1.93.09h.14a.36.36,0,0,1,.12.15v2.2a4.62,4.62,0,0,1-1.61-.32Z" style="fill: #ccc8c3"/>
      <circle cx="15.85" cy="161.9" r="0.18" style="fill: #010101"/>
      <circle cx="15.29" cy="162.33" r="0.18" style="fill: #010101"/>
      <circle cx="15.95" cy="167.24" r="0.18" style="fill: #010101"/>
      <circle cx="15.36" cy="167.71" r="0.18" style="fill: #010101"/>
      <circle cx="17.08" cy="161.3" r="0.14" style="fill: #c6b38c"/>
      <circle cx="15.85" cy="161.9" r="0.13" style="fill: #c6b38c"/>
      <circle cx="15.29" cy="162.33" r="0.13" style="fill: #c6b38c"/>
      <circle cx="13.2" cy="161.77" r="0.13" style="fill: #c6b38c"/>
      <circle cx="10.53" cy="164.9" r="0.13" style="fill: #c6b38c"/>
      <circle cx="12.55" cy="164.58" r="0.13" style="fill: #c6b38c"/>
      <circle cx="13.2" cy="167.78" r="0.13" style="fill: #c6b38c"/>
      <circle cx="15.95" cy="167.24" r="0.13" style="fill: #c6b38c"/>
      <circle cx="15.36" cy="167.71" r="0.13" style="fill: #c6b38c"/>
      <circle cx="17.08" cy="168.28" r="0.13" style="fill: #c6b38c"/>
      <line style="fill: none;stroke: #c6b38c;stroke-miterlimit: 10;stroke-width: 0.04535432904958725px" x1="17.02" x2="15.94" y1="161.32" y2="161.95"/>
      <polyline points="15.24 162.3 14.86 162.06 13.24 161.82" style="fill: none;stroke: #c6b38c;stroke-miterlimit: 10;stroke-width: 0.04535432904958725px"/>
      <line style="fill: none;stroke: #c6b38c;stroke-miterlimit: 10;stroke-width: 0.04535432904958725px" x1="12.48" x2="10.56" y1="164.6" y2="164.93"/>
      <line style="fill: none;stroke: #c6b38c;stroke-miterlimit: 10;stroke-width: 0.03004724346101284px" x1="12.55" x2="12.32" y1="164.58" y2="164.35"/>
      <line style="fill: none;stroke: #c6b38c;stroke-miterlimit: 10;stroke-width: 0.03004724346101284px" x1="12.57" x2="12.77" y1="164.63" y2="164.83"/>
      <polyline points="12.55 164.6 12.3 164.85 12.79 164.36" style="fill: none;stroke: #c6b38c;stroke-miterlimit: 10;stroke-width: 0.03004724346101284px"/>
      <polyline points="15.34 167.75 13.24 167.8 15.38 167.71" style="fill: none;stroke: #c6b38c;stroke-miterlimit: 10;stroke-width: 0.04535432904958725px"/>
      <line style="fill: none;stroke: #c6b38c;stroke-miterlimit: 10;stroke-width: 0.04535432904958725px" x1="17.08" x2="15.98" y1="168.26" y2="167.19"/>
    </g>
  </g>
  <g data-name="Layer 11" id="Layer_11">
    <path d="M20,41.69h0a1.82,1.82,0,0,1-1.82,1.82H9a1.82,1.82,0,0,1-1.82-1.82h0A1.81,1.81,0,0,1,9,39.87H18.2A1.81,1.81,0,0,1,20,41.69Z" style="fill: url(#linear-gradient-49)"/>
    <rect height="3.64" style="fill: url(#linear-gradient-50)" width="6.78" x="10.26" y="39.87"/>
    <path d="M20,52h0a1.81,1.81,0,0,1-1.82,1.82H9A1.81,1.81,0,0,1,7.16,52h0A1.82,1.82,0,0,1,9,50.22h9.23A1.82,1.82,0,0,1,20,52Z" style="fill: url(#linear-gradient-51)"/>
    <rect height="3.64" style="fill: url(#linear-gradient-52)" width="6.78" x="10.27" y="50.22"/>
    <path d="M20.53,94.69h0a1.81,1.81,0,0,1-1.82,1.82H9.48a1.81,1.81,0,0,1-1.82-1.82h0a1.82,1.82,0,0,1,1.82-1.82h9.23A1.82,1.82,0,0,1,20.53,94.69Z" style="fill: url(#linear-gradient-53)"/>
    <rect height="3.64" style="fill: url(#linear-gradient-54)" width="6.78" x="10.77" y="92.87"/>
    <path d="M19.84,183.51h0A1.81,1.81,0,0,1,18,185.33H8.79A1.81,1.81,0,0,1,7,183.51H7a1.82,1.82,0,0,1,1.82-1.82H18A1.82,1.82,0,0,1,19.84,183.51Z" style="fill: url(#linear-gradient-55)"/>
    <rect height="3.64" style="fill: url(#linear-gradient-56)" width="6.78" x="10.08" y="181.69"/>
    <path d="M19.7,193.77h0a1.81,1.81,0,0,1-1.82,1.82H8.65a1.81,1.81,0,0,1-1.82-1.82h0A1.82,1.82,0,0,1,8.65,192h9.23A1.82,1.82,0,0,1,19.7,193.77Z" style="fill: url(#linear-gradient-57)"/>
    <rect height="3.64" style="fill: url(#linear-gradient-58)" width="6.78" x="9.94" y="191.95"/>
    <path d="M20.2,236.41h0a1.82,1.82,0,0,1-1.82,1.82H9.15a1.82,1.82,0,0,1-1.82-1.82h0a1.81,1.81,0,0,1,1.82-1.82h9.23A1.81,1.81,0,0,1,20.2,236.41Z" style="fill: url(#linear-gradient-59)"/>
    <rect height="3.64" style="fill: url(#linear-gradient-60)" width="6.78" x="10.44" y="234.59"/>
  </g>
  <g id="Connectors">
    <circle cx="25.07" cy="1.73" data-cir-type="female" data-name="circuitoCon DI" id="circuitoCon_DI" r="0.93" style="fill: none"/>
    <circle cx="13.74" cy="1.73" data-cir-color="red" data-cir-type="female" data-name="circuitoCon VCC" id="circuitoCon_VCC" r="0.93" style="fill: none"/>
    <circle cx="3.08" cy="1.73" data-cir-color="black" data-cir-type="female" data-name="circuitoCon GND" id="circuitoCon_GND" r="0.93" style="fill: none"/>
    <circle cx="25.16" cy="281.86" data-cir-type="female" data-name="circuitoCon DO" id="circuitoCon_DO" r="0.93" style="fill: none"/>
    <circle cx="13.83" cy="281.86" data-cir-color="red" data-cir-type="female" data-name="circuitoCon VCC_OUT" id="circuitoCon_VCC_OUT" r="0.93" style="fill: none"/>
    <circle cx="3.17" cy="281.86" data-cir-color="black" data-cir-type="female" data-name="circuitoCon GND_OUT" id="circuitoCon_GND_OUT" r="0.93" style="fill: none"/>
  </g>
</svg>