<?xml version="1.0" ?><svg data-name="Layer 1" height="9.57mm" id="Layer_1" viewBox="0 0 100.73 27.12" width="35.53mm" xmlns="http://www.w3.org/2000/svg" xmlns:xlink="http://www.w3.org/1999/xlink">
  <defs>
    <linearGradient data-name="Copper 01" gradientUnits="userSpaceOnUse" id="Copper_01" x1="100.73" x2="0" y1="13.56" y2="13.56">
      <stop offset="0.01" stop-color="#531715"/>
      <stop offset="0.08" stop-color="#8e5027"/>
      <stop offset="0.38" stop-color="#ca9551"/>
      <stop offset="0.56" stop-color="#fff3dc"/>
      <stop offset="0.8" stop-color="#d7b189"/>
      <stop offset="0.94" stop-color="#a25e2d"/>
      <stop offset="0.96" stop-color="#9c5524"/>
    </linearGradient>
  </defs>
  <title>DIY Capacitive Sensor</title>
  
  <g>
    <path d="M97.89,0H7.8A2.84,2.84,0,0,0,5,2.83v9.07H1.65a1.65,1.65,0,1,0,0,3.3H5v9.07A2.84,2.84,0,0,0,7.8,27.12H97.89a2.84,2.84,0,0,0,2.83-2.83V2.83A2.84,2.84,0,0,0,97.89,0Z" style="fill: url(#Copper_01)"/>
    <path d="M19.61,15h.9a.25.25,0,0,1,.18.07.24.24,0,0,1,0,.35.25.25,0,0,1-.18.07h-.93a.72.72,0,0,1-.37-.11.68.68,0,0,1-.26-.25L18.37,14a1.12,1.12,0,0,1-.12-.49,1,1,0,0,1,.11-.48l.58-1.1a.77.77,0,0,1,.26-.27.61.61,0,0,1,.34-.12h1a.24.24,0,0,1,.18.07.24.24,0,0,1,.07.17.25.25,0,0,1-.07.18.23.23,0,0,1-.18.08h-.94a.22.22,0,0,0-.19.14l-.55,1a.59.59,0,0,0-.06.29.65.65,0,0,0,.07.31l.53,1A.25.25,0,0,0,19.61,15Z" style="fill: #4d4845"/>
    <path d="M23.74,12l.55,1.11a1.11,1.11,0,0,1,0,1l-.55,1.1a.61.61,0,0,1-.59.36.64.64,0,0,1-.36-.1.68.68,0,0,1-.24-.26L22,14.05a1.06,1.06,0,0,1-.11-.49,1.08,1.08,0,0,1,.11-.49L22.55,12a.62.62,0,0,1,.59-.36A.61.61,0,0,1,23.74,12ZM23,12.2l-.51,1a.74.74,0,0,0-.07.31.71.71,0,0,0,.07.31L23,14.93a.15.15,0,0,0,.15.1.16.16,0,0,0,.15-.1l.53-1.06a.72.72,0,0,0,.07-.31.66.66,0,0,0-.07-.31l-.52-1a.17.17,0,0,0-.16-.12A.18.18,0,0,0,23,12.2Z" style="fill: #4d4845"/>
    <path d="M28.06,11.85v3.67h-.67l-1.34-3v2.8a.25.25,0,1,1-.5,0V11.59h.66l1.34,3V11.85a.26.26,0,0,1,.25-.25.24.24,0,0,1,.18.07A.25.25,0,0,1,28.06,11.85Z" style="fill: #4d4845"/>
    <path d="M29.46,11.59h1a.68.68,0,0,1,.37.12.76.76,0,0,1,.27.29l.49,1a1.17,1.17,0,0,1,0,1.12l-.49,1a.75.75,0,0,1-.27.3.72.72,0,0,1-.4.11h-.95a.24.24,0,0,1-.18-.07.24.24,0,0,1-.07-.17.25.25,0,0,1,.07-.18.24.24,0,0,1,.18-.08h.26V12.09h-.25a.23.23,0,0,1-.18-.08.25.25,0,0,1-.07-.18.24.24,0,0,1,.07-.17A.24.24,0,0,1,29.46,11.59Zm.75.5V15h.17a.27.27,0,0,0,.25-.16l.49-1a.8.8,0,0,0,.09-.32.67.67,0,0,0-.07-.31l-.51-1a.27.27,0,0,0-.26-.15Z" style="fill: #4d4845"/>
    <path d="M32.86,14.78V11.85a.25.25,0,0,1,.07-.18.25.25,0,0,1,.42.17v2.93a.23.23,0,0,0,.07.17.24.24,0,0,0,.17.07h1a.24.24,0,0,0,.18-.07.23.23,0,0,0,.07-.17V11.85a.25.25,0,0,1,.07-.18.25.25,0,0,1,.35,0,.25.25,0,0,1,.07.18v2.92a.72.72,0,0,1-.22.53.71.71,0,0,1-.52.22h-1a.75.75,0,0,1-.74-.74Z" style="fill: #4d4845"/>
    <path d="M37.89,15h.9a.25.25,0,0,1,.18.07.24.24,0,0,1,0,.35.25.25,0,0,1-.18.07h-.93a.72.72,0,0,1-.37-.11.68.68,0,0,1-.26-.25L36.65,14a1.12,1.12,0,0,1-.12-.49,1,1,0,0,1,.11-.48l.58-1.1a.77.77,0,0,1,.26-.27.61.61,0,0,1,.34-.12h1a.24.24,0,0,1,.18.07.24.24,0,0,1,.07.17A.25.25,0,0,1,39,12a.23.23,0,0,1-.18.08h-.94a.22.22,0,0,0-.19.14l-.55,1a.59.59,0,0,0-.06.29.65.65,0,0,0,.07.31l.53,1A.25.25,0,0,0,37.89,15Z" style="fill: #4d4845"/>
    <path d="M40.17,12.27V11.6h2.51v.68a.24.24,0,0,1-.07.18.24.24,0,0,1-.17.07.25.25,0,0,1-.18-.07.24.24,0,0,1-.08-.17v-.18h-.5v3.18a.24.24,0,0,1-.07.18.24.24,0,0,1-.17.07.25.25,0,0,1-.18-.07.24.24,0,0,1-.07-.18V12.09h-.5v.17a.25.25,0,1,1-.5,0Z" style="fill: #4d4845"/>
    <path d="M44.08,11.59h2a.24.24,0,0,1,.17.07.24.24,0,0,1,.08.17.25.25,0,0,1-.07.18.24.24,0,0,1-.17.08h-.75V15h.75a.25.25,0,0,1,.25.25.24.24,0,0,1-.07.18.24.24,0,0,1-.17.07h-2a.25.25,0,1,1,0-.5h.76V12.09h-.76A.24.24,0,0,1,43.9,12a.24.24,0,0,1-.07-.17.25.25,0,0,1,.07-.18A.24.24,0,0,1,44.08,11.59Z" style="fill: #4d4845"/>
    <path d="M50,11.85v.91l-1,2.57a.25.25,0,0,1-.49,0l-1-2.57v-.91a.25.25,0,0,1,.07-.18.25.25,0,0,1,.35,0,.25.25,0,0,1,.07.18v.81l.76,1.93.76-1.92v-.81a.25.25,0,0,1,.07-.18.25.25,0,0,1,.35,0A.25.25,0,0,1,50,11.85Z" style="fill: #4d4845"/>
    <path d="M53.4,12.09H51.64V13.3h.76a.25.25,0,0,1,.25.25.25.25,0,0,1-.07.18.24.24,0,0,1-.18.07h-.76V15h1.76a.24.24,0,0,1,.17.07.24.24,0,0,1,.07.18.23.23,0,0,1-.08.18.25.25,0,0,1-.18.07H51.15V11.59H53.4a.26.26,0,0,1,.25.25.24.24,0,0,1-.08.17A.25.25,0,0,1,53.4,12.09Z" style="fill: #4d4845"/>
    <path d="M59.46,13.14V13l-.51-.73v3a.25.25,0,0,1-.5,0V11.59h.64l.61.89.63-.89H61v3.68a.23.23,0,0,1-.08.18.25.25,0,0,1-.18.07.25.25,0,0,1-.25-.25v-3L60,13v.14a.25.25,0,0,1-.5,0Z" style="fill: #4d4845"/>
    <path d="M62.13,15.17l1-3.4a.24.24,0,0,1,.25-.18.22.22,0,0,1,.23.16l1,3.45a.26.26,0,0,1,0,.07.24.24,0,0,1-.07.18.22.22,0,0,1-.16.07.23.23,0,0,1-.25-.18l-.2-.67H62.8l-.22.72a.15.15,0,0,1-.07.09.26.26,0,0,1-.14,0,.24.24,0,0,1-.18-.07.25.25,0,0,1-.07-.18A.31.31,0,0,1,62.13,15.17Zm1.25-2.43L63,14.16h.84Z" style="fill: #4d4845"/>
    <path d="M65.76,12.27V11.6h2.51v.68a.24.24,0,0,1-.07.18.24.24,0,0,1-.17.07.25.25,0,0,1-.18-.07.24.24,0,0,1-.08-.17v-.18h-.5v3.18a.24.24,0,0,1-.07.18.24.24,0,0,1-.17.07.25.25,0,0,1-.18-.07.24.24,0,0,1-.07-.18V12.09h-.5v.17a.25.25,0,1,1-.5,0Z" style="fill: #4d4845"/>
    <path d="M71.68,12.09H69.92V13.3h.76a.25.25,0,0,1,.25.25.25.25,0,0,1-.07.18.24.24,0,0,1-.18.07h-.76V15h1.76a.24.24,0,0,1,.17.07.24.24,0,0,1,.07.18.23.23,0,0,1-.08.18.25.25,0,0,1-.18.07H69.43V11.59h2.25a.26.26,0,0,1,.25.25.24.24,0,0,1-.08.17A.25.25,0,0,1,71.68,12.09Z" style="fill: #4d4845"/>
    <path d="M73.09,15.27V11.59h1.76a.71.71,0,0,1,.52.22.72.72,0,0,1,.22.53v.28a.72.72,0,0,1-.22.53.71.71,0,0,1-.53.22h-.32l1,1.74a.29.29,0,0,1,0,.15.23.23,0,0,1-.08.17.25.25,0,0,1-.17.07.24.24,0,0,1-.22-.13l-1.16-2h-.36v1.89a.24.24,0,0,1-.08.18.25.25,0,0,1-.18.07.25.25,0,0,1-.25-.25Zm.5-2.39h1.26a.25.25,0,0,0,.25-.25v-.29a.25.25,0,0,0-.25-.25H73.58Z" style="fill: #4d4845"/>
    <path d="M77,11.59h2a.24.24,0,0,1,.17.07.24.24,0,0,1,.08.17.25.25,0,0,1-.07.18.24.24,0,0,1-.17.08h-.75V15H79a.25.25,0,0,1,.25.25.24.24,0,0,1-.07.18.24.24,0,0,1-.17.07H77a.25.25,0,1,1,0-.5h.76V12.09H77A.24.24,0,0,1,76.8,12a.24.24,0,0,1-.07-.17.25.25,0,0,1,.07-.18A.24.24,0,0,1,77,11.59Z" style="fill: #4d4845"/>
    <path d="M80.41,15.17l1-3.4a.24.24,0,0,1,.25-.18.22.22,0,0,1,.23.16l1,3.45a.26.26,0,0,1,0,.07.24.24,0,0,1-.07.18.22.22,0,0,1-.16.07.23.23,0,0,1-.25-.18l-.2-.67H81.08l-.22.72a.15.15,0,0,1-.07.09.26.26,0,0,1-.14,0,.24.24,0,0,1-.18-.07.25.25,0,0,1-.07-.18A.31.31,0,0,1,80.41,15.17Zm1.25-2.43-.43,1.42h.84Z" style="fill: #4d4845"/>
    <path d="M84,15.52V11.84a.25.25,0,0,1,.5,0V15H86.3a.25.25,0,0,1,.18.07.24.24,0,0,1,0,.35.25.25,0,0,1-.18.07Z" style="fill: #4d4845"/>
  </g>
  <g id="Connectors">
  <circle cx="1" cy="13.56" data-cir-type="female" id="circuitoCon_PinA" r="0.96" style="fill: none"/>
  </g>
</svg>