<?xml version="1.0" ?><svg data-name="Layer 5" height="36mm" id="Layer_5" viewBox="0 0 226.77 102.05" width="80mm" xmlns="http://www.w3.org/2000/svg" xmlns:xlink="http://www.w3.org/1999/xlink">
  <defs>
    <linearGradient gradientUnits="userSpaceOnUse" id="linear-gradient" x1="4.52" x2="219.12" y1="4.3" y2="96.4">
      <stop offset="0" stop-color="#2e9b77"/>
      <stop offset="1" stop-color="#2e9060"/>
    </linearGradient>
    <linearGradient gradientUnits="userSpaceOnUse" id="linear-gradient-2" x1="92.91" x2="132.12" y1="1.46" y2="96.68">
      <stop offset="0.19" stop-color="#fff"/>
      <stop offset="0.6" stop-color="#fff" stop-opacity="0"/>
    </linearGradient>
  </defs>
  <title>LCD16X2</title>
  <g id="Body">
    <path d="M0,0V102H226.77V0ZM7.09,98.56a3.6,3.6,0,1,1,3.6-3.6A3.6,3.6,0,0,1,7.09,98.56Zm0-87.87a3.6,3.6,0,1,1,3.6-3.6A3.6,3.6,0,0,1,7.09,10.69Zm15.59-2a1.44,1.44,0,1,1,1.44-1.44A1.44,1.44,0,0,1,22.68,8.7Zm7.2,0a1.44,1.44,0,1,1,1.44-1.44A1.44,1.44,0,0,1,29.88,8.7Zm7.2,0a1.44,1.44,0,1,1,1.44-1.44A1.44,1.44,0,0,1,37.08,8.7Zm7.2,0a1.44,1.44,0,1,1,1.44-1.44A1.44,1.44,0,0,1,44.28,8.7Zm7.2,0a1.44,1.44,0,1,1,1.44-1.44A1.44,1.44,0,0,1,51.48,8.7Zm7.2,0a1.44,1.44,0,1,1,1.44-1.44A1.44,1.44,0,0,1,58.68,8.7Zm7.2,0a1.44,1.44,0,1,1,1.44-1.44A1.44,1.44,0,0,1,65.88,8.7Zm7.2,0a1.44,1.44,0,1,1,1.44-1.44A1.44,1.44,0,0,1,73.08,8.7Zm7.2,0a1.44,1.44,0,1,1,1.44-1.44A1.44,1.44,0,0,1,80.28,8.7Zm7.2,0a1.44,1.44,0,1,1,1.44-1.44A1.44,1.44,0,0,1,87.48,8.7Zm7.2,0a1.44,1.44,0,1,1,1.44-1.44A1.44,1.44,0,0,1,94.68,8.7Zm7.2,0a1.44,1.44,0,1,1,1.44-1.44A1.44,1.44,0,0,1,101.88,8.7Zm7.2,0a1.44,1.44,0,1,1,1.44-1.44A1.44,1.44,0,0,1,109.08,8.7Zm7.2,0a1.44,1.44,0,1,1,1.44-1.44A1.44,1.44,0,0,1,116.28,8.7Zm7.2,0a1.44,1.44,0,1,1,1.44-1.44A1.44,1.44,0,0,1,123.48,8.7Zm7.2,0a1.44,1.44,0,1,1,1.44-1.44A1.44,1.44,0,0,1,130.68,8.7Zm89,89.86a3.6,3.6,0,1,1,3.6-3.6A3.6,3.6,0,0,1,219.69,98.56Zm0-87.87a3.6,3.6,0,1,1,3.6-3.6A3.6,3.6,0,0,1,219.69,10.69Z" style="fill: url(#linear-gradient)" transform="translate(0 0)"/>
    <polygon points="215.8 20.2 14.2 20.2 14.2 87.98 16.12 89.58 212.7 89.58 215.8 86.48 215.8 20.2" style="fill: #2b6d2d;opacity: 0.5"/>
    <polygon points="211.77 15.9 15 15.9 12.47 18.43 12.47 84.81 15 87.34 211.77 87.34 214.3 84.81 214.3 18.43 211.77 15.9" style="fill: #303030"/>
    <rect height="45.35" rx="3.05" ry="3.05" style="fill: #21201e" width="187.09" x="19.84" y="28.94"/>
    <polygon points="199.57 67.92 27.2 67.92 27.2 52.9 27.2 35.32 199.57 35.32 199.57 67.92" style="fill: #2b6d2d"/>
    <g>
      <path d="M206.93,21.82a1.62,1.62,0,0,0-1.62-1.62H21.46a1.62,1.62,0,0,0-1.62,1.62,1.6,1.6,0,0,0,0,.2h187A1.6,1.6,0,0,0,206.93,21.82Z" style="fill: #21201e" transform="translate(0 0)"/>
      <path d="M19.86,22a1.62,1.62,0,0,0,1.6,1.43H205.31a1.62,1.62,0,0,0,1.6-1.43Z" style="fill: #4d4d4d" transform="translate(0 0)"/>
    </g>
    <g>
      <path d="M206.93,81.42a1.62,1.62,0,0,0-1.62-1.62H21.46a1.62,1.62,0,0,0-1.62,1.62,1.6,1.6,0,0,0,0,.2h187A1.6,1.6,0,0,0,206.93,81.42Z" style="fill: #21201e" transform="translate(0 0)"/>
      <path d="M19.86,81.62A1.62,1.62,0,0,0,21.46,83H205.31a1.62,1.62,0,0,0,1.6-1.43Z" style="fill: #4d4d4d" transform="translate(0 0)"/>
    </g>
    <g>
      <line style="fill: #006837;stroke: #303030;stroke-miterlimit: 10;stroke-width: 0.25px;opacity: 0.30000000000000004" x1="199.57" x2="27.2" y1="51.62" y2="51.62"/>
      <line style="fill: #006837;stroke: #303030;stroke-miterlimit: 10;stroke-width: 0.25px;opacity: 0.30000000000000004" x1="37.82" x2="37.82" y1="35.32" y2="67.92"/>
      <line style="fill: #006837;stroke: #303030;stroke-miterlimit: 10;stroke-width: 0.25px;opacity: 0.30000000000000004" x1="48.59" x2="48.59" y1="35.32" y2="67.92"/>
      <line style="fill: #006837;stroke: #303030;stroke-miterlimit: 10;stroke-width: 0.25px;opacity: 0.30000000000000004" x1="59.36" x2="59.36" y1="35.32" y2="67.92"/>
      <line style="fill: #006837;stroke: #303030;stroke-miterlimit: 10;stroke-width: 0.25px;opacity: 0.30000000000000004" x1="70.14" x2="70.14" y1="35.32" y2="67.92"/>
      <line style="fill: #006837;stroke: #303030;stroke-miterlimit: 10;stroke-width: 0.25px;opacity: 0.30000000000000004" x1="80.91" x2="80.91" y1="35.32" y2="67.92"/>
      <line style="fill: #006837;stroke: #303030;stroke-miterlimit: 10;stroke-width: 0.25px;opacity: 0.30000000000000004" x1="91.68" x2="91.68" y1="35.32" y2="67.92"/>
      <line style="fill: #006837;stroke: #303030;stroke-miterlimit: 10;stroke-width: 0.25px;opacity: 0.30000000000000004" x1="102.46" x2="102.46" y1="35.32" y2="67.92"/>
      <line style="fill: #006837;stroke: #303030;stroke-miterlimit: 10;stroke-width: 0.25px;opacity: 0.30000000000000004" x1="113.23" x2="113.23" y1="35.32" y2="67.92"/>
      <line style="fill: #006837;stroke: #303030;stroke-miterlimit: 10;stroke-width: 0.25px;opacity: 0.30000000000000004" x1="124" x2="124" y1="35.32" y2="67.92"/>
      <line style="fill: #006837;stroke: #303030;stroke-miterlimit: 10;stroke-width: 0.25px;opacity: 0.30000000000000004" x1="134.77" x2="134.77" y1="35.32" y2="67.92"/>
      <line style="fill: #006837;stroke: #303030;stroke-miterlimit: 10;stroke-width: 0.25px;opacity: 0.30000000000000004" x1="145.55" x2="145.55" y1="35.32" y2="67.92"/>
      <line style="fill: #006837;stroke: #303030;stroke-miterlimit: 10;stroke-width: 0.25px;opacity: 0.30000000000000004" x1="156.32" x2="156.32" y1="35.32" y2="67.92"/>
      <line style="fill: #006837;stroke: #303030;stroke-miterlimit: 10;stroke-width: 0.25px;opacity: 0.30000000000000004" x1="167.09" x2="167.09" y1="35.32" y2="67.92"/>
      <line style="fill: #006837;stroke: #303030;stroke-miterlimit: 10;stroke-width: 0.25px;opacity: 0.30000000000000004" x1="177.87" x2="177.87" y1="35.32" y2="67.92"/>
      <line style="fill: #006837;stroke: #303030;stroke-miterlimit: 10;stroke-width: 0.25px;opacity: 0.30000000000000004" x1="188.64" x2="188.64" y1="35.32" y2="67.92"/>
    </g>
    <circle cx="219.71" cy="94.9" r="3.97" style="fill: #e8e5df"/>
    <circle cx="219.74" cy="7.06" r="3.97" style="fill: #e8e5df"/>
    <circle cx="6.99" cy="94.9" r="3.97" style="fill: #e8e5df"/>
    <circle cx="7.03" cy="7.06" r="3.97" style="fill: #e8e5df"/>
    <rect height="32.6" style="opacity: 0.15;fill: url(#linear-gradient-2)" width="172.02" x="27.55" y="35.32"/>
  </g>
  <g id="Connectors">
    <circle cx="130.68" cy="7.26" data-cir-type="male" id="circuitoCon_K" r="1.44" style="fill: none"/>
    <circle cx="123.48" cy="7.26" data-cir-type="male" id="circuitoCon_A" r="1.44" style="fill: none"/>
    <circle cx="116.28" cy="7.26" data-cir-type="male" id="circuitoCon_DB7" r="1.44" style="fill: none"/>
    <circle cx="109.08" cy="7.26" data-cir-type="male" id="circuitoCon_DB6" r="1.44" style="fill: none"/>
    <circle cx="101.88" cy="7.26" data-cir-type="male" id="circuitoCon_DB5" r="1.44" style="fill: none"/>
    <circle cx="94.68" cy="7.26" data-cir-type="male" id="circuitoCon_DB4" r="1.44" style="fill: none"/>
    <circle cx="87.48" cy="7.26" data-cir-type="male" id="circuitoCon_DB3" r="1.44" style="fill: none"/>
    <circle cx="80.28" cy="7.26" data-cir-type="male" id="circuitoCon_DB2" r="1.44" style="fill: none"/>
    <circle cx="73.08" cy="7.26" data-cir-type="male" id="circuitoCon_DB1" r="1.44" style="fill: none"/>
    <circle cx="65.88" cy="7.26" data-cir-type="male" id="circuitoCon_DB0" r="1.44" style="fill: none"/>
    <circle cx="58.68" cy="7.26" data-cir-type="male" id="circuitoCon_E" r="1.44" style="fill: none"/>
    <circle cx="51.48" cy="7.26" data-cir-type="male" id="circuitoCon_R_W" r="1.44" style="fill: none"/>
    <circle cx="44.28" cy="7.26" data-cir-type="male" id="circuitoCon_RS" r="1.44" style="fill: none"/>
    <circle cx="37.08" cy="7.26" data-cir-type="male" id="circuitoCon_VO" r="1.44" style="fill: none"/>
    <circle cx="29.88" cy="7.26" data-cir-type="male" id="circuitoCon_VDD" r="1.44" style="fill: none"/>
    <circle cx="22.68" cy="7.26" data-cir-type="male" id="circuitoCon_VSS" r="1.44" style="fill: none"/>
  </g>
  <g id="parts">
    <path d="M128.13,0V7.59a2.55,2.55,0,0,0,5.1,0V0Zm2.55,8.7a1.44,1.44,0,1,1,1.44-1.44A1.44,1.44,0,0,1,130.68,8.7Z" style="fill: #e8e5df" transform="translate(0 0)"/>
    <path d="M120.93,0V7.59a2.55,2.55,0,0,0,5.1,0V0Zm2.55,8.7a1.44,1.44,0,1,1,1.44-1.44A1.44,1.44,0,0,1,123.48,8.7Z" style="fill: #e8e5df" transform="translate(0 0)"/>
    <path d="M113.73,0V7.59a2.55,2.55,0,0,0,5.1,0V0Zm2.55,8.7a1.44,1.44,0,1,1,1.44-1.44A1.44,1.44,0,0,1,116.28,8.7Z" style="fill: #e8e5df" transform="translate(0 0)"/>
    <path d="M106.53,0V7.59a2.55,2.55,0,1,0,5.1,0V0Zm2.55,8.7a1.44,1.44,0,1,1,1.44-1.44A1.44,1.44,0,0,1,109.08,8.7Z" style="fill: #e8e5df" transform="translate(0 0)"/>
    <path d="M99.33,0V7.59a2.55,2.55,0,1,0,5.1,0V0Zm2.55,8.7a1.44,1.44,0,1,1,1.44-1.44A1.44,1.44,0,0,1,101.88,8.7Z" style="fill: #e8e5df" transform="translate(0 0)"/>
    <path d="M92.13,0V7.59a2.55,2.55,0,1,0,5.1,0V0Zm2.55,8.7a1.44,1.44,0,1,1,1.44-1.44A1.44,1.44,0,0,1,94.68,8.7Z" style="fill: #e8e5df" transform="translate(0 0)"/>
    <path d="M84.93,0V7.59a2.55,2.55,0,1,0,5.1,0V0Zm2.55,8.7a1.44,1.44,0,1,1,1.44-1.44A1.44,1.44,0,0,1,87.48,8.7Z" style="fill: #e8e5df" transform="translate(0 0)"/>
    <path d="M77.73,0V7.59a2.55,2.55,0,1,0,5.1,0V0Zm2.55,8.7a1.44,1.44,0,1,1,1.44-1.44A1.44,1.44,0,0,1,80.28,8.7Z" style="fill: #e8e5df" transform="translate(0 0)"/>
    <path d="M70.53,0V7.59a2.55,2.55,0,1,0,5.1,0V0Zm2.55,8.7a1.44,1.44,0,1,1,1.44-1.44A1.44,1.44,0,0,1,73.08,8.7Z" style="fill: #e8e5df" transform="translate(0 0)"/>
    <path d="M63.33,0V7.59a2.55,2.55,0,1,0,5.1,0V0Zm2.55,8.7a1.44,1.44,0,1,1,1.44-1.44A1.44,1.44,0,0,1,65.88,8.7Z" style="fill: #e8e5df" transform="translate(0 0)"/>
    <path d="M56.13,0V7.59a2.55,2.55,0,1,0,5.1,0V0Zm2.55,8.7a1.44,1.44,0,1,1,1.44-1.44A1.44,1.44,0,0,1,58.68,8.7Z" style="fill: #e8e5df" transform="translate(0 0)"/>
    <path d="M48.93,0V7.59a2.55,2.55,0,1,0,5.1,0V0Zm2.55,8.7a1.44,1.44,0,1,1,1.44-1.44A1.44,1.44,0,0,1,51.48,8.7Z" style="fill: #e8e5df" transform="translate(0 0)"/>
    <path d="M41.73,0V7.59a2.55,2.55,0,1,0,5.1,0V0Zm2.55,8.7a1.44,1.44,0,1,1,1.44-1.44A1.44,1.44,0,0,1,44.28,8.7Z" style="fill: #e8e5df" transform="translate(0 0)"/>
    <path d="M34.53,0V7.59a2.55,2.55,0,1,0,5.1,0V0Zm2.55,8.7a1.44,1.44,0,1,1,1.44-1.44A1.44,1.44,0,0,1,37.08,8.7Z" style="fill: #e8e5df" transform="translate(0 0)"/>
    <path d="M27.33,0V7.59a2.55,2.55,0,0,0,5.1,0V0Zm2.55,8.7a1.44,1.44,0,1,1,1.44-1.44A1.44,1.44,0,0,1,29.88,8.7Z" style="fill: #e8e5df" transform="translate(0 0)"/>
    <path d="M20.13,0V7.59a2.55,2.55,0,0,0,5.1,0V0Zm2.55,8.7a1.44,1.44,0,1,1,1.44-1.44A1.44,1.44,0,0,1,22.68,8.7Z" style="fill: #e8e5df" transform="translate(0 0)"/>
  </g>
  <g id="Text">
    <path d="M129.87,13.43V11.17a.16.16,0,0,1,0-.12.16.16,0,0,1,.12,0,.16.16,0,0,1,.12,0,.16.16,0,0,1,0,.12v.78l1.05-.9a.18.18,0,0,1,.12,0,.15.15,0,0,1,.12.05.16.16,0,0,1,0,.12.15.15,0,0,1-.05.11l-1.19,1,1.19,1a.13.13,0,0,1,0,.11.17.17,0,0,1,0,.12.15.15,0,0,1-.12.05.18.18,0,0,1-.12,0l-1-.9v.78a.16.16,0,0,1,0,.12.16.16,0,0,1-.28-.12Z" style="fill: #f2f2f2" transform="translate(0 0)"/>
    <path d="M122.69,13.37l.66-2.25a.16.16,0,0,1,.17-.12.14.14,0,0,1,.15.1l.65,2.28a.18.18,0,0,1,0,0,.16.16,0,0,1,0,.12.15.15,0,0,1-.11,0,.15.15,0,0,1-.16-.12l-.13-.45h-.75l-.14.48a.1.1,0,0,1,0,.06.16.16,0,0,1-.09,0,.16.16,0,0,1-.12,0,.17.17,0,0,1,0-.12A.19.19,0,0,1,122.69,13.37Zm.82-1.61-.28.94h.55Z" style="fill: #f2f2f2" transform="translate(0 0)"/>
    <g>
      <path d="M114.43,11h.65a.45.45,0,0,1,.25.08.5.5,0,0,1,.18.19l.32.66a.77.77,0,0,1,0,.74l-.33.65a.5.5,0,0,1-.18.2.47.47,0,0,1-.26.08h-.63a.16.16,0,0,1-.12,0,.16.16,0,0,1,0-.12.16.16,0,0,1,0-.12.16.16,0,0,1,.12,0h.17V11.33h-.17a.16.16,0,0,1-.12,0,.16.16,0,0,1,0-.12.16.16,0,0,1,0-.12A.16.16,0,0,1,114.43,11Zm.5.33v1.94H115a.17.17,0,0,0,.16-.11l.32-.64a.51.51,0,0,0,.06-.21.44.44,0,0,0,0-.2l-.34-.67a.18.18,0,0,0-.17-.1Z" style="fill: #f2f2f2" transform="translate(0 0)"/>
      <path d="M116.67,11.31v-.14a.16.16,0,0,1,0-.12.16.16,0,0,1,.12,0h1.49v1a.17.17,0,0,1-.06.13l-.6.52v.76a.16.16,0,0,1,0,.12.16.16,0,0,1-.12,0,.16.16,0,0,1-.12,0,.16.16,0,0,1,0-.12V12.6a.18.18,0,0,1,.06-.14l.61-.51v-.61h-1a.17.17,0,0,1-.28.09A.16.16,0,0,1,116.67,11.31Z" style="fill: #f2f2f2" transform="translate(0 0)"/>
    </g>
    <g>
      <path d="M107.23,11h.65a.45.45,0,0,1,.25.08.5.5,0,0,1,.18.19l.32.66a.77.77,0,0,1,0,.74l-.33.65a.5.5,0,0,1-.18.2.47.47,0,0,1-.26.08h-.63a.16.16,0,0,1-.12,0,.16.16,0,0,1,0-.12.16.16,0,0,1,0-.12.16.16,0,0,1,.12,0h.17V11.33h-.17a.16.16,0,0,1-.12,0,.16.16,0,0,1,0-.12.16.16,0,0,1,0-.12A.16.16,0,0,1,107.23,11Zm.5.33v1.94h.12a.17.17,0,0,0,.16-.11l.32-.64a.51.51,0,0,0,.06-.21.44.44,0,0,0,0-.2l-.34-.67a.18.18,0,0,0-.17-.1Z" style="fill: #f2f2f2" transform="translate(0 0)"/>
      <path d="M109.65,11h.16a.16.16,0,0,1,.12,0,.16.16,0,0,1-.12.28v1.08H111a.16.16,0,0,1,.12,0,.16.16,0,0,1,0,.12v.85a.16.16,0,0,1,0,.12.16.16,0,0,1-.12,0h-1.32a.16.16,0,0,1-.12,0,.16.16,0,0,1,0-.12V11.16a.16.16,0,0,1,0-.12A.16.16,0,0,1,109.65,11Zm.16,1.74v.52h1v-.52Z" style="fill: #f2f2f2" transform="translate(0 0)"/>
    </g>
    <g>
      <path d="M100,11h.65a.45.45,0,0,1,.25.08.5.5,0,0,1,.18.19l.32.66a.77.77,0,0,1,0,.74l-.33.65a.5.5,0,0,1-.18.2.47.47,0,0,1-.26.08H100a.16.16,0,0,1-.12,0,.16.16,0,0,1,0-.12.16.16,0,0,1,0-.12.16.16,0,0,1,.12,0h.17V11.33H100a.16.16,0,0,1-.12,0,.16.16,0,0,1,0-.12.16.16,0,0,1,0-.12A.16.16,0,0,1,100,11Zm.5.33v1.94h.12a.17.17,0,0,0,.16-.11l.32-.64a.51.51,0,0,0,.06-.21.44.44,0,0,0,0-.2l-.34-.67a.18.18,0,0,0-.17-.1Z" style="fill: #f2f2f2" transform="translate(0 0)"/>
      <path d="M102.88,13.26h.76v-.8h-1V11h1.16a.16.16,0,0,1,.12,0,.16.16,0,0,1,0,.12.16.16,0,0,1,0,.12.16.16,0,0,1-.12,0H103v.8h.66a.33.33,0,0,1,.33.33v.8a.33.33,0,0,1-.33.33h-.76a.56.56,0,0,1-.22,0l-.25-.1a.15.15,0,0,1-.1-.16.16.16,0,0,1,0-.12.15.15,0,0,1,.11,0l.11,0,.22.09Z" style="fill: #f2f2f2" transform="translate(0 0)"/>
    </g>
    <g>
      <path d="M92.83,11h.65a.45.45,0,0,1,.25.08.5.5,0,0,1,.18.19l.32.66a.77.77,0,0,1,0,.74l-.33.65a.5.5,0,0,1-.18.2.47.47,0,0,1-.26.08h-.63a.16.16,0,0,1-.12,0,.16.16,0,0,1,0-.12.16.16,0,0,1,0-.12.16.16,0,0,1,.12,0H93V11.33h-.17a.16.16,0,0,1-.12,0,.16.16,0,0,1,0-.12.16.16,0,0,1,0-.12A.16.16,0,0,1,92.83,11Zm.5.33v1.94h.12a.17.17,0,0,0,.16-.11l.32-.64A.51.51,0,0,0,94,12.3a.44.44,0,0,0,0-.2l-.34-.67a.18.18,0,0,0-.17-.1Z" style="fill: #f2f2f2" transform="translate(0 0)"/>
      <path d="M96.16,13.43v-.68h-1V11.16a.17.17,0,0,1,.17-.17.16.16,0,0,1,.12,0,.16.16,0,0,1,0,.12v1.25h.66v-1a.16.16,0,0,1,0-.12.16.16,0,0,1,.23,0,.16.16,0,0,1,0,.12v1a.16.16,0,0,1,.12,0,.17.17,0,0,1,0,.23.16.16,0,0,1-.12,0v.69a.16.16,0,0,1,0,.12.16.16,0,0,1-.23,0A.16.16,0,0,1,96.16,13.43Z" style="fill: #f2f2f2" transform="translate(0 0)"/>
    </g>
    <g>
      <path d="M85.63,11h.65a.45.45,0,0,1,.25.08.5.5,0,0,1,.18.19l.32.66a.77.77,0,0,1,0,.74l-.33.65a.5.5,0,0,1-.18.2.47.47,0,0,1-.26.08h-.63a.16.16,0,0,1-.12,0,.16.16,0,0,1,0-.12.16.16,0,0,1,0-.12.16.16,0,0,1,.12,0h.17V11.33h-.17a.16.16,0,0,1-.12,0,.16.16,0,0,1,0-.12.16.16,0,0,1,0-.12A.16.16,0,0,1,85.63,11Zm.5.33v1.94h.12a.17.17,0,0,0,.16-.11l.32-.64a.51.51,0,0,0,.06-.21.44.44,0,0,0,0-.2l-.34-.67a.18.18,0,0,0-.17-.1Z" style="fill: #f2f2f2" transform="translate(0 0)"/>
      <path d="M89.54,11.33v.62a.47.47,0,0,1-.13.35.49.49,0,0,1,.14.33v.64a.31.31,0,0,1-.1.23.32.32,0,0,1-.23.1H88a.16.16,0,0,1-.12,0,.17.17,0,0,1,0-.23.16.16,0,0,1,.12,0H89.2v-.64a.16.16,0,0,0,0-.12.16.16,0,0,0-.12,0h-.66a.16.16,0,0,1-.12,0,.17.17,0,0,1,0-.23.16.16,0,0,1,.12,0H89a.16.16,0,0,0,.12,0,.16.16,0,0,0,0-.12v-.63H88a.16.16,0,0,1-.12,0,.17.17,0,0,1,0-.23A.16.16,0,0,1,88,11h1.17a.31.31,0,0,1,.23.1A.32.32,0,0,1,89.54,11.33Z" style="fill: #f2f2f2" transform="translate(0 0)"/>
    </g>
    <g>
      <path d="M78.43,11h.65a.45.45,0,0,1,.25.08.5.5,0,0,1,.18.19l.32.66a.77.77,0,0,1,0,.74l-.33.65a.5.5,0,0,1-.18.2.47.47,0,0,1-.26.08h-.63a.16.16,0,0,1-.12,0,.16.16,0,0,1,0-.12.16.16,0,0,1,0-.12.16.16,0,0,1,.12,0h.17V11.33h-.17a.16.16,0,0,1-.12,0,.16.16,0,0,1,0-.12.16.16,0,0,1,0-.12A.16.16,0,0,1,78.43,11Zm.5.33v1.94H79a.17.17,0,0,0,.16-.11l.32-.64a.51.51,0,0,0,.06-.21.44.44,0,0,0,0-.2l-.34-.67a.18.18,0,0,0-.17-.1Z" style="fill: #f2f2f2" transform="translate(0 0)"/>
      <path d="M82.17,13.59H80.68V12.46a.32.32,0,0,1,.1-.23.31.31,0,0,1,.23-.1h1v-.8H80.83a.16.16,0,0,1-.12,0,.17.17,0,0,1,0-.23.16.16,0,0,1,.12,0H82a.32.32,0,0,1,.23.1.31.31,0,0,1,.1.23v.8a.32.32,0,0,1-.1.24.32.32,0,0,1-.23.1H81v.8h1.16a.16.16,0,0,1,.12,0,.16.16,0,0,1,0,.23A.16.16,0,0,1,82.17,13.59Z" style="fill: #f2f2f2" transform="translate(0 0)"/>
    </g>
    <g>
      <path d="M71.23,11h.65a.45.45,0,0,1,.25.08.5.5,0,0,1,.18.19l.32.66a.77.77,0,0,1,0,.74l-.33.65a.5.5,0,0,1-.18.2.47.47,0,0,1-.26.08h-.63a.16.16,0,0,1-.12,0,.16.16,0,0,1,0-.12.16.16,0,0,1,0-.12.16.16,0,0,1,.12,0h.17V11.33h-.17a.16.16,0,0,1-.12,0,.16.16,0,0,1,0-.12.16.16,0,0,1,0-.12A.16.16,0,0,1,71.23,11Zm.5.33v1.94h.12a.17.17,0,0,0,.16-.11l.32-.64a.51.51,0,0,0,.06-.21.44.44,0,0,0,0-.2L72,11.43a.18.18,0,0,0-.17-.1Z" style="fill: #f2f2f2" transform="translate(0 0)"/>
      <path d="M73.64,13.26h.5V11.33h-.5a.16.16,0,0,1-.12,0,.17.17,0,0,1,0-.23.16.16,0,0,1,.12,0h.82v2.26h.33v-.68a.16.16,0,0,1,0-.12.16.16,0,0,1,.12,0,.16.16,0,0,1,.12,0,.16.16,0,0,1,0,.12v.85a.16.16,0,0,1,0,.12.16.16,0,0,1-.12,0H73.64a.16.16,0,0,1-.12,0,.16.16,0,0,1,0-.12.15.15,0,0,1,0-.11A.16.16,0,0,1,73.64,13.26Z" style="fill: #f2f2f2" transform="translate(0 0)"/>
    </g>
    <g>
      <path d="M64,11h.65a.45.45,0,0,1,.25.08.5.5,0,0,1,.18.19l.32.66a.77.77,0,0,1,0,.74l-.33.65a.5.5,0,0,1-.18.2.47.47,0,0,1-.26.08H64a.16.16,0,0,1-.12,0,.16.16,0,0,1,0-.12.16.16,0,0,1,0-.12.16.16,0,0,1,.12,0h.17V11.33H64a.16.16,0,0,1-.12,0,.16.16,0,0,1,0-.12.16.16,0,0,1,0-.12A.16.16,0,0,1,64,11Zm.5.33v1.94h.12a.17.17,0,0,0,.16-.11l.32-.64a.51.51,0,0,0,.06-.21.44.44,0,0,0,0-.2l-.34-.67a.18.18,0,0,0-.17-.1Z" style="fill: #f2f2f2" transform="translate(0 0)"/>
      <path d="M66.28,13.28v-2a.32.32,0,0,1,.32-.32h1a.3.3,0,0,1,.22.09.31.31,0,0,1,.09.22v2a.32.32,0,0,1-.32.32h-1a.32.32,0,0,1-.32-.32Zm1.33,0V11.33h-1v1.94Z" style="fill: #f2f2f2" transform="translate(0 0)"/>
    </g>
    <path d="M59.36,11.33H58.2v.8h.5a.16.16,0,0,1,.12,0,.16.16,0,0,1,0,.12.16.16,0,0,1,0,.12.16.16,0,0,1-.12,0h-.5v.8h1.16a.16.16,0,0,1,.12,0,.16.16,0,0,1,0,.12.16.16,0,0,1,0,.12.16.16,0,0,1-.12,0H57.88V11h1.49a.17.17,0,0,1,.17.17.16.16,0,0,1,0,.12A.16.16,0,0,1,59.36,11.33Z" style="fill: #f2f2f2" transform="translate(0 0)"/>
    <g>
      <path d="M42.27,13.43V11h1.16a.47.47,0,0,1,.35.15.48.48,0,0,1,.15.35v.19a.48.48,0,0,1-.14.35.47.47,0,0,1-.35.15h-.21l.67,1.15a.2.2,0,0,1,0,.1.15.15,0,0,1-.05.11.16.16,0,0,1-.12,0,.16.16,0,0,1-.15-.09l-.77-1.33H42.6v1.25a.16.16,0,0,1,0,.12.16.16,0,0,1-.12,0,.16.16,0,0,1-.12,0A.16.16,0,0,1,42.27,13.43Zm.33-1.58h.83a.16.16,0,0,0,.12,0,.16.16,0,0,0,0-.12V11.5a.16.16,0,0,0,0-.12.16.16,0,0,0-.12,0H42.6Z" style="fill: #f2f2f2" transform="translate(0 0)"/>
      <path d="M45.05,11h.85a.43.43,0,0,1,.3.13.42.42,0,0,1,.14.32.16.16,0,0,1,0,.12.15.15,0,0,1-.11,0,.14.14,0,0,1-.12,0,.41.41,0,0,1-.06-.14.12.12,0,0,0-.13-.1h-.81s-.06,0-.06,0a.08.08,0,0,0,0,.05L46.26,13a.39.39,0,0,1,.09.24.36.36,0,0,1-.11.26.32.32,0,0,1-.24.11h-.88a.45.45,0,0,1-.44-.43c0-.12.06-.18.17-.18a.16.16,0,0,1,.16.16.12.12,0,0,0,0,.09.13.13,0,0,0,.09,0H46s.05,0,.05,0a.08.08,0,0,0,0-.05l-1.22-1.56a.39.39,0,0,1-.09-.24.37.37,0,0,1,.11-.26A.36.36,0,0,1,45.05,11Z" style="fill: #f2f2f2" transform="translate(0 0)"/>
    </g>
    <g>
      <path d="M49.47,13.43V11h1.16a.47.47,0,0,1,.35.15.48.48,0,0,1,.15.35v.19A.48.48,0,0,1,51,12a.47.47,0,0,1-.35.15h-.21l.67,1.15a.2.2,0,0,1,0,.1.15.15,0,0,1-.05.11.16.16,0,0,1-.12,0,.16.16,0,0,1-.15-.09L50,12.18H49.8v1.25a.16.16,0,0,1,0,.12.16.16,0,0,1-.12,0,.16.16,0,0,1-.12,0A.16.16,0,0,1,49.47,13.43Zm.33-1.58h.83a.16.16,0,0,0,.12,0,.16.16,0,0,0,0-.12V11.5a.16.16,0,0,0,0-.12.16.16,0,0,0-.12,0H49.8Z" style="fill: #f2f2f2" transform="translate(0 0)"/>
      <path d="M52.87,12v1.09l.1.16h.14l.1-.16V11.17a.17.17,0,0,1,.17-.17.16.16,0,0,1,.12,0,.16.16,0,0,1,0,.12v2a.22.22,0,0,1,0,.1l-.15.25a.15.15,0,0,1-.14.08h-.31a.19.19,0,0,0-.37,0h-.29a.19.19,0,0,1-.18-.09l-.14-.24a.22.22,0,0,1,0-.11v-2A.17.17,0,0,1,52,11a.15.15,0,0,1,.11,0,.16.16,0,0,1,0,.12v1.94l.1.16h.14l.1-.16V12a.16.16,0,0,1,0-.12.17.17,0,0,1,.23,0A.16.16,0,0,1,52.87,12Z" style="fill: #f2f2f2" transform="translate(0 0)"/>
    </g>
    <g>
      <path d="M36.73,11.17v.6l-.67,1.7a.17.17,0,0,1-.32,0l-.66-1.7v-.6a.16.16,0,0,1,0-.12.16.16,0,0,1,.23,0,.17.17,0,0,1,0,.12v.53L35.9,13l.5-1.27v-.54a.17.17,0,0,1,0-.12.16.16,0,0,1,.23,0A.16.16,0,0,1,36.73,11.17Z" style="fill: #f2f2f2" transform="translate(0 0)"/>
      <path d="M37.48,13.28v-2a.32.32,0,0,1,.32-.32h1a.3.3,0,0,1,.22.09.31.31,0,0,1,.09.22v2a.32.32,0,0,1-.32.32h-1a.32.32,0,0,1-.32-.32Zm1.33,0V11.33h-1v1.94Z" style="fill: #f2f2f2" transform="translate(0 0)"/>
    </g>
    <g>
      <path d="M28.32,11.17v.6l-.67,1.7a.17.17,0,0,1-.32,0l-.66-1.7v-.6a.16.16,0,0,1,0-.12.16.16,0,0,1,.23,0,.17.17,0,0,1,0,.12v.53l.5,1.27.5-1.27v-.54A.17.17,0,0,1,28,11a.16.16,0,0,1,.23,0A.16.16,0,0,1,28.32,11.17Z" style="fill: #f2f2f2" transform="translate(0 0)"/>
      <path d="M29.24,11h.65a.45.45,0,0,1,.25.08.5.5,0,0,1,.18.19l.32.66a.77.77,0,0,1,0,.74l-.33.65a.5.5,0,0,1-.18.2.47.47,0,0,1-.26.08h-.63a.16.16,0,0,1-.12,0,.16.16,0,0,1,0-.12.16.16,0,0,1,0-.12.16.16,0,0,1,.12,0h.17V11.33h-.17a.16.16,0,0,1-.12,0,.16.16,0,0,1,0-.12.16.16,0,0,1,0-.12A.16.16,0,0,1,29.24,11Zm.5.33v1.94h.12a.17.17,0,0,0,.16-.11l.32-.64a.51.51,0,0,0,.06-.21.44.44,0,0,0,0-.2L30,11.43a.18.18,0,0,0-.17-.1Z" style="fill: #f2f2f2" transform="translate(0 0)"/>
      <path d="M31.65,11h.65a.45.45,0,0,1,.25.08.5.5,0,0,1,.18.19l.32.66a.77.77,0,0,1,0,.74l-.33.65a.5.5,0,0,1-.18.2.47.47,0,0,1-.26.08h-.63a.16.16,0,0,1-.12,0,.16.16,0,0,1,0-.12.16.16,0,0,1,0-.12.16.16,0,0,1,.12,0h.17V11.33h-.17a.16.16,0,0,1-.12,0,.16.16,0,0,1,0-.12.16.16,0,0,1,0-.12A.16.16,0,0,1,31.65,11Zm.5.33v1.94h.12a.17.17,0,0,0,.16-.11l.32-.64a.51.51,0,0,0,.06-.21.44.44,0,0,0,0-.2l-.34-.67a.18.18,0,0,0-.17-.1Z" style="fill: #f2f2f2" transform="translate(0 0)"/>
    </g>
    <g>
      <path d="M20.28,11.17v.6l-.67,1.7a.17.17,0,0,1-.32,0l-.66-1.7v-.6a.16.16,0,0,1,0-.12.16.16,0,0,1,.23,0,.17.17,0,0,1,0,.12v.53l.5,1.27.5-1.27v-.54A.17.17,0,0,1,20,11a.16.16,0,0,1,.23,0A.16.16,0,0,1,20.28,11.17Z" style="fill: #f2f2f2" transform="translate(0 0)"/>
      <path d="M21.4,11h.85a.43.43,0,0,1,.3.13.42.42,0,0,1,.14.32.16.16,0,0,1,0,.12.15.15,0,0,1-.11,0,.14.14,0,0,1-.12,0,.41.41,0,0,1-.06-.14.12.12,0,0,0-.13-.1h-.81s-.06,0-.06,0a.08.08,0,0,0,0,.05L22.6,13a.39.39,0,0,1,.09.24.36.36,0,0,1-.11.26.32.32,0,0,1-.24.11h-.88a.45.45,0,0,1-.44-.43c0-.12.06-.18.17-.18a.16.16,0,0,1,.16.16.12.12,0,0,0,0,.09.13.13,0,0,0,.09,0h.82s.05,0,.05,0a.08.08,0,0,0,0-.05l-1.22-1.56a.39.39,0,0,1-.09-.24.37.37,0,0,1,.11-.26A.36.36,0,0,1,21.4,11Z" style="fill: #f2f2f2" transform="translate(0 0)"/>
      <path d="M23.82,11h.85a.43.43,0,0,1,.3.13.42.42,0,0,1,.14.32.16.16,0,0,1,0,.12.15.15,0,0,1-.11,0,.14.14,0,0,1-.12,0,.41.41,0,0,1-.06-.14.12.12,0,0,0-.13-.1h-.81s-.06,0-.06,0a.08.08,0,0,0,0,.05L25,13a.39.39,0,0,1,.09.24.36.36,0,0,1-.11.26.32.32,0,0,1-.24.11h-.88a.45.45,0,0,1-.44-.43c0-.12.06-.18.17-.18a.16.16,0,0,1,.16.16.12.12,0,0,0,0,.09.13.13,0,0,0,.09,0h.82s.05,0,.05,0a.08.08,0,0,0,0-.05l-1.22-1.56a.39.39,0,0,1-.09-.24.37.37,0,0,1,.11-.26A.36.36,0,0,1,23.82,11Z" style="fill: #f2f2f2" transform="translate(0 0)"/>
    </g>
  </g>
</svg>