<?xml version="1.0" ?><svg height="12.93mm" viewBox="0 0 114.26 36.64" width="40.31mm" xmlns="http://www.w3.org/2000/svg">
  <title>7-Segment Display - 20mm</title>
  <g id="Connectors">
    <circle cx="39.13" cy="32.72" data-cir-type="male" id="circuitoCon_E" r="1.83" style="fill: none;stroke: #9a916c;stroke-width: 0.488999992609024px"/>
    <circle cx="46.33" cy="32.72" data-cir-type="male" id="circuitoCon_D" r="1.83" style="fill: none;stroke: #9a916c;stroke-width: 0.488999992609024px"/>
    <circle cx="53.53" cy="32.72" data-cir-type="male" id="circuitoCon_DECIMAL" r="1.83" style="fill: none;stroke: #9a916c;stroke-width: 0.488999992609024px"/>
    <circle cx="60.73" cy="32.72" data-cir-type="male" id="circuitoCon_C" r="1.83" style="fill: none;stroke: #9a916c;stroke-width: 0.488999992609024px"/>
    <circle cx="67.93" cy="32.72" data-cir-type="male" id="circuitoCon_G" r="1.83" style="fill: none;stroke: #9a916c;stroke-width: 0.488999992609024px"/>
    <circle cx="75.13" cy="32.72" data-cir-type="male" id="circuitoCon_DIG4" r="1.83" style="fill: none;stroke: #9a916c;stroke-width: 0.488999992609024px"/>
    <circle cx="75.13" cy="3.92" data-cir-type="male" id="circuitoCon_B" r="1.83" style="fill: none;stroke: #9a916c;stroke-width: 0.488999992609024px"/>
    <circle cx="67.93" cy="3.92" data-cir-type="male" id="circuitoCon_DIG3" r="1.83" style="fill: none;stroke: #9a916c;stroke-width: 0.488999992609024px"/>
    <circle cx="60.73" cy="3.92" data-cir-type="male" id="circuitoCon_DIG2" r="1.83" style="fill: none;stroke: #9a916c;stroke-width: 0.488999992609024px"/>
    <circle cx="53.53" cy="3.92" data-cir-type="male" id="circuitoCon_F" r="1.83" style="fill: none;stroke: #9a916c;stroke-width: 0.488999992609024px"/>
    <circle cx="46.33" cy="3.92" data-cir-type="male" id="circuitoCon_A" r="1.83" style="fill: none;stroke: #9a916c;stroke-width: 0.488999992609024px"/>
    <circle cx="39.13" cy="3.92" data-cir-type="male" id="circuitoCon_DIG1" r="1.83" style="fill: none;stroke: #9a916c;stroke-width: 0.488999992609024px"/>
  </g>
  <g data-name="Layer 3" id="Layer_3">
    <rect height="36.64" style="fill: #2a292f" width="114.26"/>
    <circle cx="23.02" cy="31.96" r="1.69" style="fill: #e7e4dd"/>
    <circle cx="51.59" cy="32.2" r="1.69" style="fill: #e7e4dd"/>
    <circle cx="55.45" cy="25.68" r="1.69" style="fill: #e7e4dd"/>
    <circle cx="57.93" cy="12.75" r="1.69" style="fill: #e7e4dd"/>
    <circle cx="87.78" cy="6.41" r="1.69" style="fill: #e7e4dd"/>
    <circle cx="80.38" cy="32.5" r="1.69" style="fill: #e7e4dd"/>
    <circle cx="108.73" cy="32.81" r="1.69" style="fill: #e7e4dd"/>
    <path d="M16.54,33.47H3.89a2,2,0,0,1-1.62-2.11L5.93,30.1H16.05Zm-14.08-3L5,19.55l1-.84L8,21.24l-1.85,8Zm8.73-23.2-1.85,8L6.22,17.87,5.57,17l2.53-11ZM20,16.6l1.3,1.69L19.23,20h-11L7,18.29,9,16.6ZM21.5,6.48H11.42L8.34,5.21a3.7,3.7,0,0,1,2.6-2.11H23.55Zm.55,12.23.65.84L20,31.36a3.71,3.71,0,0,1-2.6,2.11L16.9,30.1l2-8.86ZM20.3,15.34l2-8.86,2-3.37A2,2,0,0,1,26,5.21L23.29,17l-1,.84Z" style="fill: #fff" transform="translate(0)"/>
    <path d="M44.34,33.47H31.69a2,2,0,0,1-1.62-2.11l3.67-1.26H43.85Zm-14.08-3,2.53-11,1-.84,1.95,2.53-1.85,8ZM39,7.32l-1.85,8L34,17.87,33.38,17l2.53-11Zm8.82,9.28,1.3,1.69L47,20h-11l-1.3-1.69,2.08-1.69ZM49.31,6.48H39.23L36.14,5.21a3.7,3.7,0,0,1,2.6-2.11H51.35Zm.55,12.23.65.84L47.78,31.36a3.71,3.71,0,0,1-2.6,2.11L44.7,30.1l2-8.86Zm-1.75-3.37,2-8.86,2-3.37a2,2,0,0,1,1.62,2.11L51.09,17l-1,.84Z" style="fill: #fff" transform="translate(0)"/>
    <path d="M72.94,33.47H60.29a2,2,0,0,1-1.62-2.11l3.67-1.26H72.46Zm-14.08-3,2.53-11,1-.84,1.95,2.53-1.85,8Zm8.73-23.2-1.85,8-3.11,2.53L62,17l2.53-11Zm8.82,9.28,1.3,1.69L75.64,20h-11l-1.3-1.69,2.08-1.69ZM77.91,6.48H67.83L64.75,5.21a3.7,3.7,0,0,1,2.59-2.11H80Zm.55,12.23.65.84L76.38,31.36a3.7,3.7,0,0,1-2.6,2.11L73.3,30.1l2-8.86Zm-1.75-3.37,2-8.86,2-3.37a2,2,0,0,1,1.62,2.11L79.69,17l-1,.84Z" style="fill: #fff" transform="translate(0)"/>
    <path d="M101.76,34.44H89.1a2,2,0,0,1-1.62-2.11l3.67-1.26h10.12Zm-14.08-3,2.53-11,1-.84,1.95,2.53-1.85,8Zm8.73-23.2-1.85,8-3.11,2.53L90.79,18,93.32,7Zm8.82,9.28,1.3,1.69-2.08,1.69h-11l-1.3-1.69,2.08-1.69Zm1.49-10.12H96.64L93.56,6.18a3.7,3.7,0,0,1,2.6-2.11h12.61Zm.55,12.23.65.84L105.2,32.33a3.71,3.71,0,0,1-2.59,2.11l-.49-3.37,2-8.86Zm-1.75-3.37,2-8.86,2-3.37a2,2,0,0,1,1.62,2.11L108.51,18l-1,.84Z" style="fill: #fff" transform="translate(0)"/>
  </g>
</svg>