<?xml version="1.0" ?><svg height="23.52mm" viewBox="0 0 126.06 66.67" width="44.47mm" xmlns="http://www.w3.org/2000/svg">
  <title>SparkFun Sound Detector</title>
  <g data-name="Layer 5" id="Layer_5">
    <path d="M0,0V66.67H126.06V0ZM122.85,8a5.39,5.39,0,1,1-5.39-5.39A5.39,5.39,0,0,1,122.85,8ZM103,12.09a1.27,1.27,0,1,1-1.27,1.27A1.26,1.26,0,0,1,103,12.09ZM84.75,31.72h-3l-.53.54-1-1V28.57H84c.46-.59.89-.65,1.31,0h1.28c0-.66,1.35-.66,1.35,0h1.16V27h-.83V25.73h1.14v-1.5H85.45v1.12H84V24H80.33l-1,1H79L77.6,26.33v5.49l-1,.53v1.33h-.88l-5.84-6.17v-4l-.25-.38V21.39l1-1H76l2.78-2.79v-.85l1.09-1.09h2.31l.74.74h3.63l.82-.83h4.88V36.89h-7V39l-.87-.38v-3l.87-.37v-3ZM78.48,58.14a1.27,1.27,0,1,1-1.27-1.27A1.26,1.26,0,0,1,78.48,58.14ZM72.37,9.64a1.27,1.27,0,1,1,1.27,1.27A1.27,1.27,0,0,1,72.37,9.64ZM58.14,5.88H74.91l.78.79-.78,1.08-.73-.39-1.54.39-.92-.94H68.36l-.68.55v3.85H68v.88h-.46v.54H65.39l-.47-.48V6.92H63.47V8H62.31v-1H61L60.35,9,58.81,7.75l-1.09-.12-.54-1.21Zm-15,10V14.1c0-.49.24-.62.71-.25l2,2v.32l.79.39h3.63l.37-.93h2l.9.9h4v3l1.91,1.92v1.46a.46.46,0,1,1-.91,0H56.11l-.64.63-.82-.81H52.47a.48.48,0,1,1-.95,0V20.29l-2.93-2.92H43.33l-.82-.82Zm8.15,30.52A1.27,1.27,0,1,1,50,45.15,1.26,1.26,0,0,1,51.31,46.42ZM39,36a1.27,1.27,0,1,1-1.26,1.27A1.27,1.27,0,0,1,39,36ZM30,32.23a1.27,1.27,0,1,1-1.27,1.27A1.26,1.26,0,0,1,30,32.23ZM28.56,49.67H44.77v1.07H44v6.13H38.58V53.26l-1.5-1.49H35.76l-.95-1H31.69l-.63.63v3.8H28.14V51.17l-.56-.56Zm2.53,7.82a1.27,1.27,0,1,1-2.53,0,1.27,1.27,0,0,1,2.53,0ZM7.75,13.34A5.39,5.39,0,1,1,13.14,8,5.39,5.39,0,0,1,7.75,13.34Zm7.34,49.18a1.27,1.27,0,1,1,1.27-1.27A1.27,1.27,0,0,1,15.09,62.52Zm8.07-17.81A1.27,1.27,0,1,1,24.42,46,1.26,1.26,0,0,1,23.16,44.71Zm3,19.43a1.27,1.27,0,1,1,1.27-1.26A1.26,1.26,0,0,1,26.12,64.14Zm97.15-40.47v41.5H27.39c1.48-1.5,1.63-2.93,0-4.29l1.33-1.13h2.37l.66.66H35.1l.54-.55V58.62h.71l.83.83H43.6l.75,1H48l.85-.86h2.76c1.17,2.88,3.12,3.92,6.21,2.27,2.21-1.9,1.2-4.57-.79-6.05L59.52,53h2.33l1.2,1.2L64,55l.34.87-.38.4V60l1,.94,2.66,3.22h43l4.92-4.39a2.16,2.16,0,0,0,2.75,1.13c1.14-.75,1.31-1.59.75-2.5a1.79,1.79,0,0,0-3.13,0c-.28.12-.47.06-.46-.46V26.77l3.61-3.6V21.63l-2.77.12-4,4V58.62l-2.58,2.82h-41L68,60.76l.67-.68V56.19H67.18v-1h1.46V51.23l-.48-.48H64.68c0,.39-1.25.39-1.25,0H59.08c-1.75-3.29-6-3.42-7.13,0h-.77l-1.39,1h-1l-1.15-1.16V48.71c0-.55.13-.93.91-.4,1.51.79,2.88.47,3.61-1.06a2.11,2.11,0,0,0-.83-2.54c-.34-.83.21-1.11,1-.44h2.48c0-.67,1.33-.67,1.33,0h2.13c0-.64,1.58-.64,1.58,0h.59c0-.64,1.2-.64,1.2,0h.56a.43.43,0,1,1,.85,0v2.8l2.67,2.6h5.42l.77.91-.75.67v4.1c.42,0,.42.84,0,.84V60l.81.63h3.38c0-.56,1.39-.56,1.39,0H78c0-.48,1.17-.48,1.17,0H82.7c0-.7,1.32-.7,1.32,0h12.2c0-.62,1.39-.62,1.39,0h3.51l.73-.65V56.46l-.71-.71.9-.91.87.78-.58.86v3.46l.54.46H104V59.27h1.58v1.15h.83l.46-.46V57.49l.26-.25v-1l-.68-.68.45-.44.22-.23V51.25l-.55-.55h-3.82l-.76.75-1.31-.91v-4h1.38l.65-.65V40.56l-.51-.51h-1.54V38.27H102l.69-.7V35.94h-2.07V34.28h2V32.35H100v1.13H98.6V32.35H96.27l-.63.63-.48-.52V15c-.39-.62-.27-1,.44-.94a2.47,2.47,0,0,0,2.27-3,2.19,2.19,0,0,0-2.54-1.81L93.62,7.85h-6.4L86.33,7H83.1a.91.91,0,0,0-.71,1v4.68H79.75V7.17l-.86-.54v-1c-.57-.5-1.56-.92-1-1.65h22.21l1.46.92v6.83a2.38,2.38,0,0,0,0,3.86c2.72,1.31,4.72-1.13,2.91-4V4l-1.79-1.79h11.17c-2.62,2.9-4.23,6-1.54,9.71a7.26,7.26,0,0,0,11-.36ZM55.43,57.41a1.77,1.77,0,1,1-1.76,1.76A1.76,1.76,0,0,1,55.43,57.41ZM53.67,51.8a1.77,1.77,0,1,1,1.76,1.76A1.76,1.76,0,0,1,53.67,51.8Zm62.52,7.32a1.27,1.27,0,1,1,1.27,1.27A1.27,1.27,0,0,1,116.19,59.12ZM94.51,11.56a1.27,1.27,0,0,1,2.53,0,1.27,1.27,0,1,1-2.53,0Z" style="fill: #8a231e"/>
    <path d="M48.59,17.37l2.93,2.92v2.45a.48.48,0,1,0,.95,0h2.18l.82.81.64-.63h2.41a.46.46,0,1,0,.91,0V21.46l-1.91-1.92v-3h-4l-.9-.9h-2l-.37.93H46.64l-.79-.39v-.32l-2-2c-.47-.37-.68-.24-.71.25v1.8l-.65.65.82.82ZM55.51,20a.6.6,0,1,1-.6.6A.6.6,0,0,1,55.51,20Z" style="fill: #cf2f27"/>
    <path d="M58.81,7.75,60.35,9,61,6.92h1.29V8h1.16v-1h1.45v5.23l.47.48h2.17v-.54H68v-.88h-.34V7.36l.68-.55h3.36l.92.94,1.54-.39.73.39.78-1.08-.78-.79H58.14l-1,.54.54,1.21Zm7.7-.39a.59.59,0,0,1,.6.59.6.6,0,0,1-.6.6.59.59,0,0,1-.59-.6A.58.58,0,0,1,66.51,7.36Z" style="fill: #cf2f27"/>
    <path d="M112.27,11.92c-2.69-3.76-1.08-6.81,1.54-9.71H102.64L104.43,4v7.56c1.81,2.92-.19,5.36-2.91,4a2.38,2.38,0,0,1,0-3.86V4.92L100.06,4H77.85c-.52.73.47,1.15,1,1.65v1l.86.54v5.46h2.64V8a.91.91,0,0,1,.71-1h3.23l.89.89h6.4l1.71,1.44a2.19,2.19,0,0,1,2.54,1.81,2.47,2.47,0,0,1-2.27,3c-.71-.05-.83.32-.44.94V32.46l.48.52.63-.63H98.6v1.13H100V32.35h2.58v1.93h-2v1.66h2.07v1.63l-.69.7h-1.34v1.78h1.54l.51.51v5.31l-.65.65H100.7v4l1.31.91.76-.75h3.82l.55.55v3.62l-.22.23-.45.44.68.68v1l-.26.25V60l-.46.46h-.83V59.27H104V60.4h-1.15l-.54-.46V56.48l.58-.86-.87-.78-.9.91.71.71V60l-.73.65H97.61c0-.62-1.39-.62-1.39,0H84c0-.7-1.32-.7-1.32,0H79.17c0-.48-1.17-.48-1.17,0H76.72c0-.56-1.39-.56-1.39,0H72L71.14,60V56.19c.42,0,.42-.84,0-.84v-4.1l.75-.67-.77-.91H65.7L63,47.07v-2.8a.43.43,0,1,0-.85,0h-.56c0-.64-1.2-.64-1.2,0h-.59c0-.64-1.58-.64-1.58,0H56.12c0-.67-1.33-.67-1.33,0H52.31c-.79-.67-1.34-.39-1,.44a2.11,2.11,0,0,1,.83,2.54c-.73,1.53-2.1,1.85-3.61,1.06-.78-.53-.9-.15-.91.4v1.84l1.15,1.16h1l1.39-1H52c1.15-3.42,5.38-3.29,7.13,0h4.35c0,.39,1.25.39,1.25,0h3.48l.48.48v3.92H67.18v1H68.7v3.89l-.67.68.67.68h41l2.58-2.82V25.74l4-4,2.77-.12v1.54l-3.61,3.6V58c0,.52.18.58.46.46a1.79,1.79,0,0,1,3.13,0c.56.91.39,1.75-.75,2.5a2.16,2.16,0,0,1-2.75-1.13l-4.92,4.39h-43L65,60.92l-1-.94V56.23l.38-.4L64,55l-.92-.72L61.85,53H59.52l-2.46,2.79c2,1.48,3,4.15.79,6.05-3.09,1.65-5,.61-6.21-2.27H48.88l-.85.86H44.35l-.75-1H37.18l-.83-.83h-.71v1.24l-.54.55H31.75l-.66-.66H28.72l-1.33,1.13c1.63,1.36,1.48,2.79,0,4.29h95.88V11.56A7.26,7.26,0,0,1,112.27,11.92ZM61,47.07a.59.59,0,0,1-.6-.59.6.6,0,0,1,1.2,0A.59.59,0,0,1,61,47.07Zm45.82-27.53a.59.59,0,0,1-.6-.59.6.6,0,1,1,1.2,0A.59.59,0,0,1,106.84,19.54Zm3.45,36.68a.6.6,0,0,1,0-1.2.6.6,0,1,1,0,1.2Zm0-14.84a.59.59,0,0,1-.59-.6.58.58,0,0,1,.59-.59.59.59,0,0,1,.6.59A.6.6,0,0,1,110.29,41.38Zm0-7.1a.6.6,0,0,1,0-1.2.6.6,0,0,1,0,1.2ZM48.14,63.65a.6.6,0,0,1,0-1.19.6.6,0,1,1,0,1.19Zm73,0a.6.6,0,1,1,.6-.6A.6.6,0,0,1,121.14,63.65ZM121,53.32a1.83,1.83,0,1,1,1.83-1.83A1.83,1.83,0,0,1,121,53.32Zm0-7.06a1.83,1.83,0,1,1,1.83-1.83A1.83,1.83,0,0,1,121,46.26Zm0-7.14a1.83,1.83,0,1,1,1.83-1.83A1.83,1.83,0,0,1,121,39.12Zm0-7.25A1.83,1.83,0,1,1,122.85,30,1.83,1.83,0,0,1,121,31.87Zm0-7.19a1.83,1.83,0,1,1,1.83-1.83A1.83,1.83,0,0,1,121,24.68Z" style="fill: #cf2f27"/>
    <path d="M84.39,35.6v3l.87.38V36.89h7V15.58H87.36l-.82.83H82.91l-.74-.74H79.86l-1.09,1.09v.85L76,20.4H70.56l-1,1v1.78l.25.38v4l5.84,6.17h.88V32.35l1-.53V26.33L79,24.94h.38l1-1H84v1.37h1.5V24.23h3.91v1.5H88.22V27h.83v1.56H87.89c0-.66-1.35-.66-1.35,0H85.26c-.42-.65-.85-.59-1.31,0H80.19v2.71l1,1,.53-.54h3l.51.51v3Zm3.92-16.06a.59.59,0,0,1-.6-.59.6.6,0,1,1,1.2,0A.59.59,0,0,1,88.31,19.54Zm0,9.81a.6.6,0,0,1,.6.6.6.6,0,0,1-1.2,0A.6.6,0,0,1,88.31,29.35Z" style="fill: #cf2f27"/>
    <path d="M28.14,55.25h2.92v-3.8l.63-.63h3.12l.95,1h1.32l1.5,1.49v3.61H44V50.74h.75V49.67H28.56l-1,.94.56.56ZM39,50.43a.59.59,0,0,1,.6.59.6.6,0,0,1-.6.6.59.59,0,0,1-.59-.6A.58.58,0,0,1,39,50.43Z" style="fill: #cf2f27"/>
  </g>
  <g id="LINES">
    <path d="M6.27,48l-.63.46h-1l-.38.87v5.55H5.81v1.71H4.18v6H6.6v-.92H8.18V63h2.37a1.79,1.79,0,0,0,.72-1.61c0-.58,1.41-.58,1.41,0a3.17,3.17,0,0,0,1.59,2c1.2.3,2.56.3,3.27-2.58h3.21l.43-.79V55.83H19.06V55h2V51.21l-.91-.91V48.92l2.48-2.48c2.38,1.48,5.22-.67,3.5-3.52l-1.84-1-5.63,3.91,2.13,1.32-1.38,1.27V52H18.18V48.27l.92-.92-1.52-1.52-.44,0v4.61L16,51.6,14.41,50H11.25V49l-.67-.67H9.18V46.08H8.27v4.84h5.89l1.53,1.53v4.3l.8.79h1.69v1H15.83l-1.17-1.17V53l-.85-.85H9.27v2.68h1.28l.62-.62V53.08s2.34,0,2.39,0,0,5.13,0,5.13H11.37V57.08l-.49-.48H9.1v2.59h4.71l.54.54-.75.74v-.32H7.06l.19-15A3.16,3.16,0,0,1,7,44.87L6.27,46Z" style="fill: none"/>
    <path d="M4.39,42.19a.52.52,0,0,1,.1.11A.52.52,0,0,0,4.39,42.19Z" style="fill: none"/>
    <path d="M1.47,36.5v1.22a18.53,18.53,0,0,0,2.92,4.47A19.17,19.17,0,0,1,1.47,36.5Z" style="fill: none"/>
    <path d="M7,44.87l.16-.24L5.89,43.54a6.24,6.24,0,0,1-1.4-1.24A32.52,32.52,0,0,0,7,44.87Z" style="fill: none"/>
    <path d="M47.27,1.88H11.77c-.18.07-.41.11-.17.52a9.44,9.44,0,0,1,2.75,3.85,7.23,7.23,0,0,1-3.52,7.58c-3,1.17-5.72.92-8-1.77-.63-.63-1-.58-1,.39V26.92s-.37,2.81-1,7.47a6.5,6.5,0,0,0,.61,3.33V36.5a19.17,19.17,0,0,0,2.92,5.69.52.52,0,0,1,.1.11,6.24,6.24,0,0,0,1.4,1.24l1.25,1.09L7,44.87a3.16,3.16,0,0,0,.27.23l-.19,15H13.6v.32l.75-.74-.54-.54H9.1V56.6h1.78l.49.48v1.13h2.19s0-5.07,0-5.13-2.39,0-2.39,0v1.11l-.62.62H9.27V52.13h4.54l.85.85v4.43l1.17,1.17h2.35v-1H16.49l-.8-.79v-4.3l-1.53-1.53H8.27V46.08h.91v2.29h1.4l.67.67v1h3.16L16,51.6l1.14-1.14V45.85l.44,0,1.52,1.52-.92.92V52h1.23V48.44l1.38-1.27-2.13-1.32,5.63-3.91,1.84,1c1.72,2.85-1.12,5-3.5,3.52l-2.48,2.48V50.3l.91.91V55h-2v.81h2.12V60l-.43.79H17.54c-.71,2.88-2.07,2.88-3.27,2.58a3.17,3.17,0,0,1-1.59-2c0-.58-1.41-.58-1.41,0A1.79,1.79,0,0,1,10.55,63H8.18V61.71H6.6v.92H4.18v-6H5.81V54.88H4.22V49.33l.38-.87h1L6.27,48V46L7,44.87A32.52,32.52,0,0,1,4.49,42.3a.52.52,0,0,0-.1-.11,18.53,18.53,0,0,1-2.92-4.47V64.59c0,.65.07,1.07.41,1,0,0,18.78-.08,21.28,0s1.4-.72,1.4-.72a2.79,2.79,0,0,1-.92-2.3c0-.67.95-1.58.95-1.58l-.85-.84V52.49c0-.82.1-1.54.55-1.78s.48-.39.35-.86,2.38-3,2.38-3H45v-3h-.41V23.58c.56-.87.1-1.23-.46-1.27H38.54L35.62,19.4s0-4.84,0-7.82.79-3.25,1.44-3.73.6.55,1.33-.39,2-.65,3.13-.65,1.6.59,1.58.79a5.88,5.88,0,0,0,2.17,1.9c.81.33.45-1.71.54-2.33s1,.14.77-1.65A2.67,2.67,0,0,1,47.27,3C48.18,2.63,48.37,1.88,47.27,1.88ZM36.56,24v1.19h1.31V24H41.5l.55.56v3.37L40.84,29.1v2.09a1.41,1.41,0,0,1,1.21.81,11.72,11.72,0,0,1,0,3.29s-.51.79-1,.92-.15.64.1.64v.92c-.38.35-.62.68,0,.9l.71.54v1H40.64v1.5h1.21v1.48H40.41V42H39v1.25H37.56V41.88h-.39v1.33H32.41L32,42.28l-.64.22-4.39-4.39s1.93-5.3,1.56-6.73c0,0,2.35-.38,3.1.64s.4-.52,1-.77a38.24,38.24,0,0,1,5.37,0v-2.4l-.76-.76L36,28.5h-.55V26.79H34v1.67H32.5V27.17h.91V25.4h-.89l0-1.36h1.35v1h1.38V24Z" style="fill: #cf2f27"/>
    <line style="fill: none;stroke: #cf2f27;stroke-linecap: round;stroke-linejoin: round;stroke-width: 0.75px" x1="39.39" x2="39.39" y1="26.46" y2="33.06"/>
    <line style="fill: none;stroke: #cf2f27;stroke-linecap: round;stroke-linejoin: round;stroke-width: 0.75px" x1="34.45" x2="34.45" y1="34.77" y2="40.06"/>
    <polyline points="29.79 34.77 29.79 38.98 31.47 40.66 33.29 40.66" style="fill: none;stroke: #cf2f27;stroke-linecap: round;stroke-linejoin: round;stroke-width: 0.75px"/>
    <circle cx="24.42" cy="44.71" r="1.27" style="fill: none;stroke: #cf2f27;stroke-linecap: round;stroke-linejoin: round;stroke-width: 0.75px"/>
    <circle cx="15.09" cy="61.25" r="1.27" style="fill: none;stroke: #cf2f27;stroke-linecap: round;stroke-linejoin: round;stroke-width: 0.75px"/>
    <circle cx="26.12" cy="62.88" r="1.27" style="fill: none;stroke: #cf2f27;stroke-linecap: round;stroke-linejoin: round;stroke-width: 0.75px"/>
    <circle cx="50.04" cy="46.42" r="1.27" style="fill: none;stroke: #cf2f27;stroke-linecap: round;stroke-linejoin: round;stroke-width: 0.75px"/>
    <circle cx="29.82" cy="57.49" r="1.27" style="fill: none;stroke: #cf2f27;stroke-linecap: round;stroke-linejoin: round;stroke-width: 0.75px"/>
    <circle cx="77.21" cy="58.14" r="1.27" style="fill: none;stroke: #cf2f27;stroke-linecap: round;stroke-linejoin: round;stroke-width: 0.75px"/>
    <circle cx="73.64" cy="9.64" r="1.27" style="fill: none;stroke: #cf2f27;stroke-linecap: round;stroke-linejoin: round;stroke-width: 0.75px"/>
    <circle cx="102.98" cy="13.36" r="1.27" style="fill: none;stroke: #cf2f27;stroke-linecap: round;stroke-linejoin: round;stroke-width: 0.75px"/>
    <circle cx="38.96" cy="37.23" r="1.27" style="fill: none;stroke: #cf2f27;stroke-linecap: round;stroke-linejoin: round;stroke-width: 0.75px"/>
    <line style="fill: none;stroke: #cf2f27;stroke-linecap: round;stroke-linejoin: round;stroke-width: 0.75px" x1="39.52" x2="40.37" y1="35.96" y2="34.54"/>
    <circle cx="30.04" cy="33.5" r="1.27" style="fill: none;stroke: #cf2f27;stroke-linecap: round;stroke-linejoin: round;stroke-width: 0.75px"/>
    <circle cx="95.77" cy="11.56" r="1.27" style="fill: none;stroke: #cf2f27;stroke-linecap: round;stroke-linejoin: round;stroke-width: 0.75px"/>
    <path d="M68.34,30.25l15.84,16h8.64l1.32-1.69h1.63v1.88h2v4.21l-.73.86V55c.41,0,.41.94,0,.94l-.4.91h-.42L95,58.1H93.41V51.65l-2.87-2.88H78l-3.55-3.55H70.7l-.89-.89-.23-6.79Z" style="fill: #cf2f27"/>
    <polygon points="87.73 51.49 89.61 51.49 90.68 52.56 90.68 58.1 88.22 58.1 87.73 51.49" style="fill: #cf2f27"/>
    <polyline points="81.98 58.1 83.61 58.1 84.9 59.39 95.67 59.39 96.8 58.26 98.83 58.26" style="fill: none;stroke: #cf2f27;stroke-linecap: round;stroke-linejoin: round;stroke-width: 0.75px"/>
    <polyline points="74.41 52.67 80.11 52.67 82.48 53.07 83.36 53.07 84.39 51.98 86.05 51.98 86.05 54.27" style="fill: none;stroke: #cf2f27;stroke-linecap: round;stroke-linejoin: round;stroke-width: 0.75px"/>
    <polyline points="64.48 42.7 64.48 46.48 66.39 48.38 72.05 48.38 73.72 50.05 73.72 51.98" style="fill: none;stroke: #cf2f27;stroke-linecap: round;stroke-linejoin: round;stroke-width: 0.75px"/>
    <polyline points="68.08 42.32 68.08 44.45 69.98 46.35 73.72 46.35 77.42 50.05 90.21 50.05 91.87 51.71 91.87 54.27" style="fill: none;stroke: #cf2f27;stroke-linecap: round;stroke-linejoin: round;stroke-width: 0.75px"/>
    <line style="fill: none;stroke: #cf2f27;stroke-linecap: round;stroke-linejoin: round;stroke-width: 0.75px" x1="99.44" x2="99.44" y1="44.98" y2="51.76"/>
    <line style="fill: none;stroke: #cf2f27;stroke-linecap: round;stroke-linejoin: round;stroke-width: 0.75px" x1="100.55" x2="104.55" y1="53.2" y2="53.2"/>
    <polyline points="66.39 58.74 66.39 61.26 68.49 63.36 110.05 63.36 114.11 59.3 114.11 26.37 117.51 22.97 119.31 22.97" style="fill: none;stroke: #cf2f27;stroke-linecap: round;stroke-linejoin: round;stroke-width: 0.75px"/>
    <polyline points="85.25 8.79 93.09 8.79 94.66 10.36" style="fill: none;stroke: #cf2f27;stroke-linecap: round;stroke-linejoin: round;stroke-width: 0.75px"/>
    <polyline points="48.03 7.67 48.03 4.1 49.75 2.38 101.27 2.38 103 4.12 103 12.09" style="fill: none;stroke: #cf2f27;stroke-linecap: round;stroke-linejoin: round;stroke-width: 0.75px"/>
    <polyline points="55.35 7.95 55.35 5.88 57 4.23 75.69 4.23 77.67 6.21 77.67 7.95" style="fill: none;stroke: #cf2f27;stroke-linecap: round;stroke-linejoin: round;stroke-width: 0.75px"/>
    <polyline points="78.08 13.92 92.48 13.92 93.97 15.4 93.97 37.23 92.79 38.41 89.71 38.41" style="fill: none;stroke: #cf2f27;stroke-linecap: round;stroke-linejoin: round;stroke-width: 0.75px"/>
    <polyline points="77.21 14.98 77.21 16.92 75.43 18.69 70.19 18.69 68.05 20.83 68.05 24.6" style="fill: none;stroke: #cf2f27;stroke-linecap: round;stroke-linejoin: round;stroke-width: 0.75px"/>
    <polyline points="63.52 13.92 66.44 13.92 69.58 13.92" style="fill: none;stroke: #cf2f27;stroke-linecap: round;stroke-linejoin: round;stroke-width: 0.75px"/>
    <polyline points="64.48 24.6 64.48 20.56 66.33 18.72 66.33 13.92" style="fill: none;stroke: #cf2f27;stroke-linecap: round;stroke-linejoin: round;stroke-width: 0.75px"/>
    <polyline points="55.51 9.25 58.14 9.25 59.1 10.21 59.1 18.95 61.05 20.89 61.05 24.6" style="fill: none;stroke: #cf2f27;stroke-linecap: round;stroke-linejoin: round;stroke-width: 0.75px"/>
    <polyline points="39.82 9.06 37.7 9.06 36.76 10.01 36.76 18.6 38.65 20.49 45.45 20.49 46.41 21.45 46.41 25.48" style="fill: none;stroke: #cf2f27;stroke-linecap: round;stroke-linejoin: round;stroke-width: 0.75px"/>
    <polyline points="40.94 14.98 40.94 16.93 42.86 18.85 48.14 18.85 50.25 20.95 50.25 24.94" style="fill: none;stroke: #cf2f27;stroke-linecap: round;stroke-linejoin: round;stroke-width: 0.75px"/>
    <polyline points="41.36 8.79 43.46 8.79 44.48 10.91 44.48 12.63 46.69 14.83" style="fill: none;stroke: #cf2f27;stroke-linecap: round;stroke-linejoin: round;stroke-width: 0.75px"/>
    <polyline points="48.77 14.17 53.52 14.17 55.51 14.17" style="fill: none;stroke: #cf2f27;stroke-linecap: round;stroke-linejoin: round;stroke-width: 0.75px"/>
    <polyline points="78.82 33.5 78.82 27.17 79.5 26.5 81.14 26.5" style="fill: none;stroke: #cf2f27;stroke-linecap: round;stroke-linejoin: round;stroke-width: 0.75px"/>
    <polyline points="67.11 30.54 70.57 30.54 84.42 44.39 92.02 44.39 93.17 43.24 98.83 43.24" style="fill: none;stroke: #cf2f27;stroke-linecap: round;stroke-linejoin: round;stroke-width: 0.75px"/>
    <polyline points="83.06 33.76 83.06 39.43 85.56 41.93" style="fill: none;stroke: #cf2f27;stroke-linecap: round;stroke-linejoin: round;stroke-width: 0.75px"/>
    <polygon points="89.45 39.8 93.41 39.8 95.72 37.49 96.42 38.2 98.02 38.2 98.02 40.05 96.27 40.05 95.62 40.7 95.62 41.57 92.82 41.57 91.25 43.14 91.35 39.8 89.45 39.8" style="fill: #cf2f27"/>
    <polyline points="26.13 51.98 26.13 49.92 27.85 48.19 46.41 48.19" style="fill: none;stroke: #cf2f27;stroke-linecap: round;stroke-linejoin: round;stroke-width: 0.75px"/>
    <line style="fill: none;stroke: #cf2f27;stroke-linecap: round;stroke-linejoin: round;stroke-width: 0.75px" x1="50.04" x2="50.04" y1="45.15" y2="42.7"/>
    <polyline points="33.95 53.12 36.52 53.12 37.3 53.91 37.3 56.87 38.36 57.93 52.65 57.93" style="fill: none;stroke: #cf2f27;stroke-linecap: round;stroke-linejoin: round;stroke-width: 0.75px"/>
    <line style="fill: none;stroke: #cf2f27;stroke-linecap: round;stroke-linejoin: round;stroke-width: 0.75px" x1="47.43" x2="52.65" y1="52.34" y2="52.34"/>
    <polyline points="58.14 51.98 62.54 51.98 63.83 53.26 66.51 53.26" style="fill: none;stroke: #cf2f27;stroke-linecap: round;stroke-linejoin: round;stroke-width: 0.75px"/>
  </g>
  <g id="Connectors">
    <ellipse cx="121.14" cy="22.85" data-cir-type="male" id="circuitoCon_AUDIO" rx="1.99" ry="2.05" style="fill: none;stroke: #e8e5df;stroke-miterlimit: 10;stroke-width: 1.224px"/>
    <ellipse cx="121.14" cy="30.04" data-cir-type="male" id="circuitoCon_ENVELOPE" rx="1.99" ry="2.05" style="fill: none;stroke: #e8e5df;stroke-miterlimit: 10;stroke-width: 1.224px"/>
    <ellipse cx="121.14" cy="37.23" data-cir-type="male" id="circuitoCon_GATE" rx="1.99" ry="2.05" style="fill: none;stroke: #e8e5df;stroke-miterlimit: 10;stroke-width: 1.224px"/>
    <ellipse cx="121.14" cy="51.62" data-cir-type="male" id="circuitoCon_GND" rx="1.99" ry="2.05" style="fill: none;stroke: #e8e5df;stroke-miterlimit: 10;stroke-width: 1.224px"/>
    <ellipse cx="121.14" cy="44.43" data-cir-type="male" id="circuitoCon_VCC" rx="1.99" ry="2.05" style="fill: none;stroke: #e8e5df;stroke-miterlimit: 10;stroke-width: 1.224px"/>
  </g>
  <g id="TEXT">
    <rect height="2.99" style="fill: #9c989f" width="2.99" x="84.89" y="53.74"/>
    <rect height="5.8" style="fill: #9c989f" width="0.47" x="85.81" y="52.34"/>
    <rect height="5.8" style="fill: #9c989f" width="0.47" x="86.48" y="52.34"/>
    <rect height="2.99" style="fill: #7f6d5e" width="1.81" x="85.48" y="53.74"/>
    <rect height="2.45" width="1.81" x="85.48" y="53.74"/>
    <g>
      <path d="M59.22,61.34h1.19a.61.61,0,0,1,.42.18A.58.58,0,0,1,61,62a.2.2,0,0,1-.07.16.18.18,0,0,1-.15.07c-.08,0-.13,0-.16-.05a.63.63,0,0,1-.09-.2.16.16,0,0,0-.17-.14H59.24c-.05,0-.08,0-.08,0a.16.16,0,0,0,0,.08l1.71,2.17a.56.56,0,0,1,.12.34.49.49,0,0,1-.15.36.44.44,0,0,1-.33.16H59.3a.59.59,0,0,1-.42-.19.57.57,0,0,1-.18-.41c0-.17.08-.26.24-.26a.18.18,0,0,1,.15.07.2.2,0,0,1,.07.16.17.17,0,0,0,.05.12.19.19,0,0,0,.13.05h1.14c.05,0,.07,0,.07-.06a.13.13,0,0,0,0-.07l-1.7-2.18a.52.52,0,0,1-.12-.34.53.53,0,0,1,.15-.37A.5.5,0,0,1,59.22,61.34Z" style="fill: #fff"/>
      <path d="M63.78,61.67l.51,1a1,1,0,0,1,.1.46,1,1,0,0,1-.1.45l-.51,1a.61.61,0,0,1-.88.24.64.64,0,0,1-.22-.24l-.5-1a.93.93,0,0,1-.1-.45,1,1,0,0,1,.1-.46l.5-1a.58.58,0,0,1,.55-.33A.57.57,0,0,1,63.78,61.67Zm-.7.23-.48,1a.74.74,0,0,0-.06.28.72.72,0,0,0,.06.29l.49,1a.15.15,0,0,0,.28,0l.49-1a.62.62,0,0,0,.07-.29.55.55,0,0,0-.07-.28l-.48-1a.15.15,0,0,0-.15-.1A.17.17,0,0,0,63.08,61.9Z" style="fill: #fff"/>
      <path d="M65.45,64.28V61.57a.24.24,0,0,1,.07-.16.23.23,0,0,1,.32,0,.22.22,0,0,1,.07.17v2.71a.26.26,0,0,0,.07.16.25.25,0,0,0,.16.06h.94a.22.22,0,0,0,.23-.22V61.57a.23.23,0,0,1,.07-.17.23.23,0,0,1,.16-.06.21.21,0,0,1,.16.06.23.23,0,0,1,.07.17v2.7a.68.68,0,0,1-.2.49.67.67,0,0,1-.49.21h-.94a.66.66,0,0,1-.48-.2A.67.67,0,0,1,65.45,64.28Z" style="fill: #fff"/>
      <path d="M71.15,61.57V65h-.62L69.3,62.15v2.59a.24.24,0,0,1-.23.23.19.19,0,0,1-.16-.07.2.2,0,0,1-.07-.16v-3.4h.61l1.24,2.81V61.57a.23.23,0,0,1,.06-.16.23.23,0,0,1,.17-.07.23.23,0,0,1,.16.06A.23.23,0,0,1,71.15,61.57Z" style="fill: #fff"/>
      <path d="M72.44,61.34h.91a.68.68,0,0,1,.35.11.76.76,0,0,1,.24.27l.46.92a1.2,1.2,0,0,1,.12.52,1.14,1.14,0,0,1-.13.52l-.46.9a.68.68,0,0,1-.25.28.67.67,0,0,1-.37.11h-.87a.22.22,0,0,1-.17-.07.25.25,0,0,1-.06-.16.25.25,0,0,1,.06-.17.26.26,0,0,1,.17-.07h.24V61.8h-.24a.21.21,0,0,1-.16-.07.24.24,0,0,1-.07-.16.26.26,0,0,1,.07-.17A.25.25,0,0,1,72.44,61.34Zm.7.46v2.71h.16a.25.25,0,0,0,.23-.15l.45-.9a.89.89,0,0,0,.09-.3.73.73,0,0,0-.07-.29l-.47-.93a.26.26,0,0,0-.24-.14Z" style="fill: #fff"/>
      <path d="M79.2,61.34h.91a.62.62,0,0,1,.34.11.7.7,0,0,1,.25.27l.45.92a1.08,1.08,0,0,1,.13.52,1.14,1.14,0,0,1-.13.52l-.46.9a.68.68,0,0,1-.25.28.67.67,0,0,1-.37.11H79.2A.22.22,0,0,1,79,64.9a.25.25,0,0,1-.06-.16.25.25,0,0,1,.06-.17.26.26,0,0,1,.17-.07h.24V61.8H79.2a.24.24,0,0,1-.23-.23A.22.22,0,0,1,79,61.4.23.23,0,0,1,79.2,61.34Zm.69.46v2.71h.16a.24.24,0,0,0,.23-.15l.46-.9a.84.84,0,0,0,.08-.3.59.59,0,0,0-.07-.29l-.47-.93A.24.24,0,0,0,80,61.8Z" style="fill: #fff"/>
      <path d="M84.44,61.8H82.82v1.12h.69a.22.22,0,0,1,.17.07.23.23,0,0,1,.06.16.27.27,0,0,1-.06.17.25.25,0,0,1-.17.06h-.69v1.13h1.62a.24.24,0,0,1,.23.23.24.24,0,0,1-.23.23H82.36V61.34h2.08a.23.23,0,0,1,0,.46Z" style="fill: #fff"/>
      <path d="M85.73,62v-.62h2.32V62a.24.24,0,0,1-.07.16.21.21,0,0,1-.16.07.26.26,0,0,1-.17-.07.26.26,0,0,1-.07-.16V61.8h-.46v2.94a.24.24,0,0,1-.07.16.21.21,0,0,1-.16.07.22.22,0,0,1-.17-.07.24.24,0,0,1-.07-.16V61.8h-.46V62a.19.19,0,0,1-.07.16.22.22,0,0,1-.32,0A.19.19,0,0,1,85.73,62Z" style="fill: #fff"/>
      <path d="M91.2,61.8H89.57v1.12h.7a.24.24,0,0,1,.23.23.27.27,0,0,1-.06.17.25.25,0,0,1-.17.06h-.7v1.13H91.2a.2.2,0,0,1,.16.07.19.19,0,0,1,.07.16.2.2,0,0,1-.07.16.21.21,0,0,1-.16.07H89.11V61.34H91.2a.21.21,0,0,1,.16.07.22.22,0,0,1,0,.32A.21.21,0,0,1,91.2,61.8Z" style="fill: #fff"/>
      <path d="M93.75,64.51h.83a.23.23,0,0,1,.17.07.22.22,0,0,1,.07.16.24.24,0,0,1-.07.16.22.22,0,0,1-.17.07h-.86a.68.68,0,0,1-.34-.11.67.67,0,0,1-.24-.23l-.53-1a1.07,1.07,0,0,1-.11-.46.87.87,0,0,1,.11-.44l.53-1a.64.64,0,0,1,.24-.25.51.51,0,0,1,.31-.11h.91a.23.23,0,0,1,.16.06.26.26,0,0,1,.07.17.24.24,0,0,1-.07.16.2.2,0,0,1-.16.07h-.88a.19.19,0,0,0-.17.13l-.51,1a.54.54,0,0,0-.06.27.64.64,0,0,0,.06.28l.49.93A.22.22,0,0,0,93.75,64.51Z" style="fill: #fff"/>
      <path d="M95.87,62v-.62h2.31V62a.23.23,0,0,1-.06.16.22.22,0,0,1-.17.07.26.26,0,0,1-.16-.07.21.21,0,0,1-.07-.16V61.8h-.46v2.94a.24.24,0,0,1-.07.16A.21.21,0,0,1,97,65a.22.22,0,0,1-.17-.07.2.2,0,0,1-.07-.16V61.8h-.46V62a.22.22,0,0,1-.07.16.21.21,0,0,1-.16.07.22.22,0,0,1-.17-.07A.21.21,0,0,1,95.87,62Z" style="fill: #fff"/>
      <path d="M101,61.67l.51,1a1,1,0,0,1,.1.46,1,1,0,0,1-.1.45l-.51,1a.55.55,0,0,1-.54.34.52.52,0,0,1-.33-.1.56.56,0,0,1-.22-.24l-.51-1a.93.93,0,0,1-.1-.45,1,1,0,0,1,.1-.46l.51-1a.62.62,0,0,1,1.09,0Zm-.7.23-.47,1a.61.61,0,0,0-.07.28.59.59,0,0,0,.07.29l.49,1a.13.13,0,0,0,.14.09.15.15,0,0,0,.13-.09l.49-1a.62.62,0,0,0,.07-.29.55.55,0,0,0-.07-.28l-.48-1a.15.15,0,0,0-.14-.1A.17.17,0,0,0,100.25,61.9Z" style="fill: #fff"/>
      <path d="M102.64,64.74v-3.4h1.62a.62.62,0,0,1,.48.2A.67.67,0,0,1,105,62v.26a.68.68,0,0,1-.2.49.67.67,0,0,1-.49.21H104l.94,1.61a.37.37,0,0,1,0,.14.24.24,0,0,1-.07.16.23.23,0,0,1-.37-.05L103.43,63h-.33v1.75a.24.24,0,0,1-.23.23.22.22,0,0,1-.17-.07A.23.23,0,0,1,102.64,64.74Zm.46-2.21h1.16a.24.24,0,0,0,.23-.23V62a.24.24,0,0,0-.23-.23H103.1Z" style="fill: #fff"/>
    </g>
    <g>
      <path d="M58.57,58.1v-.55a.17.17,0,0,1,.29-.12.21.21,0,0,1,0,.12v.53a.16.16,0,0,0,.07.13l.6.47a.32.32,0,0,0,.2.06h.92a.21.21,0,0,0,.13-.05.17.17,0,0,0,.05-.12v-.68a.16.16,0,0,0-.05-.11.16.16,0,0,0-.12-.05h-.36v.34a.17.17,0,0,1-.17.17.21.21,0,0,1-.12-.05.17.17,0,0,1-.05-.12v-.68h.7a.47.47,0,0,1,.35.15.49.49,0,0,1,.15.35v.68a.49.49,0,0,1-.15.36.47.47,0,0,1-.35.15h-.92a.64.64,0,0,1-.42-.14l-.63-.49a.65.65,0,0,1-.12-.15A.46.46,0,0,1,58.57,58.1Z" style="fill: #fff"/>
      <path d="M61,56.61l-2.28-.68a.15.15,0,0,1-.13-.16.15.15,0,0,1,.11-.16L61,55h0a.16.16,0,0,1,.12,0,.18.18,0,0,1,.05.11.16.16,0,0,1-.12.17l-.45.13v.76l.48.15s0,0,.06.05a.17.17,0,0,1,0,.1.21.21,0,0,1-.05.12.16.16,0,0,1-.12,0Zm-1.64-.84,1,.28v-.56Z" style="fill: #fff"/>
      <path d="M58.57,54V52.65a.17.17,0,0,1,.17-.17.17.17,0,0,1,.12.05.21.21,0,0,1,0,.12v.5h2v-.5a.17.17,0,0,1,0-.12.21.21,0,0,1,.12-.05.17.17,0,0,1,.12.05.21.21,0,0,1,.05.12V54a.18.18,0,0,1-.05.12.17.17,0,0,1-.12.05.21.21,0,0,1-.12-.05.17.17,0,0,1,0-.12v-.51h-2V54a.18.18,0,0,1,0,.12.17.17,0,0,1-.12.05.21.21,0,0,1-.12-.05A.18.18,0,0,1,58.57,54Z" style="fill: #fff"/>
      <path d="M58.74,50h2.47v.45l-2.05.89H61a.17.17,0,0,1,.12.05.21.21,0,0,1,.05.12.17.17,0,0,1-.17.17H58.57v-.44l2-.9H58.74a.17.17,0,0,1-.17-.17.17.17,0,0,1,0-.12A.21.21,0,0,1,58.74,50Z" style="fill: #fff"/>
    </g>
    <g>
      <path d="M73.49,40.07V38.86a.58.58,0,0,1,.19-.42.59.59,0,0,1,.45-.2.23.23,0,0,1,.17.07.26.26,0,0,1,.07.16.18.18,0,0,1-.06.16.54.54,0,0,1-.2.09.16.16,0,0,0-.15.17v1.16c0,.05,0,.08.06.08a.12.12,0,0,0,.08,0l2.2-1.73a.56.56,0,0,1,.34-.12.51.51,0,0,1,.37.15.44.44,0,0,1,.16.34V40a.59.59,0,0,1-.19.43.58.58,0,0,1-.42.19c-.17,0-.26-.08-.26-.24a.19.19,0,0,1,.07-.16.2.2,0,0,1,.16-.07A.17.17,0,0,0,76.7,40V38.79s0-.07-.06-.07l-.07,0-2.2,1.73a.57.57,0,0,1-.35.12.49.49,0,0,1-.37-.16A.47.47,0,0,1,73.49,40.07Z" style="fill: #fff"/>
      <path d="M73.83,35.45l1-.52a1,1,0,0,1,.46-.1,1,1,0,0,1,.46.1l1,.52a.57.57,0,0,1,.34.55.54.54,0,0,1-.1.33.59.59,0,0,1-.24.23l-1,.51a1,1,0,0,1-.46.1,1,1,0,0,1-.46-.1l-1-.51a.58.58,0,0,1-.34-.56A.56.56,0,0,1,73.83,35.45Zm.23.71,1,.48a.79.79,0,0,0,.29.06.72.72,0,0,0,.29-.06l1-.5A.13.13,0,0,0,76.7,36a.16.16,0,0,0-.09-.14l-1-.49a.62.62,0,0,0-.29-.07.59.59,0,0,0-.29.07l-1,.48c-.07,0-.11.08-.11.15A.18.18,0,0,0,74.06,36.16Z" style="fill: #fff"/>
      <path d="M76.47,33.75H73.73a.22.22,0,0,1-.17-.07.2.2,0,0,1-.07-.16.23.23,0,0,1,.07-.17.23.23,0,0,1,.16-.06h2.75a.26.26,0,0,0,.16-.07.26.26,0,0,0,.07-.17V32.1a.24.24,0,0,0-.07-.16.2.2,0,0,0-.16-.07H73.73a.21.21,0,0,1-.17-.07.2.2,0,0,1-.07-.16.22.22,0,0,1,.07-.17.24.24,0,0,1,.17-.07h2.73a.72.72,0,0,1,.71.7v.95a.69.69,0,0,1-.21.5A.68.68,0,0,1,76.47,33.75Z" style="fill: #fff"/>
      <path d="M73.73,28h3.44v.62l-2.86,1.26h2.63a.25.25,0,0,1,.16.06.22.22,0,0,1,.07.17.2.2,0,0,1-.07.16.21.21,0,0,1-.16.07H73.49v-.61l2.85-1.26H73.73a.26.26,0,0,1-.17-.07.22.22,0,0,1-.07-.17.2.2,0,0,1,.07-.16A.21.21,0,0,1,73.73,28Z" style="fill: #fff"/>
      <path d="M73.49,26.67v-.92a.59.59,0,0,1,.12-.35.65.65,0,0,1,.27-.25l.93-.46a1.08,1.08,0,0,1,.52-.13,1.2,1.2,0,0,1,.53.14l.92.46a.68.68,0,0,1,.28.25.73.73,0,0,1,.11.38v.88a.26.26,0,0,1-.07.17.26.26,0,0,1-.16.07.26.26,0,0,1-.17-.07.22.22,0,0,1-.07-.17v-.24H74v.24a.2.2,0,0,1-.07.16.22.22,0,0,1-.17.07.24.24,0,0,1-.23-.23ZM74,26H76.7V25.8a.25.25,0,0,0-.15-.23l-.91-.46a.71.71,0,0,0-.31-.09.68.68,0,0,0-.28.07l-1,.48a.26.26,0,0,0-.14.24Z" style="fill: #fff"/>
    </g>
    <g>
      <path d="M102.24,23.93,103.1,21a.22.22,0,0,1,.22-.15.19.19,0,0,1,.2.13l.85,3s0,0,0,.06a.2.2,0,0,1-.06.15.21.21,0,0,1-.14.07.22.22,0,0,1-.22-.16l-.16-.58h-1l-.18.62a.17.17,0,0,1-.07.08.28.28,0,0,1-.12,0,.24.24,0,0,1-.16-.07.2.2,0,0,1-.06-.15S102.24,24,102.24,23.93Zm1.08-2.09L103,23.06h.72Z" style="fill: #fff"/>
      <path d="M105.36,23.59V21.07a.21.21,0,0,1,.07-.15.2.2,0,0,1,.15-.06.24.24,0,0,1,.15.06.2.2,0,0,1,.06.15v2.52a.2.2,0,0,0,.06.14.24.24,0,0,0,.15.06h.88a.22.22,0,0,0,.15-.06.2.2,0,0,0,.06-.14V21.07a.21.21,0,1,1,.42,0v2.51a.63.63,0,0,1-.63.65H106a.65.65,0,0,1-.64-.64Z" style="fill: #fff"/>
      <path d="M108.71,20.86h.85a.57.57,0,0,1,.32.1.68.68,0,0,1,.23.25l.42.86a1,1,0,0,1,.12.48,1.15,1.15,0,0,1-.13.48l-.42.84a.75.75,0,0,1-.24.26.65.65,0,0,1-.34.1h-.81a.21.21,0,0,1-.15-.07.22.22,0,0,1,0-.3.21.21,0,0,1,.15-.07h.22v-2.5h-.22a.23.23,0,0,1-.15-.07.22.22,0,0,1,0-.3A.22.22,0,0,1,108.71,20.86Zm.65.43V23.8h.15a.24.24,0,0,0,.21-.14l.42-.84a.72.72,0,0,0,.08-.27.63.63,0,0,0-.06-.27l-.44-.86a.22.22,0,0,0-.22-.13Z" style="fill: #fff"/>
      <path d="M111.85,20.86h1.73a.2.2,0,0,1,.14.06.2.2,0,0,1,0,.3.21.21,0,0,1-.14.07h-.65V23.8h.65a.24.24,0,0,1,.15.06.2.2,0,0,1,.06.15.18.18,0,0,1-.07.15.21.21,0,0,1-.14.07h-1.73a.21.21,0,0,1-.15-.07.21.21,0,0,1,.15-.36h.65V21.29h-.65a.18.18,0,0,1-.15-.07.21.21,0,0,1,.15-.36Z" style="fill: #fff"/>
      <path d="M116.36,21.17l.47.95a1,1,0,0,1,.09.43,1,1,0,0,1-.09.42l-.47.94a.53.53,0,0,1-.51.32.56.56,0,0,1-.31-.09.63.63,0,0,1-.2-.23l-.47-.94a1,1,0,0,1,0-.85l.47-.95a.54.54,0,0,1,.51-.31A.52.52,0,0,1,116.36,21.17Zm-.65.21-.44.9a.65.65,0,0,0-.06.26.66.66,0,0,0,.06.27l.45.91a.13.13,0,0,0,.13.08.13.13,0,0,0,.12-.08l.46-.91a.66.66,0,0,0,.06-.27.58.58,0,0,0-.06-.26l-.45-.9a.13.13,0,0,0-.13-.1A.15.15,0,0,0,115.71,21.38Z" style="fill: #fff"/>
    </g>
    <g>
      <path d="M105.53,35.61h.76a.25.25,0,0,1,.16.06.2.2,0,0,1,.06.15.18.18,0,0,1-.07.15.19.19,0,0,1-.15.07h-.73a.23.23,0,0,0-.18.09l-.64.77a.33.33,0,0,0-.08.25v1.18a.25.25,0,0,0,.06.16.25.25,0,0,0,.17.06h.92a.21.21,0,0,0,.16-.06.21.21,0,0,0,.07-.15v-.47h-.47a.21.21,0,0,1-.16-.06.2.2,0,0,1,0-.3.21.21,0,0,1,.16-.06h.93v.89a.62.62,0,0,1-.2.45.73.73,0,0,1-.49.19h-.92a.71.71,0,0,1-.49-.19.59.59,0,0,1-.2-.45V37.16a.84.84,0,0,1,.18-.54l.67-.8a.57.57,0,0,1,.21-.15A.63.63,0,0,1,105.53,35.61Z" style="fill: #fff"/>
      <path d="M107.58,38.68l.92-2.92a.21.21,0,0,1,.23-.15.19.19,0,0,1,.21.13l.91,3a.13.13,0,0,1,0,.06.2.2,0,0,1-.06.15.26.26,0,0,1-.15.07.22.22,0,0,1-.23-.16l-.18-.58h-1l-.2.62a.17.17,0,0,1-.07.08.33.33,0,0,1-.13,0,.24.24,0,0,1-.17-.07.2.2,0,0,1-.06-.15A.22.22,0,0,1,107.58,38.68Zm1.15-2.09-.4,1.22h.78Z" style="fill: #fff"/>
      <path d="M110.92,36.19v-.58h2.3v.58a.18.18,0,0,1-.07.15.24.24,0,0,1-.32,0,.18.18,0,0,1-.07-.15V36h-.46v2.72a.18.18,0,0,1-.07.15.26.26,0,0,1-.16.07.26.26,0,0,1-.17-.07.2.2,0,0,1-.06-.15V36h-.47v.15a.22.22,0,0,1-.06.15.25.25,0,0,1-.16.06.21.21,0,0,1-.16-.06A.19.19,0,0,1,110.92,36.19Z" style="fill: #fff"/>
      <path d="M116.35,36h-1.61v1h.69a.2.2,0,0,1,.16.07.18.18,0,0,1,.07.15.2.2,0,0,1-.06.15.25.25,0,0,1-.17.06h-.69v1h1.62a.25.25,0,0,1,.16.06.22.22,0,0,1,0,.3.28.28,0,0,1-.17.07h-2.07V35.61h2.07a.27.27,0,0,1,.17.06.22.22,0,0,1,0,.3A.23.23,0,0,1,116.35,36Z" style="fill: #fff"/>
    </g>
    <g>
      <path d="M109.83,43.07v.79l-.93,2.21a.24.24,0,0,1-.22.16.24.24,0,0,1-.23-.16l-.92-2.21v-.79a.2.2,0,0,1,.06-.15.25.25,0,0,1,.16-.06.25.25,0,0,1,.17.06.2.2,0,0,1,.06.15v.7l.7,1.65.69-1.65v-.7a.18.18,0,0,1,.07-.15.21.21,0,0,1,.16-.06.23.23,0,0,1,.16.06A.18.18,0,0,1,109.83,43.07Z" style="fill: #fff"/>
      <path d="M112.13,45.8H113a.25.25,0,0,1,.17.06.2.2,0,0,1,0,.3.26.26,0,0,1-.17.07h-.85a.77.77,0,0,1-.34-.1.65.65,0,0,1-.24-.22L111,45a.87.87,0,0,1-.1-.42.76.76,0,0,1,.1-.41l.53-.94a.59.59,0,0,1,.24-.23.57.57,0,0,1,.31-.1h.9a.23.23,0,0,1,.16.06.2.2,0,0,1,0,.3.2.2,0,0,1-.16.07h-.87a.21.21,0,0,0-.18.12l-.5.88a.48.48,0,0,0-.06.24.6.6,0,0,0,.06.27l.49.87A.24.24,0,0,0,112.13,45.8Z" style="fill: #fff"/>
      <path d="M115.49,45.8h.82a.27.27,0,0,1,.17.06.22.22,0,0,1,0,.3.28.28,0,0,1-.17.07h-.85a.77.77,0,0,1-.34-.1.65.65,0,0,1-.24-.22l-.53-.95a.87.87,0,0,1-.1-.42.76.76,0,0,1,.1-.41l.53-.94a.59.59,0,0,1,.24-.23.54.54,0,0,1,.31-.1h.9a.25.25,0,0,1,.16.06.22.22,0,0,1-.16.37h-.87a.21.21,0,0,0-.18.12l-.5.88a.48.48,0,0,0-.06.24.6.6,0,0,0,.06.27l.48.87A.25.25,0,0,0,115.49,45.8Z" style="fill: #fff"/>
    </g>
    <g>
      <path d="M108.84,50.61h.76a.23.23,0,0,1,.16.06.18.18,0,0,1,.07.15.24.24,0,0,1-.23.22h-.72a.25.25,0,0,0-.19.09l-.64.77a.37.37,0,0,0-.08.25v1.18a.21.21,0,0,0,.07.16.23.23,0,0,0,.16.06h.93a.25.25,0,0,0,.16-.06.26.26,0,0,0,.07-.15v-.47h-.48a.23.23,0,0,1-.16-.06.22.22,0,0,1,0-.3.23.23,0,0,1,.16-.06h.93v.89a.62.62,0,0,1-.2.45.69.69,0,0,1-.48.19h-.93a.73.73,0,0,1-.49-.19.62.62,0,0,1-.2-.45V52.16a.84.84,0,0,1,.18-.54l.67-.8a.57.57,0,0,1,.21-.15A.66.66,0,0,1,108.84,50.61Z" style="fill: #fff"/>
      <path d="M113.17,50.82V54h-.61l-1.23-2.62v2.4a.2.2,0,0,1-.06.15.26.26,0,0,1-.16.07.22.22,0,0,1-.16-.07.18.18,0,0,1-.07-.15V50.61h.6l1.23,2.61v-2.4a.21.21,0,0,1,.07-.15.25.25,0,0,1,.17-.06.25.25,0,0,1,.16.06A.2.2,0,0,1,113.17,50.82Z" style="fill: #fff"/>
      <path d="M114.46,50.61h.9a.61.61,0,0,1,.34.1A.6.6,0,0,1,116,51l.45.86a.91.91,0,0,1,.13.48,1,1,0,0,1-.14.48l-.45.84a.69.69,0,0,1-.25.26.75.75,0,0,1-.36.1h-.88a.26.26,0,0,1-.16-.07.22.22,0,0,1,0-.3.26.26,0,0,1,.16-.07h.24V51h-.23a.2.2,0,0,1-.16-.07.2.2,0,0,1,0-.3A.23.23,0,0,1,114.46,50.61Zm.69.43v2.51h.16a.25.25,0,0,0,.23-.14l.45-.84a.72.72,0,0,0,.08-.27A.52.52,0,0,0,116,52l-.46-.86a.25.25,0,0,0-.24-.13Z" style="fill: #fff"/>
    </g>
    <g>
      <path d="M92.83,28.69H91.22V29.8h.69a.2.2,0,0,1,.16.07.19.19,0,0,1,.07.16.21.21,0,0,1-.07.16.22.22,0,0,1-.16.07h-.69v1.11h1.61a.2.2,0,0,1,.16.07.19.19,0,0,1,.07.16.21.21,0,0,1-.07.16.25.25,0,0,1-.16.06H90.77V28.23h2.06a.26.26,0,0,1,.16.07.22.22,0,0,1,.07.17.18.18,0,0,1-.07.15A.21.21,0,0,1,92.83,28.69Z" style="fill: #fff"/>
      <path d="M96.4,28.47v3.35h-.61L94.57,29V31.6a.26.26,0,0,1-.07.16.25.25,0,0,1-.16.06.23.23,0,0,1-.16-.06.21.21,0,0,1-.07-.16V28.23h.6L95.94,31V28.47A.22.22,0,0,1,96,28.3a.22.22,0,0,1,.32,0A.22.22,0,0,1,96.4,28.47Z" style="fill: #fff"/>
      <path d="M99.75,28.47v.83l-.92,2.35a.23.23,0,0,1-.23.17.22.22,0,0,1-.22-.17l-.92-2.35v-.83a.24.24,0,0,1,.23-.24.26.26,0,0,1,.16.07.25.25,0,0,1,.06.17v.74l.7,1.76.69-1.76v-.74a.25.25,0,0,1,.06-.17.26.26,0,0,1,.16-.07.24.24,0,0,1,.23.24Z" style="fill: #fff"/>
      <path d="M102.86,28.69h-1.61V29.8h.69a.2.2,0,0,1,.16.07.19.19,0,0,1,.07.16.21.21,0,0,1-.07.16.22.22,0,0,1-.16.07h-.69v1.11h1.61a.2.2,0,0,1,.16.07.19.19,0,0,1,.07.16.21.21,0,0,1-.07.16.25.25,0,0,1-.16.06H100.8V28.23h2.06a.26.26,0,0,1,.16.07.22.22,0,0,1,.07.17.18.18,0,0,1-.07.15A.21.21,0,0,1,102.86,28.69Z" style="fill: #fff"/>
      <path d="M104.14,31.82V28.46a.21.21,0,0,1,.07-.16.24.24,0,0,1,.16-.07.26.26,0,0,1,.16.07.25.25,0,0,1,.06.16v2.91h1.61a.2.2,0,0,1,.16.07.19.19,0,0,1,.07.16.21.21,0,0,1-.07.16.23.23,0,0,1-.16.06Z" style="fill: #fff"/>
      <path d="M109.16,28.57l.5,1a.9.9,0,0,1,.11.46.87.87,0,0,1-.11.44l-.5,1a.54.54,0,0,1-.54.33.59.59,0,0,1-.32-.09.56.56,0,0,1-.22-.24l-.5-1a.92.92,0,0,1-.1-.44,1,1,0,0,1,.1-.46l.5-1a.57.57,0,0,1,.54-.34A.54.54,0,0,1,109.16,28.57Zm-.69.22-.47,1a.71.71,0,0,0-.06.28.67.67,0,0,0,.06.28l.49,1a.13.13,0,0,0,.13.09.15.15,0,0,0,.14-.09l.48-1a.58.58,0,0,0,.07-.28.55.55,0,0,0-.07-.28l-.47-1a.15.15,0,0,0-.15-.1A.17.17,0,0,0,108.47,28.79Z" style="fill: #fff"/>
      <path d="M110.83,31.6V28.23h1.61a.7.7,0,0,1,.68.69v.85a.66.66,0,0,1-.2.48.65.65,0,0,1-.48.2h-1.15V31.6a.26.26,0,0,1-.07.16.23.23,0,0,1-.16.06.25.25,0,0,1-.17-.06A.25.25,0,0,1,110.83,31.6Zm.46-1.6h1.15a.21.21,0,0,0,.16-.07.23.23,0,0,0,.06-.16v-.85a.23.23,0,0,0-.06-.16.21.21,0,0,0-.16-.07h-1.15Z" style="fill: #fff"/>
      <path d="M116.23,28.69h-1.61V29.8h.7a.22.22,0,0,1,.22.23.25.25,0,0,1-.06.16.26.26,0,0,1-.16.07h-.7v1.11h1.62a.23.23,0,0,1,.15.39.23.23,0,0,1-.16.06h-2.06V28.23h2.06a.24.24,0,0,1,.16.07.22.22,0,0,1,.07.17.18.18,0,0,1-.07.15A.2.2,0,0,1,116.23,28.69Z" style="fill: #fff"/>
    </g>
    <g>
      <path d="M52.48,57.44H50V56.26a.47.47,0,0,1,.15-.35.49.49,0,0,1,.35-.15h.19a.49.49,0,0,1,.36.15.47.47,0,0,1,.15.35v.21l1.17-.68a.19.19,0,0,1,.1,0,.17.17,0,0,1,.12.05.21.21,0,0,1,0,.12.16.16,0,0,1-.09.15l-1.35.78v.24h1.27a.17.17,0,0,1,.12,0,.21.21,0,0,1,0,.12.17.17,0,0,1-.17.17Zm-1.6-.33v-.85a.17.17,0,0,0-.17-.17h-.2a.16.16,0,0,0-.11,0,.15.15,0,0,0,0,.12v.85Z" style="fill: #fff"/>
      <path d="M52.31,54.83v-.51h-2v.51a.14.14,0,0,1-.16.16.16.16,0,0,1-.12,0,.21.21,0,0,1-.05-.12V54h2.3v-.33h-.69a.17.17,0,0,1-.17-.17.13.13,0,0,1,0-.12.17.17,0,0,1,.12,0h.86a.16.16,0,0,1,.11,0,.13.13,0,0,1,0,.12v1.34a.17.17,0,0,1-.17.17.13.13,0,0,1-.11,0A.17.17,0,0,1,52.31,54.83Z" style="fill: #fff"/>
      <path d="M50.32,52.54h-.14a.19.19,0,0,1-.12,0,.21.21,0,0,1-.05-.12V50.87h1a.16.16,0,0,1,.13.06l.53.61h.77a.17.17,0,0,1,.12.05.13.13,0,0,1,0,.12.16.16,0,0,1,0,.12.16.16,0,0,1-.11.05h-.85a.17.17,0,0,1-.14-.06L51,51.2h-.62v1a.17.17,0,0,1,.14.17.21.21,0,0,1-.05.12A.16.16,0,0,1,50.32,52.54Z" style="fill: #fff"/>
    </g>
    <g>
      <path d="M43.29,57.44H40.82V56.26a.47.47,0,0,1,.15-.35.49.49,0,0,1,.36-.15h.19a.51.51,0,0,1,.5.5v.21l1.17-.68.1,0a.17.17,0,0,1,.12.05.21.21,0,0,1,.05.12.16.16,0,0,1-.09.15L42,56.86v.24h1.27a.17.17,0,0,1,.12,0,.21.21,0,0,1,.05.12.17.17,0,0,1-.17.17Zm-1.6-.33v-.85a.18.18,0,0,0,0-.12.17.17,0,0,0-.12,0h-.19a.17.17,0,0,0-.12,0,.18.18,0,0,0-.05.12v.85Z" style="fill: #fff"/>
      <path d="M41.16,53.31h.62a.47.47,0,0,1,.35.14.48.48,0,0,1,.34-.14h.65a.32.32,0,0,1,.33.34v1.17a.16.16,0,0,1,0,.12.21.21,0,0,1-.12.05.17.17,0,0,1-.17-.17V53.65h-.65a.21.21,0,0,0-.12.05.17.17,0,0,0-.05.12v.67a.16.16,0,0,1,0,.11.13.13,0,0,1-.12,0,.17.17,0,0,1-.16-.16v-.68a.16.16,0,0,0,0-.11.13.13,0,0,0-.12-.05h-.64v1.18a.17.17,0,0,1,0,.12.17.17,0,0,1-.24,0,.17.17,0,0,1,0-.12V53.65a.33.33,0,0,1,.1-.24A.33.33,0,0,1,41.16,53.31Z" style="fill: #fff"/>
    </g>
    <path d="M24.11,8.23a1.14,1.14,0,0,0-1.49.84,2.28,2.28,0,0,0,0,.45c0,1.33,0,2.66,0,4a1.15,1.15,0,0,0,0,.16l.13-.15L24.09,12a1.14,1.14,0,0,1,.94-.38,2.61,2.61,0,0,0,.74,0A2.87,2.87,0,0,0,28,8.6a2.35,2.35,0,0,0-.57-1.4A3.35,3.35,0,0,0,27,6.89V7c0,.39-.23.56-.58.39A1.86,1.86,0,0,1,25.83,7a.56.56,0,0,1,.32-1,3.83,3.83,0,0,1,.41,0,1.62,1.62,0,0,0-1.46-.28,1.25,1.25,0,0,0-.91.94,1.05,1.05,0,0,0,.24.84c.15.2.33.38.5.57a.87.87,0,0,1,.28.51.66.66,0,0,1-.6.71.75.75,0,0,1-.88-.39.35.35,0,0,1,.09-.42A3.06,3.06,0,0,1,24.11,8.23Z" style="fill: #fff"/>
    <g>
      <path d="M42,9.61h-2c-.46,0-.82-.51-.82-1.13s.36-1.12.82-1.12h2c.45,0,.82.5.82,1.12S42.4,9.61,42,9.61Z" style="fill: #bcbcbc"/>
      <path d="M42,15.61h-2c-.46,0-.82-.5-.82-1.12s.36-1.13.82-1.13h2c.45,0,.82.5.82,1.13S42.4,15.61,42,15.61Z" style="fill: #bcbcbc"/>
      <rect height="6" rx="0.58" ry="0.58" style="fill: #e2e2e2" width="2.22" x="39.82" y="8.48"/>
      <rect height="2.81" width="2.22" x="39.82" y="10.02"/>
    </g>
    <g>
      <path d="M41.23,12.1V12s0,0,0,0h.07s0,0,0,0v.16a.14.14,0,0,1,0,.06.12.12,0,0,1,0,.05l-.19.1a.15.15,0,0,1-.09,0,.11.11,0,0,1-.08,0l-.2-.1,0,0a.39.39,0,0,1,0-.06v-.18l0,0h.06a0,0,0,0,1,0,0v.17s0,0,0,0l.18.1H41l.18-.09A.05.05,0,0,0,41.23,12.1Z" style="fill: #fff"/>
      <path d="M41.23,11.66v-.14h-.52v.14a0,0,0,0,1,0,0h-.06l0,0v-.23h.61v-.08h-.18s0,0,0,0,0,0,0,0,0,0,0,0h.28s0,0,0,0v.36l0,0h-.06A0,0,0,0,1,41.23,11.66Z" style="fill: #fff"/>
      <path d="M41.23,11.05h-.52s-.05,0-.06,0a.09.09,0,0,1,0-.06V10.7a.11.11,0,0,1,.09-.09h.52a.11.11,0,0,1,.09.09V11a.09.09,0,0,1,0,.06S41.26,11.05,41.23,11.05Zm0-.35h-.52V11h.52Z" style="fill: #fff"/>
    </g>
    <g>
      <path d="M35.35,32.65v2c0,.46-.5.83-1.12.83s-1.13-.37-1.13-.83v-2c0-.46.51-.83,1.13-.83S35.35,32.19,35.35,32.65Z" style="fill: #bcbcbc"/>
      <path d="M41.36,32.65v2c0,.46-.51.83-1.13.83s-1.12-.37-1.12-.83v-2c0-.46.5-.83,1.12-.83S41.36,32.19,41.36,32.65Z" style="fill: #bcbcbc"/>
      <rect height="6" rx="0.58" ry="0.58" style="fill: #e2e2e2" transform="translate(3.57 70.89) rotate(-90)" width="2.22" x="36.12" y="30.65"/>
      <rect height="2.81" transform="translate(3.52 70.83) rotate(-90)" width="2.22" x="36.06" y="32.25"/>
    </g>
    <g>
      <path d="M35.35,25.05v2c0,.45-.5.82-1.12.82s-1.13-.37-1.13-.82v-2c0-.46.51-.82,1.13-.82S35.35,24.59,35.35,25.05Z" style="fill: #bcbcbc"/>
      <path d="M41.36,25.05v2c0,.45-.51.82-1.13.82s-1.12-.37-1.12-.82v-2c0-.46.5-.82,1.12-.82S41.36,24.59,41.36,25.05Z" style="fill: #bcbcbc"/>
      <rect height="6" rx="0.58" ry="0.58" style="fill: #e2e2e2" transform="translate(11.17 63.29) rotate(-90)" width="2.22" x="36.12" y="23.05"/>
      <rect height="2.81" style="fill: #916c5a" transform="translate(11.12 63.23) rotate(-90)" width="2.22" x="36.06" y="24.65"/>
    </g>
    <g>
      <path d="M25.12,57.49h2c.46,0,.83.51.83,1.13s-.37,1.13-.83,1.13h-2c-.46,0-.83-.51-.83-1.13S24.66,57.49,25.12,57.49Z" style="fill: #bcbcbc"/>
      <path d="M25.12,51.49h2c.46,0,.83.5.83,1.13s-.37,1.12-.83,1.12h-2c-.46,0-.83-.5-.83-1.12S24.66,51.49,25.12,51.49Z" style="fill: #bcbcbc"/>
      <rect height="6" rx="0.58" ry="0.58" style="fill: #e2e2e2" transform="translate(52.25 111.24) rotate(180)" width="2.22" x="25.01" y="52.62"/>
      <rect height="2.81" style="fill: #916c5a" transform="translate(52.25 111.35) rotate(180)" width="2.22" x="25.01" y="54.27"/>
    </g>
    <g>
      <path d="M6.21,58.64H9.3c.69,0,1.25.82,1.25,1.83S10,62.29,9.3,62.29H6.21c-.69,0-1.26-.81-1.26-1.82S5.52,58.64,6.21,58.64Z" style="fill: #bcbcbc"/>
      <path d="M6.21,48.92H9.3c.69,0,1.25.81,1.25,1.82S10,52.56,9.3,52.56H6.21c-.69,0-1.26-.81-1.26-1.82S5.52,48.92,6.21,48.92Z" style="fill: #bcbcbc"/>
      <rect height="9.73" rx="0.58" ry="0.58" style="fill: #e2e2e2" transform="translate(15.51 111.21) rotate(180)" width="4.79" x="5.36" y="50.74"/>
      <rect height="4.56" style="fill: #916c5a" transform="translate(15.51 111.4) rotate(180)" width="4.79" x="5.36" y="53.42"/>
    </g>
    <g>
      <path d="M97.89,42.32H101c.69,0,1.26.82,1.26,1.83S101.67,46,101,46H97.89c-.69,0-1.25-.82-1.25-1.82S97.2,42.32,97.89,42.32Z" style="fill: #bcbcbc"/>
      <path d="M97.89,32.6H101c.69,0,1.26.81,1.26,1.82s-.57,1.82-1.26,1.82H97.89c-.69,0-1.25-.81-1.25-1.82S97.2,32.6,97.89,32.6Z" style="fill: #bcbcbc"/>
      <rect height="9.73" rx="0.58" ry="0.58" style="fill: #e2e2e2" transform="translate(198.87 78.56) rotate(180)" width="4.79" x="97.04" y="34.42"/>
      <rect height="4.56" style="fill: #916c5a" transform="translate(198.87 78.75) rotate(180)" width="4.79" x="97.04" y="37.1"/>
    </g>
    <g>
      <path d="M37.85,33.36h-.19a0,0,0,0,1,0,0s0,0,0,0l0,0h.17l.06,0s0,0,0,.05l.1.19a.21.21,0,0,1,0,.18l-.1.19s0,0,0,.05l-.06,0h-.17l0,0s0,0,0,0,0,0,0,0h.2l0,0,.1-.18a.13.13,0,0,0,0-.1l-.1-.18S37.87,33.36,37.85,33.36Z" style="fill: #fff"/>
      <path d="M37.4,33.36h-.13v.52h.16s0,0,0,0,0,0,0,0l0,0h-.22v-.61h-.09v.19a0,0,0,0,1,0,0H37a0,0,0,0,1,0,0v-.23a0,0,0,0,1,0,0l0,0h.35s0,0,0,0l0,0,0,0Z" style="fill: #fff"/>
      <path d="M36.8,33.36v.52a.06.06,0,0,1,0,.06.05.05,0,0,1-.05,0h-.28a.09.09,0,0,1-.06,0,.08.08,0,0,1,0-.06v-.52a.14.14,0,0,1,0-.06l.06,0h.28l.06,0A.14.14,0,0,1,36.8,33.36Zm-.36,0v.52h.27v-.52Z" style="fill: #fff"/>
    </g>
    <g>
      <path d="M35.35,40.16v2c0,.45-.5.82-1.12.82s-1.13-.37-1.13-.82v-2c0-.46.51-.82,1.13-.82S35.35,39.7,35.35,40.16Z" style="fill: #bcbcbc"/>
      <path d="M41.36,40.16v2c0,.45-.51.82-1.13.82s-1.12-.37-1.12-.82v-2c0-.46.5-.82,1.12-.82S41.36,39.7,41.36,40.16Z" style="fill: #bcbcbc"/>
      <rect height="6" rx="0.58" ry="0.58" style="fill: #e2e2e2" transform="translate(-3.94 78.4) rotate(-90)" width="2.22" x="36.12" y="38.17"/>
      <rect height="2.81" transform="translate(-4 78.34) rotate(-90)" width="2.22" x="36.06" y="39.76"/>
    </g>
    <g>
      <path d="M37.85,40.87h-.19a0,0,0,0,1,0-.06l0,0h.17l.06,0s0,0,0,.05l.1.19a.21.21,0,0,1,0,.18l-.1.19s0,0,0,.05l-.06,0h-.2a.05.05,0,0,1,0,0l0,0h.2s0,0,0,0l.1-.18a.13.13,0,0,0,0-.1l-.1-.18S37.87,40.87,37.85,40.87Z" style="fill: #fff"/>
      <path d="M37.4,40.87h-.13v.52h.16l0,0a.05.05,0,0,1,0,0h-.25v-.61h-.09v.19a0,0,0,0,1,0,0H37a0,0,0,0,1,0,0v-.23a0,0,0,0,1,0,0l0,0h.35s0,0,0,0l0,0s0,0,0,0Z" style="fill: #fff"/>
      <path d="M36.8,40.87v.53a.12.12,0,0,1-.08.08h-.28l-.06,0a.08.08,0,0,1,0-.05v-.53a.14.14,0,0,1,0-.06.09.09,0,0,1,.06,0h.28a.09.09,0,0,1,.06,0A.14.14,0,0,1,36.8,40.87Zm-.36,0v.52h.27v-.52Z" style="fill: #fff"/>
    </g>
    <g>
      <g>
        <path d="M17.78,57.49h2c.46,0,.82.51.82,1.13s-.36,1.13-.82,1.13h-2c-.45,0-.82-.51-.82-1.13S17.33,57.49,17.78,57.49Z" style="fill: #bcbcbc"/>
        <path d="M17.78,51.49h2c.46,0,.82.5.82,1.13s-.36,1.12-.82,1.12h-2c-.45,0-.82-.5-.82-1.12S17.33,51.49,17.78,51.49Z" style="fill: #bcbcbc"/>
        <rect height="6" rx="0.58" ry="0.58" style="fill: #e2e2e2" transform="translate(37.58 111.24) rotate(180)" width="2.22" x="17.68" y="52.62"/>
        <rect height="2.81" transform="translate(37.58 111.35) rotate(180)" width="2.22" x="17.68" y="54.27"/>
      </g>
      <g>
        <path d="M18.5,55v.16s0,0,0,0,0,0,0,0h0a0,0,0,0,1,0,0V55a.14.14,0,0,1,0-.06.11.11,0,0,1,0,0l.2-.1.09,0,.08,0,.19.1a.08.08,0,0,1,0,0,.07.07,0,0,1,0,.06v.17a0,0,0,0,1,0,0H19s0,0,0,0V55s0,0,0,0l-.18-.1H18.7l-.18.09A.08.08,0,0,0,18.5,55Z" style="fill: #fff"/>
        <path d="M18.5,55.44v.14H19v-.13s0,0,0,0h.06s0,0,0,0v.22h-.6v.08h.18l0,0a.05.05,0,0,1,0,.06h-.29a0,0,0,0,1,0,0v-.36a0,0,0,0,1,0,0h.07S18.5,55.43,18.5,55.44Z" style="fill: #fff"/>
        <path d="M18.49,56.05H19l.06,0a.07.07,0,0,1,0,.06v.28a.07.07,0,0,1,0,.06l-.06,0h-.53l-.06,0a.14.14,0,0,1,0-.07v-.27a.14.14,0,0,1,0-.06Zm0,.35H19v-.26H18.5Z" style="fill: #fff"/>
      </g>
    </g>
    <g>
      <g>
        <path d="M32.51,57.49h2c.46,0,.82.51.82,1.13s-.36,1.13-.82,1.13h-2c-.45,0-.82-.51-.82-1.13S32.06,57.49,32.51,57.49Z" style="fill: #bcbcbc"/>
        <path d="M32.51,51.49h2c.46,0,.82.5.82,1.13s-.36,1.12-.82,1.12h-2c-.45,0-.82-.5-.82-1.12S32.06,51.49,32.51,51.49Z" style="fill: #bcbcbc"/>
        <rect height="6" rx="0.58" ry="0.58" style="fill: #e2e2e2" transform="translate(67.05 111.24) rotate(180)" width="2.22" x="32.41" y="52.62"/>
        <rect height="2.81" transform="translate(67.05 111.35) rotate(180)" width="2.22" x="32.41" y="54.27"/>
      </g>
      <g>
        <path d="M33.23,55v.16s0,0,0,0h-.07a0,0,0,0,1,0,0V55a.14.14,0,0,1,0-.06.11.11,0,0,1,0,0l.2-.1.09,0,.08,0,.2.1a.11.11,0,0,1,0,0,.07.07,0,0,1,0,.06v.17a0,0,0,0,1,0,0h-.06a0,0,0,0,1,0,0V55s0,0,0,0l-.18-.1h-.11l-.17.09A.05.05,0,0,0,33.23,55Z" style="fill: #fff"/>
        <path d="M33.23,55.44v.14h.52v-.13s0,0,0,0h.06s0,0,0,0v.22h-.6v.08h.18l0,0,0,0s0,0,0,0h-.29s0,0,0,0v-.36s0,0,0,0h.07S33.23,55.43,33.23,55.44Z" style="fill: #fff"/>
        <path d="M33.23,56.05h.52l.06,0a.09.09,0,0,1,0,.06v.28a.09.09,0,0,1,0,.06l-.06,0h-.52l-.06,0a.09.09,0,0,1,0-.07v-.27a.09.09,0,0,1,0-.06Zm0,.35h.52v-.26h-.52Z" style="fill: #fff"/>
      </g>
    </g>
    <g>
      <g>
        <path d="M45.3,57.49h2c.46,0,.82.51.82,1.13s-.36,1.13-.82,1.13h-2c-.45,0-.82-.51-.82-1.13S44.85,57.49,45.3,57.49Z" style="fill: #bcbcbc"/>
        <path d="M45.3,51.49h2c.46,0,.82.5.82,1.13s-.36,1.12-.82,1.12h-2c-.45,0-.82-.5-.82-1.12S44.85,51.49,45.3,51.49Z" style="fill: #bcbcbc"/>
        <rect height="6" rx="0.58" ry="0.58" style="fill: #e2e2e2" transform="translate(92.63 111.24) rotate(180)" width="2.22" x="45.2" y="52.62"/>
        <rect height="2.81" transform="translate(92.63 111.35) rotate(180)" width="2.22" x="45.2" y="54.27"/>
      </g>
      <g>
        <path d="M46,55v.16s0,0,0,0h-.07a0,0,0,0,1,0,0V55a.14.14,0,0,1,0-.06.11.11,0,0,1,0,0l.2-.1.09,0,.08,0,.2.1a.11.11,0,0,1,0,0,.07.07,0,0,1,0,.06v.17a0,0,0,0,1,0,0h-.06a0,0,0,0,1,0,0V55s0,0,0,0l-.18-.1h-.11l-.17.09A.05.05,0,0,0,46,55Z" style="fill: #fff"/>
        <path d="M46,55.44v.14h.52v-.13s0,0,0,0h.06s0,0,0,0v.22H46v.08h.18l0,0,0,0s0,0,0,0h-.29s0,0,0,0v-.36s0,0,0,0H46S46,55.43,46,55.44Z" style="fill: #fff"/>
        <path d="M46,56.05h.52l.06,0a.09.09,0,0,1,0,.06v.28a.09.09,0,0,1,0,.06l-.06,0H46l-.06,0a.09.09,0,0,1,0-.07v-.27a.09.09,0,0,1,0-.06A.08.08,0,0,1,46,56.05Zm0,.35h.52v-.26H46Z" style="fill: #fff"/>
      </g>
    </g>
    <g>
      <g>
        <path d="M65.5,57.49h2c.46,0,.82.51.82,1.13s-.36,1.13-.82,1.13h-2c-.45,0-.82-.51-.82-1.13S65.05,57.49,65.5,57.49Z" style="fill: #bcbcbc"/>
        <path d="M65.5,51.49h2c.46,0,.82.5.82,1.13s-.36,1.12-.82,1.12h-2c-.45,0-.82-.5-.82-1.12S65.05,51.49,65.5,51.49Z" style="fill: #bcbcbc"/>
        <rect height="6" rx="0.58" ry="0.58" style="fill: #e2e2e2" transform="translate(133.03 111.24) rotate(180)" width="2.22" x="65.4" y="52.62"/>
        <rect height="2.81" transform="translate(133.03 111.35) rotate(180)" width="2.22" x="65.4" y="54.27"/>
      </g>
      <g>
        <path d="M66.22,55v.16s0,0,0,0h-.07s0,0,0,0V55a.14.14,0,0,1,0-.06.08.08,0,0,1,0,0l.19-.1.09,0,.08,0,.2.1a.11.11,0,0,1,0,0,.09.09,0,0,1,0,.06v.17s0,0,0,0h-.06a0,0,0,0,1,0,0V55s0,0,0,0l-.18-.1h-.11l-.17.09A.05.05,0,0,0,66.22,55Z" style="fill: #fff"/>
        <path d="M66.22,55.44v.14h.52v-.13s0,0,0,0h.06a.05.05,0,0,1,0,0v.22h-.61v.08h.18l0,0,0,0s0,0,0,0h-.29s0,0,0,0v-.36l0,0h.06A0,0,0,0,1,66.22,55.44Z" style="fill: #fff"/>
        <path d="M66.22,56.05h.52l.06,0a.09.09,0,0,1,0,.06v.28a.09.09,0,0,1,0,.06l-.06,0h-.52l-.06,0a.09.09,0,0,1,0-.07v-.27a.09.09,0,0,1,0-.06A.08.08,0,0,1,66.22,56.05Zm0,.35h.52v-.26h-.52Z" style="fill: #fff"/>
      </g>
    </g>
    <g>
      <g>
        <path d="M72.63,57.49h2c.45,0,.82.51.82,1.13s-.37,1.13-.82,1.13h-2c-.45,0-.82-.51-.82-1.13S72.18,57.49,72.63,57.49Z" style="fill: #bcbcbc"/>
        <path d="M72.63,51.49h2c.45,0,.82.5.82,1.13s-.37,1.12-.82,1.12h-2c-.45,0-.82-.5-.82-1.12S72.18,51.49,72.63,51.49Z" style="fill: #bcbcbc"/>
        <rect height="6" rx="0.58" ry="0.58" style="fill: #e2e2e2" transform="translate(147.28 111.24) rotate(180)" width="2.22" x="72.53" y="52.62"/>
        <rect height="2.81" transform="translate(147.28 111.35) rotate(180)" width="2.22" x="72.53" y="54.27"/>
      </g>
      <g>
        <path d="M73.34,55v.16a0,0,0,0,1,0,0h-.06a0,0,0,0,1,0,0V55a.07.07,0,0,1,0-.06.07.07,0,0,1,0,0l.2-.1.08,0,.09,0,.19.1a.08.08,0,0,1,.05,0A.14.14,0,0,1,74,55v.17a0,0,0,0,1,0,0h-.07s0,0,0,0V55s0,0,0,0l-.18-.1h-.11l-.18.09A.05.05,0,0,0,73.34,55Z" style="fill: #fff"/>
        <path d="M73.34,55.44v.14h.52v-.13a.05.05,0,0,1,0,0h.06s0,0,0,0v.22h-.61v.08h.19l0,0a.05.05,0,0,1,0,.06h-.29a0,0,0,0,1,0,0v-.36a0,0,0,0,1,0,0h.06A0,0,0,0,1,73.34,55.44Z" style="fill: #fff"/>
        <path d="M73.34,56.05h.53l.06,0a.14.14,0,0,1,0,.06v.28a.14.14,0,0,1,0,.06l-.06,0h-.53l-.06,0a.08.08,0,0,1,0-.07v-.27a.07.07,0,0,1,0-.06Zm0,.35h.52v-.26h-.52Z" style="fill: #fff"/>
      </g>
    </g>
    <g>
      <g>
        <path d="M82,53.74H80c-.45,0-.82-.5-.82-1.12s.37-1.13.82-1.13h2c.45,0,.82.5.82,1.13S82.46,53.74,82,53.74Z" style="fill: #bcbcbc"/>
        <path d="M82,59.75H80c-.45,0-.82-.51-.82-1.13s.37-1.13.82-1.13h2c.45,0,.82.51.82,1.13S82.46,59.75,82,59.75Z" style="fill: #bcbcbc"/>
        <rect height="6" rx="0.58" ry="0.58" style="fill: #e2e2e2" width="2.22" x="79.89" y="52.62"/>
        <rect height="2.81" width="2.22" x="79.89" y="54.15"/>
      </g>
      <g>
        <path d="M81.38,56.08v.4h-.3a.11.11,0,0,1-.09-.09v-.26h-.21v.31s0,0,0,0H80.7a0,0,0,0,1,0,0v-.31a.14.14,0,0,1,0-.07l.07,0H81l.06,0a.09.09,0,0,1,0,.07v.26h.21v-.31l0,0h.06A0,0,0,0,1,81.38,56.08Z" style="fill: #fff"/>
        <path d="M81.38,55.43v.4h-.3l-.06,0a.09.09,0,0,1,0-.06v-.27h-.21v.31s0,0,0,0l0,0,0,0s0,0,0,0v-.31a.08.08,0,0,1,0-.06.09.09,0,0,1,.07,0H81a.09.09,0,0,1,.06,0,.06.06,0,0,1,0,.06v.27h.21v-.32l0,0h.06A0,0,0,0,1,81.38,55.43Z" style="fill: #fff"/>
        <path d="M80.78,54.74h.16a.13.13,0,0,1,.09,0,.18.18,0,0,1,.09,0h.17a.09.09,0,0,1,.07,0,.14.14,0,0,1,0,.06v.31a0,0,0,0,1,0,0l0,0,0,0,0,0v-.31h-.17l0,0s0,0,0,0v.17s0,0,0,0,0,0,0,0l0,0s0,0,0,0v-.17s0,0,0,0l0,0h-.17v.32l0,0H80.7a0,0,0,0,1,0,0v-.32a.14.14,0,0,1,0-.06A.09.09,0,0,1,80.78,54.74Z" style="fill: #fff"/>
      </g>
    </g>
    <g>
      <g>
        <path d="M100.45,53.74h-2c-.46,0-.82-.5-.82-1.12s.36-1.13.82-1.13h2c.45,0,.82.5.82,1.13S100.9,53.74,100.45,53.74Z" style="fill: #bcbcbc"/>
        <path d="M100.45,59.75h-2c-.46,0-.82-.51-.82-1.13s.36-1.13.82-1.13h2c.45,0,.82.51.82,1.13S100.9,59.75,100.45,59.75Z" style="fill: #bcbcbc"/>
        <rect height="6" rx="0.58" ry="0.58" style="fill: #e2e2e2" width="2.22" x="98.33" y="52.62"/>
        <rect height="2.81" width="2.22" x="98.33" y="54.15"/>
      </g>
      <g>
        <path d="M99.73,56.24v-.16s0,0,0,0l0,0,0,0a0,0,0,0,1,0,0v.16a.14.14,0,0,1,0,.07l0,0-.2.1-.09,0-.08,0-.2-.1,0,0a.07.07,0,0,1,0-.06v-.17s0,0,0,0l0,0,0,0s0,0,0,0v.16s0,0,0,0l.18.1h0l.06,0,.17-.09S99.73,56.26,99.73,56.24Z" style="fill: #fff"/>
        <path d="M99.73,55.79v-.13h-.52v.13a0,0,0,0,1,0,0h-.06a0,0,0,0,1,0,0v-.22h.6v-.09h-.21s0,0,0,0,0,0,0,0l0,0h.23l0,0v.41a.05.05,0,0,1,0,0l0,0Z" style="fill: #fff"/>
        <path d="M99.73,55.19h-.52a.09.09,0,0,1-.06,0,.06.06,0,0,1,0-.06v-.27a.09.09,0,0,1,0-.06.07.07,0,0,1,.06,0h.52s0,0,.06,0a.09.09,0,0,1,0,.06v.27a.11.11,0,0,1-.09.09Zm0-.36h-.52v.27h.52Z" style="fill: #fff"/>
      </g>
    </g>
    <g>
      <g>
        <path d="M106.14,53.74h-2c-.46,0-.82-.5-.82-1.12s.36-1.13.82-1.13h2c.45,0,.82.5.82,1.13S106.59,53.74,106.14,53.74Z" style="fill: #bcbcbc"/>
        <path d="M106.14,59.75h-2c-.46,0-.82-.51-.82-1.13s.36-1.13.82-1.13h2c.45,0,.82.51.82,1.13S106.59,59.75,106.14,59.75Z" style="fill: #bcbcbc"/>
        <rect height="6" rx="0.58" ry="0.58" style="fill: #e2e2e2" width="2.22" x="104.02" y="52.62"/>
        <rect height="2.81" width="2.22" x="104.02" y="54.15"/>
      </g>
      <g>
        <path d="M105.42,56.24v-.16s0,0,0,0l0,0,0,0a0,0,0,0,1,0,0v.16a.14.14,0,0,1,0,.07l0,0-.2.1-.09,0-.08,0-.2-.1,0,0a.07.07,0,0,1,0-.06v-.17s0,0,0,0l0,0,0,0s0,0,0,0v.16s0,0,0,0l.18.1h0l.06,0,.17-.09S105.42,56.26,105.42,56.24Z" style="fill: #fff"/>
        <path d="M105.42,55.79v-.13h-.52v.13a0,0,0,0,1,0,0h-.06a0,0,0,0,1,0,0v-.22h.6v-.09h-.21s0,0,0,0,0,0,0,0l0,0h.22a.05.05,0,0,1,0,0v.41a.05.05,0,0,1,0,0l0,0Z" style="fill: #fff"/>
        <path d="M105.42,55.19h-.52a.09.09,0,0,1-.06,0,.06.06,0,0,1,0-.06v-.27a.09.09,0,0,1,0-.06.07.07,0,0,1,.06,0h.52s0,0,.06,0a.09.09,0,0,1,0,.06v.27a.11.11,0,0,1-.09.09Zm0-.36h-.52v.27h.52Z" style="fill: #fff"/>
      </g>
    </g>
    <g>
      <path d="M49.15,9.61h-2c-.45,0-.82-.51-.82-1.13s.37-1.12.82-1.12h2c.46,0,.82.5.82,1.12S49.61,9.61,49.15,9.61Z" style="fill: #bcbcbc"/>
      <path d="M49.15,15.61h-2c-.45,0-.82-.5-.82-1.12s.37-1.13.82-1.13h2c.46,0,.82.5.82,1.13S49.61,15.61,49.15,15.61Z" style="fill: #bcbcbc"/>
      <rect height="6" rx="0.58" ry="0.58" style="fill: #e2e2e2" width="2.22" x="47.03" y="8.48"/>
      <rect height="2.81" width="2.22" x="47.03" y="10.02"/>
    </g>
    <g>
      <path d="M48.44,12.1V12s0,0,0,0h.06a.05.05,0,0,1,0,0v.16a.14.14,0,0,1,0,.06.12.12,0,0,1,0,.05l-.19.1a.21.21,0,0,1-.18,0l-.19-.1,0,0a.39.39,0,0,1,0-.06v-.18l0,0h.06a0,0,0,0,1,0,0v.17s0,0,0,0l.18.1h.1l.18-.09A.05.05,0,0,0,48.44,12.1Z" style="fill: #fff"/>
      <path d="M48.44,11.66v-.14h-.52v.14a0,0,0,0,1,0,0h-.06l0,0v-.23h.61v-.08h-.19l0,0a0,0,0,0,1,0,0s0,0,0,0h.29s0,0,0,0v.36l0,0h-.06A0,0,0,0,1,48.44,11.66Z" style="fill: #fff"/>
      <path d="M48.44,11.05h-.52s-.05,0-.06,0a.09.09,0,0,1,0-.06V10.7a.11.11,0,0,1,.09-.09h.52a.09.09,0,0,1,.06,0,.06.06,0,0,1,0,.06V11a.09.09,0,0,1,0,.06A.07.07,0,0,1,48.44,11.05Zm0-.35h-.52V11h.52Z" style="fill: #fff"/>
    </g>
    <g>
      <path d="M56.36,9.61h-2c-.45,0-.82-.51-.82-1.13s.37-1.12.82-1.12h2c.46,0,.82.5.82,1.12S56.82,9.61,56.36,9.61Z" style="fill: #bcbcbc"/>
      <path d="M56.36,15.61h-2c-.45,0-.82-.5-.82-1.12s.37-1.13.82-1.13h2c.46,0,.82.5.82,1.13S56.82,15.61,56.36,15.61Z" style="fill: #bcbcbc"/>
      <rect height="6" rx="0.58" ry="0.58" style="fill: #e2e2e2" width="2.22" x="54.24" y="8.48"/>
      <rect height="2.81" width="2.22" x="54.24" y="10.02"/>
    </g>
    <g>
      <path d="M55.13,10.86V11a0,0,0,0,1,0,0l0,0,0,0s0,0,0,0v-.16a.19.19,0,0,1,0-.07s0,0,0,0l.19-.11.09,0,.08,0,.2.11,0,0a.14.14,0,0,1,0,.06V11a.05.05,0,0,1,0,0h-.06s0,0,0,0v-.16s0,0,0,0l-.18-.09,0,0,0,0-.18.09S55.13,10.84,55.13,10.86Z" style="fill: #fff"/>
      <path d="M55.13,11.31v.13h.52v-.13a0,0,0,0,1,0,0h.06l0,0v.22h-.61v.09h.18s0,0,0,0l0,0s0,0,0,0,0,0,0,0h-.22s0,0,0,0,0,0,0,0v-.35l0,0h.06A0,0,0,0,1,55.13,11.31Z" style="fill: #fff"/>
      <path d="M55.13,11.91h.52a.11.11,0,0,1,.09.09v.27a.09.09,0,0,1,0,.06.06.06,0,0,1-.06,0h-.52a.06.06,0,0,1-.06,0,.09.09,0,0,1,0-.06V12a.11.11,0,0,1,.09-.09Zm0,.36h.52V12h-.52Z" style="fill: #fff"/>
    </g>
    <g>
      <path d="M63.86,9.61h-2c-.45,0-.82-.51-.82-1.13s.37-1.12.82-1.12h2c.46,0,.82.5.82,1.12S64.32,9.61,63.86,9.61Z" style="fill: #bcbcbc"/>
      <path d="M63.86,15.61h-2c-.45,0-.82-.5-.82-1.12s.37-1.13.82-1.13h2c.46,0,.82.5.82,1.13S64.32,15.61,63.86,15.61Z" style="fill: #bcbcbc"/>
      <rect height="6" rx="0.58" ry="0.58" style="fill: #e2e2e2" width="2.22" x="61.74" y="8.48"/>
      <rect height="2.81" width="2.22" x="61.74" y="10.02"/>
    </g>
    <g>
      <path d="M62.63,10.86V11a0,0,0,0,1,0,0l0,0,0,0s0,0,0,0v-.16a.19.19,0,0,1,0-.07s0,0,0,0l.19-.11.09,0,.08,0,.2.11,0,0a.14.14,0,0,1,0,.06V11a.05.05,0,0,1,0,0h-.06s0,0,0,0v-.16s0,0,0,0l-.18-.09,0,0,0,0-.18.09S62.63,10.84,62.63,10.86Z" style="fill: #fff"/>
      <path d="M62.63,11.31v.13h.52v-.13a0,0,0,0,1,0,0h.06l0,0v.22h-.61v.09h.18s0,0,0,0l0,0s0,0,0,0,0,0,0,0h-.22l0,0s0,0,0,0v-.35l0,0h.06A0,0,0,0,1,62.63,11.31Z" style="fill: #fff"/>
      <path d="M62.63,11.91h.52a.11.11,0,0,1,.09.09v.27a.09.09,0,0,1,0,.06.06.06,0,0,1-.06,0h-.52a.06.06,0,0,1-.06,0,.09.09,0,0,1,0-.06V12a.11.11,0,0,1,.09-.09Zm0,.36h.52V12h-.52Z" style="fill: #fff"/>
    </g>
    <g>
      <path d="M71.2,9.61h-2c-.46,0-.82-.51-.82-1.13s.36-1.12.82-1.12h2c.45,0,.82.5.82,1.12S71.65,9.61,71.2,9.61Z" style="fill: #bcbcbc"/>
      <path d="M71.2,15.61h-2c-.46,0-.82-.5-.82-1.12s.36-1.13.82-1.13h2c.45,0,.82.5.82,1.13S71.65,15.61,71.2,15.61Z" style="fill: #bcbcbc"/>
      <rect height="6" rx="0.58" ry="0.58" style="fill: #e2e2e2" width="2.22" x="69.07" y="8.48"/>
      <rect height="2.81" width="2.22" x="69.07" y="10.02"/>
    </g>
    <g>
      <path d="M70.48,12.1V12s0,0,0,0h.06a.05.05,0,0,1,0,0v.16a.14.14,0,0,1,0,.06.12.12,0,0,1,0,.05l-.19.1a.15.15,0,0,1-.09,0,.11.11,0,0,1-.08,0l-.2-.1,0,0a.39.39,0,0,1,0-.06v-.18l0,0H70a0,0,0,0,1,0,0v.17l0,0,.18.1h.1l.18-.09A.05.05,0,0,0,70.48,12.1Z" style="fill: #fff"/>
      <path d="M70.48,11.66v-.14H70v.14a0,0,0,0,1,0,0h-.06l0,0v-.23h.61v-.08H70.3l0,0a0,0,0,0,1,0,0s0,0,0,0h.29s0,0,0,0v.36l0,0h-.06A0,0,0,0,1,70.48,11.66Z" style="fill: #fff"/>
      <path d="M70.48,11.05H70s0,0-.06,0a.09.09,0,0,1,0-.06V10.7a.11.11,0,0,1,.09-.09h.52a.07.07,0,0,1,.06,0,.06.06,0,0,1,0,.06V11a.09.09,0,0,1,0,.06S70.5,11.05,70.48,11.05Zm0-.35H70V11h.52Z" style="fill: #fff"/>
    </g>
    <g>
      <path d="M78.53,9.61h-2c-.45,0-.82-.51-.82-1.13s.37-1.12.82-1.12h2c.45,0,.82.5.82,1.12S79,9.61,78.53,9.61Z" style="fill: #bcbcbc"/>
      <path d="M78.53,15.61h-2c-.45,0-.82-.5-.82-1.12s.37-1.13.82-1.13h2c.45,0,.82.5.82,1.13S79,15.61,78.53,15.61Z" style="fill: #bcbcbc"/>
      <rect height="6" rx="0.58" ry="0.58" style="fill: #e2e2e2" width="2.22" x="76.41" y="8.48"/>
      <rect height="2.81" width="2.22" x="76.41" y="10.02"/>
    </g>
    <g>
      <path d="M77.3,10.86V11l0,0h-.06a0,0,0,0,1,0,0v-.16a.08.08,0,0,1,0-.07l0,0,.2-.1.09,0,.08,0,.19.1a.12.12,0,0,1,0,0,.07.07,0,0,1,0,.06V11s0,0,0,0l0,0,0,0s0,0,0,0v-.16s0,0,0,0l-.18-.1h0l-.06,0-.18.09A.05.05,0,0,0,77.3,10.86Z" style="fill: #fff"/>
      <path d="M77.3,11.31v.13h.52v-.13a0,0,0,0,1,0,0h.06a0,0,0,0,1,0,0v.22h-.6v.09h.21a.05.05,0,0,1,0,.06l0,0h-.23l0,0a0,0,0,0,1,0,0v-.35s0,0,0,0l0,0s0,0,0,0S77.3,11.3,77.3,11.31Z" style="fill: #fff"/>
      <path d="M77.29,11.91h.53a.09.09,0,0,1,.06,0s0,0,0,.06v.27a.07.07,0,0,1,0,.06l-.06,0h-.53l-.06,0a.14.14,0,0,1,0-.06V12a.08.08,0,0,1,0-.06A.09.09,0,0,1,77.29,11.91Zm0,.36h.52V12H77.3Z" style="fill: #fff"/>
    </g>
    <g>
      <path d="M85.72,9.61h-2c-.46,0-.82-.51-.82-1.13s.36-1.12.82-1.12h2c.45,0,.82.5.82,1.12S86.17,9.61,85.72,9.61Z" style="fill: #bcbcbc"/>
      <path d="M85.72,15.61h-2c-.46,0-.82-.5-.82-1.12s.36-1.13.82-1.13h2c.45,0,.82.5.82,1.13S86.17,15.61,85.72,15.61Z" style="fill: #bcbcbc"/>
      <rect height="6" rx="0.58" ry="0.58" style="fill: #e2e2e2" width="2.22" x="83.59" y="8.48"/>
      <rect height="2.81" width="2.22" x="83.59" y="10.02"/>
    </g>
    <g>
      <path d="M84.48,10.86V11a0,0,0,0,1,0,0h-.06l0,0v-.16a.14.14,0,0,1,0-.07l0,0,.2-.1.08,0,.09,0,.19.1s0,0,0,0a.14.14,0,0,1,0,.06v.2l0,0,0,0s0,0,0,0v-.16a.05.05,0,0,0,0,0l-.19-.1h-.05l0,0-.18.09S84.48,10.84,84.48,10.86Z" style="fill: #fff"/>
      <path d="M84.48,11.31v.13H85v-.13a0,0,0,0,1,0,0h.07v.25h-.61v.09h.22a.05.05,0,0,1,0,.06l0,0h-.23l0,0a0,0,0,0,1,0,0v-.35s0,0,0,0l0,0,0,0S84.48,11.3,84.48,11.31Z" style="fill: #fff"/>
      <path d="M84.48,11.91H85a.09.09,0,0,1,.07,0,.08.08,0,0,1,0,.06v.27a.14.14,0,0,1,0,.06l-.07,0h-.52l-.06,0a.07.07,0,0,1,0-.06V12s0-.05,0-.06A.09.09,0,0,1,84.48,11.91Zm0,.36H85V12h-.52Z" style="fill: #fff"/>
    </g>
    <g>
      <path d="M82.83,25.05v2c0,.45-.5.82-1.13.82s-1.12-.37-1.12-.82v-2c0-.46.5-.82,1.12-.82S82.83,24.59,82.83,25.05Z" style="fill: #bcbcbc"/>
      <path d="M88.83,25.05v2c0,.45-.5.82-1.12.82s-1.13-.37-1.13-.82v-2c0-.46.51-.82,1.13-.82S88.83,24.59,88.83,25.05Z" style="fill: #bcbcbc"/>
      <rect height="6" rx="0.58" ry="0.58" style="fill: #e2e2e2" transform="translate(58.65 110.76) rotate(-90)" width="2.22" x="83.6" y="23.05"/>
      <rect height="2.81" transform="translate(58.59 110.7) rotate(-90)" width="2.22" x="83.54" y="24.65"/>
    </g>
    <g>
      <path d="M84.24,26.37h-.4v-.31a.09.09,0,0,1,0-.06.07.07,0,0,1,.06,0h.27v-.22h-.35a.05.05,0,0,1,0-.06l0,0h.32l.06,0a.07.07,0,0,1,0,.06V26a.07.07,0,0,1-.08.08h-.27v.22h.34a0,0,0,0,1,0,0s0,0,0,0Z" style="fill: #fff"/>
      <path d="M84.89,26.37h-.4v-.31a.14.14,0,0,1,0-.06.08.08,0,0,1,.07,0h.26v-.22H84.5a0,0,0,0,1,0-.06l0,0h.31a.09.09,0,0,1,.07,0,.14.14,0,0,1,0,.06V26a.14.14,0,0,1,0,.06.08.08,0,0,1-.07,0h-.26v.22h.34a0,0,0,0,1,0,0s0,0,0,0Z" style="fill: #fff"/>
      <path d="M85.53,26.37h-.4v-.31a.09.09,0,0,1,0-.06.07.07,0,0,1,.06,0h.27v-.22h-.35s0,0,0,0v0a.05.05,0,0,1,0,0h.31a.11.11,0,0,1,.09.09V26a.09.09,0,0,1,0,.06.07.07,0,0,1-.06,0h-.27v.22h.35s0,0,0,0a0,0,0,0,1,0,0A.05.05,0,0,1,85.53,26.37Z" style="fill: #fff"/>
    </g>
    <g>
      <rect height="4.28" rx="0.25" ry="0.25" style="fill: #fff" width="4.28" x="86.17" y="37.29"/>
      <rect height="0.74" width="0.74" x="86.17" y="39.06"/>
      <rect height="0.74" width="0.74" x="89.71" y="39.06"/>
    </g>
    <rect height="5.92" style="fill: none;stroke: #fff;stroke-linecap: round;stroke-linejoin: round;stroke-width: 0.5px" width="5.92" x="85.26" y="36.5"/>
    <path d="M86.8,54.72V55a.21.21,0,0,1-.07.17.23.23,0,0,1,.07.17v.31a.14.14,0,0,1,0,.11.13.13,0,0,1-.11,0h-.58l0,0a.09.09,0,0,1,0-.06.12.12,0,0,1,.08-.08h.57v-.31s0,0,0-.06a.07.07,0,0,0-.06,0h-.32l-.06,0a.1.1,0,0,1,0-.12.11.11,0,0,1,.06,0h.32l.06,0a.09.09,0,0,0,0-.06v-.31h-.58a.07.07,0,0,1-.06,0s0,0,0,0,0,0,0-.06,0,0,.06,0h.58a.15.15,0,0,1,.11,0A.17.17,0,0,1,86.8,54.72Z" style="fill: #7f6d5e"/>
    <rect height="2.99" style="fill: #9c989f" width="2.99" x="90.42" y="53.74"/>
    <rect height="5.8" style="fill: #9c989f" width="0.47" x="91.35" y="52.34"/>
    <rect height="5.8" style="fill: #9c989f" width="0.47" x="92.02" y="52.34"/>
    <rect height="2.99" style="fill: #7f6d5e" width="1.81" x="91.01" y="53.74"/>
    <rect height="2.45" width="1.81" x="91.01" y="53.74"/>
    <path d="M92.33,54.72V55a.24.24,0,0,1-.06.17.27.27,0,0,1,.06.17v.31a.14.14,0,0,1,0,.11.15.15,0,0,1-.12,0H91.6l-.06,0a.14.14,0,0,1,0-.06.08.08,0,0,1,0,0,.09.09,0,0,1,.06,0h.57v-.31a.08.08,0,0,0,0-.06l-.06,0h-.33l-.06,0a.1.1,0,0,1,0-.12l.06,0h.33l.06,0a.14.14,0,0,0,0-.06v-.31h-.58a.09.09,0,0,1-.06,0,.08.08,0,0,1,0,0,.08.08,0,0,1,0-.06.07.07,0,0,1,.06,0h.58a.14.14,0,0,1,.11,0A.13.13,0,0,1,92.33,54.72Z" style="fill: #7f6d5e"/>
    <line style="fill: none;stroke: #fff;stroke-linecap: round;stroke-linejoin: round;stroke-width: 0.5px" x1="52.91" x2="57.59" y1="55.49" y2="55.49"/>
    <line style="fill: none;stroke: #fff;stroke-linecap: round;stroke-linejoin: round;stroke-width: 0.5px" x1="55.25" x2="55.25" y1="54.43" y2="56.54"/>
    <g>
      <rect height="2.44" style="fill: #fff" width="6.88" x="77.64" y="32.46"/>
      <rect height="2.66" style="fill: #ca965a" width="4.5" x="78.82" y="32.35"/>
      <rect height="2.66" style="fill: #e6cfb3" width="3.41" x="79.37" y="32.35"/>
      <circle cx="81.55" cy="33.76" r="0.41" style="fill: #987e6f"/>
    </g>
    <line style="fill: none;stroke: #cf2f27;stroke-linecap: round;stroke-linejoin: round;stroke-width: 0.75px" x1="46.31" x2="46.41" y1="42.19" y2="52.34"/>
    <path d="M46.7,53.12" style="fill: none;stroke: #cf2f27;stroke-linecap: round;stroke-linejoin: round;stroke-width: 0.75px"/>
  </g>
  <g data-name="Layer 6" id="Layer_6">
    <line style="fill: none;stroke: #b7bec6;stroke-linecap: round;stroke-linejoin: round;stroke-width: 0.25px" x1="48.14" x2="68.36" y1="39.8" y2="39.8"/>
    <g>
      <rect height="20.16" rx="0.64" ry="0.64" style="fill: #b7bec6" width="1.81" x="45.42" y="23.35"/>
      <rect height="20.16" rx="0.64" ry="0.64" style="fill: #b7bec6" width="1.81" x="48.99" y="23.35"/>
      <rect height="20.16" rx="0.64" ry="0.64" style="fill: #b7bec6" width="1.81" x="52.55" y="23.35"/>
      <rect height="20.16" rx="0.64" ry="0.64" style="fill: #b7bec6" width="1.81" x="56.11" y="23.35"/>
      <rect height="20.16" rx="0.64" ry="0.64" style="fill: #b7bec6" width="1.81" x="59.67" y="23.35"/>
      <rect height="20.16" rx="0.64" ry="0.64" style="fill: #b7bec6" width="1.81" x="63.24" y="23.35"/>
      <rect height="20.16" rx="0.64" ry="0.64" style="fill: #b7bec6" width="1.81" x="66.8" y="23.35"/>
    </g>
    <rect height="10.78" rx="0.98" ry="0.98" style="fill: #484548" width="24.84" x="44.83" y="27.15"/>
    <circle cx="14.39" cy="32.74" r="14.39" style="fill: #9a9598"/>
    <circle cx="14.39" cy="32.74" r="13.24" style="fill: #1f1f21"/>
    <polygon points="117.57 28 119.13 26.45 117.35 24.67 117.35 20.74 119.14 18.95 123.02 18.95 124.69 20.62 124.69 24.94 123.3 26.34 124.65 27.69 124.65 31.82 123 33.47 124.75 35.23 124.75 39.46 123.09 41.12 124.7 42.72 124.7 46.73 123.08 48.35 124.58 49.85 124.58 53.74 122.98 55.34 118.72 55.34 117.41 54.02 117.41 50.17 119.28 48.3 117.33 46.35 117.33 43.1 119.23 41.2 117.28 39.24 117.28 35.73 119.26 33.75 117.63 32.12 117.57 28" style="fill: none;stroke: #fff;stroke-linecap: round;stroke-linejoin: round;stroke-width: 0.5px"/>
    <circle cx="47.55" cy="34.17" r="1.79" style="fill: #545156"/>
    <g>
      <path d="M54.32,30.21h-.88v.61h.38a.11.11,0,0,1,.12.12.12.12,0,0,1-.12.13h-.38v.62h.89a.11.11,0,0,1,.12.12.1.1,0,0,1,0,.09.13.13,0,0,1-.09,0H53.19V30h1.13a.1.1,0,0,1,.09,0,.12.12,0,0,1,0,.18A.13.13,0,0,1,54.32,30.21Z" style="fill: #7f7369"/>
      <path d="M55.54,30.73v-.06l-.26-.37v1.51a.1.1,0,0,1,0,.09.13.13,0,0,1-.09,0,.18.18,0,0,1-.09,0,.12.12,0,0,1,0-.09V30h.32l.31.45L56,30h.32v1.86a.13.13,0,0,1,0,.09.12.12,0,0,1-.18,0,.13.13,0,0,1,0-.09V30.3l-.25.36v.07a.11.11,0,0,1,0,.09.13.13,0,0,1-.09,0,.12.12,0,0,1-.08,0A.11.11,0,0,1,55.54,30.73Z" style="fill: #7f7369"/>
      <path d="M58,31.93h-.13a.14.14,0,0,1-.12-.12.1.1,0,0,1,0-.09.09.09,0,0,1,.08,0v-.83H57a.12.12,0,0,1-.09,0,.11.11,0,0,1,0-.08v-.66a.11.11,0,0,1,0-.08A.12.12,0,0,1,57,30h1a.12.12,0,0,1,.09,0,.12.12,0,0,1,0,.08v1.74a.12.12,0,0,1,0,.08A.12.12,0,0,1,58,31.93ZM57.9,30.6v-.4h-.76v.4Z" style="fill: #7f7369"/>
      <path d="M58.86,30H59a.14.14,0,0,1,.13.13.12.12,0,0,1-.13.12V31h.89a.12.12,0,0,1,.09,0,.16.16,0,0,1,0,.09v.65a.11.11,0,0,1-.12.12h-1a.12.12,0,0,1-.13-.12V30.08a.14.14,0,0,1,.13-.13ZM59,31.29v.39h.76v-.39Z" style="fill: #7f7369"/>
      <path d="M60.59,31.76l.5-1.71a.13.13,0,0,1,.25,0l.5,1.74v0a.12.12,0,0,1,0,.09.15.15,0,0,1-.09,0,.12.12,0,0,1-.12-.09l-.1-.34h-.58l-.1.36,0,.05-.07,0a.18.18,0,0,1-.1,0,.14.14,0,0,1,0-.09A.09.09,0,0,1,60.59,31.76Zm.63-1.23-.22.72h.43Z" style="fill: #7f7369"/>
      <path d="M63.69,31.32v.11a.49.49,0,0,1-.15.36.45.45,0,0,1-.35.15h-.77V30h.77a.45.45,0,0,1,.35.15.49.49,0,0,1,.15.36v.1a.5.5,0,0,1-.17.38A.52.52,0,0,1,63.69,31.32Zm-.26-.76v-.1a.24.24,0,0,0-.07-.18.25.25,0,0,0-.18-.08h-.51v.61h.51a.24.24,0,0,0,.25-.25Zm0,.87v-.1a.24.24,0,0,0-.07-.18.25.25,0,0,0-.18-.08h-.51v.61h.51a.24.24,0,0,0,.25-.25Z" style="fill: #7f7369"/>
    </g>
    <g>
      <path d="M51.62,34.42V32.56a.11.11,0,0,1,0-.09.12.12,0,0,1,.08,0,.13.13,0,0,1,.09,0,.11.11,0,0,1,0,.09v1.61h.89a.16.16,0,0,1,.09,0,.18.18,0,0,1,0,.09.13.13,0,0,1,0,.09.12.12,0,0,1-.09,0Z" style="fill: #7f7369"/>
      <path d="M54,33.21v-.06l-.26-.37v1.51a.1.1,0,0,1,0,.09.09.09,0,0,1-.08,0,.14.14,0,0,1-.13-.13V32.43h.32l.31.45.32-.45h.32v1.86a.14.14,0,0,1-.13.13.12.12,0,0,1-.12-.13V32.78l-.26.36v.07a.1.1,0,0,1,0,.09.09.09,0,0,1-.08,0,.14.14,0,0,1-.13-.13Z" style="fill: #7f7369"/>
      <path d="M56.58,32.56V33l-.51,1.3a.12.12,0,0,1-.24,0L55.32,33v-.46a.16.16,0,0,1,0-.09.18.18,0,0,1,.09,0,.13.13,0,0,1,.09,0,.12.12,0,0,1,0,.09V33L56,34l.38-1v-.41a.18.18,0,0,1,0-.09.13.13,0,0,1,.09,0,.18.18,0,0,1,.09,0A.16.16,0,0,1,56.58,32.56Z" style="fill: #7f7369"/>
      <path d="M58.43,32.68v.47a.41.41,0,0,1-.1.27.42.42,0,0,1,.1.25v.49a.25.25,0,0,1-.08.18.23.23,0,0,1-.17.08h-.89a.13.13,0,0,1-.09,0,.11.11,0,0,1,0-.09.12.12,0,0,1,0-.09.13.13,0,0,1,.09,0h.88v-.49a.16.16,0,0,0,0-.09l-.09,0h-.51a.18.18,0,0,1-.09,0,.12.12,0,0,1,0-.09.16.16,0,0,1,0-.09l.09,0h.51a.14.14,0,0,0,.13-.13v-.49h-.9a.12.12,0,0,1-.09,0,.18.18,0,0,1,0-.09.14.14,0,0,1,.13-.13h.9a.23.23,0,0,1,.17.08A.25.25,0,0,1,58.43,32.68Z" style="fill: #7f7369"/>
      <path d="M60.15,34.42H59v-.87a.24.24,0,0,1,.25-.25H60v-.62h-.9a.11.11,0,0,1-.12-.12.12.12,0,0,1,0-.09.18.18,0,0,1,.09,0H60a.25.25,0,0,1,.18.08.23.23,0,0,1,.07.17v.62a.24.24,0,0,1-.07.18.29.29,0,0,1-.18.07h-.76v.61h.89a.18.18,0,0,1,.09,0,.16.16,0,0,1,0,.09.14.14,0,0,1,0,.09A.18.18,0,0,1,60.15,34.42Z" style="fill: #7f7369"/>
      <path d="M61.68,34.29v-.52h-.76V32.56a.13.13,0,0,1,0-.09.12.12,0,0,1,.09,0,.1.1,0,0,1,.09,0,.13.13,0,0,1,0,.09v.95h.5v-.73a.1.1,0,0,1,0-.09.09.09,0,0,1,.08,0,.14.14,0,0,1,.13.13v.73a.18.18,0,0,1,.09,0,.13.13,0,0,1,0,.09.18.18,0,0,1,0,.09.16.16,0,0,1-.09,0v.53a.11.11,0,0,1,0,.09.13.13,0,0,1-.09,0,.12.12,0,0,1-.08,0A.11.11,0,0,1,61.68,34.29Z" style="fill: #7f7369"/>
      <path d="M63.21,33.21v-.06L63,32.78v1.51a.1.1,0,0,1,0,.09.09.09,0,0,1-.08,0,.14.14,0,0,1-.13-.13V32.43H63l.3.45.32-.45H64v1.86a.14.14,0,0,1-.13.13.12.12,0,0,1-.12-.13V32.78l-.26.36v.07a.12.12,0,0,1-.12.13.14.14,0,0,1-.13-.13Z" style="fill: #7f7369"/>
    </g>
    <path d="M51.6,30c.64-.66.85-.46.64.59,0,0-.19.94-.5.81s-.72-1-1-.81-.88,1.49-.41,1.81.9-.41.9-.41" style="fill: none;stroke: #7f7369;stroke-linecap: round;stroke-linejoin: round;stroke-width: 0.25px"/>
    <polyline points="44.55 40.05 43.83 39.34 43.83 28.39 44.84 27.37" style="fill: none;stroke: #fff;stroke-linecap: round;stroke-linejoin: round;stroke-width: 0.5px"/>
    <polyline points="69.67 27.37 70.38 28.09 70.38 39.04 69.37 40.05" style="fill: none;stroke: #fff;stroke-linecap: round;stroke-linejoin: round;stroke-width: 0.5px"/>
    <line style="fill: none;stroke: #fff;stroke-linecap: round;stroke-linejoin: round;stroke-width: 0.5px" x1="43.83" x2="45.42" y1="30.14" y2="30.14"/>
    <line style="fill: none;stroke: #fff;stroke-linecap: round;stroke-linejoin: round;stroke-width: 0.5px" x1="43.83" x2="45.42" y1="37.23" y2="37.23"/>
    <circle cx="18.83" cy="7.92" r="1.06" style="fill: #fbfdf8"/>
    <circle cx="55.43" cy="51.8" r="2.16" style="fill: none;stroke: #cf2f27;stroke-linecap: round;stroke-linejoin: round;stroke-width: 0.75px"/>
    <circle cx="55.43" cy="59.17" r="2.16" style="fill: none;stroke: #cf2f27;stroke-linecap: round;stroke-linejoin: round;stroke-width: 0.75px"/>
  </g>
</svg>