<?xml version="1.0" ?><svg height="61.92mm" viewBox="0 0 54.38 175.51" width="19.18mm" xmlns="http://www.w3.org/2000/svg">
  <title>Water Level Sensor Module</title>
  <g data-name="black ellipse" id="black_ellipse">
    <path d="M46.63,53.89V36.7l6.88-6.87V17H.63V29.83L8.81,36.7V53.89L0,62.45V175.51H54.38V62.45ZM7.67,27A4.33,4.33,0,1,1,12,22.68,4.33,4.33,0,0,1,7.67,27Zm8.62,26.15a.5.5,0,1,1,.5-.5A.5.5,0,0,1,16.29,53.16Zm5.84-20.52a.5.5,0,1,1,.5-.5A.5.5,0,0,1,22.14,32.64Zm5.15,20.29a.5.5,0,1,1,.5-.5A.5.5,0,0,1,27.28,52.93ZM30,39.44a.5.5,0,1,1,.5-.5A.5.5,0,0,1,30,39.44ZM43.92,22.68A4.33,4.33,0,1,1,48.25,27,4.33,4.33,0,0,1,43.92,22.68Z" style="fill: #8a231e"/>
  </g>
  <g data-name="lines light red" id="lines_light_red">
    <polyline points="27.82 22.2 27.82 27.97 24.69 31.7 24.69 41.2" style="fill: none;stroke: #cf2f27;stroke-linecap: round;stroke-linejoin: round;stroke-width: 0.75px"/>
    <line style="fill: none;stroke: #cf2f27;stroke-linecap: round;stroke-linejoin: round;stroke-width: 0.75px" x1="34.63" x2="34.63" y1="22.2" y2="40.92"/>
    <polyline points="15.44 39.51 18.28 37.01 24.69 37.01" style="fill: none;stroke: #cf2f27;stroke-linecap: round;stroke-linejoin: round;stroke-width: 0.75px"/>
    <line style="fill: none;stroke: #cf2f27;stroke-linecap: round;stroke-linejoin: round;stroke-width: 0.75px" x1="24.69" x2="23.33" y1="32.14" y2="32.14"/>
    <circle cx="22.14" cy="32.14" r="1.2" style="fill: none;stroke: #cf2f27;stroke-linecap: round;stroke-linejoin: round;stroke-width: 0.75px"/>
    <circle cx="16.29" cy="52.66" r="1.2" style="fill: none;stroke: #cf2f27;stroke-linecap: round;stroke-linejoin: round;stroke-width: 0.75px"/>
    <circle cx="27.28" cy="52.43" r="1.2" style="fill: none;stroke: #cf2f27;stroke-linecap: round;stroke-linejoin: round;stroke-width: 0.75px"/>
    <circle cx="30.04" cy="38.94" r="1.2" style="fill: none;stroke: #cf2f27;stroke-linecap: round;stroke-linejoin: round;stroke-width: 0.75px"/>
    <line style="fill: none;stroke: #cf2f27;stroke-linecap: round;stroke-linejoin: round;stroke-width: 0.75px" x1="22.14" x2="22.14" y1="47.97" y2="60.14"/>
    <polyline points="3.25 64.89 3.25 63.2 6.22 60.14 44.78 60.14 46.46 61.82 46.46 65.3" style="fill: none;stroke: #cf2f27;stroke-linecap: round;stroke-linejoin: round;stroke-width: 0.75px"/>
    <line style="fill: none;stroke: #cf2f27;stroke-linecap: round;stroke-linejoin: round;stroke-width: 0.75px" x1="35.89" x2="35.89" y1="60.14" y2="65.49"/>
    <line style="fill: none;stroke: #cf2f27;stroke-linecap: round;stroke-linejoin: round;stroke-width: 0.75px" x1="25.19" x2="25.19" y1="60.14" y2="65.49"/>
    <line style="fill: none;stroke: #cf2f27;stroke-linecap: round;stroke-linejoin: round;stroke-width: 0.75px" x1="14.13" x2="14.13" y1="60.14" y2="65.49"/>
    <path d="M41.44,50c-.06,0-2.54,2.35-2.54,2.35l-10.42.13" style="fill: none;stroke: #cf2f27;stroke-linecap: round;stroke-linejoin: round;stroke-width: 0.75px"/>
    <line style="fill: none;stroke: #cf2f27;stroke-linecap: round;stroke-linejoin: round;stroke-width: 0.75px" x1="28.04" x2="31.44" y1="47.55" y2="47.55"/>
    <line style="fill: none;stroke: #cf2f27;stroke-linecap: round;stroke-linejoin: round;stroke-width: 0.75px" x1="30.21" x2="30.21" y1="40.14" y2="47.55"/>
  </g>
  <g data-name="lines apound" id="lines_apound">
    <g>
      <polyline points="38.31 32.51 38.31 28.26 43.92 28.26 43.92 32.51" style="fill: none;stroke: #fff;stroke-linecap: round;stroke-linejoin: round;stroke-width: 0.75px"/>
      <polyline points="43.92 34.33 43.92 38.58 38.31 38.58 38.31 34.33" style="fill: none;stroke: #fff;stroke-linecap: round;stroke-linejoin: round;stroke-width: 0.75px"/>
    </g>
    <g>
      <polyline points="38.31 43.76 38.31 39.51 43.92 39.51 43.92 43.76" style="fill: none;stroke: #fff;stroke-linecap: round;stroke-linejoin: round;stroke-width: 0.75px"/>
      <polyline points="43.92 45.58 43.92 49.83 38.31 49.83 38.31 45.58" style="fill: none;stroke: #fff;stroke-linecap: round;stroke-linejoin: round;stroke-width: 0.75px"/>
    </g>
    <g>
      <polyline points="31.54 43.76 31.54 39.51 37.15 39.51 37.15 43.76" style="fill: none;stroke: #fff;stroke-linecap: round;stroke-linejoin: round;stroke-width: 0.75px"/>
      <polyline points="37.15 45.58 37.15 49.83 31.54 49.83 31.54 45.58" style="fill: none;stroke: #fff;stroke-linecap: round;stroke-linejoin: round;stroke-width: 0.75px"/>
    </g>
    <g>
      <polyline points="13.26 43.76 13.26 39.51 18.86 39.51 18.86 43.76" style="fill: none;stroke: #fff;stroke-linecap: round;stroke-linejoin: round;stroke-width: 0.75px"/>
      <polyline points="18.86 45.58 18.86 49.83 13.26 49.83 13.26 45.58" style="fill: none;stroke: #fff;stroke-linecap: round;stroke-linejoin: round;stroke-width: 0.75px"/>
    </g>
    <polyline points="20.94 41.99 20.94 39.85 23.33 39.85" style="fill: none;stroke: #fff;stroke-linecap: round;stroke-linejoin: round;stroke-width: 0.75px"/>
    <polyline points="26.21 39.72 28.35 39.72 28.35 42.12" style="fill: none;stroke: #fff;stroke-linecap: round;stroke-linejoin: round;stroke-width: 0.75px"/>
    <g>
      <g>
        <path d="M17.25,42.9H14.86a1.19,1.19,0,0,1,0-2.34h2.39a1.19,1.19,0,0,1,0,2.34Z" style="fill: #bababa"/>
        <path d="M17.25,49.14H14.86a1.19,1.19,0,0,1,0-2.34h2.39a1.19,1.19,0,0,1,0,2.34Z" style="fill: #bababa"/>
        <rect height="6.24" rx="0.58" ry="0.58" style="fill: #e0e0e0" width="2.63" x="14.66" y="41.73"/>
      </g>
      <rect height="4.89" style="fill: #272525" width="2.63" x="14.66" y="42.38"/>
    </g>
    <g>
      <g>
        <path d="M35.54,42.71H33.15a1.23,1.23,0,0,1,0-2.41h2.39a1.23,1.23,0,0,1,0,2.41Z" style="fill: #bababa"/>
        <path d="M35.54,49.14H33.15a1.23,1.23,0,0,1,0-2.41h2.39a1.23,1.23,0,0,1,0,2.41Z" style="fill: #bababa"/>
        <rect height="6.42" rx="0.58" ry="0.58" style="fill: #e0e0e0" width="2.63" x="32.95" y="41.51"/>
      </g>
      <rect height="5.04" style="fill: #272525" width="2.63" x="32.95" y="42.17"/>
    </g>
    <g>
      <g>
        <path d="M42.5,42.81H40.11a1.21,1.21,0,0,1,0-2.37H42.5a1.21,1.21,0,0,1,0,2.37Z" style="fill: #bababa"/>
        <path d="M42.5,49.14H40.11a1.21,1.21,0,0,1,0-2.37H42.5a1.21,1.21,0,0,1,0,2.37Z" style="fill: #bababa"/>
        <rect height="6.33" rx="0.58" ry="0.58" style="fill: #e0e0e0" width="2.63" x="39.91" y="41.62"/>
      </g>
      <rect height="4.96" style="fill: #272525" width="2.63" x="39.91" y="42.28"/>
    </g>
    <g>
      <rect height="8.8" style="fill: #c7c4b9" width="3.89" x="39.24" y="29.2"/>
      <rect height="6.23" style="fill: #f6f5e2" width="4.1" x="39.14" y="30.48"/>
    </g>
    <g>
      <path d="M28.36,46.7h-.05v-.25a.08.08,0,0,0-.09-.08h-1a.08.08,0,0,0-.09.08v.25h-.59a.27.27,0,0,0-.27.27v1.85a.27.27,0,0,0,.27.27h1.8a.27.27,0,0,0,.27-.27V47A.27.27,0,0,0,28.36,46.7Z" style="fill: #aeaba8"/>
      <path d="M23.46,46.73H23.4v-.25a.08.08,0,0,0-.09-.08h-1a.08.08,0,0,0-.08.08v.25h-.59a.27.27,0,0,0-.27.27v1.85a.27.27,0,0,0,.27.27h1.8a.27.27,0,0,0,.27-.27V47A.27.27,0,0,0,23.46,46.73Z" style="fill: #aeaba8"/>
      <path d="M24,42.91h.06v.25a.09.09,0,0,0,.09.08h1.08a.09.09,0,0,0,.09-.08v-.25H26a.28.28,0,0,0,.3-.27V40.79a.28.28,0,0,0-.3-.27H24a.28.28,0,0,0-.3.27v1.85A.28.28,0,0,0,24,42.91Z" style="fill: #aeaba8"/>
      <rect height="3.89" rx="0.91" ry="0.91" style="fill: #3c3c3e" width="7.92" x="21.05" y="42.66"/>
    </g>
    <polyline points="17.29 16.76 17.29 23.7 38.31 23.7 38.31 16.76 36.51 16.76" style="fill: none;stroke: #fff;stroke-linecap: round;stroke-linejoin: round;stroke-width: 0.75px"/>
  </g>
  <g id="text">
    <path d="M22,27.08a.59.59,0,0,1,.16.38.51.51,0,0,1-.57.51h-1a.67.67,0,0,1-.46-.14.57.57,0,0,1-.21-.42.24.24,0,0,1,.24-.27.22.22,0,0,1,.21.23c0,.14.07.15.2.15h1s.15,0,.15-.05-.06-.1-.08-.13l-1.55-2a.54.54,0,0,1-.15-.37.5.5,0,0,1,.24-.43.61.61,0,0,1,.38-.08h1a.64.64,0,0,1,.45.15.61.61,0,0,1,.21.43.23.23,0,0,1-.23.26.2.2,0,0,1-.22-.21c0-.15-.08-.18-.22-.18h-1s-.15,0-.15.06,0,.09.07.12Z" style="fill: #fff"/>
    <g>
      <path d="M34.18,30.13a.14.14,0,1,1,0-.27h2v.91a.4.4,0,0,1-.11.31.41.41,0,0,1-.36.13h-.37A.45.45,0,0,1,35,31.1a.42.42,0,0,1-.13-.37v-.6Zm.94,0v.61c0,.16,0,.2.2.2h.38c.16,0,.2,0,.2-.2v-.61Z" style="fill: #fff"/>
      <path d="M35,31.86a.35.35,0,0,1,.34.17.47.47,0,0,1,.15.37v.21a.47.47,0,0,1-.15.37.35.35,0,0,1-.34.17h-.49a.38.38,0,0,1-.35-.18.44.44,0,0,1-.14-.36V32.4a.44.44,0,0,1,.14-.36.38.38,0,0,1,.35-.18Zm-.49.26c-.05,0-.09,0-.16.1a.24.24,0,0,0-.07.18v.21a.24.24,0,0,0,.07.18c.07.08.1.1.16.1H35c.05,0,.09,0,.16-.1a.24.24,0,0,0,.07-.18V32.4a.24.24,0,0,0-.07-.18c-.07-.08-.1-.1-.16-.1Z" style="fill: #fff"/>
      <path d="M34.65,34.6l-.24.14.24.08.68,0c.09,0,.19,0,.19.13s-.1.13-.19.13l-.73,0L34.21,35c-.08,0-.17,0-.17-.13v-.1s0-.08.08-.11l.21-.14-.21-.14s-.08-.06-.08-.11v-.1c0-.09.09-.11.17-.13l.39-.13.73,0c.09,0,.19,0,.19.13s-.1.13-.19.13l-.68,0-.24.08.24.14h.24c.09,0,.18,0,.18.13s-.09.13-.18.13Z" style="fill: #fff"/>
      <path d="M34,36.28a.28.28,0,0,1,.07-.23l.1-.11a.33.33,0,0,1,.29-.13H35a.35.35,0,0,1,.31.13l.08.09a.35.35,0,0,1,.11.29v.24a.37.37,0,0,1-.1.29l-.08.11a.37.37,0,0,1-.34.14h-.21c-.15,0-.19,0-.19-.18v-.84h-.09a.12.12,0,0,0-.08,0l-.07.07a.22.22,0,0,0,0,.17v.56c0,.09,0,.18-.13.18S34,37,34,36.9Zm.81-.22v.76H35s.09,0,.12,0l.09-.1a.18.18,0,0,0,0-.13v-.22a.21.21,0,0,0,0-.13l-.07-.09a.12.12,0,0,0-.12-.05Z" style="fill: #fff"/>
      <path d="M35.33,37.76c.1,0,.19,0,.19.13s-.09.13-.17.13h-.11l.17.21a.4.4,0,0,1,.11.23v.21a.35.35,0,0,1-.1.26.38.38,0,0,1-.3.12c-.09,0-.18,0-.18-.13s.08-.13.16-.13a.17.17,0,0,0,.11,0s0-.1,0-.16v-.08a.2.2,0,0,0-.06-.13l-.3-.37h-.66c-.09,0-.18,0-.18-.13s.09-.13.18-.13Z" style="fill: #fff"/>
    </g>
    <g>
      <path d="M14.18,61.36c-.14,0-.23,0-.26-.22h0c0,.18-.11.22-.26.22h-.32c-.15,0-.19,0-.26-.18l-.15-.31a.41.41,0,0,1-.06-.26v-3c0-.16.06-.25.21-.25s.21.09.21.25v3l.11.24h.18l.11-.24V59c0-.16.06-.3.21-.3s.21.14.21.3V60.6l.11.24h.18l.11-.24v-3c0-.16.06-.25.21-.25s.21.09.21.25v3a.41.41,0,0,1-.06.26l-.15.31c-.07.15-.11.18-.26.18Z" style="fill: #fff"/>
      <path d="M16.65,59.1c-.12,0-.28,0-.28-.24s.14-.24.28-.24h.56a.58.58,0,0,1,.52.22.79.79,0,0,1,.18.58l0,1.66c0,.14-.05.29-.19.29a.23.23,0,0,1-.21-.24l-.28.17a.32.32,0,0,1-.25.07h-.39a.56.56,0,0,1-.46-.17.75.75,0,0,1-.21-.6v-.21a.7.7,0,0,1,.2-.55.6.6,0,0,1,.47-.18h.87v-.11c0-.37-.07-.43-.36-.43Zm0,1c-.11,0-.27,0-.27.21v.33c0,.16.17.2.26.2h.45l.45-.28v-.11c0-.27-.06-.35-.29-.35Z" style="fill: #fff"/>
      <path d="M19.83,60.44c0,.27,0,.43.27.43h.21c.16,0,.24,0,.28-.21a.22.22,0,0,1,.2-.2.23.23,0,0,1,.21.24.82.82,0,0,1-.14.41.6.6,0,0,1-.56.25H20.1a.61.61,0,0,1-.52-.24,1,1,0,0,1-.15-.68V59.1h-.13c-.12,0-.28,0-.28-.24s.14-.24.28-.24h.13v-.5c0-.17,0-.34.2-.34s.2.17.2.34v.5h.68c.14,0,.28,0,.28.24s-.16.24-.28.24h-.68Z" style="fill: #fff"/>
      <path d="M22.8,61.36a.39.39,0,0,1-.36-.13L22.27,61a.66.66,0,0,1-.21-.55v-.94a.71.71,0,0,1,.2-.59l.14-.15a.5.5,0,0,1,.45-.2h.37a.52.52,0,0,1,.45.18l.17.16a.77.77,0,0,1,.21.64V60c0,.28,0,.36-.28.36h-1.3v.16a.26.26,0,0,0,.06.14l.1.13c.05.07.14.09.27.09h.87c.14,0,.28,0,.28.24s-.16.24-.28.24Zm-.34-1.51h1.17v-.3a.32.32,0,0,0-.05-.23l-.16-.16a.25.25,0,0,0-.19-.06H22.9a.28.28,0,0,0-.21.06l-.14.12c-.05,0-.08.08-.08.22Z" style="fill: #fff"/>
      <path d="M25.1,59c0-.18,0-.36.2-.36s.2.16.2.33v.2l.32-.32a.58.58,0,0,1,.36-.21h.33a.49.49,0,0,1,.4.19.8.8,0,0,1,.18.56c0,.17,0,.34-.2.34s-.21-.14-.21-.3a.37.37,0,0,0,0-.21c-.05-.09-.15-.09-.25-.09h-.12c-.08,0-.13,0-.2.12l-.57.57V61c0,.17,0,.34-.2.34s-.2-.17-.2-.34Z" style="fill: #fff"/>
    </g>
    <path d="M27.73,25.06a.23.23,0,1,1,.45,0v.67h.66a.23.23,0,0,1,0,.45h-.66v.66a.23.23,0,0,1-.45,0v-.66h-.66a.23.23,0,1,1,0-.45h.66Z" style="fill: #fff"/>
    <path d="M36.91,36.27a.18.18,0,0,1,.36,0v.54h.53a.18.18,0,0,1,0,.36h-.53v.53a.18.18,0,1,1-.36,0v-.53h-.53a.18.18,0,0,1,0-.36h.53Z" style="fill: #fff"/>
    <path d="M35.11,25.69c.18,0,.27.07.27.28s-.09.28-.27.28H34c-.19,0-.27-.07-.27-.28s.09-.28.27-.28Z" style="fill: #fff"/>
    <g>
      <path d="M32,60.36a.74.74,0,0,1,.15.42.52.52,0,0,1-.54.58h-.93a.56.56,0,0,1-.43-.16.7.7,0,0,1-.2-.48c0-.16.08-.31.22-.31s.2.12.2.26.07.17.19.17h.92s.14,0,.14-.06-.06-.12-.08-.15l-1.46-2.25A.69.69,0,0,1,30,58a.6.6,0,0,1,.22-.49.49.49,0,0,1,.35-.09h.9a.54.54,0,0,1,.42.17.76.76,0,0,1,.2.49c0,.16-.07.3-.22.3s-.2-.1-.2-.24-.07-.2-.2-.2h-.9s-.14,0-.14.07a.36.36,0,0,0,.06.14Z" style="fill: #fff"/>
      <path d="M33.88,61.36a.39.39,0,0,1-.36-.13L33.34,61a.67.67,0,0,1-.21-.55v-.95a.71.71,0,0,1,.2-.59l.14-.15a.5.5,0,0,1,.45-.2h.37a.52.52,0,0,1,.45.18l.17.16a.77.77,0,0,1,.21.64V60c0,.28,0,.36-.28.36H33.54v.16a.26.26,0,0,0,.06.14l.1.13c.06.07.14.09.27.09h.87c.14,0,.28,0,.28.25s-.16.25-.28.25Zm-.34-1.51h1.18v-.3a.31.31,0,0,0-.05-.23l-.16-.16a.25.25,0,0,0-.2-.06H34a.28.28,0,0,0-.21.06l-.14.12c-.05,0-.08.08-.08.22Z" style="fill: #fff"/>
      <path d="M36.6,59.6V61c0,.17,0,.34-.2.34s-.2-.17-.2-.34V59c0-.18,0-.36.2-.36s.2.18.2.36V59h0l.33-.26a.61.61,0,0,1,.35-.16h.3a.47.47,0,0,1,.38.18.88.88,0,0,1,.18.66l0,1.54c0,.17,0,.37-.2.37s-.2-.17-.2-.33l0-1.51c0-.3,0-.42-.28-.42h-.14a.22.22,0,0,0-.13,0Z" style="fill: #fff"/>
      <path d="M39.94,59.1c-.08,0-.23,0-.23.14s.05.11.11.14l1,.56a.7.7,0,0,1,.4.7.64.64,0,0,1-.67.73h-.63a.64.64,0,0,1-.51-.15c-.08-.07-.19-.16-.19-.29a.23.23,0,0,1,.21-.25.19.19,0,0,1,.16.09.38.38,0,0,0,.33.11h.55c.14,0,.34,0,.34-.27,0-.12-.12-.19-.21-.25l-1-.53a.6.6,0,0,1-.36-.6.57.57,0,0,1,.56-.62h.7a.53.53,0,0,1,.47.17c.08.08.16.14.16.28a.23.23,0,0,1-.21.25.21.21,0,0,1-.17-.1.27.27,0,0,0-.25-.1Z" style="fill: #fff"/>
      <path d="M42.3,59.52a.71.71,0,0,1,.26-.64.67.67,0,0,1,.58-.28h.32a.67.67,0,0,1,.58.28.71.71,0,0,1,.26.64v.93a.77.77,0,0,1-.28.66.62.62,0,0,1-.56.26h-.32a.62.62,0,0,1-.56-.26.76.76,0,0,1-.28-.66Zm.41.93a.38.38,0,0,0,.15.29.34.34,0,0,0,.28.13h.32a.34.34,0,0,0,.28-.13.38.38,0,0,0,.15-.29v-.93a.38.38,0,0,0-.15-.29.34.34,0,0,0-.28-.13h-.32a.34.34,0,0,0-.28.13.38.38,0,0,0-.15.29Z" style="fill: #fff"/>
      <path d="M45.35,59c0-.18,0-.36.2-.36s.2.16.2.33v.2l.32-.32a.57.57,0,0,1,.36-.21h.33a.5.5,0,0,1,.4.19.8.8,0,0,1,.18.56c0,.17,0,.34-.2.34s-.21-.14-.21-.3a.37.37,0,0,0,0-.21c-.05-.09-.15-.09-.25-.09h-.12c-.08,0-.13,0-.2.12l-.57.57V61c0,.17,0,.34-.2.34s-.2-.17-.2-.34Z" style="fill: #fff"/>
    </g>
    <g>
      <g>
        <rect height="109" style="fill: #e8e5df" width="1.75" x="2.38" y="63.95"/>
        <rect height="3.04" rx="0.87" ry="0.87" style="fill: #e8e5df" width="1.75" x="2.38" y="171.08"/>
      </g>
      <g>
        <rect height="109" style="fill: #e8e5df" width="1.75" x="13.26" y="63.95"/>
        <rect height="3.04" rx="0.87" ry="0.87" style="fill: #e8e5df" width="1.75" x="13.26" y="171.08"/>
      </g>
      <g>
        <rect height="109" style="fill: #e8e5df" width="1.75" x="24.14" y="63.95"/>
        <rect height="3.04" rx="0.87" ry="0.87" style="fill: #e8e5df" width="1.75" x="24.14" y="171.08"/>
      </g>
      <g>
        <rect height="109" style="fill: #e8e5df" width="1.75" x="35.02" y="63.95"/>
        <rect height="3.04" rx="0.87" ry="0.87" style="fill: #e8e5df" width="1.75" x="35.02" y="171.08"/>
      </g>
      <g>
        <rect height="109" style="fill: #e8e5df" width="1.75" x="45.9" y="63.95"/>
        <rect height="3.04" rx="0.87" ry="0.87" style="fill: #e8e5df" width="1.75" x="45.9" y="171.08"/>
      </g>
      <g>
        <g>
          <rect height="107.6" style="fill: #e8e5df" width="1.75" x="7.82" y="65.49"/>
          <rect height="3" rx="0.87" ry="0.87" style="fill: #e8e5df" width="1.75" x="7.82" y="171.24"/>
        </g>
        <circle cx="8.69" cy="65.12" r="1.29" style="fill: #e8e5df"/>
      </g>
      <g>
        <g>
          <rect height="107.6" style="fill: #e8e5df" width="1.75" x="18.7" y="65.49"/>
          <rect height="3" rx="0.87" ry="0.87" style="fill: #e8e5df" width="1.75" x="18.7" y="171.24"/>
        </g>
        <circle cx="19.57" cy="65.12" r="1.29" style="fill: #e8e5df"/>
      </g>
      <g>
        <g>
          <rect height="107.6" style="fill: #e8e5df" width="1.75" x="29.58" y="65.49"/>
          <rect height="3" rx="0.87" ry="0.87" style="fill: #e8e5df" width="1.75" x="29.58" y="171.24"/>
        </g>
        <circle cx="30.45" cy="65.12" r="1.29" style="fill: #e8e5df"/>
      </g>
      <g>
        <g>
          <rect height="107.6" style="fill: #e8e5df" width="1.75" x="40.46" y="65.49"/>
          <rect height="3" rx="0.87" ry="0.87" style="fill: #e8e5df" width="1.75" x="40.46" y="171.24"/>
        </g>
        <circle cx="41.33" cy="65.12" r="1.29" style="fill: #e8e5df"/>
      </g>
      <g>
        <g>
          <rect height="107.6" style="fill: #e8e5df" width="1.75" x="51.34" y="65.49"/>
          <rect height="3" rx="0.87" ry="0.87" style="fill: #e8e5df" width="1.75" x="51.34" y="171.24"/>
        </g>
        <circle cx="52.21" cy="65.12" r="1.29" style="fill: #e8e5df"/>
      </g>
    </g>
    <g>
      <path d="M16.33,45.93H16s-.07,0-.07-.06,0-.06.07-.06h.36c.05,0,.07,0,.07.06v.47s0,.06-.07.06-.07,0-.07-.06v-.18H15.5v.18s0,.06-.07.06-.07,0-.07-.06V46h1Z" style="fill: #fff"/>
      <path d="M15.36,45.07A.13.13,0,0,1,15.5,45h.83a.13.13,0,0,1,.14.12v.35a.13.13,0,0,1-.14.12H15.5a.13.13,0,0,1-.14-.12Zm1,0H15.5v.35h.83Z" style="fill: #fff"/>
      <path d="M16.33,44.22H16s-.07,0-.07-.06,0-.06.07-.06h.36c.05,0,.07,0,.07.06v.47s0,.06-.07.06-.07,0-.07-.06v-.18H15.5v.18s0,.06-.07.06-.07,0-.07-.06v-.29h1Z" style="fill: #fff"/>
    </g>
    <g>
      <path d="M33.84,44.58h.29s.07,0,.07.06,0,.06-.07.06h-.36c-.05,0-.07,0-.07-.06v-.47s0-.06.07-.06.07,0,.07.06v.18h.83v-.18s0-.06.07-.06.07,0,.07.06v.29h-1Z" style="fill: #fff"/>
      <path d="M34.82,45.43a.13.13,0,0,1-.14.12h-.83a.13.13,0,0,1-.14-.12v-.35a.13.13,0,0,1,.14-.12h.83a.13.13,0,0,1,.14.12Zm-1,0h.83v-.35h-.83Z" style="fill: #fff"/>
      <path d="M33.84,46.28h.29s.07,0,.07.06,0,.06-.07.06h-.36c-.05,0-.07,0-.07-.06v-.47s0-.06.07-.06.07,0,.07.06V46h.83v-.18s0-.06.07-.06.07,0,.07.06v.29h-1Z" style="fill: #fff"/>
    </g>
    <g>
      <path d="M40.8,44.58h.29s.07,0,.07.06,0,.06-.07.06h-.36c-.05,0-.07,0-.07-.06v-.47s0-.06.07-.06.07,0,.07.06v.18h.83v-.18s0-.06.07-.06.07,0,.07.06v.29h-1Z" style="fill: #fff"/>
      <path d="M41.77,45.43a.13.13,0,0,1-.14.12H40.8a.13.13,0,0,1-.14-.12v-.35A.13.13,0,0,1,40.8,45h.83a.13.13,0,0,1,.14.12Zm-1,0h.83v-.35H40.8Z" style="fill: #fff"/>
      <path d="M40.8,45.93v.41s0,.06-.07.06-.07,0-.07-.06v-.53h.47c.11,0,.16,0,.16.13v.33h.34v-.41s0-.06.07-.06.07,0,.07.06v.4a.11.11,0,0,1,0,.1.17.17,0,0,1-.13,0h-.29a.17.17,0,0,1-.13,0,.11.11,0,0,1,0-.1v-.34Z" style="fill: #fff"/>
    </g>
  </g>
  <g data-name="Layer 6" id="Layer_6">
    <polygon points="25.66 23.24 24.23 21.71 24.23 17.47 25.66 16.04 29.89 16.04 31.43 17.47 31.43 21.71 29.89 23.24 25.66 23.24" style="fill: #353535"/>
    <polygon points="26.57 0 26.57 0 27.7 1.14 28.84 0 28.84 0 26.57 0" style="fill: #e7e7e8"/>
    <polygon points="26.57 2.26 26.57 2.26 27.71 1.13 28.84 2.26 28.84 2.26 26.57 2.26" style="fill: #aca9ad"/>
    <polygon points="28.84 0 28.84 0 27.7 1.13 28.84 2.26 28.84 2.26 28.84 0" style="fill: #d0cfd1"/>
    <polygon points="26.57 0 26.57 0 27.71 1.14 26.59 2.27 26.57 2.27 26.57 0" style="fill: #949295"/>
    <rect height="17.37" style="fill: #aca9ad" width="2.27" x="26.58" y="2.27"/>
    <polygon points="18.45 23.24 17.03 21.71 17.03 17.47 18.45 16.04 22.68 16.04 24.23 17.47 24.23 21.71 22.68 23.24 18.45 23.24" style="fill: #353535"/>
    <polygon points="19.38 0 19.38 0 20.5 1.14 21.64 0 21.64 0 19.38 0" style="fill: #e7e7e8"/>
    <polygon points="19.38 2.26 19.38 2.26 20.52 1.13 21.64 2.26 21.64 2.26 19.38 2.26" style="fill: #aca9ad"/>
    <polygon points="21.64 0 21.64 0 20.5 1.13 21.64 2.26 21.64 2.26 21.64 0" style="fill: #d0cfd1"/>
    <polygon points="19.38 0 19.38 0 20.52 1.14 19.39 2.27 19.38 2.27 19.38 0" style="fill: #949295"/>
    <rect height="17.37" style="fill: #aca9ad" width="2.27" x="19.38" y="2.27"/>
    <polygon points="32.85 23.24 31.43 21.71 31.43 17.47 32.85 16.04 37.08 16.04 38.62 17.47 38.62 21.71 37.08 23.24 32.85 23.24" style="fill: #353535"/>
    <polygon points="33.77 0 33.77 0.01 34.91 1.14 36.03 0.01 36.03 0 33.77 0" style="fill: #e7e7e8"/>
    <polygon points="33.77 2.27 33.77 2.27 34.91 1.13 36.05 2.26 36.05 2.27 33.77 2.27" style="fill: #aca9ad"/>
    <polygon points="36.05 0 36.05 0 34.91 1.14 36.03 2.27 36.05 2.27 36.05 0" style="fill: #d0cfd1"/>
    <polygon points="33.77 0.01 33.77 0.01 34.91 1.14 33.78 2.27 33.77 2.27 33.77 0.01" style="fill: #949295"/>
    <rect height="17.37" style="fill: #aca9ad" width="2.27" x="33.77" y="2.27"/>
  </g>
  <g id="Connectors">
    <rect data-cir-type="female" height="1.13" id="circuitoCon_VCC" style="fill: #bdbcbf" width="1.13" x="27.15" y="0.57"/>
    <rect data-cir-type="female" height="1.13" id="circuitoCon_SIG" style="fill: #bdbcbf" width="1.13" x="19.95" y="0.57"/>
    <rect data-cir-type="female" height="1.13" id="circuitoCon_GND" style="fill: #bdbcbf" width="1.13" x="34.34" y="0.57"/>
  </g>
</svg>