<?xml version="1.0" ?><svg height="11.16mm" viewBox="0 0 27.55 31.62" width="9.72mm" xmlns="http://www.w3.org/2000/svg" xmlns:xlink="http://www.w3.org/1999/xlink">
  <defs>
    <linearGradient gradientUnits="userSpaceOnUse" id="linear-gradient" x1="0.04" x2="27.55" y1="20.03" y2="20.03">
      <stop offset="0" stop-color="#f3e7d9"/>
      <stop offset="0" stop-color="#474747"/>
      <stop offset="0.99" stop-color="#1d1d1d"/>
    </linearGradient>
    <radialGradient cx="13.77" cy="9.73" gradientTransform="translate(0 2.92) scale(1 0.7)" gradientUnits="userSpaceOnUse" id="radial-gradient" r="11.93">
      <stop offset="0" stop-color="#f3e7d9"/>
      <stop offset="0" stop-color="#636363"/>
      <stop offset="1" stop-color="#303030"/>
    </radialGradient>
    <radialGradient cx="17.19" cy="9.79" gradientUnits="userSpaceOnUse" id="radial-gradient-2" r="5">
      <stop offset="0" stop-color="#e5e2df"/>
      <stop offset="0" stop-color="#f1efee"/>
      <stop offset="0" stop-color="#fff"/>
      <stop offset="0.06" stop-color="#f0f0f1"/>
      <stop offset="0.18" stop-color="#c9cacb"/>
      <stop offset="0.26" stop-color="#aeafb1"/>
      <stop offset="0.38" stop-color="#a4a6a8"/>
      <stop offset="0.59" stop-color="#8a8e91"/>
      <stop offset="0.86" stop-color="#60686a"/>
      <stop offset="1" stop-color="#475154"/>
    </radialGradient>
    <radialGradient cx="4.38" cy="9.64" gradientUnits="userSpaceOnUse" id="radial-gradient-3" r="3.34">
      <stop offset="0" stop-color="#f3e7d9"/>
      <stop offset="0" stop-color="#020202"/>
      <stop offset="1" stop-color="#262626"/>
    </radialGradient>
    <radialGradient cx="4.44" cy="9.65" gradientUnits="userSpaceOnUse" id="radial-gradient-4" r="1.41">
      <stop offset="0" stop-color="#f3e7d9"/>
      <stop offset="0" stop-color="#262626"/>
      <stop offset="1" stop-color="#171717"/>
    </radialGradient>
    <radialGradient cx="4.44" cy="9.65" id="radial-gradient-5" r="1.55" xlink:href="#radial-gradient-4"/>
  </defs>
  <title>Buzzer</title>
  <g data-name="Layer 1" id="Layer_1">
    <rect height="5.04" style="fill: #b1adb1" width="2.38" x="5.41" y="26.58"/>
    <rect height="5.9" style="fill: #b1adb1" width="2.38" x="19.81" y="25.72"/>
    <path d="M0,10.6v9.56c2.58,14.14,27.51,10.51,27.51,0V10.6Z" style="fill: url(#linear-gradient)"/>
    <ellipse cx="13.77" cy="9.73" rx="13.77" ry="9.73" style="fill: url(#radial-gradient)"/>
    <ellipse cx="13.77" cy="9.7" rx="2.78" ry="1.93" style="fill: url(#radial-gradient-2)"/>
    <ellipse cx="4.38" cy="9.64" rx="3.41" ry="2.3" style="fill: none;stroke-miterlimit: 10;stroke-width: 0.8712234080026298px;stroke: url(#radial-gradient-3)"/>
    <path d="M5.68,9.49H4.61V8.41a.17.17,0,1,0-.34,0V9.49H3.2A.17.17,0,0,0,3,9.65a.18.18,0,0,0,.17.17H4.27v1.07a.17.17,0,1,0,.34,0V9.82H5.68a.18.18,0,0,0,.17-.17A.17.17,0,0,0,5.68,9.49Z" style="stroke-miterlimit: 10;stroke-width: 0.28346458077430725px;fill: url(#radial-gradient-4);stroke: url(#radial-gradient-5)"/>
  </g>
  <g id="Connectors">
    <rect data-cir-type="male" height="2.17" id="circuitoCon_pos" style="fill: none" width="2.38" x="5.41" y="29.45"/>
    <rect data-cir-type="male" height="2.17" id="circuitoCon_neg" style="fill: none" width="2.38" x="19.81" y="29.45"/>
  </g>
</svg>