<?xml version="1.0" ?><svg height="61.48mm" viewBox="0 0 126.62 174.26" width="44.67mm" xmlns="http://www.w3.org/2000/svg" xmlns:xlink="http://www.w3.org/1999/xlink">
  <defs>
    <linearGradient gradientUnits="userSpaceOnUse" id="linear-gradient" x1="85.4" x2="85.4" y1="174.26" y2="60.59">
      <stop offset="0" stop-color="#424242"/>
      <stop offset="0.02" stop-color="#b2b2b2"/>
      <stop offset="0.07" stop-color="#d8d8d8"/>
      <stop offset="0.48" stop-color="#c9c9c9"/>
      <stop offset="0.53" stop-color="#c7c7c7"/>
      <stop offset="0.84" stop-color="#bcbec0"/>
      <stop offset="0.97" stop-color="#c5c7c9"/>
      <stop offset="0.98" stop-color="#e5e5e5"/>
      <stop offset="0.99" stop-color="#333"/>
      <stop offset="1" stop-color="#a7a9ac"/>
    </linearGradient>
    <linearGradient gradientUnits="userSpaceOnUse" id="linear-gradient-2" x1="44.18" x2="126.62" y1="117.43" y2="117.43">
      <stop offset="0" stop-color="#424242"/>
      <stop offset="0.03" stop-color="#b4b6b8"/>
      <stop offset="0.04" stop-color="#c4c6c8"/>
      <stop offset="0.1" stop-color="#ebebeb"/>
      <stop offset="0.3" stop-color="#dcdcdc"/>
      <stop offset="0.53" stop-color="#c7c7c7"/>
      <stop offset="0.84" stop-color="#bcbec0"/>
      <stop offset="0.9" stop-color="#dcdddd"/>
      <stop offset="0.92" stop-color="#e5e5e5"/>
      <stop offset="0.95" stop-color="#c5c7c9"/>
      <stop offset="0.99" stop-color="#333"/>
      <stop offset="1" stop-color="#a7a9ac"/>
    </linearGradient>
    <linearGradient gradientTransform="translate(288.71 114.56) rotate(180)" id="linear-gradient-3" x1="270.29" x2="288.71" xlink:href="#linear-gradient" y1="57.13" y2="57.13"/>
    <linearGradient gradientTransform="translate(88.16 118.72) rotate(-90)" id="linear-gradient-4" x1="100.31" x2="118.72" xlink:href="#linear-gradient" y1="-22.73" y2="-22.73"/>
    <linearGradient gradientUnits="userSpaceOnUse" id="linear-gradient-5" x1="85.4" x2="85.4" y1="71.09" y2="51.01">
      <stop offset="0" stop-color="#e6c14c"/>
      <stop offset="0.44" stop-color="#eed387"/>
      <stop offset="0.72" stop-color="#e1b724"/>
      <stop offset="1" stop-color="#e1b724"/>
    </linearGradient>
    <linearGradient gradientUnits="userSpaceOnUse" id="linear-gradient-6" x1="44.18" x2="126.62" y1="61.04" y2="61.04">
      <stop offset="0" stop-color="#e6c14c"/>
      <stop offset="0.12" stop-color="#eed387"/>
      <stop offset="0.44" stop-color="#e1b724"/>
      <stop offset="0.95" stop-color="#eed387"/>
      <stop offset="1" stop-color="#e1b724"/>
    </linearGradient>
    <linearGradient gradientTransform="translate(-284.13 5.96)" id="linear-gradient-7" x1="285.61" x2="287.22" xlink:href="#linear-gradient" y1="54.3" y2="54.3"/>
    <linearGradient gradientTransform="translate(-284.13 -5.25)" id="linear-gradient-8" x1="285.61" x2="287.22" xlink:href="#linear-gradient" y1="59.91" y2="59.91"/>
    <linearGradient gradientTransform="translate(-116.25 52.94)" id="linear-gradient-9" x1="174.95" x2="176.55" xlink:href="#linear-gradient" y1="-50.47" y2="-50.47"/>
    <linearGradient gradientTransform="translate(-110.01 46.7)" id="linear-gradient-10" x1="174.95" x2="176.55" xlink:href="#linear-gradient" y1="-44.23" y2="-44.23"/>
    <linearGradient gradientTransform="translate(-104.41 41.09)" id="linear-gradient-11" x1="174.95" x2="176.55" xlink:href="#linear-gradient" y1="-38.63" y2="-38.63"/>
  </defs>
  <title>Lithium Polymer Battery - 7.4v</title>
  <g style="isolation: isolate">
    <g data-name="Layer 1" id="Layer_1">
      <g>
        <rect height="113.67" rx="5.67" ry="5.67" style="mix-blend-mode: soft-light;fill: url(#linear-gradient)" width="82.45" x="44.18" y="60.59"/>
        <rect height="113.67" rx="5.67" ry="5.67" style="mix-blend-mode: soft-light;fill: url(#linear-gradient-2)" width="82.45" x="44.18" y="60.59"/>
      </g>
      <g data-name="Layer 2" id="Layer_2">
        <rect height="9.62" style="fill: #1e9657" width="65.5" x="52.57" y="52.45"/>
        <g>
          <rect height="1.48" style="fill: #b1aeaa" width="1.92" x="79.77" y="54.16"/>
          <rect height="1.06" style="fill: #bcbcbc" width="0.86" x="78.9" y="54.38"/>
          <rect height="1.48" style="fill: #b1aeaa" width="1.92" x="79.77" y="56.58"/>
          <rect height="1.06" style="fill: #bcbcbc" width="0.86" x="78.9" y="56.8"/>
          <rect height="1.48" style="fill: #b1aeaa" width="1.92" x="79.77" y="58.98"/>
          <rect height="1.06" style="fill: #bcbcbc" width="0.86" x="78.9" y="59.2"/>
          <rect height="1.48" style="fill: #b1aeaa" transform="translate(145.82 119.29) rotate(180)" width="1.92" x="71.95" y="58.9"/>
          <rect height="1.06" style="fill: #bcbcbc" transform="translate(148.6 119.26) rotate(180)" width="0.86" x="73.87" y="59.1"/>
          <rect height="1.48" style="fill: #b1aeaa" transform="translate(145.82 109.72) rotate(180)" width="1.92" x="71.95" y="54.12"/>
          <rect height="1.06" style="fill: #bcbcbc" transform="translate(148.6 109.7) rotate(180)" width="0.86" x="73.87" y="54.32"/>
          <rect height="7.21" style="fill: #303030" width="4.17" x="74.73" y="53.83"/>
        </g>
        <g>
          <rect height="1.48" style="fill: #b1aeaa" width="1.92" x="109.01" y="54.47"/>
          <rect height="1.06" style="fill: #bcbcbc" width="0.86" x="108.15" y="54.69"/>
          <rect height="1.48" style="fill: #b1aeaa" width="1.92" x="109.01" y="56.89"/>
          <rect height="1.06" style="fill: #bcbcbc" width="0.86" x="108.15" y="57.11"/>
          <rect height="1.48" style="fill: #b1aeaa" width="1.92" x="109.01" y="59.28"/>
          <rect height="1.06" style="fill: #bcbcbc" width="0.86" x="108.15" y="59.5"/>
          <rect height="1.48" style="fill: #b1aeaa" transform="translate(193.8 120.5) rotate(180)" width="1.92" x="95.94" y="59.51"/>
          <rect height="1.06" style="fill: #bcbcbc" transform="translate(196.59 120.48) rotate(180)" width="0.86" x="97.86" y="59.71"/>
          <rect height="1.48" style="fill: #b1aeaa" transform="translate(193.8 110.94) rotate(180)" width="1.92" x="95.94" y="54.73"/>
          <rect height="1.06" style="fill: #bcbcbc" transform="translate(196.59 110.91) rotate(180)" width="0.86" x="97.86" y="54.93"/>
          <rect height="7.21" style="fill: #303030" width="9.42" x="98.73" y="54.13"/>
        </g>
        <g>
          <rect height="2.88" style="fill: #5d6366" transform="translate(144.31 -29.75) rotate(90)" width="3.53" x="85.27" y="55.84"/>
          <rect height="3.43" style="fill: #969086" transform="translate(142.29 -31.77) rotate(90)" width="1.51" x="86.28" y="53.55"/>
          <rect height="3.43" style="fill: #969086" transform="translate(146.29 -27.77) rotate(90)" width="1.51" x="86.28" y="57.55"/>
        </g>
        <g>
          <rect height="2.88" style="fill: #5d6366" transform="translate(124 -9.73) rotate(90)" width="3.53" x="65.1" y="55.69"/>
          <rect height="3.43" style="fill: #969086" transform="translate(121.98 -11.75) rotate(90)" width="1.51" x="66.11" y="53.4"/>
          <rect height="3.43" style="fill: #969086" transform="translate(125.98 -7.75) rotate(90)" width="1.51" x="66.11" y="57.4"/>
        </g>
        <g>
          <rect height="2.88" style="fill: #5d6366" transform="translate(119.13 -5.93) rotate(90)" width="3.53" x="60.77" y="55.16"/>
          <rect height="3.43" style="fill: #969086" transform="translate(117.11 -7.95) rotate(90)" width="1.51" x="61.78" y="52.87"/>
          <rect height="3.43" style="fill: #969086" transform="translate(121.11 -3.95) rotate(90)" width="1.51" x="61.78" y="56.87"/>
        </g>
        <g>
          <rect height="2.88" style="fill: #5d6366" transform="translate(119.44 -5.62) rotate(90)" width="3.53" x="60.77" y="55.47"/>
          <rect height="3.43" style="fill: #969086" transform="translate(117.42 -7.64) rotate(90)" width="1.51" x="61.78" y="53.18"/>
          <rect height="3.43" style="fill: #969086" transform="translate(121.42 -3.64) rotate(90)" width="1.51" x="61.78" y="57.18"/>
        </g>
      </g>
      <g>
        <g style="mix-blend-mode: multiply">
          <rect height="3.87" style="fill: #fd4f57" width="34.15" x="18.41" y="52.72"/>
        </g>
        <g style="mix-blend-mode: multiply">
          <rect height="3.87" style="fill: #4d4845" width="34.15" x="18.41" y="58.33"/>
        </g>
        <g>
          <rect height="14.67" style="mix-blend-mode: soft-light;fill: url(#linear-gradient-3)" width="18.41" y="50.1"/>
          <rect height="14.67" style="fill: #c9c9c9" width="4.94" y="50.1"/>
        </g>
        <rect height="1.73" style="fill: #c9c9c9" width="6.7" x="11.71" y="56.59"/>
      </g>
      <g>
        <g style="mix-blend-mode: multiply">
          <rect height="34.15" style="fill: #fd4f57" width="3.87" x="69.41" y="18.41"/>
        </g>
        <g style="mix-blend-mode: multiply">
          <rect height="34.15" style="fill: #4d4845" width="3.87" x="63.8" y="18.41"/>
        </g>
        <g style="mix-blend-mode: multiply">
          <rect height="34.15" style="fill: #4d4845" width="3.87" x="57.57" y="18.41"/>
        </g>
        <g>
          <rect height="18.41" style="mix-blend-mode: soft-light;fill: url(#linear-gradient-4)" width="22.01" x="54.42"/>
          <rect height="22.01" style="fill: #c9c9c9" transform="translate(67.89 -62.96) rotate(90)" width="4.94" x="62.96" y="-8.54"/>
        </g>
        <rect height="1.73" style="fill: #c9c9c9" transform="translate(80.46 -50.33) rotate(90)" width="6.7" x="62.05" y="14.2"/>
      </g>
      <path d="M44.18,71.09V54.14A3,3,0,0,1,47,51h76.78a3,3,0,0,1,2.83,3.13V71.09Z" style="opacity: 0.85;fill: url(#linear-gradient-5)"/>
      <g style="opacity: 0.85">
        <path d="M44.18,71.08V54.13A3,3,0,0,1,47,51h76.78a3,3,0,0,1,2.83,3.13V71.08Z" style="mix-blend-mode: multiply;fill: url(#linear-gradient-6)"/>
      </g>
      <rect height="1.61" style="fill: url(#linear-gradient-7)" transform="translate(4.58 120.53) rotate(180)" width="1.61" x="1.49" y="59.46"/>
      <rect height="1.61" style="fill: url(#linear-gradient-8)" transform="translate(4.58 109.31) rotate(180)" width="1.61" x="1.49" y="53.85"/>
      <g>
        <path d="M97.32,105.62l-.42,0v-.41l.42,0Zm0,.62-.42,0v-.43l.42,0Zm0,.62-.42,0v-.42l.42,0Zm0,.62-.42,0V107l.42,0Zm0,.62-.42,0v-.4l.42,0Zm.62-3-.42,0v-.41l.42,0Zm.62.06-.42,0v-.42l.42.05Zm.61.06-.41,0v-.4l.41,0Zm.63,0-.41,0v-.4l.41,0Zm1.24.12-.41-.05v-.4l.41,0Zm.62.05-.41,0v-.41l.41,0Zm.63.05-.42,0V105l.42,0Zm.62.05-.42,0V105l.42,0Z"/>
        <path d="M97.3,110.87l-.4,0v-.41l.4,0Zm0,.62-.4,0V111l.4,0Zm0,.61-.4,0v-.41l.4,0Zm0,.62-.4,0v-.42l.4,0Zm0,.62-.4,0v-.41l.4,0Zm.62-1.18-.41,0v-.4l.41,0Zm.62.06-.42,0v-.41l.42,0Zm.61.05-.41,0v-.41l.41,0Zm.63.05-.41,0v-.4l.41,0Zm.62.05-.42,0v-.4l.42,0Zm.62.07-.42-.05V112l.42,0Zm.62,0-.41,0V112l.41,0Zm.62.05-.41,0v-.4l.41,0Zm.62.06-.41,0v-.4l.41,0Zm.63-1.18-.41,0V111l.41,0Zm0,.61-.41,0v-.42l.41,0Zm0,.62-.41,0v-.42l.41,0Zm0,.62-.41,0v-.41l.41,0Zm0,.62-.41,0v-.4l.41,0Z"/>
        <path d="M97.93,117.66l-.42,0v-.41l.42,0Zm.62.06-.43,0v-.4l.43,0Zm.61.06-.41,0v-.4l.41,0Zm.62,0-.4,0v-.42l.4,0Zm1.25.12-.42-.05v-.4l.42.05Zm.62.05-.41,0v-.41l.41,0Zm.62.05-.41,0v-.41l.41,0Zm.62.05-.42,0v-.4l.42,0Zm.63-1.18-.43,0v-.42l.43,0Zm0,.62-.43,0v-.42l.43,0Zm0,.61-.43,0v-.4l.43,0Zm0,.62-.43,0v-.41l.43,0Zm0,.62-.43,0v-.42l.43,0Z"/>
        <path d="M97.92,121.85l-.41,0v-.41l.41,0Zm0,3.73-.41,0v-.42l.41,0Zm.62-3.66-.42-.05v-.4l.42,0Zm0,3.71-.42,0v-.42l.42.05Zm.62-3.67-.41,0v-.41l.41,0Zm0,3.72-.41,0v-.43l.41,0Zm.62-3.67-.41,0v-.41l.41,0Zm0,3.73-.41,0v-.41l.41,0Zm.62-3-.42,0v-.42l.42,0Zm0,.62-.42,0v-.42l.42,0Zm0,.62-.42,0v-.4l.42,0Zm0,.62-.42,0v-.41l.42,0Zm0,.62-.42,0v-.42l.42,0Zm.62-3-.42,0v-.42l.42.05Zm0,3.71-.42,0v-.42l.42,0Zm.62-3.66-.41,0v-.41l.41,0Zm0,3.72-.41,0v-.41l.41,0Zm.62-3.67-.4,0v-.4l.4,0Zm0,3.72-.4,0v-.42l.4,0Zm.63-3.67-.41,0v-.41l.41,0Zm0,3.72-.41,0v-.42l.41,0Z"/>
        <path d="M97.3,128.23l-.4,0v-.41l.4,0Zm0,.62-.4,0v-.41l.4,0Zm0,.61-.4,0V129l.4,0Zm0,.62-.4,0v-.42l.4,0Zm0,.62-.4,0v-.41l.4,0Zm.62-1.18-.41,0v-.4l.41,0Zm.62.06-.42,0v-.41l.42,0Zm.61.05-.41,0v-.41l.41,0Zm.63.05-.41,0v-.4l.41,0Zm.62.05-.42,0v-.4l.42,0Zm.62.07-.42-.05v-.41l.42,0Zm.62,0-.41,0v-.41l.41,0Zm.62.05-.41,0v-.4l.41,0Zm.62.06-.41,0v-.4l.41,0Zm.63-1.18-.41,0v-.41l.41,0Zm0,.61-.41,0v-.42l.41,0Zm0,.62-.41,0v-.42l.41,0Zm0,.62-.41,0v-.41l.41,0Zm0,.62-.41,0v-.4l.41,0Z"/>
        <path d="M97.32,134l-.42,0v-.42l.42,0Zm0,.62-.42,0v-.41l.42,0Zm0,.62-.42,0v-.41l.42,0Zm0,.61-.42,0v-.41l.42,0Zm0,.62-.42,0V136l.42,0Zm.62-3-.42,0V133l.42,0Zm0,3.73-.42,0v-.42l.42,0Zm.62-3.66-.42-.05V133l.42,0Zm0,3.71-.42,0v-.42l.42.05Zm.61-3.67-.41,0v-.41l.41,0Zm0,3.72-.41,0v-.43l.41,0Zm.63-3.67-.41,0v-.41l.41,0Zm0,3.73-.41,0v-.41l.41,0ZM101,133.7l-.41,0v-.42l.41.05Zm0,3.71-.41,0V137l.41,0Zm.62-3.66-.41,0v-.41l.41,0Zm0,3.72-.41,0V137l.41,0Zm.63-3.67-.42,0v-.4l.42,0Zm0,3.72-.42,0v-.42l.42,0Zm.62-3.67-.42,0v-.41l.42,0Zm0,3.72-.42,0v-.42l.42,0Z"/>
        <path d="M97.93,139.21l-.41,0v-.41l.41,0Zm0,3.73-.41,0v-.42l.41,0Zm.62-3.66-.42-.05v-.4l.42,0Zm0,3.71-.42,0v-.42l.42.05Zm.61-3.67-.41,0v-.41l.41,0Zm0,3.72-.41,0v-.43l.41,0Zm.63-3.67-.42,0v-.41l.42,0Zm0,3.73-.42,0v-.41l.42,0Zm1.23-3.61-.42,0V139l.42.05Zm0,1.24-.42,0v-.42l.42.05Zm0,1.24-.42-.05v-.4l.42,0Zm0,1.23-.42,0v-.42l.42,0Zm.62-3.66-.41,0v-.41l.41,0Zm0,1-.41,0v-.41l.41,0Zm0,1.65-.41,0v-.42l.41,0Zm0,1-.41,0v-.41l.41,0Zm.62-3.67-.41,0v-.4l.41,0Zm0,.82-.41,0V140l.41,0Zm0,2.08-.41,0V142l.41,0Zm0,.82-.41,0v-.42l.41,0Zm.62-3.67-.41,0v-.41l.41,0Zm0,.62-.41,0v-.43l.41,0Zm0,2.47-.41,0v-.4l.41,0Zm0,.62-.41,0v-.42l.41,0Z"/>
        <path d="M87.67,104.49l-.42,0v-.41l.42,0Zm.62.07-.43-.05v-.4l.43,0Zm.61,0-.41,0v-.41l.41,0Zm.62.05-.4,0v-.41l.4,0Zm.62.68-.41,0v-.42l.41,0Zm0,.62-.41,0v-.42l.41,0Zm0,.62-.41,0v-.4l.41,0Zm0,.62-.41,0v-.41l.41,0Zm0,.62-.41,0v-.42l.41,0Zm.62-3-.42,0v-.42l.42.05Zm0,3.71-.42,0V108l.42,0Zm.62-3.66-.41,0v-.41l.41,0Zm0,3.72-.41,0v-.41l.41,0Zm.62-3.67-.41,0v-.4l.41,0Zm0,3.72-.41,0v-.42l.41,0Zm.62-3.67-.42,0v-.41l.42,0Zm0,3.72-.42,0v-.42l.42,0Zm.62-3-.43,0v-.41l.43,0Zm0,.61-.43,0v-.41l.43,0Zm0,.62-.43,0v-.42l.43,0Zm0,.62-.43,0V107l.43,0Zm0,.62-.43,0v-.41l.43,0Z"/>
        <path d="M87,110.86l-.4,0v-.42l.4,0Zm0,.62-.4,0V111l.4,0Zm0,.62-.4,0v-.41l.4,0Zm0,.61-.4,0v-.41l.4,0Zm0,.62-.4,0v-.42l.4,0Zm.62-3-.41,0v-.41l.41,0Zm0,3.73-.41,0v-.42l.41,0Zm.62-3.66-.42-.05v-.4l.42,0Zm0,3.71-.42,0v-.42l.42.05Zm.62-3.67-.41,0v-.41l.41,0Zm0,3.72-.41,0v-.43l.41,0Zm.62-3.67-.41,0V110l.41,0Zm0,3.73-.41,0v-.41l.41,0Zm1.23-3.61-.42,0v-.42l.42.05Zm0,3.71-.42,0v-.42l.42,0Zm.62-3.66-.41,0v-.41l.41,0Zm0,3.72-.41,0v-.41l.41,0Zm.62-3.67-.41,0v-.4l.41,0Zm0,3.72-.41,0v-.42l.41,0Zm.62-3.67-.41,0v-.41l.41,0Zm0,3.72-.41,0V114l.41,0Zm.62-3-.41,0v-.41l.41,0Zm0,.61-.41,0v-.41l.41,0Zm0,.62-.41,0v-.42l.41,0Zm0,.62-.41,0v-.42l.41,0Zm0,.62-.41,0v-.41l.41,0Z"/>
        <path d="M87.07,117.19l-.42,0v-.41l.42,0Zm0,.62-.42,0v-.43l.42,0Zm0,.62-.42,0V118l.42,0Zm0,.62-.42,0v-.4l.42,0Zm0,.62-.42,0v-.4l.42,0Zm.62-3-.42,0v-.41l.42,0Zm.62.06-.42,0v-.42l.42.05Zm.62.06-.41,0v-.4l.41,0Zm.62,0-.41,0v-.4l.41,0Zm1.24.12-.41-.05v-.4l.41,0Zm.62.05-.41,0v-.41l.41,0ZM92,117l-.42,0v-.41l.42,0Zm.62.05-.42,0v-.41l.42,0Z"/>
        <path d="M87,122.29l-.41,0v-.41l.41,0Zm0,.62-.41,0v-.43l.41,0Zm0,.62-.41,0v-.42l.41,0Zm0,.62-.41,0v-.4l.41,0Zm0,.62-.41,0v-.4l.41,0Zm.62.67-.42,0V125l.42,0Zm.62.06-.42,0V125l.42,0Zm.62.05-.41,0v-.42l.41,0Zm.62.05-.4,0v-.43l.4,0Zm.62-3-.41,0v-.43l.41,0Zm0,.62-.41,0v-.42l.41,0Zm0,.62-.41,0v-.4l.41,0Zm0,.62-.41,0V124l.41,0Zm0,.62-.41,0v-.41l.41,0Zm.62-3-.42-.05v-.4l.42,0Zm0,3.71-.42,0v-.42l.42.05Zm.62-3.67L91,122v-.41l.41,0Zm0,3.72-.41,0v-.43l.41,0Zm.62-3.66-.42,0v-.41l.42,0Zm0,3.72-.42,0v-.41l.42,0Zm.62-3.67-.42,0v-.4l.42,0Zm0,3.72-.42,0v-.42l.42,0Z"/>
        <path d="M87.67,127.64l-.41,0v-.41l.41,0Zm0,3.73-.41,0v-.42l.41,0Zm.62-3.66-.42-.05v-.4l.42,0Zm0,3.71-.42,0V131l.42.05Zm.62-3.67-.41,0v-.41l.41,0Zm0,3.72-.41,0V131l.41,0Zm.62-3.67-.42,0v-.41l.42,0Zm0,3.73-.42,0v-.41l.42,0Zm1.23-3.61-.42,0v-.42l.42.05Zm0,1.24-.42,0v-.42l.42.05Zm0,1.24-.42-.05v-.4l.42,0Zm0,1.23-.42,0v-.42l.42,0Zm.62-3.66-.41,0v-.41l.41,0Zm0,1L91,129v-.41l.41,0Zm0,1.65-.41,0v-.42l.41,0Zm0,1-.41,0v-.41l.41,0ZM92,128l-.41,0v-.4l.41,0Zm0,.82-.41,0v-.41l.41,0Zm0,2.08-.41,0v-.41l.41,0Zm0,.82-.41,0v-.42l.41,0Zm.62-3.67-.41,0v-.41l.41,0Zm0,.62-.41,0v-.43l.41,0Zm0,2.47-.41,0v-.4l.41,0Zm0,.62-.41,0v-.42l.41,0Z"/>
        <path d="M87,134.28l-.4,0v-.42l.4,0Zm0,.62-.4,0v-.41l.4,0Zm0,.62-.4,0v-.41l.4,0Zm0,.62-.4,0v-.42l.4,0Zm0,.62-.4,0v-.41l.4,0Zm.62-3-.41,0v-.4l.41,0Zm.62.05-.42,0v-.4l.42,0Zm.62.06-.41,0v-.41l.41,0Zm.62.05-.41,0v-.41l.41,0Zm.62.67-.42,0v-.41l.42,0Zm0,.62-.42,0v-.43l.42,0Zm0,.62-.42,0v-.42l.42,0Zm0,.62-.42,0V136l.42,0Zm0,.62-.42,0v-.4l.42,0Zm.62-3-.42,0v-.41l.42.05Zm.62.05L91,134v-.42l.41,0Zm.62.06-.41,0v-.4l.41,0Zm.62,0-.41,0v-.4l.41,0Zm.62.67-.41,0v-.43l.41,0Zm0,.62-.41,0V135l.41,0Zm0,.62-.41,0v-.4l.41,0Zm0,.62-.41,0v-.41l.41,0Zm0,.62-.41,0v-.4l.41,0Z"/>
        <path d="M87.67,139.21l-.42,0v-.41l.42,0Zm0,3.09-.42,0v-.41l.42,0Zm.62-3-.43-.05v-.4l.43,0Zm0,2.88-.43,0v-.42l.43,0Zm.61-2.84-.41,0v-.41l.41,0Zm0,2.68-.41,0v-.43l.41,0Zm.62-2.63-.4,0v-.41l.4,0Zm0,2.48-.4,0v-.41l.4,0Zm.62-1.79-.41,0v-.42l.41,0Zm0,.62-.41,0v-.42l.41,0Zm0,.62-.41,0v-.4l.41,0Zm0,.62-.41,0v-.41l.41,0Zm0,.62-.41,0v-.42l.41,0Zm.62-3-.42,0V139l.42.05Zm0,3.71-.42,0v-.42l.42,0Zm.62-3.66-.41,0v-.41l.41,0Zm0,3.72-.41,0v-.41l.41,0Zm.62-3.67-.41,0v-.4l.41,0Zm0,3.72-.41,0v-.42l.41,0Zm.62-3.67-.42,0v-.41l.42,0Zm0,3.72-.42,0v-.42l.42,0Zm.62-3-.43,0v-.41l.43,0Zm0,.61-.43,0v-.41l.43,0Zm0,.62-.43,0v-.42l.43,0Zm0,.62-.43,0v-.42l.43,0Zm0,.62-.43,0v-.41l.43,0Z"/>
        <path d="M76.79,104.79l-.4,0v-.41l.4,0Zm0,.62-.4,0V105l.4,0Zm0,.62-.4,0v-.41l.4,0Zm0,.62-.4,0v-.4l.4,0Zm0,.62-.4,0v-.4l.4,0Zm.62-1.19L77,106v-.42l.41,0Zm0,1.86-.41,0v-.41l.41,0Zm.62-1.79-.42-.05v-.4l.42,0ZM78,108l-.42,0v-.43l.42.05Zm.62-1.81-.41,0v-.4l.41,0Zm0,1.85-.41,0v-.42l.41,0Zm.62-1.8-.41,0v-.42l.41,0Zm0,1.86-.41,0v-.41l.41,0Zm.62-1.8-.42,0v-.4l.42,0Zm0,.62-.42,0v-.41l.42,0Zm0,.61-.42,0v-.41l.42,0Zm.62-1.16-.42,0v-.41l.42,0Zm0,1.86-.42-.05v-.42l.42,0Zm.62-1.82-.41,0V106l.41,0Zm0,1.86-.41,0v-.42l.41,0Zm.62-1.8-.41,0V106l.41,0Zm0,1.85-.41,0v-.41l.41,0Zm.62-1.8-.41,0v-.41l.41,0Zm0,1.86-.41,0v-.41l.41,0Zm.62-3-.41,0v-.41l.41,0Zm0,.62-.41,0v-.42l.41,0Zm0,.62-.41,0v-.4l.41,0Zm0,.61-.41,0v-.4l.41,0Zm0,.62-.41,0v-.41l.41,0Z"/>
        <path d="M77.42,110.28l-.42,0v-.41l.42,0Zm0,3.73L77,114v-.42l.42,0Zm.62-3.66-.43-.05v-.4l.43,0Zm0,3.71-.43,0v-.42l.43.05Zm.61-3.67-.41,0v-.41l.41,0Zm0,3.72-.41,0v-.43l.41,0Zm.62-3.67-.4,0V110l.4,0Zm0,3.73-.4,0v-.41l.4,0Zm.62-3-.41,0v-.42l.41,0Zm0,.62-.41,0v-.42l.41,0Zm0,.62-.41,0v-.4l.41,0Zm0,.62-.41,0v-.41l.41,0Zm0,.62-.41,0v-.42l.41,0Zm.62-3-.42,0v-.42l.42.05Zm0,3.71-.42,0v-.42l.42,0Zm.62-3.66-.41,0v-.41l.41,0Zm0,3.72-.41,0v-.41l.41,0Zm.62-3.67-.41,0v-.4l.41,0Zm0,3.72-.41,0v-.42l.41,0Zm.62-3.67-.42,0v-.41l.42,0Zm0,3.72-.42,0V114l.42,0Zm.62-3-.43,0v-.41l.43,0Zm0,.61-.43,0v-.41l.43,0Zm0,.62-.43,0v-.42l.43,0Zm0,.62-.43,0v-.42l.43,0Zm0,.62-.43,0v-.41l.43,0Z"/>
        <path d="M77.42,117.66l-.42,0v-.41l.42,0Zm.62.06-.43,0v-.4l.43,0Zm.61.06-.41,0v-.4l.41,0Zm.62,0-.4,0v-.42l.4,0Zm1.25.12-.42-.05v-.4l.42.05Zm.62.05-.41,0v-.41l.41,0Zm.62.05-.41,0v-.41l.41,0Zm.62.05-.42,0v-.4l.42,0Zm.62-1.18-.43,0v-.42l.43,0Zm0,.62-.43,0v-.42l.43,0Zm0,.61-.43,0v-.4l.43,0Zm0,.62-.43,0v-.41l.43,0Zm0,.62-.43,0v-.42l.43,0Z"/>
        <path d="M77.42,123.45l-.42,0V123l.42,0Zm.62.06-.43,0v-.4l.43,0Zm.61.06-.41,0v-.4l.41,0Zm.62,0-.4,0v-.42l.4,0Zm1.25.12-.42-.05v-.4l.42.05Zm.62.05-.41,0v-.41l.41,0Zm.62.05-.41,0v-.41l.41,0Zm.62.05-.42,0v-.4l.42,0ZM83,122.7l-.43,0v-.42l.43,0Zm0,.62-.43,0v-.42l.43,0Zm0,.61-.43,0v-.4l.43,0Zm0,.62-.43,0v-.41l.43,0Zm0,.62-.43,0v-.42l.43,0Z"/>
        <path d="M76.79,128.49l-.4,0V128l.4,0Zm0,.62-.4,0v-.41l.4,0Zm0,.62-.4,0v-.41l.4,0Zm0,.62-.4,0v-.42l.4,0Zm0,.62-.4,0v-.41l.4,0Zm.62-3-.41,0v-.4l.41,0ZM78,128l-.42,0v-.4l.42,0Zm.62.06-.41,0v-.41l.41,0Zm.62.05-.41,0v-.41l.41,0Zm.62.67-.42,0v-.41l.42,0Zm0,.62-.42,0v-.43l.42,0Zm0,.62-.42,0v-.42l.42,0Zm0,.62-.42,0v-.4l.42,0Zm0,.62-.42,0v-.4l.42,0Zm.62-3-.42,0v-.41l.42.05Zm.62.05-.41,0v-.42l.41,0Zm.62.06-.41,0v-.4l.41,0Zm.62,0-.41,0v-.4l.41,0ZM83,129l-.41,0v-.43l.41,0Zm0,.62-.41,0v-.42l.41,0Zm0,.62-.41,0v-.4l.41,0Zm0,.62-.41,0v-.41l.41,0Zm0,.62-.41,0v-.4l.41,0Z"/>
        <path d="M77.42,133.42l-.42,0V133l.42,0Zm0,3.09-.42,0v-.41l.42,0Zm.62-3-.43-.05V133l.43,0Zm0,2.88-.43,0v-.42l.43,0Zm.61-2.84-.41,0v-.41l.41,0Zm0,2.68-.41,0v-.43l.41,0Zm.62-2.63-.4,0v-.41l.4,0Zm0,2.48-.4,0v-.41l.4,0Zm.62-1.79-.41,0v-.42l.41,0Zm0,.62-.41,0v-.42l.41,0Zm0,.62-.41,0v-.4l.41,0Zm0,.62-.41,0v-.41l.41,0Zm0,.62-.41,0v-.42l.41,0Zm.62-3-.42,0v-.42l.42.05Zm0,3.71-.42,0V137l.42,0Zm.62-3.66-.41,0v-.41l.41,0Zm0,3.72-.41,0V137l.41,0Zm.62-3.67-.41,0v-.4l.41,0Zm0,3.72-.41,0v-.42l.41,0Zm.62-3.67-.42,0v-.41l.42,0Zm0,3.72-.42,0v-.42l.42,0Zm.62-3-.43,0v-.41l.43,0Zm0,.61-.43,0v-.41l.43,0Zm0,.62-.43,0v-.42l.43,0Zm0,.62-.43,0v-.42l.43,0Zm0,.62-.43,0v-.41l.43,0Z"/>
        <path d="M76.79,139.65l-.41,0v-.41l.41,0Zm0,.62-.41,0v-.43l.41,0Zm0,.62-.41,0v-.42l.41,0Zm0,.62-.41,0v-.4l.41,0Zm0,.62-.41,0v-.4l.41,0Zm.62.67-.42,0v-.41l.42,0Zm.62.06-.42,0v-.42l.42,0Zm.62.05-.41,0v-.42l.41,0Zm.62.05-.4,0v-.43l.4,0Zm.62-3-.41,0v-.43l.41,0Zm0,.62-.41,0v-.42l.41,0Zm0,.62-.41,0v-.4l.41,0Zm0,.62-.41,0v-.41l.41,0Zm0,.62-.41,0v-.41l.41,0Zm.62-3-.42-.05v-.4l.42,0Zm0,3.71-.42,0v-.42l.42.05Zm.62-3.67-.41,0V139l.41,0Zm0,3.72-.41,0v-.43l.41,0Zm.62-3.66-.42,0V139l.42,0Zm0,3.72-.42,0v-.41l.42,0Zm.62-3.67-.42,0v-.4l.42,0Zm0,3.72-.42,0v-.42l.42,0Z"/>
        <path d="M67.2,107.66l-.41,0v-.42l.41,0Zm.63.06-.43,0v-.42l.43,0Zm.61.06-.42,0v-.41l.42,0Zm.62,0-.4,0v-.42l.4,0Zm1.25.12-.42-.05v-.41l.42,0Zm.62.05-.42,0v-.41l.42,0Zm.62,0-.4,0v-.42l.4,0Zm.62.06-.41,0v-.41l.41,0Zm.63-3-.43,0v-.42l.43,0Zm0,.62-.43,0v-.41l.43,0Zm0,.62-.43,0v-.4l.43,0Zm0,.62-.43,0v-.41l.43,0Zm0,.61-.43,0v-.41l.43,0Z"/>
        <path d="M66.21,112.35l-.42,0v-.4l.42,0Z"/>
        <path d="M67.16,119.65l-.41,0v-.41l.41,0Zm.62.06-.42,0v-.42l.42,0Zm.62.05-.41,0v-.42l.41,0Zm.62.05-.42,0v-.43l.42,0Zm.62-3-.42,0v-.43l.42,0Zm0,.62-.42,0v-.42l.42,0Zm0,.62-.42,0v-.4l.42,0Zm0,.62-.42,0v-.41l.42,0Zm0,.62-.42,0v-.41l.42,0Zm.62-3-.42-.05v-.4l.42,0Zm0,3.71-.42,0v-.42l.42.05Zm.62-3.67-.41,0v-.41l.41,0Zm0,3.72-.41,0v-.43l.41,0Zm.62-3.66-.41,0v-.41l.41,0Zm0,3.72-.41,0v-.41l.41,0Zm.62-3.67-.41,0v-.4l.41,0Zm0,3.72-.41,0v-.42l.41,0Z"/>
        <path d="M67.16,122.17l-.41,0v-.41l.41,0Zm0,.62-.41,0v-.42l.41,0Zm.62-.56-.42,0v-.41l.42,0Zm0,.83-.42-.05v-.4l.42,0Zm.62-.79-.41,0v-.4l.41,0Zm0,1-.41,0v-.41l.41,0Zm.62-1-.42,0v-.41l.42,0Zm0,1.25-.42,0v-.41l.42,0Zm1.23-1.13-.42-.05V122l.42,0Zm0,2.47-.42,0v-.41l.42,0Zm.62-2.43-.41,0V122l.41,0Zm0,2.68-.41,0v-.42l.41,0Zm.62-2.63-.41,0v-.42l.41,0Zm0,2.9-.41,0V125l.41,0Zm.62-2.84-.41,0v-.4l.41,0Zm0,3.08-.41,0v-.42l.41,0Z"/>
      </g>
      <rect height="1.61" style="fill: url(#linear-gradient-9)" transform="translate(57.03 61.97) rotate(-90)" width="1.61" x="58.7" y="1.67"/>
      <rect height="1.61" style="fill: url(#linear-gradient-10)" transform="translate(63.27 68.21) rotate(-90)" width="1.61" x="64.94" y="1.67"/>
      <rect height="1.61" style="fill: url(#linear-gradient-11)" transform="translate(68.88 73.81) rotate(-90)" width="1.61" x="70.54" y="1.67"/>
    </g>
    <g id="Connectors">
      <rect data-cir-color="red" data-cir-type="female" height="1.61" id="circuitoCon_VCC" style="fill: none" width="1.61" x="1.49" y="53.85"/>
      <rect data-cir-color="black" data-cir-type="female" height="1.61" id="circuitoCon_GND" style="fill: none" width="1.61" x="1.49" y="59.48"/>
    </g>
  </g>
</svg>