<?xml version="1.0" ?><svg height="43.58mm" viewBox="0 0 126.62 123.54" width="44.67mm" xmlns="http://www.w3.org/2000/svg" xmlns:xlink="http://www.w3.org/1999/xlink">
  <defs>
    <linearGradient gradientUnits="userSpaceOnUse" id="linear-gradient" x1="85.4" x2="85.4" y1="123.54" y2="9.87">
      <stop offset="0" stop-color="#424242"/>
      <stop offset="0.02" stop-color="#b2b2b2"/>
      <stop offset="0.07" stop-color="#d8d8d8"/>
      <stop offset="0.48" stop-color="#c9c9c9"/>
      <stop offset="0.53" stop-color="#c7c7c7"/>
      <stop offset="0.84" stop-color="#bcbec0"/>
      <stop offset="0.97" stop-color="#c5c7c9"/>
      <stop offset="0.98" stop-color="#e5e5e5"/>
      <stop offset="0.99" stop-color="#333"/>
      <stop offset="1" stop-color="#a7a9ac"/>
    </linearGradient>
    <linearGradient gradientUnits="userSpaceOnUse" id="linear-gradient-2" x1="44.18" x2="126.62" y1="66.71" y2="66.71">
      <stop offset="0" stop-color="#424242"/>
      <stop offset="0.03" stop-color="#b4b6b8"/>
      <stop offset="0.04" stop-color="#c4c6c8"/>
      <stop offset="0.1" stop-color="#ebebeb"/>
      <stop offset="0.3" stop-color="#dcdcdc"/>
      <stop offset="0.53" stop-color="#c7c7c7"/>
      <stop offset="0.84" stop-color="#bcbec0"/>
      <stop offset="0.9" stop-color="#dcdddd"/>
      <stop offset="0.92" stop-color="#e5e5e5"/>
      <stop offset="0.95" stop-color="#c5c7c9"/>
      <stop offset="0.99" stop-color="#333"/>
      <stop offset="1" stop-color="#a7a9ac"/>
    </linearGradient>
    <linearGradient gradientTransform="translate(288.71 13.12) rotate(180)" id="linear-gradient-3" x1="270.29" x2="288.71" xlink:href="#linear-gradient" y1="5.79" y2="5.79"/>
    <linearGradient gradientTransform="translate(-284.13 7.21)" id="linear-gradient-4" x1="285.61" x2="287.22" xlink:href="#linear-gradient" y1="2.96" y2="2.96"/>
    <linearGradient gradientTransform="translate(-284.13 -4)" id="linear-gradient-5" x1="285.61" x2="287.22" xlink:href="#linear-gradient" y1="8.56" y2="8.56"/>
    <linearGradient gradientUnits="userSpaceOnUse" id="linear-gradient-6" x1="85.4" x2="85.4" y1="20.37" y2="0.29">
      <stop offset="0" stop-color="#e6c14c"/>
      <stop offset="0.44" stop-color="#eed387"/>
      <stop offset="0.72" stop-color="#e1b724"/>
      <stop offset="1" stop-color="#e1b724"/>
    </linearGradient>
    <linearGradient gradientUnits="userSpaceOnUse" id="linear-gradient-7" x1="44.18" x2="126.62" y1="10.32" y2="10.32">
      <stop offset="0" stop-color="#e6c14c"/>
      <stop offset="0.12" stop-color="#eed387"/>
      <stop offset="0.44" stop-color="#e1b724"/>
      <stop offset="0.95" stop-color="#eed387"/>
      <stop offset="1" stop-color="#e1b724"/>
    </linearGradient>
  </defs>
  <title>Lithium Polymer Battery - 3.7v</title>
  <g style="isolation: isolate">
    <g data-name="Layer 1" id="Layer_1">
      <g>
        <rect height="113.67" rx="5.67" ry="5.67" style="mix-blend-mode: soft-light;fill: url(#linear-gradient)" width="82.45" x="44.18" y="9.87"/>
        <rect height="113.67" rx="5.67" ry="5.67" style="mix-blend-mode: soft-light;fill: url(#linear-gradient-2)" width="82.45" x="44.18" y="9.87"/>
      </g>
      <g data-name="Layer 2" id="Layer_2">
        <rect height="9.62" style="fill: #1e9657" width="65.5" x="52.57" y="1.73"/>
        <g>
          <rect height="1.48" style="fill: #b1aeaa" width="1.92" x="79.77" y="3.44"/>
          <rect height="1.06" style="fill: #bcbcbc" width="0.86" x="78.9" y="3.66"/>
          <rect height="1.48" style="fill: #b1aeaa" width="1.92" x="79.77" y="5.86"/>
          <rect height="1.06" style="fill: #bcbcbc" width="0.86" x="78.9" y="6.08"/>
          <rect height="1.48" style="fill: #b1aeaa" width="1.92" x="79.77" y="8.25"/>
          <rect height="1.06" style="fill: #bcbcbc" width="0.86" x="78.9" y="8.48"/>
          <rect height="1.48" style="fill: #b1aeaa" transform="translate(145.82 17.84) rotate(180)" width="1.92" x="71.95" y="8.18"/>
          <rect height="1.06" style="fill: #bcbcbc" transform="translate(148.6 17.82) rotate(180)" width="0.86" x="73.87" y="8.38"/>
          <rect height="1.48" style="fill: #b1aeaa" transform="translate(145.82 8.28) rotate(180)" width="1.92" x="71.95" y="3.4"/>
          <rect height="1.06" style="fill: #bcbcbc" transform="translate(148.6 8.26) rotate(180)" width="0.86" x="73.87" y="3.6"/>
          <rect height="7.21" style="fill: #303030" width="4.17" x="74.73" y="3.11"/>
        </g>
        <g>
          <rect height="1.48" style="fill: #b1aeaa" width="1.92" x="109.01" y="3.75"/>
          <rect height="1.06" style="fill: #bcbcbc" width="0.86" x="108.15" y="3.97"/>
          <rect height="1.48" style="fill: #b1aeaa" width="1.92" x="109.01" y="6.17"/>
          <rect height="1.06" style="fill: #bcbcbc" width="0.86" x="108.15" y="6.39"/>
          <rect height="1.48" style="fill: #b1aeaa" width="1.92" x="109.01" y="8.56"/>
          <rect height="1.06" style="fill: #bcbcbc" width="0.86" x="108.15" y="8.78"/>
          <rect height="1.48" style="fill: #b1aeaa" transform="translate(193.8 19.06) rotate(180)" width="1.92" x="95.94" y="8.79"/>
          <rect height="1.06" style="fill: #bcbcbc" transform="translate(196.59 19.03) rotate(180)" width="0.86" x="97.86" y="8.99"/>
          <rect height="1.48" style="fill: #b1aeaa" transform="translate(193.8 9.5) rotate(180)" width="1.92" x="95.94" y="4.01"/>
          <rect height="1.06" style="fill: #bcbcbc" transform="translate(196.59 9.47) rotate(180)" width="0.86" x="97.86" y="4.21"/>
          <rect height="7.21" style="fill: #303030" width="9.42" x="98.73" y="3.41"/>
        </g>
        <g>
          <rect height="2.88" style="fill: #5d6366" transform="translate(93.59 -80.47) rotate(90)" width="3.53" x="85.27" y="5.12"/>
          <rect height="3.43" style="fill: #969086" transform="translate(91.57 -82.49) rotate(90)" width="1.51" x="86.28" y="2.83"/>
          <rect height="3.43" style="fill: #969086" transform="translate(95.57 -78.49) rotate(90)" width="1.51" x="86.28" y="6.83"/>
        </g>
        <g>
          <rect height="2.88" style="fill: #5d6366" transform="translate(73.28 -60.45) rotate(90)" width="3.53" x="65.1" y="4.97"/>
          <rect height="3.43" style="fill: #969086" transform="translate(71.25 -62.47) rotate(90)" width="1.51" x="66.11" y="2.68"/>
          <rect height="3.43" style="fill: #969086" transform="translate(75.25 -58.47) rotate(90)" width="1.51" x="66.11" y="6.68"/>
        </g>
        <g>
          <rect height="2.88" style="fill: #5d6366" transform="translate(68.41 -56.65) rotate(90)" width="3.53" x="60.77" y="4.44"/>
          <rect height="3.43" style="fill: #969086" transform="translate(66.39 -58.67) rotate(90)" width="1.51" x="61.78" y="2.15"/>
          <rect height="3.43" style="fill: #969086" transform="translate(70.39 -54.67) rotate(90)" width="1.51" x="61.78" y="6.15"/>
        </g>
        <g>
          <rect height="2.88" style="fill: #5d6366" transform="translate(68.72 -56.34) rotate(90)" width="3.53" x="60.77" y="4.75"/>
          <rect height="3.43" style="fill: #969086" transform="translate(66.7 -58.36) rotate(90)" width="1.51" x="61.78" y="2.46"/>
          <rect height="3.43" style="fill: #969086" transform="translate(70.7 -54.36) rotate(90)" width="1.51" x="61.78" y="6.46"/>
        </g>
        <g>
          <g style="mix-blend-mode: multiply">
            <rect height="3.87" style="fill: #fa3131" width="34.15" x="18.41" y="2.63"/>
          </g>
          <g style="mix-blend-mode: multiply">
            <rect height="3.87" style="fill: #3b3b3b" width="34.15" x="18.41" y="8.23"/>
          </g>
          <g>
            <rect height="14.67" style="mix-blend-mode: soft-light;fill: url(#linear-gradient-3)" width="18.41"/>
            <rect height="14.67" style="fill: #c9c9c9" width="4.94"/>
          </g>
          <rect height="1.73" style="fill: #c9c9c9" width="6.7" x="11.71" y="6.5"/>
        </g>
        <rect height="1.61" style="fill: url(#linear-gradient-4)" transform="translate(4.58 20.33) rotate(180)" width="1.61" x="1.49" y="9.36"/>
        <rect height="1.61" style="fill: url(#linear-gradient-5)" transform="translate(4.58 9.12) rotate(180)" width="1.61" x="1.49" y="3.76"/>
      </g>
      <path d="M44.18,20.37V3.42A3,3,0,0,1,47,.29h76.78a3,3,0,0,1,2.83,3.13V20.37Z" style="opacity: 0.85;fill: url(#linear-gradient-6)"/>
      <g style="opacity: 0.85">
        <path d="M44.18,20.36V3.41A3,3,0,0,1,47,.28h76.78a3,3,0,0,1,2.83,3.13V20.36Z" style="mix-blend-mode: multiply;fill: url(#linear-gradient-7)"/>
      </g>
      <g>
        <path d="M97.32,54.9l-.42,0v-.41l.42,0Zm0,.62-.42,0v-.43l.42,0Zm0,.62-.42,0v-.42l.42,0Zm0,.62-.42,0v-.4l.42,0Zm0,.62-.42,0v-.4l.42,0Zm.62-3-.42,0v-.41l.42,0Zm.62.06-.42,0v-.42l.42.05Zm.61.06-.41,0V54l.41,0Zm.63,0-.41,0v-.4l.41,0Zm1.24.12-.41-.05v-.4l.41,0Zm.62.05-.41,0v-.41l.41,0Zm.63.05-.42,0v-.41l.42,0Zm.62.05-.42,0v-.41l.42,0Z"/>
        <path d="M97.3,60.15l-.4,0V59.7l.4,0Zm0,.62-.4,0v-.41l.4,0Zm0,.61-.4,0v-.41l.4,0Zm0,.62-.4,0v-.42l.4,0Zm0,.62-.4,0v-.41l.4,0Zm.62-1.18-.41,0V61l.41,0Zm.62.06-.42,0V61l.42,0Zm.61.05-.41,0V61.1l.41,0Zm.63.05-.41,0v-.4l.41,0Zm.62.05-.42,0v-.4l.42,0Zm.62.07-.42-.05v-.41l.42,0Zm.62,0-.41,0v-.41l.41,0Zm.62.05-.41,0v-.4l.41,0Zm.62.06-.41,0v-.4l.41,0Zm.63-1.18-.41,0v-.41l.41,0Zm0,.61-.41,0v-.42l.41,0Zm0,.62-.41,0v-.42l.41,0Zm0,.62-.41,0v-.41l.41,0Zm0,.62-.41,0v-.4l.41,0Z"/>
        <path d="M97.93,66.94l-.42,0V66.5l.42,0Zm.62.06-.43,0v-.4l.43,0Zm.61.06-.41,0v-.4l.41,0Zm.62,0-.4,0v-.42l.4,0Zm1.25.12-.42-.05v-.4l.42.05Zm.62.05-.41,0v-.41l.41,0Zm.62.05-.41,0v-.41l.41,0Zm.62.05-.42,0v-.4l.42,0Zm.63-1.18-.43,0v-.42l.43,0Zm0,.62-.43,0v-.42l.43,0Zm0,.61-.43,0V67l.43,0Zm0,.62-.43,0V67.6l.43,0Zm0,.62-.43,0v-.42l.43,0Z"/>
        <path d="M97.92,71.13l-.41,0v-.41l.41,0Zm0,3.73-.41,0v-.42l.41,0Zm.62-3.66-.42-.05v-.4l.42,0Zm0,3.71-.42,0v-.42l.42.05Zm.62-3.67-.41,0V70.8l.41,0Zm0,3.72-.41,0V74.5l.41,0Zm.62-3.67-.41,0v-.41l.41,0Zm0,3.73-.41,0v-.41l.41,0Zm.62-3-.42,0v-.42l.42,0Zm0,.62-.42,0v-.42l.42,0Zm0,.62-.42,0v-.4l.42,0Zm0,.62-.42,0v-.41l.42,0Zm0,.62-.42,0V74l.42,0Zm.62-3-.42,0V71L101,71Zm0,3.71-.42,0v-.42l.42,0Zm.62-3.66-.41,0V71l.41,0Zm0,3.72-.41,0v-.41l.41,0Zm.62-3.67-.4,0v-.4l.4,0Zm0,3.72-.4,0v-.42l.4,0Zm.63-3.67-.41,0v-.41l.41,0Zm0,3.72-.41,0v-.42l.41,0Z"/>
        <path d="M97.3,77.51l-.4,0v-.41l.4,0Zm0,.62-.4,0v-.41l.4,0Zm0,.61-.4,0v-.41l.4,0Zm0,.62-.4,0V78.9l.4,0Zm0,.62-.4,0v-.41l.4,0Zm.62-1.18-.41,0v-.4l.41,0Zm.62.06-.42,0v-.41l.42,0Zm.61.05-.41,0v-.41l.41,0Zm.63.05-.41,0v-.4l.41,0Zm.62.05L100,79v-.4l.42,0Zm.62.07L100.6,79v-.41l.42,0Zm.62,0-.41,0v-.41l.41,0Zm.62.05-.41,0v-.4l.41,0Zm.62.06-.41,0v-.4l.41,0ZM103.5,78l-.41,0v-.41l.41,0Zm0,.61-.41,0v-.42l.41,0Zm0,.62-.41,0v-.42l.41,0Zm0,.62-.41,0v-.41l.41,0Zm0,.62-.41,0v-.4l.41,0Z"/>
        <path d="M97.32,83.28l-.42,0v-.42l.42,0Zm0,.62-.42,0v-.41l.42,0Zm0,.62-.42,0v-.41l.42,0Zm0,.61-.42,0v-.41l.42,0Zm0,.62-.42,0v-.42l.42,0Zm.62-3-.42,0v-.41l.42,0Zm0,3.73-.42,0V86l.42,0Zm.62-3.66-.42-.05v-.4l.42,0Zm0,3.71-.42,0V86l.42.05Zm.61-3.67-.41,0v-.41l.41,0Zm0,3.72-.41,0v-.43l.41,0Zm.63-3.67-.41,0v-.41l.41,0Zm0,3.73-.41,0v-.41l.41,0ZM101,83l-.41,0v-.42l.41.05Zm0,3.71-.41,0v-.42l.41,0Zm.62-3.66-.41,0v-.41l.41,0Zm0,3.72-.41,0V86.3l.41,0Zm.63-3.67-.42,0v-.4l.42,0Zm0,3.72-.42,0v-.42l.42,0Zm.62-3.67-.42,0v-.41l.42,0Zm0,3.72-.42,0V86.4l.42,0Z"/>
        <path d="M97.93,88.49l-.41,0V88l.41,0Zm0,3.73-.41,0v-.42l.41,0Zm.62-3.66-.42-.05v-.4l.42,0Zm0,3.71-.42,0V91.8l.42.05Zm.61-3.67-.41,0v-.41l.41,0Zm0,3.72-.41,0v-.43l.41,0Zm.63-3.67-.42,0v-.41l.42,0Zm0,3.73-.42,0v-.41l.42,0ZM101,88.77l-.42,0v-.42l.42.05ZM101,90l-.42,0v-.42l.42.05Zm0,1.24-.42-.05v-.4l.42,0Zm0,1.23-.42,0V92l.42,0Zm.62-3.66-.41,0v-.41l.41,0Zm0,1-.41,0v-.41l.41,0Zm0,1.65-.41,0V91l.41,0Zm0,1-.41,0v-.41l.41,0Zm.62-3.67-.41,0v-.4l.41,0Zm0,.82-.41,0v-.41l.41,0Zm0,2.08-.41,0v-.41l.41,0Zm0,.82-.41,0v-.42l.41,0Zm.62-3.67-.41,0v-.41l.41,0Zm0,.62-.41,0v-.43l.41,0Zm0,2.47-.41,0v-.4l.41,0Zm0,.62-.41,0v-.42l.41,0Z"/>
        <path d="M87.67,53.77l-.42,0v-.41l.42,0Zm.62.07-.43-.05v-.4l.43,0Zm.61,0-.41,0v-.41l.41,0Zm.62.05-.4,0V53.5l.4,0Zm.62.68-.41,0v-.42l.41,0Zm0,.62-.41,0v-.42l.41,0Zm0,.62-.41,0v-.4l.41,0Zm0,.62-.41,0V56l.41,0Zm0,.62-.41,0v-.42l.41,0Zm.62-3-.42,0v-.42l.42.05Zm0,3.71-.42,0v-.42l.42,0Zm.62-3.66-.41,0v-.41l.41,0Zm0,3.72-.41,0v-.41l.41,0ZM92,54.16l-.41,0v-.4l.41,0Zm0,3.72-.41,0v-.42l.41,0Zm.62-3.67-.42,0v-.41l.42,0Zm0,3.72-.42,0v-.42l.42,0Zm.62-3-.43,0v-.41l.43,0Zm0,.61-.43,0v-.41l.43,0Zm0,.62-.43,0v-.42l.43,0Zm0,.62-.43,0v-.42l.43,0Zm0,.62-.43,0v-.41l.43,0Z"/>
        <path d="M87,60.14l-.4,0v-.42l.4,0Zm0,.62-.4,0V60.3l.4,0Zm0,.62-.4,0v-.41l.4,0ZM87,62l-.4,0v-.41l.4,0Zm0,.62-.4,0v-.42l.4,0Zm.62-3-.41,0v-.41l.41,0Zm0,3.73-.41,0v-.42l.41,0Zm.62-3.66-.42-.05v-.4l.42,0Zm0,3.71-.42,0v-.42l.42.05Zm.62-3.67-.41,0v-.41l.41,0Zm0,3.72-.41,0v-.43l.41,0Zm.62-3.67-.41,0v-.41l.41,0Zm0,3.73-.41,0V63l.41,0Zm1.23-3.61-.42,0v-.42l.42.05Zm0,3.71-.42,0V63.1l.42,0Zm.62-3.66-.41,0v-.41l.41,0Zm0,3.72-.41,0v-.41l.41,0ZM92,59.94l-.41,0v-.4l.41,0Zm0,3.72-.41,0v-.42l.41,0ZM92.62,60l-.41,0v-.41l.41,0Zm0,3.72-.41,0v-.42l.41,0Zm.62-3-.41,0v-.41l.41,0Zm0,.61-.41,0v-.41l.41,0Zm0,.62-.41,0v-.42l.41,0Zm0,.62-.41,0v-.42l.41,0Zm0,.62-.41,0V62.7l.41,0Z"/>
        <path d="M87.07,66.47l-.42,0V66l.42,0Zm0,.62-.42,0v-.43l.42,0Zm0,.62-.42,0v-.42l.42,0Zm0,.62-.42,0v-.4l.42,0Zm0,.62-.42,0v-.4l.42,0Zm.62-3-.42,0v-.41l.42,0Zm.62.06-.42,0v-.42l.42.05Zm.62.06-.41,0v-.4l.41,0Zm.62,0-.41,0v-.4l.41,0Zm1.24.12-.41-.05v-.4l.41,0Zm.62.05-.41,0v-.41l.41,0Zm.62.05-.42,0v-.41l.42,0Zm.62.05-.42,0v-.41l.42,0Z"/>
        <path d="M87,71.57l-.41,0v-.41l.41,0Zm0,.62-.41,0v-.43l.41,0Zm0,.62-.41,0v-.42l.41,0Zm0,.62-.41,0V73L87,73ZM87,74l-.41,0v-.4l.41,0Zm.62.67-.42,0v-.41l.42,0Zm.62.06-.42,0v-.42l.42,0Zm.62.05-.41,0v-.42l.41,0Zm.62.05-.4,0v-.43l.4,0Zm.62-3-.41,0v-.43l.41,0Zm0,.62-.41,0V72l.41,0Zm0,.62-.41,0v-.4l.41,0Zm0,.62-.41,0v-.41l.41,0Zm0,.62-.41,0v-.41l.41,0Zm.62-3-.42-.05v-.4l.42,0Zm0,3.71-.42,0v-.42l.42.05Zm.62-3.67-.41,0v-.41l.41,0Zm0,3.72L91,75v-.43l.41,0ZM92,71.39l-.42,0v-.41L92,71Zm0,3.72-.42,0v-.41l.42,0Zm.62-3.67-.42,0V71l.42,0Zm0,3.72-.42,0v-.42l.42,0Z"/>
        <path d="M87.67,76.92l-.41,0v-.41l.41,0Zm0,3.73-.41,0v-.42l.41,0ZM88.3,77l-.42-.05v-.4l.42,0Zm0,3.71-.42,0v-.42l.42.05ZM88.91,77l-.41,0v-.41l.41,0Zm0,3.72-.41,0v-.43l.41,0Zm.62-3.67-.42,0v-.41l.42,0Zm0,3.73-.42,0v-.41l.42,0Zm1.23-3.61-.42,0v-.42l.42.05Zm0,1.24-.42,0V78l.42.05Zm0,1.24-.42-.05v-.4l.42,0Zm0,1.23-.42,0v-.42l.42,0Zm.62-3.66-.41,0V76.8l.41,0Zm0,1-.41,0v-.41l.41,0Zm0,1.65-.41,0v-.42l.41,0Zm0,1-.41,0v-.41l.41,0ZM92,77.3l-.41,0v-.4l.41,0Zm0,.82-.41,0v-.41l.41,0Zm0,2.08-.41,0v-.41l.41,0ZM92,81l-.41,0v-.42l.41,0Zm.62-3.67-.41,0v-.41l.41,0Zm0,.62-.41,0v-.43l.41,0Zm0,2.47-.41,0V80l.41,0Zm0,.62-.41,0v-.42l.41,0Z"/>
        <path d="M87,83.56l-.4,0v-.42l.4,0Zm0,.62-.4,0v-.41l.4,0Zm0,.62-.4,0v-.41l.4,0Zm0,.62-.4,0V85l.4,0ZM87,86l-.4,0v-.41l.4,0Zm.62-3-.41,0v-.4l.41,0Zm.62.05-.42,0v-.4l.42,0Zm.62.06-.41,0v-.41l.41,0Zm.62.05-.41,0v-.41l.41,0Zm.62.67-.42,0v-.41l.42,0Zm0,.62-.42,0V84l.42,0Zm0,.62-.42,0v-.42l.42,0Zm0,.62-.42,0v-.4l.42,0Zm0,.62-.42,0v-.4l.42,0Zm.62-3-.42,0v-.41l.42.05Zm.62.05-.41,0v-.42l.41,0Zm.62.06-.41,0v-.4L92,83Zm.62,0-.41,0V83l.41,0Zm.62.67-.41,0v-.43l.41,0Zm0,.62-.41,0v-.42l.41,0Zm0,.62-.41,0v-.4l.41,0Zm0,.62-.41,0V85.5l.41,0Zm0,.62-.41,0v-.4l.41,0Z"/>
        <path d="M87.67,88.49l-.42,0V88l.42,0Zm0,3.09-.42,0v-.41l.42,0Zm.62-3-.43-.05v-.4l.43,0Zm0,2.88-.43,0V91l.43,0Zm.61-2.84-.41,0v-.41l.41,0Zm0,2.68-.41,0v-.43l.41,0Zm.62-2.63-.4,0v-.41l.4,0Zm0,2.48-.4,0v-.41l.4,0Zm.62-1.79-.41,0v-.42l.41,0Zm0,.62-.41,0v-.42l.41,0Zm0,.62-.41,0v-.4l.41,0Zm0,.62-.41,0v-.41l.41,0Zm0,.62-.41,0v-.42l.41,0Zm.62-3-.42,0v-.42l.42.05Zm0,3.71-.42,0V92l.42,0Zm.62-3.66-.41,0v-.41l.41,0Zm0,3.72-.41,0v-.41l.41,0ZM92,88.87l-.41,0v-.4l.41,0Zm0,3.72-.41,0v-.42l.41,0Zm.62-3.67-.42,0v-.41l.42,0Zm0,3.72-.42,0v-.42l.42,0Zm.62-3-.43,0v-.41l.43,0Zm0,.61-.43,0v-.41l.43,0Zm0,.62-.43,0v-.42l.43,0Zm0,.62-.43,0V91l.43,0Zm0,.62-.43,0v-.41l.43,0Z"/>
        <path d="M76.79,54.07l-.4,0v-.41l.4,0Zm0,.62-.4,0v-.42l.4,0Zm0,.62-.4,0v-.41l.4,0Zm0,.62-.4,0v-.4l.4,0Zm0,.62-.4,0v-.4l.4,0Zm.62-1.19-.41,0v-.42l.41,0Zm0,1.86-.41,0v-.41l.41,0ZM78,55.42l-.42-.05V55L78,55Zm0,1.85-.42,0v-.43l.42.05Zm.62-1.81-.41,0V55l.41,0Zm0,1.85-.41,0v-.42l.41,0Zm.62-1.8-.41,0v-.42l.41,0Zm0,1.86-.41,0v-.41l.41,0Zm.62-1.8-.42,0v-.4l.42,0Zm0,.62-.42,0v-.41l.42,0Zm0,.61-.42,0v-.41l.42,0Zm.62-1.16-.42,0v-.41l.42,0Zm0,1.86-.42-.05V57l.42,0Zm.62-1.82-.41,0v-.4l.41,0Zm0,1.86-.41,0v-.42l.41,0Zm.62-1.8-.41,0v-.41l.41,0Zm0,1.85-.41,0v-.41l.41,0Zm.62-1.8-.41,0v-.41l.41,0Zm0,1.86-.41,0V57.2l.41,0Zm.62-3-.41,0v-.41l.41,0Zm0,.62-.41,0v-.42l.41,0Zm0,.62-.41,0v-.4l.41,0Zm0,.61-.41,0V56L83,56Zm0,.62-.41,0v-.41l.41,0Z"/>
        <path d="M77.42,59.56l-.42,0v-.41l.42,0Zm0,3.73-.42,0v-.42l.42,0ZM78,59.63l-.43-.05v-.4l.43,0Zm0,3.71-.43,0v-.42l.43.05Zm.61-3.67-.41,0v-.41l.41,0Zm0,3.72-.41,0v-.43l.41,0Zm.62-3.67-.4,0v-.41l.4,0Zm0,3.73-.4,0V63l.4,0Zm.62-3-.41,0V60l.41,0Zm0,.62-.41,0v-.42l.41,0Zm0,.62-.41,0v-.4l.41,0Zm0,.62-.41,0v-.41l.41,0Zm0,.62-.41,0v-.42l.41,0Zm.62-3-.42,0v-.42l.42.05Zm0,3.71-.42,0V63.1l.42,0Zm.62-3.66-.41,0v-.41l.41,0Zm0,3.72-.41,0v-.41l.41,0Zm.62-3.67-.41,0v-.4l.41,0Zm0,3.72-.41,0v-.42l.41,0ZM82.37,60l-.42,0v-.41l.42,0Zm0,3.72-.42,0v-.42l.42,0Zm.62-3-.43,0v-.41l.43,0Zm0,.61-.43,0v-.41l.43,0Zm0,.62-.43,0v-.42l.43,0Zm0,.62-.43,0v-.42l.43,0Zm0,.62-.43,0v-.41l.43,0Z"/>
        <path d="M77.42,66.94l-.42,0V66.5l.42,0ZM78,67l-.43,0v-.4l.43,0Zm.61.06-.41,0v-.4l.41,0Zm.62,0-.4,0v-.42l.4,0Zm1.25.12-.42-.05v-.4l.42.05Zm.62.05-.41,0v-.41l.41,0Zm.62.05-.41,0v-.41l.41,0Zm.62.05-.42,0v-.4l.42,0ZM83,66.2l-.43,0v-.42l.43,0Zm0,.62-.43,0v-.42l.43,0Zm0,.61-.43,0V67L83,67ZM83,68l-.43,0V67.6l.43,0Zm0,.62-.43,0v-.42l.43,0Z"/>
        <path d="M77.42,72.73l-.42,0v-.41l.42,0Zm.62.06-.43,0v-.4l.43,0Zm.61.06-.41,0v-.4l.41,0Zm.62,0-.4,0v-.42l.4,0Zm1.25.12L80.09,73v-.4l.42.05Zm.62.05-.41,0v-.41l.41,0Zm.62.05-.41,0v-.41l.41,0Zm.62.05-.42,0v-.4l.42,0ZM83,72l-.43,0v-.42l.43,0Zm0,.62-.43,0v-.42l.43,0Zm0,.61-.43,0v-.4l.43,0Zm0,.62-.43,0v-.41l.43,0Zm0,.62-.43,0V74L83,74Z"/>
        <path d="M76.79,77.77l-.4,0v-.42l.4,0Zm0,.62-.4,0v-.41l.4,0Zm0,.62-.4,0v-.41l.4,0Zm0,.62-.4,0v-.42l.4,0Zm0,.62-.4,0v-.41l.4,0Zm.62-3-.41,0v-.4l.41,0Zm.62.05-.42,0v-.4l.42,0Zm.62.06-.41,0v-.41l.41,0Zm.62.05-.41,0v-.41l.41,0Zm.62.67-.42,0V77.6l.42,0Zm0,.62-.42,0v-.43l.42,0Zm0,.62-.42,0v-.42l.42,0Zm0,.62-.42,0v-.4l.42,0Zm0,.62-.42,0v-.4l.42,0Zm.62-3-.42,0V77l.42.05Zm.62.05-.41,0v-.42l.41,0Zm.62.06-.41,0v-.4l.41,0Zm.62,0-.41,0v-.4l.41,0Zm.62.67-.41,0v-.43l.41,0Zm0,.62-.41,0v-.42l.41,0Zm0,.62-.41,0v-.4l.41,0Zm0,.62-.41,0v-.41l.41,0Zm0,.62-.41,0v-.4l.41,0Z"/>
        <path d="M77.42,82.7l-.42,0v-.41l.42,0Zm0,3.09-.42,0v-.41l.42,0Zm.62-3-.43-.05v-.4l.43,0Zm0,2.88-.43,0V85.2l.43,0Zm.61-2.84-.41,0v-.41l.41,0Zm0,2.68-.41,0V85l.41,0Zm.62-2.63-.4,0v-.41l.4,0Zm0,2.48-.4,0V84.9l.4,0Zm.62-1.79-.41,0v-.42l.41,0Zm0,.62-.41,0v-.42l.41,0Zm0,.62-.41,0v-.4l.41,0Zm0,.62-.41,0v-.41l.41,0Zm0,.62-.41,0v-.42l.41,0Zm.62-3-.42,0v-.42l.42.05Zm0,3.71-.42,0v-.42l.42,0ZM81.13,83l-.41,0v-.41l.41,0Zm0,3.72-.41,0V86.3l.41,0Zm.62-3.67-.41,0v-.4l.41,0Zm0,3.72-.41,0v-.42l.41,0Zm.62-3.67-.42,0v-.41l.42,0Zm0,3.72-.42,0V86.4l.42,0Zm.62-3-.43,0v-.41l.43,0Zm0,.61-.43,0V84L83,84ZM83,85l-.43,0V84.6l.43,0Zm0,.62-.43,0v-.42l.43,0Zm0,.62-.43,0v-.41l.43,0Z"/>
        <path d="M76.79,88.93l-.41,0v-.41l.41,0Zm0,.62-.41,0v-.43l.41,0Zm0,.62-.41,0v-.42l.41,0Zm0,.62-.41,0v-.4l.41,0Zm0,.62-.41,0V91l.41,0Zm.62.67L77,92v-.41l.42,0Zm.62.06-.42,0v-.42l.42,0Zm.62.05-.41,0v-.42l.41,0Zm.62.05-.4,0v-.43l.4,0Zm.62-3-.41,0v-.43l.41,0Zm0,.62-.41,0v-.42l.41,0Zm0,.62-.41,0V90l.41,0Zm0,.62-.41,0V90.6l.41,0Zm0,.62-.41,0v-.41l.41,0Zm.62-3-.42-.05v-.4l.42,0Zm0,3.71-.42,0v-.42l.42.05Zm.62-3.67-.41,0v-.41l.41,0Zm0,3.72-.41,0v-.43l.41,0Zm.62-3.66-.42,0V88.3l.42,0Zm0,3.72-.42,0V92l.42,0Zm.62-3.67-.42,0v-.4l.42,0Zm0,3.72-.42,0V92l.42,0Z"/>
        <path d="M66.54,54.07l-.4,0v-.41l.4,0Zm0,.62-.4,0v-.42l.4,0Zm0,.62-.4,0v-.41l.4,0Zm0,.62-.4,0v-.4l.4,0Zm0,.62-.4,0v-.4l.4,0Zm.62.67-.41,0v-.41l.41,0Zm.62.06-.42,0v-.43l.42.05Zm.62,0-.41,0v-.42l.41,0Zm.62.06-.41,0v-.41L69,57Zm.62-3-.42,0v-.42l.42,0Zm0,.62-.42,0v-.41l.42,0Zm0,.62-.42,0v-.4l.42,0Zm0,.62-.42,0v-.41l.42,0Zm0,.61-.42,0v-.41l.42,0Zm.62.7-.42-.05V57l.42,0Zm.62,0-.41,0v-.42l.41,0Zm.62.05-.41,0v-.41l.41,0Zm.62.06-.41,0V57.2l.41,0Zm.62-3-.41,0v-.41l.41,0Zm0,.62-.41,0v-.42l.41,0Zm0,.62-.41,0v-.4l.41,0Zm0,.61-.41,0V56l.41,0Zm0,.62-.41,0v-.41l.41,0Z"/>
        <path d="M66.21,61.63l-.42,0v-.4l.42,0Z"/>
        <path d="M67.2,68.51l-.41,0v-.42l.41,0Zm.63.06-.43,0v-.42l.43,0Zm.61.06-.42,0v-.41l.42,0Zm.62,0-.4,0v-.42l.4,0Zm1.25.12-.42-.05v-.41l.42,0Zm.62.05-.42,0v-.41l.42,0Zm.62,0-.4,0v-.42l.4,0Zm.62.06-.41,0V68.5l.41,0Zm.63-3-.43,0v-.42l.43,0Zm0,.62-.43,0v-.41l.43,0Zm0,.62-.43,0v-.4l.43,0Zm0,.62-.43,0v-.41l.43,0Zm0,.61-.43,0v-.41l.43,0Z"/>
        <path d="M67.16,71.45l-.41,0V71l.41,0Zm0,.62-.41,0v-.42l.41,0Zm.62-.56-.42,0v-.41l.42,0Zm0,.83-.42-.05v-.4l.42,0Zm.62-.79-.41,0v-.4l.41,0Zm0,1-.41,0v-.41l.41,0Zm.62-1-.42,0v-.41l.42,0Zm0,1.25-.42,0V72.4l.42,0Zm1.23-1.13-.42-.05v-.4l.42,0Zm0,2.47-.42,0v-.41l.42,0Zm.62-2.43-.41,0v-.41l.41,0Zm0,2.68-.41,0V74l.41,0Zm.62-2.63-.41,0v-.42l.41,0Zm0,2.9-.41,0v-.41l.41,0Zm.62-2.84-.41,0v-.4l.41,0Zm0,3.08-.41,0v-.42l.41,0Z"/>
      </g>
    </g>
    <g id="Connectors">
      <rect data-cir-color="red" data-cir-type="female" height="1.61" id="circuitoCon_VCC" style="fill: none" width="1.61" x="1.49" y="3.75"/>
      <rect data-cir-color="black" data-cir-type="female" height="1.61" id="circuitoCon_GND" style="fill: none" width="1.61" x="1.49" y="9.37"/>
    </g>
  </g>
</svg>