<?xml version="1.0" ?><svg data-name="Layer 1" height="13.76mm" id="Layer_1" viewBox="0 0 102.53 39" width="36.17mm" xmlns="http://www.w3.org/2000/svg" xmlns:xlink="http://www.w3.org/1999/xlink">
  <defs>
    <linearGradient gradientTransform="matrix(0, 1, 1, 0, 30.29, -31.76)" gradientUnits="userSpaceOnUse" id="linear-gradient" x1="34.8" x2="68.01" y1="13.18" y2="13.18">
      <stop offset="0" stop-color="#161616"/>
      <stop offset="0.35" stop-color="#343434"/>
      <stop offset="0.5" stop-color="#434343"/>
      <stop offset="0.65" stop-color="#343434"/>
      <stop offset="1" stop-color="#161616"/>
    </linearGradient>
    <linearGradient gradientTransform="matrix(0, 1, 1, 0, 30.29, -31.76)" gradientUnits="userSpaceOnUse" id="linear-gradient-2" x1="38.66" x2="65.28" y1="-14.23" y2="-14.23">
      <stop offset="0" stop-color="#040404"/>
      <stop offset="0.13" stop-color="#0a0a0a"/>
      <stop offset="0.25" stop-color="#131313"/>
      <stop offset="0.38" stop-color="#1f1f1f"/>
      <stop offset="0.5" stop-color="#414141"/>
      <stop offset="0.64" stop-color="#1f1f1f"/>
      <stop offset="0.75" stop-color="#131313"/>
      <stop offset="0.88" stop-color="#0a0a0a"/>
      <stop offset="1" stop-color="#040404"/>
    </linearGradient>
    <linearGradient gradientTransform="matrix(0, 1, 1, 0, 30.29, -31.76)" gradientUnits="userSpaceOnUse" id="linear-gradient-3" x1="42.62" x2="61.31" y1="-28.73" y2="-28.73">
      <stop offset="0" stop-color="#e5e2df"/>
      <stop offset="0" stop-color="#ded9d6"/>
      <stop offset="0.06" stop-color="#cfcac9"/>
      <stop offset="0.18" stop-color="#a8a4a7"/>
      <stop offset="0.26" stop-color="#8b878d"/>
      <stop offset="0.52" stop-color="#f3f4f4"/>
      <stop offset="0.58" stop-color="#e5e5e6"/>
      <stop offset="0.7" stop-color="#c0bec0"/>
      <stop offset="0.86" stop-color="#868085"/>
      <stop offset="0.88" stop-color="#817b80"/>
      <stop offset="1" stop-color="#d2d3d4"/>
      <stop offset="1" stop-color="#a8a9ac"/>
    </linearGradient>
    <linearGradient id="linear-gradient-4" x1="33.33" x2="69.49" xlink:href="#linear-gradient-2" y1="29.05" y2="29.05"/>
    <linearGradient id="linear-gradient-5" x1="34.26" x2="68.54" xlink:href="#linear-gradient-2" y1="24.05" y2="24.05"/>
    <linearGradient id="linear-gradient-6" x1="34.66" x2="68.17" xlink:href="#linear-gradient-2" y1="18.35" y2="18.35"/>
    <linearGradient id="linear-gradient-7" x1="35.34" x2="67.46" xlink:href="#linear-gradient-2" y1="13.17" y2="13.17"/>
    <linearGradient id="linear-gradient-8" x1="35.78" x2="67.03" xlink:href="#linear-gradient-2" y1="7.46" y2="7.46"/>
    <linearGradient id="linear-gradient-9" x1="36.66" x2="66.17" xlink:href="#linear-gradient-2" y1="1.92" y2="1.92"/>
    <linearGradient id="linear-gradient-10" x1="31.76" x2="70.76" xlink:href="#linear-gradient" y1="45.46" y2="45.46"/>
    <radialGradient cx="-1110.81" cy="472.89" gradientTransform="matrix(0.71, -0.71, -0.71, -0.71, 1212.2, -439.94)" gradientUnits="userSpaceOnUse" id="radial-gradient" r="7.11">
      <stop offset="0" stop-color="#fff"/>
      <stop offset="0.21" stop-color="#eaeced"/>
      <stop offset="0.22" stop-color="#e8eaeb"/>
      <stop offset="0.47" stop-color="#bfc8d0"/>
      <stop offset="0.66" stop-color="#a6b3bf"/>
      <stop offset="0.78" stop-color="#9dabb9"/>
      <stop offset="0.83" stop-color="#a3b1bd"/>
      <stop offset="0.9" stop-color="#b6c1ca"/>
      <stop offset="0.96" stop-color="#cbd5d8"/>
      <stop offset="1" stop-color="#d5e0e4"/>
    </radialGradient>
    <linearGradient gradientTransform="matrix(0.71, -0.71, -0.71, -0.71, 1212.2, -439.94)" gradientUnits="userSpaceOnUse" id="linear-gradient-11" x1="-1110.83" x2="-1110.83" y1="473.29" y2="467.59">
      <stop offset="0" stop-color="#fff"/>
      <stop offset="1" stop-color="#c9cdd1"/>
    </linearGradient>
    <linearGradient id="linear-gradient-12" x1="-1110.83" x2="-1110.83" xlink:href="#linear-gradient-11" y1="471.61" y2="470.9"/>
    <radialGradient cx="-1110.76" cy="469.57" gradientTransform="matrix(0.71, -0.71, -0.71, -0.71, 1212.2, -439.94)" gradientUnits="userSpaceOnUse" id="radial-gradient-2" r="3.09">
      <stop offset="0" stop-color="#838a92"/>
      <stop offset="0.33" stop-color="#7c838c"/>
      <stop offset="0.81" stop-color="#686f7a"/>
      <stop offset="1" stop-color="#5f6671"/>
    </radialGradient>
    <radialGradient cx="-1120.81" cy="462.89" id="radial-gradient-3" r="7.11" xlink:href="#radial-gradient"/>
    <linearGradient id="linear-gradient-13" x1="-1120.75" x2="-1120.75" xlink:href="#linear-gradient-11" y1="463.15" y2="457.46"/>
    <linearGradient id="linear-gradient-14" x1="-1120.76" x2="-1120.76" xlink:href="#linear-gradient-11" y1="461.47" y2="460.77"/>
    <radialGradient cx="-467.34" cy="234.06" gradientTransform="matrix(0, 1, 1, 0, 30.29, -31.76)" id="radial-gradient-4" r="3.09" xlink:href="#radial-gradient-2"/>
  </defs>
  <title>BarrelJackTerminalFemale2.1</title>
  <g>
    <g data-name="Layer 1" id="Layer_1-2">
      <polygon points="57.94 3.04 29 6.83 29 33.46 57.94 36.25 57.94 3.04" style="fill: url(#linear-gradient)"/>
      <rect height="26.62" rx="1" ry="1" style="fill: url(#linear-gradient-2)" width="25.88" x="3.12" y="6.9"/>
      <path d="M3.13,29.55V10.86c-1.62,0-3.13.91-3.13,2V27.55c0,1.1,1.33,2,3,2Z" style="fill: url(#linear-gradient-3)"/>
      <path d="M60.06,19.65" style="fill: none"/>
      <rect height="36.16" rx="1" ry="1" style="fill: url(#linear-gradient-4)" width="2.81" x="57.94" y="1.57"/>
      <rect height="34.28" rx="0.95" ry="0.95" style="fill: url(#linear-gradient-5)" width="2.67" x="53.01" y="2.5"/>
      <rect height="33.5" rx="0.93" ry="0.93" style="fill: url(#linear-gradient-6)" width="2.61" x="47.34" y="2.9"/>
      <rect height="32.12" rx="0.89" ry="0.89" style="fill: url(#linear-gradient-7)" width="2.5" x="42.22" y="3.58"/>
      <rect height="31.25" rx="0.86" ry="0.86" style="fill: url(#linear-gradient-8)" width="2.43" x="36.54" y="4.02"/>
      <rect height="29.5" rx="0.84" ry="0.84" style="fill: url(#linear-gradient-9)" width="2.43" x="31" y="4.9"/>
      <g>
        <rect height="39" rx="3.05" ry="3.05" style="fill: url(#linear-gradient-10)" width="30" x="60.75"/>
        <g>
          <circle cx="75.25" cy="11.19" r="4.21" style="fill: none;stroke: #787878;stroke-linecap: round;stroke-miterlimit: 10"/>
          <circle cx="75.5" cy="27.81" r="4.21" style="fill: none;stroke: #787878;stroke-linecap: round;stroke-miterlimit: 10"/>
          <line style="fill: none;stroke: #787878;stroke-linecap: round;stroke-miterlimit: 10" x1="75.25" x2="75.25" y1="9.02" y2="12.98"/>
          <path d="M75.53,25.84v3.95m2-2h-4" style="fill: none;stroke: #787878;stroke-linecap: round;stroke-miterlimit: 10"/>
        </g>
      </g>
      <g>
        <rect height="27.87" style="fill: #7fc67c" width="14.1" x="86.52" y="5.57"/>
        <rect height="27.87" style="fill: #20582c" width="1.91" x="100.62" y="5.57"/>
        <g>
          <circle cx="93.93" cy="12.76" r="4.95" style="fill: url(#radial-gradient)"/>
          <g>
            <path d="M95.53,10.36,94,11.86l-1.51-1.5-1,1,1.5,1.5-1.5,1.5.85.85a.25.25,0,0,0,.35,0h0l1.33-1.29,1.31,1.32a.25.25,0,0,0,.35,0h0l.67-.67a.25.25,0,0,0,0-.35h0l-1.32-1.32,1.32-1.32a.25.25,0,0,0,0-.35h0Z" style="opacity: 0.800000011920929;isolation: isolate;fill: url(#linear-gradient-11)"/>
            <path d="M92.34,15.19l1.5-1.5,1.5,1.5,1-1-1.49-1.5,1.49-1.5-.81-.88a.27.27,0,0,0-.36,0l-1.32,1.32-1.32-1.32a.27.27,0,0,0-.36,0l-.64.69a.25.25,0,0,0,0,.35h0l1.32,1.32L91.53,14a.25.25,0,0,0,0,.35h0Z" style="fill: url(#linear-gradient-12)"/>
            <path d="M95.32,10.34l-1.39,1.39-1.4-1.39a.16.16,0,0,0-.22,0l-.8.81a.14.14,0,0,0,0,.2l0,0,1.38,1.39-1.36,1.38a.14.14,0,0,0,0,.2l0,0,.8.81a.16.16,0,0,0,.22,0l1.38-1.39,1.39,1.39a.16.16,0,0,0,.22,0l.81-.81a.16.16,0,0,0,0-.22L95,12.76l1.39-1.39a.16.16,0,0,0,0-.22l-.82-.81A.17.17,0,0,0,95.32,10.34Z" style="fill: url(#radial-gradient-2)"/>
            <g>
              <path d="M91.91,14.54l1.28-1.27a.17.17,0,0,0,0-.23l-.29-.28-1.37,1.38a.14.14,0,0,0,0,.2l0,0,.39.4A.16.16,0,0,1,91.91,14.54Z" style="fill: #30383a;opacity: 0.4300000071525574;isolation: isolate"/>
              <path d="M91.91,11.54l.81-.8a.16.16,0,0,1,.22,0l-.4-.4a.16.16,0,0,0-.22,0l-.8.81a.14.14,0,0,0,0,.2l0,0,.39.4A.17.17,0,0,1,91.91,11.54Z" style="fill: #30383a;opacity: 0.4300000071525574;isolation: isolate"/>
              <path d="M95.32,10.34l-1.39,1.39.29.27a.16.16,0,0,0,.22,0l1.28-1.26a.16.16,0,0,1,.22,0l-.4-.4A.16.16,0,0,0,95.32,10.34Z" style="fill: #30383a;opacity: 0.4300000071525574;isolation: isolate"/>
            </g>
          </g>
        </g>
        <g>
          <circle cx="93.93" cy="26.9" r="4.95" style="fill: url(#radial-gradient-3)"/>
          <g>
            <path d="M95.71,24.55l-1.5,1.5-1.5-1.5-1,1,1.49,1.5-1.49,1.5.84.84a.25.25,0,0,0,.35,0h0l1.3-1.28,1.32,1.31a.25.25,0,0,0,.35,0h0l.64-.66a.25.25,0,0,0,0-.35h0l-1.29-1.32,1.29-1.32a.25.25,0,0,0,0-.35h0Z" style="opacity: 0.800000011920929;isolation: isolate;fill: url(#linear-gradient-13)"/>
            <path d="M92.53,29.38,94,27.88l1.5,1.5,1-1L95,26.88l1.51-1.53-.85-.85a.25.25,0,0,0-.35,0h0L94,25.82,92.67,24.5a.25.25,0,0,0-.35,0h0l-.67.67a.25.25,0,0,0,0,.35h0L93,26.85l-1.32,1.32a.25.25,0,0,0,0,.35h0Z" style="fill: url(#linear-gradient-14)"/>
            <path d="M95.47,24.53l-1.39,1.38-1.39-1.38a.16.16,0,0,0-.22,0l-.81.8a.17.17,0,0,0,0,.23l1.39,1.38-1.39,1.39a.16.16,0,0,0,0,.22l.81.81a.16.16,0,0,0,.22,0L94.08,28l1.39,1.39a.16.16,0,0,0,.22,0l.84-.84a.14.14,0,0,0,0-.2s0,0,0,0l-1.42-1.39,1.42-1.38a.16.16,0,0,0,0-.21l0,0-.8-.8a.16.16,0,0,0-.22,0S95.48,24.52,95.47,24.53Z" style="fill: url(#radial-gradient-4)"/>
            <g>
              <path d="M92.06,28.73l1.27-1.28a.14.14,0,0,0,0-.2s0,0,0,0l-.28-.29-1.39,1.39a.16.16,0,0,0,0,.22l.4.4A.16.16,0,0,1,92.06,28.73Z" style="fill: #30383a;opacity: 0.4300000071525574;isolation: isolate"/>
              <path d="M92.06,25.73l.81-.81a.16.16,0,0,1,.22,0l-.4-.39a.16.16,0,0,0-.22,0l-.81.8a.17.17,0,0,0,0,.23l.4.39A.16.16,0,0,1,92.06,25.73Z" style="fill: #30383a;opacity: 0.4300000071525574;isolation: isolate"/>
              <path d="M95.47,24.53l-1.39,1.38.28.29a.17.17,0,0,0,.23,0l1.27-1.28a.16.16,0,0,1,.22,0l-.39-.39A.16.16,0,0,0,95.47,24.53Z" style="fill: #30383a;opacity: 0.4300000071525574;isolation: isolate"/>
            </g>
          </g>
        </g>
      </g>
    </g>
    <g id="Connectors">
      <rect data-cir-type="power" data-name="Barrel Jack" height="11.2" id="circuitoCon_BARREL_JACK" style="fill: none" width="2.04" x="17.53" y="14.82"/>
      <circle cx="101.58" cy="12.84" data-cir-color="black" data-cir-type="female" id="circuitoCon_neg" r="0.95" style="fill: none"/>
      <circle cx="101.58" cy="27.27" data-cir-color="red" data-cir-type="female" id="circuitoCon_pos" r="0.95" style="fill: none"/>
    </g>
  </g>
</svg>