<?xml version="1.0" ?><svg height="40.69mm" viewBox="0 0 81.85 115.35" width="28.88mm" xmlns="http://www.w3.org/2000/svg" xmlns:xlink="http://www.w3.org/1999/xlink">
  <defs>
    <linearGradient gradientTransform="matrix(-1, 0, 0, 1, 101.47, 0)" gradientUnits="userSpaceOnUse" id="linear-gradient" x1="21.78" x2="74.03" y1="114.8" y2="114.8">
      <stop offset="0" stop-color="#0e0f0b"/>
      <stop offset="0.01" stop-color="#1a1c18"/>
      <stop offset="0.03" stop-color="#404341"/>
      <stop offset="0.06" stop-color="#626667"/>
      <stop offset="0.08" stop-color="#808587"/>
      <stop offset="0.11" stop-color="#999fa3"/>
      <stop offset="0.15" stop-color="#adb4b9"/>
      <stop offset="0.19" stop-color="#bcc4ca"/>
      <stop offset="0.24" stop-color="#c7cfd5"/>
      <stop offset="0.31" stop-color="#cdd5dc"/>
      <stop offset="0.51" stop-color="#cfd7de"/>
      <stop offset="0.7" stop-color="#cdd5dc"/>
      <stop offset="0.77" stop-color="#c7cfd5"/>
      <stop offset="0.82" stop-color="#bcc4ca"/>
      <stop offset="0.86" stop-color="#adb4b9"/>
      <stop offset="0.89" stop-color="#999fa3"/>
      <stop offset="0.92" stop-color="#808587"/>
      <stop offset="0.95" stop-color="#626667"/>
      <stop offset="0.97" stop-color="#404341"/>
      <stop offset="0.99" stop-color="#1a1c18"/>
      <stop offset="1" stop-color="#0e0f0b"/>
    </linearGradient>
    <linearGradient gradientTransform="translate(-40166.06 -24977.57) rotate(180) scale(71.5)" gradientUnits="userSpaceOnUse" id="linear-gradient-2" x1="-562.92" x2="-562.18" y1="-350.97" y2="-350.97">
      <stop offset="0" stop-color="#080807"/>
      <stop offset="0.02" stop-color="#1d1e1e"/>
      <stop offset="0.06" stop-color="#363739"/>
      <stop offset="0.1" stop-color="#4a4c4f"/>
      <stop offset="0.15" stop-color="#595c60"/>
      <stop offset="0.2" stop-color="#64686b"/>
      <stop offset="0.28" stop-color="#6a6e72"/>
      <stop offset="0.51" stop-color="#6c7074"/>
      <stop offset="0.73" stop-color="#6a6e72"/>
      <stop offset="0.8" stop-color="#64686b"/>
      <stop offset="0.86" stop-color="#595c60"/>
      <stop offset="0.9" stop-color="#4a4c4f"/>
      <stop offset="0.94" stop-color="#363739"/>
      <stop offset="0.98" stop-color="#1d1e1e"/>
      <stop offset="1" stop-color="#080807"/>
    </linearGradient>
    <linearGradient data-name="Silver 02" gradientTransform="matrix(-1, 0, 0, 1, 101.47, 0)" gradientUnits="userSpaceOnUse" id="Silver_02" x1="27.1" x2="43.52" y1="8.14" y2="8.14">
      <stop offset="0" stop-color="#bfbdbe"/>
      <stop offset="0.04" stop-color="#cccbcc"/>
      <stop offset="0.12" stop-color="#e4e3e4"/>
      <stop offset="0.2" stop-color="#f3f2f3"/>
      <stop offset="0.26" stop-color="#f8f7f8"/>
      <stop offset="0.31" stop-color="#f2f1f2"/>
      <stop offset="0.37" stop-color="#e1e0e1"/>
      <stop offset="0.43" stop-color="#c6c4c5"/>
      <stop offset="0.45" stop-color="#bfbdbe"/>
      <stop offset="0.58" stop-color="#bfbdbe"/>
      <stop offset="0.62" stop-color="#cecccd"/>
      <stop offset="0.7" stop-color="#e5e3e4"/>
      <stop offset="0.77" stop-color="#f2f0f1"/>
      <stop offset="0.83" stop-color="#f7f5f6"/>
      <stop offset="1" stop-color="#c0bebf"/>
    </linearGradient>
    <linearGradient id="Silver_02-2" x1="27.1" x2="43.52" xlink:href="#Silver_02" y1="8.26" y2="8.26"/>
    <linearGradient gradientTransform="matrix(-1, 0, 0, 1, 101.47, 0)" gradientUnits="userSpaceOnUse" id="linear-gradient-3" x1="-98.16" x2="205.03" y1="29.7" y2="29.7">
      <stop offset="0.39" stop-color="#bd7b3d"/>
      <stop offset="0.39" stop-color="#c4884d"/>
      <stop offset="0.39" stop-color="#d9ae79"/>
      <stop offset="0.4" stop-color="#e8c999"/>
      <stop offset="0.4" stop-color="#f1d9ad"/>
      <stop offset="0.4" stop-color="#f4dfb4"/>
      <stop offset="0.41" stop-color="#bd7b3d"/>
      <stop offset="0.55" stop-color="#bd7b3d"/>
      <stop offset="0.55" stop-color="#be7d40"/>
      <stop offset="0.55" stop-color="#c28549"/>
      <stop offset="0.55" stop-color="#ca9258"/>
      <stop offset="0.56" stop-color="#d4a46e"/>
      <stop offset="0.56" stop-color="#e1bc8a"/>
      <stop offset="0.56" stop-color="#f0d8ac"/>
      <stop offset="0.56" stop-color="#f4dfb4"/>
      <stop offset="0.56" stop-color="#f2dcb0"/>
      <stop offset="0.57" stop-color="#edd3a6"/>
      <stop offset="0.57" stop-color="#e5c493"/>
      <stop offset="0.57" stop-color="#d9ae7a"/>
      <stop offset="0.57" stop-color="#ca9359"/>
      <stop offset="0.57" stop-color="#bd7b3d"/>
    </linearGradient>
    <linearGradient gradientTransform="matrix(-1, 0, 0, 1, 101.47, 0)" gradientUnits="userSpaceOnUse" id="linear-gradient-4" x1="-98.16" x2="205.03" y1="81.72" y2="81.72">
      <stop offset="0.39" stop-color="#131313"/>
      <stop offset="0.39" stop-color="#343432"/>
      <stop offset="0.39" stop-color="#60605d"/>
      <stop offset="0.4" stop-color="#80807c"/>
      <stop offset="0.4" stop-color="#94948e"/>
      <stop offset="0.4" stop-color="#9b9b95"/>
      <stop offset="0.41" stop-color="#131313"/>
      <stop offset="0.55" stop-color="#131313"/>
      <stop offset="0.55" stop-color="#161616"/>
      <stop offset="0.55" stop-color="#1f1f1e"/>
      <stop offset="0.55" stop-color="#2e2e2d"/>
      <stop offset="0.56" stop-color="#444442"/>
      <stop offset="0.56" stop-color="#60605d"/>
      <stop offset="0.56" stop-color="#82827d"/>
      <stop offset="0.56" stop-color="#9b9b95"/>
      <stop offset="0.56" stop-color="#979792"/>
      <stop offset="0.57" stop-color="#8d8d87"/>
      <stop offset="0.57" stop-color="#7a7a76"/>
      <stop offset="0.57" stop-color="#61615d"/>
      <stop offset="0.57" stop-color="#40403e"/>
      <stop offset="0.57" stop-color="#181818"/>
      <stop offset="0.57" stop-color="#131313"/>
    </linearGradient>
    <linearGradient gradientTransform="translate(-728704.69 -435054.59) rotate(180) scale(1249.04 1249.04)" gradientUnits="userSpaceOnUse" id="linear-gradient-5" x1="-583.57" x2="-583.33" y1="-348.35" y2="-348.35">
      <stop offset="0" stop-color="#d1a47a"/>
      <stop offset="0.39" stop-color="#d1a47a"/>
      <stop offset="0.39" stop-color="#dbb690"/>
      <stop offset="0.39" stop-color="#ead1af"/>
      <stop offset="0.4" stop-color="#f3e2c3"/>
      <stop offset="0.4" stop-color="#f6e8ca"/>
      <stop offset="0.41" stop-color="#d1a47a"/>
      <stop offset="0.55" stop-color="#d1a47a"/>
      <stop offset="0.55" stop-color="#d2a67d"/>
      <stop offset="0.55" stop-color="#d6ae86"/>
      <stop offset="0.56" stop-color="#debb95"/>
      <stop offset="0.56" stop-color="#e8ceab"/>
      <stop offset="0.56" stop-color="#f5e5c7"/>
      <stop offset="0.56" stop-color="#f6e8ca"/>
      <stop offset="0.56" stop-color="#f4e5c6"/>
      <stop offset="0.57" stop-color="#efdcbc"/>
      <stop offset="0.57" stop-color="#e7cca9"/>
      <stop offset="0.57" stop-color="#dbb790"/>
      <stop offset="0.57" stop-color="#d1a47a"/>
      <stop offset="1" stop-color="#d1a47a"/>
    </linearGradient>
    <linearGradient id="Silver_02-3" x1="52.3" x2="67.5" xlink:href="#Silver_02" y1="8.3" y2="8.3"/>
    <linearGradient gradientTransform="matrix(1, 0, 0, -1, -3843.73, -47.77)" id="Silver_02-4" x1="3876.09" x2="3894.42" xlink:href="#Silver_02" y1="-53.13" y2="-53.13"/>
    <linearGradient id="Silver_02-5" x1="52.3" x2="67.5" xlink:href="#Silver_02" y1="8.92" y2="8.92"/>
    <linearGradient gradientTransform="matrix(-1, 0, 0, 1, 132.76, 0)" gradientUnits="userSpaceOnUse" id="linear-gradient-6" x1="50.91" x2="107.31" y1="4.01" y2="4.01">
      <stop offset="0" stop-color="#1c1c1c"/>
      <stop offset="0.15" stop-color="#545454"/>
      <stop offset="0.29" stop-color="#1c1c1c"/>
      <stop offset="0.82" stop-color="#1f1f1f"/>
      <stop offset="0.91" stop-color="#404040"/>
      <stop offset="1" stop-color="#1c1c1c"/>
    </linearGradient>
    <linearGradient gradientTransform="matrix(-1, 0, 0, 1, 132.76, 0)" gradientUnits="userSpaceOnUse" id="linear-gradient-7" x1="79.11" x2="79.11" y1="8.01">
      <stop offset="0"/>
      <stop offset="0.05" stop-color="#333"/>
      <stop offset="0.2" stop-color="#676767" stop-opacity="0"/>
      <stop offset="0.43" stop-color="#4e4f51" stop-opacity="0"/>
      <stop offset="0.85" stop-color="#121212"/>
      <stop offset="0.95" stop-color="#404040"/>
      <stop offset="1"/>
    </linearGradient>
  </defs>
  <title>9V</title>
  <g data-name="Layer 3" id="Layer_3">
    <g>
      <g>
        <path d="M63.49,114.25H79.75c0,.39-.35,1.1-1.72,1.1H29.28c-1.37,0-1.72-.71-1.72-1.1Z" style="fill: url(#linear-gradient)"/>
        <path d="M78,115.21H29.28c-1.07,0-1.52-.44-1.66-.81H79.69c-.15.38-.59.81-1.66.81Zm-50.47-1a.73.73,0,0,0,0,.15h0a1.07,1.07,0,0,0,.59.72h0a2.23,2.23,0,0,0,.86.21H78.25a2.15,2.15,0,0,0,1-.26h0a1.05,1.05,0,0,0,.52-.68h0a.65.65,0,0,0,0-.15H27.56Z" style="fill: url(#linear-gradient-2)"/>
      </g>
      <g>
        <path d="M59.73,6.09H72.54c1.54,0,1.83,2.13,1.83,4.11H57.91C57.91,8.22,58.19,6.09,59.73,6.09Z" style="fill: url(#Silver_02)"/>
        <path d="M59,6.33a6.4,6.4,0,0,0-.62,3.28H73.94a6.39,6.39,0,0,0-.62-3.28c.86.61,1,2.28,1,3.87H57.91C57.91,8.61,58.09,6.93,59,6.33Z" style="fill: url(#Silver_02-2)"/>
      </g>
      <g>
        <path d="M25.46,11.56a1.37,1.37,0,0,1,1.36-1.37H80.49a1.37,1.37,0,0,1,1.36,1.37V49.2H25.46Z" style="fill: url(#linear-gradient-3)"/>
        <path d="M26.82,114.25a1.37,1.37,0,0,1-1.36-1.37V49.2h56.4v63.68a1.37,1.37,0,0,1-1.36,1.37Z" style="fill: url(#linear-gradient-4)"/>
        <polygon points="25.46 46.63 81.85 46.63 81.85 49.2 25.46 49.2 25.46 46.63 25.46 46.63" style="fill: url(#linear-gradient-5)"/>
      </g>
      <g>
        <path d="M35.62,6.39H47.48c1.43,0,1.69,2,1.69,3.8H33.93C33.93,8.36,34.19,6.39,35.62,6.39Z" style="fill: url(#Silver_02-3)"/>
        <path d="M48.73,7.66H34.38c-1.73,0-2-4.15-2-4.15a.42.42,0,0,1,.42-.45H50.32a.42.42,0,0,1,.42.45S50.46,7.66,48.73,7.66Z" style="fill: url(#Silver_02-4)"/>
        <path d="M33.93,10.2H49.18c0-.11,0-.22,0-.33h0a8,8,0,0,0-.29-2.22H34.22l0,.13,0,.13v0h0a9,9,0,0,0-.21,1.94h0C33.93,10,33.93,10.09,33.93,10.2Zm.53-.33a10.52,10.52,0,0,1,0-1.58H48.61a10.42,10.42,0,0,1,0,1.58H34.46Z" style="fill: url(#Silver_02-5)"/>
      </g>
    </g>
    <g>
      <path d="M49.54,82.92h-.7a.68.68,0,0,1-.49-.2.7.7,0,0,1,.49-1.2V76.88h-5a.71.71,0,0,1-.7-.7V72.53a.71.71,0,0,1,.7-.7h5.65a.71.71,0,0,1,.7.7v9.69a.7.7,0,0,1-.7.7Zm-.69-7.47V73.25H44.59v2.21Z" style="fill: #fff"/>
      <path d="M60.62,72.56v2.58l-2.86,7.28a.72.72,0,0,1-1.38,0l-2.84-7.28V72.56a.7.7,0,0,1,.21-.51.7.7,0,0,1,1,0,.7.7,0,0,1,.21.51v2.29l2.14,5.45,2.14-5.44V72.56a.7.7,0,0,1,.21-.51.7.7,0,0,1,1,0A.7.7,0,0,1,60.62,72.56Z" style="fill: #fff"/>
    </g>
  </g>
  <g id="Connectors">
    <g>
      <g>
        <path d="M81.85,8V2.27C81.85,1,79.92,0,79,0H28.56c-.92,0-3.1,1-3.1,2.27V8Z" style="fill: url(#linear-gradient-6)"/>
        <path d="M81.85,8V2.27C81.85,1,79.92,0,79,0H28.56c-.92,0-3.1,1-3.1,2.27V8Z" style="opacity: 0.71;fill: url(#linear-gradient-7)"/>
      </g>
      <path d="M3.06,15.84c1.82-7,7.41-10.93,14.28-11.62,7.19-.18,10.77-.59,10.76-.1L28.17.91C28,.9,24.54.82,17.13,1,8.9,1.84,2.15,6.65,0,14.84c0,.07,3.11.83,3.09.9" style="fill: #fd4f57"/>
      <path d="M6,19.61l0-.19C7.62,12.73,12,8.58,18.39,7.71c6.78-.4,10.12-.43,10.15-.43V4.2c-.14,0-3.43,0-10.42.44-7.76,1-13.18,6.17-15,14.09l0,.21" style="fill: #4d4845"/>
    </g>
    <circle cx="4.57" cy="19.05" data-cir-color="black" data-cir-type="female" id="circuitoCon_neg" r="0.21" style="fill: none"/>
    <circle cx="1.54" cy="15.06" data-cir-color="red" data-cir-type="female" id="circuitoCon_pos" r="0.21" style="fill: none"/>
  </g>
</svg>