<?xml version="1.0" ?><svg height="15.15mm" viewBox="0 0 22.38 42.94" width="7.9mm" xmlns="http://www.w3.org/2000/svg">
  <title>Voltage Regulator 3.3v</title>
  <g data-name="Layer 1" id="Layer_1">
    <g>
      <g>
        <path d="M5.14,42.94V37.88a1.2,1.2,0,0,0,1.16-1.2V30.22H1.65v6.47a1.2,1.2,0,0,0,1.16,1.2v5.05Z" style="fill: #acacac"/>
        <path d="M12.35,42.94V37.88a1.2,1.2,0,0,0,1.16-1.2V30.22H8.87v6.47A1.2,1.2,0,0,0,10,37.88v5.05Z" style="fill: #acacac"/>
        <path d="M19.57,42.94V37.88a1.2,1.2,0,0,0,1.16-1.2V30.22H16.08v6.47a1.2,1.2,0,0,0,1.16,1.2v5.05Z" style="fill: #acacac"/>
      </g>
      <rect height="19.87" style="fill: #2a2e32" width="22.38" y="12.42"/>
      <path d="M19.08,6.24a1.65,1.65,0,0,1,1.65-1.65V0H1.65V4.59a1.65,1.65,0,1,1,0,3.3v4.59H20.73V7.89A1.65,1.65,0,0,1,19.08,6.24ZM11.19,9.76a3.52,3.52,0,1,1,3.52-3.52A3.52,3.52,0,0,1,11.19,9.76Z" style="fill: #acacac"/>
      <rect height="1.35" style="fill: #9a9a9b" width="19.08" x="1.65" y="11.13"/>
      <rect height="1.37" style="fill: #9a9a9b" width="4.65" x="1.65" y="32.3"/>
      <rect height="1.37" style="fill: #9a9a9b" width="4.65" x="8.87" y="32.3"/>
      <rect height="1.37" style="fill: #9a9a9b" width="4.65" x="16.08" y="32.3"/>
    </g>
    <g>
      <path d="M1.66,23.84V19.78a.27.27,0,0,1,.47-.19.26.26,0,0,1,.08.19v3.51H4.15a.27.27,0,0,1,.2.08.26.26,0,0,1,.08.19.26.26,0,0,1-.08.19.27.27,0,0,1-.2.08Z" style="fill: #dfdfdf"/>
      <path d="M6,19.51H7a.76.76,0,0,1,.41.14.85.85,0,0,1,.29.32l.54,1.1a1.28,1.28,0,0,1,0,1.24l-.54,1.08a.83.83,0,0,1-.3.33.8.8,0,0,1-.44.13H6a.28.28,0,0,1-.27-.27.27.27,0,0,1,.08-.2A.26.26,0,0,1,6,23.29h.29V20.06H6A.26.26,0,0,1,5.77,20a.28.28,0,0,1-.08-.2A.28.28,0,0,1,6,19.51Zm.83.55v3.23H7a.29.29,0,0,0,.27-.18L7.8,22a.88.88,0,0,0,.1-.36.73.73,0,0,0-.08-.34l-.56-1.12A.3.3,0,0,0,7,20.06Z" style="fill: #dfdfdf"/>
      <path d="M12.48,20.06v1a.78.78,0,0,1-.22.58.81.81,0,0,1,.23.55v1.07a.52.52,0,0,1-.16.39.53.53,0,0,1-.39.16H10a.27.27,0,1,1,0-.55h1.93V22.22a.28.28,0,0,0-.08-.2.26.26,0,0,0-.19-.08h-1.1a.27.27,0,0,1-.19-.08.27.27,0,0,1,.19-.47h1.11a.28.28,0,0,0,.27-.27V20.06H10a.27.27,0,1,1,0-.55h2a.55.55,0,0,1,.55.55Z" style="fill: #dfdfdf"/>
      <path d="M16.52,20.06v1a.78.78,0,0,1-.22.58.81.81,0,0,1,.23.55v1.07a.53.53,0,0,1-.16.39.54.54,0,0,1-.39.16H14a.27.27,0,0,1,0-.55H16V22.22a.28.28,0,0,0-.08-.2.26.26,0,0,0-.19-.08h-1.1a.27.27,0,0,1-.19-.08.27.27,0,0,1,.19-.47H15.7a.27.27,0,0,0,.19-.08.26.26,0,0,0,.08-.19V20.06H14a.27.27,0,1,1,0-.55h2a.55.55,0,0,1,.55.55Z" style="fill: #dfdfdf"/>
      <path d="M20.56,19.79v1l-1.12,2.84a.28.28,0,0,1-.54,0L17.8,20.8v-1a.27.27,0,0,1,.08-.2.27.27,0,0,1,.39,0,.28.28,0,0,1,.08.2v.89l.83,2.13L20,20.69v-.9a.28.28,0,0,1,.08-.2.27.27,0,0,1,.39,0A.28.28,0,0,1,20.56,19.79Z" style="fill: #dfdfdf"/>
    </g>
  </g>
  <g id="Connectors">
    <rect data-cir-type="male" height="0.78" id="circuitoCon_0" style="fill: #acacac" width="2.32" x="2.81" y="42.15"/>
    <rect data-cir-color="darkred" data-cir-type="male" height="0.78" id="circuitoCon_Vout" style="fill: #acacac" width="2.32" x="10.03" y="42.15"/>
    <rect data-cir-type="male" height="0.78" id="circuitoCon_Vin" style="fill: #acacac" width="2.32" x="17.25" y="42.15"/>
  </g>
</svg>