<?xml version="1.0" ?><svg data-name="Layer 1" height="10.08mm" id="Layer_1" viewBox="0 0 113.4 28.57" width="40.01mm" xmlns="http://www.w3.org/2000/svg" xmlns:xlink="http://www.w3.org/1999/xlink">
  <defs>
    <linearGradient gradientTransform="translate(-1849.42 2310.9)" gradientUnits="userSpaceOnUse" id="linear-gradient" x1="1952.82" x2="1952.82" y1="-2305.8" y2="-2287.06">
      <stop offset="0" stop-color="#474747"/>
      <stop offset="0.05" stop-color="#f3f4f5"/>
      <stop offset="0.21" stop-color="#d2d3d3"/>
      <stop offset="0.91" stop-color="#a1a1a3"/>
      <stop offset="0.97" stop-color="#818181"/>
      <stop offset="0.98" stop-color="#cfcfcf"/>
      <stop offset="1" stop-color="#595959"/>
    </linearGradient>
    <linearGradient gradientTransform="translate(-171.06 -1415.05) rotate(-90)" gradientUnits="userSpaceOnUse" id="linear-gradient-2" x1="-1434.13" x2="-1424.12" y1="185.94" y2="185.94">
      <stop offset="0" stop-color="#010101"/>
      <stop offset="0.02" stop-color="#090909"/>
      <stop offset="0.14" stop-color="#282828"/>
      <stop offset="0.25" stop-color="#3e3e3e"/>
      <stop offset="0.36" stop-color="#4b4b4b"/>
      <stop offset="0.46" stop-color="#505050"/>
      <stop offset="0.59" stop-color="#4d4d4d"/>
      <stop offset="0.71" stop-color="#424242"/>
      <stop offset="0.82" stop-color="#303030"/>
      <stop offset="0.93" stop-color="#161616"/>
      <stop offset="1" stop-color="#010101"/>
    </linearGradient>
    <linearGradient gradientTransform="translate(-171.06 -1415.06) rotate(-90)" gradientUnits="userSpaceOnUse" id="linear-gradient-3" x1="-1436.11" x2="-1422.13" y1="208.88" y2="208.88">
      <stop offset="0" stop-color="#212120"/>
      <stop offset="0.02" stop-color="#252524"/>
      <stop offset="0.18" stop-color="#3b3a3a"/>
      <stop offset="0.33" stop-color="#484747"/>
      <stop offset="0.46" stop-color="#4d4b4c"/>
      <stop offset="0.62" stop-color="#4a4849"/>
      <stop offset="0.76" stop-color="#3f3d3e"/>
      <stop offset="0.89" stop-color="#2d2c2c"/>
      <stop offset="1" stop-color="#181818"/>
    </linearGradient>
    <linearGradient gradientTransform="translate(-171.06 -1415.06) rotate(-90)" gradientUnits="userSpaceOnUse" id="linear-gradient-4" x1="-1443.12" x2="-1415.11" y1="241.13" y2="241.13">
      <stop offset="0" stop-color="#373636"/>
      <stop offset="0.18" stop-color="#3c3c3b"/>
      <stop offset="0.51" stop-color="#3f3f3e"/>
      <stop offset="0.76" stop-color="#3a3a39"/>
      <stop offset="1" stop-color="#30302f"/>
    </linearGradient>
    <linearGradient gradientTransform="translate(-171.06 -1415.06) rotate(-90)" gradientUnits="userSpaceOnUse" id="linear-gradient-5" x1="-1439.07" x2="-1419.23" y1="243.68" y2="243.68">
      <stop offset="0" stop-color="#30302f"/>
      <stop offset="0.22" stop-color="#3a3a39"/>
      <stop offset="0.46" stop-color="#3f3f3e"/>
      <stop offset="0.81" stop-color="#3c3c3b"/>
      <stop offset="1" stop-color="#373636"/>
    </linearGradient>
    <linearGradient gradientTransform="translate(-171.06 -1415.05) rotate(-90)" gradientUnits="userSpaceOnUse" id="linear-gradient-6" x1="-1423.86" x2="-1423.86" y1="279.15" y2="272.17">
      <stop offset="0" stop-color="#010101"/>
      <stop offset="0.74" stop-color="#7a7a7b"/>
      <stop offset="1" stop-color="#010101"/>
    </linearGradient>
    <linearGradient id="linear-gradient-7" x1="-1434.66" x2="-1434.66" xlink:href="#linear-gradient-6" y1="279.15" y2="272.17"/>
  </defs>
  <title>USB Mini cable</title>
  <g data-name="Layer 1" id="Layer_1-2">
    <g>
      <path d="M94.4,5h18.4a.65.65,0,0,1,.6.6V23.1a.65.65,0,0,1-.6.6H94.4a.65.65,0,0,1-.6-.6V5.6A.58.58,0,0,1,94.4,5Z" style="fill: url(#linear-gradient)" transform="translate(0 0.01)"/>
      <rect height="10" style="fill: url(#linear-gradient-2)" width="29.8" y="9.21"/>
      <path d="M45.3,7.2a7,7,0,0,1,7,7h0a7,7,0,0,1-7,7H30.9a7,7,0,0,1-7-7h0a7,7,0,0,1,7-7Z" style="fill: #272626" transform="translate(0 0.01)"/>
      <path d="M31.2,7.2H31a6.28,6.28,0,0,0-1.9.3v4.9H26.9V8.5a6.63,6.63,0,0,0-2.5,3.4h-.8v4.7h.9a7,7,0,0,0,2.4,3.2V16.2H29v4.7a6.28,6.28,0,0,0,1.9.3h.2V16.3h2.2v4.9h2.1V16.3h2.2v4.9h2.1V16.3h2.2v4.9h3.2a7,7,0,1,0,0-14H41.9v5.2H39.7V7.2H37.6v5.2H35.4V7.2H33.3v5.2H31.1V7.2Z" style="fill: url(#linear-gradient-3)" transform="translate(0 0.01)"/>
      <g>
        <path d="M44.3,14.2c0,7.7,7.6,14,16.9,14H93.6a2.18,2.18,0,0,0,2.3-1.9V2.1A2.13,2.13,0,0,0,93.6.2H61.2C51.9.2,44.3,6.5,44.3,14.2Z" style="fill: url(#linear-gradient-4)" transform="translate(0 0.01)"/>
        <path d="M96.1,2.1V26.3a2.34,2.34,0,0,1-2.5,2.1H61.2c-9.5,0-17.1-6.4-17.1-14.2S51.8,0,61.2,0H93.6A2.27,2.27,0,0,1,96.1,2.1ZM44.5,14.2C44.5,21.8,52,28,61.2,28H93.6a1.81,1.81,0,0,0,2-1.6V2.1a2,2,0,0,0-2-1.7H61.2C52,.4,44.5,6.6,44.5,14.2Z" style="fill: #2b2c2b" transform="translate(0 0.01)"/>
      </g>
      <g>
        <path d="M86.7,4.3c2.8,0,5,1.8,5,4.1V20c0,2.3-2.2,4.1-5,4.1H58.6c-2.8,0-5-1.8-5-4.1V8.4c0-2.3,2.2-4.1,5-4.1Z" style="fill: url(#linear-gradient-5)" transform="translate(0 0.01)"/>
        <path d="M91.9,8.4V20c0,2.4-2.3,4.3-5.2,4.3H58.6c-2.9,0-5.2-1.9-5.2-4.3V8.4c0-2.4,2.3-4.3,5.2-4.3H86.7C89.6,4.1,91.9,6,91.9,8.4ZM53.9,20c0,2.2,2.1,3.9,4.8,3.9H86.8c2.6,0,4.8-1.8,4.8-3.9V8.4c0-2.2-2.1-3.9-4.8-3.9H58.6c-2.6,0-4.8,1.8-4.8,3.9Z" style="fill: #2b2c2b" transform="translate(0 0.01)"/>
      </g>
      <path d="M83.5,14l-3.9-1.8v1.2h-11l3-2.7a1.78,1.78,0,0,1,1-.4h.6a1.64,1.64,0,1,0,3.1-1.1,1.6,1.6,0,0,0-2.1-1,1.44,1.44,0,0,0-1,1h-.6a2.34,2.34,0,0,0-1.7.7l-3.2,2.9a2,2,0,0,1-1.5.6,2.51,2.51,0,0,0-4.9,1.1,2.58,2.58,0,0,0,3,1.9,2.47,2.47,0,0,0,1.9-1.9h2.1a3,3,0,0,1,2,.8L73,18a2.34,2.34,0,0,0,1.7.7h.7v1.1h3.2V16.6H75.4v1.1h-.7a1,1,0,0,1-.9-.4l-2.7-2.7-.1-.1h8.6v1.2Z" style="fill: #333" transform="translate(0 0.01)"/>
      <g style="opacity: 0.10000000149011612">
        <image height="67" style="isolation: isolate" transform="translate(43.78 12.49) scale(0.24)" width="209" xlink:href="BDC0E321.png"/>
      </g>
      <g style="opacity: 0.10000000149011612">
        <polygon points="113.4 15.31 113.4 15.61 110.1 15.61 110.1 12.61 106.6 12.61 106.6 15.61 102.2 15.61 102.2 12.61 98.9 12.61 98.9 15.61 95.9 15.61 95.9 15.31 98.6 15.31 98.6 12.41 102.5 12.41 102.5 15.31 106.4 15.31 106.4 12.41 110.4 12.41 110.4 15.31 113.4 15.31" style="fill: #010101"/>
      </g>
      <polygon points="99.8 10.31 109.4 10.31 109.4 10.11 108.6 10.11 108.6 10.11 101.2 10.11 101.2 7.81 108.6 7.81 109 7.81 109.4 7.81 109.4 7.61 99.8 7.61 99.8 10.31" style="fill: #010101;opacity: 0.699999988079071;isolation: isolate"/>
      <rect height="2.3" style="fill: url(#linear-gradient-6)" width="7" x="101.2" y="7.81"/>
      <polygon points="99.8 21.11 109.4 21.11 109.4 20.91 108.6 20.91 108.6 20.91 101.2 20.91 101.2 18.61 108.6 18.61 109 18.61 109.4 18.61 109.4 18.41 99.8 18.41 99.8 21.11" style="fill: #010101;opacity: 0.699999988079071;isolation: isolate"/>
      <rect height="2.3" style="fill: url(#linear-gradient-7)" width="7" x="101.2" y="18.61"/>
    </g>
  </g>
  <g id="Connectors">
    <rect data-cir-type="power" data-name="USB MINI" height="18.4" id="circuitoCon_USB_MINI" style="fill: none" width="8.3" x="100.1" y="5.21"/>
  </g>
</svg>