<?xml version="1.0" ?><svg height="15.15mm" viewBox="0 0 22.38 42.94" width="7.9mm" xmlns="http://www.w3.org/2000/svg">
  <title>Voltage Regulator 5v</title>
  <g data-name="Layer 1" id="Layer_1">
    <g>
      <g>
        <path d="M5.14,42.94V37.88a1.2,1.2,0,0,0,1.16-1.2V30.22H1.65v6.47a1.2,1.2,0,0,0,1.16,1.2v5.05Z" style="fill: #acacac"/>
        <path d="M12.35,42.94V37.88a1.2,1.2,0,0,0,1.16-1.2V30.22H8.87v6.47A1.2,1.2,0,0,0,10,37.88v5.05Z" style="fill: #acacac"/>
        <path d="M19.57,42.94V37.88a1.2,1.2,0,0,0,1.16-1.2V30.22H16.08v6.47a1.2,1.2,0,0,0,1.16,1.2v5.05Z" style="fill: #acacac"/>
      </g>
      <rect height="19.87" style="fill: #2a2e32" width="22.38" y="12.42"/>
      <path d="M19.08,6.24a1.65,1.65,0,0,1,1.65-1.65V0H1.65V4.59a1.65,1.65,0,1,1,0,3.3v4.59H20.73V7.89A1.65,1.65,0,0,1,19.08,6.24ZM11.19,9.76a3.52,3.52,0,1,1,3.52-3.52A3.52,3.52,0,0,1,11.19,9.76Z" style="fill: #acacac"/>
      <rect height="1.35" style="fill: #9a9a9b" width="19.08" x="1.65" y="11.13"/>
      <rect height="1.37" style="fill: #9a9a9b" width="4.65" x="1.65" y="32.3"/>
      <rect height="1.37" style="fill: #9a9a9b" width="4.65" x="8.87" y="32.3"/>
      <rect height="1.37" style="fill: #9a9a9b" width="4.65" x="16.08" y="32.3"/>
    </g>
    <g>
      <path d="M1.28,23V18.75a.29.29,0,0,1,.29-.29.29.29,0,0,1,.29.29v3.7h2a.29.29,0,0,1,.21.08.28.28,0,0,1,0,.41A.29.29,0,0,1,3.9,23Z" style="fill: #dfdfdf"/>
      <path d="M5.52,19v-.25a.29.29,0,0,1,.29-.29H8.42v1.77a.3.3,0,0,1-.11.23l-1.06.91v1.34a.29.29,0,0,1-.08.21A.27.27,0,0,1,7,23a.29.29,0,0,1-.21-.09.27.27,0,0,1-.09-.2V21.28a.32.32,0,0,1,.1-.25l1.06-.9V19H6.09a.28.28,0,0,1-.29.25A.29.29,0,0,1,5.52,19Z" style="fill: #dfdfdf"/>
      <path d="M9.76,22.44V21a.55.55,0,0,1,.17-.41.57.57,0,0,1,.41-.17v-1.7a.28.28,0,0,1,.08-.2.28.28,0,0,1,.21-.08H11.8a.28.28,0,0,1,.2.08.28.28,0,0,1,.08.2v1.7a.56.56,0,0,1,.41.17.55.55,0,0,1,.17.41v1.41a.58.58,0,0,1-.58.58H10.34a.55.55,0,0,1-.41-.18A.57.57,0,0,1,9.76,22.44ZM10.34,21v1.41h1.75V21Zm.58-2v1.41h.6V19Z" style="fill: #dfdfdf"/>
      <path d="M14,22.47V19a.56.56,0,0,1,.56-.56h1.8a.53.53,0,0,1,.39.16.54.54,0,0,1,.16.39v3.45a.56.56,0,0,1-.56.56H14.57a.55.55,0,0,1-.56-.56Zm2.33,0V19H14.59v3.4Z" style="fill: #dfdfdf"/>
      <path d="M19.33,22.44h1.33V21H18.92V18.46h2A.29.29,0,1,1,21,19H19.5v1.41h1.16a.59.59,0,0,1,.58.58v1.41a.58.58,0,0,1-.58.58H19.33a1,1,0,0,1-.38-.09l-.44-.18a.27.27,0,0,1-.18-.27.29.29,0,0,1,.08-.2.25.25,0,0,1,.19-.08.49.49,0,0,1,.2.05l.38.16A.27.27,0,0,0,19.33,22.44Z" style="fill: #dfdfdf"/>
    </g>
  </g>
  <g id="Connectors">
    <rect data-cir-type="male" height="0.78" id="circuitoCon_Vin" style="fill: #acacac" width="2.32" x="2.81" y="42.15"/>
    <rect data-cir-type="male" height="0.78" id="circuitoCon_0" style="fill: #acacac" width="2.32" x="10.03" y="42.15"/>
    <rect data-cir-color="purple" data-cir-type="male" height="0.78" id="circuitoCon_Vout" style="fill: #acacac" width="2.32" x="17.25" y="42.15"/>
  </g>
</svg>