<?xml version="1.0" ?><svg height="11.4mm" viewBox="0 0 105.46 32.31" width="37.2mm" xmlns="http://www.w3.org/2000/svg">
  <title>LipoStepUp</title>
  <g data-name="Layer 5" id="Layer_5">
    <rect height="31.81" style="fill: #8a231e" width="105.39" y="0.25"/>
  </g>
  <g data-name="Layer 4" id="Layer_4">
    <rect height="9.23" style="fill: #cf2f27" width="10.97" y="0.88"/>
    <path d="M18.06,21.44v3.65a5.85,5.85,0,0,1-7-.26V13.36H.1V31.81H32.31V21.44Z" style="fill: #cf2f27" transform="translate(-0.1)"/>
    <rect height="12.58" style="fill: #cf2f27" width="7.38" x="36.18" y="19.44"/>
    <rect height="17.97" style="fill: #cf2f27" width="43.54" x="61.14" y="13.33"/>
    <rect height="9.12" style="fill: #cf2f27" width="18.09" x="86.38" y="0.69"/>
    <polyline points="16.1 9.91 16.1 11.39 17.47 12.75" style="fill: none;stroke: #cf2f27;stroke-miterlimit: 10"/>
    <line style="fill: none;stroke: #cf2f27;stroke-miterlimit: 10" x1="24.47" x2="22.83" y1="9.96" y2="11.6"/>
    <line style="fill: none;stroke: #cf2f27;stroke-miterlimit: 10" x1="27.64" x2="29.09" y1="16.3" y2="16.3"/>
    <polyline points="57.65 9.26 57.65 10.78 61.1 14.22" style="fill: none;stroke: #cf2f27;stroke-miterlimit: 10;stroke-width: 2px"/>
    <polyline points="24.47 12.76 25.28 11.33 32.01 11.33 32.01 14.58 27.97 14.58 27.97 13.31 24.47 13.31 24.53 12.65" style="fill: #cf2f27"/>
    <path d="M40.77,11.1H54.68L58,14.41V30.94H51.87v.88H47.75v-12A3.32,3.32,0,0,0,47,18.19a4.12,4.12,0,0,0-4.28-.94l-2.18-1.5Z" style="fill: #cf2f27" transform="translate(-0.1)"/>
    <polygon points="34.01 6.85 35.6 6.52 36.18 2.53 45.93 2.53 45.93 9.81 37.3 9.81 35.41 7.92 34.01 7.92 34.01 6.85" style="fill: #cf2f27"/>
    <polyline points="59.38 8.9 62.72 12.24 80.39 12.24 84.43 15.24 89.72 15.24 81.28 6.8 61.91 6.8 60.07 4.96 59.88 9.41" style="fill: #cf2f27"/>
    <polygon points="61.14 4.78 57.86 1.5 47.57 1.5 45.93 1.5 45.93 0.38 69.31 0.38 69.31 4.75 61.14 4.78" style="fill: #cf2f27"/>
  </g>
  <g data-name="Layer 2" id="Layer_2">
    <rect height="8.41" rx="0.97" ry="0.97" style="fill: #302f31" width="12.38" x="17.96" y="1.78"/>
    <rect height="1.26" style="fill: #fefff8" width="2.01" x="30.2" y="2.27"/>
    <rect height="1.26" style="fill: #fefff8" width="2.01" x="30.2" y="4.46"/>
    <rect height="1.26" style="fill: #fefff8" width="2.01" x="30.2" y="6.55"/>
    <rect height="1.26" style="fill: #fefff8" width="2.01" x="30.2" y="8.65"/>
    <rect height="1.66" style="fill: #b1c0a0" width="2.44" x="32.21" y="2.13"/>
    <rect height="1.66" style="fill: #b1c0a0" width="2.44" x="32.21" y="8.45"/>
    <rect height="2.78" style="fill: #b1c0a0" width="2.44" x="32.21" y="4.75"/>
    <rect height="1.26" style="fill: #fefff8" transform="translate(34.01 18.66) rotate(-180)" width="2.01" x="16.05" y="8.7"/>
    <rect height="1.26" style="fill: #fefff8" transform="translate(34.01 14.28) rotate(-180)" width="2.01" x="16.05" y="6.51"/>
    <rect height="1.26" style="fill: #fefff8" transform="translate(34.01 10.1) rotate(-180)" width="2.01" x="16.05" y="4.42"/>
    <rect height="1.26" style="fill: #fefff8" transform="translate(34.01 5.91) rotate(-180)" width="2.01" x="16.05" y="2.32"/>
    <rect height="1.66" style="fill: #b1c0a0" transform="translate(29.57 18.56) rotate(-180)" width="2.44" x="13.61" y="8.45"/>
    <rect height="1.66" style="fill: #b1c0a0" transform="translate(29.57 5.91) rotate(-180)" width="2.44" x="13.61" y="2.13"/>
    <rect height="2.78" style="fill: #b1c0a0" transform="translate(29.57 12.18) rotate(-180)" width="2.44" x="13.61" y="4.7"/>
    <rect height="1.46" style="fill: #fbffff" width="1.45" x="24.02" y="15.4"/>
    <rect height="1" style="fill: #929580" width="1.21" x="25.28" y="15.61"/>
    <rect height="1.67" rx="0.57" ry="0.57" style="fill: #968272" width="1.6" x="26.37" y="15.27"/>
    <rect height="1.46" style="fill: #fbffff" width="1.45" x="24.02" y="18.23"/>
    <rect height="1" style="fill: #929580" width="1.21" x="25.28" y="18.44"/>
    <rect height="1.67" rx="0.57" ry="0.57" style="fill: #968272" width="1.6" x="26.37" y="18.11"/>
    <rect height="1.46" style="fill: #fbffff" width="2" x="23.47" y="12.63"/>
    <rect height="1" style="fill: #929580" width="1.21" x="25.28" y="12.84"/>
    <rect height="1.67" rx="0.57" ry="0.57" style="fill: #968272" width="1.6" x="26.37" y="12.5"/>
    <rect height="1.46" style="fill: #fbffff" transform="translate(38.48 32.3) rotate(180)" width="0.96" x="18.81" y="15.42"/>
    <rect height="1" style="fill: #929580" transform="translate(36.96 32.34) rotate(180)" width="0.8" x="18.13" y="15.67"/>
    <rect height="1.67" rx="0.5" ry="0.5" style="fill: #968272" transform="translate(35.27 32.34) rotate(180)" width="1.06" x="17.15" y="15.34"/>
    <rect height="1.46" style="fill: #fbffff" transform="translate(38.81 26.63) rotate(180)" width="1.29" x="18.81" y="12.59"/>
    <rect height="1" style="fill: #929580" transform="translate(36.96 26.67) rotate(180)" width="0.8" x="18.13" y="12.84"/>
    <rect height="1.67" rx="0.5" ry="0.5" style="fill: #968272" transform="translate(35.27 26.67) rotate(180)" width="1.06" x="17.15" y="12.5"/>
    <rect height="1.46" style="fill: #fbffff" transform="translate(38.48 37.84) rotate(180)" width="0.96" x="18.81" y="18.19"/>
    <rect height="1" style="fill: #929580" transform="translate(36.96 37.88) rotate(180)" width="0.8" x="18.13" y="18.44"/>
    <rect height="1.67" rx="0.5" ry="0.5" style="fill: #968272" transform="translate(35.27 37.88) rotate(180)" width="1.06" x="17.15" y="18.11"/>
    <rect height="7.79" rx="0.48" ry="0.48" style="fill: #302f31" width="4.35" x="19.67" y="12.5"/>
    <rect height="1.64" style="fill: #b1aeaa" transform="translate(106.57 6.35) rotate(-180)" width="2.14" x="52.27" y="2.35"/>
    <rect height="1.17" style="fill: #bcbcbc" transform="translate(109.66 6.37) rotate(-180)" width="0.96" x="54.4" y="2.6"/>
    <rect height="1.64" style="fill: #b1aeaa" transform="translate(106.57 11.72) rotate(-180)" width="2.14" x="52.27" y="5.04"/>
    <rect height="1.17" style="fill: #bcbcbc" transform="translate(109.66 11.75) rotate(-180)" width="0.96" x="54.4" y="5.29"/>
    <rect height="1.64" style="fill: #b1aeaa" transform="translate(106.57 17.03) rotate(-180)" width="2.14" x="52.27" y="7.7"/>
    <rect height="1.17" style="fill: #bcbcbc" transform="translate(109.66 17.06) rotate(-180)" width="0.96" x="54.4" y="7.94"/>
    <rect height="1.64" style="fill: #b1aeaa" width="2.14" x="60.84" y="7.62"/>
    <rect height="1.17" style="fill: #bcbcbc" width="0.96" x="59.88" y="7.84"/>
    <rect height="1.64" style="fill: #b1aeaa" width="2.14" x="60.84" y="2.31"/>
    <rect height="1.17" style="fill: #bcbcbc" width="0.96" x="59.88" y="2.53"/>
    <rect height="8" style="fill: #303030" transform="translate(115.24 11.97) rotate(-180)" width="4.63" x="55.36" y="1.99"/>
    <rect height="1.55" style="fill: #b0aca8" width="2.54" x="47.78" y="2.85"/>
    <rect height="1.38" style="fill: #b0aca8" width="2.54" x="47.78" y="8.09"/>
    <rect height="0.58" style="fill: #ebc89a" width="0.21" x="47.57" y="7.51"/>
    <rect height="0.59" style="fill: #ebc89a" width="0.21" x="47.57" y="4.4"/>
    <rect height="0.59" style="fill: #ebc89a" width="0.15" x="50.32" y="4.4"/>
    <rect height="0.58" style="fill: #ebc89a" width="0.15" x="50.32" y="7.51"/>
    <rect height="0.59" style="fill: #ebc89a" width="2.54" x="47.78" y="4.4"/>
    <rect height="0.58" style="fill: #ebc89a" width="2.54" x="47.78" y="7.51"/>
    <polygon points="47.78 4.99 47.57 4.99 47.57 7.51 47.78 7.51 47.78 7.33 50.32 7.33 50.32 7.51 50.47 7.51 50.47 4.99 50.32 4.99 47.78 4.99"/>
    <rect height="0.18" style="fill: #f4f4e7" width="2.54" x="47.78" y="7.33"/>
    <rect height="1.55" style="fill: #b0aca8" width="2.54" x="64.86" y="2.37"/>
    <rect height="1.38" style="fill: #b0aca8" width="2.54" x="64.86" y="7.61"/>
    <rect height="0.59" style="fill: #ebc89a" width="0.15" x="67.4" y="3.92"/>
    <rect height="0.58" style="fill: #ebc89a" width="0.15" x="67.4" y="7.03"/>
    <rect height="0.59" style="fill: #ebc89a" width="2.54" x="64.86" y="3.92"/>
    <rect height="0.58" style="fill: #ebc89a" width="2.54" x="64.86" y="7.03"/>
    <polygon points="64.86 4.51 64.65 4.51 64.65 7.03 64.86 7.03 64.86 6.85 67.4 6.85 67.4 7.03 67.55 7.03 67.55 4.51 67.4 4.51 64.86 4.51"/>
    <rect height="0.18" style="fill: #f4f4e7" width="2.54" x="64.86" y="6.85"/>
    <rect height="1.55" style="fill: #b0aca8" width="2.54" x="13.1" y="21.81"/>
    <rect height="1.38" style="fill: #b0aca8" width="2.54" x="13.1" y="27.05"/>
    <rect height="0.59" style="fill: #ebc89a" width="0.15" x="15.64" y="23.36"/>
    <rect height="0.58" style="fill: #ebc89a" width="0.15" x="15.64" y="26.47"/>
    <rect height="0.59" style="fill: #ebc89a" width="2.54" x="13.1" y="23.36"/>
    <rect height="0.58" style="fill: #ebc89a" width="2.54" x="13.1" y="26.47"/>
    <polygon points="13.1 23.95 12.89 23.95 12.89 26.48 13.1 26.48 13.1 26.3 15.64 26.3 15.64 26.48 15.79 26.48 15.79 23.95 15.64 23.95 13.1 23.95" style="fill: #ab914f"/>
    <rect height="0.18" style="fill: #f4f4e7" width="2.54" x="13.1" y="26.3"/>
    <rect height="3.19" style="fill: #b0aca8" width="4.8" x="38.27" y="1.95"/>
    <rect height="2.85" style="fill: #b0aca8" width="4.8" x="38.27" y="12.76"/>
    <rect height="1.21" style="fill: #ebc89a" width="4.8" x="38.27" y="5.15"/>
    <rect height="1.19" style="fill: #ebc89a" width="4.8" x="38.27" y="11.57"/>
    <polygon points="38.27 6.36 37.88 6.36 37.88 11.57 38.27 11.57 38.27 11.2 43.07 11.2 43.07 11.57 43.35 11.57 43.35 6.36 43.07 6.36 38.27 6.36" style="fill: #ab914f"/>
    <rect height="0.37" style="fill: #f4f4e7" width="4.8" x="38.27" y="11.2"/>
    <rect height="1.14" style="fill: #b0aca8" width="1.87" x="13.43" y="13.67"/>
    <rect height="1.02" style="fill: #b0aca8" width="1.87" x="13.43" y="17.53"/>
    <rect height="0.34" style="fill: #ebc89a" width="0.09" x="14.71" y="14.64"/>
    <rect height="0.34" style="fill: #ebc89a" width="0.09" x="14.71" y="16.46"/>
    <rect height="0.43" style="fill: #ebc89a" width="1.87" x="13.43" y="14.81"/>
    <rect height="0.42" style="fill: #ebc89a" width="1.87" x="13.43" y="17.1"/>
    <polygon points="13.43 15.24 13.27 15.24 13.27 17.1 13.43 17.1 13.43 16.97 15.3 16.97 15.3 17.1 15.41 17.1 15.41 15.24 15.3 15.24 13.43 15.24" style="fill: #271623"/>
    <rect height="0.13" style="fill: #f4f4e7" width="1.87" x="13.43" y="16.97"/>
    <rect height="1.14" style="fill: #b0aca8" width="1.87" x="33.73" y="12.59"/>
    <rect height="1.02" style="fill: #b0aca8" width="1.87" x="33.73" y="16.45"/>
    <rect height="0.43" style="fill: #ebc89a" width="1.87" x="33.73" y="13.73"/>
    <rect height="0.42" style="fill: #ebc89a" width="1.87" x="33.73" y="16.02"/>
    <polygon points="33.73 14.16 33.58 14.16 33.58 16.02 33.73 16.02 33.73 15.89 35.6 15.89 35.6 16.02 35.71 16.02 35.71 14.16 35.6 14.16 33.73 14.16" style="fill: #271623"/>
    <rect height="0.13" style="fill: #f4f4e7" width="1.87" x="33.73" y="15.89"/>
    <rect height="1.14" style="fill: #b0aca8" width="1.87" x="29.9" y="12.65"/>
    <rect height="1.02" style="fill: #b0aca8" width="1.87" x="29.9" y="16.51"/>
    <rect height="0.43" style="fill: #ebc89a" width="1.87" x="29.9" y="13.79"/>
    <rect height="0.42" style="fill: #ebc89a" width="1.87" x="29.9" y="16.09"/>
    <polygon points="29.9 14.23 29.75 14.23 29.75 16.09 29.9 16.09 29.9 15.96 31.77 15.96 31.77 16.09 31.88 16.09 31.88 14.23 31.77 14.23 29.9 14.23" style="fill: #ab914f"/>
    <rect height="0.13" style="fill: #f4f4e7" width="1.87" x="29.9" y="15.96"/>
    <rect height="1.55" style="fill: #b0aca8" width="2.54" x="69.91" y="2.37"/>
    <rect height="1.38" style="fill: #b0aca8" width="2.54" x="69.91" y="7.61"/>
    <rect height="0.59" style="fill: #ebc89a" width="0.15" x="72.44" y="3.92"/>
    <rect height="0.58" style="fill: #ebc89a" width="0.15" x="72.44" y="7.03"/>
    <rect height="0.59" style="fill: #ebc89a" width="2.54" x="69.91" y="3.92"/>
    <rect height="0.58" style="fill: #ebc89a" width="2.54" x="69.91" y="7.03"/>
    <polygon points="69.91 4.51 69.7 4.51 69.7 7.03 69.91 7.03 69.91 6.85 72.44 6.85 72.44 7.03 72.59 7.03 72.59 4.51 72.44 4.51 69.91 4.51" style="fill: #ab914f"/>
    <rect height="0.18" style="fill: #f4f4e7" width="2.54" x="69.91" y="6.85"/>
    <rect height="6.63" style="fill: #cac6bb" width="13.54" x="76.51" y="1.27"/>
    <rect height="8.25" style="fill: #d0d1cd" width="8.63" x="78.62" y="0.38"/>
    <path d="M86.63,8.62h-7s.48-.92.48-4.18S79.6.38,79.6.38h7a16.16,16.16,0,0,0-.53,4.07A17.43,17.43,0,0,0,86.63,8.62Z" style="fill: #b38f70" transform="translate(-0.1)"/>
    <rect height="6.63" style="fill: #cac6bb" width="19.54" x="71.93" y="14.22"/>
    <rect height="8.25" style="fill: #d0d1cd" width="12.45" x="74.97" y="13.33"/>
    <path d="M86.48,21.57H76.34s.69-.92.69-4.18-.69-4.06-.69-4.06H86.48a11.63,11.63,0,0,0-.76,4.07A12.51,12.51,0,0,0,86.48,21.57Z" style="fill: #191318" transform="translate(-0.1)"/>
    <rect height="6.63" style="fill: #cac6bb" width="19.54" x="71.93" y="24.3"/>
    <rect height="8.25" style="fill: #d0d1cd" width="12.45" x="74.97" y="23.42"/>
    <path d="M86.48,31.66H76.34s.69-.92.69-4.18-.69-4.06-.69-4.06H86.48a11.63,11.63,0,0,0-.76,4.07A12.51,12.51,0,0,0,86.48,31.66Z" style="fill: #191318" transform="translate(-0.1)"/>
    <path d="M52.65,14.65H66.44a4.13,4.13,0,0,1,2.29,2.29V28.23a3.51,3.51,0,0,1-.67,1.67,3.68,3.68,0,0,1-2.37,1.38,3,3,0,0,1-3.49-3.49h-5.1a3.51,3.51,0,0,1-.83,2.28,3.58,3.58,0,0,1-2.63,1.19A4.51,4.51,0,0,1,50.56,28V17.27a3.78,3.78,0,0,1,1-1.92A3.65,3.65,0,0,1,52.65,14.65Z" style="fill: #8d7d69" transform="translate(-0.1)"/>
    <path d="M51,20.11a5.66,5.66,0,0,1,4.5-5.94h9.23a6.28,6.28,0,0,1,3.4,5.28l-1,1a.91.91,0,0,0-.75.25.93.93,0,0,0-.21.84.81.81,0,0,0,.21.49.83.83,0,0,0,.63.25l1.29,1.1a7.62,7.62,0,0,1-5.63,6.15H56.15a5,5,0,0,1-2.83-.71,5.66,5.66,0,0,1-2.4-4.52l.82-.82a1.64,1.64,0,0,0,1.49-.24,1.5,1.5,0,0,0,.5-.87,1.61,1.61,0,0,0-1-.75,1.51,1.51,0,0,0-.79,0l-1-.29Z" style="fill: #3c3234" transform="translate(-0.1)"/>
    <path d="M60.9,11.65" style="fill: #3c3234" transform="translate(-0.1)"/>
    <rect height="8.44" style="fill: #dcc69e" width="5.83" x="37.52" y="23.38"/>
    <rect height="8.44" style="fill: #dcc69e" width="5.83" x="25.89" y="23.38"/>
    <rect height="8.44" style="fill: #dcc69e" transform="translate(21.75 13.21) rotate(90)" width="5.83" x="1.4" y="13.31"/>
    <rect height="8.44" style="fill: #dcc69e" transform="translate(10.2 1.67) rotate(90)" width="5.83" x="1.4" y="1.77"/>
    <ellipse cx="1.4" cy="8.84" rx="0.36" ry="0.49" style="fill: #8a231e"/>
    <ellipse cx="3.85" cy="8.84" rx="0.36" ry="0.49" style="fill: #8a231e"/>
    <ellipse cx="6.19" cy="8.84" rx="0.36" ry="0.49" style="fill: #8a231e"/>
    <ellipse cx="8.54" cy="8.7" rx="0.36" ry="0.49" style="fill: #8a231e" transform="translate(-3.48 6.15) rotate(-33.48)"/>
    <rect height="5.92" style="fill: #dcc69e" width="8.25" x="97.05" y="2.86"/>
    <rect height="5.92" style="fill: #dcc69e" width="8.25" x="97.05" y="14.67"/>
    <ellipse cx="98.78" cy="8.71" rx="0.42" ry="0.5" style="fill: #8a231e"/>
    <ellipse cx="101.66" cy="8.71" rx="0.42" ry="0.5" style="fill: #8a231e"/>
    <ellipse cx="95.84" cy="8.71" rx="0.42" ry="0.5" style="fill: #8a231e"/>
    <ellipse cx="98.78" cy="1.16" rx="0.42" ry="0.5" style="fill: #8a231e"/>
    <ellipse cx="95.84" cy="1.16" rx="0.42" ry="0.5" style="fill: #8a231e"/>
    <polygon points="49.87 15.67 49.87 29.57 51.94 31.67 67.4 31.67 69.31 29.76 69.31 15.61 67.39 13.68 51.18 13.68 49.87 15.67" style="fill: none;stroke: #fff;stroke-miterlimit: 10;stroke-width: 0.6000000000000001px"/>
    <polygon points="70.8 12.84 70.8 32.06 92.61 32.06 92.61 12.5 70.8 12.84" style="fill: none;stroke: #fff;stroke-miterlimit: 10;stroke-width: 0.5px"/>
    <line style="fill: none;stroke: #fff;stroke-miterlimit: 10;stroke-width: 0.5px" x1="70.8" x2="92.62" y1="22.28" y2="22.28"/>
    <polyline points="74.97 0.38 74.97 9.47 82.94 9.47" style="fill: none;stroke: #fff;stroke-miterlimit: 10;stroke-width: 0.5px"/>
    <polyline points="84.43 9.5 91.8 9.5 91.8 0.38" style="fill: none;stroke: #fff;stroke-miterlimit: 10;stroke-width: 0.5px"/>
    <path d="M64.09,4.94V1.27h4.27V4.75h1V1.27a.93.93,0,1,1,1.86,0,1,1,0,1,1,2,0h.5V4.94" style="fill: none;stroke: #fff;stroke-miterlimit: 10;stroke-width: 0.5px" transform="translate(-0.1)"/>
    <polyline points="63.99 5.99 63.99 9.81 68.26 9.81 68.26 6.46 69.31 6.46 69.31 9.81 73.55 9.81 73.55 6.25" style="fill: none;stroke: #fff;stroke-miterlimit: 10;stroke-width: 0.5px"/>
    <polygon points="69.31 4.75 68.26 4.78 68.26 1.27 69.31 1.23 69.31 4.75" style="fill: #fff"/>
    <polygon points="69.31 10.04 68.26 10.07 68.26 6.56 69.31 6.52 69.31 10.04" style="fill: #fff"/>
    <polyline points="37.3 8.09 37.3 0.88 43.99 0.88 43.99 7.77" style="fill: none;stroke: #fff;stroke-miterlimit: 10;stroke-width: 0.6000000000000001px"/>
    <polyline points="43.99 9.66 43.99 16.67 37.3 16.67 37.3 9.47" style="fill: none;stroke: #fff;stroke-miterlimit: 10;stroke-width: 0.6000000000000001px"/>
    <polyline points="29.09 15.61 29.09 18.44 32.93 18.44 32.93 15.61" style="fill: none;stroke: #fff;stroke-miterlimit: 10;stroke-width: 0.6000000000000001px"/>
    <polyline points="36.47 15.42 36.47 18.44 31.21 18.44" style="fill: none;stroke: #fff;stroke-miterlimit: 10;stroke-width: 0.6000000000000001px"/>
    <polyline points="36.47 14.39 36.47 11.56 32.64 11.56 32.64 14.39" style="fill: none;stroke: #fff;stroke-miterlimit: 10;stroke-width: 0.6000000000000001px"/>
    <polyline points="29.09 14.58 29.09 11.56 34.36 11.56" style="fill: none;stroke: #fff;stroke-miterlimit: 10;stroke-width: 0.6000000000000001px"/>
    <polyline points="10.97 17.46 12.26 17.46 12.47 17.46 12.47 19.44 16.1 19.44 16.1 16.23" style="fill: none;stroke: #fff;stroke-miterlimit: 10;stroke-width: 0.6000000000000001px"/>
    <polyline points="12.55 15.4 12.55 12.5 16.1 12.5 16.1 15.16" style="fill: none;stroke: #fff;stroke-miterlimit: 10;stroke-width: 0.6000000000000001px"/>
    <line style="fill: none;stroke: #fff;stroke-miterlimit: 10;stroke-width: 0.6000000000000001px" x1="12.55" x2="12.55" y1="16.23" y2="18.11"/>
    <polyline points="12.21 24.44 12.21 20.73 14.33 20.73 14.33 19.69" style="fill: none;stroke: #fff;stroke-miterlimit: 10;stroke-width: 0.6000000000000001px"/>
    <polyline points="14.71 19.77 16.96 21.1 16.96 23.95" style="fill: none;stroke: #fff;stroke-miterlimit: 10;stroke-width: 0.6000000000000001px"/>
    <ellipse cx="1.82" cy="24.14" rx="0.36" ry="0.49" style="fill: #8a231e"/>
    <ellipse cx="4.28" cy="24.14" rx="0.36" ry="0.49" style="fill: #8a231e"/>
    <ellipse cx="6.61" cy="24.14" rx="0.36" ry="0.49" style="fill: #8a231e"/>
    <ellipse cx="1.82" cy="28.23" rx="0.36" ry="0.49" style="fill: #8a231e"/>
    <ellipse cx="4.28" cy="28.23" rx="0.36" ry="0.49" style="fill: #8a231e"/>
    <ellipse cx="6.61" cy="28.23" rx="0.36" ry="0.49" style="fill: #8a231e"/>
    <ellipse cx="92.62" cy="1.16" rx="0.49" ry="0.36" style="fill: #8a231e"/>
    <ellipse cx="92.62" cy="3.62" rx="0.49" ry="0.36" style="fill: #8a231e"/>
    <ellipse cx="92.62" cy="5.95" rx="0.49" ry="0.36" style="fill: #8a231e"/>
    <ellipse cx="92.62" cy="7.9" rx="0.49" ry="0.36" style="fill: #8a231e"/>
  </g>
  <g data-name="Layer 6" id="Layer_6">
    <g>
      <path d="M83.47,26.83a.45.45,0,0,1-.12-.29.39.39,0,0,1,.44-.39h.77a.51.51,0,0,1,.35.11.44.44,0,0,1,.17.32.19.19,0,0,1-.19.21.17.17,0,0,1-.16-.18c0-.1-.06-.12-.15-.12h-.76s-.12,0-.12,0,0,.08.06.1L85,28.18a.42.42,0,0,1,.12.29.39.39,0,0,1-.19.33.46.46,0,0,1-.29.06h-.74a.5.5,0,0,1-.35-.12.48.48,0,0,1-.16-.33.18.18,0,0,1,.18-.2.16.16,0,0,1,.17.16c0,.12.06.14.17.14h.74s.12,0,.12,0,0-.07-.05-.09Z" style="fill: #fff" transform="translate(-0.1)"/>
      <path d="M82.63,27.68H82a.36.36,0,0,1-.28-.1.35.35,0,0,1-.11-.3v-.75a.37.37,0,0,1,.08-.27.34.34,0,0,1,.3-.12h.78a.51.51,0,0,1,.23.06l.13.06c.09,0,.2.07.2.2a.18.18,0,0,1-.17.17.26.26,0,0,1-.11,0l-.1,0a.6.6,0,0,0-.19-.07h-.81v.83h1v1.53H81.77a.17.17,0,1,1,0-.35h.86Z" style="fill: #fff" transform="translate(-0.1)"/>
      <path d="M81.12,28.52a.17.17,0,1,1,0,.35h-1.2a.34.34,0,0,1-.35-.35v-.67a.4.4,0,0,1,.14-.34.4.4,0,0,1-.14-.34V26.5a.34.34,0,0,1,.35-.35h1.2a.17.17,0,1,1,0,.35h-1.2v.58c0,.2.08.25.17.25h.68a.17.17,0,1,1,0,.35h-.68c-.1,0-.17.06-.17.25v.58Z" style="fill: #fff" transform="translate(-0.1)"/>
      <path d="M78.14,27.38v1a.17.17,0,0,1-.35,0v-1a.17.17,0,1,1,0-.35v-.71a.17.17,0,0,1,.35,0V27h1v1.66a.17.17,0,0,1-.35,0V27.38Z" style="fill: #fff" transform="translate(-0.1)"/>
    </g>
    <g>
      <path d="M83.47,17.25a.45.45,0,0,1-.12-.29.39.39,0,0,1,.44-.39h.77a.51.51,0,0,1,.35.11.44.44,0,0,1,.17.32.19.19,0,0,1-.19.21.17.17,0,0,1-.16-.18c0-.1-.06-.12-.15-.12h-.76s-.12,0-.12,0,0,.08.06.1L85,18.6a.42.42,0,0,1,.12.29.39.39,0,0,1-.19.33.46.46,0,0,1-.29.06h-.74a.5.5,0,0,1-.35-.12.48.48,0,0,1-.16-.33.18.18,0,0,1,.18-.2.16.16,0,0,1,.17.16c0,.12.06.14.17.14h.74s.12,0,.12,0,0-.07-.05-.09Z" style="fill: #fff" transform="translate(-0.1)"/>
      <path d="M82.63,18.1H82a.36.36,0,0,1-.28-.1.35.35,0,0,1-.11-.3V17a.37.37,0,0,1,.08-.27.34.34,0,0,1,.3-.12h.78a.51.51,0,0,1,.23.06l.13.06c.09,0,.2.07.2.2a.18.18,0,0,1-.17.17A.26.26,0,0,1,83,17l-.1,0a.6.6,0,0,0-.19-.07h-.81v.83h1v1.53H81.77a.17.17,0,1,1,0-.35h.86Z" style="fill: #fff" transform="translate(-0.1)"/>
      <path d="M81.12,18.93a.17.17,0,1,1,0,.35h-1.2a.34.34,0,0,1-.35-.35v-.67a.4.4,0,0,1,.14-.34.4.4,0,0,1-.14-.34v-.67a.34.34,0,0,1,.35-.35h1.2a.17.17,0,1,1,0,.35h-1.2v.58c0,.2.08.25.17.25h.68a.17.17,0,0,1,0,.35h-.68c-.1,0-.17.06-.17.25v.58Z" style="fill: #fff" transform="translate(-0.1)"/>
      <path d="M78.14,17.8v1a.17.17,0,0,1-.35,0v-1a.17.17,0,0,1,0-.35v-.71a.17.17,0,0,1,.35,0v.71h1v1.66a.17.17,0,0,1-.35,0V17.8Z" style="fill: #fff" transform="translate(-0.1)"/>
    </g>
    <g>
      <path d="M56.19,22.36V20.92a.25.25,0,1,1,.5,0v1.45a.25.25,0,0,1,0,.5v1a.25.25,0,0,1-.5,0v-1H54.72V20.49a.25.25,0,0,1,.5,0v1.87Z" transform="translate(-0.1)"/>
      <path d="M58.57,23.88a.25.25,0,0,1-.5,0V20.24h1.68a.76.76,0,0,1,.79.73v.35a.73.73,0,0,1-.79.71h-.46l1.13,1.61a.5.5,0,0,1,.13.26.24.24,0,0,1-.26.24.26.26,0,0,1-.22-.14l-1.38-2h-.11Zm0-2.36h1.11c.14,0,.36,0,.36-.21V21c0-.2-.21-.23-.35-.23H58.57Z" transform="translate(-0.1)"/>
      <path d="M62.17,20.74a.25.25,0,1,1-.5,0v-.25a.25.25,0,0,1,.25-.25h2.22v1.45c0,.17,0,.2-.13.32l-.7.61c-.13.12-.14.13-.14.3v1a.25.25,0,0,1-.5,0V22.68a.27.27,0,0,1,.13-.29l.69-.59c.17-.15.16-.14.16-.36v-.69Z" transform="translate(-0.1)"/>
    </g>
    <g>
      <path d="M49.5,5.2a.06.06,0,0,1,.13,0v.45a.13.13,0,0,1-.13.13h-.25a.18.18,0,0,0-.25,0h-.25a.13.13,0,0,1-.13-.13V5.2a.06.06,0,0,1,.13,0v.45H49c.07,0,.09,0,.09-.06V5.33a.06.06,0,1,1,.13,0v.25s0,.06.09.06h.22Z" style="fill: #fff" transform="translate(-0.1)"/>
      <path d="M49.5,5.9a.06.06,0,0,1,.13,0v.45a.13.13,0,0,1-.13.13h-.25a.18.18,0,0,0-.25,0h-.25a.13.13,0,0,1-.13-.13V5.9a.06.06,0,0,1,.13,0v.45H49c.07,0,.09,0,.09-.06V6a.06.06,0,1,1,.13,0v.25s0,.06.09.06h.22Z" style="fill: #fff" transform="translate(-0.1)"/>
      <path d="M49.5,6.63a.06.06,0,0,1,.13,0v.45a.13.13,0,0,1-.13.13h-.25a.18.18,0,0,0-.25,0h-.25a.13.13,0,0,1-.13-.13V6.63a.06.06,0,0,1,.13,0v.45H49c.07,0,.09,0,.09-.06V6.76a.06.06,0,1,1,.13,0V7s0,.06.09.06h.22Z" style="fill: #fff" transform="translate(-0.1)"/>
    </g>
    <g>
      <path d="M1.15,12.8a.45.45,0,0,1-.45-.29L.42,12a.67.67,0,0,1-.08-.32.66.66,0,0,1,.08-.33l.28-.56a.45.45,0,0,1,.46-.29h.51a.14.14,0,0,1,.15.15.14.14,0,0,1-.15.15h-.5c-.13,0-.15,0-.21.13l-.26.52a.47.47,0,0,0-.06.23.42.42,0,0,0,.06.21l.26.52c.06.12.09.13.23.13h.49a.14.14,0,0,1,.15.15.14.14,0,0,1-.15.15Z" style="fill: #fff" transform="translate(-0.1)"/>
      <path d="M2.86,11.46l-.09,0-.43.27v.84c0,.1,0,.2-.14.2s-.14-.1-.14-.2V10.78c0-.1,0-.2.14-.2s.14.1.14.2v.65l.23-.15a.49.49,0,0,1,.26-.1H3a.38.38,0,0,1,.28.1c.13.11.12.23.13.39l0,.91c0,.1,0,.22-.14.22s-.14-.1-.14-.2l0-.89c0-.14,0-.25-.16-.25Z" style="fill: #fff" transform="translate(-0.1)"/>
      <path d="M4.16,11.46c-.08,0-.2,0-.2-.14s.1-.14.2-.14h.4a.46.46,0,0,1,.37.13.42.42,0,0,1,.13.34l0,1c0,.08,0,.17-.14.17a.15.15,0,0,1-.15-.14l-.2.1a.26.26,0,0,1-.18,0H4.15a.45.45,0,0,1-.33-.1.4.4,0,0,1-.15-.35v-.13a.38.38,0,0,1,.14-.32.47.47,0,0,1,.34-.11h.62v-.07c0-.22,0-.25-.26-.25Zm0,.61c-.08,0-.19,0-.19.13v.19c0,.1.12.12.19.12h.32l.32-.17v-.06c0-.16,0-.21-.2-.21Z" style="fill: #fff" transform="translate(-0.1)"/>
      <path d="M5.3,11.39c0-.11,0-.21.14-.21s.14.1.14.19v.12l.23-.19a.43.43,0,0,1,.26-.12H6.3a.38.38,0,0,1,.28.11.42.42,0,0,1,.13.33c0,.1,0,.2-.14.2s-.15-.08-.15-.18a.19.19,0,0,0,0-.13c0-.05-.1-.05-.17-.05H6.13a.22.22,0,0,0-.14.07l-.4.33v.73c0,.1,0,.2-.14.2s-.14-.1-.14-.2Z" style="fill: #fff" transform="translate(-0.1)"/>
      <path d="M6.86,11.71a.41.41,0,0,1,.1-.3l.21-.17a.26.26,0,0,1,.18-.07h.28a.53.53,0,0,1,.28.14l.07.06v0a.15.15,0,0,1,.15-.17c.13,0,.14.1.14.2v1.41c0,.26,0,.32-.14.42l-.1.08a.46.46,0,0,1-.36.12H7.19c-.08,0-.2,0-.2-.14s.1-.14.2-.14h.53a.21.21,0,0,0,.14-.07L7.94,13a.17.17,0,0,0,0-.12v-.4l-.06.06a.4.4,0,0,1-.24.14H7.34a.29.29,0,0,1-.22-.09l-.18-.16a.31.31,0,0,1-.09-.27Zm.29.4c0,.06,0,.12,0,.15l.12.1a.12.12,0,0,0,.08,0H7.6a.25.25,0,0,0,.13-.08L8,12.13A.13.13,0,0,0,8,12v-.21a.13.13,0,0,0,0-.1l-.22-.18a.25.25,0,0,0-.13-.08H7.39a.12.12,0,0,0-.08,0l-.12.1s0,.09,0,.15Z" style="fill: #fff" transform="translate(-0.1)"/>
      <path d="M9,12.8a.31.31,0,0,1-.26-.08l-.12-.11a.36.36,0,0,1-.15-.32v-.56a.38.38,0,0,1,.14-.35l.1-.09A.39.39,0,0,1,9,11.18H9.3a.41.41,0,0,1,.32.1l.12.09a.41.41,0,0,1,.15.38V12c0,.17,0,.21-.2.21H8.77v.1a.14.14,0,0,0,0,.08l.07.08a.24.24,0,0,0,.19.05h.62c.1,0,.2,0,.2.14s-.11.14-.2.14Zm-.24-.89H9.6v-.17c0-.05,0-.1,0-.14l-.11-.1a.2.2,0,0,0-.14,0H9.07a.23.23,0,0,0-.15,0l-.1.07a.13.13,0,0,0-.06.13Z" style="fill: #fff" transform="translate(-0.1)"/>
    </g>
    <line style="fill: none;stroke: #fff;stroke-miterlimit: 10;stroke-width: 0.6000000000000001px" x1="8.98" x2="11.84" y1="6.09" y2="6.09"/>
    <line style="fill: none;stroke: #fff;stroke-miterlimit: 10;stroke-width: 0.6000000000000001px" x1="45.3" x2="45.3" y1="28.95" y2="31.81"/>
    <line style="fill: none;stroke: #fff;stroke-miterlimit: 10;stroke-width: 0.6000000000000001px" x1="94.18" x2="94.18" y1="3.56" y2="6.42"/>
    <line style="fill: none;stroke: #fff;stroke-miterlimit: 10;stroke-width: 0.6000000000000001px" x1="9.34" x2="12.21" y1="17.46" y2="17.46"/>
    <line style="fill: none;stroke: #fff;stroke-miterlimit: 10;stroke-width: 0.6000000000000001px" x1="10.78" x2="10.78" y1="16.03" y2="18.89"/>
    <line style="fill: none;stroke: #fff;stroke-miterlimit: 10;stroke-width: 0.6000000000000001px" x1="92.62" x2="95.48" y1="17.25" y2="17.25"/>
    <line style="fill: none;stroke: #fff;stroke-miterlimit: 10;stroke-width: 0.6000000000000001px" x1="94.18" x2="94.18" y1="15.88" y2="18.75"/>
    <line style="fill: none;stroke: #fff;stroke-miterlimit: 10;stroke-width: 0.6000000000000001px" x1="22.22" x2="25.08" y1="30.09" y2="30.09"/>
    <line style="fill: none;stroke: #fff;stroke-miterlimit: 10;stroke-width: 0.6000000000000001px" x1="23.65" x2="23.65" y1="28.73" y2="31.59"/>
    <path d="M25.43,25.23v1.12c0,.59-.36.86-.92.86a.77.77,0,0,1-.63-.26.86.86,0,0,1-.72.26.79.79,0,0,1-.83-.86V25.23Zm-2.71.4v.72c0,.29.13.46.43.46s.52-.09.52-.46v-.72Zm1.35,0v.72c0,.29.13.46.43.46s.52-.09.52-.46v-.72Z" style="fill: #fff" transform="translate(-0.1)"/>
    <g>
      <path d="M36.08,23.43v1.12c0,.59-.36.86-.92.86a.77.77,0,0,1-.63-.26.86.86,0,0,1-.72.26.79.79,0,0,1-.83-.86V23.43Zm-2.71.4v.72c0,.29.13.46.43.46s.52-.09.52-.46v-.72Zm1.35,0v.72c0,.29.13.46.43.46s.52-.09.52-.46v-.72Z" style="fill: #fff" transform="translate(-0.1)"/>
      <path d="M35.87,26.29c.11,0,.2.08.2.2s-.1.18-.2.21l-2.71.77c-.1,0-.2-.08-.2-.19a.24.24,0,0,1,.2-.22l.48-.15v-.85l-.48-.15a.24.24,0,0,1-.2-.22c0-.11.1-.22.2-.19Zm-.74.21h0L34,26.18v.63Z" style="fill: #fff" transform="translate(-0.1)"/>
      <path d="M35.68,27.75h-.14a.2.2,0,0,1,0-.4h.54v2h-.54a.2.2,0,0,1,0-.4h.14v-.39H33.17a.2.2,0,1,1,0-.4h2.51Z" style="fill: #fff" transform="translate(-0.1)"/>
    </g>
    <path d="M46.94,25.23v1.12c0,.59-.36.86-.92.86a.77.77,0,0,1-.63-.26.86.86,0,0,1-.72.26.79.79,0,0,1-.83-.86V25.23Zm-2.71.4v.72c0,.29.13.46.43.46s.52-.09.52-.46v-.72Zm1.35,0v.72c0,.29.13.46.43.46s.52-.09.52-.46v-.72Z" style="fill: #fff" transform="translate(-0.1)"/>
    <g>
      <path d="M100.26,27.82a.91.91,0,0,1,.44-.1,1,1,0,0,1,.48.13l.74.37a.52.52,0,0,1,0,1l-.74.37a1,1,0,0,1-.48.13.91.91,0,0,1-.44-.1l-.79-.4a.52.52,0,0,1,0-1Zm-.6.75c-.06,0-.12.05-.12.14s.06.1.12.14l.72.36a.63.63,0,0,0,.32.09.54.54,0,0,0,.26-.07l.76-.38c.06,0,.12-.06.12-.14s-.06-.11-.12-.14l-.76-.38a.54.54,0,0,0-.26-.07.62.62,0,0,0-.32.09Z" style="fill: #fff" transform="translate(-0.1)"/>
      <path d="M102.25,26.89a.6.6,0,0,1-.2.5.63.63,0,0,1-.48.15H99.34a.2.2,0,1,1,0-.4h2.23c.22,0,.28-.07.28-.25v-.68c0-.18-.06-.25-.28-.25H99.34a.2.2,0,1,1,0-.4h2.23a.63.63,0,0,1,.48.15.6.6,0,0,1,.2.5Z" style="fill: #fff" transform="translate(-0.1)"/>
      <path d="M99.54,25.13h.14a.2.2,0,1,1,0,.4h-.54v-2h.54a.2.2,0,1,1,0,.4h-.14v.39H102a.2.2,0,1,1,0,.4H99.54Z" style="fill: #fff" transform="translate(-0.1)"/>
    </g>
    <g>
      <path d="M97.71,11.22h.74a.41.41,0,0,1,.32.11.39.39,0,0,1,.12.34v.86a.42.42,0,0,1-.1.31.39.39,0,0,1-.35.14h-.89a.58.58,0,0,1-.26-.07l-.15-.07c-.11,0-.23-.08-.23-.22a.2.2,0,0,1,.19-.2.29.29,0,0,1,.13,0l.12.05a.67.67,0,0,0,.21.08h.92v-1H97.31V9.86h1.38a.2.2,0,1,1,0,.4h-1Z" style="fill: #fff" transform="translate(-0.1)"/>
      <path d="M99.28,12.46c-.09,0-.15,0-.21-.08a.25.25,0,0,1,0-.18V12a.25.25,0,0,1,0-.18c.06-.08.12-.08.21-.08h.29c.09,0,.15,0,.21.08a.26.26,0,0,1,0,.18v.22a.25.25,0,0,1,0,.18c-.06.08-.12.08-.21.08Z" style="fill: #fff" transform="translate(-0.1)"/>
      <path d="M101.61,9.86a.4.4,0,0,1,.4.4v2.31a.39.39,0,0,1-.4.4h-1.18a.39.39,0,0,1-.4-.4V10.26a.4.4,0,0,1,.4-.4Zm0,2.71V10.26h-1.18v2.31Z" style="fill: #fff" transform="translate(-0.1)"/>
      <path d="M103.85,10.7v-.64a.2.2,0,1,1,.4,0v.63a.4.4,0,0,1,0,.16l-.76,1.95c0,.1-.08.18-.2.18s-.16-.08-.2-.18l-.76-1.95a.42.42,0,0,1,0-.16v-.63a.2.2,0,1,1,.4,0v.64l.59,1.53Z" style="fill: #fff" transform="translate(-0.1)"/>
    </g>
  </g>
  <g id="Connectors">
    <rect data-cir-type="male" height="5.63" id="circuitoCon_Charge-" style="fill: none" width="8.44" y="3.07"/>
    <rect data-cir-type="male" data-name="circuitoCon_Charge+" height="5.63" id="circuitoCon_Charge+" style="fill: none" width="8.44" y="14.64"/>
    <rect data-cir-type="male" data-name="circuitoCon_OUT5v+" height="5.63" id="circuitoCon_OUT5v+" style="fill: none" width="8.44" x="96.96" y="14.81"/>
    <rect data-cir-type="male" height="5.63" id="circuitoCon_OUT5v-" style="fill: none" width="8.44" x="97.02" y="3.06"/>
    <rect data-cir-type="male" height="5.63" id="circuitoCon_BAT-" style="fill: none" transform="translate(68.06 -12.92) rotate(90)" width="8.44" x="36.32" y="24.8"/>
    <rect data-cir-type="male" data-name="circuitoCon_BAT+" height="5.63" id="circuitoCon_BAT+" style="fill: none" transform="translate(56.42 -1.28) rotate(90)" width="8.44" x="24.68" y="24.8"/>
  </g>
</svg>