<?xml version="1.0" ?><svg height="45.7mm" viewBox="0 0 51 129.54" width="17.99mm" xmlns="http://www.w3.org/2000/svg">
  <title>Arduino Nano - R3</title>
  <g id="Part">
    <g data-name="Layer 9" id="Layer_9">
      <path d="M46.3,1.76H4.7A4.7,4.7,0,0,0,0,6.46V119.91a4.7,4.7,0,0,0,4.7,4.7H46.3a4.7,4.7,0,0,0,4.7-4.7V6.46A4.7,4.7,0,0,0,46.3,1.76ZM47.3,12a1.3,1.3,0,1,1-1.3,1.3A1.3,1.3,0,0,1,47.3,12Zm1.3,8.5a1.3,1.3,0,1,1-1.3-1.3A1.3,1.3,0,0,1,48.61,20.54ZM4.1,12a1.3,1.3,0,1,1-1.3,1.3A1.3,1.3,0,0,1,4.1,12Zm0,7.2a1.3,1.3,0,1,1-1.3,1.3A1.3,1.3,0,0,1,4.1,19.23Zm0,7.2a1.3,1.3,0,1,1-1.3,1.3A1.3,1.3,0,0,1,4.1,26.43ZM1.24,36.94l2.35,1.12v-.82H4.71l.08.88a3.64,3.64,0,0,0,3-4.19,3.47,3.47,0,0,0-3-2.39v1.05H3.65V32a3.27,3.27,0,0,0-1.26-.16l-1,.51V29.91a4.21,4.21,0,0,0,4.16.75,4.46,4.46,0,0,0,2.69-3.17l2-2H24.09l2.22,2.22V31l.29.44-3.26,3.26V37l-.5.5h-.9l-.57-.57H20.12l-1,1v.56H16.3v-.67l.82-.82V35.49l-1.23-1.23H14.22l-1,1V37l-.3.3H11.3l-.85.85v3.58l.53.53v1.19l-.63.63v3.49l.6.6v3l-.49.49L9.06,50.3v-5L7.28,43.53a3.07,3.07,0,0,0,.33-2.17,3,3,0,0,0-1-1.59A3.57,3.57,0,0,0,4.71,38.7a3.88,3.88,0,0,0-3.22,1.07Zm1.56-2a1.3,1.3,0,1,1,1.3,1.3A1.3,1.3,0,0,1,2.8,34.94Zm7.51-13.51a.6.6,0,1,1,.6.6A.6.6,0,0,1,10.31,21.43ZM30.66,64.08v5.36l-1.09.66-.09-.58V68.29L23.91,62.7H21.45l-8.11-8.11V54.3l1.22-1.22V51.43l-1.12-1.12v-2h1.16l.83-.83V44.16H14.8V41.82l.8-.8H19v.61l.85.42-.08,1-1,1v3.06l-1.25,1.28-.77.26-1,1-.17,1.91,1.26,1.14,1,1.88.7.87v.65h-.82v2.14l1.59.59v-.37H20l.27.27.1.43L22.34,59l3.32.36ZM27.31,30a1.12,1.12,0,1,1,1.12,1.12A1.12,1.12,0,0,1,27.31,30ZM12.51,53.28a1.12,1.12,0,1,1,1.12-1.12A1.12,1.12,0,0,1,12.51,53.28ZM14,36.3a1.12,1.12,0,1,1,1.12,1.12A1.12,1.12,0,0,1,14,36.3Zm4.79,14.61a1.12,1.12,0,1,1-1.12-1.12A1.12,1.12,0,0,1,18.75,50.91Zm7.06.82a1.12,1.12,0,1,1,1.12-1.12A1.12,1.12,0,0,1,25.81,51.73ZM4.1,50.64a1.3,1.3,0,1,1,1.3-1.3A1.3,1.3,0,0,1,4.1,50.64Zm1.3,5.9a1.3,1.3,0,1,1-1.3-1.3A1.3,1.3,0,0,1,5.41,56.54ZM4.1,43.44a1.3,1.3,0,1,1,1.3-1.3A1.3,1.3,0,0,1,4.1,43.44Zm0,72a1.3,1.3,0,1,1,1.3-1.3A1.3,1.3,0,0,1,4.1,115.44Zm0-7.2a1.3,1.3,0,1,1,1.3-1.3A1.3,1.3,0,0,1,4.1,108.24Zm0-7.2a1.3,1.3,0,1,1,1.3-1.3A1.3,1.3,0,0,1,4.1,101Zm0-7.2a1.3,1.3,0,1,1,1.3-1.3A1.3,1.3,0,0,1,4.1,93.84Zm0-7.2a1.3,1.3,0,1,1,1.3-1.3A1.3,1.3,0,0,1,4.1,86.64Zm0-7.2a1.3,1.3,0,1,1,1.3-1.3A1.3,1.3,0,0,1,4.1,79.44Zm0-7.2a1.3,1.3,0,1,1,1.3-1.3A1.3,1.3,0,0,1,4.1,72.24Zm0-7.2a1.3,1.3,0,1,1,1.3-1.3A1.3,1.3,0,0,1,4.1,65Zm15.38,3.19L19,68.7,16.31,66H15.4l-1.57,1.57-.08.62-.78.43.57.57-.68.68-.56-.56-.52.52.13.33h-.37L9.72,72.05l.41.85,4.19,4.19v1l-.58.58L8.86,73.84v-9.1H8l-1.36-3.2H1.41V58.86l5.89-.71H9.62L19.49,68Zm1.77,2.12a1.12,1.12,0,1,1,1.12-1.12A1.12,1.12,0,0,1,21.26,70.34Zm2,30.27a1.12,1.12,0,1,1,1.12-1.12A1.12,1.12,0,0,1,23.21,100.62Zm1.21-9a1.12,1.12,0,1,1,1.12,1.12A1.12,1.12,0,0,1,24.42,91.59Zm1.91,8.7a1.12,1.12,0,1,1,1.12-1.12A1.12,1.12,0,0,1,26.33,100.29ZM30,93a1.12,1.12,0,1,1,1.12-1.12A1.12,1.12,0,0,1,30,93Zm3-41.44a1.12,1.12,0,1,1,1.12-1.12A1.12,1.12,0,0,1,33,51.56Zm1.76-2.8a1.12,1.12,0,1,1,1.12,1.12A1.12,1.12,0,0,1,34.77,48.76Zm.64,3.34a1.12,1.12,0,1,1,1.12,1.12A1.12,1.12,0,0,1,35.41,52.11Zm2,12.68a1.12,1.12,0,1,1-1.12,1.12A1.12,1.12,0,0,1,37.43,64.79Zm.2,9a1.12,1.12,0,1,1,1.12-1.12A1.12,1.12,0,0,1,37.63,73.77Zm1.2-21.23A1.12,1.12,0,1,1,40,53.67,1.12,1.12,0,0,1,38.83,52.54Zm2.35,38.08a1.12,1.12,0,1,1-1.12,1.12A1.12,1.12,0,0,1,41.18,90.63Zm.43,9.14a.6.6,0,1,1,.6-.6A.6.6,0,0,1,41.61,99.77Zm-.33-4a1.12,1.12,0,1,1,1.12-1.12A1.12,1.12,0,0,1,41.28,95.74Zm6,19.7a1.3,1.3,0,1,1,1.3-1.3A1.3,1.3,0,0,1,47.3,115.44Zm0-7.2a1.3,1.3,0,1,1,1.3-1.3A1.3,1.3,0,0,1,47.3,108.24Zm0-7.2a1.3,1.3,0,1,1,1.3-1.3A1.3,1.3,0,0,1,47.3,101Zm0-7.2a1.3,1.3,0,1,1,1.3-1.3A1.3,1.3,0,0,1,47.3,93.84Zm0-7.2a1.3,1.3,0,1,1,1.3-1.3A1.3,1.3,0,0,1,47.3,86.64Zm0-7.2a1.3,1.3,0,1,1,1.3-1.3A1.3,1.3,0,0,1,47.3,79.44Zm0-7.2a1.3,1.3,0,1,1,1.3-1.3A1.3,1.3,0,0,1,47.3,72.24Zm0-7.2a1.3,1.3,0,1,1,1.3-1.3A1.3,1.3,0,0,1,47.3,65Zm0-7.2a1.3,1.3,0,1,1,1.3-1.3A1.3,1.3,0,0,1,47.3,57.84Zm0-7.2a1.3,1.3,0,1,1,1.3-1.3A1.3,1.3,0,0,1,47.3,50.64Zm0-7.2a1.3,1.3,0,1,1,1.3-1.3A1.3,1.3,0,0,1,47.3,43.44Zm0-7.2a1.3,1.3,0,1,1,1.3-1.3A1.3,1.3,0,0,1,47.3,36.24Zm0-7.2a1.3,1.3,0,1,1,1.3-1.3A1.3,1.3,0,0,1,47.3,29Zm2.91-4-.14.14h-.47a3.18,3.18,0,0,0-4.28-.31,3.69,3.69,0,0,0-1,1.42,3.81,3.81,0,0,0,0,2.54l-4,4V37l-.27.27H37.4a1.23,1.23,0,0,0-1.05,1.05v.88h.35v1.17h-.46v1l.6.6v1.32l-.61.61,0,2.71-1.43.13-1.06,1.06v.53a1.65,1.65,0,0,1-1.27,0l-.21-.45.53-.53V44.46l-.34-.34V41.77l.22-.22v-.92l-.36-.36v-.46H32v-.72h.5a2.51,2.51,0,0,0,.11-.36,2.72,2.72,0,0,0-.11-1.44H30.93l-.27.27v.56h-1v-.64l.83-.83h2V35.33L35,32.8V26.62l-7.79-7.79H15.55l-4-4.19a2.84,2.84,0,0,0-.32-1.5,2.9,2.9,0,0,0-1.51-1.32A8.45,8.45,0,0,0,8.21,8a5.78,5.78,0,0,0,.53-2.72,5.74,5.74,0,0,0-.53-2.11V3H17v.43L15.61,4.84V7.17l1.06,1,.44,3-2,1,1.49.6v.84l-1.32.6.93.93,6.17.74,1.83,1.83H28L29.71,16l1.76,1.76h3.67l.44-.44,1.82-1a2.31,2.31,0,0,0,.84,1,2.44,2.44,0,0,0,1.93.29,2.6,2.6,0,0,0,0-4.94,2.36,2.36,0,0,0-1.33.08,2.31,2.31,0,0,0-.75.46l-1.2.25V3h7.09l-.78,2.32.21,1.87,1.47,2.24-.44.56a8.85,8.85,0,0,0,0,6.25l1.89.11,0,.65a3.39,3.39,0,0,0-1.58,1.35,3.34,3.34,0,0,0-.47,1.53,3.38,3.38,0,0,0,.59,2.45,3.27,3.27,0,0,0,1.44,1.09l.48-.06v-.53h1.38v.67a4.26,4.26,0,0,0,2.1-1.09Z" style="fill: #214e5e" transform="translate(0 -1.76)"/>
    </g>
    <g data-name="Layer 10" id="Layer_10">
      <path d="M22.34,59l-1.95.18-.1-.43L20,58.51h-.66v.37l-1.59-.59V56.15h.82V55.5l-.7-.87-1-1.88-1.26-1.14.17-1.91,1-1,.77-.26,1.25-1.28V44.07l1-1,.08-1L19,41.63V41H15.59l-.8.8v2.34h.63v3.28l-.83.83H13.44v2l1.12,1.12v1.65L13.34,54.3v.28l8.11,8.11h2.46l5.57,5.59v1.24l.09.58,1.09-.66V64.08l-5-4.69Zm-7.62-8.53a.6.6,0,1,1,.6-.6A.6.6,0,0,1,14.73,50.51Z" style="fill: #2c7981" transform="translate(0 -1.76)"/>
      <path d="M48.11,23.54v-.67H46.73v.53l-.48.06a3.27,3.27,0,0,1-1.44-1.09,3.38,3.38,0,0,1-.59-2.45,3.34,3.34,0,0,1,.47-1.53A3.39,3.39,0,0,1,46.28,17l0-.65-1.89-.11a8.85,8.85,0,0,1,0-6.25l.44-.56L43.38,7.22l-.21-1.87L43.95,3H36.85V13.44l1.2-.25a2.31,2.31,0,0,1,.75-.46,2.36,2.36,0,0,1,1.33-.08,2.6,2.6,0,0,1,0,4.94,2.44,2.44,0,0,1-1.93-.29,2.31,2.31,0,0,1-.84-1l-1.82,1-.44.44H31.46L29.71,16,28,17.7H24.25l-1.83-1.83-6.17-.74-.93-.93,1.32-.6v-.84l-1.49-.6,2-1-.44-3-1.06-1V4.84L17,3.46V3H8.21v.14a5.74,5.74,0,0,1,.53,2.11A5.78,5.78,0,0,1,8.21,8a8.45,8.45,0,0,1,1.5,3.81,2.9,2.9,0,0,1,1.51,1.32,2.84,2.84,0,0,1,.32,1.5l4,4.19H27.17L35,26.62V32.8l-2.53,2.53v1.32h-2l-.83.83v.64h1v-.56l.27-.27h1.55a2.72,2.72,0,0,1,.11,1.44,2.51,2.51,0,0,1-.11.36H32v.72h.27v.46l.36.36v.92l-.22.22v2.35l.34.34V47.3l-.53.53.21.45a1.65,1.65,0,0,0,1.27,0v-.53l1.06-1.06,1.43-.13,0-2.71.61-.61V41.93l-.6-.6v-1h.46V39.17h-.35v-.88a1.23,1.23,0,0,1,1.05-1.05h2.69l.27-.27V32.8l4-4a3.81,3.81,0,0,1,0-2.54,3.69,3.69,0,0,1,1-1.42,3.18,3.18,0,0,1,4.28.31h.47l.14-.14V22.44a4.26,4.26,0,0,1-2.1,1.09ZM38.76,11a.6.6,0,1,1,.6-.6A.6.6,0,0,1,38.76,11ZM16.25,18a.6.6,0,1,1,.6-.6A.6.6,0,0,1,16.25,18Zm13.57,0a.6.6,0,1,1,.6-.6A.6.6,0,0,1,29.82,18Zm4.72,27.39a.6.6,0,1,1,.6-.6A.6.6,0,0,1,34.54,45.41Zm4.13-11.32a.7.7,0,1,1,.7-.7A.7.7,0,0,1,38.67,34.09Z" style="fill: #338085" transform="translate(0 -1.76)"/>
      <line style="fill: none;stroke: #338085;stroke-miterlimit: 10;stroke-width: 0.7000000000000001px" x1="22.58" x2="22.58" y1="71.27" y2="69.92"/>
      <polyline points="23.46 68.59 23.46 66.26 22.2 65 19.73 65 9.92 55.18 6.25 55.18" style="fill: none;stroke: #338085;stroke-miterlimit: 10;stroke-width: 0.7000000000000001px"/>
      <path d="M21.21,70.72a1.5,1.5,0,1,0-1.5-1.5A1.5,1.5,0,0,0,21.21,70.72Zm0-2.3a.8.8,0,1,1-.8.8A.8.8,0,0,1,21.21,68.42Z" style="fill: #338085" transform="translate(0 -1.76)"/>
      <polyline points="45.56 110.73 42.8 107.97 42.8 101.61 33.88 92.63 28.34 92.63 26.52 90.81 26.16 90.44 25.59 89.14 25.59 87.79" style="fill: none;stroke: #338085;stroke-miterlimit: 10"/>
      <polyline points="30.65 85.33 40.16 94.84 43.94 94.84 45.5 96.41" style="fill: none;stroke: #338085;stroke-miterlimit: 10"/>
      <polyline points="33.58 82.37 38.78 87.56 42.57 87.56 44.91 89.91 45.22 90.21" style="fill: none;stroke: #338085;stroke-miterlimit: 10"/>
      <polyline points="34.63 81.31 36.78 83.46 45.22 83.46" style="fill: none;stroke: #338085;stroke-miterlimit: 10"/>
      <path d="M35,79.15h8.21l1.28-1.28.45-.45h.59" style="fill: none;stroke: #338085;stroke-miterlimit: 10" transform="translate(0 -1.76)"/>
      <polyline points="33.97 75.92 40 75.92 45.41 70.51" style="fill: none;stroke: #338085;stroke-miterlimit: 10"/>
      <polyline points="5.71 110.83 9.06 107.48 9.06 101.54 10.53 100.07 14.85 100.07 18.35 96.58 18.35 93.63 23.63 88.35" style="fill: none;stroke: #338085;stroke-miterlimit: 10;stroke-width: 0.7000000000000001px"/>
      <polyline points="22.36 87.46 16.89 92.93 16.89 95.83 14.08 98.65 8.77 98.65 8.77 99.45 7.49 100.73 7.49 101.71 5.72 103.48" style="fill: none;stroke: #338085;stroke-miterlimit: 10;stroke-width: 0.7000000000000001px"/>
      <polyline points="6.26 98.16 7.08 98.16 7.91 97.32 13.34 97.32 15.53 95.12 15.53 92.61 15.53 92.46 21.36 86.63" style="fill: none;stroke: #338085;stroke-miterlimit: 10;stroke-width: 0.7000000000000001px"/>
      <polyline points="20.43 85.53 19.05 86.91 11.94 86.91 7.91 90.94 6.43 90.94" style="fill: none;stroke: #338085;stroke-miterlimit: 10;stroke-width: 0.7000000000000001px"/>
      <polyline points="19.41 84.42 18.38 85.45 14.1 85.45 12.29 83.65 6.26 83.65" style="fill: none;stroke: #338085;stroke-miterlimit: 10;stroke-width: 0.7000000000000001px"/>
      <polyline points="18.54 83.58 18.07 84.05 15.02 84.05 7.63 76.65 6.26 76.65" style="fill: none;stroke: #338085;stroke-miterlimit: 10;stroke-width: 0.7000000000000001px"/>
      <polyline points="17.69 82.52 15.67 82.52 4.39 71.24" style="fill: none;stroke: #338085;stroke-miterlimit: 10;stroke-width: 0.7000000000000001px"/>
      <polyline points="31.86 74 32.69 73.17 38.45 73.17 42.35 69.28 42.35 55.99 42.35 55.71 43.57 54.48 45.1 54.48" style="fill: none;stroke: #338085;stroke-miterlimit: 10;stroke-width: 0.7000000000000001px"/>
      <polyline points="32.83 75.06 33.25 74.63 39.27 74.63 43.55 70.34 43.55 62.84 44.4 61.99 45.1 61.99" style="fill: none;stroke: #338085;stroke-miterlimit: 10;stroke-width: 0.7000000000000001px"/>
      <polyline points="45.9 27.27 41.63 31.55 41.63 46.42 40.44 47.61 40.24 47.81 39.3 47.81 37.19 49.92" style="fill: none;stroke: #338085;stroke-miterlimit: 10;stroke-width: 0.7000000000000001px"/>
      <polyline points="40.4 50.1 43.26 47.24 43.26 36.88 45.59 34.55" style="fill: none;stroke: #338085;stroke-miterlimit: 10;stroke-width: 1.5px"/>
      <line style="fill: none;stroke: #338085;stroke-miterlimit: 10;stroke-width: 0.7000000000000001px" x1="12.25" x2="12.25" y1="45.56" y2="49.48"/>
      <line style="fill: none;stroke: #338085;stroke-miterlimit: 10;stroke-width: 0.7000000000000001px" x1="20.4" x2="17.7" y1="45.56" y2="48.26"/>
      <polyline points="20.2 37.89 15.09 37.89 15.09 35.61 15.09 35.42" style="fill: none;stroke: #338085;stroke-miterlimit: 10;stroke-width: 0.7000000000000001px"/>
      <line style="fill: none;stroke: #2c7981;stroke-miterlimit: 10;stroke-width: 0.7000000000000001px" x1="29.92" x2="32.34" y1="45.68" y2="48.1"/>
      <polyline points="24.43 70.61 26.02 69.32 26.02 66.76 22.66 63.41 20.01 63.41 5.55 48.95" style="fill: none;stroke: #338085;stroke-miterlimit: 10;stroke-width: 0.7000000000000001px"/>
      <polyline points="27.78 70.21 28.16 69.83 28.16 66.96 23.07 61.87 20.65 61.87 7.81 49.04 7.81 43.77 5.81 41.77" style="fill: none;stroke: #338085;stroke-miterlimit: 10;stroke-width: 0.7000000000000001px"/>
      <polyline points="6.15 25.75 9.29 22.6 24.67 22.6 28.25 26.19 28.25 27.95" style="fill: none;stroke: #338085;stroke-miterlimit: 10;stroke-width: 0.7000000000000001px"/>
      <path d="M4.71,38.7a3.57,3.57,0,0,1,1.94,1.07,3,3,0,0,1,1,1.59,3.07,3.07,0,0,1-.33,2.17l1.79,1.73v5l1.39,1.31.49-.49v-3l-.6-.6V44l.63-.63V42.22l-.53-.53V38.12l.85-.85h1.58l.3-.3V35.3l1-1h1.67l1.23,1.23V37l-.82.82v.67h2.81v-.56l1-1h1.24l.57.57h.9l.5-.5V34.71l3.26-3.26L26.31,31V27.72L24.09,25.5H10.21l-2,2a4.46,4.46,0,0,1-2.69,3.17,4.21,4.21,0,0,1-4.16-.75v2.42l1-.51A3.27,3.27,0,0,1,3.65,32v.6H4.79V31.54a3.47,3.47,0,0,1,3,2.39,3.64,3.64,0,0,1-3,4.19l-.08-.88H3.59v.82L1.24,36.94l.25,2.84A3.88,3.88,0,0,1,4.71,38.7Zm10.17-8.89a.6.6,0,1,1-.6.6A.6.6,0,0,1,14.89,29.81Z" style="fill: #2c7981" transform="translate(0 -1.76)"/>
      <polyline points="25.96 47.94 25.96 34.19 27.74 32.41 29.67 32.41 32.25 29.83 32.25 25.68 26.27 19.71 14.6 19.71 11.52 16.62 9.33 16.62 6.34 13.63" style="fill: none;stroke: #338085;stroke-miterlimit: 10;stroke-width: 0.7000000000000001px"/>
    </g>
    <g data-name="Layer 4" id="Layer_4">
      <g>
        <rect height="3.07" style="fill: #b1aeaa" width="3.54" x="11.19" y="36.36"/>
        <rect height="3.07" style="fill: #b1aeaa" width="3.54" x="11.19" y="42.8"/>
        <rect height="5.3" style="fill: #edca9c" width="4.04" x="10.9" y="38.58"/>
        <rect height="3.63" style="fill: #f7f6e9" width="4.04" x="10.9" y="39.43"/>
      </g>
      <g>
        <rect height="3.07" style="fill: #b1aeaa" width="3.54" x="19.9" y="36.36"/>
        <rect height="3.07" style="fill: #b1aeaa" width="3.54" x="19.9" y="42.8"/>
        <rect height="5.3" style="fill: #edca9c" width="4.04" x="19.6" y="38.58"/>
        <rect height="3.63" style="fill: #f7f6e9" width="4.04" x="19.6" y="39.43"/>
      </g>
      <g>
        <rect height="3.07" style="fill: #b1aeaa" width="3.54" x="28.44" y="36.36"/>
        <rect height="3.07" style="fill: #b1aeaa" width="3.54" x="28.44" y="42.8"/>
        <rect height="5.3" style="fill: #edca9c" width="4.04" x="28.15" y="38.58"/>
        <rect height="3.63" style="fill: #f7f6e9" width="4.04" x="28.15" y="39.43"/>
      </g>
      <g>
        <rect height="3.07" style="fill: #b1aeaa" width="3.54" x="37.06" y="36.36"/>
        <rect height="3.07" style="fill: #b1aeaa" width="3.54" x="37.06" y="42.8"/>
        <rect height="5.3" style="fill: #edca9c" width="4.04" x="36.77" y="38.58"/>
        <rect height="3.63" style="fill: #f7f6e9" width="4.04" x="36.77" y="39.43"/>
      </g>
      <ellipse cx="12.65" cy="52.46" rx="0.09" ry="0.02" style="fill: #fff" transform="translate(-38.45 33.38) rotate(-57.72)"/>
      <circle cx="12.51" cy="50.39" r="0.7" style="fill: none;stroke: #686966;stroke-miterlimit: 10;stroke-width: 0.30000000000000004px"/>
      <ellipse cx="14.87" cy="50.22" rx="0.09" ry="0.02" style="fill: #fff" transform="translate(-35.53 34.21) rotate(-57.72)"/>
      <circle cx="14.73" cy="48.15" r="0.7" style="fill: none;stroke: #686966;stroke-miterlimit: 10;stroke-width: 0.30000000000000004px"/>
      <ellipse cx="17.77" cy="51.22" rx="0.09" ry="0.02" style="fill: #fff" transform="translate(-35.02 37.13) rotate(-57.72)"/>
      <circle cx="17.62" cy="49.15" r="0.7" style="fill: none;stroke: #686966;stroke-miterlimit: 10;stroke-width: 0.30000000000000004px"/>
      <ellipse cx="25.96" cy="50.91" rx="0.09" ry="0.02" style="fill: #fff" transform="translate(-30.95 43.91) rotate(-57.72)"/>
      <circle cx="25.81" cy="48.85" r="0.7" style="fill: none;stroke: #686966;stroke-miterlimit: 10;stroke-width: 0.30000000000000004px"/>
      <ellipse cx="33.16" cy="51.01" rx="0.09" ry="0.02" style="fill: #fff" transform="translate(-27.68 50.04) rotate(-57.72)"/>
      <circle cx="33.01" cy="48.95" r="0.7" style="fill: none;stroke: #686966;stroke-miterlimit: 10;stroke-width: 0.30000000000000004px"/>
      <ellipse cx="36.73" cy="52.62" rx="0.09" ry="0.02" style="fill: #fff" transform="translate(-27.37 53.82) rotate(-57.72)"/>
      <circle cx="36.59" cy="50.56" r="0.7" style="fill: none;stroke: #686966;stroke-miterlimit: 10;stroke-width: 0.30000000000000004px"/>
      <ellipse cx="40.35" cy="53.01" rx="0.09" ry="0.02" style="fill: #fff" transform="translate(-26.02 57.05) rotate(-57.72)"/>
      <circle cx="40.2" cy="50.94" r="0.7" style="fill: none;stroke: #686966;stroke-miterlimit: 10;stroke-width: 0.30000000000000004px"/>
      <ellipse cx="37.58" cy="66.22" rx="0.09" ry="0.02" style="fill: #fff" transform="translate(-38.47 60.86) rotate(-57.72)"/>
      <circle cx="37.43" cy="64.15" r="0.7" style="fill: none;stroke: #686966;stroke-miterlimit: 10;stroke-width: 0.30000000000000004px"/>
      <ellipse cx="37.78" cy="72.86" rx="0.09" ry="0.02" style="fill: #fff" transform="translate(-43.99 64.13) rotate(-57.72)"/>
      <circle cx="37.63" cy="70.79" r="0.7" style="fill: none;stroke: #686966;stroke-miterlimit: 10;stroke-width: 0.30000000000000004px"/>
      <ellipse cx="41.33" cy="91.96" rx="0.09" ry="0.02" style="fill: #fff" transform="translate(-58.49 76.03) rotate(-57.72)"/>
      <circle cx="41.18" cy="89.9" r="0.7" style="fill: none;stroke: #686966;stroke-miterlimit: 10;stroke-width: 0.30000000000000004px"/>
      <ellipse cx="41.33" cy="95.12" rx="0.09" ry="0.02" style="fill: #fff" transform="translate(-61.16 77.5) rotate(-57.72)"/>
      <circle cx="41.18" cy="93.05" r="0.7" style="fill: none;stroke: #686966;stroke-miterlimit: 10;stroke-width: 0.30000000000000004px"/>
      <ellipse cx="26.48" cy="99.57" rx="0.09" ry="0.02" style="fill: #fff" transform="translate(-71.84 67.02) rotate(-57.72)"/>
      <circle cx="26.34" cy="97.51" r="0.7" style="fill: none;stroke: #686966;stroke-miterlimit: 10;stroke-width: 0.30000000000000004px"/>
      <circle cx="37.95" cy="108.92" r="0.6" style="fill: #fff"/>
      <ellipse cx="38.09" cy="110.99" rx="0.09" ry="0.02" style="fill: #fff" transform="translate(-76.08 82.16) rotate(-57.72)"/>
      <circle cx="37.95" cy="108.92" r="0.7" style="fill: none;stroke: #686966;stroke-miterlimit: 10;stroke-width: 0.30000000000000004px"/>
      <circle cx="23.3" cy="97.81" r="0.6" style="fill: #fff"/>
      <ellipse cx="23.45" cy="99.88" rx="0.09" ry="0.02" style="fill: #fff" transform="translate(-73.51 64.6) rotate(-57.72)"/>
      <circle cx="30.16" cy="90.3" r="0.6" style="fill: #fff"/>
      <ellipse cx="30.3" cy="92.37" rx="0.09" ry="0.02" style="fill: #fff" transform="translate(-63.97 66.9) rotate(-57.72)"/>
      <ellipse cx="41.76" cy="99.47" rx="0.09" ry="0.02" style="fill: #fff" transform="translate(-64.64 79.89) rotate(-57.72)"/>
      <circle cx="41.61" cy="97.41" r="0.7" style="fill: none;stroke: #686966;stroke-miterlimit: 10;stroke-width: 0.30000000000000004px"/>
      <ellipse cx="25.69" cy="91.9" rx="0.09" ry="0.02" style="fill: #fff" transform="translate(-65.72 62.78) rotate(-57.72)"/>
      <ellipse cx="21.26" cy="69.52" rx="0.09" ry="0.02" style="fill: #fff" transform="translate(-48.87 48.61) rotate(-57.72)"/>
      <circle cx="21.11" cy="67.46" r="0.7" style="fill: none;stroke: #686966;stroke-miterlimit: 10;stroke-width: 0.30000000000000004px"/>
      <ellipse cx="14.09" cy="65.25" rx="0.09" ry="0.02" style="fill: #fff" transform="translate(-48.6 40.56) rotate(-57.72)"/>
      <circle cx="13.94" cy="63.19" r="0.7" style="fill: none;stroke: #686966;stroke-miterlimit: 10;stroke-width: 0.30000000000000004px"/>
      <ellipse cx="35.98" cy="49.18" rx="0.09" ry="0.02" style="fill: #fff" transform="translate(-24.82 51.58) rotate(-57.72)"/>
      <circle cx="35.83" cy="47.12" r="0.7" style="fill: none;stroke: #686966;stroke-miterlimit: 10;stroke-width: 0.30000000000000004px"/>
      <ellipse cx="34.69" cy="45.12" rx="0.09" ry="0.02" style="fill: #fff" transform="translate(-21.98 48.59) rotate(-57.72)"/>
      <circle cx="34.54" cy="43.05" r="0.7" style="fill: none;stroke: #686966;stroke-miterlimit: 10;stroke-width: 0.30000000000000004px"/>
      <circle cx="38.67" cy="31.64" r="0.6" style="fill: #fff"/>
      <ellipse cx="38.81" cy="33.7" rx="0.09" ry="0.02" style="fill: #fff" transform="translate(-10.41 46.76) rotate(-57.72)"/>
      <circle cx="38.98" cy="25.68" r="0.6" style="fill: #355d65"/>
      <ellipse cx="38.81" cy="25.44" rx="0.09" ry="0.02" style="fill: #fff" transform="translate(-3.42 42.91) rotate(-57.72)"/>
      <circle cx="38.98" cy="25.68" r="0.7" style="fill: none;stroke: #686966;stroke-miterlimit: 10;stroke-width: 0.30000000000000004px"/>
      <ellipse cx="28.59" cy="30.32" rx="0.09" ry="0.02" style="fill: #fff" transform="translate(-12.32 36.53) rotate(-57.72)"/>
      <circle cx="28.44" cy="28.26" r="0.7" style="fill: none;stroke: #686966;stroke-miterlimit: 10;stroke-width: 0.30000000000000004px"/>
      <ellipse cx="15.23" cy="36.61" rx="0.09" ry="0.02" style="fill: #fff" transform="translate(-23.85 28.17) rotate(-57.72)"/>
      <circle cx="15.09" cy="34.54" r="0.7" style="fill: none;stroke: #686966;stroke-miterlimit: 10;stroke-width: 0.30000000000000004px"/>
      <ellipse cx="15.03" cy="30.71" rx="0.09" ry="0.02" style="fill: #fff" transform="translate(-18.96 25.26) rotate(-57.72)"/>
      <circle cx="14.89" cy="28.65" r="0.7" style="fill: none;stroke: #686966;stroke-miterlimit: 10;stroke-width: 0.30000000000000004px"/>
      <ellipse cx="11.05" cy="21.73" rx="0.09" ry="0.02" style="fill: #fff" transform="translate(-13.22 17.71) rotate(-57.72)"/>
      <circle cx="10.91" cy="19.67" r="0.7" style="fill: none;stroke: #686966;stroke-miterlimit: 10;stroke-width: 0.30000000000000004px"/>
      <ellipse cx="16.4" cy="17.73" rx="0.09" ry="0.02" style="fill: #fff" transform="translate(-7.35 20.36) rotate(-57.72)"/>
      <circle cx="16.25" cy="15.67" r="0.7" style="fill: none;stroke: #686966;stroke-miterlimit: 10;stroke-width: 0.30000000000000004px"/>
      <ellipse cx="38.91" cy="10.7" rx="0.09" ry="0.02" style="fill: #fff" transform="translate(9.08 36.12) rotate(-57.72)"/>
      <circle cx="38.76" cy="8.64" r="0.7" style="fill: none;stroke: #686966;stroke-miterlimit: 10;stroke-width: 0.30000000000000004px"/>
      <circle cx="29.82" cy="15.67" r="0.7" style="fill: none;stroke: #686966;stroke-miterlimit: 10;stroke-width: 0.30000000000000004px"/>
      <circle cx="9.33" cy="12.54" r="0.6"/>
      <circle cx="9.33" cy="12.54" r="0.7" style="fill: none;stroke: #686966;stroke-miterlimit: 10;stroke-width: 0.30000000000000004px"/>
      <circle cx="42.54" cy="115.12" r="0.6" style="fill: #355d65"/>
      <circle cx="42.54" cy="115.12" r="0.7" style="fill: none;stroke: #686966;stroke-miterlimit: 10;stroke-width: 0.30000000000000004px"/>
      <circle cx="12.22" cy="93.88" r="1.88" style="fill: #d1caac;stroke: #000;stroke-miterlimit: 10;stroke-width: 0.4px"/>
      <circle cx="39.67" cy="13.26" r="2.56" style="fill: #d1caac;stroke: #000;stroke-miterlimit: 10;stroke-width: 0.4px"/>
      <circle cx="22.72" cy="69.13" r="1.08" style="fill: #fff"/>
    </g>
    <g data-name="Layer 8" id="Layer_8">
      <path d="M40.68,122.36h.82v1.74l2-.14-.66-1.59-.33-1.5.6-1.59a5.21,5.21,0,0,1,.63-1,5.27,5.27,0,0,1,1.48-1.25,4.17,4.17,0,0,1-1.45-1.86,4.25,4.25,0,0,1,0-3l-2.2-2v-1.55h-.25l-.37.23-.39.28h0l-2,0-.2-.56H38l.05,9.69h2.37a1.25,1.25,0,0,1,.64.27,1.24,1.24,0,0,1,.33.41,2.56,2.56,0,0,1,.17,1.67,2.18,2.18,0,0,1-.11.31l-.82-.06Z" style="fill: #338085" transform="translate(0 -1.76)"/>
      <circle cx="41.61" cy="97.28" r="1.12" style="fill: #338085"/>
      <path d="M30.08,90.9v-.41L28.57,89" style="fill: none;stroke: #338085;stroke-miterlimit: 10" transform="translate(0 -1.76)"/>
      <polyline points="29.56 86.31 40.55 97.3 40.88 97.62" style="fill: none;stroke: #338085;stroke-miterlimit: 10"/>
      <polyline points="32.59 83.3 39.28 89.99 40.7 89.99" style="fill: none;stroke: #338085;stroke-miterlimit: 10"/>
      <path d="M27.73,56.12h-.05v-.25a.08.08,0,0,0-.09-.08h-1a.08.08,0,0,0-.09.08v.25h-.59a.27.27,0,0,0-.27.27v1.85a.27.27,0,0,0,.27.27h1.8a.27.27,0,0,0,.27-.27V56.38A.27.27,0,0,0,27.73,56.12Z" style="fill: #b1aeaa" transform="translate(0 -1.76)"/>
      <line style="fill: none;stroke: #338085;stroke-miterlimit: 10;stroke-width: 0.7000000000000001px" x1="23.26" x2="23.26" y1="98.53" y2="100.1"/>
      <polyline points="25.52 97.81 25.52 100.25 25.52 97.11" style="fill: none;stroke: #338085;stroke-miterlimit: 10;stroke-width: 0.7000000000000001px"/>
      <polyline points="16.84 80.94 15.81 80.64 7.82 72.65 7.82 64.31 6.23 62.72" style="fill: none;stroke: #338085;stroke-miterlimit: 10;stroke-width: 0.7000000000000001px"/>
      <line style="fill: none;stroke: #338085;stroke-miterlimit: 10;stroke-width: 0.7000000000000001px" x1="16.73" x2="13.97" y1="79.44" y2="76.68"/>
      <polyline points="16.73 77.39 15.65 76.31 15.65 74.32 15.2 73.87" style="fill: none;stroke: #338085;stroke-miterlimit: 10;stroke-width: 0.7000000000000001px"/>
      <polyline points="17.72 76.38 17.18 75.83 17.18 73.36 19.07 71.48 19.07 69.78" style="fill: none;stroke: #338085;stroke-miterlimit: 10;stroke-width: 0.7000000000000001px"/>
      <polyline points="18.43 75.21 18.43 73.8 20.38 71.85 20.38 70.55 21.23 69.7 21.23 68.94" style="fill: none;stroke: #338085;stroke-miterlimit: 10;stroke-width: 0.7000000000000001px"/>
      <line style="fill: none;stroke: #338085;stroke-miterlimit: 10;stroke-width: 0.7000000000000001px" x1="20.7" x2="19.88" y1="73.36" y2="72.54"/>
      <polyline points="23.37 49.97 23.37 47.12 24.5 45.98 24.5 33.27 26.86 30.91 29.04 30.91 30.88 29.06 30.88 26.96 25.1 21.17 12.56 21.17 11.58 20.19" style="fill: none;stroke: #338085;stroke-miterlimit: 10;stroke-width: 0.7000000000000001px"/>
      <polyline points="28.44 49.96 28.44 47.81 27.17 46.55 27.17 35.24 28.45 33.96 30.21 33.96 33.69 30.48 33.69 24.98 26.81 18.11 15.19 18.11 10.07 12.99" style="fill: none;stroke: #338085;stroke-miterlimit: 10;stroke-width: 0.7000000000000001px"/>
      <circle cx="9.33" cy="12.54" r="1.12" style="fill: #338085"/>
      <circle cx="10.91" cy="19.56" r="1.12" style="fill: #338085"/>
      <polyline points="35.93 51.04 33.48 53.48 32.31 53.48" style="fill: none;stroke: #338085;stroke-miterlimit: 10;stroke-width: 0.7000000000000001px"/>
      <polyline points="33.38 53.55 34.98 55.16 34.98 69.13 36.6 70.75" style="fill: none;stroke: #338085;stroke-miterlimit: 10;stroke-width: 0.7000000000000001px"/>
      <line style="fill: none;stroke: #338085;stroke-miterlimit: 10;stroke-width: 0.7000000000000001px" x1="30.06" x2="30.06" y1="99.9" y2="98.41"/>
      <path d="M37.43,65V58.17L40,55.59V53.43" style="fill: none;stroke: #338085;stroke-miterlimit: 10;stroke-width: 1.5px" transform="translate(0 -1.76)"/>
      <polyline points="46.31 14.63 47.08 14.63 47.3 15.07 47.87 14.68 50.21 14.68 50.21 15.93 49.86 16.29 48.53 15.24 48.26 15.31 48.02 16.45 46.83 16.45 46.86 15.35 46.28 15.27" style="fill: #338085"/>
      <polyline points="29.42 57.45 33.29 61.32 33.29 68.34 29.37 72.26" style="fill: none;stroke: #2c7981;stroke-miterlimit: 10;stroke-width: 0.7000000000000001px"/>
      <line style="fill: none;stroke: #2c7981;stroke-miterlimit: 10;stroke-width: 0.7000000000000001px" x1="30.85" x2="35.01" y1="73.11" y2="68.96"/>
      <polyline points="28.88 71.08 31.78 68.17 31.78 61.99 27.37 57.58" style="fill: none;stroke: #2c7981;stroke-miterlimit: 10;stroke-width: 0.7000000000000001px"/>
      <circle cx="4.1" cy="61.98" r="1.3" style="fill: none"/>
      <circle cx="47.3" cy="83.58" r="1.3" style="fill: none"/>
      <circle cx="4.1" cy="47.58" r="1.3" style="fill: none"/>
      <circle cx="4.1" cy="54.78" r="1.3" style="fill: none"/>
      <circle cx="47.3" cy="90.78" r="1.3" style="fill: none"/>
      <circle cx="47.3" cy="105.18" r="1.3" style="fill: none"/>
      <circle cx="47.3" cy="97.98" r="1.3" style="fill: none"/>
      <circle cx="47.3" cy="112.38" r="1.3" style="fill: none"/>
      <circle cx="4.1" cy="40.38" r="1.3" style="fill: none"/>
      <circle cx="4.1" cy="83.58" r="1.3" style="fill: none"/>
      <circle cx="4.1" cy="76.38" r="1.3" style="fill: none"/>
      <circle cx="4.1" cy="69.18" r="1.3" style="fill: none"/>
      <circle cx="4.1" cy="90.78" r="1.3" style="fill: none"/>
      <circle cx="4.1" cy="97.98" r="1.3" style="fill: none"/>
      <circle cx="4.1" cy="112.38" r="1.3" style="fill: none"/>
      <circle cx="4.1" cy="105.18" r="1.3" style="fill: none"/>
      <circle cx="47.3" cy="18.78" r="1.3" style="fill: none"/>
      <circle cx="47.3" cy="11.58" r="1.3" style="fill: none"/>
      <circle cx="4.1" cy="11.58" r="1.3" style="fill: none"/>
      <circle cx="4.1" cy="18.78" r="1.3" style="fill: none"/>
      <circle cx="47.3" cy="33.18" r="1.3" style="fill: none"/>
      <circle cx="47.3" cy="40.38" r="1.3" style="fill: none"/>
      <circle cx="4.1" cy="33.18" r="1.3" style="fill: none"/>
      <circle cx="47.3" cy="25.98" r="1.3" style="fill: none"/>
      <circle cx="47.3" cy="69.18" r="1.3" style="fill: none"/>
      <circle cx="47.3" cy="61.98" r="1.3" style="fill: none"/>
      <circle cx="4.1" cy="25.98" r="1.3" style="fill: none"/>
      <circle cx="47.3" cy="76.38" r="1.3" style="fill: none"/>
      <circle cx="47.3" cy="54.78" r="1.3" style="fill: none"/>
      <circle cx="47.3" cy="47.58" r="1.3" style="fill: none"/>
      <path d="M29.56,30a1.12,1.12,0,1,0-1.12,1.12A1.12,1.12,0,0,0,29.56,30Zm-1.72,0a.6.6,0,1,1,.6.6A.6.6,0,0,1,27.84,30Z" style="fill: #338085" transform="translate(0 -1.76)"/>
      <circle cx="41.61" cy="97.41" r="0.6" style="fill: #fff"/>
      <circle cx="10.91" cy="19.67" r="0.6" style="fill: #fff"/>
      <path d="M26.67,91.59a1.12,1.12,0,1,0-1.12,1.12A1.12,1.12,0,0,0,26.67,91.59Zm-1.72,0a.6.6,0,1,1,.6.6A.6.6,0,0,1,24.94,91.59Z" style="fill: #338085" transform="translate(0 -1.76)"/>
      <path d="M26.33,98a1.12,1.12,0,1,0,1.12,1.12A1.12,1.12,0,0,0,26.33,98Zm0,1.82a.6.6,0,1,1,.6-.6A.6.6,0,0,1,26.34,99.86Z" style="fill: #338085" transform="translate(0 -1.76)"/>
      <path d="M30,90.76a1.12,1.12,0,1,0,1.12,1.12A1.12,1.12,0,0,0,30,90.76Zm.15,2a.7.7,0,1,1,.7-.7A.7.7,0,0,1,30.16,92.76Z" style="fill: #338085" transform="translate(0 -1.76)"/>
      <path d="M23.21,98.37a1.12,1.12,0,1,0,1.12,1.12A1.12,1.12,0,0,0,23.21,98.37Zm.09,1.9a.7.7,0,1,1,.7-.7A.7.7,0,0,1,23.3,100.27Z" style="fill: #338085" transform="translate(0 -1.76)"/>
      <path d="M41.28,93.49a1.12,1.12,0,1,0,1.12,1.12A1.12,1.12,0,0,0,41.28,93.49Zm-.09,1.92a.6.6,0,1,1,.6-.6A.6.6,0,0,1,41.18,95.41Z" style="fill: #338085" transform="translate(0 -1.76)"/>
      <path d="M41.18,92.88a1.12,1.12,0,1,0-1.12-1.12A1.12,1.12,0,0,0,41.18,92.88Zm0-1.82a.6.6,0,1,1-.6.6A.6.6,0,0,1,41.18,91.06Z" style="fill: #338085" transform="translate(0 -1.76)"/>
      <path d="M37.63,71.53a1.12,1.12,0,1,0,1.12,1.12A1.12,1.12,0,0,0,37.63,71.53Zm0,1.62a.6.6,0,1,1,.6-.6A.6.6,0,0,1,37.63,73.15Z" style="fill: #338085" transform="translate(0 -1.76)"/>
      <path d="M37.43,67a1.12,1.12,0,1,0-1.12-1.12A1.12,1.12,0,0,0,37.43,67Zm0-1.72a.6.6,0,1,1-.6.6A.6.6,0,0,1,37.43,65.31Z" style="fill: #338085" transform="translate(0 -1.76)"/>
      <path d="M41.08,52.54A1.12,1.12,0,1,0,40,53.67,1.12,1.12,0,0,0,41.08,52.54Zm-.88.76a.6.6,0,1,1,.6-.6A.6.6,0,0,1,40.2,53.3Z" style="fill: #338085" transform="translate(0 -1.76)"/>
      <path d="M37.65,52.11a1.12,1.12,0,1,0-1.12,1.12A1.12,1.12,0,0,0,37.65,52.11ZM36,52.32a.6.6,0,1,1,.6.6A.6.6,0,0,1,36,52.32Z" style="fill: #338085" transform="translate(0 -1.76)"/>
      <path d="M33,49.32a1.12,1.12,0,1,0,1.12,1.12A1.12,1.12,0,0,0,33,49.32Zm0,2a.6.6,0,1,1,.6-.6A.6.6,0,0,1,33,51.31Z" style="fill: #338085" transform="translate(0 -1.76)"/>
      <path d="M25.81,49.48a1.12,1.12,0,1,0,1.12,1.12A1.12,1.12,0,0,0,25.81,49.48Zm0,1.72a.6.6,0,1,1,.6-.6A.6.6,0,0,1,25.81,51.21Z" style="fill: #338085" transform="translate(0 -1.76)"/>
      <path d="M16.5,50.91a1.12,1.12,0,1,0,1.12-1.12A1.12,1.12,0,0,0,16.5,50.91Zm1.72,0a.6.6,0,1,1-.6-.6A.6.6,0,0,1,18.22,50.91Z" style="fill: #338085" transform="translate(0 -1.76)"/>
      <path d="M12.51,51a1.12,1.12,0,1,0,1.12,1.12A1.12,1.12,0,0,0,12.51,51Zm0,1.72a.6.6,0,1,1,.6-.6A.6.6,0,0,1,12.51,52.75Z" style="fill: #338085" transform="translate(0 -1.76)"/>
      <path d="M16.21,36.3a1.12,1.12,0,1,0-1.12,1.12A1.12,1.12,0,0,0,16.21,36.3Zm-1.72,0a.6.6,0,1,1,.6.6A.6.6,0,0,1,14.49,36.3Z" style="fill: #338085" transform="translate(0 -1.76)"/>
      <circle cx="15.09" cy="34.54" r="0.6" style="fill: #338085"/>
      <path d="M37,48.76a1.12,1.12,0,1,0-1.12,1.12A1.12,1.12,0,0,0,37,48.76Zm-1.78.12a.6.6,0,1,1,.6.6A.6.6,0,0,1,35.24,48.88Z" style="fill: #338085" transform="translate(0 -1.76)"/>
      <path d="M7.3,58.15l-5.89.71v2.68H6.64L8,64.74h.86v9.1l4.89,4.87.58-.58v-1l-4.19-4.19-.41-.85,1.81-1.89h.37l-.13-.33.52-.52.56.56.68-.68L13,68.62l.78-.43.08-.62L15.4,66h.91L19,68.7l.47-.47V68L9.62,58.15Zm6.65,6.2a.6.6,0,1,1-.6.6A.6.6,0,0,1,13.94,64.35Z" style="fill: #338085" transform="translate(0 -1.76)"/>
      <path d="M17.16,104.49c0-.39.12-.56.1-.8a.78.78,0,0,0-.46-.64l-.89-.5,3.75-3.75V95.76l3.61-3.61,1.68,1.68h1.15l1.76,1.76h5.41l6.57,6.57v.4H38.38v1H37v-1H34.61l-.75.75v1.48H31.55v-3.58l-.7-.7H28v-.43l.12-.12V98.22l-1-1H25.36l-.78.78-.4-.4H22.57l-1.21,1.21v1.71l-.31.18-.93.06a.81.81,0,0,0-.37.17.83.83,0,0,0-.28.47v3.26H17.18A1.33,1.33,0,0,1,17.16,104.49Z" style="fill: #338085" transform="translate(0 -1.76)"/>
      <path d="M10.21,122.76H9.29v1.55H7.23a5,5,0,0,0,.57-4.61,4.46,4.46,0,0,0-2.09-2.1,6.9,6.9,0,0,0,1.56-3,6.75,6.75,0,0,0,.15-2l3.07-3.07v-.68h1v.68h1v-.85h1.2v.72h2v9.25H14v1.46H12.38v-1.46H10.45l-1.19,1.28v1.36h1.16v1.44Z" style="fill: #338085" transform="translate(0 -1.76)"/>
    </g>
    <g data-name="Layer 5" id="Layer_5">
      <rect height="3.02" style="fill: #dee6e6" width="1.29" x="20.33" y="99.71"/>
      <rect height="5.19" style="fill: #c7cac6" transform="translate(77.08 241.69) rotate(180)" width="4.28" x="36.4" y="119.13"/>
      <rect height="4.47" style="fill: #f2f6f4" transform="translate(74.51 241.98) rotate(180)" width="3.28" x="35.62" y="119.63"/>
      <rect height="5.19" style="fill: #c7cac6" transform="translate(77.08 210.18) rotate(180)" width="4.28" x="36.4" y="103.37"/>
      <rect height="4.47" style="fill: #f2f6f4" transform="translate(74.51 210.46) rotate(180)" width="3.28" x="35.62" y="103.87"/>
      <rect height="26.81" rx="1.66" ry="1.66" style="fill: #c7cac6" width="23.06" x="15.03" y="102.73"/>
      <path d="M11.85,73.43l0,0,.13.15a.06.06,0,0,0,.09,0l.58-.5a.06.06,0,0,0,0-.09l-.13-.15.34-.29a.21.21,0,0,0,0-.29L12,71.15a.21.21,0,0,0-.29,0l-1.06.9a.21.21,0,0,0,0,.29l.93,1.09A.21.21,0,0,0,11.85,73.43Z" style="fill: #b1aeaa" transform="translate(0 -1.76)"/>
      <path d="M13.82,71.46l0,0,.13.15a.06.06,0,0,0,.09,0l.58-.5a.06.06,0,0,0,0-.09l-.13-.15.34-.29a.21.21,0,0,0,0-.29L14,69.18a.21.21,0,0,0-.29,0l-1.06.9a.21.21,0,0,0,0,.29l.93,1.09A.21.21,0,0,0,13.82,71.46Z" style="fill: #b1aeaa" transform="translate(0 -1.76)"/>
      <path d="M16.54,71.85l0,0-.13-.15a.06.06,0,0,0-.09,0l-.58.5a.06.06,0,0,0,0,.09l.13.15-.34.29a.21.21,0,0,0,0,.29l.93,1.09a.21.21,0,0,0,.29,0l1.06-.9a.21.21,0,0,0,0-.29l-.93-1.09A.21.21,0,0,0,16.54,71.85Z" style="fill: #b1aeaa" transform="translate(0 -1.76)"/>
      <path d="M15.88,69.39l0,0,.13.15a.06.06,0,0,0,.09,0l.58-.5a.06.06,0,0,0,0-.09l-.13-.15.34-.29a.21.21,0,0,0,0-.29L16,67.11a.21.21,0,0,0-.29,0l-1.06.9a.21.21,0,0,0,0,.29l.93,1.09A.21.21,0,0,0,15.88,69.39Z" style="fill: #b1aeaa" transform="translate(0 -1.76)"/>
      <path d="M14.54,76l0,0,.13.15a.06.06,0,0,0,.09,0l.58-.5a.06.06,0,0,0,0-.09l-.13-.15.34-.29a.21.21,0,0,0,0-.29l-.93-1.09a.21.21,0,0,0-.29,0l-1.06.9a.21.21,0,0,0,0,.29L14.25,76A.21.21,0,0,0,14.54,76Z" style="fill: #b1aeaa" transform="translate(0 -1.76)"/>
      <path d="M18.5,72.18l0,0,.13.15a.06.06,0,0,0,.09,0l.58-.5a.06.06,0,0,0,0-.09l-.13-.15.34-.29a.21.21,0,0,0,0-.29l-.93-1.09a.21.21,0,0,0-.29,0l-1.06.9a.21.21,0,0,0,0,.29l.93,1.09A.21.21,0,0,0,18.5,72.18Z" style="fill: #b1aeaa" transform="translate(0 -1.76)"/>
      <path d="M16.39,68l.95-.95a27.27,27.27,0,0,1,2.47,2.47l-6.59,6.59-2.75-2.75Z" style="fill: #bcbcbc" transform="translate(0 -1.76)"/>
      <rect height="5.73" style="fill: #dbddd9" width="3.21" x="29.42" y="50.8"/>
      <ellipse cx="31.31" cy="55.64" rx="0.36" ry="0.81"/>
      <ellipse cx="31.31" cy="52.26" rx="0.36" ry="0.81"/>
      <rect height="5.73" style="fill: #dbddd9" width="3.21" x="18.59" y="50.95"/>
      <rect height="7.98" style="fill: #b6b8b4" width="7.81" x="22.4" y="49.75"/>
      <path d="M25.36,72.38a.76.76,0,0,0-.45-.36L26.65,72a.55.55,0,0,0-.33.49Z" style="fill: #fff" transform="translate(0 -1.76)"/>
      <path d="M26.12,71.65" style="fill: #fff" transform="translate(0 -1.76)"/>
      <path d="M17.3,81.57a1.32,1.32,0,0,0-.34.19.86.86,0,0,0-.27.34l-.1-2a.78.78,0,0,0,.36.29,1.27,1.27,0,0,0,.47.1Z" style="fill: #fff" transform="translate(0 -1.76)"/>
      <path d="M26.22,89.62a1.32,1.32,0,0,0,.19.34.86.86,0,0,0,.34.27l-2,.1A.78.78,0,0,0,25,90a1.27,1.27,0,0,0,.1-.47Z" style="fill: #fff" transform="translate(0 -1.76)"/>
      <rect height="0.85" style="fill: #b1aeaa" transform="translate(88.16 131.5) rotate(136.8)" width="1.14" x="17.13" y="83.66"/>
      <rect height="0.61" style="fill: #bcbcbc" transform="translate(88.8 130.1) rotate(136.8)" width="0.51" x="18.04" y="83.21"/>
      <rect height="0.85" style="fill: #b1aeaa" transform="translate(90.51 132.51) rotate(136.8)" width="1.14" x="18.1" y="84.63"/>
      <rect height="0.61" style="fill: #bcbcbc" transform="translate(91.15 131.12) rotate(136.8)" width="0.51" x="19.01" y="84.18"/>
      <rect height="0.85" style="fill: #b1aeaa" transform="translate(92.91 133.55) rotate(136.8)" width="1.14" x="19.09" y="85.62"/>
      <rect height="0.61" style="fill: #bcbcbc" transform="translate(93.55 132.16) rotate(136.8)" width="0.51" x="20" y="85.18"/>
      <rect height="0.85" style="fill: #b1aeaa" transform="translate(95.31 134.59) rotate(136.8)" width="1.14" x="20.09" y="86.62"/>
      <rect height="0.61" style="fill: #bcbcbc" transform="translate(95.95 133.2) rotate(136.8)" width="0.51" x="21" y="86.17"/>
      <rect height="0.85" style="fill: #b1aeaa" transform="translate(97.71 135.63) rotate(136.8)" width="1.14" x="21.08" y="87.61"/>
      <rect height="0.61" style="fill: #bcbcbc" transform="translate(98.35 134.24) rotate(136.8)" width="0.51" x="21.99" y="87.17"/>
      <rect height="0.85" style="fill: #b1aeaa" transform="translate(100.11 136.67) rotate(136.8)" width="1.14" x="22.08" y="88.61"/>
      <rect height="0.61" style="fill: #bcbcbc" transform="translate(100.75 135.27) rotate(136.8)" width="0.51" x="22.99" y="88.16"/>
      <rect height="0.85" style="fill: #b1aeaa" transform="translate(102.51 137.71) rotate(136.8)" width="1.14" x="23.07" y="89.6"/>
      <rect height="0.61" style="fill: #bcbcbc" transform="translate(103.19 136.22) rotate(136.8)" width="0.62" x="23.97" y="89.12"/>
      <rect height="0.85" style="fill: #b1aeaa" transform="translate(85.6 130.39) rotate(136.8)" width="1.14" x="16.07" y="82.6"/>
      <rect height="0.61" style="fill: #bcbcbc" transform="translate(86.29 128.88) rotate(136.8)" width="0.65" x="16.96" y="82.1"/>
      <rect height="0.85" style="fill: #b1aeaa" transform="translate(-44.32 42.49) rotate(-43.2)" width="1.14" x="33.15" y="77.66"/>
      <rect height="0.61" style="fill: #bcbcbc" transform="translate(-44.87 42.24) rotate(-43.2)" width="0.51" x="32.87" y="78.35"/>
      <rect height="0.85" style="fill: #b1aeaa" transform="translate(-43.91 41.56) rotate(-43.2)" width="1.14" x="32.18" y="76.69"/>
      <rect height="0.61" style="fill: #bcbcbc" transform="translate(-44.47 41.31) rotate(-43.2)" width="0.51" x="31.9" y="77.38"/>
      <rect height="0.85" style="fill: #b1aeaa" transform="translate(-43.5 40.61) rotate(-43.2)" width="1.14" x="31.19" y="75.69"/>
      <rect height="0.61" style="fill: #bcbcbc" transform="translate(-44.05 40.36) rotate(-43.2)" width="0.51" x="30.9" y="76.38"/>
      <rect height="0.85" style="fill: #b1aeaa" transform="translate(-43.09 39.66) rotate(-43.2)" width="1.14" x="30.19" y="74.7"/>
      <rect height="0.61" style="fill: #bcbcbc" transform="translate(-43.64 39.41) rotate(-43.2)" width="0.51" x="29.91" y="75.39"/>
      <rect height="0.85" style="fill: #b1aeaa" transform="translate(-42.68 38.71) rotate(-43.2)" width="1.14" x="29.2" y="73.7"/>
      <rect height="0.61" style="fill: #bcbcbc" transform="translate(-43.23 38.46) rotate(-43.2)" width="0.51" x="28.91" y="74.39"/>
      <rect height="0.85" style="fill: #b1aeaa" transform="translate(-42.27 37.76) rotate(-43.2)" width="1.14" x="28.2" y="72.71"/>
      <rect height="0.61" style="fill: #bcbcbc" transform="translate(-42.82 37.51) rotate(-43.2)" width="0.51" x="27.92" y="73.4"/>
      <rect height="0.85" style="fill: #b1aeaa" transform="translate(-41.86 36.81) rotate(-43.2)" width="1.14" x="27.21" y="71.71"/>
      <rect height="0.61" style="fill: #bcbcbc" transform="translate(-42.44 36.54) rotate(-43.2)" width="0.62" x="26.83" y="72.44"/>
      <rect height="0.85" style="fill: #b1aeaa" transform="translate(-44.75 43.51) rotate(-43.2)" width="1.14" x="34.21" y="78.72"/>
      <rect height="0.61" style="fill: #bcbcbc" transform="translate(-45.35 43.23) rotate(-43.2)" width="0.65" x="33.82" y="79.46"/>
      <rect height="0.85" style="fill: #b1aeaa" transform="translate(73.61 5.57) rotate(46.8)" width="1.14" x="27.77" y="88.3"/>
      <rect height="0.61" style="fill: #bcbcbc" transform="translate(73 5.8) rotate(46.8)" width="0.51" x="27.51" y="87.83"/>
      <rect height="0.85" style="fill: #b1aeaa" transform="translate(73.21 4.55) rotate(46.8)" width="1.14" x="28.74" y="87.33"/>
      <rect height="0.61" style="fill: #bcbcbc" transform="translate(72.6 4.78) rotate(46.8)" width="0.51" x="28.48" y="86.86"/>
      <rect height="0.85" style="fill: #b1aeaa" transform="translate(72.8 3.52) rotate(46.8)" width="1.14" x="29.73" y="86.34"/>
      <rect height="0.61" style="fill: #bcbcbc" transform="translate(72.19 3.74) rotate(46.8)" width="0.51" x="29.48" y="85.86"/>
      <rect height="0.85" style="fill: #b1aeaa" transform="translate(72.39 2.48) rotate(46.8)" width="1.14" x="30.73" y="85.34"/>
      <rect height="0.61" style="fill: #bcbcbc" transform="translate(71.77 2.7) rotate(46.8)" width="0.51" x="30.47" y="84.87"/>
      <rect height="0.85" style="fill: #b1aeaa" transform="translate(71.98 1.44) rotate(46.8)" width="1.14" x="31.72" y="84.35"/>
      <rect height="0.61" style="fill: #bcbcbc" transform="translate(71.36 1.66) rotate(46.8)" width="0.51" x="31.47" y="83.87"/>
      <rect height="0.85" style="fill: #b1aeaa" transform="translate(71.57 0.4) rotate(46.8)" width="1.14" x="32.72" y="83.35"/>
      <rect height="0.61" style="fill: #bcbcbc" transform="translate(70.95 0.63) rotate(46.8)" width="0.51" x="32.46" y="82.88"/>
      <rect height="0.85" style="fill: #b1aeaa" transform="translate(71.15 -0.64) rotate(46.8)" width="1.14" x="33.71" y="82.36"/>
      <rect height="0.85" style="fill: #b1aeaa" transform="translate(74.03 6.7) rotate(46.8)" width="1.14" x="26.67" y="89.35"/>
      <rect height="0.61" style="fill: #bcbcbc" transform="translate(73.47 6.88) rotate(46.8)" width="0.65" x="26.43" y="88.92"/>
      <rect height="0.85" style="fill: #b1aeaa" transform="translate(-15.24 138.26) rotate(-133.2)" width="1.14" x="22.1" y="72.88"/>
      <rect height="0.61" style="fill: #bcbcbc" transform="translate(-14.72 139.68) rotate(-133.2)" width="0.51" x="22.99" y="73.6"/>
      <rect height="0.85" style="fill: #b1aeaa" transform="translate(-17.59 139.19) rotate(-133.2)" width="1.14" x="21.13" y="73.85"/>
      <rect height="0.61" style="fill: #bcbcbc" transform="translate(-17.06 140.61) rotate(-133.2)" width="0.51" x="22.01" y="74.57"/>
      <rect height="0.85" style="fill: #b1aeaa" transform="translate(-19.99 140.14) rotate(-133.2)" width="1.14" x="20.14" y="74.85"/>
      <rect height="0.61" style="fill: #bcbcbc" transform="translate(-19.46 141.56) rotate(-133.2)" width="0.51" x="21.02" y="75.57"/>
      <rect height="0.85" style="fill: #b1aeaa" transform="translate(-22.39 141.09) rotate(-133.2)" width="1.14" x="19.14" y="75.84"/>
      <rect height="0.61" style="fill: #bcbcbc" transform="translate(-21.86 142.51) rotate(-133.2)" width="0.51" x="20.02" y="76.56"/>
      <rect height="0.85" style="fill: #b1aeaa" transform="translate(-24.79 142.04) rotate(-133.2)" width="1.14" x="18.15" y="76.84"/>
      <rect height="0.61" style="fill: #bcbcbc" transform="translate(-24.27 143.46) rotate(-133.2)" width="0.51" x="19.03" y="77.56"/>
      <rect height="0.85" style="fill: #b1aeaa" transform="translate(-27.19 142.99) rotate(-133.2)" width="1.14" x="17.15" y="77.83"/>
      <rect height="0.61" style="fill: #bcbcbc" transform="translate(-26.67 144.41) rotate(-133.2)" width="0.51" x="18.03" y="78.55"/>
      <rect height="0.61" style="fill: #bcbcbc" transform="translate(-29.08 145.37) rotate(-133.2)" width="0.51" x="17.04" y="79.55"/>
      <rect height="0.85" style="fill: #b1aeaa" transform="translate(-29.59 143.94) rotate(-133.2)" width="1.14" x="16.16" y="78.83"/>
      <rect height="0.85" style="fill: #b1aeaa" transform="translate(-12.68 137.24) rotate(-133.2)" width="1.14" x="23.16" y="71.82"/>
      <rect height="0.61" style="fill: #bcbcbc" transform="translate(-12.11 138.78) rotate(-133.2)" width="0.65" x="24.03" y="72.59"/>
      <circle cx="26.24" cy="54.04" r="2.87" style="fill: #eaefef"/>
      <rect height="1.08" style="fill: #b6b8b4" width="2.08" x="29.77" y="50.56"/>
      <rect height="1.08" style="fill: #b6b8b4" width="2.08" x="29.77" y="56.37"/>
      <rect height="1.91" style="fill: #b6b8b4" width="2.08" x="29.64" y="52.96"/>
      <path d="M31.31,58.29H29.84V56.52h1.47a1.68,1.68,0,0,0,0,1.77Z" style="fill: #b6b8b4" transform="translate(0 -1.76)"/>
      <path d="M31.31,54.9H29.84V53.13h1.47a1.68,1.68,0,0,0,0,1.77Z" style="fill: #b6b8b4" transform="translate(0 -1.76)"/>
      <rect height="1.08" style="fill: #b6b8b4" transform="translate(43.61 115.65) rotate(180)" width="2.08" x="20.77" y="58.17"/>
      <rect height="1.08" style="fill: #b6b8b4" transform="translate(43.61 104.03) rotate(180)" width="2.08" x="20.77" y="52.35"/>
      <rect height="1.91" style="fill: #b6b8b4" transform="translate(43.86 110.02) rotate(180)" width="2.08" x="20.89" y="54.94"/>
      <path d="M21.3,53.28h1.47V55H21.3a1.68,1.68,0,0,0,0-1.77Z" style="fill: #b6b8b4" transform="translate(0 -1.76)"/>
      <path d="M21.3,56.67h1.47v1.77H21.3a1.68,1.68,0,0,0,0-1.77Z" style="fill: #b6b8b4" transform="translate(0 -1.76)"/>
      <rect height="3.56" rx="1.78" ry="1.78" style="fill: #bcbcbc" transform="translate(-44.57 28.12) rotate(-43.2)" width="8.77" x="11.07" y="69.46"/>
      <g id="DETAILS">
        <rect height="2.55" rx="1.19" ry="1.19" style="fill: #dbddda" transform="translate(-44.57 28.12) rotate(-43.2)" width="7.61" x="11.65" y="69.96"/>
      </g>
      <rect height="24.46" style="fill: #d8b134" width="17.42" x="18.21" y="104.65"/>
      <path d="M18.67,119a.77.77,0,0,1,.63-.29.76.76,0,0,1,.54.29v7.13a.66.66,0,0,0,1.31,0V119a.87.87,0,0,1,.71-.35.86.86,0,0,1,.65.35v8.42a.94.94,0,0,1-.27,1,1,1,0,0,1-.89.2H19.42a.61.61,0,0,1-.82-.82Z" style="fill: #4e442a" transform="translate(0 -1.76)"/>
      <path d="M32,119a.77.77,0,0,1,.63-.29.76.76,0,0,1,.54.29v7.13a.66.66,0,0,0,1.31,0V119a.87.87,0,0,1,.71-.35.86.86,0,0,1,.65.35v8.42a.94.94,0,0,1-.27,1,1,1,0,0,1-.89.2H32.71a.69.69,0,0,1-.82-.82Z" style="fill: #4e442a" transform="translate(0 -1.76)"/>
      <path d="M31.75,129.05" style="fill: #4e442a" transform="translate(0 -1.76)"/>
      <path d="M24.75,127.72l.29-8.48.29-.46.1-.75,3.56-.08.21,9.9a.52.52,0,1,0,1,0l-.4-12.33-5.58.1-.46,12.17a.59.59,0,0,0,.4.62C24.44,128.44,24.76,128.16,24.75,127.72Z" style="fill: #4e442a" transform="translate(0 -1.76)"/>
      <path d="M31.38,118.47" style="fill: #4e442a" transform="translate(0 -1.76)"/>
      <path d="M20.65,109,34,108.8a1,1,0,0,1,.35.83.93.93,0,0,1-.35.6H20.65a.71.71,0,0,1-.4-.5A.68.68,0,0,1,20.65,109Z" style="fill: #4e442a" transform="translate(0 -1.76)"/>
      <rect height="1.06" width="1.21" x="21.81" y="104.46"/>
      <path d="M18,107H16.75a1.18,1.18,0,0,1,0-1.06H18Z" transform="translate(0 -1.76)"/>
      <rect height="1.06" width="1.21" x="24" y="104.46"/>
      <rect height="1.06" width="1.21" x="26.33" y="104.46"/>
      <rect height="1.06" width="1.21" x="28.64" y="104.46"/>
      <rect height="1.06" width="2.61" x="30.85" y="104.46"/>
      <path d="M36.36,105.79a.34.34,0,0,0,0,.28l.05.07a.65.65,0,0,0,0,.47.69.69,0,0,0,.24.32.13.13,0,0,0,.1,0s.06-.05.1-.14l.09-.24a.86.86,0,0,0-.55-.8Z" transform="translate(0 -1.76)"/>
      <rect height="5.19" style="fill: #c7cac6" width="4.28" x="9.97" y="117.67"/>
      <rect height="4.47" style="fill: #f2f6f4" width="3.28" x="11.75" y="117.89"/>
      <rect height="5.19" style="fill: #c7cac6" width="4.28" x="9.97" y="102.05"/>
      <rect height="4.47" style="fill: #f2f6f4" width="3.28" x="11.75" y="102.27"/>
      <rect height="0.46" style="fill: #90918d" width="1.23" x="20.58" y="102.27"/>
      <rect height="3.02" style="fill: #dee6e6" width="1.29" x="22.57" y="99.71"/>
      <rect height="0.46" style="fill: #90918d" width="1.23" x="22.82" y="102.27"/>
      <rect height="3.02" style="fill: #dee6e6" width="1.29" x="24.8" y="99.71"/>
      <rect height="0.46" style="fill: #90918d" width="1.23" x="25.05" y="102.27"/>
      <rect height="3.02" style="fill: #dee6e6" width="1.29" x="27.2" y="99.71"/>
      <rect height="0.46" style="fill: #90918d" width="1.23" x="27.45" y="102.27"/>
      <rect height="3.02" style="fill: #dee6e6" width="1.29" x="29.42" y="99.71"/>
      <rect height="0.46" style="fill: #90918d" width="1.23" x="29.67" y="102.27"/>
    </g>
    <g data-name="Layer 6" id="Layer_6">
      <g>
        <rect height="13.53" rx="2.12" ry="2.12" style="fill: #0d1110" transform="translate(64.83 3.81) rotate(45)" width="13.53" x="18.92" y="74.28"/>
        <path d="M33.59,79.89l-6.81-6.75a1.7,1.7,0,0,0-2.39,0l-6.81,6.75a1.66,1.66,0,0,0,0,2.37L24.4,89a1.7,1.7,0,0,0,2.39,0l6.81-6.75A1.66,1.66,0,0,0,33.59,79.89Zm-8-3.88a1.12,1.12,0,1,1,1.12-1.12A1.12,1.12,0,0,1,25.58,76Z" style="fill: #323036" transform="translate(0 -1.76)"/>
      </g>
    </g>
    <g data-name="Layer 7" id="Layer_7">
      <circle cx="46.77" cy="119.4" r="2.44" style="fill: #fff"/>
      <circle cx="3.85" cy="120.11" r="2.44" style="fill: #fff"/>
    </g>
    <g data-name="Layer 12" id="Layer_12">
      <g>
        <polygon points="31.23 8.47 29.8 6.94 29.8 2.7 31.23 1.27 35.46 1.27 37 2.7 37 6.94 35.46 8.47 31.23 8.47" style="fill: #323232"/>
        <g>
          <polygon points="32.16 3.86 32.16 3.86 33.29 5 34.42 3.87 34.42 3.86 32.16 3.86" style="fill: #e9e9ea"/>
          <polygon points="32.16 6.13 32.16 6.13 33.29 4.99 34.42 6.12 34.42 6.13 32.16 6.13" style="fill: #b0acb0"/>
          <polygon points="34.42 3.86 34.42 3.86 33.29 4.99 34.42 6.13 34.42 6.13 34.42 3.86" style="fill: #d3d1d3"/>
          <polygon points="32.16 3.87 32.16 3.87 33.29 5 32.16 6.13 32.16 6.13 32.16 3.87" style="fill: #989498"/>
          <rect height="1.13" style="fill: #c0bec2" width="1.13" x="32.72" y="4.43"/>
        </g>
      </g>
      <g>
        <polygon points="31.23 15.67 29.8 14.14 29.8 9.9 31.23 8.47 35.46 8.47 37 9.9 37 14.14 35.46 15.67 31.23 15.67" style="fill: #323232"/>
        <g>
          <polygon points="32.16 11.06 32.16 11.06 33.29 12.2 34.42 11.07 34.42 11.06 32.16 11.06" style="fill: #e9e9ea"/>
          <polygon points="32.16 13.32 32.16 13.32 33.29 12.19 34.42 13.32 34.42 13.32 32.16 13.32" style="fill: #b0acb0"/>
          <polygon points="34.42 11.06 34.42 11.06 33.29 12.19 34.42 13.32 34.42 13.32 34.42 11.06" style="fill: #d3d1d3"/>
          <polygon points="32.16 11.06 32.16 11.06 33.29 12.2 32.16 13.33 32.16 13.33 32.16 11.06" style="fill: #989498"/>
          <rect height="1.13" style="fill: #c0bec2" width="1.13" x="32.72" y="11.63"/>
        </g>
      </g>
      <g>
        <polygon points="24.03 8.47 22.6 6.94 22.6 2.7 24.03 1.27 28.26 1.27 29.8 2.7 29.8 6.94 28.26 8.47 24.03 8.47" style="fill: #323232"/>
        <g>
          <polygon points="24.96 3.86 24.96 3.86 26.09 5 27.22 3.87 27.22 3.86 24.96 3.86" style="fill: #e9e9ea"/>
          <polygon points="24.96 6.13 24.96 6.13 26.09 4.99 27.22 6.12 27.22 6.13 24.96 6.13" style="fill: #b0acb0"/>
          <polygon points="27.22 3.86 27.22 3.86 26.09 4.99 27.22 6.13 27.22 6.13 27.22 3.86" style="fill: #d3d1d3"/>
          <polygon points="24.96 3.87 24.96 3.87 26.09 5 24.96 6.13 24.96 6.13 24.96 3.87" style="fill: #989498"/>
          <rect height="1.13" style="fill: #c0bec2" width="1.13" x="25.52" y="4.43"/>
        </g>
      </g>
      <g>
        <polygon points="24.03 15.67 22.6 14.14 22.6 9.9 24.03 8.47 28.26 8.47 29.8 9.9 29.8 14.14 28.26 15.67 24.03 15.67" style="fill: #323232"/>
        <g>
          <polygon points="24.96 11.06 24.96 11.06 26.09 12.2 27.22 11.07 27.22 11.06 24.96 11.06" style="fill: #e9e9ea"/>
          <polygon points="24.96 13.32 24.96 13.32 26.09 12.19 27.22 13.32 27.22 13.32 24.96 13.32" style="fill: #b0acb0"/>
          <polygon points="27.22 11.06 27.22 11.06 26.09 12.19 27.22 13.32 27.22 13.32 27.22 11.06" style="fill: #d3d1d3"/>
          <polygon points="24.96 11.06 24.96 11.06 26.09 12.2 24.96 13.33 24.96 13.33 24.96 11.06" style="fill: #989498"/>
          <rect height="1.13" style="fill: #c0bec2" width="1.13" x="25.52" y="11.63"/>
        </g>
      </g>
      <g>
        <polygon points="16.83 8.47 15.4 6.94 15.4 2.7 16.83 1.27 21.06 1.27 22.6 2.7 22.6 6.94 21.06 8.47 16.83 8.47" style="fill: #323232"/>
        <g>
          <polygon points="17.76 3.86 17.76 3.86 18.89 5 20.02 3.87 20.02 3.86 17.76 3.86" style="fill: #e9e9ea"/>
          <polygon points="17.76 6.13 17.76 6.13 18.89 4.99 20.02 6.12 20.02 6.13 17.76 6.13" style="fill: #b0acb0"/>
          <polygon points="20.02 3.86 20.02 3.86 18.89 4.99 20.02 6.13 20.02 6.13 20.02 3.86" style="fill: #d3d1d3"/>
          <polygon points="17.76 3.87 17.76 3.87 18.89 5 17.76 6.13 17.76 6.13 17.76 3.87" style="fill: #989498"/>
          <rect height="1.13" style="fill: #c0bec2" width="1.13" x="18.32" y="4.43"/>
        </g>
      </g>
      <g>
        <polygon points="16.83 15.67 15.4 14.14 15.4 9.9 16.83 8.47 21.06 8.47 22.6 9.9 22.6 14.14 21.06 15.67 16.83 15.67" style="fill: #323232"/>
        <g>
          <polygon points="17.76 11.06 17.76 11.06 18.89 12.2 20.02 11.07 20.02 11.06 17.76 11.06" style="fill: #e9e9ea"/>
          <polygon points="17.76 13.32 17.76 13.32 18.89 12.19 20.02 13.32 20.02 13.32 17.76 13.32" style="fill: #b0acb0"/>
          <polygon points="20.02 11.06 20.02 11.06 18.89 12.19 20.02 13.32 20.02 13.32 20.02 11.06" style="fill: #d3d1d3"/>
          <polygon points="17.76 11.06 17.76 11.06 18.89 12.2 17.76 13.33 17.76 13.33 17.76 11.06" style="fill: #989498"/>
          <rect height="1.13" style="fill: #c0bec2" width="1.13" x="18.32" y="11.63"/>
        </g>
      </g>
    </g>
    <g data-name="Layer 11" id="Layer_11">
      <polygon points="25.04 23.55 24.8 24.36 25.27 24.36 25.04 23.55 25.04 23.55" style="fill: #dee6e6"/>
      <path d="M30.66,25s0-.09-.1-.09-.08,0-.1.09l-.27.54a.47.47,0,0,0-.07.24.4.4,0,0,0,.05.2l.29.57s0,.09.1.09.08,0,.1-.09L31,26a.41.41,0,0,0,.05-.2.47.47,0,0,0-.07-.24Z" style="fill: #dee6e6" transform="translate(0 -1.76)"/>
      <path d="M29.72,21.49h-7a4.34,4.34,0,0,0,0,8.69h7a4.34,4.34,0,0,0,0-8.69ZM23,26.94h-.4l-.78-1.8h0v1.65a.15.15,0,1,1-.3,0V24.6h.4l.78,1.82h0V24.75a.15.15,0,0,1,.3,0Zm2.61,0a.18.18,0,0,1-.16-.15l-.11-.36h-.64l-.11.36a.18.18,0,0,1-.16.15c-.08,0-.17-.08-.14-.15l.59-2c0-.08.06-.15.15-.15s.14.08.16.15l.58,2C25.8,26.86,25.72,26.93,25.63,26.93Zm3,0h-.4l-.78-1.8h0v1.65a.15.15,0,1,1-.3,0V24.6h.4l.78,1.82h0V24.75a.15.15,0,0,1,.3,0Zm2.54-.81-.28.55a.39.39,0,0,1-.73,0l-.28-.55a.73.73,0,0,1-.1-.36.68.68,0,0,1,.08-.33l.3-.6a.39.39,0,0,1,.73,0l.3.6a.68.68,0,0,1,.08.33A.73.73,0,0,1,31.2,26.13Z" style="fill: #dee6e6" transform="translate(0 -1.76)"/>
      <g>
        <path d="M7.8,44.27v.1c0,.09,0,.16-.14.16s-.13-.07-.13-.16v-.45a.41.41,0,0,1,.27-.41l.48-.24a.63.63,0,0,1,.61,0l.49.25a.41.41,0,0,1,.25.43v.45a.14.14,0,1,1-.27,0v-.13ZM9.37,44V44c0-.11,0-.14-.11-.19l-.48-.24a.38.38,0,0,0-.18-.05.45.45,0,0,0-.22.07l-.46.22c-.12.06-.11.08-.11.21v0Z" style="fill: #fff" transform="translate(0 -1.76)"/>
        <path d="M9.37,42.33V41.4a.14.14,0,0,1,.27,0v1.2H8.76a.27.27,0,0,1-.31-.31v-.76H7.8v.93a.14.14,0,1,1-.27,0v-.9a.28.28,0,0,1,.32-.3H8.4a.28.28,0,0,1,.32.3v.76Z" style="fill: #fff" transform="translate(0 -1.76)"/>
      </g>
      <g>
        <path d="M8.95,36.92a.14.14,0,1,1-.27,0v-.53h.53a.4.4,0,0,1,.42.43v.46a.41.41,0,0,1-.11.31.39.39,0,0,1-.33.13H8.52a.55.55,0,0,1-.39-.14l-.41-.32a.41.41,0,0,1-.18-.38v-.36a.14.14,0,0,1,.27,0v.32c0,.15,0,.14.11.23l.37.29a.51.51,0,0,0,.35.08h.53c.15,0,.19,0,.19-.19v-.43c0-.1,0-.18-.14-.18H8.95Z" style="fill: #fff" transform="translate(0 -1.76)"/>
        <path d="M7.67,34.72a.14.14,0,1,1,0-.27h2v.36L8,35.51H9.5a.14.14,0,1,1,0,.27h-2v-.36l1.64-.71H7.67Z" style="fill: #fff" transform="translate(0 -1.76)"/>
        <path d="M7.8,33.9V34c0,.09,0,.16-.14.16s-.13-.07-.13-.16v-.45a.41.41,0,0,1,.27-.41l.48-.24a.63.63,0,0,1,.61,0l.49.25a.41.41,0,0,1,.25.43V34a.14.14,0,1,1-.27,0V33.9Zm1.56-.27v-.05c0-.11,0-.14-.11-.19l-.48-.24a.38.38,0,0,0-.18-.05.45.45,0,0,0-.22.07l-.46.22c-.12.06-.11.08-.11.21v0Z" style="fill: #fff" transform="translate(0 -1.76)"/>
      </g>
      <g>
        <path d="M9.5,30.61a.14.14,0,1,1,0,.27h-2V30a.41.41,0,0,1,.39-.43h.19A.39.39,0,0,1,8.5,30v.25l.87-.61a.27.27,0,0,1,.14-.07.13.13,0,0,1,.13.14.14.14,0,0,1-.08.12l-1.06.75v.06Zm-1.27,0V30c0-.08,0-.19-.11-.19H7.93c-.11,0-.12.11-.12.19v.6Z" style="fill: #fff" transform="translate(0 -1.76)"/>
        <path d="M9.11,27.7a.35.35,0,0,1,.22-.09.3.3,0,0,1,.31.34v.59a.4.4,0,0,1-.09.27.34.34,0,0,1-.25.13.15.15,0,0,1-.16-.14.13.13,0,0,1,.14-.13c.08,0,.09,0,.09-.12V28s0-.09,0-.09-.06,0-.08,0l-1.19.93a.32.32,0,0,1-.22.09.3.3,0,0,1-.26-.14.36.36,0,0,1,0-.22V28a.38.38,0,0,1,.09-.27.37.37,0,0,1,.26-.13.14.14,0,0,1,.16.14.12.12,0,0,1-.13.13c-.09,0-.11,0-.11.13v.57s0,.09,0,.09.06,0,.07,0Z" style="fill: #fff" transform="translate(0 -1.76)"/>
        <path d="M7.8,26.72h.1a.14.14,0,0,1,0,.27H7.53V25.66H7.9a.14.14,0,0,1,0,.27H7.8v.26H9.5a.14.14,0,1,1,0,.27H7.8Z" style="fill: #fff" transform="translate(0 -1.76)"/>
      </g>
      <g>
        <path d="M9.5,23.36a.14.14,0,1,1,0,.27h-2v-.91a.41.41,0,0,1,.39-.43h.19a.39.39,0,0,1,.38.43V23l.87-.61a.27.27,0,0,1,.14-.07.13.13,0,0,1,.13.14.14.14,0,0,1-.08.12L8.5,23.3v.06Zm-1.27,0v-.6c0-.08,0-.19-.11-.19H7.93c-.11,0-.12.11-.12.19v.6Z" style="fill: #fff" transform="translate(0 -1.76)"/>
        <path d="M8.58,21.18l-.83.48a.18.18,0,0,1-.1,0,.13.13,0,0,1-.13-.13c0-.09.07-.12.13-.16L8.31,21l-.65-.38c-.06,0-.13-.07-.13-.16a.13.13,0,0,1,.13-.13.17.17,0,0,1,.1,0l.83.48.83-.48a.17.17,0,0,1,.1,0,.13.13,0,0,1,.13.13c0,.09-.07.12-.13.16L8.86,21l.65.38c.06,0,.13.07.13.16a.13.13,0,0,1-.13.13.18.18,0,0,1-.1,0Z" style="fill: #fff" transform="translate(0 -1.76)"/>
        <path d="M8.29,18.48a.61.61,0,0,1,.3-.07.66.66,0,0,1,.32.09l.5.25a.35.35,0,0,1,0,.66l-.5.25a.66.66,0,0,1-.32.09.61.61,0,0,1-.3-.07l-.54-.27a.35.35,0,0,1,0-.65ZM7.89,19s-.08,0-.08.09,0,.07.08.09l.49.24a.42.42,0,0,0,.22.06.36.36,0,0,0,.18,0l.51-.26s.08,0,.08-.09,0-.07-.08-.09l-.51-.26a.36.36,0,0,0-.18,0,.42.42,0,0,0-.22.06Z" style="fill: #fff" transform="translate(0 -1.76)"/>
      </g>
      <g>
        <path d="M7.8,13.93h.1a.14.14,0,0,1,0,.27H7.53V12.86H7.9a.14.14,0,0,1,0,.27H7.8v.26H9.5a.14.14,0,1,1,0,.27H7.8Z" style="fill: #fff" transform="translate(0 -1.76)"/>
        <path d="M8.58,11.74l-.83.48a.18.18,0,0,1-.1,0,.13.13,0,0,1-.13-.13c0-.09.07-.12.13-.16l.65-.38-.65-.38c-.06,0-.13-.07-.13-.16a.13.13,0,0,1,.13-.13.17.17,0,0,1,.1,0l.83.48.83-.48a.17.17,0,0,1,.1,0,.13.13,0,0,1,.13.13c0,.09-.07.12-.13.16l-.65.38L9.5,12c.06,0,.13.07.13.16a.13.13,0,0,1-.13.13.18.18,0,0,1-.1,0Z" style="fill: #fff" transform="translate(0 -1.76)"/>
        <path d="M9.37,9.24H8.82a.14.14,0,1,1,0-.27H9.5a.12.12,0,0,1,.14.13v1.06a.14.14,0,1,1-.27,0v-.4H7.8v.4a.14.14,0,1,1-.27,0V9.51H9.37Z" style="fill: #fff" transform="translate(0 -1.76)"/>
      </g>
      <g>
        <path d="M14,13.28v-.59a.2.2,0,1,1,.4,0v1.57a.2.2,0,1,1-.4,0v-.59H11.65v.59a.2.2,0,1,1-.4,0V12.69a.2.2,0,1,1,.4,0v.59Z" style="fill: #fff" transform="translate(0 -1.76)"/>
        <path d="M14.36,11.47a.6.6,0,0,1-.38.6l-.74.37a.9.9,0,0,1-.42.11.87.87,0,0,1-.44-.11l-.74-.37a.6.6,0,0,1-.38-.62v-.68a.19.19,0,0,1,.2-.2.19.19,0,0,1,.2.2v.67c0,.17,0,.2.17.28l.7.35a.62.62,0,0,0,.3.08.56.56,0,0,0,.28-.08l.69-.34c.16-.08.18-.12.18-.3v-.65a.19.19,0,0,1,.2-.2.19.19,0,0,1,.2.2Z" style="fill: #fff" transform="translate(0 -1.76)"/>
        <path d="M13.58,7.91a.52.52,0,0,1,.33-.14.45.45,0,0,1,.45.5v.88a.59.59,0,0,1-.13.4.51.51,0,0,1-.37.19.22.22,0,0,1-.24-.21.19.19,0,0,1,.2-.19c.12,0,.14-.06.14-.18V8.3s0-.13,0-.13-.09.06-.12.07L12,9.61a.48.48,0,0,1-.33.13.45.45,0,0,1-.38-.21.53.53,0,0,1-.07-.33V8.35a.57.57,0,0,1,.13-.4.55.55,0,0,1,.38-.19A.2.2,0,0,1,12,8a.18.18,0,0,1-.19.19c-.14,0-.16.07-.16.19v.85s0,.14.06.14.08,0,.11-.06Z" style="fill: #fff" transform="translate(0 -1.76)"/>
        <path d="M14.17,6.79a.2.2,0,0,1,0,.4H11.25V5.86a.59.59,0,0,1,.16-.46.6.6,0,0,1,.52-.19h.54a.66.66,0,0,1,.51.16.62.62,0,0,1,.19.54v.88Zm-1.38,0V5.9c0-.24-.06-.29-.29-.29h-.56c-.23,0-.29.05-.29.29v.89Z" style="fill: #fff" transform="translate(0 -1.76)"/>
      </g>
      <g>
        <path d="M7.8,51.52v.1c0,.09,0,.16-.14.16s-.13-.07-.13-.16v-.45a.41.41,0,0,1,.27-.41l.48-.24a.63.63,0,0,1,.61,0l.49.25a.41.41,0,0,1,.25.43v.45a.14.14,0,1,1-.27,0v-.13Zm1.56-.27V51.2c0-.11,0-.14-.11-.19l-.48-.24a.38.38,0,0,0-.18-.05.45.45,0,0,0-.22.07L7.92,51c-.12.06-.11.08-.11.21v0Z" style="fill: #fff" transform="translate(0 -1.76)"/>
        <path d="M7.8,49.71a.14.14,0,1,1-.27,0v-.93a.26.26,0,0,1,.27-.27h.52a.31.31,0,0,1,.26.1.31.31,0,0,1,.26-.1h.52a.26.26,0,0,1,.27.27v.93a.14.14,0,1,1-.27,0v-.93H8.92c-.15,0-.2.06-.2.13v.53a.14.14,0,1,1-.27,0v-.53c0-.08,0-.13-.2-.13H7.8Z" style="fill: #fff" transform="translate(0 -1.76)"/>
      </g>
      <g>
        <path d="M7.8,59.15v.1c0,.09,0,.16-.14.16s-.13-.07-.13-.16v-.45a.41.41,0,0,1,.27-.41l.48-.24a.63.63,0,0,1,.61,0l.49.25a.41.41,0,0,1,.25.43v.45a.14.14,0,1,1-.27,0v-.13Zm1.56-.27v-.05c0-.11,0-.14-.11-.19l-.48-.24a.38.38,0,0,0-.18-.05.45.45,0,0,0-.22.07l-.46.22c-.12.06-.11.08-.11.21v0Z" style="fill: #fff" transform="translate(0 -1.76)"/>
        <path d="M8.68,56.54H7.9a.14.14,0,0,1,0-.27h.78a.14.14,0,0,1,.27,0H9.5a.14.14,0,1,1,0,.27H8.95v.79H7.67a.14.14,0,0,1,0-.27h1Z" style="fill: #fff" transform="translate(0 -1.76)"/>
      </g>
      <g>
        <path d="M7.8,66v.1c0,.09,0,.16-.14.16s-.13-.07-.13-.16v-.45a.41.41,0,0,1,.27-.41L8.28,65a.63.63,0,0,1,.61,0l.49.25a.41.41,0,0,1,.25.43v.45a.14.14,0,1,1-.27,0V66Zm1.56-.27V65.7c0-.11,0-.14-.11-.19l-.48-.24a.38.38,0,0,0-.18-.05.45.45,0,0,0-.22.07l-.46.22c-.12.06-.11.08-.11.21v0Z" style="fill: #fff" transform="translate(0 -1.76)"/>
        <path d="M8.45,63.81v-.5a.28.28,0,0,1,.08-.22A.26.26,0,0,1,8.76,63h.58a.29.29,0,0,1,.21.06.26.26,0,0,1,.09.24v.6a.39.39,0,0,1,0,.18l0,.1c0,.07-.06.15-.15.15a.14.14,0,0,1-.14-.13.2.2,0,0,1,0-.09l0-.08a.47.47,0,0,0,.05-.14v-.62H8.72v.8H7.53v-.93a.14.14,0,0,1,.27,0v.66Z" style="fill: #fff" transform="translate(0 -1.76)"/>
      </g>
      <g>
        <path d="M7.8,73.27v.1c0,.09,0,.16-.14.16s-.13-.07-.13-.16v-.45a.41.41,0,0,1,.27-.41l.48-.24a.63.63,0,0,1,.61,0l.49.25a.41.41,0,0,1,.25.43v.45a.14.14,0,1,1-.27,0v-.13ZM9.37,73V73c0-.11,0-.14-.11-.19l-.48-.24a.38.38,0,0,0-.18-.05.45.45,0,0,0-.22.07l-.46.22c-.12.06-.11.08-.11.21v0Z" style="fill: #fff" transform="translate(0 -1.76)"/>
        <path d="M8.68,71.33v-.9c0-.13.06-.16.18-.16h.6c.13,0,.17.05.17.18v1c0,.13,0,.18-.17.18H7.67c-.06,0-.13,0-.13-.12v-.16a.13.13,0,0,1,.13-.13.13.13,0,0,1,.14.14Zm.27,0h.42v-.79H8.95Z" style="fill: #fff" transform="translate(0 -1.76)"/>
      </g>
      <g>
        <path d="M7.8,80.27v.1c0,.09,0,.16-.14.16s-.13-.07-.13-.16v-.45a.41.41,0,0,1,.27-.41l.48-.24a.63.63,0,0,1,.61,0l.49.25a.41.41,0,0,1,.25.43v.45a.14.14,0,1,1-.27,0v-.13ZM9.37,80V80c0-.11,0-.14-.11-.19l-.48-.24a.38.38,0,0,0-.18-.05.45.45,0,0,0-.22.07l-.46.22c-.12.06-.11.08-.11.21v0Z" style="fill: #fff" transform="translate(0 -1.76)"/>
        <path d="M7.8,78.33a.14.14,0,0,1,0,.27H7.67a.14.14,0,0,1-.13-.14v-1.2h.78c.09,0,.1,0,.17.07l.33.38c.06.07.07.08.16.08H9.5a.14.14,0,1,1,0,.27H8.85A.15.15,0,0,1,8.69,78l-.32-.37c-.08-.09-.08-.08-.19-.08H7.8Z" style="fill: #fff" transform="translate(0 -1.76)"/>
      </g>
      <g>
        <path d="M7.8,87.77v.1c0,.09,0,.16-.14.16s-.13-.07-.13-.16v-.45A.41.41,0,0,1,7.8,87l.48-.24a.63.63,0,0,1,.61,0l.49.25a.41.41,0,0,1,.25.43v.45a.14.14,0,1,1-.27,0v-.13Zm1.56-.27v-.05c0-.11,0-.14-.11-.19L8.77,87A.38.38,0,0,0,8.6,87a.45.45,0,0,0-.22.07l-.46.22c-.12.06-.11.08-.11.21v0Z" style="fill: #fff" transform="translate(0 -1.76)"/>
        <path d="M7.53,85.17A.13.13,0,0,1,7.67,85h.78a.28.28,0,0,1,.08-.2.26.26,0,0,1,.2-.07h.64a.25.25,0,0,1,.27.27v.79a.25.25,0,0,1-.27.27H8.72a.26.26,0,0,1-.2-.07.28.28,0,0,1-.08-.2H7.67a.13.13,0,0,1-.13-.14Zm.92.14H7.8v.25h.65ZM9.37,85H8.72v.79h.65Z" style="fill: #fff" transform="translate(0 -1.76)"/>
      </g>
      <g>
        <path d="M7.8,94.34v.1c0,.09,0,.16-.14.16s-.13-.07-.13-.16V94a.41.41,0,0,1,.27-.41l.48-.24a.63.63,0,0,1,.61,0l.49.25a.41.41,0,0,1,.25.43v.45a.14.14,0,1,1-.27,0v-.13Zm1.56-.27V94c0-.11,0-.14-.11-.19l-.48-.24a.38.38,0,0,0-.18-.05.45.45,0,0,0-.22.07l-.46.22c-.12.06-.11.08-.11.21v0Z" style="fill: #fff" transform="translate(0 -1.76)"/>
        <path d="M8.5,91.59v.93a.14.14,0,0,1-.14.14H7.67a.14.14,0,0,1-.13-.14V91.46a.14.14,0,0,1,.13-.13H9.5a.13.13,0,0,1,.14.13v.14a.13.13,0,0,1-.14.13.13.13,0,0,1-.13-.13Zm-.27,0H7.8v.79h.42Z" style="fill: #fff" transform="translate(0 -1.76)"/>
      </g>
      <g>
        <path d="M7.8,103v.1c0,.09,0,.16-.14.16s-.13-.07-.13-.16v-.45a.41.41,0,0,1,.27-.41l.48-.24a.63.63,0,0,1,.61,0l.49.25a.41.41,0,0,1,.25.43v.45a.14.14,0,1,1-.27,0V103Zm1.56-.27v-.05c0-.11,0-.14-.11-.19l-.48-.24a.38.38,0,0,0-.18-.05.45.45,0,0,0-.22.07l-.46.22c-.12.06-.11.08-.11.21v0Z" style="fill: #fff" transform="translate(0 -1.76)"/>
        <path d="M9.37,100.28H8.82a.14.14,0,1,1,0-.27H9.5a.12.12,0,0,1,.14.13v1.06a.14.14,0,1,1-.27,0v-.4H7.8v.4a.14.14,0,1,1-.27,0v-.67H9.37Z" style="fill: #fff" transform="translate(0 -1.76)"/>
        <path d="M7.53,98.34a.27.27,0,0,1,.27-.27H9.37a.27.27,0,0,1,.27.27v.79a.27.27,0,0,1-.27.27H7.8a.27.27,0,0,1-.27-.27Zm1.83,0H7.8v.79H9.37Z" style="fill: #fff" transform="translate(0 -1.76)"/>
      </g>
      <g>
        <path d="M7.8,109.65v.1c0,.09,0,.16-.14.16s-.13-.07-.13-.16v-.45a.41.41,0,0,1,.27-.41l.48-.24a.63.63,0,0,1,.61,0l.49.25a.41.41,0,0,1,.25.43v.45a.14.14,0,1,1-.27,0v-.13Zm1.56-.27v-.05c0-.11,0-.14-.11-.19l-.48-.24a.38.38,0,0,0-.18-.05.45.45,0,0,0-.22.07l-.46.22c-.12.06-.11.08-.11.21v0Z" style="fill: #fff" transform="translate(0 -1.76)"/>
        <path d="M9.37,106.91H8.82a.14.14,0,1,1,0-.27H9.5a.12.12,0,0,1,.14.13v1.06a.14.14,0,1,1-.27,0v-.4H7.8v.4a.14.14,0,1,1-.27,0v-.67H9.37Z" style="fill: #fff" transform="translate(0 -1.76)"/>
        <path d="M9.37,105H8.82a.14.14,0,1,1,0-.27H9.5a.12.12,0,0,1,.14.13v1.06a.14.14,0,1,1-.27,0v-.4H7.8v.4a.14.14,0,1,1-.27,0v-.67H9.37Z" style="fill: #fff" transform="translate(0 -1.76)"/>
      </g>
      <g>
        <path d="M7.8,117.21v.1c0,.09,0,.16-.14.16s-.13-.07-.13-.16v-.45a.41.41,0,0,1,.27-.41l.48-.24a.63.63,0,0,1,.61,0l.49.25a.41.41,0,0,1,.25.43v.45a.14.14,0,1,1-.27,0v-.13Zm1.56-.27v-.05c0-.11,0-.14-.11-.19l-.48-.24a.38.38,0,0,0-.18-.05.45.45,0,0,0-.22.07l-.46.22c-.12.06-.11.08-.11.21v0Z" style="fill: #fff" transform="translate(0 -1.76)"/>
        <path d="M9.37,114.47H8.82a.14.14,0,1,1,0-.27H9.5a.12.12,0,0,1,.14.13v1.06a.14.14,0,1,1-.27,0V115H7.8v.4a.14.14,0,1,1-.27,0v-.67H9.37Z" style="fill: #fff" transform="translate(0 -1.76)"/>
        <path d="M9.37,113.32v-.93a.14.14,0,0,1,.27,0v1.2H8.76a.27.27,0,0,1-.31-.31v-.76H7.8v.93a.14.14,0,1,1-.27,0v-.9a.28.28,0,0,1,.32-.3H8.4a.28.28,0,0,1,.32.3v.76Z" style="fill: #fff" transform="translate(0 -1.76)"/>
      </g>
      <g>
        <path d="M42.69,43.47c-.07,0-.14-.05-.14-.14s.07-.12.14-.14l1.83-.52c.06,0,.14.05.14.13a.16.16,0,0,1-.14.15l-.32.1v.58l.32.1a.16.16,0,0,1,.14.15c0,.08-.07.15-.14.13Zm.5-.14h0l.73.21v-.42Z" style="fill: #fff" transform="translate(0 -1.76)"/>
        <path d="M42.83,41.78a.14.14,0,0,1,0,.27h-.14a.14.14,0,0,1-.13-.14v-1.2h.78c.09,0,.1,0,.17.07l.33.38c.06.07.07.08.16.08h.52a.14.14,0,1,1,0,.27h-.65a.15.15,0,0,1-.16-.07l-.32-.37c-.08-.09-.08-.08-.19-.08h-.37Z" style="fill: #fff" transform="translate(0 -1.76)"/>
      </g>
      <g>
        <path d="M43.47,36.4v-.5a.28.28,0,0,1,.08-.22.26.26,0,0,1,.23-.08h.58a.29.29,0,0,1,.21.06.26.26,0,0,1,.09.23v.6a.39.39,0,0,1,0,.18l0,.1c0,.07-.06.15-.15.15a.14.14,0,0,1-.14-.13.2.2,0,0,1,0-.09l0-.08a.47.47,0,0,0,.05-.14v-.62h-.65v.8H42.56v-.93a.14.14,0,0,1,.27,0v.66Z" style="fill: #fff" transform="translate(0 -1.76)"/>
        <path d="M43.12,33.93h-.43a.14.14,0,0,1,0-.27h.43l.11,0,1.32.52c.07,0,.12.05.12.14s-.05.11-.12.13L43.22,35l-.11,0h-.43a.14.14,0,0,1,0-.27h.43l1-.4Z" style="fill: #fff" transform="translate(0 -1.76)"/>
      </g>
      <g>
        <path d="M44.73,30.28a.14.14,0,1,1,0,.27h-2v-.91a.41.41,0,0,1,.39-.43h.19a.39.39,0,0,1,.38.43v.25l.87-.61a.27.27,0,0,1,.14-.07.13.13,0,0,1,.13.14.14.14,0,0,1-.08.12l-1.06.75v.06Zm-1.27,0v-.6c0-.08,0-.19-.11-.19h-.19c-.11,0-.12.11-.12.19v.6Z" style="fill: #fff" transform="translate(0 -1.76)"/>
        <path d="M44.34,27.37a.35.35,0,0,1,.22-.09.3.3,0,0,1,.31.34v.59a.4.4,0,0,1-.09.27.34.34,0,0,1-.25.13.15.15,0,0,1-.16-.14.13.13,0,0,1,.14-.13c.08,0,.09,0,.09-.12v-.59s0-.09,0-.09-.06,0-.08,0l-1.19.93a.32.32,0,0,1-.22.09.3.3,0,0,1-.26-.14.36.36,0,0,1,0-.22v-.57a.38.38,0,0,1,.09-.27.37.37,0,0,1,.26-.13.14.14,0,0,1,.16.14.12.12,0,0,1-.13.13c-.09,0-.11,0-.11.13v.57s0,.09,0,.09.06,0,.07,0Z" style="fill: #fff" transform="translate(0 -1.76)"/>
        <path d="M43,26.39h.1a.14.14,0,0,1,0,.27h-.37V25.33h.37a.14.14,0,0,1,0,.27H43v.26h1.7a.14.14,0,1,1,0,.27H43Z" style="fill: #fff" transform="translate(0 -1.76)"/>
      </g>
      <g>
        <path d="M44.18,22.5a.14.14,0,1,1-.27,0V22h.53a.4.4,0,0,1,.42.43v.46a.41.41,0,0,1-.11.31.39.39,0,0,1-.33.13h-.67a.55.55,0,0,1-.39-.14l-.41-.32a.41.41,0,0,1-.18-.38V22.1a.14.14,0,0,1,.27,0v.32c0,.15,0,.14.11.23l.38.29a.51.51,0,0,0,.35.08h.53c.15,0,.19,0,.19-.19v-.43c0-.1,0-.18-.14-.18h-.28Z" style="fill: #fff" transform="translate(0 -1.76)"/>
        <path d="M42.9,20.67a.14.14,0,1,1,0-.27h2v.36l-1.62.71h1.48a.14.14,0,1,1,0,.27h-2v-.36l1.64-.71H42.9Z" style="fill: #fff" transform="translate(0 -1.76)"/>
        <path d="M43,19.74v.1c0,.09,0,.16-.14.16s-.13-.07-.13-.16V19.4A.41.41,0,0,1,43,19l.48-.24a.63.63,0,0,1,.61,0l.49.25a.41.41,0,0,1,.25.43v.45a.14.14,0,1,1-.27,0v-.13Zm1.56-.27v-.05c0-.11,0-.14-.11-.19L44,19a.38.38,0,0,0-.18-.05.45.45,0,0,0-.22.07l-.46.22c-.12.06-.11.08-.11.21v0Z" style="fill: #fff" transform="translate(0 -1.76)"/>
      </g>
      <g>
        <path d="M43.33,15.42H42.9a.14.14,0,0,1,0-.27h.43l.11,0,1.32.52c.07,0,.12.05.12.14s-.05.11-.12.13l-1.32.52-.11,0H42.9a.14.14,0,0,1,0-.27h.43l1-.4Z" style="fill: #fff" transform="translate(0 -1.76)"/>
        <path d="M44.59,13.74v-.4a.14.14,0,0,1,.27,0v1.06a.14.14,0,1,1-.27,0V14H43v.4a.14.14,0,1,1-.27,0V13.34a.14.14,0,0,1,.27,0v.4Z" style="fill: #fff" transform="translate(0 -1.76)"/>
        <path d="M42.9,11.53a.14.14,0,1,1,0-.27h2v.36l-1.62.71h1.48a.14.14,0,1,1,0,.27h-2v-.36l1.64-.71H42.9Z" style="fill: #fff" transform="translate(0 -1.76)"/>
      </g>
      <g>
        <path d="M42.9,50.51c-.07,0-.14-.05-.14-.14s.07-.12.14-.14l1.83-.52c.06,0,.14.05.14.13a.16.16,0,0,1-.14.15l-.32.1v.58l.32.1a.16.16,0,0,1,.14.15c0,.08-.07.15-.14.13Zm.5-.14h0l.73.21v-.42Z" style="fill: #fff" transform="translate(0 -1.76)"/>
        <path d="M43.91,48.83v-.9c0-.13.06-.16.18-.16h.6c.13,0,.17.05.17.18v1c0,.13,0,.18-.17.18H42.9c-.06,0-.13,0-.13-.12v-.16a.13.13,0,0,1,.13-.13.13.13,0,0,1,.14.14Zm.27,0h.42V48h-.42Z" style="fill: #fff" transform="translate(0 -1.76)"/>
      </g>
      <g>
        <path d="M42.3,57.76c-.07,0-.14-.05-.14-.14s.07-.12.14-.14L44.13,57c.06,0,.14.05.14.13a.16.16,0,0,1-.14.15l-.32.1v.58l.32.1a.16.16,0,0,1,.14.15c0,.08-.07.15-.14.13Zm.5-.14h0l.73.21v-.42Z" style="fill: #fff" transform="translate(0 -1.76)"/>
        <path d="M43.08,55.81v-.5a.28.28,0,0,1,.08-.22.26.26,0,0,1,.23-.08H44a.29.29,0,0,1,.21.06.26.26,0,0,1,.09.24v.6a.39.39,0,0,1,0,.18l0,.1c0,.07-.06.15-.15.15a.14.14,0,0,1-.14-.13.2.2,0,0,1,0-.09l0-.08A.47.47,0,0,0,44,55.9v-.62h-.65v.8H42.16v-.93a.14.14,0,0,1,.27,0v.66Z" style="fill: #fff" transform="translate(0 -1.76)"/>
      </g>
      <g>
        <path d="M42.69,65.22c-.07,0-.14-.05-.14-.14s.07-.12.14-.14l1.83-.52c.06,0,.14.05.14.13a.16.16,0,0,1-.14.15l-.32.1v.58l.32.1a.16.16,0,0,1,.14.15c0,.08-.07.15-.14.13Zm.5-.14h0l.73.21v-.42Z" style="fill: #fff" transform="translate(0 -1.76)"/>
        <path d="M43.7,62.87h-.78a.14.14,0,0,1,0-.27h.78a.14.14,0,0,1,.27,0h.55a.14.14,0,1,1,0,.27H44v.79H42.69a.14.14,0,0,1,0-.27h1Z" style="fill: #fff" transform="translate(0 -1.76)"/>
      </g>
      <g>
        <path d="M42.69,72.47c-.07,0-.14-.05-.14-.14s.07-.12.14-.14l1.83-.52c.06,0,.14.05.14.13a.16.16,0,0,1-.14.15l-.32.1v.58l.32.1a.16.16,0,0,1,.14.15c0,.08-.07.15-.14.13Zm.5-.14h0l.73.21v-.42Z" style="fill: #fff" transform="translate(0 -1.76)"/>
        <path d="M42.83,70.92a.14.14,0,1,1-.27,0V70a.26.26,0,0,1,.27-.27h.52a.31.31,0,0,1,.26.1.31.31,0,0,1,.26-.1h.52a.26.26,0,0,1,.27.27v.93a.14.14,0,1,1-.27,0V70h-.45c-.15,0-.2.06-.2.13v.53a.14.14,0,1,1-.27,0v-.53c0-.08,0-.13-.2-.13h-.45Z" style="fill: #fff" transform="translate(0 -1.76)"/>
      </g>
      <g>
        <path d="M42.69,79.55c-.07,0-.14-.05-.14-.14s.07-.12.14-.14l1.83-.52c.06,0,.14.05.14.13a.16.16,0,0,1-.14.15l-.32.1v.58l.32.1a.16.16,0,0,1,.14.15c0,.08-.07.15-.14.13Zm.5-.14h0l.73.21V79.2Z" style="fill: #fff" transform="translate(0 -1.76)"/>
        <path d="M44.39,77.87v-.93a.14.14,0,0,1,.27,0v1.2h-.88a.27.27,0,0,1-.31-.31v-.76h-.65V78a.14.14,0,1,1-.27,0v-.9a.28.28,0,0,1,.32-.3h.55a.28.28,0,0,1,.32.3v.76Z" style="fill: #fff" transform="translate(0 -1.76)"/>
      </g>
      <g>
        <path d="M42.69,86.8c-.07,0-.14-.05-.14-.14s.07-.12.14-.14L44.52,86c.06,0,.14.05.14.13a.16.16,0,0,1-.14.15l-.32.1V87l.32.1a.16.16,0,0,1,.14.15c0,.08-.07.15-.14.13Zm.5-.14h0l.73.21v-.42Z" style="fill: #fff" transform="translate(0 -1.76)"/>
        <path d="M44.39,84.32h-.55a.14.14,0,1,1,0-.27h.68a.12.12,0,0,1,.14.13v1.06a.14.14,0,1,1-.27,0v-.4H42.83v.4a.14.14,0,1,1-.27,0v-.67h1.83Z" style="fill: #fff" transform="translate(0 -1.76)"/>
      </g>
      <g>
        <path d="M42.51,94.05c-.07,0-.14-.05-.14-.14s.07-.12.14-.14l1.83-.52c.06,0,.14.05.14.13a.16.16,0,0,1-.14.15l-.32.1v.58l.32.1a.16.16,0,0,1,.14.15c0,.08-.07.15-.14.13Zm.5-.14h0l.73.21V93.7Z" style="fill: #fff" transform="translate(0 -1.76)"/>
        <path d="M42.37,91.57a.27.27,0,0,1,.27-.27H44.2a.27.27,0,0,1,.27.27v.79a.27.27,0,0,1-.27.27H42.64a.27.27,0,0,1-.27-.27Zm1.83,0H42.64v.79H44.2Z" style="fill: #fff" transform="translate(0 -1.76)"/>
      </g>
      <g>
        <path d="M44.33,102.56a.14.14,0,1,1,0,.27h-2v-.91a.41.41,0,0,1,.39-.43h.19a.39.39,0,0,1,.38.43v.25l.87-.61a.27.27,0,0,1,.14-.07.13.13,0,0,1,.13.14.14.14,0,0,1-.08.12l-1.06.75v.06Zm-1.27,0V102c0-.08,0-.19-.11-.19h-.19c-.11,0-.12.11-.12.19v.6Z" style="fill: #fff" transform="translate(0 -1.76)"/>
        <path d="M44.2,99.69a.14.14,0,0,1,.27,0v1.2h-2.1v-1.2a.14.14,0,0,1,.27,0v.93h.65v-.4a.14.14,0,1,1,.27,0v.4h.65Z" style="fill: #fff" transform="translate(0 -1.76)"/>
        <path d="M42.37,98.94v-1.2a.14.14,0,0,1,.27,0v.93h.42V98a.14.14,0,0,1,.27,0v.66h1a.14.14,0,1,1,0,.27Z" style="fill: #fff" transform="translate(0 -1.76)"/>
      </g>
      <g>
        <path d="M42.43,109.95a.14.14,0,1,1-.27,0V109a.26.26,0,0,1,.27-.27h.52a.31.31,0,0,1,.26.1.31.31,0,0,1,.26-.1H44a.26.26,0,0,1,.27.27v.93a.14.14,0,1,1-.27,0V109h-.45c-.15,0-.2.06-.2.13v.53a.14.14,0,1,1-.27,0v-.53c0-.08,0-.13-.2-.13h-.45Z" style="fill: #fff" transform="translate(0 -1.76)"/>
        <path d="M42.73,107.07h-.43a.14.14,0,0,1,0-.27h.43l.11,0,1.32.52c.07,0,.12.05.12.14s-.05.11-.12.13l-1.32.52-.11,0h-.43a.14.14,0,0,1,0-.27h.43l1-.4Z" style="fill: #fff" transform="translate(0 -1.76)"/>
        <path d="M42.43,106.06a.14.14,0,1,1-.27,0v-.93a.26.26,0,0,1,.27-.27h.52a.31.31,0,0,1,.26.1.31.31,0,0,1,.26-.1H44a.26.26,0,0,1,.27.27v.93a.14.14,0,1,1-.27,0v-.93h-.45c-.15,0-.2.06-.2.13v.53a.14.14,0,1,1-.27,0v-.53c0-.08,0-.13-.2-.13h-.45Z" style="fill: #fff" transform="translate(0 -1.76)"/>
      </g>
      <g>
        <path d="M42.43,116.09v.1c0,.09,0,.16-.14.16s-.13-.07-.13-.16v-.45a.41.41,0,0,1,.27-.41l.48-.24a.63.63,0,0,1,.61,0l.49.25a.41.41,0,0,1,.25.43v.45a.14.14,0,1,1-.27,0v-.13Zm1.56-.27v-.05c0-.11,0-.14-.11-.19l-.48-.24a.38.38,0,0,0-.18-.05.45.45,0,0,0-.22.07l-.46.22c-.12.06-.11.08-.11.21v0Z" style="fill: #fff" transform="translate(0 -1.76)"/>
        <path d="M44,113.34h-.55a.14.14,0,1,1,0-.27h.68a.12.12,0,0,1,.14.13v1.06a.14.14,0,1,1-.27,0v-.4H42.43v.4a.14.14,0,1,1-.27,0v-.67H44Z" style="fill: #fff" transform="translate(0 -1.76)"/>
        <path d="M42.43,112.33a.14.14,0,1,1-.27,0v-.93a.26.26,0,0,1,.27-.27h.52a.31.31,0,0,1,.26.1.31.31,0,0,1,.26-.1H44a.26.26,0,0,1,.27.27v.93a.14.14,0,1,1-.27,0v-.93h-.45c-.15,0-.2.06-.2.13v.53a.14.14,0,1,1-.27,0v-.53c0-.08,0-.13-.2-.13h-.45Z" style="fill: #fff" transform="translate(0 -1.76)"/>
      </g>
      <g>
        <path d="M25.51,76.82l.18.18-1,1a.1.1,0,1,1-.14-.14l.83-.83h0l-.33.06,0,0a.1.1,0,0,1-.16,0,.1.1,0,0,1,0-.16l0,0,.06-.33h0l-.83.83a.1.1,0,1,1-.14-.14l1-1,.18.18-.08.42Z" style="fill: #fff" transform="translate(0 -1.76)"/>
        <path d="M25.6,78.82a.1.1,0,0,1-.14.14l-.63-.63,1.1-1.1.63.63a.1.1,0,1,1-.14.14l-.49-.49-.34.34.21.21a.1.1,0,0,1-.14.14L25.45,78l-.34.34Z" style="fill: #fff" transform="translate(0 -1.76)"/>
        <path d="M26.28,79.07a.1.1,0,0,1,.14-.14l.28.28-.28.28a.3.3,0,0,1-.45,0l-.24-.24a.31.31,0,0,1-.11-.22.29.29,0,0,1,.11-.24l.35-.35a.4.4,0,0,1,.28-.13l.38,0a.31.31,0,0,1,.29.1l.19.19a.09.09,0,0,1,0,.14.09.09,0,0,1-.14,0l-.17-.17c-.08-.08-.07-.07-.18-.06l-.35,0a.38.38,0,0,0-.23.14l-.28.28c-.08.08-.08.12,0,.2l.22.22c.05.05.1.08.17,0l.14-.14Z" style="fill: #fff" transform="translate(0 -1.76)"/>
        <path d="M27.6,79s.1,0,.14,0,0,.1,0,.15l-.68,1.23a.09.09,0,0,1-.14,0,.12.12,0,0,1,0-.15l.12-.22-.3-.3-.22.12a.12.12,0,0,1-.15,0,.09.09,0,0,1,0-.14Zm-.19.34h0l-.49.27.22.22Z" style="fill: #fff" transform="translate(0 -1.76)"/>
        <path d="M28.06,79.65a.1.1,0,0,1,.14-.14l.49.49a.19.19,0,0,1,0,.28l-.27.27a.28.28,0,0,0-.27.28l-.27.27a.2.2,0,0,1-.28,0l-.49-.49a.1.1,0,0,1,.14-.14l.49.49.23-.23c.08-.08.07-.13,0-.17l-.28-.28a.1.1,0,0,1,.14-.14l.28.28s.1,0,.17,0l.23-.24Z" style="fill: #fff" transform="translate(0 -1.76)"/>
        <path d="M28.16,81.38l.49.49a.1.1,0,0,1-.14.14l-.63-.63.46-.46a.2.2,0,0,1,.32,0l.4.4L29.4,81l-.49-.49a.1.1,0,0,1,.14-.14l.47.47a.21.21,0,0,1,.07.16.21.21,0,0,1-.08.17l-.29.29a.21.21,0,0,1-.17.08.22.22,0,0,1-.15-.08l-.4-.4Z" style="fill: #fff" transform="translate(0 -1.76)"/>
        <path d="M30.29,81.59a.09.09,0,0,1,0,.14l-.41.41a.21.21,0,0,1,.06.14.19.19,0,0,1-.06.14l-.34.34a.19.19,0,0,1-.28,0l-.42-.42a.19.19,0,0,1,0-.28l.34-.34a.19.19,0,0,1,.14-.07.2.2,0,0,1,.14.06l.41-.41a.1.1,0,0,1,.14,0Zm-.89,1,.34-.34-.42-.42L29,82.2Zm.34-.62.34-.34-.13-.13-.34.34Z" style="fill: #fff" transform="translate(0 -1.76)"/>
        <path d="M29.82,83.18a.1.1,0,1,1-.14-.14l1-1,.47.47a.3.3,0,0,1,.1.22.3.3,0,0,1-.12.25l-.19.19a.33.33,0,0,1-.24.12.31.31,0,0,1-.26-.12l-.31-.31Zm.49-.49.31.31c.08.08.12.08.2,0l.2-.2c.08-.08.08-.12,0-.2l-.31-.31Z" style="fill: #fff" transform="translate(0 -1.76)"/>
      </g>
      <g>
        <path d="M27.78,76.16s.1,0,.14,0a.11.11,0,0,1,0,.15l-.68,1.23a.09.09,0,0,1-.14,0,.12.12,0,0,1,0-.15l.12-.22-.3-.3-.22.12a.12.12,0,0,1-.15,0,.09.09,0,0,1,0-.14Zm-.19.34h0l-.49.27.22.22Z" style="fill: #fff" transform="translate(0 -1.76)"/>
        <path d="M28.39,76.92l-.05.05a.09.09,0,0,1-.14,0,.09.09,0,0,1,0-.14l.19-.19.7.7-.19.19a.1.1,0,1,1-.14-.14l.05-.05-.14-.14-.89.89a.1.1,0,0,1-.14-.14l.89-.89Z" style="fill: #fff" transform="translate(0 -1.76)"/>
        <path d="M29.82,78.06l.18.18-1,1a.09.09,0,0,1-.14,0,.09.09,0,0,1,0-.14l.83-.83h0l-.33.06,0,0s-.1.07-.15,0a.1.1,0,0,1,0-.15l0,0,.06-.33h0l-.83.83a.1.1,0,1,1-.14-.14l1-1,.18.18-.08.42Z" style="fill: #fff" transform="translate(0 -1.76)"/>
        <path d="M29.87,80a.09.09,0,0,1,0,.14.09.09,0,0,1-.14,0l-.63-.63,1.1-1.1.63.63a.1.1,0,0,1-.14.14l-.49-.49-.34.34.21.21a.1.1,0,1,1-.14.14l-.21-.21-.34.34Z" style="fill: #fff" transform="translate(0 -1.76)"/>
        <path d="M30.72,80.88a.09.09,0,0,1,0,.14.09.09,0,0,1-.14,0L30,80.39l1-1a.1.1,0,1,1,.14.14l-.89.89Z" style="fill: #fff" transform="translate(0 -1.76)"/>
      </g>
      <g>
        <path d="M24.75,79.08l.18.18-1,1a.09.09,0,0,1-.14,0,.09.09,0,0,1,0-.14l.83-.83h0l-.33.06,0,0a.1.1,0,0,1-.15,0,.1.1,0,0,1,0-.16l0,0,.06-.33h0l-.83.83a.1.1,0,1,1-.14-.14l1-1,.18.18-.08.42Z" style="fill: #fff" transform="translate(0 -1.76)"/>
        <path d="M24.18,80.71a.31.31,0,0,1-.1-.25.32.32,0,0,1,.12-.22l.79-.79a.09.09,0,0,1,.14,0,.09.09,0,0,1,0,.14l-.79.79c-.08.08-.07.12,0,.19l.24.24c.06.06.11.07.19,0l.79-.79a.1.1,0,1,1,.14.14l-.79.79a.32.32,0,0,1-.22.11.3.3,0,0,1-.25-.1Z" style="fill: #fff" transform="translate(0 -1.76)"/>
        <path d="M25.47,81.72l.29-.29a.1.1,0,0,1,.14.14l-.36.36a.09.09,0,0,1-.14,0l-.56-.56a.1.1,0,0,1,.14-.14l.21.21.82-.82-.21-.21a.1.1,0,0,1,.14-.14l.35.35-1,1Z" style="fill: #fff" transform="translate(0 -1.76)"/>
        <path d="M26.26,81.79l.47.47c.07.07.06.11,0,.18l-.32.32c-.07.07-.12.06-.18,0l-.51-.51c-.07-.07-.07-.12,0-.18l.94-.94a.08.08,0,0,1,.13,0l.08.08a.1.1,0,0,1,0,.14.09.09,0,0,1-.14,0Zm-.14.14-.22.22.42.42.22-.22Z" style="fill: #fff" transform="translate(0 -1.76)"/>
        <path d="M27.17,83.42l.29-.29a.1.1,0,1,1,.14.14l-.36.36a.09.09,0,0,1-.14,0l-.56-.56a.1.1,0,0,1,.14-.14l.21.21.82-.82-.21-.21a.1.1,0,0,1,.14-.14l.35.35-1,1Z" style="fill: #fff" transform="translate(0 -1.76)"/>
        <path d="M28,84.21l.29-.29a.1.1,0,0,1,.14.14l-.36.36a.09.09,0,0,1-.14,0l-.56-.56a.1.1,0,0,1,.14-.14l.21.21.82-.82-.21-.21a.1.1,0,0,1,.14-.14l.35.35-1,1Z" style="fill: #fff" transform="translate(0 -1.76)"/>
      </g>
      <g>
        <path d="M21.74,81a.3.3,0,0,1-.08-.35l.13-.39a.45.45,0,0,1,.11-.19.44.44,0,0,1,.2-.12l.39-.13a.3.3,0,0,1,.35.08l.24.24a.09.09,0,0,1,0,.14.1.1,0,0,1-.14,0L22.71,80c-.06-.06-.08-.07-.16,0l-.37.12a.31.31,0,0,0-.14.08.28.28,0,0,0-.07.13l-.12.37c0,.09,0,.1,0,.17l.23.23a.09.09,0,0,1,0,.14.09.09,0,0,1-.14,0Z" style="fill: #fff" transform="translate(0 -1.76)"/>
        <path d="M22.92,81.21l-.41.41a.09.09,0,0,1-.14,0,.09.09,0,0,1,0-.14l1-1a.1.1,0,0,1,.14.14l-.41.41.42.42.41-.41a.1.1,0,0,1,.14.14l-1,1a.09.09,0,0,1-.14,0,.09.09,0,0,1,0-.14l.41-.41Z" style="fill: #fff" transform="translate(0 -1.76)"/>
        <path d="M23.62,82.59l.21.21a.1.1,0,0,1-.14.14l-.56-.56a.1.1,0,0,1,.14-.14l.21.21.82-.82-.21-.21a.1.1,0,0,1,.14-.14l.56.56a.1.1,0,0,1-.14.14l-.21-.21Z" style="fill: #fff" transform="translate(0 -1.76)"/>
        <path d="M25.47,82.66a.1.1,0,0,1,.14.14l-1,1-.19-.19.48-1.22h0l-.78.78a.09.09,0,0,1-.14,0,.09.09,0,0,1,0-.14l1-1,.19.19-.49,1.23h0Z" style="fill: #fff" transform="translate(0 -1.76)"/>
        <path d="M26,83.17s.1,0,.14,0,0,.1,0,.15l-.68,1.23a.09.09,0,0,1-.14,0,.12.12,0,0,1,0-.15l.12-.22-.3-.3-.22.12a.12.12,0,0,1-.15,0,.09.09,0,0,1,0-.14Zm-.19.34h0l-.49.27.22.22Z" style="fill: #fff" transform="translate(0 -1.76)"/>
        <path d="M26.61,84.6a.12.12,0,0,1-.17.17l-.33-.33a.12.12,0,0,1,.17-.17Z" style="fill: #fff" transform="translate(0 -1.76)"/>
        <path d="M27.38,84.44l.4.4a.4.4,0,0,1,0,.63.39.39,0,0,1-.32.13.43.43,0,0,1-.16.35.39.39,0,0,1-.6,0l-.4-.39Zm-.82,1.1.25.25a.2.2,0,0,0,.31,0c.12-.12.15-.22,0-.35l-.25-.25Zm.48-.48.25.25a.2.2,0,0,0,.31,0c.12-.12.15-.22,0-.35l-.25-.25Z" style="fill: #fff" transform="translate(0 -1.76)"/>
      </g>
      <g>
        <path d="M21.58,81.93s.1,0,.14,0,0,.1,0,.15L21,83.3a.09.09,0,0,1-.14,0,.12.12,0,0,1,0-.15l.12-.22-.3-.3-.22.12a.12.12,0,0,1-.15,0s0-.12,0-.14Zm-.19.34h0l-.49.27.22.22Z" style="fill: #fff" transform="translate(0 -1.76)"/>
        <path d="M22.62,82.83a.09.09,0,0,1,0,.14l-.41.41a.21.21,0,0,1,.06.14.19.19,0,0,1-.06.14l-.34.34a.19.19,0,0,1-.28,0l-.42-.42a.19.19,0,0,1,0-.28l.34-.34a.19.19,0,0,1,.14-.07.2.2,0,0,1,.14.06l.41-.41a.1.1,0,0,1,.14,0Zm-.89,1,.34-.34-.42-.42-.34.34Zm.34-.62.34-.34-.13-.13-.34.34Z" style="fill: #fff" transform="translate(0 -1.76)"/>
        <path d="M22.7,83.87l.26.26a.21.21,0,0,1,.07.15.2.2,0,0,1-.08.16l-.3.3a.21.21,0,0,1-.14.08.2.2,0,0,1-.17-.08L22,84.43a.29.29,0,0,1-.07-.12l0-.08c0-.06-.05-.11,0-.16a.1.1,0,0,1,.14,0,.13.13,0,0,1,0,.06l0,.06a.34.34,0,0,0,0,.1l.33.33.34-.34-.42-.42.62-.62.49.49a.1.1,0,0,1-.14.14L23,83.53Z" style="fill: #fff" transform="translate(0 -1.76)"/>
        <path d="M23.5,84.8l.18-.68a.12.12,0,0,1,0-.07.1.1,0,0,1,.14,0s0,.1,0,.15l-.14.54.54-.14c.05,0,.1,0,.15,0a.1.1,0,0,1,0,.13.13.13,0,0,1-.07,0l-.68.18-.18.68a.13.13,0,0,1,0,.07.1.1,0,0,1-.14,0s0-.1,0-.15l.14-.54-.54.14c-.05,0-.11,0-.15,0a.1.1,0,0,1,0-.14l.07,0Z" style="fill: #fff" transform="translate(0 -1.76)"/>
        <path d="M24.47,85a.1.1,0,0,1,.14-.14l.49.49a.2.2,0,0,1,0,.28l-.27.27a.23.23,0,0,1-.19.08.23.23,0,0,1-.08.19l-.27.27a.2.2,0,0,1-.28,0l-.49-.49a.1.1,0,0,1,.14-.14l.49.49.23-.23c.08-.08.07-.14,0-.17l-.28-.28a.1.1,0,0,1,.14-.14l.28.28s.1,0,.17,0l.23-.24Z" style="fill: #fff" transform="translate(0 -1.76)"/>
        <path d="M25.62,86s.1,0,.14,0,0,.1,0,.15l-.68,1.23a.09.09,0,0,1-.14,0,.12.12,0,0,1,0-.15l.12-.22-.3-.3-.22.12a.12.12,0,0,1-.15,0s0-.11,0-.14Zm-.19.34h0l-.49.27.22.22Z" style="fill: #fff" transform="translate(0 -1.76)"/>
      </g>
      <g>
        <path d="M21.92,62.43a.15.15,0,1,1-.3,0V60.24h1a.45.45,0,0,1,.48.44v.21a.44.44,0,0,1-.48.43h-.28l.68,1a.3.3,0,0,1,.08.16.14.14,0,0,1-.15.14.16.16,0,0,1-.13-.08L22,61.31h-.07Zm0-1.42h.67c.08,0,.22,0,.22-.13v-.21c0-.12-.12-.14-.21-.14h-.67Z" style="fill: #fff" transform="translate(0 -1.76)"/>
        <path d="M24.88,62.27a.15.15,0,1,1,0,.3H23.54V60.24h1.33a.15.15,0,1,1,0,.3h-1v.72h.44a.15.15,0,0,1,0,.3h-.44v.72Z" style="fill: #fff" transform="translate(0 -1.76)"/>
        <path d="M26.6,62a.39.39,0,0,1,.11.25.34.34,0,0,1-.38.34h-.66a.44.44,0,0,1-.3-.1.38.38,0,0,1-.14-.28.16.16,0,0,1,.16-.18.14.14,0,0,1,.14.15c0,.09,0,.1.13.1h.65s.1,0,.1,0,0-.07-.05-.09l-1-1.33a.36.36,0,0,1-.1-.25.34.34,0,0,1,.16-.29.4.4,0,0,1,.25-.05h.64a.42.42,0,0,1,.3.1.41.41,0,0,1,.14.29.15.15,0,0,1-.16.17.13.13,0,0,1-.14-.14c0-.1-.05-.12-.14-.12h-.64s-.1,0-.1,0,0,.06,0,.08Z" style="fill: #fff" transform="translate(0 -1.76)"/>
        <path d="M28.48,62.27a.15.15,0,0,1,0,.3H27.14V60.24h1.33a.15.15,0,0,1,0,.3h-1v.72h.44a.15.15,0,1,1,0,.3h-.44v.72Z" style="fill: #fff" transform="translate(0 -1.76)"/>
        <path d="M29.12,60.54v.11a.15.15,0,1,1-.3,0v-.41h1.48v.41a.15.15,0,0,1-.3,0v-.11h-.29v1.89a.15.15,0,1,1-.3,0V60.54Z" style="fill: #fff" transform="translate(0 -1.76)"/>
      </g>
      <g>
        <path d="M20.12,37.55a.15.15,0,1,1-.3,0V35.36h1a.45.45,0,0,1,.48.44V36a.44.44,0,0,1-.48.43h-.28l.68,1a.3.3,0,0,1,.08.16.14.14,0,0,1-.15.14.16.16,0,0,1-.13-.08l-.83-1.18h-.07Zm0-1.42h.67c.08,0,.22,0,.22-.13V35.8c0-.12-.12-.14-.21-.14h-.67Z" style="fill: #fff" transform="translate(0 -1.76)"/>
        <path d="M22.55,36.53,22,35.61a.19.19,0,0,1,0-.11.15.15,0,0,1,.15-.14c.1,0,.13.08.17.15l.42.72.42-.72c0-.07.08-.15.17-.15a.15.15,0,0,1,.15.14.19.19,0,0,1,0,.11l-.54.92.54.92a.19.19,0,0,1,0,.11.15.15,0,0,1-.15.14c-.1,0-.13-.08-.17-.15l-.42-.72-.42.72c0,.07-.08.15-.17.15a.15.15,0,0,1-.15-.14.19.19,0,0,1,0-.11Z" style="fill: #fff" transform="translate(0 -1.76)"/>
      </g>
      <g>
        <path d="M11.14,35.66v.11a.15.15,0,1,1-.3,0v-.41h1.48v.41a.15.15,0,0,1-.3,0v-.11h-.29v1.89a.15.15,0,1,1-.3,0V35.66Z" style="fill: #fff" transform="translate(0 -1.76)"/>
        <path d="M13.57,36.53,13,35.61a.19.19,0,0,1,0-.11.15.15,0,0,1,.15-.14c.1,0,.13.08.17.15l.42.72.42-.72c0-.07.08-.15.17-.15a.15.15,0,0,1,.15.14.19.19,0,0,1,0,.11l-.54.92.54.92a.19.19,0,0,1,0,.11.15.15,0,0,1-.15.14c-.1,0-.13-.08-.17-.15l-.42-.72-.42.72c0,.07-.08.15-.17.15a.15.15,0,0,1-.15-.14.19.19,0,0,1,0-.11Z" style="fill: #fff" transform="translate(0 -1.76)"/>
      </g>
      <g>
        <path d="M29.88,36.21a.68.68,0,0,1,.08.33.73.73,0,0,1-.1.36l-.28.55a.39.39,0,0,1-.73,0l-.28-.55a.73.73,0,0,1-.1-.36.68.68,0,0,1,.08-.33l.3-.6a.39.39,0,0,1,.73,0Zm-.56-.45s0-.09-.1-.09-.08,0-.1.09l-.27.54a.47.47,0,0,0-.07.24.4.4,0,0,0,.05.2l.29.57s0,.09.1.09.08,0,.1-.09l.29-.57a.41.41,0,0,0,.05-.2.47.47,0,0,0-.07-.24Z" style="fill: #fff" transform="translate(0 -1.76)"/>
        <path d="M31.82,35.51a.15.15,0,0,1,.3,0V37.7h-.4l-.78-1.8h0v1.65a.15.15,0,1,1-.3,0V35.36H31l.78,1.82h0Z" style="fill: #fff" transform="translate(0 -1.76)"/>
      </g>
      <path d="M39.38,37.4a.15.15,0,1,1,0,.3H38V35.51a.15.15,0,1,1,.3,0V37.4Z" style="fill: #fff" transform="translate(0 -1.76)"/>
    </g>
  </g>
  <g id="Connectors">
    <circle cx="4.1" cy="11.58" data-cir-type="male" id="circuitoCon_0" r="1.91" style="fill: none;stroke: #e2e2e2;stroke-width: 1.22399997711182px"/>
    <rect height="3.82" id="connector18pin20" style="fill: none;stroke: #e2e2e2;stroke-width: 1.22399997711182px" width="3.81" x="2.19" y="9.67"/>
    <circle cx="4.1" cy="18.78" data-cir-type="male" id="circuitoCon_1" r="1.91" style="fill: none;stroke: #e2e2e2;stroke-width: 1.22399997711182px"/>
    <circle cx="4.1" cy="25.98" id="connector18pin" r="1.91" style="fill: none;stroke: #e2e2e2;stroke-width: 1.22399997711182px"/>
    <circle cx="4.1" cy="33.18" data-cir-color="black" data-cir-type="male" id="circuitoCon_GND1" r="1.91" style="fill: none;stroke: #e2e2e2;stroke-width: 1.22399997711182px"/>
    <circle cx="4.1" cy="40.38" data-cir-type="male" id="circuitoCon_2" r="1.91" style="fill: none;stroke: #e2e2e2;stroke-width: 1.22399997711182px"/>
    <circle cx="4.1" cy="47.58" data-cir-type="male" id="circuitoCon_3" r="1.91" style="fill: none;stroke: #e2e2e2;stroke-width: 1.22399997711182px"/>
    <circle cx="4.1" cy="54.78" data-cir-type="male" id="circuitoCon_4" r="1.91" style="fill: none;stroke: #e2e2e2;stroke-width: 1.22399997711182px"/>
    <circle cx="4.1" cy="61.98" data-cir-type="male" id="circuitoCon_5" r="1.91" style="fill: none;stroke: #e2e2e2;stroke-width: 1.22399997711182px"/>
    <circle cx="4.1" cy="69.18" data-cir-type="male" id="circuitoCon_6" r="1.91" style="fill: none;stroke: #e2e2e2;stroke-width: 1.22399997711182px"/>
    <circle cx="4.1" cy="76.38" data-cir-type="male" id="circuitoCon_7" r="1.91" style="fill: none;stroke: #e2e2e2;stroke-width: 1.22399997711182px"/>
    <circle cx="4.1" cy="83.58" data-cir-type="male" id="circuitoCon_8" r="1.91" style="fill: none;stroke: #e2e2e2;stroke-width: 1.22399997711182px"/>
    <circle cx="4.1" cy="90.78" data-cir-type="male" id="circuitoCon_9" r="1.91" style="fill: none;stroke: #e2e2e2;stroke-width: 1.22399997711182px"/>
    <circle cx="4.1" cy="97.98" data-cir-type="male" id="circuitoCon_10" r="1.91" style="fill: none;stroke: #e2e2e2;stroke-width: 1.22399997711182px"/>
    <circle cx="4.1" cy="105.18" data-cir-type="male" id="circuitoCon_11" r="1.91" style="fill: none;stroke: #e2e2e2;stroke-width: 1.22399997711182px"/>
    <circle cx="4.1" cy="112.38" data-cir-type="male" id="circuitoCon_12" r="1.91" style="fill: none;stroke: #e2e2e2;stroke-width: 1.22399997711182px"/>
    <circle cx="47.3" cy="11.58" data-cir-color="yellow" data-cir-type="male" id="circuitoCon_Vin" r="1.91" style="fill: none;stroke: #e2e2e2;stroke-width: 1.22399997711182px"/>
    <circle cx="47.3" cy="18.78" data-cir-color="black" data-cir-type="male" id="circuitoCon_GND" r="1.91" style="fill: none;stroke: #e2e2e2;stroke-width: 1.22399997711182px"/>
    <circle cx="47.3" cy="25.98" id="connector33pin" r="1.91" style="fill: none;stroke: #e2e2e2;stroke-width: 1.22399997711182px"/>
    <circle cx="47.3" cy="33.18" data-cir-color="darkred" data-cir-type="male" id="circuitoCon_5v" r="1.91" style="fill: none;stroke: #e2e2e2;stroke-width: 1.22399997711182px"/>
    <circle cx="47.3" cy="40.38" data-cir-type="male" id="circuitoCon_A7" r="1.91" style="fill: none;stroke: #e2e2e2;stroke-width: 1.22399997711182px"/>
    <circle cx="47.3" cy="47.58" data-cir-type="male" id="circuitoCon_A6" r="1.91" style="fill: none;stroke: #e2e2e2;stroke-width: 1.22399997711182px"/>
    <circle cx="47.3" cy="54.78" data-cir-type="male" id="circuitoCon_A5" r="1.91" style="fill: none;stroke: #e2e2e2;stroke-width: 1.22399997711182px"/>
    <circle cx="47.3" cy="61.98" data-cir-type="male" id="circuitoCon_A4" r="1.91" style="fill: none;stroke: #e2e2e2;stroke-width: 1.22399997711182px"/>
    <circle cx="47.3" cy="69.18" data-cir-type="male" id="circuitoCon_A3" r="1.91" style="fill: none;stroke: #e2e2e2;stroke-width: 1.22399997711182px"/>
    <circle cx="47.3" cy="76.38" data-cir-type="male" id="circuitoCon_A2" r="1.91" style="fill: none;stroke: #e2e2e2;stroke-width: 1.22399997711182px"/>
    <circle cx="47.3" cy="83.58" data-cir-type="male" id="circuitoCon_A1" r="1.91" style="fill: none;stroke: #e2e2e2;stroke-width: 1.22399997711182px"/>
    <circle cx="47.3" cy="90.78" data-cir-type="male" id="circuitoCon_A0" r="1.91" style="fill: none;stroke: #e2e2e2;stroke-width: 1.22399997711182px"/>
    <circle cx="47.3" cy="97.98" data-cir-type="male" id="circuitoCon_IORef" r="1.91" style="fill: none;stroke: #e2e2e2;stroke-width: 1.22399997711182px"/>
    <circle cx="47.3" cy="105.18" data-cir-color="orangered" data-cir-type="male" id="circuitoCon_3.3v" r="1.91" style="fill: none;stroke: #e2e2e2;stroke-width: 1.22399997711182px"/>
    <circle cx="47.3" cy="112.38" data-cir-type="male" id="circuitoCon_13" r="1.91" style="fill: none;stroke: #e2e2e2;stroke-width: 1.22399997711182px"/>
    <rect data-cir-type="power" height="18.35" id="circuitoCon_USB_MINI" style="fill: none" transform="translate(-100.28 151.05) rotate(-90)" width="8.34" x="22.1" y="117.37"/>
  </g>
</svg>