<?xml version="1.0" ?><svg data-name="Layer 13" height="40.64mm" id="Layer_13" viewBox="0 0 65.04 115.21" width="22.94mm" xmlns="http://www.w3.org/2000/svg">
  <title>Micro SD Card Memory Shield Module</title>
  <g id="Connectors">
    <path d="M51.84,31.1a1,1,0,0,1,.16-.88,1,1,0,0,1,1-.32h2.64c-.22.64.19.62.72.48a4.56,4.56,0,0,0,.24.72c.29.67.59.92.48,1.2s-.24.15-.48.48a3.29,3.29,0,0,0-.24.48c-.26.39-1,.21-2.16.24s-1.41.24-1.68,0-.16-.59-.48-1.68C52,31.51,51.9,31.26,51.84,31.1Z" style="fill: #f4edef" transform="translate(0 0)"/>
    <path d="M64.8,44.89,64.56,5.77a5.25,5.25,0,0,0-1-3.36L60.48.49A7.65,7.65,0,0,1,56.4,0H5.76A6.57,6.57,0,0,0,.24,2.41Q.12,35.89,0,69.37v43.44a4,4,0,0,0,2.64,2.4H16.08l3.36-3.36H41.52l3.36,3.36L62.4,115c1.16,0,2-.77,2.64-2.16ZM4.68,113.77a3.24,3.24,0,1,1,3.24-3.24A3.24,3.24,0,0,1,4.68,113.77Zm0-104.4A3.24,3.24,0,1,1,7.92,6.13,3.24,3.24,0,0,1,4.68,9.37ZM14.93,6.14a1.88,1.88,0,0,1,0-3.76A1.88,1.88,0,0,1,14.93,6.14Zm7.13-.25a1.88,1.88,0,0,1,0-3.76A1.88,1.88,0,0,1,22.05,5.89Zm7.31.25a1.88,1.88,0,0,1,0-3.76A1.88,1.88,0,0,1,29.36,6.14ZM36.43,6a1.88,1.88,0,0,1,0-3.76A1.88,1.88,0,0,1,36.43,6Zm7.38-.12a1.88,1.88,0,0,1,0-3.76A1.88,1.88,0,0,1,43.8,5.83ZM50.68,6a1.88,1.88,0,0,1,0-3.76A1.88,1.88,0,0,1,50.68,6ZM60.6,113.77a3.24,3.24,0,1,1,3.24-3.24A3.24,3.24,0,0,1,60.6,113.77Zm0-104.4a3.24,3.24,0,1,1,3.24-3.24A3.24,3.24,0,0,1,60.6,9.37Z" style="fill: #1c3673" transform="translate(0 0)"/>
  </g>
  <g data-name="BLUE PATH" id="BLUE_PATH">
    <rect height="18.71" rx="0.85" ry="0.85" style="fill: #0a4299" width="9.67" x="31.78" y="28.22"/>
    <path d="M27.86,56.18,32,52.35h2.49l1-.92v-2a.89.89,0,1,1,1.78,0v2l.83.76H59l1.27-1.27V39.85l-1.62-1.62H57.62V37h1.7l2.5,2.12L62,51.81l-2,1.94-27.23.34-2.89,2.61-.12,14.2H27.86Z" style="fill: #0a4299" transform="translate(0 0)"/>
    <path d="M63.94,53.93c.11-1.73-.71-1.61-1.91-.75l-2,1.66H33.05l-2.56,2.53.17,15.77L27,73.85V61c0-1.5-.24-2.46-1.78-1l-1.62,1.33-10.87.13L9.36,57.82H6.48l-.53-.56L5.28,17.1H8.73c0-.77.77-1,1.85-.94l0,.66h.75v-.67h3v-6H45.38l-1.22,2.13v3.67l7,6.75H61.3l.06,2.15a1.22,1.22,0,0,0,2,0L63.15,9.67c-.63-.73-1.72-.24-3.44.41-2.71.1-4.95-2-4.84-4.25a3.79,3.79,0,0,1,3-3.69c.82-.81-.73-.88-3.17-.67,0,0-35.71-.16-35.92-.1s-9.9,0-9.9,0c-1.05.11-1.31.59-.5,1.54,1.48,3.28.47,5.53-2.36,7A3.51,3.51,0,0,1,1.7,8.6C.93,7.51.57,8,.54,9.81v95.46c-.1,1,.3,1.45,1.56,1.13,2.36-1,4.15-.58,5.53.9a5.18,5.18,0,0,1,.53,5c-.35,1.22,0,1.95,1.06,2.06l3.56.06a1.79,1.79,0,0,0,2.26-.82l2.18-2.18A4.75,4.75,0,0,1,21.15,110H39.8a3.42,3.42,0,0,1,2.94,1.34l2,2.06a1.93,1.93,0,0,0,2.31.75H59.86a4.55,4.55,0,0,1-3.44-3c-.72-2.39.25-3.89,2.29-4.81,2.63-.72,4.13.58,5.12,2.81.29.29.54.34.71-.15ZM51,2.45A1.88,1.88,0,0,1,51,6.2,1.88,1.88,0,0,1,51,2.45Zm-7.37-.31a1.88,1.88,0,0,1,0,3.76A1.88,1.88,0,0,1,43.61,2.14Zm-7.37.25a1.88,1.88,0,0,1,0,3.76A1.88,1.88,0,0,1,36.24,2.39ZM29,2.26A1.88,1.88,0,0,1,29,6,1.88,1.88,0,0,1,29,2.26ZM21.93,2.2a1.88,1.88,0,0,1,0,3.76A1.88,1.88,0,0,1,21.93,2.2Zm-7.12.19a1.88,1.88,0,0,1,0,3.76A1.88,1.88,0,0,1,14.8,2.39Z" style="fill: #083c87" transform="translate(0 0)"/>
    <path d="M57.54,46.62l-5.84-.13a3.59,3.59,0,0,1-2.19,1.57H39.46a1.13,1.13,0,0,0-1.13,1.13v1.29a1.13,1.13,0,0,0,1.13,1.13h17.9l.09,0h.88l1-.82V47.56C59.3,46.93,58.9,46.51,57.54,46.62Z" style="fill: #0a4299" transform="translate(0 0)"/>
    <polyline points="42.37 13.1 42.37 16.47 50.14 24.25 56.64 24.25" style="fill: none;stroke: #083c87;stroke-miterlimit: 10"/>
    <polyline points="10.41 57.26 13.11 59.77 22.92 60.01 26.36 56.69 26.28 11.97" style="fill: none;stroke: #083c87;stroke-miterlimit: 10"/>
    <polyline points="60.96 25.76 60.96 30.01 59.49 31.26 57.39 31.26" style="fill: none;stroke: #083c87;stroke-miterlimit: 10"/>
    <polyline points="22.99 11.97 23.3 54.84 20.99 56.69 16.08 56.58" style="fill: none;stroke: #083c87;stroke-miterlimit: 10"/>
    <path d="M19.69,43.91V38.45c0-1.17,2.24-1.17,2.24,0v15.3a2.1,2.1,0,0,1-2.5,1.55H16.08l-.12-9v-2.4Z" style="fill: #103d85" transform="translate(0 0)"/>
  </g>
  <g id="square">
    <rect height="40.35" width="42.74" x="11.12" y="68.41"/>
    <g>
      <rect height="7.25" style="fill: #161921" width="4.41" x="52.95" y="93.81"/>
      <rect height="6.29" style="fill: #cac1c0" width="3.79" x="52.95" y="94.35"/>
    </g>
    <g>
      <rect height="7.25" style="fill: #161921" transform="translate(19.92 194.86) rotate(180)" width="4.41" x="7.76" y="93.81"/>
      <rect height="6.29" style="fill: #cac1c0" transform="translate(20.54 194.74) rotate(180)" width="3.79" x="8.38" y="94.22"/>
    </g>
    <polygon points="49.2 70.35 49.2 67.35 50.45 67.35 50.45 66.87 52.57 66.87 52.57 67.35 53.66 67.35 53.66 68.61 54 68.61 54 70.6 53.7 70.6 53.7 71.6 52.41 71.6 52.12 72.31 49.2 72.31 49.2 70.35" style="fill: #7e747a"/>
    <polygon points="12.36 69.16 12.36 72.16 11.11 72.16 11.11 72.64 8.99 72.64 8.99 72.16 7.9 72.16 7.9 70.9 7.56 70.9 7.56 68.91 7.86 68.91 7.86 67.91 9.15 67.91 9.45 67.2 12.36 67.2 12.36 69.16" style="fill: #7e747a"/>
    <line style="fill: none;stroke: #fff;stroke-linecap: round;stroke-miterlimit: 10;stroke-width: 0.4px" x1="12.48" x2="12.48" y1="84.01" y2="87.58"/>
    <path d="M13.46,76.08c3.72.56-.47,5.06,0,6.69" style="fill: none;stroke: #e6d8c6;stroke-linecap: round;stroke-miterlimit: 10;stroke-width: 0.4px" transform="translate(0 0)"/>
    <path d="M53,72.73v1c.16.16-.32.64-.48.48h-2.4a.72.72,0,1,1,0-1.44h.72V69.61h-4.8c0,1.28-1.44,1.28-1.44,0H18.48a.72.72,0,0,1-1.44,0H12v1.2h.72l1.92,1v14.4h-2.4v-.48h-.72l.24,22.8H36.48a30.1,30.1,0,0,1,7.92,2.4H53a.85.85,0,0,0,1-1V72.73C54,71.77,53,71.77,53,72.73Zm.24,21.84v11q-.72,1-1.44,0V95.77a.85.85,0,0,0-1-1H48.24c-.45,0-.91-.1-.72,1V97l2.4,2.4-.48,6.24a.48.48,0,1,1-1,0V99.13l-1.92-1.68V94.09a1.29,1.29,0,0,1,1.44-1h4.8A1.37,1.37,0,0,1,53.28,94.57Z" style="fill: #65645e" transform="translate(0 0)"/>
    <line style="fill: none;stroke: #e6d8c6;stroke-linecap: round;stroke-miterlimit: 10;stroke-width: 0.4px" x1="13.46" x2="13.46" y1="73.95" y2="84.01"/>
    <path d="M12.48,74.58a44.91,44.91,0,0,1-1.2,9.75" style="fill: none;stroke: #e6d8c6;stroke-linecap: round;stroke-miterlimit: 10;stroke-width: 0.4px" transform="translate(0 0)"/>
    <g>
      <polyline points="32.74 12.18 29.49 15.89 29.45 29.53" style="fill: none;stroke: #083c87;stroke-miterlimit: 10"/>
      <circle cx="29.45" cy="30.41" r="1.08" style="fill: #11438b"/>
    </g>
    <circle cx="29.45" cy="30.41" r="0.36" style="fill: #cfe9ff"/>
    <circle cx="5.79" cy="13.11" r="0.36" style="fill: #1f4580"/>
    <circle cx="3.66" cy="22.68" r="0.36" style="fill: #1f4580"/>
    <circle cx="36.41" cy="49.41" r="0.36" style="fill: #cfe9ff"/>
    <g>
      <polygon points="34.24 32.65 34.24 36.25 34.03 36.25 34.03 39.35 34.24 39.35 34.24 42.73 40.87 42.73 40.87 32.65 34.24 32.65" style="fill: #b2ada6"/>
      <rect height="8.88" rx="1.24" ry="1.24" style="fill: #b2ada6" width="4.28" x="36.05" y="33.35"/>
      <rect height="8.36" style="fill: #f4edef" width="2.26" x="38.41" y="33.61"/>
      <rect height="8.36" style="fill: #95907e" width="2.26" x="39.74" y="33.61"/>
    </g>
  </g>
  <g id="text">
    <path d="M32.68,37.61a.63.63,0,0,1-.21.52.66.66,0,0,1-.5.16H29.64a.21.21,0,1,1,0-.42H32c.23,0,.29-.07.29-.26V36.9c0-.19-.06-.26-.29-.26H29.64a.21.21,0,1,1,0-.42H32a.66.66,0,0,1,.5.16.63.63,0,0,1,.21.52Z" style="fill: #fff" transform="translate(0 0)"/>
    <path d="M4.68,39.48a.63.63,0,0,1-.21.52.66.66,0,0,1-.5.16H1.64a.21.21,0,0,1,0-.42H4c.23,0,.29-.07.29-.26v-.71c0-.19-.06-.26-.29-.26H1.64a.21.21,0,1,1,0-.42H4a.66.66,0,0,1,.5.16.63.63,0,0,1,.21.52Z" style="fill: #fff" transform="translate(0 0)"/>
    <path d="M4.14,36.06H3.3a.21.21,0,0,1,0-.42H4.35a.19.19,0,0,1,.21.21V37.5a.21.21,0,0,1-.42,0v-.61H1.73v.61a.19.19,0,0,1-.21.21.19.19,0,0,1-.21-.21v-1H4.14Z" style="fill: #fff" transform="translate(0 0)"/>
    <path d="M4.68,19.45a.63.63,0,0,1-.4.63l-.78.38a.94.94,0,0,1-.44.11.91.91,0,0,1-.46-.12l-.77-.38a.63.63,0,0,1-.4-.64v-.71a.2.2,0,0,1,.21-.21.2.2,0,0,1,.21.21v.7c0,.18,0,.21.18.29l.73.36a.64.64,0,0,0,.32.09.58.58,0,0,0,.29-.09l.72-.35c.17-.08.18-.13.18-.31v-.68a.2.2,0,0,1,.21-.21.2.2,0,0,1,.21.21Z" style="fill: #fff" transform="translate(0 0)"/>
    <path d="M4.14,16.47H3.3a.21.21,0,1,1,0-.42H4.35a.19.19,0,0,1,.21.21v1.65a.21.21,0,0,1-.42,0V17.3H1.73v.61a.19.19,0,0,1-.21.21.19.19,0,0,1-.21-.21v-1H4.14Z" style="fill: #fff" transform="translate(0 0)"/>
    <path d="M21.85,24.88a.21.21,0,1,1,0,.42h-3V23.9a.63.63,0,0,1,.61-.66h.29a.61.61,0,0,1,.59.66v.38l1.35-.94a.42.42,0,0,1,.22-.1.2.2,0,0,1,.2.21.22.22,0,0,1-.12.18l-1.65,1.15v.1Zm-2,0V24c0-.12,0-.3-.18-.3h-.29c-.17,0-.19.17-.19.3v.93Z" style="fill: #fff" transform="translate(0 0)"/>
    <path d="M20.46,21.41H19.25a.21.21,0,1,1,0-.42h1.21a.21.21,0,1,1,.42,0h.85a.21.21,0,1,1,0,.42h-.85v1.23h-2a.21.21,0,1,1,0-.42h1.56Z" style="fill: #fff" transform="translate(0 0)"/>
    <path d="M25.47,24.88a.21.21,0,1,1,0,.42h-3V23.9a.63.63,0,0,1,.61-.66h.29a.61.61,0,0,1,.59.66v.38l1.35-.94a.42.42,0,0,1,.22-.1.2.2,0,0,1,.2.21.22.22,0,0,1-.12.18l-1.65,1.15v.1Zm-2,0V24c0-.12,0-.3-.18-.3H23c-.17,0-.19.17-.19.3v.93Z" style="fill: #fff" transform="translate(0 0)"/>
    <path d="M25.14,21.2H24.3a.21.21,0,0,1,0-.42h1.05a.19.19,0,0,1,.21.21v1.65a.21.21,0,1,1-.42,0V22H22.73v.61a.21.21,0,0,1-.42,0v-1h2.83Z" style="fill: #fff" transform="translate(0 0)"/>
    <path d="M56.11,22.37a.52.52,0,0,1-.33.52l-.65.32a.79.79,0,0,1-.37.09.76.76,0,0,1-.39-.1l-.65-.32a.53.53,0,0,1-.34-.54v-.59a.16.16,0,0,1,.17-.17.17.17,0,0,1,.17.17v.58c0,.15,0,.17.15.24l.61.3a.54.54,0,0,0,.27.07.49.49,0,0,0,.24-.07l.6-.3c.14-.07.15-.1.15-.26v-.57a.16.16,0,0,1,.17-.17.17.17,0,0,1,.17.17Z" style="fill: #fff" transform="translate(0 0)"/>
    <path d="M55.52,20.91v-1.2a.17.17,0,0,1,.35,0v1.55H54.73a.35.35,0,0,1-.4-.39v-1H53.5v1.2a.17.17,0,0,1-.35,0V19.92a.36.36,0,0,1,.41-.39h.72a.36.36,0,0,1,.41.39v1Z" style="fill: #fff" transform="translate(0 0)"/>
    <path d="M6,54.76a.21.21,0,1,1,0,.42H3V53.78a.63.63,0,0,1,.61-.66h.29a.61.61,0,0,1,.59.66v.38l1.35-.94a.42.42,0,0,1,.22-.1.2.2,0,0,1,.2.21.22.22,0,0,1-.12.18L4.45,54.67v.1Zm-2,0v-.93c0-.12,0-.3-.18-.3H3.56c-.17,0-.19.17-.19.3v.93Z" style="fill: #fff" transform="translate(0 0)"/>
    <path d="M5.67,52.31V50.87a.21.21,0,1,1,.42,0v1.86H4.73a.42.42,0,0,1-.47-.47V51.08h-1v1.44a.19.19,0,0,1-.21.21.19.19,0,0,1-.21-.21V51.13a.43.43,0,0,1,.49-.47h.86a.43.43,0,0,1,.49.47v1.18Z" style="fill: #fff" transform="translate(0 0)"/>
    <path d="M19.35,54.76a.21.21,0,1,1,0,.42h-3V53.78a.63.63,0,0,1,.61-.66h.29a.61.61,0,0,1,.59.66v.38l1.35-.94a.42.42,0,0,1,.22-.1.2.2,0,0,1,.2.21.22.22,0,0,1-.12.18l-1.65,1.15v.1Zm-2,0v-.93c0-.12,0-.3-.18-.3h-.29c-.17,0-.19.17-.19.3v.93Z" style="fill: #fff" transform="translate(0 0)"/>
    <path d="M16.84,52.52a.21.21,0,0,1-.42,0V51.08a.41.41,0,0,1,.42-.42h.8a.48.48,0,0,1,.41.16.48.48,0,0,1,.41-.16h.8a.41.41,0,0,1,.42.42v1.44a.21.21,0,1,1-.42,0V51.08h-.69c-.23,0-.31.09-.31.21v.82a.21.21,0,1,1-.42,0v-.82c0-.12-.07-.21-.31-.21h-.69Z" style="fill: #fff" transform="translate(0 0)"/>
    <path d="M59.36,56a.63.63,0,0,1-.4.63l-.78.38a.93.93,0,0,1-.44.11.91.91,0,0,1-.46-.12l-.77-.38a.63.63,0,0,1-.4-.64v-.71a.2.2,0,0,1,.21-.21.2.2,0,0,1,.21.21V56c0,.18,0,.21.17.29l.73.36a.65.65,0,0,0,.32.09.59.59,0,0,0,.29-.09l.72-.36c.17-.08.18-.12.18-.31v-.68a.2.2,0,0,1,.21-.21.2.2,0,0,1,.21.21Z" style="fill: #fff" transform="translate(0 0)"/>
    <path d="M56.79,54.67a.21.21,0,0,1-.42,0V53.23a.41.41,0,0,1,.42-.42h.8A.48.48,0,0,1,58,53a.48.48,0,0,1,.41-.16h.8a.41.41,0,0,1,.42.42v1.44a.21.21,0,0,1-.42,0V53.23h-.69c-.23,0-.3.09-.3.21v.82a.21.21,0,0,1-.42,0v-.82c0-.12-.07-.21-.31-.21h-.69Z" style="fill: #fff" transform="translate(0 0)"/>
    <path d="M8.15,81a.7.7,0,0,1,.4.08.64.64,0,0,1,.31.61v.24a.66.66,0,0,1-.24.58.62.62,0,0,1-.42.13H7.59a.21.21,0,0,1,0-.42h.54c.24,0,.31-.05.31-.3v-.23c0-.17,0-.28-.23-.28H5.82a.21.21,0,0,1,0-.42Z" style="fill: #fff" transform="translate(0 0)"/>
    <path d="M7,80.16H6.44l-.62-.74V79h3v.43H6.3Z" style="fill: #fff" transform="translate(0 0)"/>
    <path d="M9.39,11.59a.7.7,0,0,1,.4.08.64.64,0,0,1,.31.61v.24a.66.66,0,0,1-.24.59.62.62,0,0,1-.42.13H8.83a.21.21,0,1,1,0-.42h.54c.24,0,.31-.05.31-.3v-.23c0-.18,0-.28-.23-.28H7.06a.21.21,0,0,1,0-.42Z" style="fill: #fff" transform="translate(0 0)"/>
    <path d="M44.07,55.83a.62.62,0,0,1-.4.63l-.78.38a1,1,0,0,1-.44.11.91.91,0,0,1-.46-.12l-.77-.38a.63.63,0,0,1-.4-.64V55.1a.2.2,0,0,1,.21-.21.2.2,0,0,1,.21.21v.7c0,.18,0,.21.18.29l.73.36a.65.65,0,0,0,.32.09.58.58,0,0,0,.29-.09l.72-.36c.17-.08.18-.12.18-.31V55.1a.2.2,0,0,1,.21-.21.2.2,0,0,1,.21.21Z" style="fill: #fff" transform="translate(0 0)"/>
    <path d="M42.59,53.29H41.38a.21.21,0,1,1,0-.42h1.21a.21.21,0,0,1,.42,0h.85a.21.21,0,1,1,0,.42H43v1.23H41a.21.21,0,1,1,0-.42h1.56Z" style="fill: #fff" transform="translate(0 0)"/>
    <g>
      <g>
        <rect height="0.85" style="fill: #c7c6c5" width="0.53" x="6.52" y="31.33"/>
        <path d="M6,27.7v3.63H7.49V27.7Zm1,1.83H6.52V28.3h.53Z" style="fill: #c7c6c5" transform="translate(0 0)"/>
      </g>
      <g>
        <rect height="0.85" style="fill: #c7c6c5" width="0.53" x="8.34" y="31.33"/>
        <path d="M7.84,27.7v3.63H9.31V27.7Zm1,1.83H8.34V28.3h.53Z" style="fill: #c7c6c5" transform="translate(0 0)"/>
      </g>
      <g>
        <rect height="0.85" style="fill: #c7c6c5" width="0.53" x="10.15" y="31.33"/>
        <path d="M9.65,27.7v3.63h1.47V27.7Zm1,1.83h-.53V28.3h.53Z" style="fill: #c7c6c5" transform="translate(0 0)"/>
      </g>
      <g>
        <rect height="0.85" style="fill: #c7c6c5" width="0.53" x="11.97" y="31.33"/>
        <path d="M11.47,27.7v3.63h1.47V27.7Zm1,1.83H12V28.3h.53Z" style="fill: #c7c6c5" transform="translate(0 0)"/>
      </g>
      <g>
        <rect height="0.85" style="fill: #c7c6c5" width="0.53" x="13.78" y="31.33"/>
        <path d="M13.29,27.7v3.63h1.47V27.7Zm1,1.83h-.53V28.3h.53Z" style="fill: #c7c6c5" transform="translate(0 0)"/>
      </g>
      <g>
        <rect height="0.85" style="fill: #c7c6c5" width="0.53" x="15.6" y="31.33"/>
        <path d="M15.1,27.7v3.63h1.47V27.7Zm1,1.83H15.6V28.3h.53Z" style="fill: #c7c6c5" transform="translate(0 0)"/>
      </g>
      <g>
        <rect height="0.85" style="fill: #c7c6c5" width="0.53" x="17.42" y="31.33"/>
        <path d="M16.92,27.7v3.63h1.47V27.7Zm1,1.83h-.53V28.3h.53Z" style="fill: #c7c6c5" transform="translate(0 0)"/>
      </g>
    </g>
    <g>
      <g>
        <rect height="0.85" style="fill: #c7c6c5" width="0.53" x="17.36" y="43.45"/>
        <path d="M18.39,47.93V44.3H16.92v3.63Zm-1-1.83h.53v1.24h-.53Z" style="fill: #c7c6c5" transform="translate(0 0)"/>
      </g>
      <g>
        <rect height="0.85" style="fill: #c7c6c5" width="0.53" x="15.54" y="43.45"/>
        <path d="M16.57,47.93V44.3H15.1v3.63Zm-1-1.83h.53v1.24h-.53Z" style="fill: #c7c6c5" transform="translate(0 0)"/>
      </g>
      <g>
        <rect height="0.85" style="fill: #c7c6c5" width="0.53" x="13.72" y="43.45"/>
        <path d="M14.75,47.93V44.3H13.29v3.63Zm-1-1.83h.53v1.24h-.53Z" style="fill: #c7c6c5" transform="translate(0 0)"/>
      </g>
      <g>
        <rect height="0.85" style="fill: #c7c6c5" width="0.53" x="11.91" y="43.45"/>
        <path d="M12.94,47.93V44.3H11.47v3.63Zm-1-1.83h.53v1.24h-.53Z" style="fill: #c7c6c5" transform="translate(0 0)"/>
      </g>
      <g>
        <rect height="0.85" style="fill: #c7c6c5" width="0.53" x="10.09" y="43.45"/>
        <path d="M11.12,47.93V44.3H9.65v3.63Zm-1-1.83h.53v1.24h-.53Z" style="fill: #c7c6c5" transform="translate(0 0)"/>
      </g>
      <g>
        <rect height="0.85" style="fill: #c7c6c5" width="0.53" x="8.28" y="43.45"/>
        <path d="M9.31,47.93V44.3H7.84v3.63Zm-1-1.83h.53v1.24H8.28Z" style="fill: #c7c6c5" transform="translate(0 0)"/>
      </g>
      <g>
        <rect height="0.85" style="fill: #c7c6c5" width="0.53" x="6.46" y="43.45"/>
        <path d="M7.49,47.93V44.3H6v3.63Zm-1-1.83H7v1.24H6.46Z" style="fill: #c7c6c5" transform="translate(0 0)"/>
      </g>
    </g>
    <rect height="11.76" style="fill: #c7c6c5" width="14.25" x="4.91" y="31.69"/>
    <path d="M6,44.24a.86.86,0,0,1-.93.89.86.86,0,0,1-.93-.89A.84.84,0,0,1,5,43.37.84.84,0,0,1,6,44.24Zm-1.46,0c0,.31.12.62.53.62s.53-.31.53-.62-.14-.61-.53-.61S4.5,43.93,4.5,44.25Z" style="fill: #fff" transform="translate(0 0)"/>
    <g data-name="Layer 14" id="Layer_14">
      <g>
        <path d="M49.56,13.8v-.58a.17.17,0,0,1,.05-.12.17.17,0,0,1,.12-.05.17.17,0,0,1,.13.05.18.18,0,0,1,.05.12v.55a.17.17,0,0,0,.08.14l.63.49a.31.31,0,0,0,.21.06h1a.17.17,0,0,0,.13-.05.17.17,0,0,0,.05-.12v-.71a.18.18,0,0,0-.17-.17h-.38v.36a.17.17,0,0,1-.05.12.18.18,0,0,1-.25,0,.17.17,0,0,1-.05-.12v-.71h.73a.53.53,0,0,1,.52.52v.71a.51.51,0,0,1-.15.37.5.5,0,0,1-.37.15h-1a.69.69,0,0,1-.44-.14l-.65-.52a.48.48,0,0,1-.18-.37Z" style="fill: #e8e5df" transform="translate(0 0)"/>
        <path d="M49.74,10.48h2.58V11l-2.14.94h2a.17.17,0,0,1,.12.05.18.18,0,0,1,0,.25.17.17,0,0,1-.12.05H49.56v-.46l2.14-.94h-2a.18.18,0,0,1-.18-.18.17.17,0,0,1,.05-.12A.18.18,0,0,1,49.74,10.48Z" style="fill: #e8e5df" transform="translate(0 0)"/>
        <path d="M49.56,9.5V8.81a.49.49,0,0,1,.09-.26.54.54,0,0,1,.21-.19l.7-.34a.82.82,0,0,1,.79,0l.69.35a.52.52,0,0,1,.21.19.51.51,0,0,1,.08.28v.67a.17.17,0,0,1-.05.12.17.17,0,0,1-.12.05A.17.17,0,0,1,52,9.63.16.16,0,0,1,52,9.51V9.32H49.91V9.5a.17.17,0,0,1-.05.12.18.18,0,0,1-.13.05.17.17,0,0,1-.12-.05A.17.17,0,0,1,49.56,9.5ZM49.91,9H52V8.85a.19.19,0,0,0-.11-.17l-.68-.34a.57.57,0,0,0-.23-.06.47.47,0,0,0-.22.05L50,8.68a.19.19,0,0,0-.11.18Z" style="fill: #e8e5df" transform="translate(0 0)"/>
      </g>
      <g>
        <path d="M42.49,13h.64l1.81.71a.18.18,0,0,1,0,.34l-1.81.71h-.64a.17.17,0,0,1-.13-.05.17.17,0,0,1,0-.25.17.17,0,0,1,.13-.05h.57l1.35-.53-1.35-.53h-.57a.18.18,0,0,1-.13-.05.17.17,0,0,1,0-.25A.17.17,0,0,1,42.49,13Z" style="fill: #e8e5df" transform="translate(0 0)"/>
        <path d="M44.72,11.28v-.63a.17.17,0,0,1,.05-.13.17.17,0,0,1,.25,0,.17.17,0,0,1,.05.13v.65a.51.51,0,0,1-.08.26.47.47,0,0,1-.18.18l-.78.4a.79.79,0,0,1-.34.08.71.71,0,0,1-.34-.08l-.77-.41a.54.54,0,0,1-.19-.18.43.43,0,0,1-.08-.24v-.69a.17.17,0,0,1,.05-.12.17.17,0,0,1,.12-.05.18.18,0,0,1,.13.05.17.17,0,0,1,.05.12v.66a.15.15,0,0,0,.1.13l.72.39a.42.42,0,0,0,.2,0,.46.46,0,0,0,.22,0l.71-.37A.18.18,0,0,0,44.72,11.28Z" style="fill: #e8e5df" transform="translate(0 0)"/>
        <path d="M44.72,8.71V8.09A.17.17,0,0,1,44.77,8,.17.17,0,0,1,45,8a.17.17,0,0,1,.05.13v.65A.51.51,0,0,1,45,9a.47.47,0,0,1-.18.18l-.78.4a.79.79,0,0,1-.34.08.71.71,0,0,1-.34-.08l-.77-.41A.54.54,0,0,1,42.39,9a.43.43,0,0,1-.08-.24V8.07a.17.17,0,0,1,.05-.12.17.17,0,0,1,.12-.05.18.18,0,0,1,.13.05.17.17,0,0,1,.05.12v.66a.15.15,0,0,0,.1.13l.72.39a.42.42,0,0,0,.2,0,.46.46,0,0,0,.22,0l.71-.37A.18.18,0,0,0,44.72,8.71Z" style="fill: #e8e5df" transform="translate(0 0)"/>
      </g>
      <g>
        <path d="M36.14,16.68H36l-.51.36h2.11a.17.17,0,0,1,.17.17.16.16,0,0,1-.05.12.17.17,0,0,1-.12.05H35.05v-.45l.63-.43-.63-.44v-.44h2.59a.17.17,0,0,1,.12.05.17.17,0,0,1,.05.13.18.18,0,0,1-.17.17h-2.1l.5.35h.1a.17.17,0,0,1,.12.05.17.17,0,0,1-.12.3Z" style="fill: #e8e5df" transform="translate(0 0)"/>
        <path d="M35.05,14.64V13.23a.17.17,0,0,1,.05-.12.16.16,0,0,1,.12-.05.17.17,0,0,1,.13.05.17.17,0,0,1,.05.12v.53h2.06v-.53a.17.17,0,0,1,.05-.12.17.17,0,0,1,.12-.05.17.17,0,0,1,.12.05.17.17,0,0,1,.05.12v1.41a.17.17,0,1,1-.35,0V14.1H35.41v.54a.16.16,0,0,1-.05.12.17.17,0,0,1-.12.05.17.17,0,0,1-.13-.05A.17.17,0,0,1,35.05,14.64Z" style="fill: #e8e5df" transform="translate(0 0)"/>
        <path d="M35.05,11.85v-.91a.49.49,0,0,1,.48-.46.17.17,0,0,1,.13.05.17.17,0,0,1,.05.12.15.15,0,0,1,0,.12.45.45,0,0,1-.15.06.13.13,0,0,0-.11.13v.86s0,.06,0,.06l.06,0,1.65-1.3a.41.41,0,0,1,.26-.09.38.38,0,0,1,.27.11.34.34,0,0,1,.12.25v.94a.48.48,0,0,1-.45.46c-.13,0-.2-.06-.2-.18a.16.16,0,0,1,.05-.12.16.16,0,0,1,.12,0,.12.12,0,0,0,.09,0,.13.13,0,0,0,0-.1v-.87s0-.06,0-.06l-.05,0-1.65,1.29a.41.41,0,0,1-.26.09.39.39,0,0,1-.28-.12A.38.38,0,0,1,35.05,11.85Z" style="fill: #e8e5df" transform="translate(0 0)"/>
        <path d="M35.31,8.38,36.09,8a.78.78,0,0,1,.69,0l.77.38a.42.42,0,0,1,.25.42.45.45,0,0,1-.07.25.47.47,0,0,1-.18.17l-.77.39a.76.76,0,0,1-.34.08.77.77,0,0,1-.35-.08l-.78-.39a.44.44,0,0,1-.26-.42A.43.43,0,0,1,35.31,8.38Zm.17.53.73.36a.53.53,0,0,0,.22,0,.5.5,0,0,0,.22,0l.74-.37a.11.11,0,0,0,.07-.11.11.11,0,0,0-.07-.1l-.74-.37a.5.5,0,0,0-.22-.05.47.47,0,0,0-.22.05l-.73.37a.12.12,0,0,0-.08.11A.13.13,0,0,0,35.48,8.91Z" style="fill: #e8e5df" transform="translate(0 0)"/>
      </g>
      <g>
        <path d="M28.88,16.68h-.09l-.52.36h2.11a.17.17,0,0,1,.12.3.17.17,0,0,1-.12.05H27.8v-.45l.63-.43-.62-.44v-.44h2.58a.17.17,0,0,1,.12.05.18.18,0,0,1,.05.13.18.18,0,0,1-.17.17h-2.1l.5.35h.1a.17.17,0,0,1,.12.3A.17.17,0,0,1,28.88,16.68Z" style="fill: #e8e5df" transform="translate(0 0)"/>
        <path d="M28.05,13.52l.78-.38a.78.78,0,0,1,.69,0l.77.38a.43.43,0,0,1,.26.42.45.45,0,0,1-.07.25.47.47,0,0,1-.18.17l-.77.39a.75.75,0,0,1-.34.08.76.76,0,0,1-.35-.08l-.78-.39a.44.44,0,0,1-.26-.42A.43.43,0,0,1,28.05,13.52Zm.17.53.73.36a.52.52,0,0,0,.22.05.5.5,0,0,0,.22-.05l.74-.37a.11.11,0,0,0,.07-.11.11.11,0,0,0-.07-.1l-.74-.37a.51.51,0,0,0-.22-.05.47.47,0,0,0-.22.05l-.73.37a.12.12,0,0,0-.08.11A.13.13,0,0,0,28.23,14Z" style="fill: #e8e5df" transform="translate(0 0)"/>
        <path d="M27.8,11.85v-.91a.49.49,0,0,1,.48-.46.17.17,0,0,1,.13.05.16.16,0,0,1,.05.12.15.15,0,0,1,0,.12.46.46,0,0,1-.15.06.13.13,0,0,0-.11.13v.86s0,.06,0,.06l.06,0,1.65-1.3a.41.41,0,0,1,.26-.09.38.38,0,0,1,.27.11.34.34,0,0,1,.12.25v.94a.48.48,0,0,1-.45.46c-.13,0-.2-.06-.2-.18a.16.16,0,0,1,.05-.12.17.17,0,0,1,.12,0,.12.12,0,0,0,.09,0,.13.13,0,0,0,0-.1v-.87s0-.06,0-.06l-.05,0-1.65,1.29a.41.41,0,0,1-.26.09.39.39,0,0,1-.28-.12A.38.38,0,0,1,27.8,11.85Z" style="fill: #e8e5df" transform="translate(0 0)"/>
        <path d="M27.8,9.5V8.09A.17.17,0,0,1,27.85,8,.16.16,0,0,1,28,7.92.18.18,0,0,1,28.1,8a.17.17,0,0,1,.05.12v.53h2.06V8.09A.17.17,0,0,1,30.26,8a.17.17,0,0,1,.12-.05.17.17,0,0,1,.12.05.17.17,0,0,1,.05.12V9.5a.17.17,0,0,1-.17.17.17.17,0,0,1-.17-.17V9H28.15V9.5a.17.17,0,0,1-.05.12.17.17,0,0,1-.12.05.17.17,0,0,1-.13-.05A.17.17,0,0,1,27.8,9.5Z" style="fill: #e8e5df" transform="translate(0 0)"/>
      </g>
      <g>
        <path d="M20.54,14.42v-.91a.46.46,0,0,1,.14-.31A.45.45,0,0,1,21,13a.17.17,0,0,1,.13.05.16.16,0,0,1,.05.12.15.15,0,0,1,0,.12.44.44,0,0,1-.15.06.13.13,0,0,0-.11.13v.86s0,.06,0,.06l.06,0,1.65-1.3a.41.41,0,0,1,.26-.09.38.38,0,0,1,.27.11.34.34,0,0,1,.12.25v.94a.48.48,0,0,1-.45.46c-.13,0-.2-.06-.2-.18a.16.16,0,0,1,.05-.12.17.17,0,0,1,.12,0,.13.13,0,0,0,.09,0,.13.13,0,0,0,0-.1v-.87s0-.06,0-.06l-.05,0L21.2,14.72a.41.41,0,0,1-.26.09.39.39,0,0,1-.28-.12A.38.38,0,0,1,20.54,14.42Z" style="fill: #e8e5df" transform="translate(0 0)"/>
        <path d="M23,11.28v-.63a.17.17,0,0,1,.05-.13.17.17,0,0,1,.25,0,.18.18,0,0,1,.05.13v.65a.51.51,0,0,1-.08.26.47.47,0,0,1-.18.18l-.78.4a.79.79,0,0,1-.34.08.71.71,0,0,1-.34-.08l-.77-.41a.54.54,0,0,1-.19-.18.43.43,0,0,1-.08-.24v-.69a.17.17,0,0,1,.05-.12.17.17,0,0,1,.12-.05.18.18,0,0,1,.13.05.17.17,0,0,1,.05.12v.66a.15.15,0,0,0,.1.13l.72.39a.42.42,0,0,0,.2,0,.45.45,0,0,0,.22,0l.71-.37A.18.18,0,0,0,23,11.28Z" style="fill: #e8e5df" transform="translate(0 0)"/>
        <path d="M23.13,9.68H20.72a.17.17,0,0,1-.13-.05.17.17,0,0,1,.12-.3h.82l-1-1.12a.19.19,0,0,1,0-.13A.16.16,0,0,1,20.6,8a.18.18,0,0,1,.12,0,.16.16,0,0,1,.12.06l1.08,1.27L23,8a.14.14,0,0,1,.11-.05.18.18,0,0,1,.13.05.16.16,0,0,1,.06.13.19.19,0,0,1,0,.13l-1,1.11h.83a.17.17,0,0,1,.12.05.17.17,0,0,1-.12.3Z" style="fill: #e8e5df" transform="translate(0 0)"/>
      </g>
      <g>
        <path d="M15.8,11.28v-.63a.17.17,0,0,1,.05-.13.17.17,0,0,1,.25,0,.18.18,0,0,1,.05.13v.65a.51.51,0,0,1-.08.26.47.47,0,0,1-.18.18l-.78.4a.79.79,0,0,1-.34.08.71.71,0,0,1-.34-.08l-.77-.41a.54.54,0,0,1-.19-.18.43.43,0,0,1-.08-.24v-.69a.17.17,0,0,1,.05-.12.17.17,0,0,1,.12-.05.18.18,0,0,1,.13.05.17.17,0,0,1,.05.12v.66a.15.15,0,0,0,.1.13l.72.39a.42.42,0,0,0,.2,0,.45.45,0,0,0,.22,0l.71-.37A.18.18,0,0,0,15.8,11.28Z" style="fill: #e8e5df" transform="translate(0 0)"/>
        <path d="M13.39,9.28V8.37a.49.49,0,0,1,.48-.46A.17.17,0,0,1,14,8a.16.16,0,0,1,.05.12.15.15,0,0,1,0,.12.46.46,0,0,1-.15.06.13.13,0,0,0-.11.13v.86s0,.06,0,.06l.06,0L15.5,8a.41.41,0,0,1,.26-.09A.38.38,0,0,1,16,8a.34.34,0,0,1,.12.25v.94a.48.48,0,0,1-.45.46c-.13,0-.2-.06-.2-.18a.16.16,0,0,1,.05-.12.17.17,0,0,1,.12,0,.12.12,0,0,0,.09,0,.13.13,0,0,0,0-.1V8.32s0-.06,0-.06l-.05,0L14.05,9.58a.41.41,0,0,1-.26.09.39.39,0,0,1-.28-.12A.38.38,0,0,1,13.39,9.28Z" style="fill: #e8e5df" transform="translate(0 0)"/>
      </g>
    </g>
  </g>
  <g data-name="black squares" id="black_squares">
    <path d="M9.68,10.58V9.14a.21.21,0,0,1,.42,0V11H8.74a.42.42,0,0,1-.47-.47V9.35h-1v1.44a.21.21,0,0,1-.42,0V9.4a.43.43,0,0,1,.49-.47H8.2a.43.43,0,0,1,.49.47v1.18Z" style="fill: #fff" transform="translate(0 0)"/>
  </g>
  <g data-name="connectors" id="connectors-2">
    <g>
      <rect height="1.92" style="fill: #a8a69a" width="4.56" x="50.88" y="30.73"/>
      <rect height="1.92" style="fill: #a8a69a" width="4.56" x="50.88" y="36.97"/>
      <rect height="1.92" style="fill: #a8a69a" width="4.56" x="50.88" y="43.45"/>
      <polygon points="58.8 37.21 58.32 37.21 58.32 36.25 52.32 36.25 52.32 39.85 58.32 39.85 58.32 38.89 58.8 38.89 58.8 37.21" style="fill: #86665c"/>
      <polygon points="58.8 30.97 58.32 30.97 58.32 30.01 52.32 30.01 52.32 33.61 58.32 33.61 58.32 32.65 58.8 32.65 58.8 30.97" style="fill: #86665c"/>
      <path d="M51.64,38.62a1,1,0,0,0,.16.88,1,1,0,0,0,1,.32h2.64c-.22-.64.19-.62.72-.48a4.54,4.54,0,0,1,.24-.72c.29-.67.59-.92.48-1.2s-.24-.15-.48-.48a3.3,3.3,0,0,1-.24-.48c-.26-.39-1-.21-2.16-.24s-1.41-.24-1.68,0-.16.59-.48,1.68C51.79,38.2,51.7,38.45,51.64,38.62Z" style="fill: #f4edef" transform="translate(0 0)"/>
      <polygon points="58.8 43.69 58.32 43.69 58.32 42.73 52.32 42.73 52.32 46.33 58.32 46.33 58.32 45.37 58.8 45.37 58.8 43.69" style="fill: #86665c"/>
      <path d="M51.84,44a1,1,0,0,1,.16-.88,1,1,0,0,1,1-.32h2.64c-.22.64.19.62.72.48a4.56,4.56,0,0,0,.24.72c.29.67.59.92.48,1.2s-.24.15-.48.48a3.29,3.29,0,0,0-.24.48c-.26.39-1,.21-2.16.24s-1.41.24-1.68,0-.16-.59-.48-1.68C52,44.38,51.9,44.14,51.84,44Z" style="fill: #f4edef" transform="translate(0 0)"/>
    </g>
    <g>
      <rect height="1.56" rx="0.42" ry="0.42" style="fill: #e7e6e8" width="2.61" x="57.39" y="23.42"/>
      <rect height="1.9" rx="0.73" ry="0.73" style="fill: #fffdf3" width="2.57" x="57.41" y="18.89"/>
      <rect height="3.17" rx="0.92" ry="0.92" style="fill: #6f4c21" width="2.06" x="57.62" y="20.06"/>
      <path d="M59.84,22.93q.14.59-.69.58l-1.36,0c-.36-.15-.47-.34-.14-.63a5,5,0,0,1,1.76-.15A.42.42,0,0,1,59.84,22.93Z" style="fill: #757376" transform="translate(0 0)"/>
      <path d="M59.84,20.21q.14.59-.69.58l-1.36,0c-.36-.15-.47-.34-.14-.63A5,5,0,0,1,59.4,20,.42.42,0,0,1,59.84,20.21Z" style="fill: #757376" transform="translate(0 0)"/>
    </g>
    <g>
      <rect height="1.63" rx="0.42" ry="0.42" style="fill: #e7e6e8" width="2.73" x="10.08" y="22.92"/>
      <rect height="1.98" rx="0.73" ry="0.73" style="fill: #e7e6e8" width="2.69" x="10.1" y="18.25"/>
      <rect height="3.31" rx="0.92" ry="0.92" style="fill: #e7e6e8" width="2.24" x="10.33" y="19.87"/>
      <rect height="1.91" style="fill: #2a292d" transform="translate(32.94 10.13) rotate(90)" width="2.53" x="10.14" y="20.58"/>
      <g>
        <path d="M11.73,20.88l-.18-.15a.19.19,0,0,1-.21.17.21.21,0,0,1-.23-.22.33.33,0,0,1,0-.15h.1a.23.23,0,0,0,0,.15.13.13,0,0,0,.14.14.12.12,0,0,0,.13-.13v-.06h.08l.18.15v-.25h.09v.35Z" style="fill: #fbfcfe" transform="translate(0 0)"/>
        <path d="M11.22,21.45h-.09V21.1h.05a.34.34,0,0,1,.32.16s.08.11.15.11a.1.1,0,0,0,.11-.09.29.29,0,0,0-.08-.17h.11a.23.23,0,0,1,.06.16.18.18,0,0,1-.19.18c-.13,0-.18-.08-.24-.15a.24.24,0,0,0-.18-.11h0Z" style="fill: #fbfcfe" transform="translate(0 0)"/>
        <path d="M11.22,22h-.09v-.34h.05a.34.34,0,0,1,.32.16s.08.11.15.11a.1.1,0,0,0,.11-.09.29.29,0,0,0-.08-.17h.11a.23.23,0,0,1,.06.16.18.18,0,0,1-.19.18c-.13,0-.18-.08-.24-.15a.24.24,0,0,0-.18-.11h0Z" style="fill: #fbfcfe" transform="translate(0 0)"/>
      </g>
    </g>
    <g>
      <rect height="1.63" rx="0.42" ry="0.42" style="fill: #e7e6e8" width="2.73" x="7.68" y="54.84"/>
      <rect height="1.98" rx="0.73" ry="0.73" style="fill: #e7e6e8" width="2.69" x="7.7" y="50.17"/>
      <rect height="3.31" rx="0.92" ry="0.92" style="fill: #e7e6e8" width="2.24" x="7.93" y="51.79"/>
      <rect height="1.91" style="fill: #2a292d" transform="translate(62.46 44.45) rotate(90)" width="2.53" x="7.74" y="52.5"/>
      <g>
        <path d="M8.82,52.79H8.73v-.34h.05a.34.34,0,0,1,.32.16s.08.11.15.11a.1.1,0,0,0,.11-.09.29.29,0,0,0-.08-.17h.11a.23.23,0,0,1,.06.16.18.18,0,0,1-.19.18c-.13,0-.18-.08-.24-.15a.24.24,0,0,0-.18-.11h0Z" style="fill: #fbfcfe" transform="translate(0 0)"/>
        <path d="M9.12,53.13v.21H9v-.21h-.2v.25H8.73v-.33h.65v.32H9.29v-.24Z" style="fill: #fbfcfe" transform="translate(0 0)"/>
        <path d="M9.12,53.71v.21H9v-.21h-.2V54H8.73v-.33h.65v.32H9.29v-.24Z" style="fill: #fbfcfe" transform="translate(0 0)"/>
      </g>
    </g>
    <g>
      <rect height="1.63" rx="0.42" ry="0.42" style="fill: #e7e6e8" width="2.73" x="13.11" y="54.84"/>
      <rect height="1.98" rx="0.73" ry="0.73" style="fill: #e7e6e8" width="2.69" x="13.13" y="50.17"/>
      <rect height="3.31" rx="0.92" ry="0.92" style="fill: #e7e6e8" width="2.24" x="13.35" y="51.79"/>
      <rect height="1.91" style="fill: #2a292d" transform="translate(67.88 39.02) rotate(90)" width="2.53" x="13.17" y="52.5"/>
      <g>
        <path d="M14.25,52.79h-.09v-.34h.05a.34.34,0,0,1,.32.16s.08.11.15.11a.1.1,0,0,0,.11-.09.29.29,0,0,0-.08-.17h.11a.23.23,0,0,1,.06.16.18.18,0,0,1-.19.18c-.13,0-.18-.08-.24-.15a.24.24,0,0,0-.18-.11h0Z" style="fill: #fbfcfe" transform="translate(0 0)"/>
        <path d="M14.54,53.13v.21h-.09v-.21h-.2v.25h-.09v-.33h.65v.32h-.09v-.24Z" style="fill: #fbfcfe" transform="translate(0 0)"/>
        <path d="M14.54,53.71v.21h-.09v-.21h-.2V54h-.09v-.33h.65v.32h-.09v-.24Z" style="fill: #fbfcfe" transform="translate(0 0)"/>
      </g>
    </g>
    <g>
      <rect height="1.63" rx="0.42" ry="0.42" style="fill: #e7e6e8" width="2.73" x="14.79" y="22.86"/>
      <rect height="1.98" rx="0.73" ry="0.73" style="fill: #e7e6e8" width="2.69" x="14.81" y="18.2"/>
      <rect height="3.31" rx="0.92" ry="0.92" style="fill: #e7e6e8" width="2.24" x="15.03" y="19.82"/>
      <rect height="1.91" style="fill: #2a292d" transform="translate(37.59 5.37) rotate(90)" width="2.53" x="14.85" y="20.52"/>
      <g>
        <path d="M15.93,20.82h-.09v-.34h.05a.34.34,0,0,1,.32.16s.08.11.15.11a.1.1,0,0,0,.11-.09.29.29,0,0,0-.08-.17h.11a.23.23,0,0,1,.06.16.18.18,0,0,1-.19.18c-.13,0-.18-.08-.24-.15a.24.24,0,0,0-.18-.11h0Z" style="fill: #fbfcfe" transform="translate(0 0)"/>
        <path d="M16.23,21.16v.21h-.09v-.21h-.2v.25h-.09v-.33h.65v.32H16.4v-.24Z" style="fill: #fbfcfe" transform="translate(0 0)"/>
        <path d="M16.23,21.73v.21h-.09v-.21h-.2V22h-.09v-.33h.65V22H16.4v-.24Z" style="fill: #fbfcfe" transform="translate(0 0)"/>
      </g>
    </g>
    <g>
      <rect height="1.56" rx="0.42" ry="0.42" style="fill: #e7e6e8" width="2.61" x="5.79" y="23.42"/>
      <rect height="1.9" rx="0.73" ry="0.73" style="fill: #fffdf3" width="2.57" x="5.81" y="18.89"/>
      <rect height="3.17" rx="0.92" ry="0.92" style="fill: #6f4c21" width="2.06" x="6.02" y="20.06"/>
      <path d="M8.24,22.93q.14.59-.69.58l-1.36,0c-.36-.15-.47-.34-.14-.63a5,5,0,0,1,1.76-.15A.42.42,0,0,1,8.24,22.93Z" style="fill: #757376" transform="translate(0 0)"/>
      <path d="M8.24,20.21q.14.59-.69.58l-1.36,0c-.36-.15-.47-.34-.14-.63A5,5,0,0,1,7.8,20,.42.42,0,0,1,8.24,20.21Z" style="fill: #757376" transform="translate(0 0)"/>
    </g>
    <g>
      <rect height="1.68" rx="0.42" ry="0.42" style="fill: #e7e6e8" width="2.82" x="45.12" y="57.37"/>
      <rect height="2.05" rx="0.73" ry="0.73" style="fill: #fffdf3" width="2.78" x="45.14" y="52.49"/>
      <rect height="3.42" rx="0.92" ry="0.92" style="fill: #6f4c21" width="2.22" x="45.38" y="53.75"/>
      <path d="M47.77,56.85q.15.64-.75.63l-1.47,0c-.38-.16-.51-.37-.15-.68a5.41,5.41,0,0,1,1.9-.16A.46.46,0,0,1,47.77,56.85Z" style="fill: #757376" transform="translate(0 0)"/>
      <path d="M47.77,53.91q.15.64-.75.63l-1.47,0c-.38-.16-.51-.37-.15-.68a5.41,5.41,0,0,1,1.9-.16A.46.46,0,0,1,47.77,53.91Z" style="fill: #757376" transform="translate(0 0)"/>
    </g>
    <g>
      <rect height="2.09" rx="0.42" ry="0.42" style="fill: #e7e6e8" width="4.56" x="50.88" y="57.68"/>
      <rect height="2.54" rx="0.73" ry="0.73" style="fill: #fffdf3" width="4.49" x="50.92" y="51.61"/>
      <rect height="4.25" rx="0.92" ry="0.92" style="fill: #6f4c21" width="3.59" x="51.29" y="53.18"/>
      <path d="M55.16,57q.24.79-1.21.78l-2.37-.05c-.62-.2-.82-.46-.25-.85a11.28,11.28,0,0,1,3.06-.2A.8.8,0,0,1,55.16,57Z" style="fill: #757376" transform="translate(0 0)"/>
      <path d="M55.16,53.38q.24.79-1.21.78l-2.37-.05c-.62-.2-.82-.46-.25-.85a11.27,11.27,0,0,1,3.06-.2A.8.8,0,0,1,55.16,53.38Z" style="fill: #757376" transform="translate(0 0)"/>
    </g>
  </g>
  <g id="placute">
    <rect height="4.05" style="fill: #b5b29f" width="1.96" x="12.48" y="65.32"/>
    <rect height="4.05" style="fill: #b5b29f" width="1.96" x="15.6" y="65.32"/>
    <rect height="3.09" style="fill: #b5b29f" width="1.96" x="18.65" y="65.32"/>
    <rect height="3.09" style="fill: #b5b29f" width="1.96" x="21.94" y="65.32"/>
    <rect height="3.09" style="fill: #b5b29f" width="1.96" x="25.06" y="65.32"/>
    <rect height="3.09" style="fill: #b5b29f" width="1.96" x="28.1" y="65.32"/>
    <rect height="3.09" style="fill: #b5b29f" width="1.96" x="31.4" y="65.32"/>
    <rect height="3.09" style="fill: #b5b29f" width="1.96" x="34.52" y="65.32"/>
    <rect height="3.09" style="fill: #b5b29f" width="1.96" x="37.56" y="65.32"/>
  </g>
  <g id="lines">
    <line style="fill: none;stroke: #e6d8c6;stroke-linecap: round;stroke-miterlimit: 10;stroke-width: 0.4px" x1="20.15" x2="44.93" y1="69.22" y2="69.22"/>
    <line style="fill: none;stroke: #dfe4f3;stroke-linecap: round;stroke-miterlimit: 10;stroke-width: 0.4px" x1="11.28" x2="11.28" y1="93.85" y2="72.73"/>
    <line style="fill: none;stroke: #dfe4f3;stroke-linecap: round;stroke-miterlimit: 10;stroke-width: 0.4px" x1="11.28" x2="11.28" y1="108.01" y2="100.33"/>
    <line style="fill: none;stroke: #dfe4f3;stroke-linecap: round;stroke-miterlimit: 10;stroke-width: 0.4px" x1="49.2" x2="40.08" y1="68.41" y2="68.41"/>
    <rect height="8.4" style="fill: none;stroke: #dfe4f3;stroke-linecap: round;stroke-linejoin: round;stroke-width: 0.4px" width="4.32" x="44.16" y="50.89"/>
    <rect height="8.4" style="fill: none;stroke: #dfe4f3;stroke-linecap: round;stroke-linejoin: round;stroke-width: 0.4px" width="4.32" x="56.64" y="17.77"/>
    <rect height="8.4" style="fill: none;stroke: #dfe4f3;stroke-linecap: round;stroke-linejoin: round;stroke-width: 0.4px" width="4.32" x="4.56" y="17.53"/>
    <rect height="8.4" style="fill: none;stroke: #dfe4f3;stroke-linecap: round;stroke-linejoin: round;stroke-width: 0.4px" width="4.32" x="9.36" y="16.81"/>
    <rect height="8.4" style="fill: none;stroke: #dfe4f3;stroke-linecap: round;stroke-linejoin: round;stroke-width: 0.4px" width="4.32" x="13.92" y="16.81"/>
    <rect height="8.4" style="fill: none;stroke: #dfe4f3;stroke-linecap: round;stroke-linejoin: round;stroke-width: 0.4px" width="4.32" x="6.48" y="48.73"/>
    <rect height="8.4" style="fill: none;stroke: #dfe4f3;stroke-linecap: round;stroke-linejoin: round;stroke-width: 0.4px" width="4.32" x="11.76" y="48.73"/>
    <rect height="9.6" style="fill: none;stroke: #dfe4f3;stroke-linecap: round;stroke-linejoin: round;stroke-width: 0.4px" width="5.76" x="50.16" y="50.65"/>
  </g>
  <g data-name="ellipse white" id="ellipse_white">
    <polyline points="10.2 111.51 12.11 109.61 14.13 111.64" style="fill: none;stroke: #dfe4f3;stroke-linecap: round;stroke-linejoin: round;stroke-width: 1.5px"/>
    <line style="fill: none;stroke: #dfe4f3;stroke-linecap: round;stroke-linejoin: round;stroke-width: 1.5px" x1="12.11" x2="12.11" y1="109.61" y2="114.1"/>
  </g>
  <g data-name="black square" id="black_square">
    <rect height="11.76" style="fill: #2c2d31" width="14.4" x="5.28" y="32.17"/>
    <rect height="16.8" style="fill: #2c2d31" width="9.6" x="42" y="29.53"/>
    <circle cx="8.88" cy="41.29" r="1.44" style="fill: #44484d"/>
  </g>
  <g id="Connectors">
    <path d="M14.74,1.73a2.39,2.39,0,1,0,2.39,2.39A2.39,2.39,0,0,0,14.74,1.73Zm0,3.59a1.2,1.2,0,1,1,1.2-1.2A1.2,1.2,0,0,1,14.74,5.32Z" data-cir-type="male" id="circuitoCon_CS" style="fill: #b1aeaa" transform="translate(0 0)"/>
    <path d="M21.94,1.73a2.39,2.39,0,1,0,2.39,2.39A2.39,2.39,0,0,0,21.94,1.73Zm0,3.59a1.2,1.2,0,1,1,1.2-1.2A1.2,1.2,0,0,1,21.94,5.32Z" data-cir-type="male" id="circuitoCon_SCK" style="fill: #b1aeaa" transform="translate(0 0)"/>
    <path d="M29.14,1.73a2.39,2.39,0,1,0,2.39,2.39A2.39,2.39,0,0,0,29.14,1.73Zm0,3.59a1.2,1.2,0,1,1,1.2-1.2A1.2,1.2,0,0,1,29.14,5.32Z" data-cir-type="male" id="circuitoCon_MOSI" style="fill: #b1aeaa" transform="translate(0 0)"/>
    <path d="M36.34,1.73a2.39,2.39,0,1,0,2.39,2.39A2.39,2.39,0,0,0,36.34,1.73Zm0,3.59a1.2,1.2,0,1,1,1.2-1.2A1.2,1.2,0,0,1,36.34,5.32Z" data-cir-type="male" id="circuitoCon_MISO" style="fill: #b1aeaa" transform="translate(0 0)"/>
    <path d="M43.54,1.73a2.39,2.39,0,1,0,2.39,2.39A2.39,2.39,0,0,0,43.54,1.73Zm0,3.59a1.2,1.2,0,1,1,1.2-1.2A1.2,1.2,0,0,1,43.54,5.32Z" data-cir-type="male" id="circuitoCon_VCC" style="fill: #b1aeaa" transform="translate(0 0)"/>
    <path d="M50.74,1.73a2.39,2.39,0,1,0,2.39,2.39A2.39,2.39,0,0,0,50.74,1.73Zm0,3.59a1.2,1.2,0,1,1,1.2-1.2A1.2,1.2,0,0,1,50.74,5.32Z" data-cir-type="male" id="circuitoCon_GND" style="fill: #b1aeaa" transform="translate(0 0)"/>
  </g>
</svg>