<?xml version="1.0" ?><svg data-name="Layer 16" height="20.5mm" id="Layer_16" viewBox="0 0 64.8 58.11" width="22.86mm" xmlns="http://www.w3.org/2000/svg" xmlns:xlink="http://www.w3.org/1999/xlink">
  <defs>
    <radialGradient cx="34.95" cy="167.28" gradientTransform="translate(61.43 161.97) rotate(180) scale(0.8)" gradientUnits="userSpaceOnUse" id="radial-gradient" r="29.15">
      <stop offset="0" stop-color="#828282"/>
      <stop offset="0.12" stop-color="#6f6f6f"/>
      <stop offset="0.54" stop-color="#333"/>
      <stop offset="0.84" stop-color="#0e0e0e"/>
      <stop offset="1"/>
    </radialGradient>
    <radialGradient cx="35.1" cy="167.08" id="radial-gradient-2" r="29.54" xlink:href="#radial-gradient"/>
  </defs>
  <title>Ultrasonic Range Finder - LV-MaxSonar</title>
  <g id="Background">
    <path d="M14.58,15.34V-1.55H-1.9V15.34Zm-8-13.73A4.82,4.82,0,1,1,1.75,6.44,4.82,4.82,0,0,1,6.57,1.62Z" style="fill: none" transform="translate(1.9 1.55)"/>
    <circle cx="62.59" cy="16.3" r="0.88" style="fill: #fff"/>
    <circle cx="62.51" cy="16.3" r="1.08" style="fill: none;stroke: #988753;stroke-miterlimit: 10;stroke-width: 0.600000023841858px"/>
    <path d="M60.1,37.71a1.8,1.8,0,1,0-1.8-1.8A1.8,1.8,0,0,0,60.1,37.71Zm0-3.26a1.46,1.46,0,1,1-1.46,1.46A1.46,1.46,0,0,1,60.1,34.46Z" style="fill: none;stroke: #a48048;stroke-miterlimit: 10" transform="translate(1.9 1.55)"/>
    <circle cx="57.55" cy="45.52" r="4.97" style="fill: none"/>
    <circle cx="34.92" cy="54.7" r="1.43" style="fill: none"/>
    <circle cx="49.33" cy="54.7" r="1.43" style="fill: none"/>
    <circle cx="27.72" cy="54.7" r="1.43" style="fill: none"/>
    <circle cx="42.12" cy="54.7" r="1.43" style="fill: none"/>
    <circle cx="20.51" cy="54.7" r="1.43" style="fill: none"/>
    <circle cx="13.31" cy="54.7" r="1.43" style="fill: none"/>
    <circle cx="6.1" cy="54.7" r="1.43" style="fill: none"/>
    <path d="M62.9,56.57V0H0V56.57Zm-58.7-2a1.43,1.43,0,1,1,1.43-1.43A1.43,1.43,0,0,1,4.2,54.58ZM60.1,34.46a1.46,1.46,0,1,1-1.46,1.46A1.46,1.46,0,0,1,60.1,34.46Zm-4.47,4.35A5.17,5.17,0,1,1,50.46,44,5.17,5.17,0,0,1,55.63,38.81Zm-8.2,12.92A1.43,1.43,0,1,1,46,53.16,1.43,1.43,0,0,1,47.43,51.73Zm-7.2,0a1.43,1.43,0,1,1-1.43,1.43A1.43,1.43,0,0,1,40.22,51.73Zm-7.2,0a1.43,1.43,0,1,1-1.43,1.43A1.43,1.43,0,0,1,33,51.73Zm-7.2,0a1.43,1.43,0,1,1-1.43,1.43A1.43,1.43,0,0,1,25.82,51.73Zm-7.2,0a1.43,1.43,0,1,1-1.43,1.43A1.43,1.43,0,0,1,18.61,51.73ZM15.86.61a1.6,1.6,0,1,1-1.6,1.6A1.6,1.6,0,0,1,15.86.61Zm-3,52.55a1.43,1.43,0,1,1-1.43-1.43A1.43,1.43,0,0,1,12.83,53.16ZM6.45,1.27A5.17,5.17,0,1,1,1.28,6.44,5.17,5.17,0,0,1,6.45,1.27Z" style="fill: #0e5e38" transform="translate(1.9 1.55)"/>
    <path d="M6.45,11.61A5.17,5.17,0,1,0,1.28,6.44,5.17,5.17,0,0,0,6.45,11.61Zm0-10.14a5,5,0,1,1-5,5A5,5,0,0,1,6.45,1.47Z" style="fill: #0e5e38" transform="translate(1.9 1.55)"/>
    <path d="M55.63,49.15A5.17,5.17,0,1,0,50.46,44,5.17,5.17,0,0,0,55.63,49.15Zm0-10.14a5,5,0,1,1-5,5A5,5,0,0,1,55.65,39Z" style="fill: #0e5e38" transform="translate(1.9 1.55)"/>
    <circle cx="17.76" cy="3.75" r="1.8" style="fill: none;stroke: #a48048;stroke-miterlimit: 10;stroke-width: 0.6000000000000001px"/>
  </g>
  <g data-name="Light green" id="Light_green">
    <line style="fill: none;stroke: #1e9657;stroke-miterlimit: 10" x1="40.91" x2="39.01" y1="53.23" y2="51.33"/>
    <line style="fill: none;stroke: #1e9657;stroke-miterlimit: 10" x1="20.51" x2="20.51" y1="52.71" y2="48.11"/>
    <polyline points="5.75 52.69 5.75 47.14 4.6 45.99" style="fill: none;stroke: #1e9657;stroke-miterlimit: 10"/>
    <line style="fill: none;stroke: #1e9657;stroke-miterlimit: 10" x1="11.34" x2="9.26" y1="44.29" y2="42.21"/>
    <polyline points="3.46 21.1 3.46 19.59 14.68 13.44" style="fill: none;stroke: #1e9657;stroke-miterlimit: 10;stroke-width: 0.4px"/>
    <polyline points="4.89 21.59 5.37 20.22 13.45 15.64" style="fill: none;stroke: #1e9657;stroke-miterlimit: 10;stroke-width: 0.4px"/>
    <polyline points="7.83 21.59 8 20.26 12.59 17.61" style="fill: none;stroke: #1e9657;stroke-miterlimit: 10;stroke-width: 0.4px"/>
    <polyline points="19.01 9.08 20.98 5.13 19.7 3.85" style="fill: none;stroke: #1e9657;stroke-miterlimit: 10;stroke-width: 0.4px"/>
    <polyline points="56.97 7.72 53.67 6.15 53.67 3.26 49.37 3.26 49.37 4.16" style="fill: none;stroke: #1e9657;stroke-miterlimit: 10;stroke-width: 0.4px"/>
    <polyline points="19.01 2.38 42.93 2.38 42.93 4.06" style="fill: none;stroke: #1e9657;stroke-miterlimit: 10;stroke-width: 0.8px"/>
    <line style="fill: none;stroke: #1e9657;stroke-miterlimit: 10;stroke-width: 0.8px" x1="61.01" x2="55.84" y1="35.95" y2="35.95"/>
    <polyline points="49.19 7.72 47.77 6.29 46.65 7.41" style="fill: none;stroke: #1e9657;stroke-miterlimit: 10;stroke-width: 0.2px"/>
    <path d="M.4,17.14l11.15-5.8,5.88-7.22L17,3.75a2,2,0,0,1-2.67-.53A2,2,0,0,1,14.68.57H8.23a6.07,6.07,0,1,1-3,0H.4Z" style="fill: #1e9657" transform="translate(1.9 1.55)"/>
    <path d="M6.71.37a6.06,6.06,0,0,0-1.52.2h3A6.06,6.06,0,0,0,6.71.37Z" style="fill: none" transform="translate(1.9 1.55)"/>
    <path d="M51.9,39.91a16.54,16.54,0,0,0,1-1.54,6.39,6.39,0,0,0-3.15,4.05A16.68,16.68,0,0,0,51.9,39.91Z" style="fill: none" transform="translate(1.9 1.55)"/>
    <path d="M49,49l1.53,1.53L51.21,56H62.27V44a6.38,6.38,0,1,1-12.56-1.56c-.24.23-.47.43-.69.62Z" style="fill: #1e9657" transform="translate(1.9 1.55)"/>
    <path d="M55.89,50.36a6.38,6.38,0,1,0-3-12,16.44,16.44,0,0,1-3.15,4.05,6.36,6.36,0,0,0,6.18,7.94Z" style="fill: none" transform="translate(1.9 1.55)"/>
    <path d="M62.27,44l-.09-5.87-4.61-1.6-4-1.28a16.2,16.2,0,0,1-1.46,3.14,7.36,7.36,0,0,1,3.29-.76A6.67,6.67,0,0,1,62.27,44Z" style="fill: #1e9657" transform="translate(1.9 1.55)"/>
  </g>
  <g data-name="Layer 4" id="Layer_4">
    <circle cx="33.45" cy="28.06" r="23.33" style="stroke: #bfc1bf;stroke-miterlimit: 10;fill: url(#radial-gradient)"/>
    <ellipse cx="33.33" cy="28.22" rx="23.45" ry="23.84" style="stroke: #cfd0cf;stroke-miterlimit: 10;fill: url(#radial-gradient-2)"/>
  </g>
  <g data-name="Layer 9" id="Layer_9">
    <path d="M7.72,29.39a24.72,24.72,0,0,0,.58,3.24,26.58,26.58,0,0,1-.62-8h0A25,25,0,0,0,7.72,29.39Z" transform="translate(1.9 1.55)"/>
    <path d="M8.82,34.49c-.18-.56-.36-1.19-.52-1.86.11.47.22.93.34,1.34l-6.93,0V24.58h6c0-.46.09-.89.14-1.29H.63V34.53Z" style="fill: #8a8d89" transform="translate(1.9 1.55)"/>
    <path d="M1.7,33.94l6.93,0c-.12-.41-.23-.87-.34-1.34a24.72,24.72,0,0,1-.58-3.24,25,25,0,0,1-.06-4.81h-6Z" style="fill: #2c2d2c" transform="translate(1.9 1.55)"/>
    <path d="M52.24,14.75l.19.34a23,23,0,0,1,2,5.14h.11a24.42,24.42,0,0,0-2.06-5.09Z" style="fill: #2c2d2c" transform="translate(1.9 1.55)"/>
    <path d="M52.24,14.75a23.07,23.07,0,0,0-3.59-4.86H59.81V20.23H54.52c0,.12.08.26.11.38h5.84V9.44H48.2A24.74,24.74,0,0,1,52.24,14.75Z" style="fill: #8a8d89" transform="translate(1.9 1.55)"/>
    <path d="M59.81,9.89H48.65a23.07,23.07,0,0,1,3.59,4.86l.22.39a24.42,24.42,0,0,1,2.06,5.09h5.29Z" style="fill: #2c2d2c" transform="translate(1.9 1.55)"/>
    <rect height="2.18" style="fill: #cac6bb" transform="translate(116.3 56.95) rotate(179.79)" width="4.96" x="54.67" y="26.72"/>
    <rect height="2.71" style="fill: #d0d1cd" transform="translate(116.55 57) rotate(179.79)" width="3.16" x="55.7" y="26.48"/>
    <path d="M56,26.46l2.57,0a3.23,3.23,0,0,0-.19,1.37,2.9,2.9,0,0,0,.16,1.34l-2.57,0a4.81,4.81,0,0,0,.2-1.34A5.19,5.19,0,0,0,56,26.46Z" style="fill: #b38f70" transform="translate(1.9 1.55)"/>
    <rect height="2.18" style="fill: #cac6bb" transform="translate(115.94 7.86) rotate(180)" width="4.96" x="54.54" y="2.07"/>
    <rect height="2.71" style="fill: #d0d1cd" transform="translate(116.19 7.91) rotate(180)" width="3.16" x="55.57" y="1.83"/>
    <path d="M55.83,1.83H58.4a3.23,3.23,0,0,0-.17,1.37,2.9,2.9,0,0,0,.17,1.34H55.83A4.81,4.81,0,0,0,56,3.2,5.19,5.19,0,0,0,55.83,1.83Z" style="fill: #b38f70" transform="translate(1.9 1.55)"/>
    <rect height="2.18" style="fill: #cac6bb" transform="translate(81.19 8.26) rotate(180)" width="4.96" x="37.16" y="2.27"/>
    <rect height="2.71" style="fill: #d0d1cd" transform="translate(81.44 8.32) rotate(180)" width="3.16" x="38.19" y="2.03"/>
    <path d="M38.45,2H41a3.23,3.23,0,0,0-.17,1.37A2.9,2.9,0,0,0,41,4.74H38.45a4.81,4.81,0,0,0,.19-1.34A5.19,5.19,0,0,0,38.45,2Z" style="fill: #b38f70" transform="translate(1.9 1.55)"/>
    <rect height="2.42" style="fill: #f7f6e9" transform="translate(15.42 88.73) rotate(180)" width="2.42" x="5.55" y="42.38"/>
    <rect height="2.42" style="fill: #f7f6e9" transform="translate(7.72 88.73) rotate(180)" width="2.42" x="1.7" y="42.38"/>
    <rect height="2.1" style="fill: #3a393c" transform="translate(11.46 88.79) rotate(180)" width="4.8" x="2.38" y="42.57"/>
    <rect height="1.91" style="fill: #303030" transform="translate(11.43 88.81) rotate(180)" width="4.59" x="2.47" y="42.68"/>
    <rect height="2.42" style="fill: #f7f6e9" transform="translate(15.42 81.61) rotate(180)" width="2.42" x="5.55" y="38.82"/>
    <rect height="2.42" style="fill: #f7f6e9" transform="translate(7.72 81.61) rotate(180)" width="2.42" x="1.7" y="38.82"/>
    <rect height="2.1" style="fill: #3a393c" transform="translate(11.46 81.66) rotate(180)" width="4.8" x="2.38" y="39.01"/>
    <rect height="1.91" style="fill: #303030" transform="translate(11.43 81.68) rotate(180)" width="4.59" x="2.47" y="39.11"/>
    <rect height="2.42" style="fill: #f7f6e9" transform="translate(119.9 63.04) rotate(180)" width="2.42" x="57.79" y="29.54"/>
    <rect height="2.42" style="fill: #f7f6e9" transform="translate(112.21 63.04) rotate(180)" width="2.42" x="53.94" y="29.54"/>
    <rect height="2.1" style="fill: #3a393c" transform="translate(115.94 63.1) rotate(180)" width="4.8" x="54.62" y="29.73"/>
    <rect height="1.91" style="fill: #303030" transform="translate(115.91 63.12) rotate(180)" width="4.59" x="54.71" y="29.83"/>
    <rect height="2.42" style="fill: #f7f6e9" transform="translate(100.79 8.61) rotate(180)" width="2.42" x="48.24" y="2.32"/>
    <rect height="2.42" style="fill: #f7f6e9" transform="translate(93.1 8.61) rotate(180)" width="2.42" x="44.39" y="2.32"/>
    <rect height="2.1" style="fill: #3a393c" transform="translate(96.83 8.67) rotate(180)" width="4.8" x="45.07" y="2.51"/>
    <rect height="1.91" style="fill: #303030" transform="translate(96.8 8.68) rotate(180)" width="4.59" x="45.15" y="2.61"/>
    <rect height="2.42" style="fill: #f7f6e9" transform="translate(29.54 81.61) rotate(180)" width="2.42" x="12.61" y="38.82"/>
    <rect height="2.42" style="fill: #f7f6e9" transform="translate(21.84 81.61) rotate(180)" width="2.42" x="8.76" y="38.82"/>
    <rect height="2.1" style="fill: #3a393c" transform="translate(25.58 81.66) rotate(180)" width="4.8" x="9.44" y="39.01"/>
    <rect height="1.91" style="fill: #303030" transform="translate(25.55 81.68) rotate(180)" width="4.59" x="9.53" y="39.11"/>
    <rect height="2.42" style="fill: #f7f6e9" transform="translate(29.65 88.73) rotate(180)" width="2.42" x="12.67" y="42.38"/>
    <rect height="2.42" style="fill: #f7f6e9" transform="translate(21.95 88.73) rotate(180)" width="2.42" x="8.82" y="42.38"/>
    <rect height="2.1" style="fill: #3a393c" transform="translate(25.69 88.79) rotate(180)" width="4.8" x="9.5" y="42.57"/>
    <rect height="1.91" style="fill: #303030" transform="translate(25.66 88.81) rotate(180)" width="4.59" x="9.58" y="42.68"/>
    <rect height="3.31" style="fill: #3a393c" transform="translate(119.83 16.2) rotate(180)" width="1.99" x="57.97" y="5.67"/>
    <rect height="1.44" style="fill: #e8e5df" transform="translate(119.83 14.76) rotate(180)" width="1.44" x="58.24" y="5.89"/>
    <rect height="2.02" style="fill: #e8e5df" transform="translate(119.83 18.63) rotate(180)" width="1.44" x="58.24" y="7.53"/>
    <rect height="3.31" style="fill: #3a393c" width="1.99" x="59.9" y="22.59"/>
    <rect height="1.44" style="fill: #e8e5df" width="1.44" x="60.18" y="24.25"/>
    <rect height="2.02" style="fill: #e8e5df" width="1.44" x="60.18" y="22.03"/>
    <rect height="3.31" style="fill: #3a393c" width="1.99" x="10.49" y="36.37"/>
    <rect height="1.44" style="fill: #e8e5df" width="1.44" x="10.76" y="38.03"/>
    <rect height="2.02" style="fill: #e8e5df" width="1.44" x="10.76" y="35.81"/>
    <rect height="3.31" style="fill: #3a393c" width="1.99" x="6.84" y="36.46"/>
    <rect height="1.44" style="fill: #e8e5df" width="1.44" x="7.11" y="38.11"/>
    <rect height="2.02" style="fill: #e8e5df" width="1.44" x="7.11" y="35.89"/>
    <rect height="3.31" style="fill: #3a393c" width="1.99" x="3.37" y="36.37"/>
    <rect height="1.44" style="fill: #e8e5df" width="1.44" x="3.65" y="38.03"/>
    <rect height="2.02" style="fill: #e8e5df" width="1.44" x="3.65" y="35.81"/>
    <rect height="3.31" style="fill: #3a393c" width="1.99" x="56.27" y="22.59"/>
    <rect height="1.44" style="fill: #e8e5df" width="1.44" x="56.54" y="24.25"/>
    <rect height="2.02" style="fill: #e8e5df" width="1.44" x="56.54" y="22.03"/>
    <rect height="3.31" style="fill: #3a393c" transform="translate(112.94 16.2) rotate(180)" width="1.99" x="54.52" y="5.67"/>
    <rect height="1.44" style="fill: #e8e5df" transform="translate(112.94 14.76) rotate(180)" width="1.44" x="54.8" y="5.89"/>
    <rect height="2.02" style="fill: #e8e5df" transform="translate(112.94 18.63) rotate(180)" width="1.44" x="54.8" y="7.53"/>
    <rect height="3.31" style="fill: #3a393c" transform="translate(105.43 16.2) rotate(180)" width="1.99" x="50.77" y="5.67"/>
    <rect height="1.44" style="fill: #e8e5df" transform="translate(105.43 14.76) rotate(180)" width="1.44" x="51.05" y="5.89"/>
    <rect height="2.02" style="fill: #e8e5df" transform="translate(105.43 18.63) rotate(180)" width="1.44" x="51.05" y="7.53"/>
    <rect height="3.31" style="fill: #3a393c" transform="translate(97.92 16.2) rotate(180)" width="1.99" x="47.01" y="5.67"/>
    <rect height="1.44" style="fill: #e8e5df" transform="translate(97.92 14.76) rotate(180)" width="1.44" x="47.29" y="5.89"/>
    <rect height="2.02" style="fill: #e8e5df" transform="translate(97.92 18.63) rotate(180)" width="1.44" x="47.29" y="7.53"/>
    <rect height="3.31" style="fill: #3a393c" transform="translate(13.77 43.96) rotate(180)" width="1.99" x="4.94" y="19.55"/>
    <rect height="1.44" style="fill: #e8e5df" transform="translate(13.77 42.52) rotate(180)" width="1.44" x="5.21" y="19.77"/>
    <rect height="2.02" style="fill: #e8e5df" transform="translate(13.77 46.39) rotate(180)" width="1.44" x="5.21" y="21.41"/>
    <rect height="3.31" style="fill: #3a393c" transform="translate(6.45 43.96) rotate(180)" width="1.99" x="1.28" y="19.55"/>
    <rect height="1.44" style="fill: #e8e5df" transform="translate(6.45 42.52) rotate(180)" width="1.44" x="1.55" y="19.77"/>
    <rect height="2.02" style="fill: #e8e5df" transform="translate(6.45 46.39) rotate(180)" width="1.44" x="1.55" y="21.41"/>
    <rect height="3.31" style="fill: #3a393c" transform="translate(90.68 16.2) rotate(180)" width="1.99" x="43.39" y="5.67"/>
    <rect height="1.44" style="fill: #e8e5df" transform="translate(90.68 14.76) rotate(180)" width="1.44" x="43.67" y="5.89"/>
    <rect height="2.02" style="fill: #e8e5df" transform="translate(90.68 18.63) rotate(180)" width="1.44" x="43.67" y="7.53"/>
    <path d="M60.77,14.63" style="fill: none" transform="translate(1.9 1.55)"/>
  </g>
  <g data-name="Layer 5" id="Layer_5">
    <path d="M35.65,39.78a1.94,1.94,0,0,0-1-1.74A13.58,13.58,0,0,1,22.5,33.15a2.18,2.18,0,0,0-1.81.63,2.12,2.12,0,0,0-.2,2.46,14.78,14.78,0,0,0,14.12,5.22A1.94,1.94,0,0,0,35.65,39.78Z" style="fill: none" transform="translate(1.9 1.55)"/>
    <path d="M28.7,14a2,2,0,0,0,1.08,1.47,14.94,14.94,0,0,1,5.07.5,15.27,15.27,0,0,1,6.9,4.17,1.88,1.88,0,0,0,1.6-.28,1.84,1.84,0,0,0,.52-2.08,14.68,14.68,0,0,0-14-5.74A2,2,0,0,0,28.7,14Z" style="fill: none" transform="translate(1.9 1.55)"/>
    <path d="M18.79,30.15a2,2,0,0,0,2.07-1,12.85,12.85,0,0,1,4.52-11.77,2,2,0,0,0,.08-1.73,2,2,0,0,0-2.25-.91,14.69,14.69,0,0,0-6,14A2,2,0,0,0,18.79,30.15Z" style="fill: none" transform="translate(1.9 1.55)"/>
    <path d="M45.39,23.45a2,2,0,0,0-2.17,1.4,11.62,11.62,0,0,1-4.74,11.61,2,2,0,0,0,.37,1.7,2,2,0,0,0,2.12.54,14.68,14.68,0,0,0,5.76-14.14A2,2,0,0,0,45.39,23.45Z" style="fill: none" transform="translate(1.9 1.55)"/>
    <path d="M31.08,50A23.48,23.48,0,1,0,7.76,26.48,23.4,23.4,0,0,0,31.08,50Zm.71-8.35a14.88,14.88,0,0,1-11.53-5.46,2.12,2.12,0,0,1,.2-2.46,2.18,2.18,0,0,1,1.81-.63A13.58,13.58,0,0,0,34.4,37.95a1.93,1.93,0,0,1,0,3.42A14.94,14.94,0,0,1,31.79,41.61ZM26.9,19.06a11.27,11.27,0,0,1,2.29-1,11.57,11.57,0,0,1,2.33-.48,1.91,1.91,0,0,1,1.33,1.12,1.88,1.88,0,0,1-.15,1.58,1.9,1.9,0,0,1-1,.87,4.15,4.15,0,0,0-3.58,1.45,3.2,3.2,0,0,1-1.77,0,1.8,1.8,0,0,1-1.13-2,3.73,3.73,0,0,1,.46-.66A4.13,4.13,0,0,1,26.9,19.06Zm10.36,5.41A4.17,4.17,0,0,0,36.12,23a3.2,3.2,0,0,1-.06-1.77,1.8,1.8,0,0,1,2-1.15,3.73,3.73,0,0,1,.66.46,4.13,4.13,0,0,1,.9,1.16,11.27,11.27,0,0,1,1,2.28,11.57,11.57,0,0,1,.5,2.32,1.91,1.91,0,0,1-1.11,1.34,1.88,1.88,0,0,1-1.58-.13,1.9,1.9,0,0,1-.87-.94A4.18,4.18,0,0,0,37.26,24.47Zm-.65,6.19a3.2,3.2,0,0,1,.88.08,1.8,1.8,0,0,1,1.17,2,3.73,3.73,0,0,1-.45.67,4.14,4.14,0,0,1-1.15.92,11.27,11.27,0,0,1-2.27,1.07,11.57,11.57,0,0,1-2.32.52,1.91,1.91,0,0,1-1.35-1.09,1.88,1.88,0,0,1,.12-1.58,1.9,1.9,0,0,1,.93-.88,4.15,4.15,0,0,0,3.55-1.52A3.2,3.2,0,0,1,36.61,30.66Zm-4.82-.45a3.51,3.51,0,1,1,3.51-3.51A3.51,3.51,0,0,1,31.79,30.21Zm-6.45-4.37a1.9,1.9,0,0,1,.89.93,4.15,4.15,0,0,0,1.54,3.54,3.2,3.2,0,0,1,.09,1.77,1.8,1.8,0,0,1-2,1.18,3.73,3.73,0,0,1-.67-.45,4.14,4.14,0,0,1-.92-1.15A11.27,11.27,0,0,1,23.2,29.4a11.57,11.57,0,0,1-.54-2.32,1.91,1.91,0,0,1,1.08-1.36A1.88,1.88,0,0,1,25.34,25.84Zm21.36.87A14.87,14.87,0,0,1,40.75,38.6a2,2,0,0,1-2.12-.54,2,2,0,0,1-.37-1.7A11.62,11.62,0,0,0,43,24.76a2,2,0,0,1,2.17-1.4,2,2,0,0,1,1.34,1.11A14.94,14.94,0,0,1,46.7,26.71ZM31.79,11.8a14.87,14.87,0,0,1,11.87,5.91,1.84,1.84,0,0,1-.52,2.08,1.88,1.88,0,0,1-1.6.28,15.27,15.27,0,0,0-6.9-4.17,14.94,14.94,0,0,0-5.07-.5,2,2,0,0,1-1.08-1.47,2,2,0,0,1,1.18-2A14.94,14.94,0,0,1,31.79,11.8ZM23,14.7a2,2,0,0,1,2.25.91,2,2,0,0,1-.08,1.73,12.85,12.85,0,0,0-4.52,11.77A2,2,0,0,1,17,28.7a14.69,14.69,0,0,1,6-14Z" style="fill: #242424" transform="translate(1.9 1.55)"/>
    <circle cx="33.92" cy="28.34" r="3.51" style="fill: none"/>
    <path d="M32.4,32.44a1.9,1.9,0,0,0-.93.88,1.88,1.88,0,0,0-.12,1.58A1.91,1.91,0,0,0,32.7,36,11.57,11.57,0,0,0,35,35.47a11.27,11.27,0,0,0,2.27-1.07,4.14,4.14,0,0,0,1.15-.92,3.73,3.73,0,0,0,.45-.67,1.8,1.8,0,0,0-1.17-2,3.2,3.2,0,0,0-1.77.08,4.15,4.15,0,0,1-3.55,1.52Z" style="fill: none" transform="translate(1.9 1.55)"/>
    <path d="M26.83,28.93a4.18,4.18,0,0,1-.38-2.07,1.9,1.9,0,0,0-.89-.93A1.88,1.88,0,0,0,24,25.82a1.91,1.91,0,0,0-1.08,1.36,11.57,11.57,0,0,0,.54,2.32,11.27,11.27,0,0,0,1.08,2.26,4.14,4.14,0,0,0,.92,1.15,3.73,3.73,0,0,0,.67.45,1.8,1.8,0,0,0,2-1.18A3.2,3.2,0,0,0,28,30.41,4.17,4.17,0,0,1,26.83,28.93Z" style="fill: none" transform="translate(1.9 1.55)"/>
    <path d="M25.7,21.93a1.83,1.83,0,0,0,.92.78,3.2,3.2,0,0,0,1.77,0A4.15,4.15,0,0,1,32,21.21a1.9,1.9,0,0,0,1-.87,1.88,1.88,0,0,0,.15-1.58,1.91,1.91,0,0,0-1.33-1.12,11.57,11.57,0,0,0-2.33.48,11.27,11.27,0,0,0-2.29,1A4.13,4.13,0,0,0,26,20a3.73,3.73,0,0,0-.46.66A1.83,1.83,0,0,0,25.7,21.93Z" style="fill: none" transform="translate(1.9 1.55)"/>
    <path d="M37.49,24.56a4.18,4.18,0,0,1,.34,2.07,1.9,1.9,0,0,0,.87.94,1.88,1.88,0,0,0,1.58.13,1.91,1.91,0,0,0,1.11-1.34,11.57,11.57,0,0,0-.5-2.32,11.27,11.27,0,0,0-1-2.28,4.13,4.13,0,0,0-.9-1.16,3.73,3.73,0,0,0-.66-.46,1.8,1.8,0,0,0-2,1.15,3.2,3.2,0,0,0,.06,1.77A4.17,4.17,0,0,1,37.49,24.56Z" style="fill: none" transform="translate(1.9 1.55)"/>
  </g>
  <g data-name="Layer 6" id="Layer_6">
    <path d="M34.8,8.54a19.7,19.7,0,0,0-19.31,8.38" style="fill: none;stroke: #101010;stroke-linecap: round;stroke-miterlimit: 10;stroke-width: 3.6px" transform="translate(1.9 1.55)"/>
    <path d="M13.08,23.34a19.7,19.7,0,0,0,8,19.45" style="fill: none;stroke: #101010;stroke-linecap: round;stroke-miterlimit: 10;stroke-width: 3.6px" transform="translate(1.9 1.55)"/>
    <path d="M27.51,45.3a19.7,19.7,0,0,0,19.47-8" style="fill: none;stroke: #101010;stroke-linecap: round;stroke-miterlimit: 10;stroke-width: 3.6px" transform="translate(1.9 1.55)"/>
    <path d="M49.34,30.84a19.7,19.7,0,0,0-8-19.49" style="fill: none;stroke: #101010;stroke-linecap: round;stroke-miterlimit: 10;stroke-width: 3.6px" transform="translate(1.9 1.55)"/>
  </g>
  <g data-name="Layer 12" id="Layer_12">
    <path d="M9.61,53.16a1.8,1.8,0,1,1,1.8,1.8A1.8,1.8,0,0,1,9.61,53.16Z" id="path11704" style="fill: none;stroke: #e8e5df;stroke-miterlimit: 10" transform="translate(1.9 1.55)"/>
    <path d="M16.81,53.16a1.8,1.8,0,1,1,1.8,1.8A1.8,1.8,0,0,1,16.81,53.16Z" id="path11706" style="fill: none;stroke: #e8e5df;stroke-miterlimit: 10" transform="translate(1.9 1.55)"/>
    <path d="M24,53.16a1.8,1.8,0,1,1,1.8,1.8A1.8,1.8,0,0,1,24,53.16Z" id="path11708" style="fill: none;stroke: #e8e5df;stroke-miterlimit: 10" transform="translate(1.9 1.55)"/>
    <path d="M31.22,53.16A1.8,1.8,0,1,1,33,55,1.8,1.8,0,0,1,31.22,53.16Z" id="path11710" style="fill: none;stroke: #e8e5df;stroke-miterlimit: 10" transform="translate(1.9 1.55)"/>
    <path d="M38.42,53.16a1.8,1.8,0,1,1,1.8,1.8A1.8,1.8,0,0,1,38.42,53.16Z" id="path11712" style="fill: none;stroke: #e8e5df;stroke-miterlimit: 10" transform="translate(1.9 1.55)"/>
    <path d="M45.63,53.16a1.8,1.8,0,1,1,1.8,1.8A1.8,1.8,0,0,1,45.63,53.16Z" id="path11714" style="fill: none;stroke: #e8e5df;stroke-miterlimit: 10" transform="translate(1.9 1.55)"/>
    <path d="M6,55H2.4v-3.6H6Zm-3.6-1.8A1.8,1.8,0,1,1,4.2,55,1.8,1.8,0,0,1,2.4,53.16Z" id="rect11716" style="fill: none;stroke: #e8e5df;stroke-miterlimit: 10" transform="translate(1.9 1.55)"/>
  </g>
  <g id="Connectors">
    <circle cx="6.1" cy="54.7" data-cir-type="male" id="circuitoCon_BW" r="1.27" style="fill: none"/>
    <circle cx="13.31" cy="54.7" data-cir-type="male" id="circuitoCon_PW" r="1.27" style="fill: none"/>
    <circle cx="20.51" cy="54.7" data-cir-type="male" id="circuitoCon_AN" r="1.27" style="fill: none"/>
    <circle cx="27.72" cy="54.7" data-cir-type="male" id="circuitoCon_RX" r="1.27" style="fill: none"/>
    <circle cx="34.92" cy="54.7" data-cir-type="male" id="circuitoCon_TX" r="1.27" style="fill: none"/>
    <circle cx="42.12" cy="54.7" data-cir-type="male" id="circuitoCon_Vin" r="1.27" style="fill: none"/>
    <circle cx="49.33" cy="54.7" data-cir-type="male" id="circuitoCon_GND" r="1.27" style="fill: none"/>
  </g>
  <g id="text">
    <g>
      <path d="M58.31,31.46a.08.08,0,0,1,.16,0v.08a.08.08,0,0,1-.08.08h-.71v-.46c0-.06,0-.06,0-.1l.22-.19s0,0,0-.1v-.31a.07.07,0,0,1,.08-.08.07.07,0,0,1,.08.08v.39c0,.05,0,.06,0,.09l-.22.19c-.05,0-.05,0-.05.12v.22Z" style="fill: #fff" transform="translate(1.9 1.55)"/>
      <path d="M57.35,31.08h-.29a.16.16,0,0,1-.13,0,.16.16,0,0,1-.05-.14v-.34a.17.17,0,0,1,0-.12.16.16,0,0,1,.14-.05h.36a.22.22,0,0,1,.11,0l.06,0s.09,0,.09.09a.08.08,0,0,1-.08.08h-.05l0,0-.08,0H57v.38h.47v.7H57a.08.08,0,1,1,0-.16h.39Z" style="fill: #fff" transform="translate(1.9 1.55)"/>
      <path d="M56.73,31.46a.08.08,0,1,1,0,.16h-.55a.16.16,0,0,1-.16-.16v-.31a.22.22,0,0,0,0-.31v-.31a.16.16,0,0,1,.16-.16h.55a.08.08,0,1,1,0,.16h-.55v.27c0,.09,0,.12.08.12h.31a.08.08,0,1,1,0,.16h-.31s-.08,0-.08.12v.27Z" style="fill: #fff" transform="translate(1.9 1.55)"/>
    </g>
    <g>
      <path d="M12.61,43.61v.46a.08.08,0,0,1-.16,0v-.46a.08.08,0,0,1,0-.16v-.33a.08.08,0,1,1,.16,0v.33h.47v.76a.08.08,0,0,1-.16,0v-.6Z" style="fill: #fff" transform="translate(1.9 1.55)"/>
      <path d="M12.26,44.13a.08.08,0,0,1,.16,0v.08a.08.08,0,0,1-.08.08h-.71v-.46c0-.06,0-.06,0-.1l.22-.19s0,0,0-.1v-.31a.08.08,0,1,1,.16,0v.39a.09.09,0,0,1,0,.09l-.22.19c-.05,0,0,0,0,.12v.22Z" style="fill: #fff" transform="translate(1.9 1.55)"/>
      <path d="M11.3,43.21h-.55a.08.08,0,1,1,0-.16h.71v.52a.16.16,0,0,1-.18.18h-.45v.38h.55a.08.08,0,1,1,0,.16h-.53a.17.17,0,0,1-.18-.19v-.33a.17.17,0,0,1,.18-.19h.45Z" style="fill: #fff" transform="translate(1.9 1.55)"/>
    </g>
    <g>
      <path d="M5.57,43.21v.32a.08.08,0,0,1-.16,0v-.4A.07.07,0,0,1,5.49,43h.63a.08.08,0,1,1,0,.16H5.89v.93h.24a.08.08,0,1,1,0,.16h-.4V43.21Z" style="fill: #fff" transform="translate(1.9 1.55)"/>
      <path d="M4.74,44.29a.16.16,0,0,1-.16-.16v-.93A.16.16,0,0,1,4.74,43h.47a.16.16,0,0,1,.16.16v.93a.16.16,0,0,1-.16.16Zm0-1.09v.93h.47v-.93Z" style="fill: #fff" transform="translate(1.9 1.55)"/>
      <path d="M4,43.61v.46a.08.08,0,0,1-.16,0v-.46a.08.08,0,0,1,0-.16v-.33a.08.08,0,1,1,.16,0v.33h.47v.76a.08.08,0,0,1-.16,0v-.6Z" style="fill: #fff" transform="translate(1.9 1.55)"/>
    </g>
    <g>
      <path d="M5.57,39.74v.32a.08.08,0,0,1-.16,0v-.4a.07.07,0,0,1,.08-.08h.63a.08.08,0,1,1,0,.16H5.89v.93h.24a.08.08,0,1,1,0,.16h-.4V39.74Z" style="fill: #fff" transform="translate(1.9 1.55)"/>
      <path d="M4.74,40.83a.16.16,0,0,1-.16-.16v-.93a.16.16,0,0,1,.16-.16h.47a.16.16,0,0,1,.16.16v.93a.16.16,0,0,1-.16.16Zm0-1.09v.93h.47v-.93Z" style="fill: #fff" transform="translate(1.9 1.55)"/>
      <path d="M4.49,40.66a.08.08,0,1,1,0,.16H3.94a.16.16,0,0,1-.16-.16v-.31a.22.22,0,0,0,0-.31v-.31a.16.16,0,0,1,.16-.16h.55a.08.08,0,1,1,0,.16H3.94V40c0,.09,0,.12.08.12h.31a.08.08,0,1,1,0,.16H4s-.08,0-.08.12v.27Z" style="fill: #fff" transform="translate(1.9 1.55)"/>
    </g>
    <g>
      <path d="M5.79,30a.14.14,0,0,1,0-.28H7V31.9H5.79a.14.14,0,1,1,0-.28h1v-.67H6.34a.14.14,0,1,1,0-.28h.41V30Z" style="fill: #c7b299" transform="translate(1.9 1.55)"/>
      <path d="M4,31.9H3.63v-2a.12.12,0,0,1,.14-.14.12.12,0,0,1,.14.14v1.66h0l.27-.4v0c0-.09,0-.17.14-.17s.14.08.14.17v0l.27.4h0V29.85a.14.14,0,1,1,.28,0v2H4.67l-.34-.49Z" style="fill: #c7b299" transform="translate(1.9 1.55)"/>
    </g>
    <g>
      <path d="M5.33,26.45a.14.14,0,1,1,0,.28H4.78v-.55a.42.42,0,0,1,.45-.44h.48a.43.43,0,0,1,.32.11.41.41,0,0,1,.13.35v.7a.57.57,0,0,1-.15.41l-.33.42a.43.43,0,0,1-.39.19H4.92a.14.14,0,1,1,0-.28h.34c.15,0,.14,0,.24-.12l.31-.39a.53.53,0,0,0,.09-.37v-.55c0-.15,0-.2-.19-.2H5.24c-.1,0-.19,0-.19.15v.29Z" style="fill: #c7b299" transform="translate(1.9 1.55)"/>
      <path d="M3.18,26.73v.81a.14.14,0,0,1-.28,0v-.81a.14.14,0,0,1,0-.28v-.57A.12.12,0,0,1,3,25.74a.12.12,0,0,1,.14.14v.57H4v1.33a.14.14,0,1,1-.28,0v-1Z" style="fill: #c7b299" transform="translate(1.9 1.55)"/>
      <path d="M6.48,25.32v.28h-4v-.28Z" style="fill: #c7b299" transform="translate(1.9 1.55)"/>
    </g>
    <g>
      <path d="M48.34,3.34v.27a.07.07,0,0,1-.14,0V3.27a.06.06,0,0,1,.07-.07h.54a.07.07,0,1,1,0,.14h-.2v.79h.2a.06.06,0,0,1,.07.07.06.06,0,0,1-.07.07h-.33V3.34Z" style="fill: #fff" transform="translate(1.9 1.55)"/>
      <path d="M48.1,4.12a.06.06,0,0,1,.07.07.06.06,0,0,1-.07.07h-.47a.13.13,0,0,1-.14-.14V3.86a.16.16,0,0,1,.05-.13.16.16,0,0,1-.05-.13V3.34a.13.13,0,0,1,.14-.14h.47a.07.07,0,0,1,0,.14h-.47v.23c0,.08,0,.1.07.1H48a.06.06,0,0,1,.07.07A.06.06,0,0,1,48,3.8H47.7s-.07,0-.07.1v.23Z" style="fill: #fff" transform="translate(1.9 1.55)"/>
      <path d="M47.27,3.34H46.8a.07.07,0,0,1,0-.14h.6v.44a.14.14,0,0,1-.15.15h-.38v.33h.47a.06.06,0,0,1,.07.07.06.06,0,0,1-.07.07h-.45a.14.14,0,0,1-.15-.16V3.82a.14.14,0,0,1,.15-.16h.38Z" style="fill: #fff" transform="translate(1.9 1.55)"/>
    </g>
    <path d="M46.78,48.34a.33.33,0,0,1-.09-.21.29.29,0,0,1,.32-.29h.56a.38.38,0,0,1,.26.08.32.32,0,0,1,.12.24.14.14,0,0,1-.14.15.12.12,0,0,1-.12-.13c0-.08,0-.09-.11-.09H47s-.08,0-.08,0,0,.06,0,.07l.88,1.13a.31.31,0,0,1,.08.21.29.29,0,0,1-.14.25.34.34,0,0,1-.21,0h-.54a.36.36,0,0,1-.25-.08.35.35,0,0,1-.12-.24.13.13,0,0,1,.13-.15.11.11,0,0,1,.12.12c0,.09,0,.1.12.1h.54s.09,0,.09,0,0-.05,0-.07Z" style="fill: #62bc5d" transform="translate(1.9 1.55)"/>
    <path d="M46.94,47v.41a.13.13,0,0,1-.26,0V47a.25.25,0,0,1,0-.1l.49-1.25c0-.06,0-.11.13-.11s.1,0,.13.11l.49,1.25a.25.25,0,0,1,0,.1v.41a.13.13,0,1,1-.26,0V47l-.38-1Z" style="fill: #62bc5d" transform="translate(1.9 1.55)"/>
  </g>
</svg>