<?xml version="1.0" ?><svg data-name="Layer 13" height="16.64mm" id="Layer_13" viewBox="0 0 50.09 47.17" width="17.67mm" xmlns="http://www.w3.org/2000/svg">
  <title>RGB Light Sensor - ISL29125</title>
  <g id="Background">
    <path d="M49.94,0H1.66a.9.9,0,0,0-.9.9v45a.9.9,0,0,0,.9.9H49.94a.9.9,0,0,0,.9-.9V.9A.9.9,0,0,0,49.94,0ZM11.42,44.64a1.43,1.43,0,1,1,1.43-1.43A1.43,1.43,0,0,1,11.42,44.64ZM8,12.76a5.2,5.2,0,1,1,5.2-5.2A5.2,5.2,0,0,1,8,12.76ZM18.62,44.64a1.43,1.43,0,1,1,1.43-1.43A1.43,1.43,0,0,1,18.62,44.64Zm7.2,0a1.43,1.43,0,1,1,1.43-1.43A1.43,1.43,0,0,1,25.82,44.64Zm7.2,0a1.43,1.43,0,1,1,1.43-1.43A1.43,1.43,0,0,1,33,44.64Zm7.14,0a1.43,1.43,0,1,1,1.43-1.43A1.43,1.43,0,0,1,40.16,44.64ZM44,12.76a5.2,5.2,0,1,1,5.2-5.2A5.2,5.2,0,0,1,44,12.76Z" style="fill: #8a231e" transform="translate(-0.76)"/>
  </g>
  <g data-name="Light Red Circuits Major" id="Light_Red_Circuits_Major">
    <path d="M2.52,10.7a6.42,6.42,0,0,0,6.53,3,6.43,6.43,0,0,0,5.26-5.38,7,7,0,0,0-2.65-6.62l20-.17.25.35a2.13,2.13,0,0,0-1,2.67,2.4,2.4,0,0,0,.84,1.2,2.43,2.43,0,0,0,1.66.47,2.32,2.32,0,0,0,2-2.6,1.91,1.91,0,0,0-.38-1.07,1.88,1.88,0,0,0-.66-.55l.22-.48H40.4V2A6.59,6.59,0,0,0,38,9.71a6.28,6.28,0,0,0,2.75,3.48,6.39,6.39,0,0,0,5.08.52,7.75,7.75,0,0,0,3.57-2.66l.47.31-.21,10.27a.73.73,0,0,1-.49.08.78.78,0,0,1-.58-.62,1.9,1.9,0,0,0,.51-1.28,1.87,1.87,0,0,0-.38-1.1,2,2,0,0,0-2.46-1.12l-.57-.36-.52,0a1.14,1.14,0,0,0-.48-1l-4-.16-.37.4-.52-.32L38.93,16a1.53,1.53,0,0,1-.92-.42,1.47,1.47,0,0,1-.35-.56,2.86,2.86,0,0,0,.16-2,2.59,2.59,0,0,0-.41-.79,2.38,2.38,0,0,0-3.6,0,2.6,2.6,0,0,0-.29,2.73l-.14.38a2.82,2.82,0,0,0-2.29,1.09,2.9,2.9,0,0,0-.41,1.88L29.44,19.3l-2.8-.09-.54.36-.54-.43-1.46-.06a.62.62,0,0,0-.18-.47.61.61,0,0,0-.43-.16.58.58,0,0,0-.36.18.63.63,0,0,0-.13.56l-.4,0A2.61,2.61,0,0,0,20,18.16a2.52,2.52,0,0,0-1.27.69,2.6,2.6,0,0,0-.71,1.81A2.52,2.52,0,0,0,19,22.23a2.45,2.45,0,0,0,1.23.47,1.56,1.56,0,0,0,.81,0,1.53,1.53,0,0,0,.48-.23.37.37,0,0,1,.47.13l.72.39a.18.18,0,0,0,0,.08.18.18,0,0,0,0,.07.34.34,0,0,0,.13.13.34.34,0,0,0-.12.12.34.34,0,0,0,0,.11l-.48-.07a1.11,1.11,0,0,0-.14.29,1.15,1.15,0,0,0,0,.61.84.84,0,0,0,.34.39.79.79,0,0,0,.26.09h3.61l.48-.35,2.16.08a.88.88,0,0,1,.4.4l0,2.48-4.71,5-.11,7-2.23,2.77-2.66-2.53.2-9.46-2.37-2.37h-.75l-.29-.56-.42-.59-3.92,0-.45.35-.42-.27a1.22,1.22,0,0,1-.94-.41,1.66,1.66,0,0,1,.17-.28l.15-.17.8,0,.33-.39.37.27,1.17,0,.18-.45.52,0h.61l.07.37,1.12,0a.93.93,0,0,0,.52-.73c.06-.38-.06-.68-.25-.75a.31.31,0,0,0-.21,0l0-1.36h.45v-.95a.79.79,0,0,0-.33-.38.77.77,0,0,0-.32-.1l-.48-.07c-.45,0-.53,0-.58,0s-.1.43-.08.52h-.68l-.5-.55H12.13l-.47.35-.56-.44h-.22a.67.67,0,0,1-.33-.09.5.5,0,0,1-.18-.33.47.47,0,0,1,.22-.33,1.23,1.23,0,0,1,.38-.05l.27,0,.5-.4.51.29h.91l.21-.43h1.24l.11.32,1.07.06a.81.81,0,0,0,.34-.39,1.1,1.1,0,0,0,0-1,.33.33,0,0,0-.32-.09V17.51l.39,0a2.19,2.19,0,0,0,.08-1,1,1,0,0,0-.31-.3,1,1,0,0,0-.25-.11,2.6,2.6,0,0,0-1.06.08.32.32,0,0,0-.13.18.31.31,0,0,0,0,.15l-1.23,0,0-.49h-1l-.63.35L11,15.85l-3.91,0-.48.53,0,3.49.51.55a.59.59,0,0,0,.28.08c.11,0,.14,0,.25,0a.42.42,0,0,1,.25.11A.41.41,0,0,1,8,20.9a.46.46,0,0,1-.19.27.47.47,0,0,1-.38.05l-.38.06a.56.56,0,0,1-.26.18,1.58,1.58,0,0,1-.94-.28l-1.39.15a2.23,2.23,0,0,0-1.58,1.22,2.13,2.13,0,0,0,.25,2.14A5.46,5.46,0,0,0,4.71,25.9l1.65-.15a.55.55,0,0,1,.82,0,.67.67,0,0,1,.52.15.64.64,0,0,1,.2.35.49.49,0,0,1-.09.28.55.55,0,0,1-.54.2.77.77,0,0,0-.45.27.79.79,0,0,0-.14.65l0,3a1,1,0,0,0,.62.69H11l.48-.38.49.36,4,0,.74-.74.78,1-.17,8.69a1,1,0,0,0-.68,0,1,1,0,0,0-.43.31l-1.33,2a4.34,4.34,0,0,0-2.05-2.34L12.2,40l0,.33H10.86l0-.27A2.84,2.84,0,0,0,8.32,42a2,2,0,0,0,.16.59l0,1.26a.82.82,0,0,0-.19.39L8.14,45.6H5.87l-.2-.35a2.71,2.71,0,0,0,.85-2.66A2.49,2.49,0,0,0,3.68,41a2.46,2.46,0,0,0-1.39,1l-.36-.35.33-30.74Z" style="fill: #cf2f27" transform="translate(-0.76)"/>
    <path d="M34.92,27a.51.51,0,0,0-.34.15.51.51,0,0,0-.14.28.41.41,0,0,0,0,.31.43.43,0,0,0,.32.22.75.75,0,0,0,.31,0,.54.54,0,0,0,.26-.2.51.51,0,0,0,0-.52l.57-.44H39.6l.59.39.56-.39,3.72,0,.65.54L45,31l-.52.29.24.74a2.13,2.13,0,0,1,1.06.54,2.24,2.24,0,0,1,.66,1.62,2.51,2.51,0,0,1-.13.83,2.61,2.61,0,0,1-.91,1.24,2.07,2.07,0,0,1,.88,2.54,2.53,2.53,0,0,1-1.55,1.43,2.57,2.57,0,0,1-2.27-.48,10.2,10.2,0,0,1-2.79-2.29l-8.19,0a2.58,2.58,0,0,1-.93.79,2.62,2.62,0,0,1-1.56.24,2.42,2.42,0,0,1-2.11-1.35v3a3.31,3.31,0,0,1,1,.46,3.54,3.54,0,0,1,1.34,1.87l1.66-1.88a3.84,3.84,0,0,1,1.77-.6,3.91,3.91,0,0,1,2.42.63l1.55,1.69A3.65,3.65,0,0,1,38.51,40a4.46,4.46,0,0,1,3,0,5.76,5.76,0,0,1,2,1.72v4l6,.06.27-19.75-.42-.35a2.37,2.37,0,0,1-1.89.35,3.81,3.81,0,0,1-1.48-1.16h-.75L44.64,26l-4,.09-.44-.34-.6.31H36.41a.39.39,0,0,0-.35-.39,1.8,1.8,0,0,0-.91.48Z" style="fill: #cf2f27" transform="translate(-0.76)"/>
    <path d="M27.38,34.67a2.4,2.4,0,0,1,.85-.65,2.43,2.43,0,0,1,1.42-.18,2.82,2.82,0,0,1,1.85,1.25l9,.06L42,36.5a.41.41,0,0,0,.34,0,.47.47,0,0,0,.1-.61l-.61-.6,0-1.8-.31-.37-.16-1.66-.75-.07-.2-.27a.29.29,0,0,0-.16-.06.3.3,0,0,0-.2.05l-.16.26-4.21-.08-.39-.55-.05-.42-5.41-.08-2.92,3v1.1Z" style="fill: #cf2f27" transform="translate(-0.76)"/>
    <polygon points="46.41 1.57 49.13 1.57 49.13 4.37 46.41 1.57" style="fill: #cf2f27"/>
    <polygon points="4.3 1.57 1.58 1.57 1.58 4.37 4.3 1.57" style="fill: #cf2f27"/>
    <polygon points="1.33 44.64 1.48 45.58 2.44 45.42 1.33 44.64" style="fill: #cf2f27"/>
  </g>
  <g id="Conectori">
    <path d="M36.21,27.55v3.16h8.08V27.55Zm6.32,2.86h-4.2V28h4.2Z" style="fill: #ddd8cf" transform="translate(-0.76)"/>
    <path d="M38.15,30.45l4.38,0V28H38.18ZM39,28.23H41.5v2.1H39Z" style="fill: #b6ab9c" transform="translate(-0.76)"/>
    <rect height="2.1" style="fill: #3e2e2d" width="2.56" x="38.2" y="28.23"/>
    <path d="M7.45,27.33v3.16h8.08V27.33Zm6.32,2.86H9.56V27.82h4.2Z" style="fill: #ddd8cf" transform="translate(-0.76)"/>
    <path d="M9.39,30.27h4.38V27.82H9.39ZM10.21,28h2.55v2.11H10.21Z" style="fill: #b6ab9c" transform="translate(-0.76)"/>
    <path d="M12.78,28H10.19v2.12h2.56Z" style="fill: #3e2e2d" transform="translate(-0.76)"/>
    <path d="M7.45,22.13v3.16a13.6,13.6,0,0,0,2.7.05c.55,0,.79-.1,1.43-.12.8,0,1.14.05,2,.09a19.06,19.06,0,0,0,2,0V22.13a4.74,4.74,0,0,0-2-.15,9.53,9.53,0,0,1-1.74.3,5,5,0,0,1-1.19-.15A8.57,8.57,0,0,0,7.45,22.13ZM13.76,25H9.56V22.62h4.2Z" style="fill: #ddd8cf" transform="translate(-0.76)"/>
    <path d="M9.39,25.07h4.38V22.58H9.39Zm.82-2.3h2.55v2.15H10.21Z" style="fill: #b6ab9c" transform="translate(-0.76)"/>
    <rect height="2.15" style="fill: #917050" width="2.56" x="9.44" y="22.76"/>
    <path d="M7.51,16.73v3.16a10.47,10.47,0,0,0,2.6.08c.37,0,.7-.09,1.29-.11a13.83,13.83,0,0,1,1.65.06,15.75,15.75,0,0,0,2.54,0V16.73a5.1,5.1,0,0,0-2.83-.08,3.55,3.55,0,0,1-1.18.21,3.48,3.48,0,0,1-1.08-.18A6,6,0,0,0,7.51,16.73Zm6.32,2.86H9.62V17.22h4.2Z" style="fill: #ddd8cf" transform="translate(-0.76)"/>
    <path d="M9.45,19.67h4.41V17.22H9.45Zm.83-2.27h2.57v2.11H10.28Z" style="fill: #b6ab9c" transform="translate(-0.76)"/>
    <rect height="2.14" style="fill: #917050" width="2.61" x="9.51" y="17.38"/>
    <path d="M36.18,22.13v3.16h8.08V22.13ZM42.5,25h-4.2V22.62h4.2Z" style="fill: #ddd8cf" transform="translate(-0.76)"/>
    <path d="M38.12,25.07l4.37,0,0-2.45-4.37,0Zm.81-2.26h2.52v2.1H38.93Z" style="fill: #b6ab9c" transform="translate(-0.76)"/>
    <rect height="2.1" style="fill: #3e2e2d" width="2.52" x="38.18" y="22.81"/>
    <path d="M36.18,16.74V19.9h8.08V16.74Zm6.32,2.86h-4.2V17.22h4.2Z" style="fill: #ddd8cf" transform="translate(-0.76)"/>
    <path d="M38.12,19.67h4.4l0-2.44H38.14Zm.81-2.26h2.52v2.1H38.93Z" style="fill: #b6ab9c" transform="translate(-0.76)"/>
    <rect height="2.1" style="fill: #3e2e2d" width="2.52" x="38.18" y="17.42"/>
    <rect height="3.36" style="fill: #4a2f21" width="2.44" x="23.95" y="20.19"/>
    <path d="M38,28.21" style="fill: #b6ab9c" transform="translate(-0.76)"/>
    <path d="M43.29,25.34" style="fill: #b6ab9c" transform="translate(-0.76)"/>
  </g>
  <g data-name="Main Board White Lines" id="Main_Board_White_Lines">
    <rect height="4.64" style="fill: none;stroke: #fff;stroke-miterlimit: 10;stroke-width: 0.100000001490116px" width="4.55" x="22.92" y="19.6"/>
  </g>
  <g data-name="connectors to the main board" id="connectors_to_the_main_board">
    <path d="M25.4,20.19a.68.68,0,0,0-.09-.19l-.09-.1,0-.33a.88.88,0,0,0-.53,0l0,.24a1,1,0,0,1-.18.09,1,1,0,0,1-.22.05l-.56.08-.77,0a.18.18,0,0,0-.17.15.19.19,0,0,0,.11.18h.75v.11h-.69l-.08,0a.19.19,0,0,0-.05.07.12.12,0,0,0,0,.17l.06,0h1.22a.68.68,0,0,0,.14.12l.11.06h.4v-.8Z" style="fill: #dcc8ad" transform="translate(-0.76)"/>
    <path d="M26.47,20.19a.68.68,0,0,1,.09-.19l.09-.1,0-.33a.88.88,0,0,1,.53,0l0,.24a1,1,0,0,0,.18.09,1,1,0,0,0,.22.05l.56.08.77,0a.18.18,0,0,1,.17.15.19.19,0,0,1-.11.18h-.75v.11H29l.08,0a.26.26,0,0,1,.06.07.14.14,0,0,1,0,.17l-.06,0H27.81a.68.68,0,0,1-.14.12l-.11.06h-.4v-.8Z" style="fill: #dcc8ad" transform="translate(-0.76)"/>
    <path d="M25.38,23.55a.64.64,0,0,0-.09.19.64.64,0,0,0,0,.1l.05.33a1.3,1.3,0,0,1-.68,0l0-.31-.21-.06-.33-.07a3.1,3.1,0,0,0-.46,0l-.77,0a.18.18,0,0,1-.17-.15.19.19,0,0,1,.11-.18h.75v-.11h-.69l-.08,0a.22.22,0,0,1-.06-.07.13.13,0,0,1,0-.17l.06,0H24a.68.68,0,0,1,.14-.12l.11-.06h.4v.8Z" style="fill: #dcc8ad" transform="translate(-0.76)"/>
    <path d="M26.48,23.55a.68.68,0,0,1,.09.19.68.68,0,0,1,0,.11v.31a1,1,0,0,0,.28,0l.15,0,.09-.3a1.35,1.35,0,0,1,.31-.06c.34,0,.54.09.76,0,.06,0,0,0,.09-.07s.47,0,.69,0a.2.2,0,0,0,.11,0,.19.19,0,0,0,.07-.11.19.19,0,0,0-.11-.18h-.75v-.11H29l.08,0,.05,0a.16.16,0,0,0,0-.12.15.15,0,0,0,0-.08l-.06,0H27.81a.68.68,0,0,0-.14-.12l-.11-.06h-.4v.8Z" style="fill: #dcc8ad" transform="translate(-0.76)"/>
    <path d="M27.15,21.43l1.1,0,0,.13h.48a.1.1,0,0,1,.06,0,.11.11,0,0,1,0,.11l0,0H28.3v.15h.46a.1.1,0,0,1,.08,0,.09.09,0,0,1,0,.06.13.13,0,0,1,0,.1.14.14,0,0,1-.1,0h-.45l0,.2-1.11,0Z" style="fill: #dcc8ad" transform="translate(-0.76)"/>
    <path d="M24.69,21.37l-1.1,0,0,.13h-.48a.1.1,0,0,0-.06,0,.09.09,0,0,0,0,.15h.51v.15h-.46a.1.1,0,0,0-.08,0A.09.09,0,0,0,23,22a.13.13,0,0,0,0,.1.14.14,0,0,0,.1,0h.45l0,.2,1.11,0Z" style="fill: #dcc8ad" transform="translate(-0.76)"/>
  </g>
  <g data-name="Main connector details" id="Main_connector_details">
    <path d="M25.23,21.21v1.67h1.41V21.21Zm1.31.82v.28h-.33v.33h-.56v-.38h-.33v-.56h.33v-.33h.56v.38h.33Z" style="fill: #653a28" transform="translate(-0.76)"/>
    <polygon points="25.45 21.75 25.45 21.71 25.17 21.71 24.89 21.71 24.89 21.99 24.89 22.27 24.89 22.32 25.17 22.32 25.45 22.32 25.45 22.04 25.45 21.75" style="fill: #503344"/>
    <rect height="0.33" style="fill: #382230" width="0.28" x="25.17" y="21.38"/>
    <rect height="0.33" style="fill: red" width="0.28" x="24.89" y="21.38"/>
    <rect height="0.33" style="fill: #382230" width="0.28" x="24.89" y="22.32"/>
    <rect height="0.33" style="fill: red" width="0.28" x="25.17" y="22.32"/>
    <rect height="0.28" style="fill: #382230" width="0.33" x="24.56" y="21.71"/>
    <rect height="0.28" style="fill: red" width="0.33" x="24.56" y="21.99"/>
    <rect height="0.28" style="fill: #382230" width="0.33" x="25.45" y="22.04"/>
    <rect height="0.28" style="fill: red" width="0.33" x="25.45" y="21.75"/>
    <ellipse cx="26.08" cy="22.74" rx="0.15" ry="0.2" style="fill: #eaca86"/>
    <ellipse cx="26.91" cy="21.93" rx="0.13" ry="0.17" style="fill: #eaca86"/>
    <ellipse cx="26.96" cy="20.48" rx="0.17" ry="0.18" style="fill: #eaca86"/>
    <ellipse cx="26.08" cy="20.46" rx="0.15" ry="0.2" style="fill: #eaca86"/>
    <ellipse cx="24.27" cy="20.48" rx="0.16" ry="0.18" style="fill: #eaca86"/>
    <ellipse cx="24.27" cy="23.31" rx="0.16" ry="0.19" style="fill: #eaca86"/>
    <ellipse cx="26.08" cy="23.28" rx="0.15" ry="0.22" style="fill: #eaca86"/>
    <ellipse cx="26.91" cy="23.35" rx="0.13" ry="0.15" style="fill: #eaca86"/>
    <circle cx="23.44" cy="20.48" r="0.18" style="fill: #eaca86"/>
    <ellipse cx="23.56" cy="23.31" rx="0.16" ry="0.19" style="fill: #eaca86"/>
    <path d="M24.94,20.45l-.62,0" style="fill: #ebca86;stroke: #ebca86;stroke-miterlimit: 10;stroke-width: 0.050000000745058px" transform="translate(-0.76)"/>
    <line style="fill: none;stroke: #ebca86;stroke-miterlimit: 10;stroke-width: 0.050000000745058px" x1="26.19" x2="26.88" y1="20.41" y2="20.45"/>
    <line style="fill: none;stroke: #ebca86;stroke-miterlimit: 10;stroke-width: 0.050000000745058px" x1="26.91" x2="26.13" y1="21.96" y2="22.68"/>
    <line style="fill: none;stroke: #ebca86;stroke-miterlimit: 10;stroke-width: 0.050000000745058px" x1="26.11" x2="26.96" y1="23.28" y2="23.34"/>
    <line style="fill: none;stroke: #ebca86;stroke-miterlimit: 10;stroke-width: 0.050000000745058px" x1="24.31" x2="23.56" y1="23.28" y2="23.28"/>
  </g>
  <g data-name="Light Red Circuits Minor" id="Light_Red_Circuits_Minor">
    <path d="M22.73,20.23H22a1.68,1.68,0,0,0-.57-.89,1.53,1.53,0,0,0-1-.36,1.39,1.39,0,0,0-1.22,2.14,1.54,1.54,0,0,0,1.14.66A1.62,1.62,0,0,0,22,20.62l.76,0a.28.28,0,0,1,.19-.21.36.36,0,0,1-.14-.12A.36.36,0,0,1,22.73,20.23Z" style="fill: #cf2f27" transform="translate(-0.76)"/>
    <path d="M29.14,20.2H30l1.72-1.75A1.92,1.92,0,0,1,32,16.59a1.48,1.48,0,0,1,.93-.45,1.51,1.51,0,0,1,1.15.42,1.87,1.87,0,0,1,.16,1.84,1.59,1.59,0,0,1-2.13.45l-1.87,1.82H29.14a.3.3,0,0,0-.06-.13.3.3,0,0,0-.15-.1.26.26,0,0,0,.21-.23Z" style="fill: #cf2f27" transform="translate(-0.76)"/>
    <path d="M32.07,20.41l.39-.51,1.26,0a.31.31,0,0,1,.49.36,1.14,1.14,0,0,1-.48.49l-1.41,0Z" style="fill: #cf2f27" transform="translate(-0.76)"/>
    <path d="M28.84,21.62h5.3l2-2v.28h.46l-2.28,2.26-5.53,0a.16.16,0,0,0,0-.11.17.17,0,0,0-.13-.14l.07,0a.18.18,0,0,0,0-.07A.17.17,0,0,0,28.84,21.62Z" style="fill: #cf2f27" transform="translate(-0.76)"/>
    <path d="M36.88,21.08a.44.44,0,0,1,.28-.42H39.9l.29-.41.49.41,3.58.06a.49.49,0,0,1,.44.38.36.36,0,0,1-.13.26.37.37,0,0,1-.31.06H40.63l-.35.38-.48-.38H37.1a.27.27,0,0,1-.14-.06A.32.32,0,0,1,36.88,21.08Z" style="fill: #cf2f27" transform="translate(-0.76)"/>
    <path d="M35.95,23.46H34.69l-.78.81a1.69,1.69,0,0,0-1.52,0,1.58,1.58,0,0,0-.71.83,1.44,1.44,0,0,0,1.39,1.78A1.55,1.55,0,0,0,34.22,26a1.53,1.53,0,0,0-.07-1.33l.69-.7h1.11Z" style="fill: #cf2f27" transform="translate(-0.76)"/>
    <path d="M44.48,23.5h2.14a1.54,1.54,0,0,1,1.24-1.12,1.38,1.38,0,0,1,1.56,1.36,1.4,1.4,0,0,1-.27.84,1.42,1.42,0,0,1-.89.54,1.66,1.66,0,0,1-1.71-1.16l-2.06,0Z" style="fill: #cf2f27" transform="translate(-0.76)"/>
    <path d="M44.51,18.62a1,1,0,0,1,.58,0,.94.94,0,0,1,.35.24A1.77,1.77,0,0,0,46,21.15a1.36,1.36,0,0,0,2-1.08,1.48,1.48,0,0,0-.61-1.54,1.43,1.43,0,0,0-1.52.09l-.5-.48-.83,0Z" style="fill: #cf2f27" transform="translate(-0.76)"/>
    <path d="M49.88,20.41" style="fill: none" transform="translate(-0.76)"/>
    <path d="M37.42,16.57H38l-.06-.24-1.52-1.46a1.53,1.53,0,0,0,.53-1,1.51,1.51,0,0,0-.19-.91,1.41,1.41,0,0,0-.75-.61,1.53,1.53,0,0,0-1.37.29,1.47,1.47,0,0,0-.38.79,1.52,1.52,0,0,0,.3,1.11,1.72,1.72,0,0,0,1.49.51Z" style="fill: #cf2f27" transform="translate(-0.76)"/>
    <path d="M42.89,30.88v1.7l.39.29a1.58,1.58,0,0,1,1.29,0,1.47,1.47,0,0,1,.62.56,1.93,1.93,0,0,1-.09,1.67,1.32,1.32,0,0,1-1.82.28,1.72,1.72,0,0,1-.47-.71,1.79,1.79,0,0,1,.07-1.28l-.58-.6V30.85Z" style="fill: #cf2f27" transform="translate(-0.76)"/>
    <path d="M42.53,37.78a1.69,1.69,0,0,1,.64-.79,1.66,1.66,0,0,1,.75-.26,1.44,1.44,0,0,1,1.16,2.37,1.55,1.55,0,0,1-1,.55,1.83,1.83,0,0,1-1.2-.61,1.73,1.73,0,0,1-.36-.72l-1.08-.13-1.38-1.62-9.27-.14a1.53,1.53,0,0,1-1.51,1.25,1.49,1.49,0,0,1-1.11-.6,1.51,1.51,0,0,1,.31-2,1.41,1.41,0,0,1,.95-.28A1.61,1.61,0,0,1,30.88,36l9.61.08,1.34,1.67Z" style="fill: #cf2f27" transform="translate(-0.76)"/>
    <path d="M7.27,23.34H7a1.73,1.73,0,0,0-1.35-1.25,1.45,1.45,0,0,0-1.55,1.22,1.5,1.5,0,0,0,.16.91,1.58,1.58,0,0,0,1,.76,1.68,1.68,0,0,0,.82-.21,1.74,1.74,0,0,0,.78-1h.38Z" style="fill: #cf2f27" transform="translate(-0.76)"/>
    <polygon points="15.01 29.3 16.08 29.3 17.59 30.92 17.62 40.37 18.17 40.37 18.17 30.79 16.21 28.71 15.01 28.71 15.01 29.3" style="fill: #cf2f27"/>
    <path d="M25.52,40.37h.58L26,32.86l3.46-3.49h6.34v-.59l-5.64-.12.51-.45,0-4-1.19-1.18h-.43a.19.19,0,0,1,0,.07.25.25,0,0,1-.16.15.24.24,0,0,1,.12.09.25.25,0,0,1,0,.17l.3,0,.87.87v3.43l-4.76,4.76Z" style="fill: #cf2f27" transform="translate(-0.76)"/>
    <path d="M45.12,22.13a.43.43,0,0,1,.15-.25.44.44,0,0,1,.35-.08.43.43,0,0,1,.29.15.42.42,0,0,1,.09.24.42.42,0,0,1-.14.32.43.43,0,0,1-.36.09.46.46,0,0,1-.31-.18A.45.45,0,0,1,45.12,22.13Z" style="fill: #cf2f27" transform="translate(-0.76)"/>
  </g>
  <g data-name="Mini conectori" id="Mini_conectori">
    <rect height="1.39" style="fill: #fff" width="0.24" x="14.83" y="17.5"/>
    <rect height="0.14" style="fill: #fff" width="1.28" x="12.6" y="19.95"/>
    <rect height="0.16" style="fill: #fff" width="1.27" x="12.56" y="16.38"/>
    <rect height="1.42" style="fill: #fff" width="0.25" x="14.77" y="22.89"/>
    <rect height="0.16" style="fill: #fff" width="0.7" x="12.95" y="21.79"/>
    <rect height="0.16" style="fill: #fff" width="1.25" x="12.59" y="25.3"/>
    <rect height="0.67" style="fill: #fff" width="0.24" x="14.77" y="28.66"/>
    <rect height="0.17" style="fill: #fff" width="0.55" x="17.62" y="40.37"/>
    <rect height="0.27" style="fill: #fff" width="1.34" x="10.06" y="40.37"/>
    <rect height="0.17" style="fill: #fff" width="0.58" x="24.76" y="40.37"/>
    <rect height="0.83" style="fill: #fff" width="0.36" x="35.09" y="28.63"/>
    <rect height="0.74" style="fill: #fff" width="0.23" x="35.19" y="23.33"/>
    <rect height="0.62" style="fill: #fff" width="0.25" x="43.5" y="18.06"/>
    <rect height="0.17" style="fill: #fff" width="0.59" x="36.67" y="16.57"/>
    <rect height="0.11" style="fill: #fff" width="0.63" x="27.54" y="23.24"/>
    <rect height="0.11" style="fill: #fff" width="0.75" x="22.07" y="23.24"/>
    <rect height="0.11" style="fill: #fff" width="0.74" x="22.08" y="20.38"/>
    <rect height="0.11" style="fill: #fff" width="0.7" x="27.53" y="20.38"/>
    <rect height="0.5" style="fill: #fff" width="0.18" x="6.51" y="23.34"/>
    <rect height="0.45" style="fill: #fff" width="0.25" x="43.5" y="23.46"/>
    <rect height="0.16" style="fill: #fff" width="0.58" x="41.55" y="30.71"/>
    <rect height="0.25" style="fill: #fff" width="0.61" x="24.76" y="40.37"/>
    <rect height="0.23" style="fill: #fff" width="0.55" x="17.62" y="40.37"/>
  </g>
  <g id="Gauri">
    <path d="M40.14,40.6a2.68,2.68,0,1,0,2.68,2.68A2.68,2.68,0,0,0,40.14,40.6Zm0,4a1.43,1.43,0,1,1,1.43-1.43A1.43,1.43,0,0,1,40.16,44.64Z" style="fill: #e8e5df" transform="translate(-0.76)"/>
    <path d="M33,40.6a2.68,2.68,0,1,0,2.68,2.68A2.68,2.68,0,0,0,33,40.6Zm0,4a1.43,1.43,0,1,1,1.43-1.43A1.43,1.43,0,0,1,33,44.64Z" style="fill: #e8e5df" transform="translate(-0.76)"/>
    <path d="M25.8,40.6a2.68,2.68,0,1,0,2.68,2.68A2.68,2.68,0,0,0,25.8,40.6Zm0,4a1.43,1.43,0,1,1,1.43-1.43A1.43,1.43,0,0,1,25.82,44.64Z" style="fill: #e8e5df" transform="translate(-0.76)"/>
    <path d="M18.6,40.6a2.68,2.68,0,1,0,2.68,2.68A2.68,2.68,0,0,0,18.6,40.6Zm0,4a1.43,1.43,0,1,1,1.43-1.43A1.43,1.43,0,0,1,18.62,44.64Z" style="fill: #e8e5df" transform="translate(-0.76)"/>
    <path d="M11.4,40.6a2.68,2.68,0,1,0,2.68,2.68A2.68,2.68,0,0,0,11.4,40.6Zm0,4a1.43,1.43,0,1,1,1.43-1.43A1.43,1.43,0,0,1,11.42,44.64Z" style="fill: #e8e5df" transform="translate(-0.76)"/>
    <ellipse cx="43.34" cy="38.1" rx="0.81" ry="0.82" style="fill: #fff"/>
    <ellipse cx="28.54" cy="36.3" rx="0.81" ry="0.82" style="fill: #fff"/>
    <ellipse cx="43.34" cy="34.15" rx="0.81" ry="0.82" style="fill: #fff"/>
    <ellipse cx="32.24" cy="25.49" rx="0.81" ry="0.82" style="fill: #fff"/>
    <ellipse cx="47.34" cy="23.71" rx="0.81" ry="0.82" style="fill: #fff"/>
    <ellipse cx="45.9" cy="19.9" rx="0.81" ry="0.82" style="fill: #fff"/>
    <ellipse cx="34.87" cy="13.58" rx="0.81" ry="0.82" style="fill: #fff"/>
    <ellipse cx="32.24" cy="17.58" rx="0.81" ry="0.82" style="fill: #fff"/>
    <ellipse cx="22.79" cy="18.99" rx="0.42" ry="0.43" style="fill: #dcc8ad"/>
    <ellipse cx="19.68" cy="20.43" rx="0.81" ry="0.82" style="fill: #fff"/>
    <ellipse cx="17.12" cy="23.71" rx="0.81" ry="0.82" style="fill: #fff"/>
    <ellipse cx="4.68" cy="23.55" rx="0.81" ry="0.82" style="fill: #fff"/>
    <path d="M33.13,2.27A1.67,1.67,0,0,0,31.74,3a1.47,1.47,0,0,0,0,1.85,1.67,1.67,0,1,0,1.39-2.59Z" style="fill: #fff" transform="translate(-0.76)"/>
    <circle cx="3.52" cy="43.2" r="1.43" style="fill: #fff"/>
  </g>
  <g data-name="Text % contur" id="Text_contur">
    <path d="M20,5a4.26,4.26,0,0,1,4.05-1.42A6.09,6.09,0,0,1,28,6.29a5.36,5.36,0,0,1,.47,3.27c.26.37.56.75.89,1.13A14.65,14.65,0,0,0,32,13.11l-.2.19-8.08-.17a2.93,2.93,0,0,1-1.61-1.36,1.9,1.9,0,0,1,0-1.19,1.77,1.77,0,0,1,.23-.47,1.27,1.27,0,0,0,.54.78,1.11,1.11,0,0,0,.34.14,1.14,1.14,0,0,0,.69-1.73.93.93,0,0,0-.28-.56,1,1,0,0,0-1.08-.13,4.56,4.56,0,0,1-2.75,1.78,2.56,2.56,0,0,1-1.69-1,2.43,2.43,0,0,1-.42-1.23A2.34,2.34,0,0,1,18,6.47a2.13,2.13,0,0,1,.49-.54,1.38,1.38,0,0,0,.31,1.17,1.29,1.29,0,0,0,.77.39,1.82,1.82,0,0,0,.79-.41,1.88,1.88,0,0,0,.59-1.15c0-.31-.05-.43-.13-.48s-.42.13-.61,0S20,5.21,20,5Z" style="fill: #f3e5e2" transform="translate(-0.76)"/>
    <polygon points="7.28 44.71 7.28 41.15 9.16 39.52 12.56 39.52 14.38 41.3 16.16 39.52 19.63 39.52 21.59 41.3 23.31 39.52 26.81 39.52 28.78 41.43 30.53 39.68 34.13 39.68 35.91 41.4 37.78 39.68 41.13 39.71 43 41.52 43 44.96 41.13 46.8 37.59 46.8 35.81 45.12 34.16 46.8 30.91 46.8 28.72 45.08 26.91 46.8 23.47 46.8 21.5 44.96 19.66 46.8 16.25 46.8 14.38 44.96 12.47 46.62 8.97 46.62 7.28 44.71" style="fill: none;stroke: #fff;stroke-width: 0.75px"/>
    <g>
      <path d="M4.62,32.27v-.59a.2.2,0,0,1,.4,0v1.58a.2.2,0,1,1-.4,0v-.59H2.31v.59a.18.18,0,0,1-.2.2.18.18,0,0,1-.2-.2V31.68a.18.18,0,0,1,.2-.2.18.18,0,0,1,.2.2v.59Z" style="fill: #fff" transform="translate(-0.76)"/>
      <path d="M4.24,29.46a.52.52,0,0,1,.33-.14.45.45,0,0,1,.45.5v.88a.59.59,0,0,1-.13.4.51.51,0,0,1-.37.19.22.22,0,0,1-.24-.21.19.19,0,0,1,.2-.19c.12,0,.14-.06.14-.18v-.87s0-.13,0-.13-.09.06-.12.07L2.7,31.17a.48.48,0,0,1-.33.13A.45.45,0,0,1,2,31.09a.53.53,0,0,1-.07-.33v-.85a.57.57,0,0,1,.13-.4.55.55,0,0,1,.38-.19.2.2,0,0,1,.23.21.18.18,0,0,1-.19.19c-.14,0-.16.07-.16.19v.85s0,.13.06.13.08,0,.11-.06Z" style="fill: #fff" transform="translate(-0.76)"/>
      <path d="M4.62,27A.2.2,0,1,1,5,27v1.77H2.11a.2.2,0,1,1,0-.4H4.62Z" style="fill: #fff" transform="translate(-0.76)"/>
      <path d="M4.62,25.54V24.16a.2.2,0,0,1,.4,0v1.78H3.72a.4.4,0,0,1-.45-.45V24.36h-1v1.38a.18.18,0,0,1-.2.2.18.18,0,0,1-.2-.2V24.41A.41.41,0,0,1,2.38,24H3.2a.41.41,0,0,1,.47.45v1.13Z" style="fill: #fff" transform="translate(-0.76)"/>
      <path d="M3.33,21.48v1.38a.2.2,0,0,1-.2.2h-1a.2.2,0,0,1-.2-.2V21.28a.2.2,0,0,1,.2-.2H4.82a.2.2,0,0,1,.2.2v.2a.2.2,0,0,1-.2.2.19.19,0,0,1-.2-.2Zm-.4,0H2.31v1.18h.62Z" style="fill: #fff" transform="translate(-0.76)"/>
      <path d="M4.62,19.08H3.81a.2.2,0,0,1,0-.4h1a.18.18,0,0,1,.2.2v1.57a.2.2,0,1,1-.4,0v-.59H2.31v.59a.18.18,0,0,1-.2.2.18.18,0,0,1-.2-.2v-1H4.62Z" style="fill: #fff" transform="translate(-0.76)"/>
      <path d="M4.62,17.46V16.08a.2.2,0,1,1,.4,0v1.77H3.72a.4.4,0,0,1-.45-.45V16.28h-1v1.38a.18.18,0,0,1-.2.2.18.18,0,0,1-.2-.2V16.33a.41.41,0,0,1,.47-.45H3.2a.41.41,0,0,1,.47.45v1.13Z" style="fill: #fff" transform="translate(-0.76)"/>
      <path d="M3.27,14.58v-.74a.41.41,0,0,1,.11-.32.39.39,0,0,1,.34-.12h.86a.42.42,0,0,1,.31.1.39.39,0,0,1,.14.35v.89A.58.58,0,0,1,5,15l-.07.15c0,.11-.08.23-.22.23a.2.2,0,0,1-.2-.19.29.29,0,0,1,0-.13l.05-.12a.68.68,0,0,0,.08-.21V13.8h-1V15H1.91V13.6a.18.18,0,0,1,.2-.2.18.18,0,0,1,.2.2v1Z" style="fill: #fff" transform="translate(-0.76)"/>
    </g>
    <g>
      <path d="M12,37.64a.2.2,0,0,1-.4,0v-.79h.79a.6.6,0,0,1,.63.64v.69a.61.61,0,0,1-.16.46.58.58,0,0,1-.49.19h-1a.81.81,0,0,1-.58-.21l-.6-.47a.61.61,0,0,1-.27-.56v-.54a.2.2,0,1,1,.4,0v.48c0,.22,0,.2.16.34l.56.44a.76.76,0,0,0,.52.12h.78c.22,0,.29,0,.29-.28v-.64c0-.14,0-.26-.21-.26H12Z" style="fill: #fff" transform="translate(-0.76)"/>
      <path d="M10.11,34.61a.2.2,0,1,1,0-.4H13v.53l-2.4,1h2.19a.2.2,0,1,1,0,.4H9.91v-.53l2.43-1H10.11Z" style="fill: #fff" transform="translate(-0.76)"/>
      <path d="M11,31.68a.9.9,0,0,1,.44-.1,1,1,0,0,1,.48.13l.74.37a.52.52,0,0,1,0,1l-.74.37a1,1,0,0,1-.48.13.9.9,0,0,1-.44-.1l-.8-.4a.52.52,0,0,1,0-1Zm-.6.75c-.06,0-.12.05-.12.14s.06.1.12.14l.72.36a.62.62,0,0,0,.32.09.54.54,0,0,0,.26-.07l.76-.38c.06,0,.12-.06.12-.14s-.06-.11-.12-.14L11.74,32a.53.53,0,0,0-.26-.07.62.62,0,0,0-.32.09Z" style="fill: #fff" transform="translate(-0.76)"/>
    </g>
    <g>
      <path d="M17.59,38.49a.2.2,0,1,1-.4,0V37.12a.39.39,0,0,1,.4-.4h.77a.46.46,0,0,1,.39.16.46.46,0,0,1,.39-.16h.77a.39.39,0,0,1,.4.4v1.38a.2.2,0,1,1-.4,0V37.12h-.66c-.22,0-.29.09-.29.2v.78a.2.2,0,0,1-.4,0v-.78c0-.11-.07-.2-.29-.2h-.66Z" style="fill: #fff" transform="translate(-0.76)"/>
      <path d="M19.79,36c0,.09,0,.15-.08.21a.25.25,0,0,1-.18,0h-.22a.25.25,0,0,1-.18,0c-.08-.06-.08-.12-.08-.21v-.29c0-.09,0-.15.08-.21a.26.26,0,0,1,.18,0h.22a.25.25,0,0,1,.18,0c.08.06.08.12.08.21Z" style="fill: #fff" transform="translate(-0.76)"/>
      <path d="M17.59,35a.2.2,0,1,1-.4,0V33.6a.39.39,0,0,1,.4-.4h.77a.46.46,0,0,1,.39.16.46.46,0,0,1,.39-.16h.77a.39.39,0,0,1,.4.4V35a.2.2,0,1,1-.4,0V33.6h-.66c-.22,0-.29.09-.29.2v.78a.2.2,0,0,1-.4,0V33.8c0-.11-.07-.2-.29-.2h-.66Z" style="fill: #fff" transform="translate(-0.76)"/>
      <path d="M18,30.72h-.64a.2.2,0,0,1,0-.4H18a.42.42,0,0,1,.16,0l1.95.76c.1,0,.18.08.18.2s-.08.16-.18.2l-1.95.76a.42.42,0,0,1-.16,0h-.63a.2.2,0,1,1,0-.4H18l1.53-.59Z" style="fill: #fff" transform="translate(-0.76)"/>
    </g>
    <g>
      <path d="M33.64,37a.52.52,0,0,1,.33-.14.45.45,0,0,1,.45.5v.88a.59.59,0,0,1-.13.4.51.51,0,0,1-.37.19.22.22,0,0,1-.24-.21.19.19,0,0,1,.2-.19c.12,0,.14-.06.14-.18v-.87s0-.13,0-.13-.09.06-.12.07L32.1,38.7a.48.48,0,0,1-.33.13.44.44,0,0,1-.38-.21.53.53,0,0,1-.07-.33v-.85a.57.57,0,0,1,.13-.4.55.55,0,0,1,.38-.19.2.2,0,0,1,.23.21.18.18,0,0,1-.19.19c-.14,0-.16.07-.16.19v.85s0,.14.06.14.08,0,.11-.06Z" style="fill: #fff" transform="translate(-0.76)"/>
      <path d="M34.42,35.35A.6.6,0,0,1,34,36l-.74.37a.9.9,0,0,1-.42.11.88.88,0,0,1-.44-.11l-.74-.37a.6.6,0,0,1-.38-.62v-.68a.19.19,0,0,1,.2-.2.19.19,0,0,1,.2.2v.67c0,.17,0,.2.17.28l.7.35a.61.61,0,0,0,.3.08.55.55,0,0,0,.28-.08l.69-.34c.16-.08.18-.12.18-.3v-.65a.19.19,0,0,1,.2-.2.19.19,0,0,1,.2.2Z" style="fill: #fff" transform="translate(-0.76)"/>
      <path d="M34,32.17a.2.2,0,1,1,.4,0v1.77H31.51a.2.2,0,1,1,0-.4H34Z" style="fill: #fff" transform="translate(-0.76)"/>
    </g>
    <g>
      <path d="M41.78,38.07v-.59a.2.2,0,1,1,.4,0v1.57a.2.2,0,1,1-.4,0v-.59H39.47v.59a.2.2,0,1,1-.4,0V37.48a.2.2,0,0,1,.4,0v.59Z" style="fill: #fff" transform="translate(-0.76)"/>
      <path d="M39.28,35.68a.2.2,0,1,1,0-.4h2.91v.53l-2.4,1H42a.2.2,0,0,1,0,.4H39.07v-.53l2.43-1H39.28Z" style="fill: #fff" transform="translate(-0.76)"/>
      <path d="M39.47,34h.14a.2.2,0,1,1,0,.4h-.54v-2h.54a.2.2,0,0,1,0,.4h-.14v.39H42a.2.2,0,0,1,0,.4H39.47Z" style="fill: #fff" transform="translate(-0.76)"/>
    </g>
    <line style="fill: none;stroke: #fff;stroke-linecap: round;stroke-miterlimit: 10;stroke-width: 0.75px" x1="37.39" x2="37.39" y1="31.83" y2="39.15"/>
    <g>
      <path d="M11.27,28.72a1.22,1.22,0,0,1,0,.38c0,.13,0,.41-.11.51a.53.53,0,0,1-.51,0c-.1-.1-.11-.38-.11-.51a1.22,1.22,0,0,1,0-.38c.05-.15.17-.17.32-.17S11.22,28.57,11.27,28.72Zm-.51.1a2.06,2.06,0,0,0,0,.3,1.07,1.07,0,0,0,0,.38s.11,0,.16,0,.13,0,.16,0a1.1,1.1,0,0,0,0-.38,2.29,2.29,0,0,0,0-.3c0-.12-.07-.12-.19-.12S10.78,28.7,10.76,28.82Z" style="fill: #fff" transform="translate(-0.76)"/>
      <path d="M11.38,29V28.8l.26-.22h.17v1.09h-.15v-.92Z" style="fill: #fff" transform="translate(-0.76)"/>
      <path d="M12.1,29.37l-.07.29h-.16l.28-1h.2l.28,1h-.16l-.07-.29Zm.15-.58h0l-.11.44h.22Z" style="fill: #fff" transform="translate(-0.76)"/>
    </g>
    <g>
      <path d="M40.7,30a.15.15,0,0,1-.15-.15V29a.15.15,0,0,1,.15-.15h.44a.15.15,0,0,1,.15.15v.86a.15.15,0,0,1-.15.15Zm0-1v.86h.44V29Z" style="fill: #fff" transform="translate(-0.76)"/>
      <path d="M40,29v.3a.07.07,0,1,1-.15,0v-.38a.07.07,0,0,1,.08-.07h.59a.07.07,0,1,1,0,.15h-.22v.86h.22a.08.08,0,0,1,0,.15h-.37V29Z" style="fill: #fff" transform="translate(-0.76)"/>
      <path d="M39.48,28.85a.22.22,0,0,1,.22.14l.14.28a.34.34,0,0,1,0,.16.33.33,0,0,1,0,.17l-.14.28a.22.22,0,0,1-.23.14h-.25a.07.07,0,0,1-.08-.08.07.07,0,0,1,.08-.08h.25c.06,0,.08,0,.1-.06l.13-.26a.24.24,0,0,0,0-.11.21.21,0,0,0,0-.1l-.13-.26c0-.06,0-.07-.11-.07h-.24a.07.07,0,0,1-.08-.08.07.07,0,0,1,.08-.07Z" style="fill: #fff" transform="translate(-0.76)"/>
    </g>
    <g>
      <path d="M40.71,19a.15.15,0,0,1-.15-.15V18a.15.15,0,0,1,.15-.15h.44a.15.15,0,0,1,.15.15v.86a.15.15,0,0,1-.15.15Zm0-1v.86h.44V18Z" style="fill: #fff" transform="translate(-0.76)"/>
      <path d="M40,18v.3a.07.07,0,1,1-.15,0v-.38a.07.07,0,0,1,.07-.07h.59a.07.07,0,0,1,0,.15h-.22v.86h.22a.07.07,0,0,1,0,.15H40.1V18Z" style="fill: #fff" transform="translate(-0.76)"/>
      <path d="M39.42,17.85a.22.22,0,0,1,.22.14l.14.28a.34.34,0,0,1,0,.16.33.33,0,0,1,0,.17l-.14.28a.22.22,0,0,1-.23.14h-.25a.07.07,0,0,1-.07-.07.07.07,0,0,1,.07-.08h.25c.06,0,.08,0,.1-.06l.13-.26a.23.23,0,0,0,0-.11.2.2,0,0,0,0-.1l-.13-.26c0-.06,0-.07-.11-.07h-.24a.07.07,0,0,1-.07-.07.07.07,0,0,1,.07-.07Z" style="fill: #fff" transform="translate(-0.76)"/>
    </g>
    <g>
      <path d="M40.7,24.32a.15.15,0,0,1-.15-.15v-.86a.15.15,0,0,1,.15-.15h.44a.15.15,0,0,1,.15.15v.86a.15.15,0,0,1-.15.15Zm0-1v.86h.44v-.86Z" style="fill: #fff" transform="translate(-0.76)"/>
      <path d="M40,23.31v.3a.07.07,0,1,1-.15,0v-.38a.07.07,0,0,1,.08-.07h.59a.07.07,0,1,1,0,.15h-.22v.86h.22a.07.07,0,1,1,0,.15h-.37v-1Z" style="fill: #fff" transform="translate(-0.76)"/>
      <path d="M39.45,23.16a.22.22,0,0,1,.22.14l.14.28a.34.34,0,0,1,0,.16.33.33,0,0,1,0,.17l-.14.28a.22.22,0,0,1-.23.14h-.25a.07.07,0,0,1-.07-.07.07.07,0,0,1,.07-.08h.25c.06,0,.08,0,.1-.06l.13-.26a.23.23,0,0,0,0-.11.2.2,0,0,0,0-.1l-.13-.26c0-.06,0-.07-.11-.07h-.24a.07.07,0,0,1-.07-.07.07.07,0,0,1,.07-.07Z" style="fill: #fff" transform="translate(-0.76)"/>
    </g>
    <g>
      <path d="M26.52,37a.52.52,0,0,1,.33-.14.45.45,0,0,1,.45.5v.88a.59.59,0,0,1-.13.4.5.5,0,0,1-.37.19.22.22,0,0,1-.24-.21.19.19,0,0,1,.2-.19c.12,0,.14-.06.14-.18v-.87s0-.13,0-.13-.09.06-.12.07L25,38.7a.48.48,0,0,1-.33.13.44.44,0,0,1-.38-.21.53.53,0,0,1-.07-.33v-.85a.57.57,0,0,1,.13-.4.54.54,0,0,1,.38-.19.2.2,0,0,1,.23.21.18.18,0,0,1-.19.19c-.14,0-.16.07-.16.19v.85s0,.14.06.14.08,0,.11-.06Z" style="fill: #fff" transform="translate(-0.76)"/>
      <path d="M24.59,36.36v.15c0,.13,0,.24-.2.24s-.2-.11-.2-.23v-.67a.6.6,0,0,1,.4-.6l.7-.35a.92.92,0,0,1,.9,0l.73.36a.61.61,0,0,1,.38.63v.66a.2.2,0,1,1-.4,0v-.19ZM26.9,36v-.08c0-.17,0-.21-.17-.28L26,35.25a.56.56,0,0,0-.26-.08.68.68,0,0,0-.33.1l-.68.33c-.17.08-.17.12-.17.3v0Z" style="fill: #fff" transform="translate(-0.76)"/>
      <path d="M24.4,34c-.11,0-.2-.08-.2-.2s.1-.18.2-.21l2.71-.77c.1,0,.2.08.2.19a.24.24,0,0,1-.2.22l-.48.15v.85l.48.15a.24.24,0,0,1,.2.22c0,.11-.1.22-.2.19Zm.74-.21h0l1.08.31v-.63Z" style="fill: #fff" transform="translate(-0.76)"/>
    </g>
  </g>
  <g id="Connectors">
    <circle cx="10.7" cy="43.22" data-cir-type="male" id="circuitoCon_Gnd" r="1.35" style="fill: none"/>
    <circle cx="17.9" cy="43.28" data-cir-type="male" id="circuitoCon_Vcc" r="1.35" style="fill: none"/>
    <circle cx="25.07" cy="43.22" data-cir-type="male" id="circuitoCon_SDA" r="1.35" style="fill: none"/>
    <circle cx="32.35" cy="43.28" data-cir-type="male" id="circuitoCon_SCL" r="1.35" style="fill: none"/>
    <circle cx="39.44" cy="43.28" data-cir-type="male" id="circuitoCon_INT" r="1.35" style="fill: none"/>
  </g>
</svg>