<?xml version="1.0" ?><svg height="19mm" viewBox="0 0 36.42 53.86" width="12.85mm" xmlns="http://www.w3.org/2000/svg">
  <title>Single 7-Segment Display - 20mm</title>
  <g data-name="Layer 3" id="Layer_3">
    <g id="Connectors">
      <ellipse cx="32.6" cy="48.53" data-cir-type="male" id="circuitoCon_DP" rx="2.05" ry="1.99" style="fill: none;stroke: #e8e5df;stroke-miterlimit: 10;stroke-width: 1.224px"/>
      <ellipse cx="25.4" cy="48.53" data-cir-type="male" id="circuitoCon_C" rx="2.05" ry="1.99" style="fill: none;stroke: #e8e5df;stroke-miterlimit: 10;stroke-width: 1.224px"/>
      <ellipse cx="18.21" cy="48.53" data-cir-type="male" id="circuitoCon_Com" rx="2.05" ry="1.99" style="fill: none;stroke: #e8e5df;stroke-miterlimit: 10;stroke-width: 1.224px"/>
      <ellipse cx="11.02" cy="48.53" data-cir-type="male" id="circuitoCon_D" rx="2.05" ry="1.99" style="fill: none;stroke: #e8e5df;stroke-miterlimit: 10;stroke-width: 1.224px"/>
      <ellipse cx="3.82" cy="48.53" data-cir-type="male" id="circuitoCon_E" rx="2.05" ry="1.99" style="fill: none;stroke: #e8e5df;stroke-miterlimit: 10;stroke-width: 1.224px"/>
      <ellipse cx="32.59" cy="5.33" data-cir-type="male" id="circuitoCon_B" rx="2.05" ry="1.99" style="fill: none;stroke: #e8e5df;stroke-miterlimit: 10;stroke-width: 1.224px"/>
      <ellipse cx="25.39" cy="5.33" data-cir-type="male" id="circuitoCon_A" rx="2.05" ry="1.99" style="fill: none;stroke: #e8e5df;stroke-miterlimit: 10;stroke-width: 1.224px"/>
      <ellipse cx="18.2" cy="5.33" data-cir-type="male" data-name="circuitoCon_Com" id="circuitoCon_Com-2" rx="2.05" ry="1.99" style="fill: none;stroke: #e8e5df;stroke-miterlimit: 10;stroke-width: 1.224px"/>
      <ellipse cx="11.01" cy="5.33" data-cir-type="male" id="circuitoCon_F" rx="2.05" ry="1.99" style="fill: none;stroke: #e8e5df;stroke-miterlimit: 10;stroke-width: 1.224px"/>
      <ellipse cx="3.81" cy="5.33" data-cir-type="male" id="circuitoCon_G" rx="2.05" ry="1.99" style="fill: none;stroke: #e8e5df;stroke-miterlimit: 10;stroke-width: 1.224px"/>
    </g>
    <rect height="53.86" style="fill: #2a292f" width="36.42"/>
    <ellipse cx="29.62" cy="46.97" rx="2.18" ry="2.49" style="fill: #e7e4dd"/>
    <path d="M21.29,49.2H5a2.93,2.93,0,0,1-2.09-3.1l4.72-1.86h13ZM3.16,44.86,6.42,28.74,7.76,27.5l2.5,3.72L7.88,43ZM14.4,10.76,12,22.54,8,26.26,7.17,25,10.43,8.9ZM25.76,24.4l1.67,2.48-2.67,2.48H10.64L9,26.88l2.67-2.48ZM27.68,9.52h-13l-4-1.86a4.93,4.93,0,0,1,3.34-3.09H30.31Zm.71,18,.83,1.24L25.71,46.1a5,5,0,0,1-3.34,3.1l-.62-5,2.63-13Zm-2.26-5,2.64-13L31.4,4.57a2.9,2.9,0,0,1,2.08,3.09L30,25l-1.33,1.24Z" style="fill: #fff"/>
  </g>
</svg>