<?xml version="1.0" ?><svg height="31.19mm" viewBox="0 0 22.25 88.42" width="7.85mm" xmlns="http://www.w3.org/2000/svg">
  <title>SparkFun RedBot Sensor - Line Follower</title>
  <g id="CITCLES">
    <circle cx="20.56" cy="36.02" r="1.17" style="fill: none;stroke: #fff;stroke-miterlimit: 10;stroke-width: 0.5px"/>
    <path d="M0,0V68.78H22.25V0ZM2.64,18.68a.59.59,0,1,1,0-1.17.59.59,0,0,1,0,1.17Zm2.65,7.57a.59.59,0,0,1,0-1.17.59.59,0,1,1,0,1.17Zm5.85-7a.58.58,0,0,1,.59.58.59.59,0,1,1-1.17,0A.58.58,0,0,1,11.14,19.25Zm.21,24.46a.77.77,0,0,1-.77-.77.78.78,0,1,1,.77.77ZM18.81,15a.59.59,0,1,1,.59.58A.58.58,0,0,1,18.81,15Zm1.75,22.15A1.17,1.17,0,1,1,21.73,36,1.16,1.16,0,0,1,20.56,37.19Z" style="fill: #cf2f27"/>
    <circle cx="5.29" cy="25.67" r="1.18" style="fill: none;stroke: #8a231e;stroke-miterlimit: 10;stroke-width: 0.75px"/>
    <circle cx="2.64" cy="18.1" r="1.18" style="fill: none;stroke: #8a231e;stroke-miterlimit: 10;stroke-width: 0.75px"/>
    <circle cx="11.14" cy="19.83" r="1.18" style="fill: none;stroke: #8a231e;stroke-miterlimit: 10;stroke-width: 0.75px"/>
    <circle cx="19.4" cy="15.04" r="1.18" style="fill: none;stroke: #8a231e;stroke-miterlimit: 10;stroke-width: 0.75px"/>
    <polyline points="4.71 26.6 4.12 27.31 4.21 39.1 7.46 41.98 10.42 41.98" style="fill: none;stroke: #8a231e;stroke-miterlimit: 10;stroke-width: 0.75px"/>
    <circle cx="11.35" cy="42.94" r="1.37" style="fill: none;stroke: #8a231e;stroke-miterlimit: 10;stroke-width: 0.75px"/>
    <polyline points="5.88 9.96 5.88 12.5 7.48 14.1 7.48 15.62" style="fill: none;stroke: #8a231e;stroke-miterlimit: 10;stroke-width: 0.75px"/>
    <polyline points="11.14 12.34 11.14 14.46 13.65 16.97" style="fill: none;stroke: #8a231e;stroke-miterlimit: 10;stroke-width: 0.75px"/>
    <line style="fill: none;stroke: #8a231e;stroke-miterlimit: 10;stroke-width: 0.75px" x1="12.32" x2="14.14" y1="19.83" y2="19.83"/>
    <line style="fill: none;stroke: #8a231e;stroke-miterlimit: 10;stroke-width: 0.75px" x1="8.21" x2="9.97" y1="20.04" y2="20.04"/>
    <polyline points="3.54 17.34 4.68 16.19 6.88 16.19" style="fill: none;stroke: #8a231e;stroke-miterlimit: 10;stroke-width: 0.75px"/>
    <polyline points="15.47 11.9 16.35 11.9 18.64 14.19" style="fill: none;stroke: #8a231e;stroke-miterlimit: 10;stroke-width: 0.75px"/>
    <polyline points="14.38 2.03 18.64 2.03 19.89 3.28 19.89 8.96 18.95 9.89 17.46 9.89" style="fill: none;stroke: #8a231e;stroke-miterlimit: 10;stroke-width: 0.75px"/>
    <line style="fill: none;stroke: #8a231e;stroke-miterlimit: 10;stroke-width: 0.75px" x1="5.88" x2="5.88" y1="5.08" y2="9"/>
    <circle cx="2" cy="1.75" r="1.12" style="fill: #b6aea2"/>
  </g>
  <g id="No">
    <rect height="2.18" style="fill: #a49c92" width="14.38" x="3.84" y="8.58"/>
    <rect height="2.18" style="fill: #a49c92" width="14.38" x="3.84" y="3.61"/>
    <polygon points="7.5 2.54 13.42 2.54 14.67 3.79 14.67 11.46 7.5 11.46 7.5 2.54" style="fill: #2a2526"/>
    <rect height="3.47" style="fill: #4c4849" width="6.03" x="8.16" y="7.5"/>
    <polygon points="13.33 3.11 8.21 3.11 8.21 6.63 14.14 6.63 14.14 3.86 13.33 3.11" style="fill: #4c4849"/>
    <rect height="1.39" style="fill: #141313" width="3.53" x="9.38" y="8.55"/>
    <line style="fill: none;stroke: #000;stroke-linecap: round;stroke-linejoin: round;stroke-width: 0.100000001490116px" x1="8.21" x2="9.42" y1="7.57" y2="8.58"/>
    <line style="fill: none;stroke: #000;stroke-linecap: round;stroke-linejoin: round;stroke-width: 0.100000001490116px" x1="12.92" x2="14.14" y1="9.96" y2="10.96"/>
    <line style="fill: none;stroke: #000;stroke-linecap: round;stroke-linejoin: round;stroke-width: 0.100000001490116px" x1="12.92" x2="14.14" y1="8.58" y2="7.57"/>
    <line style="fill: none;stroke: #000;stroke-linecap: round;stroke-linejoin: round;stroke-width: 0.100000001490116px" x1="9.42" x2="8.21" y1="9.96" y2="10.96"/>
    <rect height="1.39" style="fill: #141313" width="3.53" x="9.38" y="4.16"/>
    <polyline points="12.92 5.56 14.14 6.57 14.14 3.89 13.27 3.06 8.21 3.06 8.21 3.27" style="fill: none;stroke: #000;stroke-linecap: round;stroke-linejoin: round;stroke-width: 0.100000001490116px"/>
    <line style="fill: none;stroke: #000;stroke-linecap: round;stroke-linejoin: round;stroke-width: 0.100000001490116px" x1="12.92" x2="14.14" y1="4.19" y2="3.89"/>
    <polyline points="9.42 5.57 8.21 6.57 14.14 6.57" style="fill: none;stroke: #000;stroke-linecap: round;stroke-linejoin: round;stroke-width: 0.100000001490116px"/>
    <line style="fill: none;stroke: #000;stroke-linecap: round;stroke-linejoin: round;stroke-width: 0.100000001490116px" x1="8.21" x2="8.21" y1="3.18" y2="6.57"/>
    <line style="fill: none;stroke: #000;stroke-linecap: round;stroke-linejoin: round;stroke-width: 0.100000001490116px" x1="8.21" x2="9.38" y1="3.06" y2="4.16"/>
    <circle cx="11.18" cy="32.75" r="5.17" style="fill: #fff"/>
    <path d="M9,25.24a1.19,1.19,0,0,0,.87,1.56,2.59,2.59,0,0,0,.48,0c1.38,0,2.77,0,4.16,0h.18l-.17-.14-1.58-1.43a1.19,1.19,0,0,1-.4-1,2.51,2.51,0,0,0-.06-.77,3,3,0,0,0-3.1-2.27,2.34,2.34,0,0,0-1.46.59,2.93,2.93,0,0,0-.33.4h.14c.41,0,.58.24.41.61a2,2,0,0,1-.46.61.59.59,0,0,1-1-.33c0-.13,0-.27,0-.43a1.66,1.66,0,0,0-.3,1.52,1.31,1.31,0,0,0,1,1,1.15,1.15,0,0,0,.87-.25,7.43,7.43,0,0,0,.59-.53,1,1,0,0,1,.54-.29.71.71,0,0,1,.75.62.82.82,0,0,1-.41.93.38.38,0,0,1-.45-.1C9.08,25.44,9,25.34,9,25.24Z" style="fill: #fff"/>
    <g>
      <rect height="1.92" style="fill: #b1aeaa" width="2.22" x="6.29" y="15.04"/>
      <rect height="1.92" style="fill: #b1aeaa" width="2.22" x="6.29" y="19.08"/>
      <rect height="3.32" style="fill: #edca9c" width="2.53" x="6.11" y="16.43"/>
      <rect height="2.27" width="2.53" x="6.11" y="16.96"/>
    </g>
    <g>
      <path d="M7.15,18.37a.3.3,0,0,1,.16,0,.29.29,0,0,1,.16,0l.26.11a.16.16,0,0,1,0,.3l-.26.11a.42.42,0,0,1-.16,0,.45.45,0,0,1-.16,0l-.27-.13a.15.15,0,0,1-.12-.14.17.17,0,0,1,.12-.15Zm-.21.23s0,0,0,0,0,0,0,0l.26.11a.2.2,0,0,0,.11,0l.09,0,.26-.12s0,0,0,0,0,0,0,0l-.26-.12-.09,0a.2.2,0,0,0-.11,0Z" style="fill: #fff"/>
      <path d="M6.83,18.06A.06.06,0,0,1,6.76,18s0-.06.07-.06h.32l-.36-.37a.09.09,0,0,1,0,0s0-.06.08-.06,0,0,.06,0l.4.42.41-.42s0,0,.06,0a.07.07,0,0,1,.07.06.1.1,0,0,1,0,.07l-.35.35h.32c.05,0,.07,0,.07.06s0,.07-.07.07Z" style="fill: #fff"/>
    </g>
    <g>
      <rect height="1.92" style="fill: #b1aeaa" width="2.22" x="13.58" y="15.12"/>
      <rect height="1.92" style="fill: #b1aeaa" width="2.22" x="13.58" y="19.15"/>
      <rect height="3.32" style="fill: #edca9c" width="2.53" x="13.4" y="16.51"/>
      <rect height="2.27" width="2.53" x="13.4" y="17.04"/>
    </g>
    <g>
      <path d="M14,18.67a.09.09,0,0,1,.1-.09h.63a.1.1,0,0,1,.11.09V19a.1.1,0,0,1-.11.09h-.63A.09.09,0,0,1,14,19Zm.73,0h-.63V19h.63Z" style="fill: #fff"/>
      <path d="M14.77,18h-.22a0,0,0,0,1-.05,0s0-.05.05-.05h.27s.06,0,.06.05v.37s0,.05-.06.05a0,0,0,0,1-.05-.05v-.14h-.63v.14s0,.05-.05.05-.05,0-.05-.05v-.23h.73Z" style="fill: #fff"/>
      <path d="M14.09,17.49s-.05,0-.05,0,0,0,.05-.05l.73-.18a0,0,0,0,1,.06,0,.06.06,0,0,1-.06.05l-.13,0v.2l.13,0a.06.06,0,0,1,.06.05,0,0,0,0,1-.06,0Zm.2,0h0l.29.07v-.14Z" style="fill: #fff"/>
    </g>
  </g>
  <g data-name="WHITE LINES" id="WHITE_LINES">
    <polyline points="7.06 2.72 7.06 2.03 14.38 2.03 15.34 3.06" style="fill: none;stroke: #fff;stroke-linecap: round;stroke-linejoin: round;stroke-width: 0.5px"/>
    <polyline points="7.06 11.72 7.06 12.34 15.47 12.34 15.47 11.46" style="fill: none;stroke: #fff;stroke-linecap: round;stroke-linejoin: round;stroke-width: 0.5px"/>
  </g>
  <g id="TEXT">
    <g>
      <path d="M3.77,43.78a1,1,0,0,1,.88,0l.7.35a.51.51,0,0,1,.32.47.5.5,0,0,1-.32.46l-.7.35a.9.9,0,0,1-.88,0L3,45.09a.51.51,0,0,1-.31-.46A.5.5,0,0,1,3,44.17Zm-.57.72c-.06,0-.12,0-.12.13s.06.1.12.13l.69.34a.56.56,0,0,0,.31.09.45.45,0,0,0,.25-.07l.72-.36c.06,0,.12-.06.12-.13s-.06-.11-.12-.13l-.72-.37a.54.54,0,0,0-.25-.06.65.65,0,0,0-.31.08Z" style="fill: #fff"/>
      <path d="M5.67,42.2a.57.57,0,0,1-.2.47.58.58,0,0,1-.45.15H2.89c-.12,0-.19,0-.19-.19s.07-.19.19-.19H5c.21,0,.27-.07.27-.24v-.65c0-.17-.06-.23-.27-.23H2.89a.17.17,0,0,1-.19-.19c0-.14.07-.19.19-.19H5a.58.58,0,0,1,.65.61Z" style="fill: #fff"/>
      <path d="M3.08,39.69h.14c.12,0,.19.05.19.19s-.07.19-.19.19H2.7V38.19h.52c.12,0,.19.05.19.19a.17.17,0,0,1-.19.19H3.08v.37h2.4c.12,0,.19.05.19.19s-.07.19-.19.19H3.08Z" style="fill: #fff"/>
    </g>
    <g>
      <path d="M10.42,44.07H9.81a.17.17,0,0,1-.19-.19c0-.14.07-.19.19-.19h.6a.39.39,0,0,1,.15,0l1.86.73c.09,0,.17.07.17.19s-.08.15-.17.19l-1.86.73a.39.39,0,0,1-.15,0h-.6c-.12,0-.19,0-.19-.19s.07-.19.19-.19h.61l1.46-.56Z" style="fill: #fff"/>
      <path d="M12.59,41.79a.59.59,0,0,1-.37.58l-.71.35a.91.91,0,0,1-.4.1.8.8,0,0,1-.42-.11L10,42.36a.57.57,0,0,1-.36-.59v-.64a.17.17,0,0,1,.19-.19.18.18,0,0,1,.19.19v.63c0,.17,0,.19.16.27l.66.33a.63.63,0,0,0,.29.08.61.61,0,0,0,.27-.08L12,42c.15-.07.16-.11.16-.28v-.62a.18.18,0,0,1,.2-.19.18.18,0,0,1,.19.19Z" style="fill: #fff"/>
      <path d="M12.59,39a.59.59,0,0,1-.37.58l-.71.35a.91.91,0,0,1-.4.1.8.8,0,0,1-.42-.11L10,39.61A.57.57,0,0,1,9.62,39v-.65a.17.17,0,0,1,.19-.19.18.18,0,0,1,.19.19V39c0,.17,0,.19.16.27l.66.33a.63.63,0,0,0,.29.08.61.61,0,0,0,.27-.08l.66-.33c.15-.07.16-.11.16-.28v-.62a.18.18,0,0,1,.2-.19.18.18,0,0,1,.19.19Z" style="fill: #fff"/>
    </g>
    <g>
      <path d="M3,53l-.25.22a.5.5,0,0,1-.35.14A.49.49,0,0,1,2,53.18a.49.49,0,0,1-.13-.38v-1a.77.77,0,0,1,.31-.64L3,50.47a.46.46,0,0,1,.81.34v1a.76.76,0,0,1-.3.67l-.23.2.1.23H3.6a.19.19,0,0,1,.21.19c0,.16-.12.2-.25.2H3.11Zm.16-.64.09-.08a.42.42,0,0,0,.21-.43v-1c0-.06,0-.15-.08-.15s-.08,0-.11.06l-.78.68a.39.39,0,0,0-.17.36v1c0,.06,0,.14.08.14a.2.2,0,0,0,.12-.06l.33-.29-.1-.26a.53.53,0,0,1-.05-.18A.2.2,0,0,1,2.86,52c.15,0,.17.14.22.25Z" style="fill: #fff"/>
      <path d="M5.08,53.13a.18.18,0,0,1-.2.2c-.14,0-.19-.07-.19-.2V50.31H6a.58.58,0,0,1,.61.56v.27a.56.56,0,0,1-.61.55H5.63l.88,1.25a.4.4,0,0,1,.09.2.19.19,0,0,1-.19.19.23.23,0,0,1-.18-.11L5.17,51.69H5.08Zm0-1.83h.86c.1,0,.27,0,.27-.16v-.27c0-.15-.15-.17-.27-.17H5.08Z" style="fill: #fff"/>
      <path d="M9.2,52.94a.17.17,0,0,1,.19.19.18.18,0,0,1-.19.2H7.48v-3H9.2a.17.17,0,0,1,.19.19.18.18,0,0,1-.19.2H7.86v.92h.57a.18.18,0,0,1,.2.2.18.18,0,0,1-.2.19H7.86v.93Z" style="fill: #fff"/>
      <path d="M11.79,52.94v-.79c0-.11.05-.19.2-.19a.17.17,0,0,1,.19.19v1a.18.18,0,0,1-.19.2H10.46a.18.18,0,0,1-.19-.2.17.17,0,0,1,.19-.19H11V50.7h-.57a.18.18,0,0,1-.19-.2.17.17,0,0,1,.19-.19h1v2.63Z" style="fill: #fff"/>
      <path d="M14.58,52.94v-.79c0-.11.05-.19.2-.19a.17.17,0,0,1,.19.19v1a.18.18,0,0,1-.19.2H13.25a.19.19,0,0,1-.2-.2.18.18,0,0,1,.2-.19h.57V50.7h-.57a.19.19,0,0,1-.2-.2.18.18,0,0,1,.2-.19h1v2.63Z" style="fill: #fff"/>
      <path d="M17.37,52.94v-.79a.17.17,0,0,1,.19-.19c.15,0,.2.08.2.19v1a.18.18,0,0,1-.2.2H16a.19.19,0,0,1-.2-.2.18.18,0,0,1,.2-.19h.57V50.7H16a.19.19,0,0,1-.2-.2.18.18,0,0,1,.2-.19H17v2.63Z" style="fill: #fff"/>
      <path d="M18.83,50.7a.19.19,0,0,1-.2-.2.18.18,0,0,1,.2-.19h1.33a.38.38,0,0,1,.39.39v.74a.45.45,0,0,1-.15.38.44.44,0,0,1,.15.37v.75a.38.38,0,0,1-.39.39H18.83a.19.19,0,0,1-.2-.2.18.18,0,0,1,.2-.19h1.33v-.65c0-.21-.09-.28-.19-.28h-.76a.18.18,0,0,1-.2-.19.19.19,0,0,1,.2-.2H20c.1,0,.19-.06.19-.28V50.7Z" style="fill: #fff"/>
    </g>
    <g>
      <path d="M4.25,55c0-.11.06-.2.18-.2s.16.1.19.2l.7,2.62c0,.09-.07.2-.17.2s-.17-.11-.2-.2l-.13-.46H4l-.14.46c0,.09-.08.2-.19.2s-.21-.11-.18-.2Zm.18.72h0l-.29,1.05h.58Z" style="fill: #fff"/>
      <path d="M6.55,56.49v1.08c0,.13,0,.26-.18.26s-.17-.13-.17-.26V56c0-.13,0-.27.17-.27s.18.14.18.27v0h0l.28-.2a.56.56,0,0,1,.3-.12h.26a.42.42,0,0,1,.33.13.62.62,0,0,1,.15.51l0,1.17c0,.13,0,.28-.17.28s-.17-.13-.18-.26l0-1.14c0-.23,0-.32-.24-.32H7.17l-.11,0Z" style="fill: #fff"/>
      <path d="M9.4,56.11c-.1,0-.24,0-.24-.19s.13-.18.24-.18h.49a.55.55,0,0,1,.45.16.62.62,0,0,1,.16.44l0,1.27a.18.18,0,0,1-.16.22.19.19,0,0,1-.18-.19l-.24.13a.29.29,0,0,1-.22.06H9.4a.55.55,0,0,1-.58-.59v-.17A.5.5,0,0,1,9,56.66a.56.56,0,0,1,.41-.14h.75v-.09c0-.28-.06-.32-.31-.32Zm0,.78c-.09,0-.23,0-.23.16v.25c0,.13.14.15.22.15h.39l.39-.21v-.08c0-.21-.06-.27-.25-.27Z" style="fill: #fff"/>
      <path d="M12.48,57.45h.26c.12,0,.24,0,.24.19s-.14.19-.24.19h-.89c-.1,0-.24,0-.24-.19s.12-.19.24-.19h.28V55.34h-.28c-.1,0-.24,0-.24-.19s.12-.18.24-.18h.37c.2,0,.26,0,.26.26Z" style="fill: #fff"/>
      <path d="M14.06,56.43a.51.51,0,0,1,.22-.48.58.58,0,0,1,.5-.21h.28a.58.58,0,0,1,.49.21.49.49,0,0,1,.22.48v.7a.53.53,0,0,1-.24.5.56.56,0,0,1-.47.2h-.28a.58.58,0,0,1-.48-.2.55.55,0,0,1-.24-.5Zm.35.7c0,.08,0,.13.13.22a.3.3,0,0,0,.24.1h.28a.31.31,0,0,0,.24-.1c.1-.09.12-.14.12-.22v-.7c0-.08,0-.13-.12-.22a.31.31,0,0,0-.24-.1h-.28a.3.3,0,0,0-.24.1c-.1.09-.13.14-.13.22Z" style="fill: #fff"/>
      <path d="M16.68,56.43A.57.57,0,0,1,16.8,56l.26-.21a.27.27,0,0,1,.22-.09h.34a.66.66,0,0,1,.34.18l.09.08v0c0-.11.05-.21.17-.21s.18.13.18.26v1.81c0,.34,0,.41-.18.54l-.11.11a.55.55,0,0,1-.44.16h-.58c-.1,0-.24,0-.24-.19s.12-.19.24-.19h.64a.25.25,0,0,0,.18-.08l.09-.09a.26.26,0,0,0,.05-.15v-.51l-.08.07c-.08.09-.19.19-.28.19h-.42a.37.37,0,0,1-.26-.12l-.22-.21a.41.41,0,0,1-.11-.34Zm.35.51a.3.3,0,0,0,0,.2l.14.12a.17.17,0,0,0,.1,0h.26a.29.29,0,0,0,.16-.09L18,57a.15.15,0,0,0,0-.12v-.27s0-.11,0-.13l-.27-.23c-.07-.06-.12-.1-.16-.1h-.26a.17.17,0,0,0-.1,0l-.14.13s0,.11,0,.19Z" style="fill: #fff"/>
    </g>
    <g>
      <path d="M7.93,61.94c.09,0,.17.05.17.19s-.08.2-.17.2H6.42V59.5c0-.12,0-.19.17-.19s.17.07.17.19v2.44Z" style="fill: #fff"/>
      <path d="M9.88,62h.25c.11,0,.22,0,.22.19s-.13.19-.22.19H9.3c-.1,0-.23,0-.23-.19S9.19,62,9.3,62h.26V60.61H9.3c-.1,0-.23,0-.23-.19s.12-.18.23-.18h.34c.19,0,.24,0,.24.26Zm-.49-2.47c0-.13.07-.17.15-.17h.19c.09,0,.15,0,.15.17v.18c0,.13-.06.18-.15.18H9.54c-.08,0-.15-.05-.15-.18Z" style="fill: #fff"/>
      <path d="M11.69,61v1.08c0,.13,0,.26-.16.26s-.16-.13-.16-.26V60.51c0-.13,0-.27.16-.27s.16.14.16.27v0h0l.27-.2a.5.5,0,0,1,.28-.12h.24a.38.38,0,0,1,.31.13.65.65,0,0,1,.14.51l0,1.17c0,.13,0,.28-.16.28s-.16-.13-.17-.26l0-1.14c0-.23,0-.32-.22-.32h-.11a.19.19,0,0,0-.1,0Z" style="fill: #fff"/>
      <path d="M14.42,62.33a.3.3,0,0,1-.29-.11L14,62.08a.47.47,0,0,1-.17-.41V61A.56.56,0,0,1,14,60.5l.12-.11a.4.4,0,0,1,.36-.15h.3a.45.45,0,0,1,.36.13l.13.12a.58.58,0,0,1,.17.49v.29c0,.22,0,.28-.22.28h-1v.12a.14.14,0,0,0,0,.11l.08.1c0,.06.11.07.22.07h.7c.11,0,.22,0,.22.19s-.13.19-.22.19Zm-.27-1.15h.95V61a.21.21,0,0,0,0-.17l-.12-.13a.23.23,0,0,0-.16,0H14.5a.25.25,0,0,0-.17,0l-.11.09a.2.2,0,0,0-.07.17Z" style="fill: #fff"/>
    </g>
    <g>
      <path d="M5.63,65.89a.59.59,0,0,1,.13.34.44.44,0,0,1-.46.48H4.49a.48.48,0,0,1-.37-.14A.54.54,0,0,1,4,66.18c0-.13.06-.25.19-.25a.2.2,0,0,1,.18.22c0,.12,0,.14.16.14h.79s.12,0,.12-.05a.45.45,0,0,0-.06-.12L4.07,64.28A.52.52,0,0,1,4,63.94a.48.48,0,0,1,.19-.4.44.44,0,0,1,.31-.08h.77a.52.52,0,0,1,.37.14.63.63,0,0,1,.17.4c0,.13-.06.24-.19.24a.18.18,0,0,1-.18-.2c0-.14-.06-.16-.17-.16H4.44s-.12,0-.12.06a.28.28,0,0,0,0,.11Z" style="fill: #fff"/>
      <path d="M7.28,66.71A.35.35,0,0,1,7,66.6l-.15-.15A.53.53,0,0,1,6.63,66v-.77a.55.55,0,0,1,.18-.48l.12-.12a.43.43,0,0,1,.39-.17h.32a.46.46,0,0,1,.39.15l.14.12a.62.62,0,0,1,.18.53v.32c0,.23,0,.29-.24.29H7V66a.18.18,0,0,0,0,.11l.08.11a.28.28,0,0,0,.24.08h.75c.12,0,.24,0,.24.2s-.13.2-.24.2ZM7,65.47H8v-.24c0-.07,0-.14,0-.19l-.14-.13a.19.19,0,0,0-.16,0h-.3a.24.24,0,0,0-.18,0l-.12.1s-.07.06-.07.18Z" style="fill: #fff"/>
      <path d="M9.63,65.27v1.16c0,.14,0,.28-.18.28s-.18-.14-.18-.28V64.76c0-.15,0-.3.18-.3s.18.15.18.29v0h0l.28-.22a.58.58,0,0,1,.3-.13h.26a.41.41,0,0,1,.33.15c.16.15.15.32.16.54l0,1.26c0,.14,0,.3-.17.3s-.17-.14-.17-.28l0-1.23c0-.24,0-.34-.24-.34h-.12a.19.19,0,0,0-.11,0Z" style="fill: #fff"/>
      <path d="M12.51,64.86c-.07,0-.19,0-.19.11s0,.09.09.12l.88.45a.57.57,0,0,1,.34.57.54.54,0,0,1-.57.6h-.55a.54.54,0,0,1-.43-.13c-.07-.06-.17-.13-.17-.23a.19.19,0,0,1,.19-.2.16.16,0,0,1,.13.07.33.33,0,0,0,.28.09H13c.13,0,.29,0,.29-.23s-.1-.15-.18-.2l-.83-.42A.5.5,0,0,1,12,65a.48.48,0,0,1,.49-.51h.6a.48.48,0,0,1,.41.14c.06.06.13.11.13.22a.19.19,0,0,1-.17.2.18.18,0,0,1-.15-.08.25.25,0,0,0-.22-.08Z" style="fill: #fff"/>
      <path d="M14.55,65.21a.58.58,0,0,1,.23-.53.59.59,0,0,1,.5-.22h.27a.59.59,0,0,1,.5.22.57.57,0,0,1,.22.53V66a.6.6,0,0,1-.24.54.55.55,0,0,1-.48.21h-.27a.58.58,0,0,1-.49-.21.63.63,0,0,1-.24-.54Zm.36.75a.31.31,0,0,0,.12.24.34.34,0,0,0,.25.11h.27a.3.3,0,0,0,.24-.11c.11-.1.13-.16.13-.24v-.75c0-.09,0-.14-.13-.24a.28.28,0,0,0-.24-.11h-.27A.31.31,0,0,0,15,65a.29.29,0,0,0-.12.24Z" style="fill: #fff"/>
      <path d="M17.19,64.76c0-.15,0-.3.18-.3s.18.13.18.27v.16l.27-.26a.51.51,0,0,1,.31-.17h.28a.44.44,0,0,1,.35.16.61.61,0,0,1,.16.45c0,.14,0,.28-.18.28s-.18-.12-.18-.24a.36.36,0,0,0,0-.18c-.05-.07-.13-.07-.22-.07h-.1A.26.26,0,0,0,18,65l-.49.46v1c0,.14,0,.28-.18.28s-.18-.14-.18-.28Z" style="fill: #fff"/>
    </g>
    <g>
      <path d="M19.37,44.44a.18.18,0,0,1-.19.19.17.17,0,0,1-.19-.19v-.75h.75a.56.56,0,0,1,.6.61V45a.55.55,0,0,1-.16.44.54.54,0,0,1-.47.18h-.95a.78.78,0,0,1-.56-.2l-.57-.45a.56.56,0,0,1-.26-.53v-.51a.19.19,0,0,1,.38,0v.45c0,.21,0,.2.16.32l.53.42a.7.7,0,0,0,.49.12h.75c.21,0,.27,0,.27-.26v-.61c0-.14,0-.25-.19-.25h-.39Z" style="fill: #fff"/>
      <path d="M17.56,41.31c-.12,0-.19-.05-.19-.19s.07-.19.19-.19h2.78v.51l-2.29,1h2.1c.12,0,.19.05.19.19s-.07.19-.19.19H17.37v-.5l2.31-1H17.56Z" style="fill: #fff"/>
      <path d="M17.75,39.7v.14c0,.12-.05.23-.19.23s-.19-.1-.19-.22v-.64a.56.56,0,0,1,.38-.57l.67-.34a.87.87,0,0,1,.44-.11.85.85,0,0,1,.42.11l.7.34a.59.59,0,0,1,.36.61v.63a.18.18,0,0,1-.19.19.18.18,0,0,1-.2-.19V39.7Zm2.2-.39v-.07c0-.16,0-.2-.16-.26l-.67-.34a.59.59,0,0,0-.25-.07.73.73,0,0,0-.32.09l-.64.32c-.16.08-.16.11-.16.29v0Z" style="fill: #fff"/>
    </g>
  </g>
  <g data-name="Layer 6" id="Layer_6">
    <g id="Cons">
      <polygon points="12.59 88.42 12.59 88.42 11.46 87.28 10.33 88.42 10.33 88.42 12.59 88.42" style="fill: #e9e9ea"/>
      <polygon points="12.59 86.16 12.59 86.16 11.45 87.29 10.32 86.16 10.32 86.16 12.59 86.16" style="fill: #b0acb0"/>
      <polygon points="10.32 88.42 10.32 88.42 11.46 87.29 10.33 86.16 10.32 86.16 10.32 88.42" style="fill: #d3d1d3"/>
      <polygon points="12.59 88.42 12.59 88.42 11.45 87.28 12.58 86.15 12.59 86.15 12.59 88.42" style="fill: #989498"/>
      <rect height="1.13" style="fill: #c0bec2" width="1.13" x="10.89" y="86.72"/>
      <rect height="17.37" style="fill: #b0acb0" width="2.27" x="10.32" y="68.78"/>
      <polygon points="19.79 88.42 19.79 88.42 18.66 87.28 17.53 88.42 17.53 88.42 19.79 88.42" style="fill: #e9e9ea"/>
      <polygon points="19.79 86.16 19.79 86.16 18.65 87.29 17.52 86.16 17.52 86.16 19.79 86.16" style="fill: #b0acb0"/>
      <polygon points="17.52 88.42 17.52 88.42 18.66 87.29 17.53 86.16 17.52 86.16 17.52 88.42" style="fill: #d3d1d3"/>
      <polygon points="19.79 88.42 19.79 88.42 18.65 87.28 19.78 86.15 19.79 86.15 19.79 88.42" style="fill: #989498"/>
      <rect height="1.13" style="fill: #c0bec2" width="1.13" x="18.09" y="86.72"/>
      <rect height="17.37" style="fill: #b0acb0" width="2.27" x="17.52" y="68.78"/>
      <polygon points="5.39 88.42 5.39 88.41 4.26 87.28 3.13 88.41 3.13 88.42 5.39 88.42" style="fill: #e9e9ea"/>
      <polygon points="5.39 86.15 5.39 86.15 4.25 87.29 3.12 86.16 3.12 86.15 5.39 86.15" style="fill: #b0acb0"/>
      <polygon points="3.12 88.42 3.12 88.42 4.26 87.28 3.13 86.15 3.12 86.15 3.12 88.42" style="fill: #d3d1d3"/>
      <polygon points="5.39 88.41 5.39 88.41 4.25 87.28 5.38 86.15 5.39 86.15 5.39 88.41" style="fill: #989498"/>
      <rect height="1.13" style="fill: #c0bec2" width="1.13" x="3.69" y="86.72"/>
      <rect height="17.37" style="fill: #b0acb0" width="2.27" x="3.12" y="68.78"/>
    </g>
  </g>
  <g data-name="Connectors" id="Connectors">
    <rect data-cir-type="male" height="1.13" id="circuitoCon_VCC" style="fill: #c0bec2" width="1.13" x="10.89" y="86.72"/>
    <rect data-cir-type="male" height="1.13" id="circuitoCon_GND" style="fill: #c0bec2" width="1.13" x="18.09" y="86.72"/>
    <rect data-cir-type="male" height="1.13" id="circuitoCon_OUT" style="fill: #c0bec2" width="1.13" x="3.69" y="86.72"/>
  </g>
</svg>