<?xml version="1.0" ?><svg height="22.35mm" viewBox="0 0 71.75 63.35" width="25.31mm" xmlns="http://www.w3.org/2000/svg" xmlns:xlink="http://www.w3.org/1999/xlink">
  <defs>
    <radialGradient cx="-336.14" cy="-282.28" gradientTransform="translate(-7.58 -426.36) rotate(-135)" gradientUnits="userSpaceOnUse" id="radial-gradient" r="4.7">
      <stop offset="0" stop-color="#fff"/>
      <stop offset="0.21" stop-color="#eaeced"/>
      <stop offset="0.22" stop-color="#e8eaeb"/>
      <stop offset="0.47" stop-color="#bfc7d0"/>
      <stop offset="0.66" stop-color="#a6b2be"/>
      <stop offset="0.78" stop-color="#9daab8"/>
      <stop offset="0.83" stop-color="#a3b0bd"/>
      <stop offset="0.9" stop-color="#b6c1c9"/>
      <stop offset="0.96" stop-color="#cad5d8"/>
      <stop offset="1" stop-color="#d5e0e4"/>
    </radialGradient>
    <radialGradient cx="-336.15" cy="-282.52" gradientTransform="translate(-7.58 -426.36) rotate(-135)" gradientUnits="userSpaceOnUse" id="radial-gradient-2" r="4.25">
      <stop offset="0" stop-color="#fff"/>
      <stop offset="0.58" stop-color="#a3a9ae"/>
      <stop offset="1" stop-color="#606973"/>
    </radialGradient>
    <linearGradient gradientTransform="translate(-7.58 -426.36) rotate(-135)" gradientUnits="userSpaceOnUse" id="linear-gradient" x1="-336.16" x2="-336.16" y1="-282.54" y2="-278.78">
      <stop offset="0" stop-color="#fff"/>
      <stop offset="1" stop-color="#c9cdd1"/>
    </linearGradient>
    <linearGradient id="linear-gradient-2" x1="-336.16" x2="-336.16" xlink:href="#linear-gradient" y1="-281.43" y2="-280.96"/>
    <radialGradient cx="-336.11" cy="-280.08" gradientTransform="translate(-7.58 -426.36) rotate(-135)" gradientUnits="userSpaceOnUse" id="radial-gradient-3" r="2.04">
      <stop offset="0" stop-color="#838a92"/>
      <stop offset="0.32" stop-color="#7c838c"/>
      <stop offset="0.8" stop-color="#686f7a"/>
      <stop offset="1" stop-color="#5e6570"/>
    </radialGradient>
    <radialGradient cx="-342.7" cy="-275.58" id="radial-gradient-4" r="4.7" xlink:href="#radial-gradient"/>
    <radialGradient cx="-342.7" cy="-275.83" id="radial-gradient-5" r="4.25" xlink:href="#radial-gradient-2"/>
    <linearGradient id="linear-gradient-3" x1="-342.72" x2="-342.72" xlink:href="#linear-gradient" y1="-275.84" y2="-272.09"/>
    <linearGradient id="linear-gradient-4" x1="-342.72" x2="-342.72" xlink:href="#linear-gradient" y1="-274.74" y2="-274.27"/>
    <radialGradient cx="-342.67" cy="-273.39" id="radial-gradient-6" r="2.04" xlink:href="#radial-gradient-3"/>
  </defs>
  <title>INA219 High Side DC Current Sensor Breakout - 26V ±3.2A Max</title>
  <g style="isolation: isolate">
    <g id="HOLES">
      <path d="M66.66.25H5.08A5.07,5.07,0,0,0,0,5.33V58.27a5.07,5.07,0,0,0,5.08,5.08H66.66a5.08,5.08,0,0,0,5.09-5.08V5.33A5.08,5.08,0,0,0,66.66.25ZM6.58,60.1a4,4,0,1,1,4-4A4,4,0,0,1,6.58,60.1Zm0-48.88a4,4,0,1,1,4-4A4,4,0,0,1,6.58,11.22Zm12,46.63a2,2,0,1,1,2-2A2,2,0,0,1,18.56,57.85Zm4.2-30.74A1.27,1.27,0,1,1,24,25.84,1.26,1.26,0,0,1,22.76,27.11Zm3,30.74a2,2,0,1,1,2-2A2,2,0,0,1,25.78,57.85Zm2.71-24.43a1.26,1.26,0,0,1,0-2.52,1.26,1.26,0,1,1,0,2.52ZM33,57.85a2,2,0,1,1,2-2A2,2,0,0,1,33,57.85Zm7.19,0a2,2,0,1,1,2-2A2,2,0,0,1,40.19,57.85ZM43.94,46.1a1.26,1.26,0,0,1,0-2.52,1.26,1.26,0,1,1,0,2.52Zm3.44,11.75a2,2,0,1,1,2-2A2,2,0,0,1,47.38,57.85Zm3.49-31.39a1.26,1.26,0,1,1,1.26-1.26A1.26,1.26,0,0,1,50.87,26.46Zm3.71,31.39a2,2,0,1,1,2-2A2,2,0,0,1,54.58,57.85ZM65,60.1a4,4,0,1,1,4-4A4,4,0,0,1,65,60.1Zm0-48.88a4,4,0,1,1,4-4A4,4,0,0,1,65,11.22Z" style="fill: #1a2c80"/>
    </g>
    <g id="LINES">
      <polyline points="29.56 32.82 34.75 32.82 34.75 34.91" style="fill: none;stroke: #0b5597;stroke-linecap: round;stroke-linejoin: round;stroke-width: 0.5px"/>
      <line style="fill: none;stroke: #0b5597;stroke-linecap: round;stroke-linejoin: round;stroke-width: 0.5px" x1="26.62" x2="33.33" y1="35.9" y2="35.9"/>
      <line style="fill: none;stroke: #0b5597;stroke-linecap: round;stroke-linejoin: round;stroke-width: 0.5px" x1="43.94" x2="38.21" y1="28.27" y2="34.36"/>
      <polyline points="39.25 38.52 42.04 38.52 42.04 34.36 44.95 31.44 55.03 31.44" style="fill: none;stroke: #0b5597;stroke-linecap: round;stroke-linejoin: round;stroke-width: 0.5px"/>
      <polyline points="38.71 40.56 42.68 40.56 43.69 39.55 43.69 34.98 45.96 32.72 54.83 32.72 54.83 36.22" style="fill: none;stroke: #0b5597;stroke-linecap: round;stroke-linejoin: round;stroke-width: 0.5px"/>
      <line style="fill: none;stroke: #0b5597;stroke-linecap: round;stroke-linejoin: round;stroke-width: 0.5px" x1="56.8" x2="64.55" y1="32.82" y2="32.82"/>
      <polyline points="36.57 44.31 36.57 46.11 37.88 47.42 59.35 47.42 60.73 46.03" style="fill: none;stroke: #0b5597;stroke-linecap: round;stroke-linejoin: round;stroke-width: 0.5px"/>
      <polyline points="34.75 43.98 34.75 47.45 40.07 52.77 40.07 53.87" style="fill: none;stroke: #0b5597;stroke-linecap: round;stroke-linejoin: round;stroke-width: 0.5px"/>
      <polyline points="31.23 54.27 31.23 46.77 33.54 44.47" style="fill: none;stroke: #0b5597;stroke-linecap: round;stroke-linejoin: round;stroke-width: 0.5px"/>
      <polyline points="31.23 46.77 19.45 46.77 17.87 45.18 17.87 43.98" style="fill: none;stroke: #0b5597;stroke-linecap: round;stroke-linejoin: round;stroke-width: 0.5px"/>
      <polyline points="25.8 53.6 25.8 50.15 23.86 48.2 17.08 48.2 12.04 43.16" style="fill: none;stroke: #0b5597;stroke-linecap: round;stroke-linejoin: round;stroke-width: 0.5px"/>
      <polyline points="18.78 53.6 18.78 51.94 13.55 46.71 7.91 46.71 6.14 44.95 6.14 37.32 6.8 36.66 10.04 36.66" style="fill: none;stroke: #0b5597;stroke-linecap: round;stroke-linejoin: round;stroke-width: 0.5px"/>
      <path d="M26.09,43.18,30,40.06s2.47-.22,2.57-.25" style="fill: none;stroke: #0b5597;stroke-linecap: round;stroke-linejoin: round;stroke-width: 0.5px"/>
      <line style="fill: none;stroke: #0b5597;stroke-linecap: round;stroke-linejoin: round;stroke-width: 2px" x1="45.23" x2="48.7" y1="24.94" y2="24.94"/>
      <line style="fill: none;stroke: #0b5597;stroke-linecap: round;stroke-linejoin: round;stroke-width: 2px" x1="43.58" x2="43.58" y1="20.56" y2="16.18"/>
      <line style="fill: none;stroke: #0b5597;stroke-linecap: round;stroke-linejoin: round;stroke-width: 2px" x1="28.49" x2="28.49" y1="20.56" y2="16.18"/>
    </g>
    <g data-name="Layer 2" id="Layer_2">
      <g>
        <rect height="9.31" style="fill: #51b4e5" width="18.4" x="26.83" y="5.46"/>
        <rect height="6.05" style="fill: #073054" width="0.97" x="35.76" y="6.82"/>
        <rect height="1.26" style="fill: #526cb1" width="18.4" x="26.83" y="4.2"/>
        <path d="M26.83,18h18.4V14.77H26.83Z" style="fill: #526cb1"/>
        <g>
          <circle cx="31.58" cy="9.88" r="3.27" style="fill: url(#radial-gradient)"/>
          <circle cx="31.16" cy="10.3" r="2.51" style="opacity: 0.8;mix-blend-mode: soft-light;fill: url(#radial-gradient-2)"/>
          <g>
            <path d="M30,8.8l1,1-1,1,.68.68,1-1,1,1,.56-.56a.18.18,0,0,0,0-.24l-.87-.87.87-.87a.17.17,0,0,0,0-.23l-.45-.45a.17.17,0,0,0-.23,0l-.87.87-.87-.87a.18.18,0,0,0-.24,0Z" style="opacity: 0.8;fill: url(#linear-gradient)"/>
            <path d="M33.18,10.93l-1-1,1-1-.68-.67-1,1-1-1L30,8.84a.15.15,0,0,0,0,.23l.87.87-.87.87a.16.16,0,0,0,0,.24l.44.44a.15.15,0,0,0,.23,0l.88-.87.87.87a.15.15,0,0,0,.23,0Z" style="fill: url(#linear-gradient-2)"/>
            <path d="M30,9l.92.91L30,10.8a.1.1,0,0,0,0,.14l.53.54a.11.11,0,0,0,.15,0l.92-.92.91.92a.11.11,0,0,0,.15,0l.53-.54a.1.1,0,0,0,0-.14l-.91-.92L33.17,9a.11.11,0,0,0,0-.15l-.53-.53a.11.11,0,0,0-.15,0l-.91.91-.92-.91a.11.11,0,0,0-.15,0L30,8.82A.11.11,0,0,0,30,9Z" style="fill: url(#radial-gradient-3)"/>
            <g>
              <path d="M32.76,11.22l-.85-.85a.11.11,0,0,0-.15,0l-.18.19.91.92a.11.11,0,0,0,.15,0l.26-.26A.1.1,0,0,1,32.76,11.22Z" style="fill: #30383a;opacity: 0.43"/>
              <path d="M30.78,11.22l-.54-.54a.1.1,0,0,1,0-.14L30,10.8a.1.1,0,0,0,0,.14l.53.54a.11.11,0,0,0,.15,0l.26-.26A.1.1,0,0,1,30.78,11.22Z" style="fill: #30383a;opacity: 0.43"/>
              <path d="M30,9l.92.91.19-.19a.1.1,0,0,0,0-.14l-.85-.85a.1.1,0,0,1,0-.14L30,8.82A.11.11,0,0,0,30,9Z" style="fill: #30383a;opacity: 0.43"/>
            </g>
          </g>
        </g>
        <g>
          <circle cx="40.95" cy="9.78" r="3.27" style="fill: url(#radial-gradient-4)"/>
          <circle cx="40.53" cy="10.2" r="2.51" style="opacity: 0.8;mix-blend-mode: soft-light;fill: url(#radial-gradient-5)"/>
          <g>
            <path d="M39.37,8.71l1,1-1,1,.68.68,1-1,1,1,.56-.57a.17.17,0,0,0,0-.23l-.87-.87.87-.87a.18.18,0,0,0,0-.24l-.45-.44a.15.15,0,0,0-.23,0L41,9l-.87-.87a.16.16,0,0,0-.24,0Z" style="opacity: 0.8;fill: url(#linear-gradient-3)"/>
            <path d="M42.55,10.84l-1-1,1-1-.68-.68-1,1-1-1-.56.56a.16.16,0,0,0,0,.24l.87.87-.87.87a.16.16,0,0,0,0,.24l.44.44a.17.17,0,0,0,.23,0l.88-.87.87.87a.17.17,0,0,0,.23,0Z" style="fill: url(#linear-gradient-4)"/>
            <path d="M39.35,8.87l.92.92-.92.91a.11.11,0,0,0,0,.15l.53.53a.11.11,0,0,0,.15,0l.92-.92.91.92a.11.11,0,0,0,.15,0l.53-.53a.11.11,0,0,0,0-.15l-.91-.91.91-.92a.11.11,0,0,0,0-.15L42,8.19a.11.11,0,0,0-.15,0L41,9.11,40,8.19a.11.11,0,0,0-.15,0l-.53.53A.11.11,0,0,0,39.35,8.87Z" style="fill: url(#radial-gradient-6)"/>
            <g>
              <path d="M42.13,11.12l-.85-.84a.11.11,0,0,0-.15,0l-.18.18.91.92a.11.11,0,0,0,.15,0l.26-.26A.1.1,0,0,1,42.13,11.12Z" style="fill: #30383a;opacity: 0.43"/>
              <path d="M40.15,11.12l-.54-.53a.11.11,0,0,1,0-.15l-.26.26a.11.11,0,0,0,0,.15l.53.53a.11.11,0,0,0,.15,0l.26-.26A.1.1,0,0,1,40.15,11.12Z" style="fill: #30383a;opacity: 0.43"/>
              <path d="M39.35,8.87l.92.92.19-.19a.11.11,0,0,0,0-.15l-.85-.84a.11.11,0,0,1,0-.15l-.26.26A.11.11,0,0,0,39.35,8.87Z" style="fill: #30383a;opacity: 0.43"/>
            </g>
          </g>
        </g>
        <g>
          <path d="M32.35,16.09a.79.79,0,1,1-.79-.79A.79.79,0,0,1,32.35,16.09Z" style="fill: #124471"/>
          <path d="M31.19,16.77l-.05,0a.38.38,0,0,1-.12-.09l1-1.23.08.07.06.06Z" style="fill: #124471"/>
        </g>
        <g>
          <path d="M41.71,16.09a.79.79,0,1,1-.79-.79A.8.8,0,0,1,41.71,16.09Z" style="fill: #124471"/>
          <path d="M40.54,16.77l0,0a.38.38,0,0,1-.12-.09l1-1.23.09.07.06.06Z" style="fill: #124471"/>
        </g>
      </g>
    </g>
    <g id="text">
      <g>
        <path d="M49.72,2v.6l-.66,1.67c0,.08-.08.13-.15.13a.19.19,0,0,1-.17-.13l-.65-1.67V2a.17.17,0,0,1,.16-.16.18.18,0,0,1,.12.05.15.15,0,0,1,0,.11v.53l.5,1.26.49-1.25V2a.15.15,0,0,1,0-.11.18.18,0,0,1,.12-.05.16.16,0,0,1,.11.05A.13.13,0,0,1,49.72,2Z" style="fill: #fff"/>
        <path d="M51.77,4.43h-1a.13.13,0,0,1-.12,0,.15.15,0,0,1,0-.22.13.13,0,0,1,.12,0h.33V2.9h-.33a.15.15,0,0,1-.12,0,.15.15,0,0,1,0-.11.19.19,0,0,1,0-.12.17.17,0,0,1,.12,0h.49a.17.17,0,0,1,.12,0,.19.19,0,0,1,0,.12V4.11h.33a.13.13,0,0,1,.11,0,.14.14,0,0,1,0,.11.17.17,0,0,1-.16.16Zm-.66-2.69h.17a.17.17,0,0,1,.12,0,.17.17,0,0,1,0,.12V2a.15.15,0,0,1,0,.11.15.15,0,0,1-.12.05h-.17A.13.13,0,0,1,51,2.15.15.15,0,0,1,51,2V1.9a.18.18,0,0,1,0-.12A.15.15,0,0,1,51.11,1.74Z" style="fill: #fff"/>
        <path d="M53.61,3l-.44.29v1a.18.18,0,0,1-.05.12.16.16,0,0,1-.11.05.17.17,0,0,1-.12-.05.18.18,0,0,1,0-.12V2.74a.21.21,0,0,1,0-.12.16.16,0,0,1,.12,0,.15.15,0,0,1,.11,0,.21.21,0,0,1,.05.12v.11l.29-.18a.64.64,0,0,1,.34-.09H54a.44.44,0,0,1,.33.13.53.53,0,0,1,.15.34l0,1.22a.17.17,0,0,1,0,.12.18.18,0,0,1-.12.05.16.16,0,0,1-.11-.05.17.17,0,0,1-.05-.12l0-1.2c0-.11-.06-.17-.18-.17h-.15A.37.37,0,0,0,53.61,3Z" style="fill: #fff"/>
        <path d="M55.87,3v-.5a.16.16,0,0,1,.05-.11.17.17,0,0,1,.12,0,.17.17,0,0,1,.16.16V3h.49a.13.13,0,0,1,.12,0,.16.16,0,0,1,0,.11.14.14,0,0,1,0,.11.13.13,0,0,1-.12.05H56.2v.5a.21.21,0,0,1-.05.12A.15.15,0,0,1,56,4a.16.16,0,0,1-.12,0,.21.21,0,0,1-.05-.12v-.5h-.49a.15.15,0,0,1-.12-.05.14.14,0,0,1,0-.11.15.15,0,0,1,0-.11.15.15,0,0,1,.12,0Z" style="fill: #fff"/>
      </g>
      <g>
        <path d="M17,2v.6l-.66,1.67c0,.08-.08.13-.15.13A.19.19,0,0,1,16,4.31l-.65-1.67V2a.17.17,0,0,1,.16-.16.18.18,0,0,1,.12.05.15.15,0,0,1,0,.11v.53l.5,1.26.49-1.25V2a.15.15,0,0,1,0-.11.18.18,0,0,1,.12-.05.16.16,0,0,1,.11.05A.13.13,0,0,1,17,2Z" style="fill: #fff"/>
        <path d="M19,4.43H18a.13.13,0,0,1-.12,0,.15.15,0,0,1,0-.22.13.13,0,0,1,.12,0h.33V2.9H18a.15.15,0,0,1-.12,0,.15.15,0,0,1,0-.11.19.19,0,0,1,0-.12.17.17,0,0,1,.12,0h.49a.17.17,0,0,1,.12,0,.19.19,0,0,1,0,.12V4.11H19a.13.13,0,0,1,.11,0,.14.14,0,0,1,.05.11.17.17,0,0,1-.16.16Zm-.66-2.69h.17a.17.17,0,0,1,.12,0,.17.17,0,0,1,0,.12V2a.15.15,0,0,1,0,.11.15.15,0,0,1-.12.05h-.17a.13.13,0,0,1-.12-.05.15.15,0,0,1,0-.11V1.9a.18.18,0,0,1,.05-.12A.15.15,0,0,1,18.36,1.74Z" style="fill: #fff"/>
        <path d="M20.86,3l-.44.29v1a.18.18,0,0,1-.05.12.16.16,0,0,1-.11.05.17.17,0,0,1-.12-.05.18.18,0,0,1-.05-.12V2.74a.21.21,0,0,1,.05-.12.16.16,0,0,1,.12,0,.15.15,0,0,1,.11,0,.21.21,0,0,1,.05.12v.11l.29-.18a.64.64,0,0,1,.34-.09h.15a.44.44,0,0,1,.33.13.53.53,0,0,1,.15.34l0,1.22a.17.17,0,0,1,0,.12.18.18,0,0,1-.12.05.16.16,0,0,1-.11-.05.17.17,0,0,1-.05-.12l0-1.2c0-.11-.06-.17-.18-.17H21A.37.37,0,0,0,20.86,3Z" style="fill: #fff"/>
        <path d="M24.1,3.15v.14a.21.21,0,0,1-.05.12.15.15,0,0,1-.11,0H22.63a.15.15,0,0,1-.11,0,.21.21,0,0,1-.05-.12V3.15A.17.17,0,0,1,22.52,3a.16.16,0,0,1,.11,0h1.31a.16.16,0,0,1,.11,0A.17.17,0,0,1,24.1,3.15Z" style="fill: #fff"/>
      </g>
      <g>
        <path d="M5.39,23.34H6a.17.17,0,0,1,.12.05.18.18,0,0,1,.06.13.14.14,0,0,1-.06.12.13.13,0,0,1-.12.05H5.37a.44.44,0,0,1-.26-.08.53.53,0,0,1-.19-.17l-.4-.78a.89.89,0,0,1-.08-.35A.63.63,0,0,1,4.52,22l.4-.77A.64.64,0,0,1,5.1,21a.52.52,0,0,1,.24-.08H6a.17.17,0,0,1,.12.05.17.17,0,0,1,.06.12.18.18,0,0,1-.06.13.13.13,0,0,1-.12.05H5.37c-.06,0-.1,0-.14.1l-.39.72a.46.46,0,0,0,0,.21.36.36,0,0,0,0,.21l.37.71A.16.16,0,0,0,5.39,23.34Z" style="fill: #fff"/>
        <path d="M7.83,23.34,8.42,23v-1.1a.17.17,0,0,1,.05-.12.16.16,0,0,1,.12-.06.18.18,0,0,1,.13.06.17.17,0,0,1,0,.12v1.66a.18.18,0,0,1,0,.12.17.17,0,0,1-.13.05.16.16,0,0,1-.12-.05.18.18,0,0,1-.05-.12v-.14l-.3.2a.72.72,0,0,1-.36.11H7.59a.49.49,0,0,1-.36-.15.51.51,0,0,1-.17-.36l0-1.32a.15.15,0,0,1,0-.12.15.15,0,0,1,.13,0,.16.16,0,0,1,.12,0,.17.17,0,0,1,.05.12l0,1.29c0,.13.07.19.21.19Z" style="fill: #fff"/>
        <path d="M9.57,23.52V21.86a.17.17,0,0,1,0-.12.18.18,0,0,1,.13-.06.17.17,0,0,1,.17.18v.22l.29-.24a.52.52,0,0,1,.34-.15h.26a.53.53,0,0,1,.37.15.51.51,0,0,1,.15.37v.09a.19.19,0,0,1-.05.13.13.13,0,0,1-.12.05.17.17,0,0,1-.18-.17v-.1a.17.17,0,0,0-.17-.17h-.23a.25.25,0,0,0-.16.07l-.5.43v1a.17.17,0,0,1-.05.12.15.15,0,0,1-.12.05.17.17,0,0,1-.18-.17Z" style="fill: #fff"/>
        <path d="M12.14,23.52V21.86a.17.17,0,0,1,0-.12.18.18,0,0,1,.13-.06.17.17,0,0,1,.17.18v.22l.29-.24a.54.54,0,0,1,.34-.15h.26a.51.51,0,0,1,.52.52v.09a.15.15,0,0,1-.05.13.13.13,0,0,1-.12.05.17.17,0,0,1-.18-.17v-.1a.17.17,0,0,0-.17-.17h-.23a.25.25,0,0,0-.16.07l-.5.43v1a.17.17,0,0,1-.17.17.17.17,0,0,1-.18-.17Z" style="fill: #fff"/>
        <path d="M16.47,22.34v.43a.16.16,0,0,1,0,.12.17.17,0,0,1-.12.05H15.06V23a.19.19,0,0,0,.08.15l.1.09a.29.29,0,0,0,.16.06h.9a.17.17,0,0,1,.17.18.15.15,0,0,1,0,.12.13.13,0,0,1-.12.05h-.92a.43.43,0,0,1-.19,0,.35.35,0,0,1-.15-.08l-.16-.13a.43.43,0,0,1-.12-.17.45.45,0,0,1,0-.19v-.8a.62.62,0,0,1,0-.18.44.44,0,0,1,.14-.18L15,21.8a.56.56,0,0,1,.32-.11h.49a.5.5,0,0,1,.35.15l.13.13A.45.45,0,0,1,16.47,22.34Zm-1.4,0v.27h1.06v-.25a.2.2,0,0,0-.06-.15L16,22.1a.27.27,0,0,0-.14-.06h-.44a.2.2,0,0,0-.15.06l-.1.08A.16.16,0,0,0,15.07,22.32Z" style="fill: #fff"/>
        <path d="M18.11,22.09l-.47.31v1.12a.16.16,0,0,1-.06.12.17.17,0,0,1-.24,0,.15.15,0,0,1-.05-.12V21.86a.13.13,0,0,1,.05-.12.18.18,0,0,1,.3.12V22l.31-.2a.76.76,0,0,1,.37-.1h.16a.49.49,0,0,1,.36.15.54.54,0,0,1,.16.36l.05,1.33a.18.18,0,0,1-.05.12.17.17,0,0,1-.13.05.19.19,0,0,1-.12,0,.21.21,0,0,1-.05-.13l-.05-1.31a.17.17,0,0,0-.2-.18h-.17A.32.32,0,0,0,18.11,22.09Z" style="fill: #fff"/>
        <path d="M21.08,23.69h-.35a.53.53,0,0,1-.37-.15.51.51,0,0,1-.15-.37V22H20a.17.17,0,0,1-.18-.18.17.17,0,0,1,.18-.17h.18v-.43a.17.17,0,0,1,.18-.18.17.17,0,0,1,.12.06.17.17,0,0,1,0,.12v.43h.7a.17.17,0,0,1,.13.29.18.18,0,0,1-.13.06h-.7v1.13a.13.13,0,0,0,.05.12.15.15,0,0,0,.12.05h.35a.18.18,0,0,0,.18-.15.18.18,0,0,1,.18-.15.17.17,0,0,1,.17.18.47.47,0,0,1-.15.32A.5.5,0,0,1,21.08,23.69Z" style="fill: #fff"/>
      </g>
      <g>
        <path d="M1.54,15.81H3a.13.13,0,0,1,.12,0,.14.14,0,0,1,.06.12.18.18,0,0,1-.06.13.17.17,0,0,1-.12.05H2.42v2.06H3a.21.21,0,0,1,.13.05.17.17,0,0,1,0,.12.18.18,0,0,1-.06.13.17.17,0,0,1-.12.05H1.54a.17.17,0,0,1-.12-.05.18.18,0,0,1-.06-.13.14.14,0,0,1,.06-.12.17.17,0,0,1,.12-.05h.53V16.16H1.54a.17.17,0,0,1-.12-.05A.18.18,0,0,1,1.36,16a.14.14,0,0,1,.06-.12A.13.13,0,0,1,1.54,15.81Z" style="fill: #fff"/>
        <path d="M5.7,16v2.59H5.23l-.94-2.15v2a.17.17,0,0,1-.18.18A.18.18,0,0,1,4,18.52a.21.21,0,0,1-.05-.13V15.81H4.4L5.34,18V16a.16.16,0,0,1,.06-.12.13.13,0,0,1,.12,0A.17.17,0,0,1,5.7,16Z" style="fill: #fff"/>
        <path d="M6.52,18.32l.7-2.38a.17.17,0,0,1,.18-.13c.09,0,.14,0,.16.11l.7,2.42a.11.11,0,0,1,0,.05.21.21,0,0,1,0,.13.17.17,0,0,1-.12.05.17.17,0,0,1-.17-.13L7.79,18H7l-.15.5s0,.05,0,.07a.19.19,0,0,1-.1,0,.19.19,0,0,1-.13-.05.21.21,0,0,1,0-.13A.2.2,0,0,1,6.52,18.32Zm.88-1.71-.3,1h.59Z" style="fill: #fff"/>
        <path d="M10.67,18.56H9.08v-1.2a.33.33,0,0,1,.1-.25A.34.34,0,0,1,9.43,17h1.06v-.85H9.24a.17.17,0,1,1,0-.34h1.25a.35.35,0,0,1,.25.1.33.33,0,0,1,.1.24V17a.32.32,0,0,1-.1.25.36.36,0,0,1-.25.11H9.43v.85h1.24a.17.17,0,0,1,.12.06.17.17,0,0,1,0,.24A.16.16,0,0,1,10.67,18.56Z" style="fill: #fff"/>
        <path d="M11.81,18.21h.54V16.15h-.53a.13.13,0,0,1-.12,0,.17.17,0,0,1,0-.24.13.13,0,0,1,.12,0h.88v2.4h.35v-.72a.21.21,0,0,1,0-.13.18.18,0,0,1,.12-.05.17.17,0,0,1,.18.18v.9a.17.17,0,0,1-.18.17H11.81a.16.16,0,0,1-.12,0,.19.19,0,0,1,0-.13.17.17,0,0,1,.17-.17Z" style="fill: #fff"/>
        <path d="M15.81,18.56h-.18a.18.18,0,0,1-.12,0,.21.21,0,0,1,0-.13.18.18,0,0,1,0-.12.17.17,0,0,1,.12-.05V17.06H14.4a.16.16,0,0,1-.12-.06.17.17,0,0,1,0-.12V16a.21.21,0,0,1,0-.13.18.18,0,0,1,.12,0h1.41a.18.18,0,0,1,.12,0A.21.21,0,0,1,16,16v2.4a.17.17,0,0,1-.17.18Zm-.17-1.86v-.55H14.58v.55Z" style="fill: #fff"/>
        <path d="M19.54,15.81h.69a.52.52,0,0,1,.26.08.54.54,0,0,1,.19.21l.34.7a.76.76,0,0,1,.1.39.81.81,0,0,1-.1.39l-.35.69a.57.57,0,0,1-.19.22.54.54,0,0,1-.28.08h-.67a.17.17,0,0,1-.12-.05.21.21,0,0,1-.05-.13.17.17,0,0,1,.05-.12.14.14,0,0,1,.12-.06h.19V16.16h-.18a.17.17,0,0,1-.18-.18.17.17,0,0,1,.18-.17Zm.52.35v2.06h.13a.19.19,0,0,0,.17-.12l.35-.68a.6.6,0,0,0,.06-.23.5.5,0,0,0-.05-.21l-.36-.72a.19.19,0,0,0-.18-.1Z" style="fill: #fff"/>
        <path d="M22.89,18.22h.63a.19.19,0,0,1,.13.05.13.13,0,0,1,.05.12.17.17,0,0,1-.05.13.19.19,0,0,1-.13.05h-.65a.56.56,0,0,1-.26-.08.44.44,0,0,1-.18-.18l-.4-.78a.68.68,0,0,1-.08-.34.71.71,0,0,1,.07-.34l.41-.77a.54.54,0,0,1,.18-.19.38.38,0,0,1,.24-.08h.69a.17.17,0,0,1,.17.17.17.17,0,0,1-.17.18h-.67a.14.14,0,0,0-.13.1l-.39.72a.33.33,0,0,0,0,.2.41.41,0,0,0,0,.22l.37.71A.2.2,0,0,0,22.89,18.22Z" style="fill: #fff"/>
      </g>
      <g>
        <path d="M5.89,25.93H6.8a.46.46,0,0,1,.31.14.45.45,0,0,1,.15.34.21.21,0,0,1,0,.13.21.21,0,0,1-.12.05c-.06,0-.1,0-.12,0a.35.35,0,0,1-.07-.15c0-.08-.06-.11-.13-.11H5.9s-.06,0-.06,0a.15.15,0,0,0,0,.06L7.17,28a.43.43,0,0,1,.09.26.39.39,0,0,1-.11.27.35.35,0,0,1-.26.12H6a.41.41,0,0,1-.32-.14.44.44,0,0,1-.14-.31c0-.13.06-.2.18-.2a.17.17,0,0,1,.12.05.16.16,0,0,1,0,.12.18.18,0,0,0,0,.1.17.17,0,0,0,.1,0h.87s.05,0,.05,0a.08.08,0,0,0,0-.06l-1.3-1.65a.43.43,0,0,1-.09-.26.38.38,0,0,1,.12-.28A.36.36,0,0,1,5.89,25.93Z" style="fill: #fff"/>
        <path d="M9.82,27.34v.43a.16.16,0,0,1-.05.12.17.17,0,0,1-.12.05H8.41V28a.19.19,0,0,0,.08.15l.1.09a.29.29,0,0,0,.16.06h.9a.17.17,0,0,1,.17.18.15.15,0,0,1-.05.12.16.16,0,0,1-.12.05H8.73a.43.43,0,0,1-.19,0,.35.35,0,0,1-.15-.08l-.16-.13a.43.43,0,0,1-.12-.17.45.45,0,0,1,0-.19v-.8a.62.62,0,0,1,0-.18.44.44,0,0,1,.14-.18l.14-.12a.54.54,0,0,1,.32-.11H9.2a.52.52,0,0,1,.35.15l.13.13A.45.45,0,0,1,9.82,27.34Zm-1.4,0v.27H9.48v-.25a.2.2,0,0,0-.06-.15l-.1-.09A.26.26,0,0,0,9.17,27H8.74a.2.2,0,0,0-.15.06l-.1.08A.16.16,0,0,0,8.42,27.32Z" style="fill: #fff"/>
        <path d="M11.46,27.09,11,27.4v1.12a.15.15,0,0,1-.05.12.17.17,0,0,1-.24,0,.15.15,0,0,1,0-.12V26.86a.13.13,0,0,1,0-.12.15.15,0,0,1,.24,0,.13.13,0,0,1,.05.12V27l.32-.2a.76.76,0,0,1,.37-.1h.16a.49.49,0,0,1,.36.15.54.54,0,0,1,.16.36l.05,1.33a.18.18,0,0,1-.05.12.17.17,0,0,1-.13.05.19.19,0,0,1-.12,0,.21.21,0,0,1,0-.13L12,27.21c0-.12-.06-.18-.19-.18h-.17A.32.32,0,0,0,11.46,27.09Z" style="fill: #fff"/>
        <path d="M13.7,26.69h.8a.51.51,0,0,1,.33.11A.29.29,0,0,1,15,27a.18.18,0,0,1-.05.12.21.21,0,0,1-.12.05.19.19,0,0,1-.15-.08A.21.21,0,0,0,14.5,27h-.79c-.07,0-.11,0-.11.09s0,.08.08.11l.92.41a.5.5,0,0,1,.23.2.48.48,0,0,1,.1.31.55.55,0,0,1-.16.38.53.53,0,0,1-.36.15H13.7a.53.53,0,0,1-.34-.11c-.11-.07-.16-.14-.16-.21a.17.17,0,0,1,.05-.12.18.18,0,0,1,.14-.06.23.23,0,0,1,.14.08.29.29,0,0,0,.22.07h.65a.18.18,0,0,0,.13-.06.21.21,0,0,0,.05-.13.17.17,0,0,0-.12-.17l-.94-.42a.44.44,0,0,1-.2-.18.43.43,0,0,1-.08-.23.51.51,0,0,1,.13-.33A.44.44,0,0,1,13.7,26.69Z" style="fill: #fff"/>
        <path d="M17.54,27.32v.73a.59.59,0,0,1-.23.44.66.66,0,0,1-.45.2h-.41a.7.7,0,0,1-.46-.2.62.62,0,0,1-.22-.44v-.73a.55.55,0,0,1,.22-.43.63.63,0,0,1,.46-.21h.41a.62.62,0,0,1,.45.2A.59.59,0,0,1,17.54,27.32Zm-1.41,0V28a.18.18,0,0,0,.07.15l.13.11a.16.16,0,0,0,.12,0h.4a.23.23,0,0,0,.17-.07l.1-.09a.15.15,0,0,0,.07-.14v-.71a.17.17,0,0,0-.07-.15l-.12-.1a.25.25,0,0,0-.15,0h-.36a.24.24,0,0,0-.18.06l-.12.1A.18.18,0,0,0,16.13,27.33Z" style="fill: #fff"/>
        <path d="M18.35,28.52V26.86a.17.17,0,0,1,0-.12.14.14,0,0,1,.12-.06.17.17,0,0,1,.18.18v.22l.28-.24a.56.56,0,0,1,.35-.15h.25a.5.5,0,0,1,.37.15.49.49,0,0,1,.16.37v.09a.19.19,0,0,1-.05.13.17.17,0,0,1-.13.05.17.17,0,0,1-.17-.17v-.1a.17.17,0,0,0-.18-.17h-.22a.27.27,0,0,0-.17.07l-.49.43v1a.17.17,0,0,1-.18.17.13.13,0,0,1-.12-.05A.17.17,0,0,1,18.35,28.52Z" style="fill: #fff"/>
      </g>
      <g>
        <path d="M34,33.14V30.55h1.23a.55.55,0,0,1,.53.53v.2a.55.55,0,0,1-.16.38.5.5,0,0,1-.37.15H35L35.72,33a.21.21,0,0,1,0,.1.18.18,0,0,1-.06.13.18.18,0,0,1-.12,0,.17.17,0,0,1-.16-.1l-.82-1.41h-.25v1.33a.17.17,0,0,1-.18.18.17.17,0,0,1-.17-.18Zm.35-1.68h.88a.21.21,0,0,0,.13-.05.18.18,0,0,0,0-.12v-.21a.18.18,0,0,0,0-.12.21.21,0,0,0-.13-.05h-.88Z" style="fill: #fff"/>
        <path d="M37.2,33H38v-.85H37V30.55h1.23a.17.17,0,0,1,.12.06.17.17,0,0,1,0,.24.15.15,0,0,1-.12,0h-.88v.86H38a.34.34,0,0,1,.35.35V33a.34.34,0,0,1-.35.35H37.2a.5.5,0,0,1-.23-.05l-.26-.11A.17.17,0,0,1,36.6,33a.18.18,0,0,1,0-.12.17.17,0,0,1,.12,0l.12,0,.23.1A.12.12,0,0,0,37.2,33Z" style="fill: #fff"/>
      </g>
      <g>
        <path d="M46.54,29.68H48a.13.13,0,0,1,.12.05.14.14,0,0,1,.06.12A.17.17,0,0,1,48,30h-.53v2.06H48a.21.21,0,0,1,.13,0,.17.17,0,0,1,.05.12.17.17,0,0,1-.18.18H46.54a.17.17,0,0,1-.12,0,.18.18,0,0,1-.06-.13.14.14,0,0,1,.06-.12.17.17,0,0,1,.12,0h.54V30h-.54a.17.17,0,0,1-.12-.05.18.18,0,0,1-.06-.13.14.14,0,0,1,.06-.12A.13.13,0,0,1,46.54,29.68Z" style="fill: #fff"/>
        <path d="M50.52,32.43H48.94v-1.2A.33.33,0,0,1,49,31a.34.34,0,0,1,.24-.11h1.06V30H49.1a.17.17,0,1,1,0-.34h1.24a.33.33,0,0,1,.25.1.34.34,0,0,1,.11.24v.85a.33.33,0,0,1-.11.25.34.34,0,0,1-.25.11H49.28v.85h1.24a.18.18,0,0,1,.13.06.17.17,0,0,1-.13.29Z" style="fill: #fff"/>
        <path d="M52.47,32.09h.63a.17.17,0,0,1,.12,0,.14.14,0,0,1,.06.12.18.18,0,0,1-.06.13.17.17,0,0,1-.12,0h-.65a.52.52,0,0,1-.26-.08.47.47,0,0,1-.19-.18l-.4-.78a.81.81,0,0,1-.08-.34.61.61,0,0,1,.08-.34L52,30a.54.54,0,0,1,.18-.19.4.4,0,0,1,.24-.08h.69a.13.13,0,0,1,.12.05.14.14,0,0,1,.06.12.18.18,0,0,1-.06.13.17.17,0,0,1-.12.05h-.66c-.06,0-.1,0-.14.1l-.39.72a.42.42,0,0,0,0,.2.4.4,0,0,0,0,.22l.37.71A.18.18,0,0,0,52.47,32.09Z" style="fill: #fff"/>
      </g>
      <g>
        <path d="M54.48,32.24l.58-1.94a.14.14,0,0,1,.14-.11c.07,0,.12,0,.13.09l.57,2s0,0,0,0a.21.21,0,0,1,0,.1.18.18,0,0,1-.1,0,.14.14,0,0,1-.14-.11L55.52,32h-.65l-.13.41a.05.05,0,0,1,0,0,.11.11,0,0,1-.08,0,.15.15,0,0,1-.1,0,.15.15,0,0,1,0-.11Zm.72-1.39-.25.81h.48Z" style="fill: #fff"/>
        <path d="M57.71,31v-.67a.14.14,0,0,1,.24-.1.14.14,0,0,1,0,.1v2a.16.16,0,0,1,0,.1.14.14,0,0,1-.2,0,.14.14,0,0,1,0-.1v-.07a.59.59,0,0,1-.39.21h-.24a.42.42,0,0,1-.29-.13l-.12-.1a.36.36,0,0,1-.08-.13.55.55,0,0,1,0-.17v-.58a.39.39,0,0,1,0-.18.56.56,0,0,1,.09-.14l.12-.1a.44.44,0,0,1,.29-.11h.21a.44.44,0,0,1,.3.12Zm-.41.09h-.2a.16.16,0,0,0-.11.05l-.09.07a.13.13,0,0,0,0,.11v.6a.16.16,0,0,0,0,.11l.1.08a.12.12,0,0,0,.09,0h.23a.21.21,0,0,0,.11,0l.23-.19a.17.17,0,0,0,.05-.12v-.31a.18.18,0,0,0-.06-.15l-.23-.2A.16.16,0,0,0,57.3,31.09Z" style="fill: #fff"/>
        <path d="M59.8,31v-.67a.18.18,0,0,1,0-.1.15.15,0,0,1,.2,0,.14.14,0,0,1,.05.1v2a.16.16,0,0,1-.05.1.15.15,0,0,1-.1,0,.18.18,0,0,1-.1,0,.21.21,0,0,1,0-.1v-.07a.59.59,0,0,1-.39.21h-.24a.42.42,0,0,1-.29-.13l-.12-.1a.36.36,0,0,1-.08-.13.55.55,0,0,1,0-.17v-.58a.39.39,0,0,1,0-.18.56.56,0,0,1,.09-.14l.12-.1a.44.44,0,0,1,.29-.11h.21a.44.44,0,0,1,.3.12Zm-.41.09h-.2a.16.16,0,0,0-.11.05l-.09.07a.16.16,0,0,0-.05.11v.6A.14.14,0,0,0,59,32l.09.08a.12.12,0,0,0,.09,0h.23a.21.21,0,0,0,.11,0l.23-.19a.17.17,0,0,0,0-.12v-.31a.18.18,0,0,0-.06-.15l-.23-.2A.16.16,0,0,0,59.39,31.09Z" style="fill: #fff"/>
        <path d="M60.75,32.3V31a.12.12,0,0,1,0-.1.14.14,0,0,1,.1-.05.15.15,0,0,1,.1,0A.15.15,0,0,1,61,31v.17l.24-.19a.43.43,0,0,1,.28-.12h.2a.45.45,0,0,1,.31.12.42.42,0,0,1,.12.3v.08a.14.14,0,1,1-.28,0v-.08a.18.18,0,0,0,0-.1.15.15,0,0,0-.11,0h-.18a.22.22,0,0,0-.13.06L61,31.5v.8a.14.14,0,0,1,0,.1.14.14,0,0,1-.2,0A.14.14,0,0,1,60.75,32.3Z" style="fill: #fff"/>
        <path d="M64.27,31.34v.34a.13.13,0,0,1,0,.1.14.14,0,0,1-.1,0h-1v.08a.14.14,0,0,0,.06.12l.08.07a.2.2,0,0,0,.13,0h.73a.14.14,0,0,1,.1.05.12.12,0,0,1,0,.1.14.14,0,0,1,0,.1.18.18,0,0,1-.1,0h-.75a.4.4,0,0,1-.15,0,.5.5,0,0,1-.13-.07L63,32.23a.45.45,0,0,1-.1-.13.34.34,0,0,1,0-.16v-.65a.34.34,0,0,1,0-.15A.58.58,0,0,1,63,31l.12-.09a.41.41,0,0,1,.26-.09h.4a.41.41,0,0,1,.28.12l.11.1A.42.42,0,0,1,64.27,31.34Zm-1.14,0v.22H64v-.2a.13.13,0,0,0-.05-.12l-.08-.07a.17.17,0,0,0-.11-.06h-.36a.17.17,0,0,0-.12.05l-.08.07A.13.13,0,0,0,63.13,31.32Z" style="fill: #fff"/>
        <path d="M65.33,30.81H66a.44.44,0,0,1,.27.09c.08.06.12.12.12.17a.12.12,0,0,1-.05.1.11.11,0,0,1-.09,0,.14.14,0,0,1-.12-.06.17.17,0,0,0-.12-.06h-.64c-.07,0-.1,0-.1.08s0,.06.07.08l.75.34a.42.42,0,0,1,.19.16.45.45,0,0,1,.07.25.4.4,0,0,1-.13.31.37.37,0,0,1-.29.13h-.58a.46.46,0,0,1-.27-.09c-.09-.06-.13-.12-.13-.18a.11.11,0,0,1,0-.09.16.16,0,0,1,.11,0,.19.19,0,0,1,.12.06.24.24,0,0,0,.17.06h.53a.15.15,0,0,0,.11,0,.17.17,0,0,0,0-.12.13.13,0,0,0-.09-.13l-.77-.35a.39.39,0,0,1-.17-.14.33.33,0,0,1-.06-.19.36.36,0,0,1,.11-.26A.33.33,0,0,1,65.33,30.81Z" style="fill: #fff"/>
        <path d="M67.42,30.81h.65a.44.44,0,0,1,.27.09c.08.06.12.12.12.17a.15.15,0,0,1,0,.1.15.15,0,0,1-.22,0,.17.17,0,0,0-.12-.06h-.64c-.07,0-.1,0-.1.08s0,.06.07.08l.75.34a.42.42,0,0,1,.19.16.45.45,0,0,1,.07.25.4.4,0,0,1-.13.31.37.37,0,0,1-.29.13h-.57a.47.47,0,0,1-.28-.09c-.09-.06-.13-.12-.13-.18a.15.15,0,0,1,0-.09.16.16,0,0,1,.11,0,.17.17,0,0,1,.12.06.24.24,0,0,0,.17.06H68a.14.14,0,0,0,.11,0,.17.17,0,0,0,0-.12.13.13,0,0,0-.09-.13l-.77-.35a.39.39,0,0,1-.17-.14.41.41,0,0,1,0-.19.35.35,0,0,1,.1-.26A.33.33,0,0,1,67.42,30.81Z" style="fill: #fff"/>
      </g>
      <g>
        <path d="M71.06,46.64l-2.63-.77a.2.2,0,0,1-.14-.2.17.17,0,0,1,.12-.18l2.67-.76h0a.22.22,0,0,1,.14.05.18.18,0,0,1,.06.13.18.18,0,0,1-.14.19l-.52.15v.88l.55.17s0,0,.07.06a.15.15,0,0,1,0,.11.2.2,0,0,1-.06.14.22.22,0,0,1-.14,0Zm-1.88-1,1.1.32v-.65Z" style="fill: #fff"/>
        <path d="M71,43.83h-2.3a.34.34,0,0,1-.26-.11.36.36,0,0,1-.11-.26v-1.2a.36.36,0,0,1,.11-.25.34.34,0,0,1,.26-.11H71a.38.38,0,0,1,.37.37v1.19a.35.35,0,0,1-.11.27A.35.35,0,0,1,71,43.83Zm0-1.55H68.67v1.17h2.27Z" style="fill: #fff"/>
      </g>
      <g>
        <path d="M22.91,48.65h.64a.18.18,0,0,1,.13.06.16.16,0,0,1,.06.13.17.17,0,0,1-.06.14.19.19,0,0,1-.13.06h-.61a.23.23,0,0,0-.16.08l-.54.7a.36.36,0,0,0-.07.22v1.07a.2.2,0,0,0,.06.14.17.17,0,0,0,.14,0h.78a.15.15,0,0,0,.13,0,.2.2,0,0,0,.06-.14V50.7h-.4a.16.16,0,0,1-.13-.06.18.18,0,0,1-.06-.14.18.18,0,0,1,.06-.13.16.16,0,0,1,.13-.06h.78v.8a.56.56,0,0,1-.16.41.58.58,0,0,1-.41.17h-.78a.57.57,0,0,1-.41-.17.53.53,0,0,1-.17-.41V50.05a.76.76,0,0,1,.15-.48l.57-.72a.4.4,0,0,1,.17-.14A.46.46,0,0,1,22.91,48.65Z" style="fill: #fff"/>
        <path d="M25.53,49.93l-.52.34V51.5a.18.18,0,0,1-.06.13.18.18,0,0,1-.14.06.21.21,0,0,1-.19-.19V49.67a.16.16,0,0,1,.06-.13.18.18,0,0,1,.13-.06.18.18,0,0,1,.14.06.16.16,0,0,1,.06.13v.13l.35-.21a.67.67,0,0,1,.4-.11h.17a.54.54,0,0,1,.4.16.6.6,0,0,1,.18.4l0,1.46a.18.18,0,0,1-.06.13.16.16,0,0,1-.13.06.24.24,0,0,1-.14,0,.3.3,0,0,1-.06-.14l-.05-1.44a.19.19,0,0,0-.21-.2h-.19A.32.32,0,0,0,25.53,49.93Z" style="fill: #fff"/>
        <path d="M29,49.75v-.91a.19.19,0,0,1,.05-.13.18.18,0,0,1,.13-.06.18.18,0,0,1,.14.06.16.16,0,0,1,.06.13V51.5a.18.18,0,0,1-.06.13.16.16,0,0,1-.13.06.18.18,0,0,1-.14-.06A.21.21,0,0,1,29,51.5v-.09a.79.79,0,0,1-.53.28h-.33a.61.61,0,0,1-.39-.17l-.16-.14a.38.38,0,0,1-.1-.17.5.5,0,0,1,0-.23V50.2a.75.75,0,0,1,0-.26.52.52,0,0,1,.13-.18l.16-.14a.61.61,0,0,1,.4-.14h.27a.63.63,0,0,1,.42.16Zm-.56.12h-.27a.22.22,0,0,0-.15.06L27.9,50a.15.15,0,0,0-.07.14V51a.19.19,0,0,0,.08.14l.12.11a.21.21,0,0,0,.13,0h.31a.25.25,0,0,0,.15-.07l.3-.25a.23.23,0,0,0,.08-.17V50.4a.27.27,0,0,0-.08-.21l-.32-.27A.21.21,0,0,0,28.44,49.87Z" style="fill: #fff"/>
      </g>
      <g>
        <path d="M17.36,58.91v.71l-.79,2a.2.2,0,0,1-.18.14.21.21,0,0,1-.2-.14l-.77-2v-.71a.17.17,0,0,1,.05-.14.19.19,0,0,1,.28,0,.22.22,0,0,1,.05.14v.63L16.39,61,17,59.54v-.63a.18.18,0,0,1,.06-.14.16.16,0,0,1,.13-.06.21.21,0,0,1,.2.2Z" style="fill: #fff"/>
        <path d="M20,61.75h-.82a.52.52,0,0,1-.37-.13l-.38-.32a.51.51,0,0,1-.18-.41v-.5a.54.54,0,0,1,.21-.42l.33-.29a.56.56,0,0,1,.35-.14H20a.2.2,0,0,1,.14.06.17.17,0,0,1,.05.14.15.15,0,0,1-.05.13.2.2,0,0,1-.14.06h-.82A.2.2,0,0,0,19,60l-.31.26a.23.23,0,0,0-.08.17v.47a.16.16,0,0,0,.06.13l.34.29a.24.24,0,0,0,.17.06H20a.21.21,0,0,1,.13.05.19.19,0,0,1,0,.28A.19.19,0,0,1,20,61.75Z" style="fill: #fff"/>
        <path d="M22.82,61.75H22a.52.52,0,0,1-.37-.13l-.38-.32a.51.51,0,0,1-.18-.41v-.5a.53.53,0,0,1,.2-.42l.34-.29a.54.54,0,0,1,.35-.14h.86a.2.2,0,0,1,.14.06.22.22,0,0,1,.05.14.19.19,0,0,1-.05.13.2.2,0,0,1-.14.06H22a.2.2,0,0,0-.15.06l-.31.26a.23.23,0,0,0-.08.17v.47a.16.16,0,0,0,.06.13l.34.29a.24.24,0,0,0,.17.06h.79a.21.21,0,0,1,.13.05.19.19,0,0,1,0,.28A.19.19,0,0,1,22.82,61.75Z" style="fill: #fff"/>
      </g>
      <g>
        <path d="M30.47,58.71h1a.49.49,0,0,1,.35.16.47.47,0,0,1,.16.37.2.2,0,0,1-.06.14.18.18,0,0,1-.13.06.16.16,0,0,1-.13,0,.34.34,0,0,1-.07-.16.14.14,0,0,0-.15-.12h-1s-.07,0-.07,0a.09.09,0,0,0,0,.06L31.88,61a.42.42,0,0,1,.1.28.44.44,0,0,1-.12.3.38.38,0,0,1-.28.13h-1a.5.5,0,0,1-.36-.16.48.48,0,0,1-.15-.34.18.18,0,0,1,.2-.21.17.17,0,0,1,.14.05.21.21,0,0,1,.05.13.15.15,0,0,0,0,.11.21.21,0,0,0,.11,0h1s.06,0,.06,0a.09.09,0,0,0,0-.06l-1.43-1.82a.51.51,0,0,1-.1-.29.44.44,0,0,1,.44-.44Z" style="fill: #fff"/>
        <path d="M34.61,61.75h-.82a.54.54,0,0,1-.37-.13l-.37-.32a.51.51,0,0,1-.18-.41v-.5a.5.5,0,0,1,.2-.42l.34-.29a.51.51,0,0,1,.34-.14h.87a.18.18,0,0,1,.13.06.18.18,0,0,1,.06.14.16.16,0,0,1-.06.13.18.18,0,0,1-.13.06h-.83a.24.24,0,0,0-.15.06l-.31.26a.22.22,0,0,0-.07.17v.47a.16.16,0,0,0,.06.13l.34.29a.22.22,0,0,0,.17.06h.78a.24.24,0,0,1,.14.05.22.22,0,0,1,0,.28A.22.22,0,0,1,34.61,61.75Z" style="fill: #fff"/>
        <path d="M37.24,61.75H36.08a.16.16,0,0,1-.13-.06.18.18,0,0,1-.06-.14.18.18,0,0,1,.06-.13.16.16,0,0,1,.13-.06h.39V59.1h-.39a.18.18,0,0,1-.14-.06.17.17,0,0,1,0-.14.17.17,0,0,1,0-.13.18.18,0,0,1,.14-.06h.58a.2.2,0,0,1,.14.06.18.18,0,0,1,.06.13v2.46h.38a.18.18,0,0,1,.14.06.18.18,0,0,1,.06.13.21.21,0,0,1-.2.2Z" style="fill: #fff"/>
      </g>
      <g>
        <path d="M46.36,58.91v.71l-.79,2a.2.2,0,0,1-.18.14.21.21,0,0,1-.2-.14l-.77-2v-.71a.17.17,0,0,1,0-.14.19.19,0,0,1,.28,0,.22.22,0,0,1,0,.14v.63L45.39,61,46,59.54v-.63a.18.18,0,0,1,.06-.14.16.16,0,0,1,.13-.06.21.21,0,0,1,.2.2Z" style="fill: #fff"/>
        <path d="M48.79,61.75H47.62a.2.2,0,0,1-.14-.06.22.22,0,0,1,0-.14.21.21,0,0,1,0-.13.2.2,0,0,1,.14-.06H48V59.93h-.39a.21.21,0,0,1-.19-.19.18.18,0,0,1,.06-.14.18.18,0,0,1,.13-.06h.59a.2.2,0,0,1,.14.06.22.22,0,0,1,0,.14v1.62h.39a.21.21,0,0,1,.19.19.18.18,0,0,1-.06.14A.16.16,0,0,1,48.79,61.75ZM48,58.54h.2a.2.2,0,0,1,.14.06.22.22,0,0,1,0,.14v.16a.24.24,0,0,1,0,.14.2.2,0,0,1-.14.06H48a.16.16,0,0,1-.13-.06.2.2,0,0,1-.06-.14v-.16a.17.17,0,0,1,0-.14A.2.2,0,0,1,48,58.54Z" style="fill: #fff"/>
        <path d="M51,60l-.53.34v1.23a.19.19,0,0,1-.05.13.2.2,0,0,1-.14.06.21.21,0,0,1-.19-.19V59.74a.18.18,0,0,1,.06-.14.16.16,0,0,1,.13-.06.2.2,0,0,1,.14.06.22.22,0,0,1,.05.14v.12l.35-.21a.77.77,0,0,1,.4-.11h.18a.55.55,0,0,1,.4.16.54.54,0,0,1,.17.4L52,61.56a.16.16,0,0,1-.06.13.18.18,0,0,1-.14.06.21.21,0,0,1-.13,0,.17.17,0,0,1-.06-.14l-.06-1.44a.18.18,0,0,0-.21-.2h-.18A.37.37,0,0,0,51,60Z" style="fill: #fff"/>
        <path d="M54.83,60.22v.17a.24.24,0,0,1,0,.14.19.19,0,0,1-.14,0H53.09a.19.19,0,0,1-.14,0,.24.24,0,0,1-.05-.14v-.17a.17.17,0,0,1,.19-.19h1.55a.17.17,0,0,1,.13,0A.18.18,0,0,1,54.83,60.22Z" style="fill: #fff"/>
      </g>
      <g>
        <path d="M37.67,48.65h1a.5.5,0,0,1,.34.15.52.52,0,0,1,.17.38.2.2,0,0,1-.06.14.17.17,0,0,1-.13,0,.18.18,0,0,1-.14,0,.78.78,0,0,1-.07-.17.14.14,0,0,0-.14-.12h-1s-.06,0-.06.05a.07.07,0,0,0,0,.06L39.07,51a.48.48,0,0,1,.11.29.45.45,0,0,1-.13.3.35.35,0,0,1-.28.13h-1a.46.46,0,0,1-.36-.16.48.48,0,0,1-.15-.34c0-.15.06-.22.2-.22a.21.21,0,0,1,.19.19.12.12,0,0,0,0,.1.13.13,0,0,0,.1,0h1s.06,0,.06,0a.09.09,0,0,0,0-.06l-1.42-1.83a.44.44,0,0,1,0-.59A.39.39,0,0,1,37.67,48.65Z" style="fill: #fff"/>
        <path d="M41.61,49.75v-.91a.15.15,0,0,1,0-.13.18.18,0,0,1,.13-.06.18.18,0,0,1,.14.06.16.16,0,0,1,.06.13V51.5a.21.21,0,0,1-.19.19.18.18,0,0,1-.14-.06.17.17,0,0,1,0-.13v-.09a.79.79,0,0,1-.53.28h-.33a.61.61,0,0,1-.39-.17l-.16-.14a.38.38,0,0,1-.1-.17.5.5,0,0,1-.05-.23V50.2a.58.58,0,0,1,.05-.26.52.52,0,0,1,.13-.18l.16-.14a.61.61,0,0,1,.4-.14h.27a.59.59,0,0,1,.41.16Zm-.56.12h-.27a.2.2,0,0,0-.15.06L40.5,50a.17.17,0,0,0-.06.14V51a.16.16,0,0,0,.08.14l.12.11a.21.21,0,0,0,.13,0h.31a.25.25,0,0,0,.15-.07l.3-.25a.23.23,0,0,0,.08-.17V50.4a.27.27,0,0,0-.08-.21l-.32-.27A.21.21,0,0,0,41.05,49.87Z" style="fill: #fff"/>
        <path d="M43.46,50.3h.75l.18,0v-.27a.18.18,0,0,0-.06-.14.15.15,0,0,0-.13-.05h-.73a.21.21,0,0,1-.2-.2.18.18,0,0,1,.06-.13.18.18,0,0,1,.14-.06h.73a.54.54,0,0,1,.4.17.62.62,0,0,1,.18.41l0,1.44a.18.18,0,0,1-.06.13.18.18,0,0,1-.14.06.2.2,0,0,1-.14-.06.21.21,0,0,1-.05-.13l-.33.19h-.65a.58.58,0,0,1-.58-.58v-.23a.58.58,0,0,1,.17-.41A.57.57,0,0,1,43.46,50.3Zm1,.75v-.16a.18.18,0,0,0-.06-.14.15.15,0,0,0-.13,0h-.76a.15.15,0,0,0-.13,0,.18.18,0,0,0-.06.14v.21a.18.18,0,0,0,.06.14.15.15,0,0,0,.13,0H44Z" style="fill: #fff"/>
      </g>
      <g>
        <path d="M53,48.85v.7l-.78,2a.21.21,0,0,1-.19.15.19.19,0,0,1-.19-.15l-.78-2v-.7a.18.18,0,0,1,.06-.14.16.16,0,0,1,.13-.06.2.2,0,0,1,.14.06.17.17,0,0,1,0,.14v.62L52,51l.58-1.48v-.63a.21.21,0,0,1,.2-.2.18.18,0,0,1,.13.06A.18.18,0,0,1,53,48.85Z" style="fill: #fff"/>
        <path d="M55.42,51.68H54.25a.15.15,0,0,1-.13,0,.2.2,0,0,1-.06-.14.18.18,0,0,1,.06-.13.16.16,0,0,1,.13-.06h.4V49.87h-.39a.21.21,0,0,1-.2-.2.16.16,0,0,1,.06-.13.18.18,0,0,1,.14-.06h.58a.18.18,0,0,1,.14.06.15.15,0,0,1,.05.13V51.3h.39a.2.2,0,0,1,.14.06.16.16,0,0,1,.06.13.2.2,0,0,1-.06.14A.19.19,0,0,1,55.42,51.68Zm-.78-3.2h.2a.18.18,0,0,1,.14.06.15.15,0,0,1,.05.13v.17A.19.19,0,0,1,55,49a.22.22,0,0,1-.14.05h-.2A.18.18,0,0,1,54.5,49a.18.18,0,0,1-.06-.13v-.17a.19.19,0,0,1,0-.13A.2.2,0,0,1,54.64,48.48Z" style="fill: #fff"/>
        <path d="M57.61,49.93l-.52.34V51.5a.18.18,0,0,1-.06.13.18.18,0,0,1-.14.06.21.21,0,0,1-.19-.19V49.67a.21.21,0,0,1,.19-.19.18.18,0,0,1,.14.06.16.16,0,0,1,.06.13v.13l.35-.21a.66.66,0,0,1,.39-.11H58a.54.54,0,0,1,.4.16.6.6,0,0,1,.18.4l0,1.46a.18.18,0,0,1-.06.13.16.16,0,0,1-.13.06.24.24,0,0,1-.14,0,.3.3,0,0,1-.06-.14l0-1.44a.19.19,0,0,0-.21-.2H57.8A.32.32,0,0,0,57.61,49.93Z" style="fill: #fff"/>
        <path d="M60.3,50v-.59a.16.16,0,0,1,.06-.13.18.18,0,0,1,.14-.06.21.21,0,0,1,.19.19V50h.59a.2.2,0,0,1,.14.06.19.19,0,0,1,0,.13.17.17,0,0,1-.19.19h-.59v.59a.18.18,0,0,1-.06.14.18.18,0,0,1-.13.06.21.21,0,0,1-.2-.2v-.59h-.59a.21.21,0,0,1-.13-.05.2.2,0,0,1-.06-.14.16.16,0,0,1,.06-.13.18.18,0,0,1,.13-.06Z" style="fill: #fff"/>
      </g>
      <g>
        <path d="M71.06,39l-2.63-.77a.19.19,0,0,1-.14-.19.18.18,0,0,1,.12-.19L71.08,37h0a.22.22,0,0,1,.14,0,.18.18,0,0,1,.06.13.18.18,0,0,1-.14.19l-.52.15v.88l.55.17a.1.1,0,0,1,.07.06.15.15,0,0,1,0,.11.18.18,0,0,1-.06.14.17.17,0,0,1-.14.05Zm-1.88-1,1.1.33v-.65Z" style="fill: #fff"/>
        <path d="M70.94,36v-.59H68.67V36a.19.19,0,0,1,0,.13.19.19,0,0,1-.28,0,.19.19,0,0,1,0-.13V35h2.65V34.6h-.8a.2.2,0,0,1-.14-.06.15.15,0,0,1,0-.13.17.17,0,0,1,.19-.19h1a.19.19,0,0,1,.14.05.22.22,0,0,1,0,.14V36a.21.21,0,0,1-.19.19.18.18,0,0,1-.14-.06A.19.19,0,0,1,70.94,36Z" style="fill: #fff"/>
      </g>
    </g>
    <g data-name="Layer 23" id="Layer_23">
      <g>
        <g>
          <rect height="1.02" style="fill: #b1aeaa" transform="translate(-1.78 68.42) rotate(-90)" width="2.14" x="32.26" y="34.59"/>
          <rect height="0.73" style="fill: #bcbcbc" transform="translate(-3.31 69.98) rotate(-90)" width="0.96" x="32.85" y="36.28"/>
        </g>
        <g>
          <rect height="1.02" style="fill: #b1aeaa" transform="translate(-0.15 70.05) rotate(-90)" width="2.14" x="33.88" y="34.59"/>
          <rect height="0.73" style="fill: #bcbcbc" transform="translate(-1.69 71.6) rotate(-90)" width="0.96" x="34.48" y="36.28"/>
        </g>
        <g>
          <rect height="1.02" style="fill: #b1aeaa" transform="translate(1.48 71.67) rotate(-90)" width="2.14" x="35.51" y="34.59"/>
          <rect height="0.73" style="fill: #bcbcbc" transform="translate(-0.06 73.23) rotate(-90)" width="0.96" x="36.1" y="36.28"/>
        </g>
        <g>
          <rect height="1.02" style="fill: #b1aeaa" transform="translate(3.1 73.3) rotate(-90)" width="2.14" x="37.13" y="34.59"/>
          <rect height="0.73" style="fill: #bcbcbc" transform="translate(1.56 74.86) rotate(-90)" width="0.96" x="37.73" y="36.28"/>
        </g>
        <g>
          <rect height="1.02" style="fill: #b1aeaa" transform="translate(81.98 5.57) rotate(90)" width="2.14" x="37.13" y="43.26"/>
          <rect height="0.73" style="fill: #bcbcbc" transform="translate(80.42 4.04) rotate(90)" width="0.96" x="37.71" y="41.86"/>
        </g>
        <g>
          <rect height="1.02" style="fill: #b1aeaa" transform="translate(80.35 7.2) rotate(90)" width="2.14" x="35.51" y="43.26"/>
          <rect height="0.73" style="fill: #bcbcbc" transform="translate(78.8 5.66) rotate(90)" width="0.96" x="36.09" y="41.86"/>
        </g>
        <g>
          <rect height="1.02" style="fill: #b1aeaa" transform="translate(78.73 8.83) rotate(90)" width="2.14" x="33.88" y="43.26"/>
          <rect height="0.73" style="fill: #bcbcbc" transform="translate(77.17 7.29) rotate(90)" width="0.96" x="34.46" y="41.86"/>
        </g>
        <g>
          <rect height="1.02" style="fill: #b1aeaa" transform="translate(77.1 10.45) rotate(90)" width="2.14" x="32.26" y="43.26"/>
          <rect height="0.73" style="fill: #bcbcbc" transform="translate(75.54 8.91) rotate(90)" width="0.96" x="32.84" y="41.86"/>
        </g>
        <rect height="8" style="fill: #303030" transform="translate(-3.68 75.2) rotate(-90)" width="4.63" x="33.45" y="35.44"/>
        <g>
          <path d="M38.48,38.92v.5a.21.21,0,0,1-.2.2v.6a.1.1,0,0,1-.1.1h-.41a.11.11,0,0,1-.07,0,.14.14,0,0,1,0-.07v-.6a.21.21,0,0,1-.2-.2v-.5a.21.21,0,0,1,.2-.2h.6a.21.21,0,0,1,.2.2Zm-.2.5v-.5h-.6v.5Zm-.2.7v-.5h-.21v.5Z" style="fill: #6b615d"/>
          <path d="M36.12,38.72H37v.7a.21.21,0,0,1-.2.2h-.6v.5h.7a.08.08,0,0,1,.07,0,.1.1,0,0,1,0,.14.08.08,0,0,1-.07,0h-.7a.17.17,0,0,1-.14-.06.2.2,0,0,1-.06-.14v-.5a.2.2,0,0,1,.06-.14.17.17,0,0,1,.14-.06h.6v-.5h-.7a.1.1,0,0,1,0-.2Z" style="fill: #6b615d"/>
          <path d="M35.46,38.92h-.3v1.2h.3a.1.1,0,0,1,0,.2H35v-1.4h-.2v.42a.24.24,0,0,1,0,.08l-.07,0-.07,0a.11.11,0,0,1,0-.08v-.52a.09.09,0,0,1,0-.07.08.08,0,0,1,.07,0h.79a.1.1,0,0,1,0,.2Z" style="fill: #6b615d"/>
          <path d="M34,40.32h-.1a.1.1,0,0,1,0-.2v-.67h-.7a.09.09,0,0,1-.07,0,.11.11,0,0,1,0-.08v-.52a.09.09,0,0,1,0-.07.11.11,0,0,1,.07,0H34a.1.1,0,0,1,.1.1v1.4a.1.1,0,0,1-.1.1Zm-.1-1.08v-.32h-.6v.32Z" style="fill: #6b615d"/>
        </g>
      </g>
      <line style="fill: none;stroke: #fff;stroke-linecap: round;stroke-linejoin: round;stroke-width: 0.5px" x1="40.42" x2="40.42" y1="36.82" y2="42.44"/>
      <line style="fill: none;stroke: #fff;stroke-linecap: round;stroke-linejoin: round;stroke-width: 0.5px" x1="31.24" x2="31.24" y1="36.82" y2="42.44"/>
      <rect height="11.41" style="fill: none;stroke: #fff;stroke-linecap: round;stroke-linejoin: round;stroke-width: 0.5px" width="5.97" x="22.09" y="33.81"/>
      <rect height="11.41" style="fill: none;stroke: #fff;stroke-linecap: round;stroke-linejoin: round;stroke-width: 0.5px" transform="translate(7.76 95.77) rotate(-90)" width="5.97" x="48.78" y="38.3"/>
      <rect height="11.41" style="fill: none;stroke: #fff;stroke-linecap: round;stroke-linejoin: round;stroke-width: 0.5px" transform="translate(15.12 88.41) rotate(-90)" width="5.97" x="48.78" y="30.94"/>
      <rect height="9.32" style="fill: none;stroke: #fff;stroke-linecap: round;stroke-linejoin: round;stroke-width: 0.5px" transform="translate(18.92 106.93) rotate(-90)" width="5.97" x="59.94" y="39.34"/>
      <rect height="9.32" style="fill: none;stroke: #fff;stroke-linecap: round;stroke-linejoin: round;stroke-width: 0.5px" transform="translate(26.28 99.57) rotate(-90)" width="5.97" x="59.94" y="31.98"/>
      <rect height="11.41" style="fill: none;stroke: #fff;stroke-linecap: round;stroke-linejoin: round;stroke-width: 0.5px" width="5.97" x="8.12" y="33.81"/>
      <rect height="11.41" style="fill: none;stroke: #fff;stroke-linecap: round;stroke-linejoin: round;stroke-width: 0.5px" width="5.97" x="15.28" y="33.81"/>
      <line style="fill: none;stroke: #fff;stroke-linecap: round;stroke-linejoin: round;stroke-width: 0.5px" x1="15.28" x2="15.28" y1="53.35" y2="57.4"/>
      <rect height="4.58" rx="0.36" ry="0.36" style="fill: #987261" width="3.25" x="58.72" y="41.71"/>
      <rect height="4.58" rx="0.36" ry="0.36" style="fill: #987261" width="3.25" x="62.93" y="41.71"/>
      <rect height="4.58" rx="0.36" ry="0.36" style="fill: #987261" width="3.25" x="58.72" y="34.36"/>
      <rect height="4.58" rx="0.36" ry="0.36" style="fill: #987261" width="3.25" x="62.93" y="34.36"/>
      <g>
        <circle cx="65" cy="16.58" r="2.95" style="fill: #646e58"/>
        <circle cx="65" cy="16.58" r="1.6" style="fill: #b69867"/>
      </g>
      <g>
        <circle cx="2.95" cy="47.45" r="2.95" style="fill: #646e58"/>
        <circle cx="2.95" cy="47.45" r="1.6" style="fill: #b69867"/>
      </g>
      <path d="M6.58,51.52a4.59,4.59,0,1,0,4.58,4.58A4.58,4.58,0,0,0,6.58,51.52Zm0,8A3.46,3.46,0,1,1,10,56.1,3.46,3.46,0,0,1,6.58,59.56Z" style="fill: #0b5597"/>
      <circle cx="6.58" cy="56.1" r="5.65" style="fill: none;stroke: #fff;stroke-miterlimit: 10;stroke-width: 0.5px"/>
      <path d="M65,51.52a4.59,4.59,0,1,0,4.58,4.58A4.58,4.58,0,0,0,65,51.52Zm0,8a3.46,3.46,0,1,1,3.45-3.46A3.46,3.46,0,0,1,65,59.56Z" style="fill: #0b5597"/>
      <circle cx="65" cy="56.1" r="5.65" style="fill: none;stroke: #fff;stroke-miterlimit: 10;stroke-width: 0.5px"/>
      <path d="M6.58,2.64a4.58,4.58,0,1,0,4.58,4.58A4.58,4.58,0,0,0,6.58,2.64Zm0,8A3.46,3.46,0,1,1,10,7.22,3.46,3.46,0,0,1,6.58,10.68Z" style="fill: #0b5597"/>
      <circle cx="6.58" cy="7.22" r="5.65" style="fill: none;stroke: #fff;stroke-miterlimit: 10;stroke-width: 0.5px"/>
      <path d="M65,2.64a4.58,4.58,0,1,0,4.58,4.58A4.58,4.58,0,0,0,65,2.64Zm0,8a3.46,3.46,0,1,1,3.45-3.46A3.46,3.46,0,0,1,65,10.68Z" style="fill: #0b5597"/>
      <circle cx="65" cy="7.22" r="5.65" style="fill: none;stroke: #fff;stroke-miterlimit: 10;stroke-width: 0.5px"/>
      <path d="M22.76,24.34a1.51,1.51,0,1,0,1.5,1.5A1.51,1.51,0,0,0,22.76,24.34Zm0,2.64a1.14,1.14,0,1,1,1.13-1.14A1.14,1.14,0,0,1,22.76,27Z" style="fill: #724316"/>
      <path d="M28.49,30.65A1.51,1.51,0,1,0,30,32.16,1.51,1.51,0,0,0,28.49,30.65Zm0,2.64a1.14,1.14,0,1,1,1.14-1.13A1.13,1.13,0,0,1,28.49,33.29Z" style="fill: #724316"/>
      <path d="M50.87,23.69a1.51,1.51,0,1,0,0,3,1.51,1.51,0,0,0,0-3Zm0,2.64A1.14,1.14,0,1,1,52,25.2,1.14,1.14,0,0,1,50.87,26.33Z" style="fill: #724316"/>
      <path d="M43.94,43.34a1.51,1.51,0,1,0,1.5,1.5A1.51,1.51,0,0,0,43.94,43.34Zm0,2.64a1.14,1.14,0,1,1,1.13-1.14A1.14,1.14,0,0,1,43.94,46Z" style="fill: #724316"/>
      <g>
        <path d="M12.26,37.53H9.93c-.52,0-.95-.58-.95-1.3s.42-1.31.94-1.31h2.34c.52,0,1,.58,1,1.3S12.79,37.52,12.26,37.53Z" style="fill: #bcbcbc"/>
        <path d="M12.28,44.49H10c-.53,0-.95-.58-1-1.3s.43-1.31.95-1.31h2.33c.53,0,1,.58,1,1.3S12.8,44.48,12.28,44.49Z" style="fill: #bcbcbc"/>
        <rect height="6.96" rx="0.58" ry="0.58" style="fill: #e2e2e2" transform="translate(-0.09 0.02) rotate(-0.13)" width="3.22" x="9.48" y="36.22"/>
        <rect height="3.26" style="fill: #977d69" transform="translate(-0.09 0.02) rotate(-0.13)" width="3.22" x="9.48" y="38"/>
      </g>
      <g>
        <g>
          <path d="M19.43,37.53H17.1c-.52,0-1-.58-1-1.3s.42-1.31.94-1.31h2.33c.52,0,.95.58.95,1.3S20,37.52,19.43,37.53Z" style="fill: #bcbcbc"/>
          <path d="M19.44,44.49H17.12c-.53,0-.95-.58-.95-1.3s.42-1.31.94-1.31h2.33c.52,0,.94.58.94,1.3S20,44.48,19.44,44.49Z" style="fill: #bcbcbc"/>
          <rect height="6.96" rx="0.58" ry="0.58" style="fill: #e2e2e2" transform="translate(-0.09 0.04) rotate(-0.12)" width="3.21" x="16.65" y="36.22"/>
          <rect height="3.26" transform="translate(-0.09 0.04) rotate(-0.12)" width="3.21" x="16.65" y="38"/>
        </g>
        <g>
          <path d="M18.66,40.71v-.18H18v.18l0,0h-.08a0,0,0,0,1,0,0v-.29h.82V40.3h-.25l0,0a.05.05,0,0,1,0,0,.08.08,0,0,1,0,0l0,0h.31l0,0a.08.08,0,0,1,0,0v.47l0,0,0,0,0,0A0,0,0,0,1,18.66,40.71Z" style="fill: #fff"/>
          <path d="M18.66,39.91H18a.1.1,0,0,1-.11-.11v-.36a.1.1,0,0,1,.11-.11h.71a.11.11,0,0,1,.08,0,.09.09,0,0,1,0,.08v.36a.09.09,0,0,1,0,.08A.11.11,0,0,1,18.66,39.91Zm0-.47H18v.36h.7Z" style="fill: #fff"/>
          <path d="M18,38.48h.22a.2.2,0,0,1,.13,0,.17.17,0,0,1,.12-.05h.23a.12.12,0,0,1,.08,0,.09.09,0,0,1,0,.08V39a.05.05,0,0,1,0,0l0,0a.05.05,0,0,1,0,0s0,0,0,0v-.41h-.23l-.05,0s0,0,0,0v.23a.05.05,0,0,1,0,0,0,0,0,0,1,0,0,.06.06,0,0,1,0,0s0,0,0,0v-.23a.05.05,0,0,0,0,0l0,0H18V39s0,0,0,0h-.08a.06.06,0,0,1,0,0v-.41a.11.11,0,0,1,0-.08A.14.14,0,0,1,18,38.48Z" style="fill: #fff"/>
        </g>
      </g>
      <g>
        <g>
          <path d="M26.23,37.53H23.91c-.52,0-.95-.58-.95-1.3s.42-1.31.94-1.31h2.33c.52,0,.94.58.95,1.3S26.76,37.52,26.23,37.53Z" style="fill: #bcbcbc"/>
          <path d="M26.25,44.49H23.92c-.52,0-.94-.58-.94-1.3s.42-1.31.94-1.31h2.32c.53,0,1,.58,1,1.3S26.77,44.48,26.25,44.49Z" style="fill: #bcbcbc"/>
          <rect height="6.96" rx="0.58" ry="0.58" style="fill: #e2e2e2" transform="translate(-0.09 0.05) rotate(-0.12)" width="3.21" x="23.46" y="36.22"/>
          <rect height="3.26" transform="translate(-0.09 0.05) rotate(-0.12)" width="3.21" x="23.46" y="38"/>
        </g>
        <g>
          <path d="M25.47,40.71v-.18h-.7v.18a.08.08,0,0,1,0,0h-.09a.06.06,0,0,1,0,0v-.29h.82V40.3h-.25l0,0a.05.05,0,0,1,0,0,.08.08,0,0,1,0,0l0,0h.31l0,0a.08.08,0,0,1,0,0v.47l0,0-.05,0,0,0A.06.06,0,0,1,25.47,40.71Z" style="fill: #fff"/>
          <path d="M25.47,39.91h-.71a.1.1,0,0,1-.11-.11v-.36a.1.1,0,0,1,.11-.11h.71a.11.11,0,0,1,.08,0,.12.12,0,0,1,0,.08v.36a.12.12,0,0,1,0,.08A.11.11,0,0,1,25.47,39.91Zm0-.47h-.7v.36h.7Z" style="fill: #fff"/>
          <path d="M24.77,38.48H25a.16.16,0,0,1,.12,0,.21.21,0,0,1,.12-.05h.24a.14.14,0,0,1,.12.12V39a.05.05,0,0,1,0,0l0,0-.05,0s0,0,0,0v-.41h-.24l0,0a.05.05,0,0,0,0,0v.23s0,0,0,0,0,0-.05,0a0,0,0,0,1,0,0,.05.05,0,0,1,0,0v-.23s0,0,0,0l0,0h-.23V39s0,0,0,0h-.09a.09.09,0,0,1,0,0v-.41a.11.11,0,0,1,0-.08A.14.14,0,0,1,24.77,38.48Z" style="fill: #fff"/>
        </g>
      </g>
      <g>
        <g>
          <path d="M54,38V35.65c0-.53.58-.95,1.3-.95s1.31.42,1.31.94V38c0,.52-.58.94-1.3.94S54,38.49,54,38Z" style="fill: #bcbcbc"/>
          <path d="M47.05,38V35.66c0-.52.58-.94,1.3-.95s1.31.42,1.31.95V38c0,.52-.58,1-1.3,1S47.05,38.51,47.05,38Z" style="fill: #bcbcbc"/>
          <rect height="6.96" rx="0.58" ry="0.58" style="fill: #e2e2e2" transform="translate(88.52 -15.12) rotate(89.88)" width="3.21" x="50.23" y="33.32"/>
          <rect height="3.26" transform="translate(88.59 -15.18) rotate(89.88)" width="3.21" x="50.3" y="35.17"/>
        </g>
        <g>
          <path d="M50.83,37.2H51v-.7h-.22a.09.09,0,0,1,0-.05.06.06,0,0,1,0,0l0,0h.3v.82h.11V37a.05.05,0,0,1,0,0s0,0,0,0h0s0,0,0,.05v.3s0,0,0,.05h-.51a0,0,0,0,1,0,0,.05.05,0,0,1,0,0l0,0Z" style="fill: #fff"/>
          <path d="M51.63,37.21V36.5a.11.11,0,0,1,0-.08.09.09,0,0,1,.08,0h.36a.09.09,0,0,1,.08,0,.11.11,0,0,1,0,.08v.71a.1.1,0,0,1-.11.11h-.36a.1.1,0,0,1-.11-.11Zm.47,0v-.7h-.36v.7Z" style="fill: #fff"/>
          <path d="M53.06,36.5v.23a.16.16,0,0,1,0,.12.21.21,0,0,1,0,.12v.23a.15.15,0,0,1,0,.09.11.11,0,0,1-.08,0H52.5s0,0,0-.05l0,0,0,0H53V37l0,0,0,0h-.23s0,0,0,0,0,0,0,0,0,0,0,0l0,0h.27s0,0,0-.05V36.5h-.46a.09.09,0,0,1,0-.05.06.06,0,0,1,0,0l0,0H53a.12.12,0,0,1,.08,0A.11.11,0,0,1,53.06,36.5Z" style="fill: #fff"/>
        </g>
      </g>
      <g>
        <g>
          <path d="M49.66,42.83v2.33c0,.52-.58,1-1.3,1s-1.31-.42-1.31-.94V42.84c0-.52.58-1,1.3-1S49.66,42.31,49.66,42.83Z" style="fill: #bcbcbc"/>
          <path d="M56.62,42.82v2.32c0,.53-.58,1-1.3,1S54,45.67,54,45.15V42.82c0-.52.58-.94,1.3-.94S56.62,42.3,56.62,42.82Z" style="fill: #bcbcbc"/>
          <rect height="6.96" rx="0.58" ry="0.58" style="fill: #e2e2e2" transform="translate(7.94 95.94) rotate(-90.12)" width="3.21" x="50.23" y="40.52"/>
          <rect height="3.26" transform="translate(7.88 95.87) rotate(-90.12)" width="3.21" x="50.16" y="42.37"/>
        </g>
        <g>
          <path d="M52.84,43.6h-.18v.7h.18l0,0a.08.08,0,0,1,0,0,.05.05,0,0,1,0,0,0,0,0,0,1,0,0h-.29V43.6h-.12v.25s0,0,0,0l-.05,0,0,0s0,0,0,0v-.31a.06.06,0,0,1,0,0l0,0h.47l0,0,0,0a.05.05,0,0,1,0,0S52.86,43.6,52.84,43.6Z" style="fill: #fff"/>
          <path d="M52.05,43.6v.71a.09.09,0,0,1,0,.08.11.11,0,0,1-.08,0h-.36a.12.12,0,0,1-.11-.11V43.6a.09.09,0,0,1,0-.08.08.08,0,0,1,.08,0h.35a.08.08,0,0,1,.08,0A.09.09,0,0,1,52.05,43.6Zm-.47,0v.7h.35v-.7Z" style="fill: #fff"/>
          <path d="M50.61,44.3v-.22a.17.17,0,0,1,0-.13.13.13,0,0,1,0-.12V43.6a.11.11,0,0,1,0-.08.1.1,0,0,1,.08,0h.41l0,0a0,0,0,0,1,0,0s0,0,0,0,0,0,0,0h-.4v.23a.07.07,0,0,0,0,.05H51l0,0a.06.06,0,0,1,0,0,.09.09,0,0,1,0,0h-.28l0,0a.08.08,0,0,0,0,0v.23h.42l0,0,0,0a.05.05,0,0,1,0,0,0,0,0,0,1,0,0h-.42a.13.13,0,0,1-.08,0A.14.14,0,0,1,50.61,44.3Z" style="fill: #fff"/>
        </g>
      </g>
      <g>
        <path d="M59.31,16.77a3.84,3.84,0,0,0-3.37-.45,5.74,5.74,0,0,0-.42-3.11c-.23-.73-.56-1-1.16-.08A3.39,3.39,0,0,0,53,15.93c-.59-.83-1.75-.89-3.1-.7-.92,0-1,.46-.55,1.1a4,4,0,0,0,1.8,2c.46.07.69.16.32.33a4.2,4.2,0,0,0-1.39,2.84c-.22.92.2.92.86.57a3.72,3.72,0,0,0,2.45-1.15c.25-.26.45-.42.45-.14a.81.81,0,0,0,.27.71,8.33,8.33,0,0,0,2,1.6c.49.35.72.19.72-.42A12.43,12.43,0,0,0,57,21.33a2.74,2.74,0,0,0-.1-1.23,1.66,1.66,0,0,0-.12-.26l-.33-.26c-.31-.31-.23-.44.24-.38a3.28,3.28,0,0,0,2.51-1.29C59.87,17.44,59.83,17.08,59.31,16.77Z" style="fill: #fff"/>
        <path d="M54.31,16.65a3.41,3.41,0,0,1,0-1,3.14,3.14,0,0,1,.28-.92,3.83,3.83,0,0,1,0,1A3.89,3.89,0,0,1,54.31,16.65Z" style="fill: #054c6b"/>
        <path d="M55.87,17.91a3.74,3.74,0,0,1,.91-.3,3.82,3.82,0,0,1,1-.05,3.59,3.59,0,0,1-.91.3A3.85,3.85,0,0,1,55.87,17.91Z" style="fill: #054c6b"/>
        <path d="M53,17.43A3.68,3.68,0,0,1,52.1,17a3.54,3.54,0,0,1-.74-.6,3,3,0,0,1,.87.39A3.88,3.88,0,0,1,53,17.43Z" style="fill: #054c6b"/>
        <path d="M55.64,20.89a4.27,4.27,0,0,1-.42-.86,3.34,3.34,0,0,1-.19-.94,3.46,3.46,0,0,1,.43.86A3.56,3.56,0,0,1,55.64,20.89Z" style="fill: #054c6b"/>
        <path d="M51.75,20.48A3.59,3.59,0,0,1,53,19.09a3.8,3.8,0,0,1-1.29,1.39Z" style="fill: #054c6b"/>
      </g>
      <g>
        <rect height="9.37" style="fill: #4f4339" width="21.66" x="24.59" y="19.9"/>
        <rect height="9.37" style="fill: #b7aba3" width="18.16" x="26.34" y="19.9"/>
        <rect height="8.21" style="fill: #6b666b" width="15.91" x="27.46" y="20.48"/>
        <g>
          <path d="M29.06,26.23v-3.4h1.62a.67.67,0,0,1,.49.21.68.68,0,0,1,.2.49v.26a.68.68,0,0,1-.69.69h-.29l.94,1.61a.25.25,0,0,1,0,.14.2.2,0,0,1-.07.16.21.21,0,0,1-.16.07.24.24,0,0,1-.21-.12l-1.07-1.86h-.33v1.75a.24.24,0,0,1-.07.16.22.22,0,0,1-.17.07.24.24,0,0,1-.23-.23ZM29.52,24h1.16a.21.21,0,0,0,.23-.23v-.26a.21.21,0,0,0-.23-.23H29.52Z" style="fill: #fff"/>
          <path d="M32.65,26h.7v-2.7h-.69a.22.22,0,0,1-.17-.07.24.24,0,0,1,0-.32.22.22,0,0,1,.17-.07h1.15V26h.46V25a.23.23,0,0,1,.06-.16.22.22,0,0,1,.17-.07.21.21,0,0,1,.16.07.23.23,0,0,1,.06.16v1.18a.25.25,0,0,1-.06.17.25.25,0,0,1-.16.06H32.65a.22.22,0,0,1-.17-.07.24.24,0,0,1,0-.32A.26.26,0,0,1,32.65,26Z" style="fill: #fff"/>
          <path d="M35.8,26V23.27a.44.44,0,0,1,.44-.44h1.43A.42.42,0,0,1,38,23a.43.43,0,0,1,.12.31V26a.43.43,0,0,1-.12.31.44.44,0,0,1-.32.13H36.24a.42.42,0,0,1-.32-.13A.43.43,0,0,1,35.8,26Zm1.85,0v-2.7h-1.4V26Z" style="fill: #fff"/>
          <path d="M39.17,26V23.27A.44.44,0,0,1,39.3,23a.42.42,0,0,1,.31-.13H41a.42.42,0,0,1,.31.13.4.4,0,0,1,.13.31V26a.4.4,0,0,1-.13.31.42.42,0,0,1-.31.13H39.61a.42.42,0,0,1-.31-.13A.4.4,0,0,1,39.17,26ZM41,26v-2.7h-1.4V26Z" style="fill: #fff"/>
        </g>
      </g>
      <polyline points="45.94 0.25 45.94 19.09 26.08 19.09 26.08 0.25" style="fill: none;stroke: #fff;stroke-linecap: round;stroke-linejoin: round;stroke-width: 0.5px"/>
      <line style="fill: none;stroke: #fff;stroke-miterlimit: 10;stroke-width: 0.5px" x1="26.08" x2="45.94" y1="3.22" y2="3.22"/>
    </g>
    <g id="Connectors">
      <ellipse cx="54.58" cy="55.86" id="connector29pin" rx="2.05" ry="1.99" style="fill: none;stroke: #e8e5df;stroke-miterlimit: 10;stroke-width: 1.224px"/>
      <ellipse cx="47.38" cy="55.86" id="connector30pin" rx="2.05" ry="1.99" style="fill: none;stroke: #e8e5df;stroke-miterlimit: 10;stroke-width: 1.224px"/>
      <ellipse cx="40.19" cy="55.86" data-cir-type="male" id="circuitoCon_SDA" rx="2.05" ry="1.99" style="fill: none;stroke: #e8e5df;stroke-miterlimit: 10;stroke-width: 1.224px"/>
      <ellipse cx="25.8" cy="55.86" data-cir-type="male" id="circuitoCon_GND" rx="2.05" ry="1.99" style="fill: none;stroke: #e8e5df;stroke-miterlimit: 10;stroke-width: 1.224px"/>
      <ellipse cx="18.56" cy="55.86" data-cir-type="male" id="circuitoCon_VCC" rx="2.05" ry="1.99" style="fill: none;stroke: #e8e5df;stroke-miterlimit: 10;stroke-width: 1.224px"/>
      <ellipse cx="33" cy="55.86" data-cir-type="male" id="circuitoCon_SCL" rx="2.05" ry="1.99" style="fill: none;stroke: #e8e5df;stroke-miterlimit: 10;stroke-width: 1.224px"/>
    </g>
  </g>
</svg>