<?xml version="1.0" ?><svg height="16.62mm" viewBox="0 0 173 47.13" width="61.03mm" xmlns="http://www.w3.org/2000/svg" xmlns:xlink="http://www.w3.org/1999/xlink">
  <defs>
    <linearGradient data-name="Silver 01" gradientUnits="userSpaceOnUse" id="Silver_01" x1="26.35" x2="31.23" y1="23.36" y2="23.36">
      <stop offset="0" stop-color="#cbd1d6"/>
      <stop offset="0.2" stop-color="#bac0c5"/>
      <stop offset="0.43" stop-color="#aab1b5"/>
      <stop offset="0.52" stop-color="#b7bec2"/>
      <stop offset="0.84" stop-color="#e3eaed"/>
      <stop offset="1" stop-color="#f4fbfe"/>
    </linearGradient>
    <linearGradient id="Silver_01-2" x1="25.85" x2="31.73" xlink:href="#Silver_01" y1="23.36" y2="23.36"/>
    <linearGradient id="Silver_01-3" x1="34.76" x2="39.64" xlink:href="#Silver_01" y1="23.36" y2="23.36"/>
    <linearGradient id="Silver_01-4" x1="34.26" x2="40.14" xlink:href="#Silver_01" y1="23.36" y2="23.36"/>
    <linearGradient data-name="Gold 03" gradientUnits="userSpaceOnUse" id="Gold_03" x1="29.57" x2="35.26" y1="22.94" y2="22.94">
      <stop offset="0" stop-color="#c79317"/>
      <stop offset="0.5" stop-color="#eee64a"/>
      <stop offset="1" stop-color="#c79416"/>
    </linearGradient>
    <linearGradient data-name="Gold 02" gradientUnits="userSpaceOnUse" id="Gold_02" x1="29.07" x2="35.76" y1="22.94" y2="22.94">
      <stop offset="0" stop-color="#ba7802"/>
      <stop offset="0.18" stop-color="#d19b2d"/>
      <stop offset="0.39" stop-color="#ebc15d"/>
      <stop offset="0.5" stop-color="#f5d06f"/>
      <stop offset="0.61" stop-color="#ebc15d"/>
      <stop offset="0.82" stop-color="#d19b2d"/>
      <stop offset="1" stop-color="#ba7802"/>
    </linearGradient>
    <linearGradient id="Gold_03-2" x1="31.51" x2="32.71" xlink:href="#Gold_03" y1="22.94" y2="22.94"/>
    <linearGradient id="Gold_02-2" x1="31.01" x2="33.21" xlink:href="#Gold_02" y1="22.94" y2="22.94"/>
    <linearGradient gradientTransform="translate(287.52 46.72) rotate(-180)" id="Silver_01-5" x1="141.32" x2="146.2" xlink:href="#Silver_01" y1="23.36" y2="23.36"/>
    <linearGradient gradientTransform="translate(287.52 46.72) rotate(-180)" id="Silver_01-6" x1="140.82" x2="146.7" xlink:href="#Silver_01" y1="23.36" y2="23.36"/>
    <linearGradient gradientTransform="translate(270.71 46.72) rotate(-180)" id="Silver_01-7" x1="132.92" x2="137.79" xlink:href="#Silver_01" y1="23.36" y2="23.36"/>
    <linearGradient gradientTransform="translate(270.71 46.72) rotate(-180)" id="Silver_01-8" x1="132.42" x2="138.29" xlink:href="#Silver_01" y1="23.36" y2="23.36"/>
    <linearGradient id="Gold_03-3" x1="137.29" x2="142.98" xlink:href="#Gold_03" y1="23.78" y2="23.78"/>
    <linearGradient id="Gold_02-3" x1="136.79" x2="143.48" xlink:href="#Gold_02" y1="23.78" y2="23.78"/>
    <linearGradient id="Gold_03-4" x1="139.85" x2="141.04" xlink:href="#Gold_03" y1="23.78" y2="23.78"/>
    <linearGradient id="Gold_02-4" x1="139.35" x2="141.54" xlink:href="#Gold_02" y1="23.78" y2="23.78"/>
  </defs>
  <title>ZX Gesture</title>
  <g data-name="Layer 12" id="Layer_12">
    <g>
      <path d="M149.58,0H23.42A23.41,23.41,0,0,0,0,23.42H0A23.41,23.41,0,0,0,23.42,46.83H149.58A23.41,23.41,0,0,0,173,23.42h0A23.41,23.41,0,0,0,149.58,0ZM99.92,1.34a1.56,1.56,0,0,1,0,3.11,1.56,1.56,0,1,1,0-3.11Zm-7.08,0a1.56,1.56,0,1,1-1.55,1.55A1.55,1.55,0,0,1,92.84,1.34Zm-14.34,0A1.56,1.56,0,1,1,77,2.89,1.54,1.54,0,0,1,78.5,1.34Zm-7.17,0a1.56,1.56,0,0,1,0,3.11,1.56,1.56,0,1,1,0-3.11ZM74,44.86a1.55,1.55,0,1,1,1.55-1.55A1.55,1.55,0,0,1,74,44.86Zm7.19,0a1.55,1.55,0,1,1,1.56-1.55A1.54,1.54,0,0,1,81.14,44.86Zm7.26,0A1.55,1.55,0,1,1,90,43.31,1.54,1.54,0,0,1,88.4,44.86Zm7.24,0a1.55,1.55,0,1,1,1.56-1.55A1.55,1.55,0,0,1,95.64,44.86Zm7.2,0a1.55,1.55,0,1,1,1.55-1.55A1.55,1.55,0,0,1,102.84,44.86Zm7.21,0a1.55,1.55,0,1,1,1.56-1.55A1.55,1.55,0,0,1,110.05,44.86Zm7.17,0a1.55,1.55,0,1,1,1.56-1.55A1.55,1.55,0,0,1,117.22,44.86Zm7.2,0A1.55,1.55,0,1,1,126,43.31,1.55,1.55,0,0,1,124.42,44.86ZM168,37s-5.75,8.71-19.12,8.63-21.67,0-21.67,0l.58-.59V41.7l-1.26-1.27H132s.44.62.62.62h4s1.27,2.37,3,.91a1.66,1.66,0,0,0-.11-2.77v-.47h10a1.85,1.85,0,0,0,1.42,1.57c1.25.21,2-.16,2.29-1.29s-.92-1.92-1.42-2-4.08,0-4.08,0H126.54l-14.09,0a2.21,2.21,0,0,1-1.78,0H99.74l-2.39,2.19h-20l-1.51,1.07H72.14v5.38H20S.92,42.75.79,21.25c0,0,2-17.53,17.69-19.37C19.54,1.75,69,1.38,69,1.38S67.88,4,69.79,4.86s.52.68-1.12.68H61.88L58.21,1.88c-.06-.07-15.63,0-15.63,0L39,5.49c-1.52-.63-3.08.26-2.8,2,.25,1.44,2.62,1.66,3.28.39l3.78-4.14H57.51L61,7.28H75.6l1.87-1.87c1.75.4,3,0,3.66-1.57a3.29,3.29,0,0,0-.46-2.46h4.67a1.38,1.38,0,0,1,.66,0h4.2a2.88,2.88,0,0,0,1,3.68c1.71.79,3.15.58,4.12-1.22a3.08,3.08,0,0,0-.15-2.46h2.4a3.29,3.29,0,0,0,.78,3.68,5.48,5.48,0,0,0,1.68.63c1,.22.84.22.3.78S98.5,8.3,98.5,8.3h-42l-.67-.66a1.61,1.61,0,0,0-.59-1.83,4.18,4.18,0,0,0-2.06-.5H43.48l-6,6v3.41H34.17V31.94h8.41l.33.55c.14,1.38.94,1.89,2.35,1.59a1.81,1.81,0,0,0,.94-2.51,2.23,2.23,0,0,0-1.85-.85l-1-.57V15H39.57V12.44L44,8h9.29l2.08,2.08-3.08,3.09v4.24a1.77,1.77,0,0,0-1.06,2.4,1.84,1.84,0,0,0,2.64.66,2.05,2.05,0,0,0,.69-1.72V14.06l2-2h15A2,2,0,0,0,72,14.45v2.27a1.64,1.64,0,0,0-1.61-.43,1.35,1.35,0,0,0-.92,1.78l-1.73,1.74L65,22.58H54.79s-1.7-1.11-2.49-.8a2.46,2.46,0,0,0-1.13,1.44l.1,1.15.27,1s1.85-.21,2.25-.84l.12-.2H59.6l.73,4.4s.66.83.3,1.26a3.21,3.21,0,0,1-.57.57V33l-1.18.88v6.2H61v-5.5l2.19-2.19,2-2.36V26.54L66,27l-.12,13.06h1.9V28.25l3.71-3.71a3.26,3.26,0,0,0,2.55,1.84v6.11l5.79,5.79.33.32L99.74,37l12.71,0a1.79,1.79,0,0,0,.68-1.66.81.81,0,0,1,.91-1c1.13.05,10.38,0,10.38,0L127,31.77V11.67c1-1.7.56-2.74-1.1-3.17,0,0-1.75-.12-1.75,1.33s.71,1.84.71,1.84V31l-1.27,1.28H105.83l-.78.77H96.83l-3.74,3.74H81.67L77.44,32.6A4.7,4.7,0,0,0,77.5,30,1.7,1.7,0,0,0,76.26,29V25.92l1.28.58V24.72h1.88v2s2-.57,2.33-1.73,9.83-6.74,9.83-6.74V16.12l1.78-1.77v2.32c-.16,1.15,2.77,1.55,2.93.4h8.29l2.74,2.74a1.66,1.66,0,0,0,2.53,1.58c1.07-.51,1.09-1.71.23-2.76,1.59-.73.18-3.83-1.41-3.11l-2-2,3.55-3.55h.76s-1.41,1.49-1.09,2.2.17.91,1.5,1.5v10.6h-2.72c-.06-1.05-.57-1.59-1.73-1.44l-2.09-2.08V20a1.6,1.6,0,0,0-1.16-2.68c-1.28,0-1.87.58-1.79,1.8,0,0,.28.76.13.72s-2-.9-2.82.89a1.61,1.61,0,0,0,.33,1.57,1.32,1.32,0,0,1,.23,1.48l.75.59,1.45-.43.06-1.22L103,21.56,106,24.72l1.44-.78a.65.65,0,0,1,.9.15,4.32,4.32,0,0,1,.64,1.34v1.73l2-.13s-.57,2.19,1,2.5a1.8,1.8,0,0,0,2.34-2.06,5.19,5.19,0,0,1,.07-2h.3l.87,1.49a2,2,0,0,0,0,1.71,1.71,1.71,0,0,0,2.92.23,1.63,1.63,0,0,0-.09-1.94c-.75-1.13-.66,0-.66,0L116,25V7.83h12.16L132,11.75a1.75,1.75,0,0,0,1.29,1.67v1.25h-3.58V32H139V25.43h2v6.65h3.62v1.05l-1.08,1.08H129.83c-.3-1-1.07-1.34-2.29-1.17-1.12.76-1.73,1.67-.45,3.09a2.9,2.9,0,0,0,2.45,0h14.34l2.43-2.44V32h4.08V14.83h-9.18v4.55h-2.29V14.67h-3V12.58c-.22-1.49-.91-2.26-2-2.47l-5-5H102a5.25,5.25,0,0,0,.64-3.76h52.08c.12,0,13.58,3.12,17,16.75C171.71,18.13,174.25,30.58,168,37Zm-30.37,3.63a.92.92,0,1,1,.91.91A.92.92,0,0,1,137.63,40.67Zm12.87-2a.92.92,0,1,1,.92.92A.92.92,0,0,1,150.5,38.72ZM38.79,7a.92.92,0,1,1-.91-.92A.92.92,0,0,1,38.79,7Zm57.14,9a.92.92,0,1,1-.91-.91A.92.92,0,0,1,95.93,16Zm-6.6.25a.92.92,0,1,1-.91-.91A.92.92,0,0,1,89.33,16.29ZM84.42,13.8a.92.92,0,1,1-.92-.92A.92.92,0,0,1,84.42,13.8Zm-5-.72a.92.92,0,1,1-.92-.91A.92.92,0,0,1,79.42,13.08ZM76.7,31a.92.92,0,1,1-.91-.92A.91.91,0,0,1,76.7,31ZM74.08,13.08a.92.92,0,1,1-.91-.91A.92.92,0,0,1,74.08,13.08ZM55.17,7.33a.92.92,0,1,1-.92-.91A.92.92,0,0,1,55.17,7.33ZM43.71,32.49a.92.92,0,1,1,.92.92A.92.92,0,0,1,43.71,32.49ZM53.79,19a.92.92,0,1,1-.91-.92A.91.91,0,0,1,53.79,19ZM71.1,19a.92.92,0,1,1,.92-.92A.92.92,0,0,1,71.1,19ZM72,22.3a.92.92,0,1,1-.92-.91A.92.92,0,0,1,72,22.3Zm38.65,13.37a.92.92,0,1,1,.91.91A.92.92,0,0,1,110.67,35.67ZM125,10.11a.92.92,0,1,1,.92.92A.92.92,0,0,1,125,10.11Zm-16,8a.92.92,0,1,1,.92-.92A.92.92,0,0,1,108.93,18.13ZM110,20a.92.92,0,1,1-.91-.92A.92.92,0,0,1,110,20Zm1.62-7.1a.92.92,0,1,1,.92-.91A.91.91,0,0,1,111.58,12.86ZM113.42,28a.92.92,0,1,1-.92-.92A.92.92,0,0,1,113.42,28Zm-9-9a.92.92,0,1,1-.91-.92A.91.91,0,0,1,104.46,18.93Zm-2.6,2.46a.92.92,0,1,1-.91-.92A.91.91,0,0,1,101.86,21.39ZM116.08,28a.92.92,0,1,1,.92.91A.92.92,0,0,1,116.08,28ZM132.8,11.67a.92.92,0,1,1,.92.91A.92.92,0,0,1,132.8,11.67ZM129,34.75a.92.92,0,1,1-.91-.92A.92.92,0,0,1,129,34.75Z" style="fill: #8a231e"/>
      <path d="M154.71,1.38H102.63A5.25,5.25,0,0,1,102,5.14h27l5,5c1.05.21,1.74,1,2,2.47v2.09h3v4.71h2.29V14.83h9.18V32h-4.08v1.73l-2.43,2.44H129.54a2.9,2.9,0,0,1-2.45,0c-1.28-1.42-.67-2.33.45-3.09,1.22-.17,2,.21,2.29,1.17H143.5l1.08-1.08V32.08H141V25.43h-2V32h-9.25V14.67h3.58V13.42A1.75,1.75,0,0,1,132,11.75l-3.91-3.92H116V25l1.66,1.94s-.09-1.13.66,0a1.63,1.63,0,0,1,.09,1.94,1.71,1.71,0,0,1-2.92-.23,2,2,0,0,1,0-1.71l-.87-1.49h-.3a5.19,5.19,0,0,0-.07,2,1.8,1.8,0,0,1-2.34,2.06c-1.6-.31-1-2.5-1-2.5l-2,.13V25.43a4.32,4.32,0,0,0-.64-1.34.65.65,0,0,0-.9-.15l-1.44.78L103,21.56,102,22.72l-.06,1.22-1.45.43-.75-.59a1.32,1.32,0,0,0-.23-1.48,1.61,1.61,0,0,1-.33-1.57c.77-1.79,2.68-.92,2.82-.89s-.13-.72-.13-.72c-.08-1.22.51-1.83,1.79-1.8A1.6,1.6,0,0,1,104.81,20v.71l2.09,2.08c1.16-.15,1.67.39,1.73,1.44h2.72V13.63c-1.33-.59-1.18-.8-1.5-1.5s1.09-2.2,1.09-2.2h-.76l-3.55,3.55,2,2c1.59-.72,3,2.38,1.41,3.11.86,1.05.84,2.25-.23,2.76a1.66,1.66,0,0,1-2.53-1.58l-2.74-2.74H96.29c-.16,1.15-3.09.75-2.93-.4V14.35l-1.78,1.77v2.12S82,23.83,81.75,25s-2.33,1.73-2.33,1.73v-2H77.54V26.5l-1.28-.58V29A1.7,1.7,0,0,1,77.5,30a4.7,4.7,0,0,1-.06,2.57l4.23,4.23H93.09l3.74-3.74h8.22l.78-.77h17.74L124.84,31V11.67s-.71-.38-.71-1.84,1.75-1.33,1.75-1.33c1.66.43,2.06,1.47,1.1,3.17v20.1l-2.56,2.56s-9.25.05-10.38,0a.81.81,0,0,0-.91,1,1.79,1.79,0,0,1-.68,1.66l14.09,0h21.13s3.58-.13,4.08,0,1.71.92,1.42,2-1,1.5-2.29,1.29a1.85,1.85,0,0,1-1.42-1.57h-10v.47a1.66,1.66,0,0,1,.11,2.77c-1.72,1.46-3-.91-3-.91h-4c-.18,0-.62-.62-.62-.62h-5.43l1.26,1.27v3.38l-.58.59s8.29-.09,21.67,0S168,37,168,37c6.25-6.46,3.71-18.91,3.71-18.91C168.29,4.5,154.83,1.38,154.71,1.38Zm-25.38,10a.54.54,0,0,1,.54.54.54.54,0,0,1-.54.54.55.55,0,0,1-.54-.54A.54.54,0,0,1,129.33,11.41ZM80.67,34.62a.54.54,0,1,1,0-1.08.54.54,0,1,1,0,1.08Zm11.08-2.51a.54.54,0,0,1-.54-.54.54.54,0,0,1,1.08,0A.54.54,0,0,1,91.75,32.11Zm15.16-.54a.54.54,0,0,1-.53-.54.54.54,0,1,1,.53.54ZM116,31a.54.54,0,1,1,.54-.54A.54.54,0,0,1,116,31Zm4.58-21.47a.54.54,0,0,1,0-1.08.54.54,0,1,1,0,1.08Zm-4.3,26.76a.54.54,0,1,1,.54-.54A.54.54,0,0,1,116.25,36.32Zm43.87-21.87a.54.54,0,0,1-.54.53.54.54,0,1,1,.54-.53Zm-1.45-9.82a.92.92,0,1,1-.92.91A.91.91,0,0,1,158.67,4.63Zm.91,24a5.29,5.29,0,1,1,5.29-5.29A5.29,5.29,0,0,1,159.58,28.64Z" style="fill: #cf2f27"/>
      <path d="M79.87,38.28l-5.79-5.79V26.38a3.26,3.26,0,0,1-2.55-1.84l-3.71,3.71V40.08h-1.9L66,27l-.83-.48V30l-2,2.36L61,34.58v5.5H58.88v-6.2L60.06,33V30.6a3.21,3.21,0,0,0,.57-.57c.36-.43-.3-1.26-.3-1.26l-.73-4.4H53.91l-.12.2c-.4.63-2.25.84-2.25.84l-.27-1-.1-1.15a2.46,2.46,0,0,1,1.13-1.44c.79-.31,2.49.8,2.49.8H65l2.77-2.77,1.73-1.74a1.35,1.35,0,0,1,.92-1.78,1.64,1.64,0,0,1,1.61.43V14.45a2,2,0,0,1-.45-2.36h-15l-2,2v4.66a2.05,2.05,0,0,1-.69,1.72,1.84,1.84,0,0,1-2.64-.66,1.77,1.77,0,0,1,1.06-2.4V13.14l3.08-3.09L53.33,8H44l-4.47,4.47V15h3.78V30.15l1,.57a2.23,2.23,0,0,1,1.85.85,1.81,1.81,0,0,1-.94,2.51c-1.41.3-2.21-.21-2.35-1.59l-.33-.55H34.17V14.71h3.32V11.3l6-6h9.74a4.18,4.18,0,0,1,2.06.5,1.61,1.61,0,0,1,.59,1.83l.67.66h42S99.79,7,100.33,6.47s.74-.56-.3-.78a5.48,5.48,0,0,1-1.68-.63,3.29,3.29,0,0,1-.78-3.68h-2.4a3.08,3.08,0,0,1,.15,2.46c-1,1.8-2.41,2-4.12,1.22a2.88,2.88,0,0,1-1-3.68H86a1.55,1.55,0,1,1-.66,0H80.67a3.29,3.29,0,0,1,.46,2.46c-.65,1.53-1.91,2-3.66,1.57L75.6,7.28H61l-3.5-3.5H43.23L39.45,7.92c-.66,1.27-3,1.05-3.28-.39-.28-1.78,1.28-2.67,2.8-2l3.61-3.61s15.57-.07,15.63,0l3.67,3.66h6.79c1.64,0,3,.17,1.12-.68S69,1.38,69,1.38s-49.47.37-50.53.5C2.76,3.72.79,21.25.79,21.25.92,42.75,20,45.67,20,45.67h52.1V40.29h3.65l1.51-1.07h20L99.74,37,80.2,38.6Zm-34.33-16a.54.54,0,1,1,.54-.54A.54.54,0,0,1,45.54,22.32Zm20.67-20a.54.54,0,0,1,.54.54.54.54,0,0,1-.54.54.54.54,0,0,1-.54-.54A.55.55,0,0,1,66.21,2.35ZM15.11,4.63a.92.92,0,1,1-.92.91A.92.92,0,0,1,15.11,4.63Zm-1.73,9.91a.29.29,0,1,1-.29.29A.29.29,0,0,1,13.38,14.54ZM9.83,32.78a.29.29,0,1,1,.29-.29A.29.29,0,0,1,9.83,32.78Zm3.55-4.14a5.29,5.29,0,1,1,5.29-5.29A5.29,5.29,0,0,1,13.38,28.64Zm5.29,9.62a.54.54,0,1,1,0-1.08.54.54,0,0,1,0,1.08ZM25.82,3.59a.92.92,0,1,1-.92.92A.92.92,0,0,1,25.82,3.59ZM23,40.14a.92.92,0,1,1,.91-.92A.92.92,0,0,1,23,40.14ZM29.33,39a.54.54,0,1,1,.54-.54A.54.54,0,0,1,29.33,39Zm2.2-6.89H23V15.07h1v-.48l.72,0a.91.91,0,0,1-.8-.89.92.92,0,1,1,1.08.88l.56,0-.13.53h6C31.94,15.07,31.53,32.15,31.53,32.15Zm.58-26.07a.54.54,0,1,1,.54-.54A.54.54,0,0,1,32.11,6.08ZM35.26,34a.54.54,0,0,1-.54-.54.54.54,0,0,1,1.08,0A.54.54,0,0,1,35.26,34ZM59.6,28.77a.92.92,0,1,1-.92.92A.92.92,0,0,1,59.6,28.77Zm-10.37-.19a.54.54,0,1,1,.54-.54A.54.54,0,0,1,49.23,28.58Zm3.14,16.28a1.55,1.55,0,1,1,1.55-1.55A1.55,1.55,0,0,1,52.37,44.86Zm7.23,0a1.55,1.55,0,1,1,1.55-1.55A1.55,1.55,0,0,1,59.6,44.86Zm3.39-10a.54.54,0,1,1,.54-.54A.54.54,0,0,1,63,34.91Zm3.76,10a1.55,1.55,0,1,1,1.56-1.55A1.54,1.54,0,0,1,66.75,44.86Zm2.74-15.17a.92.92,0,1,1,.92.91A.92.92,0,0,1,69.49,29.69Zm1.61,9.86a.92.92,0,1,1,.92-.91A.91.91,0,0,1,71.1,39.55Zm5.16,0a.92.92,0,1,1,.92-.91A.91.91,0,0,1,76.26,39.55Z" style="fill: #cf2f27"/>
      <path d="M25.5,15.07l.13-.53-.56,0a1,1,0,0,1-.17,0l-.11,0-.72,0v.48H23V32.15h8.49s.41-17.08,0-17.08Z" style="fill: #8a231e"/>
    </g>
    <polyline points="25.13 5.54 24.07 6.59 23.17 6.59 20.68 9.08 20.68 36.69 22.18 38.19" style="fill: none;stroke: #8a231e;stroke-miterlimit: 10;stroke-width: 2px"/>
    <circle cx="22.96" cy="39.22" r="1.03" style="fill: none;stroke: #8a231e;stroke-miterlimit: 10;stroke-width: 2px"/>
    <circle cx="25.82" cy="4.51" r="1.03" style="fill: none;stroke: #8a231e;stroke-miterlimit: 10;stroke-width: 2px"/>
  </g>
  <g data-name="Layer 7" id="Layer_7">
    <polyline points="25.13 5.54 24.07 6.59 23.17 6.59 20.68 9.08 20.68 36.69 22.18 38.19" style="fill: none;stroke: #cf2f27;stroke-linecap: round;stroke-linejoin: round;stroke-width: 0.75px"/>
    <circle cx="22.96" cy="39.22" r="1.03" style="fill: none;stroke: #cf2f27;stroke-linecap: round;stroke-linejoin: round;stroke-width: 0.75px"/>
    <circle cx="24.9" cy="13.68" r="1.03" style="fill: none;stroke: #cf2f27;stroke-linecap: round;stroke-linejoin: round;stroke-width: 0.75px"/>
    <circle cx="25.82" cy="4.51" r="1.03" style="fill: none;stroke: #cf2f27;stroke-linecap: round;stroke-linejoin: round;stroke-width: 0.75px"/>
    <circle cx="37.88" cy="7" r="1.03" style="fill: none;stroke: #cf2f27;stroke-linecap: round;stroke-linejoin: round;stroke-width: 0.75px"/>
    <circle cx="54.25" cy="7.33" r="1.03" style="fill: none;stroke: #cf2f27;stroke-linecap: round;stroke-linejoin: round;stroke-width: 0.75px"/>
    <circle cx="52.88" cy="19.01" r="1.03" style="fill: none;stroke: #cf2f27;stroke-linecap: round;stroke-linejoin: round;stroke-width: 0.75px"/>
    <circle cx="83.5" cy="13.8" r="1.03" style="fill: none;stroke: #cf2f27;stroke-linecap: round;stroke-linejoin: round;stroke-width: 0.75px"/>
    <circle cx="75.79" cy="30.95" r="1.03" style="fill: none;stroke: #cf2f27;stroke-linecap: round;stroke-linejoin: round;stroke-width: 0.75px"/>
    <circle cx="71.1" cy="38.64" r="1.03" style="fill: none;stroke: #cf2f27;stroke-linecap: round;stroke-linejoin: round;stroke-width: 0.75px"/>
    <circle cx="76.26" cy="38.64" r="1.03" style="fill: none;stroke: #cf2f27;stroke-linecap: round;stroke-linejoin: round;stroke-width: 0.75px"/>
    <path d="M71.44,29.69a1,1,0,1,1-1-1A1,1,0,0,1,71.44,29.69Z" style="fill: none;stroke: #cf2f27;stroke-linecap: round;stroke-linejoin: round;stroke-width: 0.75px"/>
    <path d="M60.63,29.69a1,1,0,1,1-1-1A1,1,0,0,1,60.63,29.69Z" style="fill: none;stroke: #cf2f27;stroke-linecap: round;stroke-linejoin: round;stroke-width: 0.75px"/>
    <circle cx="52.3" cy="23.54" r="1.03" style="fill: none;stroke: #cf2f27;stroke-linecap: round;stroke-linejoin: round;stroke-width: 0.75px"/>
    <circle cx="52.3" cy="23.54" r="0.92" style="fill: #b4004c"/>
    <circle cx="71.1" cy="18.07" r="1.03" style="fill: none;stroke: #cf2f27;stroke-linecap: round;stroke-linejoin: round;stroke-width: 0.75px"/>
    <circle cx="71.1" cy="22.3" r="1.03" style="fill: none;stroke: #cf2f27;stroke-linecap: round;stroke-linejoin: round;stroke-width: 0.75px"/>
    <circle cx="78.5" cy="13.08" r="1.03" style="fill: none;stroke: #cf2f27;stroke-linecap: round;stroke-linejoin: round;stroke-width: 0.75px"/>
    <circle cx="73.17" cy="13.08" r="1.03" style="fill: none;stroke: #cf2f27;stroke-linecap: round;stroke-linejoin: round;stroke-width: 0.75px"/>
    <circle cx="88.42" cy="16.29" r="1.03" style="fill: none;stroke: #cf2f27;stroke-linecap: round;stroke-linejoin: round;stroke-width: 0.75px"/>
    <circle cx="95.02" cy="16.04" r="1.03" style="fill: none;stroke: #cf2f27;stroke-linecap: round;stroke-linejoin: round;stroke-width: 0.75px"/>
    <circle cx="108.93" cy="17.21" r="1.03" style="fill: none;stroke: #cf2f27;stroke-linecap: round;stroke-linejoin: round;stroke-width: 0.75px"/>
    <circle cx="109.05" cy="19.96" r="1.03" style="fill: none;stroke: #cf2f27;stroke-linecap: round;stroke-linejoin: round;stroke-width: 0.75px"/>
    <circle cx="103.55" cy="18.93" r="1.03" style="fill: none;stroke: #cf2f27;stroke-linecap: round;stroke-linejoin: round;stroke-width: 0.75px"/>
    <circle cx="100.95" cy="21.39" r="1.03" style="fill: none;stroke: #cf2f27;stroke-linecap: round;stroke-linejoin: round;stroke-width: 0.75px"/>
    <circle cx="111.58" cy="11.95" r="1.03" style="fill: none;stroke: #cf2f27;stroke-linecap: round;stroke-linejoin: round;stroke-width: 0.75px"/>
    <circle cx="112.5" cy="27.95" r="1.03" style="fill: none;stroke: #cf2f27;stroke-linecap: round;stroke-linejoin: round;stroke-width: 0.75px"/>
    <circle cx="117" cy="27.95" r="1.03" style="fill: none;stroke: #cf2f27;stroke-linecap: round;stroke-linejoin: round;stroke-width: 0.75px"/>
    <circle cx="125.88" cy="10.11" r="1.03" style="fill: none;stroke: #cf2f27;stroke-linecap: round;stroke-linejoin: round;stroke-width: 0.75px"/>
    <circle cx="128.13" cy="34.75" r="1.03" style="fill: none;stroke: #cf2f27;stroke-linecap: round;stroke-linejoin: round;stroke-width: 0.75px"/>
    <circle cx="133.72" cy="11.67" r="1.03" style="fill: none;stroke: #cf2f27;stroke-linecap: round;stroke-linejoin: round;stroke-width: 0.75px"/>
    <circle cx="111.58" cy="35.67" r="1.03" style="fill: none;stroke: #cf2f27;stroke-linecap: round;stroke-linejoin: round;stroke-width: 0.75px"/>
    <circle cx="138.54" cy="40.67" r="1.03" style="fill: none;stroke: #cf2f27;stroke-linecap: round;stroke-linejoin: round;stroke-width: 0.75px"/>
    <circle cx="151.42" cy="38.72" r="1.03" style="fill: none;stroke: #cf2f27;stroke-linecap: round;stroke-linejoin: round;stroke-width: 0.75px"/>
    <circle cx="44.63" cy="32.49" r="1.03" style="fill: none;stroke: #cf2f27;stroke-linecap: round;stroke-linejoin: round;stroke-width: 0.75px"/>
    <path d="M24.29,14.66v.88h-1V31.46h7.92s.38-15.92,0-15.92H25.63v-1Z" style="fill: #cf2f27"/>
    <line style="fill: none;stroke: #cf2f27;stroke-linecap: round;stroke-linejoin: round;stroke-width: 0.75px" x1="43.71" x2="42.1" y1="31.75" y2="30.15"/>
    <rect height="16.07" style="fill: #cf2f27" width="7.58" x="35" y="15.5"/>
    <polyline points="38.46 16.04 38.46 11.79 43.6 6.65 53.22 6.65" style="fill: none;stroke: #cf2f27;stroke-linecap: round;stroke-linejoin: round;stroke-width: 0.75px"/>
    <polyline points="39.02 6.88 43.05 2.84 57.98 2.84 61.66 6.52 74.89 6.52 77.22 4.18" style="fill: none;stroke: #cf2f27;stroke-linecap: round;stroke-linejoin: round;stroke-width: 0.75px"/>
    <polyline points="55.28 8 56.54 9.26 84.82 9.26 99.29 9.26 101.87 6.67 128.45 6.67 132.69 10.91" style="fill: none;stroke: #cf2f27;stroke-linecap: round;stroke-linejoin: round;stroke-width: 0.75px"/>
    <polyline points="53.6 17.75 53.6 13.75 56.21 11.14 101.98 11.14" style="fill: none;stroke: #cf2f27;stroke-linecap: round;stroke-linejoin: round;stroke-width: 0.75px"/>
    <polyline points="84.42 12.77 91.04 12.77 91.62 12.19 106.73 12.19 109.79 9.13 115.04 9.13 115.04 25.81 116.25 27.02" style="fill: none;stroke: #cf2f27;stroke-linecap: round;stroke-linejoin: round;stroke-width: 0.5px"/>
    <polyline points="108.13 16.29 105.56 13.72 92.6 13.72 90.57 15.76 90.57 19.04" style="fill: none;stroke: #cf2f27;stroke-linecap: round;stroke-linejoin: round;stroke-width: 0.5px"/>
    <polyline points="95.93 16.04 104.85 16.04 107.94 19.12" style="fill: none;stroke: #cf2f27;stroke-linecap: round;stroke-linejoin: round;stroke-width: 0.5px"/>
    <polyline points="87.5 16.29 76.6 16.29 74.75 18.14 74.75 29.69" style="fill: none;stroke: #cf2f27;stroke-linecap: round;stroke-linejoin: round;stroke-width: 0.5px"/>
    <line style="fill: none;stroke: #cf2f27;stroke-linecap: round;stroke-linejoin: round;stroke-width: 0.5px" x1="78.5" x2="78.5" y1="14" y2="18.24"/>
    <path d="M75.79,31.86l5.34,5.86H93.67l3.56-3.57s7.79-.14,7.94,0,1-1,1-1H124l1.55-1.54V11" style="fill: none;stroke: #cf2f27;stroke-linecap: round;stroke-linejoin: round;stroke-width: 0.5px"/>
    <polyline points="103.55 20.35 103.55 20.88 108.11 25.43" style="fill: none;stroke: #cf2f27;stroke-linecap: round;stroke-linejoin: round;stroke-width: 0.5px"/>
    <polyline points="100.95 22.89 100.95 23.94 102 24.98" style="fill: none;stroke: #cf2f27;stroke-linecap: round;stroke-linejoin: round;stroke-width: 0.5px"/>
    <polyline points="97.35 38.06 99.49 35.92 110.08 35.92" style="fill: none;stroke: #cf2f27;stroke-linecap: round;stroke-linejoin: round;stroke-width: 0.5px"/>
    <path d="M103.29,37.83c.19-.13,31.46,0,31.46,0h15.64" style="fill: none;stroke: #cf2f27;stroke-linecap: round;stroke-linejoin: round;stroke-width: 0.5px"/>
    <polyline points="137.51 40.29 133.13 40.29 132.02 39.19 103.29 39.19" style="fill: none;stroke: #cf2f27;stroke-linecap: round;stroke-linejoin: round;stroke-width: 0.5px"/>
    <polyline points="129.33 35.04 143.79 35.04 145.63 33.21 145.63 30.54" style="fill: none;stroke: #cf2f27;stroke-linecap: round;stroke-linejoin: round;stroke-width: 0.5px"/>
    <rect height="16.42" style="fill: #cf2f27" width="8.38" x="141.46" y="15.04"/>
    <rect height="16.42" style="fill: #cf2f27" width="8.38" x="130.17" y="15.04"/>
    <line style="fill: none;stroke: #cf2f27;stroke-linecap: round;stroke-linejoin: round;stroke-width: 0.5px" x1="112.5" x2="112.5" y1="12.98" y2="27.03"/>
    <line style="fill: none;stroke: #cf2f27;stroke-linecap: round;stroke-linejoin: round;stroke-width: 0.5px" x1="113.67" x2="113.67" y1="24.72" y2="9.08"/>
    <line style="fill: none;stroke: #cf2f27;stroke-linecap: round;stroke-linejoin: round;stroke-width: 0.5px" x1="53.22" x2="59.85" y1="23.54" y2="23.54"/>
    <polyline points="64.35 27.03 64.35 29.69 59.98 34.06 59.98 41.13" style="fill: none;stroke: #cf2f27;stroke-linecap: round;stroke-linejoin: round;stroke-width: 0.5px"/>
    <polyline points="66.98 40.81 66.98 27.95 70.9 24.02 70.9 22.62" style="fill: none;stroke: #cf2f27;stroke-linecap: round;stroke-linejoin: round;stroke-width: 0.5px"/>
    <line style="fill: none;stroke: #cf2f27;stroke-linecap: round;stroke-linejoin: round;stroke-width: 0.5px" x1="70.19" x2="67.82" y1="18.93" y2="21.29"/>
    <line style="fill: none;stroke: #cf2f27;stroke-linecap: round;stroke-linejoin: round;stroke-width: 0.5px" x1="73.17" x2="73.17" y1="14.45" y2="24.72"/>
    <line style="fill: #8a231e;stroke: #cf2f27;stroke-linecap: round;stroke-linejoin: round;stroke-width: 0.75px" x1="134.64" x2="134.64" y1="12.58" y2="15.55"/>
  </g>
  <g data-name="TEXT" id="TEXT-2">
    <g>
      <path d="M115.36,22.76V19a1.43,1.43,0,0,1,.11-.58,1,1,0,0,1,1.11-.57l.2,0-.07,0a1.13,1.13,0,0,0-.18.12.35.35,0,0,0-.07.52.76.76,0,0,0,.22.18.8.8,0,0,0,.72,0,.54.54,0,0,0,.22-.8c-.11-.16-.27-.28-.38-.43a3.16,3.16,0,0,1-.35-.49.84.84,0,0,1,.2-1.06,1.36,1.36,0,0,1,1.83-.06c-.12,0-.26,0-.39,0a.56.56,0,0,0-.31.21.41.41,0,0,0,0,.5,1.19,1.19,0,0,0,.71.55c.26.07.43-.07.42-.37a.28.28,0,0,0,0-.09l0,0a2,2,0,0,1,.28.21,1.93,1.93,0,0,1,.53,1,2.58,2.58,0,0,1-1.61,2.84,2.35,2.35,0,0,1-1,.13.9.9,0,0,0-.75.28c-.45.48-.89,1-1.34,1.47Z" style="fill: #fff"/>
      <path d="M102.36,27.16V30l-.18-.16-.87-.78a.22.22,0,0,1-.06-.14c0-1.69,0-3.37,0-5.06,0-.08,0-.11.1-.12l1-.17v.5l0,0a1.29,1.29,0,0,1,1-.58,1.69,1.69,0,0,1,1.4.5,2,2,0,0,1,.5,1.05,2.75,2.75,0,0,1-.18,1.72,1.65,1.65,0,0,1-2.2.82,1.38,1.38,0,0,1-.52-.44Zm0-1.56a1.84,1.84,0,0,0,.14.78.85.85,0,0,0,.79.52.82.82,0,0,0,.83-.49,1.9,1.9,0,0,0,0-1.6.8.8,0,0,0-.8-.48.84.84,0,0,0-.79.52A1.78,1.78,0,0,0,102.32,25.6Z" style="fill: #fff"/>
      <path d="M114.18,25l.33-.31,1-1.05a.24.24,0,0,1,.1,0h1.22s0,0,0,0l-.72.76c-.24.25-.47.51-.72.78l1.65,2.49h-1.24a.15.15,0,0,1-.16-.09c-.32-.54-.66-1.08-1-1.62l0-.08-.3.28a.34.34,0,0,0-.14.31c0,.36,0,.72,0,1.08v.11h-1.11V22.79a.16.16,0,0,1,.1-.17l.9-.49.11-.05Z" style="fill: #fff"/>
      <path d="M108.37,27.25a1.66,1.66,0,0,1-.78.42,2.2,2.2,0,0,1-1,0,1.11,1.11,0,0,1-.91-1.25,1.06,1.06,0,0,1,.89-1c.32-.08.65-.1,1-.16a4.52,4.52,0,0,0,.53-.11.33.33,0,0,0,.28-.32c0-.2,0-.39-.23-.48a1.07,1.07,0,0,0-.94,0,.57.57,0,0,0-.27.49h-1.11a1.25,1.25,0,0,1,.28-.76,1.52,1.52,0,0,1,.88-.49,3.19,3.19,0,0,1,1.81.08,1,1,0,0,1,.69,1c0,.71,0,1.41,0,2.11a5.87,5.87,0,0,0,0,.59,2.5,2.5,0,0,0,.07.26h-1c-.06,0-.09,0-.1-.08S108.39,27.36,108.37,27.25Zm0-1.57-.24.09-.53.1A1.39,1.39,0,0,0,107,26a.49.49,0,0,0-.24.53.43.43,0,0,0,.38.4,2.19,2.19,0,0,0,.51,0,.7.7,0,0,0,.64-.63C108.33,26.13,108.33,25.91,108.34,25.68Z" style="fill: #fff"/>
      <path d="M119.9,23.61H121v.12c0,.77,0,1.53,0,2.3a1.42,1.42,0,0,0,0,.36.56.56,0,0,0,.54.46.73.73,0,0,0,.9-.59,1.13,1.13,0,0,0,0-.32c0-.73,0-1.47,0-2.2v-.13h1.1v4h-1v-.56l-.06.07a1.39,1.39,0,0,1-1.29.6,2.44,2.44,0,0,1-.6-.11,1.08,1.08,0,0,1-.71-.88,4.52,4.52,0,0,1-.06-.53V23.66A.11.11,0,0,1,119.9,23.61Z" style="fill: #fff"/>
      <path d="M128.05,27.62h-1.11v-.11c0-.73,0-1.47,0-2.2a1.75,1.75,0,0,0-.05-.46.58.58,0,0,0-.61-.48.74.74,0,0,0-.85.69,2.32,2.32,0,0,0,0,.46v2.1h-1.1v-4h1v.55l.05,0a1.4,1.4,0,0,1,1.35-.62,2.14,2.14,0,0,1,.56.11,1.08,1.08,0,0,1,.71.88,3.41,3.41,0,0,1,0,.55c0,.82,0,1.65,0,2.48Z" style="fill: #fff"/>
      <path d="M100.7,24.78h-1a.11.11,0,0,1-.08-.05.53.53,0,0,0-.5-.47,1.15,1.15,0,0,0-.61,0,.31.31,0,0,0-.24.26.33.33,0,0,0,.16.34,2.43,2.43,0,0,0,.64.22c.33.08.66.15,1,.25a1,1,0,0,1,.68.6,1.27,1.27,0,0,1-.45,1.43,2.12,2.12,0,0,1-1,.33,2.91,2.91,0,0,1-1.4-.18,1.3,1.3,0,0,1-.84-1.18s0,0,0,0h1a.69.69,0,0,0,.7.66,2.7,2.7,0,0,0,.49,0,.68.68,0,0,0,.22-.12.37.37,0,0,0,0-.64,2.44,2.44,0,0,0-.59-.21c-.3-.09-.62-.16-.93-.24l-.27-.11a.93.93,0,0,1-.53-1,1.12,1.12,0,0,1,.83-1,2.84,2.84,0,0,1,1.8,0A1.22,1.22,0,0,1,100.7,24.78Z" style="fill: #fff"/>
      <path d="M118.83,27.62h-1.11V24.34h-1.08c.18-.18.36-.34.51-.52a.54.54,0,0,1,.53-.22h0c0-.14,0-.28,0-.42a1.08,1.08,0,0,1,1-1.06,7.22,7.22,0,0,1,.93,0v.82h-.4c-.29,0-.39.11-.41.39,0,.1,0,.2,0,.31h.75v.74h-.75Z" style="fill: #fff"/>
      <path d="M111.17,27.62h-1.11v-.1c0-1.21,0-2.42,0-3.63,0-.07,0-.11.11-.12l.94-.17v.75a1.44,1.44,0,0,1,1.55-.83v1a4.86,4.86,0,0,0-.54,0,1,1,0,0,0-.9.85,2.42,2.42,0,0,0,0,.47c0,.55,0,1.11,0,1.66Z" style="fill: #fff"/>
    </g>
    <path d="M62.6,21.37c.09-.24.2-.47.28-.7.74-2.15,1.49-4.29,2.23-6.44.08-.23.15-.46.25-.68.23-.49.66-.77,1.06-.54a1.67,1.67,0,0,1,.52,1,1.66,1.66,0,0,1-.2.76c-.74,2.15-1.49,4.29-2.23,6.44-.08.24-.15.49-.22.73l.19.09a4.92,4.92,0,0,0,.3-.61c.69-2,1.36-3.92,2-5.88.07-.21.11-.5.25-.59.31-.21.74-.5,1-.41s.43.57.53.93c.06.18-.09.46-.17.69l-2,5.74c-.09.24-.14.48-.21.72l.18.1a3,3,0,0,0,.28-.44c.26-.66.47-1.34.75-2a2.36,2.36,0,0,1,1.45-1.4c.61-.18.88.11.66.75C68.72,22.1,67.9,24.55,67,27a3.66,3.66,0,0,1-4.57,2.34c-.81-.26-1.62-.55-2.42-.84a3.78,3.78,0,0,1-2.4-4.86c.92-3,2-6,3.06-9A.83.83,0,0,1,61.77,14c.54.19.67.66.48,1.22-.54,1.6-1.1,3.19-1.65,4.78a5.47,5.47,0,0,0-.14.68l.2.06a5,5,0,0,0,.25-.52q.95-2.7,1.87-5.4l.17-.48c.21-.52.54-.83,1.07-.67s.69.64.5,1.2c-.65,1.92-1.32,3.83-2,5.75-.08.23-.13.47-.19.71Z" style="fill: #fff"/>
    <g>
      <path d="M72.65,26.36l-.08,0a.47.47,0,0,1-.21-.79,5.61,5.61,0,0,0,.77-.92,4.54,4.54,0,0,0,.71-1.89,4.62,4.62,0,0,0-1.47-4.12.46.46,0,0,1-.13-.49.48.48,0,0,1,.39-.33h.16a.62.62,0,0,1,.32.17,5.14,5.14,0,0,1,.66.74,5.54,5.54,0,0,1,1.13,2.95,1.1,1.1,0,0,0,0,.18v.49a.06.06,0,0,0,0,0,6.86,6.86,0,0,1-.12.91,5.71,5.71,0,0,1-1.7,2.94.64.64,0,0,1-.16.11l-.14,0Z" style="fill: #fff"/>
      <path d="M73.06,22.27A4,4,0,0,1,71.77,25a.5.5,0,0,1-.51.11.43.43,0,0,1-.33-.39.43.43,0,0,1,.15-.36,3.19,3.19,0,0,0,.62-.8,3,3,0,0,0,.36-1.86,3.13,3.13,0,0,0-1-1.93.43.43,0,0,1-.1-.52.5.5,0,0,1,.78-.13,4.27,4.27,0,0,1,1,1.48A4.42,4.42,0,0,1,73.06,22.27Z" style="fill: #fff"/>
      <path d="M71.31,22.08a2.43,2.43,0,0,1-.79,1.78A.49.49,0,0,1,70,24a.46.46,0,0,1-.29-.44.44.44,0,0,1,.15-.3,1.56,1.56,0,0,0,0-2.28.45.45,0,0,1-.11-.51.5.5,0,0,1,.78-.15,2.41,2.41,0,0,1,.77,1.49c0,.06,0,.11,0,.16Z" style="fill: #fff"/>
    </g>
    <g>
      <path d="M53.69,20.57l.09,0a.47.47,0,0,1,.21.79,4.76,4.76,0,0,0-.77.92,4.41,4.41,0,0,0-.71,1.89A4.64,4.64,0,0,0,54,28.31a.45.45,0,0,1,.14.49.49.49,0,0,1-.39.33h-.17a.67.67,0,0,1-.32-.17,5.81,5.81,0,0,1-.66-.74,5.53,5.53,0,0,1-1.12-2.95c0-.06,0-.12,0-.18v-.53a4.63,4.63,0,0,1,.12-.91,5.7,5.7,0,0,1,1.69-2.94l.17-.11.13,0Z" style="fill: #fff"/>
      <path d="M53.29,24.66a3.91,3.91,0,0,1,1.29-2.73.48.48,0,0,1,.51-.12.44.44,0,0,1,.32.39.42.42,0,0,1-.14.36,3.19,3.19,0,0,0-.62.8,3,3,0,0,0-.37,1.86,3.13,3.13,0,0,0,1,1.93.42.42,0,0,1,.11.52.51.51,0,0,1-.78.13,4,4,0,0,1-1.3-3.14Z" style="fill: #fff"/>
      <path d="M55,24.85a2.38,2.38,0,0,1,.78-1.78.51.51,0,0,1,.54-.1.45.45,0,0,1,.28.44.44.44,0,0,1-.15.31,1.57,1.57,0,0,0,0,2.27.44.44,0,0,1,.12.51.5.5,0,0,1-.78.15,2.47,2.47,0,0,1-.78-1.49c0-.06,0-.11,0-.16Z" style="fill: #fff"/>
    </g>
    <g>
      <path d="M49.68,33.7h-.79a.21.21,0,0,1-.13-.05.17.17,0,0,1,0-.13.15.15,0,0,1,0-.13.17.17,0,0,1,.13,0h.79a.18.18,0,0,0,.13-.06l.13-.1a.18.18,0,0,0,.06-.13v-.56a.7.7,0,0,1-.5.26h-.28a.6.6,0,0,1-.39-.15l-.14-.12a.5.5,0,0,1-.11-.16.63.63,0,0,1,0-.22v-.6a.6.6,0,0,1,0-.24.5.5,0,0,1,.11-.18l.15-.12a.54.54,0,0,1,.38-.14h.26a.6.6,0,0,1,.4.15l.12.11V31a.18.18,0,0,1,0-.12.17.17,0,0,1,.26,0,.14.14,0,0,1,.06.12v2a.53.53,0,0,1-.19.4l-.15.13a.48.48,0,0,1-.16.08A.46.46,0,0,1,49.68,33.7Zm-.21-2.52h-.24a.21.21,0,0,0-.16.07l-.11.09a.2.2,0,0,0-.07.15v.6a.19.19,0,0,0,.08.14l.11.11a.21.21,0,0,0,.12,0h.3a.23.23,0,0,0,.15-.07l.28-.24a.18.18,0,0,0,.07-.15v-.27a.19.19,0,0,0-.07-.16l-.3-.26A.23.23,0,0,0,49.47,31.18Z" style="fill: #fff"/>
      <path d="M53.06,31.51V32a.18.18,0,0,1-.06.13.18.18,0,0,1-.12.05H51.59v.11a.19.19,0,0,0,.08.16l.1.09a.32.32,0,0,0,.17.06h.94a.16.16,0,0,1,.12.06.15.15,0,0,1,.06.13.14.14,0,0,1-.06.12.16.16,0,0,1-.12.06h-1a.79.79,0,0,1-.2,0,.49.49,0,0,1-.15-.09l-.17-.14a.43.43,0,0,1-.12-.17.39.39,0,0,1-.05-.2v-.83a.45.45,0,0,1,.05-.2.72.72,0,0,1,.14-.19l.15-.12a.52.52,0,0,1,.34-.12h.51a.54.54,0,0,1,.36.16l.14.13A.51.51,0,0,1,53.06,31.51Zm-1.47,0v.28H52.7v-.25a.19.19,0,0,0-.07-.16l-.1-.09a.25.25,0,0,0-.15-.07h-.46a.22.22,0,0,0-.15.06l-.11.09A.16.16,0,0,0,51.59,31.48Z" style="fill: #fff"/>
      <path d="M54.42,30.82h.84a.52.52,0,0,1,.34.12.29.29,0,0,1,.15.23.17.17,0,0,1-.18.17.19.19,0,0,1-.16-.08.18.18,0,0,0-.15-.07h-.82c-.08,0-.12,0-.12.1a.12.12,0,0,0,.08.11l1,.43a.49.49,0,0,1,.24.21.57.57,0,0,1,.09.32.51.51,0,0,1-.16.39.53.53,0,0,1-.38.17h-.74a.59.59,0,0,1-.35-.12c-.11-.07-.17-.15-.17-.22a.18.18,0,0,1,.06-.13.19.19,0,0,1,.13-.05.21.21,0,0,1,.15.07.3.3,0,0,0,.23.08h.68a.18.18,0,0,0,.14-.06.24.24,0,0,0,.05-.14.19.19,0,0,0-.12-.18l-1-.44a.49.49,0,0,1-.22-.18A.45.45,0,0,1,54,31.3a.48.48,0,0,1,.13-.34A.48.48,0,0,1,54.42,30.82Z" style="fill: #fff"/>
      <path d="M57.88,32.92h-.37a.57.57,0,0,1-.39-.16.53.53,0,0,1-.16-.39V31.19h-.19a.18.18,0,0,1-.13-.06.17.17,0,0,1,0-.13.17.17,0,0,1,0-.12.18.18,0,0,1,.13-.06H57v-.45a.18.18,0,0,1,.06-.13.19.19,0,0,1,.13,0,.21.21,0,0,1,.18.18v.45h.73a.16.16,0,0,1,.13.06.16.16,0,0,1,.06.12.21.21,0,0,1-.19.19h-.73v1.18a.17.17,0,0,0,.18.18h.36a.18.18,0,0,0,.19-.15.19.19,0,0,1,.19-.16.17.17,0,0,1,.18.18.45.45,0,0,1-.16.33A.51.51,0,0,1,57.88,32.92Z" style="fill: #fff"/>
      <path d="M60.15,32.55l.61-.39V31a.18.18,0,0,1,.06-.13.19.19,0,0,1,.13-.05.17.17,0,0,1,.18.18v1.74a.17.17,0,0,1-.05.12.17.17,0,0,1-.26,0,.14.14,0,0,1-.06-.12v-.15l-.31.21a.71.71,0,0,1-.38.12H59.9a.49.49,0,0,1-.38-.16.5.5,0,0,1-.17-.38L59.29,31a.18.18,0,0,1,.05-.12.18.18,0,0,1,.13-.06.16.16,0,0,1,.13.06.2.2,0,0,1,.06.12l.05,1.35c0,.13.08.2.22.2Z" style="fill: #fff"/>
      <path d="M62,32.74V31a.17.17,0,0,1,.18-.18.15.15,0,0,1,.13.05.18.18,0,0,1,.06.13v.23l.29-.25a.57.57,0,0,1,.36-.16h.27a.57.57,0,0,1,.39.16.53.53,0,0,1,.16.39v.1a.21.21,0,0,1-.05.13.17.17,0,0,1-.13,0,.15.15,0,0,1-.13,0,.18.18,0,0,1-.06-.13v-.1a.17.17,0,0,0-.18-.18H63a.26.26,0,0,0-.17.08l-.51.45v1a.14.14,0,0,1-.06.12.17.17,0,0,1-.26,0A.17.17,0,0,1,62,32.74Z" style="fill: #fff"/>
      <path d="M66.5,31.51V32a.18.18,0,0,1-.06.13.19.19,0,0,1-.13.05H65v.11a.23.23,0,0,0,.08.16l.11.09a.29.29,0,0,0,.16.06h.94a.16.16,0,0,1,.13.06.15.15,0,0,1,.06.13.14.14,0,0,1-.06.12.18.18,0,0,1-.13.06h-1a.79.79,0,0,1-.2,0L65,32.79l-.16-.14a.59.59,0,0,1-.13-.17.53.53,0,0,1,0-.2v-.83a.49.49,0,0,1,.06-.2.55.55,0,0,1,.14-.19l.15-.12a.52.52,0,0,1,.33-.12h.52a.54.54,0,0,1,.36.16l.14.13A.51.51,0,0,1,66.5,31.51Zm-1.47,0v.28h1.11v-.25a.22.22,0,0,0-.07-.16l-.1-.09a.25.25,0,0,0-.15-.07h-.46a.2.2,0,0,0-.15.06l-.11.09A.16.16,0,0,0,65,31.48Z" style="fill: #fff"/>
      <path d="M67.86,30.82h.83a.55.55,0,0,1,.35.12.29.29,0,0,1,.15.23.14.14,0,0,1-.06.12.15.15,0,0,1-.12.05.19.19,0,0,1-.16-.08.21.21,0,0,0-.15-.07h-.82c-.09,0-.13,0-.13.1s0,.08.09.11l1,.43a.59.59,0,0,1,.24.21.57.57,0,0,1,.09.32.51.51,0,0,1-.16.39.55.55,0,0,1-.38.17h-.74a.55.55,0,0,1-.35-.12c-.11-.07-.17-.15-.17-.22a.21.21,0,0,1,0-.13.24.24,0,0,1,.14-.05.21.21,0,0,1,.15.07.28.28,0,0,0,.23.08h.68a.2.2,0,0,0,.14-.06.24.24,0,0,0,0-.14.19.19,0,0,0-.12-.18l-1-.44a.44.44,0,0,1-.22-.18.46.46,0,0,1-.08-.25.49.49,0,0,1,.14-.34A.46.46,0,0,1,67.86,30.82Z" style="fill: #fff"/>
      <path d="M71.87,31.51V32a.17.17,0,0,1-.18.18H70.4v.11a.19.19,0,0,0,.08.16l.1.09a.32.32,0,0,0,.17.06h.94a.18.18,0,0,1,.13.06.17.17,0,0,1,.05.13.17.17,0,0,1-.05.12.18.18,0,0,1-.13.06h-1a.71.71,0,0,1-.2,0,.45.45,0,0,1-.16-.09l-.16-.14a.45.45,0,0,1-.13-.17.53.53,0,0,1,0-.2v-.83a.64.64,0,0,1,0-.2.72.72,0,0,1,.14-.19l.16-.12a.52.52,0,0,1,.33-.12h.51a.58.58,0,0,1,.37.16l.13.13A.51.51,0,0,1,71.87,31.51Zm-1.47,0v.28h1.11v-.25a.21.21,0,0,0-.06-.16l-.11-.09a.21.21,0,0,0-.15-.07h-.46a.24.24,0,0,0-.15.06l-.11.09A.19.19,0,0,0,70.4,31.48Z" style="fill: #fff"/>
      <path d="M73.58,31.25l-.49.32v1.17a.14.14,0,0,1-.06.12.17.17,0,0,1-.26,0,.17.17,0,0,1,0-.12V31a.18.18,0,0,1,.31-.13.18.18,0,0,1,.06.13v.13l.33-.21a.7.7,0,0,1,.38-.1H74a.51.51,0,0,1,.37.15.5.5,0,0,1,.17.38l0,1.39a.17.17,0,0,1,0,.12.18.18,0,0,1-.13.06.21.21,0,0,1-.13-.05.19.19,0,0,1,0-.13l-.06-1.37a.18.18,0,0,0-.2-.19h-.18A.32.32,0,0,0,73.58,31.25Z" style="fill: #fff"/>
      <path d="M75.92,30.82h.84a.52.52,0,0,1,.34.12.29.29,0,0,1,.15.23.17.17,0,0,1-.18.17.19.19,0,0,1-.16-.08.18.18,0,0,0-.15-.07h-.82c-.08,0-.12,0-.12.1a.12.12,0,0,0,.08.11l1,.43a.49.49,0,0,1,.24.21.57.57,0,0,1,.09.32.51.51,0,0,1-.16.39.53.53,0,0,1-.38.17h-.74a.59.59,0,0,1-.35-.12c-.11-.07-.17-.15-.17-.22a.18.18,0,0,1,.06-.13.19.19,0,0,1,.13-.05.21.21,0,0,1,.15.07.3.3,0,0,0,.23.08h.68a.18.18,0,0,0,.14-.06.24.24,0,0,0,0-.14.19.19,0,0,0-.12-.18l-1-.44a.49.49,0,0,1-.22-.18.45.45,0,0,1-.07-.25.48.48,0,0,1,.13-.34A.48.48,0,0,1,75.92,30.82Z" style="fill: #fff"/>
      <path d="M79.93,31.51V32a.17.17,0,0,1-.05.13.21.21,0,0,1-.13.05H78.46v.11a.23.23,0,0,0,.08.16l.11.09a.29.29,0,0,0,.16.06h.94a.18.18,0,0,1,.13.06.14.14,0,0,1,.05.13.13.13,0,0,1-.05.12.18.18,0,0,1-.13.06h-1a.71.71,0,0,1-.2,0l-.16-.09-.16-.14a.59.59,0,0,1-.13-.17.53.53,0,0,1,0-.2v-.83a.49.49,0,0,1,.06-.2.45.45,0,0,1,.14-.19l.15-.12a.52.52,0,0,1,.33-.12h.51a.58.58,0,0,1,.37.16l.14.13A.54.54,0,0,1,79.93,31.51Zm-1.47,0v.28h1.11v-.25a.21.21,0,0,0-.06-.16l-.11-.09a.21.21,0,0,0-.14-.07H78.8a.25.25,0,0,0-.16.06l-.1.09A.17.17,0,0,0,78.46,31.48Z" style="fill: #fff"/>
    </g>
    <g>
      <path d="M37.94,42v.82L37,45.13a.24.24,0,0,1-.22.17.23.23,0,0,1-.22-.17l-.91-2.32V42a.2.2,0,0,1,.07-.16.19.19,0,0,1,.16-.07.18.18,0,0,1,.15.07.2.2,0,0,1,.07.16v.73l.68,1.74.68-1.74V42a.2.2,0,0,1,.07-.16.19.19,0,0,1,.16-.07.18.18,0,0,1,.15.07A.2.2,0,0,1,37.94,42Z" style="fill: #fff"/>
      <path d="M39,45l.9-3.06a.23.23,0,0,1,.23-.17.2.2,0,0,1,.21.14L41.21,45a.15.15,0,0,1,0,.07.2.2,0,0,1-.06.15.18.18,0,0,1-.15.07.2.2,0,0,1-.22-.16l-.18-.61h-1l-.2.65s0,.06-.06.08a.24.24,0,0,1-.3,0,.23.23,0,0,1-.06-.16A.22.22,0,0,1,39,45Zm1.13-2.19-.39,1.28h.76Z" style="fill: #fff"/>
      <path d="M42.27,45.08V41.76h1.58a.68.68,0,0,1,.67.68v.25a.68.68,0,0,1-.67.68h-.29l.92,1.57a.25.25,0,0,1,0,.14.18.18,0,0,1-.07.15.21.21,0,0,1-.16.07.22.22,0,0,1-.2-.12L43,43.37h-.32v1.71a.18.18,0,0,1-.07.15.2.2,0,0,1-.16.07.21.21,0,0,1-.16-.07A.2.2,0,0,1,42.27,45.08Zm.45-2.16h1.13a.21.21,0,0,0,.22-.22v-.26a.23.23,0,0,0-.06-.16.26.26,0,0,0-.16-.07H42.72Z" style="fill: #fff"/>
      <path d="M45.55,42.37v-.6h2.26v.61a.21.21,0,0,1-.07.16.2.2,0,0,1-.15.06.22.22,0,0,1-.17-.07.2.2,0,0,1-.06-.15v-.17H46.9v2.87a.2.2,0,0,1-.06.15.21.21,0,0,1-.16.07.2.2,0,0,1-.16-.07.18.18,0,0,1-.07-.15V42.21H46v.16a.2.2,0,0,1-.07.16.21.21,0,0,1-.16.06.2.2,0,0,1-.15-.06A.2.2,0,0,1,45.55,42.37Z" style="fill: #fff"/>
    </g>
    <g>
      <path d="M52.81,37v2.28h-.42l-.83-1.9v1.74a.14.14,0,0,1,0,.11.15.15,0,0,1-.22,0,.14.14,0,0,1,0-.11V36.87h.41l.84,1.89V37a.17.17,0,0,1,0-.12.15.15,0,0,1,.11,0,.14.14,0,0,1,.11,0A.17.17,0,0,1,52.81,37Z" style="fill: #fff"/>
      <path d="M54.37,39h.56A.15.15,0,0,1,55,39a.16.16,0,0,1,.05.11.14.14,0,0,1-.05.11.16.16,0,0,1-.11.05h-.58a.55.55,0,0,1-.23-.07.49.49,0,0,1-.16-.16l-.36-.69a.82.82,0,0,1-.07-.3.66.66,0,0,1,.07-.3l.36-.68a.52.52,0,0,1,.16-.17.35.35,0,0,1,.21-.07h.61a.16.16,0,0,1,.11.26.16.16,0,0,1-.11,0h-.59a.14.14,0,0,0-.12.09l-.34.64a.31.31,0,0,0,0,.17.36.36,0,0,0,0,.19l.33.63A.15.15,0,0,0,54.37,39Z" style="fill: #fff"/>
    </g>
    <g>
      <path d="M57,37.29v-.42h1.56v.42a.16.16,0,0,1,0,.11.14.14,0,0,1-.11.05.18.18,0,0,1-.11-.05.15.15,0,0,1,0-.11v-.11H58v2a.14.14,0,0,1-.05.11.15.15,0,0,1-.22,0,.14.14,0,0,1,0-.11v-2h-.31v.11a.14.14,0,0,1-.15.15.14.14,0,0,1-.11,0A.16.16,0,0,1,57,37.29Z" style="fill: #fff"/>
      <path d="M60.1,38.4l-.49.83a.15.15,0,0,1-.24,0,.12.12,0,0,1,0-.1.16.16,0,0,1,0-.09l.57-1-.56-1a.26.26,0,0,1,0-.1.16.16,0,0,1,0-.11.15.15,0,0,1,.11,0,.14.14,0,0,1,.13.07l.5.84.48-.84a.16.16,0,0,1,.14-.07.15.15,0,0,1,.11,0,.16.16,0,0,1,0,.11.11.11,0,0,1,0,.08l-.58,1,.58,1a.19.19,0,0,1,0,.08.12.12,0,0,1-.05.1.14.14,0,0,1-.1.05.16.16,0,0,1-.14-.08Z" style="fill: #fff"/>
      <path d="M62.71,37.09l.34.7a.6.6,0,0,1,.07.3.67.67,0,0,1-.07.31l-.34.68a.38.38,0,0,1-.37.23.36.36,0,0,1-.22-.07.46.46,0,0,1-.15-.16l-.34-.68a.74.74,0,0,1-.07-.31.73.73,0,0,1,.07-.3l.34-.7a.39.39,0,0,1,.37-.22A.38.38,0,0,1,62.71,37.09Zm-.47.16-.32.65a.43.43,0,0,0,0,.19.41.41,0,0,0,0,.19l.33.66a.1.1,0,0,0,.18,0l.33-.66a.45.45,0,0,0,.05-.19.41.41,0,0,0-.05-.19l-.32-.65a.1.1,0,0,0-.1-.07A.1.1,0,0,0,62.24,37.25Z" style="fill: #fff"/>
    </g>
    <g>
      <path d="M64.5,39.15V36.87h1.09a.44.44,0,0,1,.33.13.49.49,0,0,1,.14.33v.18a.48.48,0,0,1-.47.47H65.4L66,39.06a.17.17,0,0,1,0,.1.14.14,0,0,1,0,.1.16.16,0,0,1-.25,0L65,38h-.23v1.17a.14.14,0,0,1,0,.11.16.16,0,0,1-.11.05.17.17,0,0,1-.16-.16Zm.31-1.48h.78a.17.17,0,0,0,.16-.16v-.18a.16.16,0,0,0,0-.11.14.14,0,0,0-.11,0h-.78Z" style="fill: #fff"/>
      <path d="M67.57,38.4l-.49.83a.14.14,0,0,1-.13.08.15.15,0,0,1-.13-.24l.57-1-.56-1a.22.22,0,0,1,0-.1.14.14,0,0,1,.15-.15.14.14,0,0,1,.13.07l.5.84.49-.84a.14.14,0,0,1,.13-.07.15.15,0,0,1,.11,0,.16.16,0,0,1,0,.11.11.11,0,0,1,0,.08l-.58,1,.58,1a.19.19,0,0,1,0,.08.12.12,0,0,1,0,.1.16.16,0,0,1-.25,0Z" style="fill: #fff"/>
      <path d="M69.19,36.87h1.25a.16.16,0,0,1,.11.26.16.16,0,0,1-.11,0H70V39h.47a.14.14,0,0,1,.15.15.14.14,0,0,1,0,.11.16.16,0,0,1-.11.05H69.19a.16.16,0,0,1-.11-.05.14.14,0,0,1,0-.11.14.14,0,0,1,.15-.15h.48V37.18h-.48a.16.16,0,0,1-.11,0,.13.13,0,0,1,0-.1.16.16,0,0,1,0-.12A.15.15,0,0,1,69.19,36.87Z" style="fill: #fff"/>
    </g>
    <g>
      <path d="M72.87,37v.56l-.63,1.6a.15.15,0,0,1-.3,0l-.62-1.6V37a.16.16,0,0,1,0-.12.17.17,0,0,1,.22,0,.16.16,0,0,1,0,.12v.5l.47,1.2.47-1.2V37a.17.17,0,0,1,0-.12.14.14,0,0,1,.11,0,.15.15,0,0,1,.11,0A.16.16,0,0,1,72.87,37Z" style="fill: #fff"/>
      <path d="M74.43,39H75a.17.17,0,0,1,.11,0,.15.15,0,0,1,0,.11.14.14,0,0,1,0,.11.16.16,0,0,1-.11.05h-.58a.55.55,0,0,1-.23-.07.41.41,0,0,1-.16-.16l-.36-.69a.66.66,0,0,1-.07-.3.56.56,0,0,1,.07-.3l.36-.68a.43.43,0,0,1,.16-.17.35.35,0,0,1,.21-.07H75a.16.16,0,0,1,.11.26.16.16,0,0,1-.11,0h-.59a.14.14,0,0,0-.12.09l-.34.64a.31.31,0,0,0,0,.17.36.36,0,0,0,0,.19l.33.63A.15.15,0,0,0,74.43,39Z" style="fill: #fff"/>
      <path d="M76.7,39h.56a.14.14,0,0,1,.15.15.14.14,0,0,1,0,.11.16.16,0,0,1-.11.05h-.58a.55.55,0,0,1-.23-.07.41.41,0,0,1-.16-.16l-.36-.69a.66.66,0,0,1-.07-.3.56.56,0,0,1,.07-.3l.36-.68a.43.43,0,0,1,.16-.17.35.35,0,0,1,.21-.07h.61a.16.16,0,0,1,.11.26.16.16,0,0,1-.11,0h-.59a.14.14,0,0,0-.12.09l-.34.64a.31.31,0,0,0,0,.17.36.36,0,0,0,0,.19l.33.63A.15.15,0,0,0,76.7,39Z" style="fill: #fff"/>
    </g>
    <g>
      <path d="M79.27,36.68h.51a.16.16,0,0,1,.11,0,.12.12,0,0,1,0,.1.16.16,0,0,1,0,.12.17.17,0,0,1-.11,0h-.49a.13.13,0,0,0-.12.07l-.44.56a.3.3,0,0,0,0,.18v.85a.16.16,0,0,0,0,.12.15.15,0,0,0,.11,0h.63a.14.14,0,0,0,.15-.15v-.34H79.3a.12.12,0,0,1-.11,0,.15.15,0,0,1,0-.22A.13.13,0,0,1,79.3,38h.62v.65a.42.42,0,0,1-.13.32.42.42,0,0,1-.33.14h-.63A.42.42,0,0,1,78.5,39a.42.42,0,0,1-.13-.32V37.8a.6.6,0,0,1,.12-.38l.46-.58a.28.28,0,0,1,.13-.11A.41.41,0,0,1,79.27,36.68Z" style="fill: #fff"/>
      <path d="M82.2,36.84v2.28h-.42L81,37.23V39a.17.17,0,0,1,0,.11.17.17,0,0,1-.22,0,.18.18,0,0,1,0-.11V36.68h.41l.84,1.89V36.84a.14.14,0,0,1,0-.11.16.16,0,0,1,.11,0,.17.17,0,0,1,.16.16Z" style="fill: #fff"/>
      <path d="M83.07,36.68h.61a.43.43,0,0,1,.23.08.46.46,0,0,1,.16.18l.31.62a.69.69,0,0,1,.09.34.78.78,0,0,1-.1.35l-.3.61a.52.52,0,0,1-.17.19.45.45,0,0,1-.25.07h-.59a.16.16,0,0,1-.11,0,.13.13,0,0,1,0-.1.17.17,0,0,1,0-.12.15.15,0,0,1,.11,0h.16V37h-.15A.14.14,0,0,1,83,37a.18.18,0,0,1,0-.12.14.14,0,0,1,0-.1A.14.14,0,0,1,83.07,36.68Zm.46.31v1.82h.11a.15.15,0,0,0,.15-.1l.31-.61a.41.41,0,0,0,.06-.2.45.45,0,0,0,0-.19l-.31-.62a.18.18,0,0,0-.17-.1Z" style="fill: #fff"/>
    </g>
    <g>
      <path d="M51.37,34.26h.51a.14.14,0,0,1,.11.05.16.16,0,0,1-.11.27H51.4a.15.15,0,0,0-.13.06l-.43.56a.24.24,0,0,0-.06.18v.86a.16.16,0,0,0,0,.11.15.15,0,0,0,.11,0h.63a.13.13,0,0,0,.1,0,.16.16,0,0,0,0-.11v-.33H51.4a.16.16,0,0,1-.11,0,.15.15,0,0,1,.11-.26H52v.64a.45.45,0,0,1-.14.33.44.44,0,0,1-.32.13h-.63a.44.44,0,0,1-.33-.13.45.45,0,0,1-.14-.33v-.85a.61.61,0,0,1,.12-.39l.46-.58a.4.4,0,0,1,.14-.11A.41.41,0,0,1,51.37,34.26Z" style="fill: #fff"/>
      <path d="M52.75,36.55V34.26h1.09a.48.48,0,0,1,.47.47v.18a.49.49,0,0,1-.14.33.44.44,0,0,1-.33.13h-.19l.63,1.09a.15.15,0,0,1,0,.2.15.15,0,0,1-.11,0,.14.14,0,0,1-.14-.08l-.72-1.25h-.22v1.18a.16.16,0,0,1,0,.11.15.15,0,0,1-.11,0,.14.14,0,0,1-.11,0A.16.16,0,0,1,52.75,36.55Zm.31-1.49h.78A.14.14,0,0,0,54,35a.16.16,0,0,0,0-.11v-.18a.16.16,0,0,0,0-.11.14.14,0,0,0-.11,0h-.78Z" style="fill: #fff"/>
      <path d="M56.57,34.42V36.7h-.41l-.83-1.89v1.74a.16.16,0,0,1,0,.11.14.14,0,0,1-.11,0,.13.13,0,0,1-.1,0,.16.16,0,0,1,0-.11V34.26h.41l.83,1.89V34.42a.16.16,0,0,1,.27-.11A.15.15,0,0,1,56.57,34.42Z" style="fill: #fff"/>
    </g>
    <g>
      <path d="M86.1,36.68h.51a.14.14,0,0,1,.11,0,.12.12,0,0,1,0,.1.17.17,0,0,1,0,.12.15.15,0,0,1-.11,0h-.49a.14.14,0,0,0-.12.07l-.43.56a.24.24,0,0,0-.06.18v.85a.17.17,0,0,0,0,.12.14.14,0,0,0,.11,0h.62a.14.14,0,0,0,.11,0,.16.16,0,0,0,0-.11v-.34h-.32a.14.14,0,0,1-.11,0,.15.15,0,0,1,0-.22.14.14,0,0,1,.11-.05h.63v.65a.43.43,0,0,1-.14.32.42.42,0,0,1-.33.14h-.62a.42.42,0,0,1-.33-.14.43.43,0,0,1-.14-.32V37.8a.6.6,0,0,1,.12-.38l.46-.58a.31.31,0,0,1,.14-.11A.41.41,0,0,1,86.1,36.68Z" style="fill: #fff"/>
      <path d="M89,36.84v2.28h-.41l-.83-1.89V39a.18.18,0,0,1-.05.11.14.14,0,0,1-.11,0,.15.15,0,0,1-.11,0,.17.17,0,0,1,0-.11V36.68h.41l.83,1.89V36.84a.17.17,0,0,1,.16-.16.16.16,0,0,1,.11,0A.14.14,0,0,1,89,36.84Z" style="fill: #fff"/>
      <path d="M89.9,36.68h.61a.4.4,0,0,1,.23.08.48.48,0,0,1,.17.18l.3.62a.69.69,0,0,1,.09.34.76.76,0,0,1-.09.35l-.31.61a.52.52,0,0,1-.17.19.4.4,0,0,1-.24.07H89.9a.14.14,0,0,1-.11,0,.14.14,0,0,1-.05-.1.18.18,0,0,1,.05-.12.14.14,0,0,1,.11,0h.16V37H89.9a.15.15,0,0,1-.11,0,.17.17,0,0,1,0-.12.13.13,0,0,1,0-.1A.16.16,0,0,1,89.9,36.68Zm.47.31v1.82h.1a.17.17,0,0,0,.16-.1l.3-.61a.41.41,0,0,0,.06-.2.34.34,0,0,0,0-.19l-.31-.62a.16.16,0,0,0-.16-.1Z" style="fill: #fff"/>
    </g>
    <g>
      <path d="M86.76,35.45v.13a.61.61,0,0,1-.62.62H85.2V33.76h.94a.63.63,0,0,1,.62.62v.13a.61.61,0,0,1-.21.47A.62.62,0,0,1,86.76,35.45Zm-.31-.94v-.13a.32.32,0,0,0-.1-.22.29.29,0,0,0-.21-.09h-.63v.75h.63a.29.29,0,0,0,.21-.09A.32.32,0,0,0,86.45,34.51Zm0,1.07v-.13a.32.32,0,0,0-.1-.22.29.29,0,0,0-.21-.09h-.63v.75h.63a.29.29,0,0,0,.21-.09A.3.3,0,0,0,86.45,35.58Z" style="fill: #fff"/>
      <path d="M87.48,36.2V33.92a.15.15,0,0,1,0-.11.16.16,0,0,1,.27.11v2h1.09a.16.16,0,0,1,.11,0,.15.15,0,0,1-.11.26Z" style="fill: #fff"/>
      <path d="M89.75,36.05V33.92a.15.15,0,0,1,0-.11.15.15,0,0,1,.22,0,.15.15,0,0,1,0,.11v.73l1-.85a.25.25,0,0,1,.12,0,.16.16,0,0,1,.11.05.21.21,0,0,1,0,.11.12.12,0,0,1,0,.1l-1.12,1,1.12,1a.14.14,0,0,1,0,.1.16.16,0,0,1,0,.11.13.13,0,0,1-.11.05.15.15,0,0,1-.11,0l-1-.85v.74a.15.15,0,1,1-.3,0Z" style="fill: #fff"/>
    </g>
    <g>
      <path d="M94.13,36.68h.61a.43.43,0,0,1,.23.08.46.46,0,0,1,.16.18l.31.62a.69.69,0,0,1,.09.34.78.78,0,0,1-.1.35l-.3.61a.52.52,0,0,1-.17.19.43.43,0,0,1-.25.07h-.59a.16.16,0,0,1-.11,0,.13.13,0,0,1,0-.1.17.17,0,0,1,0-.12.15.15,0,0,1,.11,0h.16V37h-.15A.14.14,0,0,1,94,37a.18.18,0,0,1,0-.12.14.14,0,0,1,0-.1A.14.14,0,0,1,94.13,36.68Zm.46.31v1.82h.11a.17.17,0,0,0,.16-.1l.3-.61a.41.41,0,0,0,.06-.2.45.45,0,0,0,0-.19l-.31-.62a.18.18,0,0,0-.17-.1Z" style="fill: #fff"/>
      <path d="M96.25,39V36.68h1.09a.45.45,0,0,1,.33.14.44.44,0,0,1,.13.33v.17a.44.44,0,0,1-.13.33.45.45,0,0,1-.33.14h-.19l.63,1.08a.36.36,0,0,1,0,.1.14.14,0,0,1-.15.15.16.16,0,0,1-.14-.08l-.72-1.25h-.23V39a.17.17,0,0,1,0,.11.16.16,0,0,1-.12,0,.13.13,0,0,1-.1,0A.18.18,0,0,1,96.25,39Zm.31-1.49h.78a.15.15,0,0,0,.11,0,.16.16,0,0,0,0-.11v-.18a.14.14,0,0,0,0-.11.16.16,0,0,0-.11,0h-.78Z" style="fill: #fff"/>
    </g>
    <g>
      <path d="M102,38.81h.56a.16.16,0,0,1,.11,0,.14.14,0,0,1,0,.11.17.17,0,0,1,0,.11.15.15,0,0,1-.11,0H102a.43.43,0,0,1-.23-.07.41.41,0,0,1-.16-.16l-.36-.68a.7.7,0,0,1-.07-.31.6.6,0,0,1,.07-.3l.36-.68a.51.51,0,0,1,.16-.17.35.35,0,0,1,.21-.07h.61a.16.16,0,0,1,.11,0,.13.13,0,0,1,0,.1.17.17,0,0,1,0,.12.15.15,0,0,1-.11,0H102a.14.14,0,0,0-.12.09l-.34.64a.34.34,0,0,0,0,.18.41.41,0,0,0,0,.19l.33.62A.15.15,0,0,0,102,38.81Z" style="fill: #fff"/>
      <path d="M103.46,39.12V36.83a.14.14,0,0,1,.05-.1.15.15,0,0,1,.22,0,.13.13,0,0,1,0,.1v2h1.09a.14.14,0,0,1,.11,0,.12.12,0,0,1,0,.11.14.14,0,0,1,0,.11.14.14,0,0,1-.11,0Z" style="fill: #fff"/>
    </g>
    <g>
      <path d="M108.08,36.68h.61a.4.4,0,0,1,.23.08.48.48,0,0,1,.17.18l.3.62a.69.69,0,0,1,.09.34.76.76,0,0,1-.09.35l-.31.61a.44.44,0,0,1-.17.19.4.4,0,0,1-.24.07h-.59a.14.14,0,0,1-.11,0,.14.14,0,0,1,0-.1.18.18,0,0,1,0-.12.14.14,0,0,1,.11,0h.16V37h-.16a.15.15,0,0,1-.11,0,.17.17,0,0,1,0-.12.13.13,0,0,1,0-.1A.16.16,0,0,1,108.08,36.68Zm.47.31v1.82h.1a.17.17,0,0,0,.16-.1l.3-.61a.41.41,0,0,0,.06-.2.34.34,0,0,0,0-.19l-.31-.62a.16.16,0,0,0-.16-.1Z" style="fill: #fff"/>
      <path d="M110.21,38.91l.62-2.12a.16.16,0,0,1,.16-.11.13.13,0,0,1,.14.1l.62,2.14v0a.17.17,0,0,1,0,.11.13.13,0,0,1-.1,0,.16.16,0,0,1-.16-.11l-.12-.42h-.7l-.14.45a.07.07,0,0,1,0,.05l-.09,0a.17.17,0,0,1-.12,0,.18.18,0,0,1,0-.11A.07.07,0,0,1,110.21,38.91Zm.78-1.52-.27.89h.52Z" style="fill: #fff"/>
    </g>
    <g>
      <path d="M115.24,36.84v.57L114.61,39a.15.15,0,0,1-.3,0l-.63-1.59v-.57a.17.17,0,0,1,.16-.16.16.16,0,0,1,.11,0,.14.14,0,0,1,0,.11v.5l.47,1.2.47-1.2v-.5a.17.17,0,0,1,.16-.16.18.18,0,0,1,.11,0A.14.14,0,0,1,115.24,36.84Z" style="fill: #fff"/>
      <path d="M116.8,38.81h.55a.14.14,0,0,1,.11,0,.12.12,0,0,1,.05.11.14.14,0,0,1-.05.11.14.14,0,0,1-.11,0h-.57a.41.41,0,0,1-.23-.07.41.41,0,0,1-.16-.16l-.36-.68a.7.7,0,0,1-.07-.31.6.6,0,0,1,.07-.3l.36-.68a.42.42,0,0,1,.16-.17.35.35,0,0,1,.2-.07h.61a.14.14,0,0,1,.11,0,.14.14,0,0,1,0,.1.18.18,0,0,1,0,.12.14.14,0,0,1-.11,0h-.58a.14.14,0,0,0-.12.09l-.34.64a.34.34,0,0,0,0,.18.41.41,0,0,0,0,.19l.33.62A.15.15,0,0,0,116.8,38.81Z" style="fill: #fff"/>
      <path d="M119.07,38.81h.55a.18.18,0,0,1,.12,0,.14.14,0,0,1,0,.11.17.17,0,0,1,0,.11.17.17,0,0,1-.12,0h-.57a.41.41,0,0,1-.23-.07.41.41,0,0,1-.16-.16l-.36-.68a.7.7,0,0,1-.07-.31.6.6,0,0,1,.07-.3l.36-.68a.42.42,0,0,1,.16-.17.35.35,0,0,1,.21-.07h.61a.14.14,0,0,1,.1,0,.11.11,0,0,1,.05.1.15.15,0,0,1-.05.12.13.13,0,0,1-.1,0h-.59a.14.14,0,0,0-.12.09l-.34.64a.34.34,0,0,0,0,.18.41.41,0,0,0,0,.19l.33.62A.15.15,0,0,0,119.07,38.81Z" style="fill: #fff"/>
    </g>
    <g>
      <path d="M122,36.68h.51a.16.16,0,0,1,.11,0,.12.12,0,0,1,0,.1.16.16,0,0,1,0,.12.17.17,0,0,1-.11,0H122a.13.13,0,0,0-.12.07l-.44.56a.3.3,0,0,0,0,.18v.85a.16.16,0,0,0,0,.12.15.15,0,0,0,.11,0h.63a.15.15,0,0,0,.11,0,.16.16,0,0,0,0-.11v-.34H122a.14.14,0,0,1-.11,0,.15.15,0,0,1,0-.22A.14.14,0,0,1,122,38h.62v.65a.42.42,0,0,1-.13.32.42.42,0,0,1-.33.14h-.63a.45.45,0,0,1-.33-.14.42.42,0,0,1-.13-.32V37.8a.6.6,0,0,1,.12-.38l.46-.58a.28.28,0,0,1,.13-.11A.45.45,0,0,1,122,36.68Z" style="fill: #fff"/>
      <path d="M124.88,36.84v2.28h-.41l-.84-1.89V39a.17.17,0,0,1,0,.11.17.17,0,0,1-.22,0,.17.17,0,0,1,0-.11V36.68h.4l.84,1.89V36.84a.14.14,0,0,1,0-.11.18.18,0,0,1,.11,0,.17.17,0,0,1,.16.16Z" style="fill: #fff"/>
      <path d="M125.75,36.68h.61a.43.43,0,0,1,.23.08.58.58,0,0,1,.17.18l.3.62a.69.69,0,0,1,.09.34.67.67,0,0,1-.1.35l-.3.61a.52.52,0,0,1-.17.19.43.43,0,0,1-.25.07h-.59a.16.16,0,0,1-.11,0,.13.13,0,0,1,0-.1.17.17,0,0,1,0-.12.15.15,0,0,1,.11,0h.16V37h-.15a.14.14,0,0,1-.11,0,.18.18,0,0,1,0-.12.14.14,0,0,1,0-.1A.14.14,0,0,1,125.75,36.68Zm.46.31v1.82h.11a.17.17,0,0,0,.16-.1l.3-.61a.41.41,0,0,0,.06-.2.45.45,0,0,0,0-.19l-.31-.62a.17.17,0,0,0-.16-.1Z" style="fill: #fff"/>
    </g>
    <g>
      <path d="M128.77,41.82h1.69a.21.21,0,0,1,.15.07.2.2,0,0,1,.06.14.2.2,0,0,1-.06.15.18.18,0,0,1-.15.07h-.63v2.47h.63a.21.21,0,1,1,0,.42h-1.69a.21.21,0,1,1,0-.42h.64V42.25h-.64a.2.2,0,0,1-.15-.06.22.22,0,0,1-.06-.15.2.2,0,0,1,.06-.15A.21.21,0,0,1,128.77,41.82Z" style="fill: #fff"/>
      <path d="M133.55,45.13h-1.91V43.69a.38.38,0,0,1,.13-.3.37.37,0,0,1,.29-.13h1.27v-1h-1.49a.21.21,0,0,1-.21-.21.2.2,0,0,1,.06-.14.18.18,0,0,1,.15-.07h1.49a.42.42,0,0,1,.3.13.37.37,0,0,1,.13.29v1a.44.44,0,0,1-.43.43h-1.27v1h1.49a.26.26,0,0,1,.15.07.2.2,0,0,1,.06.14.2.2,0,0,1-.06.15A.24.24,0,0,1,133.55,45.13Z" style="fill: #fff"/>
      <path d="M135.88,44.72h.76a.22.22,0,0,1,.15.06.22.22,0,0,1,0,.3.22.22,0,0,1-.15.06h-.79a.57.57,0,0,1-.31-.1.56.56,0,0,1-.22-.21l-.48-.93a.92.92,0,0,1-.1-.42.84.84,0,0,1,.09-.4l.49-.93a.68.68,0,0,1,.22-.23.56.56,0,0,1,.28-.1h.83a.21.21,0,0,1,.15.07.2.2,0,0,1,.06.14.2.2,0,0,1-.06.15.18.18,0,0,1-.15.07h-.8a.19.19,0,0,0-.16.12l-.46.86a.49.49,0,0,0-.06.25.58.58,0,0,0,.06.26l.45.85A.2.2,0,0,0,135.88,44.72Z" style="fill: #fff"/>
    </g>
    <g>
      <path d="M93.53,5.84h1.6a.87.87,0,0,1,.82.84.3.3,0,0,1-.1.22.3.3,0,0,1-.2.1.27.27,0,0,1-.22-.08.58.58,0,0,1-.11-.26.23.23,0,0,0-.24-.19H93.56c-.07,0-.11,0-.11.07a.19.19,0,0,0,0,.1l2.28,2.91A.72.72,0,0,1,96,10a.66.66,0,0,1-.2.48.61.61,0,0,1-.45.21H93.65a.79.79,0,0,1-.58-.25.77.77,0,0,1-.24-.55c0-.23.11-.34.32-.34a.29.29,0,0,1,.22.09.32.32,0,0,1,.08.21.24.24,0,0,0,.07.16.22.22,0,0,0,.17.07h1.53c.06,0,.1,0,.1-.08a.16.16,0,0,0,0-.09L93,7a.78.78,0,0,1-.16-.46A.67.67,0,0,1,93,6.05.65.65,0,0,1,93.53,5.84Z" style="fill: #fff"/>
      <path d="M100.45,8.32v.74a.31.31,0,0,1-.31.31H98v.18a.36.36,0,0,0,.14.27l.18.15a.47.47,0,0,0,.28.11h1.57a.31.31,0,0,1,.31.31.29.29,0,0,1-.09.21.33.33,0,0,1-.22.09H98.52a1.05,1.05,0,0,1-.33-.06.85.85,0,0,1-.26-.15l-.28-.24a.69.69,0,0,1-.21-.28.79.79,0,0,1-.09-.34V8.22a.79.79,0,0,1,.1-.33.88.88,0,0,1,.23-.32l.26-.2a.87.87,0,0,1,.55-.2h.87a.89.89,0,0,1,.61.27l.23.22A.83.83,0,0,1,100.45,8.32ZM98,8.27v.48h1.86V8.32a.33.33,0,0,0-.1-.26l-.18-.16a.45.45,0,0,0-.25-.11h-.77a.37.37,0,0,0-.26.1L98.1,8A.28.28,0,0,0,98,8.27Z" style="fill: #fff"/>
      <path d="M103.33,7.88l-.84.54v2a.31.31,0,0,1-.3.3.29.29,0,0,1-.22-.09.29.29,0,0,1-.09-.21V7.47a.31.31,0,0,1,.09-.22.29.29,0,0,1,.22-.09.29.29,0,0,1,.21.09.31.31,0,0,1,.09.22v.21l.56-.34a1.17,1.17,0,0,1,.64-.18H104a.92.92,0,0,1,.92.9l.08,2.33a.25.25,0,0,1-.08.21.33.33,0,0,1-.22.09.32.32,0,0,1-.22-.08.28.28,0,0,1-.09-.22l-.09-2.29a.3.3,0,0,0-.34-.33h-.3A.58.58,0,0,0,103.33,7.88Z" style="fill: #fff"/>
      <path d="M107.26,7.17h1.4a.9.9,0,0,1,.58.19.54.54,0,0,1,.26.38.31.31,0,0,1-.3.3.35.35,0,0,1-.27-.13.33.33,0,0,0-.25-.13h-1.39c-.14,0-.21.06-.21.17a.2.2,0,0,0,.14.18l1.63.73a1,1,0,0,1,.57.89.94.94,0,0,1-.91.94h-1.25a1,1,0,0,1-.59-.19c-.19-.13-.28-.26-.28-.38a.29.29,0,0,1,.09-.21.32.32,0,0,1,.23-.09A.36.36,0,0,1,107,10a.53.53,0,0,0,.39.13h1.14a.33.33,0,0,0,.23-.1.36.36,0,0,0,.09-.24.31.31,0,0,0-.21-.3L107,8.69a.85.85,0,0,1-.37-.3.82.82,0,0,1-.13-.41.81.81,0,0,1,.23-.57A.75.75,0,0,1,107.26,7.17Z" style="fill: #fff"/>
      <path d="M114,8.27v1.3a1,1,0,0,1-.39.76,1.19,1.19,0,0,1-.8.36h-.72a1.19,1.19,0,0,1-.81-.36,1.05,1.05,0,0,1-.38-.76V8.27a1,1,0,0,1,.38-.75,1.14,1.14,0,0,1,.81-.36h.72a1.16,1.16,0,0,1,.8.34A1,1,0,0,1,114,8.27Zm-2.48,0V9.54a.34.34,0,0,0,.12.27l.23.2a.36.36,0,0,0,.22.06h.71a.48.48,0,0,0,.29-.11l.18-.17a.27.27,0,0,0,.12-.24V8.31a.32.32,0,0,0-.12-.27l-.21-.18a.41.41,0,0,0-.26-.09h-.64a.53.53,0,0,0-.32.1l-.2.18A.3.3,0,0,0,111.53,8.3Z" style="fill: #fff"/>
      <path d="M115.44,10.39V7.47a.31.31,0,0,1,.09-.22.29.29,0,0,1,.21-.09.29.29,0,0,1,.22.09.31.31,0,0,1,.09.22v.39l.5-.43a.93.93,0,0,1,.61-.26h.45a.89.89,0,0,1,.65.27.88.88,0,0,1,.27.65v.16a.33.33,0,0,1-.09.23.29.29,0,0,1-.22.09.31.31,0,0,1-.31-.31V8.09a.26.26,0,0,0-.09-.22.27.27,0,0,0-.21-.09h-.4a.48.48,0,0,0-.29.14l-.87.75v1.72a.29.29,0,0,1-.09.21.29.29,0,0,1-.22.09.31.31,0,0,1-.3-.3Z" style="fill: #fff"/>
    </g>
    <g>
      <path d="M46.38,5.84h2.8v.39l-2.26,3.85h1.95a.31.31,0,0,1,.31.31.29.29,0,0,1-.09.21.29.29,0,0,1-.22.09H46.08v-.4l2.25-3.83H46.38a.29.29,0,0,1-.21-.09.33.33,0,0,1-.09-.23.31.31,0,0,1,.3-.3Z" style="fill: #fff"/>
      <path d="M52.21,8.88l-1,1.67a.29.29,0,0,1-.26.14.29.29,0,0,1-.22-.09.28.28,0,0,1-.1-.21.32.32,0,0,1,.06-.18l1.14-2L50.73,6.34a.44.44,0,0,1-.07-.21.26.26,0,0,1,.1-.2.3.3,0,0,1,.47.05l1,1.66,1-1.65a.29.29,0,0,1,.26-.15.29.29,0,0,1,.22.09.25.25,0,0,1,.1.21.37.37,0,0,1-.05.17l-1.15,2,1.14,2a.3.3,0,0,1,0,.16.29.29,0,0,1-.09.22.33.33,0,0,1-.22.08.31.31,0,0,1-.27-.14Z" style="fill: #fff"/>
      <path d="M61.43,5.84h1a.31.31,0,0,1,.3.3.32.32,0,0,1-.09.23.32.32,0,0,1-.21.09h-1a.33.33,0,0,0-.25.13L60.36,7.7a.58.58,0,0,0-.11.37V9.76a.32.32,0,0,0,.09.23.31.31,0,0,0,.22.09h1.25a.31.31,0,0,0,.31-.31V9.11h-.64A.29.29,0,0,1,61.26,9a.34.34,0,0,1,0-.44.29.29,0,0,1,.22-.09h1.25V9.77a.88.88,0,0,1-.27.65.89.89,0,0,1-.65.27H60.56a.89.89,0,0,1-.65-.27.85.85,0,0,1-.28-.65V8.07a1.25,1.25,0,0,1,.25-.77l.9-1.15a.78.78,0,0,1,.28-.22A.81.81,0,0,1,61.43,5.84Z" style="fill: #fff"/>
      <path d="M67.26,8.32v.74a.29.29,0,0,1-.09.22.31.31,0,0,1-.22.09H64.78v.18a.36.36,0,0,0,.14.27l.18.15a.47.47,0,0,0,.27.11H67a.31.31,0,0,1,.22.09.29.29,0,0,1,.09.22.29.29,0,0,1-.09.21.33.33,0,0,1-.22.09H65.33a1,1,0,0,1-.33-.06,1.08,1.08,0,0,1-.27-.15l-.27-.24a.69.69,0,0,1-.21-.28.79.79,0,0,1-.09-.34V8.22a.91.91,0,0,1,.09-.33.9.9,0,0,1,.24-.32l.26-.2a.87.87,0,0,1,.55-.2h.87a.89.89,0,0,1,.61.27l.23.22A.83.83,0,0,1,67.26,8.32Zm-2.47-.05v.48h1.86V8.32a.33.33,0,0,0-.1-.26l-.18-.16a.45.45,0,0,0-.25-.11h-.77a.37.37,0,0,0-.26.1L64.91,8A.28.28,0,0,0,64.79,8.27Z" style="fill: #fff"/>
      <path d="M69.55,7.17H71a.9.9,0,0,1,.58.19.54.54,0,0,1,.26.38.31.31,0,0,1-.3.3.35.35,0,0,1-.27-.13A.33.33,0,0,0,71,7.78H69.58c-.14,0-.21.06-.21.17a.2.2,0,0,0,.14.18l1.63.73a1,1,0,0,1,.57.89.94.94,0,0,1-.91.94H69.55A1,1,0,0,1,69,10.5c-.19-.13-.28-.26-.28-.38a.29.29,0,0,1,.09-.21A.32.32,0,0,1,69,9.82a.36.36,0,0,1,.25.13.53.53,0,0,0,.39.13h1.14A.33.33,0,0,0,71,10a.36.36,0,0,0,.09-.24.31.31,0,0,0-.21-.3l-1.64-.75a.85.85,0,0,1-.37-.3A.82.82,0,0,1,68.75,8,.81.81,0,0,1,69,7.41.75.75,0,0,1,69.55,7.17Z" style="fill: #fff"/>
      <path d="M75.36,10.69h-.61a.93.93,0,0,1-.66-.27.88.88,0,0,1-.27-.65v-2h-.31a.31.31,0,0,1-.31-.31.29.29,0,0,1,.09-.21.29.29,0,0,1,.22-.09h.32V6.41a.29.29,0,0,1,.09-.21.29.29,0,0,1,.22-.09.31.31,0,0,1,.3.3v.76h1.24a.31.31,0,0,1,.3.3.29.29,0,0,1-.09.22.29.29,0,0,1-.21.09H74.43v2a.32.32,0,0,0,.1.22.29.29,0,0,0,.22.09h.6a.32.32,0,0,0,.32-.27A.32.32,0,0,1,76,9.55a.32.32,0,0,1,.23.09.33.33,0,0,1,.08.22.85.85,0,0,1-.26.56A.89.89,0,0,1,75.36,10.69Z" style="fill: #fff"/>
      <path d="M79.19,10.07l1-.66V7.47a.31.31,0,0,1,.09-.22.29.29,0,0,1,.22-.09.29.29,0,0,1,.21.09.31.31,0,0,1,.09.22v2.92a.31.31,0,0,1-.3.3.29.29,0,0,1-.22-.09.29.29,0,0,1-.09-.21v-.24l-.53.34a1.12,1.12,0,0,1-.64.2h-.28a.94.94,0,0,1-.94-.9l-.09-2.32a.25.25,0,0,1,.09-.21.29.29,0,0,1,.22-.09.29.29,0,0,1,.21.09.35.35,0,0,1,.1.21l.08,2.27c0,.22.13.33.37.33Z" style="fill: #fff"/>
      <path d="M82.25,10.39V7.47a.31.31,0,0,1,.09-.22.29.29,0,0,1,.21-.09.29.29,0,0,1,.22.09.31.31,0,0,1,.09.22v.39l.5-.43A.93.93,0,0,1,84,7.17h.45a.89.89,0,0,1,.65.27.88.88,0,0,1,.27.65v.16a.33.33,0,0,1-.09.23.29.29,0,0,1-.22.09.31.31,0,0,1-.31-.31V8.09a.29.29,0,0,0-.09-.22.29.29,0,0,0-.21-.09H84a.48.48,0,0,0-.29.14l-.87.75v1.72a.29.29,0,0,1-.09.21.29.29,0,0,1-.22.09.31.31,0,0,1-.3-.3Z" style="fill: #fff"/>
      <path d="M89.86,8.32v.74a.29.29,0,0,1-.09.22.33.33,0,0,1-.22.09H87.38v.18a.35.35,0,0,0,.13.27l.18.15a.5.5,0,0,0,.28.11h1.58a.33.33,0,0,1,.22.09.29.29,0,0,1,.09.22.26.26,0,0,1-.1.21.29.29,0,0,1-.21.09H87.93a1.06,1.06,0,0,1-.34-.06,1.19,1.19,0,0,1-.26-.15l-.27-.24a.71.71,0,0,1-.22-.28.93.93,0,0,1-.08-.34V8.22a.91.91,0,0,1,.09-.33.8.8,0,0,1,.24-.32l.25-.2a.91.91,0,0,1,.56-.2h.86a.89.89,0,0,1,.62.27l.23.22A.87.87,0,0,1,89.86,8.32Zm-2.47-.05v.48h1.86V8.32a.33.33,0,0,0-.11-.26L89,7.9a.48.48,0,0,0-.25-.11H88a.35.35,0,0,0-.26.1L87.51,8A.28.28,0,0,0,87.39,8.27Z" style="fill: #fff"/>
    </g>
  </g>
  <g data-name="Layer 11" id="Layer_11">
    <rect height="12.28" style="fill: #9ca09c" width="1" x="90.25" y="17.21"/>
    <rect height="12.28" style="fill: #9ca09c" width="1" x="81.88" y="17.21"/>
    <g>
      <line style="fill: none;stroke: #bcbcbc;stroke-linecap: round;stroke-miterlimit: 10" x1="79.82" x2="77.14" y1="25.15" y2="25.15"/>
      <line style="fill: none;stroke: #bcbcbc;stroke-linecap: round;stroke-miterlimit: 10" x1="79.82" x2="77.14" y1="17.79" y2="17.79"/>
      <rect height="7.36" rx="0.58" ry="0.58" style="fill: #e2e2e2" transform="translate(156.96 42.94) rotate(180)" width="2.96" x="77" y="17.79"/>
      <rect height="3.45" transform="translate(156.96 43.08) rotate(180)" width="2.96" x="77" y="19.82"/>
    </g>
    <rect height="11.29" rx="0.98" ry="0.98" width="10.94" x="81.14" y="17.62"/>
    <polyline points="92.42 17.79 92.42 28.92 92.42 29.21 91.75 29.21" style="fill: none;stroke: #fff;stroke-linecap: round;stroke-linejoin: round;stroke-width: 0.25px"/>
    <polyline points="80.67 17.79 80.67 29.21 81.29 29.21" style="fill: none;stroke: #fff;stroke-linecap: round;stroke-linejoin: round;stroke-width: 0.25px"/>
    <line style="fill: none;stroke: #fff;stroke-linecap: round;stroke-linejoin: round;stroke-width: 0.25px" x1="83.54" x2="89.83" y1="29.49" y2="29.49"/>
    <line style="fill: none;stroke: #fff;stroke-linecap: round;stroke-linejoin: round;stroke-width: 0.25px" x1="40.13" x2="40.13" y1="19.33" y2="27.63"/>
    <polyline points="48.83 47 48.83 40.04 91.75 40.04 91.75 47" style="fill: none;stroke: #fff;stroke-linecap: round;stroke-linejoin: round;stroke-width: 0.25px"/>
    <g>
      <polyline points="91.75 41.67 93.96 39.67 97.46 39.67 99.12 41.33" style="fill: none;stroke: #fff;stroke-linecap: round;stroke-linejoin: round;stroke-width: 0.25px"/>
      <polyline points="99.12 41.33 100.96 39.67 104.46 39.67 106.38 41.58" style="fill: none;stroke: #fff;stroke-linecap: round;stroke-linejoin: round;stroke-width: 0.25px"/>
      <polyline points="106.38 41.58 108.43 39.67 111.93 39.67 113.6 41.34" style="fill: none;stroke: #fff;stroke-linecap: round;stroke-linejoin: round;stroke-width: 0.25px"/>
      <polyline points="113.6 41.34 115.44 39.67 118.94 39.67 120.57 41.29" style="fill: none;stroke: #fff;stroke-linecap: round;stroke-linejoin: round;stroke-width: 0.25px"/>
      <polyline points="120.57 41.29 122.37 39.67 125.87 39.67 127.78 41.58 127.78 44.77" style="fill: none;stroke: #fff;stroke-linecap: round;stroke-linejoin: round;stroke-width: 0.25px"/>
    </g>
    <g>
      <polyline points="127.78 44.77 125.58 46.77 122.08 46.77 120.41 45.1" style="fill: none;stroke: #fff;stroke-linecap: round;stroke-linejoin: round;stroke-width: 0.25px"/>
      <polyline points="120.41 45.1 118.58 46.77 115.08 46.77 113.16 44.85" style="fill: none;stroke: #fff;stroke-linecap: round;stroke-linejoin: round;stroke-width: 0.25px"/>
      <polyline points="113.16 44.85 111.11 46.77 107.61 46.77 105.94 45.09" style="fill: none;stroke: #fff;stroke-linecap: round;stroke-linejoin: round;stroke-width: 0.25px"/>
      <polyline points="105.94 45.09 104.09 46.77 100.59 46.77 98.96 45.14" style="fill: none;stroke: #fff;stroke-linecap: round;stroke-linejoin: round;stroke-width: 0.25px"/>
      <polyline points="98.96 45.14 97.17 46.77 93.67 46.77 91.75 44.85" style="fill: none;stroke: #fff;stroke-linecap: round;stroke-linejoin: round;stroke-width: 0.25px"/>
    </g>
    <g>
      <rect height="8.53" rx="0.83" ry="0.83" style="stroke-miterlimit: 10;fill: url(#Silver_01);stroke: url(#Silver_01-2)" width="4.87" x="26.35" y="19.09"/>
      <rect height="8.53" rx="0.83" ry="0.83" style="stroke-miterlimit: 10;fill: url(#Silver_01-3);stroke: url(#Silver_01-4)" width="4.88" x="34.76" y="19.09"/>
      <rect height="4.22" rx="0.41" ry="0.41" style="fill: #c49559" width="1.16" x="35.7" y="21"/>
      <rect height="2.37" rx="0.66" ry="0.66" style="fill: #362822" width="7.59" x="28.62" y="19.81"/>
      <rect height="2.38" rx="0.66" ry="0.66" style="fill: #362822" width="7.59" x="28.62" y="23.86"/>
      <g>
        <circle cx="32.42" cy="22.94" r="2.84" style="stroke-miterlimit: 10;fill: url(#Gold_03);stroke: url(#Gold_02)"/>
        <circle cx="32.11" cy="22.94" r="0.6" style="stroke-miterlimit: 10;fill: url(#Gold_03-2);stroke: url(#Gold_02-2)"/>
      </g>
    </g>
    <g>
      <rect height="8.53" rx="0.83" ry="0.83" style="stroke-miterlimit: 10;fill: url(#Silver_01-5);stroke: url(#Silver_01-6)" transform="translate(287.52 46.72) rotate(180)" width="4.88" x="141.32" y="19.09"/>
      <rect height="8.53" rx="0.83" ry="0.83" style="stroke-miterlimit: 10;fill: url(#Silver_01-7);stroke: url(#Silver_01-8)" transform="translate(270.71 46.72) rotate(180)" width="4.88" x="132.92" y="19.09"/>
      <rect height="4.22" rx="0.41" ry="0.41" style="fill: #c49559" transform="translate(272.55 47.22) rotate(180)" width="1.16" x="135.7" y="21.5"/>
      <rect height="2.38" rx="0.66" ry="0.66" style="fill: #362822" transform="translate(280.27 51.44) rotate(180)" width="7.59" x="136.34" y="24.53"/>
      <rect height="2.38" rx="0.66" ry="0.66" style="fill: #362822" transform="translate(280.27 43.34) rotate(180)" width="7.59" x="136.34" y="20.48"/>
      <g>
        <circle cx="140.13" cy="23.78" r="2.84" style="stroke-miterlimit: 10;fill: url(#Gold_03-3);stroke: url(#Gold_02-3)"/>
        <circle cx="140.44" cy="23.78" r="0.6" style="stroke-miterlimit: 10;fill: url(#Gold_03-4);stroke: url(#Gold_02-4)"/>
      </g>
    </g>
    <circle cx="93.99" cy="18.93" r="0.89" style="fill: #fff"/>
    <circle cx="150.89" cy="11.67" r="0.92" style="fill: none;stroke: #cf2f27;stroke-linecap: round;stroke-linejoin: round;stroke-width: 0.75px"/>
    <circle cx="150.89" cy="11.67" r="1.56" style="fill: #8a231e;stroke: #cf2f27;stroke-linecap: round;stroke-linejoin: round;stroke-width: 0.75px"/>
  </g>
  <g id="Connectors">
    <ellipse cx="81.14" cy="43.31" id="connector29pin" rx="2.05" ry="1.99" style="fill: none;stroke: #e8e5df;stroke-miterlimit: 10;stroke-width: 1.224px"/>
    <ellipse cx="73.95" cy="43.31" id="connector30pin" rx="2.05" ry="1.99" style="fill: none;stroke: #e8e5df;stroke-miterlimit: 10;stroke-width: 1.224px"/>
    <ellipse cx="66.75" cy="43.31" id="connector31pin" rx="2.05" ry="1.99" style="fill: none;stroke: #e8e5df;stroke-miterlimit: 10;stroke-width: 1.224px"/>
    <ellipse cx="52.37" cy="43.31" data-cir-type="male" id="circuitoCon_0" rx="2.05" ry="1.99" style="fill: none;stroke: #e8e5df;stroke-miterlimit: 10;stroke-width: 1.224px"/>
    <ellipse cx="59.56" cy="43.31" id="connector32pin" rx="2.05" ry="1.99" style="fill: none;stroke: #e8e5df;stroke-miterlimit: 10;stroke-width: 1.224px"/>
    <ellipse cx="124.42" cy="43.31" data-cir-type="male" id="circuitoCon_GND" rx="2.05" ry="1.99" style="fill: none;stroke: #e8e5df;stroke-miterlimit: 10;stroke-width: 1.224px"/>
    <ellipse cx="117.22" cy="43.31" data-cir-type="male" id="circuitoCon_VCC" rx="2.05" ry="1.99" style="fill: none;stroke: #e8e5df;stroke-miterlimit: 10;stroke-width: 1.224px"/>
    <ellipse cx="110.03" cy="43.31" data-cir-type="male" id="circuitoCon_DA" rx="2.05" ry="1.99" style="fill: none;stroke: #e8e5df;stroke-miterlimit: 10;stroke-width: 1.224px"/>
    <ellipse cx="95.64" cy="43.31" data-cir-type="male" id="circuitoCon_DR" rx="2.05" ry="1.99" style="fill: none;stroke: #e8e5df;stroke-miterlimit: 10;stroke-width: 1.224px"/>
    <ellipse cx="71.33" cy="2.89" id="connector33pin" rx="1.77" ry="1.72" style="fill: none;stroke: #e8e5df;stroke-miterlimit: 10;stroke-width: 1.224px"/>
    <ellipse cx="78.5" cy="2.89" data-name="connector33pin" id="connector33pin-2" rx="1.77" ry="1.72" style="fill: none;stroke: #e8e5df;stroke-miterlimit: 10;stroke-width: 1.224px"/>
    <ellipse cx="85.67" cy="2.89" data-name="connector33pin" id="connector33pin-3" rx="1.77" ry="1.72" style="fill: none;stroke: #e8e5df;stroke-miterlimit: 10;stroke-width: 1.224px"/>
    <ellipse cx="92.84" cy="2.89" data-name="connector33pin" id="connector33pin-4" rx="1.77" ry="1.72" style="fill: none;stroke: #e8e5df;stroke-miterlimit: 10;stroke-width: 1.224px"/>
    <ellipse cx="100.02" cy="2.89" data-name="connector33pin" id="connector33pin-5" rx="1.77" ry="1.72" style="fill: none;stroke: #e8e5df;stroke-miterlimit: 10;stroke-width: 1.224px"/>
    <ellipse cx="88.4" cy="43.31" id="connector34pin" rx="2.05" ry="1.99" style="fill: none;stroke: #e8e5df;stroke-miterlimit: 10;stroke-width: 1.224px"/>
    <ellipse cx="102.84" cy="43.31" data-cir-type="male" id="circuitoCon_CL" rx="2.05" ry="1.99" style="fill: none;stroke: #e8e5df;stroke-miterlimit: 10;stroke-width: 1.224px"/>
  </g>
</svg>