<?xml version="1.0" ?><svg height="42.36mm" viewBox="0 0 93.54 120.06" width="33mm" xmlns="http://www.w3.org/2000/svg" xmlns:xlink="http://www.w3.org/1999/xlink">
  <defs>
    <linearGradient data-name="Silver 01" gradientUnits="userSpaceOnUse" id="Silver_01" x1="67.49" x2="67.49" y1="111.11" y2="110.06">
      <stop offset="0" stop-color="#cbd1d6"/>
      <stop offset="0.2" stop-color="#bac0c5"/>
      <stop offset="0.43" stop-color="#aab1b5"/>
      <stop offset="0.52" stop-color="#b7bec2"/>
      <stop offset="0.84" stop-color="#e3eaed"/>
      <stop offset="1" stop-color="#f4fbfe"/>
    </linearGradient>
    <linearGradient id="Silver_01-2" x1="67.49" x2="67.49" xlink:href="#Silver_01" y1="104.28" y2="103.22"/>
    <linearGradient id="linear-gradient" x1="52.62" x2="52.62" xlink:href="#Silver_01" y1="120.06" y2="115.3"/>
    <linearGradient data-name="Carbon 03" gradientUnits="userSpaceOnUse" id="Carbon_03" x1="26.98" x2="62.19" y1="106.16" y2="106.16">
      <stop offset="0" stop-color="#0e0f10"/>
      <stop offset="0.15" stop-color="#1d1e1f"/>
      <stop offset="0.28" stop-color="#2e3033"/>
      <stop offset="0.41" stop-color="#151515"/>
      <stop offset="0.59" stop-color="#2a2d32"/>
      <stop offset="0.74" stop-color="#313439"/>
      <stop offset="0.92" stop-color="#1e282c"/>
      <stop offset="1" stop-color="#151515"/>
    </linearGradient>
    <linearGradient gradientUnits="userSpaceOnUse" id="linear-gradient-2" x1="8.94" x2="84.57" y1="27.87" y2="27.87">
      <stop offset="0" stop-color="#e31b22"/>
      <stop offset="0.89" stop-color="#9e2126"/>
      <stop offset="1" stop-color="#e31b22"/>
    </linearGradient>
    <linearGradient id="linear-gradient-3" x1="8.94" x2="84.57" xlink:href="#linear-gradient-2" y1="31.25" y2="31.25"/>
    <linearGradient id="linear-gradient-4" x1="8.94" x2="84.57" xlink:href="#linear-gradient-2" y1="34.66" y2="34.66"/>
    <linearGradient id="linear-gradient-5" x1="8.94" x2="84.57" xlink:href="#linear-gradient-2" y1="38.37" y2="38.37"/>
    <linearGradient id="linear-gradient-6" x1="8.94" x2="84.57" xlink:href="#linear-gradient-2" y1="41.75" y2="41.75"/>
    <linearGradient id="linear-gradient-7" x1="8.94" x2="84.57" xlink:href="#linear-gradient-2" y1="45.16" y2="45.16"/>
    <linearGradient id="linear-gradient-8" x1="8.94" x2="84.57" xlink:href="#linear-gradient-2" y1="48.84" y2="48.84"/>
    <linearGradient id="linear-gradient-9" x1="8.94" x2="84.57" xlink:href="#linear-gradient-2" y1="52.23" y2="52.23"/>
    <linearGradient id="linear-gradient-10" x1="8.94" x2="84.57" xlink:href="#linear-gradient-2" y1="55.63" y2="55.63"/>
    <linearGradient id="linear-gradient-11" x1="8.94" x2="84.57" xlink:href="#linear-gradient-2" y1="59.29" y2="59.29"/>
    <linearGradient id="linear-gradient-12" x1="8.94" x2="84.57" xlink:href="#linear-gradient-2" y1="62.68" y2="62.68"/>
    <linearGradient id="linear-gradient-13" x1="8.94" x2="84.57" xlink:href="#linear-gradient-2" y1="66.08" y2="66.08"/>
    <linearGradient id="linear-gradient-14" x1="8.94" x2="84.57" xlink:href="#linear-gradient-2" y1="69.77" y2="69.77"/>
    <linearGradient id="linear-gradient-15" x1="8.94" x2="84.57" xlink:href="#linear-gradient-2" y1="73.15" y2="73.15"/>
    <linearGradient id="linear-gradient-16" x1="8.94" x2="84.57" xlink:href="#linear-gradient-2" y1="76.56" y2="76.56"/>
    <linearGradient id="linear-gradient-17" x1="8.94" x2="84.57" xlink:href="#linear-gradient-2" y1="80.22" y2="80.22"/>
    <linearGradient id="linear-gradient-18" x1="8.94" x2="84.57" xlink:href="#linear-gradient-2" y1="83.6" y2="83.6"/>
    <linearGradient id="linear-gradient-19" x1="8.94" x2="84.57" xlink:href="#linear-gradient-2" y1="87.01" y2="87.01"/>
    <linearGradient id="linear-gradient-20" x1="8.94" x2="84.57" xlink:href="#linear-gradient-2" y1="90.65" y2="90.65"/>
    <linearGradient id="linear-gradient-21" x1="8.94" x2="84.57" xlink:href="#linear-gradient-2" y1="94.03" y2="94.03"/>
    <linearGradient id="linear-gradient-22" x1="8.94" x2="84.57" xlink:href="#linear-gradient-2" y1="97.43" y2="97.43"/>
    <linearGradient gradientUnits="userSpaceOnUse" id="linear-gradient-23" x2="93.54" y1="20.21" y2="20.21">
      <stop offset="0" stop-color="#e31b22"/>
      <stop offset="0.89" stop-color="#610f12"/>
      <stop offset="1" stop-color="#e31b22"/>
    </linearGradient>
    <linearGradient id="linear-gradient-24" x1="15.43" x2="78.11" xlink:href="#linear-gradient-2" y1="6.93" y2="6.93"/>
  </defs>
  <title>ArcadeButtonNoLED</title>
  <g data-name="Layer 3" id="Layer_3">
    <g>
      <rect height="1.06" rx="0.53" ry="0.53" style="fill: url(#Silver_01)" width="12.89" x="61.04" y="110.06"/>
      <rect height="1.06" rx="0.53" ry="0.53" style="fill: url(#Silver_01-2)" width="12.89" x="61.04" y="103.22"/>
      <path d="M59,119H47.57v-2.79a.92.92,0,0,0-1.83,0v2.94a.92.92,0,0,0,.92.91,1.09,1.09,0,0,0,.26,0,.78.78,0,0,0,.22,0H59A.53.53,0,0,0,59,119Z" style="fill: url(#linear-gradient)"/>
      <rect height="19.34" rx="3.46" ry="3.46" style="stroke: #000;stroke-miterlimit: 10;stroke-width: 0.07785038069833525px;fill: url(#Carbon_03)" width="35.21" x="26.98" y="96.49"/>
      <g>
        <path d="M43.78,113.82h.51a.13.13,0,0,1,.1,0,.13.13,0,0,1,0,.2.13.13,0,0,1-.1,0h-.53a.42.42,0,0,1-.21-.06.43.43,0,0,1-.15-.15l-.33-.63A.71.71,0,0,1,43,113a.61.61,0,0,1,.06-.28l.33-.63a.43.43,0,0,1,.15-.15.37.37,0,0,1,.19-.07h.56a.14.14,0,0,1,.1.05.12.12,0,0,1,0,.1.14.14,0,0,1,0,.1.13.13,0,0,1-.1,0h-.54a.14.14,0,0,0-.11.08l-.31.59a.29.29,0,0,0,0,.16.34.34,0,0,0,0,.18l.3.58A.14.14,0,0,0,43.78,113.82Z" style="fill: #7c7c7c"/>
        <path d="M46.14,112.06l.32.64a.68.68,0,0,1,0,.56l-.32.63a.34.34,0,0,1-.33.21.37.37,0,0,1-.21-.06.37.37,0,0,1-.13-.15l-.32-.63a.61.61,0,0,1-.06-.28.64.64,0,0,1,.06-.28l.32-.64a.35.35,0,0,1,.34-.21A.34.34,0,0,1,46.14,112.06Zm-.43.14-.29.6a.42.42,0,0,0,0,.36l.3.6a.08.08,0,0,0,.09.06.09.09,0,0,0,.08-.06l.3-.6a.43.43,0,0,0,0-.36l-.3-.6a.08.08,0,0,0-.08-.06A.11.11,0,0,0,45.71,112.2Z" style="fill: #7c7c7c"/>
        <path d="M47.76,112.74v-.08l-.3-.42V114a.14.14,0,1,1-.28,0v-2.11h.36l.35.51.36-.51h.36V114a.14.14,0,1,1-.28,0v-1.71l-.29.41v.08a.14.14,0,0,1-.14.14.15.15,0,0,1-.1,0A.13.13,0,0,1,47.76,112.74Z" style="fill: #7c7c7c"/>
      </g>
      <g>
        <path d="M58.18,102.67v2.1H57.8L57,103v1.61a.14.14,0,1,1-.28,0v-2.11h.37l.77,1.74v-1.59a.15.15,0,0,1,0-.1.16.16,0,0,1,.11,0,.18.18,0,0,1,.1,0A.21.21,0,0,1,58.18,102.67Z" style="fill: #7c7c7c"/>
        <path d="M59.62,104.49h.51a.12.12,0,0,1,.1,0,.12.12,0,0,1,.05.1.14.14,0,0,1-.05.1.12.12,0,0,1-.1,0H59.6a.35.35,0,0,1-.21-.07.41.41,0,0,1-.15-.14l-.33-.63a.71.71,0,0,1-.06-.28.61.61,0,0,1,.06-.28l.33-.63a.36.36,0,0,1,.15-.15.32.32,0,0,1,.19-.07h.56a.15.15,0,0,1,.1,0,.14.14,0,0,1,0,.1.15.15,0,0,1,0,.11.15.15,0,0,1-.1,0H59.6a.14.14,0,0,0-.11.08l-.31.59a.27.27,0,0,0,0,.16.34.34,0,0,0,0,.18l.3.58A.15.15,0,0,0,59.62,104.49Z" style="fill: #7c7c7c"/>
      </g>
      <g>
        <path d="M58.18,109.5v2.1H57.8L57,109.86v1.6a.14.14,0,1,1-.28,0v-2.11h.37l.77,1.74V109.5a.15.15,0,0,1,0-.1.16.16,0,0,1,.11-.05.14.14,0,0,1,.1.05A.15.15,0,0,1,58.18,109.5Z" style="fill: #7c7c7c"/>
        <path d="M59.89,109.56l.32.64a.64.64,0,0,1,.06.28.67.67,0,0,1-.06.28l-.32.63a.34.34,0,0,1-.34.21.36.36,0,0,1-.2-.06.4.4,0,0,1-.14-.15l-.31-.63a.61.61,0,0,1-.06-.28.64.64,0,0,1,.06-.28l.31-.64a.37.37,0,0,1,.34-.21A.35.35,0,0,1,59.89,109.56Zm-.43.14-.29.6a.35.35,0,0,0,0,.36l.3.6a.08.08,0,0,0,.08.06.1.1,0,0,0,.09-.06l.3-.6a.43.43,0,0,0,0-.36l-.3-.6a.09.09,0,0,0-.09-.06A.1.1,0,0,0,59.46,109.7Z" style="fill: #7c7c7c"/>
      </g>
    </g>
  </g>
  <g data-name="Layer 1" id="Layer_1">
    <polygon points="10.87 26.9 8.94 28.49 10.87 30.31 82.41 29.06 84.57 26.9 82.64 25.43 10.87 26.9" style="stroke: #000;stroke-miterlimit: 10;stroke-width: 0.193140272616874px;fill: url(#linear-gradient-2)"/>
    <polygon points="10.87 30.28 8.94 31.87 10.87 33.69 82.41 32.44 84.57 30.28 82.64 28.81 10.87 30.28" style="stroke: #000;stroke-miterlimit: 10;stroke-width: 0.193140272616874px;fill: url(#linear-gradient-3)"/>
    <polygon points="10.87 33.69 8.94 35.28 10.87 37.1 82.41 35.85 84.57 33.69 82.64 32.22 10.87 33.69" style="stroke: #000;stroke-miterlimit: 10;stroke-width: 0.193140272616874px;fill: url(#linear-gradient-4)"/>
    <polygon points="10.87 37.4 8.94 38.99 10.87 40.81 82.41 39.56 84.57 37.4 82.64 35.93 10.87 37.4" style="stroke: #000;stroke-miterlimit: 10;stroke-width: 0.193140272616874px;fill: url(#linear-gradient-5)"/>
    <polygon points="10.87 40.78 8.94 42.37 10.87 44.19 82.41 42.94 84.57 40.78 82.64 39.31 10.87 40.78" style="stroke: #000;stroke-miterlimit: 10;stroke-width: 0.193140272616874px;fill: url(#linear-gradient-6)"/>
    <polygon points="10.87 44.19 8.94 45.78 10.87 47.6 82.41 46.35 84.57 44.19 82.64 42.72 10.87 44.19" style="stroke: #000;stroke-miterlimit: 10;stroke-width: 0.193140272616874px;fill: url(#linear-gradient-7)"/>
    <polygon points="10.87 47.88 8.94 49.47 10.87 51.28 82.41 50.03 84.57 47.88 82.64 46.4 10.87 47.88" style="stroke: #000;stroke-miterlimit: 10;stroke-width: 0.193140272616874px;fill: url(#linear-gradient-8)"/>
    <polygon points="10.87 51.26 8.94 52.85 10.87 54.67 82.41 53.42 84.57 51.26 82.64 49.78 10.87 51.26" style="stroke: #000;stroke-miterlimit: 10;stroke-width: 0.193140272616874px;fill: url(#linear-gradient-9)"/>
    <polygon points="10.87 54.67 8.94 56.26 10.87 58.07 82.41 56.83 84.57 54.67 82.64 53.19 10.87 54.67" style="stroke: #000;stroke-miterlimit: 10;stroke-width: 0.193140272616874px;fill: url(#linear-gradient-10)"/>
    <polygon points="10.87 58.33 8.94 59.92 10.87 61.74 82.41 60.49 84.57 58.33 82.64 56.85 10.87 58.33" style="stroke: #000;stroke-miterlimit: 10;stroke-width: 0.193140272616874px;fill: url(#linear-gradient-11)"/>
    <polygon points="10.87 61.71 8.94 63.3 10.87 65.12 82.41 63.87 84.57 61.71 82.64 60.23 10.87 61.71" style="stroke: #000;stroke-miterlimit: 10;stroke-width: 0.193140272616874px;fill: url(#linear-gradient-12)"/>
    <polygon points="10.87 65.12 8.94 66.71 10.87 68.53 82.41 67.28 84.57 65.12 82.64 63.64 10.87 65.12" style="stroke: #000;stroke-miterlimit: 10;stroke-width: 0.193140272616874px;fill: url(#linear-gradient-13)"/>
    <polygon points="10.87 68.8 8.94 70.39 10.87 72.21 82.41 70.96 84.57 68.8 82.64 67.33 10.87 68.8" style="stroke: #000;stroke-miterlimit: 10;stroke-width: 0.193140272616874px;fill: url(#linear-gradient-14)"/>
    <polygon points="10.87 72.18 8.94 73.77 10.87 75.59 82.41 74.34 84.57 72.18 82.64 70.71 10.87 72.18" style="stroke: #000;stroke-miterlimit: 10;stroke-width: 0.193140272616874px;fill: url(#linear-gradient-15)"/>
    <polygon points="10.87 75.59 8.94 77.18 10.87 79 82.41 77.75 84.57 75.59 82.64 74.11 10.87 75.59" style="stroke: #000;stroke-miterlimit: 10;stroke-width: 0.193140272616874px;fill: url(#linear-gradient-16)"/>
    <polygon points="10.87 79.25 8.94 80.84 10.87 82.66 82.41 81.41 84.57 79.25 82.64 77.78 10.87 79.25" style="stroke: #000;stroke-miterlimit: 10;stroke-width: 0.193140272616874px;fill: url(#linear-gradient-17)"/>
    <polygon points="10.87 82.64 8.94 84.22 10.87 86.04 82.41 84.79 84.57 82.64 82.64 81.16 10.87 82.64" style="stroke: #000;stroke-miterlimit: 10;stroke-width: 0.193140272616874px;fill: url(#linear-gradient-18)"/>
    <polygon points="10.87 86.04 8.94 87.63 10.87 89.45 82.41 88.2 84.57 86.04 82.64 84.57 10.87 86.04" style="stroke: #000;stroke-miterlimit: 10;stroke-width: 0.193140272616874px;fill: url(#linear-gradient-19)"/>
    <polygon points="10.87 89.68 8.94 91.27 10.87 93.09 82.41 91.84 84.57 89.68 82.64 88.2 10.87 89.68" style="stroke: #000;stroke-miterlimit: 10;stroke-width: 0.193140272616874px;fill: url(#linear-gradient-20)"/>
    <polygon points="10.87 93.06 8.94 94.65 10.87 96.47 82.41 95.22 84.57 93.06 82.64 91.59 10.87 93.06" style="stroke: #000;stroke-miterlimit: 10;stroke-width: 0.193140272616874px;fill: url(#linear-gradient-21)"/>
    <polygon points="10.87 96.47 8.94 98.06 10.87 99.88 82.41 98.63 84.57 96.47 82.64 94.99 10.87 96.47" style="stroke: #000;stroke-miterlimit: 10;stroke-width: 0.193140272616874px;fill: url(#linear-gradient-22)"/>
    <path d="M9.31,13.85C2.38,16,0,26.57,0,26.57H93.54S91.16,16,84.23,13.85H8.94" style="fill: url(#linear-gradient-23)"/>
    <path d="M78.11,13.85H15.43V4.51C15.43,2,29.46,0,46.77,0S78.11,2,78.11,4.51v8.75" style="fill: url(#linear-gradient-24)"/>
  </g>
  <g id="Connectors">
    <circle cx="73.38" cy="103.75" data-cir-type="male" id="circuitoCon_NC" r="0.52" style="fill: none"/>
    <circle cx="73.38" cy="110.58" data-cir-type="male" id="circuitoCon_NO" r="0.52" style="fill: none"/>
    <circle cx="58.98" cy="119.55" data-cir-type="male" id="circuitoCon_COM" r="0.52" style="fill: none"/>
  </g>
</svg>