<?xml version="1.0" ?><svg height="100.05mm" viewBox="0 0 28.32 283.61" width="9.99mm" xmlns="http://www.w3.org/2000/svg" xmlns:xlink="http://www.w3.org/1999/xlink">
  <defs>
    <linearGradient gradientTransform="translate(233.73 45.03) rotate(90)" gradientUnits="userSpaceOnUse" id="linear-gradient" x1="-42.68" x2="-42.68" y1="211.57" y2="205.41">
      <stop offset="0" stop-color="#cb9552"/>
      <stop offset="0.5" stop-color="#d7b189"/>
      <stop offset="0.84" stop-color="#ab6c2e"/>
      <stop offset="0.96" stop-color="#9c530d"/>
    </linearGradient>
    <linearGradient id="linear-gradient-2" x1="-42.68" x2="-42.68" xlink:href="#linear-gradient" y1="218.9" y2="212.74"/>
    <linearGradient id="linear-gradient-3" x1="-42.68" x2="-42.68" xlink:href="#linear-gradient" y1="226.23" y2="220.08"/>
    <linearGradient id="linear-gradient-4" x1="-42.68" x2="-42.68" xlink:href="#linear-gradient" y1="233.57" y2="227.41"/>
    <linearGradient gradientTransform="matrix(0, -1, -1, 0, 233.89, -109.14)" id="linear-gradient-5" x1="-248.7" x2="-248.7" xlink:href="#linear-gradient" y1="211.81" y2="205.65"/>
    <linearGradient gradientTransform="matrix(0, -1, -1, 0, 233.89, -109.14)" id="linear-gradient-6" x1="-248.7" x2="-248.7" xlink:href="#linear-gradient" y1="219.14" y2="212.98"/>
    <linearGradient gradientTransform="matrix(0, -1, -1, 0, 233.89, -109.14)" id="linear-gradient-7" x1="-248.7" x2="-248.7" xlink:href="#linear-gradient" y1="226.47" y2="220.31"/>
    <linearGradient gradientTransform="matrix(0, -1, -1, 0, 233.89, -109.14)" id="linear-gradient-8" x1="-248.7" x2="-248.7" xlink:href="#linear-gradient" y1="233.8" y2="227.65"/>
    <linearGradient gradientTransform="translate(-62.44 -112.64)" gradientUnits="userSpaceOnUse" id="linear-gradient-9" x1="67.94" x2="70.56" y1="226.92" y2="226.92">
      <stop offset="0" stop-color="#e5e2df"/>
      <stop offset="0" stop-color="#ded9d6"/>
      <stop offset="0.27" stop-color="#e8e6e5"/>
      <stop offset="0.49" stop-color="#f3f4f4"/>
      <stop offset="0.58" stop-color="#e5e5e6"/>
      <stop offset="0.75" stop-color="#c0bec0"/>
      <stop offset="0.98" stop-color="#858085"/>
      <stop offset="1" stop-color="#807b80"/>
      <stop offset="1" stop-color="#d1d3d4"/>
    </linearGradient>
    <linearGradient gradientTransform="translate(-66.99 -108.23)" id="linear-gradient-10" x1="72.41" x2="75.04" xlink:href="#linear-gradient-9" y1="226.99" y2="226.99"/>
    <linearGradient gradientTransform="translate(-71.46 -103.76)" id="linear-gradient-11" x1="76.89" x2="79.52" xlink:href="#linear-gradient-9" y1="226.99" y2="226.99"/>
    <linearGradient gradientTransform="translate(-47.55 -97.75)" id="linear-gradient-12" x1="67.94" x2="70.56" xlink:href="#linear-gradient-9" y1="212.03" y2="212.03"/>
    <linearGradient gradientTransform="translate(-52.1 -93.34)" id="linear-gradient-13" x1="72.41" x2="75.04" xlink:href="#linear-gradient-9" y1="212.1" y2="212.1"/>
    <linearGradient gradientTransform="translate(-56.57 -88.87)" id="linear-gradient-14" x1="76.89" x2="79.52" xlink:href="#linear-gradient-9" y1="212.1" y2="212.1"/>
    <linearGradient gradientTransform="translate(-14.61 -160.47)" id="linear-gradient-15" x1="20.1" x2="22.73" xlink:href="#linear-gradient-9" y1="226.92" y2="226.92"/>
    <linearGradient gradientTransform="translate(-19.15 -156.07)" id="linear-gradient-16" x1="24.58" x2="27.21" xlink:href="#linear-gradient-9" y1="226.99" y2="226.99"/>
    <linearGradient gradientTransform="translate(-23.63 -151.59)" id="linear-gradient-17" x1="29.05" x2="31.68" xlink:href="#linear-gradient-9" y1="226.99" y2="226.99"/>
    <linearGradient gradientTransform="translate(0.28 -145.58)" id="linear-gradient-18" x1="20.1" x2="22.73" xlink:href="#linear-gradient-9" y1="212.03" y2="212.03"/>
    <linearGradient gradientTransform="translate(-4.26 -141.17)" id="linear-gradient-19" x1="24.58" x2="27.21" xlink:href="#linear-gradient-9" y1="212.1" y2="212.1"/>
    <linearGradient gradientTransform="translate(-8.74 -136.7)" id="linear-gradient-20" x1="29.05" x2="31.68" xlink:href="#linear-gradient-9" y1="212.1" y2="212.1"/>
    <linearGradient gradientTransform="translate(33.13 -208.21)" id="linear-gradient-21" x1="-27.63" x2="-25" xlink:href="#linear-gradient-9" y1="226.92" y2="226.92"/>
    <linearGradient gradientTransform="translate(28.58 -203.8)" id="linear-gradient-22" x1="-23.15" x2="-20.53" xlink:href="#linear-gradient-9" y1="226.99" y2="226.99"/>
    <linearGradient gradientTransform="translate(24.1 -199.33)" id="linear-gradient-23" x1="-18.68" x2="-16.05" xlink:href="#linear-gradient-9" y1="226.99" y2="226.99"/>
    <linearGradient gradientTransform="translate(48.02 -193.31)" id="linear-gradient-24" x1="-27.63" x2="-25" xlink:href="#linear-gradient-9" y1="212.03" y2="212.03"/>
    <linearGradient gradientTransform="translate(43.47 -188.91)" id="linear-gradient-25" x1="-23.15" x2="-20.53" xlink:href="#linear-gradient-9" y1="212.1" y2="212.1"/>
    <linearGradient gradientTransform="translate(39 -184.43)" id="linear-gradient-26" x1="-18.68" x2="-16.05" xlink:href="#linear-gradient-9" y1="212.1" y2="212.1"/>
    <linearGradient id="linear-gradient-27" x1="99.09" x2="99.09" xlink:href="#linear-gradient" y1="211.66" y2="205.5"/>
    <linearGradient id="linear-gradient-28" x1="99.09" x2="99.09" xlink:href="#linear-gradient" y1="218.99" y2="212.83"/>
    <linearGradient id="linear-gradient-29" x1="99.09" x2="99.09" xlink:href="#linear-gradient" y1="226.32" y2="220.17"/>
    <linearGradient id="linear-gradient-30" x1="99.09" x2="99.09" xlink:href="#linear-gradient" y1="233.66" y2="227.5"/>
    <linearGradient gradientTransform="matrix(0, -1, -1, 0, 233.89, -109.14)" id="linear-gradient-31" x1="-390.47" x2="-390.47" xlink:href="#linear-gradient" y1="211.9" y2="205.74"/>
    <linearGradient gradientTransform="matrix(0, -1, -1, 0, 233.89, -109.14)" id="linear-gradient-32" x1="-390.47" x2="-390.47" xlink:href="#linear-gradient" y1="219.23" y2="213.07"/>
    <linearGradient gradientTransform="matrix(0, -1, -1, 0, 233.89, -109.14)" id="linear-gradient-33" x1="-390.47" x2="-390.47" xlink:href="#linear-gradient" y1="226.56" y2="220.4"/>
    <linearGradient gradientTransform="matrix(0, -1, -1, 0, 233.89, -109.14)" id="linear-gradient-34" x1="-390.47" x2="-390.47" xlink:href="#linear-gradient" y1="233.89" y2="227.74"/>
    <linearGradient gradientTransform="translate(-204.3 29.04)" id="linear-gradient-35" x1="209.7" x2="212.33" xlink:href="#linear-gradient-9" y1="227.01" y2="227.01"/>
    <linearGradient gradientTransform="translate(-208.84 33.44)" id="linear-gradient-36" x1="214.18" x2="216.8" xlink:href="#linear-gradient-9" y1="227.08" y2="227.08"/>
    <linearGradient gradientTransform="translate(-213.32 37.92)" id="linear-gradient-37" x1="218.65" x2="221.28" xlink:href="#linear-gradient-9" y1="227.08" y2="227.08"/>
    <linearGradient gradientTransform="translate(-189.4 43.93)" id="linear-gradient-38" x1="209.7" x2="212.33" xlink:href="#linear-gradient-9" y1="212.12" y2="212.12"/>
    <linearGradient gradientTransform="translate(-193.95 48.33)" id="linear-gradient-39" x1="214.18" x2="216.8" xlink:href="#linear-gradient-9" y1="212.19" y2="212.19"/>
    <linearGradient gradientTransform="translate(-198.43 52.81)" id="linear-gradient-40" x1="218.65" x2="221.28" xlink:href="#linear-gradient-9" y1="212.19" y2="212.19"/>
    <linearGradient gradientTransform="translate(-156.46 -18.8)" id="linear-gradient-41" x1="161.87" x2="164.49" xlink:href="#linear-gradient-9" y1="227.01" y2="227.01"/>
    <linearGradient gradientTransform="translate(-161.01 -14.39)" id="linear-gradient-42" x1="166.34" x2="168.97" xlink:href="#linear-gradient-9" y1="227.08" y2="227.08"/>
    <linearGradient gradientTransform="translate(-165.48 -9.92)" id="linear-gradient-43" x1="170.82" x2="173.44" xlink:href="#linear-gradient-9" y1="227.08" y2="227.08"/>
    <linearGradient gradientTransform="translate(-141.57 -3.91)" id="linear-gradient-44" x1="161.87" x2="164.49" xlink:href="#linear-gradient-9" y1="212.12" y2="212.12"/>
    <linearGradient gradientTransform="translate(-146.12 0.5)" id="linear-gradient-45" x1="166.34" x2="168.97" xlink:href="#linear-gradient-9" y1="212.19" y2="212.19"/>
    <linearGradient gradientTransform="translate(-150.59 4.97)" id="linear-gradient-46" x1="170.82" x2="173.44" xlink:href="#linear-gradient-9" y1="212.19" y2="212.19"/>
    <linearGradient gradientTransform="translate(-108.73 -66.53)" id="linear-gradient-47" x1="114.13" x2="116.76" xlink:href="#linear-gradient-9" y1="227.01" y2="227.01"/>
    <linearGradient gradientTransform="translate(-113.27 -62.13)" id="linear-gradient-48" x1="118.61" x2="121.24" xlink:href="#linear-gradient-9" y1="227.08" y2="227.08"/>
    <linearGradient gradientTransform="translate(-117.75 -57.65)" id="linear-gradient-49" x1="123.09" x2="125.71" xlink:href="#linear-gradient-9" y1="227.08" y2="227.08"/>
    <linearGradient gradientTransform="translate(-93.84 -51.64)" id="linear-gradient-50" x1="114.13" x2="116.76" xlink:href="#linear-gradient-9" y1="212.12" y2="212.12"/>
    <linearGradient gradientTransform="translate(-98.38 -47.24)" id="linear-gradient-51" x1="118.61" x2="121.24" xlink:href="#linear-gradient-9" y1="212.19" y2="212.19"/>
    <linearGradient gradientTransform="translate(-102.86 -42.76)" id="linear-gradient-52" x1="123.09" x2="125.71" xlink:href="#linear-gradient-9" y1="212.19" y2="212.19"/>
    <linearGradient gradientTransform="translate(17.09 -178.28)" id="linear-gradient-53" x1="-5.16" x2="-1.51" xlink:href="#linear-gradient-9" y1="219.98" y2="219.98"/>
    <linearGradient gradientTransform="translate(17.14 -178.22)" gradientUnits="userSpaceOnUse" id="linear-gradient-54" x1="-5.16" x2="-1.51" y1="219.92" y2="219.92">
      <stop offset="0" stop-color="#323232"/>
      <stop offset="0.5" stop-color="#919191"/>
      <stop offset="1" stop-color="#1a1a1a"/>
    </linearGradient>
    <linearGradient gradientTransform="translate(6.73 -167.89)" id="linear-gradient-55" x1="5.21" x2="8.86" xlink:href="#linear-gradient-9" y1="219.96" y2="219.96"/>
    <linearGradient gradientTransform="translate(6.79 -167.84)" id="linear-gradient-56" x1="5.21" x2="8.86" xlink:href="#linear-gradient-54" y1="219.9" y2="219.9"/>
    <linearGradient gradientTransform="translate(-35.42 -124.74)" id="linear-gradient-57" x1="47.86" x2="51.51" xlink:href="#linear-gradient-9" y1="219.46" y2="219.46"/>
    <linearGradient gradientTransform="translate(-35.36 -124.69)" id="linear-gradient-58" x1="47.86" x2="51.51" xlink:href="#linear-gradient-54" y1="219.4" y2="219.4"/>
    <linearGradient gradientTransform="translate(-124.96 -36.58)" id="linear-gradient-59" x1="136.72" x2="140.36" xlink:href="#linear-gradient-9" y1="220.15" y2="220.15"/>
    <linearGradient gradientTransform="translate(-124.9 -36.52)" id="linear-gradient-60" x1="136.72" x2="140.36" xlink:href="#linear-gradient-54" y1="220.09" y2="220.09"/>
    <linearGradient gradientTransform="translate(-135.36 -26.46)" id="linear-gradient-61" x1="146.98" x2="150.62" xlink:href="#linear-gradient-9" y1="220.29" y2="220.29"/>
    <linearGradient gradientTransform="translate(-135.31 -26.41)" id="linear-gradient-62" x1="146.98" x2="150.62" xlink:href="#linear-gradient-54" y1="220.24" y2="220.24"/>
    <linearGradient gradientTransform="translate(-177.52 16.69)" id="linear-gradient-63" x1="189.63" x2="193.27" xlink:href="#linear-gradient-9" y1="219.8" y2="219.8"/>
    <linearGradient gradientTransform="translate(-177.46 16.74)" id="linear-gradient-64" x1="189.63" x2="193.27" xlink:href="#linear-gradient-54" y1="219.74" y2="219.74"/>
  </defs>
  <title>LED Strip DotStar</title>
  <g data-name="Layer 1" id="Layer_1">
    <g>
      <rect height="141.84" style="fill: #c7c6c5" width="28.1" x="0.22"/>
      <rect height="141.84" style="fill: #ededee" width="27.84" x="0.35"/>
      <g>
        <g>
          <path d="M6.27,111.28v-1.94h16v2.1a.23.23,0,1,1-.45,0v-1.65H6.72v1.49a.23.23,0,1,1-.45,0Z" style="fill: #585856"/>
          <path d="M6.27,127.82v-1.94a.23.23,0,1,1,.45,0v1.49h15.1v-1.65a.22.22,0,0,1,.23-.22.22.22,0,0,1,.22.22v2.1Z" style="fill: #585856"/>
        </g>
        <g>
          <path d="M6.27,63.5V61.56h16v2.1a.22.22,0,0,1-.22.22.22.22,0,0,1-.23-.22V62H6.72V63.5a.23.23,0,1,1-.45,0Z" style="fill: #585856"/>
          <path d="M6.27,80V78.1a.23.23,0,1,1,.45,0v1.49h15.1V77.94a.23.23,0,1,1,.45,0V80Z" style="fill: #585856"/>
        </g>
        <g>
          <path d="M6.27,15.72v-2h16v2.1a.23.23,0,1,1-.45,0V14.23H6.72v1.49a.22.22,0,0,1-.23.22A.22.22,0,0,1,6.27,15.72Z" style="fill: #585856"/>
          <path d="M6.27,32.26V30.31a.22.22,0,0,1,.22-.22.22.22,0,0,1,.23.22v1.5h15.1V30.16a.23.23,0,1,1,.45,0v2.1Z" style="fill: #585856"/>
        </g>
      </g>
      <g>
        <path d="M25.24,4.63a3.07,3.07,0,0,1-2.18-.9,3.11,3.11,0,0,1-.9-2.18V.07h6.16V1.55A3.08,3.08,0,0,1,25.24,4.63Z" style="fill: url(#linear-gradient)"/>
        <path d="M17.91,4.63a3.07,3.07,0,0,1-2.18-.9,3.11,3.11,0,0,1-.9-2.18V.07H21V1.55A3.08,3.08,0,0,1,17.91,4.63Z" style="fill: url(#linear-gradient-2)"/>
        <path d="M10.57,4.63A3.07,3.07,0,0,1,7.5,1.55V.07h6.15V1.55A3.08,3.08,0,0,1,10.57,4.63Z" style="fill: url(#linear-gradient-3)"/>
        <path d="M3.24,4.63a3.07,3.07,0,0,1-2.18-.9,3.11,3.11,0,0,1-.9-2.18V.07H6.32V1.55A3.08,3.08,0,0,1,3.24,4.63Z" style="fill: url(#linear-gradient-4)"/>
      </g>
      <g>
        <path d="M25.17,137.28a3.09,3.09,0,0,0-3.08,3.08v1.48h6.16v-1.48A3.08,3.08,0,0,0,25.17,137.28Z" style="fill: url(#linear-gradient-5)"/>
        <path d="M17.83,137.28a3.09,3.09,0,0,0-3.07,3.08v1.48h6.15v-1.48A3.08,3.08,0,0,0,17.83,137.28Z" style="fill: url(#linear-gradient-6)"/>
        <path d="M10.5,137.28a3.09,3.09,0,0,0-3.08,3.08v1.48h6.16v-1.48A3.08,3.08,0,0,0,10.5,137.28Z" style="fill: url(#linear-gradient-7)"/>
        <path d="M3.17,137.28a3.09,3.09,0,0,0-3.08,3.08v1.48H6.25v-1.48A3.08,3.08,0,0,0,3.17,137.28Z" style="fill: url(#linear-gradient-8)"/>
      </g>
      <g>
        <path d="M11.6,3.44c.88-.51,1.33-1.33,1-1.86a1,1,0,0,0-.08-.11l.56-.28c.38-.18.78-.39,1.18-.6,1.13.55,2.27,1.09,3.14,1.47s2.29.86,2.29.86l.08-.16s-1.21-.88-2-1.37c-.55-.35-1.25-.75-2-1.17H28.32V0H.22V.22H12.73l-.1.05c-.52.28-1,.57-1.4.82l-.5.33-.23.12A2,2,0,0,0,9.39,3a.68.68,0,0,0,.09.37.84.84,0,0,0,.51.38A2.27,2.27,0,0,0,11.6,3.44Zm-1.48-.12a.34.34,0,0,1-.23-.15c-.1-.17,0-.48.29-.78A2.32,2.32,0,0,1,10.74,2,1.85,1.85,0,0,1,12,1.66l.06,0a.31.31,0,0,1,.17.12.33.33,0,0,1,0,.15A1.59,1.59,0,0,1,11.36,3,1.76,1.76,0,0,1,10.12,3.32Z" style="fill: #585856"/>
        <path d="M28.32,141.62H15.77c.75-.41,1.45-.82,2-1.17.82-.49,2-1.37,2-1.37l-.08-.16s-1.42.49-2.29.87-2,.91-3.14,1.47c-.4-.22-.8-.43-1.18-.61l-.56-.27.08-.12c.3-.53-.15-1.35-1-1.86a2.27,2.27,0,0,0-1.61-.34.84.84,0,0,0-.51.38.68.68,0,0,0-.09.37,2,2,0,0,0,1.11,1.5l.23.11c.15.11.32.21.5.33.4.25.88.54,1.4.82l.1.05H.22v.22h28.1Zm-17.58-1.73a2.32,2.32,0,0,1-.56-.44c-.28-.3-.39-.61-.29-.78a.34.34,0,0,1,.23-.15,1.81,1.81,0,0,1,1.24.28,1.58,1.58,0,0,1,.89,1.09.32.32,0,0,1,0,.14.39.39,0,0,1-.17.13l-.06,0A1.85,1.85,0,0,1,10.74,139.89Z" style="fill: #585856"/>
      </g>
      <g>
        <g>
          <path d="M16.19,45.94a.23.23,0,0,1,.23-.23h5.65V37.79H16.42a.23.23,0,1,1,0-.45h6.1v8.83h-6.1A.23.23,0,0,1,16.19,45.94Z" style="fill: #585856"/>
          <path d="M5,46.17V37.34h6.1a.23.23,0,1,1,0,.45H5.44v7.92h5.65a.23.23,0,1,1,0,.46Z" style="fill: #585856"/>
        </g>
        <g>
          <path d="M16.19,56.31a.23.23,0,0,1,.23-.23h5.65V48.16H16.42a.23.23,0,1,1,0-.45h6.1v8.82h-6.1A.22.22,0,0,1,16.19,56.31Z" style="fill: #585856"/>
          <path d="M5,56.53V47.71h6.1a.23.23,0,1,1,0,.45H5.44v7.92h5.65a.23.23,0,1,1,0,.45Z" style="fill: #585856"/>
        </g>
        <g>
          <path d="M16.63,98.91a.23.23,0,0,1,.23-.23h5.65V90.75H16.86a.23.23,0,1,1,0-.45H23v8.83h-6.1A.23.23,0,0,1,16.63,98.91Z" style="fill: #585856"/>
          <path d="M5.43,99.13V90.3h6.1a.23.23,0,1,1,0,.45H5.88v7.93h5.65a.23.23,0,1,1,0,.45Z" style="fill: #585856"/>
        </g>
      </g>
    </g>
    <g>
      <path d="M26.66,7.54H26l-2-.78a.2.2,0,0,1,0-.38l2-.77h.7a.16.16,0,0,1,.14,0,.18.18,0,0,1,.06.14.16.16,0,0,1-.06.13.17.17,0,0,1-.14.06H26l-1.49.58L26,7.16h.62a.16.16,0,0,1,.14,0,.18.18,0,0,1,.06.14.16.16,0,0,1-.06.13A.17.17,0,0,1,26.66,7.54Z" style="fill: #585856"/>
      <path d="M24.21,9.47v.69a.22.22,0,0,1-.05.14.2.2,0,0,1-.14.06.16.16,0,0,1-.13-.06.18.18,0,0,1-.06-.14V9.45a.51.51,0,0,1,.09-.28A.49.49,0,0,1,24.11,9L25,8.52a.81.81,0,0,1,.37-.09.76.76,0,0,1,.38.09l.84.44a.66.66,0,0,1,.21.2.48.48,0,0,1,.09.26v.76a.21.21,0,0,1-.19.19.18.18,0,0,1-.14-.06.16.16,0,0,1-.06-.13V9.45a.17.17,0,0,0-.1-.15l-.8-.42a.38.38,0,0,0-.22-.05.47.47,0,0,0-.24.05l-.78.41A.18.18,0,0,0,24.21,9.47Z" style="fill: #585856"/>
      <path d="M24.21,12.29V13a.22.22,0,0,1-.05.14.2.2,0,0,1-.14.06.16.16,0,0,1-.13-.06.18.18,0,0,1-.06-.14v-.71a.51.51,0,0,1,.09-.28.49.49,0,0,1,.19-.21l.86-.44a.81.81,0,0,1,.37-.09.76.76,0,0,1,.38.09l.84.44a.66.66,0,0,1,.21.2.48.48,0,0,1,.09.26V13a.21.21,0,0,1-.19.19.18.18,0,0,1-.14-.06.16.16,0,0,1-.06-.13v-.73a.17.17,0,0,0-.1-.15l-.8-.42a.38.38,0,0,0-.22,0,.47.47,0,0,0-.24,0l-.78.41A.18.18,0,0,0,24.21,12.29Z" style="fill: #585856"/>
    </g>
    <g>
      <path d="M16.85,6.65v.69a.21.21,0,0,1-.2.2.18.18,0,0,1-.13-.06.18.18,0,0,1-.06-.14V6.63a.57.57,0,0,1,.09-.29.61.61,0,0,1,.19-.2l.86-.44A.85.85,0,0,1,18,5.61a.87.87,0,0,1,.37.08l.84.45a.57.57,0,0,1,.21.2.48.48,0,0,1,.09.26v.76a.19.19,0,0,1,0,.13.19.19,0,0,1-.28,0,.16.16,0,0,1-.06-.13V6.63a.17.17,0,0,0-.1-.15l-.8-.43A.48.48,0,0,0,18,6a.41.41,0,0,0-.23.06l-.78.4A.21.21,0,0,0,16.85,6.65Z" style="fill: #585856"/>
      <path d="M19.49,8.61v1.55a.21.21,0,0,1,0,.13.19.19,0,0,1-.28,0,.16.16,0,0,1-.06-.13V9.58H16.85v.58a.16.16,0,0,1-.06.13.18.18,0,0,1-.14.06.18.18,0,0,1-.13-.06.16.16,0,0,1-.06-.13V8.61a.2.2,0,0,1,.06-.14.21.21,0,0,1,.13-.05.22.22,0,0,1,.14.05.2.2,0,0,1,.06.14V9.2H19.1V8.61a.2.2,0,0,1,.06-.14.19.19,0,0,1,.33.14Z" style="fill: #585856"/>
    </g>
    <g>
      <path d="M12.13,5.79v.75a.63.63,0,0,1-.1.29A.51.51,0,0,1,11.8,7L11,7.42a1,1,0,0,1-.44.11.9.9,0,0,1-.43-.12L9.42,7a.61.61,0,0,1-.24-.21.52.52,0,0,1-.08-.3V5.78a.17.17,0,0,1,.05-.13.18.18,0,0,1,.14-.06.16.16,0,0,1,.13.06.18.18,0,0,1,.06.13V6h2.26V5.79a.18.18,0,0,1,.06-.14.15.15,0,0,1,.13-.05.17.17,0,0,1,.14.05A.18.18,0,0,1,12.13,5.79Zm-.39.58H9.48V6.5a.2.2,0,0,0,.12.19l.76.38a.56.56,0,0,0,.24.07.6.6,0,0,0,.24,0l.78-.4a.2.2,0,0,0,.12-.2Z" style="fill: #585856"/>
      <path d="M12.13,8.61v1.55a.18.18,0,0,1-.06.13.18.18,0,0,1-.14.06.21.21,0,0,1-.19-.19V9.58H9.48v.58a.21.21,0,0,1-.19.19.18.18,0,0,1-.14-.06.15.15,0,0,1-.05-.13V8.61a.19.19,0,0,1,.05-.14.22.22,0,0,1,.14-.05.19.19,0,0,1,.13.05.2.2,0,0,1,.06.14V9.2h2.26V8.61a.2.2,0,0,1,.33-.14A.2.2,0,0,1,12.13,8.61Z" style="fill: #585856"/>
    </g>
    <g>
      <path d="M4.76,6.71v.64a.21.21,0,0,1-.19.19.18.18,0,0,1-.14-.06.18.18,0,0,1-.06-.13V6.74a.17.17,0,0,0-.08-.15L3.6,6.05A.33.33,0,0,0,3.37,6H2.31A.18.18,0,0,0,2.17,6a.16.16,0,0,0-.06.13V7a.2.2,0,0,0,.06.14.21.21,0,0,0,.13,0h.42V6.75a.18.18,0,0,1,.06-.14.15.15,0,0,1,.13-.05.19.19,0,0,1,.14.05.22.22,0,0,1,.05.14v.78H2.3a.56.56,0,0,1-.4-.17A.57.57,0,0,1,1.73,7V6.17a.58.58,0,0,1,.17-.41.56.56,0,0,1,.4-.17H3.36a.72.72,0,0,1,.49.16l.71.56a.39.39,0,0,1,.14.17A.49.49,0,0,1,4.76,6.71Z" style="fill: #585856"/>
      <path d="M4.56,10.35H1.73V9.84l2.35-1H1.92a.16.16,0,0,1-.13-.06.18.18,0,0,1-.06-.14.18.18,0,0,1,.06-.13.16.16,0,0,1,.13-.06H4.76v.51L2.41,10H4.56A.18.18,0,0,1,4.7,10a.19.19,0,0,1-.14.33Z" style="fill: #585856"/>
      <path d="M4.76,11.43v.76a.48.48,0,0,1-.1.29.53.53,0,0,1-.22.2l-.77.38a1,1,0,0,1-.43.11.9.9,0,0,1-.43-.12l-.76-.38a.58.58,0,0,1-.23-.21.53.53,0,0,1-.09-.3v-.73a.18.18,0,0,1,.06-.14.16.16,0,0,1,.13-.06.21.21,0,0,1,.2.2v.2H4.37v-.2a.2.2,0,0,1,.06-.14.24.24,0,0,1,.14,0,.19.19,0,0,1,.13,0A.2.2,0,0,1,4.76,11.43ZM4.37,12H2.11v.13a.21.21,0,0,0,.13.19l.75.38a.56.56,0,0,0,.25.07.52.52,0,0,0,.24,0l.78-.39a.24.24,0,0,0,.11-.21Z" style="fill: #585856"/>
    </g>
    <g>
      <path d="M26.62,131.14h-.7l-2-.78a.2.2,0,0,1,0-.38l2-.78h.7a.17.17,0,0,1,.14.06.18.18,0,0,1,.06.14.18.18,0,0,1-.06.13.17.17,0,0,1-.14.06H26l-1.49.58,1.49.58h.62a.17.17,0,0,1,.14.06.18.18,0,0,1,.06.14.18.18,0,0,1-.06.13A.17.17,0,0,1,26.62,131.14Z" style="fill: #585856"/>
      <path d="M24.17,133.07v.69a.22.22,0,0,1-.05.14A.18.18,0,0,1,24,134a.16.16,0,0,1-.13-.06.18.18,0,0,1-.06-.14v-.71a.57.57,0,0,1,.09-.29.53.53,0,0,1,.19-.2l.86-.44a.84.84,0,0,1,.37-.09.89.89,0,0,1,.38.08l.84.45a.57.57,0,0,1,.21.2.48.48,0,0,1,.09.26v.76a.18.18,0,0,1-.06.13.16.16,0,0,1-.13.06.2.2,0,0,1-.14-.06.18.18,0,0,1-.06-.13v-.73a.17.17,0,0,0-.1-.15l-.8-.43a.51.51,0,0,0-.46,0l-.78.4A.2.2,0,0,0,24.17,133.07Z" style="fill: #585856"/>
      <path d="M24.17,135.89v.69a.22.22,0,0,1-.05.14.18.18,0,0,1-.14.06.16.16,0,0,1-.13-.06.18.18,0,0,1-.06-.14v-.71a.57.57,0,0,1,.09-.29.53.53,0,0,1,.19-.2l.86-.44a.84.84,0,0,1,.37-.09.89.89,0,0,1,.38.08l.84.45a.57.57,0,0,1,.21.2.48.48,0,0,1,.09.26v.76a.18.18,0,0,1-.06.13.16.16,0,0,1-.13.06.2.2,0,0,1-.14-.06.18.18,0,0,1-.06-.13v-.73a.17.17,0,0,0-.1-.15l-.8-.43a.51.51,0,0,0-.46,0l-.78.4A.21.21,0,0,0,24.17,135.89Z" style="fill: #585856"/>
    </g>
    <g>
      <path d="M16.81,133.07v.69a.18.18,0,0,1-.06.14.16.16,0,0,1-.13.06.18.18,0,0,1-.14-.06.17.17,0,0,1-.05-.14v-.71a.53.53,0,0,1,.08-.29.55.55,0,0,1,.2-.2l.85-.44a.87.87,0,0,1,.75,0l.85.45a.57.57,0,0,1,.21.2.48.48,0,0,1,.09.26v.76a.18.18,0,0,1-.06.13.18.18,0,0,1-.14.06.16.16,0,0,1-.13-.06.18.18,0,0,1-.06-.13v-.73a.18.18,0,0,0-.11-.15l-.79-.43a.51.51,0,0,0-.22-.05.48.48,0,0,0-.24.06l-.78.4A.2.2,0,0,0,16.81,133.07Z" style="fill: #585856"/>
      <path d="M19.18,136.26l-.86.42a.86.86,0,0,1-.39.09.78.78,0,0,1-.37-.09l-.85-.42a.46.46,0,0,1-.28-.46.5.5,0,0,1,.07-.27.52.52,0,0,1,.21-.18l.85-.43a.75.75,0,0,1,.37-.08.83.83,0,0,1,.39.08l.86.43a.51.51,0,0,1,0,.91Zm-.2-.58-.8-.4a.51.51,0,0,0-.48,0l-.82.41a.12.12,0,0,0,0,.22l.82.42a.6.6,0,0,0,.48,0l.8-.41a.12.12,0,0,0,.09-.12A.14.14,0,0,0,19,135.68Z" style="fill: #585856"/>
    </g>
    <g>
      <path d="M12.09,132.21V133a.46.46,0,0,1-.1.29.55.55,0,0,1-.22.21l-.77.38a.94.94,0,0,1-.43.1.86.86,0,0,1-.43-.11l-.76-.38a.52.52,0,0,1-.23-.21.53.53,0,0,1-.09-.3v-.74a.18.18,0,0,1,.06-.13.16.16,0,0,1,.13-.06.2.2,0,0,1,.14.06.18.18,0,0,1,.06.13v.2H11.7v-.19a.18.18,0,0,1,.06-.14.17.17,0,0,1,.14,0,.17.17,0,0,1,.13,0A.18.18,0,0,1,12.09,132.21Zm-.39.58H9.44v.13a.19.19,0,0,0,.13.19l.75.38a.56.56,0,0,0,.25.07.59.59,0,0,0,.23-.05l.78-.4a.2.2,0,0,0,.12-.2Z" style="fill: #585856"/>
      <path d="M11.81,136.26l-.86.42a.85.85,0,0,1-.38.09.82.82,0,0,1-.38-.09l-.85-.42a.46.46,0,0,1-.28-.46.43.43,0,0,1,.08-.27.49.49,0,0,1,.2-.18l.85-.43a.94.94,0,0,1,.76,0l.86.43a.46.46,0,0,1,.28.45A.46.46,0,0,1,11.81,136.26Zm-.19-.58-.81-.4a.51.51,0,0,0-.48,0l-.81.41a.12.12,0,0,0-.08.11.14.14,0,0,0,.08.12l.81.41a.69.69,0,0,0,.24,0,.64.64,0,0,0,.24,0l.81-.41a.12.12,0,0,0,.09-.12A.14.14,0,0,0,11.62,135.68Z" style="fill: #585856"/>
    </g>
    <g>
      <path d="M4.72,130.31V131a.21.21,0,0,1,0,.13.18.18,0,0,1-.14.06.2.2,0,0,1-.14-.06.18.18,0,0,1,0-.13v-.61a.21.21,0,0,0-.09-.16l-.69-.53a.32.32,0,0,0-.23-.07H2.27a.24.24,0,0,0-.14,0,.24.24,0,0,0,0,.14v.78a.19.19,0,0,0,0,.13.2.2,0,0,0,.14.06h.41v-.4a.16.16,0,0,1,.06-.13.18.18,0,0,1,.13-.06.18.18,0,0,1,.14.06.16.16,0,0,1,.06.13v.78h-.8a.56.56,0,0,1-.41-.16.58.58,0,0,1-.17-.41v-.78a.58.58,0,0,1,.58-.58H3.33a.76.76,0,0,1,.48.15l.72.57a.61.61,0,0,1,.14.17A.59.59,0,0,1,4.72,130.31Z" style="fill: #585856"/>
      <path d="M4.53,134H1.69v-.51l2.36-1H1.88a.17.17,0,0,1-.13-.05.18.18,0,0,1-.06-.14.16.16,0,0,1,.06-.13.18.18,0,0,1,.13-.06H4.72v.51l-2.35,1H4.53a.2.2,0,0,1,.14.06.22.22,0,0,1,0,.14.19.19,0,0,1,0,.13A.2.2,0,0,1,4.53,134Z" style="fill: #585856"/>
      <path d="M4.72,135v.75a.52.52,0,0,1-.09.29.57.57,0,0,1-.23.21l-.76.38a1,1,0,0,1-.44.11.9.9,0,0,1-.43-.12L2,136.27a.66.66,0,0,1-.23-.21.53.53,0,0,1-.09-.3V135a.21.21,0,0,1,.19-.19.18.18,0,0,1,.14.06.18.18,0,0,1,.06.13v.2H4.34V135a.19.19,0,0,1,0-.14.22.22,0,0,1,.28,0A.24.24,0,0,1,4.72,135Zm-.38.58H2.08v.13a.2.2,0,0,0,.12.19l.75.38a.6.6,0,0,0,.25.07.64.64,0,0,0,.24,0l.78-.4a.2.2,0,0,0,.12-.2Z" style="fill: #585856"/>
    </g>
    <g>
      <g>
        <rect height="4.48" rx="1.3" ry="1.3" style="fill: url(#linear-gradient-9)" transform="translate(121.09 107.47) rotate(90)" width="2.63" x="5.5" y="112.04"/>
        <rect height="4.48" rx="1.3" ry="1.3" style="fill: url(#linear-gradient-10)" transform="translate(125.5 112.02) rotate(90)" width="2.63" x="5.43" y="116.52"/>
        <rect height="4.48" rx="1.3" ry="1.3" style="fill: url(#linear-gradient-11)" transform="translate(129.97 116.49) rotate(90)" width="2.63" x="5.43" y="120.99"/>
      </g>
      <g>
        <rect height="4.48" rx="1.3" ry="1.3" style="fill: url(#linear-gradient-12)" transform="translate(135.98 92.58) rotate(90)" width="2.63" x="20.39" y="112.04"/>
        <rect height="4.48" rx="1.3" ry="1.3" style="fill: url(#linear-gradient-13)" transform="translate(140.39 97.13) rotate(90)" width="2.63" x="20.32" y="116.52"/>
        <rect height="4.48" rx="1.3" ry="1.3" style="fill: url(#linear-gradient-14)" transform="translate(144.86 101.6) rotate(90)" width="2.63" x="20.32" y="120.99"/>
      </g>
      <rect height="15.79" style="fill: #d4d4d4" transform="translate(132.72 104.5) rotate(90)" width="15.66" x="6.29" y="110.72"/>
      <polygon points="21.78 111.11 8.84 111.11 6.58 113.17 6.58 126.19 6.82 126.39 21.78 126.39 21.78 111.11" style="fill: #ededee"/>
      <path d="M17.46,117q0-.16.06-.36a4.32,4.32,0,0,0,0-.89.5.5,0,0,1,.16-.23.46.46,0,0,1,.48,0,5,5,0,0,0-3.26-1.94l-.11,2.81.93.73Z" style="fill: #87909e"/>
      <path d="M13.81,115.8l0-2.25a4.64,4.64,0,0,0-3.58,1.77h1.14a.31.31,0,0,1,.2.09.37.37,0,0,1,.06.1V116h1.91a.28.28,0,0,0,.12-.08A.56.56,0,0,0,13.81,115.8Z" style="fill: #87909e"/>
      <path d="M9.49,116.54A4.79,4.79,0,0,0,9,118.7a4.73,4.73,0,0,0,.54,2.08H11.1v-4.32Z" style="fill: #87909e"/>
      <path d="M13.86,121.4a.27.27,0,0,0-.11-.14.26.26,0,0,0-.14-.05l-1.93-.08,0,.54a.2.2,0,0,1-.06.13.19.19,0,0,1-.16,0l-1.06,0,0,.08a4.45,4.45,0,0,0,3.58,1.64Z" style="fill: #87909e"/>
      <path d="M16.64,123.12a4.45,4.45,0,0,0,1.51-1.25h-.42l-.21-.21v-1.18l-.31-.28H15.52l-.69.67v2.74A4.53,4.53,0,0,0,16.64,123.12Z" style="fill: #87909e"/>
      <path d="M18.5,117.13a.9.9,0,0,1-.36.63.85.85,0,0,1-.17.08H14.41a.31.31,0,0,1-.22-.11.29.29,0,0,1,0-.14v-.76H12l-.13.07a.79.79,0,0,0-.13.13v3.1a.5.5,0,0,0,0,.14.34.34,0,0,0,.26.14h2.07v-.8a.31.31,0,0,1,.08-.15.34.34,0,0,1,.19-.1h3.5a.52.52,0,0,1,.31.1.53.53,0,0,1,.17.27l.13.47.48,0a5.08,5.08,0,0,0,.11-3.09.45.45,0,0,0-.36-.14A.4.4,0,0,0,18.5,117.13Z" style="fill: #87909e"/>
      <circle cx="15.82" cy="121.34" r="0.72" style="fill: #dbdbd7"/>
      <circle cx="15.67" cy="116.03" r="0.72" style="fill: #dbdbd7"/>
      <circle cx="12.59" cy="118.56" r="0.72" style="fill: #dbdbd7"/>
      <rect height="0.81" style="fill: #843c39;stroke: #010101;stroke-miterlimit: 10;stroke-width: 0.1px" transform="translate(131.11 105.84) rotate(90)" width="0.7" x="12.28" y="118.07"/>
      <path d="M20.61,118.63a6.41,6.41,0,1,0-6.4,6.39A6.4,6.4,0,0,0,20.61,118.63Zm-1.55-1.47a5.08,5.08,0,0,1-.11,3.09l-.48,0-.13-.47a.53.53,0,0,0-.17-.27.52.52,0,0,0-.31-.1h-3.5a.34.34,0,0,0-.19.1.31.31,0,0,0-.08.15v.8H12a.34.34,0,0,1-.26-.14.5.5,0,0,1,0-.14V117a.79.79,0,0,1,.13-.13l.13-.07h2.15v.76a.29.29,0,0,0,0,.14.31.31,0,0,0,.22.11H18a.85.85,0,0,0,.17-.08.9.9,0,0,0,.36-.63.4.4,0,0,1,.2-.11A.45.45,0,0,1,19.06,117.16ZM11.76,116h-.08v-.52a.37.37,0,0,0-.06-.1.31.31,0,0,0-.2-.09H10.28a4.64,4.64,0,0,1,3.58-1.77l0,2.25a.56.56,0,0,1-.1.15.28.28,0,0,1-.12.08Zm3.13-2.48a5,5,0,0,1,3.26,1.94.46.46,0,0,0-.48,0,.5.5,0,0,0-.16.23,4.32,4.32,0,0,1,0,.89q0,.19-.06.36l-1.75.12-.93-.73Zm-5.33,7.23A4.73,4.73,0,0,1,9,118.7a4.79,4.79,0,0,1,.47-2.16l1.61-.08v4.32Zm6-.58h1.69l.31.28v1.18l.21.21h.42a4.45,4.45,0,0,1-1.51,1.25,4.53,4.53,0,0,1-1.81.49v-2.74Zm-3.27,3.14A4.65,4.65,0,0,1,10.33,122l0-.08,1.06,0a.19.19,0,0,0,.16,0,.2.2,0,0,0,.06-.13l0-.54,1.93.08a.26.26,0,0,1,.14.05.27.27,0,0,1,.11.14l.05,2.21A4.62,4.62,0,0,1,12.25,123.34Z" style="fill: #ccc8c3"/>
      <circle cx="15.96" cy="115.75" r="0.18" style="fill: #010101"/>
      <circle cx="15.39" cy="116.18" r="0.18" style="fill: #010101"/>
      <circle cx="16.06" cy="121.09" r="0.18" style="fill: #010101"/>
      <circle cx="15.47" cy="121.56" r="0.18" style="fill: #010101"/>
      <circle cx="17.2" cy="115.16" r="0.14" style="fill: #c6b38c"/>
      <circle cx="15.96" cy="115.75" r="0.13" style="fill: #c6b38c"/>
      <circle cx="15.39" cy="116.18" r="0.13" style="fill: #c6b38c"/>
      <circle cx="13.3" cy="115.62" r="0.13" style="fill: #c6b38c"/>
      <circle cx="10.64" cy="118.75" r="0.13" style="fill: #c6b38c"/>
      <circle cx="12.65" cy="118.43" r="0.13" style="fill: #c6b38c"/>
      <circle cx="13.3" cy="121.63" r="0.13" style="fill: #c6b38c"/>
      <circle cx="16.06" cy="121.09" r="0.13" style="fill: #c6b38c"/>
      <circle cx="15.47" cy="121.56" r="0.13" style="fill: #c6b38c"/>
      <circle cx="17.2" cy="122.14" r="0.13" style="fill: #c6b38c"/>
      <line style="fill: none;stroke: #c6b38c;stroke-miterlimit: 10;stroke-width: 0.045354329049587px" x1="17.14" x2="16.05" y1="115.17" y2="115.8"/>
      <polyline points="15.36 116.15 14.97 115.92 13.35 115.68" style="fill: none;stroke: #c6b38c;stroke-miterlimit: 10;stroke-width: 0.045354329049587px"/>
      <line style="fill: none;stroke: #c6b38c;stroke-miterlimit: 10;stroke-width: 0.045354329049587px" x1="12.59" x2="10.67" y1="118.45" y2="118.78"/>
      <line style="fill: none;stroke: #c6b38c;stroke-miterlimit: 10;stroke-width: 0.030047243461013px" x1="12.65" x2="12.43" y1="118.43" y2="118.21"/>
      <line style="fill: none;stroke: #c6b38c;stroke-miterlimit: 10;stroke-width: 0.030047243461013px" x1="12.68" x2="12.87" y1="118.49" y2="118.68"/>
      <polyline points="12.65 118.46 12.41 118.7 12.9 118.21" style="fill: none;stroke: #c6b38c;stroke-miterlimit: 10;stroke-width: 0.030047243461013px"/>
      <polyline points="15.45 121.6 13.35 121.66 15.49 121.56" style="fill: none;stroke: #c6b38c;stroke-miterlimit: 10;stroke-width: 0.045354329049587px"/>
      <line style="fill: none;stroke: #c6b38c;stroke-miterlimit: 10;stroke-width: 0.045354329049587px" x1="17.2" x2="16.09" y1="122.12" y2="121.04"/>
    </g>
    <g>
      <g>
        <rect height="4.48" rx="1.3" ry="1.3" style="fill: url(#linear-gradient-15)" transform="translate(73.26 59.64) rotate(90)" width="2.63" x="5.5" y="64.21"/>
        <rect height="4.48" rx="1.3" ry="1.3" style="fill: url(#linear-gradient-16)" transform="translate(77.66 64.18) rotate(90)" width="2.63" x="5.43" y="68.68"/>
        <rect height="4.48" rx="1.3" ry="1.3" style="fill: url(#linear-gradient-17)" transform="translate(82.14 68.66) rotate(90)" width="2.63" x="5.43" y="73.16"/>
      </g>
      <g>
        <rect height="4.48" rx="1.3" ry="1.3" style="fill: url(#linear-gradient-18)" transform="translate(88.15 44.75) rotate(90)" width="2.63" x="20.39" y="64.21"/>
        <rect height="4.48" rx="1.3" ry="1.3" style="fill: url(#linear-gradient-19)" transform="translate(92.55 49.29) rotate(90)" width="2.63" x="20.32" y="68.68"/>
        <rect height="4.48" rx="1.3" ry="1.3" style="fill: url(#linear-gradient-20)" transform="translate(97.03 53.77) rotate(90)" width="2.63" x="20.32" y="73.16"/>
      </g>
      <rect height="15.79" style="fill: #d4d4d4" transform="translate(84.89 56.66) rotate(90)" width="15.66" x="6.29" y="62.88"/>
      <polygon points="21.78 63.27 8.84 63.27 6.58 65.33 6.58 78.36 6.82 78.55 21.78 78.55 21.78 63.27" style="fill: #ededee"/>
      <path d="M17.46,69.13l.06-.35a4.43,4.43,0,0,0,0-.9.44.44,0,0,1,.16-.22.42.42,0,0,1,.48,0,5,5,0,0,0-3.26-1.94l-.11,2.8.93.74Z" style="fill: #87909e"/>
      <path d="M13.81,68l0-2.25a4.54,4.54,0,0,0-2,.47,4.74,4.74,0,0,0-1.59,1.3h1.14a.28.28,0,0,1,.2.08.41.41,0,0,1,.06.11v.52h1.91a.42.42,0,0,0,.12-.08A.77.77,0,0,0,13.81,68Z" style="fill: #87909e"/>
      <path d="M9.49,68.7A4.82,4.82,0,0,0,9,70.86a4.73,4.73,0,0,0,.54,2.08H11.1V68.62Z" style="fill: #87909e"/>
      <path d="M13.86,73.57a.25.25,0,0,0-.11-.15.33.33,0,0,0-.14,0l-1.93-.09,0,.55a.18.18,0,0,1-.06.12.21.21,0,0,1-.16.05l-1.06,0,0,.07a4.56,4.56,0,0,0,1.92,1.37,4.41,4.41,0,0,0,1.66.27Z" style="fill: #87909e"/>
      <path d="M16.64,75.29A4.46,4.46,0,0,0,18.15,74h-.42l-.21-.21V72.65l-.31-.28H15.52l-.69.66v2.74A4.48,4.48,0,0,0,16.64,75.29Z" style="fill: #87909e"/>
      <path d="M18.5,69.29a.86.86,0,0,1-.36.63A.51.51,0,0,1,18,70H14.41a.28.28,0,0,1-.22-.1.29.29,0,0,1,0-.15V69H12a.28.28,0,0,0-.13.07.79.79,0,0,0-.13.12v3.1a.44.44,0,0,0,0,.14.33.33,0,0,0,.26.15h2.07v-.81a.3.3,0,0,1,.27-.24h3.5a.52.52,0,0,1,.31.1.53.53,0,0,1,.17.27l.13.47.48,0a5,5,0,0,0,.28-1.27,5.09,5.09,0,0,0-.17-1.81.45.45,0,0,0-.36-.14A.34.34,0,0,0,18.5,69.29Z" style="fill: #87909e"/>
      <circle cx="15.82" cy="73.51" r="0.72" style="fill: #dbdbd7"/>
      <circle cx="15.67" cy="68.2" r="0.72" style="fill: #dbdbd7"/>
      <circle cx="12.59" cy="70.73" r="0.72" style="fill: #dbdbd7"/>
      <rect height="0.81" style="fill: #843c39;stroke: #010101;stroke-miterlimit: 10;stroke-width: 0.1px" transform="translate(83.28 58) rotate(90)" width="0.7" x="12.28" y="70.23"/>
      <path d="M20.61,70.79a6.41,6.41,0,1,0-6.4,6.4A6.41,6.41,0,0,0,20.61,70.79Zm-1.55-1.46a5.09,5.09,0,0,1,.17,1.81A5,5,0,0,1,19,72.41l-.48,0-.13-.47a.53.53,0,0,0-.17-.27.52.52,0,0,0-.31-.1h-3.5a.3.3,0,0,0-.27.24v.81H12a.33.33,0,0,1-.26-.15.44.44,0,0,1,0-.14v-3.1a.79.79,0,0,1,.13-.12A.28.28,0,0,1,12,69h2.15v.75a.29.29,0,0,0,0,.15.28.28,0,0,0,.22.1H18a.51.51,0,0,0,.17-.08.86.86,0,0,0,.36-.63.34.34,0,0,1,.2-.1A.45.45,0,0,1,19.06,69.33Zm-7.3-1.13h-.08v-.52a.41.41,0,0,0-.06-.11.28.28,0,0,0-.2-.08H10.28a4.74,4.74,0,0,1,1.59-1.3,4.54,4.54,0,0,1,2-.47l0,2.25a.77.77,0,0,1-.1.15.42.42,0,0,1-.12.08Zm3.13-2.48a5,5,0,0,1,3.26,1.94.42.42,0,0,0-.48,0,.44.44,0,0,0-.16.22,4.43,4.43,0,0,1,0,.9l-.06.35-1.75.13-.93-.74ZM9.56,72.94A4.73,4.73,0,0,1,9,70.86a4.82,4.82,0,0,1,.47-2.16l1.61-.08v4.32Zm6-.57h1.69l.31.28v1.17l.21.21h.42a4.44,4.44,0,0,1-3.32,1.74V73ZM12.25,75.5a4.56,4.56,0,0,1-1.92-1.37l0-.07,1.06,0a.21.21,0,0,0,.16-.05.18.18,0,0,0,.06-.12l0-.55,1.93.09a.33.33,0,0,1,.14,0,.25.25,0,0,1,.11.15l.05,2.2A4.41,4.41,0,0,1,12.25,75.5Z" style="fill: #ccc8c3"/>
      <circle cx="15.96" cy="67.92" r="0.18" style="fill: #010101"/>
      <circle cx="15.39" cy="68.35" r="0.18" style="fill: #010101"/>
      <circle cx="16.06" cy="73.26" r="0.18" style="fill: #010101"/>
      <circle cx="15.47" cy="73.73" r="0.18" style="fill: #010101"/>
      <circle cx="17.2" cy="67.32" r="0.14" style="fill: #c6b38c"/>
      <circle cx="15.96" cy="67.92" r="0.13" style="fill: #c6b38c"/>
      <circle cx="15.39" cy="68.35" r="0.13" style="fill: #c6b38c"/>
      <circle cx="13.3" cy="67.79" r="0.13" style="fill: #c6b38c"/>
      <circle cx="10.64" cy="70.91" r="0.13" style="fill: #c6b38c"/>
      <circle cx="12.65" cy="70.6" r="0.13" style="fill: #c6b38c"/>
      <circle cx="13.3" cy="73.8" r="0.13" style="fill: #c6b38c"/>
      <circle cx="16.06" cy="73.26" r="0.13" style="fill: #c6b38c"/>
      <circle cx="15.47" cy="73.73" r="0.13" style="fill: #c6b38c"/>
      <circle cx="17.2" cy="74.3" r="0.13" style="fill: #c6b38c"/>
      <line style="fill: none;stroke: #c6b38c;stroke-miterlimit: 10;stroke-width: 0.045354329049587px" x1="17.14" x2="16.05" y1="67.34" y2="67.97"/>
      <polyline points="15.36 68.32 14.97 68.08 13.35 67.84" style="fill: none;stroke: #c6b38c;stroke-miterlimit: 10;stroke-width: 0.045354329049587px"/>
      <line style="fill: none;stroke: #c6b38c;stroke-miterlimit: 10;stroke-width: 0.045354329049587px" x1="12.59" x2="10.67" y1="70.62" y2="70.95"/>
      <line style="fill: none;stroke: #c6b38c;stroke-miterlimit: 10;stroke-width: 0.030047243461013px" x1="12.65" x2="12.43" y1="70.6" y2="70.37"/>
      <line style="fill: none;stroke: #c6b38c;stroke-miterlimit: 10;stroke-width: 0.030047243461013px" x1="12.68" x2="12.87" y1="70.65" y2="70.85"/>
      <polyline points="12.65 70.62 12.41 70.87 12.9 70.38" style="fill: none;stroke: #c6b38c;stroke-miterlimit: 10;stroke-width: 0.030047243461013px"/>
      <polyline points="15.45 73.77 13.35 73.82 15.49 73.73" style="fill: none;stroke: #c6b38c;stroke-miterlimit: 10;stroke-width: 0.045354329049587px"/>
      <line style="fill: none;stroke: #c6b38c;stroke-miterlimit: 10;stroke-width: 0.045354329049587px" x1="17.2" x2="16.09" y1="74.28" y2="73.21"/>
    </g>
    <g>
      <g>
        <rect height="4.48" rx="1.3" ry="1.3" style="fill: url(#linear-gradient-21)" transform="translate(25.52 11.91) rotate(90)" width="2.63" x="5.5" y="16.48"/>
        <rect height="4.48" rx="1.3" ry="1.3" style="fill: url(#linear-gradient-22)" transform="translate(29.93 16.45) rotate(90)" width="2.63" x="5.43" y="20.95"/>
        <rect height="4.48" rx="1.3" ry="1.3" style="fill: url(#linear-gradient-23)" transform="translate(34.4 20.93) rotate(90)" width="2.63" x="5.43" y="25.43"/>
      </g>
      <g>
        <rect height="4.48" rx="1.3" ry="1.3" style="fill: url(#linear-gradient-24)" transform="translate(40.42 -2.99) rotate(90)" width="2.63" x="20.39" y="16.48"/>
        <rect height="4.48" rx="1.3" ry="1.3" style="fill: url(#linear-gradient-25)" transform="translate(44.82 1.56) rotate(90)" width="2.63" x="20.32" y="20.95"/>
        <rect height="4.48" rx="1.3" ry="1.3" style="fill: url(#linear-gradient-26)" transform="translate(49.3 6.03) rotate(90)" width="2.63" x="20.32" y="25.43"/>
      </g>
      <rect height="15.79" style="fill: #d4d4d4" transform="translate(37.15 8.93) rotate(90)" width="15.66" x="6.29" y="15.15"/>
      <polygon points="21.78 15.54 8.84 15.54 6.58 17.6 6.58 30.63 6.82 30.82 21.78 30.82 21.78 15.54" style="fill: #ededee"/>
      <path d="M17.46,21.4q0-.16.06-.36a4.33,4.33,0,0,0,0-.89.5.5,0,0,1,.16-.23.46.46,0,0,1,.48,0,5,5,0,0,0-1.34-1.22A5.08,5.08,0,0,0,14.89,18l-.11,2.81.93.74Z" style="fill: #87909e"/>
      <path d="M13.81,20.24l0-2.26a4.74,4.74,0,0,0-2,.48,4.63,4.63,0,0,0-1.59,1.3h1.14a.28.28,0,0,1,.2.08.64.64,0,0,1,.06.1v.52h1.91a.28.28,0,0,0,.12-.08A.76.76,0,0,0,13.81,20.24Z" style="fill: #87909e"/>
      <path d="M9.49,21A4.82,4.82,0,0,0,9,23.13a4.73,4.73,0,0,0,.54,2.08H11.1V20.89Z" style="fill: #87909e"/>
      <path d="M13.86,25.83a.27.27,0,0,0-.11-.14.23.23,0,0,0-.14,0l-1.93-.09,0,.55a.21.21,0,0,1-.06.12.19.19,0,0,1-.16,0l-1.06.05,0,.08a4.65,4.65,0,0,0,1.92,1.37,4.41,4.41,0,0,0,1.66.27Z" style="fill: #87909e"/>
      <path d="M16.64,27.56a4.57,4.57,0,0,0,1.51-1.26h-.42l-.21-.21V24.92l-.31-.29H15.52l-.69.67V28A4.48,4.48,0,0,0,16.64,27.56Z" style="fill: #87909e"/>
      <path d="M18.5,21.56a.88.88,0,0,1-.36.63.85.85,0,0,1-.17.08H14.41a.27.27,0,0,1-.22-.11.24.24,0,0,1,0-.14v-.76H12a.46.46,0,0,0-.13.08.51.51,0,0,0-.13.12v3.1a.5.5,0,0,0,0,.14.34.34,0,0,0,.26.14h2.07V24a.31.31,0,0,1,.08-.15.26.26,0,0,1,.19-.09h3.5a.4.4,0,0,1,.31.1.48.48,0,0,1,.17.26l.13.47.48.05a5.06,5.06,0,0,0,.11-3.08.39.39,0,0,0-.36-.14A.34.34,0,0,0,18.5,21.56Z" style="fill: #87909e"/>
      <circle cx="15.82" cy="25.77" r="0.72" style="fill: #dbdbd7"/>
      <circle cx="15.67" cy="20.46" r="0.72" style="fill: #dbdbd7"/>
      <circle cx="12.59" cy="23" r="0.72" style="fill: #dbdbd7"/>
      <rect height="0.81" style="fill: #843c39;stroke: #010101;stroke-miterlimit: 10;stroke-width: 0.1px" transform="translate(35.54 10.27) rotate(90)" width="0.7" x="12.28" y="22.5"/>
      <path d="M20.61,23.06a6.41,6.41,0,1,0-6.4,6.4A6.4,6.4,0,0,0,20.61,23.06ZM19.06,21.6A5.06,5.06,0,0,1,19,24.68l-.48-.05-.13-.47a.48.48,0,0,0-.17-.26.4.4,0,0,0-.31-.1h-3.5a.26.26,0,0,0-.19.09.31.31,0,0,0-.08.15v.8H12a.34.34,0,0,1-.26-.14.5.5,0,0,1,0-.14v-3.1a.51.51,0,0,1,.13-.12.46.46,0,0,1,.13-.08h2.15V22a.24.24,0,0,0,0,.14.27.27,0,0,0,.22.11H18a.85.85,0,0,0,.17-.08.88.88,0,0,0,.36-.63.34.34,0,0,1,.2-.1A.39.39,0,0,1,19.06,21.6Zm-7.3-1.14h-.08v-.52a.64.64,0,0,0-.06-.1.28.28,0,0,0-.2-.08H10.28a4.63,4.63,0,0,1,1.59-1.3,4.74,4.74,0,0,1,2-.48l0,2.26a.76.76,0,0,1-.1.14.28.28,0,0,1-.12.08ZM14.89,18a5.08,5.08,0,0,1,1.92.72,5,5,0,0,1,1.34,1.22.46.46,0,0,0-.48,0,.5.5,0,0,0-.16.23,4.33,4.33,0,0,1,0,.89q0,.2-.06.36l-1.75.13-.93-.74ZM9.56,25.21A4.73,4.73,0,0,1,9,23.13,4.82,4.82,0,0,1,9.49,21l1.61-.08v4.32Zm6-.58h1.69l.31.29v1.17l.21.21h.42a4.57,4.57,0,0,1-1.51,1.26,4.48,4.48,0,0,1-1.81.48V25.3Zm-3.27,3.14a4.65,4.65,0,0,1-1.92-1.37l0-.08,1.06-.05a.19.19,0,0,0,.16,0,.21.21,0,0,0,.06-.12l0-.55,1.93.09a.23.23,0,0,1,.14,0,.27.27,0,0,1,.11.14L13.91,28A4.41,4.41,0,0,1,12.25,27.77Z" style="fill: #ccc8c3"/>
      <circle cx="15.96" cy="20.19" r="0.18" style="fill: #010101"/>
      <circle cx="15.39" cy="20.62" r="0.18" style="fill: #010101"/>
      <circle cx="16.06" cy="25.52" r="0.18" style="fill: #010101"/>
      <circle cx="15.47" cy="26" r="0.18" style="fill: #010101"/>
      <circle cx="17.2" cy="19.59" r="0.14" style="fill: #c6b38c"/>
      <circle cx="15.96" cy="20.19" r="0.13" style="fill: #c6b38c"/>
      <circle cx="15.39" cy="20.62" r="0.13" style="fill: #c6b38c"/>
      <circle cx="13.3" cy="20.05" r="0.13" style="fill: #c6b38c"/>
      <circle cx="10.64" cy="23.18" r="0.13" style="fill: #c6b38c"/>
      <circle cx="12.65" cy="22.86" r="0.13" style="fill: #c6b38c"/>
      <circle cx="13.3" cy="26.06" r="0.13" style="fill: #c6b38c"/>
      <circle cx="16.06" cy="25.52" r="0.13" style="fill: #c6b38c"/>
      <circle cx="15.47" cy="26" r="0.13" style="fill: #c6b38c"/>
      <circle cx="17.2" cy="26.57" r="0.13" style="fill: #c6b38c"/>
      <line style="fill: none;stroke: #c6b38c;stroke-miterlimit: 10;stroke-width: 0.045354329049587px" x1="17.14" x2="16.05" y1="19.61" y2="20.23"/>
      <polyline points="15.36 20.59 14.97 20.35 13.35 20.11" style="fill: none;stroke: #c6b38c;stroke-miterlimit: 10;stroke-width: 0.045354329049587px"/>
      <line style="fill: none;stroke: #c6b38c;stroke-miterlimit: 10;stroke-width: 0.045354329049587px" x1="12.59" x2="10.67" y1="22.88" y2="23.21"/>
      <line style="fill: none;stroke: #c6b38c;stroke-miterlimit: 10;stroke-width: 0.030047243461013px" x1="12.65" x2="12.43" y1="22.86" y2="22.64"/>
      <line style="fill: none;stroke: #c6b38c;stroke-miterlimit: 10;stroke-width: 0.030047243461013px" x1="12.68" x2="12.87" y1="22.92" y2="23.12"/>
      <polyline points="12.65 22.89 12.41 23.14 12.9 22.65" style="fill: none;stroke: #c6b38c;stroke-miterlimit: 10;stroke-width: 0.030047243461013px"/>
      <polyline points="15.45 26.04 13.35 26.09 15.49 26" style="fill: none;stroke: #c6b38c;stroke-miterlimit: 10;stroke-width: 0.045354329049587px"/>
      <line style="fill: none;stroke: #c6b38c;stroke-miterlimit: 10;stroke-width: 0.045354329049587px" x1="17.2" x2="16.09" y1="26.55" y2="25.47"/>
    </g>
    <g>
      <rect height="141.84" style="fill: #c7c6c5" width="28.1" x="0.13" y="141.76"/>
      <rect height="141.84" style="fill: #ededee" width="27.84" x="0.26" y="141.76"/>
      <g>
        <g>
          <path d="M6.18,253.05v-2h16v2.1a.23.23,0,1,1-.45,0v-1.65H6.63v1.5a.22.22,0,0,1-.23.22A.22.22,0,0,1,6.18,253.05Z" style="fill: #585856"/>
          <path d="M6.18,269.59v-1.95a.22.22,0,0,1,.22-.22.22.22,0,0,1,.23.22v1.5h15.1v-1.65a.23.23,0,1,1,.45,0v2.1Z" style="fill: #585856"/>
        </g>
        <g>
          <path d="M6.18,205.27v-2h16v2.1a.23.23,0,1,1-.45,0v-1.65H6.63v1.5a.22.22,0,0,1-.23.22A.22.22,0,0,1,6.18,205.27Z" style="fill: #585856"/>
          <path d="M6.18,221.8v-1.94a.23.23,0,1,1,.45,0v1.49h15.1V219.7a.22.22,0,0,1,.22-.22.22.22,0,0,1,.23.22v2.1Z" style="fill: #585856"/>
        </g>
        <g>
          <path d="M6.18,157.48v-1.94h16v2.1a.22.22,0,0,1-.23.22.22.22,0,0,1-.22-.22V156H6.63v1.49a.23.23,0,1,1-.45,0Z" style="fill: #585856"/>
          <path d="M6.18,174v-1.94a.23.23,0,1,1,.45,0v1.49h15.1v-1.65a.22.22,0,0,1,.22-.22.22.22,0,0,1,.23.22V174Z" style="fill: #585856"/>
        </g>
      </g>
      <g>
        <path d="M25.15,146.4a3.09,3.09,0,0,1-3.08-3.08v-1.48h6.16v1.48A3.08,3.08,0,0,1,25.15,146.4Z" style="fill: url(#linear-gradient-27)"/>
        <path d="M17.82,146.4a3.08,3.08,0,0,1-2.18-.91,3,3,0,0,1-.9-2.17v-1.48H20.9v1.48A3.08,3.08,0,0,1,17.82,146.4Z" style="fill: url(#linear-gradient-28)"/>
        <path d="M10.48,146.4a3.07,3.07,0,0,1-2.17-.91,3,3,0,0,1-.91-2.17v-1.48h6.16v1.48A3.08,3.08,0,0,1,10.48,146.4Z" style="fill: url(#linear-gradient-29)"/>
        <path d="M3.15,146.4a3.09,3.09,0,0,1-3.08-3.08v-1.48H6.23v1.48A3.08,3.08,0,0,1,3.15,146.4Z" style="fill: url(#linear-gradient-30)"/>
      </g>
      <g>
        <path d="M25.08,279.05A3.07,3.07,0,0,0,22,282.13v1.48h6.15v-1.48A3.07,3.07,0,0,0,25.08,279.05Z" style="fill: url(#linear-gradient-31)"/>
        <path d="M17.74,279.05a3.09,3.09,0,0,0-3.08,3.08v1.48h6.16v-1.48A3.08,3.08,0,0,0,17.74,279.05Z" style="fill: url(#linear-gradient-32)"/>
        <path d="M10.41,279.05a3.07,3.07,0,0,0-2.18.9,3.11,3.11,0,0,0-.9,2.18v1.48h6.16v-1.48A3.08,3.08,0,0,0,10.41,279.05Z" style="fill: url(#linear-gradient-33)"/>
        <path d="M3.08,279.05A3.07,3.07,0,0,0,.9,280a3.11,3.11,0,0,0-.9,2.18v1.48H6.16v-1.48A3.08,3.08,0,0,0,3.08,279.05Z" style="fill: url(#linear-gradient-34)"/>
      </g>
      <g>
        <path d="M11.51,145.21c.88-.51,1.33-1.33,1-1.87l-.09-.11L13,143l1.18-.61c1.13.56,2.27,1.09,3.14,1.47s2.29.86,2.29.86l.08-.15s-1.21-.88-2-1.38c-.56-.34-1.25-.75-2-1.17H28.23v-.22H.13V142h12.5l-.09.05c-.52.29-1,.57-1.4.82l-.5.33-.23.12a2,2,0,0,0-1.12,1.49.72.72,0,0,0,.1.38.79.79,0,0,0,.51.37A2.21,2.21,0,0,0,11.51,145.21ZM10,145.09a.35.35,0,0,1-.22-.16c-.1-.17,0-.47.29-.78a2.6,2.6,0,0,1,.56-.44,1.77,1.77,0,0,1,1.25-.28l.06,0a.33.33,0,0,1,.17.13.32.32,0,0,1,0,.14,1.57,1.57,0,0,1-.89,1.08A1.84,1.84,0,0,1,10,145.09Z" style="fill: #585856"/>
        <path d="M28.23,283.39H15.68c.75-.42,1.44-.83,2-1.17.82-.5,2-1.38,2-1.38l-.08-.15s-1.42.49-2.29.86-2,.91-3.14,1.47L13,282.41l-.57-.27a.48.48,0,0,0,.09-.11c.3-.54-.15-1.36-1-1.87a2.21,2.21,0,0,0-1.61-.33.79.79,0,0,0-.51.37.72.72,0,0,0-.1.38,2,2,0,0,0,1.12,1.49l.23.12.5.33c.4.25.88.53,1.4.82l.09.05H.13v.22h28.1Zm-17.58-1.73a2.6,2.6,0,0,1-.56-.44c-.28-.3-.39-.61-.29-.78a.39.39,0,0,1,.22-.16,1.84,1.84,0,0,1,1.25.29,1.57,1.57,0,0,1,.89,1.08.32.32,0,0,1,0,.14.33.33,0,0,1-.17.13l-.06,0A1.77,1.77,0,0,1,10.65,281.66Z" style="fill: #585856"/>
      </g>
      <g>
        <g>
          <path d="M16.1,187.7a.22.22,0,0,1,.23-.22H22v-7.93H16.33a.23.23,0,1,1,0-.45h6.1v8.83h-6.1A.23.23,0,0,1,16.1,187.7Z" style="fill: #585856"/>
          <path d="M4.9,187.93V179.1H11a.23.23,0,1,1,0,.45H5.35v7.93H11a.23.23,0,1,1,0,.45Z" style="fill: #585856"/>
        </g>
        <g>
          <path d="M16.1,198.07a.22.22,0,0,1,.23-.22H22v-7.93H16.33a.23.23,0,1,1,0-.45h6.1v8.83h-6.1A.23.23,0,0,1,16.1,198.07Z" style="fill: #585856"/>
          <path d="M4.9,198.3v-8.83H11a.23.23,0,1,1,0,.45H5.35v7.93H11a.23.23,0,1,1,0,.45Z" style="fill: #585856"/>
        </g>
        <g>
          <path d="M16.54,240.67a.23.23,0,0,1,.23-.23h5.65v-7.92H16.77a.23.23,0,1,1,0-.45h6.1v8.83h-6.1A.23.23,0,0,1,16.54,240.67Z" style="fill: #585856"/>
          <path d="M5.34,240.9v-8.83h6.1a.23.23,0,1,1,0,.45H5.79v7.92h5.65a.23.23,0,0,1,0,.46Z" style="fill: #585856"/>
        </g>
      </g>
    </g>
    <g>
      <g>
        <rect height="4.48" rx="1.3" ry="1.3" style="fill: url(#linear-gradient-35)" transform="translate(262.77 249.33) rotate(90)" width="2.63" x="5.41" y="253.81"/>
        <rect height="4.48" rx="1.3" ry="1.3" style="fill: url(#linear-gradient-36)" transform="translate(267.17 253.87) rotate(90)" width="2.63" x="5.34" y="258.28"/>
        <rect height="4.48" rx="1.3" ry="1.3" style="fill: url(#linear-gradient-37)" transform="translate(271.65 258.35) rotate(90)" width="2.63" x="5.34" y="262.76"/>
      </g>
      <g>
        <rect height="4.48" rx="1.3" ry="1.3" style="fill: url(#linear-gradient-38)" transform="translate(277.66 234.44) rotate(90)" width="2.63" x="20.3" y="253.81"/>
        <rect height="4.48" rx="1.3" ry="1.3" style="fill: url(#linear-gradient-39)" transform="translate(282.06 238.98) rotate(90)" width="2.63" x="20.23" y="258.28"/>
        <rect height="4.48" rx="1.3" ry="1.3" style="fill: url(#linear-gradient-40)" transform="translate(286.54 243.46) rotate(90)" width="2.63" x="20.23" y="262.76"/>
      </g>
      <rect height="15.79" style="fill: #d4d4d4" transform="translate(274.4 246.35) rotate(90)" width="15.66" x="6.19" y="252.48"/>
      <polygon points="21.69 252.87 8.74 252.87 6.49 254.93 6.49 267.96 6.73 268.15 21.69 268.15 21.69 252.87" style="fill: #ededee"/>
      <path d="M17.37,258.73l.06-.35a4.43,4.43,0,0,0,0-.9.43.43,0,0,1,.16-.23.46.46,0,0,1,.48,0A5,5,0,0,0,16.72,256a4.86,4.86,0,0,0-1.92-.71l-.11,2.8.92.74Z" style="fill: #87909e"/>
      <path d="M13.72,257.57l0-2.25a4.54,4.54,0,0,0-2,.47,4.63,4.63,0,0,0-1.59,1.3h1.14a.28.28,0,0,1,.2.08.41.41,0,0,1,.06.11v.52H13.5l.12-.09A.53.53,0,0,0,13.72,257.57Z" style="fill: #87909e"/>
      <path d="M9.4,258.3a4.82,4.82,0,0,0-.47,2.16,4.6,4.6,0,0,0,.54,2.08H11v-4.32Z" style="fill: #87909e"/>
      <path d="M13.77,263.17a.28.28,0,0,0-.12-.15.27.27,0,0,0-.13,0l-1.93-.09,0,.55a.21.21,0,0,1-.06.12.16.16,0,0,1-.16,0l-1.06,0,0,.08a4.56,4.56,0,0,0,1.92,1.37,4.41,4.41,0,0,0,1.66.27Z" style="fill: #87909e"/>
      <path d="M16.55,264.89a4.57,4.57,0,0,0,1.51-1.26h-.42l-.21-.21v-1.17l-.31-.29H15.43l-.69.67v2.74A4.48,4.48,0,0,0,16.55,264.89Z" style="fill: #87909e"/>
      <path d="M18.41,258.89a.94.94,0,0,1-.36.63.85.85,0,0,1-.17.08H14.32a.27.27,0,0,1-.22-.1.29.29,0,0,1,0-.15v-.76H11.9a.46.46,0,0,0-.13.08.79.79,0,0,0-.13.12v3.1a.27.27,0,0,0,0,.14.33.33,0,0,0,.26.14H14v-.8a.24.24,0,0,1,.08-.15.31.31,0,0,1,.19-.09h3.5a.45.45,0,0,1,.31.1.56.56,0,0,1,.17.26l.13.47.47.05a4.59,4.59,0,0,0,.29-1.27,5.09,5.09,0,0,0-.17-1.81.4.4,0,0,0-.36-.14A.34.34,0,0,0,18.41,258.89Z" style="fill: #87909e"/>
      <circle cx="15.73" cy="263.1" r="0.72" style="fill: #dbdbd7"/>
      <circle cx="15.58" cy="257.8" r="0.72" style="fill: #dbdbd7"/>
      <circle cx="12.5" cy="260.33" r="0.72" style="fill: #dbdbd7"/>
      <rect height="0.81" style="fill: #843c39;stroke: #010101;stroke-miterlimit: 10;stroke-width: 0.1px" transform="translate(272.78 247.69) rotate(90)" width="0.7" x="12.19" y="259.83"/>
      <path d="M20.52,260.39a6.41,6.41,0,1,0-6.41,6.4A6.41,6.41,0,0,0,20.52,260.39ZM19,258.93a5.09,5.09,0,0,1,.17,1.81,4.59,4.59,0,0,1-.29,1.27l-.47-.05-.13-.47a.56.56,0,0,0-.17-.26.45.45,0,0,0-.31-.1h-3.5a.31.31,0,0,0-.19.09.24.24,0,0,0-.08.15v.8H11.93a.33.33,0,0,1-.26-.14.27.27,0,0,1,0-.14v-3.1a.79.79,0,0,1,.13-.12.46.46,0,0,1,.13-.08h2.15v.76a.29.29,0,0,0,0,.15.27.27,0,0,0,.22.1h3.56a.85.85,0,0,0,.17-.08.94.94,0,0,0,.36-.63.34.34,0,0,1,.2-.1A.4.4,0,0,1,19,258.93Zm-7.3-1.13h-.08v-.52a.41.41,0,0,0-.06-.11.28.28,0,0,0-.2-.08H10.19a4.63,4.63,0,0,1,1.59-1.3,4.54,4.54,0,0,1,2-.47l0,2.25a.53.53,0,0,1-.1.14l-.12.09Zm3.13-2.48a4.86,4.86,0,0,1,1.92.71,5,5,0,0,1,1.34,1.22.46.46,0,0,0-.48,0,.43.43,0,0,0-.16.23,4.43,4.43,0,0,1,0,.9l-.06.35-1.76.13-.92-.74Zm-5.33,7.22a4.6,4.6,0,0,1-.54-2.08,4.82,4.82,0,0,1,.47-2.16l1.61-.08v4.32Zm6-.58h1.69l.31.29v1.17l.21.21h.42a4.57,4.57,0,0,1-1.51,1.26,4.48,4.48,0,0,1-1.81.48v-2.74Zm-3.27,3.14a4.56,4.56,0,0,1-1.92-1.37l0-.08,1.06,0a.16.16,0,0,0,.16,0,.21.21,0,0,0,.06-.12l0-.55,1.93.09a.27.27,0,0,1,.13,0,.28.28,0,0,1,.12.15l.05,2.2A4.41,4.41,0,0,1,12.16,265.1Z" style="fill: #ccc8c3"/>
      <circle cx="15.87" cy="257.52" r="0.18" style="fill: #010101"/>
      <circle cx="15.3" cy="257.95" r="0.18" style="fill: #010101"/>
      <circle cx="15.97" cy="262.86" r="0.18" style="fill: #010101"/>
      <circle cx="15.38" cy="263.33" r="0.18" style="fill: #010101"/>
      <circle cx="17.11" cy="256.92" r="0.14" style="fill: #c6b38c"/>
      <circle cx="15.87" cy="257.52" r="0.13" style="fill: #c6b38c"/>
      <circle cx="15.3" cy="257.95" r="0.13" style="fill: #c6b38c"/>
      <circle cx="13.21" cy="257.39" r="0.13" style="fill: #c6b38c"/>
      <circle cx="10.55" cy="260.51" r="0.13" style="fill: #c6b38c"/>
      <circle cx="12.56" cy="260.2" r="0.13" style="fill: #c6b38c"/>
      <circle cx="13.21" cy="263.4" r="0.13" style="fill: #c6b38c"/>
      <circle cx="15.97" cy="262.86" r="0.13" style="fill: #c6b38c"/>
      <circle cx="15.38" cy="263.33" r="0.13" style="fill: #c6b38c"/>
      <circle cx="17.11" cy="263.9" r="0.13" style="fill: #c6b38c"/>
      <line style="fill: none;stroke: #c6b38c;stroke-miterlimit: 10;stroke-width: 0.045354329049587px" x1="17.05" x2="15.96" y1="256.94" y2="257.56"/>
      <polyline points="15.27 257.92 14.88 257.68 13.26 257.44" style="fill: none;stroke: #c6b38c;stroke-miterlimit: 10;stroke-width: 0.045354329049587px"/>
      <line style="fill: none;stroke: #c6b38c;stroke-miterlimit: 10;stroke-width: 0.045354329049587px" x1="12.5" x2="10.58" y1="260.21" y2="260.54"/>
      <line style="fill: none;stroke: #c6b38c;stroke-miterlimit: 10;stroke-width: 0.030047243461013px" x1="12.56" x2="12.34" y1="260.2" y2="259.97"/>
      <line style="fill: none;stroke: #c6b38c;stroke-miterlimit: 10;stroke-width: 0.030047243461013px" x1="12.58" x2="12.78" y1="260.25" y2="260.45"/>
      <polyline points="12.56 260.22 12.32 260.47 12.8 259.98" style="fill: none;stroke: #c6b38c;stroke-miterlimit: 10;stroke-width: 0.030047243461013px"/>
      <polyline points="15.36 263.37 13.26 263.42 15.4 263.33" style="fill: none;stroke: #c6b38c;stroke-miterlimit: 10;stroke-width: 0.045354329049587px"/>
      <line style="fill: none;stroke: #c6b38c;stroke-miterlimit: 10;stroke-width: 0.045354329049587px" x1="17.11" x2="16" y1="263.88" y2="262.8"/>
    </g>
    <g>
      <g>
        <rect height="4.48" rx="1.3" ry="1.3" style="fill: url(#linear-gradient-41)" transform="translate(214.93 201.49) rotate(90)" width="2.63" x="5.41" y="205.97"/>
        <rect height="4.48" rx="1.3" ry="1.3" style="fill: url(#linear-gradient-42)" transform="translate(219.34 206.04) rotate(90)" width="2.63" x="5.34" y="210.45"/>
        <rect height="4.48" rx="1.3" ry="1.3" style="fill: url(#linear-gradient-43)" transform="translate(223.81 210.51) rotate(90)" width="2.63" x="5.34" y="214.92"/>
      </g>
      <g>
        <rect height="4.48" rx="1.3" ry="1.3" style="fill: url(#linear-gradient-44)" transform="translate(229.82 186.6) rotate(90)" width="2.63" x="20.3" y="205.97"/>
        <rect height="4.48" rx="1.3" ry="1.3" style="fill: url(#linear-gradient-45)" transform="translate(234.23 191.15) rotate(90)" width="2.63" x="20.23" y="210.45"/>
        <rect height="4.48" rx="1.3" ry="1.3" style="fill: url(#linear-gradient-46)" transform="translate(238.7 195.62) rotate(90)" width="2.63" x="20.23" y="214.92"/>
      </g>
      <rect height="15.79" style="fill: #d4d4d4" transform="translate(226.56 198.52) rotate(90)" width="15.66" x="6.19" y="204.65"/>
      <polygon points="21.69 205.03 8.74 205.03 6.49 207.1 6.49 220.12 6.73 220.32 21.69 220.32 21.69 205.03" style="fill: #ededee"/>
      <path d="M17.37,210.9l.06-.36a4.32,4.32,0,0,0,0-.89.37.37,0,0,1,.16-.23.46.46,0,0,1,.48,0,5,5,0,0,0-3.26-1.94l-.11,2.81.92.73Z" style="fill: #87909e"/>
      <path d="M13.72,209.73l0-2.25a4.74,4.74,0,0,0-2,.48,4.62,4.62,0,0,0-1.59,1.29h1.14a.28.28,0,0,1,.2.08.64.64,0,0,1,.06.11V210H13.5a.35.35,0,0,0,.12-.08A.56.56,0,0,0,13.72,209.73Z" style="fill: #87909e"/>
      <path d="M9.4,210.47a4.79,4.79,0,0,0-.47,2.16,4.64,4.64,0,0,0,.54,2.08H11v-4.32Z" style="fill: #87909e"/>
      <path d="M13.77,215.33a.27.27,0,0,0-.12-.14.21.21,0,0,0-.13-.05l-1.93-.08,0,.54a.2.2,0,0,1-.06.13.19.19,0,0,1-.16,0l-1.06,0,0,.07a4.51,4.51,0,0,0,3.58,1.65Z" style="fill: #87909e"/>
      <path d="M16.55,217.05a4.34,4.34,0,0,0,1.51-1.26h-.42l-.21-.2v-1.18l-.31-.28H15.43l-.69.67v2.74A4.53,4.53,0,0,0,16.55,217.05Z" style="fill: #87909e"/>
      <path d="M18.41,211.06a1,1,0,0,1-.36.63l-.17.08H14.32a.29.29,0,0,1-.22-.11.29.29,0,0,1,0-.14v-.76H11.9a.42.42,0,0,0-.13.07.79.79,0,0,0-.13.13v3.1a.29.29,0,0,0,0,.14.33.33,0,0,0,.26.14H14v-.8a.24.24,0,0,1,.08-.15.34.34,0,0,1,.19-.1h3.5a.52.52,0,0,1,.31.1.53.53,0,0,1,.17.27l.13.47.47.05a4.67,4.67,0,0,0,.29-1.28,5.11,5.11,0,0,0-.17-1.81.46.46,0,0,0-.36-.14A.4.4,0,0,0,18.41,211.06Z" style="fill: #87909e"/>
      <circle cx="15.73" cy="215.27" r="0.72" style="fill: #dbdbd7"/>
      <circle cx="15.58" cy="209.96" r="0.72" style="fill: #dbdbd7"/>
      <circle cx="12.5" cy="212.49" r="0.72" style="fill: #dbdbd7"/>
      <rect height="0.81" style="fill: #843c39;stroke: #010101;stroke-miterlimit: 10;stroke-width: 0.1px" transform="translate(224.95 199.86) rotate(90)" width="0.7" x="12.19" y="212"/>
      <path d="M20.52,212.55a6.41,6.41,0,1,0-6.41,6.4A6.4,6.4,0,0,0,20.52,212.55ZM19,211.09a5.11,5.11,0,0,1,.17,1.81,4.67,4.67,0,0,1-.29,1.28l-.47-.05-.13-.47a.53.53,0,0,0-.17-.27.52.52,0,0,0-.31-.1h-3.5a.34.34,0,0,0-.19.1.24.24,0,0,0-.08.15v.8H11.93a.33.33,0,0,1-.26-.14.29.29,0,0,1,0-.14V211a.79.79,0,0,1,.13-.13.42.42,0,0,1,.13-.07h2.15v.76a.29.29,0,0,0,0,.14.29.29,0,0,0,.22.11h3.56l.17-.08a1,1,0,0,0,.36-.63.4.4,0,0,1,.2-.11A.46.46,0,0,1,19,211.09ZM11.67,210h-.08v-.52a.64.64,0,0,0-.06-.11.28.28,0,0,0-.2-.08H10.19A4.62,4.62,0,0,1,11.78,208a4.74,4.74,0,0,1,2-.48l0,2.25a.56.56,0,0,1-.1.15.35.35,0,0,1-.12.08Zm3.13-2.48a5,5,0,0,1,3.26,1.94.46.46,0,0,0-.48,0,.37.37,0,0,0-.16.23,4.32,4.32,0,0,1,0,.89l-.06.36-1.76.12-.92-.73Zm-5.33,7.23a4.64,4.64,0,0,1-.54-2.08,4.79,4.79,0,0,1,.47-2.16l1.61-.08v4.32Zm6-.58h1.69l.31.28v1.18l.21.2h.42a4.34,4.34,0,0,1-1.51,1.26,4.53,4.53,0,0,1-1.81.49V214.8Zm-3.27,3.13a4.48,4.48,0,0,1-1.92-1.37l0-.07,1.06,0a.19.19,0,0,0,.16,0,.2.2,0,0,0,.06-.13l0-.54,1.93.08a.21.21,0,0,1,.13.05.27.27,0,0,1,.12.14l.05,2.21A4.45,4.45,0,0,1,12.16,217.26Z" style="fill: #ccc8c3"/>
      <circle cx="15.87" cy="209.68" r="0.18" style="fill: #010101"/>
      <circle cx="15.3" cy="210.11" r="0.18" style="fill: #010101"/>
      <circle cx="15.97" cy="215.02" r="0.18" style="fill: #010101"/>
      <circle cx="15.38" cy="215.49" r="0.18" style="fill: #010101"/>
      <circle cx="17.11" cy="209.09" r="0.14" style="fill: #c6b38c"/>
      <circle cx="15.87" cy="209.68" r="0.13" style="fill: #c6b38c"/>
      <circle cx="15.3" cy="210.11" r="0.13" style="fill: #c6b38c"/>
      <circle cx="13.21" cy="209.55" r="0.13" style="fill: #c6b38c"/>
      <circle cx="10.55" cy="212.68" r="0.13" style="fill: #c6b38c"/>
      <circle cx="12.56" cy="212.36" r="0.13" style="fill: #c6b38c"/>
      <circle cx="13.21" cy="215.56" r="0.13" style="fill: #c6b38c"/>
      <circle cx="15.97" cy="215.02" r="0.13" style="fill: #c6b38c"/>
      <circle cx="15.38" cy="215.49" r="0.13" style="fill: #c6b38c"/>
      <circle cx="17.11" cy="216.07" r="0.13" style="fill: #c6b38c"/>
      <line style="fill: none;stroke: #c6b38c;stroke-miterlimit: 10;stroke-width: 0.045354329049587px" x1="17.05" x2="15.96" y1="209.1" y2="209.73"/>
      <polyline points="15.27 210.08 14.88 209.85 13.26 209.61" style="fill: none;stroke: #c6b38c;stroke-miterlimit: 10;stroke-width: 0.045354329049587px"/>
      <line style="fill: none;stroke: #c6b38c;stroke-miterlimit: 10;stroke-width: 0.045354329049587px" x1="12.5" x2="10.58" y1="212.38" y2="212.71"/>
      <line style="fill: none;stroke: #c6b38c;stroke-miterlimit: 10;stroke-width: 0.030047243461013px" x1="12.56" x2="12.34" y1="212.36" y2="212.14"/>
      <line style="fill: none;stroke: #c6b38c;stroke-miterlimit: 10;stroke-width: 0.030047243461013px" x1="12.58" x2="12.78" y1="212.42" y2="212.61"/>
      <polyline points="12.56 212.39 12.32 212.63 12.8 212.14" style="fill: none;stroke: #c6b38c;stroke-miterlimit: 10;stroke-width: 0.030047243461013px"/>
      <polyline points="15.36 215.53 13.26 215.59 15.4 215.49" style="fill: none;stroke: #c6b38c;stroke-miterlimit: 10;stroke-width: 0.045354329049587px"/>
      <line style="fill: none;stroke: #c6b38c;stroke-miterlimit: 10;stroke-width: 0.045354329049587px" x1="17.11" x2="16" y1="216.05" y2="214.97"/>
    </g>
    <g>
      <g>
        <rect height="4.48" rx="1.3" ry="1.3" style="fill: url(#linear-gradient-47)" transform="translate(167.2 153.76) rotate(90)" width="2.63" x="5.41" y="158.24"/>
        <rect height="4.48" rx="1.3" ry="1.3" style="fill: url(#linear-gradient-48)" transform="translate(171.6 158.31) rotate(90)" width="2.63" x="5.34" y="162.71"/>
        <rect height="4.48" rx="1.3" ry="1.3" style="fill: url(#linear-gradient-49)" transform="translate(176.08 162.78) rotate(90)" width="2.63" x="5.34" y="167.19"/>
      </g>
      <g>
        <rect height="4.48" rx="1.3" ry="1.3" style="fill: url(#linear-gradient-50)" transform="translate(182.09 138.87) rotate(90)" width="2.63" x="20.3" y="158.24"/>
        <rect height="4.48" rx="1.3" ry="1.3" style="fill: url(#linear-gradient-51)" transform="translate(186.49 143.41) rotate(90)" width="2.63" x="20.23" y="162.71"/>
        <rect height="4.48" rx="1.3" ry="1.3" style="fill: url(#linear-gradient-52)" transform="translate(190.97 147.89) rotate(90)" width="2.63" x="20.23" y="167.19"/>
      </g>
      <rect height="15.79" style="fill: #d4d4d4" transform="translate(178.83 150.78) rotate(90)" width="15.66" x="6.19" y="156.91"/>
      <polygon points="21.69 157.3 8.74 157.3 6.49 159.37 6.49 172.39 6.73 172.58 21.69 172.58 21.69 157.3" style="fill: #ededee"/>
      <path d="M17.37,163.16l.06-.35a4.43,4.43,0,0,0,0-.9.38.38,0,0,1,.16-.22.42.42,0,0,1,.48,0,5,5,0,0,0-3.26-1.94l-.11,2.8.92.74Z" style="fill: #87909e"/>
      <path d="M13.72,162l0-2.25a4.44,4.44,0,0,0-2,.48,4.62,4.62,0,0,0-1.59,1.29h1.14a.28.28,0,0,1,.2.08.41.41,0,0,1,.06.11v.52H13.5a.62.62,0,0,0,.12-.08A.77.77,0,0,0,13.72,162Z" style="fill: #87909e"/>
      <path d="M9.4,162.73a4.82,4.82,0,0,0-.47,2.16A4.6,4.6,0,0,0,9.47,167H11v-4.32Z" style="fill: #87909e"/>
      <path d="M13.77,167.6a.28.28,0,0,0-.12-.15.27.27,0,0,0-.13,0l-1.93-.09,0,.55a.18.18,0,0,1-.06.12.21.21,0,0,1-.16,0l-1.06.05,0,.07a4.48,4.48,0,0,0,1.92,1.37,4.41,4.41,0,0,0,1.66.27Z" style="fill: #87909e"/>
      <path d="M16.55,169.32a4.46,4.46,0,0,0,1.51-1.26h-.42l-.21-.21v-1.17l-.31-.28H15.43l-.69.66v2.74A4.48,4.48,0,0,0,16.55,169.32Z" style="fill: #87909e"/>
      <path d="M18.41,163.32a1,1,0,0,1-.36.64.77.77,0,0,1-.17.07H14.32a.27.27,0,0,1-.22-.1.29.29,0,0,1,0-.15V163H11.9a.28.28,0,0,0-.13.07.79.79,0,0,0-.13.12v3.1a.27.27,0,0,0,0,.14.32.32,0,0,0,.26.15H14v-.81a.2.2,0,0,1,.08-.14.29.29,0,0,1,.19-.1h3.5a.52.52,0,0,1,.31.1.53.53,0,0,1,.17.27l.13.47.47,0a4.76,4.76,0,0,0,.29-1.28,5.09,5.09,0,0,0-.17-1.81.46.46,0,0,0-.36-.14A.41.41,0,0,0,18.41,163.32Z" style="fill: #87909e"/>
      <circle cx="15.73" cy="167.54" r="0.72" style="fill: #dbdbd7"/>
      <circle cx="15.58" cy="162.23" r="0.72" style="fill: #dbdbd7"/>
      <circle cx="12.5" cy="164.76" r="0.72" style="fill: #dbdbd7"/>
      <rect height="0.81" style="fill: #843c39;stroke: #010101;stroke-miterlimit: 10;stroke-width: 0.1px" transform="translate(177.21 152.12) rotate(90)" width="0.7" x="12.19" y="164.26"/>
      <path d="M20.52,164.82a6.41,6.41,0,1,0-6.41,6.4A6.41,6.41,0,0,0,20.52,164.82ZM19,163.36a5.09,5.09,0,0,1,.17,1.81,4.76,4.76,0,0,1-.29,1.28l-.47,0-.13-.47a.53.53,0,0,0-.17-.27.52.52,0,0,0-.31-.1h-3.5a.29.29,0,0,0-.19.1.2.2,0,0,0-.08.14v.81H11.93a.32.32,0,0,1-.26-.15.27.27,0,0,1,0-.14v-3.1a.79.79,0,0,1,.13-.12.28.28,0,0,1,.13-.07h2.15v.75a.29.29,0,0,0,0,.15.27.27,0,0,0,.22.1h3.56a.77.77,0,0,0,.17-.07,1,1,0,0,0,.36-.64.41.41,0,0,1,.2-.1A.46.46,0,0,1,19,163.36Zm-7.3-1.13h-.08v-.52a.41.41,0,0,0-.06-.11.28.28,0,0,0-.2-.08H10.19a4.62,4.62,0,0,1,1.59-1.29,4.44,4.44,0,0,1,2-.48l0,2.25a.77.77,0,0,1-.1.15.62.62,0,0,1-.12.08Zm3.13-2.48a5,5,0,0,1,3.26,1.94.42.42,0,0,0-.48,0,.38.38,0,0,0-.16.22,4.43,4.43,0,0,1,0,.9l-.06.35-1.76.13-.92-.74ZM9.47,167a4.6,4.6,0,0,1-.54-2.08,4.82,4.82,0,0,1,.47-2.16l1.61-.08V167Zm6-.57h1.69l.31.28v1.17l.21.21h.42a4.44,4.44,0,0,1-3.32,1.74v-2.74Zm-3.27,3.13a4.48,4.48,0,0,1-1.92-1.37l0-.07,1.06-.05a.21.21,0,0,0,.16,0,.18.18,0,0,0,.06-.12l0-.55,1.93.09a.27.27,0,0,1,.13,0,.28.28,0,0,1,.12.15l.05,2.2A4.41,4.41,0,0,1,12.16,169.53Z" style="fill: #ccc8c3"/>
      <circle cx="15.87" cy="161.95" r="0.18" style="fill: #010101"/>
      <circle cx="15.3" cy="162.38" r="0.18" style="fill: #010101"/>
      <circle cx="15.97" cy="167.29" r="0.18" style="fill: #010101"/>
      <circle cx="15.38" cy="167.76" r="0.18" style="fill: #010101"/>
      <circle cx="17.11" cy="161.35" r="0.14" style="fill: #c6b38c"/>
      <circle cx="15.87" cy="161.95" r="0.13" style="fill: #c6b38c"/>
      <circle cx="15.3" cy="162.38" r="0.13" style="fill: #c6b38c"/>
      <circle cx="13.21" cy="161.82" r="0.13" style="fill: #c6b38c"/>
      <circle cx="10.55" cy="164.95" r="0.13" style="fill: #c6b38c"/>
      <circle cx="12.56" cy="164.63" r="0.13" style="fill: #c6b38c"/>
      <circle cx="13.21" cy="167.83" r="0.13" style="fill: #c6b38c"/>
      <circle cx="15.97" cy="167.29" r="0.13" style="fill: #c6b38c"/>
      <circle cx="15.38" cy="167.76" r="0.13" style="fill: #c6b38c"/>
      <circle cx="17.11" cy="168.33" r="0.13" style="fill: #c6b38c"/>
      <line style="fill: none;stroke: #c6b38c;stroke-miterlimit: 10;stroke-width: 0.045354329049587px" x1="17.05" x2="15.96" y1="161.37" y2="162"/>
      <polyline points="15.27 162.35 14.88 162.11 13.26 161.87" style="fill: none;stroke: #c6b38c;stroke-miterlimit: 10;stroke-width: 0.045354329049587px"/>
      <line style="fill: none;stroke: #c6b38c;stroke-miterlimit: 10;stroke-width: 0.045354329049587px" x1="12.5" x2="10.58" y1="164.65" y2="164.98"/>
      <line style="fill: none;stroke: #c6b38c;stroke-miterlimit: 10;stroke-width: 0.030047243461013px" x1="12.56" x2="12.34" y1="164.63" y2="164.4"/>
      <line style="fill: none;stroke: #c6b38c;stroke-miterlimit: 10;stroke-width: 0.030047243461013px" x1="12.58" x2="12.78" y1="164.68" y2="164.88"/>
      <polyline points="12.56 164.65 12.32 164.9 12.8 164.41" style="fill: none;stroke: #c6b38c;stroke-miterlimit: 10;stroke-width: 0.030047243461013px"/>
      <polyline points="15.36 167.8 13.26 167.85 15.4 167.76" style="fill: none;stroke: #c6b38c;stroke-miterlimit: 10;stroke-width: 0.045354329049587px"/>
      <line style="fill: none;stroke: #c6b38c;stroke-miterlimit: 10;stroke-width: 0.045354329049587px" x1="17.11" x2="16" y1="168.31" y2="167.24"/>
    </g>
    <rect height="12.88" rx="1.82" ry="1.82" style="fill: url(#linear-gradient-53)" transform="translate(55.45 27.94) rotate(90)" width="3.64" x="11.93" y="35.26"/>
    <rect height="6.78" style="fill: url(#linear-gradient-54)" transform="translate(55.51 27.89) rotate(90)" width="3.64" x="11.99" y="38.31"/>
    <rect height="12.88" rx="1.82" ry="1.82" style="fill: url(#linear-gradient-55)" transform="translate(65.84 38.3) rotate(90)" width="3.64" x="11.95" y="45.63"/>
    <rect height="6.78" style="fill: url(#linear-gradient-56)" transform="translate(65.89 38.24) rotate(90)" width="3.64" x="12" y="48.68"/>
    <rect height="12.88" rx="1.82" ry="1.82" style="fill: url(#linear-gradient-57)" transform="translate(108.99 80.45) rotate(90)" width="3.64" x="12.45" y="88.28"/>
    <rect height="6.78" style="fill: url(#linear-gradient-58)" transform="translate(109.04 80.39) rotate(90)" width="3.64" x="12.5" y="91.33"/>
    <rect height="12.88" rx="1.82" ry="1.82" style="fill: url(#linear-gradient-59)" transform="translate(197.15 169.99) rotate(90)" width="3.64" x="11.76" y="177.13"/>
    <rect height="6.78" style="fill: url(#linear-gradient-60)" transform="translate(197.21 169.93) rotate(90)" width="3.64" x="11.82" y="180.18"/>
    <rect height="12.88" rx="1.82" ry="1.82" style="fill: url(#linear-gradient-61)" transform="translate(207.27 180.39) rotate(90)" width="3.64" x="11.61" y="187.39"/>
    <rect height="6.78" style="fill: url(#linear-gradient-62)" transform="translate(207.32 180.34) rotate(90)" width="3.64" x="11.67" y="190.44"/>
    <rect height="12.88" rx="1.82" ry="1.82" style="fill: url(#linear-gradient-63)" transform="translate(250.42 222.55) rotate(90)" width="3.64" x="12.11" y="230.04"/>
    <rect height="6.78" style="fill: url(#linear-gradient-64)" transform="translate(250.47 222.49) rotate(90)" width="3.64" x="12.17" y="233.09"/>
    <g>
      <path d="M26.6,149.56h-.71l-2-.78a.2.2,0,0,1,0-.38l2-.78h.71a.2.2,0,0,1,.14.06.22.22,0,0,1,.05.14.21.21,0,0,1-.05.13.2.2,0,0,1-.14.06H26l-1.49.58,1.49.58h.63a.2.2,0,0,1,.14.06.22.22,0,0,1,.05.14.21.21,0,0,1-.05.13A.2.2,0,0,1,26.6,149.56Z" style="fill: #585856"/>
      <path d="M24.15,151.49v.69a.2.2,0,0,1-.06.14.18.18,0,0,1-.14.06.18.18,0,0,1-.13-.06.2.2,0,0,1-.06-.14v-.71a.55.55,0,0,1,.09-.29A.61.61,0,0,1,24,151l.86-.44a.85.85,0,0,1,.38-.09.87.87,0,0,1,.37.08l.84.45a.57.57,0,0,1,.21.2.48.48,0,0,1,.09.26v.76a.21.21,0,0,1-.05.13.19.19,0,0,1-.28,0,.18.18,0,0,1-.06-.13v-.73a.17.17,0,0,0-.1-.15l-.8-.43a.48.48,0,0,0-.22,0,.41.41,0,0,0-.23.06l-.78.4A.17.17,0,0,0,24.15,151.49Z" style="fill: #585856"/>
      <path d="M24.15,154.31V155a.21.21,0,0,1-.2.2.18.18,0,0,1-.13-.06.18.18,0,0,1-.06-.14v-.71a.55.55,0,0,1,.09-.29.61.61,0,0,1,.19-.2l.86-.44a.85.85,0,0,1,.38-.09.87.87,0,0,1,.37.08l.84.45a.57.57,0,0,1,.21.2.48.48,0,0,1,.09.26V155a.21.21,0,0,1-.05.13.19.19,0,0,1-.28,0,.18.18,0,0,1-.06-.13v-.73a.17.17,0,0,0-.1-.15l-.8-.43a.48.48,0,0,0-.22-.05.41.41,0,0,0-.23.06l-.78.4A.17.17,0,0,0,24.15,154.31Z" style="fill: #585856"/>
    </g>
    <g>
      <path d="M16.78,148.67v.69a.2.2,0,0,1-.06.14.18.18,0,0,1-.13.06.18.18,0,0,1-.14-.06.2.2,0,0,1-.06-.14v-.71a.61.61,0,0,1,.29-.49l.85-.44a.87.87,0,0,1,.75,0l.85.45a.57.57,0,0,1,.21.2.45.45,0,0,1,.09.26v.75a.21.21,0,0,1-.2.2.16.16,0,0,1-.13-.06.18.18,0,0,1-.06-.14v-.72a.16.16,0,0,0-.11-.15l-.79-.43a.51.51,0,0,0-.22,0,.48.48,0,0,0-.24.06l-.78.4A.2.2,0,0,0,16.78,148.67Z" style="fill: #585856"/>
      <path d="M19.43,150.63v1.55a.18.18,0,0,1-.06.13.18.18,0,0,1-.14.06.16.16,0,0,1-.13-.06.18.18,0,0,1-.06-.13v-.58H16.78v.58a.16.16,0,0,1-.06.13.18.18,0,0,1-.13.06.18.18,0,0,1-.14-.06.18.18,0,0,1-.06-.13v-1.55a.18.18,0,0,1,.06-.14.17.17,0,0,1,.14-.05.17.17,0,0,1,.13.05.18.18,0,0,1,.06.14v.58H19v-.58a.22.22,0,0,1,.05-.14.22.22,0,0,1,.28,0A.18.18,0,0,1,19.43,150.63Z" style="fill: #585856"/>
    </g>
    <g>
      <path d="M12.06,147.81v.75a.53.53,0,0,1-.1.29.73.73,0,0,1-.22.21l-.77.38a.94.94,0,0,1-.43.1.86.86,0,0,1-.43-.11l-.76-.38a.52.52,0,0,1-.23-.21.54.54,0,0,1-.09-.31v-.73a.19.19,0,0,1,.05-.13.19.19,0,0,1,.28,0,.16.16,0,0,1,.06.13v.2h2.25v-.19a.21.21,0,0,1,.2-.2.18.18,0,0,1,.13.06A.18.18,0,0,1,12.06,147.81Zm-.39.58H9.41v.13a.2.2,0,0,0,.13.19l.75.38a.56.56,0,0,0,.25.07.46.46,0,0,0,.23-.06l.78-.39a.21.21,0,0,0,.12-.2Z" style="fill: #585856"/>
      <path d="M12.06,150.63v1.55a.21.21,0,0,1-.19.19.18.18,0,0,1-.14-.06.18.18,0,0,1-.06-.13v-.58H9.41v.58a.21.21,0,0,1-.19.19.2.2,0,0,1-.14-.06.21.21,0,0,1-.05-.13v-1.55a.22.22,0,0,1,.05-.14.19.19,0,0,1,.14-.05.15.15,0,0,1,.13.05.18.18,0,0,1,.06.14v.58h2.26v-.58a.18.18,0,0,1,.06-.14.17.17,0,0,1,.13-.05.17.17,0,0,1,.14.05A.18.18,0,0,1,12.06,150.63Z" style="fill: #585856"/>
    </g>
    <g>
      <path d="M4.69,148.73v.64a.21.21,0,0,1-.05.13.19.19,0,0,1-.28,0,.18.18,0,0,1-.05-.13v-.61a.21.21,0,0,0-.09-.16l-.69-.53A.32.32,0,0,0,3.3,148H2.24a.24.24,0,0,0-.14.05.19.19,0,0,0-.05.14V149a.15.15,0,0,0,.05.13.18.18,0,0,0,.14.06h.41v-.4a.16.16,0,0,1,.06-.13.18.18,0,0,1,.13-.06.18.18,0,0,1,.14.06.16.16,0,0,1,.06.13v.78h-.8a.56.56,0,0,1-.41-.16.58.58,0,0,1-.17-.41v-.78a.58.58,0,0,1,.58-.58H3.3a.76.76,0,0,1,.48.15l.72.57a.61.61,0,0,1,.14.17A.59.59,0,0,1,4.69,148.73Z" style="fill: #585856"/>
      <path d="M4.5,152.37H1.66v-.51l2.36-1H1.85a.17.17,0,0,1-.13,0,.18.18,0,0,1-.06-.14.16.16,0,0,1,.06-.13.18.18,0,0,1,.13-.06H4.69V151l-2.35,1H4.5a.2.2,0,0,1,.14.06.22.22,0,0,1,.05.14.19.19,0,0,1-.05.13A.2.2,0,0,1,4.5,152.37Z" style="fill: #585856"/>
      <path d="M4.69,153.45v.75a.52.52,0,0,1-.09.29.57.57,0,0,1-.23.21l-.77.38a.92.92,0,0,1-.43.11.9.9,0,0,1-.43-.12L2,154.69a.66.66,0,0,1-.23-.21.53.53,0,0,1-.09-.3v-.74a.21.21,0,0,1,.19-.19.18.18,0,0,1,.14.06.18.18,0,0,1,.06.13v.2H4.31v-.19a.2.2,0,0,1,.33-.14A.24.24,0,0,1,4.69,153.45Zm-.38.58H2.05v.13a.2.2,0,0,0,.12.19l.75.38a.6.6,0,0,0,.25.07.64.64,0,0,0,.24-.05l.78-.4a.2.2,0,0,0,.12-.2Z" style="fill: #585856"/>
    </g>
    <g>
      <path d="M26.56,273.16h-.71l-2-.79a.19.19,0,0,1-.15-.18.2.2,0,0,1,.15-.19l2-.78h.71a.2.2,0,0,1,.14.06.21.21,0,0,1,.05.13.22.22,0,0,1-.05.14.2.2,0,0,1-.14.06h-.63l-1.48.58,1.48.58h.63a.2.2,0,0,1,.14.06.19.19,0,0,1,.05.13.22.22,0,0,1-.05.14A.2.2,0,0,1,26.56,273.16Z" style="fill: #585856"/>
      <path d="M24.11,275.09v.69a.2.2,0,0,1-.06.14.18.18,0,0,1-.14.06.18.18,0,0,1-.13-.06.2.2,0,0,1-.06-.14v-.72a.54.54,0,0,1,.09-.28.53.53,0,0,1,.19-.2l.86-.44a.85.85,0,0,1,.38-.09.87.87,0,0,1,.37.08l.84.45a.57.57,0,0,1,.21.2.45.45,0,0,1,.09.26v.75a.22.22,0,0,1-.05.14.19.19,0,0,1-.28,0,.22.22,0,0,1-.05-.14v-.72a.16.16,0,0,0-.11-.15l-.79-.43a.56.56,0,0,0-.23-.05.44.44,0,0,0-.23.06l-.78.4A.2.2,0,0,0,24.11,275.09Z" style="fill: #585856"/>
      <path d="M24.11,277.91v.69a.2.2,0,0,1-.06.14.18.18,0,0,1-.14.06.18.18,0,0,1-.13-.06.2.2,0,0,1-.06-.14v-.72a.54.54,0,0,1,.09-.28.53.53,0,0,1,.19-.2l.86-.44a.85.85,0,0,1,.38-.09.87.87,0,0,1,.37.08l.84.45a.57.57,0,0,1,.21.2.45.45,0,0,1,.09.26v.75a.22.22,0,0,1-.05.14.19.19,0,0,1-.28,0,.22.22,0,0,1-.05-.14v-.72a.16.16,0,0,0-.11-.15l-.79-.43a.56.56,0,0,0-.23-.05.44.44,0,0,0-.23.06l-.78.4A.2.2,0,0,0,24.11,277.91Z" style="fill: #585856"/>
    </g>
    <g>
      <path d="M16.74,275.09v.69a.2.2,0,0,1-.06.14.16.16,0,0,1-.13.06.2.2,0,0,1-.14-.06.24.24,0,0,1-.05-.14v-.72a.63.63,0,0,1,.08-.28.54.54,0,0,1,.2-.2l.85-.44a.88.88,0,0,1,.38-.09.72.72,0,0,1,.37.08l.85.45a.57.57,0,0,1,.21.2.45.45,0,0,1,.09.26v.75a.18.18,0,0,1-.06.14.17.17,0,0,1-.13.05.17.17,0,0,1-.14-.05.18.18,0,0,1-.06-.14v-.73a.16.16,0,0,0-.11-.14l-.79-.43a.51.51,0,0,0-.22-.05.48.48,0,0,0-.24.06l-.78.4A.2.2,0,0,0,16.74,275.09Z" style="fill: #585856"/>
      <path d="M19.11,278.28l-.86.42a.85.85,0,0,1-.38.09.82.82,0,0,1-.38-.09l-.85-.42a.47.47,0,0,1-.28-.46.43.43,0,0,1,.08-.27.46.46,0,0,1,.2-.19l.85-.42a.85.85,0,0,1,.76,0l.86.42a.5.5,0,0,1,.28.46A.49.49,0,0,1,19.11,278.28Zm-.19-.59-.81-.39a.51.51,0,0,0-.48,0l-.81.4a.13.13,0,0,0-.08.12.12.12,0,0,0,.08.11l.81.41a.53.53,0,0,0,.24.06.5.5,0,0,0,.24-.06l.81-.4a.12.12,0,0,0,.09-.12A.15.15,0,0,0,18.92,277.69Z" style="fill: #585856"/>
    </g>
    <g>
      <path d="M12,274.23V275a.52.52,0,0,1-.09.29.76.76,0,0,1-.23.21l-.77.38a.94.94,0,0,1-.43.1,1,1,0,0,1-.43-.11l-.76-.38a.58.58,0,0,1-.23-.21A.54.54,0,0,1,9,275v-.73a.2.2,0,0,1,.06-.14.21.21,0,0,1,.13-.05.22.22,0,0,1,.14.05.2.2,0,0,1,.06.14v.2h2.25v-.19a.18.18,0,0,1,.06-.14.2.2,0,0,1,.14-.06.16.16,0,0,1,.13.06A.18.18,0,0,1,12,274.23Zm-.39.57H9.37v.14a.22.22,0,0,0,.13.19l.75.38a.56.56,0,0,0,.25.07.53.53,0,0,0,.24-.06l.78-.39a.22.22,0,0,0,.11-.2Z" style="fill: #585856"/>
      <path d="M11.74,278.28l-.86.42a.82.82,0,0,1-.38.09.85.85,0,0,1-.38-.09l-.85-.42a.46.46,0,0,1-.28-.46.5.5,0,0,1,.08-.27.52.52,0,0,1,.2-.19l.85-.42a.85.85,0,0,1,.76,0l.86.42a.48.48,0,0,1,.28.46A.47.47,0,0,1,11.74,278.28Zm-.19-.59-.81-.39a.53.53,0,0,0-.24-.06.46.46,0,0,0-.23.06l-.82.4a.14.14,0,0,0-.08.12.12.12,0,0,0,.08.11l.82.41a.53.53,0,0,0,.23.06.48.48,0,0,0,.24-.06l.81-.4a.12.12,0,0,0,.09-.12A.15.15,0,0,0,11.55,277.69Z" style="fill: #585856"/>
    </g>
    <g>
      <path d="M4.66,272.33V273a.21.21,0,0,1-.2.2.2.2,0,0,1-.14-.06.24.24,0,0,1-.05-.14v-.6a.21.21,0,0,0-.09-.16l-.69-.54a.36.36,0,0,0-.22-.06H2.2a.15.15,0,0,0-.13,0,.18.18,0,0,0-.06.14v.78a.18.18,0,0,0,.06.13.16.16,0,0,0,.13.06h.41v-.4a.16.16,0,0,1,.06-.13.18.18,0,0,1,.14-.06.18.18,0,0,1,.13.06.16.16,0,0,1,.06.13v.78H2.2a.54.54,0,0,1-.41-.17.54.54,0,0,1-.16-.4v-.78a.56.56,0,0,1,.16-.41.58.58,0,0,1,.41-.17H3.26a.76.76,0,0,1,.48.15l.72.57a.49.49,0,0,1,.14.17A.46.46,0,0,1,4.66,272.33Z" style="fill: #585856"/>
      <path d="M4.46,276H1.63v-.52l2.35-1H1.82a.22.22,0,0,1-.14-.05.22.22,0,0,1,0-.28.22.22,0,0,1,.14,0H4.66v.5l-2.35,1H4.46a.2.2,0,0,1,.14.06.18.18,0,0,1,.06.14.18.18,0,0,1-.06.13A.2.2,0,0,1,4.46,276Z" style="fill: #585856"/>
      <path d="M4.66,277.05v.75a.63.63,0,0,1-.1.29.66.66,0,0,1-.23.21l-.76.38a.94.94,0,0,1-.43.1,1.06,1.06,0,0,1-.44-.11L2,278.29a.61.61,0,0,1-.24-.21.53.53,0,0,1-.08-.31V277a.19.19,0,0,1,.05-.14.24.24,0,0,1,.14,0,.19.19,0,0,1,.13,0A.2.2,0,0,1,2,277v.2H4.27v-.19a.18.18,0,0,1,.06-.14.16.16,0,0,1,.13-.06.21.21,0,0,1,.2.2Zm-.39.57H2v.14a.21.21,0,0,0,.12.19l.76.38a.56.56,0,0,0,.25.07.46.46,0,0,0,.23-.06l.78-.39a.21.21,0,0,0,.12-.2Z" style="fill: #585856"/>
    </g>
  </g>
  <g id="Connectors">
    <circle cx="25.24" cy="1.73" data-cir-color="red" data-cir-type="female" id="circuitoCon_VCC_IN" r="0.93" style="fill: none"/>
    <circle cx="3.24" cy="1.73" data-cir-color="black" data-cir-type="female" id="circuitoCon_GND_IN" r="0.93" style="fill: none"/>
    <circle cx="10.57" cy="1.73" data-cir-type="female" id="circuitoCon_DI" r="0.93" style="fill: none"/>
    <circle cx="17.91" cy="1.73" data-cir-type="female" id="circuitoCon_CI" r="0.93" style="fill: none"/>
    <circle cx="24.77" cy="281.7" data-cir-color="red" data-cir-type="male" id="circuitoCon_VCC_OUT" r="0.93" style="fill: none"/>
    <circle cx="2.78" cy="281.7" data-cir-color="black" data-cir-type="male" id="circuitoCon_GND_OUT" r="0.93" style="fill: none"/>
    <circle cx="10.11" cy="281.7" data-cir-type="male" id="circuitoCon_DO" r="0.93" style="fill: none"/>
    <circle cx="17.44" cy="281.7" data-cir-type="male" id="circuitoCon_CO" r="0.93" style="fill: none"/>
  </g>
</svg>