<?xml version="1.0" ?><svg data-name="Layer 1" height="25.58mm" id="Layer_1" viewBox="0 0 73.33 72.5" width="25.87mm" xmlns="http://www.w3.org/2000/svg" xmlns:xlink="http://www.w3.org/1999/xlink">
  <defs>
    <linearGradient gradientTransform="matrix(1, 0, 0, -1, 0, 74)" gradientUnits="userSpaceOnUse" id="linear-gradient" x1="14.29" x2="47.71" y1="37.78" y2="37.78">
      <stop offset="0.01" stop-color="#ebc17d"/>
      <stop offset="0.19" stop-color="#edd089"/>
      <stop offset="0.41" stop-color="#f4e8d9"/>
      <stop offset="0.73" stop-color="#c08329"/>
      <stop offset="0.95" stop-color="#eabe81"/>
    </linearGradient>
    <linearGradient gradientTransform="matrix(1, 0, 0, -1, 0, 74)" gradientUnits="userSpaceOnUse" id="linear-gradient-2" x1="15.13" x2="46.92" y1="37.9" y2="37.9">
      <stop offset="0" stop-color="#bfbdbe"/>
      <stop offset="0.04" stop-color="#cccbcc"/>
      <stop offset="0.12" stop-color="#e4e3e4"/>
      <stop offset="0.2" stop-color="#f3f2f3"/>
      <stop offset="0.26" stop-color="#f8f7f8"/>
      <stop offset="0.31" stop-color="#f2f1f2"/>
      <stop offset="0.37" stop-color="#e1e0e1"/>
      <stop offset="0.43" stop-color="#c6c4c5"/>
      <stop offset="0.45" stop-color="#bfbdbe"/>
      <stop offset="0.58" stop-color="#bfbdbe"/>
      <stop offset="0.62" stop-color="#cecccd"/>
      <stop offset="0.7" stop-color="#e5e3e4"/>
      <stop offset="0.77" stop-color="#f2f0f1"/>
      <stop offset="0.83" stop-color="#f7f5f6"/>
      <stop offset="1" stop-color="#c0bebf"/>
    </linearGradient>
    <linearGradient gradientTransform="matrix(1, 0, 0, -1, 0, 74)" gradientUnits="userSpaceOnUse" id="linear-gradient-3" x1="17.04" x2="44.8" y1="38.01" y2="38.01">
      <stop offset="0" stop-color="#cbd1d6"/>
      <stop offset="0.09" stop-color="#c7ced2"/>
      <stop offset="0.17" stop-color="#bcc3c7"/>
      <stop offset="0.25" stop-color="#aab1b5"/>
      <stop offset="0.29" stop-color="#cad1d5"/>
      <stop offset="0.33" stop-color="#e1e8ec"/>
      <stop offset="0.37" stop-color="#eff6f9"/>
      <stop offset="0.4" stop-color="#f4fbfe"/>
      <stop offset="0.63" stop-color="#f4fbfe"/>
      <stop offset="0.75" stop-color="#979da1"/>
      <stop offset="0.83" stop-color="#b0b7bc"/>
      <stop offset="0.85" stop-color="#959b9f"/>
      <stop offset="0.87" stop-color="#7d8387"/>
      <stop offset="0.89" stop-color="#6f7478"/>
      <stop offset="0.91" stop-color="#6a6f73"/>
      <stop offset="0.93" stop-color="#71767a"/>
      <stop offset="0.95" stop-color="#84898e"/>
      <stop offset="0.97" stop-color="#a4a9ae"/>
      <stop offset="1" stop-color="#cbd1d6"/>
    </linearGradient>
  </defs>
  <title>AMG8833 IR Thermal Camera Breakout</title>
  <g id="HOLES">
    <path d="M66.71,0H6.63A6.62,6.62,0,0,0,0,6.61H0V65.87A6.63,6.63,0,0,0,6.63,72.5H66.71a6.62,6.62,0,0,0,6.62-6.62h0V6.62A6.62,6.62,0,0,0,66.71,0Zm3.18,7a3.81,3.81,0,1,1-3.81-3.86A3.82,3.82,0,0,1,69.89,7V7ZM8,3.14A3.81,3.81,0,1,1,4.2,7h0A3.81,3.81,0,0,1,8,3.14ZM4.21,65.63A3.81,3.81,0,1,1,8,69.43H8A3.82,3.82,0,0,1,4.21,65.63Zm61.87,3.8a3.81,3.81,0,1,1,3.81-3.81h0A3.81,3.81,0,0,1,66.08,69.43ZM72.7,10.6V62.91s-.29.44-1.52-1.09S69,59.45,67.64,59.26a7.25,7.25,0,0,0-5.35.81,5.37,5.37,0,0,0-2.78,4.84s.47,3.72,1.75,5,2.09,1.44,1.54,1.47-10.93,0-10.93,0H20.37s-10.17.25-9.92,0a11.84,11.84,0,0,0,1.62-1.28C13,69.23,15,67.44,13.59,63S7,58.64,7,58.64a19,19,0,0,0,.89-1.88A3.69,3.69,0,0,0,6.18,52.6c-2.35-1.62-4.72.5-4.72.5V9.33s0-.16.62.92,3.75,4.7,9.63,1.83a7.08,7.08,0,0,0,2.62-4.5s.87-3.54-3-6.42c.08-.11-1.49-.62-.84-.53H62.57s1.78-.12.23.91S59.23,5,59.8,7.35s.91,3.41,1.88,4.25,3.78,2.72,6.71,1.6a5.79,5.79,0,0,0,3.6-3C72.32,9.79,72.73,8.88,72.7,10.6Z" style="fill: #1a2c80" transform="translate(0 0)"/>
    <path d="M72,10.25a5.79,5.79,0,0,1-3.6,3c-2.93,1.12-5.75-.75-6.71-1.6s-1.35-1.9-1.88-4.25,1.5-4.78,3-5.81-.23-.91-.23-.91H10.45c-.65-.09.92.42.84.53,3.87,2.88,3,6.42,3,6.42a7.08,7.08,0,0,1-2.62,4.5C5.79,15,2.67,11.38,2,10.3s-.62-.92-.62-.92V53.14s2.37-2.12,4.72-.5A3.69,3.69,0,0,1,7.85,56.8,18,18,0,0,1,7,58.64s5.21-.16,6.63,4.31S13,69.2,12.11,70.07a11.84,11.84,0,0,1-1.62,1.28c-.25.25,9.92,0,9.92,0H62.84c.54,0-.26-.22-1.54-1.47s-1.75-5-1.75-5A5.37,5.37,0,0,1,62.33,60a7.25,7.25,0,0,1,5.35-.81c1.31.19,2.31,1,3.54,2.56s1.52,1.09,1.52,1.09V10.6C72.73,8.88,72.32,9.79,72,10.25ZM4.66,50.78a.71.71,0,0,1-.06-1.41.7.7,0,0,1,.77.6.49.49,0,0,1,0,.17A.68.68,0,0,1,4.66,50.78ZM6,16.45a.67.67,0,0,1-.68-.68h0a.69.69,0,1,1,.7.68Zm54.2-3.4a.69.69,0,1,1-.68.7v0a.67.67,0,0,1,.68-.68h0ZM54.86,5a2,2,0,1,1-2,2A2,2,0,0,1,54.86,5ZM47.67,5a2,2,0,1,1-2,2A2,2,0,0,1,47.67,5ZM40.51,5a2,2,0,1,1-2,2A2,2,0,0,1,40.51,5ZM33.28,5a2,2,0,1,1-2,2A2,2,0,0,1,33.28,5ZM26.06,5a2,2,0,1,1-2,2A2,2,0,0,1,26.06,5ZM18.83,5a2,2,0,1,1-2,2A2,2,0,0,1,18.83,5ZM10.52,28.85a.69.69,0,1,1,.69-.69.69.69,0,0,1-.69.69Zm.75-5.71a.67.67,0,0,1-.68-.66v0a.67.67,0,0,1,.67-.69h0a.69.69,0,0,1,.69.69h0a.67.67,0,0,1-.68.68Zm7.56,44.05a2,2,0,1,1,2-2,2,2,0,0,1-2,2h0Zm7.23,0a2,2,0,1,1,2-2,2,2,0,0,1-2,2h0Zm7.22,0a2,2,0,1,1,2-2,2,2,0,0,1-2,2h0Zm7.23,0a2,2,0,1,1,2-2,2,2,0,0,1-2,2h0Zm7.16,0a2,2,0,1,1,2-2,2,2,0,0,1-2,2h0Zm7.19,0a2,2,0,1,1,2-2,2,2,0,0,1-2,2h0ZM72,44.64l-.62.62.51.51v4l-.36.36H70.28v1.29h1.57v.46s.07,2.57,0,3.62-.67.81-.67.81a37.33,37.33,0,0,1-4.73,0c-.88-.17-.63-1.17-.63-1.17l-5.64.13s-.11.18,0,.81a1,1,0,0,1-.32.94,22.44,22.44,0,0,0-3.28,0,1.56,1.56,0,0,1-1.27,1.12c-1,.25-.55.91-.55.91l1.5,1.52.31,2.69-1-.12V60.66l-5.43-5.43V39.59l-.71-.71h-2.2V40h2V55.73l5.56,5.81v1.19H53.61V61.55l-5.49-5.48V49.43H45.51l-.34-.29V47.26h-5v2.15h-.91V50h4.63l.47.69v4.86L43,55.85V58L39.85,61.2h-15V63l-.64.64V60.21H39.63l2.51-2.51V52.14H35V46.41L17.07,44.69v4.07l-.53.65H13.82l-.54-.62V23.14l.31-.3h2.92s.64.48.56.56a15.38,15.38,0,0,0,0,1.92h4.82v-2H19.81L17.45,21H16.37l-.78-.82-.75.75H14V18.54H12.26V21h-1.8v-.81a10.42,10.42,0,0,1,0-1.58H12V16.82H10.46V14.74h1.66s.25,1.07.38,1.08a8.41,8.41,0,0,0,1.15-1l1.59.08.52.55.45-.55h6.14l.16.89.67.1.71-1.2H25.3l.61.61.55-.55H35.6l.71.7.43-.43h9.12l.5.5.68-.68h1.25V15.9h1.45V15h2v1.93h-2v1.85h1.93v1.54l-.52.52h-1.5V18.38H48.4v2.39H47.12l-.55-.63-.86.53h-.79l-.08,2.09h3.51l.66.48v8.2l-.61.62H46.67v2.53h3l3.45-3.45V28.32l.31-.69L52.67,27V22.07l.53-.58-.38-.68V19.34h1.82V18h-2V16.34l.73-.72a4.43,4.43,0,0,1,1.15,0l1,1.54.81-1.54,1.27.09.6,1.55s.6-1.55.6-1.55h4.05l.65.66s.08,4.68,0,4.76l-.5.5.55.55v1.31h1A2,2,0,0,1,67,22.9a2.25,2.25,0,0,1,1.06,3L68,26c-2,2.19-3.42.12-3.42.12H63.46l.1.86-1,.64a4.24,4.24,0,0,1,.46.65v4.25l1,1v7l-.62.62v2.5h1.21l1.06.42.25-.08V40.55c0-1,2.35,0,2.35,0L66,38.62V34.39l.74-.79s-.65-.64-1.13-1.21a1.87,1.87,0,0,1,.54-2.6,1.85,1.85,0,0,1,.94-.31c2.14-.44,2.5,2.2,2.5,2.2l.67.67v1.24l.51.51h1.12v4.42l-1.72,1,1.81.93ZM31.48,56.75a1.19,1.19,0,1,1,1.19,1.19h0A1.19,1.19,0,0,1,31.48,56.75ZM51.42,22.29a.69.69,0,1,1-.7-.68h0a.67.67,0,0,1,.69.67Z" style="fill: #0b5597" transform="translate(0 0)"/>
    <path d="M71.93,38.52V34.14H70.81l-.51-.51V32.35l-.67-.67s-.36-2.64-2.5-2.2a1.88,1.88,0,0,0-1.79,2,2,2,0,0,0,.31.94c.48.57,1.13,1.21,1.13,1.21l-.74.79v4.23l2.27,1.91S66,39.47,66,40.53V44l-.25.08-1.06-.42H63.48v-2.5l.62-.62v-7l-1-1V28.29a4.24,4.24,0,0,0-.46-.65l1-.64-.1-.86h1.08S66,28.21,68,26A2.25,2.25,0,0,0,67.16,23L67,22.9a2,2,0,0,0-2.47.59h-1V22.14L63,21.63l.5-.5c.08-.08,0-4.76,0-4.76l-.65-.66H58.76s-.57,1.6-.6,1.55l-.6-1.55-1.27-.09-.81,1.52-1-1.54a4.43,4.43,0,0,0-1.15,0l-.73.72V18h2v1.34H52.82v1.47l.38.68-.53.58V27l.76.67-.31.69v2.82l-3.43,3.43h-3V32.06H48.4l.6-.62V23.33l-.66-.48H44.83l.08-2.09h.79l.86-.53.55.59H48.4V18.38h1.25v2.41h1.47l.52-.52V18.73H49.71V16.88h2V15h-2v.9H48.29V14.79H47l-.68.68-.5-.5H36.74l-.43.43-.71-.7H26.46l-.55.55-.61-.61H23.89l-.71,1.2-.67-.1-.16-.89H16.21l-.45.55-.52-.55-1.59-.08a8.41,8.41,0,0,1-1.15,1c-.13,0-.38-1.08-.38-1.08H10.46v2.08H12v1.77H10.46a10.42,10.42,0,0,0,0,1.58V21h1.8V18.54H14v2.39h.85l.75-.75.78.78h1.08l2.36,2.36H21.9v2H17.07a15.38,15.38,0,0,1,0-1.92c.08-.08-.56-.56-.56-.56H13.59l-.31.3V48.79l.54.62h2.72l.53-.65V44.69L35,46.41v5.73h7.13v5.61l-2.51,2.51H24.27v3.45l.64-.64V61.2h15L43,58V55.85l1.35-.32V50.67L43.88,50H39.29v-.57h.91V47.26h5v1.88l.34.34h2.61v6.64l5.49,5.48v1.18h1.15V61.54L49.2,55.73V40h-2V38.88h2.25l.71.71V55.23l5.43,5.43v2.48l1,.12-.31-2.69-1.5-1.52s-.4-.66.55-.91A1.58,1.58,0,0,0,56.59,57a22.44,22.44,0,0,1,3.28,0,1,1,0,0,0,.32-.94,1.48,1.48,0,0,1,0-.81l5.63-.13s-.25,1,.63,1.24a37.33,37.33,0,0,0,4.73,0s.61.25.67-.81,0-3.62,0-3.62v-.46H70.28V50.14h1.27l.36-.36v-4l-.51-.51.6-.63V40.41l-1.81-.93Zm-5.85-15a1.19,1.19,0,1,1-1.19,1.19h0a1.19,1.19,0,0,1,1.16-1.22h0ZM52.62,36.21a1.19,1.19,0,1,1,1.19,1.19h0a1.18,1.18,0,0,1-1.19-1.17Zm1.73,21.08a1.19,1.19,0,1,1,1.19-1.19v0A1.18,1.18,0,0,1,54.35,57.29Zm9.94-10.67a1.19,1.19,0,1,1,1.19-1.19A1.19,1.19,0,0,1,64.29,46.62Zm3.35-14.07a1.19,1.19,0,1,1,1.19-1.19A1.19,1.19,0,0,1,67.64,32.55Z" style="fill: #1a2c80" transform="translate(0 0)"/>
    <circle cx="32.67" cy="56.75" r="1.19"/>
    <circle cx="64.29" cy="45.43" r="1.19"/>
  </g>
  <g data-name="Layer 5" id="Layer_5">
    <circle cx="26.08" cy="65.25" r="2.89" style="fill: none;stroke: #1a2c80;stroke-miterlimit: 10"/>
    <circle cx="33.18" cy="65.25" r="2.89" style="fill: none;stroke: #1a2c80;stroke-miterlimit: 10"/>
    <circle cx="40.38" cy="65.25" r="2.89" style="fill: none;stroke: #1a2c80;stroke-miterlimit: 10"/>
    <circle cx="47.57" cy="65.25" r="2.89" style="fill: none;stroke: #1a2c80;stroke-miterlimit: 10"/>
    <circle cx="54.76" cy="65.25" r="2.89" style="fill: none;stroke: #1a2c80;stroke-miterlimit: 10"/>
    <circle cx="18.75" cy="65.25" r="2.89" style="fill: none;stroke: #1a2c80;stroke-miterlimit: 10"/>
    <circle cx="26.19" cy="6.98" r="2.89" style="fill: none;stroke: #1a2c80;stroke-miterlimit: 10"/>
    <circle cx="33.3" cy="6.98" r="2.89" style="fill: none;stroke: #1a2c80;stroke-miterlimit: 10"/>
    <circle cx="40.49" cy="6.98" r="2.89" style="fill: none;stroke: #1a2c80;stroke-miterlimit: 10"/>
    <circle cx="47.69" cy="6.98" r="2.89" style="fill: none;stroke: #1a2c80;stroke-miterlimit: 10"/>
    <circle cx="54.88" cy="6.98" r="2.89" style="fill: none;stroke: #1a2c80;stroke-miterlimit: 10"/>
    <circle cx="18.86" cy="6.98" r="2.89" style="fill: none;stroke: #1a2c80;stroke-miterlimit: 10"/>
    <path d="M6.48,18.76v-1H8.76V20H7.1v1.34H8.64v1.25l-.71.7.92.92v4.19H6.23v1.38h.91v1.41h.38V30h3.89v5.47l3.78-3.79v3.19H13.11L11,37v1.21L13.22,36h3.52l.36,12.77-.53.65H13.82l-.62-.62V37.85h-.44l-.76.79v3l-.49.49,1,1v5l-.47.48H7.64V46.23H6.23v2.18H5.36V46.14H3.64v2H2.29L2,47.84V46.29H3.29V44.85H2v-2l.33-.33h1v-.78l-.15-.16V30.14h.31V28.79L3,28.26v-4.6l.32-.32-.72-.72V21.29H4V19.63H2.89V17.76H5.14V31.41s-.88.32-.88,0V23.14Z" style="fill: #1a2c80" transform="translate(0 0)"/>
    <polygon points="20.04 47.07 20.04 48.18 23.23 51.37 24.27 52.88 24.27 59.38 38.73 59.38 41.23 56.88 41.23 53.23 35.8 54.2 33.88 56.2 33.2 55.52 34.44 54.28 34.44 47.26 31.39 47.26 31.39 50.88 30.64 50.88 30.64 45.76 20.04 47.07" style="fill: #1a2c80"/>
    <circle cx="32.67" cy="56.75" r="1.33" style="fill: none;stroke: #fff;stroke-linecap: round;stroke-linejoin: round;stroke-width: 0.75px"/>
    <circle cx="54.35" cy="56.1" r="1.33" style="fill: none;stroke: #fff;stroke-linecap: round;stroke-linejoin: round;stroke-width: 0.75px"/>
    <circle cx="53.81" cy="36.21" r="1.33" style="fill: none;stroke: #fff;stroke-linecap: round;stroke-linejoin: round;stroke-width: 0.75px"/>
    <circle cx="67.64" cy="31.36" r="1.33" style="fill: none;stroke: #fff;stroke-linecap: round;stroke-linejoin: round;stroke-width: 0.75px"/>
    <circle cx="66.08" cy="24.67" r="1.33" style="fill: none;stroke: #fff;stroke-linecap: round;stroke-linejoin: round;stroke-width: 0.75px"/>
    <line style="fill: none;stroke: #fff;stroke-linecap: round;stroke-linejoin: round;stroke-width: 0.75px" x1="9.83" x2="9.83" y1="40.23" y2="43.94"/>
    <g>
      <polyline points="18.32 19.48 20.59 21.75 26.32 21.75 27.25 22.68 27.25 25.92" style="fill: none;stroke: #0b5597;stroke-linecap: round;stroke-linejoin: round;stroke-width: 0.75px"/>
      <polyline points="38.51 18.32 38.51 20.85 37.6 21.76 34.81 21.76 34.81 24.54" style="fill: none;stroke: #0b5597;stroke-linecap: round;stroke-linejoin: round;stroke-width: 0.75px"/>
      <line style="fill: none;stroke: #0b5597;stroke-linecap: round;stroke-linejoin: round;stroke-width: 0.75px" x1="29.42" x2="33.57" y1="17.61" y2="17.61"/>
      <polyline points="43.28 18.17 43.28 22.26 39.86 25.68" style="fill: none;stroke: #0b5597;stroke-linecap: round;stroke-linejoin: round;stroke-width: 0.75px"/>
      <polyline points="17.82 46.17 17.82 48.85 21.14 52.17 21.14 54.82 22.26 55.94 22.26 66.04" style="fill: none;stroke: #1a2c80;stroke-linecap: round;stroke-linejoin: round;stroke-width: 0.75px"/>
      <line style="fill: none;stroke: #0b5597;stroke-linecap: round;stroke-linejoin: round;stroke-width: 0.75px" x1="61.75" x2="64.07" y1="25.06" y2="25.06"/>
      <line style="fill: none;stroke: #0b5597;stroke-linecap: round;stroke-linejoin: round;stroke-width: 0.75px" x1="60.75" x2="60.75" y1="25.17" y2="30.03"/>
      <line style="fill: none;stroke: #0b5597;stroke-linecap: round;stroke-linejoin: round;stroke-width: 0.75px" x1="54.99" x2="54.99" y1="24.88" y2="30.03"/>
      <polyline points="62.22 33.92 62.96 33.92 62.96 39.68 61.38 40.79" style="fill: none;stroke: #0b5597;stroke-linecap: round;stroke-linejoin: round;stroke-width: 0.75px"/>
      <line style="fill: none;stroke: #0b5597;stroke-linecap: round;stroke-linejoin: round;stroke-width: 0.75px" x1="55.69" x2="57.25" y1="36.31" y2="36.31"/>
      <polyline points="54.79 31.79 53.81 31.79 50.05 35.51 46.63 35.9" style="fill: none;stroke: #0b5597;stroke-linecap: round;stroke-linejoin: round;stroke-width: 0.75px"/>
      <polyline points="46.92 37.55 50.73 37.55 54.84 41.65" style="fill: none;stroke: #0b5597;stroke-linecap: round;stroke-linejoin: round;stroke-width: 0.75px"/>
      <line style="fill: none;stroke: #0b5597;stroke-linecap: round;stroke-linejoin: round;stroke-width: 0.75px" x1="55.31" x2="55.31" y1="43.94" y2="47.42"/>
      <line style="fill: none;stroke: #0b5597;stroke-linecap: round;stroke-linejoin: round;stroke-width: 0.75px" x1="60.55" x2="60.55" y1="43.48" y2="48.29"/>
      <polyline points="65.21 46.46 66.3 47.55 67.25 47.55" style="fill: none;stroke: #0b5597;stroke-linecap: round;stroke-linejoin: round;stroke-width: 0.75px"/>
      <line style="fill: none;stroke: #0b5597;stroke-linecap: round;stroke-linejoin: round;stroke-width: 0.75px" x1="69.21" x2="69.21" y1="42.39" y2="48.18"/>
    </g>
    <polyline points="61.88 53.01 61.88 53.95 67.42 53.95" style="fill: none;stroke: #fff;stroke-linecap: round;stroke-linejoin: round;stroke-width: 0.75px"/>
    <path d="M50.88,39.88V55.14l1,1s.39-1.71,1.52-1.83A5,5,0,0,0,55.7,53l-.85-2H53V46.73L54,46V44.79H52.89l-.27-.44V41.14Z" style="fill: #0b5597" transform="translate(0 0)"/>
    <path d="M56.63,44.91h.91a.5.5,0,0,1,1,0h.81V46l-.83.83v3.86H57.46V46.73l-.91-.9Z" style="fill: #0b5597" transform="translate(0 0)"/>
    <path d="M63,47.64v4.85h2.92v-.72s-.17-.54.54-.54h1V50.14H66.1v-.68l-1.69-1.7Z" style="fill: #0b5597" transform="translate(0 0)"/>
    <polyline points="68.73 33.07 69.21 33.99 69.21 37.35" style="fill: none;stroke: #0b5597;stroke-linecap: round;stroke-linejoin: round;stroke-width: 0.75px"/>
  </g>
  <g data-name="Layer 3" id="Layer_3">
    <g>
      <g>
        <rect height="1.83" style="fill: #c9c7c9" width="2.41" x="22.42" y="23.33"/>
        <rect height="1.83" style="fill: #c9c7c9" width="2.41" x="26.08" y="23.33"/>
        <rect height="1.83" style="fill: #c9c7c9" width="2.41" x="29.73" y="23.33"/>
        <rect height="1.83" style="fill: #c9c7c9" width="2.41" x="33.39" y="23.33"/>
        <rect height="1.83" style="fill: #c9c7c9" width="2.41" x="37.04" y="23.33"/>
      </g>
      <rect height="1.83" style="fill: #c9c7c9" width="2.41" x="45.71" y="23.33"/>
      <rect height="1.83" style="fill: #c9c7c9" width="2.41" x="13.92" y="23.33"/>
    </g>
    <g>
      <g>
        <rect height="1.83" style="fill: #c9c7c9" width="2.41" x="22.42" y="47.26"/>
        <rect height="1.83" style="fill: #c9c7c9" width="2.41" x="26.08" y="47.26"/>
        <rect height="1.83" style="fill: #c9c7c9" width="2.41" x="29.73" y="47.26"/>
        <rect height="1.83" style="fill: #c9c7c9" width="2.41" x="33.39" y="47.26"/>
        <rect height="1.83" style="fill: #c9c7c9" width="2.41" x="37.04" y="47.26"/>
      </g>
      <rect height="1.83" style="fill: #c9c7c9" width="2.41" x="45.71" y="47.26"/>
      <rect height="1.83" style="fill: #c9c7c9" width="2.41" x="13.92" y="47.26"/>
    </g>
    <rect height="23.1" rx="0.9" ry="0.9" style="fill: url(#linear-gradient)" width="33.42" x="14.29" y="24.67"/>
    <rect height="21.29" rx="1.3" ry="1.3" style="fill: url(#linear-gradient-2)" width="31.79" x="15.13" y="25.45"/>
    <rect height="15.87" rx="1.89" ry="1.89" style="fill: url(#linear-gradient-3)" width="27.76" x="17.04" y="28.06"/>
    <path d="M20.4,53.9a3.9,3.9,0,0,0-3.4-.46,5.9,5.9,0,0,0-.43-3.16c-.22-.74-.56-1-1.17-.08A3.47,3.47,0,0,0,14,53.05c-.6-.85-1.78-.91-3.15-.72-.93.06-1,.47-.55,1.12a4,4,0,0,0,1.83,2c.46.07.69.17.32.33A4.26,4.26,0,0,0,11,58.69c-.21.93.21.93.88.58a3.89,3.89,0,0,0,2.51-1.13c.25-.27.45-.43.45-.14a.86.86,0,0,0,.27.72,8.47,8.47,0,0,0,2.05,1.62c.5.36.73.19.73-.43q.12-.67.18-1.35a2.52,2.52,0,0,0-.1-1.25,1.23,1.23,0,0,0-.12-.26l-.33-.26q-.48-.48.24-.39a3.3,3.3,0,0,0,2.54-1.31C21,54.58,20.92,54.21,20.4,53.9Z" style="fill: #fff" transform="translate(0 0)"/>
    <g>
      <path d="M13.59,16.14v2.69a1.09,1.09,0,1,1-2.18,0V16.14a1.09,1.09,0,0,1,2.18,0Z" style="fill: #bababa" transform="translate(0 0)"/>
      <path d="M19.41,16.14v2.69a1.1,1.1,0,0,1-2.19,0V16.14a1.1,1.1,0,0,1,2.19,0Z" style="fill: #bababa" transform="translate(0 0)"/>
      <rect height="2.95" rx="0.58" ry="0.58" style="fill: #e0e0e0" width="5.82" x="12.5" y="16.13"/>
      <rect height="2.95" style="fill: #b5947a" width="2.73" x="13.98" y="16.14"/>
    </g>
    <g>
      <path d="M6.92,20.72H4.24a1.09,1.09,0,1,1,0-2.18H6.92a1.09,1.09,0,1,1,0,2.18Z" style="fill: #bababa" transform="translate(0 0)"/>
      <path d="M6.92,26.54H4.24a1.1,1.1,0,0,1,0-2.19H6.92a1.1,1.1,0,0,1,0,2.19Z" style="fill: #bababa" transform="translate(0 0)"/>
      <rect height="5.82" rx="0.58" ry="0.58" style="fill: #e0e0e0" width="2.95" x="4.01" y="19.63"/>
      <rect height="2.73" style="fill: #b5947a" width="2.95" x="4.01" y="21.12"/>
    </g>
    <g>
      <path d="M5.1,44v2.68a1.09,1.09,0,0,1-2.18,0V44A1.09,1.09,0,1,1,5.1,44Z" style="fill: #bababa" transform="translate(0 0)"/>
      <path d="M10.92,44v2.68a1.09,1.09,0,0,1-2.18,0V44a1.09,1.09,0,1,1,2.18,0Z" style="fill: #bababa" transform="translate(0 0)"/>
      <rect height="2.95" rx="0.58" ry="0.58" style="fill: #e0e0e0" width="5.82" x="4.01" y="43.95"/>
      <rect height="2.95" style="fill: #b5947a" width="2.73" x="5.5" y="43.95"/>
    </g>
    <g>
      <path d="M34.42,16.14v2.69a1.1,1.1,0,0,1-2.19,0V16.14a1.1,1.1,0,0,1,2.19,0Z" style="fill: #bababa" transform="translate(0 0)"/>
      <path d="M40.23,16.14v2.69a1.09,1.09,0,0,1-2.18,0V16.14a1.09,1.09,0,1,1,2.18,0Z" style="fill: #bababa" transform="translate(0 0)"/>
      <rect height="2.95" rx="0.58" ry="0.58" style="fill: #e0e0e0" width="5.82" x="33.33" y="16.13"/>
      <rect height="2.95" style="fill: #b5947a" width="2.73" x="34.81" y="16.14"/>
    </g>
    <g>
      <path d="M44.37,16.14v2.69a1.09,1.09,0,0,1-2.18,0V16.14a1.09,1.09,0,1,1,2.18,0Z" style="fill: #bababa" transform="translate(0 0)"/>
      <path d="M50.19,16.14v2.69a1.09,1.09,0,0,1-2.18,0V16.14a1.09,1.09,0,1,1,2.18,0Z" style="fill: #bababa" transform="translate(0 0)"/>
      <rect height="2.95" rx="0.58" ry="0.58" style="fill: #e0e0e0" width="5.82" x="43.28" y="16.14"/>
      <rect height="2.95" style="fill: #b5947a" width="2.73" x="44.76" y="16.14"/>
    </g>
    <g>
      <path d="M56.4,16.83v2.68a1.09,1.09,0,1,1-2.18,0V16.83a1.09,1.09,0,0,1,2.18,0Z" style="fill: #bababa" transform="translate(0 0)"/>
      <path d="M62.22,16.83v2.68a1.09,1.09,0,1,1-2.18,0V16.83a1.09,1.09,0,0,1,2.18,0Z" style="fill: #bababa" transform="translate(0 0)"/>
      <rect height="2.95" rx="0.58" ry="0.58" style="fill: #e0e0e0" width="5.82" x="55.31" y="16.79"/>
      <rect height="2.95" style="fill: #b5947a" width="2.73" x="56.8" y="16.8"/>
    </g>
    <g>
      <path d="M56.4,22.58v2.68a1.09,1.09,0,1,1-2.18,0V22.58a1.09,1.09,0,1,1,2.18,0Z" style="fill: #bababa" transform="translate(0 0)"/>
      <path d="M62.22,22.58v2.68a1.09,1.09,0,1,1-2.18,0V22.58a1.09,1.09,0,1,1,2.18,0Z" style="fill: #bababa" transform="translate(0 0)"/>
      <rect height="2.95" rx="0.58" ry="0.58" style="fill: #e0e0e0" width="5.82" x="55.31" y="22.54"/>
      <rect height="2.95" width="2.73" x="56.8" y="22.55"/>
    </g>
    <g>
      <path d="M24.27,16.14v2.69a1.09,1.09,0,0,1-2.18,0V16.14a1.09,1.09,0,0,1,2.18,0Z" style="fill: #bababa" transform="translate(0 0)"/>
      <path d="M30.09,16.14v2.69a1.1,1.1,0,0,1-2.19,0V16.14a1.1,1.1,0,0,1,2.19,0Z" style="fill: #bababa" transform="translate(0 0)"/>
      <rect height="2.95" rx="0.58" ry="0.58" style="fill: #e0e0e0" width="5.82" x="23.18" y="16.14"/>
      <rect height="2.95" style="fill: #a4c5d6" width="2.95" x="24.44" y="16.14"/>
    </g>
    <g>
      <path d="M57,24.19h.13v-.52h.06v.61h.09V24.1h0v.23h-.42Z" style="fill: #fff" transform="translate(0 0)"/>
      <path d="M57.56,24.2v-.53a.06.06,0,0,1,0-.06H58v.59a.06.06,0,0,1,0,.06h-.4Zm.36,0v-.52h-.27v.52Z" style="fill: #fff" transform="translate(0 0)"/>
      <path d="M58.21,24.2v-.53a.11.11,0,0,1,.09-.09h.33a.06.06,0,0,1,0,.06v.53a.06.06,0,0,1,0,.06h-.39Zm.36,0v-.52H58.3v.52Z" style="fill: #fff" transform="translate(0 0)"/>
      <path d="M59.27,24.28h-.41V24a.09.09,0,0,1,0-.07h.33v-.22h0a0,0,0,1,1,.06.06V24a.06.06,0,0,1,0,.06H59v.21h.32a.06.06,0,0,1,0,.06Z" style="fill: #fff" transform="translate(0 0)"/>
    </g>
    <g>
      <g>
        <path d="M56.4,40.57v2.69a1.09,1.09,0,0,1-2.18,0V40.57a1.09,1.09,0,1,1,2.18,0Z" style="fill: #bababa" transform="translate(0 0)"/>
        <path d="M62.22,40.57v2.69a1.09,1.09,0,0,1-2.18,0V40.57a1.09,1.09,0,1,1,2.18,0Z" style="fill: #bababa" transform="translate(0 0)"/>
        <rect height="2.95" rx="0.58" ry="0.58" style="fill: #e0e0e0" width="5.82" x="55.31" y="40.54"/>
        <rect height="2.95" width="2.73" x="56.8" y="40.54"/>
      </g>
      <g>
        <path d="M57,42.19h.13v-.53H57m0-.06h.25v.61h.09V42h.06v.23H57Z" style="fill: #fff" transform="translate(0 0)"/>
        <path d="M57.56,42.19V41.6H58a.06.06,0,0,1,0,.06v.53a.06.06,0,0,1,0,.06h-.4Zm.36,0v-.53h-.27v.53Z" style="fill: #fff" transform="translate(0 0)"/>
        <path d="M58.21,42.19v-.53a.06.06,0,0,1,0-.06h.33a.11.11,0,0,1,.09.09v.53a.11.11,0,0,1-.09.09h-.3A.1.1,0,0,1,58.21,42.19Zm.36,0v-.53H58.3v.53Z" style="fill: #fff" transform="translate(0 0)"/>
        <path d="M59.27,42.28h-.41V42a.06.06,0,0,1,0-.06h.33v-.22h-.35m0-.06h.41a.06.06,0,0,1,0,.06v.22a.06.06,0,0,1,0,.06H59v.22h.35a.06.06,0,0,1,0,.06Z" style="fill: #fff" transform="translate(0 0)"/>
      </g>
    </g>
    <g>
      <g>
        <path d="M70.55,37.66H67.87a1.09,1.09,0,0,1,0-2.18h2.68a1.09,1.09,0,0,1,0,2.18Z" style="fill: #bababa" transform="translate(0 0)"/>
        <path d="M70.55,43.48H67.87a1.09,1.09,0,0,1,0-2.18h2.68a1.09,1.09,0,0,1,0,2.18Z" style="fill: #bababa" transform="translate(0 0)"/>
        <rect height="5.82" rx="0.58" ry="0.58" style="fill: #e0e0e0" width="2.95" x="67.64" y="36.58"/>
        <rect height="2.73" width="2.95" x="67.64" y="38.06"/>
      </g>
      <g>
        <path d="M68.94,38.21v.14h.52v-.14h.06v.23h-.61v.09h.21m0,.06h-.29v-.36h.06Z" style="fill: #fff" transform="translate(0 0)"/>
        <path d="M68.93,38.82h.59a.06.06,0,0,1,0,.06v.26a.06.06,0,0,1,0,.06h-.65v-.39Zm0,.36h.52v-.27h-.52Z" style="fill: #fff" transform="translate(0 0)"/>
        <path d="M68.93,39.47h.59a.06.06,0,0,1,0,.06v.28h-.65v-.33a.06.06,0,0,1,0-.06A.1.1,0,0,1,68.93,39.47Zm0,.36h.52v-.27h-.52Z" style="fill: #fff" transform="translate(0 0)"/>
        <path d="M68.85,40.53v-.39h.37a.09.09,0,0,1,0,.07v.26h.22v-.33h0v.31a.09.09,0,0,1,0,.07H69.1a.09.09,0,0,1,0-.07v-.26h-.21v.31h-.06Z" style="fill: #fff" transform="translate(0 0)"/>
      </g>
    </g>
    <g>
      <g>
        <path d="M67.87,52.49h2.68a1.09,1.09,0,1,1,0,2.18H67.87a1.09,1.09,0,1,1,0-2.18Z" style="fill: #bababa" transform="translate(0 0)"/>
        <path d="M67.87,46.67h2.68a1.09,1.09,0,1,1,0,2.18H67.87a1.09,1.09,0,1,1,0-2.18Z" style="fill: #bababa" transform="translate(0 0)"/>
        <rect height="5.82" rx="0.58" ry="0.58" style="fill: #e0e0e0" width="2.95" x="67.83" y="47.76"/>
        <rect height="2.73" width="2.95" x="67.83" y="49.37"/>
      </g>
      <g>
        <path d="M69.48,51.94v-.13H69v.13h-.07v-.22h.61v-.09h.06V52h0Z" style="fill: #fff" transform="translate(0 0)"/>
        <path d="M69.48,51.33h-.54v-.4h.65a.06.06,0,0,1,0,.06v.28a.06.06,0,0,1,0,.06Zm0-.36H69v.27h.52Z" style="fill: #fff" transform="translate(0 0)"/>
        <path d="M69.48,50.68h-.54a.09.09,0,0,1,0-.07v-.33h.65a.06.06,0,0,1,0,.06v.27a.09.09,0,0,1,0,.07Zm0-.36H69v.27h.52Z" style="fill: #fff" transform="translate(0 0)"/>
        <path d="M69.57,49.62V50h-.31a.11.11,0,0,1-.09-.09v-.27H69V50h-.07v-.32a.11.11,0,0,1,.09-.09h.28a.06.06,0,0,1,0,.06v.27h.22v-.32h.07Z" style="fill: #fff" transform="translate(0 0)"/>
      </g>
    </g>
    <g>
      <g>
        <path d="M41.05,54.44V51.76a1.09,1.09,0,0,1,2.18,0v2.68a1.09,1.09,0,0,1-2.18,0Z" style="fill: #bababa" transform="translate(0 0)"/>
        <path d="M35.23,54.44V51.76a1.09,1.09,0,0,1,2.18,0v2.68a1.09,1.09,0,0,1-2.18,0Z" style="fill: #bababa" transform="translate(0 0)"/>
        <rect height="2.95" rx="0.58" ry="0.58" style="fill: #e0e0e0" width="5.82" x="36.32" y="51.53"/>
        <rect height="2.95" width="2.73" x="37.92" y="51.53"/>
      </g>
      <g>
        <path d="M40.5,52.83h-.13v.52h-.12v-.61h-.09v.18h-.07V52.7h.42Z" style="fill: #fff" transform="translate(0 0)"/>
        <path d="M39.89,52.83v.53a.06.06,0,0,1,0,.06h-.4v-.59a0,0,0,1,1,.06-.06h.28a.06.06,0,0,1,.06,0Zm-.35,0v.52h.27v-.52Z" style="fill: #fff" transform="translate(0 0)"/>
        <path d="M39.24,52.83v.59h-.4a.06.06,0,0,1,0-.06v-.59a.06.06,0,0,1,.06,0h.28a0,0,0,1,1,.06.06Zm-.36,0v.52h.27v-.52Z" style="fill: #fff" transform="translate(0 0)"/>
        <path d="M38.19,52.74h.4v.31a.06.06,0,0,1,0,.06h-.33v.21h-.09a.06.06,0,0,1,0-.06v-.12a.09.09,0,0,1,0-.07h.33v-.22h-.35Z" style="fill: #fff" transform="translate(0 0)"/>
      </g>
    </g>
    <g>
      <g>
        <path d="M28.24,54.44V51.76a1.09,1.09,0,0,1,2.18,0v2.68a1.09,1.09,0,0,1-2.18,0Z" style="fill: #bababa" transform="translate(0 0)"/>
        <path d="M22.42,54.44V51.76a1.09,1.09,0,0,1,2.18,0v2.68a1.09,1.09,0,0,1-2.18,0Z" style="fill: #bababa" transform="translate(0 0)"/>
        <rect height="2.95" rx="0.58" ry="0.58" style="fill: #e0e0e0" width="5.82" x="23.51" y="51.53"/>
        <rect height="2.95" width="2.73" x="25.11" y="51.54"/>
      </g>
      <g>
        <path d="M27.69,52.83h-.14v.52h-.11v-.61h-.09v.18H27.3V52.7h.42Z" style="fill: #fff" transform="translate(0 0)"/>
        <path d="M27.08,52.83v.59h-.4a.06.06,0,0,1,0-.06v-.59a.06.06,0,0,1,.06,0H27a.06.06,0,0,1,.06,0A.14.14,0,0,1,27.08,52.83Zm-.36,0v.52H27v-.52Z" style="fill: #fff" transform="translate(0 0)"/>
        <path d="M26.43,52.83v.53a.06.06,0,0,1,0,.06H26a.06.06,0,0,1,0-.06v-.53a0,0,0,1,1,.06-.06h.27a.11.11,0,0,1,.09.09Zm-.36,0v.52h.27v-.52Z" style="fill: #fff" transform="translate(0 0)"/>
        <path d="M25.37,52.74h.41v.31a.11.11,0,0,1-.09.09h-.27v.21h0a.11.11,0,0,1-.09-.09v-.12a.09.09,0,0,1,0-.07h.33v-.22h-.35Z" style="fill: #fff" transform="translate(0 0)"/>
      </g>
    </g>
    <g>
      <path d="M54.49,31h.06v.28a.09.09,0,0,0,.09.09h1.11a.09.09,0,0,0,.09-.09h0V31h.66a.29.29,0,0,0,.3-.28V28.62a.29.29,0,0,0-.3-.3h-2a.31.31,0,0,0-.31.3v2.07a.29.29,0,0,0,.3.3Z" style="fill: #b1aeaa" transform="translate(0 0)"/>
      <path d="M60,31h0v.28a.09.09,0,0,0,.09.09h1.1a.09.09,0,0,0,.1-.08h0V31H62a.32.32,0,0,0,.3-.3V28.59a.29.29,0,0,0-.3-.3H60a.29.29,0,0,0-.31.29h0v2.07A.31.31,0,0,0,60,31Z" style="fill: #b1aeaa" transform="translate(0 0)"/>
      <path d="M59.34,35.23h-.07V35a.1.1,0,0,0-.11-.09H58a.1.1,0,0,0-.11.09h0v.28h-.71a.32.32,0,0,0-.34.3h0V37.6a.33.33,0,0,0,.34.29h2.2a.31.31,0,0,0,.33-.29h0V35.53a.31.31,0,0,0-.31-.31Z" style="fill: #b1aeaa" transform="translate(0 0)"/>
      <rect height="4.35" rx="0.91" ry="0.91" style="fill: #3a393c" width="8.86" x="53.8" y="31.16"/>
    </g>
    <g>
      <path d="M54.49,49.43h.06v.28a.09.09,0,0,0,.09.09h1.11a.09.09,0,0,0,.09-.09h0v-.28h.66a.29.29,0,0,0,.3-.28V47.06a.29.29,0,0,0-.3-.3h-2a.31.31,0,0,0-.31.3v2.08A.31.31,0,0,0,54.49,49.43Z" style="fill: #b1aeaa" transform="translate(0 0)"/>
      <path d="M60,49.4h0v.28a.09.09,0,0,0,.09.09h1.1a.09.09,0,0,0,.1-.08h0V49.4H62a.32.32,0,0,0,.3-.3V47a.29.29,0,0,0-.3-.3H60a.29.29,0,0,0-.31.29h0v2.11A.31.31,0,0,0,60,49.4Z" style="fill: #b1aeaa" transform="translate(0 0)"/>
      <path d="M59.34,53.67h-.07v-.28a.1.1,0,0,0-.11-.09H58a.1.1,0,0,0-.11.09h0v.28h-.71a.32.32,0,0,0-.34.3h0V56a.32.32,0,0,0,.34.3h2.2a.32.32,0,0,0,.33-.3V54a.31.31,0,0,0-.31-.31Z" style="fill: #b1aeaa" transform="translate(0 0)"/>
      <rect height="4.35" rx="0.91" ry="0.91" style="fill: #3a393c" width="8.86" x="53.8" y="49.6"/>
    </g>
    <g>
      <rect height="2.14" style="fill: #b1aeaa" width="1.64" x="4.01" y="30.49"/>
      <rect height="0.96" style="fill: #bcbcbc" width="1.17" x="4.26" y="32.62"/>
      <rect height="2.14" style="fill: #b1aeaa" width="1.64" x="6.7" y="30.49"/>
      <rect height="0.96" style="fill: #bcbcbc" width="1.17" x="6.95" y="32.63"/>
      <rect height="2.14" style="fill: #b1aeaa" width="1.64" x="9.36" y="30.48"/>
      <rect height="0.96" style="fill: #bcbcbc" width="1.17" x="9.61" y="32.62"/>
      <rect height="2.14" style="fill: #b1aeaa" width="1.64" x="9.28" y="39.17"/>
      <rect height="0.96" style="fill: #bcbcbc" width="1.17" x="9.5" y="38.21"/>
      <rect height="2.14" style="fill: #b1aeaa" width="1.64" x="3.97" y="39.16"/>
      <rect height="0.96" style="fill: #bcbcbc" width="1.17" x="4.19" y="38.21"/>
      <rect height="4.63" style="fill: #303030" width="8" x="3.64" y="33.58"/>
    </g>
    <g>
      <circle cx="67.98" cy="17.85" r="2.77" style="fill: #908477"/>
      <circle cx="67.98" cy="17.85" r="1.23" style="fill: #e9d1a7"/>
    </g>
    <g>
      <circle cx="4.19" cy="55.87" r="2.77" style="fill: #908477"/>
      <circle cx="4.19" cy="55.87" r="1.23" style="fill: #e9d1a7"/>
    </g>
    <path d="M66.08,60.53a5.1,5.1,0,1,0,5.1,5.1h0A5.1,5.1,0,0,0,66.08,60.53Zm0,8.37a3.28,3.28,0,1,1,3.27-3.29v0A3.26,3.26,0,0,1,66.08,68.9Z" style="fill: #f7e2b2" transform="translate(0 0)"/>
    <path d="M66.08,1.88A5.1,5.1,0,1,0,71.18,7h0A5.1,5.1,0,0,0,66.08,1.88Zm0,8.37A3.28,3.28,0,1,1,69.35,7V7A3.26,3.26,0,0,1,66.08,10.25Z" style="fill: #f7e2b2" transform="translate(0 0)"/>
    <path d="M8,1.88A5.1,5.1,0,1,0,13.1,7,5.1,5.1,0,0,0,8,1.88Zm0,8.37A3.28,3.28,0,1,1,11.28,7h0A3.26,3.26,0,0,1,8,10.25Z" style="fill: #f7e2b2" transform="translate(0 0)"/>
    <path d="M8,60.53a5.1,5.1,0,1,0,5.1,5.1h0A5.1,5.1,0,0,0,8,60.53ZM8,68.9a3.28,3.28,0,1,1,3.28-3.28h0A3.26,3.26,0,0,1,8,68.9Z" style="fill: #f7e2b2" transform="translate(0 0)"/>
    <g>
      <rect height="7.88" rx="0.64" ry="0.64" style="fill: #8c8c8c" width="7.56" x="32.95" y="32.17"/>
      <rect height="7.88" rx="2" ry="2" width="7.56" x="32.95" y="32.17"/>
    </g>
    <path d="M20.72,33.19v-2h1a.43.43,0,0,1,.3.13.42.42,0,0,1,.12.3v.53a.44.44,0,0,1-.42.43H21v.71a.17.17,0,0,1,0,.1h-.21A.15.15,0,0,1,20.72,33.19Zm.29-1h.72a.07.07,0,1,0,.1-.1v-.53a.07.07,0,1,0-.1-.1H21Z" style="fill: #7c7e89" transform="translate(0 0)"/>
    <g>
      <path d="M22.15,34.85v.53a.42.42,0,0,1-.12.3.36.36,0,0,1,.12.28v.56a.32.32,0,0,1-.08.2.32.32,0,0,1-.21.08h-1a.16.16,0,0,1-.1-.2h1.1V36a.14.14,0,0,0-.14-.14h-.57a.14.14,0,0,1-.14-.14.17.17,0,0,1,0-.1h.67a.07.07,0,0,0,.1-.1V35h-1.1a.17.17,0,0,1,0-.21.17.17,0,0,1,.1,0h1a.27.27,0,0,1,.21.09A.3.3,0,0,1,22.15,34.85Z" style="fill: #7c7e89" transform="translate(0 0)"/>
      <path d="M24.23,34.85v.53a.46.46,0,0,1-.11.3.36.36,0,0,1,.12.28v.56a.25.25,0,0,1-.09.2.3.3,0,0,1-.2.08H23a.14.14,0,0,1-.14-.14.07.07,0,0,1,.1-.1h1V36a.12.12,0,0,0-.05-.1h-.77a.17.17,0,0,1,0-.1.17.17,0,0,1,0-.1.21.21,0,0,1,.11,0h.67a.17.17,0,0,0,0-.1v-.54h-1.1a.21.21,0,0,1,0-.11.17.17,0,0,1,0-.1h1.1a.25.25,0,0,1,.2.09A.31.31,0,0,1,24.23,34.85Z" style="fill: #7c7e89" transform="translate(0 0)"/>
    </g>
    <g>
      <path d="M21.23,39.46h.33V38.19h-.32a.1.1,0,0,1-.11-.09v0a.09.09,0,0,1,0-.07h.62V39.5H22v-.45A.09.09,0,0,1,22,39a.11.11,0,0,1,.14,0l0,0a.09.09,0,0,1,0,.07v.56a.06.06,0,0,1-.08.08h-.87a.11.11,0,0,1-.11-.11.1.1,0,0,1,.09-.11h0Z" style="fill: #7c7e89" transform="translate(0 0)"/>
      <path d="M22.83,38H23A.09.09,0,0,1,23,38a.12.12,0,0,1,0,.1h-.07v.71h.83a.11.11,0,0,1,0,.08v.56a.11.11,0,0,1,0,.08h-.94a.11.11,0,0,1-.11-.11V38.08a.09.09,0,0,1,0-.07A.11.11,0,0,1,22.83,38Zm.1,1.15v.34h.65v-.32Z" style="fill: #7c7e89" transform="translate(0 0)"/>
      <path d="M24.3,38.14h0a.1.1,0,0,1,.09-.11h1v.66a.14.14,0,0,1,0,.09l-.39.34v.5a.11.11,0,0,1-.22,0v-.54a.09.09,0,0,1,0-.1l.4-.34v-.4h-.66a.11.11,0,0,1-.1.1h-.08a.1.1,0,0,1-.06-.2Z" style="fill: #7c7e89" transform="translate(0 0)"/>
      <path d="M26,39.46h.33V38.19H26a.1.1,0,0,1-.11-.09v0a.09.09,0,0,1,0-.07h.62V39.5h.21v-.45a.09.09,0,0,1,0-.07.11.11,0,0,1,.14,0l0,0a.09.09,0,0,1,0,.07v.56a.06.06,0,0,1-.08.08H26a.11.11,0,0,1-.08,0,.09.09,0,0,1,0-.07.11.11,0,0,1,0-.08A.11.11,0,0,1,26,39.46Z" style="fill: #7c7e89" transform="translate(0 0)"/>
      <path d="M27.58,39.46h.33V38.19h-.33a.09.09,0,0,1-.07,0,.11.11,0,0,1,0-.08.15.15,0,0,1,.11-.11h.54v1.49h.22V39a.09.09,0,0,1,0-.07h.15a.09.09,0,0,1,0,.07v.56a.11.11,0,0,1,0,.08h-.94a.11.11,0,0,1-.11-.11.1.1,0,0,1,.09-.11h0Z" style="fill: #7c7e89" transform="translate(0 0)"/>
      <path d="M30,39.68H29v-.75a.18.18,0,0,1,.07-.15.21.21,0,0,1,.15-.07h.65v-.52H29.1a.06.06,0,0,1-.08-.08A.09.09,0,0,1,29,38h.85a.24.24,0,0,1,.16.07.2.2,0,0,1,.06.15v.52a.21.21,0,0,1-.22.22h-.65v.53H30a.1.1,0,0,1,.11.09v0a.11.11,0,0,1,0,.08A.12.12,0,0,1,30,39.68Z" style="fill: #7c7e89" transform="translate(0 0)"/>
    </g>
  </g>
  <g id="text">
    <g>
      <path d="M24.84,3.39,25.76.28A.22.22,0,0,1,26,.14a.2.2,0,0,1,.21.14l.9,3.16a.09.09,0,0,1,0,.07.23.23,0,0,1-.06.16.2.2,0,0,1-.15.06.22.22,0,0,1-.23-.16L26.49,3h-1l-.2.66a.14.14,0,0,1-.07.08.29.29,0,0,1-.13,0,.21.21,0,0,1-.23-.19v0A.19.19,0,0,1,24.84,3.39ZM26,1.14l-.39,1.3h.77Z" style="fill: #fff" transform="translate(0 0)"/>
      <path d="M29.09,1.52V1.41L28.61.74V3.48a.21.21,0,0,1-.2.22h0a.22.22,0,0,1-.23-.21h0V.14h.59l.56.82.57-.82h.58V3.48a.24.24,0,0,1-.07.16.23.23,0,0,1-.16.06A.22.22,0,0,1,30,3.49h0V.75l-.46.65v.12a.26.26,0,0,1-.23.23.2.2,0,0,1-.16-.07A.23.23,0,0,1,29.09,1.52Z" style="fill: #fff" transform="translate(0 0)"/>
      <path d="M32.83.14h.75a.22.22,0,0,1,.17.07.23.23,0,0,1,.06.16.2.2,0,0,1-.07.16.2.2,0,0,1-.16.07h-.72a.22.22,0,0,0-.18.1L32,1.49a.38.38,0,0,0-.08.27V3a.2.2,0,0,0,.08.12.2.2,0,0,0,.16.07h.92a.18.18,0,0,0,.19-.07A.2.2,0,0,0,33.34,3V2.53h-.47a.2.2,0,0,1-.16-.07.22.22,0,0,1,0-.32.23.23,0,0,1,.16-.06h.93V3a.67.67,0,0,1-.68.68h-.93A.67.67,0,0,1,31.5,3h0V1.77a.88.88,0,0,1,.18-.57l.67-.86a.58.58,0,0,1,.21-.2A.61.61,0,0,1,32.83.14Z" style="fill: #fff" transform="translate(0 0)"/>
      <path d="M34.84,3.24V2.14A.42.42,0,0,1,35,1.81a.42.42,0,0,1,.32-.13V.34a.21.21,0,0,1,0-.2.22.22,0,0,1,.16,0h.92a.2.2,0,0,1,.16.07.2.2,0,0,1,.07.16V1.68a.42.42,0,0,1,.32.13.39.39,0,0,1,.13.32V3.24a.42.42,0,0,1-.13.32.43.43,0,0,1-.32.14H35.3a.52.52,0,0,1-.46-.46Zm.46-1.1v1.1h1.38V2.14ZM35.75.58v1.1h.47V.57Z" style="fill: #fff" transform="translate(0 0)"/>
      <path d="M38.18,3.24V2.14a.43.43,0,0,1,.14-.32.42.42,0,0,1,.32-.13V.34a.25.25,0,0,1,.07-.2.22.22,0,0,1,.16,0h.92a.2.2,0,0,1,.21,0,.23.23,0,0,1,0,.2V1.68a.42.42,0,0,1,.32.13.43.43,0,0,1,.14.32V3.24A.48.48,0,0,1,40,3.7H38.64a.48.48,0,0,1-.46-.46Zm.46-1.1v1.1H40V2.14ZM39.1.58v1.1h.47V.57Z" style="fill: #fff" transform="translate(0 0)"/>
      <path d="M43.83.57v.85a.66.66,0,0,1-.18.48.66.66,0,0,1,.19.46v.88a.48.48,0,0,1-.46.46H41.77a.2.2,0,0,1-.16-.07.23.23,0,0,1,0-.33.2.2,0,0,1,.15-.06h1.6V2.36a.22.22,0,0,0-.07-.17.18.18,0,0,0-.16,0h-.91a.23.23,0,0,1-.16-.39.2.2,0,0,1,.16-.07h.92a.2.2,0,0,0,.16-.07.24.24,0,0,0,.07-.16V.57H41.75A.24.24,0,0,1,41.59.5a.23.23,0,0,1-.06-.16.24.24,0,0,1,.06-.2.22.22,0,0,1,.16,0h1.63a.43.43,0,0,1,.32.14A.41.41,0,0,1,43.83.57Z" style="fill: #fff" transform="translate(0 0)"/>
      <path d="M47.17.57v.85A.66.66,0,0,1,47,1.9a.66.66,0,0,1,.19.46v.88a.48.48,0,0,1-.46.46H45.11A.26.26,0,0,1,45,3.63a.24.24,0,0,1,0-.32.24.24,0,0,1,.16-.07h1.6V2.36a.27.27,0,0,0-.06-.17.23.23,0,0,0-.21,0h-.92a.24.24,0,0,1-.16-.07.24.24,0,0,1,0-.32.2.2,0,0,1,.16-.07h.92a.2.2,0,0,0,.16-.07.2.2,0,0,0,.07-.16V.57H45.1A.24.24,0,0,1,44.94.5a.2.2,0,0,1-.07-.16.2.2,0,0,1,.07-.2.22.22,0,0,1,.16,0h1.62A.43.43,0,0,1,47,.28.41.41,0,0,1,47.17.57Z" style="fill: #fff" transform="translate(0 0)"/>
    </g>
    <g>
      <path d="M14.1,14V12.92a.43.43,0,0,1,.13-.3.44.44,0,0,1,.31-.13V11.22a.2.2,0,0,1,.06-.15.24.24,0,0,1,.16-.07h.87a.24.24,0,0,1,.16.07.2.2,0,0,1,.06.15v1.27a.44.44,0,0,1,.43.43V14a.44.44,0,0,1-.13.31.42.42,0,0,1-.3.12H14.54a.44.44,0,0,1-.31-.13A.43.43,0,0,1,14.1,14Zm.44-1.06V14h1.31V12.92ZM15,11.44v1h.45v-1Z" style="fill: #fff" transform="translate(0 0)"/>
      <path d="M18.42,13.14l-.69,1.18a.22.22,0,0,1-.18.1.2.2,0,0,1-.16-.07.2.2,0,0,1-.06-.15.24.24,0,0,1,0-.12l.8-1.37-.79-1.35a.38.38,0,0,1,0-.15.2.2,0,0,1,.06-.14.21.21,0,0,1,.15-.07.19.19,0,0,1,.18.11l.7,1.17.68-1.14a.2.2,0,0,1,.18-.11.24.24,0,0,1,.16.07.18.18,0,0,1,.07.15.21.21,0,0,1,0,.11l-.81,1.38.77,1.4a.21.21,0,0,1,0,.11.21.21,0,0,1-.22.22.22.22,0,0,1-.18-.1Z" style="fill: #fff" transform="translate(0 0)"/>
      <path d="M20.46,14V12.92a.39.39,0,0,1,.13-.3.4.4,0,0,1,.31-.13V11.22a.2.2,0,0,1,.06-.15.21.21,0,0,1,.15-.07H22a.21.21,0,0,1,.15.07.2.2,0,0,1,.06.15v1.27a.44.44,0,0,1,.44.43V14a.44.44,0,0,1-.13.31.45.45,0,0,1-.31.12H20.9a.37.37,0,0,1-.31-.13A.43.43,0,0,1,20.46,14Zm.44-1.06V14h1.3V12.92Zm.43-1.48v1h.44v-1Z" style="fill: #fff" transform="translate(0 0)"/>
      <path d="M27,11h1.74a.24.24,0,0,1,.16.07.22.22,0,0,1-.14.37h-.67V14h.65a.23.23,0,0,1,.16.06.22.22,0,0,1-.14.37H27a.2.2,0,0,1-.15-.06.2.2,0,0,1-.07-.16.18.18,0,0,1,.07-.15A.2.2,0,0,1,27,14h.66V11.44H27a.2.2,0,0,1-.15-.06.21.21,0,0,1-.07-.15.2.2,0,0,1,.07-.16A.21.21,0,0,1,27,11Z" style="fill: #fff" transform="translate(0 0)"/>
      <path d="M30,14.2V11h1.53a.68.68,0,0,1,.64.66v.24a.68.68,0,0,1-.64.66h-.28l.88,1.51a.29.29,0,0,1,0,.13.21.21,0,0,1-.2.22h0a.21.21,0,0,1-.19-.12l-1-1.74h-.31V14.2a.24.24,0,0,1-.07.16.2.2,0,0,1-.15.06.23.23,0,0,1-.16-.06A.22.22,0,0,1,30,14.2Zm.44-2.06h1.1a.21.21,0,0,0,.21-.21v-.25a.23.23,0,0,0-.06-.16.2.2,0,0,0-.15-.06h-1.1Z" style="fill: #fff" transform="translate(0 0)"/>
      <path d="M37.61,11h.72a.21.21,0,0,1,.15.07.2.2,0,0,1,.06.15.22.22,0,0,1-.21.22h-.69a.21.21,0,0,0-.17.1l-.61.77a.41.41,0,0,0-.07.26v1.2a.2.2,0,0,0,.06.15A.18.18,0,0,0,37,14h.88a.18.18,0,0,0,.15-.07.21.21,0,0,0,.07-.15V13.3h-.45a.23.23,0,0,1-.16-.06.22.22,0,0,1,.14-.37h.9v.9a.65.65,0,0,1-.65.65H37a.65.65,0,0,1-.65-.65V12.58a.83.83,0,0,1,.17-.54l.64-.81a.42.42,0,0,1,.19-.16A.59.59,0,0,1,37.61,11Z" style="fill: #fff" transform="translate(0 0)"/>
      <path d="M39.54,14.2V11h1.53a.61.61,0,0,1,.45.2.66.66,0,0,1,.19.46v.24a.58.58,0,0,1-.19.46.59.59,0,0,1-.45.2h-.28l.88,1.51a.29.29,0,0,1,0,.13.23.23,0,0,1-.06.16.2.2,0,0,1-.15.06.22.22,0,0,1-.2-.12l-1-1.74H40V14.2a.2.2,0,0,1-.07.16.22.22,0,0,1-.37-.14v0ZM40,12.14h1.1a.21.21,0,0,0,.21-.21v-.25a.23.23,0,0,0-.06-.16.2.2,0,0,0-.15-.06H40Z" style="fill: #fff" transform="translate(0 0)"/>
      <path d="M42.92,11h1.75a.22.22,0,0,1,.15.38.2.2,0,0,1-.15.06H44V14h.65a.2.2,0,0,1,.15.06.18.18,0,0,1,.07.15.24.24,0,0,1-.07.16.2.2,0,0,1-.15.06H42.92a.2.2,0,0,1-.15-.06.23.23,0,0,1-.06-.16.21.21,0,0,1,.21-.21h.67V11.44h-.67a.21.21,0,0,1-.21-.21.22.22,0,0,1,.21-.23Z" style="fill: #fff" transform="translate(0 0)"/>
      <path d="M46.1,11H47a.76.76,0,0,1,.33.11.71.71,0,0,1,.23.26l.43.86a1,1,0,0,1,.12.49,1,1,0,0,1-.13.48l-.43.86a.6.6,0,0,1-.24.26.59.59,0,0,1-.34.1H46.1a.2.2,0,0,1-.16-.07.22.22,0,0,1,0-.3A.2.2,0,0,1,46.1,14h.22V11.44H46.1a.2.2,0,0,1-.15-.06.23.23,0,0,1-.06-.16.2.2,0,0,1,.06-.15A.21.21,0,0,1,46.1,11Zm.65.44V14h.15a.24.24,0,0,0,.22-.14l.43-.85a.9.9,0,0,0,.08-.28.52.52,0,0,0-.07-.27l-.44-.88a.25.25,0,0,0-.22-.13Z" style="fill: #fff" transform="translate(0 0)"/>
      <path d="M51,11.44H49.5v1h.66a.18.18,0,0,1,.15.07.22.22,0,0,1,0,.3.18.18,0,0,1-.15.07H49.5v1.06H51a.2.2,0,0,1,.15.06.21.21,0,0,1,.07.15.24.24,0,0,1-.07.16.2.2,0,0,1-.15.06H49V11h2a.21.21,0,0,1,.15.07.24.24,0,0,1,.07.16.26.26,0,0,1-.07.15A.2.2,0,0,1,51,11.44Z" style="fill: #fff" transform="translate(0 0)"/>
      <path d="M53.56,12.78V14.2a.24.24,0,0,1-.07.16.22.22,0,0,1-.37-.14V12.78l-.87-1.1v-.45a.23.23,0,0,1,.06-.16.24.24,0,0,1,.16-.07.21.21,0,0,1,.15.07.24.24,0,0,1,.07.16v.29l.64.84.66-.83v-.3a.2.2,0,0,1,.07-.16.2.2,0,0,1,.3,0,.23.23,0,0,1,.06.16v.45Z" style="fill: #fff" transform="translate(0 0)"/>
      <path d="M57.38,11.44H55.85v1h.66a.22.22,0,1,1,0,.44h-.66v1.06h1.53a.23.23,0,0,1,.16.06.2.2,0,0,1,.06.15.2.2,0,0,1-.07.16.2.2,0,0,1-.15.06h-2V11h2a.21.21,0,0,1,.15.07.2.2,0,0,1,.07.16.21.21,0,0,1-.07.15A.2.2,0,0,1,57.38,11.44Z" style="fill: #fff" transform="translate(0 0)"/>
    </g>
    <g>
      <path d="M23.08,58.84v.81a.61.61,0,0,1-.18.46.62.62,0,0,1,.18.43v.84a.44.44,0,0,1-.43.44H21.12a.18.18,0,0,1-.15-.07.22.22,0,0,1,0-.3.21.21,0,0,1,.15-.07h1.52v-.84a.2.2,0,0,0-.06-.15.18.18,0,0,0-.15-.07h-.87a.23.23,0,0,1-.16-.06.2.2,0,0,1-.06-.15.21.21,0,0,1,.22-.22h.87a.2.2,0,0,0,.15-.06.2.2,0,0,0,.07-.16v-.83H21.11a.21.21,0,0,1-.22-.22.2.2,0,0,1,.06-.15.23.23,0,0,1,.16-.06h1.54A.44.44,0,0,1,23.08,58.84Z" style="fill: #fff" transform="translate(0 0)"/>
      <path d="M26.27,58.63v.79l-.88,2.24a.22.22,0,0,1-.43,0l-.87-2.24v-.79a.23.23,0,0,1,.06-.16.22.22,0,0,1,.37.14v.72L25.18,61l.65-1.67v-.71a.2.2,0,0,1,.07-.16.22.22,0,0,1,.3,0A.24.24,0,0,1,26.27,58.63Z" style="fill: #fff" transform="translate(0 0)"/>
      <path d="M29.43,60.14v.91a.71.71,0,0,1-.27.54.85.85,0,0,1-.56.25h-.51a.88.88,0,0,1-.57-.25.75.75,0,0,1-.27-.54v-.91a.73.73,0,0,1,.27-.53.77.77,0,0,1,.57-.25h.51a.8.8,0,0,1,.56.24A.71.71,0,0,1,29.43,60.14Zm-1.74,0V61a.25.25,0,0,0,.09.19l.16.14a.2.2,0,0,0,.15,0h.5a.31.31,0,0,0,.2-.07l.13-.12A.21.21,0,0,0,29,61v-.84a.27.27,0,0,0-.08-.19l-.15-.12a.28.28,0,0,0-.18-.06h-.45a.29.29,0,0,0-.22.07l-.15.12A.25.25,0,0,0,27.69,60.14Z" style="fill: #fff" transform="translate(0 0)"/>
    </g>
    <g>
      <path d="M35.87,58.41H37a.59.59,0,0,1,.57.59.23.23,0,0,1-.06.16.2.2,0,0,1-.15.06.19.19,0,0,1-.15,0,.42.42,0,0,1-.08-.18A.16.16,0,0,0,37,58.9H35.82a.09.09,0,0,0,0,.07L37.43,61a.52.52,0,0,1,.11.32.44.44,0,0,1-.14.33.42.42,0,0,1-.31.15H36a.58.58,0,0,1-.41-.17.56.56,0,0,1-.17-.39A.21.21,0,0,1,35.6,61h0a.21.21,0,0,1,.21.21.21.21,0,0,0,0,.11h1.19s.07,0,.07-.06a.06.06,0,0,0,0-.06l-1.6-2a.47.47,0,0,1-.12-.32.5.5,0,0,1,.49-.49Z" style="fill: #fff" transform="translate(0 0)"/>
      <path d="M38.78,58.41h.85a.52.52,0,0,1,.32.11.72.72,0,0,1,.24.25l.42.86a1.06,1.06,0,0,1,0,1l-.43.85a.67.67,0,0,1-.24.26.59.59,0,0,1-.34.1h-.83a.21.21,0,0,1-.21-.21.23.23,0,0,1,.06-.16.21.21,0,0,1,.15-.07H39V58.84h-.22a.21.21,0,0,1-.22-.22.2.2,0,0,1,.06-.15A.23.23,0,0,1,38.78,58.41Zm.65.43v2.55h.15a.24.24,0,0,0,.22-.14l.42-.85a.79.79,0,0,0,.08-.26.63.63,0,0,0-.06-.27L39.8,59a.24.24,0,0,0-.23-.14Z" style="fill: #fff" transform="translate(0 0)"/>
      <path d="M41.76,61.52l.86-3a.21.21,0,0,1,.22-.16.2.2,0,0,1,.21.13l.86,3v.07a.23.23,0,0,1-.21.21.2.2,0,0,1-.21-.16L43.32,61h-1l-.19.63-.06.07a.29.29,0,0,1-.13,0,.2.2,0,0,1-.15-.06.2.2,0,0,1-.07-.16Zm1.08-2.11-.37,1.23h.73Z" style="fill: #fff" transform="translate(0 0)"/>
    </g>
    <g>
      <path d="M51.32,58.41h1.75a.2.2,0,0,1,.15.06.26.26,0,0,1,.07.15.24.24,0,0,1-.07.16.2.2,0,0,1-.15.06h-.65v2.55h.65a.2.2,0,0,1,.15.06.24.24,0,0,1,.07.16.21.21,0,0,1-.07.15.2.2,0,0,1-.15.06H51.32a.21.21,0,0,1-.21-.21.23.23,0,0,1,.06-.16.2.2,0,0,1,.15-.06H52V58.84h-.67a.21.21,0,0,1-.21-.21.23.23,0,0,1,.06-.16A.2.2,0,0,1,51.32,58.41Z" style="fill: #fff" transform="translate(0 0)"/>
      <path d="M56.46,58.63v3.19h-.58l-1.16-2.68v2.44a.21.21,0,0,1-.21.21.23.23,0,0,1-.16-.06.2.2,0,0,1-.06-.15v-3.2h.57L56,61.05V58.63a.21.21,0,0,1,.2-.22h0a.2.2,0,0,1,.15.06A.26.26,0,0,1,56.46,58.63Z" style="fill: #fff" transform="translate(0 0)"/>
      <path d="M57.46,59v-.59h2.18V59a.2.2,0,0,1-.06.15.2.2,0,0,1-.16.07.18.18,0,0,1-.15-.07A.21.21,0,0,1,59.2,59v-.16h-.43v2.77a.18.18,0,0,1-.07.15.2.2,0,0,1-.15.06.23.23,0,0,1-.16-.06.2.2,0,0,1-.06-.15V58.84h-.44V59a.21.21,0,0,1-.21.21.22.22,0,0,1-.15-.06A.18.18,0,0,1,57.46,59Z" style="fill: #fff" transform="translate(0 0)"/>
    </g>
    <g>
      <path d="M43.74,68.48h1.1a.6.6,0,0,1,.38.17.52.52,0,0,1,.18.41.18.18,0,0,1-.07.15.2.2,0,0,1-.14.06.2.2,0,0,1-.15,0A.85.85,0,0,1,45,69a.17.17,0,0,0-.16-.13H43.76a.09.09,0,0,0,0,.07l1.56,2a.47.47,0,0,1,.12.31.47.47,0,0,1-.14.33.37.37,0,0,1-.3.14H43.82a.56.56,0,0,1-.55-.54c0-.16.07-.24.22-.24a.2.2,0,0,1,.14.06.2.2,0,0,1,.06.15.16.16,0,0,0,.05.11.21.21,0,0,0,.11,0h1.07a.06.06,0,0,0,0-.06l-1.56-2a.45.45,0,0,1-.11-.31.48.48,0,0,1,.47-.48Z" style="fill: #fff" transform="translate(0 0)"/>
      <path d="M47.52,71.38h.76a.26.26,0,0,1,.15.07.2.2,0,0,1,.06.14.21.21,0,0,1-.21.21h-.79a.56.56,0,0,1-.31-.09A.56.56,0,0,1,47,71.5l-.49-.94a1,1,0,0,1-.09-.42.9.9,0,0,1,.09-.4l.49-.93a.66.66,0,0,1,.21-.23.51.51,0,0,1,.29-.1h.83a.21.21,0,0,1,.15.36.21.21,0,0,1-.15.07h-.8a.19.19,0,0,0-.16.11l-.47.87a.53.53,0,0,0,0,.25.58.58,0,0,0,.06.26l.44.85A.21.21,0,0,0,47.52,71.38Z" style="fill: #fff" transform="translate(0 0)"/>
      <path d="M49.46,71.8V68.69a.2.2,0,0,1,.06-.15.22.22,0,0,1,.3,0,.2.2,0,0,1,.06.15v2.69h1.48a.24.24,0,0,1,.16.07.2.2,0,0,1,.06.14.2.2,0,0,1-.06.15.23.23,0,0,1-.16.06Z" style="fill: #fff" transform="translate(0 0)"/>
    </g>
    <g>
      <path d="M29.58,68.48h.69a.21.21,0,0,1,.21.21.22.22,0,0,1-.06.15.18.18,0,0,1-.15.07h-.66a.2.2,0,0,0-.17.09l-.59.76a.38.38,0,0,0-.08.25v1.13a.18.18,0,0,0,.07.15.2.2,0,0,0,.14.06h.86a.21.21,0,0,0,.21-.21v-.45h-.44a.21.21,0,0,1,0-.42h.86v.87a.55.55,0,0,1-.19.45.6.6,0,0,1-.44.18H29a.62.62,0,0,1-.63-.63V70a.78.78,0,0,1,.17-.53l.62-.78a.49.49,0,0,1,.19-.16A.46.46,0,0,1,29.58,68.48Z" style="fill: #fff" transform="translate(0 0)"/>
      <path d="M33.57,68.7v3.1H33l-1.13-2.58v2.37a.21.21,0,1,1-.42,0V68.48H32l1.13,2.58V68.7a.2.2,0,0,1,.07-.16.22.22,0,0,1,.3,0A.24.24,0,0,1,33.57,68.7Z" style="fill: #fff" transform="translate(0 0)"/>
      <path d="M34.75,68.48h.83a.52.52,0,0,1,.32.11.64.64,0,0,1,.22.24l.42.84a1,1,0,0,1,.12.48,1.1,1.1,0,0,1-.13.47l-.42.83a.58.58,0,0,1-.23.26.63.63,0,0,1-.33.09h-.8a.21.21,0,1,1,0-.42H35V68.91h-.22a.21.21,0,0,1-.15-.07.22.22,0,0,1,0-.3A.23.23,0,0,1,34.75,68.48Zm.64.43v2.47h.14a.21.21,0,0,0,.21-.13l.42-.83a.84.84,0,0,0,.08-.27.59.59,0,0,0-.07-.26L35.74,69a.22.22,0,0,0-.22-.12Z" style="fill: #fff" transform="translate(0 0)"/>
    </g>
    <g>
      <path d="M15.75,68.7v.77l-.85,2.18a.22.22,0,0,1-.21.15.23.23,0,0,1-.21-.15l-.85-2.18V68.7a.22.22,0,0,1,.21-.22.2.2,0,0,1,.15.06.24.24,0,0,1,.07.16v.68L14.69,71l.64-1.62V68.7a.22.22,0,0,1,.21-.22.2.2,0,0,1,.15.06A.23.23,0,0,1,15.75,68.7Z" style="fill: #fff" transform="translate(0 0)"/>
      <path d="M16.93,68.48h1.7a.2.2,0,0,1,.14.06.18.18,0,0,1,.07.15.2.2,0,0,1-.06.15.26.26,0,0,1-.15.07H18v2.47h.64a.21.21,0,0,1,.15.07.2.2,0,0,1,.06.14.21.21,0,0,1-.21.21h-1.7a.21.21,0,0,1-.21-.21.2.2,0,0,1,.06-.14.21.21,0,0,1,.15-.07h.64V68.91h-.64a.18.18,0,0,1-.15-.07.2.2,0,0,1-.06-.14.23.23,0,0,1,.06-.16A.2.2,0,0,1,16.93,68.48Z" style="fill: #fff" transform="translate(0 0)"/>
      <path d="M21.93,68.7v3.1h-.56l-1.13-2.58v2.37a.18.18,0,0,1-.07.15.2.2,0,0,1-.14.06.21.21,0,0,1-.21-.21V68.48h.55l1.14,2.58V68.7a.23.23,0,0,1,.06-.16.22.22,0,0,1,.3,0A.23.23,0,0,1,21.93,68.7Z" style="fill: #fff" transform="translate(0 0)"/>
    </g>
  </g>
  <g id="Connectors">
    <ellipse cx="54.76" cy="65.22" data-cir-type="male" data-name="circuitoCon INT" id="circuitoCon_INT" rx="2.05" ry="1.99" style="fill: none;stroke: #e8e5df;stroke-miterlimit: 10;stroke-width: 1.2239999771118164px"/>
    <ellipse cx="47.57" cy="65.22" data-cir-type="male" data-name="circuitoCon SCL" id="circuitoCon_SCL" rx="2.05" ry="1.99" style="fill: none;stroke: #e8e5df;stroke-miterlimit: 10;stroke-width: 1.2239999771118164px"/>
    <ellipse cx="40.38" cy="65.22" data-cir-type="male" data-name="circuitoCon SDA" id="circuitoCon_SDA" rx="2.05" ry="1.99" style="fill: none;stroke: #e8e5df;stroke-miterlimit: 10;stroke-width: 1.2239999771118164px"/>
    <ellipse cx="25.99" cy="65.22" data-cir-type="male" data-name="circuitoCon 3vo" id="circuitoCon_3vo" rx="2.05" ry="1.99" style="fill: none;stroke: #e8e5df;stroke-miterlimit: 10;stroke-width: 1.2239999771118164px"/>
    <ellipse cx="18.75" cy="65.22" data-cir-type="male" data-name="circuitoCon VIN" id="circuitoCon_VIN" rx="2.05" ry="1.99" style="fill: none;stroke: #e8e5df;stroke-miterlimit: 10;stroke-width: 1.2239999771118164px"/>
    <ellipse cx="33.18" cy="65.22" data-cir-type="male" data-name="circuitoCon GND" id="circuitoCon_GND" rx="2.05" ry="1.99" style="fill: none;stroke: #e8e5df;stroke-miterlimit: 10;stroke-width: 1.2239999771118164px"/>
    <ellipse cx="54.86" cy="6.98" data-cir-type="male" data-name="circuitoCon 6" id="circuitoCon_6" rx="2.05" ry="1.99" style="fill: none;stroke: #e8e5df;stroke-miterlimit: 10;stroke-width: 1.2239999771118164px"/>
    <ellipse cx="47.67" cy="6.98" data-cir-type="male" data-name="circuitoCon 5" id="circuitoCon_5" rx="2.05" ry="1.99" style="fill: none;stroke: #e8e5df;stroke-miterlimit: 10;stroke-width: 1.2239999771118164px"/>
    <ellipse cx="40.47" cy="6.98" data-cir-type="male" data-name="circuitoCon 4" id="circuitoCon_4" rx="2.05" ry="1.99" style="fill: none;stroke: #e8e5df;stroke-miterlimit: 10;stroke-width: 1.2239999771118164px"/>
    <ellipse cx="26.09" cy="6.98" data-cir-type="male" data-name="circuitoCon 3" id="circuitoCon_3" rx="2.05" ry="1.99" style="fill: none;stroke: #e8e5df;stroke-miterlimit: 10;stroke-width: 1.2239999771118164px"/>
    <ellipse cx="18.84" cy="6.98" data-cir-type="male" data-name="circuitoCon 2" id="circuitoCon_2" rx="2.05" ry="1.99" style="fill: none;stroke: #e8e5df;stroke-miterlimit: 10;stroke-width: 1.2239999771118164px"/>
    <ellipse cx="33.28" cy="6.98" data-cir-type="male" data-name="circuitoCon 1" id="circuitoCon_1" rx="2.05" ry="1.99" style="fill: none;stroke: #e8e5df;stroke-miterlimit: 10;stroke-width: 1.2239999771118164px"/>
  </g>
</svg>