<?xml version="1.0" ?><svg height="17.4mm" viewBox="0 0 57.83 49.33" width="20.4mm" xmlns="http://www.w3.org/2000/svg">
  <title>Adafruit SI1145 Breakout Board - UV index  IR  Visible Sensor</title>
  <g id="holes">
    <path d="M51.92,0h-46A5.92,5.92,0,0,0,0,5.92v37.5a5.92,5.92,0,0,0,5.92,5.91h46a5.92,5.92,0,0,0,5.91-5.91V5.92A5.92,5.92,0,0,0,51.92,0ZM29.77,12.81a.93.93,0,1,1-.93.93A.93.93,0,0,1,29.77,12.81ZM7.39,44.69a2.14,2.14,0,1,1,2.14-2.14A2.13,2.13,0,0,1,7.39,44.69ZM7.5,11.1a4.19,4.19,0,1,1,4.19-4.18A4.19,4.19,0,0,1,7.5,11.1Zm4,10.66a.93.93,0,1,1,.93.93A.93.93,0,0,1,11.52,21.76Zm3.14,22.93a2.14,2.14,0,1,1,2.13-2.14A2.14,2.14,0,0,1,14.66,44.69Zm7.22,0A2.14,2.14,0,1,1,24,42.55,2.14,2.14,0,0,1,21.88,44.69Zm3.53-10.51a.93.93,0,1,1,.93-.93A.93.93,0,0,1,25.41,34.18ZM29.2,44.69a2.14,2.14,0,1,1,2.13-2.14A2.13,2.13,0,0,1,29.2,44.69Zm7.22,0a2.14,2.14,0,1,1,2.14-2.14A2.13,2.13,0,0,1,36.42,44.69Zm7,0a2.14,2.14,0,1,1,2.13-2.14A2.14,2.14,0,0,1,43.42,44.69Zm7.39,0a2.14,2.14,0,1,1,2.13-2.14A2.14,2.14,0,0,1,50.81,44.69ZM50.62,11.1A4.19,4.19,0,1,1,54.8,6.92,4.19,4.19,0,0,1,50.62,11.1Z" style="fill: #1a2c80"/>
  </g>
  <g id="lines">
    <polyline points="6.12 27.35 6.12 24.57 9 21.6 11.13 21.6" style="fill: none;stroke: #0b5597;stroke-linecap: round;stroke-linejoin: round;stroke-width: 0.75px"/>
    <polyline points="16.69 15.7 13.94 15.7 12.62 17.01 12.62 20.42" style="fill: none;stroke: #0b5597;stroke-linecap: round;stroke-linejoin: round;stroke-width: 0.75px"/>
    <circle cx="12.45" cy="21.76" r="1.09" style="fill: none;stroke: #0b5597;stroke-linecap: round;stroke-linejoin: round;stroke-width: 0.75px"/>
    <circle cx="29.77" cy="13.79" r="1.09" style="fill: none;stroke: #0b5597;stroke-linecap: round;stroke-linejoin: round;stroke-width: 0.75px"/>
    <circle cx="25.41" cy="33.25" r="1.09" style="fill: none;stroke: #0b5597;stroke-linecap: round;stroke-linejoin: round;stroke-width: 0.75px"/>
    <line style="fill: none;stroke: #0b5597;stroke-linecap: round;stroke-linejoin: round;stroke-width: 0.75px" x1="5.97" x2="5.97" y1="31.95" y2="40.42"/>
    <path d="M9.09,44.2l2.27,2.22s40.66.1,40.77,0l4-4V27H53.92" style="fill: none;stroke: #0b5597;stroke-linecap: round;stroke-linejoin: round;stroke-width: 0.75px"/>
    <line style="fill: none;stroke: #0b5597;stroke-linecap: round;stroke-linejoin: round;stroke-width: 0.75px" x1="44.87" x2="44.87" y1="33.58" y2="40.56"/>
    <path d="M52.48,32.91c-.15.05-1.67,1.42-1.67,1.42v5.92" style="fill: none;stroke: #0b5597;stroke-linecap: round;stroke-linejoin: round;stroke-width: 0.75px"/>
    <polyline points="48.25 31.04 49.75 32.28 51.65 32.28" style="fill: none;stroke: #0b5597;stroke-linecap: round;stroke-linejoin: round;stroke-width: 0.75px"/>
    <line style="fill: none;stroke: #0b5597;stroke-linecap: round;stroke-linejoin: round;stroke-width: 0.75px" x1="52.86" x2="52.86" y1="22.22" y2="26.06"/>
    <polyline points="52.25 16.18 50.62 16.18 48.31 18.49 47.67 18.96 47.67 25.48 45.69 27.46" style="fill: none;stroke: #0b5597;stroke-linecap: round;stroke-linejoin: round;stroke-width: 0.75px"/>
    <polyline points="44.87 21.82 44.87 24.83 43.42 26.38 43.42 28.26" style="fill: none;stroke: #0b5597;stroke-linecap: round;stroke-linejoin: round;stroke-width: 0.75px"/>
    <path d="M38.47,26.87c.28,0,2.72,0,2.72,0" style="fill: none;stroke: #0b5597;stroke-linecap: round;stroke-linejoin: round;stroke-width: 0.75px"/>
    <polyline points="25.7 27.94 25.7 29.92 36.23 40.45" style="fill: none;stroke: #0b5597;stroke-linecap: round;stroke-linejoin: round;stroke-width: 0.75px"/>
    <line style="fill: none;stroke: #0b5597;stroke-linecap: round;stroke-linejoin: round;stroke-width: 0.75px" x1="31" x2="35.99" y1="28.13" y2="33.13"/>
    <polyline points="31.28 26.7 33.49 26.7 33.49 23.79 36.05 21.23 41.57 21.23" style="fill: none;stroke: #0b5597;stroke-linecap: round;stroke-linejoin: round;stroke-width: 0.75px"/>
    <polyline points="41.19 16.02 36.6 16.02 35.71 14.93 31.79 11.1 26.18 11.1 24.77 12.51 24.77 17.08" style="fill: none;stroke: #0b5597;stroke-linecap: round;stroke-linejoin: round;stroke-width: 0.75px"/>
    <line style="fill: none;stroke: #0b5597;stroke-linecap: round;stroke-linejoin: round;stroke-width: 0.75px" x1="30.35" x2="30.35" y1="14.7" y2="23.79"/>
    <path d="M25.7,19.19V24" style="fill: none;stroke: #0b5597;stroke-linecap: round;stroke-linejoin: round;stroke-width: 0.75px"/>
    <line style="fill: none;stroke: #0b5597;stroke-linecap: round;stroke-linejoin: round;stroke-width: 0.75px" x1="17.27" x2="17.27" y1="20.18" y2="26.06"/>
    <polyline points="19.5 26.41 21.88 28.92 21.88 40.42" style="fill: none;stroke: #0b5597;stroke-linecap: round;stroke-linejoin: round;stroke-width: 0.75px"/>
    <polyline points="24.63 32.28 23.32 30.97 23.32 27.19 23.98 26.54 27.24 26.54" style="fill: none;stroke: #0b5597;stroke-linecap: round;stroke-linejoin: round;stroke-width: 0.75px"/>
    <line style="fill: none;stroke: #0b5597;stroke-linecap: round;stroke-linejoin: round;stroke-width: 0.75px" x1="7.28" x2="11.69" y1="28.92" y2="28.92"/>
    <line style="fill: none;stroke: #0b5597;stroke-linecap: round;stroke-linejoin: round;stroke-width: 0.75px" x1="7.28" x2="11.69" y1="31.64" y2="31.64"/>
    <line style="fill: none;stroke: #0b5597;stroke-linecap: round;stroke-linejoin: round;stroke-width: 0.75px" x1="17.06" x2="25.97" y1="25.32" y2="25.32"/>
    <polyline points="22.63 25.32 22.63 23.91 25.97 23.91" style="fill: none;stroke: #0b5597;stroke-linecap: round;stroke-linejoin: round;stroke-width: 0.75px"/>
    <circle cx="30.86" cy="30.09" r="1.07" style="fill: #fff"/>
    <polyline points="42.92 35.04 46.81 35.04 46.81 32.28" style="fill: none;stroke: #fff;stroke-linecap: round;stroke-linejoin: round;stroke-width: 0.5px"/>
    <polyline points="42.92 25.49 46.81 25.49 46.81 28.25" style="fill: none;stroke: #fff;stroke-linecap: round;stroke-linejoin: round;stroke-width: 0.5px"/>
    <polyline points="42.92 23.58 46.81 23.58 46.81 20.82" style="fill: none;stroke: #fff;stroke-linecap: round;stroke-linejoin: round;stroke-width: 0.5px"/>
    <polyline points="42.92 14.03 46.81 14.03 46.81 16.79" style="fill: none;stroke: #fff;stroke-linecap: round;stroke-linejoin: round;stroke-width: 0.5px"/>
    <line style="fill: none;stroke: #fff;stroke-linecap: round;stroke-linejoin: round;stroke-width: 0.5px" x1="13.16" x2="17.78" y1="24.14" y2="24.14"/>
    <line style="fill: none;stroke: #fff;stroke-linecap: round;stroke-linejoin: round;stroke-width: 0.5px" x1="13.16" x2="17.78" y1="33.41" y2="33.41"/>
    <line style="fill: none;stroke: #fff;stroke-linecap: round;stroke-linejoin: round;stroke-width: 0.5px" x1="18.26" x2="18.26" y1="27.8" y2="29.92"/>
  </g>
  <g data-name="Layer 29" id="Layer_29">
    <g>
      <path d="M42.59,22.39v-.06h.25a.09.09,0,0,0,.08-.09v-1a.1.1,0,0,0-.08-.1h-.25v-.62a.28.28,0,0,0-.27-.29H40.47a.28.28,0,0,0-.27.29v1.92a.28.28,0,0,0,.27.29h1.85A.28.28,0,0,0,42.59,22.39Z" style="fill: #aeaba8"/>
      <path d="M42.56,17.14v-.06h.25a.09.09,0,0,0,.08-.09v-1a.09.09,0,0,0-.08-.09h-.25v-.63a.28.28,0,0,0-.27-.29H40.44a.28.28,0,0,0-.27.29v1.92a.29.29,0,0,0,.27.3h1.85A.29.29,0,0,0,42.56,17.14Z" style="fill: #aeaba8"/>
      <path d="M46.38,17.76v.06h-.25a.09.09,0,0,0-.09.1v1.15a.09.09,0,0,0,.09.1h.25v.69a.3.3,0,0,0,.26.32H48.5a.3.3,0,0,0,.26-.32v-2.1a.3.3,0,0,0-.26-.32H46.64A.3.3,0,0,0,46.38,17.76Z" style="fill: #aeaba8"/>
      <rect height="3.89" rx="0.91" ry="0.91" style="fill: #3c3c3e" transform="translate(63.49 -25.88) rotate(90)" width="8.47" x="40.45" y="16.86"/>
    </g>
    <g>
      <path d="M42.59,33.87v-.06h.25a.09.09,0,0,0,.08-.09v-1a.09.09,0,0,0-.08-.09h-.25V32a.28.28,0,0,0-.27-.29H40.47a.28.28,0,0,0-.27.29v1.92a.28.28,0,0,0,.27.29h1.85A.28.28,0,0,0,42.59,33.87Z" style="fill: #aeaba8"/>
      <path d="M42.56,28.62v-.05h.25a.1.1,0,0,0,.08-.1v-1a.09.09,0,0,0-.08-.09h-.25V26.7a.28.28,0,0,0-.27-.29H40.44a.28.28,0,0,0-.27.29v1.92a.28.28,0,0,0,.27.3h1.85A.28.28,0,0,0,42.56,28.62Z" style="fill: #aeaba8"/>
      <path d="M46.38,29.24v.06h-.25a.09.09,0,0,0-.09.1v1.15a.09.09,0,0,0,.09.1h.25v.69a.3.3,0,0,0,.26.32H48.5a.3.3,0,0,0,.26-.32v-2.1a.3.3,0,0,0-.26-.32H46.64A.3.3,0,0,0,46.38,29.24Z" style="fill: #aeaba8"/>
      <rect height="3.89" rx="0.91" ry="0.91" style="fill: #3c3c3e" transform="translate(74.97 -14.4) rotate(90)" width="8.47" x="40.45" y="28.34"/>
    </g>
    <g>
      <g>
        <rect height="1.64" style="fill: #aeaba8" transform="translate(22.26 63.28) rotate(180)" width="2.14" x="10.06" y="30.82"/>
        <rect height="1.17" style="fill: #bababa" transform="translate(25.35 63.25) rotate(180)" width="0.96" x="12.2" y="31.04"/>
        <rect height="1.64" style="fill: #aeaba8" transform="translate(22.26 57.91) rotate(180)" width="2.14" x="10.06" y="28.13"/>
        <rect height="1.17" style="fill: #bababa" transform="translate(25.35 57.88) rotate(180)" width="0.96" x="12.2" y="28.35"/>
        <rect height="1.64" style="fill: #aeaba8" transform="translate(22.26 52.59) rotate(180)" width="2.14" x="10.06" y="25.48"/>
        <rect height="1.17" style="fill: #bababa" transform="translate(25.35 52.57) rotate(180)" width="0.96" x="12.2" y="25.7"/>
        <rect height="1.64" style="fill: #aeaba8" width="2.14" x="18.74" y="25.56"/>
        <rect height="1.17" style="fill: #bababa" width="0.96" x="17.78" y="25.8"/>
        <rect height="1.64" style="fill: #aeaba8" width="2.14" x="18.74" y="30.86"/>
        <rect height="1.17" style="fill: #bababa" width="0.96" x="17.78" y="31.11"/>
        <rect height="8" style="fill: #333" transform="translate(30.94 57.66) rotate(180)" width="4.63" x="13.16" y="24.83"/>
      </g>
      <g>
        <path d="M16.05,31.32H15a.16.16,0,0,1-.12-.05.17.17,0,0,1,0-.12V30.6a.17.17,0,0,1,0-.12.16.16,0,0,1,.12-.05h1.07a.16.16,0,0,1,.12.05.17.17,0,0,1,0,.12v.55a.17.17,0,0,1,0,.12A.16.16,0,0,1,16.05,31.32Zm0-.72H15v.54h1Z" style="fill: #4b4843"/>
        <path d="M16,29.93v-.28H15v.27a.11.11,0,0,1-.09.09.09.09,0,0,1-.06,0,.06.06,0,0,1,0-.06v-.45H16V29.3h-.37a.06.06,0,0,1-.06,0,.09.09,0,0,1,0-.06.11.11,0,0,1,.09-.09h.46a.09.09,0,0,1,.06,0,.06.06,0,0,1,0,.06v.72a.09.09,0,0,1,0,.06.07.07,0,0,1-.06,0,.08.08,0,0,1-.07,0A.14.14,0,0,1,16,29.93Z" style="fill: #4b4843"/>
        <path d="M15,27.8h.33a.29.29,0,0,1,.19.07.34.34,0,0,1,.18-.07H16a.17.17,0,0,1,.12.05.18.18,0,0,1,.06.13v.63a.11.11,0,0,1-.09.09.06.06,0,0,1-.06,0,.09.09,0,0,1,0-.06V28h-.35a.11.11,0,0,0-.09.09v.36a.11.11,0,0,1,0,.06.09.09,0,0,1-.07,0,.09.09,0,0,1-.06,0,.07.07,0,0,1,0-.06v-.36a.14.14,0,0,0,0-.06.09.09,0,0,0-.07,0H15v.64a.09.09,0,0,1,0,.06s0,0-.06,0a.07.07,0,0,1-.06,0,.09.09,0,0,1,0-.06V28a.17.17,0,0,1,0-.12A.18.18,0,0,1,15,27.8Z" style="fill: #4b4843"/>
        <path d="M15,26.49h.33a.26.26,0,0,1,.19.08.29.29,0,0,1,.18-.08H16a.17.17,0,0,1,.12.05.18.18,0,0,1,.06.13v.63a.07.07,0,0,1,0,.06.09.09,0,0,1-.06,0,.06.06,0,0,1-.06,0,.07.07,0,0,1,0-.06v-.63h-.35a.11.11,0,0,0-.09.09v.36a.08.08,0,0,1,0,.06.09.09,0,0,1-.07,0,.09.09,0,0,1-.06,0,.06.06,0,0,1,0-.06v-.36a.14.14,0,0,0,0-.06.09.09,0,0,0-.07,0H15v.64a.09.09,0,0,1,0,.06.06.06,0,0,1-.06,0,.11.11,0,0,1-.09-.09v-.64a.17.17,0,0,1,0-.12A.18.18,0,0,1,15,26.49Z" style="fill: #4b4843"/>
      </g>
    </g>
    <g>
      <rect height="7.84" rx="0.34" ry="0.34" style="fill: #90681d" width="1.18" x="27.79" y="22.07"/>
      <rect height="4.46" style="fill: #f9f7f0" width="5.45" x="25.55" y="23.48"/>
      <rect height="3.45" style="fill: #827d5e" width="3.27" x="26.6" y="23.79"/>
      <rect height="2.37" style="fill: #c7bdbe" width="2.37" x="26.6" y="24.87"/>
      <g>
        <g>
          <rect height="0.88" style="fill: #aeaba8" width="2.14" x="25.11" y="23.48"/>
          <rect height="0.63" style="fill: #bababa" width="0.96" x="24.15" y="23.61"/>
        </g>
        <g>
          <rect height="0.88" style="fill: #aeaba8" width="2.14" x="25.11" y="24.87"/>
          <rect height="0.63" style="fill: #bababa" width="0.96" x="24.15" y="25.01"/>
        </g>
        <g>
          <rect height="0.88" style="fill: #aeaba8" width="2.14" x="25.11" y="26.27"/>
          <rect height="0.63" style="fill: #bababa" width="0.96" x="24.15" y="26.4"/>
        </g>
        <g>
          <rect height="0.88" style="fill: #aeaba8" width="2.14" x="25.11" y="27.66"/>
          <rect height="0.63" style="fill: #bababa" width="0.96" x="24.15" y="27.8"/>
        </g>
      </g>
      <g>
        <g>
          <rect height="0.88" style="fill: #aeaba8" transform="translate(61.03 56.2) rotate(180)" width="2.14" x="29.45" y="27.66"/>
          <rect height="0.63" style="fill: #bababa" transform="translate(64.12 56.19) rotate(180)" width="0.96" x="31.58" y="27.78"/>
        </g>
        <g>
          <rect height="0.88" style="fill: #aeaba8" transform="translate(61.03 53.41) rotate(180)" width="2.14" x="29.45" y="26.27"/>
          <rect height="0.63" style="fill: #bababa" transform="translate(64.12 53.4) rotate(180)" width="0.96" x="31.58" y="26.39"/>
        </g>
        <g>
          <rect height="0.88" style="fill: #aeaba8" transform="translate(61.03 50.62) rotate(180)" width="2.14" x="29.45" y="24.87"/>
          <rect height="0.63" style="fill: #bababa" transform="translate(64.12 50.61) rotate(180)" width="0.96" x="31.58" y="24.99"/>
        </g>
        <g>
          <rect height="0.88" style="fill: #aeaba8" transform="translate(61.03 47.83) rotate(180)" width="2.14" x="29.45" y="23.48"/>
          <rect height="0.63" style="fill: #bababa" transform="translate(64.12 47.82) rotate(180)" width="0.96" x="31.58" y="23.6"/>
        </g>
      </g>
      <rect height="1.67" style="fill: #8a724a" width="1.67" x="26.6" y="25.58"/>
    </g>
    <g>
      <circle cx="41.19" cy="4.1" r="2.81" style="fill: #7b7966"/>
      <circle cx="41.19" cy="4.1" r="1.55" style="fill: #fef7e8"/>
    </g>
    <g>
      <circle cx="14.79" cy="36.98" r="2.81" style="fill: #7b7966"/>
      <circle cx="14.79" cy="36.98" r="1.55" style="fill: #fef7e8"/>
    </g>
    <path d="M7.5,1.89a5,5,0,1,0,5,5A5,5,0,0,0,7.5,1.89Zm0,8.68a3.66,3.66,0,1,1,3.66-3.65A3.65,3.65,0,0,1,7.5,10.57Z" style="fill: #f5f0da"/>
    <circle cx="7.5" cy="6.92" r="5.75" style="fill: none;stroke: #fff;stroke-miterlimit: 10;stroke-width: 0.5px"/>
    <path d="M50.62,1.89a5,5,0,1,0,5,5A5,5,0,0,0,50.62,1.89Zm0,8.68a3.66,3.66,0,1,1,3.65-3.65A3.65,3.65,0,0,1,50.62,10.57Z" style="fill: #f5f0da"/>
    <circle cx="50.62" cy="6.92" r="5.75" style="fill: none;stroke: #fff;stroke-miterlimit: 10;stroke-width: 0.5px"/>
    <g>
      <path d="M18.72,16H16.25a1,1,0,1,1,0-2h2.47a1,1,0,0,1,0,2Z" style="fill: #bababa"/>
      <path d="M18.72,21.37H16.25a1,1,0,1,1,0-2h2.47a1,1,0,0,1,0,2Z" style="fill: #bababa"/>
      <rect height="5.35" rx="0.58" ry="0.58" style="fill: #e0e0e0" width="3.55" x="15.71" y="15.01"/>
      <rect height="2.51" style="fill: #ac947a" width="3.55" x="15.71" y="16.38"/>
    </g>
    <g>
      <path d="M7.35,27.89H4.88a1,1,0,1,1,0-2H7.35a1,1,0,1,1,0,2Z" style="fill: #bababa"/>
      <path d="M7.35,33.25H4.88a1,1,0,0,1,0-2H7.35a1,1,0,0,1,0,2Z" style="fill: #bababa"/>
      <rect height="5.35" rx="0.58" ry="0.58" style="fill: #e0e0e0" width="3.55" x="4.34" y="26.89"/>
      <rect height="2.51" style="fill: #ac947a" width="3.55" x="4.34" y="28.26"/>
    </g>
    <g>
      <g>
        <path d="M25.7,16.72v2.47a1.25,1.25,0,0,1-2.45,0V16.72a1.25,1.25,0,0,1,2.45,0Z" style="fill: #bababa"/>
        <path d="M32.22,16.72v2.47a1.25,1.25,0,0,1-2.45,0V16.72a1.25,1.25,0,0,1,2.45,0Z" style="fill: #bababa"/>
        <rect height="6.52" rx="0.58" ry="0.58" style="fill: #e0e0e0" transform="translate(9.78 45.69) rotate(-90)" width="3.55" x="25.96" y="14.69"/>
        <rect height="3.06" style="fill: #272525" transform="translate(9.72 45.62) rotate(-90)" width="3.55" x="25.9" y="16.42"/>
      </g>
      <g>
        <path d="M29.08,17.68h-.16v.64h.2s0,0,0,0a.06.06,0,0,1,0,0h-.31v-.74H28.7v.23a0,0,0,0,1,0,0l0,0,0,0s0,0,0,0v-.28a.05.05,0,0,1,0,0h.51a.06.06,0,0,1,0,0s0,0,0,0Z" style="fill: #fff"/>
        <path d="M28.34,17.68v.64a.1.1,0,0,1-.1.1h-.33a.13.13,0,0,1-.08,0,.09.09,0,0,1,0-.07v-.64a.09.09,0,0,1,0-.07.13.13,0,0,1,.08,0h.33a.1.1,0,0,1,.1.1Zm-.43,0v.64h.33v-.64Z" style="fill: #fff"/>
        <path d="M27.55,17.68v.64a.1.1,0,0,1-.1.1h-.33a.1.1,0,0,1-.1-.1v-.64a.1.1,0,0,1,.1-.1h.33a.13.13,0,0,1,.08,0A.14.14,0,0,1,27.55,17.68Zm-.43,0v.64h.33v-.64Z" style="fill: #fff"/>
        <path d="M26.28,17.58h.48V18a.1.1,0,0,1-.1.1h-.33v.27h.42a.05.05,0,0,1,0,0,.08.08,0,0,1,0,0h-.42a.09.09,0,0,1-.07,0,.09.09,0,0,1,0-.07v-.27a.08.08,0,0,1,0-.07.09.09,0,0,1,.07,0h.33v-.27h-.42a.08.08,0,0,1,0,0,.05.05,0,0,1,0,0Z" style="fill: #fff"/>
      </g>
    </g>
    <g>
      <g>
        <path d="M51.62,20.93h2.47a1.25,1.25,0,0,1,0,2.45H51.62a1.25,1.25,0,0,1,0-2.45Z" style="fill: #bababa"/>
        <path d="M51.62,14.41h2.47a1.13,1.13,0,0,1,1,1.22,1.13,1.13,0,0,1-1,1.23H51.62a1.13,1.13,0,0,1-1-1.23A1.13,1.13,0,0,1,51.62,14.41Z" style="fill: #bababa"/>
        <rect height="6.52" rx="0.58" ry="0.58" style="fill: #e0e0e0" transform="translate(105.71 37.79) rotate(180)" width="3.55" x="51.08" y="15.63"/>
        <rect height="3.06" style="fill: #272525" transform="translate(105.71 37.92) rotate(180)" width="3.55" x="51.08" y="17.43"/>
      </g>
      <g>
        <path d="M52.59,17.55v.16h.63v-.16a.08.08,0,0,1,0,0h.07a.08.08,0,0,1,0,0v.27h-.74v.11h.26a.08.08,0,0,1,0,0,.05.05,0,0,1,0,0H52.5a.05.05,0,0,1,0,0v-.43a.07.07,0,0,1,.06-.06l0,0A.05.05,0,0,1,52.59,17.55Z" style="fill: #fff"/>
        <path d="M52.58,18.29h.65a.11.11,0,0,1,.07,0,.09.09,0,0,1,0,.07v.33a.09.09,0,0,1,0,.07.07.07,0,0,1-.07,0h-.65a.07.07,0,0,1-.07,0,.09.09,0,0,1,0-.07v-.33a.09.09,0,0,1,0-.07A.11.11,0,0,1,52.58,18.29Zm0,.43h.63v-.33h-.63Z" style="fill: #fff"/>
        <path d="M52.58,19.07h.65a.09.09,0,0,1,.07,0,.09.09,0,0,1,0,.07v.33a.09.09,0,0,1,0,.07.11.11,0,0,1-.07,0h-.65a.11.11,0,0,1-.07,0,.09.09,0,0,1,0-.07v-.33a.11.11,0,0,1,0-.08A.11.11,0,0,1,52.58,19.07Zm0,.44h.63v-.33h-.63Z" style="fill: #fff"/>
        <path d="M52.48,20.35v-.49h.37a.12.12,0,0,1,.08,0A.09.09,0,0,1,53,20v.33h.26v-.39s0,0,0,0l0,0,0,0s0,0,0,0v.39a.12.12,0,0,1-.11.11H53a.12.12,0,0,1-.11-.11V20h-.26v.38a.05.05,0,0,1,0,0l0,0,0,0A.05.05,0,0,1,52.48,20.35Z" style="fill: #fff"/>
      </g>
    </g>
    <g>
      <g>
        <path d="M51.62,31.35h2.47a1.25,1.25,0,0,1,0,2.45H51.62a1.25,1.25,0,0,1,0-2.45Z" style="fill: #bababa"/>
        <path d="M51.62,24.83h2.47a1.24,1.24,0,0,1,0,2.44H51.62a1.24,1.24,0,0,1,0-2.44Z" style="fill: #bababa"/>
        <rect height="6.52" rx="0.58" ry="0.58" style="fill: #e0e0e0" transform="translate(105.71 58.62) rotate(180)" width="3.55" x="51.08" y="26.05"/>
        <rect height="3.06" style="fill: #272525" transform="translate(105.71 58.75) rotate(180)" width="3.55" x="51.08" y="27.85"/>
      </g>
      <g>
        <path d="M52.59,28.44v.17h.63v-.17s0,0,0,0l0,0,0,0s0,0,0,0v.27h-.74v.11h.22s0,0,0,0,0,0,0,0a.05.05,0,0,1,0,0l0,0h-.27l0,0a.05.05,0,0,1,0,0v-.43a.08.08,0,0,1,0,0h.07A.08.08,0,0,1,52.59,28.44Z" style="fill: #fff"/>
        <path d="M52.58,29.18h.65a.11.11,0,0,1,.07,0,.09.09,0,0,1,0,.07v.34a.1.1,0,0,1-.1.1h-.65a.11.11,0,0,1-.07,0,.11.11,0,0,1,0-.08v-.33a.09.09,0,0,1,0-.07A.11.11,0,0,1,52.58,29.18Zm0,.43h.63v-.33h-.63Z" style="fill: #fff"/>
        <path d="M53.22,30.51H53a.18.18,0,0,1-.11,0,.17.17,0,0,1-.11,0h-.21a.1.1,0,0,1-.11-.11V30l0,0,0,0,0,0,0,0v.38h.25a.08.08,0,0,0,0,0v-.22l0,0h.07a0,0,0,0,1,0,0v.22l0,0h.24V30a.05.05,0,0,1,0,0h.07a.05.05,0,0,1,0,0v.38a.1.1,0,0,1-.11.11Z" style="fill: #fff"/>
      </g>
    </g>
    <g>
      <g>
        <path d="M38.21,16.92H35.75a1.13,1.13,0,0,1-1-1.22,1.13,1.13,0,0,1,1-1.23h2.46a1.13,1.13,0,0,1,1,1.23A1.13,1.13,0,0,1,38.21,16.92Z" style="fill: #bababa"/>
        <path d="M38.21,23.44H35.75a1.24,1.24,0,0,1,0-2.44h2.46a1.24,1.24,0,0,1,0,2.44Z" style="fill: #bababa"/>
        <rect height="6.52" rx="0.58" ry="0.58" style="fill: #e0e0e0" width="3.55" x="35.21" y="15.7"/>
        <rect height="3.06" style="fill: #272525" width="3.55" x="35.21" y="17.37"/>
      </g>
      <g>
        <path d="M37.25,19.83v-.17h-.63v.17s0,0,0,0l0,0,0,0a0,0,0,0,1,0,0v-.27h.74v-.11H37s0,0,0,0,0,0,0,0a.07.07,0,0,1,.06-.06h.27a.07.07,0,0,1,.06.06v.43a.08.08,0,0,1,0,0h-.08A.06.06,0,0,1,37.25,19.83Z" style="fill: #fff"/>
        <path d="M37.25,19.09h-.64a.1.1,0,0,1-.1-.1v-.34a.11.11,0,0,1,0-.07.09.09,0,0,1,.07,0h.64a.12.12,0,0,1,.11.11V19a.08.08,0,0,1,0,.07A.09.09,0,0,1,37.25,19.09Zm0-.43h-.63V19h.63Z" style="fill: #fff"/>
        <path d="M36.62,17.76h.2a.21.21,0,0,1,.11,0,.15.15,0,0,1,.11,0h.21a.09.09,0,0,1,.07,0,.12.12,0,0,1,0,.08v.38s0,0,0,0a.05.05,0,0,1,0,0l0,0a0,0,0,0,1,0,0v-.38H37s0,0,0,0v.22a.06.06,0,0,1,0,0h-.08a.06.06,0,0,1,0,0v-.22a.08.08,0,0,0,0,0h-.24v.38a.05.05,0,0,1,0,0h-.08s0,0,0,0v-.38a.1.1,0,0,1,.11-.11Z" style="fill: #fff"/>
      </g>
    </g>
    <g>
      <g>
        <path d="M35.75,31.6h2.46a1.25,1.25,0,0,1,0,2.45H35.75a1.25,1.25,0,0,1,0-2.45Z" style="fill: #bababa"/>
        <path d="M35.75,25.08h2.46a1.25,1.25,0,0,1,0,2.45H35.75a1.25,1.25,0,0,1,0-2.45Z" style="fill: #bababa"/>
        <rect height="6.52" rx="0.58" ry="0.58" style="fill: #e0e0e0" transform="translate(73.96 59.13) rotate(180)" width="3.55" x="35.21" y="26.31"/>
        <rect height="3.06" style="fill: #272525" transform="translate(73.96 59.26) rotate(180)" width="3.55" x="35.21" y="28.1"/>
      </g>
      <g>
        <path d="M36.71,28.7v.16h.63V28.7a.05.05,0,0,1,0,0h.08s0,0,0,0V29h-.74v.11H37a.05.05,0,0,1,0,0,.08.08,0,0,1,0,0h-.35a.08.08,0,0,1,0,0V28.7a.05.05,0,0,1,0,0l0,0,0,0S36.71,28.68,36.71,28.7Z" style="fill: #fff"/>
        <path d="M36.71,29.43h.64a.09.09,0,0,1,.07,0,.13.13,0,0,1,0,.08v.33a.1.1,0,0,1-.1.1h-.64a.13.13,0,0,1-.08,0,.09.09,0,0,1,0-.07v-.33a.11.11,0,0,1,0-.08A.13.13,0,0,1,36.71,29.43Zm0,.44h.63v-.33h-.63Z" style="fill: #fff"/>
        <path d="M37.34,30.77h-.2a.15.15,0,0,0-.22,0h-.21a.08.08,0,0,1-.07,0,.1.1,0,0,1,0-.07v-.38a.05.05,0,0,1,0,0h.08s0,0,0,0v.38h.21l0,0a.05.05,0,0,0,0,0v-.21s0,0,0,0a.05.05,0,0,1,0,0l0,0s0,0,0,0v.21a.07.07,0,0,0,.06.06h.2v-.38a.05.05,0,0,1,0,0l0,0,0,0s0,0,0,0v.38a.09.09,0,0,1,0,.07A.12.12,0,0,1,37.34,30.77Z" style="fill: #fff"/>
      </g>
    </g>
    <g>
      <path d="M12.05,18a3.84,3.84,0,0,0-3.4-.46,5.8,5.8,0,0,0-.42-3.13c-.22-.74-.56-1-1.16-.08a3.41,3.41,0,0,0-1.38,2.82c-.59-.84-1.76-.9-3.12-.71-.92.05-1,.47-.55,1.11a3.92,3.92,0,0,0,1.81,2c.47.07.7.17.32.33a4.26,4.26,0,0,0-1.4,2.87c-.22.92.2.93.87.58a3.85,3.85,0,0,0,2.47-1.16c.25-.27.45-.43.45-.14a.82.82,0,0,0,.27.71,8.24,8.24,0,0,0,2,1.61c.49.35.72.19.73-.42s.15-1,.18-1.34a2.61,2.61,0,0,0-.11-1.24,1.18,1.18,0,0,0-.12-.27l-.33-.25c-.31-.32-.23-.45.25-.39A3.3,3.3,0,0,0,12,19.18C12.62,18.71,12.57,18.34,12.05,18Z" style="fill: #fff"/>
      <path d="M7.39,16.46a2.85,2.85,0,0,1,0,.92,3.16,3.16,0,0,1-.23.89,3.15,3.15,0,0,1,0-.92A3.56,3.56,0,0,1,7.39,16.46Z" style="fill: #1a397c"/>
      <path d="M6.23,20.19a3.39,3.39,0,0,1-.61.69,3.29,3.29,0,0,1-.77.5,3.4,3.4,0,0,1,1.38-1.19Z" style="fill: #1a397c"/>
      <path d="M7.54,20.3A3.44,3.44,0,0,1,8.23,22a3.2,3.2,0,0,1-.46-.8A3.33,3.33,0,0,1,7.54,20.3Z" style="fill: #1a397c"/>
      <path d="M4.33,18a3.47,3.47,0,0,1,.86.36,3,3,0,0,1,.72.57,3.4,3.4,0,0,1-.85-.36A3,3,0,0,1,4.33,18Z" style="fill: #1a397c"/>
      <path d="M8.23,19.35a3.14,3.14,0,0,1,.88-.29A3.13,3.13,0,0,1,10,19a3.14,3.14,0,0,1-.88.29A3.51,3.51,0,0,1,8.23,19.35Z" style="fill: #1a397c"/>
    </g>
  </g>
  <g id="text">
    <g>
      <path d="M32.36,39v-2.6a.17.17,0,0,1,0-.12.15.15,0,0,1,.12,0,.17.17,0,0,1,.18.17v2.25H34a.17.17,0,0,1,.12.05.16.16,0,0,1,.06.12.18.18,0,0,1-.06.13A.17.17,0,0,1,34,39Z" style="fill: #fff"/>
      <path d="M36.53,36.62H35.29v.85h.53a.18.18,0,0,1,.13.06.17.17,0,0,1,0,.12.21.21,0,0,1,0,.13.19.19,0,0,1-.13,0h-.53v.86h1.24a.21.21,0,0,1,.13.05.18.18,0,0,1,.05.12.17.17,0,0,1-.18.18H34.94V36.27h1.59a.17.17,0,0,1,.13,0,.19.19,0,0,1,.05.13.21.21,0,0,1-.05.12A.21.21,0,0,1,36.53,36.62Z" style="fill: #fff"/>
      <path d="M37.69,36.27h.69a.53.53,0,0,1,.27.08.63.63,0,0,1,.19.21l.34.7a.82.82,0,0,1,.1.4.81.81,0,0,1-.1.39l-.35.69a.51.51,0,0,1-.19.22.57.57,0,0,1-.28.08h-.67a.17.17,0,0,1-.18-.18.18.18,0,0,1,.05-.12.18.18,0,0,1,.13-.06h.18V36.62h-.18a.17.17,0,0,1-.17-.18.17.17,0,0,1,.17-.17Zm.53.35v2.07h.12a.19.19,0,0,0,.18-.12l.35-.69a.56.56,0,0,0,.06-.22.54.54,0,0,0,0-.22l-.36-.71a.2.2,0,0,0-.18-.11Z" style="fill: #fff"/>
    </g>
    <g>
      <path d="M47.45,36.27h.92a.42.42,0,0,1,.31.14.43.43,0,0,1,.15.34.21.21,0,0,1,0,.13.21.21,0,0,1-.12,0,.17.17,0,0,1-.12,0,.53.53,0,0,1-.07-.15c0-.08-.06-.12-.13-.12h-.87s-.06,0-.06.05l0,0,1.31,1.67a.4.4,0,0,1,.09.25.41.41,0,0,1-.11.28.35.35,0,0,1-.26.12h-.94a.47.47,0,0,1-.33-.14.47.47,0,0,1-.14-.32.17.17,0,0,1,.19-.19.13.13,0,0,1,.12,0,.17.17,0,0,1,0,.12.11.11,0,0,0,0,.09.1.1,0,0,0,.09,0h.88a0,0,0,0,0,0,0,.06.06,0,0,0,0,0l-1.3-1.66a.39.39,0,0,1-.1-.26.41.41,0,0,1,.4-.4Z" style="fill: #fff"/>
      <path d="M49.81,36.27h.69a.56.56,0,0,1,.27.08.63.63,0,0,1,.19.21l.34.7a.82.82,0,0,1,.1.4.81.81,0,0,1-.1.39l-.35.69a.59.59,0,0,1-.19.22.57.57,0,0,1-.28.08h-.67a.17.17,0,0,1-.18-.18.18.18,0,0,1,0-.12.18.18,0,0,1,.13-.06H50V36.62h-.18a.17.17,0,0,1-.17-.18.17.17,0,0,1,.17-.17Zm.53.35v2.07h.12a.19.19,0,0,0,.18-.12l.35-.69a.56.56,0,0,0,.06-.22.54.54,0,0,0,0-.22l-.36-.71a.2.2,0,0,0-.18-.11Z" style="fill: #fff"/>
      <path d="M52.23,38.8l.71-2.4a.16.16,0,0,1,.17-.13c.09,0,.15,0,.17.11l.7,2.43a.43.43,0,0,0,0,0,.21.21,0,0,1-.05.13.18.18,0,0,1-.12,0,.16.16,0,0,1-.17-.13l-.14-.47h-.8l-.16.51s0,0,0,.06a.17.17,0,0,1-.1,0,.19.19,0,0,1-.13,0,.21.21,0,0,1-.05-.13A.13.13,0,0,1,52.23,38.8Zm.88-1.72-.3,1h.59Z" style="fill: #fff"/>
    </g>
    <g>
      <path d="M39.58,45.5h.91a.49.49,0,0,1,.32.14A.46.46,0,0,1,41,46a.19.19,0,0,1-.05.13.16.16,0,0,1-.12,0c-.06,0-.1,0-.12,0A.3.3,0,0,1,40.6,46a.13.13,0,0,0-.13-.11H39.6s-.06,0-.06,0,0,0,0,.06l1.3,1.66a.39.39,0,0,1,.1.26.38.38,0,0,1-.12.28.33.33,0,0,1-.25.12h-.94a.43.43,0,0,1-.33-.15.44.44,0,0,1-.14-.31c0-.13.06-.2.18-.2a.21.21,0,0,1,.13.05.21.21,0,0,1,0,.12.11.11,0,0,0,.13.13h.87s.06,0,.06,0a.09.09,0,0,0,0-.05l-1.3-1.67a.41.41,0,0,1-.09-.26.39.39,0,0,1,.12-.28A.38.38,0,0,1,39.58,45.5Z" style="fill: #fff"/>
      <path d="M42.73,47.92h.63a.18.18,0,0,1,.13.06.17.17,0,0,1,0,.24.18.18,0,0,1-.13.06h-.65a.52.52,0,0,1-.26-.08.66.66,0,0,1-.19-.18l-.4-.78a.83.83,0,0,1,0-.69l.41-.77a.57.57,0,0,1,.18-.2.49.49,0,0,1,.24-.08h.69a.17.17,0,0,1,.18.18.17.17,0,0,1,0,.12.18.18,0,0,1-.13.06h-.66a.16.16,0,0,0-.14.09l-.39.73a.42.42,0,0,0,0,.2.38.38,0,0,0,0,.22l.37.71A.16.16,0,0,0,42.73,47.92Z" style="fill: #fff"/>
      <path d="M44.35,48.28v-2.6a.21.21,0,0,1,0-.13.18.18,0,0,1,.12,0,.17.17,0,0,1,.18.18v2.24h1.24a.18.18,0,0,1,0,.36Z" style="fill: #fff"/>
    </g>
    <g>
      <path d="M25.76,45.5h1.42a.21.21,0,0,1,.12,0,.21.21,0,0,1,.05.13.17.17,0,0,1-.05.12.16.16,0,0,1-.12.06h-.53v2.06h.53a.14.14,0,0,1,.12.06.13.13,0,0,1,.05.12.17.17,0,0,1-.05.12.16.16,0,0,1-.12.06H25.76a.18.18,0,0,1-.13-.06.17.17,0,0,1,0-.24.18.18,0,0,1,.13-.06h.54V45.86h-.54a.18.18,0,0,1-.13-.06.17.17,0,0,1-.05-.12.17.17,0,0,1,.18-.18Z" style="fill: #fff"/>
      <path d="M29.93,45.68v2.6h-.47l-.94-2.16v2a.17.17,0,0,1-.05.12.18.18,0,0,1-.13.06.16.16,0,0,1-.12-.06.17.17,0,0,1,0-.12V45.5h.46l.95,2.15v-2a.17.17,0,0,1,.18-.18.17.17,0,0,1,.17.18Z" style="fill: #fff"/>
      <path d="M30.75,46v-.47h1.77V46a.18.18,0,0,1-.06.13.17.17,0,0,1-.12,0,.17.17,0,0,1-.18-.18v-.12h-.35V48.1a.21.21,0,0,1-.18.18.18.18,0,0,1-.13-.06.17.17,0,0,1-.05-.12V45.86H31.1V46a.17.17,0,0,1-.18.17.17.17,0,0,1-.17-.17Z" style="fill: #fff"/>
    </g>
    <g>
      <path d="M11.81,45.5h.58a.17.17,0,0,1,.18.18.18.18,0,0,1-.06.13.17.17,0,0,1-.12,0h-.55a.16.16,0,0,0-.14.07l-.5.64a.32.32,0,0,0-.06.2v1a.17.17,0,0,0,0,.13.17.17,0,0,0,.13.05H12a.13.13,0,0,0,.12-.05.14.14,0,0,0,.06-.12v-.38h-.37a.17.17,0,0,1-.12,0,.21.21,0,0,1-.05-.13.18.18,0,0,1,.05-.12.17.17,0,0,1,.12,0h.72v.73a.49.49,0,0,1-.16.37.51.51,0,0,1-.37.16h-.71a.55.55,0,0,1-.38-.16.51.51,0,0,1-.15-.37v-1a.65.65,0,0,1,.14-.44l.51-.66a.47.47,0,0,1,.37-.18Z" style="fill: #fff"/>
      <path d="M15.14,45.68v2.6h-.47l-.94-2.16v2a.17.17,0,0,1-.05.12.18.18,0,0,1-.13.06.14.14,0,0,1-.12-.06.17.17,0,0,1,0-.12V45.5h.46l.95,2.15v-2A.17.17,0,0,1,15,45.5a.17.17,0,0,1,.17.18Z" style="fill: #fff"/>
      <path d="M16.13,45.5h.69a.48.48,0,0,1,.27.09.63.63,0,0,1,.19.21l.34.7a.78.78,0,0,1,.1.39.88.88,0,0,1-.1.4l-.35.69a.55.55,0,0,1-.19.21.49.49,0,0,1-.28.09h-.67a.18.18,0,0,1-.13-.06A.17.17,0,0,1,16,48.1a.17.17,0,0,1,.18-.18h.18V45.86h-.18a.21.21,0,0,1-.18-.18.18.18,0,0,1,.06-.13A.17.17,0,0,1,16.13,45.5Zm.53.36v2.06h.12a.18.18,0,0,0,.18-.11l.34-.69a.49.49,0,0,0,.07-.23.5.5,0,0,0-.05-.21L17,46a.2.2,0,0,0-.19-.1Z" style="fill: #fff"/>
    </g>
    <g>
      <path d="M5.19,36.45v.64l-.71,1.82c0,.09-.09.13-.17.13a.19.19,0,0,1-.18-.13l-.7-1.82v-.64a.15.15,0,0,1,0-.13.13.13,0,0,1,.12,0,.17.17,0,0,1,.13,0,.19.19,0,0,1,0,.13V37l.53,1.36L4.84,37v-.57a.19.19,0,0,1,0-.13.17.17,0,0,1,.13,0,.13.13,0,0,1,.12,0A.15.15,0,0,1,5.19,36.45Z" style="fill: #fff"/>
      <path d="M7.42,39H6.35A.13.13,0,0,1,6.23,39a.18.18,0,0,1,.12-.3h.36v-1.3H6.35a.16.16,0,0,1-.12-.06.13.13,0,0,1-.05-.12.17.17,0,0,1,.05-.13.18.18,0,0,1,.12,0h.54a.17.17,0,0,1,.17.18v1.48h.35a.18.18,0,0,1,.13.06.17.17,0,0,1-.12.29ZM6.7,36.11h.19a.17.17,0,0,1,.17.18v.15a.13.13,0,0,1,0,.12.14.14,0,0,1-.12.06H6.7a.18.18,0,0,1-.13-.06.17.17,0,0,1-.05-.12v-.15a.21.21,0,0,1,0-.13A.18.18,0,0,1,6.7,36.11Z" style="fill: #fff"/>
      <path d="M9.41,37.43l-.48.31v1.12a.17.17,0,0,1-.29.13.18.18,0,0,1-.06-.13V37.2a.18.18,0,0,1,.06-.13.17.17,0,0,1,.29.13v.12l.32-.2a.76.76,0,0,1,.37-.1h.16a.49.49,0,0,1,.36.15.5.5,0,0,1,.16.36l0,1.33a.17.17,0,0,1-.29.13.15.15,0,0,1-.06-.13L10,37.56c0-.13-.07-.19-.19-.19H9.58A.35.35,0,0,0,9.41,37.43Z" style="fill: #fff"/>
    </g>
    <g>
      <path d="M19.8,36.62v.65a.54.54,0,0,1-.14.38.49.49,0,0,1,.15.35v.68a.34.34,0,0,1-.11.25.33.33,0,0,1-.25.1H18.21a.17.17,0,0,1-.12-.29.14.14,0,0,1,.12-.06h1.24V38a.17.17,0,0,0-.18-.18h-.7a.21.21,0,0,1-.13,0,.17.17,0,0,1-.05-.12.19.19,0,0,1,.05-.13.21.21,0,0,1,.13-.05h.71a.21.21,0,0,0,.12,0,.21.21,0,0,0,.05-.13v-.67H18.2a.17.17,0,0,1-.18-.18.17.17,0,0,1,.18-.17h1.25a.34.34,0,0,1,.35.35Z" style="fill: #fff"/>
      <path d="M22.39,36.45v.64l-.71,1.82a.19.19,0,0,1-.17.13.18.18,0,0,1-.18-.13l-.71-1.82v-.64a.19.19,0,0,1,.05-.13.17.17,0,0,1,.13,0,.13.13,0,0,1,.12,0,.15.15,0,0,1,0,.13V37l.54,1.36L22,37v-.57a.19.19,0,0,1,.05-.13.17.17,0,0,1,.13,0,.15.15,0,0,1,.12,0A.19.19,0,0,1,22.39,36.45Z" style="fill: #fff"/>
      <path d="M25,37.66v.74a.55.55,0,0,1-.22.43.66.66,0,0,1-.46.2h-.41a.66.66,0,0,1-.46-.2.6.6,0,0,1-.22-.43v-.74a.62.62,0,0,1,.22-.44.68.68,0,0,1,.46-.2h.41a.66.66,0,0,1,.46.2A.57.57,0,0,1,25,37.66Zm-1.41,0v.71a.16.16,0,0,0,.07.15l.13.12a.21.21,0,0,0,.12,0h.41a.25.25,0,0,0,.16-.06l.11-.09a.18.18,0,0,0,.06-.14v-.71a.21.21,0,0,0-.06-.16l-.12-.1a.3.3,0,0,0-.15-.05h-.36a.29.29,0,0,0-.19.06l-.12.1A.18.18,0,0,0,23.55,37.67Z" style="fill: #fff"/>
    </g>
    <g>
      <path d="M14.74,10.48V8A.21.21,0,0,1,15,7.8a.2.2,0,0,1,.14.06.21.21,0,0,1,.07.15v2.47a.21.21,0,0,0,.2.2h.86a.2.2,0,0,0,.15-.06.2.2,0,0,0,.06-.14V8a.21.21,0,0,1,.21-.21.22.22,0,0,1,.15.06.2.2,0,0,1,.06.15v2.46a.65.65,0,0,1-.19.45.6.6,0,0,1-.44.18h-.86a.61.61,0,0,1-.62-.62Z" style="fill: #fff"/>
      <path d="M19.93,8v.77L19.08,11a.21.21,0,0,1-.2.15.21.21,0,0,1-.21-.15l-.85-2.17V8a.2.2,0,0,1,.06-.15A.22.22,0,0,1,18,7.8a.21.21,0,0,1,.21.21v.68l.64,1.62.63-1.61V8a.21.21,0,1,1,.42,0Z" style="fill: #fff"/>
    </g>
    <g>
      <path d="M25.62,7.8H26.7a.53.53,0,0,1,.38.17.52.52,0,0,1,.18.4.18.18,0,0,1-.07.15.16.16,0,0,1-.14.07.17.17,0,0,1-.14-.05.51.51,0,0,1-.08-.18.15.15,0,0,0-.16-.13h-1c-.05,0-.08,0-.08,0a.11.11,0,0,0,0,.07l1.56,2a.53.53,0,0,1,.11.31.45.45,0,0,1-.14.33.42.42,0,0,1-.3.14H25.69a.56.56,0,0,1-.55-.54c0-.16.07-.24.22-.24a.2.2,0,0,1,.14.06.22.22,0,0,1,.06.15.16.16,0,0,0,.05.11.15.15,0,0,0,.11,0h1s.07,0,.07,0a.09.09,0,0,0,0-.06l-1.55-2a.53.53,0,0,1-.11-.31.49.49,0,0,1,.14-.34A.46.46,0,0,1,25.62,7.8Z" style="fill: #fff"/>
      <path d="M30.32,9.49V10a.21.21,0,0,1-.21.21H28.64v.12a.23.23,0,0,0,.09.19l.12.1a.32.32,0,0,0,.19.07h1.07a.18.18,0,0,1,.15.07.2.2,0,0,1,.06.14.21.21,0,0,1-.21.21H29a.66.66,0,0,1-.23,0,.5.5,0,0,1-.17-.1l-.19-.16a.63.63,0,0,1-.21-.43V9.42a.61.61,0,0,1,.07-.22A.47.47,0,0,1,28.44,9l.17-.14A.62.62,0,0,1,29,8.7h.59a.58.58,0,0,1,.42.19l.15.15A.55.55,0,0,1,30.32,9.49Zm-1.68,0v.32h1.27V9.49a.21.21,0,0,0-.07-.18l-.12-.11a.29.29,0,0,0-.17-.07H29a.27.27,0,0,0-.17.06l-.13.1A.23.23,0,0,0,28.64,9.46Z" style="fill: #fff"/>
      <path d="M32.28,9.19l-.57.37v1.33a.21.21,0,0,1-.21.21.2.2,0,0,1-.14-.06.21.21,0,0,1-.07-.15v-2a.21.21,0,0,1,.07-.15.2.2,0,0,1,.14-.06.21.21,0,0,1,.21.21v.14l.38-.23a.83.83,0,0,1,.44-.12h.19a.61.61,0,0,1,.62.61l.06,1.58a.21.21,0,0,1-.21.21.24.24,0,0,1-.14,0,.22.22,0,0,1-.07-.16l-.06-1.56c0-.14-.08-.21-.23-.21h-.2A.37.37,0,0,0,32.28,9.19Z" style="fill: #fff"/>
      <path d="M35,8.7h.95a.65.65,0,0,1,.4.14.34.34,0,0,1,.17.26.18.18,0,0,1-.06.14.22.22,0,0,1-.14.06.26.26,0,0,1-.19-.09.22.22,0,0,0-.17-.09H35c-.1,0-.14,0-.14.12a.14.14,0,0,0,.09.12L36,9.85a.65.65,0,0,1,.28.24.7.7,0,0,1,.11.37.66.66,0,0,1-.19.46.61.61,0,0,1-.43.18H35a.69.69,0,0,1-.41-.13c-.12-.09-.18-.17-.18-.26a.2.2,0,0,1,.06-.14.2.2,0,0,1,.15-.06.27.27,0,0,1,.17.08.38.38,0,0,0,.27.09h.78a.18.18,0,0,0,.15-.07.23.23,0,0,0,.06-.16.2.2,0,0,0-.14-.2l-1.12-.51a.58.58,0,0,1-.25-.21.54.54,0,0,1,.07-.66A.51.51,0,0,1,35,8.7Z" style="fill: #fff"/>
      <path d="M39.55,9.46v.88a.71.71,0,0,1-.26.52.82.82,0,0,1-.55.24h-.49a.79.79,0,0,1-.55-.25.71.71,0,0,1-.26-.51V9.46a.71.71,0,0,1,.26-.52.78.78,0,0,1,.55-.24h.49a.76.76,0,0,1,.55.23A.73.73,0,0,1,39.55,9.46Zm-1.69,0v.85a.2.2,0,0,0,.09.18l.15.13a.25.25,0,0,0,.15,0h.48a.3.3,0,0,0,.2-.08l.12-.11a.18.18,0,0,0,.08-.17V9.48a.21.21,0,0,0-.08-.19l-.14-.11a.28.28,0,0,0-.18-.06H38.3a.36.36,0,0,0-.22.06l-.14.12A.23.23,0,0,0,37.86,9.47Z" style="fill: #fff"/>
      <path d="M40.52,10.89v-2a.21.21,0,1,1,.42,0v.26l.34-.29a.65.65,0,0,1,.41-.18H42a.58.58,0,0,1,.44.19.61.61,0,0,1,.19.44v.11a.21.21,0,0,1-.07.15.2.2,0,0,1-.14.06.2.2,0,0,1-.15-.06.2.2,0,0,1-.06-.14V9.33A.21.21,0,0,0,42,9.12h-.27a.32.32,0,0,0-.2.09l-.59.52v1.16a.21.21,0,1,1-.42,0Z" style="fill: #fff"/>
    </g>
    <g>
      <path d="M20.24,2.14h1.09a.58.58,0,0,1,.55.58.2.2,0,0,1-.06.15.2.2,0,0,1-.14.06.21.21,0,0,1-.15-.05.55.55,0,0,1-.07-.18.16.16,0,0,0-.16-.13h-1c-.05,0-.07,0-.07.05a.13.13,0,0,0,0,.07l1.55,2a.45.45,0,0,1,.11.31.44.44,0,0,1-.13.32.4.4,0,0,1-.3.15H20.32a.56.56,0,0,1-.55-.55c0-.15.07-.23.21-.23a.2.2,0,0,1,.15.06.2.2,0,0,1,.06.14.14.14,0,0,0,0,.11.17.17,0,0,0,.12,0h1s.07,0,.07,0,0,0,0-.07l-1.55-2a.5.5,0,0,1-.1-.31.48.48,0,0,1,.13-.34A.49.49,0,0,1,20.24,2.14Z" style="fill: #fff"/>
      <path d="M23.05,2.14h1.69a.24.24,0,0,1,.15.06.22.22,0,0,1,.06.15.21.21,0,0,1-.21.21h-.63V5h.63a.21.21,0,0,1,.21.21.22.22,0,0,1-.21.21H23.05a.22.22,0,0,1-.21-.21A.21.21,0,0,1,23.05,5h.64V2.56h-.64a.2.2,0,0,1-.15-.06.2.2,0,0,1-.06-.14.25.25,0,0,1,.06-.16A.2.2,0,0,1,23.05,2.14Z" style="fill: #fff"/>
      <path d="M26.12,5h.64V2.56h-.63a.21.21,0,1,1,0-.42h1V5h.42V4.15A.2.2,0,0,1,27.65,4a.21.21,0,0,1,.15-.07.22.22,0,0,1,.21.21V5.23a.21.21,0,0,1-.21.21H26.12a.21.21,0,1,1,0-.42Z" style="fill: #fff"/>
      <path d="M29.19,5h.64V2.56H29.2a.21.21,0,1,1,0-.42h1.05V5h.42V4.15A.2.2,0,0,1,30.73,4a.21.21,0,0,1,.15-.07A.17.17,0,0,1,31,4a.16.16,0,0,1,.07.14V5.23a.18.18,0,0,1-.07.15.2.2,0,0,1-.14.06H29.19a.21.21,0,1,1,0-.42Z" style="fill: #fff"/>
      <path d="M33.44,5.23V4.36H32.18v-2a.2.2,0,0,1,.06-.15.22.22,0,0,1,.15-.06.21.21,0,0,1,.21.21V3.94h.84V2.72a.2.2,0,0,1,.06-.15.18.18,0,0,1,.15-.07.17.17,0,0,1,.14.07.2.2,0,0,1,.06.15V3.94a.21.21,0,1,1,0,.42v.87a.2.2,0,0,1-.06.15.2.2,0,0,1-.14.06.21.21,0,0,1-.21-.21Z" style="fill: #fff"/>
      <path d="M35.91,5h1V4H35.62V2.14h1.47a.2.2,0,0,1,.14.06.19.19,0,0,1,.07.15.18.18,0,0,1-.07.15.2.2,0,0,1-.14.06H36v1h.84a.37.37,0,0,1,.29.13A.41.41,0,0,1,37.3,4V5a.42.42,0,0,1-.13.3.4.4,0,0,1-.29.12h-1a.74.74,0,0,1-.28-.06l-.31-.13a.2.2,0,0,1-.13-.2.2.2,0,0,1,.06-.15.18.18,0,0,1,.14-.06.27.27,0,0,1,.14,0l.28.11A.19.19,0,0,0,35.91,5Z" style="fill: #fff"/>
    </g>
  </g>
  <g id="Connectors">
    <ellipse cx="50.81" cy="42.55" data-cir-type="male" id="circuitoCon_SDA" rx="2.05" ry="1.99" style="fill: none;stroke: #e5e3dd;stroke-miterlimit: 10;stroke-width: 1.224px"/>
    <ellipse cx="43.62" cy="42.55" data-cir-type="male" id="circuitoCon_SCL" rx="2.05" ry="1.99" style="fill: none;stroke: #e5e3dd;stroke-miterlimit: 10;stroke-width: 1.224px"/>
    <ellipse cx="36.42" cy="42.55" data-cir-type="male" id="circuitoCon_LED" rx="2.05" ry="1.99" style="fill: none;stroke: #e5e3dd;stroke-miterlimit: 10;stroke-width: 1.224px"/>
    <ellipse cx="22.03" cy="42.55" data-cir-type="male" id="circuitoCon_3vo" rx="2.05" ry="1.99" style="fill: none;stroke: #e5e3dd;stroke-miterlimit: 10;stroke-width: 1.224px"/>
    <ellipse cx="14.79" cy="42.55" data-cir-type="male" id="circuitoCon_GND" rx="2.05" ry="1.99" style="fill: none;stroke: #e5e3dd;stroke-miterlimit: 10;stroke-width: 1.224px"/>
    <ellipse cx="29.23" cy="42.55" data-cir-type="male" id="circuitoCon_INT" rx="2.05" ry="1.99" style="fill: none;stroke: #e5e3dd;stroke-miterlimit: 10;stroke-width: 1.224px"/>
    <path d="M4.91,40.08V45h5.15V40.08Zm2.53,3.8a1.37,1.37,0,0,1,0-2.74A1.37,1.37,0,0,1,7.44,43.88Z" style="fill: #e5e3dd"/>
    <circle cx="7.38" cy="42.5" data-cir-type="male" id="circuitoCon_VIN" r="1.33" style="fill: none"/>
  </g>
</svg>