<?xml version="1.0" ?><svg height="68.21mm" viewBox="0 0 20.26 193.36" width="7.15mm" xmlns="http://www.w3.org/2000/svg">
  <title>Flex Sensor 4.5_</title>
  <g data-name="Layer 3" id="Layer_3">
    <path d="M20.26,0V182.16c-5.87,0-14.28,0-20.15,0C.48,121.55-.26,60.63.11,0,6.45-.07,13.91.14,20.26,0Z" style="fill: #90372a"/>
    <path d="M10.58,163.16c0,5.43,0,11.42,0,16.84l0,.37.38,2.85.7,1v8.28l1,.69.86-.75.14-8.22.64-1,.22-2.94,0-.31v-.33l.21-16.48Z" style="fill: #d7d1c0"/>
    <line style="fill: #90372a" x1="11.12" x2="13.48" y1="163.56" y2="163.65"/>
    <line style="fill: #90372a" x1="11.12" x2="13.48" y1="163.56" y2="163.65"/>
    <path d="M12.23,186.31,3.66,180.2" style="fill: #90372a"/>
    <path d="M6.11,158.09l.74-151,9.88.1-1.57,151Z" style="fill: #292826"/>
    <rect height="8.33" style="fill: #d7d1c0" transform="translate(-133.41 154.76) rotate(-90)" width="10.04" x="5.66" y="139.92"/>
    <rect height="8.33" style="fill: #d7d1c0" transform="translate(-121.43 143.15) rotate(-90)" width="10.04" x="5.84" y="128.13"/>
    <rect height="8.33" style="fill: #d7d1c0" transform="translate(-109.23 131.36) rotate(-90)" width="10.04" x="6.04" y="116.13"/>
    <rect height="8.33" style="fill: #d7d1c0" transform="translate(-97.43 119.57) rotate(-90)" width="10.04" x="6.04" y="104.33"/>
    <rect height="8.33" style="fill: #d7d1c0" transform="translate(-85.8 108.03) rotate(-90)" width="10.04" x="6.1" y="92.75"/>
    <rect height="8.33" style="fill: #d7d1c0" transform="translate(-73.67 95.91) rotate(-90)" width="10.04" x="6.1" y="80.63"/>
    <rect height="8.33" style="fill: #d7d1c0" transform="translate(-61.6 83.94) rotate(-90)" width="10.04" x="6.15" y="68.6"/>
    <rect height="8.33" style="fill: #d7d1c0" transform="translate(-49.3 71.53) rotate(-90)" width="10.04" x="6.1" y="56.25"/>
    <rect height="8.33" style="fill: #d7d1c0" transform="translate(-37.21 60.05) rotate(-90)" width="10.04" x="6.4" y="44.46"/>
    <rect height="8.33" style="fill: #d7d1c0" transform="translate(-25.62 48.46) rotate(-90)" width="10.04" x="6.4" y="32.88"/>
    <rect height="8.33" style="fill: #d7d1c0" transform="translate(-13.58 36.42) rotate(-90)" width="10.04" x="6.4" y="20.83"/>
    <rect height="8.33" style="fill: #d7d1c0" transform="translate(-1.84 24.83) rotate(-90)" width="10.04" x="6.47" y="9.17"/>
    <path d="M9.15,179.38" style="fill: #d7d1c0"/>
    <line style="fill: #d7d1c0" x1="3.34" x2="7.52" y1="163.94" y2="163.38"/>
    <polygon points="6.9 158.56 11.12 158.56 11.12 163.56 13.48 163.65 13.48 158.31 14.98 158.31 14.98 154.52 6.9 154.52 6.9 158.56" style="fill: #d7d1c0"/>
    <path d="M7.32,4.56l-.57.35v.6q0-.3,0-.6L4.63,6.15H2.92c-.54,92.92-.52,64.06-1.06,157l1.47.81,4.19-.56-3.42-2L5,8.31l1.71-1-.26.13,0-1.25L7,5.85,16.15,6l0-3.67L7.4,2.29Z" style="fill: #d7d1c0"/>
    <line style="fill: #292826" x1="7.32" x2="7.32" y1="180.19" y2="183.44"/>
    <path d="M3.34,163.94q0,8.14,0,16.28l0,.37.38,2.85.7,1v8.28l1,.69.86-.75.14-8.22.64-1,.22-2.94,0-.31v-.33l.21-16.48Z" style="fill: #d7d1c0"/>
    <rect height="1.61" style="fill: #ada38e" transform="translate(-160.75 188.3) rotate(-90)" width="3.2" x="12.17" y="173.72"/>
    <path d="M13,172.95l-.31-.53h2l-.16.52" style="fill: none;stroke: #000;stroke-miterlimit: 10;stroke-width: 0.05px"/>
    <path d="M13,176.11l-.29.58h2.07l-.23-.6" style="fill: none;stroke: #000;stroke-miterlimit: 10;stroke-width: 0.05px"/>
    <rect height="1.61" style="fill: #ada38e" transform="translate(-155.78 183.27) rotate(-90)" width="3.2" x="12.14" y="168.72"/>
    <path d="M13,167.94l-.31-.53h2l-.16.52" style="fill: none;stroke: #000;stroke-miterlimit: 10;stroke-width: 0.05px"/>
    <path d="M13,171.11l-.29.58h2.07l-.23-.6" style="fill: none;stroke: #000;stroke-miterlimit: 10;stroke-width: 0.05px"/>
    <rect height="1.61" style="fill: #ada38e" transform="translate(-168.38 180.68) rotate(-90)" width="3.2" x="4.55" y="173.72"/>
    <path d="M5.36,172.95,5,172.42h2l-.16.52" style="fill: none;stroke: #000;stroke-miterlimit: 10;stroke-width: 0.05px"/>
    <path d="M5.37,176.11l-.29.58H7.15l-.23-.6" style="fill: none;stroke: #000;stroke-miterlimit: 10;stroke-width: 0.05px"/>
    <rect height="1.61" style="fill: #ada38e" transform="translate(-163.4 175.64) rotate(-90)" width="3.2" x="4.52" y="168.72"/>
    <path d="M5.33,167.94,5,167.41h2l-.16.52" style="fill: none;stroke: #000;stroke-miterlimit: 10;stroke-width: 0.05px"/>
    <path d="M5.34,171.11l-.29.58H7.12l-.23-.6" style="fill: none;stroke: #000;stroke-miterlimit: 10;stroke-width: 0.05px"/>
    <path d="M9.59,178.31c2.92,0,2.92-3.44,0-3.44Z" style="fill: #ada38e"/>
    <path d="M9.59,174.14c2.92,0,2.92-3.44,0-3.44Z" style="fill: #ada38e"/>
    <path d="M2.46,178.31c2.92,0,2.92-3.44,0-3.44Z" style="fill: #ada38e"/>
    <path d="M2.46,174.14c2.92,0,2.92-3.44,0-3.44Z" style="fill: #ada38e"/>
  </g>
  <g id="Connectors">
    <rect data-cir-type="male" height="1.67" id="circuitoCon_Vin" style="fill: none" width="1.82" x="4.48" y="190.95"/>
    <rect data-cir-type="male" height="1.67" id="circuitoCon_Sig" style="fill: none" width="1.82" x="11.77" y="190.95"/>
  </g>
</svg>