<?xml version="1.0" ?><svg height="19.76mm" viewBox="0 0 89.83 56" width="31.69mm" xmlns="http://www.w3.org/2000/svg" xmlns:xlink="http://www.w3.org/1999/xlink">
  <defs>
    <linearGradient gradientUnits="userSpaceOnUse" id="Tin" x1="30.06" x2="80.85" y1="28.03" y2="28.03">
      <stop offset="0.03" stop-color="#a7a9ac"/>
      <stop offset="0.23" stop-color="#b6b8ba"/>
      <stop offset="0.38" stop-color="#c4c6c8"/>
      <stop offset="0.57" stop-color="#b5b7ba"/>
      <stop offset="0.72" stop-color="#a7a9ac"/>
      <stop offset="1" stop-color="#d1d3d4"/>
      <stop offset="1" stop-color="#a7a9ac"/>
    </linearGradient>
    <radialGradient cx="55.45" cy="28.03" data-name="Pewter Radial" gradientUnits="userSpaceOnUse" id="Pewter_Radial" r="25.9">
      <stop offset="0.01" stop-color="#aeb0b7"/>
      <stop offset="0.32" stop-color="#aaaaa8"/>
      <stop offset="0.35" stop-color="#a9a9a6"/>
      <stop offset="0.5" stop-color="#9a9e9e"/>
      <stop offset="0.67" stop-color="#838c92"/>
      <stop offset="1" stop-color="#657076"/>
    </radialGradient>
    <radialGradient cx="56.16" cy="7.27" data-name="Steel Radial" gradientTransform="translate(36.97 -31.96) rotate(45)" gradientUnits="userSpaceOnUse" id="Steel_Radial" r="13.36">
      <stop offset="0" stop-color="#e5e2df"/>
      <stop offset="0" stop-color="#f1efee"/>
      <stop offset="0" stop-color="#fff"/>
      <stop offset="0.12" stop-color="#f0f1f1"/>
      <stop offset="0.36" stop-color="#c9cbcc"/>
      <stop offset="0.52" stop-color="#acaeb0"/>
      <stop offset="0.6" stop-color="#a2a5a7"/>
      <stop offset="0.74" stop-color="#888d90"/>
      <stop offset="0.91" stop-color="#5e6769"/>
      <stop offset="1" stop-color="#455053"/>
    </radialGradient>
    <radialGradient cx="56.15" cy="8.18" id="Steel_Radial-2" r="13.79" xlink:href="#Steel_Radial"/>
    <radialGradient cx="56.14" cy="9.11" id="Steel_Radial-3" r="14.21" xlink:href="#Steel_Radial"/>
    <radialGradient cx="56.14" cy="10.03" id="Steel_Radial-4" r="14.6" xlink:href="#Steel_Radial"/>
    <radialGradient cx="56.13" cy="10.95" id="Steel_Radial-5" r="14.98" xlink:href="#Steel_Radial"/>
    <radialGradient cx="56.13" cy="11.86" id="Steel_Radial-6" r="15.33" xlink:href="#Steel_Radial"/>
    <radialGradient cx="56.12" cy="12.78" id="Steel_Radial-7" r="15.67" xlink:href="#Steel_Radial"/>
    <radialGradient cx="56.12" cy="13.7" id="Steel_Radial-8" r="15.99" xlink:href="#Steel_Radial"/>
    <radialGradient cx="56.11" cy="14.62" id="Steel_Radial-9" r="16.29" xlink:href="#Steel_Radial"/>
    <radialGradient cx="56.11" cy="15.51" id="Steel_Radial-10" r="16.57" xlink:href="#Steel_Radial"/>
    <radialGradient cx="56.11" cy="16.45" id="Steel_Radial-11" r="16.84" xlink:href="#Steel_Radial"/>
    <radialGradient cx="56.1" cy="17.37" id="Steel_Radial-12" r="17.08" xlink:href="#Steel_Radial"/>
    <radialGradient cx="56.1" cy="18.29" id="Steel_Radial-13" r="17.31" xlink:href="#Steel_Radial"/>
    <radialGradient cx="56.1" cy="19.21" id="Steel_Radial-14" r="17.52" xlink:href="#Steel_Radial"/>
    <radialGradient cx="56.09" cy="20.13" id="Steel_Radial-15" r="17.7" xlink:href="#Steel_Radial"/>
    <radialGradient cx="56.09" cy="21.05" id="Steel_Radial-16" r="17.87" xlink:href="#Steel_Radial"/>
    <radialGradient cx="56.09" cy="21.97" id="Steel_Radial-17" r="18.02" xlink:href="#Steel_Radial"/>
    <radialGradient cx="56.09" cy="22.89" id="Steel_Radial-18" r="18.15" xlink:href="#Steel_Radial"/>
    <radialGradient cx="56.09" cy="23.83" id="Steel_Radial-19" r="18.26" xlink:href="#Steel_Radial"/>
    <radialGradient cx="56.09" cy="24.75" id="Steel_Radial-20" r="18.35" xlink:href="#Steel_Radial"/>
    <radialGradient cx="56.08" cy="25.67" id="Steel_Radial-21" r="18.42" xlink:href="#Steel_Radial"/>
    <radialGradient cx="56.08" cy="26.59" id="Steel_Radial-22" r="18.47" xlink:href="#Steel_Radial"/>
    <radialGradient cx="56.08" cy="27.5" id="Steel_Radial-23" r="18.5" xlink:href="#Steel_Radial"/>
    <radialGradient cx="56.08" cy="28.42" id="Steel_Radial-24" r="18.51" xlink:href="#Steel_Radial"/>
    <radialGradient cx="56.08" cy="29.34" id="Steel_Radial-25" r="18.51" xlink:href="#Steel_Radial"/>
    <radialGradient cx="56.08" cy="30.22" id="Steel_Radial-26" r="18.49" xlink:href="#Steel_Radial"/>
    <radialGradient cx="56.08" cy="31.16" id="Steel_Radial-27" r="18.45" xlink:href="#Steel_Radial"/>
    <radialGradient cx="56.09" cy="32.08" id="Steel_Radial-28" r="18.39" xlink:href="#Steel_Radial"/>
    <radialGradient cx="56.09" cy="33" id="Steel_Radial-29" r="18.31" xlink:href="#Steel_Radial"/>
    <radialGradient cx="56.09" cy="33.92" id="Steel_Radial-30" r="18.21" xlink:href="#Steel_Radial"/>
    <radialGradient cx="56.09" cy="34.84" id="Steel_Radial-31" r="18.09" xlink:href="#Steel_Radial"/>
    <radialGradient cx="56.09" cy="35.76" id="Steel_Radial-32" r="17.95" xlink:href="#Steel_Radial"/>
    <radialGradient cx="56.09" cy="36.68" id="Steel_Radial-33" r="17.8" xlink:href="#Steel_Radial"/>
    <radialGradient cx="56.1" cy="37.6" id="Steel_Radial-34" r="17.62" xlink:href="#Steel_Radial"/>
    <radialGradient cx="56.1" cy="38.54" id="Steel_Radial-35" r="17.42" xlink:href="#Steel_Radial"/>
    <radialGradient cx="56.1" cy="39.46" id="Steel_Radial-36" r="17.2" xlink:href="#Steel_Radial"/>
    <radialGradient cx="56.11" cy="40.38" id="Steel_Radial-37" r="16.97" xlink:href="#Steel_Radial"/>
    <radialGradient cx="56.11" cy="41.29" id="Steel_Radial-38" r="16.71" xlink:href="#Steel_Radial"/>
    <radialGradient cx="56.11" cy="42.21" id="Steel_Radial-39" r="16.44" xlink:href="#Steel_Radial"/>
    <radialGradient cx="56.12" cy="43.13" id="Steel_Radial-40" r="16.15" xlink:href="#Steel_Radial"/>
    <radialGradient cx="56.12" cy="44.05" id="Steel_Radial-41" r="15.84" xlink:href="#Steel_Radial"/>
    <radialGradient cx="56.13" cy="44.94" id="Steel_Radial-42" r="15.52" xlink:href="#Steel_Radial"/>
    <radialGradient cx="56.13" cy="45.88" id="Steel_Radial-43" r="15.16" xlink:href="#Steel_Radial"/>
    <radialGradient cx="56.14" cy="46.8" id="Steel_Radial-44" r="14.79" xlink:href="#Steel_Radial"/>
    <radialGradient cx="56.14" cy="47.71" id="Steel_Radial-45" r="14.41" xlink:href="#Steel_Radial"/>
    <radialGradient cx="56.15" cy="48.63" id="Steel_Radial-46" r="14.01" xlink:href="#Steel_Radial"/>
    <radialGradient cx="56.15" cy="49.54" id="Steel_Radial-47" r="13.59" xlink:href="#Steel_Radial"/>
    <radialGradient cx="56.16" cy="50.7" id="Steel_Radial-48" r="13.19" xlink:href="#Steel_Radial"/>
    <radialGradient cx="78.51" cy="28.58" id="Steel_Radial-49" r="13.19" xlink:href="#Steel_Radial"/>
    <radialGradient cx="77.35" cy="28.58" id="Steel_Radial-50" r="13.59" xlink:href="#Steel_Radial"/>
    <radialGradient cx="76.42" cy="28.58" id="Steel_Radial-51" r="14.02" xlink:href="#Steel_Radial"/>
    <radialGradient cx="75.5" cy="28.58" id="Steel_Radial-52" r="14.41" xlink:href="#Steel_Radial"/>
    <radialGradient cx="74.59" cy="28.58" id="Steel_Radial-53" r="14.8" xlink:href="#Steel_Radial"/>
    <radialGradient cx="73.67" cy="28.57" id="Steel_Radial-54" r="15.16" xlink:href="#Steel_Radial"/>
    <radialGradient cx="72.75" cy="28.57" id="Steel_Radial-55" r="15.51" xlink:href="#Steel_Radial"/>
    <radialGradient cx="71.84" cy="28.57" id="Steel_Radial-56" r="15.83" xlink:href="#Steel_Radial"/>
    <radialGradient cx="70.92" cy="28.57" id="Steel_Radial-57" r="16.14" xlink:href="#Steel_Radial"/>
    <radialGradient cx="70.02" cy="28.57" id="Steel_Radial-58" r="16.43" xlink:href="#Steel_Radial"/>
    <radialGradient cx="69.08" cy="28.57" id="Steel_Radial-59" r="16.7" xlink:href="#Steel_Radial"/>
    <radialGradient cx="68.16" cy="28.56" id="Steel_Radial-60" r="16.96" xlink:href="#Steel_Radial"/>
    <radialGradient cx="67.25" cy="28.56" id="Steel_Radial-61" r="17.19" xlink:href="#Steel_Radial"/>
    <radialGradient cx="66.33" cy="28.56" id="Steel_Radial-62" r="17.41" xlink:href="#Steel_Radial"/>
    <radialGradient cx="65.41" cy="28.56" id="Steel_Radial-63" r="17.6" xlink:href="#Steel_Radial"/>
    <radialGradient cx="64.49" cy="28.56" id="Steel_Radial-64" r="17.78" xlink:href="#Steel_Radial"/>
    <radialGradient cx="63.57" cy="28.56" id="Steel_Radial-65" r="17.94" xlink:href="#Steel_Radial"/>
    <radialGradient cx="62.65" cy="28.56" id="Steel_Radial-66" r="18.08" xlink:href="#Steel_Radial"/>
    <radialGradient cx="61.71" cy="28.56" id="Steel_Radial-67" r="18.2" xlink:href="#Steel_Radial"/>
    <radialGradient cx="60.79" cy="28.56" id="Steel_Radial-68" r="18.3" xlink:href="#Steel_Radial"/>
    <radialGradient cx="59.87" cy="28.56" id="Steel_Radial-69" r="18.38" xlink:href="#Steel_Radial"/>
    <radialGradient cx="58.95" cy="28.56" id="Steel_Radial-70" r="18.44" xlink:href="#Steel_Radial"/>
    <radialGradient cx="58.03" cy="28.56" id="Steel_Radial-71" r="18.49" xlink:href="#Steel_Radial"/>
    <radialGradient cx="57.11" cy="28.56" id="Steel_Radial-72" r="18.51" xlink:href="#Steel_Radial"/>
    <radialGradient cx="56.19" cy="28.56" id="Steel_Radial-73" r="18.51" xlink:href="#Steel_Radial"/>
    <radialGradient cx="55.32" cy="28.56" id="Steel_Radial-74" r="18.51" xlink:href="#Steel_Radial"/>
    <radialGradient cx="54.38" cy="28.56" id="Steel_Radial-75" r="18.48" xlink:href="#Steel_Radial"/>
    <radialGradient cx="53.46" cy="28.56" id="Steel_Radial-76" r="18.43" xlink:href="#Steel_Radial"/>
    <radialGradient cx="52.54" cy="28.56" id="Steel_Radial-77" r="18.36" xlink:href="#Steel_Radial"/>
    <radialGradient cx="51.62" cy="28.56" id="Steel_Radial-78" r="18.28" xlink:href="#Steel_Radial"/>
    <radialGradient cx="50.7" cy="28.56" id="Steel_Radial-79" r="18.17" xlink:href="#Steel_Radial"/>
    <radialGradient cx="49.78" cy="28.56" id="Steel_Radial-80" r="18.05" xlink:href="#Steel_Radial"/>
    <radialGradient cx="48.86" cy="28.56" id="Steel_Radial-81" r="17.9" xlink:href="#Steel_Radial"/>
    <radialGradient cx="47.94" cy="28.56" id="Steel_Radial-82" r="17.74" xlink:href="#Steel_Radial"/>
    <radialGradient cx="47" cy="28.56" id="Steel_Radial-83" r="17.55" xlink:href="#Steel_Radial"/>
    <radialGradient cx="46.08" cy="28.56" id="Steel_Radial-84" r="17.35" xlink:href="#Steel_Radial"/>
    <radialGradient cx="45.16" cy="28.56" id="Steel_Radial-85" r="17.13" xlink:href="#Steel_Radial"/>
    <radialGradient cx="44.24" cy="28.57" id="Steel_Radial-86" r="16.89" xlink:href="#Steel_Radial"/>
    <radialGradient cx="43.32" cy="28.57" id="Steel_Radial-87" r="16.63" xlink:href="#Steel_Radial"/>
    <radialGradient cx="42.41" cy="28.57" id="Steel_Radial-88" r="16.36" xlink:href="#Steel_Radial"/>
    <radialGradient cx="41.49" cy="28.57" id="Steel_Radial-89" r="16.06" xlink:href="#Steel_Radial"/>
    <radialGradient cx="40.59" cy="28.57" id="Steel_Radial-90" r="15.75" xlink:href="#Steel_Radial"/>
    <radialGradient cx="39.65" cy="28.57" id="Steel_Radial-91" r="15.41" xlink:href="#Steel_Radial"/>
    <radialGradient cx="38.74" cy="28.57" id="Steel_Radial-92" r="15.06" xlink:href="#Steel_Radial"/>
    <radialGradient cx="37.82" cy="28.58" id="Steel_Radial-93" r="14.69" xlink:href="#Steel_Radial"/>
    <radialGradient cx="36.91" cy="28.58" id="Steel_Radial-94" r="14.31" xlink:href="#Steel_Radial"/>
    <radialGradient cx="35.99" cy="28.58" id="Steel_Radial-95" r="13.9" xlink:href="#Steel_Radial"/>
    <radialGradient cx="35.08" cy="28.58" id="Steel_Radial-96" r="13.48" xlink:href="#Steel_Radial"/>
    <linearGradient gradientUnits="userSpaceOnUse" id="Silver" x1="29.23" x2="83.32" y1="27.92" y2="27.92">
      <stop offset="0" stop-color="#e5e2df"/>
      <stop offset="0" stop-color="#ded9d6"/>
      <stop offset="0.06" stop-color="#cfcac9"/>
      <stop offset="0.18" stop-color="#a8a4a7"/>
      <stop offset="0.26" stop-color="#8b878d"/>
      <stop offset="0.52" stop-color="#f3f4f4"/>
      <stop offset="0.58" stop-color="#e5e5e6"/>
      <stop offset="0.7" stop-color="#c0bec0"/>
      <stop offset="0.86" stop-color="#858085"/>
      <stop offset="0.88" stop-color="#807b80"/>
      <stop offset="1" stop-color="#d1d3d4"/>
      <stop offset="1" stop-color="#a7a9ac"/>
    </linearGradient>
  </defs>
  <title>MQ-6</title>
  <g data-name="Layer 14" id="Layer_14">
    <g data-name="STROKE background" id="STROKE_background">
      <path d="M89.83,56V0H0V56ZM84,2.4c5.71,0,5.7,8.86,0,8.86S78.3,2.4,84,2.4Zm-.27,42.35c5.71,0,5.7,8.86,0,8.86S78,44.76,83.73,44.76ZM7.5,2.24c5.71,0,5.7,8.86,0,8.86S1.8,2.24,7.5,2.24Zm-2,34.93a1.71,1.71,0,0,1,0,3.42A1.71,1.71,0,0,1,5.54,37.17Zm-.06-7.37a1.71,1.71,0,0,1,0,3.42A1.71,1.71,0,0,1,5.48,29.79ZM5.6,26a1.71,1.71,0,0,1,0-3.42A1.71,1.71,0,0,1,5.6,26ZM5.42,15.48a1.71,1.71,0,0,1,0,3.42A1.71,1.71,0,0,1,5.42,15.48ZM7.33,44.9c5.71,0,5.7,8.86,0,8.86S1.63,44.9,7.33,44.9Z" style="fill: #1e5973"/>
    </g>
    <g id="backdround">
      <path d="M89.83,56V0H1.29V56ZM84,2.4c5.71,0,5.7,8.86,0,8.86S78.3,2.4,84,2.4Zm-.27,42.35c5.71,0,5.7,8.86,0,8.86S78,44.76,83.73,44.76ZM7.5,2.24c5.71,0,5.7,8.86,0,8.86S1.8,2.24,7.5,2.24ZM5.44,37c2.2,0,2.2,3.5,0,3.5S3.25,37,5.44,37Zm.06-7.28c2.2,0,2.2,3.5,0,3.5S3.3,29.71,5.5,29.71Zm.1-3.8c-2.2,0-2.2-3.5,0-3.5S7.8,25.91,5.6,25.91ZM5.42,15.1c2.2,0,2.2,3.5,0,3.5S3.22,15.1,5.42,15.1ZM7.33,44.9c5.71,0,5.7,8.86,0,8.86S1.63,44.9,7.33,44.9Z" style="fill: #0b5597"/>
    </g>
    <g id="points">
      <path d="M70.45,51.92" style="fill: none;stroke: #1a2c80;stroke-miterlimit: 10;stroke-width: 0.04px"/>
      <path d="M3.18,32.67a2.6,2.6,0,0,0,1.3,1.25,2.7,2.7,0,0,0,2.06,0c.41-.2.46-.4,1.13-.8a6.15,6.15,0,0,1,1-.46H16l2.89,2.89V50a1.81,1.81,0,0,0,0,1.9,1.1,1.1,0,0,0,.38.29,1.65,1.65,0,0,0,1.51-.29H70.45c1.1.29,1.85.06,2.13-.88-.14-1.21-.87-1.55-2.13-1.12H20.67V34.71l-4.5-4.33H8.58A6.22,6.22,0,0,1,7.84,30c-.43-.27-.61-.45-.84-.61a2.9,2.9,0,0,0-1.64-.49,2.71,2.71,0,0,0-2.17,3.78Zm2.3-2.88a1.71,1.71,0,0,1,0,3.42A1.71,1.71,0,0,1,5.48,29.79Z" style="fill: none;stroke: #1a2c80;stroke-miterlimit: 10;stroke-width: 0.5px"/>
    </g>
    <g data-name="white ellipse" id="white_ellipse">
      <g>
        <circle cx="7.41" cy="6.73" r="4.46" style="fill: none;stroke: #a7a098;stroke-miterlimit: 10"/>
        <circle cx="7.41" cy="49.23" r="4.46" style="fill: none;stroke: #a7a098;stroke-miterlimit: 10"/>
        <circle cx="83.75" cy="6.73" r="4.46" style="fill: none;stroke: #a7a098;stroke-miterlimit: 10"/>
      </g>
      <circle cx="83.75" cy="49.23" r="4.46" style="fill: none;stroke: #a7a098;stroke-miterlimit: 10"/>
    </g>
    <g data-name="POINTS +" id="POINTS_">
      <circle cx="19.88" cy="50.85" r="0.42" style="fill: #20364f"/>
      <circle cx="19.88" cy="50.85" r="0.15" style="fill: #4e5e71"/>
      <circle cx="71.44" cy="50.85" r="0.42" style="fill: #20364f"/>
      <circle cx="71.44" cy="50.85" r="0.15" style="fill: #4e5e71"/>
    </g>
    <g id="buttons">
      <circle cx="30.39" cy="10.18" r="2.53" style="fill: #434e58"/>
      <circle cx="30.39" cy="10.18" r="1.85" style="fill: #6d6666"/>
      <circle cx="23.29" cy="17.29" r="2.53" style="fill: #434e58"/>
      <circle cx="23.29" cy="17.29" r="1.85" style="fill: #6d6666"/>
      <g>
        <circle cx="16.18" cy="10.18" r="2.53" style="fill: #434e58"/>
        <circle cx="16.18" cy="10.18" r="1.85" style="fill: #6d6666"/>
      </g>
      <g>
        <path d="M11.37,15.8v-1a.3.3,0,0,1,.6,0v.95a.62.62,0,0,1,0,.23l-1.15,2.92c-.06.15-.11.26-.3.26s-.24-.11-.3-.26L9,16a.61.61,0,0,1,0-.23v-.95a.3.3,0,1,1,.6,0v1l.88,2.29Z" style="fill: #fff"/>
        <path d="M14.94,19.21a.9.9,0,0,1-.9-.57l-.55-1.12a1.34,1.34,0,0,1-.16-.63,1.31,1.31,0,0,1,.17-.67L14,15.12a.9.9,0,0,1,.92-.58h1a.28.28,0,0,1,.3.3.28.28,0,0,1-.3.3H15c-.26,0-.3,0-.41.25l-.52,1a.93.93,0,0,0-.13.46.83.83,0,0,0,.13.41l.51,1c.12.25.18.26.45.26h1a.28.28,0,0,1,.3.3.28.28,0,0,1-.3.3Z" style="fill: #fff"/>
        <path d="M19.26,19.21a.9.9,0,0,1-.9-.57l-.55-1.12a1.34,1.34,0,0,1-.16-.63,1.31,1.31,0,0,1,.17-.67l.55-1.11a.9.9,0,0,1,.92-.58h1a.28.28,0,0,1,.3.3.28.28,0,0,1-.3.3h-1c-.26,0-.3,0-.41.25l-.52,1a.93.93,0,0,0-.13.46.83.83,0,0,0,.13.41l.51,1c.12.25.18.26.45.26h1a.28.28,0,0,1,.3.3.28.28,0,0,1-.3.3Z" style="fill: #fff"/>
      </g>
      <g>
        <path d="M18.07,2.06h.75V6.43a.3.3,0,1,1-.6,0V2.89h0l-.57.85v.1c0,.19-.07.36-.3.36S17,4,17,3.83v-.1l-.57-.85h0V6.43a.3.3,0,1,1-.6,0V2.06h.75l.73,1.05Z" style="fill: #fff"/>
        <path d="M21.84,6.18l-.4.34a.74.74,0,0,1-.54.21.7.7,0,0,1-.53-.23.76.76,0,0,1-.2-.59V4.34a1.18,1.18,0,0,1,.48-1l1.22-1a.72.72,0,0,1,1.26.53V4.43a1.18,1.18,0,0,1-.47,1l-.35.31.15.36h.35a.3.3,0,0,1,.32.3c0,.25-.19.3-.4.3h-.69Zm.25-1,.14-.11a.66.66,0,0,0,.32-.67V2.9c0-.1,0-.24-.12-.24s-.11.06-.17.1l-1.21,1a.61.61,0,0,0-.27.56V5.92c0,.1,0,.21.13.21A.3.3,0,0,0,21.09,6l.52-.45-.16-.4a.8.8,0,0,1-.08-.28.3.3,0,0,1,.3-.29c.23,0,.27.2.35.38Z" style="fill: #fff"/>
        <path d="M26.68,4c.25,0,.36.1.36.37s-.11.37-.36.37h-1.4c-.25,0-.36-.1-.36-.37S25,4,25.28,4Z" style="fill: #fff"/>
        <path d="M29.42,4.6h2c.3,0,.36.13.36.4V6.35c0,.28-.12.38-.39.38H29.21c-.28,0-.39-.1-.39-.38v-4c0-.14,0-.3.26-.3h.36a.3.3,0,0,1,.28.3.29.29,0,0,1-.3.3Zm0,.6v.92h1.76V5.2Z" style="fill: #fff"/>
      </g>
      <g>
        <path d="M10.79,25.09a.3.3,0,1,1,0-.6H12v1.18a.89.89,0,0,1-1,.94H10a.91.91,0,0,1-.69-.24A.87.87,0,0,1,9,25.64v-1.5a1.22,1.22,0,0,1,.31-.88l.71-.91a.91.91,0,0,1,.84-.41h.8a.3.3,0,1,1,0,.6H11c-.33,0-.31,0-.5.25l-.65.83a1.14,1.14,0,0,0-.19.78v1.18c0,.33.07.43.41.43h1c.22,0,.4,0,.4-.31v-.61Z" style="fill: #fff"/>
        <path d="M15.7,22.26a.3.3,0,0,1,.6,0v4.37h-.79L13.94,23h0v3.3a.3.3,0,1,1-.6,0V22h.79l1.57,3.64h0Z" style="fill: #fff"/>
        <path d="M18.24,22.55H18c-.2,0-.37-.07-.37-.3s.16-.3.35-.3h1a.9.9,0,0,1,.91.6l.53,1.05a1.39,1.39,0,0,1,0,1.36l-.55,1.09a.91.91,0,0,1-.95.56h-1a.3.3,0,1,1,0-.6h.29Zm.6,3.47h.11c.25,0,.31,0,.42-.25l.53-1.07a.84.84,0,0,0,.11-.39,1,1,0,0,0-.15-.49l-.5-1c-.13-.26-.18-.25-.46-.25h-.07Z" style="fill: #fff"/>
      </g>
      <g>
        <path d="M9.6,30H9.37c-.2,0-.37-.07-.37-.3s.16-.3.35-.3h1a.9.9,0,0,1,.91.6L11.79,31a1.39,1.39,0,0,1,0,1.36l-.55,1.09a.91.91,0,0,1-.95.56h-1a.3.3,0,0,1,0-.6H9.6Zm.6,3.47h.11c.25,0,.31,0,.42-.25l.53-1.07a.84.84,0,0,0,.11-.39,1,1,0,0,0-.15-.49l-.5-1c-.13-.26-.18-.25-.46-.25H10.2Z" style="fill: #fff"/>
        <path d="M15.69,29.36a.6.6,0,0,1,.6.6v3.47a.59.59,0,0,1-.6.6H13.93a.59.59,0,0,1-.6-.6V30a.6.6,0,0,1,.6-.6Zm0,4.07V30H13.93v3.47Z" style="fill: #fff"/>
      </g>
      <g>
        <path d="M10.18,37.07c0-.16.11-.31.31-.31s.27.15.31.31L12,41.13c0,.14-.12.3-.29.3a.36.36,0,0,1-.32-.3l-.22-.72H9.85l-.23.72a.36.36,0,0,1-.32.3c-.17,0-.33-.16-.29-.3Zm.31,1.12h0L10,39.81H11Z" style="fill: #fff"/>
        <path d="M15.69,36.76a.6.6,0,0,1,.6.6v3.47a.59.59,0,0,1-.6.6H13.93a.59.59,0,0,1-.6-.6V37.36a.6.6,0,0,1,.6-.6Zm0,4.07V37.36H13.93v3.47Z" style="fill: #fff"/>
      </g>
    </g>
    <g data-name="Layer 15" id="Layer_15">
      <g data-name="Layer 17" id="Layer_17">
        <circle cx="55.45" cy="28.03" r="25.4" style="stroke-miterlimit: 10;fill: url(#Tin);stroke: url(#Pewter_Radial)"/>
      </g>
      <g>
        <g>
          <path d="M82.09,28.36C80.3,12.73,71.48,4.19,55.86,2.55" style="fill: none;stroke-miterlimit: 10;stroke-width: 0.283464580774307px;stroke: url(#Steel_Radial)"/>
          <path d="M82,29.36C79.6,13.7,70.52,4.87,54.86,2.62" style="fill: none;stroke-miterlimit: 10;stroke-width: 0.283464580774307px;stroke: url(#Steel_Radial-2)"/>
          <path d="M81.9,30.37c-3-15.66-12.39-24.82-28-27.66" style="fill: none;stroke-miterlimit: 10;stroke-width: 0.283464580774307px;stroke: url(#Steel_Radial-3)"/>
          <path d="M81.77,31.33C78.2,15.68,68.55,6.24,52.9,2.82" style="fill: none;stroke-miterlimit: 10;stroke-width: 0.283464580774307px;stroke: url(#Steel_Radial-4)"/>
          <path d="M81.63,32.27C77.49,16.64,67.6,6.94,52,2.94" style="fill: none;stroke-miterlimit: 10;stroke-width: 0.283464580774307px;stroke: url(#Steel_Radial-5)"/>
          <path d="M81.46,33.19C76.79,17.62,66.63,7.63,51,3.09" style="fill: none;stroke-miterlimit: 10;stroke-width: 0.283464580774307px;stroke: url(#Steel_Radial-6)"/>
          <path d="M81.27,34.09C76.07,18.57,65.69,8.34,50.14,3.27" style="fill: none;stroke-miterlimit: 10;stroke-width: 0.283464580774307px;stroke: url(#Steel_Radial-7)"/>
          <path d="M81.07,35C75.33,19.52,64.74,9.07,49.26,3.46" style="fill: none;stroke-miterlimit: 10;stroke-width: 0.283464580774307px;stroke: url(#Steel_Radial-8)"/>
          <path d="M80.84,35.83c-6.25-15.36-17-26-32.43-32.16" style="fill: none;stroke-miterlimit: 10;stroke-width: 0.283464580774307px;stroke: url(#Steel_Radial-9)"/>
          <path d="M80.6,36.65a61.42,61.42,0,0,0-33-32.76" style="fill: none;stroke-miterlimit: 10;stroke-width: 0.283464580774307px;stroke: url(#Steel_Radial-10)"/>
          <path d="M80.33,37.49A68,68,0,0,0,46.75,4.15" style="fill: none;stroke-miterlimit: 10;stroke-width: 0.283464580774307px;stroke: url(#Steel_Radial-11)"/>
          <path d="M80,38.29A75.47,75.47,0,0,0,46,4.43" style="fill: none;stroke-miterlimit: 10;stroke-width: 0.283464580774307px;stroke: url(#Steel_Radial-12)"/>
          <path d="M79.73,39.07A84.1,84.1,0,0,0,45.18,4.72" style="fill: none;stroke-miterlimit: 10;stroke-width: 0.283464580774307px;stroke: url(#Steel_Radial-13)"/>
          <path d="M79.41,39.83A94.26,94.26,0,0,0,44.43,5" style="fill: none;stroke-miterlimit: 10;stroke-width: 0.283464580774307px;stroke: url(#Steel_Radial-14)"/>
          <path d="M79.06,40.57A106.25,106.25,0,0,0,43.69,5.37" style="fill: none;stroke-miterlimit: 10;stroke-width: 0.283464580774307px;stroke: url(#Steel_Radial-15)"/>
          <path d="M78.69,41.29A121.15,121.15,0,0,0,43,5.72" style="fill: none;stroke-miterlimit: 10;stroke-width: 0.283464580774307px;stroke: url(#Steel_Radial-16)"/>
          <path d="M78.3,42a139.92,139.92,0,0,0-36-35.89" style="fill: none;stroke-miterlimit: 10;stroke-width: 0.283464580774307px;stroke: url(#Steel_Radial-17)"/>
          <path d="M77.9,42.67A164.39,164.39,0,0,0,41.61,6.49" style="fill: none;stroke-miterlimit: 10;stroke-width: 0.283464580774307px;stroke: url(#Steel_Radial-18)"/>
          <path d="M77.46,43.34A198.73,198.73,0,0,0,40.94,6.92" style="fill: none;stroke-miterlimit: 10;stroke-width: 0.283464580774307px;stroke: url(#Steel_Radial-19)"/>
          <path d="M77,44A247.83,247.83,0,0,0,40.31,7.36" style="fill: none;stroke-miterlimit: 10;stroke-width: 0.283464580774307px;stroke: url(#Steel_Radial-20)"/>
          <path d="M76.54,44.6A326.62,326.62,0,0,0,39.7,7.82" style="fill: none;stroke-miterlimit: 10;stroke-width: 0.283464580774307px;stroke: url(#Steel_Radial-21)"/>
          <path d="M76.06,45.2A474.77,474.77,0,0,0,39.11,8.29" style="fill: none;stroke-miterlimit: 10;stroke-width: 0.283464580774307px;stroke: url(#Steel_Radial-22)"/>
          <path d="M75.55,45.78q-17.94-19.06-37-37" style="fill: none;stroke-miterlimit: 10;stroke-width: 0.283464580774307px;stroke: url(#Steel_Radial-23)"/>
          <path d="M75,46.33q-18.4-18.62-37-37" style="fill: none;stroke-miterlimit: 10;stroke-width: 0.283464580774307px;stroke: url(#Steel_Radial-24)"/>
          <path d="M74.47,46.87q-18.85-18.17-37-37" style="fill: none;stroke-miterlimit: 10;stroke-width: 0.283464580774307px;stroke: url(#Steel_Radial-25)"/>
          <path d="M73.93,47.37q-19.25-17.72-37-37" style="fill: none;stroke-miterlimit: 10;stroke-width: 0.283464580774307px;stroke: url(#Steel_Radial-26)"/>
          <path d="M73.33,47.88A388.49,388.49,0,0,1,36.48,11" style="fill: none;stroke-miterlimit: 10;stroke-width: 0.283464580774307px;stroke: url(#Steel_Radial-27)"/>
          <path d="M72.72,48.36A282.68,282.68,0,0,1,36,11.58" style="fill: none;stroke-miterlimit: 10;stroke-width: 0.283464580774307px;stroke: url(#Steel_Radial-28)"/>
          <path d="M72.09,48.81A221.15,221.15,0,0,1,35.56,12.2" style="fill: none;stroke-miterlimit: 10;stroke-width: 0.283464580774307px;stroke: url(#Steel_Radial-29)"/>
          <path d="M71.44,49.25A180.74,180.74,0,0,1,35.13,12.84" style="fill: none;stroke-miterlimit: 10;stroke-width: 0.283464580774307px;stroke: url(#Steel_Radial-30)"/>
          <path d="M70.77,49.67a152.06,152.06,0,0,1-36-36.17" style="fill: none;stroke-miterlimit: 10;stroke-width: 0.283464580774307px;stroke: url(#Steel_Radial-31)"/>
          <path d="M70.08,50.07A130.55,130.55,0,0,1,34.34,14.19" style="fill: none;stroke-miterlimit: 10;stroke-width: 0.283464580774307px;stroke: url(#Steel_Radial-32)"/>
          <path d="M69.37,50.45A113.77,113.77,0,0,1,34,14.89" style="fill: none;stroke-miterlimit: 10;stroke-width: 0.283464580774307px;stroke: url(#Steel_Radial-33)"/>
          <path d="M68.64,50.8a100.26,100.26,0,0,1-35-35.19" style="fill: none;stroke-miterlimit: 10;stroke-width: 0.283464580774307px;stroke: url(#Steel_Radial-34)"/>
          <path d="M67.88,51.15A89,89,0,0,1,33.3,16.38" style="fill: none;stroke-miterlimit: 10;stroke-width: 0.283464580774307px;stroke: url(#Steel_Radial-35)"/>
          <path d="M67.11,51.47A79.69,79.69,0,0,1,33,17.14" style="fill: none;stroke-miterlimit: 10;stroke-width: 0.283464580774307px;stroke: url(#Steel_Radial-36)"/>
          <path d="M66.32,51.76A71.69,71.69,0,0,1,32.71,17.93" style="fill: none;stroke-miterlimit: 10;stroke-width: 0.283464580774307px;stroke: url(#Steel_Radial-37)"/>
          <path d="M65.51,52A64.75,64.75,0,0,1,32.45,18.73" style="fill: none;stroke-miterlimit: 10;stroke-width: 0.283464580774307px;stroke: url(#Steel_Radial-38)"/>
          <path d="M64.68,52.3A58.76,58.76,0,0,1,32.2,19.56" style="fill: none;stroke-miterlimit: 10;stroke-width: 0.283464580774307px;stroke: url(#Steel_Radial-39)"/>
          <path d="M63.83,52.53c-15.41-6-26-16.69-31.85-32.13" style="fill: none;stroke-miterlimit: 10;stroke-width: 0.283464580774307px;stroke: url(#Steel_Radial-40)"/>
          <path d="M63,52.75c-15.48-5.48-25.83-16-31.18-31.48" style="fill: none;stroke-miterlimit: 10;stroke-width: 0.283464580774307px;stroke: url(#Steel_Radial-41)"/>
          <path d="M62.09,52.94C46.55,48,36.43,37.71,31.6,22.14" style="fill: none;stroke-miterlimit: 10;stroke-width: 0.283464580774307px;stroke: url(#Steel_Radial-42)"/>
          <path d="M61.16,53.12C45.55,48.7,35.72,38.7,31.44,23.07" style="fill: none;stroke-miterlimit: 10;stroke-width: 0.283464580774307px;stroke: url(#Steel_Radial-43)"/>
          <path d="M60.23,53.28C44.59,49.42,35,39.65,31.3,24" style="fill: none;stroke-miterlimit: 10;stroke-width: 0.283464580774307px;stroke: url(#Steel_Radial-44)"/>
          <path d="M59.28,53.42c-15.66-3.28-25-12.81-28.1-28.47" style="fill: none;stroke-miterlimit: 10;stroke-width: 0.283464580774307px;stroke: url(#Steel_Radial-45)"/>
          <path d="M58.31,53.53C42.64,50.81,33.65,41.58,31.08,25.92" style="fill: none;stroke-miterlimit: 10;stroke-width: 0.283464580774307px;stroke: url(#Steel_Radial-46)"/>
          <path d="M57.31,53.63C41.67,51.51,33,42.55,31,26.91" style="fill: none;stroke-miterlimit: 10;stroke-width: 0.283464580774307px;stroke: url(#Steel_Radial-47)"/>
          <path d="M56.3,53.7c-6.75-.65-13.43-2.25-18.34-7.23s-6.44-11.77-7-18.55" style="fill: none;stroke-miterlimit: 10;stroke-width: 0.283464580774307px;stroke: url(#Steel_Radial-48)"/>
        </g>
        <g>
          <path d="M56.66,53.72c6.78-.57,13.55-2.08,18.51-7.07s6.44-11.79,7-18.59" style="fill: none;stroke-miterlimit: 10;stroke-width: 0.283464580774307px;stroke: url(#Steel_Radial-49)"/>
          <path d="M55.65,53.65Q79.3,50.73,82.09,27.07" style="fill: none;stroke-miterlimit: 10;stroke-width: 0.283464580774307px;stroke: url(#Steel_Radial-50)"/>
          <path d="M54.64,53.56C70.4,51,79.52,41.82,82,26.06" style="fill: none;stroke-miterlimit: 10;stroke-width: 0.283464580774307px;stroke: url(#Steel_Radial-51)"/>
          <path d="M53.68,53.45Q77.32,48.76,81.9,25.09" style="fill: none;stroke-miterlimit: 10;stroke-width: 0.283464580774307px;stroke: url(#Steel_Radial-52)"/>
          <path d="M52.73,53.32c15.74-3.71,25.38-13.42,29-29.17" style="fill: none;stroke-miterlimit: 10;stroke-width: 0.283464580774307px;stroke: url(#Steel_Radial-53)"/>
          <path d="M51.81,53.17c15.71-4.27,25.6-14.22,29.82-29.94" style="fill: none;stroke-miterlimit: 10;stroke-width: 0.283464580774307px;stroke: url(#Steel_Radial-54)"/>
          <path d="M50.9,53q23.46-7.2,30.56-30.68" style="fill: none;stroke-miterlimit: 10;stroke-width: 0.283464580774307px;stroke: url(#Steel_Radial-55)"/>
          <path d="M50,52.81q23.37-8,31.26-31.37" style="fill: none;stroke-miterlimit: 10;stroke-width: 0.283464580774307px;stroke: url(#Steel_Radial-56)"/>
          <path d="M49.15,52.6c15.5-5.86,26.1-16.51,31.92-32" style="fill: none;stroke-miterlimit: 10;stroke-width: 0.283464580774307px;stroke: url(#Steel_Radial-57)"/>
          <path d="M48.33,52.37A57.51,57.51,0,0,0,80.85,19.75" style="fill: none;stroke-miterlimit: 10;stroke-width: 0.283464580774307px;stroke: url(#Steel_Radial-58)"/>
          <path d="M47.48,52.12A63.46,63.46,0,0,0,80.6,18.9" style="fill: none;stroke-miterlimit: 10;stroke-width: 0.283464580774307px;stroke: url(#Steel_Radial-59)"/>
          <path d="M46.68,51.84A70.19,70.19,0,0,0,80.34,18.1" style="fill: none;stroke-miterlimit: 10;stroke-width: 0.283464580774307px;stroke: url(#Steel_Radial-60)"/>
          <path d="M45.89,51.55A78,78,0,0,0,80.05,17.32" style="fill: none;stroke-miterlimit: 10;stroke-width: 0.283464580774307px;stroke: url(#Steel_Radial-61)"/>
          <path d="M45.13,51.24A87,87,0,0,0,79.75,16.55" style="fill: none;stroke-miterlimit: 10;stroke-width: 0.283464580774307px;stroke: url(#Steel_Radial-62)"/>
          <path d="M44.38,50.91a97.57,97.57,0,0,0,35-35.1" style="fill: none;stroke-miterlimit: 10;stroke-width: 0.283464580774307px;stroke: url(#Steel_Radial-63)"/>
          <path d="M43.66,50.56A110.53,110.53,0,0,0,79.07,15.09" style="fill: none;stroke-miterlimit: 10;stroke-width: 0.283464580774307px;stroke: url(#Steel_Radial-64)"/>
          <path d="M43,50.19A126.57,126.57,0,0,0,78.71,14.38" style="fill: none;stroke-miterlimit: 10;stroke-width: 0.283464580774307px;stroke: url(#Steel_Radial-65)"/>
          <path d="M42.27,49.8A147,147,0,0,0,78.32,13.7" style="fill: none;stroke-miterlimit: 10;stroke-width: 0.283464580774307px;stroke: url(#Steel_Radial-66)"/>
          <path d="M41.59,49.38A174.89,174.89,0,0,0,77.91,13" style="fill: none;stroke-miterlimit: 10;stroke-width: 0.283464580774307px;stroke: url(#Steel_Radial-67)"/>
          <path d="M40.94,49A213.09,213.09,0,0,0,77.48,12.38" style="fill: none;stroke-miterlimit: 10;stroke-width: 0.283464580774307px;stroke: url(#Steel_Radial-68)"/>
          <path d="M40.32,48.5A270.64,270.64,0,0,0,77,11.76" style="fill: none;stroke-miterlimit: 10;stroke-width: 0.283464580774307px;stroke: url(#Steel_Radial-69)"/>
          <path d="M39.71,48A367.86,367.86,0,0,0,76.57,11.16" style="fill: none;stroke-miterlimit: 10;stroke-width: 0.283464580774307px;stroke: url(#Steel_Radial-70)"/>
          <path d="M39.13,47.54q19.33-17.63,37-37" style="fill: none;stroke-miterlimit: 10;stroke-width: 0.283464580774307px;stroke: url(#Steel_Radial-71)"/>
          <path d="M38.56,47q18.9-18.12,37-37" style="fill: none;stroke-miterlimit: 10;stroke-width: 0.283464580774307px;stroke: url(#Steel_Radial-72)"/>
          <path d="M38,46.5q18.45-18.58,37-37" style="fill: none;stroke-miterlimit: 10;stroke-width: 0.283464580774307px;stroke: url(#Steel_Radial-73)"/>
          <path d="M37.52,46q18-19,37-37" style="fill: none;stroke-miterlimit: 10;stroke-width: 0.283464580774307px;stroke: url(#Steel_Radial-74)"/>
          <path d="M37,45.39A495.55,495.55,0,0,1,73.94,8.46" style="fill: none;stroke-miterlimit: 10;stroke-width: 0.283464580774307px;stroke: url(#Steel_Radial-75)"/>
          <path d="M36.51,44.8A335.28,335.28,0,0,1,73.36,8" style="fill: none;stroke-miterlimit: 10;stroke-width: 0.283464580774307px;stroke: url(#Steel_Radial-76)"/>
          <path d="M36,44.19A252.25,252.25,0,0,1,72.75,7.52" style="fill: none;stroke-miterlimit: 10;stroke-width: 0.283464580774307px;stroke: url(#Steel_Radial-77)"/>
          <path d="M35.6,43.56A201.25,201.25,0,0,1,72.12,7.08" style="fill: none;stroke-miterlimit: 10;stroke-width: 0.283464580774307px;stroke: url(#Steel_Radial-78)"/>
          <path d="M35.18,42.91A166.6,166.6,0,0,1,71.47,6.65" style="fill: none;stroke-miterlimit: 10;stroke-width: 0.283464580774307px;stroke: url(#Steel_Radial-79)"/>
          <path d="M34.77,42.24a141.42,141.42,0,0,1,36-36" style="fill: none;stroke-miterlimit: 10;stroke-width: 0.283464580774307px;stroke: url(#Steel_Radial-80)"/>
          <path d="M34.39,41.55A122.22,122.22,0,0,1,70.12,5.87" style="fill: none;stroke-miterlimit: 10;stroke-width: 0.283464580774307px;stroke: url(#Steel_Radial-81)"/>
          <path d="M34,40.84A107.05,107.05,0,0,1,69.41,5.51" style="fill: none;stroke-miterlimit: 10;stroke-width: 0.283464580774307px;stroke: url(#Steel_Radial-82)"/>
          <path d="M33.67,40.09a94.63,94.63,0,0,1,35-34.93" style="fill: none;stroke-miterlimit: 10;stroke-width: 0.283464580774307px;stroke: url(#Steel_Radial-83)"/>
          <path d="M33.34,39.34A84.39,84.39,0,0,1,67.91,4.84" style="fill: none;stroke-miterlimit: 10;stroke-width: 0.283464580774307px;stroke: url(#Steel_Radial-84)"/>
          <path d="M33,38.57a75.72,75.72,0,0,1,34.11-34" style="fill: none;stroke-miterlimit: 10;stroke-width: 0.283464580774307px;stroke: url(#Steel_Radial-85)"/>
          <path d="M32.75,37.78A68.27,68.27,0,0,1,66.36,4.26" style="fill: none;stroke-miterlimit: 10;stroke-width: 0.283464580774307px;stroke: url(#Steel_Radial-86)"/>
          <path d="M32.49,37A61.78,61.78,0,0,1,65.55,4" style="fill: none;stroke-miterlimit: 10;stroke-width: 0.283464580774307px;stroke: url(#Steel_Radial-87)"/>
          <path d="M32.24,36.14C38.48,20.7,49.27,10,64.72,3.76" style="fill: none;stroke-miterlimit: 10;stroke-width: 0.283464580774307px;stroke: url(#Steel_Radial-88)"/>
          <path d="M32,35.29C37.74,19.76,48.33,9.22,63.87,3.54" style="fill: none;stroke-miterlimit: 10;stroke-width: 0.283464580774307px;stroke: url(#Steel_Radial-89)"/>
          <path d="M31.82,34.44Q39.62,11,63,3.35" style="fill: none;stroke-miterlimit: 10;stroke-width: 0.283464580774307px;stroke: url(#Steel_Radial-90)"/>
          <path d="M31.63,33.53Q38.6,10,62.11,3.16" style="fill: none;stroke-miterlimit: 10;stroke-width: 0.283464580774307px;stroke: url(#Steel_Radial-91)"/>
          <path d="M31.46,32.62C35.58,16.9,45.47,7.07,61.2,3" style="fill: none;stroke-miterlimit: 10;stroke-width: 0.283464580774307px;stroke: url(#Steel_Radial-92)"/>
          <path d="M31.32,31.69c3.55-15.75,13.19-25.32,29-28.82" style="fill: none;stroke-miterlimit: 10;stroke-width: 0.283464580774307px;stroke: url(#Steel_Radial-93)"/>
          <path d="M31.19,30.73q4.45-23.64,28.13-28" style="fill: none;stroke-miterlimit: 10;stroke-width: 0.283464580774307px;stroke: url(#Steel_Radial-94)"/>
          <path d="M31.09,29.76C33.49,14,42.58,5,58.35,2.65" style="fill: none;stroke-miterlimit: 10;stroke-width: 0.283464580774307px;stroke: url(#Steel_Radial-95)"/>
          <path d="M31,28.77C32.8,13,41.61,4.3,57.36,2.57" style="fill: none;stroke-miterlimit: 10;stroke-width: 0.283464580774307px;stroke: url(#Steel_Radial-96)"/>
        </g>
      </g>
      <g data-name="Layer 16" id="Layer_16">
        <circle cx="56.28" cy="27.92" r="25.34" style="fill: none;stroke-miterlimit: 10;stroke-width: 3.4015748500824px;stroke: url(#Silver)"/>
      </g>
    </g>
  </g>
  <g data-name="Layer 13" id="Layer_13">
    <g id="Connectors">
      <ellipse cx="5.44" cy="17.16" id="connector11pin" rx="1.99" ry="2.05" style="fill: none;stroke: #e8e5df;stroke-miterlimit: 10;stroke-width: 1.224px"/>
      <ellipse cx="5.44" cy="24.35" id="connector10pin" rx="1.99" ry="2.05" style="fill: none;stroke: #e8e5df;stroke-miterlimit: 10;stroke-width: 1.224px"/>
      <ellipse cx="5.44" cy="31.55" id="connector9" rx="1.99" ry="2.05" style="fill: none;stroke: #e8e5df;stroke-miterlimit: 10;stroke-width: 1.224px"/>
      <ellipse cx="5.44" cy="38.74" id="connector8pin" rx="1.99" ry="2.05" style="fill: none;stroke: #e8e5df;stroke-miterlimit: 10;stroke-width: 1.224px"/>
    </g>
  </g>
  <g data-name="Layer 18" id="Layer_18">
    <circle cx="5.44" cy="17.16" id="circuitoCon_5V" r="1.41" style="fill: none"/>
    <circle cx="5.44" cy="24.35" id="circuitoCon_GND" r="1.41" style="fill: none"/>
    <circle cx="5.44" cy="31.55" id="circuitoCon_DOUT" r="1.41" style="fill: none"/>
    <circle cx="5.44" cy="38.74" id="circuitoCon_AOUT" r="1.41" style="fill: none"/>
  </g>
</svg>