<?xml version="1.0" ?><svg height="59.32mm" viewBox="0 0 280.14 168.15" width="98.83mm" xmlns="http://www.w3.org/2000/svg" xmlns:xlink="http://www.w3.org/1999/xlink">
  <defs>
    <linearGradient gradientTransform="translate(280.14 126.51) rotate(180)" gradientUnits="userSpaceOnUse" id="linear-gradient" x1="5.7" x2="270.77" y1="5.59" y2="119.35">
      <stop offset="0" stop-color="#2e9b77"/>
      <stop offset="1" stop-color="#2e9060"/>
    </linearGradient>
    <linearGradient gradientTransform="translate(-2.05 -6.12)" gradientUnits="userSpaceOnUse" id="linear-gradient-2" x1="108.46" x2="170.41" y1="-12.93" y2="137.5">
      <stop offset="0.19" stop-color="#fff"/>
      <stop offset="0.6" stop-color="#fff" stop-opacity="0"/>
    </linearGradient>
  </defs>
  <title>LCD20X4</title>
  <g data-name="Layer 7" id="Layer_7">
    <rect height="52.56" width="115.53" x="146.23" y="115.59"/>
    <polyline points="151.11 119.69 160.67 129.25 160.67 133.31" style="fill: none;stroke: #232122;stroke-miterlimit: 10"/>
    <path d="M150.92,121.89l8,7.82v8.34h-.19v11.86h-2.54l-9.42-9.25.22-20.33S147.73,122.9,150.92,121.89Z" style="fill: #232122"/>
    <polyline points="150.8 146.95 155.75 151.9 160.19 151.9 163.13 155.75" style="fill: none;stroke: #232122;stroke-miterlimit: 10"/>
    <line style="fill: none;stroke: #232122;stroke-miterlimit: 10" x1="172.98" x2="164.49" y1="161.21" y2="152.73"/>
    <line style="fill: none;stroke: #232122;stroke-miterlimit: 10" x1="167.83" x2="172.13" y1="156.07" y2="151.77"/>
    <polyline points="175.51 163.4 178.3 166.19 187.87 166.19 187.87 162.52" style="fill: none;stroke: #232122;stroke-miterlimit: 10"/>
    <polyline points="189.97 162.84 189.97 166.19 199.44 166.19 203.84 161.79" style="fill: none;stroke: #232122;stroke-miterlimit: 10"/>
    <line style="fill: none;stroke: #232122;stroke-miterlimit: 10" x1="202.26" x2="206.81" y1="166.52" y2="161.97"/>
    <polyline points="225.57 155.71 225.57 153.92 224.28 152.64 216.19 152.64" style="fill: none;stroke: #232122;stroke-miterlimit: 10"/>
    <polyline points="231.82 155.71 231.82 152.73 227.91 148.81 216.94 148.81" style="fill: none;stroke: #232122;stroke-miterlimit: 10"/>
    <line style="fill: none;stroke: #232122;stroke-miterlimit: 10" x1="237.57" x2="237.57" y1="155.71" y2="146.21"/>
    <path d="M246.76,120.65l2.47,2.47v13.09l5.55,5.55h5.59v25.33H239.65V154.17l-.94-.94V131H235l8.73-8.73A2.92,2.92,0,0,0,246.76,120.65Z" style="fill: #232122"/>
    <path d="M255.69,139.62" style="fill: #fff"/>
    <line style="fill: none;stroke: #232122;stroke-miterlimit: 10" x1="242.69" x2="232.54" y1="120.73" y2="130.88"/>
    <path d="M227.54,130.43" style="fill: none;stroke: #fff;stroke-miterlimit: 10"/>
    <path d="M237.32,120.65" style="fill: none;stroke: #fff;stroke-miterlimit: 10"/>
    <polyline points="216.51 134.96 217.57 134.96 219.38 133.15 219.38 123.37 222.04 120.71" style="fill: none;stroke: #232122;stroke-miterlimit: 10"/>
    <polyline points="216.07 138.37 217.26 138.37 221.82 133.8 221.82 124.99 225.48 121.33 227.22 119.59" style="fill: none;stroke: #232122;stroke-miterlimit: 10"/>
    <polyline points="215.41 141.92 216.93 141.92 223.96 134.89 236.54 122.31 236.54 119.96" style="fill: none;stroke: #232122;stroke-miterlimit: 10"/>
    <line style="fill: none;stroke: #232122;stroke-miterlimit: 10" x1="216.94" x2="225.26" y1="145.46" y2="145.46"/>
    <polyline points="198.69 154.17 194.83 158.03 184.57 158.03 180.88 161.72" style="fill: none;stroke: #232122;stroke-miterlimit: 10"/>
    <line style="fill: none;stroke: #232122;stroke-miterlimit: 10" x1="203.84" x2="195.82" y1="153.92" y2="161.94"/>
    <polyline points="210.13 154.59 219.01 154.59 219.27 154.17 223.38 154.17" style="fill: none;stroke: #232122;stroke-miterlimit: 10"/>
    <polyline points="163.75 136.69 175.85 124.58 177.04 124.58" style="fill: none;stroke: #232122;stroke-miterlimit: 10"/>
    <path d="M163.9,138.63h1.79a1.77,1.77,0,0,0,.17-2.67l3.08-3.08,4.46-4.46h1l1.23-1.23h5.21v5.06" style="fill: none;stroke: #232122;stroke-miterlimit: 10"/>
    <polygon points="172.78 153.38 170.45 155.71 175.59 160.85 180.32 160.85 184.3 156.87 194.24 156.87 197.63 153.48 172.78 153.38" style="fill: #232122"/>
    <polygon points="225.57 150.65 224.77 151.44 226.99 153.66 227.91 153.66 227.91 160.52 226.73 160.52 226.73 162.49 230.07 162.49 230.07 159.43 229.35 159.43 229.35 152.64 227.39 150.68 225.57 150.65" style="fill: #232122"/>
    <polygon points="236.19 147.34 236.19 162.21 232.69 162.21 232.69 160.59 234.44 160.59 234.44 147.34 236.19 147.34" style="fill: #232122"/>
    <polyline points="255.69 139.37 251.34 135.01 251.34 120.33" style="fill: none;stroke: #232122;stroke-miterlimit: 10"/>
    <polyline points="223.38 154.17 223.45 162.59 221.94 163.32 220.4 165.54 215.97 165.54 215.14 163.32 211.65 163.32 211.65 160.51 215.65 158.59 215.69 154.59 219.01 154.59 219.35 154.25 223.38 154.25 223.38 162.59" style="fill: #232122"/>
    <circle cx="178.07" cy="124.59" r="0.81" style="fill: none;stroke: #232122;stroke-miterlimit: 10;stroke-width: 0.760273170596429px"/>
    <path d="M166.07,138.17" style="fill: none;stroke: #232122;stroke-miterlimit: 10;stroke-width: 0.760273170596429px"/>
    <line style="fill: none;stroke: #232122;stroke-miterlimit: 10;stroke-width: 0.760273170596429px" x1="183.94" x2="180.53" y1="152.59" y2="151.35"/>
    <line style="fill: none;stroke: #232122;stroke-miterlimit: 10;stroke-width: 0.760273170596429px" x1="183.94" x2="180.47" y1="149.09" y2="145.62"/>
    <polygon points="165.07 139.04 166.78 142.67 166.78 146.95 182.23 146.95 182.23 140.71 173.24 140.71 170.45 140.71 170.45 140.09 167.84 140.09 166.03 138.29 165.07 139.04" style="fill: #232122"/>
    <circle cx="182.98" cy="133.59" r="0.68" style="fill: none;stroke: #232122;stroke-miterlimit: 10;stroke-width: 0.75px"/>
    <circle cx="160.94" cy="141.24" r="0.68" style="fill: none;stroke: #232122;stroke-miterlimit: 10;stroke-width: 0.75px"/>
    <line style="fill: none;stroke: #232122;stroke-miterlimit: 10;stroke-width: 0.75px" x1="160.26" x2="157.94" y1="141.24" y2="141.24"/>
    <rect height="4.1" style="fill: #cfced3" width="3.35" x="158.72" y="130.99"/>
    <rect height="4.1" style="fill: #cfced3" width="3.35" x="155.6" y="136.4"/>
    <rect height="4.1" style="fill: #cfced3" width="3.35" x="161.51" y="136.41"/>
    <rect height="29.63" rx="1.77" ry="1.77" style="fill: #2d2726" width="21.8" x="190.38" y="125.52"/>
    <rect height="27.33" style="fill: #444141" width="18.23" x="191.88" y="126.83"/>
    <path d="M210.1,154.15h-6.46a2.14,2.14,0,0,0-2.25-1.72,2.32,2.32,0,0,0-2.36,1.72h-7.16V126.81H210.1Z" style="fill: #4b4544"/>
    <g>
      <rect height="4.22" rx="0.55" ry="0.55" style="fill: #e7e6e8" transform="translate(357.76 259.2) rotate(180)" width="4.02" x="176.87" y="127.49"/>
      <rect height="3.61" rx="0.81" ry="0.81" style="fill: #fffdf3" transform="translate(357.76 273.12) rotate(180)" width="3.96" x="176.9" y="134.75"/>
      <rect height="4.88" rx="0.92" ry="0.92" style="fill: #cea468" transform="translate(357.89 266.88) rotate(180)" width="3.17" x="177.36" y="131"/>
      <rect height="1.21" rx="0.6" ry="0.6" style="fill: #757376" transform="translate(357.89 262.51) rotate(180)" width="3.17" x="177.36" y="130.65"/>
      <rect height="1.21" rx="0.6" ry="0.6" style="fill: #757376" transform="translate(357.89 270.51) rotate(180)" width="3.17" x="177.36" y="134.65"/>
    </g>
    <g>
      <rect height="9.6" style="fill: #ccc" width="4" x="156.45" y="144.03"/>
      <polygon points="156.87 146.08 158.01 146.08 158.57 146.58 159.02 146.13 160.13 146.13 160.13 152.01 158.96 152.01 158.51 151.57 157.94 152.14 156.87 152.14 156.87 146.08" style="fill: #ffe9ab"/>
      <circle cx="158.45" cy="149.11" r="0.61" style="fill: #ccc"/>
    </g>
    <g>
      <rect height="2.64" rx="0.44" ry="0.44" style="fill: #e7e6e8" transform="translate(19.01 343.21) rotate(-90)" width="4.02" x="179.1" y="160.78"/>
      <rect height="3.22" rx="0.77" ry="0.77" style="fill: #e7e6e8" transform="translate(11.63 335.83) rotate(-90)" width="3.96" x="171.75" y="160.49"/>
      <rect height="5.38" rx="0.96" ry="0.96" style="fill: #e7e6e8" transform="translate(15.63 339.45) rotate(-90)" width="3.29" x="175.9" y="159.22"/>
    </g>
    <rect height="2.81" style="fill: #2a292d" width="4.1" x="175.49" y="160.51"/>
    <g>
      <path d="M178.65,162.09v.18l-.23.21h-.14v-1h.13v.87Z" style="fill: #fbfcfe"/>
      <path d="M177.2,162.35a1.29,1.29,0,0,1,0-.36.9.9,0,0,1,.09-.48.31.31,0,0,1,.22-.06.32.32,0,0,1,.22.06.92.92,0,0,1,.09.48,1.29,1.29,0,0,1,0,.36c0,.14-.15.16-.27.16S177.25,162.49,177.2,162.35Zm.44-.09a2.33,2.33,0,0,0,0-.29,1.11,1.11,0,0,0,0-.36s-.1,0-.14,0-.12,0-.14,0a1.14,1.14,0,0,0,0,.36,2.54,2.54,0,0,0,0,.29c0,.11.06.11.17.11S177.62,162.36,177.64,162.25Z" style="fill: #fbfcfe"/>
      <path d="M176.28,162.34l.23-.26a.28.28,0,0,1-.27-.31.33.33,0,0,1,.36-.33.55.55,0,0,1,.24.06v.15a.39.39,0,0,0-.24-.07.2.2,0,0,0-.23.21c0,.14.1.19.21.19h.1v.11l-.24.27h.4v.13h-.56Z" style="fill: #fbfcfe"/>
    </g>
    <g>
      <rect height="2.64" rx="0.44" ry="0.44" style="fill: #e7e6e8" transform="translate(33.62 357.82) rotate(-90)" width="4.02" x="193.71" y="160.78"/>
      <rect height="3.22" rx="0.77" ry="0.77" style="fill: #e7e6e8" transform="translate(26.23 350.44) rotate(-90)" width="3.96" x="186.36" y="160.49"/>
      <rect height="5.38" rx="0.96" ry="0.96" style="fill: #e7e6e8" transform="translate(30.24 354.06) rotate(-90)" width="3.29" x="190.5" y="159.22"/>
    </g>
    <rect height="2.81" style="fill: #2a292d" width="4.1" x="190.1" y="160.51"/>
    <g>
      <path d="M193.26,162.09v.18l-.23.21h-.14v-1H193v.87Z" style="fill: #fbfcfe"/>
      <path d="M191.81,162.35a1.25,1.25,0,0,1,0-.36.9.9,0,0,1,.09-.48.42.42,0,0,1,.44,0,.91.91,0,0,1,.09.48,1.25,1.25,0,0,1,0,.36c0,.14-.14.16-.27.16S191.86,162.49,191.81,162.35Zm.44-.09a2,2,0,0,0,0-.29,1.11,1.11,0,0,0,0-.36s-.1,0-.14,0-.12,0-.14,0a1.14,1.14,0,0,0,0,.36,2.33,2.33,0,0,0,0,.29c0,.11.06.11.17.11S192.23,162.36,192.25,162.25Z" style="fill: #fbfcfe"/>
      <path d="M190.89,162.34l.23-.26a.28.28,0,0,1-.27-.31.33.33,0,0,1,.36-.33.56.56,0,0,1,.24.06v.15a.4.4,0,0,0-.24-.07.2.2,0,0,0-.23.21.18.18,0,0,0,.21.19h.1v.11l-.24.27h.4v.13h-.56Z" style="fill: #fbfcfe"/>
    </g>
    <g>
      <rect height="2.64" rx="0.44" ry="0.44" style="fill: #e7e6e8" transform="translate(48.94 373.14) rotate(-90)" width="4.02" x="209.03" y="160.78"/>
      <rect height="3.22" rx="0.77" ry="0.77" style="fill: #e7e6e8" transform="translate(41.55 365.75) rotate(-90)" width="3.96" x="201.67" y="160.49"/>
      <rect height="5.38" rx="0.96" ry="0.96" style="fill: #e7e6e8" transform="translate(45.55 369.38) rotate(-90)" width="3.29" x="205.82" y="159.22"/>
    </g>
    <rect height="2.81" style="fill: #2a292d" width="4.1" x="205.41" y="160.51"/>
    <g>
      <path d="M208.58,162.09v.18l-.23.21h-.14v-1h.13v.87Z" style="fill: #fbfcfe"/>
      <path d="M207.13,162.35a1.25,1.25,0,0,1,0-.36.9.9,0,0,1,.09-.48.42.42,0,0,1,.44,0,.91.91,0,0,1,.09.48,1.25,1.25,0,0,1,0,.36c0,.14-.14.16-.27.16S207.17,162.49,207.13,162.35Zm.44-.09a2,2,0,0,0,0-.29,1.11,1.11,0,0,0,0-.36s-.1,0-.14,0-.12,0-.14,0a1.14,1.14,0,0,0,0,.36,2.33,2.33,0,0,0,0,.29c0,.11.06.11.17.11S207.55,162.36,207.56,162.25Z" style="fill: #fbfcfe"/>
      <path d="M206.21,162.34l.23-.26a.28.28,0,0,1-.27-.31.33.33,0,0,1,.36-.33.56.56,0,0,1,.24.06v.15a.4.4,0,0,0-.24-.07.2.2,0,0,0-.23.21.18.18,0,0,0,.21.19h.1v.11l-.24.27h.4v.13h-.56Z" style="fill: #fbfcfe"/>
    </g>
    <g>
      <rect height="2.64" rx="0.44" ry="0.44" style="fill: #e7e6e8" transform="translate(345.33 288.98) rotate(180)" width="4.02" x="170.65" y="143.17"/>
      <rect height="3.22" rx="0.77" ry="0.77" style="fill: #e7e6e8" transform="translate(345.33 303.76) rotate(180)" width="3.96" x="170.68" y="150.27"/>
      <rect height="5.38" rx="0.96" ry="0.96" style="fill: #e7e6e8" transform="translate(344.95 296.13) rotate(180)" width="3.29" x="170.83" y="145.38"/>
    </g>
    <rect height="2.81" style="fill: #2a292d" transform="translate(24.41 320.54) rotate(-90)" width="4.1" x="170.42" y="146.66"/>
    <g>
      <path d="M172.37,147.5h-.13v-.11H172v-.13h.23v-.35h.15l.65.27v.14l-.67-.28v.23h.21v.13h-.21Z" style="fill: #fbfcfe"/>
      <path d="M172.91,147.83H173v.61h0a.38.38,0,0,1-.16,0l-.15-.1a.8.8,0,0,0-.54-.23H172V148h.17a.92.92,0,0,1,.58.23l.06,0a.2.2,0,0,0,.1.05Z" style="fill: #fbfcfe"/>
      <path d="M172.15,149.32H172v-.55h.08a.49.49,0,0,1,.47.26c0,.07.11.17.22.17a.16.16,0,0,0,.16-.14.49.49,0,0,0-.11-.27H173a.41.41,0,0,1,.09.25.27.27,0,0,1-.28.3c-.19,0-.26-.12-.35-.25a.36.36,0,0,0-.26-.18h0Z" style="fill: #fbfcfe"/>
    </g>
    <g>
      <rect height="2.64" rx="0.44" ry="0.44" style="fill: #e7e6e8" width="4.02" x="177.47" y="150.84"/>
      <rect height="3.22" rx="0.77" ry="0.77" style="fill: #e7e6e8" width="3.96" x="177.51" y="143.16"/>
      <rect height="5.38" rx="0.96" ry="0.96" style="fill: #e7e6e8" width="3.29" x="178.03" y="145.89"/>
    </g>
    <rect height="2.81" style="fill: #2a292d" transform="translate(328.26 -31.09) rotate(90)" width="4.1" x="177.62" y="147.18"/>
    <g>
      <path d="M179.77,149.14h.13v.11h.23v.13h-.23v.35h-.15l-.65-.27v-.14l.67.28v-.23h-.21v-.13h.21Z" style="fill: #fbfcfe"/>
      <path d="M179.24,148.82h-.13v-.61h0a.37.37,0,0,1,.16,0l.15.1a.8.8,0,0,0,.54.23h.17v.13H180a.92.92,0,0,1-.58-.23l-.06,0a.19.19,0,0,0-.1-.05Z" style="fill: #fbfcfe"/>
      <path d="M180,147.33h.13v.55h-.08a.49.49,0,0,1-.47-.26c0-.07-.11-.17-.22-.17a.16.16,0,0,0-.16.14.48.48,0,0,0,.11.27h-.16a.41.41,0,0,1-.09-.25.27.27,0,0,1,.28-.29c.19,0,.26.12.35.25a.36.36,0,0,0,.26.18h0Z" style="fill: #fbfcfe"/>
    </g>
    <g>
      <rect height="2.64" rx="0.44" ry="0.44" style="fill: #e7e6e8" width="4.02" x="163.62" y="150.84"/>
      <rect height="3.22" rx="0.77" ry="0.77" style="fill: #e7e6e8" width="3.96" x="163.65" y="143.16"/>
      <rect height="5.38" rx="0.96" ry="0.96" style="fill: #e7e6e8" width="3.29" x="164.17" y="145.89"/>
    </g>
    <rect height="2.81" style="fill: #2a292d" transform="translate(314.4 -17.23) rotate(90)" width="4.1" x="163.77" y="147.18"/>
    <g>
      <path d="M165.64,149.69h-.18l-.21-.23v-.14h1v.13h-.87Z" style="fill: #fbfcfe"/>
      <path d="M165.38,148.24a1.25,1.25,0,0,1,.36,0,.91.91,0,0,1,.48.09.42.42,0,0,1,0,.44.91.91,0,0,1-.48.09,1.25,1.25,0,0,1-.36,0c-.14,0-.16-.14-.16-.27S165.24,148.29,165.38,148.24Zm.09.44h.29a1.11,1.11,0,0,0,.36,0s0-.1,0-.14,0-.12,0-.14a1.14,1.14,0,0,0-.36,0h-.29c-.11,0-.11.06-.11.17S165.37,148.66,165.47,148.68Z" style="fill: #fbfcfe"/>
      <path d="M166.15,147.33h.13v.55h-.08a.49.49,0,0,1-.47-.26c0-.07-.11-.17-.22-.17a.16.16,0,0,0-.16.14.48.48,0,0,0,.11.27h-.16a.41.41,0,0,1-.09-.25.27.27,0,0,1,.28-.29c.19,0,.26.12.35.25a.36.36,0,0,0,.26.18h0Z" style="fill: #fbfcfe"/>
    </g>
    <g>
      <rect height="2.64" rx="0.44" ry="0.44" style="fill: #e7e6e8" width="4.02" x="169.66" y="135.3"/>
      <rect height="3.22" rx="0.77" ry="0.77" style="fill: #e7e6e8" width="3.96" x="169.69" y="127.62"/>
      <rect height="5.38" rx="0.96" ry="0.96" style="fill: #e7e6e8" width="3.29" x="170.21" y="130.35"/>
    </g>
    <rect height="2.81" style="fill: #2a292d" transform="translate(304.9 -38.82) rotate(90)" width="4.1" x="169.81" y="131.64"/>
    <g>
      <path d="M172,133.6h.13v.11h.23v.13h-.23v.35h-.15l-.65-.27v-.14l.67.28v-.23h-.21v-.13H172Z" style="fill: #fbfcfe"/>
      <path d="M171.42,133.28h-.13v-.61h0a.37.37,0,0,1,.16,0l.15.1a.8.8,0,0,0,.54.23h.17v.13h-.17a.92.92,0,0,1-.58-.23l-.06,0a.19.19,0,0,0-.1-.05Z" style="fill: #fbfcfe"/>
      <path d="M172.19,131.79h.13v.55h-.08a.49.49,0,0,1-.47-.26c0-.07-.11-.17-.22-.17a.16.16,0,0,0-.16.14.48.48,0,0,0,.11.27h-.16a.41.41,0,0,1-.09-.25.27.27,0,0,1,.28-.29c.19,0,.26.12.35.25a.36.36,0,0,0,.26.18h0Z" style="fill: #fbfcfe"/>
    </g>
    <g>
      <g>
        <rect height="11.71" style="fill: #42444a" width="11.71" x="226.93" y="132.81"/>
        <rect height="8.38" style="fill: #9e9ea9" width="8.38" x="223.45" y="128.98"/>
        <rect height="8.38" style="fill: #9e9ea9" width="8.38" x="234.13" y="128.98"/>
        <rect height="8.38" style="fill: #9e9ea9" width="8.38" x="234.13" y="139.39"/>
        <rect height="8.38" style="fill: #9e9ea9" width="8.38" x="223.46" y="139.39"/>
        <circle cx="232.97" cy="138.38" r="1.54" style="fill: #777"/>
      </g>
      <circle cx="235.37" cy="136.18" r="0.53" style="fill: #42444a"/>
      <circle cx="235.37" cy="140.68" r="0.53" style="fill: #42444a"/>
      <g>
        <path d="M223,128.44v19.88h19.6V128.44Zm10,14.15a4.21,4.21,0,1,1,4.21-4.21A4.21,4.21,0,0,1,233,142.59Z" style="fill: #4377b5"/>
        <g>
          <g>
            <circle cx="232.98" cy="138.34" r="4.77" style="fill: none;stroke: #306baf;stroke-miterlimit: 10"/>
            <line style="fill: none;stroke: #306baf;stroke-linecap: round;stroke-miterlimit: 10" x1="232.82" x2="232.82" y1="133.31" y2="130.67"/>
            <line style="fill: none;stroke: #306baf;stroke-linecap: round;stroke-miterlimit: 10" x1="236.31" x2="238.23" y1="142.01" y2="143.93"/>
            <line style="fill: none;stroke: #306baf;stroke-linecap: round;stroke-miterlimit: 10" x1="237.39" x2="238.87" y1="139.97" y2="140.46"/>
            <line style="fill: none;stroke: #306baf;stroke-linecap: round;stroke-miterlimit: 10" x1="235.11" x2="235.88" y1="134.07" y2="132.77"/>
            <line style="fill: none;stroke: #306baf;stroke-linecap: round;stroke-miterlimit: 10" x1="237.01" x2="238.1" y1="135.79" y2="134.7"/>
            <line style="fill: none;stroke: #306baf;stroke-linecap: round;stroke-miterlimit: 10" x1="237.68" x2="239.26" y1="137.56" y2="137.56"/>
            <line style="fill: none;stroke: #306baf;stroke-linecap: round;stroke-miterlimit: 10" x1="228.41" x2="226.92" y1="139.71" y2="140.2"/>
            <line style="fill: none;stroke: #306baf;stroke-linecap: round;stroke-miterlimit: 10" x1="230.75" x2="229.97" y1="133.79" y2="132.49"/>
            <line style="fill: none;stroke: #306baf;stroke-linecap: round;stroke-miterlimit: 10" x1="228.85" x2="227.76" y1="135.51" y2="134.42"/>
            <line style="fill: none;stroke: #306baf;stroke-linecap: round;stroke-miterlimit: 10" x1="228.17" x2="226.6" y1="137.28" y2="137.28"/>
            <line style="fill: none;stroke: #306baf;stroke-linecap: round;stroke-miterlimit: 10" x1="229.48" x2="228.39" y1="141.58" y2="142.67"/>
          </g>
          <path d="M224.23,145.06l.18-.08.18-.1.17-.12.15-.13h.31v2.08h-.45v-1.5l-.2.11-.22.09Z" style="fill: #306baf"/>
          <path d="M239.89,146.89h-.17l-.17,0-.15,0-.11,0,.09-.37.2.07a1.06,1.06,0,0,0,.3,0,.48.48,0,0,0,.3-.08.26.26,0,0,0,.1-.21.25.25,0,0,0,0-.14.26.26,0,0,0-.09-.09l-.14,0h-.35v-.36H240l.11,0a.21.21,0,0,0,.08-.08.24.24,0,0,0,0-.12.2.2,0,0,0,0-.1.21.21,0,0,0-.06-.07l-.09,0h-.1a.7.7,0,0,0-.24,0l-.2.1-.16-.33.11-.06.14-.06.17,0,.19,0a1,1,0,0,1,.32,0,.59.59,0,0,1,.22.12.48.48,0,0,1,.13.19.62.62,0,0,1,0,.23.46.46,0,0,1-.07.24.45.45,0,0,1-.19.17.52.52,0,0,1,.34.51.72.72,0,0,1,0,.27.55.55,0,0,1-.15.21.72.72,0,0,1-.26.14A1.25,1.25,0,0,1,239.89,146.89Z" style="fill: #306baf"/>
          <g>
            <path d="M229,146.76h-.24l-.25,0-.22,0-.15,0,.12-.42.28.08a1.86,1.86,0,0,0,.43,0,.81.81,0,0,0,.43-.09.27.27,0,0,0,.14-.23.24.24,0,0,0,0-.15.35.35,0,0,0-.13-.1.7.7,0,0,0-.2-.05h-.49v-.4h.46l.16,0a.29.29,0,0,0,.11-.09.24.24,0,0,0,0-.14.19.19,0,0,0,0-.11.28.28,0,0,0-.09-.08l-.12,0-.14,0a1.24,1.24,0,0,0-.34,0,1.57,1.57,0,0,0-.28.11l-.22-.37.16-.07.2-.07.24-.05.27,0a1.82,1.82,0,0,1,.45,0,.93.93,0,0,1,.31.14.55.55,0,0,1,.24.47.43.43,0,0,1-.1.27.61.61,0,0,1-.26.2.76.76,0,0,1,.35.22.52.52,0,0,1,.13.35.65.65,0,0,1-.07.3.63.63,0,0,1-.21.24,1.14,1.14,0,0,1-.37.15A2.2,2.2,0,0,1,229,146.76Z" style="fill: #306baf"/>
            <path d="M231.38,146.76h-.24l-.25,0-.22,0-.15,0,.12-.42.28.08a1.86,1.86,0,0,0,.43,0,.81.81,0,0,0,.43-.09.27.27,0,0,0,.14-.23.24.24,0,0,0,0-.15.35.35,0,0,0-.13-.1.7.7,0,0,0-.2-.05H231v-.4h.46l.16,0a.29.29,0,0,0,.11-.09.24.24,0,0,0,0-.14.19.19,0,0,0,0-.11.28.28,0,0,0-.09-.08l-.12,0-.14,0a1.24,1.24,0,0,0-.34,0,1.57,1.57,0,0,0-.28.11l-.22-.37.16-.07.2-.07.24-.05.27,0a1.82,1.82,0,0,1,.45,0,.93.93,0,0,1,.31.14.55.55,0,0,1,.24.47.43.43,0,0,1-.1.27.61.61,0,0,1-.26.2.76.76,0,0,1,.35.22.52.52,0,0,1,.13.35.65.65,0,0,1-.07.3.63.63,0,0,1-.21.24,1.14,1.14,0,0,1-.37.15A2.2,2.2,0,0,1,231.38,146.76Z" style="fill: #306baf"/>
            <path d="M234.07,145.23a1.63,1.63,0,0,1,.47.06.92.92,0,0,1,.32.16.6.6,0,0,1,.18.23.76.76,0,0,1,.05.29.69.69,0,0,1-.06.28.73.73,0,0,1-.19.25,1,1,0,0,1-.32.19,1.28,1.28,0,0,1-.46.07,1.12,1.12,0,0,1-.81-.26,1,1,0,0,1-.28-.73,1.3,1.3,0,0,1,.13-.59,1.2,1.2,0,0,1,.38-.43,1.78,1.78,0,0,1,.59-.27,3.14,3.14,0,0,1,.78-.1l0,.2,0,.21-.41,0a1.58,1.58,0,0,0-.34.09,1,1,0,0,0-.27.16.66.66,0,0,0-.18.23l.19,0Zm-.08.39h-.2l-.17,0v0s0,0,0,0a1.21,1.21,0,0,0,0,.23.54.54,0,0,0,.07.19.36.36,0,0,0,.14.13.45.45,0,0,0,.21,0,.42.42,0,0,0,.18,0,.4.4,0,0,0,.12-.09.35.35,0,0,0,.07-.12.4.4,0,0,0,0-.13.32.32,0,0,0-.11-.26A.56.56,0,0,0,234,145.62Z" style="fill: #306baf"/>
            <path d="M237.34,145a.5.5,0,0,1-.06.25,1.06,1.06,0,0,1-.17.23,2,2,0,0,1-.23.21l-.25.19-.14.11-.14.12-.12.11a.28.28,0,0,0-.07.09h1.26v.42h-2a.41.41,0,0,1,0-.09v-.08a.66.66,0,0,1,.07-.29,1,1,0,0,1,.17-.25,1.84,1.84,0,0,1,.24-.22l.26-.2.19-.15.16-.13a.62.62,0,0,0,.11-.13.26.26,0,0,0,0-.13.22.22,0,0,0-.11-.21.53.53,0,0,0-.26-.06.79.79,0,0,0-.21,0l-.18.07-.14.08-.09.06-.31-.35a1.69,1.69,0,0,1,.43-.23,1.56,1.56,0,0,1,.53-.09,1.86,1.86,0,0,1,.45,0,.93.93,0,0,1,.31.13.54.54,0,0,1,.18.21A.65.65,0,0,1,237.34,145Z" style="fill: #306baf"/>
          </g>
        </g>
        <line style="fill: #306baf;stroke: #306baf;stroke-linecap: round;stroke-miterlimit: 10;stroke-width: 0.5px" x1="223.79" x2="241.57" y1="146.82" y2="146.82"/>
      </g>
    </g>
    <g>
      <rect height="2.72" rx="1.25" ry="1.25" style="fill: #36322e" width="6.08" x="183.44" y="126.25"/>
      <g>
        <line style="fill: #36322e;stroke: #a7a29f;stroke-miterlimit: 10" x1="186.45" x2="189.29" y1="127.61" y2="127.61"/>
        <path d="M189,127h1.33a.57.57,0,0,1,.57.57v.24a.51.51,0,0,1-.51.51H189a0,0,0,0,1,0,0V127A0,0,0,0,1,189,127Z" style="fill: #dadada"/>
      </g>
      <line style="fill: none;stroke: #dadada;stroke-linecap: round;stroke-miterlimit: 10;stroke-width: 1.2000000000000002px" x1="184.04" x2="185.66" y1="127.61" y2="127.61"/>
    </g>
    <g>
      <rect height="2.72" rx="1.25" ry="1.25" style="fill: #36322e" width="6.08" x="183.44" y="129.89"/>
      <g>
        <line style="fill: #36322e;stroke: #a7a29f;stroke-miterlimit: 10" x1="186.45" x2="189.29" y1="131.25" y2="131.25"/>
        <path d="M189,130.6h1.33a.57.57,0,0,1,.57.57v.24a.51.51,0,0,1-.51.51H189a0,0,0,0,1,0,0V130.6A0,0,0,0,1,189,130.6Z" style="fill: #dadada"/>
      </g>
      <line style="fill: none;stroke: #dadada;stroke-linecap: round;stroke-miterlimit: 10;stroke-width: 1.2000000000000002px" x1="184.04" x2="185.66" y1="131.25" y2="131.25"/>
    </g>
    <g>
      <rect height="2.72" rx="1.25" ry="1.25" style="fill: #36322e" width="6.08" x="183.44" y="133.43"/>
      <g>
        <line style="fill: #36322e;stroke: #a7a29f;stroke-miterlimit: 10" x1="186.45" x2="189.29" y1="134.79" y2="134.79"/>
        <path d="M189,134.14h1.33a.57.57,0,0,1,.57.57v.24a.51.51,0,0,1-.51.51H189a0,0,0,0,1,0,0v-1.31A0,0,0,0,1,189,134.14Z" style="fill: #dadada"/>
      </g>
      <line style="fill: none;stroke: #dadada;stroke-linecap: round;stroke-miterlimit: 10;stroke-width: 1.2000000000000002px" x1="184.04" x2="185.66" y1="134.79" y2="134.79"/>
    </g>
    <g>
      <rect height="2.72" rx="1.25" ry="1.25" style="fill: #36322e" width="6.08" x="183.44" y="136.97"/>
      <g>
        <line style="fill: #36322e;stroke: #a7a29f;stroke-miterlimit: 10" x1="186.45" x2="189.29" y1="138.34" y2="138.34"/>
        <path d="M189,137.68h1.33a.57.57,0,0,1,.57.57v.24a.51.51,0,0,1-.51.51H189a0,0,0,0,1,0,0v-1.31A0,0,0,0,1,189,137.68Z" style="fill: #dadada"/>
      </g>
      <line style="fill: none;stroke: #dadada;stroke-linecap: round;stroke-miterlimit: 10;stroke-width: 1.2000000000000002px" x1="184.04" x2="185.66" y1="138.34" y2="138.34"/>
    </g>
    <g>
      <rect height="2.72" rx="1.25" ry="1.25" style="fill: #36322e" width="6.08" x="183.44" y="140.56"/>
      <g>
        <line style="fill: #36322e;stroke: #a7a29f;stroke-miterlimit: 10" x1="186.45" x2="189.29" y1="141.92" y2="141.92"/>
        <path d="M189,141.26h1.33a.57.57,0,0,1,.57.57v.24a.51.51,0,0,1-.51.51H189a0,0,0,0,1,0,0v-1.31A0,0,0,0,1,189,141.26Z" style="fill: #dadada"/>
      </g>
      <line style="fill: none;stroke: #dadada;stroke-linecap: round;stroke-miterlimit: 10;stroke-width: 1.2000000000000002px" x1="184.04" x2="185.66" y1="141.92" y2="141.92"/>
    </g>
    <g>
      <rect height="2.72" rx="1.25" ry="1.25" style="fill: #36322e" width="6.08" x="183.44" y="144.22"/>
      <g>
        <line style="fill: #36322e;stroke: #a7a29f;stroke-miterlimit: 10" x1="186.45" x2="189.29" y1="145.59" y2="145.59"/>
        <path d="M189,144.93h1.33a.57.57,0,0,1,.57.57v.24a.51.51,0,0,1-.51.51H189a0,0,0,0,1,0,0v-1.31A0,0,0,0,1,189,144.93Z" style="fill: #dadada"/>
      </g>
      <line style="fill: none;stroke: #dadada;stroke-linecap: round;stroke-miterlimit: 10;stroke-width: 1.2000000000000002px" x1="184.04" x2="185.66" y1="145.59" y2="145.59"/>
    </g>
    <g>
      <rect height="2.72" rx="1.25" ry="1.25" style="fill: #36322e" width="6.08" x="183.44" y="147.89"/>
      <g>
        <line style="fill: #36322e;stroke: #a7a29f;stroke-miterlimit: 10" x1="186.45" x2="189.29" y1="149.25" y2="149.25"/>
        <path d="M189,148.59h1.33a.57.57,0,0,1,.57.57v.24a.51.51,0,0,1-.51.51H189a0,0,0,0,1,0,0v-1.31A0,0,0,0,1,189,148.59Z" style="fill: #dadada"/>
      </g>
      <line style="fill: none;stroke: #dadada;stroke-linecap: round;stroke-miterlimit: 10;stroke-width: 1.2000000000000002px" x1="184.04" x2="185.66" y1="149.25" y2="149.25"/>
    </g>
    <g>
      <rect height="2.72" rx="1.25" ry="1.25" style="fill: #36322e" width="6.08" x="183.44" y="151.55"/>
      <g>
        <line style="fill: #36322e;stroke: #a7a29f;stroke-miterlimit: 10" x1="186.45" x2="189.29" y1="152.92" y2="152.92"/>
        <path d="M189,152.26h1.33a.57.57,0,0,1,.57.57v.24a.51.51,0,0,1-.51.51H189a0,0,0,0,1,0,0v-1.31A0,0,0,0,1,189,152.26Z" style="fill: #dadada"/>
      </g>
      <line style="fill: none;stroke: #dadada;stroke-linecap: round;stroke-miterlimit: 10;stroke-width: 1.2000000000000002px" x1="184.04" x2="185.66" y1="152.92" y2="152.92"/>
    </g>
    <g>
      <rect height="2.72" rx="1.25" ry="1.25" style="fill: #36322e" transform="translate(430.29 255.23) rotate(-180)" width="6.08" x="212.1" y="126.25"/>
      <line style="fill: #36322e;stroke: #a7a29f;stroke-miterlimit: 10" x1="215.17" x2="212.34" y1="127.61" y2="127.61"/>
      <path d="M211.7,127h1.39a.51.51,0,0,1,.51.51v.24a.57.57,0,0,1-.57.57H211.7a0,0,0,0,1,0,0V127A0,0,0,0,1,211.7,127Z" style="fill: #dadada" transform="translate(425.31 255.23) rotate(-180)"/>
      <line style="fill: none;stroke: #dadada;stroke-linecap: round;stroke-miterlimit: 10;stroke-width: 1.2000000000000002px" x1="217.59" x2="215.97" y1="127.61" y2="127.61"/>
      <rect height="2.72" rx="1.25" ry="1.25" style="fill: #36322e" transform="translate(430.29 262.5) rotate(-180)" width="6.08" x="212.1" y="129.89"/>
      <line style="fill: #36322e;stroke: #a7a29f;stroke-miterlimit: 10" x1="215.17" x2="212.34" y1="131.25" y2="131.25"/>
      <path d="M211.7,130.6h1.39a.51.51,0,0,1,.51.51v.24a.57.57,0,0,1-.57.57H211.7a0,0,0,0,1,0,0V130.6A0,0,0,0,1,211.7,130.6Z" style="fill: #dadada" transform="translate(425.31 262.5) rotate(-180)"/>
      <line style="fill: none;stroke: #dadada;stroke-linecap: round;stroke-miterlimit: 10;stroke-width: 1.2000000000000002px" x1="217.59" x2="215.97" y1="131.25" y2="131.25"/>
      <rect height="2.72" rx="1.25" ry="1.25" style="fill: #36322e" transform="translate(430.29 269.59) rotate(-180)" width="6.08" x="212.1" y="133.43"/>
      <line style="fill: #36322e;stroke: #a7a29f;stroke-miterlimit: 10" x1="215.17" x2="212.34" y1="134.79" y2="134.79"/>
      <path d="M211.7,134.14h1.39a.51.51,0,0,1,.51.51v.24a.57.57,0,0,1-.57.57H211.7a0,0,0,0,1,0,0v-1.31A0,0,0,0,1,211.7,134.14Z" style="fill: #dadada" transform="translate(425.31 269.59) rotate(-180)"/>
      <line style="fill: none;stroke: #dadada;stroke-linecap: round;stroke-miterlimit: 10;stroke-width: 1.2000000000000002px" x1="217.59" x2="215.97" y1="134.79" y2="134.79"/>
      <rect height="2.72" rx="1.25" ry="1.25" style="fill: #36322e" transform="translate(430.29 276.67) rotate(-180)" width="6.08" x="212.1" y="136.97"/>
      <line style="fill: #36322e;stroke: #a7a29f;stroke-miterlimit: 10" x1="215.17" x2="212.34" y1="138.34" y2="138.34"/>
      <path d="M211.7,137.68h1.39a.51.51,0,0,1,.51.51v.24a.57.57,0,0,1-.57.57H211.7a0,0,0,0,1,0,0v-1.31a0,0,0,0,1,0,0Z" style="fill: #dadada" transform="translate(425.31 276.67) rotate(-180)"/>
      <line style="fill: none;stroke: #dadada;stroke-linecap: round;stroke-miterlimit: 10;stroke-width: 1.2000000000000002px" x1="217.59" x2="215.97" y1="138.34" y2="138.34"/>
      <rect height="2.72" rx="1.25" ry="1.25" style="fill: #36322e" transform="translate(430.29 283.84) rotate(-180)" width="6.08" x="212.1" y="140.56"/>
      <line style="fill: #36322e;stroke: #a7a29f;stroke-miterlimit: 10" x1="215.17" x2="212.34" y1="141.92" y2="141.92"/>
      <path d="M211.7,141.26h1.39a.51.51,0,0,1,.51.51V142a.57.57,0,0,1-.57.57H211.7a0,0,0,0,1,0,0v-1.31a0,0,0,0,1,0,0Z" style="fill: #dadada" transform="translate(425.31 283.84) rotate(-180)"/>
      <line style="fill: none;stroke: #dadada;stroke-linecap: round;stroke-miterlimit: 10;stroke-width: 1.2000000000000002px" x1="217.59" x2="215.97" y1="141.92" y2="141.92"/>
      <rect height="2.72" rx="1.25" ry="1.25" style="fill: #36322e" transform="translate(430.29 291.17) rotate(-180)" width="6.08" x="212.1" y="144.22"/>
      <line style="fill: #36322e;stroke: #a7a29f;stroke-miterlimit: 10" x1="215.17" x2="212.34" y1="145.59" y2="145.59"/>
      <path d="M211.7,144.93h1.39a.51.51,0,0,1,.51.51v.24a.57.57,0,0,1-.57.57H211.7a0,0,0,0,1,0,0v-1.31A0,0,0,0,1,211.7,144.93Z" style="fill: #dadada" transform="translate(425.31 291.17) rotate(-180)"/>
      <line style="fill: none;stroke: #dadada;stroke-linecap: round;stroke-miterlimit: 10;stroke-width: 1.2000000000000002px" x1="217.59" x2="215.97" y1="145.59" y2="145.59"/>
      <rect height="2.72" rx="1.25" ry="1.25" style="fill: #36322e" transform="translate(430.29 298.5) rotate(-180)" width="6.08" x="212.1" y="147.89"/>
      <line style="fill: #36322e;stroke: #a7a29f;stroke-miterlimit: 10" x1="215.17" x2="212.34" y1="149.25" y2="149.25"/>
      <path d="M211.7,148.59h1.39a.51.51,0,0,1,.51.51v.24a.57.57,0,0,1-.57.57H211.7a0,0,0,0,1,0,0v-1.31a0,0,0,0,1,0,0Z" style="fill: #dadada" transform="translate(425.31 298.5) rotate(-180)"/>
      <line style="fill: none;stroke: #dadada;stroke-linecap: round;stroke-miterlimit: 10;stroke-width: 1.2000000000000002px" x1="217.59" x2="215.97" y1="149.25" y2="149.25"/>
      <rect height="2.72" rx="1.25" ry="1.25" style="fill: #36322e" transform="translate(430.29 305.83) rotate(-180)" width="6.08" x="212.1" y="151.55"/>
      <line style="fill: #36322e;stroke: #a7a29f;stroke-miterlimit: 10" x1="215.17" x2="212.34" y1="152.92" y2="152.92"/>
      <path d="M211.7,152.26h1.39a.51.51,0,0,1,.51.51V153a.57.57,0,0,1-.57.57H211.7a0,0,0,0,1,0,0v-1.31A0,0,0,0,1,211.7,152.26Z" style="fill: #dadada" transform="translate(425.31 305.83) rotate(-180)"/>
      <line style="fill: none;stroke: #dadada;stroke-linecap: round;stroke-miterlimit: 10;stroke-width: 1.2000000000000002px" x1="217.59" x2="215.97" y1="152.92" y2="152.92"/>
    </g>
    <g>
      <rect height="4.61" style="fill: #3d3c3d" width="4.61" x="223.45" y="158.95"/>
      <rect height="4.28" style="fill: #3d3c3d" width="4.28" x="223.39" y="154.07"/>
      <polygon points="224.4 159.63 226.93 159.63 226.93 162.92 226.24 162.92 226.03 163.32 225.32 163.32 225.24 162.88 224.4 162.92 224.24 161.91 223.46 161.91 223.46 160.51 224.36 160.51 224.4 159.63" style="fill: #bbb5b8"/>
      <line style="fill: none;stroke: #bbb5b8;stroke-miterlimit: 10;stroke-width: 0.25px" x1="223.68" x2="225.33" y1="163.69" y2="163.69"/>
      <line style="fill: none;stroke: #bbb5b8;stroke-miterlimit: 10;stroke-width: 0.25px" x1="226.21" x2="227.85" y1="163.69" y2="163.69"/>
      <line style="fill: none;stroke: #bbb5b8;stroke-miterlimit: 10;stroke-width: 0.25px" x1="227.03" x2="228.06" y1="160.58" y2="160.58"/>
      <line style="fill: none;stroke: #bbb5b8;stroke-miterlimit: 10;stroke-width: 0.25px" x1="227.18" x2="228.06" y1="162.59" y2="162.59"/>
    </g>
    <g>
      <rect height="4.61" style="fill: #3d3c3d" width="4.61" x="229.14" y="158.95"/>
      <polygon points="230.09 159.63 232.62 159.63 232.62 162.92 231.92 162.92 231.72 163.32 231.01 163.32 230.92 162.88 230.09 162.92 229.92 161.91 229.15 161.91 229.15 160.51 230.05 160.51 230.09 159.63" style="fill: #bbb5b8"/>
      <line style="fill: none;stroke: #bbb5b8;stroke-miterlimit: 10;stroke-width: 0.25px" x1="229.37" x2="231.02" y1="163.69" y2="163.69"/>
      <line style="fill: none;stroke: #bbb5b8;stroke-miterlimit: 10;stroke-width: 0.25px" x1="231.89" x2="233.54" y1="163.69" y2="163.69"/>
      <line style="fill: none;stroke: #bbb5b8;stroke-miterlimit: 10;stroke-width: 0.25px" x1="232.72" x2="233.75" y1="160.58" y2="160.58"/>
    </g>
    <g>
      <rect height="4.61" style="fill: #3d3c3d" width="4.61" x="235.33" y="158.95"/>
      <polygon points="236.28 159.63 238.81 159.63 238.81 162.92 238.11 162.92 237.9 163.32 237.19 163.32 237.11 162.88 236.28 162.92 236.11 161.91 235.34 161.91 235.34 160.51 236.24 160.51 236.28 159.63" style="fill: #bbb5b8"/>
      <line style="fill: none;stroke: #bbb5b8;stroke-miterlimit: 10;stroke-width: 0.25px" x1="235.56" x2="237.2" y1="163.69" y2="163.69"/>
      <line style="fill: none;stroke: #bbb5b8;stroke-miterlimit: 10;stroke-width: 0.25px" x1="238.08" x2="239.73" y1="163.69" y2="163.69"/>
      <line style="fill: none;stroke: #bbb5b8;stroke-miterlimit: 10;stroke-width: 0.25px" x1="238.9" x2="239.94" y1="160.58" y2="160.58"/>
    </g>
    <rect height="2.92" style="fill: #36322e" width="7.72" x="156.45" y="134.75"/>
    <g>
      <path d="M158.46,136.5l.2,0a.43.43,0,0,0,.07.26.23.23,0,0,0,.18.07.26.26,0,0,0,.14,0,.2.2,0,0,0,.08-.1.69.69,0,0,0,0-.21v-1.16h.22v1.15a.83.83,0,0,1-.05.33.37.37,0,0,1-.16.18.53.53,0,0,1-.26.06.44.44,0,0,1-.34-.13A.53.53,0,0,1,158.46,136.5Z"/>
      <path d="M159.67,136.53l.21,0a.45.45,0,0,0,.12.25.3.3,0,0,0,.21.08.33.33,0,0,0,.25-.1.34.34,0,0,0,.1-.25.32.32,0,0,0-.09-.24.32.32,0,0,0-.24-.09l-.15,0,0-.18h0a.42.42,0,0,0,.24-.07.24.24,0,0,0,.11-.21.25.25,0,0,0-.08-.19.28.28,0,0,0-.2-.07.28.28,0,0,0-.2.08.37.37,0,0,0-.1.23l-.21,0a.54.54,0,0,1,.17-.32.5.5,0,0,1,.33-.11.55.55,0,0,1,.25.06.42.42,0,0,1,.18.16.41.41,0,0,1,.06.22.35.35,0,0,1-.06.2.15.15,0,1,0,.06.29.43.43,0,0,1,.08.27.5.5,0,0,1-.16.37.57.57,0,0,1-.41.15.53.53,0,0,1-.37-.13A.51.51,0,0,1,159.67,136.53Z"/>
      <path d="M161.53,137v-.71l-.65-1h.27l.33.51.17.28.18-.3.33-.5h.26l-.67,1V137Z"/>
    </g>
    <g>
      <path d="M152.46,158.74a.21.21,0,0,1-.42,0v-3h1.39a.61.61,0,0,1,.48.17.63.63,0,0,1,.2.55V157a.69.69,0,0,1-.17.54.65.65,0,0,1-.56.2h-.92Zm0-1.44h.93c.25,0,.3-.06.3-.3v-.58c0-.24-.05-.3-.3-.3h-.93Z" style="fill: #fff"/>
      <path d="M157,156.87a1,1,0,0,1,.11.46,1,1,0,0,1-.14.5l-.38.77a.55.55,0,0,1-1,0l-.38-.77a1,1,0,0,1-.14-.5,1,1,0,0,1,.11-.46l.42-.83a.55.55,0,0,1,1,0Zm-.78-.63c0-.07-.05-.13-.14-.13s-.11.06-.14.13l-.38.76a.64.64,0,0,0-.1.34.57.57,0,0,0,.07.28l.4.79c0,.06.06.13.14.13s.11-.07.14-.13l.4-.79a.57.57,0,0,0,.07-.28.64.64,0,0,0-.1-.34Z" style="fill: #fff"/>
      <path d="M159.35,158.95c-.14,0-.23,0-.25-.18h0c0,.15-.11.18-.25.18h-.31a.23.23,0,0,1-.25-.15l-.15-.25a.3.3,0,0,1-.06-.21V155.9a.21.21,0,0,1,.42,0v2.42l.11.2h.18l.11-.2V157c0-.13.06-.25.21-.25s.21.12.21.25v1.32l.11.2h.18l.11-.2V155.9a.21.21,0,0,1,.42,0v2.42a.3.3,0,0,1-.06.21l-.15.25a.23.23,0,0,1-.25.15Z" style="fill: #fff"/>
      <path d="M162.92,158.53a.21.21,0,1,1,0,.42h-1.86v-3.25h1.86a.21.21,0,0,1,0,.42h-1.44v1h.61a.21.21,0,1,1,0,.42h-.61v1Z" style="fill: #fff"/>
      <path d="M164.49,158.74a.21.21,0,1,1-.42,0v-3h1.4a.63.63,0,0,1,.66.61v.29a.61.61,0,0,1-.66.59h-.38l.94,1.35a.42.42,0,0,1,.1.22.2.2,0,0,1-.21.2.22.22,0,0,1-.18-.12l-1.15-1.65h-.1Zm0-2h.93c.12,0,.3,0,.3-.18v-.29c0-.17-.17-.19-.3-.19h-.93Z" style="fill: #fff"/>
    </g>
    <g>
      <path d="M148.59,130.33a.21.21,0,0,1,0,.43h-1.88v-3.1a.21.21,0,1,1,.42,0v2.67Z" style="fill: #fff"/>
      <path d="M151.64,130.33a.21.21,0,0,1,0,.43h-1.88v-3.31h1.88a.21.21,0,0,1,0,.43h-1.46v1h.62a.21.21,0,0,1,0,.43h-.62v1Z" style="fill: #fff"/>
      <path d="M153.22,127.87h-.16c-.14,0-.26-.05-.26-.21s.11-.21.25-.21h.71a.64.64,0,0,1,.64.43l.37.75a1,1,0,0,1,0,1l-.39.77a.64.64,0,0,1-.67.4H153a.21.21,0,0,1,0-.43h.2Zm.42,2.46h.08c.18,0,.22,0,.3-.18l.37-.76a.6.6,0,0,0,.08-.28.72.72,0,0,0-.11-.35L154,128c-.09-.18-.13-.18-.32-.18h-.05Z" style="fill: #fff"/>
    </g>
    <g>
      <path d="M247.31,154.91a.56.56,0,0,1,.15.36.48.48,0,0,1-.54.48H246a.63.63,0,0,1-.43-.14.54.54,0,0,1-.2-.4.23.23,0,0,1,.23-.26.21.21,0,0,1,.2.22c0,.13.07.15.19.15h.93s.14,0,.14-.05-.06-.1-.08-.12l-1.47-1.89a.52.52,0,0,1-.14-.35.48.48,0,0,1,.23-.41.57.57,0,0,1,.36-.08h.91a.61.61,0,0,1,.42.14.58.58,0,0,1,.2.41.22.22,0,0,1-.22.25.19.19,0,0,1-.21-.2c0-.15-.07-.17-.21-.17h-.91s-.15,0-.15.06,0,.09.06.12Z" style="fill: #fff"/>
      <path d="M249.58,155.75a.64.64,0,0,1-.64-.41l-.39-.8a1,1,0,0,1-.12-.45.93.93,0,0,1,.12-.48l.39-.79a.64.64,0,0,1,.66-.41h.73a.21.21,0,0,1,0,.43h-.72c-.18,0-.21,0-.3.18l-.37.75a.66.66,0,0,0-.09.33.6.6,0,0,0,.09.3l.37.74c.08.18.13.19.32.19h.7a.2.2,0,0,1,.21.21.2.2,0,0,1-.21.21Z" style="fill: #fff"/>
      <path d="M253.42,155.32a.21.21,0,0,1,0,.43h-1.9v-3.12a.21.21,0,1,1,.43,0v2.69Z" style="fill: #fff"/>
    </g>
    <g>
      <path d="M247.31,148a.56.56,0,0,1,.15.36.48.48,0,0,1-.54.48H246a.63.63,0,0,1-.43-.14.54.54,0,0,1-.2-.4.23.23,0,0,1,.23-.26.21.21,0,0,1,.2.22c0,.13.07.15.19.15h.93s.14,0,.14-.05-.06-.1-.08-.12l-1.47-1.89a.52.52,0,0,1-.14-.35.48.48,0,0,1,.23-.41.57.57,0,0,1,.36-.08h.91a.61.61,0,0,1,.42.14.58.58,0,0,1,.2.41.22.22,0,0,1-.22.25.19.19,0,0,1-.21-.2c0-.15-.07-.17-.21-.17h-.91s-.15,0-.15.06,0,.09.06.12Z" style="fill: #fff"/>
      <path d="M248.85,145.92h-.16c-.14,0-.26-.05-.26-.21s.12-.21.25-.21h.72a.64.64,0,0,1,.65.43l.38.75a1,1,0,0,1,0,1l-.39.78a.65.65,0,0,1-.68.4h-.71a.21.21,0,1,1,0-.43h.21Zm.43,2.48h.08c.18,0,.22,0,.3-.18l.38-.76a.6.6,0,0,0,.08-.28.71.71,0,0,0-.11-.35l-.36-.72c-.09-.18-.13-.18-.33-.18h-.05Z" style="fill: #fff"/>
      <path d="M252.35,145.71c0-.12.08-.22.22-.22s.19.11.22.22l.83,2.9c0,.1-.08.21-.21.21a.26.26,0,0,1-.23-.21l-.16-.51h-.91l-.16.51a.26.26,0,0,1-.23.21c-.12,0-.24-.11-.21-.21Zm.22.8h0l-.33,1.16h.67Z" style="fill: #fff"/>
    </g>
    <g>
      <path d="M247,139.31v-.69a.21.21,0,1,1,.43,0v.68a.44.44,0,0,1,0,.17l-.82,2.09c0,.11-.08.19-.21.19s-.17-.08-.21-.19l-.82-2.09a.47.47,0,0,1,0-.17v-.68a.21.21,0,1,1,.43,0v.69l.63,1.64Z" style="fill: #fff"/>
      <path d="M249.58,141.74a.64.64,0,0,1-.64-.41l-.39-.8a1,1,0,0,1-.12-.45.93.93,0,0,1,.12-.48l.39-.79a.64.64,0,0,1,.66-.41h.73a.21.21,0,0,1,0,.43h-.72c-.18,0-.21,0-.3.18l-.37.75a.66.66,0,0,0-.09.33.6.6,0,0,0,.09.3l.37.74c.08.18.13.19.32.19h.7a.2.2,0,0,1,.21.21.2.2,0,0,1-.21.21Z" style="fill: #fff"/>
      <path d="M252.67,141.74a.64.64,0,0,1-.64-.41l-.39-.8a1,1,0,0,1-.12-.45.93.93,0,0,1,.12-.48l.39-.79a.64.64,0,0,1,.66-.41h.73a.21.21,0,0,1,0,.43h-.72c-.18,0-.21,0-.3.18l-.37.75a.66.66,0,0,0-.09.33.6.6,0,0,0,.09.3l.37.74c.08.18.13.19.32.19h.7a.2.2,0,0,1,.21.21.2.2,0,0,1-.21.21Z" style="fill: #fff"/>
    </g>
    <g>
      <path d="M246.62,133.53a.21.21,0,0,1,0-.43h.84v.84a.64.64,0,0,1-.69.67H246a.65.65,0,0,1-.49-.17.62.62,0,0,1-.2-.53v-1.07a.88.88,0,0,1,.22-.63l.51-.65a.65.65,0,0,1,.6-.29h.58a.21.21,0,0,1,0,.43h-.51c-.24,0-.22,0-.36.18l-.47.6a.81.81,0,0,0-.13.56v.84c0,.24.05.31.3.31h.68c.15,0,.28,0,.28-.22v-.44Z" style="fill: #fff"/>
      <path d="M250.12,131.5a.21.21,0,0,1,.43,0v3.12H250L248.87,132h0v2.36a.21.21,0,1,1-.43,0v-3.12H249l1.12,2.6h0Z" style="fill: #fff"/>
      <path d="M251.93,131.71h-.16c-.14,0-.26-.05-.26-.21s.12-.21.25-.21h.72a.64.64,0,0,1,.65.43l.38.75a1,1,0,0,1,0,1l-.39.78a.65.65,0,0,1-.68.4h-.71a.21.21,0,1,1,0-.43h.21Zm.43,2.48h.08c.18,0,.22,0,.3-.18l.38-.76a.6.6,0,0,0,.08-.28.71.71,0,0,0-.11-.35l-.36-.72c-.09-.18-.13-.18-.33-.18h-.05Z" style="fill: #fff"/>
    </g>
    <g>
      <path d="M223.93,164.7c0-.11.07-.2.2-.2s.18.1.21.2l.76,2.67c0,.09-.08.2-.19.2a.23.23,0,0,1-.21-.2l-.15-.47h-.84l-.15.47a.23.23,0,0,1-.21.2c-.11,0-.22-.1-.19-.2Zm.2.73h0l-.31,1.07h.62Z" style="fill: #fff"/>
      <path d="M227.55,164.5a.39.39,0,0,1,.39.39v2.28a.39.39,0,0,1-.39.39h-1.16a.39.39,0,0,1-.39-.39v-2.28a.39.39,0,0,1,.39-.39Zm0,2.67v-2.28h-1.16v2.28Z" style="fill: #fff"/>
    </g>
    <g>
      <path d="M229.77,164.7c0-.11.07-.2.2-.2s.18.1.21.2l.76,2.67c0,.09-.08.2-.19.2a.23.23,0,0,1-.21-.2l-.15-.47h-.84l-.15.47a.23.23,0,0,1-.21.2c-.11,0-.22-.1-.19-.2Zm.2.73h0l-.31,1.07h.62Z" style="fill: #fff"/>
      <path d="M233.38,167.17v-.79a.2.2,0,1,1,.39,0v1a.18.18,0,0,1-.2.2H232a.2.2,0,0,1,0-.39h.58v-2.28H232a.2.2,0,0,1,0-.39h1v2.67Z" style="fill: #fff"/>
    </g>
    <g>
      <path d="M235.81,164.7c0-.11.07-.2.2-.2s.18.1.21.2l.76,2.67c0,.09-.08.2-.19.2a.23.23,0,0,1-.21-.2l-.15-.47h-.84l-.15.47a.23.23,0,0,1-.21.2c-.11,0-.22-.1-.19-.2Zm.2.73h0l-.31,1.07h.62Z" style="fill: #fff"/>
      <path d="M238.27,167.17h1.35a.2.2,0,1,1,0,.39h-1.75v-1.28a.39.39,0,0,1,.44-.45h1.11v-.94h-1.35a.2.2,0,0,1,0-.39h1.31a.41.41,0,0,1,.44.46v.81a.41.41,0,0,1-.44.46h-1.11Z" style="fill: #fff"/>
    </g>
    <rect height="1.71" style="fill: #9f8f89" transform="translate(-7.91 270.8) rotate(-90)" width="4.38" x="129.26" y="138.5"/>
    <rect height="1.71" rx="0.85" ry="0.85" style="fill: #9f8f89" transform="translate(259.85 271.88) rotate(180)" width="4.38" x="127.74" y="135.09"/>
    <rect height="1.71" rx="0.85" ry="0.85" style="fill: #9f8f89" transform="translate(259.85 285.88) rotate(180)" width="4.38" x="127.74" y="142.09"/>
    <rect height="4.08" style="fill: #595859" width="3.38" x="130.86" y="133.13"/>
    <rect height="4.08" style="fill: #595859" width="3.38" x="130.86" y="141.52"/>
    <path d="M145.65,146.64H133.74v-5.09a2,2,0,0,0,1.63-2.21,1.9,1.9,0,0,0-1.62-2.12v-4.8h11.92Z" style="fill: #434244"/>
    <g>
      <polygon points="152.49 140.16 147.53 140.16 146.51 138.52 146.51 133.35 147.69 132.46 152.52 132.46 153.63 133.52 153.63 138.45 152.49 140.16" style="fill: #434244"/>
      <polygon points="147.48 140.16 152.42 140.16 153.63 141.1 153.63 146.65 152.45 147.54 147.62 147.54 146.51 146.49 146.51 140.95 147.48 140.16" style="fill: #434244"/>
      <rect height="1.1" style="fill: #595859" width="4.38" x="147.84" y="139.06"/>
      <rect height="5.71" style="fill: #595859" width="5.13" x="147.44" y="140.45"/>
      <polygon points="152.21 148.17 151.36 148.17 150.48 147.51 148.38 148.17 147.84 148.17 147.84 146.84 152.21 146.84 152.21 148.17" style="fill: #595859"/>
    </g>
    <rect height="1.71" style="fill: #9f8f89" width="4.88" x="145.65" y="135.46"/>
    <rect height="1.71" style="fill: #9f8f89" width="4.88" x="145.65" y="142.67"/>
    <path d="M129.79,132.31h.91a.75.75,0,0,1,.75.75v4.15a0,0,0,0,1,0,0h-2.5a0,0,0,0,1,0,0v-4.05A.84.84,0,0,1,129.79,132.31Z" style="fill: #434244"/>
    <path d="M129.76,141.52h.91a.75.75,0,0,1,.75.75v4.15a0,0,0,0,1,0,0h-2.5a0,0,0,0,1,0,0v-4.05A.84.84,0,0,1,129.76,141.52Z" style="fill: #434244" transform="translate(260.32 287.94) rotate(180)"/>
    <polyline points="148.32 116.58 146.94 116.58 146.94 122.71 261.44 122.71 261.44 116.58" style="fill: none;stroke: #fff;stroke-miterlimit: 10;stroke-width: 0.5px"/>
    <polyline points="261.44 129.27 254.76 129.27 254.76 158.95 261.76 158.95" style="fill: none;stroke: #fff;stroke-miterlimit: 10;stroke-width: 0.5107532143592834px"/>
    <line style="fill: none;stroke: #fff;stroke-miterlimit: 10;stroke-width: 0.5px" x1="254.76" x2="261.76" y1="136.98" y2="136.98"/>
    <line style="fill: none;stroke: #fff;stroke-miterlimit: 10;stroke-width: 0.5px" x1="254.76" x2="261.76" y1="143.87" y2="143.87"/>
    <line style="fill: none;stroke: #fff;stroke-miterlimit: 10;stroke-width: 0.5px" x1="254.76" x2="261.76" y1="151.34" y2="151.34"/>
    <polyline points="162.69 149.59 162.69 154.84 168.51 154.84 168.51 149.59" style="fill: none;stroke: #fff;stroke-miterlimit: 10;stroke-width: 0.5px"/>
    <polyline points="168.51 146.9 168.51 141.74 162.69 141.74 162.69 146.9" style="fill: none;stroke: #fff;stroke-miterlimit: 10;stroke-width: 0.5px"/>
    <polyline points="168.72 134.45 168.72 139.7 174.53 139.7 174.53 134.45" style="fill: none;stroke: #fff;stroke-miterlimit: 10;stroke-width: 0.5px"/>
    <polyline points="155.63 150.14 155.63 154.84 161.45 154.84 161.45 150.14" style="fill: none;stroke: #fff;stroke-miterlimit: 10;stroke-width: 0.47269469499588px"/>
    <polyline points="161.62 147.89 161.62 143.2 155.81 143.2 155.81 147.89" style="fill: none;stroke: #fff;stroke-miterlimit: 10;stroke-width: 0.47269469499588px"/>
    <polyline points="174.53 131.76 174.53 126.61 168.72 126.61 168.72 131.76" style="fill: none;stroke: #fff;stroke-miterlimit: 10;stroke-width: 0.5px"/>
    <polyline points="175.81 134.45 175.81 139.7 181.63 139.7 181.63 134.45" style="fill: none;stroke: #fff;stroke-miterlimit: 10;stroke-width: 0.5px"/>
    <polyline points="181.63 131.76 181.63 126.61 175.81 126.61 175.81 131.76" style="fill: none;stroke: #fff;stroke-miterlimit: 10;stroke-width: 0.5px"/>
    <polyline points="169.69 149.59 169.69 154.84 175.51 154.84 175.51 149.59" style="fill: none;stroke: #fff;stroke-miterlimit: 10;stroke-width: 0.5px"/>
    <polyline points="175.51 146.9 175.51 141.74 169.69 141.74 169.69 146.9" style="fill: none;stroke: #fff;stroke-miterlimit: 10;stroke-width: 0.5px"/>
    <polyline points="176.69 149.59 176.69 154.84 182.51 154.84 182.51 149.59" style="fill: none;stroke: #fff;stroke-miterlimit: 10;stroke-width: 0.5px"/>
    <polyline points="182.51 146.9 182.51 141.74 176.69 141.74 176.69 146.9" style="fill: none;stroke: #fff;stroke-miterlimit: 10;stroke-width: 0.5px"/>
    <polyline points="176.05 159.15 170.8 159.15 170.8 164.96 176.05 164.96" style="fill: none;stroke: #fff;stroke-miterlimit: 10;stroke-width: 0.5px"/>
    <polyline points="178.74 164.96 183.9 164.96 183.9 159.15 178.74 159.15" style="fill: none;stroke: #fff;stroke-miterlimit: 10;stroke-width: 0.5px"/>
    <polyline points="191.05 159.15 185.8 159.15 185.8 164.96 191.05 164.96" style="fill: none;stroke: #fff;stroke-miterlimit: 10;stroke-width: 0.5px"/>
    <polyline points="193.74 164.96 198.9 164.96 198.9 159.15 193.74 159.15" style="fill: none;stroke: #fff;stroke-miterlimit: 10;stroke-width: 0.5px"/>
    <polyline points="206.05 159.15 200.8 159.15 200.8 164.96 206.05 164.96" style="fill: none;stroke: #fff;stroke-miterlimit: 10;stroke-width: 0.5px"/>
    <polyline points="208.74 164.96 213.9 164.96 213.9 159.15 208.74 159.15" style="fill: none;stroke: #fff;stroke-miterlimit: 10;stroke-width: 0.5px"/>
    <polyline points="158.5 133.04 156.45 133.04 156.45 134.37" style="fill: none;stroke: #fff;stroke-miterlimit: 10;stroke-width: 0.47269469499588px"/>
    <polyline points="163.19 133.04 164.74 133.04 164.74 136.56" style="fill: none;stroke: #fff;stroke-miterlimit: 10;stroke-width: 0.47269469499588px"/>
    <line style="fill: none;stroke: #fff;stroke-miterlimit: 10;stroke-width: 0.47269469499588px" x1="159.82" x2="155.67" y1="141" y2="141"/>
    <circle cx="169.15" cy="138.37" r="0.63" style="fill: none;stroke: #9b8781;stroke-miterlimit: 10;stroke-width: 0.5px"/>
    <circle cx="181.2" cy="139.56" r="0.63" style="fill: none;stroke: #9b8781;stroke-miterlimit: 10;stroke-width: 0.5px"/>
    <circle cx="172.23" cy="141.74" r="0.63" style="fill: none;stroke: #9b8781;stroke-miterlimit: 10;stroke-width: 0.5px"/>
    <rect height="4.29" style="fill: #ccc" width="111.27" x="148.09" y="116.91"/>
  </g>
  <g data-name="Layer 5" id="Layer_5">
    <g id="Body">
      <path d="M280,126.26,280.14,0H0V126.51Zm-7.09-10.69a3.6,3.6,0,1,1-3.6,3.6A3.6,3.6,0,0,1,272.92,115.58Zm-15.59,2a1.44,1.44,0,1,1-1.44,1.44A1.44,1.44,0,0,1,257.33,117.56Zm-7.2,0a1.44,1.44,0,1,1-1.44,1.44A1.44,1.44,0,0,1,250.13,117.56Zm-7.2,0a1.44,1.44,0,1,1-1.44,1.44A1.44,1.44,0,0,1,242.93,117.56Zm-7.2,0a1.44,1.44,0,1,1-1.44,1.44A1.44,1.44,0,0,1,235.73,117.56Zm-7.2,0a1.44,1.44,0,1,1-1.44,1.44A1.44,1.44,0,0,1,228.53,117.56Zm-7.2,0a1.44,1.44,0,1,1-1.44,1.44A1.44,1.44,0,0,1,221.33,117.56Zm-7.2,0a1.44,1.44,0,1,1-1.44,1.44A1.44,1.44,0,0,1,214.13,117.56Zm-7.2,0a1.44,1.44,0,1,1-1.44,1.44A1.44,1.44,0,0,1,206.93,117.56Zm-7.2,0a1.44,1.44,0,1,1-1.44,1.44A1.44,1.44,0,0,1,199.73,117.56Zm-7.2,0a1.44,1.44,0,1,1-1.44,1.44A1.44,1.44,0,0,1,192.53,117.56Zm-7.2,0a1.44,1.44,0,1,1-1.44,1.44A1.44,1.44,0,0,1,185.33,117.56Zm-7.2,0a1.44,1.44,0,1,1-1.44,1.44A1.44,1.44,0,0,1,178.13,117.56Zm-7.2,0a1.44,1.44,0,1,1-1.44,1.44A1.44,1.44,0,0,1,170.93,117.56Zm-7.2,0a1.44,1.44,0,1,1-1.44,1.44A1.44,1.44,0,0,1,163.73,117.56Zm-7.2,0a1.44,1.44,0,1,1-1.44,1.44A1.44,1.44,0,0,1,156.53,117.56Zm-7.2,0a1.44,1.44,0,1,1-1.44,1.44A1.44,1.44,0,0,1,149.33,117.56Zm-89-89.86a3.6,3.6,0,1,1-3.6,3.6A3.6,3.6,0,0,1,60.32,27.7Z" style="fill: url(#linear-gradient)"/>
      <g>
        <polygon points="19.03 106.34 260.77 106.64 263.29 104.12 263.64 16.89 261.11 14.37 19.37 14.06 16.85 16.59 16.5 103.81 19.03 106.34" style="fill: #303030"/>
        <rect height="45.35" rx="3.05" ry="3.05" style="fill: #21201e" transform="translate(325.45 122.05) rotate(180)" width="187.09" x="69.18" y="38.35"/>
        <g>
          <polygon points="25.64 25.35 252.45 25.35 252.45 57.46 252.45 95.05 25.64 95.05 25.64 25.35" style="fill: #2b6d2d"/>
          <g>
            <line style="fill: #006837;stroke: #303030;stroke-miterlimit: 10;stroke-width: 0.25px;opacity: 0.30000000000000004" x1="25.64" x2="252.45" y1="41.65" y2="41.65"/>
            <line style="fill: #006837;stroke: #303030;stroke-miterlimit: 10;stroke-width: 0.25px;opacity: 0.30000000000000004" x1="25.64" x2="252.45" y1="60.47" y2="60.47"/>
            <line style="fill: #006837;stroke: #303030;stroke-miterlimit: 10;stroke-width: 0.25px;opacity: 0.30000000000000004" x1="25.64" x2="252.45" y1="79.29" y2="79.29"/>
            <path d="M252,57.58" style="fill: #006837;stroke: #303030;stroke-miterlimit: 10;stroke-width: 0.25px;opacity: 0.30000000000000004"/>
            <path d="M47.29,57.58" style="fill: #006837;stroke: #303030;stroke-miterlimit: 10;stroke-width: 0.25px;opacity: 0.30000000000000004"/>
            <line style="fill: #006837;stroke: #303030;stroke-miterlimit: 10;stroke-width: 0.25px;opacity: 0.30000000000000004" x1="242.81" x2="242.81" y1="95.05" y2="25.35"/>
            <line style="fill: #006837;stroke: #303030;stroke-miterlimit: 10;stroke-width: 0.25px;opacity: 0.30000000000000004" x1="232.04" x2="232.04" y1="95.05" y2="25.35"/>
            <line style="fill: #006837;stroke: #303030;stroke-miterlimit: 10;stroke-width: 0.25px;opacity: 0.30000000000000004" x1="221.27" x2="221.27" y1="95.05" y2="25.35"/>
            <line style="fill: #006837;stroke: #303030;stroke-miterlimit: 10;stroke-width: 0.25px;opacity: 0.30000000000000004" x1="210.49" x2="210.49" y1="95.05" y2="25.35"/>
            <line style="fill: #006837;stroke: #303030;stroke-miterlimit: 10;stroke-width: 0.25px;opacity: 0.30000000000000004" x1="199.72" x2="199.72" y1="95.05" y2="25.35"/>
            <line style="fill: #006837;stroke: #303030;stroke-miterlimit: 10;stroke-width: 0.25px;opacity: 0.30000000000000004" x1="188.95" x2="188.95" y1="95.05" y2="25.35"/>
            <line style="fill: #006837;stroke: #303030;stroke-miterlimit: 10;stroke-width: 0.25px;opacity: 0.30000000000000004" x1="178.17" x2="178.17" y1="95.05" y2="25.35"/>
            <line style="fill: #006837;stroke: #303030;stroke-miterlimit: 10;stroke-width: 0.25px;opacity: 0.30000000000000004" x1="167.4" x2="167.4" y1="95.05" y2="25.35"/>
            <line style="fill: #006837;stroke: #303030;stroke-miterlimit: 10;stroke-width: 0.25px;opacity: 0.30000000000000004" x1="156.63" x2="156.63" y1="95.05" y2="25.35"/>
            <line style="fill: #006837;stroke: #303030;stroke-miterlimit: 10;stroke-width: 0.25px;opacity: 0.30000000000000004" x1="145.86" x2="145.86" y1="95.05" y2="25.35"/>
            <line style="fill: #006837;stroke: #303030;stroke-miterlimit: 10;stroke-width: 0.25px;opacity: 0.30000000000000004" x1="135.08" x2="135.08" y1="95.05" y2="25.35"/>
            <line style="fill: #006837;stroke: #303030;stroke-miterlimit: 10;stroke-width: 0.25px;opacity: 0.30000000000000004" x1="124.31" x2="124.31" y1="95.05" y2="25.35"/>
            <line style="fill: #006837;stroke: #303030;stroke-miterlimit: 10;stroke-width: 0.25px;opacity: 0.30000000000000004" x1="113.54" x2="113.54" y1="95.05" y2="25.35"/>
            <line style="fill: #006837;stroke: #303030;stroke-miterlimit: 10;stroke-width: 0.25px;opacity: 0.30000000000000004" x1="102.76" x2="102.76" y1="95.05" y2="25.35"/>
            <line style="fill: #006837;stroke: #303030;stroke-miterlimit: 10;stroke-width: 0.25px;opacity: 0.30000000000000004" x1="91.99" x2="91.99" y1="95.05" y2="25.35"/>
            <line style="fill: #006837;stroke: #303030;stroke-miterlimit: 10;stroke-width: 0.25px;opacity: 0.30000000000000004" x1="79.61" x2="79.61" y1="95.05" y2="25.35"/>
            <line style="fill: #006837;stroke: #303030;stroke-miterlimit: 10;stroke-width: 0.25px;opacity: 0.30000000000000004" x1="68.83" x2="68.83" y1="95.05" y2="25.35"/>
            <line style="fill: #006837;stroke: #303030;stroke-miterlimit: 10;stroke-width: 0.25px;opacity: 0.30000000000000004" x1="58.06" x2="58.06" y1="95.05" y2="25.35"/>
            <line style="fill: #006837;stroke: #303030;stroke-miterlimit: 10;stroke-width: 0.25px;opacity: 0.30000000000000004" x1="47.29" x2="47.29" y1="95.05" y2="25.35"/>
            <line style="fill: #006837;stroke: #303030;stroke-miterlimit: 10;stroke-width: 0.25px;opacity: 0.30000000000000004" x1="36.61" x2="36.61" y1="95.05" y2="25.35"/>
          </g>
        </g>
        <g>
          <path d="M22.34,100.88a1.86,1.86,0,0,0,2,1.62H253.81a1.86,1.86,0,0,0,2-1.62,1.3,1.3,0,0,0,0-.2H22.36A1.3,1.3,0,0,0,22.34,100.88Z" style="fill: #21201e"/>
          <path d="M255.81,100.68a1.91,1.91,0,0,0-2-1.43H24.36a1.91,1.91,0,0,0-2,1.43Z" style="fill: #4d4d4d"/>
        </g>
        <g>
          <path d="M22.77,19.55a1.86,1.86,0,0,0,2,1.62H254.24a1.86,1.86,0,0,0,2-1.62,1.3,1.3,0,0,0,0-.2H22.79A1.3,1.3,0,0,0,22.77,19.55Z" style="fill: #21201e"/>
          <path d="M256.24,19.36a1.91,1.91,0,0,0-2-1.43H24.79a1.91,1.91,0,0,0-2,1.43Z" style="fill: #4d4d4d"/>
        </g>
        <rect height="69.69" style="opacity: 0.15;fill: url(#linear-gradient-2)" transform="translate(278.09 120.4) rotate(180)" width="227.56" x="25.26" y="25.35"/>
      </g>
      <circle cx="10.43" cy="9.35" r="3.97" style="fill: #e8e5df"/>
      <circle cx="10.43" cy="120.05" r="3.97" style="fill: #e8e5df"/>
      <circle cx="273.01" cy="9.35" r="3.97" style="fill: #e8e5df"/>
    </g>
    <g id="connectors">
      <circle cx="149.33" cy="118.91" id="circuitoCon_Female_K" r="1.44" style="fill: none"/>
      <circle cx="156.53" cy="118.91" id="circuitoCon_Female_A" r="1.44" style="fill: none"/>
      <circle cx="163.73" cy="118.91" id="circuitoCon_Female_D7" r="1.44" style="fill: none"/>
      <circle cx="170.93" cy="118.91" id="circuitoCon_Female_D6" r="1.44" style="fill: none"/>
      <circle cx="178.13" cy="118.91" id="circuitoCon_Female_D5" r="1.44" style="fill: none"/>
      <circle cx="185.33" cy="118.91" id="circuitoCon_Female_D4" r="1.44" style="fill: none"/>
      <circle cx="192.53" cy="118.91" id="circuitoCon_Female_D3" r="1.44" style="fill: none"/>
      <circle cx="199.73" cy="118.91" id="circuitoCon_Female_D2" r="1.44" style="fill: none"/>
      <circle cx="206.93" cy="118.91" id="circuitoCon_Female_D1" r="1.44" style="fill: none"/>
      <circle cx="214.13" cy="118.91" id="circuitoCon_Female_D0" r="1.44" style="fill: none"/>
      <circle cx="221.33" cy="118.91" id="circuitoCon_Female_E" r="1.44" style="fill: none"/>
      <circle cx="228.53" cy="118.91" id="circuitoCon_Female_RW" r="1.44" style="fill: none"/>
      <circle cx="235.73" cy="118.91" id="circuitoCon_Female_RS" r="1.44" style="fill: none"/>
      <circle cx="242.93" cy="118.91" id="circuitoCon_Female_V0" r="1.44" style="fill: none"/>
      <circle cx="250.13" cy="118.91" id="circuitoCon_Female_VDD" r="1.44" style="fill: none"/>
      <circle cx="257.33" cy="118.91" id="circuitoCon_Female_Vss" r="1.44" style="fill: none"/>
    </g>
    <g id="parts">
      <path d="M151.88,126.25v-7.59a2.55,2.55,0,0,0-5.1,0v7.59Zm-2.55-8.7a1.44,1.44,0,1,1-1.44,1.44A1.44,1.44,0,0,1,149.33,117.55Z" style="fill: #e8e5df"/>
      <path d="M159.08,126.25v-7.59a2.55,2.55,0,0,0-5.1,0v7.59Zm-2.55-8.7a1.44,1.44,0,1,1-1.44,1.44A1.44,1.44,0,0,1,156.53,117.55Z" style="fill: #e8e5df"/>
      <path d="M166.28,126.25v-7.59a2.55,2.55,0,0,0-5.1,0v7.59Zm-2.55-8.7a1.44,1.44,0,1,1-1.44,1.44A1.44,1.44,0,0,1,163.73,117.55Z" style="fill: #e8e5df"/>
      <path d="M173.48,126.25v-7.59a2.55,2.55,0,0,0-5.1,0v7.59Zm-2.55-8.7a1.44,1.44,0,1,1-1.44,1.44A1.44,1.44,0,0,1,170.93,117.55Z" style="fill: #e8e5df"/>
      <path d="M180.68,126.25v-7.59a2.55,2.55,0,0,0-5.1,0v7.59Zm-2.55-8.7a1.44,1.44,0,1,1-1.44,1.44A1.44,1.44,0,0,1,178.13,117.55Z" style="fill: #e8e5df"/>
      <path d="M187.88,126.25v-7.59a2.55,2.55,0,0,0-5.1,0v7.59Zm-2.55-8.7a1.44,1.44,0,1,1-1.44,1.44A1.44,1.44,0,0,1,185.33,117.55Z" style="fill: #e8e5df"/>
      <path d="M195.08,126.25v-7.59a2.55,2.55,0,1,0-5.1,0v7.59Zm-2.55-8.7a1.44,1.44,0,1,1-1.44,1.44A1.44,1.44,0,0,1,192.53,117.55Z" style="fill: #e8e5df"/>
      <path d="M202.28,126.25v-7.59a2.55,2.55,0,0,0-5.1,0v7.59Zm-2.55-8.7a1.44,1.44,0,1,1-1.44,1.44A1.44,1.44,0,0,1,199.73,117.55Z" style="fill: #e8e5df"/>
      <path d="M209.48,126.25v-7.59a2.55,2.55,0,0,0-5.1,0v7.59Zm-2.55-8.7a1.44,1.44,0,1,1-1.44,1.44A1.44,1.44,0,0,1,206.93,117.55Z" style="fill: #e8e5df"/>
      <path d="M216.68,126.25v-7.59a2.55,2.55,0,1,0-5.1,0v7.59Zm-2.55-8.7a1.44,1.44,0,1,1-1.44,1.44A1.44,1.44,0,0,1,214.13,117.55Z" style="fill: #e8e5df"/>
      <path d="M223.88,126.25v-7.59a2.55,2.55,0,0,0-5.1,0v7.59Zm-2.55-8.7a1.44,1.44,0,1,1-1.44,1.44A1.44,1.44,0,0,1,221.33,117.55Z" style="fill: #e8e5df"/>
      <path d="M231.08,126.25v-7.59a2.55,2.55,0,0,0-5.1,0v7.59Zm-2.55-8.7a1.44,1.44,0,1,1-1.44,1.44A1.44,1.44,0,0,1,228.53,117.55Z" style="fill: #e8e5df"/>
      <path d="M238.28,126.25v-7.59a2.55,2.55,0,1,0-5.1,0v7.59Zm-2.55-8.7a1.44,1.44,0,1,1-1.44,1.44A1.44,1.44,0,0,1,235.73,117.55Z" style="fill: #e8e5df"/>
      <path d="M245.48,126.25v-7.59a2.55,2.55,0,0,0-5.1,0v7.59Zm-2.55-8.7a1.44,1.44,0,1,1-1.44,1.44A1.44,1.44,0,0,1,242.93,117.55Z" style="fill: #e8e5df"/>
      <path d="M252.68,126.25v-7.59a2.55,2.55,0,0,0-5.1,0v7.59Zm-2.55-8.7a1.44,1.44,0,1,1-1.44,1.44A1.44,1.44,0,0,1,250.13,117.55Z" style="fill: #e8e5df"/>
      <path d="M259.88,126.25v-7.59a2.55,2.55,0,0,0-5.1,0v7.59Zm-2.55-8.7a1.44,1.44,0,1,1-1.44,1.44A1.44,1.44,0,0,1,257.33,117.55Z" style="fill: #e8e5df"/>
    </g>
    <g id="Text">
      <path d="M149.91,112.75V115a.16.16,0,0,1,0,.12.16.16,0,0,1-.12,0,.16.16,0,0,1-.12,0,.16.16,0,0,1,0-.12v-.78l-1.05.9a.18.18,0,0,1-.12,0,.15.15,0,0,1-.12,0,.16.16,0,0,1,0-.12.15.15,0,0,1,.05-.11l1.19-1-1.19-1a.13.13,0,0,1,0-.11.17.17,0,0,1,0-.12.15.15,0,0,1,.12-.05.18.18,0,0,1,.12,0l1,.9v-.78a.16.16,0,0,1,0-.12.16.16,0,0,1,.23,0A.16.16,0,0,1,149.91,112.75Z" style="fill: #f2f2f2"/>
      <path d="M157.1,112.81l-.66,2.25a.16.16,0,0,1-.17.12.14.14,0,0,1-.15-.1l-.65-2.28a.18.18,0,0,1,0,0,.16.16,0,0,1,0-.12.15.15,0,0,1,.11,0,.15.15,0,0,1,.16.12l.13.45h.75l.14-.48a.1.1,0,0,1,0-.06.17.17,0,0,1,.21,0,.17.17,0,0,1,0,.12A.19.19,0,0,1,157.1,112.81Zm-.82,1.61.28-.94H156Z" style="fill: #f2f2f2"/>
      <g>
        <path d="M165.35,115.18h-.65a.45.45,0,0,1-.25-.08.51.51,0,0,1-.18-.19l-.32-.66a.77.77,0,0,1,0-.74l.33-.65a.51.51,0,0,1,.18-.2.47.47,0,0,1,.26-.08h.63a.17.17,0,0,1,.16.16.16.16,0,0,1,0,.12.16.16,0,0,1-.12,0h-.17v1.93h.17a.16.16,0,0,1,.12,0,.16.16,0,0,1,0,.12.17.17,0,0,1-.16.16Zm-.5-.33v-1.94h-.12a.17.17,0,0,0-.16.11l-.32.64a.5.5,0,0,0-.06.21.44.44,0,0,0,0,.2l.34.67a.18.18,0,0,0,.17.1Z" style="fill: #f2f2f2"/>
        <path d="M163.11,114.87V115a.16.16,0,0,1,0,.12.16.16,0,0,1-.12,0h-1.49v-1a.17.17,0,0,1,.06-.13l.6-.52v-.76a.16.16,0,0,1,0-.12.16.16,0,0,1,.12,0,.16.16,0,0,1,.12,0,.16.16,0,0,1,0,.12v.83a.18.18,0,0,1-.06.14l-.61.51v.61h1a.17.17,0,0,1,.28-.09A.16.16,0,0,1,163.11,114.87Z" style="fill: #f2f2f2"/>
      </g>
      <g>
        <path d="M172.55,115.18h-.65a.45.45,0,0,1-.25-.08.51.51,0,0,1-.18-.19l-.32-.66a.77.77,0,0,1,0-.74l.33-.65a.51.51,0,0,1,.18-.2.47.47,0,0,1,.26-.08h.63a.17.17,0,0,1,.16.16.16.16,0,0,1,0,.12.16.16,0,0,1-.12,0h-.17v1.93h.17a.16.16,0,0,1,.12,0,.16.16,0,0,1,0,.12.17.17,0,0,1-.16.16Zm-.5-.33v-1.94h-.12a.17.17,0,0,0-.16.11l-.32.64a.5.5,0,0,0-.06.21.44.44,0,0,0,0,.2l.34.67a.18.18,0,0,0,.17.1Z" style="fill: #f2f2f2"/>
        <path d="M170.13,115.18H170a.17.17,0,0,1-.16-.16.16.16,0,0,1,0-.12.16.16,0,0,1,.12,0v-1.08h-1.16a.16.16,0,0,1-.12,0,.16.16,0,0,1,0-.12v-.85a.15.15,0,0,1,0-.12.17.17,0,0,1,.12,0h1.32a.16.16,0,0,1,.12,0,.16.16,0,0,1,0,.12V115a.16.16,0,0,1,0,.12A.17.17,0,0,1,170.13,115.18Zm-.16-1.74v-.52h-1v.52Z" style="fill: #f2f2f2"/>
      </g>
      <g>
        <path d="M179.76,115.18h-.65a.45.45,0,0,1-.25-.08.51.51,0,0,1-.18-.19l-.32-.66a.77.77,0,0,1,0-.74l.33-.65a.51.51,0,0,1,.18-.2.47.47,0,0,1,.26-.08h.63a.17.17,0,0,1,.16.16.16.16,0,0,1,0,.12.16.16,0,0,1-.12,0h-.17v1.93h.17a.16.16,0,0,1,.12,0,.16.16,0,0,1,0,.12.17.17,0,0,1-.16.16Zm-.5-.33v-1.94h-.12a.17.17,0,0,0-.16.11l-.32.64a.5.5,0,0,0-.06.21.44.44,0,0,0,0,.2l.34.67a.18.18,0,0,0,.17.1Z" style="fill: #f2f2f2"/>
        <path d="M176.9,112.92h-.76v.8h1v1.46H176a.17.17,0,0,1-.16-.16.16.16,0,0,1,0-.12.16.16,0,0,1,.12,0h.82V114h-.66a.33.33,0,0,1-.33-.33v-.8a.33.33,0,0,1,.33-.33h.76a.57.57,0,0,1,.22,0l.25.1a.15.15,0,0,1,.1.16.16.16,0,0,1,0,.12.15.15,0,0,1-.11,0l-.11,0-.22-.09Z" style="fill: #f2f2f2"/>
      </g>
      <g>
        <path d="M187,115.18h-.65a.45.45,0,0,1-.25-.08.51.51,0,0,1-.18-.19l-.32-.66a.77.77,0,0,1,0-.74l.33-.65a.51.51,0,0,1,.18-.2.47.47,0,0,1,.26-.08H187a.17.17,0,0,1,.16.16.16.16,0,0,1,0,.12.16.16,0,0,1-.12,0h-.17v1.93H187a.16.16,0,0,1,.12,0,.16.16,0,0,1,0,.12.17.17,0,0,1-.16.16Zm-.5-.33v-1.94h-.12a.17.17,0,0,0-.16.11l-.32.64a.5.5,0,0,0-.06.21.44.44,0,0,0,0,.2l.34.67a.18.18,0,0,0,.17.1Z" style="fill: #f2f2f2"/>
        <path d="M183.63,112.75v.68h1V115a.17.17,0,0,1-.17.17.16.16,0,0,1-.12,0,.16.16,0,0,1,0-.12v-1.25h-.66v1a.16.16,0,0,1,0,.12.16.16,0,0,1-.23,0,.16.16,0,0,1,0-.12v-1a.16.16,0,0,1-.12,0,.17.17,0,0,1,0-.23.16.16,0,0,1,.12,0v-.69a.16.16,0,0,1,0-.12.16.16,0,0,1,.23,0A.16.16,0,0,1,183.63,112.75Z" style="fill: #f2f2f2"/>
      </g>
      <g>
        <path d="M194.16,115.18h-.65a.45.45,0,0,1-.25-.08.51.51,0,0,1-.18-.19l-.32-.66a.77.77,0,0,1,0-.74l.33-.65a.51.51,0,0,1,.18-.2.47.47,0,0,1,.26-.08h.63a.17.17,0,0,1,.16.16.16.16,0,0,1,0,.12.16.16,0,0,1-.12,0H194v1.93h.17a.16.16,0,0,1,.12,0,.16.16,0,0,1,0,.12.17.17,0,0,1-.16.16Zm-.5-.33v-1.94h-.12a.17.17,0,0,0-.16.11l-.32.64a.5.5,0,0,0-.06.21.44.44,0,0,0,0,.2l.34.67a.18.18,0,0,0,.17.1Z" style="fill: #f2f2f2"/>
        <path d="M190.25,114.85v-.62a.47.47,0,0,1,.13-.35.49.49,0,0,1-.14-.33v-.64a.31.31,0,0,1,.1-.23.32.32,0,0,1,.23-.1h1.16a.16.16,0,0,1,.12,0,.17.17,0,0,1,0,.23.16.16,0,0,1-.12,0h-1.16v.64a.16.16,0,0,0,0,.12.16.16,0,0,0,.12,0h.66a.16.16,0,0,1,.12,0,.17.17,0,0,1,0,.23.16.16,0,0,1-.12,0h-.66a.16.16,0,0,0-.12,0,.16.16,0,0,0,0,.12v.63h1.17a.16.16,0,0,1,.12,0,.17.17,0,0,1,0,.23.16.16,0,0,1-.12,0h-1.17a.31.31,0,0,1-.23-.1A.32.32,0,0,1,190.25,114.85Z" style="fill: #f2f2f2"/>
      </g>
      <g>
        <path d="M201.35,115.18h-.65a.45.45,0,0,1-.25-.08.51.51,0,0,1-.18-.19l-.32-.66a.77.77,0,0,1,0-.74l.33-.65a.51.51,0,0,1,.18-.2.47.47,0,0,1,.26-.08h.63a.17.17,0,0,1,.16.16.16.16,0,0,1,0,.12.16.16,0,0,1-.12,0h-.17v1.93h.17a.16.16,0,0,1,.12,0,.16.16,0,0,1,0,.12.17.17,0,0,1-.16.16Zm-.5-.33v-1.94h-.12a.17.17,0,0,0-.16.11l-.32.64a.5.5,0,0,0-.06.21.44.44,0,0,0,0,.2l.34.67a.18.18,0,0,0,.17.1Z" style="fill: #f2f2f2"/>
        <path d="M197.61,112.59h1.49v1.13a.32.32,0,0,1-.1.23.31.31,0,0,1-.23.1h-1v.8H199a.16.16,0,1,1,0,.33h-1.17a.32.32,0,0,1-.23-.1.31.31,0,0,1-.1-.23v-.8a.32.32,0,0,1,.1-.24.32.32,0,0,1,.23-.1h1v-.8h-1.16a.16.16,0,0,1-.12,0,.16.16,0,0,1,0-.23A.16.16,0,0,1,197.61,112.59Z" style="fill: #f2f2f2"/>
      </g>
      <g>
        <path d="M208.55,115.18h-.65a.45.45,0,0,1-.25-.08.51.51,0,0,1-.18-.19l-.32-.66a.77.77,0,0,1,0-.74l.33-.65a.51.51,0,0,1,.18-.2.47.47,0,0,1,.26-.08h.63a.17.17,0,0,1,.16.16.16.16,0,0,1,0,.12.16.16,0,0,1-.12,0h-.17v1.93h.17a.16.16,0,0,1,.12,0,.16.16,0,0,1,0,.12.17.17,0,0,1-.16.16Zm-.5-.33v-1.94h-.12a.17.17,0,0,0-.16.11l-.32.64a.5.5,0,0,0-.06.21.44.44,0,0,0,0,.2l.34.67a.18.18,0,0,0,.17.1Z" style="fill: #f2f2f2"/>
        <path d="M206.15,112.92h-.5v1.94h.5a.16.16,0,0,1,.12,0,.17.17,0,0,1,0,.23.16.16,0,0,1-.12,0h-.82v-2.26H205v.68a.17.17,0,0,1-.16.16.16.16,0,0,1-.12,0,.16.16,0,0,1,0-.12v-.85a.16.16,0,0,1,0-.12.16.16,0,0,1,.12,0h1.32a.16.16,0,0,1,.12,0,.16.16,0,0,1,0,.12.15.15,0,0,1,0,.11A.16.16,0,0,1,206.15,112.92Z" style="fill: #f2f2f2"/>
      </g>
      <g>
        <path d="M215.76,115.18h-.65a.45.45,0,0,1-.25-.08.51.51,0,0,1-.18-.19l-.32-.66a.77.77,0,0,1,0-.74l.33-.65a.51.51,0,0,1,.18-.2.47.47,0,0,1,.26-.08h.63a.17.17,0,0,1,.16.16.16.16,0,0,1,0,.12.16.16,0,0,1-.12,0h-.17v1.93h.17a.16.16,0,0,1,.12,0,.16.16,0,0,1,0,.12.17.17,0,0,1-.16.16Zm-.5-.33v-1.94h-.12a.17.17,0,0,0-.16.11l-.32.64a.5.5,0,0,0-.06.21.44.44,0,0,0,0,.2l.34.67a.18.18,0,0,0,.17.1Z" style="fill: #f2f2f2"/>
        <path d="M213.51,112.9v2a.32.32,0,0,1-.32.32h-1a.3.3,0,0,1-.22-.09.31.31,0,0,1-.09-.22v-2a.31.31,0,0,1,.09-.22.3.3,0,0,1,.22-.09h1a.3.3,0,0,1,.22.09A.31.31,0,0,1,213.51,112.9Zm-1.33,0v1.94h1v-1.94Z" style="fill: #f2f2f2"/>
      </g>
      <path d="M220.42,114.85h1.16V114h-.5a.17.17,0,0,1-.16-.16.16.16,0,0,1,0-.12.16.16,0,0,1,.12,0h.5v-.8h-1.16a.16.16,0,0,1-.12,0,.16.16,0,0,1,0-.12.15.15,0,0,1,0-.12.17.17,0,0,1,.12,0h1.49v2.6h-1.49a.17.17,0,0,1-.17-.17.16.16,0,0,1,0-.12A.16.16,0,0,1,220.42,114.85Z" style="fill: #f2f2f2"/>
      <g>
        <path d="M237.51,112.75v2.43h-1.16A.47.47,0,0,1,236,115a.48.48,0,0,1-.15-.35v-.19a.48.48,0,0,1,.14-.35.47.47,0,0,1,.35-.15h.21l-.67-1.15a.2.2,0,0,1,0-.1.15.15,0,0,1,.05-.11.17.17,0,0,1,.12,0,.16.16,0,0,1,.15.09l.77,1.33h.24v-1.25a.15.15,0,0,1,0-.12.17.17,0,0,1,.12,0,.16.16,0,0,1,.12,0A.16.16,0,0,1,237.51,112.75Zm-.33,1.58h-.83a.16.16,0,0,0-.12,0,.16.16,0,0,0,0,.12v.19a.16.16,0,0,0,0,.12.16.16,0,0,0,.12,0h.83Z" style="fill: #f2f2f2"/>
        <path d="M234.73,115.18h-.85a.43.43,0,0,1-.3-.13.42.42,0,0,1-.14-.32.16.16,0,0,1,0-.12.16.16,0,0,1,.11,0,.14.14,0,0,1,.12,0,.41.41,0,0,1,.06.14.12.12,0,0,0,.13.1h.81s.06,0,.06,0a.08.08,0,0,0,0-.05l-1.22-1.56a.39.39,0,0,1-.09-.24.36.36,0,0,1,.11-.26.32.32,0,0,1,.24-.11h.88a.41.41,0,0,1,.31.13.41.41,0,0,1,.13.29c0,.12-.06.18-.17.18a.16.16,0,0,1-.16-.16.12.12,0,0,0,0-.09.13.13,0,0,0-.09,0h-.82s-.05,0-.05,0a.08.08,0,0,0,0,.05l1.22,1.56a.39.39,0,0,1,.09.24.36.36,0,0,1-.11.26A.36.36,0,0,1,234.73,115.18Z" style="fill: #f2f2f2"/>
      </g>
      <g>
        <path d="M230.31,112.75v2.43h-1.16a.47.47,0,0,1-.35-.15.48.48,0,0,1-.15-.35v-.19a.48.48,0,0,1,.14-.35.47.47,0,0,1,.35-.15h.21l-.67-1.15a.2.2,0,0,1,0-.1.15.15,0,0,1,.05-.11.17.17,0,0,1,.12,0,.16.16,0,0,1,.15.09l.77,1.33H230v-1.25a.15.15,0,0,1,0-.12.17.17,0,0,1,.12,0,.16.16,0,0,1,.12,0A.16.16,0,0,1,230.31,112.75Zm-.33,1.58h-.83a.16.16,0,0,0-.12,0,.16.16,0,0,0,0,.12v.19a.16.16,0,0,0,0,.12.16.16,0,0,0,.12,0H230Z" style="fill: #f2f2f2"/>
        <path d="M226.91,114.16v-1.09l-.1-.16h-.14l-.1.16V115a.17.17,0,0,1-.17.17.17.17,0,0,1-.16-.16v-2a.22.22,0,0,1,0-.1l.15-.25a.15.15,0,0,1,.14-.08h.31a.19.19,0,0,0,.37,0h.29a.19.19,0,0,1,.18.09l.14.24a.22.22,0,0,1,0,.11v2a.17.17,0,0,1-.17.17.15.15,0,0,1-.11,0,.16.16,0,0,1,0-.12v-1.94l-.1-.16h-.14l-.1.16v1.09a.16.16,0,0,1,0,.12.17.17,0,0,1-.23,0A.16.16,0,0,1,226.91,114.16Z" style="fill: #f2f2f2"/>
      </g>
      <g>
        <path d="M243.05,115v-.6l.67-1.7a.17.17,0,0,1,.32,0l.66,1.7v.6a.16.16,0,0,1,0,.12.16.16,0,0,1-.23,0,.17.17,0,0,1,0-.12v-.53l-.5-1.27-.5,1.27V115a.17.17,0,0,1,0,.12.16.16,0,0,1-.23,0A.16.16,0,0,1,243.05,115Z" style="fill: #f2f2f2"/>
        <path d="M242.31,112.9v2a.32.32,0,0,1-.32.32h-1a.3.3,0,0,1-.22-.09.31.31,0,0,1-.09-.22v-2a.31.31,0,0,1,.09-.22.3.3,0,0,1,.22-.09h1a.3.3,0,0,1,.22.09A.31.31,0,0,1,242.31,112.9Zm-1.33,0v1.94h1v-1.94Z" style="fill: #f2f2f2"/>
      </g>
      <g>
        <path d="M251.46,115v-.6l.67-1.7a.17.17,0,0,1,.32,0l.66,1.7v.6a.16.16,0,0,1,0,.12.16.16,0,0,1-.23,0,.17.17,0,0,1,0-.12v-.53l-.5-1.27-.5,1.27V115a.17.17,0,0,1,0,.12.16.16,0,0,1-.23,0A.16.16,0,0,1,251.46,115Z" style="fill: #f2f2f2"/>
        <path d="M250.55,115.18h-.65a.45.45,0,0,1-.25-.08.51.51,0,0,1-.18-.19l-.32-.66a.77.77,0,0,1,0-.74l.33-.65a.51.51,0,0,1,.18-.2.47.47,0,0,1,.26-.08h.63a.17.17,0,0,1,.16.16.16.16,0,0,1,0,.12.16.16,0,0,1-.12,0h-.17v1.93h.17a.16.16,0,0,1,.12,0,.16.16,0,0,1,0,.12.17.17,0,0,1-.16.16Zm-.5-.33v-1.94h-.12a.17.17,0,0,0-.16.11l-.32.64a.5.5,0,0,0-.06.21.44.44,0,0,0,0,.2l.34.67a.18.18,0,0,0,.17.1Z" style="fill: #f2f2f2"/>
        <path d="M248.13,115.18h-.65a.45.45,0,0,1-.25-.08.51.51,0,0,1-.18-.19l-.32-.66a.77.77,0,0,1,0-.74l.33-.65a.51.51,0,0,1,.18-.2.47.47,0,0,1,.26-.08h.63a.17.17,0,0,1,.16.16.16.16,0,0,1,0,.12.16.16,0,0,1-.12,0H248v1.93h.17a.16.16,0,0,1,.12,0,.16.16,0,0,1,0,.12.17.17,0,0,1-.16.16Zm-.5-.33v-1.94h-.12a.17.17,0,0,0-.16.11l-.32.64a.5.5,0,0,0-.06.21.44.44,0,0,0,0,.2l.34.67a.18.18,0,0,0,.17.1Z" style="fill: #f2f2f2"/>
      </g>
      <g>
        <path d="M259.5,115v-.6l.67-1.7a.17.17,0,0,1,.32,0l.66,1.7v.6a.16.16,0,0,1,0,.12.16.16,0,0,1-.23,0,.17.17,0,0,1,0-.12v-.53l-.5-1.27-.5,1.27V115a.17.17,0,0,1,0,.12.16.16,0,0,1-.23,0A.16.16,0,0,1,259.5,115Z" style="fill: #f2f2f2"/>
        <path d="M258.38,115.18h-.85a.43.43,0,0,1-.3-.13.42.42,0,0,1-.14-.32.16.16,0,0,1,0-.12.16.16,0,0,1,.11,0,.14.14,0,0,1,.12,0,.41.41,0,0,1,.06.14.12.12,0,0,0,.13.1h.81s.06,0,.06,0a.08.08,0,0,0,0-.05l-1.22-1.56a.39.39,0,0,1-.09-.24.36.36,0,0,1,.11-.26.32.32,0,0,1,.24-.11h.88a.41.41,0,0,1,.31.13.41.41,0,0,1,.13.29c0,.12-.06.18-.17.18a.16.16,0,0,1-.16-.16.12.12,0,0,0,0-.09.13.13,0,0,0-.09,0h-.82s-.05,0-.05,0a.08.08,0,0,0,0,.05l1.22,1.56a.39.39,0,0,1,.09.24.36.36,0,0,1-.11.26A.36.36,0,0,1,258.38,115.18Z" style="fill: #f2f2f2"/>
        <path d="M256,115.18h-.85a.43.43,0,0,1-.3-.13.42.42,0,0,1-.14-.32.16.16,0,0,1,0-.12.16.16,0,0,1,.11,0,.14.14,0,0,1,.12,0,.41.41,0,0,1,.06.14.12.12,0,0,0,.13.1h.81s.06,0,.06,0a.08.08,0,0,0,0-.05l-1.22-1.56a.39.39,0,0,1-.09-.24.36.36,0,0,1,.11-.26.32.32,0,0,1,.24-.11h.88a.41.41,0,0,1,.31.13.41.41,0,0,1,.13.29c0,.12-.06.18-.17.18A.16.16,0,0,1,256,113a.12.12,0,0,0,0-.09.13.13,0,0,0-.09,0h-.82s-.05,0-.05,0a.08.08,0,0,0,0,.05l1.22,1.56a.39.39,0,0,1,.09.24.36.36,0,0,1-.11.26A.36.36,0,0,1,256,115.18Z" style="fill: #f2f2f2"/>
      </g>
    </g>
  </g>
  <g data-name="Layer 10" id="Layer_10">
    <polygon points="255.42 138.37 256.95 136.94 261.19 136.94 262.62 138.37 262.62 142.6 261.19 144.14 256.95 144.14 255.42 142.6 255.42 138.37" style="fill: #323232"/>
    <polygon points="278.65 139.29 278.65 139.29 277.51 140.42 278.65 141.55 278.65 141.55 278.65 139.29" style="fill: #e9e9ea"/>
    <polygon points="276.39 139.29 276.39 139.29 277.52 140.43 276.39 141.56 276.39 141.56 276.39 139.29" style="fill: #b0acb0"/>
    <polygon points="278.65 141.56 278.65 141.56 277.52 140.42 276.39 141.55 276.39 141.56 278.65 141.56" style="fill: #d3d1d3"/>
    <polygon points="278.65 139.29 278.65 139.29 277.51 140.43 276.38 139.3 276.38 139.29 278.65 139.29" style="fill: #989498"/>
    <rect height="2.27" style="fill: #b0acb0" width="17.37" x="259.02" y="139.29"/>
    <polygon points="255.42 131.17 256.95 129.74 261.19 129.74 262.62 131.17 262.62 135.4 261.19 136.94 256.95 136.94 255.42 135.4 255.42 131.17" style="fill: #323232"/>
    <polygon points="278.65 132.09 278.65 132.09 277.51 133.22 278.65 134.35 278.65 134.35 278.65 132.09" style="fill: #e9e9ea"/>
    <polygon points="276.39 132.09 276.39 132.09 277.52 133.23 276.39 134.36 276.39 134.36 276.39 132.09" style="fill: #b0acb0"/>
    <polygon points="278.65 134.36 278.65 134.36 277.52 133.22 276.39 134.35 276.39 134.36 278.65 134.36" style="fill: #d3d1d3"/>
    <polygon points="278.65 132.09 278.65 132.09 277.51 133.23 276.38 132.1 276.38 132.09 278.65 132.09" style="fill: #989498"/>
    <rect height="2.27" style="fill: #b0acb0" width="17.37" x="259.02" y="132.09"/>
    <polygon points="255.42 145.57 256.95 144.14 261.19 144.14 262.62 145.57 262.62 149.8 261.19 151.34 256.95 151.34 255.42 149.8 255.42 145.57" style="fill: #323232"/>
    <polygon points="278.65 146.49 278.64 146.49 277.51 147.62 278.64 148.75 278.65 148.75 278.65 146.49" style="fill: #e9e9ea"/>
    <polygon points="276.38 146.49 276.38 146.49 277.52 147.63 276.39 148.76 276.38 148.76 276.38 146.49" style="fill: #b0acb0"/>
    <polygon points="278.65 148.76 278.65 148.76 277.51 147.62 276.38 148.75 276.38 148.76 278.65 148.76" style="fill: #d3d1d3"/>
    <polygon points="278.64 146.49 278.64 146.49 277.51 147.63 276.38 146.5 276.38 146.49 278.64 146.49" style="fill: #989498"/>
    <rect height="2.27" style="fill: #b0acb0" width="17.37" x="259.02" y="146.49"/>
    <polygon points="255.42 152.77 256.95 151.34 261.19 151.34 262.62 152.77 262.62 157 261.19 158.54 256.95 158.54 255.42 157 255.42 152.77" style="fill: #323232"/>
    <polygon points="278.65 153.69 278.64 153.69 277.51 154.82 278.64 155.95 278.65 155.95 278.65 153.69" style="fill: #e9e9ea"/>
    <polygon points="276.38 153.69 276.38 153.69 277.52 154.83 276.39 155.96 276.38 155.96 276.38 153.69" style="fill: #b0acb0"/>
    <polygon points="278.65 155.96 278.65 155.96 277.51 154.82 276.38 155.95 276.38 155.96 278.65 155.96" style="fill: #d3d1d3"/>
    <polygon points="278.64 153.69 278.64 153.69 277.51 154.83 276.38 153.7 276.38 153.69 278.64 153.69" style="fill: #989498"/>
    <rect height="2.27" style="fill: #b0acb0" width="17.37" x="259.02" y="153.69"/>
  </g>
  <g id="Connectors">
    <rect data-cir-type="male" height="1.13" id="circuitoCon_SDA" style="fill: #c0bec2" width="1.13" x="276.95" y="147.06"/>
    <rect data-cir-type="male" height="1.13" id="circuitoCon_GND" style="fill: #c0bec2" width="1.13" x="276.95" y="132.66"/>
    <rect data-cir-type="male" height="1.13" id="circuitoCon_SCL" style="fill: #c0bec2" width="1.13" x="276.95" y="154.25"/>
    <rect data-cir-type="male" height="1.13" id="circuitoCon_VCC" style="fill: #c0bec2" width="1.13" x="276.95" y="139.86"/>
  </g>
</svg>