<?xml version="1.0" ?><svg height="47.14mm" viewBox="0 0 42.09 133.63" width="14.85mm" xmlns="http://www.w3.org/2000/svg">
  <title>IR  Obstacle Avoidance Sensor gata</title>
  <g data-name="Layer 8" id="Layer_8">
    <path d="M0,25.93v93.33H42.09V25.93Zm20.74,74.42a4.82,4.82,0,1,1,4.83-4.82A4.82,4.82,0,0,1,20.74,100.35Z" style="fill: #1a2c80"/>
  </g>
  <g id="circuit">
    <line style="fill: none;stroke: #0b5597;stroke-miterlimit: 10" x1="5.04" x2="5.04" y1="32.26" y2="47.26"/>
    <polyline points="3.67 59.14 3.67 52.76 11.92 44.51 21.54 44.51 21.54 51.83 28.79 51.83 28.79 44.51 36.79 44.51 36.79 62.14" style="fill: none;stroke: #0b5597;stroke-miterlimit: 10;stroke-width: 1.2000000000000002px"/>
    <polyline points="14.73 78.26 14.73 85.01 6.07 93.67 6.07 100.58 10.78 105.28 31.73 105.28 35.39 101.61 35.39 78.7" style="fill: none;stroke: #0b5597;stroke-miterlimit: 10"/>
    <path d="M2.1,81.57v36.5H9.67v-8.94h2.63v2.44H15.6v-2.44H18l1,3.06h4.89l-1-3.31h1.74l.84-.84v-1H10.23L8.11,104.9H5.35l-.79-.79V83.85h1.5V87.9A.91.91,0,0,0,7,88.8H7a1,1,0,0,0,1-1v-6Z" style="fill: #0b5597"/>
    <line style="fill: none;stroke: #0b5597;stroke-miterlimit: 10" x1="7.35" x2="13.77" y1="56.95" y2="50.54"/>
    <polygon points="9.29 27.95 39.73 27.95 39.73 40.83 37.57 42.98 35.92 42.98 32.1 42.98 32.1 40.7 25.54 40.7 25.54 47.95 23.67 47.95 23.67 40.76 7.35 40.76 7.35 30.07 9.29 27.95" style="fill: #0b5597"/>
    <path d="M34.68,60.7V50.95H25.25l-7,7L18.12,76.7l-1.5,4.25V86.7L9.87,93.45v7l2.44,2.44H32.56V89.79h.38V86.89H25.56V60.7Zm-8.6,34.75a5.37,5.37,0,1,1-5.37-5.37A5.37,5.37,0,0,1,26.08,95.45Z" style="fill: #0b5597"/>
    <circle cx="20.42" cy="95.01" r="4.96" style="fill: none"/>
    <polyline points="17.08 44.51 17.08 54.89 17.08 55.85 15.26 57.67" style="fill: none;stroke: #0b5597;stroke-miterlimit: 10;stroke-width: 1.2000000000000002px"/>
  </g>
  <g id="white">
    <rect height="7.92" style="fill: none;stroke: #fff;stroke-miterlimit: 10;stroke-width: 0.75px" width="7.31" x="2.94" y="28.01"/>
    <rect height="7.92" style="fill: none;stroke: #fff;stroke-miterlimit: 10;stroke-width: 0.75px" width="7.31" x="10.28" y="28.01"/>
    <rect height="7.92" style="fill: none;stroke: #fff;stroke-miterlimit: 10;stroke-width: 0.75px" width="7.31" x="25.38" y="28.01"/>
    <rect height="7.92" style="fill: none;stroke: #fff;stroke-miterlimit: 10;stroke-width: 0.75px" width="7.31" x="32.71" y="28.01"/>
    <polyline points="1.75 46.68 1.75 40.76 8.63 40.76 8.63 46.68" style="fill: none;stroke: #fff;stroke-miterlimit: 10;stroke-width: 0.736973851919174px"/>
    <polyline points="1.75 49.6 1.75 55.26 8.63 55.26 8.63 49.6" style="fill: none;stroke: #fff;stroke-miterlimit: 10;stroke-width: 0.736973851919174px"/>
    <polyline points="8.54 86.85 2.62 86.85 2.62 79.96 8.54 79.96" style="fill: none;stroke: #fff;stroke-miterlimit: 10;stroke-width: 0.736973851919174px"/>
    <polyline points="11.46 86.85 17.12 86.85 17.12 79.96 11.46 79.96" style="fill: none;stroke: #fff;stroke-miterlimit: 10;stroke-width: 0.736973851919174px"/>
    <polyline points="31.13 86.85 25.21 86.85 25.21 79.96 31.13 79.96" style="fill: none;stroke: #fff;stroke-miterlimit: 10;stroke-width: 0.736973851919174px"/>
    <polyline points="34.05 86.85 39.71 86.85 39.71 79.96 34.05 79.96" style="fill: none;stroke: #fff;stroke-miterlimit: 10;stroke-width: 0.736973851919174px"/>
    <polyline points="9.88 46.68 9.88 40.76 16.76 40.76 16.76 46.68" style="fill: none;stroke: #fff;stroke-miterlimit: 10;stroke-width: 0.736973851919174px"/>
    <polyline points="9.88 49.6 9.88 55.26 16.76 55.26 16.76 49.6" style="fill: none;stroke: #fff;stroke-miterlimit: 10;stroke-width: 0.736973851919174px"/>
    <polyline points="17.94 46.68 17.94 40.76 24.82 40.76 24.82 46.68" style="fill: none;stroke: #fff;stroke-miterlimit: 10;stroke-width: 0.736973851919174px"/>
    <polyline points="17.94 49.6 17.94 55.26 24.82 55.26 24.82 49.6" style="fill: none;stroke: #fff;stroke-miterlimit: 10;stroke-width: 0.736973851919174px"/>
    <path d="M25.82,46.52v-2.6a3.62,3.62,0,0,1,3.62-3.62h0a3.62,3.62,0,0,1,3.62,3.62v2.6" style="fill: none;stroke: #fff;stroke-miterlimit: 10;stroke-width: 0.775093231499746px"/>
    <path d="M25.82,49.59v2.34a3.62,3.62,0,0,0,3.62,3.62h0a3.62,3.62,0,0,0,3.62-3.62V49.59" style="fill: none;stroke: #fff;stroke-miterlimit: 10;stroke-width: 0.775093231499746px"/>
    <path d="M34.15,46.52v-2.6a3.62,3.62,0,0,1,3.62-3.62h0a3.62,3.62,0,0,1,3.62,3.62v2.6" style="fill: none;stroke: #fff;stroke-miterlimit: 10;stroke-width: 0.775093231499746px"/>
    <path d="M34.15,49.59v2.34a3.62,3.62,0,0,0,3.62,3.62h0a3.62,3.62,0,0,0,3.62-3.62V49.59" style="fill: none;stroke: #fff;stroke-miterlimit: 10;stroke-width: 0.775093231499746px"/>
    <polyline points="9.54 97.95 9.54 103.51 2.79 103.51 2.79 97.95" style="fill: none;stroke: #fff;stroke-miterlimit: 10;stroke-width: 0.775093231499746px"/>
    <polyline points="9.54 95.51 9.54 91.33 7.79 89.58 4.85 89.58 2.88 91.54 2.88 95.51" style="fill: none;stroke: #fff;stroke-miterlimit: 10;stroke-width: 0.775093231499746px"/>
    <polyline points="38.85 97.95 38.85 103.51 32.1 103.51 32.1 97.95" style="fill: none;stroke: #fff;stroke-miterlimit: 10;stroke-width: 0.775093231499746px"/>
    <polyline points="38.85 95.51 38.85 91.33 37.1 89.58 34.16 89.58 32.2 91.54 32.2 95.51" style="fill: none;stroke: #fff;stroke-miterlimit: 10;stroke-width: 0.775093231499746px"/>
    <rect height="21.49" style="fill: none;stroke: #fff;stroke-miterlimit: 10;stroke-width: 0.5px" width="21.49" x="19.58" y="57.53"/>
    <rect height="8.17" style="fill: none;stroke: #fff;stroke-miterlimit: 10;stroke-width: 0.510807417516124px" width="23.5" x="9.54" y="109.73"/>
  </g>
  <g id="chip">
    <rect height="12.37" style="fill: #42444a" transform="translate(-36.66 100.78) rotate(-90)" width="12.37" x="25.87" y="62.53"/>
    <rect height="8.72" style="fill: #645d63" width="1.85" x="31.32" y="65.43"/>
    <rect height="8.85" style="fill: #9e9ea9" transform="translate(-47.09 100.02) rotate(-90)" width="8.85" x="22.04" y="69.13"/>
    <rect height="8.85" style="fill: #9e9ea9" transform="translate(-35.81 88.74) rotate(-90)" width="8.85" x="22.04" y="57.85"/>
    <rect height="8.85" style="fill: #9e9ea9" transform="translate(-24.81 99.74) rotate(-90)" width="8.85" x="33.04" y="57.85"/>
    <rect height="8.85" style="fill: #9e9ea9" transform="translate(-36.08 111.01) rotate(-90)" width="8.85" x="33.04" y="69.12"/>
    <circle cx="29.65" cy="65.39" r="0.56" style="fill: #42444a"/>
    <circle cx="29.65" cy="70.68" r="0.56" style="fill: #42444a"/>
    <g>
      <path d="M21.09,78.24h21V57.53h-21ZM36,67.7a4.45,4.45,0,1,1-4.45-4.45A4.45,4.45,0,0,1,36,67.7Z" style="fill: #4377b5"/>
      <g>
        <g>
          <circle cx="31.72" cy="68.51" r="5.04" style="fill: none;stroke: #306baf;stroke-miterlimit: 10;stroke-width: 1.0565281475777px"/>
          <line style="fill: none;stroke: #306baf;stroke-linecap: round;stroke-miterlimit: 10;stroke-width: 1.0565281475777px" x1="26.4" x2="23.62" y1="68.68" y2="68.68"/>
          <line style="fill: none;stroke: #306baf;stroke-linecap: round;stroke-miterlimit: 10;stroke-width: 1.0565281475777px" x1="35.59" x2="37.62" y1="64.99" y2="62.96"/>
          <line style="fill: none;stroke: #306baf;stroke-linecap: round;stroke-miterlimit: 10;stroke-width: 1.0565281475777px" x1="33.44" x2="33.96" y1="63.86" y2="62.29"/>
          <line style="fill: none;stroke: #306baf;stroke-linecap: round;stroke-miterlimit: 10;stroke-width: 1.0565281475777px" x1="27.21" x2="25.83" y1="66.26" y2="65.44"/>
          <line style="fill: none;stroke: #306baf;stroke-linecap: round;stroke-miterlimit: 10;stroke-width: 1.0565281475777px" x1="29.03" x2="27.88" y1="64.25" y2="63.11"/>
          <line style="fill: none;stroke: #306baf;stroke-linecap: round;stroke-miterlimit: 10;stroke-width: 1.0565281475777px" x1="30.89" x2="30.89" y1="63.54" y2="61.88"/>
          <line style="fill: none;stroke: #306baf;stroke-linecap: round;stroke-miterlimit: 10;stroke-width: 1.0565281475777px" x1="33.16" x2="33.68" y1="73.34" y2="74.91"/>
          <line style="fill: none;stroke: #306baf;stroke-linecap: round;stroke-miterlimit: 10;stroke-width: 1.0565281475777px" x1="26.91" x2="25.53" y1="70.87" y2="71.69"/>
          <line style="fill: none;stroke: #306baf;stroke-linecap: round;stroke-miterlimit: 10;stroke-width: 1.0565281475777px" x1="28.73" x2="27.58" y1="72.88" y2="74.02"/>
          <line style="fill: none;stroke: #306baf;stroke-linecap: round;stroke-miterlimit: 10;stroke-width: 1.0565281475777px" x1="30.6" x2="30.6" y1="73.59" y2="75.25"/>
          <line style="fill: none;stroke: #306baf;stroke-linecap: round;stroke-miterlimit: 10;stroke-width: 1.0565281475777px" x1="35.14" x2="36.29" y1="72.21" y2="73.36"/>
        </g>
        <path d="M38.82,77.76l-.09-.19-.11-.19-.12-.18L38.37,77V76.7h2.2v.47H39a1.4,1.4,0,0,1,.12.21c0,.08.06.15.09.23Z" style="fill: #306baf"/>
        <path d="M40.75,61.21a1.49,1.49,0,0,1,0,.18,1.76,1.76,0,0,1,0,.18c0,.06,0,.11,0,.16l0,.11-.39-.09c0-.05,0-.12.07-.21a1.1,1.1,0,0,0,0-.32.5.5,0,0,0-.08-.32.3.3,0,0,0-.37-.07.28.28,0,0,0-.09.1.45.45,0,0,0-.05.15,1.1,1.1,0,0,0,0,.18v.18h-.38v-.21a.69.69,0,0,0,0-.13.36.36,0,0,0,0-.12.23.23,0,0,0-.08-.08.27.27,0,0,0-.13,0l-.1,0-.07.07a.29.29,0,0,0,0,.09.44.44,0,0,0,0,.11.75.75,0,0,0,0,.25,1.05,1.05,0,0,0,.1.21l-.35.17-.07-.12a1.12,1.12,0,0,1-.06-.15,1.49,1.49,0,0,1,0-.18,1,1,0,0,1,0-.2,1.1,1.1,0,0,1,0-.33.62.62,0,0,1,.13-.23.53.53,0,0,1,.2-.14.66.66,0,0,1,.25,0,.49.49,0,0,1,.25.07.47.47,0,0,1,.19.2.55.55,0,0,1,.54-.36.75.75,0,0,1,.28.05.58.58,0,0,1,.22.16.78.78,0,0,1,.15.27A1.31,1.31,0,0,1,40.75,61.21Z" style="fill: #306baf"/>
        <g>
          <path d="M40.62,72.74q0,.12,0,.25c0,.09,0,.18,0,.26s0,.16,0,.23,0,.12,0,.16L40,73.52c0-.08.05-.18.08-.3a2,2,0,0,0,0-.45.86.86,0,0,0-.09-.45.28.28,0,0,0-.25-.14.25.25,0,0,0-.16.05.38.38,0,0,0-.11.14.74.74,0,0,0-.06.21,2,2,0,0,0,0,.26v.26h-.42v-.3a1.21,1.21,0,0,0,0-.19.61.61,0,0,0,0-.16.29.29,0,0,0-.09-.11.24.24,0,0,0-.15,0,.19.19,0,0,0-.12,0,.3.3,0,0,0-.08.09.49.49,0,0,0,0,.13.69.69,0,0,0,0,.15,1.33,1.33,0,0,0,0,.36,1.69,1.69,0,0,0,.11.3l-.39.24-.07-.17a1.81,1.81,0,0,1-.07-.21,2.4,2.4,0,0,1-.05-.25,1.71,1.71,0,0,1,0-.28,1.91,1.91,0,0,1,.05-.47,1,1,0,0,1,.14-.33.61.61,0,0,1,.22-.19.6.6,0,0,1,.27-.06.46.46,0,0,1,.28.1.65.65,0,0,1,.21.28.8.8,0,0,1,.23-.37.55.55,0,0,1,.37-.13.69.69,0,0,1,.31.07.66.66,0,0,1,.25.22,1.18,1.18,0,0,1,.16.39A2.39,2.39,0,0,1,40.62,72.74Z" style="fill: #306baf"/>
          <path d="M40.62,70.2q0,.12,0,.25c0,.09,0,.18,0,.26s0,.16,0,.23,0,.12,0,.16L40,71c0-.08.05-.18.08-.3a2,2,0,0,0,0-.45.86.86,0,0,0-.09-.45.28.28,0,0,0-.25-.14.25.25,0,0,0-.16.05.38.38,0,0,0-.11.14.74.74,0,0,0-.06.21,2,2,0,0,0,0,.26v.26h-.42v-.3a1.21,1.21,0,0,0,0-.19.61.61,0,0,0,0-.16.29.29,0,0,0-.09-.11.24.24,0,0,0-.15,0,.19.19,0,0,0-.12,0,.3.3,0,0,0-.08.09.49.49,0,0,0,0,.13.69.69,0,0,0,0,.15,1.33,1.33,0,0,0,0,.36,1.69,1.69,0,0,0,.11.3l-.39.24-.07-.17a1.81,1.81,0,0,1-.07-.21,2.4,2.4,0,0,1-.05-.25,1.71,1.71,0,0,1,0-.28,1.91,1.91,0,0,1,.05-.47,1,1,0,0,1,.14-.33.61.61,0,0,1,.22-.19.6.6,0,0,1,.27-.06.46.46,0,0,1,.28.1.65.65,0,0,1,.21.28.8.8,0,0,1,.23-.37.55.55,0,0,1,.37-.13.69.69,0,0,1,.31.07.66.66,0,0,1,.25.22,1.18,1.18,0,0,1,.16.39A2.39,2.39,0,0,1,40.62,70.2Z" style="fill: #306baf"/>
          <path d="M39,67.36a1.73,1.73,0,0,1,.06-.5,1,1,0,0,1,.17-.33.63.63,0,0,1,.25-.19.8.8,0,0,1,.3-.06.72.72,0,0,1,.29.06.8.8,0,0,1,.27.2,1.06,1.06,0,0,1,.2.34,1.36,1.36,0,0,1,.08.48,1.18,1.18,0,0,1-.28.85,1,1,0,0,1-.77.29,1.36,1.36,0,0,1-.63-.14,1.28,1.28,0,0,1-.46-.4,1.92,1.92,0,0,1-.28-.62,3.3,3.3,0,0,1-.1-.82l.21,0,.22,0a3.22,3.22,0,0,0,0,.43,1.65,1.65,0,0,0,.09.36,1,1,0,0,0,.17.28.68.68,0,0,0,.25.19,1,1,0,0,1,0-.2A1.38,1.38,0,0,1,39,67.36Zm.41.08a1.8,1.8,0,0,0,0,.21.76.76,0,0,0,0,.17h.09l.24,0a.58.58,0,0,0,.2-.08.38.38,0,0,0,.13-.14.47.47,0,0,0,0-.22.45.45,0,0,0,0-.19A.4.4,0,0,0,40,67a.38.38,0,0,0-.13-.08l-.13,0a.34.34,0,0,0-.28.11A.59.59,0,0,0,39.41,67.44Z" style="fill: #306baf"/>
          <path d="M38.76,63.91A.55.55,0,0,1,39,64a1.21,1.21,0,0,1,.24.17,2.22,2.22,0,0,1,.22.24l.2.26.11.15.13.15.12.13.09.07V63.81h.44v2.07h-.18a.7.7,0,0,1-.31-.07,1.18,1.18,0,0,1-.26-.18,1.92,1.92,0,0,1-.23-.25l-.21-.28-.15-.2-.14-.17a.66.66,0,0,0-.14-.11.28.28,0,0,0-.14,0,.23.23,0,0,0-.22.11.55.55,0,0,0-.06.28.84.84,0,0,0,0,.23,1.35,1.35,0,0,0,.07.19l.08.15.07.09-.37.33a1.77,1.77,0,0,1-.24-.46,1.66,1.66,0,0,1-.09-.56,1.94,1.94,0,0,1,0-.47,1,1,0,0,1,.14-.33.56.56,0,0,1,.22-.19A.67.67,0,0,1,38.76,63.91Z" style="fill: #306baf"/>
        </g>
      </g>
      <path d="M40.67,59.44" style="fill: #306baf;stroke: #306baf;stroke-linecap: round;stroke-miterlimit: 10;stroke-width: 0.52826407378885px"/>
      <path d="M40.67,78.22" style="fill: #306baf;stroke: #306baf;stroke-linecap: round;stroke-miterlimit: 10;stroke-width: 0.52826407378885px"/>
    </g>
    <rect height="2.42" style="fill: #645d63" width="1.52" x="28.46" y="66.69"/>
    <circle cx="36.44" cy="76.47" r="0.92" style="fill: #306baf"/>
    <circle cx="36.44" cy="76.47" r="0.65" style="fill: #9a9db2"/>
    <line style="fill: none;stroke: #6d6164;stroke-miterlimit: 10;stroke-width: 0.285201761893274px" x1="36.44" x2="36.44" y1="75.82" y2="76.47"/>
    <rect height="11.49" style="fill: #343236" width="14.16" x="2.6" y="63.22"/>
    <ellipse cx="4.05" cy="77.66" rx="0.96" ry="0.92" style="fill: #deddf1"/>
    <rect height="3.34" style="fill: #deddf1" width="1.17" x="3.49" y="74.32"/>
    <rect height="3.34" style="fill: #deddf1" width="1.17" x="3.49" y="59.86"/>
    <ellipse cx="7.92" cy="77.66" rx="0.96" ry="0.92" style="fill: #deddf1"/>
    <rect height="3.34" style="fill: #deddf1" width="1.17" x="7.36" y="74.32"/>
    <ellipse cx="11.68" cy="77.66" rx="0.96" ry="0.92" style="fill: #deddf1"/>
    <rect height="3.34" style="fill: #deddf1" width="1.17" x="11.12" y="74.32"/>
    <ellipse cx="15.54" cy="77.66" rx="0.96" ry="0.92" style="fill: #deddf1"/>
    <rect height="3.34" style="fill: #deddf1" width="1.17" x="14.99" y="74.32"/>
    <rect height="3.26" style="fill: #d6d6d8" width="1.91" x="3.1" y="56.6"/>
    <rect height="3.34" style="fill: #deddf1" width="1.17" x="7.34" y="59.86"/>
    <rect height="3.26" style="fill: #d6d6d8" width="1.91" x="6.94" y="56.6"/>
    <rect height="3.34" style="fill: #deddf1" width="1.17" x="14.8" y="59.86"/>
    <rect height="3.26" style="fill: #d6d6d8" width="1.91" x="14.4" y="56.6"/>
    <rect height="3.34" style="fill: #deddf1" width="1.17" x="11.02" y="59.86"/>
    <rect height="2.9" style="fill: #d6d6d8" width="1.91" x="10.63" y="56.95"/>
    <g>
      <path d="M8.56,67V65.31h.22v1.48H9.6V67Z"/>
      <path d="M9.85,67V65.31h.33l.39,1.19.08.25.09-.27.4-1.17h.3V67h-.21V65.58L10.75,67h-.2l-.48-1.43V67Z"/>
      <path d="M11.72,66.55l.21,0a.45.45,0,0,0,.12.25.29.29,0,0,0,.21.08.33.33,0,0,0,.24-.1.34.34,0,0,0,.1-.25.31.31,0,0,0-.33-.33l-.14,0,0-.18h0a.42.42,0,0,0,.24-.07.24.24,0,0,0,.1-.21.25.25,0,0,0-.08-.19.27.27,0,0,0-.2-.07.28.28,0,0,0-.2.08.38.38,0,0,0-.1.23l-.21,0a.53.53,0,0,1,.17-.32.49.49,0,0,1,.33-.11.55.55,0,0,1,.25.06.44.44,0,0,1,.18.16.42.42,0,0,1,.06.22.36.36,0,0,1-.06.2.4.4,0,0,1-.17.14.38.38,0,0,1,.23.14.44.44,0,0,1,.08.27.5.5,0,0,1-.16.37.56.56,0,0,1-.4.15.52.52,0,0,1-.36-.13A.51.51,0,0,1,11.72,66.55Z"/>
      <path d="M13,66.6l.2,0a.34.34,0,0,0,.1.2.26.26,0,0,0,.18.06.31.31,0,0,0,.17,0,.36.36,0,0,0,.12-.12.69.69,0,0,0,.08-.2,1.08,1.08,0,0,0,0-.25s0,0,0,0a.47.47,0,0,1-.17.16.45.45,0,0,1-.23.06.46.46,0,0,1-.35-.15.56.56,0,0,1-.14-.4.57.57,0,0,1,.15-.41.5.5,0,0,1,.38-.16.53.53,0,0,1,.3.09.55.55,0,0,1,.21.25,1.26,1.26,0,0,1,.07.47,1.53,1.53,0,0,1-.07.51.59.59,0,0,1-.21.29.53.53,0,0,1-.32.1.46.46,0,0,1-.32-.11A.47.47,0,0,1,13,66.6Zm.84-.74a.4.4,0,0,0-.09-.28.29.29,0,0,0-.23-.1.31.31,0,0,0-.24.11.42.42,0,0,0-.1.29.36.36,0,0,0,.1.26.31.31,0,0,0,.24.1.3.3,0,0,0,.23-.1A.4.4,0,0,0,13.88,65.86Z"/>
      <path d="M14.31,66.55l.21,0a.45.45,0,0,0,.12.25.29.29,0,0,0,.21.08.33.33,0,0,0,.24-.1.34.34,0,0,0,.1-.25.31.31,0,0,0-.33-.33l-.14,0,0-.18h0a.42.42,0,0,0,.24-.07.24.24,0,0,0,.1-.21.25.25,0,0,0-.08-.19.27.27,0,0,0-.2-.07.28.28,0,0,0-.2.08.38.38,0,0,0-.1.23l-.21,0a.53.53,0,0,1,.17-.32.49.49,0,0,1,.33-.11.55.55,0,0,1,.25.06.44.44,0,0,1,.18.16.42.42,0,0,1,.06.22.36.36,0,0,1-.06.2.4.4,0,0,1-.17.14.38.38,0,0,1,.23.14.44.44,0,0,1,.08.27.5.5,0,0,1-.16.37.56.56,0,0,1-.4.15.52.52,0,0,1-.36-.13A.51.51,0,0,1,14.31,66.55Z"/>
      <path d="M11.52,68.9a.39.39,0,0,1-.19-.13.35.35,0,0,1-.06-.21.41.41,0,0,1,.13-.31.55.55,0,0,1,.7,0,.41.41,0,0,1,.13.31.34.34,0,0,1-.06.2.38.38,0,0,1-.18.13.44.44,0,0,1,.23.16.45.45,0,0,1,.08.27.48.48,0,0,1-.15.36.61.61,0,0,1-.8,0,.49.49,0,0,1-.15-.37.45.45,0,0,1,.08-.27A.41.41,0,0,1,11.52,68.9Zm-.11.43a.37.37,0,0,0,0,.17.29.29,0,0,0,.12.13.36.36,0,0,0,.18,0,.33.33,0,0,0,.24-.1.32.32,0,0,0,.1-.24.34.34,0,0,0-.34-.34.32.32,0,0,0-.24.1A.33.33,0,0,0,11.41,69.32Zm.07-.78a.26.26,0,0,0,.08.19.29.29,0,0,0,.39,0,.25.25,0,0,0,.08-.18.26.26,0,0,0-.08-.19.26.26,0,0,0-.19-.08.27.27,0,0,0-.19.08A.25.25,0,0,0,11.48,68.55Z"/>
      <path d="M12.4,69.81,13,68.13h.24L14,69.81H13.7l-.19-.51h-.7l-.18.51Zm.48-.69h.57l-.17-.46c-.05-.14-.09-.26-.12-.35a2,2,0,0,1-.09.32Z"/>
      <path d="M14.12,69.81V68.13h.22V69l.83-.83h.3l-.7.68.73,1h-.29L14.62,69l-.27.27v.58Z"/>
      <path d="M8.09,72.62v-.71l-.64-1h.27l.33.51.17.28.18-.3.32-.49H9l-.67,1v.71Z"/>
      <path d="M9.17,72.62V70.94h.57a1.34,1.34,0,0,1,.3,0,.55.55,0,0,1,.24.12.68.68,0,0,1,.2.29,1.13,1.13,0,0,1,.07.4,1.2,1.2,0,0,1,0,.34.82.82,0,0,1-.11.24.61.61,0,0,1-.15.15.62.62,0,0,1-.2.08,1.15,1.15,0,0,1-.27,0Zm.22-.2h.36a.86.86,0,0,0,.26,0,.37.37,0,0,0,.15-.09.52.52,0,0,0,.12-.21,1,1,0,0,0,0-.32.79.79,0,0,0-.09-.41.43.43,0,0,0-.21-.19.87.87,0,0,0-.29,0H9.39Z"/>
      <path d="M11.54,72.62h-.2V71.31a1.08,1.08,0,0,1-.19.14l-.21.11v-.2a1.26,1.26,0,0,0,.3-.2.76.76,0,0,0,.18-.22h.13Z"/>
      <path d="M12.66,72.62h-.2V71.31a1.08,1.08,0,0,1-.19.14l-.21.11v-.2a1.26,1.26,0,0,0,.3-.2.76.76,0,0,0,.18-.22h.13Z"/>
      <path d="M13.78,72.62h-.2V71.31a1.08,1.08,0,0,1-.19.14l-.21.11v-.2a1.26,1.26,0,0,0,.3-.2.76.76,0,0,0,.18-.22h.13Z"/>
      <path d="M14.62,71.71a.39.39,0,0,1-.19-.13.35.35,0,0,1-.06-.21.41.41,0,0,1,.13-.31.55.55,0,0,1,.7,0,.41.41,0,0,1,.13.31.34.34,0,0,1-.06.2.38.38,0,0,1-.18.13.44.44,0,0,1,.23.16.45.45,0,0,1,.08.27.48.48,0,0,1-.15.36.61.61,0,0,1-.8,0,.49.49,0,0,1-.15-.37.45.45,0,0,1,.08-.27A.41.41,0,0,1,14.62,71.71Zm-.11.43a.37.37,0,0,0,0,.17.29.29,0,0,0,.12.13.36.36,0,0,0,.18,0,.33.33,0,0,0,.24-.1.32.32,0,0,0,.1-.24.34.34,0,0,0-.34-.34.32.32,0,0,0-.24.1A.33.33,0,0,0,14.52,72.14Zm.07-.78a.26.26,0,0,0,.08.19.29.29,0,0,0,.39,0,.25.25,0,0,0,.08-.18.26.26,0,0,0-.08-.19.26.26,0,0,0-.19-.08.27.27,0,0,0-.19.08A.25.25,0,0,0,14.58,71.36Z"/>
    </g>
    <g>
      <rect height="10.75" style="fill: #ccc" width="4" x="4.43" y="91.25"/>
      <polygon points="4.85 93.8 5.99 93.8 6.55 94.3 7 93.85 8.12 93.85 8.12 99.73 6.94 99.73 6.5 99.28 5.92 99.86 4.85 99.86 4.85 93.8" style="fill: #ffe9ab"/>
      <circle cx="6.43" cy="96.83" r="0.61" style="fill: #ccc"/>
    </g>
    <g>
      <rect height="10.75" style="fill: #ccc" width="4" x="33.66" y="91.25"/>
      <polygon points="34.08 93.8 35.22 93.8 35.78 94.3 36.23 93.85 37.34 93.85 37.34 99.73 36.17 99.73 35.72 99.28 35.15 99.86 34.08 99.86 34.08 93.8" style="fill: #b7b7b7"/>
      <circle cx="35.66" cy="96.83" r="0.61" style="fill: #ccc"/>
    </g>
    <g>
      <g>
        <rect height="2.84" rx="0.47" ry="0.47" style="fill: #e7e6e8" transform="translate(111.87 54.76) rotate(90)" width="4.33" x="26.39" y="81.89"/>
        <rect height="3.46" rx="0.82" ry="0.82" style="fill: #e7e6e8" transform="translate(119.82 46.81) rotate(90)" width="4.26" x="34.38" y="81.58"/>
        <rect height="5.79" rx="1.04" ry="1.04" style="fill: #e7e6e8" transform="translate(115.92 51.11) rotate(90)" width="3.54" x="30.63" y="80.62"/>
      </g>
      <rect height="3.03" style="fill: #2a292d" transform="translate(64.8 167.03) rotate(180)" width="4.42" x="30.19" y="82"/>
      <g>
        <path d="M31.21,83.32v-.2l.25-.23h.15V84h-.14v-.93Z" style="fill: #fbfcfe"/>
        <path d="M32.77,83a1.37,1.37,0,0,1,0,.39,1,1,0,0,1-.1.52.34.34,0,0,1-.24.07.35.35,0,0,1-.24-.07,1,1,0,0,1-.1-.52,1.34,1.34,0,0,1,0-.39c0-.15.16-.17.29-.17S32.72,82.9,32.77,83Zm-.47.1a2.31,2.31,0,0,0,0,.31,1.19,1.19,0,0,0,0,.39s.1,0,.15,0,.13,0,.15,0a1.22,1.22,0,0,0,0-.39,2.48,2.48,0,0,0,0-.31c0-.12-.07-.12-.18-.12S32.32,83,32.3,83.15Z" style="fill: #fbfcfe"/>
        <path d="M33.76,83.87V84h-.6v-.08a.52.52,0,0,1,.28-.5c.08-.05.19-.12.19-.23a.17.17,0,0,0-.16-.17.53.53,0,0,0-.3.12V83a.44.44,0,0,1,.27-.09.29.29,0,0,1,.32.31c0,.2-.13.28-.27.38a.38.38,0,0,0-.2.28v0Z" style="fill: #fbfcfe"/>
      </g>
    </g>
    <g>
      <rect height="2.84" rx="0.47" ry="0.47" style="fill: #e7e6e8" width="4.33" x="11.3" y="50.9"/>
      <rect height="3.46" rx="0.82" ry="0.82" style="fill: #e7e6e8" width="4.26" x="11.34" y="42.64"/>
      <rect height="5.79" rx="1.04" ry="1.04" style="fill: #e7e6e8" width="3.54" x="11.9" y="45.58"/>
    </g>
    <rect height="3.03" style="fill: #2a292d" transform="translate(62.14 34.8) rotate(90)" width="4.42" x="11.46" y="46.96"/>
    <g>
      <path d="M13.47,49.67h-.2l-.23-.25v-.15h1.11v.14h-.93Z" style="fill: #fbfcfe"/>
      <path d="M13.2,48.1a1.37,1.37,0,0,1,.39,0,1,1,0,0,1,.52.1.34.34,0,0,1,.07.24.35.35,0,0,1-.07.24,1,1,0,0,1-.52.1,1.34,1.34,0,0,1-.39,0c-.15,0-.17-.16-.17-.29S13,48.15,13.2,48.1Zm.1.47h.31a1.19,1.19,0,0,0,.39,0s0-.1,0-.15,0-.12,0-.15a1.22,1.22,0,0,0-.39,0l-.31,0c-.12,0-.12.07-.12.18S13.18,48.56,13.3,48.57Z" style="fill: #fbfcfe"/>
      <path d="M13.21,47.11l.28.25a.3.3,0,0,1,.33-.29.35.35,0,0,1,.36.39.6.6,0,0,1-.07.26H14a.43.43,0,0,0,.08-.26c0-.13-.06-.25-.22-.25s-.21.11-.21.23v.11h-.12l-.29-.26v.43h-.14v-.61Z" style="fill: #fbfcfe"/>
    </g>
    <g>
      <rect height="2.84" rx="0.47" ry="0.47" style="fill: #e7e6e8" width="4.33" x="3.02" y="50.77"/>
      <rect height="3.46" rx="0.82" ry="0.82" style="fill: #e7e6e8" width="4.26" x="3.06" y="42.51"/>
      <rect height="5.79" rx="1.04" ry="1.04" style="fill: #e7e6e8" width="3.54" x="3.62" y="45.45"/>
    </g>
    <rect height="3.03" style="fill: #2a292d" transform="translate(53.74 42.96) rotate(90)" width="4.42" x="3.18" y="46.83"/>
    <g>
      <path d="M5.2,49.54H5l-.23-.25v-.15H5.89v.14H5Z" style="fill: #fbfcfe"/>
      <path d="M5,48a.32.32,0,0,1,.26.17.35.35,0,0,1,.33-.21c.23,0,.31.15.31.34s-.08.34-.31.34a.35.35,0,0,1-.33-.21.32.32,0,0,1-.26.17c-.18,0-.25-.16-.25-.3S4.82,48,5,48Zm0,.45c.09,0,.15-.09.17-.16s-.09-.16-.17-.16-.12.09-.12.16S4.92,48.43,5,48.43Zm.56-.35c-.12,0-.17.1-.23.19s.11.19.23.19a.2.2,0,0,0,0-.39Z" style="fill: #fbfcfe"/>
      <path d="M5.2,47.54H5l-.23-.25v-.15H5.89v.14H5Z" style="fill: #fbfcfe"/>
    </g>
    <g>
      <g>
        <rect height="2.84" rx="0.47" ry="0.47" style="fill: #e7e6e8" transform="translate(42.87 88.12) rotate(180)" width="4.33" x="19.27" y="42.64"/>
        <rect height="3.46" rx="0.82" ry="0.82" style="fill: #e7e6e8" transform="translate(42.87 104.02) rotate(180)" width="4.26" x="19.31" y="50.28"/>
        <rect height="5.79" rx="1.04" ry="1.04" style="fill: #e7e6e8" transform="translate(42.47 95.81) rotate(180)" width="3.54" x="19.46" y="45.01"/>
      </g>
      <rect height="3.03" style="fill: #2a292d" transform="translate(-26.67 69.14) rotate(-90)" width="4.42" x="19.03" y="46.39"/>
      <g>
        <path d="M21.43,46.71h.2l.23.25v.15H20.74V47h.93Z" style="fill: #fbfcfe"/>
        <path d="M21.7,48.27a1.37,1.37,0,0,1-.39,0,1,1,0,0,1-.52-.1.34.34,0,0,1-.07-.24.35.35,0,0,1,.07-.24,1,1,0,0,1,.52-.1,1.34,1.34,0,0,1,.39,0c.15,0,.17.16.17.29S21.86,48.23,21.7,48.27Zm-.1-.47H21.3a1.19,1.19,0,0,0-.39,0s0,.1,0,.15,0,.13,0,.15a1.22,1.22,0,0,0,.39,0l.31,0c.12,0,.12-.07.12-.18S21.72,47.82,21.61,47.8Z" style="fill: #fbfcfe"/>
        <path d="M21.7,49.26,21.42,49a.3.3,0,0,1-.33.29.35.35,0,0,1-.36-.39.6.6,0,0,1,.07-.26h.16a.43.43,0,0,0-.08.26c0,.13.06.25.22.25s.21-.11.21-.23v-.11h.12l.29.26v-.43h.14v.61Z" style="fill: #fbfcfe"/>
      </g>
    </g>
    <g>
      <g>
        <rect height="2.84" rx="0.47" ry="0.47" style="fill: #e7e6e8" transform="translate(-69.81 97.24) rotate(-90)" width="4.33" x="11.55" y="82.1"/>
        <rect height="3.46" rx="0.82" ry="0.82" style="fill: #e7e6e8" transform="translate(89.28 77.76) rotate(90)" width="4.26" x="3.63" y="81.79"/>
        <rect height="5.79" rx="1.04" ry="1.04" style="fill: #e7e6e8" transform="translate(-73.45 93.19) rotate(-90)" width="3.54" x="8.1" y="80.43"/>
      </g>
      <rect height="3.03" style="fill: #2a292d" width="4.42" x="7.66" y="81.81"/>
      <g>
        <path d="M11.06,83.51v.2l-.25.23h-.15V82.82h.14v.93Z" style="fill: #fbfcfe"/>
        <path d="M9.5,83.79a1.37,1.37,0,0,1,0-.39,1,1,0,0,1,.1-.52.34.34,0,0,1,.24-.07.35.35,0,0,1,.24.07,1,1,0,0,1,.1.52,1.34,1.34,0,0,1,0,.39c0,.15-.16.17-.29.17S9.55,83.94,9.5,83.79Zm.47-.1a2.31,2.31,0,0,0,0-.31,1.19,1.19,0,0,0,0-.39s-.1,0-.15,0-.12,0-.15,0a1.22,1.22,0,0,0,0,.39,2.48,2.48,0,0,0,0,.31c0,.12.07.12.18.12S10,83.81,10,83.69Z" style="fill: #fbfcfe"/>
        <path d="M8.51,83v-.14h.6v.08a.52.52,0,0,1-.28.5c-.08.05-.19.12-.19.23a.17.17,0,0,0,.16.17.53.53,0,0,0,.3-.12v.17a.44.44,0,0,1-.27.09.29.29,0,0,1-.32-.31c0-.2.13-.28.27-.37A.38.38,0,0,0,9,83v0Z" style="fill: #fbfcfe"/>
      </g>
    </g>
    <g>
      <rect height="4.22" rx="0.55" ry="0.55" style="fill: #e7e6e8" transform="translate(58.82 89.46) rotate(180)" width="4.02" x="27.4" y="42.62"/>
      <rect height="3.61" rx="0.81" ry="0.81" style="fill: #fffdf3" transform="translate(58.82 103.38) rotate(180)" width="3.96" x="27.43" y="49.89"/>
      <rect height="4.88" rx="0.92" ry="0.92" style="fill: #cea468" transform="translate(58.94 97.15) rotate(180)" width="3.17" x="27.89" y="46.14"/>
      <rect height="1.21" rx="0.6" ry="0.6" style="fill: #757376" transform="translate(58.94 92.77) rotate(180)" width="3.17" x="27.89" y="45.78"/>
      <rect height="1.21" rx="0.6" ry="0.6" style="fill: #757376" transform="translate(58.94 100.77) rotate(-180)" width="3.17" x="27.89" y="49.78"/>
    </g>
    <g>
      <rect height="4.22" rx="0.55" ry="0.55" style="fill: #e7e6e8" transform="translate(75.89 89.46) rotate(180)" width="4.02" x="35.94" y="42.62"/>
      <rect height="3.61" rx="0.81" ry="0.81" style="fill: #fffdf3" transform="translate(75.89 103.38) rotate(180)" width="3.96" x="35.97" y="49.89"/>
      <rect height="4.88" rx="0.92" ry="0.92" style="fill: #cea468" transform="translate(76.02 97.15) rotate(180)" width="3.17" x="36.43" y="46.14"/>
      <rect height="1.21" rx="0.6" ry="0.6" style="fill: #757376" transform="translate(76.02 92.77) rotate(180)" width="3.17" x="36.43" y="45.78"/>
      <rect height="1.21" rx="0.6" ry="0.6" style="fill: #757376" transform="translate(76.02 100.77) rotate(-180)" width="3.17" x="36.43" y="49.78"/>
    </g>
  </g>
  <g id="txt">
    <g>
      <path d="M30.42,88.4v1.77a.2.2,0,1,1-.4,0V88.8H29.4v1a.2.2,0,1,1-.4,0v-1h-1.5a.2.2,0,1,1,0-.4Z" style="fill: #fff"/>
      <path d="M27.31,92.36a.6.6,0,0,1,.38-.6l.74-.37a.91.91,0,0,1,.42-.11.87.87,0,0,1,.44.11l.74.37a.6.6,0,0,1,.38.62v.68a.19.19,0,0,1-.2.2.19.19,0,0,1-.2-.2v-.67c0-.17,0-.2-.17-.28l-.7-.35a.62.62,0,0,0-.3-.08.56.56,0,0,0-.28.08l-.69.34c-.16.08-.18.12-.18.3v.65a.19.19,0,0,1-.2.2.19.19,0,0,1-.2-.2Z" style="fill: #fff"/>
      <path d="M29.1,95.62c0,.16-.06.24-.24.24s-.24-.08-.24-.24v-.94c0-.16.06-.24.24-.24s.24.08.24.24Z" style="fill: #fff"/>
      <path d="M29.06,97.84v.74a.41.41,0,0,1-.11.32.39.39,0,0,1-.34.12h-.86a.42.42,0,0,1-.31-.1.39.39,0,0,1-.14-.35v-.89a.59.59,0,0,1,.07-.26l.07-.15c0-.11.08-.23.22-.23a.2.2,0,0,1,.2.19.28.28,0,0,1,0,.13l-.05.12a.69.69,0,0,0-.08.21v.92h1V97.44h1.75v1.38a.2.2,0,1,1-.4,0v-1Z" style="fill: #fff"/>
      <path d="M27.71,101.5h.81a.2.2,0,1,1,0,.4h-1a.18.18,0,0,1-.2-.2v-1.58a.2.2,0,0,1,.4,0v.59H30v-.59a.2.2,0,0,1,.4,0v1H27.71Z" style="fill: #fff"/>
    </g>
    <g>
      <path d="M11.35,105.78a.92.92,0,0,1,.07.38,1,1,0,0,1-.09.41l-.26.64a.36.36,0,0,1-.7,0l-.26-.64a1,1,0,0,1-.09-.41.94.94,0,0,1,.07-.38l.29-.69a.35.35,0,0,1,.69,0Zm-.54-.52c0-.06,0-.1-.1-.1s-.07,0-.1.1l-.26.63a.62.62,0,0,0-.07.28.54.54,0,0,0,0,.23l.28.66s0,.1.1.1.08-.05.1-.1l.28-.66a.54.54,0,0,0,0-.23.62.62,0,0,0-.07-.28Z" style="fill: #fff"/>
      <path d="M12.54,107.5a.4.4,0,0,1-.36-.18.63.63,0,0,1-.11-.41V105c0-.11,0-.17.14-.17s.14.06.14.17v1.93c0,.19,0,.24.18.24H13c.13,0,.18,0,.18-.24V105c0-.11,0-.17.14-.17s.14.06.14.17v1.93a.63.63,0,0,1-.11.41.4.4,0,0,1-.36.18Z" style="fill: #fff"/>
      <path d="M14.43,105.15v.13c0,.11,0,.17-.14.17s-.14-.06-.14-.17v-.47h1.42v.47c0,.11,0,.17-.14.17s-.14-.06-.14-.17v-.12H15v2.18c0,.11,0,.17-.14.17s-.14-.06-.14-.17v-2.18Z" style="fill: #fff"/>
      <path d="M19.12,106.62c-.07,0-.14,0-.14-.17s.07-.17.14-.17h.57V107c0,.34-.19.54-.46.54h-.49a.39.39,0,0,1-.33-.14.56.56,0,0,1-.13-.43v-.87a.8.8,0,0,1,.15-.51l.34-.52a.42.42,0,0,1,.4-.24h.38c.08,0,.14,0,.14.17s-.07.17-.14.17H19.2c-.16,0-.15,0-.24.14l-.31.48a.76.76,0,0,0-.09.45v.68c0,.19,0,.25.2.25h.46c.1,0,.19,0,.19-.18v-.35Z" style="fill: #fff"/>
      <path d="M21.47,105c0-.11,0-.17.14-.17s.14.06.14.17v2.52h-.38l-.75-2.08h0v1.91c0,.11,0,.17-.14.17s-.14-.06-.14-.17v-2.52h.38l.75,2.1h0Z" style="fill: #fff"/>
      <path d="M22.68,105.15h-.11a.17.17,0,0,1,0-.35H23c.22,0,.34.11.43.35l.25.61a.95.95,0,0,1,0,.78l-.26.63a.43.43,0,0,1-.45.33h-.48c-.08,0-.14,0-.14-.17s.07-.17.14-.17h.14Zm.29,2H23c.12,0,.15,0,.2-.15l.25-.62a.55.55,0,0,0,.05-.23.67.67,0,0,0-.07-.28l-.24-.59c-.06-.15-.09-.15-.22-.15h0Z" style="fill: #fff"/>
      <path d="M25.07,107.06c-.06,0-.11,0-.15-.07a.26.26,0,0,1,0-.16v-.19a.26.26,0,0,1,0-.16c0-.07.09-.07.15-.07h.21c.06,0,.11,0,.15.07a.26.26,0,0,1,0,.16v.19a.26.26,0,0,1,0,.16c0,.07-.09.07-.15.07Z" style="fill: #fff"/>
      <path d="M27.66,105.53V105c0-.11,0-.17.14-.17s.14.06.14.17v.55a.42.42,0,0,1,0,.14l-.55,1.69c0,.09-.05.15-.14.15s-.12-.07-.14-.15l-.55-1.69a.42.42,0,0,1,0-.14V105c0-.11,0-.17.14-.17s.14.06.14.17v.55l.42,1.32Z" style="fill: #fff"/>
      <path d="M29.37,107.5a.43.43,0,0,1-.43-.33l-.26-.64a.9.9,0,0,1-.08-.36.88.88,0,0,1,.08-.38l.26-.64a.43.43,0,0,1,.44-.33h.49c.06,0,.14,0,.14.17s-.08.17-.14.17h-.48c-.12,0-.14,0-.2.15l-.25.6a.63.63,0,0,0-.06.26.56.56,0,0,0,.06.24l.24.6c.06.14.09.15.21.15h.47c.06,0,.14,0,.14.17s-.08.17-.14.17Z" style="fill: #fff"/>
      <path d="M31.44,107.5a.43.43,0,0,1-.43-.33l-.26-.64a.9.9,0,0,1-.08-.36.88.88,0,0,1,.08-.38l.26-.64a.43.43,0,0,1,.44-.33h.49c.06,0,.14,0,.14.17s-.08.17-.14.17h-.48c-.12,0-.14,0-.2.15l-.25.6a.63.63,0,0,0-.06.26.56.56,0,0,0,.06.24l.24.6c.06.14.09.15.21.15h.47c.06,0,.14,0,.14.17s-.08.17-.14.17Z" style="fill: #fff"/>
    </g>
    <path d="M15.46,90.93c.2,0,.32.08.32.28s-.12.27-.32.27H10.81v-.73l3.84-1.43H11.13c-.2,0-.32-.08-.32-.27s.12-.27.32-.27h4.65v.72l-3.88,1.43h3.55Z" style="fill: #fff"/>
    <path d="M10.73,93c-.09,0-.15,0-.21-.08a.25.25,0,0,1,0-.18v-.22a.25.25,0,0,1,0-.18c.06-.08.12-.08.21-.08H11c.09,0,.15,0,.21.08a.25.25,0,0,1,0,.18v.22a.25.25,0,0,1,0,.18c-.06.08-.12.08-.21.08Z" style="fill: #fff"/>
  </g>
  <g id="led">
    <g>
      <circle cx="29.44" cy="32.19" r="2.19" style="fill: #b5afba"/>
      <line style="fill: #0e2e4b;stroke: #9a9396;stroke-miterlimit: 10;stroke-width: 0.75px" x1="29.44" x2="29.44" y1="32.19" y2="23.06"/>
    </g>
    <g>
      <circle cx="36.51" cy="32.19" r="2.19" style="fill: #b5afba"/>
      <line style="fill: #0e2e4b;stroke: #9a9396;stroke-miterlimit: 10;stroke-width: 0.75px" x1="36.51" x2="36.51" y1="32.19" y2="23.06"/>
    </g>
    <rect height="3.27" style="fill: #171312" width="14.54" x="25.69" y="19.79"/>
    <path d="M32.07,0h1.67a5.5,5.5,0,0,1,5.5,5.5V19.79a0,0,0,0,1,0,0H26.57a0,0,0,0,1,0,0V5.5A5.5,5.5,0,0,1,32.07,0Z" style="fill: #171312"/>
    <rect height="0.96" style="fill: #494949" width="14.54" x="25.69" y="19.79"/>
    <path d="M32.9.42a5.55,5.55,0,0,0-4.25,1.46A6,6,0,0,0,27,6V19.33S27.65,6.67,29.44,4A10.44,10.44,0,0,1,32.9.42Z" style="fill: #494949"/>
    <g>
      <circle cx="6.69" cy="32.19" r="2.19" style="fill: #b5afba"/>
      <line style="fill: #0e2e4b;stroke: #9a9396;stroke-miterlimit: 10;stroke-width: 0.75px" x1="6.69" x2="6.69" y1="32.19" y2="23.06"/>
    </g>
    <g>
      <circle cx="13.76" cy="32.19" r="2.19" style="fill: #b5afba"/>
      <line style="fill: #0e2e4b;stroke: #9a9396;stroke-miterlimit: 10;stroke-width: 0.75px" x1="13.76" x2="13.76" y1="32.19" y2="23.06"/>
    </g>
    <rect height="3.27" style="fill: #d3d3d3" width="14.54" x="2.94" y="19.79"/>
    <path d="M9.32,0H11a5.5,5.5,0,0,1,5.5,5.5V19.79a0,0,0,0,1,0,0H3.82a0,0,0,0,1,0,0V5.5A5.5,5.5,0,0,1,9.32,0Z" style="fill: #d3d3d3"/>
    <rect height="0.96" style="fill: #ddd" width="14.54" x="2.94" y="19.79"/>
    <path d="M10.15.42A5.55,5.55,0,0,0,5.9,1.88,6,6,0,0,0,4.24,6V19.33S4.9,6.67,6.69,4A10.44,10.44,0,0,1,10.15.42Z" style="fill: #ddd"/>
  </g>
  <g data-name="Layer 9" id="Layer_9">
    <polygon points="23.72 110.39 25.15 111.92 25.15 116.16 23.72 117.59 19.49 117.59 17.95 116.16 17.95 111.92 19.49 110.39 23.72 110.39" style="fill: #323232"/>
    <polygon points="22.8 133.63 22.8 133.63 21.67 132.49 20.54 133.63 20.54 133.63 22.8 133.63" style="fill: #e9e9ea"/>
    <polygon points="22.8 131.37 22.8 131.37 21.66 132.5 20.53 131.37 20.53 131.37 22.8 131.37" style="fill: #b0acb0"/>
    <polygon points="20.53 133.63 20.53 133.63 21.67 132.5 20.54 131.37 20.53 131.37 20.53 133.63" style="fill: #d3d1d3"/>
    <polygon points="22.8 133.63 22.8 133.63 21.66 132.49 22.79 131.36 22.8 131.36 22.8 133.63" style="fill: #989498"/>
    <rect height="17.37" style="fill: #b0acb0" width="2.27" x="20.53" y="113.99"/>
    <polygon points="30.92 110.39 32.35 111.92 32.35 116.16 30.92 117.59 26.69 117.59 25.15 116.16 25.15 111.92 26.69 110.39 30.92 110.39" style="fill: #323232"/>
    <polygon points="30 133.63 30 133.63 28.87 132.49 27.74 133.63 27.74 133.63 30 133.63" style="fill: #e9e9ea"/>
    <polygon points="30 131.37 30 131.37 28.86 132.5 27.73 131.37 27.73 131.37 30 131.37" style="fill: #b0acb0"/>
    <polygon points="27.73 133.63 27.73 133.63 28.87 132.5 27.74 131.37 27.73 131.37 27.73 133.63" style="fill: #d3d1d3"/>
    <polygon points="30 133.63 30 133.63 28.86 132.49 29.99 131.36 30 131.36 30 133.63" style="fill: #989498"/>
    <rect height="17.37" style="fill: #b0acb0" width="2.27" x="27.73" y="113.99"/>
    <polygon points="16.52 110.39 17.95 111.92 17.95 116.16 16.52 117.59 12.29 117.59 10.75 116.16 10.75 111.92 12.29 110.39 16.52 110.39" style="fill: #323232"/>
    <polygon points="15.6 133.63 15.6 133.62 14.47 132.49 13.34 133.62 13.34 133.63 15.6 133.63" style="fill: #e9e9ea"/>
    <polygon points="15.6 131.36 15.6 131.36 14.46 132.5 13.33 131.37 13.33 131.36 15.6 131.36" style="fill: #b0acb0"/>
    <polygon points="13.33 133.63 13.33 133.63 14.47 132.49 13.34 131.36 13.33 131.36 13.33 133.63" style="fill: #d3d1d3"/>
    <polygon points="15.6 133.62 15.6 133.62 14.46 132.49 15.59 131.36 15.6 131.36 15.6 133.62" style="fill: #989498"/>
    <rect height="17.37" style="fill: #b0acb0" width="2.27" x="13.33" y="113.99"/>
  </g>
  <g id="Connectors">
    <rect data-cir-type="male" height="1.13" id="circuitoCon_GND" style="fill: #c0bec2" width="1.13" x="21.1" y="131.93"/>
    <rect data-cir-type="male" height="1.13" id="circuitoCon_VCC" style="fill: #c0bec2" width="1.13" x="28.3" y="131.93"/>
    <rect data-cir-type="male" height="1.13" id="circuitoCon_OUT" style="fill: #c0bec2" width="1.13" x="13.9" y="131.93"/>
  </g>
</svg>