<?xml version="1.0" ?><svg height="29.54mm" viewBox="0 0 36.85 83.73" width="13mm" xmlns="http://www.w3.org/2000/svg" xmlns:xlink="http://www.w3.org/1999/xlink">
  <defs>
    <linearGradient gradientUnits="userSpaceOnUse" id="linear-gradient" x1="8.18" x2="28.7" y1="17.26" y2="17.26">
      <stop offset="0"/>
      <stop offset="0.14" stop-color="#040404"/>
      <stop offset="0.26" stop-color="#0e0e0e"/>
      <stop offset="0.38" stop-color="#212121"/>
      <stop offset="0.49" stop-color="#3a3a3a"/>
      <stop offset="0.53" stop-color="#454545"/>
      <stop offset="0.65" stop-color="#292929"/>
      <stop offset="0.78" stop-color="#131313"/>
      <stop offset="0.9" stop-color="#050505"/>
      <stop offset="1"/>
    </linearGradient>
    <linearGradient id="linear-gradient-2" x1="11.23" x2="25.58" xlink:href="#linear-gradient" y1="3.67" y2="3.67"/>
    <linearGradient gradientTransform="translate(1.67 53.47) rotate(-90)" gradientUnits="userSpaceOnUse" id="linear-gradient-3" x1="32.35" x2="31.23" y1="8.07" y2="8.15">
      <stop offset="0.34" stop-color="#1a1719"/>
      <stop offset="0.59" stop-color="#747578"/>
    </linearGradient>
    <linearGradient id="linear-gradient-4" x1="32.56" x2="30.83" xlink:href="#linear-gradient-3" y1="14.03" y2="14.16"/>
    <linearGradient gradientTransform="translate(1.67 53.47) rotate(-90)" gradientUnits="userSpaceOnUse" id="linear-gradient-5" x1="26.25" x2="32.75" y1="16.9" y2="16.46">
      <stop offset="0.34" stop-color="#1a1719"/>
      <stop offset="0.48" stop-color="#747578"/>
    </linearGradient>
    <linearGradient gradientTransform="translate(1.67 53.47) rotate(-90)" gradientUnits="userSpaceOnUse" id="linear-gradient-6" x1="29.83" x2="29.83" y1="7.65" y2="24.22">
      <stop offset="0.02" stop-color="#1a1719"/>
      <stop offset="0.48" stop-color="#747578"/>
      <stop offset="0.99" stop-color="#1a1719"/>
    </linearGradient>
    <linearGradient id="linear-gradient-7" x1="32.31" x2="29.26" xlink:href="#linear-gradient-3" y1="16.49" y2="16.71"/>
    <linearGradient gradientTransform="translate(-3.83 50.29) rotate(-88.89)" id="linear-gradient-8" x1="25.84" x2="22.1" xlink:href="#linear-gradient-3" y1="21.66" y2="21.94"/>
    <linearGradient gradientTransform="translate(1.67 53.47) rotate(-90)" gradientUnits="userSpaceOnUse" id="linear-gradient-9" x1="23.63" x2="28.01" y1="16.81" y2="16.71">
      <stop offset="0.4" stop-color="#1a1719"/>
      <stop offset="0.58" stop-color="#747578"/>
    </linearGradient>
    <linearGradient id="linear-gradient-10" x1="14.35" x2="20.61" xlink:href="#linear-gradient-5" y1="16.88" y2="16.46"/>
    <linearGradient id="linear-gradient-11" x1="17.68" x2="17.68" xlink:href="#linear-gradient-6" y1="7.66" y2="24.21"/>
    <linearGradient id="linear-gradient-12" x1="20.1" x2="17.16" xlink:href="#linear-gradient-3" y1="16.74" y2="16.96"/>
    <linearGradient id="linear-gradient-13" x1="18.42" x2="21.07" xlink:href="#linear-gradient-6" y1="16.75" y2="16.75"/>
    <linearGradient gradientTransform="translate(-3.83 50.29) rotate(-88.89)" id="linear-gradient-14" x1="15.24" x2="22.82" xlink:href="#linear-gradient-5" y1="22.08" y2="21.57"/>
    <linearGradient gradientTransform="matrix(0.02, -1, 1, 0.02, -4.48, 50.28)" id="linear-gradient-15" x1="19.28" x2="19.28" xlink:href="#linear-gradient-6" y1="13.35" y2="29.89"/>
    <linearGradient gradientTransform="translate(-3.83 50.29) rotate(-88.89)" id="linear-gradient-16" x1="21.19" x2="18.31" xlink:href="#linear-gradient-3" y1="21.81" y2="22.02"/>
    <linearGradient gradientTransform="translate(-3.83 50.29) rotate(-88.89)" id="linear-gradient-17" x1="19.57" x2="22.6" xlink:href="#linear-gradient-6" y1="21.86" y2="21.86"/>
    <linearGradient id="linear-gradient-18" x1="22.43" x2="27" xlink:href="#linear-gradient-9" y1="16.81" y2="16.7"/>
    <linearGradient id="linear-gradient-19" x1="28.72" x2="26.92" xlink:href="#linear-gradient-3" y1="16.71" y2="16.84"/>
    <linearGradient gradientUnits="userSpaceOnUse" id="linear-gradient-20" x2="18.44" y1="40.88" y2="40.88">
      <stop offset="0"/>
      <stop offset="0.25" stop-color="#0c0c0c"/>
      <stop offset="0.68" stop-color="#2b2b2b"/>
      <stop offset="1" stop-color="#454545"/>
    </linearGradient>
    <linearGradient gradientTransform="matrix(1, 0, 0, -1, -14.9, 81.77)" gradientUnits="userSpaceOnUse" id="linear-gradient-21" x1="33.31" x2="51.76" y1="40.88" y2="40.88">
      <stop offset="0" stop-color="#454545"/>
      <stop offset="0.32" stop-color="#2b2b2b"/>
      <stop offset="0.75" stop-color="#0c0c0c"/>
      <stop offset="1"/>
    </linearGradient>
  </defs>
  <title>SST Liquid Level Sensor</title>
  <g data-name="Layer 3" id="Layer_3">
    <g data-name="&lt;Group&gt;" id="_Group_">
      <polyline data-name="&lt;Path&gt;" id="_Path_" points="13.25 83.73 13.41 38.93 11.03 38.93 11.03 83.73" style="fill: #fd4f57"/>
    </g>
    <g data-name="&lt;Group&gt;" id="_Group_2">
      <polyline data-name="&lt;Path&gt;" id="_Path_2" points="20.45 83.73 20.61 37 18.23 37 18.23 83.73" style="fill: #00aa8f"/>
    </g>
    <g data-name="&lt;Group&gt;" id="_Group_3">
      <polyline data-name="&lt;Path&gt;" id="_Path_3" points="27.81 83.73 27.81 35.06 25.43 35.06 25.43 83.73" style="fill: #3d44ac"/>
    </g>
  </g>
  <g data-name="Layer 2" id="Layer_2">
    <path d="M8.18,25.61V8.92A1.58,1.58,0,0,1,9.75,7.35H27.13A1.58,1.58,0,0,1,28.7,8.92V25.61a1.58,1.58,0,0,1-1.57,1.57H9.75A1.58,1.58,0,0,1,8.18,25.61Z" style="fill: url(#linear-gradient)"/>
    <polygon points="18.41 0 11.23 7.35 25.58 7.35 18.41 0" style="fill: url(#linear-gradient-2)"/>
    <g>
      <polygon points="7.57 21.47 12.86 21.47 6.72 22.14 7.57 21.47" style="fill: url(#linear-gradient-3)"/>
      <path d="M6.72,22.14a26.54,26.54,0,0,1,5.8-.66H24.85L6.76,22.79A2.15,2.15,0,0,1,6.72,22.14Z" style="fill: url(#linear-gradient-4)"/>
      <path d="M8.1,25.16q4.85-.61,9.82-1.12,5.46-.57,10.77-1,.3.22.62.47c.3.24.58.49.84.74-.44.14-.8.22-1,.26a38,38,0,0,1-4.58.34l-.82.08c-3,.31-6.2.8-6.33.82a70.06,70.06,0,0,1-10.68.5Z" style="fill: url(#linear-gradient-5)"/>
      <path d="M8.17,24.06q4.64-.49,9.34-.94,5.62-.53,11.16-1l0,.89q-4.37.51-8.81,1Q14,24.63,8.17,25.14Z" style="fill: url(#linear-gradient-6)"/>
      <path d="M6.76,22.79a10.56,10.56,0,0,1,1-.27A12,12,0,0,1,10,22.31c1.88,0,7.08-.59,13-.74,0,0,2.72-.07,4.53-.25a6.79,6.79,0,0,0,.71-.07,5.36,5.36,0,0,1,1.43-.09h0s0,.1,0,.12a8.55,8.55,0,0,1-1,.87l-.44.07-.59.09c-1,.14-1.53.16-2.74.26-1.48.12-1.42.15-2.53.23-.75.05-1.12.08-2.21.12-1.26,0-3,.23-6,.53-1.73.18-2.57.28-4.51.46l-1.48.13Z" style="fill: url(#linear-gradient-7)"/>
      <path d="M6.72,26.89l.09-.06a1.36,1.36,0,0,1,.58-.19c.52-.07.28-.06.59-.09s.66,0,1-.07.55,0,.95-.11l17.68-1.09c.91-.14,1.36-.19,1.6-.2a2.35,2.35,0,0,0,.55-.08c.21-.06.31-.12.32-.09s-.26.31-1.49,1.29a3.39,3.39,0,0,1-1,.68c-.71.3-1,.09-2.74.18-1.49.08-1.42.11-2.54.16-.95,0-1.71.06-2.21.06l-9.16.43c-.24,0-.77,0-1.45.14-.53.07-1,.15-1.29.22Q7.53,27.59,6.87,27Z" style="fill: url(#linear-gradient-8)"/>
      <path d="M8.18,28.1c.22-.51,5.34-.78,8.82-1l9.58-.69a8.92,8.92,0,0,0,.91-.09,9.16,9.16,0,0,0,1.18-.26l0,1c-1.65.86-4,.84-6.7.86-1.56.11-3.34.16-5.23.2L12,28.51l-3.86.58Z" style="fill: url(#linear-gradient-9)"/>
      <g>
        <path d="M8.12,37.31c3.08-.59,6.35-1.08,9.8-1.44,3.78-.39,7.37-.58,10.75-.61l1.49,1.2L6.72,38.54Z" style="fill: url(#linear-gradient-10)"/>
        <path d="M8.18,36.22c.23-.56,17.85-1.3,20.48-1.92v1c-2.27.89-14.3.84-20.48,2Z" style="fill: url(#linear-gradient-11)"/>
        <path d="M6.77,35.06c.45-.38,1.84-.43,3.15-.52l17.62-1.06A8.78,8.78,0,0,0,30.16,33l-1.52,1.29-1,.16c-1,.14-1.53.16-2.74.26-1.48.12-1.42.15-2.53.23-.94.07-1.71.1-2.21.12L11,35.78c-.46,0-.95.1-1.45.18s-.92.16-1.35.26Z" style="fill: url(#linear-gradient-12)"/>
      </g>
      <path d="M6.74,34.42a1.89,1.89,0,0,1,.5-.19c5.4-.77,9.46-.5,13.75-1,2.09-.25,5.17,0,9-.77.09,0,.16-.06.18,0V33a6.06,6.06,0,0,1-2.06.39l-1.06.1q-2,.17-3.85.22L18.06,34l-5.29.32c-2.29.15-4,.26-4.28.29L8,34.71l-.37.05a3.35,3.35,0,0,0-.7.21l-.13.09h0C6.68,35,6.72,34.61,6.74,34.42Z" style="fill: url(#linear-gradient-13)"/>
      <path d="M8.12,32.65c3.09-.5,6.37-.91,9.82-1.17,3.78-.29,7.38-.38,10.76-.32l1.43,1.24a6,6,0,0,1-.79.2c-.21,0-.17,0-.78.11-.45.06-.54.08-.77.1l-.4,0-.44,0c-.82.08-1.44.13-1.54.13-1,.06-8.35.6-18.65,1.36Z" style="fill: url(#linear-gradient-14)"/>
      <path d="M8.13,31.56c.24-.55,17.93-.81,20.58-1.36v1a65.83,65.83,0,0,1-8.81.66s-6.32,0-10,.55c-.64.09-1.28.2-1.28.2l-.52.1Z" style="fill: url(#linear-gradient-15)"/>
      <path d="M6.72,30.93c.45-.36,1.85-.38,3.15-.43l17.63-.58a8.72,8.72,0,0,0,2.63-.37L28.6,30.79l-1,.13c-1,.11-1.53.12-2.74.18-1.49.08-1.42.11-2.54.16-.95,0-1.71.06-2.21.06l-9.16.43c-.46,0-.95.07-1.45.14s-.92.14-1.35.22Z" style="fill: url(#linear-gradient-16)"/>
      <path d="M6.75,30.28a23,23,0,0,1,2.53-.47,27.91,27.91,0,0,1,3.36-.19c1.16,0,.71,0,4.93-.29,3.66-.21,3.78-.18,5.5-.29s4-.29,6.89-.65a.19.19,0,0,0,.1,0l.06,0,0,1.19a6,6,0,0,1-2.06.33L27,29.94q-2,.12-3.85.11l-5.11.17-5.29.17c-2.29.08-4,.16-4.29.18l-.51,0-.37,0a3.31,3.31,0,0,0-.71.19l-.13.08h0C6.67,30.88,6.72,30.47,6.75,30.28Z" style="fill: url(#linear-gradient-17)"/>
      <path d="M8.18,29.1c0-.38,9.94-1.12,10-.92,4.36-.23,9.51-.42,10.5-1.06L30,28.2c.16.13.11.2-.18.21-1.52.19-3.21.36-5,.51-1.49.12-3,.21-4.6.28l-5.07.29c-1.29.11-2.55.17-3.75.17a22.42,22.42,0,0,0-3.66.41l-1,.22Z" style="fill: url(#linear-gradient-18)"/>
      <path d="M6.72,26.26a17.42,17.42,0,0,1,3.92-.51l5.58-.35,4.9-.32L26,24.77l3.22-.29c.6-.08,1-.2,1-.27a4,4,0,0,1,0,.66,3,3,0,0,1-1.06.21c-1.23.16-2.51.29-3.83.4l-3.18.18-3.26.22-4.53.28-5.7.38a7.29,7.29,0,0,0-1.85.35,3.4,3.4,0,0,1,0-.65" style="fill: url(#linear-gradient-19)"/>
    </g>
    <rect height="9.34" style="fill: url(#linear-gradient-20)" width="18.44" y="36.21"/>
    <rect height="9.34" style="fill: url(#linear-gradient-21)" transform="translate(55.26 81.77) rotate(-180)" width="18.44" x="18.41" y="36.21"/>
  </g>
  <g id="Connectors">
    <rect data-cir-type="male" height="2.26" id="circuitoCon_VCC" style="fill: none" width="2.23" x="11.03" y="81.47"/>
    <rect data-cir-type="male" height="2.26" id="circuitoCon_SIG" style="fill: none" width="2.23" x="18.23" y="81.47"/>
    <rect data-cir-type="male" height="2.26" id="circuitoCon_GND" style="fill: none" width="2.38" x="25.43" y="81.47"/>
  </g>
</svg>