<?xml version="1.0" ?><svg height="11.95mm" viewBox="0 0 27.44 33.88" width="9.68mm" xmlns="http://www.w3.org/2000/svg">
  <title>BMP180</title>
  <g id="back">
    <path d="M0,0V33.88H27.44V0ZM3.06,2a1.88,1.88,0,0,1,0,3.76A1.88,1.88,0,0,1,3.06,2Zm8.75,26.35a2.32,2.32,0,0,1-2.32,2.32H5a2.32,2.32,0,0,1-2.32-2.32v-5A2.32,2.32,0,0,1,5,21H9.49a2.32,2.32,0,0,1,2.32,2.32ZM10.06,5.73a1.88,1.88,0,0,1,0-3.76A1.88,1.88,0,0,1,10.06,5.73Zm7.25-3.92a1.88,1.88,0,0,1,0,3.76A1.88,1.88,0,0,1,17.31,1.81ZM21,31.69c-5.95,0-5.94-8.91,0-8.91S27,31.69,21,31.69ZM24.4,5.57a1.88,1.88,0,0,1,0-3.76A1.88,1.88,0,0,1,24.4,5.57Z" style="fill: #0b5597" transform="translate(0 0)"/>
  </g>
  <g data-name="around lines" id="around_lines">
    <line style="fill: none;stroke: #1a2c80;stroke-linecap: round;stroke-miterlimit: 10;stroke-width: 0.75px" x1="2.42" x2="2.42" y1="5.56" y2="9.37"/>
    <polyline points="6.34 9.19 6.34 7.69 9.02 5.02" style="fill: none;stroke: #1a2c80;stroke-linecap: round;stroke-miterlimit: 10;stroke-width: 0.75px"/>
    <line style="fill: none;stroke: #1a2c80;stroke-linecap: round;stroke-miterlimit: 10;stroke-width: 0.75px" x1="24.41" x2="24.53" y1="5.72" y2="9.19"/>
    <polyline points="10.25 14.09 10.25 16.06 9.25 17.06" style="fill: none;stroke: #1a2c80;stroke-linecap: round;stroke-miterlimit: 10;stroke-width: 0.75px"/>
    <line style="fill: none;stroke: #1a2c80;stroke-linecap: round;stroke-miterlimit: 10;stroke-width: 0.75px" x1="9.75" x2="12.19" y1="18.34" y2="21.19"/>
    <polyline points="5 18.63 5.28 20.22 9.25 20.22" style="fill: none;stroke: #1a2c80;stroke-linecap: round;stroke-miterlimit: 10;stroke-width: 0.75px"/>
    <path d="M5.36,32.54h1a.41.41,0,0,0,.49-.17.33.33,0,0,0,0-.25h.89a.48.48,0,0,0,0,.15.35.35,0,0,0,0,.17.36.36,0,0,0,.24.14.61.61,0,0,0,.29,0l.49,0H9A.39.39,0,0,0,9,32.49a.56.56,0,0,0,0-.14.43.43,0,0,1,.2-.26A.67.67,0,0,1,9.6,32a1.5,1.5,0,0,1,.31,0h3.62a.21.21,0,0,0,.18,0c.07,0,.08-.15.08-.24s0-.43,0-.65q0-4.15,0-8.29V20.1l-2.48-1.76V16.6c-.12-1.06.9-1.46,1-.19h3.55c.35.17.43-.06.39-.47l2.18-2,.51-.25h5v.36h-.92l0,.82c.42.07.64-.21.85-.52l.23.73-.29.45h.7V15h1v.62l.79.19a.32.32,0,0,1,.19,0c.13.08.15.27.17.67,0,.21,0,.47,0,.77l.06,5.92c-.06.53-.42.56-1.12,0-2.54-2.78-5.38-2.79-8.42-1-2.38,2.16-3.1,4.71-1.9,7.69a7.16,7.16,0,0,0,2.85,3c.28.39-.2.56-1.42.5H1.35a.42.42,0,0,1-.52-.26v-.74a.51.51,0,0,1,.25-.29.86.86,0,0,1,.33,0H5C5.37,32.08,5.5,32.23,5.36,32.54Z" style="fill: #0b5597" transform="translate(0 0)"/>
    <path d="M4.17,17.69h-.8V16.34a.6.6,0,0,0-.6-.6H1.37a.6.6,0,0,0-.6.6v3a.6.6,0,0,0,.6.6H2.77a.6.6,0,0,0,.6-.6v-.95h.8Z" style="fill: #0b5597" transform="translate(0 0)"/>
    <line style="fill: none;stroke: #1a2c80;stroke-linecap: round;stroke-miterlimit: 10;stroke-width: 0.75px" x1="3.16" x2="13.72" y1="13.74" y2="13.74"/>
    <path d="M12.81.56H15q.83.17,0,1a2.38,2.38,0,0,0-.56,1.67h1.17l-.25.71h-.54q-.56-.07-.37.81A3.34,3.34,0,0,0,15.65,6.5c.24.44-.41.57-1.31.6l0,1L13.78,8V7.35c.15-.15.18-.28-.51-.37s-1,.11-1.08.33c.09.45-.48.44-1.15.35l-.31,0v.87H9.88c.14-.55.18-1-.33-.9-.83.09-1.44,0-1.1-.59.25-.43.66-.49,1.19-.23l.73.33.23-.11a3.38,3.38,0,0,0,2.83-2.75A3.52,3.52,0,0,0,13,1.63l-.33-.46C12.33.84,12.42.65,12.81.56Z" style="fill: #1a2c80" transform="translate(0 0)"/>
    <path d="M19.86.64h1.91q1.09.13.13,1a3.66,3.66,0,0,0-.39,3.13,3.56,3.56,0,0,0,1.39,2c.5.18.44.59.11,1.13v1.5c.1.33-.34.41-1,.38H19.14l-4-2V7.45l1.23-1a1.15,1.15,0,0,0,1.06.23l.19.27c1.62,0,2.31-1,2.72-2.35l0-.35C20.36,4,20.22,4,20,4l-.48,0,.16-.69c.52,0,.84-.06.69-.53a2.43,2.43,0,0,0-.7-1.56C19.33.86,19.43.68,19.86.64Z" style="fill: #1a2c80" transform="translate(0 0)"/>
    <path d="M13.78,10.06c.21.63.2,1.12-.68,1.06h-.35c-.36-.1-.26,1.35.4,1.35h2.77L15.75,11A2.14,2.14,0,0,1,13.78,10.06Z" style="fill: #1a2c80" transform="translate(0 0)"/>
  </g>
  <g id="bules">
    <circle cx="21.03" cy="15.27" r="0.48" style="fill: #303030"/>
  </g>
  <g id="ellipse">
    <circle cx="21.03" cy="27.25" r="5.14" style="fill: none;stroke: #e8e5df;stroke-miterlimit: 10;stroke-width: 0.8800484848485833px"/>
  </g>
  <g id="lat">
    <rect height="2.06" style="fill: #b1aeaa" width="1.19" x="1.38" y="21"/>
    <rect height="2.06" style="fill: #b1aeaa" width="1.19" x="1.38" y="24.97"/>
    <rect height="2.06" style="fill: #b1aeaa" width="1.19" x="12.16" y="21"/>
    <rect height="2.56" style="fill: #b1aeaa" transform="translate(38.88 24.19) rotate(90)" width="1.19" x="6.75" y="30.25"/>
    <rect height="2.06" style="fill: #b1aeaa" width="1.19" x="12.16" y="24.97"/>
    <rect height="2.56" style="fill: #b1aeaa" width="3.06" x="1.38" y="28.97"/>
    <rect height="2.56" style="fill: #b1aeaa" width="3.06" x="10.28" y="28.97"/>
  </g>
  <g data-name="WHITE SQUARE" id="WHITE_SQUARE">
    <rect height="11" rx="1.53" ry="1.53" style="fill: #e8e5df" width="10.35" x="2.19" y="20.28"/>
  </g>
  <g id="square">
    <path d="M9.49,21H5A2.32,2.32,0,0,0,2.69,23.3v5A2.32,2.32,0,0,0,5,30.65H9.49a2.32,2.32,0,0,0,2.32-2.32v-5A2.32,2.32,0,0,0,9.49,21ZM4.84,24.83a.77.77,0,1,1,.77-.77A.77.77,0,0,1,4.84,24.83Z" style="fill: #b1aeaa" transform="translate(0 0)"/>
  </g>
  <g id="numbers">
    <g>
      <path d="M9.32,24.38a1.75,1.75,0,0,1-.07-.55c0-.19,0-.6.15-.73a.77.77,0,0,1,.74,0c.14.14.15.54.15.73a1.75,1.75,0,0,1-.07.55c-.07.21-.24.24-.45.24S9.39,24.59,9.32,24.38Zm.73-.14a2.91,2.91,0,0,0,0-.43,1.53,1.53,0,0,0-.07-.54c0-.06-.16-.06-.23-.06s-.19,0-.23.06a1.58,1.58,0,0,0-.07.54,3.28,3.28,0,0,0,0,.43c0,.17.11.17.28.17S10,24.4,10,24.24Z" style="fill: #424242" transform="translate(0 0)"/>
      <path d="M7.78,24.36,8.17,24a.45.45,0,0,1-.46-.46c0-.35.29-.51.6-.51a1,1,0,0,1,.4.09v.22a.71.71,0,0,0-.4-.11c-.2,0-.39.09-.39.31s.16.29.35.29h.17V24l-.4.41h.66v.2H7.78Z" style="fill: #424242" transform="translate(0 0)"/>
      <path d="M6.23,23.22V23h.93v.12a.73.73,0,0,1-.44.71c-.12.07-.29.17-.29.33a.25.25,0,0,0,.24.24.87.87,0,0,0,.46-.17v.24a.73.73,0,0,1-.42.13.44.44,0,0,1-.5-.43c0-.28.21-.39.42-.53s.31-.22.31-.4v0Z" style="fill: #424242" transform="translate(0 0)"/>
    </g>
    <g>
      <path d="M7.94,27.8v-.2h.93v.12a.73.73,0,0,1-.44.71c-.12.07-.29.17-.29.33a.25.25,0,0,0,.24.24.87.87,0,0,0,.46-.17v.24a.73.73,0,0,1-.42.13.44.44,0,0,1-.5-.43c0-.28.21-.39.42-.53s.31-.22.31-.4v0Z" style="fill: #424242" transform="translate(0 0)"/>
      <path d="M6.32,28.15v-.2h.19V27.6h.22v.34h.59v.23l-.46,1H6.64l.47-1H6.74v.32H6.51v-.32Z" style="fill: #424242" transform="translate(0 0)"/>
      <path d="M4.77,28.15v-.2H5V27.6h.22v.34h.59v.23l-.46,1H5.09l.47-1H5.19v.32H5v-.32Z" style="fill: #424242" transform="translate(0 0)"/>
    </g>
    <g>
      <path d="M10,26.75v-1c0-.21,0-.32-.27-.32s-.27.12-.27.32v1H9.28v-1a.45.45,0,0,1,.49-.51.45.45,0,0,1,.49.51v1Z" style="fill: #424242" transform="translate(0 0)"/>
      <path d="M7.72,25.83v-.2h.19v-.34h.22v.34h.59v.23l-.46,1H8l.47-1H8.13v.32H7.91v-.32Z" style="fill: #424242" transform="translate(0 0)"/>
      <path d="M7.09,26.26v.28l-.38.32H6.47V25.29H6.7V26.6Z" style="fill: #424242" transform="translate(0 0)"/>
      <path d="M5.35,26.35H5.29c-.32,0-.61-.14-.61-.5,0-.53.61-.58.81-.58h.07v.2H5.44c-.25,0-.53.08-.53.38s.26.31.39.3l.27,0,0,.73H4.73v-.2h.59Z" style="fill: #424242" transform="translate(0 0)"/>
    </g>
    <rect height="1.72" style="fill: #e8e5df" width="0.21" x="9.7" y="27.42"/>
    <rect height="1.72" style="fill: #e8e5df" width="0.21" x="9.94" y="27.42"/>
    <rect height="1.72" style="fill: #e8e5df" width="0.21" x="10.17" y="27.42"/>
  </g>
  <g id="CONECTORS">
    <g>
      <polyline points="26.31 15.27 26.31 14.5 26.54 14.5 26.54 13.2 26.31 13.2 26.31 10.74 26.54 10.74 26.54 9.67 26.67 9.67 26.67 8.84 26.31 8.84 26.31 7.91 23.93 7.91 23.93 13.22 23.65 13.22 23.65 14.56 23.88 14.56 23.88 15.27 26.33 15.27" style="fill: #e8e5df"/>
      <polygon points="23.93 13.22 26.31 13.2 26.31 9.76 23.93 9.76 23.93 13.22" style="fill: #edca9c"/>
      <rect height="1.74" style="fill: #b7967a" width="2.38" x="23.92" y="10.74"/>
    </g>
    <g>
      <polyline points="11.69 15.27 11.69 14.5 11.93 14.5 11.93 13.2 11.69 13.2 11.69 10.74 11.93 10.74 11.93 9.67 12.05 9.67 12.05 8.84 11.69 8.84 11.69 7.91 9.31 7.91 9.31 13.22 9.04 13.22 9.04 14.56 9.27 14.56 9.27 15.27 11.71 15.27" style="fill: #e8e5df"/>
      <polygon points="9.31 13.22 11.69 13.2 11.69 9.76 9.31 9.76 9.31 13.22" style="fill: #edca9c"/>
      <rect height="1.74" style="fill: #b7967a" width="2.38" x="9.31" y="10.74"/>
    </g>
    <g>
      <g>
        <polyline points="7.56 15.27 7.56 14.5 7.79 14.5 7.79 13.2 7.56 13.2 7.56 10.74 7.79 10.74 7.79 9.67 7.92 9.67 7.92 8.84 7.56 8.84 7.56 7.91 5.18 7.91 5.18 13.22 4.9 13.22 4.9 14.56 5.13 14.56 5.13 15.27 7.58 15.27" style="fill: #e8e5df"/>
        <polygon points="5.18 13.22 7.56 13.2 7.56 9.76 5.18 9.76 5.18 13.22" style="fill: #edca9c"/>
        <rect height="1.74" style="fill: #b7967a" width="2.38" x="5.18" y="10.74"/>
      </g>
      <polyline points="5.18 9.73 7.79 9.73 7.79 13.4 5.18 13.4 5.18 9.88" style="fill: #b1aeaa"/>
      <rect height="2.76" style="fill: #303030" width="1.93" x="5.57" y="10.59"/>
      <g>
        <path d="M6.62,12.48h.13v.09H7v.11H6.75V13H6.6L6,12.75v-.11l.67.23v-.19H6.41v-.11h.21Z" style="fill: #e8e5df" transform="translate(0 0)"/>
        <path d="M6.08,12.22H6v-.5H6a.43.43,0,0,1,.16,0l.15.08a.87.87,0,0,0,.54.19H7v.11H6.81a1,1,0,0,1-.57-.19l-.06,0a.2.2,0,0,0-.1,0Z" style="fill: #e8e5df" transform="translate(0 0)"/>
        <path d="M6.84,11H7v.45H6.9a.51.51,0,0,1-.46-.21c0-.06-.11-.14-.21-.14s-.15.06-.15.12a.36.36,0,0,0,.11.22H6a.3.3,0,0,1-.09-.21A.25.25,0,0,1,6.22,11a.41.41,0,0,1,.35.2.36.36,0,0,0,.26.15h0Z" style="fill: #e8e5df" transform="translate(0 0)"/>
      </g>
    </g>
    <g>
      <g>
        <polyline points="3.52 15.27 3.52 14.5 3.75 14.5 3.75 13.2 3.52 13.2 3.52 10.74 3.75 10.74 3.75 9.67 3.88 9.67 3.88 8.84 3.52 8.84 3.52 7.91 1.14 7.91 1.14 13.22 0.86 13.22 0.86 14.56 1.09 14.56 1.09 15.27 3.54 15.27" style="fill: #e8e5df"/>
        <polygon points="1.14 13.22 3.52 13.2 3.52 9.76 1.14 9.76 1.14 13.22" style="fill: #edca9c"/>
        <rect height="1.74" style="fill: #b7967a" width="2.38" x="1.13" y="10.74"/>
      </g>
      <polyline points="1.14 9.73 3.75 9.73 3.75 13.4 1.14 13.4 1.14 9.88" style="fill: #b1aeaa"/>
      <rect height="2.76" style="fill: #303030" width="1.93" x="1.52" y="10.59"/>
      <g>
        <path d="M2.58,12.48h.13v.09h.22v.11H2.71V13H2.56l-.65-.23v-.11l.67.23v-.19H2.37v-.11h.21Z" style="fill: #e8e5df" transform="translate(0 0)"/>
        <path d="M2,12.22H1.91v-.5h0a.43.43,0,0,1,.16,0l.15.08a.87.87,0,0,0,.54.19h.16v.11H2.77a1,1,0,0,1-.57-.19l-.06,0a.2.2,0,0,0-.1,0Z" style="fill: #e8e5df" transform="translate(0 0)"/>
        <path d="M2.8,11h.13v.45H2.86a.51.51,0,0,1-.46-.21c0-.06-.11-.14-.21-.14s-.15.06-.15.12a.36.36,0,0,0,.11.22H2a.3.3,0,0,1-.09-.21A.25.25,0,0,1,2.17,11a.41.41,0,0,1,.35.2.36.36,0,0,0,.26.15h0Z" style="fill: #e8e5df" transform="translate(0 0)"/>
      </g>
    </g>
  </g>
  <g data-name="SQUARE X3" id="SQUARE_X3">
    <rect height="2.84" style="fill: #b1aeaa" width="2.84" x="12.91" y="13.06"/>
    <rect height="2.84" style="fill: #b1aeaa" width="2.84" x="12.91" y="7.66"/>
    <rect height="2.84" style="fill: #b1aeaa" width="2.71" x="19.86" y="10.37"/>
  </g>
  <g id="Connectors">
    <g data-name="Connector group" id="Connector_group">
      <path d="M3,1.38a2.43,2.43,0,0,0-2.4,2.4A2.43,2.43,0,0,0,3,6.17a2.43,2.43,0,0,0,2.4-2.4A2.43,2.43,0,0,0,3,1.38ZM3,5a1.15,1.15,0,0,1-1.2-1.2A1.15,1.15,0,0,1,3,2.58a1.15,1.15,0,0,1,1.2,1.2A1.21,1.21,0,0,1,3,5Z" id="connector10pin" style="fill: #e8e5df" transform="translate(0 0)"/>
      <path d="M10.14,1.38a2.43,2.43,0,0,0-2.4,2.4,2.4,2.4,0,1,0,4.79,0A2.43,2.43,0,0,0,10.14,1.38Zm0,3.59a1.15,1.15,0,0,1-1.2-1.2,1.2,1.2,0,1,1,2.4,0A1.21,1.21,0,0,1,10.14,5Z" id="connector9pin" style="fill: #e8e5df" transform="translate(0 0)"/>
      <path d="M17.33,1.38a2.43,2.43,0,0,0-2.4,2.4,2.4,2.4,0,1,0,4.79,0A2.43,2.43,0,0,0,17.33,1.38Zm0,3.59a1.15,1.15,0,0,1-1.2-1.2,1.15,1.15,0,0,1,1.2-1.2,1.21,1.21,0,0,1,1.2,1.2A1.29,1.29,0,0,1,17.33,5Z" id="connector6pin" style="fill: #e8e5df" transform="translate(0 0)"/>
      <path d="M24.52,1.38a2.43,2.43,0,0,0-2.4,2.4,2.4,2.4,0,0,0,4.79,0A2.43,2.43,0,0,0,24.52,1.38Zm0,3.59a1.15,1.15,0,0,1-1.2-1.2,1.2,1.2,0,0,1,2.4,0A1.21,1.21,0,0,1,24.52,5Z" id="connector5pin" style="fill: #e8e5df" transform="translate(0 0)"/>
    </g>
  </g>
  <g data-name="UP INSCRIPTION" id="UP_INSCRIPTION">
    <rect height="8.24" style="fill: #b7967a" width="4.39" x="15.47" y="7.66"/>
  </g>
  <g id="TEXT">
    <g>
      <path d="M16.66,19.61v.12a.53.53,0,0,1-.16.39.53.53,0,0,1-.39.16h-.84V18.11h.84a.55.55,0,0,1,.55.55v.12a.54.54,0,0,1-.19.42A.55.55,0,0,1,16.66,19.61Zm-.28-.83v-.11a.27.27,0,0,0-.08-.2.26.26,0,0,0-.19-.08h-.56V19h.56a.28.28,0,0,0,.27-.27Zm0,1v-.11a.27.27,0,0,0-.08-.2.26.26,0,0,0-.19-.08h-.56V20h.56a.28.28,0,0,0,.27-.27Z" style="fill: #fff" transform="translate(0 0)"/>
      <path d="M17.85,19v-.07l-.28-.41v1.66a.14.14,0,0,1-.14.14.13.13,0,0,1-.1,0,.13.13,0,0,1,0-.1v-2h.35l.34.49.35-.49h.35v2a.13.13,0,0,1,0,.1.14.14,0,0,1-.1,0,.14.14,0,0,1-.14-.14V18.49l-.28.39V19a.13.13,0,0,1,0,.1.14.14,0,0,1-.23-.1Z" style="fill: #fff" transform="translate(0 0)"/>
      <path d="M19.32,20.14v-2h1a.39.39,0,0,1,.29.12.4.4,0,0,1,.12.29V19a.41.41,0,0,1-.41.41h-.7v.69a.13.13,0,0,1,0,.1.13.13,0,0,1-.1,0,.14.14,0,0,1-.1,0A.13.13,0,0,1,19.32,20.14Zm.28-1h.7a.13.13,0,0,0,.1,0,.13.13,0,0,0,0-.1v-.51a.13.13,0,0,0,0-.1.14.14,0,0,0-.1,0h-.7Z" style="fill: #fff" transform="translate(0 0)"/>
      <path d="M21.47,20h.42V18.38h-.42a.14.14,0,0,1-.14-.14.14.14,0,0,1,.14-.14h.69V20h.28v-.57a.13.13,0,0,1,0-.1.14.14,0,0,1,.19,0,.13.13,0,0,1,0,.1v.71a.14.14,0,0,1,0,.1.13.13,0,0,1-.1,0H21.47a.13.13,0,0,1-.1,0,.14.14,0,0,1,0-.1.12.12,0,0,1,0-.09A.13.13,0,0,1,21.47,20Z" style="fill: #fff" transform="translate(0 0)"/>
      <path d="M23.36,20v-.67a.26.26,0,0,1,.08-.19.27.27,0,0,1,.2-.08v-.81a.13.13,0,0,1,0-.1.13.13,0,0,1,.1,0h.56a.13.13,0,0,1,.1,0,.13.13,0,0,1,0,.1v.81a.27.27,0,0,1,.19.08.27.27,0,0,1,.08.2V20a.28.28,0,0,1-.27.28h-.83a.26.26,0,0,1-.2-.08A.27.27,0,0,1,23.36,20Zm.28-.67V20h.83v-.67Zm.27-.95v.67h.29v-.67Z" style="fill: #fff" transform="translate(0 0)"/>
      <path d="M25.38,20V18.37a.27.27,0,0,1,.26-.26h.86a.25.25,0,0,1,.18.08.25.25,0,0,1,.08.19V20a.27.27,0,0,1-.26.27h-.85a.27.27,0,0,1-.26-.27Zm1.11,0V18.38h-.84V20Z" style="fill: #fff" transform="translate(0 0)"/>
    </g>
    <g>
      <polyline points="10.89 17.16 10.13 17.16 10.13 16.92 8.83 16.92 8.83 17.16 6.37 17.16 6.37 16.92 5.3 16.92 5.3 16.8 4.47 16.8 4.47 17.16 3.54 17.16 3.54 19.54 8.85 19.54 8.85 19.82 10.19 19.82 10.19 19.58 10.89 19.58 10.89 17.14" style="fill: #b1aeaa"/>
      <polygon points="8.85 19.54 8.83 17.16 5.39 17.16 5.39 19.54 8.85 19.54" style="fill: #edca9c"/>
      <rect height="2.38" style="fill: #b7967a" width="1.74" x="6.37" y="17.16"/>
    </g>
    <g>
      <path d="M18.15,11.16a2.94,2.94,0,0,0-.36-.29l-.1-.07h0a.3.3,0,0,1,0,.14.4.4,0,0,1-.79,0c0-.23.15-.36.41-.36a.71.71,0,0,1,.46.15l.35.27Zm-.83-.46a.21.21,0,1,0,.24.21A.22.22,0,0,0,17.32,10.7Z" style="fill: #424242" transform="translate(0 0)"/>
      <path d="M18.15,12.23a2.89,2.89,0,0,0-.36-.29l-.1-.07h0a.3.3,0,0,1,0,.14.4.4,0,0,1-.79,0c0-.23.15-.36.41-.36a.71.71,0,0,1,.46.15l.35.27Zm-.83-.46a.21.21,0,1,0,.24.21A.22.22,0,0,0,17.32,11.77Z" style="fill: #424242" transform="translate(0 0)"/>
      <path d="M17.09,13.34h-.16V12.7H17a.57.57,0,0,1,.55.3c.06.08.13.2.25.2A.18.18,0,0,0,18,13a.55.55,0,0,0-.13-.31h.18a.46.46,0,0,1,.1.29.32.32,0,0,1-.33.34c-.22,0-.3-.14-.41-.29a.42.42,0,0,0-.31-.21h0Z" style="fill: #424242" transform="translate(0 0)"/>
      <path d="M18.07,14.33v.2L17.53,14l-.59.51v-.21l.51-.42h-.51v-.15h1.13v.15H17.6Z" style="fill: #424242" transform="translate(0 0)"/>
    </g>
    <path d="M16.94,8.53c1.67-.13,1.85.95,1.31,1.5a1.76,1.76,0,0,1-1.16.19V9.37C18,9.17,17.85,8.88,16.94,8.53Z" style="fill: #303030" transform="translate(0 0)"/>
  </g>
  <g data-name="Layer 15" id="Layer_15">
    <circle cx="2.96" cy="3.7" id="circuitoCon_SDA" r="1.12" style="fill: none"/>
    <circle cx="10.13" cy="3.78" id="circuitoCon_SCL" r="1.12" style="fill: none"/>
    <circle cx="17.33" cy="3.74" id="circuitoCon_GND" r="1.12" style="fill: none"/>
    <circle cx="24.53" cy="3.66" id="circuitoCon_VCC" r="1.12" style="fill: none"/>
  </g>
</svg>