<?xml version="1.0" ?><svg data-name="Layer 11" height="20.3mm" id="Layer_11" viewBox="0 0 59.13 57.54" width="20.86mm" xmlns="http://www.w3.org/2000/svg" xmlns:xlink="http://www.w3.org/1999/xlink">
  <defs>
    <linearGradient data-name="Steel 02" gradientTransform="translate(58.4 -0.86) rotate(90)" gradientUnits="userSpaceOnUse" id="Steel_02" x1="8.94" x2="51.15" y1="37.36" y2="37.36">
      <stop offset="0" stop-color="#e5e2df"/>
      <stop offset="0" stop-color="#d8d4d0"/>
      <stop offset="0" stop-color="#ccc7c2"/>
      <stop offset="0.07" stop-color="#bdb9b4"/>
      <stop offset="0.15" stop-color="#a7a3a0"/>
      <stop offset="0.52" stop-color="#e0e1e2"/>
      <stop offset="0.62" stop-color="#d3d3d3"/>
      <stop offset="0.82" stop-color="#b2afac"/>
      <stop offset="0.88" stop-color="#a7a3a0"/>
      <stop offset="1" stop-color="#d1d3d4"/>
      <stop offset="1" stop-color="#a7a9ac"/>
    </linearGradient>
  </defs>
  <title>DFPlayer - Mini MP3 Player</title>
  <g data-name="Layer 6" id="Layer_6">
    <path d="M59.13,32.17a3.19,3.19,0,0,1-.5-.05V56.77H.71V.77H58.63v25a3.19,3.19,0,0,1,.5-.05V0H.13V57.54h59Z" style="fill: #867e68"/>
    <path d="M58.63,32.12a3.2,3.2,0,0,1,0-6.32V.77H.71v56H58.63Zm-1-28.62c0,2.73-4.24,2.73-4.24,0S57.58.77,57.58,3.5Zm-21.42,0c0,2.73-4.24,2.73-4.24,0S36.16.77,36.16,3.5Zm6.92.08c0,2.73-4.24,2.73-4.24,0S43.08.86,43.08,3.58Zm-18.74,0c0-2.73,4.24-2.73,4.24,0S24.34,6.31,24.34,3.58Zm-9.85,0c0,2.73-4.24,2.73-4.24,0S14.5.86,14.5,3.58ZM2.92,3.75C2.92,1,7.16,1,7.16,3.75S2.92,6.48,2.92,3.75Zm14.42,0c0-2.73,4.24-2.73,4.24,0S17.34,6.48,17.34,3.75ZM46,3.75C46,1,50.25,1,50.25,3.75S46,6.48,46,3.75ZM36.25,53.83c0,2.73-4.24,2.73-4.24,0S36.25,51.11,36.25,53.83Zm6.75.08c0,2.73-4.24,2.73-4.24,0S43,51.19,43,53.92Zm-14.08,0c0,2.73-4.24,2.73-4.24,0S28.91,51.19,28.91,53.92ZM3.09,54c0-2.73,4.24-2.73,4.24,0S3.09,56.73,3.09,54Zm7.08,0c0-2.73,4.24-2.73,4.24,0S10.17,56.73,10.17,54Zm7.25,0c0-2.73,4.24-2.73,4.24,0S17.42,56.73,17.42,54ZM46,54c0-2.73,4.24-2.73,4.24,0S46,56.73,46,54Zm7.25.08c0-2.73,4.24-2.73,4.24,0S53.26,56.81,53.26,54.08Z"/>
  </g>
  <g data-name="Layer 5" id="Layer_5">
    <rect height="2.84" rx="0.66" ry="0.66" style="fill: #b3a8a1" transform="translate(88.89 8.17) rotate(90)" width="2.44" x="39.14" y="47.11"/>
    <rect height="3.22" rx="0.56" ry="0.56" style="fill: #e7e1dd" transform="translate(87.61 7.58) rotate(90)" width="1.44" x="39.3" y="45.98"/>
  </g>
  <g id="SQUARE">
    <path d="M19.17,50.29l.05,0H5.61l.06,0Z" style="fill: #080a0b"/>
    <path d="M5.67,48.5h9.5c1.09,0,1.65-.25,1.33-.92h1c.74-.09.72-.6,0-.47l-1,0,0-2.41-2.84-.07a1.63,1.63,0,0,0-.85.45l-1,1.06c-.2.3-.59.41-1.15.33l-5.48-.54c-.55-.36-.75-.72.07-1.06l5.42.14A1.17,1.17,0,0,0,12,44.41l.8-1a1.15,1.15,0,0,1,.93-.19l4.26,0c1.13,0,1.47.77,1.38,1.87l0,4.52a.81.81,0,0,1-.13.57h17c.75.17,1-.22.9-1v-2.5q.54-1,1.08,0v.9H42V8.08l-2.12.17-.58,1.42c-.24,1-.85,1.22-1.67.92H24.91V8.5H2L2,32.21a10.86,10.86,0,0,1-1,6.54A2.86,2.86,0,0,0,.2,41.38v8.88H5.61C4.73,49.67,4.75,49.08,5.67,48.5Z" style="fill: url(#Steel_02)"/>
    <line style="fill: none;stroke: #e6d8c6;stroke-linecap: round;stroke-miterlimit: 10;stroke-width: 0.200000002980232px" x1="35.98" x2="25.09" y1="9.83" y2="8.71"/>
    <line style="fill: none;stroke: #e6d8c6;stroke-linecap: round;stroke-miterlimit: 10;stroke-width: 0.200000002980232px" x1="37.25" x2="25.46" y1="8.38" y2="8.08"/>
    <line style="fill: none;stroke: #e6d8c6;stroke-linecap: round;stroke-miterlimit: 10;stroke-width: 0.400000005960465px" x1="42.31" x2="42.31" y1="16.65" y2="41.43"/>
    <line style="fill: none;stroke: #e6d8c6;stroke-linecap: round;stroke-miterlimit: 10;stroke-width: 0.400000005960465px" x1="36.88" x2="0.2" y1="50.5" y2="50.5"/>
  </g>
  <g data-name="CONECT LITTLE" id="CONECT_LITTLE">
    <rect height="3.09" style="fill: #b5b29f" transform="translate(53.98 -33.02) rotate(90)" width="1.96" x="42.52" y="8.93"/>
    <rect height="3.09" style="fill: #b5b29f" transform="translate(57.1 -29.89) rotate(90)" width="1.96" x="42.52" y="12.06"/>
    <rect height="3.09" style="fill: #b5b29f" transform="translate(60.14 -26.85) rotate(90)" width="1.96" x="42.52" y="15.1"/>
    <rect height="3.09" style="fill: #b5b29f" transform="translate(63.43 -23.56) rotate(90)" width="1.96" x="42.52" y="18.39"/>
    <rect height="3.09" style="fill: #b5b29f" transform="translate(66.56 -20.43) rotate(90)" width="1.96" x="42.52" y="21.52"/>
    <rect height="3.09" style="fill: #b5b29f" transform="translate(69.6 -17.39) rotate(90)" width="1.96" x="42.52" y="24.56"/>
    <rect height="3.09" style="fill: #b5b29f" transform="translate(72.89 -14.1) rotate(90)" width="1.96" x="42.52" y="27.85"/>
    <rect height="3.09" style="fill: #b5b29f" transform="translate(76.02 -10.98) rotate(90)" width="1.96" x="42.52" y="30.97"/>
    <rect height="3.09" style="fill: #b5b29f" transform="translate(79.06 -7.93) rotate(90)" width="1.96" x="42.52" y="34.02"/>
    <line style="fill: none;stroke: #535656;stroke-miterlimit: 10;stroke-width: 0.300000011920929px" x1="20.04" x2="4.34" y1="49.33" y2="49.33"/>
    <g>
      <rect height="1.56" rx="0.42" ry="0.42" style="fill: #e7e6e8" transform="translate(61.76 -43.22) rotate(90)" width="2.61" x="51.18" y="8.49"/>
      <rect height="1.9" rx="0.73" ry="0.73" style="fill: #fffdf3" transform="translate(66.11 -47.57) rotate(90)" width="2.57" x="55.56" y="8.32"/>
      <rect height="3.17" rx="0.92" ry="0.92" style="fill: #cea468" transform="translate(64.27 -45.81) rotate(90)" width="2.06" x="54.01" y="7.65"/>
      <path d="M53.75,10.42q-.59.14-.58-.69l0-1.36c.15-.36.34-.47.63-.14A5,5,0,0,1,54,10,.42.42,0,0,1,53.75,10.42Z" style="fill: #757376"/>
      <path d="M56.48,10.42q-.59.14-.58-.69l0-1.36c.15-.36.34-.47.63-.14A5,5,0,0,1,56.72,10,.42.42,0,0,1,56.48,10.42Z" style="fill: #757376"/>
    </g>
    <g>
      <rect height="1.56" rx="0.42" ry="0.42" style="fill: #e7e6e8" transform="translate(67.4 -37.58) rotate(90)" width="2.61" x="51.18" y="14.13"/>
      <rect height="1.9" rx="0.73" ry="0.73" style="fill: #fffdf3" transform="translate(71.76 -41.93) rotate(90)" width="2.57" x="55.56" y="13.96"/>
      <rect height="3.17" rx="0.92" ry="0.92" style="fill: #cea468" transform="translate(69.91 -40.17) rotate(90)" width="2.06" x="54.01" y="13.29"/>
      <path d="M53.75,16.06q-.59.14-.58-.69l0-1.36c.15-.36.34-.47.63-.14A5,5,0,0,1,54,15.62.42.42,0,0,1,53.75,16.06Z" style="fill: #757376"/>
      <path d="M56.48,16.06q-.59.14-.58-.69l0-1.36c.15-.36.34-.47.63-.14a5,5,0,0,1,.15,1.76A.42.42,0,0,1,56.48,16.06Z" style="fill: #757376"/>
    </g>
    <g>
      <rect height="1.56" rx="0.42" ry="0.42" style="fill: #e7e6e8" transform="translate(73.73 -31.25) rotate(90)" width="2.61" x="51.18" y="20.47"/>
      <rect height="1.9" rx="0.73" ry="0.73" style="fill: #fffdf3" transform="translate(78.09 -35.6) rotate(90)" width="2.57" x="55.56" y="20.3"/>
      <rect height="3.17" rx="0.92" ry="0.92" style="fill: #cea468" transform="translate(76.25 -33.84) rotate(90)" width="2.06" x="54.01" y="19.62"/>
      <path d="M53.75,22.39q-.59.14-.58-.69l0-1.36c.15-.36.34-.47.63-.14A5,5,0,0,1,54,21.95.42.42,0,0,1,53.75,22.39Z" style="fill: #757376"/>
      <path d="M56.48,22.39q-.59.14-.58-.69l0-1.36c.15-.36.34-.47.63-.14a5,5,0,0,1,.15,1.76A.42.42,0,0,1,56.48,22.39Z" style="fill: #757376"/>
    </g>
    <g>
      <rect height="1.56" rx="0.42" ry="0.42" style="fill: #e7e6e8" transform="translate(101.02 -3.96) rotate(90)" width="2.61" x="51.18" y="47.75"/>
      <rect height="1.9" rx="0.73" ry="0.73" style="fill: #fffdf3" transform="translate(105.38 -8.31) rotate(90)" width="2.57" x="55.56" y="47.58"/>
      <rect height="3.17" rx="0.92" ry="0.92" style="fill: #cea468" transform="translate(103.53 -6.55) rotate(90)" width="2.06" x="54.01" y="46.91"/>
      <path d="M53.75,49.68q-.59.14-.58-.69l0-1.36c.15-.36.34-.47.63-.14A5,5,0,0,1,54,49.24.42.42,0,0,1,53.75,49.68Z" style="fill: #757376"/>
      <path d="M56.48,49.68q-.59.14-.58-.69l0-1.36c.15-.36.34-.47.63-.14a5,5,0,0,1,.15,1.76A.42.42,0,0,1,56.48,49.68Z" style="fill: #757376"/>
    </g>
    <rect height="1.63" rx="0.42" ry="0.42" style="fill: #e7e6e8" transform="translate(94.8 -9.7) rotate(90)" width="2.73" x="50.88" y="41.73"/>
    <rect height="1.98" rx="0.73" ry="0.73" style="fill: #e7e6e8" transform="translate(99.35 -14.25) rotate(90)" width="2.69" x="55.45" y="41.56"/>
    <rect height="3.31" rx="0.92" ry="0.92" style="fill: #e7e6e8" transform="translate(97 -11.9) rotate(90)" width="2.24" x="53.33" y="40.89"/>
    <rect height="1.91" style="fill: #2a292d" transform="translate(108.9 85.01) rotate(180)" width="2.53" x="53.18" y="41.55"/>
    <g>
      <path d="M55.1,42.8l.15-.18a.18.18,0,0,1-.17-.21.21.21,0,0,1,.22-.23.32.32,0,0,1,.15,0v.1a.23.23,0,0,0-.15,0,.13.13,0,0,0-.14.14.12.12,0,0,0,.13.13h.06v.08l-.15.18h.24v.09H55.1Z" style="fill: #fbfcfe"/>
      <path d="M54.85,42.63v.12l-.14.14h-.09v-.7h.08v.59Z" style="fill: #fbfcfe"/>
      <path d="M54,42.81a.93.93,0,0,1,0-.25.66.66,0,0,1,.06-.33.19.19,0,0,1,.14,0,.19.19,0,0,1,.14,0,.67.67,0,0,1,.06.33.93.93,0,0,1,0,.25c0,.1-.09.11-.17.11S54,42.9,54,42.81Zm.27-.06a1.6,1.6,0,0,0,0-.19.81.81,0,0,0,0-.24s-.06,0-.09,0-.07,0-.09,0a.81.81,0,0,0,0,.24,1.82,1.82,0,0,0,0,.19c0,.07,0,.08.1.08S54.21,42.82,54.23,42.74Z" style="fill: #fbfcfe"/>
    </g>
    <rect height="1.63" rx="0.42" ry="0.42" style="fill: #e7e6e8" transform="translate(89.22 -15.27) rotate(90)" width="2.73" x="50.88" y="36.16"/>
    <rect height="1.98" rx="0.73" ry="0.73" style="fill: #e7e6e8" transform="translate(93.71 -19.76) rotate(90)" width="2.69" x="55.39" y="35.98"/>
    <rect height="3.31" rx="0.92" ry="0.92" style="fill: #e7e6e8" transform="translate(91.42 -17.48) rotate(90)" width="2.24" x="53.33" y="35.31"/>
    <rect height="1.91" style="fill: #2a292d" transform="translate(108.9 73.86) rotate(180)" width="2.53" x="53.18" y="35.97"/>
    <g>
      <path d="M55.42,37.09v.12l-.14.14h-.09v-.7h.08v.59Z" style="fill: #fbfcfe"/>
      <path d="M54.53,37.22a.2.2,0,0,1,.1-.17.22.22,0,0,1-.12-.21.19.19,0,1,1,.39,0,.22.22,0,0,1-.12.21.2.2,0,0,1,.1.17.17.17,0,0,1-.34,0Zm.06-.36c0,.08.05.11.11.15s.11-.07.11-.15a.11.11,0,1,0-.22,0Zm.2.35c0-.05-.05-.09-.09-.11s-.09.05-.09.11,0,.07.09.07S54.78,37.27,54.78,37.21Z" style="fill: #fbfcfe"/>
      <path d="M54,37.22a.2.2,0,0,1,.1-.17.22.22,0,0,1-.12-.21.19.19,0,1,1,.39,0,.22.22,0,0,1-.12.21.2.2,0,0,1,.1.17.17.17,0,0,1-.34,0Zm.06-.36c0,.08.05.11.11.15s.11-.07.11-.15a.11.11,0,1,0-.22,0Zm.2.35c0-.05-.05-.09-.09-.11s-.09.05-.09.11,0,.07.09.07S54.21,37.27,54.21,37.21Z" style="fill: #fbfcfe"/>
    </g>
    <rect height="1.63" rx="0.42" ry="0.42" style="fill: #e7e6e8" width="2.73" x="50.34" y="30.35"/>
    <rect height="1.98" rx="0.73" ry="0.73" style="fill: #e7e6e8" width="2.69" x="50.37" y="25.69"/>
    <rect height="3.31" rx="0.92" ry="0.92" style="fill: #e7e6e8" width="2.24" x="50.59" y="27.31"/>
    <rect height="1.91" style="fill: #2a292d" transform="translate(80.63 -22.71) rotate(90)" width="2.53" x="50.4" y="28.01"/>
    <g>
      <path d="M51.87,28.35v0a.21.21,0,0,1-.22.23.27.27,0,0,1-.26-.3v0h.09v0c0,.09,0,.2.17.2a.12.12,0,0,0,.13-.14v-.1l.33,0v.29H52v-.22Z" style="fill: #fbfcfe"/>
      <path d="M51.64,29.19h-.09v-.07H51.4V29h.15v-.22h.1l.44.17v.08l-.46-.17V29h.14v.08h-.14Z" style="fill: #fbfcfe"/>
      <path d="M51.87,29.49v0a.21.21,0,0,1-.22.23.27.27,0,0,1-.26-.3v0h.09v0c0,.09,0,.2.17.2a.12.12,0,0,0,.13-.14v-.1l.33,0v.29H52V29.5Z" style="fill: #fbfcfe"/>
    </g>
  </g>
  <g id="TEXT">
    <g>
      <path d="M49.53,12.3v-.15c0-.13.05-.24.21-.24a.2.2,0,0,1,.21.23v.66a.6.6,0,0,1-.42.6l-.74.35a1,1,0,0,1-.94,0l-.76-.36a.6.6,0,0,1-.39-.63V12.1a.21.21,0,0,1,.42,0v.19Zm-2.42.4v.08c0,.17,0,.21.18.28l.74.35a.61.61,0,0,0,.27.08.73.73,0,0,0,.34-.1l.71-.33c.18-.08.17-.12.17-.3v0Z" style="fill: #fff"/>
      <path d="M50,14.77v1.76a.21.21,0,0,1-.42,0V15.16h-.64v1a.21.21,0,0,1-.42,0v-1H46.91c-.13,0-.21-.06-.21-.2s.08-.2.21-.2Z" style="fill: #fff"/>
      <path d="M46.91,18c-.13,0-.21-.06-.21-.2s.08-.2.21-.2h3v1.32a.57.57,0,0,1-.17.46.66.66,0,0,1-.55.19h-.57a.71.71,0,0,1-.54-.16.59.59,0,0,1-.2-.53V18Zm1.44,0v.88c0,.23.06.29.3.29h.58c.24,0,.3-.05.3-.29V18Z" style="fill: #fff"/>
      <path d="M47.1,21.67V22c0,.13,0,.26-.2.26s-.2-.15-.2-.26V21c0-.11,0-.26.2-.26s.2.13.2.26v.3h2.28V21c0-.11,0-.26.2-.26s.2.13.2.26v.4c0,.22,0,.28-.28.28Z" style="fill: #fff"/>
      <path d="M48.55,24c0-.11,0-.26.2-.26s.2.13.2.26v.52a.59.59,0,0,1-.18.49.6.6,0,0,1-.48.17l-1.36,0c-.12,0-.23-.05-.23-.18a.2.2,0,0,1,.2-.19l-.14-.26a.33.33,0,0,1-.06-.23V24a.59.59,0,0,1,.64-.63h.17a.53.53,0,0,1,.45.19.6.6,0,0,1,.15.44v.82h.09c.3,0,.35-.06.35-.34Zm-.84,0c0-.1,0-.25-.18-.25h-.27c-.13,0-.16.15-.16.25v.42l.23.42h.09c.22,0,.29-.06.29-.27Z" style="fill: #fff"/>
      <path d="M48.45,27.74h.23c.14,0,.28,0,.28.19s-.14.19-.28.19h-.16a.55.55,0,0,1-.25,0l-2.2-1c-.19-.08-.21-.13-.21-.3v-.29c0-.11,0-.26.2-.26s.2.13.2.26v.26l.61.28v0c0-.16.08-.17.21-.23l1.09-.47a.82.82,0,0,1,.33-.09h.18c.14,0,.28,0,.28.19s-.14.19-.28.19h-.23l-1.18.51v.08Z" style="fill: #fff"/>
      <path d="M46.7,29.82a.39.39,0,0,1,.11-.34l.15-.16a.51.51,0,0,1,.45-.19h.77a.54.54,0,0,1,.48.19l.12.13a.49.49,0,0,1,.17.42v.35a.53.53,0,0,1-.15.42l-.13.15a.58.58,0,0,1-.52.2h-.32c-.23,0-.3,0-.3-.26V29.5H47.4a.2.2,0,0,0-.12.06l-.11.1a.31.31,0,0,0-.08.25v.82c0,.13,0,.26-.2.26s-.2-.15-.2-.26Zm1.24-.32v1.1h.24a.23.23,0,0,0,.19,0l.13-.15a.26.26,0,0,0,0-.18v-.32a.3.3,0,0,0,0-.19l-.1-.13a.19.19,0,0,0-.18-.08Z" style="fill: #fff"/>
      <path d="M48.65,32c.15,0,.3,0,.3.19s-.13.19-.27.19h-.16l.26.3A.56.56,0,0,1,49,33v.31a.49.49,0,0,1-.16.37.61.61,0,0,1-.46.17c-.14,0-.28,0-.28-.19s.12-.19.25-.19a.28.28,0,0,0,.18,0c.07,0,.07-.14.07-.23v-.11a.29.29,0,0,0-.1-.19L48,32.37H47c-.14,0-.28,0-.28-.19S46.84,32,47,32Z" style="fill: #fff"/>
    </g>
    <g>
      <path d="M50,37.47V38h-3c-.13,0-.21-.06-.21-.2s.08-.2.21-.2h2.47l-.59-.38h-.07c-.13,0-.25,0-.25-.2s.12-.2.25-.2h.07l.59-.38H46.91c-.13,0-.21-.06-.21-.2s.08-.2.21-.2h3v.5l-.74.48Z" style="fill: #fff"/>
      <path d="M47.1,40v.29c0,.13,0,.26-.2.26s-.2-.15-.2-.26v-1c0-.11,0-.26.2-.26s.2.14.2.26v.3h1.45v-.3c0-.11,0-.26.2-.26s.2.14.2.26v.4c0,.22,0,.28-.28.28Zm2.66-.58c.14,0,.19.08.19.18v.22c0,.1,0,.18-.19.18h-.19c-.14,0-.19-.08-.19-.18v-.22c0-.1,0-.18.19-.18Z" style="fill: #fff"/>
      <path d="M48.14,42.16H47c-.14,0-.28,0-.28-.19s.14-.19.28-.19h1.68c.15,0,.3,0,.3.19s-.15.19-.29.19H48.6l.21.31a.61.61,0,0,1,.13.33v.28a.47.47,0,0,1-.15.35.66.66,0,0,1-.54.17l-1.26,0c-.14,0-.3,0-.3-.19s.14-.19.27-.19l1.24,0c.25,0,.34,0,.34-.26v-.13a.22.22,0,0,0,0-.12Z" style="fill: #fff"/>
      <path d="M47.1,45.77v.29c0,.13,0,.26-.2.26s-.2-.15-.2-.26v-1c0-.11,0-.26.2-.26s.2.13.2.26v.3h1.45v-.3c0-.11,0-.26.2-.26s.2.13.2.26v.4c0,.22,0,.28-.28.28Zm2.66-.58c.14,0,.19.08.19.18v.22c0,.1,0,.18-.19.18h-.19c-.14,0-.19-.08-.19-.18v-.22c0-.1,0-.18.19-.18Z" style="fill: #fff"/>
    </g>
  </g>
  <g id="Connectors">
    <circle cx="55.51" cy="3.6" data-cir-type="male" id="circuitoCon_VCC" r="2.05" style="fill: none;stroke: #e8e5df;stroke-miterlimit: 10"/>
    <circle cx="48.32" cy="3.6" data-cir-type="male" id="circuitoCon_RX" r="2.05" style="fill: none;stroke: #e8e5df;stroke-miterlimit: 10"/>
    <circle cx="41.13" cy="3.6" data-cir-type="male" id="circuitoCon_TX" r="2.05" style="fill: none;stroke: #e8e5df;stroke-miterlimit: 10"/>
    <circle cx="33.94" cy="3.6" data-cir-type="male" id="circuitoCon_DAC_R" r="2.05" style="fill: none;stroke: #e8e5df;stroke-miterlimit: 10"/>
    <circle cx="26.74" cy="3.6" data-cir-type="male" id="circuitoCon_DAC_L" r="2.05" style="fill: none;stroke: #e8e5df;stroke-miterlimit: 10"/>
    <circle cx="19.55" cy="3.6" data-cir-type="male" id="circuitoCon_SPK_1" r="2.05" style="fill: none;stroke: #e8e5df;stroke-miterlimit: 10"/>
    <circle cx="12.36" cy="3.6" data-cir-type="male" id="circuitoCon_GND-1" r="2.05" style="fill: none;stroke: #e8e5df;stroke-miterlimit: 10"/>
    <circle cx="5.16" cy="3.6" data-cir-type="male" id="circuitoCon_SPK_2" r="2.05" style="fill: none;stroke: #e8e5df;stroke-miterlimit: 10"/>
    <circle cx="55.51" cy="53.95" data-cir-type="male" id="circuitoCon_BUSY" r="2.05" style="fill: none;stroke: #e8e5df;stroke-miterlimit: 10"/>
    <circle cx="48.32" cy="53.95" data-cir-type="male" id="circuitoCon_USB_NEG" r="2.05" style="fill: none;stroke: #e8e5df;stroke-miterlimit: 10"/>
    <circle cx="41.13" cy="53.95" data-cir-type="male" id="circuitoCon_USB_POS" r="2.05" style="fill: none;stroke: #e8e5df;stroke-miterlimit: 10"/>
    <circle cx="33.94" cy="53.95" data-cir-type="male" id="circuitoCon_ADKEY_2" r="2.05" style="fill: none;stroke: #e8e5df;stroke-miterlimit: 10"/>
    <circle cx="26.74" cy="53.95" data-cir-type="male" id="circuitoCon_ADKEY_1" r="2.05" style="fill: none;stroke: #e8e5df;stroke-miterlimit: 10"/>
    <circle cx="19.55" cy="53.95" data-cir-type="male" id="circuitoCon_IO_2" r="2.05" style="fill: none;stroke: #e8e5df;stroke-miterlimit: 10"/>
    <circle cx="12.36" cy="53.95" data-cir-type="male" id="circuitoCon_GND-2" r="2.05" style="fill: none;stroke: #e8e5df;stroke-miterlimit: 10"/>
    <circle cx="5.16" cy="53.95" data-cir-type="male" id="circuitoCon_IO_1" r="2.05" style="fill: none;stroke: #e8e5df;stroke-miterlimit: 10"/>
  </g>
</svg>