<?xml version="1.0" ?><svg height="21.8mm" viewBox="0 0 51.1 61.79" width="18.03mm" xmlns="http://www.w3.org/2000/svg">
  <title>Triple-Axis Digital-Output Gyro Breakout - ITG-3200</title>
  <g data-name="Layer 6" id="Layer_6">
    <path d="M.84.24V62H51.91V.24Zm4,2A1.45,1.45,0,1,1,3.44,3.67,1.45,1.45,0,0,1,4.89,2.22ZM8.31,58.73a4.56,4.56,0,1,1,4.56-4.56A4.56,4.56,0,0,1,8.31,58.73ZM12.09,5.12a1.45,1.45,0,1,1,1.45-1.45A1.45,1.45,0,0,1,12.09,5.12Zm7.2,0a1.45,1.45,0,1,1,1.45-1.45A1.45,1.45,0,0,1,19.29,5.12Zm7.2,0a1.45,1.45,0,1,1,1.45-1.45A1.45,1.45,0,0,1,26.49,5.12Zm7.2,0a1.45,1.45,0,1,1,1.45-1.45A1.45,1.45,0,0,1,33.69,5.12ZM37.2,59.71a1,1,0,1,1,1-1A1,1,0,0,1,37.2,59.71Zm2.24-56a1.45,1.45,0,1,1,1.45,1.45A1.45,1.45,0,0,1,39.44,3.67Zm5,55.06A4.56,4.56,0,1,1,49,54.17,4.56,4.56,0,0,1,44.46,58.73ZM48.09,5.12a1.45,1.45,0,1,1,1.45-1.45A1.45,1.45,0,0,1,48.09,5.12Z" style="fill: #8a231e" transform="translate(-0.84 -0.23)"/>
  </g>
  <g data-name="Layer 4" id="Layer_4">
    <circle cx="19.06" cy="47.64" r="1.55" style="fill: #cf2f27"/>
    <circle cx="16.53" cy="41.35" r="1.55" style="fill: #cf2f27"/>
    <circle cx="35.97" cy="35.39" r="1.55" style="fill: #cf2f27"/>
    <circle cx="35.16" cy="27.32" r="1.55" style="fill: #cf2f27"/>
    <circle cx="35.79" cy="22.96" r="1.55" style="fill: #cf2f27"/>
    <circle cx="14.97" cy="21.41" r="1.55" style="fill: #cf2f27"/>
    <circle cx="14.88" cy="9.17" r="1.55" style="fill: #cf2f27"/>
    <circle cx="14.65" cy="26.7" r="1.55" style="fill: #cf2f27"/>
    <circle cx="7.47" cy="30.3" r="1.55" style="fill: #cf2f27"/>
    <polyline points="21.85 43.05 21.85 44.57 19.71 46.71" style="fill: none;stroke: #cf2f27;stroke-miterlimit: 10"/>
    <polyline points="17.94 47.48 16.66 47.48 12.22 43.04 10.41 43.04" style="fill: none;stroke: #cf2f27;stroke-miterlimit: 10"/>
    <polyline points="10.91 36.01 14.97 36.01 15.85 36.89 18.73 36.89" style="fill: none;stroke: #cf2f27;stroke-miterlimit: 10"/>
    <polyline points="18.44 35.39 16.53 35.39 11.33 30.19 8.32 30.19" style="fill: none;stroke: #cf2f27;stroke-miterlimit: 10"/>
    <polyline points="18.44 33.78 17.94 33.78 14.56 30.39 14.56 27.95" style="fill: none;stroke: #cf2f27;stroke-miterlimit: 10"/>
    <polyline points="11.22 24.79 13.38 24.79 14.43 25.84" style="fill: none;stroke: #cf2f27;stroke-miterlimit: 10"/>
    <line style="fill: none;stroke: #cf2f27;stroke-miterlimit: 10" x1="16.2" x2="19.36" y1="21.52" y2="21.65"/>
    <polyline points="11.07 17.98 16.2 17.98 17.37 19.15 21.07 19.15" style="fill: none;stroke: #cf2f27;stroke-miterlimit: 10"/>
    <polyline points="29.2 29.01 29.2 27.95 29.87 27.28 33.88 27.28" style="fill: none;stroke: #cf2f27;stroke-miterlimit: 10"/>
    <polyline points="36.88 22.76 38.38 21.27 39.82 21.27" style="fill: none;stroke: #cf2f27;stroke-miterlimit: 10"/>
    <polyline points="41.09 22.76 41.09 28.14 36.84 32.39 32.79 32.39" style="fill: none;stroke: #cf2f27;stroke-miterlimit: 10"/>
    <polyline points="32.47 33.84 35.35 33.84 37.78 36.27 46.61 36.27" style="fill: none;stroke: #cf2f27;stroke-miterlimit: 10"/>
    <line style="fill: none;stroke: #cf2f27;stroke-miterlimit: 10" x1="46.07" x2="46.07" y1="22.76" y2="34.76"/>
    <polyline points="46.18 20.28 46.18 18.23 43.04 15.09 5.32 15.09 5.32 17.68" style="fill: none;stroke: #cf2f27;stroke-miterlimit: 10"/>
    <polyline points="32.19 38.35 33.61 38.35 38.66 43.41 41.81 43.41" style="fill: none;stroke: #cf2f27;stroke-miterlimit: 10"/>
    <polygon points="16.98 16.23 42.56 16.23 45.05 18.71 44.5 19.26 39.24 19.26 37.88 20.63 34.23 20.63 33.46 21.4 33.46 23.78 34.44 24.77 33 26.21 29.2 26.21 27.61 27.8 21.24 27.8 20.86 28.18 20.86 29.4 18.55 31.7 16.02 29.17 16.95 28.23 16.95 25.75 15.95 24.75 14.3 24.75 14.3 23.99 16.07 23.99 17.34 22.71 20.8 22.71 20.8 17.9 18.03 17.9 16.37 16.24 16.98 16.23" style="fill: #cf2f27"/>
    <path d="M35.19,37.88H37l.34-.34h2.07l.88.88h9.27V34.79l-1.2-1.2V24.2l.76-.76V19.9l-.54-.54s.24-2,0-2H47.41L44,14H7.16V11.34l.42.42H17l5.82-5.82,1.55,1.55H28l2.05-2.05,2.08,2.08h3.72l1.73-1.73,1.7,1.7h3.36l1.72-1.72,1.75,1.75H50.5v44l0,.78A6.81,6.81,0,0,0,44.12,48a6.56,6.56,0,0,0-5.54,3.56,6.2,6.2,0,0,0-.58,3,6,6,0,0,0,.89,2.78A4.3,4.3,0,0,0,37.41,57a2.15,2.15,0,0,0-1.22.25,1.81,1.81,0,0,0-.59.59,2.44,2.44,0,0,0,.22,2.58H10.13l.88-.53a6.54,6.54,0,0,0,3.56-6,6.8,6.8,0,0,0-3-5.16A6.27,6.27,0,0,0,7.16,48a6.49,6.49,0,0,0-4.31,3.47l-.6-.32V7.48H5.39V16H3.68v4.25h8.79l1.79-.83,0,1.32-.71,1.45.75,1.35V24h-1l-.83-.83H3.76v4.37h3l.07,1.72a2,2,0,0,0-.56,1,2.24,2.24,0,0,0,.92,2.15A2.05,2.05,0,0,0,9,32.73a2,2,0,0,0,1.1-1.1h1.93L15.42,35H13.35l-1.13-1.13H3.68v4.4H18v1a2.28,2.28,0,0,0-2.85,3.17,2.39,2.39,0,0,0,4.44-.65l1.82,1v1.62l-1.31,1.21a2.68,2.68,0,0,0-1.46.23,2.64,2.64,0,0,0-.87.67l-5.49-5.45H3.72v4.37h9.35l3.21,3.21L18.1,49a2.13,2.13,0,0,0,1.48,1.08,2.17,2.17,0,0,0,1.88-.69,3.08,3.08,0,0,0,.83-2.48L24,44.36H32V42.27h.94V41.4h.35v-.92h.92L39.72,46H49V41.31h-9V43Z" style="fill: #cf2f27" transform="translate(-0.84 -0.23)"/>
  </g>
  <g data-name="Layer 3" id="Layer_3">
    <rect height="6.96" style="fill: #695851" width="4.45" x="20.11" y="18.17"/>
    <rect height="0.97" style="fill: #cdc1b2" width="1.91" x="30.88" y="33.29"/>
    <rect height="0.97" style="fill: #cdc1b2" width="1.91" x="30.88" y="31.81"/>
    <rect height="0.97" style="fill: #cdc1b2" width="1.91" x="30.88" y="34.9"/>
    <rect height="0.97" style="fill: #cdc1b2" width="1.91" x="30.88" y="36.21"/>
    <rect height="0.97" style="fill: #cdc1b2" width="1.91" x="30.88" y="37.65"/>
    <rect height="0.97" style="fill: #cdc1b2" width="1.91" x="30.88" y="39.15"/>
    <rect height="0.97" style="fill: #cdc1b2" width="1.91" x="18.11" y="33.29"/>
    <rect height="0.97" style="fill: #cdc1b2" width="1.91" x="18.11" y="31.81"/>
    <rect height="0.97" style="fill: #cdc1b2" width="1.91" x="18.11" y="34.9"/>
    <rect height="0.97" style="fill: #cdc1b2" width="1.91" x="18.11" y="36.21"/>
    <rect height="0.97" style="fill: #cdc1b2" width="1.91" x="18.11" y="37.65"/>
    <rect height="0.97" style="fill: #cdc1b2" width="1.91" x="18.11" y="39.15"/>
    <rect height="0.97" style="fill: #cdc1b2" transform="translate(70.45 13.96) rotate(90)" width="1.91" x="27.6" y="42.26"/>
    <rect height="0.97" style="fill: #cdc1b2" transform="translate(71.94 12.47) rotate(90)" width="1.91" x="29.08" y="42.26"/>
    <rect height="0.97" style="fill: #cdc1b2" transform="translate(68.84 15.56) rotate(90)" width="1.91" x="25.99" y="42.26"/>
    <rect height="0.97" style="fill: #cdc1b2" transform="translate(67.53 16.88) rotate(90)" width="1.91" x="24.68" y="42.26"/>
    <rect height="0.97" style="fill: #cdc1b2" transform="translate(66.09 18.31) rotate(90)" width="1.91" x="23.24" y="42.26"/>
    <rect height="0.97" style="fill: #cdc1b2" transform="translate(64.59 19.81) rotate(90)" width="1.91" x="21.74" y="42.26"/>
    <rect height="0.97" style="fill: #cdc1b2" transform="translate(57.62 1.12) rotate(90)" width="1.91" x="27.6" y="29.42"/>
    <rect height="0.97" style="fill: #cdc1b2" transform="translate(59.1 -0.36) rotate(90)" width="1.91" x="29.08" y="29.42"/>
    <rect height="0.97" style="fill: #cdc1b2" transform="translate(56.01 2.73) rotate(90)" width="1.91" x="25.99" y="29.42"/>
    <rect height="0.97" style="fill: #cdc1b2" transform="translate(54.7 4.04) rotate(90)" width="1.91" x="24.68" y="29.42"/>
    <rect height="0.97" style="fill: #cdc1b2" transform="translate(53.26 5.48) rotate(90)" width="1.91" x="23.24" y="29.42"/>
    <rect height="0.97" style="fill: #cdc1b2" transform="translate(51.76 6.98) rotate(90)" width="1.91" x="21.74" y="29.42"/>
    <rect height="1.28" style="fill: #cdc1b2" width="1.38" x="19.87" y="29.98"/>
    <polygon points="30.57 29.98 31.9 31.31 30.36 31.31 30.57 29.98" style="fill: #cdc1b2"/>
    <polygon points="30.56 41.28 31.29 41.28 31.29 40.84 31.46 40.67 31.93 40.67 31.93 41.92 31.81 42.03 30.5 42.03 30.5 41.77 30.56 41.28" style="fill: #cdc1b2"/>
    <rect height="0.68" style="fill: #cdc1b2" width="1.38" x="19.93" y="41.35"/>
    <rect height="11.33" style="fill: #4d4c50" width="11.42" x="19.69" y="30.44"/>
    <rect height="2.33" style="fill: #b1aeaa" transform="translate(35.42 14.23) rotate(90)" width="2.69" x="9.56" y="24.19"/>
    <rect height="2.33" style="fill: #b1aeaa" transform="translate(30.05 19.59) rotate(90)" width="2.69" x="4.19" y="24.19"/>
    <rect height="4.75" style="fill: #edca9c" transform="translate(32.84 16.82) rotate(90)" width="2.38" x="7.13" y="22.99"/>
    <rect height="3.25" style="fill: #ab7e5e" transform="translate(32.83 16.83) rotate(90)" width="2.38" x="7.12" y="23.74"/>
    <rect height="2.33" style="fill: #b1aeaa" transform="translate(46.4 25.2) rotate(90)" width="2.69" x="9.56" y="35.17"/>
    <rect height="3.02" style="fill: #b1aeaa" transform="translate(82.34 -10.8) rotate(90)" width="3.03" x="45.36" y="34.79"/>
    <rect height="3.02" style="fill: #b1aeaa" transform="translate(77.36 -5.82) rotate(90)" width="3.03" x="40.38" y="34.79"/>
    <rect height="2.33" style="fill: #b1aeaa" transform="translate(41.03 30.57) rotate(90)" width="2.69" x="4.19" y="35.17"/>
    <rect height="4.75" style="fill: #edca9c" transform="translate(43.82 27.8) rotate(90)" width="2.38" x="7.13" y="33.97"/>
    <rect height="3.25" style="fill: #ab7e5e" transform="translate(43.81 27.81) rotate(90)" width="2.38" x="7.12" y="34.72"/>
    <rect height="2.33" style="fill: #b1aeaa" transform="translate(53.33 32.14) rotate(90)" width="2.69" x="9.56" y="42.1"/>
    <rect height="2.33" style="fill: #b1aeaa" transform="translate(47.96 37.5) rotate(90)" width="2.69" x="4.19" y="42.1"/>
    <rect height="4.75" style="fill: #edca9c" transform="translate(50.75 34.73) rotate(90)" width="2.38" x="7.13" y="40.9"/>
    <rect height="3.25" style="fill: #ab7e5e" transform="translate(50.74 34.74) rotate(90)" width="2.38" x="7.12" y="41.65"/>
    <rect height="2.33" style="fill: #b1aeaa" transform="translate(89.29 -3.82) rotate(90)" width="2.69" x="45.52" y="42.1"/>
    <rect height="2.33" style="fill: #b1aeaa" transform="translate(83.92 1.54) rotate(90)" width="2.69" x="40.15" y="42.1"/>
    <rect height="4.75" style="fill: #edca9c" transform="translate(86.71 -1.23) rotate(90)" width="2.38" x="43.08" y="40.9"/>
    <rect height="3.25" style="fill: #ab7e5e" transform="translate(86.7 -1.22) rotate(90)" width="2.38" x="43.08" y="41.65"/>
    <rect height="2.33" style="fill: #b1aeaa" transform="translate(28.26 7.07) rotate(90)" width="2.69" x="9.56" y="17.04"/>
    <rect height="2.33" style="fill: #b1aeaa" transform="translate(22.89 12.44) rotate(90)" width="2.69" x="4.19" y="17.04"/>
    <rect height="4.75" style="fill: #edca9c" transform="translate(25.68 9.67) rotate(90)" width="2.38" x="7.13" y="15.83"/>
    <rect height="3.25" transform="translate(25.67 9.67) rotate(90)" width="2.38" x="7.12" y="16.58"/>
    <rect height="2.42" style="fill: #b1aeaa" width="0.79" x="43.62" y="34.9"/>
    <rect height="0.93" style="fill: #b1aeaa" width="0.86" x="45.71" y="34.37"/>
    <rect height="0.8" style="fill: #b1aeaa" width="1.08" x="39.24" y="35.67"/>
    <rect height="3.02" style="fill: #b1aeaa" transform="translate(67.82 -25.39) rotate(90)" width="3.03" x="45.4" y="20.24"/>
    <rect height="3.02" style="fill: #b1aeaa" transform="translate(62.84 -20.41) rotate(90)" width="3.03" x="40.41" y="20.24"/>
    <rect height="2.42" style="fill: #b1aeaa" width="0.79" x="43.65" y="20.35"/>
    <rect height="0.93" style="fill: #b1aeaa" width="0.86" x="45.75" y="19.81"/>
    <rect height="0.8" style="fill: #b1aeaa" width="1.08" x="39.28" y="21.12"/>
    <circle cx="35.97" cy="35.39" r="0.63"/>
    <circle cx="35.16" cy="27.32" r="0.63"/>
    <circle cx="18.73" cy="27.64" r="0.63"/>
    <circle cx="14.65" cy="26.7" r="0.63"/>
    <circle cx="7.46" cy="30.3" r="0.63"/>
    <circle cx="16.53" cy="41.35" r="0.63"/>
    <circle cx="19.06" cy="47.64" r="0.63"/>
    <circle cx="34.35" cy="47.64" r="0.63"/>
    <circle cx="15.28" cy="21.12" r="0.63"/>
    <circle cx="14.88" cy="9.17" r="0.63"/>
    <circle cx="35.68" cy="23.03" r="0.63"/>
    <polygon points="24.07 23.44 23.65 23.44 23.65 22.96 20.02 22.96 20.02 23.5 19.93 23.5 19.93 24.4 20.02 24.4 20.02 24.69 21.78 24.69 21.78 25.02 22.86 25.02 22.86 24.69 23.65 24.69 23.65 24.34 24.07 24.34 24.07 23.44" style="fill: #bfacad"/>
    <path d="M21.54,22.64v-.3h-.41v-1h.26V21h.72a.27.27,0,0,0,0-.49h-.67V19.7L21,19.31v-.42h.53v-.42H25v1.88h-.89a.28.28,0,0,0-.15.29.29.29,0,0,0,.15.2h1v1.82Z" style="fill: #bfacad" transform="translate(-0.84 -0.23)"/>
    <rect height="8.62" rx="1.41" ry="1.41" style="fill: none;stroke: #fff;stroke-miterlimit: 10;stroke-width: 0.30000000000000004px" width="5.79" x="19.36" y="17.13"/>
    <circle cx="8.05" cy="10.02" r="0.96" style="fill: #cf2f27;stroke: #000;stroke-miterlimit: 10;stroke-width: 0.2px"/>
    <circle cx="32.84" cy="3.44" r="1.45" style="fill: none"/>
    <circle cx="25.64" cy="3.44" r="1.45" style="fill: none"/>
    <circle cx="11.24" cy="3.44" r="1.45" style="fill: none"/>
    <circle cx="18.44" cy="3.44" r="1.45" style="fill: none"/>
    <circle cx="47.24" cy="3.44" r="1.45" style="fill: none"/>
    <circle cx="4.04" cy="3.44" r="1.45" style="fill: none"/>
    <circle cx="40.04" cy="3.44" r="1.45" style="fill: none"/>
    <path d="M9.08.24h1.35l-1.55,2H8.35L6.8.24H7.9l.64.83Z" style="fill: #fff" transform="translate(-0.84 -0.23)"/>
    <path d="M16.19.24h1.35L16,2.24h-.54l-1.55-2H15l.64.83Z" style="fill: #fff" transform="translate(-0.84 -0.23)"/>
    <path d="M23.3.24h1.35l-1.55,2h-.54L21,.24h1.1l.64.83Z" style="fill: #fff" transform="translate(-0.84 -0.23)"/>
    <path d="M30.4.24h1.35l-1.55,2h-.54l-1.55-2h1.1l.64.83Z" style="fill: #fff" transform="translate(-0.84 -0.23)"/>
    <path d="M37.51.24h1.35l-1.55,2h-.54l-1.55-2h1.1l.64.83Z" style="fill: #fff" transform="translate(-0.84 -0.23)"/>
    <path d="M51.88,2.23l-1.55-2h1.1l.52.68" style="fill: #fff" transform="translate(-0.84 -0.23)"/>
    <path d="M44.62.24H46l-1.55,2h-.54l-1.55-2h1.1l.64.83Z" style="fill: #fff" transform="translate(-0.84 -0.23)"/>
    <path d="M2.43,1.19,1.66,2V5.69L3.29,7.31H7L8.72,5.58l1.75,1.75H14.1l1.78-1.78,1.81,1.81h3.79L23.23,5.6,25,7.34h3.58l1.79-1.79,1.77,1.77h3.77L37.59,5.6l1.8,1.8H43l1.83-1.83,1.89,1.89h3.55l1.29-1.3" style="fill: none;stroke: #fff;stroke-miterlimit: 10" transform="translate(-0.84 -0.23)"/>
    <polygon points="50.34 5.59 50.9 5 51.06 4.83 51.06 6.3 50.34 5.59" style="fill: #fff"/>
    <polygon points="1.24 0.61 1.83 0.01 3.08 0.01 3.22 0.01 3.25 0.01 1.94 1.31 1.24 0.61" style="fill: #fff"/>
    <path d="M7.35,0" style="fill: #fff" transform="translate(-0.84 -0.23)"/>
  </g>
  <g data-name="Layer 7" id="Layer_7">
    <path d="M24.36,55.46c2.21.09,2.8,2.72,1.27,3.56" style="fill: none;stroke: #fff;stroke-linecap: round;stroke-linejoin: round;stroke-width: 0.5px" transform="translate(-0.84 -0.23)"/>
    <polygon points="25.36 59.46 23.87 59.46 23.87 58.06 25.36 59.46" style="fill: #fff;stroke: #fff;stroke-linecap: round;stroke-linejoin: round;stroke-width: 0.5px"/>
    <line style="fill: none;stroke: #fff;stroke-linecap: round;stroke-linejoin: round;stroke-width: 0.5px" x1="22.35" x2="27.15" y1="57.15" y2="57.15"/>
    <polygon points="26.79 55.82 27.77 56.8 26.8 57.76 26.79 55.82" style="fill: #fff;stroke: #fff;stroke-linecap: round;stroke-linejoin: round;stroke-width: 0.5px"/>
    <path d="M22,54.36c-.09,2.21-2.72,2.8-3.56,1.27" style="fill: none;stroke: #fff;stroke-linecap: round;stroke-linejoin: round;stroke-width: 0.5px" transform="translate(-0.84 -0.23)"/>
    <polygon points="16.89 55.97 16.89 54.48 18.28 54.48 16.89 55.97" style="fill: #fff;stroke: #fff;stroke-linecap: round;stroke-linejoin: round;stroke-width: 0.5px"/>
    <line style="fill: none;stroke: #fff;stroke-linecap: round;stroke-linejoin: round;stroke-width: 0.5px" x1="19.19" x2="19.19" y1="52.96" y2="57.75"/>
    <polygon points="20.53 57.4 19.55 58.38 18.58 57.41 20.53 57.4" style="fill: #fff;stroke: #fff;stroke-linecap: round;stroke-linejoin: round;stroke-width: 0.5px"/>
    <circle cx="32.27" cy="54.88" r="0.56" style="fill: #fff"/>
    <circle cx="32.27" cy="54.88" r="1.96" style="fill: none;stroke: #fff;stroke-miterlimit: 10"/>
    <path d="M32.88,58.88a3.79,3.79,0,1,0-1.17-7.31,4,4,0,0,0-2.3,2.68" style="fill: none;stroke: #fff;stroke-linecap: round;stroke-miterlimit: 10" transform="translate(-0.84 -0.23)"/>
    <path d="M28.62,54.11l.87.55.81-.35a.26.26,0,0,1,.22,0,.27.27,0,0,1,.09.32l-.74.82-.51.59-1.13-1.63a.36.36,0,0,1,.09-.2A.38.38,0,0,1,28.62,54.11Z" style="fill: #fff" transform="translate(-0.84 -0.23)"/>
    <path d="M30.22,55.77" style="fill: #fff" transform="translate(-0.84 -0.23)"/>
    <path d="M17.37,53.25,16.66,52a.26.26,0,0,1,0-.14.2.2,0,0,1,.2-.19c.13,0,.18.1.23.2l.56,1,.56-1c.06-.1.1-.2.23-.2a.2.2,0,0,1,.2.19.26.26,0,0,1,0,.14l-.71,1.22.71,1.22a.26.26,0,0,1,0,.14.2.2,0,0,1-.2.19c-.13,0-.18-.1-.23-.2l-.56-1-.56,1c-.06.1-.1.2-.23.2a.2.2,0,0,1-.2-.19.26.26,0,0,1,0-.14Z" style="fill: #fff" transform="translate(-0.84 -0.23)"/>
    <path d="M25.2,54.61a.2.2,0,1,1-.4,0V53.33l-.79-1V51.9a.2.2,0,1,1,.4,0v.27l.59.76.59-.76V51.9a.2.2,0,1,1,.4,0v.41l-.79,1Z" style="fill: #fff" transform="translate(-0.84 -0.23)"/>
    <g>
      <path d="M27.62,25c-.11,0-.2-.08-.2-.2s.1-.18.2-.21l2.71-.77c.1,0,.2.08.2.19a.24.24,0,0,1-.2.22l-.48.15v.85l.48.15a.24.24,0,0,1,.2.22c0,.11-.1.22-.2.19Zm.74-.21h0l1.08.31v-.63Z" style="fill: #fff" transform="translate(-0.84 -0.23)"/>
      <path d="M27.81,22.79v.15c0,.13,0,.24-.2.24s-.2-.11-.2-.23v-.67a.6.6,0,0,1,.4-.6l.7-.35a.92.92,0,0,1,.9,0l.73.36a.61.61,0,0,1,.38.63V23a.2.2,0,0,1-.4,0v-.19Zm2.31-.4v-.08c0-.17,0-.21-.17-.28l-.71-.35A.56.56,0,0,0,29,21.6a.68.68,0,0,0-.33.1L28,22c-.17.08-.17.12-.17.3v0Z" style="fill: #fff" transform="translate(-0.84 -0.23)"/>
      <path d="M27.41,18.8a.4.4,0,0,1,.4-.4h2.31a.39.39,0,0,1,.4.4V20a.39.39,0,0,1-.4.4H27.81a.4.4,0,0,1-.4-.4Zm2.71,0H27.81V20h2.31Z" style="fill: #fff" transform="translate(-0.84 -0.23)"/>
    </g>
    <g>
      <path d="M4.46,13.7H3.82a.2.2,0,1,1,0-.4h.63a.4.4,0,0,1,.16,0l1.95.76c.1,0,.18.08.18.2s-.08.16-.18.2l-1.95.76a.42.42,0,0,1-.16,0H3.82a.2.2,0,1,1,0-.4h.64L6,14.29Z" style="fill: #fff" transform="translate(-0.84 -0.23)"/>
      <path d="M6.73,11.88a.6.6,0,0,1-.38.6l-.74.37a.91.91,0,0,1-.42.11.87.87,0,0,1-.44-.11L4,12.48a.6.6,0,0,1-.38-.62v-.68a.19.19,0,0,1,.2-.2.19.19,0,0,1,.2.2v.67c0,.17,0,.2.17.28l.7.35a.62.62,0,0,0,.3.08.56.56,0,0,0,.28-.08l.69-.34c.16-.08.18-.12.18-.3v-.65a.19.19,0,0,1,.2-.2.19.19,0,0,1,.2.2Z" style="fill: #fff" transform="translate(-0.84 -0.23)"/>
      <path d="M6.73,9.08a.6.6,0,0,1-.38.6l-.74.37a.91.91,0,0,1-.42.11A.87.87,0,0,1,4.75,10L4,9.68a.6.6,0,0,1-.38-.62V8.39a.19.19,0,0,1,.2-.2.19.19,0,0,1,.2.2v.67c0,.17,0,.2.17.28l.7.35a.62.62,0,0,0,.3.08.56.56,0,0,0,.28-.08l.69-.34c.16-.08.18-.12.18-.3V8.39a.19.19,0,0,1,.2-.2.19.19,0,0,1,.2.2Z" style="fill: #fff" transform="translate(-0.84 -0.23)"/>
    </g>
    <g>
      <path d="M11.67,13.07H11a.2.2,0,1,1,0-.4h.63a.4.4,0,0,1,.16,0l1.95.76c.1,0,.18.08.18.2s-.08.16-.18.2l-1.95.76a.42.42,0,0,1-.16,0H11a.2.2,0,1,1,0-.4h.64l1.53-.59Z" style="fill: #fff" transform="translate(-0.84 -0.23)"/>
      <path d="M13.54,10.89v-.59a.2.2,0,1,1,.4,0v1.58a.2.2,0,0,1-.4,0v-.59H11.23v.59a.2.2,0,0,1-.4,0V10.31a.2.2,0,1,1,.4,0v.59Z" style="fill: #fff" transform="translate(-0.84 -0.23)"/>
      <path d="M12,8.21a.9.9,0,0,1,.44-.1,1,1,0,0,1,.48.13l.74.37a.52.52,0,0,1,0,1l-.74.37a1,1,0,0,1-.48.13A.9.9,0,0,1,12,10l-.8-.4a.52.52,0,0,1,0-1Zm-.6.75c-.06,0-.12.05-.12.14s.06.1.12.14l.72.36a.62.62,0,0,0,.32.09.54.54,0,0,0,.26-.07l.76-.38c.06,0,.12-.06.12-.14S13.48,9,13.42,9l-.76-.38a.54.54,0,0,0-.26-.07.62.62,0,0,0-.32.09Z" style="fill: #fff" transform="translate(-0.84 -0.23)"/>
    </g>
    <g>
      <path d="M20.38,14.09a.2.2,0,0,1-.4,0v-.79h.79a.6.6,0,0,1,.63.64v.69a.61.61,0,0,1-.16.46.58.58,0,0,1-.49.19h-1a.82.82,0,0,1-.58-.21l-.6-.47a.61.61,0,0,1-.27-.56v-.54a.2.2,0,1,1,.4,0V14c0,.22,0,.2.16.34l.56.44a.76.76,0,0,0,.52.12h.78c.22,0,.29,0,.29-.28V14c0-.14,0-.26-.21-.26h-.41Z" style="fill: #fff" transform="translate(-0.84 -0.23)"/>
      <path d="M18.49,11.14a.2.2,0,1,1,0-.4H21.4v.53l-2.4,1H21.2a.2.2,0,1,1,0,.4H18.29v-.53l2.43-1H18.49Z" style="fill: #fff" transform="translate(-0.84 -0.23)"/>
      <path d="M18.69,9.77v.15c0,.13,0,.24-.2.24s-.2-.11-.2-.23V9.26a.6.6,0,0,1,.4-.6l.7-.35a.92.92,0,0,1,.9,0l.73.36a.61.61,0,0,1,.38.63V10a.2.2,0,0,1-.4,0V9.77ZM21,9.37V9.29c0-.17,0-.21-.17-.28l-.71-.35a.56.56,0,0,0-.26-.08.68.68,0,0,0-.33.1L18.86,9c-.17.08-.17.12-.17.3v0Z" style="fill: #fff" transform="translate(-0.84 -0.23)"/>
    </g>
    <g>
      <path d="M28,13.47v-.59a.2.2,0,1,1,.4,0v1.58a.2.2,0,0,1-.4,0v-.59H25.73v.59a.2.2,0,0,1-.4,0V12.88a.2.2,0,1,1,.4,0v.59Z" style="fill: #fff" transform="translate(-0.84 -0.23)"/>
      <path d="M25.54,11.08a.2.2,0,1,1,0-.4h2.91v.53l-2.4,1h2.19a.2.2,0,1,1,0,.4H25.33v-.53l2.43-1H25.54Z" style="fill: #fff" transform="translate(-0.84 -0.23)"/>
      <path d="M25.73,9.62h.14a.2.2,0,1,1,0,.4h-.54V8h.54a.2.2,0,1,1,0,.4h-.14v.39h2.51a.2.2,0,1,1,0,.4H25.73Z" style="fill: #fff" transform="translate(-0.84 -0.23)"/>
    </g>
    <g>
      <path d="M35.61,14.29a.6.6,0,0,1-.38.6l-.74.37a.91.91,0,0,1-.42.11.87.87,0,0,1-.44-.11l-.74-.37a.6.6,0,0,1-.38-.62v-.68a.19.19,0,0,1,.2-.2.19.19,0,0,1,.2.2v.67c0,.17,0,.2.17.28l.7.35a.63.63,0,0,0,.3.08.56.56,0,0,0,.28-.08l.69-.34c.16-.08.18-.12.18-.3v-.65a.19.19,0,0,1,.2-.2.19.19,0,0,1,.2.2Z" style="fill: #fff" transform="translate(-0.84 -0.23)"/>
      <path d="M35.21,10.95a.2.2,0,1,1,.4,0v1.77H32.7a.2.2,0,1,1,0-.4h2.51Z" style="fill: #fff" transform="translate(-0.84 -0.23)"/>
      <path d="M32.7,10a.2.2,0,1,1,0-.4h.92l-1-1.22a.26.26,0,0,1-.08-.16A.2.2,0,0,1,32.71,8a.24.24,0,0,1,.17.09L34.05,9.5l1.18-1.37A.23.23,0,0,1,35.4,8a.2.2,0,0,1,.21.19c0,.08-.07.15-.12.22l-1,1.17h.92a.2.2,0,1,1,0,.4Z" style="fill: #fff" transform="translate(-0.84 -0.23)"/>
    </g>
    <g>
      <path d="M42.24,13.45a.52.52,0,0,1,.33-.14.45.45,0,0,1,.45.5v.88a.59.59,0,0,1-.13.4.5.5,0,0,1-.37.19.21.21,0,0,1-.24-.21.19.19,0,0,1,.2-.19c.12,0,.14-.06.14-.18v-.87s0-.13,0-.13-.09.06-.12.07L40.7,15.15a.48.48,0,0,1-.33.13.44.44,0,0,1-.38-.21.53.53,0,0,1-.07-.33v-.85a.57.57,0,0,1,.13-.4.55.55,0,0,1,.38-.19.2.2,0,0,1,.23.21.18.18,0,0,1-.19.19c-.14,0-.16.07-.16.19v.85s0,.14.06.14.08,0,.11-.06Z" style="fill: #fff" transform="translate(-0.84 -0.23)"/>
      <path d="M40.31,12.41v.15c0,.13,0,.24-.2.24s-.2-.11-.2-.23V11.9a.6.6,0,0,1,.4-.6l.7-.35a.92.92,0,0,1,.9,0l.73.36a.61.61,0,0,1,.38.63v.66a.2.2,0,0,1-.4,0v-.19Zm2.31-.4v-.08c0-.17,0-.21-.17-.28l-.71-.35a.56.56,0,0,0-.26-.08.68.68,0,0,0-.33.1l-.67.33c-.17.08-.17.12-.17.3v0Z" style="fill: #fff" transform="translate(-0.84 -0.23)"/>
      <path d="M40.12,9.38c-.11,0-.2-.08-.2-.2S40,9,40.12,9l2.71-.77c.1,0,.2.08.2.19a.24.24,0,0,1-.2.22l-.48.15V9.6l.48.15A.24.24,0,0,1,43,10c0,.11-.1.22-.2.19Zm.74-.21h0l1.08.31V8.86Z" style="fill: #fff" transform="translate(-0.84 -0.23)"/>
    </g>
    <g>
      <path d="M49.33,13.72a.52.52,0,0,1,.33-.14.45.45,0,0,1,.45.5V15a.59.59,0,0,1-.13.4.5.5,0,0,1-.37.19.21.21,0,0,1-.24-.21.19.19,0,0,1,.2-.19c.12,0,.14-.06.14-.18v-.87s0-.13,0-.13-.09.06-.12.07l-1.76,1.37a.48.48,0,0,1-.33.13.44.44,0,0,1-.38-.21A.53.53,0,0,1,47,15v-.85a.57.57,0,0,1,.13-.4.55.55,0,0,1,.38-.19.2.2,0,0,1,.23.21.18.18,0,0,1-.19.19c-.14,0-.16.07-.16.19V15s0,.14.06.14.08,0,.11-.06Z" style="fill: #fff" transform="translate(-0.84 -0.23)"/>
      <path d="M50.11,11.6a.6.6,0,0,1-.38.6l-.74.37a.91.91,0,0,1-.42.11.87.87,0,0,1-.44-.11l-.74-.37a.6.6,0,0,1-.38-.62V10.9a.19.19,0,0,1,.2-.2.19.19,0,0,1,.2.2v.67c0,.17,0,.2.17.28l.7.35a.63.63,0,0,0,.3.08.56.56,0,0,0,.28-.08l.69-.34c.16-.08.18-.12.18-.3V10.9a.19.19,0,0,1,.2-.2.19.19,0,0,1,.2.2Z" style="fill: #fff" transform="translate(-0.84 -0.23)"/>
      <path d="M49.71,8a.2.2,0,1,1,.4,0V9.79H47.2a.2.2,0,1,1,0-.4h2.51Z" style="fill: #fff" transform="translate(-0.84 -0.23)"/>
    </g>
    <g>
      <path d="M8.59,18.37a.34.34,0,0,1,0-.17.37.37,0,0,1,0-.18l.14-.28a.2.2,0,0,1,.36,0l.14.28a.37.37,0,0,1,0,.18.33.33,0,0,1,0,.17l-.15.3a.19.19,0,0,1-.36,0Zm.28.23s0,0,.05,0,0,0,.05,0l.13-.27a.23.23,0,0,0,0-.12.21.21,0,0,0,0-.1L9,17.82s0,0-.05,0,0,0-.05,0l-.14.28a.21.21,0,0,0,0,.1.23.23,0,0,0,0,.12Z" style="fill: #fff" transform="translate(-0.84 -0.23)"/>
      <path d="M8.15,17.78H7.93a.07.07,0,1,1,0-.15h.59a.07.07,0,1,1,0,.15H8.3v.86h.22a.07.07,0,0,1,0,.15H7.93a.07.07,0,0,1,0-.15h.22Z" style="fill: #fff" transform="translate(-0.84 -0.23)"/>
      <path d="M7.54,17.63a.22.22,0,0,1,.22.14L7.9,18a.34.34,0,0,1,0,.16.33.33,0,0,1,0,.17l-.14.28a.22.22,0,0,1-.23.14H7.27a.07.07,0,0,1-.07-.08.07.07,0,0,1,.07-.07h.25c.06,0,.07,0,.1-.06l.13-.26a.23.23,0,0,0,0-.11.21.21,0,0,0,0-.1l-.13-.26c0-.06,0-.07-.11-.07H7.27a.07.07,0,0,1-.07-.07.07.07,0,0,1,.07-.07Z" style="fill: #fff" transform="translate(-0.84 -0.23)"/>
    </g>
  </g>
  <g id="Connectors">
    <g>
      <circle cx="47.24" cy="3.44" id="circuitoCon_SCL" r="2.05" style="fill: none;stroke: #9a916c;stroke-width: 1.22399997711182px"/>
      <circle cx="40.04" cy="3.44" id="circuitoCon_SDA" r="2.05" style="fill: none;stroke: #9a916c;stroke-width: 1.22399997711182px"/>
      <circle cx="32.84" cy="3.44" id="circuitoCon_CLKIN" r="2.05" style="fill: none;stroke: #9a916c;stroke-width: 1.22399997711182px"/>
      <circle cx="25.64" cy="3.44" id="circuitoCon_INT" r="2.05" style="fill: none;stroke: #9a916c;stroke-width: 1.22399997711182px"/>
      <circle cx="18.44" cy="3.44" id="circuitoCon_GND" r="2.05" style="fill: none;stroke: #9a916c;stroke-width: 1.22399997711182px"/>
      <circle cx="11.24" cy="3.44" id="circuitoCon_VLOGIC" r="2.05" style="fill: none;stroke: #9a916c;stroke-width: 1.22399997711182px"/>
      <circle cx="4.04" cy="3.44" id="circuitoCon_VCC" r="2.05" style="fill: none;stroke: #9a916c;stroke-width: 1.22399997711182px"/>

      <circle cx="47.24" cy="3.44" data-name="circuitoCon_SCL" id="circuitoCon_SCL-2" r="2.05" style="fill: none;stroke: #e8e5df;stroke-width: 1.22399997711182px"/>
      <circle cx="40.04" cy="3.44" data-name="circuitoCon_SDA" id="circuitoCon_SDA-2" r="2.05" style="fill: none;stroke: #e8e5df;stroke-width: 1.22399997711182px"/>
      <circle cx="32.84" cy="3.44" data-name="circuitoCon_CLKIN" id="circuitoCon_CLKIN-2" r="2.05" style="fill: none;stroke: #e8e5df;stroke-width: 1.22399997711182px"/>
      <circle cx="25.64" cy="3.44" data-name="circuitoCon_INT" id="circuitoCon_INT-2" r="2.05" style="fill: none;stroke: #e8e5df;stroke-width: 1.22399997711182px"/>
      <circle cx="18.44" cy="3.44" data-name="circuitoCon_GND" id="circuitoCon_GND-2" r="2.05" style="fill: none;stroke: #e8e5df;stroke-width: 1.22399997711182px"/>
      <circle cx="11.24" cy="3.44" data-name="circuitoCon_VLOGIC" id="circuitoCon_VLOGIC-2" r="2.05" style="fill: none;stroke: #e8e5df;stroke-width: 1.22399997711182px"/>
      <circle cx="4.04" cy="3.44" data-name="circuitoCon_VCC" id="circuitoCon_VCC-2" r="2.05" style="fill: none;stroke: #e8e5df;stroke-width: 1.22399997711182px"/>
    </g>
  </g>
</svg>