<?xml version="1.0" ?><svg height="16.63mm" viewBox="0 0 47.13 47.13" width="16.63mm" xmlns="http://www.w3.org/2000/svg">
  <title>Gas Sensor Breakout</title>
  <g data-name="Layer 4" id="Layer_4">
    <path d="M16.43,34.08a1.58,1.58,0,0,1-.5.34A1.58,1.58,0,0,0,16.43,34.08Z" style="fill: none" transform="translate(0.02)"/>
    <path d="M11.4,25a1.58,1.58,0,0,1-1.58-1.58h0a1.58,1.58,0,1,0,3.15,0h0A1.58,1.58,0,0,1,11.4,25Z" style="fill: none" transform="translate(0.02)"/>
    <path d="M27.35,4.35a1.58,1.58,0,0,1,.5-.34A1.58,1.58,0,0,0,27.35,4.35Z" style="fill: none" transform="translate(0.02)"/>
    <path d="M16.89,33h0a1.57,1.57,0,0,1-.27.88A1.57,1.57,0,0,0,16.89,33Z" style="fill: none" transform="translate(0.02)"/>
    <path d="M34.36,12.27a1.58,1.58,0,0,0-1.58,1.58s0,0,0,.06a1.57,1.57,0,0,1,3.14,0s0,0,0-.06A1.58,1.58,0,0,0,34.36,12.27Z" style="fill: none" transform="translate(0.02)"/>
    <path d="M27.85,6.92a1.58,1.58,0,0,1-.5-.34A1.58,1.58,0,0,0,27.85,6.92Z" style="fill: none" transform="translate(0.02)"/>
    <path d="M13.74,33a1.57,1.57,0,0,0,.27.88,1.57,1.57,0,0,1-.27-.88Z" style="fill: none" transform="translate(0.02)"/>
    <path d="M36.76,23.47h0a1.57,1.57,0,0,1,.27-.88A1.57,1.57,0,0,0,36.76,23.47Z" style="fill: none" transform="translate(0.02)"/>
    <path d="M39.64,22.59a1.57,1.57,0,0,1,.27.88h0A1.57,1.57,0,0,0,39.64,22.59Z" style="fill: none" transform="translate(0.02)"/>
    <path d="M39.91,23.47h0a1.57,1.57,0,0,1-.27.88A1.57,1.57,0,0,0,39.91,23.47Z" style="fill: #8a231e" transform="translate(0.02)"/>
    <path d="M36.76,23.47a1.57,1.57,0,0,0,.27.88,1.57,1.57,0,0,1-.27-.88Z" style="fill: #8a231e" transform="translate(0.02)"/>
    <path d="M11.4,21.89a1.58,1.58,0,0,0-1.58,1.58h0a1.58,1.58,0,0,1,3.15,0h0A1.58,1.58,0,0,0,11.4,21.89Z" style="fill: #8a231e" transform="translate(0.02)"/>
    <path d="M16.62,32.08a1.57,1.57,0,0,1,.27.88h0A1.57,1.57,0,0,0,16.62,32.08Z" style="fill: #8a231e" transform="translate(0.02)"/>
    <path d="M13.74,33h0a1.57,1.57,0,0,1,.27-.88A1.57,1.57,0,0,0,13.74,33Z" style="fill: #8a231e" transform="translate(0.02)"/>
    <circle cx="38.35" cy="23.47" r="2.34" style="fill: none"/>
    <path d="M15.37,11.5A2.48,2.48,0,1,0,17.85,14,2.48,2.48,0,0,0,15.37,11.5Zm0,4.76A2.29,2.29,0,1,1,17.66,14,2.29,2.29,0,0,1,15.37,16.26Z" style="fill: #ef2f27;stroke: #8a231e;stroke-miterlimit: 10" transform="translate(0.02)"/>
    <circle cx="28.49" cy="5.47" r="2.48" style="fill: none"/>
    <path d="M28.47,39a2.48,2.48,0,1,0,2.48,2.48A2.48,2.48,0,0,0,28.47,39Zm0,4A1.52,1.52,0,1,1,30,41.47,1.52,1.52,0,0,1,28.47,43Z" style="fill: none" transform="translate(0.02)"/>
    <circle cx="15.39" cy="13.97" r="2.48" style="fill: none"/>
    <path d="M15.37,30.49A2.48,2.48,0,1,0,17.85,33,2.48,2.48,0,0,0,15.37,30.49Zm0,4A1.52,1.52,0,1,1,16.89,33,1.52,1.52,0,0,1,15.37,34.48Z" style="fill: none" transform="translate(0.02)"/>
    <circle cx="21.29" cy="5.47" r="2.48" style="fill: none"/>
    <circle cx="21.29" cy="41.47" r="2.48" style="fill: none"/>
    <path d="M36.84,14a2.48,2.48,0,1,0-2.48,2.48A2.48,2.48,0,0,0,36.84,14Zm-4,0a1.52,1.52,0,1,1,1.52,1.52A1.52,1.52,0,0,1,32.84,14Z" style="fill: none" transform="translate(0.02)"/>
    <circle cx="38.35" cy="23.47" r="2.34" style="fill: none"/>
    <circle cx="11.43" cy="23.58" r="2.48" style="fill: none"/>
    <circle cx="15.39" cy="13.97" r="2.48" style="fill: none"/>
    <circle cx="21.29" cy="41.47" r="2.48" style="fill: none"/>
    <circle cx="11.43" cy="23.58" r="2.48" style="fill: none"/>
    <circle cx="15.39" cy="32.96" r="2.48" style="fill: none"/>
    <circle cx="28.49" cy="41.47" r="2.48" style="fill: none"/>
    <circle cx="21.29" cy="5.47" r="2.48" style="fill: none"/>
    <circle cx="38.35" cy="23.47" r="2.34" style="fill: none"/>
    <circle cx="28.49" cy="5.47" r="2.48" style="fill: none"/>
    <circle cx="34.39" cy="13.97" r="2.48" style="fill: none"/>
    <circle cx="15.39" cy="13.97" r="2.48" style="fill: none"/>
    <circle cx="21.29" cy="41.47" r="2.48" style="fill: none"/>
    <circle cx="15.39" cy="32.96" r="2.48" style="fill: none"/>
    <circle cx="11.43" cy="23.58" r="2.48" style="fill: none"/>
    <circle cx="28.49" cy="41.47" r="2.48" style="fill: none"/>
    <circle cx="21.29" cy="5.47" r="2.48" style="fill: none"/>
    <circle cx="28.49" cy="5.47" r="2.48" style="fill: none"/>
    <circle cx="38.35" cy="23.47" r="2.34" style="fill: none"/>
    <circle cx="34.39" cy="13.97" r="2.48" style="fill: none"/>
    <path d="M23.54.5A23.06,23.06,0,1,0,46.61,23.56,23.06,23.06,0,0,0,23.54.5ZM8.93,23.58a2.48,2.48,0,1,1,2.48,2.48A2.48,2.48,0,0,1,8.93,23.58Zm6.44,11.86A2.48,2.48,0,1,1,17.85,33,2.48,2.48,0,0,1,15.37,35.44Zm0-19A2.48,2.48,0,1,1,17.85,14,2.48,2.48,0,0,1,15.37,16.45Zm5.9,27.5a2.48,2.48,0,1,1,2.48-2.48A2.48,2.48,0,0,1,21.27,43.94Zm0-36a2.48,2.48,0,1,1,2.48-2.48A2.48,2.48,0,0,1,21.27,7.94Zm7.2,36a2.48,2.48,0,1,1,2.48-2.48A2.48,2.48,0,0,1,28.47,43.94Zm0-36a2.48,2.48,0,1,1,2.48-2.48A2.48,2.48,0,0,1,28.47,7.94Zm3.42,6a2.48,2.48,0,1,1,2.48,2.48A2.48,2.48,0,0,1,31.89,14Zm2.48,21a2,2,0,1,1,2-2A2,2,0,0,1,34.36,34.93Zm4-9.13a2.34,2.34,0,1,1,2.34-2.34A2.34,2.34,0,0,1,38.33,25.8Z" style="fill: #cf2f27;stroke: #8a231e;stroke-miterlimit: 10" transform="translate(0.02)"/>
  </g>
  <g data-name="Layer 3" id="Layer_3">
    <circle cx="34.39" cy="32.96" r="2.48" style="fill: none;stroke: #8a231e;stroke-miterlimit: 10"/>
    <circle cx="38.35" cy="23.47" r="2.48" style="fill: none;stroke: #8a231e;stroke-miterlimit: 10"/>
    <line style="fill: none;stroke: #8a231e;stroke-miterlimit: 10" x1="12.52" x2="26.47" y1="26.06" y2="40"/>
    <line style="fill: none;stroke: #8a231e;stroke-miterlimit: 10" x1="13.53" x2="27.83" y1="24.89" y2="39.19"/>
  </g>
  <g data-name="Layer 1" id="Layer_1">
    <g id="breadboard">
      <g id="icon">
        <circle cx="15.39" cy="13.97" id="connector0pin" r="1.87" style="fill: none;stroke: #e2e2e2;stroke-width: 0.864000022411346px"/>
        <circle cx="15.39" cy="32.96" id="connector1pin" r="1.87" style="fill: none;stroke: #e2e2e2;stroke-width: 0.864000022411346px"/>
        <circle cx="34.39" cy="13.97" id="connector2pin" r="1.87" style="fill: none;stroke: #e2e2e2;stroke-width: 0.864000022411346px"/>
        <circle cx="34.39" cy="32.96" id="connector3pin" r="1.87" style="fill: none;stroke: #e2e2e2;stroke-width: 0.864000022411346px"/>
        <circle cx="11.43" cy="23.47" id="connector4pin" r="1.87" style="fill: none;stroke: #e2e2e2;stroke-width: 0.864000022411346px"/>
        <circle cx="38.35" cy="23.47" id="connector5pin" r="1.87" style="fill: none;stroke: #e2e2e2;stroke-width: 0.864000022411346px"/>
        <circle cx="28.49" cy="5.47" id="connector6pin" r="1.87" style="fill: none;stroke: #e2e2e2;stroke-width: 0.864000022411346px"/>
        <circle cx="21.29" cy="5.47" id="connector7pin" r="1.87" style="fill: none;stroke: #e2e2e2;stroke-width: 0.864000022411346px"/>
        <circle cx="21.29" cy="41.47" id="connector8pin" r="1.87" style="fill: none;stroke: #e2e2e2;stroke-width: 0.864000022411346px"/>
        <circle cx="28.49" cy="41.47" id="connector9pin" r="1.87" style="fill: none;stroke: #e2e2e2;stroke-width: 0.864000022411346px"/>
      </g>
    </g>
    <polygon points="30.73 37.66 26.71 37.66 24.83 39.35 23.14 37.66 19.12 37.66 17.25 39.53 17.25 43.58 18.87 45.28 23.13 45.28 24.83 43.58 26.46 45.28 30.72 45.28 32.42 43.58 32.42 39.35 30.73 37.66" style="fill: none;stroke: #f4fbfa;stroke-miterlimit: 10;stroke-width: 0.6000000000000001px"/>
    <polygon points="30.73 1.66 26.71 1.66 24.83 3.35 23.14 1.66 19.12 1.66 17.25 3.53 17.25 7.58 18.87 9.28 23.13 9.28 24.83 7.58 26.46 9.28 30.72 9.28 32.42 7.58 32.42 3.35 30.73 1.66" style="fill: none;stroke: #f4fbfa;stroke-miterlimit: 10;stroke-width: 0.6000000000000001px"/>
  </g>
  <g data-name="Layer 5" id="Layer_5">
    <g>
      <path d="M5.3,16.71a.65.65,0,0,1-.42.18.56.56,0,0,1-.57-.63v-1.1a.74.74,0,0,1,.16-.51.63.63,0,0,1,.47-.24.27.27,0,0,1,.3.27.24.24,0,0,1-.26.23c-.15,0-.17.08-.17.22v1.09s0,.17.06.17S5,16.32,5,16.3l2.21-1.72a.6.6,0,0,1,.41-.17.56.56,0,0,1,.48.27.67.67,0,0,1,.09.42v1.06a.71.71,0,0,1-.17.5.68.68,0,0,1-.48.24.26.26,0,0,1-.29-.26.22.22,0,0,1,.24-.24c.17,0,.19-.09.19-.24V15.09c0-.06,0-.17-.07-.17s-.1.06-.14.08Z" style="fill: #fff" transform="translate(0.02)"/>
      <path d="M4.31,18.56a.51.51,0,0,1,.13-.43l.18-.21a.6.6,0,0,1,.54-.25h.93a.63.63,0,0,1,.58.24l.15.17a.64.64,0,0,1,.2.53v.44a.69.69,0,0,1-.18.53l-.16.2a.68.68,0,0,1-.63.25H5.67c-.28,0-.36,0-.36-.33V18.16H5.16a.24.24,0,0,0-.14.07l-.13.12a.4.4,0,0,0-.09.32v1c0,.16,0,.33-.24.33s-.24-.19-.24-.33Zm1.48-.4v1.39h.29c.09,0,.17,0,.23-.06l.16-.19a.34.34,0,0,0,.06-.23v-.41a.39.39,0,0,0-.06-.25l-.12-.17a.22.22,0,0,0-.22-.1Z" style="fill: #fff" transform="translate(0.02)"/>
      <path d="M6,21.56H4.65c-.17,0-.33,0-.33-.24s.17-.24.33-.24h2c.18,0,.36,0,.36.24s-.18.24-.35.24H6.6l.26.39a.79.79,0,0,1,.16.42v.36a.61.61,0,0,1-.18.45c-.19.22-.39.21-.65.22l-1.51.05c-.17,0-.36,0-.36-.24s.17-.24.33-.24l1.48,0c.3,0,.41,0,.41-.33v-.16a.29.29,0,0,0,0-.15Z" style="fill: #fff" transform="translate(0.02)"/>
      <path d="M6.53,25.3c0-.1,0-.27-.14-.27s-.11.06-.14.13l-.55,1.2a.68.68,0,0,1-.68.47c-.49,0-.72-.33-.72-.79V25.3a.87.87,0,0,1,.15-.6c.07-.09.16-.22.28-.22a.25.25,0,0,1,.24.25.23.23,0,0,1-.08.19.51.51,0,0,0-.1.39v.65c0,.17,0,.4.27.4.12,0,.19-.14.24-.25L5.82,25a.59.59,0,0,1,.59-.42.61.61,0,0,1,.61.66V26a.7.7,0,0,1-.17.56c-.08.09-.14.19-.27.19a.24.24,0,0,1-.24-.25.26.26,0,0,1,.1-.21.35.35,0,0,0,.1-.29Z" style="fill: #fff" transform="translate(0.02)"/>
      <path d="M6.12,27.78a.65.65,0,0,1,.63.31.86.86,0,0,1,.27.68v.38a.86.86,0,0,1-.27.68.65.65,0,0,1-.63.31H5.21a.7.7,0,0,1-.65-.33.8.8,0,0,1-.25-.66v-.38a.8.8,0,0,1,.25-.66.7.7,0,0,1,.65-.33Zm-.91.48c-.1,0-.17,0-.29.18a.43.43,0,0,0-.13.33v.38a.44.44,0,0,0,.13.33c.12.14.19.17.29.17h.91c.1,0,.17,0,.29-.17a.44.44,0,0,0,.13-.33v-.38a.43.43,0,0,0-.13-.33c-.12-.14-.19-.18-.29-.18Z" style="fill: #fff" transform="translate(0.02)"/>
      <path d="M6.66,31c.18,0,.36,0,.36.24s-.16.24-.32.24H6.5l.31.38a.72.72,0,0,1,.21.42v.39a.63.63,0,0,1-.19.47.7.7,0,0,1-.55.21c-.17,0-.34,0-.34-.24s.14-.25.3-.25a.31.31,0,0,0,.21-.05c.08-.06.08-.17.08-.29v-.14a.37.37,0,0,0-.12-.24l-.56-.67H4.65c-.17,0-.33,0-.33-.24s.17-.24.33-.24Z" style="fill: #fff" transform="translate(0.02)"/>
    </g>
    <g>
      <path d="M17,20a.25.25,0,0,1,.5,0v1h-1a.74.74,0,0,1-.79-.8v-.86a.76.76,0,0,1,.2-.58.72.72,0,0,1,.62-.24h1.25a1,1,0,0,1,.73.26l.76.59a.77.77,0,0,1,.34.7v.67a.25.25,0,0,1-.5,0v-.6c0-.27,0-.26-.21-.42l-.7-.55a1,1,0,0,0-.65-.16h-1c-.28,0-.36.06-.36.35v.8c0,.18,0,.33.26.33H17Z" style="fill: #fff" transform="translate(0.02)"/>
      <path d="M17.91,22.81c0-.14,0-.33.24-.33s.24.17.24.33v.66a.76.76,0,0,1-.22.62.69.69,0,0,1-.57.22L16,24.35c-.14,0-.28-.07-.28-.23a.24.24,0,0,1,.24-.25l-.17-.33a.44.44,0,0,1-.07-.3V22.8a.75.75,0,0,1,.17-.55.67.67,0,0,1,.59-.25h.21a.63.63,0,0,1,.54.24.79.79,0,0,1,.18.56v1h.11c.36,0,.42-.08.42-.43Zm-1,0c0-.13,0-.32-.21-.32h-.32c-.16,0-.2.2-.2.31v.53l.28.53h.1c.27,0,.35-.08.35-.34Z" style="fill: #fff" transform="translate(0.02)"/>
      <path d="M17.91,26c0-.1,0-.27-.14-.27s-.11.06-.14.13l-.55,1.2a.68.68,0,0,1-.68.47c-.49,0-.72-.33-.72-.79V26a.87.87,0,0,1,.15-.6c.07-.09.16-.22.28-.22a.25.25,0,0,1,.24.25.23.23,0,0,1-.08.18.51.51,0,0,0-.1.39v.65c0,.17,0,.4.27.4.12,0,.19-.14.24-.25l.52-1.13a.59.59,0,0,1,.59-.42.61.61,0,0,1,.61.66v.82a.7.7,0,0,1-.17.56c-.08.09-.14.19-.27.19a.24.24,0,0,1-.24-.25.26.26,0,0,1,.1-.21.35.35,0,0,0,.1-.29Z" style="fill: #fff" transform="translate(0.02)"/>
    </g>
    <g>
      <path d="M23.15,10v1.4c0,.74-.45,1.07-1.16,1.07a1,1,0,0,1-.79-.33,1.08,1.08,0,0,1-.91.33,1,1,0,0,1-1-1.07V10Zm-3.39.5v.9c0,.36.16.57.54.57s.66-.12.66-.57v-.9Zm1.7,0v.9c0,.36.16.57.54.57s.66-.12.66-.57v-.9Z" style="fill: #fff" transform="translate(0.02)"/>
      <path d="M19.75,15h1a.25.25,0,1,1,0,.5H19.5a.23.23,0,0,1-.25-.25v-2a.25.25,0,1,1,.5,0V14h2.89v-.74a.25.25,0,0,1,.5,0v1.24H19.75Z" style="fill: #fff" transform="translate(0.02)"/>
    </g>
    <g>
      <path d="M28.89,32.1H27.44a.25.25,0,1,1,0-.5h3.39a.25.25,0,0,1,0,.5H29.39v1.47h1.45a.25.25,0,0,1,0,.5H27.44a.25.25,0,1,1,0-.5h1.45Z" style="fill: #fff" transform="translate(0.02)"/>
      <path d="M27.69,36.57h1a.25.25,0,0,1,0,.5H27.44a.23.23,0,0,1-.25-.25v-2a.25.25,0,1,1,.5,0v.74h2.89v-.74a.25.25,0,1,1,.5,0v1.24H27.69Z" style="fill: #fff" transform="translate(0.02)"/>
    </g>
    <g>
      <path d="M28.15,11.15a.25.25,0,0,1,.5,0v1h-1a.75.75,0,0,1-.79-.8v-.86a.76.76,0,0,1,.2-.58.72.72,0,0,1,.62-.24h1.25a1,1,0,0,1,.73.26l.75.59a.77.77,0,0,1,.34.7v.67a.25.25,0,1,1-.5,0v-.6c0-.27,0-.26-.21-.42l-.7-.55a1,1,0,0,0-.65-.16h-1c-.28,0-.36.06-.36.35v.8c0,.18,0,.33.26.33h.51Z" style="fill: #fff" transform="translate(0.02)"/>
      <path d="M30.52,15a.25.25,0,0,1,0,.5H26.87v-.66l3-1.31H27.13a.25.25,0,1,1,0-.5h3.64v.66l-3,1.31h2.78Z" style="fill: #fff" transform="translate(0.02)"/>
      <path d="M30.27,16.66v-.19c0-.17.06-.31.25-.31s.25.14.25.29v.84a.75.75,0,0,1-.5.76l-.88.44a1.15,1.15,0,0,1-1.13,0L27.35,18a.76.76,0,0,1-.47-.79v-.83a.25.25,0,1,1,.5,0v.24Zm-2.89.5v.09c0,.21,0,.26.21.35l.89.44a.7.7,0,0,0,.33.1.84.84,0,0,0,.41-.13l.85-.42c.21-.11.21-.15.21-.38v-.06Z" style="fill: #fff" transform="translate(0.02)"/>
    </g>
    <g>
      <path d="M23.64,32.58c.14,0,.26.09.26.25s-.13.23-.26.26l-3.39,1c-.12,0-.25-.1-.25-.24a.3.3,0,0,1,.25-.27l.6-.19V32.3l-.6-.19a.3.3,0,0,1-.25-.27c0-.14.13-.28.25-.24Zm-.93.26h0l-1.36-.39v.79Z" style="fill: #fff" transform="translate(0.02)"/>
      <path d="M20.5,36.57h1a.25.25,0,1,1,0,.5H20.25a.23.23,0,0,1-.25-.25v-2a.25.25,0,1,1,.5,0v.74H23.4v-.74a.25.25,0,1,1,.5,0v1.24H20.5Z" style="fill: #fff" transform="translate(0.02)"/>
    </g>
    <path d="M39.67,18.28a1.18,1.18,0,0,0,.8,1.58,2.36,2.36,0,0,0,.46.06l4.12.18h.17l-.15-.15-1.51-1.48a1.17,1.17,0,0,1-.35-1,2.84,2.84,0,0,0,0-.77,3,3,0,0,0-3-2.38,2.36,2.36,0,0,0-1.47.52,3.73,3.73,0,0,0-.34.38h.14c.4,0,.56.26.37.62a2,2,0,0,1-.48.59.58.58,0,0,1-1-.38,3.51,3.51,0,0,1,0-.42,1.64,1.64,0,0,0-.35,1.49,1.29,1.29,0,0,0,.93,1,1.1,1.1,0,0,0,.87-.21,6.84,6.84,0,0,0,.61-.49.91.91,0,0,1,.55-.26.69.69,0,0,1,.71.64.79.79,0,0,1-.44.9.37.37,0,0,1-.44-.12C39.79,18.49,39.73,18.39,39.67,18.28Z" style="fill: #fff" transform="translate(0.02)"/>
    <path d="M42.57,29.8a1.18,1.18,0,0,0-.81-1.57,2.36,2.36,0,0,0-.46-.06L37.19,28H37l.15.15,1.51,1.47a1.17,1.17,0,0,1,.36,1,2.83,2.83,0,0,0,0,.76,3,3,0,0,0,3,2.36,2.36,2.36,0,0,0,1.47-.53,3.72,3.72,0,0,0,.34-.38H43.7c-.4,0-.56-.26-.37-.61a2,2,0,0,1,.47-.59.58.58,0,0,1,1,.37,3.5,3.5,0,0,1,0,.42,1.63,1.63,0,0,0,.34-1.49,1.29,1.29,0,0,0-.93-1,1.1,1.1,0,0,0-.87.21,6.82,6.82,0,0,0-.61.5.91.91,0,0,1-.54.27.69.69,0,0,1-.71-.64.79.79,0,0,1,.44-.9.37.37,0,0,1,.44.12C42.44,29.59,42.5,29.7,42.57,29.8Z" style="fill: #fff" transform="translate(0.02)"/>
  </g>
  <g id="Connectors">
    <circle cx="28.49" cy="5.47" data-cir-type="male" id="circuitoCon_GND" r="1.45" style="fill: none"/>
    <circle cx="21.29" cy="5.47" data-cir-type="male" id="circuitoCon_B1" r="1.45" style="fill: none"/>
    <circle cx="21.29" cy="41.47" data-cir-type="male" id="circuitoCon_A1" r="1.45" style="fill: none"/>
    <circle cx="28.49" cy="41.47" data-cir-type="male" id="circuitoCon_H1" r="1.45" style="fill: none"/>
  </g>
</svg>