<?xml version="1.0" ?><svg data-name="Layer 10" height="17.62mm" id="Layer_10" viewBox="0 0 139.59 49.95" width="49.24mm" xmlns="http://www.w3.org/2000/svg" xmlns:xlink="http://www.w3.org/1999/xlink">
  <defs>
    <linearGradient gradientUnits="userSpaceOnUse" id="linear-gradient" x1="7.2" x2="7.22" y1="13.81" y2="16.91">
      <stop offset="0" stop-color="#fff"/>
      <stop offset="0.4" stop-color="#9e9d9e"/>
      <stop offset="0.63" stop-color="#efefef"/>
      <stop offset="0.81" stop-color="#939192"/>
    </linearGradient>
    <linearGradient id="linear-gradient-2" x1="7.2" x2="7.22" xlink:href="#linear-gradient" y1="34.52" y2="37.62"/>
  </defs>
  <title>Arduino Micro with Headers - 5V 16MHz finish</title>
  <g data-name="Layer 11" id="Layer_11">
    <g id="motherb">
      <circle cx="61.82" cy="10.79" r="0.59" style="fill: none"/>
      <circle cx="58.21" cy="39.58" r="0.59" style="fill: none"/>
      <circle cx="6.67" cy="3.99" r="1.75" style="fill: none"/>
      <circle cx="49.37" cy="18.17" r="0.59" style="fill: none"/>
      <circle cx="54.3" cy="10.33" r="0.59" style="fill: none"/>
      <circle cx="65.38" cy="10.79" r="0.59" style="fill: none"/>
      <circle cx="71.96" cy="11.06" r="0.59" style="fill: none"/>
      <circle cx="69.19" cy="39.58" r="0.59" style="fill: none"/>
      <circle cx="63.58" cy="39.71" r="0.59" style="fill: none"/>
      <circle cx="48.37" cy="28.58" r="0.59" style="fill: none"/>
      <circle cx="57.11" cy="8.27" r="0.59" style="fill: none"/>
      <circle cx="21.04" cy="17.74" r="0.59" style="fill: none"/>
      <circle cx="46.25" cy="33.31" r="0.59" style="fill: none"/>
      <circle cx="6.57" cy="10.55" r="0.59" style="fill: none"/>
      <circle cx="7.1" cy="40.49" r="0.59" style="fill: none"/>
      <circle cx="7.1" cy="46.8" r="1.75" style="fill: none"/>
      <circle cx="73.17" cy="39.58" r="0.59" style="fill: none"/>
      <circle cx="27.08" cy="9.67" r="0.59" style="fill: none"/>
      <circle cx="25.37" cy="22.41" r="0.59" style="fill: none"/>
      <circle cx="25.37" cy="18.33" r="0.59" style="fill: none"/>
      <circle cx="99.57" cy="23.3" r="0.59" style="fill: none"/>
      <circle cx="108.14" cy="10.12" r="0.59" style="fill: none"/>
      <circle cx="103.29" cy="42.8" r="0.59" style="fill: none"/>
      <circle cx="107.54" cy="15.55" r="0.59" style="fill: none"/>
      <circle cx="94.07" cy="19.18" r="0.59" style="fill: none"/>
      <circle cx="93.48" cy="24.49" r="0.59" style="fill: none"/>
      <circle cx="135.96" cy="3.6" r="1.89" style="fill: none"/>
      <circle cx="135.96" cy="46.32" r="1.89" style="fill: none"/>
      <circle cx="108.98" cy="19.93" r="0.59" style="fill: none"/>
      <circle cx="86.61" cy="29.46" r="0.59" style="fill: none"/>
      <circle cx="80.42" cy="37.06" r="0.59" style="fill: none"/>
      <circle cx="82.29" cy="40.44" r="0.59" style="fill: none"/>
      <circle cx="76.83" cy="38.25" r="0.59" style="fill: none"/>
      <circle cx="78.12" cy="9.52" r="0.59" style="fill: none"/>
      <circle cx="75.37" cy="11.98" r="0.59" style="fill: none"/>
      <circle cx="90.51" cy="19.18" r="0.59" style="fill: none"/>
      <circle cx="83.01" cy="30.81" r="0.59" style="fill: none"/>
      <circle cx="83.48" cy="18.58" r="0.59" style="fill: none"/>
      <circle cx="57.11" cy="8.27" r="0.59" style="fill: none"/>
      <circle cx="61.82" cy="10.79" r="0.59" style="fill: none"/>
      <circle cx="63.58" cy="39.71" r="0.59" style="fill: none"/>
      <circle cx="65.38" cy="10.79" r="0.59" style="fill: none"/>
      <circle cx="58.21" cy="39.58" r="0.59" style="fill: none"/>
      <circle cx="69.19" cy="39.58" r="0.59" style="fill: none"/>
      <circle cx="7.1" cy="40.49" r="0.59" style="fill: none"/>
      <circle cx="54.3" cy="10.33" r="0.59" style="fill: none"/>
      <circle cx="73.17" cy="39.58" r="0.59" style="fill: none"/>
      <circle cx="71.96" cy="11.06" r="0.59" style="fill: none"/>
      <circle cx="49.37" cy="18.17" r="0.59" style="fill: none"/>
      <circle cx="21.04" cy="17.74" r="0.59" style="fill: none"/>
      <circle cx="25.37" cy="22.41" r="0.59" style="fill: none"/>
      <circle cx="7.1" cy="46.8" r="1.75" style="fill: none"/>
      <circle cx="6.57" cy="10.55" r="0.59" style="fill: none"/>
      <circle cx="46.25" cy="33.31" r="0.59" style="fill: none"/>
      <circle cx="48.37" cy="28.58" r="0.59" style="fill: none"/>
      <circle cx="76.83" cy="38.25" r="0.59" style="fill: none"/>
      <circle cx="25.37" cy="18.33" r="0.59" style="fill: none"/>
      <circle cx="27.08" cy="9.67" r="0.59" style="fill: none"/>
      <circle cx="75.37" cy="11.98" r="0.59" style="fill: none"/>
      <circle cx="108.14" cy="10.12" r="0.59" style="fill: none"/>
      <circle cx="107.54" cy="15.55" r="0.59" style="fill: none"/>
      <circle cx="99.57" cy="23.3" r="0.59" style="fill: none"/>
      <circle cx="108.98" cy="19.93" r="0.59" style="fill: none"/>
      <circle cx="103.29" cy="42.8" r="0.59" style="fill: none"/>
      <circle cx="135.96" cy="3.6" r="1.89" style="fill: none"/>
      <circle cx="135.96" cy="46.32" r="1.89" style="fill: none"/>
      <circle cx="6.67" cy="3.99" r="1.75" style="fill: none"/>
      <circle cx="93.48" cy="24.49" r="0.59" style="fill: none"/>
      <circle cx="80.42" cy="37.06" r="0.59" style="fill: none"/>
      <circle cx="82.29" cy="40.44" r="0.59" style="fill: none"/>
      <circle cx="78.57" cy="21.31" r="0.68" style="fill: none"/>
      <circle cx="94.07" cy="19.18" r="0.59" style="fill: none"/>
      <circle cx="83.01" cy="30.81" r="0.59" style="fill: none"/>
      <circle cx="90.51" cy="19.18" r="0.59" style="fill: none"/>
      <circle cx="78.12" cy="9.52" r="0.59" style="fill: none"/>
      <circle cx="83.48" cy="18.58" r="0.59" style="fill: none"/>
      <circle cx="86.61" cy="29.46" r="0.59" style="fill: none"/>
      <path d="M141.25,0H11A4.62,4.62,0,0,0,8.63.83,4.14,4.14,0,0,0,7.06,2.65V48.46l2.45,1.49H141a7.67,7.67,0,0,0,1.3-1.46,3.49,3.49,0,0,0,.52-1.62V1.57Zm-30.5,10.12a.59.59,0,1,1,.59.59A.59.59,0,0,1,110.75,10.12Zm.59,5.44a.59.59,0,1,1-.59-.59A.59.59,0,0,1,111.34,15.55ZM95.63,1.87a1.71,1.71,0,0,1,0,3.42A1.71,1.71,0,0,1,95.63,1.87Zm1.06,22a.59.59,0,1,1-.59.59A.59.59,0,0,1,96.69,23.9Zm-8.19-22a1.71,1.71,0,0,1,0,3.42A1.71,1.71,0,0,1,88.5,1.91ZM86.69,18a.59.59,0,1,1-.59.59A.59.59,0,0,1,86.69,18ZM81.29,1.87a1.71,1.71,0,0,1,0,3.42A1.71,1.71,0,0,1,81.29,1.87Zm.49,18.77a.68.68,0,1,1-.68.68A.68.68,0,0,1,81.78,20.63Zm-1-11.11a.59.59,0,1,1,.59.59A.59.59,0,0,1,80.74,9.52ZM74,1.91a1.71,1.71,0,0,1,0,3.42A1.71,1.71,0,0,1,74,1.91Zm1.76,9.16a.59.59,0,1,1-.59-.59A.59.59,0,0,1,75.76,11.06ZM66.71,2a1.71,1.71,0,0,1,0,3.42A1.71,1.71,0,0,1,66.71,2Zm.68,37.68a.59.59,0,1,1-.59-.59A.59.59,0,0,1,67.39,39.71ZM9.88,2.24A1.75,1.75,0,1,1,8.13,4,1.75,1.75,0,0,1,9.88,2.24Zm.44,37.66a.59.59,0,1,1-.59.59A.59.59,0,0,1,10.31,39.9ZM9.19,10.55a.59.59,0,1,1,.59.59A.59.59,0,0,1,9.19,10.55Zm1.13,38a1.75,1.75,0,1,1,1.75-1.75A1.75,1.75,0,0,1,10.31,48.55ZM16.5,1.78a1.71,1.71,0,0,1,0,3.42A1.71,1.71,0,0,1,16.5,1.78Zm0,46.71a1.71,1.71,0,0,1,0-3.42A1.71,1.71,0,0,1,16.49,48.49ZM23.75,1.87a1.71,1.71,0,0,1,0,3.42A1.71,1.71,0,0,1,23.75,1.87Zm1.09,15.87a.59.59,0,1,1-.59-.59A.59.59,0,0,1,24.84,17.74Zm-1,30.71a1.71,1.71,0,0,1,0-3.42A1.71,1.71,0,0,1,23.8,48.45ZM28.58,23a.59.59,0,1,1,.59-.59A.59.59,0,0,1,28.58,23Zm0-4.07a.59.59,0,1,1,.59-.59A.59.59,0,0,1,28.58,18.93Zm2.33-17a1.71,1.71,0,0,1,0,3.42A1.71,1.71,0,0,1,30.92,1.95Zm-.62,7.12a.59.59,0,1,1-.59.59A.59.59,0,0,1,30.29,9.07Zm.84,39.42a1.71,1.71,0,0,1,0-3.42A1.71,1.71,0,0,1,31.13,48.49Zm7-46.54a1.71,1.71,0,0,1,0,3.42A1.71,1.71,0,0,1,38.08,1.95Zm.09,46.58a1.71,1.71,0,0,1,0-3.42A1.71,1.71,0,0,1,38.17,48.53ZM45.29,2a1.71,1.71,0,0,1,0,3.42A1.71,1.71,0,0,1,45.29,2Zm.09,46.46a1.71,1.71,0,0,1,0-3.42A1.71,1.71,0,0,1,45.38,48.49Zm4.08-14.58a.59.59,0,1,1,.59-.59A.59.59,0,0,1,49.46,33.91Zm2.83-32a1.71,1.71,0,0,1,0,3.42A1.71,1.71,0,0,1,52.29,1.91Zm.89,16.26a.59.59,0,1,1-.59-.59A.59.59,0,0,1,53.18,18.17ZM51,28.58a.59.59,0,1,1,.59.59A.59.59,0,0,1,51,28.58Zm1.69,19.95a1.71,1.71,0,0,1,0-3.42A1.71,1.71,0,0,1,52.67,48.53Zm4.83-37.6a.59.59,0,1,1,.59-.59A.59.59,0,0,1,57.51,10.93Zm2.08-9.1a1.71,1.71,0,0,1,0,3.42A1.71,1.71,0,0,1,59.58,1.82Zm1.33,6.45a.59.59,0,1,1-.59-.59A.59.59,0,0,1,60.91,8.27ZM59.72,48.49a1.71,1.71,0,0,1,0-3.42A1.71,1.71,0,0,1,59.72,48.49Zm1.7-8.31a.59.59,0,1,1,.59-.59A.59.59,0,0,1,61.42,40.18ZM65,11.39a.59.59,0,1,1,.59-.59A.59.59,0,0,1,65,11.39Zm1.9,37.19a1.71,1.71,0,0,1,0-3.42A1.71,1.71,0,0,1,66.92,48.57Zm1.66-37.19a.59.59,0,1,1,.59-.59A.59.59,0,0,1,68.59,11.39Zm3.21,28.2a.59.59,0,1,1,.59.59A.59.59,0,0,1,71.8,39.58ZM74,48.53a1.71,1.71,0,0,1,0-3.42A1.71,1.71,0,0,1,74,48.53Zm2.34-8.35a.59.59,0,1,1,.59-.59A.59.59,0,0,1,76.38,40.18Zm2.21-27.6a.59.59,0,1,1,.59-.59A.59.59,0,0,1,78.58,12.57Zm.86,25.68a.59.59,0,1,1,.59.59A.59.59,0,0,1,79.45,38.25Zm1.93,10.28a1.71,1.71,0,0,1,0-3.42A1.71,1.71,0,0,1,81.38,48.53Zm2.25-10.87a.59.59,0,1,1,.59-.59A.59.59,0,0,1,83.63,37.66ZM85.5,41a.59.59,0,1,1,.59-.59A.59.59,0,0,1,85.5,41Zm.72-9.62a.59.59,0,1,1,.59-.59A.59.59,0,0,1,86.22,31.41Zm2.25,17a1.71,1.71,0,0,1,0-3.42A1.71,1.71,0,0,1,88.47,48.43Zm1.36-18.38a.59.59,0,1,1,.59-.59A.59.59,0,0,1,89.82,30.05Zm3.9-10.28a.59.59,0,1,1,.59-.59A.59.59,0,0,1,93.72,19.77Zm2,28.62a1.71,1.71,0,0,1,0-3.42A1.71,1.71,0,0,1,95.67,48.39Zm1.61-28.62a.59.59,0,1,1,.59-.59A.59.59,0,0,1,97.28,19.77Zm5.51-17.86a1.71,1.71,0,0,1,0,3.42A1.71,1.71,0,0,1,102.79,1.91Zm.58,21.4a.59.59,0,1,1-.59-.59A.59.59,0,0,1,103.38,23.3Zm-.43,25.16a1.71,1.71,0,0,1,0-3.42A1.71,1.71,0,0,1,102.95,48.46Zm3.55-5.07a.59.59,0,1,1,.59-.59A.59.59,0,0,1,106.5,43.4Zm3.63-41.49a1.71,1.71,0,0,1,0,3.42A1.71,1.71,0,0,1,110.13,1.91Zm.11,46.5a1.71,1.71,0,0,1,0-3.42A1.71,1.71,0,0,1,110.23,48.41Zm2-27.89a.59.59,0,1,1,.59-.59A.59.59,0,0,1,112.19,20.52Zm5.19-18.66a1.71,1.71,0,0,1,0,3.42A1.71,1.71,0,0,1,117.38,1.87Zm.77,40.92a.77.77,0,1,1-.77-.77A.77.77,0,0,1,118.14,42.79Zm-.77,5.6a1.71,1.71,0,0,1,0-3.42A1.71,1.71,0,0,1,117.37,48.39ZM124.54,2a1.71,1.71,0,0,1,0,3.42A1.71,1.71,0,0,1,124.54,2Zm0,46.34a1.71,1.71,0,0,1,0-3.42A1.71,1.71,0,0,1,124.55,48.37Zm7.28-46.47a1.71,1.71,0,0,1,0,3.42A1.71,1.71,0,0,1,131.83,1.91Zm-.13,46.54a1.71,1.71,0,0,1,0-3.42A1.71,1.71,0,0,1,131.7,48.45Zm7.47-.24a1.89,1.89,0,1,1,1.89-1.89A1.89,1.89,0,0,1,139.17,48.21Zm0-42.72a1.89,1.89,0,1,1,1.89-1.89A1.89,1.89,0,0,1,139.17,5.49Z" style="fill: #214e5e" transform="translate(-3.21 0)"/>
    </g>
    <g id="circuits">
      <polyline points="66.24 15.19 67.47 13.95 67.47 12.21 67.87 11.82 67.87 8.02 68.77 7.12 110.46 7.12 112.64 4.6" style="fill: none;stroke: #338085;stroke-miterlimit: 10;stroke-width: 0.75px"/>
      <polyline points="60.39 16.01 58.95 14.57 58.95 10.07 61.42 7.61 65.67 7.61 66.83 6.45 69.09 4.19" style="fill: none;stroke: #338085;stroke-miterlimit: 10;stroke-width: 0.75px"/>
      <line style="fill: none;stroke: #338085;stroke-miterlimit: 10;stroke-width: 0.75px" x1="59.42" x2="54.15" y1="16.95" y2="11.68"/>
      <polyline points="58.38 17.91 51.48 11.01 51.48 9.57 55.7 5.36" style="fill: none;stroke: #338085;stroke-miterlimit: 10;stroke-width: 0.75px"/>
      <line style="fill: none;stroke: #338085;stroke-miterlimit: 10;stroke-width: 0.75px" x1="57.63" x2="43.48" y1="18.91" y2="4.76"/>
      <polyline points="56.5 19.91 44.56 7.97 39.29 7.97 36.12 4.8" style="fill: none;stroke: #338085;stroke-miterlimit: 10;stroke-width: 0.75px"/>
      <polyline points="55.38 20.86 44.36 9.85 33.63 9.85 28.59 4.82" style="fill: none;stroke: #338085;stroke-miterlimit: 10;stroke-width: 0.75px"/>
      <line style="fill: none;stroke: #338085;stroke-miterlimit: 10;stroke-width: 0.75px" x1="54.48" x2="50.73" y1="21.87" y2="18.11"/>
      <polyline points="53.54 22.99 51.79 21.24 47.29 21.24 44.91 18.86 44.91 16.36 43.6 15.06 37.35 15.06" style="fill: none;stroke: #338085;stroke-miterlimit: 10;stroke-width: 0.75px"/>
      <polyline points="52.52 23.93 51.41 22.82 47.69 22.82 43.97 26.54" style="fill: none;stroke: #338085;stroke-miterlimit: 10;stroke-width: 0.75px"/>
      <polyline points="14.29 4.71 17.09 7.51 24.54 7.51 25.98 8.95" style="fill: none;stroke: #338085;stroke-miterlimit: 10;stroke-width: 0.75px"/>
      <polyline points="54.84 28.79 48.08 35.55 48.08 39.39 44.85 42.61 39.91 42.61 37.09 45.43 36.86 45.66" style="fill: none;stroke: #338085;stroke-miterlimit: 10;stroke-width: 0.75px"/>
      <polyline points="43.97 45.74 49.53 40.18 49.53 36.18 55.88 29.83" style="fill: none;stroke: #338085;stroke-miterlimit: 10;stroke-width: 0.75px"/>
      <polyline points="49.92 44.93 49.92 42.05 51.14 40.84 51.14 36.68 56.81 31.01" style="fill: none;stroke: #338085;stroke-miterlimit: 10;stroke-width: 0.75px"/>
      <polyline points="55.39 45.25 52.55 42.41 52.55 37.11 57.55 32.11" style="fill: none;stroke: #338085;stroke-miterlimit: 10;stroke-width: 0.75px"/>
      <polyline points="58.38 33.24 53.77 37.84 53.77 41.87 55.76 43.86 62.89 43.86 64.08 45.04" style="fill: none;stroke: #338085;stroke-miterlimit: 10;stroke-width: 0.75px"/>
      <polyline points="84.67 43.55 67.67 43.55 64.74 40.63" style="fill: none;stroke: #338085;stroke-miterlimit: 10;stroke-width: 0.75px"/>
      <polyline points="81.42 41.48 80.72 42.17 68.19 42.17 66.44 40.42 66.44 35.99" style="fill: none;stroke: #338085;stroke-miterlimit: 10;stroke-width: 0.75px"/>
      <polyline points="67.73 45.74 64.17 42.18 56.5 42.18 55.43 41.11 55.43 38.22 59.54 34.11" style="fill: none;stroke: #338085;stroke-miterlimit: 10;stroke-width: 0.75px"/>
      <polyline points="60.6 35.37 58.28 37.69 58.28 38.55" style="fill: none;stroke: #338085;stroke-miterlimit: 10;stroke-width: 0.75px"/>
      <line style="fill: none;stroke: #338085;stroke-miterlimit: 10;stroke-width: 0.75px" x1="67.17" x2="69.51" y1="35.99" y2="38.33"/>
      <line style="fill: none;stroke: #338085;stroke-miterlimit: 10;stroke-width: 0.75px" x1="72.17" x2="67.8" y1="39.35" y2="34.98"/>
      <polyline points="76.04 37.17 72.17 37.17 68.61 33.61" style="fill: none;stroke: #338085;stroke-miterlimit: 10;stroke-width: 0.75px"/>
      <polyline points="69.88 32.8 72.75 35.66 77.32 35.66 78.7 35.66" style="fill: none;stroke: #338085;stroke-miterlimit: 10;stroke-width: 0.75px"/>
      <path d="M81.38,35.66" style="fill: none;stroke: #338085;stroke-miterlimit: 10;stroke-width: 0.75px" transform="translate(-3.21 0)"/>
      <polyline points="86.92 41.37 88.42 39.86 88.42 32.11" style="fill: none;stroke: #338085;stroke-miterlimit: 10;stroke-width: 0.75px"/>
      <line style="fill: none;stroke: #338085;stroke-miterlimit: 10;stroke-width: 0.75px" x1="88.42" x2="85.92" y1="34.23" y2="34.23"/>
      <line style="fill: none;stroke: #338085;stroke-miterlimit: 10;stroke-width: 0.75px" x1="85.92" x2="81.42" y1="36.96" y2="36.96"/>
      <polyline points="82.67 34.23 73.09 34.23 70.76 31.89" style="fill: none;stroke: #338085;stroke-miterlimit: 10;stroke-width: 0.75px"/>
      <polyline points="99.99 45.24 99.99 43.55 98.57 42.13 92.79 42.13" style="fill: none;stroke: #338085;stroke-miterlimit: 10;stroke-width: 0.75px"/>
      <polyline points="114.73 35.99 110.92 35.99 105.7 30.77 91.42 30.77 87.09 26.44 81.17 26.44 77.49 30.12 74.7 30.12 73.36 28.78" style="fill: none;stroke: #338085;stroke-miterlimit: 10;stroke-width: 0.75px"/>
      <polyline points="72.73 29.74 74.45 31.46 78.39 31.46 82.14 27.71 84.67 27.71 85.55 28.59" style="fill: none;stroke: #338085;stroke-miterlimit: 10;stroke-width: 0.75px"/>
      <polyline points="71.61 30.57 73.93 32.89 79.64 32.89 81.61 30.92" style="fill: none;stroke: #338085;stroke-miterlimit: 10;stroke-width: 0.75px"/>
      <polyline points="74.7 28.11 75.46 28.87 76.79 28.87 80.72 24.95 88.04 24.95 92.19 29.09 122.35 29.09 124.54 31.28" style="fill: none;stroke: #338085;stroke-miterlimit: 10;stroke-width: 0.75px"/>
      <polyline points="132.6 26.44 136.53 30.37 136.53 35.39 134.58 37.34" style="fill: none;stroke: #338085;stroke-miterlimit: 10;stroke-width: 0.75px"/>
      <line style="fill: none;stroke: #338085;stroke-miterlimit: 10;stroke-width: 0.75px" x1="75.67" x2="77.64" y1="23.8" y2="21.83"/>
      <polyline points="74.7 22.82 75.68 21.84 75.68 19.91 76.86 18.72 80.29 18.72 83.77 22.2 91.17 22.2 92.66 23.69" style="fill: none;stroke: #338085;stroke-miterlimit: 10;stroke-width: 0.75px"/>
      <polyline points="67.17 16.01 68.96 14.22 68.96 12.84 69.48 12.32 69.48 9.62 70.23 8.86 76.89 8.86" style="fill: none;stroke: #338085;stroke-miterlimit: 10;stroke-width: 0.75px"/>
      <polyline points="68.34 16.95 70.32 14.97 70.32 13.24 71.2 12.36" style="fill: none;stroke: #338085;stroke-miterlimit: 10;stroke-width: 0.75px"/>
      <line style="fill: none;stroke: #338085;stroke-miterlimit: 10;stroke-width: 0.75px" x1="69.51" x2="74.43" y1="17.91" y2="12.98"/>
      <polyline points="70.76 18.72 75.17 14.31 80.04 14.31 81.95 12.41 83.67 12.41" style="fill: none;stroke: #338085;stroke-miterlimit: 10;stroke-width: 0.75px"/>
      <polyline points="91.98 15.06 94.42 15.06 94.42 10.87" style="fill: none;stroke: #338085;stroke-miterlimit: 10;stroke-width: 0.75px"/>
      <line style="fill: none;stroke: #338085;stroke-miterlimit: 10;stroke-width: 0.75px" x1="99.35" x2="99.35" y1="17.91" y2="19.03"/>
      <line style="fill: none;stroke: #338085;stroke-miterlimit: 10;stroke-width: 0.75px" x1="102.17" x2="102.17" y1="17.62" y2="19.03"/>
      <line style="fill: none;stroke: #338085;stroke-miterlimit: 10;stroke-width: 0.668112248182297px" x1="96.6" x2="95.09" y1="19.91" y2="19.91"/>
      <line style="fill: none;stroke: #338085;stroke-miterlimit: 10;stroke-width: 0.75px" x1="105.29" x2="107.85" y1="19.91" y2="19.91"/>
      <polyline points="94.42 25.55 95.2 26.33 114.39 26.33" style="fill: none;stroke: #338085;stroke-miterlimit: 10;stroke-width: 0.75px"/>
      <polyline points="108.17 11.68 108.17 13.3 112.15 17.29 112.15 22.99" style="fill: none;stroke: #338085;stroke-miterlimit: 10;stroke-width: 0.75px"/>
      <line style="fill: none;stroke: #338085;stroke-miterlimit: 10;stroke-width: 0.75px" x1="112.85" x2="112.85" y1="8.49" y2="15.06"/>
      <polyline points="51.85 27.71 50.94 28.63 49.59 28.63" style="fill: none;stroke: #338085;stroke-miterlimit: 10;stroke-width: 0.75px"/>
      <polyline points="73.93 21.55 74.53 20.96 74.53 18.91 76.3 17.14 80.92 17.14 82.19 18.41" style="fill: none;stroke: #338085;stroke-miterlimit: 10;stroke-width: 0.75px"/>
      <polyline points="71.97 19.68 75.65 16 82.67 16" style="fill: none;stroke: #338085;stroke-miterlimit: 10;stroke-width: 0.75px"/>
      <line style="fill: none;stroke: #338085;stroke-miterlimit: 10;stroke-width: 0.75px" x1="90.54" x2="90.54" y1="16.3" y2="17.94"/>
      <polyline points="87.67 20.24 89.62 20.24 90.53 20.45 91.36 20.24 91.54 20.24 93.18 21.88 95.35 21.88" style="fill: none;stroke: #338085;stroke-miterlimit: 10;stroke-width: 0.75px"/>
      <line style="fill: none;stroke: #338085;stroke-miterlimit: 10;stroke-width: 0.75px" x1="102.17" x2="98.79" y1="10.17" y2="10.17"/>
      <line style="fill: none;stroke: #338085;stroke-miterlimit: 10;stroke-width: 0.75px" x1="94.42" x2="90.89" y1="8.86" y2="8.86"/>
      <line style="fill: none;stroke: #338085;stroke-miterlimit: 10;stroke-width: 0.75px" x1="87.17" x2="87.17" y1="10.17" y2="8.49"/>
      <polyline points="38.35 16.61 34.99 19.98 34.99 34.11 32.08 37.09 27.67 41.5 19.62 41.5 15.24 45.87" style="fill: none;stroke: #338085;stroke-miterlimit: 10;stroke-width: 0.75px"/>
      <polyline points="60.95 11.58 60.27 12.26 60.27 14.02 61.79 15.54" style="fill: none;stroke: #338085;stroke-miterlimit: 10"/>
      <polyline points="65.51 12.18 65.51 12.98 63.91 14.58" style="fill: none;stroke: #338085;stroke-miterlimit: 10"/>
      <path d="M104.5,35.74" style="fill: none" transform="translate(-3.21 0)"/>
      <polyline points="76.65 25.94 77.18 26.47 80 23.65 88.67 23.65 92.52 27.5 126.89 27.5 130.46 31.07" style="fill: none;stroke: #338085;stroke-miterlimit: 10"/>
      <path d="M92.28,30.12l-1.59,1.59H88.5l-1.05,1.05A1.58,1.58,0,0,1,88.69,34a1.62,1.62,0,0,1-.37,1.69,2,2,0,0,1,.45,1.8,1.68,1.68,0,0,1-1.31,1.28l.68,1.06H90l.51-.51v-1l-.66-.66V36.4a.72.72,0,0,0,0-1.16V33.61a1.69,1.69,0,0,1,1.44-.94,3.18,3.18,0,0,1,1.93.39l.35-.35-.34-.34.69-.69Z" style="fill: #338085" transform="translate(-3.21 0)"/>
      <line style="fill: none;stroke: #338085;stroke-miterlimit: 10;stroke-width: 0.75px" x1="58.38" x2="60.31" y1="8.26" y2="6.32"/>
      <polyline points="52.67 3.6 54.48 3.6 54.56 3.6" style="fill: none;stroke: #338085;stroke-miterlimit: 10;stroke-width: 0.75px"/>
      <polyline points="59.82 3.6 62.09 3.6 61.79 3.6" style="fill: none;stroke: #338085;stroke-miterlimit: 10;stroke-width: 0.75px"/>
      <polyline points="78.17 12.84 79.14 12.84 81.27 10.71" style="fill: none;stroke: #338085;stroke-miterlimit: 10"/>
      <rect height="3.76" style="fill: #338085" width="1.85" x="93.5" y="13.38"/>
      <rect height="1.67" style="fill: #338085" transform="translate(17.73 77.4) rotate(-45)" width="1.67" x="103.06" y="12.58"/>
      <polyline points="94.92 14.65 96.93 12.64 97.79 13.5 105.88 13.5 106.48 12.89 106.48 12.18" style="fill: none;stroke: #338085;stroke-miterlimit: 10"/>
      <polygon points="94.92 21.88 95.53 21.26 96.33 22.06 97.51 22.06 97.51 24.77 95.65 24.77 95.65 23.69 94.25 22.29 94.92 21.88" style="fill: #338085"/>
      <circle cx="78.57" cy="21.31" r="1.35" style="fill: none;stroke: #338085;stroke-miterlimit: 10;stroke-width: 0.705163043383283px"/>
      <circle cx="90.53" cy="19.1" r="1.35" style="fill: none;stroke: #338085;stroke-miterlimit: 10;stroke-width: 0.705163043383283px"/>
      <circle cx="83.49" cy="18.67" r="1.35" style="fill: none;stroke: #338085;stroke-miterlimit: 10;stroke-width: 0.705163043383283px"/>
      <circle cx="81.75" cy="9.78" r="1.35" style="fill: none;stroke: #338085;stroke-miterlimit: 10;stroke-width: 0.705163043383283px"/>
      <circle cx="78.12" cy="9.57" r="1.35" style="fill: none;stroke: #338085;stroke-miterlimit: 10;stroke-width: 0.705163043383283px"/>
      <circle cx="75.36" cy="12.04" r="1.35" style="fill: none;stroke: #338085;stroke-miterlimit: 10;stroke-width: 0.705163043383283px"/>
      <circle cx="71.91" cy="11.14" r="1.35" style="fill: none;stroke: #338085;stroke-miterlimit: 10;stroke-width: 0.705163043383283px"/>
      <circle cx="65.39" cy="10.91" r="1.35" style="fill: none;stroke: #338085;stroke-miterlimit: 10;stroke-width: 0.705163043383283px"/>
      <circle cx="61.86" cy="10.71" r="1.35" style="fill: none;stroke: #338085;stroke-miterlimit: 10;stroke-width: 0.705163043383283px"/>
      <circle cx="56.99" cy="8.39" r="1.35" style="fill: none;stroke: #338085;stroke-miterlimit: 10;stroke-width: 0.705163043383283px"/>
      <circle cx="54.27" cy="10.39" r="1.35" style="fill: none;stroke: #338085;stroke-miterlimit: 10;stroke-width: 0.705163043383283px"/>
      <circle cx="49.37" cy="18.17" r="1.35" style="fill: none;stroke: #338085;stroke-miterlimit: 10;stroke-width: 0.705163043383283px"/>
      <circle cx="93.5" cy="24.57" r="1.35" style="fill: none;stroke: #338085;stroke-miterlimit: 10;stroke-width: 0.705163043383283px"/>
      <circle cx="86.66" cy="29.57" r="1.35" style="fill: none;stroke: #338085;stroke-miterlimit: 10;stroke-width: 0.705163043383283px"/>
      <circle cx="82.98" cy="30.8" r="1.35" style="fill: none;stroke: #338085;stroke-miterlimit: 10;stroke-width: 0.705163043383283px"/>
      <circle cx="82.27" cy="40.41" r="1.35" style="fill: none;stroke: #338085;stroke-miterlimit: 10;stroke-width: 0.705163043383283px"/>
      <circle cx="103.18" cy="42.99" r="1.35" style="fill: none;stroke: #338085;stroke-miterlimit: 10;stroke-width: 0.705163043383283px"/>
      <circle cx="80.4" cy="36.98" r="1.35" style="fill: none;stroke: #338085;stroke-miterlimit: 10;stroke-width: 0.705163043383283px"/>
      <circle cx="63.57" cy="39.76" r="1.35" style="fill: none;stroke: #338085;stroke-miterlimit: 10;stroke-width: 0.705163043383283px"/>
      <circle cx="58.26" cy="39.73" r="1.35" style="fill: none;stroke: #338085;stroke-miterlimit: 10;stroke-width: 0.705163043383283px"/>
      <circle cx="48.37" cy="28.62" r="1.35" style="fill: none;stroke: #338085;stroke-miterlimit: 10;stroke-width: 0.705163043383283px"/>
      <circle cx="27.03" cy="9.74" r="1.35" style="fill: none;stroke: #338085;stroke-miterlimit: 10;stroke-width: 0.705163043383283px"/>
      <circle cx="76.8" cy="38.14" r="1.35" style="fill: none;stroke: #338085;stroke-miterlimit: 10;stroke-width: 0.705163043383283px"/>
      <circle cx="73.23" cy="39.62" r="1.35" style="fill: none;stroke: #338085;stroke-miterlimit: 10;stroke-width: 0.705163043383283px"/>
      <circle cx="69.13" cy="39.57" r="1.35" style="fill: none;stroke: #338085;stroke-miterlimit: 10;stroke-width: 0.705163043383283px"/>
      <circle cx="99.7" cy="23.32" r="1.35" style="fill: none;stroke: #338085;stroke-miterlimit: 10;stroke-width: 0.705163043383283px"/>
      <circle cx="94.15" cy="19.18" r="1.35" style="fill: none;stroke: #338085;stroke-miterlimit: 10;stroke-width: 0.705163043383283px"/>
      <circle cx="108.91" cy="19.9" r="1.35" style="fill: none;stroke: #338085;stroke-miterlimit: 10;stroke-width: 0.705163043383283px"/>
      <circle cx="107.47" cy="15.65" r="1.35" style="fill: none;stroke: #338085;stroke-miterlimit: 10;stroke-width: 0.705163043383283px"/>
      <circle cx="108.14" cy="10.24" r="1.35" style="fill: none;stroke: #338085;stroke-miterlimit: 10;stroke-width: 0.705163043383283px"/>
      <polygon points="111.95 14.3 115.17 14.3 116.01 13.46 118.92 13.46 118.92 19.91 113.26 19.91 113.26 16.55 111.96 15.26 111.95 14.3" style="fill: #338085"/>
      <line style="fill: none;stroke: #338085;stroke-miterlimit: 10" x1="112.15" x2="118.67" y1="21.06" y2="21.06"/>
      <line style="fill: none;stroke: #338085;stroke-miterlimit: 10" x1="134.64" x2="138.23" y1="14.71" y2="14.71"/>
      <line style="fill: none;stroke: #338085;stroke-miterlimit: 10" x1="136.73" x2="136.73" y1="14.71" y2="12.83"/>
      <line style="fill: none;stroke: #338085;stroke-miterlimit: 10" x1="134.23" x2="138.04" y1="20.87" y2="20.87"/>
      <polygon points="75.65 40.8 79.96 40.8 79.96 39.48 81.08 38.36 80.06 38.36 79.25 37.55 79.14 39.35 78.08 40.41 75.65 40.41 75.65 40.8" style="fill: #338085"/>
      <polygon points="78.96 37.16 77.6 35.8 78.88 35.24 79.77 35.49 81.75 35.49 81.75 36.08 80.92 36.08 80.39 35.87 79.85 36.08 79.47 36.08 78.93 36.62 78.96 37.16" style="fill: #338085"/>
      <path d="M114.31,8.37l1.54-1.54s4.9,1.16,4.9-3.4a3.68,3.68,0,0,0,3.84,3.41c3.63,0,3.47-4,3.47-4s0,3.69.94,3.91a49.72,49.72,0,0,0,5.75,0l1-1V2.3h.79V3.83h0a2.27,2.27,0,0,0,2.36,2.36,5.56,5.56,0,0,0,2.58-.69v3h-1.28v1.57h-1.06V8.24h-1.5l-2.37,1.28h-1.69l-1.69-1.69h-3.09l-2.7,2.7H119.2V8.27h-2.45l-.56.56h-.29l-.44-.44Z" style="fill: #338085" transform="translate(-3.21 0)"/>
      <polyline points="41.04 25.56 39.7 26.9 39.7 31.01 42.26 33.56" style="fill: none;stroke: #338085;stroke-miterlimit: 10;stroke-width: 0.75px"/>
      <path d="M56.27,28,54.33,30h-.44L52.8,31H50.68l-1.38-1.38V27.83l1.29-1.29H52.5a12.27,12.27,0,0,0,1.26,1c.22.08.94-.87.94-.87l0-.06,1-1-1.77-1.77h-2.6l-2.79,2.79v1.39h-1.2V29h1.31c0,2.94-2.3,2.13-2.3,2.13V30h-.94v1.45s1.47-.14,2,.63a1.76,1.76,0,0,1,0,2.16c.53.53.42.94.42.94H46.59v.72h1.25a1.52,1.52,0,0,1-1.48,1.48V35.91h-.83v1.45a1.67,1.67,0,0,1-1.72-1.42h1.38v-.58H43.88a2.24,2.24,0,0,1,.52-1.19l-2.65-2.65V25.82l1.46-1.46a23.22,23.22,0,0,1,0-3.5,1.12,1.12,0,0,1,1.25-1s.33-.46-.46-1.21,0-2.33,0-2.33H42.13v1.38l-2.49,2.49v14.1L31.2,42.78h-8l-2.67,2.65L19.5,49.24h2.79a2.84,2.84,0,0,1-1.12-3.37c.75-2.24,3.38-1.88,3.38-1.88A2.87,2.87,0,0,1,27,45.74,4.13,4.13,0,0,1,26.21,49H29.3c-1.45-.12-2.38-5.22,2.2-5.17a3.17,3.17,0,0,1,3,3.58A2.39,2.39,0,0,1,33.67,49H36.5a3.07,3.07,0,0,1-.67-3.12A3.27,3.27,0,0,1,40,43.94l2.59-2.59h5L50,38.92V34.74l2.79-2.79h1L57,28.75Zm-6.73,5.89a.59.59,0,1,1,.59-.59A.59.59,0,0,1,49.55,33.91Z" style="fill: #338085" transform="translate(-3.21 0)"/>
      <circle cx="7.1" cy="40.49" r="0.59" style="fill: none"/>
      <circle cx="6.57" cy="10.56" r="0.59" style="fill: none"/>
      <polygon points="4.48 21.31 4.5 21.31 4.5 21.2 4.48 21.31" style="fill: none"/>
      <path d="M-16.83,31.24" style="fill: #338085" transform="translate(-3.21 0)"/>
      <circle cx="7.1" cy="40.49" r="0.59" style="fill: none"/>
      <circle cx="6.57" cy="10.56" r="0.59" style="fill: none"/>
      <path d="M46.7,11H36.33L31.8,6.46H30l2.4,2.4v2.34L31.2,12.4H29.25l-1.09-1.09V9.66l-.83-.79H19.67l-.42-.37c-6.67.08-6.83-4.23-6.83-4.23C11.5,8.52,7.58,6.45,7.58,6.45L7.71,21.2l.16-.83H20.79l1.2-1.2-.62-.62V15.87h3.88l1.23,1.23.73-.73H30L31.59,19,29.81,20.8l1,1v2l-1.52,1.52H27.71L26.07,26.9h-5V29H19.5v.54H21a1.11,1.11,0,0,1-1.23,1.23H14.58V26.16H25.9L28,24.07h1.19l.63-.63V22l-.88-.88H28l-.81.81v1.41L25.5,25H16.63v-.78h7l4.1-4.1.3-.3h1.12l.65-.65v-1.3l-.8-.8H27.79l-.8.8V19.3L23.1,23.19H16.63v-.79h5.19L24,20.25v-.93h.88l.72-.72V17.39l-.75-.75H23.5l-.79.79v1.35l.33.33v.63l-1.57,1.57H7.71l.21,23.93s2-1.87,3.67-.58A2.69,2.69,0,0,1,12,49h3.08a2.68,2.68,0,0,1-1-3.12c1.08-2.55,4.12-1.56,4.12-1.56l3.86-3.86h8l6.84-6.84V19.13l5-5h2.27a2.3,2.3,0,0,1,1.42-.38A2,2,0,0,1,47,14.1h.84l1.64,1.64v3h.75V17.16l1.31-1.31Zm-36.92.17a.59.59,0,1,1,.59-.59A.59.59,0,0,1,9.78,11.16Zm18.8,10.66a.59.59,0,1,1-.59.59A.59.59,0,0,1,28.58,21.81Zm0-4.07a.59.59,0,1,1-.59.59A.59.59,0,0,1,28.58,17.74Zm-4.33-.59a.59.59,0,1,1-.59.59A.59.59,0,0,1,24.25,17.15ZM10.31,41.08a.59.59,0,1,1,.59-.59A.59.59,0,0,1,10.31,41.08Z" style="fill: #338085" transform="translate(-3.21 0)"/>
      <circle cx="114.17" cy="42.8" r="0.8" style="fill: none"/>
      <path d="M119.67,37.05h-5.92L108.4,31.7v2.83h-2l0,.21h-4.75V31.89h-1.9v1.35H95.58v8.23h1.05l1.66-1.66h4l1.39,1.39v1.17l1.66-1.66h2l1.42,1.42v1.56h.7v1.65l1.63-.52V43.2a5.1,5.1,0,0,1,1.42.75c2.79,2.79,0,5,0,5H116c-.42-.58-1-.62-.92-2.79.07-1.16,2.65-3,4.42-1.22s0,3.8,0,3.8h3.75a2.72,2.72,0,0,1-1.41-2.59l-1.36-1.36,1.24-1.24,1.77,1.77h1.93l1.83-1.83v-6.4Zm-11.27,2a.93.93,0,0,1-.92.92h-2.07V36.74h3Zm9,4.52a.8.8,0,1,1,.8-.8A.8.8,0,0,1,117.38,43.6Z" style="fill: #338085" transform="translate(-3.21 0)"/>
    </g>
    <g id="Holes">
      <circle cx="107.47" cy="15.65" r="0.93" style="fill: none;stroke: #b7b78b;stroke-miterlimit: 10;stroke-width: 0.75px"/>
      <circle cx="108.16" cy="10.17" r="0.93" style="fill: none;stroke: #b7b78b;stroke-miterlimit: 10;stroke-width: 0.75px"/>
      <circle cx="108.91" cy="19.91" r="0.93" style="fill: none;stroke: #b7b78b;stroke-miterlimit: 10;stroke-width: 0.75px"/>
      <circle cx="99.7" cy="23.32" r="0.93" style="fill: none;stroke: #b7b78b;stroke-miterlimit: 10;stroke-width: 0.75px"/>
      <circle cx="93.5" cy="24.67" r="0.93" style="fill: none;stroke: #b7b78b;stroke-miterlimit: 10;stroke-width: 0.75px"/>
      <circle cx="94.15" cy="19.18" r="0.93" style="fill: none;stroke: #b7b78b;stroke-miterlimit: 10;stroke-width: 0.75px"/>
      <circle cx="90.55" cy="19.14" r="0.93" style="fill: none;stroke: #b7b78b;stroke-miterlimit: 10;stroke-width: 0.75px"/>
      <circle cx="78.55" cy="21.36" r="0.93" style="fill: none;stroke: #b7b78b;stroke-miterlimit: 10;stroke-width: 0.75px"/>
      <circle cx="83.49" cy="18.62" r="0.93" style="fill: none;stroke: #b7b78b;stroke-miterlimit: 10;stroke-width: 0.75px"/>
      <circle cx="86.62" cy="29.54" r="0.93" style="fill: none;stroke: #b7b78b;stroke-miterlimit: 10;stroke-width: 0.75px"/>
      <circle cx="82.98" cy="30.8" r="0.93" style="fill: none;stroke: #b7b78b;stroke-miterlimit: 10;stroke-width: 0.75px"/>
      <circle cx="80.4" cy="37.02" r="0.93" style="fill: none;stroke: #b7b78b;stroke-miterlimit: 10;stroke-width: 0.75px"/>
      <circle cx="76.8" cy="38.14" r="0.93" style="fill: none;stroke: #b7b78b;stroke-miterlimit: 10;stroke-width: 0.75px"/>
      <circle cx="75.37" cy="12.04" r="0.93" style="fill: none;stroke: #b7b78b;stroke-miterlimit: 10;stroke-width: 0.75px"/>
      <circle cx="78.12" cy="9.57" r="0.93" style="fill: none;stroke: #b7b78b;stroke-miterlimit: 10;stroke-width: 0.75px"/>
      <circle cx="81.77" cy="9.79" r="0.93" style="fill: none;stroke: #b7b78b;stroke-miterlimit: 10;stroke-width: 0.75px"/>
      <circle cx="71.96" cy="11.11" r="0.93" style="fill: none;stroke: #b7b78b;stroke-miterlimit: 10;stroke-width: 0.75px"/>
      <circle cx="65.45" cy="10.92" r="0.93" style="fill: none;stroke: #b7b78b;stroke-miterlimit: 10;stroke-width: 0.75px"/>
      <circle cx="61.87" cy="10.7" r="0.93" style="fill: none;stroke: #b7b78b;stroke-miterlimit: 10;stroke-width: 0.75px"/>
      <circle cx="56.99" cy="8.38" r="0.93" style="fill: none;stroke: #b7b78b;stroke-miterlimit: 10;stroke-width: 0.75px"/>
      <circle cx="54.26" cy="10.39" r="0.93" style="fill: none;stroke: #b7b78b;stroke-miterlimit: 10;stroke-width: 0.75px"/>
      <circle cx="49.37" cy="18.23" r="0.93" style="fill: none;stroke: #b7b78b;stroke-miterlimit: 10;stroke-width: 0.75px"/>
      <circle cx="27.1" cy="9.75" r="0.93" style="fill: none;stroke: #b7b78b;stroke-miterlimit: 10;stroke-width: 0.75px"/>
      <circle cx="73.23" cy="39.62" r="0.93" style="fill: none;stroke: #b7b78b;stroke-miterlimit: 10;stroke-width: 0.75px"/>
      <circle cx="82.27" cy="40.41" r="0.93" style="fill: none;stroke: #b7b78b;stroke-miterlimit: 10;stroke-width: 0.75px"/>
      <circle cx="103.13" cy="43.04" r="0.93" style="fill: none;stroke: #b7b78b;stroke-miterlimit: 10;stroke-width: 0.75px"/>
      <circle cx="69.13" cy="39.57" r="0.93" style="fill: none;stroke: #b7b78b;stroke-miterlimit: 10;stroke-width: 0.75px"/>
      <circle cx="63.61" cy="39.75" r="0.93" style="fill: none;stroke: #b7b78b;stroke-miterlimit: 10;stroke-width: 0.75px"/>
      <circle cx="58.27" cy="39.71" r="0.93" style="fill: none;stroke: #b7b78b;stroke-miterlimit: 10;stroke-width: 0.75px"/>
    </g>
    <g id="white">
      <line style="fill: none;stroke: #fff;stroke-linecap: round;stroke-miterlimit: 10;stroke-width: 0.75px" x1="98.06" x2="98.06" y1="18.49" y2="24.64"/>
      <line style="fill: none;stroke: #fff;stroke-linecap: round;stroke-miterlimit: 10;stroke-width: 0.75px" x1="103.48" x2="103.48" y1="18.49" y2="24.64"/>
      <g>
        <path d="M23.15,24.18c0-.11.08-.2.2-.2s.18.1.21.2l.77,2.71c0,.1-.08.2-.19.2a.24.24,0,0,1-.22-.2l-.15-.48h-.85l-.15.48a.24.24,0,0,1-.22.2c-.11,0-.22-.1-.19-.2Zm.21.74h0L23,26h.63Z" style="fill: #fff" transform="translate(-3.21 0)"/>
        <path d="M25.65,26.89a.2.2,0,0,1-.4,0V24h1.34a.6.6,0,0,1,.63.58v.28a.58.58,0,0,1-.63.57h-.37l.9,1.29a.4.4,0,0,1,.1.21.19.19,0,0,1-.2.19.21.21,0,0,1-.18-.11l-1.1-1.58h-.09Zm0-1.89h.89c.11,0,.29,0,.29-.17v-.28c0-.16-.16-.18-.28-.18h-.89Z" style="fill: #fff" transform="translate(-3.21 0)"/>
        <path d="M28.52,24.38h-.15c-.13,0-.24,0-.24-.2s.11-.2.23-.2H29a.6.6,0,0,1,.6.4l.35.7a.92.92,0,0,1,0,.9l-.36.73a.6.6,0,0,1-.63.38h-.66a.2.2,0,1,1,0-.4h.19Zm.4,2.31H29c.17,0,.21,0,.28-.17l.35-.71a.56.56,0,0,0,.08-.26.67.67,0,0,0-.1-.33l-.33-.68c-.08-.17-.12-.17-.3-.17h0Z" style="fill: #fff" transform="translate(-3.21 0)"/>
        <path d="M31.66,27.09a.6.6,0,0,1-.5-.2.63.63,0,0,1-.15-.48V24.18a.2.2,0,1,1,.4,0v2.23c0,.22.07.28.25.28h.68c.18,0,.25-.06.25-.28V24.18a.2.2,0,1,1,.4,0v2.23a.63.63,0,0,1-.15.48.6.6,0,0,1-.5.2Z" style="fill: #fff" transform="translate(-3.21 0)"/>
        <path d="M35.08,26.69h.59a.2.2,0,1,1,0,.4H34.09a.2.2,0,1,1,0-.4h.59V24.38h-.59a.2.2,0,1,1,0-.4h1.57a.2.2,0,1,1,0,.4h-.59Z" style="fill: #fff" transform="translate(-3.21 0)"/>
        <path d="M38.35,24.18a.2.2,0,1,1,.4,0v2.91h-.53l-1-2.4h0v2.2a.2.2,0,0,1-.4,0V24h.53l1,2.43h0Z" style="fill: #fff" transform="translate(-3.21 0)"/>
        <path d="M41.52,25.1a.9.9,0,0,1,.1.44,1,1,0,0,1-.13.48l-.37.74a.52.52,0,0,1-1,0L39.78,26a1,1,0,0,1-.13-.48.91.91,0,0,1,.1-.44l.4-.8a.52.52,0,0,1,1,0Zm-.75-.6c0-.06-.05-.12-.14-.12s-.1.06-.14.12l-.36.72a.62.62,0,0,0-.09.32.54.54,0,0,0,.07.26l.38.76c0,.06.06.12.14.12s.11-.06.14-.12l.38-.76a.54.54,0,0,0,.07-.26.62.62,0,0,0-.09-.32Z" style="fill: #fff" transform="translate(-3.21 0)"/>
      </g>
      <line style="fill: #fff;stroke: #fff;stroke-miterlimit: 10" x1="21.95" x2="24.54" y1="17.46" y2="17.46"/>
      <line style="fill: #fff;stroke: #fff;stroke-miterlimit: 10" x1="32.99" x2="35.58" y1="17.46" y2="17.46"/>
      <line style="fill: #fff;stroke: #fff;stroke-miterlimit: 10" x1="34.29" x2="34.29" y1="18.84" y2="16.25"/>
      <rect height="8.91" rx="4.45" ry="4.45" style="fill: #fff;stroke: #fff;stroke-miterlimit: 10" width="15.37" x="24.33" y="28.62"/>
      <g>
        <path d="M31.28,31.78h.38V34a.15.15,0,1,1-.3,0V32.19h0l-.29.42v0c0,.09,0,.18-.15.18s-.15-.09-.15-.18v0l-.29-.42h0V34a.15.15,0,1,1-.3,0V31.78h.38l.37.53Z" transform="translate(-3.21 0)"/>
        <path d="M33.23,33.81h.44a.15.15,0,1,1,0,.3H32.48a.15.15,0,0,1,0-.3h.44V32.08h-.44a.15.15,0,0,1,0-.3h1.18a.15.15,0,1,1,0,.3h-.44Z" transform="translate(-3.21 0)"/>
        <path d="M35.3,34.11a.45.45,0,0,1-.45-.29l-.28-.56a.67.67,0,0,1-.08-.32.66.66,0,0,1,.08-.33l.28-.56a.45.45,0,0,1,.46-.29h.51a.14.14,0,0,1,.15.15.14.14,0,0,1-.15.15h-.5c-.13,0-.15,0-.21.13l-.26.52a.46.46,0,0,0-.06.23.42.42,0,0,0,.06.21l.26.52c.06.12.09.13.23.13h.49A.14.14,0,0,1,36,34a.14.14,0,0,1-.15.15Z" transform="translate(-3.21 0)"/>
        <path d="M37,34a.15.15,0,1,1-.3,0V31.78h1a.46.46,0,0,1,.48.44v.21a.44.44,0,0,1-.48.43h-.28l.68,1a.3.3,0,0,1,.08.16.14.14,0,0,1-.15.14.16.16,0,0,1-.13-.08L37,32.85H37Zm0-1.42h.67c.08,0,.22,0,.22-.13v-.21c0-.12-.12-.14-.21-.14H37Z" transform="translate(-3.21 0)"/>
        <path d="M40.22,32.62a.68.68,0,0,1,.08.33.73.73,0,0,1-.1.36l-.28.55a.39.39,0,0,1-.73,0l-.28-.55a.73.73,0,0,1-.1-.36.68.68,0,0,1,.08-.33l.3-.6a.39.39,0,0,1,.73,0Zm-.56-.45s0-.09-.1-.09-.08,0-.1.09l-.27.54a.47.47,0,0,0-.07.24.4.4,0,0,0,.05.2l.29.57s0,.09.1.09.08,0,.1-.09l.29-.57A.41.41,0,0,0,40,33a.46.46,0,0,0-.07-.24Z" transform="translate(-3.21 0)"/>
      </g>
      <g>
        <path d="M99.61,25.66v.11a.15.15,0,1,1-.3,0v-.41h1.48v.41a.15.15,0,1,1-.3,0v-.11h-.29v1.89a.15.15,0,0,1-.3,0V25.66Z" style="fill: #fffffd" transform="translate(-3.21 0)"/>
        <path d="M102,26.52l-.54-.92a.19.19,0,0,1,0-.11.15.15,0,0,1,.15-.14c.1,0,.13.08.17.15l.42.72.42-.72c0-.07.08-.15.17-.15a.15.15,0,0,1,.15.14.19.19,0,0,1,0,.11l-.53.92.53.92a.19.19,0,0,1,0,.11.15.15,0,0,1-.15.14c-.1,0-.13-.08-.17-.15l-.42-.72-.42.72c0,.07-.08.15-.17.15a.15.15,0,0,1-.15-.14.19.19,0,0,1,0-.11Z" style="fill: #fffffd" transform="translate(-3.21 0)"/>
      </g>
      <g>
        <path d="M105,27.54a.15.15,0,1,1-.3,0V25.35h1a.45.45,0,0,1,.47.44V26a.44.44,0,0,1-.47.43h-.28l.68,1a.3.3,0,0,1,.08.16.14.14,0,0,1-.15.14.16.16,0,0,1-.13-.08L105,26.42H105Zm0-1.42h.67c.08,0,.22,0,.22-.13v-.21c0-.12-.12-.14-.21-.14H105Z" style="fill: #fffffd" transform="translate(-3.21 0)"/>
        <path d="M107.38,26.52l-.54-.92a.19.19,0,0,1,0-.11.15.15,0,0,1,.15-.14c.1,0,.13.08.17.15l.42.72.42-.72c0-.07.08-.15.17-.15a.15.15,0,0,1,.15.14.19.19,0,0,1,0,.11l-.53.92.53.92a.19.19,0,0,1,0,.11.15.15,0,0,1-.15.14c-.1,0-.13-.08-.17-.15l-.42-.72-.42.72c0,.07-.08.15-.17.15a.15.15,0,0,1-.15-.14.19.19,0,0,1,0-.11Z" style="fill: #fffffd" transform="translate(-3.21 0)"/>
      </g>
      <g>
        <path d="M113.37,15.32a.15.15,0,0,1,0-.3h2.19v1a.45.45,0,0,1-.44.47h-.21a.44.44,0,0,1-.43-.47v-.28l-1,.68a.3.3,0,0,1-.16.08.14.14,0,0,1-.14-.15.16.16,0,0,1,.08-.13l1.18-.83v-.07Zm1.42,0V16c0,.08,0,.22.13.22h.21c.12,0,.14-.12.14-.21v-.67Z" style="fill: #fffffd" transform="translate(-3.21 0)"/>
        <path d="M113.81,18.56a.39.39,0,0,1-.25.1.34.34,0,0,1-.34-.38v-.66a.45.45,0,0,1,.1-.3.38.38,0,0,1,.28-.14.16.16,0,0,1,.18.16.14.14,0,0,1-.15.14c-.09,0-.1,0-.1.13v.65s0,.1,0,.1.07,0,.09-.05l1.33-1a.36.36,0,0,1,.25-.1.34.34,0,0,1,.29.16.4.4,0,0,1,.05.25v.64a.43.43,0,0,1-.1.3.41.41,0,0,1-.29.14.15.15,0,0,1-.17-.16.13.13,0,0,1,.14-.14c.1,0,.12-.05.12-.14v-.64s0-.1,0-.1-.06,0-.08,0Z" style="fill: #fffffd" transform="translate(-3.21 0)"/>
        <path d="M115.26,19.64h-.11a.15.15,0,0,1,0-.3h.41v1.48h-.41a.15.15,0,1,1,0-.3h.11v-.29h-1.89a.15.15,0,0,1,0-.3h1.89Z" style="fill: #fffffd" transform="translate(-3.21 0)"/>
      </g>
      <g>
        <path d="M113.52,33.16v.44a.15.15,0,0,1-.3,0V32.42a.15.15,0,0,1,.3,0v.44h1.74v-.44a.15.15,0,0,1,.3,0V33.6a.15.15,0,0,1-.3,0v-.44Z" style="fill: #fffffd" transform="translate(-3.21 0)"/>
        <path d="M113.22,35.24a.45.45,0,0,1,.29-.45l.56-.28a.68.68,0,0,1,.32-.08.65.65,0,0,1,.33.08l.56.28a.45.45,0,0,1,.29.46v.51a.14.14,0,0,1-.15.15.14.14,0,0,1-.15-.15v-.5c0-.13,0-.15-.13-.21l-.52-.26a.46.46,0,0,0-.23-.06.42.42,0,0,0-.21.06l-.52.26c-.12.06-.13.09-.13.23v.49a.14.14,0,0,1-.15.15.14.14,0,0,1-.15-.15Z" style="fill: #fffffd" transform="translate(-3.21 0)"/>
        <path d="M113.81,38a.39.39,0,0,1-.25.1.34.34,0,0,1-.34-.38V37a.45.45,0,0,1,.1-.3.38.38,0,0,1,.28-.14.16.16,0,0,1,.18.16.14.14,0,0,1-.15.14c-.09,0-.1,0-.1.13v.65s0,.1,0,.1.07,0,.09-.05l1.33-1a.36.36,0,0,1,.25-.1.34.34,0,0,1,.29.16.4.4,0,0,1,.05.25v.64a.43.43,0,0,1-.1.3.41.41,0,0,1-.29.14.15.15,0,0,1-.17-.16.13.13,0,0,1,.14-.14c.1,0,.12-.05.12-.14V37s0-.1,0-.1-.06,0-.08,0Z" style="fill: #fffffd" transform="translate(-3.21 0)"/>
        <path d="M113.37,39a.15.15,0,0,1,0-.3h2.19v1a.44.44,0,0,1-.12.35.45.45,0,0,1-.39.14h-.41a.5.5,0,0,1-.38-.12.47.47,0,0,1-.14-.4V39Zm1,0v.67c0,.18,0,.22.22.22H115c.17,0,.22,0,.22-.22V39Z" style="fill: #fffffd" transform="translate(-3.21 0)"/>
      </g>
      <path d="M28.56,14.77a4.78,4.78,0,0,0-2.46-.68,4,4,0,0,0-2,.49A3,3,0,0,0,22.6,17.4a3.2,3.2,0,0,0,1.59,3,4.78,4.78,0,0,0,4.68-.38,5.21,5.21,0,0,0,1.91-2.37l0-.05.06-.27A6.24,6.24,0,0,0,28.56,14.77Z" style="fill: none" transform="translate(-3.21 0)"/>
      <path d="M32.91,17.61a6.25,6.25,0,0,0,2.27,2.59,4.53,4.53,0,0,0,4.43.19,3,3,0,0,0,1.53-2.83,3.2,3.2,0,0,0-1.59-3,4.79,4.79,0,0,0-4.68.38A5.21,5.21,0,0,0,33,17.29l0,.05Z" style="fill: none" transform="translate(-3.21 0)"/>
      <path d="M30.78,17.69l.09-.23,0-.1-.06.27Z" style="fill: #fff" transform="translate(-3.21 0)"/>
      <path d="M32.91,17.61l.06-.27,0-.05-.09.23Z" style="fill: #fff" transform="translate(-3.21 0)"/>
      <g>
        <path d="M40.49,12.78a6.76,6.76,0,0,0-6.73.47,6.91,6.91,0,0,0-1.93,1.92,8.55,8.55,0,0,1,1,1.9l.07.22a5.21,5.21,0,0,1,1.91-2.37,4.79,4.79,0,0,1,4.68-.38,3.2,3.2,0,0,1,1.59,3A3,3,0,0,1,39.6,20.4a4.53,4.53,0,0,1-4.43-.19,6.25,6.25,0,0,1-2.27-2.59h0a7.05,7.05,0,0,1-1,2.18,7.67,7.67,0,0,0,2.24,2.11,6.79,6.79,0,0,0,3.49,1,6,6,0,0,0,3-.74,5,5,0,0,0,2.55-4.57A5.15,5.15,0,0,0,40.49,12.78Z" style="fill: #fff" transform="translate(-3.21 0)"/>
        <path d="M30.78,17.69a5.21,5.21,0,0,1-1.91,2.37,4.78,4.78,0,0,1-4.68.38,3.2,3.2,0,0,1-1.59-3,3,3,0,0,1,1.53-2.83,4,4,0,0,1,2-.49,4.78,4.78,0,0,1,2.46.68,6.24,6.24,0,0,1,2.27,2.59h0a7.05,7.05,0,0,1,1-2.18,7.66,7.66,0,0,0-2.24-2.11,6.58,6.58,0,0,0-6.45-.22A5,5,0,0,0,20.6,17.4a5.15,5.15,0,0,0,2.64,4.8,6,6,0,0,0,2.85.69A7.09,7.09,0,0,0,28,22.6a.58.58,0,0,1,0-.2.59.59,0,0,1,1.14-.22A6.68,6.68,0,0,0,31.9,19.8a8.55,8.55,0,0,1-1-1.9Z" style="fill: #fff" transform="translate(-3.21 0)"/>
        <path d="M32.91,17.61l0-.1.09-.23-.07-.22a8.55,8.55,0,0,0-1-1.9,7.05,7.05,0,0,0-1,2.18h0l0,.1-.09.23.07.22a8.55,8.55,0,0,0,1,1.9,7.05,7.05,0,0,0,1-2.18Z" style="fill: #fff" transform="translate(-3.21 0)"/>
      </g>
    </g>
    <g id="usb">
      <g>
        <rect height="3.07" style="fill: url(#linear-gradient)" width="5.41" x="4.5" y="13.82"/>
        <rect height="3.07" style="fill: url(#linear-gradient-2)" width="5.41" x="4.5" y="34.53"/>
        <g>
          <g>
            <rect height="1.06" style="fill: #b1aeaa" width="2.13" x="14.54" y="21.2"/>
            <rect height="1.06" style="fill: #b1aeaa" width="2.13" x="14.54" y="23.04"/>
            <rect height="1.06" style="fill: #b1aeaa" width="2.13" x="14.54" y="24.89"/>
            <rect height="1.06" style="fill: #b1aeaa" width="2.13" x="14.54" y="26.73"/>
            <rect height="1.06" style="fill: #b1aeaa" width="2.13" x="14.54" y="28.57"/>
            <rect height="4.06" rx="1.06" ry="1.06" style="fill: #b1aeaa" width="2.12" x="14.54" y="16.51"/>
            <rect height="4.06" rx="1.06" ry="1.06" style="fill: #b1aeaa" width="2.12" x="14.54" y="30.57"/>
            <polygon points="0.54 15.39 14.98 15.39 14.98 36.32 0.54 36.32 0 35.34 1 35.14 1 34.64 0 33.97 0.13 17.68 1.13 17.09 1.14 16.71 0 16.51 0.54 15.39" style="fill: #b1aeaa"/>
          </g>
          <polygon points="14.6 22.24 11.73 22.24 11.73 16.9 13.16 16.9 13.16 19.77 14.98 19.77 14.98 22.24 14.6 22.24" style="fill: #424242"/>
          <polygon points="14.6 29.47 11.72 29.47 11.72 34.81 13.16 34.81 13.16 31.94 14.97 31.94 14.97 29.47 14.6 29.47" style="fill: #424242"/>
          <path d="M5.65,17.55l.23-.29H7.13l.27.29h2.83a.55.55,0,0,1,.55.55v2.12a.58.58,0,0,1-.58.58H7.34l-.27.27H5.88l-.23-.27v-.58l.65-.2,0-1.83L5.65,18Z" style="fill: #424242" transform="translate(-3.21 0)"/>
          <path d="M5.65,31l.23-.29H7.13l.27.29h2.83a.55.55,0,0,1,.55.55v2.12a.58.58,0,0,1-.58.58H7.34l-.27.27H5.88l-.23-.27v-.58l.65-.2,0-1.83-.63-.19Z" style="fill: #424242" transform="translate(-3.21 0)"/>
        </g>
      </g>
    </g>
    <g id="chip">
      <rect height="6.63" style="fill: #cac6bb" width="12.95" x="91.12" y="32.45"/>
      <polygon points="115.99 9.62 133.72 9.62 133.69 15.35 134.63 15.37 134.54 21.27 133.72 21.42 133.72 27.39 115.99 27.39 115.99 9.62" style="fill: #43484b"/>
      <circle cx="125.04" cy="18.77" r="4.89" style="fill: #edca9c"/>
      <rect height="4.45" style="fill: #6e706c" width="4.45" x="110.71" y="9.33"/>
      <rect height="4.45" style="fill: #6e706c" width="4.45" x="110.71" y="22.41"/>
      <rect height="4.45" style="fill: #6e706c" width="4.45" x="134.54" y="22.41"/>
      <rect height="4.45" style="fill: #6e706c" width="4.45" x="134.54" y="15.56"/>
      <rect height="4.45" style="fill: #6e706c" width="4.45" x="134.54" y="9.18"/>
      <rect height="1.97" style="fill: #dbddda" width="3.8" x="112.52" y="10.65"/>
      <rect height="1.97" style="fill: #dbddda" width="3.8" x="112.52" y="23.26"/>
      <rect height="1.97" style="fill: #dbddda" width="3.8" x="133.15" y="23.25"/>
      <rect height="1.97" style="fill: #dbddda" width="3.8" x="133.15" y="16.75"/>
      <rect height="1.97" style="fill: #dbddda" width="3.8" x="132.99" y="10.5"/>
      <g>
        <rect height="3.07" style="fill: #b1aeaa" width="3.54" x="101.75" y="8.49"/>
        <rect height="3.07" style="fill: #b1aeaa" width="3.54" x="101.75" y="14.93"/>
        <rect height="5.3" style="fill: #edca9c" width="4.04" x="101.46" y="10.71"/>
        <rect height="3.63" style="fill: #f7f6e9" width="4.04" x="101.46" y="11.56"/>
      </g>
      <g>
        <rect height="3.07" style="fill: #b1aeaa" width="3.54" x="40.66" y="21.06"/>
        <rect height="3.07" style="fill: #b1aeaa" width="3.54" x="40.66" y="27.5"/>
        <rect height="5.3" style="fill: #edca9c" width="4.04" x="40.37" y="23.29"/>
        <rect height="3.63" style="fill: #f7f6e9" width="4.04" x="40.37" y="24.13"/>
      </g>
      <g>
        <rect height="3.07" style="fill: #b1aeaa" width="3.54" x="96.33" y="8.49"/>
        <rect height="3.07" style="fill: #b1aeaa" width="3.54" x="96.33" y="14.93"/>
        <rect height="5.3" style="fill: #edca9c" width="4.04" x="96.04" y="10.71"/>
        <rect height="3.63" style="fill: #f7f6e9" width="4.04" x="96.04" y="11.56"/>
      </g>
      <g>
        <rect height="2.81" style="fill: #b1aeaa" width="3.97" x="81.95" y="8.49"/>
        <rect height="2.81" style="fill: #b1aeaa" width="3.97" x="81.95" y="13.74"/>
        <rect height="2.81" style="fill: #b1aeaa" width="3.97" x="88.54" y="8.49"/>
        <rect height="2.81" style="fill: #b1aeaa" width="3.97" x="88.54" y="13.74"/>
        <rect height="7.13" rx="0.95" ry="0.95" style="fill: #f6d19b" width="8.94" x="82.79" y="8.84"/>
        <rect height="5.99" rx="0.89" ry="0.89" style="fill: #bcbcbc" width="7.91" x="83.21" y="9.38"/>
      </g>
      <g>
        <line style="fill: none;stroke: #bcbcbc;stroke-linecap: round;stroke-miterlimit: 10" x1="86.48" x2="87.71" y1="17.59" y2="17.59"/>
        <line style="fill: none;stroke: #bcbcbc;stroke-linecap: round;stroke-miterlimit: 10" x1="86.48" x2="87.71" y1="20.26" y2="20.26"/>
        <rect height="2.67" rx="0.58" ry="0.58" style="fill: #e2e2e2" width="1.35" x="86.38" y="17.59"/>
      </g>
      <g>
        <line style="fill: none;stroke: #bcbcbc;stroke-linecap: round;stroke-miterlimit: 10" x1="93.98" x2="95.21" y1="9.05" y2="9.05"/>
        <line style="fill: none;stroke: #bcbcbc;stroke-linecap: round;stroke-miterlimit: 10" x1="93.98" x2="95.21" y1="11.72" y2="11.72"/>
        <rect height="2.67" rx="0.58" ry="0.58" style="fill: #e2e2e2" width="1.35" x="93.88" y="9.05"/>
      </g>
      <g>
        <g>
          <line style="fill: none;stroke: #bcbcbc;stroke-linecap: round;stroke-miterlimit: 10" x1="87.98" x2="89.21" y1="34.33" y2="34.33"/>
          <line style="fill: none;stroke: #bcbcbc;stroke-linecap: round;stroke-miterlimit: 10" x1="87.98" x2="89.21" y1="37" y2="37"/>
          <rect height="2.67" rx="0.58" ry="0.58" style="fill: #e2e2e2" width="1.35" x="87.87" y="34.33"/>
        </g>
        <rect height="1.25" style="fill: #b7967a" width="1.35" x="87.87" y="35.01"/>
      </g>
      <g>
        <g>
          <line style="fill: none;stroke: #bcbcbc;stroke-linecap: round;stroke-miterlimit: 10" x1="82.87" x2="84.1" y1="34.33" y2="34.33"/>
          <line style="fill: none;stroke: #bcbcbc;stroke-linecap: round;stroke-miterlimit: 10" x1="82.87" x2="84.1" y1="37" y2="37"/>
          <rect height="2.67" rx="0.58" ry="0.58" style="fill: #e2e2e2" width="1.35" x="82.77" y="34.33"/>
        </g>
        <rect height="1.25" style="fill: #b7967a" width="1.35" x="82.77" y="35.01"/>
      </g>
      <g>
        <line style="fill: none;stroke: #bcbcbc;stroke-linecap: round;stroke-miterlimit: 10" x1="95.97" x2="95.97" y1="42.68" y2="41.45"/>
        <line style="fill: none;stroke: #bcbcbc;stroke-linecap: round;stroke-miterlimit: 10" x1="98.64" x2="98.64" y1="42.68" y2="41.45"/>
        <rect height="2.67" rx="0.58" ry="0.58" style="fill: #e2e2e2" transform="translate(55.19 142.62) rotate(-90)" width="1.35" x="99.83" y="40.78"/>
      </g>
      <rect height="1.25" transform="translate(55.17 142.6) rotate(-90)" width="1.35" x="99.81" y="41.49"/>
      <g>
        <line style="fill: none;stroke: #bcbcbc;stroke-linecap: round;stroke-miterlimit: 10" x1="99.4" x2="99.4" y1="19.25" y2="20.48"/>
        <line style="fill: none;stroke: #bcbcbc;stroke-linecap: round;stroke-miterlimit: 10" x1="96.73" x2="96.73" y1="19.25" y2="20.48"/>
        <rect height="2.67" rx="0.58" ry="0.58" style="fill: #e2e2e2" transform="translate(117.88 -81.45) rotate(90)" width="1.35" x="100.59" y="18.49"/>
      </g>
      <rect height="1.25" transform="translate(117.91 -81.48) rotate(90)" width="1.35" x="100.62" y="19.19"/>
      <g>
        <line style="fill: none;stroke: #bcbcbc;stroke-linecap: round;stroke-miterlimit: 10" x1="104.8" x2="104.8" y1="19.23" y2="20.46"/>
        <line style="fill: none;stroke: #bcbcbc;stroke-linecap: round;stroke-miterlimit: 10" x1="102.14" x2="102.14" y1="19.23" y2="20.46"/>
        <rect height="2.67" rx="0.58" ry="0.58" style="fill: #e2e2e2" transform="translate(123.27 -86.87) rotate(90)" width="1.35" x="106" y="18.47"/>
      </g>
      <rect height="1.25" transform="translate(123.3 -86.9) rotate(90)" width="1.35" x="106.03" y="19.18"/>
      <g>
        <line style="fill: none;stroke: #bcbcbc;stroke-linecap: round;stroke-miterlimit: 10" x1="41.86" x2="43.09" y1="15.56" y2="15.56"/>
        <line style="fill: none;stroke: #bcbcbc;stroke-linecap: round;stroke-miterlimit: 10" x1="41.86" x2="43.09" y1="18.23" y2="18.23"/>
        <rect height="2.67" rx="0.58" ry="0.58" style="fill: #e2e2e2" width="1.35" x="41.76" y="15.56"/>
      </g>
      <rect height="1.25" width="1.35" x="41.76" y="16.25"/>
      <g>
        <line style="fill: none;stroke: #bcbcbc;stroke-linecap: round;stroke-miterlimit: 10" x1="42.17" x2="43.4" y1="33.27" y2="33.27"/>
        <line style="fill: none;stroke: #bcbcbc;stroke-linecap: round;stroke-miterlimit: 10" x1="42.17" x2="43.4" y1="35.93" y2="35.93"/>
        <rect height="2.67" rx="0.58" ry="0.58" style="fill: #e2e2e2" width="1.35" x="42.06" y="33.27"/>
      </g>
      <rect height="1.25" width="1.35" x="42.06" y="33.95"/>
      <g>
        <rect height="8.71" width="10.5" x="120.25" y="32.57"/>
        <g>
          <polygon points="129.08 32.32 130.38 29.95 134.08 29.95 135.5 32.32 135.5 41.95 133.58 43.87 130.96 43.87 129.1 42.01 129.08 32.32" style="fill: #36383b"/>
          <rect height="2.06" style="fill: #a3a3a3" width="2.06" x="131.34" y="35.03"/>
          <rect height="0.92" style="fill: #a3a3a3" width="1.72" x="131.43" y="42.95"/>
          <rect height="1.96" style="fill: #232323" width="1.88" x="131.34" y="40.99"/>
        </g>
        <g>
          <polygon points="121.83 32.32 123.13 29.95 126.83 29.95 128.25 32.32 128.25 41.95 126.33 43.87 123.71 43.87 121.85 42.01 121.83 32.32" style="fill: #36383b"/>
          <rect height="2.06" style="fill: #a3a3a3" width="2.06" x="124.09" y="35.03"/>
          <rect height="0.92" style="fill: #a3a3a3" width="1.72" x="124.18" y="42.95"/>
          <rect height="1.96" style="fill: #232323" width="1.88" x="124.09" y="40.99"/>
        </g>
        <g>
          <polygon points="114.5 32.32 115.79 29.95 119.5 29.95 120.92 32.32 120.92 41.95 119 43.87 116.38 43.87 114.52 42.01 114.5 32.32" style="fill: #36383b"/>
          <rect height="2.06" style="fill: #a3a3a3" width="2.06" x="116.75" y="35.03"/>
          <rect height="0.92" style="fill: #a3a3a3" width="1.72" x="116.85" y="42.95"/>
          <rect height="1.96" style="fill: #232323" width="1.88" x="116.75" y="40.99"/>
        </g>
      </g>
      <g>
        <rect height="0.79" style="fill: #ededed" transform="translate(7.26 52.7) rotate(-45)" width="1.58" x="68.06" y="13.31"/>
        <rect height="0.79" style="fill: #ededed" transform="translate(6.83 53.75) rotate(-45)" width="1.58" x="69.11" y="14.37"/>
        <rect height="0.79" style="fill: #ededed" transform="translate(6.41 54.75) rotate(-45)" width="1.58" x="70.11" y="15.37"/>
        <rect height="0.79" style="fill: #ededed" transform="translate(6 55.75) rotate(-45)" width="1.58" x="71.11" y="16.37"/>
        <rect height="0.79" style="fill: #ededed" transform="translate(5.56 56.81) rotate(-45)" width="1.58" x="72.17" y="17.42"/>
        <rect height="0.79" style="fill: #ededed" transform="translate(5.14 57.82) rotate(-45)" width="1.58" x="73.17" y="18.43"/>
        <rect height="0.79" style="fill: #ededed" transform="translate(4.74 58.78) rotate(-45)" width="1.58" x="74.14" y="19.4"/>
        <rect height="0.79" style="fill: #ededed" transform="translate(4.34 59.76) rotate(-45)" width="1.58" x="75.12" y="20.37"/>
        <rect height="0.79" style="fill: #ededed" transform="translate(3.92 60.78) rotate(-45)" width="1.58" x="76.13" y="21.39"/>
        <rect height="0.79" style="fill: #ededed" transform="translate(3.49 61.8) rotate(-45)" width="1.58" x="77.16" y="22.41"/>
        <rect height="0.79" style="fill: #ededed" transform="translate(3.09 62.77) rotate(-45)" width="1.58" x="78.13" y="23.38"/>
        <rect height="0.79" style="fill: #ededed" transform="translate(39.16 -47.97) rotate(45)" width="1.58" x="78.3" y="26.76"/>
        <rect height="0.79" style="fill: #ededed" transform="translate(39.55 -47.02) rotate(45)" width="1.58" x="77.35" y="27.71"/>
        <rect height="0.79" style="fill: #ededed" transform="translate(39.99 -45.96) rotate(45)" width="1.58" x="76.29" y="28.77"/>
        <rect height="0.79" style="fill: #ededed" transform="translate(40.38 -45.02) rotate(45)" width="1.58" x="75.35" y="29.71"/>
        <rect height="0.79" style="fill: #ededed" transform="translate(40.81 -43.97) rotate(45)" width="1.58" x="74.3" y="30.76"/>
        <rect height="0.79" style="fill: #ededed" transform="translate(41.23 -42.97) rotate(45)" width="1.58" x="73.3" y="31.76"/>
        <rect height="0.79" style="fill: #ededed" transform="translate(41.62 -42.03) rotate(45)" width="1.58" x="72.35" y="32.7"/>
        <rect height="0.79" style="fill: #ededed" transform="translate(42.04 -41) rotate(45)" width="1.58" x="71.33" y="33.73"/>
        <rect height="0.79" style="fill: #ededed" transform="translate(42.45 -40.02) rotate(45)" width="1.58" x="70.35" y="34.71"/>
        <rect height="0.79" style="fill: #ededed" transform="translate(42.85 -39.06) rotate(45)" width="1.58" x="69.38" y="35.67"/>
        <rect height="0.79" style="fill: #ededed" transform="translate(43.3 -37.96) rotate(45)" width="1.58" x="68.29" y="36.77"/>
        <rect height="0.79" style="fill: #ededed" transform="translate(25.53 -42.33) rotate(45)" width="1.58" x="64.67" y="13.13"/>
        <rect height="0.79" style="fill: #ededed" transform="translate(25.93 -41.38) rotate(45)" width="1.58" x="63.72" y="14.09"/>
        <rect height="0.79" style="fill: #ededed" transform="translate(26.36 -40.32) rotate(45)" width="1.58" x="62.67" y="15.14"/>
        <rect height="0.79" style="fill: #ededed" transform="translate(26.75 -39.38) rotate(45)" width="1.58" x="61.72" y="16.09"/>
        <rect height="0.79" style="fill: #ededed" transform="translate(27.19 -38.33) rotate(45)" width="1.58" x="60.67" y="17.13"/>
        <rect height="0.79" style="fill: #ededed" transform="translate(27.6 -37.33) rotate(45)" width="1.58" x="59.67" y="18.13"/>
        <rect height="0.79" style="fill: #ededed" transform="translate(27.99 -36.38) rotate(45)" width="1.58" x="58.73" y="19.08"/>
        <rect height="0.79" style="fill: #ededed" transform="translate(28.42 -35.36) rotate(45)" width="1.58" x="57.7" y="20.1"/>
        <rect height="0.79" style="fill: #ededed" transform="translate(28.82 -34.38) rotate(45)" width="1.58" x="56.72" y="21.08"/>
        <rect height="0.79" style="fill: #ededed" transform="translate(29.23 -33.41) rotate(45)" width="1.58" x="55.76" y="22.05"/>
        <rect height="0.79" style="fill: #ededed" transform="translate(29.68 -32.32) rotate(45)" width="1.58" x="54.66" y="23.14"/>
        <rect height="0.79" style="fill: #ededed" transform="translate(-6.21 47.3) rotate(-45)" width="1.58" x="54.8" y="26.87"/>
        <rect height="0.79" style="fill: #ededed" transform="translate(-6.6 48.25) rotate(-45)" width="1.58" x="55.75" y="27.82"/>
        <rect height="0.79" style="fill: #ededed" transform="translate(-7.04 49.3) rotate(-45)" width="1.58" x="56.81" y="28.88"/>
        <rect height="0.79" style="fill: #ededed" transform="translate(-7.43 50.25) rotate(-45)" width="1.58" x="57.75" y="29.82"/>
        <rect height="0.79" style="fill: #ededed" transform="translate(-7.86 51.3) rotate(-45)" width="1.58" x="58.8" y="30.87"/>
        <rect height="0.79" style="fill: #ededed" transform="translate(-8.28 52.3) rotate(-45)" width="1.58" x="59.8" y="31.87"/>
        <rect height="0.79" style="fill: #ededed" transform="translate(-8.67 53.24) rotate(-45)" width="1.58" x="60.75" y="32.82"/>
        <rect height="0.79" style="fill: #ededed" transform="translate(-9.09 54.27) rotate(-45)" width="1.58" x="61.77" y="33.84"/>
        <rect height="0.79" style="fill: #ededed" transform="translate(-9.5 55.24) rotate(-45)" width="1.58" x="62.75" y="34.82"/>
        <rect height="19.83" style="fill: #2a2b2d" transform="translate(-1.59 55.03) rotate(-45)" width="19.83" x="57.32" y="15.64"/>
        <path d="M71.55,33.46l.57-.57-7.68-7.68H63.17S71.55,33.34,71.55,33.46Z" style="fill: #616161" transform="translate(-3.21 0)"/>
        <polygon points="68.19 33.61 67.83 33.98 65 34.54 64.36 33.9 66.45 31.82 67.09 32.46 66.64 32.91 66.8 33.08 67.22 32.66 68.19 33.61" style="fill: #616161"/>
        <polygon points="66.28 31.73 65.32 30.77 63.22 32.87 57.48 27.13 56.76 27.85 63.66 34.75 64.44 34.75 64.67 34.51 64.09 33.93 66.28 31.73" style="fill: #616161"/>
        <polygon points="65.19 30.66 63.19 32.66 60.89 30.36 62.89 28.36 63.49 28.96 63.49 29.17 61.97 30.7 62.05 30.78 63.71 29.12 64.36 29.77 64.36 29.95 62.84 31.48 62.91 31.55 64.55 29.92 65.24 30.61 65.19 30.66" style="fill: #616161"/>
        <polygon points="61.07 26.58 62.74 28.24 60.76 30.22 59.07 28.53 59.57 28.03 60.8 29.26 60.94 29.13 59.73 27.91 60.39 27.25 61.65 28.52 61.75 28.42 60.5 27.16 61.07 26.58" style="fill: #616161"/>
        <polygon points="60.96 26.48 59.77 25.3 58.83 25.67 59.63 26.48 58.35 27.76 59.02 28.42 60.96 26.48" style="fill: #616161"/>
        <g>
          <path d="M72.07,31.81l-.18-.18,1-1a.1.1,0,0,1,.14.14l-.83.83h0l.33-.06,0,0s.1-.07.16,0a.1.1,0,0,1,0,.16l0,0-.06.33h0l.83-.83a.1.1,0,0,1,.14.14l-1,1-.18-.18.08-.42Z" style="fill: #616161" transform="translate(-3.21 0)"/>
          <path d="M71.9,29.73a.1.1,0,0,1,.14-.14l.63.63-1.1,1.1-.63-.63a.1.1,0,0,1,.14-.14l.49.49.34-.34-.21-.21a.1.1,0,0,1,.14-.14l.21.21.34-.34Z" style="fill: #616161" transform="translate(-3.21 0)"/>
          <path d="M70.87,29.13a.1.1,0,1,1-.14.14L70.45,29l.28-.28a.3.3,0,0,1,.45,0l.24.24a.3.3,0,0,1,.11.22.29.29,0,0,1-.11.24l-.35.35a.41.41,0,0,1-.28.13l-.38,0a.31.31,0,0,1-.29-.1l-.19-.19a.1.1,0,0,1,.14-.14l.17.17c.08.08.07.07.18.06l.35,0a.39.39,0,0,0,.23-.14l.28-.28c.08-.08.08-.12,0-.2L71,28.87c-.05,0-.1-.08-.17,0l-.14.14Z" style="fill: #616161" transform="translate(-3.21 0)"/>
          <path d="M69.33,28.93c-.05,0-.1,0-.14,0s0-.1,0-.15l.68-1.23s.1,0,.14,0a.12.12,0,0,1,0,.15l-.12.22.3.3.22-.12a.12.12,0,0,1,.15,0s0,.12,0,.14Zm.19-.34h0l.49-.27-.22-.22Z" style="fill: #616161" transform="translate(-3.21 0)"/>
          <path d="M68.59,28a.1.1,0,1,1-.14.14L68,27.7a.2.2,0,0,1,0-.28l.27-.27a.23.23,0,0,1,.19-.08.23.23,0,0,1,.08-.19l.27-.27a.2.2,0,0,1,.28,0l.49.49a.1.1,0,1,1-.14.14l-.49-.49-.23.23c-.08.08-.07.13,0,.17l.28.28a.1.1,0,0,1-.14.14l-.28-.28s-.1,0-.17,0l-.23.24Z" style="fill: #616161" transform="translate(-3.21 0)"/>
          <path d="M68.32,26.14l-.49-.49a.1.1,0,0,1,.14-.14l.63.63-.46.46a.2.2,0,0,1-.32,0l-.4-.4-.34.34.49.49a.1.1,0,1,1-.14.14L67,26.7a.21.21,0,0,1,0-.32l.29-.29a.21.21,0,0,1,.17-.08.21.21,0,0,1,.15.08l.4.4Z" style="fill: #616161" transform="translate(-3.21 0)"/>
          <path d="M67.35,24.89a.31.31,0,0,1,.1.25.32.32,0,0,1-.11.22l-.79.79a.09.09,0,0,1-.14,0,.09.09,0,0,1,0-.14l.79-.79c.08-.08.08-.12,0-.19L67,24.79c-.06-.06-.11-.07-.19,0l-.79.79a.09.09,0,0,1-.14,0,.09.09,0,0,1,0-.14l.79-.79a.32.32,0,0,1,.22-.12.31.31,0,0,1,.25.1Z" style="fill: #616161" transform="translate(-3.21 0)"/>
          <path d="M65.58,24.12l-.41.41a.1.1,0,1,1-.14-.14l.41-.41a.09.09,0,0,1,0-.14.09.09,0,0,1,.14,0l.29-.29a.1.1,0,0,1,.14.14l-.29.29.42.41-.67.67a.1.1,0,1,1-.14-.14l.53-.53Z" style="fill: #616161" transform="translate(-3.21 0)"/>
        </g>
        <g>
          <path d="M74.34,29.56a.12.12,0,0,1,.17-.17l.33.33a.12.12,0,0,1-.17.17Z" style="fill: #616161" transform="translate(-3.21 0)"/>
          <path d="M72.84,29l-.18-.18,1-1a.1.1,0,0,1,.14.14l-.83.83h0l.33-.06,0,0s.1-.07.16,0,0,.11,0,.16l0,0-.06.33h0l.83-.83a.1.1,0,0,1,.14.14l-1,1-.18-.18.08-.42Z" style="fill: #616161" transform="translate(-3.21 0)"/>
          <path d="M73.22,27.17a.31.31,0,0,1,.1.25.32.32,0,0,1-.12.22l-.79.79a.1.1,0,0,1-.14-.14l.79-.79c.08-.08.07-.12,0-.19l-.24-.24c-.06-.06-.11-.07-.19,0l-.79.79a.1.1,0,1,1-.14-.14l.79-.79a.32.32,0,0,1,.22-.12.31.31,0,0,1,.25.1Z" style="fill: #616161" transform="translate(-3.21 0)"/>
        </g>
        <g>
          <path d="M76.49,27.31l-.29.29a.09.09,0,0,1-.14,0,.09.09,0,0,1,0-.14l.36-.36a.09.09,0,0,1,.14,0l.56.56a.1.1,0,1,1-.14.14l-.21-.21-.82.82.21.21a.1.1,0,0,1-.14.14l-.35-.35,1-1Z" style="fill: #616161" transform="translate(-3.21 0)"/>
          <path d="M75.18,26.73l-.41.41a.1.1,0,1,1-.14-.14l.41-.41a.1.1,0,0,1,.14-.14l.29-.29a.1.1,0,0,1,.14.14l-.29.29.41.41-.67.67a.09.09,0,0,1-.14,0,.09.09,0,0,1,0-.14l.53-.53Z" style="fill: #616161" transform="translate(-3.21 0)"/>
          <path d="M74.25,26,74,25.77a.2.2,0,0,1-.07-.15.2.2,0,0,1,.08-.16l.3-.3a.21.21,0,0,1,.14-.08.19.19,0,0,1,.17.07l.31.31a.3.3,0,0,1,.07.12l0,.08c0,.05.05.11,0,.16a.1.1,0,0,1-.14,0l0-.06,0-.06a.36.36,0,0,0,0-.1l-.33-.33-.34.34.42.42-.62.62-.49-.49a.1.1,0,0,1,.14-.14l.35.35Z" style="fill: #616161" transform="translate(-3.21 0)"/>
          <path d="M73.85,24.68l-.49-.49a.1.1,0,0,1,.14-.14l.63.63-.46.46a.2.2,0,0,1-.32,0l-.4-.4-.34.34.49.49a.09.09,0,0,1,0,.14.09.09,0,0,1-.14,0l-.47-.47a.21.21,0,0,1,0-.32l.29-.29a.21.21,0,0,1,.32,0l.4.4Z" style="fill: #616161" transform="translate(-3.21 0)"/>
          <path d="M72.35,23.17a.1.1,0,0,1,.14-.14l.63.63L72,24.76l-.63-.63a.1.1,0,0,1,.14-.14l.49.49.34-.34-.21-.21a.1.1,0,0,1,.14-.14l.21.21.34-.34Z" style="fill: #616161" transform="translate(-3.21 0)"/>
        </g>
        <g>
          <path d="M65.61,18.07l.05-.05a.1.1,0,0,1,.14.14l-.19.19-.7-.7.19-.19a.1.1,0,0,1,.14.14l-.05.05.14.14.89-.89a.1.1,0,0,1,.14.14l-.89.89Z" style="fill: #616161" transform="translate(-3.21 0)"/>
          <path d="M65.07,16.57l.41-.41a.1.1,0,0,1,.14.14l-1,1a.1.1,0,0,1-.14-.14l.41-.41-.42-.42-.41.41a.09.09,0,0,1-.14,0,.09.09,0,0,1,0-.14l1-1a.1.1,0,0,1,.14.14l-.41.41Z" style="fill: #616161" transform="translate(-3.21 0)"/>
        </g>
        <g>
          <path d="M77.74,26.63s-.1,0-.14,0,0-.1,0-.15l.68-1.23s.1,0,.14,0a.12.12,0,0,1,0,.15l-.12.22.3.3.22-.12a.12.12,0,0,1,.15,0,.09.09,0,0,1,0,.14Zm.19-.34h0l.49-.27-.22-.22Z" style="fill: #616161" transform="translate(-3.21 0)"/>
          <path d="M77.74,24.86l-.49-.49a.1.1,0,0,1,.14-.14l.63.63-.46.46a.2.2,0,0,1-.32,0l-.4-.4-.34.34.49.49a.1.1,0,1,1-.14.14l-.47-.47a.2.2,0,0,1,0-.32l.29-.29a.2.2,0,0,1,.32,0l.4.4Z" style="fill: #616161" transform="translate(-3.21 0)"/>
          <path d="M76.8,23.77a.09.09,0,0,1,.14,0,.09.09,0,0,1,0,.14l-1,1-.47-.48a.3.3,0,0,1,0-.43l.1-.1a.29.29,0,0,1,.42,0l.13.13.14-.77a.2.2,0,0,1,0-.11.1.1,0,0,1,.14,0,.11.11,0,0,1,0,.1l-.17.95,0,0Zm-.67.67-.31-.31s-.1-.1-.16,0l-.1.1c-.06.06,0,.12,0,.17l.31.31Z" style="fill: #616161" transform="translate(-3.21 0)"/>
          <path d="M75.17,23.1l-.18.68a.13.13,0,0,1,0,.07.1.1,0,0,1-.14,0s0-.1,0-.15l.14-.54-.54.14c-.05,0-.1,0-.15,0a.1.1,0,0,1,0-.13l.07,0,.68-.18.18-.68a.13.13,0,0,1,0-.07.1.1,0,0,1,.14,0s0,.1,0,.15l-.14.54.54-.14c.05,0,.1,0,.15,0a.1.1,0,0,1,0,.14.13.13,0,0,1-.07,0Z" style="fill: #616161" transform="translate(-3.21 0)"/>
          <path d="M73.87,22.9l-.63-.63a.1.1,0,0,1,.14-.14l.49.49.22-.22-.35-.35a.1.1,0,0,1,.14-.14l.35.35.53-.53a.1.1,0,0,1,.14.14Z" style="fill: #616161" transform="translate(-3.21 0)"/>
          <path d="M72.3,21.33a.2.2,0,0,1,0-.28l.82-.82a.2.2,0,0,1,.28,0l.42.42a.2.2,0,0,1,0,.28l-.82.82a.2.2,0,0,1-.28,0Zm1-1-.82.82.42.42.82-.82Z" style="fill: #616161" transform="translate(-3.21 0)"/>
        </g>
      </g>
      <g>
        <rect height="2.88" style="fill: #5d6366" width="3.53" x="87.67" y="40.8"/>
        <polygon points="88.17 43.55 85 43.55 84.67 43.91 84.1 43.24 84.33 43.01 84.33 40.8 88.17 40.8 88.17 43.55" style="fill: #eaebe8"/>
        <rect height="3.06" style="fill: #eaebe8" width="2.1" x="92.15" y="40.63"/>
        <rect height="3.43" style="fill: #969086" width="1.51" x="86.66" y="40.63"/>
        <rect height="3.43" style="fill: #969086" width="1.51" x="90.66" y="40.63"/>
      </g>
      <rect height="0.3" width="8.65" x="120.33" y="9.64"/>
      <rect height="8.25" style="fill: #d0d1cd" width="8.25" x="93.14" y="31.56"/>
      <path d="M103.91,39.8H97.19s.45-.92.45-4.18-.45-4.06-.45-4.06h6.72a16.84,16.84,0,0,0-.5,4.07A18.17,18.17,0,0,0,103.91,39.8Z" style="fill: #b38f70" transform="translate(-3.21 0)"/>
    </g>
    <g id="text">
      <g>
        <path d="M20.69,3.26V2.66a.15.15,0,1,1,.3,0v.76a.14.14,0,0,1-.15.15H19.66a.15.15,0,0,1,0-.3h.44V1.53h-.44a.14.14,0,0,1-.15-.15.14.14,0,0,1,.15-.15h.74v2Z" style="fill: #fff" transform="translate(-3.21 0)"/>
        <path d="M19.81,6.86h1a.15.15,0,1,1,0,.3H19.51v-1a.3.3,0,0,1,.34-.34h.84V5.13h-1a.15.15,0,0,1,0-.3h1a.31.31,0,0,1,.34.35v.62a.31.31,0,0,1-.34.35h-.85Z" style="fill: #fff" transform="translate(-3.21 0)"/>
      </g>
      <g>
        <path d="M28,3.23V2.62a.15.15,0,1,1,.3,0v.76a.14.14,0,0,1-.15.15H27a.15.15,0,0,1,0-.3h.44V1.49H27a.14.14,0,0,1-.15-.15A.14.14,0,0,1,27,1.19h.74v2Z" style="fill: #fff" transform="translate(-3.21 0)"/>
        <path d="M28,6.83V6.22a.15.15,0,1,1,.3,0V7a.14.14,0,0,1-.15.15H27a.15.15,0,0,1,0-.3h.44V5.09H27a.15.15,0,0,1,0-.3h.74v2Z" style="fill: #fff" transform="translate(-3.21 0)"/>
      </g>
      <g>
        <path d="M35.32,3.24V2.63a.15.15,0,1,1,.3,0v.76a.14.14,0,0,1-.15.15H34.28a.15.15,0,0,1,0-.3h.44V1.5h-.44a.14.14,0,0,1-.15-.15.14.14,0,0,1,.15-.15H35v2Z" style="fill: #fff" transform="translate(-3.21 0)"/>
        <path d="M35.32,4.8a.3.3,0,0,1,.3.3V6.84a.3.3,0,0,1-.3.3h-.88a.3.3,0,0,1-.3-.3V5.1a.3.3,0,0,1,.3-.3Zm0,2V5.1h-.88V6.84Z" style="fill: #fff" transform="translate(-3.21 0)"/>
      </g>
      <path d="M42.61,5.89h-1a.15.15,0,0,1-.15-.15V5a.15.15,0,0,1,.15-.15h1.18a.15.15,0,0,1,.15.15V7a.15.15,0,0,1-.15.15h-.15A.15.15,0,0,1,42.46,7a.14.14,0,0,1,.15-.15Zm0-.3V5.12h-.88v.47Z" style="fill: #fff" transform="translate(-3.21 0)"/>
      <path d="M49.38,4.83a.14.14,0,0,1,.15.15v.87a.31.31,0,0,1,.22.08.29.29,0,0,1,.08.22v.72a.28.28,0,0,1-.3.3h-.88a.28.28,0,0,1-.3-.3V6.15a.29.29,0,0,1,.08-.22.31.31,0,0,1,.22-.08V5a.14.14,0,0,1,.15-.15Zm.15,2V6.15h-.88v.72Zm-.3-1V5.13H49v.72Z" style="fill: #fff" transform="translate(-3.21 0)"/>
      <path d="M55.91,5.1a.15.15,0,1,1-.3,0V4.95a.15.15,0,0,1,.15-.15H57.1v.87c0,.1,0,.12-.08.19l-.42.36c-.08.07-.08.08-.08.18V7a.15.15,0,1,1-.3,0V6.26a.16.16,0,0,1,.08-.17l.41-.36c.1-.09.09-.08.09-.22V5.1Z" style="fill: #fff" transform="translate(-3.21 0)"/>
      <path d="M63.11,6.07h1c.15,0,.18.06.18.2v.67c0,.14-.06.19-.2.19H63c-.14,0-.2-.05-.2-.19v-2c0-.07,0-.15.13-.15h.18a.15.15,0,0,1,.14.15.14.14,0,0,1-.15.15Zm0,.3v.46H64V6.37Z" style="fill: #fff" transform="translate(-3.21 0)"/>
      <path d="M78.3,6.06V5.19a.15.15,0,1,1,.3,0v.87a.15.15,0,1,1,0,.3V7a.15.15,0,1,1-.3,0V6.36h-.88V4.93a.15.15,0,0,1,.3,0V6.06Z" style="fill: #fff" transform="translate(-3.21 0)"/>
      <path d="M70.76,5.8h.55a.31.31,0,0,1,.24.08.3.3,0,0,1,.09.26v.64a.32.32,0,0,1-.07.23.29.29,0,0,1-.26.1h-.67a.43.43,0,0,1-.2-.05L70.33,7c-.08,0-.17-.06-.17-.17a.15.15,0,0,1,.14-.15l.1,0,.09,0a.51.51,0,0,0,.16.06h.69V6.1h-.89V4.78h1a.15.15,0,1,1,0,.3h-.74Z" style="fill: #fff" transform="translate(-3.21 0)"/>
      <path d="M84.59,5.1a.15.15,0,0,1,0-.3h1a.29.29,0,0,1,.3.3v.58a.35.35,0,0,1-.12.29.35.35,0,0,1,.12.29v.58a.29.29,0,0,1-.3.3h-1a.15.15,0,0,1,0-.3h1v-.5c0-.17-.07-.22-.15-.22h-.59a.15.15,0,0,1,0-.3h.59c.08,0,.15-.05.15-.22V5.1Z" style="fill: #fff" transform="translate(-3.21 0)"/>
      <path d="M92,6.79h1a.15.15,0,0,1,0,.3H91.71v-1a.3.3,0,0,1,.34-.34h.84V5.05h-1a.15.15,0,1,1,0-.3h1a.31.31,0,0,1,.34.35v.62a.31.31,0,0,1-.34.35H92Z" style="fill: #fff" transform="translate(-3.21 0)"/>
      <g>
        <path d="M106.37,3.42a.15.15,0,1,1-.3,0V1.23h1a.45.45,0,0,1,.47.44v.21a.44.44,0,0,1-.47.43h-.28l.68,1a.3.3,0,0,1,.08.16.14.14,0,0,1-.15.14.16.16,0,0,1-.13-.08l-.83-1.18h-.07Zm0-1.42H107c.08,0,.22,0,.22-.13V1.67c0-.12-.12-.14-.21-.14h-.67Z" style="fill: #fff" transform="translate(-3.21 0)"/>
        <path d="M107.45,6.58a.39.39,0,0,1,.11.25.34.34,0,0,1-.38.34h-.66a.44.44,0,0,1-.3-.1.38.38,0,0,1-.14-.28.16.16,0,0,1,.16-.18.14.14,0,0,1,.14.15c0,.09,0,.1.13.1h.65s.1,0,.1,0,0-.07-.05-.09l-1-1.33a.36.36,0,0,1-.1-.25.33.33,0,0,1,.16-.29.4.4,0,0,1,.25-.05h.64a.42.42,0,0,1,.3.1.41.41,0,0,1,.14.29.15.15,0,0,1-.16.17.13.13,0,0,1-.14-.14c0-.1-.05-.12-.14-.12h-.64s-.1,0-.1,0,0,.06,0,.08Z" style="fill: #fff" transform="translate(-3.21 0)"/>
      </g>
      <g>
        <path d="M113.2,3.42a.15.15,0,1,1-.3,0V1.23h1a.45.45,0,0,1,.48.44v.21a.44.44,0,0,1-.48.43h-.28l.68,1a.3.3,0,0,1,.08.16.14.14,0,0,1-.15.14.16.16,0,0,1-.13-.08l-.83-1.18h-.07Zm0-1.42h.67c.08,0,.22,0,.22-.13V1.67c0-.12-.12-.14-.21-.14h-.67Z" style="fill: #fff" transform="translate(-3.21 0)"/>
        <path d="M113.47,6l-.54-.92a.19.19,0,0,1,0-.11.15.15,0,0,1,.15-.14c.1,0,.13.08.17.15l.42.72.42-.72c0-.07.08-.15.17-.15a.15.15,0,0,1,.15.14.2.2,0,0,1,0,.11l-.54.92.54.92a.2.2,0,0,1,0,.11.15.15,0,0,1-.15.14c-.1,0-.13-.08-.17-.15l-.42-.72-.42.72c0,.07-.08.15-.17.15A.15.15,0,0,1,112.9,7a.19.19,0,0,1,0-.11Z" style="fill: #fff" transform="translate(-3.21 0)"/>
      </g>
      <g>
        <path d="M120.45,1.47v.11a.15.15,0,0,1-.3,0V1.17h1.49v.41a.15.15,0,0,1-.3,0V1.47H121V3.36a.15.15,0,0,1-.3,0V1.47Z" style="fill: #fff" transform="translate(-3.21 0)"/>
        <path d="M120.72,5.94,120.19,5a.19.19,0,0,1,0-.11.15.15,0,0,1,.15-.14c.1,0,.13.08.17.15l.42.72.42-.72c0-.07.08-.15.17-.15a.15.15,0,0,1,.15.14.2.2,0,0,1,0,.11l-.54.92.54.92a.2.2,0,0,1,0,.11.15.15,0,0,1-.15.14c-.1,0-.13-.08-.17-.15l-.42-.72-.42.72c0,.07-.08.15-.17.15a.15.15,0,0,1-.15-.14.19.19,0,0,1,0-.11Z" style="fill: #fff" transform="translate(-3.21 0)"/>
      </g>
      <g>
        <path d="M128.86,2.93a.39.39,0,0,1,.11.25.34.34,0,0,1-.38.34h-.66a.44.44,0,0,1-.3-.1.38.38,0,0,1-.14-.28.16.16,0,0,1,.16-.18.14.14,0,0,1,.14.15c0,.09,0,.1.13.1h.65s.1,0,.1,0,0-.07-.05-.09l-1-1.33a.36.36,0,0,1-.1-.25.33.33,0,0,1,.16-.29.4.4,0,0,1,.25-.05h.64a.42.42,0,0,1,.3.1.41.41,0,0,1,.14.29.15.15,0,0,1-.16.17.13.13,0,0,1-.14-.14c0-.1-.05-.12-.14-.12h-.64s-.1,0-.1,0,0,.06,0,.08Z" style="fill: #fff" transform="translate(-3.21 0)"/>
        <path d="M128.86,6.53a.39.39,0,0,1,.11.25.34.34,0,0,1-.38.34h-.66a.44.44,0,0,1-.3-.1.38.38,0,0,1-.14-.28.16.16,0,0,1,.16-.18.14.14,0,0,1,.14.15c0,.09,0,.1.13.1h.65s.1,0,.1,0,0-.07-.05-.09l-1-1.33a.36.36,0,0,1-.1-.25.33.33,0,0,1,.16-.29.4.4,0,0,1,.25-.05h.64a.42.42,0,0,1,.3.1.41.41,0,0,1,.14.29.15.15,0,0,1-.16.17.13.13,0,0,1-.14-.14c0-.1-.05-.12-.14-.12h-.64s-.1,0-.1,0,0,.06,0,.08Z" style="fill: #fff" transform="translate(-3.21 0)"/>
      </g>
      <g>
        <path d="M136,1h.38V3.16a.15.15,0,1,1-.3,0V1.39h0l-.29.42v0c0,.09,0,.18-.15.18s-.15-.09-.15-.18v0l-.29-.42h0V3.16a.15.15,0,1,1-.3,0V1h.38l.37.53Z" style="fill: #fff" transform="translate(-3.21 0)"/>
        <path d="M136.29,5.42a.68.68,0,0,1,.08.33.74.74,0,0,1-.1.36l-.28.55a.39.39,0,0,1-.73,0L135,6.11a.74.74,0,0,1-.1-.36.68.68,0,0,1,.08-.33l.3-.6a.39.39,0,0,1,.73,0ZM135.73,5s0-.09-.1-.09-.08,0-.1.09l-.27.54a.47.47,0,0,0-.07.24.4.4,0,0,0,.05.2l.29.57s0,.09.1.09.08,0,.1-.09l.29-.57a.4.4,0,0,0,.05-.2.47.47,0,0,0-.07-.24Z" style="fill: #fff" transform="translate(-3.21 0)"/>
      </g>
      <g>
        <path d="M20.69,45.64V45a.15.15,0,1,1,.3,0v.76a.14.14,0,0,1-.15.15H19.66a.15.15,0,0,1,0-.3h.44V43.9h-.44a.15.15,0,0,1,0-.3h.74v2Z" style="fill: #fff" transform="translate(-3.21 0)"/>
        <path d="M19.66,47.5a.15.15,0,0,1,0-.3h1a.29.29,0,0,1,.3.3v.58a.35.35,0,0,1-.12.29.35.35,0,0,1,.12.29v.58a.29.29,0,0,1-.3.3h-1a.15.15,0,0,1,0-.3h1v-.5c0-.17-.07-.22-.15-.22H20a.15.15,0,1,1,0-.3h.59c.08,0,.15-.05.15-.22v-.5Z" style="fill: #fff" transform="translate(-3.21 0)"/>
      </g>
      <g>
        <path d="M27,43.87a.15.15,0,0,1,0-.3h1a.29.29,0,0,1,.3.3v.58a.35.35,0,0,1-.12.29.35.35,0,0,1,.12.29v.58a.29.29,0,0,1-.3.3H27a.15.15,0,0,1,0-.3h1v-.5c0-.17-.07-.22-.15-.22h-.59a.15.15,0,1,1,0-.3h.59c.08,0,.15-.05.15-.22v-.5Z" style="fill: #fff" transform="translate(-3.21 0)"/>
        <path d="M28,47.8v-.48a.15.15,0,1,1,.3,0v.48a.31.31,0,0,1,0,.12l-.57,1.46c0,.08-.06.13-.15.13s-.12-.06-.15-.13l-.57-1.46a.31.31,0,0,1,0-.12v-.48a.15.15,0,1,1,.3,0v.48l.44,1.15Z" style="fill: #fff" transform="translate(-3.21 0)"/>
      </g>
      <g>
        <path d="M34.43,45.77a.15.15,0,1,1-.3,0V43.58h1a.45.45,0,0,1,.48.44v.21a.44.44,0,0,1-.48.43h-.28l.68,1a.3.3,0,0,1,.08.16.14.14,0,0,1-.15.14.16.16,0,0,1-.13-.08l-.83-1.18h-.07Zm0-1.42h.67c.08,0,.22,0,.22-.13V44c0-.12-.12-.14-.21-.14h-.67Z" style="fill: #fff" transform="translate(-3.21 0)"/>
        <path d="M34.13,47.18h1.33a.15.15,0,1,1,0,.3h-1v.46h.74a.15.15,0,1,1,0,.3h-.74v1.12a.15.15,0,1,1-.3,0Z" style="fill: #fff" transform="translate(-3.21 0)"/>
      </g>
      <g>
        <path d="M42,43.75c0-.08.06-.15.15-.15s.14.08.16.15l.58,2c0,.07-.06.15-.14.15a.18.18,0,0,1-.16-.15l-.11-.36h-.64l-.11.36a.18.18,0,0,1-.16.15c-.08,0-.17-.08-.14-.15Zm.16.56h0l-.23.81h.47Z" style="fill: #fff" transform="translate(-3.21 0)"/>
        <path d="M42.61,47.2a.3.3,0,0,1,.3.3v1.74a.3.3,0,0,1-.3.3h-.88a.3.3,0,0,1-.3-.3V47.5a.3.3,0,0,1,.3-.3Zm0,2V47.5h-.88v1.74Z" style="fill: #fff" transform="translate(-3.21 0)"/>
      </g>
      <g>
        <path d="M48.94,43.76c0-.08.06-.15.15-.15s.14.08.16.15l.58,2c0,.07-.06.15-.14.15a.18.18,0,0,1-.16-.15l-.11-.36h-.64l-.11.36a.18.18,0,0,1-.16.15c-.08,0-.17-.08-.14-.15Zm.16.56h0l-.23.82h.47Z" style="fill: #fff" transform="translate(-3.21 0)"/>
        <path d="M49.53,49.24v-.61a.15.15,0,1,1,.3,0v.76a.14.14,0,0,1-.15.15H48.5a.15.15,0,0,1,0-.3h.44V47.51H48.5a.15.15,0,0,1,0-.3h.74v2Z" style="fill: #fff" transform="translate(-3.21 0)"/>
      </g>
      <g>
        <path d="M56.2,43.73c0-.08.06-.15.15-.15s.14.08.16.15l.58,2c0,.07-.06.15-.14.15a.18.18,0,0,1-.16-.15l-.11-.36H56l-.11.36a.18.18,0,0,1-.16.15c-.08,0-.17-.08-.14-.15Zm.16.56h0l-.23.82h.47Z" style="fill: #fff" transform="translate(-3.21 0)"/>
        <path d="M55.91,49.21h1a.15.15,0,1,1,0,.3H55.61v-1a.3.3,0,0,1,.34-.34h.84v-.72h-1a.15.15,0,0,1,0-.3h1a.31.31,0,0,1,.34.35v.62a.31.31,0,0,1-.34.35h-.85Z" style="fill: #fff" transform="translate(-3.21 0)"/>
      </g>
      <g>
        <path d="M63.4,43.73c0-.08.06-.15.15-.15s.14.08.16.15l.58,2c0,.07-.06.15-.14.15a.18.18,0,0,1-.16-.15l-.11-.36h-.64l-.11.36a.18.18,0,0,1-.16.15c-.08,0-.17-.08-.14-.15Zm.16.56h0l-.23.82h.47Z" style="fill: #fff" transform="translate(-3.21 0)"/>
        <path d="M63,47.48a.15.15,0,0,1,0-.3h1a.29.29,0,0,1,.3.3v.58a.35.35,0,0,1-.12.29.35.35,0,0,1,.12.29v.58a.29.29,0,0,1-.3.3H63a.15.15,0,0,1,0-.3h1v-.5c0-.17-.07-.22-.15-.22h-.59a.15.15,0,1,1,0-.3h.59c.08,0,.15-.05.15-.22v-.5Z" style="fill: #fff" transform="translate(-3.21 0)"/>
      </g>
      <g>
        <path d="M70.66,43.73c0-.08.06-.15.15-.15s.14.08.16.15l.58,2c0,.07-.06.15-.14.15a.18.18,0,0,1-.16-.15l-.11-.36h-.64l-.11.36a.18.18,0,0,1-.16.15c-.08,0-.17-.08-.14-.15Zm.16.56h0l-.23.82H71Z" style="fill: #fff" transform="translate(-3.21 0)"/>
        <path d="M71.1,48.45v-.87a.15.15,0,0,1,.3,0v.87a.15.15,0,1,1,0,.3v.61a.15.15,0,0,1-.3,0v-.61h-.88V47.32a.15.15,0,1,1,.3,0v1.13Z" style="fill: #fff" transform="translate(-3.21 0)"/>
      </g>
      <g>
        <path d="M77.86,43.71c0-.08.06-.15.15-.15s.13.08.16.15l.58,2c0,.07-.06.15-.14.15a.18.18,0,0,1-.16-.15l-.11-.36h-.64l-.11.36a.18.18,0,0,1-.16.15c-.08,0-.17-.08-.14-.15Zm.16.56h0l-.23.82h.47Z" style="fill: #fff" transform="translate(-3.21 0)"/>
        <path d="M77.87,48.18h.55a.31.31,0,0,1,.24.08.3.3,0,0,1,.09.26v.64a.32.32,0,0,1-.07.24.29.29,0,0,1-.26.1h-.67a.43.43,0,0,1-.2-.05l-.11-.05c-.08,0-.17-.06-.17-.17a.15.15,0,0,1,.14-.15l.1,0,.09,0a.52.52,0,0,0,.16.06h.69v-.72h-.89V47.16h1a.15.15,0,1,1,0,.3h-.74Z" style="fill: #fff" transform="translate(-3.21 0)"/>
      </g>
      <g>
        <path d="M99.5,44.55h.55a.31.31,0,0,1,.24.08.3.3,0,0,1,.09.25v.64a.32.32,0,0,1-.07.23.29.29,0,0,1-.26.1h-.67a.43.43,0,0,1-.2-.05l-.11-.05c-.08,0-.17-.06-.17-.17a.15.15,0,0,1,.14-.15l.1,0,.09,0a.5.5,0,0,0,.16.06h.69v-.72H99.2V43.53h1a.15.15,0,0,1,0,.3H99.5Z" style="fill: #fff" transform="translate(-3.21 0)"/>
        <path d="M100.09,47.76v-.48a.15.15,0,1,1,.3,0v.48a.3.3,0,0,1,0,.12l-.57,1.46c0,.08-.06.13-.15.13s-.12-.06-.15-.13l-.57-1.46a.3.3,0,0,1,0-.12v-.48a.15.15,0,1,1,.3,0v.48l.44,1.15Z" style="fill: #fff" transform="translate(-3.21 0)"/>
      </g>
      <g>
        <path d="M106.37,45.8a.15.15,0,1,1-.3,0V43.61h1a.45.45,0,0,1,.47.44v.21a.44.44,0,0,1-.47.43h-.28l.68,1a.3.3,0,0,1,.08.16.14.14,0,0,1-.15.14.16.16,0,0,1-.13-.08l-.83-1.18h-.07Zm0-1.42H107c.08,0,.22,0,.22-.13V44c0-.12-.12-.14-.21-.14h-.67Z" style="fill: #fff" transform="translate(-3.21 0)"/>
        <path d="M107.45,49a.39.39,0,0,1,.11.25.34.34,0,0,1-.38.34h-.66a.44.44,0,0,1-.3-.1.38.38,0,0,1-.14-.28.16.16,0,0,1,.16-.18.14.14,0,0,1,.14.15c0,.09,0,.1.13.1h.65s.1,0,.1,0,0-.07-.05-.09l-1-1.33a.36.36,0,0,1-.1-.25.34.34,0,0,1,.16-.29.4.4,0,0,1,.25-.05h.64a.42.42,0,0,1,.3.1.4.4,0,0,1,.14.29.15.15,0,0,1-.16.17.13.13,0,0,1-.14-.14c0-.1-.05-.12-.14-.12h-.64s-.1,0-.1,0,0,.06,0,.08Z" style="fill: #fff" transform="translate(-3.21 0)"/>
      </g>
      <g>
        <path d="M121.34,44.18V43.7a.15.15,0,1,1,.3,0v.48a.3.3,0,0,1,0,.12L121,45.76c0,.08-.06.13-.15.13s-.12-.06-.15-.13l-.57-1.46a.3.3,0,0,1,0-.12V43.7a.15.15,0,1,1,.3,0v.48l.44,1.15Z" style="fill: #fff" transform="translate(-3.21 0)"/>
        <path d="M121,49.19h.44a.15.15,0,0,1,0,.3H120.3a.15.15,0,0,1,0-.3h.44V47.45h-.44a.15.15,0,0,1,0-.3h1.18a.15.15,0,0,1,0,.3H121Z" style="fill: #fff" transform="translate(-3.21 0)"/>
      </g>
      <g>
        <path d="M128.59,43.56H129v2.19a.15.15,0,0,1-.3,0V44h0l-.29.42v0c0,.09,0,.18-.15.18s-.15-.09-.15-.18v0l-.29-.42h0v1.77a.15.15,0,1,1-.3,0V43.56h.38l.37.53Z" style="fill: #fff" transform="translate(-3.21 0)"/>
        <path d="M128.38,49.2h.44a.15.15,0,1,1,0,.3h-1.18a.15.15,0,0,1,0-.3h.44V47.46h-.44a.15.15,0,0,1,0-.3h1.18a.15.15,0,1,1,0,.3h-.44Z" style="fill: #fff" transform="translate(-3.21 0)"/>
      </g>
      <g>
        <path d="M135.79,46.2a.45.45,0,0,1-.45-.29l-.28-.56A.66.66,0,0,1,135,45a.66.66,0,0,1,.08-.33l.28-.56a.45.45,0,0,1,.46-.29h.51a.14.14,0,0,1,.15.15.14.14,0,0,1-.15.15h-.5c-.13,0-.15,0-.21.13l-.26.52a.47.47,0,0,0-.06.23.42.42,0,0,0,.06.21l.26.52c.06.12.09.13.23.13h.49a.14.14,0,0,1,.15.15.14.14,0,0,1-.15.15Z" style="fill: #fff" transform="translate(-3.21 0)"/>
        <path d="M135,47.61a.15.15,0,1,1,.3,0v.69l.92-.78a.2.2,0,0,1,.12-.06.15.15,0,0,1,.14.16.18.18,0,0,1-.07.13l-1,.88,1,.88a.18.18,0,0,1,.08.13.15.15,0,0,1-.14.16c-.06,0-.11-.05-.16-.09l-.88-.75v.69a.15.15,0,1,1-.3,0Z" style="fill: #fff" transform="translate(-3.21 0)"/>
      </g>
      <g>
        <line style="fill: none;stroke: #fff;stroke-linecap: round;stroke-miterlimit: 10;stroke-width: 0.25px" x1="95.96" x2="95.96" y1="4.01" y2="5.23"/>
        <line style="fill: none;stroke: #fff;stroke-linecap: round;stroke-miterlimit: 10;stroke-width: 0.25px" x1="95.18" x2="96.82" y1="5.23" y2="5.23"/>
        <line style="fill: none;stroke: #fff;stroke-linecap: round;stroke-miterlimit: 10;stroke-width: 0.25px" x1="95.25" x2="96.71" y1="5.83" y2="5.83"/>
        <line style="fill: none;stroke: #fff;stroke-linecap: round;stroke-miterlimit: 10;stroke-width: 0.5px" x1="95.62" x2="96.34" y1="6.46" y2="6.46"/>
      </g>
      <g>
        <line style="fill: none;stroke: #fff;stroke-linecap: round;stroke-miterlimit: 10;stroke-width: 0.25px" x1="110.71" x2="110.71" y1="43.94" y2="45.16"/>
        <line style="fill: none;stroke: #fff;stroke-linecap: round;stroke-miterlimit: 10;stroke-width: 0.25px" x1="109.93" x2="111.57" y1="45.16" y2="45.16"/>
        <line style="fill: none;stroke: #fff;stroke-linecap: round;stroke-miterlimit: 10;stroke-width: 0.25px" x1="110" x2="111.46" y1="45.76" y2="45.76"/>
        <line style="fill: none;stroke: #fff;stroke-linecap: round;stroke-miterlimit: 10;stroke-width: 0.5px" x1="110.36" x2="111.08" y1="46.39" y2="46.39"/>
      </g>
    </g>
  </g>
  <g id="Connectors">
    <ellipse cx="49.28" cy="3.6" data-cir-type="male" id="circuitoCon_7" rx="2.05" ry="1.99" style="fill: none;stroke: #e8e5df;stroke-miterlimit: 10;stroke-width: 1.224px"/>
    <ellipse cx="42.09" cy="3.6" data-cir-type="male" id="circuitoCon_8" rx="2.05" ry="1.99" style="fill: none;stroke: #e8e5df;stroke-miterlimit: 10;stroke-width: 1.224px"/>
    <ellipse cx="34.89" cy="3.6" data-cir-type="male" id="circuitoCon_9" rx="2.05" ry="1.99" style="fill: none;stroke: #e8e5df;stroke-miterlimit: 10;stroke-width: 1.224px"/>
    <ellipse cx="20.51" cy="3.6" data-cir-type="male" id="circuitoCon_11" rx="2.05" ry="1.99" style="fill: none;stroke: #e8e5df;stroke-miterlimit: 10;stroke-width: 1.224px"/>
    <ellipse cx="13.26" cy="3.6" data-cir-type="male" id="circuitoCon_12" rx="2.05" ry="1.99" style="fill: none;stroke: #e8e5df;stroke-miterlimit: 10;stroke-width: 1.224px"/>
    <ellipse cx="27.7" cy="3.6" data-cir-type="male" id="circuitoCon_10" rx="2.05" ry="1.99" style="fill: none;stroke: #e8e5df;stroke-miterlimit: 10;stroke-width: 1.224px"/>
    <ellipse cx="92.42" cy="3.6" id="circuitoCon_GND1" rx="2.05" ry="1.99" style="fill: none;stroke: #e8e5df;stroke-miterlimit: 10;stroke-width: 1.224px"/>
    <ellipse cx="85.22" cy="3.6" data-cir-type="male" id="circuitoCon_2" rx="2.05" ry="1.99" style="fill: none;stroke: #e8e5df;stroke-miterlimit: 10;stroke-width: 1.224px"/>
    <ellipse cx="78.03" cy="3.6" data-cir-type="male" id="circuitoCon_3" rx="2.05" ry="1.99" style="fill: none;stroke: #e8e5df;stroke-miterlimit: 10;stroke-width: 1.224px"/>
    <ellipse cx="63.64" cy="3.6" data-cir-type="male" id="circuitoCon_5" rx="2.05" ry="1.99" style="fill: none;stroke: #e8e5df;stroke-miterlimit: 10;stroke-width: 1.224px"/>
    <ellipse cx="56.4" cy="3.6" data-cir-type="male" id="circuitoCon_6" rx="2.05" ry="1.99" style="fill: none;stroke: #e8e5df;stroke-miterlimit: 10;stroke-width: 1.224px"/>
    <ellipse cx="70.84" cy="3.6" data-cir-type="male" id="circuitoCon_4" rx="2.05" ry="1.99" style="fill: none;stroke: #e8e5df;stroke-miterlimit: 10;stroke-width: 1.224px"/>
    <ellipse cx="128.5" cy="3.6" data-cir-type="male" id="circuitoCon_MOSI" rx="2.05" ry="1.99" style="fill: none;stroke: #e8e5df;stroke-miterlimit: 10;stroke-width: 1.224px"/>
    <ellipse cx="121.31" cy="3.6" data-cir-type="male" id="circuitoCon_SS" rx="2.05" ry="1.99" style="fill: none;stroke: #e8e5df;stroke-miterlimit: 10;stroke-width: 1.224px"/>
    <ellipse cx="106.92" cy="3.6" data-cir-type="male" id="circuitoCon_RX" rx="2.05" ry="1.99" style="fill: none;stroke: #e8e5df;stroke-miterlimit: 10;stroke-width: 1.224px"/>
    <ellipse cx="99.68" cy="3.6" data-cir-type="male" id="circuitoCon_RESET" rx="2.05" ry="1.99" style="fill: none;stroke: #e8e5df;stroke-miterlimit: 10;stroke-width: 1.224px"/>
    <ellipse cx="114.11" cy="3.6" data-cir-type="male" id="circuitoCon_TX" rx="2.05" ry="1.99" style="fill: none;stroke: #e8e5df;stroke-miterlimit: 10;stroke-width: 1.224px"/>
    <ellipse cx="49.36" cy="46.66" data-cir-type="male" id="circuitoCon_A2" rx="2.05" ry="1.99" style="fill: none;stroke: #e8e5df;stroke-miterlimit: 10;stroke-width: 1.224px"/>
    <ellipse cx="42.17" cy="46.66" data-cir-type="male" id="circuitoCon_A1" rx="2.05" ry="1.99" style="fill: none;stroke: #e8e5df;stroke-miterlimit: 10;stroke-width: 1.224px"/>
    <ellipse cx="34.97" cy="46.66" data-cir-type="male" id="circuitoCon_A0" rx="2.05" ry="1.99" style="fill: none;stroke: #e8e5df;stroke-miterlimit: 10;stroke-width: 1.224px"/>
    <ellipse cx="20.58" cy="46.66" data-cir-color="orangered" data-cir-type="male" id="circuitoCon_3.3v" rx="2.05" ry="1.99" style="fill: none;stroke: #e8e5df;stroke-miterlimit: 10;stroke-width: 1.224px"/>
    <ellipse cx="13.34" cy="46.66" data-cir-type="male" id="circuitoCon_13" rx="2.05" ry="1.99" style="fill: none;stroke: #e8e5df;stroke-miterlimit: 10;stroke-width: 1.224px"/>
    <ellipse cx="27.78" cy="46.66" data-cir-type="male" id="circuitoCon_ARef" rx="2.05" ry="1.99" style="fill: none;stroke: #e8e5df;stroke-miterlimit: 10;stroke-width: 1.224px"/>
    <ellipse cx="92.5" cy="46.66" data-cir-color="darkred" data-cir-type="male" id="circuitoCon_5v" rx="2.05" ry="1.99" style="fill: none;stroke: #e8e5df;stroke-miterlimit: 10;stroke-width: 1.224px"/>
    <ellipse cx="85.3" cy="46.66" id="connector30pin" rx="2.05" ry="1.99" style="fill: none;stroke: #e8e5df;stroke-miterlimit: 10;stroke-width: 1.224px"/>
    <ellipse cx="78.11" cy="46.66" id="connector31pin" rx="2.05" ry="1.99" style="fill: none;stroke: #e8e5df;stroke-miterlimit: 10;stroke-width: 1.224px"/>
    <ellipse cx="63.72" cy="46.66" data-cir-type="male" id="circuitoCon_A4" rx="2.05" ry="1.99" style="fill: none;stroke: #e8e5df;stroke-miterlimit: 10;stroke-width: 1.224px"/>
    <ellipse cx="56.48" cy="46.66" data-cir-type="male" id="circuitoCon_A3" rx="2.05" ry="1.99" style="fill: none;stroke: #e8e5df;stroke-miterlimit: 10;stroke-width: 1.224px"/>
    <ellipse cx="70.91" cy="46.66" data-cir-type="male" id="circuitoCon_A5" rx="2.05" ry="1.99" style="fill: none;stroke: #e8e5df;stroke-miterlimit: 10;stroke-width: 1.224px"/>
    <ellipse cx="128.58" cy="46.66" data-cir-type="male" id="circuitoCon_SCK" rx="2.05" ry="1.99" style="fill: none;stroke: #e8e5df;stroke-miterlimit: 10;stroke-width: 1.224px"/>
    <ellipse cx="121.39" cy="46.66" data-cir-type="male" id="circuitoCon_MISO" rx="2.05" ry="1.99" style="fill: none;stroke: #e8e5df;stroke-miterlimit: 10;stroke-width: 1.224px"/>
    <ellipse cx="107" cy="46.66" data-cir-color="black" data-cir-type="male" id="circuitoCon_GND" rx="2.05" ry="1.99" style="fill: none;stroke: #e8e5df;stroke-miterlimit: 10;stroke-width: 1.224px"/>
    <ellipse cx="99.75" cy="46.66" id="connector34pin" rx="2.05" ry="1.99" style="fill: none;stroke: #e8e5df;stroke-miterlimit: 10;stroke-width: 1.224px"/>
    <ellipse cx="114.19" cy="46.66" data-cir-color="yellow" data-cir-type="male" id="circuitoCon_Vin" rx="2.05" ry="1.99" style="fill: none;stroke: #e8e5df;stroke-miterlimit: 10;stroke-width: 1.224px"/>
    <rect data-cir-type="power" height="17.24" id="circuitoCon_USB_MICRO" style="fill: none" width="7.83" x="1.86" y="17.3"/>
  </g>
</svg>