<?xml version="1.0" ?><svg height="81.11mm" viewBox="0 0 118 229.91" width="41.63mm" xmlns="http://www.w3.org/2000/svg">
  <title>Force Sensitive Resistor - Square</title>
  <g data-name="Layer 4" id="Layer_4">
    <path d="M0,.54V117.46H46.31a3.59,3.59,0,0,1,2.32,3.27H69.22a2.7,2.7,0,0,1,.11-1.5,3.19,3.19,0,0,1,2.33-1.77H118V.54Z" style="fill: #33343b" transform="translate(0 -0.54)"/>
  </g>
  <g data-name="Layer 2" id="Layer_2">
    <g id="Connectors">
      <rect data-name="circuitoCon male 1" height="1.64" id="circuitoCon_male_1" style="fill: none" width="1.64" x="54.78" y="228.27"/>
      <rect data-name="circuitoCon male 0" height="1.64" id="circuitoCon_male_0" style="fill: none" width="1.64" x="61.7" y="228.27"/>
    </g>
    <g id="Part-2">
      <g data-name="white square" id="white_square">
        <rect height="103.37" style="fill: #dddee2" width="20.59" x="48.63" y="120.19"/>
      </g>
      <g id="lines">
        <rect height="96.69" style="fill: #b5a59e" width="4.25" x="53.32" y="115.11"/>
        <rect height="96.69" style="fill: #b5a59e" width="4.25" x="60.34" y="115.11"/>
      </g>
      <g id="VECTOE">
        <polygon points="60.63 225.84 64.55 225.84 64.55 227.09 63.33 227.09 63.33 229.91 61.69 229.91 61.69 227.07 60.63 227.07 60.63 225.84" style="fill: #dfd6db"/>
        <polygon points="53.71 225.84 57.63 225.84 57.63 227.09 56.42 227.09 56.42 229.91 54.78 229.91 54.78 227.07 53.71 227.07 53.71 225.84" style="fill: #dfd6db"/>
        <path d="M56.78,211.91v-1.22H54.56v1.22c-1.18-.38-1.27.77-1.17,2.19v12.29h4.56V214.11C58,212.68,58,211.53,56.78,211.91Zm-.4,9.94a.73.73,0,0,1-1.44,0v-8.9a.73.73,0,0,1,1.44,0Z" style="fill: #decec5" transform="translate(0 -0.54)"/>
        <path d="M53.38,220.67a.54.54,0,0,1-.56-.5v-7.34a.57.57,0,0,1,1.13,0v7.34A.54.54,0,0,1,53.38,220.67Z" style="fill: #ffe4af" transform="translate(0 -0.54)"/>
        <path d="M63.57,211.91v-1.22H61.38v1.22c-1.18-.38-1.27.77-1.17,2.19v12.29h4.56V214.11C64.84,212.68,64.75,211.53,63.57,211.91Zm-.39,9.94a.73.73,0,0,1-1.44,0v-8.9a.73.73,0,0,1,1.44,0Z" style="fill: #decec5" transform="translate(0 -0.54)"/>
        <path d="M60.16,220.67a.53.53,0,0,1-.56-.5h0v-7.34a.57.57,0,0,1,1.13,0v7.34A.54.54,0,0,1,60.16,220.67Z" style="fill: #ffe4af" transform="translate(0 -0.54)"/>
        <path d="M64.45,222.19a.52.52,0,0,1-.56-.48h0v-7a.57.57,0,0,1,1.13,0v7a.52.52,0,0,1-.56.48Z" style="fill: #ffe4af" transform="translate(0 -0.54)"/>
        <path d="M57.66,222.19a.52.52,0,0,1-.56-.48h0v-7a.57.57,0,0,1,1.13,0v7a.52.52,0,0,1-.56.48Z" style="fill: #ffe4af" transform="translate(0 -0.54)"/>
      </g>
      <g id="text">
        <g>
          <path d="M65.76,167.13v.55c0,.1-.07.19-.25.18s-.25-.09-.25-.19v-1.48c0-.1.07-.19.25-.18s.25.09.25.19v.55l2.89,0v-.55c0-.1.07-.19.25-.18s.25.09.25.19v1.48c0,.1-.07.19-.25.18s-.25-.09-.25-.19v-.55Z" style="fill: #c0aea2" transform="translate(0 -0.54)"/>
          <path d="M65.75,170.47c0,.1-.07.19-.25.18s-.25-.09-.25-.19v-1.67l3.89.07v1.67c0,.1-.07.19-.25.18s-.25-.09-.25-.19v-1.29h-1.2v.55c0,.1-.07.19-.25.18s-.25-.09-.25-.19v-.55h-1.2Z" style="fill: #c0aea2" transform="translate(0 -0.54)"/>
          <path d="M69.17,171.65v1.67c0,.1-.07.19-.25.18s-.25-.09-.25-.19V172H67.9v.92c0,.1-.07.19-.25.18s-.25-.09-.25-.19V172H65.53c-.16,0-.25-.06-.25-.19s.09-.19.25-.18Z" style="fill: #c0aea2" transform="translate(0 -0.54)"/>
          <path d="M66.23,176.11a.78.78,0,0,1-.42.12.49.49,0,0,1-.56-.48v-.83a.47.47,0,0,1,.17-.38.72.72,0,0,1,.47-.17c.16,0,.3.07.3.2s-.12.17-.26.17-.17.06-.17.16v.81s0,.12.06.13a.47.47,0,0,0,.15-.06l2.23-1.25a.71.71,0,0,1,.41-.12.62.62,0,0,1,.48.21.41.41,0,0,1,.08.31v.8a.45.45,0,0,1-.17.37.78.78,0,0,1-.48.17c-.16,0-.29-.07-.29-.2s.1-.18.24-.18.2-.06.2-.18v-.8s0-.13-.07-.13a.36.36,0,0,0-.14,0Z" style="fill: #c0aea2" transform="translate(0 -0.54)"/>
          <path d="M65.52,177.53c-.16,0-.25-.06-.25-.19s.09-.19.25-.18l3.64.07v1.26a.66.66,0,0,1-.73.58h-.35a.63.63,0,0,1-.7-.56s0,0,0-.05v-.34l-1.62.81a.59.59,0,0,1-.27.09.21.21,0,0,1-.23-.19h0c0-.08.06-.12.14-.16l2-1v-.09Zm2.36,0v.86c0,.11,0,.27.21.27h.29c.2,0,.23-.15.23-.26v-.84Z" style="fill: #c0aea2" transform="translate(0 -0.54)"/>
          <path d="M65.91,180.75c0-.08,0-.14.1-.19a.4.4,0,0,1,.23,0h.28a.41.41,0,0,1,.22,0c.09,0,.09.11.09.2V181c0,.08,0,.14-.1.19a.41.41,0,0,1-.23,0h-.28a.4.4,0,0,1-.22,0c-.09,0-.09-.11-.09-.2Z" style="fill: #c0aea2" transform="translate(0 -0.54)"/>
          <path d="M65.26,184a.65.65,0,0,1,.49-.64l.94-.38a1.27,1.27,0,0,1,.53-.11,1.25,1.25,0,0,1,.55.13l.92.42a.65.65,0,0,1,.47.68v.74a.22.22,0,0,1-.23.21h0a.22.22,0,0,1-.25-.22v-.73c0-.19,0-.22-.21-.3l-.86-.39a.87.87,0,0,0-.38-.1.77.77,0,0,0-.35.08l-.87.35c-.21.08-.22.13-.23.32v.71a.22.22,0,0,1-.23.21h0a.22.22,0,0,1-.25-.22Z" style="fill: #c0aea2" transform="translate(0 -0.54)"/>
          <path d="M67.73,188.1a1.28,1.28,0,0,1-.56.1,1.36,1.36,0,0,1-.59-.15l-.91-.42a.55.55,0,0,1,0-1.06l.93-.38a1.37,1.37,0,0,1,.6-.13,1.27,1.27,0,0,1,.55.12l1,.45a.54.54,0,0,1,0,1Zm.77-.8a.14.14,0,0,0,.15-.14c0-.09-.07-.11-.15-.15l-.9-.41a.86.86,0,0,0-.4-.11.75.75,0,0,0-.33.07l-1,.4a.15.15,0,0,0-.15.14c0,.08.08.12.15.15l.94.43a.76.76,0,0,0,.33.08.87.87,0,0,0,.41-.09Z" style="fill: #c0aea2" transform="translate(0 -0.54)"/>
          <path d="M69.15,190.91v.54l-3.65-.06c-.16,0-.25-.07-.25-.22s.09-.22.25-.21l3,0h0l-.7-.43h-.12c-.16,0-.3-.06-.3-.22s.15-.21.3-.21h.08l.71-.4h0l-3,0c-.16,0-.25-.07-.25-.22s.09-.22.25-.21l3.64.07v.54l-.89.51Z" style="fill: #c0aea2" transform="translate(0 -0.54)"/>
        </g>
      </g>
    </g>
  </g>
  <g data-name="Layer 5" id="Layer_5">
    <path d="M108.29,5.21H60.08V.55H55.43V5.21H9.12A4.59,4.59,0,0,0,4.46,9.72v97a4.59,4.59,0,0,0,4.67,4.52h99.17A4.59,4.59,0,0,0,113,106.7v-97A4.59,4.59,0,0,0,108.29,5.21Z" style="fill: #45484f" transform="translate(0 -0.54)"/>
    <rect height="4.19" style="fill: #b5a59e" width="1.37" x="46.15" y="0.17"/>
    <rect height="4.19" style="fill: #b5a59e" width="1.38" x="48.83" y="0.17"/>
    <rect height="4.19" style="fill: #b5a59e" width="1.37" x="51.52" y="0.17"/>
    <rect height="4.19" style="fill: #b5a59e" width="1.38" x="54.21" y="0.17"/>
  </g>
  <g data-name="Text" id="Text-2">
    <g>
      <path d="M57,4h.69V1.4h-.68A.22.22,0,0,1,56.9,1,.22.22,0,0,1,57.06,1h1.12V4h.45V3.11A.22.22,0,0,1,58.69,3a.21.21,0,0,1,.16-.07A.21.21,0,0,1,59,3a.21.21,0,0,1,.07.16V4.26a.21.21,0,0,1-.07.16.21.21,0,0,1-.16.06H57a.21.21,0,0,1-.16-.07.22.22,0,0,1-.07-.16.21.21,0,0,1,.07-.15A.21.21,0,0,1,57,4Z" style="fill: #b5a59e" transform="translate(0 -0.54)"/>
      <path d="M62.16,4.49h-2V2.94a.44.44,0,0,1,.13-.32.43.43,0,0,1,.32-.13h1.36V1.4h-1.6a.21.21,0,0,1-.16-.06.23.23,0,0,1,0-.32A.21.21,0,0,1,60.33,1h1.6a.44.44,0,0,1,.32.13.43.43,0,0,1,.13.31V2.49a.45.45,0,0,1-.45.45H60.57V4h1.58a.22.22,0,0,1,0,.45Z" style="fill: #b5a59e" transform="translate(0 -0.54)"/>
    </g>
  </g>
  <g data-name="Layer 3" id="Layer_3">
    <rect height="4" style="fill: #b5a59e" width="4.25" x="53.32" y="111.25"/>
    <rect height="4" style="fill: #b5a59e" width="4.25" x="60.34" y="111.25"/>
    <rect height="1.15" style="fill: #b5a59e" width="52.62" x="60.34" y="110.1"/>
    <rect height="1.15" style="fill: #b5a59e" width="52.62" x="4.95" y="110.1"/>
    <rect height="103.58" style="fill: #b5a59e" width="1.88" x="111.08" y="7.67"/>
    <rect height="104.75" style="fill: #b5a59e" width="1.88" x="4.46" y="6.92"/>
    <line style="fill: none;stroke: #b5a59e;stroke-linecap: round;stroke-miterlimit: 10;stroke-width: 0.7000000000000001px" x1="6.02" x2="109.33" y1="7.23" y2="7.23"/>
    <line style="fill: none;stroke: #b5a59e;stroke-linecap: round;stroke-miterlimit: 10;stroke-width: 0.7000000000000001px" x1="6.02" x2="109.33" y1="9.82" y2="9.82"/>
    <line style="fill: none;stroke: #b5a59e;stroke-linecap: round;stroke-miterlimit: 10;stroke-width: 0.7000000000000001px" x1="6.02" x2="109.33" y1="12.54" y2="12.54"/>
    <line style="fill: none;stroke: #b5a59e;stroke-linecap: round;stroke-miterlimit: 10;stroke-width: 0.7000000000000001px" x1="6.02" x2="109.33" y1="15.26" y2="15.26"/>
    <line style="fill: none;stroke: #b5a59e;stroke-linecap: round;stroke-miterlimit: 10;stroke-width: 0.7000000000000001px" x1="6.02" x2="109.33" y1="17.98" y2="17.98"/>
    <line style="fill: none;stroke: #b5a59e;stroke-linecap: round;stroke-miterlimit: 10;stroke-width: 0.7000000000000001px" x1="6.02" x2="109.33" y1="20.7" y2="20.7"/>
    <line style="fill: none;stroke: #b5a59e;stroke-linecap: round;stroke-miterlimit: 10;stroke-width: 0.7000000000000001px" x1="6.02" x2="109.33" y1="23.42" y2="23.42"/>
    <line style="fill: none;stroke: #b5a59e;stroke-linecap: round;stroke-miterlimit: 10;stroke-width: 0.7000000000000001px" x1="6.02" x2="109.33" y1="26.14" y2="26.14"/>
    <line style="fill: none;stroke: #b5a59e;stroke-linecap: round;stroke-miterlimit: 10;stroke-width: 0.7000000000000001px" x1="6.02" x2="109.33" y1="28.85" y2="28.85"/>
    <line style="fill: none;stroke: #b5a59e;stroke-linecap: round;stroke-miterlimit: 10;stroke-width: 0.7000000000000001px" x1="6.02" x2="109.33" y1="31.57" y2="31.57"/>
    <line style="fill: none;stroke: #b5a59e;stroke-linecap: round;stroke-miterlimit: 10;stroke-width: 0.7000000000000001px" x1="6.02" x2="109.33" y1="34.29" y2="34.29"/>
    <line style="fill: none;stroke: #b5a59e;stroke-linecap: round;stroke-miterlimit: 10;stroke-width: 0.7000000000000001px" x1="6.02" x2="109.33" y1="37.01" y2="37.01"/>
    <line style="fill: none;stroke: #b5a59e;stroke-linecap: round;stroke-miterlimit: 10;stroke-width: 0.7000000000000001px" x1="6.02" x2="109.33" y1="39.73" y2="39.73"/>
    <line style="fill: none;stroke: #b5a59e;stroke-linecap: round;stroke-miterlimit: 10;stroke-width: 0.7000000000000001px" x1="6.02" x2="109.33" y1="42.45" y2="42.45"/>
    <line style="fill: none;stroke: #b5a59e;stroke-linecap: round;stroke-miterlimit: 10;stroke-width: 0.7000000000000001px" x1="6.02" x2="109.33" y1="45.17" y2="45.17"/>
    <line style="fill: none;stroke: #b5a59e;stroke-linecap: round;stroke-miterlimit: 10;stroke-width: 0.7000000000000001px" x1="6.02" x2="109.33" y1="47.89" y2="47.89"/>
    <line style="fill: none;stroke: #b5a59e;stroke-linecap: round;stroke-miterlimit: 10;stroke-width: 0.7000000000000001px" x1="6.02" x2="109.33" y1="50.6" y2="50.6"/>
    <line style="fill: none;stroke: #b5a59e;stroke-linecap: round;stroke-miterlimit: 10;stroke-width: 0.7000000000000001px" x1="6.02" x2="109.33" y1="53.32" y2="53.32"/>
    <line style="fill: none;stroke: #b5a59e;stroke-linecap: round;stroke-miterlimit: 10;stroke-width: 0.7000000000000001px" x1="6.02" x2="109.33" y1="56.04" y2="56.04"/>
    <line style="fill: none;stroke: #b5a59e;stroke-linecap: round;stroke-miterlimit: 10;stroke-width: 0.7000000000000001px" x1="6.02" x2="109.33" y1="58.76" y2="58.76"/>
    <line style="fill: none;stroke: #b5a59e;stroke-linecap: round;stroke-miterlimit: 10;stroke-width: 0.7000000000000001px" x1="6.02" x2="109.33" y1="61.48" y2="61.48"/>
    <line style="fill: none;stroke: #b5a59e;stroke-linecap: round;stroke-miterlimit: 10;stroke-width: 0.7000000000000001px" x1="6.02" x2="109.33" y1="64.2" y2="64.2"/>
    <line style="fill: none;stroke: #b5a59e;stroke-linecap: round;stroke-miterlimit: 10;stroke-width: 0.7000000000000001px" x1="6.02" x2="109.33" y1="66.92" y2="66.92"/>
    <line style="fill: none;stroke: #b5a59e;stroke-linecap: round;stroke-miterlimit: 10;stroke-width: 0.7000000000000001px" x1="6.02" x2="109.33" y1="69.64" y2="69.64"/>
    <line style="fill: none;stroke: #b5a59e;stroke-linecap: round;stroke-miterlimit: 10;stroke-width: 0.7000000000000001px" x1="6.02" x2="109.33" y1="72.35" y2="72.35"/>
    <line style="fill: none;stroke: #b5a59e;stroke-linecap: round;stroke-miterlimit: 10;stroke-width: 0.7000000000000001px" x1="6.02" x2="109.33" y1="75.07" y2="75.07"/>
    <line style="fill: none;stroke: #b5a59e;stroke-linecap: round;stroke-miterlimit: 10;stroke-width: 0.7000000000000001px" x1="6.02" x2="109.33" y1="77.79" y2="77.79"/>
    <line style="fill: none;stroke: #b5a59e;stroke-linecap: round;stroke-miterlimit: 10;stroke-width: 0.7000000000000001px" x1="6.02" x2="109.33" y1="80.51" y2="80.51"/>
    <line style="fill: none;stroke: #b5a59e;stroke-linecap: round;stroke-miterlimit: 10;stroke-width: 0.7000000000000001px" x1="6.02" x2="109.33" y1="83.23" y2="83.23"/>
    <line style="fill: none;stroke: #b5a59e;stroke-linecap: round;stroke-miterlimit: 10;stroke-width: 0.7000000000000001px" x1="6.02" x2="109.33" y1="85.95" y2="85.95"/>
    <line style="fill: none;stroke: #b5a59e;stroke-linecap: round;stroke-miterlimit: 10;stroke-width: 0.7000000000000001px" x1="6.02" x2="109.33" y1="88.67" y2="88.67"/>
    <line style="fill: none;stroke: #b5a59e;stroke-linecap: round;stroke-miterlimit: 10;stroke-width: 0.7000000000000001px" x1="6.02" x2="109.33" y1="91.39" y2="91.39"/>
    <line style="fill: none;stroke: #b5a59e;stroke-linecap: round;stroke-miterlimit: 10;stroke-width: 0.7000000000000001px" x1="6.02" x2="109.33" y1="94.1" y2="94.1"/>
    <line style="fill: none;stroke: #b5a59e;stroke-linecap: round;stroke-miterlimit: 10;stroke-width: 0.7000000000000001px" x1="6.02" x2="109.33" y1="96.82" y2="96.82"/>
    <line style="fill: none;stroke: #b5a59e;stroke-linecap: round;stroke-miterlimit: 10;stroke-width: 0.7000000000000001px" x1="6.02" x2="109.33" y1="99.54" y2="99.54"/>
    <line style="fill: none;stroke: #b5a59e;stroke-linecap: round;stroke-miterlimit: 10;stroke-width: 0.7000000000000001px" x1="6.02" x2="109.33" y1="102.26" y2="102.26"/>
    <line style="fill: none;stroke: #b5a59e;stroke-linecap: round;stroke-miterlimit: 10;stroke-width: 0.7000000000000001px" x1="6.02" x2="109.33" y1="104.98" y2="104.98"/>
    <line style="fill: none;stroke: #b5a59e;stroke-linecap: round;stroke-miterlimit: 10;stroke-width: 0.7000000000000001px" x1="6.02" x2="109.33" y1="107.7" y2="107.7"/>
    <line style="fill: none;stroke: #b5a59e;stroke-linecap: round;stroke-miterlimit: 10;stroke-width: 0.7000000000000001px" x1="7.77" x2="111.08" y1="108.98" y2="108.98"/>
    <line style="fill: none;stroke: #b5a59e;stroke-linecap: round;stroke-miterlimit: 10;stroke-width: 0.7000000000000001px" x1="7.77" x2="111.08" y1="106.26" y2="106.26"/>
    <line style="fill: none;stroke: #b5a59e;stroke-linecap: round;stroke-miterlimit: 10;stroke-width: 0.7000000000000001px" x1="7.77" x2="111.08" y1="103.54" y2="103.54"/>
    <line style="fill: none;stroke: #b5a59e;stroke-linecap: round;stroke-miterlimit: 10;stroke-width: 0.7000000000000001px" x1="7.77" x2="111.08" y1="100.82" y2="100.82"/>
    <line style="fill: none;stroke: #b5a59e;stroke-linecap: round;stroke-miterlimit: 10;stroke-width: 0.7000000000000001px" x1="7.77" x2="111.08" y1="98.1" y2="98.1"/>
    <line style="fill: none;stroke: #b5a59e;stroke-linecap: round;stroke-miterlimit: 10;stroke-width: 0.7000000000000001px" x1="7.77" x2="111.08" y1="95.39" y2="95.39"/>
    <line style="fill: none;stroke: #b5a59e;stroke-linecap: round;stroke-miterlimit: 10;stroke-width: 0.7000000000000001px" x1="7.77" x2="111.08" y1="92.67" y2="92.67"/>
    <line style="fill: none;stroke: #b5a59e;stroke-linecap: round;stroke-miterlimit: 10;stroke-width: 0.7000000000000001px" x1="7.77" x2="111.08" y1="89.95" y2="89.95"/>
    <line style="fill: none;stroke: #b5a59e;stroke-linecap: round;stroke-miterlimit: 10;stroke-width: 0.7000000000000001px" x1="7.77" x2="111.08" y1="87.23" y2="87.23"/>
    <line style="fill: none;stroke: #b5a59e;stroke-linecap: round;stroke-miterlimit: 10;stroke-width: 0.7000000000000001px" x1="7.77" x2="111.08" y1="84.51" y2="84.51"/>
    <line style="fill: none;stroke: #b5a59e;stroke-linecap: round;stroke-miterlimit: 10;stroke-width: 0.7000000000000001px" x1="7.77" x2="111.08" y1="81.79" y2="81.79"/>
    <line style="fill: none;stroke: #b5a59e;stroke-linecap: round;stroke-miterlimit: 10;stroke-width: 0.7000000000000001px" x1="7.77" x2="111.08" y1="79.07" y2="79.07"/>
    <line style="fill: none;stroke: #b5a59e;stroke-linecap: round;stroke-miterlimit: 10;stroke-width: 0.7000000000000001px" x1="7.77" x2="111.08" y1="76.35" y2="76.35"/>
    <line style="fill: none;stroke: #b5a59e;stroke-linecap: round;stroke-miterlimit: 10;stroke-width: 0.7000000000000001px" x1="7.77" x2="111.08" y1="73.64" y2="73.64"/>
    <line style="fill: none;stroke: #b5a59e;stroke-linecap: round;stroke-miterlimit: 10;stroke-width: 0.7000000000000001px" x1="7.77" x2="111.08" y1="70.92" y2="70.92"/>
    <line style="fill: none;stroke: #b5a59e;stroke-linecap: round;stroke-miterlimit: 10;stroke-width: 0.7000000000000001px" x1="7.77" x2="111.08" y1="68.2" y2="68.2"/>
    <line style="fill: none;stroke: #b5a59e;stroke-linecap: round;stroke-miterlimit: 10;stroke-width: 0.7000000000000001px" x1="7.77" x2="111.08" y1="65.48" y2="65.48"/>
    <line style="fill: none;stroke: #b5a59e;stroke-linecap: round;stroke-miterlimit: 10;stroke-width: 0.7000000000000001px" x1="7.77" x2="111.08" y1="62.76" y2="62.76"/>
    <line style="fill: none;stroke: #b5a59e;stroke-linecap: round;stroke-miterlimit: 10;stroke-width: 0.7000000000000001px" x1="7.77" x2="111.08" y1="60.04" y2="60.04"/>
    <line style="fill: none;stroke: #b5a59e;stroke-linecap: round;stroke-miterlimit: 10;stroke-width: 0.7000000000000001px" x1="7.77" x2="111.08" y1="57.32" y2="57.32"/>
    <line style="fill: none;stroke: #b5a59e;stroke-linecap: round;stroke-miterlimit: 10;stroke-width: 0.7000000000000001px" x1="7.77" x2="111.08" y1="54.6" y2="54.6"/>
    <line style="fill: none;stroke: #b5a59e;stroke-linecap: round;stroke-miterlimit: 10;stroke-width: 0.7000000000000001px" x1="7.77" x2="111.08" y1="51.89" y2="51.89"/>
    <line style="fill: none;stroke: #b5a59e;stroke-linecap: round;stroke-miterlimit: 10;stroke-width: 0.7000000000000001px" x1="7.77" x2="111.08" y1="49.17" y2="49.17"/>
    <line style="fill: none;stroke: #b5a59e;stroke-linecap: round;stroke-miterlimit: 10;stroke-width: 0.7000000000000001px" x1="7.77" x2="111.08" y1="46.45" y2="46.45"/>
    <line style="fill: none;stroke: #b5a59e;stroke-linecap: round;stroke-miterlimit: 10;stroke-width: 0.7000000000000001px" x1="7.77" x2="111.08" y1="43.73" y2="43.73"/>
    <line style="fill: none;stroke: #b5a59e;stroke-linecap: round;stroke-miterlimit: 10;stroke-width: 0.7000000000000001px" x1="7.77" x2="111.08" y1="41.01" y2="41.01"/>
    <line style="fill: none;stroke: #b5a59e;stroke-linecap: round;stroke-miterlimit: 10;stroke-width: 0.7000000000000001px" x1="7.77" x2="111.08" y1="38.29" y2="38.29"/>
    <line style="fill: none;stroke: #b5a59e;stroke-linecap: round;stroke-miterlimit: 10;stroke-width: 0.7000000000000001px" x1="7.77" x2="111.08" y1="35.57" y2="35.57"/>
    <line style="fill: none;stroke: #b5a59e;stroke-linecap: round;stroke-miterlimit: 10;stroke-width: 0.7000000000000001px" x1="7.77" x2="111.08" y1="32.85" y2="32.85"/>
    <line style="fill: none;stroke: #b5a59e;stroke-linecap: round;stroke-miterlimit: 10;stroke-width: 0.7000000000000001px" x1="7.77" x2="111.08" y1="30.14" y2="30.14"/>
    <line style="fill: none;stroke: #b5a59e;stroke-linecap: round;stroke-miterlimit: 10;stroke-width: 0.7000000000000001px" x1="7.77" x2="111.08" y1="27.42" y2="27.42"/>
    <line style="fill: none;stroke: #b5a59e;stroke-linecap: round;stroke-miterlimit: 10;stroke-width: 0.7000000000000001px" x1="7.77" x2="111.08" y1="24.7" y2="24.7"/>
    <line style="fill: none;stroke: #b5a59e;stroke-linecap: round;stroke-miterlimit: 10;stroke-width: 0.7000000000000001px" x1="7.77" x2="111.08" y1="21.98" y2="21.98"/>
    <line style="fill: none;stroke: #b5a59e;stroke-linecap: round;stroke-miterlimit: 10;stroke-width: 0.7000000000000001px" x1="7.77" x2="111.08" y1="19.26" y2="19.26"/>
    <line style="fill: none;stroke: #b5a59e;stroke-linecap: round;stroke-miterlimit: 10;stroke-width: 0.7000000000000001px" x1="7.77" x2="111.08" y1="16.54" y2="16.54"/>
    <line style="fill: none;stroke: #b5a59e;stroke-linecap: round;stroke-miterlimit: 10;stroke-width: 0.7000000000000001px" x1="7.77" x2="111.08" y1="13.82" y2="13.82"/>
    <line style="fill: none;stroke: #b5a59e;stroke-linecap: round;stroke-miterlimit: 10;stroke-width: 0.7000000000000001px" x1="7.77" x2="111.08" y1="11.1" y2="11.1"/>
    <line style="fill: none;stroke: #b5a59e;stroke-linecap: round;stroke-miterlimit: 10;stroke-width: 0.7000000000000001px" x1="7.77" x2="111.08" y1="8.39" y2="8.39"/>
  </g>
  <g data-name="Layer 7" id="Layer_7">
    <rect height="0.5" id="circuitoCon_2" style="fill: none" width="1.64" x="54.78" y="229.41"/>
    <rect height="0.5" id="circuitoCon_1" style="fill: none" width="1.64" x="61.7" y="229.41"/>
  </g>
</svg>