<?xml version="1.0" ?><svg height="46.79mm" viewBox="0 0 34.78 132.65" width="12.27mm" xmlns="http://www.w3.org/2000/svg" xmlns:xlink="http://www.w3.org/1999/xlink">
  <defs>
    <linearGradient gradientTransform="translate(60.68 124.21) rotate(90)" gradientUnits="userSpaceOnUse" id="linear-gradient" x1="-9.98" x2="8.44" y1="43.32" y2="43.32">
      <stop offset="0" stop-color="#424242"/>
      <stop offset="0.02" stop-color="#b2b2b2"/>
      <stop offset="0.07" stop-color="#d8d8d8"/>
      <stop offset="0.48" stop-color="#c9c9c9"/>
      <stop offset="0.53" stop-color="#c7c7c7"/>
      <stop offset="0.84" stop-color="#bcbec0"/>
      <stop offset="0.97" stop-color="#c5c7c9"/>
      <stop offset="0.98" stop-color="#e5e5e5"/>
      <stop offset="0.99" stop-color="#333"/>
      <stop offset="1" stop-color="#a7a9ac"/>
    </linearGradient>
    <linearGradient gradientTransform="matrix(0.99, 0.14, -0.14, 0.99, 2.94, -1.27)" gradientUnits="userSpaceOnUse" id="linear-gradient-2" x1="8.9" x2="12.16" y1="20.9" y2="20.9">
      <stop offset="0.11" stop-color="#7c736c"/>
      <stop offset="0.45" stop-color="#b5afac"/>
      <stop offset="0.71" stop-color="#dddad9"/>
    </linearGradient>
    <linearGradient gradientTransform="matrix(1, 0, 0, 1, 0, 0)" id="linear-gradient-3" x1="11.12" x2="14.37" xlink:href="#linear-gradient-2" y1="6.69" y2="6.69"/>
    <linearGradient gradientUnits="userSpaceOnUse" id="linear-gradient-4" x1="23.03" x2="25.92" y1="19.66" y2="19.66">
      <stop offset="0" stop-color="#b5afac"/>
      <stop offset="0.54" stop-color="#dddad9"/>
      <stop offset="0.9" stop-color="#7c736c"/>
    </linearGradient>
    <linearGradient gradientTransform="matrix(1, 0, 0, 1, 0, 0)" id="linear-gradient-5" x1="9.04" x2="12.3" xlink:href="#linear-gradient-2" y1="16.62" y2="16.62"/>
    <linearGradient gradientTransform="matrix(1, 0, 0, 1, 0, 0)" id="linear-gradient-6" x1="9.72" x2="12.98" xlink:href="#linear-gradient-2" y1="11.16" y2="11.16"/>
    <linearGradient id="linear-gradient-7" x1="22.96" x2="25.83" xlink:href="#linear-gradient-4" y1="14.97" y2="14.97"/>
    <linearGradient gradientUnits="userSpaceOnUse" id="linear-gradient-8" x1="0.05" x2="34.76" y1="78.63" y2="78.63">
      <stop offset="0" stop-color="#f4f1ec"/>
      <stop offset="0.35" stop-color="#807e7d"/>
      <stop offset="0.66" stop-color="#fff"/>
      <stop offset="0.83" stop-color="#9f9d9c"/>
    </linearGradient>
    <linearGradient data-name="Steel 02" gradientUnits="userSpaceOnUse" id="Steel_02" x1="0.3" x2="34.42" y1="71.41" y2="71.41">
      <stop offset="0" stop-color="#e5e2df"/>
      <stop offset="0" stop-color="#d8d4d0"/>
      <stop offset="0" stop-color="#ccc7c2"/>
      <stop offset="0.07" stop-color="#bdb9b4"/>
      <stop offset="0.15" stop-color="#a7a3a0"/>
      <stop offset="0.52" stop-color="#e0e1e2"/>
      <stop offset="0.62" stop-color="#d3d3d3"/>
      <stop offset="0.82" stop-color="#b2afac"/>
      <stop offset="0.88" stop-color="#a7a3a0"/>
      <stop offset="1" stop-color="#d1d3d4"/>
      <stop offset="1" stop-color="#a7a9ac"/>
    </linearGradient>
    <linearGradient id="linear-gradient-9" x1="2.61" x2="32.21" xlink:href="#linear-gradient-8" y1="77.11" y2="77.11"/>
    <linearGradient gradientUnits="userSpaceOnUse" id="linear-gradient-10" x1="13.07" x2="21.76" y1="5.36" y2="5.36">
      <stop offset="0" stop-color="#f4f1ec"/>
      <stop offset="0.39" stop-color="#c6b499"/>
      <stop offset="0.66" stop-color="#fff"/>
      <stop offset="0.78" stop-color="#d7cbb8"/>
      <stop offset="0.92" stop-color="#c6b499"/>
      <stop offset="1" stop-color="#c6b499"/>
    </linearGradient>
    <linearGradient id="Steel_02-2" x1="11.6" x2="23.2" xlink:href="#Steel_02" y1="2.33" y2="2.33"/>
    <linearGradient id="Steel_02-3" x1="11.6" x2="23.2" xlink:href="#Steel_02" y1="14.72" y2="14.72"/>
    <linearGradient id="Steel_02-4" x1="7.15" x2="27.15" xlink:href="#Steel_02" y1="5.35" y2="5.35"/>
    <linearGradient id="Steel_02-5" x1="7.15" x2="27.03" xlink:href="#Steel_02" y1="5.35" y2="5.35"/>
    <linearGradient id="Steel_02-6" x1="7.15" x2="27.15" xlink:href="#Steel_02" y1="5.37" y2="5.37"/>
    <linearGradient gradientUnits="userSpaceOnUse" id="linear-gradient-11" x1="2.98" x2="31.83" y1="24.57" y2="24.57">
      <stop offset="0" stop-color="#a7a9ac"/>
      <stop offset="0" stop-color="#d1d3d4"/>
      <stop offset="0.12" stop-color="#a7a3a0"/>
      <stop offset="0.18" stop-color="#b2afac"/>
      <stop offset="0.38" stop-color="#d3d3d3"/>
      <stop offset="0.48" stop-color="#e0e1e2"/>
      <stop offset="0.85" stop-color="#a7a3a0"/>
      <stop offset="0.93" stop-color="#bdb9b4"/>
      <stop offset="1" stop-color="#ccc7c2"/>
      <stop offset="1" stop-color="#d8d4d0"/>
      <stop offset="1" stop-color="#e5e2df"/>
    </linearGradient>
    <linearGradient id="linear-gradient-12" x1="2.98" x2="31.58" xlink:href="#linear-gradient-11" y1="24.57" y2="24.57"/>
    <linearGradient id="linear-gradient-13" x1="2.98" x2="31.58" xlink:href="#linear-gradient-11" y1="24.6" y2="24.6"/>
    <linearGradient gradientTransform="translate(-16.34 25.64)" id="Steel_02-7" x1="-9.63" x2="45.29" xlink:href="#Steel_02" y1="23.48" y2="23.48"/>
    <linearGradient gradientTransform="translate(-16.11 25.4)" id="Steel_02-8" x1="-9.63" x2="44.82" xlink:href="#Steel_02" y1="23.48" y2="23.48"/>
    <linearGradient gradientTransform="translate(-16.14 25.37)" id="Steel_02-9" x1="-9.63" x2="44.82" xlink:href="#Steel_02" y1="23.51" y2="23.51"/>
    <linearGradient gradientTransform="translate(15.46 57.44)" id="Steel_02-10" x1="-9.63" x2="45.29" xlink:href="#Steel_02" y1="-8.32" y2="-8.32"/>
    <linearGradient gradientTransform="translate(15.7 57.2)" id="Steel_02-11" x1="-9.63" x2="44.82" xlink:href="#Steel_02" y1="-8.32" y2="-8.32"/>
    <linearGradient gradientTransform="translate(15.67 57.17)" id="Steel_02-12" x1="-9.63" x2="44.82" xlink:href="#Steel_02" y1="-8.29" y2="-8.29"/>
    <linearGradient gradientUnits="userSpaceOnUse" id="linear-gradient-14" x1="13.05" x2="21.73" y1="82.41" y2="82.41">
      <stop offset="0.53" stop-color="#d6d0c8"/>
      <stop offset="0.67" stop-color="#d6d0c8"/>
      <stop offset="0.84" stop-color="#fff"/>
      <stop offset="0.91" stop-color="#dcd7d0"/>
    </linearGradient>
    <linearGradient data-name="Silver 03" gradientUnits="userSpaceOnUse" id="Silver_03" x1="13.05" x2="21.73" y1="82.38" y2="82.38">
      <stop offset="0" stop-color="#e5e2df"/>
      <stop offset="0" stop-color="#ded9d6"/>
      <stop offset="0.06" stop-color="#cfcac9"/>
      <stop offset="0.18" stop-color="#a8a4a7"/>
      <stop offset="0.26" stop-color="#8b878d"/>
      <stop offset="0.52" stop-color="#f3f4f4"/>
      <stop offset="0.58" stop-color="#e5e5e6"/>
      <stop offset="0.7" stop-color="#c0bec0"/>
      <stop offset="0.86" stop-color="#858085"/>
      <stop offset="0.88" stop-color="#807b80"/>
      <stop offset="1" stop-color="#d1d3d4"/>
      <stop offset="1" stop-color="#a7a9ac"/>
    </linearGradient>
    <linearGradient id="Steel_02-13" x1="3.23" x2="31.54" xlink:href="#Steel_02" y1="76.58" y2="76.58"/>
    <linearGradient id="Steel_02-14" x1="2.98" x2="31.83" xlink:href="#Steel_02" y1="27.47" y2="27.47"/>
    <linearGradient gradientUnits="userSpaceOnUse" id="linear-gradient-15" x1="5.15" x2="29.65" y1="52" y2="52">
      <stop offset="0.02" stop-color="#0f39c8"/>
      <stop offset="0.07" stop-color="#001fbc"/>
      <stop offset="0.28" stop-color="#0933c6"/>
      <stop offset="0.38" stop-color="#3c61dd"/>
      <stop offset="0.5" stop-color="#2a51d4"/>
      <stop offset="0.59" stop-color="#4f73e4"/>
      <stop offset="0.66" stop-color="#5376e6"/>
      <stop offset="0.72" stop-color="#8dacff"/>
      <stop offset="0.81" stop-color="#6082ec"/>
      <stop offset="0.9" stop-color="#3f64dd"/>
      <stop offset="0.96" stop-color="#3f64dd"/>
    </linearGradient>
    <linearGradient id="linear-gradient-16" x1="31.38" x2="31.38" xlink:href="#linear-gradient-8" y1="78.4" y2="78.4"/>
    <linearGradient id="linear-gradient-17" x1="23.18" x2="24.36" xlink:href="#linear-gradient-4" y1="9.57" y2="9.57"/>
    <linearGradient data-name="Silver 02" gradientUnits="userSpaceOnUse" id="Silver_02" x1="9.24" x2="26.21" y1="12.95" y2="12.95">
      <stop offset="0" stop-color="#bfbdbe"/>
      <stop offset="0.04" stop-color="#cccbcc"/>
      <stop offset="0.12" stop-color="#e4e3e4"/>
      <stop offset="0.2" stop-color="#f3f2f3"/>
      <stop offset="0.26" stop-color="#f8f7f8"/>
      <stop offset="0.31" stop-color="#f2f1f2"/>
      <stop offset="0.37" stop-color="#e1e0e1"/>
      <stop offset="0.43" stop-color="#c6c4c5"/>
      <stop offset="0.45" stop-color="#bfbdbe"/>
      <stop offset="0.58" stop-color="#bfbdbe"/>
      <stop offset="0.62" stop-color="#cecccd"/>
      <stop offset="0.7" stop-color="#e5e3e4"/>
      <stop offset="0.77" stop-color="#f2f0f1"/>
      <stop offset="0.83" stop-color="#f7f5f6"/>
      <stop offset="1" stop-color="#c0bebf"/>
    </linearGradient>
    <linearGradient id="Silver_02-2" x1="8.55" x2="26.32" xlink:href="#Silver_02" y1="17.98" y2="17.98"/>
    <linearGradient gradientTransform="translate(-1.22 1.01) rotate(-3.24)" id="Silver_02-3" x1="8.51" x2="22.54" xlink:href="#Silver_02" y1="21.49" y2="21.49"/>
    <linearGradient gradientTransform="matrix(1, 0, 0, 1, 0, 0)" id="linear-gradient-18" x1="11.33" x2="11.33" xlink:href="#linear-gradient-2" y1="6.38" y2="6.38"/>
    <linearGradient gradientUnits="userSpaceOnUse" id="linear-gradient-19" x1="10.83" x2="24.71" y1="9.89" y2="9.89">
      <stop offset="0.16" stop-color="#c1bcba"/>
      <stop offset="0.44" stop-color="#61564e"/>
      <stop offset="0.54" stop-color="#665c54"/>
      <stop offset="0.67" stop-color="#7c736c"/>
      <stop offset="0.76" stop-color="#8e8680"/>
      <stop offset="0.94" stop-color="#dddad9"/>
    </linearGradient>
    <linearGradient id="linear-gradient-20" x1="10.83" x2="24.71" xlink:href="#linear-gradient-19" y1="9.82" y2="9.82"/>
    <linearGradient id="linear-gradient-21" x1="10.83" x2="24.71" xlink:href="#linear-gradient-19" y1="9.81" y2="9.81"/>
    <linearGradient gradientTransform="matrix(1, 0, 0, 1, 0, 0)" id="linear-gradient-22" x1="11.12" x2="14.37" xlink:href="#linear-gradient-2" y1="6.75" y2="6.75"/>
    <linearGradient id="linear-gradient-23" x1="10.83" x2="24.71" xlink:href="#linear-gradient-19" y1="6.75" y2="6.75"/>
    <linearGradient gradientTransform="matrix(1, 0, 0, 1, 0, 0)" id="linear-gradient-24" x1="11.12" x2="14.37" xlink:href="#linear-gradient-2" y1="6.31" y2="6.31"/>
    <linearGradient id="linear-gradient-25" x1="10.83" x2="24.71" xlink:href="#linear-gradient-19" y1="6.31" y2="6.31"/>
    <linearGradient id="Silver_02-4" x1="10.83" x2="24.71" xlink:href="#Silver_02" y1="8.09" y2="8.09"/>
    <linearGradient gradientTransform="translate(14.04 89.87)" id="linear-gradient-26" x1="5.35" x2="6.95" xlink:href="#linear-gradient" y1="40.49" y2="40.49"/>
    <linearGradient gradientTransform="translate(8.44 84.26)" id="linear-gradient-27" x1="5.35" x2="6.95" xlink:href="#linear-gradient" y1="46.1" y2="46.1"/>
  </defs>
  <title>Solenoid Push-Pull - 5v (Small)</title>
  <g style="isolation: isolate">
    <g data-name="Layer 2" id="Layer_2">
      <g>
        <rect height="34.15" style="fill: #3b3b3b" width="3.87" x="12.65" y="80.08"/>
        <g style="mix-blend-mode: multiply">
          <rect height="34.15" style="fill: #3b3b3b" width="3.87" x="18.25" y="80.08"/>
        </g>
        <g>
          <rect height="18.41" style="mix-blend-mode: soft-light;fill: url(#linear-gradient)" width="14.67" x="10.02" y="114.23"/>
          <rect height="14.67" style="fill: #c9c9c9" transform="translate(-112.82 147.54) rotate(-90)" width="4.94" x="14.89" y="122.84"/>
        </g>
        <rect height="1.73" style="fill: #c9c9c9" transform="translate(-100.19 134.97) rotate(-90)" width="6.7" x="14.04" y="116.71"/>
      </g>
      <path d="M9.14,21.27a19.79,19.79,0,0,1,3-.24l-.27-.53a8.17,8.17,0,0,0-3,.32Z" style="fill: url(#linear-gradient-2)"/>
      <path d="M11.87,6.39c-.25.09-.42.22-.44.37a.32.32,0,0,0,0,.2l.27,0c.52-.14,1.68-.35,2.62-.54l-.06-.08H11.87Z" style="fill: url(#linear-gradient-3)"/>
      <path d="M23.16,19.55a21.42,21.42,0,0,0,2.52-.39c.76.53-.34.83-2.65,1Z" style="fill: url(#linear-gradient-4)"/>
      <path d="M9.4,17.19a19.79,19.79,0,0,1,2.91-.65L12,16.06A8.17,8.17,0,0,0,9,16.78Z" style="fill: url(#linear-gradient-5)"/>
      <path d="M10.07,11.73A19.79,19.79,0,0,1,13,11.08l-.34-.49a8.17,8.17,0,0,0-2.92.72Z" style="fill: url(#linear-gradient-6)"/>
      <path d="M23,14.89c.94-.13,1.84-.29,2.68-.47q.38.3,0,.6a12.77,12.77,0,0,1-2.68.51Z" style="fill: url(#linear-gradient-7)"/>
      <path d="M34.36,76.32a4,4,0,0,1-4,4.25l-25.94,0a4.06,4.06,0,0,1-2.84-1.19A4.09,4.09,0,0,1,.43,76.32H.05a4.56,4.56,0,0,0,1.27,3.33A4.55,4.55,0,0,0,4.49,81H30.36a4.49,4.49,0,0,0,4.39-4.69Z" style="fill: url(#linear-gradient-8)"/>
      <path d="M30,80.74H4.75A4.45,4.45,0,0,1,.3,76.3V66.52a4.45,4.45,0,0,1,4.45-4.45H30a4.45,4.45,0,0,1,4.45,4.45V76.3A4.36,4.36,0,0,1,30,80.74Z" style="fill: url(#Steel_02)"/>
      <path d="M31.81,76.12c0,.13.18,1.67-.31,1.87a2.14,2.14,0,0,1-.65,0l-.48,0h0L4.49,78v0H3.68c-.4-.16-.6-.68-.62-1.52l0-.73-.47.54v1q0,.89,1.08,1.16h.8l26.79,0a1.2,1.2,0,0,0,.93-1.11v-.77Z" style="fill: url(#linear-gradient-9)"/>
      <rect height="2.98" style="fill: #131620" width="28.85" x="2.98" y="23.08"/>
      <rect height="2.04" style="fill: url(#linear-gradient-10)" width="8.68" x="13.07" y="4.34"/>
      <path d="M22.89,0h-11a.31.31,0,0,0-.31.31v4H23.2v-4A.31.31,0,0,0,22.89,0Z" style="fill: #d5d2cc"/>
      <rect height="4.02" style="fill: url(#Steel_02-2)" width="11.6" x="11.6" y="0.31"/>
      <rect height="16.7" style="fill: url(#Steel_02-3)" width="11.6" x="11.6" y="6.37"/>
      <g>
        <rect height="1.75" rx="0.21" ry="0.21" style="fill: url(#Steel_02-4)" width="19.99" x="7.15" y="4.48"/>
        <rect height="1.75" rx="0.16" ry="0.16" style="fill: url(#Steel_02-5)" width="19.88" x="7.15" y="4.48"/>
        <rect height="1.47" style="fill: url(#Steel_02-6)" width="19.99" x="7.15" y="4.64"/>
      </g>
      <g>
        <rect height="2.98" rx="0.43" ry="0.43" style="fill: url(#linear-gradient-11)" width="28.85" x="2.98" y="23.08"/>
        <rect height="2.98" rx="0.35" ry="0.35" style="fill: url(#linear-gradient-12)" width="28.6" x="2.98" y="23.08"/>
        <rect height="2.31" style="fill: url(#linear-gradient-13)" width="28.6" x="2.98" y="23.44"/>
      </g>
      <g>
        <rect height="2.98" rx="0.43" ry="0.43" style="fill: url(#Steel_02-7)" transform="translate(50.61 47.63) rotate(90)" width="54.92" x="-25.97" y="47.63"/>
        <rect height="2.98" rx="0.35" ry="0.35" style="fill: url(#Steel_02-8)" transform="translate(50.37 47.39) rotate(90)" width="54.44" x="-25.73" y="47.39"/>
        <rect height="2.31" style="fill: url(#Steel_02-9)" transform="translate(50.34 47.42) rotate(90)" width="54.44" x="-25.76" y="47.72"/>
      </g>
      <g>
        <rect height="2.98" rx="0.43" ry="0.43" style="fill: url(#Steel_02-10)" transform="translate(82.41 15.83) rotate(90)" width="54.92" x="5.83" y="47.63"/>
        <rect height="2.98" rx="0.35" ry="0.35" style="fill: url(#Steel_02-11)" transform="translate(82.17 15.59) rotate(90)" width="54.44" x="6.07" y="47.39"/>
        <rect height="2.31" style="fill: url(#Steel_02-12)" transform="translate(82.14 15.62) rotate(90)" width="54.44" x="6.04" y="47.72"/>
      </g>
      <rect height="2.87" rx="0.24" ry="0.24" style="fill: url(#linear-gradient-14)" width="8.67" x="13.05" y="80.97"/>
      <rect height="2.33" style="fill: url(#Silver_03)" width="8.67" x="13.05" y="81.21"/>
      <rect height="2.93" style="fill: url(#Steel_02-13)" width="28.31" x="3.23" y="75.12"/>
      <rect height="2.82" style="fill: url(#Steel_02-14)" width="28.85" x="2.98" y="26.06"/>
      <rect height="46.24" style="fill: url(#linear-gradient-15)" width="24.5" x="5.15" y="28.88"/>
      <path d="M31.38,78.4" style="fill: url(#linear-gradient-16)"/>
      <line style="fill: none;stroke: #231f20;stroke-miterlimit: 10;stroke-width: 0.019999999552965px" x1="31.11" x2="31.11" y1="78.03" y2="78.42"/>
      <line style="fill: none;stroke: #231f20;stroke-miterlimit: 10;stroke-width: 0.019999999552965px" x1="31.83" x2="32.21" y1="77.31" y2="77.31"/>
      <line style="fill: none;stroke: #231f20;stroke-miterlimit: 10;stroke-width: 0.019999999552965px" x1="3.71" x2="3.71" y1="78.05" y2="78.44"/>
      <line style="fill: none;stroke: #231f20;stroke-miterlimit: 10;stroke-width: 0.019999999552965px" x1="2.99" x2="2.61" y1="77.31" y2="77.31"/>
      <rect height="1.21" style="fill: none" width="2.21" x="32.21" y="75.56"/>
      <path d="M23.18,9.35a1.18,1.18,0,0,0,.59-.16c.41.1.56.2.59.3s-.5.34-1.16.47Z" style="fill: url(#linear-gradient-17)"/>
      <path d="M9.27,11.89c.65,1.13,15.65,1.88,16.4,2.71.18.37-.12.51-.56.57.7-.16,1.27-.38,1.07-.87-.26-1.12-9.54-1.2-16.07-2.58a.31.31,0,0,1-.1-.22c0-.47,1.51-.75,1.67-.78-.71.09-2.35.34-2.43,1A.29.29,0,0,0,9.27,11.89Z" style="fill: url(#Silver_02)"/>
      <path d="M12,16.06c-.06,0-2.73.48-2.73.48-.57.2-.87.46-.54.88.59.46,7.38,1.06,15,1.69l1.35.21c.76.06.74.28.24.59.66-.13,1.24-.29,1-.78a4.11,4.11,0,0,0-2-.54C19,18,14.11,17.65,10,17.18l-.45-.11c-.1,0-.42-.09-.43-.22s.13-.16.18-.18A13.88,13.88,0,0,1,12,16.06Z" style="fill: url(#Silver_02-2)"/>
      <path d="M9.13,20.62a1,1,0,0,0-.55.28.44.44,0,0,0-.14.26.47.47,0,0,0,.17.37c.35.07.9.16,1.57.25,1.2.16,2,.19,3.91.32l2.34.16c1.52.1,3.54.22,6,.33a.48.48,0,0,0,.14-.31s0-.21-.09-.27a.34.34,0,0,0-.14,0h-.2c-.28,0-6.84-.53-9.38-.59-.49,0-1-.06-1.48-.07a15.87,15.87,0,0,1-1.72-.19c-.18,0-.51-.08-.52-.2s.1-.15.17-.19a1.15,1.15,0,0,1,.53-.16l.6-.07,1.51,0a10.79,10.79,0,0,0-1.43,0A12.21,12.21,0,0,0,9.13,20.62Z" style="fill: url(#Silver_02-3)"/>
      <path d="M11.33,6.38" style="fill: url(#linear-gradient-18)"/>
      <path d="M12.06,6.33l-.17,0h0Z" style="fill: none"/>
      <path d="M11.89,6.38h0Z" style="fill: none"/>
      <path d="M23.75,9.83,23.2,10Z" style="fill: url(#linear-gradient-19)"/>
      <path d="M23.75,9.83h0Z" style="fill: url(#linear-gradient-20)"/>
      <path d="M23.81,9.82l.05,0Z" style="fill: url(#linear-gradient-21)"/>
      <path d="M11.43,6.76c0-.15.19-.28.44-.37a3.56,3.56,0,0,0-.76.31l.35.41s.1-.06.28-.11l-.27,0A.32.32,0,0,1,11.43,6.76Z" style="fill: url(#linear-gradient-22)"/>
      <path d="M11.43,6.76c0-.15.19-.28.44-.37a3.56,3.56,0,0,0-.76.31l.35.41s.1-.06.28-.11l-.27,0A.32.32,0,0,1,11.43,6.76Z" style="fill: url(#linear-gradient-23)"/>
      <path d="M12.35,6.29l-.25,0h0Z" style="fill: url(#linear-gradient-24)"/>
      <path d="M12.35,6.29l-.25,0h0Z" style="fill: url(#linear-gradient-25)"/>
      <path d="M24.69,9.11c0-.54-1.87-.75-3.6-1-2.54-.33-4-.45-9-1.1l-.36,0c-.18,0-.29.09-.28.11l-.35-.41a3.56,3.56,0,0,1,.76-.31h-.18c-.52.12-.84.34-.86.58,0,.07,0,.23.25.45a51,51,0,0,0,7.29,1,33.7,33.7,0,0,1,5.71.85c.47.2.3.37-.22.52C24.38,9.66,24.78,9.48,24.69,9.11Z" style="fill: url(#Silver_02-4)"/>
      <rect height="1.61" style="fill: url(#linear-gradient-26)" transform="translate(150.55 110.16) rotate(90)" width="1.61" x="19.39" y="129.55"/>
      <rect height="1.61" style="fill: url(#linear-gradient-27)" transform="translate(144.94 115.77) rotate(90)" width="1.61" x="13.78" y="129.55"/>
    </g>
    <g id="Connectors">
      <rect data-cir-type="male" height="1.61" id="circuitoCon_pin2" style="fill: none" width="1.61" x="13.78" y="129.55"/>
      <rect data-cir-type="male" height="1.61" id="circuitoCon_pin1" style="fill: none" width="1.61" x="19.39" y="129.55"/>
    </g>
  </g>
</svg>