<?xml version="1.0" ?><svg height="91.88mm" viewBox="0 0 58 260.45" width="20.46mm" xmlns="http://www.w3.org/2000/svg">
  <title>SoftPot Membrane Potentiometer - 50mm</title>
  <g data-name="Layer 5" id="Layer_5">
    <rect height="186.88" style="fill: #c1a974" width="58"/>
    <polygon points="42.05 242.34 13.42 242.34 13.14 191.33 41.76 191.33 42.05 242.34" style="fill: #63c3eb"/>
    <path d="M25.22,167a1,1,0,0,0-.94-.9c-.9,0,.06-.43.06-.43l1.65,0-.24,1.66-.54-.29" style="fill: #decec5" transform="translate(0 0.92)"/>
    <path d="M28.37,167a1,1,0,0,1,.94-.9c.9,0-.06-.43-.06-.43l-1.65,0,.24,1.66.54-.29" style="fill: #decec5" transform="translate(0 0.92)"/>
    <path d="M42.83,19.08H18.33a2.84,2.84,0,0,0-2.83,2.83v137a12,12,0,0,0,12,12h6.17a12,12,0,0,0,12-12v-137A2.84,2.84,0,0,0,42.83,19.08Z" style="fill: #87784c" transform="translate(0 0.92)"/>
  </g>
  <g data-name="Layer 3" id="Layer_3">
    <g id="VECTOE">
      <g>
        <polygon points="32.49 256.38 36.41 256.38 36.41 257.63 35.19 257.63 35.19 260.45 33.55 260.45 33.55 257.61 32.49 257.61 32.49 256.38" style="fill: #dfd6db"/>
        <path d="M35.43,241v-1.22H33.24V241c-1.18-.38-1.27.77-1.17,2.19v12.29h4.56V243.19C36.7,241.76,36.61,240.61,35.43,241ZM35,250.93a.73.73,0,0,1-1.44,0V242A.73.73,0,0,1,35,242Z" style="fill: #decec5" transform="translate(0 0.92)"/>
        <path d="M32,249.76a.53.53,0,0,1-.56-.5h0v-7.34a.57.57,0,0,1,1.13,0v7.34A.54.54,0,0,1,32,249.76Z" style="fill: #ffe4af" transform="translate(0 0.92)"/>
        <path d="M36.31,251.28a.52.52,0,0,1-.56-.48h0v-7a.57.57,0,0,1,1.13,0v7a.52.52,0,0,1-.56.48Z" style="fill: #ffe4af" transform="translate(0 0.92)"/>
      </g>
      <g>
        <polygon points="25.4 256.38 29.32 256.38 29.32 257.63 28.1 257.63 28.1 260.45 26.46 260.45 26.46 257.61 25.4 257.61 25.4 256.38" style="fill: #dfd6db"/>
        <path d="M28.34,241v-1.22H26.15V241c-1.18-.38-1.27.77-1.17,2.19v12.29h4.56V243.19C29.61,241.76,29.52,240.61,28.34,241ZM28,250.93a.73.73,0,0,1-1.44,0V242A.73.73,0,0,1,28,242Z" style="fill: #decec5" transform="translate(0 0.92)"/>
        <path d="M24.93,249.76a.53.53,0,0,1-.56-.5h0v-7.34a.57.57,0,0,1,1.13,0v7.34A.54.54,0,0,1,24.93,249.76Z" style="fill: #ffe4af" transform="translate(0 0.92)"/>
        <path d="M29.22,251.28a.52.52,0,0,1-.56-.48h0v-7a.57.57,0,0,1,1.13,0v7a.52.52,0,0,1-.56.48Z" style="fill: #ffe4af" transform="translate(0 0.92)"/>
      </g>
      <g>
        <polygon points="18.17 256.38 22.09 256.38 22.09 257.63 20.88 257.63 20.88 260.45 19.24 260.45 19.24 257.61 18.17 257.61 18.17 256.38" style="fill: #dfd6db"/>
        <path d="M21.24,241v-1.22H19V241c-1.18-.38-1.27.77-1.17,2.19v12.29h4.56V243.19C22.51,241.76,22.42,240.61,21.24,241Zm-.4,9.94a.73.73,0,0,1-1.44,0V242a.73.73,0,0,1,1.44,0Z" style="fill: #decec5" transform="translate(0 0.92)"/>
        <path d="M17.84,249.76a.54.54,0,0,1-.56-.5v-7.34a.57.57,0,0,1,1.13,0v7.34A.54.54,0,0,1,17.84,249.76Z" style="fill: #ffe4af" transform="translate(0 0.92)"/>
        <path d="M22.12,251.28a.52.52,0,0,1-.56-.48h0v-7a.57.57,0,0,1,1.13,0v7a.52.52,0,0,1-.56.48Z" style="fill: #ffe4af" transform="translate(0 0.92)"/>
      </g>
    </g>
  </g>
  <g data-name="Layer 4" id="Layer_4">
    <path d="M5.75,185.67h6.08A4,4,0,0,1,13.34,187a4.38,4.38,0,0,1,.57,3.46H41a4.42,4.42,0,0,1,.94-3.43,4.21,4.21,0,0,1,2.15-1.32h3.83v-8.08l-1.08-1.42H5.75Z" style="fill: #387885" transform="translate(0 0.92)"/>
    <polyline points="19.42 190.38 19.42 221.17 19.42 221.63" style="fill: none;stroke: #489cb3;stroke-miterlimit: 10;stroke-width: 3px"/>
    <rect height="11.85" style="fill: #decec5" width="5.16" x="17.28" y="228.83"/>
    <rect height="11.85" style="fill: #decec5" width="5.16" x="24.78" y="228.83"/>
    <polygon points="15.5 221.63 23.33 221.63 19.86 228.12 15.5 221.63" style="fill: #decec5"/>
    <polygon points="37.43 166.94 28.38 166.97 25.22 166.97 17.85 167 17.45 21.84 37.04 21.79 37.43 166.94" style="fill: #decec5"/>
    <path d="M36.38,22.4h5.38c1,0,1.5.53,1.47,1.47V171.18l-5,5" style="fill: none;stroke: #decec5;stroke-linejoin: round;stroke-width: 3px" transform="translate(0 0.92)"/>
    <line style="fill: #489cb3" x1="19.94" x2="19.94" y1="165.13" y2="176"/>
    <line style="fill: none;stroke: #489cb3;stroke-miterlimit: 10;stroke-width: 3px" x1="19.42" x2="19.42" y1="177.08" y2="190.67"/>
    <polyline points="38.63 176.73 34.02 181.34 34.31 229.56" style="fill: none;stroke: #479dbf;stroke-miterlimit: 10;stroke-width: 3px"/>
    <rect height="11.85" style="fill: #decec5" width="5.16" x="31.77" y="228.83"/>
    <rect height="10.49" style="fill: #decec5" width="3.13" x="17.85" y="166.58"/>
    <polygon points="25.22 166.58 25.22 167.91 25.5 230.75 28.66 230.75 28.38 166.58 25.22 166.58" style="fill: #decec5"/>
  </g>
  <g data-name="Layer 6" id="Layer_6">
    <g>
      <path d="M37.75,14.47l-.18-.18V11.74a.58.58,0,0,1,.45-.45l.27.73v1.91Zm.55.73V17.1l-.27.73a.58.58,0,0,1-.45-.45V14.83l.18-.18Z" transform="translate(0 0.92)"/>
      <path d="M29.42,14.47l-.18-.18V11.74a.58.58,0,0,1,.45-.45L30,12v1.91Zm.54.73V17.1l-.27.73a.58.58,0,0,1-.45-.45V14.83l.18-.18Zm0-.27-.36-.36.36-.36h2.36l.36.36-.36.36Zm-.09-3.64H32.6a.58.58,0,0,1,.46.45l-.73.27H30.15Zm.27,5.82h2.17l.73.27a.58.58,0,0,1-.45.45H29.88Zm2.91-5.18v2.36l-.18.18-.54-.55V12.19Zm-.73,5V15.19l.54-.55.18.18v2.36Z" transform="translate(0 0.92)"/>
      <path d="M23.89,14.47l-.18-.18V11.74a.58.58,0,0,1,.45-.45l.27.73v1.91Zm.54.73V17.1l-.27.73a.58.58,0,0,1-.45-.45V14.83l.18-.18Zm0-.27-.36-.36.36-.36H26.8l.36.36-.36.36Zm-.09-3.64h2.73a.58.58,0,0,1,.46.45L26.8,12H24.62Zm.27,5.82h2.17l.73.27a.58.58,0,0,1-.45.45H24.35Zm2.91-5.18v2.36l-.18.18-.54-.55V12.19Zm-.73,5V15.19l.54-.55.18.18v2.36Z" transform="translate(0 0.92)"/>
      <path d="M18.57,14.47l-.18-.18V11.74a.58.58,0,0,1,.45-.45l.27.73v1.91Zm.54.73V17.1l-.27.73a.58.58,0,0,1-.45-.45V14.83l.18-.18Zm0-.27-.36-.36.36-.36h2.36l.36.36-.36.36ZM19,11.28h2.73a.58.58,0,0,1,.46.45l-.73.27H19.29Zm.27,5.82h2.17l.73.27a.58.58,0,0,1-.45.45H19Z" transform="translate(0 0.92)"/>
    </g>
  </g>
  <g id="Connectors">
    <rect data-cir-type="male" height="1.39" id="circuitoCon_leg2" style="fill: none" width="1.64" x="19.24" y="259.06"/>
    <rect data-cir-type="male" height="1.39" id="circuitoCon_wiper" style="fill: none" width="1.64" x="26.43" y="259.06"/>
    <rect data-cir-type="male" height="1.39" id="circuitoCon_leg1" style="fill: none" width="1.64" x="33.53" y="259.06"/>
  </g>
</svg>