<?xml version="1.0" ?><svg height="15.21mm" viewBox="0 0 39.19 43.13" width="13.83mm" xmlns="http://www.w3.org/2000/svg" xmlns:xlink="http://www.w3.org/1999/xlink">
  <defs>
    <linearGradient gradientUnits="userSpaceOnUse" id="linear-gradient" x1="12.85" x2="12.85" y1="19.11" y2="14.73">
      <stop offset="0" stop-color="#1a1a1a"/>
      <stop offset="1" stop-color="#333"/>
    </linearGradient>
    <linearGradient gradientTransform="translate(65.8 69.47) rotate(-14)" gradientUnits="userSpaceOnUse" id="linear-gradient-2" x1="-28.86" x2="-28.86" y1="-62.56" y2="-66.92">
      <stop offset="0" stop-color="#f2f2f2"/>
      <stop offset="0.85" stop-color="gray"/>
      <stop offset="1" stop-color="#f2f2f2"/>
    </linearGradient>
    <linearGradient gradientUnits="userSpaceOnUse" id="linear-gradient-3" x1="2.96" x2="5.35" y1="39.45" y2="39.45">
      <stop offset="0" stop-color="#f2f2f2"/>
      <stop offset="0.87" stop-color="gray"/>
      <stop offset="1" stop-color="#f2f2f2"/>
    </linearGradient>
    <linearGradient id="linear-gradient-4" x1="17.34" x2="19.74" xlink:href="#linear-gradient-3" y1="39.45" y2="39.45"/>
    <linearGradient id="linear-gradient-5" x1="31.73" x2="34.12" xlink:href="#linear-gradient-3" y1="39.45" y2="39.45"/>
    <linearGradient gradientUnits="userSpaceOnUse" id="linear-gradient-6" x1="18.52" x2="18.52" y1="36.89" y2="17.38">
      <stop offset="0" stop-color="#333"/>
      <stop offset="1" stop-color="#4d4d4d"/>
    </linearGradient>
    <linearGradient gradientTransform="translate(65.8 69.47) rotate(-14)" gradientUnits="userSpaceOnUse" id="linear-gradient-7" x1="-17.47" x2="-11.42" y1="-70.19" y2="-70.19">
      <stop offset="0" stop-color="#f2f2f2"/>
      <stop offset="0.5" stop-color="gray"/>
      <stop offset="1" stop-color="#f2f2f2"/>
    </linearGradient>
    <linearGradient gradientTransform="translate(48.96 75.09)" id="linear-gradient-8" x1="-16.45" x2="-12.45" xlink:href="#linear-gradient-7" y1="-71.35" y2="-71.35"/>
  </defs>
  <title>Micro Switch</title>
  <g data-name="Layer 1" id="Layer_1">
    <path d="M6.6,16.75l26.72-6.66h0l5.87-1.46-.76-3.06A3.73,3.73,0,1,0,32.56,7l.54,2.18L6.4,15.87a1.31,1.31,0,0,0-1,1.59l.74,3,.87-.22-.74-3A.39.39,0,0,1,6.6,16.75Z" data-name="&lt;Path&gt;" id="_Path_" style="opacity: 0.2"/>
    <path d="M14.64,19.11H11.06V16.52a1.79,1.79,0,0,1,1.79-1.79h0a1.79,1.79,0,0,1,1.79,1.79Z" data-name="&lt;Path&gt;" id="_Path_2" style="fill: url(#linear-gradient)"/>
    <g data-name="&lt;Group&gt;" id="_Group_">
      <path d="M6.61,19.75,5.73,20,5,17a1.31,1.31,0,0,1,1-1.59L38.52,7.3l.22.87L6.15,16.3a.39.39,0,0,0-.28.47Z" data-name="&lt;Path&gt;" id="_Path_3" style="fill: url(#linear-gradient-2)"/>
    </g>
    <path d="M5,43.13H3.32A.36.36,0,0,1,3,42.76v-7h2.4v7A.36.36,0,0,1,5,43.13Z" data-name="&lt;Path&gt;" id="_Path_4" style="fill: url(#linear-gradient-3)"/>
    <path d="M19.37,43.13H17.71a.36.36,0,0,1-.36-.36v-7h2.4v7A.36.36,0,0,1,19.37,43.13Z" data-name="&lt;Path&gt;" id="_Path_5" style="fill: url(#linear-gradient-4)"/>
    <path d="M33.76,43.13H32.09a.36.36,0,0,1-.36-.36v-7h2.4v7A.36.36,0,0,1,33.76,43.13Z" data-name="&lt;Path&gt;" id="_Path_6" style="fill: url(#linear-gradient-5)"/>
    <path d="M35,18.73h-16a.43.43,0,0,1-.3-.13l-1.08-1.09a.44.44,0,0,0-.3-.14H2.12A2.13,2.13,0,0,0,0,19.5V34.81a2.1,2.1,0,0,0,2.12,2.08H35A2.06,2.06,0,0,0,37,34.81v-14A2.08,2.08,0,0,0,35,18.73ZM10,35.12A2.1,2.1,0,1,1,12.1,33,2.1,2.1,0,0,1,10,35.12Zm17.08,0a2.1,2.1,0,1,1,2.1-2.1A2.1,2.1,0,0,1,27.08,35.12Z" data-name="&lt;Compound Path&gt;" id="_Compound_Path_" style="fill: url(#linear-gradient-6)"/>
    <circle cx="34.52" cy="3.73" data-name="&lt;Path&gt;" id="_Path_7" r="3.73" style="fill: #f15a24" transform="translate(0.12 8.46) rotate(-14)"/>
    <circle cx="34.52" cy="3.73" data-name="&lt;Path&gt;" id="_Path_8" r="3.62" style="fill: #f7931e" transform="translate(0.12 8.46) rotate(-14)"/>
    <path d="M33.79.82h0A3,3,0,0,1,37.46,3l1.28,5.15L32.87,9.64,31.59,4.49A3,3,0,0,1,33.79.82Z" data-name="&lt;Path&gt;" id="_Path_9" style="fill: url(#linear-gradient-7)"/>
    <rect data-name="&lt;Path&gt;" height="4.59" id="_Path_10" style="fill: #333" width="19.72" x="16.19" y="19.51"/>
    <polygon data-name="&lt;Path&gt;" id="_Path_11" points="35.92 19.68 35.92 19.5 16.18 19.5 16.18 24.08 16.36 24.08 16.36 19.68 35.92 19.68" style="fill: #262626"/>
    <circle cx="34.52" cy="3.73" data-name="&lt;Path&gt;" id="_Path_12" r="2" style="fill: url(#linear-gradient-8)" transform="translate(0.12 8.46) rotate(-14)"/>
    <circle cx="34.52" cy="3.73" data-name="&lt;Path&gt;" id="_Path_13" r="1.71" style="fill: #ccc" transform="translate(0.12 8.46) rotate(-14)"/>
    <circle cx="6.19" cy="20.05" data-name="&lt;Path&gt;" id="_Path_14" r="2.02" style="fill: #4d4d4d"/>
    <circle cx="6.19" cy="20.05" data-name="&lt;Path&gt;" id="_Path_15" r="1.85" style="fill: #333"/>
    <circle cx="6.19" cy="20.05" data-name="&lt;Path&gt;" id="_Path_16" r="1.85" style="fill: #262626"/>
    <circle cx="6.19" cy="20.05" data-name="&lt;Path&gt;" id="_Path_17" r="1.78" style="fill: #333"/>
    <path d="M6.33,18.41a1.77,1.77,0,0,1,1.19.45A1.78,1.78,0,1,0,5,21.37a1.78,1.78,0,0,1,1.32-3Z" data-name="&lt;Path&gt;" id="_Path_18" style="opacity: 0.1"/>
    <g data-name="&lt;Group&gt;" id="_Group_2">
      <path d="M17,26.58h-.33V25.34a1.13,1.13,0,0,1-.42.25v-.3a1,1,0,0,0,.28-.16.6.6,0,0,0,.21-.27H17Z" data-name="&lt;Compound Path&gt;" id="_Compound_Path_2" style="fill: #262626"/>
      <path d="M18.61,26.27v.3H17.46a.79.79,0,0,1,.11-.33,2.18,2.18,0,0,1,.37-.41,2.32,2.32,0,0,0,.27-.28.36.36,0,0,0,.07-.2.23.23,0,0,0-.06-.17.25.25,0,0,0-.33,0,.32.32,0,0,0-.07.21l-.33,0a.54.54,0,0,1,.18-.39.61.61,0,0,1,.38-.12.56.56,0,0,1,.4.14.45.45,0,0,1,.14.34.59.59,0,0,1,0,.22.89.89,0,0,1-.13.22,2.1,2.1,0,0,1-.21.22l-.2.19-.07.09Z" data-name="&lt;Compound Path&gt;" id="_Compound_Path_3" style="fill: #262626"/>
      <path d="M18.84,26.14l.33,0a.28.28,0,0,0,.08.18.22.22,0,0,0,.16.06.22.22,0,0,0,.17-.08.38.38,0,0,0,.07-.25.34.34,0,0,0-.07-.24.24.24,0,0,0-.18-.08.33.33,0,0,0-.25.12l-.27,0,.17-.89h.87v.31h-.62l-.05.29a.5.5,0,0,1,.59.1A.57.57,0,0,1,20,26a.62.62,0,0,1-.12.38.54.54,0,0,1-.46.23.57.57,0,0,1-.39-.13A.52.52,0,0,1,18.84,26.14Z" data-name="&lt;Compound Path&gt;" id="_Compound_Path_4" style="fill: #262626"/>
      <path d="M20.06,26.6l.42-1.77h.25L20.3,26.6Z" data-name="&lt;Compound Path&gt;" id="_Compound_Path_5" style="fill: #262626"/>
      <path d="M21.93,26.27v.3H20.78a.79.79,0,0,1,.11-.33,2.18,2.18,0,0,1,.37-.41,2.31,2.31,0,0,0,.27-.28.36.36,0,0,0,.07-.2.23.23,0,0,0-.06-.17.25.25,0,0,0-.33,0,.32.32,0,0,0-.07.21l-.33,0A.54.54,0,0,1,21,25a.61.61,0,0,1,.38-.12.56.56,0,0,1,.4.14.45.45,0,0,1,.14.34.59.59,0,0,1,0,.22.89.89,0,0,1-.13.22,2.1,2.1,0,0,1-.21.22l-.2.19-.07.09Z" data-name="&lt;Compound Path&gt;" id="_Compound_Path_6" style="fill: #262626"/>
      <path d="M22.16,26.14l.33,0a.28.28,0,0,0,.08.18.22.22,0,0,0,.16.06.22.22,0,0,0,.17-.08A.38.38,0,0,0,23,26a.34.34,0,0,0-.07-.24.24.24,0,0,0-.18-.08.33.33,0,0,0-.25.12l-.27,0,.17-.89h.87v.31h-.62l-.05.29a.5.5,0,0,1,.59.1.57.57,0,0,1,.15.41.62.62,0,0,1-.12.38.54.54,0,0,1-.46.23.57.57,0,0,1-.39-.13A.52.52,0,0,1,22.16,26.14Z" data-name="&lt;Compound Path&gt;" id="_Compound_Path_7" style="fill: #262626"/>
      <path d="M24,24.86a.47.47,0,0,1,.39.18,1.53,1.53,0,0,1,0,1.39.47.47,0,0,1-.39.17.49.49,0,0,1-.4-.19,1.56,1.56,0,0,1,0-1.38A.47.47,0,0,1,24,24.86Zm0,.27a.16.16,0,0,0-.11,0,.25.25,0,0,0-.07.14,2.78,2.78,0,0,0,0,.84.29.29,0,0,0,.08.15.17.17,0,0,0,.21,0,.25.25,0,0,0,.07-.14,2.77,2.77,0,0,0,0-.84.3.3,0,0,0-.08-.15A.16.16,0,0,0,24,25.13Z" data-name="&lt;Compound Path&gt;" id="_Compound_Path_8" style="fill: #262626"/>
      <path d="M26,26.58l-.61-1.71h.37l.43,1.27.42-1.27H27l-.61,1.71Z" data-name="&lt;Compound Path&gt;" id="_Compound_Path_9" style="fill: #262626"/>
      <path d="M28.5,26.58h-.38L28,26.19h-.68l-.14.39h-.37l.67-1.71h.37Zm-.64-.68-.24-.63-.23.63Z" data-name="&lt;Compound Path&gt;" id="_Compound_Path_10" style="fill: #262626"/>
      <path d="M29.78,25.95l.33.11a.75.75,0,0,1-.26.42.81.81,0,0,1-1-.1.89.89,0,0,1-.22-.64.93.93,0,0,1,.22-.66.76.76,0,0,1,.58-.24.71.71,0,0,1,.51.19.67.67,0,0,1,.17.31l-.34.08a.35.35,0,0,0-.36-.29.39.39,0,0,0-.31.14.67.67,0,0,0-.12.44.72.72,0,0,0,.12.46.38.38,0,0,0,.3.14.35.35,0,0,0,.24-.09A.51.51,0,0,0,29.78,25.95Z" data-name="&lt;Compound Path&gt;" id="_Compound_Path_11" style="fill: #262626"/>
      <path d="M16.25,29.44V27.73h.55a2,2,0,0,1,.41,0,.45.45,0,0,1,.25.17.53.53,0,0,1,.1.33.56.56,0,0,1-.06.26.47.47,0,0,1-.15.17.5.5,0,0,1-.18.08,2,2,0,0,1-.36,0h-.23v.64ZM16.59,28v.49h.19a.89.89,0,0,0,.27,0,.23.23,0,0,0,.11-.08.23.23,0,0,0,0-.13.22.22,0,0,0-.05-.15A.24.24,0,0,0,17,28h-.42Z" data-name="&lt;Compound Path&gt;" id="_Compound_Path_12" style="fill: #262626"/>
      <path d="M18.23,29.44V28h-.51v-.29h1.36V28h-.51v1.42Z" data-name="&lt;Compound Path&gt;" id="_Compound_Path_13" style="fill: #262626"/>
      <path d="M19.68,29.44V28h-.51v-.29h1.36V28H20v1.42Z" data-name="&lt;Compound Path&gt;" id="_Compound_Path_14" style="fill: #262626"/>
      <path d="M22.19,29.44h-.33V28.21a1.13,1.13,0,0,1-.42.25v-.3a1,1,0,0,0,.28-.16.61.61,0,0,0,.21-.27h.27Z" data-name="&lt;Compound Path&gt;" id="_Compound_Path_15" style="fill: #262626"/>
      <path d="M22.68,28.06v-.3H23.8V28a1.76,1.76,0,0,0-.28.39,2.28,2.28,0,0,0-.22.54,2,2,0,0,0-.07.51h-.32a2.2,2.2,0,0,1,.15-.72,2.41,2.41,0,0,1,.37-.66Z" data-name="&lt;Compound Path&gt;" id="_Compound_Path_16" style="fill: #262626"/>
      <path d="M24,29l.33,0a.28.28,0,0,0,.08.18.22.22,0,0,0,.16.06.22.22,0,0,0,.17-.08.38.38,0,0,0,.07-.25.34.34,0,0,0-.07-.24.24.24,0,0,0-.18-.08.33.33,0,0,0-.25.12l-.27,0,.17-.89h.87v.31h-.62l-.05.29a.5.5,0,0,1,.59.1.57.57,0,0,1,.15.41.62.62,0,0,1-.12.38.54.54,0,0,1-.46.23.57.57,0,0,1-.39-.13A.52.52,0,0,1,24,29Z" data-name="&lt;Compound Path&gt;" id="_Compound_Path_17" style="fill: #262626"/>
      <path d="M25.84,29.44l-.61-1.71h.37L26,29l.42-1.27h.37l-.61,1.71Z" data-name="&lt;Compound Path&gt;" id="_Compound_Path_18" style="fill: #262626"/>
    </g>
    <g data-name="&lt;Group&gt;" id="_Group_3">
      <path d="M17,26.53h-.33V25.3a1.13,1.13,0,0,1-.42.25v-.3a1,1,0,0,0,.28-.16.6.6,0,0,0,.21-.27H17Z" data-name="&lt;Compound Path&gt;" id="_Compound_Path_19" style="fill: #4d4d4d"/>
      <path d="M18.57,26.23v.3H17.42a.79.79,0,0,1,.11-.33,2.18,2.18,0,0,1,.37-.41,2.32,2.32,0,0,0,.27-.28.36.36,0,0,0,.07-.2.23.23,0,0,0-.06-.17.25.25,0,0,0-.33,0,.32.32,0,0,0-.07.21l-.33,0a.54.54,0,0,1,.18-.39.61.61,0,0,1,.38-.12.56.56,0,0,1,.4.14.45.45,0,0,1,.14.34.59.59,0,0,1,0,.22.89.89,0,0,1-.13.22,2.1,2.1,0,0,1-.21.22l-.2.19-.07.09Z" data-name="&lt;Compound Path&gt;" id="_Compound_Path_20" style="fill: #4d4d4d"/>
      <path d="M18.79,26.09l.33,0a.28.28,0,0,0,.08.18.22.22,0,0,0,.16.06.22.22,0,0,0,.17-.08A.38.38,0,0,0,19.6,26a.34.34,0,0,0-.07-.24.24.24,0,0,0-.18-.08.33.33,0,0,0-.25.12l-.27,0,.17-.89h.87v.31h-.62l-.05.29a.5.5,0,0,1,.59.1.57.57,0,0,1,.15.41.62.62,0,0,1-.12.38.54.54,0,0,1-.46.23.57.57,0,0,1-.39-.13A.52.52,0,0,1,18.79,26.09Z" data-name="&lt;Compound Path&gt;" id="_Compound_Path_21" style="fill: #4d4d4d"/>
      <path d="M20,26.56l.42-1.77h.25l-.43,1.77Z" data-name="&lt;Compound Path&gt;" id="_Compound_Path_22" style="fill: #4d4d4d"/>
      <path d="M21.89,26.23v.3H20.74a.79.79,0,0,1,.11-.33,2.18,2.18,0,0,1,.37-.41,2.31,2.31,0,0,0,.27-.28.36.36,0,0,0,.07-.2.23.23,0,0,0-.06-.17.25.25,0,0,0-.33,0,.32.32,0,0,0-.07.21l-.33,0a.54.54,0,0,1,.18-.39.61.61,0,0,1,.38-.12.56.56,0,0,1,.4.14.45.45,0,0,1,.14.34.59.59,0,0,1,0,.22.89.89,0,0,1-.13.22,2.1,2.1,0,0,1-.21.22l-.2.19-.07.09Z" data-name="&lt;Compound Path&gt;" id="_Compound_Path_23" style="fill: #4d4d4d"/>
      <path d="M22.11,26.09l.33,0a.28.28,0,0,0,.08.18.22.22,0,0,0,.16.06.22.22,0,0,0,.17-.08.38.38,0,0,0,.07-.25.34.34,0,0,0-.07-.24.24.24,0,0,0-.18-.08.33.33,0,0,0-.25.12l-.27,0,.17-.89h.87v.31h-.62l-.05.29a.5.5,0,0,1,.59.1.57.57,0,0,1,.15.41.62.62,0,0,1-.12.38.54.54,0,0,1-.46.23.57.57,0,0,1-.39-.13A.52.52,0,0,1,22.11,26.09Z" data-name="&lt;Compound Path&gt;" id="_Compound_Path_24" style="fill: #4d4d4d"/>
      <path d="M24,24.81a.47.47,0,0,1,.39.18,1.53,1.53,0,0,1,0,1.39.47.47,0,0,1-.39.17.49.49,0,0,1-.4-.19,1.56,1.56,0,0,1,0-1.38A.47.47,0,0,1,24,24.81Zm0,.27a.16.16,0,0,0-.11,0,.25.25,0,0,0-.07.14,2.78,2.78,0,0,0,0,.84.29.29,0,0,0,.08.15.17.17,0,0,0,.21,0,.25.25,0,0,0,.07-.14,2.77,2.77,0,0,0,0-.84.3.3,0,0,0-.08-.15A.16.16,0,0,0,24,25.09Z" data-name="&lt;Compound Path&gt;" id="_Compound_Path_25" style="fill: #4d4d4d"/>
      <path d="M25.94,26.53l-.61-1.71h.37l.43,1.27.42-1.27h.37l-.61,1.71Z" data-name="&lt;Compound Path&gt;" id="_Compound_Path_26" style="fill: #4d4d4d"/>
      <path d="M28.46,26.53h-.38l-.15-.39h-.68l-.14.39h-.37l.67-1.71h.37Zm-.64-.68-.24-.63-.23.63Z" data-name="&lt;Compound Path&gt;" id="_Compound_Path_27" style="fill: #4d4d4d"/>
      <path d="M29.73,25.9l.33.11a.75.75,0,0,1-.26.42.81.81,0,0,1-1-.1.89.89,0,0,1-.22-.64A.93.93,0,0,1,28.8,25a.76.76,0,0,1,.58-.24.71.71,0,0,1,.51.19.67.67,0,0,1,.17.31l-.34.08a.35.35,0,0,0-.36-.29.39.39,0,0,0-.31.14.67.67,0,0,0-.12.44.72.72,0,0,0,.12.46.38.38,0,0,0,.3.14.35.35,0,0,0,.24-.09A.51.51,0,0,0,29.73,25.9Z" data-name="&lt;Compound Path&gt;" id="_Compound_Path_28" style="fill: #4d4d4d"/>
      <path d="M16.2,29.4V27.69h.55a2,2,0,0,1,.41,0,.45.45,0,0,1,.25.17.53.53,0,0,1,.1.33.56.56,0,0,1-.06.26.47.47,0,0,1-.15.17.5.5,0,0,1-.18.08,2,2,0,0,1-.36,0h-.23v.64ZM16.55,28v.49h.19a.89.89,0,0,0,.27,0,.23.23,0,0,0,.11-.08.23.23,0,0,0,0-.13.22.22,0,0,0-.05-.15A.24.24,0,0,0,17,28h-.42Z" data-name="&lt;Compound Path&gt;" id="_Compound_Path_29" style="fill: #4d4d4d"/>
      <path d="M18.18,29.4V28h-.51v-.29H19V28h-.51V29.4Z" data-name="&lt;Compound Path&gt;" id="_Compound_Path_30" style="fill: #4d4d4d"/>
      <path d="M19.64,29.4V28h-.51v-.29h1.36V28H20V29.4Z" data-name="&lt;Compound Path&gt;" id="_Compound_Path_31" style="fill: #4d4d4d"/>
      <path d="M22.14,29.4h-.33V28.16a1.13,1.13,0,0,1-.42.25v-.3a1,1,0,0,0,.28-.16.61.61,0,0,0,.21-.27h.27Z" data-name="&lt;Compound Path&gt;" id="_Compound_Path_32" style="fill: #4d4d4d"/>
      <path d="M22.63,28v-.3h1.12v.24a1.76,1.76,0,0,0-.28.39,2.28,2.28,0,0,0-.22.54,2,2,0,0,0-.07.51h-.32a2.2,2.2,0,0,1,.15-.72,2.41,2.41,0,0,1,.37-.66Z" data-name="&lt;Compound Path&gt;" id="_Compound_Path_33" style="fill: #4d4d4d"/>
      <path d="M24,29l.33,0a.28.28,0,0,0,.08.18.22.22,0,0,0,.16.06.22.22,0,0,0,.17-.08.38.38,0,0,0,.07-.25.34.34,0,0,0-.07-.24.24.24,0,0,0-.18-.08.33.33,0,0,0-.25.12l-.27,0,.17-.89H25V28h-.62l-.05.29a.5.5,0,0,1,.59.1.57.57,0,0,1,.15.41.62.62,0,0,1-.12.38.54.54,0,0,1-.46.23.57.57,0,0,1-.39-.13A.52.52,0,0,1,24,29Z" data-name="&lt;Compound Path&gt;" id="_Compound_Path_34" style="fill: #4d4d4d"/>
      <path d="M25.8,29.4l-.61-1.71h.37L26,29l.42-1.27h.37l-.61,1.71Z" data-name="&lt;Compound Path&gt;" id="_Compound_Path_35" style="fill: #4d4d4d"/>
    </g>
    <path d="M10,30h0a3,3,0,0,0-2.95,2.95v4s0,0,0,0H12.9s0,0,0,0v-4A3,3,0,0,0,10,30Zm0,5.15A2.1,2.1,0,1,1,12.1,33,2.1,2.1,0,0,1,10,35.12Z" data-name="&lt;Compound Path&gt;" id="_Compound_Path_36" style="fill: #404040"/>
    <path d="M10,30.15h0a2.8,2.8,0,0,0-2.8,2.79v4h5.57v-4A2.78,2.78,0,0,0,10,30.15Zm0,5A2.1,2.1,0,1,1,12.1,33,2.1,2.1,0,0,1,10,35.12Z" data-name="&lt;Compound Path&gt;" id="_Compound_Path_37" style="fill: #333"/>
    <path d="M27.09,30h0a3,3,0,0,0-2.95,2.95v4s0,0,0,0H30s0,0,0,0v-4A3,3,0,0,0,27.09,30Zm0,5.15a2.1,2.1,0,1,1,2.1-2.1A2.1,2.1,0,0,1,27.08,35.12Z" data-name="&lt;Compound Path&gt;" id="_Compound_Path_38" style="fill: #404040"/>
    <path d="M27.08,30.15h0a2.8,2.8,0,0,0-2.8,2.79v4h5.57v-4A2.78,2.78,0,0,0,27.08,30.15Zm0,5a2.1,2.1,0,1,1,2.1-2.1A2.1,2.1,0,0,1,27.08,35.12Z" data-name="&lt;Compound Path&gt;" id="_Compound_Path_39" style="fill: #333"/>
    <g data-name="&lt;Group&gt;" id="_Group_4">
      <path d="M16.87,36V34.23h.35l.72,1.18V34.23h.33V36h-.36l-.71-1.15V36Z" data-name="&lt;Compound Path&gt;" id="_Compound_Path_40" style="fill: #262626"/>
      <path d="M18.58,35.12a1.13,1.13,0,0,1,.08-.45.83.83,0,0,1,.16-.24.69.69,0,0,1,.23-.16,1,1,0,0,1,.38-.07.83.83,0,0,1,.63.24,1.08,1.08,0,0,1,0,1.35.82.82,0,0,1-.62.24.83.83,0,0,1-.63-.24A.91.91,0,0,1,18.58,35.12Zm.37,0a.66.66,0,0,0,.14.46.48.48,0,0,0,.7,0,.68.68,0,0,0,.14-.46.67.67,0,0,0-.13-.45.49.49,0,0,0-.71,0A.67.67,0,0,0,18.95,35.11Z" data-name="&lt;Compound Path&gt;" id="_Compound_Path_41" style="fill: #262626"/>
    </g>
    <g data-name="&lt;Group&gt;" id="_Group_5">
      <path d="M4.62,35.35l.35.11a.78.78,0,0,1-.26.43.76.76,0,0,1-.47.14.76.76,0,0,1-.58-.24.92.92,0,0,1-.23-.66,1,1,0,0,1,.23-.69.78.78,0,0,1,.6-.24.74.74,0,0,1,.53.19.7.7,0,0,1,.18.33l-.35.08a.37.37,0,0,0-.37-.3.4.4,0,0,0-.32.14.69.69,0,0,0-.12.46.74.74,0,0,0,.12.48.39.39,0,0,0,.31.14.36.36,0,0,0,.25-.09A.53.53,0,0,0,4.62,35.35Z" data-name="&lt;Compound Path&gt;" id="_Compound_Path_42" style="fill: #262626"/>
    </g>
    <g data-name="&lt;Group&gt;" id="_Group_6">
      <path d="M31.34,36V34.23h.35l.72,1.18V34.23h.33V36h-.36l-.71-1.15V36Z" data-name="&lt;Compound Path&gt;" id="_Compound_Path_43" style="fill: #262626"/>
      <path d="M34.25,35.35l.35.11a.78.78,0,0,1-.26.43.83.83,0,0,1-1-.1.92.92,0,0,1-.23-.66,1,1,0,0,1,.23-.69.78.78,0,0,1,.6-.24.74.74,0,0,1,.53.19.7.7,0,0,1,.18.33l-.35.08a.37.37,0,0,0-.37-.3.4.4,0,0,0-.32.14.69.69,0,0,0-.12.46.74.74,0,0,0,.12.48.39.39,0,0,0,.31.14.36.36,0,0,0,.25-.09A.53.53,0,0,0,34.25,35.35Z" data-name="&lt;Compound Path&gt;" id="_Compound_Path_44" style="fill: #262626"/>
    </g>
    <g data-name="&lt;Group&gt;" id="_Group_7">
      <path d="M16.83,36V34.18h.35l.72,1.18V34.18h.33V36h-.36l-.71-1.15V36Z" data-name="&lt;Compound Path&gt;" id="_Compound_Path_45" style="fill: #4d4d4d"/>
      <path d="M18.54,35.08a1.13,1.13,0,0,1,.08-.45.83.83,0,0,1,.16-.24.69.69,0,0,1,.23-.16,1,1,0,0,1,.38-.07.83.83,0,0,1,.63.24,1.08,1.08,0,0,1,0,1.35.82.82,0,0,1-.62.24.83.83,0,0,1-.63-.24A.91.91,0,0,1,18.54,35.08Zm.37,0a.66.66,0,0,0,.14.46.48.48,0,0,0,.7,0,.68.68,0,0,0,.14-.46.67.67,0,0,0-.13-.45.49.49,0,0,0-.71,0A.67.67,0,0,0,18.9,35.07Z" data-name="&lt;Compound Path&gt;" id="_Compound_Path_46" style="fill: #4d4d4d"/>
    </g>
    <g data-name="&lt;Group&gt;" id="_Group_8">
      <path d="M4.58,35.3l.35.11a.78.78,0,0,1-.26.43.76.76,0,0,1-.47.14.76.76,0,0,1-.58-.24.92.92,0,0,1-.23-.66,1,1,0,0,1,.23-.69.78.78,0,0,1,.6-.24.74.74,0,0,1,.53.19.7.7,0,0,1,.18.33l-.35.08a.37.37,0,0,0-.37-.3.4.4,0,0,0-.32.14.69.69,0,0,0-.12.46.74.74,0,0,0,.12.48.39.39,0,0,0,.31.14.36.36,0,0,0,.25-.09A.53.53,0,0,0,4.58,35.3Z" data-name="&lt;Compound Path&gt;" id="_Compound_Path_47" style="fill: #4d4d4d"/>
    </g>
    <g data-name="&lt;Group&gt;" id="_Group_9">
      <path d="M31.29,36V34.18h.35l.72,1.18V34.18h.33V36h-.36l-.71-1.15V36Z" data-name="&lt;Compound Path&gt;" id="_Compound_Path_48" style="fill: #4d4d4d"/>
      <path d="M34.21,35.3l.35.11a.78.78,0,0,1-.26.43.83.83,0,0,1-1-.1.92.92,0,0,1-.23-.66,1,1,0,0,1,.23-.69.78.78,0,0,1,.6-.24.74.74,0,0,1,.53.19.7.7,0,0,1,.18.33l-.35.08a.37.37,0,0,0-.37-.3.4.4,0,0,0-.32.14.69.69,0,0,0-.12.46.74.74,0,0,0,.12.48.39.39,0,0,0,.31.14.36.36,0,0,0,.25-.09A.53.53,0,0,0,34.21,35.3Z" data-name="&lt;Compound Path&gt;" id="_Compound_Path_49" style="fill: #4d4d4d"/>
    </g>
    <g data-name="&lt;Group&gt;" id="_Group_10">
      <polygon data-name="&lt;Path&gt;" id="_Path_19" points="14.07 24.84 6.72 24.84 5.38 26.19 14.07 26.19 14.07 24.84" style="fill: #262626"/>
      <polygon data-name="&lt;Path&gt;" id="_Path_20" points="6.07 24.84 4.74 26.19 5.01 26.19 6.35 24.84 6.07 24.84" style="fill: #262626"/>
      <polygon data-name="&lt;Path&gt;" id="_Path_21" points="2.43 24.84 2.43 26.19 3.83 26.19 5.17 24.84 2.43 24.84" style="fill: #262626"/>
      <polygon data-name="&lt;Path&gt;" id="_Path_22" points="5.47 24.84 4.13 26.19 4.38 26.19 5.72 24.84 5.47 24.84" style="fill: #262626"/>
    </g>
    <g data-name="&lt;Group&gt;" id="_Group_11">
      <polygon data-name="&lt;Path&gt;" id="_Path_23" points="14.03 24.8 6.67 24.8 5.34 26.15 14.03 26.15 14.03 24.8" style="fill: #333"/>
      <polygon data-name="&lt;Path&gt;" id="_Path_24" points="6.03 24.8 4.69 26.15 4.97 26.15 6.31 24.8 6.03 24.8" style="fill: #333"/>
      <polygon data-name="&lt;Path&gt;" id="_Path_25" points="2.38 24.8 2.38 26.15 3.79 26.15 5.12 24.8 2.38 24.8" style="fill: #333"/>
      <polygon data-name="&lt;Path&gt;" id="_Path_26" points="5.42 24.8 4.09 26.15 4.33 26.15 5.67 24.8 5.42 24.8" style="fill: #333"/>
    </g>
    <g data-name="&lt;Group&gt;" id="_Group_12">
      <path d="M7.51,25.11h.35l.06,0,0,.05a.14.14,0,0,1,0,.07.14.14,0,0,1-.09.13.16.16,0,0,1,.09.06.15.15,0,0,1,0,.09.18.18,0,0,1,0,.08.16.16,0,0,1-.05.06l-.08,0H7.51Zm.12.1v.14H7.8l0,0a.06.06,0,0,0,0,0,.07.07,0,0,0,0,0l0,0H7.63Zm0,.24v.16h.2l0,0a.08.08,0,0,0,0-.05.08.08,0,0,0,0,0l0,0H7.63Z" data-name="&lt;Compound Path&gt;" id="_Compound_Path_50" style="fill: #4d4d4d"/>
      <path d="M8.12,25.72v-.61h.45v.1H8.25v.14h.31v.1H8.25v.17h.34v.1Z" data-name="&lt;Compound Path&gt;" id="_Compound_Path_51" style="fill: #4d4d4d"/>
      <path d="M8.66,25.52h.12a.15.15,0,0,0,0,.09.13.13,0,0,0,.09,0,.14.14,0,0,0,.09,0,.08.08,0,0,0,0-.06.06.06,0,0,0,0,0l0,0-.1,0a.34.34,0,0,1-.14-.06.16.16,0,0,1-.06-.12.16.16,0,0,1,0-.09.17.17,0,0,1,.08-.06l.12,0a.26.26,0,0,1,.17.05.18.18,0,0,1,.06.13H9a.11.11,0,0,0,0-.07l-.08,0-.08,0a0,0,0,0,0,0,0,0,0,0,0,0,0,0l.11,0,.13,0a.17.17,0,0,1,.07.06.19.19,0,0,1,0,.2.18.18,0,0,1-.08.07l-.13,0a.26.26,0,0,1-.18-.05A.23.23,0,0,1,8.66,25.52Z" data-name="&lt;Compound Path&gt;" id="_Compound_Path_52" style="fill: #4d4d4d"/>
      <path d="M9.4,25.72v-.51H9.22v-.1H9.7v.1H9.52v.51Z" data-name="&lt;Compound Path&gt;" id="_Compound_Path_53" style="fill: #4d4d4d"/>
      <path d="M10.51,25.64l.1.05,0,.09-.05,0-.08-.05-.13,0a.29.29,0,0,1-.22-.08.38.38,0,0,1,0-.47.29.29,0,0,1,.22-.08.28.28,0,0,1,.22.08.32.32,0,0,1,.08.23.4.4,0,0,1,0,.14A.29.29,0,0,1,10.51,25.64Zm-.1-.07a.18.18,0,0,0,0-.07.32.32,0,0,0,0-.09.23.23,0,0,0,0-.16.17.17,0,0,0-.24,0,.23.23,0,0,0,0,.16.24.24,0,0,0,0,.16.15.15,0,0,0,.12.05h.05l-.08,0,0-.07Z" data-name="&lt;Compound Path&gt;" id="_Compound_Path_54" style="fill: #4d4d4d"/>
      <path d="M10.68,25.11h.12v.33a.68.68,0,0,0,0,.1.1.1,0,0,0,0,.06l.08,0,.08,0a.09.09,0,0,0,0-.05.69.69,0,0,0,0-.1v-.34h.12v.32a.83.83,0,0,1,0,.16.17.17,0,0,1,0,.08l-.07,0-.12,0-.13,0-.07-.05a.17.17,0,0,1,0-.07.74.74,0,0,1,0-.16Z" data-name="&lt;Compound Path&gt;" id="_Compound_Path_55" style="fill: #4d4d4d"/>
      <path d="M11.85,25.72h-.13l-.05-.14h-.24l-.05.14h-.13l.24-.61h.13Zm-.23-.24-.08-.23-.08.23Z" data-name="&lt;Compound Path&gt;" id="_Compound_Path_56" style="fill: #4d4d4d"/>
      <path d="M11.92,25.72v-.61H12v.5h.31v.1Z" data-name="&lt;Compound Path&gt;" id="_Compound_Path_57" style="fill: #4d4d4d"/>
      <path d="M12.44,25.72v-.61h.12v.61Z" data-name="&lt;Compound Path&gt;" id="_Compound_Path_58" style="fill: #4d4d4d"/>
      <path d="M12.81,25.72v-.51h-.18v-.1h.49v.1h-.18v.51Z" data-name="&lt;Compound Path&gt;" id="_Compound_Path_59" style="fill: #4d4d4d"/>
      <path d="M13.36,25.72v-.26l-.22-.35h.14l.14.24.14-.24h.14l-.22.35v.26Z" data-name="&lt;Compound Path&gt;" id="_Compound_Path_60" style="fill: #4d4d4d"/>
    </g>
    <path d="M10.18,31.09a2.09,2.09,0,0,1,1.39.53,2.1,2.1,0,1,0-3,3,2.1,2.1,0,0,1,1.57-3.5Z" data-name="&lt;Path&gt;" id="_Path_27" style="fill: #1a1a1a"/>
    <path d="M27.26,31.09a2.09,2.09,0,0,1,1.39.53,2.1,2.1,0,1,0-3,3,2.1,2.1,0,0,1,1.57-3.5Z" data-name="&lt;Path&gt;" id="_Path_28" style="fill: #1a1a1a"/>
    <path d="M10,30.82a2.2,2.2,0,1,0,2.2,2.2A2.2,2.2,0,0,0,10,30.82Zm0,4.3A2.1,2.1,0,1,1,12.1,33,2.1,2.1,0,0,1,10,35.12Z" data-name="&lt;Compound Path&gt;" id="_Compound_Path_61" style="fill: #262626"/>
    <path d="M27.07,30.82a2.2,2.2,0,1,0,2.2,2.2A2.2,2.2,0,0,0,27.07,30.82Zm0,4.3a2.1,2.1,0,1,1,2.1-2.1A2.1,2.1,0,0,1,27.08,35.12Z" data-name="&lt;Compound Path&gt;" id="_Compound_Path_62" style="fill: #262626"/>
  </g>
  <g id="Connectors">
    <rect data-cir-type="male" height="2.39" id="circuitoCon_COM" style="fill: none" width="2.39" x="2.92" y="40.73"/>
    <rect data-cir-type="male" height="2.39" id="circuitoCon_NO" style="fill: none" width="2.39" x="17.32" y="40.73"/>
    <rect data-cir-type="male" height="2.39" id="circuitoCon_NC" style="fill: none" width="2.39" x="31.72" y="40.73"/>
  </g>
</svg>