<?xml version="1.0" ?><svg height="13.57mm" viewBox="0 0 22.67 38.46" width="8mm" xmlns="http://www.w3.org/2000/svg">
  <title>A1302 Linear Hall Effect Sensor</title>
  <g data-name="vector lines" id="vector_lines">
    <rect height="22.83" id="connector0pin" style="fill: #b0acb0" width="2.38" x="2.53" y="15.63"/>
    <rect height="22.83" id="connector1pin" style="fill: #b0acb0" width="2.38" x="9.73" y="15.63"/>
    <rect height="22.83" id="connector2pin" style="fill: #b0acb0" width="2.38" x="16.93" y="15.63"/>
  </g>
  <g id="square">
    <rect height="16" rx="0.42" ry="0.42" style="fill: #303030" width="22.67"/>
    <polyline points="0.17 15.76 4.04 13.5 4.04 0" style="fill: none;stroke: #423e3d;stroke-miterlimit: 10;stroke-width: 0.391181111335754px"/>
    <polyline points="17.67 0 17.88 13.5 22.56 15.74" style="fill: none;stroke: #423e3d;stroke-miterlimit: 10;stroke-width: 0.391181111335754px"/>
    <line style="fill: none;stroke: #423e3d;stroke-miterlimit: 10;stroke-width: 0.391181111335754px" x1="17.87" x2="4.04" y1="13.5" y2="13.5"/>
  </g>
  <g data-name="Layer 5" id="Layer_5">
    <g>
      <path d="M4.5,7.75l.72-2.46a.18.18,0,0,1,.18-.13.16.16,0,0,1,.17.11l.72,2.5a.18.18,0,0,1,0,.05A.18.18,0,0,1,6.25,8,.16.16,0,0,1,6.13,8,.17.17,0,0,1,6,7.87l-.14-.49H5l-.16.52A.11.11,0,0,1,4.78,8a.19.19,0,0,1-.1,0,.18.18,0,0,1-.13-.05.18.18,0,0,1-.05-.13A.23.23,0,0,1,4.5,7.75ZM5.41,6,5.1,7h.61Z" style="fill: #e8e5df"/>
      <path d="M7.31,7.64h.55V5.52H7.31a.18.18,0,1,1,0-.36h.9V7.64h.36V6.89a.18.18,0,0,1,.18-.18.18.18,0,0,1,.18.18v.93A.18.18,0,0,1,8.76,8H7.31a.17.17,0,0,1-.13-.05.18.18,0,0,1-.05-.13.17.17,0,0,1,.05-.12A.17.17,0,0,1,7.31,7.64Z" style="fill: #e8e5df"/>
      <path d="M11.6,5.52v.67a.51.51,0,0,1-.15.38.53.53,0,0,1,.15.36v.7a.34.34,0,0,1-.11.25.35.35,0,0,1-.26.11H10a.18.18,0,1,1,0-.36h1.27v-.7a.18.18,0,0,0-.05-.13.17.17,0,0,0-.13-.05h-.72a.17.17,0,0,1-.13-.05.18.18,0,0,1,.13-.31h.73a.17.17,0,0,0,.13-.05.17.17,0,0,0,.05-.13v-.7H10a.18.18,0,0,1,0-.36h1.28a.36.36,0,0,1,.36.36Z" style="fill: #e8e5df"/>
      <path d="M12.43,7.65V5.5a.35.35,0,0,1,.35-.35H13.9a.33.33,0,0,1,.24.1.33.33,0,0,1,.1.24V7.65a.35.35,0,0,1-.35.35H12.77a.33.33,0,0,1-.25-.1A.33.33,0,0,1,12.43,7.65Zm1.46,0V5.52h-1.1V7.64Z" style="fill: #e8e5df"/>
      <path d="M16.71,8H15.08V6.76a.35.35,0,0,1,.11-.26.34.34,0,0,1,.25-.11h1.09V5.52H15.25a.17.17,0,0,1-.13-.05.18.18,0,0,1,0-.25.17.17,0,0,1,.13-.05h1.28a.35.35,0,0,1,.26.11.35.35,0,0,1,.11.25v.88a.36.36,0,0,1-.36.36H15.44v.88h1.28a.18.18,0,0,1,.13.05.18.18,0,0,1,0,.25A.18.18,0,0,1,16.71,8Z" style="fill: #e8e5df"/>
    </g>
  </g>
  <g id="Connectors">
    <rect data-cir-type="male" height="1.37" id="circuitoCon_Vcc" style="fill: none" width="2.38" x="2.53" y="37.09"/>
    <rect data-cir-type="male" height="1.37" id="circuitoCon_Gnd" style="fill: none" width="2.38" x="9.73" y="37.09"/>
    <rect data-cir-type="male" height="1.37" id="circuitoCon_Vout" style="fill: none" width="1.66" x="17.29" y="37.09"/>
  </g>
</svg>