<?xml version="1.0" ?><svg height="15.43mm" viewBox="0 0 43.93 43.75" width="15.5mm" xmlns="http://www.w3.org/2000/svg" xmlns:xlink="http://www.w3.org/1999/xlink">
  <defs>
    <linearGradient gradientUnits="userSpaceOnUse" id="linear-gradient" x1="33.15" x2="34.09" y1="22.24" y2="22.24">
      <stop offset="0.12" stop-color="#f8d8a1"/>
      <stop offset="0.57" stop-color="#f8d8a1"/>
      <stop offset="0.66" stop-color="#f8d8a1"/>
      <stop offset="0.8" stop-color="#f8d8a1"/>
      <stop offset="1" stop-color="#fff"/>
    </linearGradient>
    <linearGradient id="linear-gradient-2" x1="24.3" x2="25.38" xlink:href="#linear-gradient" y1="21.7" y2="21.7"/>
    <linearGradient id="linear-gradient-3" x1="25.85" x2="32.54" xlink:href="#linear-gradient" y1="22.04" y2="22.04"/>
    <linearGradient id="linear-gradient-4" x1="24.09" x2="25.51" xlink:href="#linear-gradient" y1="19.33" y2="19.33"/>
    <linearGradient id="linear-gradient-5" x1="23.93" x2="25.51" xlink:href="#linear-gradient" y1="20.34" y2="20.34"/>
    <linearGradient id="linear-gradient-6" x1="23.93" x2="25.51" xlink:href="#linear-gradient" y1="21.25" y2="21.25"/>
    <linearGradient gradientTransform="matrix(1, 0, 0, -1, -4.22, 47.22)" id="linear-gradient-7" x1="28.31" x2="29.73" xlink:href="#linear-gradient" y1="22.41" y2="22.41"/>
    <linearGradient gradientTransform="matrix(1, 0, 0, -1, -4.22, 47.22)" id="linear-gradient-8" x1="28.15" x2="29.73" xlink:href="#linear-gradient" y1="23.42" y2="23.42"/>
    <linearGradient gradientTransform="matrix(1, 0, 0, -1, -4.22, 47.22)" id="linear-gradient-9" x1="28.15" x2="29.73" xlink:href="#linear-gradient" y1="24.33" y2="24.33"/>
    <linearGradient id="linear-gradient-10" x1="32.99" x2="34.43" xlink:href="#linear-gradient" y1="19.38" y2="19.38"/>
    <linearGradient id="linear-gradient-11" x1="32.99" x2="34.3" xlink:href="#linear-gradient" y1="20.29" y2="20.29"/>
    <linearGradient id="linear-gradient-12" x1="32.99" x2="34.43" xlink:href="#linear-gradient" y1="21.14" y2="21.14"/>
    <linearGradient gradientTransform="matrix(1, 0, 0, -1, 0, 47.45)" id="linear-gradient-13" x1="32.93" x2="34.37" xlink:href="#linear-gradient" y1="22.66" y2="22.66"/>
    <linearGradient gradientTransform="matrix(1, 0, 0, -1, 0, 47.45)" id="linear-gradient-14" x1="32.93" x2="34.24" xlink:href="#linear-gradient" y1="23.61" y2="23.61"/>
    <linearGradient gradientTransform="matrix(1, 0, 0, -1, 0, 47.45)" id="linear-gradient-15" x1="32.93" x2="34.37" xlink:href="#linear-gradient" y1="24.45" y2="24.45"/>
  </defs>
  <title>UV Sensor Breakout - ML8511</title>
  <g data-name="Layer 14" id="Layer_14">
    <circle cx="36.37" cy="36.67" r="5.16" style="fill: none"/>
    <circle cx="36.37" cy="7.44" r="5.16" style="fill: none"/>
    <path d="M.18,0V43.75H43.93V0ZM3.67,34.37a1.44,1.44,0,1,1,1.46-1.44A1.45,1.45,0,0,1,3.67,34.37Zm0-7.2a1.44,1.44,0,1,1,1.46-1.44A1.45,1.45,0,0,1,3.67,27.17Zm0-7.2a1.44,1.44,0,1,1,1.46-1.44A1.45,1.45,0,0,1,3.67,20Zm0-7.2a1.44,1.44,0,1,1,1.46-1.44A1.45,1.45,0,0,1,3.67,12.77Zm0-7.31A1.59,1.59,0,1,1,5.26,3.87,1.59,1.59,0,0,1,3.67,5.46Zm15.94,24a.92.92,0,1,1,.92-.92A.92.92,0,0,1,19.61,29.49Zm.31-12.09a.92.92,0,1,1,.92-.92A.92.92,0,0,1,19.92,17.4Zm7.81,20.86a1.59,1.59,0,1,1,1.59-1.59A1.59,1.59,0,0,1,27.73,38.26ZM29,33.85a.92.92,0,1,1,.92-.92A.92.92,0,0,1,29,33.85Zm7.39,8a5.16,5.16,0,1,1,5.16-5.16A5.16,5.16,0,0,1,36.37,41.82Zm2.74-13.25a.92.92,0,1,1,.92.92A.92.92,0,0,1,39.11,28.57Zm-2.74-16a5.16,5.16,0,1,1,5.16-5.16A5.16,5.16,0,0,1,36.37,12.59Z" style="fill: #8a231e"/>
    <circle cx="27.73" cy="36.67" r="1.59" style="fill: #fff"/>
    <circle cx="3.67" cy="3.87" r="1.59" style="fill: #fff"/>
    <circle cx="28.98" cy="32.93" r="0.92" style="fill: #fff"/>
    <circle cx="40.03" cy="28.57" r="0.92" style="fill: #fff"/>
    <circle cx="19.61" cy="28.57" r="0.92" style="fill: #fff"/>
    <circle cx="19.92" cy="16.48" r="0.92" style="fill: #fff"/>
  </g>
  <g data-name="PATHS RE LIGHT" id="PATHS_RE_LIGHT">
    <polyline points="33.71 26.27 35.15 26.27 36.51 24.91 36.51 16.34 34.9 14.73 30.18 14.73 28.41 12.97 28.41 6.81 25.48 3.87 7.23 3.87 3.67 7.44 3.67 8.38 3.67 9.01" style="fill: none;stroke: #cf2f27;stroke-miterlimit: 10;stroke-width: 0.5px"/>
    <path d="M5.72,7.44,7.84,5.31H25.19l2.08,2.12V8.9a.47.47,0,0,1-.94,0h-4c0,.56-1.14.56-1.14,0l-1.15,0v1.75H18.6V9c-.88-.34-1.66.17-1.48,1.33h.83v1.48h-.81c-.14,1.06.24,1.66,1.48,1.48V12.21h1.61v1a1.05,1.05,0,0,0,1.08,0c.46-.39.73-.27.88.15.62,0,1,.24,1,.9l0,.58.59.73-.26,2,1-.2,0-2.33-.59-.66,0-2.16h.81l0,2,.58.53v2.7l-2,4.73-6.84-.09-5-5H7.16l0-.68-1.4-1.69L7.34,13V9.4Z" style="fill: #cf2f27"/>
    <path d="M23.59,30.72v1.14h1.36v-1c1.18-.21,1.88.1,1.61,1.44h-1v1.45h1.1c-.08.54.08.83.79.55a2,2,0,0,1,2,.71c.29.39.56.42.8-.2a6.37,6.37,0,0,1,5.44-4.66,3.76,3.76,0,0,1,1.67,0c.64.21.84,0,.52-.83A2.18,2.18,0,0,1,38,27.49c.26-.29.24-.59-.18-.91,0-.75-.55-.86-.87-.32l-1.3,1.35-1,0-.25.25-1.83,0c-.33-.69-.68-.94-1.06-.22l-.5.09,0-.52-.73-.08-.08.6-3.34.1c-.41-.5-.79-.47-1.13,0l-1.84,0-.14-.25-1.12.09c-.38-.34-.93.84-.55,1.18,0,0-.49,1.13-.49,1.13-.34.28-.41.5-.11.63.2.42.5.47.89.22l.27-.16Z" style="fill: #cf2f27"/>
    <polyline points="23.51 23.3 15.92 23.3 10.8 18.18 5.46 18.18" style="fill: none;stroke: #cf2f27;stroke-miterlimit: 10;stroke-width: 0.5px"/>
    <line style="fill: none;stroke: #cf2f27;stroke-miterlimit: 10;stroke-width: 0.5px" x1="18.26" x2="5.72" y1="32.93" y2="32.93"/>
    <polyline points="23.77 26.27 21.97 26.27 20.5 27.74" style="fill: none;stroke: #cf2f27;stroke-miterlimit: 10;stroke-width: 0.5px"/>
    <line style="fill: none;stroke: #cf2f27;stroke-miterlimit: 10;stroke-width: 0.5px" x1="19.43" x2="19.43" y1="32.01" y2="30"/>
    <circle cx="19.61" cy="28.57" r="1.34" style="fill: none;stroke: #cf2f27;stroke-miterlimit: 10;stroke-width: 0.75px" transform="translate(-9.34 47.63) rotate(-88.9)"/>
    <circle cx="39.98" cy="28.57" r="1.34" style="fill: none;stroke: #cf2f27;stroke-miterlimit: 10;stroke-width: 0.75px" transform="translate(10.65 68) rotate(-88.9)"/>
    <path d="M7.32,31.52h9.56a1.35,1.35,0,0,1,.69-.92c.27-.1.4-.27.09-.68-.76-1.86-.23-3.25,1.66-3.65.47,0,1,0,1.17-.34l.64-.64c.3-.48-.12-.59-.92-.51l-4.83-.11-5-5.11h-3v.76L5.66,22l1.68,1.86.06,3.73L5.9,29.25,7.25,31Z" style="fill: #cf2f27"/>
    <line style="fill: none;stroke: #cf2f27;stroke-miterlimit: 10;stroke-width: 0.75px" x1="39.98" x2="39.98" y1="25.39" y2="27.41"/>
    <path d="M7.4,34.32h9.4l.63.95h3.94c.29-.56.68-.7,1.24,0l1.15-.19v-1.4h1.32v1.59c.6,0,.52.34.32.78-.2,1.81.76,2.69,2.53,2.94a2,2,0,0,0,1.42-.73c.44-.36.77-.36.85.53a5.46,5.46,0,0,0,2.25,3c.56.56.46.86-.63.76H1.95c-.37,0-.61-.16-.56-.7v-5.7l5.33.49.63-.58Z" style="fill: #cf2f27"/>
  </g>
  <g data-name="Layer 13" id="Layer_13">
    <circle cx="20.07" cy="16.56" r="0.83" style="fill: #fefefe"/>
    <circle cx="28.99" cy="32.93" r="0.83" style="fill: #fefefe"/>
  </g>
  <g id="micro">
    <path d="M28.74,17c.14-.24-.08-.4-.44-.54-.21.19-.37,0-.14-.15l.15-.21c0-.15.22-.15.47-.12l.56.09c.16-.1.31-.17.46,0s.21.43-.11.54l-.4.09A.79.79,0,0,0,28.74,17Z" style="fill: #e2e3e3"/>
    <rect height="0.52" rx="0.25" ry="0.25" style="fill: #e2e3e3" width="2.02" x="28.06" y="27.23"/>
    <rect height="0.52" rx="0.25" ry="0.25" style="fill: #e2e3e3" transform="translate(56.87 -13.12) rotate(90)" width="2.02" x="33.99" y="21.61"/>
    <rect height="0.52" rx="0.25" ry="0.25" style="fill: #e2e3e3" transform="translate(45.13 -1.38) rotate(90)" width="2.02" x="22.24" y="21.61"/>
    <polygon points="34.45 16.81 23.79 16.81 23.79 17.17 23.34 17.17 23.34 27.08 23.79 27.08 23.79 27.45 34.45 27.45 34.45 27.08 34.9 27.08 34.9 17.17 34.45 17.17 34.45 16.81" style="fill: #6f5178"/>
    <rect height="7.59" rx="0.67" ry="0.67" style="fill: #4f3b54" width="7.42" x="25.51" y="18.24"/>
  </g>
  <g data-name="Layer 7" id="Layer_7">
    <polygon points="34.09 21.88 33.58 21.88 33.15 22.38 33.35 22.61 33.7 22.24 34.09 22.24 34.09 21.88" style="fill: url(#linear-gradient)"/>
    <polygon points="24.89 22.04 25.38 21.41 24.96 21.25 24.71 21.88 24.3 21.88 24.3 22.15 24.82 22.15 24.89 22.04" style="fill: url(#linear-gradient-2)"/>
  </g>
  <g data-name="Layer 8" id="Layer_8">
    <path d="M33.39,17.91H25a.71.71,0,0,0-.71.71v6.85a.71.71,0,0,0,.71.71h8.38a.71.71,0,0,0,.71-.71V18.62A.71.71,0,0,0,33.39,17.91Zm-8.67,4.49a.37.37,0,1,1,.37-.37A.37.37,0,0,1,24.72,22.41Zm9,0a.37.37,0,1,1,.37-.37A.37.37,0,0,1,33.7,22.41Z" style="fill: #5d4162"/>
  </g>
  <g data-name="insive purple" id="insive_purple">
    <rect height="7.58" rx="0.61" ry="0.61" style="fill: #594260" width="7.38" x="25.62" y="18.25"/>
    <path d="M34.05,18.58a.31.31,0,0,0-.06-.14.83.83,0,0,1,0,.19S34.05,18.6,34.05,18.58Z" style="fill: #38243a"/>
    <circle cx="24.74" cy="18.54" r="0.37" style="fill: #291925"/>
    <circle cx="33.7" cy="18.54" r="0.37" style="fill: #291925"/>
    <circle cx="24.74" cy="25.59" r="0.37" style="fill: #291925"/>
    <circle cx="33.7" cy="25.59" r="0.37" style="fill: #291925"/>
  </g>
  <g data-name="gold pieces" id="gold_pieces">
    <polygon points="26.55 18.25 26.99 18.25 26.99 18.75 28.82 18.75 28.82 18.25 29.62 18.25 29.62 18.75 32.54 18.75 32.54 25.24 30.87 25.24 30.87 25.83 30.29 25.83 30.29 25.19 29.66 25.19 29.55 25.19 29.55 25.83 28.77 25.83 28.77 25.19 25.85 25.19 25.85 18.75 26.55 18.75 26.55 18.25" style="fill: url(#linear-gradient-3)"/>
    <polygon points="24.62 19.72 25.51 19.72 25.51 19.18 24.54 19.18 24.3 18.93 24.3 19.4 24.62 19.72" style="fill: url(#linear-gradient-4)"/>
    <polygon points="24.42 20.56 24.72 20.86 25.51 20.86 25.51 19.82 24.3 19.82 24.3 20.56 24.42 20.56" style="fill: url(#linear-gradient-5)"/>
    <polygon points="25.51 21.6 25.51 21.02 24.43 21.02 24.3 20.91 24.3 21.6 25.51 21.6" style="fill: url(#linear-gradient-6)"/>
    <polygon points="24.54 24.96 25.51 24.96 25.51 24.42 24.62 24.42 24.3 24.74 24.3 25.21 24.54 24.96" style="fill: url(#linear-gradient-7)"/>
    <polygon points="25.51 24.32 25.51 23.29 24.72 23.29 24.42 23.58 24.3 23.58 24.3 24.32 25.51 24.32" style="fill: url(#linear-gradient-8)"/>
    <polygon points="24.43 23.12 25.51 23.12 25.51 22.55 24.3 22.55 24.3 23.23 24.43 23.12" style="fill: url(#linear-gradient-9)"/>
    <polygon points="33.9 19.22 32.99 19.22 32.99 19.72 33.92 19.72 34.09 19.55 34.09 19.03 33.9 19.22" style="fill: url(#linear-gradient-10)"/>
    <rect height="0.52" style="fill: url(#linear-gradient-11)" width="1.1" x="32.99" y="20.04"/>
    <rect height="0.55" style="fill: url(#linear-gradient-12)" width="1.1" x="32.99" y="20.86"/>
    <polygon points="33.86 24.41 32.93 24.41 32.93 24.91 33.84 24.91 34.09 25.17 34.09 24.65 33.86 24.41" style="fill: url(#linear-gradient-13)"/>
    <rect height="0.52" style="fill: url(#linear-gradient-14)" width="1.16" x="32.93" y="23.58"/>
    <rect height="0.55" style="fill: url(#linear-gradient-15)" width="1.16" x="32.93" y="22.72"/>
  </g>
  <g data-name="Layer 9" id="Layer_9">
    <rect height="5.77" style="fill: #3c261d" width="5.02" x="26.55" y="19.01"/>
    <rect height="1.49" style="fill: #816363" width="1.13" x="29.35" y="19.82"/>
    <rect height="2.58" style="fill: #816363" width="2.71" x="27.76" y="21.31"/>
    <g>
      <line style="fill: none;stroke: #c2a271;stroke-linecap: round;stroke-miterlimit: 10;stroke-width: 0.1px" x1="33.05" x2="31.39" y1="23.61" y2="22.71"/>
      <circle cx="31.31" cy="22.64" r="0.13" style="fill: #c2a271"/>
    </g>
    <g>
      <line style="fill: none;stroke: #c2a271;stroke-linecap: round;stroke-miterlimit: 10;stroke-width: 0.1px" x1="25.48" x2="26.87" y1="22.77" y2="22.1"/>
      <circle cx="26.95" cy="22.08" r="0.11" style="fill: #c2a271" transform="translate(-6.67 31.19) rotate(-54.48)"/>
    </g>
    <g>
      <line style="fill: none;stroke: #c2a271;stroke-linecap: round;stroke-miterlimit: 10;stroke-width: 0.1px" x1="25.4" x2="26.95" y1="20.3" y2="20.37"/>
      <circle cx="27.03" cy="20.39" r="0.11" style="fill: #c2a271" transform="translate(-6.21 13.96) rotate(-26.08)"/>
    </g>
    <g>
      <line style="fill: none;stroke: #c2a271;stroke-linecap: round;stroke-miterlimit: 10;stroke-width: 0.1px" x1="25.4" x2="26.95" y1="20.77" y2="20.84"/>
      <circle cx="27.03" cy="20.86" r="0.11" style="fill: #c2a271" transform="translate(-6.42 14.01) rotate(-26.08)"/>
    </g>
    <g>
      <line style="fill: none;stroke: #c2a271;stroke-linecap: round;stroke-miterlimit: 10;stroke-width: 0.1px" x1="25.4" x2="26.95" y1="21.33" y2="21.4"/>
      <circle cx="27.03" cy="21.42" r="0.11" style="fill: #c2a271" transform="translate(-6.66 14.06) rotate(-26.08)"/>
    </g>
    <g>
      <line style="fill: none;stroke: #c2a271;stroke-linecap: round;stroke-miterlimit: 10;stroke-width: 0.1px" x1="25.48" x2="26.87" y1="23.41" y2="22.73"/>
      <circle cx="26.95" cy="22.71" r="0.11" style="fill: #c2a271" transform="translate(-7.19 31.46) rotate(-54.48)"/>
    </g>
    <g>
      <line style="fill: none;stroke: #c2a271;stroke-linecap: round;stroke-miterlimit: 10;stroke-width: 0.1px" x1="25.48" x2="26.87" y1="23.98" y2="23.3"/>
      <circle cx="26.95" cy="23.28" r="0.11" style="fill: #c2a271" transform="translate(-7.65 31.69) rotate(-54.48)"/>
    </g>
    <g>
      <line style="fill: none;stroke: #c2a271;stroke-linecap: round;stroke-miterlimit: 10;stroke-width: 0.1px" x1="33.05" x2="31.36" y1="24.54" y2="23.32"/>
      <circle cx="31.29" cy="23.24" r="0.15" style="fill: #c2a271" transform="translate(4.25 51.31) rotate(-82.67)"/>
    </g>
    <circle cx="31.31" cy="20.37" r="0.17" style="fill: #5a6166"/>
    <circle cx="31.31" cy="20.94" r="0.17" style="fill: #5a6166"/>
    <circle cx="31.31" cy="21.53" r="0.17" style="fill: #5a6166"/>
    <circle cx="31.31" cy="22.1" r="0.17" style="fill: #5a6166"/>
    <circle cx="25.19" cy="20.16" r="0.11" style="fill: #cc9246"/>
    <circle cx="25.19" cy="20.53" r="0.11" style="fill: #cc9246"/>
    <circle cx="25.19" cy="23.6" r="0.11" style="fill: #cc9246"/>
    <circle cx="25.19" cy="23.97" r="0.11" style="fill: #cc9246"/>
    <circle cx="25.19" cy="21.26" r="0.11" style="fill: #cc9246"/>
    <circle cx="25.19" cy="22.82" r="0.11" style="fill: #cc9246"/>
    <circle cx="33.38" cy="23.87" r="0.11" style="fill: #cc9246"/>
    <circle cx="33.38" cy="24.67" r="0.11" style="fill: #cc9246"/>
  </g>
  <g id="TEXT">
    <g>
      <path d="M10.74,1.41h.57v3.8c0,.17-.06.26-.23.26s-.23-.09-.23-.26V2.13h0l-.44.74V3c0,.16-.06.31-.23.31S10,3.11,10,3V2.87l-.44-.74h0V5.21c0,.17-.06.26-.23.26s-.23-.09-.23-.26V1.41h.57l.56.92Z" style="fill: #fff"/>
      <path d="M14.39,5c.12,0,.23.07.23.26s-.11.26-.23.26h-2V1.67c0-.17.06-.26.23-.26s.23.09.23.26V5Z" style="fill: #fff"/>
      <path d="M17.24,1.41a.23.23,0,0,1,.23.26V3.18a.44.44,0,0,1,.34.15.55.55,0,0,1,.12.38V5a.46.46,0,0,1-.46.52H16.11A.46.46,0,0,1,15.66,5V3.71a.55.55,0,0,1,.12-.38.44.44,0,0,1,.34-.15V1.67a.23.23,0,0,1,.23-.26ZM17.47,5V3.7H16.11V5ZM17,3.18V1.93h-.43V3.18Z" style="fill: #fff"/>
      <path d="M19.87,3.18h.84a.44.44,0,0,1,.37.15.56.56,0,0,1,.14.44V4.89a.61.61,0,0,1-.11.41.42.42,0,0,1-.4.18h-1a.61.61,0,0,1-.3-.09l-.17-.09C19.1,5.23,19,5.18,19,5a.25.25,0,0,1,.22-.26.3.3,0,0,1,.15,0l.14.07a.72.72,0,0,0,.24.1h1.06V3.7H19.41V1.41H21c.12,0,.23.07.23.26s-.11.26-.23.26H19.87Z" style="fill: #fff"/>
      <path d="M24.07,5V3.9c0-.15.06-.26.23-.26s.23.11.23.26V5.21c0,.19-.11.26-.23.26H22.49c-.12,0-.23-.07-.23-.26s.11-.26.23-.26h.68v-3h-.68c-.12,0-.23-.07-.23-.26s.11-.26.23-.26h1.13V5Z" style="fill: #fff"/>
      <path d="M27.37,5V3.9c0-.15.06-.26.23-.26s.23.11.23.26V5.21c0,.19-.11.26-.23.26H25.79c-.12,0-.23-.07-.23-.26s.11-.26.23-.26h.67v-3h-.67c-.12,0-.23-.07-.23-.26s.11-.26.23-.26h1.13V5Z" style="fill: #fff"/>
    </g>
    <path d="M9.9,12.45c.12,0,.23.07.23.26S10,13,9.9,13h-2V8.91h2c.12,0,.23.07.23.26s-.11.26-.23.26H8.32v1.25H9c.12,0,.23.07.23.26s-.11.26-.23.26H8.32v1.25Z" style="fill: #fff"/>
    <path d="M13.24,9.18c0-.17.06-.26.23-.26s.23.09.23.26V13h-.61l-1.2-3.13h0v2.87c0,.17-.06.26-.23.26s-.23-.09-.23-.26V8.91H12l1.2,3.17h0Z" style="fill: #fff"/>
    <g>
      <path d="M10.45,17.5a1.32,1.32,0,0,1,.12.58,1.41,1.41,0,0,1-.15.62l-.42,1a.58.58,0,0,1-1.12,0l-.42-1a1.41,1.41,0,0,1-.15-.62,1.32,1.32,0,0,1,.12-.58l.46-1a.57.57,0,0,1,1.11,0Zm-.86-.79c0-.08-.06-.16-.16-.16s-.12.07-.16.16l-.41.94a.89.89,0,0,0-.11.42.78.78,0,0,0,.08.34l.44,1c0,.07.06.16.16.16s.12-.08.16-.16l.44-1a.78.78,0,0,0,.08-.34.89.89,0,0,0-.11-.42Z" style="fill: #fff"/>
      <path d="M12.35,20.1a.66.66,0,0,1-.57-.27.91.91,0,0,1-.17-.62V16.3c0-.17.06-.26.23-.26s.23.09.23.26v2.91c0,.29.08.37.28.37h.78c.21,0,.28-.07.28-.37V16.3c0-.17.06-.26.23-.26s.23.09.23.26v2.91a.9.9,0,0,1-.17.62.66.66,0,0,1-.57.27Z" style="fill: #fff"/>
      <path d="M15.36,16.56v.19c0,.17-.06.26-.23.26s-.23-.09-.23-.26V16h2.27v.71c0,.17-.06.26-.23.26s-.23-.09-.23-.26v-.19h-.45v3.28c0,.17-.06.26-.23.26s-.23-.09-.23-.26V16.56Z" style="fill: #fff"/>
    </g>
    <g>
      <path d="M9.66,26.08c-.12,0-.23-.07-.23-.26s.11-.26.23-.26h.9v1a.73.73,0,0,1-.73.82H9a.65.65,0,0,1-.53-.21.81.81,0,0,1-.22-.64v-1.3a1.15,1.15,0,0,1,.24-.76l.54-.79a.68.68,0,0,1,.64-.35h.62c.12,0,.23.07.23.26s-.11.26-.23.26H9.79c-.25,0-.23,0-.39.21l-.5.73a1.09,1.09,0,0,0-.14.68v1c0,.29.05.38.32.38h.73c.17,0,.3,0,.3-.27v-.53Z" style="fill: #fff"/>
      <path d="M13.42,23.62c0-.17.06-.26.23-.26s.23.09.23.26v3.8h-.61l-1.2-3.13h0v2.87c0,.17-.06.26-.23.26s-.23-.09-.23-.26v-3.8h.61l1.2,3.17h0Z" style="fill: #fff"/>
      <path d="M15.36,23.87h-.17c-.15,0-.28-.06-.28-.26a.24.24,0,0,1,.27-.26h.77c.36,0,.54.17.69.52l.4.92a1.36,1.36,0,0,1,.14.61A1.38,1.38,0,0,1,17,26l-.42.95a.69.69,0,0,1-.73.49h-.76c-.12,0-.23-.07-.23-.26s.11-.26.23-.26h.22Zm.46,3h.09c.19,0,.24,0,.32-.22l.4-.93a.79.79,0,0,0,.09-.34A1,1,0,0,0,16.6,25l-.38-.88c-.1-.22-.14-.22-.35-.22h-.06Z" style="fill: #fff"/>
    </g>
    <g>
      <path d="M2.88,41.57a.66.66,0,0,1-.57-.27.91.91,0,0,1-.17-.62V37.77c0-.17.06-.26.23-.26s.23.09.23.26v2.91c0,.29.08.37.28.37h.78c.21,0,.28-.07.28-.37V37.77c0-.17.06-.26.23-.26s.23.09.23.26v2.91a.9.9,0,0,1-.17.62.66.66,0,0,1-.57.27Z" style="fill: #fff"/>
      <path d="M7.25,38.61v-.83c0-.17.06-.26.23-.26s.23.09.23.26v.83a.6.6,0,0,1,0,.2L6.8,41.34c0,.13-.09.23-.23.23s-.18-.1-.23-.23L5.47,38.8a.6.6,0,0,1,0-.2v-.83c0-.17.06-.26.23-.26s.23.09.23.26v.83l.67,2Z" style="fill: #fff"/>
    </g>
    <g>
      <path d="M14.18,40.55a.72.72,0,0,1,.16.43.55.55,0,0,1-.58.59h-1a.63.63,0,0,1-.46-.17.69.69,0,0,1-.22-.49c0-.17.08-.31.24-.31a.24.24,0,0,1,.22.27c0,.16.07.18.2.18h1s.15,0,.15-.06-.06-.12-.08-.15l-1.58-2.3a.68.68,0,0,1-.15-.43.61.61,0,0,1,.24-.5.56.56,0,0,1,.38-.09h1a.6.6,0,0,1,.45.17.75.75,0,0,1,.22.5c0,.17-.07.3-.24.3a.22.22,0,0,1-.22-.25c0-.18-.08-.2-.22-.2h-1c-.05,0-.16,0-.16.07a.35.35,0,0,0,.07.14Z" style="fill: #fff"/>
      <path d="M16.24,41.57a.43.43,0,0,1-.4-.14l-.19-.19a.66.66,0,0,1-.23-.56v-1a.71.71,0,0,1,.22-.6L15.8,39a.55.55,0,0,1,.49-.21h.4a.59.59,0,0,1,.49.18l.18.16a.76.76,0,0,1,.23.65v.4c0,.29,0,.37-.3.37H15.87v.17a.26.26,0,0,0,.06.15L16,41a.34.34,0,0,0,.29.09h.95c.15,0,.3,0,.3.25s-.17.25-.3.25ZM15.87,40h1.28v-.3a.31.31,0,0,0-.06-.23l-.17-.17a.29.29,0,0,0-.21-.06h-.37a.32.32,0,0,0-.23.06l-.15.13a.24.24,0,0,0-.09.23Z" style="fill: #fff"/>
      <path d="M19.17,39.77v1.46c0,.17,0,.34-.22.34s-.22-.17-.22-.34v-2.1c0-.18,0-.37.22-.37s.22.19.22.37v.06h0l.36-.27a.68.68,0,0,1,.38-.17h.33a.52.52,0,0,1,.41.18.86.86,0,0,1,.2.68l0,1.58c0,.18,0,.38-.22.38s-.22-.17-.22-.34l0-1.54c0-.31,0-.43-.3-.43H20a.24.24,0,0,0-.14,0Z" style="fill: #fff"/>
      <path d="M22.79,39.26c-.09,0-.25,0-.25.14s.06.11.12.15l1.1.57a.72.72,0,0,1,.43.71.67.67,0,0,1-.73.75h-.68a.72.72,0,0,1-.55-.16c-.08-.07-.2-.17-.2-.29a.24.24,0,0,1,.23-.25.2.2,0,0,1,.17.09.43.43,0,0,0,.35.11h.6c.16,0,.37,0,.37-.28,0-.12-.13-.2-.23-.25l-1-.54a.62.62,0,0,1-.39-.61.6.6,0,0,1,.61-.64h.75a.59.59,0,0,1,.51.17c.08.08.17.14.17.28a.24.24,0,0,1-.23.25.23.23,0,0,1-.19-.1.3.3,0,0,0-.27-.1Z" style="fill: #fff"/>
      <path d="M25.34,39.69a.71.71,0,0,1,.28-.65.74.74,0,0,1,.62-.28h.35a.74.74,0,0,1,.62.28.71.71,0,0,1,.28.65v.94a.76.76,0,0,1-.3.67.69.69,0,0,1-.6.26h-.35a.69.69,0,0,1-.6-.26.76.76,0,0,1-.3-.67Zm.44.94c0,.1,0,.17.16.3a.38.38,0,0,0,.3.14h.35a.38.38,0,0,0,.3-.14c.13-.12.16-.19.16-.3v-.94c0-.1,0-.17-.16-.3a.38.38,0,0,0-.3-.14h-.35a.38.38,0,0,0-.3.14c-.13.13-.16.19-.16.3Z" style="fill: #fff"/>
      <path d="M28.64,39.13c0-.18,0-.37.22-.37s.22.17.22.33v.2l.34-.32a.63.63,0,0,1,.39-.21h.35a.55.55,0,0,1,.43.2.78.78,0,0,1,.2.57c0,.17,0,.35-.22.35s-.22-.15-.22-.31a.37.37,0,0,0,0-.22c-.06-.09-.16-.09-.27-.09h-.13a.33.33,0,0,0-.22.12l-.62.58v1.27c0,.17,0,.34-.22.34s-.22-.17-.22-.34Z" style="fill: #fff"/>
    </g>
    <g>
      <path d="M8.45,31c-.11,0-.21-.07-.21-.26s.1-.26.21-.26H9.87c.23,0,.41.22.41.52v1a.7.7,0,0,1-.16.51.69.69,0,0,1,.16.51v1c0,.3-.18.52-.41.52H8.45c-.11,0-.21-.07-.21-.26s.1-.26.21-.26H9.87v-.87c0-.29-.09-.38-.21-.38H8.86c-.11,0-.21-.07-.21-.26s.1-.26.21-.26h.81c.12,0,.21-.09.21-.38V31Z" style="fill: #fff"/>
      <path d="M12.08,33.87c-.09,0-.16,0-.21-.1a.4.4,0,0,1,0-.24v-.29a.4.4,0,0,1,0-.23c.06-.1.12-.1.21-.1h.3c.09,0,.16,0,.21.1a.4.4,0,0,1,0,.23v.29a.4.4,0,0,1,0,.24c-.06.1-.12.1-.21.1Z" style="fill: #fff"/>
    </g>
    <path d="M13.39,31.06c-.11,0-.21-.07-.21-.26s.1-.26.21-.26h1.42c.23,0,.41.22.41.52v1a.7.7,0,0,1-.16.51.69.69,0,0,1,.16.51v1c0,.3-.18.52-.41.52H13.39c-.11,0-.21-.07-.21-.26s.1-.26.21-.26h1.42v-.87c0-.29-.09-.38-.21-.38h-.81c-.11,0-.21-.07-.21-.26s.1-.26.21-.26h.81c.12,0,.21-.09.21-.38v-.87Z" style="fill: #fff"/>
    <g data-name="&lt;Group&gt;" id="_Group_">
      <polygon data-name="&lt;Path&gt;" id="_Path_" points="1.75 7.77 0.3 9.4 0.3 12.82 2 14.73 0.32 16.61 0.32 20.32 1.9 22.09 0.25 23.94 0.25 27.57 1.86 29.37 0.33 31.09 0.33 34.69 1.92 36.47 5.74 36.47 7.32 34.69 7.32 31.09 5.79 29.37 7.4 27.57 7.4 23.94 5.75 22.09 7.33 20.32 7.33 16.61 5.65 14.73 7.35 12.82 7.35 9.4 5.9 7.77 1.75 7.77" style="fill: none;stroke: #eeefeb;stroke-miterlimit: 10;stroke-width: 0.5px"/>
    </g>
    <g>
      <rect height="2.1" rx="0.42" ry="0.42" style="fill: #e7e6e8" transform="translate(-8.01 57.65) rotate(-90)" width="3.53" x="23.06" y="31.78"/>
      <rect height="2.56" rx="0.73" ry="0.73" style="fill: #fffdf3" transform="translate(-13.89 51.78) rotate(-90)" width="3.47" x="17.21" y="31.55"/>
      <rect height="4.28" rx="0.92" ry="0.92" style="fill: #af7b56" transform="translate(-11.51 54.26) rotate(-90)" width="2.78" x="19.98" y="30.75"/>
      <path d="M23.12,31.29q.8-.19.79.94l-.05,1.84c-.2.48-.47.64-.85.19a6.77,6.77,0,0,1-.21-2.37A.57.57,0,0,1,23.12,31.29Z" style="fill: #757376"/>
      <path d="M19.44,31.29q.8-.19.79.94l-.05,1.84c-.2.48-.47.64-.85.19a6.77,6.77,0,0,1-.21-2.37A.57.57,0,0,1,19.44,31.29Z" style="fill: #757376"/>
    </g>
    <g>
      <rect height="2.1" rx="0.42" ry="0.42" style="fill: #e7e6e8" transform="translate(13.6 36.04) rotate(-90)" width="3.36" x="23.14" y="10.17"/>
      <rect height="2.56" rx="0.73" ry="0.73" style="fill: #fffdf3" transform="translate(7.73 30.16) rotate(-90)" width="3.31" x="17.29" y="9.94"/>
      <rect height="4.28" rx="0.92" ry="0.92" style="fill: #bbad94" transform="translate(10.1 32.64) rotate(-90)" width="2.65" x="20.05" y="9.13"/>
      <path d="M23.12,9.74q.8-.18.79.89l-.05,1.75c-.2.46-.47.61-.85.18a6.15,6.15,0,0,1-.21-2.26A.54.54,0,0,1,23.12,9.74Z" style="fill: #757376"/>
      <path d="M19.44,9.74q.8-.18.79.89l-.05,1.75c-.2.46-.47.61-.85.18a6.15,6.15,0,0,1-.21-2.26A.54.54,0,0,1,19.44,9.74Z" style="fill: #757376"/>
    </g>
    <g>
      <rect height="2.09" rx="0.42" ry="0.42" style="fill: #e7e6e8" transform="translate(79.97 38.24) rotate(180)" width="3.09" x="38.44" y="18.08"/>
      <rect height="2.55" rx="0.73" ry="0.73" style="fill: #e7e6e8" transform="translate(79.97 49.77) rotate(180)" width="3.04" x="38.47" y="23.61"/>
      <rect height="4.26" rx="0.92" ry="0.92" style="fill: #e7e6e8" transform="translate(79.97 43.9) rotate(180)" width="2.53" x="38.72" y="19.82"/>
      <rect height="2.16" style="fill: #2a292d" transform="translate(18.08 61.98) rotate(-90)" width="3.25" x="38.41" y="20.87"/>
      <g>
        <path d="M40.5,21.32a.1.1,0,0,1-.11.09h-.64a.1.1,0,0,1-.11-.09v-.26a.1.1,0,0,1,.11-.09h.64a.1.1,0,0,1,.11.09Zm-.75,0h.64v-.26h-.64Z" style="fill: #fbfcfe"/>
        <path d="M39.76,22H40S40,22,40,22s0,0-.05,0H39.7s-.05,0-.05,0v-.35s0,0,.05,0,.05,0,.05,0v.13h.64v-.13s0,0,.05,0,.05,0,.05,0v.22h-.75Z" style="fill: #fbfcfe"/>
        <path d="M39.65,22.5a.14.14,0,0,1,.1-.13l.2-.08.12,0a.29.29,0,0,1,.12,0l.2.08a.14.14,0,0,1,.11.14v.15s0,0-.05,0-.05,0-.05,0V22.5s0,0,0-.06l-.19-.08-.08,0-.08,0-.19.08s0,0,0,.07v.15s0,0-.05,0-.05,0-.05,0Z" style="fill: #fbfcfe"/>
      </g>
    </g>
    <path d="M27.63,17.64a.31.31,0,0,1,0-.15.34.34,0,0,1,0-.16l.13-.25a.18.18,0,0,1,.33,0l.13.25a.34.34,0,0,1,0,.16.32.32,0,0,1,0,.15l-.14.27a.19.19,0,0,1-.17.11.19.19,0,0,1-.17-.11Zm.26.21s0,0,0,0,0,0,0,0l.12-.25a.21.21,0,0,0,0-.11.19.19,0,0,0,0-.09L28,17.14s0,0,0,0,0,0,0,0l-.13.26a.18.18,0,0,0,0,.09.21.21,0,0,0,0,.11Z" style="fill: #90838c"/>
    <path d="M26.61,18a.06.06,0,0,1-.07.07s-.07,0-.07-.07v-.32l-.42.36A.09.09,0,0,1,26,18a.07.07,0,0,1-.07-.07.08.08,0,0,1,0-.06l.47-.4-.47-.4a.08.08,0,0,1,0-.06A.07.07,0,0,1,26,17s.05,0,.07,0l.4.34V17a.07.07,0,1,1,.14,0Z" style="fill: #90838c"/>
    <path d="M24.82,17.09h-.2a.07.07,0,1,1,0-.14h.54a.07.07,0,0,1,0,.14H25v.79h.2a.07.07,0,0,1,0,.14h-.54a.07.07,0,1,1,0-.14h.2Z" style="fill: #90838c"/>
  </g>
  <g id="Connectors">
    <circle cx="3.67" cy="11.33" data-cir-type="male" id="circuitoCon_EN" r="2.05" style="fill: none;stroke: #e8e5df;stroke-width: 1.224px"/>
    <circle cx="3.67" cy="18.53" data-cir-type="male" id="circuitoCon_OUT" r="2.05" style="fill: none;stroke: #e8e5df;stroke-width: 1.224px"/>
    <circle cx="3.67" cy="25.73" data-cir-type="male" id="circuitoCon_GND" r="2.05" style="fill: none;stroke: #e8e5df;stroke-width: 1.224px"/>
    <circle cx="3.67" cy="32.93" data-cir-type="male" id="circuitoCon_3.3V" r="2.05" style="fill: none;stroke: #e8e5df;stroke-width: 1.224px"/>
  </g>
</svg>