<?xml version="1.0" ?><svg height="29.85mm" viewBox="0 0 58.82 84.63" width="20.75mm" xmlns="http://www.w3.org/2000/svg">
  <title>AT42QT1012</title>
  <g data-name="Layer 1" id="Layer_1">
    <g>
      <circle cx="25.84" cy="12.5" r="3.75" style="fill: #aea68d"/>
      <circle cx="25.84" cy="12.5" r="2.22" style="fill: #a29585"/>
      <circle cx="25.84" cy="12.5" r="0.63" style="fill: #67614e"/>
    </g>
    <circle cx="25.76" cy="12.5" r="4" style="fill: #aaa77e"/>
    <circle cx="25.76" cy="12.5" r="2.19" style="fill: #b0a091"/>
    <circle cx="25.76" cy="12.5" r="0.46" style="fill: #5d5744"/>
    <path d="M51.76,0H7.06A7.24,7.24,0,0,0,0,7.41V77.22a7.24,7.24,0,0,0,7.06,7.41h44.7a7.24,7.24,0,0,0,7.06-7.41V7.41A7.24,7.24,0,0,0,51.76,0ZM7.49,74a5.08,5.08,0,0,1,0-10.15A5.08,5.08,0,0,1,7.49,74Zm0-61.56A5,5,0,0,1,2.65,7.33,5,5,0,0,1,7.49,2.26a5,5,0,0,1,4.83,5.07A5,5,0,0,1,7.49,12.41ZM14.7,80.79a2.19,2.19,0,1,1,2.08-2.18A2.13,2.13,0,0,1,14.7,80.79Zm5.47-21.6a.73.73,0,0,1,0,1.45A.73.73,0,0,1,20.17,59.19ZM21.94,81A2.19,2.19,0,1,1,24,78.78,2.14,2.14,0,0,1,21.94,81Zm7.2,0a2.18,2.18,0,1,1,2.08-2.18A2.14,2.14,0,0,1,29.14,81Zm7.19-.19a2.19,2.19,0,1,1,2.08-2.18A2.13,2.13,0,0,1,36.33,80.79Zm1.82-24.05a2.23,2.23,0,1,1,2.12-2.23A2.18,2.18,0,0,1,38.15,56.74Zm6,23.81h-.08a1.72,1.72,0,0,1,0-3.43h.08A1.72,1.72,0,0,1,44.13,80.55ZM51.67,74A5.08,5.08,0,1,1,56.5,68.9,5,5,0,0,1,51.67,74Zm-.83-15.51a1,1,0,0,1,0,2A1,1,0,0,1,50.84,58.46ZM55.51,45a1,1,0,0,1,0,2A1,1,0,0,1,55.51,45ZM51.67,12.41a5,5,0,0,1-4.84-5.08,4.84,4.84,0,1,1,9.67,0A5,5,0,0,1,51.67,12.41Z" style="fill: #1a2c80"/>
    <circle cx="7.49" cy="68.9" r="4.63" style="fill: none;stroke: #ebd29d;stroke-miterlimit: 10"/>
    <circle cx="7.49" cy="7.22" r="4.63" style="fill: none;stroke: #ebd29d;stroke-miterlimit: 10"/>
    <circle cx="51.67" cy="7.33" r="4.63" style="fill: none;stroke: #ebd29d;stroke-miterlimit: 10"/>
    <circle cx="38.38" cy="54.53" r="2.03" style="fill: none;stroke: #ebd29d;stroke-miterlimit: 10;stroke-width: 0.5px" transform="translate(-19.81 87.11) rotate(-84.1)"/>
    <circle cx="55.49" cy="46.02" r="1.02" style="fill: none;stroke: #0b5597;stroke-linecap: round;stroke-linejoin: round;stroke-width: 0.75px"/>
    <circle cx="50.81" cy="59.44" r="1.02" style="fill: none;stroke: #0b5597;stroke-linecap: round;stroke-linejoin: round;stroke-width: 0.75px"/>
    <circle cx="20.15" cy="59.93" r="1.02" style="fill: none;stroke: #0b5597;stroke-linecap: round;stroke-linejoin: round;stroke-width: 0.75px"/>
    <circle cx="51.67" cy="68.9" r="4.9" style="fill: none;stroke: #f4d39c;stroke-miterlimit: 10;stroke-width: 0.75px"/>
    <polyline points="49.65 59.44 48.59 59.44 42.09 66.25 41.8 72.67 40.5 73.83 27.11 73.83 23.99 76.81" style="fill: none;stroke: #0b5597;stroke-linecap: round;stroke-linejoin: round;stroke-width: 0.75px"/>
    <polyline points="55.49 47.38 55.11 62.19 48.78 62.19 44.09 67.02 44.09 76.42" style="fill: none;stroke: #0b5597;stroke-linecap: round;stroke-linejoin: round;stroke-width: 0.75px"/>
    <polyline points="20.15 61.45 20.15 71.44 36.82 71.44" style="fill: none;stroke: #0b5597;stroke-linecap: round;stroke-linejoin: round;stroke-width: 0.75px"/>
    <rect height="37.75" rx="9.55" ry="9.55" style="fill: #1a2c80" width="37.28" x="10.97" y="13.13"/>
    <rect height="36.25" rx="8.92" ry="8.92" style="fill: none;stroke: #fff;stroke-miterlimit: 10;stroke-width: 0.5px" width="36.25" x="11.61" y="13.71"/>
    <g>
      <path d="M15.23,58.13c0-.12.09-.23.24-.23s.2.11.23.23l.88,3.09c0,.11-.09.23-.22.23s-.21-.12-.24-.23L16,60.67H15l-.18.55c0,.11-.1.23-.24.23s-.25-.12-.22-.23Zm.24.85h0l-.35,1.24h.71Z" style="fill: #fff"/>
      <path d="M18.08,58.36v.16c0,.15-.06.23-.22.23s-.23-.08-.23-.23V57.9h2.25v.62c0,.15-.06.23-.23.23s-.22-.08-.22-.23v-.16H19v2.86c0,.15-.06.23-.22.23s-.23-.08-.23-.23V58.36Z" style="fill: #fff"/>
      <path d="M22.49,59.83V58.52a.21.21,0,0,1,.23-.23.2.2,0,0,1,.22.23v1.31a.21.21,0,0,1,.23.23.21.21,0,0,1-.23.23v.93c0,.15-.06.23-.22.23s-.23-.08-.23-.23v-.93H21.15V58.13a.2.2,0,0,1,.22-.23.21.21,0,0,1,.23.23v1.7Z" style="fill: #fff"/>
      <path d="M24.66,61h1.57a.21.21,0,0,1,.23.23.21.21,0,0,1-.23.23h-2V60a.45.45,0,0,1,.51-.51H26V58.36H24.44a.21.21,0,0,1-.23-.23.21.21,0,0,1,.23-.23H26a.47.47,0,0,1,.37.13.47.47,0,0,1,.14.4v.94a.46.46,0,0,1-.14.4.47.47,0,0,1-.37.13H24.66Z" style="fill: #fff"/>
      <path d="M28.76,61l-.3.26a.56.56,0,0,1-.41.16.53.53,0,0,1-.4-.17.59.59,0,0,1-.15-.45v-1.2a.91.91,0,0,1,.36-.75l.93-.79a.55.55,0,0,1,1,.4V59.7a.92.92,0,0,1-.36.79l-.27.23.11.27h.27a.23.23,0,0,1,.25.23c0,.19-.14.23-.3.23h-.53Zm.19-.76.1-.08a.51.51,0,0,0,.24-.52V58.54c0-.07,0-.18-.09-.18s-.08,0-.12.07l-.92.8a.45.45,0,0,0-.21.42v1.18c0,.08,0,.16.1.16a.21.21,0,0,0,.14-.07l.39-.34-.12-.3a.83.83,0,0,1-.06-.21.22.22,0,0,1,.23-.22c.18,0,.2.15.26.29Z" style="fill: #fff"/>
      <path d="M31.24,58.36v.16c0,.15-.06.23-.23.23s-.22-.08-.22-.23V57.9H33v.62c0,.15-.06.23-.23.23a.2.2,0,0,1-.23-.23v-.16h-.44v2.86c0,.15-.06.23-.23.23a.2.2,0,0,1-.23-.23V58.36Z" style="fill: #fff"/>
      <path d="M35.87,61v-.92a.23.23,0,0,1,.46,0v1.15a.21.21,0,0,1-.23.23H34.3a.2.2,0,0,1-.22-.23A.21.21,0,0,1,34.3,61H35V58.36H34.3a.21.21,0,0,1-.22-.23.2.2,0,0,1,.22-.23h1.13V61Z" style="fill: #fff"/>
      <path d="M39.16,57.9a.47.47,0,0,1,.46.46V61a.45.45,0,0,1-.46.46H37.82a.45.45,0,0,1-.46-.46V58.36a.47.47,0,0,1,.46-.46Zm0,3.09V58.36H37.82V61Z" style="fill: #fff"/>
      <path d="M42.45,61v-.92a.23.23,0,0,1,.46,0v1.15a.21.21,0,0,1-.23.23h-1.8a.21.21,0,0,1-.23-.23.21.21,0,0,1,.23-.23h.67V58.36h-.67a.21.21,0,0,1-.23-.23.21.21,0,0,1,.23-.23H42V61Z" style="fill: #fff"/>
      <path d="M44.4,61H46a.21.21,0,0,1,.23.23.21.21,0,0,1-.23.23h-2V60a.46.46,0,0,1,.52-.51h1.28V58.36H44.17a.21.21,0,0,1-.23-.23.21.21,0,0,1,.23-.23h1.52a.47.47,0,0,1,.37.13.5.5,0,0,1,.14.4v.94a.49.49,0,0,1-.14.4.47.47,0,0,1-.37.13H44.4Z" style="fill: #fff"/>
    </g>
    <g>
      <path d="M15.74,72.92a.18.18,0,0,1-.19.2.18.18,0,0,1-.2-.2v-.77h.78a.59.59,0,0,1,.62.63v.68a.62.62,0,0,1-.16.45.57.57,0,0,1-.49.19h-1a.79.79,0,0,1-.57-.21l-.6-.46a.62.62,0,0,1-.27-.56v-.53a.2.2,0,0,1,.4,0v.48c0,.22,0,.2.16.33l.55.43a.75.75,0,0,0,.51.12h.78c.21,0,.28,0,.28-.27V72.8c0-.14,0-.26-.2-.26h-.41Z" style="fill: #fff"/>
      <path d="M13.87,69.7c-.12,0-.19-.06-.19-.2s.07-.2.19-.2h2.88v.52l-2.37,1h2.17a.2.2,0,0,1,0,.4H13.67v-.52l2.4-1h-2.2Z" style="fill: #fff"/>
      <path d="M14.07,68v.14c0,.13-.05.25-.2.25s-.2-.11-.2-.23v-.66a.59.59,0,0,1,.4-.6l.69-.35a.93.93,0,0,1,.46-.12,1,1,0,0,1,.44.12l.71.36a.59.59,0,0,1,.38.62v.66a.2.2,0,0,1-.4,0V68Zm2.28-.4v-.07c0-.17,0-.21-.16-.28l-.71-.35a.59.59,0,0,0-.26-.07.63.63,0,0,0-.32.1l-.67.32c-.17.09-.16.12-.16.3v0Z" style="fill: #fff"/>
    </g>
    <g>
      <path d="M22.06,72.46a.84.84,0,0,1,.44-.1,1,1,0,0,1,.47.13l.73.36a.52.52,0,0,1,0,1l-.73.37a1,1,0,0,1-.47.13.85.85,0,0,1-.44-.11l-.79-.39a.52.52,0,0,1,0-1Zm-.6.74c-.06,0-.12,0-.12.13s.06.1.12.14l.72.35a.59.59,0,0,0,.32.09.48.48,0,0,0,.26-.07l.75-.37s.12-.06.12-.14-.07-.11-.12-.13l-.75-.38a.48.48,0,0,0-.26-.07.59.59,0,0,0-.32.09Z" style="fill: #fff"/>
      <path d="M24,70.83a.59.59,0,0,1-.2.49.62.62,0,0,1-.47.15h-2.2a.2.2,0,1,1,0-.4h2.2c.22,0,.28-.07.28-.24v-.68c0-.17-.06-.24-.28-.24h-2.2a.2.2,0,1,1,0-.4h2.2a.62.62,0,0,1,.47.15.59.59,0,0,1,.2.49Z" style="fill: #fff"/>
      <path d="M21.34,68.23h.15c.12,0,.19,0,.19.2s-.07.19-.19.19H21v-2h.54c.12,0,.19.06.19.2s-.07.2-.19.2h-.15v.38h2.49c.12,0,.19,0,.19.2s-.07.19-.19.19H21.34Z" style="fill: #fff"/>
    </g>
    <g>
      <path d="M36.69,72.85h-.63c-.13,0-.2,0-.2-.19s.07-.2.2-.2h.62a.44.44,0,0,1,.16,0l1.92.76c.1,0,.17.07.17.2s-.07.15-.17.19l-1.92.76a.44.44,0,0,1-.16,0h-.62c-.13,0-.2,0-.2-.2s.07-.19.2-.19h.63l1.51-.58Z" style="fill: #fff"/>
      <path d="M36.25,71.18v.15c0,.13,0,.24-.19.24s-.2-.11-.2-.23v-.66a.61.61,0,0,1,.39-.6l.7-.34a.93.93,0,0,1,.46-.12.92.92,0,0,1,.43.11l.72.36a.6.6,0,0,1,.37.63v.65a.18.18,0,0,1-.19.2.18.18,0,0,1-.2-.2v-.19Zm2.29-.39v-.08c0-.16,0-.2-.17-.27l-.7-.35a.5.5,0,0,0-.26-.08.71.71,0,0,0-.32.1l-.67.33c-.17.08-.17.12-.17.3v.05Z" style="fill: #fff"/>
      <path d="M36.25,68.34v.15c0,.13,0,.24-.19.24s-.2-.11-.2-.23v-.66a.61.61,0,0,1,.39-.6l.7-.35a1,1,0,0,1,.46-.11.92.92,0,0,1,.43.11l.72.36a.6.6,0,0,1,.37.63v.65a.18.18,0,0,1-.19.2.18.18,0,0,1-.2-.2v-.19ZM38.54,68v-.08c0-.16,0-.2-.17-.28l-.7-.34a.5.5,0,0,0-.26-.08.6.6,0,0,0-.32.1l-.67.33c-.17.08-.17.12-.17.3v0Z" style="fill: #fff"/>
    </g>
    <g>
      <path d="M28.54,73.91h.14c.13,0,.2,0,.2.17s-.07.17-.2.17h-.54V72.53h.54c.13,0,.2,0,.2.17s-.07.18-.2.18h-.14v.34H31c.13,0,.2,0,.2.17s-.07.18-.2.18H28.54Z" style="fill: #fff"/>
      <path d="M30.82,70.7v-.51a.2.2,0,0,1,.4,0v1.37a.2.2,0,0,1-.4,0v-.51H28.54v.51a.2.2,0,0,1-.4,0V70.19a.2.2,0,0,1,.4,0v.51Z" style="fill: #fff"/>
      <path d="M28.14,67.93v-.44H31c.13,0,.2.05.2.18s-.07.17-.2.17H28.69l.55.33h.07c.12,0,.23,0,.23.18s-.11.17-.23.17h-.07l-.55.33H31c.13,0,.2,0,.2.18s-.07.17-.2.17H28.14v-.44l.7-.42Z" style="fill: #fff"/>
      <path d="M30.82,65.15c0-.09.06-.17.2-.17s.2.08.2.17V66.7H28.14V65.15c0-.09.06-.17.2-.17s.2.08.2.17v1.2h.94v-.51c0-.09.06-.17.2-.17s.2.08.2.17v.51h.94Z" style="fill: #fff"/>
    </g>
    <g>
      <path d="M45,72.39a.17.17,0,0,1,.19-.18.17.17,0,0,1,.2.18V74H42.47c-.12,0-.19,0-.19-.18s.07-.18.19-.18H45Z" style="fill: #fff"/>
      <path d="M45,69.75a.17.17,0,0,1,.19-.18c.15,0,.2.08.2.18v1.63H42.28V69.75a.17.17,0,0,1,.19-.18c.15,0,.2.08.2.18V71h.95v-.54a.17.17,0,0,1,.19-.18.17.17,0,0,1,.2.18V71h1Z" style="fill: #fff"/>
      <path d="M42.67,68.38v.14c0,.12-.05.22-.2.22s-.19-.1-.19-.21v-.62a.54.54,0,0,1,.39-.55l.7-.33a1,1,0,0,1,.46-.11,1,1,0,0,1,.43.11l.72.33a.56.56,0,0,1,.37.59v.61a.17.17,0,0,1-.2.18.17.17,0,0,1-.19-.18v-.18ZM45,68v-.07c0-.15,0-.19-.17-.26l-.7-.32a.59.59,0,0,0-.26-.07.7.7,0,0,0-.32.09l-.67.31c-.17.08-.17.11-.17.28v0Z" style="fill: #fff"/>
      <path d="M42.48,65.38c-.11,0-.2-.07-.2-.19s.09-.17.2-.19l2.67-.71a.17.17,0,0,1,.2.17c0,.12-.1.18-.2.2l-.47.14v.78l.47.14c.1,0,.2.09.2.2a.18.18,0,0,1-.2.18Zm.73-.19h0l1.07.29V64.9Z" style="fill: #fff"/>
    </g>
    <g>
      <path d="M28.83,4l-.2,0a2.08,2.08,0,0,0-.5,0A.26.26,0,0,1,28,3.9a.22.22,0,0,1,0-.27,2.81,2.81,0,0,0-1.09,1.83l1.57.06L28.9,5Z" style="fill: #878d9b"/>
      <path d="M28.18,6.06,26.92,6a2.67,2.67,0,0,0,.27,1.11,2.53,2.53,0,0,0,.72.89V7.4A.14.14,0,0,1,28,7.29l.06,0h.29V6.18a.13.13,0,0,0,0-.06Z" style="fill: #878d9b"/>
      <path d="M28.59,8.47a2.6,2.6,0,0,0,2.37,0V7.58H28.55Z" style="fill: #878d9b"/>
      <path d="M31.31,6a.21.21,0,0,0-.08.07s0,.06,0,.07l0,1.08.3,0a.09.09,0,0,1,.07,0,.15.15,0,0,1,0,.09l0,.6.05,0a2.63,2.63,0,0,0,.76-1.07A2.41,2.41,0,0,0,32.54,6Z" style="fill: #878d9b"/>
      <path d="M32.27,4.48a2.6,2.6,0,0,0-.7-.85v.24L31.45,4H30.8l-.16.17v1l.37.38h1.53A2.36,2.36,0,0,0,32.27,4.48Z" style="fill: #878d9b"/>
      <path d="M28.92,3.44a.51.51,0,0,1,.35.2l.05.1v2a.14.14,0,0,1-.06.12l-.08,0h-.42v1.2a.13.13,0,0,0,0,.07.22.22,0,0,0,.06.07H30.6a.13.13,0,0,0,.08,0,.18.18,0,0,0,.08-.14V5.9h-.45a.16.16,0,0,1-.09,0,.17.17,0,0,1,0-.1v-2a.3.3,0,0,1,.06-.18.31.31,0,0,1,.15-.09l.26-.08,0-.26A2.49,2.49,0,0,0,30,3a2.63,2.63,0,0,0-1,.1.22.22,0,0,0-.08.2A.19.19,0,0,0,28.92,3.44Z" style="fill: #878d9b"/>
      <circle cx="31.28" cy="4.93" r="0.4" style="fill: #d8d8d5"/>
      <circle cx="28.31" cy="5.02" r="0.4" style="fill: #d8d8d5"/>
      <circle cx="29.72" cy="6.74" r="0.4" style="fill: #d8d8d5"/>
      <rect height="0.45" style="fill: #743d3b;stroke: #000100;stroke-miterlimit: 10;stroke-width: 0.05589591247403857px" width="0.39" x="29.48" y="6.49"/>
      <path d="M29.76,2.26a3.58,3.58,0,1,0,3.57,3.58A3.58,3.58,0,0,0,29.76,2.26Zm-.82.87A2.63,2.63,0,0,1,30,3a2.49,2.49,0,0,1,.72.16l0,.26-.26.08a.31.31,0,0,0-.15.09.3.3,0,0,0-.06.18v2a.17.17,0,0,0,0,.1.16.16,0,0,0,.09,0h.45V7.06a.18.18,0,0,1-.08.14.13.13,0,0,1-.08,0H28.86a.22.22,0,0,1-.06-.07.13.13,0,0,1,0-.07V5.88h.42l.08,0a.14.14,0,0,0,.06-.12v-2l-.05-.1a.51.51,0,0,0-.35-.2.19.19,0,0,1-.06-.11A.22.22,0,0,1,28.94,3.13ZM28.31,7.2v0H28l-.06,0a.14.14,0,0,0-.05.11V8a2.53,2.53,0,0,1-.72-.89A2.67,2.67,0,0,1,26.92,6l1.26,0,.08.06a.13.13,0,0,1,0,.06ZM26.92,5.46A2.81,2.81,0,0,1,28,3.63a.22.22,0,0,0,0,.27.26.26,0,0,0,.12.09,2.08,2.08,0,0,1,.5,0l.2,0,.07,1-.41.52Zm4,3a2.6,2.6,0,0,1-2.37,0l0-.89H31Zm-.32-3.33v-1L30.8,4h.65l.12-.12V3.63a2.6,2.6,0,0,1,.7.85,2.36,2.36,0,0,1,.27,1H31Zm1.75,1.83A2.63,2.63,0,0,1,31.63,8l-.05,0,0-.6a.15.15,0,0,0,0-.09.09.09,0,0,0-.07,0l-.3,0,0-1.08s0,0,0-.07A.21.21,0,0,1,31.31,6l1.23,0A2.41,2.41,0,0,1,32.39,6.94Z" style="fill: #c8c6c0"/>
      <circle cx="28.15" cy="4.86" r="0.1" style="fill: #000100"/>
      <circle cx="28.39" cy="5.18" r="0.1" style="fill: #000100"/>
      <circle cx="31.14" cy="4.8" r="0.1" style="fill: #000100"/>
      <circle cx="31.4" cy="5.13" r="0.1" style="fill: #000100"/>
      <circle cx="27.82" cy="4.17" r="0.08" style="fill: #beb18c"/>
      <circle cx="28.15" cy="4.86" r="0.07" style="fill: #beb18c"/>
      <circle cx="28.39" cy="5.18" r="0.07" style="fill: #beb18c"/>
      <circle cx="28.08" cy="6.34" r="0.07" style="fill: #beb18c"/>
      <circle cx="29.83" cy="7.83" r="0.07" style="fill: #beb18c"/>
      <circle cx="29.65" cy="6.71" r="0.07" style="fill: #beb18c"/>
      <circle cx="31.44" cy="6.34" r="0.07" style="fill: #beb18c"/>
      <circle cx="31.14" cy="4.8" r="0.07" style="fill: #beb18c"/>
      <circle cx="31.4" cy="5.13" r="0.07" style="fill: #beb18c"/>
      <circle cx="31.72" cy="4.17" r="0.07" style="fill: #beb18c"/>
      <line style="fill: none;stroke: #beb18c;stroke-miterlimit: 10;stroke-width: 0.0253512160687446px" x1="27.83" x2="28.18" y1="4.2" y2="4.81"/>
      <polyline points="28.38 5.2 28.25 5.42 28.11 6.32" style="fill: none;stroke: #beb18c;stroke-miterlimit: 10;stroke-width: 0.0253512160687446px"/>
      <line style="fill: none;stroke: #beb18c;stroke-miterlimit: 10;stroke-width: 0.0253512160687446px" x1="29.66" x2="29.84" y1="6.74" y2="7.82"/>
      <line style="fill: none;stroke: #beb18c;stroke-miterlimit: 10;stroke-width: 0.016795180905829103px" x1="29.65" x2="29.52" y1="6.71" y2="6.83"/>
      <line style="fill: none;stroke: #beb18c;stroke-miterlimit: 10;stroke-width: 0.016795180905829103px" x1="29.68" x2="29.79" y1="6.7" y2="6.58"/>
      <polyline points="29.66 6.71 29.8 6.84 29.53 6.57" style="fill: none;stroke: #beb18c;stroke-miterlimit: 10;stroke-width: 0.016795180905829103px"/>
      <polyline points="31.42 5.14 31.45 6.32 31.4 5.12" style="fill: none;stroke: #beb18c;stroke-miterlimit: 10;stroke-width: 0.0253512160687446px"/>
      <line style="fill: none;stroke: #beb18c;stroke-miterlimit: 10;stroke-width: 0.0253512160687446px" x1="31.71" x2="31.11" y1="4.17" y2="4.79"/>
    </g>
  </g>
  <g id="Connectors">
    <ellipse cx="36.33" cy="78.8" data-cir-type="male" id="circuitoCon_VDD" rx="2.05" ry="1.99" style="fill: none;stroke: #e5e3dd;stroke-miterlimit: 10;stroke-width: 1.224px"/>
    <ellipse cx="44.09" cy="78.83" data-cir-type="male" id="circuitoCon_LEDA" rx="2.05" ry="1.99" style="fill: none;stroke: #e5e3dd;stroke-miterlimit: 10;stroke-width: 1.224px"/>
    <ellipse cx="21.94" cy="78.8" data-cir-type="male" id="circuitoCon_OUT" rx="2.05" ry="1.99" style="fill: none;stroke: #e5e3dd;stroke-miterlimit: 10;stroke-width: 1.224px"/>
    <ellipse cx="14.7" cy="78.8" data-cir-type="male" id="circuitoCon_GND" rx="2.05" ry="1.99" style="fill: none;stroke: #e5e3dd;stroke-miterlimit: 10;stroke-width: 1.224px"/>
    <ellipse cx="29.14" cy="78.8" id="circuitoCon_TIME" rx="2.05" ry="1.99" style="fill: none;stroke: #e5e3dd;stroke-miterlimit: 10;stroke-width: 1.224px"/>
  </g>
</svg>