<?xml version="1.0" ?><svg height="19.03mm" viewBox="0 0 34.57 53.94" width="12.2mm" xmlns="http://www.w3.org/2000/svg" xmlns:xlink="http://www.w3.org/1999/xlink">
  <defs>
    <linearGradient data-name="Silver 2" gradientUnits="userSpaceOnUse" id="Silver_2" x1="5.11" x2="7.68" y1="48.41" y2="48.41">
      <stop offset="0" stop-color="#cbd0d5"/>
      <stop offset="0.21" stop-color="#b9bfc4"/>
      <stop offset="0.43" stop-color="#a9b1b5"/>
      <stop offset="0.52" stop-color="#b6bec2"/>
      <stop offset="0.84" stop-color="#e2e9ed"/>
      <stop offset="1" stop-color="#f3fafd"/>
    </linearGradient>
    <linearGradient id="Silver_2-2" x1="12.41" x2="14.88" xlink:href="#Silver_2" y1="48.41" y2="48.41"/>
    <linearGradient id="Silver_2-3" x1="19.69" x2="22.08" xlink:href="#Silver_2" y1="48.41" y2="48.41"/>
    <linearGradient id="Silver_2-4" x1="26.89" x2="29.29" xlink:href="#Silver_2" y1="48.41" y2="48.41"/>
  </defs>
  <title>AM2320 Sensor</title>
  <g data-name="Layer 2" id="Layer_2">
    <rect height="42.88" style="fill: #333" width="34.57" y="0.01"/>
    <g>
      <g>
        <rect height="3.69" style="fill: none;stroke: #000;stroke-miterlimit: 10;stroke-width: 0.0575247983525181px" width="3.44" x="30.84" y="34.19"/>
        <path d="M30.84,34.19s0-.32-.29-.29v4.28l.29-.3Z" style="fill: #4d4c4d"/>
        <path d="M34.28,34.19s0-.32.29-.29v4.28l-.29-.3Z" style="fill: #4d4c4d"/>
        <polyline points="30.55 38.17 34.57 38.17 34.28 37.88 30.84 37.88" style="fill: #3a3a3a"/>
      </g>
      <path d="M30.55,33.9h4s-.2-.07-.29.29H30.84S30.84,33.88,30.55,33.9Z" style="fill: #3a3a3a"/>
    </g>
    <g>
      <g>
        <rect height="3.69" style="fill: none;stroke: #000;stroke-miterlimit: 10;stroke-width: 0.0575247983525181px" width="3.44" x="0.29" y="5.03"/>
        <path d="M.29,5s0-.32-.29-.29V9l.29-.3Z" style="fill: #4d4c4d"/>
        <path d="M3.73,5s0-.32.29-.29V9l-.29-.3Z" style="fill: #4d4c4d"/>
        <polyline points="0 9.02 4.03 9.02 3.73 8.72 0.29 8.72" style="fill: #3a3a3a"/>
      </g>
      <path d="M0,4.74H4s-.19-.06-.29.29H.29S.29,4.72,0,4.74Z" style="fill: #3a3a3a"/>
    </g>
    <g>
      <g>
        <rect height="3.69" style="fill: none;stroke: #000;stroke-miterlimit: 10;stroke-width: 0.0575247983525181px" width="3.44" x="30.84" y="5.03"/>
        <path d="M30.84,5s0-.32-.29-.29V9l.29-.3Z" style="fill: #4d4c4d"/>
        <path d="M34.28,5s0-.32.29-.29V9l-.29-.3Z" style="fill: #4d4c4d"/>
        <polyline points="30.55 9.02 34.57 9.02 34.28 8.72 30.84 8.72" style="fill: #3a3a3a"/>
      </g>
      <path d="M30.55,4.74h4s-.2-.06-.29.29H30.84S30.84,4.72,30.55,4.74Z" style="fill: #3a3a3a"/>
    </g>
    <g>
      <g>
        <rect height="3.43" style="fill: none;stroke: #000;stroke-miterlimit: 10;stroke-width: 0.05548398865392396px" width="3.44" x="15.57" y="0.27"/>
        <path d="M15.57.27s0-.29-.3-.27V4l.3-.28Z" style="fill: #4d4c4d"/>
        <path d="M19,.27S19,0,19.3,0V4L19,3.71Z" style="fill: #4d4c4d"/>
        <polyline points="15.28 3.98 19.3 3.98 19 3.71 15.57 3.71" style="fill: #3a3a3a"/>
      </g>
      <path d="M15.27,0h4s-.2,0-.3.27H15.57A.28.28,0,0,0,15.27,0Z" style="fill: #3a3a3a"/>
    </g>
    <g>
      <g>
        <rect height="3.69" style="fill: none;stroke: #000;stroke-miterlimit: 10;stroke-width: 0.0575247983525181px" width="3.44" x="0.29" y="34.18"/>
        <path d="M.29,34.18s0-.31-.29-.29v4.28l.29-.3Z" style="fill: #4d4c4d"/>
        <path d="M3.73,34.18s0-.31.29-.29v4.28l-.29-.3Z" style="fill: #4d4c4d"/>
        <polyline points="0 38.17 4.03 38.17 3.73 37.87 0.29 37.87" style="fill: #3a3a3a"/>
      </g>
      <path d="M0,33.89H4s-.19-.06-.29.29H.29A.28.28,0,0,0,0,33.89Z" style="fill: #3a3a3a"/>
    </g>
    <g>
      <rect height="4.03" style="fill: #242323" width="4.03" x="8.32" y="8.45"/>
      <rect height="4.03" style="fill: #242323" width="4.03" x="15.27" y="8.45"/>
      <rect height="4.03" style="fill: #242323" width="4.03" x="22.22" y="8.45"/>
      <rect height="4.03" style="fill: #242323" width="4.03" x="25.73" y="14.62"/>
      <rect height="4.03" style="fill: #242323" width="4.03" x="18.74" y="14.62"/>
      <rect height="4.03" style="fill: #242323" width="4.03" x="11.83" y="14.62"/>
      <rect height="4.03" style="fill: #242323" width="4.03" x="4.81" y="14.62"/>
      <rect height="4.03" style="fill: #242323" width="4.03" x="25.73" y="20.8"/>
      <rect height="4.03" style="fill: #242323" width="4.03" x="18.75" y="20.8"/>
      <rect height="4.03" style="fill: #242323" width="4.03" x="11.83" y="20.8"/>
      <rect height="4.03" style="fill: #242323" width="4.03" x="4.82" y="20.8"/>
      <rect height="4.03" style="fill: #242323" width="4.03" x="25.73" y="26.97"/>
      <rect height="4.03" style="fill: #242323" width="4.03" x="18.75" y="26.97"/>
      <rect height="4.03" style="fill: #242323" width="4.03" x="11.83" y="26.97"/>
      <rect height="4.03" style="fill: #242323" width="4.03" x="4.82" y="26.97"/>
    </g>
    <rect height="11.05" style="fill: url(#Silver_2)" width="2.57" x="5.11" y="42.89"/>
    <rect height="11.05" style="fill: url(#Silver_2-2)" width="2.47" x="12.41" y="42.89"/>
    <rect height="11.05" style="fill: url(#Silver_2-3)" width="2.39" x="19.69" y="42.89"/>
    <rect height="11.05" style="fill: url(#Silver_2-4)" width="2.4" x="26.89" y="42.89"/>
    <rect height="3.67" style="fill: #242323" width="3.43" x="30.84" y="5.04"/>
    <rect height="3.67" style="fill: #242323" width="3.43" x="30.84" y="34.2"/>
    <rect height="3.67" style="fill: #242323" width="3.43" x="0.29" y="34.19"/>
    <rect height="3.67" style="fill: #242323" width="3.43" x="0.29" y="5.04"/>
    <rect height="3.67" style="fill: #242323" width="3.43" x="15.57" y="0.01"/>
    <g>
      <g>
        <rect height="3.69" style="fill: none;stroke: #000;stroke-miterlimit: 10;stroke-width: 0.0575247983525181px" width="3.44" x="26.02" y="27.14"/>
        <path d="M26,27.14s0-.32-.29-.29v4.28l.29-.3Z" style="fill: #4d4c4d"/>
        <path d="M29.46,27.14s0-.32.29-.29v4.28l-.29-.3Z" style="fill: #4d4c4d"/>
        <polyline points="25.73 31.13 29.75 31.13 29.46 30.83 26.02 30.83" style="fill: #3a3a3a"/>
      </g>
      <path d="M25.73,26.85h4s-.19-.07-.29.29H26S26,26.83,25.73,26.85Z" style="fill: #3a3a3a"/>
    </g>
    <g>
      <g>
        <rect height="3.69" style="fill: none;stroke: #000;stroke-miterlimit: 10;stroke-width: 0.0575247983525181px" width="3.44" x="19.04" y="27.13"/>
        <path d="M19,27.13s0-.31-.29-.29v4.28l.29-.3Z" style="fill: #4d4c4d"/>
        <path d="M22.48,27.13s0-.31.29-.29v4.28l-.29-.3Z" style="fill: #4d4c4d"/>
        <polyline points="18.75 31.12 22.77 31.12 22.48 30.82 19.04 30.82" style="fill: #3a3a3a"/>
      </g>
      <path d="M18.75,26.84h4s-.2-.06-.29.29H19A.28.28,0,0,0,18.75,26.84Z" style="fill: #3a3a3a"/>
    </g>
    <g>
      <g>
        <rect height="3.69" style="fill: none;stroke: #000;stroke-miterlimit: 10;stroke-width: 0.0575247983525181px" width="3.44" x="12.13" y="27.14"/>
        <path d="M12.13,27.14s0-.32-.29-.29v4.28l.29-.3Z" style="fill: #4d4c4d"/>
        <path d="M15.57,27.14s0-.32.29-.29v4.28l-.29-.3Z" style="fill: #4d4c4d"/>
        <polyline points="11.84 31.13 15.86 31.13 15.56 30.83 12.13 30.83" style="fill: #3a3a3a"/>
      </g>
      <path d="M11.84,26.85h4s-.2-.07-.29.29H12.13S12.12,26.83,11.84,26.85Z" style="fill: #3a3a3a"/>
    </g>
    <g>
      <g>
        <rect height="3.69" style="fill: none;stroke: #000;stroke-miterlimit: 10;stroke-width: 0.0575247983525181px" width="3.44" x="5.11" y="27.13"/>
        <path d="M5.11,27.13s0-.32-.29-.29v4.28l.29-.3Z" style="fill: #4d4c4d"/>
        <path d="M8.55,27.13s0-.32.29-.29v4.28l-.29-.3Z" style="fill: #4d4c4d"/>
        <polyline points="4.82 31.12 8.84 31.12 8.55 30.82 5.11 30.82" style="fill: #3a3a3a"/>
      </g>
      <path d="M4.82,26.84h4s-.2-.06-.29.29H5.11S5.11,26.82,4.82,26.84Z" style="fill: #3a3a3a"/>
    </g>
    <g>
      <g>
        <rect height="3.69" style="fill: none;stroke: #000;stroke-miterlimit: 10;stroke-width: 0.0575247983525181px" width="3.44" x="26.02" y="20.97"/>
        <path d="M26,21s0-.32-.29-.29V25l.29-.3Z" style="fill: #4d4c4d"/>
        <path d="M29.46,21s0-.32.29-.29V25l-.29-.3Z" style="fill: #4d4c4d"/>
        <polyline points="25.73 24.96 29.75 24.96 29.46 24.66 26.02 24.66" style="fill: #3a3a3a"/>
      </g>
      <path d="M25.73,20.68h4s-.19-.07-.29.29H26S26,20.66,25.73,20.68Z" style="fill: #3a3a3a"/>
    </g>
    <g>
      <g>
        <rect height="3.69" style="fill: none;stroke: #000;stroke-miterlimit: 10;stroke-width: 0.0575247983525181px" width="3.44" x="19.04" y="20.96"/>
        <path d="M19,21s0-.31-.29-.29V25l.29-.3Z" style="fill: #4d4c4d"/>
        <path d="M22.48,21s0-.31.29-.29V25l-.29-.3Z" style="fill: #4d4c4d"/>
        <polyline points="18.75 24.95 22.77 24.95 22.48 24.66 19.04 24.66" style="fill: #3a3a3a"/>
      </g>
      <path d="M18.75,20.67h4s-.2-.06-.29.29H19A.28.28,0,0,0,18.75,20.67Z" style="fill: #3a3a3a"/>
    </g>
    <g>
      <g>
        <rect height="3.69" style="fill: none;stroke: #000;stroke-miterlimit: 10;stroke-width: 0.0575247983525181px" width="3.44" x="12.13" y="20.97"/>
        <path d="M12.13,21s0-.32-.29-.29V25l.29-.3Z" style="fill: #4d4c4d"/>
        <path d="M15.57,21s0-.32.29-.29V25l-.29-.3Z" style="fill: #4d4c4d"/>
        <polyline points="11.84 24.96 15.86 24.96 15.57 24.66 12.13 24.66" style="fill: #3a3a3a"/>
      </g>
      <path d="M11.84,20.68h4s-.2-.07-.29.29H12.13S12.12,20.66,11.84,20.68Z" style="fill: #3a3a3a"/>
    </g>
    <g>
      <g>
        <rect height="3.69" style="fill: none;stroke: #000;stroke-miterlimit: 10;stroke-width: 0.0575247983525181px" width="3.44" x="22.51" y="8.61"/>
        <path d="M22.51,8.61s0-.31-.29-.29V12.6l.29-.3Z" style="fill: #4d4c4d"/>
        <path d="M26,8.61s0-.31.29-.29V12.6L26,12.3Z" style="fill: #4d4c4d"/>
        <polyline points="22.22 12.6 26.24 12.6 25.95 12.3 22.51 12.3" style="fill: #3a3a3a"/>
      </g>
      <path d="M22.22,8.32h4s-.19-.06-.29.29H22.51S22.51,8.3,22.22,8.32Z" style="fill: #3a3a3a"/>
    </g>
    <g>
      <g>
        <rect height="3.69" style="fill: none;stroke: #000;stroke-miterlimit: 10;stroke-width: 0.0575247983525181px" width="3.44" x="15.53" y="8.61"/>
        <path d="M15.53,8.61s0-.32-.29-.29V12.6l.29-.3Z" style="fill: #4d4c4d"/>
        <path d="M19,8.61s0-.32.29-.29V12.6L19,12.3Z" style="fill: #4d4c4d"/>
        <polyline points="15.24 12.6 19.26 12.6 18.97 12.3 15.53 12.3" style="fill: #3a3a3a"/>
      </g>
      <path d="M15.24,8.32h4s-.2-.06-.29.29H15.53S15.53,8.3,15.24,8.32Z" style="fill: #3a3a3a"/>
    </g>
    <g>
      <g>
        <rect height="3.69" style="fill: none;stroke: #000;stroke-miterlimit: 10;stroke-width: 0.0575247983525181px" width="3.44" x="8.62" y="8.61"/>
        <path d="M8.62,8.61s0-.31-.29-.29V12.6l.29-.3Z" style="fill: #4d4c4d"/>
        <path d="M12.06,8.61s0-.31.29-.29V12.6l-.29-.3Z" style="fill: #4d4c4d"/>
        <polyline points="8.33 12.6 12.35 12.6 12.06 12.3 8.62 12.3" style="fill: #3a3a3a"/>
      </g>
      <path d="M8.33,8.32h4s-.2-.06-.29.29H8.62S8.61,8.31,8.33,8.32Z" style="fill: #3a3a3a"/>
    </g>
    <g>
      <g>
        <rect height="3.69" style="fill: none;stroke: #000;stroke-miterlimit: 10;stroke-width: 0.0575247983525181px" width="3.44" x="5.11" y="20.96"/>
        <path d="M5.11,21s0-.32-.29-.29V25l.29-.3Z" style="fill: #4d4c4d"/>
        <path d="M8.55,21s0-.32.29-.29V25l-.29-.3Z" style="fill: #4d4c4d"/>
        <polyline points="4.82 24.95 8.84 24.95 8.55 24.65 5.11 24.65" style="fill: #3a3a3a"/>
      </g>
      <path d="M4.82,20.67h4s-.2-.06-.29.29H5.11S5.11,20.65,4.82,20.67Z" style="fill: #3a3a3a"/>
    </g>
    <g>
      <g>
        <rect height="3.69" style="fill: none;stroke: #000;stroke-miterlimit: 10;stroke-width: 0.0575247983525181px" width="3.44" x="26.02" y="14.79"/>
        <path d="M26,14.79s0-.31-.29-.29v4.28l.29-.3Z" style="fill: #4d4c4d"/>
        <path d="M29.46,14.79s0-.31.29-.29v4.28l-.29-.3Z" style="fill: #4d4c4d"/>
        <polyline points="25.73 18.78 29.75 18.78 29.46 18.48 26.02 18.48" style="fill: #3a3a3a"/>
      </g>
      <path d="M25.73,14.5h4s-.19-.06-.29.29H26A.28.28,0,0,0,25.73,14.5Z" style="fill: #3a3a3a"/>
    </g>
    <g>
      <g>
        <rect height="3.69" style="fill: none;stroke: #000;stroke-miterlimit: 10;stroke-width: 0.0575247983525181px" width="3.44" x="19.04" y="14.79"/>
        <path d="M19,14.79s0-.32-.29-.29v4.28l.29-.3Z" style="fill: #4d4c4d"/>
        <path d="M22.48,14.79s0-.32.29-.29v4.28l-.29-.3Z" style="fill: #4d4c4d"/>
        <polyline points="18.75 18.78 22.77 18.78 22.48 18.48 19.04 18.48" style="fill: #3a3a3a"/>
      </g>
      <path d="M18.75,14.5h4s-.2-.06-.29.29H19S19,14.48,18.75,14.5Z" style="fill: #3a3a3a"/>
    </g>
    <g>
      <g>
        <rect height="3.69" style="fill: none;stroke: #000;stroke-miterlimit: 10;stroke-width: 0.0575247983525181px" width="3.44" x="12.13" y="14.79"/>
        <path d="M12.13,14.79s0-.31-.29-.29v4.28l.29-.29Z" style="fill: #4d4c4d"/>
        <path d="M15.57,14.79s0-.31.29-.29v4.28l-.29-.29Z" style="fill: #4d4c4d"/>
        <polyline points="11.84 18.78 15.86 18.78 15.57 18.49 12.13 18.49" style="fill: #3a3a3a"/>
      </g>
      <path d="M11.84,14.5h4s-.2-.06-.29.29H12.13S12.12,14.49,11.84,14.5Z" style="fill: #3a3a3a"/>
    </g>
    <g>
      <g>
        <rect height="3.69" style="fill: none;stroke: #000;stroke-miterlimit: 10;stroke-width: 0.0575247983525181px" width="3.44" x="5.11" y="14.79"/>
        <path d="M5.11,14.79s0-.32-.29-.29v4.28l.29-.3Z" style="fill: #4d4c4d"/>
        <path d="M8.55,14.79s0-.32.29-.29v4.28l-.29-.3Z" style="fill: #4d4c4d"/>
        <polyline points="4.82 18.78 8.84 18.78 8.55 18.48 5.11 18.48" style="fill: #3a3a3a"/>
      </g>
      <path d="M4.82,14.5h4s-.2-.07-.29.29H5.11S5.11,14.48,4.82,14.5Z" style="fill: #3a3a3a"/>
    </g>
    <g>
      <path d="M4.9,36.82l.58-2a.14.14,0,0,1,.15-.1.12.12,0,0,1,.13.09l.58,2v0a.15.15,0,0,1,0,.11.18.18,0,0,1-.09,0,.14.14,0,0,1-.15-.11L6,36.52H5.29l-.13.42a.05.05,0,0,1,0,.05A.13.13,0,0,1,5,37a.18.18,0,0,1-.11,0,.15.15,0,0,1,0-.11A.09.09,0,0,1,4.9,36.82Zm.72-1.42-.24.83h.48Z" style="fill: #535352"/>
      <path d="M7.34,34.74h.75a.4.4,0,0,1,.26.11.38.38,0,0,1,.12.28.15.15,0,0,1,0,.11.13.13,0,0,1-.1,0,.13.13,0,0,1-.1,0,.44.44,0,0,1-.05-.13c0-.06,0-.09-.11-.09H7.35s0,0,0,0a.08.08,0,0,0,0,0L8.4,36.48a.35.35,0,0,1,.07.21.32.32,0,0,1-.09.23.26.26,0,0,1-.21.1H7.39a.37.37,0,0,1-.27-.12A.38.38,0,0,1,7,36.64c0-.11,0-.16.15-.16a.14.14,0,0,1,.14.14.11.11,0,0,0,0,.08.13.13,0,0,0,.08,0h.72s0,0,0,0l0,0L7.09,35.28A.32.32,0,0,1,7,35.07a.34.34,0,0,1,.33-.33Z" style="fill: #535352"/>
      <path d="M9.15,36.82l.58-2a.13.13,0,0,1,.14-.1.13.13,0,0,1,.14.09l.57,2a.08.08,0,0,1,0,0,.15.15,0,0,1,0,.11.18.18,0,0,1-.1,0,.14.14,0,0,1-.14-.11l-.11-.39H9.54l-.13.42a.07.07,0,0,1,0,.05l-.09,0a.18.18,0,0,1-.1,0,.15.15,0,0,1,0-.11A.09.09,0,0,1,9.15,36.82Zm.72-1.42-.25.83h.49Z" style="fill: #535352"/>
      <path d="M11.4,34.74h1.17a.14.14,0,0,1,.14.14.12.12,0,0,1,0,.1.14.14,0,0,1-.1.05h-.44v1.7h.44a.14.14,0,0,1,.14.14.15.15,0,0,1,0,.11.18.18,0,0,1-.1,0H11.4a.18.18,0,0,1-.1,0,.15.15,0,0,1,0-.11.14.14,0,0,1,.14-.14h.45V35H11.4a.18.18,0,0,1-.1,0,.15.15,0,0,1,0-.11.14.14,0,0,1,.14-.14Z" style="fill: #535352"/>
      <path d="M13.39,36.87V34.74h1a.39.39,0,0,1,.3.13.38.38,0,0,1,.13.3v.17a.42.42,0,0,1-.13.31.41.41,0,0,1-.3.12h-.19l.59,1a.16.16,0,0,1,0,.09.14.14,0,0,1-.15.14.16.16,0,0,1-.13-.08l-.67-1.17h-.21v1.1a.14.14,0,0,1-.15.15.18.18,0,0,1-.1,0A.15.15,0,0,1,13.39,36.87Zm.29-1.39h.73a.13.13,0,0,0,.1,0,.12.12,0,0,0,0-.1v-.17a.14.14,0,0,0-.14-.14h-.73Z" style="fill: #535352"/>
      <path d="M17.64,36.82l.58-2a.14.14,0,0,1,.15-.1.12.12,0,0,1,.13.09l.58,2v0A.14.14,0,0,1,19,37a.14.14,0,0,1-.15-.11l-.11-.39H18l-.13.42a.05.05,0,0,1,0,.05.11.11,0,0,1-.08,0,.18.18,0,0,1-.11,0,.21.21,0,0,1,0-.11A.09.09,0,0,1,17.64,36.82Zm.72-1.42-.24.83h.49Z" style="fill: #535352"/>
      <path d="M20.34,35.63v-.07l-.3-.43v1.74A.16.16,0,0,1,20,37a.15.15,0,0,1-.1,0,.18.18,0,0,1-.1,0,.15.15,0,0,1,0-.11V34.74h.37l.36.51.36-.51h.37v2.13a.16.16,0,0,1-.05.11.15.15,0,0,1-.2,0,.15.15,0,0,1,0-.11V35.14l-.3.41v.08a.12.12,0,0,1,0,.1.12.12,0,0,1-.2,0A.12.12,0,0,1,20.34,35.63Z" style="fill: #535352"/>
      <path d="M23.19,37H21.87V36a.29.29,0,0,1,.09-.21.3.3,0,0,1,.2-.08H23V35H22a.18.18,0,0,1-.15-.15.14.14,0,0,1,.05-.1.12.12,0,0,1,.1,0h1a.28.28,0,0,1,.2.08.29.29,0,0,1,.09.21v.7A.31.31,0,0,1,23,36h-.88v.71h1a.14.14,0,0,1,.1.24A.14.14,0,0,1,23.19,37Z" style="fill: #535352"/>
      <path d="M25.45,35v.54a.4.4,0,0,1-.11.3.44.44,0,0,1,.12.29v.57a.27.27,0,0,1-.09.2.25.25,0,0,1-.2.09h-1A.16.16,0,0,1,24,37a.15.15,0,0,1,0-.2.15.15,0,0,1,.11,0h1v-.57A.14.14,0,0,0,25,36h-.58a.18.18,0,0,1-.15-.15.14.14,0,0,1,.05-.1.12.12,0,0,1,.1,0H25a.18.18,0,0,0,.1,0,.16.16,0,0,0,.05-.11V35h-1A.16.16,0,0,1,24,35a.15.15,0,0,1,0-.1.18.18,0,0,1,0-.1.15.15,0,0,1,.11,0h1a.3.3,0,0,1,.2.08A.28.28,0,0,1,25.45,35Z" style="fill: #535352"/>
      <path d="M27.43,37H26.12V36a.29.29,0,0,1,.09-.21.28.28,0,0,1,.2-.08h.88V35h-1a.14.14,0,0,1-.11-.05.15.15,0,0,1,0-.1.18.18,0,0,1,0-.1.14.14,0,0,1,.11,0h1a.28.28,0,0,1,.2.08.29.29,0,0,1,.09.21v.7a.31.31,0,0,1-.29.29h-.88v.71h1a.12.12,0,0,1,.1,0,.12.12,0,0,1,0,.2A.12.12,0,0,1,27.43,37Z" style="fill: #535352"/>
      <path d="M28.24,36.74V35a.27.27,0,0,1,.08-.19.27.27,0,0,1,.2-.09h.9a.25.25,0,0,1,.19.09.24.24,0,0,1,.08.19v1.73a.24.24,0,0,1-.08.19.25.25,0,0,1-.19.09h-.9a.27.27,0,0,1-.2-.09A.27.27,0,0,1,28.24,36.74Zm1.17,0V35h-.88v1.7Z" style="fill: #535352"/>
    </g>
  </g>
  <g id="Connectors">
    <rect data-cir-type="male" height="1.35" id="circuitoCon_VDD" style="fill: none" width="1.35" x="5.72" y="52.59"/>
    <rect data-cir-type="male" height="1.35" id="circuitoCon_SDA" style="fill: none" width="1.35" x="12.97" y="52.59"/>
    <rect data-cir-type="male" height="1.35" id="circuitoCon_GND" style="fill: none" width="1.35" x="20.26" y="52.59"/>
    <rect data-cir-type="male" height="1.35" id="circuitoCon_SCL" style="fill: none" width="1.35" x="27.55" y="52.59"/>
  </g>
</svg>