<?xml version="1.0" ?><svg height="8.47mm" viewBox="0 0 28.69 24.01" width="10.12mm" xmlns="http://www.w3.org/2000/svg" xmlns:xlink="http://www.w3.org/1999/xlink">
  <defs>
    <radialGradient cx="-451.81" cy="-169.63" gradientTransform="translate(-463.41 29.34) rotate(157.5)" gradientUnits="userSpaceOnUse" id="radial-gradient" r="4.29">
      <stop offset="0" stop-color="#1f467b"/>
      <stop offset="0" stop-color="#355178"/>
      <stop offset="0" stop-color="#4b5d75"/>
      <stop offset="0" stop-color="#5c6573"/>
      <stop offset="0" stop-color="#676c71"/>
      <stop offset="0" stop-color="#6e6f70"/>
      <stop offset="0" stop-color="#707070"/>
      <stop offset="0.13" stop-color="#5b6573"/>
      <stop offset="0.34" stop-color="#405776"/>
      <stop offset="0.55" stop-color="#2d4d78"/>
      <stop offset="0.77" stop-color="#22477a"/>
      <stop offset="1" stop-color="#1e457a"/>
    </radialGradient>
    <radialGradient cx="-451.98" cy="-159.62" gradientTransform="translate(-149.24 464.94) rotate(90)" gradientUnits="userSpaceOnUse" id="radial-gradient-2" r="4.29">
      <stop offset="0" stop-color="#1f467b"/>
      <stop offset="0" stop-color="#355178"/>
      <stop offset="0" stop-color="#4b5d75"/>
      <stop offset="0" stop-color="#5c6573"/>
      <stop offset="0" stop-color="#676c71"/>
      <stop offset="0" stop-color="#6e6f70"/>
      <stop offset="0" stop-color="#707070"/>
      <stop offset="0.07" stop-color="#616161"/>
      <stop offset="0.25" stop-color="#3f3f3f"/>
      <stop offset="0.43" stop-color="#242424"/>
      <stop offset="0.61" stop-color="#111"/>
      <stop offset="0.8" stop-color="#060606"/>
      <stop offset="1" stop-color="#020202"/>
    </radialGradient>
  </defs>
  <title>TCR5000L</title>
  <g id="Connectors">
    <rect height="5.44" style="fill: #a6a6a6" width="2.39" x="23.33"/>
    <rect height="5.44" style="fill: #a6a6a6" width="2.39" x="1.67"/>
    <rect height="5.44" style="fill: #a6a6a6" width="2.39" x="1.67" y="18.57"/>
    <rect height="5.44" style="fill: #a6a6a6" width="2.39" x="23.27" y="18.57"/>
    <rect height="22.88" style="fill: none;stroke: #000;stroke-miterlimit: 10;stroke-width: 0.071627372232896px" transform="translate(2.27 26.35) rotate(-90)" width="10.31" x="9.15" y="0.6"/>
    <rect height="22.86" style="fill: #3a342f" transform="translate(2.25 26.34) rotate(-90)" width="10.19" x="9.2" y="0.61"/>
    <path d="M0,4.05" style="fill: none;stroke: #000;stroke-miterlimit: 10;stroke-width: 0.071627372232896px"/>
    <path d="M2.87,6.88" style="fill: none;stroke: #000;stroke-miterlimit: 10;stroke-width: 0.071627372232896px"/>
    <rect height="1.38" style="fill: #4c433e" transform="translate(2.27 26.35) rotate(-90)" width="10.31" x="9.16" y="11.35"/>
    <path d="M28.69,17.2" style="fill: none;stroke: #000;stroke-miterlimit: 10;stroke-width: 0.071627372232896px"/>
    <path d="M25.75,17.2" style="fill: none;stroke: #000;stroke-miterlimit: 10;stroke-width: 0.071627372232896px"/>
    <path d="M25.75,20.08" style="fill: none;stroke: #000;stroke-miterlimit: 10;stroke-width: 0.071627372232896px"/>
    <path d="M25.75,17.14" style="fill: none;stroke: #000;stroke-miterlimit: 10;stroke-width: 0.071627372232896px"/>
    <rect height="2.9" style="fill: #3a342f" transform="translate(-6.32 35.16) rotate(-90)" width="1.47" x="13.69" y="19.29"/>
    <rect height="2.9" style="fill: #3a342f" transform="translate(11.16 17.67) rotate(-90)" width="1.47" x="13.69" y="1.8"/>
    <path d="M25.75,7" style="fill: none;stroke: #000;stroke-miterlimit: 10;stroke-width: 0.071627372232896px"/>
    <path d="M25.75,4" style="fill: none;stroke: #000;stroke-miterlimit: 10;stroke-width: 0.071627372232896px"/>
    <path d="M28.69,6.88" style="fill: none;stroke: #000;stroke-miterlimit: 10;stroke-width: 0.071627372232896px"/>
    <path d="M25.75,6.88" style="fill: none;stroke: #000;stroke-miterlimit: 10;stroke-width: 0.071627372232896px"/>
    <polygon points="2.87 6.88 2.87 17.2 0 20.03 0 4.05 2.87 6.88" style="fill: #38312d"/>
    <polygon points="0 4.05 2.91 6.95 25.73 6.95 25.73 3.93 0 4.05" style="fill: #4c433e"/>
    <polygon points="0 20.03 2.87 17.14 25.75 17.14 25.75 20.08 0 20.03" style="fill: #332c28"/>
    <rect height="2.94" style="fill: #38312d" transform="translate(15.18 39.25) rotate(-90)" width="10.3" x="22.07" y="10.57"/>
    <polygon points="25.75 17.14 28.69 17.19 25.75 20.08 25.75 17.14" style="fill: #38312d"/>
    <polygon points="25.73 6.95 25.73 3.95 28.62 6.88 25.73 6.95" style="fill: #38312d"/>
    <circle cx="9.13" cy="12.04" r="4.29" style="fill: none;stroke: #000;stroke-miterlimit: 10;stroke-width: 0.071627372232896px"/>
    <circle cx="19.64" cy="12.04" r="4.29" style="fill: none;stroke: #000;stroke-miterlimit: 10;stroke-width: 0.071627372232896px"/>
    <circle cx="19.64" cy="12.05" r="4.29" style="fill: url(#radial-gradient)" transform="translate(0.99 25.58) rotate(-67.5)"/>
    <circle cx="9.13" cy="12.04" r="4.29" style="fill: url(#radial-gradient-2)"/>
    <rect data-cir-type="male" height="2.39" id="circuitoCon_A" style="fill: none" transform="translate(25.62 -23.22) rotate(90)" width="2.39" x="23.22"/>
    <rect data-cir-type="male" height="2.39" id="circuitoCon_Coll" style="fill: none" transform="translate(4.02 -1.62) rotate(90)" width="2.39" x="1.62"/>
    <rect data-cir-type="male" height="2.39" id="circuitoCon_Cath" style="fill: none" transform="translate(47.22 -1.62) rotate(90)" width="2.39" x="23.22" y="21.6"/>
    <rect data-cir-type="male" height="2.39" id="circuitoCon_E" style="fill: none" transform="translate(25.62 19.98) rotate(90)" width="2.39" x="1.62" y="21.6"/>
  </g>
</svg>