<?xml version="1.0" ?><svg height="23.63mm" viewBox="0 0 176.26 66.99" width="62.18mm" xmlns="http://www.w3.org/2000/svg" xmlns:xlink="http://www.w3.org/1999/xlink">
  <defs>
    <linearGradient gradientTransform="matrix(1, 0, 0, -1, -343.15, 339.97)" gradientUnits="userSpaceOnUse" id="linear-gradient" x1="356.82" x2="356.82" y1="281.46" y2="274.02">
      <stop offset="0" stop-color="#999"/>
      <stop offset="1" stop-color="#f2f2f2"/>
    </linearGradient>
    <linearGradient gradientTransform="matrix(1, 0, 0, -1, -350.12, 333)" id="linear-gradient-2" x1="363.78" x2="363.78" xlink:href="#linear-gradient" y1="281.46" y2="274.02"/>
    <linearGradient gradientTransform="matrix(1, 0, 0, -1, -357.09, 326.04)" id="linear-gradient-3" x1="370.75" x2="370.75" xlink:href="#linear-gradient" y1="281.46" y2="274.02"/>
    <linearGradient data-name="Neutral 19" gradientTransform="matrix(1, 0, 0, -1, -225.71, 9.44)" gradientUnits="userSpaceOnUse" id="Neutral_19" x1="365.77" x2="377.19" y1="4.72" y2="4.72">
      <stop offset="0" stop-color="#97a4b7"/>
      <stop offset="0.88" stop-color="#fff"/>
    </linearGradient>
    <linearGradient gradientTransform="matrix(1, 0, 0, -1, -214.62, 9.44)" id="Neutral_19-2" x1="365.77" x2="366.09" xlink:href="#Neutral_19" y1="4.72" y2="4.72"/>
    <linearGradient gradientTransform="matrix(1, 0, 0, -1, -216.2, 9.44)" id="Neutral_19-3" x1="366.56" x2="366.88" xlink:href="#Neutral_19" y1="4.72" y2="4.72"/>
    <linearGradient gradientTransform="matrix(1, 0, 0, -1, -217.79, 9.44)" id="Neutral_19-4" x1="367.36" x2="367.68" xlink:href="#Neutral_19" y1="4.72" y2="4.72"/>
    <linearGradient gradientTransform="matrix(1, 0, 0, -1, -219.37, 9.44)" id="Neutral_19-5" x1="368.15" x2="368.47" xlink:href="#Neutral_19" y1="4.72" y2="4.72"/>
    <linearGradient gradientTransform="matrix(1, 0, 0, -1, -220.96, 9.44)" id="Neutral_19-6" x1="368.94" x2="369.26" xlink:href="#Neutral_19" y1="4.72" y2="4.72"/>
    <linearGradient gradientTransform="matrix(1, 0, 0, -1, -222.54, 9.44)" id="Neutral_19-7" x1="369.73" x2="370.05" xlink:href="#Neutral_19" y1="4.72" y2="4.72"/>
    <linearGradient gradientTransform="matrix(1, 0, 0, -1, -224.13, 9.44)" id="Neutral_19-8" x1="370.53" x2="370.85" xlink:href="#Neutral_19" y1="4.72" y2="4.72"/>
    <linearGradient id="Neutral_19-9" x1="371.32" x2="371.64" xlink:href="#Neutral_19" y1="4.72" y2="4.72"/>
    <linearGradient gradientTransform="matrix(1, 0, 0, -1, -227.3, 9.44)" id="Neutral_19-10" x1="372.11" x2="372.43" xlink:href="#Neutral_19" y1="4.72" y2="4.72"/>
    <linearGradient gradientTransform="matrix(1, 0, 0, -1, -228.88, 9.44)" id="Neutral_19-11" x1="372.9" x2="373.22" xlink:href="#Neutral_19" y1="4.72" y2="4.72"/>
    <linearGradient gradientTransform="matrix(1, 0, 0, -1, -230.47, 9.44)" id="Neutral_19-12" x1="373.7" x2="374.02" xlink:href="#Neutral_19" y1="4.72" y2="4.72"/>
    <linearGradient gradientTransform="matrix(1, 0, 0, -1, -232.05, 9.44)" id="Neutral_19-13" x1="374.49" x2="374.81" xlink:href="#Neutral_19" y1="4.72" y2="4.72"/>
    <linearGradient gradientTransform="matrix(1, 0, 0, -1, -233.64, 9.44)" id="Neutral_19-14" x1="375.28" x2="375.6" xlink:href="#Neutral_19" y1="4.72" y2="4.72"/>
    <linearGradient gradientTransform="matrix(1, 0, 0, -1, -235.22, 9.44)" id="Neutral_19-15" x1="376.07" x2="376.4" xlink:href="#Neutral_19" y1="4.72" y2="4.72"/>
    <linearGradient gradientTransform="matrix(1, 0, 0, -1, -236.81, 9.44)" id="Neutral_19-16" x1="376.87" x2="377.19" xlink:href="#Neutral_19" y1="4.72" y2="4.72"/>
    <linearGradient gradientTransform="matrix(1, 0, 0, -1, -193.74, 131.28)" gradientUnits="userSpaceOnUse" id="linear-gradient-4" x1="353.98" x2="357" y1="65.64" y2="65.64">
      <stop offset="0" stop-color="#f2f2f2"/>
      <stop offset="0.5" stop-color="#999"/>
      <stop offset="1" stop-color="#f2f2f2"/>
    </linearGradient>
    <linearGradient gradientTransform="matrix(1, 0, 0, -1, -318.75, 131.28)" id="linear-gradient-5" x1="416.49" x2="419.51" xlink:href="#linear-gradient-4" y1="65.64" y2="65.64"/>
    <linearGradient gradientTransform="matrix(1, 0, 0, -1, -256.29, 49.05)" gradientUnits="userSpaceOnUse" id="linear-gradient-6" x1="340.99" x2="432.55" y1="24.52" y2="24.52">
      <stop offset="0" stop-color="#0c69e8"/>
      <stop offset="0.05" stop-color="#0c17e8"/>
      <stop offset="0.95" stop-color="#0c17e8"/>
      <stop offset="1" stop-color="#0c69e8"/>
    </linearGradient>
    <linearGradient gradientTransform="matrix(1, 0, 0, -1, -261.38, 25.36)" gradientUnits="userSpaceOnUse" id="linear-gradient-7" x1="381.67" x2="396.96" y1="12.68" y2="12.68">
      <stop offset="0" stop-color="#0c69e8"/>
      <stop offset="0.02" stop-color="#0c5ee8"/>
      <stop offset="0.09" stop-color="#0c44e8"/>
      <stop offset="0.16" stop-color="#0c30e8"/>
      <stop offset="0.24" stop-color="#0c22e8"/>
      <stop offset="0.34" stop-color="#0c1ae8"/>
      <stop offset="0.5" stop-color="#0c17e8"/>
      <stop offset="0.66" stop-color="#0c1ae8"/>
      <stop offset="0.76" stop-color="#0c22e8"/>
      <stop offset="0.84" stop-color="#0c30e8"/>
      <stop offset="0.91" stop-color="#0c44e8"/>
      <stop offset="0.98" stop-color="#0c5ee8"/>
      <stop offset="1" stop-color="#0c69e8"/>
    </linearGradient>
    <linearGradient gradientTransform="matrix(1, 0, 0, -1, -225.71, 24.57)" id="linear-gradient-8" x1="356.19" x2="386.77" xlink:href="#linear-gradient-7" y1="12.29" y2="12.29"/>
    <linearGradient gradientTransform="matrix(1, 0, 0, -1, -256.29, 81.08)" id="linear-gradient-9" x1="353.36" x2="420.17" xlink:href="#linear-gradient-6" y1="40.54" y2="40.54"/>
    <linearGradient gradientTransform="matrix(1, 0, 0, -1, -256.29, 43.27)" id="linear-gradient-10" x1="353.36" x2="420.17" xlink:href="#linear-gradient-6" y1="21.63" y2="21.63"/>
  </defs>
  <title>Continuous Rotation Micro Servo - FS90R</title>
  <g data-name="Layer 1" id="Layer_1">
    <g data-name="Layer 4" id="Layer_4">
      <g>
        <g>
          <g data-name="&lt;Group&gt;" id="_Group_">
            <polyline data-name="&lt;Path&gt;" id="_Path_" points="23.05 52.96 122.38 53.26 122.38 48.66 23.05 48.66" style="fill: #ffe000"/>
          </g>
          <g data-name="&lt;Group&gt;" id="_Group_2">
            <polyline data-name="&lt;Path&gt;" id="_Path_2" points="23.05 57.25 126.68 57.56 126.68 52.96 23.05 52.96" style="fill: #ff8135"/>
          </g>
          <g data-name="&lt;Group&gt;" id="_Group_3">
            <polyline data-name="&lt;Path&gt;" id="_Path_3" points="23.05 61.86 130.98 61.86 130.98 57.25 23.05 57.25" style="fill: #b2876f"/>
          </g>
        </g>
        <g>
          <rect data-name="&lt;Rectangle&gt;" height="37.48" id="_Rectangle_" style="fill: #333" transform="translate(-36.52 74) rotate(-90)" width="23.47" x="7" y="36.52"/>
          <g data-name="&lt;Group&gt;" id="_Group_4">
            <rect data-name="&lt;Rectangle&gt;" height="14.88" id="_Rectangle_2" style="fill: #1a1a1a" transform="translate(-52.28 72.17) rotate(-90)" width="2.89" x="8.5" y="54.78"/>
            <rect data-name="&lt;Rectangle&gt;" height="7.44" id="_Rectangle_3" style="fill: url(#linear-gradient)" transform="translate(-48.56 75.89) rotate(-90)" width="2.89" x="12.22" y="58.5"/>
            <rect data-name="&lt;Rectangle&gt;" height="14.88" id="_Rectangle_4" style="fill: #1a1a1a" transform="translate(-45.31 65.2) rotate(-90)" width="2.89" x="8.5" y="47.82"/>
            <rect data-name="&lt;Rectangle&gt;" height="7.44" id="_Rectangle_5" style="fill: url(#linear-gradient-2)" transform="translate(-41.59 68.92) rotate(-90)" width="2.89" x="12.22" y="51.54"/>
            <rect data-name="&lt;Rectangle&gt;" height="14.88" id="_Rectangle_6" style="fill: #1a1a1a" transform="translate(-38.35 58.24) rotate(-90)" width="2.89" x="8.5" y="40.85"/>
            <rect data-name="&lt;Rectangle&gt;" height="7.44" id="_Rectangle_7" style="fill: url(#linear-gradient-3)" transform="translate(-34.63 61.96) rotate(-90)" width="2.89" x="12.22" y="44.57"/>
          </g>
        </g>
      </g>
    </g>
    <g id="Connectors">
      <rect data-cir-type="female" heigHHht="2.89" id="circuitoCon_Sig" style="fill: none" width="2.89" y="46.85"/>
      <rect data-cir-color="red" data-cir-type="female" height="2.89" id="circuitoCon_Vin" style="fill: none" width="2.89" y="53.81"/>
      <rect data-cir-color="black" data-cir-type="female" height="2.89" id="circuitoCon_0" style="fill: none" width="2.89" y="60.78"/>
    </g>
    <g data-name="&lt;Group&gt;" id="_Group_5">
      <rect data-name="&lt;Rectangle&gt;" height="9.44" id="_Rectangle_8" style="fill: url(#Neutral_19)" transform="translate(291.53 9.44) rotate(-180)" width="11.42" x="140.06"/>
      <rect data-name="&lt;Rectangle&gt;" height="9.44" id="_Rectangle_9" style="fill: url(#Neutral_19-2)" transform="translate(302.63 9.44) rotate(-180)" width="0.32" x="151.15"/>
      <rect data-name="&lt;Rectangle&gt;" height="9.44" id="_Rectangle_10" style="fill: url(#Neutral_19-3)" transform="translate(301.04 9.44) rotate(-180)" width="0.32" x="150.36"/>
      <rect data-name="&lt;Rectangle&gt;" height="9.44" id="_Rectangle_11" style="fill: url(#Neutral_19-4)" transform="translate(299.46 9.44) rotate(-180)" width="0.32" x="149.57"/>
      <rect data-name="&lt;Rectangle&gt;" height="9.44" id="_Rectangle_12" style="fill: url(#Neutral_19-5)" transform="translate(297.87 9.44) rotate(-180)" width="0.32" x="148.78"/>
      <rect data-name="&lt;Rectangle&gt;" height="9.44" id="_Rectangle_13" style="fill: url(#Neutral_19-6)" transform="translate(296.29 9.44) rotate(-180)" width="0.32" x="147.98"/>
      <rect data-name="&lt;Rectangle&gt;" height="9.44" id="_Rectangle_14" style="fill: url(#Neutral_19-7)" transform="translate(294.7 9.44) rotate(-180)" width="0.32" x="147.19"/>
      <rect data-name="&lt;Rectangle&gt;" height="9.44" id="_Rectangle_15" style="fill: url(#Neutral_19-8)" transform="translate(293.12 9.44) rotate(-180)" width="0.32" x="146.4"/>
      <rect data-name="&lt;Rectangle&gt;" height="9.44" id="_Rectangle_16" style="fill: url(#Neutral_19-9)" transform="translate(291.53 9.44) rotate(-180)" width="0.32" x="145.61"/>
      <rect data-name="&lt;Rectangle&gt;" height="9.44" id="_Rectangle_17" style="fill: url(#Neutral_19-10)" transform="translate(289.95 9.44) rotate(-180)" width="0.32" x="144.81"/>
      <rect data-name="&lt;Rectangle&gt;" height="9.44" id="_Rectangle_18" style="fill: url(#Neutral_19-11)" transform="translate(288.36 9.44) rotate(-180)" width="0.32" x="144.02"/>
      <rect data-name="&lt;Rectangle&gt;" height="9.44" id="_Rectangle_19" style="fill: url(#Neutral_19-12)" transform="translate(286.78 9.44) rotate(-180)" width="0.32" x="143.23"/>
      <rect data-name="&lt;Rectangle&gt;" height="9.44" id="_Rectangle_20" style="fill: url(#Neutral_19-13)" transform="translate(285.19 9.44) rotate(-180)" width="0.32" x="142.44"/>
      <rect data-name="&lt;Rectangle&gt;" height="9.44" id="_Rectangle_21" style="fill: url(#Neutral_19-14)" transform="translate(283.61 9.44) rotate(-180)" width="0.32" x="141.64"/>
      <rect data-name="&lt;Rectangle&gt;" height="9.44" id="_Rectangle_22" style="fill: url(#Neutral_19-15)" transform="translate(282.02 9.44) rotate(-180)" width="0.32" x="140.85"/>
      <rect data-name="&lt;Rectangle&gt;" height="9.44" id="_Rectangle_23" style="fill: url(#Neutral_19-16)" transform="translate(280.44 9.44) rotate(-180)" width="0.32" x="140.06"/>
    </g>
    <path d="M161.3,65.11h.91a1.06,1.06,0,0,1,1.06,1.06v0a0,0,0,0,1,0,0h-3a0,0,0,0,1,0,0v0A1.06,1.06,0,0,1,161.3,65.11Z" data-name="&lt;Rectangle&gt;" id="_Rectangle_24" style="fill: url(#linear-gradient-4)" transform="translate(323.5 131.28) rotate(-180)"/>
    <path d="M98.79,65.11h.91a1.06,1.06,0,0,1,1.06,1.06v0a0,0,0,0,1,0,0h-3a0,0,0,0,1,0,0v0a1.06,1.06,0,0,1,1.06-1.06Z" data-name="&lt;Rectangle&gt;" id="_Rectangle_25" style="fill: url(#linear-gradient-5)" transform="translate(198.49 131.28) rotate(180)"/>
    <g>
      <path d="M104.52,63.52h51.92a2.94,2.94,0,0,1,2.94,2.94v0a0,0,0,0,1,0,0H101.58a0,0,0,0,1,0,0v0A2.94,2.94,0,0,1,104.52,63.52Z" data-name="&lt;Rectangle&gt;" id="_Rectangle_26" style="fill: #0c17e8" transform="translate(260.96 129.99) rotate(-180)"/>
      <rect data-name="&lt;Rectangle&gt;" height="5.78" id="_Rectangle_27" style="fill: url(#linear-gradient-6)" transform="translate(260.96 49.05) rotate(-180)" width="91.56" x="84.7" y="21.63"/>
      <path d="M120.29,7.47h15.29a0,0,0,0,1,0,0V13.4a4.49,4.49,0,0,1-4.49,4.49h-10.8a0,0,0,0,1,0,0V7.47A0,0,0,0,1,120.29,7.47Z" data-name="&lt;Rectangle&gt;" id="_Rectangle_28" style="fill: url(#linear-gradient-7)" transform="translate(255.86 25.36) rotate(-180)"/>
      <path d="M130.48,6.68h30.57a0,0,0,0,1,0,0V13.4a4.49,4.49,0,0,1-4.49,4.49H135a4.49,4.49,0,0,1-4.49-4.49V6.68a0,0,0,0,1,0,0Z" data-name="&lt;Rectangle&gt;" id="_Rectangle_29" style="fill: url(#linear-gradient-8)" transform="translate(291.53 24.57) rotate(-180)"/>
      <rect data-name="&lt;Rectangle&gt;" height="49.37" id="_Rectangle_30" rx="1.71" ry="1.71" style="fill: url(#linear-gradient-9)" transform="translate(260.96 81.08) rotate(-180)" width="66.81" x="97.08" y="15.85"/>
      <rect data-name="&lt;Rectangle&gt;" height="11.56" id="_Rectangle_31" rx="0.83" ry="0.83" style="fill: url(#linear-gradient-10)" transform="translate(260.96 43.27) rotate(-180)" width="66.81" x="97.08" y="15.85"/>
    </g>
    <rect data-name="&lt;Rectangle&gt;" height="0.45" id="_Rectangle_32" style="fill: #201e20" transform="translate(260.96 110.52) rotate(-180)" width="66.81" x="97.08" y="55.03"/>
    <rect data-name="&lt;Rectangle&gt;" height="0.45" id="_Rectangle_33" style="fill: #201e20" transform="translate(260.96 54.35) rotate(-180)" width="66.81" x="97.08" y="26.95"/>
    <path d="M100.82,60.84" data-name="&lt;Path&gt;" id="_Path_4" style="fill: none;stroke: #c69c6d;stroke-miterlimit: 10;stroke-width: 15px"/>
  </g>
  <g data-name="Layer 5" id="Layer_5">
    <rect height="23.75" rx="1.42" ry="1.42" style="fill: #fff" width="39.19" x="112.12" y="29.62"/>
    <path d="M151.31,43.21V52a1.42,1.42,0,0,1-1.42,1.42H113.54A1.42,1.42,0,0,1,112.12,52V43.21"/>
    <g>
      <path d="M120,39.55l.16,0,.48-.06h.8v-.15L120,39.2h-.06a.08.08,0,0,0,0-.06.26.26,0,0,1,0-.07l.64-.08.81-.07.31,0v-.06l-.31,0-1.48-.17a.1.1,0,0,1,0,0h0l.25,0,.24,0,1.1-.09.3,0v-.09h-.22l-1.19-.1-.05,0-.25-.14.72-.08h.16l.41-.06h0l.59,0v0l-1.64-.19v-.06l.18-.07.77-.09.48,0,.43,0,0-.09h-.18l-1.19-.09h0l-.32-.15.48-.08h.24l.64-.07h.42v-.09l-1.06-.08h0l-.47-.09.23-.13.55-.08h.84V36.2l-1.21-.12-.26-.07a.69.69,0,0,1,0-.07l.33-.06,1-.1h.32l.18,0v0l-.18,0-.72-.07-.71-.09.07-.13.23,0,.43,0,.21,0h.16l.59,0v-.11h-.58l-.65-.08-.59-.11.69-.12.78-.08.5,0v-.15h-.92l-.69-.08.15-.13a24.28,24.28,0,0,1,4.84-.25l-.34,1.32h-1.5c-.65,0-.84.17-1,.89h2.22l-.35,1.33h-2.26c-.18.65-.34,1.29-.52,1.92a1.5,1.5,0,0,1-.24.36l-2.72-.26a.18.18,0,0,0,0,0l.22,0Z" style="fill: #fa0a0a"/>
      <path d="M133.83,33.21h0c.23.19.38,0,.53-.13h0a2.07,2.07,0,0,0,.41,0,10.6,10.6,0,0,1,7.15.12l.09,0h.08l.16.1.53.22h0c.1.11.19.26.33,0l.07.2.12.22c-.05,0-.08,0-.1,0l-.3-.11a10,10,0,0,0-4.85-.63,18.71,18.71,0,0,0-4.84,1.41c-1.07.43-2.16.82-3.25,1.19a1.67,1.67,0,0,1-1.38-.18l0-.29.13-.44.11-.25,0,.11c.63-.09,1.26-.17,1.89-.28.11,0,.21-.15.31-.22l0-.08h0l.12.16c.13-.1.42,0,.38-.29v0l.16-.07h0l-.09.21.34-.12.17-.08c.19-.08.38-.15.56-.25s0-.14.06-.21l.2-.11h0l-.08.19.26-.07.09-.21h0c.07,0,.18.1.19.09a1.09,1.09,0,0,0,.13-.24h0l.11.11Z" style="fill: #fef700"/>
      <path d="M128.62,35.41l0,.29a1.67,1.67,0,0,0,1.38.18c1.09-.37,2.18-.76,3.25-1.19a18.71,18.71,0,0,1,4.84-1.41,10,10,0,0,1,4.85.63l.3.11s0,0,.1,0l-.12-.22.32,0-.14.61c-3.36-1.53-6.58-1-9.81.45l-.5,2.15-.07.27a0,0,0,0,0,0,.05l-.14.59a.05.05,0,0,0,0,.06l-.3,1.22a.07.07,0,0,0,0,.07l-.06.26-.16.49H131.1l1.15-4.62-.63.3-.46.18-.18.06a0,0,0,0,0-.05,0c-.37.09-.75.19-1.12.26a2.06,2.06,0,0,1-1.44-.3l.17-.53Z" style="fill: #f8110c"/>
      <path d="M139.48,36.35l1.1-.14-.31,1.32h1.12l.33-1.25h1.06l-.91,3.67h-1.07l.34-1.44H140c-.09.36-.17.74-.28,1.1a1.82,1.82,0,0,1-.2.36l-.92,0,.1-.42Z" style="fill: #090909"/>
      <path d="M128,38.56l-.15,0c-.43,0-.86,0-1.29,0a3,3,0,0,0-.47.08l0,.47h1.84l-.22.89c-.67,0-1.33,0-2,0a.45.45,0,0,1-.48-.56c.2-.89.42-1.78.69-2.65a.86.86,0,0,1,.91-.51h1.75l-.23.85-.16,0-1.52,0-.37.42.08.1h1.86l0,.27-.06.21,0,.15Z" style="fill: #0a0a0a"/>
      <path d="M130.82,39.61l-.22.41c-.58,0-1.17,0-1.75,0s-.7-.24-.6-.68c.17-.8.37-1.6.61-2.38a.93.93,0,0,1,1-.66l.75,0h1l-.08.48,0,.08-.28.34h-1.44c-.31,0-.4.24-.42.54h1.89l-.22.86H129.1v.58h1.79Z" style="fill: #0b0c0c"/>
      <path d="M133.72,36.42a8.1,8.1,0,0,1,.92-.15c.48,0,1,0,1.5,0L136,37l-.06.06h-1.43c-.37,0-.55.19-.6.58h1.82l.16.37v0h0l-.23.39v0l-.31.12h-1.59l-.17.55h1.92l-.3.88h-1.71c-.58,0-.79-.24-.67-.8s.26-1.2.45-1.78A6.7,6.7,0,0,1,133.72,36.42Z" style="fill: #0c0c0c"/>
      <path d="M136.75,36.38c.47,0,.94-.09,1.41-.12.3,0,.61,0,1,0l-.2.86c-.49,0-.95,0-1.41,0a.59.59,0,0,0-.67.49c-.12.46-.21.92-.34,1.47h2l-.36.89-1.66,0c-.61,0-.79-.2-.68-.8s.2-.92.3-1.38l.09-.39,0-.15a.06.06,0,0,0,0-.07h0a.14.14,0,0,0,0-.07Z" style="fill: #0a0a0a"/>
      <path d="M131.23,37.16l.28-.34,0,.08.08.07c-.12.5-.22,1-.35,1.49s-.24.77-.36,1.15h-.11l.08-.47H129.1v-.58H131l.22-.86h-1.89c0-.3.11-.5.42-.54,0,0,.09.12.13.12h1.18S131.19,37.2,131.23,37.16Z" style="fill: #f0f0f0"/>
      <path d="M130.59,36.26l-.75,0a.93.93,0,0,0-1,.66c-.24.78-.44,1.58-.61,2.38-.09.44.13.66.6.68s1.17,0,1.75,0a1,1,0,0,1-.32.14c-.49,0-1,0-1.47,0a.81.81,0,0,1-.78-.42c0-.24,0-.55,0-.85a2.12,2.12,0,0,0,0-.34l.14-.19.06-.09-.08-.07.06-.21a.62.62,0,0,0,.15-.86l.23-.85-.34-.31-.1,0c.11-.45.21-.91.34-1.36,0-.06.18-.08.27-.12l-.14.48-.09.32-.17.53a2.06,2.06,0,0,0,1.44.3c.38-.07.75-.17,1.12-.26Z" style="fill: #d4d3d3"/>
      <path d="M130.92,39.61c.12-.38.25-.76.36-1.15s.24-1,.35-1.49l-.08-.07,0-.08,0-.08c.38-.23.22-.64.36-1l-.27-.15.63-.3-1.15,4.62h1.17l-.3.25-1.06-.1Z" style="fill: #dcdada"/>
      <path d="M133.72,36.42a6.7,6.7,0,0,0-.49,1c-.19.58-.32,1.18-.45,1.78s.09.8.67.8h1.71c-.11.06-.21.17-.32.17-.55,0-1.09,0-1.64,0s-.59-.39-.76-.71l.06-.26,0,.11.05,0-.08-.15.3-1.22,0,.12.05,0-.08-.16.14-.59,0,.13.05,0-.08-.16.07-.27,0,.13C133.29,36.83,133.28,36.41,133.72,36.42Z" style="fill: #cdc8c8"/>
      <path d="M141.93,33.17a10.6,10.6,0,0,0-7.15-.12,2.07,2.07,0,0,1-.41,0l0-.1h0l.23-.07h0l.22-.07.09,0a.05.05,0,0,0,.06,0l.19-.06.22-.06.1,0,.13,0,.2,0,.3-.07.16,0,.24,0,.18,0,.2,0,.5-.06.79-.05h.26l.8.05.58.07.12,0,.18,0,.23,0,.17,0,.1,0,.31.07a.06.06,0,0,0,.06,0h0l.25.07.34.13.13,0a0,0,0,0,1,0,0l.19.05.17.08Z" style="fill: #f8110c"/>
      <path d="M139.48,36.35l-.76,3.16-.1.42.92,0a.89.89,0,0,1-1.11,0,1.65,1.65,0,0,1,0-.32c.24-1,.47-1.93.73-2.89A1.52,1.52,0,0,1,139.48,36.35Z" style="fill: #bebebe"/>
      <path d="M136.08,37.77c-.1.46-.22.92-.3,1.38s.07.8.68.8l1.66,0c-.08.06-.16.17-.24.17-.61,0-1.21,0-1.82,0-.38,0-.51-.29-.5-.63s0-.68.06-1v0c.25,0,.24-.2.23-.39h0v0Z" style="fill: #b5b5b5"/>
      <path d="M119.58,39.68l2.72.26c-.09.05-.19.15-.28.14-.79,0-1.57-.1-2.36-.17-.11,0-.21-.15-.32-.23Z" style="fill: #dad5d5"/>
      <path d="M128.61,35l.14-.48h.09v0l.24.06h.65l.29,0,.26-.05.23-.05.1,0,.12,0,.19-.05h.17c-.1.08-.2.2-.31.22-.63.11-1.26.19-1.89.28l0-.11-.11.25Z" style="fill: #f8110c"/>
      <path d="M121,35.52l.71.09.4.16-1,.1-.49-.34.1,0Z" style="fill: #cdc8c8"/>
      <path d="M120.46,37.47l-.18.07h-.18v.05h.19l1.64.19v0l-.59,0c-.18-.1-.37-.21-.5.07h-.08l-.14-.1-.26-.13-.45-.09v-.14Z" style="fill: #ccb5b5"/>
      <path d="M126.12,38.65a3,3,0,0,1,.47-.08c.43,0,.86,0,1.29,0,0,0-.06.12-.09.11Z" style="fill: #d4d3d3"/>
      <path d="M119.89,38.57h0a.1.1,0,0,0,0,0l1.48.17v.1l-.81.07-.95-.4.32-.07Zm1,.3v0l-.18,0v0Z" style="fill: #b99f9f"/>
      <path d="M121.11,36.08l1.21.12v.14h-.84l-.36-.1a3,3,0,0,1-.29-.14Z" style="fill: #c2b0b0"/>
      <path d="M133.71,38.56h0Z" style="fill: #b08484"/>
      <path d="M121.48,38.39l-1.1.09.46-.14-.47-.18,1.19.1Z" style="fill: #b99f9f"/>
      <path d="M120,39.2l1.46.11v.15h-.79Z" style="fill: #b08484"/>
      <path d="M121.59,34.82l-.69.12.59.11v.09l-.77-.07v-.15C121,34.73,121.29,34.83,121.59,34.82Z" style="fill: #dbcccc"/>
      <path d="M136.75,36.38l-.51.7c-.23-.21-.06-.4.08-.51S136.48,36.14,136.75,36.38Z" style="fill: #dad5d5"/>
      <path d="M120.76,37.14l1.19.09-.23.13-.48,0Z" style="fill: #b99f9f"/>
      <path d="M121.17,36.89h-.24l-.48-.32h.17l.56.06h0l.38.1Z" style="fill: #e5e4e4"/>
      <path d="M121.94,34.57h.92v.15l-.5,0Z" style="fill: #b07b7b"/>
      <path d="M132.83,33.58c0,.07,0,.18-.06.21s-.37.17-.56.25l-.12-.12.44-.21.13-.06Z" style="fill: #f8110c"/>
      <path d="M142.79,33.53l-.53-.22-.14-.12A.57.57,0,0,1,142.79,33.53Z" style="fill: #f8110c"/>
      <path d="M120.45,37l.32.15h-.59V37Z" style="fill: #da6868"/>
      <path d="M134.36,33.09c-.14.17-.29.32-.53.13l.07-.07.12,0,.11,0Z" style="fill: #f8110c"/>
      <path d="M139.23,32.34l-.8-.05Z" style="fill: #f92314"/>
      <path d="M121.41,34.36l-.15.13-.27,0v-.11Z" style="fill: #e55252"/>
      <path d="M131.61,34.13c0,.31-.26.19-.38.29l-.12-.16a.06.06,0,0,1,.06,0l.14,0,.1,0Z" style="fill: #f8110c"/>
      <path d="M122,35.29l-.21,0-.11,0v-.14l.49,0h0v.09h0Z" style="fill: #dbcccc"/>
      <path d="M121.11,36.08l-.27,0-.36,0V36l.14,0,.24.06Z" style="fill: #d28e8e"/>
      <path d="M120.05,38l.25.14h-.5V38Z" style="fill: #da6868"/>
      <path d="M138.18,32.29l-.79.05Z" style="fill: #f92314"/>
      <path d="M120.62,36.58h-.17l-.06,0,.16-.14h.39l-.23.13Z" style="fill: #e55252"/>
      <path d="M133.67,33.22a1.09,1.09,0,0,1-.13.24s-.13-.06-.19-.09Z" style="fill: #f92314"/>
      <path d="M122.13,35.13l-.49,0h-.15v-.09Z" style="fill: #b99f9f"/>
      <path d="M120.78,35.52l-.1,0-.12-.07V35.4l.36,0Z" style="fill: #d28e8e"/>
      <path d="M119.89,39.13a.08.08,0,0,1,0,.06h-.38v-.07l.14-.06Z" style="fill: #da6868"/>
      <path d="M120.54,36.43l-.16.14-.14,0v-.09Z" style="fill: #dbcccc"/>
      <path d="M120.36,37.71l.26.13Z" style="fill: #e5e4e4"/>
      <path d="M120.62,39.47l-.48.06Z" style="fill: #b08484"/>
      <path d="M132.1,33.91l.12.12-.17.08-.25-.09h0Z" style="fill: #f92314"/>
      <path d="M121.64,35.29l.11,0-.43,0Z" style="fill: #d28e8e"/>
      <path d="M120.78,35.52l.16-.14h.15l-.07.13Z" style="fill: #fe3838"/>
      <path d="M130,34.55l-.29,0Z" style="fill: #f92314"/>
      <path d="M133.35,33.38l-.09.21-.18-.11h0Z" style="fill: #f92314"/>
      <path d="M136.1,32.52l-.3.07Z" style="fill: #f92314"/>
      <path d="M120.85,36l-.24-.06h.23A.69.69,0,0,0,120.85,36Z" style="fill: #fe3838"/>
      <path d="M135.38,32.68l-.22.06Z" style="fill: #f92314"/>
      <path d="M119.89,38.57v-.06l.24,0Z" style="fill: #e55252"/>
      <path d="M129.08,34.57l-.24-.06Z" style="fill: #f92314"/>
      <path d="M130.51,34.44l-.23.05Z" style="fill: #f92314"/>
      <path d="M134.82,32.84l-.22.07Z" style="fill: #f92314"/>
      <path d="M136.5,32.45l-.24,0Z" style="fill: #f92314"/>
      <path d="M119.89,39.13l-.24-.06h.24A.26.26,0,0,0,119.89,39.13Z" style="fill: #fe3838"/>
      <path d="M119.8,39.6l-.22,0,0,0v0h.24Z" style="fill: #d28e8e"/>
      <path d="M143.11,33.56c-.14.23-.23.07-.33,0Z" style="fill: #f8110c"/>
      <path d="M119.58,39.68h-.24a.31.31,0,0,0,0-.07l.08,0h.15l0,0A.18.18,0,0,1,119.58,39.68Z" style="fill: #da6868"/>
      <path d="M136.88,32.4l-.2,0Z" style="fill: #f92314"/>
      <path d="M141.93,33.17l.16-.11.06.09-.13.06Z" style="fill: #f92314"/>
      <path d="M134.36,33.09l-.23,0,.22-.08,0,.1Z" style="fill: #f92314"/>
      <path d="M134.59,32.91l-.23.07Z" style="fill: #f92314"/>
      <path d="M140.34,32.5l-.23,0Z" style="fill: #f92314"/>
      <path d="M141.23,32.74l-.25-.07Z" style="fill: #f92314"/>
      <path d="M130.73,34.39l-.12,0Z" style="fill: #f92314"/>
      <path d="M131.09,34.34h-.17l.2-.08Z" style="fill: #f92314"/>
      <path d="M131.3,34.21l-.14,0Z" style="fill: #f92314"/>
      <path d="M131.61,34.13l-.2,0,.19-.08Z" style="fill: #f92314"/>
      <path d="M142.11,33.19l.14.12-.16-.1Z" style="fill: #f92314"/>
      <path d="M134,33.1l-.12,0Z" style="fill: #f92314"/>
      <path d="M136.22,37.15h0l-.31,0L136,37Z" style="fill: #dad5d5"/>
      <path d="M141.92,33l-.19-.05Z" style="fill: #f92314"/>
      <path d="M135.61,32.63l-.13,0Z" style="fill: #f92314"/>
      <path d="M139.93,32.42l-.12,0Z" style="fill: #f92314"/>
      <path d="M132.67,33.64l-.13.06Z" style="fill: #f92314"/>
      <path d="M119.56,39.58h-.15l.16,0Z" style="fill: #dad5d5"/>
      <path d="M119.8,39.6v-.06H120Z" style="fill: #e55252"/>
      <path d="M128.84,34.49h0Z" style="fill: #d4d3d3"/>
      <path d="M135,32.8a.05.05,0,0,1-.06,0l0,0Z" style="fill: #f92314"/>
      <path d="M142,33.21l.13-.06,0,.07Z" style="fill: #f8110c"/>
      <path d="M133.83,33.21l-.06.12-.11-.11Z" style="fill: #f8110c"/>
      <path d="M141,32.66a.06.06,0,0,1-.06,0h0Z" style="fill: #f92314"/>
      <path d="M119.33,39.61a.31.31,0,0,1,0,.07l-.06,0Z" style="fill: #dad5d5"/>
      <path d="M140.61,32.57l-.1,0Z" style="fill: #f92314"/>
      <path d="M141.7,32.9l-.13,0Z" style="fill: #f92314"/>
      <path d="M121.55,36.74l-.38-.1,1.06.08v.09h-.42Z" style="fill: #b99f9f"/>
      <path d="M122.36,35.14h.35v.11l-.59,0v-.06h0Z" style="fill: #b07b7b"/>
      <path d="M122.13,35.78l-.4-.16.72.07v.08Z" style="fill: #b08484"/>
      <path d="M121.55,36.74l.25.08-.64.07Z" style="fill: #ccb5b5"/>
      <path d="M121.72,37.36l.23-.13h.18l0,.09Z" style="fill: #b56161"/>
      <path d="M120.62,36.58l.08,0,.47.09Z" style="fill: #b99f9f"/>
      <path d="M120.84,37.93c.13-.28.32-.17.5-.07h0l-.41.06Z" style="fill: #e5e4e4"/>
      <path d="M121.48,38.39l.07-.12h.22v.09Z" style="fill: #b56161"/>
      <path d="M120.93,37.92l.41-.06Z" style="fill: #ccb5b5"/>
      <path d="M121.34,38.9v-.1l.31,0v.06Z" style="fill: #b56161"/>
      <path d="M122.36,35.14l-.23.08v-.09Z" style="fill: #bebebe"/>
      <path d="M120.29,37.6h-.19v-.05h.18Z" style="fill: #fe3838"/>
      <path d="M122.44,35.77v-.08l.18,0v0Z" style="fill: #b56161"/>
      <path d="M122.13,35.22v.06H122Z" style="fill: #bebebe"/>
      <path d="M128.61,35h.14l-.13.44-.09-.12Z" style="fill: #f92314"/>
      <path d="M131.79,34l.25.09-.34.12Z" style="fill: #f8110c"/>
      <path d="M133.07,33.47l.18.11-.26.07Z" style="fill: #f8110c"/>
      <path d="M131.63,35.62l.27.15c-.14.33,0,.74-.36,1l.08-.48h-1l.33-.39a0,0,0,0,1,.05,0l.18-.06Z" style="fill: #f7f7f7"/>
      <path d="M132.51,39.13l.08.15-.05,0,0-.11A.07.07,0,0,1,132.51,39.13Z" style="fill: #f7f7f7"/>
      <path d="M133,37.21l.08.16-.05,0,0-.13A0,0,0,0,1,133,37.21Z" style="fill: #f0f0f0"/>
      <path d="M132.83,37.85l.08.16-.05,0,0-.12A.05.05,0,0,1,132.83,37.85Z" style="fill: #f0f0f0"/>
      <path d="M131.16,35.79l-.18.06Z" style="fill: #d4d3d3"/>
      <path d="M128.36,37.15a.62.62,0,0,1-.15.86l0-.27h-1.86l-.08-.1.37-.42,1.46,0s0-.06.06-.09Z" style="fill: #f7f7f7"/>
      <path d="M128.2,37.16s0,.09-.06.09l-1.46,0Z" style="fill: #d4d3d3"/>
      <path d="M128.15,38.22l.08.07-.06.09Z" style="fill: #fcfcfc"/>
      <path d="M131.23,37.16s-.08.13-.13.13h-1.18s-.09-.08-.13-.12Z" style="fill: #dcdada"/>
      <path d="M135.91,37.11l.31,0a.06.06,0,0,1,0,.07l-.23.06.19.09-.09.39-.23.3-.16-.37h-1.82c.06-.39.23-.58.6-.58Z" style="fill: #f0f0f0"/>
      <path d="M135.84,38c0,.18,0,.36-.23.39Z" style="fill: #e5e4e4"/>
      <path d="M136.17,37.38l-.19-.09.23-.06Z" style="fill: #dad5d5"/>
      <path d="M131.55,36.9l.08.07Z" style="fill: #f7f7f7"/>
      <path d="M120.86,38.87l-.18,0v0l.18,0Z" style="fill: #fcfcfc"/>
    </g>
    <g>
      <path d="M118.42,46.76a.18.18,0,0,1,0,.12.19.19,0,0,1-.08.17,1.85,1.85,0,0,1-.41.21,1.41,1.41,0,0,1-.47.07,1.25,1.25,0,0,1-.69-.2,1.33,1.33,0,0,1-.48-.57,2.22,2.22,0,0,1,0-1.73,1.33,1.33,0,0,1,.48-.57,1.25,1.25,0,0,1,.69-.2,1.41,1.41,0,0,1,.47.07,1.87,1.87,0,0,1,.41.21.19.19,0,0,1,.08.17.18.18,0,0,1,0,.12.14.14,0,0,1-.11.05l-.07,0a1.63,1.63,0,0,0-.33-.16,1.18,1.18,0,0,0-.37-.05,1,1,0,0,0-.56.16,1,1,0,0,0-.35.44,1.76,1.76,0,0,0,0,1.27,1,1,0,0,0,.35.44,1,1,0,0,0,.56.16,1.18,1.18,0,0,0,.37-.05,1.66,1.66,0,0,0,.33-.16l.07,0A.14.14,0,0,1,118.42,46.76Z" style="fill: #fff"/>
      <path d="M120.18,45.08a1,1,0,0,1,.35.42,1.66,1.66,0,0,1,0,1.26,1,1,0,0,1-.35.42,1,1,0,0,1-1,0,1,1,0,0,1-.35-.42,1.69,1.69,0,0,1,0-1.26,1,1,0,0,1,.35-.42,1,1,0,0,1,1,0ZM120,46.87a.65.65,0,0,0,.24-.27,1,1,0,0,0,.09-.47,1,1,0,0,0-.09-.47.63.63,0,0,0-.24-.27.59.59,0,0,0-.61,0,.62.62,0,0,0-.24.27,1,1,0,0,0-.09.47,1.05,1.05,0,0,0,.09.47.64.64,0,0,0,.24.27.58.58,0,0,0,.61,0Z" style="fill: #fff"/>
      <path d="M122.51,45a.74.74,0,0,1,.24.32,1.18,1.18,0,0,1,.08.45v1.29a.21.21,0,0,1-.05.15.16.16,0,0,1-.12.06.16.16,0,0,1-.12-.06.22.22,0,0,1-.05-.15V45.86q0-.55-.42-.55a.55.55,0,0,0-.34.12,1.35,1.35,0,0,0-.29.32v1.36a.21.21,0,0,1-.05.15.16.16,0,0,1-.12.06.16.16,0,0,1-.12-.06.22.22,0,0,1,0-.15V45.16a.23.23,0,0,1,0-.15.15.15,0,0,1,.12-.06.16.16,0,0,1,.13.06.22.22,0,0,1,.05.15v.19a1.34,1.34,0,0,1,.32-.3.7.7,0,0,1,.4-.11A.59.59,0,0,1,122.51,45Z" style="fill: #fff"/>
      <path d="M124.39,47a.17.17,0,0,1,0,.12.18.18,0,0,1-.09.16.66.66,0,0,1-.32.08q-.56,0-.56-.6V45.33h-.27a.06.06,0,0,1-.05,0,.09.09,0,0,1,0-.06.1.1,0,0,1,0-.08l.52-.6a.09.09,0,0,1,.07,0,.06.06,0,0,1,.05,0,.1.1,0,0,1,0,.06V45h.44a.14.14,0,0,1,.11,0,.19.19,0,0,1,0,.13.19.19,0,0,1,0,.13.13.13,0,0,1-.11.05h-.44V46.7q0,.18.07.22a.32.32,0,0,0,.18,0l.15,0h.08A.13.13,0,0,1,124.39,47Z" style="fill: #fff"/>
      <path d="M125.15,44.27a.24.24,0,0,1-.06.16.18.18,0,0,1-.14.07h0a.18.18,0,0,1-.14-.07.24.24,0,0,1-.06-.16v0a.24.24,0,0,1,.06-.16.18.18,0,0,1,.14-.07h0a.18.18,0,0,1,.14.07.24.24,0,0,1,.06.16Zm-.08.74a.22.22,0,0,1,0,.15v1.95a.21.21,0,0,1-.05.15.16.16,0,0,1-.13.06.16.16,0,0,1-.12-.06.22.22,0,0,1-.05-.15V45.16a.22.22,0,0,1,.05-.15.15.15,0,0,1,.12-.06A.16.16,0,0,1,125.06,45Z" style="fill: #fff"/>
      <path d="M127.1,45a.74.74,0,0,1,.24.32,1.18,1.18,0,0,1,.08.45v1.29a.21.21,0,0,1-.05.15.16.16,0,0,1-.12.06.16.16,0,0,1-.12-.06.22.22,0,0,1-.05-.15V45.86q0-.55-.42-.55a.55.55,0,0,0-.34.12,1.35,1.35,0,0,0-.29.32v1.36a.21.21,0,0,1-.05.15.16.16,0,0,1-.12.06.16.16,0,0,1-.12-.06.22.22,0,0,1,0-.15V45.16a.23.23,0,0,1,0-.15.15.15,0,0,1,.12-.06A.16.16,0,0,1,126,45a.22.22,0,0,1,.05.15v.19a1.34,1.34,0,0,1,.32-.3.7.7,0,0,1,.4-.11A.59.59,0,0,1,127.1,45Z" style="fill: #fff"/>
      <path d="M128.25,47.22a.74.74,0,0,1-.24-.32,1.17,1.17,0,0,1-.08-.45V45.16A.21.21,0,0,1,128,45a.16.16,0,0,1,.13-.06.16.16,0,0,1,.12.06.22.22,0,0,1,0,.15V46.4q0,.55.42.55a.55.55,0,0,0,.35-.12,1.34,1.34,0,0,0,.29-.32V45.16a.21.21,0,0,1,.05-.15.16.16,0,0,1,.13-.06.16.16,0,0,1,.12.06.22.22,0,0,1,0,.15V47.1a.23.23,0,0,1,0,.15.15.15,0,0,1-.12.06.16.16,0,0,1-.13-.06.22.22,0,0,1-.05-.15v-.19a1.36,1.36,0,0,1-.32.3.71.71,0,0,1-.4.11A.59.59,0,0,1,128.25,47.22Z" style="fill: #fff"/>
      <path d="M131.61,45.08a1,1,0,0,1,.35.42,1.66,1.66,0,0,1,0,1.26,1,1,0,0,1-.35.42,1,1,0,0,1-1,0,1,1,0,0,1-.35-.42,1.69,1.69,0,0,1,0-1.26,1,1,0,0,1,.35-.42,1,1,0,0,1,1,0Zm-.21,1.79a.65.65,0,0,0,.24-.27,1,1,0,0,0,.09-.47,1,1,0,0,0-.09-.47.63.63,0,0,0-.24-.27.59.59,0,0,0-.61,0,.62.62,0,0,0-.24.27,1,1,0,0,0-.09.47,1.05,1.05,0,0,0,.09.47.64.64,0,0,0,.24.27.58.58,0,0,0,.61,0Z" style="fill: #fff"/>
      <path d="M132.81,47.22a.74.74,0,0,1-.24-.32,1.17,1.17,0,0,1-.08-.45V45.16a.21.21,0,0,1,.05-.15.16.16,0,0,1,.13-.06.16.16,0,0,1,.12.06.22.22,0,0,1,0,.15V46.4q0,.55.42.55a.55.55,0,0,0,.35-.12,1.34,1.34,0,0,0,.29-.32V45.16a.21.21,0,0,1,.05-.15.16.16,0,0,1,.13-.06.16.16,0,0,1,.12.06.22.22,0,0,1,0,.15V47.1a.23.23,0,0,1,0,.15.15.15,0,0,1-.12.06.16.16,0,0,1-.13-.06.22.22,0,0,1-.05-.15v-.19a1.36,1.36,0,0,1-.32.3.71.71,0,0,1-.4.11A.59.59,0,0,1,132.81,47.22Z" style="fill: #fff"/>
      <path d="M135.12,45.82a1.38,1.38,0,0,0,.34.12l.37.13a.6.6,0,0,1,.35.58.64.64,0,0,1-.19.48.75.75,0,0,1-.55.19,1.26,1.26,0,0,1-.7-.2.18.18,0,0,1-.07-.15.2.2,0,0,1,0-.13.13.13,0,0,1,.11-.05l.07,0,.25.1a1,1,0,0,0,.28,0q.43,0,.43-.32a.17.17,0,0,0-.1-.16,1.78,1.78,0,0,0-.32-.12,2.67,2.67,0,0,1-.38-.13.67.67,0,0,1-.25-.21.59.59,0,0,1-.11-.36.71.71,0,0,1,.19-.52.74.74,0,0,1,.56-.2A1.39,1.39,0,0,1,136,45a.15.15,0,0,1,.08.07.21.21,0,0,1,0,.1.19.19,0,0,1,0,.13.14.14,0,0,1-.11.05h0a1.28,1.28,0,0,0-.44-.08.53.53,0,0,0-.33.09.27.27,0,0,0-.12.23A.22.22,0,0,0,135.12,45.82Z" style="fill: #fff"/>
      <path d="M137.83,45.82a1.38,1.38,0,0,0,.34.12l.37.13a.6.6,0,0,1,.35.58.64.64,0,0,1-.19.48.75.75,0,0,1-.55.19,1.26,1.26,0,0,1-.7-.2.18.18,0,0,1-.07-.15.2.2,0,0,1,0-.13.13.13,0,0,1,.11-.05l.07,0,.25.1a1,1,0,0,0,.28,0q.43,0,.43-.32a.17.17,0,0,0-.1-.16,1.78,1.78,0,0,0-.32-.12,2.67,2.67,0,0,1-.38-.13.67.67,0,0,1-.25-.21.59.59,0,0,1-.11-.36.71.71,0,0,1,.19-.52.74.74,0,0,1,.56-.2,1.39,1.39,0,0,1,.56.11.15.15,0,0,1,.08.07.21.21,0,0,1,0,.1.19.19,0,0,1,0,.13.14.14,0,0,1-.11.05h0a1.28,1.28,0,0,0-.44-.08.53.53,0,0,0-.33.09.27.27,0,0,0-.12.23A.22.22,0,0,0,137.83,45.82Z" style="fill: #fff"/>
      <path d="M140.89,46.84a.18.18,0,0,1,0,.13.2.2,0,0,1-.1.17,1.28,1.28,0,0,1-.3.15,1.2,1.2,0,0,1-.38,0,.91.91,0,0,1-.73-.32,1.34,1.34,0,0,1-.26-.89,1.7,1.7,0,0,1,.1-.59,1,1,0,0,1,.31-.44.86.86,0,0,1,1,0,1,1,0,0,1,.32.42,1.48,1.48,0,0,1,.11.57.22.22,0,0,1,0,.15.16.16,0,0,1-.13.06h-1.31a.8.8,0,0,0,.2.49.63.63,0,0,0,.47.18,1,1,0,0,0,.28,0,1.06,1.06,0,0,0,.24-.1l.07,0A.14.14,0,0,1,140.89,46.84Zm-1.06-1.49a.56.56,0,0,0-.21.22.83.83,0,0,0-.1.37h1.14a.82.82,0,0,0-.1-.37.56.56,0,0,0-.21-.22.51.51,0,0,0-.52,0Z" style="fill: #fff"/>
      <path d="M142.5,45a.22.22,0,0,1,0,.15.2.2,0,0,1-.05.14.17.17,0,0,1-.13.05h0a.58.58,0,0,0-.34.11.85.85,0,0,0-.26.29v1.38a.21.21,0,0,1-.05.15.16.16,0,0,1-.12.06.16.16,0,0,1-.12-.06.22.22,0,0,1,0-.15V45.16a.23.23,0,0,1,0-.15.15.15,0,0,1,.12-.06.16.16,0,0,1,.13.06.22.22,0,0,1,.05.15v.19a.75.75,0,0,1,.6-.43h0A.15.15,0,0,1,142.5,45Z" style="fill: #fff"/>
      <path d="M144.41,45a.22.22,0,0,1,.05.15.29.29,0,0,1,0,.1l-.67,1.89a.28.28,0,0,1-.08.12.2.2,0,0,1-.13,0h0a.19.19,0,0,1-.13,0,.28.28,0,0,1-.08-.12l-.67-1.89a.28.28,0,0,1,0-.1.22.22,0,0,1,.05-.15.15.15,0,0,1,.22,0,.19.19,0,0,1,.06.08l.59,1.76.59-1.76a.2.2,0,0,1,.06-.08.15.15,0,0,1,.22,0Z" style="fill: #fff"/>
      <path d="M146.15,45.08a1,1,0,0,1,.35.42,1.66,1.66,0,0,1,0,1.26,1,1,0,0,1-.35.42,1,1,0,0,1-1,0,1,1,0,0,1-.35-.42,1.69,1.69,0,0,1,0-1.26,1,1,0,0,1,.35-.42,1,1,0,0,1,1,0Zm-.21,1.79a.65.65,0,0,0,.24-.27,1,1,0,0,0,.09-.47,1,1,0,0,0-.09-.47.63.63,0,0,0-.24-.27.59.59,0,0,0-.61,0,.62.62,0,0,0-.24.27,1,1,0,0,0-.09.47,1.05,1.05,0,0,0,.09.47.64.64,0,0,0,.24.27.58.58,0,0,0,.61,0Z" style="fill: #fff"/>
    </g>
    <g>
      <path d="M124.78,48.9h2v.63h-1.09v1h1v.61h-1v1.55h-.88Z" style="fill: #fff"/>
      <path d="M127.2,51.91a2,2,0,0,0,.75.14c.42,0,.62-.18.62-.42s-.2-.41-.59-.61c-.62-.31-.86-.71-.86-1,0-.6.49-1.1,1.44-1.1a1.82,1.82,0,0,1,.71.13l-.14.63a1.26,1.26,0,0,0-.58-.13c-.38,0-.56.19-.56.39s.13.34.63.58.82.68.82,1.08c0,.69-.61,1.14-1.5,1.14a2.34,2.34,0,0,1-.87-.15Z" style="fill: #fff"/>
      <path d="M129.94,52.09a2.31,2.31,0,0,0,.4,0,1.16,1.16,0,0,0,.51-.22,1.31,1.31,0,0,0,.42-.73h0a.9.9,0,0,1-.63.22,1,1,0,0,1-1-1.08A1.26,1.26,0,0,1,130.91,49c.82,0,1.24.61,1.24,1.49a2.25,2.25,0,0,1-.72,1.75,2,2,0,0,1-1.08.46,3.47,3.47,0,0,1-.41,0Zm.53-1.89c0,.35.14.64.41.64a.39.39,0,0,0,.34-.19.89.89,0,0,0,0-.38c0-.48-.16-.75-.4-.75S130.47,49.76,130.48,50.2Z" style="fill: #fff"/>
      <path d="M134.91,50.83c0,1.3-.57,1.87-1.28,1.87-1,0-1.28-.91-1.28-1.84s.4-1.87,1.31-1.87S134.91,50,134.91,50.83Zm-1.67,0c0,.85.11,1.23.41,1.23s.37-.4.37-1.23-.09-1.23-.37-1.23S133.23,50,133.24,50.84Z" style="fill: #fff"/>
      <path d="M135.34,49a6.38,6.38,0,0,1,1-.07,2,2,0,0,1,1.21.28.87.87,0,0,1,.36.78,1,1,0,0,1-.7.94h0a.86.86,0,0,1,.55.74,5.16,5.16,0,0,0,.29,1h-.92a4.44,4.44,0,0,1-.22-.9c-.08-.47-.22-.6-.52-.6h-.13v1.5h-.88Zm.88,1.64h.15A.56.56,0,0,0,137,50a.5.5,0,0,0-.55-.56.76.76,0,0,0-.21,0Z" style="fill: #fff"/>
    </g>
  </g>
</svg>