<?xml version="1.0" ?><svg height="13.57mm" viewBox="0 0 22.67 38.46" width="8mm" xmlns="http://www.w3.org/2000/svg">
  <title>Hall Effect Sensor - US1881</title>
  <g data-name="vector lines" id="vector_lines">
    <rect height="22.83" id="connector0pin" style="fill: #b0acb0" width="2.38" x="2.53" y="15.63"/>
    <rect height="22.83" id="connector1pin" style="fill: #b0acb0" width="2.38" x="9.73" y="15.63"/>
    <rect height="22.83" id="connector2pin" style="fill: #b0acb0" width="2.38" x="16.93" y="15.63"/>
  </g>
  <g id="square">
    <rect height="16" rx="0.42" ry="0.42" style="fill: #303030" width="22.67"/>
    <polyline points="0.17 15.76 4.04 13.5 4.04 0" style="fill: none;stroke: #423e3d;stroke-miterlimit: 10;stroke-width: 0.391181111335754px"/>
    <polyline points="17.67 0 17.88 13.5 22.56 15.74" style="fill: none;stroke: #423e3d;stroke-miterlimit: 10;stroke-width: 0.391181111335754px"/>
    <line style="fill: none;stroke: #423e3d;stroke-miterlimit: 10;stroke-width: 0.391181111335754px" x1="17.87" x2="4.04" y1="13.5" y2="13.5"/>
  </g>
  <g data-name="Layer 5" id="Layer_5">
    <g>
      <path d="M4.7,7.7V6a.15.15,0,0,1,0-.11A.15.15,0,0,1,5,6V7.7a.14.14,0,0,0,0,.1.14.14,0,0,0,.1,0h.6a.14.14,0,0,0,.1,0,.14.14,0,0,0,0-.1V6a.15.15,0,0,1,0-.11.15.15,0,0,1,.21,0A.15.15,0,0,1,6.2,6V7.69A.43.43,0,0,1,6.06,8a.43.43,0,0,1-.31.13h-.6A.44.44,0,0,1,4.7,7.7Z" style="fill: #e8e5df"/>
      <path d="M7.22,5.8H8a.39.39,0,0,1,.27.12.38.38,0,0,1,.13.29.14.14,0,0,1,0,.11.14.14,0,0,1-.1,0,.13.13,0,0,1-.1,0,.37.37,0,0,1-.05-.13A.11.11,0,0,0,8,6.11H7.23s-.05,0-.05,0a.08.08,0,0,0,0,0l1.1,1.4a.35.35,0,0,1,.08.22.33.33,0,0,1-.1.23.29.29,0,0,1-.21.1h-.8a.41.41,0,0,1-.39-.39c0-.11.05-.17.15-.17a.14.14,0,0,1,.1,0,.14.14,0,0,1,0,.1.11.11,0,0,0,0,.08.11.11,0,0,0,.08,0H8s0,0,0,0a.07.07,0,0,0,0,0L7,6.36a.35.35,0,0,1-.08-.22A.33.33,0,0,1,7,5.9.32.32,0,0,1,7.22,5.8Z" style="fill: #e8e5df"/>
      <path d="M9.2,7.84h.45V6.1H9.2a.15.15,0,0,1-.1-.25.14.14,0,0,1,.1,0h.74v2h.3V7.23a.14.14,0,0,1,0-.1.15.15,0,0,1,.25.1V8a.15.15,0,0,1-.15.15H9.2a.14.14,0,0,1-.1,0A.15.15,0,0,1,9,8a.14.14,0,0,1,0-.1A.14.14,0,0,1,9.2,7.84Z" style="fill: #e8e5df"/>
      <path d="M11.23,7.84V7.12a.28.28,0,0,1,.09-.21.29.29,0,0,1,.21-.09V6a.15.15,0,0,1,.15-.15h.6a.14.14,0,0,1,.1,0,.14.14,0,0,1,0,.1v.87a.29.29,0,0,1,.21.09.28.28,0,0,1,.09.21v.72a.28.28,0,0,1-.09.21.29.29,0,0,1-.21.09h-.9A.28.28,0,0,1,11.31,8,.29.29,0,0,1,11.23,7.84Zm.3-.72v.72h.9V7.12Zm.3-1v.72h.31V6.1Z" style="fill: #e8e5df"/>
      <path d="M13.4,7.84V7.12a.28.28,0,0,1,.09-.21.29.29,0,0,1,.21-.09V6a.14.14,0,0,1,0-.1.14.14,0,0,1,.11,0h.6a.14.14,0,0,1,.1,0,.14.14,0,0,1,0,.1v.87a.29.29,0,0,1,.21.09.28.28,0,0,1,.09.21v.72a.28.28,0,0,1-.09.21.29.29,0,0,1-.21.09h-.9A.28.28,0,0,1,13.49,8,.29.29,0,0,1,13.4,7.84Zm.3-.72v.72h.9V7.12Zm.3-1v.72h.31V6.1Z" style="fill: #e8e5df"/>
      <path d="M15.73,7.84h.45V6.1h-.45a.15.15,0,0,1-.11-.25.15.15,0,0,1,.11,0h.74v2h.3V7.23a.15.15,0,1,1,.29,0V8a.14.14,0,0,1,0,.1.14.14,0,0,1-.1,0H15.73a.14.14,0,0,1-.1,0,.15.15,0,0,1,0-.11.14.14,0,0,1,0-.1A.14.14,0,0,1,15.73,7.84Z" style="fill: #e8e5df"/>
    </g>
  </g>
  <g id="Connectors">
    <rect data-cir-type="male" height="1.37" id="circuitoCon_Vcc" style="fill: none" width="2.38" x="2.53" y="37.09"/>
    <rect data-cir-type="male" height="1.37" id="circuitoCon_Gnd" style="fill: none" width="2.38" x="9.73" y="37.09"/>
    <rect data-cir-type="male" height="1.37" id="circuitoCon_Vout" style="fill: none" width="1.66" x="17.29" y="37.09"/>
  </g>
</svg>