<?xml version="1.0" ?><svg height="28.88mm" viewBox="0 0 42.93 81.88" width="15.15mm" xmlns="http://www.w3.org/2000/svg">
  <title>NRF24L01 - 2.4G Wireless Transceiver Module</title>
  <g id="BACKGUND">
    <path d="M43.1,82.17V.29H.47V82.17Zm-5-69.5a1.51,1.51,0,1,1,1.51-1.51A1.51,1.51,0,0,1,38.15,12.67ZM38.1,2.45A1.51,1.51,0,1,1,36.59,4,1.51,1.51,0,0,1,38.1,2.45ZM31,12.67a1.51,1.51,0,1,1,1.51-1.51A1.51,1.51,0,0,1,31,12.67ZM30.9,2.45A1.51,1.51,0,1,1,29.39,4,1.51,1.51,0,0,1,30.9,2.45Zm-7.15,0A1.51,1.51,0,1,1,22.24,4,1.51,1.51,0,0,1,23.75,2.45Zm0,7.2a1.51,1.51,0,1,1-1.51,1.51A1.51,1.51,0,0,1,23.75,9.65Zm-7.2-7.2A1.51,1.51,0,1,1,15,4,1.51,1.51,0,0,1,16.55,2.45Zm0,7.2A1.51,1.51,0,1,1,15,11.16,1.51,1.51,0,0,1,16.55,9.65Z" transform="translate(-0.17 -0.29)"/>
  </g>
  <g data-name="BLACK SQUARE" id="BLACK_SQUARE">
    <path d="M.62,20.73V19c4.14-4.19,8.22-4.32,12.23,0" style="fill: none;stroke: #fff;stroke-linecap: round;stroke-linejoin: round;stroke-width: 0.400000005960465px" transform="translate(-0.17 -0.29)"/>
    <g>
      <rect height="0.92" style="fill: #ebeee9" transform="translate(39.3 70.79) rotate(180)" width="1.48" x="18.99" y="35.08"/>
      <rect height="0.92" style="fill: #ebeee9" transform="translate(39.3 67.89) rotate(180)" width="1.48" x="18.99" y="33.63"/>
      <rect height="0.92" style="fill: #ebeee9" transform="translate(39.3 64.98) rotate(180)" width="1.48" x="18.99" y="32.18"/>
      <rect height="0.92" style="fill: #ebeee9" transform="translate(39.3 62.07) rotate(180)" width="1.48" x="18.99" y="30.72"/>
      <rect height="0.92" style="fill: #ebeee9" transform="translate(39.3 59.17) rotate(180)" width="1.48" x="18.99" y="29.27"/>
    </g>
    <g>
      <rect height="0.92" style="fill: #ebeee9" transform="translate(55.23 -2.78) rotate(90)" width="1.48" x="28.2" y="26"/>
      <rect height="0.92" style="fill: #ebeee9" transform="translate(53.78 -1.33) rotate(90)" width="1.48" x="26.75" y="26"/>
      <rect height="0.92" style="fill: #ebeee9" transform="translate(52.33 0.13) rotate(90)" width="1.48" x="25.3" y="26"/>
      <rect height="0.92" style="fill: #ebeee9" transform="translate(50.87 1.58) rotate(90)" width="1.48" x="23.84" y="26"/>
      <rect height="0.92" style="fill: #ebeee9" transform="translate(49.42 3.03) rotate(90)" width="1.48" x="22.39" y="26"/>
    </g>
    <g>
      <rect height="0.92" style="fill: #ebeee9" transform="translate(67.54 9.53) rotate(90)" width="1.48" x="28.2" y="38.31"/>
      <rect height="0.92" style="fill: #ebeee9" transform="translate(66.09 10.99) rotate(90)" width="1.48" x="26.75" y="38.31"/>
      <rect height="0.92" style="fill: #ebeee9" transform="translate(64.64 12.44) rotate(90)" width="1.48" x="25.3" y="38.31"/>
      <rect height="0.92" style="fill: #ebeee9" transform="translate(63.18 13.89) rotate(90)" width="1.48" x="23.84" y="38.31"/>
      <rect height="0.92" style="fill: #ebeee9" transform="translate(61.73 15.35) rotate(90)" width="1.48" x="22.39" y="38.31"/>
    </g>
    <g>
      <rect height="0.92" style="fill: #ebeee9" transform="translate(64.18 70.79) rotate(180)" width="1.48" x="31.43" y="35.08"/>
      <rect height="0.92" style="fill: #ebeee9" transform="translate(64.18 67.89) rotate(180)" width="1.48" x="31.43" y="33.63"/>
      <rect height="0.92" style="fill: #ebeee9" transform="translate(64.18 64.98) rotate(180)" width="1.48" x="31.43" y="32.18"/>
      <rect height="0.92" style="fill: #ebeee9" transform="translate(64.18 62.07) rotate(180)" width="1.48" x="31.43" y="30.72"/>
      <rect height="0.92" style="fill: #ebeee9" transform="translate(64.18 59.17) rotate(180)" width="1.48" x="31.43" y="29.27"/>
    </g>
    <rect height="11.37" style="fill: #212121" transform="translate(51.7 64.92) rotate(180)" width="11.5" x="20.18" y="26.92"/>
    <g>
      <g>
        <polyline points="29.85 38.2 31.71 38.2 31.71 36.22" style="fill: none;stroke: #ebeee9;stroke-miterlimit: 10;stroke-width: 0.400000005960465px"/>
        <polyline points="21.78 38.2 19.92 38.2 19.92 36.22" style="fill: none;stroke: #ebeee9;stroke-miterlimit: 10;stroke-width: 0.400000005960465px"/>
      </g>
      <g>
        <polyline points="21.73 26.43 19.87 26.43 19.87 28.42" style="fill: none;stroke: #ebeee9;stroke-miterlimit: 10;stroke-width: 0.400000005960465px"/>
        <polyline points="29.8 26.43 31.66 26.43 31.66 28.42" style="fill: none;stroke: #ebeee9;stroke-miterlimit: 10;stroke-width: 0.400000005960465px"/>
      </g>
    </g>
    <g>
      <rect height="12.52" rx="6.26" ry="6.26" style="fill: #bcbcbc" transform="translate(37.9 24.92) rotate(90)" width="30.85" x="-9" y="25.38"/>
      <g id="DETAILS">
        <rect height="26.76" rx="4.17" ry="4.17" style="fill: #dbddda" width="8.97" x="1.77" y="17.97"/>
      </g>
    </g>
  </g>
  <g data-name="LINES AROUND" id="LINES_AROUND">
    <circle cx="41.33" cy="1.4" r="0.81" style="fill: #c5b07a"/>
    <path d="M41.77,2.89V14.83H12.68V.9H41.77" style="fill: none;stroke: #ebeee9;stroke-linecap: round;stroke-linejoin: round;stroke-width: 0.5px" transform="translate(-0.17 -0.29)"/>
    <polyline points="41.45 7.23 34.31 7.23 34.31 0.6" style="fill: none;stroke: #ebeee9;stroke-linecap: round;stroke-linejoin: round;stroke-width: 0.5px"/>
    <g>
      <polyline points="9.51 10.67 9.51 13.83 5.11 13.83 5.11 10.67" style="fill: none;stroke: #ebeee9;stroke-linecap: round;stroke-linejoin: round;stroke-width: 0.5px"/>
      <polyline points="5.11 8.56 5.11 5.4 9.51 5.4 9.51 8.56" style="fill: none;stroke: #ebeee9;stroke-linecap: round;stroke-linejoin: round;stroke-width: 0.5px"/>
    </g>
    <g>
      <polyline points="18.38 35.7 18.38 38.87 13.99 38.87 13.99 35.7" style="fill: none;stroke: #ebeee9;stroke-linecap: round;stroke-linejoin: round;stroke-width: 0.5px"/>
      <polyline points="13.99 33.6 13.99 30.43 18.38 30.43 18.38 33.6" style="fill: none;stroke: #ebeee9;stroke-linecap: round;stroke-linejoin: round;stroke-width: 0.5px"/>
    </g>
    <g>
      <polyline points="34.2 54.13 34.2 57.29 33.45 57.29" style="fill: none;stroke: #ebeee9;stroke-linecap: round;stroke-linejoin: round;stroke-width: 0.5px"/>
      <polyline points="29.81 52.02 29.81 48.85 34.2 48.85 34.2 52.02" style="fill: none;stroke: #ebeee9;stroke-linecap: round;stroke-linejoin: round;stroke-width: 0.5px"/>
    </g>
    <g>
      <polyline points="29.41 54.13 29.41 57.29 25.02 57.29 25.02 54.13" style="fill: none;stroke: #ebeee9;stroke-linecap: round;stroke-linejoin: round;stroke-width: 0.5px"/>
      <polyline points="25.02 52.02 25.02 48.85 29.41 48.85 29.41 52.02" style="fill: none;stroke: #ebeee9;stroke-linecap: round;stroke-linejoin: round;stroke-width: 0.5px"/>
    </g>
    <g>
      <polyline points="25.16 54.13 25.16 57.29 20.77 57.29 20.77 54.13" style="fill: none;stroke: #ebeee9;stroke-linecap: round;stroke-linejoin: round;stroke-width: 0.5px"/>
      <polyline points="20.77 52.02 20.77 48.85 25.16 48.85 25.16 52.02" style="fill: none;stroke: #ebeee9;stroke-linecap: round;stroke-linejoin: round;stroke-width: 0.5px"/>
    </g>
    <g>
      <polyline points="16.19 54.13 16.19 57.29 11.6 57.29 11.6 54.13" style="fill: none;stroke: #ebeee9;stroke-linecap: round;stroke-linejoin: round;stroke-width: 0.5px"/>
      <polyline points="11.6 52.02 11.6 48.85 16.19 48.85 16.19 52.02" style="fill: none;stroke: #ebeee9;stroke-linecap: round;stroke-linejoin: round;stroke-width: 0.5px"/>
    </g>
    <g>
      <polyline points="8.55 53.58 8.55 56.75 3.96 56.75 3.96 53.58" style="fill: none;stroke: #ebeee9;stroke-linecap: round;stroke-linejoin: round;stroke-width: 0.5px"/>
      <polyline points="3.96 51.48 3.96 48.31 8.55 48.31 8.55 51.48" style="fill: none;stroke: #ebeee9;stroke-linecap: round;stroke-linejoin: round;stroke-width: 0.5px"/>
    </g>
    <g>
      <polyline points="20.8 54.13 20.8 57.29 16.19 57.29 16.19 54.13" style="fill: none;stroke: #ebeee9;stroke-linecap: round;stroke-linejoin: round;stroke-width: 0.5px"/>
      <polyline points="16.19 52.02 16.19 48.85 20.8 48.85 20.8 52.02" style="fill: none;stroke: #ebeee9;stroke-linecap: round;stroke-linejoin: round;stroke-width: 0.5px"/>
    </g>
    <g>
      <polyline points="39.03 20.93 42.2 20.93 42.2 25.32 39.03 25.32" style="fill: none;stroke: #ebeee9;stroke-linecap: round;stroke-linejoin: round;stroke-width: 0.5px"/>
      <polyline points="36.93 25.32 33.76 25.32 33.76 20.93 36.93 20.93" style="fill: none;stroke: #ebeee9;stroke-linecap: round;stroke-linejoin: round;stroke-width: 0.5px"/>
    </g>
    <g>
      <polyline points="39.03 16.53 42.2 16.53 42.2 20.93 39.03 20.93" style="fill: none;stroke: #ebeee9;stroke-linecap: round;stroke-linejoin: round;stroke-width: 0.5px"/>
      <polyline points="36.93 20.93 33.76 20.93 33.76 16.53 36.93 16.53" style="fill: none;stroke: #ebeee9;stroke-linecap: round;stroke-linejoin: round;stroke-width: 0.5px"/>
    </g>
    <g>
      <polyline points="39.03 27.24 42.2 27.24 42.2 31.64 39.03 31.64" style="fill: none;stroke: #ebeee9;stroke-linecap: round;stroke-linejoin: round;stroke-width: 0.5px"/>
      <polyline points="36.93 31.64 33.76 31.64 33.76 27.24 36.93 27.24" style="fill: none;stroke: #ebeee9;stroke-linecap: round;stroke-linejoin: round;stroke-width: 0.5px"/>
    </g>
    <g>
      <polyline points="39.03 34.02 42.2 34.02 42.2 38.42 39.03 38.42" style="fill: none;stroke: #ebeee9;stroke-linecap: round;stroke-linejoin: round;stroke-width: 0.5px"/>
      <polyline points="36.93 38.42 33.76 38.42 33.76 34.02 36.93 34.02" style="fill: none;stroke: #ebeee9;stroke-linecap: round;stroke-linejoin: round;stroke-width: 0.5px"/>
    </g>
    <g>
      <polyline points="26.46 39.56 29.63 39.56 29.63 43.96 26.46 43.96" style="fill: none;stroke: #ebeee9;stroke-linecap: round;stroke-linejoin: round;stroke-width: 0.5px"/>
      <polyline points="24.36 43.96 21.19 43.96 21.19 39.56 24.36 39.56" style="fill: none;stroke: #ebeee9;stroke-linecap: round;stroke-linejoin: round;stroke-width: 0.5px"/>
    </g>
    <g>
      <polyline points="30.29 44.27 33.45 44.27 33.45 48.67 30.29 48.67" style="fill: none;stroke: #ebeee9;stroke-linecap: round;stroke-linejoin: round;stroke-width: 0.5px"/>
      <polyline points="28.18 48.67 25.02 48.67 25.02 44.27 28.18 44.27" style="fill: none;stroke: #ebeee9;stroke-linecap: round;stroke-linejoin: round;stroke-width: 0.5px"/>
    </g>
    <g>
      <polyline points="39.29 53.6 42.45 53.6 42.45 58 39.29 58" style="fill: none;stroke: #ebeee9;stroke-linecap: round;stroke-linejoin: round;stroke-width: 0.5px"/>
      <polyline points="37.18 58 34.02 58 34.02 53.6 37.18 53.6" style="fill: none;stroke: #ebeee9;stroke-linecap: round;stroke-linejoin: round;stroke-width: 0.5px"/>
    </g>
    <g>
      <polyline points="21.85 44.27 25.02 44.27 25.02 48.67 21.85 48.67" style="fill: none;stroke: #ebeee9;stroke-linecap: round;stroke-linejoin: round;stroke-width: 0.5px"/>
      <polyline points="19.75 48.67 16.58 48.67 16.58 44.27 19.75 44.27" style="fill: none;stroke: #ebeee9;stroke-linecap: round;stroke-linejoin: round;stroke-width: 0.5px"/>
    </g>
    <polyline points="30.29 57.29 29.81 57.29 29.85 53.96" style="fill: none;stroke: #ebeee9;stroke-linecap: round;stroke-linejoin: round;stroke-width: 0.5px"/>
    <g>
      <polyline points="1.72 79.75 12.1 79.75 12.1 68.83 15.64 68.83 15.64 79.75 18.93 79.75 18.93 68.83 22.02 68.83 22.02 79.75 25.43 79.75 25.43 68.83 28.47 68.83 28.47 79.75 32.01 79.75 32.01 63.46 32.01 63.25 32.01 56.75" style="fill: none;stroke: #c5b07a;stroke-linecap: round;stroke-linejoin: round;stroke-width: 2px"/>
      <path d="M12.33,64.42H31.45L31.7,62H12.33A1.23,1.23,0,0,0,12.33,64.42Zm.1-1.67a.46.46,0,1,1-.46.46A.46.46,0,0,1,12.43,62.75Z" style="fill: #c5b07a" transform="translate(-0.17 -0.29)"/>
    </g>
    <circle cx="2.03" cy="76.8" r="0.56" style="fill: #c5b07a"/>
    <g>
      <g>
        <path d="M14.88,51.57h-2a1,1,0,0,1,0-1.94h2a1,1,0,0,1,0,1.94Z" style="fill: #bcbcbc" transform="translate(-0.17 -0.29)"/>
        <path d="M14.88,56.75h-2a1,1,0,0,1,0-1.94h2a1,1,0,0,1,0,1.94Z" style="fill: #bcbcbc" transform="translate(-0.17 -0.29)"/>
        <rect height="5.17" rx="0.58" ry="0.58" style="fill: #edf1f6" width="2.17" x="12.58" y="50.31"/>
      </g>
      <rect height="2.43" style="fill: #b5986b" width="2.17" x="12.58" y="51.64"/>
    </g>
    <g>
      <g>
        <path d="M19.32,51.73h-2a1,1,0,0,1,0-1.94h2a1,1,0,0,1,0,1.94Z" style="fill: #bcbcbc" transform="translate(-0.17 -0.29)"/>
        <path d="M19.32,56.91h-2a1,1,0,0,1,0-1.94h2a1,1,0,0,1,0,1.94Z" style="fill: #bcbcbc" transform="translate(-0.17 -0.29)"/>
        <rect height="5.17" rx="0.58" ry="0.58" style="fill: #edf1f6" width="2.17" x="17.01" y="50.47"/>
      </g>
      <rect height="2.43" style="fill: #968b8c" width="2.17" x="17.01" y="51.79"/>
    </g>
    <g>
      <g>
        <path d="M7.41,51.47h-2a1,1,0,0,1,0-1.94h2a1,1,0,0,1,0,1.94Z" style="fill: #bcbcbc" transform="translate(-0.17 -0.29)"/>
        <path d="M7.41,56.65h-2a1,1,0,0,1,0-1.94h2a1,1,0,0,1,0,1.94Z" style="fill: #bcbcbc" transform="translate(-0.17 -0.29)"/>
        <rect height="5.17" rx="0.58" ry="0.58" style="fill: #edf1f6" width="2.17" x="5.1" y="50.21"/>
      </g>
      <rect height="2.43" style="fill: #968b8c" width="2.17" x="5.1" y="51.53"/>
    </g>
    <g>
      <g>
        <path d="M8.46,8h-2a.9.9,0,0,1-.8-1,.9.9,0,0,1,.8-1h2a.9.9,0,0,1,.8,1A.9.9,0,0,1,8.46,8Z" style="fill: #bcbcbc" transform="translate(-0.17 -0.29)"/>
        <path d="M8.46,13.21h-2a.9.9,0,0,1-.8-1,.9.9,0,0,1,.8-1h2a.9.9,0,0,1,.8,1A.9.9,0,0,1,8.46,13.21Z" style="fill: #bcbcbc" transform="translate(-0.17 -0.29)"/>
        <rect height="5.17" rx="0.58" ry="0.58" style="fill: #edf1f6" width="2.17" x="6.15" y="6.77"/>
      </g>
      <rect height="2.43" style="fill: #968b8c" width="2.17" x="6.15" y="8.1"/>
    </g>
    <g>
      <g>
        <path d="M23.93,51.73H22a1,1,0,0,1,0-1.94h2a1,1,0,0,1,0,1.94Z" style="fill: #bcbcbc" transform="translate(-0.17 -0.29)"/>
        <path d="M23.93,56.91H22A1,1,0,0,1,22,55h2a1,1,0,0,1,0,1.94Z" style="fill: #bcbcbc" transform="translate(-0.17 -0.29)"/>
        <rect height="5.17" rx="0.58" ry="0.58" style="fill: #edf1f6" width="2.17" x="21.62" y="50.47"/>
      </g>
      <rect height="2.43" style="fill: #968b8c" width="2.17" x="21.62" y="51.79"/>
    </g>
    <g>
      <g>
        <path d="M33,51.73H31a1,1,0,0,1,0-1.94h2a1,1,0,0,1,0,1.94Z" style="fill: #bcbcbc" transform="translate(-0.17 -0.29)"/>
        <path d="M33,56.91H31A1,1,0,0,1,31,55h2a1,1,0,0,1,0,1.94Z" style="fill: #bcbcbc" transform="translate(-0.17 -0.29)"/>
        <rect height="5.17" rx="0.58" ry="0.58" style="fill: #edf1f6" width="2.17" x="30.72" y="50.47"/>
      </g>
      <rect height="2.43" style="fill: #968b8c" width="2.17" x="30.72" y="51.79"/>
    </g>
    <g>
      <g>
        <path d="M27.83,45.75v2a1,1,0,0,1-1.94,0v-2a1,1,0,0,1,1.94,0Z" style="fill: #bcbcbc" transform="translate(-0.17 -0.29)"/>
        <path d="M33,45.75v2a1,1,0,0,1-1.94,0v-2a1,1,0,0,1,1.94,0Z" style="fill: #bcbcbc" transform="translate(-0.17 -0.29)"/>
        <rect height="5.17" rx="0.58" ry="0.58" style="fill: #edf1f6" transform="translate(-17.53 75.96) rotate(-90)" width="2.17" x="28.36" y="44.22"/>
      </g>
      <rect height="2.43" style="fill: #e6e6e6" transform="translate(-17.58 75.91) rotate(-90)" width="2.17" x="28.31" y="45.6"/>
    </g>
    <g>
      <g>
        <path d="M19.4,45.75v2a1,1,0,0,1-1.94,0v-2a1,1,0,0,1,1.94,0Z" style="fill: #bcbcbc" transform="translate(-0.17 -0.29)"/>
        <path d="M24.57,45.75v2a1,1,0,0,1-1.94,0v-2a1,1,0,0,1,1.94,0Z" style="fill: #bcbcbc" transform="translate(-0.17 -0.29)"/>
        <rect height="5.17" rx="0.58" ry="0.58" style="fill: #edf1f6" transform="translate(-25.96 67.53) rotate(-90)" width="2.17" x="19.93" y="44.22"/>
      </g>
      <rect height="2.43" style="fill: #e6e6e6" transform="translate(-26.01 67.48) rotate(-90)" width="2.17" x="19.88" y="45.6"/>
    </g>
    <g>
      <g>
        <path d="M23.71,41.07v2a1,1,0,0,1-1.94,0v-2a1,1,0,0,1,1.94,0Z" style="fill: #bcbcbc" transform="translate(-0.17 -0.29)"/>
        <path d="M28.89,41.07v2a1,1,0,0,1-1.94,0v-2a1,1,0,0,1,1.94,0Z" style="fill: #bcbcbc" transform="translate(-0.17 -0.29)"/>
        <rect height="5.17" rx="0.58" ry="0.58" style="fill: #edf1f6" transform="translate(-16.96 67.15) rotate(-90)" width="2.17" x="24.24" y="39.53"/>
      </g>
      <rect height="2.43" style="fill: #e6e6e6" transform="translate(-17.01 67.1) rotate(-90)" width="2.17" x="24.19" y="40.91"/>
    </g>
    <g>
      <g>
        <path d="M36.5,28.74v2a1,1,0,0,1-1.94,0v-2a1,1,0,0,1,1.94,0Z" style="fill: #bcbcbc" transform="translate(-0.17 -0.29)"/>
        <path d="M41.68,28.74v2a1,1,0,0,1-1.94,0v-2a1,1,0,0,1,1.94,0Z" style="fill: #bcbcbc" transform="translate(-0.17 -0.29)"/>
        <rect height="5.17" rx="0.58" ry="0.58" style="fill: #edf1f6" transform="translate(8.16 67.62) rotate(-90)" width="2.17" x="37.03" y="27.21"/>
      </g>
      <rect height="2.43" style="fill: #c4a977" transform="translate(8.11 67.57) rotate(-90)" width="2.17" x="36.98" y="28.58"/>
    </g>
    <g>
      <g>
        <path d="M36.5,22.31v2a1,1,0,0,1-1.94,0v-2a1,1,0,0,1,1.94,0Z" style="fill: #bcbcbc" transform="translate(-0.17 -0.29)"/>
        <path d="M41.68,22.31v2a1,1,0,0,1-1.94,0v-2a1,1,0,0,1,1.94,0Z" style="fill: #bcbcbc" transform="translate(-0.17 -0.29)"/>
        <rect height="5.17" rx="0.58" ry="0.58" style="fill: #edf1f6" transform="translate(14.59 61.19) rotate(-90)" width="2.17" x="37.03" y="20.78"/>
      </g>
      <rect height="2.43" style="fill: #c4a977" transform="translate(14.54 61.14) rotate(-90)" width="2.17" x="36.98" y="22.15"/>
    </g>
    <g>
      <g>
        <path d="M36.5,18v2a1,1,0,0,1-1.94,0V18a1,1,0,0,1,1.94,0Z" style="fill: #bcbcbc" transform="translate(-0.17 -0.29)"/>
        <path d="M41.68,18v2a1,1,0,0,1-1.94,0V18a1,1,0,0,1,1.94,0Z" style="fill: #bcbcbc" transform="translate(-0.17 -0.29)"/>
        <rect height="5.17" rx="0.58" ry="0.58" style="fill: #edf1f6" transform="translate(18.86 56.92) rotate(-90)" width="2.17" x="37.03" y="16.5"/>
      </g>
      <rect height="2.43" style="fill: #c4a977" transform="translate(18.81 56.86) rotate(-90)" width="2.17" x="36.98" y="17.88"/>
    </g>
    <g>
      <g>
        <path d="M36.5,35.37v1.89a.95.95,0,0,1-1.86,0V35.37a.95.95,0,0,1,1.86,0Z" style="fill: #bcbcbc" transform="translate(-0.17 -0.29)"/>
        <path d="M41.45,35.37v1.89a.95.95,0,0,1-1.86,0V35.37a.95.95,0,0,1,1.86,0Z" style="fill: #bcbcbc" transform="translate(-0.17 -0.29)"/>
        <rect height="4.95" rx="0.58" ry="0.58" style="fill: #e2e2e2" transform="translate(1.5 74.13) rotate(-90)" width="2.08" x="37.01" y="33.9"/>
      </g>
      <rect height="2.32" style="fill: #020202" transform="translate(1.45 74.09) rotate(-90)" width="2.08" x="36.96" y="35.22"/>
    </g>
    <g>
      <g>
        <path d="M15.22,36.63h1.89a.95.95,0,0,1,0,1.86H15.22a.95.95,0,0,1,0-1.86Z" style="fill: #bcbcbc" transform="translate(-0.17 -0.29)"/>
        <path d="M15.22,31.68h1.89a.95.95,0,0,1,0,1.86H15.22a.95.95,0,0,1,0-1.86Z" style="fill: #bcbcbc" transform="translate(-0.17 -0.29)"/>
        <rect height="4.95" rx="0.58" ry="0.58" style="fill: #e2e2e2" transform="translate(32.29 69.88) rotate(180)" width="2.08" x="15.19" y="32.61"/>
      </g>
      <rect height="2.32" style="fill: #020202" transform="translate(32.29 69.97) rotate(180)" width="2.08" x="15.19" y="33.97"/>
    </g>
    <rect height="2.65" style="fill: #989696" transform="translate(54.59 110.87) rotate(180)" width="2.65" x="26.05" y="54.25"/>
    <rect height="2.65" style="fill: #989696" transform="translate(54.59 102.65) rotate(180)" width="2.65" x="26.05" y="50.15"/>
    <rect height="2.65" style="fill: #989696" transform="translate(96.41 15.32) rotate(90)" width="2.65" x="39.16" y="54.77"/>
    <rect height="2.65" style="fill: #989696" transform="translate(92.31 19.42) rotate(90)" width="2.65" x="35.05" y="54.77"/>
    <path d="M12.68,43.21V45C8.54,49.14,4.47,49.28.45,45" style="fill: none;stroke: #fff;stroke-linecap: round;stroke-linejoin: round;stroke-width: 0.400000005960465px" transform="translate(-0.17 -0.29)"/>
  </g>
  <g id="TEXT">
    <g>
      <path d="M27.4,29.73a.08.08,0,0,1,.09.09c0,.07,0,.09-.09.09H26v-.25l1.13-.49h-1a.09.09,0,0,1,0-.19H27.5v.25l-1.14.49h1Z" style="fill: #3b3b39" transform="translate(-0.17 -0.29)"/>
      <path d="M26.13,30.53a.09.09,0,0,1,0-.19H27.5V31a.28.28,0,0,1-.27.3H27.1a.27.27,0,0,1-.27-.3V30.8l-.6.42a.19.19,0,0,1-.1,0,.09.09,0,0,1-.09-.1.1.1,0,0,1,.05-.08l.74-.52v0Zm.88,0v.42c0,.05,0,.13.08.13h.13c.08,0,.08-.08.08-.13v-.42Z" style="fill: #3b3b39" transform="translate(-0.17 -0.29)"/>
    </g>
    <path d="M27.5,35.62v.24H26.13c-.06,0-.09,0-.09-.09a.08.08,0,0,1,.09-.09h1.11L27,35.49h0c-.06,0-.11,0-.11-.09s.05-.09.11-.09h0l.27-.18H26.13a.09.09,0,0,1,0-.19H27.5v.23l-.33.23Z" style="fill: #3b3b39" transform="translate(-0.17 -0.29)"/>
    <g>
      <path d="M23.6,29.18v.65a.09.09,0,1,1-.19,0V29H24a.19.19,0,0,1,.21.21v.53h.45v-.65a.09.09,0,1,1,.19,0v.62a.19.19,0,0,1-.05.15.2.2,0,0,1-.17.06h-.38a.19.19,0,0,1-.22-.21v-.53Z" style="fill: #3b3b39" transform="translate(-0.17 -0.29)"/>
      <path d="M24.08,31h.54a.09.09,0,0,1,0,.19h-.54a.09.09,0,1,1-.19,0h-.38a.09.09,0,0,1,0-.19h.38v-.55h.89a.09.09,0,1,1,0,.19h-.7Z" style="fill: #3b3b39" transform="translate(-0.17 -0.29)"/>
      <path d="M23.6,32.52a.09.09,0,1,1-.19,0v-.83h1.37a.09.09,0,0,1,0,.19H23.6Z" style="fill: #3b3b39" transform="translate(-0.17 -0.29)"/>
    </g>
    <g>
      <path d="M24.87,33.94a.19.19,0,0,1-.19.19H23.6a.19.19,0,0,1-.19-.19v-.55a.19.19,0,0,1,.19-.19h1.08a.19.19,0,0,1,.19.19Zm-1.27,0h1.08v-.55H23.6Z" style="fill: #3b3b39" transform="translate(-0.17 -0.29)"/>
      <path d="M23.6,35.29H24a.09.09,0,1,1,0,.19h-.47a.09.09,0,0,1-.09-.09v-.74a.09.09,0,0,1,.19,0v.28h1.08v-.28a.09.09,0,0,1,.19,0v.46H23.6Z" style="fill: #3b3b39" transform="translate(-0.17 -0.29)"/>
    </g>
    <g>
      <path d="M21.2,29.47h.38a.09.09,0,0,1,.09.1c0,.07,0,.1-.09.1h-.47a.09.09,0,0,1-.09-.1v-.78a.09.09,0,1,1,.19,0v.29h1.08v-.29a.09.09,0,1,1,.19,0v.49H21.2Z" style="fill: #3b3b39" transform="translate(-0.17 -0.29)"/>
      <path d="M21.84,30.51v.36a.21.21,0,0,1-.05.16.18.18,0,0,1-.16.06h-.4a.19.19,0,0,1-.15,0,.2.2,0,0,1-.06-.17v-.44a.29.29,0,0,1,0-.13l0-.08c0-.05,0-.11.11-.11a.1.1,0,0,1,.09.09.16.16,0,0,1,0,.06l0,.06a.33.33,0,0,0,0,.11v.46h.45v-.58h.82V31a.09.09,0,1,1-.19,0v-.49Z" style="fill: #3b3b39" transform="translate(-0.17 -0.29)"/>
      <path d="M21.2,31.75v.68a.09.09,0,1,1-.19,0v-.88h.61c.14,0,.21.08.21.22v.56h.45v-.68a.09.09,0,1,1,.19,0v.66a.21.21,0,0,1-.05.16.19.19,0,0,1-.17.06h-.38a.19.19,0,0,1-.17-.06.22.22,0,0,1-.05-.16v-.56Z" style="fill: #3b3b39" transform="translate(-0.17 -0.29)"/>
      <path d="M21.84,33.37v.36a.21.21,0,0,1-.05.16.18.18,0,0,1-.16.06h-.4a.19.19,0,0,1-.15,0,.2.2,0,0,1-.06-.17V33.3a.29.29,0,0,1,0-.13l0-.08c0-.05,0-.11.11-.11a.1.1,0,0,1,.09.09.16.16,0,0,1,0,.06l0,.06a.33.33,0,0,0,0,.11v.46h.45v-.58h.82v.68a.09.09,0,1,1-.19,0v-.49Z" style="fill: #3b3b39" transform="translate(-0.17 -0.29)"/>
      <path d="M22.38,34.8c.05,0,.1,0,.1.1s0,.09-.1.1l-1.27.38s-.09,0-.09-.1a.11.11,0,0,1,.09-.11l.23-.07v-.42l-.23-.08A.12.12,0,0,1,21,34.5c0-.06,0-.11.09-.09Zm-.35.1h0l-.51-.15v.31Z" style="fill: #3b3b39" transform="translate(-0.17 -0.29)"/>
      <path d="M21.65,36h-.54c-.06,0-.09,0-.09-.1s0-.1.09-.1h1.27c.06,0,.09,0,.09.1s0,.1-.09.1h-.54v.58h.54c.06,0,.09,0,.09.1s0,.1-.09.1H21.11c-.06,0-.09,0-.09-.1s0-.1.09-.1h.54Z" style="fill: #3b3b39" transform="translate(-0.17 -0.29)"/>
    </g>
    <g>
      <g>
        <path d="M8.09,34.54a.4.4,0,0,1-.41.39H5.32a.39.39,0,0,1-.41-.39V33.4A.39.39,0,0,1,5.32,33H7.69a.4.4,0,0,1,.41.39Zm-2.77,0H7.69V33.4H5.32Z" style="fill: #c9baab" transform="translate(-0.17 -0.29)"/>
        <path d="M8.09,37.34a.4.4,0,0,1-.41.39H5.32a.39.39,0,0,1-.41-.39V36.2a.39.39,0,0,1,.41-.39H7.69a.4.4,0,0,1,.41.39Zm-2.77,0H7.69V36.2H5.32Z" style="fill: #c9baab" transform="translate(-0.17 -0.29)"/>
        <path d="M8.09,40.14a.4.4,0,0,1-.41.39H5.32a.39.39,0,0,1-.41-.39V39a.39.39,0,0,1,.41-.39H7.69a.4.4,0,0,1,.41.39Zm-2.77,0H7.69V39H5.32Z" style="fill: #c9baab" transform="translate(-0.17 -0.29)"/>
      </g>
      <g>
        <path d="M5.32,25.28h.83c.12,0,.2.05.2.19s-.09.19-.2.19h-1a.18.18,0,0,1-.2-.19V23.95a.2.2,0,0,1,.41,0v.57H7.69v-.57a.2.2,0,0,1,.41,0v1H5.32Z" style="fill: #c9baab" transform="translate(-0.17 -0.29)"/>
        <path d="M6.36,26.94v1.3c0,.19-.09.23-.27.23H5.17c-.19,0-.26-.08-.26-.25V26.8c0-.18.07-.25.26-.25H7.89c.09,0,.21,0,.21.17V27a.2.2,0,0,1-.21.18.19.19,0,0,1-.2-.19Zm-.41,0H5.32v1.14H6Z" style="fill: #c9baab" transform="translate(-0.17 -0.29)"/>
        <path d="M5.44,30.17c0-.09,0-.15.08-.2a.27.27,0,0,1,.18,0h.23a.27.27,0,0,1,.18,0c.08.05.08.12.08.2v.28c0,.09,0,.15-.08.2a.27.27,0,0,1-.18,0H5.7a.27.27,0,0,1-.18,0c-.08-.05-.08-.12-.08-.2Z" style="fill: #c9baab" transform="translate(-0.17 -0.29)"/>
      </g>
    </g>
    <g>
      <path d="M38.71,36h-.3s0,0,0-.06,0-.06,0-.06h.39v.4c0,.09,0,.14-.1.14h-.25v.29h.3s0,0,0,.06,0,.06,0,.06h-.29a.08.08,0,0,1-.07,0,.16.16,0,0,1,0-.11v-.25a.16.16,0,0,1,0-.11.08.08,0,0,1,.07,0h.25Z" style="fill: #fff" transform="translate(-0.17 -0.29)"/>
      <path d="M38.08,36h-.3s0,0,0-.06,0-.06,0-.06h.39v.4c0,.09,0,.14-.1.14h-.25v.29h.3s0,0,0,.06,0,.06,0,.06h-.29a.08.08,0,0,1-.07,0,.16.16,0,0,1,0-.11v-.25a.16.16,0,0,1,0-.11.08.08,0,0,1,.07,0h.25Z" style="fill: #fff" transform="translate(-0.17 -0.29)"/>
      <path d="M37.49,36.74s0,0,0,.06,0,.06,0,.06h-.3s-.09-.05-.09-.12v-.23a.22.22,0,0,0,0-.24V36c0-.07,0-.12.09-.12h.3s0,0,0,.06,0,.06,0,.06h-.3v.2c0,.07,0,.09,0,.09h.17s0,0,0,.06,0,.06,0,.06h-.17s0,0,0,.09v.2Z" style="fill: #fff" transform="translate(-0.17 -0.29)"/>
    </g>
    <g>
      <path d="M16.59,34.37s0,0,.06,0,.06,0,.06,0v.3c0,.05-.05.09-.12.09h-.23a.17.17,0,0,1-.12,0,.17.17,0,0,1-.12,0h-.23c-.07,0-.12,0-.12-.09v-.3s0,0,.06,0,.06,0,.06,0v.3h.2c.07,0,.09,0,.09,0v-.17s0,0,.06,0,.06,0,.06,0v.17s0,0,.09,0h.2Z" style="fill: #fff" transform="translate(-0.17 -0.29)"/>
      <path d="M15.88,35.31h.25s.06,0,.06,0,0,0-.06,0h-.31s-.06,0-.06,0V35s0,0,.06,0,.06,0,.06,0v.13h.71V35s0,0,.06,0,.06,0,.06,0v.22h-.83Z" style="fill: #fff" transform="translate(-0.17 -0.29)"/>
      <path d="M16.71,35.94s-.06.09-.12.09h-.71c-.07,0-.12,0-.12-.09v-.26c0-.05.05-.09.12-.09h.71c.07,0,.12,0,.12.09Zm-.83,0h.71v-.26h-.71Z" style="fill: #fff" transform="translate(-0.17 -0.29)"/>
    </g>
  </g>
  <g id="Connectors">
    <path d="M38.15,13.55a2.39,2.39,0,1,0-2.39-2.39A2.39,2.39,0,0,0,38.15,13.55Zm0-3.59a1.2,1.2,0,1,1-1.2,1.2A1.2,1.2,0,0,1,38.15,10Z" data-name="8" id="_8" style="fill: #e8e5df" transform="translate(-0.17 -0.29)"/>
    <path d="M30.95,13.55a2.39,2.39,0,1,0-2.39-2.39A2.39,2.39,0,0,0,30.95,13.55Zm0-3.59a1.2,1.2,0,1,1-1.19,1.2A1.2,1.2,0,0,1,30.95,10Z" data-name="7" id="_7" style="fill: #e8e5df" transform="translate(-0.17 -0.29)"/>
    <path d="M23.75,13.55a2.39,2.39,0,1,0-2.39-2.39A2.39,2.39,0,0,0,23.75,13.55Zm0-3.59a1.2,1.2,0,1,1-1.19,1.2A1.2,1.2,0,0,1,23.75,10Z" data-name="6" id="_6" style="fill: #e8e5df" transform="translate(-0.17 -0.29)"/>
    <path d="M16.55,13.55a2.39,2.39,0,1,0-2.39-2.39A2.39,2.39,0,0,0,16.55,13.55Zm0-3.59a1.2,1.2,0,1,1-1.2,1.2A1.2,1.2,0,0,1,16.55,10Z" data-name="5" id="_5" style="fill: #e8e5df" transform="translate(-0.17 -0.29)"/>
    <path d="M38.15,6.35A2.39,2.39,0,1,0,35.76,4,2.39,2.39,0,0,0,38.15,6.35Zm0-3.59A1.2,1.2,0,1,1,37,4,1.2,1.2,0,0,1,38.15,2.76Z" data-name="4" id="_4" style="fill: #e8e5df" transform="translate(-0.17 -0.29)"/>
    <path d="M30.95,6.35A2.39,2.39,0,1,0,28.56,4,2.39,2.39,0,0,0,30.95,6.35Zm0-3.59A1.2,1.2,0,1,1,29.75,4,1.2,1.2,0,0,1,30.95,2.76Z" data-name="3" id="_3" style="fill: #e8e5df" transform="translate(-0.17 -0.29)"/>
    <path d="M23.75,6.35A2.39,2.39,0,1,0,21.36,4,2.39,2.39,0,0,0,23.75,6.35Zm0-3.59A1.2,1.2,0,1,1,22.55,4,1.2,1.2,0,0,1,23.75,2.76Z" data-name="2" id="_2" style="fill: #e8e5df" transform="translate(-0.17 -0.29)"/>
    <path d="M16.55,6.35A2.39,2.39,0,1,0,14.16,4,2.39,2.39,0,0,0,16.55,6.35Zm0-3.59A1.2,1.2,0,1,1,15.35,4,1.2,1.2,0,0,1,16.55,2.76Z" data-name="1" id="_1" style="fill: #e8e5df" transform="translate(-0.17 -0.29)"/>
    <circle cx="37.98" cy="10.87" data-cir-type="female" id="circuitoCon_VCC" r="1.2" style="fill: none"/>
    <circle cx="37.98" cy="3.67" data-cir-type="female" id="circuitoCon_GND" r="1.2" style="fill: none"/>
    <circle cx="30.78" cy="3.67" data-cir-type="female" id="circuitoCon_CE" r="1.2" style="fill: none"/>
    <circle cx="30.78" cy="10.87" data-cir-type="female" id="circuitoCon_CS" r="1.2" style="fill: none"/>
    <circle cx="23.55" cy="10.89" data-cir-type="female" id="circuitoCon_MOSI" r="1.2" style="fill: none"/>
    <circle cx="23.55" cy="3.69" data-cir-type="female" id="circuitoCon_SCK" r="1.2" style="fill: none"/>
    <circle cx="16.35" cy="3.69" data-cir-type="female" id="circuitoCon_MISO" r="1.2" style="fill: none"/>
    <circle cx="16.35" cy="10.89" data-cir-type="female" id="circuitoCon_IRQ" r="1.2" style="fill: none"/>
  </g>
</svg>