<?xml version="1.0" ?><svg height="83.84mm" viewBox="0 0 161.77 237.65" width="57.07mm" xmlns="http://www.w3.org/2000/svg">
  <title>ResistiveTouch</title>
  <g data-name="Layer 3" id="Layer_3">
    <path d="M82.64,177.73H17.39a6.67,6.67,0,0,0-6.66,6.67V231a6.66,6.66,0,0,0,6.66,6.67H82.64A6.67,6.67,0,0,0,89.31,231V184.4A6.67,6.67,0,0,0,82.64,177.73Zm-32,46.05a1.46,1.46,0,1,1-1.46,1.45A1.45,1.45,0,0,1,50.59,223.78ZM42.06,195a1.46,1.46,0,1,1-1.46,1.46A1.45,1.45,0,0,1,42.06,195Zm1.21,15.84a1.46,1.46,0,1,1-1.46-1.46A1.46,1.46,0,0,1,43.27,210.79ZM28.26,181a2.12,2.12,0,1,1-2.12,2.12A2.12,2.12,0,0,1,28.26,181Zm.24,33.64A1.46,1.46,0,1,1,30,213.22,1.45,1.45,0,0,1,28.5,214.68ZM30,216.75a1.46,1.46,0,1,1-1.46-1.45A1.46,1.46,0,0,1,30,216.75ZM14,233.51a2.12,2.12,0,1,1,2.12-2.12A2.12,2.12,0,0,1,14,233.51Zm3.26-44a4.22,4.22,0,1,1,4.21-4.22A4.22,4.22,0,0,1,17.27,189.5Zm4,44a2.12,2.12,0,1,1,2.13-2.12A2.12,2.12,0,0,1,21.24,233.51Zm3.8-6.43a1.46,1.46,0,1,1,1.45-1.45A1.45,1.45,0,0,1,25,227.08Zm3.46,6.43a2.12,2.12,0,1,1,2.12-2.12A2.12,2.12,0,0,1,28.5,233.51ZM35.43,181a2.12,2.12,0,1,1-2.12,2.12A2.12,2.12,0,0,1,35.43,181Zm.25,52.47a2.12,2.12,0,1,1,2.12-2.12A2.12,2.12,0,0,1,35.68,233.51Zm3.22-26.35a1.46,1.46,0,1,1,1.45,1.46A1.45,1.45,0,0,1,38.9,207.16Zm.91,8.55a1.46,1.46,0,1,1,1.46,1.45A1.46,1.46,0,0,1,39.81,215.71Zm2.91,17.8a2.12,2.12,0,1,1,2.12-2.12A2.12,2.12,0,0,1,42.72,233.51Zm1.82-16.76A1.46,1.46,0,1,1,46,218.21,1.45,1.45,0,0,1,44.54,216.75Zm2.39,9.94a1.46,1.46,0,1,1,1.46-1.46A1.45,1.45,0,0,1,46.93,226.69Zm3.31,6.82a2.12,2.12,0,1,1,2.12-2.12A2.12,2.12,0,0,1,50.24,233.51Zm6-32.76a1.46,1.46,0,1,1-1.45,1.46A1.46,1.46,0,0,1,56.24,200.75Zm1,32.76a2.12,2.12,0,1,1,2.12-2.12A2.12,2.12,0,0,1,57.27,233.51ZM58,212.24a1.46,1.46,0,1,1,1.45-1.45A1.46,1.46,0,0,1,58,212.24Zm2.1-8.58a1.46,1.46,0,1,1,1.45,1.46A1.45,1.45,0,0,1,60.14,203.66Zm4.37,29.85a2.12,2.12,0,1,1,2.12-2.12A2.12,2.12,0,0,1,64.51,233.51Zm.82-48.23a2.12,2.12,0,1,1,2.12-2.12A2.12,2.12,0,0,1,65.33,185.28Zm6.35,48.23a2.12,2.12,0,1,1,2.12-2.12A2.12,2.12,0,0,1,71.68,233.51Zm.85-48.23a2.12,2.12,0,1,1,2.12-2.12A2.12,2.12,0,0,1,72.53,185.28Zm6.57,48.23a2.12,2.12,0,1,1,2.12-2.12A2.12,2.12,0,0,1,79.1,233.51Zm1.46-26.09A1.46,1.46,0,1,1,82,206,1.46,1.46,0,0,1,80.56,207.42Zm-2.08-22.71a4.22,4.22,0,1,1,4.21,4.21A4.21,4.21,0,0,1,78.48,184.71Zm7.59,48.8a2.12,2.12,0,1,1,2.12-2.12A2.12,2.12,0,0,1,86.07,233.51Z" style="fill: #1a2c80"/>
    <polyline points="74.5 221.65 79.27 226.28 79.27 229.44" style="fill: none;stroke: #0b5597;stroke-linecap: round;stroke-linejoin: round;stroke-width: 0.75px"/>
    <polyline points="81.63 221.65 86.07 226.15 86.07 229.44" style="fill: none;stroke: #0b5597;stroke-linecap: round;stroke-linejoin: round;stroke-width: 0.75px"/>
    <polyline points="81.31 219.9 81.31 214.54 84.31 214.54 84.31 209.38 78.35 209.38" style="fill: none;stroke: #0b5597;stroke-linecap: round;stroke-linejoin: round;stroke-width: 0.75px"/>
    <polyline points="70.19 206.1 70.19 211.48 72.92 214.22 71.68 216.1 71.68 229.4" style="fill: none;stroke: #0b5597;stroke-linecap: round;stroke-linejoin: round;stroke-width: 0.75px"/>
    <polyline points="64.48 229.4 67.98 225.98 67.98 209.02 62.89 209.02 60.27 206.39 53.98 206.39" style="fill: none;stroke: #0b5597;stroke-linecap: round;stroke-linejoin: round;stroke-width: 0.75px"/>
    <polyline points="53.98 207.62 58.98 207.62 61.74 210.38 66.53 210.38 66.53 224.65 63.9 227.28 61.14 227.28 58.59 229.84" style="fill: none;stroke: #0b5597;stroke-linecap: round;stroke-linejoin: round;stroke-width: 0.75px"/>
    <polyline points="51.74 230.27 56.13 225.89 59.41 225.89 59.98 225.32 63.64 225.32 65.02 223.94 65.02 212.28 59.98 212.28 58.42 213.84 54.77 213.84 54.77 212.28 53.31 211.29" style="fill: none;stroke: #0b5597;stroke-linecap: round;stroke-linejoin: round;stroke-width: 0.75px"/>
    <polyline points="50.94 211.87 50.94 214.54 52.91 216.51 55.82 216.51 56.76 217.45 56.76 219.9" style="fill: none;stroke: #0b5597;stroke-linecap: round;stroke-linejoin: round;stroke-width: 0.75px"/>
    <polyline points="44.07 229.84 46.38 227.53 52.27 227.53 55.38 224.41 58.56 224.41 59.39 223.59 62.64 223.59 63.6 222.9 63.6 217.28 63.08 216.75" style="fill: none;stroke: #0b5597;stroke-linecap: round;stroke-linejoin: round;stroke-width: 0.75px"/>
    <polyline points="35.44 229.4 35.44 228.09 39.98 223.86 39.98 221.07" style="fill: none;stroke: #0b5597;stroke-linecap: round;stroke-linejoin: round;stroke-width: 0.75px"/>
    <polyline points="24.68 221.07 24.68 223.9 36.23 223.9 36.23 221.37" style="fill: none;stroke: #0b5597;stroke-linecap: round;stroke-linejoin: round;stroke-width: 0.75px"/>
    <polyline points="13.73 229.4 13.73 226.57 19.3 220.99" style="fill: none;stroke: #0b5597;stroke-linecap: round;stroke-linejoin: round;stroke-width: 0.75px"/>
    <line style="fill: none;stroke: #0b5597;stroke-linecap: round;stroke-linejoin: round;stroke-width: 0.75px" x1="18.74" x2="22.34" y1="219.35" y2="215.75"/>
    <line style="fill: none;stroke: #0b5597;stroke-linecap: round;stroke-linejoin: round;stroke-width: 0.75px" x1="29.84" x2="31.88" y1="217.54" y2="219.58"/>
    <polyline points="34.52 217.28 33.21 218.58 33.21 220.44" style="fill: none;stroke: #0b5597;stroke-linecap: round;stroke-linejoin: round;stroke-width: 0.75px"/>
    <line style="fill: none;stroke: #0b5597;stroke-linecap: round;stroke-linejoin: round;stroke-width: 0.75px" x1="41.27" x2="41.27" y1="217.07" y2="219.9"/>
    <line style="fill: none;stroke: #0b5597;stroke-linecap: round;stroke-linejoin: round;stroke-width: 0.75px" x1="46.93" x2="51.04" y1="215.61" y2="211.5"/>
    <polyline points="49.53 211.29 49.53 216.4 53.25 220.12" style="fill: none;stroke: #0b5597;stroke-linecap: round;stroke-linejoin: round;stroke-width: 0.75px"/>
    <polyline points="37.23 212.46 38.27 212.46 39.03 213.22 44.07 213.22 46.39 210.9" style="fill: none;stroke: #0b5597;stroke-linecap: round;stroke-linejoin: round;stroke-width: 0.75px"/>
    <line style="fill: none;stroke: #0b5597;stroke-linecap: round;stroke-linejoin: round;stroke-width: 0.75px" x1="41.74" x2="46.93" y1="207.59" y2="207.59"/>
    <polyline points="42.85 209.71 43.48 209.13 47.77 209.13" style="fill: none;stroke: #0b5597;stroke-linecap: round;stroke-linejoin: round;stroke-width: 0.75px"/>
    <polyline points="24.28 202.84 27.89 199.73 34.52 199.73 36.51 201.72 36.51 204.19" style="fill: none;stroke: #0b5597;stroke-linecap: round;stroke-linejoin: round;stroke-width: 0.75px"/>
    <polyline points="34.27 199.73 37.59 196.41 40.39 196.41" style="fill: none;stroke: #0b5597;stroke-linecap: round;stroke-linejoin: round;stroke-width: 0.75px"/>
    <polyline points="29.58 184.71 32.48 187.61 40.39 187.61 41.48 188.7 42.48 189.78" style="fill: none;stroke: #0b5597;stroke-linecap: round;stroke-linejoin: round;stroke-width: 0.75px"/>
    <line style="fill: none;stroke: #0b5597;stroke-linecap: round;stroke-linejoin: round;stroke-width: 0.75px" x1="37.44" x2="41.74" y1="183.23" y2="183.23"/>
    <line style="fill: none;stroke: #0b5597;stroke-linecap: round;stroke-linejoin: round;stroke-width: 0.75px" x1="46.02" x2="46.02" y1="199.94" y2="205.44"/>
    <line style="fill: none;stroke: #0b5597;stroke-linecap: round;stroke-linejoin: round;stroke-width: 0.75px" x1="48.92" x2="48.92" y1="199.94" y2="205.46"/>
    <polyline points="51.99 199.94 49.88 201.77 49.88 205.16" style="fill: none;stroke: #0b5597;stroke-linecap: round;stroke-linejoin: round;stroke-width: 0.75px"/>
    <polyline points="51.04 204.97 51.04 202.74 51.81 201.97 54.62 201.97" style="fill: none;stroke: #0b5597;stroke-linecap: round;stroke-linejoin: round;stroke-width: 0.75px"/>
    <polyline points="53.98 204.97 57.23 204.97 58.51 203.68 58.51 198.07 57.46 197.02 54.62 197.02" style="fill: none;stroke: #0b5597;stroke-linecap: round;stroke-linejoin: round;stroke-width: 0.75px"/>
    <polyline points="62.6 204.77 63.28 205.44 65.02 205.46" style="fill: none;stroke: #0b5597;stroke-linecap: round;stroke-linejoin: round;stroke-width: 0.75px"/>
    <line style="fill: none;stroke: #0b5597;stroke-linecap: round;stroke-linejoin: round;stroke-width: 0.75px" x1="58.38" x2="63.29" y1="183.23" y2="183.23"/>
    <polyline points="58.38 189.78 60.2 187.9 67.38 187.9 70.53 184.76" style="fill: none;stroke: #0b5597;stroke-linecap: round;stroke-linejoin: round;stroke-width: 0.75px"/>
    <circle cx="42.06" cy="196.41" r="1.46" style="fill: none;stroke: #0b5597;stroke-linecap: round;stroke-linejoin: round;stroke-width: 0.75px"/>
    <circle cx="56.24" cy="202.21" r="1.46" style="fill: none;stroke: #0b5597;stroke-linecap: round;stroke-linejoin: round;stroke-width: 0.75px"/>
    <circle cx="61.59" cy="203.66" r="1.46" style="fill: none;stroke: #0b5597;stroke-linecap: round;stroke-linejoin: round;stroke-width: 0.75px"/>
    <circle cx="58.04" cy="210.79" r="1.46" style="fill: none;stroke: #0b5597;stroke-linecap: round;stroke-linejoin: round;stroke-width: 0.75px"/>
    <circle cx="41.81" cy="210.79" r="1.46" style="fill: none;stroke: #0b5597;stroke-linecap: round;stroke-linejoin: round;stroke-width: 0.75px"/>
    <circle cx="40.35" cy="207.16" r="1.46" style="fill: none;stroke: #0b5597;stroke-linecap: round;stroke-linejoin: round;stroke-width: 0.75px"/>
    <circle cx="28.5" cy="213.22" r="1.46" style="fill: none;stroke: #0b5597;stroke-linecap: round;stroke-linejoin: round;stroke-width: 0.75px"/>
    <circle cx="28.5" cy="216.75" r="1.46" style="fill: none;stroke: #0b5597;stroke-linecap: round;stroke-linejoin: round;stroke-width: 0.75px"/>
    <circle cx="41.27" cy="215.71" r="1.46" style="fill: none;stroke: #0b5597;stroke-linecap: round;stroke-linejoin: round;stroke-width: 0.75px"/>
    <circle cx="45.99" cy="216.75" r="1.46" style="fill: none;stroke: #0b5597;stroke-linecap: round;stroke-linejoin: round;stroke-width: 0.75px"/>
    <circle cx="25.04" cy="225.63" r="1.46" style="fill: none;stroke: #0b5597;stroke-linecap: round;stroke-linejoin: round;stroke-width: 0.75px"/>
    <circle cx="46.93" cy="225.23" r="1.46" style="fill: none;stroke: #0b5597;stroke-linecap: round;stroke-linejoin: round;stroke-width: 0.75px"/>
    <circle cx="50.59" cy="225.23" r="1.46" style="fill: none;stroke: #0b5597;stroke-linecap: round;stroke-linejoin: round;stroke-width: 0.75px"/>
    <circle cx="80.56" cy="205.96" r="1.46" style="fill: none;stroke: #0b5597;stroke-linecap: round;stroke-linejoin: round;stroke-width: 0.75px"/>
    <polyline points="55.09 209.14 56.58 209.14 56.91 209.46" style="fill: none;stroke: #0b5597;stroke-linecap: round;stroke-linejoin: round;stroke-width: 0.75px"/>
    <rect height="8.78" style="fill: #c4a499" width="2.11" x="60.85" y="213.7"/>
    <rect height="4.24" style="fill: #4f504e" width="3.4" x="60.2" y="215.88"/>
    <g>
      <g>
        <line style="fill: none;stroke: #bcbcbc;stroke-linecap: round;stroke-miterlimit: 10" x1="64.67" x2="64.67" y1="206.52" y2="203.81"/>
        <line style="fill: none;stroke: #bcbcbc;stroke-linecap: round;stroke-miterlimit: 10" x1="73.36" x2="73.36" y1="206.52" y2="203.81"/>
        <rect height="8.69" rx="0.58" ry="0.58" style="fill: #e2e2e2" transform="translate(-136.24 274.27) rotate(-90)" width="2.98" x="67.53" y="200.91"/>
      </g>
      <rect height="4.07" style="fill: #b7967a" transform="translate(-136.33 274.19) rotate(-90)" width="2.98" x="67.44" y="203.22"/>
    </g>
    <g>
      <g>
        <line style="fill: none;stroke: #bcbcbc;stroke-linecap: round;stroke-miterlimit: 10" x1="74" x2="74" y1="222.05" y2="219.35"/>
        <line style="fill: none;stroke: #bcbcbc;stroke-linecap: round;stroke-miterlimit: 10" x1="82.69" x2="82.69" y1="222.05" y2="219.35"/>
        <rect height="8.69" rx="0.58" ry="0.58" style="fill: #e2e2e2" transform="translate(-142.44 299.14) rotate(-90)" width="2.98" x="76.86" y="216.44"/>
      </g>
      <rect height="4.07" style="fill: #b7967a" transform="translate(-142.53 299.05) rotate(-90)" width="2.98" x="76.78" y="218.75"/>
    </g>
    <g>
      <g>
        <g>
          <line style="fill: none;stroke: #bcbcbc;stroke-linecap: round;stroke-miterlimit: 10" x1="18.83" x2="18.83" y1="205.44" y2="202.74"/>
          <line style="fill: none;stroke: #bcbcbc;stroke-linecap: round;stroke-miterlimit: 10" x1="27.52" x2="27.52" y1="205.44" y2="202.74"/>
          <rect height="8.69" rx="0.58" ry="0.58" style="fill: #e2e2e2" transform="translate(-181.01 227.36) rotate(-90)" width="2.98" x="21.68" y="199.84"/>
        </g>
        <rect height="4.07" transform="translate(-181.1 227.27) rotate(-90)" width="2.98" x="21.6" y="202.15"/>
      </g>
      <g>
        <path d="M21.74,204.61H22v-.9h-.23a.07.07,0,0,1-.08-.08s0,0,0,0a.11.11,0,0,1,.06,0h.38v1.05h.15v-.32s0,0,0,0l.06,0,.05,0s0,0,0,0v.4a.12.12,0,0,1-.08.08h-.62a.05.05,0,0,1,0,0s0,0,0-.05,0,0,0-.05A.05.05,0,0,1,21.74,204.61Z" style="fill: #fff"/>
        <path d="M22.79,204.62v-.92a.14.14,0,0,1,.05-.1.13.13,0,0,1,.1,0h.48a.14.14,0,0,1,.14.14v.92a.13.13,0,0,1,0,.1.14.14,0,0,1-.1.05h-.48a.12.12,0,0,1-.1-.05A.14.14,0,0,1,22.79,204.62Zm.62,0v-.9H23v.9Z" style="fill: #fff"/>
        <path d="M24.69,203.71V204a.23.23,0,0,1-.06.16.25.25,0,0,1,.06.16v.29a.14.14,0,0,1,0,.11.16.16,0,0,1-.11.05H24a.08.08,0,0,1,0-.16h.54v-.29a.11.11,0,0,0,0-.06.07.07,0,0,0-.06,0h-.31a.05.05,0,0,1,0,0,.07.07,0,0,1,0-.1.05.05,0,0,1,0,0h.31a.07.07,0,0,0,.06,0,.08.08,0,0,0,0-.05v-.3H24l0,0s0,0,0-.06a.06.06,0,0,1,0,0l0,0h.55a.14.14,0,0,1,.15.15Z" style="fill: #fff"/>
      </g>
    </g>
    <g>
      <g>
        <g>
          <line style="fill: none;stroke: #bcbcbc;stroke-linecap: round;stroke-miterlimit: 10" x1="29.58" x2="29.58" y1="205.44" y2="202.74"/>
          <line style="fill: none;stroke: #bcbcbc;stroke-linecap: round;stroke-miterlimit: 10" x1="38.27" x2="38.27" y1="205.44" y2="202.74"/>
          <rect height="8.69" rx="0.58" ry="0.58" style="fill: #e2e2e2" transform="translate(-170.26 238.11) rotate(-90)" width="2.98" x="32.43" y="199.84"/>
        </g>
        <rect height="4.07" transform="translate(-170.35 238.02) rotate(-90)" width="2.98" x="32.35" y="202.15"/>
      </g>
      <g>
        <path d="M32.49,204.61h.24v-.9H32.5a.07.07,0,0,1-.08-.08s0,0,0,0l.06,0h.38v1.05H33v-.32s0,0,0,0l.06,0,0,0s0,0,0,0v.4a.12.12,0,0,1-.08.08h-.62a.05.05,0,0,1-.05,0s0,0,0-.05,0,0,0-.05A.05.05,0,0,1,32.49,204.61Z" style="fill: #fff"/>
        <path d="M33.54,204.62v-.92a.14.14,0,0,1,.05-.1.13.13,0,0,1,.1,0h.48a.14.14,0,0,1,.14.14v.92a.13.13,0,0,1,0,.1.14.14,0,0,1-.1.05h-.48a.12.12,0,0,1-.1-.05A.14.14,0,0,1,33.54,204.62Zm.62,0v-.9H33.7v.9Z" style="fill: #fff"/>
        <path d="M35.44,203.71V204a.23.23,0,0,1-.06.16.25.25,0,0,1,.06.16v.29a.14.14,0,0,1,0,.11.16.16,0,0,1-.11.05h-.54a.08.08,0,0,1,0-.16h.54v-.29a.11.11,0,0,0,0-.06.07.07,0,0,0-.06,0H34.9a.05.05,0,0,1,0,0,.07.07,0,0,1,0-.1.05.05,0,0,1,0,0h.31a.07.07,0,0,0,.06,0,.08.08,0,0,0,0-.05v-.3h-.55l-.05,0s0,0,0-.06a.06.06,0,0,1,0,0l.05,0h.55a.14.14,0,0,1,.15.15Z" style="fill: #fff"/>
      </g>
    </g>
    <g>
      <g>
        <g>
          <line style="fill: none;stroke: #bcbcbc;stroke-linecap: round;stroke-miterlimit: 10" x1="38.27" x2="38.27" y1="219.53" y2="222.23"/>
          <line style="fill: none;stroke: #bcbcbc;stroke-linecap: round;stroke-miterlimit: 10" x1="29.58" x2="29.58" y1="219.53" y2="222.23"/>
          <rect height="8.69" rx="0.58" ry="0.58" style="fill: #e2e2e2" transform="translate(254.71 186.87) rotate(90)" width="2.98" x="32.43" y="216.44"/>
        </g>
        <rect height="4.07" transform="translate(254.8 186.78) rotate(90)" width="2.98" x="32.52" y="218.75"/>
      </g>
      <g>
        <path d="M35.35,220.36h-.24v.91h.24a.06.06,0,0,1,0,0,.08.08,0,0,1,0,.05.14.14,0,0,1,0,.06l0,0H35v-1.06h-.15v.32a.14.14,0,0,1,0,.06l-.06,0,0,0a.07.07,0,0,1,0-.06v-.39a.07.07,0,0,1,0-.06l0,0h.62l0,0a.09.09,0,0,1,0,.06.05.05,0,0,1,0,.05S35.37,220.36,35.35,220.36Z" style="fill: #fff"/>
        <path d="M34.3,220.36v.91a.16.16,0,0,1,0,.11.13.13,0,0,1-.1,0h-.48a.13.13,0,0,1-.1,0,.15.15,0,0,1,0-.11v-.91a.15.15,0,0,1,0-.11.13.13,0,0,1,.1,0h.48a.15.15,0,0,1,.11,0A.21.21,0,0,1,34.3,220.36Zm-.62,0v.91h.46v-.91Z" style="fill: #fff"/>
        <path d="M32.4,221.27V221a.21.21,0,0,1,.06-.16.25.25,0,0,1-.06-.16v-.3a.13.13,0,0,1,0-.1.16.16,0,0,1,.11,0h.54l.06,0a.14.14,0,0,1,0,.06.08.08,0,0,1,0,.05.07.07,0,0,1-.06,0h-.54v.3a.14.14,0,0,0,0,.06l.06,0h.31l.05,0s0,0,0,.06,0,0,0,.05,0,0-.05,0h-.31l-.06,0a.08.08,0,0,0,0,.05v.3h.55s0,0,0,0,0,0,0,.05a.07.07,0,0,1,0,.06l0,0h-.55a.16.16,0,0,1-.11,0A.13.13,0,0,1,32.4,221.27Z" style="fill: #fff"/>
      </g>
    </g>
    <g>
      <g>
        <g>
          <line style="fill: none;stroke: #bcbcbc;stroke-linecap: round;stroke-miterlimit: 10" x1="48.04" x2="48.04" y1="219.53" y2="222.23"/>
          <line style="fill: none;stroke: #bcbcbc;stroke-linecap: round;stroke-miterlimit: 10" x1="39.35" x2="39.35" y1="219.53" y2="222.23"/>
          <rect height="8.69" rx="0.58" ry="0.58" style="fill: #e2e2e2" transform="translate(264.48 177.1) rotate(90)" width="2.98" x="42.2" y="216.44"/>
        </g>
        <rect height="4.07" transform="translate(264.57 177.01) rotate(90)" width="2.98" x="42.29" y="218.75"/>
      </g>
      <g>
        <path d="M45.12,220.36h-.23v.91h.23s0,0,.05,0,0,0,0,.05a.07.07,0,0,1,0,.06l-.05,0h-.39v-1.06h-.15v.32a.14.14,0,0,1,0,.06l-.06,0,0,0a.14.14,0,0,1,0-.06v-.39a.14.14,0,0,1,0-.06l0,0h.62l.06,0a.14.14,0,0,1,0,.06.08.08,0,0,1,0,.05A.07.07,0,0,1,45.12,220.36Z" style="fill: #fff"/>
        <path d="M44.07,220.36v.91a.14.14,0,0,1-.15.15h-.47a.14.14,0,0,1-.15-.15v-.91a.14.14,0,0,1,.15-.15h.47a.14.14,0,0,1,.15.15Zm-.62,0v.91h.47v-.91Z" style="fill: #fff"/>
        <path d="M42.17,221.27V221a.21.21,0,0,1,.06-.16.25.25,0,0,1-.06-.16v-.3a.13.13,0,0,1,0-.1.16.16,0,0,1,.11,0h.54l.06,0a.14.14,0,0,1,0,.06.08.08,0,0,1,0,.05.07.07,0,0,1-.06,0h-.54v.3a.09.09,0,0,0,0,.06l0,0h.31l0,0a.07.07,0,0,1,0,.06.05.05,0,0,1,0,.05s0,0,0,0H42.4a.12.12,0,0,0-.08.08v.3h.55s0,0,.05,0a.05.05,0,0,1,0,.05.09.09,0,0,1,0,.06l-.05,0h-.55a.16.16,0,0,1-.11,0A.13.13,0,0,1,42.17,221.27Z" style="fill: #fff"/>
      </g>
    </g>
    <g>
      <g>
        <g>
          <line style="fill: none;stroke: #bcbcbc;stroke-linecap: round;stroke-miterlimit: 10" x1="58.04" x2="58.04" y1="219.53" y2="222.23"/>
          <line style="fill: none;stroke: #bcbcbc;stroke-linecap: round;stroke-miterlimit: 10" x1="49.35" x2="49.35" y1="219.53" y2="222.23"/>
          <rect height="8.69" rx="0.58" ry="0.58" style="fill: #e2e2e2" transform="translate(274.48 167.1) rotate(90)" width="2.98" x="52.21" y="216.44"/>
        </g>
        <rect height="4.07" transform="translate(274.57 167.01) rotate(90)" width="2.98" x="52.29" y="218.75"/>
      </g>
      <g>
        <path d="M55.12,220.36h-.23v.91h.23s0,0,.05,0a.05.05,0,0,1,0,.05.09.09,0,0,1,0,.06l-.05,0h-.39v-1.06h-.15v.32a.14.14,0,0,1,0,.06l-.05,0-.06,0a.14.14,0,0,1,0-.06v-.39a.14.14,0,0,1,0-.06l.06,0h.61l.06,0a.14.14,0,0,1,0,.06.08.08,0,0,1,0,.05A.07.07,0,0,1,55.12,220.36Z" style="fill: #fff"/>
        <path d="M54.07,220.36v.91a.14.14,0,0,1-.15.15h-.47a.15.15,0,0,1-.11,0,.21.21,0,0,1,0-.11v-.91a.21.21,0,0,1,0-.11.15.15,0,0,1,.11,0h.47a.14.14,0,0,1,.15.15Zm-.62,0v.91h.47v-.91Z" style="fill: #fff"/>
        <path d="M52.17,221.27V221a.21.21,0,0,1,.06-.16.25.25,0,0,1-.06-.16v-.3a.13.13,0,0,1,0-.1.16.16,0,0,1,.11,0h.54l.06,0a.14.14,0,0,1,0,.06.08.08,0,0,1,0,.05s0,0-.06,0h-.53v.3a.07.07,0,0,0,0,.06l0,0h.31l0,0a.07.07,0,0,1,0,.06.05.05,0,0,1,0,.05s0,0,0,0H52.4a.12.12,0,0,0-.08.08v.3h.55s0,0,.05,0a.05.05,0,0,1,0,.05.09.09,0,0,1,0,.06l-.05,0h-.55a.18.18,0,0,1-.15-.15Z" style="fill: #fff"/>
      </g>
    </g>
    <g>
      <g>
        <g>
          <line style="fill: none;stroke: #bcbcbc;stroke-linecap: round;stroke-miterlimit: 10" x1="18.74" x2="18.74" y1="222.05" y2="219.35"/>
          <line style="fill: none;stroke: #bcbcbc;stroke-linecap: round;stroke-miterlimit: 10" x1="27.43" x2="27.43" y1="222.05" y2="219.35"/>
          <rect height="8.69" rx="0.58" ry="0.58" style="fill: #e2e2e2" transform="translate(-197.7 243.88) rotate(-90)" width="2.98" x="21.6" y="216.44"/>
        </g>
        <rect height="4.07" transform="translate(-197.79 243.79) rotate(-90)" width="2.98" x="21.51" y="218.75"/>
      </g>
      <g>
        <path d="M21.66,221.22h.23v-.9h-.23a.08.08,0,0,1,0-.16h.39v1.06h.15v-.32a.08.08,0,0,1,0-.05s0,0,.05,0a.07.07,0,0,1,.06,0,.08.08,0,0,1,0,.05v.39a.07.07,0,0,1-.08.08h-.61l-.06,0a.14.14,0,0,1,0-.06.08.08,0,0,1,0,0Z" style="fill: #fff"/>
        <path d="M22.71,221.22v-.91a.15.15,0,0,1,0-.11.21.21,0,0,1,.11,0h.47a.14.14,0,0,1,.15.15v.91a.21.21,0,0,1,0,.11.15.15,0,0,1-.11,0h-.47a.14.14,0,0,1-.15-.15Zm.62,0v-.9h-.47v.9Z" style="fill: #fff"/>
        <path d="M24.61,220.32v.28a.21.21,0,0,1-.06.16.25.25,0,0,1,.06.16v.3a.14.14,0,0,1-.15.15h-.54l-.06,0a.11.11,0,0,1,0-.06.08.08,0,0,1,0,0,.11.11,0,0,1,.06,0h.53v-.3a.07.07,0,0,0,0-.06l-.05,0h-.31l-.05,0a.07.07,0,0,1,0-.06s0,0,0,0l.05,0h.31l.05,0a.09.09,0,0,0,0-.06v-.29h-.55a.08.08,0,0,1,0-.16h.55a.14.14,0,0,1,.1.05A.14.14,0,0,1,24.61,220.32Z" style="fill: #fff"/>
      </g>
    </g>
    <rect height="1.83" style="fill: #e5ded2" width="1.83" x="45.1" y="198.82"/>
    <rect height="1.83" style="fill: #e5ded2" width="1.83" x="48" y="198.82"/>
    <rect height="1.83" style="fill: #e5ded2" width="1.83" x="50.85" y="198.82"/>
    <rect height="1.83" style="fill: #e5ded2" width="1.83" x="53.7" y="198.82"/>
    <g>
      <circle cx="18.04" cy="214.97" r="2.51" style="fill: #535544"/>
      <circle cx="18.04" cy="214.97" r="1.52" style="fill: #fff7d9"/>
    </g>
    <g>
      <circle cx="24.28" cy="192.28" r="2.51" style="fill: #535544"/>
      <circle cx="24.28" cy="192.28" r="1.52" style="fill: #fff7d9"/>
    </g>
    <g>
      <circle cx="86.07" cy="205.67" r="2.51" style="fill: #535544"/>
      <circle cx="86.07" cy="205.67" r="1.52" style="fill: #fff7d9"/>
    </g>
    <g>
      <rect height="7.33" style="fill: #535544" width="0.94" x="45.6" y="191.73"/>
      <rect height="2.54" style="fill: #daddd9" width="0.6" x="45.77" y="195.78"/>
    </g>
    <circle cx="18.04" cy="214.97" r="1.52" style="fill: #fff7d9"/>
    <g>
      <rect height="7.33" style="fill: #535544" width="0.94" x="48.45" y="191.73"/>
      <rect height="2.54" style="fill: #daddd9" width="0.6" x="48.62" y="195.78"/>
    </g>
    <g>
      <rect height="7.33" style="fill: #535544" width="0.94" x="51.3" y="191.73"/>
      <rect height="2.54" style="fill: #daddd9" width="0.6" x="51.47" y="195.78"/>
    </g>
    <g>
      <rect height="7.33" style="fill: #535544" width="0.94" x="54.15" y="191.73"/>
      <rect height="2.54" style="fill: #daddd9" width="0.6" x="54.32" y="195.78"/>
    </g>
    <rect height="12.25" style="fill: #635c65" width="17.69" x="41.27" y="180.4"/>
    <path d="M17.27,179.9A5.13,5.13,0,1,0,22.39,185,5.13,5.13,0,0,0,17.27,179.9Zm0,8.91A3.79,3.79,0,1,1,21.05,185,3.78,3.78,0,0,1,17.27,188.81Z" style="fill: #fdfad0"/>
    <circle cx="17.27" cy="185.03" r="5.9" style="fill: none;stroke: #fff;stroke-miterlimit: 10;stroke-width: 0.5px"/>
    <path d="M82.69,179.9A5.13,5.13,0,1,0,87.82,185,5.12,5.12,0,0,0,82.69,179.9Zm0,8.91A3.79,3.79,0,1,1,86.47,185,3.79,3.79,0,0,1,82.69,188.81Z" style="fill: #fdfad0"/>
    <circle cx="82.69" cy="185.03" r="5.9" style="fill: none;stroke: #fff;stroke-miterlimit: 10;stroke-width: 0.5px"/>
    <g>
      <rect height="10.96" style="fill: #f2faf8" width="0.71" x="47.77" y="202.84"/>
      <rect height="10.96" style="fill: #f2faf8" width="0.71" x="49.18" y="202.84"/>
      <rect height="10.96" style="fill: #f2faf8" width="0.71" x="50.59" y="202.84"/>
      <rect height="10.96" style="fill: #f2faf8" width="0.71" x="51.99" y="202.84"/>
    </g>
    <g>
      <rect height="10.96" style="fill: #f2faf8" transform="translate(-160.2 260.67) rotate(-90)" width="0.71" x="49.88" y="204.95"/>
      <rect height="10.96" style="fill: #f2faf8" transform="translate(-158.79 259.26) rotate(-90)" width="0.71" x="49.88" y="203.55"/>
      <rect height="10.96" style="fill: #f2faf8" transform="translate(-157.38 257.85) rotate(-90)" width="0.71" x="49.88" y="202.14"/>
      <rect height="10.96" style="fill: #f2faf8" transform="translate(-155.97 256.44) rotate(-90)" width="0.71" x="49.88" y="200.73"/>
    </g>
    <rect height="8.48" style="fill: #332e32" width="8.48" x="45.99" y="204.3"/>
    <g>
      <rect height="1.64" style="fill: #b1aeaa" width="2.14" x="80.56" y="208.36"/>
      <rect height="1.17" style="fill: #bcbcbc" width="0.96" x="79.6" y="208.61"/>
      <rect height="1.64" style="fill: #b1aeaa" width="2.14" x="80.56" y="211.05"/>
      <rect height="1.17" style="fill: #bcbcbc" width="0.96" x="79.6" y="211.29"/>
      <rect height="1.64" style="fill: #b1aeaa" width="2.14" x="80.56" y="213.7"/>
      <rect height="1.17" style="fill: #bcbcbc" width="0.96" x="79.6" y="213.95"/>
      <rect height="1.64" style="fill: #b1aeaa" transform="translate(145.9 428.89) rotate(180)" width="2.14" x="71.88" y="213.63"/>
      <rect height="1.17" style="fill: #bcbcbc" transform="translate(148.99 428.86) rotate(180)" width="0.96" x="74.02" y="213.84"/>
      <rect height="1.64" style="fill: #b1aeaa" transform="translate(145.9 418.28) rotate(180)" width="2.14" x="71.88" y="208.32"/>
      <rect height="1.17" style="fill: #bcbcbc" transform="translate(148.99 418.25) rotate(180)" width="0.96" x="74.02" y="208.54"/>
      <rect height="8" style="fill: #303030" width="4.63" x="74.97" y="207.99"/>
    </g>
    <g>
      <path d="M47.71,208.17h.09a.1.1,0,0,1,.1.1.07.07,0,0,1,0,.06.09.09,0,0,1-.07,0V209h.69a.1.1,0,0,1,.1.1v.5a.1.1,0,0,1-.1.1h-.78a.08.08,0,0,1-.07,0,.09.09,0,0,1,0-.07v-1.34a.12.12,0,0,1,0-.07A.11.11,0,0,1,47.71,208.17Zm.09,1v.31h.59v-.31Z" style="fill: #898583"/>
      <path d="M49.13,209.51h.3v-1.15h-.29a.09.09,0,0,1-.07,0,.07.07,0,0,1,0-.06.08.08,0,0,1,0-.07.09.09,0,0,1,.07,0h.49v1.34h.19v-.4a.1.1,0,0,1,.2,0v.5a.1.1,0,0,1-.1.1h-.79a.11.11,0,0,1-.07,0,.13.13,0,0,1,0-.14A.11.11,0,0,1,49.13,209.51Z" style="fill: #898583"/>
      <path d="M51.2,208.31l.22.44a.41.41,0,0,1,0,.19.38.38,0,0,1,0,.19l-.22.44a.23.23,0,0,1-.23.14.23.23,0,0,1-.14,0,.28.28,0,0,1-.09-.1l-.22-.44a.38.38,0,0,1,0-.19.41.41,0,0,1,0-.19l.22-.44a.23.23,0,0,1,.23-.14A.24.24,0,0,1,51.2,208.31Zm-.3.1-.2.41a.25.25,0,0,0,0,.24l.21.42a.07.07,0,0,0,.06,0s0,0,.06,0l.21-.42a.37.37,0,0,0,0-.24l-.21-.41a.06.06,0,0,0-.06,0S50.92,208.38,50.9,208.41Z" style="fill: #898583"/>
      <path d="M52.45,209.52h.35l.07,0a.11.11,0,0,1,0,.07.1.1,0,0,1-.1.1h-.36a.28.28,0,0,1-.15,0,.31.31,0,0,1-.1-.1l-.22-.44a.41.41,0,0,1,0-.19.38.38,0,0,1,0-.19l.23-.43a.35.35,0,0,1,.1-.11.24.24,0,0,1,.13,0h.39a.1.1,0,0,1,.1.1.11.11,0,0,1,0,.07.09.09,0,0,1-.07,0h-.37a.08.08,0,0,0-.08,0l-.21.4a.24.24,0,0,0,0,.12.27.27,0,0,0,0,.12l.21.39A.09.09,0,0,0,52.45,209.52Z" style="fill: #898583"/>
    </g>
    <g>
      <path d="M48.59,210.55V212h-.26l-.53-1.2v1.1a.08.08,0,0,1,0,.07.09.09,0,0,1-.07,0,.11.11,0,0,1-.07,0,.12.12,0,0,1,0-.07v-1.44h.25l.53,1.2v-1.1a.1.1,0,0,1,.2,0Z" style="fill: #898583"/>
      <path d="M49.76,210.59,50,211a.41.41,0,0,1,0,.19.45.45,0,0,1,0,.2l-.22.43a.23.23,0,0,1-.23.14.23.23,0,0,1-.14,0,.28.28,0,0,1-.09-.1l-.22-.43a.42.42,0,0,1,0-.2.41.41,0,0,1,0-.19l.22-.44a.25.25,0,0,1,.23-.14A.23.23,0,0,1,49.76,210.59Zm-.29.1-.2.41a.26.26,0,0,0,0,.24l.2.42a.06.06,0,0,0,.12,0l.21-.42a.26.26,0,0,0,0-.24l-.21-.41a.06.06,0,0,0-.12,0Z" style="fill: #898583"/>
      <path d="M51.12,211.89v-.4h-.59v-.94a.1.1,0,0,1,.1-.1.11.11,0,0,1,.07,0,.09.09,0,0,1,0,.07v.74h.39v-.57a.14.14,0,0,1,0-.07.11.11,0,0,1,.07,0,.1.1,0,0,1,.1.1v.57a.1.1,0,0,1,.1.1.07.07,0,0,1,0,.06.09.09,0,0,1-.07,0v.41a.1.1,0,0,1-.1.1.11.11,0,0,1-.07,0A.14.14,0,0,1,51.12,211.89Z" style="fill: #898583"/>
      <path d="M52.9,210.64V211a.32.32,0,0,1-.08.21.29.29,0,0,1,.08.19v.38a.21.21,0,0,1-.2.2H52a.11.11,0,0,1-.07,0,.08.08,0,0,1,0-.07.1.1,0,0,1,0-.07.11.11,0,0,1,.07,0h.69v-.38a.11.11,0,0,0,0-.07.09.09,0,0,0-.07,0h-.39l-.07,0a.11.11,0,0,1,0-.07.1.1,0,0,1,.1-.1h.4a.09.09,0,0,0,.06,0,.09.09,0,0,0,0-.07v-.38H52l-.07,0a.11.11,0,0,1,0-.07.1.1,0,0,1,.1-.1h.69a.18.18,0,0,1,.14.06A.16.16,0,0,1,52.9,210.64Z" style="fill: #898583"/>
    </g>
    <circle cx="47.04" cy="205.46" r="0.5" style="fill: #898583"/>
    <circle cx="52.27" cy="206.52" r="1.35" style="fill: none;stroke: #898583;stroke-miterlimit: 10;stroke-width: 0.25px"/>
    <path d="M52.24,206.2v.3a.12.12,0,0,1,0,.09.05.05,0,0,1-.06,0h-.64v.07a.21.21,0,0,0,0,.11l.06.06a.09.09,0,0,0,.08,0h.46a.07.07,0,0,1,.06,0,.12.12,0,0,1,0,.09.16.16,0,0,1,0,.09.07.07,0,0,1-.06,0h-.47l-.1,0-.08-.06-.08-.1a.24.24,0,0,1-.06-.11.39.39,0,0,1,0-.14v-.57a.39.39,0,0,1,0-.13.32.32,0,0,1,.07-.13l.07-.08a.21.21,0,0,1,.17-.08h.25a.23.23,0,0,1,.18.11l.07.08A.41.41,0,0,1,52.24,206.2Zm-.72,0v.2h.54v-.18a.15.15,0,0,0,0-.1L52,206s0,0-.07,0h-.23a.1.1,0,0,0-.08,0l-.05.06A.12.12,0,0,0,51.52,206.18Z" style="fill: #898583"/>
    <path d="M52.84,207.08v-.31h-.33V206a.14.14,0,0,1,0-.06l0,0,0,0a.13.13,0,0,1,0,.06v.58h.22v-.45a.08.08,0,0,1,0,0s0,0,0,0a.05.05,0,0,1,0,0,.07.07,0,0,1,0,0v.45s0,0,0,0a.08.08,0,0,1,0,.05.14.14,0,0,1,0,.06l0,0v.31a.11.11,0,0,1,0,.06l0,0,0,0A.11.11,0,0,1,52.84,207.08Z" style="fill: #898583"/>
    <polygon points="48.7 206.52 48.93 206.29 49.73 206.29 49.22 207.59 48.7 207.59 49.22 206.75 48.7 206.52" style="fill: #898583"/>
    <polygon points="50 206.29 50.66 206.29 50 207.59 49.5 207.59 49.35 207.59 50 206.29" style="fill: #898583"/>
    <path d="M48.19,206.21a.54.54,0,0,0,.3.83s.4.24,0,.27-1.12,0-1.12,0-.13-.38.34-.44C47.71,206.87,47.6,206,48.19,206.21Z" style="fill: #898583"/>
    <rect height="0.31" style="fill: #898583" width="2.55" x="48.11" y="205.79"/>
    <g>
      <polyline points="53.62 203.77 54.94 203.77 54.94 205.44" style="fill: none;stroke: #f2faf8;stroke-linecap: round;stroke-linejoin: round;stroke-width: 0.5px"/>
      <polyline points="46.65 203.77 45.34 203.77 45.34 205.44" style="fill: none;stroke: #f2faf8;stroke-linecap: round;stroke-linejoin: round;stroke-width: 0.5px"/>
    </g>
    <g>
      <polyline points="46.65 213.62 45.34 213.62 45.34 211.94" style="fill: none;stroke: #f2faf8;stroke-linecap: round;stroke-linejoin: round;stroke-width: 0.5px"/>
      <polyline points="53.62 213.62 54.94 213.62 54.94 211.94" style="fill: none;stroke: #f2faf8;stroke-linecap: round;stroke-linejoin: round;stroke-width: 0.5px"/>
    </g>
    <g>
      <path d="M19.65,210.29h.05v.3a.09.09,0,0,0,.09.1h1a.09.09,0,0,0,.08-.1v-.3h.59a.3.3,0,0,0,.27-.32v-2.23a.3.3,0,0,0-.27-.32h-1.8a.3.3,0,0,0-.27.32V210A.3.3,0,0,0,19.65,210.29Z" style="fill: #b1aeaa"/>
      <path d="M24.56,210.25h.05v.31a.1.1,0,0,0,.09.1h1a.1.1,0,0,0,.09-.1v-.31h.58a.3.3,0,0,0,.28-.32V207.7a.3.3,0,0,0-.28-.32H24.56a.3.3,0,0,0-.28.32v2.23A.3.3,0,0,0,24.56,210.25Z" style="fill: #b1aeaa"/>
      <path d="M24,214.86h-.06v-.3a.09.09,0,0,0-.09-.1H22.75a.09.09,0,0,0-.09.1v.3H22a.31.31,0,0,0-.3.32v2.23a.31.31,0,0,0,.3.32h2a.31.31,0,0,0,.3-.32v-2.23A.31.31,0,0,0,24,214.86Z" style="fill: #b1aeaa"/>
      <rect height="4.69" rx="0.91" ry="0.91" style="fill: #3a393c" transform="translate(46 425.63) rotate(180)" width="7.92" x="19.04" y="210.47"/>
    </g>
    <g>
      <path d="M30.65,210.29h.06v.3a.09.09,0,0,0,.08.1h1s.08,0,.08-.1v-.3h.59a.3.3,0,0,0,.27-.32v-2.23a.3.3,0,0,0-.27-.32h-1.8a.3.3,0,0,0-.27.32V210A.3.3,0,0,0,30.65,210.29Z" style="fill: #b1aeaa"/>
      <path d="M35.56,210.25h0v.31a.1.1,0,0,0,.09.1h1a.1.1,0,0,0,.08-.1v-.31h.59a.3.3,0,0,0,.27-.32V207.7a.3.3,0,0,0-.27-.32h-1.8a.3.3,0,0,0-.27.32v2.23A.3.3,0,0,0,35.56,210.25Z" style="fill: #b1aeaa"/>
      <path d="M35,214.86h-.06v-.3a.09.09,0,0,0-.09-.1H33.76a.1.1,0,0,0-.1.1v.3H33a.31.31,0,0,0-.3.32v2.23a.31.31,0,0,0,.3.32h2a.31.31,0,0,0,.3-.32v-2.23A.31.31,0,0,0,35,214.86Z" style="fill: #b1aeaa"/>
      <rect height="4.69" rx="0.91" ry="0.91" style="fill: #3a393c" transform="translate(68.01 425.63) rotate(180)" width="7.92" x="30.04" y="210.47"/>
    </g>
    <g>
      <path d="M61.11,217.31l1.34.4s.07,0,.07.1a.1.1,0,0,1-.06.09l-1.36.39h0a.11.11,0,0,1-.07,0,.14.14,0,0,1,0-.06.1.1,0,0,1,.07-.1l.26-.08v-.44l-.28-.09a.05.05,0,0,1,0,0,.07.07,0,0,1,0-.05.1.1,0,0,1,.1-.1Zm1,.49-.56-.16V218Z" style="fill: #3c373b"/>
      <path d="M61.18,218.74h.47a.18.18,0,0,1,.14.06.16.16,0,0,1,.06.13h.57a.1.1,0,0,1,.1.1v.4a.1.1,0,0,1-.1.1h-.57a.16.16,0,0,1-.06.13.18.18,0,0,1-.14.06h-.48a.21.21,0,0,1-.19-.19v-.6a.2.2,0,0,1,.06-.14A.22.22,0,0,1,61.18,218.74Zm.47.19h-.48v.6h.48Zm.67.2h-.47v.2h.47Z" style="fill: #3c373b"/>
    </g>
    <g>
      <path d="M20.35,195.45A3.88,3.88,0,0,0,17,195a5.61,5.61,0,0,0-.42-3.12c-.22-.73-.55-1-1.15-.08A3.41,3.41,0,0,0,14,194.6c-.59-.83-1.75-.9-3.1-.7-.93,0-1,.46-.56,1.1a3.92,3.92,0,0,0,1.81,2c.47.07.69.17.32.33a4.22,4.22,0,0,0-1.4,2.86c-.21.92.21.92.87.57a3.79,3.79,0,0,0,2.46-1.15c.25-.27.45-.43.45-.14a.83.83,0,0,0,.27.71,8.2,8.2,0,0,0,2,1.6c.49.35.72.19.73-.42s.14-1,.17-1.34a2.48,2.48,0,0,0-.1-1.23,1.87,1.87,0,0,0-.12-.27l-.33-.25c-.31-.32-.23-.45.25-.39a3.3,3.3,0,0,0,2.51-1.29C20.91,196.12,20.86,195.75,20.35,195.45Z" style="fill: #fff"/>
      <path d="M15.41,195.11a2.43,2.43,0,0,1-.07-1.13,2.29,2.29,0,0,1,.43-1,2.3,2.3,0,0,1,.06,1.13A2.39,2.39,0,0,1,15.41,195.11Z" style="fill: #1a2c80"/>
      <path d="M12.56,199.42a2.34,2.34,0,0,1,.55-1,2.3,2.3,0,0,1,.92-.65,2.3,2.3,0,0,1-.55,1A2.42,2.42,0,0,1,12.56,199.42Z" style="fill: #1a2c80"/>
      <path d="M11.72,194.88a2.37,2.37,0,0,1,1.06.38,2.33,2.33,0,0,1,.79.8,2.28,2.28,0,0,1-1.06-.38A2.33,2.33,0,0,1,11.72,194.88Z" style="fill: #1a2c80"/>
      <path d="M17.06,196.59a2.39,2.39,0,0,1,1-.55,2.32,2.32,0,0,1,1.12-.08,2.29,2.29,0,0,1-1,.55A2.37,2.37,0,0,1,17.06,196.59Z" style="fill: #1a2c80"/>
      <path d="M17,200.27a2.27,2.27,0,0,1-.75-.83,2.2,2.2,0,0,1-.32-1.08,2.36,2.36,0,0,1,.75.83A2.43,2.43,0,0,1,17,200.27Z" style="fill: #1a2c80"/>
    </g>
    <g>
      <path d="M26.69,188v1.21a.15.15,0,0,1-.05.13.18.18,0,0,1-.13.06.21.21,0,0,1-.19-.19V188l-.74-.94v-.39a.19.19,0,0,1,.05-.13.18.18,0,0,1,.14-.06.18.18,0,0,1,.13.06.17.17,0,0,1,.05.13v.26l.56.71.56-.71v-.26a.21.21,0,0,1,.05-.13.18.18,0,0,1,.13-.06.21.21,0,0,1,.13.05.18.18,0,0,1,.06.14V187Z" style="fill: #fff"/>
      <path d="M30.14,187.89v.16a.15.15,0,0,1-.05.13.16.16,0,0,1-.13.06H28.47a.18.18,0,0,1-.13-.06.19.19,0,0,1-.05-.13v-.16a.19.19,0,0,1,.05-.13.18.18,0,0,1,.13-.06H30a.21.21,0,0,1,.13.05A.17.17,0,0,1,30.14,187.89Z" style="fill: #fff"/>
      <path d="M34.68,188.27l-.59,1a.18.18,0,0,1-.16.09.16.16,0,0,1-.13-.06.18.18,0,0,1-.06-.13.19.19,0,0,1,0-.1l.69-1.17-.67-1.15a.24.24,0,0,1,0-.13.17.17,0,0,1,0-.12.18.18,0,0,1,.13-.06.18.18,0,0,1,.16.09l.59,1,.58-1a.18.18,0,0,1,.16-.09.16.16,0,0,1,.13.06.14.14,0,0,1,.06.12.17.17,0,0,1,0,.1l-.69,1.18.69,1.18a.16.16,0,0,1,0,.09.15.15,0,0,1-.06.13.16.16,0,0,1-.13.06.18.18,0,0,1-.16-.09Z" style="fill: #fff"/>
      <path d="M38.28,187.89v.16a.19.19,0,0,1-.05.13.18.18,0,0,1-.13.06H36.61a.18.18,0,0,1-.13-.06.15.15,0,0,1,0-.13v-.16a.15.15,0,0,1,0-.13.18.18,0,0,1,.13-.06H38.1a.21.21,0,0,1,.13.05A.22.22,0,0,1,38.28,187.89Z" style="fill: #fff"/>
    </g>
    <g>
      <path d="M64,188v1.21a.16.16,0,0,1-.06.13.14.14,0,0,1-.12.06.18.18,0,0,1-.14-.06.15.15,0,0,1,0-.13V188L62.9,187v-.39a.15.15,0,0,1,.05-.13.19.19,0,0,1,.32.13v.26l.55.71.56-.71v-.26a.18.18,0,0,1,.06-.13.16.16,0,0,1,.13-.06.18.18,0,0,1,.12.05.18.18,0,0,1,.06.14V187Z" style="fill: #fff"/>
      <path d="M66.35,187.71v-.57a.17.17,0,0,1,.05-.13.21.21,0,0,1,.13,0,.19.19,0,0,1,.13,0,.17.17,0,0,1,0,.13v.57h.57a.21.21,0,0,1,.13,0,.18.18,0,0,1,.06.13.16.16,0,0,1-.06.13.18.18,0,0,1-.13.06h-.56v.56a.18.18,0,0,1-.06.14.21.21,0,0,1-.13.05.19.19,0,0,1-.13-.05.17.17,0,0,1-.05-.14v-.56h-.57a.18.18,0,0,1-.13-.06.15.15,0,0,1-.05-.13.17.17,0,0,1,.05-.13.21.21,0,0,1,.13,0Z" style="fill: #fff"/>
      <path d="M72,188.27l-.59,1a.16.16,0,0,1-.15.09.18.18,0,0,1-.14-.06.17.17,0,0,1,0-.13.19.19,0,0,1,0-.1l.69-1.17-.68-1.15a.38.38,0,0,1,0-.13.14.14,0,0,1,.06-.12.16.16,0,0,1,.12-.06.16.16,0,0,1,.16.09l.59,1,.59-1a.18.18,0,0,1,.16-.09.18.18,0,0,1,.13.06.14.14,0,0,1,.06.12.17.17,0,0,1,0,.1l-.69,1.18.68,1.18a.16.16,0,0,1,0,.09.17.17,0,0,1,0,.13.18.18,0,0,1-.13.06.19.19,0,0,1-.17-.09Z" style="fill: #fff"/>
      <path d="M74.48,187.71v-.57a.18.18,0,0,1,.06-.13.19.19,0,0,1,.13,0,.17.17,0,0,1,.18.18v.57h.57a.21.21,0,0,1,.13,0,.18.18,0,0,1,.06.13.16.16,0,0,1-.06.13.18.18,0,0,1-.13.06h-.56v.56a.18.18,0,0,1-.06.14.21.21,0,0,1-.13.05.19.19,0,0,1-.13-.05.18.18,0,0,1-.06-.14v-.56h-.56a.21.21,0,0,1-.19-.19.18.18,0,0,1,.06-.13.19.19,0,0,1,.13,0Z" style="fill: #fff"/>
    </g>
    <g>
      <path d="M19.84,198.35H21a.62.62,0,0,1,.57.6.2.2,0,0,1-.06.15.22.22,0,0,1-.3,0,.71.71,0,0,1-.08-.19.16.16,0,0,0-.17-.14H19.87c-.05,0-.08,0-.08.05a.13.13,0,0,0,0,.08l1.61,2a.56.56,0,0,1,.11.32.49.49,0,0,1-.14.34.42.42,0,0,1-.31.15H19.93a.6.6,0,0,1-.58-.57.21.21,0,0,1,.23-.24.18.18,0,0,1,.15.07.2.2,0,0,1,.06.14.13.13,0,0,0,.05.12.17.17,0,0,0,.12.05H21s.07,0,.07-.06a.13.13,0,0,0,0-.07l-1.6-2a.51.51,0,0,1-.12-.32.49.49,0,0,1,.15-.35A.45.45,0,0,1,19.84,198.35Z" style="fill: #fff"/>
      <path d="M22.53,198.94v-.58h2.18V199a.18.18,0,0,1-.07.15.22.22,0,0,1-.3,0,.19.19,0,0,1-.07-.15v-.16h-.43v2.76a.21.21,0,0,1-.07.15.18.18,0,0,1-.15.07.21.21,0,0,1-.16-.07.2.2,0,0,1-.06-.15v-2.76H23v.15a.2.2,0,0,1-.06.15.18.18,0,0,1-.15.07.2.2,0,0,1-.16-.07A.2.2,0,0,1,22.53,198.94Z" style="fill: #fff"/>
      <path d="M26.58,199.69v-.11l-.45-.63v2.6a.2.2,0,0,1-.06.15.22.22,0,0,1-.37-.15v-3.2h.56l.53.78.55-.78h.55v3.2a.24.24,0,0,1-.22.22.21.21,0,0,1-.16-.07.2.2,0,0,1-.06-.15V199l-.44.61v.12a.25.25,0,0,1-.06.16.2.2,0,0,1-.15.06.21.21,0,0,1-.22-.22Z" style="fill: #fff"/>
      <path d="M28.89,201.55v-3.2h1.53a.63.63,0,0,1,.46.2.6.6,0,0,1,.19.46v.81a.6.6,0,0,1-.19.45.62.62,0,0,1-.46.19H29.33v1.09a.2.2,0,0,1-.06.15.21.21,0,0,1-.16.07.24.24,0,0,1-.22-.22Zm.44-1.52h1.09a.2.2,0,0,0,.15-.06.19.19,0,0,0,.07-.15V199a.21.21,0,0,0-.07-.16.2.2,0,0,0-.15-.06H29.33Z" style="fill: #fff"/>
      <path d="M34,198.79H32.5v1.05h.66a.18.18,0,0,1,.15.07.22.22,0,0,1,0,.3.18.18,0,0,1-.15.07H32.5v1.06H34a.2.2,0,0,1,.15.06.22.22,0,0,1-.15.37h-2v-3.42h2a.24.24,0,0,1,.22.22.21.21,0,0,1-.07.16A.2.2,0,0,1,34,198.79Z" style="fill: #fff"/>
      <path d="M35.47,198.35h.21a.2.2,0,0,1,.16.07.22.22,0,0,1,0,.3.24.24,0,0,1-.16.07v1.42H37.2a.21.21,0,0,1,.16.07.2.2,0,0,1,.06.15v1.12a.2.2,0,0,1-.06.15.25.25,0,0,1-.16.06H35.47a.25.25,0,0,1-.16-.06.2.2,0,0,1-.06-.15v-3a.2.2,0,0,1,.06-.15A.2.2,0,0,1,35.47,198.35Zm.21,2.3v.68H37v-.68Z" style="fill: #fff"/>
      <path d="M38.63,201.33h.66v-2.54h-.65a.26.26,0,0,1-.16-.07.22.22,0,0,1,0-.3.21.21,0,0,1,.16-.07h1.08v3h.43v-.9a.2.2,0,0,1,.06-.15.25.25,0,0,1,.16-.06.21.21,0,0,1,.21.21v1.12a.21.21,0,0,1-.21.21H38.63a.23.23,0,0,1-.16-.06.25.25,0,0,1-.06-.16.2.2,0,0,1,.06-.15A.23.23,0,0,1,38.63,201.33Z" style="fill: #fff"/>
      <path d="M41.59,201.35v-2.59a.37.37,0,0,1,.13-.29.4.4,0,0,1,.29-.12h1.35a.38.38,0,0,1,.28.12.37.37,0,0,1,.13.29v2.59a.37.37,0,0,1-.13.29.4.4,0,0,1-.29.12H42a.41.41,0,0,1-.3-.12A.4.4,0,0,1,41.59,201.35Zm1.75,0v-2.54H42v2.54Z" style="fill: #fff"/>
    </g>
    <g>
      <path d="M60.6,193.28v-2.4h1.15a.49.49,0,0,1,.34.14.5.5,0,0,1,.14.35v.18a.5.5,0,0,1-.14.35.49.49,0,0,1-.34.14h-.21l.66,1.14a.17.17,0,0,1,0,.1.17.17,0,0,1-.16.16.16.16,0,0,1-.15-.09L61.16,192h-.23v1.24a.16.16,0,0,1,0,.11.17.17,0,0,1-.12.05.17.17,0,0,1-.16-.16Zm.33-1.56h.82a.17.17,0,0,0,.16-.16v-.19a.18.18,0,0,0,0-.12.15.15,0,0,0-.11,0h-.82Z" style="fill: #fff"/>
      <path d="M64.61,192.19v.39a.17.17,0,0,1-.16.16H63.3v.09a.17.17,0,0,0,.07.14l.1.08a.24.24,0,0,0,.14.06h.84a.16.16,0,0,1,.11,0,.17.17,0,0,1,0,.12.17.17,0,0,1-.16.16h-.86a.59.59,0,0,1-.17,0,.45.45,0,0,1-.14-.07l-.15-.13a.58.58,0,0,1-.11-.15.39.39,0,0,1,0-.18v-.74a.45.45,0,0,1,0-.17.59.59,0,0,1,.13-.17l.13-.1a.48.48,0,0,1,.3-.11H64a.51.51,0,0,1,.33.14l.12.12A.47.47,0,0,1,64.61,192.19Zm-1.3,0v.25h1v-.22a.17.17,0,0,0-.06-.14l-.09-.08a.22.22,0,0,0-.13-.06H63.6a.2.2,0,0,0-.14.05l-.09.08A.14.14,0,0,0,63.31,192.16Z" style="fill: #fff"/>
      <path d="M65.81,191.58h.74a.48.48,0,0,1,.31.1.28.28,0,0,1,.13.2.13.13,0,0,1,0,.12.15.15,0,0,1-.11,0,.19.19,0,0,1-.14-.07.19.19,0,0,0-.13-.07h-.73c-.07,0-.11,0-.11.09a.12.12,0,0,0,.07.1l.86.38a.5.5,0,0,1,.22.19.54.54,0,0,1,.08.28.45.45,0,0,1-.15.35.44.44,0,0,1-.33.15h-.65a.54.54,0,0,1-.32-.11.24.24,0,0,1-.14-.19.17.17,0,0,1,0-.12.19.19,0,0,1,.13-.05.24.24,0,0,1,.13.07.24.24,0,0,0,.2.07h.6a.17.17,0,0,0,.12-.05.21.21,0,0,0,0-.13.18.18,0,0,0-.11-.16l-.87-.39a.42.42,0,0,1-.19-.16.44.44,0,0,1-.07-.21.41.41,0,0,1,.12-.3A.38.38,0,0,1,65.81,191.58Z" style="fill: #fff"/>
      <path d="M69.05,193.43h-1a.14.14,0,0,1-.11,0,.15.15,0,0,1,0-.12.13.13,0,0,1,0-.11.14.14,0,0,1,.11,0h.33V191.9h-.33a.13.13,0,0,1-.11-.05.14.14,0,0,1,0-.11.21.21,0,0,1,0-.12.15.15,0,0,1,.11,0h.5a.15.15,0,0,1,.11,0,.21.21,0,0,1,0,.12v1.37H69a.13.13,0,0,1,.12,0,.16.16,0,0,1,0,.11.18.18,0,0,1,0,.12A.15.15,0,0,1,69.05,193.43Zm-.66-2.69h.17a.15.15,0,0,1,.11,0,.18.18,0,0,1,0,.12V191a.16.16,0,0,1,0,.11.13.13,0,0,1-.11,0h-.18a.13.13,0,0,1-.11,0,.16.16,0,0,1,0-.11v-.14a.17.17,0,0,1,0-.12A.16.16,0,0,1,68.39,190.74Z" style="fill: #fff"/>
      <path d="M70.57,191.58h.74a.48.48,0,0,1,.31.1.28.28,0,0,1,.13.2.13.13,0,0,1,0,.12.14.14,0,0,1-.1,0,.19.19,0,0,1-.15-.07.19.19,0,0,0-.13-.07h-.73c-.07,0-.11,0-.11.09a.12.12,0,0,0,.07.1l.86.38a.5.5,0,0,1,.22.19.54.54,0,0,1,.08.28.48.48,0,0,1-.14.35.46.46,0,0,1-.34.15h-.65a.54.54,0,0,1-.32-.11.26.26,0,0,1-.14-.19.17.17,0,0,1,0-.12.21.21,0,0,1,.13-.05.24.24,0,0,1,.13.07.26.26,0,0,0,.2.07h.6a.18.18,0,0,0,.06-.34l-.86-.39a.4.4,0,0,1-.2-.16.42.42,0,0,1-.06-.21.41.41,0,0,1,.12-.3A.37.37,0,0,1,70.57,191.58Z" style="fill: #fff"/>
      <path d="M73.64,193.44h-.33a.46.46,0,0,1-.34-.15.45.45,0,0,1-.15-.34v-1h-.16a.14.14,0,0,1-.11,0,.13.13,0,0,1,0-.12.13.13,0,0,1,0-.11.14.14,0,0,1,.11,0h.17v-.4a.13.13,0,0,1,0-.11.15.15,0,0,1,.22,0,.13.13,0,0,1,.05.11v.4h.65a.18.18,0,0,1,.12,0,.15.15,0,0,1,0,.11.14.14,0,0,1-.16.16h-.65v1a.15.15,0,0,0,0,.12.15.15,0,0,0,.11,0h.32c.09,0,.14,0,.17-.14s.08-.14.16-.14a.17.17,0,0,1,.17.17.44.44,0,0,1-.14.29A.45.45,0,0,1,73.64,193.44Z" style="fill: #fff"/>
      <path d="M76.19,193.43h-1a.15.15,0,0,1-.11,0,.18.18,0,0,1,0-.12.17.17,0,0,1,.16-.16h.33V191.9h-.32a.13.13,0,0,1-.12-.05.14.14,0,0,1,0-.11.21.21,0,0,1,0-.12.16.16,0,0,1,.12,0h.49a.15.15,0,0,1,.11,0,.21.21,0,0,1,0,.12v1.37h.32a.13.13,0,0,1,.12,0,.16.16,0,0,1,0,.11.18.18,0,0,1,0,.12A.15.15,0,0,1,76.19,193.43Zm-.66-2.69h.17a.15.15,0,0,1,.11,0,.18.18,0,0,1,0,.12V191a.16.16,0,0,1,0,.11.13.13,0,0,1-.11,0h-.17a.13.13,0,0,1-.12,0,.16.16,0,0,1,0-.11v-.14a.14.14,0,0,1,.16-.16Z" style="fill: #fff"/>
      <path d="M78.89,191.74v.31l-.56,1.27c0,.08-.08.12-.14.12H78a.17.17,0,0,1-.16-.12l-.56-1.27v-.31a.17.17,0,0,1,.16-.16.18.18,0,0,1,.12,0,.15.15,0,0,1,0,.11V192l.5,1.11.49-1.11v-.25a.15.15,0,0,1,0-.11.21.21,0,0,1,.12,0,.17.17,0,0,1,.12,0A.15.15,0,0,1,78.89,191.74Z" style="fill: #fff"/>
      <path d="M81.27,192.19v.39a.13.13,0,0,1,0,.11.16.16,0,0,1-.11.05H80v.09A.15.15,0,0,0,80,193l.09.08a.24.24,0,0,0,.15.06h.83a.16.16,0,0,1,.11,0,.13.13,0,0,1,0,.12.13.13,0,0,1,0,.11.16.16,0,0,1-.11.05h-.85a.58.58,0,0,1-.18,0l-.14-.07-.14-.13a.42.42,0,0,1-.11-.15.31.31,0,0,1,0-.18v-.74a.51.51,0,0,1,0-.17.43.43,0,0,1,.12-.17l.14-.1a.46.46,0,0,1,.29-.11h.46a.49.49,0,0,1,.32.14l.12.12A.43.43,0,0,1,81.27,192.19Zm-1.3,0v.25h1v-.22a.2.2,0,0,0,0-.14l-.1-.08a.22.22,0,0,0-.13-.06h-.4a.19.19,0,0,0-.14.05L80,192A.14.14,0,0,0,80,192.16Z" style="fill: #fff"/>
    </g>
    <g>
      <path d="M59.84,195.53V195h1.81v.49a.18.18,0,0,1-.06.13.18.18,0,0,1-.12.05.19.19,0,0,1-.13-.05.18.18,0,0,1-.06-.13v-.13h-.36v2.28a.15.15,0,0,1-.05.13.21.21,0,0,1-.13.05.17.17,0,0,1-.12-.05.16.16,0,0,1-.06-.13V195.4H60.2v.13a.17.17,0,0,1-.18.17.13.13,0,0,1-.12,0A.14.14,0,0,1,59.84,195.53Z" style="fill: #fff"/>
      <path d="M64.27,196.46v.75a.57.57,0,0,1-.22.44.69.69,0,0,1-.47.21h-.42a.69.69,0,0,1-.47-.21.62.62,0,0,1-.22-.44v-.75a.57.57,0,0,1,.22-.44.66.66,0,0,1,.47-.21h.42a.68.68,0,0,1,.47.2A.58.58,0,0,1,64.27,196.46Zm-1.44,0v.72a.22.22,0,0,0,.07.16l.14.11a.16.16,0,0,0,.12,0h.42a.25.25,0,0,0,.16-.06l.11-.1a.17.17,0,0,0,.07-.14v-.72a.19.19,0,0,0-.07-.16l-.13-.1a.2.2,0,0,0-.14-.06h-.37a.27.27,0,0,0-.19.06l-.12.11A.15.15,0,0,0,62.83,196.47Z" style="fill: #fff"/>
      <path d="M66,197.5l.6-.38V196a.18.18,0,1,1,.36,0v1.69a.18.18,0,1,1-.36,0v-.14l-.31.21a.72.72,0,0,1-.37.11h-.16a.54.54,0,0,1-.38-.15.58.58,0,0,1-.17-.38l0-1.34a.17.17,0,0,1,0-.12.18.18,0,0,1,.13-.06.21.21,0,0,1,.18.18l0,1.32c0,.13.07.19.22.19Z" style="fill: #fff"/>
      <path d="M69.35,197.86h-.76a.5.5,0,0,1-.34-.12l-.35-.3a.47.47,0,0,1-.17-.37v-.47a.53.53,0,0,1,.19-.4l.31-.26a.48.48,0,0,1,.33-.13h.8a.17.17,0,0,1,.12.05.17.17,0,0,1,0,.26.17.17,0,0,1-.12,0h-.77a.22.22,0,0,0-.14.06l-.28.24a.19.19,0,0,0-.07.16v.44a.13.13,0,0,0,.05.11l.31.27a.24.24,0,0,0,.16.05h.73a.18.18,0,0,1,.13.06.17.17,0,0,1,0,.12.19.19,0,0,1,0,.13A.21.21,0,0,1,69.35,197.86Z" style="fill: #fff"/>
      <path d="M70.35,197.68v-2.46a.18.18,0,0,1,.06-.13.17.17,0,0,1,.12-.05.18.18,0,0,1,.13.06.17.17,0,0,1,0,.12v.9l.29-.18a.61.61,0,0,1,.35-.13h.22a.49.49,0,0,1,.37.16.54.54,0,0,1,.17.38l0,1.33a.19.19,0,0,1-.05.13.21.21,0,0,1-.13.05.17.17,0,0,1-.12-.05.22.22,0,0,1-.06-.13l0-1.34a.21.21,0,0,0-.18-.18h-.2a.24.24,0,0,0-.15.06l-.51.33v1.13a.19.19,0,0,1,0,.13.21.21,0,0,1-.13.05.17.17,0,0,1-.12-.05A.16.16,0,0,1,70.35,197.68Z" style="fill: #fff"/>
      <path d="M73.48,195.81h.82a.52.52,0,0,1,.34.12.3.3,0,0,1,.15.22.14.14,0,0,1-.06.12.13.13,0,0,1-.12,0,.19.19,0,0,1-.15-.07.19.19,0,0,0-.15-.08H73.5c-.08,0-.12,0-.12.1a.11.11,0,0,0,.08.1l1,.43a.52.52,0,0,1,.24.2.56.56,0,0,1,.09.31.55.55,0,0,1-.53.55h-.72a.63.63,0,0,1-.35-.11c-.11-.08-.16-.15-.16-.22a.17.17,0,0,1,0-.12.18.18,0,0,1,.14-.06.23.23,0,0,1,.14.08.32.32,0,0,0,.23.07h.66a.14.14,0,0,0,.13-.06.18.18,0,0,0,.06-.13.18.18,0,0,0-.12-.18l-1-.43a.46.46,0,0,1-.21-.18.46.46,0,0,1-.08-.24.49.49,0,0,1,.14-.33A.42.42,0,0,1,73.48,195.81Z" style="fill: #fff"/>
      <path d="M77.24,197.86h-.77a.5.5,0,0,1-.34-.12l-.35-.3a.46.46,0,0,1-.16-.37v-.47a.48.48,0,0,1,.18-.4l.32-.26a.45.45,0,0,1,.32-.13h.8a.18.18,0,1,1,0,.36h-.77a.22.22,0,0,0-.14.06l-.28.24a.19.19,0,0,0-.07.16v.44a.16.16,0,0,0,0,.11l.32.27a.2.2,0,0,0,.15.05h.74a.17.17,0,0,1,.12.06.13.13,0,0,1,0,.12.15.15,0,0,1,0,.13A.18.18,0,0,1,77.24,197.86Z" style="fill: #fff"/>
      <path d="M78.24,197.68V196a.17.17,0,0,1,.18-.18.17.17,0,0,1,.12.05.18.18,0,0,1,.06.13v.22l.29-.24a.53.53,0,0,1,.35-.16h.26a.55.55,0,0,1,.54.54v.09a.19.19,0,0,1-.05.13.17.17,0,0,1-.26,0,.17.17,0,0,1,0-.12v-.1a.17.17,0,0,0-.18-.18h-.23a.32.32,0,0,0-.17.08l-.5.44v1a.16.16,0,0,1-.06.13.17.17,0,0,1-.12.05.21.21,0,0,1-.13-.05A.19.19,0,0,1,78.24,197.68Z" style="fill: #fff"/>
      <path d="M82.66,196.48v.43a.17.17,0,0,1,0,.13.15.15,0,0,1-.12.05H81.22v.11a.19.19,0,0,0,.08.15l.11.09a.27.27,0,0,0,.16.06h.92a.16.16,0,0,1,.12.06.13.13,0,0,1,0,.12.17.17,0,0,1,0,.13.21.21,0,0,1-.12.05h-.95a.46.46,0,0,1-.19,0,.35.35,0,0,1-.15-.08L81,197.6a.53.53,0,0,1-.13-.16.58.58,0,0,1,0-.2v-.82a.45.45,0,0,1,.06-.19.42.42,0,0,1,.13-.18l.15-.12a.52.52,0,0,1,.33-.12H82a.58.58,0,0,1,.36.16l.13.13A.46.46,0,0,1,82.66,196.48Zm-1.43,0v.27h1.08v-.25a.2.2,0,0,0-.06-.15l-.1-.09a.33.33,0,0,0-.15-.07h-.45a.24.24,0,0,0-.15.06l-.1.09A.15.15,0,0,0,81.23,196.46Z" style="fill: #fff"/>
      <path d="M85.29,196.48v.43a.21.21,0,0,1-.05.13.17.17,0,0,1-.13.05H83.85v.11a.19.19,0,0,0,.08.15l.1.09a.29.29,0,0,0,.16.06h.92a.18.18,0,0,1,.13.06.17.17,0,0,1,.05.12.17.17,0,0,1-.18.18h-.94a.43.43,0,0,1-.19,0,.48.48,0,0,1-.16-.08l-.16-.14a.4.4,0,0,1-.12-.16.58.58,0,0,1-.05-.2v-.82a.59.59,0,0,1,.05-.19.54.54,0,0,1,.14-.18l.15-.12a.51.51,0,0,1,.32-.12h.51A.53.53,0,0,1,85,196l.14.13A.49.49,0,0,1,85.29,196.48Zm-1.43,0v.27h1.08v-.25a.2.2,0,0,0-.06-.15l-.11-.09a.26.26,0,0,0-.14-.07h-.45a.2.2,0,0,0-.15.06l-.1.09A.15.15,0,0,0,83.86,196.46Z" style="fill: #fff"/>
      <path d="M87,196.23l-.49.31v1.14a.17.17,0,0,1-.18.18.17.17,0,0,1-.12-.05.18.18,0,0,1-.06-.13V196a.18.18,0,1,1,.36,0v.12l.32-.2a.69.69,0,0,1,.37-.1h.17a.51.51,0,0,1,.37.15.51.51,0,0,1,.16.37l0,1.35a.17.17,0,0,1-.18.18.15.15,0,0,1-.12-.05.18.18,0,0,1-.06-.13l0-1.33a.17.17,0,0,0-.19-.19h-.18A.34.34,0,0,0,87,196.23Z" style="fill: #fff"/>
    </g>
    <g>
      <path d="M61.64,201.6h.58a.17.17,0,0,1,.16.16.18.18,0,0,1-.05.12.15.15,0,0,1-.11,0h-.6a.52.52,0,0,1-.41-.23l-.37-.72a.67.67,0,0,1-.07-.31.59.59,0,0,1,.07-.31l.37-.71a.46.46,0,0,1,.17-.17.4.4,0,0,1,.22-.08h.63a.17.17,0,0,1,.16.16.21.21,0,0,1,0,.12.15.15,0,0,1-.11,0h-.61a.14.14,0,0,0-.12.09l-.36.67a.34.34,0,0,0,0,.18.42.42,0,0,0,0,.2l.34.65A.16.16,0,0,0,61.64,201.6Z" style="fill: #fff"/>
      <path d="M64.73,200.66v.68a.57.57,0,0,1-.2.4.65.65,0,0,1-.42.18h-.38a.62.62,0,0,1-.42-.19.53.53,0,0,1-.2-.39v-.68a.53.53,0,0,1,.2-.39.58.58,0,0,1,.42-.19h.38a.65.65,0,0,1,.42.18A.55.55,0,0,1,64.73,200.66Zm-1.29,0v.65a.17.17,0,0,0,.06.14l.12.1a.15.15,0,0,0,.11,0h.38a.2.2,0,0,0,.14-.06l.1-.09a.14.14,0,0,0,.06-.12v-.65a.17.17,0,0,0-.06-.14l-.11-.09a.21.21,0,0,0-.13,0h-.34a.25.25,0,0,0-.16,0l-.11.09A.18.18,0,0,0,63.44,200.67Z" style="fill: #fff"/>
      <path d="M66.23,200.46l-.44.28v1a.14.14,0,0,1,0,.11.13.13,0,0,1-.12,0,.13.13,0,0,1-.11,0,.14.14,0,0,1,0-.11v-1.52a.17.17,0,0,1,.16-.16.17.17,0,0,1,.12,0,.15.15,0,0,1,0,.11v.11l.3-.18a.6.6,0,0,1,.33-.09h.15a.45.45,0,0,1,.33.14.45.45,0,0,1,.14.33l0,1.21a.14.14,0,0,1,0,.11.13.13,0,0,1-.11,0,.15.15,0,0,1-.11,0,.17.17,0,0,1,0-.12l0-1.19a.15.15,0,0,0-.17-.17h-.16A.29.29,0,0,0,66.23,200.46Z" style="fill: #fff"/>
      <path d="M69,201.92h-.32a.46.46,0,0,1-.35-.14.48.48,0,0,1-.14-.34v-1H68a.17.17,0,0,1-.12,0,.16.16,0,0,1,0-.12.15.15,0,0,1,0-.11.18.18,0,0,1,.12,0h.17v-.39a.15.15,0,0,1,0-.11.17.17,0,0,1,.12-.05.18.18,0,0,1,.11.05.16.16,0,0,1,0,.11v.39h.64a.17.17,0,0,1,.16.16.17.17,0,0,1,0,.12.15.15,0,0,1-.11,0h-.65v1a.14.14,0,0,0,0,.11.13.13,0,0,0,.12,0H69a.17.17,0,0,0,.17-.14.16.16,0,0,1,.16-.13.14.14,0,0,1,.11,0,.17.17,0,0,1,0,.12.44.44,0,0,1-.14.29A.46.46,0,0,1,69,201.92Z" style="fill: #fff"/>
      <path d="M70.19,201.76v-1.52a.15.15,0,0,1,0-.11.18.18,0,0,1,.12,0,.17.17,0,0,1,.16.16v.2l.26-.22a.51.51,0,0,1,.32-.14h.23a.48.48,0,0,1,.48.48v.09a.18.18,0,0,1,0,.12.17.17,0,0,1-.22,0,.17.17,0,0,1,0-.12v-.09a.17.17,0,0,0-.16-.16h-.21a.33.33,0,0,0-.15.07l-.45.4v.89a.18.18,0,0,1-.05.12.15.15,0,0,1-.11,0,.14.14,0,0,1-.16-.16Z" style="fill: #fff"/>
      <path d="M74.16,200.66v.68a.55.55,0,0,1-.21.4.61.61,0,0,1-.41.18h-.38a.58.58,0,0,1-.42-.19.53.53,0,0,1-.2-.39v-.68a.53.53,0,0,1,.2-.39.58.58,0,0,1,.42-.19h.38a.61.61,0,0,1,.41.18A.53.53,0,0,1,74.16,200.66Zm-1.3,0v.65a.17.17,0,0,0,.07.14l.12.1a.12.12,0,0,0,.11,0h.37a.2.2,0,0,0,.15-.06l.1-.09a.14.14,0,0,0,.06-.12v-.65a.17.17,0,0,0-.06-.14l-.11-.09a.24.24,0,0,0-.14,0H73.2a.29.29,0,0,0-.17,0l-.11.09A.18.18,0,0,0,72.86,200.67Z" style="fill: #fff"/>
      <path d="M76.19,201.92h-1a.13.13,0,0,1-.12,0,.17.17,0,0,1,0-.22.13.13,0,0,1,.12-.05h.32v-1.89h-.33a.13.13,0,0,1-.11-.05.16.16,0,0,1,.11-.27h.49a.17.17,0,0,1,.16.16v2h.32a.15.15,0,0,1,.12.05.17.17,0,0,1,0,.22A.13.13,0,0,1,76.19,201.92Z" style="fill: #fff"/>
      <path d="M78.55,201.92h-1a.13.13,0,0,1-.11,0,.15.15,0,0,1,0-.22.13.13,0,0,1,.11-.05h.32v-1.89h-.32a.12.12,0,0,1-.11-.05.15.15,0,0,1,0-.22.14.14,0,0,1,.11-.05h.49a.17.17,0,0,1,.16.16v2h.32a.13.13,0,0,1,.11.05.15.15,0,0,1,0,.22A.13.13,0,0,1,78.55,201.92Z" style="fill: #fff"/>
      <path d="M81.23,200.69v.38a.18.18,0,0,1,0,.12.15.15,0,0,1-.11,0H79.94v.1a.17.17,0,0,0,.07.14l.09.07a.24.24,0,0,0,.14.06h.83a.17.17,0,0,1,.16.16.14.14,0,0,1,0,.11.13.13,0,0,1-.11,0h-.85l-.17,0a.58.58,0,0,1-.14-.08l-.14-.12a.42.42,0,0,1-.11-.15.41.41,0,0,1,0-.18v-.73a.51.51,0,0,1,0-.17.34.34,0,0,1,.12-.16l.14-.11a.44.44,0,0,1,.29-.11h.45a.49.49,0,0,1,.32.14l.12.12A.47.47,0,0,1,81.23,200.69Zm-1.29,0v.25h1v-.22a.2.2,0,0,0,0-.14l-.1-.08a.22.22,0,0,0-.13-.06h-.4a.17.17,0,0,0-.13.05l-.1.08A.14.14,0,0,0,79.94,200.66Z" style="fill: #fff"/>
      <path d="M82,201.76v-1.52a.17.17,0,0,1,.16-.16.18.18,0,0,1,.12,0,.15.15,0,0,1,0,.11v.2l.26-.22a.53.53,0,0,1,.32-.14h.23a.46.46,0,0,1,.34.14.45.45,0,0,1,.14.34v.09a.17.17,0,0,1,0,.12.16.16,0,0,1-.12,0,.15.15,0,0,1-.11,0,.17.17,0,0,1,0-.12v-.09a.15.15,0,0,0,0-.11.17.17,0,0,0-.12,0h-.2a.26.26,0,0,0-.15.07l-.46.4v.89a.15.15,0,0,1-.05.12.14.14,0,0,1-.11,0,.15.15,0,0,1-.11,0A.18.18,0,0,1,82,201.76Z" style="fill: #fff"/>
    </g>
    <g>
      <path d="M11.62,228v-1a.51.51,0,0,1,.51-.48.21.21,0,0,1,.13,0,.17.17,0,0,1,.05.13c0,.06,0,.1,0,.12a.34.34,0,0,1-.16.07.14.14,0,0,0-.11.14V228s0,.06,0,.06l.06,0,1.74-1.36a.4.4,0,0,1,.55,0,.33.33,0,0,1,.13.26v1a.46.46,0,0,1-.15.34.49.49,0,0,1-.33.14c-.14,0-.2-.06-.2-.19a.17.17,0,0,1,.05-.13A.18.18,0,0,1,14,228a.14.14,0,0,0,.14-.14V227s0-.06-.05-.06l0,0-1.74,1.36a.44.44,0,0,1-.27.09.4.4,0,0,1-.29-.12A.37.37,0,0,1,11.62,228Z" style="fill: #fff"/>
      <path d="M11.62,225.53v-.73a.48.48,0,0,1,.09-.27.59.59,0,0,1,.22-.2l.73-.36a.87.87,0,0,1,.42-.1.91.91,0,0,1,.41.1l.72.37a.47.47,0,0,1,.22.2.5.5,0,0,1,.09.29v.7a.18.18,0,0,1-.06.13.15.15,0,0,1-.13.05.17.17,0,0,1-.13-.05.21.21,0,0,1,0-.13v-.19H12v.19a.17.17,0,0,1-.18.18.19.19,0,0,1-.13-.05A.18.18,0,0,1,11.62,225.53ZM12,225h2.16v-.13a.19.19,0,0,0-.12-.18l-.72-.36a.49.49,0,0,0-.23-.07.46.46,0,0,0-.23.06l-.75.37a.2.2,0,0,0-.11.19Z" style="fill: #fff"/>
      <path d="M14.26,223l-2.5-.74a.18.18,0,0,1-.14-.18.16.16,0,0,1,.12-.17l2.54-.73h.05a.19.19,0,0,1,.13.05.14.14,0,0,1,.06.12.17.17,0,0,1-.14.18l-.49.15v.83l.53.16.07.06a.19.19,0,0,1,0,.1.18.18,0,0,1-.06.14.19.19,0,0,1-.13,0Zm-1.79-.92,1,.31v-.61Z" style="fill: #fff"/>
      <path d="M11.94,218.48,14.46,220a.11.11,0,0,1,.06.11.24.24,0,0,1,0,.13.16.16,0,0,1-.13.06.27.27,0,0,1-.14,0l-2.52-1.49a.11.11,0,0,1-.06-.11.21.21,0,0,1,.05-.13.13.13,0,0,1,.12-.07A.3.3,0,0,1,11.94,218.48Z" style="fill: #fff"/>
      <path d="M14.15,216.62V216a.19.19,0,0,1,0-.13.18.18,0,0,1,.13-.06.21.21,0,0,1,.19.19v.68a.48.48,0,0,1-.09.27.51.51,0,0,1-.18.2l-.82.42a.9.9,0,0,1-.36.08.65.65,0,0,1-.35-.08l-.81-.42a.72.72,0,0,1-.2-.19.45.45,0,0,1-.09-.25v-.73a.14.14,0,0,1,.06-.12.16.16,0,0,1,.13-.06.18.18,0,0,1,.13.06.17.17,0,0,1,.05.12v.7a.16.16,0,0,0,.11.14l.75.41a.46.46,0,0,0,.21.05.41.41,0,0,0,.23-.06l.75-.38A.2.2,0,0,0,14.15,216.62Z" style="fill: #fff"/>
      <path d="M11.62,214.52v-1a.51.51,0,0,1,.51-.48.17.17,0,0,1,.13,0,.16.16,0,0,1,.05.12c0,.07,0,.11,0,.13a.34.34,0,0,1-.16.07.14.14,0,0,0-.11.14v.91s0,.06,0,.06l.06,0,1.74-1.37a.44.44,0,0,1,.27-.09.39.39,0,0,1,.28.12.32.32,0,0,1,.13.26v1a.46.46,0,0,1-.15.34.49.49,0,0,1-.33.14c-.14,0-.2-.06-.2-.19a.17.17,0,0,1,.05-.13.18.18,0,0,1,.12-.05.14.14,0,0,0,.14-.14v-.91s0-.06-.05-.06l0,0-1.74,1.36a.44.44,0,0,1-.27.09.4.4,0,0,1-.29-.12A.37.37,0,0,1,11.62,214.52Z" style="fill: #fff"/>
    </g>
    <g>
      <path d="M17.9,225.73h1a.46.46,0,0,1,.33.15.5.5,0,0,1,.16.36.18.18,0,0,1-.06.13.16.16,0,0,1-.12,0c-.07,0-.11,0-.13,0a.49.49,0,0,1-.07-.16.14.14,0,0,0-.14-.11h-.9c-.05,0-.07,0-.07,0a.09.09,0,0,0,0,.06L19.24,228a.45.45,0,0,1,.1.27.38.38,0,0,1-.12.28.35.35,0,0,1-.27.13H18a.47.47,0,0,1-.35-.15.49.49,0,0,1-.14-.33c0-.13.06-.2.19-.2a.17.17,0,0,1,.13.05.21.21,0,0,1,.05.13.11.11,0,0,0,0,.09.13.13,0,0,0,.1,0h.91s.06,0,.06,0a.09.09,0,0,0,0-.06l-1.35-1.74a.39.39,0,0,1-.1-.27.4.4,0,0,1,.12-.29A.42.42,0,0,1,17.9,225.73Z" style="fill: #fff"/>
      <path d="M21.18,228.26h.66a.16.16,0,0,1,.13.06.15.15,0,0,1,.06.13.18.18,0,0,1-.06.13.19.19,0,0,1-.13,0h-.68a.56.56,0,0,1-.27-.08.61.61,0,0,1-.2-.19l-.42-.82a.86.86,0,0,1-.08-.36.67.67,0,0,1,.08-.35l.42-.81a.72.72,0,0,1,.19-.2.45.45,0,0,1,.25-.09h.73a.18.18,0,0,1,.13.06.19.19,0,0,1,0,.26.17.17,0,0,1-.13,0h-.7a.16.16,0,0,0-.14.11l-.41.75a.48.48,0,0,0-.05.22.4.4,0,0,0,.06.22l.38.75A.2.2,0,0,0,21.18,228.26Z" style="fill: #fff"/>
      <path d="M22.87,228.63v-2.71a.18.18,0,0,1,.06-.13.16.16,0,0,1,.13-.06.16.16,0,0,1,.12.06.18.18,0,0,1,.06.13v2.34h1.29a.16.16,0,0,1,.13.06.15.15,0,0,1,.06.13.18.18,0,0,1-.06.13.19.19,0,0,1-.13,0Z" style="fill: #fff"/>
    </g>
    <g>
      <path d="M32.06,225.73h1a.51.51,0,0,1,.48.51.21.21,0,0,1,0,.13.17.17,0,0,1-.13,0,.17.17,0,0,1-.13,0,.53.53,0,0,1-.06-.16.14.14,0,0,0-.14-.11h-.91s-.06,0-.06,0,0,0,0,.06L33.4,228a.39.39,0,0,1,.1.27.38.38,0,0,1-.12.28.33.33,0,0,1-.26.13h-1a.46.46,0,0,1-.34-.15.45.45,0,0,1-.14-.33c0-.13.06-.2.19-.2A.13.13,0,0,1,32,228a.18.18,0,0,1,.06.13.11.11,0,0,0,0,.09.12.12,0,0,0,.1,0h.91s.06,0,.06,0a.09.09,0,0,0,0-.06l-1.36-1.74a.44.44,0,0,1-.09-.27.4.4,0,0,1,.12-.29A.41.41,0,0,1,32.06,225.73Z" style="fill: #fff"/>
      <path d="M34.52,225.73h.73a.6.6,0,0,1,.27.1.5.5,0,0,1,.2.21l.36.73a.9.9,0,0,1,.1.42.82.82,0,0,1-.11.41l-.36.72a.53.53,0,0,1-.2.22.5.5,0,0,1-.29.09h-.7a.16.16,0,0,1-.13-.06.13.13,0,0,1,0-.12.17.17,0,0,1,0-.14.19.19,0,0,1,.13-.05h.19V226.1h-.19a.17.17,0,0,1-.13,0,.19.19,0,0,1,0-.26A.18.18,0,0,1,34.52,225.73Zm.56.37v2.16h.12a.2.2,0,0,0,.19-.12l.36-.72a.65.65,0,0,0,.07-.23.46.46,0,0,0-.06-.23l-.37-.74a.21.21,0,0,0-.19-.12Z" style="fill: #fff"/>
      <path d="M38.39,226l.41.82a.91.91,0,0,1,.08.37.9.9,0,0,1-.08.36l-.41.81a.44.44,0,0,1-.43.27.5.5,0,0,1-.27-.08.52.52,0,0,1-.17-.19l-.41-.81a.86.86,0,0,1-.08-.36.87.87,0,0,1,.08-.37l.41-.82a.46.46,0,0,1,.44-.27A.44.44,0,0,1,38.39,226Zm-.55.18-.38.78a.46.46,0,0,0-.06.22.46.46,0,0,0,.06.23l.39.78a.1.1,0,0,0,.11.07.1.1,0,0,0,.1-.07l.4-.78a.64.64,0,0,0,0-.23.54.54,0,0,0,0-.22l-.39-.78a.12.12,0,0,0-.11-.08A.13.13,0,0,0,37.84,226.18Z" style="fill: #fff"/>
    </g>
    <g>
      <path d="M61.23,225.87h1.34a.16.16,0,0,1,.11,0,.13.13,0,0,1,0,.12.16.16,0,0,1,0,.12.16.16,0,0,1-.11.05h-.5v1.95h.5a.21.21,0,0,1,.12.05.16.16,0,0,1,0,.12.17.17,0,0,1-.16.16H61.23a.13.13,0,0,1-.12-.05.16.16,0,0,1,0-.11.17.17,0,0,1,.17-.17h.51v-1.95h-.51a.17.17,0,0,1-.12-.05.21.21,0,0,1,0-.12.17.17,0,0,1,.17-.17Z" style="fill: #fff"/>
      <path d="M64.73,226.11l.37.75a.72.72,0,0,1,.07.33.71.71,0,0,1-.07.32l-.37.74a.41.41,0,0,1-.39.24.4.4,0,0,1-.24-.07.44.44,0,0,1-.16-.17l-.37-.74a.79.79,0,0,1-.07-.32.81.81,0,0,1,.07-.33l.37-.75a.42.42,0,0,1,.4-.24A.41.41,0,0,1,64.73,226.11Zm-.5.17-.35.7a.51.51,0,0,0,0,.2.52.52,0,0,0,0,.21l.36.71a.1.1,0,0,0,.1.06.1.1,0,0,0,.09-.06l.36-.71a.54.54,0,0,0,0-.21.46.46,0,0,0,0-.2l-.35-.7a.11.11,0,0,0-.1-.08A.12.12,0,0,0,64.23,226.28Z" style="fill: #fff"/>
      <path d="M67.61,226.2v.62a.46.46,0,0,1-.13.35.53.53,0,0,1,.14.34v.65a.33.33,0,0,1-.1.23.37.37,0,0,1-.24.1H66.11a.18.18,0,0,1-.12-.05.17.17,0,0,1,0-.12.21.21,0,0,1,0-.12.17.17,0,0,1,.12,0h1.17v-.65a.17.17,0,0,0-.17-.17h-.66a.17.17,0,0,1-.17-.17.16.16,0,0,1,0-.11.17.17,0,0,1,.12-.05h.67a.16.16,0,0,0,.11,0,.13.13,0,0,0,0-.12v-.64H66.1a.13.13,0,0,1-.12,0,.16.16,0,0,1,0-.11.17.17,0,0,1,.17-.17h1.18a.33.33,0,0,1,.24.1A.32.32,0,0,1,67.61,226.2Z" style="fill: #fff"/>
    </g>
    <g>
      <path d="M70.32,226.25H71a.5.5,0,0,1,.37.15.5.5,0,0,1,.35-.15h.69a.34.34,0,0,1,.25.11.32.32,0,0,1,.1.25v1.24a.17.17,0,0,1-.18.17.15.15,0,0,1-.12-.05.17.17,0,0,1,0-.12v-1.24H71.7a.17.17,0,0,0-.12,0,.18.18,0,0,0-.06.13v.7a.17.17,0,0,1-.17.18.17.17,0,0,1-.18-.18v-.71a.17.17,0,0,0,0-.12.13.13,0,0,0-.12,0h-.68v1.25a.17.17,0,0,1,0,.12.18.18,0,0,1-.13.06A.14.14,0,0,1,70,228a.13.13,0,0,1,0-.12v-1.25a.33.33,0,0,1,.1-.25A.34.34,0,0,1,70.32,226.25Z" style="fill: #fff"/>
      <path d="M70.15,223.66h.64l1.82.72a.18.18,0,0,1,0,.34l-1.82.71h-.64a.15.15,0,0,1-.13-.05.13.13,0,0,1,0-.12.17.17,0,0,1,0-.13.19.19,0,0,1,.13,0h.57l1.36-.53L70.72,224h-.57a.15.15,0,0,1-.13,0,.15.15,0,0,1,0-.12.17.17,0,0,1,0-.13A.19.19,0,0,1,70.15,223.66Z" style="fill: #fff"/>
      <path d="M71.36,221.08h.74a.61.61,0,0,1,.44.22.72.72,0,0,1,.2.46v.42a.7.7,0,0,1-.2.46.62.62,0,0,1-.44.22h-.74a.6.6,0,0,1-.43-.22.65.65,0,0,1-.21-.46v-.42a.72.72,0,0,1,.2-.46A.61.61,0,0,1,71.36,221.08Zm0,1.42h.72a.18.18,0,0,0,.15-.07l.11-.13a.16.16,0,0,0,0-.12v-.41a.2.2,0,0,0-.07-.16l-.09-.11a.15.15,0,0,0-.14-.07h-.71a.19.19,0,0,0-.16.07l-.09.12a.2.2,0,0,0-.06.15v.36a.29.29,0,0,0,.06.19l.1.12A.2.2,0,0,0,71.37,222.5Z" style="fill: #fff"/>
    </g>
    <g>
      <path d="M83.33,225.72v.59L82.68,228a.18.18,0,0,1-.16.12.16.16,0,0,1-.16-.12l-.65-1.66v-.59a.16.16,0,0,1,.05-.11.13.13,0,0,1,.11-.05.15.15,0,0,1,.12.05.15.15,0,0,1,0,.11v.53l.49,1.24.49-1.24v-.53a.15.15,0,0,1,0-.11.15.15,0,0,1,.12-.05.13.13,0,0,1,.11.05A.16.16,0,0,1,83.33,225.72Z" style="fill: #fff"/>
      <path d="M85.36,228.09h-1a.16.16,0,0,1,0-.32h.33v-1.2h-.32a.14.14,0,0,1-.16-.16.15.15,0,0,1,0-.11.15.15,0,0,1,.12-.05h.49a.13.13,0,0,1,.11.05.16.16,0,0,1,.05.11v1.36h.32a.16.16,0,0,1,.11,0,.15.15,0,0,1,0,.22A.16.16,0,0,1,85.36,228.09Zm-.65-2.67h.17a.15.15,0,0,1,.11,0,.18.18,0,0,1,.05.12v.13a.17.17,0,0,1-.05.12.16.16,0,0,1-.11,0H84.7a.17.17,0,0,1-.16-.16v-.14a.15.15,0,0,1,0-.12A.14.14,0,0,1,84.71,225.42Z" style="fill: #fff"/>
      <path d="M87.19,226.62l-.44.29v1a.18.18,0,0,1,0,.12.15.15,0,0,1-.11,0,.14.14,0,0,1-.11,0,.15.15,0,0,1,0-.12v-1.52a.15.15,0,0,1,0-.11.15.15,0,0,1,.12-.05.13.13,0,0,1,.11.05.16.16,0,0,1,0,.11v.11l.29-.18a.63.63,0,0,1,.33-.09h.15a.44.44,0,0,1,.33.13.49.49,0,0,1,.15.34l0,1.21a.14.14,0,0,1,0,.12.16.16,0,0,1-.12,0,.15.15,0,0,1-.16-.16l0-1.19a.16.16,0,0,0-.18-.17h-.16A.3.3,0,0,0,87.19,226.62Z" style="fill: #fff"/>
    </g>
    <g>
      <path d="M76.68,234.39h.53a.17.17,0,0,1,.16.16.17.17,0,0,1-.05.12.16.16,0,0,1-.11.05H76.7s-.09,0-.13.07l-.45.57a.29.29,0,0,0-.05.19v.89a.16.16,0,0,0,0,.12.17.17,0,0,0,.12.05h.65a.17.17,0,0,0,.16-.16v-.35h-.33a.17.17,0,0,1-.12,0,.15.15,0,0,1,0-.11.14.14,0,0,1,0-.11.13.13,0,0,1,.12-.05h.65v.67a.48.48,0,0,1-.48.48h-.65a.5.5,0,0,1-.35-.14.49.49,0,0,1-.14-.34v-.89a.6.6,0,0,1,.13-.4l.47-.6a.36.36,0,0,1,.15-.12A.41.41,0,0,1,76.68,234.39Z" style="fill: #fff"/>
      <path d="M79.72,234.56v2.37h-.43l-.86-2v1.81a.17.17,0,0,1-.16.16.18.18,0,0,1-.12-.05.15.15,0,0,1,0-.11v-2.38h.42l.87,2v-1.8a.13.13,0,0,1,0-.12.16.16,0,0,1,.11-.05.17.17,0,0,1,.12.05A.16.16,0,0,1,79.72,234.56Z" style="fill: #fff"/>
      <path d="M80.63,234.39h.63a.46.46,0,0,1,.24.08.44.44,0,0,1,.17.19l.32.64a.8.8,0,0,1,.09.36.7.7,0,0,1-.1.36l-.31.64a.55.55,0,0,1-.18.19.47.47,0,0,1-.26.08h-.61a.17.17,0,0,1-.16-.16.17.17,0,0,1,.05-.12.16.16,0,0,1,.11-.05h.17v-1.88h-.16a.17.17,0,0,1-.12-.05.17.17,0,0,1,0-.12.15.15,0,0,1,0-.11A.17.17,0,0,1,80.63,234.39Zm.48.33v1.89h.11a.17.17,0,0,0,.16-.11l.32-.63a.48.48,0,0,0,.06-.21.41.41,0,0,0-.05-.19l-.33-.66a.17.17,0,0,0-.16-.09Z" style="fill: #fff"/>
    </g>
    <g>
      <path d="M53.8,234.53H55a.12.12,0,0,1,.1,0,.14.14,0,0,1,0,.1.18.18,0,0,1,0,.1.16.16,0,0,1-.11,0h-.43v1.69H55a.15.15,0,0,1,.11,0,.14.14,0,0,1,0,.2.15.15,0,0,1-.11,0H53.8a.13.13,0,0,1-.1,0,.14.14,0,0,1,0-.2.13.13,0,0,1,.1,0h.44v-1.69H53.8a.14.14,0,0,1-.1,0,.14.14,0,0,1,0-.2A.13.13,0,0,1,53.8,234.53Z" style="fill: #fff"/>
      <path d="M55.77,236.51V234.8a.3.3,0,0,1,.08-.2.27.27,0,0,1,.19-.08h.9a.27.27,0,0,1,.19.08.3.3,0,0,1,.08.2v1.71a.3.3,0,0,1-.08.2.27.27,0,0,1-.19.08H56a.27.27,0,0,1-.19-.08A.3.3,0,0,1,55.77,236.51Zm1.16,0v-1.69h-.88v1.69Z" style="fill: #fff"/>
      <path d="M59.19,236.79H57.88v-1a.31.31,0,0,1,.29-.29H59v-.7H58a.14.14,0,0,1-.11,0,.14.14,0,0,1,0-.2.14.14,0,0,1,.11,0h1a.24.24,0,0,1,.2.08.27.27,0,0,1,.09.2v.7a.29.29,0,0,1-.09.21.28.28,0,0,1-.2.08h-.87v.7h1a.14.14,0,0,1,.14.15.18.18,0,0,1,0,.1A.14.14,0,0,1,59.19,236.79Z" style="fill: #fff"/>
    </g>
    <g>
      <path d="M40.2,234.53h.74a.36.36,0,0,1,.26.11.38.38,0,0,1,.12.28.12.12,0,0,1,0,.1.14.14,0,0,1-.1,0,.11.11,0,0,1-.1,0,.35.35,0,0,1,0-.12c0-.06-.05-.09-.11-.09h-.71s-.05,0-.05,0,0,0,0,.05l1.07,1.36a.35.35,0,0,1,.07.21.33.33,0,0,1-.09.23.29.29,0,0,1-.21.09h-.77a.4.4,0,0,1-.27-.11.4.4,0,0,1-.11-.26c0-.11.05-.16.15-.16a.14.14,0,0,1,.14.14.13.13,0,0,0,0,.08.11.11,0,0,0,.08,0H41a0,0,0,0,0,.05,0l0-.05-1.07-1.35a.44.44,0,0,1-.07-.22.32.32,0,0,1,.33-.32Z" style="fill: #fff"/>
      <path d="M42.12,234.53h.57a.38.38,0,0,1,.22.07.35.35,0,0,1,.15.17l.28.57a.61.61,0,0,1,.08.32.67.67,0,0,1-.08.33l-.29.56a.52.52,0,0,1-.15.18.46.46,0,0,1-.23.06h-.55a.14.14,0,0,1-.1-.24.14.14,0,0,1,.1-.05h.15v-1.68h-.15a.14.14,0,0,1-.1,0,.14.14,0,0,1,.1-.24Zm.44.29v1.69h.1a.16.16,0,0,0,.14-.1l.28-.56a.41.41,0,0,0,.06-.19.34.34,0,0,0,0-.17l-.29-.59a.15.15,0,0,0-.15-.08Z" style="fill: #fff"/>
      <path d="M44.23,234.53h1.16a.13.13,0,0,1,.1,0,.13.13,0,0,1,0,.2.12.12,0,0,1-.1,0H45v1.69h.43a.15.15,0,0,1,.11,0,.18.18,0,0,1,0,.1.14.14,0,0,1,0,.1.12.12,0,0,1-.1,0H44.23a.14.14,0,1,1,0-.28h.44v-1.69h-.44a.14.14,0,0,1-.1,0,.14.14,0,0,1,.1-.24Z" style="fill: #fff"/>
    </g>
    <g>
      <path d="M33.91,236.59l.58-2a.13.13,0,0,1,.14-.1c.07,0,.12,0,.13.09l.58,2v0a.13.13,0,0,1,0,.1.12.12,0,0,1-.09,0,.12.12,0,0,1-.14-.1L35,236.3H34.3l-.13.42,0,.05a.12.12,0,0,1-.08,0,.14.14,0,0,1-.11,0,.13.13,0,0,1,0-.1A.13.13,0,0,1,33.91,236.59Zm.72-1.4-.25.82h.49Z" style="fill: #fff"/>
      <path d="M36,236.51V234.8a.27.27,0,0,1,.09-.2.26.26,0,0,1,.19-.08h.89a.27.27,0,0,1,.28.28v1.71a.27.27,0,0,1-.28.28h-.89a.27.27,0,0,1-.28-.28Zm1.16,0v-1.69h-.87v1.69Z" style="fill: #fff"/>
    </g>
    <g>
      <path d="M26.16,234.53h1.16a.12.12,0,0,1,.1,0,.14.14,0,0,1,0,.1.18.18,0,0,1,0,.1.16.16,0,0,1-.11,0h-.43v1.69h.43a.15.15,0,0,1,.11,0,.14.14,0,0,1,0,.2.15.15,0,0,1-.11,0H26.16a.13.13,0,0,1-.1,0,.15.15,0,0,1,0-.2.13.13,0,0,1,.1,0h.44v-1.69h-.44a.14.14,0,0,1-.1,0,.15.15,0,0,1,0-.2A.13.13,0,0,1,26.16,234.53Z" style="fill: #fff"/>
      <path d="M29.58,234.67v2.12h-.39L28.42,235v1.62a.14.14,0,0,1-.14.14.12.12,0,0,1-.1,0,.14.14,0,0,1-.05-.1v-2.12h.38l.78,1.75v-1.61a.13.13,0,0,1,0-.1.15.15,0,0,1,.11,0,.14.14,0,0,1,.1,0A.18.18,0,0,1,29.58,234.67Z" style="fill: #fff"/>
      <path d="M30.24,234.92v-.39h1.45v.39a.18.18,0,0,1,0,.1.14.14,0,0,1-.1,0,.15.15,0,0,1-.11,0,.13.13,0,0,1,0-.1v-.1h-.29v1.83a.18.18,0,0,1,0,.1.14.14,0,0,1-.1,0,.14.14,0,0,1-.11,0,.13.13,0,0,1,0-.1v-1.83h-.29v.1a.18.18,0,0,1,0,.1.14.14,0,0,1-.1,0,.15.15,0,0,1-.11,0A.18.18,0,0,1,30.24,234.92Z" style="fill: #fff"/>
    </g>
    <g>
      <path d="M47,227.19v-.07l-.27-.39v1.59a.13.13,0,0,1,0,.1.18.18,0,0,1-.09,0,.14.14,0,0,1-.14-.14v-2h.35l.32.48.34-.48h.33v2a.13.13,0,0,1,0,.1.15.15,0,0,1-.09,0,.14.14,0,0,1-.14-.14v-1.59l-.26.38v.08a.18.18,0,0,1,0,.09.18.18,0,0,1-.1,0,.14.14,0,0,1-.13-.13Z" style="fill: #fff"/>
      <path d="M49.4,226.56l.29.59a.58.58,0,0,1,.06.26.55.55,0,0,1-.06.26l-.29.59a.35.35,0,0,1-.51.14.32.32,0,0,1-.12-.14l-.3-.59a.53.53,0,0,1-.06-.26.58.58,0,0,1,.06-.26l.3-.59a.33.33,0,0,1,.31-.2A.34.34,0,0,1,49.4,226.56Zm-.41.13-.27.56a.32.32,0,0,0,0,.16.35.35,0,0,0,0,.17l.28.56a.09.09,0,0,0,.16,0l.28-.56a.38.38,0,0,0,0-.17.29.29,0,0,0,0-.16l-.27-.56a.1.1,0,0,0-.09-.06S49,226.65,49,226.69Z" style="fill: #fff"/>
      <path d="M50.49,226.36H51a.44.44,0,0,1,.34.22l.26.53a.68.68,0,0,1,0,.6l-.27.52a.46.46,0,0,1-.14.17.42.42,0,0,1-.21.06h-.51a.13.13,0,0,1-.09,0,.13.13,0,0,1,0-.1.11.11,0,0,1,0-.09.1.1,0,0,1,.09,0h.14v-1.56h-.14a.14.14,0,0,1-.13-.13.13.13,0,0,1,0-.1A.18.18,0,0,1,50.49,226.36Zm.4.27v1.56H51a.14.14,0,0,0,.13-.09l.26-.52a.41.41,0,0,0,0-.17.32.32,0,0,0,0-.16l-.27-.54a.15.15,0,0,0-.14-.08Z" style="fill: #fff"/>
      <path d="M53.51,226.63h-.93v.65H53a.12.12,0,0,1,.09,0,.13.13,0,0,1,0,.1.14.14,0,0,1-.13.13h-.4v.65h.94a.12.12,0,0,1,.09,0,.18.18,0,0,1,0,.09.14.14,0,0,1-.14.14h-1.2v-2.1h1.2a.14.14,0,0,1,.14.14.15.15,0,0,1,0,.09A.13.13,0,0,1,53.51,226.63Z" style="fill: #fff"/>
    </g>
  </g>
  <g data-name="Layer 2" id="Layer_2">
    <g>
      <polyline points="55.81 130.26 55.81 133.01 54.67 134.87 54.67 180.06" style="fill: none;stroke: #cecfcf;stroke-linecap: round;stroke-linejoin: round;stroke-width: 0.7189992666244507px"/>
      <polyline points="50.38 130.5 50.38 133.55 52.4 133.55 51.97 180.06" style="fill: none;stroke: #cecfcf;stroke-linecap: round;stroke-linejoin: round;stroke-width: 0.7189992666244507px"/>
      <path d="M49.27,160.88l-.92-27.06a1.52,1.52,0,0,0-1.78-1.25c-1.63.09-4.1.64-4.24-2.31" style="fill: none;stroke: #cecfcf;stroke-linecap: round;stroke-linejoin: round;stroke-width: 0.7189992666244507px"/>
      <path d="M32.4,129.73v3s-.18,1.34,3.06,1.16,9.3,0,9.3,0,1.82-.13,1.81,2.21,0,34.19,0,34.19v9.75" style="fill: none;stroke: #cecfcf;stroke-linecap: round;stroke-linejoin: round;stroke-width: 0.7189992666244507px"/>
      <path d="M45.06,157.15l-.3-11.32a4,4,0,0,0,1-2.34c.1-1.38,0-7.13,0-7.13s0-1.14-1.57-1.38-1.69-.44-1.63-5.07,17.68.76,17.68.76v2.1s-.06,2.45-3.06,2.09c0,0-1.26-.35-1,2.46s0,19.83,0,19.83" style="fill: #804002;opacity: 0.53"/>
      <rect height="131.4" style="fill: #444346" width="161.77"/>
      <rect height="123.31" style="fill: #5c5c5c" width="154.76" x="3.42" y="3.06"/>
      <rect height="1.8" style="fill: #018b7b" width="34.33" x="3.42" y="124.57"/>
      <rect height="1.8" style="fill: #018b7b" width="115.13" x="43.05" y="124.57"/>
      <rect height="1.8" style="fill: #018b7b" width="154.7" x="3.42" y="3.06"/>
      <rect height="0.99" style="fill: #018b7b" width="1.66" x="156.52" y="121.29"/>
      <rect height="0.99" style="fill: #018b7b" width="2.47" x="3.42" y="121.29"/>
      <rect height="13.72" rx="1.5" ry="1.5" style="fill: #595959;opacity: 0.53" width="25.46" x="22.17" y="130.74"/>
      <rect height="5.66" style="fill: #edce9d" width="11.77" x="44.49" y="149.78"/>
      <rect height="8.73" style="fill: #cecfcf" width="1.53" x="45.8" y="155.44"/>
      <rect height="8.73" style="fill: #cecfcf" width="1.53" x="48.5" y="155.44"/>
      <rect height="8.73" style="fill: #cecfcf" width="1.53" x="51.21" y="155.44"/>
      <rect height="8.73" style="fill: #cecfcf" width="1.53" x="53.91" y="155.44"/>
      <line style="fill: none;stroke: #cecfcf;stroke-linecap: round;stroke-linejoin: round;stroke-width: 0.7189992666244507px" x1="49.27" x2="49.27" y1="164.17" y2="180.06"/>
      <path d="M44.53,157.15h12a.32.32,0,0,1,.32.32v22a1,1,0,0,1-1,1H45.26a1,1,0,0,1-1-1v-22a.32.32,0,0,1,.32-.32Z" style="fill: #804002;opacity: 0.53"/>
    </g>
  </g>
  <g id="Connectors">
    <ellipse cx="42.79" cy="231.39" id="connector29pin" rx="2.05" ry="1.99" style="fill: none;stroke: #e8e5df;stroke-miterlimit: 10;stroke-width: 1.224px"/>
    <ellipse cx="35.59" cy="231.39" id="connector30pin" rx="2.05" ry="1.99" style="fill: none;stroke: #e8e5df;stroke-miterlimit: 10;stroke-width: 1.224px"/>
    <ellipse cx="28.4" cy="231.39" id="connector31pin" rx="2.05" ry="1.99" style="fill: none;stroke: #e8e5df;stroke-miterlimit: 10;stroke-width: 1.224px"/>
    <ellipse cx="14.01" cy="231.39" data-cir-type="male" id="circuitoCon_SDA" rx="2.05" ry="1.99" style="fill: none;stroke: #e8e5df;stroke-miterlimit: 10;stroke-width: 1.224px"/>
    <ellipse cx="21.21" cy="231.39" data-cir-type="male" id="circuitoCon_SCL" rx="2.05" ry="1.99" style="fill: none;stroke: #e8e5df;stroke-miterlimit: 10;stroke-width: 1.224px"/>
    <ellipse cx="86.07" cy="231.39" data-cir-type="male" id="circuitoCon_VIN" rx="2.05" ry="1.99" style="fill: none;stroke: #e8e5df;stroke-miterlimit: 10;stroke-width: 1.224px"/>
    <ellipse cx="78.87" cy="231.39" data-cir-type="male" id="circuitoCon_GND" rx="2.05" ry="1.99" style="fill: none;stroke: #e8e5df;stroke-miterlimit: 10;stroke-width: 1.224px"/>
    <ellipse cx="72.53" cy="183.23" data-name="connector29pin" id="connector29pin-2" rx="2.05" ry="1.99" style="fill: none;stroke: #e8e5df;stroke-miterlimit: 10;stroke-width: 1.224px"/>
    <ellipse cx="65.33" cy="183.23" data-name="connector30pin" id="connector30pin-2" rx="2.05" ry="1.99" style="fill: none;stroke: #e8e5df;stroke-miterlimit: 10;stroke-width: 1.224px"/>
    <ellipse cx="35.4" cy="183.23" data-name="connector29pin" id="connector29pin-3" rx="2.05" ry="1.99" style="fill: none;stroke: #e8e5df;stroke-miterlimit: 10;stroke-width: 1.224px"/>
    <ellipse cx="28.2" cy="183.23" data-name="connector30pin" id="connector30pin-3" rx="2.05" ry="1.99" style="fill: none;stroke: #e8e5df;stroke-miterlimit: 10;stroke-width: 1.224px"/>
    <ellipse cx="71.68" cy="231.39" data-name="connector31pin" id="connector31pin-2" rx="2.05" ry="1.99" style="fill: none;stroke: #e8e5df;stroke-miterlimit: 10;stroke-width: 1.224px"/>
    <ellipse cx="57.29" cy="231.39" id="connector33pin" rx="2.05" ry="1.99" style="fill: none;stroke: #e8e5df;stroke-miterlimit: 10;stroke-width: 1.224px"/>
    <ellipse cx="50.05" cy="231.39" id="connector34pin" rx="2.05" ry="1.99" style="fill: none;stroke: #e8e5df;stroke-miterlimit: 10;stroke-width: 1.224px"/>
    <ellipse cx="64.49" cy="231.39" id="connector32pin" rx="2.05" ry="1.99" style="fill: none;stroke: #e8e5df;stroke-miterlimit: 10;stroke-width: 1.224px"/>
  </g>
</svg>