<?xml version="1.0" ?><svg height="8.99mm" viewBox="0 0 10.58 25.47" width="3.73mm" xmlns="http://www.w3.org/2000/svg" xmlns:xlink="http://www.w3.org/1999/xlink">
  <defs>
    <linearGradient gradientUnits="userSpaceOnUse" id="linear-gradient" x1="0.72" x2="2.61" y1="17.72" y2="17.72">
      <stop offset="0" stop-color="#999"/>
      <stop offset="0.5" stop-color="#d3d3d5"/>
      <stop offset="1" stop-color="#acacac"/>
    </linearGradient>
    <linearGradient id="linear-gradient-2" x1="7.93" x2="9.82" xlink:href="#linear-gradient" y1="17.72" y2="17.72"/>
  </defs>
  <title>Capacitor Ceramic 100nF</title>
  <g data-name="Layer 1" id="Layer_1">
    <g>
      <polygon points="2.61 9.98 2.61 25.47 0.72 25.47 0.72 11.46 0.72 9.98 2.61 9.98" style="fill: url(#linear-gradient)"/>
      <polygon points="9.82 9.98 9.82 25.47 7.93 25.47 7.93 11.46 7.93 9.98 9.82 9.98" style="fill: url(#linear-gradient-2)"/>
      <path d="M3.16,9.22l-.32.34,0,0Z" style="fill: #e7ab5a"/>
      <g>
        <path d="M9.8,10.72l0-3a5.92,5.92,0,0,0,.75-2.43A5.29,5.29,0,1,0,.49,7.52l0,.05.25,3.31a.25.25,0,0,0,.23.3H2.13A.54.54,0,0,0,2.54,11L2.29,9.65a5.27,5.27,0,0,0,3,.93,4.21,4.21,0,0,0,2.64-.81V11a1.55,1.55,0,0,0,.73.16l1-.05C9.93,11.09,9.72,10.35,9.8,10.72Z" style="fill: #e7ab5a"/>
        <path d="M9.81,10.88l0-3a5.92,5.92,0,0,0,.75-2.43,5.28,5.28,0,0,0-1.84-4A4.81,4.81,0,0,1,10.31,5c0,2.24-1.21,2.65-1.06,3a8.78,8.78,0,0,1,.49,3.14A.26.26,0,0,0,9.81,10.88Z" style="fill: #bf8b50"/>
        <path d="M2.19,9.51a3.36,3.36,0,0,1,.18,1.1,1.76,1.76,0,0,0-.13.55h.13A.54.54,0,0,0,2.61,11V9.79Z" style="fill: #bf8b50"/>
      </g>
    </g>
  </g>
  <g id="Connectors">
    <rect data-cir-type="male" height="1.9" id="circuitoCon_con1" style="fill: none" width="1.9" x="0.71" y="23.57"/>
    <rect data-cir-type="male" height="1.89" id="circuitoCon_con0" style="fill: none" width="1.89" x="7.93" y="23.58"/>
  </g>
</svg>