<?xml version="1.0" ?><svg height="27.56mm" viewBox="0 0 57.13 78.13" width="20.15mm" xmlns="http://www.w3.org/2000/svg" xmlns:xlink="http://www.w3.org/1999/xlink">
  <defs>
    <radialGradient cx="3.63" cy="14.74" data-name="New Gradient Swatch 1" gradientUnits="userSpaceOnUse" id="New_Gradient_Swatch_1" r="2.81">
      <stop offset="0" stop-color="#fff"/>
      <stop offset="0.4" stop-color="#fdfdfd"/>
      <stop offset="0.58" stop-color="#f5f5f5"/>
      <stop offset="0.72" stop-color="#e9e9e9"/>
      <stop offset="0.84" stop-color="#d7d7d7"/>
      <stop offset="0.94" stop-color="#bfbfbf"/>
      <stop offset="1" stop-color="#adadad"/>
    </radialGradient>
    <radialGradient cx="10.78" cy="14.74" id="New_Gradient_Swatch_1-2" r="2.81" xlink:href="#New_Gradient_Swatch_1"/>
    <radialGradient cx="17.93" cy="14.74" id="New_Gradient_Swatch_1-3" r="2.81" xlink:href="#New_Gradient_Swatch_1"/>
    <radialGradient cx="25.09" cy="14.74" id="New_Gradient_Swatch_1-4" r="2.81" xlink:href="#New_Gradient_Swatch_1"/>
    <radialGradient cx="32.24" cy="14.74" id="New_Gradient_Swatch_1-5" r="2.81" xlink:href="#New_Gradient_Swatch_1"/>
    <radialGradient cx="39.4" cy="14.74" id="New_Gradient_Swatch_1-6" r="2.81" xlink:href="#New_Gradient_Swatch_1"/>
    <radialGradient cx="46.55" cy="14.74" id="New_Gradient_Swatch_1-7" r="2.81" xlink:href="#New_Gradient_Swatch_1"/>
    <radialGradient cx="53.71" cy="14.74" id="New_Gradient_Swatch_1-8" r="2.81" xlink:href="#New_Gradient_Swatch_1"/>
    <radialGradient cx="3.63" cy="21.74" id="New_Gradient_Swatch_1-9" r="2.81" xlink:href="#New_Gradient_Swatch_1"/>
    <radialGradient cx="10.78" cy="21.74" id="New_Gradient_Swatch_1-10" r="2.81" xlink:href="#New_Gradient_Swatch_1"/>
    <radialGradient cx="17.93" cy="21.74" id="New_Gradient_Swatch_1-11" r="2.81" xlink:href="#New_Gradient_Swatch_1"/>
    <radialGradient cx="25.09" cy="21.74" id="New_Gradient_Swatch_1-12" r="2.81" xlink:href="#New_Gradient_Swatch_1"/>
    <radialGradient cx="32.24" cy="21.74" id="New_Gradient_Swatch_1-13" r="2.81" xlink:href="#New_Gradient_Swatch_1"/>
    <radialGradient cx="39.4" cy="21.74" id="New_Gradient_Swatch_1-14" r="2.81" xlink:href="#New_Gradient_Swatch_1"/>
    <radialGradient cx="46.55" cy="21.74" id="New_Gradient_Swatch_1-15" r="2.81" xlink:href="#New_Gradient_Swatch_1"/>
    <radialGradient cx="53.71" cy="21.74" id="New_Gradient_Swatch_1-16" r="2.81" xlink:href="#New_Gradient_Swatch_1"/>
    <radialGradient cx="3.63" cy="29.07" id="New_Gradient_Swatch_1-17" r="2.81" xlink:href="#New_Gradient_Swatch_1"/>
    <radialGradient cx="10.78" cy="29.07" id="New_Gradient_Swatch_1-18" r="2.81" xlink:href="#New_Gradient_Swatch_1"/>
    <radialGradient cx="17.93" cy="29.07" id="New_Gradient_Swatch_1-19" r="2.81" xlink:href="#New_Gradient_Swatch_1"/>
    <radialGradient cx="25.09" cy="29.07" id="New_Gradient_Swatch_1-20" r="2.81" xlink:href="#New_Gradient_Swatch_1"/>
    <radialGradient cx="32.24" cy="29.07" id="New_Gradient_Swatch_1-21" r="2.81" xlink:href="#New_Gradient_Swatch_1"/>
    <radialGradient cx="39.4" cy="29.07" id="New_Gradient_Swatch_1-22" r="2.81" xlink:href="#New_Gradient_Swatch_1"/>
    <radialGradient cx="46.55" cy="29.07" id="New_Gradient_Swatch_1-23" r="2.81" xlink:href="#New_Gradient_Swatch_1"/>
    <radialGradient cx="53.71" cy="29.07" id="New_Gradient_Swatch_1-24" r="2.81" xlink:href="#New_Gradient_Swatch_1"/>
    <radialGradient cx="3.63" cy="36.4" id="New_Gradient_Swatch_1-25" r="2.81" xlink:href="#New_Gradient_Swatch_1"/>
    <radialGradient cx="10.78" cy="36.4" id="New_Gradient_Swatch_1-26" r="2.81" xlink:href="#New_Gradient_Swatch_1"/>
    <radialGradient cx="17.93" cy="36.4" id="New_Gradient_Swatch_1-27" r="2.81" xlink:href="#New_Gradient_Swatch_1"/>
    <radialGradient cx="25.09" cy="36.4" id="New_Gradient_Swatch_1-28" r="2.81" xlink:href="#New_Gradient_Swatch_1"/>
    <radialGradient cx="32.24" cy="36.4" id="New_Gradient_Swatch_1-29" r="2.81" xlink:href="#New_Gradient_Swatch_1"/>
    <radialGradient cx="39.4" cy="36.4" id="New_Gradient_Swatch_1-30" r="2.81" xlink:href="#New_Gradient_Swatch_1"/>
    <radialGradient cx="46.55" cy="36.4" id="New_Gradient_Swatch_1-31" r="2.81" xlink:href="#New_Gradient_Swatch_1"/>
    <radialGradient cx="53.71" cy="36.4" id="New_Gradient_Swatch_1-32" r="2.81" xlink:href="#New_Gradient_Swatch_1"/>
    <radialGradient cx="3.63" cy="43.32" id="New_Gradient_Swatch_1-33" r="2.81" xlink:href="#New_Gradient_Swatch_1"/>
    <radialGradient cx="10.78" cy="43.32" id="New_Gradient_Swatch_1-34" r="2.81" xlink:href="#New_Gradient_Swatch_1"/>
    <radialGradient cx="17.93" cy="43.32" id="New_Gradient_Swatch_1-35" r="2.81" xlink:href="#New_Gradient_Swatch_1"/>
    <radialGradient cx="25.09" cy="43.32" id="New_Gradient_Swatch_1-36" r="2.81" xlink:href="#New_Gradient_Swatch_1"/>
    <radialGradient cx="32.24" cy="43.32" id="New_Gradient_Swatch_1-37" r="2.81" xlink:href="#New_Gradient_Swatch_1"/>
    <radialGradient cx="39.4" cy="43.32" id="New_Gradient_Swatch_1-38" r="2.81" xlink:href="#New_Gradient_Swatch_1"/>
    <radialGradient cx="46.55" cy="43.32" id="New_Gradient_Swatch_1-39" r="2.81" xlink:href="#New_Gradient_Swatch_1"/>
    <radialGradient cx="53.71" cy="43.32" id="New_Gradient_Swatch_1-40" r="2.81" xlink:href="#New_Gradient_Swatch_1"/>
    <radialGradient cx="3.63" cy="50.65" id="New_Gradient_Swatch_1-41" r="2.81" xlink:href="#New_Gradient_Swatch_1"/>
    <radialGradient cx="10.78" cy="50.65" id="New_Gradient_Swatch_1-42" r="2.81" xlink:href="#New_Gradient_Swatch_1"/>
    <radialGradient cx="17.93" cy="50.65" id="New_Gradient_Swatch_1-43" r="2.81" xlink:href="#New_Gradient_Swatch_1"/>
    <radialGradient cx="25.09" cy="50.65" id="New_Gradient_Swatch_1-44" r="2.81" xlink:href="#New_Gradient_Swatch_1"/>
    <radialGradient cx="32.24" cy="50.65" id="New_Gradient_Swatch_1-45" r="2.81" xlink:href="#New_Gradient_Swatch_1"/>
    <radialGradient cx="39.4" cy="50.65" id="New_Gradient_Swatch_1-46" r="2.81" xlink:href="#New_Gradient_Swatch_1"/>
    <radialGradient cx="46.55" cy="50.65" id="New_Gradient_Swatch_1-47" r="2.81" xlink:href="#New_Gradient_Swatch_1"/>
    <radialGradient cx="53.71" cy="50.65" id="New_Gradient_Swatch_1-48" r="2.81" xlink:href="#New_Gradient_Swatch_1"/>
    <radialGradient cx="3.63" cy="57.65" id="New_Gradient_Swatch_1-49" r="2.81" xlink:href="#New_Gradient_Swatch_1"/>
    <radialGradient cx="10.78" cy="57.65" id="New_Gradient_Swatch_1-50" r="2.81" xlink:href="#New_Gradient_Swatch_1"/>
    <radialGradient cx="17.93" cy="57.65" id="New_Gradient_Swatch_1-51" r="2.81" xlink:href="#New_Gradient_Swatch_1"/>
    <radialGradient cx="25.09" cy="57.65" id="New_Gradient_Swatch_1-52" r="2.81" xlink:href="#New_Gradient_Swatch_1"/>
    <radialGradient cx="32.24" cy="57.65" id="New_Gradient_Swatch_1-53" r="2.81" xlink:href="#New_Gradient_Swatch_1"/>
    <radialGradient cx="39.4" cy="57.65" id="New_Gradient_Swatch_1-54" r="2.81" xlink:href="#New_Gradient_Swatch_1"/>
    <radialGradient cx="46.55" cy="57.65" id="New_Gradient_Swatch_1-55" r="2.81" xlink:href="#New_Gradient_Swatch_1"/>
    <radialGradient cx="53.71" cy="57.65" id="New_Gradient_Swatch_1-56" r="2.81" xlink:href="#New_Gradient_Swatch_1"/>
    <radialGradient cx="3.63" cy="64.99" id="New_Gradient_Swatch_1-57" r="2.81" xlink:href="#New_Gradient_Swatch_1"/>
    <radialGradient cx="10.78" cy="64.99" id="New_Gradient_Swatch_1-58" r="2.81" xlink:href="#New_Gradient_Swatch_1"/>
    <radialGradient cx="17.93" cy="64.99" id="New_Gradient_Swatch_1-59" r="2.81" xlink:href="#New_Gradient_Swatch_1"/>
    <radialGradient cx="25.09" cy="64.99" id="New_Gradient_Swatch_1-60" r="2.81" xlink:href="#New_Gradient_Swatch_1"/>
    <radialGradient cx="32.24" cy="64.99" id="New_Gradient_Swatch_1-61" r="2.81" xlink:href="#New_Gradient_Swatch_1"/>
    <radialGradient cx="39.4" cy="64.99" id="New_Gradient_Swatch_1-62" r="2.81" xlink:href="#New_Gradient_Swatch_1"/>
    <radialGradient cx="46.55" cy="64.99" id="New_Gradient_Swatch_1-63" r="2.81" xlink:href="#New_Gradient_Swatch_1"/>
    <radialGradient cx="53.71" cy="64.99" id="New_Gradient_Swatch_1-64" r="2.81" xlink:href="#New_Gradient_Swatch_1"/>
  </defs>
  <title>Mini 8x8 LED Matrix I2C Backpack - Red</title>
  <g id="CIRCLES">
    <path d="M50.69.05H6.44A6.44,6.44,0,0,0,0,6.49V71.74a6.43,6.43,0,0,0,6.44,6.43H50.69a6.44,6.44,0,0,0,6.44-6.43V6.49A6.44,6.44,0,0,0,50.69.05ZM8.75,75.6a2.69,2.69,0,1,1,2.69-2.69A2.7,2.7,0,0,1,8.75,75.6Zm0-67.74a2.69,2.69,0,1,1,2.69-2.69A2.69,2.69,0,0,1,8.75,7.86Zm8-1.27a1.87,1.87,0,1,1,1.86-1.86A1.86,1.86,0,0,1,16.73,6.59Zm7.24,0a1.87,1.87,0,1,1,1.86-1.86A1.86,1.86,0,0,1,24,6.59Zm7.19,0A1.87,1.87,0,1,1,33,4.73,1.87,1.87,0,0,1,31.16,6.59Zm7.2,0a1.87,1.87,0,1,1,1.86-1.86A1.86,1.86,0,0,1,38.36,6.59Zm9.52,69a2.69,2.69,0,1,1,2.68-2.69A2.69,2.69,0,0,1,47.88,75.6Zm0-67.74a2.69,2.69,0,1,1,2.68-2.69A2.68,2.68,0,0,1,47.88,7.86Z" style="fill: #0b5597" transform="translate(0 -0.05)"/>
  </g>
  <g data-name="Layer 6" id="Layer_6">
    <rect height="57.06" style="fill: #1c1c1c" width="57.06" x="0.06" y="11.13"/>
  </g>
  <g id="text">
    <path d="M13.27,1.27c0-.17.07-.26.25-.26s.26.09.26.26V2h.75a.23.23,0,0,1,.25.25.24.24,0,0,1-.25.26h-.75v.74c0,.17-.07.26-.26.26s-.25-.09-.25-.26V2.54h-.75a.25.25,0,0,1-.26-.26A.24.24,0,0,1,12.52,2h.75Z" style="fill: #fff" transform="translate(0 -0.05)"/>
    <path d="M21.33,2c.21,0,.3.09.3.32s-.09.31-.3.31h-1.2c-.2,0-.3-.09-.3-.31s.1-.32.3-.32Z" style="fill: #fff" transform="translate(0 -0.05)"/>
    <path d="M34,.81h-.19c-.17,0-.31-.06-.31-.26s.14-.25.3-.25h.85a.77.77,0,0,1,.77.51l.45.89a1.24,1.24,0,0,1,.15.6,1.27,1.27,0,0,1-.15.56l-.46.92a.77.77,0,0,1-.81.48h-.84A.23.23,0,0,1,33.47,4a.24.24,0,0,1,.26-.26H34Zm.51,2.94h.1c.21,0,.26,0,.35-.21l.45-.91a.67.67,0,0,0,.1-.33.9.9,0,0,0-.13-.42L34.93,1c-.11-.22-.15-.21-.39-.21h-.06Z" style="fill: #fff" transform="translate(0 -0.05)"/>
    <path d="M42.2,4.26a.77.77,0,0,1-.77-.48L41,2.83a1.22,1.22,0,0,1-.13-.53A1.12,1.12,0,0,1,41,1.73l.47-.94A.76.76,0,0,1,42.22.3h.87a.23.23,0,0,1,.25.25.24.24,0,0,1-.25.26h-.85c-.22,0-.26,0-.35.21l-.45.89a.88.88,0,0,0-.11.39.76.76,0,0,0,.11.35l.44.88c.1.21.15.22.38.22h.83a.26.26,0,0,1,0,.51Z" style="fill: #fff" transform="translate(0 -0.05)"/>
  </g>
  <g data-name="circles" id="circles-2">
    <g>
      <circle cx="3.63" cy="14.74" r="2.81" style="fill: url(#New_Gradient_Swatch_1)"/>
      <circle cx="10.78" cy="14.74" r="2.81" style="fill: url(#New_Gradient_Swatch_1-2)"/>
      <circle cx="17.93" cy="14.74" r="2.81" style="fill: url(#New_Gradient_Swatch_1-3)"/>
      <circle cx="25.09" cy="14.74" r="2.81" style="fill: url(#New_Gradient_Swatch_1-4)"/>
      <circle cx="32.24" cy="14.74" r="2.81" style="fill: url(#New_Gradient_Swatch_1-5)"/>
      <circle cx="39.4" cy="14.74" r="2.81" style="fill: url(#New_Gradient_Swatch_1-6)"/>
      <circle cx="46.55" cy="14.74" r="2.81" style="fill: url(#New_Gradient_Swatch_1-7)"/>
      <circle cx="53.71" cy="14.74" r="2.81" style="fill: url(#New_Gradient_Swatch_1-8)"/>
    </g>
    <g>
      <circle cx="3.63" cy="21.74" r="2.81" style="fill: url(#New_Gradient_Swatch_1-9)"/>
      <circle cx="10.78" cy="21.74" r="2.81" style="fill: url(#New_Gradient_Swatch_1-10)"/>
      <circle cx="17.93" cy="21.74" r="2.81" style="fill: url(#New_Gradient_Swatch_1-11)"/>
      <circle cx="25.09" cy="21.74" r="2.81" style="fill: url(#New_Gradient_Swatch_1-12)"/>
      <circle cx="32.24" cy="21.74" r="2.81" style="fill: url(#New_Gradient_Swatch_1-13)"/>
      <circle cx="39.4" cy="21.74" r="2.81" style="fill: url(#New_Gradient_Swatch_1-14)"/>
      <circle cx="46.55" cy="21.74" r="2.81" style="fill: url(#New_Gradient_Swatch_1-15)"/>
      <circle cx="53.71" cy="21.74" r="2.81" style="fill: url(#New_Gradient_Swatch_1-16)"/>
    </g>
    <g>
      <circle cx="3.63" cy="29.07" r="2.81" style="fill: url(#New_Gradient_Swatch_1-17)"/>
      <circle cx="10.78" cy="29.07" r="2.81" style="fill: url(#New_Gradient_Swatch_1-18)"/>
      <circle cx="17.93" cy="29.07" r="2.81" style="fill: url(#New_Gradient_Swatch_1-19)"/>
      <circle cx="25.09" cy="29.07" r="2.81" style="fill: url(#New_Gradient_Swatch_1-20)"/>
      <circle cx="32.24" cy="29.07" r="2.81" style="fill: url(#New_Gradient_Swatch_1-21)"/>
      <circle cx="39.4" cy="29.07" r="2.81" style="fill: url(#New_Gradient_Swatch_1-22)"/>
      <circle cx="46.55" cy="29.07" r="2.81" style="fill: url(#New_Gradient_Swatch_1-23)"/>
      <circle cx="53.71" cy="29.07" r="2.81" style="fill: url(#New_Gradient_Swatch_1-24)"/>
    </g>
    <g>
      <circle cx="3.63" cy="36.4" r="2.81" style="fill: url(#New_Gradient_Swatch_1-25)"/>
      <circle cx="10.78" cy="36.4" r="2.81" style="fill: url(#New_Gradient_Swatch_1-26)"/>
      <circle cx="17.93" cy="36.4" r="2.81" style="fill: url(#New_Gradient_Swatch_1-27)"/>
      <circle cx="25.09" cy="36.4" r="2.81" style="fill: url(#New_Gradient_Swatch_1-28)"/>
      <circle cx="32.24" cy="36.4" r="2.81" style="fill: url(#New_Gradient_Swatch_1-29)"/>
      <circle cx="39.4" cy="36.4" r="2.81" style="fill: url(#New_Gradient_Swatch_1-30)"/>
      <circle cx="46.55" cy="36.4" r="2.81" style="fill: url(#New_Gradient_Swatch_1-31)"/>
      <circle cx="53.71" cy="36.4" r="2.81" style="fill: url(#New_Gradient_Swatch_1-32)"/>
    </g>
    <g>
      <circle cx="3.63" cy="43.32" r="2.81" style="fill: url(#New_Gradient_Swatch_1-33)"/>
      <circle cx="10.78" cy="43.32" r="2.81" style="fill: url(#New_Gradient_Swatch_1-34)"/>
      <circle cx="17.93" cy="43.32" r="2.81" style="fill: url(#New_Gradient_Swatch_1-35)"/>
      <circle cx="25.09" cy="43.32" r="2.81" style="fill: url(#New_Gradient_Swatch_1-36)"/>
      <circle cx="32.24" cy="43.32" r="2.81" style="fill: url(#New_Gradient_Swatch_1-37)"/>
      <circle cx="39.4" cy="43.32" r="2.81" style="fill: url(#New_Gradient_Swatch_1-38)"/>
      <circle cx="46.55" cy="43.32" r="2.81" style="fill: url(#New_Gradient_Swatch_1-39)"/>
      <circle cx="53.71" cy="43.32" r="2.81" style="fill: url(#New_Gradient_Swatch_1-40)"/>
    </g>
    <g>
      <circle cx="3.63" cy="50.65" r="2.81" style="fill: url(#New_Gradient_Swatch_1-41)"/>
      <circle cx="10.78" cy="50.65" r="2.81" style="fill: url(#New_Gradient_Swatch_1-42)"/>
      <circle cx="17.93" cy="50.65" r="2.81" style="fill: url(#New_Gradient_Swatch_1-43)"/>
      <circle cx="25.09" cy="50.65" r="2.81" style="fill: url(#New_Gradient_Swatch_1-44)"/>
      <circle cx="32.24" cy="50.65" r="2.81" style="fill: url(#New_Gradient_Swatch_1-45)"/>
      <circle cx="39.4" cy="50.65" r="2.81" style="fill: url(#New_Gradient_Swatch_1-46)"/>
      <circle cx="46.55" cy="50.65" r="2.81" style="fill: url(#New_Gradient_Swatch_1-47)"/>
      <circle cx="53.71" cy="50.65" r="2.81" style="fill: url(#New_Gradient_Swatch_1-48)"/>
    </g>
    <g>
      <circle cx="3.63" cy="57.65" r="2.81" style="fill: url(#New_Gradient_Swatch_1-49)"/>
      <circle cx="10.78" cy="57.65" r="2.81" style="fill: url(#New_Gradient_Swatch_1-50)"/>
      <circle cx="17.93" cy="57.65" r="2.81" style="fill: url(#New_Gradient_Swatch_1-51)"/>
      <circle cx="25.09" cy="57.65" r="2.81" style="fill: url(#New_Gradient_Swatch_1-52)"/>
      <circle cx="32.24" cy="57.65" r="2.81" style="fill: url(#New_Gradient_Swatch_1-53)"/>
      <circle cx="39.4" cy="57.65" r="2.81" style="fill: url(#New_Gradient_Swatch_1-54)"/>
      <circle cx="46.55" cy="57.65" r="2.81" style="fill: url(#New_Gradient_Swatch_1-55)"/>
      <circle cx="53.71" cy="57.65" r="2.81" style="fill: url(#New_Gradient_Swatch_1-56)"/>
    </g>
    <g>
      <circle cx="3.63" cy="64.99" r="2.81" style="fill: url(#New_Gradient_Swatch_1-57)"/>
      <circle cx="10.78" cy="64.99" r="2.81" style="fill: url(#New_Gradient_Swatch_1-58)"/>
      <circle cx="17.93" cy="64.99" r="2.81" style="fill: url(#New_Gradient_Swatch_1-59)"/>
      <circle cx="25.09" cy="64.99" r="2.81" style="fill: url(#New_Gradient_Swatch_1-60)"/>
      <circle cx="32.24" cy="64.99" r="2.81" style="fill: url(#New_Gradient_Swatch_1-61)"/>
      <circle cx="39.4" cy="64.99" r="2.81" style="fill: url(#New_Gradient_Swatch_1-62)"/>
      <circle cx="46.55" cy="64.99" r="2.81" style="fill: url(#New_Gradient_Swatch_1-63)"/>
      <circle cx="53.71" cy="64.99" r="2.81" style="fill: url(#New_Gradient_Swatch_1-64)"/>
    </g>
    <path d="M31.65,71.49A2.6,2.6,0,0,0,29.4,72a3.84,3.84,0,0,0-1-1.87c-.32-.41-.59-.48-.75.23a2.31,2.31,0,0,0-.19,2.11c-.57-.38-1.32-.14-2.13.31-.57.26-.52.54-.08.83a2.68,2.68,0,0,0,1.63.83c.3-.07.47-.07.28.13a2.87,2.87,0,0,0-.2,2.14c.09.63.36.53.69.15a2.51,2.51,0,0,0,1.28-1.32c.09-.23.18-.38.24-.2a.57.57,0,0,0,.35.38,5.31,5.31,0,0,0,1.66.52c.4.11.51-.05.36-.43a7,7,0,0,0-.21-.89,1.86,1.86,0,0,0-.36-.76L30.81,74,30.54,74q-.42-.18.06-.3a2.23,2.23,0,0,0,1.27-1.43C32.17,71.78,32.05,71.56,31.65,71.49Z" style="fill: #fff" transform="translate(0 -0.05)"/>
  </g>
  <g id="Connectors">
    <ellipse cx="38.36" cy="4.68" data-cir-type="male" id="circuitoCon_C" rx="2.05" ry="1.99" style="fill: none;stroke: #e8e5df;stroke-miterlimit: 10;stroke-width: 1.224px"/>
    <ellipse cx="23.97" cy="4.68" data-cir-type="male" id="circuitoCon_GND" rx="2.05" ry="1.99" style="fill: none;stroke: #e8e5df;stroke-miterlimit: 10;stroke-width: 1.224px"/>
    <ellipse cx="16.73" cy="4.68" data-cir-type="male" data-name="circuitoCon_+" id="circuitoCon_VCC" rx="2.05" ry="1.99" style="fill: none;stroke: #e8e5df;stroke-miterlimit: 10;stroke-width: 1.224px"/>
    <ellipse cx="31.16" cy="4.68" data-cir-type="male" id="circuitoCon_D" rx="2.05" ry="1.99" style="fill: none;stroke: #e8e5df;stroke-miterlimit: 10;stroke-width: 1.224px"/>
  </g>
</svg>