<?xml version="1.0" ?><svg height="86.36mm" viewBox="0 0 172.29 244.8" width="60.78mm" xmlns="http://www.w3.org/2000/svg" xmlns:xlink="http://www.w3.org/1999/xlink">
  <defs>
    <linearGradient data-name="Silver 01" gradientUnits="userSpaceOnUse" id="Silver_01" x1="119.85" x2="119.85" y1="38.21" y2="-41.45">
      <stop offset="0" stop-color="#cbd1d6"/>
      <stop offset="0.2" stop-color="#bac0c5"/>
      <stop offset="0.43" stop-color="#aab1b5"/>
      <stop offset="0.52" stop-color="#b7bec2"/>
      <stop offset="0.84" stop-color="#e3eaed"/>
      <stop offset="1" stop-color="#f4fbfe"/>
    </linearGradient>
    <linearGradient id="Silver_01-2" x1="106.04" x2="133.67" xlink:href="#Silver_01" y1="16.9" y2="16.9"/>
    <linearGradient gradientUnits="userSpaceOnUse" id="linear-gradient" x1="126.04" x2="126.04" y1="181.67" y2="97.67">
      <stop offset="0" stop-color="#878789"/>
      <stop offset="0.12" stop-color="#7b7b7e"/>
      <stop offset="0.17" stop-color="#d5d5d2"/>
      <stop offset="0.47" stop-color="#d5d5d2"/>
      <stop offset="0.59" stop-color="#d0d0cd"/>
      <stop offset="1" stop-color="#4a4a4a"/>
    </linearGradient>
    <linearGradient data-name="Silver 02" gradientUnits="userSpaceOnUse" id="Silver_02" x1="71.42" x2="168.04" y1="43.86" y2="43.86">
      <stop offset="0" stop-color="#bfbdbe"/>
      <stop offset="0.04" stop-color="#cccbcc"/>
      <stop offset="0.12" stop-color="#e4e3e4"/>
      <stop offset="0.2" stop-color="#f3f2f3"/>
      <stop offset="0.26" stop-color="#f8f7f8"/>
      <stop offset="0.31" stop-color="#f2f1f2"/>
      <stop offset="0.37" stop-color="#e1e0e1"/>
      <stop offset="0.43" stop-color="#c6c4c5"/>
      <stop offset="0.45" stop-color="#bfbdbe"/>
      <stop offset="0.58" stop-color="#bfbdbe"/>
      <stop offset="0.62" stop-color="#cecccd"/>
      <stop offset="0.7" stop-color="#e5e3e4"/>
      <stop offset="0.77" stop-color="#f2f0f1"/>
      <stop offset="0.83" stop-color="#f7f5f6"/>
      <stop offset="1" stop-color="#c0bebf"/>
    </linearGradient>
    <linearGradient gradientUnits="userSpaceOnUse" id="linear-gradient-2" x1="69.54" x2="170.42" y1="113.55" y2="113.55">
      <stop offset="0" stop-color="#7e7e7e"/>
      <stop offset="0.04" stop-color="#8c8c8c"/>
      <stop offset="0.12" stop-color="#a4a4a4"/>
      <stop offset="0.2" stop-color="#b3b3b3"/>
      <stop offset="0.26" stop-color="#b8b8b8"/>
      <stop offset="0.31" stop-color="#b2b2b2"/>
      <stop offset="0.37" stop-color="#a1a1a1"/>
      <stop offset="0.43" stop-color="#858585"/>
      <stop offset="0.45" stop-color="#7e7e7e"/>
      <stop offset="0.58" stop-color="#7e7e7e"/>
      <stop offset="0.62" stop-color="#8d8d8d"/>
      <stop offset="0.7" stop-color="#a4a4a4"/>
      <stop offset="0.77" stop-color="#b1b1b1"/>
      <stop offset="0.83" stop-color="#b6b6b6"/>
      <stop offset="1" stop-color="#7f7f7f"/>
    </linearGradient>
    <linearGradient id="Silver_02-2" x1="75.29" x2="168.04" xlink:href="#Silver_02" y1="160.86" y2="160.86"/>
    <linearGradient gradientUnits="userSpaceOnUse" id="linear-gradient-3" x1="8.04" x2="8.04" y1="132.73" y2="171.8">
      <stop offset="0.19" stop-color="#17181b"/>
      <stop offset="0.88" stop-color="#757575"/>
    </linearGradient>
    <linearGradient id="linear-gradient-4" x1="9.37" x2="14.96" xlink:href="#linear-gradient-3" y1="145.42" y2="145.42"/>
    <linearGradient id="linear-gradient-5" x1="13.7" x2="13.5" xlink:href="#linear-gradient-3" y1="153.34" y2="136.52"/>
    <linearGradient id="linear-gradient-6" x1="8.04" x2="8.04" xlink:href="#linear-gradient-3" y1="222.61" y2="261.67"/>
    <linearGradient id="linear-gradient-7" x1="9.29" x2="14.88" xlink:href="#linear-gradient-3" y1="238.15" y2="238.15"/>
    <linearGradient id="linear-gradient-8" x1="13.62" x2="13.41" xlink:href="#linear-gradient-3" y1="246.07" y2="229.25"/>
    <linearGradient gradientUnits="userSpaceOnUse" id="linear-gradient-9" x1="1.13" x2="11.92" y1="128.23" y2="128.23">
      <stop offset="0.08" stop-color="#393a3b"/>
      <stop offset="0.4" stop-color="#4a4a4a"/>
      <stop offset="0.62" stop-color="#242424"/>
      <stop offset="0.81" stop-color="#595959"/>
      <stop offset="0.98" stop-color="#505051"/>
    </linearGradient>
    <linearGradient id="linear-gradient-10" x1="0" x2="13.5" xlink:href="#linear-gradient-9" y1="111.67" y2="111.67"/>
    <linearGradient data-name="Steel 02" gradientTransform="translate(-38.9 -336.48) rotate(90)" gradientUnits="userSpaceOnUse" id="Steel_02" x1="336.48" x2="352.36" y1="-118.27" y2="-118.27">
      <stop offset="0" stop-color="#e5e2df"/>
      <stop offset="0" stop-color="#d8d4d0"/>
      <stop offset="0" stop-color="#ccc7c2"/>
      <stop offset="0.07" stop-color="#bdb9b4"/>
      <stop offset="0.15" stop-color="#a7a3a0"/>
      <stop offset="0.52" stop-color="#e0e1e2"/>
      <stop offset="0.62" stop-color="#d3d3d3"/>
      <stop offset="0.82" stop-color="#b2afac"/>
      <stop offset="0.88" stop-color="#a7a3a0"/>
      <stop offset="1" stop-color="#d1d3d4"/>
      <stop offset="1" stop-color="#a7a9ac"/>
    </linearGradient>
    <linearGradient id="Steel_02-2" x1="336.48" x2="352.36" xlink:href="#Steel_02" y1="-198.99" y2="-198.99"/>
  </defs>
  <title>Vacuum Pump - 12V</title>
  <g data-name="Layer 2" id="Layer_2">
    <rect height="17" rx="2.6" ry="2.6" style="fill: url(#Silver_01)" width="27.63" x="106.04" y="7.38"/>
    <rect height="13.54" style="fill: url(#Silver_01-2)" width="27.63" x="106.04" y="10.13"/>
    <rect height="13.38" rx="2.72" ry="2.72" style="stroke: #000;stroke-miterlimit: 10;stroke-width: 0.029999999329448px;fill: url(#linear-gradient)" width="84" x="84.04" y="157.98"/>
    <rect height="56.63" style="stroke: #000;stroke-miterlimit: 10;stroke-width: 0.029999999329448px;fill: url(#Silver_02)" width="96.63" x="71.42" y="15.55"/>
    <rect height="82.75" style="fill: url(#linear-gradient-2)" width="100.88" x="69.54" y="72.17"/>
    <rect height="13.13" style="stroke: #000;stroke-miterlimit: 10;stroke-width: 0.029999999329448px;fill: url(#Silver_02-2)" width="92.75" x="75.29" y="154.3"/>
    <polygon points="139.19 170.13 86.89 170.13 86.89 167.42 86.92 166.25 59.51 138.78 59.51 138.55 1.13 138.55 1.13 244.8 59.51 244.8 69.74 244.8 86.89 244.8 139.19 244.8 172.29 244.8 172.29 170.13 139.19 170.13" style="fill: #38393a"/>
    <rect height="74.67" style="fill: none" width="33.17" x="139.12" y="170.13"/>
    <g>
      <rect height="16.38" style="fill: url(#linear-gradient-3)" width="13.83" x="1.13" y="138.55"/>
      <path d="M14.58,141.21H12.25a2.88,2.88,0,0,0-2.87,2.88v2.67a2.88,2.88,0,0,0,2.87,2.88h2.33a2.85,2.85,0,0,0,.38,0v-8.34A2.85,2.85,0,0,0,14.58,141.21Z" style="fill: url(#linear-gradient-4)"/>
      <rect height="8.38" style="fill: url(#linear-gradient-5)" width="2.71" x="12.25" y="141.21"/>
    </g>
    <rect height="16.37" style="fill: url(#linear-gradient-6)" width="13.83" x="1.13" y="228.42"/>
    <g>
      <path d="M14.5,233.94H12.17a2.88,2.88,0,0,0-2.88,2.88v2.67a2.88,2.88,0,0,0,2.88,2.88H14.5a2.85,2.85,0,0,0,.38,0V234A2.85,2.85,0,0,0,14.5,233.94Z" style="fill: url(#linear-gradient-7)"/>
      <rect height="8.38" style="fill: url(#linear-gradient-8)" width="2.71" x="12.17" y="233.94"/>
    </g>
    <rect height="20.63" style="fill: url(#linear-gradient-9)" width="10.79" x="1.13" y="117.92"/>
    <polygon points="1.71 105.42 11.63 105.42 13.5 117.92 0 117.92 1.71 105.42" style="fill: url(#linear-gradient-10)"/>
    <path d="M84.07,15.88V2.55A2.55,2.55,0,0,0,81.52,0h-4.3a2.55,2.55,0,0,0-2.55,2.55V15.88m3.52-5a1,1,0,0,1-1-1V3.52a1,1,0,0,1,1-1h2.56a1,1,0,0,1,1,1V9.85a1,1,0,0,1-1,1Z" data-name="&lt;Compound Path&gt;" id="_Compound_Path_" style="fill: url(#Steel_02)"/>
    <path d="M164.79,15.88V2.55A2.55,2.55,0,0,0,162.24,0h-4.3a2.55,2.55,0,0,0-2.55,2.55V15.88m3.52-5a1,1,0,0,1-1-1V3.52a1,1,0,0,1,1-1h2.56a1,1,0,0,1,1,1V9.85a1,1,0,0,1-1,1Z" data-name="&lt;Compound Path&gt;" id="_Compound_Path_2" style="fill: url(#Steel_02-2)"/>
  </g>
  <g id="Connectors">
    <rect data-cir-color="red" data-cir-type="female" height="8.36" id="circuitoCon_Coil2" style="fill: none" width="4.62" x="77.18" y="2.51"/>
    <rect data-cir-color="black" data-cir-type="female" height="8.36" id="circuitoCon_Coil1" style="fill: none" width="4.62" x="157.78" y="2.51"/>
  </g>
</svg>