<?xml version="1.0" ?><svg height="17.97mm" viewBox="0 0 49.94 50.94" width="17.62mm" xmlns="http://www.w3.org/2000/svg">
  <title>Adafruit SGP30 Air Quality Sensor Breakout - VOC and eCO2</title>
  <g id="HOLES">
    <path d="M43.06.06H6.87A6.88,6.88,0,0,0,0,6.94V44.13A6.88,6.88,0,0,0,6.87,51H43.06a6.88,6.88,0,0,0,6.88-6.87V6.94A6.88,6.88,0,0,0,43.06.06Zm4.41,21.13a1,1,0,1,1-1-1A1,1,0,0,1,47.47,21.19ZM43.26,3.66a3.73,3.73,0,1,1-3.73,3.73A3.73,3.73,0,0,1,43.26,3.66Zm1,23.41a1,1,0,1,1-1-1A1,1,0,0,1,44.23,27.07ZM39.64,42.31a1.82,1.82,0,1,1-1.81,1.82A1.81,1.81,0,0,1,39.64,42.31ZM34.53,13a1,1,0,1,1,0,2,1,1,0,0,1,0-2ZM34,24.38a1,1,0,1,1,0,1.95,1,1,0,0,1,0-1.95Zm-2.18-4.17a1,1,0,1,1,0,1.95,1,1,0,0,1,0-1.95ZM18.06,42.31a1.82,1.82,0,1,1-1.81,1.82A1.81,1.81,0,0,1,18.06,42.31ZM17.53,33a.69.69,0,1,1,.69.69A.69.69,0,0,1,17.53,33ZM18,27.46a1,1,0,0,1,0,1.95,1,1,0,1,1,0-1.95ZM7.13,3.66A3.73,3.73,0,1,1,3.41,7.39,3.73,3.73,0,0,1,7.13,3.66ZM43.37,50.38c-5.9.65-26.65.18-26.65.18H5.84S1,49.11,1.06,44.66c3.72,1.65,7.06-.69,5.72-4.82h.59l1.41,1.41c-1.84,1.78-1.69,3.44-.25,5,1.72,1.17,3.16,1.31,4.63-.16,1.5-2.65.57-4.53-1.85-5.21L8.18,37.78V37H9.87V35.3h1.44v1.76h1l.59-.59V34.91H11.75V33.3h1.34V31.88c0-.59-.54-.79-1.68-.59v1.77l-1-.18v-3h3.44v7.83l2.92,2.91s-3.18,2.48-1.58,4.8c1.75,2.53,4.22,2.79,5.83-.35a3.16,3.16,0,0,0-1.55-3.87l-.13-.69.55-.55H27.3l2.92-2.48V36.26h1l.44-.44V33.57s.2-.7.82,0,1.77,1.78,1.77,1.78v1l.45.45h3l.3.3v4.46s-2.62,2.07-.55,4.35a3.23,3.23,0,0,0,5.16-.25,2.47,2.47,0,0,0,.46-2.06h.56c1.51,2,3.42,2.25,5.63,1.06C49.25,44.69,49.28,49.72,43.37,50.38ZM9.05,44.13a1.82,1.82,0,1,1,1.81,1.81A1.81,1.81,0,0,1,9.05,44.13Z" style="fill: #1a2c80" transform="translate(0 -0.06)"/>
    <path d="M43.62,43.63h-.56a2.47,2.47,0,0,1-.46,2.06,3.23,3.23,0,0,1-5.16.25c-2.07-2.28.55-4.35.55-4.35V37.13l-.3-.3h-3l-.45-.45v-1s-1.16-1.07-1.77-1.78-.82,0-.82,0v2.25l-.44.44h-1v1.18L27.3,39.92H19.92l-.55.55.13.69A3.16,3.16,0,0,1,21.05,45c-1.61,3.14-4.08,2.88-5.83.35-1.6-2.32,1.58-4.8,1.58-4.8l-2.92-2.91V29.84H10.44v3l1,.18V31.29c1.14-.2,1.69,0,1.68.59V33.3H11.75v1.61h1.14v1.56l-.59.59h-1V35.3H9.87V37H8.18v.75l3.13,3.13c2.42.68,3.35,2.56,1.85,5.21-1.47,1.47-2.91,1.33-4.63.16-1.44-1.59-1.59-3.25.25-5L7.37,39.84H6.78c1.34,4.13-2,6.47-5.72,4.82-.07,4.45,4.78,5.9,4.78,5.9H16.72s20.75.47,26.65-.18,5.88-5.69,5.88-5.69C47,45.88,45.13,45.65,43.62,43.63ZM25.25,45.94a1.82,1.82,0,1,1,1.82-1.81A1.81,1.81,0,0,1,25.25,45.94Zm7.2,0a1.82,1.82,0,1,1,1.81-1.81A1.81,1.81,0,0,1,32.45,45.94Z" style="fill: #0b5597" transform="translate(0 -0.06)"/>
  </g>
  <g id="lines">
    <path d="M8.33.5H41.69s1,.31-.88,1S35.7,4.41,37,9.47c0,0,0,1.22-1.69-.78H22l-1.55,1.55v12h-6.4l-.43-.65H11.56c-.59,0-.59-1.17,0-1.17h.74l.39-.39V15.41l-.51-.52H8.09l-.82.81-.83-.83H5.53v1.51H3.84v-1.6H3s-.72,0-.72,1.07v1.06H3V18.4H2.28v1.71s0,.64,1.63.42v-1.4H5.53l.27,3.13L7,22V18.75h.7l.4,3.84L6.73,21.05,2,21.46l-.35.15H1V10s2,5.24,8.79,3.48c0,0,6.08-2.23,3.11-9.27A9,9,0,0,0,8.33.5Z" style="fill: #0b5597" transform="translate(0 -0.06)"/>
    <polygon points="9.64 24.48 12.3 24.48 13.88 26.06 13.88 26.73 9.44 26.73 9.64 24.48" style="fill: #0b5597"/>
    <polyline points="21.63 13.41 21.63 10.41 22.42 9.61 34.84 9.61 40.98 15.74 40.98 16.32" style="fill: none;stroke: #0b5597;stroke-linecap: round;stroke-linejoin: round;stroke-width: 0.5px"/>
    <polyline points="25.65 12.41 27.25 12.41 34.61 19.77" style="fill: none;stroke: #0b5597;stroke-linecap: round;stroke-linejoin: round;stroke-width: 0.5px"/>
    <line style="fill: none;stroke: #0b5597;stroke-linecap: round;stroke-linejoin: round;stroke-width: 0.5px" x1="38.78" x2="38.78" y1="23.11" y2="28.63"/>
    <polyline points="27.87 25.66 31.48 25.66 31.48 31.23 35.82 35.57" style="fill: none;stroke: #0b5597;stroke-linecap: round;stroke-linejoin: round;stroke-width: 0.5px"/>
    <polyline points="29.04 34.52 29.04 36.69 27.05 38.67 19.6 38.67 18.11 40.17 18.11 41.9" style="fill: none;stroke: #0b5597;stroke-linecap: round;stroke-linejoin: round;stroke-width: 0.5px"/>
    <polyline points="12.68 23.02 15.05 25.4 15.05 37.31 18.01 40.27" style="fill: none;stroke: #0b5597;stroke-linecap: round;stroke-linejoin: round;stroke-width: 0.5px"/>
    <line style="fill: none;stroke: #0b5597;stroke-linecap: round;stroke-linejoin: round;stroke-width: 0.5px" x1="11.66" x2="21.79" y1="23.01" y2="23.01"/>
    <path d="M2.94,22.62H1.4v5.56a1.6,1.6,0,0,0,1.54.3" style="fill: none;stroke: #0b5597;stroke-linecap: round;stroke-linejoin: round;stroke-width: 0.5px" transform="translate(0 -0.06)"/>
    <line style="fill: none;stroke: #0b5597;stroke-linecap: round;stroke-linejoin: round;stroke-width: 0.5px" x1="3.73" x2="3.73" y1="28.35" y2="33.48"/>
    <line style="fill: none;stroke: #0b5597;stroke-linecap: round;stroke-linejoin: round;stroke-width: 0.5px" x1="4.58" x2="10.97" y1="35.57" y2="41.97"/>
    <line style="fill: none;stroke: #0b5597;stroke-linecap: round;stroke-linejoin: round;stroke-width: 0.5px" x1="28.73" x2="28.73" y1="19.45" y2="21.84"/>
    <line style="fill: none;stroke: #0b5597;stroke-linecap: round;stroke-linejoin: round;stroke-width: 0.5px" x1="28.73" x2="30.64" y1="20.99" y2="20.99"/>
    <polyline points="40.98 23.35 40.98 25.29 42.16 26.48 42.16 29.35" style="fill: none;stroke: #0b5597;stroke-linecap: round;stroke-linejoin: round;stroke-width: 0.5px"/>
    <line style="fill: none;stroke: #0b5597;stroke-linecap: round;stroke-linejoin: round;stroke-width: 0.5px" x1="38.97" x2="38.97" y1="32.94" y2="41.73"/>
    <line style="fill: none;stroke: #0b5597;stroke-linecap: round;stroke-linejoin: round;stroke-width: 0.5px" x1="19.31" x2="21.98" y1="27.76" y2="27.76"/>
    <polyline points="35.3 14.88 36.18 15.72 36.2 17.35" style="fill: none;stroke: #0b5597;stroke-linecap: round;stroke-linejoin: round;stroke-width: 0.5px"/>
    <circle cx="34.53" cy="13.95" r="1.2" style="fill: none;stroke: #0b5597;stroke-linecap: round;stroke-linejoin: round;stroke-width: 0.5px"/>
    <circle cx="31.84" cy="21.13" r="1.2" style="fill: none;stroke: #0b5597;stroke-linecap: round;stroke-linejoin: round;stroke-width: 0.5px"/>
    <circle cx="46.5" cy="21.13" r="1.2" style="fill: none;stroke: #0b5597;stroke-linecap: round;stroke-linejoin: round;stroke-width: 0.5px"/>
    <circle cx="43.26" cy="27.01" r="1.2" style="fill: none;stroke: #0b5597;stroke-linecap: round;stroke-linejoin: round;stroke-width: 0.5px"/>
    <circle cx="34.02" cy="25.29" r="1.2" style="fill: none;stroke: #0b5597;stroke-linecap: round;stroke-linejoin: round;stroke-width: 0.5px"/>
    <circle cx="18.01" cy="28.37" r="1.2" style="fill: none;stroke: #0b5597;stroke-linecap: round;stroke-linejoin: round;stroke-width: 0.5px"/>
    <path d="M23.44,29.29H20.75c0-.49-.85-.49-.85,0a2.16,2.16,0,0,1-2.77,1.15s-.9-.63-.9.32v5.95a.86.86,0,0,0,.31.59c.33.34,1.12,1.11,1.12,1.11.19.28.4.27.62,0l.76-.76h7.62l.8-.79s.24-.74-.34-.73c0-.47-1.29-.47-1.29,0H24.3c0-.55-1.43-.55-1.43,0H22s-.78,0-.8-.46,0-1.55,0-1.55h.71V32.43h-.74V31.29a.7.7,0,0,1,.74-.76,6.47,6.47,0,0,1,1,0v.84h1.74v-.81h1.29v1.07h.94V30.57h2.51s1.05.22,1.06-.54,0-.77,0-.77h-1v-.88Z" style="fill: #0b5597" transform="translate(0 -0.06)"/>
    <path d="M16.13,24.37h3.58a.43.43,0,0,1,.54.42v.48h1.9l-.58.57.05.22H20.25v.73H18.91l-.25-.25H17.44l-1,.48s-.24,0-.23-.23V25.14H15.9v-.6A.23.23,0,0,1,16.13,24.37Z" style="fill: #0b5597" transform="translate(0 -0.06)"/>
    <line style="fill: none;stroke: #0b5597;stroke-linecap: round;stroke-linejoin: round;stroke-width: 0.75px" x1="36.34" x2="38.41" y1="17.5" y2="17.5"/>
    <line style="fill: none;stroke: #0b5597;stroke-linecap: round;stroke-linejoin: round;stroke-width: 0.75px" x1="41.43" x2="43.44" y1="17.52" y2="17.49"/>
    <polygon points="24.72 17.1 24.72 20.25 24.34 20.78 22.96 20.78 22.96 22.55 27.74 22.55 27.74 20.65 26.34 20.65 25.86 20.16 25.86 16.88 24.72 17.1" style="fill: #0b5597"/>
    <line style="fill: none;stroke: #fff;stroke-linecap: round;stroke-linejoin: round;stroke-width: 0.5px" x1="34.53" x2="34.53" y1="16.02" y2="24.48"/>
    <line style="fill: none;stroke: #fff;stroke-linecap: round;stroke-linejoin: round;stroke-width: 0.5px" x1="45.53" x2="45.53" y1="16.02" y2="24.48"/>
  </g>
  <g id="TEXT">
    <g>
      <path d="M13.81.78h.61a.16.16,0,0,1,.13.06.17.17,0,0,1,0,.26.18.18,0,0,1-.13.06h-.58a.17.17,0,0,0-.15.08l-.51.66a.29.29,0,0,0-.07.22v1a.2.2,0,0,0,.06.14.19.19,0,0,0,.13,0H14a.19.19,0,0,0,.13,0,.18.18,0,0,0,.06-.13v-.4h-.38a.17.17,0,0,1-.13-.05.18.18,0,0,1-.06-.13.15.15,0,0,1,.06-.13.15.15,0,0,1,.13-.06h.74v.77a.49.49,0,0,1-.16.38.54.54,0,0,1-.39.17H13.3a.54.54,0,0,1-.4-.17.53.53,0,0,1-.16-.38v-1a.73.73,0,0,1,.15-.46L13.43,1a.53.53,0,0,1,.16-.13A.49.49,0,0,1,13.81.78Z" style="fill: #fff" transform="translate(0 -0.06)"/>
      <path d="M16,2.36h.72l.17,0V2.13A.17.17,0,0,0,16.7,2H16a.18.18,0,0,1-.13-.06.19.19,0,0,1,0-.13.21.21,0,0,1,0-.13.21.21,0,0,1,.13,0h.7a.55.55,0,0,1,.55.55L17.3,3.5a.19.19,0,0,1-.05.13.18.18,0,0,1-.13.06A.2.2,0,0,1,17,3.63a.19.19,0,0,1-.05-.13l-.31.19H16a.51.51,0,0,1-.39-.17.51.51,0,0,1-.17-.39V2.92a.52.52,0,0,1,.17-.39A.52.52,0,0,1,16,2.36Zm.92.72V2.92a.31.31,0,0,0-.06-.13.19.19,0,0,0-.13,0H16a.19.19,0,0,0-.13,0,.18.18,0,0,0-.06.13v.21a.18.18,0,0,0,.06.13.21.21,0,0,0,.13.05h.52Z" style="fill: #fff" transform="translate(0 -0.06)"/>
      <path d="M18.67,1.58h.84a.52.52,0,0,1,.34.12.3.3,0,0,1,.15.22.14.14,0,0,1-.05.13.17.17,0,0,1-.13.05A.18.18,0,0,1,19.67,2,.21.21,0,0,0,19.51,2h-.83c-.08,0-.12,0-.12.1s0,.08.08.11l1,.43a.49.49,0,0,1,.24.21.55.55,0,0,1,.1.32.54.54,0,0,1-.17.4.53.53,0,0,1-.38.17h-.74a.6.6,0,0,1-.36-.12c-.11-.08-.16-.15-.16-.22a.21.21,0,0,1,.05-.13.18.18,0,0,1,.14-.06.22.22,0,0,1,.15.08.32.32,0,0,0,.23.08h.68a.18.18,0,0,0,.14-.06.2.2,0,0,0,.05-.15.17.17,0,0,0-.12-.17l-1-.45a.44.44,0,0,1-.22-.18.46.46,0,0,1-.08-.25.49.49,0,0,1,.14-.34A.46.46,0,0,1,18.67,1.58Z" style="fill: #fff" transform="translate(0 -0.06)"/>
      <path d="M24,.78h1a.46.46,0,0,1,.33.15.46.46,0,0,1,.16.36.16.16,0,0,1-.06.13.14.14,0,0,1-.12.06.17.17,0,0,1-.13-.05A.45.45,0,0,1,25,1.28c0-.08-.07-.12-.15-.12H24s-.07,0-.07,0a.09.09,0,0,0,0,.06L25.31,3a.43.43,0,0,1,.1.27.4.4,0,0,1-.12.29.35.35,0,0,1-.26.13H24a.5.5,0,0,1-.49-.48c0-.14.06-.21.19-.21a.18.18,0,0,1,.13.06.17.17,0,0,1,.05.12.14.14,0,0,0,.14.14H25s.06,0,.06,0,0,0,0,0L23.65,1.48a.43.43,0,0,1-.1-.27.41.41,0,0,1,.12-.3A.42.42,0,0,1,24,.78Z" style="fill: #fff" transform="translate(0 -0.06)"/>
      <path d="M28.1,2.27v.44a.19.19,0,0,1-.05.13.18.18,0,0,1-.13.06h-1.3V3a.19.19,0,0,0,.08.16l.11.09a.25.25,0,0,0,.17.07h.94a.17.17,0,0,1,.18.18.19.19,0,0,1-.05.13.18.18,0,0,1-.13.06H27a.79.79,0,0,1-.2,0l-.16-.09-.16-.14a.52.52,0,0,1-.18-.37V2.21a.49.49,0,0,1,.06-.2.45.45,0,0,1,.14-.19l.15-.12a.52.52,0,0,1,.33-.12h.52a.53.53,0,0,1,.37.16l.13.13A.51.51,0,0,1,28.1,2.27Zm-1.47,0v.28h1.11V2.27a.21.21,0,0,0-.06-.16L27.57,2A.25.25,0,0,0,27.42,2H27A.25.25,0,0,0,26.8,2l-.1.09A.16.16,0,0,0,26.63,2.24Z" style="fill: #fff" transform="translate(0 -0.06)"/>
      <path d="M29.82,2l-.5.32V3.5a.19.19,0,0,1-.05.13.17.17,0,0,1-.26,0A.15.15,0,0,1,29,3.5V1.76A.17.17,0,0,1,29,1.63a.15.15,0,0,1,.13,0,.17.17,0,0,1,.13,0,.21.21,0,0,1,.05.13v.13l.34-.21a.7.7,0,0,1,.38-.1h.17a.55.55,0,0,1,.38.15.53.53,0,0,1,.16.38L30.8,3.5a.13.13,0,0,1-.05.13.16.16,0,0,1-.13.06.21.21,0,0,1-.13,0,.22.22,0,0,1,0-.14l-.06-1.37a.18.18,0,0,0-.2-.19H30A.32.32,0,0,0,29.82,2Z" style="fill: #fff" transform="translate(0 -0.06)"/>
      <path d="M32.17,1.58H33a.55.55,0,0,1,.35.12.3.3,0,0,1,.15.22.15.15,0,0,1-.06.13.15.15,0,0,1-.12.05A.19.19,0,0,1,33.17,2,.21.21,0,0,0,33,2h-.83c-.08,0-.12,0-.12.1s0,.08.08.11l1,.43a.56.56,0,0,1,.25.21.62.62,0,0,1,.09.32.51.51,0,0,1-.17.4.51.51,0,0,1-.37.17h-.75a.57.57,0,0,1-.35-.12c-.11-.08-.17-.15-.17-.22a.18.18,0,0,1,.06-.13.16.16,0,0,1,.13-.06.22.22,0,0,1,.15.08.34.34,0,0,0,.23.08h.69A.16.16,0,0,0,33,3.26a.2.2,0,0,0,.06-.15A.17.17,0,0,0,33,2.94l-1-.45a.49.49,0,0,1-.22-.18.45.45,0,0,1-.07-.25.48.48,0,0,1,.13-.34A.48.48,0,0,1,32.17,1.58Z" style="fill: #fff" transform="translate(0 -0.06)"/>
      <path d="M36.2,2.24V3a.59.59,0,0,1-.23.45.7.7,0,0,1-.48.21h-.43a.7.7,0,0,1-.48-.21A.62.62,0,0,1,34.35,3V2.24a.62.62,0,0,1,.23-.45.68.68,0,0,1,.48-.21h.43a.64.64,0,0,1,.48.2A.59.59,0,0,1,36.2,2.24Zm-1.48,0V3a.22.22,0,0,0,.07.16l.14.12a.25.25,0,0,0,.13,0h.43a.28.28,0,0,0,.17-.07l.11-.1A.2.2,0,0,0,35.84,3V2.26a.2.2,0,0,0-.07-.16L35.64,2a.22.22,0,0,0-.15-.06h-.38a.25.25,0,0,0-.19.06l-.13.11A.21.21,0,0,0,34.72,2.26Z" style="fill: #fff" transform="translate(0 -0.06)"/>
      <path d="M37.06,3.5V1.76a.21.21,0,0,1,0-.13.18.18,0,0,1,.31.13V2l.3-.25a.57.57,0,0,1,.37-.16h.26a.51.51,0,0,1,.39.16.53.53,0,0,1,.16.39v.1a.17.17,0,0,1,0,.13.16.16,0,0,1-.13.06.18.18,0,0,1-.13-.06.19.19,0,0,1-.05-.13v-.1A.18.18,0,0,0,38.48,2,.14.14,0,0,0,38.35,2h-.23A.24.24,0,0,0,38,2l-.53.45v1a.15.15,0,0,1-.05.13.17.17,0,0,1-.26,0A.19.19,0,0,1,37.06,3.5Z" style="fill: #fff" transform="translate(0 -0.06)"/>
    </g>
    <g>
      <path d="M9.29,37.91v.67l-.74,1.91a.19.19,0,0,1-.18.13.19.19,0,0,1-.19-.13l-.74-1.91v-.67a.21.21,0,0,1,.19-.19.18.18,0,0,1,.13.06.19.19,0,0,1,0,.13v.6l.56,1.42.56-1.42v-.6A.15.15,0,0,1,9,37.78a.18.18,0,0,1,.13-.06.16.16,0,0,1,.13.06A.15.15,0,0,1,9.29,37.91Z" style="fill: #fff" transform="translate(0 -0.06)"/>
      <path d="M10.32,37.72H11.8a.18.18,0,0,1,.13.06.16.16,0,0,1,.06.13.18.18,0,0,1-.06.13.15.15,0,0,1-.13.05h-.55v2.17h.55a.15.15,0,0,1,.13.05.17.17,0,0,1,0,.26.15.15,0,0,1-.13,0H10.32a.15.15,0,0,1-.13,0,.17.17,0,0,1,0-.26.15.15,0,0,1,.13-.05h.56V38.09h-.56a.15.15,0,0,1-.13-.05.18.18,0,0,1-.06-.13.21.21,0,0,1,.19-.19Z" style="fill: #fff" transform="translate(0 -0.06)"/>
      <path d="M14.69,37.91v2.71h-.5l-1-2.25v2.07a.18.18,0,0,1-.06.13.15.15,0,0,1-.13,0,.17.17,0,0,1-.13,0,.21.21,0,0,1-.05-.13V37.72h.48l1,2.25V37.91a.17.17,0,0,1,0-.13.18.18,0,0,1,.13-.06.21.21,0,0,1,.19.19Z" style="fill: #fff" transform="translate(0 -0.06)"/>
    </g>
    <g>
      <path d="M14.67,49.75h.56V47.59h-.55a.21.21,0,0,1-.13-.05.17.17,0,0,1-.05-.13.15.15,0,0,1,.05-.13.18.18,0,0,1,.13-.06h.92v2.53H16V49a.21.21,0,0,1,0-.13.18.18,0,0,1,.13-.06.16.16,0,0,1,.13.06.15.15,0,0,1,0,.13v.95a.17.17,0,0,1,0,.13.19.19,0,0,1-.13,0H14.67a.18.18,0,0,1-.13-.06.19.19,0,0,1,0-.13.17.17,0,0,1,.18-.18Z" style="fill: #fff" transform="translate(0 -0.06)"/>
      <path d="M19.06,47.41v.67L18.31,50A.19.19,0,0,1,18,50l-.74-1.91v-.67a.15.15,0,0,1,.05-.13.17.17,0,0,1,.26,0,.15.15,0,0,1,.05.13V48l.56,1.42L18.69,48v-.6a.19.19,0,0,1,0-.13.18.18,0,0,1,.13-.06.21.21,0,0,1,.19.19Z" style="fill: #fff" transform="translate(0 -0.06)"/>
      <path d="M19.89,49.75v-.9a.38.38,0,0,1,.11-.26.35.35,0,0,1,.26-.1V47.41a.19.19,0,0,1,0-.13.18.18,0,0,1,.13-.06h.75a.18.18,0,0,1,.13.06.15.15,0,0,1,.05.13v1.08a.35.35,0,0,1,.26.1.36.36,0,0,1,.11.26v.9a.38.38,0,0,1-.37.37H20.26A.36.36,0,0,1,20,50,.36.36,0,0,1,19.89,49.75Zm.37-.9v.9h1.11v-.9Zm.37-1.26v.9H21v-.9Z" style="fill: #fff" transform="translate(0 -0.06)"/>
    </g>
    <g>
      <path d="M28.85,47.22h1a.51.51,0,0,1,.48.51.17.17,0,0,1-.05.13.16.16,0,0,1-.12,0c-.07,0-.11,0-.13,0a.34.34,0,0,1-.07-.16.14.14,0,0,0-.14-.11h-.91s-.07,0-.07,0a.09.09,0,0,0,0,.06l1.37,1.74a.48.48,0,0,1,.09.27.4.4,0,0,1-.12.29.34.34,0,0,1-.26.12h-1a.46.46,0,0,1-.34-.15.42.42,0,0,1-.15-.32.18.18,0,0,1,.2-.21.17.17,0,0,1,.17.18.14.14,0,0,0,.05.1.15.15,0,0,0,.1,0h.91s.06,0,.06,0l0-.06-1.36-1.74a.45.45,0,0,1-.1-.27.45.45,0,0,1,.42-.42Z" style="fill: #fff" transform="translate(0 -0.06)"/>
      <path d="M32.15,49.76h.66a.21.21,0,0,1,.13.05.18.18,0,0,1,.06.13.16.16,0,0,1-.06.13.17.17,0,0,1-.13,0h-.69a.47.47,0,0,1-.27-.08.47.47,0,0,1-.19-.18L31.23,49a1,1,0,0,1-.08-.37.67.67,0,0,1,.08-.35l.43-.81a.52.52,0,0,1,.19-.2.43.43,0,0,1,.25-.09h.72a.16.16,0,0,1,.13.06.15.15,0,0,1,0,.13.17.17,0,0,1,0,.13.15.15,0,0,1-.13.05h-.7c-.06,0-.1,0-.14.11l-.41.76a.46.46,0,0,0,0,.21.4.4,0,0,0,0,.22l.39.75A.17.17,0,0,0,32.15,49.76Z" style="fill: #fff" transform="translate(0 -0.06)"/>
      <path d="M33.84,50.12V47.41a.19.19,0,0,1,0-.13.18.18,0,0,1,.13-.06.21.21,0,0,1,.19.19v2.35H35.5a.24.24,0,0,1,.14.05.21.21,0,0,1,0,.13.19.19,0,0,1,0,.13.19.19,0,0,1-.14,0Z" style="fill: #fff" transform="translate(0 -0.06)"/>
    </g>
    <g>
      <path d="M22.56,37.72h.61a.16.16,0,0,1,.13.06.15.15,0,0,1,.06.13.18.18,0,0,1-.06.13.17.17,0,0,1-.13.05h-.58a.19.19,0,0,0-.15.08l-.51.67a.28.28,0,0,0-.07.21v1a.21.21,0,0,0,.19.19h.74a.21.21,0,0,0,.19-.19v-.39H22.6a.15.15,0,0,1-.13-.06.16.16,0,0,1-.06-.13.18.18,0,0,1,.06-.13.17.17,0,0,1,.13,0h.74v.76a.51.51,0,0,1-.16.39.53.53,0,0,1-.39.16h-.74a.54.54,0,0,1-.4-.16.55.55,0,0,1-.16-.39v-1a.71.71,0,0,1,.15-.46l.54-.69a.42.42,0,0,1,.16-.13A.49.49,0,0,1,22.56,37.72Z" style="fill: #fff" transform="translate(0 -0.06)"/>
      <path d="M26.05,37.91v2.71h-.49l-1-2.25v2.07a.21.21,0,0,1-.05.13.17.17,0,0,1-.13,0,.14.14,0,0,1-.13,0,.18.18,0,0,1-.06-.13V37.72h.49l1,2.25V37.91a.21.21,0,0,1,.05-.13.18.18,0,0,1,.14-.06.18.18,0,0,1,.13.06A.19.19,0,0,1,26.05,37.91Z" style="fill: #fff" transform="translate(0 -0.06)"/>
      <path d="M27.08,37.72h.73a.48.48,0,0,1,.27.09.59.59,0,0,1,.2.22l.36.73a.91.91,0,0,1,.11.42.93.93,0,0,1-.11.41l-.37.73a.6.6,0,0,1-.2.22.49.49,0,0,1-.29.08h-.7a.15.15,0,0,1-.13,0,.17.17,0,0,1,0-.26.16.16,0,0,1,.13-.06h.19V38.09h-.19A.17.17,0,0,1,27,38a.21.21,0,0,1-.05-.13.19.19,0,0,1,.05-.13A.18.18,0,0,1,27.08,37.72Zm.56.37v2.17h.12a.2.2,0,0,0,.19-.12l.36-.72a.75.75,0,0,0,.07-.24.46.46,0,0,0-.06-.23L28,38.21a.21.21,0,0,0-.19-.12Z" style="fill: #fff" transform="translate(0 -0.06)"/>
    </g>
    <g>
      <path d="M36.48,37.72h1a.46.46,0,0,1,.33.15.46.46,0,0,1,.16.36.18.18,0,0,1-.06.13.13.13,0,0,1-.12,0c-.06,0-.11,0-.13,0a.89.89,0,0,1-.07-.16.13.13,0,0,0-.14-.11h-.9s-.07,0-.07,0a.09.09,0,0,0,0,.06l1.36,1.74a.41.41,0,0,1,.1.27.4.4,0,0,1-.12.29.37.37,0,0,1-.26.12h-1a.49.49,0,0,1-.35-.15.45.45,0,0,1-.14-.32c0-.14.06-.21.19-.21a.17.17,0,0,1,.18.18.13.13,0,0,0,0,.1.18.18,0,0,0,.1,0h.91s.06,0,.06,0a.1.1,0,0,0,0-.06l-1.36-1.74a.39.39,0,0,1-.1-.27.4.4,0,0,1,.12-.29A.38.38,0,0,1,36.48,37.72Z" style="fill: #fff" transform="translate(0 -0.06)"/>
      <path d="M38.94,37.72h.73a.46.46,0,0,1,.27.09.59.59,0,0,1,.2.22l.36.73a.91.91,0,0,1,.11.42.93.93,0,0,1-.11.41l-.37.73a.53.53,0,0,1-.2.22.49.49,0,0,1-.29.08h-.7a.15.15,0,0,1-.13,0,.19.19,0,0,1,0-.26.16.16,0,0,1,.13-.06h.19V38.09h-.19a.17.17,0,0,1-.13-.05.21.21,0,0,1-.05-.13.19.19,0,0,1,.05-.13A.18.18,0,0,1,38.94,37.72Zm.56.37v2.17h.13a.19.19,0,0,0,.18-.12l.36-.72a.56.56,0,0,0,.07-.24.59.59,0,0,0-.05-.23l-.38-.74a.2.2,0,0,0-.19-.12Z" style="fill: #fff" transform="translate(0 -0.06)"/>
      <path d="M41.48,40.37l.73-2.51a.19.19,0,0,1,.19-.14.16.16,0,0,1,.17.12l.73,2.55a.07.07,0,0,1,0,0,.21.21,0,0,1-.05.13.18.18,0,0,1-.3-.08l-.15-.5H42l-.16.54s0,0-.05.06a.23.23,0,0,1-.11,0,.15.15,0,0,1-.13,0,.18.18,0,0,1-.06-.13A.14.14,0,0,1,41.48,40.37Zm.92-1.8-.32,1h.62Z" style="fill: #fff" transform="translate(0 -0.06)"/>
    </g>
    <g>
      <path d="M15.13,5.2h1.65a.84.84,0,0,1,.58.25.83.83,0,0,1,.27.62.29.29,0,0,1-.1.23.26.26,0,0,1-.21.1.29.29,0,0,1-.23-.08A.7.7,0,0,1,17,6.05a.25.25,0,0,0-.25-.2H15.16c-.08,0-.12,0-.12.07a.21.21,0,0,0,.05.11l2.37,3a.8.8,0,0,1,.17.47.69.69,0,0,1-.21.5.61.61,0,0,1-.46.22H15.25a.87.87,0,0,1-.85-.83q0-.36.33-.36a.3.3,0,0,1,.22.1.29.29,0,0,1,.09.22.25.25,0,0,0,.08.17.24.24,0,0,0,.17.06h1.58c.07,0,.11,0,.11-.08a.23.23,0,0,0-.05-.1l-2.36-3a.78.78,0,0,1-.17-.47.73.73,0,0,1,.73-.73Z" style="fill: #fff" transform="translate(0 -0.06)"/>
      <path d="M20.94,5.2h1a.31.31,0,0,1,.32.32.29.29,0,0,1-.1.23.33.33,0,0,1-.22.09H21a.31.31,0,0,0-.25.14l-.9,1.15a.61.61,0,0,0-.11.38V9.27a.32.32,0,0,0,.09.23.33.33,0,0,0,.23.09h1.29a.33.33,0,0,0,.23-.09.31.31,0,0,0,.09-.22V8.59H21a.27.27,0,0,1-.22-.1.3.3,0,0,1-.1-.22.33.33,0,0,1,.1-.23A.29.29,0,0,1,21,8h1.3V9.28a1,1,0,0,1-1,1H20a1,1,0,0,1-1-1V7.52a1.23,1.23,0,0,1,.25-.8l.94-1.2a.87.87,0,0,1,.29-.23A.85.85,0,0,1,20.94,5.2Z" style="fill: #fff" transform="translate(0 -0.06)"/>
      <path d="M23.78,9.91V5.2H26a.93.93,0,0,1,.68.28,1,1,0,0,1,.28.68V7.35a1,1,0,0,1-.28.68,1,1,0,0,1-.68.28H24.42v1.6a.32.32,0,1,1-.64,0Zm.64-2.24H26a.33.33,0,0,0,.23-.09.32.32,0,0,0,.09-.23V6.16A.31.31,0,0,0,26,5.84H24.42Z" style="fill: #fff" transform="translate(0 -0.06)"/>
      <path d="M31.66,5.83V7a.91.91,0,0,1-.25.67,1,1,0,0,1,.26.64V9.59a.61.61,0,0,1-.19.45.63.63,0,0,1-.45.18H28.78a.33.33,0,0,1-.23-.09.32.32,0,0,1-.09-.23.31.31,0,0,1,.09-.22.33.33,0,0,1,.23-.09H31V8.34a.31.31,0,0,0-.09-.22A.29.29,0,0,0,30.7,8H29.42a.29.29,0,0,1-.22-.09.29.29,0,0,1-.1-.23.34.34,0,0,1,.32-.32h1.29a.29.29,0,0,0,.22-.09.29.29,0,0,0,.1-.23V5.83H28.76a.32.32,0,0,1-.23-.09.31.31,0,0,1-.09-.22.31.31,0,0,1,.32-.32H31a.61.61,0,0,1,.45.19A.6.6,0,0,1,31.66,5.83Z" style="fill: #fff" transform="translate(0 -0.06)"/>
      <path d="M33.13,9.61V5.8a.61.61,0,0,1,.61-.61h2a.58.58,0,0,1,.42.18.6.6,0,0,1,.18.43V9.61a.61.61,0,0,1-.61.61h-2a.61.61,0,0,1-.61-.61Zm2.58,0V5.83H33.77V9.59Z" style="fill: #fff" transform="translate(0 -0.06)"/>
    </g>
  </g>
  <g id="CIRCLES">
    <g>
      <circle cx="3.28" cy="41.53" r="2.56" style="fill: #9e775e"/>
      <circle cx="3.28" cy="41.53" r="1.5" style="fill: #f4e3c2"/>
    </g>
    <g>
      <circle cx="46.99" cy="41.53" r="2.56" style="fill: #9e775e"/>
      <circle cx="46.99" cy="41.53" r="1.5" style="fill: #f4e3c2"/>
    </g>
    <g>
      <path d="M19.73,16.73a2.52,2.52,0,0,0-2.25-.3,3.77,3.77,0,0,0-.28-2.08c-.15-.48-.37-.65-.77,0a2.3,2.3,0,0,0-.91,1.87c-.39-.55-1.16-.6-2.06-.47-.61,0-.67.31-.37.73a2.64,2.64,0,0,0,1.21,1.33c.3,0,.45.11.21.22a2.77,2.77,0,0,0-.93,1.9c-.15.61.13.61.57.38a2.51,2.51,0,0,0,1.64-.77c.16-.18.3-.29.29-.09a.56.56,0,0,0,.18.47,5.52,5.52,0,0,0,1.35,1.06c.32.24.47.13.48-.28s.1-.64.12-.88a1.72,1.72,0,0,0-.07-.82,1.78,1.78,0,0,0-.08-.18l-.22-.17c-.21-.21-.15-.29.16-.25a2.21,2.21,0,0,0,1.67-.86C20.11,17.18,20.08,16.93,19.73,16.73Z" style="fill: #fff" transform="translate(0 -0.06)"/>
      <path d="M15.22,17.17a1.75,1.75,0,0,1-.76-.25,1.67,1.67,0,0,1-.59-.54,1.75,1.75,0,0,1,.76.25A1.67,1.67,0,0,1,15.22,17.17Z" style="fill: #003481" transform="translate(0 -0.06)"/>
      <path d="M18.92,17.21a1.66,1.66,0,0,1-.75.27,1.8,1.8,0,0,1-.79-.08,1.77,1.77,0,0,1,.75-.26A1.65,1.65,0,0,1,18.92,17.21Z" style="fill: #003481" transform="translate(0 -0.06)"/>
      <path d="M16.46,16.62a1.7,1.7,0,0,1-.06-.8,1.73,1.73,0,0,1,.28-.75,1.84,1.84,0,0,1,.06.8A1.81,1.81,0,0,1,16.46,16.62Z" style="fill: #003481" transform="translate(0 -0.06)"/>
      <path d="M17.53,19.78a1.77,1.77,0,0,1-.57-.55,1.7,1.7,0,0,1-.28-.75,1.7,1.7,0,0,1,.57.56A1.78,1.78,0,0,1,17.53,19.78Z" style="fill: #003481" transform="translate(0 -0.06)"/>
      <path d="M14.55,19.52a1.63,1.63,0,0,1,.42-.68,1.74,1.74,0,0,1,.67-.44,1.76,1.76,0,0,1-.43.68A1.82,1.82,0,0,1,14.55,19.52Z" style="fill: #003481" transform="translate(0 -0.06)"/>
    </g>
    <g>
      <path d="M5.33,16.24v2.62A1.2,1.2,0,0,1,4,19.92a1.2,1.2,0,0,1-1.29-1.06V16.24A1.2,1.2,0,0,1,4,15.17,1.2,1.2,0,0,1,5.33,16.24Z" style="fill: #bcbcbc" transform="translate(0 -0.06)"/>
      <path d="M12.22,16.24v2.62a1.19,1.19,0,0,1-1.29,1.06,1.2,1.2,0,0,1-1.29-1.06V16.24a1.2,1.2,0,0,1,1.29-1.07A1.19,1.19,0,0,1,12.22,16.24Z" style="fill: #bcbcbc" transform="translate(0 -0.06)"/>
      <rect height="6.9" rx="0.58" ry="0.58" style="fill: #e2e2e2" transform="translate(-10.06 24.97) rotate(-90)" width="4.02" x="5.48" y="14.1"/>
      <rect height="3.23" style="fill: #b7967a" transform="translate(-10.13 24.9) rotate(-90)" width="4.02" x="5.41" y="15.93"/>
    </g>
    <g>
      <path d="M5.33,32.7v2.61A1.2,1.2,0,0,1,4,36.38a1.2,1.2,0,0,1-1.29-1.07V32.7A1.2,1.2,0,0,1,4,31.63,1.2,1.2,0,0,1,5.33,32.7Z" style="fill: #bcbcbc" transform="translate(0 -0.06)"/>
      <path d="M12.22,32.7v2.61a1.19,1.19,0,0,1-1.29,1.07,1.2,1.2,0,0,1-1.29-1.07V32.7a1.2,1.2,0,0,1,1.29-1.07A1.19,1.19,0,0,1,12.22,32.7Z" style="fill: #bcbcbc" transform="translate(0 -0.06)"/>
      <rect height="6.9" rx="0.58" ry="0.58" style="fill: #e2e2e2" transform="translate(-26.52 41.43) rotate(-90)" width="4.02" x="5.48" y="30.56"/>
      <rect height="3.23" style="fill: #b7967a" transform="translate(-26.59 41.36) rotate(-90)" width="4.02" x="5.41" y="32.39"/>
    </g>
    <g>
      <path d="M24,32v2.62a1.32,1.32,0,0,1-2.59,0V32A1.32,1.32,0,0,1,24,32Z" style="fill: #bcbcbc" transform="translate(0 -0.06)"/>
      <path d="M30.93,32v2.62a1.31,1.31,0,0,1-2.58,0V32a1.31,1.31,0,0,1,2.58,0Z" style="fill: #bcbcbc" transform="translate(0 -0.06)"/>
      <rect height="6.9" rx="0.58" ry="0.58" style="fill: #e2e2e2" transform="translate(-7.11 59.43) rotate(-90)" width="4.02" x="24.18" y="29.85"/>
      <rect height="3.23" style="fill: #b7967a" transform="translate(-7.17 59.36) rotate(-90)" width="4.02" x="24.12" y="31.68"/>
    </g>
    <g>
      <g>
        <path d="M42.32,33.88h0v-.25a.09.09,0,0,0-.09-.09h-1a.09.09,0,0,0-.09.09v.25h-.58a.28.28,0,0,0-.28.26V36a.28.28,0,0,0,.28.26h1.79A.28.28,0,0,0,42.6,36V34.14A.28.28,0,0,0,42.32,33.88Z" style="fill: #b1aeaa" transform="translate(0 -0.06)"/>
        <path d="M37.42,33.91h-.06v-.25a.09.09,0,0,0-.08-.09h-1a.08.08,0,0,0-.08.09v.25h-.59a.27.27,0,0,0-.27.26V36a.27.27,0,0,0,.27.26h1.8a.27.27,0,0,0,.27-.26V34.17A.27.27,0,0,0,37.42,33.91Z" style="fill: #b1aeaa" transform="translate(0 -0.06)"/>
        <path d="M38,30.09h.06v.25a.09.09,0,0,0,.09.08h1.08a.09.09,0,0,0,.09-.08v-.25H40a.28.28,0,0,0,.3-.27V28a.28.28,0,0,0-.3-.27H38a.28.28,0,0,0-.3.27v1.85A.28.28,0,0,0,38,30.09Z" style="fill: #b1aeaa" transform="translate(0 -0.06)"/>
        <rect height="3.89" rx="0.91" ry="0.91" style="fill: #3a393c" width="7.92" x="35.01" y="29.78"/>
      </g>
      <g>
        <path d="M37.24,32v-.25s0,0,0-.05,0,0,.05,0a.07.07,0,0,1,.06,0,.08.08,0,0,1,0,.05V32a.08.08,0,0,0,0,.05.07.07,0,0,0,.06,0h.15a.07.07,0,0,0,.06,0,.08.08,0,0,0,0-.05V31.1a.08.08,0,0,1,0-.05.07.07,0,0,1,.06,0s0,0,0,0a.07.07,0,0,1,0,.06V32a.23.23,0,0,1-.06.16.23.23,0,0,1-.17.07h-.15a.26.26,0,0,1-.17-.07A.25.25,0,0,1,37.24,32Z" style="fill: #7e725a" transform="translate(0 -0.06)"/>
        <path d="M38.36,32.08h.24v-.9h-.24l0,0a.07.07,0,0,1,0-.06s0,0,0-.05,0,0,0,0h.39v1h.15v-.32s0,0,0-.05a.07.07,0,0,1,.06,0s0,0,.05,0,0,0,0,.05v.4s0,0,0,.05a.05.05,0,0,1-.05,0h-.62a.12.12,0,0,1-.08-.08.09.09,0,0,1,0-.06Z" style="fill: #7e725a" transform="translate(0 -0.06)"/>
      </g>
      <path d="M40.81,31.31v.08a.12.12,0,0,1-.08.08l-.06,0a.14.14,0,0,1,0-.06h-.5v.54a.12.12,0,0,1-.08.08h-.4a.05.05,0,0,1-.05,0s0,0,0-.05v-.62a.06.06,0,0,1,0,0l.05,0h1.06l.05,0A.05.05,0,0,1,40.81,31.31Zm-.82.08h-.24v.46H40Z" style="fill: #7e725a" transform="translate(0 -0.06)"/>
    </g>
    <g>
      <g>
        <path d="M28.77,17.73h-.06v-.25a.09.09,0,0,0-.08-.09h-1a.08.08,0,0,0-.08.09v.25H27a.27.27,0,0,0-.27.26v1.86a.27.27,0,0,0,.27.26h1.8a.27.27,0,0,0,.27-.26V18A.27.27,0,0,0,28.77,17.73Z" style="fill: #b1aeaa" transform="translate(0 -0.06)"/>
        <path d="M23.86,17.76h-.05V17.5a.09.09,0,0,0-.09-.08h-1a.09.09,0,0,0-.08.08v.26h-.59a.27.27,0,0,0-.27.26v1.85a.27.27,0,0,0,.27.27h1.8a.27.27,0,0,0,.27-.27V18A.27.27,0,0,0,23.86,17.76Z" style="fill: #b1aeaa" transform="translate(0 -0.06)"/>
        <path d="M24.43,13.94h.06v.25a.09.09,0,0,0,.1.08h1.07a.09.09,0,0,0,.1-.08v-.25h.64a.29.29,0,0,0,.3-.27V11.82a.29.29,0,0,0-.3-.27h-2a.29.29,0,0,0-.3.27v1.85A.29.29,0,0,0,24.43,13.94Z" style="fill: #b1aeaa" transform="translate(0 -0.06)"/>
        <rect height="3.89" rx="0.91" ry="0.91" style="fill: #3a393c" width="7.92" x="21.45" y="13.63"/>
      </g>
      <g>
        <path d="M23.68,15.85v-.24a.08.08,0,0,1,0,0,.07.07,0,0,1,.06,0s0,0,0,0,0,0,0,0v.25a.05.05,0,0,0,0,.05l.05,0h.16l.05,0a.07.07,0,0,0,0-.06V15s0,0,0,0,0,0,0,0,0,0,.05,0a.07.07,0,0,1,0,.06v.89a.26.26,0,0,1-.07.17.26.26,0,0,1-.16.07h-.16a.24.24,0,0,1-.16-.07A.22.22,0,0,1,23.68,15.85Z" style="fill: #7e725a" transform="translate(0 -0.06)"/>
        <path d="M24.8,15.93H25V15h-.23l-.06,0a.14.14,0,0,1,0-.06.08.08,0,0,1,0,0,.07.07,0,0,1,.06,0h.38v1h.15v-.32a.05.05,0,0,1,0,0s0,0,.05,0a.07.07,0,0,1,.06,0,.08.08,0,0,1,0,0V16a.08.08,0,0,1,0,0,.07.07,0,0,1-.06,0H24.8s0,0-.05,0,0,0,0,0a.07.07,0,0,1,0-.06Z" style="fill: #7e725a" transform="translate(0 -0.06)"/>
      </g>
      <path d="M27.25,15.16v.08a.08.08,0,0,1,0,0,.07.07,0,0,1-.06,0s0,0-.05,0,0,0,0,0h-.51v.54a.08.08,0,0,1,0,.05.07.07,0,0,1-.06,0h-.39s0,0-.06,0a.08.08,0,0,1,0-.05v-.62a.08.08,0,0,1,0-.05.07.07,0,0,1,.06,0h1.05l.06,0A.08.08,0,0,1,27.25,15.16Zm-.82.08h-.24v.46h.24Z" style="fill: #7e725a" transform="translate(0 -0.06)"/>
    </g>
    <polyline points="33.95 33.23 33.95 29.35 43.6 29.35 43.6 33.66" style="fill: none;stroke: #fff;stroke-linecap: round;stroke-linejoin: round;stroke-width: 0.5px"/>
    <polyline points="20.59 17.29 20.59 13.41 30.24 13.41 30.24 17.72" style="fill: none;stroke: #fff;stroke-linecap: round;stroke-linejoin: round;stroke-width: 0.5px"/>
    <g>
      <rect height="1.64" style="fill: #b1aeaa" transform="translate(7.01 56.79) rotate(180)" width="2.14" x="2.44" y="27.61"/>
      <rect height="1.17" style="fill: #bcbcbc" transform="translate(10.11 56.76) rotate(180)" width="0.96" x="4.58" y="27.83"/>
      <rect height="1.64" style="fill: #b1aeaa" transform="translate(7.01 51.42) rotate(180)" width="2.14" x="2.44" y="24.92"/>
      <rect height="1.17" style="fill: #bcbcbc" transform="translate(10.11 51.39) rotate(180)" width="0.96" x="4.58" y="25.14"/>
      <rect height="1.64" style="fill: #b1aeaa" transform="translate(7.01 46.1) rotate(180)" width="2.14" x="2.44" y="22.26"/>
      <rect height="1.17" style="fill: #bcbcbc" transform="translate(10.11 46.08) rotate(180)" width="0.96" x="4.58" y="22.48"/>
      <rect height="1.64" style="fill: #b1aeaa" width="2.14" x="11.12" y="22.28"/>
      <rect height="1.17" style="fill: #bcbcbc" width="0.96" x="10.16" y="22.53"/>
      <rect height="1.64" style="fill: #b1aeaa" width="2.14" x="11.12" y="27.59"/>
      <rect height="1.17" style="fill: #bcbcbc" width="0.96" x="10.16" y="27.83"/>
      <rect height="8" style="fill: #303030" transform="translate(15.69 51.16) rotate(180)" width="4.63" x="5.53" y="21.61"/>
    </g>
    <g>
      <path d="M7.23,27.68l.34-.17a.42.42,0,0,1,.15,0,.33.33,0,0,1,.15,0l.34.17a.17.17,0,0,1,.12.18.15.15,0,0,1,0,.11.14.14,0,0,1-.08.07l-.34.17a.24.24,0,0,1-.15,0,.28.28,0,0,1-.15,0L7.23,28a.18.18,0,0,1-.11-.18A.17.17,0,0,1,7.23,27.68Zm.07.23.33.16.09,0,.1,0,.32-.16a.05.05,0,0,0,0-.05s0,0,0,0l-.32-.17-.1,0-.09,0-.33.16a.06.06,0,0,0,0,.1Z" style="fill: #7e725a" transform="translate(0 -0.06)"/>
      <path d="M7.32,27.12h-.2v-.77h.21s0,0,0,0,0,0,0,.05a.07.07,0,0,1,0,.06l0,0H7.27v.16h1s0,0,.05,0a.05.05,0,0,1,0,.05.09.09,0,0,1,0,.06l-.05,0h-1V27h.05s0,0,.06,0a.08.08,0,0,1,0,.05.14.14,0,0,1,0,.06Z" style="fill: #7e725a" transform="translate(0 -0.06)"/>
      <path d="M8.17,24.79v-.23h-.9v.23a.08.08,0,0,1,0,.05.09.09,0,0,1-.06,0,.05.05,0,0,1-.05,0s0,0,0-.05V24.4h1v-.15H7.85l0,0s0,0,0-.06,0,0,0-.05l0,0h.4l.05,0s0,0,0,.05v.62a.07.07,0,0,1,0,.06l-.05,0-.06,0A.14.14,0,0,1,8.17,24.79Z" style="fill: #7e725a" transform="translate(0 -0.06)"/>
      <path d="M8.17,23.74H7.8a.14.14,0,0,1-.11,0,.16.16,0,0,1-.05-.11H7.19a.05.05,0,0,1-.05,0s0,0,0,0V23.2a.07.07,0,0,1,0-.06l.05,0h.45A.16.16,0,0,1,7.69,23a.14.14,0,0,1,.11,0h.37a.14.14,0,0,1,.15.15v.47a.14.14,0,0,1-.15.15Zm-.9-.31h.37v-.16H7.27Zm.53.16h.37v-.47H7.8Z" style="fill: #7e725a" transform="translate(0 -0.06)"/>
    </g>
    <line style="fill: none;stroke: #fff;stroke-linecap: round;stroke-linejoin: round;stroke-width: 0.5px" x1="10.86" x2="10.86" y1="24.31" y2="26.73"/>
    <line style="fill: none;stroke: #fff;stroke-linecap: round;stroke-linejoin: round;stroke-width: 0.5px" x1="5.53" x2="10.64" y1="20.99" y2="20.99"/>
    <line style="fill: none;stroke: #fff;stroke-linecap: round;stroke-linejoin: round;stroke-width: 0.5px" x1="5.53" x2="10.64" y1="30.56" y2="30.56"/>
    <path d="M7.13,2.3a5.09,5.09,0,1,0,5.09,5.09A5.09,5.09,0,0,0,7.13,2.3Zm0,8.82a3.73,3.73,0,1,1,3.73-3.73A3.72,3.72,0,0,1,7.13,11.12Z" style="fill: #edd7ae" transform="translate(0 -0.06)"/>
    <circle cx="7.13" cy="7.32" r="6.12" style="fill: none;stroke: #fff;stroke-miterlimit: 10;stroke-width: 0.5px"/>
    <circle cx="43.26" cy="7.32" r="6.12" style="fill: none;stroke: #fff;stroke-miterlimit: 10;stroke-width: 0.5px"/>
    <path d="M43.26,2.3a5.09,5.09,0,1,0,5.09,5.09A5.09,5.09,0,0,0,43.26,2.3Zm0,8.82A3.73,3.73,0,1,1,47,7.39,3.73,3.73,0,0,1,43.26,11.12Z" style="fill: #edd7ae" transform="translate(0 -0.06)"/>
    <g>
      <g>
        <rect height="1.59" style="fill: #b1aeaa" transform="translate(18.78 53.54) rotate(-90)" width="1.59" x="35.4" y="16.62"/>
        <rect height="1.14" style="fill: #bcbcbc" transform="translate(17.64 54.71) rotate(-90)" width="0.71" x="35.85" y="18"/>
      </g>
      <g>
        <rect height="1.59" style="fill: #b1aeaa" transform="translate(21.25 56.01) rotate(-90)" width="1.59" x="37.87" y="16.62"/>
        <rect height="1.14" style="fill: #bcbcbc" transform="translate(20.11 57.18) rotate(-90)" width="0.71" x="38.32" y="18"/>
      </g>
      <g>
        <rect height="1.59" style="fill: #b1aeaa" transform="translate(23.72 58.48) rotate(-90)" width="1.59" x="40.34" y="16.62"/>
        <rect height="1.14" style="fill: #bcbcbc" transform="translate(22.58 59.65) rotate(-90)" width="0.71" x="40.79" y="18"/>
      </g>
      <g>
        <rect height="1.59" style="fill: #b1aeaa" transform="translate(26.19 60.95) rotate(-90)" width="1.59" x="42.81" y="16.62"/>
        <rect height="1.14" style="fill: #bcbcbc" transform="translate(25.05 62.12) rotate(-90)" width="0.71" x="43.26" y="18"/>
      </g>
      <g>
        <rect height="1.59" style="fill: #b1aeaa" transform="translate(67.02 -20.25) rotate(90)" width="1.59" x="42.81" y="22.62"/>
        <rect height="1.14" style="fill: #bcbcbc" transform="translate(65.85 -21.39) rotate(90)" width="0.71" x="43.23" y="21.69"/>
      </g>
      <g>
        <rect height="1.59" style="fill: #b1aeaa" transform="translate(64.55 -17.78) rotate(90)" width="1.59" x="40.34" y="22.62"/>
        <rect height="1.14" style="fill: #bcbcbc" transform="translate(63.38 -18.92) rotate(90)" width="0.71" x="40.76" y="21.69"/>
      </g>
      <g>
        <rect height="1.59" style="fill: #b1aeaa" transform="translate(62.07 -15.31) rotate(90)" width="1.59" x="37.87" y="22.62"/>
        <rect height="1.14" style="fill: #bcbcbc" transform="translate(60.91 -16.45) rotate(90)" width="0.71" x="38.29" y="21.69"/>
      </g>
      <g>
        <rect height="1.59" style="fill: #b1aeaa" transform="translate(59.6 -12.84) rotate(90)" width="1.59" x="35.4" y="22.62"/>
        <rect height="1.14" style="fill: #bcbcbc" transform="translate(58.44 -13.98) rotate(90)" width="0.71" x="35.82" y="21.69"/>
      </g>
      <rect height="2.95" style="fill: #303030" width="9" x="35.4" y="18.9"/>
      <g>
        <path d="M38.16,20.88h.27v-1h-.26a.08.08,0,0,1-.07,0,.14.14,0,0,1,0-.06.08.08,0,0,1,0-.06.09.09,0,0,1,.07,0h.43v1.19h.17v-.36a.14.14,0,0,1,0-.06.08.08,0,0,1,.07,0,.07.07,0,0,1,.06,0,.14.14,0,0,1,0,.06V21a.14.14,0,0,1,0,.06l-.06,0h-.7l-.06,0a.08.08,0,0,1,0-.07.07.07,0,0,1,0-.06Z" style="fill: #fff" transform="translate(0 -0.06)"/>
        <path d="M39.34,20.89v-1a.17.17,0,0,1,0-.12.21.21,0,0,1,.12,0h.54a.16.16,0,0,1,.11,0,.13.13,0,0,1,.05.12v1a.17.17,0,0,1-.16.16h-.54a.13.13,0,0,1-.12-.05A.16.16,0,0,1,39.34,20.89Zm.7,0v-1h-.52v1Z" style="fill: #fff" transform="translate(0 -0.06)"/>
        <path d="M41.48,19.86v.33a.28.28,0,0,1-.06.18.28.28,0,0,1,.07.17v.34a.17.17,0,0,1-.18.17H40.7l-.06,0a.14.14,0,0,1,0-.06.08.08,0,0,1,0-.06.09.09,0,0,1,.06,0h.61v-.34a.14.14,0,0,0,0-.06.08.08,0,0,0-.07,0h-.34a.06.06,0,0,1-.06,0,.07.07,0,0,1,0-.06.09.09,0,0,1,0-.06.06.06,0,0,1,.06,0h.35a.07.07,0,0,0,.06,0,.14.14,0,0,0,0-.06v-.34H40.7s-.05,0-.06,0a.09.09,0,0,1,0-.06.11.11,0,0,1,.09-.09h.61a.17.17,0,0,1,.12,0A.16.16,0,0,1,41.48,19.86Z" style="fill: #fff" transform="translate(0 -0.06)"/>
      </g>
    </g>
    <g>
      <polyline points="21.63 21.84 29.27 21.84 29.27 22.28" style="fill: none;stroke: #fff;stroke-linecap: round;stroke-linejoin: round;stroke-width: 0.5px"/>
      <rect height="1.03" style="fill: #fcfcf8" width="8.89" x="20.75" y="23.1"/>
      <rect height="1.03" style="fill: #fcfcf8" width="8.89" x="20.75" y="25.29"/>
      <rect height="1.03" style="fill: #fcfcf8" width="8.89" x="20.75" y="27.6"/>
      <rect height="7.45" rx="1.1" ry="1.1" style="fill: #c7c3b8" width="7.45" x="21.27" y="21.99"/>
      <path d="M25.34,24.4a1.7,1.7,0,0,0-.72.17l-.8-.8-.84.84.81.81a1.68,1.68,0,1,0,1.55-1Z" style="fill: #fff" transform="translate(0 -0.06)"/>
    </g>
  </g>
  <g id="Connectors">
    <ellipse cx="39.64" cy="44.06" data-cir-type="male" id="circuitoCon_SDA" rx="2.05" ry="1.99" style="fill: none;stroke: #e8e5df;stroke-miterlimit: 10;stroke-width: 1.224px"/>
    <ellipse cx="32.45" cy="44.06" data-cir-type="male" id="circuitoCon_SCL" rx="2.05" ry="1.99" style="fill: none;stroke: #e8e5df;stroke-miterlimit: 10;stroke-width: 1.224px"/>
    <ellipse cx="25.25" cy="44.06" data-cir-type="male" id="circuitoCon_GND" rx="2.05" ry="1.99" style="fill: none;stroke: #e8e5df;stroke-miterlimit: 10;stroke-width: 1.224px"/>
    <ellipse cx="10.87" cy="44.06" data-cir-type="male" id="circuitoCon_VIN" rx="2.05" ry="1.99" style="fill: none;stroke: #e8e5df;stroke-miterlimit: 10;stroke-width: 1.224px"/>
    <ellipse cx="18.06" cy="44.06" id="circuitoCon_1v8" rx="2.05" ry="1.99" style="fill: none;stroke: #e8e5df;stroke-miterlimit: 10;stroke-width: 1.224px"/>
  </g>
</svg>