<?xml version="1.0" ?><svg height="25.41mm" viewBox="0 0 39.35 72.04" width="13.88mm" xmlns="http://www.w3.org/2000/svg" xmlns:xlink="http://www.w3.org/1999/xlink">
  <defs>
    <linearGradient gradientUnits="userSpaceOnUse" id="Gold" x1="11.88" x2="28.31" y1="7" y2="7">
      <stop offset="0.01" stop-color="#fbc926"/>
      <stop offset="0.25" stop-color="#fffbcc"/>
      <stop offset="0.3" stop-color="#f8f0bb"/>
      <stop offset="0.41" stop-color="#e7d28e"/>
      <stop offset="0.55" stop-color="#cca246"/>
      <stop offset="0.6" stop-color="#c3922e"/>
      <stop offset="0.87" stop-color="#eed688"/>
      <stop offset="1" stop-color="#fffbcc"/>
    </linearGradient>
    <linearGradient data-name="Gold" id="Gold-2" x1="13.75" x2="26" xlink:href="#Gold" y1="15.81" y2="15.81"/>
    <linearGradient data-name="Gold" id="Gold-3" x1="12.57" x2="27.82" xlink:href="#Gold" y1="22.41" y2="22.41"/>
    <linearGradient data-name="Gold" id="Gold-4" x1="12.69" x2="27.7" xlink:href="#Gold" y1="13.25" y2="13.25"/>
    <linearGradient data-name="Gold" id="Gold-5" x1="13.13" x2="27.25" xlink:href="#Gold" y1="18.44" y2="18.44"/>
  </defs>
  <title>650nm Red Laser Diode Module (with Breakout)</title>
  <g data-name="Layer 5" id="Layer_5">
    <path d="M37.64,9.27H1.89A1.71,1.71,0,0,0,.18,11V58.06a1.71,1.71,0,0,0,1.71,1.71H37.64a1.71,1.71,0,0,0,1.71-1.71V11A1.71,1.71,0,0,0,37.64,9.27ZM1.39,22.81a3.25,3.25,0,1,1,3.25,3.25A3.25,3.25,0,0,1,1.39,22.81ZM6.1,31.1a3.25,3.25,0,1,1,3.25,3.25A3.25,3.25,0,0,1,6.1,31.1ZM9.63,48.18a1.47,1.47,0,1,1,1.47-1.47A1.47,1.47,0,0,1,9.63,48.18Zm4.25-4.95a3.36,3.36,0,1,1,3.36-3.36A3.36,3.36,0,0,1,13.88,43.23Zm12.28,0a3.36,3.36,0,1,1,3.36-3.36A3.36,3.36,0,0,1,26.16,43.23ZM30,48.18a1.47,1.47,0,1,1,1.47-1.47A1.47,1.47,0,0,1,30,48.18Zm.25-13.82a3.25,3.25,0,1,1,3.25-3.25A3.25,3.25,0,0,1,30.3,34.35Zm4.84-8.29a3.25,3.25,0,1,1,3.25-3.25A3.25,3.25,0,0,1,35.14,26.06Z" style="fill: #0f1116"/>
  </g>
  <g data-name="Layer 4" id="Layer_4">
    <line style="fill: none;stroke: #a8a894;stroke-miterlimit: 10" x1="17.32" x2="16.43" y1="35.38" y2="39.88"/>
    <line style="fill: none;stroke: #a8a894;stroke-miterlimit: 10" x1="20.7" x2="24.29" y1="35.92" y2="38.78"/>
    <circle cx="30.13" cy="46.69" r="2.13" style="fill: none;stroke: #000;stroke-miterlimit: 10;stroke-width: 1.3px"/>
    <circle cx="9.72" cy="46.82" r="2.13" style="fill: none;stroke: #000;stroke-miterlimit: 10;stroke-width: 1.3px"/>
    <circle cx="25.01" cy="31.1" r="2.13" style="fill: #fff;stroke: #000;stroke-miterlimit: 10;stroke-width: 1.3px"/>
    <circle cx="30.13" cy="12.23" r="2.13" style="fill: #fff;stroke: #000;stroke-miterlimit: 10;stroke-width: 1.3px"/>
    <circle cx="9.72" cy="12.23" r="2.13" style="fill: #fff;stroke: #000;stroke-miterlimit: 10;stroke-width: 1.3px"/>
    <circle cx="15.19" cy="30.89" r="2.13" style="fill: #fff;stroke: #000;stroke-miterlimit: 10;stroke-width: 1.3px"/>
    <rect height="10.38" style="fill: #cfcfc4" width="9.24" x="14.87" y="26.5"/>
    <rect height="3.81" style="fill: #b58935" width="9.24" x="14.87" y="26.5"/>
    <rect height="4.54" style="fill: #ededeb" width="3.36" x="13.56" y="44.56"/>
    <rect height="3.38" style="fill: #d3d0b9" width="2.04" x="14.87" y="45.02"/>
    <rect height="4.54" style="fill: #ededeb" transform="translate(42.45 93.42) rotate(-180)" width="3.36" x="19.55" y="44.44"/>
    <rect height="3.38" style="fill: #d3d0b9" transform="translate(41.14 93.67) rotate(-180)" width="2.04" x="19.55" y="45.15"/>
    <rect height="3.38" width="4.68" x="15.89" y="45.02"/>
    <rect height="17" style="fill: #472b24" width="2.25" x="17.61" y="19.84"/>
    <rect height="17" style="fill: #c2b276" width="1.94" x="19.86" y="19.84"/>
    <line style="fill: none;stroke: #d3b634;stroke-miterlimit: 10;stroke-width: 0.5px" x1="19.87" x2="19.87" y1="21.31" y2="36.88"/>
    <path d="M13.88,36.52a3.36,3.36,0,1,0,3.36,3.36A3.36,3.36,0,0,0,13.88,36.52Zm0,5a1.63,1.63,0,1,1,1.67-1.62A1.65,1.65,0,0,1,13.88,41.5Z" style="fill: #634d39"/>
    <path d="M26.16,36.52a3.36,3.36,0,1,0,3.36,3.36A3.36,3.36,0,0,0,26.16,36.52Zm0,5a1.63,1.63,0,1,1,1.67-1.62A1.65,1.65,0,0,1,26.16,41.5Z" style="fill: #634d39"/>
  </g>
  <g data-name="Layer 3" id="Layer_3">
    <rect height="14" rx="1.24" ry="1.24" style="fill: url(#Gold)" width="16.44" x="11.88"/>
    <rect height="4.38" style="fill: url(#Gold-2)" width="12.25" x="13.75" y="13.63"/>
    <rect height="8.81" rx="0.57" ry="0.57" style="fill: url(#Gold-3)" width="15.25" x="12.57" y="18"/>
    <path d="M12.69,13.37c2.15-.14,4.42-.23,6.79-.24,2.9,0,5.64.07,8.22.24" style="stroke: #c7bc79;stroke-linecap: round;stroke-miterlimit: 10;fill: url(#Gold-4)"/>
    <path d="M13.13,18.55c2-.13,4.16-.21,6.39-.23,2.73,0,5.31.07,7.73.23" style="stroke: #c7bc79;stroke-linecap: round;stroke-miterlimit: 10;fill: url(#Gold-5)"/>
  </g>
  <g data-name="Layer 6" id="Layer_6">
    <rect height="8.29" style="fill: none;stroke: #fff;stroke-miterlimit: 10;stroke-width: 0.5px" width="22.67" x="9.02" y="50.4"/>
    <line style="fill: none;stroke: #fff;stroke-miterlimit: 10;stroke-width: 0.5px" x1="13.07" x2="13.07" y1="47.16" y2="49.88"/>
    <polyline points="13.07 45.93 13.07 44.13 23.37 44.13 23.37 50.6" style="fill: none;stroke: #fff;stroke-miterlimit: 10;stroke-width: 0.5px"/>
    <polyline points="17.52 39.58 17.85 39.58 18.35 40.19 22.12 40.19 22.33 39.69 22.62 39.58" style="fill: none;stroke: #fff;stroke-linecap: round;stroke-miterlimit: 10;stroke-width: 0.5px"/>
    <polyline points="11.84 36.52 11.84 34.35 12.57 34.69 12.57 33.23" style="fill: none;stroke: #fff;stroke-linecap: round;stroke-miterlimit: 10;stroke-width: 0.5px"/>
    <line style="fill: none;stroke: #fff;stroke-linecap: round;stroke-miterlimit: 10;stroke-width: 0.5px" x1="11.84" x2="11.84" y1="28.34" y2="26.5"/>
    <polyline points="11.84 27.69 12.57 27.85 12.68 28.76" style="fill: none;stroke: #fff;stroke-linecap: round;stroke-miterlimit: 10;stroke-width: 0.5px"/>
    <polyline points="27.48 33.52 27.48 34.35 28.35 34.87 28.35 36.52" style="fill: none;stroke: #fff;stroke-linecap: round;stroke-miterlimit: 10;stroke-width: 0.5px"/>
    <path d="M28.35,34v1.4" style="fill: none;stroke: #fff;stroke-linecap: round;stroke-miterlimit: 10;stroke-width: 0.5px"/>
    <polyline points="27.48 28.34 28.35 27.85 28.35 25.77" style="fill: none;stroke: #fff;stroke-linecap: round;stroke-miterlimit: 10;stroke-width: 0.5px"/>
    <line style="fill: none;stroke: #fff;stroke-linecap: round;stroke-miterlimit: 10;stroke-width: 0.5px" x1="35.52" x2="38.39" y1="53.5" y2="53.5"/>
    <path d="M5.05,54.31a.78.78,0,0,1,.21.5.68.68,0,0,1-.76.68H3.19a.89.89,0,0,1-.61-.19.76.76,0,0,1-.28-.56.32.32,0,0,1,.32-.36.29.29,0,0,1,.28.31c0,.18.1.2.26.2h1.3s.2,0,.2-.07-.08-.14-.11-.17L2.5,52a.72.72,0,0,1-.2-.49.67.67,0,0,1,.32-.58.81.81,0,0,1,.5-.11H4.39A.85.85,0,0,1,5,51a.82.82,0,0,1,.28.57.31.31,0,0,1-.31.35.27.27,0,0,1-.29-.28c0-.2-.1-.23-.29-.23H3.1c-.07,0-.2,0-.2.08s.07.13.09.16Z" style="fill: #fff"/>
    <g>
      <path d="M24.39,48.69a.2.2,0,1,1-.4,0V45.78h1.34a.6.6,0,0,1,.63.58v.28a.58.58,0,0,1-.63.57H25l.9,1.29a.4.4,0,0,1,.1.21.19.19,0,0,1-.2.19.21.21,0,0,1-.18-.11l-1.1-1.58h-.09Zm0-1.89h.89c.11,0,.29,0,.29-.17v-.28c0-.16-.16-.18-.28-.18h-.89Z" style="fill: #fff"/>
      <path d="M27.4,48.49v-.81a.2.2,0,1,1,.4,0v1a.18.18,0,0,1-.2.2H26a.2.2,0,0,1,0-.4h.59V46.17H26a.2.2,0,0,1,0-.4h1v2.71Z" style="fill: #fff"/>
    </g>
    <g>
      <path d="M.66,45.28a.3.3,0,1,1,0-.6H2L.48,42.85a.4.4,0,0,1-.12-.25.29.29,0,0,1,.31-.29.36.36,0,0,1,.25.14l1.76,2.07,1.76-2.06a.35.35,0,0,1,.26-.15.29.29,0,0,1,.31.29c0,.13-.11.23-.18.32L3.34,44.68H4.72a.3.3,0,1,1,0,.6Z" style="fill: #fff"/>
      <path d="M5,40.31a.61.61,0,0,1-.16.52l-.22.25a.72.72,0,0,1-.65.29H2.89a.76.76,0,0,1-.69-.28L2,40.88a.77.77,0,0,1-.24-.64v-.53A.82.82,0,0,1,2,39.08l.19-.23a.82.82,0,0,1,.75-.3H3.4c.33,0,.43.05.43.4v1.85H4a.28.28,0,0,0,.17-.08l.16-.14a.48.48,0,0,0,.11-.38V38.95c0-.19,0-.4.29-.4s.29.23.29.4Zm-1.77.48V39.13H2.9c-.11,0-.2,0-.27.07l-.19.22a.41.41,0,0,0-.07.28v.49a.46.46,0,0,0,.07.29l.14.2a.26.26,0,0,0,.26.12Z" style="fill: #fff"/>
      <path d="M2.52,35.29H2.19c-.2,0-.4,0-.4-.29s.2-.29.4-.29h.23a.76.76,0,0,1,.37.07l3.16,1.45c.27.13.3.19.3.46v.44c0,.17,0,.4-.29.4s-.29-.2-.29-.4v-.4l-.88-.43v0c0,.24-.11.25-.31.34l-1.57.71a1.12,1.12,0,0,1-.47.14H2.19c-.2,0-.4,0-.4-.29S2,37,2.19,37h.33l1.7-.77v-.13Z" style="fill: #fff"/>
      <path d="M5,32.81a.61.61,0,0,1-.16.52l-.22.25a.72.72,0,0,1-.65.29H2.89a.76.76,0,0,1-.69-.28L2,33.38a.77.77,0,0,1-.24-.64v-.53A.82.82,0,0,1,2,31.58l.19-.23a.82.82,0,0,1,.75-.3H3.4c.33,0,.43.05.43.4v1.85H4a.28.28,0,0,0,.17-.08l.16-.14a.48.48,0,0,0,.11-.38V31.45c0-.19,0-.4.29-.4s.29.23.29.4Zm-1.77.48V31.63H2.9c-.11,0-.2,0-.27.07l-.19.22a.41.41,0,0,0-.07.28v.49a.46.46,0,0,0,.07.29l.14.2a.26.26,0,0,0,.26.12Z" style="fill: #fff"/>
      <path d="M2.37,29.16c0,.12,0,.32.16.32s.13-.07.17-.16l.65-1.44a.82.82,0,0,1,.82-.56c.58,0,.86.4.86.95v.89a1,1,0,0,1-.18.72c-.08.11-.19.26-.34.26a.29.29,0,0,1-.29-.3.28.28,0,0,1,.1-.22.61.61,0,0,0,.13-.46v-.78c0-.2,0-.48-.32-.48-.14,0-.23.17-.29.3l-.62,1.36a.71.71,0,0,1-.7.5.73.73,0,0,1-.73-.79v-1a.83.83,0,0,1,.2-.67c.09-.11.16-.23.32-.23a.29.29,0,0,1,.29.29.31.31,0,0,1-.12.25.42.42,0,0,0-.11.35Z" style="fill: #fff"/>
    </g>
    <g>
      <path d="M17.16,47.54v-.4a.1.1,0,0,1,.2,0v.5a.09.09,0,0,1-.1.1h-.79a.1.1,0,0,1,0-.2h.29V46.38h-.29a.1.1,0,1,1,0-.2H17v1.35Z" style="fill: #fff"/>
      <path d="M18.16,46.18a.2.2,0,0,1,.2.2v1.16a.2.2,0,0,1-.2.2h-.59a.2.2,0,0,1-.2-.2V46.38a.2.2,0,0,1,.2-.2Zm0,1.35V46.38h-.59v1.16Z" style="fill: #fff"/>
      <path d="M18.51,46.38a.1.1,0,0,1,0-.2h.69a.2.2,0,0,1,.2.2v.38a.23.23,0,0,1-.08.19.23.23,0,0,1,.08.19v.38a.2.2,0,0,1-.2.2h-.69a.1.1,0,0,1,0-.2h.69v-.33c0-.11,0-.15-.1-.15H18.7a.1.1,0,0,1,0-.2h.39c.06,0,.1,0,.1-.15v-.33Z" style="fill: #fff"/>
    </g>
  </g>
  <g id="Connectors">
    <polygon points="22.69 51.06 24.11 52.59 24.11 56.83 22.69 58.26 18.46 58.26 16.91 56.83 16.91 52.59 18.46 51.06 22.69 51.06" style="fill: #323232"/>
    <rect height="17.37" style="fill: #b0acb0" width="2.27" x="19.5" y="54.66"/>
    <polygon points="29.89 51.06 31.32 52.59 31.32 56.83 29.89 58.26 25.66 58.26 24.11 56.83 24.11 52.59 25.66 51.06 29.89 51.06" style="fill: #323232"/>
    <rect height="17.37" style="fill: #b0acb0" width="2.27" x="26.7" y="54.66"/>
    <polygon points="15.49 51.06 16.91 52.59 16.91 56.83 15.49 58.26 11.26 58.26 9.71 56.83 9.71 52.59 11.26 51.06 15.49 51.06" style="fill: #323232"/>
    <rect height="17.37" style="fill: #b0acb0" width="2.27" x="12.3" y="54.66"/>
  </g>
  <g id="Connectors">
    <rect height="1.13" style="fill: none" transform="translate(41.26 142.92) rotate(180)" width="1.13" x="20.06" y="70.89"/>
    <rect data-cir-type="male" height="1.13" id="circuitoCon_GND" style="fill: none" transform="translate(55.66 142.92) rotate(180)" width="1.13" x="27.26" y="70.89"/>
    <rect data-cir-type="male" height="1.13" id="circuitoCon_S" style="fill: none" transform="translate(26.86 142.91) rotate(180)" width="1.13" x="12.86" y="70.89"/>
  </g>
</svg>