<?xml version="1.0" ?><svg height="19.05mm" viewBox="0 0 92.72 54" width="32.71mm" xmlns="http://www.w3.org/2000/svg">
  <title>Adafruit 12-Key Capacitive Touch Sensor Breakout - MPR121</title>
  <g data-name="Layer 13" id="Layer_13">
    <path d="M88.57,0H4.16A4.16,4.16,0,0,0,0,4.16V49.84A4.16,4.16,0,0,0,4.16,54H88.57a4.16,4.16,0,0,0,4.16-4.16V4.16A4.16,4.16,0,0,0,88.57,0ZM53.08,1.82a1.89,1.89,0,0,1,0,3.78A1.89,1.89,0,0,1,53.08,1.82ZM2.71,1.7a1.89,1.89,0,0,1,0,3.78A1.89,1.89,0,0,1,2.71,1.7ZM6.46,51.45c-5.74,0-5.73-8.9,0-8.9S12.19,51.45,6.46,51.45Zm3.5-46a1.89,1.89,0,0,1,0-3.78A1.89,1.89,0,0,1,10,5.43Zm7,.08a1.89,1.89,0,0,1,0-3.78A1.89,1.89,0,0,1,17,5.51ZM24.08,48.8a1.89,1.89,0,0,1,0-3.78A1.89,1.89,0,0,1,24.08,48.8Zm.33-43.33a1.89,1.89,0,0,1,0-3.78A1.89,1.89,0,0,1,24.42,5.47ZM31.5,48.85a1.89,1.89,0,0,1,0-3.78A1.89,1.89,0,0,1,31.5,48.85Zm0-43.46a1.89,1.89,0,0,1,0-3.78A1.89,1.89,0,0,1,31.54,5.39Zm7.08-3.82a1.89,1.89,0,0,1,0,3.78A1.89,1.89,0,0,1,38.63,1.57Zm.21,47a1.89,1.89,0,0,1,0-3.78A1.89,1.89,0,0,1,38.83,48.6Zm7.08.17a1.89,1.89,0,0,1,0-3.78A1.89,1.89,0,0,1,45.92,48.76ZM46,5.51a1.89,1.89,0,0,1,0-3.78A1.89,1.89,0,0,1,46,5.51Zm8.24,42.86a1.8,1.8,0,0,1-1.11.35,1.94,1.94,0,0,1-.56-3.79l.08,0a2,2,0,0,1,.56-.08h.13C55.41,44.82,55.7,47.56,54.24,48.37ZM60.29,1.65a1.89,1.89,0,0,1,0,3.78A1.89,1.89,0,0,1,60.29,1.65Zm.25,47.07a1.89,1.89,0,0,1,0-3.78A1.89,1.89,0,0,1,60.54,48.72Zm7-47.28a1.89,1.89,0,0,1,0,3.78A1.89,1.89,0,0,1,67.58,1.45Zm0,47.19a1.89,1.89,0,0,1,0-3.78A1.89,1.89,0,0,1,67.63,48.64ZM74.92,5.47a1.89,1.89,0,0,1,0-3.78A1.89,1.89,0,0,1,74.92,5.47Zm7-3.86a1.89,1.89,0,0,1,0,3.78A1.89,1.89,0,0,1,81.92,1.61Zm4.21,50c-5.74,0-5.73-8.9,0-8.9S91.85,51.62,86.13,51.62ZM89,5.51a1.89,1.89,0,0,1,0-3.78A1.89,1.89,0,0,1,89,5.51Z" style="fill: #204898"/>
    <path d="M20.92,18.5q1.19-.12,1,.55c0,.6.47.65.84.34.44-.5-.39-.93.7-.91h.44v-.76h-.77c-.33,0-.42-.16-.38-.44V15.92c.57-.55.92-1.1.66-1.69l-.52-.56c-.26-.29-.57-.34-1,0s-.59.58-.56.84l0,.78.27.28c.2.07.25.34.23.72v1c0,.56-.39.63-.89.48Z" style="fill: #10499d"/>
    <circle cx="22.39" cy="14.83" r="0.8" style="fill: #303e59"/>
    <polyline points="4.97 5.5 5.88 6.43 8.03 6.43 9.44 7.84 14.44 7.84 15.94 9.34 20.88 9.34 22.32 10.79 27.28 10.79 28.65 12.16 33.72 12.16 35.87 14.31 35.87 20.71 37.92 22.76 41.34 22.76" style="fill: none;stroke: #589bcb;stroke-miterlimit: 10;stroke-width: 0.5px"/>
    <polyline points="9.93 5.67 10.88 6.58 15.23 6.58 16.53 7.89 21.46 7.89 22.89 9.32 28 9.32 29.4 10.72 34.58 10.72 37.37 13.51 37.37 20.08 38.67 21.39 41.58 21.39" style="fill: none;stroke: #589bcb;stroke-miterlimit: 10;stroke-width: 0.5px"/>
    <polyline points="17.33 5.67 18.02 6.35 22.43 6.35 23.91 7.84 28.79 7.84 30.18 9.23 35.29 9.23 36.72 10.65 38.21 10.65 38.91 11.36 38.91 19.33 39.95 20.38 42.08 20.38" style="fill: none;stroke: #589bcb;stroke-miterlimit: 10;stroke-width: 0.5px"/>
    <polyline points="24.5 5.67 25.21 6.42 29.63 6.42 31 7.79 36 7.79 37.52 9.31 39.75 9.31 40.38 10.08 40.38 18.63 41.58 19.54" style="fill: none;stroke: #589bcb;stroke-miterlimit: 10;stroke-width: 0.5px"/>
    <polyline points="31.83 5.67 32.42 6.42 36.83 6.42 38.38 7.88 43.21 7.88 43.69 8.35 43.69 17.13" style="fill: none;stroke: #589bcb;stroke-miterlimit: 10;stroke-width: 0.5px"/>
    <polyline points="38.96 5.67 39.58 6.38 44.03 6.38 45 7.42 45 17.79" style="fill: none;stroke: #589bcb;stroke-miterlimit: 10;stroke-width: 0.5px"/>
    <g>
      <polyline points="82.18 5.52 81.23 6.44 76.88 6.44 75.57 7.74 70.65 7.74 69.21 9.17 64.1 9.17 62.7 10.58 57.52 10.58 54.74 13.36 54.74 19.94 53.43 21.24 50.52 21.24" style="fill: none;stroke: #589bcb;stroke-miterlimit: 10;stroke-width: 0.5px"/>
      <polyline points="74.77 5.52 74.08 6.21 69.68 6.21 68.19 7.69 63.31 7.69 61.92 9.09 56.81 9.09 55.39 10.51 53.9 10.51 53.19 11.21 53.19 19.19 52.15 20.23 50.02 20.23" style="fill: none;stroke: #589bcb;stroke-miterlimit: 10;stroke-width: 0.5px"/>
      <polyline points="67.6 5.52 66.9 6.27 62.48 6.27 61.1 7.64 56.1 7.64 54.58 9.17 52.35 9.17 51.73 9.94 51.73 18.48 50.52 19.4" style="fill: none;stroke: #589bcb;stroke-miterlimit: 10;stroke-width: 0.5px"/>
      <polyline points="60.27 5.52 59.69 6.27 55.28 6.27 53.73 7.73 48.9 7.73 48.42 8.21 48.42 16.98" style="fill: none;stroke: #589bcb;stroke-miterlimit: 10;stroke-width: 0.5px"/>
      <polyline points="53.15 5.52 52.52 6.23 48.08 6.23 47.1 7.27 47.1 17.65" style="fill: none;stroke: #589bcb;stroke-miterlimit: 10;stroke-width: 0.5px"/>
    </g>
    <line style="fill: none;stroke: #589bcb;stroke-miterlimit: 10;stroke-width: 0.5px" x1="46.08" x2="46.08" y1="5.67" y2="17.31"/>
    <line style="fill: none;stroke: #589bcb;stroke-miterlimit: 10;stroke-width: 0.5px" x1="56.38" x2="48.75" y1="22.5" y2="22.5"/>
    <path d="M91.48,5.81l-1.37.71c-.46.28-.55-.16-.54-.79l-.65-.21V6c-.07.58-.39.78-1,.54a3.1,3.1,0,0,1-1.81-2c-.19-.71,0-.81.4-.69l0-.75c-.44,0-.64-.09-.42-.46l.73-1.37c.49-.51.56-.84,0-.92h-2.4c-.47,0-.61.22-.4.52l.6.5A3.68,3.68,0,0,1,84.83,5c-.17.52-2.65,1.23-3.15,2.2H77.47L76,8.71H71.32l-1.38,1.38H64.41l-1.55,1.55H58.1l-2.27,2.27v3.94H60l.57.45.53-.53,1,0c.5,0,.59.18.52.48h.94c0-.36.17-.53.48-.42h.65c.67-.09,1,.15,1.1.69l0,1.15c0,.36-.14.6-.4.5h-.62V21c.82,0,1.19.22.94.75l0,1.33-.52.42h-.69l-.23.27.4.73v1.6h-.85l-.08,1.19h.49c.41,0,.54.2.55.55V29l2,0,.52.57v3.72h2.31v-3.9l.47-.41,1.64,0c.74-.05,1,.19.94.63v.66c0,.45,0,.72.33.59.21-.39.45-.63.75-.61h1.19c.44-.18.52.13.5.58h1c-.11-.42.09-.57.41-.6H78c.66,0,.91.31.88.88v1.27h-1v1.06h1V35l-.55.55.52.52v4.23l-.59.59h-4.6l-.54-.54h-.42v.53l-.53.53H68.63V40.8h-.45v.58h-1v2.14h1.9l1.79,1.79v2.87l-1.76,1.76H66.27L64.36,48V40.88l-.17,0V36.75l-.63.06-.88.88V40l-.47.4H61.4l-.24.19,0,2.93.26.06a3.38,3.38,0,0,1,2.47,3.8A3.46,3.46,0,0,1,58,49a3.42,3.42,0,0,1,.42-4.8V40.59H57.4l-.47-.47V38.28h-.48l-1.55,1.55H49.67l-.21.26v5.09h-.2v.51l.22.55A2.68,2.68,0,0,1,49,48.6l0,0a3.38,3.38,0,0,1-6.1-1.44,3.46,3.46,0,0,1,1.56-3.33v-.26H40.58v.25a3.88,3.88,0,0,1,1.76,3.31c-.28,2.07-2.67,3.73-5.68,2.27L34.37,52l-11.74-.09L19.77,49V42.33l.52-.55v-.22H17.7L17.24,41a.32.32,0,0,0-.44,0l-.52.52H12.09L11.56,41V36.15h.21v-.49h-.2v-4a2.45,2.45,0,0,1-2.22-.71,2,2,0,0,1,1.92-3.27l0-3.26c-1.54-1.2-1.91-2.48,0-3.91V16.2c0-.72.29-1,.75-1l4.12.09.27.28c.15.18.29.19.44,0l.4-.44H20.3a2.62,2.62,0,0,1,1.54-2.34H23a2.82,2.82,0,0,1,1.38,2.38l3.2,0,.2.27c.21.29.43.24.64,0l.3-.3H33l.45.45v.27l0,4a1.08,1.08,0,0,1-.47,1.07v2.41c.66-.15,1.18-.05,1.27.75v2.68a2.14,2.14,0,0,1,2,2.26c-.27,1.48-1.32,1.85-2.79,1.64v3c0,.77.17.72.56.16l2.69-2.72h.72l0-3.81a3.44,3.44,0,0,1,.84-.62l-.69-1a2.22,2.22,0,0,1,.38-1.59l-.73-.21-2.47-2.47V14.73l-1.32-1.32H28.35L27,12.06H21.94l-1.56-1.5H15.56L14,9.19H8.94L7.56,7.88H5.38l-.75-.81H.83l-.25,0,.13,3.56c-.13.69,0,.81.4.31a3.43,3.43,0,0,1,3.69-.54A4,4,0,0,1,7,14.48c-1.16,3.05-3.11,3.3-5.4,2.35-.9-.79-1.3-.72-1,.56V30.92L.54,43.44c-.2,1,0,1.25.6.23a6.06,6.06,0,0,1,4.29-3.08c4.57-.06,6.57,2.06,7.4,5.19a6.27,6.27,0,0,1-2.77,6.54c-1.22.71-1.48,1.08.19.81h72c1.47,0,1.36-.26.27-.77C80,50.45,78.73,48.13,79.56,45c.69-2.92,2.67-4.42,5.63-4.83.72.06,1.05,0,.79-.42-1.82-2.55-1-4,.21-5.28A3.65,3.65,0,0,1,90.28,34a5.43,5.43,0,0,1,1.32,1V15.73ZM52.83,48.68a1.89,1.89,0,0,1,0-3.78A1.89,1.89,0,0,1,52.83,48.68Z" style="fill: #1857ae"/>
    <path d="M37.91,34.94v.84q-.6,0-.59.84v.48c.07.56.24.94.69.85h1.38c.45.18.57-.09.56-.55h.76c.09.56.29.81.64.61l1.21.07A1,1,0,0,0,43.35,37v-.83c0-.29-.23-.37-.62-.33v-.92c.36.12.61.05.63-.35v-.92h.5v3.5c.11.2,0,.39-.33.56L41.65,39.6H37c-.5-.8-1.43-1.07-3-.62V37.79l1.06-1,.08-.79,1.9-1.94h.27v.81Z" style="fill: #0e4691"/>
    <circle cx="35.94" cy="37.54" r="0.44" style="fill: #000a37"/>
    <path d="M49.56,24.81l1.46.13a1.33,1.33,0,0,0,1-1v-.23h2.29c.5,0,.16.44-.23,1,.25.22.26.63,0,1.27v3.46l.5.54v6.56c.21.25,0,.66-.63,1.19-.54.12-.67-.37-.52-1.25a.71.71,0,0,0-.92-.17L52.4,35.1H53c.33.07.49-.07.42-.52l0-.69-.5-1.06.38-.4V28.27l-.46-.46H50.92l-1.35-1.65Z" style="fill: #164c9f"/>
    <circle cx="52.86" cy="25.57" r="0.49" style="fill: #110513" transform="translate(-3.35 42.55) rotate(-42.62)"/>
    <polygon points="63.94 33.67 61.3 36.3 61.3 37.84 64.09 35.06 63.94 33.67" style="fill: #164c9f"/>
    <path d="M59.33,29.46V31h1.85l.11-.62.74-.74v-.4H61.3l-.61.58A1.24,1.24,0,0,1,59.33,29.46Z" style="fill: #1c5b92"/>
    <path d="M62.7,29.85H64v3l-.81.56c-.28.26-.46.26-.47-.17.13-.17-.3-.28-.95-.37v-1h.73c.18,0,.22-.23.22-.65Z" style="fill: #1757a8"/>
    <polyline points="29.13 39.78 27.29 41.88 21.96 41.88 20.93 42.91 20.93 48.75 23.16 50.99 33.71 50.99 35.31 49.38 35.31 43.65 36.62 42.33 43.69 42.33 45.9 40.1 45.9 26.8" style="fill: none;stroke: #1a4181;stroke-miterlimit: 10;stroke-width: 0.5px"/>
    <polyline points="47.29 26.92 47.29 37.95 48.26 38.92 48.26 44.33 47.24 45.35" style="fill: none;stroke: #1a4181;stroke-miterlimit: 10;stroke-width: 0.5px"/>
    <line style="fill: none;stroke: #589bcb;stroke-miterlimit: 10;stroke-width: 0.5px" x1="48.58" x2="50.65" y1="26.8" y2="28.87"/>
    <polyline points="48.26 38.95 54.31 38.95 55.8 37.46 55.8 28.66" style="fill: none;stroke: #1a4181;stroke-miterlimit: 10;stroke-width: 0.5px"/>
    <polyline points="45 26.8 45 37.74 42.17 40.51 36.38 40.51" style="fill: none;stroke: #1a4181;stroke-miterlimit: 10;stroke-width: 0.5px"/>
    <circle cx="35.21" cy="40.73" r="0.96" style="fill: none;stroke: #1a4181;stroke-miterlimit: 10;stroke-width: 0.5px"/>
    <circle cx="35.21" cy="40.73" r="0.45" style="fill: #282a62"/>
    <circle cx="22.72" cy="25.37" r="0.96" style="fill: none;stroke: #1a4181;stroke-miterlimit: 10;stroke-width: 0.5px"/>
    <circle cx="22.72" cy="25.37" r="0.45" style="fill: #282a62"/>
    <circle cx="34.19" cy="28.96" r="0.96" style="fill: none;stroke: #1a4181;stroke-miterlimit: 10;stroke-width: 0.5px"/>
    <circle cx="34.19" cy="28.96" r="0.45" style="fill: #282a62"/>
    <circle cx="39.56" cy="25.21" r="0.96" style="fill: none;stroke: #1a4181;stroke-miterlimit: 10;stroke-width: 0.5px"/>
    <circle cx="39.56" cy="25.21" r="0.45" style="fill: #282a62"/>
    <circle cx="11.9" cy="22.5" r="0.96" style="fill: none;stroke: #1a4181;stroke-miterlimit: 10;stroke-width: 0.5px"/>
    <circle cx="11.88" cy="22.5" r="0.45" style="fill: #282a62"/>
    <circle cx="10.88" cy="29.75" r="0.96" style="fill: none;stroke: #1a4181;stroke-miterlimit: 10;stroke-width: 0.5px"/>
    <circle cx="10.88" cy="29.75" r="0.45" style="fill: #282a62"/>
    <polyline points="23.77 44.92 25.21 43.13 28.92 43.13 32.42 39.38" style="fill: none;stroke: #1a4181;stroke-miterlimit: 10;stroke-width: 0.5px"/>
    <line style="fill: none;stroke: #1a4181;stroke-miterlimit: 10;stroke-width: 0.5px" x1="20.93" x2="24.5" y1="38.54" y2="38.54"/>
    <line style="fill: none;stroke: #1a4181;stroke-miterlimit: 10;stroke-width: 0.5px" x1="15.54" x2="18.42" y1="37.1" y2="34.25"/>
    <line style="fill: none;stroke: #1a4181;stroke-miterlimit: 10;stroke-width: 0.5px" x1="28.09" x2="30.63" y1="37.1" y2="34.5"/>
    <line style="fill: none;stroke: #1a4181;stroke-miterlimit: 10;stroke-width: 0.5px" x1="20.93" x2="24.5" y1="33.08" y2="33.08"/>
    <line style="fill: none;stroke: #1a4181;stroke-miterlimit: 10;stroke-width: 0.5px" x1="19.58" x2="19.58" y1="31.21" y2="29.19"/>
    <line style="fill: none;stroke: #1a4181;stroke-miterlimit: 10;stroke-width: 0.5px" x1="20.63" x2="22" y1="27.38" y2="26.04"/>
    <line style="fill: none;stroke: #1a4181;stroke-miterlimit: 10;stroke-width: 0.5px" x1="11.83" x2="14.96" y1="29.86" y2="29.86"/>
    <polyline points="13.73 19.54 13.73 22.76 13.73 24.6" style="fill: none;stroke: #1a4181;stroke-miterlimit: 10;stroke-width: 0.5px"/>
    <line style="fill: none;stroke: #1a4181;stroke-miterlimit: 10;stroke-width: 0.5px" x1="12.86" x2="13.73" y1="22.76" y2="22.76"/>
    <line style="fill: none;stroke: #1a4181;stroke-miterlimit: 10;stroke-width: 0.5px" x1="31.6" x2="31.6" y1="19.65" y2="24.41"/>
    <line style="fill: none;stroke: #1a4181;stroke-miterlimit: 10;stroke-width: 0.5px" x1="32.31" x2="33.59" y1="26.92" y2="28.2"/>
    <polyline points="32.85 37.29 33.72 36.42 33.72 35.54 36.96 32.31 38.97 32.31" style="fill: none;stroke: #1a4181;stroke-miterlimit: 10;stroke-width: 0.5px"/>
    <polyline points="43.81 26.8 43.81 31.54 43.13 32.24 41.6 32.24" style="fill: none;stroke: #1a4181;stroke-miterlimit: 10;stroke-width: 0.5px"/>
    <line style="fill: none;stroke: #1a4181;stroke-miterlimit: 10" x1="65.78" x2="65.78" y1="40.09" y2="45.78"/>
    <line style="fill: none;stroke: #1a4181;stroke-miterlimit: 10" x1="59.72" x2="59.72" y1="39.14" y2="44.83"/>
    <circle cx="22.39" cy="14.83" r="0.45" style="fill: #1c1607"/>
    <line style="fill: none;stroke: #e7e6e8;stroke-linecap: round;stroke-linejoin: round;stroke-width: 0.5px" x1="18.66" x2="18.66" y1="25.17" y2="26.34"/>
    <polyline points="14.6 27.9 14.6 30.41 18.66 30.41" style="fill: none;stroke: #e7e6e8;stroke-linecap: round;stroke-linejoin: round;stroke-width: 0.5px"/>
    <g>
      <path d="M6.48,42a5,5,0,1,0,5,5A5,5,0,0,0,6.48,42Zm0,8.8a3.7,3.7,0,1,1,3.7-3.7A3.7,3.7,0,0,1,6.48,50.75Z" style="fill: #fde8cb"/>
      <circle cx="6.48" cy="46.98" r="5.81" style="fill: none;stroke: #d3d8d7;stroke-miterlimit: 10;stroke-width: 0.75px"/>
    </g>
    <g>
      <path d="M86,42a5,5,0,1,0,5,5A5,5,0,0,0,86,42Zm0,8.8a3.7,3.7,0,1,1,3.7-3.7A3.7,3.7,0,0,1,86,50.75Z" style="fill: #fde8cb"/>
      <circle cx="85.98" cy="46.98" r="5.81" style="fill: none;stroke: #d3d8d7;stroke-miterlimit: 10;stroke-width: 0.75px"/>
    </g>
    <g>
      <circle cx="3.35" cy="13.88" r="2.78" style="fill: #574e3b"/>
      <circle cx="3.35" cy="13.83" r="1.34" style="fill: #f4e6c2"/>
    </g>
    <g>
      <circle cx="88.76" cy="37.29" r="2.78" style="fill: #574e3b"/>
      <circle cx="88.76" cy="37.24" r="1.34" style="fill: #f4e6c2"/>
    </g>
    <g>
      <rect height="2.4" rx="0.42" ry="0.42" style="fill: #e7e6e8" width="4.02" x="38.18" y="34.63"/>
      <rect height="1.19" rx="0.42" ry="0.42" style="fill: #e7e6e8" width="4.15" x="38.11" y="33.73"/>
      <rect height="2.92" rx="0.73" ry="0.73" style="fill: #fffdf3" width="3.96" x="38.21" y="27.67"/>
      <rect height="4.88" rx="0.92" ry="0.92" style="fill: #cea468" width="3.17" x="38.54" y="29.46"/>
      <path d="M38.36,30.26q-.21-.91,1.07-.9l2.09.06c.55.23.72.53.22,1a7.71,7.71,0,0,1-2.7.23A.65.65,0,0,1,38.36,30.26Z" style="fill: #757376"/>
      <path d="M42,33.88q.21.91-1.07.9l-2.09-.06c-.55-.23-.73-.53-.22-1a7.72,7.72,0,0,1,2.7-.23A.65.65,0,0,1,42,33.88Z" style="fill: #757376"/>
    </g>
    <g>
      <rect height="2.4" rx="0.42" ry="0.42" style="fill: #e7e6e8" width="4.02" x="48.49" y="35.38"/>
      <rect height="1.19" rx="0.42" ry="0.42" style="fill: #e7e6e8" width="4.15" x="48.43" y="34.48"/>
      <rect height="2.92" rx="0.73" ry="0.73" style="fill: #fffdf3" width="3.96" x="48.52" y="28.42"/>
      <rect height="4.88" rx="0.92" ry="0.92" style="fill: #cea468" width="3.17" x="48.85" y="30.21"/>
      <path d="M48.68,31q-.21-.91,1.07-.9l2.09.06c.55.23.72.53.22,1a7.71,7.71,0,0,1-2.7.23A.65.65,0,0,1,48.68,31Z" style="fill: #757376"/>
      <path d="M52.26,34.63q.21.91-1.07.9l-2.09-.06c-.55-.23-.73-.53-.22-1a7.72,7.72,0,0,1,2.7-.23A.65.65,0,0,1,52.26,34.63Z" style="fill: #757376"/>
    </g>
    <g>
      <rect height="2.4" rx="0.42" ry="0.42" style="fill: #e7e6e8" width="4.02" x="57.83" y="37.36"/>
      <rect height="1.19" rx="0.42" ry="0.42" style="fill: #e7e6e8" width="4.15" x="57.77" y="36.47"/>
      <rect height="2.92" rx="0.73" ry="0.73" style="fill: #fffdf3" width="3.96" x="57.87" y="30.41"/>
      <rect height="4.88" rx="0.92" ry="0.92" style="fill: #cea468" width="3.17" x="58.2" y="32.2"/>
      <path d="M58,33q-.21-.91,1.07-.9l2.09.06c.55.23.73.53.22,1a7.71,7.71,0,0,1-2.7.23A.65.65,0,0,1,58,33Z" style="fill: #757376"/>
      <path d="M61.61,36.62q.21.91-1.07.9l-2.09-.06c-.55-.23-.72-.53-.22-1a7.71,7.71,0,0,1,2.7-.23A.65.65,0,0,1,61.61,36.62Z" style="fill: #757376"/>
    </g>
    <g>
      <rect height="2.4" rx="0.42" ry="0.42" style="fill: #e7e6e8" width="4.02" x="74.08" y="37.81"/>
      <rect height="1.19" rx="0.42" ry="0.42" style="fill: #e7e6e8" width="4.15" x="74.02" y="36.92"/>
      <rect height="2.92" rx="0.73" ry="0.73" style="fill: #fffdf3" width="3.96" x="74.12" y="30.85"/>
      <rect height="4.88" rx="0.92" ry="0.92" style="fill: #cea468" width="3.17" x="74.45" y="32.64"/>
      <path d="M74.27,33.45q-.21-.91,1.07-.9l2.09.06c.55.23.73.53.22,1a7.72,7.72,0,0,1-2.7.23A.65.65,0,0,1,74.27,33.45Z" style="fill: #757376"/>
      <path d="M77.86,37.07q.21.91-1.07.9l-2.09-.06c-.55-.23-.73-.53-.22-1a7.71,7.71,0,0,1,2.7-.23A.65.65,0,0,1,77.86,37.07Z" style="fill: #757376"/>
    </g>
    <g>
      <rect height="2.4" rx="0.42" ry="0.42" style="fill: #e7e6e8" transform="translate(43.45 84.59) rotate(-90)" width="4.02" x="62.01" y="19.37"/>
      <rect height="2.92" rx="0.73" ry="0.73" style="fill: #e7e6e8" transform="translate(36.75 77.9) rotate(-90)" width="3.96" x="55.34" y="19.11"/>
      <rect height="4.88" rx="0.92" ry="0.92" style="fill: #e7e6e8" transform="translate(40.4 81.17) rotate(-90)" width="3.29" x="59.14" y="17.95"/>
    </g>
    <rect height="2.81" style="fill: #2a292d" width="3.72" x="58.92" y="18.98"/>
    <g>
      <rect height="2.4" rx="0.42" ry="0.42" style="fill: #e7e6e8" transform="translate(-1.74 64.38) rotate(-90)" width="4.02" x="29.31" y="31.86"/>
      <rect height="2.92" rx="0.73" ry="0.73" style="fill: #e7e6e8" transform="translate(-8.44 57.69) rotate(-90)" width="3.96" x="22.65" y="31.6"/>
      <rect height="4.88" rx="0.92" ry="0.92" style="fill: #e7e6e8" transform="translate(-4.79 60.96) rotate(-90)" width="3.29" x="26.44" y="30.44"/>
    </g>
    <rect height="2.81" style="fill: #2a292d" width="3.72" x="26.22" y="31.47"/>
    <g>
      <rect height="2.4" rx="0.42" ry="0.42" style="fill: #e7e6e8" transform="translate(-12.68 53.45) rotate(-90)" width="4.02" x="18.37" y="31.86"/>
      <rect height="2.92" rx="0.73" ry="0.73" style="fill: #e7e6e8" transform="translate(-19.37 46.75) rotate(-90)" width="3.96" x="11.71" y="31.6"/>
      <rect height="4.88" rx="0.92" ry="0.92" style="fill: #e7e6e8" transform="translate(-15.73 50.02) rotate(-90)" width="3.29" x="15.5" y="30.44"/>
    </g>
    <rect height="2.81" style="fill: #2a292d" width="3.72" x="15.29" y="31.47"/>
    <g>
      <rect height="2.4" rx="0.42" ry="0.42" style="fill: #e7e6e8" transform="translate(-18.18 58.95) rotate(-90)" width="4.02" x="18.37" y="37.36"/>
      <rect height="2.92" rx="0.73" ry="0.73" style="fill: #e7e6e8" transform="translate(-24.88 52.25) rotate(-90)" width="3.96" x="11.71" y="37.1"/>
      <rect height="4.88" rx="0.92" ry="0.92" style="fill: #e7e6e8" transform="translate(-21.23 55.52) rotate(-90)" width="3.29" x="15.5" y="35.94"/>
    </g>
    <rect height="2.81" style="fill: #2a292d" width="3.72" x="15.29" y="36.97"/>
    <g>
      <rect height="2.4" rx="0.42" ry="0.42" style="fill: #e7e6e8" transform="translate(13.71 49.41) rotate(-90)" width="4.02" x="29.55" y="16.65"/>
      <rect height="2.92" rx="0.73" ry="0.73" style="fill: #e7e6e8" transform="translate(7.01 42.72) rotate(-90)" width="3.96" x="22.89" y="16.39"/>
      <rect height="4.88" rx="0.92" ry="0.92" style="fill: #e7e6e8" transform="translate(10.66 45.99) rotate(-90)" width="3.29" x="26.68" y="15.23"/>
    </g>
    <rect height="2.81" style="fill: #2a292d" width="3.72" x="26.46" y="16.26"/>
    <g>
      <rect height="2.4" rx="0.42" ry="0.42" style="fill: #e7e6e8" transform="translate(2.19 37.89) rotate(-90)" width="4.02" x="18.03" y="16.65"/>
      <rect height="2.92" rx="0.73" ry="0.73" style="fill: #e7e6e8" transform="translate(-4.51 31.2) rotate(-90)" width="3.96" x="11.36" y="16.39"/>
      <rect height="4.88" rx="0.92" ry="0.92" style="fill: #e7e6e8" transform="translate(-0.86 34.47) rotate(-90)" width="3.29" x="15.16" y="15.23"/>
    </g>
    <rect height="2.81" style="fill: #2a292d" width="3.72" x="14.94" y="16.26"/>
    <g>
      <rect height="2.4" rx="0.42" ry="0.42" style="fill: #e7e6e8" transform="translate(35.82 89.82) rotate(-90)" width="4.02" x="60.81" y="25.8"/>
      <rect height="2.92" rx="0.73" ry="0.73" style="fill: #e7e6e8" transform="translate(29.12 83.12) rotate(-90)" width="3.96" x="54.15" y="25.54"/>
      <rect height="4.88" rx="0.92" ry="0.92" style="fill: #e7e6e8" transform="translate(32.77 86.4) rotate(-90)" width="3.29" x="57.94" y="24.38"/>
    </g>
    <rect height="2.81" style="fill: #2a292d" width="3.72" x="57.72" y="25.41"/>
    <path d="M10.64,22.55a3.85,3.85,0,0,0-3.39-.45A5.75,5.75,0,0,0,6.83,19c-.22-.73-.56-1-1.16-.08A3.41,3.41,0,0,0,4.3,21.7c-.59-.83-1.75-.9-3.11-.71-.92.06-1,.47-.55,1.11a4,4,0,0,0,1.81,2c.46.07.69.16.32.33a4.21,4.21,0,0,0-1.4,2.86c-.21.92.21.92.87.57A3.78,3.78,0,0,0,4.7,26.71c.25-.27.45-.43.45-.14a.84.84,0,0,0,.27.71,8.21,8.21,0,0,0,2,1.6c.49.36.72.19.72-.42a13,13,0,0,0,.18-1.34,2.63,2.63,0,0,0-.1-1.24,2.07,2.07,0,0,0-.12-.26l-.33-.25c-.32-.32-.23-.45.24-.39a3.3,3.3,0,0,0,2.52-1.29C11.2,23.22,11.16,22.85,10.64,22.55Zm-6.94.51c.06-.22.34-.23.86,0l.31.43a.16.16,0,0,1-.06.21,3.11,3.11,0,0,1-.93-.27A.47.47,0,0,1,3.7,23.06Zm.89,2.19a.47.47,0,0,1-.41.11c-.21-.1-.16-.38.17-.84l.48-.22a.16.16,0,0,1,.19.1A3.11,3.11,0,0,1,4.59,25.25Zm.85-2a3.11,3.11,0,0,1,0-1A.47.47,0,0,1,5.75,22c.23,0,.31.26.23.83l-.33.42A.16.16,0,0,1,5.44,23.27Zm1,2.29c-.18.15-.41,0-.69-.51v-.53a.16.16,0,0,1,.17-.13,3.11,3.11,0,0,1,.6.76A.47.47,0,0,1,6.41,25.55ZM6.72,24,6.19,24a.16.16,0,0,1-.11-.19,3.11,3.11,0,0,1,.85-.47.47.47,0,0,1,.4.14C7.45,23.63,7.25,23.84,6.72,24Z" style="fill: #e7e8e0"/>
    <g>
      <rect height="8.21" style="fill: #3e3f45" width="3.13" x="15" y="21.54"/>
      <rect height="3" style="fill: #dcd7c5" width="3" x="12.04" y="24"/>
      <rect height="3" style="fill: #dcd7c5" width="3" x="18.13" y="21.54"/>
      <rect height="3" style="fill: #dcd7c5" width="3" x="18.13" y="26.75"/>
    </g>
    <g>
      <rect height="8.21" style="fill: #3e3f45" transform="translate(57.54 51.29) rotate(180)" width="3.13" x="27.21" y="21.54"/>
      <rect height="3" style="fill: #dcd7c5" transform="translate(63.58 51.58) rotate(180)" width="3" x="30.29" y="24.29"/>
      <rect height="3" style="fill: #dcd7c5" transform="translate(51.42 56.5) rotate(180)" width="3" x="24.21" y="26.75"/>
      <rect height="3" style="fill: #dcd7c5" transform="translate(51.42 46.08) rotate(180)" width="3" x="24.21" y="21.54"/>
    </g>
    <g>
      <path d="M.44,10.3a.19.19,0,0,1,.06-.14.18.18,0,0,1,.14-.06H1.2V7.87H.63a.18.18,0,0,1-.14-.06.19.19,0,0,1-.06-.14.19.19,0,0,1,.06-.14.18.18,0,0,1,.14-.06h1v2.63H2V9.32A.19.19,0,0,1,2,9.18a.18.18,0,0,1,.14-.06.2.2,0,0,1,.2.2v1a.2.2,0,0,1-.2.2H.63a.18.18,0,0,1-.14-.06A.19.19,0,0,1,.44,10.3Z" style="fill: #e9ebec"/>
      <path d="M3.23,10.3a.19.19,0,0,1,.06-.14.18.18,0,0,1,.14-.06H4V7.87H3.43a.18.18,0,0,1-.14-.06.19.19,0,0,1-.06-.14.19.19,0,0,1,.06-.14.18.18,0,0,1,.14-.06h1v2.63h.38V9.32a.19.19,0,0,1,.06-.14A.18.18,0,0,1,5,9.12a.2.2,0,0,1,.2.2v1a.2.2,0,0,1-.2.2H3.43a.18.18,0,0,1-.14-.06A.19.19,0,0,1,3.23,10.3Z" style="fill: #e9ebec"/>
    </g>
    <g>
      <path d="M7.65,10.3a.19.19,0,0,1,.06-.14.18.18,0,0,1,.14-.06h.57V7.87H7.84a.18.18,0,0,1-.14-.06.19.19,0,0,1-.06-.14.19.19,0,0,1,.06-.14.18.18,0,0,1,.14-.06h1v2.63h.38V9.32a.19.19,0,0,1,.06-.14.18.18,0,0,1,.14-.06.2.2,0,0,1,.2.2v1a.2.2,0,0,1-.2.2H7.84a.18.18,0,0,1-.14-.06A.19.19,0,0,1,7.65,10.3Z" style="fill: #e9ebec"/>
      <path d="M10.44,10.11V7.87a.4.4,0,0,1,.39-.39H12a.38.38,0,0,1,.27.12.37.37,0,0,1,.12.27v2.24a.37.37,0,0,1-.12.27.38.38,0,0,1-.27.12H10.83a.4.4,0,0,1-.39-.39Zm.39,0H12V7.87H10.83Z" style="fill: #e9ebec"/>
    </g>
    <path d="M16.27,8.66v-1a.19.19,0,0,1,.06-.14.18.18,0,0,1,.14-.06H18a.19.19,0,0,1,.14.06.18.18,0,0,1,.06.14V10.3a.2.2,0,0,1-.2.2h-.19a.18.18,0,0,1-.14-.06.19.19,0,0,1-.06-.14.19.19,0,0,1,.06-.14.18.18,0,0,1,.14-.06V8.86H16.46a.18.18,0,0,1-.14-.06A.19.19,0,0,1,16.27,8.66Zm.39-.19h1.15v-.6H16.66Z" style="fill: #e9ebec"/>
    <path d="M23.6,10.11V9.19a.38.38,0,0,1,.11-.27A.37.37,0,0,1,24,8.79V7.68A.19.19,0,0,1,24,7.54a.18.18,0,0,1,.14-.06h.77a.18.18,0,0,1,.14.06.19.19,0,0,1,.05.14V8.79a.4.4,0,0,1,.39.39v.92a.37.37,0,0,1-.12.27.38.38,0,0,1-.27.12H24a.37.37,0,0,1-.27-.12A.38.38,0,0,1,23.6,10.11Zm.39,0h1.15V9.19H24Zm.39-1.31h.38V7.87h-.38Z" style="fill: #e9ebec"/>
    <path d="M30.73,7.84V7.68a.19.19,0,0,1,.06-.14.18.18,0,0,1,.14-.06h1.73V8.66a.19.19,0,0,1-.07.15l-.7.6v.89a.19.19,0,0,1-.06.14.19.19,0,0,1-.14.06.19.19,0,0,1-.14-.06.19.19,0,0,1-.06-.14v-1a.19.19,0,0,1,.07-.15l.7-.6v-.7H31.12a.19.19,0,0,1-.19.16.19.19,0,0,1-.19-.19Z" style="fill: #e9ebec"/>
    <path d="M38,10.3V7.68A.19.19,0,0,1,38,7.54a.18.18,0,0,1,.14-.06h.19a.19.19,0,0,1,.14.06.19.19,0,0,1,.06.14.19.19,0,0,1-.06.14.18.18,0,0,1-.14.06V9.12h1.34a.2.2,0,0,1,.2.2v1a.2.2,0,0,1-.2.2H38.15a.18.18,0,0,1-.14-.06A.19.19,0,0,1,38,10.3Zm.39-.19h1.15v-.6H38.34Z" style="fill: #e9ebec"/>
    <path d="M45.29,10.14a.19.19,0,0,1,.06-.14.19.19,0,0,1,.14-.06l.08,0,.35.15h.92V9.19H45.67V7.48H47a.19.19,0,0,1,.14.06.18.18,0,0,1,.06.14.2.2,0,0,1-.2.2h-1v.92h.76a.4.4,0,0,1,.39.39v.92a.37.37,0,0,1-.12.27.38.38,0,0,1-.27.12h-.88l-.16,0-.13,0-.14-.06-.12-.06A.18.18,0,0,1,45.29,10.14Z" style="fill: #e9ebec"/>
    <path d="M52.51,9.51V7.68a.18.18,0,0,1,.06-.14.19.19,0,0,1,.14-.06.18.18,0,0,1,.14.06.19.19,0,0,1,.06.14V9.12h.76V8a.19.19,0,0,1,.06-.14.2.2,0,0,1,.14-.06.19.19,0,0,1,.13.06.18.18,0,0,1,.06.14V9.12a.18.18,0,0,1,.14.06.19.19,0,0,1,.06.14.19.19,0,0,1-.19.19v.79a.19.19,0,0,1-.06.14.18.18,0,0,1-.13.06.2.2,0,0,1-.2-.2V9.51Z" style="fill: #e9ebec"/>
    <path d="M59.4,10.3a.19.19,0,0,1,.06-.14.19.19,0,0,1,.14-.06h1.34V9.38a.19.19,0,0,0-.06-.14.19.19,0,0,0-.14-.06H60a.19.19,0,0,1-.14-.06A.19.19,0,0,1,59.78,9a.2.2,0,0,1,.06-.14A.19.19,0,0,1,60,8.79h.76a.19.19,0,0,0,.14-.06.19.19,0,0,0,.06-.14V7.87H59.59a.18.18,0,0,1-.14-.06.19.19,0,0,1-.06-.14.19.19,0,0,1,.06-.14.19.19,0,0,1,.14-.06h1.34a.38.38,0,0,1,.27.12.37.37,0,0,1,.12.27V8.6a.56.56,0,0,1-.15.39.56.56,0,0,1,.15.39v.73a.37.37,0,0,1-.12.27.38.38,0,0,1-.27.12H59.59a.19.19,0,0,1-.14-.06A.19.19,0,0,1,59.4,10.3Z" style="fill: #e9ebec"/>
    <path d="M66.73,10.5V9.19a.37.37,0,0,1,.12-.27.38.38,0,0,1,.27-.11h1.15V7.87H66.92a.18.18,0,0,1-.14-.06.19.19,0,0,1-.06-.14.19.19,0,0,1,.06-.14.18.18,0,0,1,.14-.06h1.34a.38.38,0,0,1,.27.12.37.37,0,0,1,.12.27V8.8a.37.37,0,0,1-.12.27.38.38,0,0,1-.27.12H67.12v.92h1.34a.19.19,0,0,1,.14.06.18.18,0,0,1,.06.14.2.2,0,0,1-.2.2Z" style="fill: #e9ebec"/>
    <path d="M73.85,10.3a.19.19,0,0,1,.06-.14.18.18,0,0,1,.14-.06h.57V7.87H74a.18.18,0,0,1-.14-.06.19.19,0,0,1-.06-.14.19.19,0,0,1,.06-.14A.18.18,0,0,1,74,7.48h1v2.63h.38V9.32a.19.19,0,0,1,.06-.14.18.18,0,0,1,.14-.06.2.2,0,0,1,.2.2v1a.2.2,0,0,1-.2.2H74a.18.18,0,0,1-.14-.06A.19.19,0,0,1,73.85,10.3Z" style="fill: #e9ebec"/>
    <path d="M80.94,10.11V7.87a.4.4,0,0,1,.39-.39h1.14a.38.38,0,0,1,.27.12.37.37,0,0,1,.12.27v2.24a.37.37,0,0,1-.12.27.38.38,0,0,1-.27.12H81.33a.4.4,0,0,1-.39-.39Zm.39,0h1.14V7.87H81.33Z" style="fill: #e9ebec"/>
    <g>
      <path d="M85.06,9.23v-1a.75.75,0,0,1,.16-.48L85.75,7a.56.56,0,0,1,.46-.22h.58a.19.19,0,0,1,.14.06A.19.19,0,0,1,87,7a.19.19,0,0,1-.06.14.19.19,0,0,1-.14.06h-.58a.19.19,0,0,0-.16.08l-.53.67a.39.39,0,0,0-.08.24v1a.2.2,0,0,0,.19.2h.75a.19.19,0,0,0,.14-.06.19.19,0,0,0,.06-.14v-.4h-.38A.19.19,0,0,1,86,8.64a.19.19,0,0,1,.06-.14.18.18,0,0,1,.14-.06H87v.79a.59.59,0,0,1-.59.59h-.75a.56.56,0,0,1-.41-.17A.57.57,0,0,1,85.06,9.23Z" style="fill: #e9ebec"/>
      <path d="M87.86,9.62V6.8h.51l1,2.33V7a.19.19,0,0,1,.06-.14.19.19,0,0,1,.14-.06.19.19,0,0,1,.14.06.19.19,0,0,1,.06.14V9.82h-.52l-1-2.32V9.62a.2.2,0,0,1-.2.2.18.18,0,0,1-.14-.06A.19.19,0,0,1,87.86,9.62Z" style="fill: #e9ebec"/>
      <path d="M90.66,9.62a.19.19,0,0,1,.06-.14.18.18,0,0,1,.14-.06H91V7.19h-.19a.18.18,0,0,1-.14-.06A.19.19,0,0,1,90.66,7a.19.19,0,0,1,.06-.14.18.18,0,0,1,.14-.06h.72a.55.55,0,0,1,.31.09.58.58,0,0,1,.21.23l.39.79a.87.87,0,0,1,0,.8l-.39.79a.52.52,0,0,1-.21.23.59.59,0,0,1-.32.09h-.72a.18.18,0,0,1-.14-.06A.19.19,0,0,1,90.66,9.62Zm.77-.19h.14a.18.18,0,0,0,.17-.11l.4-.79a.61.61,0,0,0,.05-.22.5.5,0,0,0-.05-.22l-.4-.79a.18.18,0,0,0-.17-.11h-.14Z" style="fill: #e9ebec"/>
    </g>
    <g>
      <path d="M69.94,15.61V12.27h.58l.56.8.56-.8h.58v3.34a.23.23,0,0,1-.23.23.22.22,0,0,1-.16-.07.23.23,0,0,1-.07-.17V12.9l-.45.64v.12a.23.23,0,0,1-.07.17.22.22,0,0,1-.16.07.23.23,0,0,1-.23-.23v-.12l-.44-.63v2.69a.23.23,0,0,1-.23.23.22.22,0,0,1-.16-.07A.23.23,0,0,1,69.94,15.61Z" style="fill: #f0f2ec"/>
      <path d="M73.25,15.61V12.27h1.58a.67.67,0,0,1,.49.2.66.66,0,0,1,.21.49v.82a.7.7,0,0,1-.7.7H73.71v1.13a.23.23,0,0,1-.23.23.22.22,0,0,1-.16-.07A.23.23,0,0,1,73.25,15.61ZM73.71,14h1.12a.23.23,0,0,0,.16-.07.22.22,0,0,0,.07-.17V13A.22.22,0,0,0,75,12.8a.23.23,0,0,0-.16-.07H73.71Z" style="fill: #f0f2ec"/>
      <path d="M76.56,15.61V12.27h1.58a.7.7,0,0,1,.7.7v.24a.71.71,0,0,1-.7.7h-.27l.93,1.59a.27.27,0,0,1,0,.11.23.23,0,0,1-.23.23.22.22,0,0,1-.2-.11L77.34,13.9H77v1.71a.23.23,0,0,1-.23.23.22.22,0,0,1-.16-.07A.23.23,0,0,1,76.56,15.61ZM77,13.44h1.12a.24.24,0,0,0,.23-.23V13a.22.22,0,0,0-.07-.17.23.23,0,0,0-.16-.07H77Z" style="fill: #f0f2ec"/>
      <path d="M79.88,15.61a.22.22,0,0,1,.07-.16.22.22,0,0,1,.16-.07h.68V12.73H80.1a.22.22,0,0,1-.16-.07.23.23,0,0,1-.07-.16.23.23,0,0,1,.07-.16.22.22,0,0,1,.16-.07h1.14v3.11h.45v-.93a.23.23,0,0,1,.07-.16.22.22,0,0,1,.16-.07.23.23,0,0,1,.23.23v1.16a.23.23,0,0,1-.23.23H80.1a.22.22,0,0,1-.16-.07A.23.23,0,0,1,79.88,15.61Z" style="fill: #f0f2ec"/>
      <path d="M83.19,15.84V14.28a.44.44,0,0,1,.14-.32.45.45,0,0,1,.33-.13H85v-1.1H83.42a.22.22,0,0,1-.16-.07.23.23,0,0,1-.07-.16.23.23,0,0,1,.07-.16.22.22,0,0,1,.16-.07H85a.44.44,0,0,1,.32.14.44.44,0,0,1,.14.33v1.1a.47.47,0,0,1-.46.46H83.65v1.09h1.58a.22.22,0,0,1,.17.07.22.22,0,0,1,.07.16.23.23,0,0,1-.23.23Z" style="fill: #f0f2ec"/>
      <path d="M86.5,15.61a.22.22,0,0,1,.07-.16.22.22,0,0,1,.16-.07h.68V12.73h-.68a.22.22,0,0,1-.16-.07.23.23,0,0,1-.07-.16.23.23,0,0,1,.07-.16.22.22,0,0,1,.16-.07h1.14v3.11h.45v-.93a.23.23,0,0,1,.07-.16.22.22,0,0,1,.16-.07.23.23,0,0,1,.23.23v1.16a.23.23,0,0,1-.23.23H86.73a.22.22,0,0,1-.16-.07A.23.23,0,0,1,86.5,15.61Z" style="fill: #f0f2ec"/>
    </g>
    <g>
      <path d="M68.84,18.93a1,1,0,0,1,.08-.38l.32-.76a.48.48,0,0,1,.17-.22.43.43,0,0,1,.26-.09h.59a.15.15,0,0,1,.11.06.2.2,0,0,1,0,.13.2.2,0,0,1,0,.13.15.15,0,0,1-.11.06h-.59a.14.14,0,0,0-.14.1l-.33.76a.59.59,0,0,0,0,.43l.33.76a.14.14,0,0,0,.14.1h.59a.15.15,0,0,1,.11.06.2.2,0,0,1,0,.13.2.2,0,0,1,0,.13.15.15,0,0,1-.11.06h-.59a.41.41,0,0,1-.26-.09.55.55,0,0,1-.17-.22q-.23-.53-.32-.76A1,1,0,0,1,68.84,18.93Z" style="fill: #f0f2ec"/>
      <path d="M71.14,19.83v-.21a.59.59,0,0,1,.14-.4.43.43,0,0,1,.33-.16h.61l.14,0s0,0,0-.09v-.17a.27.27,0,0,0,0-.08l0-.05,0,0h-.66a.14.14,0,0,1-.11-.05.2.2,0,0,1,0-.13.21.21,0,0,1,0-.13.14.14,0,0,1,.11-.06h.59a.43.43,0,0,1,.33.16.59.59,0,0,1,.14.38l0,1.39a.19.19,0,0,1,0,.13.15.15,0,0,1-.12.05.14.14,0,0,1-.11-.06.2.2,0,0,1,0-.13l-.24.16a.12.12,0,0,1-.08,0h-.47a.43.43,0,0,1-.33-.16A.59.59,0,0,1,71.14,19.83Zm.32,0a.2.2,0,0,0,0,.13.14.14,0,0,0,.11.05H72l.34-.23v-.16a.17.17,0,0,0,0-.12.14.14,0,0,0-.11-.05h-.61a.14.14,0,0,0-.11.05.19.19,0,0,0,0,.13Z" style="fill: #f0f2ec"/>
      <path d="M73.43,21V18.38a.2.2,0,0,1,0-.13.14.14,0,0,1,.11-.06.15.15,0,0,1,.11.06.2.2,0,0,1,0,.13v.1l0,0,0,0,0,0,0,0,0,0,.05,0,.05,0,.06,0h.13a.39.39,0,0,1,.18,0l.13.08.12.13.08.08.09.1.07.1a.45.45,0,0,1,.06.14A.71.71,0,0,1,75,19v.6a.58.58,0,0,1-.17.43l-.27.28a.42.42,0,0,1-.31.13h-.07a.4.4,0,0,1-.19,0,.54.54,0,0,1-.14-.1l-.12-.14V21a.2.2,0,0,1,0,.13.15.15,0,0,1-.11.05.14.14,0,0,1-.11-.05A.2.2,0,0,1,73.43,21Zm.32-1.42a.22.22,0,0,0,0,.08l0,.06,0,.05,0,0,.06.07L74,20l.06.07a.14.14,0,0,0,.11.05h.07a.13.13,0,0,0,.1,0l.28-.28a.17.17,0,0,0,.05-.14V19a.17.17,0,0,0-.05-.14l-.28-.28a.13.13,0,0,0-.1,0h-.07a.14.14,0,0,0-.11.05L73.8,19a.17.17,0,0,0,0,.13Z" style="fill: #f0f2ec"/>
      <path d="M75.73,19.83v-.21a.59.59,0,0,1,.14-.4.43.43,0,0,1,.33-.16h.61l.14,0s0,0,0-.09v-.17a.27.27,0,0,0,0-.08l0-.05,0,0H76.2a.14.14,0,0,1-.11-.05.2.2,0,0,1,0-.13.21.21,0,0,1,0-.13.14.14,0,0,1,.11-.06h.59a.43.43,0,0,1,.33.16.59.59,0,0,1,.14.38l0,1.39a.19.19,0,0,1,0,.13.15.15,0,0,1-.12.05.14.14,0,0,1-.11-.06.2.2,0,0,1,0-.13l-.24.16a.12.12,0,0,1-.08,0H76.2a.43.43,0,0,1-.33-.16A.59.59,0,0,1,75.73,19.83Zm.32,0a.2.2,0,0,0,0,.13.14.14,0,0,0,.11.05h.43l.34-.23v-.16a.17.17,0,0,0,0-.12.14.14,0,0,0-.11-.05H76.2a.14.14,0,0,0-.11.05.19.19,0,0,0,0,.13Z" style="fill: #f0f2ec"/>
      <path d="M78,19.55V19.1a.58.58,0,0,1,.17-.43l.12-.13.13-.14a.58.58,0,0,1,.14-.1.41.41,0,0,1,.19,0h.67a.15.15,0,0,1,.11.06.2.2,0,0,1,0,.13.2.2,0,0,1,0,.13.15.15,0,0,1-.11.05h-.67a.12.12,0,0,0-.1,0L78.4,19a.16.16,0,0,0-.05.14v.45a.19.19,0,0,0,.05.14l.27.27a.13.13,0,0,0,.1,0h.67a.15.15,0,0,1,.11.06.2.2,0,0,1,0,.13.2.2,0,0,1,0,.13.15.15,0,0,1-.11.06h-.67a.42.42,0,0,1-.31-.13L78.19,20A.59.59,0,0,1,78,19.55Z" style="fill: #f0f2ec"/>
      <path d="M80.47,20.2a.2.2,0,0,1,0-.13.15.15,0,0,1,.11-.06h.31V18.64h-.31a.15.15,0,0,1-.11-.05.2.2,0,0,1,0-.13.2.2,0,0,1,0-.13.15.15,0,0,1,.11-.06h.47a.14.14,0,0,1,.11.06.2.2,0,0,1,0,.13V20h.31a.15.15,0,0,1,.11.06.19.19,0,0,1,0,.13.2.2,0,0,1,0,.13.14.14,0,0,1-.11.06h-.94a.15.15,0,0,1-.11-.06A.2.2,0,0,1,80.47,20.2Zm.31-2.54v-.16a.2.2,0,0,1,0-.13.15.15,0,0,1,.11-.05h.16a.15.15,0,0,1,.11.05.2.2,0,0,1,0,.13v.16a.2.2,0,0,1,0,.13.14.14,0,0,1-.11.06h-.16a.15.15,0,0,1-.11-.06A.2.2,0,0,1,80.79,17.66Z" style="fill: #f0f2ec"/>
      <path d="M82.66,18.59a.2.2,0,0,1,0-.13.21.21,0,0,1,0-.13.14.14,0,0,1,.11-.06h.16v-.44a.21.21,0,0,1,0-.13.14.14,0,0,1,.11-.06.15.15,0,0,1,.11.06.2.2,0,0,1,0,.13v.44h.63a.14.14,0,0,1,.11.06.2.2,0,0,1,0,.13.2.2,0,0,1,0,.13.14.14,0,0,1-.11.05h-.62v1.18a.2.2,0,0,0,0,.13.14.14,0,0,0,.11.05h.32a.12.12,0,0,0,.1-.05.29.29,0,0,0,.05-.11.28.28,0,0,1,.05-.11.13.13,0,0,1,.1-.05.15.15,0,0,1,.11.06.2.2,0,0,1,0,.13v0a.61.61,0,0,1-.17.33.42.42,0,0,1-.31.14H83.4a.42.42,0,0,1-.33-.17.59.59,0,0,1-.14-.39V18.64h-.16A.14.14,0,0,1,82.66,18.59Z" style="fill: #f0f2ec"/>
      <path d="M85.06,20.2a.2.2,0,0,1,0-.13.15.15,0,0,1,.11-.06h.31V18.64h-.31a.15.15,0,0,1-.11-.05.2.2,0,0,1,0-.13.2.2,0,0,1,0-.13.15.15,0,0,1,.11-.06h.47a.14.14,0,0,1,.11.06.2.2,0,0,1,0,.13V20h.31a.15.15,0,0,1,.11.06.19.19,0,0,1,0,.13.2.2,0,0,1,0,.13.14.14,0,0,1-.11.06h-.94a.15.15,0,0,1-.11-.06A.2.2,0,0,1,85.06,20.2Zm.31-2.54v-.16a.2.2,0,0,1,0-.13.15.15,0,0,1,.11-.05h.16a.15.15,0,0,1,.11.05.2.2,0,0,1,0,.13v.16a.2.2,0,0,1,0,.13.14.14,0,0,1-.11.06h-.16a.15.15,0,0,1-.11-.06A.2.2,0,0,1,85.38,17.66Z" style="fill: #f0f2ec"/>
      <path d="M87.2,18.78v-.32a.21.21,0,0,1,0-.13.14.14,0,0,1,.11-.06.15.15,0,0,1,.11.06.2.2,0,0,1,0,.13v.28L88,20l.47-1.27v-.28a.21.21,0,0,1,0-.13.14.14,0,0,1,.11-.06.15.15,0,0,1,.11.06.2.2,0,0,1,0,.13v.32a.18.18,0,0,1,0,.07l-.53,1.43a.15.15,0,0,1-.15.11h-.2a.15.15,0,0,1-.15-.11l-.53-1.43A.2.2,0,0,1,87.2,18.78Z" style="fill: #f0f2ec"/>
      <path d="M89.5,19.71v-.77a.59.59,0,0,1,.05-.24.61.61,0,0,1,.09-.16l.14-.14a.41.41,0,0,1,.31-.13h.52l.05,0,.05,0,0,0,0,0,0,0,0,0,0,0a.58.58,0,0,1,.17.43v.46a.2.2,0,0,1,0,.13.15.15,0,0,1-.11.06h-1.1v.12a.2.2,0,0,0,0,.09l0,.06.06.06L90,20a.15.15,0,0,0,.1,0h.83a.15.15,0,0,1,.11.06.2.2,0,0,1,0,.13.2.2,0,0,1,0,.13.15.15,0,0,1-.11.06H90l-.05,0,0,0,0,0,0,0,0,0,0,0,0,0A.57.57,0,0,1,89.5,19.71Zm.32-.49h.94v-.28a.3.3,0,0,0-.1-.2.26.26,0,0,0-.18-.1h-.4l-.08,0-.08.08-.05.06a.18.18,0,0,0-.05.14Z" style="fill: #f0f2ec"/>
    </g>
    <g>
      <path d="M73.82,22.35v-.5h1.77v.5a.19.19,0,0,1-.05.13.17.17,0,0,1-.13.06.16.16,0,0,1-.13-.06.19.19,0,0,1-.05-.13v-.13h-.35v2.35a.19.19,0,0,1-.05.13.16.16,0,0,1-.12.06.17.17,0,0,1-.13-.06.19.19,0,0,1-.05-.13V22.23h-.34v.13a.19.19,0,0,1-.05.13.17.17,0,0,1-.13.06.16.16,0,0,1-.13-.06A.19.19,0,0,1,73.82,22.35Z" style="fill: #f0f2ec"/>
      <path d="M76.38,24.09v-.77a.53.53,0,0,1,.06-.24.61.61,0,0,1,.1-.16l.16-.14a.49.49,0,0,1,.34-.13h.53l.09,0,.07,0,.07,0,.05,0,.06.05.05,0a.55.55,0,0,1,.19.43v.77a.77.77,0,0,1,0,.11.31.31,0,0,1,0,.1l0,.08-.06.08-.05.06-.07.07-.06.05a.49.49,0,0,1-.34.13h-.55l-.09,0-.08,0-.07,0-.07-.06-.06-.06A.54.54,0,0,1,76.38,24.09Zm.36,0a.19.19,0,0,0,0,.09l0,.06.07.06.06,0a.17.17,0,0,0,.11,0h.44l.09,0,.09-.08.06-.06a.17.17,0,0,0,.06-.14v-.77a.28.28,0,0,0-.11-.2.3.3,0,0,0-.2-.1H77L77,23l-.09.08-.06.06a.17.17,0,0,0-.06.14Z" style="fill: #f0f2ec"/>
      <path d="M78.95,22.83A.19.19,0,0,1,79,22.7a.16.16,0,0,1,.13-.06.17.17,0,0,1,.12.05.18.18,0,0,1,.05.13l0,1.39a.21.21,0,0,0,.05.13.16.16,0,0,0,.12.05h.25l.58-.39V22.83a.19.19,0,0,1,.05-.13.16.16,0,0,1,.13-.06.17.17,0,0,1,.13.06.19.19,0,0,1,.05.13v1.74a.19.19,0,0,1-.05.13.17.17,0,0,1-.13.06.16.16,0,0,1-.13-.06.19.19,0,0,1-.05-.13v-.13l-.34.23a.51.51,0,0,1-.29.09h-.2a.5.5,0,0,1-.37-.16.55.55,0,0,1-.16-.38Z" style="fill: #f0f2ec"/>
      <path d="M81.51,23.93v-.45a.55.55,0,0,1,.18-.43l.13-.13.15-.14a.68.68,0,0,1,.16-.1.51.51,0,0,1,.21,0h.75a.17.17,0,0,1,.13.06.19.19,0,0,1,.05.13.18.18,0,0,1-.05.13.17.17,0,0,1-.13.05h-.75a.15.15,0,0,0-.11,0l-.31.28a.15.15,0,0,0-.06.14v.45a.18.18,0,0,0,.06.14l.31.27a.15.15,0,0,0,.11,0h.75a.17.17,0,0,1,.13.06.19.19,0,0,1,.05.13.19.19,0,0,1-.05.13.17.17,0,0,1-.13.06h-.75a.5.5,0,0,1-.35-.13l-.3-.28A.55.55,0,0,1,81.51,23.93Z" style="fill: #f0f2ec"/>
      <path d="M84.08,24.57V22a.19.19,0,0,1,.05-.13.16.16,0,0,1,.13-.06.17.17,0,0,1,.13.06.19.19,0,0,1,.05.13V23l.34-.23a.51.51,0,0,1,.29-.09h.2a.5.5,0,0,1,.37.16.55.55,0,0,1,.16.38l0,1.39a.19.19,0,0,1-.05.13.16.16,0,0,1-.13.06.17.17,0,0,1-.12-.05.18.18,0,0,1-.05-.13l0-1.39a.21.21,0,0,0-.06-.12.15.15,0,0,0-.12-.05H85l-.58.39v1.16a.19.19,0,0,1-.05.13.17.17,0,0,1-.13.06.16.16,0,0,1-.13-.06A.19.19,0,0,1,84.08,24.57Z" style="fill: #f0f2ec"/>
    </g>
    <g>
      <path d="M71.36,28.51a.19.19,0,0,1,.05-.13.16.16,0,0,1,.13-.06.17.17,0,0,1,.13.06.19.19,0,0,1,.05.13.13.13,0,0,0,0,.09.11.11,0,0,0,.08,0h.88s0,0,0,0l-1.33-1.8a.45.45,0,0,1-.08-.26h0a.41.41,0,0,1,.12-.29.38.38,0,0,1,.28-.12h.88a.46.46,0,0,1,.34.15.49.49,0,0,1,.14.35.19.19,0,0,1-.05.13.17.17,0,0,1-.13.06.16.16,0,0,1-.13-.06.19.19,0,0,1-.05-.13.13.13,0,0,0,0-.09.12.12,0,0,0-.09,0h-.88s0,0,0,0h0L73,28.33a.41.41,0,0,1,.09.26.46.46,0,0,1-.12.3.37.37,0,0,1-.28.13h-.88a.45.45,0,0,1-.34-.15A.5.5,0,0,1,71.36,28.51Z" style="fill: #f0f2ec"/>
      <path d="M73.92,28.34v-.77a.53.53,0,0,1,.06-.24.61.61,0,0,1,.1-.16l.16-.14a.49.49,0,0,1,.34-.13h.58l.06,0,.06,0,0,0,0,0,0,0,0,0,0,0a.55.55,0,0,1,.19.43V28a.19.19,0,0,1-.05.13.17.17,0,0,1-.13.06H74.28v.12a.19.19,0,0,0,0,.09l0,.06.07.06.06,0a.17.17,0,0,0,.11,0h.93a.17.17,0,0,1,.13.06.18.18,0,0,1,.05.13.19.19,0,0,1-.05.13.17.17,0,0,1-.13.06H74.44l-.06,0-.05,0,0,0,0,0,0,0,0,0,0,0A.53.53,0,0,1,73.92,28.34Zm.36-.49h1v-.28a.28.28,0,0,0-.11-.2.3.3,0,0,0-.2-.1h-.44l-.09,0-.09.08-.06.06a.17.17,0,0,0-.06.14Z" style="fill: #f0f2ec"/>
      <path d="M76.49,28.82V27.08a.19.19,0,0,1,.05-.13.16.16,0,0,1,.13-.06.17.17,0,0,1,.13.06.19.19,0,0,1,.05.13v.13l.34-.23a.51.51,0,0,1,.29-.09h.2a.5.5,0,0,1,.37.16.55.55,0,0,1,.16.38l0,1.39a.19.19,0,0,1-.05.13.16.16,0,0,1-.13.06A.17.17,0,0,1,78,29a.18.18,0,0,1-.05-.13l0-1.39a.21.21,0,0,0-.06-.12.15.15,0,0,0-.12-.05h-.25l-.58.39v1.16a.19.19,0,0,1-.05.13.17.17,0,0,1-.13.06.16.16,0,0,1-.13-.06A.19.19,0,0,1,76.49,28.82Z" style="fill: #f0f2ec"/>
      <path d="M79.06,28.67a.19.19,0,0,1,0-.13.16.16,0,0,1,.13-.05.21.21,0,0,1,.13.05l.1.07,0,0,0,0h.72a.16.16,0,0,0,.13-.06.22.22,0,0,0,0-.14.18.18,0,0,0-.1-.18l-1-.45a.45.45,0,0,1-.2-.18.53.53,0,0,1-.07-.27.45.45,0,0,1,.13-.32.43.43,0,0,1,.32-.14h.76a.52.52,0,0,1,.44.24.19.19,0,0,1,0,.11.19.19,0,0,1-.05.13.17.17,0,0,1-.13.06.22.22,0,0,1-.14-.08.22.22,0,0,0-.15-.08h-.76a.09.09,0,0,0-.07,0,.12.12,0,0,0,0,.07.09.09,0,0,0,.06.09l1,.45a.55.55,0,0,1,.23.21.57.57,0,0,1,.09.32h0a.57.57,0,0,1-.16.4.51.51,0,0,1-.38.17H79.6a.7.7,0,0,1-.48-.2A.19.19,0,0,1,79.06,28.67Z" style="fill: #f0f2ec"/>
      <path d="M81.62,28.34v-.77a.53.53,0,0,1,.06-.24.61.61,0,0,1,.1-.16l.16-.14a.49.49,0,0,1,.34-.13h.53l.09,0L83,27,83,27l.05,0,.06.05.05,0a.55.55,0,0,1,.19.43v.77a.77.77,0,0,1,0,.11.31.31,0,0,1,0,.1l0,.08-.06.08-.05.06-.07.07-.06.05a.49.49,0,0,1-.34.13h-.55l-.09,0-.08,0-.07,0-.07-.06-.06-.06A.53.53,0,0,1,81.62,28.34Zm.36,0a.19.19,0,0,0,0,.09l0,.06.07.06.06,0a.17.17,0,0,0,.11,0h.44l.09,0,.09-.08.06-.06a.17.17,0,0,0,.06-.14v-.77a.28.28,0,0,0-.11-.2.3.3,0,0,0-.2-.1h-.44l-.09,0-.09.08-.06.06a.17.17,0,0,0-.06.14Z" style="fill: #f0f2ec"/>
      <path d="M84.19,28.82V27.08a.19.19,0,0,1,.05-.13.16.16,0,0,1,.13-.06.17.17,0,0,1,.13.06.19.19,0,0,1,.05.13v.22l.42-.38a.17.17,0,0,1,.1,0h.35a.5.5,0,0,1,.37.17.55.55,0,0,1,.16.39v.1a.18.18,0,0,1-.05.13.17.17,0,0,1-.13.05.17.17,0,0,1-.13-.05.19.19,0,0,1-.05-.13v-.1a.18.18,0,0,0-.05-.13.16.16,0,0,0-.12-.05h-.29l-.59.53v1a.19.19,0,0,1-.05.13.17.17,0,0,1-.13.06.16.16,0,0,1-.13-.06A.19.19,0,0,1,84.19,28.82Z" style="fill: #f0f2ec"/>
      <path d="M86.75,28.67a.19.19,0,0,1,0-.13.16.16,0,0,1,.13-.05.21.21,0,0,1,.13.05l.1.07,0,0,0,0H88a.16.16,0,0,0,.13-.06.22.22,0,0,0,0-.14.18.18,0,0,0-.1-.18l-1-.45a.45.45,0,0,1-.2-.18.53.53,0,0,1-.07-.27.45.45,0,0,1,.13-.32.43.43,0,0,1,.32-.14H88a.52.52,0,0,1,.44.24.19.19,0,0,1,0,.11.19.19,0,0,1-.05.13.17.17,0,0,1-.13.06.22.22,0,0,1-.14-.08.22.22,0,0,0-.15-.08h-.76a.09.09,0,0,0-.07,0,.12.12,0,0,0,0,.07.09.09,0,0,0,.06.09l1,.45a.55.55,0,0,1,.23.21.57.57,0,0,1,.09.32h0a.57.57,0,0,1-.16.4A.51.51,0,0,1,88,29H87.3a.7.7,0,0,1-.48-.2A.19.19,0,0,1,86.75,28.67Z" style="fill: #f0f2ec"/>
    </g>
    <g>
      <path d="M28.12,43.1a.19.19,0,0,1,.06-.14.18.18,0,0,1,.14-.06.19.19,0,0,1,.14.06.19.19,0,0,1,.06.14.13.13,0,0,0,0,.09.12.12,0,0,0,.09,0h1a0,0,0,0,0,0-.05l-1.43-1.86a.45.45,0,0,1-.09-.27h0a.41.41,0,0,1,.13-.3.42.42,0,0,1,.3-.13h1a.53.53,0,0,1,.52.52.19.19,0,0,1-.06.14.19.19,0,0,1-.14.06.18.18,0,0,1-.14-.06.2.2,0,0,1-.06-.14.14.14,0,0,0-.13-.13h-1s0,0,0,0h0v0l1.42,1.85a.41.41,0,0,1,.1.27.46.46,0,0,1-.13.31.4.4,0,0,1-.3.13h-1a.5.5,0,0,1-.36-.15A.51.51,0,0,1,28.12,43.1Z" style="fill: #f6f6f4"/>
      <path d="M30.89,42.12a.92.92,0,0,1,.09-.4l.39-.79a.51.51,0,0,1,.2-.23.58.58,0,0,1,.32-.09h.71a.18.18,0,0,1,.14.06.2.2,0,0,1-.14.33h-.71a.17.17,0,0,0-.17.11l-.39.79a.53.53,0,0,0,0,.45l.39.79a.17.17,0,0,0,.17.11h.71a.2.2,0,0,1,.2.19.19.19,0,0,1-.06.14.19.19,0,0,1-.14.06h-.71a.55.55,0,0,1-.31-.09.59.59,0,0,1-.21-.23q-.28-.54-.39-.79A.93.93,0,0,1,30.89,42.12Z" style="fill: #f6f6f4"/>
      <path d="M33.66,43.63V40.8a.19.19,0,0,1,.06-.14.18.18,0,0,1,.14-.06.2.2,0,0,1,.2.19v2.43h1.33a.2.2,0,0,1,.2.19.19.19,0,0,1-.06.14.19.19,0,0,1-.14.06Z" style="fill: #f6f6f4"/>
    </g>
    <g>
      <path d="M20.75,52.59a.19.19,0,0,1,.06-.14.18.18,0,0,1,.14-.06h.57V50.16h-.57a.18.18,0,0,1-.14-.06.2.2,0,0,1,0-.27.18.18,0,0,1,.14-.06h1.52a.18.18,0,0,1,.14.06.2.2,0,0,1-.14.33h-.57v2.24h.57a.2.2,0,0,1,.2.19.19.19,0,0,1-.06.14.19.19,0,0,1-.14.06H20.94a.18.18,0,0,1-.14-.06A.2.2,0,0,1,20.75,52.59Z" style="fill: #f6f6f4"/>
      <path d="M23.51,52.59V49.77h1.33a.56.56,0,0,1,.41.17.57.57,0,0,1,.17.41v.2a.6.6,0,0,1-.58.59h-.22l.78,1.35a.23.23,0,0,1,0,.1.19.19,0,0,1-.06.14.19.19,0,0,1-.14.06.18.18,0,0,1-.17-.1l-.89-1.54H23.9v1.44a.19.19,0,0,1-.06.14.19.19,0,0,1-.14.06.18.18,0,0,1-.14-.06A.2.2,0,0,1,23.51,52.59Zm.39-1.83h.94a.19.19,0,0,0,.14-.06.19.19,0,0,0,.06-.14v-.2a.2.2,0,0,0-.2-.2H23.9Z" style="fill: #f6f6f4"/>
      <path d="M26.28,52.31V51.22a.76.76,0,0,1,.27-.6l.86-.74a.42.42,0,0,1,.3-.12.48.48,0,0,1,.48.48v1.09a.88.88,0,0,1,0,.17.53.53,0,0,1-.05.15l-.07.12a.52.52,0,0,1-.09.11l-.09.09-.11.09-.1.08.09.24H28a.2.2,0,0,1,.2.19.19.19,0,0,1-.06.14.19.19,0,0,1-.14.06h-.51l-.14-.36-.29.25a.45.45,0,0,1-.63,0A.46.46,0,0,1,26.28,52.31Zm.39,0q0,.08.08.08h0l.41-.36-.14-.36a.17.17,0,0,1,0-.07.19.19,0,0,1,.06-.14.19.19,0,0,1,.14-.06l.09,0a.18.18,0,0,1,.07.07l0,.08,0,.1,0,.08.07-.06.09-.07.07-.08a.34.34,0,0,0,.06-.1.38.38,0,0,0,0-.12V50.24a.08.08,0,0,0,0-.06l-.06,0h0l-.89.75a.38.38,0,0,0-.13.3Z" style="fill: #f6f6f4"/>
    </g>
    <g>
      <path d="M35.5,52.26a.19.19,0,0,1,.06-.14.18.18,0,0,1,.14-.06.19.19,0,0,1,.14.06.19.19,0,0,1,.06.14.13.13,0,0,0,0,.09.12.12,0,0,0,.09,0h1a0,0,0,0,0,0-.05l-1.43-1.86a.45.45,0,0,1-.09-.27h0a.41.41,0,0,1,.13-.3.42.42,0,0,1,.3-.13h1a.53.53,0,0,1,.52.52.19.19,0,0,1-.06.14.19.19,0,0,1-.14.06.18.18,0,0,1-.14-.06.2.2,0,0,1-.06-.14.14.14,0,0,0-.13-.13h-1s0,0,0,0h0v0l1.42,1.85a.41.41,0,0,1,.1.27.46.46,0,0,1-.13.31.4.4,0,0,1-.3.13H36a.5.5,0,0,1-.36-.15A.51.51,0,0,1,35.5,52.26Z" style="fill: #f6f6f4"/>
      <path d="M38.26,52.59a.19.19,0,0,1,.06-.14.18.18,0,0,1,.14-.06h.19V50.16h-.19a.18.18,0,0,1-.14-.06.2.2,0,0,1,0-.27.18.18,0,0,1,.14-.06h.71a.54.54,0,0,1,.31.09.59.59,0,0,1,.21.23l.39.79a.88.88,0,0,1,0,.8l-.39.79a.52.52,0,0,1-.21.23.58.58,0,0,1-.32.09h-.71a.18.18,0,0,1-.14-.06A.2.2,0,0,1,38.26,52.59Zm.77-.19h.14a.17.17,0,0,0,.17-.11l.39-.79a.62.62,0,0,0,.05-.22.5.5,0,0,0-.05-.22l-.39-.79a.17.17,0,0,0-.17-.11H39Z" style="fill: #f6f6f4"/>
      <path d="M41,52.59l.78-2.68a.2.2,0,0,1,.07-.1.18.18,0,0,1,.11,0,.2.2,0,0,1,.12,0,.17.17,0,0,1,.07.1l.77,2.68a.19.19,0,0,1-.06.14.19.19,0,0,1-.14.06.18.18,0,0,1-.12,0,.19.19,0,0,1-.07-.1l-.15-.52h-.85l-.15.52a.19.19,0,0,1-.07.1.19.19,0,0,1-.12,0,.2.2,0,0,1-.14-.06A.19.19,0,0,1,41,52.59Zm.65-.85h.62L42,50.66Z" style="fill: #f6f6f4"/>
    </g>
    <g>
      <path d="M41.12,43.43l.78-2.68a.2.2,0,0,1,.07-.1.18.18,0,0,1,.11,0,.2.2,0,0,1,.12,0,.17.17,0,0,1,.07.1L43,43.43a.19.19,0,0,1-.06.14.19.19,0,0,1-.14.06.18.18,0,0,1-.12,0,.19.19,0,0,1-.07-.1L42.5,43h-.85l-.15.52a.19.19,0,0,1-.07.1.19.19,0,0,1-.12,0,.2.2,0,0,1-.14-.06A.19.19,0,0,1,41.12,43.43Zm.65-.85h.62l-.31-1.08Z" style="fill: #f6f6f4"/>
      <path d="M43.9,43.43a.19.19,0,0,1,.06-.14.18.18,0,0,1,.14-.06h.19V41h-.19a.18.18,0,0,1-.14-.06.2.2,0,0,1,0-.27.18.18,0,0,1,.14-.06h.71a.54.54,0,0,1,.31.09.59.59,0,0,1,.21.23l.39.79a.88.88,0,0,1,0,.8l-.39.79a.52.52,0,0,1-.21.23.58.58,0,0,1-.32.09h-.71a.18.18,0,0,1-.14-.06A.2.2,0,0,1,43.9,43.43Zm.77-.19h.14a.17.17,0,0,0,.17-.11l.39-.79a.62.62,0,0,0,.05-.22.5.5,0,0,0-.05-.22L45,41.11A.17.17,0,0,0,44.8,41h-.14Z" style="fill: #f6f6f4"/>
      <path d="M46.66,43.43a.19.19,0,0,1,.06-.14.18.18,0,0,1,.14-.06H47V41h-.19a.18.18,0,0,1-.14-.06.2.2,0,0,1,0-.27.18.18,0,0,1,.14-.06h.71a.54.54,0,0,1,.31.09.58.58,0,0,1,.21.23l.39.79a.88.88,0,0,1,0,.8l-.39.79a.52.52,0,0,1-.21.23.58.58,0,0,1-.32.09h-.71a.18.18,0,0,1-.14-.06A.2.2,0,0,1,46.66,43.43Zm.77-.19h.14a.17.17,0,0,0,.17-.11l.39-.79a.61.61,0,0,0,.05-.22.49.49,0,0,0-.05-.22l-.39-.79a.17.17,0,0,0-.17-.11h-.14Z" style="fill: #f6f6f4"/>
      <path d="M49.43,43.43V40.61h1.33a.55.55,0,0,1,.41.17.57.57,0,0,1,.17.41v.2a.6.6,0,0,1-.58.59h-.22l.78,1.35a.22.22,0,0,1,0,.1.19.19,0,0,1-.06.14.19.19,0,0,1-.14.06.19.19,0,0,1-.17-.1L50.08,42h-.26v1.44a.2.2,0,0,1-.2.2.18.18,0,0,1-.14-.06A.2.2,0,0,1,49.43,43.43Zm.39-1.83h.94a.19.19,0,0,0,.14-.06A.19.19,0,0,0,51,41.4v-.2a.19.19,0,0,0-.06-.14.19.19,0,0,0-.14-.06h-.94Z" style="fill: #f6f6f4"/>
    </g>
    <g>
      <path d="M56.81,43.43a.19.19,0,0,1,.06-.14.18.18,0,0,1,.14-.06h1.33v-.73a.19.19,0,0,0-.06-.14.19.19,0,0,0-.14-.06h-.75a.19.19,0,0,1-.19-.19.19.19,0,0,1,.05-.14.18.18,0,0,1,.14-.06h.75a.2.2,0,0,0,.2-.19V41H57a.18.18,0,0,1-.14-.06.2.2,0,0,1,0-.27.18.18,0,0,1,.14-.06h1.33a.37.37,0,0,1,.27.12.38.38,0,0,1,.12.28v.73a.56.56,0,0,1-.15.39.56.56,0,0,1,.15.39v.73a.4.4,0,0,1-.39.39H57a.18.18,0,0,1-.14-.06A.2.2,0,0,1,56.81,43.43Z" style="fill: #f6f6f4"/>
      <path d="M59.58,41.5v-.7a.19.19,0,0,1,.06-.14.18.18,0,0,1,.14-.06.2.2,0,0,1,.2.19v.62l.57,1.46.57-1.46V40.8a.19.19,0,0,1,.06-.14.18.18,0,0,1,.14-.06.2.2,0,0,1,.2.19v.7l-.77,2a.2.2,0,0,1-.36,0Z" style="fill: #f6f6f4"/>
      <path d="M62.35,42.92v-.8a.53.53,0,0,1,.06-.25.64.64,0,0,1,.11-.16l.17-.15a.54.54,0,0,1,.37-.14h.57l.09,0,.07,0,.07,0,.06,0,.06.05.06,0a.56.56,0,0,1,.2.44v.8a.83.83,0,0,1,0,.11.31.31,0,0,1,0,.1l0,.08-.06.08-.06.06-.07.07-.07.05a.54.54,0,0,1-.37.14h-.6l-.09,0-.09,0-.07-.05-.07-.06-.07-.06A.55.55,0,0,1,62.35,42.92Zm.39,0a.18.18,0,0,0,0,.09l0,.07.07.06.06,0a.19.19,0,0,0,.12,0h.48l.1,0,.1-.08.06-.06a.17.17,0,0,0,.07-.14v-.8a.29.29,0,0,0-.12-.21.33.33,0,0,0-.21-.1h-.48l-.1,0-.1.08L62.8,42a.18.18,0,0,0-.07.14Z" style="fill: #f6f6f4"/>
    </g>
    <g>
      <path d="M49.68,52.2v-1a.76.76,0,0,1,.16-.48l.52-.68a.55.55,0,0,1,.46-.22h.57a.18.18,0,0,1,.14.06.19.19,0,0,1,0,.27.19.19,0,0,1-.14.06h-.57a.18.18,0,0,0-.15.08l-.52.67a.39.39,0,0,0-.08.24v1a.19.19,0,0,0,.06.14.18.18,0,0,0,.13.06H51a.19.19,0,0,0,.14-.06.19.19,0,0,0,.06-.14v-.4h-.38a.18.18,0,0,1-.14-.06.19.19,0,0,1-.05-.14.19.19,0,0,1,.05-.14.18.18,0,0,1,.14-.06h.77v.79a.57.57,0,0,1-.17.41.56.56,0,0,1-.41.17h-.75a.55.55,0,0,1-.41-.17A.57.57,0,0,1,49.68,52.2Z" style="fill: #f6f6f4"/>
      <path d="M52.45,52.59V49.77H53l1,2.33V50a.19.19,0,0,1,.06-.14.18.18,0,0,1,.14-.06.2.2,0,0,1,.2.19v2.82h-.51l-1-2.32v2.12a.2.2,0,0,1-.06.14.19.19,0,0,1-.14.06.18.18,0,0,1-.14-.06A.2.2,0,0,1,52.45,52.59Z" style="fill: #f6f6f4"/>
      <path d="M55.22,52.59a.19.19,0,0,1,.06-.14.18.18,0,0,1,.14-.06h.19V50.16h-.19a.18.18,0,0,1-.14-.06.2.2,0,0,1,0-.27.18.18,0,0,1,.14-.06h.71a.54.54,0,0,1,.31.09.58.58,0,0,1,.21.23l.39.79a.88.88,0,0,1,0,.8l-.39.79a.52.52,0,0,1-.21.23.58.58,0,0,1-.32.09h-.71a.18.18,0,0,1-.14-.06A.2.2,0,0,1,55.22,52.59Zm.77-.19h.14a.17.17,0,0,0,.17-.11l.39-.79a.61.61,0,0,0,.05-.22.49.49,0,0,0-.05-.22l-.39-.79a.17.17,0,0,0-.17-.11H56Z" style="fill: #f6f6f4"/>
    </g>
    <g>
      <path d="M64.43,50.66V50a.19.19,0,0,1,.06-.14.18.18,0,0,1,.14-.06.2.2,0,0,1,.2.19v.62L65.39,52,66,50.58V50a.19.19,0,0,1,.05-.14.18.18,0,0,1,.14-.06.18.18,0,0,1,.14.06.19.19,0,0,1,.06.14v.7l-.77,2a.2.2,0,0,1-.36,0Z" style="fill: #f6f6f4"/>
      <path d="M67.2,52.59a.19.19,0,0,1,.06-.14.18.18,0,0,1,.14-.06H68V50.16h-.57a.18.18,0,0,1-.14-.06.2.2,0,0,1,0-.27.18.18,0,0,1,.14-.06h1.52a.2.2,0,0,1,.2.19.2.2,0,0,1-.2.2h-.57v2.24h.57a.19.19,0,0,1,.14.06.18.18,0,0,1,.06.14.19.19,0,0,1-.06.14.19.19,0,0,1-.14.06H67.39a.18.18,0,0,1-.14-.06A.2.2,0,0,1,67.2,52.59Z" style="fill: #f6f6f4"/>
      <path d="M70,52.59V49.77h.51l1,2.33V50a.19.19,0,0,1,.05-.14.18.18,0,0,1,.14-.06.18.18,0,0,1,.14.06.19.19,0,0,1,.06.14v2.82h-.51l-1-2.32v2.12a.19.19,0,0,1-.06.14.19.19,0,0,1-.14.06.18.18,0,0,1-.14-.06A.2.2,0,0,1,70,52.59Z" style="fill: #f6f6f4"/>
    </g>
    <g>
      <path d="M59.29,20v-.06a.08.08,0,0,1,0,0l0,0h.52v.43a.08.08,0,0,1,0,.06l-.21.22v.33a.08.08,0,0,1,0,.05l0,0,0,0a.08.08,0,0,1,0-.05v-.36a.08.08,0,0,1,0-.06l.21-.22V20h-.35a.07.07,0,0,1,0,0l0,0,0,0A.08.08,0,0,1,59.29,20Z" style="fill: #fbfcfe"/>
      <path d="M60.13,20.84a.08.08,0,0,1,0-.05l0,0h0l.11.05h.28v-.34h-.35v-.63h.41l0,0a.08.08,0,0,1,0,0,.08.08,0,0,1,0,.05l0,0h-.29v.34h.23a.11.11,0,0,1,.08,0,.15.15,0,0,1,0,.1v.34a.15.15,0,0,1,0,.1.11.11,0,0,1-.08,0h-.35l0,0,0,0A.07.07,0,0,1,60.13,20.84Z" style="fill: #fbfcfe"/>
      <path d="M61,20.83V20a.16.16,0,0,1,0-.1.1.1,0,0,1,.08,0h.35a.11.11,0,0,1,.08,0,.16.16,0,0,1,0,.1v.82a.15.15,0,0,1,0,.1.11.11,0,0,1-.08,0H61.1a.1.1,0,0,1-.08,0A.15.15,0,0,1,61,20.83Zm.12,0h.35V20H61.1Z" style="fill: #fbfcfe"/>
      <path d="M61.82,21v-.48a.15.15,0,0,1,0-.1.11.11,0,0,1,.08,0h.35V20h-.41l0,0a.08.08,0,0,1,0-.05.08.08,0,0,1,0,0l0,0h.41a.11.11,0,0,1,.08,0,.16.16,0,0,1,0,.1v.34a.15.15,0,0,1,0,.1.1.1,0,0,1-.08,0h-.35v.34h.4l0,0a.08.08,0,0,1,0,0,.08.08,0,0,1,0,.05l0,0Z" style="fill: #fbfcfe"/>
    </g>
    <g>
      <path d="M26.59,33.39a.07.07,0,0,1,0,0l0,0h.17v-.82h-.17l0,0a.08.08,0,0,1,0-.05.08.08,0,0,1,0,0l0,0h.29v1h.11V33a.08.08,0,0,1,0-.05l0,0,0,0a.08.08,0,0,1,0,.05v.36a.08.08,0,0,1,0,.05l0,0h-.46l0,0A.08.08,0,0,1,26.59,33.39Z" style="fill: #fbfcfe"/>
      <path d="M27.44,33.32v-.82a.15.15,0,0,1,0-.1.11.11,0,0,1,.08,0h.35a.11.11,0,0,1,.08,0,.15.15,0,0,1,0,.1v.82a.15.15,0,0,1,0,.1.11.11,0,0,1-.08,0h-.35a.1.1,0,0,1-.08,0A.15.15,0,0,1,27.44,33.32Zm.12,0h.35v-.82h-.35Z" style="fill: #fbfcfe"/>
      <path d="M28.28,33.32v-.82a.15.15,0,0,1,0-.1.11.11,0,0,1,.08,0h.35a.11.11,0,0,1,.08,0,.15.15,0,0,1,0,.1v.82a.15.15,0,0,1,0,.1.11.11,0,0,1-.08,0H28.4a.1.1,0,0,1-.08,0A.15.15,0,0,1,28.28,33.32Zm.12,0h.35v-.82H28.4Z" style="fill: #fbfcfe"/>
      <path d="M29.12,33.46V33a.15.15,0,0,1,0-.1.11.11,0,0,1,.08,0h.35v-.34h-.41l0,0a.08.08,0,0,1,0-.05.08.08,0,0,1,0,0l0,0h.41a.11.11,0,0,1,.08,0,.15.15,0,0,1,0,.1v.34a.15.15,0,0,1,0,.1.1.1,0,0,1-.08,0h-.35v.34h.4l0,0a.07.07,0,0,1,0,0,.08.08,0,0,1,0,.05l0,0Z" style="fill: #fbfcfe"/>
    </g>
    <g>
      <path d="M18.75,32.63a.08.08,0,0,1,0,0l0,0h-.17v.82h.17l0,0a.08.08,0,0,1,0,.05.07.07,0,0,1,0,0l0,0H18.4v-1h-.11V33a.08.08,0,0,1,0,.05l0,0,0,0a.08.08,0,0,1,0-.05v-.36a.08.08,0,0,1,0-.05l0,0h.46l0,0A.08.08,0,0,1,18.75,32.63Z" style="fill: #fbfcfe"/>
      <path d="M17.91,32.7v.82a.15.15,0,0,1,0,.1.1.1,0,0,1-.08,0h-.35a.11.11,0,0,1-.08,0,.15.15,0,0,1,0-.1V32.7a.16.16,0,0,1,0-.1.11.11,0,0,1,.08,0h.35a.11.11,0,0,1,.08,0A.16.16,0,0,1,17.91,32.7Zm-.12,0h-.35v.82h.35Z" style="fill: #fbfcfe"/>
      <path d="M17.06,32.7v.82a.15.15,0,0,1,0,.1.1.1,0,0,1-.08,0H16.6a.11.11,0,0,1-.08,0,.15.15,0,0,1,0-.1V32.7a.16.16,0,0,1,0-.1.11.11,0,0,1,.08,0h.35a.11.11,0,0,1,.08,0A.16.16,0,0,1,17.06,32.7Zm-.12,0H16.6v.82h.35Z" style="fill: #fbfcfe"/>
      <path d="M16.22,32.56V33a.16.16,0,0,1,0,.1.11.11,0,0,1-.08,0h-.35v.34h.41l0,0a.08.08,0,0,1,0,.05.07.07,0,0,1,0,0l0,0h-.41a.11.11,0,0,1-.08,0,.15.15,0,0,1,0-.1v-.34a.16.16,0,0,1,0-.1.11.11,0,0,1,.08,0h.35V32.7h-.4l0,0a.08.08,0,0,1,0,0,.08.08,0,0,1,0-.05l0,0Z" style="fill: #fbfcfe"/>
    </g>
    <g>
      <path d="M15.65,38.89a.08.08,0,0,1,0,0l0,0h.17V38h-.17l0,0a.08.08,0,0,1,0-.05.07.07,0,0,1,0,0l0,0H16v1h.11v-.29a.08.08,0,0,1,0-.05l0,0,0,0a.08.08,0,0,1,0,.05v.36a.08.08,0,0,1,0,.05l0,0h-.46l0,0A.08.08,0,0,1,15.65,38.89Z" style="fill: #fbfcfe"/>
      <path d="M16.5,38.81V38a.16.16,0,0,1,0-.1.1.1,0,0,1,.08,0H17a.11.11,0,0,1,.08,0,.16.16,0,0,1,0,.1v.82a.15.15,0,0,1,0,.1A.11.11,0,0,1,17,39h-.35a.11.11,0,0,1-.08,0A.15.15,0,0,1,16.5,38.81Zm.12,0H17V38h-.35Z" style="fill: #fbfcfe"/>
      <path d="M17.34,38.81V38a.16.16,0,0,1,0-.1.1.1,0,0,1,.08,0h.35a.11.11,0,0,1,.08,0,.16.16,0,0,1,0,.1v.82a.15.15,0,0,1,0,.1.11.11,0,0,1-.08,0h-.35a.11.11,0,0,1-.08,0A.15.15,0,0,1,17.34,38.81Zm.12,0h.35V38h-.35Z" style="fill: #fbfcfe"/>
      <path d="M18.19,38.89a.08.08,0,0,1,0,0l0,0h.17V38h-.17l0,0a.08.08,0,0,1,0-.05.07.07,0,0,1,0,0l0,0h.29v1h.11v-.29a.08.08,0,0,1,0-.05l0,0,0,0a.08.08,0,0,1,0,.05v.36a.08.08,0,0,1,0,.05l0,0h-.46l0,0A.08.08,0,0,1,18.19,38.89Z" style="fill: #fbfcfe"/>
    </g>
    <g>
      <path d="M26.83,18.18a.08.08,0,0,1,0,0l0,0h.17v-.82h-.17l0,0a.08.08,0,0,1,0-.05.08.08,0,0,1,0,0l0,0h.29v1h.11v-.29a.08.08,0,0,1,0-.05l0,0,0,0a.08.08,0,0,1,0,.05v.36a.08.08,0,0,1,0,.05l0,0h-.46l0,0A.08.08,0,0,1,26.83,18.18Z" style="fill: #fbfcfe"/>
      <path d="M27.67,18.1v-.82a.16.16,0,0,1,0-.1.1.1,0,0,1,.08,0h.35a.11.11,0,0,1,.08,0,.16.16,0,0,1,0,.1v.82a.15.15,0,0,1,0,.1.11.11,0,0,1-.08,0h-.35a.1.1,0,0,1-.08,0A.15.15,0,0,1,27.67,18.1Zm.12,0h.35v-.82h-.35Z" style="fill: #fbfcfe"/>
      <path d="M28.52,18.1v-.82a.16.16,0,0,1,0-.1.1.1,0,0,1,.08,0H29a.11.11,0,0,1,.08,0,.16.16,0,0,1,0,.1v.82a.15.15,0,0,1,0,.1.11.11,0,0,1-.08,0h-.35a.1.1,0,0,1-.08,0A.15.15,0,0,1,28.52,18.1Zm.12,0H29v-.82h-.35Z" style="fill: #fbfcfe"/>
      <path d="M29.36,18.25v-.48a.15.15,0,0,1,0-.1.11.11,0,0,1,.08,0h.35v-.34h-.41l0,0a.08.08,0,0,1,0-.05.08.08,0,0,1,0,0l0,0h.41a.11.11,0,0,1,.08,0,.16.16,0,0,1,0,.1v.34a.15.15,0,0,1,0,.1.1.1,0,0,1-.08,0h-.35v.34h.4l0,0a.08.08,0,0,1,0,0,.08.08,0,0,1,0,.05l0,0Z" style="fill: #fbfcfe"/>
    </g>
    <g>
      <path d="M15.31,18.18a.08.08,0,0,1,0,0l0,0h.17v-.82h-.17l0,0a.08.08,0,0,1,0-.05.08.08,0,0,1,0,0l0,0h.29v1h.11v-.29a.08.08,0,0,1,0-.05l0,0,0,0a.08.08,0,0,1,0,.05v.36a.08.08,0,0,1,0,.05l0,0h-.46l0,0A.08.08,0,0,1,15.31,18.18Z" style="fill: #fbfcfe"/>
      <path d="M16.15,18.1v-.82a.16.16,0,0,1,0-.1.1.1,0,0,1,.08,0h.35a.11.11,0,0,1,.08,0,.16.16,0,0,1,0,.1v.82a.15.15,0,0,1,0,.1.11.11,0,0,1-.08,0h-.35a.1.1,0,0,1-.08,0A.15.15,0,0,1,16.15,18.1Zm.12,0h.35v-.82h-.35Z" style="fill: #fbfcfe"/>
      <path d="M17,18.1v-.82a.16.16,0,0,1,0-.1.1.1,0,0,1,.08,0h.35a.11.11,0,0,1,.08,0,.16.16,0,0,1,0,.1v.82a.15.15,0,0,1,0,.1.11.11,0,0,1-.08,0h-.35a.1.1,0,0,1-.08,0A.15.15,0,0,1,17,18.1Zm.12,0h.35v-.82h-.35Z" style="fill: #fbfcfe"/>
      <path d="M17.84,18.25v-.48a.15.15,0,0,1,0-.1.11.11,0,0,1,.08,0h.35v-.34H17.9l0,0a.08.08,0,0,1,0-.05.08.08,0,0,1,0,0l0,0h.41a.11.11,0,0,1,.08,0,.16.16,0,0,1,0,.1v.34a.15.15,0,0,1,0,.1.1.1,0,0,1-.08,0H18v.34h.4l0,0a.08.08,0,0,1,0,0,.08.08,0,0,1,0,.05l0,0Z" style="fill: #fbfcfe"/>
    </g>
    <g>
      <path d="M60.65,26.42a.08.08,0,0,1,0,0l0,0h-.17v.82h.17l0,0a.08.08,0,0,1,0,.05.08.08,0,0,1,0,0l0,0H60.3v-1h-.11v.29a.08.08,0,0,1,0,.05l0,0,0,0a.08.08,0,0,1,0-.05v-.36a.08.08,0,0,1,0-.05l0,0h.46l0,0A.08.08,0,0,1,60.65,26.42Z" style="fill: #fbfcfe"/>
      <path d="M59.8,26.5v.82a.16.16,0,0,1,0,.1.1.1,0,0,1-.08,0h-.35a.11.11,0,0,1-.08,0,.16.16,0,0,1,0-.1V26.5a.15.15,0,0,1,0-.1.11.11,0,0,1,.08,0h.35a.1.1,0,0,1,.08,0A.15.15,0,0,1,59.8,26.5Zm-.12,0h-.35v.82h.35Z" style="fill: #fbfcfe"/>
      <path d="M58.93,26.71v.68a.08.08,0,0,1,0,0l0,0,0,0a.08.08,0,0,1,0,0v-.53h-.23v.41a.08.08,0,0,1,0,.05l0,0,0,0a.08.08,0,0,1,0-.05v-.41l0,0a.08.08,0,0,1,0-.05.08.08,0,0,1,0-.05l0,0v-.29a.08.08,0,0,1,0-.05l0,0,0,0a.08.08,0,0,1,0,.05v.29Z" style="fill: #fbfcfe"/>
    </g>
    <polyline points="30.94 27.67 30.94 30.41 27.21 30.41" style="fill: none;stroke: #e7e6e8;stroke-linecap: round;stroke-linejoin: round;stroke-width: 0.5px"/>
    <polyline points="27 20.97 30.94 20.97 30.94 23.55" style="fill: none;stroke: #e7e6e8;stroke-linecap: round;stroke-linejoin: round;stroke-width: 0.5px"/>
    <line style="fill: none;stroke: #e7e6e8;stroke-linecap: round;stroke-linejoin: round;stroke-width: 0.5px" x1="14.94" x2="18.66" y1="20.97" y2="20.97"/>
    <rect height="1.52" style="fill: #e9e1d9" width="1.52" x="49.36" y="17.17"/>
    <rect height="1.79" style="fill: #e9e1d9" width="1.52" x="49.36" y="24.5"/>
    <rect height="0.77" rx="0.15" ry="0.15" style="fill: #6c738f" width="1.4" x="65.09" y="29.48"/>
    <rect height="3.29" rx="0.42" ry="0.42" style="fill: #eff2f6" width="1.67" x="64.96" y="29.75"/>
    <rect height="1.17" rx="0.24" ry="0.24" style="fill: #ccc4ab" width="0.9" x="65.29" y="31.72"/>
    <rect height="0.77" rx="0.15" ry="0.15" style="fill: #6c738f" width="1.4" x="70.47" y="29.48"/>
    <rect height="3.29" rx="0.42" ry="0.42" style="fill: #eff2f6" width="1.67" x="70.33" y="29.75"/>
    <rect height="1.17" rx="0.24" ry="0.24" style="fill: #ccc4ab" width="0.9" x="70.67" y="31.72"/>
    <rect height="3.98" rx="0.94" ry="0.94" style="fill: #46424e" width="7.88" x="64.38" y="32.77"/>
    <g>
      <path d="M68.55,35.67a.09.09,0,0,1,0-.06l0,0h.19v-.93h-.19l0,0a.09.09,0,0,1,0-.06.09.09,0,0,1,0-.06l0,0h.33v1.09h.13v-.33a.09.09,0,0,1,0-.06l0,0,0,0a.09.09,0,0,1,0,.06v.41a.09.09,0,0,1,0,.06l0,0h-.52l0,0A.09.09,0,0,1,68.55,35.67Z" style="fill: #3c393b"/>
      <path d="M69.51,35.59v-.93a.17.17,0,0,1,0-.11.12.12,0,0,1,.09,0H70a.12.12,0,0,1,.09,0,.17.17,0,0,1,0,.11v.93a.18.18,0,0,1,0,.11.12.12,0,0,1-.09,0h-.39a.12.12,0,0,1-.09,0A.18.18,0,0,1,69.51,35.59Zm.13,0H70v-.93h-.39Z" style="fill: #3c393b"/>
    </g>
    <g>
      <path d="M67.75,34.81a.09.09,0,0,1,0,.06l0,0h-.46v.3a.09.09,0,0,0,0,.06l0,0h.26l0,0a.09.09,0,0,1,0,.06.09.09,0,0,1,0,.06l0,0h-.26l0,0a.09.09,0,0,0,0,.06v.3h.46l0,0a.09.09,0,0,1,0,.06.09.09,0,0,1,0,.06l0,0h-.46a.12.12,0,0,1-.09,0,.17.17,0,0,1,0-.11v-.3a.26.26,0,0,1,.05-.16.26.26,0,0,1-.05-.16v-.3a.18.18,0,0,1,0-.11.12.12,0,0,1,.09,0h.46l0,0A.09.09,0,0,1,67.75,34.81Z" style="fill: #3c393b"/>
      <path d="M66.8,34.81a.09.09,0,0,1,0,.06l0,0h-.46v.3a.09.09,0,0,0,0,.06l0,0h.26l0,0a.09.09,0,0,1,0,.06.09.09,0,0,1,0,.06l0,0h-.26l0,0a.09.09,0,0,0,0,.06v.3h.46l0,0a.09.09,0,0,1,0,.06.09.09,0,0,1,0,.06l0,0h-.46a.12.12,0,0,1-.09,0,.17.17,0,0,1,0-.11v-.3a.26.26,0,0,1,.05-.16.26.26,0,0,1-.05-.16v-.3a.18.18,0,0,1,0-.11.12.12,0,0,1,.09,0h.46l0,0A.09.09,0,0,1,66.8,34.81Z" style="fill: #3c393b"/>
    </g>
    <rect height="1.09" style="fill: #76756a" width="1.09" x="65.09" y="37.21"/>
    <rect height="1.09" style="fill: #76756a" width="1.09" x="67.86" y="37.21"/>
    <rect height="1.09" style="fill: #76756a" width="1.09" x="70.62" y="37.21"/>
    <rect height="1.97" style="fill: #ccc3af" width="1.09" x="65.09" y="38.69"/>
    <rect height="1.97" style="fill: #ccc3af" width="1.09" x="67.86" y="38.69"/>
    <rect height="1.97" style="fill: #ccc3af" width="1.09" x="70.62" y="38.69"/>
    <rect height="8.48" style="fill: #26242d" width="8.29" x="41.83" y="17.17"/>
    <g>
      <rect height="0.83" style="fill: #e9e1d9" width="0.54" x="43.54" y="16.33"/>
      <rect height="0.83" style="fill: #e9e1d9" width="0.54" x="44.71" y="16.33"/>
      <rect height="0.83" style="fill: #e9e1d9" width="0.54" x="45.82" y="16.33"/>
      <rect height="0.83" style="fill: #e9e1d9" width="0.54" x="46.95" y="16.33"/>
      <rect height="0.83" style="fill: #e9e1d9" width="0.54" x="48.09" y="16.33"/>
    </g>
    <g>
      <rect height="1.15" style="fill: #e9e1d9" width="0.54" x="43.54" y="25.65"/>
      <rect height="1.15" style="fill: #e9e1d9" width="0.54" x="44.71" y="25.65"/>
      <rect height="1.15" style="fill: #e9e1d9" width="0.54" x="45.82" y="25.65"/>
      <rect height="1.15" style="fill: #e9e1d9" width="0.54" x="46.95" y="25.65"/>
      <rect height="1.15" style="fill: #e9e1d9" width="0.54" x="48.09" y="25.65"/>
    </g>
    <g>
      <rect height="0.96" style="fill: #e9e1d9" transform="translate(17.54 65.17) rotate(-90)" width="0.54" x="41.08" y="23.34"/>
      <rect height="0.96" style="fill: #e9e1d9" transform="translate(18.7 64) rotate(-90)" width="0.54" x="41.08" y="22.17"/>
      <rect height="0.96" style="fill: #e9e1d9" transform="translate(19.82 62.89) rotate(-90)" width="0.54" x="41.08" y="21.06"/>
      <rect height="0.96" style="fill: #e9e1d9" transform="translate(20.94 61.77) rotate(-90)" width="0.54" x="41.08" y="19.93"/>
      <rect height="0.96" style="fill: #e9e1d9" transform="translate(22.09 60.62) rotate(-90)" width="0.54" x="41.08" y="18.79"/>
    </g>
    <g>
      <rect height="0.96" style="fill: #e9e1d9" transform="translate(26.79 74.42) rotate(-90)" width="0.54" x="50.33" y="23.34"/>
      <rect height="0.96" style="fill: #e9e1d9" transform="translate(27.95 73.25) rotate(-90)" width="0.54" x="50.33" y="22.17"/>
      <rect height="0.96" style="fill: #e9e1d9" transform="translate(29.07 72.14) rotate(-90)" width="0.54" x="50.33" y="21.06"/>
      <rect height="0.96" style="fill: #e9e1d9" transform="translate(30.19 71.02) rotate(-90)" width="0.54" x="50.33" y="19.93"/>
      <rect height="0.96" style="fill: #e9e1d9" transform="translate(31.34 69.87) rotate(-90)" width="0.54" x="50.33" y="18.79"/>
    </g>
  </g>
  <g id="Connectors">
    <g>
      <circle cx="2.73" cy="3.6" id="circuitoCon_ELEC11" r="1.9" style="fill: none;stroke: #e8e5df;stroke-miterlimit: 10"/>
      <circle cx="9.93" cy="3.6" id="circuitoCon_ELEC10" r="1.9" style="fill: none;stroke: #e8e5df;stroke-miterlimit: 10"/>
      <circle cx="17.13" cy="3.6" id="circuitoCon_ELEC9" r="1.9" style="fill: none;stroke: #e8e5df;stroke-miterlimit: 10"/>
      <circle cx="24.32" cy="3.6" id="circuitoCon_ELEC8" r="1.9" style="fill: none;stroke: #e8e5df;stroke-miterlimit: 10"/>
      <circle cx="31.52" cy="3.6" id="circuitoCon_ELEC7" r="1.9" style="fill: none;stroke: #e8e5df;stroke-miterlimit: 10"/>
      <circle cx="38.73" cy="3.6" id="circuitoCon_ELEC6" r="1.9" style="fill: none;stroke: #e8e5df;stroke-miterlimit: 10"/>
      <circle cx="45.93" cy="3.6" id="circuitoCon_ELEC5" r="1.9" style="fill: none;stroke: #e8e5df;stroke-miterlimit: 10"/>
      <circle cx="53.13" cy="3.6" id="circuitoCon_ELEC4" r="1.9" style="fill: none;stroke: #e8e5df;stroke-miterlimit: 10"/>
      <circle cx="60.33" cy="3.6" id="circuitoCon_ELEC3" r="1.9" style="fill: none;stroke: #e8e5df;stroke-miterlimit: 10"/>
      <circle cx="67.53" cy="3.6" id="circuitoCon_ELEC2" r="1.9" style="fill: none;stroke: #e8e5df;stroke-miterlimit: 10"/>
      <circle cx="74.72" cy="3.6" id="circuitoCon_ELEC1" r="1.9" style="fill: none;stroke: #e8e5df;stroke-miterlimit: 10"/>
      <circle cx="81.92" cy="3.6" id="circuitoCon_ELEC0" r="1.9" style="fill: none;stroke: #e8e5df;stroke-miterlimit: 10"/>
      <circle cx="89.13" cy="3.6" id="connector24pin" r="1.9" style="fill: none;stroke: #e8e5df;stroke-miterlimit: 10"/>
      <circle cx="67.53" cy="46.8" id="circuitoCon_VIN" r="1.97" style="fill: none;stroke: #e8e5df;stroke-miterlimit: 10"/>
      <circle cx="60.33" cy="46.8" id="circuitoCon_3.3V" r="1.97" style="fill: none;stroke: #e8e5df;stroke-miterlimit: 10"/>
      <circle cx="53.13" cy="46.8" id="circuitoCon_GND" r="1.97" style="fill: none;stroke: #e8e5df;stroke-miterlimit: 10"/>
      <circle cx="45.93" cy="46.8" id="circuitoCon_ADDR" r="1.97" style="fill: none;stroke: #e8e5df;stroke-miterlimit: 10"/>
      <circle cx="38.73" cy="46.8" id="circuitoCon_SDA" r="1.97" style="fill: none;stroke: #e8e5df;stroke-miterlimit: 10"/>
      <circle cx="31.52" cy="46.8" id="circuitoCon_SCL" r="1.97" style="fill: none;stroke: #e8e5df;stroke-miterlimit: 10"/>
      <circle cx="24.33" cy="46.8" id="circuitoCon_IRQ" r="1.97" style="fill: none;stroke: #e8e5df;stroke-miterlimit: 10"/>
    </g>
  </g>
</svg>