<?xml version="1.0" ?><svg height="28.02mm" viewBox="0 0 42.88 79.43" width="15.13mm" xmlns="http://www.w3.org/2000/svg" xmlns:xlink="http://www.w3.org/1999/xlink">
  <defs>
    <linearGradient gradientUnits="userSpaceOnUse" id="linear-gradient" x2="42.88" y1="34.81" y2="34.81">
      <stop offset="0" stop-color="#858585"/>
      <stop offset="0.07" stop-color="#85827f"/>
      <stop offset="0.27" stop-color="#857e76"/>
      <stop offset="0.54" stop-color="#857d73"/>
      <stop offset="0.76" stop-color="#857f77"/>
      <stop offset="0.96" stop-color="#858482"/>
      <stop offset="1" stop-color="#858585"/>
    </linearGradient>
  </defs>
  <title>DHT22 Humidity and Temperature Sensor</title>
  <g data-name="Layer 11" id="Layer_11">
    <path d="M41.09,70H1.91A1.78,1.78,0,0,1,.13,68.22V13.75H42.88V68.22A1.78,1.78,0,0,1,41.09,70Z" style="fill: #d8d3d0"/>
    <path d="M41.6,11.29,36.22.91A1.69,1.69,0,0,0,34.73,0H8.47A1.69,1.69,0,0,0,7,.89L1.45,11.27.13,13.75H42.88Zm-16-2.51a4.13,4.13,0,1,1-4.73-4.73A4.14,4.14,0,0,1,25.57,8.78Z" style="fill: #cec8c6"/>
  </g>
  <g data-name="Layer 12" id="Layer_12">
    <path d="M0,24.61A.57.57,0,0,1,.57,24h8a.57.57,0,0,1,.57.57v2.28a.57.57,0,0,1-.57.57h-8A.57.57,0,0,1,0,26.89ZM0,34a.57.57,0,0,0,.57.57h8A.57.57,0,0,0,9.13,34V31.71a.57.57,0,0,0-.57-.57h-8a.57.57,0,0,0-.57.57Zm0,0a.57.57,0,0,0,.57.57H3A.57.57,0,0,0,3.54,34V31.71A.57.57,0,0,0,3,31.15H.57a.57.57,0,0,0-.57.57Zm0,7.1a.57.57,0,0,0,.57.57h8a.57.57,0,0,0,.57-.57V38.82a.57.57,0,0,0-.57-.57h-8a.57.57,0,0,0-.57.57Zm0,0a.57.57,0,0,0,.57.57H3a.57.57,0,0,0,.57-.57V38.82A.57.57,0,0,0,3,38.25H.57a.57.57,0,0,0-.57.57Zm0,7.1a.57.57,0,0,0,.57.57h8a.57.57,0,0,0,.57-.57V45.92a.57.57,0,0,0-.57-.57h-8a.57.57,0,0,0-.57.57Zm0,0a.57.57,0,0,0,.57.57H3a.57.57,0,0,0,.57-.57V45.92A.57.57,0,0,0,3,45.35H.57a.57.57,0,0,0-.57.57Zm0,7.1a.57.57,0,0,0,.57.57h8a.57.57,0,0,0,.57-.57V53a.57.57,0,0,0-.57-.57h-8A.57.57,0,0,0,0,53Zm0,0a.57.57,0,0,0,.57.57H3a.57.57,0,0,0,.57-.57V53A.57.57,0,0,0,3,52.46H.57A.57.57,0,0,0,0,53ZM42.88,53a.57.57,0,0,0-.57-.57h-8a.57.57,0,0,0-.57.57v2.28a.57.57,0,0,0,.57.57h8a.57.57,0,0,0,.57-.57Zm0,0a.57.57,0,0,0-.57-.57H39.9a.57.57,0,0,0-.57.57v2.28a.57.57,0,0,0,.57.57h2.41a.57.57,0,0,0,.57-.57Zm0-7.1a.57.57,0,0,0-.57-.57h-8a.57.57,0,0,0-.57.57V48.2a.57.57,0,0,0,.57.57h8a.57.57,0,0,0,.57-.57Zm0,0a.57.57,0,0,0-.57-.57H39.9a.57.57,0,0,0-.57.57V48.2a.57.57,0,0,0,.57.57h2.41a.57.57,0,0,0,.57-.57Zm0-7.1a.57.57,0,0,0-.57-.57h-8a.57.57,0,0,0-.57.57V41.1a.57.57,0,0,0,.57.57h8a.57.57,0,0,0,.57-.57Zm0,0a.57.57,0,0,0-.57-.57H39.9a.57.57,0,0,0-.57.57V41.1a.57.57,0,0,0,.57.57h2.41a.57.57,0,0,0,.57-.57Zm0-7.1a.57.57,0,0,0-.57-.57h-8a.57.57,0,0,0-.57.57V34a.57.57,0,0,0,.57.57h8a.57.57,0,0,0,.57-.57Zm0,0a.57.57,0,0,0-.57-.57H39.9a.57.57,0,0,0-.57.57V34a.57.57,0,0,0,.57.57h2.41a.57.57,0,0,0,.57-.57Zm0-7.1a.57.57,0,0,0-.57-.57h-8a.57.57,0,0,0-.57.57v2.28a.57.57,0,0,0,.57.57h8a.57.57,0,0,0,.57-.57Zm0,0a.57.57,0,0,0-.57-.57H39.9a.57.57,0,0,0-.57.57v2.28a.57.57,0,0,0,.57.57h2.41a.57.57,0,0,0,.57-.57Zm-12.65,0a.57.57,0,0,0-.57-.57H27.38a.57.57,0,0,0-.57.57v2.28a.57.57,0,0,0,.57.57h2.28a.57.57,0,0,0,.57-.57Zm-7,0a.57.57,0,0,0-.57-.57H20.36a.57.57,0,0,0-.57.57v2.28a.57.57,0,0,0,.57.57h2.28a.57.57,0,0,0,.57-.57Zm-7,0A.57.57,0,0,0,15.6,24H13.32a.57.57,0,0,0-.57.57v2.28a.57.57,0,0,0,.57.57H15.6a.57.57,0,0,0,.57-.57Zm14.07,7.1a.57.57,0,0,0-.57-.57H27.39a.57.57,0,0,0-.57.57V34a.57.57,0,0,0,.57.57h2.28a.57.57,0,0,0,.57-.57Zm-7,0a.57.57,0,0,0-.57-.57H20.37a.57.57,0,0,0-.57.57V34a.57.57,0,0,0,.57.57h2.28a.57.57,0,0,0,.57-.57Zm-7,0a.57.57,0,0,0-.57-.57H13.33a.57.57,0,0,0-.57.57V34a.57.57,0,0,0,.57.57h2.28a.57.57,0,0,0,.57-.57Zm14.07,7.1a.57.57,0,0,0-.57-.57H27.4a.57.57,0,0,0-.57.57V41.1a.57.57,0,0,0,.57.57h2.28a.57.57,0,0,0,.57-.57Zm-7,0a.57.57,0,0,0-.57-.57H20.38a.57.57,0,0,0-.57.57V41.1a.57.57,0,0,0,.57.57h2.28a.57.57,0,0,0,.57-.57Zm-7,0a.57.57,0,0,0-.57-.57H13.34a.57.57,0,0,0-.57.57V41.1a.57.57,0,0,0,.57.57h2.28a.57.57,0,0,0,.57-.57Zm14.07,7.1a.57.57,0,0,0-.57-.57H27.41a.57.57,0,0,0-.57.57V48.2a.57.57,0,0,0,.57.57h2.28a.57.57,0,0,0,.57-.57Zm-7,0a.57.57,0,0,0-.57-.57H20.39a.57.57,0,0,0-.57.57V48.2a.57.57,0,0,0,.57.57h2.28a.57.57,0,0,0,.57-.57Zm-7,0a.57.57,0,0,0-.57-.57H13.35a.57.57,0,0,0-.57.57V48.2a.57.57,0,0,0,.57.57h2.28a.57.57,0,0,0,.57-.57ZM30.27,53a.57.57,0,0,0-.57-.57H27.42a.57.57,0,0,0-.57.57v2.28a.57.57,0,0,0,.57.57H29.7a.57.57,0,0,0,.57-.57Zm-7,0a.57.57,0,0,0-.57-.57H20.4a.57.57,0,0,0-.57.57v2.28a.57.57,0,0,0,.57.57h2.28a.57.57,0,0,0,.57-.57Zm-7,0a.57.57,0,0,0-.57-.57H13.36a.57.57,0,0,0-.57.57v2.28a.57.57,0,0,0,.57.57h2.28a.57.57,0,0,0,.57-.57Zm0-38.71a.57.57,0,0,0-.57-.57h-2.3a.57.57,0,0,0-.57.57V16.9a.57.57,0,0,0,.57.57h2.3a.57.57,0,0,0,.57-.57Zm-3.44,3.15a.57.57,0,0,0,.57.57h2.3a.57.57,0,0,0,.57-.57v-.52a.57.57,0,0,0-.57-.57h-2.3a.57.57,0,0,0-.57.57Zm10.49-3.15a.57.57,0,0,0-.57-.57h-2.3a.57.57,0,0,0-.57.57V16.9a.57.57,0,0,0,.57.57h2.3a.57.57,0,0,0,.57-.57ZM19.8,17.46a.57.57,0,0,0,.57.57h2.3a.57.57,0,0,0,.57-.57v-.52a.57.57,0,0,0-.57-.57h-2.3a.57.57,0,0,0-.57.57Zm10.45-3.15a.57.57,0,0,0-.57-.57h-2.3a.57.57,0,0,0-.57.57V16.9a.57.57,0,0,0,.57.57h2.3a.57.57,0,0,0,.57-.57Zm-3.44,3.15a.57.57,0,0,0,.57.57h2.3a.57.57,0,0,0,.57-.57v-.52a.57.57,0,0,0-.57-.57h-2.3a.57.57,0,0,0-.57.57Zm-23.35,10V24" style="fill: url(#linear-gradient)"/>
  </g>
  <g id="TEXT">
    <g>
      <path d="M5,61.55l-.21,1.17H4.3l.8-4.07h.57l.8,4.07H6l-.21-1.17Zm.43-2.33h0L5.06,61h.64Z" style="fill: #707070"/>
      <path d="M9.53,60.68c0,.89-.29,2.09-1,2.09s-1-1.2-1-2.09.29-2.08,1-2.08S9.53,59.86,9.53,60.68Zm-1.63,0c0,.51.08,1.5.59,1.5s.59-1,.59-1.5S9,59.17,8.5,59.17,7.91,60.19,7.91,60.71Z" style="fill: #707070"/>
      <path d="M10.68,61.72V61.6h.44c0,.38.2.62.48.62s.48-.17.48-.56-.33-.62-.67-.83a1.2,1.2,0,0,1-.67-1.08c0-.7.42-1.13.9-1.13a.94.94,0,0,1,.85,1v.08h-.44c0-.34-.18-.52-.41-.52s-.45.13-.45.51a.63.63,0,0,0,.34.56l.26.17a1.34,1.34,0,0,1,.74,1.24,1,1,0,0,1-.93,1.13A1,1,0,0,1,10.68,61.72Z" style="fill: #707070"/>
      <path d="M15.76,60.68c0,.89-.29,2.09-1,2.09s-1-1.2-1-2.09.29-2.08,1-2.08S15.76,59.86,15.76,60.68Zm-1.63,0c0,.51.08,1.5.59,1.5s.59-1,.59-1.5-.08-1.55-.59-1.55S14.13,60.19,14.13,60.71Z" style="fill: #707070"/>
      <path d="M18.4,58.66h.41v4.07h-.48l-1-3.08h0v3.08h-.41V58.66h.52l1,3h0Z" style="fill: #707070"/>
      <path d="M20.85,61.11v-.56h1v2a1.73,1.73,0,0,1-.84.25c-.89,0-1.13-1-1.13-2.09s.26-2.08,1.17-2.08a.85.85,0,0,1,.8.82v0h-.44a.31.31,0,0,0-.35-.31c-.62,0-.72.7-.72,1.46s.07,1.58.72,1.58a.75.75,0,0,0,.36-.1v-1Z" style="fill: #707070"/>
    </g>
    <g>
      <path d="M26,60.68c0,.89-.29,2.09-1,2.09s-1-1.2-1-2.09.29-2.08,1-2.08S26,59.86,26,60.68Zm-1.63,0c0,.51.08,1.5.59,1.5s.59-1,.59-1.5-.08-1.55-.59-1.55S24.38,60.19,24.38,60.71Z" style="fill: #707070"/>
      <path d="M27.59,60.89v1.83h-.44V58.66h.44v1.67h1V58.66H29v4.07h-.44V60.89Z" style="fill: #707070"/>
      <path d="M31.41,62.72H31v-3.5h-.79v-.56h2v.56h-.79Z" style="fill: #707070"/>
      <path d="M35.18,62.16v.56H33.32v-.33a2.2,2.2,0,0,1,.88-2,1.28,1.28,0,0,0,.58-.91c0-.35-.23-.66-.48-.66a1.47,1.47,0,0,0-.92.47v-.67a1.21,1.21,0,0,1,.85-.37c.54,0,1,.4,1,1.2A1.78,1.78,0,0,1,34.38,61a1.55,1.55,0,0,0-.62,1.12v.09Z" style="fill: #707070"/>
      <path d="M38.29,62.16v.56H36.43v-.33a2.2,2.2,0,0,1,.88-2,1.28,1.28,0,0,0,.58-.91c0-.35-.23-.66-.48-.66a1.47,1.47,0,0,0-.92.47v-.67a1.21,1.21,0,0,1,.85-.37c.54,0,1,.4,1,1.2A1.78,1.78,0,0,1,37.49,61a1.55,1.55,0,0,0-.62,1.12v.09Z" style="fill: #707070"/>
    </g>
    <g>
      <path d="M7.48,67.18v-.13h.36c0,.38.16.62.39.62s.4-.17.4-.56-.27-.62-.55-.83a1.24,1.24,0,0,1-.55-1.08c0-.7.34-1.13.74-1.13s.69.39.69,1v.08H8.6c0-.34-.15-.52-.34-.52s-.37.13-.37.51a.66.66,0,0,0,.28.56l.21.17A1.4,1.4,0,0,1,9,67.1c0,.71-.36,1.13-.76,1.13S7.48,67.85,7.48,67.18Z" style="fill: #707070"/>
      <path d="M11.25,64.12h.33v4.07h-.4l-.86-3.08h0v3.08H10V64.12h.42l.83,3h0Z" style="fill: #707070"/>
      <path d="M13.67,65.18v.93H13v-.93Zm0,2.07v.94H13v-.94Z" style="fill: #707070"/>
      <path d="M15.19,65.47V64.7l.63-.89h.39v4.37h-.36V64.51Z" style="fill: #707070"/>
      <path d="M19.15,64.43l-.65,1.1c.44,0,.75.52.75,1.29,0,1-.48,1.42-1,1.42A1.13,1.13,0,0,1,17.6,68v-.62a.86.86,0,0,0,.66.31c.33,0,.64-.24.64-.87s-.27-.8-.58-.8H18v-.47l.66-1.15H17.6v-.56h1.56Z" style="fill: #707070"/>
      <path d="M21.72,64.4a8.12,8.12,0,0,1,.11,1.53,5.62,5.62,0,0,1-.25,2,.83.83,0,0,1-1.21,0,5.7,5.7,0,0,1-.25-2,8.12,8.12,0,0,1,.11-1.53c.12-.59.4-.66.75-.66S21.6,63.8,21.72,64.4Zm-1.2.38c0,.33,0,.87,0,1.21a7.06,7.06,0,0,0,.11,1.52c.07.16.27.16.39.16s.32,0,.39-.16A7.32,7.32,0,0,0,21.47,66c0-.34,0-.88,0-1.21s-.17-.48-.46-.48S20.57,64.32,20.52,64.78Z" style="fill: #707070"/>
      <path d="M24.29,64.7a1.42,1.42,0,0,1-.44,1A1.51,1.51,0,0,1,24.38,67c0,.89-.39,1.21-.86,1.21s-.86-.32-.86-1.21a1.52,1.52,0,0,1,.54-1.28,1.43,1.43,0,0,1-.44-1c0-.7.4-1,.76-1S24.29,64,24.29,64.7ZM24,67a1.15,1.15,0,0,0-.5-.92A1.14,1.14,0,0,0,23,67c0,.5.25.7.5.7S24,67.47,24,67Zm-.89-2.21a.85.85,0,0,0,.4.68.85.85,0,0,0,.4-.68c0-.37-.22-.46-.4-.46S23.13,64.39,23.13,64.76Z" style="fill: #707070"/>
      <path d="M26.82,64.4a8.08,8.08,0,0,1,.11,1.53,5.61,5.61,0,0,1-.25,2,.68.68,0,0,1-.61.26.69.69,0,0,1-.61-.26,5.7,5.7,0,0,1-.25-2,8.08,8.08,0,0,1,.11-1.53c.12-.59.4-.66.75-.66S26.7,63.8,26.82,64.4Zm-1.2.38c0,.33,0,.87,0,1.21a7.09,7.09,0,0,0,.11,1.52c.07.16.27.16.39.16s.32,0,.39-.16A7.29,7.29,0,0,0,26.57,66c0-.34,0-.88,0-1.21s-.17-.48-.46-.48S25.66,64.32,25.62,64.78Z" style="fill: #707070"/>
      <path d="M29.37,64.4a8.08,8.08,0,0,1,.11,1.53,5.61,5.61,0,0,1-.25,2,.68.68,0,0,1-.61.26A.69.69,0,0,1,28,68a5.7,5.7,0,0,1-.25-2,8.08,8.08,0,0,1,.11-1.53c.12-.59.4-.66.75-.66S29.25,63.8,29.37,64.4Zm-1.2.38c0,.33,0,.87,0,1.21a7.09,7.09,0,0,0,.11,1.52c.07.16.27.16.39.16s.32,0,.39-.16A7.29,7.29,0,0,0,29.12,66c0-.34,0-.88,0-1.21s-.17-.48-.46-.48S28.21,64.32,28.17,64.78Z" style="fill: #707070"/>
      <path d="M31.93,64.7a1.42,1.42,0,0,1-.44,1A1.51,1.51,0,0,1,32,67c0,.89-.39,1.21-.86,1.21s-.86-.32-.86-1.21a1.52,1.52,0,0,1,.54-1.28,1.43,1.43,0,0,1-.44-1c0-.7.4-1,.76-1S31.93,64,31.93,64.7ZM31.67,67a1.15,1.15,0,0,0-.5-.92,1.14,1.14,0,0,0-.5.92c0,.5.25.7.5.7S31.67,67.47,31.67,67Zm-.89-2.21a.86.86,0,0,0,.4.68.86.86,0,0,0,.4-.68c0-.37-.22-.46-.4-.46S30.77,64.39,30.77,64.76Z" style="fill: #707070"/>
      <path d="M34.32,63.82a11.21,11.21,0,0,0-.69,1.28l-.17.38h0a.52.52,0,0,1,.33-.11c.47,0,.79.67.79,1.43s-.36,1.43-.86,1.43-.87-.56-.87-1.49a3.5,3.5,0,0,1,.36-1.67l.65-1.26Zm-1.1,3c0,.52.19.88.5.88s.5-.35.5-.87-.21-.86-.51-.86S33.22,66.3,33.22,66.79Z" style="fill: #707070"/>
      <path d="M36.12,65.78h.72v.56h-.72v1.84h-.36V64.12H37v.56h-.9Z" style="fill: #707070"/>
    </g>
  </g>
  <g id="Connectors">
    <rect height="9.39" style="fill: #9b9b9b" width="1.54" x="17.1" y="70.04"/>
    <rect height="9.39" style="fill: #9b9b9b" width="1.54" x="9.81" y="70.04"/>
    <rect height="9.39" style="fill: #9b9b9b" width="1.54" x="31.65" y="70.04"/>
    <rect height="9.39" style="fill: #9b9b9b" width="1.54" x="24.35" y="70.04"/>
    <rect data-cir-type="male" height="1.22" id="circuitoCon_VDD" style="fill: #9b9b9b" width="1.54" x="9.81" y="78.21"/>
    <rect data-cir-type="male" height="1.22" id="circuitoCon_DATA" style="fill: #9b9b9b" width="1.54" x="17.1" y="78.21"/>
    <rect height="1.22" style="fill: #9b9b9b" width="1.54" x="24.35" y="78.21"/>
    <rect data-cir-type="male" height="1.22" id="circuitoCon_GND" style="fill: #9b9b9b" width="1.54" x="31.65" y="78.21"/>
  </g>
</svg>