<?xml version="1.0" ?><svg height="10.91mm" viewBox="0 0 16.7 30.92" width="5.89mm" xmlns="http://www.w3.org/2000/svg" xmlns:xlink="http://www.w3.org/1999/xlink">
  <defs>
    <clipPath id="clip-path">
      <path d="M15.36,2.77V14.16c0-1.51-3.15-2.74-7-2.74s-7,1.23-7,2.74V2.77C1.31,1.26,4.46,0,8.33,0S15.36,1.26,15.36,2.77Z" style="fill: none"/>
    </clipPath>
    <linearGradient gradientUnits="userSpaceOnUse" id="linear-gradient" x1="2.9" x2="13.71" y1="5.84" y2="-0.4">
      <stop offset="0" stop-color="#2a2a2a"/>
      <stop offset="1"/>
    </linearGradient>
    <clipPath id="clip-path-2">
      <path d="M15.36,14.16a1.39,1.39,0,0,1-.45,1V3.74a1.4,1.4,0,0,0,.45-1Z" style="fill: none"/>
    </clipPath>
    <clipPath id="clip-path-3">
      <path d="M1.76,3.74V15.13a1.39,1.39,0,0,1-.45-1V2.77A1.4,1.4,0,0,0,1.76,3.74Z" style="fill: none"/>
    </clipPath>
    <clipPath id="clip-path-4">
      <path d="M15.42,2.77V14.16a1.42,1.42,0,0,1-.46,1V3.75A1.38,1.38,0,0,0,15.42,2.77Z" style="fill: none"/>
    </clipPath>
    <clipPath id="clip-path-5">
      <path d="M1.74,3.76v11.4a1.38,1.38,0,0,1-.49-1V2.77A1.35,1.35,0,0,0,1.74,3.76Z" style="fill: #4c4c4c"/>
    </clipPath>
    <linearGradient id="linear-gradient-2" x1="0.93" x2="15.78" xlink:href="#linear-gradient" y1="13.74" y2="5.17"/>
  </defs>
  <title>TMP36</title>
  <g data-name="Layer 1" id="Layer_1">
    <path d="M2.27,30.92H0V21a1.25,1.25,0,0,1,.11-.5l3.43-7,2,1L2.27,21.23Z" style="fill: #b0acb0"/>
    <path d="M16.67,30.92H14.4V21.23l-3.31-6.82,2-1,3.43,7a1.25,1.25,0,0,1,.11.5Z" style="fill: #b0acb0"/>
    <rect height="17.58" style="fill: #b0acb0" width="2.27" x="7.2" y="13.34"/>
  </g>
  <g data-name="Layer 2" id="Layer_2">
    <g style="isolation: isolate">
      <g style="isolation: isolate">
        <g style="clip-path: url(#clip-path)">
          <g style="isolation: isolate">
            <path d="M15.36,2.77V14.16a1.26,1.26,0,0,0,0-.33V2.43a1.27,1.27,0,0,1,0,.34" style="fill: #181818"/>
            <path d="M15.31,2.43v11.4a1.08,1.08,0,0,0-.08-.19V2.24c0,.07.06.13.08.19" style="fill: #191919"/>
            <path d="M15.23,2.24v11.4l-.08-.15V2.1s0,.09.08.14" style="fill: #191919"/>
            <path d="M15.15,2.1V13.49l-.09-.11V2l.09.12" style="fill: #1a1a1a"/>
            <path d="M15.06,2v11.4a.31.31,0,0,0-.09-.11V1.87a.44.44,0,0,1,.09.11" style="fill: #1a1a1a"/>
            <path d="M15,1.87v11.4l-.08-.1V1.78l.08.09" style="fill: #1b1b1b"/>
            <path d="M14.89,1.78V13.17l-.1-.09V1.69l.1.09" style="fill: #1b1b1b"/>
            <path d="M14.79,1.69V13.08L14.7,13V1.61l.09.08" style="fill: #1c1c1c"/>
            <path d="M14.7,1.61V13l-.1-.08V1.53l.1.08" style="fill: #1c1c1c"/>
            <path d="M14.6,1.53V12.92l-.1-.07V1.46l.1.07" style="fill: #1d1d1d"/>
            <path d="M14.5,1.46V12.85l-.1-.07V1.39l.1.07" style="fill: #1d1d1d"/>
            <path d="M14.4,1.39V12.78l-.1-.07V1.32l.1.07" style="fill: #1e1e1e"/>
            <path d="M14.3,1.32V12.71l-.11-.06V1.26l.11.06" style="fill: #1e1e1e"/>
            <path d="M14.19,1.26V12.65l-.11-.06V1.19a.41.41,0,0,1,.11.07" style="fill: #1e1e1e"/>
            <path d="M14.08,1.19v11.4L14,12.53V1.13l.11.06" style="fill: #1f1f1f"/>
            <path d="M14,1.13v11.4l-.11-.06V1.07l.11.06" style="fill: #1f1f1f"/>
            <path d="M13.86,1.07v11.4l-.12-.06V1l.12.05" style="fill: #202020"/>
            <path d="M13.74,1V12.41l-.12-.05V1l.12.06" style="fill: #202020"/>
            <path d="M13.62,1v11.4l-.12-.06V.91l.12,0" style="fill: #212121"/>
            <path d="M13.5.91V12.3l-.13-.05V.86l.13.05" style="fill: #212121"/>
            <path d="M13.37.86V12.25l-.13-.05V.81l.13,0" style="fill: #222"/>
            <path d="M13.24.81V12.2l-.14,0V.76l.14.05" style="fill: #222"/>
            <path d="M13.1.76V12.15L13,12.1V.71l.14.05" style="fill: #232323"/>
            <path d="M13,.71V12.1l-.14,0V.66l.14,0" style="fill: #232323"/>
            <path d="M12.82.66V12.05l-.15,0V.61l.15.05" style="fill: #242424"/>
            <path d="M12.67.61V12l-.15,0V.56l.15,0" style="fill: #242424"/>
            <path d="M12.52.56V12l-.17-.05V.52l.17,0" style="fill: #252525"/>
            <path d="M12.35.52V11.91l-.17,0V.47l.17.05" style="fill: #252525"/>
            <path d="M12.18.47v11.4l-.17,0V.43l.17,0" style="fill: #262626"/>
            <path d="M12,.43v11.4l-.19-.05V.39l.19,0" style="fill: #262626"/>
            <path d="M11.82.39V11.78l-.2,0V.34l.2,0" style="fill: #272727"/>
            <path d="M11.62.34v11.4l-.21,0V.3l.21,0" style="fill: #272727"/>
            <path d="M11.41.3V11.7l-.23,0V.26l.23,0" style="fill: #282828"/>
            <path d="M11.18.26V11.65l-.26,0V.22l.26,0" style="fill: #282828"/>
            <path d="M10.92.22V11.61l-.28,0V.18l.28,0" style="fill: #292929"/>
            <path d="M10.64.18V11.57l-.33,0V.13l.33,0" style="fill: #292929"/>
            <path d="M10.31.13v11.4l-.41,0V.09l.41,0" style="fill: #2a2a2a"/>
            <path d="M9.9.09v11.4l-.65-.05V.05l.65,0" style="fill: #2a2a2a"/>
            <path d="M9.25.05V11.44l-.92,0H7.9V0h.43c.31,0,.62,0,.92,0" style="fill: #2b2b2b"/>
            <path d="M7.9,0V11.42l-.66,0V.06q.31,0,.66,0" style="fill: #2a2a2a"/>
            <path d="M7.24.06V11.45l-.41,0V.09l.41,0" style="fill: #2a2a2a"/>
            <path d="M6.83.09V11.48l-.34,0V.12l.34,0" style="fill: #292929"/>
            <path d="M6.49.12V11.51l-.29,0V.15l.29,0" style="fill: #292929"/>
            <path d="M6.2.15v11.4l-.26,0V.19l.26,0" style="fill: #282828"/>
            <path d="M5.94.19V11.58l-.24,0V.22l.24,0" style="fill: #282828"/>
            <path d="M5.7.22v11.4l-.21,0V.26l.21,0" style="fill: #272727"/>
            <path d="M5.49.26V11.65l-.21,0V.3l.21,0" style="fill: #272727"/>
            <path d="M5.28.3V11.69l-.2,0V.34l.2,0" style="fill: #262626"/>
            <path d="M5.08.34V11.73l-.18,0V.37l.18,0" style="fill: #262626"/>
            <path d="M4.9.37v11.4l-.17,0V.41l.17,0" style="fill: #252525"/>
            <path d="M4.73.41v11.4l-.17,0V.46L4.73.41" style="fill: #252525"/>
            <path d="M4.56.46V11.85l-.16,0V.5l.16,0" style="fill: #242424"/>
            <path d="M4.4.5V11.89l-.16,0V.54L4.4.5" style="fill: #242424"/>
            <path d="M4.24.54V11.93L4.09,12V.58l.15,0" style="fill: #232323"/>
            <path d="M4.09.58V12l-.15,0V.63L4.09.58" style="fill: #232323"/>
            <path d="M3.94.63V12l-.14.05V.68L3.94.63" style="fill: #222"/>
            <path d="M3.8.68V12.07l-.14,0V.72l.14,0" style="fill: #222"/>
            <path d="M3.66.72v11.4l-.14.05V.77L3.66.72" style="fill: #212121"/>
            <path d="M3.52.77v11.4l-.13.05V.82l.13,0" style="fill: #212121"/>
            <path d="M3.39.82v11.4l-.13,0V.87L3.39.82" style="fill: #202020"/>
            <path d="M3.26.87v11.4l-.13.05V.93L3.26.87" style="fill: #202020"/>
            <path d="M3.13.93V12.32L3,12.38V1l.12,0" style="fill: #1f1f1f"/>
            <path d="M3,1v11.4l-.13,0V1L3,1" style="fill: #1f1f1f"/>
            <path d="M2.88,1V12.43l-.12.06V1.1L2.88,1" style="fill: #1e1e1e"/>
            <path d="M2.76,1.1V12.49l-.11.06V1.16l.11-.06" style="fill: #1e1e1e"/>
            <path d="M2.65,1.16V12.55l-.12.07V1.23l.12-.07" style="fill: #1e1e1e"/>
            <path d="M2.53,1.23V12.62a.41.41,0,0,0-.11.07V1.29l.11-.06" style="fill: #1d1d1d"/>
            <path d="M2.42,1.29v11.4l-.12.07V1.36l.12-.07" style="fill: #1d1d1d"/>
            <path d="M2.3,1.36v11.4l-.11.07V1.44l.11-.08" style="fill: #1c1c1c"/>
            <path d="M2.19,1.44V12.83l-.11.08V1.52l.11-.08" style="fill: #1c1c1c"/>
            <path d="M2.08,1.52V12.91L2,13V1.6l.11-.08" style="fill: #1b1b1b"/>
            <path d="M2,1.6V13l-.1.09V1.69L2,1.6" style="fill: #1b1b1b"/>
            <path d="M1.87,1.69v11.4l-.11.11V1.8l.11-.11" style="fill: #1a1a1a"/>
            <path d="M1.76,1.8V13.2a.52.52,0,0,0-.1.11V1.91l.1-.11" style="fill: #1a1a1a"/>
            <path d="M1.66,1.91v11.4a1.34,1.34,0,0,0-.11.14V2.06l.11-.15" style="fill: #191919"/>
            <path d="M1.55,2.06V13.45a1.18,1.18,0,0,0-.11.19V2.24a1.74,1.74,0,0,1,.11-.18" style="fill: #191919"/>
            <path d="M1.44,2.24v11.4a1.08,1.08,0,0,0-.13.52V2.77a1.12,1.12,0,0,1,.13-.53" style="fill: #181818"/>
          </g>
        </g>
      </g>
      <path d="M8.33,0c3.88,0,7,1.24,7,2.75a1.4,1.4,0,0,1-.45,1H1.76a1.4,1.4,0,0,1-.45-1C1.31,1.26,4.46,0,8.33,0Z" style="fill: url(#linear-gradient)"/>
      <g style="isolation: isolate">
        <g style="clip-path: url(#clip-path-2)">
          <g style="isolation: isolate">
            <path d="M15.36,2.77V14.16a1.14,1.14,0,0,1-.14.54V3.31a1.21,1.21,0,0,0,.14-.54" style="fill: #8c8c8c"/>
            <path d="M15.22,3.31V14.7a.87.87,0,0,1-.11.18V3.49a.87.87,0,0,0,.11-.18" style="fill: #8f8f8f"/>
            <path d="M15.11,3.49V14.88A.71.71,0,0,1,15,15V3.63l.1-.14" style="fill: #929292"/>
            <path d="M15,3.63V15l-.1.11V3.74l.1-.11" style="fill: #959595"/>
          </g>
        </g>
      </g>
      <rect height="11.39" style="fill: #fbfbfb" width="13.15" x="1.76" y="3.74"/>
      <g style="isolation: isolate">
        <g style="clip-path: url(#clip-path-3)">
          <g style="isolation: isolate">
            <path d="M1.76,3.74V15.13l-.06-.07V3.67l.06.07" style="fill: #9a9a9a"/>
            <path d="M1.7,3.67V15.06a.81.81,0,0,1-.09-.1V3.56a.48.48,0,0,0,.09.11" style="fill: #989898"/>
            <path d="M1.61,3.56V15l-.09-.12V3.45l.09.11" style="fill: #959595"/>
            <path d="M1.52,3.45V14.84l-.08-.14V3.3l.08.15" style="fill: #929292"/>
            <path d="M1.44,3.3V14.7a1.34,1.34,0,0,1-.07-.18V3.12a1.34,1.34,0,0,0,.07.18" style="fill: #8f8f8f"/>
            <path d="M1.37,3.12v11.4a1.13,1.13,0,0,1-.06-.36V2.77a1.07,1.07,0,0,0,.06.35" style="fill: #8c8c8c"/>
          </g>
        </g>
      </g>
      <rect height="11.39" style="fill: #fbfbfb" x="14.93" y="3.75"/>
      <polygon points="1.74 3.75 1.74 3.75 1.74 3.75 1.74 3.75" style="fill: #a1a1a1"/>
      <rect height="11.39" style="fill: #fbfbfb" x="1.74" y="3.75"/>
      <polygon points="14.93 3.75 14.93 3.75 14.93 3.75 14.93 3.75" style="fill: #a1a1a1"/>
      <g style="isolation: isolate">
        <g style="clip-path: url(#clip-path-4)">
          <g style="isolation: isolate">
            <path d="M15.42,2.77V14.16a1.21,1.21,0,0,1-.14.55V3.31a1.17,1.17,0,0,0,.14-.54" style="fill: #181818"/>
            <path d="M15.28,3.31v11.4a.87.87,0,0,1-.11.18V3.5a.72.72,0,0,0,.11-.19" style="fill: #191919"/>
            <path d="M15.17,3.5V14.89l-.1.14V3.64l.1-.14" style="fill: #191919"/>
            <path d="M15.07,3.64V15l-.11.12V3.75l.11-.11" style="fill: #1a1a1a"/>
          </g>
        </g>
      </g>
      <g>
        <path d="M1.74,3.76v11.4a1.38,1.38,0,0,1-.49-1V2.77A1.35,1.35,0,0,0,1.74,3.76Z" style="fill: #4c4c4c"/>
        <g style="clip-path: url(#clip-path-5)">
          <g style="isolation: isolate">
            <path d="M1.74,3.76v11.4l-.05-.06V3.71l.05,0" style="fill: #4c4c4c"/>
            <path d="M1.69,3.71V15.1A.3.3,0,0,1,1.61,15V3.62l.08.09" style="fill: #4c4c4c"/>
            <path d="M1.61,3.62V15l-.08-.1V3.53l.08.09" style="fill: #4c4c4c"/>
            <path d="M1.53,3.53V14.92a.76.76,0,0,1-.08-.11V3.42l.08.11" style="fill: #4c4c4c"/>
            <path d="M1.45,3.42V14.81l-.08-.13V3.29l.08.13" style="fill: #4c4c4c"/>
            <path d="M1.37,3.29V14.68c0-.06-.05-.12-.07-.17V3.11a1.34,1.34,0,0,0,.07.18" style="fill: #4c4c4c"/>
            <path d="M1.3,3.11v11.4a1.41,1.41,0,0,1-.05-.35V2.77a1.33,1.33,0,0,0,.05.34" style="fill: #4c4c4c"/>
          </g>
        </g>
      </g>
      <rect height="11.39" style="fill: url(#linear-gradient-2)" width="13.22" x="1.74" y="3.76"/>
      <path d="M8.33,0c3.91,0,7.09,1.24,7.09,2.77a1.38,1.38,0,0,1-.46,1H1.74a1.35,1.35,0,0,1-.49-1C1.25,1.24,4.43,0,8.33,0Zm6.58,3.74a1.4,1.4,0,0,0,.45-1c0-1.51-3.15-2.75-7-2.75s-7,1.24-7,2.75a1.4,1.4,0,0,0,.45,1H14.91" style="fill: #1c1c1c"/>
    </g>
    <g>
      <path d="M2,8.2V7.72h1.8v.49a.21.21,0,0,1-.18.18.18.18,0,0,1-.13-.06.13.13,0,0,1,0-.12V8.08H3v2.28a.17.17,0,0,1,0,.13.18.18,0,0,1-.12,0,.19.19,0,0,1-.13,0,.18.18,0,0,1-.06-.13V8.08H2.32V8.2a.17.17,0,0,1,0,.13.19.19,0,0,1-.13.05A.17.17,0,0,1,2,8.2Z" style="fill: #fff"/>
      <path d="M5.31,8.83v-.1L5,8.21v2.15a.18.18,0,0,1-.06.13.17.17,0,0,1-.12,0,.17.17,0,0,1-.18-.18V7.72h.46l.44.64.45-.64h.45v2.64a.17.17,0,0,1,0,.13.21.21,0,0,1-.13,0,.17.17,0,0,1-.12,0A.18.18,0,0,1,6,10.36V8.22l-.36.51v.1a.18.18,0,0,1,0,.12A.17.17,0,0,1,5.49,9,.13.13,0,0,1,5.37,9,.16.16,0,0,1,5.31,8.83Z" style="fill: #fff"/>
      <path d="M7.22,10.36V7.72H8.49a.51.51,0,0,1,.38.16A.53.53,0,0,1,9,8.26v.67a.52.52,0,0,1-.16.37.51.51,0,0,1-.38.16h-.9v.9a.18.18,0,0,1-.06.13.17.17,0,0,1-.12,0,.19.19,0,0,1-.13,0A.18.18,0,0,1,7.22,10.36ZM7.59,9.1h.9a.17.17,0,0,0,.18-.17V8.26a.17.17,0,0,0-.18-.18h-.9Z" style="fill: #fff"/>
      <path d="M11.65,8.07v.67a.5.5,0,0,1-.15.38.53.53,0,0,1,.15.36v.7a.33.33,0,0,1-.1.25.36.36,0,0,1-.26.11H10a.18.18,0,0,1-.13-.06.17.17,0,0,1-.05-.12.17.17,0,0,1,.18-.18h1.26v-.7a.17.17,0,0,0-.18-.18h-.72a.18.18,0,1,1,0-.36h.72a.17.17,0,0,0,.13,0,.19.19,0,0,0,0-.13V8.07H10A.17.17,0,0,1,9.89,8a.18.18,0,0,1-.05-.12.19.19,0,0,1,.05-.13.17.17,0,0,1,.13,0h1.27a.32.32,0,0,1,.25.1A.36.36,0,0,1,11.65,8.07Z" style="fill: #fff"/>
      <path d="M12.66,7.72h.18a.17.17,0,0,1,.13,0,.21.21,0,0,1,0,.13A.18.18,0,0,1,13,8a.17.17,0,0,1-.13.05V9.25H14.1a.14.14,0,0,1,.12.06.16.16,0,0,1,.06.13v.92a.14.14,0,0,1-.06.12.16.16,0,0,1-.13.06H12.66a.18.18,0,0,1-.13-.06.17.17,0,0,1,0-.12V7.9a.19.19,0,0,1,0-.13A.17.17,0,0,1,12.66,7.72Zm.18,1.89v.57h1.07V9.61Z" style="fill: #fff"/>
    </g>
  </g>
  <g id="Connectors">
    <rect data-cir-type="male" height="1.64" id="circuitoCon_Vcc" style="fill: none" width="2.27" y="29.28"/>
    <rect data-cir-type="male" height="1.64" id="circuitoCon_Vout" style="fill: none" width="2.27" x="7.22" y="29.28"/>
    <rect data-cir-type="male" height="1.64" id="circuitoCon_Gnd" style="fill: none" width="2.27" x="14.43" y="29.28"/>
  </g>
</svg>