<?xml version="1.0" ?><svg height="42.32mm" viewBox="0 0 45.36 119.96" width="16mm" xmlns="http://www.w3.org/2000/svg" xmlns:xlink="http://www.w3.org/1999/xlink">
  <defs>
    <radialGradient cx="41" cy="95.17" gradientTransform="translate(0 -285.51) scale(1 4)" gradientUnits="userSpaceOnUse" id="radial-gradient" r="1.67">
      <stop offset="0" stop-color="#474747"/>
      <stop offset="0.07" stop-color="#454545"/>
      <stop offset="0.47" stop-color="#3e3f3d"/>
      <stop offset="0.82" stop-color="#3e3f3d"/>
      <stop offset="0.91" stop-color="#3c3d3b"/>
      <stop offset="0.94" stop-color="#353635"/>
      <stop offset="0.96" stop-color="#2a2b29"/>
      <stop offset="0.98" stop-color="#191a19"/>
      <stop offset="1" stop-color="#040404"/>
      <stop offset="1"/>
    </radialGradient>
    <radialGradient cx="40.96" cy="94.55" gradientTransform="translate(-337.23 135.5) rotate(-90) scale(1 4)" gradientUnits="userSpaceOnUse" id="radial-gradient-2" r="1.53">
      <stop offset="0" stop-color="#474747"/>
      <stop offset="0.08" stop-color="#454545"/>
      <stop offset="0.47" stop-color="#3e3f3d"/>
      <stop offset="0.82" stop-color="#3e3f3d"/>
      <stop offset="0.91" stop-color="#3c3d3b"/>
      <stop offset="0.94" stop-color="#353635"/>
      <stop offset="0.96" stop-color="#2a2b29"/>
      <stop offset="0.98" stop-color="#191a19"/>
      <stop offset="1" stop-color="#040404"/>
      <stop offset="1"/>
    </radialGradient>
    <linearGradient gradientUnits="userSpaceOnUse" id="linear-gradient" x1="12.3" x2="14.14" y1="41.79" y2="41.79">
      <stop offset="0.18" stop-color="#b6b9ad"/>
      <stop offset="0.46" stop-color="#fff"/>
      <stop offset="0.83" stop-color="#b2b3ab"/>
      <stop offset="1" stop-color="#f3ede5"/>
    </linearGradient>
    <linearGradient id="linear-gradient-2" x1="9.03" x2="10.88" xlink:href="#linear-gradient" y1="41.79" y2="41.79"/>
    <linearGradient gradientUnits="userSpaceOnUse" id="linear-gradient-3" x1="10.23" x2="12.99" y1="41.77" y2="41.77">
      <stop offset="0" stop-color="#fff"/>
      <stop offset="0.46" stop-color="#b6b9ad"/>
      <stop offset="0.62" stop-color="#f3ede5"/>
      <stop offset="0.76" stop-color="#b2b3ab"/>
    </linearGradient>
    <radialGradient cx="41" cy="88.72" gradientUnits="userSpaceOnUse" id="radial-gradient-3" r="2.78">
      <stop offset="0" stop-color="#474747"/>
      <stop offset="0.44" stop-color="#3e3f3d"/>
      <stop offset="0.7" stop-color="#3c3d3b"/>
      <stop offset="0.79" stop-color="#353635"/>
      <stop offset="0.86" stop-color="#2a2b29"/>
      <stop offset="0.91" stop-color="#191a19"/>
      <stop offset="0.96" stop-color="#040404"/>
      <stop offset="0.96"/>
      <stop offset="1"/>
    </radialGradient>
    <linearGradient id="linear-gradient-4" x1="32.36" x2="33.96" xlink:href="#linear-gradient" y1="86.62" y2="86.62"/>
    <linearGradient id="linear-gradient-5" x1="30.31" x2="30.76" xlink:href="#linear-gradient" y1="55.12" y2="55.12"/>
    <linearGradient id="linear-gradient-6" x1="36.86" x2="37.32" xlink:href="#linear-gradient" y1="55.12" y2="55.12"/>
  </defs>
  <title>HC - 05 Bluetooth Serial Module</title>
  <g id="background">
    <polyline points="45.36 0 45.36 105.6 0 105.6 0 0" style="fill: #256194"/>
  </g>
  <g data-name="green background" id="green_background">
    <rect height="15.69" rx="2.83" ry="2.83" style="fill: #0e5e38" width="37.24" x="5.15" y="0.81"/>
    <path d="M42.21,7.13v12.8l-.29,25.58L41.63,71.6l-.12,3.62c.05.48.08.93-.41.86v.64c.44,0,.5.76,0,.76-.22,0-.27.32-.19,1a4.28,4.28,0,0,1-1.53-1.11l-17.91-.25-13-.16-2.19-.16c-1,.57-1.54,1.09-1.53,1.53.13.25.06.39-.45.3,0-.3-.22-.42-.75-.33-.16.41-.4.49-.72.17.09-.34,0-.58-.62-.59-.78,0-.89-.8-.14-.81.48,0,.82-.08.89-.39,0-.63.44-.61.73-.11l.69,0V76h.23v-.35l-.28,0c-.19-.45-.15-.78.15-1l0-5.55,0-4v-2.3l1,.06c.08-.3-.36-.38-1-.4V58.47H5.75c-.07-.25-.46-.36-1.15-.35V54.18h1.1c.08-.28-.38-.37-1.17-.35V49.91H5.75a1.22,1.22,0,0,0-1.12-.33v-4H5.8c-.17-.26-.56-.34-1.06-.31v-3.9l1.19,0C6,41,5.43,41,4.75,41v-4H5.88c0-.29-.4-.4-1.1-.4V32.79H5.94c0-.25-.31-.43-1.06-.42v-4h1C5.73,28.1,5.46,28,5,28l.19-10.35L5.25,5.6" style="fill: #0e5e38"/>
  </g>
  <g data-name="LayLIGHT GREEN er 11" id="LayLIGHT_GREEN_er_11">
    <path d="M34.44,30.39l-.55-1h0a.75.75,0,0,0,.05-.26.77.77,0,1,0-.77.77l.1,0,.23.51Z" style="fill: #1e9657"/>
    <path d="M8.48,27.06H7.42V18.52H6.13V14.35l29.71.21v1.5h-.42v.56h-.83v-.48h-1V17.2h1V18h-1V19.1c0,.32,0,.52-.41.41H32c-1.37-.88-2.52-.92-3.23.59-.08.77-.33.78-.73.21l-.61-.61a1.59,1.59,0,0,0-1.22-.18l-2.92,0c-.6.15-.86-.15-.77-1V16h-4v1h-.85V16h-1v1h.77v.92h-.81v1.6c-.16.47-.43.72-.9.56L13.23,20l.1-.73v-.17l.9,0c.25.06.34-.17.35-.56v-.71c-.1-.37-.48-.45-.92-.48l0-.58h.5c.21,0,.31-.18.29-.48v-.77c0-.21-.14-.32-.4-.29h-.88v1.05h-.95v-1h-1c-.24,0-.41,0-.39.34v1h1v1H11V19h.93v.94H11v3.54h3.06c.25.06.4-.07.46-.35v-.58l.65-.37h2.5l.67.67,0,.9-.94,0,0-.85H16.27v1l1,0,0,1h-.92v4.31h1.31a.46.46,0,0,1,.46.48v1.69H15.77V29.91l-1.23,0,0-.73h1.15V27.64H12.15v2.1H10.8V27.58c0-.29.16-.46.63-.44h1c.28,0,.4-.11.42-.42V26.1h.5v.63c0,.3.06.51.33.48h1v-.88h-.85v-1h.58V25h.21V24.1H13.8c-.19,0-.3.08-.29.25v.52h-.79v-.58c0-.14-.12-.22-.4-.21H8.82a.21.21,0,0,0-.26.19v2.79Z" style="fill: #1e9657"/>
    <polygon points="13.5 22.25 15.48 21.2 15.48 21.58 15.75 21.58 15.75 21.2 17.08 21.2 17.08 20.56 13.5 20.56 13.5 22.25" style="fill: #1e9657"/>
    <path d="M18.12,20.73v.92l3.73,3.73V31l.86-.86V25.25L19,21.55v-.82Z" style="fill: #1e9657"/>
    <rect height="2.08" style="fill: #1e9657" width="1.15" x="20.57" y="17.79"/>
    <polygon points="21.59 20.14 26.86 20.14 28.95 22.23 28.95 23.87 28.11 23.87 28.11 22.82 26.34 21.05 21.59 21.05 21.59 20.14" style="fill: #1e9657"/>
    <path d="M27,22.52,26.4,22H21.08c-.26,0-.37.2-.28.55l1.88,1.88c.47.1.64.45.54,1v5.5h2.34l0-8.07h1.23Q27.16,22.84,27,22.52Zm-1.89,5.13h-.7V25.25h.7Z" style="fill: #1e9657"/>
    <path d="M18.3,24.64h1v3l.41.41c.46,0,.72.19.55.9v1.47h1.07V25.85l-1.66-1.66H18.18Z" style="fill: #1e9657"/>
    <path d="M19.65,30.25v-1c.16-.37.06-.67-.48-.87h-.48l-.15.35c.37.15.5.35.44.58l0,.94Z" style="fill: #1e9657"/>
    <polygon points="34.55 21.2 30.58 21.2 30.58 20.14 34.7 20.14 34.55 21.2" style="fill: #1e9657"/>
    <rect height="2.22" style="fill: #1e9657" width="0.94" x="29.98" y="21.2"/>
    <path d="M31.61,25.85v-3.4c0-.39.14-.53.44-.5h1.29a.15.15,0,0,1,.09.2v.16h2.41V23h3.58v2H35.51v1.13h-1V24.92H33.37v.42h-.14v.81h1V27h-1v.42h-.64V26.19h.17v-.7h-.58v.59H31.6Z" style="fill: #1e9657"/>
    <polygon points="38.86 27.19 38.86 30.69 38.3 30.69 38.3 29.03 37.65 28.03 37.65 27.59 38.14 27.56 38.26 26.97 38.86 27.19" style="fill: #1e9657"/>
    <path d="M38.19,30.27,37,28.13,35.51,28c.26-.55-.16-.9-.81-1.17.13.56-.06,1-.86,1.2l1,1.81.69,0,.13.8.94-.17,0-.53.73,0,.08.58.89.17Z" style="fill: #1e9657"/>
    <path d="M32.11,26.75v.84H33v.63c-.82.26-1,.84-.43,1.89v.72H31.31V26.42h.83Z" style="fill: #1e9657"/>
    <circle cx="33.16" cy="29.14" r="0.26" style="fill: #1e9657"/>
    <polygon points="10.19 25.95 10.04 27.3 9.42 28.63 8.94 28.2 9.42 25.77 10.19 25.95" style="fill: #1e9657"/>
    <path d="M16.73,32.33H14.5v-.5h2.44Z" style="fill: #1e9657"/>
    <polygon points="14.4 34.31 17.23 34.31 17.23 33.41 14.5 33.41 14.4 34.31" style="fill: #1e9657"/>
    <polygon points="14.5 34.49 16.55 34.49 16.21 42.43 13.23 45.27 12.42 46.97 10.92 46.87 15.65 41.91 15.72 35.77 15.19 35.41 14.5 34.49" style="fill: #1e9657"/>
    <path d="M10.75,37.56v1.85l-.33.42H9.36v-.92l-.73,0v.9H8V31.52H7.36L7.17,49c.08.4.29.35.56,0l.59-.5V45.89h1.86c.33,0,.59,0,.73-.22l2.4-2.4H10.21V42.08H9.43v1.05H8.32V42.07H9V41.5h-.6v-1h1.1v.77s.6.16.6,0v-.75h1v-.24h1V37.44Z" style="fill: #1e9657"/>
    <polygon points="12.81 39.22 12.81 41.26 13.61 41.26 13.61 39.15 12.81 39.22" style="fill: #1e9657"/>
    <polygon points="12.17 48.74 13.23 50.47 16.3 50.47 16.3 51.16 13.17 51.16 11.79 49.78 12.17 48.74" style="fill: #1e9657"/>
    <path d="M9.19,48.66,7.27,50.37V60.52l1,1H9.55c.19,0,.23.2.22.39v.76h.9V61.62a.85.85,0,0,0-.69-.69H8.33L7.7,60.3V50.69L9,49.35Z" style="fill: #1e9657"/>
    <path d="M8.39,56h1.78V55h1v1H13V54.3h-.92v-.89h1.13v-.84H12V51.8h5v1.47H15.61v1.09H14.8v-1H13.72v1h.72v.86h-.77v1.28h.83v-.85h1.25v.85h2.78q.56,0,.38.38L13.78,62a1.09,1.09,0,0,1-.86-.41H11.36a2.21,2.21,0,0,0-2.53-1.39L8.39,60Z" style="fill: #1e9657"/>
    <path d="M23.73,54.61H22.08l-8.45,8.45h-1.3v.67h1.13V67.8l-1.09,1.09v.78l1.54-1.54V63.48l8.29-8.29h1.54Z" style="fill: #1e9657"/>
    <polygon points="28.81 52.34 28.81 54.7 26.75 54.7 26.75 55.28 31.34 55.28 31.34 54.7 29.39 54.7 29.39 52.23 28.81 52.34" style="fill: #1e9657"/>
    <polygon points="6.09 62.89 8 62.89 8 63.58 5.77 63.58 6.09 62.89" style="fill: #1e9657"/>
    <polygon points="9.79 63.49 9.79 64.58 9.15 65.22 8 65.22 6.49 66.73 6.07 67.04 6.29 67.62 10.57 65.04 10.66 63.49 9.79 63.49" style="fill: #1e9657"/>
    <path d="M10.67,66.75c0,.06-1.35,1.44-1.35,1.44H8.88v.31l-2.6,2.4v2.5h.61V71.18l1.58-.81,1.37-1.69,1.83-1.94Z" style="fill: #1e9657"/>
    <path d="M7.92,73.14s0,1.17,0,1.17l-.81,1h2V73Z" style="fill: #1e9657"/>
    <rect height="2" style="fill: #1e9657" width="0.85" x="11.21" y="70.07"/>
    <path d="M17.25,74.33H13.67c-.4.07-.62,0-.56-.4v-4a.59.59,0,0,1,.8-.24c0,1.22.75,1.59,2.08,1.43Z" style="fill: #1e9657"/>
    <path d="M38.36,76.36h1.91l.34-3-1.12.53V73h1.25l-1-1.47c-.4,0-.67-.25-.72-1.09V62.67h.31V62H39l.19-12.56-1.28-.19V54.2c-.12.6-.54.83-1.25.69v.78h1v1.24h-1v-.8h-1v.5l-.3.3h-.7V58.2h3.28V74.35H35.86v.51l1.16.25v.69h1.53V75h1c.31.31.09.56-.53.75Z" style="fill: #1e9657"/>
    <polygon points="17.42 52.39 17.42 54.45 18.45 54.45 18.45 52.11 17.42 52.39" style="fill: #1e9657"/>
    <polygon points="24.9 55.62 22.82 58.14 21.36 57.91 22.8 56.17 24.9 55.62" style="fill: #1e9657"/>
  </g>
  <g data-name="41 BOX" id="_41_BOX">
    <rect height="1.63" style="fill: #6e6962" width="0.99" x="26.27" y="23.42"/>
    <rect height="8.54" style="fill: #6e6962" transform="translate(2.06 55.02) rotate(-90)" width="0.99" x="28.05" y="22.21"/>
    <rect height="1.63" style="fill: #6e6962" width="0.99" x="28.13" y="23.42"/>
    <rect height="1.63" style="fill: #6e6962" width="0.99" x="29.97" y="23.42"/>
    <rect height="2.64" style="fill: #6e6962" width="0.99" x="26.27" y="27.39"/>
    <rect height="2.64" style="fill: #6e6962" width="0.99" x="28.13" y="27.39"/>
    <rect height="3.28" style="fill: #c3c0b9" transform="translate(-69.95 109.18) rotate(-90)" width="1.69" x="18.77" y="87.93"/>
    <rect height="3.28" style="fill: #c3c0b9" transform="translate(-72.82 112.05) rotate(-90)" width="1.69" x="18.77" y="90.79"/>
    <rect height="3.28" style="fill: #c3c0b9" transform="translate(-75.4 114.63) rotate(-90)" width="1.69" x="18.77" y="93.38"/>
    <rect height="3.77" style="fill: #c3c0b9" transform="translate(-77.64 101.5) rotate(-90)" width="1.69" x="11.09" y="87.68"/>
    <rect height="3.77" style="fill: #c3c0b9" transform="translate(-83.08 106.95) rotate(-90)" width="1.69" x="11.09" y="93.13"/>
    <rect height="2.45" style="fill: #6e6962" width="0.99" x="29.97" y="27.58"/>
    <polygon points="25.8 24.67 31.45 24.67 31.45 28.29 30.67 28.29 30.67 27.77 30.33 27.77 30.33 28.29 28.82 28.29 28.82 27.77 28.2 27.77 28.2 28.29 27.05 28.29 27.05 27.77 26.27 27.77 26.27 28.29 25.8 28.29 25.8 24.67" style="fill: #d9d2c7"/>
  </g>
  <g data-name="BLUE LINES" id="BLUE_LINES">
    <polygon points="9.11 76.08 9.11 81.7 10.66 82.98 10.66 84.23 11.64 84.23 11.64 82.98 9.89 81.23 9.89 76.08 9.11 76.08" style="fill: #164d73"/>
    <polygon points="13.45 76.08 13.45 84.23 14.23 83.45 14.23 76.36 13.45 76.08" style="fill: #164d73"/>
    <path d="M15.16,82.47v-1.7c0-.27.2-.39.6-.38h8.86V83.2H15.18Z" style="fill: #164d73"/>
    <polygon points="35.11 77.11 35.11 81.05 36.92 82.86 38.76 82.86 38.76 81.8 37.23 81.8 36 80.56 36 76.86 35.11 77.11" style="fill: #164d73"/>
    <polygon points="32.17 81.8 34.33 81.8 36.55 84.02 36.55 93.48 37.42 94.73 38.61 94.89 38.61 95.83 37.36 95.64 35.39 94.02 35.39 84.36 33.83 82.86 32.17 82.55 32.17 81.8" style="fill: #164d73"/>
    <rect height="2.63" style="fill: #164d73" width="1.13" x="26.36" y="82.86"/>
    <polygon points="29.95 85.92 31.61 85.92 31.61 86.92 30.45 86.92 30.45 86.42 29.95 86.3 29.95 85.92" style="fill: #164d73"/>
    <rect height="2.34" style="fill: #164d73" width="1.28" x="26.2" y="86.92"/>
    <polygon points="21.55 85.7 23.11 85.7 23.11 86.58 21.7 86.58 21.55 85.7" style="fill: #164d73"/>
    <rect height="2.84" style="fill: #164d73" width="1" x="18.61" y="86.14"/>
    <polygon points="15.51 86.14 15.51 88.42 16.76 88.42 16.76 85.92 15.51 86.14" style="fill: #164d73"/>
    <path d="M5.8,80.39H8v1.72l1.41,1.41v1.66H8.8l-.09-1c0-.27-.06-.49-.37-.53H5.7Z" style="fill: #164d73"/>
    <rect height="1" style="fill: #164d73" width="2.34" x="3.67" y="85.92"/>
    <path d="M8.67,86.92a2.05,2.05,0,0,1-.75,2.34H9.39a2.16,2.16,0,0,0,0-2.34Z" style="fill: #164d73"/>
    <rect height="0.84" style="fill: #164d73" width="1.5" x="3.83" y="90.39"/>
    <polygon points="3.83 95.02 5.33 95.02 5.33 95.83 3.67 95.83 3.83 95.02" style="fill: #164d73"/>
    <polygon points="8.54 95.02 9.89 95.02 9.89 95.83 8.42 95.83 8.54 95.02" style="fill: #164d73"/>
    <path d="M17.2,99.11V97.45H28.64c.19-.5.79-.71,1.75-.69h.69l-.16.91h-.81c-.6-.24-1,.14-1.28.63l.09.81Z" style="fill: #164d73"/>
    <path d="M32.36,96v1.34A1.47,1.47,0,0,1,33.26,99h1.06v-1l-1-1.17V96Z" style="fill: #164d73"/>
    <polygon points="20.86 94.42 23.11 94.42 23.11 95.42 20.58 95.42 20.86 94.42" style="fill: #164d73"/>
    <polygon points="20.92 92.98 23.11 92.39 23.11 91.23 22.33 91.39 20.92 92.23 20.92 92.98" style="fill: #164d73"/>
    <polygon points="24.61 90.2 26.36 90.2 26.36 91.08 24.42 91.08 24.61 90.2" style="fill: #164d73"/>
    <polygon points="31.39 92.27 29.01 95.02 28.73 93.14 31.08 91.55 31.39 92.27" style="fill: #164d73"/>
    <polygon points="41.75 73.39 41.75 75.27 43.88 75.27 43.88 79.31 40 79.31 40 78.22 38.61 78.22 38.76 74.35 41.75 73.39" style="fill: #164d73"/>
    <rect height="4.93" style="fill: #164d73" width="4.07" x="1.25" y="74.93"/>
    <rect height="1.13" style="fill: #164d73" width="2.19" x="3.5" y="80.93"/>
  </g>
  <g data-name="POINTS ON GREENLINES" id="POINTS_ON_GREENLINES">
    <circle cx="9.65" cy="14.86" r="0.21" style="fill: #407e53" transform="translate(-7.68 11.18) rotate(-45)"/>
    <circle cx="15.51" cy="15.08" r="0.21" style="fill: #407e53" transform="translate(-6.12 15.38) rotate(-45)"/>
    <circle cx="17.92" cy="15.13" r="0.21" style="fill: #407e53" transform="translate(-5.45 17.1) rotate(-45)"/>
    <circle cx="20.7" cy="15.13" r="0.21" style="fill: #407e53" transform="translate(-4.63 19.07) rotate(-45)"/>
    <circle cx="26.27" cy="15.13" r="0.21" style="fill: #407e53" transform="translate(-3 23.01) rotate(-45)"/>
    <circle cx="29.27" cy="15.13" r="0.21" style="fill: #407e53" transform="translate(-2.12 25.13) rotate(-45)"/>
    <circle cx="28.82" cy="18.02" r="0.21" style="fill: #407e53" transform="translate(-4.3 25.65) rotate(-45)"/>
    <circle cx="27.66" cy="19.17" r="0.21" style="fill: #407e53" transform="translate(-5.46 25.17) rotate(-45)"/>
    <circle cx="30.33" cy="17.45" r="0.21" style="fill: #407e53" transform="translate(-3.45 26.56) rotate(-45)"/>
    <circle cx="31.95" cy="18.02" r="0.21" style="fill: #407e53" transform="translate(-3.38 27.87) rotate(-45)"/>
    <circle cx="32.45" cy="22.77" r="0.21" style="fill: #407e53" transform="translate(-6.59 29.61) rotate(-45)"/>
    <circle cx="23.71" cy="24.31" r="0.21" style="fill: #407e53" transform="translate(-10.24 23.89) rotate(-45)"/>
    <circle cx="20.7" cy="28.5" r="0.21" style="fill: #407e53" transform="translate(-14.09 22.99) rotate(-45)"/>
    <circle cx="23.71" cy="26.42" r="0.21" style="fill: #407e53" transform="translate(-11.73 24.5) rotate(-45)"/>
    <circle cx="23.71" cy="28.5" r="0.21" style="fill: #407e53" transform="translate(-13.21 25.11) rotate(-45)"/>
    <circle cx="20.41" cy="26.42" r="0.21" style="fill: #407e53" transform="translate(-12.7 22.17) rotate(-45)"/>
    <circle cx="15.29" cy="25.92" r="0.21" style="fill: #407e53" transform="translate(-13.85 18.4) rotate(-45)"/>
    <circle cx="11.3" cy="28.71" r="0.21" style="fill: #407e53" transform="translate(-16.99 16.4) rotate(-45)"/>
    <circle cx="8.05" cy="43.67" r="0.21" style="fill: #407e53" transform="translate(-28.52 18.48) rotate(-45)"/>
    <circle cx="8.05" cy="44.98" r="0.21" style="fill: #407e53" transform="translate(-29.45 18.86) rotate(-45)"/>
    <circle cx="9.3" cy="56.85" r="0.21" style="fill: #407e53" transform="translate(-37.48 23.23) rotate(-45)"/>
    <circle cx="9.3" cy="58.17" r="0.21" style="fill: #407e53" transform="translate(-38.41 23.61) rotate(-45)"/>
    <circle cx="14.15" cy="73.14" r="0.21" style="fill: #407e53" transform="translate(-47.57 31.43) rotate(-45)"/>
    <circle cx="23.21" cy="56.64" r="0.21" style="fill: #407e53" transform="translate(-33.25 33) rotate(-45)"/>
    <circle cx="15.29" cy="24.31" r="0.21" style="fill: #407e53" transform="translate(-12.71 17.93) rotate(-45)"/>
    <circle cx="24.93" cy="22.65" r="0.21" style="fill: #407e53" transform="translate(-8.72 24.26) rotate(-45)"/>
    <circle cx="32.45" cy="24.83" r="0.21" style="fill: #407e53" transform="translate(-8.05 30.22) rotate(-45)"/>
    <circle cx="34.78" cy="23.7" r="0.21" style="fill: #407e53" transform="translate(-6.57 31.54) rotate(-45)"/>
    <circle cx="34.78" cy="28.29" r="0.21" style="fill: #407e53" transform="translate(-9.81 32.88) rotate(-45)"/>
    <circle cx="33.11" cy="29.2" r="0.21" style="fill: #407e53" transform="translate(-10.95 31.96) rotate(-45)"/>
    <circle cx="36.86" cy="23.7" r="0.21" style="fill: #407e53" transform="translate(-5.96 33.01) rotate(-45)"/>
    <circle cx="23.49" cy="15.13" r="0.21" style="fill: #407e53" transform="translate(-3.82 21.04) rotate(-45)"/>
    <circle cx="26.27" cy="17.45" r="0.21" style="fill: #407e53" transform="translate(-4.64 23.69) rotate(-45)"/>
    <circle cx="23.49" cy="17.45" r="0.21" style="fill: #407e53" transform="translate(-5.46 21.72) rotate(-45)"/>
    <circle cx="32.05" cy="15.13" r="0.21" style="fill: #407e53" transform="translate(-1.31 27.1) rotate(-45)"/>
    <circle cx="34.84" cy="15.13" r="0.21" style="fill: #407e53" transform="translate(-0.49 29.07) rotate(-45)"/>
    <circle cx="6.66" cy="14.86" r="0.21" style="fill: #407e53" transform="translate(-8.56 9.06) rotate(-45)"/>
    <circle cx="9.65" cy="17.66" r="0.21" style="fill: #407e53" transform="translate(-9.66 12) rotate(-45)"/>
    <circle cx="9.44" cy="23.42" r="0.21" style="fill: #6ba67d" transform="translate(-13.8 13.53) rotate(-45)"/>
    <circle cx="6.66" cy="17.66" r="0.21" style="fill: #407e53" transform="translate(-10.54 9.88) rotate(-45)"/>
    <circle cx="8.53" cy="16.47" r="0.53" style="fill: #dfce7e"/>
    <circle cx="36.33" cy="29.2" r="0.53" style="fill: #dfce7e"/>
    <circle cx="30.25" cy="25.84" r="0.45" style="fill: #9d9380"/>
    <circle cx="13.94" cy="58.14" r="0.52" style="fill: #dfce7e"/>
    <circle cx="22.33" cy="81.98" r="0.44" style="fill: #0a1823"/>
    <circle cx="41.88" cy="76.92" r="0.44" style="fill: #0a1823"/>
    <circle cx="7.13" cy="81.54" r="0.44" style="fill: #0a1823"/>
    <circle cx="2.57" cy="76.04" r="0.44" style="fill: #0a1823"/>
  </g>
  <g data-name="black squares" id="black_squares">
    <rect height="22.8" style="fill: #585955" width="22.8" x="16.08" y="30"/>
    <rect height="17.04" style="fill: #595a54" width="22.8" x="16.08" y="57.6"/>
  </g>
  <g data-name="Layer 2" id="Layer_2">
    <rect height="2.96" style="fill: #e4bc6d" width="1.04" x="40.24" y="19.78"/>
    <path d="M43.63,20.31H41.51a.15.15,0,0,0-.08,0h0l0,0h0l-.66.53s0,.93,0,.93l.66.53h0l0,0h0a.15.15,0,0,0,.08,0h2.11a.16.16,0,0,0,.16-.16V20.47A.16.16,0,0,0,43.63,20.31Z" style="fill: #d3c9c2"/>
    <rect height="2.96" style="fill: #e4bc6d" width="1.04" x="40.24" y="24.09"/>
    <path d="M43.63,24.62H41.51a.15.15,0,0,0-.08,0h0l0,0h0l-.66.53s0,.93,0,.93l.66.53h0l0,0h0a.15.15,0,0,0,.08,0h2.11a.16.16,0,0,0,.16-.16V24.78A.16.16,0,0,0,43.63,24.62Z" style="fill: #d3c9c2"/>
    <rect height="2.96" style="fill: #e4bc6d" width="1.04" x="40.24" y="28.26"/>
    <path d="M43.63,28.79H41.51a.15.15,0,0,0-.08,0h0l0,0h0l-.66.53s0,.93,0,.93l.66.53h0l0,0h0a.15.15,0,0,0,.08,0h2.11a.16.16,0,0,0,.16-.16V28.95A.16.16,0,0,0,43.63,28.79Z" style="fill: #d3c9c2"/>
    <rect height="2.96" style="fill: #e4bc6d" width="1.04" x="40.24" y="32.55"/>
    <path d="M43.63,33.08H41.51a.15.15,0,0,0-.08,0h0l0,0h0l-.66.53s0,.93,0,.93l.66.53h0l0,0h0a.15.15,0,0,0,.08,0h2.11a.16.16,0,0,0,.16-.16V33.24A.16.16,0,0,0,43.63,33.08Z" style="fill: #d3c9c2"/>
    <rect height="2.96" style="fill: #e4bc6d" transform="translate(11.88 67.19) rotate(180)" width="1.58" x="5.15" y="32.12"/>
    <path d="M1.59,34.55H4.8a.3.3,0,0,0,.12,0h0l0,0H5L6,34S6,33,6,33l-1-.53H5l0,0h0a.3.3,0,0,0-.12,0H1.59c-.13,0-.24.07-.24.16v1.77C1.34,34.47,1.45,34.55,1.59,34.55Z" style="fill: #dad5d4"/>
    <rect height="2.96" style="fill: #e4bc6d" transform="translate(11.88 58.57) rotate(180)" width="1.58" x="5.15" y="27.8"/>
    <path d="M1.59,30.23H4.8a.3.3,0,0,0,.12,0h0l0,0H5l1-.53s0-.93,0-.93L5,28.2H5l0,0h0a.3.3,0,0,0-.12,0H1.59c-.13,0-.24.07-.24.16v1.77C1.34,30.16,1.45,30.23,1.59,30.23Z" style="fill: #dad5d4"/>
    <rect height="2.96" style="fill: #e4bc6d" transform="translate(11.88 50.23) rotate(180)" width="1.58" x="5.15" y="23.64"/>
    <rect height="2.96" style="fill: #e4bc6d" transform="translate(11.88 41.42) rotate(180)" width="1.58" x="5.15" y="19.23"/>
    <path d="M1.59,26.07H4.8a.3.3,0,0,0,.12,0h0l0,0H5l1-.53s0-.93,0-.93L5,24H5l0,0h0a.3.3,0,0,0-.12,0H1.59c-.13,0-.24.07-.24.16v1.77C1.34,26,1.45,26.07,1.59,26.07Z" style="fill: #dad5d4"/>
    <path d="M1.59,21.78H4.8a.3.3,0,0,0,.12,0h0l0,0H5l1-.53s0-.93,0-.93l-1-.53H5l0,0h0a.3.3,0,0,0-.12,0H1.59c-.13,0-.24.07-.24.16v1.77C1.34,21.7,1.45,21.78,1.59,21.78Z" style="fill: #dad5d4"/>
    <rect height="2.96" style="fill: #e4bc6d" transform="translate(11.88 101.69) rotate(180)" width="1.58" x="5.15" y="49.37"/>
    <path d="M1.59,51.8H4.8a.3.3,0,0,0,.12,0h0l0,0H5l1-.53s0-.93,0-.93l-1-.53H5l0,0h0a.3.3,0,0,0-.12,0H1.59c-.13,0-.24.07-.24.16v1.77C1.34,51.72,1.45,51.8,1.59,51.8Z" style="fill: #dad5d4"/>
    <rect height="2.96" style="fill: #e4bc6d" transform="translate(11.88 93.07) rotate(180)" width="1.58" x="5.15" y="45.05"/>
    <path d="M1.59,47.48H4.8a.3.3,0,0,0,.12,0h0l0,0H5l1-.53S6,46,6,46l-1-.53H5l0,0h0a.3.3,0,0,0-.12,0H1.59c-.13,0-.24.07-.24.16v1.77C1.34,47.41,1.45,47.48,1.59,47.48Z" style="fill: #dad5d4"/>
    <rect height="2.96" style="fill: #e4bc6d" transform="translate(11.88 118.82) rotate(180)" width="1.58" x="5.15" y="57.93"/>
    <path d="M1.59,60.36H4.8a.3.3,0,0,0,.12,0h0l0,0H5l1-.53s0-.93,0-.93l-1-.53H5l0,0h0a.3.3,0,0,0-.12,0H1.59c-.13,0-.24.07-.24.16V60.2C1.34,60.29,1.45,60.36,1.59,60.36Z" style="fill: #dad5d4"/>
    <rect height="2.96" style="fill: #e4bc6d" transform="translate(11.38 127.32) rotate(180)" width="1.58" x="4.9" y="62.18"/>
    <path d="M1.34,69.18H4.55a.3.3,0,0,0,.12,0h0l0,0h0l1-.53s0-.93,0-.93l-1-.53h0l0,0h0a.3.3,0,0,0-.12,0H1.34c-.13,0-.24.07-.24.16V69C1.09,69.11,1.2,69.18,1.34,69.18Z" style="fill: #dad5d4"/>
    <rect height="2.96" style="fill: #dad4d7" transform="translate(11.38 136.27) rotate(180)" width="1.58" x="4.9" y="66.66"/>
    <path d="M1.34,64.61H4.55a.3.3,0,0,0,.12,0h0l0,0h0l1-.53s0-.93,0-.93l-1-.53h0l0,0h0a.3.3,0,0,0-.12,0H1.34c-.13,0-.24.07-.24.16v1.77C1.09,64.54,1.2,64.61,1.34,64.61Z" style="fill: #dad5d4"/>
    <path d="M1.34,73.1H4.55a.3.3,0,0,0,.12,0h0l0,0h0l1-.53s0-.93,0-.93l-1-.53h0l0,0h0a.3.3,0,0,0-.12,0H1.34c-.13,0-.24.07-.24.16v1.77C1.09,73,1.2,73.1,1.34,73.1Z" style="fill: #dad5d4"/>
    <rect height="2.96" style="fill: #dad4d7" transform="translate(11.38 144.1) rotate(180)" width="1.58" x="4.9" y="70.57"/>
    <path d="M43.62,62.68H41.47a.15.15,0,0,0-.08,0h0l0,0h0l-.67.53s0,.93,0,.93l.67.53h0l0,0h0a.15.15,0,0,0,.08,0h2.15a.16.16,0,0,0,.16-.16V62.84A.16.16,0,0,0,43.62,62.68Z" style="fill: #d3c9c2"/>
    <rect height="2.96" style="fill: #dad4d7" width="1.58" x="39.93" y="62.25"/>
    <rect height="2.96" style="fill: #e4bc6d" transform="translate(11.88 110.19) rotate(180)" width="1.58" x="5.15" y="53.62"/>
    <path d="M1.59,56H4.8a.3.3,0,0,0,.12,0h0l0,0H5l1-.53s0-.93,0-.93L5,54H5l0,0h0a.3.3,0,0,0-.12,0H1.59c-.13,0-.24.07-.24.16v1.77C1.34,56,1.45,56,1.59,56Z" style="fill: #dad5d4"/>
    <rect height="2.96" style="fill: #e4bc6d" transform="translate(11.88 84.73) rotate(180)" width="1.58" x="5.15" y="40.89"/>
    <rect height="2.96" style="fill: #e4bc6d" transform="translate(11.88 75.92) rotate(180)" width="1.58" x="5.15" y="36.48"/>
    <path d="M1.59,43.32H4.8a.3.3,0,0,0,.12,0h0l0,0H5l1-.53s0-.93,0-.93l-1-.53H5l0,0h0a.3.3,0,0,0-.12,0H1.59c-.13,0-.24.07-.24.16v1.77C1.34,43.25,1.45,43.32,1.59,43.32Z" style="fill: #dad5d4"/>
    <path d="M1.59,39H4.8a.3.3,0,0,0,.12,0h0l0,0H5l1-.53s0-.93,0-.93L5,37H5l0,0h0a.3.3,0,0,0-.12,0H1.59c-.13,0-.24.07-.24.16v1.77C1.34,39,1.45,39,1.59,39Z" style="fill: #dad5d4"/>
    <rect height="2.96" style="fill: #e4bc6d" width="1.04" x="40.24" y="41.07"/>
    <path d="M43.63,41.6H41.51a.15.15,0,0,0-.08,0h0l0,0h0l-.66.53s0,.93,0,.93l.66.53h0l0,0h0a.15.15,0,0,0,.08,0h2.11a.16.16,0,0,0,.16-.16V41.76A.16.16,0,0,0,43.63,41.6Z" style="fill: #d3c9c2"/>
    <rect height="2.96" style="fill: #e4bc6d" width="1.04" x="40.24" y="45.36"/>
    <path d="M43.63,45.89H41.51a.15.15,0,0,0-.08,0h0l0,0h0l-.66.53s0,.93,0,.93l.66.53h0l0,0h0a.15.15,0,0,0,.08,0h2.11a.16.16,0,0,0,.16-.16V46.05A.16.16,0,0,0,43.63,45.89Z" style="fill: #d3c9c2"/>
    <rect height="2.96" style="fill: #e4bc6d" width="1.04" x="40.24" y="49.61"/>
    <path d="M43.63,50.14H41.51a.15.15,0,0,0-.08,0h0l0,0h0l-.66.53s0,.93,0,.93l.66.53h0l0,0h0a.15.15,0,0,0,.08,0h2.11a.16.16,0,0,0,.16-.16V50.3A.16.16,0,0,0,43.63,50.14Z" style="fill: #d3c9c2"/>
    <rect height="2.96" style="fill: #e4bc6d" width="1.04" x="40.24" y="71.24"/>
    <path d="M43.63,71.77H41.51a.15.15,0,0,0-.08,0h0l0,0h0l-.66.53s0,.93,0,.93l.66.53h0l0,0h0a.15.15,0,0,0,.08,0h2.11a.16.16,0,0,0,.16-.16V71.93A.16.16,0,0,0,43.63,71.77Z" style="fill: #d3c9c2"/>
    <rect height="2.96" style="fill: #e4bc6d" width="1.04" x="40.24" y="36.93"/>
    <ellipse cx="41.37" cy="38.45" rx="1.09" ry="1.07" style="fill: #202538"/>
    <path d="M43.63,37.38H41.51l-.05,0v2l.05,0h2.11a.16.16,0,0,0,.16-.16V37.54A.16.16,0,0,0,43.63,37.38Z" style="fill: #d3c9c2"/>
    <rect height="2.96" style="fill: #e4bc6d" width="1.04" x="40.24" y="54.01"/>
    <ellipse cx="41.37" cy="55.53" rx="1.09" ry="1.07" style="fill: #202538"/>
    <path d="M43.63,54.46H41.51l-.05,0v2l.05,0h2.11a.16.16,0,0,0,.16-.16V54.62A.16.16,0,0,0,43.63,54.46Z" style="fill: #d3c9c2"/>
    <rect height="2.96" style="fill: #e4bc6d" width="1.04" x="40.24" y="58.26"/>
    <ellipse cx="41.37" cy="59.78" rx="1.09" ry="1.07" style="fill: #202538"/>
    <path d="M43.63,58.71H41.51l-.05,0v2l.05,0h2.11a.16.16,0,0,0,.16-.16V58.87A.16.16,0,0,0,43.63,58.71Z" style="fill: #d3c9c2"/>
    <rect height="2.96" style="fill: #e4bc6d" transform="translate(88.11 63.67) rotate(90)" width="1.04" x="11.7" y="74.41"/>
    <ellipse cx="12.18" cy="76.49" rx="1.07" ry="1.09" style="fill: #202538"/>
    <path d="M13.25,78.75V76.64a.1.1,0,0,0,0-.05h-2a.1.1,0,0,0,0,.05v2.11a.16.16,0,0,0,.16.16h1.77A.16.16,0,0,0,13.25,78.75Z" style="fill: #a5a18f"/>
    <rect height="2.96" style="fill: #e4bc6d" transform="translate(83.83 67.95) rotate(90)" width="1.04" x="7.42" y="74.41"/>
    <ellipse cx="7.9" cy="76.49" rx="1.07" ry="1.09" style="fill: #202538"/>
    <path d="M9,78.75V76.64a.1.1,0,0,0,0-.05h-2a.1.1,0,0,0,0,.05v2.11a.16.16,0,0,0,.16.16H8.81A.16.16,0,0,0,9,78.75Z" style="fill: #a5a18f"/>
    <rect height="2.96" style="fill: #e4bc6d" transform="translate(96.66 55.12) rotate(90)" width="1.04" x="20.25" y="74.41"/>
    <ellipse cx="20.73" cy="76.49" rx="1.07" ry="1.09" style="fill: #202538"/>
    <path d="M21.8,78.75V76.64a.1.1,0,0,0,0-.05h-2a.1.1,0,0,0,0,.05v2.11a.16.16,0,0,0,.16.16h1.77A.16.16,0,0,0,21.8,78.75Z" style="fill: #a5a18f"/>
    <rect height="2.96" style="fill: #e4bc6d" transform="translate(92.38 59.39) rotate(90)" width="1.04" x="15.98" y="74.41"/>
    <ellipse cx="16.46" cy="76.49" rx="1.07" ry="1.09" style="fill: #202538"/>
    <path d="M17.52,78.75V76.64a.1.1,0,0,0,0-.05h-2a.1.1,0,0,0,0,.05v2.11a.16.16,0,0,0,.16.16h1.77A.16.16,0,0,0,17.52,78.75Z" style="fill: #a5a18f"/>
    <rect height="2.96" style="fill: #e4bc6d" transform="translate(105.21 46.56) rotate(90)" width="1.04" x="28.81" y="74.41"/>
    <ellipse cx="29.29" cy="76.49" rx="1.07" ry="1.09" style="fill: #202538"/>
    <path d="M30.35,78.75V76.64a.1.1,0,0,0,0-.05h-2a.1.1,0,0,0,0,.05v2.11a.16.16,0,0,0,.16.16H30.2A.16.16,0,0,0,30.35,78.75Z" style="fill: #a5a18f"/>
    <rect height="2.96" style="fill: #e4bc6d" transform="translate(100.94 50.84) rotate(90)" width="1.04" x="24.53" y="74.41"/>
    <ellipse cx="25.01" cy="76.49" rx="1.07" ry="1.09" style="fill: #202538"/>
    <path d="M26.08,78.75V76.64a.1.1,0,0,0,0-.05H24a.1.1,0,0,0,0,.05v2.11a.16.16,0,0,0,.16.16h1.77A.16.16,0,0,0,26.08,78.75Z" style="fill: #a5a18f"/>
    <rect height="2.96" style="fill: #e4bc6d" transform="translate(113.77 38.01) rotate(90)" width="1.04" x="37.36" y="74.41"/>
    <ellipse cx="37.84" cy="76.49" rx="1.07" ry="1.09" style="fill: #202538"/>
    <path d="M38.91,78.75V76.64a.1.1,0,0,0,0-.05h-2a.1.1,0,0,0,0,.05v2.11a.16.16,0,0,0,.16.16h1.77A.16.16,0,0,0,38.91,78.75Z" style="fill: #a5a18f"/>
    <rect height="2.96" style="fill: #e4bc6d" transform="translate(109.49 42.29) rotate(90)" width="1.04" x="33.08" y="74.41"/>
    <ellipse cx="33.56" cy="76.49" rx="1.07" ry="1.09" style="fill: #202538"/>
    <path d="M34.63,78.75V76.64a.1.1,0,0,0,0-.05h-2a.1.1,0,0,0,0,.05v2.11a.16.16,0,0,0,.16.16h1.77A.16.16,0,0,0,34.63,78.75Z" style="fill: #a5a18f"/>
    <rect height="2.96" style="fill: #e4bc6d" width="1.04" x="40.24" y="66.88"/>
    <ellipse cx="41.37" cy="68.4" rx="1.09" ry="1.07" style="fill: #202538"/>
    <path d="M43.63,67.34H41.51l-.05,0v2l.05,0h2.11a.16.16,0,0,0,.16-.16V67.5A.16.16,0,0,0,43.63,67.34Z" style="fill: #d3c9c2"/>
  </g>
  <g id="FLOWER">
    <path d="M31.64,45c.15-4.27,1.52-6.59,4-7.12.92,0,1.36.4,1.19,1.41s-.58,1.13-1.69,1.19A4.55,4.55,0,0,0,31.64,45Z" style="fill: #686146"/>
    <path d="M31.67,45.33c-1-1.84-1.06-4,.09-6.72.56-.81-.34-.87-.59-.37-1.14,1.58-1,4.53-.41,5.91A2.74,2.74,0,0,0,31.67,45.33Z" style="fill: #686146"/>
    <path d="M31.5,45.23a3.91,3.91,0,0,1-1.73-1.84,11,11,0,0,1-.19-4.72c.06-1-.61-1.23-.69-.25a10.43,10.43,0,0,0,.23,4.34A5.07,5.07,0,0,0,31.5,45.23Z" style="fill: #686146"/>
    <path d="M31.33,45.33A1.78,1.78,0,0,1,30,45.08a1,1,0,0,0-.84-.47c-.49.1-.67.58-.08.8A2.84,2.84,0,0,0,31.33,45.33Z" style="fill: #766c4f"/>
  </g>
  <g data-name="GOLD LINE" id="GOLD_LINE">
    <path d="M8.61,1.77q.94,0,.86.91V9.24H11V2.72a.89.89,0,0,1,.94-1h4.27a.66.66,0,0,1,.52.24.64.64,0,0,1,.13.44V9.24h1.54V2.45c-.06-.48.18-.71.68-.72h5.09V9.24h1.94V2.61c0-.43.13-.75.73-.77h5V9.33h1.79V2.6c0-.59.36-.84.9-.9h4c.47,0,.76.34.75,1.15v9.88c0,.95-2.07.95-2.07,0v-9h-1.5v6.41c0,.61-.36.91-1,1h-4c-.61,0-.92-.31-.85-1V3.63H28V10.1c.1.55-.22.89-1.06,1H23c-.56.06-.87-.19-.79-.93V3.62H20.65V10.2c0,.55-.39.89-1.27.8H15.48c-.53,0-.78-.27-.69-.94V3.44H13.2V10c-.2.64-.55.93-1,.91h-4a1,1,0,0,1-.82-1V3.39" style="fill: #f2d492"/>
  </g>
  <g data-name="SILVER CONECTORS" id="SILVER_CONECTORS">
    <rect height="8.74" style="fill: #f9df7f" width="6.88" x="8.05" y="29.4"/>
    <rect height="2.88" style="fill: #a8abaa" width="3" x="31.32" y="93.44"/>
    <rect height="2.48" rx="0.77" ry="0.77" style="fill: url(#radial-gradient)" width="4.02" x="39" y="93.93"/>
    <path d="M42.24,96.41H39.77a1.1,1.1,0,0,1-.55-.23s-.14-.12-.12-.16.13,0,.16,0l.52,0A17,17,0,0,1,42.9,96q-.12-1.83-.12-1.84l.07,1.09.05.74a.65.65,0,0,1-.12.19A.76.76,0,0,1,42.24,96.41Z" style="fill: url(#radial-gradient-2)"/>
    <rect height="2.78" rx="0.79" ry="0.79" style="fill: #ebeae3" width="4.54" x="38.46" y="80.41"/>
    <rect height="11.19" style="fill: #88857c" width="7.67" x="36.96" y="83.02"/>
    <g>
      <rect height="1.81" style="fill: url(#linear-gradient)" width="1.84" x="12.3" y="40.89"/>
      <rect height="1.81" style="fill: url(#linear-gradient-2)" width="1.84" x="9.03" y="40.89"/>
      <rect height="1.52" style="fill: url(#linear-gradient-3)" width="2.77" x="10.23" y="41.01"/>
    </g>
    <g>
      <rect height="1.81" rx="0.53" ry="0.53" style="fill: #d7d9d2" width="1.84" x="37.19" y="25.62"/>
      <rect height="1.81" rx="0.53" ry="0.53" style="fill: #d7d9d2" width="1.84" x="34.2" y="25.59"/>
      <rect height="1.52" style="fill: #b4ad89" width="2.77" x="35.12" y="25.74"/>
    </g>
    <g>
      <rect height="1.81" rx="0.53" ry="0.53" style="fill: #d7d9d2" width="1.84" x="16.87" y="54.1"/>
      <rect height="1.81" rx="0.53" ry="0.53" style="fill: #d7d9d2" width="1.84" x="13.88" y="54.07"/>
      <rect height="1.52" style="fill: #b4ad89" width="2.77" x="14.8" y="54.22"/>
    </g>
    <g>
      <rect height="1.81" rx="0.53" ry="0.53" style="fill: #d7d9d2" width="1.84" x="37.14" y="19.81"/>
      <rect height="1.81" rx="0.53" ry="0.53" style="fill: #d7d9d2" width="1.84" x="34.15" y="19.78"/>
      <rect height="1.52" style="fill: #d7d9d2" width="2.77" x="35.07" y="19.93"/>
    </g>
    <g>
      <rect height="1.81" rx="0.53" ry="0.53" style="fill: #d7d9d2" width="1.84" x="37.14" y="16.77"/>
      <rect height="1.81" rx="0.53" ry="0.53" style="fill: #d7d9d2" width="1.84" x="34.15" y="16.74"/>
      <rect height="1.52" style="fill: #d7d9d2" width="2.77" x="35.07" y="16.89"/>
    </g>
    <g>
      <rect height="1.81" rx="0.53" ry="0.53" style="fill: #d7d9d2" width="1.84" x="19.97" y="19.76"/>
      <rect height="1.81" rx="0.53" ry="0.53" style="fill: #d7d9d2" width="1.84" x="16.98" y="19.73"/>
      <rect height="1.52" style="fill: #d7d9d2" width="2.77" x="17.9" y="19.88"/>
    </g>
    <g>
      <rect height="1.81" rx="0.53" ry="0.53" style="fill: #adafa3" width="1.84" x="12.18" y="24.68"/>
      <rect height="1.81" rx="0.53" ry="0.53" style="fill: #adafa3" width="1.84" x="9.19" y="24.65"/>
      <rect height="1.52" style="fill: #adafa3" width="2.77" x="10.11" y="24.8"/>
    </g>
    <g>
      <rect height="1.81" rx="0.53" ry="0.53" style="fill: #d7d9d2" width="1.84" x="19.97" y="16.72"/>
      <rect height="1.81" rx="0.53" ry="0.53" style="fill: #d7d9d2" width="1.84" x="16.98" y="16.69"/>
      <rect height="1.52" style="fill: #d7d9d2" width="2.77" x="17.9" y="16.84"/>
    </g>
    <g>
      <rect height="1.81" rx="0.53" ry="0.53" style="fill: #d8d5ca" width="1.84" x="26.22" y="54.11"/>
      <rect height="1.81" rx="0.53" ry="0.53" style="fill: #d8d5ca" width="1.84" x="23.23" y="54.08"/>
      <rect height="1.52" style="fill: #050505" width="2.77" x="24.15" y="54.23"/>
    </g>
    <g>
      <rect height="1.7" rx="0.42" ry="0.42" style="fill: #e7e6e8" width="2.85" x="11.29" y="21.06"/>
      <rect height="0.84" rx="0.4" ry="0.4" style="fill: #e7e6e8" width="2.94" x="11.24" y="20.43"/>
      <rect height="2.07" rx="0.73" ry="0.73" style="fill: #fffdf3" width="2.81" x="11.31" y="16.13"/>
      <rect height="3.46" rx="0.92" ry="0.92" style="fill: #cea468" width="2.24" x="11.54" y="17.4"/>
      <path d="M11.42,18q-.15-.64.76-.63l1.48,0c.39.16.51.38.16.69a5.47,5.47,0,0,1-1.92.17A.46.46,0,0,1,11.42,18Z" style="fill: #c8c7b7"/>
      <path d="M14,20.54q.15.64-.76.63l-1.48,0c-.39-.16-.51-.38-.16-.69a5.47,5.47,0,0,1,1.92-.17A.46.46,0,0,1,14,20.54Z" style="fill: #c8c7b7"/>
    </g>
    <g>
      <rect height="2.22" rx="0.42" ry="0.42" style="fill: #e7e6e8" width="3.73" x="8.9" y="52.96"/>
      <rect height="1.1" rx="0.4" ry="0.4" style="fill: #e7e6e8" width="3.84" x="8.84" y="52.13"/>
      <rect height="2.7" rx="0.73" ry="0.73" style="fill: #fffdf3" width="3.67" x="8.92" y="46.51"/>
      <rect height="4.52" rx="0.92" ry="0.92" style="fill: #cea468" width="2.94" x="9.23" y="48.17"/>
      <path d="M9.07,48.91q-.2-.84,1-.83l1.94.06c.51.21.67.49.2.9a7.15,7.15,0,0,1-2.51.22A.6.6,0,0,1,9.07,48.91Z" style="fill: #c5bba1"/>
      <path d="M12.39,52.27q.2.84-1,.83L9.46,53c-.51-.21-.67-.49-.2-.9a7.15,7.15,0,0,1,2.51-.22A.6.6,0,0,1,12.39,52.27Z" style="fill: #c5bba1"/>
    </g>
    <g>
      <rect height="1.39" rx="0.42" ry="0.42" style="fill: #e7e6e8" transform="translate(86.93 23.26) rotate(90)" width="2.34" x="30.66" y="54.4"/>
      <rect height="0.69" rx="0.27" ry="0.27" style="fill: #e7e6e8" transform="translate(87.8 22.39) rotate(90)" width="2.41" x="31.5" y="54.75"/>
      <rect height="1.7" rx="0.66" ry="0.66" style="fill: #fffdf3" transform="translate(90.82 19.37) rotate(90)" width="2.3" x="34.58" y="54.25"/>
      <rect height="2.83" rx="0.71" ry="0.71" style="fill: #67654a" transform="translate(89.04 21.15) rotate(90)" width="1.84" x="33.03" y="53.68"/>
      <path d="M35.07,54q.53-.12.52.62l0,1.22c-.13.32-.31.42-.56.13a4.49,4.49,0,0,1-.14-1.57A.38.38,0,0,1,35.07,54Z" style="fill: #c5bba1"/>
      <path d="M33,56.12q-.53.12-.52-.62l0-1.22c.13-.32.31-.42.56-.13a4.49,4.49,0,0,1,.14,1.57A.38.38,0,0,1,33,56.12Z" style="fill: #c5bba1"/>
    </g>
    <g>
      <rect height="1.07" rx="0.42" ry="0.42" style="fill: #e7e6e8" transform="translate(74.76 57.95) rotate(90)" width="1.79" x="7.5" y="65.82"/>
      <rect height="0.53" rx="0.26" ry="0.26" style="fill: #e7e6e8" transform="translate(75.43 57.28) rotate(90)" width="1.85" x="8.15" y="66.09"/>
      <rect height="1.3" rx="0.65" ry="0.65" style="fill: #fffdf3" transform="translate(77.74 54.96) rotate(90)" width="1.77" x="10.51" y="65.7"/>
      <rect height="2.18" rx="0.71" ry="0.71" style="fill: #67654a" transform="translate(76.38 56.33) rotate(90)" width="1.41" x="9.32" y="65.27"/>
      <path d="M10.88,65.54q.4-.09.4.48l0,.93c-.1.24-.24.32-.43.1a3.44,3.44,0,0,1-.1-1.21A.29.29,0,0,1,10.88,65.54Z" style="fill: #d7d9d2"/>
      <path d="M9.27,67.14q-.4.09-.4-.48l0-.93c.1-.24.24-.32.43-.1a3.44,3.44,0,0,1,.1,1.21A.29.29,0,0,1,9.27,67.14Z" style="fill: #d7d9d2"/>
    </g>
    <g>
      <rect height="1.07" rx="0.42" ry="0.42" style="fill: #e7e6e8" transform="translate(71.85 55.04) rotate(90)" width="1.79" x="7.5" y="62.91"/>
      <rect height="0.53" rx="0.26" ry="0.26" style="fill: #e7e6e8" transform="translate(72.52 54.37) rotate(90)" width="1.85" x="8.15" y="63.18"/>
      <rect height="1.3" rx="0.65" ry="0.65" style="fill: #fffdf3" transform="translate(74.84 52.06) rotate(90)" width="1.77" x="10.51" y="62.79"/>
      <rect height="2.18" rx="0.71" ry="0.71" style="fill: #36342e" transform="translate(73.47 53.42) rotate(90)" width="1.41" x="9.32" y="62.36"/>
      <path d="M10.88,62.63q.4-.09.4.48l0,.93c-.1.24-.24.32-.43.1a3.44,3.44,0,0,1-.1-1.21A.29.29,0,0,1,10.88,62.63Z" style="fill: #d7d9d2"/>
      <path d="M9.27,64.23q-.4.09-.4-.48l0-.93c.1-.24.24-.32.43-.1a3.44,3.44,0,0,1,.1,1.21A.29.29,0,0,1,9.27,64.23Z" style="fill: #d7d9d2"/>
    </g>
    <g>
      <rect height="1.07" rx="0.42" ry="0.42" style="fill: #e7e6e8" transform="translate(77.88 61.07) rotate(90)" width="1.79" x="7.5" y="68.94"/>
      <rect height="0.53" rx="0.26" ry="0.26" style="fill: #e7e6e8" transform="translate(78.55 60.4) rotate(90)" width="1.85" x="8.15" y="69.21"/>
      <rect height="1.3" rx="0.65" ry="0.65" style="fill: #fffdf3" transform="translate(80.86 58.08) rotate(90)" width="1.77" x="10.51" y="68.82"/>
      <rect height="2.18" rx="0.71" ry="0.71" style="fill: #67654a" transform="translate(79.5 59.45) rotate(90)" width="1.41" x="9.32" y="68.39"/>
      <path d="M10.88,68.66q.4-.09.4.48l0,.93c-.1.24-.24.32-.43.1a3.44,3.44,0,0,1-.1-1.21A.29.29,0,0,1,10.88,68.66Z" style="fill: #d7d9d2"/>
      <path d="M9.27,70.26q-.4.09-.4-.48l0-.93c.1-.24.24-.32.43-.1A3.44,3.44,0,0,1,9.43,70,.29.29,0,0,1,9.27,70.26Z" style="fill: #d7d9d2"/>
    </g>
    <g>
      <rect height="1.12" rx="0.41" ry="0.41" style="fill: #e7e6e8" width="1.88" x="16.98" y="26.93"/>
      <rect height="0.55" rx="0.2" ry="0.2" style="fill: #e7e6e8" width="1.94" x="16.95" y="26.51"/>
      <rect height="1.36" rx="0.5" ry="0.5" style="fill: #fffdf3" width="1.85" x="16.99" y="23.68"/>
      <rect height="2.28" rx="0.54" ry="0.54" style="fill: #cea468" width="1.48" x="17.15" y="24.52"/>
      <path d="M17.06,24.89q-.1-.42.5-.42l1,0c.26.11.34.25.1.45a3.6,3.6,0,0,1-1.26.11A.3.3,0,0,1,17.06,24.89Z" style="fill: #d0dac5"/>
      <path d="M18.74,26.58q.1.42-.5.42l-1,0c-.26-.11-.34-.25-.1-.45a3.6,3.6,0,0,1,1.26-.11A.3.3,0,0,1,18.74,26.58Z" style="fill: #d0dac5"/>
    </g>
    <g>
      <g>
        <rect height="1.77" rx="0.42" ry="0.42" style="fill: #e7e6e8" transform="translate(-64.43 106.43) rotate(-90)" width="2.58" x="19.71" y="84.54"/>
        <rect height="2.16" rx="0.54" ry="0.54" style="fill: #e7e6e8" transform="translate(-69.38 101.48) rotate(-90)" width="2.54" x="14.78" y="84.35"/>
        <rect height="3.6" rx="0.61" ry="0.61" style="fill: #e7e6e8" transform="translate(-66.7 103.92) rotate(-90)" width="2.11" x="17.55" y="83.51"/>
      </g>
      <rect height="1.8" style="fill: #2a292d" width="2.75" x="17.23" y="84.41"/>
      <g>
        <path d="M18.95,85.2v.18s0,0,0,0,0,0,0,0v-.23a0,0,0,0,1,0,0h.34a0,0,0,0,1,0,.09h-.13v.53h.13a0,0,0,0,1,0,.09H19V85.2Z" style="fill: #fbfcfe"/>
        <path d="M18.33,85.82a.09.09,0,0,1-.09-.09V85.2a.09.09,0,0,1,.09-.09h.26a.09.09,0,0,1,.09.09v.53a.09.09,0,0,1-.09.09Zm0-.62v.53h.26V85.2Z" style="fill: #fbfcfe"/>
        <path d="M18,85.2h-.3a0,0,0,0,1,0-.09H18v.3c0,.07,0,.1-.1.1H17.7v.22H18a0,0,0,0,1,0,.09h-.29a.09.09,0,0,1-.07,0,.1.1,0,0,1,0-.08v-.19a.1.1,0,0,1,0-.08.09.09,0,0,1,.07,0H18Z" style="fill: #fbfcfe"/>
      </g>
    </g>
    <g>
      <g>
        <rect height="1.77" rx="0.42" ry="0.42" style="fill: #e7e6e8" transform="translate(-57.17 116.07) rotate(-90)" width="2.58" x="28.16" y="85.73"/>
        <rect height="2.16" rx="0.54" ry="0.54" style="fill: #e7e6e8" transform="translate(-62.12 111.12) rotate(-90)" width="2.54" x="23.24" y="85.54"/>
        <rect height="3.6" rx="0.61" ry="0.61" style="fill: #e7e6e8" transform="translate(-59.44 113.56) rotate(-90)" width="2.11" x="26.01" y="84.7"/>
      </g>
      <rect height="1.8" style="fill: #2a292d" width="2.75" x="25.69" y="85.6"/>
      <g>
        <path d="M26.32,86.47h0l-.12.08v.25s0,.06,0,.06,0,0,0-.06v-.55s0-.06,0-.06,0,0,0,.06v.2l.07,0a.14.14,0,0,1,.07,0h.06a.11.11,0,0,1,.08,0,.14.14,0,0,1,0,.12v.28s0,.07,0,.07,0,0,0-.06v-.27s0-.08,0-.08Z" style="fill: #fbfcfe"/>
        <path d="M26.78,86.78h.3a0,0,0,0,1,0,.09h-.39v-.3c0-.07,0-.1.1-.1H27v-.22h-.3a0,0,0,0,1,0-.09H27a.09.09,0,0,1,.07,0,.1.1,0,0,1,0,.08v.19a.1.1,0,0,1,0,.08.09.09,0,0,1-.07,0h-.25Z" style="fill: #fbfcfe"/>
        <path d="M27.4,86.78h.3a0,0,0,0,1,0,.09h-.39v-.3c0-.07,0-.1.1-.1h.24v-.22h-.3a0,0,0,0,1,0-.09h.29a.09.09,0,0,1,.07,0,.1.1,0,0,1,0,.08v.19a.1.1,0,0,1,0,.08.09.09,0,0,1-.07,0H27.4Z" style="fill: #fbfcfe"/>
      </g>
    </g>
    <g>
      <g>
        <rect height="1.77" rx="0.42" ry="0.42" style="fill: #e7e6e8" transform="translate(-50.8 113.67) rotate(-90)" width="2.58" x="30.14" y="81.35"/>
        <rect height="2.16" rx="0.54" ry="0.54" style="fill: #e7e6e8" transform="translate(-55.75 108.72) rotate(-90)" width="2.54" x="25.21" y="81.16"/>
        <rect height="3.6" rx="0.61" ry="0.61" style="fill: #e7e6e8" transform="translate(-53.08 111.16) rotate(-90)" width="2.11" x="27.98" y="80.32"/>
      </g>
      <rect height="1.8" style="fill: #2a292d" width="2.75" x="27.66" y="81.21"/>
      <g>
        <path d="M28.39,82.4v-.18s0,0,0,0,0,0,0,0v.23a0,0,0,0,1,0,0h-.34a0,0,0,0,1,0-.09h.13v-.53h-.13a0,0,0,0,1,0-.09h.21v.62Z" style="fill: #fbfcfe"/>
        <path d="M29,81.78a.09.09,0,0,1,.09.09v.53a.09.09,0,0,1-.09.09h-.26a.09.09,0,0,1-.09-.09v-.53a.09.09,0,0,1,.09-.09Zm0,.62v-.53h-.26v.53Z" style="fill: #fbfcfe"/>
        <path d="M29.34,81.87a0,0,0,0,1,0-.09h.3a.09.09,0,0,1,.09.09V82a.11.11,0,0,1,0,.09.11.11,0,0,1,0,.09v.18a.09.09,0,0,1-.09.09h-.3a0,0,0,0,1,0-.09h.3v-.15c0-.05,0-.07,0-.07h-.17a0,0,0,0,1,0,0,0,0,0,0,1,0,0h.17s0,0,0-.07v-.15Z" style="fill: #fbfcfe"/>
      </g>
    </g>
    <g>
      <g>
        <rect height="1.77" rx="0.42" ry="0.42" style="fill: #e7e6e8" transform="translate(-74.36 97.81) rotate(-90)" width="2.58" x="10.44" y="85.2"/>
        <rect height="2.16" rx="0.54" ry="0.54" style="fill: #e7e6e8" transform="translate(-79.31 92.86) rotate(-90)" width="2.54" x="5.51" y="85.01"/>
        <rect height="3.6" rx="0.61" ry="0.61" style="fill: #e7e6e8" transform="translate(-76.63 95.3) rotate(-90)" width="2.11" x="8.28" y="84.16"/>
      </g>
      <rect height="1.8" style="fill: #2a292d" width="2.75" x="7.96" y="85.06"/>
      <g>
        <path d="M8.43,86.25h.3a0,0,0,0,1,0,.09H8.34V86c0-.07,0-.1.1-.1h.24v-.22h-.3a0,0,0,0,1,0-.09h.29a.09.09,0,0,1,.07,0,.1.1,0,0,1,0,.08v.19a.1.1,0,0,1,0,.08.09.09,0,0,1-.07,0H8.43Z" style="fill: #fbfcfe"/>
        <path d="M9.31,85.63a.09.09,0,0,1,.09.09v.53a.09.09,0,0,1-.09.09H9.05A.09.09,0,0,1,9,86.25v-.53a.09.09,0,0,1,.09-.09Zm0,.62v-.53H9.05v.53Z" style="fill: #fbfcfe"/>
        <path d="M9.67,86.25H10a0,0,0,0,1,0,.09H9.59V86c0-.07,0-.1.1-.1h.24v-.22h-.3a0,0,0,0,1,0-.09h.29a.09.09,0,0,1,.07,0,.1.1,0,0,1,0,.08v.19A.1.1,0,0,1,10,86a.09.09,0,0,1-.07,0H9.67Z" style="fill: #fbfcfe"/>
      </g>
    </g>
    <g>
      <rect height="0.89" rx="0.42" ry="0.42" style="fill: #e7e6e8" transform="translate(5.98 180.83) rotate(180)" width="2.58" x="1.7" y="89.97"/>
      <rect height="0.89" rx="0.42" ry="0.42" style="fill: #e7e6e8" transform="translate(5.98 192.48) rotate(180)" width="2.58" x="1.7" y="95.8"/>
      <rect height="5.2" rx="0.61" ry="0.61" style="fill: #e7e6e8" transform="translate(5.98 186.65) rotate(180)" width="2.11" x="1.94" y="90.73"/>
      <rect height="2.25" style="fill: #d3bd8c" transform="translate(-90.14 96.12) rotate(-90)" width="3.1" x="1.44" y="92"/>
    </g>
    <g>
      <rect height="0.94" rx="0.42" ry="0.42" style="fill: #e7e6e8" transform="translate(4.75 162.28) rotate(180)" width="2.9" x="0.92" y="80.67"/>
      <rect height="0.94" rx="0.42" ry="0.42" style="fill: #e7e6e8" transform="translate(4.75 174.59) rotate(180)" width="2.9" x="0.92" y="86.83"/>
      <rect height="5.49" rx="0.61" ry="0.61" style="fill: #e7e6e8" transform="translate(4.75 168.43) rotate(180)" width="2.38" x="1.19" y="81.47"/>
      <rect height="2.54" style="fill: #e7e6e8" transform="translate(-81.63 86.39) rotate(-90)" width="3.28" x="0.74" y="82.74"/>
    </g>
    <g>
      <rect height="0.89" rx="0.42" ry="0.42" style="fill: #e7e6e8" transform="translate(15.06 180.83) rotate(180)" width="2.58" x="6.24" y="89.97"/>
      <rect height="0.89" rx="0.42" ry="0.42" style="fill: #e7e6e8" transform="translate(15.06 192.48) rotate(180)" width="2.58" x="6.24" y="95.8"/>
      <rect height="5.2" rx="0.61" ry="0.61" style="fill: #e7e6e8" transform="translate(15.06 186.65) rotate(180)" width="2.11" x="6.48" y="90.73"/>
      <rect height="2.25" style="fill: #d3bd8c" transform="translate(-85.6 100.66) rotate(-90)" width="3.1" x="5.98" y="92"/>
    </g>
    <g>
      <rect height="0.89" rx="0.42" ry="0.42" style="fill: #e7e6e8" transform="translate(47.3 180.83) rotate(180)" width="2.58" x="22.36" y="89.97"/>
      <rect height="0.89" rx="0.42" ry="0.42" style="fill: #e7e6e8" transform="translate(47.3 192.48) rotate(180)" width="2.58" x="22.36" y="95.8"/>
      <rect height="5.2" rx="0.61" ry="0.61" style="fill: #e7e6e8" transform="translate(47.3 186.65) rotate(180)" width="2.11" x="22.6" y="90.73"/>
      <rect height="2.25" style="fill: #d3bd8c" transform="translate(-69.48 116.78) rotate(-90)" width="3.1" x="22.1" y="92"/>
    </g>
    <g>
      <rect height="0.89" rx="0.42" ry="0.42" style="fill: #e7e6e8" transform="translate(56.38 180.83) rotate(180)" width="2.58" x="26.9" y="89.97"/>
      <rect height="0.89" rx="0.42" ry="0.42" style="fill: #e7e6e8" transform="translate(56.38 192.48) rotate(180)" width="2.58" x="26.9" y="95.8"/>
      <rect height="5.2" rx="0.61" ry="0.61" style="fill: #e7e6e8" transform="translate(56.38 186.65) rotate(180)" width="2.11" x="27.13" y="90.73"/>
      <rect height="2.25" style="fill: #d3bd8c" transform="translate(-64.94 121.32) rotate(-90)" width="3.1" x="26.64" y="92"/>
    </g>
    <rect height="8.25" style="fill: #3e3f3d" width="4.29" x="13.68" y="88.49"/>
    <rect height="7.18" style="fill: #3e3f3d" width="4.26" x="31.12" y="86.88"/>
    <g>
      <g>
        <path d="M35.64,98.6H31a.73.73,0,0,0-.79.83v0a.63.63,0,0,1-1,.13v-.15a1,1,0,0,0-.75-.83H23.83a.73.73,0,0,0-.79.83v.1a.64.64,0,0,1-.91.08v-.18a1,1,0,0,0-.75-.83H16.73a.73.73,0,0,0-.79.83v.08a.63.63,0,0,1-1.13-.41v.16a1,1,0,0,0-.24-.4,1,1,0,0,0-.48-.27H9.44a.76.76,0,0,0-.6.23.72.72,0,0,0-.19.48.62.62,0,0,1-1.12.17v0a1,1,0,0,0-.75-.83H2.13a.73.73,0,0,0-.79.83l-.1,5.37a.94.94,0,0,0,.81.76l4.38-.09a1.09,1.09,0,0,0,.77-.27,1.08,1.08,0,0,0,.34-.65v0c.28-.34,1-.24,1,.3a.94.94,0,0,0,.81.76l4.37-.09a1.09,1.09,0,0,0,.77-.27,1,1,0,0,0,.3-.47v.08c0-.55.77-.64,1-.27v.27a.94.94,0,0,0,.81.76l4.38-.09a1.09,1.09,0,0,0,.77-.27,1.08,1.08,0,0,0,.34-.65v-.14a.63.63,0,0,1,.81.11v.29a.94.94,0,0,0,.81.76l4.38-.09a1.09,1.09,0,0,0,.77-.27,1.08,1.08,0,0,0,.34-.65v-.13a.62.62,0,0,1,.88.15v.24a.94.94,0,0,0,.81.76l4.37-.09a1.09,1.09,0,0,0,.77-.27,1.08,1.08,0,0,0,.34-.65V99.43a1,1,0,0,0-.75-.83Z" style="fill: #2f2f2d"/>
        <path d="M43.48,98.87A1,1,0,0,0,43,98.6H38.36a.73.73,0,0,0-.79.83v0a.63.63,0,0,1-1.17-.36v5.71c0-.58.84-.65,1.07-.23v.23a.94.94,0,0,0,.81.76l4.38-.09a1.09,1.09,0,0,0,.77-.27,1.08,1.08,0,0,0,.34-.65V99.43A1,1,0,0,0,43.48,98.87Z" style="fill: #2f2f2d"/>
      </g>
      <polyline points="7.66 104.31 7.66 100.27 8.84 100.27 8.84 104.31" style="fill: none;stroke: #000;stroke-miterlimit: 10;stroke-width: 0.200000002980232px"/>
      <polyline points="14.85 104.31 14.85 100.27 16.03 100.27 16.03 104.31" style="fill: none;stroke: #000;stroke-miterlimit: 10;stroke-width: 0.200000002980232px"/>
      <polyline points="22.3 104.31 22.3 100.27 23.48 100.27 23.48 104.31" style="fill: none;stroke: #000;stroke-miterlimit: 10;stroke-width: 0.200000002980232px"/>
      <polyline points="29.49 104.31 29.49 100.27 30.67 100.27 30.67 104.31" style="fill: none;stroke: #000;stroke-miterlimit: 10;stroke-width: 0.200000002980232px"/>
      <polyline points="36.59 104.31 36.59 100.27 37.77 100.27 37.77 104.31" style="fill: none;stroke: #000;stroke-miterlimit: 10;stroke-width: 0.200000002980232px"/>
    </g>
    <path d="M36.61,84.55c1,.44,1-.1,1-.59V83h1.24a.61.61,0,1,0,1.2,0h1.84c0,.68,1.28.68,1.28,0h1.25v1.39c0,.45.12.6.5.45v7.5c-.37-.09-.64-.06-.56.41V94.2H43a.64.64,0,0,0-1.25-.31H40c0-.67-1.19-.67-1.19,0v.31H37.48V92.62c-.36.07,0-.25-.71-.45Z" style="fill: #cec5b2"/>
    <circle cx="41" cy="88.72" r="2.78" style="fill: url(#radial-gradient-3)"/>
    <rect height="0.81" style="fill: url(#linear-gradient-4)" width="1.6" x="32.36" y="86.21"/>
    <ellipse cx="32.76" cy="95.53" rx="1.09" ry="0.39" style="fill: #8e8e83"/>
    <ellipse cx="32.76" cy="94.68" rx="1.09" ry="0.39" style="fill: #8e8e83"/>
    <rect height="7.54" rx="1.13" ry="1.13" style="fill: #d5cec3" width="5.65" x="8.81" y="29.83"/>
    <rect height="1.09" style="fill: #fffafb" width="2.11" x="12.81" y="28.05"/>
    <rect height="1.09" style="fill: #fffafb" width="2.11" x="7.98" y="28.05"/>
    <rect height="1.09" style="fill: #fffafb" width="2.11" x="7.98" y="38.42"/>
    <rect height="1.09" style="fill: #fffafb" width="2.11" x="12.56" y="38.42"/>
    <rect height="2" style="fill: #d0cec3" width="2" x="7.39" y="71.77"/>
    <rect height="2" style="fill: #d0cec3" width="2" x="10.67" y="71.77"/>
    <rect height="1.38" style="fill: #b3b4ad" width="0.76" x="29.04" y="82.86"/>
    <rect height="1.73" style="fill: #b3b4ad" width="1.48" x="28.86" y="84.02"/>
    <line style="fill: none;stroke: #f7fcfb;stroke-linecap: round;stroke-linejoin: round;stroke-width: 0.75px" x1="31.39" x2="29.8" y1="84.89" y2="84.89"/>
    <rect height="1.81" rx="0.05" ry="0.05" style="fill: #9f977f" width="3.17" x="39.42" y="94.24"/>
  </g>
  <g data-name="WHITE LINES" id="WHITE_LINES">
    <polyline points="1.23 79.83 5.7 79.83 5.7 84.41 8.4 84.41 2.99 84.41" style="fill: none;stroke: #f7fcfb;stroke-linecap: round;stroke-linejoin: round;stroke-width: 0.75px"/>
    <polyline points="17.53 83.77 14.29 83.77 14.29 88.31 17.75 88.31" style="fill: none;stroke: #f7fcfb;stroke-linecap: round;stroke-linejoin: round;stroke-width: 0.75px"/>
    <line style="fill: none;stroke: #f7fcfb;stroke-linecap: round;stroke-linejoin: round;stroke-width: 0.75px" x1="10.5" x2="14.3" y1="84.41" y2="84.41"/>
    <polyline points="19.89 83.56 22.77 83.56 23.57 84.89 25.01 84.68 25.05 80.93 26.84 80.93 27.26 80.39 28.27 80.93" style="fill: none;stroke: #f7fcfb;stroke-linecap: round;stroke-linejoin: round;stroke-width: 0.75px"/>
    <polyline points="30.59 80.93 34.33 80.93 34.33 84.89 31.39 84.89 31.39 85.92" style="fill: none;stroke: #f7fcfb;stroke-linecap: round;stroke-linejoin: round;stroke-width: 0.75px"/>
    <polyline points="30.8 94.77 30.78 97.94 29.8 99.11 28.54 98.1 26.2 97.94 26.2 95.02" style="fill: none;stroke: #f7fcfb;stroke-linecap: round;stroke-linejoin: round;stroke-width: 0.75px"/>
    <polyline points="1.23 105.52 1.23 98.27 2.57 99.11 5.7 99.11 5.7 95.02" style="fill: none;stroke: #f7fcfb;stroke-linecap: round;stroke-linejoin: round;stroke-width: 0.75px"/>
    <polyline points="10.37 97.31 10.37 97.94 7.92 99.11 5.7 97.64" style="fill: none;stroke: #f7fcfb;stroke-linecap: round;stroke-linejoin: round;stroke-width: 0.75px"/>
    <polygon points="14.29 98.52 16.14 98.52 15.16 99.93 14.29 98.52" style="fill: #f7fcfb"/>
    <polygon points="36.04 98.52 37.88 98.52 36.9 99.93 36.04 98.52" style="fill: #f7fcfb"/>
    <path d="M21,97.93c0-.84.36-1.18,1.15-.67l.45.67,1,.12h.47v.41h-.49L22.5,99.72,21.37,98.6Z" style="fill: #f7fcfb"/>
    <polyline points="30.59 92.43 30.59 89.31 26.2 89.31 26.2 92.43" style="fill: none;stroke: #f7fcfb;stroke-linecap: round;stroke-linejoin: round;stroke-width: 0.75px"/>
    <polyline points="19.89 90.18 19.89 88.6 22.55 88.6 22.55 89.39 26.2 89.39" style="fill: none;stroke: #f7fcfb;stroke-linecap: round;stroke-linejoin: round;stroke-width: 0.75px"/>
    <polyline points="43.13 98.93 44.42 98.93 44.42 105.68" style="fill: none;stroke: #f7fcfb;stroke-linecap: round;stroke-linejoin: round;stroke-width: 0.75px"/>
  </g>
  <g id="text">
    <g>
      <path d="M21.06,64.38a2.36,2.36,0,0,1-1,.21,1.69,1.69,0,0,1-1.78-1.82,1.82,1.82,0,0,1,1.92-1.9,2.19,2.19,0,0,1,.9.18l-.15.5a1.5,1.5,0,0,0-.75-.17,1.24,1.24,0,0,0-1.26,1.35,1.22,1.22,0,0,0,1.25,1.33,1.84,1.84,0,0,0,.79-.18Z" style="fill: #716d54"/>
      <path d="M21.83,59.54h2.68v.53h-2v1.66h1.88v.53H22.48v2.25h-.65Z" style="fill: #716d54"/>
      <path d="M25.53,62.85a1.14,1.14,0,0,0,1.22,1.24,2.33,2.33,0,0,0,1-.18l.11.46a2.83,2.83,0,0,1-1.19.23,1.66,1.66,0,0,1-1.75-1.8,1.73,1.73,0,0,1,1.68-1.92,1.5,1.5,0,0,1,1.47,1.67,1.42,1.42,0,0,1,0,.3Zm1.9-.46a.92.92,0,0,0-.9-1,1.07,1.07,0,0,0-1,1Z" style="fill: #716d54"/>
      <path d="M32.1,62.73a1.75,1.75,0,0,1-1.79,1.86,1.7,1.7,0,0,1-1.7-1.85,1.74,1.74,0,0,1,1.78-1.87A1.69,1.69,0,0,1,32.1,62.73Zm-2.83,0c0,.71.36,1.36,1.08,1.36s1.09-.65,1.09-1.37-.29-1.39-1.09-1.39S29.27,62.11,29.27,62.74Z" style="fill: #716d54"/>
      <path d="M32.92,61.91c0-.37,0-.67,0-1h.57l0,.58h0a1.32,1.32,0,0,1,1.18-.66c.49,0,1.25.29,1.25,1.51v2.13h-.64v-2c0-.58-.21-1.06-.83-1.06a1,1,0,0,0-.92,1v2.14h-.64Z" style="fill: #716d54"/>
    </g>
    <g>
      <path d="M27.69,37.26v.6c0,.32-.19.46-.5.46a.42.42,0,0,1-.34-.14.46.46,0,0,1-.39.14.42.42,0,0,1-.45-.46v-.6Zm-1.46.22v.39c0,.15.07.25.23.25s.28,0,.28-.25v-.39Zm.73,0v.39c0,.15.07.25.23.25s.28,0,.28-.25v-.39Z" style="fill: #766c4f"/>
      <path d="M26,39.39a.32.32,0,0,1,.2-.32l.4-.2a.48.48,0,0,1,.23-.06.47.47,0,0,1,.24.06l.4.2a.32.32,0,0,1,.21.33v.37a.1.1,0,0,1-.11.11.1.1,0,0,1-.11-.11v-.36c0-.09,0-.11-.09-.15L27,39.07a.34.34,0,0,0-.16,0,.3.3,0,0,0-.15,0l-.37.18c-.09,0-.09.06-.09.16v.35a.1.1,0,0,1-.11.11.1.1,0,0,1-.11-.11Z" style="fill: #766c4f"/>
    </g>
    <g>
      <path d="M26.75,41.84h.62a.11.11,0,1,1,0,.21h-.62a.11.11,0,1,1-.22,0h-.44a.11.11,0,0,1,0-.21h.44V41.2h1a.11.11,0,0,1,0,.22h-.8Z" style="fill: #766c4f"/>
      <path d="M26.2,43.49h.43a.11.11,0,0,1,0,.22h-.54A.1.1,0,0,1,26,43.6v-.85a.11.11,0,0,1,.22,0v.32h1.24v-.32a.11.11,0,0,1,.22,0v.53H26.2Z" style="fill: #766c4f"/>
      <path d="M27.44,44.41a.11.11,0,0,1,0-.22h.11a.11.11,0,0,1,.11.11v1H27c-.08,0-.08,0-.14-.06l-.26-.3c0-.06-.05-.06-.13-.06h-.42a.11.11,0,0,1,0-.21h.52a.12.12,0,0,1,.13.06L27,45c.06.07.06.07.15.07h.3Z" style="fill: #766c4f"/>
    </g>
    <g>
      <path d="M18.63,66.26a.11.11,0,0,1,0,.22h-.88V64.8h.88a.11.11,0,0,1,0,.21h-.68v.51h.29a.11.11,0,0,1,0,.21h-.29v.51Z" style="fill: #766c4f"/>
      <path d="M20,64.91c0-.07,0-.11.1-.11s.1,0,.1.11v1.57H19.9l-.52-1.29h0v1.18c0,.07,0,.11-.1.11s-.1,0-.1-.11V64.8h.26L20,66.11h0Z" style="fill: #766c4f"/>
      <path d="M20.8,66.26h.68a.11.11,0,0,1,0,.22H20.6v-.7c0-.16.08-.24.22-.24h.56V65H20.7a.11.11,0,0,1,0-.21h.66a.2.2,0,0,1,.16.06.24.24,0,0,1,.06.19v.44a.24.24,0,0,1-.06.19.2.2,0,0,1-.16.06H20.8Z" style="fill: #766c4f"/>
      <path d="M22.71,64.8a.1.1,0,0,1,.1.11v.62a.2.2,0,0,1,.14.06.22.22,0,0,1,.05.16v.51a.19.19,0,0,1-.2.22h-.58a.19.19,0,0,1-.2-.22v-.51a.22.22,0,0,1,.05-.16.2.2,0,0,1,.15-.06v-.62a.1.1,0,0,1,.1-.11Zm.1,1.46v-.51h-.58v.51Zm-.2-.73V65h-.19v.51Z" style="fill: #766c4f"/>
      <path d="M24.33,66.26a.11.11,0,0,1,0,.22h-.88V64.91c0-.07,0-.11.1-.11s.1,0,.1.11v1.35Z" style="fill: #766c4f"/>
    </g>
    <g>
      <path d="M18.1,68c.08,0,.12,0,.12.13s0,.13-.12.13h-.46c-.08,0-.12,0-.12-.13s0-.13.12-.13Z" style="fill: #766c4f"/>
      <path d="M19,67.49a.1.1,0,1,1-.2,0v-.11a.1.1,0,0,1,.1-.11h.88v.62c0,.08,0,.08-.05.13l-.28.26a.12.12,0,0,0-.06.13v.42c0,.07,0,.11-.1.11s-.1,0-.1-.11v-.52c0-.07,0-.08.05-.12l.27-.26c.07-.06.06-.06.06-.16v-.3Z" style="fill: #766c4f"/>
      <path d="M21,67.27a.21.21,0,0,1,.2.21v1.24a.2.2,0,0,1-.2.22h-.58a.2.2,0,0,1-.2-.22V67.49a.21.21,0,0,1,.2-.21Zm0,1.46V67.49h-.58v1.24Z" style="fill: #766c4f"/>
      <path d="M22.33,67.27a.1.1,0,0,1,.1.11V68a.2.2,0,0,1,.14.06.22.22,0,0,1,.05.16v.51a.19.19,0,0,1-.2.22h-.58a.19.19,0,0,1-.2-.22v-.51a.22.22,0,0,1,.05-.16.2.2,0,0,1,.15-.06v-.62a.1.1,0,0,1,.1-.11Zm.1,1.46v-.51h-.58v.51Zm-.2-.73v-.51H22V68Z" style="fill: #766c4f"/>
      <path d="M23.67,68.73H24a.11.11,0,0,1,0,.22h-.78a.11.11,0,0,1,0-.22h.29V67.49h-.29a.11.11,0,0,1,0-.21H24a.11.11,0,0,1,0,.21h-.29Z" style="fill: #766c4f"/>
      <path d="M24.7,68.84c0,.07,0,.11-.1.11s-.1,0-.1-.11V67.27h.66a.28.28,0,0,1,.23.09.34.34,0,0,1,.09.28v.29a.37.37,0,0,1-.08.28.29.29,0,0,1-.27.1H24.7Zm0-.74h.44c.12,0,.14,0,.14-.16v-.3c0-.12,0-.16-.14-.16H24.7Z" style="fill: #766c4f"/>
    </g>
    <g>
      <path d="M28.12,69v-.43c0-.06,0-.11.1-.11s.1,0,.1.11v.54a.1.1,0,0,1-.1.11h-.78a.11.11,0,0,1,0-.22h.29V67.74h-.29a.11.11,0,0,1,0-.21h.49V69Z" style="fill: #766c4f"/>
      <path d="M29,69h.68a.11.11,0,0,1,0,.22h-.88v-.7c0-.16.08-.24.22-.24h.56v-.51h-.68a.11.11,0,0,1,0-.21h.66a.2.2,0,0,1,.16.06.24.24,0,0,1,.06.19v.44a.24.24,0,0,1-.06.19.2.2,0,0,1-.16.06H29Z" style="fill: #766c4f"/>
      <path d="M30.29,67.74a.11.11,0,0,1,0-.21H31a.2.2,0,0,1,.2.21v.41a.26.26,0,0,1-.08.21.26.26,0,0,1,.08.21V69a.2.2,0,0,1-.2.22h-.68a.11.11,0,0,1,0-.22H31v-.36c0-.12,0-.16-.1-.16h-.39a.11.11,0,0,1,0-.21h.39c.06,0,.1,0,.1-.16v-.36Z" style="fill: #766c4f"/>
      <path d="M32.39,67.63c0-.07,0-.11.1-.11s.1,0,.1.11V69.2h-.26l-.52-1.29h0v1.18c0,.07,0,.11-.1.11s-.1,0-.1-.11V67.52h.26l.52,1.31h0Z" style="fill: #766c4f"/>
      <path d="M33.23,69h.68a.11.11,0,0,1,0,.22H33v-.7c0-.16.08-.24.22-.24h.56v-.51h-.68a.11.11,0,0,1,0-.21h.66a.2.2,0,0,1,.16.06.24.24,0,0,1,.06.19v.44a.24.24,0,0,1-.06.19.2.2,0,0,1-.16.06h-.56Z" style="fill: #766c4f"/>
      <path d="M35.24,69v-.43c0-.06,0-.11.1-.11s.1,0,.1.11v.54a.1.1,0,0,1-.1.11h-.78a.11.11,0,0,1,0-.22h.29V67.74h-.29a.11.11,0,0,1,0-.21h.49V69Z" style="fill: #766c4f"/>
      <path d="M36.28,67.63c0-.06,0-.11.1-.11s.09.05.1.11l.38,1.46a.1.1,0,0,1-.1.11c-.06,0-.09-.06-.11-.11l-.07-.26h-.42l-.08.26c0,.05,0,.11-.11.11a.1.1,0,0,1-.09-.11Zm.1.4h0l-.15.58h.31Z" style="fill: #766c4f"/>
    </g>
    <g>
      <path d="M18.89,71.23V70.8c0-.06,0-.11.09-.11s.09,0,.09.11v.54c0,.08,0,.11-.09.11h-.71s-.09,0-.09-.11,0-.11.09-.11h.26V70h-.26s-.09,0-.09-.11,0-.11.09-.11h.44v1.46Z" style="fill: #766c4f"/>
      <path d="M19.66,71.23h.62s.09,0,.09.11,0,.11-.09.11h-.8v-.7c0-.16.07-.24.2-.24h.51V70h-.62s-.09,0-.09-.11,0-.11.09-.11h.6a.17.17,0,0,1,.15.06.26.26,0,0,1,.06.19v.44a.25.25,0,0,1-.06.19.17.17,0,0,1-.15.06h-.51Z" style="fill: #766c4f"/>
      <path d="M21,71.23h.62s.09,0,.09.11,0,.11-.09.11h-.8v-.7c0-.16.07-.24.2-.24h.51V70h-.62s-.09,0-.09-.11,0-.11.09-.11h.6a.17.17,0,0,1,.15.06.26.26,0,0,1,.06.19v.44a.25.25,0,0,1-.06.19.17.17,0,0,1-.15.06H21Z" style="fill: #766c4f"/>
      <path d="M22.44,70.5h.33a.17.17,0,0,1,.14.06.24.24,0,0,1,.06.18v.46a.26.26,0,0,1,0,.17.16.16,0,0,1-.16.07h-.4a.23.23,0,0,1-.12,0l-.07,0s-.1,0-.1-.12a.1.1,0,0,1,.09-.11l.06,0,.05,0a.26.26,0,0,0,.1,0h.42v-.51h-.53v-.94h.62s.09,0,.09.11,0,.11-.09.11h-.44Z" style="fill: #766c4f"/>
      <path d="M23.74,70.5h.33a.17.17,0,0,1,.14.06.24.24,0,0,1,.06.18v.46a.26.26,0,0,1,0,.17.16.16,0,0,1-.16.07h-.4a.23.23,0,0,1-.12,0l-.07,0s-.1,0-.1-.12a.1.1,0,0,1,.09-.11l.06,0,.05,0a.26.26,0,0,0,.1,0h.42v-.51h-.53v-.94h.62s.09,0,.09.11,0,.11-.09.11h-.44Z" style="fill: #766c4f"/>
      <path d="M24.86,70h-.07a.11.11,0,0,1,0-.21h.3c.14,0,.21.07.27.21l.16.38a.58.58,0,0,1,.05.25.6.6,0,0,1-.05.24l-.16.39a.27.27,0,0,1-.28.2h-.3s-.09,0-.09-.11,0-.11.09-.11h.09ZM25,71.23h0c.08,0,.09,0,.13-.09l.16-.38a.35.35,0,0,0,0-.14.43.43,0,0,0,0-.18l-.15-.36c0-.09-.05-.09-.14-.09h0Z" style="fill: #766c4f"/>
      <path d="M26.34,69.88c0-.06,0-.11.09-.11s.08.05.09.11l.35,1.46a.09.09,0,0,1-.09.11c-.06,0-.08-.06-.1-.11l-.07-.26h-.38l-.07.26c0,.05,0,.11-.1.11a.09.09,0,0,1-.09-.11Zm.09.4h0l-.14.58h.28Z" style="fill: #766c4f"/>
    </g>
    <g>
      <path d="M25.54,65.25v-.34c0-.07,0-.11.1-.11s.1,0,.1.11v.34a.24.24,0,0,1,0,.08l-.37,1c0,.05,0,.09-.1.09s-.08,0-.1-.09l-.37-1a.24.24,0,0,1,0-.08v-.34c0-.07,0-.11.1-.11s.1,0,.1.11v.34l.28.82Z" style="fill: #766c4f"/>
      <path d="M26.82,64.8a.1.1,0,0,1,.1.11v.62a.19.19,0,0,1,.14.06.22.22,0,0,1,.05.16v.51a.19.19,0,0,1-.19.22h-.56a.19.19,0,0,1-.19-.22v-.51a.22.22,0,0,1,.05-.16.19.19,0,0,1,.14-.06v-.62a.1.1,0,0,1,.1-.11Zm.1,1.46v-.51h-.56v.51Zm-.19-.73V65h-.18v.51Z" style="fill: #766c4f"/>
      <path d="M28.3,64.8a.21.21,0,0,1,.19.21v1.24a.2.2,0,0,1-.19.22h-.56a.2.2,0,0,1-.19-.22V65a.21.21,0,0,1,.19-.21Zm0,1.46V65h-.56v1.24Z" style="fill: #766c4f"/>
      <path d="M29.68,64.8a.21.21,0,0,1,.19.21v1.24a.2.2,0,0,1-.19.22h-.57a.2.2,0,0,1-.19-.22V65a.21.21,0,0,1,.19-.21Zm0,1.46V65h-.57v1.24Z" style="fill: #766c4f"/>
      <path d="M30.82,66.48a.29.29,0,0,1-.29-.21l-.18-.4a.53.53,0,0,1-.05-.23.51.51,0,0,1,.05-.24l.18-.4a.29.29,0,0,1,.3-.21h.33a.09.09,0,0,1,.1.11.1.1,0,0,1-.1.11h-.32c-.08,0-.1,0-.13.09l-.17.37a.36.36,0,0,0,0,.16.32.32,0,0,0,0,.15l.16.37c0,.09.06.09.14.09h.31a.11.11,0,0,1,0,.22Z" style="fill: #766c4f"/>
      <path d="M31.87,66.37c0,.07,0,.11-.1.11s-.1,0-.1-.11V64.8h.65a.31.31,0,0,1,.3.31v.15a.29.29,0,0,1-.3.31h-.18l.43.69a.23.23,0,0,1,0,.11.1.1,0,0,1-.1.1.1.1,0,0,1-.08-.06l-.53-.85h0Zm0-1h.43c.05,0,.14,0,.14-.09v-.15c0-.09-.08-.1-.14-.1h-.43Z" style="fill: #766c4f"/>
    </g>
    <g>
      <path d="M22.76,38.13h.43a.11.11,0,0,1,0,.22h-.54a.1.1,0,0,1-.11-.11v-.85a.11.11,0,0,1,.22,0v.32H24v-.32a.11.11,0,0,1,.22,0v.53H22.76Z" style="fill: #766c4f"/>
      <path d="M23.31,39.57h.62a.11.11,0,1,1,0,.21h-.62a.11.11,0,1,1-.22,0h-.44a.11.11,0,0,1,0-.21h.44v-.63h1a.11.11,0,0,1,0,.22h-.8Z" style="fill: #766c4f"/>
      <path d="M24,40.49a.11.11,0,0,1,.22,0v.74a.21.21,0,0,1-.22.21h-.41a.25.25,0,0,1-.21-.08.25.25,0,0,1-.21.08h-.41a.21.21,0,0,1-.22-.21v-.74a.11.11,0,0,1,.22,0v.74h.36c.12,0,.16,0,.16-.11V40.7a.11.11,0,1,1,.21,0v.42c0,.06,0,.11.16.11H24Z" style="fill: #766c4f"/>
    </g>
    <g>
      <path d="M24.22,42.19v.6c0,.32-.19.46-.5.46a.42.42,0,0,1-.34-.14.47.47,0,0,1-.39.14.42.42,0,0,1-.45-.46v-.6Zm-1.46.22v.39c0,.15.07.25.23.25s.28,0,.28-.25v-.39Zm.73,0v.39c0,.15.07.25.23.25s.28,0,.28-.25v-.39Z" style="fill: #766c4f"/>
      <path d="M23.09,44.38a.11.11,0,1,1,.22,0v.42h-.42a.32.32,0,0,1-.34-.34v-.37a.33.33,0,0,1,.09-.25.31.31,0,0,1,.26-.1h.54a.44.44,0,0,1,.31.11l.32.25a.33.33,0,0,1,.15.3v.29a.11.11,0,1,1-.22,0v-.26c0-.12,0-.11-.09-.18l-.3-.23a.41.41,0,0,0-.28-.07h-.42c-.12,0-.15,0-.15.15v.34c0,.08,0,.14.11.14h.22Z" style="fill: #766c4f"/>
      <path d="M23.62,46.3a.49.49,0,0,1-.24.06.53.53,0,0,1-.26-.07l-.4-.2a.28.28,0,0,1,0-.52l.4-.2a.53.53,0,0,1,.26-.07.49.49,0,0,1,.24.06l.43.22a.28.28,0,0,1,0,.52Zm.32-.4s.06,0,.06-.07,0-.06-.06-.07l-.39-.19a.34.34,0,0,0-.17,0,.29.29,0,0,0-.14,0l-.41.21s-.06,0-.06.07,0,.06.06.07l.41.21a.29.29,0,0,0,.14,0,.34.34,0,0,0,.17,0Z" style="fill: #766c4f"/>
    </g>
    <g>
      <path d="M20.93,36.66a.11.11,0,0,1,0,.22h-.5l.56.66a.14.14,0,0,1,0,.09.11.11,0,0,1-.11.1.13.13,0,0,1-.09,0l-.63-.74-.63.74a.13.13,0,0,1-.09.05.11.11,0,0,1-.11-.1s0-.08.06-.12l.54-.63h-.5a.11.11,0,0,1,0-.22Z" style="fill: #766c4f"/>
      <path d="M19.58,38.42v.74a.11.11,0,1,1-.22,0v-1h.7a.22.22,0,0,1,.24.24v.6h.51v-.74a.11.11,0,0,1,.22,0V39a.22.22,0,0,1-.25.24h-.44a.22.22,0,0,1-.25-.24v-.61Z" style="fill: #766c4f"/>
      <path d="M20.82,39.87a.11.11,0,0,1,.22,0v.74a.21.21,0,0,1-.22.21h-.41a.25.25,0,0,1-.21-.08.25.25,0,0,1-.21.08h-.41a.21.21,0,0,1-.22-.21v-.74a.11.11,0,0,1,.22,0v.74h.36c.12,0,.16,0,.16-.11v-.42a.11.11,0,1,1,.21,0v.42c0,.06,0,.11.16.11h.36Z" style="fill: #766c4f"/>
    </g>
    <g>
      <path d="M20.12,43.06h.62a.11.11,0,1,1,0,.21h-.62a.11.11,0,1,1-.22,0h-.44a.11.11,0,0,1,0-.21h.44v-.63h1a.11.11,0,0,1,0,.22h-.8Z" style="fill: #766c4f"/>
      <path d="M21,43.87v.6c0,.32-.19.46-.5.46a.42.42,0,0,1-.34-.14.47.47,0,0,1-.39.14.42.42,0,0,1-.45-.46v-.6Zm-1.46.22v.39c0,.15.07.25.23.25s.28,0,.28-.25v-.39Zm.73,0v.39c0,.15.07.25.23.25s.28,0,.28-.25v-.39Z" style="fill: #766c4f"/>
      <path d="M20.82,45.63v-.08c0-.07,0-.13.11-.13s.11.06.11.12v.36a.32.32,0,0,1-.22.33l-.38.19a.5.5,0,0,1-.49,0l-.39-.2a.33.33,0,0,1-.2-.34v-.36a.11.11,0,0,1,.22,0v.1Zm-1.24.21v0c0,.09,0,.11.09.15l.38.19a.3.3,0,0,0,.14,0,.36.36,0,0,0,.18-.05l.36-.18c.09,0,.09-.06.09-.16v0Z" style="fill: #766c4f"/>
    </g>
    <rect height="2.31" style="fill: #766c4f" width="2.41" x="35.45" y="31.83"/>
    <path d="M15.36,95.36h-.89c-.08,0-.15,0-.15-.13s.08-.13.15-.13h.89c0-.07,0-.13.15-.13s.15.06.15.13h.63c.1,0,.15,0,.15.13s-.06.13-.15.13h-.63v.76H14.21c-.08,0-.15,0-.15-.13s.08-.13.15-.13h1.15Z" style="fill: #4a4c4b"/>
    <g>
      <path d="M35.15,91.09c0,.09-.07.13-.15.13h-.89a.24.24,0,0,1-.09.19.33.33,0,0,1-.22.07h-.73c-.19,0-.31-.1-.31-.26v-.76c0-.16.12-.26.31-.26h.73a.33.33,0,0,1,.22.07.24.24,0,0,1,.09.19H35c.08,0,.15,0,.15.13Zm-2.09.13h.74v-.76h-.74Zm1-.26h.74v-.24h-.74Z" style="fill: #4a4c4b"/>
      <path d="M33.06,92.32v.89c0,.07,0,.13-.15.13s-.15-.06-.15-.13V92.06h1c.23,0,.35.1.35.29v.72h.74v-.89c0-.07,0-.13.15-.13s.15.06.15.13V93a.24.24,0,0,1-.09.21.36.36,0,0,1-.27.08h-.63a.36.36,0,0,1-.27-.08A.25.25,0,0,1,33.8,93v-.73Z" style="fill: #4a4c4b"/>
    </g>
    <path d="M28.11,26.1v-.64c0-.06,0-.11.09-.11s.09.06.09.11v.64s.09,0,.09.11,0,.11-.09.11v.45c0,.07,0,.11-.09.11s-.09,0-.09-.11v-.45h-.55v-1c0-.06,0-.11.09-.11s.09.06.09.11v.83Z" style="fill: #a39b89"/>
    <path d="M29.48,26.66v-.45c0-.06,0-.11.09-.11s.09,0,.09.11v.56c0,.08,0,.11-.09.11h-.73s-.09,0-.09-.11,0-.11.09-.11h.27V25.38h-.27s-.09,0-.09-.11,0-.11.09-.11h.46v1.5Z" style="fill: #a39b89"/>
    <g>
      <path d="M34.27,42.46a.32.32,0,0,1,.2-.32l.4-.2a.48.48,0,0,1,.23-.06.47.47,0,0,1,.24.06l.4.2a.32.32,0,0,1,.21.33v.37a.1.1,0,0,1-.11.11.1.1,0,0,1-.11-.11v-.36c0-.09,0-.11-.09-.15l-.37-.19a.34.34,0,0,0-.16,0,.3.3,0,0,0-.15,0l-.37.18c-.09,0-.09.06-.09.16v.35a.1.1,0,0,1-.11.11.1.1,0,0,1-.11-.11Z" style="fill: #766c4f"/>
      <path d="M35.21,43.86v.4a.22.22,0,0,1-.06.17.21.21,0,0,1-.18.07h-.46a.23.23,0,0,1-.17-.05.21.21,0,0,1-.07-.19v-.48a.3.3,0,0,1,0-.14l0-.08c0-.06,0-.12.12-.12a.11.11,0,0,1,.11.1.15.15,0,0,1,0,.07l0,.06a.37.37,0,0,0,0,.11v.5H35v-.63h.94v.74a.11.11,0,1,1-.21,0v-.53Z" style="fill: #766c4f"/>
    </g>
    <circle cx="30.31" cy="20.69" r="0.78" style="fill: #dcb466"/>
    <circle cx="30.34" cy="20.67" r="0.32" style="fill: #3b3b12"/>
    <rect height="2.03" rx="0.2" ry="0.2" style="fill: url(#linear-gradient-5)" width="0.46" x="30.31" y="54.11"/>
    <rect height="2.03" rx="0.17" ry="0.17" style="fill: url(#linear-gradient-6)" width="0.46" x="36.86" y="54.11"/>
  </g>
  <g data-name="Layer 16" id="Layer_16">
    <polygon points="6.35 99.11 7.78 100.64 7.78 104.88 6.35 106.31 2.12 106.31 0.58 104.88 0.58 100.64 2.12 99.11 6.35 99.11" style="fill: #323232"/>
    <rect height="18.75" style="fill: #b0acb0" width="2.27" x="3.27" y="102.71"/>
    <polygon points="13.55 99.11 14.98 100.64 14.98 104.88 13.55 106.31 9.32 106.31 7.78 104.88 7.78 100.64 9.32 99.11 13.55 99.11" style="fill: #323232"/>
    <rect height="18.75" style="fill: #b0acb0" width="2.27" x="10.47" y="102.71"/>
    <polygon points="20.75 99.11 22.18 100.64 22.18 104.88 20.75 106.31 16.52 106.31 14.98 104.88 14.98 100.64 16.52 99.11 20.75 99.11" style="fill: #323232"/>
    <rect height="18.75" style="fill: #b0acb0" width="2.27" x="17.67" y="102.71"/>
    <polygon points="27.95 99.11 29.38 100.64 29.38 104.88 27.95 106.31 23.72 106.31 22.18 104.88 22.18 100.64 23.72 99.11 27.95 99.11" style="fill: #323232"/>
    <rect height="18.75" style="fill: #b0acb0" width="2.27" x="24.87" y="102.71"/>
    <polygon points="35.18 98.75 36.61 100.28 36.61 104.52 35.18 105.94 30.95 105.94 29.41 104.52 29.41 100.28 30.95 98.75 35.18 98.75" style="fill: #323232"/>
    <rect height="18.75" style="fill: #b0acb0" width="2.27" x="32.1" y="102.34"/>
    <polygon points="42.38 98.75 43.81 100.28 43.81 104.52 42.38 105.94 38.15 105.94 36.61 104.52 36.61 100.28 38.15 98.75 42.38 98.75" style="fill: #323232"/>
    <rect height="18.75" style="fill: #b0acb0" width="2.27" x="39.3" y="102.34"/>
  </g>
  <g id="Connectors">
    <rect data-cir-type="male" height="2.27" id="circuitoCon_STATE" style="fill: none" width="2.27" x="3.27" y="118.83"/>
    <rect data-cir-type="male" height="2.27" id="circuitoCon_RX" style="fill: none" width="2.27" x="10.47" y="118.83"/>
    <rect data-cir-type="male" height="2.27" id="circuitoCon_TX" style="fill: none" width="2.27" x="17.68" y="118.83"/>
    <rect data-cir-type="male" height="2.27" id="circuitoCon_GND" style="fill: none" width="2.27" x="24.88" y="118.83"/>
    <rect data-cir-type="male" height="2.27" id="circuitoCon_VCC" style="fill: none" width="2.27" x="32.09" y="118.83"/>
    <rect height="2.27" style="fill: none" width="2.27" x="39.3" y="118.83"/>
  </g>
</svg>