<?xml version="1.0" ?><svg height="17.82mm" viewBox="0 0 53.19 50.5" width="18.76mm" xmlns="http://www.w3.org/2000/svg">
  <title>MPL3115A2 - I2C Barometric Pressure Altitude Temperature Sensor</title>
  <g id="HOLES">
    <path d="M46.09,0h-39A7.1,7.1,0,0,0,0,7.09V43.41A7.1,7.1,0,0,0,7.09,50.5h39a7.1,7.1,0,0,0,7.1-7.09V7.09A7.1,7.1,0,0,0,46.09,0ZM12.55,12.79a.65.65,0,1,1-.64.64A.65.65,0,0,1,12.55,12.79ZM6.81,4A3.63,3.63,0,1,1,3.18,7.62,3.63,3.63,0,0,1,6.81,4Zm.83,17.9A.65.65,0,1,1,7,21.24.65.65,0,0,1,7.64,21.89ZM5.16,45.12A1.62,1.62,0,1,1,6.78,43.5,1.63,1.63,0,0,1,5.16,45.12Zm7.25,0A1.62,1.62,0,1,1,14,43.5,1.62,1.62,0,0,1,12.41,45.12Zm4.95,1.82H14.21l-.38-.38a4.93,4.93,0,0,0,1.45-1.87l-.81-.85v-.93l.78-.13a2.8,2.8,0,0,0-2.31-2.25v1H11.47v-.82a2.38,2.38,0,0,0-2.49,2h1.39v1.68H9a3.23,3.23,0,0,0,1.41,2.07l-.2.5H7.93V40.53H5.42v.63H4.25V37.91l1.75,0H9.14v-2.1h1.48v2.1h1.44l.37-.36.55.55h4.74l.54-.55V35.77h-2.1V34.34h2.1V33l-.59-.59.51-.51V29.36l1.31-1.31H20.8v1.13H19.66v.51l.59.59-.57.58v2.42l.48.48H22v5.71l-1.18,1.18c-3.43-1.06-6.17,2.54-3.07,5.82Zm2.28-1.82a1.62,1.62,0,1,1,1.62-1.62A1.63,1.63,0,0,1,19.64,45.12Zm7.22,0a1.62,1.62,0,1,1,1.62-1.62A1.62,1.62,0,0,1,26.86,45.12Zm3.93-7.25L28,40.63a3.24,3.24,0,0,0-3.21.31c-1.74,1.58-1.55,3.23-.19,4.9.73.32.94.94.19,1.1H22c-1-.16-1.14-.51-.56-1a3.27,3.27,0,0,0,1.05-3.69l2-2V33l6.31-.64Zm3.26,7.25a1.62,1.62,0,1,1,1.62-1.62A1.63,1.63,0,0,1,34.05,45.12Zm4.82-32.29a.65.65,0,1,1,.65.65A.65.65,0,0,1,38.87,12.83Zm2.38,32.29a1.62,1.62,0,1,1,1.61-1.62A1.62,1.62,0,0,1,41.25,45.12Zm4-21a.65.65,0,1,1,.65-.65A.65.65,0,0,1,45.3,24.09Zm3.14,21a1.62,1.62,0,1,1,1.62-1.62A1.63,1.63,0,0,1,48.44,45.12Zm-1.7-33.87a3.63,3.63,0,1,1,3.64-3.63A3.64,3.64,0,0,1,46.74,11.25Z" style="fill: #1a2c80"/>
    <path d="M20.79,40.65,22,39.47V33.76H20.16l-.48-.48V30.86l.57-.58-.59-.59v-.51H20.8V28.05H19.49l-1.31,1.31v2.57l-.51.51.59.59v1.31h-2.1v1.43h2.1v1.74l-.54.55H13l-.55-.55-.37.36H10.62v-2.1H9.14v2.1H6l-1.75,0v3.25H5.42v-.63H7.93v6.41h2.26l.2-.5A3.23,3.23,0,0,1,9,44.37h1.39V42.69H9a2.38,2.38,0,0,1,2.49-2v.82h1.47v-1a2.8,2.8,0,0,1,2.31,2.25l-.78.13v.93l.81.85a4.93,4.93,0,0,1-1.45,1.87l.38.38h3.15l.36-.47C14.62,43.19,17.36,39.59,20.79,40.65Zm-.64-5.83a.65.65,0,1,1-.65.65A.65.65,0,0,1,20.15,34.82Z" style="fill: #0b5597"/>
    <path d="M24.48,40.23l-2,2a3.27,3.27,0,0,1-1.05,3.69c-.58.49-.49.84.56,1h2.84c.75-.16.54-.78-.19-1.1-1.36-1.67-1.55-3.32.19-4.9A3.24,3.24,0,0,1,28,40.63l2.77-2.76V32.39L24.48,33Zm3-5.76a.65.65,0,1,1-.65.65A.65.65,0,0,1,27.51,34.47Z" style="fill: #0b5597"/>
  </g>
  <g id="LINES">
    <polygon points="11.23 20.69 11.97 19.74 12.61 20.5 12.61 21.89 12.89 22.12 12.89 22.38 12.49 22.78 12.49 24.15 14.21 24.15 12.42 25.63 12.42 26.94 12.92 27.44 12.72 27.79 12.72 32.02 11.11 32.02 11.23 20.69" style="fill: #0b5597"/>
    <polyline points="5.03 16.35 7.44 13.84 11.23 13.84" style="fill: none;stroke: #0b5597;stroke-linecap: round;stroke-linejoin: round;stroke-width: 0.75px"/>
    <circle cx="12.55" cy="13.43" r="0.98" style="fill: none;stroke: #0b5597;stroke-linecap: round;stroke-linejoin: round;stroke-width: 0.75px"/>
    <circle cx="39.52" cy="12.83" r="0.98" style="fill: none;stroke: #0b5597;stroke-linecap: round;stroke-linejoin: round;stroke-width: 0.75px"/>
    <circle cx="45.3" cy="23.44" r="0.98" style="fill: none;stroke: #0b5597;stroke-linecap: round;stroke-linejoin: round;stroke-width: 0.75px"/>
    <line style="fill: none;stroke: #0b5597;stroke-linecap: round;stroke-linejoin: round;stroke-width: 0.75px" x1="13.65" x2="16.12" y1="13.67" y2="13.67"/>
    <polyline points="16.77 18.88 18.59 21.61 21.26 21.61" style="fill: none;stroke: #0b5597;stroke-linecap: round;stroke-linejoin: round;stroke-width: 0.75px"/>
    <polyline points="21.56 25.2 19.64 25.2 18.86 25.98 18.86 27.59 16.53 29.92" style="fill: none;stroke: #0b5597;stroke-linecap: round;stroke-linejoin: round;stroke-width: 0.75px"/>
    <polyline points="23.27 32.1 23.27 39.81 21.23 41.85" style="fill: none;stroke: #0b5597;stroke-linecap: round;stroke-linejoin: round;stroke-width: 0.75px"/>
    <polyline points="31.65 32.61 31.65 38.48 28.36 41.76" style="fill: none;stroke: #0b5597;stroke-linecap: round;stroke-linejoin: round;stroke-width: 0.75px"/>
    <polyline points="34.05 28.44 35.67 30.02 35.67 40.98 35.19 41.51" style="fill: none;stroke: #0b5597;stroke-linecap: round;stroke-linejoin: round;stroke-width: 0.75px"/>
    <polyline points="37.62 32.1 37.62 39.23 39.93 41.54" style="fill: none;stroke: #0b5597;stroke-linecap: round;stroke-linejoin: round;stroke-width: 0.75px"/>
    <line style="fill: none;stroke: #0b5597;stroke-linecap: round;stroke-linejoin: round;stroke-width: 0.75px" x1="42.02" x2="48.32" y1="33.1" y2="33.1"/>
    <line style="fill: none;stroke: #0b5597;stroke-linecap: round;stroke-linejoin: round;stroke-width: 0.75px" x1="49.65" x2="49.65" y1="34.82" y2="41.51"/>
    <path d="M50.63,28.44a11,11,0,0,1,1.89,1.24v15l-2.83,2.83-43.85.5L5,46.81v-1" style="fill: none;stroke: #0b5597;stroke-linecap: round;stroke-linejoin: round;stroke-width: 0.75px"/>
    <polyline points="34.13 25.2 34.86 25.2 38.44 26.98" style="fill: none;stroke: #0b5597;stroke-linecap: round;stroke-linejoin: round;stroke-width: 0.75px"/>
    <polyline points="30.86 21.89 35.89 16.86 34.45 15.42" style="fill: none;stroke: #0b5597;stroke-linecap: round;stroke-linejoin: round;stroke-width: 0.75px"/>
    <line style="fill: none;stroke: #0b5597;stroke-linecap: round;stroke-linejoin: round;stroke-width: 0.75px" x1="23.77" x2="27.14" y1="16.02" y2="19.39"/>
    <polyline points="15.94 14.41 15.94 9.44 36.1 9.44 38.54 11.87" style="fill: none;stroke: #0b5597;stroke-linecap: round;stroke-linejoin: round;stroke-width: 0.75px"/>
    <line style="fill: none;stroke: #0b5597;stroke-linecap: round;stroke-linejoin: round;stroke-width: 0.75px" x1="40.48" x2="43.07" y1="13.84" y2="16.43"/>
    <line style="fill: none;stroke: #0b5597;stroke-linecap: round;stroke-linejoin: round;stroke-width: 0.75px" x1="27.77" x2="27.77" y1="9.44" y2="14.3"/>
    <line style="fill: none;stroke: #0b5597;stroke-linecap: round;stroke-linejoin: round;stroke-width: 0.75px" x1="45.21" x2="43.29" y1="24.44" y2="27.56"/>
    <line style="fill: none;stroke: #0b5597;stroke-linecap: round;stroke-linejoin: round;stroke-width: 0.75px" x1="41.25" x2="41.25" y1="23.16" y2="29.92"/>
    <rect height="1.49" style="fill: #0b5597" width="1.49" x="11.23" y="16.79"/>
    <rect height="2.78" style="fill: #0b5597" width="2.42" x="5.78" y="20.37"/>
  </g>
  <g id="text">
    <g>
      <path d="M19.79,5.15,20.42,3a.14.14,0,0,1,.15-.12.15.15,0,0,1,.15.1l.62,2.15v0a.15.15,0,0,1,0,.11.13.13,0,0,1-.1,0A.14.14,0,0,1,21,5.25l-.12-.42h-.71l-.13.45a.13.13,0,0,1,0,.06.15.15,0,0,1-.09,0,.14.14,0,0,1-.11,0,.16.16,0,0,1,0-.11S19.79,5.17,19.79,5.15Zm.78-1.52-.27.89h.53Z" style="fill: #fff"/>
      <path d="M23.31,5.36h-.93a.14.14,0,0,1-.11,0,.16.16,0,0,1-.05-.11.17.17,0,0,1,.16-.16h.31V3.22h-.32a.14.14,0,0,1-.15-.15.14.14,0,0,1,0-.11.16.16,0,0,1,.11,0h.48A.18.18,0,0,1,23,3a.15.15,0,0,1,0,.11v2h.31a.17.17,0,0,1,.16.16.16.16,0,0,1,0,.11A.14.14,0,0,1,23.31,5.36Z" style="fill: #fff"/>
      <path d="M25.43,5.36h-.31a.48.48,0,0,1-.33-.13.44.44,0,0,1-.13-.33v-1H24.5a.14.14,0,0,1-.11,0,.15.15,0,0,1,0-.22.14.14,0,0,1,.11,0h.16V3.2a.14.14,0,0,1,.15-.15.13.13,0,0,1,.11.05.14.14,0,0,1,0,.1v.38h.62a.16.16,0,0,1,.11.27.15.15,0,0,1-.11,0H25v1a.14.14,0,0,0,.15.15h.31a.16.16,0,0,0,.16-.13.16.16,0,0,1,.16-.13.15.15,0,0,1,.11,0,.16.16,0,0,1,0,.12.42.42,0,0,1-.13.28A.45.45,0,0,1,25.43,5.36Z" style="fill: #fff"/>
      <path d="M27.88,5.36h-.95a.14.14,0,0,1-.15-.15.14.14,0,0,1,0-.11.16.16,0,0,1,.11,0h.32V3.89h-.31a.15.15,0,0,1-.11,0,.16.16,0,0,1,.11-.27h.47a.16.16,0,0,1,.11,0,.15.15,0,0,1,0,.11V5.05h.32a.16.16,0,0,1,.11,0,.14.14,0,0,1,0,.11.14.14,0,0,1-.15.15Zm-.63-2.58h.16a.14.14,0,0,1,.15.15v.13a.17.17,0,0,1,0,.12.15.15,0,0,1-.11,0h-.17a.15.15,0,0,1-.15-.15V2.93a.16.16,0,0,1,.05-.11A.14.14,0,0,1,27.25,2.78Z" style="fill: #fff"/>
      <path d="M28.87,5.21V3.74a.16.16,0,0,1,.05-.11.14.14,0,0,1,.11,0,.14.14,0,0,1,.15.12.39.39,0,0,1,.28-.12.36.36,0,0,1,.31.16.43.43,0,0,1,.32-.16.33.33,0,0,1,.25.1.42.42,0,0,1,.12.26l0,1.27a.15.15,0,0,1,0,.11.17.17,0,0,1-.11,0,.14.14,0,0,1-.11,0,.16.16,0,0,1,0-.11l0-1.22c0-.06,0-.1-.06-.1a.09.09,0,0,0-.06,0l-.19.16V5.21a.14.14,0,0,1-.15.15.14.14,0,0,1-.11,0,.16.16,0,0,1,0-.11V4c0-.05,0-.08-.07-.08l-.06,0-.22.19v1.1a.16.16,0,0,1-.26.11A.16.16,0,0,1,28.87,5.21Z" style="fill: #fff"/>
      <path d="M32.75,4.17v.37a.15.15,0,0,1,0,.11.16.16,0,0,1-.11,0H31.5v.09a.16.16,0,0,0,.07.13l.09.08a.22.22,0,0,0,.14,0h.8a.16.16,0,0,1,.11,0,.17.17,0,0,1,0,.22.17.17,0,0,1-.11,0h-.82l-.17,0a.5.5,0,0,1-.13-.07l-.14-.12A.45.45,0,0,1,31.23,5a.35.35,0,0,1,0-.17V4.11a.41.41,0,0,1,0-.16.74.74,0,0,1,.12-.16l.13-.1a.46.46,0,0,1,.29-.11h.43a.46.46,0,0,1,.31.14l.12.11A.45.45,0,0,1,32.75,4.17Zm-1.25,0v.24h1V4.17A.17.17,0,0,0,32.39,4L32.3,4a.19.19,0,0,0-.12-.06h-.39a.17.17,0,0,0-.13.05L31.57,4A.15.15,0,0,0,31.5,4.14Z" style="fill: #fff"/>
      <path d="M34.56,5.36h-.31a.44.44,0,0,1-.33-.13.45.45,0,0,1-.14-.33v-1h-.16a.16.16,0,0,1-.11-.26.16.16,0,0,1,.11,0h.17V3.2a.14.14,0,0,1,.15-.15.13.13,0,0,1,.11.05.14.14,0,0,1,.05.1v.38h.62a.16.16,0,0,1,.11.27.15.15,0,0,1-.11,0h-.63v1a.16.16,0,0,0,0,.11.15.15,0,0,0,.11,0h.3a.16.16,0,0,0,.17-.13.16.16,0,0,1,.16-.13.15.15,0,0,1,.11,0A.16.16,0,0,1,35,5a.42.42,0,0,1-.13.28A.45.45,0,0,1,34.56,5.36Z" style="fill: #fff"/>
      <path d="M37.32,4.17v.37a.17.17,0,0,1-.16.16h-1.1v.09a.19.19,0,0,0,.07.13l.09.08a.22.22,0,0,0,.14,0h.8a.16.16,0,0,1,.11.27.15.15,0,0,1-.11,0h-.82l-.17,0A.5.5,0,0,1,36,5.26l-.14-.12A.45.45,0,0,1,35.79,5a.53.53,0,0,1,0-.17V4.11a.47.47,0,0,1,0-.16.4.4,0,0,1,.12-.16l.13-.1a.43.43,0,0,1,.28-.11h.43a.44.44,0,0,1,.31.14l.12.11A.46.46,0,0,1,37.32,4.17Zm-1.25,0v.24H37V4.17A.2.2,0,0,0,37,4L36.87,4a.22.22,0,0,0-.13-.06h-.39a.17.17,0,0,0-.13.05L36.13,4A.14.14,0,0,0,36.07,4.14Z" style="fill: #fff"/>
      <path d="M38,5.21V3.74a.15.15,0,0,1,0-.11.15.15,0,0,1,.22,0,.14.14,0,0,1,.05.11v.19l.25-.21a.48.48,0,0,1,.31-.14h.22a.48.48,0,0,1,.47.47v.08a.14.14,0,0,1-.05.11.12.12,0,0,1-.11,0,.14.14,0,0,1-.15-.15V4.05a.16.16,0,0,0,0-.11.14.14,0,0,0-.11,0h-.2a.26.26,0,0,0-.14.07l-.44.38v.87a.16.16,0,0,1-.05.11A.15.15,0,0,1,38,5.21Z" style="fill: #fff"/>
    </g>
    <g>
      <path d="M15.09,8.18v-.1l-.42-.6V9.92a.2.2,0,0,1-.06.15.22.22,0,0,1-.29,0,.18.18,0,0,1-.06-.14v-3h.53l.49.72.52-.72h.51v3a.2.2,0,0,1-.06.15.22.22,0,0,1-.29,0,.18.18,0,0,1-.06-.14V7.49l-.41.58v.11a.2.2,0,0,1-.06.15.2.2,0,0,1-.14.06.2.2,0,0,1-.15-.06A.25.25,0,0,1,15.09,8.18Z" style="fill: #fff"/>
      <path d="M17.25,9.92v-3h1.43a.61.61,0,0,1,.61.61V8.3a.56.56,0,0,1-.18.42.58.58,0,0,1-.43.18h-1v1a.2.2,0,0,1-.06.15.19.19,0,0,1-.14,0,.2.2,0,0,1-.15,0A.2.2,0,0,1,17.25,9.92Zm.41-1.42h1a.2.2,0,0,0,.15-.06.2.2,0,0,0,.06-.14V7.54a.17.17,0,0,0-.06-.14.2.2,0,0,0-.15-.06h-1Z" style="fill: #fff"/>
      <path d="M20.23,10.12v-3A.2.2,0,0,1,20.29,7a.18.18,0,0,1,.14-.06.21.21,0,0,1,.2.2V9.72h1.43a.2.2,0,0,1,.14.06.17.17,0,0,1,.07.14.18.18,0,0,1-.07.15.19.19,0,0,1-.14,0Z" style="fill: #fff"/>
      <path d="M25.24,7.33v.76a.58.58,0,0,1-.17.43.56.56,0,0,1,.17.41v.79a.38.38,0,0,1-.12.28.38.38,0,0,1-.29.12H23.4a.21.21,0,0,1-.2-.2.17.17,0,0,1,.06-.14.2.2,0,0,1,.14-.06h1.43V8.93a.2.2,0,0,0-.06-.15.2.2,0,0,0-.14-.06h-.82a.2.2,0,0,1-.14-.06.18.18,0,0,1-.06-.14.2.2,0,0,1,.06-.15.19.19,0,0,1,.14,0h.82a.18.18,0,0,0,.14-.06.2.2,0,0,0,.06-.15V7.33H23.39a.2.2,0,0,1,0-.4h1.44a.38.38,0,0,1,.29.12A.38.38,0,0,1,25.24,7.33Z" style="fill: #fff"/>
      <path d="M26.37,9.72H27V7.33h-.61a.2.2,0,0,1-.15-.06.19.19,0,0,1,0-.28.2.2,0,0,1,.15-.06h1V9.72h.4V8.87a.2.2,0,0,1,.06-.14A.2.2,0,0,1,28,8.67a.21.21,0,0,1,.2.2V9.92a.21.21,0,0,1-.2.2H26.37a.21.21,0,0,1-.21-.21.2.2,0,0,1,.06-.14A.25.25,0,0,1,26.37,9.72Z" style="fill: #fff"/>
      <path d="M29.34,9.72H30V7.33h-.61a.2.2,0,0,1-.14-.06.19.19,0,0,1,0-.28.2.2,0,0,1,.14-.06h1V9.72h.4V8.87a.21.21,0,0,1,.2-.2.2.2,0,0,1,.15.06.2.2,0,0,1,.06.14V9.92a.2.2,0,0,1-.06.14.2.2,0,0,1-.15.06H29.34a.2.2,0,0,1-.14-.06.2.2,0,0,1-.06-.15.2.2,0,0,1,.06-.14A.24.24,0,0,1,29.34,9.72Z" style="fill: #fff"/>
      <path d="M32.87,9.72h.94v-1H32.58V6.93H34a.21.21,0,0,1,.2.2.18.18,0,0,1-.06.14.2.2,0,0,1-.14.06H33v1h.82a.41.41,0,0,1,.4.4v1a.41.41,0,0,1-.4.4h-.94a.74.74,0,0,1-.27-.06l-.3-.13a.18.18,0,0,1-.13-.19.18.18,0,0,1,.06-.14.18.18,0,0,1,.13-.06l.14,0,.27.12A.19.19,0,0,0,32.87,9.72Z" style="fill: #fff"/>
      <path d="M35.12,9.84l.81-2.76a.2.2,0,0,1,.21-.15.18.18,0,0,1,.19.12l.8,2.81a.13.13,0,0,1,0,.06.2.2,0,0,1-.06.15.15.15,0,0,1-.13,0,.19.19,0,0,1-.2-.14l-.16-.55h-.92l-.18.59a.19.19,0,0,1-.06.07l-.12,0a.17.17,0,0,1-.14-.06.18.18,0,0,1-.06-.14A.22.22,0,0,1,35.12,9.84Zm1-2L35.79,9h.68Z" style="fill: #fff"/>
      <path d="M39.92,10.12H38.08V8.72a.41.41,0,0,1,.4-.4h1.23v-1H38.27a.2.2,0,0,1-.15-.06.19.19,0,0,1,0-.28.2.2,0,0,1,.15-.06h1.44a.4.4,0,0,1,.29.12.38.38,0,0,1,.12.28v1a.4.4,0,0,1-.12.29.44.44,0,0,1-.29.11H38.48v1h1.44a.2.2,0,0,1,.14.06.17.17,0,0,1,.06.14.21.21,0,0,1-.2.2Z" style="fill: #fff"/>
    </g>
    <g>
      <path d="M3.25,38.07v.61L2.57,40.4a.17.17,0,0,1-.16.13c-.08,0-.13,0-.17-.13l-.67-1.72v-.61a.17.17,0,0,1,.17-.17.21.21,0,0,1,.12.05.16.16,0,0,1,0,.12v.54l.51,1.29.51-1.28v-.55A.16.16,0,0,1,3,38a.21.21,0,0,1,.12-.05.17.17,0,0,1,.17.17Z" style="fill: #fff"/>
      <path d="M5.36,40.53h-1a.16.16,0,0,1-.11-.05.17.17,0,0,1,0-.24.16.16,0,0,1,.11-.05h.34V39H4.35a.13.13,0,0,1-.12-.05.16.16,0,0,1-.05-.11.17.17,0,0,1,.05-.12.13.13,0,0,1,.12-.05h.5a.13.13,0,0,1,.12.05.17.17,0,0,1,0,.12v1.4h.33a.17.17,0,0,1,.12.05.13.13,0,0,1,0,.12.15.15,0,0,1,0,.12A.16.16,0,0,1,5.36,40.53Zm-.68-2.78h.17a.17.17,0,0,1,.17.17v.14a.17.17,0,0,1-.17.17H4.68a.17.17,0,0,1-.12,0,.13.13,0,0,1,0-.11v-.15a.17.17,0,0,1,.17-.17Z" style="fill: #fff"/>
      <path d="M7.25,39l-.45.3v1.06a.17.17,0,0,1,0,.12.17.17,0,0,1-.24,0,.17.17,0,0,1,0-.12V38.79a.17.17,0,0,1,0-.12.13.13,0,0,1,.12-.05.16.16,0,0,1,.12.05.17.17,0,0,1,0,.12v.11l.3-.19a.67.67,0,0,1,.34-.09H7.6a.44.44,0,0,1,.34.14.43.43,0,0,1,.15.34l.05,1.26a.13.13,0,0,1-.05.12.17.17,0,0,1-.12.05.16.16,0,0,1-.11-.05.15.15,0,0,1-.05-.12l0-1.24A.17.17,0,0,0,7.58,39H7.41A.37.37,0,0,0,7.25,39Z" style="fill: #fff"/>
    </g>
    <g>
      <path d="M17.71,38.23v.62a.48.48,0,0,1-.13.36.48.48,0,0,1,.13.33v.65a.36.36,0,0,1-.09.24.37.37,0,0,1-.24.1H16.2a.21.21,0,0,1-.12-.05.17.17,0,0,1,0-.12.16.16,0,0,1,0-.12.21.21,0,0,1,.12-.05h1.17v-.65a.19.19,0,0,0,0-.12.21.21,0,0,0-.12-.05h-.67a.16.16,0,0,1-.12,0,.21.21,0,0,1-.05-.12.17.17,0,0,1,.17-.17h.67a.17.17,0,0,0,.17-.17v-.64H16.19a.17.17,0,0,1-.12,0,.16.16,0,0,1-.05-.11.17.17,0,0,1,.17-.17h1.19a.34.34,0,0,1,.33.33Z" style="fill: #fff"/>
      <path d="M20.16,38.79v.31l-.58,1.31c0,.08-.08.12-.14.12h-.22a.19.19,0,0,1-.17-.12l-.57-1.3v-.32a.17.17,0,0,1,.17-.17.16.16,0,0,1,.11.05.13.13,0,0,1,0,.12V39l.51,1.14.5-1.14v-.25a.17.17,0,0,1,.05-.12.21.21,0,0,1,.12-.05.17.17,0,0,1,.17.17Z" style="fill: #fff"/>
      <path d="M22.61,39.22v.7a.54.54,0,0,1-.21.41.66.66,0,0,1-.44.2h-.39a.62.62,0,0,1-.43-.2.55.55,0,0,1-.21-.41v-.7a.57.57,0,0,1,.2-.41.62.62,0,0,1,.44-.19H22a.59.59,0,0,1,.44.18A.57.57,0,0,1,22.61,39.22Zm-1.34,0v.68a.18.18,0,0,0,.06.14l.13.11a.16.16,0,0,0,.11,0H22a.22.22,0,0,0,.15-.06l.1-.09a.15.15,0,0,0,.06-.13v-.67a.18.18,0,0,0-.06-.15L22.1,39A.19.19,0,0,0,22,39h-.35a.29.29,0,0,0-.17,0l-.11.1A.16.16,0,0,0,21.27,39.23Z" style="fill: #fff"/>
    </g>
    <g>
      <path d="M29.63,37.9H31a.21.21,0,0,1,.12.05.17.17,0,0,1,.05.12.16.16,0,0,1-.05.11.14.14,0,0,1-.12.06h-.5v2H31a.13.13,0,0,1,.12,0,.16.16,0,0,1,.05.11.17.17,0,0,1-.17.17H29.63a.17.17,0,0,1-.17-.17.16.16,0,0,1,.05-.11.13.13,0,0,1,.12,0h.51v-2h-.51a.17.17,0,0,1-.12-.05.21.21,0,0,1-.05-.12.17.17,0,0,1,.17-.17Z" style="fill: #fff"/>
      <path d="M33.59,38.07v2.46h-.45l-.9-2v1.87a.16.16,0,0,1,0,.12.21.21,0,0,1-.12.05.17.17,0,0,1-.17-.17V37.9h.44l.9,2V38.07a.17.17,0,0,1,.17-.17.18.18,0,0,1,.12.05A.17.17,0,0,1,33.59,38.07Z" style="fill: #fff"/>
      <path d="M34.36,38.35V37.9H36v.46a.17.17,0,0,1-.16.16.13.13,0,0,1-.12-.05.13.13,0,0,1,0-.11v-.12h-.34v2.12a.17.17,0,0,1,0,.12.16.16,0,0,1-.11.05.21.21,0,0,1-.13-.05.17.17,0,0,1,0-.12V38.24h-.33v.11a.17.17,0,0,1-.17.17.21.21,0,0,1-.12-.05A.16.16,0,0,1,34.36,38.35Z" style="fill: #fff"/>
      <path d="M37,40.19h.51v-2H37a.18.18,0,0,1-.12,0,.16.16,0,0,1-.05-.11.17.17,0,0,1,.05-.12A.18.18,0,0,1,37,37.9h.84v2.29h.33V39.5a.16.16,0,0,1,0-.12.16.16,0,0,1,.11-.05.17.17,0,0,1,.12.05.18.18,0,0,1,0,.12v.86a.18.18,0,0,1,0,.12.17.17,0,0,1-.12.05H37a.17.17,0,0,1-.12-.06.15.15,0,0,1,0-.11.16.16,0,0,1,0-.12A.21.21,0,0,1,37,40.19Z" style="fill: #fff"/>
    </g>
    <g>
      <path d="M22.67,46.77H24a.18.18,0,0,1,.12,0,.21.21,0,0,1,.05.12.17.17,0,0,1-.17.17h-.5v2H24a.17.17,0,0,1,.17.17.21.21,0,0,1-.05.12.16.16,0,0,1-.12,0H22.67a.16.16,0,0,1-.12,0,.21.21,0,0,1-.05-.12.17.17,0,0,1,.17-.17h.51v-2h-.51a.17.17,0,0,1-.17-.17.21.21,0,0,1,.05-.12A.17.17,0,0,1,22.67,46.77Z" style="fill: #fff"/>
      <path d="M26.63,46.94V49.4h-.45l-.89-2v1.88a.21.21,0,0,1-.05.12.17.17,0,0,1-.12,0,.16.16,0,0,1-.12,0,.21.21,0,0,1-.05-.12V46.77h.44l.9,2V46.94a.21.21,0,0,1,.05-.12.18.18,0,0,1,.12,0,.17.17,0,0,1,.12,0A.21.21,0,0,1,26.63,46.94Z" style="fill: #fff"/>
      <path d="M27.4,47.23v-.45h1.68v.45a.17.17,0,0,1,0,.12.21.21,0,0,1-.12,0,.17.17,0,0,1-.12,0,.18.18,0,0,1-.05-.12v-.12H28.4v2.13a.16.16,0,0,1,0,.12.15.15,0,0,1-.11,0,.15.15,0,0,1-.17-.16V47.11h-.34v.12a.16.16,0,0,1-.05.11.13.13,0,0,1-.12,0,.17.17,0,0,1-.16-.16Z" style="fill: #fff"/>
      <path d="M31.36,49.4H29.85V48.25a.31.31,0,0,1,.33-.33h1v-.81H30a.17.17,0,0,1,0-.34h1.19a.37.37,0,0,1,.24.1.36.36,0,0,1,.09.24v.81a.32.32,0,0,1-.09.23.33.33,0,0,1-.24.1h-1v.82h1.18a.17.17,0,0,1,.16.16.13.13,0,0,1-.05.12A.16.16,0,0,1,31.36,49.4Z" style="fill: #fff"/>
    </g>
    <g>
      <path d="M46.09,37.9H47a.41.41,0,0,1,.3.13.43.43,0,0,1,.15.33.17.17,0,0,1-.06.12.16.16,0,0,1-.22,0,.36.36,0,0,1-.06-.15.13.13,0,0,0-.13-.1H46.1s-.06,0-.06,0a.09.09,0,0,0,0,0l1.24,1.58a.38.38,0,0,1,0,.51.35.35,0,0,1-.24.11h-.9a.43.43,0,0,1-.31-.14.41.41,0,0,1-.13-.29c0-.13.06-.19.17-.19A.17.17,0,0,1,46,40a.15.15,0,0,1,0,.11.13.13,0,0,0,0,.09.18.18,0,0,0,.09,0H47s0,0,0-.05,0,0,0,0L45.8,38.53a.39.39,0,0,1,0-.52A.37.37,0,0,1,46.09,37.9Z" style="fill: #fff"/>
      <path d="M48.32,37.9H49a.46.46,0,0,1,.25.08.57.57,0,0,1,.18.2l.33.66a.85.85,0,0,1,.09.38.76.76,0,0,1-.1.37l-.33.66a.51.51,0,0,1-.44.28h-.64a.17.17,0,0,1-.17-.17.21.21,0,0,1,.05-.12.17.17,0,0,1,.12-.05h.17V38.24h-.17a.14.14,0,0,1-.11-.06.13.13,0,0,1-.05-.11.13.13,0,0,1,.05-.12A.16.16,0,0,1,48.32,37.9Zm.51.34v2h.11a.18.18,0,0,0,.17-.11l.33-.66a.48.48,0,0,0,.06-.21.54.54,0,0,0,0-.21l-.34-.67a.18.18,0,0,0-.18-.1Z" style="fill: #fff"/>
      <path d="M50.62,40.3,51.29,38a.16.16,0,0,1,.17-.12.14.14,0,0,1,.15.1l.67,2.31v0a.15.15,0,0,1-.15.17.16.16,0,0,1-.17-.12L51.83,40h-.76l-.15.48s0,0-.05.06a.16.16,0,0,1-.09,0,.17.17,0,0,1-.17-.17A.13.13,0,0,1,50.62,40.3Zm.84-1.63-.29.95h.56Z" style="fill: #fff"/>
    </g>
    <g>
      <path d="M38.67,46.77h.87a.46.46,0,0,1,.3.14.43.43,0,0,1,.14.32.17.17,0,0,1,0,.12.18.18,0,0,1-.11,0c-.06,0-.1,0-.12,0a.38.38,0,0,1-.06-.14.13.13,0,0,0-.13-.11h-.82s-.06,0-.06,0a.14.14,0,0,0,0,.06l1.24,1.58A.36.36,0,0,1,40,49a.36.36,0,0,1-.11.26.3.3,0,0,1-.24.11h-.9a.42.42,0,0,1-.31-.13.45.45,0,0,1-.13-.3.16.16,0,0,1,.18-.18.15.15,0,0,1,.11,0,.18.18,0,0,1,.05.12.12.12,0,0,0,.13.12h.82s.06,0,.06,0a.09.09,0,0,0,0-.05L38.38,47.4a.38.38,0,0,1-.09-.24.37.37,0,0,1,.11-.27A.37.37,0,0,1,38.67,46.77Z" style="fill: #fff"/>
      <path d="M41.66,49.07h.6a.21.21,0,0,1,.12,0,.17.17,0,0,1,0,.12.21.21,0,0,1,0,.12.19.19,0,0,1-.12,0h-.63a.47.47,0,0,1-.24-.07.59.59,0,0,1-.18-.17l-.38-.74a.8.8,0,0,1-.08-.33.66.66,0,0,1,.08-.32l.38-.74a.52.52,0,0,1,.18-.18.4.4,0,0,1,.22-.08h.66a.21.21,0,0,1,.12,0,.19.19,0,0,1,0,.12.16.16,0,0,1,0,.12.21.21,0,0,1-.12,0h-.63a.14.14,0,0,0-.13.09l-.37.69a.41.41,0,0,0,0,.19.46.46,0,0,0,0,.21l.35.68A.18.18,0,0,0,41.66,49.07Z" style="fill: #fff"/>
      <path d="M43.19,49.4V46.94a.21.21,0,0,1,.05-.12.18.18,0,0,1,.12,0,.17.17,0,0,1,.17.17v2.13H44.7a.17.17,0,0,1,.17.17.21.21,0,0,1,0,.12.16.16,0,0,1-.12,0Z" style="fill: #fff"/>
    </g>
    <g>
      <path d="M9.63,46.77h.56a.16.16,0,0,1,.11,0,.17.17,0,0,1,0,.24.16.16,0,0,1-.11,0H9.66a.17.17,0,0,0-.14.07l-.46.6A.32.32,0,0,0,9,48v.92a.17.17,0,0,0,.05.12.13.13,0,0,0,.12,0h.67A.13.13,0,0,0,10,49a.16.16,0,0,0,0-.11v-.37H9.66a.15.15,0,0,1-.11,0,.16.16,0,0,1-.05-.12.13.13,0,0,1,.05-.12.16.16,0,0,1,.11,0h.68v.7a.52.52,0,0,1-.14.35.48.48,0,0,1-.36.14H9.17a.5.5,0,0,1-.51-.49V48a.64.64,0,0,1,.14-.42l.49-.63a.49.49,0,0,1,.15-.12A.45.45,0,0,1,9.63,46.77Z" style="fill: #fff"/>
      <path d="M12.79,46.94V49.4h-.44l-.9-2v1.88a.16.16,0,0,1,0,.12.15.15,0,0,1-.11,0,.16.16,0,0,1-.12,0,.21.21,0,0,1-.05-.12V46.77h.44l.9,2V46.94a.16.16,0,0,1,0-.12.17.17,0,0,1,.12,0,.21.21,0,0,1,.12,0A.19.19,0,0,1,12.79,46.94Z" style="fill: #fff"/>
      <path d="M13.73,46.77h.66a.51.51,0,0,1,.25.09.54.54,0,0,1,.18.19l.33.67a.81.81,0,0,1,.09.37.77.77,0,0,1-.1.38l-.33.65a.46.46,0,0,1-.18.21.5.5,0,0,1-.27.07h-.63a.13.13,0,0,1-.12,0,.16.16,0,0,1,0-.11.17.17,0,0,1,0-.12.13.13,0,0,1,.12,0h.17v-2h-.17a.18.18,0,0,1-.12,0,.17.17,0,0,1,0-.12.21.21,0,0,1,0-.12A.18.18,0,0,1,13.73,46.77Zm.5.34v2h.12a.18.18,0,0,0,.17-.11l.32-.65a.61.61,0,0,0,.07-.22.46.46,0,0,0-.05-.2l-.34-.68a.19.19,0,0,0-.18-.1Z" style="fill: #fff"/>
    </g>
  </g>
  <g id="PIECES">
    <polyline points="36.31 27.93 36.31 32.1 46.18 32.1 46.18 27.93" style="fill: none;stroke: #fff;stroke-linecap: round;stroke-linejoin: round;stroke-width: 0.75px"/>
    <polyline points="36.31 17.01 36.31 21.18 46.18 21.18 46.18 17.01" style="fill: none;stroke: #fff;stroke-linecap: round;stroke-linejoin: round;stroke-width: 0.75px"/>
    <g>
      <line style="fill: none;stroke: #fff;stroke-linecap: round;stroke-linejoin: round;stroke-width: 0.75px" x1="22.48" x2="32.43" y1="19.16" y2="19.16"/>
      <line style="fill: none;stroke: #fff;stroke-linecap: round;stroke-linejoin: round;stroke-width: 0.75px" x1="22.48" x2="32.43" y1="23.16" y2="23.16"/>
      <line style="fill: none;stroke: #fff;stroke-linecap: round;stroke-linejoin: round;stroke-width: 0.75px" x1="22.48" x2="32.43" y1="26.81" y2="26.81"/>
      <line style="fill: none;stroke: #fff;stroke-linecap: round;stroke-linejoin: round;stroke-width: 0.75px" x1="22.48" x2="32.43" y1="30.43" y2="30.43"/>
      <line style="fill: none;stroke: #fff;stroke-linecap: round;stroke-linejoin: round;stroke-width: 0.75px" x1="22.48" x2="32.43" y1="33.87" y2="33.87"/>
    </g>
    <g>
      <rect height="1.78" style="fill: #f7e9cd" width="4.66" x="20.15" y="20.72"/>
      <rect height="1.78" style="fill: #f7e9cd" width="4.66" x="20.15" y="24.31"/>
      <rect height="1.78" style="fill: #f7e9cd" width="4.66" x="20.15" y="27.91"/>
      <rect height="1.78" style="fill: #f7e9cd" width="4.66" x="20.15" y="31.5"/>
      <rect height="1.78" style="fill: #f7e9cd" width="4.66" x="29.9" y="20.72"/>
      <rect height="1.78" style="fill: #f7e9cd" width="4.66" x="29.9" y="24.31"/>
      <rect height="1.78" style="fill: #f7e9cd" width="4.66" x="29.9" y="27.91"/>
      <rect height="1.78" style="fill: #f7e9cd" width="4.66" x="29.9" y="31.5"/>
    </g>
    <rect height="14.6" style="fill: #c7bcb5" width="8.54" x="23.1" y="19.17"/>
    <rect height="12.77" rx="1.41" ry="1.41" style="fill: #beb7ae" width="6.86" x="23.94" y="20.08"/>
    <g>
      <rect height="1.64" style="fill: #aeaba8" transform="translate(40.24 20.63) rotate(90)" width="2.14" x="8.74" y="29.61"/>
      <rect height="1.17" style="fill: #bababa" transform="translate(38.67 19.1) rotate(90)" width="0.96" x="9.31" y="28.3"/>
      <rect height="1.64" style="fill: #aeaba8" transform="translate(37.55 23.32) rotate(90)" width="2.14" x="6.05" y="29.61"/>
      <rect height="1.17" style="fill: #bababa" transform="translate(35.99 21.78) rotate(90)" width="0.96" x="6.62" y="28.3"/>
      <rect height="1.64" style="fill: #aeaba8" transform="translate(34.89 25.97) rotate(90)" width="2.14" x="3.39" y="29.61"/>
      <rect height="1.17" style="fill: #bababa" transform="translate(33.33 24.44) rotate(90)" width="0.96" x="3.97" y="28.3"/>
      <rect height="1.64" style="fill: #aeaba8" transform="translate(-17.22 26.29) rotate(-90)" width="2.14" x="3.47" y="20.94"/>
      <rect height="1.17" style="fill: #bababa" transform="translate(-18.75 27.85) rotate(-90)" width="0.96" x="4.07" y="22.72"/>
      <rect height="1.64" style="fill: #aeaba8" transform="translate(-11.91 31.6) rotate(-90)" width="2.14" x="8.78" y="20.94"/>
      <rect height="1.17" style="fill: #bababa" transform="translate(-13.45 33.16) rotate(-90)" width="0.96" x="9.38" y="22.72"/>
      <rect height="8" style="fill: #333" transform="translate(33.08 19.1) rotate(90)" width="4.63" x="4.68" y="22.09"/>
    </g>
    <g>
      <path d="M5,16.27v2.31c0,.52-.56.94-1.25.94s-1.26-.42-1.26-.94V16.27c0-.52.56-.94,1.26-.94S5,15.75,5,16.27Z" style="fill: #bababa"/>
      <path d="M11.65,16.27v2.31c0,.52-.56.94-1.26.94s-1.25-.42-1.25-.94V16.27c0-.52.56-.94,1.25-.94S11.65,15.75,11.65,16.27Z" style="fill: #bababa"/>
      <rect height="6.68" rx="0.58" ry="0.58" style="fill: #e0e0e0" transform="translate(-10.37 24.48) rotate(-90)" width="3.46" x="5.33" y="14.09"/>
      <rect height="3.13" style="fill: #be965c" transform="translate(-10.44 24.42) rotate(-90)" width="3.46" x="5.26" y="15.86"/>
    </g>
    <g>
      <path d="M5,33.61v2.31c0,.51-.56.93-1.25.93s-1.26-.42-1.26-.93V33.61c0-.52.56-.94,1.26-.94S5,33.09,5,33.61Z" style="fill: #bababa"/>
      <path d="M11.65,33.61v2.31c0,.51-.56.93-1.26.93s-1.25-.42-1.25-.93V33.61c0-.52.56-.94,1.25-.94S11.65,33.09,11.65,33.61Z" style="fill: #bababa"/>
      <rect height="6.68" rx="0.58" ry="0.58" style="fill: #e0e0e0" transform="translate(-27.71 41.82) rotate(-90)" width="3.46" x="5.33" y="31.42"/>
      <rect height="3.13" style="fill: #be965c" transform="translate(-27.77 41.75) rotate(-90)" width="3.46" x="5.26" y="33.2"/>
    </g>
    <g>
      <path d="M14.47,24.31h2.31c.52,0,.94.56.94,1.25s-.42,1.25-.94,1.25H14.47c-.52,0-.94-.56-.94-1.25S14,24.31,14.47,24.31Z" style="fill: #bababa"/>
      <path d="M14.47,17.63h2.31c.52,0,.94.56.94,1.25s-.42,1.25-.94,1.25H14.47c-.52,0-.94-.56-.94-1.25S14,17.63,14.47,17.63Z" style="fill: #bababa"/>
      <rect height="6.68" rx="0.58" ry="0.58" style="fill: #e0e0e0" transform="translate(31.25 44.44) rotate(180)" width="3.46" x="13.9" y="18.88"/>
      <rect height="3.13" style="fill: #be965c" transform="translate(31.25 44.57) rotate(180)" width="3.46" x="13.9" y="20.72"/>
    </g>
    <g>
      <path d="M14.47,35.12h2.31c.52,0,.94.56.94,1.25s-.42,1.25-.94,1.25H14.47c-.52,0-.94-.56-.94-1.25S14,35.12,14.47,35.12Z" style="fill: #bababa"/>
      <path d="M14.47,28.44h2.31c.52,0,.94.56.94,1.25s-.42,1.25-.94,1.25H14.47c-.52,0-.94-.56-.94-1.25S14,28.44,14.47,28.44Z" style="fill: #bababa"/>
      <rect height="6.68" rx="0.58" ry="0.58" style="fill: #e0e0e0" transform="translate(31.25 66.06) rotate(180)" width="3.46" x="13.9" y="29.69"/>
      <rect height="3.13" style="fill: #be965c" transform="translate(31.25 66.19) rotate(180)" width="3.46" x="13.9" y="31.53"/>
    </g>
    <g>
      <g>
        <path d="M18.13,13.54v2.31c0,.52-.56.94-1.25.94s-1.25-.42-1.25-.94V13.54c0-.52.56-.94,1.25-.94S18.13,13,18.13,13.54Z" style="fill: #bababa"/>
        <path d="M24.81,13.54v2.31c0,.52-.56.94-1.25.94s-1.26-.42-1.26-.94V13.54c0-.52.56-.94,1.26-.94S24.81,13,24.81,13.54Z" style="fill: #bababa"/>
        <rect height="6.68" rx="0.58" ry="0.58" style="fill: #e0e0e0" transform="translate(5.52 34.92) rotate(-90)" width="3.46" x="18.49" y="11.36"/>
        <rect height="3.13" transform="translate(5.46 34.85) rotate(-90)" width="3.46" x="18.42" y="13.13"/>
      </g>
      <g>
        <path d="M21.39,14.4h-.16V15h.19l0,0a.05.05,0,0,1,0,0l0,0h-.26v-.7H21v.21a.06.06,0,0,1,0,0H21l0,0v-.26l0,0,0,0h.41l0,0,0,0a.05.05,0,0,1,0,0Z" style="fill: #fff"/>
        <path d="M20.7,14.4V15a.1.1,0,0,1-.1.1h-.31a.1.1,0,0,1-.1-.1v-.6a.1.1,0,0,1,.1-.1h.31a.1.1,0,0,1,.1.1Zm-.41,0V15h.31v-.6Z" style="fill: #fff"/>
        <path d="M20,14.4V15a.1.1,0,0,1-.1.1h-.31a.1.1,0,0,1-.1-.1v-.6a.1.1,0,0,1,.1-.1h.31a.1.1,0,0,1,.1.1Zm-.41,0V15h.31v-.6Z" style="fill: #fff"/>
        <path d="M18.76,14.3h.46v.35a.09.09,0,0,1,0,.07.11.11,0,0,1-.07,0h-.31V15h.4v0s0,0,0,0l0,0h-.36a.15.15,0,0,1-.07,0,.11.11,0,0,1,0-.07v-.25a.1.1,0,0,1,.1-.1h.31V14.4h-.4s0,0,0,0a0,0,0,0,1,0,0A.05.05,0,0,1,18.76,14.3Z" style="fill: #fff"/>
      </g>
    </g>
    <g>
      <g>
        <path d="M32.88,15.85V13.54c0-.52.56-.94,1.25-.94s1.26.42,1.26.94v2.31c0,.52-.56.94-1.26.94S32.88,16.37,32.88,15.85Z" style="fill: #bababa"/>
        <path d="M26.2,15.85V13.54c0-.52.56-.94,1.26-.94s1.25.42,1.25.94v2.31c0,.52-.56.94-1.25.94S26.2,16.37,26.2,15.85Z" style="fill: #bababa"/>
        <rect height="6.68" rx="0.58" ry="0.58" style="fill: #e0e0e0" transform="translate(45.49 -16.1) rotate(90)" width="3.46" x="29.07" y="11.36"/>
        <rect height="3.13" transform="translate(45.56 -16.16) rotate(90)" width="3.46" x="29.13" y="13.13"/>
      </g>
      <g>
        <path d="M29.62,15h.16V14.4h-.15l0,0a0,0,0,0,1,0,0,.06.06,0,0,1,0,0h.29V15H30v-.21a0,0,0,0,1,0,0l0,0,0,0,0,0V15a.05.05,0,0,1,0,0h-.47a.05.05,0,0,1,0,0l0,0Z" style="fill: #fff"/>
        <path d="M30.31,15v-.6a.09.09,0,0,1,0-.07.11.11,0,0,1,.07,0h.32l.06,0a.09.09,0,0,1,0,.07V15a.11.11,0,0,1,0,.07l-.07,0h-.31l-.07,0A.11.11,0,0,1,30.31,15Zm.41,0V14.4h-.3V15Z" style="fill: #fff"/>
        <path d="M31.06,15v-.6a.08.08,0,0,1,0-.07.11.11,0,0,1,.07,0h.32l.06,0a.09.09,0,0,1,0,.07V15a.11.11,0,0,1,0,.07l-.07,0h-.31l-.07,0A.1.1,0,0,1,31.06,15Zm.4,0V14.4h-.3V15Z" style="fill: #fff"/>
        <path d="M32.25,15.09H31.8v-.34a.11.11,0,0,1,0-.08.09.09,0,0,1,.07,0h.3V14.4h-.36l0,0,0,0,0,0h.39a.1.1,0,0,1,.1.1v.24a.11.11,0,0,1,0,.08.09.09,0,0,1-.07,0h-.3V15h.35a.05.05,0,0,1,0,0,0,0,0,0,1,0,0s0,0,0,0Z" style="fill: #fff"/>
      </g>
    </g>
    <g>
      <g>
        <path d="M50.63,17.07H48.32c-.52,0-.94-.56-.94-1.25s.42-1.25.94-1.25h2.31c.52,0,.94.56.94,1.25S51.15,17.07,50.63,17.07Z" style="fill: #bababa"/>
        <path d="M50.63,23.75H48.32c-.52,0-.94-.56-.94-1.25s.42-1.26.94-1.26h2.31c.52,0,.94.56.94,1.26S51.15,23.75,50.63,23.75Z" style="fill: #bababa"/>
        <rect height="6.68" rx="0.58" ry="0.58" style="fill: #e0e0e0" width="3.46" x="47.75" y="15.82"/>
        <rect height="3.13" width="3.46" x="47.75" y="17.53"/>
      </g>
      <g>
        <path d="M49.77,20.33v-.16h-.59v.16s0,0,0,0l0,0,0,0a0,0,0,0,1,0,0v-.26h.69V20h-.24a.05.05,0,0,1,0,0s0,0,0,0l0,0h.26a.05.05,0,0,1,0,0,0,0,0,0,1,0,0v.41a0,0,0,0,1,0,0,.05.05,0,0,1,0,0l0,0S49.77,20.34,49.77,20.33Z" style="fill: #fff"/>
        <path d="M49.78,19.64h-.6a.1.1,0,0,1-.1-.1v-.31a.1.1,0,0,1,.1-.1h.6a.11.11,0,0,1,.07,0,.14.14,0,0,1,0,.07v.31a.14.14,0,0,1,0,.07A.11.11,0,0,1,49.78,19.64Zm0-.41h-.59v.31h.59Z" style="fill: #fff"/>
        <path d="M49.78,18.9h-.6a.1.1,0,0,1-.1-.1v-.31a.1.1,0,0,1,.1-.1h.6a.11.11,0,0,1,.07,0,.14.14,0,0,1,0,.07v.31a.14.14,0,0,1,0,.07A.11.11,0,0,1,49.78,18.9Zm0-.41h-.59v.31h.59Z" style="fill: #fff"/>
        <path d="M49.87,17.7v.46h-.34a.08.08,0,0,1-.07,0,.07.07,0,0,1,0-.07v-.3h-.24v.36s0,0,0,0l0,0,0,0a0,0,0,0,1,0,0v-.36a.1.1,0,0,1,.1-.1h.24a.11.11,0,0,1,.08,0,.09.09,0,0,1,0,.07v.3h.24V17.7a.05.05,0,0,1,0,0h.07S49.87,17.68,49.87,17.7Z" style="fill: #fff"/>
      </g>
    </g>
    <g>
      <g>
        <path d="M48.32,32.61h2.31c.52,0,.94.56.94,1.26s-.42,1.25-.94,1.25H48.32c-.52,0-.94-.56-.94-1.25S47.8,32.61,48.32,32.61Z" style="fill: #bababa"/>
        <path d="M48.32,25.94h2.31c.52,0,.94.56.94,1.25s-.42,1.25-.94,1.25H48.32c-.52,0-.94-.56-.94-1.25S47.8,25.94,48.32,25.94Z" style="fill: #bababa"/>
        <rect height="6.68" rx="0.58" ry="0.58" style="fill: #e0e0e0" transform="translate(98.96 61.05) rotate(180)" width="3.46" x="47.75" y="27.19"/>
        <rect height="3.13" transform="translate(98.96 61.18) rotate(180)" width="3.46" x="47.75" y="29.03"/>
      </g>
      <g>
        <path d="M49.18,29.35v.16h.59v-.15a.05.05,0,0,1,0,0h.07a.05.05,0,0,1,0,0v.25h-.7v.1h.21a0,0,0,0,1,0,0,0,0,0,0,1,0,0,.06.06,0,0,1,0,0h-.34a.06.06,0,0,1,0,0v-.41s0,0,0,0l0,0,0,0A0,0,0,0,1,49.18,29.35Z" style="fill: #fff"/>
        <path d="M49.18,30.05h.6a.11.11,0,0,1,.07,0,.07.07,0,0,1,0,.06v.32a.09.09,0,0,1,0,.06.11.11,0,0,1-.07,0h-.6a.09.09,0,0,1-.07,0,.09.09,0,0,1,0-.06v-.32a.11.11,0,0,1,0-.07Zm0,.4h.59v-.3h-.59Z" style="fill: #fff"/>
        <path d="M49.18,30.79h.6a.11.11,0,0,1,.07,0,.07.07,0,0,1,0,.06v.32a.07.07,0,0,1,0,.06.11.11,0,0,1-.07,0h-.6a.09.09,0,0,1-.07,0,.07.07,0,0,1,0-.06v-.32a.11.11,0,0,1,0-.07Zm0,.4h.59v-.3h-.59Z" style="fill: #fff"/>
        <path d="M49.08,32v-.46h.35a.1.1,0,0,1,.1.1v.3h.24v-.35a.05.05,0,0,1,0,0l0,0a.07.07,0,0,1,.06.06v.35a.12.12,0,0,1,0,.08.08.08,0,0,1-.07,0h-.24a.09.09,0,0,1-.07,0,.11.11,0,0,1,0-.08v-.3h-.25V32a0,0,0,0,1,0,0l0,0,0,0A0,0,0,0,1,49.08,32Z" style="fill: #fff"/>
      </g>
    </g>
    <g>
      <path d="M10.14,25.75v1.16a.18.18,0,0,1-.06.13.15.15,0,0,1-.13.05h-.6A.15.15,0,0,1,9.22,27a.18.18,0,0,1-.06-.13V25.75a.2.2,0,0,1,.06-.14.19.19,0,0,1,.13-.05H10a.19.19,0,0,1,.13.05A.2.2,0,0,1,10.14,25.75Zm-.79,0V26.9h.59V25.75Z" style="fill: #5e5c60"/>
      <path d="M8.62,25.75h-.3V26.9h.29a.09.09,0,0,1,.07,0,.07.07,0,0,1,0,.06.1.1,0,0,1-.1.1H8.13V25.75h-.2v.41a.11.11,0,0,1,0,.07.08.08,0,0,1-.07,0s0,0-.06,0a.11.11,0,0,1,0-.07v-.5a.09.09,0,0,1,0-.07.07.07,0,0,1,.06,0h.79a.11.11,0,0,1,.07,0,.13.13,0,0,1,0,.14Z" style="fill: #5e5c60"/>
      <path d="M6.3,26.9v-.37a.28.28,0,0,1,.08-.2.32.32,0,0,1-.08-.2v-.38a.18.18,0,0,1,.06-.13.18.18,0,0,1,.14-.06h.68a.1.1,0,0,1,.1.1.11.11,0,0,1,0,.07l-.07,0H6.5v.38a.1.1,0,0,0,.1.1H7a.07.07,0,0,1,.06,0,.1.1,0,0,1,0,.14.07.07,0,0,1-.06,0h-.4s0,0-.06,0a.11.11,0,0,0,0,.07v.38h.69a.09.09,0,0,1,.07,0,.07.07,0,0,1,0,.06.1.1,0,0,1-.1.1H6.5A.18.18,0,0,1,6.36,27,.16.16,0,0,1,6.3,26.9Z" style="fill: #5e5c60"/>
      <path d="M4.88,26.9v-.37a.27.27,0,0,1,.07-.2.32.32,0,0,1-.08-.2v-.38a.18.18,0,0,1,.06-.13.2.2,0,0,1,.14-.06h.68a.1.1,0,0,1,.1.1.11.11,0,0,1,0,.07l-.07,0H5.07v.38a.1.1,0,0,0,.1.1h.39a.1.1,0,0,1,0,.2H5.17a.08.08,0,0,0-.07,0,.11.11,0,0,0,0,.07v.38h.69a.09.09,0,0,1,.07,0,.07.07,0,0,1,0,.06.1.1,0,0,1-.1.1H5.07A.2.2,0,0,1,4.93,27,.15.15,0,0,1,4.88,26.9Z" style="fill: #5e5c60"/>
    </g>
    <line style="fill: none;stroke: #fff;stroke-linecap: round;stroke-linejoin: round;stroke-width: 0.5px" x1="11.91" x2="11.91" y1="23.66" y2="28.66"/>
    <line style="fill: none;stroke: #fff;stroke-linecap: round;stroke-linejoin: round;stroke-width: 0.5px" x1="2.28" x2="2.28" y1="23.66" y2="28.66"/>
    <line style="fill: none;stroke: #fff;stroke-linecap: round;stroke-linejoin: round;stroke-width: 0.5px" x1="5.84" x2="8.26" y1="23.16" y2="23.16"/>
    <g>
      <path d="M37.89,28.65H38v.25A.09.09,0,0,0,38,29h1a.09.09,0,0,0,.09-.08v-.25h.58a.27.27,0,0,0,.27-.27V26.53a.27.27,0,0,0-.27-.27h-1.8a.27.27,0,0,0-.27.27v1.85A.27.27,0,0,0,37.89,28.65Z" style="fill: #aeaba8"/>
      <path d="M42.8,28.62h.06v.25a.08.08,0,0,0,.08.08h1a.09.09,0,0,0,.08-.08v-.25h.59a.27.27,0,0,0,.27-.27V26.5a.27.27,0,0,0-.27-.27H42.8a.27.27,0,0,0-.27.27v1.85A.27.27,0,0,0,42.8,28.62Z" style="fill: #aeaba8"/>
      <path d="M42.23,32.44h-.06v-.25a.09.09,0,0,0-.09-.09H41a.1.1,0,0,0-.1.09v.25h-.64a.29.29,0,0,0-.3.26v1.86a.29.29,0,0,0,.3.26h2a.29.29,0,0,0,.3-.26V32.7A.29.29,0,0,0,42.23,32.44Z" style="fill: #aeaba8"/>
      <rect height="3.89" rx="0.91" ry="0.91" style="fill: #3c3c3e" transform="translate(82.49 61.48) rotate(180)" width="7.92" x="37.28" y="28.8"/>
    </g>
    <g>
      <path d="M37.89,17.64H38v.25A.08.08,0,0,0,38,18h1a.08.08,0,0,0,.09-.08v-.25h.58a.27.27,0,0,0,.27-.27V15.52a.27.27,0,0,0-.27-.26h-1.8a.27.27,0,0,0-.27.26v1.85A.27.27,0,0,0,37.89,17.64Z" style="fill: #aeaba8"/>
      <path d="M42.8,17.61h.06v.25a.08.08,0,0,0,.08.09h1a.09.09,0,0,0,.08-.09v-.25h.59a.27.27,0,0,0,.27-.26V15.49a.27.27,0,0,0-.27-.26H42.8a.27.27,0,0,0-.27.26v1.86A.27.27,0,0,0,42.8,17.61Z" style="fill: #aeaba8"/>
      <path d="M42.23,21.43h-.06v-.25a.08.08,0,0,0-.09-.08H41a.09.09,0,0,0-.1.08v.25h-.64a.29.29,0,0,0-.3.27v1.85a.29.29,0,0,0,.3.27h2a.29.29,0,0,0,.3-.27V21.7A.29.29,0,0,0,42.23,21.43Z" style="fill: #aeaba8"/>
      <rect height="3.89" rx="0.91" ry="0.91" style="fill: #3c3c3e" transform="translate(82.49 39.47) rotate(180)" width="7.92" x="37.28" y="17.79"/>
    </g>
    <g>
      <circle cx="42.19" cy="37.87" r="2.76" style="fill: #6d592e"/>
      <circle cx="42.19" cy="37.87" r="1.51" style="fill: #fbf0df"/>
    </g>
    <g>
      <circle cx="15.18" cy="3.69" r="2.76" style="fill: #6d592e"/>
      <circle cx="15.18" cy="3.69" r="1.51" style="fill: #fbf0df"/>
    </g>
    <circle cx="27.27" cy="29.69" r="0.75" style="fill: #4a2c21"/>
    <g>
      <path d="M26.16,27.37h-.05l-.25.18h1.05a.08.08,0,0,1,.06,0,.09.09,0,0,1,0,.07.09.09,0,0,1,0,.06l-.06,0H25.62V27.5l.31-.22-.31-.22v-.22h1.29a.06.06,0,0,1,.06,0,.07.07,0,0,1,0,.06A.09.09,0,0,1,27,27a.07.07,0,0,1-.06,0H25.86l.25.17h.05a.11.11,0,0,1,.09.09.07.07,0,0,1,0,.06A.09.09,0,0,1,26.16,27.37Z" style="fill: #fdf3ea"/>
      <path d="M25.79,25.55h.33a.27.27,0,0,1,.18.07.34.34,0,0,1,.18-.07h.34a.17.17,0,0,1,.12.05.18.18,0,0,1,.06.13v.62a.09.09,0,0,1,0,.06l-.06,0a.08.08,0,0,1-.06,0,.09.09,0,0,1,0-.06v-.62h-.34a.09.09,0,0,0-.06,0,.06.06,0,0,0,0,.06v.35a.14.14,0,0,1,0,.06.09.09,0,0,1-.07,0,.09.09,0,0,1-.06,0,.14.14,0,0,1,0-.06v-.35a.09.09,0,0,0,0-.07l-.06,0h-.34v.62a.08.08,0,0,1,0,.06.09.09,0,0,1-.07,0,.09.09,0,0,1-.06,0,.08.08,0,0,1,0-.06v-.62a.17.17,0,0,1,.17-.18Z" style="fill: #fdf3ea"/>
      <path d="M26.91,25.15H25.62v-.62a.24.24,0,0,1,.26-.26h.33a.24.24,0,0,1,.18.07.27.27,0,0,1,.08.19V25h.44a.11.11,0,0,1,.09.09.09.09,0,0,1,0,.06A.06.06,0,0,1,26.91,25.15ZM26.3,25v-.44a.06.06,0,0,0,0-.06.09.09,0,0,0-.06,0h-.33a.09.09,0,0,0-.06,0,.06.06,0,0,0,0,.06V25Z" style="fill: #fdf3ea"/>
      <path d="M26.91,23.86H25.62v-.62a.24.24,0,0,1,.07-.18.29.29,0,0,1,.19-.08H26a.27.27,0,0,1,.19.08.24.24,0,0,1,.07.18v.11l.62-.35.05,0A.06.06,0,0,1,27,23a.09.09,0,0,1,0,.06.1.1,0,0,1-.05.08l-.71.41v.12h.67a.06.06,0,0,1,.06,0,.09.09,0,0,1,0,.06.11.11,0,0,1-.09.09Zm-.84-.17v-.45a.09.09,0,0,0,0-.06s0,0-.06,0h-.1a.07.07,0,0,0-.06,0,.09.09,0,0,0,0,.06v.45Z" style="fill: #fdf3ea"/>
    </g>
    <g>
      <path d="M28.54,27.05h.57l.07,0a.14.14,0,0,1,0,.07.14.14,0,0,1,0,.06.09.09,0,0,1-.07,0h-.57l-.45.35h-.18a.06.06,0,0,1-.06,0,.09.09,0,0,1,0-.06.06.06,0,0,1,0-.06.07.07,0,0,1,.06,0H28l.34-.26L28,26.87h-.12a.08.08,0,0,1-.06,0,.09.09,0,0,1,0-.06.14.14,0,0,1,0-.07l.07,0h.18Z" style="fill: #fdf3ea"/>
      <path d="M28.54,25.76h.57a.09.09,0,0,1,.07,0,.14.14,0,0,1,0,.06.11.11,0,0,1,0,.06.09.09,0,0,1-.07,0h-.57l-.45.35h-.18a.11.11,0,0,1-.09-.09.09.09,0,0,1,0-.06.07.07,0,0,1,.06,0H28l.34-.26L28,25.59h-.12a.06.06,0,0,1-.06,0,.09.09,0,0,1,0-.06.14.14,0,0,1,0-.06.09.09,0,0,1,.07,0h.18Z" style="fill: #fdf3ea"/>
      <path d="M29,25H28a.17.17,0,0,1-.17-.17V24.3a.13.13,0,0,1,.05-.12.17.17,0,0,1,.12-.05h1a.17.17,0,0,1,.17.17v.54a.17.17,0,0,1-.05.12A.13.13,0,0,1,29,25Zm0-.71H28v.54h1Z" style="fill: #fdf3ea"/>
      <path d="M29.2,23.72H27.91a.08.08,0,0,1-.06,0,.09.09,0,0,1,0-.07.09.09,0,0,1,0-.06.08.08,0,0,1,.06,0H29v-.62a.11.11,0,0,1,0-.06.09.09,0,0,1,.06,0,.09.09,0,0,1,.07,0,.11.11,0,0,1,0,.06Z" style="fill: #fdf3ea"/>
    </g>
    <path d="M22.09,18.5a1,1,0,1,1-1-1A1,1,0,0,1,22.09,18.5Z" style="fill: #fff"/>
    <circle cx="6.99" cy="21.77" r="0.73" style="fill: #1a2c80"/>
    <circle cx="6.81" cy="7.62" r="5.81" style="fill: none;stroke: #fff;stroke-miterlimit: 10;stroke-width: 0.5px"/>
    <path d="M6.81,2.63a5,5,0,1,0,5,5A5,5,0,0,0,6.81,2.63Zm0,8.62a3.63,3.63,0,1,1,3.63-3.63A3.63,3.63,0,0,1,6.81,11.25Z" style="fill: #fadca3"/>
    <circle cx="46.74" cy="7.62" r="5.81" style="fill: none;stroke: #fff;stroke-miterlimit: 10;stroke-width: 0.5px"/>
    <path d="M46.74,2.63a5,5,0,1,0,5,5A5,5,0,0,0,46.74,2.63Zm0,8.62a3.63,3.63,0,1,1,3.64-3.63A3.64,3.64,0,0,1,46.74,11.25Z" style="fill: #fadca3"/>
  </g>
  <g id="Connectors">
    <ellipse cx="5.16" cy="43.5" data-cir-type="male" id="circuitoCon_VIN" rx="2.05" ry="1.99" style="fill: none;stroke: #e5e3dd;stroke-miterlimit: 10;stroke-width: 1.224px"/>
    <ellipse cx="48.44" cy="43.5" data-cir-type="male" id="circuitoCon_SDA" rx="2.05" ry="1.99" style="fill: none;stroke: #e5e3dd;stroke-miterlimit: 10;stroke-width: 1.224px"/>
    <ellipse cx="41.25" cy="43.5" data-cir-type="male" id="circuitoCon_SCL" rx="2.05" ry="1.99" style="fill: none;stroke: #e5e3dd;stroke-miterlimit: 10;stroke-width: 1.224px"/>
    <ellipse cx="34.05" cy="43.5" data-cir-type="male" id="circuitoCon_INT1" rx="2.05" ry="1.99" style="fill: none;stroke: #e5e3dd;stroke-miterlimit: 10;stroke-width: 1.224px"/>
    <ellipse cx="19.66" cy="43.5" data-cir-type="male" id="circuitoCon_3vo" rx="2.05" ry="1.99" style="fill: none;stroke: #e5e3dd;stroke-miterlimit: 10;stroke-width: 1.224px"/>
    <ellipse cx="12.42" cy="43.5" data-cir-type="male" id="circuitoCon_GND" rx="2.05" ry="1.99" style="fill: none;stroke: #e5e3dd;stroke-miterlimit: 10;stroke-width: 1.224px"/>
    <ellipse cx="26.86" cy="43.5" data-cir-type="male" id="circuitoCon_INT2" rx="2.05" ry="1.99" style="fill: none;stroke: #e5e3dd;stroke-miterlimit: 10;stroke-width: 1.224px"/>
  </g>
</svg>