<?xml version="1.0" ?><svg data-name="Layer 1" height="23.01mm" id="Layer_1" viewBox="0 0 117.41 65.24" width="41.42mm" xmlns="http://www.w3.org/2000/svg">
  <title>circuito_7-Segment Serial Display</title>
  <g id="Background">
    <circle cx="103.31" cy="58.14" r="4.1" style="fill: none"/>
    <circle cx="103.31" cy="7.66" r="4.1" style="fill: none"/>
    <circle cx="16.3" cy="58.14" r="4.1" style="fill: none"/>
    <circle cx="16.3" cy="7.66" r="4.1" style="fill: none"/>
    <circle cx="41.92" cy="3.92" r="1.35" style="fill: none"/>
    <circle cx="49.11" cy="3.95" r="1.35" style="fill: none"/>
    <circle cx="34.73" cy="3.9" r="1.35" style="fill: none"/>
    <circle cx="63.5" cy="4.01" r="1.35" style="fill: none"/>
    <circle cx="56.31" cy="3.98" r="1.35" style="fill: none"/>
    <circle cx="5.82" cy="10.79" r="1.35" style="fill: none"/>
    <circle cx="5.82" cy="3.6" r="1.35" style="fill: none"/>
    <circle cx="16.3" cy="58.14" r="4.1" style="fill: none"/>
    <circle cx="27.48" cy="3.9" r="1.35" style="fill: none"/>
    <circle cx="16.3" cy="7.66" r="4.1" style="fill: none"/>
    <circle cx="70.83" cy="3.9" r="1.35" style="fill: none"/>
    <circle cx="103.31" cy="7.66" r="4.1" style="fill: none"/>
    <circle cx="103.31" cy="58.14" r="4.1" style="fill: none"/>
    <circle cx="92.41" cy="3.9" r="1.35" style="fill: none"/>
    <circle cx="78.02" cy="3.9" r="1.35" style="fill: none"/>
    <circle cx="85.21" cy="3.9" r="1.35" style="fill: none"/>
    <circle cx="34.73" cy="3.9" r="1.35" style="fill: none"/>
    <circle cx="16.3" cy="7.66" r="4.1" style="fill: none"/>
    <circle cx="27.48" cy="3.9" r="1.35" style="fill: none"/>
    <circle cx="41.92" cy="3.92" r="1.35" style="fill: none"/>
    <circle cx="49.11" cy="3.95" r="1.35" style="fill: none"/>
    <circle cx="113.87" cy="10.79" r="1.45" style="fill: none"/>
    <circle cx="113.87" cy="3.6" r="1.45" style="fill: none"/>
    <circle cx="56.31" cy="3.98" r="1.35" style="fill: none"/>
    <circle cx="5.82" cy="10.79" r="1.35" style="fill: none"/>
    <circle cx="5.82" cy="3.6" r="1.35" style="fill: none"/>
    <circle cx="16.3" cy="58.14" r="4.1" style="fill: none"/>
    <circle cx="78.02" cy="3.9" r="1.35" style="fill: none"/>
    <circle cx="103.31" cy="58.14" r="4.1" style="fill: none"/>
    <circle cx="103.31" cy="7.66" r="4.1" style="fill: none"/>
    <circle cx="92.41" cy="3.9" r="1.35" style="fill: none"/>
    <circle cx="63.5" cy="4.01" r="1.35" style="fill: none"/>
    <circle cx="85.21" cy="3.9" r="1.35" style="fill: none"/>
    <circle cx="70.83" cy="3.9" r="1.35" style="fill: none"/>
    <path d="M1.29,0V65.24H116.45V0ZM5.82,63.59a1.84,1.84,0,1,1,1.83-1.85v0A1.84,1.84,0,0,1,5.82,63.59Zm0-7.24a1.84,1.84,0,1,1,1.84-1.83,1.83,1.83,0,0,1-1.84,1.83Zm0-43.65a1.83,1.83,0,0,1-1.49-.77A1.29,1.29,0,0,1,4,10.14a1.22,1.22,0,0,1,.34-.34,1.84,1.84,0,1,1,3,2.12A1.87,1.87,0,0,1,5.82,12.7Zm0-7.24a1.8,1.8,0,0,1-1.41-.68A1.3,1.3,0,0,1,3.94,3a1.46,1.46,0,0,1,.33-.37A1.83,1.83,0,1,1,5.82,5.46ZM16.56,63.11a4.71,4.71,0,0,1-4-2.14,4,4,0,0,1,.18-5.73,3.77,3.77,0,0,1,1-.67,4.74,4.74,0,1,1,2.82,8.54Zm0-50.68A4.73,4.73,0,0,1,13.19,11a4.06,4.06,0,0,1-.91-5.67A4.32,4.32,0,0,1,13,4.6a4.74,4.74,0,1,1,3.58,7.84Zm10.65-7a1.85,1.85,0,0,1-.89-.24,1.34,1.34,0,0,1-.83-1,1.83,1.83,0,1,1,2.35,1.09,2,2,0,0,1-.63.11Zm7.52,0A1.81,1.81,0,0,1,34,5.31,1.35,1.35,0,0,1,32.68,4,1.3,1.3,0,0,1,33,3.21a1.83,1.83,0,1,1,1.78,2.26Zm7.19.13a1.77,1.77,0,0,1-1-.31,1.3,1.3,0,0,1-1-1.54,1.33,1.33,0,0,1,.3-.59,1.83,1.83,0,1,1,1.73,2.44Zm7.19,0a1.82,1.82,0,0,1-.94-.26,1.31,1.31,0,0,1-1.11-1.47,1.29,1.29,0,0,1,.3-.66A1.83,1.83,0,1,1,49.1,5.56Zm7.2.22a1.81,1.81,0,0,1-1.22-.48,1.35,1.35,0,0,1-.83-1.24,1.28,1.28,0,0,1,.44-1,1.83,1.83,0,1,1,1.61,2.72Zm7.19-.3a2.1,2.1,0,0,1-.5-.09h-.16a1.35,1.35,0,0,1-1.39-1.31h0a1.21,1.21,0,0,1,.24-.73A1.83,1.83,0,1,1,63.5,5.48Zm7.33,0A1.77,1.77,0,0,1,70,5.3,1.35,1.35,0,0,1,68.73,4,1.37,1.37,0,0,1,69,3.19a1.83,1.83,0,1,1,1.77,2.3Zm7.16,0a1.82,1.82,0,0,1-.79-.18A1.35,1.35,0,0,1,76,4a1.37,1.37,0,0,1,.28-.78A1.83,1.83,0,1,1,78,5.48Zm7.19,0a1.82,1.82,0,0,1-.79-.18A1.35,1.35,0,0,1,83.13,4a1.37,1.37,0,0,1,.28-.78,1.83,1.83,0,1,1,1.77,2.3Zm7.35,0a1.76,1.76,0,0,1-.81-.2h0a1.36,1.36,0,0,1-1.35-1.35,1.35,1.35,0,0,1,.53-1,1.84,1.84,0,1,1,1.68,2.58Zm11,57.61a4.72,4.72,0,0,1-4-2.14,4.06,4.06,0,0,1,.18-5.73,4,4,0,0,1,1-.67,4.74,4.74,0,1,1,5.64,7.61,4.68,4.68,0,0,1-2.82.93Zm0-50.68a4.74,4.74,0,0,1-3.37-1.4,4.07,4.07,0,0,1-.86-5.68A4,4,0,0,1,100,4.6a4.74,4.74,0,1,1,3.58,7.84Zm10.14,51.15a1.79,1.79,0,0,1-1.33-.57,1.54,1.54,0,0,1-.55-2.12,1.6,1.6,0,0,1,.95-.72,2,2,0,0,1,.93-.26,1.84,1.84,0,0,1,2,1.7,1.83,1.83,0,0,1-1.7,2Zm0-7.24a1.75,1.75,0,0,1-1.21-.47,1.54,1.54,0,0,1-.73-2.06,1.52,1.52,0,0,1,.88-.79,1.83,1.83,0,0,1,2.1,3,1.79,1.79,0,0,1-1,.32Zm0-43.65a1.83,1.83,0,0,1-1.41-.67,1.45,1.45,0,0,1-.32-2,1.39,1.39,0,0,1,.32-.32,1.83,1.83,0,1,1,1.41,3Zm0-7.24a1.84,1.84,0,0,1-1.32-.57,1.45,1.45,0,0,1-.47-2,1.69,1.69,0,0,1,.27-.32,1.84,1.84,0,0,1,3.06,2,1.85,1.85,0,0,1-1.54.82Z" style="fill: #8a231e" transform="translate(0 -0.01)"/>
  </g>
  <g data-name="Liight Red" id="Liight_Red">
    <polyline points="7.38 5.52 10.36 8.51 10.36 11.08 8.25 13.93 12.56 13.93 10.36 11.08" style="fill: none;stroke: #cf2f27;stroke-miterlimit: 10"/>
    <rect height="1.84" style="fill: #cf2f27" width="2.5" x="9.16" y="11.9"/>
    <path d="M19.94,1.92A7.07,7.07,0,0,1,23,6.25a7.38,7.38,0,0,1-1.69,6.19h7.38l1.22,1.06,8.06.09,41.87-.06c-.51-.81-1-1.68-1.53-2.62C77.61,9.6,77,8.34,76.53,7.16c-.36-.27-.74-.57-1.12-.91S74.54,5.44,74.13,5a4.2,4.2,0,0,1-3,2.44H68.78L67.65,8.78H42.45l-2.09,1.79a2.72,2.72,0,0,1-.82,2.32,2.1,2.1,0,0,1-1.19.47,2.21,2.21,0,0,1-2-1.21,2.3,2.3,0,0,1-.11-1.8A1.87,1.87,0,0,1,37,9.16,2,2,0,0,1,38.69,9l1.44-1.31A.4.4,0,0,1,40,7.48a.41.41,0,0,1,.12-.35,4.83,4.83,0,0,1-2.06-2.5,4.27,4.27,0,0,1-.15.71,3.46,3.46,0,0,1-.54,1l-1,1.06a1.86,1.86,0,0,1-.56,2.53v2.51l-1.66.17-1.43-1.4v-.77l1.48-1.06-3.3-4.24a3.77,3.77,0,0,1-7.12-.41,6.32,6.32,0,0,1,.62-3H20Z" style="fill: #cf2f27" transform="translate(0 -0.01)"/>
    <circle cx="38.13" cy="11.3" r="1.63" style="fill: #cf2f27"/>
    <polyline points="39 10.43 41.89 7.54 67.16 7.54 68.52 6.17 68.98 5.7" style="fill: none;stroke: #cf2f27;stroke-miterlimit: 10"/>
    <polyline points="77.2 9.16 78.47 9.16 80.9 11.59" style="fill: none;stroke: #cf2f27;stroke-miterlimit: 10"/>
    <polyline points="85.21 6.43 85.21 7.36 88.66 10.8" style="fill: none;stroke: #cf2f27;stroke-miterlimit: 10"/>
    <path d="M83.41,13.94a2.72,2.72,0,0,0,.49-2.44,2.51,2.51,0,0,0-1.19-1.41L80.9,9.87l-1.85-1.8.79-1.17,1.57-1.78.7.09,4.83,5.22-.16,1.5a2.74,2.74,0,0,0,2.16,1.41,2.7,2.7,0,0,0,2-.9,2.4,2.4,0,0,0,.41-1.94,2.46,2.46,0,0,0-1.46-1.65H88.43L86.94,7.21l1.72-2.09H89c1,1.66,2.64,2.66,4,2.38,1.84-.37,3.43-3.06,2.34-5.94H99.8v.38a7.09,7.09,0,0,0-2.87,5.31,7.27,7.27,0,0,0,3.19,5.94v.59Z" style="fill: #cf2f27" transform="translate(0 -0.01)"/>
    <line style="fill: none;stroke: #cf2f27;stroke-miterlimit: 10" x1="29.84" x2="79.68" y1="13.74" y2="13.74"/>
    <polyline points="8.25 61.88 10.62 59.52 10.62 52.38" style="fill: none;stroke: #cf2f27;stroke-miterlimit: 10"/>
    <polyline points="20.33 52.64 26.06 58.37 94.41 58.37 99.81 52.96" style="fill: none;stroke: #cf2f27;stroke-miterlimit: 10"/>
    <polyline points="107.12 53.39 109.76 56.03 109.76 57.72 112.56 60.52" style="fill: none;stroke: #cf2f27;stroke-miterlimit: 10"/>
    <polygon points="22.58 52.97 26.71 57.13 93.95 57.13 97.24 53.18 22.58 52.97" style="fill: #cf2f27"/>
    <g>
      <path d="M22.72,62l.38,1.08c.06.17.11.33.16.5h0a1.8,1.8,0,0,1,.16-.5L23.8,62h.37L23.41,64h-.34L22.33,62Z" style="fill: #cf2f27" transform="translate(0 -0.01)"/>
      <path d="M25.47,63.48a1.06,1.06,0,0,0,.66.23c.42,0,.54-.2.54-.39s-.18-.4-.59-.4H25.8v-.3h.26c.37,0,.52-.15.52-.35s-.11-.36-.46-.36a1,1,0,0,0-.6.19l-.1-.28a1.38,1.38,0,0,1,.72-.21c.52,0,.75.28.75.62a.53.53,0,0,1-.4.52h0a.6.6,0,0,1,.5.58c0,.41-.33.69-.86.69a1.31,1.31,0,0,1-.79-.23Z" style="fill: #cf2f27" transform="translate(0 -0.01)"/>
      <path d="M29.31,63.68V64H27.94v-.29h.56V62a2,2,0,0,1-.46.18v-.27a2.3,2.3,0,0,0,.6-.27h.23v2.06Z" style="fill: #cf2f27" transform="translate(0 -0.01)"/>
    </g>
  </g>
  <g data-name="Layer 8" id="Layer_8">
    <circle cx="27.48" cy="3.9" data-name="circuitoCon A7" id="circuitoCon_A7" r="1.41" style="fill: none"/>
    <circle cx="34.7" cy="3.9" data-name="circuitoCon A6" id="circuitoCon_A6" r="1.41" style="fill: none"/>
    <circle cx="41.91" cy="3.9" data-name="circuitoCon GND" id="circuitoCon_GND" r="1.41" style="fill: none"/>
    <circle cx="49.13" cy="3.9" data-name="circuitoCon VCC" id="circuitoCon_VCC" r="1.41" style="fill: none"/>
    <circle cx="56.34" cy="3.9" data-name="circuitoCon SDO" id="circuitoCon_SDO" r="1.41" style="fill: none"/>
    <circle cx="63.56" cy="3.9" data-name="circuitoCon SCK" id="circuitoCon_SCK" r="1.41" style="fill: none"/>
    <circle cx="70.76" cy="3.9" data-name="circuitoCon RST" id="circuitoCon_RST" r="1.41" style="fill: none"/>
    <circle cx="77.98" cy="3.9" data-name="circuitoCon SDI" id="circuitoCon_SDI" r="1.41" style="fill: none"/>
    <circle cx="85.19" cy="3.9" data-name="circuitoCon CS" id="circuitoCon_CS" r="1.41" style="fill: none"/>
    <circle cx="92.41" cy="3.9" data-name="circuitoCon RX" id="circuitoCon_RX" r="1.41" style="fill: none"/>
  </g>
  <g data-name="Layer 4" id="Layer_4">
    <rect height="39.46" style="fill: #2a292f" width="117.41" y="13.93"/>
    <circle cx="16.56" cy="7.68" r="4.75" style="fill: none;stroke: #e8e5df;stroke-miterlimit: 10;stroke-width: 1.2239999771118164px"/>
    <circle cx="16.56" cy="58.14" r="4.75" style="fill: none;stroke: #e8e5df;stroke-miterlimit: 10;stroke-width: 1.2239999771118164px"/>
    <circle cx="103.57" cy="7.68" r="4.75" style="fill: none;stroke: #e8e5df;stroke-miterlimit: 10;stroke-width: 1.2239999771118164px"/>
    <circle cx="103.57" cy="58.14" r="4.75" style="fill: none;stroke: #e8e5df;stroke-miterlimit: 10;stroke-width: 1.2239999771118164px"/>
    <circle cx="38.13" cy="11.3" r="0.88" style="fill: #fff"/>
    <circle cx="24.56" cy="10.43" r="0.88" style="fill: #df150d;stroke: #fff;stroke-miterlimit: 10;stroke-width: 0.10000000149011612px"/>
    <circle cx="45.29" cy="11.3" r="0.88" style="fill: #fff"/>
    <circle cx="89.06" cy="11.27" r="0.88" style="fill: #fff"/>
    <circle cx="81.41" cy="12.3" r="0.88" style="fill: none;stroke: #e8e5df;stroke-miterlimit: 10"/>
    <polyline points="2.71 57.68 7.81 57.68 9.97 55.52 9.97 53.39 9.97 53.39" style="fill: none;stroke: #e8e5df;stroke-miterlimit: 10"/>
    <line style="fill: none;stroke: #e8e5df;stroke-miterlimit: 10" x1="11.21" x2="11.21" y1="55.68" y2="53.39"/>
    <line style="fill: none;stroke: #e8e5df;stroke-miterlimit: 10;stroke-width: 0.5px" x1="11.21" x2="11.21" y1="59.76" y2="62.89"/>
    <line style="fill: none;stroke: #e8e5df;stroke-miterlimit: 10;stroke-width: 0.5px" x1="9.5" x2="12.79" y1="61.32" y2="61.32"/>
    <circle cx="23.81" cy="47.68" r="1.75" style="fill: #e8e5df"/>
    <circle cx="53.38" cy="47.93" r="1.75" style="fill: #e8e5df"/>
    <circle cx="57.38" cy="41.18" r="1.75" style="fill: #e8e5df"/>
    <circle cx="59.94" cy="27.8" r="1.75" style="fill: #e8e5df"/>
    <circle cx="90.81" cy="21.24" r="1.75" style="fill: #e8e5df"/>
    <circle cx="83.16" cy="48.24" r="1.75" style="fill: #e8e5df"/>
    <circle cx="112.49" cy="48.55" r="1.75" style="fill: #e8e5df"/>
  </g>
  <g data-name="Layer 5" id="Layer_5">
    <g>
      <path d="M25.31,11.33a.16.16,0,0,1-.17-.17c0-.11.09-.15.17-.18l2.3-.66a.17.17,0,0,1,.17.16.21.21,0,0,1-.17.18l-.41.13v.72l.41.13a.2.2,0,0,1,.17.18c0,.1-.09.19-.17.16Zm.63-.18h0l.92.27v-.53Z" style="fill: #fff" transform="translate(0 -0.01)"/>
      <path d="M25.48,9.21a.17.17,0,0,1,.17.17.18.18,0,0,1-.17.17h-.17a.17.17,0,0,1-.17-.17h0V7.86h1c.12,0,.13,0,.21.09l.41.48c.08.09.08.1.2.1h.66a.17.17,0,0,1,.17.17.18.18,0,0,1-.17.17H26.8a.2.2,0,0,1-.2-.09l-.4-.47c-.1-.11-.1-.11-.25-.11h-.47Z" style="fill: #fff" transform="translate(0 -0.01)"/>
    </g>
    <g>
      <path d="M32.91,11.33a.16.16,0,0,1-.17-.17c0-.11.09-.15.17-.18l2.3-.66a.17.17,0,0,1,.17.16.21.21,0,0,1-.17.18l-.41.12v.72l.41.13a.2.2,0,0,1,.17.18c0,.1-.09.19-.17.16Zm.63-.18h0l.92.27v-.53Z" style="fill: #fff" transform="translate(0 -0.01)"/>
      <path d="M34.18,9.21V8.07c0-.17.07-.2.23-.2h.76c.16,0,.21.07.21.22V9.32c0,.16-.06.22-.21.22H32.9c-.08,0-.17,0-.17-.15v-.2A.17.17,0,0,1,32.9,9a.16.16,0,0,1,.17.15v0Zm.34,0H35v-1h-.52Z" style="fill: #fff" transform="translate(0 -0.01)"/>
    </g>
    <g>
      <path d="M41.89,12.48a.18.18,0,0,1-.17.17.17.17,0,0,1-.17-.17h0v-.7h.67a.51.51,0,0,1,.53.49v.64a.52.52,0,0,1-.14.39.49.49,0,0,1-.42.16h-.85a.69.69,0,0,1-.5-.18l-.51-.4a.52.52,0,0,1-.23-.48V12a.16.16,0,0,1,.17-.17.17.17,0,0,1,.17.17v.41c0,.19,0,.17.14.29l.47.37a.62.62,0,0,0,.44.11h.67c.19,0,.25,0,.25-.23v-.55c0-.12,0-.22-.18-.22h-.35Z" style="fill: #fff" transform="translate(0 -0.01)"/>
      <path d="M40.28,10a.17.17,0,0,1-.17-.17.16.16,0,0,1,.17-.17h2.48v.45l-2,.89h1.87a.17.17,0,0,1,.17.17.18.18,0,0,1-.17.17H40.11v-.45L42.18,10Z" style="fill: #fff" transform="translate(0 -0.01)"/>
      <path d="M40.45,8.78v.13c0,.11,0,.21-.17.21s-.17-.09-.17-.2V8.31a.5.5,0,0,1,.34-.53l.6-.3a.81.81,0,0,1,.77,0l.62.31a.52.52,0,0,1,.32.54v.56a.18.18,0,0,1-.17.17.17.17,0,0,1-.17-.17V8.78Zm2-.34V8.33c0-.14,0-.18-.14-.24l-.64-.31a.41.41,0,0,0-.22,0,.54.54,0,0,0-.28.08l-.58.28c-.15.07-.14.1-.14.26h0Z" style="fill: #fff" transform="translate(0 -0.01)"/>
    </g>
    <g>
      <path d="M48.2,12.15h-.54a.17.17,0,0,1-.17-.17.16.16,0,0,1,.17-.17h.67l1.67.67c.09,0,.15.06.15.17s-.08.13-.15.13l-1.66.65h-.67a.17.17,0,0,1-.17-.17.16.16,0,0,1,.17-.17h.54l1.3-.5Z" style="fill: #fff" transform="translate(0 -0.01)"/>
      <path d="M50.13,10.13a.53.53,0,0,1-.32.51l-.63.31a.77.77,0,0,1-.36.09.7.7,0,0,1-.38-.1l-.63-.31a.5.5,0,0,1-.33-.52V9.53a.15.15,0,0,1,.15-.17h0a.16.16,0,0,1,.17.15v.59c0,.15,0,.17.14.23l.59.3a.59.59,0,0,0,.26.07.48.48,0,0,0,.23-.07l.59-.29c.14-.07.15-.1.15-.26V9.53a.15.15,0,0,1,.13-.18.14.14,0,0,1,.09,0,.16.16,0,0,1,.17.15v0Z" style="fill: #fff" transform="translate(0 -0.01)"/>
      <path d="M50.13,7.68a.53.53,0,0,1-.32.51l-.63.31a.77.77,0,0,1-.36.09.7.7,0,0,1-.38-.1l-.63-.31a.5.5,0,0,1-.33-.52V7.09a.15.15,0,0,1,.15-.17h0a.16.16,0,0,1,.17.15v.59c0,.15,0,.17.14.23l.59.3a.59.59,0,0,0,.26.07A.48.48,0,0,0,49,8.19l.59-.29c.14-.07.15-.1.15-.26V7.09a.15.15,0,0,1,.13-.18.14.14,0,0,1,.09,0,.16.16,0,0,1,.17.15v0Z" style="fill: #fff" transform="translate(0 -0.01)"/>
    </g>
    <g>
      <path d="M56.71,11.65a.4.4,0,0,1,.28-.12.38.38,0,0,1,.38.38v.8a.6.6,0,0,1-.11.34.45.45,0,0,1-.32.16.18.18,0,0,1-.2-.16v0a.16.16,0,0,1,.16-.16h0c.1,0,.12,0,.12-.15v-.85s-.08,0-.1.06l-1.5,1.17a.43.43,0,0,1-.28.11.39.39,0,0,1-.33-.18.4.4,0,0,1-.06-.28V12a.47.47,0,0,1,.11-.34.43.43,0,0,1,.32-.16.16.16,0,0,1,.19.14s0,0,0,0a.16.16,0,0,1-.14.16h0c-.12,0-.13.06-.13.16v.87s.07,0,.09-.05Z" style="fill: #fff" transform="translate(0 -0.01)"/>
      <path d="M55.07,10.56v.13c0,.11,0,.21-.17.21s-.17-.09-.17-.2v-.57a.49.49,0,0,1,.34-.51l.6-.3a.81.81,0,0,1,.77,0l.62.31a.52.52,0,0,1,.32.54v.56a.18.18,0,0,1-.17.17.17.17,0,0,1-.17-.17v-.16Zm2-.34v-.06c0-.14,0-.18-.14-.24l-.61-.3a.46.46,0,0,0-.22-.06.54.54,0,0,0-.28.08l-.58.28c-.15.07-.14.1-.14.26h0Z" style="fill: #fff" transform="translate(0 -0.01)"/>
      <path d="M55.69,7.06A.79.79,0,0,1,56.07,7a.83.83,0,0,1,.4.11l.63.31a.46.46,0,0,1,.24.59.51.51,0,0,1-.24.24l-.63.31a.83.83,0,0,1-.4.11.79.79,0,0,1-.38-.09L55,8.22a.44.44,0,0,1-.25-.57A.39.39,0,0,1,55,7.4Zm-.51.64s-.1,0-.1.12,0,.09.1.12l.62.31a.54.54,0,0,0,.28.08.46.46,0,0,0,.22-.06L57,7.94a.26.26,0,0,0,0-.16c0-.1,0-.09-.1-.12l-.65-.33A.46.46,0,0,0,56,7.27a.54.54,0,0,0-.28.08Z" style="fill: #fff" transform="translate(0 -0.01)"/>
    </g>
    <g>
      <path d="M63.9,11.53a.4.4,0,0,1,.28-.12.39.39,0,0,1,.38.38v.8a.6.6,0,0,1-.11.34.45.45,0,0,1-.32.16.18.18,0,0,1-.21-.15s0,0,0,0a.15.15,0,0,1,.15-.16h0c.1,0,.12-.05.12-.15v-.85s-.08,0-.1.06L62.61,13a.43.43,0,0,1-.28.11.39.39,0,0,1-.33-.18.4.4,0,0,1-.06-.28v-.72a.47.47,0,0,1,.11-.34.43.43,0,0,1,.32-.16.16.16,0,0,1,.19.14s0,0,0,0a.16.16,0,0,1-.14.16h0c-.12,0-.13.06-.13.16v.84s.07,0,.09-.05Z" style="fill: #fff" transform="translate(0 -0.01)"/>
      <path d="M64.57,9.72a.53.53,0,0,1-.32.51l-.63.31a.8.8,0,0,1-.36.09.7.7,0,0,1-.38-.1l-.63-.31a.5.5,0,0,1-.33-.52V9.13A.15.15,0,0,1,62.06,9h0a.16.16,0,0,1,.17.15V9.7c0,.15,0,.17.14.23l.59.3a.53.53,0,0,0,.26.07.48.48,0,0,0,.23-.07l.59-.29c.14-.07.15-.1.15-.26V9.13A.15.15,0,0,1,64.36,9h0a.16.16,0,0,1,.17.15v.61Z" style="fill: #fff" transform="translate(0 -0.01)"/>
      <path d="M62.09,8.19A.17.17,0,0,1,61.92,8a.16.16,0,0,1,.17-.17h.78L62,6.78a.21.21,0,0,1-.07-.14.16.16,0,0,1,.17-.16h0a.19.19,0,0,1,.14.08l1,1.17,1-1.17a.18.18,0,0,1,.15-.08.17.17,0,0,1,.18.16h0c0,.07-.06.13-.1.18l-.85,1h.79a.17.17,0,0,1,.17.17.18.18,0,0,1-.17.17Z" style="fill: #fff" transform="translate(0 -0.01)"/>
    </g>
    <g>
      <path d="M71.58,13.17c.11,0,.17,0,.17.13s-.06.13-.17.13H69.1v-.89a.46.46,0,0,1,.49-.42h.23a.43.43,0,0,1,.48.38v.28l1.1-.6a.45.45,0,0,1,.18-.07.14.14,0,0,1,.16.14h0c0,.05,0,.09-.09.12l-1.34.73v.06Zm-1.61,0v-.59c0-.07,0-.19-.14-.19h-.24c-.14,0-.15.11-.15.19v.59Z" style="fill: #fff" transform="translate(0 -0.01)"/>
      <path d="M71.08,10.09a.49.49,0,0,1,.28-.09.34.34,0,0,1,.38.3v.61a.32.32,0,0,1-.11.27.46.46,0,0,1-.32.13c-.11,0-.21,0-.21-.14s.08-.12.17-.12.12,0,.12-.12v-.67h-.1l-1.5.91a.45.45,0,0,1-.28.09.47.47,0,0,1-.33-.14.33.33,0,0,1-.06-.22v-.52a.35.35,0,0,1,.11-.26.49.49,0,0,1,.32-.12c.11,0,.2,0,.2.14s-.06.13-.16.13-.13,0-.13.13v.65h.09Z" style="fill: #fff" transform="translate(0 -0.01)"/>
      <path d="M69.44,8.78h.12c.11,0,.17,0,.17.13s-.06.13-.17.13H69.1V7.72h.46c.11,0,.17,0,.17.13s-.06.13-.17.13h-.12v.26h2.14c.11,0,.17,0,.17.13s-.06.13-.17.13H69.44Z" style="fill: #fff" transform="translate(0 -0.01)"/>
    </g>
    <g>
      <path d="M78.29,11.28a.49.49,0,0,1,.28-.09.34.34,0,0,1,.38.3v.61a.32.32,0,0,1-.11.27.46.46,0,0,1-.32.13c-.11,0-.2,0-.2-.14s.08-.12.17-.12.12,0,.12-.12v-.67h-.1l-1.5.91a.47.47,0,0,1-.61,0,.29.29,0,0,1-.06-.22v-.56a.35.35,0,0,1,.11-.26.49.49,0,0,1,.32-.12c.11,0,.2,0,.2.14s-.06.13-.16.13-.13,0-.13.13v.65h.09Z" style="fill: #fff" transform="translate(0 -0.01)"/>
      <path d="M76.65,10.16v.1a.17.17,0,0,1-.17.17.18.18,0,0,1-.17-.17V9.78c0-.21.11-.31.34-.4l.6-.23a1,1,0,0,1,.77,0l.62.24a.4.4,0,0,1,.32.42v.44c0,.07,0,.13-.17.13s-.17-.06-.17-.13v-.13Zm2-.27V9.84c0-.11,0-.14-.14-.19l-.61-.23a.54.54,0,0,0-.22-.05.72.72,0,0,0-.28.07l-.58.22c-.15.06-.14.08-.14.2h0Z" style="fill: #fff" transform="translate(0 -0.01)"/>
      <path d="M78.62,7.73V7.34c0-.07,0-.13.17-.13s.17.06.17.13v1c0,.07,0,.13-.17.13s-.17-.06-.17-.13V8h-2v.39c0,.07,0,.13-.17.13s-.17-.06-.17-.13v-1c0-.07,0-.13.17-.13s.17.06.17.13v.39Z" style="fill: #fff" transform="translate(0 -0.01)"/>
    </g>
    <g>
      <path d="M85.24,10.15a.44.44,0,0,1,.28-.12.4.4,0,0,1,.39.38.11.11,0,0,1,0,.05v.75a.48.48,0,0,1-.11.34.42.42,0,0,1-.32.16.19.19,0,0,1-.2-.16v0a.16.16,0,0,1,.16-.16h0c.1,0,.12,0,.12-.15v-.85s-.08,0-.1.06L84,11.6a.39.39,0,0,1-.28.11.4.4,0,0,1-.33-.18.46.46,0,0,1-.06-.28v-.72a.51.51,0,0,1,.11-.34.45.45,0,0,1,.32-.16.16.16,0,0,1,.2.14v0a.15.15,0,0,1-.14.16h0c-.12,0-.13.06-.13.16v.84s.07,0,.09,0Z" style="fill: #fff" transform="translate(0 -0.01)"/>
      <path d="M85.24,7.7a.44.44,0,0,1,.28-.12.4.4,0,0,1,.39.38.11.11,0,0,1,0,0v.77a.48.48,0,0,1-.11.34.42.42,0,0,1-.32.16.19.19,0,0,1-.2-.16v0a.16.16,0,0,1,.16-.16h0c.1,0,.12,0,.12-.15V7.93s-.08,0-.1.06L84,9.16a.39.39,0,0,1-.28.11.4.4,0,0,1-.33-.18.49.49,0,0,1-.09-.31v-.7a.53.53,0,0,1,.12-.3.45.45,0,0,1,.32-.16.16.16,0,0,1,.2.14v0a.15.15,0,0,1-.14.16h0c-.12,0-.13.06-.13.16V8.9s.07,0,.09-.05Z" style="fill: #fff" transform="translate(0 -0.01)"/>
    </g>
    <g>
      <path d="M93.15,11.53a.16.16,0,0,1,.17.17.17.17,0,0,1-.17.17H90.67V10.73a.52.52,0,0,1,.48-.54h.24a.5.5,0,0,1,.49.5s0,0,0,0V11l1.1-.77a.33.33,0,0,1,.18-.08.16.16,0,0,1,.16.16h0a.16.16,0,0,1-.09.15l-1.34.94v.08Zm-1.61,0v-.75c0-.1,0-.25-.14-.25h-.23c-.14,0-.15.14-.15.24v.76Z" style="fill: #fff" transform="translate(0 -0.01)"/>
      <path d="M92,8.78l-1,.6h-.12a.17.17,0,0,1-.16-.17c0-.11.09-.15.17-.2l.81-.48-.81-.48a.2.2,0,0,1-.17-.2.15.15,0,0,1,.12-.07.22.22,0,0,1,.16,0l1,.61,1-.61a.24.24,0,0,1,.12,0,.17.17,0,0,1,.16.17c0,.11-.08.15-.17.2l-.81.48.81.48a.19.19,0,0,1,.17.2.17.17,0,0,1-.16.17H93Z" style="fill: #fff" transform="translate(0 -0.01)"/>
    </g>
    <path d="M17.11,49.25H4a2.09,2.09,0,0,1-1.68-2.18l3.81-1.29H16.61Zm-14.57-3L5.16,34.85,6.23,34l2,2.62L6.34,44.89Zm9-24L9.66,30.49,6.44,33.1l-.67-.87L8.39,20.89Zm9.16,9.58L22,33.54l-2.1,1.75H8.55L7.21,33.54l2.15-1.76Zm1.54-10.47H11.82L8.63,20a3.81,3.81,0,0,1,2.69-2.18h13ZM22.81,34l.67.87L20.67,47.07A3.89,3.89,0,0,1,18,49.25l-.52-3.47,2.12-9.16ZM21,30.49l2.12-9.16,2.11-3.49A2.08,2.08,0,0,1,26.91,20L24.09,32.23,23,33.1Z" style="fill: #fff" transform="translate(0 -0.01)"/>
    <path d="M45.88,49.25H32.78a2.09,2.09,0,0,1-1.68-2.18l3.8-1.29H45.37Zm-14.57-3,2.62-11.35L35,34l2,2.62-1.9,8.29Zm9-24L38.4,30.49,35.2,33.1l-.67-.87,2.62-11.35Zm9.16,9.58,1.34,1.75-2.15,1.75H37.32L36,33.54l2.12-1.76ZM51,21.32H40.58L37.4,20a3.79,3.79,0,0,1,2.69-2.18h13ZM51.57,34l.67.87L49.43,47.07a3.86,3.86,0,0,1-2.69,2.18l-.49-3.47,2.12-9.16Zm-1.81-3.49,2.12-9.16L54,17.83A2.08,2.08,0,0,1,55.68,20L52.86,32.23l-1.07.87Z" style="fill: #fff" transform="translate(0 -0.01)"/>
    <path d="M75.46,49.25H62.38a2.09,2.09,0,0,1-1.68-2.18l3.79-1.29H75Zm-14.56-3,2.62-11.35L64.6,34l2,2.62L64.7,44.89Zm9-24L68,30.49,64.8,33.1l-.67-.87,2.61-11.35Zm9.16,9.58,1.34,1.75-2.15,1.75H66.9l-1.34-1.75,2.15-1.75Zm1.54-10.47H70.17L67,20a3.86,3.86,0,0,1,2.68-2.18h13ZM81.16,34l.67.87L79,47.07a3.82,3.82,0,0,1-2.69,2.18l-.47-3.47L78,36.6Zm-1.81-3.49,2.12-9.16,2.11-3.49A2.08,2.08,0,0,1,85.26,20L82.44,32.23l-1.07.87Z" style="fill: #fff" transform="translate(0 -0.01)"/>
    <path d="M105.27,50.25H92.18a2.11,2.11,0,0,1-1.68-2.18l3.79-1.29h10.47Zm-14.57-3,2.62-11.35L94.39,35l2,2.62-1.91,8.29Zm9-24-1.92,8.29-3.22,2.62-.67-.87,2.62-11.35Zm9.13,9.6,1.34,1.75L108,36.3H96.71l-1.34-1.75,2.15-1.77Zm1.54-10.47H100L96.79,21a3.81,3.81,0,0,1,2.69-2.18h13ZM111,35l.67.87-2.82,12.22a3.82,3.82,0,0,1-2.68,2.18l-.5-3.49,2.12-9.16Zm-1.81-3.49,2.12-9.16,2.11-3.49A2.08,2.08,0,0,1,115.09,21l-2.82,12.22-1.07.87Z" style="fill: #fff" transform="translate(0 -0.01)"/>
  </g>
  <g data-name="Layer 7" id="Layer_7">
    <path d="M100,4.6a4.06,4.06,0,0,0-.56,5.71,3.81,3.81,0,0,0,.77.73A4.72,4.72,0,0,1,100,4.6Z" style="fill: none" transform="translate(0 -0.01)"/>
    <path d="M32.89,3.63a1.51,1.51,0,0,1,0-.42,1.3,1.3,0,0,0-.27.76A1.34,1.34,0,0,0,34,5.31,1.84,1.84,0,0,1,32.89,3.63Z" style="fill: none" transform="translate(0 -0.01)"/>
    <path d="M54.47,3.93a1.77,1.77,0,0,1,.23-.87,1.28,1.28,0,0,0-.44,1,1.35,1.35,0,0,0,.83,1.24A1.82,1.82,0,0,1,54.47,3.93Z" style="fill: none" transform="translate(0 -0.01)"/>
    <path d="M40.08,3.78a1.73,1.73,0,0,1,.11-.6A1.3,1.3,0,0,0,40.35,5a1.42,1.42,0,0,0,.55.27A1.82,1.82,0,0,1,40.08,3.78Z" style="fill: none" transform="translate(0 -0.01)"/>
    <path d="M112.79,60.18a1.56,1.56,0,0,0-1.12,1.89,1.51,1.51,0,0,0,.72,1,1.81,1.81,0,0,1,0-2.57A1.91,1.91,0,0,1,112.79,60.18Z" style="fill: none" transform="translate(0 -0.01)"/>
    <path d="M47.28,3.78a1.71,1.71,0,0,1,.09-.55,1.3,1.3,0,0,0,.14,1.83,1.37,1.37,0,0,0,.67.3A1.81,1.81,0,0,1,47.28,3.78Z" style="fill: none" transform="translate(0 -0.01)"/>
    <path d="M76.18,3.65a2.32,2.32,0,0,1,.07-.46A1.37,1.37,0,0,0,76,4,1.35,1.35,0,0,0,77.23,5.3,1.84,1.84,0,0,1,76.18,3.65Z" style="fill: none" transform="translate(0 -0.01)"/>
    <path d="M90.73,3.67a1.9,1.9,0,0,1,.16-.75,1.35,1.35,0,0,0-.53,1,1.36,1.36,0,0,0,1.35,1.35h0A1.85,1.85,0,0,1,90.73,3.67Z" style="fill: none" transform="translate(0 -0.01)"/>
    <path d="M100.75,54.57A4.05,4.05,0,0,0,99.61,61,4.71,4.71,0,0,1,100.75,54.57Z" style="fill: none" transform="translate(0 -0.01)"/>
    <path d="M83.38,3.65a2.32,2.32,0,0,1,.07-.46,1.37,1.37,0,0,0-.28.78A1.35,1.35,0,0,0,84.43,5.3,1.84,1.84,0,0,1,83.38,3.65Z" style="fill: none" transform="translate(0 -0.01)"/>
    <path d="M69,3.65a2.32,2.32,0,0,1,.07-.46,1.37,1.37,0,0,0-.28.78A1.35,1.35,0,0,0,70,5.3,1.85,1.85,0,0,1,69,3.65Z" style="fill: none" transform="translate(0 -0.01)"/>
    <path d="M61.66,3.65a1.5,1.5,0,0,1,0-.3,1.21,1.21,0,0,0-.24.73,1.35,1.35,0,0,0,1.34,1.35H63A1.81,1.81,0,0,1,61.66,3.65Z" style="fill: none" transform="translate(0 -0.01)"/>
    <path d="M4.32,9.78A1.29,1.29,0,0,0,4,11.57a1.37,1.37,0,0,0,.34.34A1.82,1.82,0,0,1,4.32,9.78Z" style="fill: none" transform="translate(0 -0.01)"/>
    <path d="M25.49,4.26a1.34,1.34,0,0,0,.83,1A1.82,1.82,0,0,1,25.49,4.26Z" style="fill: none" transform="translate(0 -0.01)"/>
    <path d="M112.19,2.6a1.44,1.44,0,0,0-.12,2,1.35,1.35,0,0,0,.32.27A1.84,1.84,0,0,1,112.19,2.6Z" style="fill: none" transform="translate(0 -0.01)"/>
    <path d="M4.27,2.64a1.3,1.3,0,0,0-.22,1.82,1.22,1.22,0,0,0,.36.32,1.82,1.82,0,0,1-.14-2.15Z" style="fill: none" transform="translate(0 -0.01)"/>
    <path d="M111.88,54.53a1.82,1.82,0,0,1,.77-1.49,1.55,1.55,0,0,0-.15,2.85A1.81,1.81,0,0,1,111.88,54.53Z" style="fill: none" transform="translate(0 -0.01)"/>
    <path d="M13,4.6a4.06,4.06,0,0,0-.57,5.71,4.15,4.15,0,0,0,.78.73A4.71,4.71,0,0,1,13,4.6Z" style="fill: none" transform="translate(0 -0.01)"/>
    <path d="M112.31,9.7a1.45,1.45,0,0,0-.32,2,1.62,1.62,0,0,0,.32.32A1.8,1.8,0,0,1,112.31,9.7Z" style="fill: none" transform="translate(0 -0.01)"/>
    <path d="M13.74,54.57A4,4,0,0,0,11.93,60a3.77,3.77,0,0,0,.67,1A4.71,4.71,0,0,1,13.74,54.57Z" style="fill: none" transform="translate(0 -0.01)"/>
    <g>
      <path d="M109.05,13.13v-.65a.3.3,0,0,1,.1-.22.3.3,0,0,1,.24-.11.1.1,0,0,1,.09,0,.09.09,0,0,1,0,.08.12.12,0,0,1,0,.09.38.38,0,0,1-.11.05.09.09,0,0,0-.08.09v.62s0,.05,0,.05l0,0,1.19-.93a.27.27,0,0,1,.18-.07.3.3,0,0,1,.2.08.26.26,0,0,1,.09.18v.68a.31.31,0,0,1-.11.23.28.28,0,0,1-.22.1.12.12,0,0,1-.14-.13.11.11,0,0,1,0-.09.11.11,0,0,1,.08,0,.1.1,0,0,0,.1-.1v-.62a0,0,0,0,0,0,0h0l-1.18.93a.29.29,0,0,1-.47-.22Z" style="fill: #fff" transform="translate(0 -0.01)"/>
      <path d="M110.78,10.89v-.45a.12.12,0,0,1,.12-.13.11.11,0,0,1,.09,0,.13.13,0,0,1,0,.09v.46a.38.38,0,0,1-.06.19.32.32,0,0,1-.13.13l-.56.29a.53.53,0,0,1-.24.06.49.49,0,0,1-.25-.06l-.55-.29a.33.33,0,0,1-.13-.13.29.29,0,0,1-.06-.17v-.49a.12.12,0,0,1,.12-.13.14.14,0,0,1,.13.13v.47a.1.1,0,0,0,.07.1l.52.28a.32.32,0,0,0,.14,0,.29.29,0,0,0,.16,0l.51-.26A.14.14,0,0,0,110.78,10.89Z" style="fill: #fff" transform="translate(0 -0.01)"/>
      <path d="M111,9.73h-1.86a.11.11,0,0,1-.12-.12.12.12,0,0,1,.12-.13h1.61V8.6a.12.12,0,0,1,.12-.13.11.11,0,0,1,.09,0,.13.13,0,0,1,0,.09Z" style="fill: #fff" transform="translate(0 -0.01)"/>
    </g>
    <g>
      <path d="M109.05,5.88V5.23a.3.3,0,0,1,.1-.22.3.3,0,0,1,.24-.11.1.1,0,0,1,.09,0,.09.09,0,0,1,0,.08.12.12,0,0,1,0,.09.38.38,0,0,1-.11,0,.09.09,0,0,0-.08.09v.62s0,0,0,0l0,0L110.56,5a.27.27,0,0,1,.18-.07.3.3,0,0,1,.2.08.26.26,0,0,1,.09.18v.68a.31.31,0,0,1-.11.23.28.28,0,0,1-.22.1.12.12,0,0,1-.14-.13.11.11,0,0,1,0-.09.11.11,0,0,1,.08,0,.1.1,0,0,0,.1-.1V5.2a0,0,0,0,0,0,0h0l-1.18.93a.29.29,0,0,1-.47-.22Z" style="fill: #fff" transform="translate(0 -0.01)"/>
      <path d="M109.05,4.2V3.71a.33.33,0,0,1,.06-.19.4.4,0,0,1,.15-.14l.5-.24a.55.55,0,0,1,.28-.07.61.61,0,0,1,.28.07l.5.25a.4.4,0,0,1,.15.14.34.34,0,0,1,.06.2V4.2a.13.13,0,0,1,0,.09.12.12,0,0,1-.18,0,.13.13,0,0,1,0-.09V4.07H109.3V4.2a.1.1,0,0,1,0,.09.13.13,0,0,1-.09,0,.18.18,0,0,1-.09,0A.12.12,0,0,1,109.05,4.2Zm.25-.38h1.48V3.74a.14.14,0,0,0-.09-.13l-.49-.25a.37.37,0,0,0-.16,0,.45.45,0,0,0-.16,0l-.5.26a.14.14,0,0,0-.08.13Z" style="fill: #fff" transform="translate(0 -0.01)"/>
      <path d="M110.85,2.48,109.14,2a.12.12,0,0,1-.09-.13c0-.06,0-.1.08-.11l1.73-.5h0a.11.11,0,0,1,.09,0,.12.12,0,0,1,0,.08.12.12,0,0,1-.1.13l-.34.09v.58l.37.11a.05.05,0,0,1,0,0,.13.13,0,0,1,0,.07.18.18,0,0,1,0,.1.16.16,0,0,1-.09,0Zm-1.22-.63.71.21V1.64Z" style="fill: #fff" transform="translate(0 -0.01)"/>
    </g>
    <g>
      <path d="M8.64,13.32v-.65a.32.32,0,0,1,.1-.23A.34.34,0,0,1,9,12.33a.18.18,0,0,1,.1,0,.16.16,0,0,1,0,.09s0,.07,0,.08a.19.19,0,0,1-.1.05.09.09,0,0,0-.08.1v.62s0,0,0,0l0,0,1.18-.93a.34.34,0,0,1,.19-.07.25.25,0,0,1,.19.09.23.23,0,0,1,.09.18v.67a.33.33,0,0,1-.1.23.32.32,0,0,1-.23.1c-.09,0-.14,0-.14-.13a.12.12,0,0,1,0-.08.1.1,0,0,1,.09,0l.06,0a.09.09,0,0,0,0-.07v-.62s0,0,0,0l0,0-1.19.93a.3.3,0,0,1-.18.06.24.24,0,0,1-.2-.08A.27.27,0,0,1,8.64,13.32Z" style="fill: #fff" transform="translate(0 -0.01)"/>
      <path d="M10.37,11.07v-.45a.12.12,0,0,1,0-.09.12.12,0,0,1,.08,0,.13.13,0,0,1,.09,0,.12.12,0,0,1,0,.09v.47a.32.32,0,0,1-.06.18.43.43,0,0,1-.12.14l-.56.28a.57.57,0,0,1-.25.06.6.6,0,0,1-.24-.05l-.55-.29a.44.44,0,0,1-.14-.13.32.32,0,0,1-.06-.17v-.5a.12.12,0,0,1,.13-.12l.09,0a.16.16,0,0,1,0,.09v.48s0,.07.07.1l.52.27a.33.33,0,0,0,.15,0,.37.37,0,0,0,.15,0l.51-.27A.12.12,0,0,0,10.37,11.07Z" style="fill: #fff" transform="translate(0 -0.01)"/>
      <path d="M10.62,9.92H8.77a.13.13,0,0,1-.09,0,.1.1,0,0,1,0-.09.12.12,0,0,1,.13-.12h1.6V8.78a.12.12,0,0,1,0-.09.12.12,0,0,1,.08,0,.13.13,0,0,1,.09,0,.12.12,0,0,1,0,.09Z" style="fill: #fff" transform="translate(0 -0.01)"/>
    </g>
    <g>
      <path d="M8.64,6.07V5.42a.32.32,0,0,1,.1-.23A.34.34,0,0,1,9,5.08a.18.18,0,0,1,.1,0,.16.16,0,0,1,0,.09s0,.07,0,.08a.19.19,0,0,1-.1,0,.09.09,0,0,0-.08.1v.62s0,0,0,0l0,0,1.18-.93a.34.34,0,0,1,.19-.07.25.25,0,0,1,.19.09.23.23,0,0,1,.09.18V6a.29.29,0,0,1-.1.23.32.32,0,0,1-.23.1c-.09,0-.14,0-.14-.13a.12.12,0,0,1,0-.08.1.1,0,0,1,.09,0,.09.09,0,0,0,.06,0,.09.09,0,0,0,0-.07V5.38s0,0,0,0l0,0-1.19.93a.3.3,0,0,1-.18.06.24.24,0,0,1-.2-.08A.27.27,0,0,1,8.64,6.07Z" style="fill: #fff" transform="translate(0 -0.01)"/>
      <path d="M8.64,4.39v-.5A.38.38,0,0,1,8.7,3.7a.37.37,0,0,1,.15-.13l.5-.25a.72.72,0,0,1,.28-.07.63.63,0,0,1,.29.08l.49.25a.37.37,0,0,1,.15.13.36.36,0,0,1,.06.2v.48a.12.12,0,0,1-.13.12l-.09,0a.16.16,0,0,1,0-.09V4.26H8.89v.13a.16.16,0,0,1,0,.09l-.09,0a.12.12,0,0,1-.13-.12ZM8.89,4h1.48V3.92a.13.13,0,0,0-.08-.12L9.8,3.55a.45.45,0,0,0-.17,0,.28.28,0,0,0-.15,0L9,3.8a.13.13,0,0,0-.08.13Z" style="fill: #fff" transform="translate(0 -0.01)"/>
      <path d="M10.45,2.66l-1.72-.5A.13.13,0,0,1,8.64,2a.12.12,0,0,1,.08-.12l1.74-.5h0a.12.12,0,0,1,.09,0,.11.11,0,0,1,0,.09.12.12,0,0,1-.09.12l-.34.1v.57l.36.11s0,0,0,0a.14.14,0,0,1,0,.07.14.14,0,0,1-.13.13ZM9.22,2l.72.22V1.82Z" style="fill: #fff" transform="translate(0 -0.01)"/>
    </g>
  </g>
  <g id="Connectors">
    <ellipse cx="63.5" cy="3.9" data-name="circuitoCon_SCK" id="circuitoCon_SCK-2" rx="2.05" ry="1.99" style="fill: none;stroke: #e8e5df;stroke-miterlimit: 10;stroke-width: 1.2239999771118164px"/>
    <ellipse cx="56.31" cy="3.9" data-name="circuitoCon_SDO" id="circuitoCon_SDO-2" rx="2.05" ry="1.99" style="fill: none;stroke: #e8e5df;stroke-miterlimit: 10;stroke-width: 1.2239999771118164px"/>
    <ellipse cx="49.11" cy="3.9" data-name="circuitoCon_VCC" id="circuitoCon_VCC-2" rx="2.05" ry="1.99" style="fill: none;stroke: #e8e5df;stroke-miterlimit: 10;stroke-width: 1.2239999771118164px"/>
    <ellipse cx="34.73" cy="3.9" data-name="circuitoCon_A6" id="circuitoCon_A6-2" rx="2.05" ry="1.99" style="fill: none;stroke: #e8e5df;stroke-miterlimit: 10;stroke-width: 1.2239999771118164px"/>
    <ellipse cx="27.48" cy="3.9" data-name="circuitoCon_A7" id="circuitoCon_A7-2" rx="2.05" ry="1.99" style="fill: none;stroke: #e8e5df;stroke-miterlimit: 10;stroke-width: 1.2239999771118164px"/>
    <ellipse cx="41.92" cy="3.9" data-name="circuitoCon_GND" id="circuitoCon_GND-2" rx="2.05" ry="1.99" style="fill: none;stroke: #e8e5df;stroke-miterlimit: 10;stroke-width: 1.2239999771118164px"/>
    <ellipse cx="92.41" cy="3.92" data-name="circuitoCon_RX" id="circuitoCon_RX-2" rx="2.05" ry="1.99" style="fill: none;stroke: #e8e5df;stroke-miterlimit: 10;stroke-width: 1.2239999771118164px"/>
    <ellipse cx="85.21" cy="3.92" id="circuitoCon_SS" rx="2.05" ry="1.99" style="fill: none;stroke: #e8e5df;stroke-miterlimit: 10;stroke-width: 1.2239999771118164px"/>
    <ellipse cx="78.02" cy="3.92" data-name="circuitoCon_SDI" id="circuitoCon_SDI-2" rx="2.05" ry="1.99" style="fill: none;stroke: #e8e5df;stroke-miterlimit: 10;stroke-width: 1.2239999771118164px"/>
    <ellipse cx="70.83" cy="3.92" data-name="circuitoCon_RST" id="circuitoCon_RST-2" rx="2.05" ry="1.99" style="fill: none;stroke: #e8e5df;stroke-miterlimit: 10;stroke-width: 1.2239999771118164px"/>
    <ellipse cx="5.82" cy="61.62" id="connector29pin-3" rx="1.99" ry="2.05" style="fill: none;stroke: #e8e5df;stroke-miterlimit: 10;stroke-width: 1.2239999771118164px"/>
    <ellipse cx="5.82" cy="54.42" id="connector30pin-3" rx="1.99" ry="2.05" style="fill: none;stroke: #e8e5df;stroke-miterlimit: 10;stroke-width: 1.2239999771118164px"/>
    <ellipse cx="5.82" cy="10.79" id="connector29pin-4" rx="1.99" ry="2.05" style="fill: none;stroke: #e8e5df;stroke-miterlimit: 10;stroke-width: 1.2239999771118164px"/>
    <ellipse cx="5.82" cy="3.6" id="connector30pin-4" rx="1.99" ry="2.05" style="fill: none;stroke: #e8e5df;stroke-miterlimit: 10;stroke-width: 1.2239999771118164px"/>
    <ellipse cx="113.87" cy="10.79" data-cir-type="female" id="circuitoCon_SCL" rx="1.99" ry="2.05" style="fill: none;stroke: #e8e5df;stroke-miterlimit: 10;stroke-width: 1.2239999771118164px"/>
    <ellipse cx="113.87" cy="3.6" data-cir-type="female" id="circuitoCon_SDA" rx="1.99" ry="2.05" style="fill: none;stroke: #e8e5df;stroke-miterlimit: 10;stroke-width: 1.2239999771118164px"/>
    <ellipse cx="113.87" cy="61.62" id="connector29pin-6" rx="1.99" ry="2.05" style="fill: none;stroke: #e8e5df;stroke-miterlimit: 10;stroke-width: 1.2239999771118164px"/>
    <ellipse cx="113.87" cy="54.42" id="connector30pin-6" rx="1.99" ry="2.05" style="fill: none;stroke: #e8e5df;stroke-miterlimit: 10;stroke-width: 1.2239999771118164px"/>
  </g>
</svg>