<?xml version="1.0" ?><svg height="63.65mm" viewBox="0 0 113.17 225.55" width="31.94mm" xmlns="http://www.w3.org/2000/svg" xmlns:xlink="http://www.w3.org/1999/xlink">
  <defs>
    <radialGradient cx="-645.9" cy="-132.02" gradientTransform="translate(-300.55 -534.55) rotate(-135)" gradientUnits="userSpaceOnUse" id="radial-gradient" r="7.11">
      <stop offset="0" stop-color="#fff"/>
      <stop offset="0.21" stop-color="#eaeced"/>
      <stop offset="0.22" stop-color="#e8eaeb"/>
      <stop offset="0.47" stop-color="#bfc7d0"/>
      <stop offset="0.66" stop-color="#a6b2be"/>
      <stop offset="0.78" stop-color="#9daab8"/>
      <stop offset="0.83" stop-color="#a3b0bd"/>
      <stop offset="0.9" stop-color="#b6c1c9"/>
      <stop offset="0.96" stop-color="#cad5d8"/>
      <stop offset="1" stop-color="#d5e0e4"/>
    </radialGradient>
    <radialGradient cx="-645.91" cy="-132.39" gradientTransform="translate(-300.55 -534.55) rotate(-135)" gradientUnits="userSpaceOnUse" id="radial-gradient-2" r="6.43">
      <stop offset="0" stop-color="#fff"/>
      <stop offset="0.58" stop-color="#a3a9ae"/>
      <stop offset="1" stop-color="#606973"/>
    </radialGradient>
    <linearGradient gradientTransform="translate(-300.55 -533.41) rotate(-135)" gradientUnits="userSpaceOnUse" id="linear-gradient" x1="-645.93" x2="-645.93" y1="-132.41" y2="-126.72">
      <stop offset="0" stop-color="#fff"/>
      <stop offset="1" stop-color="#c9cdd1"/>
    </linearGradient>
    <linearGradient id="linear-gradient-2" x1="-645.93" x2="-645.93" xlink:href="#linear-gradient" y1="-130.74" y2="-130.03"/>
    <radialGradient cx="-645.85" cy="-128.69" gradientTransform="translate(-300.55 -533.41) rotate(-135)" gradientUnits="userSpaceOnUse" id="radial-gradient-3" r="3.09">
      <stop offset="0" stop-color="#838a92"/>
      <stop offset="0.32" stop-color="#7c838c"/>
      <stop offset="0.8" stop-color="#686f7a"/>
      <stop offset="1" stop-color="#5e6570"/>
    </radialGradient>
    <radialGradient cx="-655.83" cy="-121.88" id="radial-gradient-4" r="7.11" xlink:href="#radial-gradient"/>
    <radialGradient cx="-655.84" cy="-122.25" id="radial-gradient-5" r="6.43" xlink:href="#radial-gradient-2"/>
    <linearGradient id="linear-gradient-3" x1="-655.86" x2="-655.86" xlink:href="#linear-gradient" y1="-122.27" y2="-116.58"/>
    <linearGradient id="linear-gradient-4" x1="-655.86" x2="-655.86" xlink:href="#linear-gradient" y1="-120.6" y2="-119.89"/>
    <radialGradient cx="-655.78" cy="-118.55" id="radial-gradient-6" r="3.09" xlink:href="#radial-gradient-3"/>
    <radialGradient cx="-626.2" cy="-151.73" id="radial-gradient-7" r="7.11" xlink:href="#radial-gradient"/>
    <radialGradient cx="-626.21" cy="-152.1" id="radial-gradient-8" r="6.43" xlink:href="#radial-gradient-2"/>
    <linearGradient id="linear-gradient-5" x1="-626.23" x2="-626.23" xlink:href="#linear-gradient" y1="-152.12" y2="-146.43"/>
    <linearGradient id="linear-gradient-6" x1="-626.23" x2="-626.23" xlink:href="#linear-gradient" y1="-150.45" y2="-149.74"/>
    <radialGradient cx="-626.15" cy="-148.4" id="radial-gradient-9" r="3.09" xlink:href="#radial-gradient-3"/>
    <radialGradient cx="-636.13" cy="-141.59" id="radial-gradient-10" r="7.11" xlink:href="#radial-gradient"/>
    <radialGradient cx="-636.14" cy="-141.96" id="radial-gradient-11" r="6.43" xlink:href="#radial-gradient-2"/>
    <linearGradient id="linear-gradient-7" x1="-636.16" x2="-636.16" xlink:href="#linear-gradient" y1="-141.99" y2="-136.29"/>
    <linearGradient id="linear-gradient-8" x1="-636.16" x2="-636.16" xlink:href="#linear-gradient" y1="-140.31" y2="-139.6"/>
    <radialGradient cx="-636.08" cy="-138.27" id="radial-gradient-12" r="3.09" xlink:href="#radial-gradient-3"/>
    <linearGradient gradientTransform="matrix(1, 0, 0, -1, 160.71, 147.71)" gradientUnits="userSpaceOnUse" id="linear-gradient-9" x1="-98.22" x2="-98.22" y1="-61.6" y2="-69.04">
      <stop offset="0" stop-color="#999"/>
      <stop offset="1" stop-color="#f2f2f2"/>
    </linearGradient>
    <linearGradient gradientTransform="matrix(1, 0, 0, -1, 146.78, 147.71)" id="linear-gradient-10" x1="-91.26" x2="-91.26" xlink:href="#linear-gradient-9" y1="-61.6" y2="-69.04"/>
    <linearGradient gradientTransform="matrix(1, 0, 0, -1, 132.84, 147.71)" id="linear-gradient-11" x1="-84.29" x2="-84.29" xlink:href="#linear-gradient-9" y1="-61.6" y2="-69.04"/>
  </defs>
  <title>Gravity Digital 5A Relay Module</title>
  <g style="isolation: isolate">
    <g id="Background">
      <g data-name="ROUND CIRCLE" id="ROUND_CIRCLE">
        <path d="M113.17,119.65V10.52A3.07,3.07,0,0,1,111.35,5a9.31,9.31,0,0,0-7.52-3.81H9.33A9.32,9.32,0,0,0,1.82,5,3.06,3.06,0,0,1,3.08,7.44,3.08,3.08,0,0,1,0,10.53V120.82a3.08,3.08,0,0,1,2.42,3,3.06,3.06,0,0,1-1.07,2.32,9.3,9.3,0,0,0,8,4.53h93.23a3.06,3.06,0,0,1,5.38-1,9.44,9.44,0,0,0,4.18-4.09,3.07,3.07,0,0,1,1-6ZM13.93,124a6.81,6.81,0,1,1,6.8-6.8A6.81,6.81,0,0,1,13.93,124Zm0-103.23a6.81,6.81,0,1,1,6.8-6.81A6.81,6.81,0,0,1,13.93,20.74ZM99.93,124a6.81,6.81,0,1,1,6.8-6.8A6.81,6.81,0,0,1,99.93,124Zm0-103.23a6.81,6.81,0,1,1,6.8-6.81A6.81,6.81,0,0,1,99.93,20.74Z" transform="translate(0 -1.15)"/>
        <circle cx="13" cy="32.77" r="4.55" style="fill: #4a4d41"/>
        <path d="M99.93,3.27a10.81,10.81,0,1,0,10.81,10.81A10.82,10.82,0,0,0,99.93,3.27Zm7.62,6.09a1.16,1.16,0,1,1-1.15,1.16A1.16,1.16,0,0,1,107.55,9.36Zm-4-4.5A1.16,1.16,0,1,1,102.4,6,1.16,1.16,0,0,1,103.55,4.86Zm-7.37,0A1.16,1.16,0,1,1,95,6,1.15,1.15,0,0,1,96.18,4.86ZM91.74,18.63a1.16,1.16,0,1,1,1.16-1.16A1.16,1.16,0,0,1,91.74,18.63Zm0-6.95a1.16,1.16,0,1,1,1.16-1.16A1.16,1.16,0,0,1,91.74,11.68Zm4.44,11.37a1.16,1.16,0,1,1,1.15-1.15A1.16,1.16,0,0,1,96.18,23.05Zm7.37,0a1.16,1.16,0,1,1,1.16-1.15A1.15,1.15,0,0,1,103.55,23.05Zm-3.62-3.4a5.57,5.57,0,1,1,5.56-5.57A5.57,5.57,0,0,1,99.93,19.65Zm7.62-1a1.16,1.16,0,1,1,1.16-1.16A1.15,1.15,0,0,1,107.55,18.63Z" style="fill: #ecd190" transform="translate(0 -1.15)"/>
        <path d="M13.93,3.27A10.81,10.81,0,1,0,24.74,14.08,10.82,10.82,0,0,0,13.93,3.27Zm7.62,6.09a1.16,1.16,0,1,1-1.15,1.16A1.16,1.16,0,0,1,21.55,9.36Zm-4-4.5A1.16,1.16,0,1,1,16.4,6,1.16,1.16,0,0,1,17.55,4.86Zm-7.37,0A1.16,1.16,0,1,1,9,6,1.15,1.15,0,0,1,10.18,4.86ZM5.74,18.63A1.16,1.16,0,1,1,6.9,17.47,1.16,1.16,0,0,1,5.74,18.63Zm0-6.95A1.16,1.16,0,1,1,6.9,10.52,1.16,1.16,0,0,1,5.74,11.68Zm4.44,11.37a1.16,1.16,0,1,1,1.15-1.15A1.16,1.16,0,0,1,10.18,23.05Zm7.37,0a1.16,1.16,0,1,1,1.16-1.15A1.15,1.15,0,0,1,17.55,23.05Zm-3.62-3.4a5.57,5.57,0,1,1,5.56-5.57A5.57,5.57,0,0,1,13.93,19.65Zm7.62-1a1.16,1.16,0,1,1,1.16-1.16A1.15,1.15,0,0,1,21.55,18.63Z" style="fill: #ecd190" transform="translate(0 -1.15)"/>
        <path d="M99.93,106.35a10.82,10.82,0,1,0,10.81,10.82A10.82,10.82,0,0,0,99.93,106.35Zm7.62,6.1a1.16,1.16,0,1,1-1.15,1.16A1.16,1.16,0,0,1,107.55,112.45Zm-4-4.5a1.16,1.16,0,1,1-1.15,1.16A1.16,1.16,0,0,1,103.55,108Zm-7.37,0A1.16,1.16,0,1,1,95,109.11,1.15,1.15,0,0,1,96.18,108Zm-4.44,13.77a1.16,1.16,0,1,1,1.16-1.16A1.16,1.16,0,0,1,91.74,121.72Zm0-7a1.16,1.16,0,1,1,1.16-1.15A1.16,1.16,0,0,1,91.74,114.76Zm4.44,11.38A1.16,1.16,0,1,1,97.33,125,1.16,1.16,0,0,1,96.18,126.14Zm7.37,0a1.16,1.16,0,1,1,1.16-1.16A1.15,1.15,0,0,1,103.55,126.14Zm-3.62-3.41a5.57,5.57,0,1,1,5.56-5.56A5.56,5.56,0,0,1,99.93,122.73Zm7.62-1a1.16,1.16,0,1,1,1.16-1.16A1.15,1.15,0,0,1,107.55,121.72Z" style="fill: #ecd190" transform="translate(0 -1.15)"/>
        <path d="M13.93,106.35a10.82,10.82,0,1,0,10.81,10.82A10.82,10.82,0,0,0,13.93,106.35Zm7.62,6.1a1.16,1.16,0,1,1-1.15,1.16A1.16,1.16,0,0,1,21.55,112.45Zm-4-4.5a1.16,1.16,0,1,1-1.15,1.16A1.16,1.16,0,0,1,17.55,108Zm-7.37,0A1.16,1.16,0,1,1,9,109.11,1.15,1.15,0,0,1,10.18,108ZM5.74,121.72a1.16,1.16,0,1,1,1.16-1.16A1.16,1.16,0,0,1,5.74,121.72Zm0-7a1.16,1.16,0,1,1,1.16-1.15A1.16,1.16,0,0,1,5.74,114.76Zm4.44,11.38A1.16,1.16,0,1,1,11.33,125,1.16,1.16,0,0,1,10.18,126.14Zm7.37,0A1.16,1.16,0,1,1,18.71,125,1.15,1.15,0,0,1,17.55,126.14Zm-3.62-3.41a5.57,5.57,0,1,1,5.56-5.56A5.56,5.56,0,0,1,13.93,122.73Zm7.62-1a1.16,1.16,0,1,1,1.16-1.16A1.15,1.15,0,0,1,21.55,121.72Z" style="fill: #ecd190" transform="translate(0 -1.15)"/>
        <circle cx="13" cy="32.77" r="2.13" style="fill: #ecd190"/>
      </g>
    </g>
    <g id="CONECTORS">
      <g>
        <rect height="5.59" style="fill: #8ed09b" width="5.59" x="29.99" y="24.53"/>
        <rect height="5.59" style="fill: #8ed09b" width="4.51" x="79.47" y="24.53"/>
        <rect height="5.59" style="fill: #8ed09b" width="9.01" x="39.29" y="24.53"/>
        <rect height="5.59" style="fill: #8ed09b" width="9.01" x="52.91" y="24.53"/>
        <rect height="5.59" style="fill: #8ed09b" width="9.01" x="66.45" y="24.53"/>
      </g>
      <rect height="8.03" style="fill: #b5b9bb" width="5.33" x="38.42" y="120.57"/>
      <rect height="8.03" style="fill: #b5b9bb" width="5.33" x="68" y="120.57"/>
      <g>
        <rect height="10.37" style="fill: #b5b9bb" width="4.08" x="47.83" y="96.44"/>
        <rect height="10.37" style="fill: #b5b9bb" width="4.08" x="54.72" y="96.44"/>
        <rect height="10.37" style="fill: #b5b9bb" width="4.08" x="61.61" y="96.44"/>
      </g>
      <polygon points="70.07 100.4 70.07 106.27 41.76 106.27 41.76 100.4 37.94 100.4 37.94 106.27 37.94 106.79 37.94 124.34 41.76 124.34 41.76 127.34 71 127.34 71 124.34 73.88 124.34 73.88 106.79 73.88 106.27 73.88 100.4 70.07 100.4" style="fill: #f4e4ce"/>
      <rect height="53.75" style="fill: #34373e" width="66.41" x="22.71" y="29.1"/>
      <path d="M22.71,30.25v46.2A3.44,3.44,0,0,1,26.16,73h3.5a3.44,3.44,0,0,1,3.45,3.45v4.1A3.45,3.45,0,0,1,29.66,84H89.11V30.25Z" style="fill: #2d3037" transform="translate(0 -1.15)"/>
      <circle cx="27.83" cy="77.54" r="2.16" style="fill: #777a81"/>
      <g>
        <rect height="14.28" style="fill: #6c5832" width="3.67" x="44.91" y="106.29"/>
        <rect height="6.44" style="fill: #c3aa8d" width="3.67" x="44.91" y="106.29"/>
      </g>
      <g>
        <rect height="14.28" style="fill: #6c5832" width="3.67" x="65.16" y="106.29"/>
        <rect height="6.44" style="fill: #c3aa8d" width="3.67" x="65.16" y="106.29"/>
      </g>
      <g>
        <rect height="2.33" style="fill: #b1aeaa" transform="translate(-51.21 66.73) rotate(-90)" width="3.67" x="6.5" y="58.38"/>
        <rect height="4.88" style="fill: #b1aeaa" transform="translate(-47.6 70.33) rotate(-90)" width="3.67" x="10.1" y="57.1"/>
        <rect height="4.02" style="fill: #edca9c" transform="translate(-48.7 69.28) rotate(-90)" width="3.07" x="9.33" y="57.55"/>
        <rect height="2.75" transform="translate(-48.69 69.29) rotate(-90)" width="3.07" x="9.34" y="58.19"/>
      </g>
      <rect height="2.75" style="fill: #b1aeaa" transform="translate(-59.4 74.03) rotate(-90)" width="4.14" x="5.82" y="65.91"/>
      <rect height="6.18" style="fill: #b1aeaa" transform="translate(-55.34 78.09) rotate(-90)" width="4.14" x="9.88" y="64.2"/>
      <rect height="4.75" style="fill: #edca9c" transform="translate(-56.39 77.01) rotate(-90)" width="3.62" x="9.07" y="64.89"/>
      <rect height="3.25" transform="translate(-56.38 77.01) rotate(-90)" width="3.62" x="9.08" y="65.64"/>
      <g>
        <rect height="2.33" style="fill: #b1aeaa" transform="translate(-83.17 98.69) rotate(-90)" width="3.75" x="6.46" y="90.34"/>
        <rect height="5.36" style="fill: #b1aeaa" transform="translate(-79.8 102.05) rotate(-90)" width="3.75" x="9.82" y="88.82"/>
        <rect height="4.02" style="fill: #edca9c" transform="translate(-80.7 101.28) rotate(-90)" width="3.07" x="9.33" y="89.55"/>
        <rect height="2.75" transform="translate(-80.69 101.29) rotate(-90)" width="3.07" x="9.34" y="90.19"/>
      </g>
      <g>
        <rect height="2.33" style="fill: #b1aeaa" transform="translate(-90.14 105.66) rotate(-90)" width="3.62" x="6.52" y="97.31"/>
        <rect height="6.02" style="fill: #b1aeaa" transform="translate(-87.11 108.7) rotate(-90)" width="3.62" x="9.56" y="95.47"/>
        <rect height="4.02" style="fill: #edca9c" transform="translate(-87.63 108.22) rotate(-90)" width="3.07" x="9.33" y="96.49"/>
        <rect height="2.75" transform="translate(-87.63 108.23) rotate(-90)" width="3.07" x="9.34" y="97.12"/>
      </g>
      <g>
        <path d="M15.39,82.13h-.08v-.36a.11.11,0,0,0-.12-.11H13.8a.12.12,0,0,0-.12.11v.36h-.82a.37.37,0,0,0-.38.37v2.6a.38.38,0,0,0,.38.38h2.53a.38.38,0,0,0,.38-.38V82.5A.37.37,0,0,0,15.39,82.13Z" style="fill: #b1aeaa" transform="translate(0 -1.15)"/>
        <path d="M8.49,82.17H8.41v-.36a.11.11,0,0,0-.12-.11H6.91a.11.11,0,0,0-.12.11v.36H6a.37.37,0,0,0-.38.37v2.61a.38.38,0,0,0,.38.37H8.49a.38.38,0,0,0,.38-.37V82.54A.37.37,0,0,0,8.49,82.17Z" style="fill: #b1aeaa" transform="translate(0 -1.15)"/>
        <path d="M9.29,76.79h.09v.36a.12.12,0,0,0,.13.11H11a.13.13,0,0,0,.14-.11v-.36h.9a.39.39,0,0,0,.42-.37v-2.6a.4.4,0,0,0-.42-.38H9.29a.4.4,0,0,0-.42.38v2.6A.39.39,0,0,0,9.29,76.79Z" style="fill: #b1aeaa" transform="translate(0 -1.15)"/>
        <rect height="5.46" rx="0.91" ry="0.91" style="fill: #3a393c" width="11.14" x="5.11" y="75.3"/>
      </g>
      <g>
        <rect height="3.07" style="fill: #b1aeaa" transform="translate(-43.12 56.88) rotate(-90)" width="4.27" x="5.32" y="49.04"/>
        <rect height="3.07" style="fill: #b1aeaa" transform="translate(-36.68 63.32) rotate(-90)" width="4.27" x="11.76" y="49.04"/>
        <rect height="5.3" style="fill: #edca9c" transform="translate(-39.83 60.27) rotate(-90)" width="4.87" x="8.36" y="47.97"/>
        <rect height="3.63" style="fill: #f7f6e9" transform="translate(-39.82 60.28) rotate(-90)" width="4.87" x="8.37" y="48.81"/>
      </g>
      <rect height="7.55" style="fill: #8ed09b" width="52.52" x="30.77" y="2.98"/>
    </g>
    <g id="BUTTONS">
      <g>
        <g>
          <rect height="14.1" style="fill: #78d37c" width="27.87" x="57.25" y="7.25"/>
          <rect height="1.91" style="fill: #17571b" width="27.87" x="57.25" y="5.34"/>
          <path d="M57.25,27.35H85.12V22.49H57.25Z" style="fill: #17571b" transform="translate(0 -1.15)"/>
          <g>
            <circle cx="64.44" cy="13.93" r="4.95" style="fill: url(#radial-gradient)"/>
            <circle cx="63.81" cy="14.57" r="3.81" style="opacity: 0.8;mix-blend-mode: soft-light;fill: url(#radial-gradient-2)"/>
            <g>
              <path d="M62.05,13.45l1.5,1.5-1.5,1.5,1,1L64.58,16l1.49,1.49.85-.84a.25.25,0,0,0,0-.36L65.61,15l1.31-1.32a.25.25,0,0,0,0-.36l-.67-.67a.25.25,0,0,0-.36,0l-1.31,1.32L63.26,12.6a.25.25,0,0,0-.36,0Z" style="opacity: 0.8;fill: url(#linear-gradient)" transform="translate(0 -1.15)"/>
              <path d="M66.88,16.67l-1.5-1.49,1.5-1.5-1-1-1.5,1.5-1.5-1.5L62,13.5a.25.25,0,0,0,0,.36l1.32,1.32L62,16.49a.25.25,0,0,0,0,.36l.67.67a.25.25,0,0,0,.36,0l1.32-1.32,1.32,1.32a.25.25,0,0,0,.36,0Z" style="fill: url(#linear-gradient-2)" transform="translate(0 -1.15)"/>
              <path d="M62,13.69l1.38,1.39L62,16.47a.14.14,0,0,0,0,.22l.8.81a.16.16,0,0,0,.22,0l1.39-1.39,1.39,1.39a.16.16,0,0,0,.22,0l.81-.81a.16.16,0,0,0,0-.22l-1.39-1.39,1.39-1.39a.16.16,0,0,0,0-.22l-.81-.8a.16.16,0,0,0-.22,0l-1.39,1.38-1.39-1.38a.16.16,0,0,0-.22,0l-.8.8A.14.14,0,0,0,62,13.69Z" style="fill: url(#radial-gradient-3)" transform="translate(0 -1.15)"/>
              <g>
                <path d="M66.23,17.1,65,15.83a.14.14,0,0,0-.22,0l-.29.28,1.39,1.39a.16.16,0,0,0,.22,0l.4-.4A.16.16,0,0,1,66.23,17.1Z" style="fill: #30383a;opacity: 0.43" transform="translate(0 -1.15)"/>
                <path d="M63.23,17.1l-.81-.81a.16.16,0,0,1,0-.22l-.39.4a.14.14,0,0,0,0,.22l.8.81a.16.16,0,0,0,.22,0l.4-.4A.16.16,0,0,1,63.23,17.1Z" style="fill: #30383a;opacity: 0.43" transform="translate(0 -1.15)"/>
                <path d="M62,13.69l1.38,1.39.29-.28a.17.17,0,0,0,0-.23L62.42,13.3a.16.16,0,0,1,0-.22l-.39.39A.14.14,0,0,0,62,13.69Z" style="fill: #30383a;opacity: 0.43" transform="translate(0 -1.15)"/>
              </g>
            </g>
          </g>
          <g>
            <circle cx="78.63" cy="13.79" r="4.95" style="fill: url(#radial-gradient-4)"/>
            <circle cx="78" cy="14.42" r="3.81" style="opacity: 0.8;mix-blend-mode: soft-light;fill: url(#radial-gradient-5)"/>
            <g>
              <path d="M76.24,13.3l1.5,1.5-1.5,1.5,1,1,1.49-1.5,1.5,1.5.85-.85a.25.25,0,0,0,0-.36L79.79,14.8l1.32-1.32a.25.25,0,0,0,0-.36l-.67-.67a.27.27,0,0,0-.36,0l-1.32,1.32-1.31-1.32a.27.27,0,0,0-.36,0Z" style="opacity: 0.8;fill: url(#linear-gradient-3)" transform="translate(0 -1.15)"/>
              <path d="M81.06,16.53,79.57,15l1.49-1.5-1-1L78.54,14,77,12.5l-.85.85a.25.25,0,0,0,0,.36L77.51,15l-1.32,1.32a.25.25,0,0,0,0,.36l.67.67a.25.25,0,0,0,.36,0l1.32-1.32,1.32,1.32a.24.24,0,0,0,.35,0Z" style="fill: url(#linear-gradient-4)" transform="translate(0 -1.15)"/>
              <path d="M76.21,13.55l1.39,1.39-1.39,1.38a.16.16,0,0,0,0,.22l.81.81a.16.16,0,0,0,.22,0L78.63,16,80,17.35a.16.16,0,0,0,.22,0l.81-.81a.16.16,0,0,0,0-.22l-1.39-1.38,1.39-1.39a.16.16,0,0,0,0-.22l-.81-.81a.16.16,0,0,0-.22,0l-1.39,1.39-1.39-1.39a.16.16,0,0,0-.22,0l-.81.81A.16.16,0,0,0,76.21,13.55Z" style="fill: url(#radial-gradient-6)" transform="translate(0 -1.15)"/>
              <g>
                <path d="M80.42,17l-1.28-1.27a.17.17,0,0,0-.23,0l-.28.28L80,17.35a.16.16,0,0,0,.22,0l.4-.4A.14.14,0,0,1,80.42,17Z" style="fill: #30383a;opacity: 0.43" transform="translate(0 -1.15)"/>
                <path d="M77.42,17l-.81-.8a.16.16,0,0,1,0-.22l-.4.39a.16.16,0,0,0,0,.22l.81.81a.16.16,0,0,0,.22,0l.4-.4A.14.14,0,0,1,77.42,17Z" style="fill: #30383a;opacity: 0.43" transform="translate(0 -1.15)"/>
                <path d="M76.21,13.55l1.39,1.39.29-.29a.16.16,0,0,0,0-.22l-1.28-1.28a.16.16,0,0,1,0-.22l-.4.4A.16.16,0,0,0,76.21,13.55Z" style="fill: #30383a;opacity: 0.43" transform="translate(0 -1.15)"/>
              </g>
            </g>
          </g>
          <g>
            <path d="M65.61,24.48a1.19,1.19,0,1,1-1.19-1.19A1.19,1.19,0,0,1,65.61,24.48Z" style="fill: #124471" transform="translate(0 -1.15)"/>
            <path d="M63.85,25.52l-.06,0a1,1,0,0,1-.19-.14l1.48-1.86.12.1.1.1Z" style="fill: #124471" transform="translate(0 -1.15)"/>
          </g>
          <g>
            <path d="M79.78,24.48a1.19,1.19,0,1,1-1.19-1.19A1.19,1.19,0,0,1,79.78,24.48Z" style="fill: #124471" transform="translate(0 -1.15)"/>
            <path d="M78,25.52l-.07,0a.7.7,0,0,1-.18-.14l1.47-1.86.13.1.1.1Z" style="fill: #124471" transform="translate(0 -1.15)"/>
          </g>
        </g>
        <g>
          <rect height="14.1" style="fill: #78d37c" width="27.87" x="29.38" y="7.25"/>
          <rect height="1.91" style="fill: #17571b" width="27.87" x="29.38" y="5.34"/>
          <path d="M29.38,27.35H57.25V22.49H29.38Z" style="fill: #17571b" transform="translate(0 -1.15)"/>
          <g>
            <circle cx="36.57" cy="13.94" r="4.95" style="fill: url(#radial-gradient-7)"/>
            <circle cx="35.94" cy="14.57" r="3.81" style="opacity: 0.8;mix-blend-mode: soft-light;fill: url(#radial-gradient-8)"/>
            <g>
              <path d="M34.18,13.46,35.68,15l-1.5,1.5,1,1,1.5-1.5,1.5,1.5.84-.85a.25.25,0,0,0,0-.36L37.74,15l1.31-1.31a.25.25,0,0,0,0-.36l-.66-.67a.25.25,0,0,0-.36,0l-1.32,1.32-1.32-1.32a.25.25,0,0,0-.36,0Z" style="opacity: 0.8;fill: url(#linear-gradient-5)" transform="translate(0 -1.15)"/>
              <path d="M39,16.68l-1.5-1.5,1.5-1.5-1-1-1.5,1.49L35,12.66l-.85.84a.25.25,0,0,0,0,.36l1.32,1.32L34.13,16.5a.25.25,0,0,0,0,.36l.67.67a.25.25,0,0,0,.36,0l1.32-1.32,1.32,1.32a.25.25,0,0,0,.36,0Z" style="fill: url(#linear-gradient-6)" transform="translate(0 -1.15)"/>
              <path d="M34.16,13.7l1.38,1.39-1.38,1.39a.16.16,0,0,0,0,.22l.8.81a.17.17,0,0,0,.23,0l1.38-1.39L38,17.51a.16.16,0,0,0,.22,0L39,16.7a.16.16,0,0,0,0-.22L37.6,15.09,39,13.7a.16.16,0,0,0,0-.22l-.81-.81a.16.16,0,0,0-.22,0l-1.39,1.39-1.38-1.39a.17.17,0,0,0-.23,0l-.8.81A.16.16,0,0,0,34.16,13.7Z" style="fill: url(#radial-gradient-9)" transform="translate(0 -1.15)"/>
              <g>
                <path d="M38.36,17.11l-1.28-1.28a.16.16,0,0,0-.22,0l-.29.29L38,17.51a.16.16,0,0,0,.22,0l.4-.4A.16.16,0,0,1,38.36,17.11Z" style="fill: #30383a;opacity: 0.43" transform="translate(0 -1.15)"/>
                <path d="M35.36,17.11l-.81-.81a.16.16,0,0,1,0-.22l-.39.4a.16.16,0,0,0,0,.22l.8.81a.17.17,0,0,0,.23,0l.39-.4A.16.16,0,0,1,35.36,17.11Z" style="fill: #30383a;opacity: 0.43" transform="translate(0 -1.15)"/>
                <path d="M34.16,13.7l1.38,1.39.29-.28a.17.17,0,0,0,0-.23L34.55,13.3a.16.16,0,0,1,0-.22l-.39.4A.16.16,0,0,0,34.16,13.7Z" style="fill: #30383a;opacity: 0.43" transform="translate(0 -1.15)"/>
              </g>
            </g>
          </g>
          <g>
            <circle cx="50.76" cy="13.79" r="4.95" style="fill: url(#radial-gradient-10)"/>
            <circle cx="50.13" cy="14.43" r="3.81" style="opacity: 0.8;mix-blend-mode: soft-light;fill: url(#radial-gradient-11)"/>
            <g>
              <path d="M48.37,13.31l1.5,1.5-1.5,1.5,1,1,1.5-1.49,1.49,1.49.85-.84a.25.25,0,0,0,0-.36l-1.32-1.32,1.32-1.32a.25.25,0,0,0,0-.36l-.67-.67a.25.25,0,0,0-.36,0L50.9,13.78l-1.32-1.32a.25.25,0,0,0-.36,0Z" style="opacity: 0.8;fill: url(#linear-gradient-7)" transform="translate(0 -1.15)"/>
              <path d="M53.2,16.53,51.7,15l1.5-1.5-1-1L50.67,14l-1.5-1.5-.85.85a.25.25,0,0,0,0,.36L49.64,15l-1.32,1.31a.25.25,0,0,0,0,.36l.67.67a.25.25,0,0,0,.36,0l1.32-1.32L52,17.38a.25.25,0,0,0,.36,0Z" style="fill: url(#linear-gradient-8)" transform="translate(0 -1.15)"/>
              <path d="M48.35,13.56l1.38,1.38-1.38,1.39a.14.14,0,0,0,0,.22l.8.81a.16.16,0,0,0,.22,0L50.76,16l1.39,1.39a.16.16,0,0,0,.22,0l.81-.81a.16.16,0,0,0,0-.22l-1.39-1.39,1.39-1.38a.17.17,0,0,0,0-.23l-.81-.8a.16.16,0,0,0-.22,0l-1.39,1.38-1.39-1.38a.16.16,0,0,0-.22,0l-.8.8A.15.15,0,0,0,48.35,13.56Z" style="fill: url(#radial-gradient-12)" transform="translate(0 -1.15)"/>
              <g>
                <path d="M52.55,17l-1.28-1.27a.14.14,0,0,0-.22,0l-.29.28,1.39,1.39a.16.16,0,0,0,.22,0l.4-.4A.16.16,0,0,1,52.55,17Z" style="fill: #30383a;opacity: 0.43" transform="translate(0 -1.15)"/>
                <path d="M49.55,17l-.81-.81a.16.16,0,0,1,0-.22l-.39.4a.14.14,0,0,0,0,.22l.8.81a.16.16,0,0,0,.22,0l.4-.4A.16.16,0,0,1,49.55,17Z" style="fill: #30383a;opacity: 0.43" transform="translate(0 -1.15)"/>
                <path d="M48.35,13.56l1.38,1.38.29-.28a.17.17,0,0,0,0-.23l-1.28-1.27a.16.16,0,0,1,0-.22l-.39.39A.15.15,0,0,0,48.35,13.56Z" style="fill: #30383a;opacity: 0.43" transform="translate(0 -1.15)"/>
              </g>
            </g>
          </g>
          <g>
            <path d="M37.74,24.49a1.19,1.19,0,1,1-1.19-1.19A1.19,1.19,0,0,1,37.74,24.49Z" style="fill: #124471" transform="translate(0 -1.15)"/>
            <path d="M36,25.52a.09.09,0,0,1-.06,0,1,1,0,0,1-.19-.13c.49-.62,1-1.24,1.48-1.87l.12.11.1.09Z" style="fill: #124471" transform="translate(0 -1.15)"/>
          </g>
          <g>
            <path d="M51.91,24.49a1.19,1.19,0,1,1-1.19-1.19A1.19,1.19,0,0,1,51.91,24.49Z" style="fill: #124471" transform="translate(0 -1.15)"/>
            <path d="M50.15,25.52l-.07,0a.93.93,0,0,1-.18-.13l1.47-1.87a.69.69,0,0,1,.13.11l.1.09Z" style="fill: #124471" transform="translate(0 -1.15)"/>
          </g>
        </g>
      </g>
    </g>
    <g id="text">
      <g>
        <path d="M53.5,39.79V42.1c0,.25-.11.4-.37.4s-.38-.15-.38-.4V36.68c0-.26.11-.4.38-.4s.37.14.37.4V39h2.19V36.68c0-.26.1-.4.37-.4s.37.14.37.4V42.1c0,.25-.1.4-.37.4s-.37-.15-.37-.4V39.79Z" style="fill: #72726f" transform="translate(0 -1.15)"/>
        <path d="M58.11,36.28h3.31a.4.4,0,0,1,0,.8H58.85v1.23h1.84a.4.4,0,0,1,0,.8H58.85v3c0,.25-.1.4-.37.4s-.37-.15-.37-.4Z" style="fill: #72726f" transform="translate(0 -1.15)"/>
        <path d="M63.84,37.08a.4.4,0,0,1,0-.8H66.4a.75.75,0,0,1,.74.8v1.53a1,1,0,0,1-.29.78,1,1,0,0,1,.29.77V41.7a.76.76,0,0,1-.74.8H63.84a.4.4,0,0,1,0-.8H66.4V40.37c0-.45-.16-.58-.37-.58H64.57a.4.4,0,0,1,0-.8H66c.21,0,.37-.14.37-.59V37.08Z" style="fill: #72726f" transform="translate(0 -1.15)"/>
        <path d="M68.82,36.28h3.31a.4.4,0,0,1,0,.8H69.57v1.23H71.4a.4.4,0,0,1,0,.8H69.57v3c0,.25-.11.4-.37.4s-.38-.15-.38-.4Z" style="fill: #72726f" transform="translate(0 -1.15)"/>
        <path d="M75.64,36.69c.06-.22.14-.41.38-.41s.33.2.39.41l1.43,5.41c.06.19-.15.4-.35.4s-.35-.21-.41-.4l-.27-1H75.22l-.28,1c0,.19-.17.4-.4.4a.36.36,0,0,1-.36-.4ZM76,38.17h0l-.58,2.17H76.6Z" style="fill: #72726f" transform="translate(0 -1.15)"/>
      </g>
      <g>
        <path d="M48.31,45a.46.46,0,0,1,.39.5v2.89c0,.28-.16.5-.39.5H47.17a.45.45,0,0,1-.4-.5V45.45a.46.46,0,0,1,.4-.5Zm0,3.39V45.45H47.17v2.89Z" style="fill: #72726f" transform="translate(0 -1.15)"/>
        <path d="M51.12,45a.46.46,0,0,1,.39.5v2.89a.45.45,0,0,1-.39.5H50a.45.45,0,0,1-.39-.5V45.45A.46.46,0,0,1,50,45Zm0,3.39V45.45H50v2.89Z" style="fill: #72726f" transform="translate(0 -1.15)"/>
        <path d="M53.17,46.65h.72a.34.34,0,0,1,.31.14.57.57,0,0,1,.12.42v1.07a.63.63,0,0,1-.09.39.34.34,0,0,1-.34.17H53a.45.45,0,0,1-.26-.09l-.15-.08c-.1-.06-.22-.11-.22-.28s.09-.25.19-.25a.17.17,0,0,1,.12,0l.12.06c.06,0,.15.1.21.1h.9V47.15H52.78V45h1.35c.1,0,.19.07.19.25s-.09.25-.19.25h-1Z" style="fill: #72726f" transform="translate(0 -1.15)"/>
        <path d="M56.62,46.6c.16,0,.23.08.23.3s-.07.31-.23.31h-.91c-.16,0-.24-.08-.24-.31s.08-.3.24-.3Z" style="fill: #72726f" transform="translate(0 -1.15)"/>
        <path d="M59.94,45.28l-1.41,3.06h1.21c.1,0,.2.07.2.25s-.1.25-.2.25H58v-.31l1.39-3.08H58.2c-.1,0-.19-.07-.19-.25s.09-.25.19-.25h1.74Z" style="fill: #72726f" transform="translate(0 -1.15)"/>
        <path d="M62.61,47.86a.75.75,0,0,1,.13.42.49.49,0,0,1-.49.56h-.86a.47.47,0,0,1-.39-.16.69.69,0,0,1-.19-.46c0-.16.08-.3.21-.3s.19.12.19.25.06.17.17.17h.84s.13,0,.13-.06a.37.37,0,0,0-.07-.14l-1.34-2.21a.69.69,0,0,1-.13-.41A.62.62,0,0,1,61,45a.44.44,0,0,1,.33-.09h.82a.47.47,0,0,1,.39.17.76.76,0,0,1,.18.47c0,.16-.06.29-.2.29s-.19-.09-.19-.23-.06-.2-.18-.2h-.83s-.13,0-.13.07a.46.46,0,0,0,0,.14Z" style="fill: #72726f" transform="translate(0 -1.15)"/>
        <path d="M64,45.45v.18c0,.16-.05.25-.19.25s-.2-.09-.2-.25V45h1.93v.68c0,.16,0,.25-.19.25s-.2-.09-.2-.25v-.18h-.38v3.14c0,.16,0,.25-.19.25s-.2-.09-.2-.25V45.45Z" style="fill: #72726f" transform="translate(0 -1.15)"/>
        <path d="M66.43,45h1.73c.11,0,.2.07.2.25s-.09.25-.2.25H66.82v.77h1c.1,0,.2.07.2.25s-.1.25-.2.25h-1v1.87c0,.16,0,.25-.19.25s-.2-.09-.2-.25Z" style="fill: #72726f" transform="translate(0 -1.15)"/>
        <path d="M70.31,45.13c.06-.1.1-.18.21-.18s.18.13.18.25a.39.39,0,0,1-.08.22l-.42.71a.53.53,0,0,0-.1.39v.76a.53.53,0,0,0,.1.39l.41.69a.5.5,0,0,1,.09.23c0,.14-.08.25-.19.25s-.13-.07-.19-.16l-.39-.61a1.24,1.24,0,0,1-.22-.79v-.76a1.27,1.27,0,0,1,.22-.8Z" style="fill: #72726f" transform="translate(0 -1.15)"/>
        <path d="M73.59,48.34v-1c0-.14,0-.25.19-.25s.2.11.2.25v1.26c0,.18-.1.25-.2.25H72.24c-.1,0-.19-.07-.19-.25s.09-.25.19-.25h.58V45.45h-.58c-.1,0-.19-.07-.19-.25s.09-.25.19-.25h1v3.39Z" style="fill: #72726f" transform="translate(0 -1.15)"/>
        <path d="M75.05,45.45c-.1,0-.2-.07-.2-.25s.1-.25.2-.25h1.34c.23,0,.39.22.39.5v1a.69.69,0,0,1-.15.49.66.66,0,0,1,.15.48v1c0,.29-.16.5-.39.5H75.05c-.1,0-.2-.07-.2-.25s.1-.25.2-.25h1.34v-.83c0-.28-.08-.36-.19-.36h-.77c-.1,0-.19-.07-.19-.25s.09-.25.19-.25h.77c.11,0,.19-.09.19-.37v-.83Z" style="fill: #72726f" transform="translate(0 -1.15)"/>
        <path d="M78.05,47.07h1.31c.19,0,.23.11.23.34v1.12c0,.23-.08.31-.25.31H77.92c-.19,0-.26-.08-.26-.31V45.2c0-.11,0-.25.17-.25h.23c.11,0,.19.12.19.25s-.08.25-.2.25Zm0,.5v.77H79.2v-.77Z" style="fill: #72726f" transform="translate(0 -1.15)"/>
        <path d="M81.7,45.72a1.22,1.22,0,0,1,.23.8v.76a1.19,1.19,0,0,1-.23.79l-.38.61c-.06.09-.1.16-.19.16s-.19-.11-.19-.25a.5.5,0,0,1,.09-.23l.41-.69a.53.53,0,0,0,.1-.39v-.76a.53.53,0,0,0-.1-.39L81,45.42a.39.39,0,0,1-.08-.22c0-.12.08-.25.18-.25s.15.08.21.18Z" style="fill: #72726f" transform="translate(0 -1.15)"/>
      </g>
      <g>
        <path d="M45.15,53.11c0-.16.05-.25.18-.25s.18.09.18.25v3.64H45l-.94-3h0V56.5c0,.16-.05.25-.18.25s-.18-.09-.18-.25V52.85h.47l.94,3h0Z" style="fill: #726f6a" transform="translate(0 -1.15)"/>
        <path d="M48,54.26a1.5,1.5,0,0,1,.1.56,1.59,1.59,0,0,1-.12.59l-.33.92c-.09.24-.23.42-.44.42s-.36-.18-.44-.42l-.33-.92a1.41,1.41,0,0,1-.12-.59,1.5,1.5,0,0,1,.09-.56l.36-1c.09-.24.24-.42.44-.42s.35.18.43.42Zm-.67-.75c0-.08,0-.16-.12-.16s-.1.08-.13.16l-.32.9a1.11,1.11,0,0,0-.08.41.88.88,0,0,0,.06.33l.34,1c0,.07.06.15.13.15s.09-.08.12-.15l.35-1a1.14,1.14,0,0,0,.06-.33,1,1,0,0,0-.09-.41Z" style="fill: #726f6a" transform="translate(0 -1.15)"/>
        <path d="M52.92,56.25v-1c0-.15,0-.25.18-.25s.18.1.18.25V56.5c0,.18-.09.25-.18.25H51.68c-.09,0-.18-.07-.18-.25s.09-.25.18-.25h.53v-2.9h-.53c-.09,0-.18-.06-.18-.25s.09-.25.18-.25h.89v3.4Z" style="fill: #726f6a" transform="translate(0 -1.15)"/>
        <path d="M55.51,52.85c.2,0,.36.23.36.5v2.9c0,.28-.15.5-.36.5H54.45c-.2,0-.36-.22-.36-.5v-2.9c0-.27.17-.5.36-.5Zm0,3.4v-2.9H54.45v2.9Z" style="fill: #726f6a" transform="translate(0 -1.15)"/>
        <path d="M57.39,53.11c0-.13.07-.26.18-.26s.17.13.19.26l.7,3.39a.21.21,0,0,1-.18.25c-.11,0-.16-.13-.19-.25L58,55.9h-.77l-.14.6c0,.12-.08.25-.19.25a.21.21,0,0,1-.17-.25Zm.19.93h0l-.28,1.36h.57Z" style="fill: #726f6a" transform="translate(0 -1.15)"/>
        <path d="M62.23,56.25h1.24c.09,0,.18.07.18.25s-.09.25-.18.25h-1.6V55.12c0-.38.14-.57.41-.57h1v-1.2H62.05c-.09,0-.18-.06-.18-.25s.09-.25.18-.25h1.19a.35.35,0,0,1,.3.14.69.69,0,0,1,.11.45v1a.65.65,0,0,1-.11.44.32.32,0,0,1-.3.14h-1Z" style="fill: #726f6a" transform="translate(0 -1.15)"/>
        <path d="M65.18,54.55h.66a.33.33,0,0,1,.29.14.62.62,0,0,1,.11.43v1.07a.66.66,0,0,1-.09.39.3.3,0,0,1-.31.17H65a.48.48,0,0,1-.24-.09l-.13-.09c-.1-.06-.21-.1-.21-.28s.08-.25.17-.25a.25.25,0,0,1,.12,0l.11.07s.13.1.19.1h.83v-1.2H64.82v-2.2h1.24c.09,0,.18.07.18.25s-.09.25-.18.25h-.88Z" style="fill: #726f6a" transform="translate(0 -1.15)"/>
        <path d="M68.47,52.85c.2,0,.36.23.36.5v2.9c0,.28-.15.5-.36.5H67.41c-.2,0-.36-.22-.36-.5v-2.9c0-.27.17-.5.36-.5Zm0,3.4v-2.9H67.41v2.9Z" style="fill: #726f6a" transform="translate(0 -1.15)"/>
        <path d="M73.66,53.91V53.1c0-.16,0-.25.18-.25s.18.09.18.25v.8a.63.63,0,0,1,0,.19l-.68,2.44c0,.12-.07.22-.18.22s-.15-.1-.18-.22l-.69-2.44a.62.62,0,0,1,0-.19v-.8c0-.16.05-.25.18-.25s.18.09.18.25v.81l.53,1.91Z" style="fill: #726f6a" transform="translate(0 -1.15)"/>
        <path d="M75.53,53.11c0-.13.07-.26.19-.26s.16.13.19.26l.69,3.39a.21.21,0,0,1-.17.25c-.11,0-.17-.13-.2-.25l-.13-.6h-.77l-.13.6c0,.12-.09.25-.2.25a.21.21,0,0,1-.17-.25Zm.19.93h0l-.29,1.36H76Z" style="fill: #726f6a" transform="translate(0 -1.15)"/>
        <path d="M78.39,56.75c-.27,0-.42-.15-.54-.48l-.33-.93a1.51,1.51,0,0,1,0-1.08l.33-.92c.13-.35.28-.49.56-.49H79c.08,0,.18.06.18.25s-.1.25-.18.25h-.6c-.16,0-.18,0-.25.21l-.31.88a.92.92,0,0,0-.08.38.77.77,0,0,0,.08.34l.3.87c.07.2.11.22.27.22H79c.08,0,.18.06.18.25s-.1.25-.18.25Z" style="fill: #726f6a" transform="translate(0 -1.15)"/>
      </g>
      <g>
        <path d="M57.36,61.27a.8.8,0,0,1,.13.41c0,.38-.22.57-.48.57h-.82a.49.49,0,0,1-.38-.16.73.73,0,0,1-.18-.47c0-.16.07-.3.2-.3s.18.12.18.26.06.17.16.17H57s.12,0,.12-.06a.41.41,0,0,0-.07-.15l-1.28-2.2a.74.74,0,0,1-.13-.41.65.65,0,0,1,.2-.49.41.41,0,0,1,.31-.09h.8a.48.48,0,0,1,.37.17.78.78,0,0,1,.18.48c0,.16-.06.29-.2.29s-.18-.1-.18-.24-.06-.2-.18-.2h-.79s-.13,0-.13.08a.5.5,0,0,0,.05.13Z" style="fill: #726f6a" transform="translate(0 -1.15)"/>
        <path d="M59.07,58.61c0-.13.07-.26.19-.26s.17.13.2.26L60.18,62a.21.21,0,0,1-.18.25c-.12,0-.18-.13-.2-.25l-.14-.6h-.8l-.14.6c0,.12-.09.25-.21.25a.22.22,0,0,1-.18-.25Zm.19.93h0L59,60.9h.59Z" style="fill: #726f6a" transform="translate(0 -1.15)"/>
        <path d="M64.11,61.75H65.4c.1,0,.19.07.19.25s-.09.25-.19.25H63.73V60.62c0-.38.14-.57.43-.57h1v-1.2H63.92c-.1,0-.19-.06-.19-.25s.09-.25.19-.25h1.25a.35.35,0,0,1,.3.14.64.64,0,0,1,.12.45v1a.6.6,0,0,1-.12.44.32.32,0,0,1-.3.14H64.11Z" style="fill: #726f6a" transform="translate(0 -1.15)"/>
        <path d="M67.18,60.05h.69a.35.35,0,0,1,.3.14.58.58,0,0,1,.12.43v1.07a.66.66,0,0,1-.09.39.33.33,0,0,1-.33.17H67a.48.48,0,0,1-.25-.09l-.14-.09c-.1-.06-.22-.1-.22-.28s.08-.25.18-.25a.25.25,0,0,1,.12,0l.12.07c.05,0,.13.1.19.1h.87v-1.2H66.8v-2.2h1.3c.1,0,.19.07.19.25s-.09.25-.19.25h-.92Z" style="fill: #726f6a" transform="translate(0 -1.15)"/>
        <path d="M70.61,58.35c.21,0,.38.23.38.5v2.9c0,.28-.16.5-.38.5h-1.1c-.22,0-.38-.22-.38-.5v-2.9c0-.27.17-.5.38-.5Zm0,3.4v-2.9h-1.1v2.9Z" style="fill: #726f6a" transform="translate(0 -1.15)"/>
        <path d="M73.31,59.41V58.6c0-.16,0-.25.19-.25s.19.09.19.25v.8a.63.63,0,0,1,0,.19L73,62c0,.12-.07.22-.19.22s-.15-.1-.19-.22l-.72-2.44a1.23,1.23,0,0,1,0-.19v-.8c0-.16,0-.25.19-.25s.19.09.19.25v.81l.55,1.91Z" style="fill: #726f6a" transform="translate(0 -1.15)"/>
        <path d="M75.27,58.61c0-.13.07-.26.19-.26s.17.13.19.26L76.38,62a.22.22,0,0,1-.18.25c-.12,0-.18-.13-.2-.25l-.14-.6h-.8l-.15.6c0,.12-.08.25-.2.25a.22.22,0,0,1-.18-.25Zm.19.93h0l-.3,1.36h.59Z" style="fill: #726f6a" transform="translate(0 -1.15)"/>
        <path d="M78.24,62.25c-.28,0-.44-.15-.56-.48l-.35-.93a1.5,1.5,0,0,1-.1-.52,1.33,1.33,0,0,1,.11-.56l.34-.92c.13-.35.29-.49.58-.49h.64c.08,0,.19.06.19.25s-.11.25-.19.25h-.63c-.16,0-.19,0-.26.21l-.32.88a.92.92,0,0,0-.08.38.77.77,0,0,0,.08.34l.32.87c.07.2.11.22.28.22h.61c.08,0,.19.06.19.25s-.11.25-.19.25Z" style="fill: #726f6a" transform="translate(0 -1.15)"/>
      </g>
      <g>
        <path d="M37.69,78.34c-.35,0-.55-.19-.71-.6l-.43-1.17a1.86,1.86,0,0,1-.13-.67,1.89,1.89,0,0,1,.13-.7L37,74c.16-.43.36-.6.73-.6h.8c.11,0,.24.07.24.31s-.13.32-.24.32h-.79c-.2,0-.23,0-.32.26L37,75.42a1.29,1.29,0,0,0-.1.48,1.23,1.23,0,0,0,.1.44l.41,1.09c.09.26.14.28.35.28h.77c.11,0,.24.08.24.32s-.13.31-.24.31Z" style="fill: #817d7a" transform="translate(0 -1.15)"/>
        <path d="M40.3,76.2V78c0,.2-.06.31-.23.31s-.24-.11-.24-.31V73.74c0-.2.07-.31.24-.31s.23.11.23.31v1.83h1.39V73.74c0-.2.07-.31.24-.31s.24.11.24.31V78c0,.2-.07.31-.24.31s-.24-.11-.24-.31V76.2Z" style="fill: #817d7a" transform="translate(0 -1.15)"/>
        <path d="M44.64,77.71h.7c.12,0,.23.09.23.32s-.11.31-.23.31H43.47c-.12,0-.23-.09-.23-.31s.11-.32.23-.32h.7V74.06h-.7c-.12,0-.23-.09-.23-.32s.11-.31.23-.31h1.87c.12,0,.23.09.23.31s-.11.32-.23.32h-.7Z" style="fill: #817d7a" transform="translate(0 -1.15)"/>
        <path d="M48.51,73.75c0-.2.07-.32.24-.32s.24.12.24.32v4.6h-.63l-1.23-3.79h0V78c0,.2-.07.31-.24.31s-.24-.11-.24-.31v-4.6h.63l1.23,3.83h0Z" style="fill: #817d7a" transform="translate(0 -1.15)"/>
        <path d="M51,73.75c0-.17.09-.32.24-.32s.21.16.25.32L52.38,78a.26.26,0,0,1-.23.31c-.14,0-.22-.16-.25-.31l-.18-.76h-1l-.18.76c0,.15-.1.31-.25.31a.27.27,0,0,1-.23-.31Zm.25,1.17h0l-.37,1.72h.74Z" style="fill: #817d7a" transform="translate(0 -1.15)"/>
      </g>
      <g>
        <path d="M63.72,77.19a.89.89,0,0,1,.16.49c0,.46-.26.68-.57.68h-1a.56.56,0,0,1-.46-.19.87.87,0,0,1-.21-.56c0-.19.08-.36.24-.36s.21.15.21.31.07.2.2.2h1s.15,0,.15-.07-.07-.14-.08-.17L61.8,74.86a.81.81,0,0,1-.15-.49.74.74,0,0,1,.24-.58.5.5,0,0,1,.37-.1h1a.53.53,0,0,1,.45.2,1,1,0,0,1,.21.57c0,.19-.07.35-.24.35s-.21-.12-.21-.29-.08-.23-.22-.23h-1s-.15,0-.15.08a.34.34,0,0,0,.07.16Z" style="fill: #817d7a" transform="translate(0 -1.15)"/>
        <path d="M65.35,78.06c0,.2-.07.3-.23.3s-.22-.1-.22-.3V73.69h1.51a.79.79,0,0,1,.72.87V75a.77.77,0,0,1-.72.86H66l1,1.93a.73.73,0,0,1,.12.32.25.25,0,0,1-.23.28c-.09,0-.15-.07-.2-.16l-1.25-2.37h-.1Zm0-2.83h1c.13,0,.33,0,.33-.26v-.41c0-.24-.19-.27-.33-.27h-1Z" style="fill: #817d7a" transform="translate(0 -1.15)"/>
        <path d="M69.92,73.69c.25,0,.45.27.45.6v3.47c0,.34-.19.6-.45.6H68.6c-.26,0-.46-.26-.46-.6V74.29a.55.55,0,0,1,.46-.6Zm0,4.07V74.29H68.6v3.47Z" style="fill: #817d7a" transform="translate(0 -1.15)"/>
        <path d="M73,73.69c.15,0,.22.14.22.3v1.73a.42.42,0,0,1,.33.17.72.72,0,0,1,.12.44v1.43c0,.37-.17.6-.45.6H71.84c-.28,0-.45-.23-.45-.6V76.33a.72.72,0,0,1,.12-.44.43.43,0,0,1,.33-.17V74c0-.16.08-.3.23-.3Zm.22,4.07V76.33H71.84v1.43Zm-.45-2V74.29H72.3v1.43Z" style="fill: #817d7a" transform="translate(0 -1.15)"/>
        <path d="M76.42,77.76V76.55c0-.18.06-.3.22-.3s.23.12.23.3v1.51c0,.22-.11.3-.23.3H74.87c-.12,0-.23-.08-.23-.3s.11-.3.23-.3h.66V74.29h-.66c-.12,0-.23-.09-.23-.3s.11-.3.23-.3H76v4.07Z" style="fill: #817d7a" transform="translate(0 -1.15)"/>
        <path d="M78.34,76.24h1.51c.22,0,.27.12.27.4V78c0,.29-.09.38-.29.38H78.18c-.21,0-.29-.1-.29-.38V74c0-.14,0-.3.19-.3h.27c.12,0,.21.14.21.3s-.09.3-.22.3Zm0,.6v.92h1.33v-.92Z" style="fill: #817d7a" transform="translate(0 -1.15)"/>
        <path d="M81.14,74c0-.2.06-.3.22-.3s.23.1.23.3v1.38L83,73.81c.06-.06.12-.12.19-.12s.22.15.22.32a.38.38,0,0,1-.11.25L81.7,76l1.55,1.77a.4.4,0,0,1,.12.26c0,.17-.09.31-.22.31s-.17-.1-.24-.18l-1.32-1.51v1.39c0,.2-.07.3-.23.3s-.22-.1-.22-.3Z" style="fill: #817d7a" transform="translate(0 -1.15)"/>
        <path d="M86.16,77.76V76.55c0-.18.06-.3.23-.3s.22.12.22.3v1.51c0,.22-.1.3-.22.3H84.61c-.12,0-.23-.08-.23-.3s.11-.3.23-.3h.66V74.29h-.66c-.12,0-.23-.09-.23-.3s.11-.3.23-.3h1.11v4.07Z" style="fill: #817d7a" transform="translate(0 -1.15)"/>
      </g>
      <path d="M47.14,71.5a.05.05,0,0,1,0,0l.15.21a1.38,1.38,0,0,1-.4.4,1.15,1.15,0,0,1-.57.14,1.19,1.19,0,0,1-.53-.13,1.21,1.21,0,0,1-.4-.38,1.82,1.82,0,0,1-.26-.58,3.09,3.09,0,0,1,0-1.48,2.08,2.08,0,0,1,.27-.58,1.26,1.26,0,0,1,.42-.38,1.14,1.14,0,0,1,1,0,1.49,1.49,0,0,1,.39.33l-.12.22,0,0h0a.1.1,0,0,1-.08,0l-.13-.11a.75.75,0,0,0-.2-.1.63.63,0,0,0-.29,0,.82.82,0,0,0-.38.09,1.13,1.13,0,0,0-.3.28,1.56,1.56,0,0,0-.19.45,2.12,2.12,0,0,0-.07.59,2.25,2.25,0,0,0,.07.6,1.63,1.63,0,0,0,.2.44,1,1,0,0,0,.29.28.81.81,0,0,0,.37.09l.22,0a.49.49,0,0,0,.17-.06.54.54,0,0,0,.16-.1l.14-.14A.07.07,0,0,1,47.14,71.5Z" style="fill: #817d7a" transform="translate(0 -1.15)"/>
      <g>
        <path d="M59.5,71.85a.6.6,0,0,0,.3-.07.63.63,0,0,0,.22-.21,1,1,0,0,0,.14-.32,1.86,1.86,0,0,0,.05-.42V68.66h.36v2.17a2.14,2.14,0,0,1-.08.58,1.5,1.5,0,0,1-.21.46.94.94,0,0,1-.33.3,1,1,0,0,1-.45.11,1,1,0,0,1-.45-.11.94.94,0,0,1-.33-.3,1.31,1.31,0,0,1-.22-.46,2.15,2.15,0,0,1-.07-.58V68.66h.36v2.17a1.7,1.7,0,0,0,.05.41,1,1,0,0,0,.14.33.63.63,0,0,0,.22.21A.6.6,0,0,0,59.5,71.85Z" style="fill: #817d7a" transform="translate(0 -1.15)"/>
        <path d="M62.6,69.22l0,0-.05,0a.09.09,0,0,1-.07,0l-.11-.1-.16-.09A.48.48,0,0,0,62,69a.46.46,0,0,0-.21,0,.48.48,0,0,0-.16.12.51.51,0,0,0-.09.18.78.78,0,0,0,0,.22.43.43,0,0,0,.06.24.5.5,0,0,0,.15.17.82.82,0,0,0,.2.12l.24.11.24.13a.79.79,0,0,1,.2.17.81.81,0,0,1,.15.26,1.27,1.27,0,0,1,.05.37,1.56,1.56,0,0,1-.06.44,1.2,1.2,0,0,1-.17.36.85.85,0,0,1-.29.24.76.76,0,0,1-.38.09.85.85,0,0,1-.47-.13,1.09,1.09,0,0,1-.37-.34l.11-.23,0,0h0a.08.08,0,0,1,.06,0l.07.07.09.09.11.08a.58.58,0,0,0,.56,0,.49.49,0,0,0,.18-.14.54.54,0,0,0,.1-.2.77.77,0,0,0,0-.27.68.68,0,0,0,0-.27.8.8,0,0,0-.15-.17.72.72,0,0,0-.21-.12l-.23-.1a1.34,1.34,0,0,1-.24-.12.65.65,0,0,1-.2-.17.87.87,0,0,1-.15-.27,1.51,1.51,0,0,1,0-.77,1.14,1.14,0,0,1,.16-.31.78.78,0,0,1,.26-.22.71.71,0,0,1,.36-.08.85.85,0,0,1,.73.37Z" style="fill: #817d7a" transform="translate(0 -1.15)"/>
      </g>
      <path d="M37.71,61.34l-1.1,3.59h-.32l-1.1-3.59h.29a.08.08,0,0,1,.08,0,.22.22,0,0,1,0,.08L36.37,64c0,.05,0,.11,0,.18s0,.14.05.21l0-.21c0-.07,0-.13,0-.18l.76-2.53a.14.14,0,0,1,.12-.12Z" style="fill: #817d7a" transform="translate(0 -1.15)"/>
      <g>
        <path d="M69.1,70.22a1.48,1.48,0,0,1-.8.19c-.86,0-1.5-.72-1.5-2s.64-2.13,1.59-2.13a1.35,1.35,0,0,1,.72.18l-.1.43a1.1,1.1,0,0,0-.61-.17c-.71,0-1.18.61-1.18,1.67S67.64,70,68.38,70a1.26,1.26,0,0,0,.64-.16Z" style="fill: #817d7a" transform="translate(0 -1.15)"/>
        <path d="M72,71c-.41-.15-.81-.31-1.16-.47a.52.52,0,0,0-.19-.06c-.72,0-1.33-.75-1.33-2s.59-2.13,1.41-2.13,1.36.86,1.36,2.05a2,2,0,0,1-.87,1.94v0c.31.1.63.2.89.26Zm-.33-2.64c0-.81-.31-1.64-1-1.64s-1,.82-1,1.69.36,1.63,1,1.63S71.67,69.24,71.67,68.31Z" style="fill: #817d7a" transform="translate(0 -1.15)"/>
        <path d="M74.71,70.22a1.48,1.48,0,0,1-.8.19c-.85,0-1.5-.72-1.5-2s.65-2.13,1.59-2.13a1.29,1.29,0,0,1,.72.18l-.1.43a1.08,1.08,0,0,0-.61-.17c-.71,0-1.18.61-1.18,1.67S73.26,70,74,70a1.24,1.24,0,0,0,.64-.16Z" style="fill: #817d7a" transform="translate(0 -1.15)"/>
      </g>
      <ellipse cx="71.44" cy="66.88" rx="6.02" ry="4.21" style="fill: none;stroke: #817d7a;stroke-miterlimit: 10"/>
      <path d="M55.21,65.71H53.13l1.62,4h-.54l-1.75-4.21H47.13l1.12,3.9h1.46l-.33,1,.08,1.07h1.33l.46-1.8.66,0,.67,1.75h4.84ZM51.5,67.79H49.25V66.71H51.5Z" style="fill: #6e6f68" transform="translate(0 -1.15)"/>
      <polygon points="44.11 35.59 44.18 34.39 41.08 34.52 41.07 34.54 41.05 34.54 40.9 37.48 39.02 37.56 39.17 34.61 38 34.66 37.63 41.63 38.81 41.59 38.96 38.62 40.84 38.54 40.69 41.51 41.86 41.46 41.86 41.44 41.88 41.44 42.03 38.71 43.63 38.64 43.7 37.44 42.09 37.51 42.19 35.67 44.11 35.59" style="fill: #676b6e"/>
      <circle cx="46.71" cy="38.01" r="1" style="fill: #676b6e"/>
      <path d="M47.36,41.16a8.85,8.85,0,0,1-3.61,2.38,11.33,11.33,0,0,1-4.37.57,9.28,9.28,0,0,1-4.27-1.32,5.12,5.12,0,0,1-2.5-3.85v-.1A5.74,5.74,0,0,1,35,34.92a7.53,7.53,0,0,1,4.37-1.09,13.69,13.69,0,0,1,4.31.89A12,12,0,0,1,47.36,37a13.69,13.69,0,0,0-3.86-1.79,13.35,13.35,0,0,0-4.15-.58,7.14,7.14,0,0,0-3.83,1.1A4.75,4.75,0,0,0,33.61,39v-.1a4.16,4.16,0,0,0,2,3.11,9.2,9.2,0,0,0,3.83,1.35,10.73,10.73,0,0,0,4.14-.28A9.33,9.33,0,0,0,47.36,41.16Z" style="fill: #676b6e" transform="translate(0 -1.15)"/>
      <rect height="2.53" style="fill: none;stroke: #676b6e;stroke-linecap: round;stroke-linejoin: round" width="11.31" x="30.77" y="67.6"/>
      <polygon points="36.43 56.88 40.56 62.24 44.69 67.6 36.43 67.6 28.16 67.6 32.29 62.24 36.43 56.88" style="fill: none;stroke: #676b6e;stroke-linecap: round;stroke-linejoin: round"/>
      <path d="M35.79,66a2.74,2.74,0,0,1-.1.73,1.67,1.67,0,0,1-.27.57,1.3,1.3,0,0,1-.42.36,1.08,1.08,0,0,1-.54.13h-1V64.21h1a1.08,1.08,0,0,1,.54.13,1.19,1.19,0,0,1,.42.36,1.67,1.67,0,0,1,.27.57A2.74,2.74,0,0,1,35.79,66Zm-.38,0a2.61,2.61,0,0,0-.06-.59,1.37,1.37,0,0,0-.2-.44.77.77,0,0,0-.3-.27.73.73,0,0,0-.39-.1h-.64v2.8h.64a.73.73,0,0,0,.39-.1.77.77,0,0,0,.3-.27,1.37,1.37,0,0,0,.2-.44A2.61,2.61,0,0,0,35.41,66Z" style="fill: #817d7a" transform="translate(0 -1.15)"/>
      <path d="M39.3,67.4v.39H37.64V64.21H39.3v.39H38v1.19h1v.38H38V67.4Z" style="fill: #817d7a" transform="translate(0 -1.15)"/>
      <path d="M75.4,110.26v11.46H86.85V110.26Zm9.23,6.33a4.06,4.06,0,0,1-.84,1.4,4.28,4.28,0,0,1-1.36,1,5.13,5.13,0,0,1-1.78.45l-3,.25.45-7.46,3-.25a4.25,4.25,0,0,1,1.45.12,3,3,0,0,1,1.14.56,2.85,2.85,0,0,1,.78.94,3.46,3.46,0,0,1,.35,1.26A4.37,4.37,0,0,1,84.63,116.59Z" style="fill: #d7e3ee" transform="translate(0 -1.15)"/>
      <path d="M83.42,114a2.2,2.2,0,0,0-.54-.72,2.09,2.09,0,0,0-.8-.41,2.59,2.59,0,0,0-1-.08l-1.85.15-.36,5.88,1.85-.16a3.61,3.61,0,0,0,1.3-.34,3,3,0,0,0,1-.76,3,3,0,0,0,.57-1.12,3.79,3.79,0,0,0,.12-1.45A3,3,0,0,0,83.42,114Z" style="fill: #d7e3ee" transform="translate(0 -1.15)"/>
      <path d="M88.9,90.62H77.68A2.28,2.28,0,0,0,75.4,92.9v11.6a2.28,2.28,0,0,0,2.28,2.28H88.9a2.28,2.28,0,0,0,2.28-2.28V92.9A2.28,2.28,0,0,0,88.9,90.62Zm-2.05,3.91c-1.8-1.36-2,.37-1.77,2.31h1.35v1.53H84.84v4.22c-.23,2.16-2.12,2.84-4.48,2.28-3.65-1.5-2.69-5.81,1.41-5.81v1.59c-3.44.94-.31,4.69,1.47,1.66V94.75c.44-2.6,2.87-3.35,4.94-1.31Z" style="fill: #d7e3ee" transform="translate(0 -1.15)"/>
      <g>
        <path d="M99.41,36.09c-.22,0-.33-.07-.33-.25s.11-.24.33-.24h4.81v1.66a.87.87,0,0,1-1,.78h-.46a.84.84,0,0,1-.94-.78V36.8l-2.12,1.11a.75.75,0,0,1-.35.13.28.28,0,0,1-.31-.25c0-.1.07-.17.18-.22l2.6-1.37v-.11Zm3.11,0v1.1c0,.14,0,.35.28.35h.46c.26,0,.29-.2.29-.35v-1.1Z" style="fill: #c1a96c" transform="translate(0 -1.15)"/>
        <path d="M99.08,40.09a.44.44,0,0,1,.17-.43l.23-.2a.92.92,0,0,1,.72-.24h1.22a1,1,0,0,1,.76.23l.19.17c.26.22.27.33.27.52v.44a.59.59,0,0,1-.23.52l-.21.2a1.1,1.1,0,0,1-.83.24h-.5c-.37,0-.47,0-.47-.32V39.69h-.21a.44.44,0,0,0-.19.07l-.17.12a.35.35,0,0,0-.12.32v1a.32.32,0,1,1-.63,0Zm2-.4v1.38h.38a.48.48,0,0,0,.3-.06l.21-.18a.26.26,0,0,0,.08-.23v-.4a.3.3,0,0,0-.07-.24l-.16-.17c-.06-.06-.1-.1-.29-.1Z" style="fill: #c1a96c" transform="translate(0 -1.15)"/>
        <path d="M99.71,44.19v.36c0,.16,0,.32-.32.32a.28.28,0,0,1-.31-.32V43.34a.28.28,0,0,1,.31-.32c.27,0,.32.16.32.32v.38h3.6v-.38a.28.28,0,0,1,.32-.32c.27,0,.31.16.31.32v.5c0,.27-.06.35-.44.35Z" style="fill: #c1a96c" transform="translate(0 -1.15)"/>
        <path d="M102,47.14a.28.28,0,0,1,.32-.32c.27,0,.32.16.32.32v.66a.66.66,0,0,1-.29.61,1.07,1.07,0,0,1-.75.21l-2.15.05c-.19,0-.37-.06-.37-.22a.27.27,0,0,1,.31-.24l-.22-.33a.35.35,0,0,1-.09-.29v-.46a.64.64,0,0,1,.22-.54,1.08,1.08,0,0,1,.78-.24h.28a1,1,0,0,1,.7.23.64.64,0,0,1,.24.55v1h.15c.47,0,.55-.08.55-.42Zm-1.33,0c0-.13,0-.32-.28-.32H100c-.21,0-.26.19-.26.31v.52l.36.53h.14c.35,0,.46-.08.46-.34Z" style="fill: #c1a96c" transform="translate(0 -1.15)"/>
        <path d="M101.84,51.76h.36c.22,0,.44,0,.44.24s-.22.23-.44.23h-.26a1,1,0,0,1-.4,0L98.06,51c-.3-.1-.33-.16-.33-.38v-.36a.29.29,0,0,1,.32-.33c.27,0,.31.17.31.33v.32l1,.35v0c0-.2.12-.21.34-.28l1.72-.59a1.73,1.73,0,0,1,.53-.11h.28c.22,0,.44,0,.44.24s-.22.24-.44.24h-.36L100,51v.11Z" style="fill: #c1a96c" transform="translate(0 -1.15)"/>
        <path d="M104.22,58.8v.62H99.41c-.22,0-.33-.07-.33-.25s.11-.24.33-.24h3.89l-.93-.47h-.1c-.21,0-.4-.06-.4-.25s.19-.25.4-.25h.1l.93-.47H99.41c-.22,0-.33-.07-.33-.24s.11-.25.33-.25h4.81v.62l-1.17.6Z" style="fill: #c1a96c" transform="translate(0 -1.15)"/>
        <path d="M101.45,60.6a1,1,0,0,1,.83.3c.26.24.36.35.36.68V62c0,.33-.1.44-.36.67a1,1,0,0,1-.83.31h-1.19a1,1,0,0,1-.85-.33c-.28-.25-.33-.35-.33-.65v-.37c0-.31,0-.4.33-.65a1,1,0,0,1,.85-.33Zm-1.19.48a.51.51,0,0,0-.38.17.38.38,0,0,0-.17.33V62a.38.38,0,0,0,.17.33.51.51,0,0,0,.38.17h1.19a.5.5,0,0,0,.38-.17A.38.38,0,0,0,102,62v-.37a.38.38,0,0,0-.17-.33.5.5,0,0,0-.38-.17Z" style="fill: #c1a96c" transform="translate(0 -1.15)"/>
        <path d="M102.64,65.47c0,.16-.12.29-.35.47l-.12.08h1.34c.22,0,.43,0,.43.23s-.21.24-.43.24h-4c-.22,0-.44,0-.44-.24s.21-.23.42-.23h0l-.14-.11a.69.69,0,0,1-.32-.45V65a.66.66,0,0,1,.22-.41l.18-.16a1,1,0,0,1,.74-.26h1.27a1,1,0,0,1,.74.26l.18.16a.54.54,0,0,1,.23.46Zm-2.17-.83c-.18,0-.4,0-.48.08l-.15.14c-.07.06-.13.12-.13.18v.33a.33.33,0,0,0,.16.23l.31.28a.42.42,0,0,0,.28.14h.8a.42.42,0,0,0,.27-.14l.31-.28a.33.33,0,0,0,.16-.23V65c0-.06-.06-.12-.12-.18l-.16-.14c-.07-.08-.3-.08-.48-.08Z" style="fill: #c1a96c" transform="translate(0 -1.15)"/>
        <path d="M99.54,70.05c-.14,0-.46,0-.46-.23s.22-.24.44-.24h.1l-.33-.38a.62.62,0,0,1-.21-.41v-.35a.56.56,0,0,1,.23-.44,1.23,1.23,0,0,1,.86-.22l2,0c.23,0,.48,0,.48.24s-.23.23-.44.23l-2,0a1.24,1.24,0,0,0-.41,0,.3.3,0,0,0-.13.28v.15a.2.2,0,0,0,.06.15l.59.7h1.84c.22,0,.44,0,.44.24s-.22.23-.44.23Z" style="fill: #c1a96c" transform="translate(0 -1.15)"/>
        <path d="M99.71,72.7v.36c0,.16,0,.33-.32.33s-.31-.19-.31-.33V71.85a.28.28,0,0,1,.31-.32c.27,0,.32.16.32.32v.38h3.6v-.38a.28.28,0,0,1,.32-.32c.27,0,.31.16.31.32v.5c0,.27-.06.35-.44.35Z" style="fill: #c1a96c" transform="translate(0 -1.15)"/>
        <path d="M99.08,75.73a.44.44,0,0,1,.17-.43l.23-.2a.92.92,0,0,1,.72-.24h1.22a1,1,0,0,1,.76.23l.19.17c.26.22.27.33.27.52v.44a.59.59,0,0,1-.23.52l-.21.19a1.07,1.07,0,0,1-.83.25h-.5c-.37,0-.47,0-.47-.33V75.33h-.21a.44.44,0,0,0-.19.07l-.17.12c-.09.06-.12.16-.12.32v1c0,.16,0,.33-.32.33s-.31-.19-.31-.33Zm2-.4v1.38h.38a.48.48,0,0,0,.3-.06l.21-.19a.25.25,0,0,0,.08-.22v-.4a.33.33,0,0,0-.07-.25l-.16-.16c-.06-.06-.1-.1-.29-.1Z" style="fill: #c1a96c" transform="translate(0 -1.15)"/>
        <path d="M102.83,83.87h1.06c.21,0,.33.07.33.25s-.12.25-.33.25h-1a1.15,1.15,0,0,1-.26,0l-3.21-.94c-.17-.05-.29-.1-.29-.25s.12-.2.29-.25l3.21-.94a.77.77,0,0,1,.26,0h1c.21,0,.33.07.33.24s-.12.25-.33.25h-1.06l-2.53.73Z" style="fill: #c1a96c" transform="translate(0 -1.15)"/>
        <path d="M103.55,85.74c0-.13.1-.25.34-.25s.33.12.33.25v1.7c0,.28-.29.49-.67.49h-1.26a.91.91,0,0,1-.64-.19.94.94,0,0,1-.64.19H99.74c-.38,0-.66-.21-.66-.49v-1.7c0-.13.09-.25.33-.25s.33.12.33.25v1.7h1.09c.37,0,.49-.11.49-.25v-1c0-.13.09-.24.33-.24s.33.11.33.24v1c0,.14.11.25.48.25h1.09Z" style="fill: #c1a96c" transform="translate(0 -1.15)"/>
        <path d="M99.92,90.1c0-.11,0-.19.13-.26a.56.56,0,0,1,.29,0h.37a.58.58,0,0,1,.3,0c.13.07.13.15.13.26v.35c0,.11,0,.19-.13.26a.49.49,0,0,1-.3.06h-.37a.48.48,0,0,1-.29-.06c-.13-.07-.13-.15-.13-.26Z" style="fill: #c1a96c" transform="translate(0 -1.15)"/>
        <path d="M99.74,94.57h1.33c.19,0,.33.06.33.24s-.14.25-.33.25H99.41c-.24,0-.33-.12-.33-.25v-2c0-.12.09-.24.33-.24s.33.12.33.24v.73h3.81v-.73c0-.12.1-.24.34-.24s.33.12.33.24v1.23H99.74Z" style="fill: #c1a96c" transform="translate(0 -1.15)"/>
      </g>
      <g>
        <path d="M78.8,4.66c0,.15,0,.24-.18.24s-.18-.09-.18-.24V1.15h.47l1,2.89h0V1.39c0-.15,0-.24.18-.24s.18.09.18.24V4.9h-.48L78.81,2h0Z" style="fill: #fff" transform="translate(0 -1.15)"/>
        <path d="M76.65,1.15c.27,0,.43.15.55.46l.33.9a1.35,1.35,0,0,1,.1.5,1.27,1.27,0,0,1-.11.54l-.33.89c-.12.33-.28.46-.55.46H76c-.08,0-.18-.06-.18-.24s.1-.24.18-.24h.6c.16,0,.18,0,.25-.2l.32-.84A.9.9,0,0,0,77.26,3a.93.93,0,0,0-.07-.33l-.31-.83c-.07-.2-.11-.22-.27-.22H76c-.08,0-.18,0-.18-.24s.1-.24.18-.24Z" style="fill: #fff" transform="translate(0 -1.15)"/>
      </g>
      <g>
        <path d="M65.16,4.66c0,.15,0,.24-.18.24s-.18-.09-.18-.24V1.15h.48L66.22,4h0V1.39c0-.15,0-.24.18-.24s.18.09.18.24V4.9h-.48L65.17,2h0Z" style="fill: #fff" transform="translate(0 -1.15)"/>
        <path d="M62.29,3.55A1.61,1.61,0,0,1,62.2,3a1.53,1.53,0,0,1,.12-.57l.33-.89c.09-.23.23-.4.44-.4s.36.17.45.4l.33.89A1.53,1.53,0,0,1,64,3a1.4,1.4,0,0,1-.1.54l-.36,1c-.09.22-.23.39-.44.39s-.35-.17-.43-.39Zm.68.73c0,.07.05.14.12.14s.1-.07.13-.14l.32-.88A.86.86,0,0,0,63.63,3a.88.88,0,0,0-.07-.32l-.34-.91c0-.07,0-.15-.13-.15s-.09.08-.12.15l-.35.91a.89.89,0,0,0,0,.71Z" style="fill: #fff" transform="translate(0 -1.15)"/>
      </g>
      <g>
        <path d="M39.2,1.15c.27,0,.43.15.54.46l.34.9a1.35,1.35,0,0,1,.09.5,1.44,1.44,0,0,1-.1.54l-.33.89c-.12.33-.28.46-.56.46h-.61c-.08,0-.18-.06-.18-.24s.09-.24.18-.24h.6c.16,0,.18,0,.25-.2l.31-.84A.91.91,0,0,0,39.81,3a.76.76,0,0,0-.08-.33l-.3-.83c-.07-.2-.11-.22-.27-.22h-.59c-.08,0-.18,0-.18-.24s.09-.24.18-.24Z" style="fill: #fff" transform="translate(0 -1.15)"/>
        <path d="M35.88,3.55a1.4,1.4,0,0,1-.1-.54,1.53,1.53,0,0,1,.12-.57l.34-.89c.08-.23.23-.4.44-.4s.35.17.44.4l.33.89a1.53,1.53,0,0,1,.12.57,1.39,1.39,0,0,1-.09.54l-.36,1c-.09.22-.24.39-.44.39s-.35-.17-.44-.39Zm.67.73c0,.07.05.14.13.14s.09-.07.12-.14l.33-.88A1,1,0,0,0,37.21,3a.87.87,0,0,0-.06-.32l-.35-.91c0-.07,0-.15-.12-.15s-.1.08-.13.15l-.34.91a.87.87,0,0,0-.06.32,1,1,0,0,0,.08.39Z" style="fill: #fff" transform="translate(0 -1.15)"/>
        <path d="M33.64,4.9h-.46V1.39c0-.15,0-.24.18-.24s.19.09.19.24V4.24h0l.35-.68V3.48c0-.15,0-.29.18-.29s.18.14.18.29v.08l.34.68h0V1.39c0-.15,0-.24.18-.24s.18.09.18.24V4.9h-.45l-.44-.85Z" style="fill: #fff" transform="translate(0 -1.15)"/>
      </g>
      <g>
        <path d="M52,4.66c0,.15,0,.24-.18.24s-.18-.09-.18-.24V1.15h.48L53,4h0V1.39c0-.15.05-.24.18-.24s.18.09.18.24V4.9h-.48L52,2h0Z" style="fill: #fff" transform="translate(0 -1.15)"/>
        <path d="M50.44,1.32c0-.1.09-.17.18-.17a.21.21,0,0,1,.18.23.57.57,0,0,1-.08.25L49.37,4.72c0,.1-.09.18-.18.18A.21.21,0,0,1,49,4.68a.49.49,0,0,1,0-.19Z" style="fill: #fff" transform="translate(0 -1.15)"/>
        <path d="M47.49,4.66c0,.13-.07.24-.19.24s-.16-.12-.18-.24l-.7-3.27a.2.2,0,0,1,.17-.24c.11,0,.17.13.2.24l.13.58h.77l.14-.58c0-.11.08-.24.19-.24a.21.21,0,0,1,.18.24Zm-.19-.9h0l.28-1.31H47Z" style="fill: #fff" transform="translate(0 -1.15)"/>
      </g>
    </g>
    <g data-name="Layer 6" id="Layer_6">
      <g data-name="&lt;Group&gt;" id="_Group_">
        <polyline data-name="&lt;Path&gt;" id="_Path_" points="53.22 206.76 53.52 127.34 48.92 127.34 48.92 206.76" style="fill: #0e5e38"/>
        <path d="M86.51,224.91" data-name="&lt;Path&gt;" id="_Path_2" style="fill: #fcee21" transform="translate(0 -1.15)"/>
      </g>
      <g data-name="&lt;Group&gt;" id="_Group_2">
        <polyline data-name="&lt;Path&gt;" id="_Path_3" points="57.51 206.76 57.82 127.34 53.22 127.34 53.22 206.76" style="fill: #cf2f27"/>
      </g>
      <g data-name="&lt;Group&gt;" id="_Group_3">
        <polyline data-name="&lt;Path&gt;" id="_Path_4" points="62.12 206.76 62.12 127.34 57.51 127.34 57.51 206.76" style="fill: #303030"/>
      </g>
      <g>
        <rect data-name="&lt;Rectangle&gt;" height="37.48" id="_Rectangle_" style="fill: #333" transform="translate(111.04 414.76) rotate(-180)" width="23.47" x="43.79" y="189.22"/>
        <g data-name="&lt;Group&gt;" id="_Group_4">
          <rect data-name="&lt;Rectangle&gt;" height="14.88" id="_Rectangle_2" style="fill: #1a1a1a" transform="translate(124.97 432.35) rotate(-180)" width="2.89" x="61.04" y="209.31"/>
          <rect data-name="&lt;Rectangle&gt;" height="7.44" id="_Rectangle_3" style="fill: url(#linear-gradient-9)" transform="translate(124.97 424.91) rotate(-180)" width="2.89" x="61.04" y="209.31"/>
          <rect data-name="&lt;Rectangle&gt;" height="14.88" id="_Rectangle_4" style="fill: #1a1a1a" transform="translate(111.04 432.35) rotate(-180)" width="2.89" x="54.07" y="209.31"/>
          <rect data-name="&lt;Rectangle&gt;" height="7.44" id="_Rectangle_5" style="fill: url(#linear-gradient-10)" transform="translate(111.04 424.91) rotate(-180)" width="2.89" x="54.07" y="209.31"/>
          <rect data-name="&lt;Rectangle&gt;" height="14.88" id="_Rectangle_6" style="fill: #1a1a1a" transform="translate(97.1 432.35) rotate(-180)" width="2.89" x="47.11" y="209.31"/>
          <rect data-name="&lt;Rectangle&gt;" height="7.44" id="_Rectangle_7" style="fill: url(#linear-gradient-11)" transform="translate(97.1 424.91) rotate(-180)" width="2.89" x="47.11" y="209.31"/>
        </g>
      </g>
    </g>
    <g data-name="Layer 7" id="Connectors">
      <rect data-cir-type="male" height="2.89" id="circuitoCon_GND" style="fill: none" width="2.89" x="61.04" y="222.66"/>
      <rect data-cir-type="male" height="2.89" id="circuitoCon_VCC" style="fill: none" width="2.89" x="54.08" y="222.66"/>
      <rect data-cir-type="male" height="2.89" id="circuitoCon_Sig" style="fill: none" width="2.89" x="47.11" y="222.66"/>
    </g>
  </g>
</svg>