<?xml version="1.0" ?><svg height="11.45mm" viewBox="0 0 11.03 32.47" width="3.89mm" xmlns="http://www.w3.org/2000/svg" xmlns:xlink="http://www.w3.org/1999/xlink">
  <defs>
    <linearGradient gradientTransform="translate(30.7 -107.95) rotate(-90)" gradientUnits="userSpaceOnUse" id="linear-gradient" x1="-131.11" x2="-131.11" y1="-27.97" y2="-29.62">
      <stop offset="0.15" stop-color="#757575"/>
      <stop offset="0.21" stop-color="#909090"/>
      <stop offset="0.34" stop-color="#c6c6c6"/>
      <stop offset="0.43" stop-color="#e8e8e8"/>
      <stop offset="0.48" stop-color="#f5f5f5"/>
      <stop offset="0.56" stop-color="#dedede"/>
      <stop offset="0.72" stop-color="#a3a3a3"/>
      <stop offset="0.83" stop-color="#757575"/>
    </linearGradient>
    <linearGradient id="linear-gradient-2" x1="-131.11" x2="-131.11" xlink:href="#linear-gradient" y1="-20.75" y2="-22.4"/>
    <linearGradient gradientUnits="userSpaceOnUse" id="linear-gradient-3" x2="11.03" y1="7.22" y2="7.22">
      <stop offset="0" stop-color="#999"/>
      <stop offset="0.03" stop-color="#a3a3a3"/>
      <stop offset="0.16" stop-color="#c6c6c6"/>
      <stop offset="0.28" stop-color="#e0e0e0"/>
      <stop offset="0.4" stop-color="#f0f0f0"/>
      <stop offset="0.48" stop-color="#f5f5f5"/>
      <stop offset="0.57" stop-color="#eee"/>
      <stop offset="0.71" stop-color="#d9d9d9"/>
      <stop offset="0.87" stop-color="#b8b8b8"/>
      <stop offset="1" stop-color="#999"/>
    </linearGradient>
  </defs>
  <title>NTC Thermistor 10k</title>
  <g style="isolation: isolate">
    <g data-name="Layer 1" id="Layer_1">
      <path d="M1.91,17.14" style="fill: none;stroke: #000;stroke-miterlimit: 10;stroke-width: 0.18047345531087905px;stroke-dasharray: 5.7296342849731445,0.954917848110199,0.6366224884986877,0.954917848110199"/>
      <path d="M9.12,17.14" style="fill: none;stroke: #000;stroke-miterlimit: 10;stroke-width: 0.18047345531087905px;stroke-dasharray: 5.7296342849731445,0.954917848110199,0.6366224884986877,0.954917848110199"/>
      <rect height="18.6" style="fill: url(#linear-gradient)" width="1.65" x="1.08" y="13.86"/>
      <rect height="18.6" style="fill: url(#linear-gradient-2)" width="1.65" x="8.3" y="13.86"/>
      <g>
        <path d="M1,6.09A3.86,3.86,0,0,1,.67,7.56,9.54,9.54,0,0,0,.1,9.36a4.62,4.62,0,0,0,0,2.12A10.21,10.21,0,0,0,.66,13.1a3,3,0,0,1,.29.81.58.58,0,0,0,.27.42,1.79,1.79,0,0,0,.79.12q.57,0,.69-.24a4.09,4.09,0,0,0,.23-.84,2.74,2.74,0,0,1,2.59-2.61A2.74,2.74,0,0,1,8.1,13.37a3.41,3.41,0,0,0,.24.84c.07.15.3.23.68.24a1.79,1.79,0,0,0,.79-.12.58.58,0,0,0,.27-.42,3.36,3.36,0,0,1,.29-.81,9.26,9.26,0,0,0,.51-1.62,4.62,4.62,0,0,0,0-2.12,10.35,10.35,0,0,0-.56-1.8A3.71,3.71,0,0,1,10,6.09V4.51a4.52,4.52,0,0,0-9,0" style="fill: url(#linear-gradient-3)"/>
        <path d="M5.51,0a4.49,4.49,0,0,0-4.2,2.9H9.72A4.5,4.5,0,0,0,5.51,0Z" style="fill: #ffe2a8;mix-blend-mode: multiply"/>
        <path d="M.15,11.48A10.21,10.21,0,0,0,.66,13.1a3,3,0,0,1,.29.81.58.58,0,0,0,.27.42,1.79,1.79,0,0,0,.79.12q.57,0,.69-.24a4.09,4.09,0,0,0,.23-.84,2.74,2.74,0,0,1,2.59-2.61A2.74,2.74,0,0,1,8.1,13.37a3.41,3.41,0,0,0,.24.84c.07.15.3.23.68.24a1.79,1.79,0,0,0,.79-.12.58.58,0,0,0,.27-.42,3.36,3.36,0,0,1,.29-.81,9.26,9.26,0,0,0,.51-1.62A4.63,4.63,0,0,0,11,9.6H.06A4.63,4.63,0,0,0,.15,11.48Z" style="fill: #ffe2a8;mix-blend-mode: multiply"/>
        <path d="M9.72,2.9H1.31A4.31,4.31,0,0,0,1,4.51v.65h9V4.51A4.31,4.31,0,0,0,9.72,2.9Z" style="fill: #e44833;opacity: 0.88"/>
        <path d="M10.37,7.56,10.3,7.4H.73l-.06.16A9.54,9.54,0,0,0,.1,9.36c0,.08,0,.16,0,.24H11c0-.08,0-.16,0-.24A10.35,10.35,0,0,0,10.37,7.56Z" style="fill: #805835;opacity: 0.88"/>
        <path d="M10,5.16H1v.93A3.7,3.7,0,0,1,.73,7.4H10.3A3.7,3.7,0,0,1,10,6.09Z" style="fill: #0f0909;opacity: 0.88"/>
      </g>
    </g>
    <g id="Connectors">
      <rect data-cir-type="male" height="1.65" id="circuitoCon_con1" style="fill: none" width="1.65" x="1.08" y="30.81"/>
      <rect data-cir-type="male" height="1.65" id="circuitoCon_con0" style="fill: none" width="1.65" x="8.3" y="30.81"/>
    </g>
  </g>
</svg>