<?xml version="1.0" ?><svg height="69.03mm" viewBox="0 0 65.1 195.66" width="22.97mm" xmlns="http://www.w3.org/2000/svg" xmlns:xlink="http://www.w3.org/1999/xlink">
  <defs>
    <linearGradient gradientTransform="matrix(0.99, 0.14, -0.14, 0.99, -0.48, -2.21)" gradientUnits="userSpaceOnUse" id="linear-gradient" x1="22.56" x2="28.66" y1="38.13" y2="38.13">
      <stop offset="0.11" stop-color="#7c736c"/>
      <stop offset="0.45" stop-color="#b5afac"/>
      <stop offset="0.71" stop-color="#dddad9"/>
    </linearGradient>
    <linearGradient gradientTransform="matrix(1, 0, 0, 1, 0, 0)" id="linear-gradient-2" x1="20.81" x2="26.91" xlink:href="#linear-gradient" y1="12.52" y2="12.52"/>
    <linearGradient gradientUnits="userSpaceOnUse" id="linear-gradient-3" x1="43.11" x2="48.51" y1="36.79" y2="36.79">
      <stop offset="0" stop-color="#b5afac"/>
      <stop offset="0.54" stop-color="#dddad9"/>
      <stop offset="0.9" stop-color="#7c736c"/>
    </linearGradient>
    <linearGradient gradientTransform="matrix(1, 0, 0, 1, 0, 0)" id="linear-gradient-4" x1="16.93" x2="23.03" xlink:href="#linear-gradient" y1="31.12" y2="31.12"/>
    <linearGradient gradientTransform="matrix(1, 0, 0, 1, 0, 0)" id="linear-gradient-5" x1="18.19" x2="24.29" xlink:href="#linear-gradient" y1="20.89" y2="20.89"/>
    <linearGradient id="linear-gradient-6" x1="42.98" x2="48.35" xlink:href="#linear-gradient-3" y1="28.02" y2="28.02"/>
    <linearGradient gradientUnits="userSpaceOnUse" id="linear-gradient-7" x1="0.09" x2="65.06" y1="147.17" y2="147.17">
      <stop offset="0" stop-color="#f4f1ec"/>
      <stop offset="0.35" stop-color="#807e7d"/>
      <stop offset="0.66" stop-color="#fff"/>
      <stop offset="0.83" stop-color="#9f9d9c"/>
    </linearGradient>
    <linearGradient data-name="Steel 02" gradientUnits="userSpaceOnUse" id="Steel_02" x1="0.57" x2="64.42" y1="133.66" y2="133.66">
      <stop offset="0" stop-color="#e5e2df"/>
      <stop offset="0" stop-color="#d8d4d0"/>
      <stop offset="0" stop-color="#ccc7c2"/>
      <stop offset="0.07" stop-color="#bdb9b4"/>
      <stop offset="0.15" stop-color="#a7a3a0"/>
      <stop offset="0.52" stop-color="#e0e1e2"/>
      <stop offset="0.62" stop-color="#d3d3d3"/>
      <stop offset="0.82" stop-color="#b2afac"/>
      <stop offset="0.88" stop-color="#a7a3a0"/>
      <stop offset="1" stop-color="#d1d3d4"/>
      <stop offset="1" stop-color="#a7a9ac"/>
    </linearGradient>
    <linearGradient id="linear-gradient-8" x1="4.89" x2="60.29" xlink:href="#linear-gradient-7" y1="144.32" y2="144.32"/>
    <linearGradient gradientUnits="userSpaceOnUse" id="linear-gradient-9" x1="24.47" x2="40.72" y1="10.03" y2="10.03">
      <stop offset="0" stop-color="#f4f1ec"/>
      <stop offset="0.39" stop-color="#c6b499"/>
      <stop offset="0.66" stop-color="#fff"/>
      <stop offset="0.78" stop-color="#d7cbb8"/>
      <stop offset="0.92" stop-color="#c6b499"/>
      <stop offset="1" stop-color="#c6b499"/>
    </linearGradient>
    <linearGradient id="Steel_02-2" x1="21.71" x2="43.42" xlink:href="#Steel_02" y1="4.35" y2="4.35"/>
    <linearGradient id="Steel_02-3" x1="21.7" x2="43.42" xlink:href="#Steel_02" y1="27.56" y2="27.56"/>
    <linearGradient id="Steel_02-4" x1="13.39" x2="50.81" xlink:href="#Steel_02" y1="10.02" y2="10.02"/>
    <linearGradient id="Steel_02-5" x1="13.39" x2="50.6" xlink:href="#Steel_02" y1="10.02" y2="10.02"/>
    <linearGradient id="Steel_02-6" x1="13.39" x2="50.81" xlink:href="#Steel_02" y1="10.06" y2="10.06"/>
    <linearGradient gradientUnits="userSpaceOnUse" id="linear-gradient-10" x1="5.58" x2="59.58" y1="45.98" y2="45.98">
      <stop offset="0" stop-color="#a7a9ac"/>
      <stop offset="0" stop-color="#d1d3d4"/>
      <stop offset="0.12" stop-color="#a7a3a0"/>
      <stop offset="0.18" stop-color="#b2afac"/>
      <stop offset="0.38" stop-color="#d3d3d3"/>
      <stop offset="0.48" stop-color="#e0e1e2"/>
      <stop offset="0.85" stop-color="#a7a3a0"/>
      <stop offset="0.93" stop-color="#bdb9b4"/>
      <stop offset="1" stop-color="#ccc7c2"/>
      <stop offset="1" stop-color="#d8d4d0"/>
      <stop offset="1" stop-color="#e5e2df"/>
    </linearGradient>
    <linearGradient id="linear-gradient-11" x1="5.58" x2="59.11" xlink:href="#linear-gradient-10" y1="45.98" y2="45.98"/>
    <linearGradient id="linear-gradient-12" x1="5.58" x2="59.11" xlink:href="#linear-gradient-10" y1="46.04" y2="46.04"/>
    <linearGradient gradientTransform="translate(-88.16 89.83)" id="Steel_02-7" x1="39.55" x2="142.34" xlink:href="#Steel_02" y1="2.11" y2="2.11"/>
    <linearGradient gradientTransform="translate(-87.71 89.38)" id="Steel_02-8" x1="39.55" x2="141.45" xlink:href="#Steel_02" y1="2.11" y2="2.11"/>
    <linearGradient gradientTransform="translate(-87.77 89.32)" id="Steel_02-9" x1="39.55" x2="141.45" xlink:href="#Steel_02" y1="2.17" y2="2.17"/>
    <linearGradient gradientTransform="translate(-28.63 149.35)" id="Steel_02-10" x1="39.55" x2="142.34" xlink:href="#Steel_02" y1="-57.41" y2="-57.41"/>
    <linearGradient gradientTransform="translate(-28.19 148.9)" id="Steel_02-11" x1="39.55" x2="141.45" xlink:href="#Steel_02" y1="-57.41" y2="-57.41"/>
    <linearGradient gradientTransform="translate(-28.25 148.85)" id="Steel_02-12" x1="39.55" x2="141.45" xlink:href="#Steel_02" y1="-57.36" y2="-57.36"/>
    <linearGradient gradientUnits="userSpaceOnUse" id="linear-gradient-13" x1="23.48" x2="30.01" y1="62.01" y2="62.01">
      <stop offset="0.53" stop-color="#d6d0c8"/>
      <stop offset="0.67" stop-color="#d6d0c8"/>
      <stop offset="0.84" stop-color="#fff"/>
      <stop offset="0.91" stop-color="#dcd7d0"/>
    </linearGradient>
    <linearGradient data-name="Silver 03" gradientUnits="userSpaceOnUse" id="Silver_03" x1="23.48" x2="30.01" y1="61.99" y2="61.99">
      <stop offset="0" stop-color="#e5e2df"/>
      <stop offset="0" stop-color="#ded9d6"/>
      <stop offset="0.06" stop-color="#cfcac9"/>
      <stop offset="0.18" stop-color="#a8a4a7"/>
      <stop offset="0.26" stop-color="#8b878d"/>
      <stop offset="0.52" stop-color="#f3f4f4"/>
      <stop offset="0.58" stop-color="#e5e5e6"/>
      <stop offset="0.7" stop-color="#c0bec0"/>
      <stop offset="0.86" stop-color="#858085"/>
      <stop offset="0.88" stop-color="#807b80"/>
      <stop offset="1" stop-color="#d1d3d4"/>
      <stop offset="1" stop-color="#a7a9ac"/>
    </linearGradient>
    <linearGradient id="Steel_02-13" x1="6.04" x2="59.04" xlink:href="#Steel_02" y1="143.34" y2="143.34"/>
    <linearGradient id="Steel_02-14" x1="5.58" x2="59.58" xlink:href="#Steel_02" y1="51.41" y2="51.41"/>
    <linearGradient gradientUnits="userSpaceOnUse" id="linear-gradient-14" x1="9.63" x2="55.49" y1="97.33" y2="97.33">
      <stop offset="0.02" stop-color="#873c00"/>
      <stop offset="0.07" stop-color="#782200"/>
      <stop offset="0.28" stop-color="#813600"/>
      <stop offset="0.38" stop-color="#b46407"/>
      <stop offset="0.5" stop-color="#a25400"/>
      <stop offset="0.59" stop-color="#c7760e"/>
      <stop offset="0.66" stop-color="#cb7910"/>
      <stop offset="0.72" stop-color="#ffaf29"/>
      <stop offset="0.81" stop-color="#d88516"/>
      <stop offset="0.9" stop-color="#b76707"/>
      <stop offset="0.96" stop-color="#b76707"/>
    </linearGradient>
    <linearGradient id="linear-gradient-15" x1="58.73" x2="58.73" xlink:href="#linear-gradient-7" y1="146.74" y2="146.74"/>
    <linearGradient id="linear-gradient-16" x1="43.38" x2="45.59" xlink:href="#linear-gradient-3" y1="17.92" y2="17.92"/>
    <linearGradient data-name="Silver 02" gradientUnits="userSpaceOnUse" id="Silver_02" x1="17.29" x2="49.06" y1="24.23" y2="24.23">
      <stop offset="0" stop-color="#bfbdbe"/>
      <stop offset="0.04" stop-color="#cccbcc"/>
      <stop offset="0.12" stop-color="#e4e3e4"/>
      <stop offset="0.2" stop-color="#f3f2f3"/>
      <stop offset="0.26" stop-color="#f8f7f8"/>
      <stop offset="0.31" stop-color="#f2f1f2"/>
      <stop offset="0.37" stop-color="#e1e0e1"/>
      <stop offset="0.43" stop-color="#c6c4c5"/>
      <stop offset="0.45" stop-color="#bfbdbe"/>
      <stop offset="0.58" stop-color="#bfbdbe"/>
      <stop offset="0.62" stop-color="#cecccd"/>
      <stop offset="0.7" stop-color="#e5e3e4"/>
      <stop offset="0.77" stop-color="#f2f0f1"/>
      <stop offset="0.83" stop-color="#f7f5f6"/>
      <stop offset="1" stop-color="#c0bebf"/>
    </linearGradient>
    <linearGradient id="Silver_02-2" x1="16" x2="49.26" xlink:href="#Silver_02" y1="33.65" y2="33.65"/>
    <linearGradient gradientTransform="translate(0.21 1.26) rotate(-3.24)" id="Silver_02-3" x1="13.39" x2="39.66" xlink:href="#Silver_02" y1="40.72" y2="40.72"/>
    <linearGradient gradientTransform="matrix(1, 0, 0, 1, 0, 0)" id="linear-gradient-17" x1="21.21" x2="21.21" xlink:href="#linear-gradient" y1="11.94" y2="11.94"/>
    <linearGradient gradientUnits="userSpaceOnUse" id="linear-gradient-18" x1="20.27" x2="46.24" y1="18.52" y2="18.52">
      <stop offset="0.16" stop-color="#c1bcba"/>
      <stop offset="0.44" stop-color="#61564e"/>
      <stop offset="0.54" stop-color="#665c54"/>
      <stop offset="0.67" stop-color="#7c736c"/>
      <stop offset="0.76" stop-color="#8e8680"/>
      <stop offset="0.94" stop-color="#dddad9"/>
    </linearGradient>
    <linearGradient id="linear-gradient-19" x1="20.27" x2="46.24" xlink:href="#linear-gradient-18" y1="18.39" y2="18.39"/>
    <linearGradient id="linear-gradient-20" x1="20.27" x2="46.24" xlink:href="#linear-gradient-18" y1="18.36" y2="18.36"/>
    <linearGradient gradientTransform="matrix(1, 0, 0, 1, 0, 0)" id="linear-gradient-21" x1="20.81" x2="26.91" xlink:href="#linear-gradient" y1="12.63" y2="12.63"/>
    <linearGradient id="linear-gradient-22" x1="20.27" x2="46.24" xlink:href="#linear-gradient-18" y1="12.63" y2="12.63"/>
    <linearGradient gradientTransform="matrix(1, 0, 0, 1, 0, 0)" id="linear-gradient-23" x1="20.81" x2="26.91" xlink:href="#linear-gradient" y1="11.81" y2="11.81"/>
    <linearGradient id="linear-gradient-24" x1="20.27" x2="46.24" xlink:href="#linear-gradient-18" y1="11.81" y2="11.81"/>
    <linearGradient id="Silver_02-4" x1="20.27" x2="46.24" xlink:href="#Silver_02" y1="15.14" y2="15.14"/>
  </defs>
  <title>Large Push-Pull Solenoid</title>
  <g data-name="Layer 2" id="Layer_2">
    <path d="M17.12,39.81c0-.19,3.13-.31,5.55-.45l-.51-1a15.29,15.29,0,0,0-5.59.59Z" style="fill: url(#linear-gradient)"/>
    <path d="M22.22,12c-.47.16-.79.41-.83.7a.59.59,0,0,0,.09.37l.51.07c1-.26,3.14-.65,4.91-1l-.1-.15H22.22Z" style="fill: url(#linear-gradient-2)"/>
    <path d="M43.35,36.58a40.09,40.09,0,0,0,4.71-.73c1.42,1-.64,1.56-5,1.87Z" style="fill: url(#linear-gradient-3)"/>
    <path d="M17.59,32.18c0-.19,3.06-.74,5.44-1.21l-.64-.92a15.29,15.29,0,0,0-5.46,1.36Z" style="fill: url(#linear-gradient-4)"/>
    <path d="M18.85,22c0-.19,3.06-.74,5.44-1.21l-.64-.92a15.29,15.29,0,0,0-5.46,1.36Z" style="fill: url(#linear-gradient-5)"/>
    <path d="M43,27.86c1.76-.25,3.45-.54,5-.88q.7.56,0,1.12a23.9,23.9,0,0,1-5,.95Z" style="fill: url(#linear-gradient-6)"/>
    <path d="M64.32,142.84a7.46,7.46,0,0,1-7.54,8l-48.55,0A7.6,7.6,0,0,1,2.9,148.6a7.66,7.66,0,0,1-2.09-5.76H.1a8.54,8.54,0,0,0,2.37,6.23,8.51,8.51,0,0,0,5.95,2.49H56.83a8.41,8.41,0,0,0,8.22-8.77Z" style="fill: url(#linear-gradient-7)"/>
    <path d="M56.09,151.13H8.89A8.33,8.33,0,0,1,.57,142.8V124.51a8.33,8.33,0,0,1,8.33-8.33h47.2a8.33,8.33,0,0,1,8.33,8.33V142.8a8.17,8.17,0,0,1-8.33,8.33Z" style="fill: url(#Steel_02)"/>
    <path d="M59.54,142.47c0,.24.34,3.12-.58,3.5a4,4,0,0,1-1.22.09c-.38,0-.69,0-.9,0h-.07l-48.36,0v0H6.88c-.75-.3-1.13-1.27-1.17-2.85l.06-1.36-.88,1v1.82q-.07,1.67,2,2.18h1.5l50.15-.06a2.25,2.25,0,0,0,1.73-2.08v-1.44Z" style="fill: url(#linear-gradient-8)"/>
    <rect height="5.58" style="fill: #131620" width="54.01" x="5.58" y="43.19"/>
    <rect height="3.82" style="fill: url(#linear-gradient-9)" width="16.25" x="24.47" y="8.12"/>
    <path d="M42.84,0H22.3a.59.59,0,0,0-.59.59V8.12H43.42V.59A.59.59,0,0,0,42.84,0Z" style="fill: #d5d2cc"/>
    <rect height="7.53" style="fill: url(#Steel_02-2)" width="21.71" x="21.71" y="0.59"/>
    <rect height="31.26" style="fill: url(#Steel_02-3)" width="21.71" x="21.7" y="11.93"/>
    <g>
      <rect height="3.28" rx="0.21" ry="0.21" style="fill: url(#Steel_02-4)" width="37.42" x="13.39" y="8.38"/>
      <rect height="3.28" rx="0.16" ry="0.16" style="fill: url(#Steel_02-5)" width="37.21" x="13.39" y="8.38"/>
      <rect height="2.75" style="fill: url(#Steel_02-6)" width="37.42" x="13.39" y="8.68"/>
    </g>
    <g>
      <rect height="5.58" rx="0.43" ry="0.43" style="fill: url(#linear-gradient-10)" width="54.01" x="5.58" y="43.19"/>
      <rect height="5.58" rx="0.35" ry="0.35" style="fill: url(#linear-gradient-11)" width="53.54" x="5.58" y="43.19"/>
      <rect height="4.33" style="fill: url(#linear-gradient-12)" width="53.54" x="5.58" y="43.88"/>
    </g>
    <g>
      <rect height="5.58" rx="0.43" ry="0.43" style="fill: url(#Steel_02-7)" transform="translate(94.72 89.15) rotate(90)" width="102.79" x="-48.61" y="89.15"/>
      <rect height="5.58" rx="0.35" ry="0.35" style="fill: url(#Steel_02-8)" transform="translate(94.28 88.7) rotate(90)" width="101.9" x="-48.16" y="88.7"/>
      <rect height="4.33" style="fill: url(#Steel_02-9)" transform="translate(94.22 88.76) rotate(90)" width="101.9" x="-48.22" y="89.33"/>
    </g>
    <g>
      <rect height="5.58" rx="0.43" ry="0.43" style="fill: url(#Steel_02-10)" transform="translate(154.25 29.62) rotate(90)" width="102.79" x="10.92" y="89.15"/>
      <rect height="5.58" rx="0.35" ry="0.35" style="fill: url(#Steel_02-11)" transform="translate(153.8 29.18) rotate(90)" width="101.9" x="11.36" y="88.7"/>
      <rect height="4.33" style="fill: url(#Steel_02-12)" transform="translate(153.74 29.24) rotate(90)" width="101.9" x="11.3" y="89.33"/>
    </g>
    <rect height="2.16" rx="0.24" ry="0.24" style="fill: url(#linear-gradient-13)" width="6.53" x="23.48" y="60.93"/>
    <rect height="1.75" style="fill: url(#Silver_03)" width="6.53" x="23.48" y="61.11"/>
    <rect height="5.48" style="fill: url(#Steel_02-13)" width="52.99" x="6.04" y="140.6"/>
    <rect height="5.28" style="fill: url(#Steel_02-14)" width="54.01" x="5.58" y="48.77"/>
    <rect height="86.55" style="fill: url(#linear-gradient-14)" width="45.86" x="9.63" y="54.05"/>
    <path d="M58.73,146.74" style="fill: url(#linear-gradient-15)"/>
    <line style="fill: none;stroke: #231f20;stroke-miterlimit: 10;stroke-width: 0.019999999552965px" x1="58.24" x2="58.24" y1="146.06" y2="146.77"/>
    <line style="fill: none;stroke: #231f20;stroke-miterlimit: 10;stroke-width: 0.019999999552965px" x1="59.58" x2="60.29" y1="144.71" y2="144.71"/>
    <line style="fill: none;stroke: #231f20;stroke-miterlimit: 10;stroke-width: 0.019999999552965px" x1="6.95" x2="6.95" y1="146.08" y2="146.83"/>
    <line style="fill: none;stroke: #231f20;stroke-miterlimit: 10;stroke-width: 0.019999999552965px" x1="5.6" x2="4.89" y1="144.71" y2="144.71"/>
    <rect height="2.26" style="fill: none" width="4.13" x="60.29" y="141.42"/>
    <path d="M43.38,17.5a2.22,2.22,0,0,0,1.1-.3c.77.2,1,.38,1.11.56,0,.37-.94.63-2.16.87Z" style="fill: url(#linear-gradient-16)"/>
    <path d="M17.35,22.25c1.21,2.11,29.28,3.51,30.69,5.07.33.7-.22,1-1.05,1.07,1.31-.31,2.37-.7,2-1.63-.48-2.09-17.86-2.24-30.07-4.82a.59.59,0,0,1-.19-.41c0-.88,2.83-1.41,3.13-1.46-1.33.17-4.4.64-4.56,1.81A.54.54,0,0,0,17.35,22.25Z" style="fill: url(#Silver_02)"/>
    <path d="M22.38,30.05c-.12,0-5.11.9-5.11.9-1.07.37-1.63.87-1,1.64,1.11.85,13.82,2,28,3.16l2.53.39c1.43.11,1.39.52.45,1.11,1.23-.24,2.32-.55,2-1.45-.49-.55-2.06-.79-3.67-1C35.63,33.66,26.41,33,18.75,32.16L17.89,32c-.19,0-.79-.18-.81-.42s.24-.29.34-.35A26,26,0,0,1,22.38,30.05Z" style="fill: url(#Silver_02-2)"/>
    <path d="M17.09,38.59a1.77,1.77,0,0,0-1,.52.83.83,0,0,0-.26.49.88.88,0,0,0,.33.69c.66.12,1.68.3,2.93.47,2.25.3,3.66.35,7.31.59,2.35.15,1.79.14,4.38.31,2.84.19,6.63.41,11.21.62a.9.9,0,0,0,.26-.57s0-.39-.18-.51a.63.63,0,0,0-.26,0,2,2,0,0,0-.37,0c-.53,0-12.81-1-17.55-1.1-.93,0-1.85-.11-2.77-.13a29.71,29.71,0,0,1-3.21-.35c-.33,0-.95-.14-1-.37s.19-.28.32-.36a2.15,2.15,0,0,1,1-.31c1-.12,1.12-.12,1.12-.12,1.38,0,2.83,0,2.83,0a20.2,20.2,0,0,0-2.68,0A22.86,22.86,0,0,0,17.09,38.59Z" style="fill: url(#Silver_02-3)"/>
    <path d="M21.21,11.94" style="fill: url(#linear-gradient-17)"/>
    <path d="M22.56,11.85l-.31.09h0Z" style="fill: none"/>
    <path d="M22.25,11.94h0Z" style="fill: none"/>
    <path d="M44.46,18.4l-1,.23C43.81,18.56,44.15,18.48,44.46,18.4Z" style="fill: url(#linear-gradient-18)"/>
    <path d="M44.46,18.4l.1,0Z" style="fill: url(#linear-gradient-19)"/>
    <path d="M44.56,18.38l.1,0Z" style="fill: url(#linear-gradient-20)"/>
    <path d="M21.4,12.65c0-.28.36-.53.83-.7a6.67,6.67,0,0,0-1.42.58l.66.77s.19-.12.53-.21L21.48,13A.59.59,0,0,1,21.4,12.65Z" style="fill: url(#linear-gradient-21)"/>
    <path d="M21.4,12.65c0-.28.36-.53.83-.7a6.67,6.67,0,0,0-1.42.58l.66.77s.19-.12.53-.21L21.48,13A.59.59,0,0,1,21.4,12.65Z" style="fill: url(#linear-gradient-22)"/>
    <path d="M23.11,11.77c-.17,0-.31,0-.46.06l-.09,0A3.73,3.73,0,0,1,23.11,11.77Z" style="fill: url(#linear-gradient-23)"/>
    <path d="M23.11,11.77c-.17,0-.31,0-.46.06l-.09,0A3.73,3.73,0,0,1,23.11,11.77Z" style="fill: url(#linear-gradient-24)"/>
    <path d="M46.22,17.06c0-1-3.49-1.4-6.74-1.81-4.76-.61-7.52-.85-16.81-2.07L22,13.09c-.34.09-.54.16-.53.21l-.66-.77A6.67,6.67,0,0,1,22.22,12h-.34c-1,.23-1.58.64-1.62,1.09,0,.12,0,.42.48.83a95.36,95.36,0,0,0,13.65,1.91c4.45.44,8.67.91,10.68,1.6.89.37.55.69-.42,1C45.64,18.08,46.38,17.74,46.22,17.06Z" style="fill: url(#Silver_02-4)"/>
    <rect height="55.06" style="fill: #4d4845" width="3.87" x="27.02" y="140.6"/>
    <rect height="55.06" style="fill: #fd4f57" width="3.87" x="33.1" y="140.6"/>
  </g>
  <g id="Connectors">
    <rect data-cir-type="male" height="3.94" id="circuitoCon_Coil2" style="fill: none" width="3.87" x="27.02" y="191.72"/>
    <rect data-cir-type="male" height="3.94" id="circuitoCon_Coil1" style="fill: none" width="3.9" x="33.07" y="191.72"/>
  </g>
</svg>