<?xml version="1.0" ?><svg height="17.55mm" viewBox="0 0 46.13 49.75" width="16.27mm" xmlns="http://www.w3.org/2000/svg">
  <title>Adafruit HTU21D-F Temperature &amp;amp; Humidity Sensor Breakout Board</title>
  <g id="HOLES">
    <path d="M38.66,0H7.47A7.46,7.46,0,0,0,0,7.47V42.28a7.46,7.46,0,0,0,7.47,7.47H38.66a7.47,7.47,0,0,0,7.47-7.47V7.47A7.47,7.47,0,0,0,38.66,0Zm.22,3.45a3.72,3.72,0,1,1-3.72,3.72A3.71,3.71,0,0,1,38.88,3.45ZM3.33,7.17a3.72,3.72,0,1,1,3.72,3.72A3.72,3.72,0,0,1,3.33,7.17ZM8.82,44.54a1.79,1.79,0,1,1,1.78-1.79A1.79,1.79,0,0,1,8.82,44.54ZM13.2,26.33s-.72.11-.73,1.2,0,3.5,0,3.5l.47.44v.42h-.25l-.22.41-.11.6-1.18,1-.8-.76a9.77,9.77,0,0,0,.8-.71V32.1l-.29-.57v-9.7s0-.7.75-.38l1.62,1.62h1.47s.86.15.32,1.12v.92l-.6.6-.37.62Zm2.85,18.21a1.79,1.79,0,1,1,1.79-1.79A1.79,1.79,0,0,1,16.05,44.54Zm4.33-33.1h-.59v1.13H18.38V11.4s-1.88-.55-1.94.9v.95s-.29.73-1-.35H14.27s-.26-.09-.1.77-1.59.72-1.59.72V12.3L15,9.87h5a.8.8,0,0,0,.73.44S21.29,11.44,20.38,11.44Zm2.86,33.1A1.79,1.79,0,1,1,25,42.75,1.79,1.79,0,0,1,23.24,44.54Zm7.2,0a1.79,1.79,0,1,1,1.78-1.79A1.79,1.79,0,0,1,30.44,44.54Zm4.11-17.37a.73.73,0,1,1,.73-.73A.73.73,0,0,1,34.55,27.17Zm3.08,17.37a1.79,1.79,0,1,1,1.79-1.79A1.79,1.79,0,0,1,37.63,44.54ZM36.56,29.15a.73.73,0,1,1,.73.73A.73.73,0,0,1,36.56,29.15Zm5.16,1.07a.73.73,0,1,1,.73-.73A.73.73,0,0,1,41.72,30.22Zm3.84-14.67H33.87L32.2,17.22l-3.49-4.37H26.92v-1l-.46-.46H24.51L21.06,8H13.5c.24-2.8-1.09-5-3.69-6.82H36.5s-4.14,2.4-3.63,6.21,2.8,6.22,7.41,5.91a6.47,6.47,0,0,0,4.16-3.06c1.15-2.18,1.2,0,1.12.87S45.78,15.55,45.56,15.55Z" style="fill: #1a2c80"/>
    <path d="M20.06,9.87H15L12.58,12.3v2.09s1.75.13,1.59-.72.1-.77.1-.77H15.4c.75,1.08,1,.35,1,.35V12.3c.06-1.45,1.94-.9,1.94-.9v1.17h1.41V11.44h.59c.91,0,.41-1.13.41-1.13A.8.8,0,0,1,20.06,9.87Zm-4.83,2.39a.73.73,0,1,1,.73-.73A.73.73,0,0,1,15.23,12.26Z" style="fill: #0b5597"/>
    <path d="M15.05,25.11v-.92c.54-1-.32-1.12-.32-1.12H13.26l-1.62-1.62c-.7-.32-.75.38-.75.38v9.7l.29.57v.37a9.77,9.77,0,0,1-.8.71l.8.76,1.18-1,.11-.6.22-.41h.25v-.42L12.47,31s0-2.4,0-3.5.73-1.2.73-1.2h.88l.37-.62Zm-2.55.25a.73.73,0,1,1,.73-.73A.73.73,0,0,1,12.5,25.36Z" style="fill: #0b5597"/>
    <path d="M45.56,11.06c.08-.9,0-3.05-1.12-.87a6.47,6.47,0,0,1-4.16,3.06c-4.61.31-6.9-2.09-7.41-5.91S36.5,1.13,36.5,1.13H9.81c2.6,1.78,3.93,4,3.69,6.82h7.56l3.45,3.46h1.95l.46.46v1h1.79l3.49,4.37,1.67-1.67H45.56C45.78,15.55,45.48,12,45.56,11.06Zm-12,2.24a.73.73,0,1,1,.73-.73A.72.72,0,0,1,33.6,13.3Z" style="fill: #0b5597"/>
  </g>
  <g id="LINES">
    <polyline points="8.86 14.39 14.66 8.91 20.63 8.91 25.63 13.91 30.13 13.91" style="fill: none;stroke: #0b5597;stroke-linecap: round;stroke-linejoin: round;stroke-width: 0.75px"/>
    <polyline points="4.34 22.16 4.34 20.91 6.74 18.51 7.92 19.23 11.56 19.23 14.26 21.92 18.02 21.92" style="fill: none;stroke: #0b5597;stroke-linecap: round;stroke-linejoin: round"/>
    <line style="fill: none;stroke: #0b5597;stroke-linecap: round;stroke-linejoin: round" x1="6.74" x2="6.74" y1="18.51" y2="15.55"/>
    <line style="fill: none;stroke: #0b5597;stroke-linecap: round;stroke-linejoin: round;stroke-width: 0.75px" x1="6.87" x2="9.5" y1="31.31" y2="33.94"/>
    <line style="fill: none;stroke: #0b5597;stroke-linecap: round;stroke-linejoin: round;stroke-width: 0.75px" x1="4.06" x2="4.06" y1="31.31" y2="35.06"/>
    <polyline points="3.94 35.67 3.94 37.9 7.22 41.18" style="fill: none;stroke: #0b5597;stroke-linecap: round;stroke-linejoin: round"/>
    <polyline points="10.38 41.18 13.44 38.12 15 38.12" style="fill: none;stroke: #0b5597;stroke-linecap: round;stroke-linejoin: round"/>
    <polyline points="16.55 33.59 19.62 36.85 19.62 38.97 17.5 41.09" style="fill: none;stroke: #0b5597;stroke-linecap: round;stroke-linejoin: round"/>
    <line style="fill: none;stroke: #0b5597;stroke-linecap: round;stroke-linejoin: round" x1="16.55" x2="20.79" y1="29.81" y2="29.81"/>
    <polyline points="15.84 33.83 17.59 33.83 18.63 32.79 20.38 32.79" style="fill: none;stroke: #0b5597;stroke-linecap: round;stroke-linejoin: round"/>
    <line style="fill: none;stroke: #0b5597;stroke-linecap: round;stroke-linejoin: round" x1="25.7" x2="29.75" y1="33.57" y2="35"/>
    <line style="fill: none;stroke: #0b5597;stroke-linecap: round;stroke-linejoin: round" x1="31.59" x2="36.95" y1="35.36" y2="40.56"/>
    <path d="M32,29.13h3.85" style="fill: none;stroke: #0b5597;stroke-linecap: round;stroke-linejoin: round"/>
    <line style="fill: none;stroke: #0b5597;stroke-linecap: round;stroke-linejoin: round" x1="38.47" x2="40.3" y1="28.26" y2="26.43"/>
    <line style="fill: none;stroke: #0b5597;stroke-linecap: round;stroke-linejoin: round" x1="40.66" x2="37.25" y1="29.49" y2="32.9"/>
    <polyline points="36.06 21.63 37.47 20.33 40.66 20.33" style="fill: none;stroke: #0b5597;stroke-linecap: round;stroke-linejoin: round"/>
    <polyline points="32.43 18.84 34.23 16.59 43.89 16.59 44.15 16.59 44.15 32.28" style="fill: none;stroke: #0b5597;stroke-linecap: round;stroke-linejoin: round"/>
    <line style="fill: none;stroke: #0b5597;stroke-linecap: round;stroke-linejoin: round" x1="26.28" x2="29.48" y1="24.66" y2="24.66"/>
    <polyline points="15.1 27.81 15.1 26.4 16.66 24.84" style="fill: none;stroke: #0b5597;stroke-linecap: round;stroke-linejoin: round"/>
    <polygon points="12.78 16.78 12.78 19.11 14.31 20.64 15.05 20.64 15.05 20.05 14.88 20.05 14.88 18.51 13.91 18.51 13.91 16.66 12.78 16.78" style="fill: #0b5597"/>
    <path d="M15.89,17.56v-.9s.27-.61.78-.07c0,0,.09.52,1.71.3v-.3H19.7v.25h6.64l.36-.36v-.73a.51.51,0,0,1,.89,0c.52.61.77.61.77.61a.4.4,0,0,1,.19.7c-.41.53-.64.34-.6,1.24s0,2.58,0,2.58.13.51.91.49,2.55,0,2.55,0v1.18H28.75s-.74.08-.87.66-.83.46-.88.26-.22-.46.11-.65v-.49h-.83v-.85h.85V21a.53.53,0,0,1,0-1.05V18.41L26.7,18H15.89Z" style="fill: #0b5597"/>
    <g>
      <path d="M44.77,42.34a3.47,3.47,0,0,1-2.77.52c-.86-.3-1.28-.73-1.33.17a1.75,1.75,0,0,1-.11.48,3.24,3.24,0,0,1-6.4-.76,3.32,3.32,0,0,1,.27-1.3,3.16,3.16,0,0,1,.35-.69c.24-.35,0-.85-.75-1.32s-1.39-2.16-2.31-2.33A23.13,23.13,0,0,0,28.45,37s-.75.17-.64-.89c0,0,.19-.59-.61-.61H25.78s-.54-.19-.49.94,0,1.19-.34,1.32a27.83,27.83,0,0,1-3.3,0s-1-.85-.93.49,0,1.22,0,1.22l-1.64,1.68v.59h.23v1.54a.92.92,0,0,0-.26.61,3.56,3.56,0,0,1-2.41,1.77,3.19,3.19,0,0,1-3.26-1.35,2.72,2.72,0,0,1-.25-2.86s.39-1-.44-.82l-.52.52v4.2l-.51.39H6.3l-.49-.49V41.63L2.89,38.7v-1H2l-.44-.44s-.12-4.48,0-4.61a1.25,1.25,0,0,1,1.07-.7V20.42L1,19.72V43.06a6.43,6.43,0,0,0,3.77,5.38H41.82s3.84-1.85,3.74-5.91C45.56,42.53,45.52,41.86,44.77,42.34Zm-18,.84h-.32a3.23,3.23,0,0,1-2.55,2.75V46H22.42v-.11A3.22,3.22,0,0,1,20,43.18H19.6V41.93h.51a3.25,3.25,0,0,1,2.31-2.31v-.31H23.9v.26a3.25,3.25,0,0,1,2.48,2.36h.39ZM30.44,46a3.25,3.25,0,1,1,3.25-3.25A3.24,3.24,0,0,1,30.44,46Z" style="fill: #0b5597"/>
      <path d="M23.24,46h0Z" style="fill: #0b5597"/>
      <path d="M23.9,39.57v-.26H22.42v.31a3.19,3.19,0,0,1,.82-.12A2.84,2.84,0,0,1,23.9,39.57Z" style="fill: #0b5597"/>
      <path d="M23.9,40.56v-1a2.84,2.84,0,0,0-.66-.07,3.19,3.19,0,0,0-.82.12v.94Z" style="fill: #0b5597"/>
      <path d="M23.9,46v-.06a3.07,3.07,0,0,1-.53.06Z" style="fill: #0b5597"/>
      <path d="M22.42,46h.7a3.2,3.2,0,0,1-.7-.11Z" style="fill: #0b5597"/>
      <path d="M22.42,44.74v1.14a3.2,3.2,0,0,0,.7.11h.25a3.07,3.07,0,0,0,.53-.06V44.74Z" style="fill: #0b5597"/>
      <path d="M20.11,41.93H19.6v1.25H20a2.43,2.43,0,0,1,.07-1.25Z" style="fill: #0b5597"/>
      <path d="M21.08,41.93h-1A2.43,2.43,0,0,0,20,43.18h1Z" style="fill: #0b5597"/>
      <path d="M26.49,42.75a3.13,3.13,0,0,1,0,.43h.32V41.93h-.39A3.12,3.12,0,0,1,26.49,42.75Z" style="fill: #0b5597"/>
      <path d="M26.38,41.93H25.29v1.25h1.16a2.79,2.79,0,0,0-.07-1.25Z" style="fill: #0b5597"/>
    </g>
    <path d="M6.22,40v5.16h5.16V40Zm2.5,4a1.46,1.46,0,0,1,0-2.91A1.46,1.46,0,0,1,8.72,44.08Z" style="fill: #e7e4de"/>
  </g>
  <g id="text">
    <g>
      <path d="M13.58,4.09V1.55a.17.17,0,0,1,.05-.13.19.19,0,0,1,.26,0,.17.17,0,0,1,0,.13V2.63h1.12V1.55a.18.18,0,0,1,.06-.13.17.17,0,0,1,.13,0,.21.21,0,0,1,.13,0,.22.22,0,0,1,0,.14V4.09a.18.18,0,0,1-.06.13.18.18,0,0,1-.12,0,.22.22,0,0,1-.14,0,.21.21,0,0,1,0-.13V3H14V4.09a.18.18,0,0,1-.06.13.19.19,0,0,1-.13,0,.17.17,0,0,1-.18-.18Z" style="fill: #fff"/>
      <path d="M16.28,1.87v-.5h1.85v.5a.15.15,0,0,1-.05.13.19.19,0,0,1-.32-.13V1.74h-.37V4.09a.17.17,0,0,1-.18.18.19.19,0,0,1-.13,0A.18.18,0,0,1,17,4.09V1.74h-.37v.13a.21.21,0,0,1,0,.13.21.21,0,0,1-.13,0,.19.19,0,0,1-.13,0A.18.18,0,0,1,16.28,1.87Z" style="fill: #fff"/>
      <path d="M19,3.72V1.56A.18.18,0,0,1,19,1.42a.19.19,0,0,1,.13,0,.21.21,0,0,1,.13,0,.21.21,0,0,1,.05.13V3.72a.18.18,0,0,0,.06.13.17.17,0,0,0,.12,0h.76a.17.17,0,0,0,.18-.18V1.56a.22.22,0,0,1,.05-.14.21.21,0,0,1,.13,0,.19.19,0,0,1,.13,0,.18.18,0,0,1,.06.14V3.72a.54.54,0,0,1-.17.39.51.51,0,0,1-.38.16h-.76a.49.49,0,0,1-.38-.16A.54.54,0,0,1,19,3.72Z" style="fill: #fff"/>
      <path d="M23.35,4.27H21.69V3a.35.35,0,0,1,.1-.26.38.38,0,0,1,.26-.11h1.12V1.74H21.86a.18.18,0,0,1-.14-.06.19.19,0,0,1,0-.13.21.21,0,0,1,0-.13.22.22,0,0,1,.14,0h1.31a.34.34,0,0,1,.26.11.35.35,0,0,1,.11.26v.89a.36.36,0,0,1-.11.26.38.38,0,0,1-.26.11H22.05v.9h1.3a.19.19,0,0,1,.13.05.18.18,0,0,1,.06.13.21.21,0,0,1-.19.19Z" style="fill: #fff"/>
      <path d="M24.56,3.9h.56V1.74h-.55a.18.18,0,0,1-.13-.06.15.15,0,0,1-.05-.13.17.17,0,0,1,.05-.13.21.21,0,0,1,.13,0h.92V3.9h.37V3.13A.18.18,0,0,1,25.91,3,.18.18,0,0,1,26,3a.19.19,0,0,1,.13,0,.17.17,0,0,1,0,.13v1a.15.15,0,0,1,0,.13.16.16,0,0,1-.13.06H24.56a.18.18,0,0,1-.13-.06.18.18,0,0,1,.13-.31Z" style="fill: #fff"/>
      <path d="M27.27,1.37H28a.48.48,0,0,1,.27.09.53.53,0,0,1,.2.22l.36.73a.87.87,0,0,1,.1.42.91.91,0,0,1-.1.41L28.46,4a.56.56,0,0,1-.2.23.57.57,0,0,1-.29.08h-.7a.19.19,0,0,1-.13,0,.18.18,0,0,1-.06-.13.21.21,0,0,1,.19-.19h.19V1.74h-.19a.18.18,0,0,1-.13-.06.15.15,0,0,1-.05-.13.17.17,0,0,1,.05-.13A.21.21,0,0,1,27.27,1.37Zm.56.37V3.9H28a.2.2,0,0,0,.19-.12l.36-.72a.65.65,0,0,0,.07-.23.46.46,0,0,0-.06-.23l-.37-.75A.21.21,0,0,0,28,1.74Z" style="fill: #fff"/>
      <path d="M31.64,2.81V3a.21.21,0,0,1-.05.13.18.18,0,0,1-.13.06H30a.16.16,0,0,1-.13-.06A.18.18,0,0,1,29.79,3V2.81A.21.21,0,0,1,30,2.62h1.48a.16.16,0,0,1,.12.06A.15.15,0,0,1,31.64,2.81Z" style="fill: #fff"/>
      <path d="M32.49,4.09V1.37h1.67a.21.21,0,0,1,.13,0,.21.21,0,0,1,.05.13.19.19,0,0,1-.05.13.18.18,0,0,1-.13.06h-1.3v.58h.93a.15.15,0,0,1,.13.05.19.19,0,0,1,0,.26.15.15,0,0,1-.13.05h-.93V4.09a.17.17,0,0,1-.18.18.19.19,0,0,1-.13,0A.18.18,0,0,1,32.49,4.09Z" style="fill: #fff"/>
    </g>
    <g>
      <path d="M14.35,7.7V5.54a.14.14,0,0,1,.16-.16.17.17,0,0,1,.11,0,.17.17,0,0,1,0,.12v.92h1V5.54a.17.17,0,0,1,0-.12.15.15,0,0,1,.11,0,.14.14,0,0,1,.11,0,.18.18,0,0,1,0,.12V7.7a.16.16,0,0,1-.27.11.15.15,0,0,1,0-.11V6.77h-.95V7.7a.17.17,0,0,1-.16.16.14.14,0,0,1-.11-.05A.13.13,0,0,1,14.35,7.7Z" style="fill: #fff"/>
      <path d="M17.41,7.54l.52-.34v-1a.16.16,0,0,1,.32,0V7.7a.16.16,0,0,1-.32,0V7.58l-.27.17a.56.56,0,0,1-.32.11h-.15a.47.47,0,0,1-.33-.14.45.45,0,0,1-.14-.33l0-1.18a.17.17,0,0,1,0-.11.17.17,0,0,1,.12,0,.17.17,0,0,1,.11,0,.15.15,0,0,1,0,.11L17,7.37c0,.11.06.17.19.17Z" style="fill: #fff"/>
      <path d="M18.93,7.7V6.21a.15.15,0,0,1,0-.11.16.16,0,0,1,.12,0,.14.14,0,0,1,.15.12.39.39,0,0,1,.29-.13.4.4,0,0,1,.31.16.47.47,0,0,1,.33-.16.36.36,0,0,1,.25.11.35.35,0,0,1,.11.26l0,1.28a.16.16,0,0,1-.32,0l0-1.23c0-.07,0-.1-.06-.1a.09.09,0,0,0-.06,0l-.19.15V7.7a.16.16,0,0,1-.05.11.14.14,0,0,1-.11,0,.14.14,0,0,1-.15-.15V6.45a.07.07,0,0,0-.07-.08l-.06,0-.23.19V7.7a.15.15,0,0,1,0,.11.15.15,0,0,1-.22,0A.13.13,0,0,1,18.93,7.7Z" style="fill: #fff"/>
      <path d="M22.54,7.85h-1a.14.14,0,0,1-.15-.15.17.17,0,0,1,0-.12.15.15,0,0,1,.11,0h.32V6.37h-.31a.17.17,0,0,1-.16-.16.16.16,0,0,1,.05-.11.14.14,0,0,1,.11,0h.47a.14.14,0,0,1,.11,0,.13.13,0,0,1,0,.11V7.54h.31a.17.17,0,0,1,.12,0,.16.16,0,0,1,0,.12.14.14,0,0,1-.15.15ZM21.9,5.24h.16a.14.14,0,0,1,.11,0,.12.12,0,0,1,0,.11v.13a.13.13,0,0,1,0,.11.12.12,0,0,1-.11.05H21.9a.17.17,0,0,1-.12-.05.14.14,0,0,1,0-.1V5.4a.14.14,0,0,1,.05-.11A.16.16,0,0,1,21.9,5.24Z" style="fill: #fff"/>
      <path d="M24.84,6.27V5.54a.16.16,0,0,1,0-.12.15.15,0,0,1,.11,0,.17.17,0,0,1,.12,0,.16.16,0,0,1,0,.12V7.7a.15.15,0,0,1,0,.11.16.16,0,0,1-.11.05.17.17,0,0,1-.12-.05.15.15,0,0,1,0-.11V7.63a.66.66,0,0,1-.43.23h-.27a.53.53,0,0,1-.32-.14l-.13-.11a.5.5,0,0,1-.08-.15.42.42,0,0,1,0-.18V6.64a.52.52,0,0,1,0-.21.58.58,0,0,1,.11-.15l.13-.11a.47.47,0,0,1,.32-.12h.23a.53.53,0,0,1,.33.13Zm-.46.1h-.21a.21.21,0,0,0-.13,0l-.1.09a.17.17,0,0,0-.05.12v.66a.17.17,0,0,0,.06.12l.1.09a.25.25,0,0,0,.11,0h.25a.22.22,0,0,0,.12-.06l.25-.2a.18.18,0,0,0,.06-.14V6.8a.21.21,0,0,0-.07-.17l-.25-.21A.2.2,0,0,0,24.38,6.37Z" style="fill: #fff"/>
      <path d="M27.15,7.85h-1A.14.14,0,0,1,26,7.7a.17.17,0,0,1,0-.12.15.15,0,0,1,.11,0h.33V6.37H26.2A.17.17,0,0,1,26,6.21a.16.16,0,0,1,.05-.11.14.14,0,0,1,.11,0h.48a.16.16,0,0,1,.11,0,.15.15,0,0,1,0,.11V7.54h.32a.15.15,0,0,1,.11,0,.17.17,0,0,1,0,.12.16.16,0,0,1,0,.11A.15.15,0,0,1,27.15,7.85Zm-.64-2.61h.17a.16.16,0,0,1,.11,0,.14.14,0,0,1,0,.11v.13a.15.15,0,0,1,0,.11.13.13,0,0,1-.11.05h-.17a.14.14,0,0,1-.11-.05.12.12,0,0,1,0-.1V5.4a.14.14,0,0,1,0-.11A.16.16,0,0,1,26.51,5.24Z" style="fill: #fff"/>
      <path d="M29.29,7.86H29a.49.49,0,0,1-.34-.14.47.47,0,0,1-.14-.33v-1h-.16a.21.21,0,0,1-.11,0,.17.17,0,0,1,0-.12.14.14,0,0,1,.15-.15h.17V5.67a.14.14,0,0,1,.15-.15.14.14,0,0,1,.11,0,.13.13,0,0,1,.05.11v.39h.63a.15.15,0,0,1,.11,0,.16.16,0,0,1,.05.11.14.14,0,0,1-.05.11.16.16,0,0,1-.11,0h-.63v1a.17.17,0,0,0,0,.11.17.17,0,0,0,.12,0h.3a.16.16,0,0,0,.17-.13c0-.09.08-.14.16-.14a.16.16,0,0,1,.11.05.15.15,0,0,1,0,.11.38.38,0,0,1-.13.28A.43.43,0,0,1,29.29,7.86Z" style="fill: #fff"/>
      <path d="M32.08,6.52l-.85,1.9a.16.16,0,0,1-.15.11h-.43a.16.16,0,0,1-.11,0,.14.14,0,0,1-.05-.11.17.17,0,0,1,.16-.16H31l.22-.49h-.08A.16.16,0,0,1,31,7.61L30.5,6.52V6.21a.21.21,0,0,1,0-.11.17.17,0,0,1,.11,0,.17.17,0,0,1,.12,0,.15.15,0,0,1,0,.11v.24l.42,1h.1l.43-1V6.21a.16.16,0,0,1,.32,0Z" style="fill: #fff"/>
    </g>
    <g>
      <path d="M16.37,8.84h.78a.52.52,0,0,1,.32.11.26.26,0,0,1,.14.21.17.17,0,0,1-.05.12.16.16,0,0,1-.11.05.19.19,0,0,1-.15-.08.23.23,0,0,0-.14-.07h-.77c-.08,0-.12,0-.12.1s0,.07.08.1l.9.4a.5.5,0,0,1,.23.2.53.53,0,0,1,.09.3.53.53,0,0,1-.51.52h-.69a.57.57,0,0,1-.33-.11q-.15-.11-.15-.21a.16.16,0,0,1,0-.12.17.17,0,0,1,.12,0,.21.21,0,0,1,.14.08.34.34,0,0,0,.22.07h.63a.16.16,0,0,0,.13-.06.21.21,0,0,0,.05-.13.18.18,0,0,0-.11-.17l-.92-.41a.42.42,0,0,1-.2-.17.41.41,0,0,1-.07-.23A.47.47,0,0,1,16.05,9,.42.42,0,0,1,16.37,8.84Z" style="fill: #fff"/>
      <path d="M20.12,9.48v.41a.17.17,0,0,1-.05.12.13.13,0,0,1-.12.05H18.74v.1a.19.19,0,0,0,.08.15l.1.09a.24.24,0,0,0,.15.06H20a.17.17,0,0,1,.17.17.17.17,0,0,1-.17.17h-.9a.46.46,0,0,1-.19,0,.37.37,0,0,1-.14-.08l-.16-.13a.5.5,0,0,1-.11-.16.35.35,0,0,1-.05-.18V9.42a.62.62,0,0,1,.05-.18.45.45,0,0,1,.13-.17L18.72,9A.53.53,0,0,1,19,8.84h.48a.48.48,0,0,1,.34.15l.13.12A.5.5,0,0,1,20.12,9.48Zm-1.37,0v.26h1V9.48a.17.17,0,0,0-.06-.14l-.1-.09a.22.22,0,0,0-.13-.06h-.43a.21.21,0,0,0-.15.05l-.1.08A.18.18,0,0,0,18.75,9.46Z" style="fill: #fff"/>
      <path d="M21.72,9.24l-.46.3v1.09a.17.17,0,0,1-.06.12.17.17,0,0,1-.12.05.17.17,0,0,1-.17-.17V9A.17.17,0,0,1,21,8.89a.16.16,0,0,1,.12-.05.13.13,0,0,1,.12.05.14.14,0,0,1,.06.12v.12l.31-.19a.6.6,0,0,1,.35-.1h.16a.47.47,0,0,1,.35.14.54.54,0,0,1,.16.36l0,1.29a.13.13,0,0,1-.05.12.17.17,0,0,1-.12.05.16.16,0,0,1-.11-.05.14.14,0,0,1-.06-.12l-.05-1.27c0-.12-.06-.18-.19-.18h-.16A.32.32,0,0,0,21.72,9.24Z" style="fill: #fff"/>
      <path d="M23.9,8.84h.78A.55.55,0,0,1,25,9a.29.29,0,0,1,.14.21.17.17,0,0,1,0,.12.21.21,0,0,1-.12.05.22.22,0,0,1-.15-.08.21.21,0,0,0-.14-.07h-.77c-.07,0-.11,0-.11.1s0,.07.07.1l.91.4A.55.55,0,0,1,25,10a.52.52,0,0,1,.08.3.51.51,0,0,1-.15.37.49.49,0,0,1-.35.15h-.69a.57.57,0,0,1-.33-.11c-.11-.07-.16-.14-.16-.21a.21.21,0,0,1,0-.12.19.19,0,0,1,.13,0,.23.23,0,0,1,.14.08.33.33,0,0,0,.21.07h.64a.18.18,0,0,0,.13-.06.21.21,0,0,0,.05-.13.17.17,0,0,0-.12-.17l-.91-.41a.44.44,0,0,1-.28-.4A.44.44,0,0,1,23.59,9,.4.4,0,0,1,23.9,8.84Z" style="fill: #fff"/>
      <path d="M27.66,9.46v.72a.58.58,0,0,1-.22.42.68.68,0,0,1-.45.2h-.4a.66.66,0,0,1-.44-.2.55.55,0,0,1-.22-.42V9.46A.61.61,0,0,1,26.14,9a.65.65,0,0,1,.45-.19H27a.62.62,0,0,1,.45.19A.59.59,0,0,1,27.66,9.46Zm-1.38,0v.69a.18.18,0,0,0,.07.15l.12.11a.21.21,0,0,0,.12,0H27a.26.26,0,0,0,.16-.07l.1-.09a.17.17,0,0,0,.06-.14V9.47a.2.2,0,0,0-.06-.15l-.12-.09A.19.19,0,0,0,27,9.18h-.35a.3.3,0,0,0-.18.05l-.12.1A.18.18,0,0,0,26.28,9.47Z" style="fill: #fff"/>
      <path d="M28.45,10.63V9a.17.17,0,0,1,.05-.12.17.17,0,0,1,.24,0,.17.17,0,0,1,.05.12v.21L29.07,9a.52.52,0,0,1,.34-.15h.25a.51.51,0,0,1,.51.51v.09a.21.21,0,0,1-.05.13.21.21,0,0,1-.12,0,.17.17,0,0,1-.12,0,.13.13,0,0,1-.05-.12v-.1a.17.17,0,0,0,0-.12.21.21,0,0,0-.12-.05h-.23a.25.25,0,0,0-.15.08l-.49.42v1a.17.17,0,0,1-.34,0Z" style="fill: #fff"/>
    </g>
    <g>
      <path d="M14.35,37.33V38a.52.52,0,0,1-.15.38.53.53,0,0,1,.15.36v.69a.33.33,0,0,1-.1.25.38.38,0,0,1-.26.11H12.73a.18.18,0,1,1,0-.36H14v-.69a.16.16,0,0,0-.06-.13.14.14,0,0,0-.12-.06h-.72a.17.17,0,0,1-.18-.17.19.19,0,0,1,.05-.13.17.17,0,0,1,.13,0h.72a.18.18,0,0,0,.13-.06A.17.17,0,0,0,14,38v-.69H12.72a.18.18,0,1,1,0-.36H14a.38.38,0,0,1,.36.36Z" style="fill: #fff"/>
      <path d="M17,37.15v.66l-.73,1.85a.17.17,0,0,1-.17.13.19.19,0,0,1-.18-.13l-.72-1.85v-.66a.17.17,0,0,1,.05-.12.17.17,0,0,1,.26,0,.17.17,0,0,1,0,.12v.59l.54,1.38.54-1.38v-.59A.21.21,0,0,1,16.8,37a.18.18,0,0,1,.13.06A.17.17,0,0,1,17,37.15Z" style="fill: #fff"/>
      <path d="M19.6,37.33V38a.52.52,0,0,1-.15.38.53.53,0,0,1,.15.36v.69a.33.33,0,0,1-.1.25.36.36,0,0,1-.26.11H18a.18.18,0,1,1,0-.36h1.26v-.69a.19.19,0,0,0,0-.13.18.18,0,0,0-.13-.06h-.72a.13.13,0,0,1-.12,0,.14.14,0,0,1-.06-.12.16.16,0,0,1,.06-.13.13.13,0,0,1,.12,0h.72a.18.18,0,0,0,.13-.06.17.17,0,0,0,0-.12v-.69H18A.18.18,0,1,1,18,37h1.27a.38.38,0,0,1,.36.36Z" style="fill: #fff"/>
    </g>
    <g>
      <path d="M27.3,37h.93a.44.44,0,0,1,.32.15.43.43,0,0,1,.16.34.16.16,0,0,1-.06.13.14.14,0,0,1-.12.06.14.14,0,0,1-.12,0,.3.3,0,0,1-.07-.15.13.13,0,0,0-.13-.11h-.89s-.06,0-.06,0a.14.14,0,0,0,0,.06l1.33,1.69a.44.44,0,0,1,.1.26.38.38,0,0,1-.12.28.35.35,0,0,1-.26.12h-1a.45.45,0,0,1-.33-.14.44.44,0,0,1-.14-.32c0-.13.06-.2.18-.2a.21.21,0,0,1,.13,0,.18.18,0,0,1,.05.12.13.13,0,0,0,0,.1.15.15,0,0,0,.1,0h.88s.06,0,.06,0l0-.06L27,37.64a.41.41,0,0,1-.09-.26.42.42,0,0,1,.12-.29A.38.38,0,0,1,27.3,37Z" style="fill: #fff"/>
      <path d="M29.7,37h.71a.43.43,0,0,1,.26.09.57.57,0,0,1,.2.21l.35.71a.86.86,0,0,1,.1.41.89.89,0,0,1-.11.4l-.35.7a.53.53,0,0,1-.2.22.46.46,0,0,1-.28.08H29.7a.17.17,0,0,1-.13,0,.21.21,0,0,1-.05-.13.18.18,0,0,1,.05-.12.18.18,0,0,1,.13-.06h.18v-2.1H29.7a.13.13,0,0,1-.12,0,.18.18,0,0,1-.06-.13A.21.21,0,0,1,29.7,37Zm.54.36v2.11h.13a.19.19,0,0,0,.17-.12l.36-.7a.6.6,0,0,0,.06-.23.54.54,0,0,0-.05-.22l-.37-.73a.19.19,0,0,0-.18-.11Z" style="fill: #fff"/>
      <path d="M32.16,39.54l.72-2.44a.18.18,0,0,1,.18-.13.16.16,0,0,1,.17.11l.71,2.48a.11.11,0,0,1,0,0,.19.19,0,0,1-.05.13.15.15,0,0,1-.12,0,.17.17,0,0,1-.18-.13l-.14-.48h-.81l-.16.52s0,0-.05.06a.2.2,0,0,1-.11,0,.17.17,0,0,1-.13,0,.21.21,0,0,1-.05-.13S32.16,39.57,32.16,39.54Zm.9-1.74-.31,1h.61Z" style="fill: #fff"/>
    </g>
    <g>
      <path d="M7.21,46.11v.66l-.73,1.85a.17.17,0,0,1-.17.13.19.19,0,0,1-.18-.13l-.72-1.85v-.66A.18.18,0,0,1,5.72,46a.21.21,0,0,1,0,.13v.58l.54,1.39.54-1.38v-.59A.18.18,0,0,1,6.91,46a.17.17,0,0,1,.12,0,.17.17,0,0,1,.18.18Z" style="fill: #fff"/>
      <path d="M8.21,45.93H9.65a.17.17,0,0,1,.12,0,.17.17,0,0,1,0,.26.17.17,0,0,1-.12,0H9.11v2.1h.54a.18.18,0,0,1,.13.06.17.17,0,0,1,.05.12.18.18,0,0,1-.06.13.17.17,0,0,1-.12,0H8.21A.17.17,0,0,1,8,48.57a.17.17,0,0,1,.05-.12.18.18,0,0,1,.13-.06h.54v-2.1H8.21a.18.18,0,1,1,0-.36Z" style="fill: #fff"/>
      <path d="M12.45,46.11v2.64H12l-1-2.19v2a.17.17,0,0,1-.17.18.19.19,0,0,1-.13,0,.21.21,0,0,1-.05-.13V45.93h.47l1,2.19v-2a.18.18,0,0,1,.06-.13.19.19,0,0,1,.13,0,.18.18,0,0,1,.12,0A.17.17,0,0,1,12.45,46.11Z" style="fill: #fff"/>
    </g>
    <g>
      <path d="M20.41,45.93H21a.17.17,0,0,1,.18.18.18.18,0,0,1-.06.13.17.17,0,0,1-.12,0h-.56a.19.19,0,0,0-.15.08l-.5.64a.33.33,0,0,0-.06.21v1a.19.19,0,0,0,.05.13.15.15,0,0,0,.13,0h.72a.17.17,0,0,0,.13,0,.18.18,0,0,0,0-.12v-.39h-.37a.17.17,0,0,1-.18-.18.17.17,0,0,1,0-.12.18.18,0,0,1,.13-.06h.73v.75a.52.52,0,0,1-.16.37.49.49,0,0,1-.38.16h-.72a.49.49,0,0,1-.38-.16.49.49,0,0,1-.16-.37v-1a.67.67,0,0,1,.14-.45l.53-.67A.43.43,0,0,1,20.2,46,.5.5,0,0,1,20.41,45.93Z" style="fill: #fff"/>
      <path d="M23.8,46.11v2.64h-.48l-1-2.19v2a.18.18,0,1,1-.36,0V45.93h.47l1,2.19v-2a.17.17,0,0,1,0-.13.18.18,0,0,1,.31.13Z" style="fill: #fff"/>
      <path d="M24.8,45.93h.71a.43.43,0,0,1,.26.09.57.57,0,0,1,.2.21l.35.71a1,1,0,0,1,.1.41.89.89,0,0,1-.11.4l-.35.7a.53.53,0,0,1-.2.22.54.54,0,0,1-.28.08H24.8a.18.18,0,1,1,0-.36H25v-2.1H24.8a.18.18,0,1,1,0-.36Zm.54.36v2.1h.12a.18.18,0,0,0,.18-.11l.36-.7a.6.6,0,0,0,.06-.23.51.51,0,0,0,0-.22l-.37-.73a.19.19,0,0,0-.18-.11Z" style="fill: #fff"/>
    </g>
    <g>
      <path d="M34.06,45.93H35a.5.5,0,0,1,.47.49.21.21,0,0,1-.05.13.21.21,0,0,1-.12.05c-.06,0-.11,0-.13,0a.57.57,0,0,1-.06-.15.14.14,0,0,0-.14-.12h-.88s-.07,0-.07.05l0,.06,1.33,1.69a.43.43,0,0,1,.09.26.41.41,0,0,1-.11.28.37.37,0,0,1-.26.12h-1a.49.49,0,0,1-.34-.14.49.49,0,0,1-.14-.32c0-.14.07-.2.19-.2a.17.17,0,0,1,.17.17.18.18,0,0,0,0,.1.17.17,0,0,0,.1,0H35s.06,0,.06,0,0,0,0-.06L33.75,46.6a.39.39,0,0,1-.1-.26.41.41,0,0,1,.41-.41Z" style="fill: #fff"/>
      <path d="M37.26,48.39h.64a.16.16,0,0,1,.13.06.14.14,0,0,1,.06.12.18.18,0,0,1-.06.13.19.19,0,0,1-.13,0h-.66a.56.56,0,0,1-.27-.08.39.39,0,0,1-.18-.18l-.42-.8a.85.85,0,0,1-.08-.35.71.71,0,0,1,.08-.34l.42-.79A.57.57,0,0,1,37,46a.46.46,0,0,1,.24-.08h.71A.17.17,0,0,1,38,46a.17.17,0,0,1,0,.26.17.17,0,0,1-.12,0h-.68c-.06,0-.1,0-.14.1l-.4.74a.45.45,0,0,0,0,.2.43.43,0,0,0,.05.23l.38.72A.16.16,0,0,0,37.26,48.39Z" style="fill: #fff"/>
      <path d="M38.91,48.75V46.11a.17.17,0,0,1,.18-.18.18.18,0,0,1,.12,0,.17.17,0,0,1,0,.13v2.28h1.27a.16.16,0,0,1,.12.06.14.14,0,0,1,.06.12.18.18,0,0,1-.06.13.18.18,0,0,1-.12,0Z" style="fill: #fff"/>
    </g>
  </g>
  <g data-name="white lines" id="white_lines">
    <line style="fill: none;stroke: #fff;stroke-linecap: round;stroke-linejoin: round;stroke-width: 0.5px" x1="2.04" x2="2.04" y1="23.9" y2="28.59"/>
    <line style="fill: none;stroke: #fff;stroke-linecap: round;stroke-linejoin: round;stroke-width: 0.5px" x1="11.3" x2="11.3" y1="23.9" y2="28.59"/>
    <line style="fill: none;stroke: #fff;stroke-linecap: round;stroke-linejoin: round;stroke-width: 0.5px" x1="5.5" x2="7.94" y1="23.21" y2="23.21"/>
    <polyline points="18.38 30.52 18.38 34.41 27.78 34.41 27.78 30.52" style="fill: none;stroke: #fff;stroke-linecap: round;stroke-linejoin: round;stroke-width: 0.5px"/>
    <polyline points="16.41 17.98 16.41 17.5 25.44 17.5 25.44 17.98" style="fill: none;stroke: #fff;stroke-linecap: round;stroke-linejoin: round;stroke-width: 0.5px"/>
    <polyline points="31.11 17.34 34.97 17.34 34.97 19.93" style="fill: none;stroke: #fff;stroke-linecap: round;stroke-linejoin: round;stroke-width: 0.5px"/>
    <line style="fill: none;stroke: #fff;stroke-linecap: round;stroke-linejoin: round;stroke-width: 0.5px" x1="31.08" x2="33.44" y1="26.44" y2="26.44"/>
  </g>
  <g data-name="Layer 24" id="Layer_24">
    <g>
      <rect height="1.64" style="fill: #aeaba8" transform="translate(33.33 38.22) rotate(180)" width="2.14" x="15.6" y="18.29"/>
      <rect height="1.64" style="fill: #aeaba8" transform="translate(33.33 44) rotate(180)" width="2.14" x="15.6" y="21.18"/>
      <rect height="1.64" style="fill: #aeaba8" transform="translate(33.33 49.78) rotate(180)" width="2.14" x="15.6" y="24.07"/>
      <rect height="1.64" style="fill: #aeaba8" transform="translate(51.17 38.22) rotate(180)" width="2.14" x="24.51" y="18.29"/>
      <rect height="1.64" style="fill: #aeaba8" transform="translate(51.17 44) rotate(180)" width="2.14" x="24.51" y="21.18"/>
      <rect height="1.64" style="fill: #aeaba8" transform="translate(51.17 49.78) rotate(180)" width="2.14" x="24.51" y="24.07"/>
    </g>
    <g>
      <rect height="8.63" rx="0.66" ry="0.66" width="8.63" x="16.67" y="17.64"/>
      <rect height="4.91" rx="1.18" ry="1.18" style="fill: #fff" width="7.07" x="17.44" y="17.96"/>
    </g>
    <g>
      <path d="M33.69,12.25A2.5,2.5,0,0,0,31.46,12a3.76,3.76,0,0,0-.36-2c-.16-.48-.39-.63-.76,0a2.23,2.23,0,0,0-.83,1.88c-.41-.53-1.18-.55-2.06-.39-.61.06-.65.33-.34.74a2.56,2.56,0,0,0,1.24,1.27c.3,0,.45.09.21.21a2.8,2.8,0,0,0-.85,1.91c-.12.61.16.6.59.36a2.5,2.5,0,0,0,1.59-.82c.15-.18.28-.29.29-.1a.55.55,0,0,0,.19.46,5.45,5.45,0,0,0,1.37,1c.33.22.48.11.46-.29a6.55,6.55,0,0,0,.09-.88,1.63,1.63,0,0,0-.1-.81,1.44,1.44,0,0,0-.08-.17l-.22-.16c-.22-.2-.17-.29.15-.26A2.19,2.19,0,0,0,33.66,13C34.08,12.68,34,12.43,33.69,12.25Z" style="fill: #fff"/>
      <path d="M30.47,12.18a1.54,1.54,0,0,1,0-.67,1.77,1.77,0,0,1,.22-.62A1.87,1.87,0,0,1,30.47,12.18Z" style="fill: #002d86"/>
      <path d="M31.69,15.39a1.41,1.41,0,0,1-.44-.51,1.66,1.66,0,0,1-.2-.63A1.9,1.9,0,0,1,31.69,15.39Z" style="fill: #002d86"/>
      <path d="M28.71,14.91a1.44,1.44,0,0,1,.35-.57A1.6,1.6,0,0,1,29.6,14,1.91,1.91,0,0,1,28.71,14.91Z" style="fill: #002d86"/>
      <path d="M32.65,12.85a1.36,1.36,0,0,1-.62.24,1.64,1.64,0,0,1-.66,0A1.85,1.85,0,0,1,32.65,12.85Z" style="fill: #002d86"/>
      <path d="M29.48,12.85a1.52,1.52,0,0,1-.65-.15,1.72,1.72,0,0,1-.54-.4A2,2,0,0,1,29.48,12.85Z" style="fill: #002d86"/>
    </g>
    <g>
      <path d="M23.69,15.12V12.81a1.11,1.11,0,0,1,1.23-.94,1.11,1.11,0,0,1,1.22.94v2.31a1.11,1.11,0,0,1-1.22.94A1.11,1.11,0,0,1,23.69,15.12Z" style="fill: #bababa"/>
      <path d="M17.16,15.12V12.81a1.11,1.11,0,0,1,1.22-.94,1.11,1.11,0,0,1,1.23.94v2.31a1.11,1.11,0,0,1-1.23.94A1.11,1.11,0,0,1,17.16,15.12Z" style="fill: #bababa"/>
      <rect height="6.53" rx="0.58" ry="0.58" style="fill: #e0e0e0" transform="translate(35.61 -7.68) rotate(90)" width="3.57" x="19.86" y="10.7"/>
      <rect height="3.06" style="fill: #ac947a" transform="translate(35.68 -7.75) rotate(90)" width="3.57" x="19.93" y="12.43"/>
    </g>
    <g>
      <path d="M13,16.7V14.39a1.1,1.1,0,0,1,1.22-.94,1.11,1.11,0,0,1,1.23.94V16.7a1.11,1.11,0,0,1-1.23.94A1.1,1.1,0,0,1,13,16.7Z" style="fill: #bababa"/>
      <path d="M6.41,16.7V14.39a1.11,1.11,0,0,1,1.23-.94,1.11,1.11,0,0,1,1.22.94V16.7a1.11,1.11,0,0,1-1.22.94A1.11,1.11,0,0,1,6.41,16.7Z" style="fill: #bababa"/>
      <rect height="6.53" rx="0.58" ry="0.58" style="fill: #e0e0e0" transform="translate(26.45 4.64) rotate(90)" width="3.57" x="9.12" y="12.28"/>
      <rect height="3.06" style="fill: #ac947a" transform="translate(26.52 4.58) rotate(90)" width="3.57" x="9.18" y="14.02"/>
    </g>
    <g>
      <path d="M8.85,35.91V33.6a1.11,1.11,0,0,1,1.22-.94,1.11,1.11,0,0,1,1.23.94v2.31a1.11,1.11,0,0,1-1.23.94A1.11,1.11,0,0,1,8.85,35.91Z" style="fill: #bababa"/>
      <path d="M2.32,35.91V33.6a1.1,1.1,0,0,1,1.22-.94,1.11,1.11,0,0,1,1.23.94v2.31a1.11,1.11,0,0,1-1.23.94A1.1,1.1,0,0,1,2.32,35.91Z" style="fill: #bababa"/>
      <rect height="6.53" rx="0.58" ry="0.58" style="fill: #e0e0e0" transform="translate(41.56 27.95) rotate(90)" width="3.57" x="5.02" y="31.49"/>
      <rect height="3.06" style="fill: #ac947a" transform="translate(41.63 27.89) rotate(90)" width="3.57" x="5.08" y="33.23"/>
    </g>
    <g>
      <g>
        <path d="M16.39,29.49H14.08a1.27,1.27,0,0,1,0-2.45h2.31a1.27,1.27,0,0,1,0,2.45Z" style="fill: #bababa"/>
        <path d="M16.39,36H14.08a1.27,1.27,0,0,1,0-2.45h2.31a1.27,1.27,0,0,1,0,2.45Z" style="fill: #bababa"/>
        <rect height="6.53" rx="0.58" ry="0.58" style="fill: #e0e0e0" width="3.57" x="13.45" y="28.27"/>
        <rect height="3.06" width="3.57" x="13.45" y="29.94"/>
      </g>
      <g>
        <path d="M15.52,32.73v-.16h-.59v.15a.05.05,0,0,1,0,0h-.07s0,0,0,0v-.25h.69v-.1h-.24l0,0s0,0,0,0l0,0h.26l0,0s0,0,0,0v.41a0,0,0,0,1,0,0l0,0s0,0,0,0S15.52,32.74,15.52,32.73Z" style="fill: #fff"/>
        <path d="M15.52,32h-.6a.11.11,0,0,1-.07,0,.19.19,0,0,1,0-.07v-.31a.14.14,0,0,1,0-.07.11.11,0,0,1,.07,0h.6a.1.1,0,0,1,.1.1v.31a.11.11,0,0,1,0,.07A.09.09,0,0,1,15.52,32Zm0-.41h-.59v.3h.59Z" style="fill: #fff"/>
        <path d="M15.52,31.29h-.6a.1.1,0,0,1-.07,0,.19.19,0,0,1,0-.07v-.32a.14.14,0,0,1,0-.06.11.11,0,0,1,.07,0h.6a.1.1,0,0,1,.1.1v.31a.11.11,0,0,1,0,.07A.08.08,0,0,1,15.52,31.29Zm0-.4h-.59v.3h.59Z" style="fill: #fff"/>
        <path d="M15.62,30.1v.45h-.35a.11.11,0,0,1-.07,0,.09.09,0,0,1,0-.07v-.3h-.24v.36l0,0,0,0a.05.05,0,0,1,0,0,0,0,0,0,1,0,0v-.36a.1.1,0,0,1,.1-.1h.24a.08.08,0,0,1,.07,0,.09.09,0,0,1,0,.07v.3h.25V30.1a.05.05,0,0,1,0,0h.07S15.62,30.08,15.62,30.1Z" style="fill: #fff"/>
      </g>
    </g>
    <g>
      <g>
        <path d="M31.8,29.49H29.49a1.27,1.27,0,0,1,0-2.45H31.8a1.27,1.27,0,0,1,0,2.45Z" style="fill: #bababa"/>
        <path d="M31.8,36H29.49a1.27,1.27,0,0,1,0-2.45H31.8a1.27,1.27,0,0,1,0,2.45Z" style="fill: #bababa"/>
        <rect height="6.53" rx="0.58" ry="0.58" style="fill: #e0e0e0" width="3.57" x="28.86" y="28.27"/>
        <rect height="3.06" width="3.57" x="28.86" y="29.94"/>
      </g>
      <g>
        <path d="M30.93,32.73v-.16h-.59v.15s0,0,0,0h-.08s0,0,0,0v-.25h.69v-.1h-.24a.08.08,0,0,1,0,0s0,0,0,0l0,0H31l0,0s0,0,0,0v.41a0,0,0,0,1,0,0,.05.05,0,0,1,0,0l0,0S30.93,32.74,30.93,32.73Z" style="fill: #fff"/>
        <path d="M30.94,32h-.6a.09.09,0,0,1-.07,0,.11.11,0,0,1,0-.07v-.31a.1.1,0,0,1,.1-.1h.6a.11.11,0,0,1,.07,0,.14.14,0,0,1,0,.07v.31A.19.19,0,0,1,31,32,.11.11,0,0,1,30.94,32Zm0-.41h-.59v.3h.59Z" style="fill: #fff"/>
        <path d="M30.94,31.29h-.6a.08.08,0,0,1-.07,0,.11.11,0,0,1,0-.07v-.32a.09.09,0,0,1,0-.06.09.09,0,0,1,.07,0h.6a.11.11,0,0,1,.07,0,.14.14,0,0,1,0,.07v.31a.19.19,0,0,1,0,.07A.1.1,0,0,1,30.94,31.29Zm0-.4h-.59v.3h.59Z" style="fill: #fff"/>
        <path d="M31,30.1v.45h-.34a.11.11,0,0,1-.08,0,.15.15,0,0,1,0-.07v-.3h-.24v.36a0,0,0,0,1,0,0l0,0,0,0a0,0,0,0,1,0,0v-.36a.1.1,0,0,1,.1-.1h.24a.11.11,0,0,1,.08,0,.09.09,0,0,1,0,.07v.3h.24V30.1a.05.05,0,0,1,0,0H31S31,30.08,31,30.1Z" style="fill: #fff"/>
      </g>
    </g>
    <g>
      <g>
        <path d="M42.13,20.74H39.82a1.11,1.11,0,0,1-.94-1.23,1.11,1.11,0,0,1,.94-1.22h2.31a1.11,1.11,0,0,1,.94,1.22A1.11,1.11,0,0,1,42.13,20.74Z" style="fill: #bababa"/>
        <path d="M42.13,27.27H39.82a1.27,1.27,0,0,1,0-2.45h2.31a1.27,1.27,0,0,1,0,2.45Z" style="fill: #bababa"/>
        <rect height="6.53" rx="0.58" ry="0.58" style="fill: #e0e0e0" width="3.57" x="39.19" y="19.52"/>
        <rect height="3.06" width="3.57" x="39.19" y="21.19"/>
      </g>
      <g>
        <path d="M41.27,24v-.16h-.6V24s0,0,0,0h-.07a.05.05,0,0,1,0,0v-.25h.7v-.1H41a.06.06,0,0,1,0,0s0,0,0,0a.05.05,0,0,1,0,0h.26l0,0s0,0,0,0V24l0,0,0,0a.05.05,0,0,1,0,0A0,0,0,0,1,41.27,24Z" style="fill: #fff"/>
        <path d="M41.27,23.29h-.6a.09.09,0,0,1-.07,0,.11.11,0,0,1,0-.07v-.31a.1.1,0,0,1,.1-.1h.6a.1.1,0,0,1,.1.1v.31a.11.11,0,0,1,0,.07A.09.09,0,0,1,41.27,23.29Zm0-.41h-.6v.3h.6Z" style="fill: #fff"/>
        <path d="M41.27,22.54h-.6a.08.08,0,0,1-.07,0,.11.11,0,0,1,0-.07v-.32a.09.09,0,0,1,0-.06.09.09,0,0,1,.07,0h.6a.1.1,0,0,1,.1.1v.31a.11.11,0,0,1,0,.07A.08.08,0,0,1,41.27,22.54Zm0-.4h-.6v.3h.6Z" style="fill: #fff"/>
        <path d="M41.37,21.35v.45H41a.1.1,0,0,1-.1-.1v-.3h-.25v.36a0,0,0,0,1,0,0,.05.05,0,0,1,0,0l0,0,0,0V21.4a.09.09,0,0,1,0-.07.11.11,0,0,1,.07,0h.25a.1.1,0,0,1,.1.1v.3h.25v-.35s0,0,0,0h.07A.05.05,0,0,1,41.37,21.35Z" style="fill: #fff"/>
      </g>
    </g>
    <g>
      <g>
        <path d="M38.31,32.42v2.31a1.27,1.27,0,0,1-2.45,0V32.42a1.27,1.27,0,0,1,2.45,0Z" style="fill: #bababa"/>
        <path d="M44.84,32.42v2.31a1.27,1.27,0,0,1-2.45,0V32.42a1.27,1.27,0,0,1,2.45,0Z" style="fill: #bababa"/>
        <rect height="6.53" rx="0.58" ry="0.58" style="fill: #e0e0e0" transform="translate(6.78 73.92) rotate(-90)" width="3.57" x="38.56" y="30.3"/>
        <rect height="3.06" transform="translate(6.72 73.86) rotate(-90)" width="3.57" x="38.5" y="32.04"/>
      </g>
      <g>
        <path d="M41.55,33.28h-.16v.6h.19a.05.05,0,0,1,0,0l0,0,0,0h-.25v-.7h-.1v.21a.06.06,0,0,1,0,0h-.07a.05.05,0,0,1,0,0v-.26l0,0,0,0h.41l0,0,0,0a.05.05,0,0,1,0,0Z" style="fill: #fff"/>
        <path d="M40.86,33.28v.6a.1.1,0,0,1-.1.1h-.31a.1.1,0,0,1-.1-.1v-.6a.1.1,0,0,1,.1-.1h.31a.1.1,0,0,1,.1.1Zm-.41,0v.6h.31v-.6Z" style="fill: #fff"/>
        <path d="M40.12,33.28v.6a.1.1,0,0,1-.1.1h-.31a.1.1,0,0,1-.1-.1v-.6a.1.1,0,0,1,.1-.1H40a.1.1,0,0,1,.1.1Zm-.41,0v.6H40v-.6Z" style="fill: #fff"/>
        <path d="M38.92,33.18h.46v.35a.09.09,0,0,1,0,.07.11.11,0,0,1-.08,0H39v.25h.39a.05.05,0,0,1,0,0l0,0,0,0H39a.09.09,0,0,1-.07,0,.11.11,0,0,1,0-.07v-.25a.1.1,0,0,1,.1-.1h.3v-.25h-.39s0,0,0,0a0,0,0,0,1,0,0A.05.05,0,0,1,38.92,33.18Z" style="fill: #fff"/>
      </g>
    </g>
    <g>
      <g>
        <path d="M30.77,25.28v-.06H31a.08.08,0,0,0,.08-.08v-1a.07.07,0,0,0-.08-.08h-.25v-.59a.27.27,0,0,0-.26-.27H28.65a.27.27,0,0,0-.26.27v1.8a.27.27,0,0,0,.26.27h1.86A.27.27,0,0,0,30.77,25.28Z" style="fill: #aeaba8"/>
        <path d="M30.74,20.37v-.05H31a.09.09,0,0,0,.09-.09v-1a.09.09,0,0,0-.09-.08h-.25v-.59a.27.27,0,0,0-.26-.27H28.62a.27.27,0,0,0-.26.27v1.8a.27.27,0,0,0,.26.27h1.86A.27.27,0,0,0,30.74,20.37Z" style="fill: #aeaba8"/>
        <path d="M34.56,20.94V21h-.25a.09.09,0,0,0-.08.1v1.07a.1.1,0,0,0,.08.1h.25v.64a.29.29,0,0,0,.27.3h1.85a.29.29,0,0,0,.27-.3v-2a.29.29,0,0,0-.27-.3H34.83A.29.29,0,0,0,34.56,20.94Z" style="fill: #aeaba8"/>
        <rect height="3.89" rx="0.91" ry="0.91" style="fill: #3c3c3e" transform="translate(54.79 -10.94) rotate(90)" width="7.92" x="28.91" y="19.98"/>
      </g>
      <path d="M32.41,20.94h.32a.1.1,0,0,1,.1.1.11.11,0,0,1,0,.08.11.11,0,0,1-.07,0H32.4a.11.11,0,0,0-.07,0,.09.09,0,0,0,0,.07v.21a.11.11,0,0,0,0,.07.11.11,0,0,0,.08,0H33.6a.1.1,0,0,1,.07.17.11.11,0,0,1-.07,0H32.41a.29.29,0,0,1-.22-.09.29.29,0,0,1-.09-.21v-.21a.31.31,0,0,1,.09-.22A.29.29,0,0,1,32.41,20.94Z" style="fill: #292728"/>
      <path d="M32.26,22.86v-.27h1v.28a.11.11,0,0,1,0,.07.1.1,0,0,1-.14,0,.11.11,0,0,1,0-.07v-.08h-.21v1.3a.1.1,0,0,1-.2,0v-1.3h-.21v.07a.08.08,0,0,1,0,.07s0,0-.07,0,0,0-.07,0A.08.08,0,0,1,32.26,22.86Z" style="fill: #292728"/>
    </g>
    <g>
      <g>
        <path d="M19.89,30.37H20v.25a.07.07,0,0,0,.08.08h1a.08.08,0,0,0,.08-.08v-.25h.59A.27.27,0,0,0,22,30.1V28.25a.26.26,0,0,0-.27-.26h-1.8a.26.26,0,0,0-.27.26V30.1A.27.27,0,0,0,19.89,30.37Z" style="fill: #aeaba8"/>
        <path d="M24.8,30.34h.05v.25a.08.08,0,0,0,.09.08h1a.08.08,0,0,0,.09-.08v-.25h.59a.27.27,0,0,0,.27-.27V28.22A.27.27,0,0,0,26.6,28H24.8a.28.28,0,0,0-.28.26v1.85A.28.28,0,0,0,24.8,30.34Z" style="fill: #aeaba8"/>
        <path d="M24.23,34.16h-.06v-.25a.09.09,0,0,0-.1-.08H23a.08.08,0,0,0-.09.08v.25h-.64a.29.29,0,0,0-.3.27v1.85a.28.28,0,0,0,.3.26h2a.27.27,0,0,0,.29-.26V34.43A.28.28,0,0,0,24.23,34.16Z" style="fill: #aeaba8"/>
        <rect height="3.89" rx="0.91" ry="0.91" style="fill: #3c3c3e" transform="translate(46.49 64.93) rotate(180)" width="7.92" x="19.28" y="30.52"/>
      </g>
      <path d="M24.22,32v.32a.11.11,0,0,1,0,.08s0,0-.07,0a.1.1,0,0,1-.07,0,.11.11,0,0,1,0-.08V32a.1.1,0,0,0-.1-.1h-.21a.1.1,0,0,0-.1.1v1.2a.1.1,0,0,1-.17.07.11.11,0,0,1,0-.08V32a.27.27,0,0,1,.09-.21.29.29,0,0,1,.21-.09h.21a.31.31,0,0,1,.3.3Z" style="fill: #292728"/>
      <path d="M22.3,31.86h.28v1H22.3a.1.1,0,0,1-.07-.17.09.09,0,0,1,.07,0h.08v-.2h-1.3a.1.1,0,0,1-.1-.1.11.11,0,0,1,0-.08.09.09,0,0,1,.07,0h1.3v-.2H22.3a.11.11,0,0,1-.07,0,.1.1,0,0,1,0-.14A.11.11,0,0,1,22.3,31.86Z" style="fill: #292728"/>
    </g>
    <g>
      <rect height="1.64" style="fill: #aeaba8" transform="translate(40.44 21.61) rotate(90)" width="2.14" x="8.35" y="30.21"/>
      <rect height="1.17" style="fill: #bababa" transform="translate(38.88 20.08) rotate(90)" width="0.96" x="8.92" y="28.89"/>
      <rect height="1.64" style="fill: #aeaba8" transform="translate(37.76 24.3) rotate(90)" width="2.14" x="5.66" y="30.21"/>
      <rect height="1.17" style="fill: #bababa" transform="translate(36.19 22.77) rotate(90)" width="0.96" x="6.23" y="28.89"/>
      <rect height="1.64" style="fill: #aeaba8" transform="translate(35.1 26.96) rotate(90)" width="2.14" x="3" y="30.21"/>
      <rect height="1.17" style="fill: #bababa" transform="translate(33.54 25.42) rotate(90)" width="0.96" x="3.58" y="28.89"/>
      <rect height="1.64" style="fill: #aeaba8" transform="translate(-18.2 26.5) rotate(-90)" width="2.14" x="3.08" y="21.53"/>
      <rect height="1.17" style="fill: #bababa" transform="translate(-19.73 28.06) rotate(-90)" width="0.96" x="3.68" y="23.31"/>
      <rect height="1.64" style="fill: #aeaba8" transform="translate(-12.9 31.81) rotate(-90)" width="2.14" x="8.39" y="21.53"/>
      <rect height="1.17" style="fill: #bababa" transform="translate(-14.43 33.37) rotate(-90)" width="0.96" x="8.99" y="23.31"/>
      <rect height="8" style="fill: #333" transform="translate(33.29 20.09) rotate(90)" width="4.63" x="4.29" y="22.69"/>
    </g>
    <g>
      <circle cx="3.23" cy="16.59" r="2.63" style="fill: #656236"/>
      <circle cx="3.23" cy="16.59" r="1.39" style="fill: #eaddbd"/>
    </g>
    <g>
      <circle cx="42.77" cy="39.17" r="2.63" style="fill: #656236"/>
      <circle cx="42.77" cy="39.17" r="1.39" style="fill: #eaddbd"/>
    </g>
    <g>
      <path d="M7.05,2.16a5,5,0,1,0,5,5A5,5,0,0,0,7.05,2.16Zm0,8.73a3.72,3.72,0,1,1,3.72-3.72A3.73,3.73,0,0,1,7.05,10.89Z" style="fill: #f8edcc"/>
      <circle cx="7.05" cy="7.17" r="5.73" style="fill: none;stroke: #fff;stroke-miterlimit: 10;stroke-width: 0.5px"/>
    </g>
    <g>
      <path d="M38.88,2.16a5,5,0,1,0,5,5A5,5,0,0,0,38.88,2.16Zm0,8.73A3.72,3.72,0,1,1,42.6,7.17,3.73,3.73,0,0,1,38.88,10.89Z" style="fill: #f8edcc"/>
      <circle cx="38.88" cy="7.17" r="5.73" style="fill: none;stroke: #fff;stroke-miterlimit: 10;stroke-width: 0.5px"/>
    </g>
  </g>
  <g id="Connectors">
    <ellipse cx="37.63" cy="42.75" data-cir-type="male" id="circuitoCon_SCL" rx="2.05" ry="1.99" style="fill: none;stroke: #e5e3dd;stroke-miterlimit: 10;stroke-width: 1.224px"/>
    <ellipse cx="30.44" cy="42.75" data-cir-type="male" id="circuitoCon_SDA" rx="2.05" ry="1.99" style="fill: none;stroke: #e5e3dd;stroke-miterlimit: 10;stroke-width: 1.224px"/>
    <ellipse cx="23.24" cy="42.75" data-cir-type="male" id="circuitoCon_GND" rx="2.05" ry="1.99" style="fill: none;stroke: #e5e3dd;stroke-miterlimit: 10;stroke-width: 1.224px"/>
    <ellipse cx="16.05" cy="42.75" data-cir-type="male" id="circuitoCon_3v3" rx="2.05" ry="1.99" style="fill: none;stroke: #e5e3dd;stroke-miterlimit: 10;stroke-width: 1.224px"/>
    <circle cx="8.6" cy="42.75" data-cir-type="male" id="circuitoCon_VIN" r="1.53" style="fill: none"/>
  </g>
</svg>