<?xml version="1.0" ?><svg height="43mm" viewBox="0 0 257.44 121.89" width="90.82mm" xmlns="http://www.w3.org/2000/svg" xmlns:xlink="http://www.w3.org/1999/xlink">
  <defs>
    <linearGradient gradientTransform="matrix(1, 0, 0, -1, -391.68, 488.3)" gradientUnits="userSpaceOnUse" id="linear-gradient" x1="405.34" x2="405.34" y1="379.89" y2="372.45">
      <stop offset="0" stop-color="#999"/>
      <stop offset="1" stop-color="#f2f2f2"/>
    </linearGradient>
    <linearGradient gradientTransform="matrix(1, 0, 0, -1, -398.64, 481.34)" id="linear-gradient-2" x1="412.31" x2="412.31" xlink:href="#linear-gradient" y1="379.89" y2="372.45"/>
    <linearGradient gradientTransform="matrix(1, 0, 0, -1, -405.61, 474.37)" id="linear-gradient-3" x1="419.27" x2="419.27" xlink:href="#linear-gradient" y1="379.89" y2="372.45"/>
    <linearGradient gradientTransform="matrix(1, 0, 0, -1, -200.22, 17.3)" gradientUnits="userSpaceOnUse" id="linear-gradient-4" x1="391.27" x2="412.21" y1="8.65" y2="8.65">
      <stop offset="0" stop-color="#ae7418"/>
      <stop offset="1" stop-color="#fcc062"/>
    </linearGradient>
    <linearGradient gradientTransform="matrix(1, 0, 0, -1, -179.87, 17.3)" id="linear-gradient-5" x1="391.27" x2="391.86" xlink:href="#linear-gradient-4" y1="8.65" y2="8.65"/>
    <linearGradient gradientTransform="matrix(1, 0, 0, -1, -182.78, 17.3)" id="linear-gradient-6" x1="392.72" x2="393.31" xlink:href="#linear-gradient-4" y1="8.65" y2="8.65"/>
    <linearGradient gradientTransform="matrix(1, 0, 0, -1, -185.69, 17.3)" id="linear-gradient-7" x1="394.18" x2="394.77" xlink:href="#linear-gradient-4" y1="8.65" y2="8.65"/>
    <linearGradient gradientTransform="matrix(1, 0, 0, -1, -188.59, 17.3)" id="linear-gradient-8" x1="395.63" x2="396.22" xlink:href="#linear-gradient-4" y1="8.65" y2="8.65"/>
    <linearGradient gradientTransform="matrix(1, 0, 0, -1, -191.5, 17.3)" id="linear-gradient-9" x1="397.09" x2="397.67" xlink:href="#linear-gradient-4" y1="8.65" y2="8.65"/>
    <linearGradient gradientTransform="matrix(1, 0, 0, -1, -194.41, 17.3)" id="linear-gradient-10" x1="398.54" x2="399.13" xlink:href="#linear-gradient-4" y1="8.65" y2="8.65"/>
    <linearGradient gradientTransform="matrix(1, 0, 0, -1, -197.31, 17.3)" id="linear-gradient-11" x1="399.99" x2="400.58" xlink:href="#linear-gradient-4" y1="8.65" y2="8.65"/>
    <linearGradient id="linear-gradient-12" x1="401.45" x2="402.03" xlink:href="#linear-gradient-4" y1="8.65" y2="8.65"/>
    <linearGradient gradientTransform="matrix(1, 0, 0, -1, -203.13, 17.3)" id="linear-gradient-13" x1="402.9" x2="403.49" xlink:href="#linear-gradient-4" y1="8.65" y2="8.65"/>
    <linearGradient gradientTransform="matrix(1, 0, 0, -1, -206.03, 17.3)" id="linear-gradient-14" x1="404.35" x2="404.94" xlink:href="#linear-gradient-4" y1="8.65" y2="8.65"/>
    <linearGradient gradientTransform="matrix(1, 0, 0, -1, -208.94, 17.3)" id="linear-gradient-15" x1="405.81" x2="406.4" xlink:href="#linear-gradient-4" y1="8.65" y2="8.65"/>
    <linearGradient gradientTransform="matrix(1, 0, 0, -1, -211.85, 17.3)" id="linear-gradient-16" x1="407.26" x2="407.85" xlink:href="#linear-gradient-4" y1="8.65" y2="8.65"/>
    <linearGradient gradientTransform="matrix(1, 0, 0, -1, -214.76, 17.3)" id="linear-gradient-17" x1="408.71" x2="409.3" xlink:href="#linear-gradient-4" y1="8.65" y2="8.65"/>
    <linearGradient gradientTransform="matrix(1, 0, 0, -1, -217.66, 17.3)" id="linear-gradient-18" x1="410.17" x2="410.76" xlink:href="#linear-gradient-4" y1="8.65" y2="8.65"/>
    <linearGradient gradientTransform="matrix(1, 0, 0, -1, -220.57, 17.3)" id="linear-gradient-19" x1="411.62" x2="412.21" xlink:href="#linear-gradient-4" y1="8.65" y2="8.65"/>
    <linearGradient gradientTransform="matrix(1, 0, 0, -1, -141.59, 240.73)" gradientUnits="userSpaceOnUse" id="linear-gradient-20" x1="369.66" x2="375.2" y1="120.37" y2="120.37">
      <stop offset="0" stop-color="#f2f2f2"/>
      <stop offset="0.5" stop-color="#999"/>
      <stop offset="1" stop-color="#f2f2f2"/>
    </linearGradient>
    <linearGradient gradientTransform="matrix(1, 0, 0, -1, -370.84, 240.73)" id="linear-gradient-21" x1="484.28" x2="489.82" xlink:href="#linear-gradient-20" y1="120.37" y2="120.37"/>
    <linearGradient gradientTransform="matrix(1, 0, 0, -1, -256.29, 89.94)" gradientUnits="userSpaceOnUse" id="linear-gradient-22" x1="345.82" x2="513.72" y1="44.97" y2="44.97">
      <stop offset="0" stop-color="#666"/>
      <stop offset="0.05" stop-color="#333"/>
      <stop offset="0.95" stop-color="#333"/>
      <stop offset="1" stop-color="#666"/>
    </linearGradient>
    <linearGradient gradientTransform="matrix(1, 0, 0, -1, -265.63, 46.51)" gradientUnits="userSpaceOnUse" id="linear-gradient-23" x1="420.43" x2="448.46" y1="23.26" y2="23.26">
      <stop offset="0" stop-color="#555355"/>
      <stop offset="0.06" stop-color="#494749"/>
      <stop offset="0.16" stop-color="#3b393c"/>
      <stop offset="0.29" stop-color="#333133"/>
      <stop offset="0.5" stop-color="#302e31"/>
      <stop offset="0.71" stop-color="#333133"/>
      <stop offset="0.84" stop-color="#3b393c"/>
      <stop offset="0.94" stop-color="#494749"/>
      <stop offset="1" stop-color="#555355"/>
    </linearGradient>
    <linearGradient gradientTransform="matrix(1, 0, 0, -1, -200.22, 45.06)" id="linear-gradient-24" x1="373.71" x2="429.77" xlink:href="#linear-gradient-23" y1="22.53" y2="22.53"/>
    <linearGradient gradientTransform="matrix(1, 0, 0, -1, -256.29, 148.68)" id="linear-gradient-25" x1="368.52" x2="491.03" xlink:href="#linear-gradient-22" y1="74.34" y2="74.34"/>
    <linearGradient gradientTransform="matrix(1, 0, 0, -1, -256.29, 79.34)" id="linear-gradient-26" x1="368.52" x2="491.03" xlink:href="#linear-gradient-22" y1="39.67" y2="39.67"/>
    <linearGradient gradientTransform="matrix(1, 0, 0, 1, 0, 0)" id="linear-gradient-27" x1="145.26" x2="205.37" xlink:href="#linear-gradient-4" y1="76.93" y2="76.93"/>
    <linearGradient gradientTransform="matrix(1, 0, 0, 1, 0, 0)" id="linear-gradient-28" x1="152.62" x2="162.25" xlink:href="#linear-gradient-22" y1="76.72" y2="76.72"/>
    <linearGradient gradientTransform="matrix(1, 0, 0, 1, 0, 0)" id="linear-gradient-29" x1="164.06" x2="172.72" xlink:href="#linear-gradient-22" y1="76.73" y2="76.73"/>
    <linearGradient gradientTransform="matrix(1, 0, 0, 1, 0, 0)" id="linear-gradient-30" x1="174.31" x2="181.83" xlink:href="#linear-gradient-22" y1="76.71" y2="76.71"/>
    <linearGradient gradientTransform="matrix(1, 0, 0, 1, 0, 0)" id="linear-gradient-31" x1="183.3" x2="190.81" xlink:href="#linear-gradient-22" y1="76.71" y2="76.71"/>
    <linearGradient gradientTransform="matrix(1, 0, 0, 1, 0, 0)" id="linear-gradient-32" x1="192.65" x2="199.79" xlink:href="#linear-gradient-22" y1="76.82" y2="76.82"/>
    <linearGradient gradientTransform="matrix(1, 0, 0, 1, 0, 0)" id="linear-gradient-33" x1="149.25" x2="155.49" xlink:href="#linear-gradient-4" y1="64" y2="64"/>
    <linearGradient gradientTransform="matrix(1, 0, 0, 1, 0, 0)" id="linear-gradient-34" x1="156.1" x2="161.94" xlink:href="#linear-gradient-4" y1="64.87" y2="64.87"/>
    <linearGradient gradientTransform="matrix(1, 0, 0, 1, 0, 0)" id="linear-gradient-35" x1="162.57" x2="171.67" xlink:href="#linear-gradient-4" y1="64.87" y2="64.87"/>
    <linearGradient gradientTransform="matrix(1, 0, 0, 1, 0, 0)" id="linear-gradient-36" x1="172.3" x2="177.94" xlink:href="#linear-gradient-4" y1="64.86" y2="64.86"/>
    <linearGradient gradientTransform="matrix(1, 0, 0, 1, 0, 0)" id="linear-gradient-37" x1="179.15" x2="183.01" xlink:href="#linear-gradient-4" y1="64.86" y2="64.86"/>
    <linearGradient gradientTransform="matrix(1, 0, 0, 1, 0, 0)" id="linear-gradient-38" x1="184.08" x2="189.91" xlink:href="#linear-gradient-4" y1="64" y2="64"/>
    <linearGradient gradientTransform="matrix(1, 0, 0, 1, 0, 0)" id="linear-gradient-39" x1="191.11" x2="194.97" xlink:href="#linear-gradient-4" y1="64.86" y2="64.86"/>
    <linearGradient gradientTransform="matrix(1, 0, 0, 1, 0, 0)" id="linear-gradient-40" x1="195.55" x2="201.39" xlink:href="#linear-gradient-4" y1="64.87" y2="64.87"/>
    <linearGradient gradientTransform="matrix(1, 0, 0, 1, 0, 0)" id="linear-gradient-41" x1="150.43" x2="154.13" xlink:href="#linear-gradient-4" y1="88.52" y2="88.52"/>
    <linearGradient gradientTransform="matrix(1, 0, 0, 1, 0, 0)" id="linear-gradient-42" x1="154.73" x2="157.02" xlink:href="#linear-gradient-4" y1="88.52" y2="88.52"/>
    <linearGradient gradientTransform="matrix(1, 0, 0, 1, 0, 0)" id="linear-gradient-43" x1="157.61" x2="161.31" xlink:href="#linear-gradient-4" y1="88.52" y2="88.52"/>
    <linearGradient gradientTransform="matrix(1, 0, 0, 1, 0, 0)" id="linear-gradient-44" x1="162.04" x2="164.33" xlink:href="#linear-gradient-4" y1="88.52" y2="88.52"/>
    <linearGradient gradientTransform="matrix(1, 0, 0, 1, 0, 0)" id="linear-gradient-45" x1="169.62" x2="173.36" xlink:href="#linear-gradient-4" y1="88.42" y2="88.42"/>
    <linearGradient gradientTransform="matrix(1, 0, 0, 1, 0, 0)" id="linear-gradient-46" x1="174.24" x2="176.68" xlink:href="#linear-gradient-4" y1="88.42" y2="88.42"/>
    <linearGradient gradientTransform="matrix(1, 0, 0, 1, 0, 0)" id="linear-gradient-47" x1="177.34" x2="179.48" xlink:href="#linear-gradient-4" y1="88.66" y2="88.66"/>
    <linearGradient gradientTransform="matrix(1, 0, 0, 1, 0, 0)" id="linear-gradient-48" x1="180.09" x2="183.66" xlink:href="#linear-gradient-4" y1="88.42" y2="88.42"/>
    <linearGradient gradientTransform="matrix(1, 0, 0, 1, 0, 0)" id="linear-gradient-49" x1="184.39" x2="187.84" xlink:href="#linear-gradient-4" y1="88.42" y2="88.42"/>
    <linearGradient gradientTransform="matrix(1, 0, 0, 1, 0, 0)" id="linear-gradient-50" x1="188.6" x2="191.62" xlink:href="#linear-gradient-4" y1="88.42" y2="88.42"/>
    <linearGradient gradientTransform="matrix(1, 0, 0, 1, 0, 0)" id="linear-gradient-51" x1="192.52" x2="195.54" xlink:href="#linear-gradient-4" y1="88.42" y2="88.42"/>
    <linearGradient gradientTransform="matrix(1, 0, 0, 1, 0, 0)" id="linear-gradient-52" x1="196.44" x2="200.39" xlink:href="#linear-gradient-4" y1="88.42" y2="88.42"/>
    <linearGradient gradientTransform="matrix(1, 0, 0, 1, 0, 0)" id="linear-gradient-53" x1="144.86" x2="205.77" xlink:href="#linear-gradient-4" y1="74.69" y2="74.69"/>
    <linearGradient gradientTransform="matrix(1, 0, 0, 1, 0, 0)" id="linear-gradient-54" x1="147.2" x2="202.87" xlink:href="#linear-gradient-22" y1="76.93" y2="76.93"/>
  </defs>
  <title>Standard Size - High Torque - Metal Gear Servo - MG995</title>
  <g id="Connectors">
    <g>
      <g>
        <g data-name="&lt;Group&gt;" id="_Group_">
          <polyline data-name="&lt;Path&gt;" id="_Path_" points="23.05 102.86 122.38 103.17 122.38 98.57 23.05 98.57" style="fill: #ffe000"/>
        </g>
        <g data-name="&lt;Group&gt;" id="_Group_2">
          <polyline data-name="&lt;Path&gt;" id="_Path_2" points="23.05 107.16 126.68 107.47 126.68 102.86 23.05 102.86" style="fill: #ff8135"/>
        </g>
        <g data-name="&lt;Group&gt;" id="_Group_3">
          <polyline data-name="&lt;Path&gt;" id="_Path_3" points="23.05 111.76 130.98 111.76 130.98 107.16 23.05 107.16" style="fill: #b2876f"/>
        </g>
      </g>
      <g>
        <rect data-name="&lt;Rectangle&gt;" height="37.48" id="_Rectangle_" style="fill: #333" transform="translate(-86.43 123.9) rotate(-90)" width="23.47" x="7" y="86.43"/>
        <g data-name="&lt;Group&gt;" id="_Group_4">
          <rect data-name="&lt;Rectangle&gt;" height="14.88" id="_Rectangle_2" style="fill: #1a1a1a" transform="translate(-102.19 122.08) rotate(-90)" width="2.89" x="8.5" y="104.69"/>
          <rect data-name="&lt;Rectangle&gt;" height="7.44" id="_Rectangle_3" style="fill: url(#linear-gradient)" transform="translate(-98.47 125.8) rotate(-90)" width="2.89" x="12.22" y="108.41"/>
          <rect data-name="&lt;Rectangle&gt;" height="14.88" id="_Rectangle_4" style="fill: #1a1a1a" transform="translate(-95.22 115.11) rotate(-90)" width="2.89" x="8.5" y="97.72"/>
          <rect data-name="&lt;Rectangle&gt;" height="7.44" id="_Rectangle_5" style="fill: url(#linear-gradient-2)" transform="translate(-91.5 118.83) rotate(-90)" width="2.89" x="12.22" y="101.44"/>
          <rect data-name="&lt;Rectangle&gt;" height="14.88" id="_Rectangle_6" style="fill: #1a1a1a" transform="translate(-88.26 108.14) rotate(-90)" width="2.89" x="8.5" y="90.76"/>
          <rect data-name="&lt;Rectangle&gt;" height="7.44" id="_Rectangle_7" style="fill: url(#linear-gradient-3)" transform="translate(-84.53 111.86) rotate(-90)" width="2.89" x="12.22" y="94.48"/>
        </g>
      </g>
      <rect height="2.89" id="circuitoCon_Sig" style="fill: none" width="2.89" y="96.75"/>
      <rect height="2.89" id="circuitoCon_Vin" style="fill: none" width="2.89" y="103.72"/>
      <rect height="2.89" id="circuitoCon_0" style="fill: none" width="2.89" y="110.69"/>
    </g>
  </g>
  <g data-name="Layer 1" id="Layer_1">
    <g data-name="&lt;Group&gt;" id="_Group_5">
      <rect data-name="&lt;Rectangle&gt;" height="17.3" id="_Rectangle_8" style="fill: url(#linear-gradient-4)" transform="translate(403.04 17.3) rotate(-180)" width="20.94" x="191.05"/>
      <rect data-name="&lt;Rectangle&gt;" height="17.3" id="_Rectangle_9" style="fill: url(#linear-gradient-5)" transform="translate(423.39 17.3) rotate(-180)" width="0.59" x="211.4"/>
      <rect data-name="&lt;Rectangle&gt;" height="17.3" id="_Rectangle_10" style="fill: url(#linear-gradient-6)" transform="translate(420.48 17.3) rotate(-180)" width="0.59" x="209.95"/>
      <rect data-name="&lt;Rectangle&gt;" height="17.3" id="_Rectangle_11" style="fill: url(#linear-gradient-7)" transform="translate(417.57 17.3) rotate(-180)" width="0.59" x="208.49"/>
      <rect data-name="&lt;Rectangle&gt;" height="17.3" id="_Rectangle_12" style="fill: url(#linear-gradient-8)" transform="translate(414.67 17.3) rotate(-180)" width="0.59" x="207.04"/>
      <rect data-name="&lt;Rectangle&gt;" height="17.3" id="_Rectangle_13" style="fill: url(#linear-gradient-9)" transform="translate(411.76 17.3) rotate(-180)" width="0.59" x="205.59"/>
      <rect data-name="&lt;Rectangle&gt;" height="17.3" id="_Rectangle_14" style="fill: url(#linear-gradient-10)" transform="translate(408.85 17.3) rotate(-180)" width="0.59" x="204.13"/>
      <rect data-name="&lt;Rectangle&gt;" height="17.3" id="_Rectangle_15" style="fill: url(#linear-gradient-11)" transform="translate(405.95 17.3) rotate(-180)" width="0.59" x="202.68"/>
      <rect data-name="&lt;Rectangle&gt;" height="17.3" id="_Rectangle_16" style="fill: url(#linear-gradient-12)" transform="translate(403.04 17.3) rotate(-180)" width="0.59" x="201.23"/>
      <rect data-name="&lt;Rectangle&gt;" height="17.3" id="_Rectangle_17" style="fill: url(#linear-gradient-13)" transform="translate(400.13 17.3) rotate(-180)" width="0.59" x="199.77"/>
      <rect data-name="&lt;Rectangle&gt;" height="17.3" id="_Rectangle_18" style="fill: url(#linear-gradient-14)" transform="translate(397.22 17.3) rotate(-180)" width="0.59" x="198.32"/>
      <rect data-name="&lt;Rectangle&gt;" height="17.3" id="_Rectangle_19" style="fill: url(#linear-gradient-15)" transform="translate(394.32 17.3) rotate(-180)" width="0.59" x="196.86"/>
      <rect data-name="&lt;Rectangle&gt;" height="17.3" id="_Rectangle_20" style="fill: url(#linear-gradient-16)" transform="translate(391.41 17.3) rotate(-180)" width="0.59" x="195.41"/>
      <rect data-name="&lt;Rectangle&gt;" height="17.3" id="_Rectangle_21" style="fill: url(#linear-gradient-17)" transform="translate(388.5 17.3) rotate(-180)" width="0.59" x="193.96"/>
      <rect data-name="&lt;Rectangle&gt;" height="17.3" id="_Rectangle_22" style="fill: url(#linear-gradient-18)" transform="translate(385.6 17.3) rotate(-180)" width="0.59" x="192.5"/>
      <rect data-name="&lt;Rectangle&gt;" height="17.3" id="_Rectangle_23" style="fill: url(#linear-gradient-19)" transform="translate(382.69 17.3) rotate(-180)" width="0.59" x="191.05"/>
    </g>
    <path d="M230,119.4h1.72a1.91,1.91,0,0,1,1.91,1.91v0a0,0,0,0,1,0,0h-5.54a0,0,0,0,1,0,0v0A1.91,1.91,0,0,1,230,119.4Z" data-name="&lt;Rectangle&gt;" id="_Rectangle_24" style="fill: url(#linear-gradient-20)" transform="translate(461.67 240.73) rotate(-180)"/>
    <path d="M115.35,119.4h1.72a1.91,1.91,0,0,1,1.91,1.91v0a0,0,0,0,1,0,0h-5.54a0,0,0,0,1,0,0v0a1.91,1.91,0,0,1,1.91-1.91Z" data-name="&lt;Rectangle&gt;" id="_Rectangle_25" style="fill: url(#linear-gradient-21)" transform="translate(232.42 240.73) rotate(180)"/>
    <path d="M124.74,116.49h97.49a4.26,4.26,0,0,1,4.26,4.26v1.14a0,0,0,0,1,0,0h-106a0,0,0,0,1,0,0v-1.14A4.26,4.26,0,0,1,124.74,116.49Z" data-name="&lt;Rectangle&gt;" id="_Rectangle_26" style="fill: #242224" transform="translate(346.97 238.38) rotate(-180)"/>
    <rect data-name="&lt;Rectangle&gt;" height="10.6" id="_Rectangle_27" style="fill: url(#linear-gradient-22)" transform="translate(346.97 89.94) rotate(-180)" width="167.9" x="89.54" y="39.67"/>
    <path d="M154.8,13.7h28a0,0,0,0,1,0,0V29.26a3.55,3.55,0,0,1-3.55,3.55H154.8a0,0,0,0,1,0,0V13.7A0,0,0,0,1,154.8,13.7Z" data-name="&lt;Rectangle&gt;" id="_Rectangle_28" style="fill: url(#linear-gradient-23)" transform="translate(337.63 46.51) rotate(-180)"/>
    <path d="M173.49,12.25h56.07a0,0,0,0,1,0,0v17A3.55,3.55,0,0,1,226,32.81H177a3.55,3.55,0,0,1-3.55-3.55v-17A0,0,0,0,1,173.49,12.25Z" data-name="&lt;Rectangle&gt;" id="_Rectangle_29" style="fill: url(#linear-gradient-24)" transform="translate(403.04 45.06) rotate(-180)"/>
    <rect data-name="&lt;Rectangle&gt;" height="90.53" id="_Rectangle_30" rx="1.35" ry="1.35" style="fill: url(#linear-gradient-25)" transform="translate(346.97 148.68) rotate(-180)" width="122.51" x="112.23" y="29.07"/>
    <rect data-name="&lt;Rectangle&gt;" height="21.2" id="_Rectangle_31" rx="0.65" ry="0.65" style="fill: url(#linear-gradient-26)" transform="translate(346.97 79.34) rotate(-180)" width="122.51" x="112.23" y="29.07"/>
    <rect data-name="&lt;Rectangle&gt;" height="0.83" id="_Rectangle_32" style="fill: #201e20" transform="translate(346.97 202.67) rotate(-180)" width="122.51" x="112.23" y="100.92"/>
    <rect data-name="&lt;Rectangle&gt;" height="0.83" id="_Rectangle_33" style="fill: #201e20" transform="translate(346.97 99.67) rotate(-180)" width="122.51" x="112.23" y="49.42"/>
  </g>
  <g data-name="Layer 2" id="Layer_2">
    <rect height="14.44" style="fill: url(#linear-gradient-27)" width="60.11" x="145.26" y="69.71"/>
    <g>
      <path d="M162.25,81.31h-2.36V75.16l-1.7,4h-1.64l-1.7-4v6.15h-2.23V72.13h2.75l2.07,4.61,2.06-4.61h2.75Z" style="fill: url(#linear-gradient-28)"/>
      <path d="M172.72,80.79a12.44,12.44,0,0,1-1.63.48,8.91,8.91,0,0,1-2,.24,5.08,5.08,0,0,1-3.67-1.27,5.22,5.22,0,0,1,0-7,5.11,5.11,0,0,1,3.73-1.31,8.84,8.84,0,0,1,1.73.16,7.74,7.74,0,0,1,1.83.65v2.15h-.27l-.51-.37a6.2,6.2,0,0,0-.64-.4,4.23,4.23,0,0,0-.84-.34,3.57,3.57,0,0,0-1-.14,3.34,3.34,0,0,0-1.14.18,2.65,2.65,0,0,0-.92.57,2.58,2.58,0,0,0-.61.94,3.57,3.57,0,0,0-.23,1.32,3.16,3.16,0,0,0,.81,2.33,3.24,3.24,0,0,0,2.39.81h.3l.3,0V78h-1.83V76.26h4.24Z" style="fill: url(#linear-gradient-29)"/>
      <path d="M181.83,76.2a7.5,7.5,0,0,1-.3,2.15,4.34,4.34,0,0,1-.9,1.67,4.06,4.06,0,0,1-1.62,1.1,6.35,6.35,0,0,1-2.26.37,9.6,9.6,0,0,1-1-.06,6,6,0,0,1-.7-.1V79.53h.25a3.8,3.8,0,0,0,.53.18,3.5,3.5,0,0,0,.93.1,3.75,3.75,0,0,0,.94-.12,2.17,2.17,0,0,0,.8-.38,2.25,2.25,0,0,0,.6-.69,2.81,2.81,0,0,0,.31-1,6.19,6.19,0,0,1-1,.47,3.45,3.45,0,0,1-1.14.16,3.82,3.82,0,0,1-1-.13,2.8,2.8,0,0,1-.86-.39,2.62,2.62,0,0,1-.82-1,3.28,3.28,0,0,1-.31-1.5,3.09,3.09,0,0,1,1-2.41,3.86,3.86,0,0,1,2.69-.93,4.72,4.72,0,0,1,1.52.23,3,3,0,0,1,1.14.69,3.31,3.31,0,0,1,.85,1.35A6.16,6.16,0,0,1,181.83,76.2Zm-2.36-.34a4.42,4.42,0,0,0-.15-1.24,1.84,1.84,0,0,0-.4-.75,1,1,0,0,0-.41-.28,1.42,1.42,0,0,0-.49-.09,1.28,1.28,0,0,0-.46.08,1.21,1.21,0,0,0-.42.29,1.49,1.49,0,0,0-.31.52,2.19,2.19,0,0,0-.12.77,1.8,1.8,0,0,0,.13.73,1.16,1.16,0,0,0,.36.47,1.3,1.3,0,0,0,.51.23,2.81,2.81,0,0,0,1.24,0,3.13,3.13,0,0,0,.51-.15s0-.11,0-.19S179.47,76,179.47,75.86Z" style="fill: url(#linear-gradient-30)"/>
      <path d="M190.81,76.2a7.5,7.5,0,0,1-.3,2.15,4.34,4.34,0,0,1-.9,1.67,4.06,4.06,0,0,1-1.62,1.1,6.35,6.35,0,0,1-2.26.37,9.6,9.6,0,0,1-1-.06,6,6,0,0,1-.7-.1V79.53h.25a3.8,3.8,0,0,0,.53.18,3.5,3.5,0,0,0,.93.1,3.75,3.75,0,0,0,.94-.12,2.17,2.17,0,0,0,.8-.38,2.25,2.25,0,0,0,.6-.69,2.81,2.81,0,0,0,.31-1,6.19,6.19,0,0,1-1,.47,3.45,3.45,0,0,1-1.14.16,3.82,3.82,0,0,1-1-.13,2.8,2.8,0,0,1-.86-.39,2.62,2.62,0,0,1-.82-1,3.28,3.28,0,0,1-.31-1.5,3.09,3.09,0,0,1,1-2.41,3.86,3.86,0,0,1,2.69-.93,4.72,4.72,0,0,1,1.52.23,3,3,0,0,1,1.14.69,3.31,3.31,0,0,1,.85,1.35A6.16,6.16,0,0,1,190.81,76.2Zm-2.36-.34a4.42,4.42,0,0,0-.15-1.24,1.84,1.84,0,0,0-.4-.75,1,1,0,0,0-.41-.28,1.42,1.42,0,0,0-.49-.09,1.28,1.28,0,0,0-.46.08,1.21,1.21,0,0,0-.42.29,1.49,1.49,0,0,0-.31.52,2.19,2.19,0,0,0-.12.77,1.8,1.8,0,0,0,.13.73,1.16,1.16,0,0,0,.36.47,1.3,1.3,0,0,0,.51.23,2.81,2.81,0,0,0,1.24,0,3.13,3.13,0,0,0,.51-.15s0-.11,0-.19S188.45,76,188.45,75.86Z" style="fill: url(#linear-gradient-31)"/>
      <path d="M199.79,78.21a3.28,3.28,0,0,1-.27,1.33,2.89,2.89,0,0,1-.78,1.05,3.75,3.75,0,0,1-1.3.69,5.75,5.75,0,0,1-1.68.23,9,9,0,0,1-1.87-.18,6.94,6.94,0,0,1-1.24-.38v-2h.26a6.47,6.47,0,0,0,1.21.55,4,4,0,0,0,1.29.22,4.38,4.38,0,0,0,.84-.09,1.5,1.5,0,0,0,.72-.32,1.52,1.52,0,0,0,.32-.39,1.33,1.33,0,0,0,.11-.61,1,1,0,0,0-.15-.55,1.16,1.16,0,0,0-.37-.37,2.07,2.07,0,0,0-.8-.27,6.26,6.26,0,0,0-.85-.06,5.75,5.75,0,0,0-1.06.1l-.89.19H193V72.13h6.53v1.76h-4.31v1.5l.48,0h.51a5.73,5.73,0,0,1,1.35.15,3.68,3.68,0,0,1,1,.4,2.43,2.43,0,0,1,.88.9A2.83,2.83,0,0,1,199.79,78.21Z" style="fill: url(#linear-gradient-32)"/>
    </g>
    <g>
      <path d="M155.49,61.83h-2.21v5.7h-1.82v-5.7h-2.21V60.47h6.24Z" style="fill: url(#linear-gradient-33)"/>
      <path d="M161.94,64.87a2.78,2.78,0,0,1-.77,2.07,3.44,3.44,0,0,1-4.31,0,3.19,3.19,0,0,1,0-4.15,3.44,3.44,0,0,1,4.31,0A2.8,2.8,0,0,1,161.94,64.87Zm-2.1,1.3a1.38,1.38,0,0,0,.25-.49,3,3,0,0,0,.08-.8,3.1,3.1,0,0,0-.09-.79,1.39,1.39,0,0,0-.24-.51.83.83,0,0,0-.37-.28,1.29,1.29,0,0,0-.46-.08,1.35,1.35,0,0,0-.44.07.89.89,0,0,0-.37.27,1.36,1.36,0,0,0-.25.51,3,3,0,0,0-.09.81,3.11,3.11,0,0,0,.08.76,1.33,1.33,0,0,0,.24.52.9.9,0,0,0,.36.27,1.35,1.35,0,0,0,.93,0A.82.82,0,0,0,159.84,66.17Z" style="fill: url(#linear-gradient-34)"/>
      <path d="M171.67,62.2,170,67.54H168.2l-1.09-3.59L166,67.54h-1.83l-1.64-5.33h1.79l.92,3.68,1.14-3.68h1.51L169,65.88l.9-3.68Z" style="fill: url(#linear-gradient-35)"/>
      <path d="M177.94,65.19H174a1.23,1.23,0,0,0,.48,1,2.12,2.12,0,0,0,1.29.33,2.91,2.91,0,0,0,1-.19,3.28,3.28,0,0,0,.8-.42h.19v1.37a6.33,6.33,0,0,1-1.09.34,5.68,5.68,0,0,1-1.14.1,3.71,3.71,0,0,1-2.46-.72,2.54,2.54,0,0,1-.85-2.06,2.75,2.75,0,0,1,.81-2.09,3.08,3.08,0,0,1,2.22-.77,2.65,2.65,0,0,1,2,.66,2.57,2.57,0,0,1,.66,1.89Zm-1.7-1a1.2,1.2,0,0,0-.27-.81,1,1,0,0,0-.78-.27,1.25,1.25,0,0,0-.81.26,1.09,1.09,0,0,0-.36.82Z" style="fill: url(#linear-gradient-36)"/>
      <path d="M183,63.83h-.15a1.55,1.55,0,0,0-.35-.06l-.4,0a3.89,3.89,0,0,0-.64,0,3.64,3.64,0,0,0-.6.16v3.57h-1.71V62.2h1.71V63a3.57,3.57,0,0,1,1-.64,2.18,2.18,0,0,1,.77-.16h.4Z" style="fill: url(#linear-gradient-37)"/>
      <path d="M189.91,62.7a2.68,2.68,0,0,1-.17.93,2.07,2.07,0,0,1-.47.76,2.91,2.91,0,0,1-.94.63,3.42,3.42,0,0,1-1.29.21H185.9v2.3h-1.82V60.47h3a4.74,4.74,0,0,1,1.14.12,2.67,2.67,0,0,1,.82.35,1.88,1.88,0,0,1,.65.72A2.26,2.26,0,0,1,189.91,62.7Zm-1.89,0a.84.84,0,0,0-.16-.51.88.88,0,0,0-.38-.3,1.71,1.71,0,0,0-.56-.13h-1V63.9h.52a4.23,4.23,0,0,0,.77-.06,1.09,1.09,0,0,0,.51-.23.88.88,0,0,0,.25-.36A1.48,1.48,0,0,0,188,62.74Z" style="fill: url(#linear-gradient-38)"/>
      <path d="M195,63.83h-.15a1.55,1.55,0,0,0-.35-.06l-.4,0a3.89,3.89,0,0,0-.64,0,3.64,3.64,0,0,0-.6.16v3.57h-1.71V62.2h1.71V63a3.57,3.57,0,0,1,1-.64,2.18,2.18,0,0,1,.77-.16h.4Z" style="fill: url(#linear-gradient-39)"/>
      <path d="M201.39,64.87a2.78,2.78,0,0,1-.77,2.07,3.44,3.44,0,0,1-4.31,0,3.19,3.19,0,0,1,0-4.15,3.44,3.44,0,0,1,4.31,0A2.8,2.8,0,0,1,201.39,64.87Zm-2.1,1.3a1.38,1.38,0,0,0,.25-.49,3,3,0,0,0,.08-.8,3.1,3.1,0,0,0-.09-.79,1.39,1.39,0,0,0-.24-.51.83.83,0,0,0-.37-.28,1.29,1.29,0,0,0-.46-.08,1.35,1.35,0,0,0-.44.07.89.89,0,0,0-.37.27,1.36,1.36,0,0,0-.25.51,3,3,0,0,0-.09.81,3.11,3.11,0,0,0,.08.76,1.33,1.33,0,0,0,.24.52.9.9,0,0,0,.36.27,1.35,1.35,0,0,0,.93,0A.82.82,0,0,0,199.29,66.17Z" style="fill: url(#linear-gradient-40)"/>
    </g>
    <g>
      <path d="M154.13,88.52a1.92,1.92,0,0,1-.25,1,1.82,1.82,0,0,1-.63.66,1.94,1.94,0,0,1-.63.24,4.19,4.19,0,0,1-.81.07h-1.38V86.56h1.42a3.73,3.73,0,0,1,.83.08,1.93,1.93,0,0,1,.58.23,1.78,1.78,0,0,1,.64.67A2,2,0,0,1,154.13,88.52Zm-1,0a1.44,1.44,0,0,0-.14-.66,1,1,0,0,0-.45-.43,1.17,1.17,0,0,0-.32-.1,3.2,3.2,0,0,0-.49,0h-.25v2.45h.25a3.07,3.07,0,0,0,.53,0,1.15,1.15,0,0,0,.33-.12,1,1,0,0,0,.41-.42A1.49,1.49,0,0,0,153.09,88.52Z" style="fill: url(#linear-gradient-41)"/>
      <path d="M157,90.48h-2.29v-.69h.64V87.26h-.64v-.69H157v.69h-.64v2.53H157Z" style="fill: url(#linear-gradient-42)"/>
      <path d="M161.31,90.25a5.29,5.29,0,0,1-.7.2,3.79,3.79,0,0,1-.87.1,2.17,2.17,0,0,1-1.57-.54,2.23,2.23,0,0,1,0-3,2.18,2.18,0,0,1,1.59-.56,3.77,3.77,0,0,1,.74.07,3.3,3.3,0,0,1,.78.28v.92h-.11l-.22-.16-.27-.17a1.8,1.8,0,0,0-.36-.14,1.51,1.51,0,0,0-.43-.06,1.42,1.42,0,0,0-.49.08,1.13,1.13,0,0,0-.39.24,1.1,1.1,0,0,0-.26.4,1.52,1.52,0,0,0-.1.56,1.35,1.35,0,0,0,.34,1,1.38,1.38,0,0,0,1,.34h.26v-.77h-.78v-.74h1.81Z" style="fill: url(#linear-gradient-43)"/>
      <path d="M164.33,90.48H162v-.69h.64V87.26H162v-.69h2.29v.69h-.64v2.53h.64Z" style="fill: url(#linear-gradient-44)"/>
    </g>
    <g>
      <path d="M173.36,90.51h-1.08V88.67H170.7v1.84h-1.08V86.34h1.08v1.53h1.59V86.34h1.08Z" style="fill: url(#linear-gradient-45)"/>
      <path d="M176.68,90.51h-2.44v-.74h.68V87.08h-.68v-.74h2.44v.74H176v2.69h.68Z" style="fill: url(#linear-gradient-46)"/>
      <path d="M179.48,89.06h-2.14v-.81h2.14Z" style="fill: url(#linear-gradient-47)"/>
      <path d="M183.66,89.2a1.19,1.19,0,0,1-.52,1,2.35,2.35,0,0,1-1.42.39,4,4,0,0,1-.9-.09,4.66,4.66,0,0,1-.72-.23v-1h.12a2.49,2.49,0,0,0,.75.41,2.43,2.43,0,0,0,.79.14l.26,0a1,1,0,0,0,.26-.06.65.65,0,0,0,.2-.13.3.3,0,0,0,.08-.22.3.3,0,0,0-.12-.24.81.81,0,0,0-.34-.15l-.5-.11a3.77,3.77,0,0,1-.49-.12,1.54,1.54,0,0,1-.76-.46,1.14,1.14,0,0,1-.23-.73,1.12,1.12,0,0,1,.52-1,2.28,2.28,0,0,1,1.34-.37,4.17,4.17,0,0,1,.81.08,3.81,3.81,0,0,1,.7.2v1h-.12a2.22,2.22,0,0,0-.62-.34A2.12,2.12,0,0,0,182,87l-.27,0a1.06,1.06,0,0,0-.26.07.49.49,0,0,0-.19.13.28.28,0,0,0-.08.2.29.29,0,0,0,.13.25,1.41,1.41,0,0,0,.48.16l.44.09.46.12a1.52,1.52,0,0,1,.71.43A1.05,1.05,0,0,1,183.66,89.2Z" style="fill: url(#linear-gradient-48)"/>
      <path d="M187.84,87.66a1.58,1.58,0,0,1-.1.55,1.22,1.22,0,0,1-.28.45,1.71,1.71,0,0,1-.56.37,2,2,0,0,1-.76.13h-.67v1.36h-1.08V86.34h1.77a2.81,2.81,0,0,1,.67.07,1.59,1.59,0,0,1,.48.21,1.11,1.11,0,0,1,.39.42A1.34,1.34,0,0,1,187.84,87.66Zm-1.11,0a.49.49,0,0,0-.1-.3.52.52,0,0,0-.22-.18,1,1,0,0,0-.33-.07h-.61v1.25h.31a2.51,2.51,0,0,0,.45,0,.64.64,0,0,0,.3-.13.52.52,0,0,0,.15-.21A.87.87,0,0,0,186.73,87.68Z" style="fill: url(#linear-gradient-49)"/>
      <path d="M191.62,90.51h-3V86.34h3v.81h-1.95v.72h1.81v.81h-1.81v1h1.95Z" style="fill: url(#linear-gradient-50)"/>
      <path d="M195.54,90.51h-3V86.34h3v.81h-1.95v.72h1.81v.81h-1.81v1h1.95Z" style="fill: url(#linear-gradient-51)"/>
      <path d="M200.39,88.43a2,2,0,0,1-.27,1,1.94,1.94,0,0,1-.67.71,2.06,2.06,0,0,1-.67.26,4.45,4.45,0,0,1-.86.07h-1.47V86.34H198a3.94,3.94,0,0,1,.88.09,2,2,0,0,1,.62.24,1.9,1.9,0,0,1,.68.71A2.13,2.13,0,0,1,200.39,88.43Zm-1.11,0a1.53,1.53,0,0,0-.15-.71,1,1,0,0,0-.48-.46,1.23,1.23,0,0,0-.34-.11,3.35,3.35,0,0,0-.52,0h-.27v2.61h.27a3.22,3.22,0,0,0,.56,0,1.22,1.22,0,0,0,.35-.13,1,1,0,0,0,.43-.45A1.58,1.58,0,0,0,199.28,88.42Z" style="fill: url(#linear-gradient-52)"/>
    </g>
    <rect height="36.12" rx="2.24" ry="2.24" style="fill: none;stroke-miterlimit: 10;stroke-width: 0.7909751456706985px;stroke: url(#linear-gradient-53)" width="60.11" x="145.26" y="56.63"/>
    <rect height="11.86" rx="2.24" ry="2.24" style="fill: none;stroke-miterlimit: 10;stroke-width: 0.7909751456706985px;stroke: url(#linear-gradient-54)" width="54.87" x="147.6" y="71"/>
  </g>
</svg>