<?xml version="1.0" ?><svg height="26.8mm" viewBox="0 0 36.38 75.97" width="12.83mm" xmlns="http://www.w3.org/2000/svg" xmlns:xlink="http://www.w3.org/1999/xlink">
  <defs>
    <linearGradient gradientUnits="userSpaceOnUse" id="Aquamarine" x2="36.38" y1="34.75" y2="34.75">
      <stop offset="0.01" stop-color="#bcd7dd"/>
      <stop offset="0.24" stop-color="#bed8de"/>
      <stop offset="0.36" stop-color="#c6dce2"/>
      <stop offset="0.46" stop-color="#d4e4e8"/>
      <stop offset="0.47" stop-color="#d6e5e9"/>
      <stop offset="0.48" stop-color="#d4e4e9"/>
      <stop offset="0.55" stop-color="#bad7e2"/>
      <stop offset="0.62" stop-color="#a6cddd"/>
      <stop offset="0.71" stop-color="#98c6da"/>
      <stop offset="0.82" stop-color="#90c2d8"/>
      <stop offset="1" stop-color="#8dc1d7"/>
    </linearGradient>
    <linearGradient gradientUnits="userSpaceOnUse" id="Gold" x1="11.94" x2="24.06" y1="9.94" y2="9.94">
      <stop offset="0.01" stop-color="#fbc926"/>
      <stop offset="0.25" stop-color="#fffbcc"/>
      <stop offset="0.3" stop-color="#f8f0bb"/>
      <stop offset="0.41" stop-color="#e7d28e"/>
      <stop offset="0.55" stop-color="#cca246"/>
      <stop offset="0.6" stop-color="#c3922e"/>
      <stop offset="0.87" stop-color="#eed688"/>
      <stop offset="1" stop-color="#fffbcc"/>
    </linearGradient>
    <radialGradient cx="17.91" cy="10.07" data-name="Brass Radial" gradientUnits="userSpaceOnUse" id="Brass_Radial" r="4.15">
      <stop offset="0.18" stop-color="#f4e8d9"/>
      <stop offset="0.59" stop-color="#edd089"/>
      <stop offset="1" stop-color="#c08329"/>
    </radialGradient>
  </defs>
  <title>Piezo Vibration Sensor - Large with Mass</title>
  <g data-name="Layer 3" id="Layer_3">
    <path d="M0,0V69.5H36.38V0ZM18,13.2c-4.12,0-4.12-6.4,0-6.4S22.08,13.2,18,13.2Z" style="opacity: 0.2;fill: url(#Aquamarine)"/>
  </g>
  <g id="Emoty">
    <path d="M4.08,3.87h7.17a9,9,0,0,0,6.94,14.54,9.54,9.54,0,0,0,7.4-5,9,9,0,0,0-.79-9.12V3.87h7.46l-.06,41.19-.62.38H16V66.91h-.31l0,.28H3.78V52.77L4,52.54v-7.1l-.27-.27V4.25Z" style="fill: #ebebe7"/>
    <rect height="15.06" style="fill: #ebebe7" width="12.25" x="19.75" y="52.12"/>
    <rect height="6.69" style="fill: #dcdcd5" width="12.03" x="19.75" y="45.44"/>
  </g>
  <g data-name="Layer 6" id="Layer_6">
    <path d="M18,3.87a6.06,6.06,0,1,0,6.06,6.06A6.06,6.06,0,0,0,18,3.87Zm-.14,10.25a4.06,4.06,0,1,1,4.06-4.06A4.06,4.06,0,0,1,17.86,14.13Z" style="fill: url(#Gold)"/>
    <path d="M17.91,5.92a4.15,4.15,0,1,0,4.15,4.15A4.15,4.15,0,0,0,17.91,5.92Zm0,6.91a2.75,2.75,0,1,1,2.75-2.75A2.75,2.75,0,0,1,17.91,12.82Z" style="fill: url(#Brass_Radial)"/>
  </g>
  <g data-name="Layer 2" id="Layer_2">
    <g id="VECTOE">
      <polygon points="8.63 71.79 12.55 71.79 12.55 73.07 11.34 73.07 11.34 75.97 9.7 75.97 9.7 73.05 8.63 73.05 8.63 71.79" style="fill: #dfd6db"/>
      <path d="M11.7,57.31V56.09H9.48v1.22c-1.18-.38-1.27.77-1.17,2.19V71.79h4.56V59.51C13,58.08,12.88,56.93,11.7,57.31Zm-.4,9.94a.73.73,0,0,1-1.44,0v-8.9a.73.73,0,0,1,1.44,0Z" style="fill: #decec5"/>
      <path d="M8.3,66.08a.54.54,0,0,1-.56-.5V58.24a.57.57,0,0,1,1.13,0v7.34A.54.54,0,0,1,8.3,66.08Z" style="fill: #ffe4af"/>
      <path d="M12.58,67.6a.52.52,0,0,1-.56-.48h0v-7a.57.57,0,0,1,1.13,0v7a.52.52,0,0,1-.56.48Z" style="fill: #ffe4af"/>
    </g>
    <g data-name="VECTOE" id="VECTOE-2">
      <polygon points="23.03 71.9 26.95 71.9 26.95 73.15 25.74 73.15 25.74 75.97 24.1 75.97 24.1 73.13 23.03 73.13 23.03 71.9" style="fill: #dfd6db"/>
      <path d="M26.1,57.42V56.2H23.88v1.22c-1.18-.38-1.27.77-1.17,2.19V71.9h4.56V59.62C27.37,58.19,27.28,57,26.1,57.42Zm-.4,9.94a.73.73,0,0,1-1.44,0v-8.9a.73.73,0,0,1,1.44,0Z" style="fill: #decec5"/>
      <path d="M22.7,66.19a.54.54,0,0,1-.56-.5V58.35a.57.57,0,0,1,1.13,0v7.34A.54.54,0,0,1,22.7,66.19Z" style="fill: #ffe4af"/>
      <path d="M27,67.71a.52.52,0,0,1-.56-.48h0v-7a.57.57,0,0,1,1.13,0v7a.52.52,0,0,1-.56.48Z" style="fill: #ffe4af"/>
    </g>
  </g>
  <g data-name="Layer 5" id="Layer_5">
    <g>
      <path d="M28.45,22.2v1H22.63a.4.4,0,1,1,0-.8h4.72v0l-1.13-.76h-.13c-.25,0-.48-.1-.48-.4s.23-.4.48-.4h.13l1.13-.76v0H22.63a.4.4,0,1,1,0-.8h5.82v1l-1.41,1Z" style="fill: #03038e"/>
      <path d="M23,28.56a.4.4,0,1,1-.8,0V25h6.22v3.55a.4.4,0,1,1-.8,0V25.81H25.74V27a.4.4,0,0,1-.8,0V25.81H23Z" style="fill: #03038e"/>
      <path d="M28,30.57c.22.06.41.15.41.41s-.2.36-.41.42l-5.41,1.54c-.19.06-.4-.16-.4-.38a.48.48,0,0,1,.4-.43l1-.3v-1.7l-1-.3a.48.48,0,0,1-.4-.43c0-.22.21-.44.4-.38ZM26.55,31v0l-2.17-.62v1.25Z" style="fill: #03038e"/>
      <path d="M23.8,37.32a1,1,0,0,1-.66.28.9.9,0,0,1-.9-1V34.83a1.18,1.18,0,0,1,.26-.81,1,1,0,0,1,.74-.38.43.43,0,0,1,.48.42.38.38,0,0,1-.41.38c-.24,0-.27.13-.27.35v1.74c0,.06,0,.26.1.26s.18-.11.23-.14l3.53-2.74a1,1,0,0,1,.66-.26.89.89,0,0,1,.77.42,1.07,1.07,0,0,1,.14.66v1.69a1.13,1.13,0,0,1-.26.79,1.09,1.09,0,0,1-.76.38.41.41,0,0,1-.46-.42.35.35,0,0,1,.38-.38c.27,0,.31-.14.31-.38v-1.7c0-.09,0-.27-.11-.27s-.17.09-.22.12Z" style="fill: #03038e"/>
    </g>
    <g>
      <path d="M12.15,18.29v.63H8.5a.25.25,0,1,1,0-.5h3l-.71-.48h-.08c-.16,0-.3-.06-.3-.25s.15-.25.3-.25h.08l.71-.48h-3a.25.25,0,1,1,0-.5h3.64v.63l-.88.61Z" style="fill: #03038e"/>
      <path d="M8.75,22.07a.25.25,0,0,1-.5,0V19.85h3.89v2.22a.25.25,0,0,1-.5,0V20.35h-1.2v.74a.25.25,0,0,1-.5,0v-.74H8.75Z" style="fill: #03038e"/>
      <path d="M11.89,24.13c.14,0,.26.09.26.25s-.13.23-.26.26l-3.39,1c-.12,0-.25-.1-.25-.24a.3.3,0,0,1,.25-.27l.6-.19V23.85l-.6-.19a.3.3,0,0,1-.25-.27c0-.14.13-.28.25-.24Zm-.93.26h0L9.6,24v.79Z" style="fill: #03038e"/>
      <path d="M9.23,28.34a.65.65,0,0,1-.42.17.56.56,0,0,1-.57-.63v-1.1a.74.74,0,0,1,.16-.51A.63.63,0,0,1,8.88,26a.27.27,0,0,1,.3.27.24.24,0,0,1-.26.24c-.15,0-.17.08-.17.22v1.09s0,.17.06.17.12-.07.15-.09l2.21-1.72a.6.6,0,0,1,.41-.17.56.56,0,0,1,.48.27.67.67,0,0,1,.09.42v1.06a.71.71,0,0,1-.17.5.68.68,0,0,1-.48.24.26.26,0,0,1-.29-.26.22.22,0,0,1,.24-.24c.17,0,.19-.08.19-.24V26.72c0-.05,0-.17-.07-.17s-.1.05-.14.07Z" style="fill: #03038e"/>
      <path d="M10.5,31.47c0,.21-.08.3-.31.3s-.31-.09-.31-.3V30.3c0-.21.08-.3.31-.3s.31.09.31.3Z" style="fill: #03038e"/>
      <path d="M9.23,35.54a.65.65,0,0,1-.42.17.56.56,0,0,1-.57-.63V34a.74.74,0,0,1,.16-.51.63.63,0,0,1,.47-.24.27.27,0,0,1,.3.27.24.24,0,0,1-.26.24c-.15,0-.17.08-.17.22v1.09s0,.17.06.17.12-.07.15-.09l2.21-1.72a.6.6,0,0,1,.41-.17.56.56,0,0,1,.48.27.67.67,0,0,1,.09.42V35a.71.71,0,0,1-.17.5.68.68,0,0,1-.48.24.26.26,0,0,1-.29-.26.22.22,0,0,1,.24-.24c.17,0,.19-.08.19-.24V33.92c0-.05,0-.17-.07-.17s-.1.05-.14.07Z" style="fill: #03038e"/>
      <path d="M8.5,36.85a.25.25,0,1,1,0-.5h3.64V38a.73.73,0,0,1-.21.58.76.76,0,0,1-.66.24H10.6a.83.83,0,0,1-.64-.21.77.77,0,0,1-.24-.67v-1.1Zm1.72,0V38c0,.3.07.36.36.36h.7c.29,0,.36-.06.36-.36V36.85Z" style="fill: #03038e"/>
      <path d="M8.75,42a.25.25,0,0,1-.5,0V39.74h3.89V42a.25.25,0,0,1-.5,0V40.25h-1.2V41a.25.25,0,0,1-.5,0v-.74H8.75Z" style="fill: #03038e"/>
      <path d="M8.25,44a.75.75,0,0,1,.48-.75l.93-.46a1.13,1.13,0,0,1,.53-.13,1.09,1.09,0,0,1,.56.14l.93.46a.75.75,0,0,1,.48.77v.85a.24.24,0,0,1-.25.25.24.24,0,0,1-.25-.25V44c0-.22,0-.25-.21-.35l-.87-.44a.78.78,0,0,0-.38-.1.7.7,0,0,0-.35.1L9,43.68c-.21.1-.22.15-.22.38v.82a.23.23,0,0,1-.25.25.24.24,0,0,1-.25-.25Z" style="fill: #03038e"/>
      <path d="M8.89,46.1c0-.11,0-.19.1-.26a.32.32,0,0,1,.23-.05h.28a.32.32,0,0,1,.23.05c.1.07.1.15.1.26v.36c0,.11,0,.19-.1.26a.32.32,0,0,1-.23.05H9.21A.32.32,0,0,1,9,46.72c-.1-.07-.1-.15-.1-.26Z" style="fill: #03038e"/>
      <path d="M8.25,48.49a.75.75,0,0,1,.48-.75l.93-.46a1.12,1.12,0,0,1,.53-.14,1.09,1.09,0,0,1,.56.14l.93.46a.75.75,0,0,1,.48.77v.85a.24.24,0,0,1-.25.25.24.24,0,0,1-.25-.25v-.84c0-.22,0-.25-.21-.35l-.87-.44a.78.78,0,0,0-.38-.1.7.7,0,0,0-.35.1L9,48.17c-.21.1-.22.15-.22.38v.82a.23.23,0,0,1-.25.25.24.24,0,0,1-.25-.25Z" style="fill: #03038e"/>
      <path d="M10.74,53.09a1.14,1.14,0,0,1-.56.13,1.23,1.23,0,0,1-.6-.17l-.92-.46a.66.66,0,0,1,0-1.22l.92-.46a1.23,1.23,0,0,1,.6-.17,1.14,1.14,0,0,1,.56.13l1,.5a.65.65,0,0,1,0,1.21Zm.76-.94c.08,0,.15-.06.15-.17s-.07-.13-.15-.17l-.91-.45a.78.78,0,0,0-.41-.12.67.67,0,0,0-.33.08l-1,.48c-.07,0-.15.07-.15.17s.08.13.15.17l1,.48a.67.67,0,0,0,.33.08.78.78,0,0,0,.41-.12Z" style="fill: #03038e"/>
      <path d="M12.15,55.89v.63H8.5a.25.25,0,1,1,0-.5h3l-.71-.48h-.08c-.16,0-.3-.06-.3-.25s.15-.25.3-.25h.08l.71-.48h-3a.25.25,0,1,1,0-.5h3.64v.63l-.88.61Z" style="fill: #03038e"/>
    </g>
  </g>
  <g id="Connectors">
    <rect data-cir-type="male" height="0.88" id="circuitoCon_-" style="fill: #dfd6db" width="1.68" x="9.7" y="75.08"/>
    <rect data-cir-type="male" data-name="circuitoCon_+" height="0.88" id="circuitoCon_+" style="fill: #dfd6db" width="1.68" x="24.07" y="75.08"/>
  </g>
</svg>