<?xml version="1.0" ?><svg data-name="Layer 1" height="17.49mm" id="Layer_1" viewBox="0 0 56.58 49.58" width="19.96mm" xmlns="http://www.w3.org/2000/svg">
  <title>circuito_Adafruit VL53L0X Time of Flight Distance Sensor</title>
  <g data-name="Layer 5" id="Layer_5">
    <path d="M50.67,0H5.92A5.92,5.92,0,0,0,0,5.92V43.67a5.92,5.92,0,0,0,5.92,5.92H50.67a5.92,5.92,0,0,0,5.92-5.92V5.92A5.92,5.92,0,0,0,50.67,0ZM42.79,41.33a1.46,1.46,0,1,1-1.46,1.46h0A1.46,1.46,0,0,1,42.79,41.33ZM2.84,7.2a3.89,3.89,0,1,1,3.89,3.89A3.89,3.89,0,0,1,2.84,7.2Zm3.94,37a1.46,1.46,0,1,1,1.46-1.46h0a1.46,1.46,0,0,1-1.41,1.51H6.78ZM45.19,47H8.63V45.65a3.31,3.31,0,0,0-1.22-6V36.46h3.11v-.37h1.63v.47h1l.68-.68V34.32H13.1V32.89h.8V31.38l-.6-.6h-1l-.3-.45V18.76l1.14-.34V16.69h-.95V15.4h1.06V14.15h1.94v4.29l.51.51-.63.63v4.14l.55.55H17v.83l-.7.28h-.83l-.58.58v3.86l.35.35v.45l-.41.41v4l.47.47h1.27V39l-.94.94a3.2,3.2,0,0,0-4.79,3.25,3.28,3.28,0,0,0,5.89,1.42,3.42,3.42,0,0,0,.57-1.42,3.46,3.46,0,0,0-.3-2l1.77-1.49.08-4.22,1.64-.26V30.44l1.76,1.76v2.3l.48.48h2.62v.76H31V39.9l1.63,1.63a3.25,3.25,0,0,0,4.09,4.32,3.38,3.38,0,0,0,2.16-2.12,3.27,3.27,0,0,0-1.5-3.61,3.14,3.14,0,0,0-1.83-.45,3.07,3.07,0,0,0-1.24.37l-1.12-1.12V35.06h1l.56-.41h.39V36l.41.41h.92v1.75l3.36,3.36a3.59,3.59,0,0,0,0,2.36A3.73,3.73,0,0,0,42,46a3.21,3.21,0,0,0,3-.5l.16.16ZM15.44,42.8A1.46,1.46,0,1,1,14,41.33h0a1.46,1.46,0,0,1,1.44,1.46Zm18.68,0a1.46,1.46,0,1,1,1.46,1.46h0a1.46,1.46,0,0,1-1.45-1.47h0ZM50,44.25a1.46,1.46,0,1,1,1.46-1.46h0A1.46,1.46,0,0,1,50,44.25Zm-.2-33.16a3.89,3.89,0,1,1,3.87-3.91v0a3.89,3.89,0,0,1-3.88,3.89Z" style="fill: #1a2c80"/>
    <path d="M18.39,43.59a3,3,0,0,0,2.11,2.32l.15-.62L19,43.45Z" style="fill: #1a2c80"/>
    <path d="M20.65,40.36l-.15-.57a3,3,0,0,0-2.31,2.11l.63.15Z" style="fill: #1a2c80"/>
    <path d="M22,39.89l-.12.63,1.76,1.77.57-.17A3,3,0,0,0,22,39.89Z" style="fill: #1a2c80"/>
    <path d="M28.38,39.57a3.22,3.22,0,1,0,3.22,3.22,3.22,3.22,0,0,0-3.22-3.22Zm0,4.68a1.46,1.46,0,1,1,1.46-1.46h0A1.46,1.46,0,0,1,28.38,44.25Z" style="fill: #1a2c80"/>
    <path d="M21.66,45.25l.16.57a3,3,0,0,0,2.27-2.16l-.63-.13Z" style="fill: #1a2c80"/>
  </g>
  <g data-name="Layer 4" id="Layer_4">
    <line style="fill: none;stroke: #0b5597;stroke-miterlimit: 10;stroke-width: 0.699999988079071px" x1="30.79" x2="24.48" y1="26.82" y2="33.14"/>
    <line style="fill: none;stroke: #0b5597;stroke-miterlimit: 10;stroke-width: 0.699999988079071px" x1="24.7" x2="18.56" y1="32.66" y2="27.5"/>
    <polyline points="17.95 23 17.95 24.82 21.14 24.82 22.48 26.16 25.41 26.16" style="fill: none;stroke: #0b5597;stroke-miterlimit: 10;stroke-width: 0.699999988079071px"/>
    <circle cx="23.92" cy="28.81" r="1.29" style="fill: #0b5597"/>
    <circle cx="22.31" cy="22.43" r="1.29" style="fill: #0b5597"/>
    <circle cx="22.63" cy="17.23" r="1.29" style="fill: #0b5597"/>
    <circle cx="24.78" cy="11.19" r="1.29" style="fill: #0b5597"/>
    <circle cx="24.84" cy="11.14" r="1.29" style="fill: none"/>
    <circle cx="33.79" cy="17.46" r="1.29" style="fill: #0b5597"/>
    <circle cx="46.32" cy="28.12" r="1.29" style="fill: #0b5597"/>
    <path d="M11.2,13.72l.49-.54h1.54V12.1h.71V10.5h-.56l-.73-.73A3.78,3.78,0,0,1,10,12.46v1.25Z" style="fill: #0b5597"/>
    <polyline points="19.71 14.97 20.97 13.71 41.83 13.71 42.88 14.75 42.88 16.08" style="fill: none;stroke: #0b5597;stroke-miterlimit: 10"/>
    <polyline points="42.78 14.65 52 14.65 53.94 16.59" style="fill: none;stroke: #0b5597;stroke-miterlimit: 10"/>
    <polyline points="45.72 20.77 45.72 26.22 43.57 26.22" style="fill: none;stroke: #0b5597;stroke-linecap: round;stroke-miterlimit: 10"/>
    <polyline points="40.26 20.77 40.26 25.18 40.26 28.81 37.14 31.93" style="fill: none;stroke: #0b5597;stroke-linecap: round;stroke-miterlimit: 10"/>
    <polyline points="31.98 33.2 31.98 39.15 34.21 41.38" style="fill: none;stroke: #0b5597;stroke-linecap: round;stroke-miterlimit: 10"/>
    <polyline points="44.2 33.43 46.32 33.43 46.32 46.55 44.79 48.08 8.64 48.08 6.45 45.89 6.45 44.68" style="fill: none;stroke: #0b5597;stroke-linecap: round;stroke-miterlimit: 10"/>
    <polyline points="5.89 40.76 5.89 32.89 5.3 32.3 5.3 29.5" style="fill: none;stroke: #0b5597;stroke-miterlimit: 10"/>
    <line style="fill: none;stroke: #0b5597;stroke-miterlimit: 10" x1="7.86" x2="10.13" y1="29.58" y2="31.85"/>
    <line style="fill: none;stroke: #0b5597;stroke-miterlimit: 10" x1="25.45" x2="27.41" y1="11.81" y2="13.78"/>
    <polyline points="22.87 22.03 23.5 21.4 25.55 21.4" style="fill: none;stroke: #0b5597;stroke-miterlimit: 10"/>
    <line style="fill: none;stroke: #0b5597;stroke-miterlimit: 10" x1="24.08" x2="24.08" y1="27.96" y2="26.04"/>
    <line style="fill: none;stroke: #0b5597;stroke-miterlimit: 10" x1="22.87" x2="25.41" y1="17.95" y2="20.5"/>
    <line style="fill: none;stroke: #0b5597;stroke-miterlimit: 10" x1="34.83" x2="36.86" y1="17.56" y2="17.56"/>
    <line style="fill: none;stroke: #0b5597;stroke-miterlimit: 10" x1="48.36" x2="48.36" y1="19.93" y2="21.9"/>
    <line style="fill: none;stroke: #0b5597;stroke-miterlimit: 10" x1="53.83" x2="53.83" y1="19.93" y2="21.9"/>
    <line style="fill: none;stroke: #0b5597;stroke-miterlimit: 10" x1="52" x2="54.37" y1="29.67" y2="32.03"/>
    <polyline points="53.62 35.2 53.62 38.87 51.04 41.45" style="fill: none;stroke: #0b5597;stroke-miterlimit: 10"/>
    <polygon points="28.23 31.31 34.21 31.31 34.68 31.85 35.37 30.72 36.52 30.72 38.02 29.22 38.02 28.26 35.52 28.26 35.52 20.77 35.18 20.45 35.08 19.15 32.18 19.05 31.55 19.05 31.55 28.16 28.23 31.31" style="fill: #0b5597"/>
    <path d="M42.59,27.78V30.6l2.22.11.91.7.62-1.09a2.47,2.47,0,0,1-1.7-1.06,2.37,2.37,0,0,1-.35-1.44Z" style="fill: #0b5597"/>
    <line style="fill: none;stroke: #0b5597;stroke-miterlimit: 10" x1="5.31" x2="5.31" y1="17.33" y2="19.61"/>
    <path d="M9.63.54h38a9.34,9.34,0,0,0-4.3,6.66,4,4,0,0,0-4.19-.31A4.15,4.15,0,0,0,38,12.48l-8,.15a3,3,0,0,0-.32-2.19C28.8,9,26.41,8.49,23.93,9.53l-1-1.11L19,8.46l-.72.75-.94-.7H13A6.63,6.63,0,0,0,9.29,1.12Z" style="fill: #0b5597"/>
    <path d="M43.58,46.1A3.23,3.23,0,0,1,42,46a3.73,3.73,0,0,1-2.22-2.14,3.59,3.59,0,0,1,0-2.36l-3.36-3.36V36.36H35.5L35.11,36V34.64h-.39l-.56.41h-1v3.86L34.26,40a3.07,3.07,0,0,1,1.24-.37,3.14,3.14,0,0,1,1.83.45,3.27,3.27,0,0,1,1.5,3.61,3.38,3.38,0,0,1-2.16,2.12,3.25,3.25,0,0,1-4.09-4.32L31,39.9V35.73H25.33V35H22.71l-.48-.48V32.2l-1.76-1.76V35.3l-1.64.26-.08,4.22L17,41.27a3.46,3.46,0,0,1,.3,2,3.42,3.42,0,0,1-.57,1.42,3.28,3.28,0,0,1-5.89-1.42A3.2,3.2,0,0,1,15.62,40l.94-.94V35.53H15.29l-.47-.47V31l.41-.41v-.45l-.35-.35V26l.58-.58h.83l.7-.28v-.83H15.64l-.55-.55V19.58l.63-.63-.51-.51V14.15H13.27V15.4H12.21v1.3h.95v1.72L12,18.76V30.33l.25.45h1l.6.6v1.51h-.8v1.43h.77v1.56l-.68.68h-1v-.83H10.53v.74H7.41V39.6a3.31,3.31,0,0,1,1.22,6V47H45.19V45.63L45,45.47A3.23,3.23,0,0,1,43.58,46.1ZM19.15,40.44a3.07,3.07,0,0,1,1.35-.65l.15.57L18.81,42l-.62-.15A3.09,3.09,0,0,1,19.15,40.44Zm1.35,5.47a3,3,0,0,1-2.11-2.32l.57-.14,1.68,1.84Zm-.73-3.12a1.42,1.42,0,1,1,1.42,1.42h0A1.42,1.42,0,0,1,19.77,42.79Zm3.39,2.35a3.07,3.07,0,0,1-1.34.68l-.16-.57,1.8-1.72.63.13a3.09,3.09,0,0,1-.94,1.48Zm.53-2.86-1.76-1.77.12-.63a3,3,0,0,1,2.2,2.23ZM28.38,46a3.22,3.22,0,1,1,3.22-3.22A3.22,3.22,0,0,1,28.38,46Z" style="fill: #0b5597"/>
  </g>
  <g id="Connectors">
    <circle cx="6.78" cy="42.79" id="connector10pin" r="1.97" style="fill: none;stroke: #e8e5df;stroke-width: 1.102679967880249px"/>
    <circle cx="13.98" cy="42.79" id="connector11pin" r="1.97" style="fill: none;stroke: #e8e5df;stroke-width: 1.102679967880249px"/>
    <circle cx="21.18" cy="42.79" id="connector12pin" r="1.97" style="fill: none;stroke: #e8e5df;stroke-width: 1.102679967880249px"/>
    <circle cx="28.38" cy="42.79" id="connector13pin" r="1.97" style="fill: none;stroke: #e8e5df;stroke-width: 1.102679967880249px"/>
    <circle cx="35.58" cy="42.79" id="connector14pin" r="1.97" style="fill: none;stroke: #e8e5df;stroke-width: 1.102679967880249px"/>
    <circle cx="42.78" cy="42.79" id="connector15pin" r="1.97" style="fill: none;stroke: #e8e5df;stroke-width: 1.102679967880249px"/>
    <circle cx="49.98" cy="42.79" id="connector16pin" r="1.97" style="fill: none;stroke: #e8e5df;stroke-width: 1.102679967880249px"/>
    <circle cx="28.38" cy="42.79" id="connector14pin-2" r="1.97" style="fill: none;stroke: #e8e5df;stroke-width: 1.102679967880249px"/>
  </g>
  <g data-name="Layer 3" id="Layer_3">
    <circle cx="6.73" cy="7.2" r="4.35" style="fill: none;stroke: #ffdbcd;stroke-miterlimit: 10"/>
    <circle cx="49.79" cy="7.2" r="4.35" style="fill: none;stroke: #ffdbcd;stroke-miterlimit: 10"/>
    <circle cx="40.98" cy="10.02" r="1.79" style="fill: #ffdbcd;stroke: #000;stroke-miterlimit: 10"/>
    <circle cx="2.52" cy="38.56" r="1.79" style="fill: #ffdbcd;stroke: #000;stroke-miterlimit: 10"/>
    <rect height="12.14" style="fill: #4a4a51" width="6.8" x="24.98" y="15.25"/>
    <circle cx="28.1" cy="17.23" r="0.84"/>
    <circle cx="33.79" cy="22.58" r="0.55" style="fill: #1a2c80"/>
    <circle cx="22.58" cy="17.23" r="0.55" style="fill: #1a2c80"/>
    <circle cx="24.78" cy="11.14" r="0.55" style="fill: #1a2c80"/>
    <circle cx="33.79" cy="17.56" r="0.55" style="fill: #1a2c80"/>
    <circle cx="22.31" cy="22.45" r="0.55" style="fill: #1a2c80"/>
    <circle cx="31.98" cy="30.05" r="0.55" style="fill: #1a2c80"/>
    <circle cx="46.32" cy="28.26" r="0.55" style="fill: #1a2c80"/>
    <circle cx="23.92" cy="28.97" r="0.55" style="fill: #1a2c80"/>
    <circle cx="28.31" cy="25.73" r="0.55"/>
    <rect height="4.13" style="fill: #424249" width="8.83" x="3.19" y="22.58"/>
    <rect height="1.07" style="fill: #fff5ff" width="1.29" x="4.53" y="21.49"/>
    <rect height="1.07" style="fill: #fff5ff" width="1.29" x="9.91" y="21.49"/>
    <rect height="2.46" style="fill: #c7c5c4" width="1.56" x="4.53" y="19.05"/>
    <rect height="2.46" style="fill: #c7c5c4" width="1.56" x="9.91" y="19.25"/>
    <rect height="3.4" style="fill: #c7c5c4" width="0.95" x="4.6" y="26.65"/>
    <rect height="1.37" style="fill: #c7c5c4" width="2.25" x="3.93" y="28.66"/>
    <rect height="1.37" style="fill: #c7c5c4" width="2.25" x="6.63" y="28.66"/>
    <rect height="1.37" style="fill: #c7c5c4" width="2.25" x="9.58" y="28.66"/>
    <rect height="3.34" style="fill: #c7c5c4" width="0.91" x="7.3" y="26.7"/>
    <rect height="3.35" style="fill: #c7c5c4" width="1.43" x="9.99" y="26.7"/>
    <rect height="3.43" style="fill: #413e4a" width="8.16" x="36.15" y="23.93"/>
    <rect height="0.93" style="fill: #fff" width="1.22" x="37.02" y="23"/>
    <rect height="0.93" style="fill: #fff" width="1.22" x="42.35" y="23"/>
    <rect height="0.93" style="fill: #fff" width="1.22" x="39.65" y="26.82"/>
    <rect height="0.93" style="fill: #fff" width="1.22" x="50.7" y="26.82"/>
    <rect height="0.93" style="fill: #fff" width="1.22" x="47.85" y="23"/>
    <rect height="0.93" style="fill: #fff" width="1.22" x="53.15" y="23"/>
    <rect height="3.43" style="fill: #413e4a" width="8.16" x="46.98" y="23.93"/>
    <rect height="2.48" style="fill: #b4b9c4" width="2.83" x="36.15" y="21.19"/>
    <rect height="2.48" style="fill: #b4b9c4" width="2.83" x="41.36" y="21.19"/>
    <rect height="2.48" style="fill: #b4b9c4" width="2.83" x="47.04" y="21.19"/>
    <rect height="2.48" style="fill: #b4b9c4" width="2.83" x="52.25" y="21.19"/>
    <rect height="2.48" style="fill: #b4b9c4" width="2.83" x="49.67" y="27.73"/>
    <rect height="2.48" style="fill: #b4b9c4" width="2.83" x="38.82" y="27.73"/>
    <rect height="4.46" style="fill: #b4b9c4" width="3.84" x="35.81" y="15.98"/>
    <rect height="4.46" style="fill: #b4b9c4" width="3.84" x="40.67" y="15.98"/>
    <rect height="3.5" style="fill: #eae8d0" width="5.43" x="37.43" y="16.46"/>
    <rect height="2.49" width="4.36" x="37.96" y="16.97"/>
    <rect height="4.46" style="fill: #b4b9c4" width="3.84" x="35.88" y="31.41"/>
    <rect height="4.46" style="fill: #b4b9c4" width="3.84" x="40.74" y="31.41"/>
    <rect height="3.5" style="fill: #eae8d0" width="5.43" x="37.5" y="31.88"/>
    <rect height="2.49" width="4.36" x="38.08" y="32.3"/>
    <rect height="4.46" style="fill: #b4b9c4" width="3.84" x="4.4" y="31.26"/>
    <rect height="4.46" style="fill: #b4b9c4" width="3.84" x="9.26" y="31.26"/>
    <rect height="3.5" style="fill: #eae8d0" width="5.43" x="6.02" y="31.75"/>
    <rect height="2.49" style="fill: #e8d4b9" width="4.36" x="6.62" y="32.25"/>
    <rect height="4.46" style="fill: #b4b9c4" width="3.84" x="3.51" y="13.71"/>
    <rect height="4.46" style="fill: #b4b9c4" width="3.84" x="8.37" y="13.72"/>
    <rect height="3.5" style="fill: #eae8d0" width="5.43" x="5.15" y="14.2"/>
    <rect height="2.49" style="fill: #e8d4b9" width="4.36" x="5.68" y="14.65"/>
    <rect height="4.46" style="fill: #b4b9c4" width="3.84" x="13.82" y="9.2"/>
    <rect height="4.46" style="fill: #b4b9c4" width="3.84" x="18.68" y="9.2"/>
    <rect height="3.5" style="fill: #eae8d0" width="5.43" x="15.44" y="9.63"/>
    <rect height="2.49" style="fill: #e8d4b9" width="4.36" x="15.97" y="10.14"/>
    <rect height="4.05" style="fill: #b4b9c4" width="4.46" x="15.36" y="25.77"/>
    <rect height="4.05" style="fill: #b4b9c4" width="4.46" x="15.35" y="30.89"/>
    <rect height="5.72" style="fill: #eae8d0" width="3.5" x="15.94" y="27.47"/>
    <rect height="4.6" width="2.49" x="16.45" y="28.12"/>
    <rect height="4.05" style="fill: #b4b9c4" width="4.46" x="15.95" y="14.46"/>
    <rect height="4.05" style="fill: #b4b9c4" width="4.46" x="15.94" y="19.58"/>
    <rect height="5.72" style="fill: #eae8d0" width="3.5" x="16.4" y="16.16"/>
    <rect height="4.6" width="2.49" x="16.9" y="16.75"/>
    <rect height="4.46" style="fill: #b4b9c4" width="3.84" x="46.61" y="31.4"/>
    <rect height="4.46" style="fill: #b4b9c4" width="3.84" x="51.47" y="31.41"/>
    <rect height="3.5" style="fill: #eae8d0" width="5.43" x="48.26" y="31.89"/>
    <rect height="2.49" width="4.36" x="48.79" y="32.3"/>
    <rect height="4.46" style="fill: #b4b9c4" width="3.84" x="46.34" y="15.98"/>
    <rect height="4.46" style="fill: #b4b9c4" width="3.84" x="51.21" y="15.99"/>
    <rect height="3.5" style="fill: #eae8d0" width="5.43" x="47.99" y="16.47"/>
    <rect height="2.49" width="4.36" x="48.52" y="16.9"/>
    <rect height="2.54" style="fill: #b4b9c4" width="11.03" x="22.87" y="31.96"/>
    <rect height="3.54" width="4.54" x="26.12" y="31.66"/>
  </g>
  <g data-name="White and Text" id="White_and_Text">
    <path d="M31.51,9.41a2.53,2.53,0,0,0-2.23-.28,3.78,3.78,0,0,0-.28-2c-.15-.48-.37-.64-.76,0a2.24,2.24,0,0,0-.89,1.86c-.39-.54-1.16-.58-2-.45-.61,0-.66.31-.36.73a2.6,2.6,0,0,0,1.2,1.3c.3,0,.45.1.21.21a2.77,2.77,0,0,0-.9,1.89c-.14.6.14.6.58.37a2.48,2.48,0,0,0,1.61-.77c.16-.18.29-.29.29-.1a.55.55,0,0,0,.18.47,5.4,5.4,0,0,0,1.34,1c.33.23.47.12.47-.28a8.57,8.57,0,0,0,.11-.88,1.73,1.73,0,0,0-.07-.81,1.36,1.36,0,0,0-.08-.17l-.22-.16c-.21-.21-.16-.29.16-.26a2.17,2.17,0,0,0,1.65-.87C31.88,9.84,31.85,9.6,31.51,9.41Z" style="fill: #fff"/>
    <ellipse cx="28.3" cy="9.43" rx="0.19" ry="0.14" transform="translate(11.65 34.18) rotate(-74.49)"/>
    <ellipse cx="29.01" cy="10.15" rx="0.19" ry="0.14" transform="translate(-1.68 11.74) rotate(-22.24)"/>
    <ellipse cx="28.61" cy="11.03" rx="0.14" ry="0.19" transform="translate(-2 12.74) rotate(-24.29)"/>
    <ellipse cx="27.49" cy="10.96" rx="0.19" ry="0.14" transform="translate(5.28 30.52) rotate(-63.1)"/>
    <ellipse cx="27.43" cy="9.82" rx="0.14" ry="0.19" transform="translate(13.36 35.33) rotate(-80.82)"/>
    <circle cx="30.79" cy="13.58" r="1.1" style="fill: #fff"/>
    <g>
      <path d="M4.82,24.85h.67c.1,0,.12,0,.12.13v.45c0,.09,0,.13-.13.13H4.75c-.09,0-.13,0-.13-.13V24.1s0-.1.09-.1h.12a.1.1,0,0,1,0,.2h0Zm0,.2v.31H5.4V25Z" style="fill: #fff"/>
      <path d="M6.41,25a.1.1,0,1,1,0-.2H6.8v.39a.3.3,0,0,1-.29.31H6.14a.3.3,0,0,1-.23-.08.29.29,0,0,1-.09-.25v-.5a.41.41,0,0,1,.1-.29l.24-.3A.31.31,0,0,1,6.44,24H6.7a.1.1,0,1,1,0,.2H6.46c-.11,0-.1,0-.17.08l-.22.28a.38.38,0,0,0-.06.26v.39c0,.11,0,.14.14.14h.32c.07,0,.13,0,.13-.1V25Z" style="fill: #fff"/>
      <path d="M7.48,24.67c-.06,0-.13,0-.13-.1s.07-.1.13-.1h.26a.3.3,0,0,1,.25.09.28.28,0,0,1,.09.23v.65c0,.06,0,.11-.09.11a.1.1,0,0,1-.1-.1h0l-.13.07a.18.18,0,0,1-.12,0H7.48a.3.3,0,0,1-.22-.07.27.27,0,0,1-.1-.24v-.08A.25.25,0,0,1,7.25,25a.32.32,0,0,1,.22-.07h.41c0-.14,0-.17-.17-.17Zm0,.4s-.13,0-.13.08v.13c0,.06.08.08.12.08h.21l.21-.11h0c0-.11,0-.14-.14-.14Z" style="fill: #fff"/>
      <path d="M9.14,24a.09.09,0,0,1,.1.1v.58a.21.21,0,0,1,.15.06.19.19,0,0,1,0,.15v.48a.19.19,0,0,1-.18.2h-.6a.19.19,0,0,1-.2-.2v-.48a.19.19,0,0,1,0-.15.21.21,0,0,1,.15-.06V24.1a.09.09,0,0,1,.08-.1h.4Zm.1,1.36v-.48H8.66v.48ZM9,24.68V24.2H8.86v.48Z" style="fill: #fff"/>
      <path d="M10.49,25.11l.1.18.06-.18v-.5c0-.07,0-.14.1-.14s.1.07.09.14v.53l-.09.28c0,.06,0,.12-.1.12h-.07a.09.09,0,0,1-.08-.06l-.1-.16-.1.16s0,.06-.08.06h-.07c-.07,0-.08-.06-.1-.12L10,25.14v-.53c0-.07,0-.14.09-.14s.09.07.1.14v.5l.06.18.1-.18v-.18c0-.07,0-.13.1-.13s.1.07.1.13Z" style="fill: #fff"/>
    </g>
    <g>
      <path d="M18.74,20.25h-.4a.1.1,0,0,1,0-.2h.5a.09.09,0,0,1,.1.1v.79a.1.1,0,0,1-.2,0v-.29H17.58v.29a.1.1,0,0,1-.2,0v-.49h1.36Z" style="fill: #fff"/>
      <path d="M17.38,19.25a.2.2,0,0,1,.2-.2h1.16a.2.2,0,0,1,.2.2h0v.59a.2.2,0,0,1-.2.2H17.58a.2.2,0,0,1-.2-.2h0Zm1.36,0H17.58v.59h1.16Z" style="fill: #fff"/>
      <path d="M17.38,18.17a.2.2,0,0,1,.2-.2h1.16a.2.2,0,0,1,.2.2h0v.59a.2.2,0,0,1-.2.2H17.58a.2.2,0,0,1-.2-.2h0Zm1.36,0H17.58v.59h1.16Z" style="fill: #fff"/>
      <path d="M18.74,17.64V17a.1.1,0,0,1,.2,0v.89h-.65a.2.2,0,0,1-.23-.23V17.1h-.48v.69a.1.1,0,0,1-.2,0v-.66a.21.21,0,0,1,.2-.22H18a.21.21,0,0,1,.23.22v.56Z" style="fill: #fff"/>
    </g>
    <g>
      <path d="M41.53,17.65V18a.1.1,0,1,1-.2,0v-.5a.09.09,0,0,1,.08-.1h.81a.1.1,0,0,1,0,.2h-.29v1.16h.29a.1.1,0,0,1,0,.2h-.49V17.65Z" style="fill: #fff"/>
      <path d="M40.53,19a.2.2,0,0,1-.2-.2h0V17.65a.2.2,0,0,1,.2-.2h.59a.2.2,0,0,1,.2.2h0v1.16a.2.2,0,0,1-.2.2h-.59Zm0-1.36V18.8h.59V17.65Z" style="fill: #fff"/>
      <path d="M39.45,19a.2.2,0,0,1-.2-.2h0V17.65a.2.2,0,0,1,.2-.2H40a.2.2,0,0,1,.2.2h0v1.16a.2.2,0,0,1-.2.2h-.55Zm0-1.36V18.8H40V17.65Z" style="fill: #fff"/>
      <path d="M38.92,17.65h-.69a.1.1,0,1,1,0-.2h.89v.65a.2.2,0,0,1-.17.23h-.61v.48H39a.1.1,0,0,1,0,.2h-.66a.21.21,0,0,1-.22-.23v-.41a.21.21,0,0,1,.19-.23h.59Z" style="fill: #fff"/>
    </g>
    <g>
      <path d="M41.56,32.86v.4a.1.1,0,0,1-.2,0v-.5a.09.09,0,0,1,.08-.1h.81a.1.1,0,0,1,0,.2H42V34h.29a.1.1,0,0,1,0,.2H41.8V32.86Z" style="fill: #fff"/>
      <path d="M40.56,34.21a.2.2,0,0,1-.2-.2h0V32.86a.2.2,0,0,1,.2-.2h.59a.2.2,0,0,1,.2.2h0V34a.2.2,0,0,1-.2.2h-.59Zm0-1.36V34h.59V32.86Z" style="fill: #fff"/>
      <path d="M39.48,34.21a.2.2,0,0,1-.2-.2h0V32.86a.2.2,0,0,1,.2-.2h.59a.2.2,0,0,1,.2.2h0V34a.2.2,0,0,1-.2.2h-.59Zm0-1.36V34h.59V32.86Z" style="fill: #fff"/>
      <path d="M38.95,32.86h-.69a.1.1,0,0,1,0-.2h.89v.65a.2.2,0,0,1-.16.23h-.63V34H39a.1.1,0,0,1,0,.2h-.66a.21.21,0,0,1-.22-.23v-.41a.21.21,0,0,1,.06-.18.22.22,0,0,1,.16,0h.56Z" style="fill: #fff"/>
    </g>
    <g>
      <path d="M49.61,34.12v-.4a.1.1,0,1,1,.2,0h0v.5a.09.09,0,0,1-.08.1h-.81a.1.1,0,1,1,0-.2h.29V33h-.29a.1.1,0,1,1,0-.2h.49v1.36Z" style="fill: #fff"/>
      <path d="M50.61,32.76a.2.2,0,0,1,.2.2h0v1.16a.2.2,0,0,1-.2.2H50a.2.2,0,0,1-.2-.2h0V33a.2.2,0,0,1,.2-.2h0Zm0,1.36V33H50v1.16Z" style="fill: #fff"/>
      <path d="M51.69,32.76a.2.2,0,0,1,.2.2h0v1.16a.2.2,0,0,1-.2.2H51.1a.2.2,0,0,1-.2-.2h0V33a.2.2,0,0,1,.2-.2h0Zm0,1.36V33H51.1v1.16Z" style="fill: #fff"/>
      <path d="M52.23,34.12h.69a.1.1,0,0,1,0,.2H52v-.65a.2.2,0,0,1,.16-.23h.63V33H52.1a.1.1,0,1,1,0-.2h.66A.21.21,0,0,1,53,33v.43a.21.21,0,0,1-.22.24h-.56Z" style="fill: #fff"/>
    </g>
    <g>
      <path d="M49.38,18.78v-.4a.1.1,0,1,1,.2,0v.5a.09.09,0,0,1-.08.1h-.8a.1.1,0,1,1,0-.2H49V17.63h-.3a.1.1,0,1,1,0-.2h.49v1.36Z" style="fill: #fff"/>
      <path d="M50.38,17.43a.2.2,0,0,1,.2.2h0v1.16a.2.2,0,0,1-.2.2H49.8a.2.2,0,0,1-.2-.2h0V17.63a.2.2,0,0,1,.2-.2h.58Zm0,1.36V17.63H49.8v1.16Z" style="fill: #fff"/>
      <path d="M51.46,17.43a.2.2,0,0,1,.2.2h0v1.16a.2.2,0,0,1-.2.2h-.59a.2.2,0,0,1-.2-.2h0V17.63a.2.2,0,0,1,.2-.2h.59Zm0,1.36V17.63h-.59v1.16Z" style="fill: #fff"/>
      <path d="M52,18.78h.69a.1.1,0,0,1,0,.2H51.8v-.65A.2.2,0,0,1,52,18.1h.63v-.48H51.9a.1.1,0,0,1,0-.2h.66a.21.21,0,0,1,.22.23v.41a.21.21,0,0,1-.19.23H52Z" style="fill: #fff"/>
    </g>
    <g>
      <path d="M17.12,29h.4a.1.1,0,0,1,0,.2H17a.09.09,0,0,1-.1-.1v-.79a.1.1,0,0,1,.2,0h0v.29h1.16v-.29a.1.1,0,0,1,.2,0h0v.49H17.12Z" style="fill: #fff"/>
      <path d="M18.48,30a.2.2,0,0,1-.2.2H17.12a.2.2,0,0,1-.2-.2h0v-.59a.2.2,0,0,1,.2-.2h1.16a.2.2,0,0,1,.2.2h0Zm-1.36,0h1.16v-.59H17.12Z" style="fill: #fff"/>
      <path d="M18.48,31a.2.2,0,0,1-.2.2H17.12a.2.2,0,0,1-.2-.2h0v-.59a.2.2,0,0,1,.2-.2h1.16a.2.2,0,0,1,.2.2h0Zm-1.36,0h1.16v-.59H17.12Z" style="fill: #fff"/>
      <path d="M17.12,31.58v.69a.1.1,0,1,1-.2,0v-.89h.65a.2.2,0,0,1,.23.23v.56h.48v-.69a.1.1,0,0,1,.2,0v.66a.21.21,0,0,1-.2.22h-.44a.21.21,0,0,1-.23-.22v-.56Z" style="fill: #fff"/>
    </g>
    <g>
      <path d="M17.65,3.37v-.8a.25.25,0,1,1,.5,0v.79a.52.52,0,0,1,0,.19L17.16,6c0,.13-.1.22-.25.22s-.2-.1-.25-.22l-1-2.44a.52.52,0,0,1,0-.19v-.8a.25.25,0,0,1,.5,0v.8l.74,1.91Z" style="fill: #fff"/>
      <path d="M21.5,5.71a.25.25,0,0,1,0,.5H19.28V2.57a.25.25,0,1,1,.5,0V5.71Z" style="fill: #fff"/>
      <path d="M23.87,4h.92a.52.52,0,0,1,.4.14.49.49,0,0,1,.16.43V5.65a.53.53,0,0,1-.12.39.49.49,0,0,1-.44.17H23.68a.73.73,0,0,1-.33-.09L23.16,6c-.14-.06-.29-.1-.29-.28a.25.25,0,0,1,.24-.25.36.36,0,0,1,.16,0l.15.06a.84.84,0,0,0,.27.1h1.16V4.52H23.37V2.32H25.1a.23.23,0,0,1,.25.25.23.23,0,0,1-.21.25H23.87Z" style="fill: #fff"/>
      <path d="M26.73,2.82a.23.23,0,0,1-.25-.25.23.23,0,0,1,.21-.25h1.76a.49.49,0,0,1,.5.48s0,0,0,0v1a.58.58,0,0,1-.2.49.58.58,0,0,1,.2.49v1a.49.49,0,0,1-.48.5H26.73a.25.25,0,0,1,0-.5h1.72V4.88c0-.28-.11-.37-.25-.37h-1a.25.25,0,0,1,0-.5h1c.14,0,.25-.08.25-.37V2.82Z" style="fill: #fff"/>
      <path d="M32.3,5.71a.25.25,0,0,1,0,.5H30.08V2.57a.25.25,0,1,1,.5,0V5.71Z" style="fill: #fff"/>
      <path d="M36.15,2.32a.5.5,0,0,1,.5.5V5.71a.49.49,0,0,1-.48.5H34.68a.49.49,0,0,1-.5-.48s0,0,0,0V2.82a.5.5,0,0,1,.5-.5Zm0,3.39V2.82H34.68V5.71Z" style="fill: #fff"/>
      <path d="M38.73,4.27l-.89-1.53a.32.32,0,0,1-.06-.18A.25.25,0,0,1,38,2.32c.17,0,.22.13.29.25l.7,1.2.7-1.2c.07-.12.13-.25.29-.25a.25.25,0,0,1,.25.23.32.32,0,0,1-.06.18L39.3,4.27l.89,1.53a.32.32,0,0,1,.06.18.25.25,0,0,1-.25.24c-.17,0-.22-.12-.29-.25L39,4.77,38.31,6c-.07.12-.12.25-.29.25A.25.25,0,0,1,37.78,6a.32.32,0,0,1,.06-.18Z" style="fill: #fff"/>
    </g>
    <g>
      <path d="M5.71,46.64V46a.2.2,0,1,1,.4,0h0v.63a.41.41,0,0,1,0,.16l-.76,1.95a.18.18,0,0,1-.2.18c-.12,0-.16-.08-.2-.18l-.76-1.95a.41.41,0,0,1,0-.16V46a.17.17,0,0,1,.13-.2h.07a.17.17,0,0,1,.2.2v.64l.59,1.53Z" style="fill: #fff"/>
      <path d="M7.64,48.51h.59a.2.2,0,1,1,0,.4H6.65a.2.2,0,1,1,0-.4h.59V46.2H6.65a.2.2,0,0,1,0-.4H8.23a.2.2,0,0,1,0,.4H7.64Z" style="fill: #fff"/>
      <path d="M10.19,46a.2.2,0,0,1,.4,0h0v2.91h-.53l-1-2.4H9v2.2a.2.2,0,0,1-.4,0h0V45.8h.53l1,2.43h0Z" style="fill: #fff"/>
    </g>
    <g>
      <path d="M18.76,48.1a.2.2,0,0,1,0-.4h.79v.79a.6.6,0,0,1-.57.63h-.76a.61.61,0,0,1-.46-.16.58.58,0,0,1-.19-.49v-1a.81.81,0,0,1,.21-.58l.47-.6a.61.61,0,0,1,.56-.27h.54a.2.2,0,0,1,0,.4h-.48c-.22,0-.2,0-.34.16l-.44.56a.76.76,0,0,0-.12.52v.78c0,.22,0,.29.28.29h.64c.14,0,.26,0,.26-.21V48.1Z" style="fill: #fff"/>
      <path d="M21.71,46.21a.2.2,0,0,1,.4,0h0v2.91h-.53l-1-2.4h0v2.2a.2.2,0,0,1-.4,0h0V46h.53l1,2.43h0Z" style="fill: #fff"/>
      <path d="M22.93,46.41h-.15c-.13,0-.24,0-.24-.2s.11-.2.23-.2h.67a.6.6,0,0,1,.6.4l.35.7a.92.92,0,0,1,0,.9l-.36.73a.6.6,0,0,1-.63.38h-.66a.2.2,0,0,1,0-.4h.19Zm.4,2.31h.08c.17,0,.21,0,.28-.17l.35-.71a.56.56,0,0,0,.08-.26.67.67,0,0,0-.1-.33l-.33-.68c-.08-.17-.12-.17-.3-.17h0Z" style="fill: #fff"/>
    </g>
    <g>
      <path d="M32.52,48.34a.52.52,0,0,1,.14.33.45.45,0,0,1-.45.45h-.93a.59.59,0,0,1-.4-.13.5.5,0,0,1-.19-.37.22.22,0,0,1,.2-.24h0a.19.19,0,0,1,.19.19h0c0,.12.06.14.18.14h1a1,1,0,0,1-.07-.12l-1.37-1.76a.48.48,0,0,1-.13-.33.45.45,0,0,1,.21-.38.53.53,0,0,1,.33-.07h.85a.57.57,0,0,1,.4.13.54.54,0,0,1,.19.38.2.2,0,0,1-.17.23h0a.18.18,0,0,1-.19-.19c0-.14-.07-.16-.19-.16h-.85s-.14,0-.14.06,0,.08.06.11Z" style="fill: #fff"/>
      <path d="M33.64,47.76v1.16a.2.2,0,0,1-.4,0V46.21a.2.2,0,0,1,.4,0v1.16h1.18V46.21a.2.2,0,0,1,.4,0v2.71a.2.2,0,0,1-.4,0V47.76Z" style="fill: #fff"/>
      <path d="M36.11,46.41H36c-.13,0-.24,0-.24-.2s.11-.2.23-.2h.67a.6.6,0,0,1,.6.4l.35.7a.92.92,0,0,1,0,.9l-.36.73a.6.6,0,0,1-.63.38H36a.2.2,0,0,1,0-.4h.19Zm.4,2.31h.08c.17,0,.21,0,.28-.17l.35-.71a.56.56,0,0,0,.08-.26.67.67,0,0,0-.1-.33l-.33-.68c-.08-.17-.12-.17-.3-.17h0Z" style="fill: #fff"/>
      <path d="M40.1,46.21a.2.2,0,0,1,.4,0v2.91H40l-1-2.4h0v2.2a.2.2,0,0,1-.4,0V46H39l1,2.43h0Z" style="fill: #fff"/>
    </g>
    <g>
      <path d="M46.6,48.5a.52.52,0,0,1,.14.33.45.45,0,0,1-.45.45h-.93a.59.59,0,0,1-.4-.13.5.5,0,0,1-.19-.37.22.22,0,0,1,.2-.24h0a.19.19,0,0,1,.19.19h0c0,.12.06.14.18.14h1a1,1,0,0,1-.07-.12L44.9,47a.48.48,0,0,1-.13-.33.45.45,0,0,1,.21-.38.53.53,0,0,1,.33-.07h.85a.57.57,0,0,1,.4.13.54.54,0,0,1,.19.38.2.2,0,0,1-.17.23h0a.18.18,0,0,1-.19-.19c0-.14-.07-.16-.19-.16H45.3s-.14,0-.14.06,0,.08.06.11Z" style="fill: #fff"/>
      <path d="M47.64,46.57h-.15c-.13,0-.24,0-.24-.2s.11-.2.23-.2h.67a.6.6,0,0,1,.6.4l.35.7a.92.92,0,0,1,0,.9l-.36.73a.6.6,0,0,1-.63.38h-.66a.2.2,0,1,1,0-.4h.19Zm.4,2.31h.08c.17,0,.21,0,.28-.17l.35-.71a.56.56,0,0,0,.08-.26.67.67,0,0,0-.1-.33l-.33-.68c-.08-.17-.12-.17-.3-.17h0Z" style="fill: #fff"/>
      <path d="M50.75,46.38a.19.19,0,0,1,.2-.2c.12,0,.18.1.21.2l.77,2.71a.2.2,0,0,1-.19.2.24.24,0,0,1-.22-.2l-.15-.48h-.85l-.15.48a.24.24,0,0,1-.22.2c-.11,0-.22-.1-.19-.2Zm.21.74h0l-.31,1.08h.63Z" style="fill: #fff"/>
    </g>
    <g>
      <path d="M40.5,39a.52.52,0,0,1,.14.33.45.45,0,0,1-.45.45h-.93a.59.59,0,0,1-.4-.13.5.5,0,0,1-.19-.37.22.22,0,0,1,.2-.24h0a.19.19,0,0,1,.19.19h0c0,.12.06.14.18.14h1a1,1,0,0,1-.07-.12L38.8,37.48a.48.48,0,0,1-.13-.33.45.45,0,0,1,.21-.38.53.53,0,0,1,.33-.07h.85a.57.57,0,0,1,.4.13.54.54,0,0,1,.19.38.2.2,0,0,1-.17.23h0a.18.18,0,0,1-.19-.19c0-.14-.07-.16-.19-.16H39.2s-.14,0-.14.06,0,.08.06.11Z" style="fill: #fff"/>
      <path d="M42.38,39.8a.6.6,0,0,1-.6-.38l-.37-.74a.9.9,0,0,1-.11-.42.87.87,0,0,1,.11-.44l.37-.74a.6.6,0,0,1,.62-.38h.68a.2.2,0,0,1,0,.4h-.69c-.17,0-.2,0-.28.17l-.35.7a.61.61,0,0,0-.08.3.56.56,0,0,0,.08.28l.34.69c.08.16.12.18.3.18h.65a.2.2,0,0,1,0,.4h0Z" style="fill: #fff"/>
      <path d="M45.72,39.4a.2.2,0,0,1,0,.4H43.95V36.89a.2.2,0,0,1,.4,0V39.4Z" style="fill: #fff"/>
    </g>
    <g>
      <path d="M24.72,38.79a.2.2,0,0,1,0-.4h.79v.79a.6.6,0,0,1-.57.63h-.76a.61.61,0,0,1-.46-.16.58.58,0,0,1-.19-.49v-1a.81.81,0,0,1,.21-.58l.47-.6a.61.61,0,0,1,.56-.27h.54a.2.2,0,0,1,0,.4h-.48c-.22,0-.2,0-.34.16l-.44.56a.76.76,0,0,0-.12.52v.78c0,.22,0,.29.28.29h.64c.14,0,.26,0,.26-.21V38.8Z" style="fill: #fff"/>
      <path d="M26.81,39.6a.2.2,0,0,1-.4,0h0V36.69h1.33a.59.59,0,0,1,.46.16.6.6,0,0,1,.19.52v.54a.66.66,0,0,1-.16.51.62.62,0,0,1-.54.19h-.88Zm0-1.37h.89c.24,0,.29-.06.29-.29v-.56c0-.23,0-.29-.29-.29h-.89Z" style="fill: #fff"/>
      <path d="M29.6,39.4h.59a.2.2,0,1,1,0,.4H28.61a.2.2,0,0,1,0-.4h.59V37.09h-.59a.2.2,0,1,1,0-.4h1.58a.2.2,0,1,1,0,.4H29.6Z" style="fill: #fff"/>
      <path d="M32.36,37.82a.92.92,0,0,1,.1.44,1,1,0,0,1-.13.48l-.37.74a.52.52,0,0,1-1,0l-.37-.74a1,1,0,0,1-.13-.48.91.91,0,0,1,.1-.44L31,37a.52.52,0,0,1,1,0Zm-.75-.6a.13.13,0,0,0-.14-.12c-.09,0-.1.06-.14.12l-.36.72a.63.63,0,0,0-.09.32.54.54,0,0,0,.07.26l.38.76a.13.13,0,0,0,.14.12c.08,0,.11-.06.14-.12l.38-.76a.54.54,0,0,0,.07-.26.63.63,0,0,0-.09-.32Z" style="fill: #fff"/>
    </g>
    <g>
      <path d="M10.58,39.4H12a.2.2,0,0,1,0,.4H10.18V38.5a.4.4,0,0,1,.34-.45h1.23V37H10.38a.2.2,0,0,1,0-.4H11.7a.41.41,0,0,1,.45.47V38a.41.41,0,0,1-.34.47H10.58Z" style="fill: #fff"/>
      <path d="M14.2,38.13v-.2c0-.14,0-.28.2-.28s.19.11.19.23v.27a.31.31,0,0,1,0,.16L14,39.56c0,.08-.1.24-.2.24h-.25c-.1,0-.16-.16-.2-.24l-.57-1.25a.32.32,0,0,1,0-.16v-.27c0-.12,0-.23.19-.23s.2.15.2.28v.2l.56,1.28Z" style="fill: #fff"/>
      <path d="M16.75,36.69a.19.19,0,0,1,.2.2V38a.41.41,0,0,1,.29.11.39.39,0,0,1,.11.29v1a.37.37,0,0,1-.34.4H15.78a.37.37,0,0,1-.4-.4v-1a.39.39,0,0,1,.11-.29.41.41,0,0,1,.29-.11V36.89a.19.19,0,0,1,.18-.2h.79ZM17,39.4v-1H15.78v1ZM16.55,38V37h-.38v1Z" style="fill: #fff"/>
    </g>
    <circle cx="6.78" cy="7.2" r="5.67" style="fill: none;stroke: #fff;stroke-miterlimit: 10;stroke-width: 0.699999988079071px"/>
    <circle cx="49.79" cy="7.2" r="5.67" style="fill: none;stroke: #fff;stroke-miterlimit: 10;stroke-width: 0.699999988079071px"/>
    <circle cx="21.18" cy="42.79" r="1.46" style="fill: none"/>
    <circle cx="6.73" cy="7.2" r="3.89" style="fill: none"/>
    <circle cx="35.58" cy="42.79" r="1.46" style="fill: none"/>
    <circle cx="6.78" cy="42.79" r="1.46" style="fill: none"/>
    <circle cx="28.38" cy="42.79" r="1.46" style="fill: none"/>
    <circle cx="13.98" cy="42.79" r="1.46" style="fill: none"/>
    <circle cx="49.79" cy="7.2" r="3.89" style="fill: none"/>
    <circle cx="42.79" cy="42.79" r="1.46" style="fill: none"/>
    <circle cx="49.99" cy="42.79" r="1.46" style="fill: none"/>
  </g>
  <g data-name="Layer 6" id="Layer_6">
    <circle cx="6.78" cy="42.79" data-name="circuitoCon VIN" id="circuitoCon_VIN" r="1.35" style="fill: none"/>
    <circle cx="13.98" cy="42.79" data-name="circuitoCon 2.8V" id="circuitoCon_2.8V" r="1.35" style="fill: none"/>
    <circle cx="21.18" cy="42.79" data-name="circuitoCon GND" id="circuitoCon_GND" r="1.35" style="fill: none"/>
    <circle cx="28.38" cy="42.79" data-name="circuitoCon GPIO" id="circuitoCon_GPIO" r="1.35" style="fill: none"/>
    <circle cx="35.58" cy="42.79" data-name="circuitoCon XSHUT" id="circuitoCon_XSHUT" r="1.35" style="fill: none"/>
    <circle cx="42.78" cy="42.79" data-name="circuitoCon SCL" id="circuitoCon_SCL" r="1.35" style="fill: none"/>
    <circle cx="49.98" cy="42.79" data-name="circuitoCon SDA" id="circuitoCon_SDA" r="1.35" style="fill: none"/>
  </g>
</svg>