<?xml version="1.0" ?><svg height="16mm" viewBox="0 0 60.73 45.36" width="21.42mm" xmlns="http://www.w3.org/2000/svg" xmlns:xlink="http://www.w3.org/1999/xlink">
  <defs>
    <clipPath id="clip-path" transform="translate(0.25 0.19)">
      <rect height="59.4" style="fill: none" transform="translate(7.38 52.02) rotate(-90)" width="44.65" x="7.38" y="-7.38"/>
    </clipPath>
  </defs>
  <title>Circuit_ADXL345</title>
  <g id="Part">
    <g data-name="cl mask" id="cl_mask">
      <g style="clip-path: url(#clip-path)">
        <path d="M51.32,40.83h0a2.94,2.94,0,0,1,5.87,0h0a2.94,2.94,0,1,0-5.87,0Z" data-name="&lt;Path&gt;" id="_Path_" style="fill: none" transform="translate(0.25 0.19)"/>
        <path d="M22.52,40.83h0a2.93,2.93,0,0,1,5.87,0h0a2.94,2.94,0,1,0-5.87,0Z" data-name="&lt;Path&gt;" id="_Path_2" style="fill: none" transform="translate(0.25 0.19)"/>
        <path d="M29.72,40.83h0a2.93,2.93,0,0,1,5.87,0h0a2.94,2.94,0,1,0-5.87,0Z" data-name="&lt;Path&gt;" id="_Path_3" style="fill: none" transform="translate(0.25 0.19)"/>
        <path d="M44.12,40.83h0a2.94,2.94,0,0,1,5.87,0h0a2.94,2.94,0,1,0-5.87,0Z" data-name="&lt;Path&gt;" id="_Path_4" style="fill: none" transform="translate(0.25 0.19)"/>
        <circle cx="8.37" cy="7.13" data-name="&lt;Path&gt;" id="_Path_5" r="4.86" style="fill: none"/>
        <circle cx="51.4" cy="7.13" data-name="&lt;Path&gt;" id="_Path_6" r="4.86" style="fill: none"/>
        <path d="M8.12,40.83h0a2.94,2.94,0,0,1,5.87,0h0a2.94,2.94,0,1,0-5.87,0Z" data-name="&lt;Path&gt;" id="_Path_7" style="fill: none" transform="translate(0.25 0.19)"/>
        <path d="M15.32,40.83h0a2.93,2.93,0,0,1,5.87,0h0a2.94,2.94,0,1,0-5.87,0Z" data-name="&lt;Path&gt;" id="_Path_8" style="fill: none" transform="translate(0.25 0.19)"/>
        <path d="M36.92,40.83h0a2.94,2.94,0,0,1,5.87,0h0a2.94,2.94,0,1,0-5.87,0Z" data-name="&lt;Path&gt;" id="_Path_9" style="fill: none" transform="translate(0.25 0.19)"/>
        <path d="M11.06,43.79a2.94,2.94,0,0,1-2.93-2.94h0a2.94,2.94,0,1,0,5.87,0h0A2.94,2.94,0,0,1,11.06,43.79Z" data-name="&lt;Path&gt;" id="_Path_10" style="fill: #fff" transform="translate(0.25 0.19)"/>
        <path d="M18.26,43.79a2.94,2.94,0,0,1-2.93-2.94h0a2.94,2.94,0,1,0,5.87,0h0A2.94,2.94,0,0,1,18.26,43.79Z" data-name="&lt;Path&gt;" id="_Path_11" style="fill: #fff" transform="translate(0.25 0.19)"/>
        <path d="M25.46,43.79a2.94,2.94,0,0,1-2.93-2.94h0a2.94,2.94,0,1,0,5.87,0h0A2.94,2.94,0,0,1,25.46,43.79Z" data-name="&lt;Path&gt;" id="_Path_12" style="fill: #fff" transform="translate(0.25 0.19)"/>
        <path d="M32.66,43.79a2.94,2.94,0,0,1-2.93-2.94h0a2.94,2.94,0,1,0,5.87,0h0A2.94,2.94,0,0,1,32.66,43.79Z" data-name="&lt;Path&gt;" id="_Path_13" style="fill: #fff" transform="translate(0.25 0.19)"/>
        <path d="M39.86,43.79a2.94,2.94,0,0,1-2.93-2.94h0a2.94,2.94,0,0,0,5.87,0h0A2.94,2.94,0,0,1,39.86,43.79Z" data-name="&lt;Path&gt;" id="_Path_14" style="fill: #fff" transform="translate(0.25 0.19)"/>
        <path d="M47.06,43.79a2.94,2.94,0,0,1-2.93-2.94h0a2.94,2.94,0,0,0,5.87,0h0A2.94,2.94,0,0,1,47.06,43.79Z" data-name="&lt;Path&gt;" id="_Path_15" style="fill: #fff" transform="translate(0.25 0.19)"/>
        <circle cx="51.4" cy="7.13" data-name="&lt;Path&gt;" id="_Path_16" r="4.86" style="fill: none"/>
        <path d="M56,6.94a4.86,4.86,0,1,1-4.86-4.86A4.86,4.86,0,0,1,56,6.94Z" data-name="&lt;Compound Path&gt;" id="_Compound_Path_" style="fill: none;stroke: #d1d2d1;stroke-miterlimit: 10;stroke-width: 0.200000002980232px" transform="translate(0.25 0.19)"/>
        <polygon points="43.14 44.84 46.25 44.84 44.69 43.27 43.14 44.84" style="fill: #cf2f27"/>
        <polygon points="14.36 44.78 17.39 44.78 15.88 43.25 14.36 44.78" style="fill: #cf2f27"/>
        <polygon points="35.58 44.78 38.77 44.78 37.18 43.17 35.58 44.78" style="fill: #cf2f27"/>
        <polygon points="49.84 44.78 53.07 44.78 51.46 43.15 49.84 44.78" style="fill: #cf2f27"/>
        <polygon points="28.15 44.78 31.58 44.78 29.87 43.05 28.15 44.78" style="fill: #cf2f27"/>
        <path d="M1.08,44.48h9.17L8.79,43H8V38.37h.76l1.62-1.64h3.72l1.67,1.7,1.71-1.73h3.74l1.63,1.65,1.62-1.64h3.4l1.9,1.92,1.87-1.9h3.68l1.76,1.78,1.83-1.86h3.61l1.79,1.82L46,36.74h3.57l1.77,1.79,1.93-2h3.34l1.91,1.93v4.36L57,44.48h3.51V-.19H1.08Zm5.34-3.69A1.58,1.58,0,1,1,4.83,39.2,1.58,1.58,0,0,1,6.41,40.78ZM56.07,6.88A4.86,4.86,0,1,1,51.21,2,4.86,4.86,0,0,1,56.07,6.88Zm-42.89,0A4.86,4.86,0,1,1,8.32,2,4.86,4.86,0,0,1,13.18,6.88Z" style="fill: #cf2f27" transform="translate(0.25 0.19)"/>
        <polygon points="21.51 44.78 24.39 44.78 22.95 43.33 21.51 44.78" style="fill: #cf2f27"/>
        <polygon points="9.58 45 13.3 45 13.46 44.84 9.42 44.84 9.58 45" style="fill: #751f18"/>
        <polygon points="16.68 45.03 20.41 45.03 20.61 44.84 16.49 44.84 16.68 45.03" style="fill: #751f18"/>
        <polygon points="38.11 45.08 41.71 45.08 41.95 44.84 37.87 44.84 38.11 45.08" style="fill: #751f18"/>
        <polygon points="30.83 45 34.52 45 34.67 44.84 30.67 44.84 30.83 45" style="fill: #751f18"/>
        <polygon points="45.21 44.99 48.78 44.99 48.94 44.84 45.06 44.84 45.21 44.99" style="fill: #751f18"/>
        <polygon points="23.66 45.03 27.06 45.03 27.25 44.84 23.48 44.84 23.66 45.03" style="fill: #751f18"/>
        <circle cx="51.4" cy="7.15" data-name="&lt;Path&gt;" id="_Path_17" r="4.86" style="fill: none"/>
        <circle cx="8.4" cy="7.13" data-name="&lt;Path&gt;" id="_Path_18" r="4.86" style="fill: none"/>
        <path d="M-.1,44.73v.42h2l0-.48V7.93a6.31,6.31,0,1,0,9.67-6.28H31.1V0H-.1ZM13,6.94A4.86,4.86,0,1,1,8.15,2.07,4.86,4.86,0,0,1,13,6.94Z" data-name="&lt;Compound Path&gt;" id="_Compound_Path_2" style="fill: #751f18" transform="translate(0.25 0.19)"/>
        <polygon data-name="&lt;Path&gt;" id="_Path_19" points="40.63 7.19 39.57 7.19 39.57 10.04 39.27 10.66 39.34 11.13 39.34 11.99 39.2 12.3 39.2 14.48 39.57 14.48 39.58 14.48 43.22 14.48 43.24 14.48 43.6 14.48 43.6 12.3 43.47 11.99 43.47 11.13 43.53 10.66 43.24 10.04 43.24 7.19 42.03 7.19 42.03 6.84 40.63 6.84 40.63 7.19" style="fill: #8a231e"/>
        <line data-name="&lt;Path&gt;" id="_Path_20" style="fill: #751f18" x1="38.92" x2="43.22" y1="9.27" y2="9.27"/>
        <line data-name="&lt;Path&gt;" id="_Path_21" style="fill: #751f18" x1="38.92" x2="43.22" y1="8.28" y2="8.28"/>
        <line data-name="&lt;Path&gt;" id="_Path_22" style="fill: #751f18" x1="39.57" x2="43.22" y1="13.02" y2="13.02"/>
        <polygon data-name="&lt;Path&gt;" id="_Path_23" points="18.32 7.19 17.25 7.19 17.25 10.07 16.98 10.66 17.04 11.13 17.04 11.99 16.91 12.3 16.91 14.48 17.25 14.48 17.29 14.48 20.93 14.48 21.3 14.48 21.3 12.3 21.17 11.99 21.17 11.13 21.24 10.66 20.93 10.01 20.93 7.19 19.72 7.19 19.72 6.84 18.32 6.84 18.32 7.19" style="fill: #8a231e"/>
        <g data-name="&lt;Group&gt;" id="_Group_">
          <rect data-name="&lt;Rectangle&gt;" height="1.48" id="_Rectangle_" style="fill: #8a231e" transform="translate(19.22 38.69) rotate(-90)" width="0.92" x="28.27" y="9.03"/>
          <rect data-name="&lt;Rectangle&gt;" height="1.48" id="_Rectangle_2" style="fill: #8a231e" transform="translate(22.61 41.83) rotate(-90)" width="0.92" x="31.54" y="8.9"/>
        </g>
        <polygon data-name="&lt;Path&gt;" id="_Path_24" points="31 37.74 27.17 32.86 27.17 22.93 27.41 21.8 28.43 23.06 27.86 23.79 27.86 32.33 31.9 37.62 31.2 38.11 31 37.74" style="fill: #8a231e"/>
        <polyline data-name="&lt;Path&gt;" id="_Path_25" points="10.97 37.64 10.97 19.71 16.47 14.6 17.3 14.6 19.05 14.6 40.8 14.6" style="fill: none;stroke: #8a231e;stroke-miterlimit: 10"/>
        <polygon data-name="&lt;Path&gt;" id="_Path_26" points="12.26 37.05 12.26 20.52 16.99 15.79 24.97 15.79 22.55 17.43 18.63 21.36 18.63 37.27 16.8 37.27 15.12 38.95 13.22 37.06 12.26 37.05" style="fill: #8a231e"/>
        <polygon data-name="&lt;Path&gt;" id="_Path_27" points="19.51 37.29 19.51 21.68 23.88 17.32 23.88 37.6 22.56 38.92 20.94 37.3 19.89 37.3 19.51 37.29" style="fill: #8a231e"/>
        <polygon data-name="&lt;Path&gt;" id="_Path_28" points="24.93 37.23 27.7 37.23 29.82 38.98 30.45 38.25 26.42 34.05 26.42 21.8 24.82 21.8 24.82 37.11 24.82 37.25 24.93 37.23" style="fill: #8a231e"/>
        <polygon data-name="&lt;Path&gt;" id="_Path_29" points="32.79 22.39 32.48 23.52 32.48 33.41 37.39 38.28 37.64 38.64 38.54 38.15 33.37 32.88 33.37 24.38 33.41 22.39 32.79 22.39" style="fill: #8a231e"/>
        <path d="M39.2,37h3.7c.36.36,1.13,1.07,1.49,1.43l.81-.81c-3.07-3.07-6.53-6.48-9.6-9.54V22H33.89V32.64l4.8,4.72Z" data-name="&lt;Path&gt;" id="_Path_30" style="fill: #8a231e" transform="translate(0.25 0.19)"/>
        <path d="M36.33,27.48l9.81,9.81.38-.37,3.09.88,1.76,1.56L54,36.6l1.78-.06L36.64,17.45Z" data-name="&lt;Path&gt;" id="_Path_31" style="fill: #8a231e" transform="translate(0.25 0.19)"/>
        <polygon data-name="&lt;Path&gt;" id="_Path_32" points="57.07 37.14 37.48 16.98 37.48 15.58 41.11 15.58 41.83 14.86 41.83 13.61 43.64 13.61 41.29 16.2 38.73 16.2 38.73 17.02 58.06 36.34 58.24 37.09 57.07 37.14" style="fill: #8a231e"/>
        <line data-name="&lt;Path&gt;" id="_Path_33" style="fill: none;stroke: #8a231e;stroke-miterlimit: 10" x1="22.84" x2="25.6" y1="14.6" y2="10.85"/>
        <polyline data-name="&lt;Path&gt;" id="_Path_34" points="24.26 14.5 27.29 11.99 34.87 11.99 38.03 15.48 24.26 14.5" style="fill: #7f241b;stroke: #7f251b;stroke-miterlimit: 10"/>
        <polyline data-name="&lt;Path&gt;" id="_Path_35" points="26.82 8.08 28.39 10.66 32.48 10.66 33 9.97 37.68 9.97" style="fill: none;stroke: #8a231e;stroke-miterlimit: 10"/>
        <line data-name="&lt;Path&gt;" id="_Path_36" style="fill: none;stroke: #8a231e;stroke-miterlimit: 10" x1="35.87" x2="38.92" y1="9.97" y2="14.48"/>
        <path d="M59.4,0H28.2V1.67H47.71a6.31,6.31,0,1,0,9.67,6.28V44.69l0,.48h2V0ZM51.15,2.1A4.86,4.86,0,1,1,46.29,7,4.86,4.86,0,0,1,51.15,2.1Z" data-name="&lt;Compound Path&gt;" id="_Compound_Path_3" style="fill: #751f18" transform="translate(0.25 0.19)"/>
        <rect data-name="&lt;Rectangle&gt;" height="14.55" id="_Rectangle_3" style="fill: #231f20;opacity: 0.48" transform="translate(12.07 49.03) rotate(-90)" width="8.88" x="25.89" y="11.23"/>
        <rect data-name="&lt;Rectangle&gt;" height="14.71" id="_Rectangle_4" style="fill: #231f20" transform="translate(12.03 49.02) rotate(-90)" width="8.84" x="25.88" y="11.17"/>
        <g data-name="&lt;Group&gt;" id="_Group_2">
          <rect data-name="&lt;Rectangle&gt;" height="12.1" id="_Rectangle_5" style="fill: #c9beb5" transform="translate(23.37 37.19) rotate(-90)" width="4.74" x="27.69" y="0.88"/>
          <rect data-name="&lt;Rectangle&gt;" height="6.82" id="_Rectangle_6" style="fill: #3c3637" transform="translate(24.1 37.92) rotate(-90)" width="4.23" x="28.67" y="3.53"/>
        </g>
        <path d="M32.75,3.95h4.47l-.48.61V6.49l.31.3v.72l-.32.29V9.74l.48.61H32.75v.78h5v-8h-5Z" data-name="&lt;Path&gt;" id="_Path_37" style="fill: #fdfdfe" transform="translate(0.25 0.19)"/>
        <polygon data-name="&lt;Path&gt;" id="_Path_38" points="24.17 3.47 22.55 4.91 22.55 4.91 22.55 9.96 22.55 9.96 24.17 11.4 24.17 11.4 27.7 11.4 27.7 10.62 24.47 10.62 23.33 9.61 23.33 5.26 24.47 4.25 27.7 4.25 27.7 3.47 24.17 3.47 24.17 3.47" style="fill: #fdfdfe"/>
        <rect data-name="&lt;Rectangle&gt;" height="0.9" id="_Rectangle_7" style="fill: #fdfdfe" transform="translate(1.27 44.67) rotate(-90)" width="2.77" x="21.36" y="21.28"/>
        <g data-name="&lt;Group&gt;" id="_Group_3">
          <rect data-name="&lt;Rectangle&gt;" height="0.75" id="_Rectangle_8" style="fill: #fdfdfe" transform="translate(49.57 46.42) rotate(-180)" width="1.39" x="23.97" y="22.74"/>
          <rect data-name="&lt;Rectangle&gt;" height="0.75" id="_Rectangle_9" style="fill: #fdfdfe" transform="translate(54.23 46.42) rotate(-180)" width="1.39" x="26.3" y="22.74"/>
          <rect data-name="&lt;Rectangle&gt;" height="0.75" id="_Rectangle_10" style="fill: #fdfdfe" transform="translate(58.89 46.42) rotate(-180)" width="1.39" x="28.63" y="22.74"/>
          <rect data-name="&lt;Rectangle&gt;" height="0.75" id="_Rectangle_11" style="fill: #fdfdfe" transform="translate(63.55 46.42) rotate(-180)" width="1.39" x="30.96" y="22.74"/>
          <rect data-name="&lt;Rectangle&gt;" height="0.75" id="_Rectangle_12" style="fill: #fdfdfe" transform="translate(68.22 46.42) rotate(-180)" width="1.39" x="33.29" y="22.74"/>
          <rect data-name="&lt;Rectangle&gt;" height="0.75" id="_Rectangle_13" style="fill: #fdfdfe" transform="translate(72.88 46.42) rotate(-180)" width="1.39" x="35.62" y="22.74"/>
        </g>
        <rect data-name="&lt;Rectangle&gt;" height="0.75" id="_Rectangle_14" style="fill: #fdfdfe" transform="translate(49.57 28.01) rotate(-180)" width="1.39" x="23.97" y="13.53"/>
        <polygon data-name="&lt;Path&gt;" id="_Path_39" points="23.04 17.58 22.33 18.69 22.35 18.7 22.33 18.72 23.04 19.82 23.64 19.43 23.17 18.7 23.64 17.97 23.04 17.58" style="fill: #fdfdfe"/>
        <rect data-name="&lt;Rectangle&gt;" height="0.9" id="_Rectangle_15" style="fill: #fdfdfe" transform="translate(7.71 38.23) rotate(-90)" width="2.77" x="21.36" y="14.84"/>
        <polygon data-name="&lt;Path&gt;" id="_Path_40" points="37.86 19.3 38.58 19.3 38.58 17.53 37.86 17.53 37.86 18.06 38.28 18.41 37.86 18.77 37.86 19.3" style="fill: #a68e82"/>
        <polygon data-name="&lt;Path&gt;" id="_Path_41" points="47.23 16.02 45.74 17.51 46.1 17.87 46.98 16.98 46.98 22.41 46.98 22.86 46.98 22.96 52.79 22.96 51.93 23.84 52.29 24.19 53.42 23.04 53.77 22.68 52.28 21.19 51.92 21.55 52.79 22.41 47.53 22.41 47.53 17.02 48.39 17.86 48.75 17.5 47.59 16.37 47.59 16.37 47.23 16.02" style="fill: #e1cfcc"/>
        <circle cx="50.24" cy="19.67" data-name="&lt;Path&gt;" id="_Path_42" r="0.59" style="fill: #e5e6e8"/>
        <path d="M48.25,19.47A1.74,1.74,0,1,0,50,17.74,1.74,1.74,0,0,0,48.25,19.47Zm2.93,0a1.2,1.2,0,1,1-1.2-1.2A1.2,1.2,0,0,1,51.19,19.47Z" data-name="&lt;Compound Path&gt;" id="_Compound_Path_4" style="fill: #e7dfe0" transform="translate(0.25 0.19)"/>
        <rect data-name="&lt;Rectangle&gt;" height="0.75" id="_Rectangle_16" style="fill: #fdfdfe" transform="translate(54.23 28.01) rotate(-180)" width="1.39" x="26.3" y="13.53"/>
        <rect data-name="&lt;Rectangle&gt;" height="0.75" id="_Rectangle_17" style="fill: #fdfdfe" transform="translate(58.89 28.01) rotate(-180)" width="1.39" x="28.63" y="13.53"/>
        <rect data-name="&lt;Rectangle&gt;" height="0.75" id="_Rectangle_18" style="fill: #fdfdfe" transform="translate(63.55 28.01) rotate(-180)" width="1.39" x="30.96" y="13.53"/>
        <rect data-name="&lt;Rectangle&gt;" height="0.75" id="_Rectangle_19" style="fill: #fdfdfe" transform="translate(68.22 28.01) rotate(-180)" width="1.39" x="33.29" y="13.53"/>
        <rect data-name="&lt;Rectangle&gt;" height="0.75" id="_Rectangle_20" style="fill: #fdfdfe" transform="translate(72.88 28.01) rotate(-180)" width="1.39" x="35.62" y="13.53"/>
        <line data-name="&lt;Path&gt;" id="_Path_43" style="fill: none;stroke: #cfb7ac;stroke-linecap: round;stroke-miterlimit: 10;stroke-width: 0.5px" x1="4.64" x2="4.64" y1="38.42" y2="37.43"/>
        <line data-name="&lt;Path&gt;" id="_Path_44" style="fill: none;stroke: #cfb7ac;stroke-linecap: round;stroke-miterlimit: 10;stroke-width: 0.5px" x1="0.25" x2="0.25" y1="43.44" y2="38.86"/>
        <line data-name="&lt;Path&gt;" id="_Path_45" style="fill: #eeefeb;stroke: #eeefeb;stroke-linecap: round;stroke-miterlimit: 10;stroke-width: 0.400000005960465px" x1="0.47" x2="0.47" y1="43.83" y2="38.63"/>
        <g>
          <path d="M58.56,38.51l-1.91-1.93H53.31l-1.93,2-1.77-1.79H46l-1.71,1.73-1.79-1.82H38.93L37.1,38.51l-1.76-1.78H31.66l-1.87,1.9-1.9-1.92h-3.4l-1.62,1.64L21.24,36.7H17.51L15.8,38.43l-1.67-1.7H10.41L8.79,38.37H8V43h.76l1.46,1.48h4l1.52-1.54,1.52,1.54h4.12L22.87,43l1.44,1.46h3.77l1.71-1.73,1.71,1.73h4l1.6-1.62,1.6,1.62h4.08l1.56-1.57,1.56,1.57h3.88l1.62-1.64L53,44.48h4l1.59-1.61ZM10.65,40.68a1.48,1.48,0,1,1,1.48,1.48A1.48,1.48,0,0,1,10.65,40.68Zm7.2,0a1.48,1.48,0,1,1,1.48,1.48A1.48,1.48,0,0,1,17.85,40.68Zm7.2,0a1.48,1.48,0,1,1,1.48,1.48A1.48,1.48,0,0,1,25,40.68Zm7.2,0a1.48,1.48,0,1,1,1.48,1.48A1.48,1.48,0,0,1,32.25,40.68Zm7.2,0a1.48,1.48,0,1,1,1.48,1.48A1.48,1.48,0,0,1,39.45,40.68Zm7.2,0a1.48,1.48,0,1,1,1.48,1.48A1.48,1.48,0,0,1,46.65,40.68Zm7.2,0a1.48,1.48,0,1,1,1.48,1.48A1.48,1.48,0,0,1,53.85,40.68Z" style="fill: #751f18" transform="translate(0.25 0.19)"/>
          <g data-name="&lt;Group&gt;" id="_Group_4">
            <path d="M15.07,40.67a2.94,2.94,0,1,0-2.93,2.94A2.94,2.94,0,0,0,15.07,40.67Zm-4.42,0a1.48,1.48,0,1,1,1.48,1.48A1.48,1.48,0,0,1,10.65,40.68Z" data-name="&lt;Compound Path&gt;" id="_Compound_Path_5" style="fill: #e8e5df" transform="translate(0.25 0.19)"/>
            <path d="M22.27,40.67a2.93,2.93,0,1,0-2.93,2.94A2.94,2.94,0,0,0,22.27,40.67Zm-4.42,0a1.48,1.48,0,1,1,1.48,1.48A1.48,1.48,0,0,1,17.85,40.68Z" data-name="&lt;Compound Path&gt;" id="_Compound_Path_6" style="fill: #e8e5df" transform="translate(0.25 0.19)"/>
            <path d="M29.47,40.67a2.93,2.93,0,1,0-2.93,2.94A2.94,2.94,0,0,0,29.47,40.67Zm-4.42,0a1.48,1.48,0,1,1,1.48,1.48A1.48,1.48,0,0,1,25,40.68Z" data-name="&lt;Compound Path&gt;" id="_Compound_Path_7" style="fill: #e8e5df" transform="translate(0.25 0.19)"/>
            <path d="M36.67,40.67a2.93,2.93,0,1,0-2.93,2.94A2.94,2.94,0,0,0,36.67,40.67Zm-4.42,0a1.48,1.48,0,1,1,1.48,1.48A1.48,1.48,0,0,1,32.25,40.68Z" data-name="&lt;Compound Path&gt;" id="_Compound_Path_8" style="fill: #e8e5df" transform="translate(0.25 0.19)"/>
            <path d="M43.87,40.67a2.94,2.94,0,1,0-2.93,2.94A2.94,2.94,0,0,0,43.87,40.67Zm-4.42,0a1.48,1.48,0,1,1,1.48,1.48A1.48,1.48,0,0,1,39.45,40.68Z" data-name="&lt;Compound Path&gt;" id="_Compound_Path_9" style="fill: #e8e5df" transform="translate(0.25 0.19)"/>
            <path d="M51.07,40.67a2.94,2.94,0,1,0-2.93,2.94A2.94,2.94,0,0,0,51.07,40.67Zm-4.42,0a1.48,1.48,0,1,1,1.48,1.48A1.48,1.48,0,0,1,46.65,40.68Z" data-name="&lt;Compound Path&gt;" id="_Compound_Path_10" style="fill: #e8e5df" transform="translate(0.25 0.19)"/>
            <path d="M52.4,40.67a2.94,2.94,0,1,0,2.93-2.93A2.94,2.94,0,0,0,52.4,40.67Zm4.42,0a1.48,1.48,0,1,1-1.48-1.48A1.48,1.48,0,0,1,56.82,40.68Z" data-name="&lt;Compound Path&gt;" id="_Compound_Path_11" style="fill: #e8e5df" transform="translate(0.25 0.19)"/>
          </g>
          <g data-name="&lt;Group&gt;" id="_Group_5">
            <polyline data-name="&lt;Path&gt;" id="_Path_46" points="8.28 43.15 9.04 43.15 10.67 44.78 14.4 44.78 16.08 43.1 17.8 44.81 21.55 44.81 23.19 43.17 24.82 44.8 28.23 44.8 30.14 42.9 32.02 44.78 35.72 44.78 37.48 43.02 39.32 44.86 42.95 44.86 44.75 43.06 46.46 44.77 50.05 44.77 51.83 43 53.77 44.94 57.12 44.94 59.04 43.02 59.04 38.7 57.12 36.78 53.77 36.78 51.83 38.72 50.05 36.95 46.46 36.95 44.75 38.66 42.95 36.86 39.32 36.86 37.48 38.7 35.72 36.94 32.02 36.94 30.14 38.82 28.23 36.91 24.82 36.91 23.19 38.54 21.55 36.91 17.8 36.91 16.08 38.62 14.4 36.94 10.67 36.94 9.04 38.56 8.28 38.56" style="fill: none;stroke: #eeefeb;stroke-miterlimit: 10;stroke-width: 0.5px"/>
          </g>
          <polyline data-name="&lt;Path&gt;" id="_Path_47" points="7.84 37.52 7.58 37.26 7.49 37.26 3.17 37.26 2.91 37.55" style="fill: none;stroke: #eeefeb;stroke-linecap: round;stroke-miterlimit: 10;stroke-width: 0.5px"/>
          <path d="M1.64,43.82H8V37.76H1.64Zm4.77-3a1.58,1.58,0,1,1-1.58-1.58A1.58,1.58,0,0,1,6.41,40.79Z" data-name="&lt;Compound Path&gt;" id="_Compound_Path_12" style="fill: #e8e5df" transform="translate(0.25 0.19)"/>
          <circle cx="48.38" cy="40.88" r="2.03" style="fill: none;stroke: #dcd8d0;stroke-miterlimit: 10;stroke-width: 0.03999999910593px"/>
          <circle cx="41.18" cy="40.88" r="2.03" style="fill: none;stroke: #dcd8d0;stroke-miterlimit: 10;stroke-width: 0.03999999910593px"/>
          <circle cx="55.58" cy="40.88" r="2.03" style="fill: none;stroke: #dcd8d0;stroke-miterlimit: 10;stroke-width: 0.03999999910593px"/>
          <circle cx="26.78" cy="40.88" r="2.03" style="fill: none;stroke: #dcd8d0;stroke-miterlimit: 10;stroke-width: 0.03999999910593px"/>
          <circle cx="19.58" cy="40.88" r="2.03" style="fill: none;stroke: #dcd8d0;stroke-miterlimit: 10;stroke-width: 0.03999999910593px"/>
          <circle cx="12.38" cy="40.88" r="2.03" style="fill: none;stroke: #dcd8d0;stroke-miterlimit: 10;stroke-width: 0.03999999910593px"/>
          <circle cx="33.98" cy="40.88" r="2.03" style="fill: none;stroke: #dcd8d0;stroke-miterlimit: 10;stroke-width: 0.03999999910593px"/>
        </g>
        <circle cx="8.37" cy="7.13" data-name="&lt;Path&gt;" id="_Path_48" r="4.86" style="fill: none"/>
        <path d="M15.32,40.83h0a2.94,2.94,0,1,0,5.87,0h0a2.94,2.94,0,1,0-5.87,0Z" data-name="&lt;Path&gt;" id="_Path_49" style="fill: none" transform="translate(0.25 0.19)"/>
        <path d="M29.72,40.83h0a2.94,2.94,0,1,0,5.87,0h0a2.94,2.94,0,1,0-5.87,0Z" data-name="&lt;Path&gt;" id="_Path_50" style="fill: none" transform="translate(0.25 0.19)"/>
        <path d="M22.52,40.83h0a2.94,2.94,0,1,0,5.87,0h0a2.94,2.94,0,1,0-5.87,0Z" data-name="&lt;Path&gt;" id="_Path_51" style="fill: none" transform="translate(0.25 0.19)"/>
        <path d="M3.56,42.44A1.44,1.44,0,0,1,3,42.35a1.5,1.5,0,0,1-.43-.26,1.45,1.45,0,0,0,.95.36l.17,0Z" data-name="&lt;Path&gt;" id="_Path_52" style="fill: none" transform="translate(0.25 0.19)"/>
        <polygon data-name="&lt;Path&gt;" id="_Path_53" points="5.18 41.74 5.18 41.73 5.18 41.74 5.18 41.74" style="fill: none"/>
        <path d="M3.69,39.49l-.12,0a1.35,1.35,0,0,0-.25,0l.25,0Z" data-name="&lt;Path&gt;" id="_Path_54" style="fill: none" transform="translate(0.25 0.19)"/>
        <path d="M44.12,40.83h0a2.94,2.94,0,0,0,5.87,0h0a2.94,2.94,0,1,0-5.87,0Z" data-name="&lt;Path&gt;" id="_Path_55" style="fill: none" transform="translate(0.25 0.19)"/>
        <path d="M8.12,40.83h0a2.94,2.94,0,1,0,5.87,0h0a2.94,2.94,0,1,0-5.87,0Z" data-name="&lt;Path&gt;" id="_Path_56" style="fill: none" transform="translate(0.25 0.19)"/>
        <path d="M51.32,40.83h0a2.94,2.94,0,1,0,5.87,0h0a2.94,2.94,0,1,0-5.87,0Z" data-name="&lt;Path&gt;" id="_Path_57" style="fill: none" transform="translate(0.25 0.19)"/>
        <path d="M36.92,40.83h0a2.94,2.94,0,0,0,5.87,0h0a2.94,2.94,0,1,0-5.87,0Z" data-name="&lt;Path&gt;" id="_Path_58" style="fill: none" transform="translate(0.25 0.19)"/>
        <rect data-name="&lt;Path&gt;" height="0.61" id="_Path_59" style="fill: #bb3527" width="0.13" x="0.12" y="44.23"/>
        <polygon data-name="&lt;Path&gt;" id="_Path_60" points="0.12 0.2 0.25 0.2 0.25 0.2 59.65 0.2 59.65 0.19 0.12 0.19 0.12 0.2" style="fill: #a92924;opacity: 0.66"/>
        <rect data-name="&lt;Path&gt;" height="44.03" id="_Path_61" style="fill: #bb3527" width="0.13" x="0.12" y="0.2"/>
        <path d="M43.39.55c.83,0,1.77,0,2.63-.07-.86,0-1.8.06-2.63.07L16.06.79h0Z" data-name="&lt;Path&gt;" id="_Path_62" style="fill: #bb3527" transform="translate(0.25 0.19)"/>
        <path d="M1.89,11.95c0-.07,0-.25,0-.58,0-.9,0-1.28.09-1.29H2c-.07,0-.05.39-.09,1.29,0,.33,0,.51,0,.58L2,44H2Z" data-name="&lt;Path&gt;" id="_Path_63" style="fill: #bb3527" transform="translate(0.25 0.19)"/>
        <path d="M2.66,6.39a5.29,5.29,0,0,0,0,1.09,5.3,5.3,0,0,1,0-1.09Z" data-name="&lt;Path&gt;" id="_Path_64" style="fill: #bb3527" transform="translate(0.25 0.19)"/>
        <path d="M46.85.47l.93,0Z" data-name="&lt;Path&gt;" id="_Path_65" style="fill: #bb3527" transform="translate(0.25 0.19)"/>
        <path d="M46.85.47l.93,0Z" data-name="&lt;Path&gt;" id="_Path_66" style="fill: #a92924;opacity: 0.66" transform="translate(0.25 0.19)"/>
        <rect data-name="&lt;Path&gt;" height="44.03" id="_Path_67" style="fill: #a92924;opacity: 0.66" x="0.25" y="0.2"/>
        <rect data-name="&lt;Path&gt;" height="44.03" id="_Path_68" style="fill: #a92924;opacity: 0.66" x="0.25" y="0.2"/>
        <path d="M13.1,6.94A4.86,4.86,0,1,1,8.24,2.07,4.86,4.86,0,0,1,13.1,6.94Z" data-name="&lt;Compound Path&gt;" id="_Compound_Path_13" style="fill: none;stroke: #e2e2e2;stroke-miterlimit: 10;stroke-width: 0.200000002980232px" transform="translate(0.25 0.19)"/>
        <path d="M13.22,6.88A4.86,4.86,0,1,1,8.35,2,4.86,4.86,0,0,1,13.22,6.88Z" data-name="&lt;Compound Path&gt;" id="_Compound_Path_14" style="fill: none;stroke: #e2e2e2;stroke-miterlimit: 10;stroke-width: 0.200000002980232px" transform="translate(0.25 0.19)"/>
        <path d="M2.08,41h0a1.4,1.4,0,0,0,0,.36h0A1.4,1.4,0,0,1,2.08,41Z" data-name="&lt;Path&gt;" id="_Path_69" style="fill: #a92924" transform="translate(0.25 0.19)"/>
        <polygon data-name="&lt;Path&gt;" id="_Path_70" points="2.38 41.52 2.38 41.53 2.38 41.52 2.38 41.52" style="fill: #a92924"/>
        <path d="M3.56,42.44A1.44,1.44,0,0,1,3,42.35a1.44,1.44,0,0,0,.51.09l.17,0h0Z" data-name="&lt;Path&gt;" id="_Path_71" style="fill: #a92924" transform="translate(0.25 0.19)"/>
        <path d="M3.73,42.43h0Z" data-name="&lt;Path&gt;" id="_Path_72" style="fill: #a92924" transform="translate(0.25 0.19)"/>
        <polygon data-name="&lt;Path&gt;" id="_Path_73" points="5.3 41.15 5.3 41.15 5.3 41.16 5.3 41.15" style="fill: #a92924"/>
        <path d="M3.94,42.39l.15,0-.19.06Z" data-name="&lt;Path&gt;" id="_Path_74" style="fill: #a92924" transform="translate(0.25 0.19)"/>
        <polygon data-name="&lt;Path&gt;" id="_Path_75" points="5.3 41.16 5.3 41.16 5.3 41.16 5.3 41.16" style="fill: #a92924"/>
        <polygon data-name="&lt;Path&gt;" id="_Path_76" points="5.3 41.16 5.3 41.16 5.3 41.16 5.3 41.16" style="fill: #a92924"/>
        <polygon data-name="&lt;Path&gt;" id="_Path_77" points="5.3 41.16 5.3 41.16 5.3 41.16 5.3 41.16" style="fill: #a92924"/>
        <polygon data-name="&lt;Path&gt;" id="_Path_78" points="5.3 41.16 5.3 41.16 5.3 41.16 5.3 41.16" style="fill: #a92924"/>
        <path d="M3.26,39.5h0Z" data-name="&lt;Path&gt;" id="_Path_79" style="fill: #a92924" transform="translate(0.25 0.19)"/>
        <path d="M2.13,41.33v0h0Z" data-name="&lt;Path&gt;" id="_Path_80" style="fill: #a92924" transform="translate(0.25 0.19)"/>
        <path d="M4.61,42l0-.06,0,0Z" data-name="&lt;Path&gt;" id="_Path_81" style="fill: #a92924" transform="translate(0.25 0.19)"/>
        <polygon data-name="&lt;Path&gt;" id="_Path_82" points="5.24 40.76 5.24 40.76 5.24 40.76 5.24 40.76" style="fill: #a92924"/>
        <path d="M5,40.57a1.56,1.56,0,0,0-.13-.32,1.57,1.57,0,0,1,.13.32Z" data-name="&lt;Path&gt;" id="_Path_83" style="fill: #a92924" transform="translate(0.25 0.19)"/>
        <path d="M5,41a1.4,1.4,0,0,0,0-.36H5A1.4,1.4,0,0,1,5,41Z" data-name="&lt;Path&gt;" id="_Path_84" style="fill: #a92924" transform="translate(0.25 0.19)"/>
        <path d="M5,40.58H5Z" data-name="&lt;Path&gt;" id="_Path_85" style="fill: #a92924" transform="translate(0.25 0.19)"/>
        <path d="M5,40.59v0Z" data-name="&lt;Path&gt;" id="_Path_86" style="fill: #a92924" transform="translate(0.25 0.19)"/>
        <g data-name="&lt;Group&gt;" id="_Group_6">
          <polygon data-name="&lt;Path&gt;" id="_Path_87" points="18.52 7.43 18.52 7.74 17.73 7.74 17.73 14.1 20.44 14.1 20.44 7.74 19.55 7.74 19.55 7.43 18.52 7.43" style="fill: #c9beb5"/>
          <path d="M20.18,9.64v2.21a2.28,2.28,0,0,0-2.7,0V9.64a1.78,1.78,0,0,0,1.28.62A1.82,1.82,0,0,0,20.18,9.64Z" data-name="&lt;Path&gt;" id="_Path_88" style="fill: #8d5e3c" transform="translate(0.25 0.19)"/>
          <line data-name="&lt;Path&gt;" id="_Path_89" style="fill: none;stroke: #b7aea0;stroke-miterlimit: 10;stroke-width: 0.25px" x1="17.73" x2="20.43" y1="9.55" y2="9.55"/>
          <line data-name="&lt;Path&gt;" id="_Path_90" style="fill: none;stroke: #b7aea0;stroke-miterlimit: 10;stroke-width: 0.25px" x1="17.73" x2="20.43" y1="8.69" y2="8.69"/>
          <line data-name="&lt;Path&gt;" id="_Path_91" style="fill: none;stroke: #b7aea0;stroke-miterlimit: 10;stroke-width: 0.25px" x1="17.73" x2="20.43" y1="12.83" y2="12.83"/>
        </g>
        <g data-name="&lt;Group&gt;" id="_Group_7">
          <polygon data-name="&lt;Path&gt;" id="_Path_92" points="40.83 7.43 40.83 7.75 40.05 7.75 40.05 14.27 42.75 14.27 42.75 7.75 41.86 7.75 41.86 7.43 40.83 7.43" style="fill: #c9beb5"/>
          <path d="M42.49,9.7V12a2.24,2.24,0,0,0-2.69,0V9.7a1.77,1.77,0,0,0,1.28.64A1.8,1.8,0,0,0,42.49,9.7Z" data-name="&lt;Path&gt;" id="_Path_93" style="fill: #8d5e3c" transform="translate(0.25 0.19)"/>
          <line data-name="&lt;Path&gt;" id="_Path_94" style="fill: none;stroke: #b7aea0;stroke-miterlimit: 10;stroke-width: 0.25px" x1="40.04" x2="42.74" y1="9.61" y2="9.61"/>
          <line data-name="&lt;Path&gt;" id="_Path_95" style="fill: none;stroke: #b7aea0;stroke-miterlimit: 10;stroke-width: 0.25px" x1="40.04" x2="42.74" y1="8.72" y2="8.72"/>
          <line data-name="&lt;Path&gt;" id="_Path_96" style="fill: none;stroke: #b7aea0;stroke-miterlimit: 10;stroke-width: 0.25px" x1="40.04" x2="42.74" y1="12.96" y2="12.96"/>
        </g>
        <path d="M59.4,44.49" data-name="&lt;Path&gt;" id="_Path_97" style="fill: none" transform="translate(0.25 0.19)"/>
      </g>
    </g>
    <g data-name="Layer 17" id="Layer_17">
      <g data-name="&lt;Group&gt;" id="_Group_8" style="opacity: 0.17">
        <path d="M24.65,15h2.07v1a.4.4,0,0,1-.12.29.41.41,0,0,1-.3.12h-.52a.42.42,0,0,1-.42-.42v-.71h-.7a.14.14,0,0,1-.14-.14.14.14,0,0,1,0-.1A.14.14,0,0,1,24.65,15Zm1,.28V16a.14.14,0,0,0,0,.1.14.14,0,0,0,.1,0h.52a.14.14,0,0,0,.1,0,.14.14,0,0,0,0-.1v-.71Z" style="fill: #fff" transform="translate(0.25 0.19)"/>
      </g>
      <g data-name="&lt;Group&gt;" id="_Group_9" style="opacity: 0.17">
        <path d="M26.66,18.52H24.73a.13.13,0,0,1-.1,0,.13.13,0,0,1,0-.1.14.14,0,0,1,.14-.14h.82v-.85h-.82a.13.13,0,0,1-.1,0,.14.14,0,0,1,0-.2.14.14,0,0,1,.1,0h1.92a.14.14,0,0,1,.1.24.14.14,0,0,1-.1,0h-.83v.85h.83a.13.13,0,0,1,.1,0,.14.14,0,0,1,0,.1.14.14,0,0,1,0,.1A.14.14,0,0,1,26.66,18.52Z" style="fill: #fff" transform="translate(0.25 0.19)"/>
      </g>
      <g data-name="&lt;Group&gt;" id="_Group_10" style="opacity: 0.17">
        <path d="M24.6,20.13V19a.13.13,0,0,1,0-.1.13.13,0,0,1,.1,0,.14.14,0,0,1,.1,0,.13.13,0,0,1,0,.1v.42h1.64V19a.14.14,0,0,1,.14-.14.14.14,0,0,1,.1,0,.14.14,0,0,1,0,.1v1.13a.14.14,0,0,1,0,.1.14.14,0,0,1-.2,0,.14.14,0,0,1,0-.1V19.7H24.88v.43a.13.13,0,0,1,0,.1.14.14,0,0,1-.2,0A.13.13,0,0,1,24.6,20.13Z" style="fill: #fff" transform="translate(0.25 0.19)"/>
      </g>
      <g data-name="&lt;Group&gt;" id="_Group_11" style="opacity: 0.17">
        <path d="M24.53,20.25H26.6a.14.14,0,0,1,0,.28H24.81v1a.14.14,0,0,1,0,.1.14.14,0,0,1-.2,0,.14.14,0,0,1,0-.1Z" style="fill: #fff" transform="translate(0.25 0.19)"/>
      </g>
      <g data-name="&lt;Group&gt;" id="_Group_12" style="opacity: 0.17">
        <path d="M29.35,14.84h.12a.14.14,0,0,1,.1,0,.13.13,0,0,1,0,.1v1.26h-.86a.14.14,0,0,1-.11-.05l-.44-.51h-.65a.14.14,0,0,1-.1,0,.13.13,0,0,1,0-.1.14.14,0,0,1,0-.1.13.13,0,0,1,.1,0h.7a.15.15,0,0,1,.12,0l.44.51h.52v-.84a.14.14,0,0,1,0-.28Z" style="fill: #fff" transform="translate(0.25 0.19)"/>
      </g>
      <g data-name="&lt;Group&gt;" id="_Group_13" style="opacity: 0.17">
        <path d="M27.41,17.8V16.53h1a.27.27,0,0,1,.2.08.27.27,0,0,1,.08.2v.85h.68v-1a.13.13,0,0,1,0-.1.14.14,0,0,1,.1,0,.14.14,0,0,1,.1,0,.13.13,0,0,1,0,.1v1a.27.27,0,0,1-.08.2.27.27,0,0,1-.2.08h-.68a.28.28,0,0,1-.28-.28v-.85h-.68v1a.14.14,0,0,1,0,.1.13.13,0,0,1-.1,0,.14.14,0,0,1-.1,0A.14.14,0,0,1,27.41,17.8Z" style="fill: #fff" transform="translate(0.25 0.19)"/>
      </g>
      <g data-name="&lt;Group&gt;" id="_Group_14" style="opacity: 0.17">
        <path d="M27.68,18.22h1.67a.27.27,0,0,1,.27.27v.87a.26.26,0,0,1-.08.19.26.26,0,0,1-.19.08H27.68a.27.27,0,0,1-.27-.27v-.87a.26.26,0,0,1,.08-.19A.26.26,0,0,1,27.68,18.22Zm0,1.13h1.64V18.5H27.69Z" style="fill: #fff" transform="translate(0.25 0.19)"/>
      </g>
      <g data-name="&lt;Group&gt;" id="_Group_15" style="opacity: 0.17">
        <path d="M27.68,19.91h1.67a.27.27,0,0,1,.27.27V21a.26.26,0,0,1-.08.19.26.26,0,0,1-.19.08H27.68a.27.27,0,0,1-.27-.27v-.87a.26.26,0,0,1,.08-.19A.26.26,0,0,1,27.68,19.91Zm0,1.13h1.64v-.85H27.69Z" style="fill: #fff" transform="translate(0.25 0.19)"/>
      </g>
      <g>
        <g data-name="&lt;Group&gt;" id="_Group_16">
          <path d="M2.85,34.55v-.76a.23.23,0,0,1,.4-.16.23.23,0,0,1,.07.16v.73a.23.23,0,0,0,.1.19l.83.64a.41.41,0,0,0,.27.08H5.79A.23.23,0,0,0,6,35.36.22.22,0,0,0,6,35.19v-.93A.23.23,0,0,0,5.79,34H5.3v.48a.22.22,0,0,1-.07.16.23.23,0,0,1-.33,0,.22.22,0,0,1-.07-.16v-.93h1a.69.69,0,0,1,.69.69v.93a.67.67,0,0,1-.2.49.66.66,0,0,1-.49.2H4.52a.91.91,0,0,1-.58-.18L3.09,35a.63.63,0,0,1-.24-.48Z" style="fill: #fff" transform="translate(0.25 0.19)"/>
        </g>
        <g data-name="&lt;Group&gt;" id="_Group_17">
          <path d="M3.09,30.07h3.4v.62L3.66,31.92H6.25a.22.22,0,0,1,.16.07.23.23,0,0,1,0,.33.22.22,0,0,1-.16.07H2.85v-.61l2.81-1.24H3.09a.24.24,0,0,1-.24-.24.22.22,0,0,1,.07-.16A.23.23,0,0,1,3.09,30.07Z" style="fill: #fff" transform="translate(0.25 0.19)"/>
        </g>
        <g data-name="&lt;Group&gt;" id="_Group_18">
          <path d="M2.85,28.66v-.91A.63.63,0,0,1,3,27.41a.69.69,0,0,1,.27-.25l.92-.45a1.08,1.08,0,0,1,1,0l.91.46a.7.7,0,0,1,.28.25.67.67,0,0,1,.1.37v.88a.22.22,0,0,1-.07.16.22.22,0,0,1-.16.07.23.23,0,0,1-.17-.07A.21.21,0,0,1,6,28.67v-.24H3.32v.23a.22.22,0,0,1-.07.16.23.23,0,0,1-.17.07.23.23,0,0,1-.16-.07A.22.22,0,0,1,2.85,28.66ZM3.32,28H6v-.16a.25.25,0,0,0-.15-.23L5,27.12a.74.74,0,0,0-.3-.09.61.61,0,0,0-.28.07l-.94.47a.25.25,0,0,0-.14.24Z" style="fill: #fff" transform="translate(0.25 0.19)"/>
        </g>
      </g>
      <g data-name="&lt;Group&gt;" id="_Group_19">
        <path d="M28,7.65h.3a.07.07,0,0,1,.06,0,.14.14,0,0,1,0,.08.14.14,0,0,1,0,.08.07.07,0,0,1-.06,0H28a.19.19,0,0,1-.12-.05.29.29,0,0,1-.09-.12l-.19-.53a.72.72,0,0,1,0-.23.65.65,0,0,1,0-.23l.19-.52a.34.34,0,0,1,.09-.13A.17.17,0,0,1,27.94,6h.33a.07.07,0,0,1,.06,0,.14.14,0,0,1,0,.08.14.14,0,0,1,0,.08.07.07,0,0,1-.06,0H28s0,0-.06.07l-.18.49a.38.38,0,0,0,0,.14.42.42,0,0,0,0,.15l.17.48S27.93,7.65,28,7.65Z" style="fill: #686567" transform="translate(0.25 0.19)"/>
        <path d="M28.52,7.14h.17a.07.07,0,0,1,.06,0,.14.14,0,0,1,0,.08v.2a.15.15,0,0,1,0,.08.07.07,0,0,1-.06,0h-.17a.07.07,0,0,1-.06,0,.15.15,0,0,1,0-.08v-.2a.14.14,0,0,1,0-.08A.07.07,0,0,1,28.52,7.14Z" style="fill: #686567" transform="translate(0.25 0.19)"/>
        <path d="M28.93,7.65h.25V6.25h-.25a.07.07,0,0,1-.06,0,.13.13,0,0,1,0-.08.14.14,0,0,1,0-.08.07.07,0,0,1,.06,0h.42V7.65h.17V7.15a.14.14,0,0,1,0-.08.07.07,0,0,1,.06,0,.07.07,0,0,1,.06,0,.14.14,0,0,1,0,.08v.61a.14.14,0,0,1,0,.08.07.07,0,0,1-.06,0h-.67a.07.07,0,0,1-.06,0,.14.14,0,0,1,0-.08.13.13,0,0,1,0-.08A.07.07,0,0,1,28.93,7.65Z" style="fill: #686567" transform="translate(0.25 0.19)"/>
        <path d="M30.2,7.65V6.24a.27.27,0,0,1,0-.16A.14.14,0,0,1,30.36,6h.51a.13.13,0,0,1,.11.07.27.27,0,0,1,0,.16V7.65a.27.27,0,0,1,0,.16.14.14,0,0,1-.11.07h-.51a.14.14,0,0,1-.11-.07A.28.28,0,0,1,30.2,7.65Zm.67,0V6.25h-.5V7.65Z" style="fill: #686567" transform="translate(0.25 0.19)"/>
        <path d="M31.63,6h.08a.07.07,0,0,1,.06,0,.14.14,0,0,1,0,.08.13.13,0,0,1,0,.08.07.07,0,0,1-.06,0V7h.58a.07.07,0,0,1,.06,0,.14.14,0,0,1,0,.08v.61a.14.14,0,0,1,0,.08.07.07,0,0,1-.06,0h-.66a.07.07,0,0,1-.06,0,.14.14,0,0,1,0-.08V6.14a.14.14,0,0,1,0-.08A.07.07,0,0,1,31.63,6Zm.08,1.25v.37h.5V7.27Z" style="fill: #686567" transform="translate(0.25 0.19)"/>
      </g>
      <g>
        <g data-name="&lt;Group&gt;" id="_Group_20">
          <path d="M10.59,33.56h.84l2.38.94a.23.23,0,0,1,0,.45l-2.38.93h-.84a.23.23,0,0,1-.17-.07.23.23,0,0,1,0-.33.23.23,0,0,1,.17-.07h.75l1.78-.7L11.35,34h-.75a.23.23,0,0,1-.17-.07.23.23,0,0,1,0-.33A.23.23,0,0,1,10.59,33.56Z" style="fill: #fff" transform="translate(0.25 0.19)"/>
        </g>
        <g data-name="&lt;Group&gt;" id="_Group_21">
          <path d="M13.53,31.12v-.83a.23.23,0,0,1,.07-.17.23.23,0,0,1,.33,0,.23.23,0,0,1,.07.17v.86a.66.66,0,0,1-.1.34.62.62,0,0,1-.23.24l-1,.53a1,1,0,0,1-.45.11.93.93,0,0,1-.45-.1l-1-.54a.7.7,0,0,1-.25-.24.56.56,0,0,1-.11-.31v-.91a.22.22,0,0,1,.07-.16.23.23,0,0,1,.16-.07.23.23,0,0,1,.16.07.22.22,0,0,1,.07.16v.87a.2.2,0,0,0,.13.18l1,.51a.54.54,0,0,0,.27.06.59.59,0,0,0,.28-.06l.94-.49A.23.23,0,0,0,13.53,31.12Z" style="fill: #fff" transform="translate(0.25 0.19)"/>
        </g>
        <g data-name="&lt;Group&gt;" id="_Group_22">
          <path d="M13.53,27.63V26.8a.23.23,0,0,1,.07-.17.23.23,0,0,1,.33,0,.23.23,0,0,1,.07.17v.86a.66.66,0,0,1-.1.34.62.62,0,0,1-.23.24l-1,.53a1,1,0,0,1-.45.11.93.93,0,0,1-.45-.1l-1-.54a.7.7,0,0,1-.25-.24.56.56,0,0,1-.11-.31v-.91a.22.22,0,0,1,.07-.16.23.23,0,0,1,.16-.07.23.23,0,0,1,.16.07.22.22,0,0,1,.07.16v.87a.2.2,0,0,0,.13.18l1,.51a.54.54,0,0,0,.27.06.59.59,0,0,0,.28-.06l.94-.49A.23.23,0,0,0,13.53,27.63Z" style="fill: #fff" transform="translate(0.25 0.19)"/>
        </g>
      </g>
      <g>
        <g data-name="&lt;Group&gt;" id="_Group_23">
          <path d="M20.77,34.62v-.83a.23.23,0,0,1,.07-.17.22.22,0,0,1,.32,0,.23.23,0,0,1,.07.17v.86a.65.65,0,0,1-.1.34.61.61,0,0,1-.23.24l-1,.53a1,1,0,0,1-.45.11.94.94,0,0,1-.45-.1l-1-.54A.72.72,0,0,1,17.7,35a.56.56,0,0,1-.11-.31v-.91a.22.22,0,0,1,.07-.16.22.22,0,0,1,.16-.07.23.23,0,0,1,.17.07.22.22,0,0,1,.07.16v.87a.2.2,0,0,0,.13.18l.95.51a.55.55,0,0,0,.27.06.6.6,0,0,0,.29-.06l.93-.49A.23.23,0,0,0,20.77,34.62Z" style="fill: #fff" transform="translate(0.25 0.19)"/>
        </g>
        <g data-name="&lt;Group&gt;" id="_Group_24">
          <path d="M17.6,31.86v-1.2a.6.6,0,0,1,.18-.42.59.59,0,0,1,.45-.2.23.23,0,0,1,.17.07.22.22,0,0,1,.07.15.2.2,0,0,1-.05.16.59.59,0,0,1-.2.08.17.17,0,0,0-.15.18v1.14c0,.06,0,.08.05.08a.12.12,0,0,0,.08,0l2.18-1.71a.54.54,0,0,1,.34-.12.51.51,0,0,1,.36.15.45.45,0,0,1,.16.33v1.24a.63.63,0,0,1-.6.61c-.17,0-.26-.08-.26-.24a.21.21,0,0,1,.07-.16.22.22,0,0,1,.16-.07.16.16,0,0,0,.12-.05.17.17,0,0,0,0-.13V30.6s0-.07-.06-.07a.11.11,0,0,0-.07,0l-2.18,1.7a.54.54,0,0,1-.34.12.51.51,0,0,1-.37-.15A.5.5,0,0,1,17.6,31.86Z" style="fill: #fff" transform="translate(0.25 0.19)"/>
        </g>
      </g>
      <g>
        <g data-name="&lt;Group&gt;" id="_Group_25">
          <path d="M24.31,35.66V33.8a.24.24,0,0,1,.23-.23.23.23,0,0,1,.17.07.22.22,0,0,1,.07.16v.69h2.71V33.8a.23.23,0,0,1,.39-.16.22.22,0,0,1,.07.16v1.86a.23.23,0,1,1-.46,0V35H24.78v.71a.22.22,0,0,1-.07.16.23.23,0,0,1-.16.07.23.23,0,0,1-.17-.07A.22.22,0,0,1,24.31,35.66Z" style="fill: #fff" transform="translate(0.25 0.19)"/>
        </g>
        <g data-name="&lt;Group&gt;" id="_Group_26">
          <path d="M24.55,30.48h3.4v.62l-2.82,1.24h2.59a.23.23,0,0,1,0,.46h-3.4v-.61l2.81-1.24H24.55a.24.24,0,0,1-.23-.24.22.22,0,0,1,.07-.16A.23.23,0,0,1,24.55,30.48Z" style="fill: #fff" transform="translate(0.25 0.19)"/>
        </g>
        <g data-name="&lt;Group&gt;" id="_Group_27">
          <path d="M24.94,29.72h-.62V27.4h.63a.22.22,0,0,1,.16.07.23.23,0,0,1,0,.33.22.22,0,0,1-.16.07h-.17v.46h2.94a.23.23,0,0,1,.23.23.23.23,0,0,1-.07.17.22.22,0,0,1-.16.07H24.78v.46h.16a.22.22,0,0,1,.16.07.23.23,0,0,1,0,.33A.22.22,0,0,1,24.94,29.72Z" style="fill: #fff" transform="translate(0.25 0.19)"/>
        </g>
        <g data-name="&lt;Group&gt;" id="_Group_28">
          <path d="M27.48,26.42v-.71H24.77v.69a.22.22,0,0,1-.07.16.23.23,0,0,1-.33,0,.22.22,0,0,1-.07-.16V25.25h3.17V24.8h-1a.23.23,0,0,1-.16-.07.22.22,0,0,1-.07-.16.23.23,0,0,1,.23-.23h1.19a.23.23,0,0,1,.23.23v1.85a.22.22,0,0,1-.07.16.23.23,0,0,1-.17.07.21.21,0,0,1-.16-.07A.22.22,0,0,1,27.48,26.42Z" style="fill: #fff" transform="translate(0.25 0.19)"/>
        </g>
      </g>
      <g>
        <g data-name="&lt;Group&gt;" id="_Group_29">
          <path d="M39.26,35.36v-1.2a.6.6,0,0,1,.18-.42.59.59,0,0,1,.45-.2.22.22,0,0,1,.17.07.22.22,0,0,1,.07.15.2.2,0,0,1-.05.16.59.59,0,0,1-.2.08.17.17,0,0,0-.15.18v1.14c0,.06,0,.08.05.08a.12.12,0,0,0,.08,0L42,33.68a.54.54,0,0,1,.34-.12.51.51,0,0,1,.36.15.45.45,0,0,1,.16.33v1.24a.63.63,0,0,1-.6.61c-.17,0-.26-.08-.26-.24a.21.21,0,0,1,.07-.16.22.22,0,0,1,.16-.07.17.17,0,0,0,.12-.05.18.18,0,0,0,0-.13V34.1s0-.07-.06-.07a.11.11,0,0,0-.07,0l-2.18,1.7a.54.54,0,0,1-.34.12.51.51,0,0,1-.37-.15A.5.5,0,0,1,39.26,35.36Z" style="fill: #fff" transform="translate(0.25 0.19)"/>
        </g>
        <g data-name="&lt;Group&gt;" id="_Group_30">
          <path d="M39.26,32.26v-.91a.63.63,0,0,1,.12-.35.69.69,0,0,1,.27-.25l.92-.45a1.08,1.08,0,0,1,1,0l.91.46a.7.7,0,0,1,.28.25.67.67,0,0,1,.1.37v.88a.22.22,0,0,1-.07.16.22.22,0,0,1-.16.07.23.23,0,0,1-.17-.07.21.21,0,0,1-.07-.16V32h-2.7v.23a.22.22,0,0,1-.07.16.23.23,0,0,1-.17.07.23.23,0,0,1-.16-.07A.22.22,0,0,1,39.26,32.26Zm.46-.69h2.71V31.4a.25.25,0,0,0-.15-.23l-.9-.45a.74.74,0,0,0-.3-.09.61.61,0,0,0-.28.07l-.94.47a.25.25,0,0,0-.14.24Z" style="fill: #fff" transform="translate(0.25 0.19)"/>
        </g>
        <g data-name="&lt;Group&gt;" id="_Group_31">
          <path d="M39.59,27.39l1-.51a1,1,0,0,1,.91,0l1,.51a.56.56,0,0,1,.34.55.58.58,0,0,1-.1.33.62.62,0,0,1-.24.22l-1,.51a1,1,0,0,1-.45.1,1,1,0,0,1-.46-.1l-1-.51a.58.58,0,0,1-.34-.55A.56.56,0,0,1,39.59,27.39Zm.23.7,1,.48a.68.68,0,0,0,.28.07.65.65,0,0,0,.29-.07l1-.49a.14.14,0,0,0,.09-.14.14.14,0,0,0-.09-.13l-1-.49a.66.66,0,0,0-.29-.07.61.61,0,0,0-.28.07l-1,.48a.15.15,0,0,0-.11.15A.17.17,0,0,0,39.82,28.09Z" style="fill: #fff" transform="translate(0.25 0.19)"/>
        </g>
      </g>
      <g>
        <g data-name="&lt;Group&gt;" id="_Group_32">
          <path d="M46.54,35.36v-1.2a.6.6,0,0,1,.18-.42.59.59,0,0,1,.45-.2.22.22,0,0,1,.17.07.22.22,0,0,1,.07.15.2.2,0,0,1-.05.16.59.59,0,0,1-.2.08.17.17,0,0,0-.15.18v1.14c0,.06,0,.08.05.08a.12.12,0,0,0,.08,0l2.18-1.71a.54.54,0,0,1,.34-.12.51.51,0,0,1,.36.15.45.45,0,0,1,.16.33v1.24a.63.63,0,0,1-.6.61c-.17,0-.26-.08-.26-.24a.21.21,0,0,1,.07-.16.22.22,0,0,1,.16-.07.17.17,0,0,0,.12-.05.18.18,0,0,0,0-.13V34.1s0-.07-.06-.07a.11.11,0,0,0-.07,0l-2.18,1.7a.54.54,0,0,1-.34.12.51.51,0,0,1-.37-.15A.5.5,0,0,1,46.54,35.36Z" style="fill: #fff" transform="translate(0.25 0.19)"/>
        </g>
        <g data-name="&lt;Group&gt;" id="_Group_33">
          <path d="M46.54,32.26v-.91a.63.63,0,0,1,.12-.35.69.69,0,0,1,.27-.25l.92-.45a1.08,1.08,0,0,1,1,0l.91.46a.7.7,0,0,1,.28.25.67.67,0,0,1,.1.37v.88a.22.22,0,0,1-.07.16.22.22,0,0,1-.16.07.23.23,0,0,1-.17-.07.21.21,0,0,1-.07-.16V32H47v.23a.22.22,0,0,1-.07.16.23.23,0,0,1-.17.07.23.23,0,0,1-.16-.07A.22.22,0,0,1,46.54,32.26Zm.46-.69h2.71V31.4a.25.25,0,0,0-.15-.23l-.9-.45a.74.74,0,0,0-.3-.09.61.61,0,0,0-.28.07l-.94.47a.25.25,0,0,0-.14.24Z" style="fill: #fff" transform="translate(0.25 0.19)"/>
        </g>
        <g data-name="&lt;Group&gt;" id="_Group_34">
          <path d="M49.85,29.08l-3.14-.92a.22.22,0,0,1-.17-.23.2.2,0,0,1,.14-.21l3.19-.92h.07a.23.23,0,0,1,.16.07.21.21,0,0,1,.07.15.22.22,0,0,1-.17.23l-.62.18v1.05l.67.2a.14.14,0,0,1,.08.07.23.23,0,0,1,0,.13.22.22,0,0,1-.07.17.23.23,0,0,1-.17.07ZM47.6,27.92l1.31.39v-.78Z" style="fill: #fff" transform="translate(0.25 0.19)"/>
        </g>
      </g>
      <g>
        <g data-name="&lt;Group&gt;" id="_Group_35">
          <path d="M53.91,35.36v-1.2a.6.6,0,0,1,.18-.42.59.59,0,0,1,.45-.2.22.22,0,0,1,.17.07.22.22,0,0,1,.07.15.2.2,0,0,1-.05.16.59.59,0,0,1-.2.08.17.17,0,0,0-.15.18v1.14c0,.06,0,.08.05.08a.12.12,0,0,0,.08,0l2.18-1.71a.54.54,0,0,1,.34-.12.51.51,0,0,1,.36.15.45.45,0,0,1,.16.33v1.24a.63.63,0,0,1-.6.61c-.17,0-.26-.08-.26-.24a.21.21,0,0,1,.07-.16.22.22,0,0,1,.16-.07.17.17,0,0,0,.12-.05.18.18,0,0,0,0-.13V34.1s0-.07-.06-.07a.11.11,0,0,0-.07,0l-2.18,1.7a.54.54,0,0,1-.34.12.51.51,0,0,1-.37-.15A.5.5,0,0,1,53.91,35.36Z" style="fill: #fff" transform="translate(0.25 0.19)"/>
        </g>
        <g data-name="&lt;Group&gt;" id="_Group_36">
          <path d="M57.08,31.22V30.4a.23.23,0,0,1,.07-.17.23.23,0,0,1,.33,0,.23.23,0,0,1,.07.17v.86a.66.66,0,0,1-.1.34.62.62,0,0,1-.23.24l-1,.53a1,1,0,0,1-.45.11.93.93,0,0,1-.45-.1l-1-.54A.7.7,0,0,1,54,31.6a.56.56,0,0,1-.11-.31v-.91a.22.22,0,0,1,.07-.16.23.23,0,0,1,.16-.07.23.23,0,0,1,.17.07.22.22,0,0,1,.07.16v.87a.2.2,0,0,0,.13.18l1,.51a.54.54,0,0,0,.27.06.59.59,0,0,0,.28-.06l.93-.49A.23.23,0,0,0,57.08,31.22Z" style="fill: #fff" transform="translate(0.25 0.19)"/>
        </g>
        <g data-name="&lt;Group&gt;" id="_Group_37">
          <path d="M57.54,29.09h-3.4A.22.22,0,0,1,54,29a.22.22,0,0,1-.07-.16A.22.22,0,0,1,54,28.7a.22.22,0,0,1,.16-.07h2.94V27a.23.23,0,0,1,.07-.17.23.23,0,0,1,.33,0,.23.23,0,0,1,.07.17Z" style="fill: #fff" transform="translate(0.25 0.19)"/>
        </g>
      </g>
      <g>
        <g data-name="&lt;Group&gt;" id="_Group_38">
          <path d="M31.63,35.65V33.8a.24.24,0,0,1,.23-.23.23.23,0,0,1,.17.07.22.22,0,0,1,.07.16v.69H34.8V33.8a.23.23,0,0,1,.23-.23.23.23,0,0,1,.23.23v1.86a.22.22,0,0,1-.07.16.23.23,0,0,1-.33,0,.22.22,0,0,1-.07-.16v-.71H32.1v.71a.22.22,0,0,1-.07.16.22.22,0,0,1-.16.07.23.23,0,0,1-.17-.07A.21.21,0,0,1,31.63,35.65Z" style="fill: #fff" transform="translate(0.25 0.19)"/>
        </g>
        <g data-name="&lt;Group&gt;" id="_Group_39">
          <path d="M31.87,30.48h3.4v.62l-2.82,1.24H35a.22.22,0,0,1,.16.07.23.23,0,0,1,0,.33.22.22,0,0,1-.16.07h-3.4v-.61l2.81-1.24H31.87a.24.24,0,0,1-.24-.24.22.22,0,0,1,.07-.16A.23.23,0,0,1,31.87,30.48Z" style="fill: #fff" transform="translate(0.25 0.19)"/>
        </g>
        <g data-name="&lt;Group&gt;" id="_Group_40">
          <path d="M32.26,29.72h-.62V27.4h.63a.23.23,0,0,1,.23.23.23.23,0,0,1-.07.17.22.22,0,0,1-.16.07H32.1v.46H35a.22.22,0,0,1,.16.07.22.22,0,0,1,.07.16.23.23,0,0,1-.07.17.22.22,0,0,1-.16.07H32.1v.46h.16a.23.23,0,0,1,.16.39A.22.22,0,0,1,32.26,29.72Z" style="fill: #fff" transform="translate(0.25 0.19)"/>
        </g>
        <g data-name="&lt;Group&gt;" id="_Group_41">
          <path d="M35.26,24.55v2.09H33.67a.45.45,0,0,1-.33-.13.44.44,0,0,1-.14-.32V24.78H32.09v1.64a.23.23,0,0,1-.39.16.22.22,0,0,1-.07-.16V24.78a.45.45,0,0,1,.14-.33.44.44,0,0,1,.32-.14h1.12a.47.47,0,0,1,.46.46v1.39H34.8V24.55a.23.23,0,0,1,.46,0Z" style="fill: #fff" transform="translate(0.25 0.19)"/>
        </g>
      </g>
      <g data-name="&lt;Group&gt;" id="_Group_42" style="opacity: 0.17">
        <path d="M30.3,17.89v-.14a.14.14,0,0,1,.14-.14.14.14,0,0,1,.14.14h.92v-1a.13.13,0,0,1,0-.1.13.13,0,0,1,.1,0h.72a.13.13,0,0,1,.1,0,.13.13,0,0,1,0,.1v1.12a.14.14,0,0,1-.14.14H30.44a.14.14,0,0,1-.1,0A.13.13,0,0,1,30.3,17.89Zm1.48-.14h.44v-.85h-.44Z" style="fill: #fff" transform="translate(0.25 0.19)"/>
      </g>
      <g data-name="&lt;Group&gt;" id="_Group_43" style="opacity: 0.17">
        <path d="M30.44,19.21H31v-.84h1.34a.13.13,0,0,1,.1,0,.14.14,0,0,1,0,.1.13.13,0,0,1,0,.1.14.14,0,0,1-.1,0H31.3v.56h.82a.14.14,0,0,1,.1,0,.13.13,0,0,1,0,.1.13.13,0,0,1,0,.1.14.14,0,0,1-.1,0H31.3a.13.13,0,0,1,0,.1.14.14,0,0,1-.2,0,.13.13,0,0,1,0-.1h-.58a.13.13,0,0,1-.1,0,.14.14,0,0,1,0-.1.14.14,0,0,1,0-.1A.13.13,0,0,1,30.44,19.21Z" style="fill: #fff" transform="translate(0.25 0.19)"/>
      </g>
      <g data-name="&lt;Group&gt;" id="_Group_44" style="opacity: 0.17">
        <path d="M30.58,20h.68a.27.27,0,0,1,.2.08.27.27,0,0,1,.08.2h.82a.14.14,0,0,1,.1,0,.13.13,0,0,1,0,.1V21a.14.14,0,0,1-.14.14h-.82a.27.27,0,0,1-.08.2.26.26,0,0,1-.2.08h-.68a.26.26,0,0,1-.2-.08.27.27,0,0,1-.08-.2v-.85a.26.26,0,0,1,.09-.2A.28.28,0,0,1,30.58,20Zm.68.28h-.68v.85h.68Zm1,.28h-.68v.29h.68Z" style="fill: #fff" transform="translate(0.25 0.19)"/>
      </g>
      <g data-name="&lt;Group&gt;" id="_Group_45" style="opacity: 0.17">
        <path d="M33.28,17.54h.58V16.7H35.2a.13.13,0,0,1,.1,0,.14.14,0,0,1,0,.1.13.13,0,0,1,0,.1.14.14,0,0,1-.1,0H34.14v.56H35a.14.14,0,0,1,.1,0,.13.13,0,0,1,0,.1.13.13,0,0,1,0,.1.14.14,0,0,1-.1,0h-.82a.13.13,0,0,1,0,.1.14.14,0,0,1-.2,0,.13.13,0,0,1,0-.1h-.58a.13.13,0,0,1-.1,0,.14.14,0,0,1,0-.1.14.14,0,0,1,0-.1A.13.13,0,0,1,33.28,17.54Z" style="fill: #fff" transform="translate(0.25 0.19)"/>
      </g>
      <g data-name="&lt;Group&gt;" id="_Group_46" style="opacity: 0.17">
        <path d="M35.34,18.44v.14a.14.14,0,0,1,0,.1.14.14,0,0,1-.2,0,.14.14,0,0,1,0-.1h-.92v1a.13.13,0,0,1,0,.1.14.14,0,0,1-.1,0h-.72a.13.13,0,0,1-.1,0,.14.14,0,0,1,0-.1V18.44a.14.14,0,0,1,0-.1.13.13,0,0,1,.1,0H35.2a.13.13,0,0,1,.1,0A.14.14,0,0,1,35.34,18.44Zm-1.48.14h-.44v.84h.44Z" style="fill: #fff" transform="translate(0.25 0.19)"/>
      </g>
      <g data-name="&lt;Group&gt;" id="_Group_47" style="opacity: 0.17">
        <path d="M33.42,20h.68a.27.27,0,0,1,.2.08.27.27,0,0,1,.08.2h.82a.14.14,0,0,1,.1,0,.13.13,0,0,1,0,.1V21a.14.14,0,0,1-.14.14h-.82a.27.27,0,0,1-.08.2.26.26,0,0,1-.2.08h-.68a.26.26,0,0,1-.2-.08.27.27,0,0,1-.08-.2v-.85a.26.26,0,0,1,.09-.2A.28.28,0,0,1,33.42,20Zm.68.28h-.68v.85h.68Zm1,.28h-.68v.29h.68Z" style="fill: #fff" transform="translate(0.25 0.19)"/>
      </g>
      <g data-name="&lt;Group&gt;" id="_Group_50">
        <path d="M47.32,14v1.2a.17.17,0,0,1-.05.13.17.17,0,0,1-.13.05.18.18,0,0,1-.13-.05A.17.17,0,0,1,47,15.2V14l-.73-.93v-.39a.18.18,0,0,1,.05-.13.17.17,0,0,1,.13-.05.18.18,0,0,1,.13.06.18.18,0,0,1,.05.13v.25l.55.7.56-.7v-.25a.19.19,0,0,1,.05-.13.18.18,0,0,1,.13-.05.18.18,0,0,1,.13.05.18.18,0,0,1,.06.14v.38Z" style="fill: #fdfdfe" transform="translate(0.25 0.19)"/>
      </g>
      <g data-name="&lt;Group&gt;" id="_Group_51">
        <path d="M52.14,14.74H53.8V15l-1.34,2.29h1.16a.17.17,0,0,1,.13.05.18.18,0,0,1-.13.31H52v-.24l1.34-2.28H52.14a.17.17,0,0,1-.13-.06.18.18,0,0,1-.05-.13A.18.18,0,0,1,52,14.8.17.17,0,0,1,52.14,14.74Z" style="fill: #fdfdfe" transform="translate(0.25 0.19)"/>
      </g>
      <g data-name="&lt;Group&gt;" id="_Group_52">
        <path d="M55.29,22.51l1,.58a.17.17,0,0,1,.09.15.18.18,0,0,1-.06.13.17.17,0,0,1-.12.06.21.21,0,0,1-.11,0l-1.16-.68-1.14.67a.25.25,0,0,1-.12,0,.17.17,0,0,1-.12-.05.18.18,0,0,1-.05-.13.17.17,0,0,1,.09-.16l1-.59-1-.58a.17.17,0,0,1-.09-.15.19.19,0,0,1,.05-.13.17.17,0,0,1,.13-.06l.1,0,1.17.69,1.17-.68.09,0a.17.17,0,0,1,.13.05.18.18,0,0,1,.05.13.17.17,0,0,1-.09.16Z" style="fill: #fdfdfe" transform="translate(0.25 0.19)"/>
      </g>
    </g>
  </g>
  <g id="Connectors">
    <circle cx="19.64" cy="40.89" data-cir-type="male" id="circuitoCon_CS" r="0.81" style="fill: none"/>
    <circle cx="12.42" cy="40.89" data-cir-type="male" id="circuitoCon_VCC" r="0.81" style="fill: none"/>
    <circle cx="33.96" cy="40.89" data-cir-type="male" id="circuitoCon_INT2" r="0.81" style="fill: none"/>
    <circle cx="26.74" cy="40.89" data-cir-type="male" id="circuitoCon_INT1" r="0.81" style="fill: none"/>
    <circle cx="48.5" cy="40.89" data-cir-type="male" id="circuitoCon_SDA" r="0.81" style="fill: none"/>
    <circle cx="41.27" cy="40.89" data-cir-type="male" id="circuitoCon_SDO" r="0.81" style="fill: none"/>
    <circle cx="55.59" cy="40.89" data-cir-type="male" id="circuitoCon_SCL" r="0.81" style="fill: none"/>
    <circle cx="5.09" cy="40.89" data-cir-type="male" id="circuitoCon_GND" r="0.81" style="fill: none"/>
  </g>
</svg>