<?xml version="1.0" ?><svg height="18.52mm" viewBox="0 0 29.19 52.5" width="10.3mm" xmlns="http://www.w3.org/2000/svg">
  <title>Analog UV Light Sensor Breakout - GUVA-S12SD finish</title>
  <g id="motherboard">
    <circle cx="20.88" cy="46.3" r="2.53" style="fill: none"/>
    <circle cx="6.48" cy="46.3" r="2.53" style="fill: none"/>
    <circle cx="13.68" cy="46.3" r="2.53" style="fill: none"/>
    <circle cx="6.48" cy="46.3" r="2.53" style="fill: none"/>
    <circle cx="13.68" cy="46.3" r="2.53" style="fill: none"/>
    <circle cx="4.53" cy="28.61" r="0.37" style="fill: none"/>
    <circle cx="20.88" cy="46.3" r="2.53" style="fill: none"/>
    <circle cx="23.7" cy="28.61" r="0.37" style="fill: none"/>
    <path d="M21.91,0H9.13A9.13,9.13,0,0,0,0,9.13V46.07A6.43,6.43,0,0,0,6.43,52.5H24.27a4.91,4.91,0,0,0,4.91-4.91V7.28A7.28,7.28,0,0,0,21.91,0ZM4.53,28.25a.37.37,0,1,1-.37.37A.37.37,0,0,1,4.53,28.25Zm2,20.58A2.53,2.53,0,1,1,9,46.3,2.53,2.53,0,0,1,6.48,48.83Zm7.2,0a2.53,2.53,0,1,1,2.53-2.53A2.53,2.53,0,0,1,13.68,48.83Zm.9-35.62a4.06,4.06,0,1,1,4.06-4.06A4.06,4.06,0,0,1,14.58,13.21Zm6.3,35.62a2.53,2.53,0,1,1,2.53-2.53A2.53,2.53,0,0,1,20.88,48.83ZM23.7,29a.37.37,0,1,1,.37-.37A.37.37,0,0,1,23.7,29Z" style="fill: #1a2c80"/>
  </g>
  <g data-name="connectors 2" id="connectors_2">
    <circle cx="25.13" cy="13.77" r="2.75" style="fill: #405650"/>
    <circle cx="14.56" cy="9.13" r="4.36" style="fill: none;stroke: #e5d3a7;stroke-miterlimit: 10"/>
    <circle cx="25.16" cy="13.81" r="1.33" style="fill: #e5d3a7"/>
  </g>
  <g data-name="connectors 3" id="connectors_3">
    <path d="M2.38,45.36A2.67,2.67,0,1,0,0,41.49v2.4A2.66,2.66,0,0,0,2.38,45.36Zm0-3.7a1,1,0,1,1-1,1A1,1,0,0,1,2.38,41.66Z" style="fill: #ceb47a"/>
    <circle cx="2.38" cy="42.69" r="1.02" style="fill: #e0cf92"/>
    <circle cx="6.53" cy="46.28" r="2.47" style="fill: none;stroke: #ceb47a;stroke-miterlimit: 10;stroke-width: 0.840425531915513px"/>
    <circle cx="13.68" cy="46.3" r="2.47" style="fill: none;stroke: #ceb47a;stroke-miterlimit: 10;stroke-width: 0.840425531915513px"/>
    <circle cx="20.88" cy="46.3" r="2.47" style="fill: none;stroke: #ceb47a;stroke-miterlimit: 10;stroke-width: 0.840425531915513px"/>
  </g>
  <g id="lines">
    <g>
      <path d="M2.56,29.7c.37,0,.31-.34.17-.63s-.1-.35.09-1.07-.13-.34-.72-.62-.7-1.27-.74-1.52v.65l0,4C1.44,29.94,2.19,29.74,2.56,29.7Z" style="fill: #0b5597"/>
      <path d="M1.35,25.81v0Z" style="fill: #0b5597"/>
      <rect height="1.29" style="fill: #0b5597" width="1.29" x="1.39" y="36.97"/>
      <path d="M10.09,47.68S9,49.75,7.33,49.77V48.46H5.9l0,1.33A3.82,3.82,0,0,1,3.15,46.3L1,46.19s-.1,4.54,3.88,5.88h7.48V49.75S10.44,49.05,10.09,47.68Z" style="fill: #0b5597"/>
      <polygon points="24.44 39 24.47 48.13 22 50.72 14.94 50.81 14.06 48.72 13.22 48.72 13.22 49.13 13.22 51.72 22.47 51.72 25.38 48.91 25.5 39 24.44 39" style="fill: #0b5597"/>
      <polygon points="21.83 36.25 19.04 33.69 17.85 33.69 17.85 33.9 21.83 37.98 21.83 36.25" style="fill: #0b5597"/>
      <path d="M21.83,27.63c-.06-.17-.33-.12-.62-.1s-.1-.21-.48-.32-.29.65-.29.65h-.79v.63l.81,0a5.12,5.12,0,0,1,0,.65c0,.17-.27.42,0,.71a.51.51,0,0,0,.9,0c1,.06.55-.77.55-.77a.87.87,0,0,1-.07-.69A.94.94,0,0,0,21.83,27.63Z" style="fill: #0b5597"/>
      <rect height="1.19" style="fill: #0b5597" width="2.39" x="6.44" y="19"/>
      <polygon points="11.34 24.56 10.34 24.72 10.34 27.47 11.34 27.47 11.34 24.56" style="fill: #0b5597"/>
      <path d="M6,42.12v2.11a.18.18,0,0,0,.18.18h1.4V42.87c2.11.33,1.94,2,2.61,2,.3,0,.44-.64.79-1a4.66,4.66,0,0,1,.89-.71c.1-.06.08-.08.09-.12s-.06-.1-.06-.1l-1.53-1.53H9.47a.29.29,0,0,1-.26,0,.33.33,0,0,1-.06-.27v-5h.47V34.88h-1V32.09a.18.18,0,0,1,.18-.18H12.6a.18.18,0,0,0,.18-.18V29.78a.18.18,0,0,0-.18-.18H8.78a.18.18,0,0,1-.18-.18V26.5h1V25a.18.18,0,0,0-.19-.18l-1.26.05s-.1-.33-.39-.34-.24,0-.33.24a13.32,13.32,0,0,0,0,2.12L7,27.47H6.21v.35l.34.34v.94l-.35.35.28.28H7l.55.55v4.17l-.46.46v.2l.33.33v1.35a.18.18,0,0,1-.18.18H5.91v1.31l1.46,0a.18.18,0,0,1,.19.18v1.49a.72.72,0,0,1-.12.21.57.57,0,0,1-.22.12l-1.62,0a.18.18,0,0,0-.17.24L6,42.06A.18.18,0,0,1,6,42.12Z" style="fill: #0b5597"/>
      <polygon points="19.01 45.23 19.7 44.49 16.65 41.56 13.22 41.56 12.38 40.52 10.83 40.52 12.67 42.51 16.29 42.51 19.01 45.23" style="fill: #0b5597"/>
      <rect height="3.03" style="fill: #0b5597" width="1" x="10.25" y="33.72"/>
      <polygon points="18.56 16.38 20.73 16.37 22.27 17.91 23.57 17.91 21.02 15.35 10.34 15.35 10.34 17.06 18.53 17.05 18.56 16.38" style="fill: #0b5597"/>
      <path d="M4.12,29.32H4v1.44H5V29.32H4.94A.8.8,0,0,0,5,27.94H5V26.5H4v1.44h0a.8.8,0,0,0,.06,1.38Zm.41-1.06a.35.35,0,1,1-.35.35A.35.35,0,0,1,4.53,28.26Z" style="fill: #0b5597"/>
      <path d="M24.19,26.43h-1v1.44h0a.8.8,0,0,0,.06,1.38h-.11V30.7h1V29.26H24.1a.8.8,0,0,0,.06-1.38h0ZM23.7,29a.35.35,0,1,1,.35-.35A.35.35,0,0,1,23.7,29Z" style="fill: #0b5597"/>
      <path d="M19.51,42.94a1.48,1.48,0,0,0,.74-.3s.47.06,1.4.07,1.45,1,1.76,1,.32-.45.32-.45v-3H21.21a.49.49,0,0,1-.33-.12.45.45,0,0,1-.14-.27V38s-.51-.61-.78-.66-.32.12-.32.12v.4h-.87v1.37h.82v1.92s0,.26-.24.26-.59,0-.85,0c-.42,0-.31.45-.31.45S19.15,42.94,19.51,42.94Z" style="fill: #0b5597"/>
      <path d="M20.58,25H12.37a.24.24,0,0,0-.24.24v1a.24.24,0,0,0,.24.24h.17V27h5.61V26.5h2.11v.35h.58V25.22A.24.24,0,0,0,20.58,25Z" style="fill: #0b5597"/>
      <rect height="22.13" rx="0.19" ry="0.19" style="fill: #0b5597" width="0.53" x="1.09" y="17.13"/>
    </g>
    <polyline points="17.79 36.59 17.79 35.83 18.32 35.31 16.59 35.31 16.59 34.06 12.55 34.06 12.55 35.67 14.69 35.67 14.69 36.75 17.79 36.75 17.79 36.52" style="fill: #0b5597"/>
  </g>
  <g data-name="white dec" id="white_dec">
    <circle cx="14.56" cy="9.13" r="5.74" style="fill: none;stroke: #fff;stroke-miterlimit: 10;stroke-width: 0.75px"/>
    <path d="M27.66,5.17a2.53,2.53,0,0,0-2.23-.3,3.78,3.78,0,0,0-.28-2.05c-.15-.48-.37-.64-.76-.05a2.24,2.24,0,0,0-.9,1.85c-.39-.55-1.15-.59-2-.47-.61,0-.66.31-.36.73A2.6,2.6,0,0,0,22.27,6.2c.3,0,.45.11.21.22a2.77,2.77,0,0,0-.92,1.88c-.14.6.13.6.57.38a2.48,2.48,0,0,0,1.62-.76c.16-.18.3-.28.29-.09a.55.55,0,0,0,.18.47,5.4,5.4,0,0,0,1.33,1.05c.32.23.47.13.48-.27a8.57,8.57,0,0,0,.12-.88,1.73,1.73,0,0,0-.07-.81A1.36,1.36,0,0,0,26,7.2L25.78,7c-.21-.21-.15-.29.16-.26a2.17,2.17,0,0,0,1.65-.85C28,5.62,28,5.37,27.66,5.17Z" style="fill: #e7e8e0"/>
    <polyline points="9.41 16.91 9.41 16.52 19.65 16.52 19.65 16.91" style="fill: none;stroke: #e7e8e0;stroke-miterlimit: 10;stroke-width: 0.25px"/>
    <polyline points="19.61 24.33 19.61 24.72 9.38 24.72 9.38 24.33" style="fill: none;stroke: #e7e8e0;stroke-miterlimit: 10;stroke-width: 0.25px"/>
    <line style="fill: #338085;stroke: #e7e6e8;stroke-miterlimit: 10;stroke-width: 0.5px" x1="12.13" x2="16.75" y1="26.26" y2="26.26"/>
    <line style="fill: #338085;stroke: #e7e6e8;stroke-miterlimit: 10;stroke-width: 0.5px" x1="11.98" x2="16.96" y1="35.35" y2="35.35"/>
  </g>
  <g id="chip">
    <rect height="6.67" style="fill: #544932" width="12.17" x="8.33" y="17.45"/>
    <rect height="6.67" style="fill: #bcbcbc" width="12.02" x="8.48" y="17.45"/>
    <rect height="7.81" style="fill: #fff" width="8.91" x="9.84" y="16.91"/>
    <circle cx="14.3" cy="20.81" r="2.77" style="fill: none;stroke: #c6c6c6;stroke-miterlimit: 10;stroke-width: 0.75px"/>
    <polyline points="12.87 18.45 13.92 19.59 15.21 19.59 15.21 22.02 13.96 22.02 12.82 23.16" style="fill: none;stroke: #c6c6c6;stroke-linejoin: round;stroke-width: 0.5px"/>
    <rect height="1.23" style="fill: #c6c6c6" width="1.1" x="13.73" y="20.19"/>
    <rect height="2.4" rx="0.42" ry="0.42" style="fill: #e7e6e8" transform="translate(-20.58 56.17) rotate(-90)" width="4.02" x="15.78" y="37.18"/>
    <rect height="2.92" rx="0.73" ry="0.73" style="fill: #fffdf3" transform="translate(-27.28 49.47) rotate(-90)" width="3.96" x="9.12" y="36.92"/>
    <rect height="4.88" rx="0.92" ry="0.92" style="fill: #cea468" transform="translate(-24.57 52.31) rotate(-90)" width="3.17" x="12.28" y="36"/>
    <path d="M12.23,40.2q-.91.21-.9-1.07L11.4,37c.23-.55.53-.72,1-.22a7.71,7.71,0,0,1,.23,2.7A.65.65,0,0,1,12.23,40.2Z" style="fill: #757376"/>
    <path d="M15.85,36.62q.91-.21.9,1.07l-.06,2.09c-.23.55-.53.73-1,.22a7.72,7.72,0,0,1-.23-2.7A.65.65,0,0,1,15.85,36.62Z" style="fill: #757376"/>
    <rect height="2.4" rx="0.42" ry="0.42" style="fill: #e7e6e8" transform="translate(47.6 38.32) rotate(180)" width="4.02" x="21.79" y="17.96"/>
    <rect height="2.92" rx="0.73" ry="0.73" style="fill: #fffdf3" transform="translate(47.6 51.72) rotate(180)" width="3.96" x="21.82" y="24.4"/>
    <rect height="4.88" rx="0.92" ry="0.92" style="fill: #cea468" transform="translate(47.73 46.18) rotate(180)" width="3.17" x="22.28" y="20.65"/>
    <path d="M25.62,24.72q.21.91-1.07.9l-2.09-.06c-.55-.23-.72-.53-.22-1a7.71,7.71,0,0,1,2.7-.23A.65.65,0,0,1,25.62,24.72Z" style="fill: #757376"/>
    <path d="M22,21.1q-.21-.91,1.07-.9l2.09.06c.55.23.73.53.22,1a7.72,7.72,0,0,1-2.7.23A.65.65,0,0,1,22,21.1Z" style="fill: #757376"/>
    <rect height="2.83" style="fill: #bcbcbc" width="3.48" x="2.68" y="33.29"/>
    <rect height="3.91" style="fill: #e7e6e8" width="4.32" x="2.38" y="30.29"/>
    <rect height="3.91" style="fill: #e7e6e8" width="4.32" x="2.38" y="35.35"/>
    <rect height="2.83" style="fill: #bcbcbc" width="3.48" x="21.79" y="33.54"/>
    <rect height="3.91" style="fill: #e7e6e8" width="4.32" x="21.48" y="30.54"/>
    <rect height="3.91" style="fill: #e7e6e8" width="4.32" x="21.48" y="35.59"/>
    <rect height="2.81" style="fill: #2a292d" transform="translate(-30.4 39.24) rotate(-90)" width="3.72" x="2.56" y="33.42"/>
    <g>
      <path d="M4.86,35.85H4.57s-.07,0-.07-.06,0-.06.07-.06h.36c.05,0,.07,0,.07.06v.46s0,.06-.07.06-.07,0-.07-.06v-.17H4v.17s0,.06-.07.06-.07,0-.07-.06V36h1Z" style="fill: #fbfcfe"/>
      <path d="M3.9,35A.13.13,0,0,1,4,34.89h.82A.13.13,0,0,1,5,35v.35a.13.13,0,0,1-.14.12H4a.13.13,0,0,1-.14-.12Zm1,0H4v.35h.82Z" style="fill: #fbfcfe"/>
      <path d="M3.9,34.17A.13.13,0,0,1,4,34.05h.82a.13.13,0,0,1,.14.12v.35a.13.13,0,0,1-.14.12H4a.13.13,0,0,1-.14-.12Zm1,0H4v.35h.82Z" style="fill: #fbfcfe"/>
      <path d="M4.86,33.33H4.57s-.07,0-.07-.06,0-.06.07-.06h.36c.05,0,.07,0,.07.06v.46s0,.06-.07.06-.07,0-.07-.06v-.17H4v.17s0,.06-.07.06-.07,0-.07-.06v-.29h1Z" style="fill: #fbfcfe"/>
    </g>
    <rect height="2.81" style="fill: #2a292d" transform="translate(-11.47 58.55) rotate(-90)" width="3.72" x="21.68" y="33.6"/>
    <g>
      <path d="M23.12,36.22s0,.06-.07.06-.07,0-.07-.06v-.4a.13.13,0,0,1,.14-.12h.27a.18.18,0,0,1,.14,0,.18.18,0,0,1,.14,0h.27a.13.13,0,0,1,.14.12v.4s0,.06-.07.06-.07,0-.07-.06v-.4H23.7c-.08,0-.1,0-.1.06v.23s0,.06-.07.06-.07,0-.07-.06v-.23s0-.06-.1-.06h-.24Z" style="fill: #fbfcfe"/>
      <path d="M23.12,35.38s0,.06-.07.06-.07,0-.07-.06V35a.13.13,0,0,1,.14-.12h.27a.18.18,0,0,1,.14,0,.18.18,0,0,1,.14,0h.27a.13.13,0,0,1,.14.12v.4s0,.06-.07.06-.07,0-.07-.06V35H23.7c-.08,0-.1,0-.1.06v.23s0,.06-.07.06-.07,0-.07-.06V35s0-.06-.1-.06h-.24Z" style="fill: #fbfcfe"/>
      <path d="M23.94,34.48v-.4S24,34,24,34s.07,0,.07.06v.52h-.46c-.11,0-.16,0-.16-.13v-.33h-.34v.4s0,.06-.07.06-.07,0-.07-.06v-.39a.11.11,0,0,1,0-.09.17.17,0,0,1,.13,0h.29a.17.17,0,0,1,.13,0,.11.11,0,0,1,0,.09v.33Z" style="fill: #fbfcfe"/>
    </g>
    <g>
      <rect height="2.83" style="fill: #bcbcbc" width="3.48" x="3.07" y="20.79"/>
      <rect height="3.91" style="fill: #e7e6e8" width="4.32" x="2.77" y="17.79"/>
      <rect height="3.91" style="fill: #e7e6e8" width="4.32" x="2.77" y="22.85"/>
      <rect height="2.81" style="fill: #2a292d" transform="translate(27.12 17.62) rotate(90)" width="3.72" x="2.89" y="20.96"/>
      <g>
        <path d="M4.36,21.56h.29s.07,0,.07.06,0,.06-.07.06H4.28c-.05,0-.07,0-.07-.06v-.46s0-.06.07-.06.07,0,.07.06v.17h.82v-.17s0-.06.07-.06.07,0,.07.06v.29h-1Z" style="fill: #fbfcfe"/>
        <path d="M5.32,22.4a.13.13,0,0,1-.14.12H4.36a.13.13,0,0,1-.14-.12v-.35a.13.13,0,0,1,.14-.12h.82a.13.13,0,0,1,.14.12Zm-1,0h.82v-.35H4.36Z" style="fill: #fbfcfe"/>
        <path d="M4.84,23v.22a.11.11,0,0,1,0,.09.16.16,0,0,1-.12,0h-.3a.17.17,0,0,1-.11,0,.1.1,0,0,1,0-.1V23a.15.15,0,0,1,0-.08l0,0s0-.07.08-.07a.07.07,0,0,1,.07.06.07.07,0,0,1,0,0l0,0a.18.18,0,0,0,0,.06v.27h.34V22.9h.62v.41s0,.06-.07.06-.07,0-.07-.06V23Z" style="fill: #fbfcfe"/>
      </g>
    </g>
    <g>
      <rect height="1.64" style="fill: #848484" width="2.14" x="17.71" y="27.22"/>
      <rect height="1.17" style="fill: #bcbcbc" width="0.96" x="16.75" y="27.47"/>
      <rect height="1.64" style="fill: #848484" width="2.14" x="17.71" y="29.91"/>
      <rect height="1.17" style="fill: #bcbcbc" width="0.96" x="16.75" y="30.16"/>
      <rect height="1.64" style="fill: #848484" width="2.14" x="17.71" y="32.57"/>
      <rect height="1.17" style="fill: #bcbcbc" width="0.96" x="16.75" y="32.81"/>
      <rect height="1.64" style="fill: #848484" transform="translate(20.2 66.61) rotate(180)" width="2.14" x="9.03" y="32.49"/>
      <rect height="1.17" style="fill: #bcbcbc" transform="translate(23.29 66.59) rotate(180)" width="0.96" x="11.17" y="32.71"/>
      <rect height="1.64" style="fill: #848484" transform="translate(20.2 56) rotate(180)" width="2.14" x="9.03" y="27.18"/>
      <rect height="1.17" style="fill: #bcbcbc" transform="translate(23.29 55.97) rotate(180)" width="0.96" x="11.17" y="27.4"/>
      <rect height="8" style="fill: #303030" width="4.63" x="12.13" y="26.85"/>
      <g>
        <path d="M15.21,32.46a.25.25,0,0,1-.16.25l-.31.15a.38.38,0,0,1-.17,0,.36.36,0,0,1-.18,0l-.31-.15a.25.25,0,0,1-.16-.25v-.28a.08.08,0,0,1,.08-.08.08.08,0,0,1,.08.08v.28c0,.07,0,.08.07.11l.29.14a.26.26,0,0,0,.13,0,.23.23,0,0,0,.11,0l.29-.14c.07,0,.07,0,.07-.12v-.27a.08.08,0,0,1,.17,0Z"/>
        <path d="M13.93,31.07a.17.17,0,0,1,.17-.16h1a.16.16,0,0,1,.17.16v.49a.16.16,0,0,1-.17.16h-1a.17.17,0,0,1-.17-.16Zm1.12,0h-1v.49h1Z"/>
        <path d="M13.93,30a.08.08,0,0,1,.08-.08h.48a.17.17,0,0,1,0-.12.16.16,0,0,1,.12,0H15a.15.15,0,0,1,.17.16v.49a.15.15,0,0,1-.17.16h-.39a.16.16,0,0,1-.12,0,.17.17,0,0,1,0-.12H14a.08.08,0,0,1-.08-.08Zm.56.08H14.1v.16h.39Zm.56-.17h-.39v.49H15Z"/>
        <path d="M14.28,28.7H14c-.05,0-.08,0-.08-.08s0-.08.08-.08h.32l.8.31s.07,0,.07.08,0,.07-.07.08l-.8.31H14c-.05,0-.08,0-.08-.08s0-.08.08-.08h.26l.63-.24Z"/>
      </g>
    </g>
    <rect height="0.24" style="fill: #e5d3a7" width="0.24" x="14.48" y="20.31"/>
    <rect height="0.24" style="fill: #e5d3a7" width="0.24" x="13.85" y="21.07"/>
    <line style="fill: #338085;stroke: #e7e6e8;stroke-miterlimit: 10;stroke-width: 0.5px" x1="11.65" x2="11.65" y1="29.25" y2="32.25"/>
  </g>
  <g id="text">
    <g>
      <path d="M4.73,11.25a.55.55,0,0,1-.19.45.58.58,0,0,1-.43.14h-2a.18.18,0,1,1,0-.36h2c.2,0,.26-.06.26-.23v-.62c0-.16-.05-.23-.26-.23h-2a.18.18,0,1,1,0-.36h2a.58.58,0,0,1,.43.14.55.55,0,0,1,.19.45Z" style="fill: #fff"/>
      <path d="M2.66,7.78H2.08a.18.18,0,1,1,0-.36h.58a.38.38,0,0,1,.14,0l1.78.7c.09,0,.16.07.16.18s-.07.15-.16.18l-1.78.7a.37.37,0,0,1-.14,0H2.08a.18.18,0,1,1,0-.36h.58l1.39-.54Z" style="fill: #fff"/>
    </g>
    <g>
      <path d="M6.82,14.77a.48.48,0,0,1,.31-.13.42.42,0,0,1,.42.47v.82a.55.55,0,0,1-.12.38.47.47,0,0,1-.35.17.2.2,0,0,1-.22-.2.18.18,0,0,1,.19-.17c.11,0,.13-.06.13-.16v-.81s0-.12,0-.12-.09.05-.11.07L5.39,16.36a.45.45,0,0,1-.31.12.41.41,0,0,1-.36-.2A.5.5,0,0,1,4.66,16v-.79a.53.53,0,0,1,.12-.37.51.51,0,0,1,.35-.17.19.19,0,0,1,.22.19.17.17,0,0,1-.17.18C5,15,5,15.08,5,15.19V16s0,.13.05.13.08,0,.1-.06Z" style="fill: #fff"/>
      <path d="M7.55,13.1a.38.38,0,0,1-.1.32l-.13.15a.44.44,0,0,1-.4.18H6.23a.47.47,0,0,1-.43-.17l-.11-.13a.48.48,0,0,1-.15-.39v-.33a.51.51,0,0,1,.13-.39l.12-.15A.51.51,0,0,1,6.26,12h.29c.2,0,.26,0,.26.25v1.15h.12a.17.17,0,0,0,.1-.05l.1-.09A.3.3,0,0,0,7.19,13v-.77c0-.12,0-.25.18-.25s.18.14.18.25Zm-1.1.3v-1H6.23c-.07,0-.12,0-.17,0l-.12.14a.25.25,0,0,0,0,.17V13a.29.29,0,0,0,0,.18l.09.12a.16.16,0,0,0,.16.07Z" style="fill: #fff"/>
      <path d="M6.27,10.71h1c.12,0,.25,0,.25.18s-.12.18-.25.18H5.81c-.13,0-.26,0-.26-.18s.13-.18.26-.18h0l-.19-.29a.58.58,0,0,1-.12-.31V9.85a.45.45,0,0,1,.13-.33c.14-.16.29-.15.48-.16l1.12,0c.13,0,.27,0,.27.18s-.12.17-.24.18l-1.1,0c-.22,0-.31,0-.31.24v.12a.21.21,0,0,0,0,.11Z" style="fill: #fff"/>
      <path d="M5.9,7.77c0,.07,0,.2.1.2s.08,0,.1-.1L6.51,7A.51.51,0,0,1,7,6.63c.36,0,.53.25.53.59v.55a.64.64,0,0,1-.11.45c-.05.07-.12.16-.21.16a.18.18,0,0,1-.18-.19.17.17,0,0,1,.06-.14.38.38,0,0,0,.08-.29V7.29c0-.13,0-.3-.2-.3s-.14.1-.18.19L6.44,8A.44.44,0,0,1,6,8.33a.46.46,0,0,1-.45-.49V7.23a.52.52,0,0,1,.12-.41c.06-.07.1-.14.2-.14A.18.18,0,0,1,6,6.86.19.19,0,0,1,6,7a.26.26,0,0,0-.07.22Z" style="fill: #fff"/>
      <path d="M6.21,5.7a.48.48,0,0,1-.47-.23A.64.64,0,0,1,5.55,5V4.68a.64.64,0,0,1,.2-.51.48.48,0,0,1,.47-.23h.67a.52.52,0,0,1,.48.25.6.6,0,0,1,.19.49V5a.6.6,0,0,1-.19.49.52.52,0,0,1-.48.25Zm.67-.36c.07,0,.12,0,.21-.13A.33.33,0,0,0,7.19,5V4.68a.33.33,0,0,0-.1-.25C7,4.33,7,4.3,6.89,4.3H6.21c-.07,0-.12,0-.21.13a.33.33,0,0,0-.1.25V5a.33.33,0,0,0,.1.25c.09.1.14.13.21.13Z" style="fill: #fff"/>
      <path d="M5.81,3c-.13,0-.26,0-.26-.18s.12-.18.24-.18h.15L5.7,2.38a.54.54,0,0,1-.15-.32V1.77a.47.47,0,0,1,.14-.35.52.52,0,0,1,.41-.16c.12,0,.25,0,.25.17s-.1.18-.22.18a.23.23,0,0,0-.16,0c-.06,0-.06.13-.06.22V2A.28.28,0,0,0,6,2.16l.41.5h.9c.12,0,.25,0,.25.18S7.43,3,7.31,3Z" style="fill: #fff"/>
    </g>
    <g>
      <path d="M11.38,49.61a1.13,1.13,0,0,1,.13.56,1.22,1.22,0,0,1-.17.6l-.46.92a.66.66,0,0,1-1.22,0l-.46-.92a1.22,1.22,0,0,1-.17-.6,1.13,1.13,0,0,1,.13-.56l.5-1a.65.65,0,0,1,1.21,0Zm-.94-.76c0-.08-.07-.15-.17-.15s-.13.07-.17.15l-.45.91a.77.77,0,0,0-.12.41.68.68,0,0,0,.08.33l.48,1c0,.07.07.15.17.15s.14-.08.17-.15l.48-1a.68.68,0,0,0,.08-.33.77.77,0,0,0-.12-.41Z" style="fill: #fff"/>
      <path d="M15,51.74c0,.11,0,.36-.24.36s-.24-.17-.24-.33v-.08l-.39.25a.8.8,0,0,1-.42.16h-.36a.67.67,0,0,1-.45-.17.76.76,0,0,1-.22-.65l-.05-1.51c0-.18,0-.36.24-.36s.23.17.24.33l.05,1.48a.81.81,0,0,0,0,.31.34.34,0,0,0,.28.1h.16a.26.26,0,0,0,.15,0l.71-.45v-1.4c0-.17,0-.33.24-.33s.24.17.24.33Z" style="fill: #fff"/>
      <path d="M17.26,51.19c0,.27,0,.43.32.43h.25c.2,0,.29,0,.33-.21a.25.25,0,0,1,.24-.2.24.24,0,0,1,.25.24.72.72,0,0,1-.17.4.78.78,0,0,1-.66.25h-.25a.78.78,0,0,1-.62-.24.87.87,0,0,1-.17-.67V49.88h-.16c-.14,0-.33,0-.33-.24s.17-.24.33-.24h.16v-.49c0-.17,0-.33.24-.33s.24.17.24.33v.49h.81c.16,0,.33,0,.33.24s-.19.24-.33.24h-.81Z" style="fill: #fff"/>
    </g>
    <path d="M7.07,50.72c.21,0,.3.08.3.31s-.09.3-.3.3H5.9c-.21,0-.3-.08-.3-.3s.09-.31.3-.31Z" style="fill: #fff"/>
    <path d="M20.79,50.06a.25.25,0,0,1,.5,0v.75H22a.25.25,0,0,1,0,.5h-.74V52a.25.25,0,0,1-.5,0V51.3h-.74a.25.25,0,0,1,0-.5h.74Z" style="fill: #fff"/>
  </g>
  <g id="Connectors">
    <circle cx="20.88" cy="46.3" data-cir-type="male" id="circuitoCon_VCC" r="2.16" style="fill: none;stroke: #e8e5df;stroke-miterlimit: 10"/>
    <circle cx="13.68" cy="46.3" data-cir-type="male" id="circuitoCon_Out" r="2.16" style="fill: none;stroke: #e8e5df;stroke-miterlimit: 10"/>
    <circle cx="6.48" cy="46.3" data-cir-type="male" id="circuitoCon_GND" r="2.16" style="fill: none;stroke: #e8e5df;stroke-miterlimit: 10"/>
  </g>
</svg>