<?xml version="1.0" ?><svg height="18.35mm" viewBox="0 0 50 52.02" width="17.64mm" xmlns="http://www.w3.org/2000/svg" xmlns:xlink="http://www.w3.org/1999/xlink">
  <defs>
    <linearGradient gradientTransform="translate(50.77 51.51) rotate(180)" gradientUnits="userSpaceOnUse" id="linear-gradient" x1="9.99" x2="9.99" y1="20.02" y2="20.02">
      <stop offset="0" stop-color="#fff"/>
      <stop offset="0" stop-color="#4a4949"/>
      <stop offset="1" stop-color="#787878"/>
      <stop offset="1" stop-color="#2c2a2a"/>
      <stop offset="1"/>
    </linearGradient>
    <linearGradient gradientTransform="translate(50.77 51.51) rotate(180)" gradientUnits="userSpaceOnUse" id="linear-gradient-2" x1="10.64" x2="10.64" y1="35.57" y2="35.57">
      <stop offset="0" stop-color="#fff"/>
      <stop offset="0" stop-color="#f5f5f5"/>
      <stop offset="0" stop-color="#e7e7e7"/>
      <stop offset="0" stop-color="#c4c3c3"/>
      <stop offset="0" stop-color="#8b8a8a"/>
      <stop offset="0" stop-color="#7d7c7c"/>
      <stop offset="0.92" stop-color="#343131"/>
      <stop offset="1"/>
    </linearGradient>
  </defs>
  <title>SparkFun IMU Breakout - MPU-9250</title>
  <g data-name="Layer 1" id="Layer_1">
    <path d="M50,52V0H0V52ZM21.48,49.65a1.73,1.73,0,1,1,1.73-1.73A1.73,1.73,0,0,1,21.48,49.65Zm14.4,0a1.73,1.73,0,1,1,1.73-1.73A1.73,1.73,0,0,1,35.88,49.65Zm7.2,0a1.73,1.73,0,1,1,1.73-1.73A1.73,1.73,0,0,1,43.08,49.65ZM43.16,2.7a2,2,0,1,1-2,2A2,2,0,0,1,43.16,2.7ZM36,2.7a2,2,0,1,1-2,2A2,2,0,0,1,36,2.7Zm-7,0a2,2,0,1,1-2,2A2,2,0,0,1,29,2.7Zm-.3,43.49A1.73,1.73,0,1,1,27,47.91,1.73,1.73,0,0,1,28.68,46.18ZM21.81,2.7a2,2,0,1,1-2,2A2,2,0,0,1,21.81,2.7Zm-.12,14.38a2,2,0,1,1-2,2A2,2,0,0,1,21.69,17.07Zm0,7.12a2,2,0,1,1-2,2A2,2,0,0,1,21.69,24.2Zm0,7.27a2,2,0,1,1-2,2A2,2,0,0,1,21.69,31.46ZM8.63,4.16A4.94,4.94,0,1,1,3.69,9.09,4.94,4.94,0,0,1,8.63,4.16Zm0,34.32a4.94,4.94,0,1,1-4.94,4.94A4.94,4.94,0,0,1,8.63,38.48Z" style="fill: #cf2f27"/>
    <path d="M26.47,35.43V32.27a1,1,0,0,0,.63-1.15.89.89,0,0,0-.92-.94,1,1,0,0,0-.79.4,1,1,0,0,0-.15.75.91.91,0,0,0,.06.54.92.92,0,0,0,.46.46l0,3.1a1.46,1.46,0,0,0-.63.94,1.1,1.1,0,0,0,.81,1.23,1.21,1.21,0,0,0,.81-.29,1.19,1.19,0,0,0,.37-.6,1.53,1.53,0,0,0-.25-.89A1.48,1.48,0,0,0,26.47,35.43Z" style="fill: #8a231e"/>
    <path d="M18.61,36.68v3.68l.4.12A2.42,2.42,0,0,1,20.71,40a2.44,2.44,0,0,1,1.67,1,2.55,2.55,0,0,1-.27,2.16,2.32,2.32,0,0,1-1,.81,3.41,3.41,0,0,1-2.6-.25v1.69l1.27-.83,4,0,1.44,1.12L27.1,44V38.08l-2.48.12-.12-1.75-1.08,1.12-3.94,0Z" style="fill: #8a231e"/>
    <path d="M39.34,2.85a5.22,5.22,0,0,1,.19,2.6,5.09,5.09,0,0,1-.46,1.37l-.69.65a2.29,2.29,0,0,0,.67.67,2.33,2.33,0,0,0,1.29.37l4.37.13a2.38,2.38,0,0,0,.9,1.12,1,1,0,0,0,1.28-.26A1.08,1.08,0,0,0,47.05,9a1.06,1.06,0,0,0,0-.35,1.11,1.11,0,0,0-.79-.92l-6,0-.6-.42A9,9,0,0,0,40,5.89a9.08,9.08,0,0,0,.09-2.94Z" style="fill: #8a231e"/>
    <path d="M45.44,25.65a1.2,1.2,0,0,0,.34-.33,1.23,1.23,0,0,0,.21-.65,2.28,2.28,0,0,0-.07-1,1.38,1.38,0,0,0-.18-.3,1.4,1.4,0,0,0-.47-.38l.92-.92,1.14.6.1,2.23.46.37V22.05l-.71-.56.71-.73-.08-3-.73,1.15.1,1.67-.85.83-1.6-1.58-6.45-.13-.79,1v.17l.75,0,.31-.5,5.71.19,1.33,1-1,1.17v.4a1.07,1.07,0,0,0-.52.52,1.05,1.05,0,0,0-.08.6,1.4,1.4,0,0,0,0,1.06,1.25,1.25,0,0,0,.29.38Z" style="fill: #8a231e"/>
    <path d="M43.86,36.77h-.7l-.07-4.56-3.06,0v-1.9l1.66.05.69.8,3.31,0,0-.95.64,0-.09,2.46h-.64v-1.1h-.91l0,1h-.45v4.27Z" style="fill: #8a231e"/>
    <path d="M30.51,43.93l.09-11.78a1,1,0,0,1-.4-.4,1.23,1.23,0,0,1,.28-1.35,1.16,1.16,0,0,1,.92-.23v-.69h.41l0,1,.18.07A1,1,0,0,1,31.95,32L33.7,32l.41-.45.4.28-.51.72-2.21,0a1.8,1.8,0,0,0-.64,1.28,1.77,1.77,0,0,0,.42,1.2,1.82,1.82,0,0,0-.67,1.23,1.88,1.88,0,0,0,.67,1.54,2.71,2.71,0,0,0,2.06,0l.66-.39v1.68l3.25,3.25,1.33.09L39,43.55l9.3.17V51l-1.71-.1,0-.6.52-.48,0-3.64-.08-1.06-.46-.44-.94-.13-5.68,0-.17.79-.54,0-1.42-1.54L33.89,44l-1.71,1.64Z" style="fill: #8a231e"/>
    <path d="M29.62,45.6V32.74a1.34,1.34,0,0,0,.36-.53,1.39,1.39,0,0,0,.06-.72,1.48,1.48,0,0,0-.37-.68,1.4,1.4,0,0,0-.73-.4,1.31,1.31,0,0,0-.74.28A1.6,1.6,0,0,0,27.68,32a1.1,1.1,0,0,0,.19.44,1.06,1.06,0,0,0,.44.34l-.17,12.68" style="fill: #8a231e"/>
    <polygon points="34.82 20.62 34.82 19.62 32.53 17.63 26.64 17.69 26.64 20.08 25.62 21.3 25.62 21.91 24.04 23.34 24.53 23.74 26.16 22.07 26.12 21.45 27.13 20.48 27.09 18.2 32.45 18.25 34.27 19.88 34.28 20.62 34.82 20.62" style="fill: #8a231e"/>
    <circle cx="32.43" cy="8.51" r="1.53" style="fill: #dad4d4"/>
    <path d="M45.65,7.9H41.44l-.35-.14a.41.41,0,0,0-.32-.11.4.4,0,0,0-.22.11l-.07.12.27.28.3.61h4Z" style="fill: #dad4d4"/>
    <polygon points="46.42 7.14 46.42 2.22 47.21 2.73 47.21 4.74 46.94 5.03 46.94 5.34 47.21 5.44 47.21 6.57 46.42 7.14" style="fill: #dad4d4"/>
    <path d="M45.75,1.44l-5.11,0,.28-.53,4.43,0Z" style="fill: #dad4d4"/>
    <path d="M12.53,34" style="fill: #dad4d4"/>
    <polygon points="46.27 50.45 46.27 45.6 46.59 45.6 47.05 46.25 47.05 49.82 46.66 50.36 46.27 50.45" style="fill: #dad4d4"/>
    <polygon points="45.53 44.87 40.32 44.87 40.45 44.45 40.66 44.45 41.1 44.02 44.98 44.02 45.4 44.43 45.63 44.43 45.53 44.87" style="fill: #dad4d4"/>
    <polygon points="46.8 31.19 42.42 31.19 41.83 30.61 41.83 25.44 42.48 24.79 46.8 24.79 47.56 25.55 47.56 30.67 46.8 31.19" style="fill: none;stroke: #dad4d4;stroke-miterlimit: 10"/>
    <circle cx="32.27" cy="6.27" r="0.39" style="fill: #fff"/>
    <polygon points="30.39 51.65 32.36 49.89 34.17 51.5 37.81 51.5 39.55 49.95 39.55 45.96 37.81 44.41 34.17 44.41 32.36 46.02 30.39 44.26 26.98 44.26 25.04 45.99 23.43 44.45 20.11 44.45 18.19 46.37 18.19 49.82 19.85 51.47 23.43 51.47 25.04 49.91 26.98 51.65 30.39 51.65" style="fill: none;stroke: #edede9;stroke-miterlimit: 10;stroke-width: 0.75px"/>
    <polygon points="17.96 20.8 19.7 22.75 18.1 24.54 18.1 28.14 19.64 29.86 18.03 31.67 18.03 35.31 19.68 37.17 23.55 37.17 25.2 35.31 25.2 31.67 23.58 29.86 25.12 28.14 25.12 24.54 23.53 22.75 25.27 20.8 25.27 17.43 23.55 15.5 19.68 15.5 17.96 17.43 17.96 20.8" style="fill: none;stroke: #edede9;stroke-miterlimit: 10;stroke-width: 0.5px"/>
    <path d="M21.81,21.77a2.67,2.67,0,1,0-2.67-2.67A2.67,2.67,0,0,0,21.81,21.77Zm0-4.38a1.7,1.7,0,1,1-1.7,1.7A1.7,1.7,0,0,1,21.81,17.39Z" style="fill: #e9e5df"/>
    <path d="M21.81,7.39a2.67,2.67,0,1,0-2.67-2.67A2.67,2.67,0,0,0,21.81,7.39Zm0-4.38a1.7,1.7,0,1,1-1.7,1.7A1.7,1.7,0,0,1,21.81,3Z" style="fill: #e9e5df"/>
    <path d="M29,7.39a2.67,2.67,0,1,0-2.67-2.67A2.67,2.67,0,0,0,29,7.39ZM29,3a1.7,1.7,0,1,1-1.7,1.7A1.7,1.7,0,0,1,29,3Z" style="fill: #e9e5df"/>
    <path d="M36,7.39a2.67,2.67,0,1,0-2.67-2.67A2.67,2.67,0,0,0,36,7.39ZM36,3a1.7,1.7,0,1,1-1.7,1.7A1.7,1.7,0,0,1,36,3Z" style="fill: #e9e5df"/>
    <path d="M21.63,29A2.67,2.67,0,1,0,19,26.29,2.67,2.67,0,0,0,21.63,29Zm0-4.42a1.7,1.7,0,1,1-1.7,1.7A1.7,1.7,0,0,1,21.63,24.55Z" style="fill: #e9e5df"/>
    <path d="M21.63,36.16A2.67,2.67,0,1,0,19,33.48,2.67,2.67,0,0,0,21.63,36.16Zm0-4.38a1.7,1.7,0,1,1-1.7,1.7A1.7,1.7,0,0,1,21.63,31.78Z" style="fill: #e9e5df"/>
    <path d="M45.78,5.19H46v-.6h-.19V2.24H40.64V7.39h5.14ZM43.1,6.5a1.7,1.7,0,1,1,1.7-1.7A1.7,1.7,0,0,1,43.1,6.5Z" style="fill: #e9e5df"/>
    <path d="M17.27,51.3q.1-25.35.21-50.7" style="fill: #d6816a;stroke: #dad4d4;stroke-miterlimit: 10"/>
    <path d="M35.34,31.61V32l-1.59,1.56a1.13,1.13,0,0,0-.86-.67,1.21,1.21,0,0,0-.92.32,1.16,1.16,0,0,0-.32.6,1.17,1.17,0,0,0,.5.95,1.06,1.06,0,0,0,.67.14.85.85,0,0,0,.71-.19.82.82,0,0,0,.26-.54l2.12-1.82-.06-.73Z" style="fill: #8a231e"/>
    <path d="M37,31.61h-.73v1l-1.64,1.58v1.9H33.49a1.21,1.21,0,0,0-.31-.41,1.24,1.24,0,0,0-.72-.28,1.43,1.43,0,0,0-.87.51,1.39,1.39,0,0,0-.28.69,1.35,1.35,0,0,0,.46.73,1.32,1.32,0,0,0,.58.27,1.57,1.57,0,0,0,1.23-.77h1.08l0,1.78,3.16,3.19h1.5v-.71l-1.36,0-2.66-2.77V34.52L37,32.88Z" style="fill: #8a231e"/>
    <path d="M37.5,31.61v1.55L36,34.56l.1,1.69,1.44,1.3a.66.66,0,0,0-.45.32.67.67,0,0,0,0,.6,1.14,1.14,0,0,0,1.12.73,1.36,1.36,0,0,0,.51-.21,1.47,1.47,0,0,0,.59-.87v-.46a5.82,5.82,0,0,1-.82-.35,6,6,0,0,1-1.77-1.4l-.05-1,1.64-1.54-.06-1.76Z" style="fill: #8a231e"/>
    <path d="M39.33,31.67h-.61v2.46a1.45,1.45,0,0,0-1.08.14,1.36,1.36,0,0,0-.44.43,1.23,1.23,0,0,0,.27,1.39,1.44,1.44,0,0,0,1.33-.17,1.38,1.38,0,0,0,.09-1.23l.45,0Z" style="fill: #8a231e"/>
    <path d="M40.53,22.25h.91a1.29,1.29,0,0,0,.8.65,1.11,1.11,0,0,0,.52-.21,1.13,1.13,0,0,0,.4-.6,1.25,1.25,0,0,0-.43-.83,1.05,1.05,0,0,0-.67-.27.73.73,0,0,0-.47.14.7.7,0,0,0-.24.39l-1.88-.07V22l1.06,0Z" style="fill: #8a231e"/>
    <path d="M37.13,20.92v-.68l1.19-1.06h4.61l.81-.81.07-1.32h-.56l-.08,1.19-.63.54L38,18.67l-1.44,1.55v.71Z" style="fill: #8a231e"/>
    <path d="M35.93,20.92h-.56V18.44l.62,0Z" style="fill: #8a231e"/>
    <path d="M32.8,21.13a1.37,1.37,0,0,0-.23-1.06,1.49,1.49,0,0,0-1.32-.13.79.79,0,0,0-.46.4.77.77,0,0,0-.05.51.89.89,0,0,0,.15.56.87.87,0,0,0,.31.27l.68.24h.92Z" style="fill: #8a231e"/>
    <path d="M28.2,21.4h-.68v-.89a1.55,1.55,0,0,1-.18-.26,1.57,1.57,0,0,1-.18-.53,1,1,0,0,1,.26-.67,1,1,0,0,1,.72-.31,1,1,0,0,1,.55.23,1,1,0,0,1,.33.69,1.1,1.1,0,0,1-.13.58,1.15,1.15,0,0,1-.68.54Z" style="fill: #8a231e"/>
    <path d="M26.25,11a1.13,1.13,0,0,0-1,1.42A1.05,1.05,0,0,0,26,13l.08,2.12.58.27a1,1,0,0,0-.17.5,1,1,0,0,0,.17.62,1.61,1.61,0,0,0,1.19.42,1.21,1.21,0,0,0,.46-.28A1.23,1.23,0,0,0,28.7,16a1.36,1.36,0,0,0-1.06-1.25,2.15,2.15,0,0,0-.38.1L27,15l-.48-.23.06-1.9a.76.76,0,0,0,.67-.77,1.1,1.1,0,0,0-.17-.67A1.14,1.14,0,0,0,26.25,11Z" style="fill: #8a231e"/>
    <path d="M23.41,12.36" style="fill: #8a231e"/>
    <path d="M23.45,6.76l.61-.4,7.33,7.25V15a1,1,0,0,1,.58.28,1,1,0,0,1,.25.86,1.26,1.26,0,0,1-.39.54A1.28,1.28,0,0,1,31,17a1.63,1.63,0,0,1-1.06-1,.75.75,0,0,1,.1-.63.71.71,0,0,1,.38-.26l-.06-1.42Z" style="fill: #8a231e"/>
    <path d="M34,12.8l-.71.42.1,1,.46.52-.33.17a7.34,7.34,0,0,0-.08,2.35l-.89-.46a1.44,1.44,0,0,0,.25-1.37,3.53,3.53,0,0,0-.63-.94v-.85L27.57,8.69l2.61,0a3.43,3.43,0,0,0,1.27,1.46l1.89.63,0,.79.5.14Z" style="fill: #8a231e"/>
    <path d="M30,9.57" style="fill: #8a231e"/>
    <path d="M47.88,13.13l-.71-.69.1-6.29-.33-.81V5.18a.6.6,0,0,1,.94.37Z" style="fill: #8a231e"/>
    <polygon points="46.03 13.3 46.17 10.8 44.57 9.01 39.15 9.01 37.47 7.31 36.53 7.31 38.88 9.57 44.07 9.68 45.44 10.95 45.4 13.39 46.03 13.3" style="fill: #8a231e"/>
    <path d="M40.24,15.65l-.81.17V17.7H37.63V15.38l-.42-.46.65-.85s.12-1.15.12-1.14a3.6,3.6,0,0,1-.35-.23l-.13-2.14-.56-.69h-.48l-.17.54L35,10.49l-.63-.61L35,8.51l2.23.13,1,1.23.77.48h4.81l1.06,1.46-.73.6H39.47V15l.77,0Z" style="fill: #8a231e"/>
    <path d="M30.18,8.64l-2.61,0c-.33-.44-.71-.9-1.14-1.37a18.41,18.41,0,0,0-1.48-1.44,3.7,3.7,0,0,0,.19-1.64,3.8,3.8,0,0,0-1-2.19l1.08,1.09L26.76,1.5a4.59,4.59,0,0,0-1.12,2.21,4.46,4.46,0,0,0,0,1.44,6,6,0,0,0,4.58,3.49Z" style="fill: #8a231e"/>
    <path d="M44,39l-.82,0v4.64l.74-.08Z" style="fill: #8a231e"/>
    <path d="M39.93,6.93l-.41-.41L37.45,8.31l-2.76-.09" style="fill: none;stroke: #dad4d4;stroke-linecap: round;stroke-miterlimit: 10"/>
    <path d="M39.81,2.84,38,1.19H33.85L32.29,2.84,30.72,1.19H26.64L25.2,2.72,23.68,1.19l-4.16-.11L18.17,2.59V6.52l1.72,1.76,3.47-.06,1.57-1.7L26.8,8.31l3.55,0" style="fill: none;stroke: #dad4d4;stroke-linecap: round;stroke-miterlimit: 10"/>
    <rect height="6.52" style="fill: #5d362f" transform="translate(62.96 52.51) rotate(180)" width="1.1" x="30.93" y="23"/>
    <rect height="8.45" style="fill: #3e343a" transform="translate(72.2 52.55) rotate(180)" width="8.29" x="31.96" y="22.05"/>
    <rect height="6.52" style="fill: #5d362f" transform="translate(81.73 52.51) rotate(180)" width="1.24" x="40.24" y="23"/>
    <rect height="6.52" style="fill: #5d362f" transform="translate(67.15 -5.19) rotate(90)" width="0.96" x="35.69" y="27.72"/>
    <rect height="6.52" style="fill: #5d362f" transform="translate(57.77 -14.57) rotate(90)" width="0.96" x="35.69" y="18.34"/>
    <circle cx="38.89" cy="28.98" r="0.44" style="fill: #cfb298"/>
    <path d="M40.24,28.88h1.53a.53.53,0,0,1,.12.3.54.54,0,0,1-.12.36H40.24Z" style="fill: #fff"/>
    <path d="M30.43,28.88H32v.67H30.43a.69.69,0,0,1-.09-.38A.68.68,0,0,1,30.43,28.88Z" style="fill: #fff"/>
    <path d="M40.24,27.7h1.21a.7.7,0,0,1,0,.64H40.24Z" style="fill: #fff"/>
    <path d="M30.75,27.74H32v.64H30.75a.62.62,0,0,1,0-.64Z" style="fill: #fff"/>
    <path d="M40.24,26.57h1.21a.65.65,0,0,1,0,.64H40.24Z" style="fill: #fff"/>
    <path d="M30.75,26.57H32v.64H30.75a.45.45,0,0,1-.14-.28A.46.46,0,0,1,30.75,26.57Z" style="fill: #fff"/>
    <path d="M40.24,25.38h1.21a.54.54,0,0,1,0,.64H40.24Z" style="fill: #fff"/>
    <path d="M30.75,25.43H32v.64H30.75a.57.57,0,0,1,0-.64Z" style="fill: #fff"/>
    <path d="M40.24,23.09h1.21a.49.49,0,0,1,0,.64H40.24Z" style="fill: #fff"/>
    <path d="M30.75,23.09H32v.64H30.75a.46.46,0,0,1,0-.64Z" style="fill: #fff"/>
    <path d="M40.24,24.27h1.21a.49.49,0,0,1,0,.64H40.24Z" style="fill: #fff"/>
    <path d="M30.75,24.21H32v.64H30.75a.49.49,0,0,1,0-.64Z" style="fill: #fff"/>
    <path d="M36.38,20.91a.51.51,0,0,1,.31-.14.52.52,0,0,1,.38.14v1.17h-.69Z" style="fill: #fff"/>
    <path d="M35.28,20.91a.58.58,0,0,1,.4-.12.56.56,0,0,1,.29.12v1.17h-.69Z" style="fill: #fff"/>
    <path d="M34.14,20.91a.65.65,0,0,1,.44-.1.62.62,0,0,1,.25.1v1.17h-.69Z" style="fill: #fff"/>
    <path d="M37.5,20.91a.71.71,0,0,1,.69,0v1.17H37.5Z" style="fill: #fff"/>
    <path d="M37.5,30.51h.69v1.17a.88.88,0,0,1-.69,0Z" style="fill: #fff"/>
    <path d="M36.39,30.51h.69v1.17a.79.79,0,0,1-.69,0Z" style="fill: #fff"/>
    <path d="M35.23,30.51h.69v1.17a.88.88,0,0,1-.69,0Z" style="fill: #fff"/>
    <path d="M34.06,30.51h.69v1.17a.6.6,0,0,1-.69,0Z" style="fill: #fff"/>
    <path d="M38.64,30.51h.69v1.17a.65.65,0,0,1-.69,0Z" style="fill: #fff"/>
    <path d="M38.65,21.17a1.49,1.49,0,0,1,.82,0v.91h-.82Z" style="fill: #fff"/>
    <path d="M32.83,21.17a.71.71,0,0,1,.48-.13.69.69,0,0,1,.34.13v.91h-.82Z" style="fill: #fff"/>
    <path d="M32.83,30.51h.82v.91a1,1,0,0,1-.82,0Z" style="fill: #fff"/>
    <path d="M40.85,24.15" style="fill: #fff"/>
    <path d="M28.25,27.32" style="fill: #fff"/>
    <polygon points="47.73 43.13 47.73 39.84 47.48 39.59 47.76 39.31 47.76 36.3 47.43 35.97 47.7 35.7 47.7 32.69 44.22 32.56 44.22 35.74 44.5 36 44.22 36.25 44.22 39.44 44.48 39.69 44.22 39.95 44.22 43.13 47.73 43.13" style="fill: #936355"/>
    <path d="M44.94,13.66a1.45,1.45,0,0,1,1.65,0v3.55H44.94Z" style="fill: #cbc4c7"/>
    <path d="M44.4,17.42v-4H40.09v4ZM40.24,15h.25V13.53h.43l0,0,3.08,0,0,0,.16,3.55H40.49V15.68h-.25Z" style="fill: none"/>
    <path d="M40.49,15.68l.31,1.39,1,0,.63-1.33.77,1.33L44,17l0-3.51,0,0h0l-1.54,1.6-1.59-1.58h0l0,0-.34.15L40.49,15h-.25v.7Z" style="fill: #958883"/>
    <path d="M44,13.55l-3.08,0L42.5,15.1Zm-1,.14a.23.23,0,1,1-.23.23A.23.23,0,0,1,43.08,13.69Zm-.9.45a.23.23,0,1,1,.23-.23A.23.23,0,0,1,42.18,14.14Z" style="fill: #7a6356"/>
    <path d="M42.51,15.14l1.54-1.6h0L42.5,15.1,41,13.57h0Z" style="fill: #7a6356"/>
    <path d="M41.83,17.08h1.4l-.77-1.33Zm.41,0a.18.18,0,1,1,.18-.18A.18.18,0,0,1,42.23,17Zm.47-.36a.18.18,0,1,1-.18.18A.18.18,0,0,1,42.71,16.68Z" style="fill: #7a6356"/>
    <circle cx="43.08" cy="13.92" r="0.23"/>
    <circle cx="42.18" cy="13.92" r="0.23"/>
    <circle cx="42.71" cy="16.86" r="0.18"/>
    <circle cx="42.23" cy="16.86" r="0.18"/>
    <path d="M47,29,45.94,27.7l.87-.17.06-1.39-4.27,0,.48,1.58.71-.31.27.63-.83,1.08-.15-.42-.4.31.46,1.19c.43,0,.88-.06,1.36-.06.68,0,1.32,0,1.91.06Z" style="fill: #b2aea8"/>
    <path d="M40.65,15.63" style="fill: none"/>
    <path d="M46.81,27.55,47,29.1l-1.05-1.4Z" style="fill: #9f7462"/>
    <polygon points="42.69 28.98 43.09 27.7 43.8 27.38 44.07 28.02 43.24 29.1 43.09 28.67 42.69 28.98" style="fill: #9f7462"/>
    <circle cx="43.38" cy="28.32" r="0.18"/>
    <path d="M40.78,31.49" style="fill: url(#linear-gradient)"/>
    <path d="M40.13,15.95" style="fill: url(#linear-gradient-2)"/>
    <g>
      <rect height="1.74" rx="0.42" ry="0.42" style="fill: #e5e4e6" transform="translate(55.36 46.74) rotate(180)" width="2.92" x="26.22" y="22.5"/>
      <rect height="2.12" rx="0.73" ry="0.73" style="fill: #fcfbf1" transform="translate(55.36 56.45) rotate(180)" width="2.87" x="26.24" y="27.17"/>
      <rect height="3.54" rx="0.87" ry="0.87" style="fill: #916145" transform="translate(55.45 52.43) rotate(-180)" width="2.3" x="26.58" y="24.45"/>
      <path d="M26.4,24.77q-.15-.66.77-.65l1.52,0c.4.17.53.38.16.7a5.6,5.6,0,0,1-2,.17A.47.47,0,0,1,26.4,24.77Z" style="fill: #767376"/>
      <path d="M26.4,27.82q-.15-.66.77-.65l1.52,0c.4.17.53.38.16.7a5.6,5.6,0,0,1-2,.17A.47.47,0,0,1,26.4,27.82Z" style="fill: #767376"/>
    </g>
    <g>
      <rect height="1.94" rx="0.42" ry="0.42" style="fill: #e5e4e6" transform="translate(71.15 23.33) rotate(180)" width="3.26" x="33.94" y="10.7"/>
      <rect height="2.37" rx="0.73" ry="0.73" style="fill: #fcfbf1" transform="translate(71.15 34.2) rotate(180)" width="3.21" x="33.97" y="15.92"/>
      <rect height="3.95" rx="0.92" ry="0.92" style="fill: #916145" transform="translate(71.25 29.7) rotate(180)" width="2.57" x="34.34" y="12.87"/>
      <path d="M34.14,13.24q-.17-.73.87-.73l1.7.05c.44.18.59.43.18.79a6.26,6.26,0,0,1-2.19.19A.53.53,0,0,1,34.14,13.24Z" style="fill: #767376"/>
      <path d="M34.14,16.64q-.17-.74.87-.73l1.7.05c.44.19.59.43.18.79a6.26,6.26,0,0,1-2.19.19A.53.53,0,0,1,34.14,16.64Z" style="fill: #767376"/>
    </g>
    <g>
      <rect height="1.74" rx="0.42" ry="0.42" style="fill: #e5e4e6" transform="translate(75.17 -6.54) rotate(90)" width="2.92" x="39.4" y="33.45"/>
      <rect height="2.12" rx="0.73" ry="0.73" style="fill: #fcfbf1" transform="translate(80.03 -11.4) rotate(90)" width="2.87" x="44.28" y="33.26"/>
      <rect height="3.54" rx="0.87" ry="0.87" style="fill: #916145" transform="translate(77.97 -9.43) rotate(90)" width="2.3" x="42.55" y="32.5"/>
      <path d="M42.26,35.59q-.66.15-.65-.77l0-1.52c.17-.4.38-.53.7-.16a5.6,5.6,0,0,1,.17,2A.47.47,0,0,1,42.26,35.59Z" style="fill: #767376"/>
      <path d="M45.31,35.59q-.66.15-.65-.77l0-1.52c.17-.4.38-.53.7-.16a5.6,5.6,0,0,1,.17,2A.47.47,0,0,1,45.31,35.59Z" style="fill: #767376"/>
    </g>
    <g>
      <rect height="1.74" rx="0.42" ry="0.42" style="fill: #e5e4e6" transform="translate(78.81 -2.89) rotate(90)" width="2.92" x="39.4" y="37.09"/>
      <rect height="2.12" rx="0.73" ry="0.73" style="fill: #fcfbf1" transform="translate(83.67 -7.75) rotate(90)" width="2.87" x="44.28" y="36.9"/>
      <rect height="3.54" rx="0.87" ry="0.87" style="fill: #916145" transform="translate(81.62 -5.79) rotate(90)" width="2.3" x="42.55" y="36.15"/>
      <path d="M42.26,39.24q-.66.15-.65-.77l0-1.52c.17-.4.38-.53.7-.16a5.6,5.6,0,0,1,.17,2A.47.47,0,0,1,42.26,39.24Z" style="fill: #767376"/>
      <path d="M45.31,39.24q-.66.15-.65-.77l0-1.52c.17-.4.38-.53.7-.16a5.6,5.6,0,0,1,.17,2A.47.47,0,0,1,45.31,39.24Z" style="fill: #767376"/>
    </g>
    <g>
      <rect height="1.74" rx="0.42" ry="0.42" style="fill: #e5e4e6" transform="translate(82.51 0.8) rotate(90)" width="2.92" x="39.4" y="40.78"/>
      <rect height="2.12" rx="0.73" ry="0.73" style="fill: #fcfbf1" transform="translate(87.37 -4.06) rotate(90)" width="2.87" x="44.28" y="40.6"/>
      <rect height="3.54" rx="0.87" ry="0.87" style="fill: #916145" transform="translate(85.31 -2.1) rotate(90)" width="2.3" x="42.55" y="39.84"/>
      <path d="M42.26,42.93q-.66.15-.65-.77l0-1.52c.17-.4.38-.53.7-.16a5.6,5.6,0,0,1,.17,2A.47.47,0,0,1,42.26,42.93Z" style="fill: #767376"/>
      <path d="M45.31,42.93q-.66.15-.65-.77l0-1.52c.17-.4.38-.53.7-.16a5.6,5.6,0,0,1,.17,2A.47.47,0,0,1,45.31,42.93Z" style="fill: #767376"/>
    </g>
    <rect height="2.03" style="fill: #382d2e" transform="translate(87.21 83.31) rotate(180)" width="2.46" x="42.37" y="40.64"/>
    <rect height="2.03" style="fill: #382d2e" transform="translate(87.21 75.92) rotate(180)" width="2.46" x="42.37" y="36.95"/>
    <rect height="2.03" style="fill: #382d2e" transform="translate(87.21 68.48) rotate(180)" width="2.46" x="42.37" y="33.23"/>
    <circle cx="32.49" cy="36.45" r="0.42"/>
    <circle cx="32.83" cy="33.9" r="0.42"/>
    <circle cx="31.28" cy="31.33" r="0.42"/>
    <circle cx="31.72" cy="20.82" r="0.42"/>
    <circle cx="42.18" cy="21.97" r="0.42"/>
    <circle cx="44.94" cy="24.02" r="0.42"/>
    <circle cx="28.16" cy="19.65" r="0.42"/>
    <circle cx="27.75" cy="15.82" r="0.42"/>
    <circle cx="26.3" cy="11.95" r="0.42"/>
    <circle cx="32.01" cy="11.11" r="0.42"/>
    <circle cx="40.97" cy="11.73" r="0.42"/>
    <circle cx="46.01" cy="8.63" r="0.42"/>
    <circle cx="31.11" cy="15.82" r="0.42"/>
    <circle cx="28.97" cy="31.79" r="0.42"/>
    <circle cx="26.17" cy="31.37" r="0.42"/>
    <circle cx="26.17" cy="36.45" r="0.42"/>
    <circle cx="32.49" cy="44.45" r="0.42"/>
    <circle cx="25.33" cy="44.34" r="0.42"/>
    <polygon points="27.82 9.02 26.86 9.02 26.92 12.48 26.05 12.55 26.05 13.15 27.13 14.06 27.51 14.06 28.45 13.07 28.45 12.64 27.74 12.59 27.82 9.02" style="fill: #edd5d8"/>
    <polygon points="29.5 15.46 29.5 14.5 26.04 14.56 25.97 13.69 25.37 13.69 24.46 14.77 24.46 15.15 25.45 16.09 25.88 16.09 25.93 15.38 29.5 15.46" style="fill: #edd5d8"/>
    <path d="M13.27,20.72a.71.71,0,0,1-.53.15.68.68,0,0,1-.35-.15,3,3,0,0,0-1-1.83,2.87,2.87,0,0,0-1.24-.58,3,3,0,0,0-2.2.6,1.14,1.14,0,0,1,.31.73l-1.17.57-.54-1.63h.94a3,3,0,0,1,1.9-1.27C10.87,17.1,12.65,18.43,13.27,20.72Z" style="fill: #edd5d8"/>
    <path d="M8.78,26.29h.44l.05-.71H9.9s0,.1,0,.15a2.12,2.12,0,0,0,2.25,1.39l.25-.46a2,2,0,0,0-.58-.48c-.35-.19-.55-.15-.81-.38a1.19,1.19,0,0,1-.17-.18l1.95,0v-1l-2,0a1.44,1.44,0,0,1,.28-.36l.44.14.39,0,.58-1.12-1.08-.87H10.8v.75a2.11,2.11,0,0,0-1,1.51H9.37l-.06-.87h-.6L7.79,25v.38Z" style="fill: #edd5d8"/>
    <path d="M1.65,26.13a2.55,2.55,0,0,0,1.44,1v.41l-.87.06v.6l1.08.91h.38l.94-1v-.44l-.71-.05v-.46A2.06,2.06,0,0,0,4.46,27a2.45,2.45,0,0,0,1.33-1.73.5.5,0,1,0-.9-.44,1.49,1.49,0,0,1-.94,1.28L4,24H3l0,2.12a1.74,1.74,0,0,1-.65-.35l.25-.6-1-.73L1,25.92Z" style="fill: #edd5d8"/>
    <path d="M0,32.43" style="fill: #edd5d8"/>
    <g>
      <path d="M37.35,43.5H37v-2c0-.09,0-.14.14-.14a.12.12,0,0,1,.14.14v1.64h0l.26-.39v0c0-.09,0-.17.14-.17s.14.08.14.17v0l.26.39h0V41.48a.14.14,0,1,1,.28,0v2H38L37.69,43Z" style="fill: #edd5d8"/>
      <path d="M36,41.48a.12.12,0,0,1,.14-.14c.1,0,.14,0,.14.14v2H35.4a.41.41,0,0,1-.32-.11A.42.42,0,0,1,35,43v-.38a.46.46,0,0,1,.11-.36.43.43,0,0,1,.37-.13H36Zm0,1h-.62c-.16,0-.2,0-.2.2V43c0,.16,0,.2.2.2H36Z" style="fill: #edd5d8"/>
      <path d="M33.77,41.34a.42.42,0,0,1,.34.14.44.44,0,0,1,.11.33v1.55a.14.14,0,0,1-.28,0V41.82c0-.16,0-.19-.17-.19H33.3c-.12,0-.17,0-.17.19v1.55a.14.14,0,0,1-.28,0V41.82a.44.44,0,0,1,.11-.33.42.42,0,0,1,.34-.14Z" style="fill: #edd5d8"/>
      <path d="M30.82,42.59c-.11,0-.17,0-.17-.17s.05-.17.17-.17h.65c.11,0,.17,0,.17.17s-.05.17-.17.17Z" style="fill: #edd5d8"/>
      <path d="M29.08,42.52h1a.14.14,0,0,1,.14.14v.71a.14.14,0,0,1-.14.14H28.94a.14.14,0,0,1-.14-.14V41.48a.14.14,0,0,1,.14-.14h.14a.14.14,0,0,1,.14.14.13.13,0,0,1-.14.14Zm0,.28v.43h.82v-.43Z" style="fill: #edd5d8"/>
      <path d="M27.74,41.62h-1a.14.14,0,0,1,0-.28H28v.9a.28.28,0,0,1-.31.31h-.78v.66h1a.14.14,0,1,1,0,.28H27a.29.29,0,0,1-.31-.33v-.57a.29.29,0,0,1,.31-.32h.78Z" style="fill: #edd5d8"/>
      <path d="M25.24,42.56h-.51a.28.28,0,0,1-.22-.08.27.27,0,0,1-.09-.24v-.59a.3.3,0,0,1,.07-.22.27.27,0,0,1,.24-.09h.62a.42.42,0,0,1,.18,0l.11,0c.08,0,.16.06.16.16a.14.14,0,0,1-.13.14l-.09,0-.08,0a.48.48,0,0,0-.15-.06H24.7v.66h.82V43.5h-1a.14.14,0,1,1,0-.28h.68Z" style="fill: #edd5d8"/>
      <path d="M22.87,43.5a.28.28,0,0,1-.28-.28V41.62a.27.27,0,0,1,.28-.28h.82a.27.27,0,0,1,.28.28v1.61a.28.28,0,0,1-.28.28Zm0-1.88v1.61h.82V41.62Z" style="fill: #edd5d8"/>
    </g>
    <g>
      <path d="M38.21,40h-.78c-.41,0-.59-.25-.59-.64a.54.54,0,0,1,.18-.44.6.6,0,0,1-.18-.5.55.55,0,0,1,.59-.58h.78Zm-.28-1.88h-.5c-.2,0-.32.09-.32.3s.06.36.32.36h.5Zm0,.94h-.5c-.2,0-.32.09-.32.3s.06.36.32.36h.5Z" style="fill: #edd5d8"/>
      <path d="M35.94,38a.14.14,0,1,1,.28,0v2h-.93a.42.42,0,0,1-.44-.4v-.19a.4.4,0,0,1,.44-.39h.26l-.62-.89a.27.27,0,0,1-.07-.15.13.13,0,0,1,.14-.13.15.15,0,0,1,.12.08L35.87,39h.06Zm0,1.31h-.62c-.08,0-.2,0-.2.12v.19c0,.11.12.13.2.13h.62Z" style="fill: #edd5d8"/>
      <path d="M33,38.14a.14.14,0,0,1,0-.28h1.23V40H33a.14.14,0,0,1,0-.28h1v-.66h-.41a.14.14,0,0,1,0-.28h.41v-.66Z" style="fill: #edd5d8"/>
      <path d="M31.29,39.89c0,.07-.05.14-.14.14S31,40,31,39.89L30.47,38c0-.07.06-.14.13-.14a.17.17,0,0,1,.15.14l.1.33h.59l.11-.33a.17.17,0,0,1,.15-.14c.08,0,.15.07.13.14Zm-.14-.52h0l.22-.75h-.44Z" style="fill: #edd5d8"/>
      <path d="M29.84,39.89a.14.14,0,0,1-.28,0v-.64l-.85.72a.19.19,0,0,1-.11.06.14.14,0,0,1-.13-.14.17.17,0,0,1,.06-.12l1-.82-1-.82a.16.16,0,0,1-.07-.12.14.14,0,0,1,.13-.14c.06,0,.11,0,.15.08l.81.7V38a.14.14,0,1,1,.28,0Z" style="fill: #edd5d8"/>
      <path d="M26.33,39.25a.63.63,0,0,1-.07-.31.68.68,0,0,1,.09-.33l.26-.51a.36.36,0,0,1,.68,0l.26.51a.68.68,0,0,1,.09.33.64.64,0,0,1-.07.31l-.28.55a.36.36,0,0,1-.67,0Zm.52.42s0,.08.09.08.07,0,.09-.08l.25-.5a.43.43,0,0,0,.06-.22.38.38,0,0,0,0-.18L27,38.23s0-.08-.09-.08-.08,0-.09.08l-.27.53a.38.38,0,0,0,0,.18.43.43,0,0,0,.06.22Z" style="fill: #edd5d8"/>
      <path d="M25.18,37.87a.42.42,0,0,1,.34.14.44.44,0,0,1,.11.33v1.55a.14.14,0,0,1-.28,0V38.34c0-.16,0-.2-.17-.2h-.47c-.12,0-.17,0-.17.2v1.55a.14.14,0,0,1-.28,0V38.34a.44.44,0,0,1,.11-.33.42.42,0,0,1,.34-.14Z" style="fill: #edd5d8"/>
      <path d="M23.14,39.75v-.1a.14.14,0,1,1,.28,0V40H22v-.38a.14.14,0,1,1,.28,0v.1h.27V38a.14.14,0,0,1,.28,0v1.74Z" style="fill: #edd5d8"/>
    </g>
    <g>
      <path d="M46.72,21.91a.36.36,0,0,1-.1-.23.31.31,0,0,1,.35-.31h.61a.41.41,0,0,1,.28.09.35.35,0,0,1,.13.26.15.15,0,0,1-.15.17.13.13,0,0,1-.13-.14c0-.08,0-.09-.12-.09H47s-.09,0-.09,0,0,.06,0,.08l1,1.22a.33.33,0,0,1,.09.23.31.31,0,0,1-.15.27.37.37,0,0,1-.23.05H47a.4.4,0,0,1-.28-.09.38.38,0,0,1-.13-.26c0-.09,0-.16.14-.16a.12.12,0,0,1,.13.13c0,.09,0,.11.13.11h.59s.1,0,.1,0,0-.06,0-.07Z" style="fill: #edd5d8"/>
      <path d="M45.15,21.84a.47.47,0,0,1,.05-.27.42.42,0,0,1,.41-.21h.16a.44.44,0,0,1,.39.16.42.42,0,0,1,.09.28v.4a.14.14,0,0,1-.28,0v-.36c0-.16,0-.21-.2-.21h-.15c-.12,0-.19,0-.19.15v1.59a.14.14,0,1,1-.28,0Z" style="fill: #edd5d8"/>
      <path d="M43.63,21.65v.56a.14.14,0,0,1-.28,0v-.7a.13.13,0,0,1,.14-.14h1.09a.14.14,0,0,1,0,.28h-.41v1.6h.41a.14.14,0,0,1,0,.28H43.9V21.65Z" style="fill: #edd5d8"/>
    </g>
    <g>
      <path d="M40.87,10.41a.36.36,0,0,1-.1-.23.31.31,0,0,1,.35-.31h.61A.41.41,0,0,1,42,10a.35.35,0,0,1,.13.26.15.15,0,0,1-.15.17.13.13,0,0,1-.13-.14c0-.08,0-.09-.12-.09h-.6s-.09,0-.09,0,0,.06,0,.08l1,1.22a.33.33,0,0,1,.09.23A.31.31,0,0,1,42,12a.37.37,0,0,1-.23,0h-.59a.39.39,0,0,1-.27-.09.38.38,0,0,1-.13-.26.14.14,0,0,1,.14-.16.12.12,0,0,1,.13.13c0,.09,0,.11.13.11h.59s.09,0,.09,0,0-.06,0-.08Z" style="fill: #edd5d8"/>
      <path d="M39.3,10.34a.47.47,0,0,1,.05-.27.42.42,0,0,1,.41-.21h.16a.43.43,0,0,1,.39.16.41.41,0,0,1,.09.28v.4a.14.14,0,1,1-.28,0v-.36c0-.16,0-.21-.2-.21h-.15c-.12,0-.19,0-.19.15v1.59a.14.14,0,1,1-.28,0Z" style="fill: #edd5d8"/>
      <path d="M38.59,10.14h-1a.14.14,0,0,1,0-.28h1.23v.91a.28.28,0,0,1-.31.31h-.78v.66h1a.14.14,0,1,1,0,.28h-.92a.29.29,0,0,1-.31-.32v-.57a.29.29,0,0,1,.31-.33h.78Z" style="fill: #edd5d8"/>
    </g>
    <path d="M29.23,10.86,29.88,12a.23.23,0,0,1,0,.13.18.18,0,0,1-.18.17c-.12,0-.16-.09-.21-.18L29,11.24l-.52.88c-.05.09-.09.18-.21.18a.18.18,0,0,1-.18-.17.24.24,0,0,1,0-.13l.66-1.13-.66-1.13a.24.24,0,0,1,0-.13.18.18,0,0,1,.18-.17c.12,0,.16.09.21.18l.52.88.52-.88c.05-.09.09-.18.21-.18a.18.18,0,0,1,.18.17.23.23,0,0,1,0,.13Z" style="fill: #edd5d8"/>
    <path d="M30.69,13.77a.18.18,0,0,1,.37,0v1.18l.73.95v.38a.18.18,0,1,1-.37,0V16l-.54-.71-.54.71v.25a.18.18,0,0,1-.37,0v-.38l.73-.95Z" style="fill: #edd5d8"/>
    <path d="M23.81,11.26,25.13,9H24a.18.18,0,1,1,0-.37h1.64v.23l-1.32,2.27h1.14a.18.18,0,0,1,0,.37H23.81Z" style="fill: #edd5d8"/>
    <g>
      <path d="M30.41,19.41h-.35v-2a.14.14,0,1,1,.28,0V19h0l.26-.39v0c0-.09,0-.17.14-.17s.14.08.14.17v0l.26.39h0V17.39a.14.14,0,1,1,.28,0v2h-.35l-.34-.49Z" style="fill: #edd5d8"/>
      <path d="M28.89,19.27c0,.08-.05.14-.14.14s-.12-.07-.14-.14l-.54-1.88c0-.07.05-.14.13-.14a.17.17,0,0,1,.15.14l.1.33H29l.11-.33a.17.17,0,0,1,.15-.14c.08,0,.15.07.13.14Zm-.14-.52h0L29,18h-.44Z" style="fill: #edd5d8"/>
      <path d="M26.61,18a.14.14,0,0,1,0,.28h-.55v-.55a.41.41,0,0,1,.44-.44H27a.42.42,0,0,1,.32.11.4.4,0,0,1,.13.34v.69a.57.57,0,0,1-.14.41l-.33.42a.42.42,0,0,1-.39.19h-.37a.14.14,0,1,1,0-.28h.33c.15,0,.14,0,.23-.11l.3-.39a.52.52,0,0,0,.09-.36v-.54c0-.15,0-.2-.19-.2h-.44c-.1,0-.18,0-.18.14V18Z" style="fill: #edd5d8"/>
    </g>
    <g>
      <path d="M14.85,34.35c0,.07-.05.14-.14.14s-.12-.07-.14-.14L14,32.46c0-.07.05-.14.13-.14a.17.17,0,0,1,.15.14l.1.33H15l.11-.33a.16.16,0,0,1,.15-.14c.08,0,.15.07.13.14Zm-.14-.52h0l.22-.75h-.44Z" style="fill: #edd5d8"/>
      <path d="M12.65,32.33a.42.42,0,0,1,.42.26l.26.52a.63.63,0,0,1,.08.29.61.61,0,0,1-.08.31l-.26.51a.42.42,0,0,1-.43.27h-.47a.13.13,0,0,1-.14-.14.13.13,0,0,1,.14-.14h.46c.12,0,.14,0,.19-.12l.24-.48a.43.43,0,0,0,.06-.21.39.39,0,0,0-.06-.19l-.24-.48c-.06-.11-.08-.12-.21-.12h-.45a.13.13,0,0,1-.14-.14.13.13,0,0,1,.14-.14Z" style="fill: #edd5d8"/>
      <path d="M10.66,32.33a.42.42,0,0,1,.42.26l.26.52a.63.63,0,0,1,.08.29.61.61,0,0,1-.08.31l-.26.51a.42.42,0,0,1-.43.27h-.47a.13.13,0,0,1-.14-.14.13.13,0,0,1,.14-.14h.46c.12,0,.14,0,.19-.12l.24-.48a.43.43,0,0,0,.06-.21.39.39,0,0,0-.06-.19l-.24-.48c-.06-.11-.08-.12-.21-.12h-.45a.13.13,0,0,1-.14-.14.13.13,0,0,1,.14-.14Z" style="fill: #edd5d8"/>
      <path d="M8.18,32.6a.14.14,0,1,1,0-.28H9.41v2.16H8.18a.14.14,0,1,1,0-.28h1v-.66H8.72a.14.14,0,1,1,0-.28h.41V32.6Z" style="fill: #edd5d8"/>
      <path d="M6.18,32.6a.14.14,0,1,1,0-.28H7.41v2a.14.14,0,0,1-.28,0V32.6Z" style="fill: #edd5d8"/>
    </g>
    <g>
      <path d="M12.36,29.42a.14.14,0,1,1,0,.28h-.59v-.55a.43.43,0,0,1,.48-.44h.51a.48.48,0,0,1,.34.11.39.39,0,0,1,.14.34v.69a.55.55,0,0,1-.16.41l-.35.42a.47.47,0,0,1-.42.19h-.4a.14.14,0,1,1,0-.28h.36c.16,0,.15,0,.25-.11l.33-.39a.5.5,0,0,0,.09-.36V29.2c0-.15,0-.2-.21-.2h-.48c-.11,0-.2,0-.2.14v.28Z" style="fill: #edd5d8"/>
      <path d="M10.2,28.86c0-.09,0-.14.15-.14s.15,0,.15.14v.89l.59.71v.28c0,.09,0,.14-.15.14s-.15,0-.15-.14v-.19L10.35,30l-.44.53v.19c0,.09,0,.14-.15.14s-.15,0-.15-.14v-.28l.59-.71Z" style="fill: #edd5d8"/>
      <path d="M8.64,28.86c0-.09,0-.14.15-.14s.15,0,.15.14v2h-1a.44.44,0,0,1-.47-.4v-.19a.42.42,0,0,1,.47-.39h.28L7.53,29a.27.27,0,0,1-.08-.15.14.14,0,0,1,.15-.13.16.16,0,0,1,.13.08l.83,1.09h.07Zm0,1.31H8c-.08,0-.22,0-.22.12v.19c0,.11.12.13.21.13h.67Z" style="fill: #edd5d8"/>
      <path d="M5.38,30.1a.59.59,0,0,1-.08-.31.64.64,0,0,1,.1-.33l.28-.51a.4.4,0,0,1,.73,0l.28.51a.64.64,0,0,1,.1.33.6.6,0,0,1-.08.31l-.3.55a.4.4,0,0,1-.72,0Zm.56.42s0,.08.1.08.08,0,.1-.08l.27-.5a.41.41,0,0,0,.07-.22.36.36,0,0,0-.05-.18l-.29-.53S6.1,29,6,29s-.08,0-.1.08l-.29.53a.36.36,0,0,0-.05.18.41.41,0,0,0,.07.22Z" style="fill: #edd5d8"/>
    </g>
    <path d="M14.59,25.61l.66,1.13a.24.24,0,0,1,0,.13.18.18,0,0,1-.18.17c-.12,0-.16-.09-.21-.18L14.38,26l-.52.88c-.05.09-.09.18-.21.18a.18.18,0,0,1-.18-.17.24.24,0,0,1,0-.13l.66-1.13-.66-1.13a.24.24,0,0,1,0-.13.18.18,0,0,1,.18-.17c.12,0,.16.09.21.18l.52.88.52-.88c.05-.09.09-.18.21-.18a.18.18,0,0,1,.18.17.24.24,0,0,1,0,.13Z" style="fill: #edd5d8"/>
    <path d="M6,20.88a.18.18,0,0,1,.37,0v1.18l.73.95v.38a.18.18,0,0,1-.37,0v-.25l-.54-.71-.54.71v.25a.18.18,0,0,1-.37,0V23L6,22.06Z" style="fill: #edd5d8"/>
    <path d="M13.51,22.42l1.33-2.26H13.69a.18.18,0,0,1,0-.37h1.64V20L14,22.3h1.14a.18.18,0,0,1,0,.37H13.51Z" style="fill: #edd5d8"/>
    <g>
      <path d="M43.71,38.22a.35.35,0,0,1,0-.17.37.37,0,0,1,.05-.18l.14-.28a.2.2,0,0,1,.38,0l.14.28a.38.38,0,0,1,.05.18.35.35,0,0,1,0,.17l-.15.31a.2.2,0,0,1-.37,0Zm.29.23s0,0,.05,0,0,0,.05,0l.14-.28a.25.25,0,0,0,0-.12.21.21,0,0,0,0-.1l-.15-.29s0,0-.05,0,0,0-.05,0l-.15.29a.22.22,0,0,0,0,.1.24.24,0,0,0,0,.13Z" style="fill: #e3cfd3"/>
      <path d="M43.6,38.58a.07.07,0,0,1-.08.08c-.06,0-.08,0-.08-.08v-.36l-.47.4a.1.1,0,0,1-.06,0,.08.08,0,0,1-.07-.08.09.09,0,0,1,0-.06l.53-.45-.53-.45a.09.09,0,0,1,0-.07.08.08,0,0,1,.07-.08s.06,0,.08,0l.45.39v-.36a.07.07,0,0,1,.08-.08c.05,0,.08,0,.08.08Z" style="fill: #e3cfd3"/>
    </g>
    <g>
      <path d="M43.43,34.07a.35.35,0,0,1,0,.17.37.37,0,0,1-.05.18l-.14.28a.2.2,0,0,1-.37,0l-.14-.28a.38.38,0,0,1-.05-.18.35.35,0,0,1,0-.17l.15-.31a.2.2,0,0,1,.37,0Zm-.29-.23s0,0-.05,0,0,0-.05,0l-.14.28a.25.25,0,0,0,0,.13.21.21,0,0,0,0,.1l.15.29s0,0,.05,0,0,0,.05,0l.15-.29a.22.22,0,0,0,0-.1.24.24,0,0,0,0-.12Z" style="fill: #e3cfd3"/>
      <path d="M43.54,33.71a.07.07,0,0,1,.08-.08c.06,0,.08,0,.08.08v.36l.47-.4a.1.1,0,0,1,.06,0,.08.08,0,0,1,.07.08.09.09,0,0,1,0,.06l-.53.45.53.45a.09.09,0,0,1,0,.07.08.08,0,0,1-.07.08s-.06,0-.08,0l-.45-.39v.36a.07.07,0,0,1-.08.08c-.05,0-.08,0-.08-.08Z" style="fill: #e3cfd3"/>
    </g>
    <g>
      <path d="M43.56,41.47a.35.35,0,0,1,0,.17.38.38,0,0,1-.05.18l-.14.28a.2.2,0,0,1-.38,0l-.14-.28a.37.37,0,0,1-.05-.18.35.35,0,0,1,0-.17l.15-.31a.2.2,0,0,1,.37,0Zm-.29-.23s0,0-.05,0,0,0-.05,0l-.14.28a.24.24,0,0,0,0,.13.2.2,0,0,0,0,.1l.15.29s0,0,.05,0,0,0,.05,0l.15-.29a.2.2,0,0,0,0-.1.25.25,0,0,0,0-.12Z" style="fill: #e3cfd3"/>
      <path d="M43.67,41.12s0-.08.08-.08.08,0,.08.08v.35l.47-.4a.1.1,0,0,1,.06,0,.08.08,0,0,1,.07.08.09.09,0,0,1,0,.06l-.53.45.53.45a.09.09,0,0,1,0,.07.08.08,0,0,1-.07.08s-.06,0-.08,0l-.45-.39v.36a.07.07,0,0,1-.08.08c-.06,0-.08,0-.08-.08Z" style="fill: #e3cfd3"/>
    </g>
    <g>
      <path d="M37.3,28.74h-.24v-1h.16v.87h0l.14-.53h.13l.14.53h0v-.87h.16v1h-.25l-.12-.4h0Z" style="fill: #60544e"/>
      <path d="M36.63,28.74h-.35c-.21,0-.35-.09-.35-.31s.17-.3.37-.3h.18v-.43h.16Zm-.35-.47c-.11,0-.2,0-.2.16s.08.16.2.16h.19v-.32Z" style="fill: #60544e"/>
      <path d="M35.48,27.69a2.64,2.64,0,0,0-.38.43h0a.3.3,0,0,1,.13,0,.35.35,0,0,1,.35.36.38.38,0,1,1-.76,0,1.28,1.28,0,0,1,.44-.75Zm-.05.77a.22.22,0,1,0-.44,0,.21.21,0,0,0,.22.22A.2.2,0,0,0,35.43,28.46Z" style="fill: #60544e"/>
      <path d="M33.78,27.84v-.15h.67v.08a.52.52,0,0,1-.31.51c-.08.05-.21.12-.21.23a.18.18,0,0,0,.17.17.61.61,0,0,0,.33-.12v.17a.52.52,0,0,1-.3.09.31.31,0,0,1-.36-.31c0-.2.15-.28.3-.38s.22-.16.22-.29v0Z" style="fill: #60544e"/>
    </g>
    <g>
      <path d="M38.22,26.69a.32.32,0,0,1,.19-.27.35.35,0,0,1-.24-.33c0-.23.17-.31.37-.31s.37.08.37.31a.35.35,0,0,1-.23.33.32.32,0,0,1,.19.27c0,.18-.17.25-.33.25S38.22,26.87,38.22,26.69Zm.12-.58c0,.12.11.18.22.24s.22-.12.22-.24-.11-.18-.22-.18S38.34,26,38.34,26.11Zm.39.57c0-.09-.1-.15-.17-.18s-.17.09-.17.18.1.12.17.12S38.73,26.77,38.73,26.68Z" style="fill: #60544e"/>
      <path d="M37.08,26.19V26h.14V25.8h.16V26h.42v.17l-.33.71h-.16l.34-.73h-.27v.23h-.16v-.23Z" style="fill: #60544e"/>
      <path d="M36,26.77l.28-.28a.32.32,0,0,1-.33-.33c0-.25.21-.36.43-.36a.72.72,0,0,1,.29.07V26a.52.52,0,0,0-.29-.08c-.14,0-.28.06-.28.22s.12.21.25.21h.12v.12l-.29.29h.48v.14H36Z" style="fill: #60544e"/>
      <path d="M35.08,25.95V25.8h.69v1h-.16v-.9Z" style="fill: #60544e"/>
      <path d="M34.64,26.1l.07-.3h.16l-.29,1h-.2l-.29-1h.16l.08.3Zm-.15.6h0l.11-.45h-.23Z" style="fill: #60544e"/>
      <path d="M33.77,26.5v.2l-.27.23h-.17V25.8h.16v.94Z" style="fill: #60544e"/>
    </g>
    <g>
      <path d="M37.73,24.7v.2l-.27.23h-.17V24h.16V25Z" style="fill: #60544e"/>
      <path d="M36.05,25.13a2.88,2.88,0,0,0,.3-.33l.07-.1h0a.34.34,0,0,1-.14,0,.37.37,0,0,1,0-.73.35.35,0,0,1,.38.38.61.61,0,0,1-.16.43l-.28.33Zm.48-.76a.22.22,0,1,0-.21.22A.21.21,0,0,0,36.53,24.37Z" style="fill: #60544e"/>
      <path d="M34.88,25a1.27,1.27,0,0,1,0-.39c0-.14,0-.43.11-.53a.55.55,0,0,1,.53,0c.1.1.11.39.11.53a1.27,1.27,0,0,1,0,.39c-.05.15-.17.17-.33.17S34.93,25.13,34.88,25Zm.52-.1a2.06,2.06,0,0,0,0-.31,1.11,1.11,0,0,0,0-.39s-.12,0-.17,0-.14,0-.17,0a1.11,1.11,0,0,0,0,.39,2.2,2.2,0,0,0,0,.31c0,.12.07.12.2.12S35.39,25,35.41,24.88Z" style="fill: #60544e"/>
      <path d="M33.84,25.13a2.88,2.88,0,0,0,.3-.33l.07-.1h0a.34.34,0,0,1-.14,0,.37.37,0,0,1,0-.73.35.35,0,0,1,.38.38.61.61,0,0,1-.16.43l-.28.33Zm.48-.76a.22.22,0,1,0-.21.22A.21.21,0,0,0,34.32,24.37Z" style="fill: #60544e"/>
    </g>
    <path d="M21.38,14.12a1.81,1.81,0,1,0-.62-1.36A1.8,1.8,0,0,0,21.38,14.12Zm1.19.19H22l.28-.49.28-.49.28.49.28.49ZM24,12.17v1.13L23.51,13,23,12.74l.49-.28Zm-1.43-.72h.57l-.28.49-.28.49-.28-.49L22,11.45Zm-1.43.72.49.28.49.28-.49.28-.49.28V12.17Z" style="fill: #edd5d8"/>
    <polygon points="47.02 18.54 39.56 18.54 38.8 17.78 38.8 13.3 39.53 12.57 46.83 12.57 47.52 13.26 47.52 17.78 47.02 18.54" style="fill: none;stroke: #dad4d4;stroke-miterlimit: 10"/>
    <circle cx="10.11" cy="20.79" r="1.79" style="fill: none;stroke: #edd5d8;stroke-miterlimit: 10;stroke-width: 0.75px"/>
    <circle cx="10.11" cy="20.79" r="0.68" style="fill: #edd5d8"/>
    <rect height="51.51" style="fill: none" transform="translate(50.77 51.51) rotate(180)" width="49" x="0.88"/>
  </g>
  <g id="Connectors">
    <circle cx="21.48" cy="47.91" data-cir-type="male" id="circuitoCon_GND" r="2.05" style="fill: none;stroke: #e8e5df;stroke-width: 1.224px"/>
    <circle cx="28.68" cy="47.91" data-cir-type="male" id="circuitoCon_3v3" r="2.05" style="fill: none;stroke: #e8e5df;stroke-width: 1.224px"/>
    <circle cx="35.88" cy="47.91" data-cir-type="male" id="circuitoCon_SDA" r="2.05" style="fill: none;stroke: #e8e5df;stroke-width: 1.224px"/>
    <circle cx="43.08" cy="47.91" data-cir-type="male" id="circuitoCon_SCL" r="2.05" style="fill: none;stroke: #e8e5df;stroke-width: 1.224px"/>
  </g>
</svg>