<?xml version="1.0" ?><svg height="31.15mm" viewBox="0 0 51 88.31" width="17.99mm" xmlns="http://www.w3.org/2000/svg">
  <title>WiFi Module - ESP8266</title>
  <g id="BAKGROUND">
    <circle cx="5.79" cy="61.06" r="0.46" style="fill: none"/>
    <circle cx="3.25" cy="43.76" r="0.53" style="fill: none"/>
    <circle cx="25.5" cy="64.15" r="0.42" style="fill: none"/>
    <circle cx="2.06" cy="84.23" r="0.41" style="fill: none"/>
    <circle cx="27.56" cy="66.44" r="0.4" style="fill: none"/>
    <circle cx="2.87" cy="41.17" r="0.53" style="fill: none"/>
    <circle cx="2.06" cy="87.02" r="0.54" style="fill: none"/>
    <circle cx="1.92" cy="26.31" r="0.53" style="fill: none"/>
    <circle cx="39.58" cy="13.81" r="1.25" style="fill: none"/>
    <circle cx="1.92" cy="29.02" r="0.53" style="fill: none"/>
    <circle cx="1.92" cy="36.59" r="0.53" style="fill: none"/>
    <circle cx="1.92" cy="33.13" r="0.53" style="fill: none"/>
    <path d="M0,88.31H51V0H0Zm1.65-4.08a.41.41,0,1,1,.41.41A.41.41,0,0,1,1.65,84.23Zm8.72-.41a1.73,1.73,0,1,1,1.73,1.73A1.73,1.73,0,0,1,10.37,83.82Zm9.13,0a1.73,1.73,0,1,1,1.73,1.73A1.73,1.73,0,0,1,19.5,83.82ZM2.6,87a.54.54,0,1,1-.54-.54A.54.54,0,0,1,2.6,87Zm38.5-3.2a1.74,1.74,0,1,1-1.73-1.73A1.74,1.74,0,0,1,41.1,83.82Zm-9,0a1.74,1.74,0,1,1-1.73-1.73A1.74,1.74,0,0,1,32.1,83.82Zm-23-6.13v-6h6v6Zm19.53-3a1.73,1.73,0,1,1,1.73,1.73A1.73,1.73,0,0,1,28.63,74.68Zm-7.39,1.73A1.73,1.73,0,1,1,23,74.68,1.73,1.73,0,0,1,21.23,76.41Zm21.15-4.75v6h-6v-6ZM28,66.44a.4.4,0,1,1-.39-.39A.4.4,0,0,1,28,66.44Zm-2-2.29a.42.42,0,1,1-.42-.42A.42.42,0,0,1,25.92,64.15ZM6.25,61.06a.46.46,0,1,1-.46-.46A.46.46,0,0,1,6.25,61.06ZM3.78,43.76a.53.53,0,1,1-.53-.53A.53.53,0,0,1,3.78,43.76ZM3.4,41.17a.53.53,0,1,1-.53-.53A.53.53,0,0,1,3.4,41.17Zm-1-4.58a.53.53,0,1,1-.53-.53A.53.53,0,0,1,2.45,36.59Zm0-3.47a.53.53,0,1,1-.53-.53A.53.53,0,0,1,2.45,33.13Zm0-4.1a.53.53,0,1,1-.53-.53A.53.53,0,0,1,2.45,29Zm0-2.71a.53.53,0,1,1-.53-.53A.53.53,0,0,1,2.45,26.31Zm38.38-12.5a1.25,1.25,0,1,1-1.25-1.25A1.25,1.25,0,0,1,40.83,13.81Z"/>
    <path d="M42.39,77.69v-6h-6v6Zm-4.75-3a1.73,1.73,0,1,1,1.73,1.73A1.73,1.73,0,0,1,37.63,74.68Z" style="fill: #e8e5df"/>
    <path d="M9.1,71.66v6h6v-6Zm4.74,3a1.73,1.73,0,1,1-1.73-1.73A1.73,1.73,0,0,1,13.84,74.68Z" style="fill: #e8e5df"/>
  </g>
  <g data-name="gold sign" id="gold_sign">
    <polyline points="45.33 2.77 32.13 2.77 32.13 16.67 27.62 16.67 27.62 2.77 23.43 2.77 23.43 16.67 19.51 16.67 19.51 2.77 15.16 2.77 15.16 16.67 11.29 16.67 11.29 2.77 6.8 2.77 6.8 23.5 6.8 23.77 6.8 27.15" style="fill: none;stroke: #c5b07a;stroke-linecap: round;stroke-linejoin: round;stroke-width: 2px"/>
    <path d="M32,22.65H7.71l-.32,3.13H32A1.56,1.56,0,0,0,32,22.65Zm-.13,2.12a.59.59,0,1,1,.59-.59A.59.59,0,0,1,31.91,24.78Z" style="fill: #c5b07a"/>
  </g>
  <g id="text">
    <rect height="2.13" style="fill: #e8e5df" transform="translate(-74.72 81.79) rotate(-90)" width="2.45" x="2.31" y="77.19"/>
    <g>
      <rect height="3.79" rx="1.01" ry="1.01" style="fill: #8a8784" transform="translate(-3.97 71.08) rotate(-90)" width="6.57" x="30.27" y="35.63"/>
      <rect height="3.79" rx="1.01" ry="1.01" style="fill: #8a8784" transform="translate(0.74 75.79) rotate(-90)" width="6.57" x="34.98" y="35.63"/>
      <rect height="3.79" rx="1.01" ry="1.01" style="fill: #8a8784" transform="translate(5.45 80.5) rotate(-90)" width="6.57" x="39.69" y="35.63"/>
      <rect height="3.79" rx="1.01" ry="1.01" style="fill: #8a8784" transform="translate(10.16 85.21) rotate(-90)" width="6.57" x="44.4" y="35.63"/>
    </g>
    <g>
      <rect height="3.79" rx="1.01" ry="1.01" style="fill: #8a8784" transform="translate(-28.26 95.38) rotate(-90)" width="6.57" x="30.27" y="59.92"/>
      <rect height="3.79" rx="1.01" ry="1.01" style="fill: #8a8784" transform="translate(-23.55 100.09) rotate(-90)" width="6.57" x="34.98" y="59.92"/>
      <rect height="3.79" rx="1.01" ry="1.01" style="fill: #8a8784" transform="translate(-18.84 104.8) rotate(-90)" width="6.57" x="39.69" y="59.92"/>
      <rect height="3.79" rx="1.01" ry="1.01" style="fill: #8a8784" transform="translate(-14.13 109.5) rotate(-90)" width="6.57" x="44.4" y="59.92"/>
    </g>
    <g>
      <rect height="2.48" style="fill: #dad4d0" transform="translate(-12.71 54.94) rotate(-90)" width="3.03" x="19.6" y="32.59"/>
      <rect height="2.48" style="fill: #dad4d0" transform="translate(-4.42 63.23) rotate(-90)" width="3.03" x="27.89" y="32.59"/>
      <rect height="2.48" style="fill: #dad4d0" transform="translate(-8.19 50.42) rotate(-90)" width="3.03" x="19.6" y="28.06"/>
      <rect height="2.48" style="fill: #dad4d0" transform="translate(0.1 58.71) rotate(-90)" width="3.03" x="27.89" y="28.06"/>
    </g>
    <rect height="8.98" rx="0.74" ry="0.74" style="fill: #9a7c7e" transform="translate(-6.45 56.89) rotate(-90)" width="6.96" x="21.74" y="27.18"/>
    <rect height="2.58" style="fill: #383b3f" transform="translate(15.79 65.96) rotate(-90)" width="5.63" x="38.06" y="23.79"/>
    <rect height="2.58" style="fill: #383b3f" transform="translate(12.11 62.28) rotate(-90)" width="5.63" x="34.38" y="23.79"/>
    <rect height="2.58" style="fill: #383b3f" transform="translate(19.79 69.95) rotate(-90)" width="5.63" x="42.06" y="23.79"/>
    <rect height="2.58" style="fill: #383b3f" transform="translate(23.51 73.68) rotate(-90)" width="5.63" x="45.78" y="23.79"/>
    <rect height="18.26" style="fill: #3c3d42" transform="translate(-32.68 68.11) rotate(-90)" width="18.45" x="8.49" y="41.26"/>
    <g>
      <g>
        <rect height="1.33" style="fill: #ededed" transform="translate(-29.56 52.06) rotate(-90)" width="2.67" x="9.92" y="40.15"/>
        <rect height="1.33" style="fill: #ededed" transform="translate(-27.67 53.96) rotate(-90)" width="2.67" x="11.81" y="40.15"/>
        <rect height="1.33" style="fill: #ededed" transform="translate(-25.77 55.85) rotate(-90)" width="2.67" x="13.71" y="40.15"/>
        <rect height="1.33" style="fill: #ededed" transform="translate(-23.87 57.75) rotate(-90)" width="2.67" x="15.6" y="40.15"/>
        <rect height="1.33" style="fill: #ededed" transform="translate(-21.98 59.65) rotate(-90)" width="2.67" x="17.5" y="40.15"/>
        <rect height="1.33" style="fill: #ededed" transform="translate(-20.08 61.54) rotate(-90)" width="2.67" x="19.4" y="40.15"/>
        <rect height="1.33" style="fill: #ededed" transform="translate(-18.19 63.44) rotate(-90)" width="2.67" x="21.29" y="40.15"/>
        <rect height="1.33" style="fill: #ededed" transform="translate(-16.29 65.33) rotate(-90)" width="2.67" x="23.19" y="40.15"/>
      </g>
      <g>
        <rect height="1.33" style="fill: #ededed" transform="translate(-48.85 71.35) rotate(-90)" width="2.67" x="9.92" y="59.44"/>
        <rect height="1.33" style="fill: #ededed" transform="translate(-46.96 73.25) rotate(-90)" width="2.67" x="11.81" y="59.44"/>
        <rect height="1.33" style="fill: #ededed" transform="translate(-45.06 75.15) rotate(-90)" width="2.67" x="13.71" y="59.44"/>
        <rect height="1.33" style="fill: #ededed" transform="translate(-43.17 77.04) rotate(-90)" width="2.67" x="15.6" y="59.44"/>
        <rect height="1.33" style="fill: #ededed" transform="translate(-41.27 78.94) rotate(-90)" width="2.67" x="17.5" y="59.44"/>
        <rect height="1.33" style="fill: #ededed" transform="translate(-39.37 80.83) rotate(-90)" width="2.67" x="19.4" y="59.44"/>
        <rect height="1.33" style="fill: #ededed" transform="translate(-37.48 82.73) rotate(-90)" width="2.67" x="21.29" y="59.44"/>
        <rect height="1.33" style="fill: #ededed" transform="translate(-35.58 84.63) rotate(-90)" width="2.67" x="23.19" y="59.44"/>
      </g>
      <g>
        <rect height="1.33" style="fill: #ededed" width="2.67" x="6.65" y="43.09"/>
        <rect height="1.33" style="fill: #ededed" width="2.67" x="6.65" y="44.98"/>
        <rect height="1.33" style="fill: #ededed" width="2.67" x="6.65" y="46.88"/>
        <rect height="1.33" style="fill: #ededed" width="2.67" x="6.65" y="48.78"/>
        <rect height="1.33" style="fill: #ededed" width="2.67" x="6.65" y="50.67"/>
        <rect height="1.33" style="fill: #ededed" width="2.67" x="6.65" y="52.57"/>
        <rect height="1.33" style="fill: #ededed" width="2.67" x="6.65" y="54.46"/>
        <rect height="1.33" style="fill: #ededed" width="2.67" x="6.65" y="56.36"/>
      </g>
      <g>
        <rect height="1.33" style="fill: #ededed" width="2.67" x="26.23" y="43.09"/>
        <rect height="1.33" style="fill: #ededed" width="2.67" x="26.23" y="44.98"/>
        <rect height="1.33" style="fill: #ededed" width="2.67" x="26.23" y="46.88"/>
        <rect height="1.33" style="fill: #ededed" width="2.67" x="26.23" y="48.78"/>
        <rect height="1.33" style="fill: #ededed" width="2.67" x="26.23" y="50.67"/>
        <rect height="1.33" style="fill: #ededed" width="2.67" x="26.23" y="52.57"/>
        <rect height="1.33" style="fill: #ededed" width="2.67" x="26.23" y="54.46"/>
        <rect height="1.33" style="fill: #ededed" width="2.67" x="26.23" y="56.36"/>
      </g>
    </g>
    <g>
      <g>
        <path d="M8.41,35.34H6.83a.79.79,0,0,1,0-1.55H8.41a.79.79,0,0,1,0,1.55Z" style="fill: #bcbcbc"/>
        <path d="M8.41,39.48H6.83a.79.79,0,0,1,0-1.55H8.41a.79.79,0,0,1,0,1.55Z" style="fill: #bcbcbc"/>
        <rect height="4.14" rx="0.58" ry="0.58" style="fill: #edf1f6" width="1.74" x="6.7" y="34.56"/>
      </g>
      <rect height="1.94" style="fill: #b5986b" width="1.74" x="6.7" y="35.62"/>
    </g>
    <g>
      <g>
        <path d="M11.84,35.34H10.26a.79.79,0,0,1,0-1.55h1.58a.79.79,0,0,1,0,1.55Z" style="fill: #bcbcbc"/>
        <path d="M11.84,39.48H10.26a.79.79,0,0,1,0-1.55h1.58a.79.79,0,0,1,0,1.55Z" style="fill: #bcbcbc"/>
        <rect height="4.14" rx="0.58" ry="0.58" style="fill: #edf1f6" width="1.74" x="10.13" y="34.56"/>
      </g>
      <rect height="1.94" width="1.74" x="10.13" y="35.62"/>
    </g>
    <g>
      <g>
        <path d="M14.41,32.76v1.58a.79.79,0,0,1-1.55,0V32.76a.79.79,0,0,1,1.55,0Z" style="fill: #bcbcbc"/>
        <path d="M18.56,32.76v1.58a.79.79,0,0,1-1.55,0V32.76a.79.79,0,0,1,1.55,0Z" style="fill: #bcbcbc"/>
        <rect height="4.14" rx="0.58" ry="0.58" style="fill: #edf1f6" transform="translate(-17.89 49.31) rotate(-90)" width="1.74" x="14.84" y="31.53"/>
      </g>
      <rect height="1.94" transform="translate(-17.93 49.27) rotate(-90)" width="1.74" x="14.8" y="32.63"/>
    </g>
    <g>
      <g>
        <path d="M40.25,26.06h1.16a.58.58,0,0,1,0,1.14H40.25a.58.58,0,0,1,0-1.14Z" style="fill: #bcbcbc"/>
        <path d="M40.25,23h1.16a.58.58,0,0,1,0,1.14H40.25a.58.58,0,0,1,0-1.14Z" style="fill: #bcbcbc"/>
        <rect height="3.05" rx="0.58" ry="0.58" style="fill: #edf1f6" transform="translate(81.74 50.22) rotate(-180)" width="1.28" x="40.23" y="23.58"/>
      </g>
      <rect height="1.43" transform="translate(81.74 50.27) rotate(180)" width="1.28" x="40.23" y="24.42"/>
    </g>
    <g>
      <g>
        <path d="M44.25,26.06h1.16a.58.58,0,0,1,0,1.14H44.25a.58.58,0,0,1,0-1.14Z" style="fill: #bcbcbc"/>
        <path d="M44.25,23h1.16a.58.58,0,0,1,0,1.14H44.25a.58.58,0,0,1,0-1.14Z" style="fill: #bcbcbc"/>
        <rect height="3.05" rx="0.58" ry="0.58" style="fill: #edf1f6" transform="translate(89.74 50.22) rotate(180)" width="1.28" x="44.23" y="23.58"/>
      </g>
      <rect height="1.43" transform="translate(89.74 50.27) rotate(180)" width="1.28" x="44.23" y="24.42"/>
    </g>
    <g>
      <g>
        <path d="M2.7,79.48H4.28a.79.79,0,0,1,0,1.55H2.7a.79.79,0,0,1,0-1.55Z" style="fill: #bcbcbc"/>
        <path d="M2.7,75.34H4.28a.79.79,0,0,1,0,1.55H2.7a.79.79,0,0,1,0-1.55Z" style="fill: #bcbcbc"/>
        <rect height="4.14" rx="0.58" ry="0.58" style="fill: #edf1f6" transform="translate(7.09 156.37) rotate(180)" width="1.74" x="2.67" y="76.12"/>
      </g>
      <rect height="1.94" transform="translate(7.09 156.45) rotate(180)" width="1.74" x="2.67" y="77.26"/>
    </g>
    <g>
      <g>
        <path d="M14.41,29v1.58a.79.79,0,0,1-1.55,0V29a.79.79,0,0,1,1.55,0Z" style="fill: #bcbcbc"/>
        <path d="M18.56,29v1.58a.79.79,0,0,1-1.55,0V29a.79.79,0,0,1,1.55,0Z" style="fill: #bcbcbc"/>
        <rect height="4.14" rx="0.58" ry="0.58" style="fill: #edf1f6" transform="translate(-14.18 45.6) rotate(-90)" width="1.74" x="14.84" y="27.82"/>
      </g>
      <rect height="1.94" style="fill: #ada19a" transform="translate(-14.22 45.56) rotate(-90)" width="1.74" x="14.8" y="28.92"/>
    </g>
    <g>
      <g>
        <path d="M3.28,32H4.86a.79.79,0,0,1,0,1.55H3.28a.79.79,0,0,1,0-1.55Z" style="fill: #bcbcbc"/>
        <path d="M3.28,27.85H4.86a.79.79,0,0,1,0,1.55H3.28a.79.79,0,0,1,0-1.55Z" style="fill: #bcbcbc"/>
        <rect height="4.14" rx="0.58" ry="0.58" style="fill: #edf1f6" transform="translate(8.25 61.4) rotate(180)" width="1.74" x="3.25" y="28.63"/>
      </g>
      <rect height="1.94" style="fill: #ada19a" transform="translate(8.25 61.48) rotate(180)" width="1.74" x="3.25" y="29.77"/>
    </g>
    <g>
      <g>
        <path d="M37.72,24.28h-1a.52.52,0,0,1,0-1h1a.52.52,0,0,1,0,1Z" style="fill: #bcbcbc"/>
        <path d="M37.72,27h-1a.52.52,0,0,1,0-1h1a.52.52,0,0,1,0,1Z" style="fill: #bcbcbc"/>
        <path d="M37.16,26.51h0a.57.57,0,0,1-.58-.57V24.34a.57.57,0,0,1,.58-.57h0a.58.58,0,0,1,.58.57v1.59A.58.58,0,0,1,37.16,26.51Z" style="fill: #edf1f6"/>
      </g>
      <rect height="1.28" style="fill: #dbc7b7" width="1.15" x="36.58" y="24.47"/>
    </g>
    <g>
      <g>
        <path d="M49.15,24.28h-1a.52.52,0,0,1,0-1h1a.52.52,0,0,1,0,1Z" style="fill: #bcbcbc"/>
        <path d="M49.15,27h-1a.52.52,0,0,1,0-1h1a.52.52,0,0,1,0,1Z" style="fill: #bcbcbc"/>
        <path d="M48.6,26.51h0a.58.58,0,0,1-.58-.57V24.34a.58.58,0,0,1,.58-.57h0a.57.57,0,0,1,.58.57v1.59A.57.57,0,0,1,48.6,26.51Z" style="fill: #edf1f6"/>
      </g>
      <rect height="1.28" style="fill: #dbc7b7" width="1.15" x="48.02" y="24.47"/>
    </g>
    <g>
      <g>
        <path d="M34.78,29.33v1.42a.71.71,0,0,1-1.39,0V29.33a.71.71,0,0,1,1.39,0Z" style="fill: #bcbcbc"/>
        <path d="M38.5,29.33v1.42a.71.71,0,0,1-1.39,0V29.33a.71.71,0,0,1,1.39,0Z" style="fill: #bcbcbc"/>
        <rect height="3.72" rx="0.58" ry="0.58" style="fill: #edf1f6" transform="translate(5.86 66.02) rotate(-90)" width="1.56" x="35.16" y="28.22"/>
      </g>
      <rect height="1.74" style="fill: #ada19a" transform="translate(5.82 65.99) rotate(-90)" width="1.56" x="35.12" y="29.21"/>
    </g>
    <g>
      <rect height="3.07" style="fill: #b1aeaa" transform="translate(4.6 111.57) rotate(180)" width="3.54" x="0.53" y="54.25"/>
      <rect height="3.07" style="fill: #b1aeaa" transform="translate(4.6 98.7) rotate(180)" width="3.54" x="0.53" y="47.82"/>
      <rect height="5.3" style="fill: #edca9c" transform="translate(4.68 104.89) rotate(180)" width="4.04" x="0.32" y="49.8"/>
      <rect height="3.63" style="fill: #f7f6e9" transform="translate(4.68 104.88) rotate(180)" width="4.04" x="0.32" y="50.63"/>
    </g>
    <rect height="2.25" style="fill: #a88670" transform="translate(-24.69 39.31) rotate(-90)" width="2.25" x="6.19" y="30.88"/>
    <rect height="2.25" style="fill: #a88670" transform="translate(-21.32 35.94) rotate(-90)" width="2.25" x="6.19" y="27.51"/>
    <rect height="2.25" style="fill: #a88670" transform="translate(-21.42 42.58) rotate(-90)" width="2.25" x="9.46" y="30.88"/>
    <rect height="2.25" style="fill: #a88670" transform="translate(-18.05 39.21) rotate(-90)" width="2.25" x="9.46" y="27.51"/>
    <rect height="20.04" style="fill: #47464b" transform="translate(-8.77 90.73) rotate(-90)" width="19.21" x="31.37" y="39.73"/>
    <rect height="17.96" style="fill: #545457" transform="translate(-8.9 90.68) rotate(-90)" width="17.96" x="31.91" y="40.81"/>
    <rect height="8.47" rx="0.92" ry="0.92" style="fill: #9a9593" transform="translate(-5.9 56.85) rotate(-90)" width="6.38" x="22.29" y="27.14"/>
  </g>
  <g id="whitw">
    <g>
      <path d="M11.37,53.61a.11.11,0,0,1,0,.22h-1V52.11h1a.11.11,0,0,1,0,.22h-.76v.53h.33a.11.11,0,1,1,0,.22h-.33v.53Z" style="fill: #868788"/>
      <path d="M13,53.4a.28.28,0,0,1,.08.18.25.25,0,0,1-.28.25h-.49a.32.32,0,0,1-.22-.07.28.28,0,0,1-.1-.21.12.12,0,0,1,.12-.13.11.11,0,0,1,.1.11c0,.07,0,.08.1.08h.48s.07,0,.07,0,0-.05,0-.06l-.76-1a.26.26,0,0,1-.07-.18.25.25,0,0,1,.12-.21.29.29,0,0,1,.18,0h.47a.31.31,0,0,1,.22.07.3.3,0,0,1,.1.21c0,.07,0,.13-.11.13a.1.1,0,0,1-.11-.1c0-.08,0-.09-.11-.09h-.47s-.08,0-.08,0,0,0,0,.06Z" style="fill: #868788"/>
      <path d="M13.79,53.72a.11.11,0,1,1-.22,0V52.11h.73a.32.32,0,0,1,.25.09.33.33,0,0,1,.1.29v.3a.36.36,0,0,1-.09.28.34.34,0,0,1-.3.11h-.48Zm0-.76h.49c.13,0,.16,0,.16-.16v-.31c0-.12,0-.16-.16-.16h-.49Z" style="fill: #868788"/>
    </g>
    <g>
      <path d="M16.28,52.09a.11.11,0,0,1,.11.11v.65a.23.23,0,0,1,.16.06.22.22,0,0,1,.06.17v.54a.21.21,0,0,1-.23.23h-.66a.21.21,0,0,1-.23-.23v-.54a.22.22,0,0,1,.06-.17.23.23,0,0,1,.16-.06V52.2a.11.11,0,0,1,.11-.11Zm.11,1.53v-.54h-.66v.54Zm-.23-.77v-.54H16v.54Z" style="fill: #868788"/>
      <path d="M17.36,53.62h.78a.11.11,0,1,1,0,.23h-1v-.74a.23.23,0,0,1,.25-.25H18v-.54h-.78a.11.11,0,1,1,0-.23H18a.23.23,0,0,1,.25.26v.46a.24.24,0,0,1-.07.2.24.24,0,0,1-.18.06h-.64Z" style="fill: #868788"/>
      <path d="M19,53h.75c.11,0,.14,0,.14.15v.51c0,.11,0,.14-.15.14H18.9c-.11,0-.15,0-.15-.14V52.2c0-.05,0-.11.1-.11H19a.11.11,0,0,1,.11.11.11.11,0,0,1-.11.11Zm0,.23v.35h.66v-.35Z" style="fill: #868788"/>
      <path d="M20.61,53h.75c.11,0,.14,0,.14.15v.51c0,.11,0,.14-.15.14h-.82c-.11,0-.15,0-.15-.14V52.2c0-.05,0-.11.1-.11h.14a.11.11,0,0,1,.11.11.11.11,0,0,1-.11.11Zm0,.23v.35h.66v-.35Z" style="fill: #868788"/>
      <path d="M23,53.62a.11.11,0,1,1,0,.23H22V52.09h1a.11.11,0,1,1,0,.23h-.78v.54h.33a.11.11,0,1,1,0,.23h-.33v.54Z" style="fill: #868788"/>
      <path d="M24.06,53l-.4-.69a.15.15,0,0,1,0-.08.11.11,0,0,1,.11-.11c.07,0,.1.06.13.11l.32.54.32-.54c0-.05.06-.11.13-.11a.11.11,0,0,1,.11.11.15.15,0,0,1,0,.08l-.4.69.4.69a.15.15,0,0,1,0,.08.11.11,0,0,1-.11.11c-.07,0-.1-.06-.13-.11l-.32-.54-.32.54c0,.05-.06.11-.13.11a.11.11,0,0,1-.11-.11.15.15,0,0,1,0-.08Z" style="fill: #868788"/>
    </g>
    <g>
      <path d="M13.41,54.93h.42A.23.23,0,0,1,14,55a.22.22,0,0,1,.07.19v.48a.24.24,0,0,1-.05.18.22.22,0,0,1-.2.08h-.5a.32.32,0,0,1-.15,0l-.09,0c-.06,0-.13,0-.13-.13a.11.11,0,0,1,.11-.11l.07,0,.07,0a.38.38,0,0,0,.12,0h.52v-.54h-.67v-1H14a.11.11,0,1,1,0,.23h-.55Z" style="fill: #868788"/>
      <path d="M15.48,55.7v-.46a.11.11,0,1,1,.23,0v.57a.1.1,0,0,1-.11.11H14.7a.11.11,0,1,1,0-.23H15V54.39H14.7a.11.11,0,1,1,0-.23h.56V55.7Z" style="fill: #868788"/>
      <path d="M16.44,55.7h.78a.11.11,0,1,1,0,.23h-1v-.74a.23.23,0,0,1,.25-.25h.63v-.54h-.78a.11.11,0,1,1,0-.23h.75a.23.23,0,0,1,.25.26v.46a.24.24,0,0,1-.07.2.24.24,0,0,1-.18.06h-.64Z" style="fill: #868788"/>
      <path d="M18.73,54.17a.23.23,0,0,1,.23.23V55.7a.22.22,0,0,1-.23.23h-.66a.22.22,0,0,1-.23-.23V54.39a.23.23,0,0,1,.23-.23Zm0,1.53V54.39h-.66V55.7Z" style="fill: #868788"/>
      <path d="M20.36,55.7v-.46a.11.11,0,1,1,.23,0v.57a.1.1,0,0,1-.11.11h-.89a.11.11,0,1,1,0-.23h.33V54.39h-.33a.11.11,0,1,1,0-.23h.56V55.7Z" style="fill: #868788"/>
      <path d="M21.87,55.13v-.65a.11.11,0,0,1,.23,0v.65a.11.11,0,1,1,0,.22v.46a.11.11,0,1,1-.23,0v-.46H21.2V54.28a.11.11,0,0,1,.23,0v.85Z" style="fill: #868788"/>
    </g>
    <g>
      <path d="M13.31,57.92a.1.1,0,0,1-.11.11c-.08,0-.11,0-.11-.11V56.27h.75a.33.33,0,0,1,.26.09.34.34,0,0,1,.11.3V57a.37.37,0,0,1-.09.29.35.35,0,0,1-.3.11h-.49Zm0-.78h.5c.13,0,.16,0,.16-.16v-.32c0-.13,0-.16-.16-.16h-.5Z" style="fill: #868788"/>
      <path d="M15.6,57.8v-.46a.11.11,0,0,1,.23,0v.57a.1.1,0,0,1-.11.11h-.89a.11.11,0,1,1,0-.23h.33V56.5h-.33a.11.11,0,1,1,0-.23h.56V57.8Z" style="fill: #868788"/>
      <path d="M17,58c-.08,0-.12,0-.14-.1h0c0,.08-.06.1-.14.1h-.17a.12.12,0,0,1-.14-.08l-.08-.14a.15.15,0,0,1,0-.11V56.39a.11.11,0,1,1,.23,0V57.7l.06.11h.1l.06-.11V57c0-.07,0-.13.11-.13s.11.06.11.13v.71l.06.11h.1l.06-.11V56.39a.11.11,0,1,1,.23,0V57.7a.15.15,0,0,1,0,.11l-.08.14a.12.12,0,0,1-.14.08Z" style="fill: #868788"/>
      <path d="M18.39,57.15l-.4-.69a.15.15,0,0,1,0-.08.11.11,0,0,1,.11-.11c.07,0,.1.06.13.11l.32.54.32-.54c0-.05.06-.11.13-.11a.11.11,0,0,1,.11.11.15.15,0,0,1,0,.08l-.4.69.4.69a.15.15,0,0,1,0,.08A.11.11,0,0,1,19,58c-.07,0-.1-.06-.13-.11l-.32-.54-.32.54c0,.05-.06.11-.13.11a.11.11,0,0,1-.11-.11.15.15,0,0,1,0-.08Z" style="fill: #868788"/>
      <path d="M19.82,56.5a.11.11,0,1,1-.23,0v-.11a.11.11,0,0,1,.11-.11h1v.65c0,.08,0,.09-.06.14l-.32.27c-.06.05-.06.06-.06.14v.44c0,.07,0,.11-.11.11a.1.1,0,0,1-.11-.11v-.54a.12.12,0,0,1,.06-.13l.31-.27c.07-.07.07-.06.07-.16V56.5Z" style="fill: #868788"/>
      <path d="M21.33,56.5a.11.11,0,1,1,0-.23h.78a.22.22,0,0,1,.23.23v.43a.26.26,0,0,1-.09.22.26.26,0,0,1,.09.22v.43a.22.22,0,0,1-.23.23h-.78a.11.11,0,1,1,0-.23h.78v-.37c0-.13,0-.17-.11-.17h-.44a.11.11,0,1,1,0-.23H22c.06,0,.11,0,.11-.17V56.5Z" style="fill: #868788"/>
    </g>
    <circle cx="11.25" cy="44.09" r="0.63" style="fill: #868788"/>
    <circle cx="15.79" cy="49.55" r="0.75" style="fill: #868788"/>
    <path d="M15,44.19c-4.08,4.12,2,10.17,6.11,6" style="fill: none;stroke: #868788;stroke-linecap: round;stroke-miterlimit: 10;stroke-width: 0.5px"/>
    <path d="M17.25,50.67c1.48-1.48-1.14-4.11-2.63-2.63" style="fill: none;stroke: #868788;stroke-linecap: round;stroke-miterlimit: 10;stroke-width: 0.5px"/>
    <path d="M14.7,46.38c2.31-.94,5.37,1.77,4.31,4.31" style="fill: none;stroke: #868788;stroke-linecap: round;stroke-miterlimit: 10;stroke-width: 0.5px"/>
    <path d="M15.59,44.5c3.24.12,5.12,1.69,5.2,5.2" style="fill: none;stroke: #868788;stroke-linecap: round;stroke-miterlimit: 10;stroke-width: 0.5px"/>
    <path d="M17.69,43.67c2.22.55,3.7,1.76,4,4" style="fill: none;stroke: #868788;stroke-linecap: round;stroke-miterlimit: 10;stroke-width: 0.5px"/>
    <g>
      <path d="M48.29,55.28h-.57c-.3,0-.43-.24-.43-.6a.59.59,0,0,1,.13-.41.66.66,0,0,1-.13-.47c0-.34.18-.54.43-.54h.57Zm-.2-1.77h-.37c-.15,0-.23.08-.23.28s0,.34.23.34h.37Zm0,.88h-.37c-.15,0-.23.08-.23.28s0,.34.23.34h.37Z" style="fill: #6e655f"/>
      <path d="M46.44,53.25a.18.18,0,0,1,.17.07l.08.09a.36.36,0,0,1,.1.28v.48a.38.38,0,0,1-.09.3l-.07.08a.23.23,0,0,1-.21.1h-.18a.24.24,0,0,1-.22-.09l-.08-.08a.41.41,0,0,1-.1-.33V54c0-.14,0-.18.13-.18h.63v-.08a.14.14,0,0,0,0-.07l0-.07s-.07,0-.13,0H46c-.07,0-.13,0-.13-.13s.08-.12.13-.12Zm.16.77H46v.15a.17.17,0,0,0,0,.12l.08.08a.11.11,0,0,0,.09,0h.17a.13.13,0,0,0,.1,0l.07-.06a.13.13,0,0,0,0-.11Z" style="fill: #6e655f"/>
      <path d="M45.34,54.47c0,.09,0,.18-.1.18s-.1-.08-.1-.17v-.1l-.15.16a.27.27,0,0,1-.17.11h-.16a.23.23,0,0,1-.19-.1.43.43,0,0,1-.09-.29c0-.09,0-.17.09-.17s.1.07.1.15a.2.2,0,0,0,0,.11s.07,0,.12,0h.06s.06,0,.1-.06l.27-.29v-.63c0-.09,0-.17.1-.17s.1.09.1.17Z" style="fill: #6e655f"/>
      <path d="M43.87,54.19a.42.42,0,0,1-.07.26l-.14.14a.16.16,0,0,1-.12.06h-.19c-.05,0-.12,0-.19-.12l0,0v0c0,.08,0,.15-.1.15s-.09-.09-.09-.17V53.26c0-.23,0-.27.09-.36l.07-.07a.27.27,0,0,1,.24-.11h.32c.06,0,.13,0,.13.13s-.07.13-.13.13h-.36a.13.13,0,0,0-.1.06l0,.06a.17.17,0,0,0,0,.1v.34l0-.05c0-.06.11-.12.16-.12h.23a.18.18,0,0,1,.15.08l.12.14a.32.32,0,0,1,.06.24Zm-.19-.34a.22.22,0,0,0,0-.13l-.08-.08-.06,0h-.14s-.05,0-.09.07l-.15.16a.13.13,0,0,0,0,.08v.18a.13.13,0,0,0,0,.08l.15.16s.06.06.09.06h.14l.06,0,.08-.08a.21.21,0,0,0,0-.13Z" style="fill: #6e655f"/>
      <path d="M41.68,55.28h-.25v-1.9c0-.08,0-.13.1-.13s.1,0,.1.13v1.54h0l.19-.37v0c0-.08,0-.16.1-.16s.1.08.1.16v0l.19.37h0V53.38c0-.08,0-.13.1-.13s.1,0,.1.13v1.9h-.25l-.25-.46Z" style="fill: #6e655f"/>
      <path d="M40.36,53.5h-.15c-.06,0-.13,0-.13-.13s.08-.12.13-.12h.5c.06,0,.13,0,.13.13s-.07.13-.13.13h-.15v.9h.15c.06,0,.13,0,.13.13s-.07.13-.13.13h-.2c-.11,0-.14,0-.14-.17Zm.29,1.66c0,.09,0,.12-.09.12h-.11c-.05,0-.09,0-.09-.12V55c0-.09,0-.12.09-.12h.11c.05,0,.09,0,.09.12Z" style="fill: #6e655f"/>
      <path d="M39.47,54.07a.4.4,0,0,1-.12.33l-.14.15a.27.27,0,0,1-.25.1h-.31c-.07,0-.13,0-.13-.12s.08-.13.13-.13H39a.16.16,0,0,0,.11-.06l.12-.13a.14.14,0,0,0,.05-.11V53.8a.14.14,0,0,0-.05-.11l-.12-.13A.16.16,0,0,0,39,53.5h-.34c-.06,0-.13,0-.13-.13s.07-.12.13-.12H39a.27.27,0,0,1,.25.1l.14.15a.4.4,0,0,1,.12.33Z" style="fill: #6e655f"/>
      <path d="M38,54.47c0,.09,0,.18-.1.18s-.1-.08-.1-.17v-.1l-.15.16a.27.27,0,0,1-.17.11h-.16a.23.23,0,0,1-.19-.1.43.43,0,0,1-.09-.29c0-.09,0-.17.09-.17s.1.07.1.15a.2.2,0,0,0,0,.11s.07,0,.12,0h.06s.06,0,.1-.06l.27-.29v-.63c0-.09,0-.17.1-.17s.1.09.1.17Z" style="fill: #6e655f"/>
      <path d="M36.54,54.19a.38.38,0,0,1-.12.33.31.31,0,0,1-.28.14H36a.32.32,0,0,1-.28-.14.38.38,0,0,1-.12-.33v-.47a.41.41,0,0,1,.13-.34.29.29,0,0,1,.27-.13h.15a.29.29,0,0,1,.27.13.41.41,0,0,1,.13.34Zm-.19-.47a.2.2,0,0,0-.07-.15.16.16,0,0,0-.13-.07H36a.16.16,0,0,0-.13.07.2.2,0,0,0-.07.15v.47a.2.2,0,0,0,.07.15.16.16,0,0,0,.13.07h.15a.16.16,0,0,0,.13-.07.2.2,0,0,0,.07-.15Z" style="fill: #6e655f"/>
    </g>
    <g>
      <path d="M38.74,45.91v.53c0,.08,0,.13-.1.13s-.1-.05-.1-.13v-.66c0-.09,0-.13.1-.13h.8c.05,0,.1,0,.1.13s0,.13-.1.13h-.3v1.51h.3c.05,0,.1,0,.1.13s0,.13-.1.13h-.5V45.91Z" style="fill: #6e655f"/>
      <path d="M37.67,46.79H37.3a.18.18,0,0,1-.16-.07.3.3,0,0,1-.06-.22v-.56a.33.33,0,0,1,0-.2.18.18,0,0,1,.18-.09h.45a.25.25,0,0,1,.13,0l.08,0c.05,0,.12.06.12.15S38,46,38,46l-.06,0-.06,0s-.08-.05-.11-.05h-.47v.62h.6v1.14h-.7c-.05,0-.1,0-.1-.13s0-.13.1-.13h.5Z" style="fill: #6e655f"/>
      <path d="M35.81,45.91v.53c0,.08,0,.13-.1.13s-.1-.05-.1-.13v-.66c0-.09,0-.13.1-.13h.8c.05,0,.1,0,.1.13s0,.13-.1.13h-.3v1.51h.3c.05,0,.1,0,.1.13s0,.13-.1.13H36V45.91Z" style="fill: #6e655f"/>
      <path d="M34.45,47.67c-.07,0-.1-.06-.1-.13v-.75a.18.18,0,0,1-.15-.07.29.29,0,0,1-.05-.19v-.62c0-.16.08-.26.2-.26h.6c.13,0,.2.1.2.26v.62a.3.3,0,0,1-.05.19.18.18,0,0,1-.15.07v.75c0,.07,0,.13-.1.13Zm-.1-1.77v.62h.6v-.62Zm.2.88v.62h.19v-.62Z" style="fill: #6e655f"/>
    </g>
    <g>
      <path d="M48.09,49.72h-.7c-.05,0-.1,0-.1-.13s0-.13.1-.13h.9v.85c0,.2-.08.29-.23.29h-.57v.62h.7c.05,0,.1,0,.1.13s0,.13-.1.13h-.67a.18.18,0,0,1-.16-.07.33.33,0,0,1-.06-.23v-.54a.33.33,0,0,1,.06-.23.19.19,0,0,1,.16-.07h.57Z" style="fill: #6e655f"/>
      <path d="M46.42,50.6H46a.18.18,0,0,1-.16-.07.3.3,0,0,1-.06-.22v-.56a.33.33,0,0,1,0-.2.18.18,0,0,1,.18-.09h.45a.24.24,0,0,1,.13,0l.08,0c.05,0,.12.05.12.15s0,.13-.1.13l-.06,0-.06,0s-.08-.05-.11-.05H46v.62h.6v1.14h-.7c-.05,0-.1,0-.1-.13s0-.13.1-.13h.5Z" style="fill: #6e655f"/>
      <path d="M44.56,51.49a.24.24,0,0,1-.2-.26V49.72c0-.15.09-.26.2-.26h.6c.12,0,.2.12.2.26v1.51a.24.24,0,0,1-.2.26Zm0-1.77v1.51h.6V49.72Z" style="fill: #6e655f"/>
      <path d="M43.2,51.49c-.07,0-.1-.06-.1-.13V50.6a.18.18,0,0,1-.15-.07.29.29,0,0,1-.05-.19v-.62c0-.16.08-.26.2-.26h.6c.13,0,.2.1.2.26v.62a.3.3,0,0,1-.05.19.18.18,0,0,1-.15.07v.75c0,.07,0,.13-.1.13Zm-.1-1.77v.62h.6v-.62Zm.2.88v.62h.19V50.6Z" style="fill: #6e655f"/>
      <path d="M41.63,51.49a.24.24,0,0,1-.2-.26V49.72c0-.15.09-.26.2-.26h.6c.12,0,.2.12.2.26v1.51a.24.24,0,0,1-.2.26Zm0-1.77v1.51h.6V49.72Z" style="fill: #6e655f"/>
      <path d="M40.57,51.35c0,.07,0,.13-.1.13s-.09-.06-.11-.13L40,49.59a.11.11,0,0,1,.1-.13c.06,0,.1.07.11.13l.08.31h.43l.08-.31c0-.06,0-.13.11-.13a.11.11,0,0,1,.1.13Zm-.11-.48h0l.16-.71H40.3Z" style="fill: #6e655f"/>
      <path d="M38.57,50a.4.4,0,0,1-.07-.22.26.26,0,0,1,.25-.29h.45a.25.25,0,0,1,.2.08.36.36,0,0,1,.1.24c0,.08,0,.16-.11.16s-.1-.06-.1-.13,0-.09-.09-.09h-.44s-.07,0-.07,0a.24.24,0,0,0,0,.08l.7,1.15a.37.37,0,0,1,.07.21.31.31,0,0,1-.11.25.22.22,0,0,1-.17,0h-.43a.25.25,0,0,1-.2-.09.4.4,0,0,1-.09-.25c0-.08,0-.15.11-.15s.1,0,.1.12,0,.1.1.1h.43s.07,0,.07,0a.18.18,0,0,0,0-.07Z" style="fill: #6e655f"/>
      <path d="M37.1,50a.4.4,0,0,1-.07-.22.26.26,0,0,1,.25-.29h.45a.25.25,0,0,1,.2.08.36.36,0,0,1,.1.24c0,.08,0,.16-.11.16s-.1-.06-.1-.13,0-.09-.09-.09H37.3s-.07,0-.07,0a.24.24,0,0,0,0,.08L38,51a.37.37,0,0,1,.07.21.31.31,0,0,1-.11.25.22.22,0,0,1-.17,0h-.43a.25.25,0,0,1-.2-.09.4.4,0,0,1-.09-.25c0-.08,0-.15.11-.15s.1,0,.1.12,0,.1.1.1h.43s.07,0,.07,0a.18.18,0,0,0,0-.07Z" style="fill: #6e655f"/>
      <path d="M35.77,49.72v.53c0,.08,0,.13-.1.13s-.1-.05-.1-.13v-.66c0-.09,0-.13.1-.13h.8c.05,0,.1,0,.1.13s0,.13-.1.13h-.3v1.51h.3c.05,0,.1,0,.1.13s0,.13-.1.13H36V49.72Z" style="fill: #6e655f"/>
      <path d="M34.9,50.38h-.68c-.1,0-.12-.05-.12-.17v-.58c0-.12,0-.16.13-.16H35c.1,0,.13,0,.13.16v1.74c0,.06,0,.13-.09.13h-.12c-.05,0-.1-.06-.1-.13s0-.13.1-.13Zm0-.26v-.4h-.6v.4Z" style="fill: #6e655f"/>
    </g>
    <g>
      <path d="M22.67,30.68h.5s.07,0,.07.09,0,.09-.07.09h-.64v-.61c0-.14.06-.21.16-.21h.41V29.6h-.5s-.07,0-.07-.09,0-.09.07-.09h.48a.13.13,0,0,1,.12.05.23.23,0,0,1,0,.17V30a.23.23,0,0,1,0,.17.13.13,0,0,1-.12.05h-.41Z" style="fill: #797271"/>
      <path d="M23.71,30.21h.48c.07,0,.09,0,.09.13v.42c0,.09,0,.12-.09.12h-.53c-.07,0-.09,0-.09-.12V29.51s0-.09.06-.09h.09s.07,0,.07.09,0,.09-.07.09Zm0,.19v.29h.43v-.29Z" style="fill: #797271"/>
      <path d="M25.19,29.42a.17.17,0,0,1,.15.19v1.08c0,.1-.06.19-.15.19h-.43c-.08,0-.15-.08-.15-.19V29.6a.17.17,0,0,1,.15-.19Zm0,1.26V29.6h-.43v1.08Z" style="fill: #797271"/>
      <path d="M25.81,30.77c0,.06,0,.09-.07.09s-.07,0-.07-.09V29.42h.48a.19.19,0,0,1,.17.08.33.33,0,0,1,.07.24V30a.37.37,0,0,1-.06.24.2.2,0,0,1-.19.09h-.32Zm0-.64h.32c.09,0,.1,0,.1-.13v-.26c0-.11,0-.13-.1-.13h-.32Z" style="fill: #797271"/>
      <path d="M26.85,30.77c0,.06,0,.09-.07.09s-.07,0-.07-.09V29.42h.48a.19.19,0,0,1,.17.08.33.33,0,0,1,.07.24V30a.37.37,0,0,1-.06.24.2.2,0,0,1-.19.09h-.32Zm0-.64h.32c.08,0,.1,0,.1-.13v-.26c0-.11,0-.13-.1-.13h-.32Z" style="fill: #797271"/>
    </g>
    <g>
      <path d="M23.16,32.74s.07,0,.07.09,0,.09-.07.09h-.64V31.48h.64s.07,0,.07.09,0,.09-.07.09h-.5v.44h.21s.07,0,.07.09,0,.09-.07.09h-.21v.44Z" style="fill: #797271"/>
      <path d="M23.64,31.67s-.07,0-.07-.09,0-.09.07-.09h.5c.08,0,.15.08.15.19V32a.25.25,0,0,1-.06.18.25.25,0,0,1,.06.18v.36c0,.11-.06.19-.15.19h-.5s-.07,0-.07-.09,0-.09.07-.09h.5v-.31c0-.1,0-.14-.07-.14h-.28s-.07,0-.07-.09,0-.09.07-.09h.28s.07,0,.07-.14v-.31Z" style="fill: #797271"/>
      <path d="M25.11,32.27v-.54s0-.09.07-.09.07,0,.07.09v.54s.07,0,.07.09,0,.09-.07.09v.38c0,.06,0,.09-.07.09s-.07,0-.07-.09v-.38h-.43v-.88s0-.09.07-.09.07,0,.07.09v.7Z" style="fill: #797271"/>
      <path d="M26.23,32.14h-.5s-.07,0-.07-.09v-.48a.09.09,0,0,1,.07-.09h.57s.07,0,.07.09v1.26s0,.09-.07.09h-.07s-.07,0-.07-.09,0-.09.07-.09Zm0-.19v-.29h-.43V32Z" style="fill: #797271"/>
      <path d="M27.28,31.48a.17.17,0,0,1,.14.19v1.08c0,.1-.06.19-.14.19h-.43c-.08,0-.15-.08-.15-.19V31.67a.17.17,0,0,1,.15-.19Zm0,1.26V31.67h-.43v1.08Z" style="fill: #797271"/>
    </g>
    <g>
      <path d="M9.38,21.36l-.3.91H8.69l1-2.9h.45l1,2.9h-.4l-.31-.91Zm1-.29L10,20.23c-.06-.19-.11-.36-.15-.53h0c0,.17-.09.35-.14.53l-.28.84Z" style="fill: #fff"/>
      <path d="M11.52,19.22h.37v3.05h-.37Z" style="fill: #fff"/>
      <path d="M13.45,20.91v.34H12.39v-.34Z" style="fill: #fff"/>
      <path d="M16,22.18a1.93,1.93,0,0,1-.77.14,1.36,1.36,0,0,1-1.43-1.47,1.44,1.44,0,0,1,1.51-1.52,1.58,1.58,0,0,1,.69.13l-.09.31a1.36,1.36,0,0,0-.58-.12,1.08,1.08,0,0,0-1.13,1.2A1.05,1.05,0,0,0,15.34,22a1.5,1.5,0,0,0,.61-.12Z" style="fill: #fff"/>
      <path d="M16.48,19.22h.37v3.05h-.37Z" style="fill: #fff"/>
      <path d="M19.38,21.23a1,1,0,0,1-1,1.09,1,1,0,0,1-1-1.08,1,1,0,0,1,1-1.09A1,1,0,0,1,19.38,21.23Zm-1.65,0c0,.42.21.8.63.8s.64-.38.64-.8-.17-.81-.64-.81S17.73,20.87,17.73,21.24Z" style="fill: #fff"/>
      <path d="M21.29,22.27l0-.34h0a.78.78,0,0,1-.69.39c-.4,0-.71-.25-.71-.91V20.19h.38v1.15c0,.4.13.67.46.67a.54.54,0,0,0,.51-.34.62.62,0,0,0,0-.2V20.19h.37V21.7c0,.22,0,.4,0,.57Z" style="fill: #fff"/>
      <path d="M24,19.22v2.52c0,.18,0,.39,0,.53h-.34l0-.36h0a.75.75,0,0,1-.7.41,1,1,0,0,1-.9-1.05A1,1,0,0,1,23,20.14a.69.69,0,0,1,.63.31h0V19.22ZM23.65,21a1,1,0,0,0,0-.16.56.56,0,0,0-.55-.43c-.39,0-.63.34-.63.8s.21.77.62.77a.58.58,0,0,0,.56-.46.65.65,0,0,0,0-.16Z" style="fill: #fff"/>
    </g>
    <g>
      <path d="M27.28,20a.23.23,0,0,1-.24.23.22.22,0,0,1-.23-.23.23.23,0,0,1,.23-.24A.23.23,0,0,1,27.28,20Zm-.43,2.67V20.57h.37v2.08Z" style="fill: #fff"/>
      <path d="M27.86,21.13c0-.22,0-.39,0-.56h.34l0,.34h0a.77.77,0,0,1,.69-.39c.28,0,.73.17.73.88v1.24h-.37v-1.2c0-.34-.12-.62-.48-.62a.54.54,0,0,0-.51.39.53.53,0,0,0,0,.18v1.25h-.37Z" style="fill: #fff"/>
      <path d="M30.2,22.26a1,1,0,0,0,.5.15c.28,0,.4-.14.4-.31s-.11-.28-.39-.38-.55-.34-.55-.59a.64.64,0,0,1,.72-.61,1,1,0,0,1,.51.13l-.09.28a.86.86,0,0,0-.43-.12.31.31,0,0,0-.34.29c0,.17.12.25.4.36s.55.31.55.62-.28.63-.78.63a1.18,1.18,0,0,1-.58-.15Z" style="fill: #fff"/>
      <path d="M32.38,20a.23.23,0,0,1-.24.23.22.22,0,0,1-.23-.23.23.23,0,0,1,.23-.24A.23.23,0,0,1,32.38,20ZM32,22.65V20.57h.37v2.08Z" style="fill: #fff"/>
      <path d="M34.76,19.6v2.52c0,.18,0,.39,0,.53h-.34l0-.36h0a.75.75,0,0,1-.7.41,1,1,0,0,1-.89-1.05,1,1,0,0,1,.93-1.12.69.69,0,0,1,.63.31h0V19.6Zm-.37,1.82a1,1,0,0,0,0-.16.56.56,0,0,0-.55-.43c-.39,0-.63.34-.63.8s.21.77.62.77a.58.58,0,0,0,.55-.46.62.62,0,0,0,0-.16Z" style="fill: #fff"/>
      <path d="M35.61,21.68a.67.67,0,0,0,.71.72,1.35,1.35,0,0,0,.58-.11l.06.27a1.65,1.65,0,0,1-.69.13,1,1,0,0,1-1-1,1,1,0,0,1,1-1.12.88.88,0,0,1,.86,1,.8.8,0,0,1,0,.18Zm1.11-.27a.54.54,0,0,0-.52-.61.62.62,0,0,0-.58.61Z" style="fill: #fff"/>
    </g>
  </g>
  <g data-name="Layer 7" id="Layer_7">
    <path d="M18.23,74.68a3,3,0,1,0,3-3A3,3,0,0,0,18.23,74.68Zm4.75,0a1.74,1.74,0,1,1-1.73-1.73A1.73,1.73,0,0,1,23,74.68Z" id="path47-2" style="fill: #e8e5df"/>
    <path d="M27.36,74.68a3,3,0,1,0,3-3A3,3,0,0,0,27.36,74.68Zm4.75,0a1.74,1.74,0,1,1-1.73-1.73A1.73,1.73,0,0,1,32.1,74.68Z" id="path52-7" style="fill: #e8e5df"/>
    <path d="M9.1,83.82a3,3,0,1,0,3-3A3,3,0,0,0,9.1,83.82Zm4.75,0a1.74,1.74,0,1,1-1.74-1.73A1.74,1.74,0,0,1,13.85,83.82Z" id="path42" style="fill: #e8e5df"/>
    <path d="M18.23,83.82a3,3,0,1,0,3-3A3,3,0,0,0,18.23,83.82Zm4.75,0a1.74,1.74,0,1,1-1.73-1.73A1.73,1.73,0,0,1,23,83.82Z" id="path47" style="fill: #e8e5df"/>
    <path d="M27.36,83.82a3,3,0,1,0,3-3A3,3,0,0,0,27.36,83.82Zm4.75,0a1.74,1.74,0,1,1-1.73-1.73A1.73,1.73,0,0,1,32.1,83.82Z" id="path52" style="fill: #e8e5df"/>
    <path d="M36.36,83.82a3,3,0,1,0,3-3A3,3,0,0,0,36.36,83.82Zm4.74,0a1.74,1.74,0,1,1-1.73-1.73A1.73,1.73,0,0,1,41.11,83.82Z" id="path57" style="fill: #e8e5df"/>
  </g>
  <g id="Connectors">
    <circle cx="12.11" cy="83.82" data-cir-color="green" data-cir-type="male" id="circuitoCon_TXD" r="1.78" style="fill: none"/>
    <circle cx="12.11" cy="74.67" data-cir-color="black" data-cir-type="male" id="circuitoCon_GND" r="1.78" style="fill: none"/>
    <circle cx="21.24" cy="74.67" data-cir-type="male" id="circuitoCon_GPIO_2" r="1.78" style="fill: none"/>
    <circle cx="21.24" cy="83.82" data-cir-color="orange" data-cir-type="male" id="circuitoCon_CH_PD" r="1.78" style="fill: none"/>
    <circle cx="30.31" cy="83.82" data-cir-type="male" id="circuitoCon_RST" r="1.78" style="fill: none"/>
    <circle cx="30.31" cy="74.67" data-cir-type="male" id="circuitoCon_GPIO_0" r="1.78" style="fill: none"/>
    <circle cx="39.37" cy="74.67" data-cir-color="blue" data-cir-type="male" id="circuitoCon_RXD" r="1.78" style="fill: none"/>
    <circle cx="39.37" cy="83.82" data-cir-color="orange" data-cir-type="male" id="circuitoCon_VCC" r="1.78" style="fill: none"/>
  </g>
</svg>