<?xml version="1.0" ?><svg height="25.14mm" viewBox="0 0 60.85 71.25" width="21.47mm" xmlns="http://www.w3.org/2000/svg" xmlns:xlink="http://www.w3.org/1999/xlink">
  <defs>
    <linearGradient gradientUnits="userSpaceOnUse" id="Pewter" x1="20.9" x2="43.69" y1="8.46" y2="8.46">
      <stop offset="0.03" stop-color="#9b9b98"/>
      <stop offset="0.13" stop-color="#a4a5a7"/>
      <stop offset="0.22" stop-color="#aeb0b7"/>
      <stop offset="0.35" stop-color="#9fa3aa"/>
      <stop offset="0.61" stop-color="#788187"/>
      <stop offset="0.72" stop-color="#657076"/>
      <stop offset="1" stop-color="#8b949a"/>
    </linearGradient>
    <linearGradient gradientUnits="userSpaceOnUse" id="Lead" x1="13.93" x2="50.4" y1="20.81" y2="20.81">
      <stop offset="0.01" stop-color="#c4c6c8"/>
      <stop offset="0.36" stop-color="#939598"/>
      <stop offset="0.59" stop-color="#a2a4a7"/>
      <stop offset="0.65" stop-color="#a7a9ac"/>
      <stop offset="0.87" stop-color="#a9abae"/>
      <stop offset="1" stop-color="#a7a9ac"/>
      <stop offset="1" stop-color="#d1d3d4"/>
    </linearGradient>
    <linearGradient data-name="Pewter" id="Pewter-2" x1="17.15" x2="29.1" xlink:href="#Pewter" y1="24.06" y2="24.06"/>
    <linearGradient data-name="Pewter" id="Pewter-3" x1="35.34" x2="47.28" xlink:href="#Pewter" y1="24.06" y2="24.06"/>
  </defs>
  <title>Adafruit PCF8523 Real Time Clock Assembled Breakout Board</title>
  <g id="HOLES">
    <path d="M54.1,1.42H47.33A37.22,37.22,0,0,1,42.23,6,11.86,11.86,0,0,1,35,7.67H26.73c-2.73,0-4.46-.84-5.61-2.25l-3.35,2c-4.06,1.29-5.73-4-1.67-5.25,1.21.42,1.56-.58.36-1H5.54C2.58,1.27.46,4.48.79,8.23V33c0,.82.74.9.83.09a1.73,1.73,0,0,1,3.3,1v1.53H6.06V33.75c-.26-.64,2.7-1.86,3-1.21.69.89,1.06,1.74.46,2.5-.25.63.15.82.79.84s.55.29.61.94V40c0,.45.58.39,1.35.29.49-.14.41-.44.06-.9a1.75,1.75,0,0,1,1-2.61c1-.42,1.87,0,.84-1.13l-3.39-3.45L7.53,29.08v-4.6h.59v4.46L19.83,40.65h1.73L9.31,28.4V24.63h.61v3.6L21.73,40l10.46.21c.69-.06.72.28.75,1.13H32v.86H33v.87l-.84.59.66.65v2.48h-4v.82h5.11v.89H32.17v.84H34v.87H32.58l-.24.24H27v.78h5.31l.26.26H34V52H31.25v1.15H34s.19.56,0,.56H32.71l-.4.39H24v.48L30.41,61c2.28-.43,4,.18,4.81,2.39,0,.41.74.43.75,0,1.91-4.53,8-2,6.07,2.56a3.46,3.46,0,0,1-6.21-.59c0-.53-.92-.53-.92,0-1,2.61-4.57,3.38-6.09-.06-.33-.63-.67-.59-1,0-1.72,3-4.51,3-6.09.18-.32-.83-.85-.75-1.07,0-1.31,2.72-4.24,3-6.09,0-.35-.77-.66-.62-1,0a3.16,3.16,0,0,1-2.34,2V66.26H9.75v1.32A2.92,2.92,0,0,1,7.3,65.06h.94V63.63h-.9a.7.7,0,1,0-1.39,0,2.1,2.1,0,0,1-2-.42A2,2,0,0,1,4,60.36a3.84,3.84,0,0,1,2.74-1.08c.91-1.56-.79-2.24-2-1.65l-1.13,0,0-1.53L2,56l.1.92v.91H.73c-.2,3.71-.27,7.24.69,9.42a5.18,5.18,0,0,0,5.43,3H55.56c2.81-.72,4.16-3,4.29-6.64V8.08C59.85,5,58.84,1.31,54.1,1.42ZM7.25,10.25a3.44,3.44,0,1,1,3.44-3.44A3.44,3.44,0,0,1,7.25,10.25Zm46,57.52a3.44,3.44,0,1,1,3.44-3.44A3.44,3.44,0,0,1,53.25,67.77Z" style="fill: #0b5597"/>
    <path d="M19.29,64.33a1.61,1.61,0,1,0-1.61,1.61A1.61,1.61,0,0,0,19.29,64.33Z" style="fill: none"/>
    <path d="M13.75,39.57a1.14,1.14,0,1,0-1.14-1.13A1.14,1.14,0,0,0,13.75,39.57Z" style="fill: none"/>
    <circle cx="10.44" cy="64.33" r="1.61" style="fill: none"/>
    <path d="M54.1,1.42H47.33A37.22,37.22,0,0,1,42.23,6,11.86,11.86,0,0,1,35,7.67H26.73c-2.73,0-4.46-.84-5.61-2.25l-3.35,2c-4.06,1.29-5.73-4-1.67-5.25,1.21.42,1.56-.58.36-1H5.54C2.58,1.27.46,4.48.79,8.23V33c0,.82.74.9.83.09a1.73,1.73,0,0,1,3.3,1v1.53H6.06V33.75c-.26-.64,2.7-1.86,3-1.21.69.89,1.06,1.74.46,2.5-.25.63.15.82.79.84s.55.29.61.94V40c0,.45.58.39,1.35.29.49-.14.41-.44.06-.9a1.75,1.75,0,0,1,1-2.61c1-.42,1.87,0,.84-1.13l-3.39-3.45L7.53,29.08v-4.6h.59v4.46L19.83,40.65h1.73L9.31,28.4V24.63h.61v3.6L21.73,40l10.46.21c.69-.06.72.28.75,1.13H32v.86H33v.87l-.84.59.66.65v2.48h-4v.82h5.11v.89H32.17v.84H34v.87H32.58l-.24.24H27v.78h5.31l.26.26H34V52H31.25v1.15H34s.19.56,0,.56H32.71l-.4.39H24v.48L30.41,61c2.28-.43,4,.18,4.81,2.39,0,.41.74.43.75,0,1.91-4.53,8-2,6.07,2.56a3.46,3.46,0,0,1-6.21-.59c0-.53-.92-.53-.92,0-1,2.61-4.57,3.38-6.09-.06-.33-.63-.67-.59-1,0-1.72,3-4.51,3-6.09.18-.32-.83-.85-.75-1.07,0-1.31,2.72-4.24,3-6.09,0-.35-.77-.66-.62-1,0a3.16,3.16,0,0,1-2.34,2V66.26H9.75v1.32A2.92,2.92,0,0,1,7.3,65.06h.94V63.63h-.9a.7.7,0,1,0-1.39,0,2.1,2.1,0,0,1-2-.42A2,2,0,0,1,4,60.36a3.84,3.84,0,0,1,2.74-1.08c.91-1.56-.79-2.24-2-1.65l-1.13,0,0-1.53L2,56l.1.92v.91H.73c-.2,3.71-.27,7.24.69,9.42a5.18,5.18,0,0,0,5.43,3H55.56c2.81-.72,4.16-3,4.29-6.64V8.08C59.85,5,58.84,1.31,54.1,1.42Z" style="fill: none"/>
    <circle cx="3.18" cy="33.9" r="1.25" style="fill: none"/>
    <circle cx="7.85" cy="34.19" r="1.25" style="fill: none"/>
    <circle cx="24.88" cy="64.33" r="1.61" style="fill: none"/>
    <path d="M40.87,64.33a1.61,1.61,0,1,0-1.61,1.61A1.61,1.61,0,0,0,40.87,64.33Z" style="fill: none"/>
    <circle cx="32.07" cy="64.33" r="1.61" style="fill: none"/>
    <path d="M54.29,0H47.35c-3.56,3.81-6.45,7-9.41,6.92-5.66,0-12.36.35-14.42-.71S19.14,2.76,16.93,0H6.4A6.39,6.39,0,0,0,0,6.4V64.85a6.39,6.39,0,0,0,6.4,6.4H54.29a6.4,6.4,0,0,0,6.4-6.4V6.4A6.4,6.4,0,0,0,54.29,0Zm5.56,34.58v29c-.13,3.62-1.48,5.92-4.29,6.64H6.85a5.18,5.18,0,0,1-5.43-3c-1-2.18-.89-5.71-.69-9.42H2.1v-.91L2,56l1.59.13,0,1.53,1.13,0c1.21-.59,2.91.09,2,1.65A3.84,3.84,0,0,0,4,60.36a2,2,0,0,0-.1,2.85,2.1,2.1,0,0,0,2,.42.7.7,0,1,1,1.39,0h.9v1.43H7.3a2.92,2.92,0,0,0,2.45,2.52V66.26h1.52v1.23a3.16,3.16,0,0,0,2.34-2c.29-.62.6-.77,1,0,1.85,3,4.78,2.73,6.09,0,.22-.75.75-.83,1.07,0,1.58,2.78,4.37,2.84,6.09-.18.34-.59.68-.63,1,0,1.52,3.44,5.08,2.67,6.09.06,0-.53.92-.53.92,0A3.46,3.46,0,0,0,42,66C44,61.44,37.88,58.88,36,63.41c0,.43-.74.41-.75,0-.83-2.21-2.53-2.82-4.81-2.39L24,54.58V54.1h8.33l.4-.39H34c.19,0,0-.56,0-.56H31.25V52H34v-.47H32.53l-.26-.26H27v-.78h5.38l.24-.24H34v-.87H32.17v-.84h1.77v-.89H28.83v-.82h4V44.35l-.66-.65.84-.59v-.87H32v-.86h.91c0-.85-.06-1.19-.75-1.13L21.73,40,9.92,28.23v-3.6H9.31V28.4L21.56,40.65H19.83L8.12,28.94V24.48H7.53v4.6l3.15,3.15,3.39,3.45c1,1.11.2.71-.84,1.13a1.75,1.75,0,0,0-1,2.61c.35.46.43.76-.06.9-.77.1-1.38.16-1.35-.29V36.82c-.06-.65.15-1-.61-.94s-1-.21-.79-.84c.6-.76.23-1.61-.46-2.5-.26-.65-3.22.57-3,1.21v1.88H4.92V34.1a1.73,1.73,0,0,0-3.3-1c-.09.81-.83.73-.83-.09V8.23c-.33-3.75,1.79-7,4.75-7.1H16.46c1.2.42.85,1.42-.36,1C12,3.42,13.71,8.67,17.77,7.38l3.35-2C22.27,6.83,24,7.69,26.73,7.67H35A11.86,11.86,0,0,0,42.23,6a37.22,37.22,0,0,0,5.1-4.58H54.1c4.74-.11,5.75,3.56,5.75,6.66ZM1.93,33.9a1.25,1.25,0,1,1,1.25,1.25A1.25,1.25,0,0,1,1.93,33.9Zm5.92,1.54A1.25,1.25,0,1,1,9.1,34.19,1.25,1.25,0,0,1,7.85,35.44Zm2.59,27.28a1.61,1.61,0,1,1-1.61,1.61A1.6,1.6,0,0,1,10.44,62.72Zm-3.83-1a1.44,1.44,0,1,1-1.44-1.44A1.45,1.45,0,0,1,6.61,61.75Zm6-23.31a1.14,1.14,0,1,1,1.14,1.13A1.14,1.14,0,0,1,12.61,38.44Zm3.47,25.89a1.61,1.61,0,1,1,1.6,1.61A1.61,1.61,0,0,1,16.08,64.33Zm7.19,0a1.61,1.61,0,1,1,1.61,1.61A1.61,1.61,0,0,1,23.27,64.33Zm7.19,0a1.61,1.61,0,1,1,1.61,1.61A1.61,1.61,0,0,1,30.46,64.33Zm7.2,0a1.61,1.61,0,1,1,1.6,1.61A1.61,1.61,0,0,1,37.66,64.33Z" style="fill: #1a2c80"/>
    <circle cx="5.05" cy="61.75" r="1.55" style="fill: none;stroke: #0b5597;stroke-miterlimit: 10"/>
  </g>
  <g data-name="Blue light lines" id="Blue_light_lines">
    <polygon points="9.63 49.59 13.3 53.27 13.3 55.47 11.97 55.47 11.97 53.19 9.2 50.42 9.63 49.59" style="fill: #0b5597"/>
    <path d="M10.44,53.94h.81v5.72h4.16l.4-.25h.63v1.84A3,3,0,0,0,14.59,63c-.34.67-.66.68-1,0A4.08,4.08,0,0,0,11.5,61l-.06,0v1.14H9.81V61.06a4.46,4.46,0,0,0-2.34,1.28H6.92V61.5l3.52-4.25Z" style="fill: #0b5597"/>
    <polygon points="17.08 58.88 17.08 62.34 18.44 62.34 18.44 58.74 17.08 58.88" style="fill: #0b5597"/>
    <polyline points="23.05 52.84 23.05 55.05 30.63 62.63" style="fill: none;stroke: #0b5597;stroke-linecap: round;stroke-linejoin: round;stroke-width: 0.75px"/>
    <path d="M2.66,44.75c.09,0,1.57,1.58,1.57,1.58h6.89" style="fill: #0b5597"/>
    <path d="M15,38.44a1.25,1.25,0,1,1-1.25-1.25A1.25,1.25,0,0,1,15,38.44Z" style="fill: none;stroke: #0b5597;stroke-linecap: round;stroke-linejoin: round;stroke-width: 0.5px"/>
    <circle cx="3.18" cy="33.9" r="1.25" style="fill: none;stroke: #0b5597;stroke-linecap: round;stroke-linejoin: round;stroke-width: 0.5px"/>
    <circle cx="7.85" cy="34.19" r="1.25" style="fill: none;stroke: #0b5597;stroke-linecap: round;stroke-linejoin: round;stroke-width: 0.5px"/>
    <line style="fill: none;stroke: #0b5597;stroke-linecap: round;stroke-linejoin: round;stroke-width: 0.75px" x1="13.79" x2="13.79" y1="39.83" y2="41.4"/>
    <line style="fill: none;stroke: #0b5597;stroke-linecap: round;stroke-linejoin: round;stroke-width: 0.75px" x1="7.85" x2="7.85" y1="35.63" y2="36.94"/>
    <line style="fill: none;stroke: #0b5597;stroke-linecap: round;stroke-linejoin: round;stroke-width: 0.75px" x1="3.07" x2="3.07" y1="35.58" y2="36.89"/>
  </g>
  <g data-name="white lines" id="white_lines">
    <polyline points="50.4 0.58 50.4 29.92 42.27 38.04 22.48 38.04 20.98 38.04 13.21 30.27 13.21 0.58" style="fill: none;stroke: #fff;stroke-linecap: round;stroke-linejoin: round;stroke-width: 0.5px"/>
    <g>
      <circle cx="7.25" cy="6.81" r="5.5" style="fill: none;stroke: #fff;stroke-linecap: round;stroke-linejoin: round;stroke-width: 0.5px"/>
      <circle cx="7.25" cy="6.81" r="3.59" style="fill: none;stroke: #e3cd96;stroke-miterlimit: 10"/>
    </g>
    <g>
      <circle cx="53.25" cy="64.33" r="5.5" style="fill: none;stroke: #fff;stroke-linecap: round;stroke-linejoin: round;stroke-width: 0.5px"/>
      <circle cx="53.25" cy="64.33" r="3.59" style="fill: none;stroke: #e3cd96;stroke-miterlimit: 10"/>
    </g>
    <polygon points="55.56 44.75 56.69 44.75 56.69 56.17 33.73 56.17 33.73 44.75 55.56 44.75" style="fill: none;stroke: #fff;stroke-linecap: round;stroke-linejoin: round;stroke-width: 0.75px"/>
    <rect height="10.83" rx="1.67" ry="1.67" style="fill: none;stroke: #fff;stroke-linecap: round;stroke-linejoin: round;stroke-width: 0.75px" width="12.4" x="3.23" y="13.83"/>
    <rect height="10.83" rx="1.67" ry="1.67" style="fill: none;stroke: #fff;stroke-linecap: round;stroke-linejoin: round;stroke-width: 0.75px" width="12.4" x="48.07" y="13.9"/>
    <path d="M11.84,27.55a3.77,3.77,0,0,0-3.29.61,5.67,5.67,0,0,0-1.34-2.78c-.43-.61-.81-.74-1.1.28a3.36,3.36,0,0,0-.42,3c-.8-.6-1.9-.31-3.1.28-.84.33-.79.74-.18,1.2A3.88,3.88,0,0,0,4.7,31.48c.45-.08.69-.06.39.21a4.12,4.12,0,0,0-.43,3.07c.07.92.47.8,1,.27a3.64,3.64,0,0,0,1.93-1.81c.15-.33.29-.54.38-.27a.8.8,0,0,0,.46.58,7.79,7.79,0,0,0,2.37.87c.56.19.72,0,.54-.6s-.16-.95-.24-1.3a2.54,2.54,0,0,0-.46-1.12,1.85,1.85,0,0,0-.2-.2L10,31c-.39-.2-.35-.35.11-.43.95-.22,1.47-1.06,1.94-2C12.56,28,12.41,27.68,11.84,27.55Z" style="fill: #fff"/>
  </g>
  <g id="text">
    <g>
      <path d="M4.93,59.53a.18.18,0,0,1-.19-.19.17.17,0,0,1,.19-.19h.75v.75a.57.57,0,0,1-.61.6H4.41A.58.58,0,0,1,4,60.34a.53.53,0,0,1-.18-.46v-1a.82.82,0,0,1,.2-.56l.45-.57A.59.59,0,0,1,5,57.53h.51a.19.19,0,1,1,0,.38H5c-.21,0-.19,0-.32.16l-.42.53a.76.76,0,0,0-.11.49v.75c0,.21,0,.28.26.28h.61c.13,0,.25,0,.25-.2v-.39Z" style="fill: #fff"/>
      <path d="M8.05,57.72c0-.12,0-.19.19-.19s.19.07.19.19V60.5H7.92l-1-2.29h0v2.1c0,.12,0,.19-.19.19s-.19-.07-.19-.19V57.53H7l1,2.31H8Z" style="fill: #fff"/>
      <path d="M9.66,57.91H9.52c-.13,0-.23,0-.23-.19s.1-.19.22-.19h.64a.57.57,0,0,1,.57.38l.34.67a1,1,0,0,1,.11.44.85.85,0,0,1-.11.42l-.35.7a.57.57,0,0,1-.6.36H9.48a.18.18,0,0,1-.19-.19.17.17,0,0,1,.19-.19h.18ZM10,60.12h.08c.16,0,.19,0,.26-.16l.34-.68a.59.59,0,0,0,.07-.25.66.66,0,0,0-.09-.31l-.32-.65c-.08-.16-.12-.16-.29-.16H10Z" style="fill: #fff"/>
    </g>
    <g>
      <path d="M23.09,60.37a.54.54,0,0,1,.13.32.43.43,0,0,1-.48.43H21.9a.58.58,0,0,1-.38-.12.45.45,0,0,1-.18-.36.2.2,0,0,1,.2-.22.18.18,0,0,1,.18.19c0,.11.06.13.17.13h.82s.13,0,.13-.05-.05-.08-.07-.11L21.46,58.9a.45.45,0,0,1-.12-.31.44.44,0,0,1,.2-.37.51.51,0,0,1,.32-.07h.8a.53.53,0,0,1,.56.49.19.19,0,0,1-.2.22.17.17,0,0,1-.18-.18c0-.13-.07-.14-.18-.14h-.81s-.13,0-.13.05a.21.21,0,0,0,.06.1Z" style="fill: #fff"/>
      <path d="M24.46,58.54h-.14c-.13,0-.24,0-.24-.2a.2.2,0,0,1,.22-.19h.64a.58.58,0,0,1,.58.39l.33.67a.83.83,0,0,1,.12.44,1,1,0,0,1-.11.42l-.35.69a.58.58,0,0,1-.6.36h-.64a.19.19,0,0,1,0-.38h.19Zm.38,2.2h.07c.16,0,.2,0,.27-.16l.33-.68a.55.55,0,0,0,.07-.25.66.66,0,0,0-.09-.31l-.32-.64c-.08-.17-.11-.16-.29-.16h0Z" style="fill: #fff"/>
      <path d="M27.58,58.35c0-.1.07-.2.19-.2s.17.1.2.2l.74,2.58c0,.09-.08.19-.19.19a.22.22,0,0,1-.2-.19l-.14-.46h-.82l-.14.46a.23.23,0,0,1-.21.19c-.1,0-.21-.1-.18-.19Zm.2.71h0l-.3,1h.6Z" style="fill: #fff"/>
    </g>
    <g>
      <path d="M54.5,41.17c.18,0,.28.07.28.25s-.1.24-.28.24h-4V40a.79.79,0,0,1,.8-.79h.38a.75.75,0,0,1,.78.79v.45l1.78-1.11a.51.51,0,0,1,.29-.13.26.26,0,0,1,.26.26c0,.1-.07.16-.16.22l-2.17,1.36v.12Zm-2.6,0v-1.1c0-.14,0-.36-.23-.36h-.38c-.22,0-.25.2-.25.35v1.11Z" style="fill: #fff"/>
      <path d="M51,37.6h.2c.18,0,.28.07.28.25s-.1.25-.28.25h-.75V35.65h.75c.18,0,.28.07.28.25s-.1.25-.28.25H51v.48H54.5c.18,0,.28.07.28.24s-.1.25-.28.25H51Z" style="fill: #fff"/>
      <path d="M54.78,33.2a.74.74,0,0,1-.53.74l-1,.46a1.41,1.41,0,0,1-.58.13,1.3,1.3,0,0,1-.61-.14l-1-.45a.75.75,0,0,1-.53-.77v-.84a.25.25,0,0,1,.28-.25.25.25,0,0,1,.27.25v.83c0,.21,0,.25.23.34l1,.43a.88.88,0,0,0,.42.11.8.8,0,0,0,.38-.11l.95-.42c.23-.1.25-.15.25-.37v-.81a.24.24,0,0,1,.27-.25.26.26,0,0,1,.28.25Z" style="fill: #fff"/>
    </g>
    <g>
      <path d="M37.34,60.37a.54.54,0,0,1,.13.32.43.43,0,0,1-.48.43h-.84a.58.58,0,0,1-.38-.12.45.45,0,0,1-.18-.36.2.2,0,0,1,.2-.22.18.18,0,0,1,.18.19c0,.11.06.13.17.13H37s.13,0,.13-.05-.05-.08-.07-.11L35.71,58.9a.45.45,0,0,1-.12-.31.44.44,0,0,1,.2-.37.51.51,0,0,1,.32-.07h.8a.53.53,0,0,1,.56.49.19.19,0,0,1-.2.22.17.17,0,0,1-.18-.18c0-.13-.07-.14-.18-.14H36.1s-.13,0-.13.05a.21.21,0,0,0,.06.1Z" style="fill: #fff"/>
      <path d="M39.39,60.77l-.25.22a.49.49,0,0,1-.35.13.45.45,0,0,1-.33-.14.48.48,0,0,1-.13-.38v-1a.75.75,0,0,1,.31-.63l.78-.66a.43.43,0,0,1,.32-.16.47.47,0,0,1,.48.5v1a.78.78,0,0,1-.3.66l-.23.19.1.23H40a.19.19,0,0,1,.21.19c0,.16-.12.19-.26.19h-.43Zm.16-.63.08-.08a.4.4,0,0,0,.2-.42v-1c0-.06,0-.15-.07-.15s-.07,0-.11.06l-.76.66a.4.4,0,0,0-.18.36v1c0,.06,0,.13.09.13a.17.17,0,0,0,.11-.06l.33-.28-.1-.25a.7.7,0,0,1,0-.18.19.19,0,0,1,.19-.19c.15,0,.17.13.22.25Z" style="fill: #fff"/>
      <path d="M42.26,61.12c-.13,0-.21,0-.23-.16h0c0,.13-.1.16-.23.16H41.5a.2.2,0,0,1-.23-.14l-.14-.23a.25.25,0,0,1-.05-.19V58.34c0-.12.05-.19.19-.19s.19.07.19.19v2.22l.1.18h.17l.1-.18v-1.2c0-.12.05-.23.19-.23s.19.11.19.23v1.2l.11.18h.16l.1-.18V58.34a.17.17,0,0,1,.19-.19c.14,0,.19.07.19.19v2.22a.25.25,0,0,1-.05.19l-.13.23c-.07.12-.1.14-.24.14Z" style="fill: #fff"/>
    </g>
    <g>
      <path d="M59.34,42.81a.17.17,0,0,1,.19.19c0,.13-.07.18-.19.18H56.57V42a.52.52,0,0,1,.15-.42.63.63,0,0,1,.5-.17h.52a.67.67,0,0,1,.49.15.54.54,0,0,1,.18.49v.8Zm-1.31,0V42c0-.21-.06-.26-.27-.26h-.54c-.22,0-.27,0-.27.26v.81Z" style="fill: #fff"/>
      <path d="M59.53,39.56a.55.55,0,0,1-.36.55l-.71.33a.79.79,0,0,1-.4.1.87.87,0,0,1-.42-.1l-.71-.34a.54.54,0,0,1-.36-.56v-.62a.18.18,0,0,1,.19-.19.18.18,0,0,1,.19.19v.61c0,.16,0,.18.16.25l.66.32a.6.6,0,0,0,.29.08.57.57,0,0,0,.26-.08l.66-.31c.16-.07.17-.11.17-.28v-.59a.18.18,0,0,1,.19-.19.18.18,0,0,1,.19.19Z" style="fill: #fff"/>
      <path d="M56.57,37.91V36.28a.17.17,0,0,1,.19-.18.18.18,0,0,1,.19.18v1.26h.59v-.9a.17.17,0,0,1,.19-.18.17.17,0,0,1,.19.18v.9h1.42c.12,0,.19.05.19.18s-.07.19-.19.19Z" style="fill: #fff"/>
      <path d="M56.57,34a.18.18,0,0,1,.19-.18h1.1a.35.35,0,0,1,.11-.27.35.35,0,0,1,.27-.1h.91a.35.35,0,0,1,.38.37V34.9a.35.35,0,0,1-.38.37h-.91a.35.35,0,0,1-.27-.1.34.34,0,0,1-.11-.27h-1.1a.18.18,0,0,1-.19-.18Zm1.29.18H57v.35h.91Zm1.29-.36h-.91V34.9h.91Z" style="fill: #fff"/>
      <path d="M57.86,31.9v-.67a.4.4,0,0,1,.43-.41h.82a.39.39,0,0,1,.29.09.34.34,0,0,1,.13.32V32a.47.47,0,0,1-.07.25l-.06.13c0,.1-.08.21-.21.21a.19.19,0,0,1-.19-.17.24.24,0,0,1,0-.12l0-.11a.73.73,0,0,0,.07-.19v-.85h-.91v1.08H56.57V31a.17.17,0,0,1,.19-.19A.18.18,0,0,1,57,31v.89Z" style="fill: #fff"/>
      <path d="M59.15,29.63V28.37a.18.18,0,0,1,.19-.18.17.17,0,0,1,.19.18V30H58.29a.37.37,0,0,1-.43-.42v-1H57v1.26a.18.18,0,0,1-.19.19.17.17,0,0,1-.19-.19V28.6a.37.37,0,0,1,.1-.3.43.43,0,0,1,.34-.11h.78a.41.41,0,0,1,.34.11.38.38,0,0,1,.11.3v1Z" style="fill: #fff"/>
      <path d="M57,27.18a.18.18,0,0,1-.19.18.17.17,0,0,1-.19-.18V25.92a.37.37,0,0,1,.38-.37h.73a.47.47,0,0,1,.37.14.47.47,0,0,1,.37-.14h.73a.37.37,0,0,1,.38.37v1.26a.17.17,0,0,1-.19.18.18.18,0,0,1-.19-.18V25.92h-.63c-.22,0-.28.08-.28.18v.72a.19.19,0,0,1-.38,0V26.1c0-.1-.07-.18-.28-.18H57Z" style="fill: #fff"/>
    </g>
    <g>
      <path d="M30.09,69.94a.51.51,0,0,1,.13.31.43.43,0,0,1-.48.43H28.9a.53.53,0,0,1-.38-.12.45.45,0,0,1-.18-.35.2.2,0,0,1,.2-.23.18.18,0,0,1,.18.19c0,.12.06.13.17.13h.82s.13,0,.13,0-.05-.09-.07-.11l-1.31-1.69a.45.45,0,0,1-.12-.31.41.41,0,0,1,.2-.36.51.51,0,0,1,.32-.07h.8a.56.56,0,0,1,.38.12.52.52,0,0,1,.18.36c0,.13-.06.23-.2.23a.17.17,0,0,1-.18-.18c0-.13-.07-.15-.18-.15h-.81s-.13,0-.13.05a.17.17,0,0,0,.06.1Z" style="fill: #fff"/>
      <path d="M32.11,70.68a.56.56,0,0,1-.57-.36l-.35-.71a.8.8,0,0,1-.11-.4.78.78,0,0,1,.11-.42l.35-.71a.57.57,0,0,1,.59-.36h.65a.18.18,0,0,1,.19.19.19.19,0,0,1-.19.19h-.64c-.17,0-.19,0-.26.16l-.34.66a.57.57,0,0,0-.08.29.57.57,0,0,0,.08.26l.33.66c.07.16.11.17.28.17h.63a.19.19,0,1,1,0,.38Z" style="fill: #fff"/>
      <path d="M35.52,70.3a.18.18,0,0,1,.19.19.17.17,0,0,1-.19.19H33.83V67.91c0-.12.05-.19.19-.19s.19.07.19.19V70.3Z" style="fill: #fff"/>
    </g>
    <g>
      <path d="M15.34,68.52v-.61c0-.12.05-.19.19-.19s.19.07.19.19v.6a.39.39,0,0,1,0,.15L15,70.52c0,.09-.07.16-.19.16s-.15-.07-.19-.16l-.73-1.86a.39.39,0,0,1,0-.15v-.6c0-.12.05-.19.19-.19a.17.17,0,0,1,.19.19v.61L14.78,70Z" style="fill: #fff"/>
      <path d="M17.61,70.68a.56.56,0,0,1-.57-.36l-.35-.71a.8.8,0,0,1-.11-.4.78.78,0,0,1,.11-.42l.35-.71a.57.57,0,0,1,.59-.36h.65a.18.18,0,0,1,.19.19.19.19,0,0,1-.19.19h-.64c-.17,0-.19,0-.26.16l-.34.66a.57.57,0,0,0-.08.29.57.57,0,0,0,.08.26l.33.66c.07.16.11.17.28.17h.63a.19.19,0,1,1,0,.38Z" style="fill: #fff"/>
      <path d="M20.36,70.68a.58.58,0,0,1-.58-.36l-.35-.71a.91.91,0,0,1-.1-.4.78.78,0,0,1,.11-.42l.35-.71a.57.57,0,0,1,.59-.36H21a.17.17,0,0,1,.19.19.18.18,0,0,1-.19.19h-.63c-.17,0-.19,0-.27.16l-.33.66a.57.57,0,0,0-.08.29.57.57,0,0,0,.08.26l.33.66c.07.16.11.17.28.17H21a.19.19,0,1,1,0,.38Z" style="fill: #fff"/>
    </g>
  </g>
  <g id="a">
    <path d="M21.12,5.42c1.15,2.64,19,3,22.19.5l.38,3.39L30.23,11.5,20.9,7.11Z" style="fill: url(#Pewter)"/>
    <g>
      <circle cx="16.72" cy="4.74" r="2.37" style="fill: #657965"/>
      <circle cx="16.72" cy="4.74" r="1.54" style="fill: #d7bfa1"/>
    </g>
    <path d="M14.78,7.75c1.2-3.35,3.3-5.25,6.7-1.83,6.49,5,14.58,4.33,21.83,0,3.65-2.75,6.35-.67,6.5,3.16h.59V29.92l-1,.45-7.15,7.15H21.83l-7-8.1h-.85V9.08Z" style="fill: url(#Lead)"/>
    <circle cx="23.12" cy="24.06" r="5.97" style="fill: url(#Pewter-2)"/>
    <path d="M24.75,23.81A10.34,10.34,0,0,0,28,27" style="fill: none;stroke: #4f3100;stroke-linecap: round;stroke-linejoin: round;stroke-width: 0.75px"/>
    <circle cx="41.31" cy="24.06" r="5.97" style="fill: url(#Pewter-3)"/>
    <path d="M39.69,23.81A10.45,10.45,0,0,1,36.45,27" style="fill: none;stroke: #4f3100;stroke-linecap: round;stroke-linejoin: round;stroke-width: 0.75px"/>
    <g>
      <rect height="9.19" style="fill: #787975" width="9.88" x="49.66" y="14.88"/>
      <rect height="8.94" rx="1.28" ry="1.28" style="fill: #a19182" width="8.63" x="49.81" y="14.88"/>
      <circle cx="54.78" cy="19.56" r="1.91" style="fill: #d0bb8d"/>
    </g>
    <g>
      <rect height="9.19" style="fill: #787975" transform="translate(18.86 38.63) rotate(180)" width="9.88" x="4.49" y="14.72"/>
      <rect height="8.94" rx="1.28" ry="1.28" style="fill: #a19182" transform="translate(19.8 38.88) rotate(180)" width="8.63" x="5.59" y="14.97"/>
      <circle cx="9.25" cy="19.22" r="1.91" style="fill: #d0bb8d"/>
    </g>
    <g>
      <path d="M3.47,48.23v2.41a1.12,1.12,0,0,1-1.23,1,1.12,1.12,0,0,1-1.23-1V48.23a1.13,1.13,0,0,1,1.23-1A1.13,1.13,0,0,1,3.47,48.23Z" style="fill: #bcbcbc"/>
      <path d="M10,48.23v2.41a1.12,1.12,0,0,1-1.23,1,1.12,1.12,0,0,1-1.23-1V48.23a1.13,1.13,0,0,1,1.23-1A1.13,1.13,0,0,1,10,48.23Z" style="fill: #bcbcbc"/>
      <rect height="6.55" rx="0.58" ry="0.58" style="fill: #e2e2e2" transform="translate(-43.92 54.95) rotate(-90)" width="3.71" x="3.66" y="46.16"/>
      <rect height="3.07" style="fill: #b7967a" transform="translate(-43.99 54.89) rotate(-90)" width="3.71" x="3.6" y="47.9"/>
    </g>
    <g>
      <path d="M3.47,53.73v2.41a1.12,1.12,0,0,1-1.23,1,1.12,1.12,0,0,1-1.23-1V53.73a1.13,1.13,0,0,1,1.23-1A1.13,1.13,0,0,1,3.47,53.73Z" style="fill: #bcbcbc"/>
      <path d="M10,53.73v2.41a1.12,1.12,0,0,1-1.23,1,1.12,1.12,0,0,1-1.23-1V53.73a1.13,1.13,0,0,1,1.23-1A1.13,1.13,0,0,1,10,53.73Z" style="fill: #bcbcbc"/>
      <rect height="6.55" rx="0.58" ry="0.58" style="fill: #e2e2e2" transform="translate(-49.42 60.45) rotate(-90)" width="3.71" x="3.66" y="51.66"/>
      <rect height="3.07" style="fill: #b7967a" transform="translate(-49.49 60.39) rotate(-90)" width="3.71" x="3.6" y="53.4"/>
    </g>
    <rect height="2.85" style="fill: #b1aeaa" width="3.73" x="1.32" y="36.09"/>
    <rect height="2.85" style="fill: #b1aeaa" width="3.73" x="1.32" y="42.07"/>
    <rect height="4.92" style="fill: #edca9c" width="4.44" x="1.01" y="38.16"/>
    <rect height="3.37" style="fill: #333844" width="4.44" x="1.01" y="38.94"/>
    <g>
      <path d="M3.46,41.66H3.22a.05.05,0,0,1-.06-.06s0-.05.06-.05h.29c.05,0,.06,0,.06.05V42a.05.05,0,0,1-.06.06s0,0,0-.06v-.16H2.79V42a.06.06,0,0,1-.12,0v-.27h.79Z" style="fill: #fff"/>
      <path d="M2.67,40.86a.12.12,0,0,1,.12-.12h.67a.11.11,0,0,1,.11.12v.32a.1.1,0,0,1-.11.11H2.79a.11.11,0,0,1-.12-.11Zm.79,0H2.79v.32h.67Z" style="fill: #fff"/>
      <path d="M2.67,40.05a.11.11,0,0,1,.12-.11h.67a.11.11,0,0,1,.11.11v.33a.11.11,0,0,1-.11.11H2.79a.11.11,0,0,1-.12-.11Zm.79,0H2.79v.33h.67Z" style="fill: #fff"/>
      <path d="M3.46,39.58v-.39s0,0,0,0,.06,0,.06,0v.5H3.19a.12.12,0,0,1-.13-.13v-.31H2.79v.38a.06.06,0,0,1-.12,0v-.37a.14.14,0,0,1,0-.09s.06,0,.11,0H3a.14.14,0,0,1,.11,0,.14.14,0,0,1,0,.09v.32Z" style="fill: #fff"/>
    </g>
    <g>
      <rect height="2.85" style="fill: #b1aeaa" transform="translate(16.01 75.03) rotate(-180)" width="3.73" x="6.14" y="36.09"/>
      <rect height="2.85" style="fill: #b1aeaa" transform="translate(16.01 86.99) rotate(-180)" width="3.73" x="6.14" y="42.07"/>
      <rect height="4.92" style="fill: #edca9c" transform="translate(15.92 81.23) rotate(-180)" width="4.44" x="5.74" y="38.16"/>
      <rect height="3.37" style="fill: #333844" transform="translate(15.92 81.25) rotate(-180)" width="4.44" x="5.74" y="38.94"/>
    </g>
    <g>
      <path d="M7.68,39.57h.23a.06.06,0,1,1,0,.12H7.62a.06.06,0,0,1-.06-.06v-.44s0,0,.06,0,.06,0,.06,0v.16h.67v-.16s0,0,.06,0,.06,0,.06,0v.28H7.68Z" style="fill: #fff"/>
      <path d="M8.47,40.38a.12.12,0,0,1-.12.11H7.68a.11.11,0,0,1-.12-.11v-.33a.11.11,0,0,1,.12-.11h.67a.12.12,0,0,1,.12.11Zm-.79,0h.67v-.33H7.68Z" style="fill: #fff"/>
      <path d="M8.47,41.18a.12.12,0,0,1-.12.11H7.68a.11.11,0,0,1-.12-.11v-.33a.11.11,0,0,1,.12-.11h.67a.12.12,0,0,1,.12.11Zm-.79,0h.67v-.33H7.68Z" style="fill: #fff"/>
      <path d="M7.68,41.66V42a.06.06,0,1,1-.12,0v-.49h.38c.09,0,.13,0,.13.12V42h.28V41.6s0-.05.06-.05.06,0,.06.05V42a.1.1,0,0,1,0,.09.13.13,0,0,1-.1,0H8.09a.13.13,0,0,1-.1,0S8,42,8,42v-.31Z" style="fill: #fff"/>
    </g>
    <g>
      <rect height="2.85" style="fill: #b1aeaa" transform="translate(70.36 43.79) rotate(90)" width="3.73" x="11.42" y="55.65"/>
      <rect height="2.85" style="fill: #b1aeaa" transform="translate(76.34 37.82) rotate(90)" width="3.73" x="17.39" y="55.65"/>
      <rect height="4.92" style="fill: #edca9c" transform="translate(73.51 40.74) rotate(90)" width="4.44" x="14.16" y="54.66"/>
      <rect height="3.37" style="fill: #333844" transform="translate(73.52 40.73) rotate(90)" width="4.44" x="14.17" y="55.44"/>
    </g>
    <g>
      <path d="M15.34,57.4v-.23a.06.06,0,0,1,.06-.06s0,0,0,.06v.29s0,.06,0,.06H15a.06.06,0,1,1,0-.12h.16v-.67H15s-.06,0-.06,0a.06.06,0,0,1,.06-.06h.27v.78Z" style="fill: #fff"/>
      <path d="M16.14,56.62a.11.11,0,0,1,.12.11v.67a.12.12,0,0,1-.12.12h-.32a.11.11,0,0,1-.11-.12v-.67a.11.11,0,0,1,.11-.11Zm0,.78v-.67h-.32v.67Z" style="fill: #fff"/>
      <path d="M17,56.62a.11.11,0,0,1,.11.11v.67a.11.11,0,0,1-.11.12h-.33a.11.11,0,0,1-.11-.12v-.67a.11.11,0,0,1,.11-.11Zm0,.78v-.67h-.33v.67Z" style="fill: #fff"/>
      <path d="M17.75,57.4v-.23a.06.06,0,0,1,.06-.06s.05,0,.05.06v.29s0,.06-.05.06h-.44a.06.06,0,1,1,0-.12h.16v-.67h-.16s-.06,0-.06,0a.06.06,0,0,1,.06-.06h.27v.78Z" style="fill: #fff"/>
    </g>
    <g>
      <rect height="14.86" style="fill: #bcb7b6" width="4" x="51" y="43.08"/>
      <rect height="14.86" style="fill: #bcb7b6" width="4" x="35.26" y="43.08"/>
      <g>
        <rect height="9.47" style="fill: #505048" width="21.95" x="34.12" y="45.45"/>
        <rect height="8.19" style="fill: #5b5851" width="18.85" x="37.21" y="46.08"/>
      </g>
      <g>
        <path d="M40.28,49.25a.13.13,0,0,1-.14-.15.14.14,0,0,1,.14-.15h1a.29.29,0,0,1,.29.3v.58a.34.34,0,0,1-.11.29.36.36,0,0,1,.11.29V51a.29.29,0,0,1-.29.3h-1a.15.15,0,0,1,0-.3h1v-.5c0-.17-.06-.22-.14-.22h-.56a.14.14,0,0,1-.15-.15.14.14,0,0,1,.15-.15h.56c.08,0,.14,0,.14-.22v-.5Z" style="fill: #4e4939"/>
        <path d="M42.5,51h1a.15.15,0,0,1,0,.3H42.21v-1a.3.3,0,0,1,.33-.34h.81v-.72h-1a.14.14,0,0,1-.15-.15.14.14,0,0,1,.15-.15h1a.32.32,0,0,1,.24.09.33.33,0,0,1,.09.27v.61a.33.33,0,0,1-.09.27.31.31,0,0,1-.24.08H42.5Z" style="fill: #4e4939"/>
        <path d="M45.06,51.29a.43.43,0,0,1-.43-.28l-.27-.56a.68.68,0,0,1-.07-.32.64.64,0,0,1,.08-.33l.26-.56a.45.45,0,0,1,.45-.29h.49a.15.15,0,0,1,0,.3h-.49c-.12,0-.14,0-.19.13l-.26.52a.6.6,0,0,0-.06.23.47.47,0,0,0,.06.21l.25.52c.06.12.09.13.22.13h.47a.15.15,0,0,1,0,.3Z" style="fill: #4e4939"/>
        <path d="M46.93,50h.53a.27.27,0,0,1,.23.09.27.27,0,0,1,.09.25V51a.28.28,0,0,1-.07.23.26.26,0,0,1-.25.1h-.64a.49.49,0,0,1-.19,0l-.11-.05c-.07,0-.16-.07-.16-.17a.15.15,0,0,1,.14-.15l.09,0,.09,0a.39.39,0,0,0,.15.06h.67v-.72h-.86V49h1a.14.14,0,0,1,.14.15.13.13,0,0,1-.14.15h-.71Z" style="fill: #4e4939"/>
        <path d="M48.72,51h1a.15.15,0,0,1,0,.3H48.43v-1a.3.3,0,0,1,.33-.34h.81v-.72h-1a.14.14,0,0,1-.15-.15.14.14,0,0,1,.15-.15h1a.3.3,0,0,1,.24.09.33.33,0,0,1,.09.27v.61a.33.33,0,0,1-.09.27.3.3,0,0,1-.24.08h-.81Z" style="fill: #4e4939"/>
        <path d="M51.62,50v-.17c0-.1,0-.2.14-.2s.14.1.14.2V50a.37.37,0,0,1,0,.18l-.7,1.59c-.06.13-.09.15-.21.15h-.22c-.08,0-.19,0-.19-.15s.1-.14.19-.14h.19l.21-.44h0c-.11,0-.12-.06-.16-.16l-.34-.78a.59.59,0,0,1-.07-.24v-.13c0-.1,0-.2.14-.2s.14.1.14.2V50l.37.85h.06Z" style="fill: #4e4939"/>
      </g>
      <circle cx="54.12" cy="50.19" r="0.87" style="fill: #2e2926"/>
    </g>
    <g>
      <g>
        <rect height="2.57" style="fill: #b1aeaa" transform="translate(25.85 98.31) rotate(180)" width="3.35" x="11.25" y="47.87"/>
        <rect height="1.84" style="fill: #bcbcbc" transform="translate(30.71 98.27) rotate(180)" width="1.5" x="14.6" y="48.21"/>
      </g>
      <g>
        <rect height="2.57" style="fill: #b1aeaa" transform="translate(25.85 83.2) rotate(180)" width="3.35" x="11.25" y="40.31"/>
        <rect height="1.84" style="fill: #bcbcbc" transform="translate(30.71 83.15) rotate(180)" width="1.5" x="14.6" y="40.66"/>
      </g>
      <g>
        <rect height="2.57" style="fill: #b1aeaa" transform="translate(25.85 90.91) rotate(180)" width="3.35" x="11.25" y="44.17"/>
        <rect height="1.84" style="fill: #bcbcbc" transform="translate(30.71 90.86) rotate(180)" width="1.5" x="14.6" y="44.51"/>
      </g>
      <g>
        <rect height="2.57" style="fill: #b1aeaa" transform="translate(25.85 105.16) rotate(180)" width="3.35" x="11.25" y="51.29"/>
        <rect height="1.84" style="fill: #bcbcbc" transform="translate(30.71 105.11) rotate(180)" width="1.5" x="14.6" y="51.64"/>
      </g>
    </g>
    <g>
      <g>
        <rect height="2.57" style="fill: #b1aeaa" width="3.35" x="29.1" y="47.87"/>
        <rect height="1.84" style="fill: #bcbcbc" width="1.5" x="27.59" y="48.21"/>
      </g>
      <g>
        <rect height="2.57" style="fill: #b1aeaa" width="3.35" x="29.1" y="40.31"/>
        <rect height="1.84" style="fill: #bcbcbc" width="1.5" x="27.59" y="40.66"/>
      </g>
      <g>
        <rect height="2.57" style="fill: #b1aeaa" width="3.35" x="29.1" y="44.17"/>
        <rect height="1.84" style="fill: #bcbcbc" width="1.5" x="27.59" y="44.51"/>
      </g>
      <g>
        <rect height="2.57" style="fill: #b1aeaa" width="3.35" x="29.1" y="51.29"/>
        <rect height="1.84" style="fill: #bcbcbc" width="1.5" x="27.59" y="51.64"/>
      </g>
    </g>
    <rect height="14.01" rx="0.8" ry="0.8" style="fill: #5d5955" width="11.46" x="16.1" y="40.07"/>
    <g>
      <path d="M24.17,48.78h.49c.06,0,.12,0,.12.08s-.06.08-.12.08H24c-.07,0-.13,0-.13-.08s.06-.08.12-.08h0l-.09-.13a.25.25,0,0,1-.06-.14v-.12a.2.2,0,0,1,.06-.15c.07-.08.14-.07.23-.08h.53c.06,0,.13,0,.13.08s-.06.08-.12.08h-.52c-.1,0-.14,0-.14.12v.05a.06.06,0,0,0,0,0Z" style="fill: #bc946a"/>
      <path d="M24.16,47.58V47c0-.08,0-.1.11-.1h.4c.08,0,.11,0,.11.11v.62c0,.08,0,.11-.11.11H23.5a.08.08,0,0,1-.09-.08v-.1a.09.09,0,0,1,.09-.08.09.09,0,0,1,.09.09Zm.17,0h.27v-.5h-.27Z" style="fill: #bc946a"/>
      <path d="M23.59,46.36a.09.09,0,0,1,.09.09.09.09,0,0,1-.09.08H23.5a.09.09,0,0,1-.09-.08v-.76h.51c.06,0,.07,0,.11.05l.21.24a.12.12,0,0,0,.11.05h.34c.06,0,.09,0,.09.08s0,.08-.09.08h-.42c-.06,0-.07,0-.1,0L24,45.92c-.05-.06-.05-.06-.13-.06h-.24Z" style="fill: #bc946a"/>
      <path d="M24.6,44.65h-.35a.08.08,0,0,1-.09-.09c0-.06,0-.08.09-.08h.44a.08.08,0,0,1,.09.08v.67a.09.09,0,1,1-.18,0V45h-1v.25a.09.09,0,1,1-.18,0v-.42H24.6Z" style="fill: #bc946a"/>
      <path d="M24.6,43.93v-.58a.09.09,0,0,1,.18,0v.75h-.57c-.14,0-.2-.06-.2-.19v-.48h-.42V44a.09.09,0,0,1-.18,0v-.57a.17.17,0,0,1,.05-.13.19.19,0,0,1,.16-.06H24a.17.17,0,0,1,.15.06.17.17,0,0,1,.05.13v.48Z" style="fill: #bc946a"/>
    </g>
    <g>
      <path d="M20.82,49c-.07,0-.1,0-.1-.08s0-.08.1-.08h.46l-.52-.51s0,0,0-.07a.09.09,0,0,1,.1-.08.14.14,0,0,1,.09,0l.58.58.59-.57a.13.13,0,0,1,.09,0,.09.09,0,0,1,.1.08s0,.06-.06.09l-.5.49h.46c.07,0,.1,0,.1.08s0,.08-.1.08Z" style="fill: #bc946a"/>
      <path d="M21.39,47.42v-.31a.15.15,0,0,1,.06-.13.21.21,0,0,1,.17,0h.43a.2.2,0,0,1,.15,0,.14.14,0,0,1,.07.14v.37a.27.27,0,0,1,0,.12l0,.06s0,.09-.11.09a.09.09,0,0,1-.1-.08s0,0,0-.05l0,0a.25.25,0,0,0,0-.09v-.39h-.48v.5h-.87V47s0-.08.1-.08.1,0,.1.08v.41Z" style="fill: #bc946a"/>
      <path d="M20.72,44.67a.18.18,0,0,1,.2-.16h1.15a.18.18,0,0,1,.2.16v.5a.19.19,0,0,1-.2.17H20.92a.19.19,0,0,1-.2-.17Zm1.35,0H20.92v.5h1.15Z" style="fill: #bc946a"/>
      <path d="M21.39,43.79v-.31a.15.15,0,0,1,.06-.13.21.21,0,0,1,.17-.05h.43a.2.2,0,0,1,.15,0,.14.14,0,0,1,.07.14v.38a.23.23,0,0,1,0,.11l0,.06s0,.1-.11.1a.1.1,0,0,1-.1-.08A.14.14,0,0,1,22,44l0-.05a.25.25,0,0,0,0-.09v-.38h-.48V44h-.87v-.58s0-.08.1-.08.1,0,.1.08v.41Z" style="fill: #bc946a"/>
    </g>
    <g>
      <path d="M24.09,51.19c0,.08,0,.12-.11.12s-.12,0-.12-.12V49.44h.31l.6,1.44h0V49.56c0-.08,0-.12.11-.12s.12,0,.12.12v1.75H24.7l-.6-1.46h0Z" style="fill: #bc946a"/>
      <path d="M22.9,50.38l.42.73a.29.29,0,0,1,0,.09.11.11,0,0,1-.11.11c-.08,0-.1-.06-.13-.11l-.33-.58-.32.58s-.06.11-.14.11a.11.11,0,0,1-.11-.11.16.16,0,0,1,0-.09l.41-.73-.41-.74a.14.14,0,0,1,0-.09.11.11,0,0,1,.11-.11c.08,0,.1.06.14.12l.32.57.33-.57c0-.06,0-.12.13-.12a.11.11,0,0,1,.11.11.24.24,0,0,1,0,.09Z" style="fill: #bc946a"/>
      <path d="M21.45,49.56c0-.08,0-.12.11-.12a.11.11,0,0,1,.12.12v1.75h-.77a.33.33,0,0,1-.27-.09.39.39,0,0,1-.11-.32v-.33a.4.4,0,0,1,.1-.31.36.36,0,0,1,.31-.11h.51Zm0,.83h-.52c-.14,0-.17,0-.17.17v.34c0,.14,0,.17.17.17h.52Z" style="fill: #bc946a"/>
    </g>
    <path d="M20.9,10.69l-.22,7.5.51.37v5.35c0,2.12,3.59,2.12,3.59,0V18.75l.78-.66v-7.4Z" style="fill: #b4b4b4"/>
    <path d="M39,10.69l-.22,7.5.5.37v5.35c0,2.12,3.59,2.12,3.59,0V18.75l.79-.66v-7.4Z" style="fill: #b4b4b4"/>
    <path d="M31.6,29.44c0-.47.17-.73.62-.73s.61.26.61.73v2.18h1.81c.32,0,.61.2.61.73s-.29.73-.61.73H32.83v2.15c0,.47-.17.73-.61.73s-.62-.26-.62-.73V33.08H29.8c-.32,0-.62-.2-.62-.73s.3-.73.62-.73h1.8Z" style="fill: #c3c3c3"/>
  </g>
  <g id="Connectors">
    <ellipse cx="39.26" cy="64.33" data-cir-type="male" id="circuitoCon_SQW" rx="2.05" ry="1.99" style="fill: none;stroke: #e8e5df;stroke-miterlimit: 10;stroke-width: 1.224px"/>
    <ellipse cx="32.07" cy="64.33" data-cir-type="male" id="circuitoCon_SCL" rx="2.05" ry="1.99" style="fill: none;stroke: #e8e5df;stroke-miterlimit: 10;stroke-width: 1.224px"/>
    <ellipse cx="17.68" cy="64.33" data-cir-type="male" id="circuitoCon_VCC" rx="2.05" ry="1.99" style="fill: none;stroke: #e8e5df;stroke-miterlimit: 10;stroke-width: 1.224px"/>
    <ellipse cx="10.44" cy="64.33" data-cir-type="male" id="circuitoCon_GND" rx="2.05" ry="1.99" style="fill: none;stroke: #e8e5df;stroke-miterlimit: 10;stroke-width: 1.224px"/>
    <ellipse cx="24.88" cy="64.33" data-cir-type="male" id="circuitoCon_SDA" rx="2.05" ry="1.99" style="fill: none;stroke: #e8e5df;stroke-miterlimit: 10;stroke-width: 1.224px"/>
  </g>
</svg>