<?xml version="1.0" ?><svg height="41.53mm" viewBox="0 0 61.41 117.74" width="21.67mm" xmlns="http://www.w3.org/2000/svg" xmlns:xlink="http://www.w3.org/1999/xlink">
  <defs>
    <linearGradient data-name="Steel 02" gradientUnits="userSpaceOnUse" id="Steel_02" x1="15.35" x2="46.06" y1="57.3" y2="4.11">
      <stop offset="0" stop-color="#e5e2df"/>
      <stop offset="0" stop-color="#d8d4d0"/>
      <stop offset="0" stop-color="#ccc7c2"/>
      <stop offset="0.07" stop-color="#bdb9b4"/>
      <stop offset="0.15" stop-color="#a7a3a0"/>
      <stop offset="0.52" stop-color="#e0e1e2"/>
      <stop offset="0.62" stop-color="#d3d3d3"/>
      <stop offset="0.82" stop-color="#b2afac"/>
      <stop offset="0.88" stop-color="#a7a3a0"/>
      <stop offset="1" stop-color="#d1d3d4"/>
      <stop offset="1" stop-color="#a7a9ac"/>
    </linearGradient>
    <linearGradient gradientUnits="userSpaceOnUse" id="linear-gradient" x1="5.86" x2="56.88" y1="75.08" y2="75.08">
      <stop offset="0" stop-color="#404040"/>
      <stop offset="0.17" stop-color="#3e3e3e"/>
      <stop offset="0.23" stop-color="#373737"/>
      <stop offset="0.27" stop-color="#2c2c2c"/>
      <stop offset="0.31" stop-color="#1b1b1b"/>
      <stop offset="0.33" stop-color="#050505"/>
      <stop offset="0.34"/>
      <stop offset="0.66"/>
      <stop offset="0.66" stop-color="#050505"/>
      <stop offset="0.69" stop-color="#1b1b1b"/>
      <stop offset="0.72" stop-color="#2c2c2c"/>
      <stop offset="0.75" stop-color="#373737"/>
      <stop offset="0.8" stop-color="#3e3e3e"/>
      <stop offset="0.93" stop-color="#404040"/>
      <stop offset="0.97" stop-color="#1b1b1b"/>
      <stop offset="1"/>
    </linearGradient>
    <linearGradient gradientUnits="userSpaceOnUse" id="linear-gradient-2" x1="22.2" x2="39.21" y1="66" y2="66">
      <stop offset="0" stop-color="#404040"/>
      <stop offset="0.54" stop-color="#1b1b1b"/>
      <stop offset="1"/>
    </linearGradient>
    <radialGradient cx="30.71" cy="57.88" gradientUnits="userSpaceOnUse" id="radial-gradient" r="5">
      <stop offset="0" stop-color="#ccc"/>
      <stop offset="0.36" stop-color="#cacaca"/>
      <stop offset="0.5" stop-color="#c3c3c3"/>
      <stop offset="0.61" stop-color="#b7b7b7"/>
      <stop offset="0.69" stop-color="#a6a6a6"/>
      <stop offset="0.77" stop-color="#8f8f8f"/>
      <stop offset="0.83" stop-color="#737373"/>
      <stop offset="0.89" stop-color="#525252"/>
      <stop offset="0.95" stop-color="#2d2d2d"/>
      <stop offset="1" stop-color="#030303"/>
      <stop offset="1"/>
    </radialGradient>
  </defs>
  <title>Photoelectric Speed Wheel Encoder</title>
  <g data-name="Layer 3" id="Layer_3">
    <g>
      <path d="M18.58,14.71c.17.24.32.3.57.13l0,0a.38.38,0,0,0,.1-.61L14.82,7.72c-.17-.24-.36-.08-.6.09s-.46.29-.29.53Z" style="fill: none"/>
      <path d="M20.06,13.72c.15.26.29.33.55.18l0,0a.38.38,0,0,0,.15-.59L16.92,6.43c-.15-.26-.35-.11-.61,0s-.48.25-.33.51Z" style="fill: none"/>
      <path d="M17.19,15.82c.19.23.35.27.58.08l0,0a.38.38,0,0,0,0-.61l-5-6.08c-.19-.23-.36-.05-.59.14s-.43.33-.24.56Z" style="fill: none"/>
      <path d="M21.62,12.87c.13.27.26.35.53.23l0,0a.38.38,0,0,0,.2-.58L19.13,5.34c-.13-.27-.34-.14-.61,0s-.5.21-.38.48Z" style="fill: none"/>
      <path d="M15.9,17c.21.21.37.24.58,0l0,0a.38.38,0,0,0,0-.61L11,10.81c-.21-.21-.36,0-.58.19s-.4.36-.19.58Z" style="fill: none"/>
      <path d="M27.12,11.53h0a.38.38,0,0,0,.34-.51L26.21,3.25c-.05-.29-.29-.23-.58-.17s-.54.07-.49.36l1.52,7.73C26.72,11.47,26.83,11.58,27.12,11.53Z" style="fill: none"/>
      <path d="M23.25,12.16c.1.28.23.38.51.27h0a.38.38,0,0,0,.25-.56L21.43,4.44c-.1-.28-.32-.17-.6-.07s-.52.16-.42.44Z" style="fill: none"/>
      <path d="M24.94,11.59c.08.29.2.39.49.32h0a.38.38,0,0,0,.3-.54l-2-7.62c-.08-.29-.31-.2-.59-.12s-.53.11-.45.4Z" style="fill: none"/>
      <path d="M28.85,11.31h0c.3,0,.41-.18.39-.48L28.66,3c0-.3-.27-.25-.56-.22s-.54,0-.52.32l.84,7.84C28.45,11.2,28.55,11.33,28.85,11.31Z" style="fill: none"/>
      <path d="M14.72,18.38c.23.19.39.21.58,0l0,0a.38.38,0,0,0-.06-.61l-6-5.12c-.23-.19-.36,0-.56.24s-.37.4-.14.59Z" style="fill: none"/>
      <path d="M2.38,29.26l7.86.53c.3,0,.44-.05.47-.35v0c0-.3-.1-.44-.4-.46l-7.83-.76c-.3,0-.29.22-.32.52S2.09,29.23,2.38,29.26Z" style="fill: none"/>
      <path d="M2.66,26.81,10.44,28c.29.05.44,0,.49-.31v0c.05-.29-.07-.45-.36-.5L2.85,25.74c-.29-.05-.31.19-.36.49S2.36,26.76,2.66,26.81Z" style="fill: none"/>
      <path d="M2.32,31.73l7.88-.15c.3,0,.43-.09.43-.39v0c0-.3-.14-.43-.44-.43l-7.87-.08c-.3,0-.27.24-.27.54S2,31.73,2.32,31.73Z" style="fill: none"/>
      <path d="M50.86,29c-.3,0-.42.13-.4.42v0c0,.3.18.41.48.39l7.85-.61c.3,0,.25-.27.22-.56s0-.54-.32-.52Z" style="fill: none"/>
      <path d="M13.66,19.81c.24.17.41.17.58-.07l0,0a.38.38,0,0,0-.12-.6l-6.4-4.58c-.24-.17-.36,0-.53.29s-.33.43-.09.6Z" style="fill: none"/>
      <path d="M3.84,22l7.46,2.55c.28.1.44.06.54-.22v0a.38.38,0,0,0-.27-.55L4.21,21c-.28-.1-.34.14-.44.42S3.56,21.92,3.84,22Z" style="fill: none"/>
      <path d="M5.84,17.52l6.9,3.81c.26.15.42.14.57-.12l0,0a.38.38,0,0,0-.17-.59l-6.78-4c-.26-.15-.36.08-.51.33S5.58,17.37,5.84,17.52Z" style="fill: none"/>
      <path d="M4.74,19.73l7.21,3.19c.27.13.43.1.56-.17l0,0a.38.38,0,0,0-.22-.57L5.2,18.75c-.27-.13-.35.11-.48.38S4.47,19.6,4.74,19.73Z" style="fill: none"/>
      <path d="M30.59,11.23h0c.3,0,.43-.14.43-.44l.08-7.87c0-.3-.24-.27-.54-.27s-.54,0-.54.27l.15,7.88C30.2,11.09,30.29,11.23,30.59,11.23Z" style="fill: none"/>
      <path d="M48.67,22.75l0,0a.38.38,0,0,0,.58.2l7.16-3.26c.27-.13.14-.34,0-.61s-.21-.5-.48-.38L48.9,22.22C48.63,22.34,48.55,22.48,48.67,22.75Z" style="fill: none"/>
      <path d="M10.31,33.35c.3,0,.42-.13.4-.42v0c0-.3-.18-.41-.48-.39l-7.85.61c-.3,0-.25.27-.22.56s0,.54.32.52Z" style="fill: none"/>
      <path d="M46.93,19.74l0,0a.38.38,0,0,0,.61.1l6.49-4.45c.24-.17.08-.36-.09-.6s-.29-.46-.53-.29l-6.37,4.64C46.82,19.34,46.76,19.49,46.93,19.74Z" style="fill: none"/>
      <path d="M45.87,18.36l0,0a.38.38,0,0,0,.61,0l6.08-5c.23-.19.05-.36-.14-.59s-.33-.43-.56-.24L46,17.78C45.73,18,45.68,18.13,45.87,18.36Z" style="fill: none"/>
      <path d="M49.34,24.36v0a.38.38,0,0,0,.56.25L57.33,22c.28-.1.17-.32.07-.6s-.16-.52-.44-.42l-7.35,2.84C49.33,23.95,49.24,24.08,49.34,24.36Z" style="fill: none"/>
      <path d="M50.24,27.72v0a.38.38,0,0,0,.51.34l7.76-1.29c.29-.05.23-.29.17-.58s-.07-.54-.36-.49L50.6,27.26C50.3,27.31,50.19,27.43,50.24,27.72Z" style="fill: none"/>
      <path d="M58.85,30.64,51,30.8c-.3,0-.43.09-.43.39v0c0,.3.14.43.44.43l7.87.08c.3,0,.27-.24.27-.54S59.15,30.64,58.85,30.64Z" style="fill: none"/>
      <path d="M44.7,17.07l0,0a.38.38,0,0,0,.61,0L51,11.58c.21-.21,0-.36-.19-.58s-.36-.4-.58-.19l-5.46,5.68C44.52,16.7,44.49,16.86,44.7,17.07Z" style="fill: none"/>
      <path d="M49.86,26v0a.38.38,0,0,0,.54.3l7.62-2c.29-.08.2-.31.12-.59s-.11-.53-.4-.45l-7.57,2.19C49.89,25.61,49.78,25.73,49.86,26Z" style="fill: none"/>
      <path d="M47.87,21.21l0,0a.38.38,0,0,0,.59.15l6.85-3.87c.26-.15.11-.35,0-.6s-.25-.48-.51-.33L48,20.65C47.79,20.8,47.72,20.95,47.87,21.21Z" style="fill: none"/>
      <path d="M34.05,11.53h0c.29.05.45-.07.5-.36L36,3.44c.05-.29-.19-.31-.49-.36S35,3,35,3.25L33.75,11C33.69,11.33,33.76,11.48,34.05,11.53Z" style="fill: none"/>
      <path d="M37.41,12.43h0a.38.38,0,0,0,.55-.27l2.76-7.37c.1-.28-.14-.34-.42-.44s-.5-.21-.6.07L37.2,11.89C37.09,12.17,37.13,12.33,37.41,12.43Z" style="fill: none"/>
      <path d="M35.75,11.91h0a.38.38,0,0,0,.53-.31L38.43,4c.08-.29-.17-.33-.45-.4s-.52-.17-.59.12l-1.89,7.65C35.41,11.68,35.46,11.83,35.75,11.91Z" style="fill: none"/>
      <path d="M32.33,11.31h0c.3,0,.44-.1.46-.4l.76-7.83c0-.3-.22-.29-.52-.32s-.54-.07-.56.22L32,10.84C32,11.14,32,11.28,32.33,11.31Z" style="fill: none"/>
      <path d="M40.56,13.9l0,0a.38.38,0,0,0,.59-.17l4-6.78c.15-.26-.08-.36-.33-.51s-.46-.29-.6,0l-3.81,6.9C40.3,13.59,40.31,13.75,40.56,13.9Z" style="fill: none"/>
      <path d="M42,14.84l0,0a.38.38,0,0,0,.6-.12l4.58-6.4c.17-.24,0-.36-.29-.53s-.43-.33-.6-.09L42,14.26C41.79,14.5,41.79,14.67,42,14.84Z" style="fill: none"/>
      <path d="M39,13.1l0,0a.38.38,0,0,0,.57-.22L43,5.79c.13-.27-.11-.35-.38-.48s-.48-.25-.61,0l-3.19,7.21C38.73,12.81,38.75,13,39,13.1Z" style="fill: none"/>
      <path d="M43.41,15.9l0,0a.38.38,0,0,0,.61-.06l5.12-6c.19-.23,0-.36-.24-.56s-.4-.37-.59-.14l-4.95,6.13C43.2,15.54,43.19,15.71,43.41,15.9Z" style="fill: none"/>
      <path d="M3.14,24.39l7.65,1.89c.29.08.44,0,.52-.26v0a.38.38,0,0,0-.31-.53L3.42,23.34c-.29-.08-.33.17-.4.45S2.86,24.31,3.14,24.39Z" style="fill: none"/>
      <path d="M42.6,47.66c-.17-.24-.32-.3-.57-.13l0,0a.38.38,0,0,0-.1.61l4.45,6.49c.17.24.36.08.6-.09s.46-.29.29-.53Z" style="fill: none"/>
      <path d="M46.45,44c-.23-.19-.39-.21-.58,0l0,0a.38.38,0,0,0,.06.61l6,5.12c.23.19.36,0,.56-.24s.37-.4.14-.59Z" style="fill: none"/>
      <path d="M45.28,45.33c-.21-.21-.37-.24-.58,0l0,0a.38.38,0,0,0,0,.61l5.51,5.62c.21.21.36,0,.58-.19s.4-.36.19-.58Z" style="fill: none"/>
      <path d="M41.12,48.65c-.15-.26-.29-.33-.55-.18l0,0a.38.38,0,0,0-.15.59l3.87,6.85c.15.26.35.11.6,0s.48-.25.33-.51Z" style="fill: none"/>
      <path d="M44,46.55c-.19-.23-.35-.27-.58-.08l0,0a.38.38,0,0,0,0,.61l5,6.08c.19.23.36.05.59-.14s.43-.33.24-.56Z" style="fill: none"/>
      <path d="M34.05,50.83h0a.38.38,0,0,0-.34.51L35,59.11c.05.29.29.23.58.17s.54-.07.49-.36l-1.52-7.73C34.46,50.9,34.35,50.78,34.05,50.83Z" style="fill: none"/>
      <path d="M36.24,50.78c-.08-.29-.2-.39-.49-.32h0a.38.38,0,0,0-.3.54l2,7.62c.08.29.31.2.59.12s.53-.11.45-.4Z" style="fill: none"/>
      <path d="M37.93,50.21c-.1-.28-.23-.38-.51-.27h0a.38.38,0,0,0-.25.56l2.62,7.42c.1.28.32.17.6.07s.52-.16.42-.44Z" style="fill: none"/>
      <path d="M39.56,49.5c-.13-.27-.26-.35-.53-.23l0,0a.38.38,0,0,0-.2.58L42,57c.13.27.34.14.61,0s.5-.21.38-.48Z" style="fill: none"/>
      <path d="M58,38l-7.65-1.89c-.29-.08-.44,0-.52.26v0a.38.38,0,0,0,.31.53L57.75,39c.29.08.33-.17.4-.45S58.32,38.05,58,38Z" style="fill: none"/>
      <path d="M58.52,35.56l-7.79-1.22c-.29-.05-.44,0-.49.31v0c-.05.29.07.45.36.5l7.74,1.44c.29.05.31-.19.36-.49S58.81,35.61,58.52,35.56Z" style="fill: none"/>
      <path d="M58.79,33.11l-7.86-.53c-.3,0-.44.05-.47.35v0c0,.3.1.44.4.46l7.83.76c.3,0,.29-.22.32-.52S59.09,33.13,58.79,33.11Z" style="fill: none"/>
      <path d="M47.51,42.56c-.24-.17-.41-.17-.58.07l0,0a.38.38,0,0,0,.12.6l6.4,4.58c.24.17.36,0,.53-.29s.33-.43.09-.6Z" style="fill: none"/>
      <path d="M55.34,44.85,48.44,41c-.26-.15-.42-.14-.57.12l0,0a.38.38,0,0,0,.17.59l6.78,4c.26.15.36-.08.51-.33S55.6,45,55.34,44.85Z" style="fill: none"/>
      <path d="M57.33,40.34l-7.46-2.55c-.28-.1-.44-.06-.54.22v0a.38.38,0,0,0,.27.55L57,41.36c.28.1.34-.14.44-.42S57.61,40.44,57.33,40.34Z" style="fill: none"/>
      <path d="M56.43,42.64l-7.21-3.19c-.27-.13-.43-.1-.56.17l0,0a.38.38,0,0,0,.22.57L56,43.62c.27.13.35-.11.48-.38S56.7,42.76,56.43,42.64Z" style="fill: none"/>
      <path d="M27.12,50.83h0c-.29-.05-.45.07-.5.36l-1.44,7.74c-.05.29.19.31.49.36s.53.12.58-.17l1.22-7.79C27.48,51,27.42,50.89,27.12,50.83Z" style="fill: none"/>
      <path d="M17.76,46.47l0,0a.38.38,0,0,0-.61.06l-5.12,6c-.19.23,0,.36.24.56s.4.37.59.14l4.95-6.13C18,46.82,18,46.66,17.76,46.47Z" style="fill: none"/>
      <path d="M32.33,51.06h0c-.3,0-.41.18-.39.48l.61,7.85c0,.3.27.25.56.22s.54,0,.52-.32l-.84-7.84C32.73,51.16,32.62,51,32.33,51.06Z" style="fill: none"/>
      <path d="M16.48,45.29l0,0a.38.38,0,0,0-.61,0l-5.62,5.51c-.21.21,0,.36.19.58s.36.4.58.19l5.46-5.68C16.66,45.66,16.69,45.5,16.48,45.29Z" style="fill: none"/>
      <path d="M13.31,41.16l0,0a.38.38,0,0,0-.59-.15L5.84,44.85c-.26.15-.11.35,0,.6s.25.48.51.33l6.75-4.07C13.38,41.56,13.46,41.42,13.31,41.16Z" style="fill: none"/>
      <path d="M14.24,42.63l0,0a.38.38,0,0,0-.61-.1L7.12,47c-.24.17-.08.36.09.6s.29.46.53.29l6.37-4.64C14.35,43,14.41,42.87,14.24,42.63Z" style="fill: none"/>
      <path d="M11.31,36.35v0a.38.38,0,0,0-.54-.3L3.14,38c-.29.08-.2.31-.12.59s.11.53.4.45L11,36.84C11.28,36.76,11.39,36.64,11.31,36.35Z" style="fill: none"/>
      <path d="M11.84,38v0a.38.38,0,0,0-.56-.25L3.84,40.34c-.28.1-.17.32-.07.6s.16.52.44.42l7.35-2.84C11.84,38.42,11.94,38.29,11.84,38Z" style="fill: none"/>
      <path d="M12.5,39.62l0,0a.38.38,0,0,0-.58-.2L4.74,42.64c-.27.13-.14.34,0,.61s.21.5.48.38l7.08-3.47C12.54,40,12.63,39.89,12.5,39.62Z" style="fill: none"/>
      <path d="M15.3,44l0,0a.38.38,0,0,0-.61,0l-6.08,5c-.23.19-.05.36.14.59s.33.43.56.24l5.94-5.18C15.45,44.39,15.49,44.24,15.3,44Z" style="fill: none"/>
      <path d="M25.42,50.46h0a.38.38,0,0,0-.53.31l-2.11,7.58c-.08.29.17.33.45.4s.52.17.59-.12L25.69,51C25.76,50.69,25.71,50.54,25.42,50.46Z" style="fill: none"/>
      <path d="M10.94,34.65v0a.38.38,0,0,0-.51-.34L2.66,35.56c-.29.05-.23.29-.17.58s.07.54.36.49l7.73-1.52C10.87,35.05,11,34.94,10.94,34.65Z" style="fill: none"/>
      <path d="M28.85,51.06h0c-.3,0-.44.1-.46.4l-.76,7.83c0,.3.22.29.52.32s.54.07.56-.22l.53-7.86C29.22,51.23,29.15,51.09,28.85,51.06Z" style="fill: none"/>
      <path d="M19.14,47.53l0,0a.38.38,0,0,0-.6.12L13.93,54c-.17.24,0,.36.29.53s.43.33.6.09l4.39-6.54C19.38,47.86,19.39,47.7,19.14,47.53Z" style="fill: none"/>
      <path d="M20.61,48.46l0,0a.38.38,0,0,0-.59.17l-4,6.78c-.15.26.08.36.33.51s.46.29.61,0L20.73,49C20.88,48.78,20.87,48.61,20.61,48.46Z" style="fill: none"/>
      <path d="M30.59,51.14h0c-.3,0-.43.14-.43.44L30,59.45c0,.3.24.27.54.27s.54,0,.54-.27L31,51.57C31,51.27,30.89,51.14,30.59,51.14Z" style="fill: none"/>
      <path d="M23.76,49.93h0a.38.38,0,0,0-.55.27l-2.76,7.37c-.1.28.14.34.42.44s.5.21.6-.07L24,50.47C24.08,50.19,24,50,23.76,49.93Z" style="fill: none"/>
      <path d="M22.15,49.27l0,0a.38.38,0,0,0-.57.22l-3.39,7.1c-.13.27.11.35.38.48s.48.25.61,0l3.19-7.21C22.45,49.56,22.42,49.39,22.15,49.27Z" style="fill: none"/>
      <path d="M30.71,0A30.71,30.71,0,1,0,61.41,30.71,30.71,30.71,0,0,0,30.71,0ZM59,28.7c0,.3.07.54-.22.56l-7.85.61c-.3,0-.45-.09-.48-.39v0c0-.3.1-.4.4-.42l7.84-.84C59,28.15,59,28.4,59,28.7Zm.11,2.49c0,.3,0,.54-.27.54L51,31.65c-.3,0-.44-.13-.44-.43v0c0-.3.14-.39.43-.39l7.88-.15C59.15,30.64,59.13,30.89,59.13,31.18Zm-.43-5c.05.29.12.53-.17.58L50.75,28.1a.38.38,0,0,1-.51-.34v0c-.05-.29.07-.41.36-.46l7.73-1.52C58.62,25.69,58.64,25.93,58.69,26.23Zm-.54-2.43c.08.29.17.52-.12.59l-7.62,2a.38.38,0,0,1-.54-.3v0c-.08-.29,0-.41.32-.49l7.57-2.19C58,23.27,58.08,23.51,58.15,23.8Zm-.75-2.37c.1.28.21.5-.07.6l-7.42,2.62a.38.38,0,0,1-.56-.25v0c-.1-.28,0-.41.27-.51L57,21C57.24,20.91,57.3,21.14,57.4,21.42Zm-1-2.3c.13.27.25.48,0,.61L49.27,23a.38.38,0,0,1-.58-.2l0,0c-.13-.27,0-.41.23-.53L56,18.75C56.25,18.62,56.33,18.85,56.45,19.12ZM55.3,16.91c.15.26.29.46,0,.6l-6.85,3.87a.38.38,0,0,1-.59-.15l0,0c-.15-.26-.08-.4.18-.55l6.75-4.07C55.05,16.43,55.15,16.66,55.3,16.91ZM54,14.82c.17.24.33.43.09.6l-6.49,4.45a.38.38,0,0,1-.61-.1l0,0c-.17-.24-.11-.4.13-.57l6.37-4.64C53.67,14.36,53.79,14.57,54,14.82Zm-1.52-2c.19.23.37.4.14.59l-6.08,5a.38.38,0,0,1-.61,0l0,0c-.19-.23-.15-.38.08-.58l5.94-5.18C52.12,12.41,52.26,12.61,52.45,12.84ZM50.77,11c.21.21.4.36.19.58l-5.62,5.51a.38.38,0,0,1-.61,0l0,0c-.21-.21-.18-.37,0-.58l5.46-5.68C50.4,10.6,50.56,10.79,50.77,11ZM48.93,9.32c.23.19.43.33.24.56l-5.12,6a.38.38,0,0,1-.61.06l0,0c-.23-.19-.21-.35,0-.58l4.95-6.13C48.53,9,48.7,9.13,48.93,9.32ZM47,7.81c.24.17.46.29.29.53l-4.58,6.4a.38.38,0,0,1-.6.12l0,0c-.24-.17-.24-.33-.07-.58l4.39-6.54C46.53,7.47,46.71,7.64,47,7.81Zm-2.1-1.34c.26.15.48.25.33.51l-4,6.78a.38.38,0,0,1-.59.17l0,0c-.26-.15-.27-.31-.12-.57l3.81-6.9C44.4,6.18,44.6,6.32,44.86,6.47ZM42.65,5.32c.27.13.5.21.38.48l-3.39,7.1a.38.38,0,0,1-.57.22l0,0c-.27-.13-.29-.29-.17-.56L42,5.34C42.17,5.07,42.38,5.19,42.65,5.32Zm-2.3-1c.28.1.52.16.42.44L38,12.18a.38.38,0,0,1-.55.27h0c-.28-.1-.32-.26-.22-.54l2.55-7.46C39.85,4.16,40.07,4.27,40.35,4.37ZM38,3.62c.29.08.53.11.45.4L36.32,11.6a.38.38,0,0,1-.53.31h0c-.29-.08-.34-.23-.26-.52l1.89-7.65C37.46,3.45,37.69,3.54,38,3.62ZM33.75,11,35,3.25c.05-.29.29-.23.58-.17s.54.07.49.36l-1.44,7.74c-.05.29-.2.41-.5.36h0C33.76,11.48,33.69,11.33,33.75,11ZM32.51,3c0-.3.27-.25.56-.22s.54,0,.52.32l-.76,7.83c0,.3-.17.43-.46.4h0c-.3,0-.37-.17-.35-.47Zm-1.92-.33c.3,0,.54,0,.54.27l-.08,7.87c0,.3-.13.44-.43.44h0c-.3,0-.39-.14-.39-.43L30,2.92C30,2.62,30.29,2.65,30.59,2.65Zm-2.49.11c.3,0,.54-.07.56.22l.61,7.85c0,.3-.09.45-.39.48h0c-.3,0-.4-.1-.42-.4l-.84-7.84C27.56,2.78,27.8,2.78,28.1,2.75Zm-2.47.32c.29-.05.53-.12.58.17L27.51,11a.38.38,0,0,1-.34.51h0c-.29.05-.41-.07-.46-.36L25.15,3.44C25.09,3.15,25.34,3.13,25.63,3.08Zm-2.43.54c.29-.08.52-.17.59.12l2,7.62a.38.38,0,0,1-.3.54h0c-.29.08-.41,0-.49-.32L22.75,4C22.67,3.73,22.91,3.7,23.2,3.62Zm-2.37.75c.28-.1.5-.21.6.07l2.62,7.42a.38.38,0,0,1-.25.56h0c-.28.1-.41,0-.51-.27L20.41,4.81C20.31,4.53,20.55,4.47,20.83,4.37Zm-2.3,1c.27-.13.48-.25.61,0l3.26,7.16a.38.38,0,0,1-.2.58l0,0c-.27.13-.41,0-.53-.23L18.15,5.79C18,5.52,18.26,5.45,18.53,5.32ZM16.32,6.47c.26-.15.46-.29.61,0l3.87,6.85a.38.38,0,0,1-.15.59l0,0c-.26.15-.4.08-.55-.18L16,7C15.84,6.72,16.06,6.62,16.32,6.47Zm-2.1,1.34c.24-.17.43-.33.6-.09l4.45,6.49a.38.38,0,0,1-.1.61l0,0c-.24.17-.4.11-.57-.13L13.93,8.34C13.76,8.1,14,8,14.22,7.81Zm-2,1.52c.23-.19.4-.37.59-.14l5,6.08a.38.38,0,0,1,0,.61l0,0c-.23.19-.38.15-.58-.08L12,9.88C11.81,9.65,12,9.51,12.24,9.32ZM10.41,11c.21-.21.36-.4.58-.19l5.51,5.62a.38.38,0,0,1,0,.61l0,0c-.21.21-.37.18-.58,0l-5.68-5.46C10,11.37,10.2,11.22,10.41,11ZM8.73,12.84c.19-.23.33-.43.56-.24l6,5.12a.38.38,0,0,1,.06.61l0,0c-.19.23-.35.21-.58,0L8.59,13.43C8.36,13.24,8.53,13.07,8.73,12.84Zm-1.52,2c.17-.24.29-.46.53-.29l6.4,4.58a.38.38,0,0,1,.12.6l0,0c-.17.24-.33.24-.58.07L7.12,15.41C6.88,15.24,7,15.06,7.21,14.82Zm-1.34,2.1c.15-.26.25-.48.51-.33l6.78,4a.38.38,0,0,1,.17.59l0,0c-.15.26-.31.27-.57.12l-6.9-3.81C5.58,17.37,5.72,17.17,5.87,16.91ZM4.72,19.12c.13-.27.21-.5.48-.38l7.1,3.39a.38.38,0,0,1,.22.57l0,0c-.13.27-.29.29-.56.17L4.74,19.73C4.47,19.6,4.6,19.39,4.72,19.12Zm-1,2.3c.1-.28.16-.52.44-.42l7.37,2.76a.38.38,0,0,1,.27.55v0c-.1.28-.26.32-.54.22L3.84,22C3.56,21.92,3.67,21.7,3.77,21.42ZM3,23.8c.08-.29.11-.53.4-.45L11,25.45a.38.38,0,0,1,.31.53v0c-.08.29-.23.34-.52.26L3.14,24.39C2.86,24.31,2.95,24.09,3,23.8Zm-.54,2.43c.05-.29.07-.54.36-.49l7.74,1.44c.29.05.41.2.36.5v0c-.05.29-.2.36-.49.31L2.66,26.81C2.36,26.76,2.43,26.52,2.48,26.23ZM2.16,28.7c0-.3,0-.54.32-.52l7.83.76c.3,0,.43.17.4.46v0c0,.3-.17.38-.47.35l-7.86-.53C2.09,29.23,2.13,29,2.16,28.7Zm.16,1.95,7.87.08c.3,0,.44.13.44.43v0c0,.3-.14.39-.43.39l-7.88.15c-.3,0-.27-.24-.27-.54S2,30.64,2.32,30.64Zm-.16,3c0-.3-.07-.54.22-.56l7.85-.61c.3,0,.45.09.48.39v0c0,.3-.1.4-.4.42l-7.84.84C2.18,34.21,2.18,34,2.16,33.67Zm.32,2.47c-.05-.29-.12-.53.17-.58l7.76-1.29a.38.38,0,0,1,.51.34v0c.05.29-.07.41-.36.46L2.85,36.63C2.55,36.68,2.54,36.43,2.48,36.14ZM3,38.57c-.08-.29-.17-.52.12-.59l7.62-2a.38.38,0,0,1,.54.3v0c.08.29,0,.41-.32.49L3.42,39C3.14,39.1,3.1,38.86,3,38.57Zm.75,2.37c-.1-.28-.21-.5.07-.6l7.42-2.62a.38.38,0,0,1,.56.25v0c.1.28,0,.41-.27.51L4.21,41.36C3.93,41.46,3.87,41.22,3.77,40.94Zm1,2.3c-.13-.27-.25-.48,0-.61l7.16-3.26a.38.38,0,0,1,.58.2l0,0c.13.27,0,.41-.23.53L5.2,43.62C4.93,43.75,4.85,43.51,4.72,43.24Zm1.15,2.21c-.15-.26-.29-.46,0-.6L12.69,41a.38.38,0,0,1,.59.15l0,0c.15.26.08.4-.18.55L6.38,45.79C6.12,45.93,6,45.71,5.87,45.45Zm1.34,2.1c-.17-.24-.33-.43-.09-.6l6.49-4.45a.38.38,0,0,1,.61.1l0,0c.17.24.11.4-.13.57L7.74,47.84C7.5,48,7.38,47.8,7.21,47.55Zm1.52,2c-.19-.23-.37-.4-.14-.59l6.08-5a.38.38,0,0,1,.61,0l0,0c.19.23.15.38-.08.58L9.28,49.77C9.05,50,8.92,49.76,8.73,49.53Zm1.68,1.84c-.21-.21-.4-.36-.19-.58l5.62-5.51a.38.38,0,0,1,.61,0l0,0c.21.21.18.37,0,.58L11,51.55C10.77,51.76,10.62,51.57,10.41,51.36ZM12.24,53c-.23-.19-.43-.33-.24-.56l5.12-6a.38.38,0,0,1,.61-.06l0,0c.23.19.21.35,0,.58l-4.95,6.13C12.64,53.41,12.47,53.24,12.24,53Zm2,1.52c-.24-.17-.46-.29-.29-.53l4.58-6.4a.38.38,0,0,1,.6-.12l0,0c.24.17.24.33.07.58l-4.39,6.54C14.65,54.89,14.46,54.73,14.22,54.56Zm2.1,1.34c-.26-.15-.48-.25-.33-.51l4-6.78a.38.38,0,0,1,.59-.17l0,0c.26.15.27.31.12.57l-3.81,6.9C16.77,56.19,16.58,56,16.32,55.9ZM18.53,57c-.27-.13-.5-.21-.38-.48l3.39-7.1a.38.38,0,0,1,.57-.22l0,0c.27.13.29.29.17.56L19.13,57C19,57.3,18.8,57.17,18.53,57Zm2.3,1c-.28-.1-.52-.16-.42-.44l2.76-7.37a.38.38,0,0,1,.55-.27h0c.28.1.32.26.22.54l-2.55,7.46C21.33,58.21,21.11,58.1,20.83,58Zm2.37.75c-.29-.08-.53-.11-.45-.4l2.11-7.58a.38.38,0,0,1,.53-.31h0c.29.08.34.23.26.52l-1.89,7.65C23.72,58.91,23.49,58.83,23.2,58.75Zm4.23-7.42-1.22,7.79c-.05.29-.29.23-.58.17s-.54-.07-.49-.36l1.44-7.74c.05-.29.2-.41.5-.36h0C27.42,50.89,27.48,51,27.43,51.33Zm1.23,8.06c0,.3-.27.25-.56.22s-.54,0-.52-.32l.76-7.83c0-.3.17-.43.46-.4h0c.3,0,.38.17.35.47Zm1.92.33c-.3,0-.54,0-.54-.27l.08-7.87c0-.3.13-.44.43-.44h0c.3,0,.39.14.39.43l.15,7.88C31.13,59.75,30.89,59.72,30.59,59.72Zm2.49-.11c-.3,0-.54.07-.56-.22l-.61-7.85c0-.3.09-.45.39-.48h0c.3,0,.4.1.42.4l.84,7.84C33.62,59.59,33.37,59.59,33.07,59.61ZM30.71,34.87a4.17,4.17,0,1,1,4.16-4.17A4.17,4.17,0,0,1,30.71,34.87Zm4.84,24.42c-.29.05-.53.12-.58-.17l-1.29-7.76a.38.38,0,0,1,.34-.51h0c.29-.05.41.07.46.36L36,58.93C36.08,59.22,35.84,59.24,35.54,59.29ZM38,58.75c-.29.08-.52.17-.59-.12l-2-7.62a.38.38,0,0,1,.3-.54h0c.29-.08.41,0,.49.32l2.19,7.57C38.5,58.63,38.26,58.67,38,58.75ZM40.35,58c-.28.1-.5.21-.6-.07l-2.62-7.42a.38.38,0,0,1,.25-.56h0c.28-.1.41,0,.51.27l2.84,7.35C40.87,57.84,40.63,57.9,40.35,58Zm2.3-1c-.27.13-.48.25-.61,0l-3.26-7.16a.38.38,0,0,1,.2-.58l0,0c.27-.13.41,0,.53.23L43,56.57C43.15,56.84,42.92,56.92,42.65,57Zm2.21-1.15c-.26.15-.46.29-.6,0l-3.87-6.85a.38.38,0,0,1,.15-.59l0,0c.26-.15.4-.08.55.18l4.07,6.75C45.34,55.65,45.11,55.75,44.86,55.9ZM47,54.56c-.24.17-.43.33-.6.09L41.9,48.16a.38.38,0,0,1,.1-.61l0,0c.24-.17.4-.11.57.13L47.24,54C47.41,54.27,47.2,54.39,47,54.56Zm2-1.52c-.23.19-.4.37-.59.14l-5-6.08a.38.38,0,0,1,0-.61l0,0c.23-.19.38-.15.58.08l5.18,5.94C49.36,52.72,49.16,52.85,48.93,53Zm1.84-1.68c-.21.21-.36.4-.58.19l-5.51-5.62a.38.38,0,0,1,0-.61l0,0c.21-.21.37-.18.58,0L51,50.79C51.17,51,51,51.15,50.77,51.36Zm1.68-1.84c-.19.23-.33.43-.56.24l-6-5.12a.38.38,0,0,1-.06-.61l0,0c.19-.23.35-.21.58,0l6.13,4.95C52.82,49.13,52.64,49.3,52.45,49.53Zm1.52-2c-.17.24-.29.46-.53.29L47,43.26a.38.38,0,0,1-.12-.6l0,0c.17-.24.33-.24.58-.07L54.05,47C54.3,47.12,54.14,47.31,54,47.55Zm1.34-2.1c-.15.26-.25.48-.51.33l-6.78-4a.38.38,0,0,1-.17-.59l0,0c.15-.26.31-.27.57-.12l6.9,3.81C55.6,45,55.45,45.19,55.3,45.45Zm1.15-2.21c-.13.27-.21.5-.48.38l-7.1-3.39a.38.38,0,0,1-.22-.57l0,0c.13-.27.29-.29.56-.17l7.21,3.19C56.7,42.76,56.58,43,56.45,43.24Zm1-2.3c-.1.28-.16.52-.44.42L49.59,38.6a.38.38,0,0,1-.27-.55v0c.1-.28.26-.32.54-.22l7.46,2.55C57.61,40.44,57.51,40.66,57.4,40.94Zm.75-2.37c-.08.29-.11.53-.4.45l-7.58-2.11a.38.38,0,0,1-.31-.53v0c.08-.29.23-.34.52-.26L58,38C58.32,38.05,58.23,38.28,58.15,38.57Zm.54-2.43c-.05.29-.07.54-.36.49l-7.74-1.44c-.29-.05-.41-.2-.36-.5v0c.05-.29.2-.36.49-.31l7.79,1.22C58.81,35.61,58.74,35.85,58.69,36.14ZM59,33.67c0,.3,0,.54-.32.52l-7.83-.76c-.3,0-.43-.17-.4-.46v0c0-.3.17-.37.47-.35l7.86.53C59.09,33.13,59,33.37,59,33.67Z" style="fill: url(#Steel_02)"/>
      <circle cx="30.71" cy="30.71" r="4.17" style="fill: none"/>
      <circle cx="30.71" cy="30.71" r="4.17" style="fill: none"/>
    </g>
    <path d="M48.38,66.57h-34a8.5,8.5,0,1,0,0,17h34a8.5,8.5,0,1,0,0-17ZM13.24,79.35a4.27,4.27,0,1,1,4.27-4.27A4.27,4.27,0,0,1,13.24,79.35Zm36.63,0a4.27,4.27,0,1,1,4.27-4.27A4.27,4.27,0,0,1,49.87,79.35Z" style="fill: url(#linear-gradient)"/>
    <g>
      <rect height="35.17" style="fill: url(#linear-gradient-2)" width="17.01" x="22.2" y="48.41"/>
      <circle cx="30.71" cy="57.88" r="5" style="fill: url(#radial-gradient)"/>
    </g>
    <rect height="34.15" style="fill: #dc5057" width="3.87" x="21.93" y="83.58"/>
    <rect height="34.15" style="fill: #4d4a47" width="3.87" x="26.84" y="83.58"/>
    <rect height="34.15" style="fill: #4146a8" width="3.87" x="31.74" y="83.58"/>
    <rect height="34.15" style="fill: #ffdf22" width="3.87" x="36.64" y="83.58"/>
  </g>
  <g id="Connectors">
    <rect data-cir-type="male" height="2.82" id="circuitoCon_VCC" style="fill: none" width="3.87" x="21.93" y="114.92"/>
    <rect data-cir-type="male" height="2.82" id="circuitoCon_GND" style="fill: none" width="3.87" x="26.84" y="114.92"/>
    <rect data-cir-type="male" height="2.82" id="circuitoCon_CH_A" style="fill: none" width="3.87" x="31.74" y="114.92"/>
    <rect data-cir-type="male" height="2.82" id="circuitoCon_CH_B" style="fill: none" width="3.87" x="36.64" y="114.92"/>
  </g>
</svg>