<?xml version="1.0" ?><svg height="53.82mm" viewBox="0 0 98.17 152.55" width="34.63mm" xmlns="http://www.w3.org/2000/svg">
  <title>Fingerprint Scanner - TTL (GT-511C3)</title>
  <g id="background">
    <rect height="70.65" style="fill: #262728;stroke: #fff;stroke-miterlimit: 10;stroke-width: 0.2px" width="67.87" x="15.15" y="80"/>
  </g>
  <g id="Connectors">
    <rect height="3.79" id="connector3pin" style="fill: #8c8c8c" width="2.16" x="72.74" y="148.76"/>
    <rect height="3.75" id="connector1pin" style="fill: #8c8c8c" width="2.16" x="62.4" y="148.76"/>
    <rect height="3.75" id="connector2pin" style="fill: #8c8c8c" width="2.16" x="67.57" y="148.77"/>
    <rect height="3.75" id="connector0pin" style="fill: #8c8c8c" width="2.16" x="57.23" y="148.76"/>
  </g>
  <g data-name="Layer 4" id="Layer_4">
    <rect height="84.5" rx="4.5" ry="4.5" style="fill: #444043" width="65.33" x="16.42"/>
    <rect height="71.5" rx="5.75" ry="5.75" style="fill: #ddddda" width="57.67" x="20.25" y="6.17"/>
    <rect height="69.37" rx="6.06" ry="6.06" style="fill: none;stroke: #444043;stroke-miterlimit: 10;stroke-width: 0.5px" width="54.96" x="21.6" y="7.46"/>
    <path d="M81.6,32.62a24.28,24.28,0,0,1,9.92.38c.66.17,1.28.36,1.88.56a7.74,7.74,0,0,1,2.19,1.5A8.86,8.86,0,0,1,98,41.31H88.33a4.46,4.46,0,0,0,0,8.63l9.13.31A7.82,7.82,0,0,1,88,59.12H81.6Z" style="fill: #f1eeeb" transform="translate(0.15 -1.75)"/>
    <path d="M16.27,58.93a24.28,24.28,0,0,1-9.92-.37c-.66-.17-1.28-.36-1.87-.56a7.74,7.74,0,0,1-2.19-1.5A8.86,8.86,0,0,1-.15,50.24H9.54a4.46,4.46,0,0,0,0-8.62L.42,41.3A8.15,8.15,0,0,1,2,35.24a8.14,8.14,0,0,1,7.88-2.81h6.42Z" style="fill: #f1eeeb" transform="translate(0.15 -1.75)"/>
  </g>
  <g data-name="Layer 6" id="Layer_6">
    <rect height="7.54" style="fill: #b99688" width="4.87" x="74.9" y="142.75"/>
    <rect height="7.54" style="fill: #b99688" width="5.13" x="52.1" y="142.75"/>
    <path d="M58.27,129.72a11.31,11.31,0,0,0,0,3.69l1.21.93,1.42-1.6a4.38,4.38,0,0,0-.09-2.94Z" style="fill: #bcbfba" transform="translate(0.15 -1.75)"/>
    <path d="M62.29,129.72a11.31,11.31,0,0,0,0,3.69l1.21.93,1.42-1.6a4.38,4.38,0,0,0-.09-2.94Z" style="fill: #bcbfba" transform="translate(0.15 -1.75)"/>
    <path d="M66.31,129.72a11.31,11.31,0,0,0,0,3.69l1.21.93,1.42-1.6a4.38,4.38,0,0,0-.09-2.94Z" style="fill: #bcbfba" transform="translate(0.15 -1.75)"/>
    <path d="M70.33,129.72a11.31,11.31,0,0,0,0,3.69l1.21.93,1.42-1.6a4.38,4.38,0,0,0-.09-2.94Z" style="fill: #bcbfba" transform="translate(0.15 -1.75)"/>
    <circle cx="69.89" cy="117.71" r="0.35" style="fill: #bcbfba"/>
    <circle cx="71.03" cy="117.71" r="0.35" style="fill: #bcbfba"/>
    <circle cx="75.77" cy="119.2" r="0.35" style="fill: #bcbfba"/>
    <circle cx="76.9" cy="119.2" r="0.35" style="fill: #bcbfba"/>
    <circle cx="77.45" cy="112.34" r="0.35" style="fill: #bcbfba"/>
    <circle cx="78.59" cy="112.34" r="0.35" style="fill: #bcbfba"/>
    <circle cx="73.4" cy="110.99" r="0.35" style="fill: #bcbfba"/>
    <circle cx="74.54" cy="110.99" r="0.35" style="fill: #bcbfba"/>
    <circle cx="68.97" cy="110.99" r="0.35" style="fill: #bcbfba"/>
    <circle cx="70.11" cy="110.99" r="0.35" style="fill: #bcbfba"/>
    <circle cx="62.95" cy="107.34" r="0.35" style="fill: #bcbfba"/>
    <circle cx="64.09" cy="107.34" r="0.35" style="fill: #bcbfba"/>
    <circle cx="63.88" cy="99.79" r="0.35" style="fill: #bcbfba"/>
    <circle cx="65.01" cy="99.79" r="0.35" style="fill: #bcbfba"/>
    <circle cx="66.37" cy="100.56" r="0.35" style="fill: #bcbfba"/>
    <circle cx="67.5" cy="100.56" r="0.35" style="fill: #bcbfba"/>
    <circle cx="79.17" cy="104.67" r="0.35" style="fill: #bcbfba"/>
    <circle cx="80.3" cy="104.67" r="0.35" style="fill: #bcbfba"/>
    <circle cx="53.06" cy="88.25" r="0.35" style="fill: #bcbfba"/>
    <circle cx="54.2" cy="88.25" r="0.35" style="fill: #bcbfba"/>
    <circle cx="52.93" cy="91.08" r="0.35" style="fill: #bcbfba"/>
    <circle cx="54.07" cy="91.08" r="0.35" style="fill: #bcbfba"/>
    <circle cx="51.11" cy="105.67" r="0.35" style="fill: #bcbfba"/>
    <circle cx="52.25" cy="105.67" r="0.35" style="fill: #bcbfba"/>
    <circle cx="66.94" cy="114.58" r="0.35" style="fill: #bcbfba"/>
    <circle cx="68.07" cy="114.58" r="0.35" style="fill: #bcbfba"/>
    <circle cx="61.19" cy="120" r="0.35" style="fill: #bcbfba"/>
    <circle cx="62.32" cy="120" r="0.35" style="fill: #bcbfba"/>
    <circle cx="62.84" cy="122.32" r="0.35" style="fill: #bcbfba"/>
    <circle cx="63.98" cy="122.32" r="0.35" style="fill: #bcbfba"/>
    <circle cx="56.93" cy="124.6" r="0.35" style="fill: #bcbfba"/>
    <circle cx="58.06" cy="124.6" r="0.35" style="fill: #bcbfba"/>
    <circle cx="52.84" cy="119.41" r="0.35" style="fill: #bcbfba"/>
    <circle cx="53.98" cy="119.41" r="0.35" style="fill: #bcbfba"/>
    <circle cx="28.29" cy="125.72" r="0.35" style="fill: #bcbfba"/>
    <circle cx="29.43" cy="125.72" r="0.35" style="fill: #bcbfba"/>
    <circle cx="30.41" cy="135.37" r="0.35" style="fill: #bcbfba"/>
    <circle cx="31.55" cy="135.37" r="0.35" style="fill: #bcbfba"/>
    <circle cx="34.45" cy="135.56" r="0.35" style="fill: #bcbfba"/>
    <circle cx="35.59" cy="135.56" r="0.35" style="fill: #bcbfba"/>
    <circle cx="40.42" cy="139.59" r="0.35" style="fill: #bcbfba"/>
    <circle cx="41.56" cy="139.59" r="0.35" style="fill: #bcbfba"/>
    <circle cx="36.88" cy="149.13" r="0.35" style="fill: #bcbfba"/>
    <circle cx="38.02" cy="149.13" r="0.35" style="fill: #bcbfba"/>
    <circle cx="25.16" cy="144.72" r="0.35" style="fill: #bcbfba"/>
    <circle cx="26.3" cy="144.72" r="0.35" style="fill: #bcbfba"/>
    <circle cx="17.17" cy="146.17" r="0.35" style="fill: #bcbfba"/>
    <circle cx="18.31" cy="146.17" r="0.35" style="fill: #bcbfba"/>
    <circle cx="18.68" cy="121.21" r="0.35" style="fill: #bcbfba"/>
    <circle cx="19.82" cy="121.21" r="0.35" style="fill: #bcbfba"/>
    <circle cx="18.32" cy="106.35" r="0.35" style="fill: #bcbfba"/>
    <circle cx="19.46" cy="106.35" r="0.35" style="fill: #bcbfba"/>
    <circle cx="25.33" cy="104.12" r="0.35" style="fill: #bcbfba"/>
    <circle cx="26.47" cy="104.12" r="0.35" style="fill: #bcbfba"/>
    <circle cx="29.19" cy="105.81" r="0.35" style="fill: #bcbfba"/>
    <circle cx="30.33" cy="105.81" r="0.35" style="fill: #bcbfba"/>
    <circle cx="19.02" cy="94.25" r="2.13" style="fill: #8e6643"/>
    <circle cx="25.33" cy="94.84" r="2.13" style="fill: #8e6643"/>
    <circle cx="80.06" cy="132.37" r="0.75" style="fill: #262728;stroke: #fff;stroke-miterlimit: 10;stroke-width: 0.2px"/>
    <circle cx="81.4" cy="146.52" r="0.75" style="fill: #262728;stroke: #fff;stroke-miterlimit: 10;stroke-width: 0.2px"/>
    <circle cx="47.85" cy="140.11" r="0.75" style="fill: #262728;stroke: #fff;stroke-miterlimit: 10;stroke-width: 0.2px"/>
    <circle cx="50.81" cy="136.84" r="0.75" style="fill: #262728;stroke: #fff;stroke-miterlimit: 10;stroke-width: 0.2px"/>
  </g>
  <g data-name="Layer 5" id="Layer_5">
    <rect height="2.25" style="fill: #827e76" width="2.38" x="32.11" y="108.47"/>
    <rect height="2.25" style="fill: #827e76" width="2.38" x="32.11" y="112.69"/>
    <rect height="1.41" style="fill: #fbffff" width="1.38" x="32.65" y="109.31"/>
    <rect height="1.41" style="fill: #fbffff" width="1.38" x="32.65" y="112.69"/>
    <rect height="1.97" style="fill: #896e60" width="1.38" x="32.65" y="110.72"/>
    <rect height="4.74" style="fill: #827e76" width="5.92" x="22.02" y="110.48"/>
    <rect height="4.74" style="fill: #827e76" width="5.92" x="22.02" y="119.37"/>
    <rect height="2.96" style="fill: #fbffff" width="3.43" x="23.34" y="112.26"/>
    <rect height="2.96" style="fill: #fbffff" width="3.43" x="23.34" y="119.37"/>
    <rect height="4.15" style="fill: #896e60" width="3.43" x="23.34" y="115.22"/>
    <rect height="3.2" style="fill: #827e76" width="4.08" x="56.38" y="95.97"/>
    <rect height="3.2" style="fill: #827e76" width="4.08" x="56.38" y="101.96"/>
    <rect height="2" style="fill: #fbffff" width="2.36" x="57.29" y="97.17"/>
    <rect height="2" style="fill: #fbffff" width="2.36" x="57.29" y="101.96"/>
    <rect height="2.8" width="2.36" x="57.29" y="99.16"/>
    <rect height="3.2" style="fill: #827e76" width="4.08" x="56.38" y="108.8"/>
    <rect height="3.2" style="fill: #827e76" width="4.08" x="56.38" y="114.79"/>
    <rect height="2" style="fill: #fbffff" width="2.36" x="57.29" y="109.99"/>
    <rect height="2" style="fill: #fbffff" width="2.36" x="57.29" y="114.79"/>
    <rect height="2.8" style="fill: #c7b299" width="2.36" x="57.29" y="111.99"/>
    <rect height="2.25" style="fill: #827e76" width="2.38" x="36.78" y="108.47"/>
    <rect height="2.25" style="fill: #827e76" width="2.38" x="36.78" y="112.69"/>
    <rect height="1.41" style="fill: #fbffff" width="1.38" x="37.31" y="109.31"/>
    <rect height="1.41" style="fill: #fbffff" width="1.38" x="37.31" y="112.69"/>
    <rect height="1.97" style="fill: #c7b299" width="1.38" x="37.31" y="110.72"/>
    <rect height="2.25" style="fill: #827e76" width="2.38" x="40.99" y="108.47"/>
    <rect height="2.25" style="fill: #827e76" width="2.38" x="40.99" y="112.69"/>
    <rect height="1.41" style="fill: #fbffff" width="1.38" x="41.52" y="109.31"/>
    <rect height="1.41" style="fill: #fbffff" width="1.38" x="41.52" y="112.69"/>
    <rect height="1.97" width="1.38" x="41.52" y="110.72"/>
    <rect height="2.25" style="fill: #827e76" width="2.37" x="45.49" y="108.47"/>
    <rect height="2.25" style="fill: #827e76" width="2.37" x="45.49" y="112.69"/>
    <rect height="1.41" style="fill: #fbffff" width="1.37" x="46.02" y="109.31"/>
    <rect height="1.41" style="fill: #fbffff" width="1.37" x="46.02" y="112.69"/>
    <rect height="1.97" width="1.37" x="46.02" y="110.72"/>
    <rect height="2.25" style="fill: #827e76" width="2.38" x="49.77" y="108.47"/>
    <rect height="2.25" style="fill: #827e76" width="2.38" x="49.77" y="112.69"/>
    <rect height="1.41" style="fill: #fbffff" width="1.38" x="50.3" y="109.31"/>
    <rect height="1.41" style="fill: #fbffff" width="1.38" x="50.3" y="112.69"/>
    <rect height="1.97" style="fill: #c7b299" width="1.38" x="50.3" y="110.72"/>
    <rect height="2.25" style="fill: #827e76" width="2.38" x="72.52" y="102.77"/>
    <rect height="2.25" style="fill: #827e76" width="2.38" x="72.52" y="106.98"/>
    <rect height="1.41" style="fill: #fbffff" width="1.38" x="73.05" y="103.61"/>
    <rect height="1.41" style="fill: #fbffff" width="1.38" x="73.05" y="106.98"/>
    <rect height="1.97" width="1.38" x="73.05" y="105.02"/>
    <rect height="2.25" style="fill: #827e76" width="2.38" x="72.55" y="94.87"/>
    <rect height="2.25" style="fill: #827e76" width="2.38" x="72.55" y="99.09"/>
    <rect height="1.41" style="fill: #fbffff" width="1.38" x="73.08" y="95.71"/>
    <rect height="1.41" style="fill: #fbffff" width="1.38" x="73.08" y="99.09"/>
    <rect height="1.97" width="1.38" x="73.08" y="97.12"/>
    <rect height="2.25" style="fill: #827e76" width="2.38" x="50.52" y="97.26"/>
    <rect height="2.25" style="fill: #827e76" width="2.38" x="50.52" y="101.48"/>
    <rect height="1.41" style="fill: #fbffff" width="1.38" x="51.05" y="98.1"/>
    <rect height="1.41" style="fill: #fbffff" width="1.38" x="51.05" y="101.48"/>
    <rect height="1.97" style="fill: #896e60" width="1.38" x="51.05" y="99.51"/>
    <rect height="2.25" style="fill: #827e76" width="2.37" x="46.02" y="97.84"/>
    <rect height="2.25" style="fill: #827e76" width="2.37" x="46.02" y="102.06"/>
    <rect height="1.41" style="fill: #fbffff" width="1.37" x="46.55" y="98.69"/>
    <rect height="1.41" style="fill: #fbffff" width="1.37" x="46.55" y="102.06"/>
    <rect height="1.97" width="1.37" x="46.55" y="100.09"/>
    <rect height="2.25" style="fill: #827e76" width="2.38" x="38.9" y="99.53"/>
    <rect height="2.25" style="fill: #827e76" width="2.38" x="38.9" y="103.75"/>
    <rect height="1.41" style="fill: #fbffff" width="1.38" x="39.43" y="100.38"/>
    <rect height="1.41" style="fill: #fbffff" width="1.38" x="39.43" y="103.75"/>
    <rect height="1.97" style="fill: #896e60" width="1.38" x="39.43" y="101.78"/>
    <rect height="2.25" style="fill: #827e76" transform="translate(132.79 52.34) rotate(90)" width="2.38" x="38.09" y="92.24"/>
    <rect height="2.25" style="fill: #827e76" transform="translate(128.57 56.56) rotate(90)" width="2.38" x="33.87" y="92.24"/>
    <rect height="1.41" style="fill: #fbffff" transform="translate(132.4 52.8) rotate(90)" width="1.38" x="38.17" y="92.7"/>
    <rect height="1.41" style="fill: #fbffff" transform="translate(129.03 56.17) rotate(90)" width="1.38" x="34.79" y="92.7"/>
    <rect height="1.97" style="fill: #896e60" transform="translate(130.71 54.48) rotate(90)" width="1.38" x="36.48" y="92.42"/>
    <rect height="2.25" style="fill: #827e76" transform="translate(200.47 51.32) rotate(90)" width="2.38" x="72.44" y="125.57"/>
    <rect height="2.25" style="fill: #827e76" transform="translate(196.25 55.54) rotate(90)" width="2.38" x="68.22" y="125.57"/>
    <rect height="1.41" style="fill: #fbffff" transform="translate(200.08 51.78) rotate(90)" width="1.38" x="72.52" y="126.03"/>
    <rect height="1.41" style="fill: #fbffff" transform="translate(196.7 55.15) rotate(90)" width="1.38" x="69.14" y="126.03"/>
    <rect height="1.97" style="fill: #896e60" transform="translate(198.39 53.46) rotate(90)" width="1.38" x="70.83" y="125.74"/>
    <rect height="2.25" style="fill: #827e76" width="2.38" x="34.94" y="99.2"/>
    <rect height="2.25" style="fill: #827e76" width="2.38" x="34.94" y="103.42"/>
    <rect height="1.41" style="fill: #fbffff" width="1.38" x="35.47" y="100.04"/>
    <rect height="1.41" style="fill: #fbffff" width="1.38" x="35.47" y="103.42"/>
    <rect height="1.97" width="1.38" x="35.47" y="101.45"/>
    <rect height="8.54" style="fill: #b9b0ac" width="5.38" x="19.1" y="142.42"/>
    <rect height="8.54" style="fill: #b9b0ac" width="5.38" x="41.35" y="142.42"/>
    <rect height="6.38" style="fill: #b9b0ac" width="2.42" x="37.85" y="127.83"/>
    <rect height="6.38" style="fill: #b9b0ac" width="2.42" x="33.81" y="127.83"/>
    <rect height="6.38" style="fill: #b9b0ac" width="2.42" x="29.77" y="127.83"/>
    <rect height="6.38" style="fill: #b9b0ac" width="2.42" x="25.73" y="127.83"/>
    <path d="M53.63,133.41h5.16l.78.63v1.28h.75v-1.12l.69-.69h1.94l.53.53v1.28h1.22v-1.37l.47-.47H67l.66.66v1h1.06V134l.61-.61H71l.73.73v1h.8V134l.8-.8h4.11l.65.65v16.67l-24.57,0Z" style="fill: #edddca" transform="translate(0.15 -1.75)"/>
    <rect height="15.29" style="fill: #e6e0d7" width="18.34" x="56.9" y="133.5"/>
  </g>
  <g data-name="Text and White" id="Text_and_White">
    <line style="fill: none;stroke: #e8eef1;stroke-linecap: round;stroke-miterlimit: 10" x1="15.46" x2="82.96" y1="86.87" y2="86.87"/>
    <polyline points="20.81 140.63 20.81 131.25 24.23 131.25" style="fill: none;stroke: #e8eef1;stroke-linecap: round;stroke-miterlimit: 10"/>
    <path d="M44.92,143.36V133H41.51" style="fill: none;stroke: #e8eef1;stroke-linecap: round;stroke-miterlimit: 10" transform="translate(0.15 -1.75)"/>
    <polyline points="25.94 136.43 24.22 138.15 29.43 138.15 26.88 135.61" style="fill: none;stroke: #e8eef1;stroke-linecap: round;stroke-miterlimit: 10"/>
    <polygon points="22.24 127.31 22.24 130.06 24.22 128.81 22.24 127.31" style="fill: none;stroke: #e8eef1;stroke-linecap: round;stroke-miterlimit: 10"/>
    <path d="M20.67,124.83V112.47a6.53,6.53,0,0,1,4-1.66,6.6,6.6,0,0,1,4.62,1.66v12.36a4.81,4.81,0,0,1-8.62,0Z" style="fill: none;stroke: #e8eef1;stroke-linecap: round;stroke-miterlimit: 10;stroke-width: 0.6000000000000001px" transform="translate(0.15 -1.75)"/>
    <path d="M31.05,116v-6.13a3.24,3.24,0,0,1,2-.82,3.27,3.27,0,0,1,2.29.82V116a2.38,2.38,0,0,1-4.27,0Z" style="fill: none;stroke: #e8eef1;stroke-linecap: round;stroke-miterlimit: 10;stroke-width: 0.6000000000000001px" transform="translate(0.15 -1.75)"/>
    <path d="M35.69,116v-6.13a3.24,3.24,0,0,1,2-.82,3.27,3.27,0,0,1,2.29.82V116a2.38,2.38,0,0,1-4.27,0Z" style="fill: none;stroke: #e8eef1;stroke-linecap: round;stroke-miterlimit: 10;stroke-width: 0.6000000000000001px" transform="translate(0.15 -1.75)"/>
    <path d="M37.79,106.75v-6.13a3.24,3.24,0,0,1,2-.82,3.27,3.27,0,0,1,2.29.82v6.13a2.38,2.38,0,0,1-4.27,0Z" style="fill: none;stroke: #e8eef1;stroke-linecap: round;stroke-miterlimit: 10;stroke-width: 0.6000000000000001px" transform="translate(0.15 -1.75)"/>
    <path d="M39.93,116v-6.13a3.24,3.24,0,0,1,2-.82,3.27,3.27,0,0,1,2.29.82V116a2.38,2.38,0,0,1-4.27,0Z" style="fill: none;stroke: #e8eef1;stroke-linecap: round;stroke-miterlimit: 10;stroke-width: 0.6000000000000001px" transform="translate(0.15 -1.75)"/>
    <path d="M44.4,116v-6.13a3.24,3.24,0,0,1,2-.82,3.27,3.27,0,0,1,2.29.82V116a2.38,2.38,0,0,1-4.27,0Z" style="fill: none;stroke: #e8eef1;stroke-linecap: round;stroke-miterlimit: 10;stroke-width: 0.6000000000000001px" transform="translate(0.15 -1.75)"/>
    <path d="M48.83,116v-6.13a3.24,3.24,0,0,1,2-.82,3.27,3.27,0,0,1,2.29.82V116a2.38,2.38,0,0,1-4.27,0Z" style="fill: none;stroke: #e8eef1;stroke-linecap: round;stroke-miterlimit: 10;stroke-width: 0.6000000000000001px" transform="translate(0.15 -1.75)"/>
    <rect height="8.54" style="fill: none;stroke: #e8eef1;stroke-linecap: round;stroke-miterlimit: 10;stroke-width: 0.6000000000000001px" width="4.17" x="33.83" y="98.16"/>
    <path d="M49.3,105V98.9a3.24,3.24,0,0,1,2-.82,3.27,3.27,0,0,1,2.29.82V105a2.38,2.38,0,0,1-4.27,0Z" style="fill: none;stroke: #e8eef1;stroke-linecap: round;stroke-miterlimit: 10;stroke-width: 0.6000000000000001px" transform="translate(0.15 -1.75)"/>
    <rect height="8.54" style="fill: none;stroke: #e8eef1;stroke-linecap: round;stroke-miterlimit: 10;stroke-width: 0.6000000000000001px" width="4.17" x="45.35" y="96.45"/>
    <rect height="7.97" style="fill: none;stroke: #e8eef1;stroke-linecap: round;stroke-miterlimit: 10;stroke-width: 0.6000000000000001px" width="4.49" x="71.63" y="102.05"/>
    <rect height="12.07" style="fill: none;stroke: #e8eef1;stroke-linecap: round;stroke-miterlimit: 10;stroke-width: 0.6000000000000001px" width="5.97" x="55.23" y="106.98"/>
    <rect height="7.97" style="fill: none;stroke: #e8eef1;stroke-linecap: round;stroke-miterlimit: 10;stroke-width: 0.6000000000000001px" width="4.49" x="71.63" y="93.86"/>
    <polyline points="55.23 98.5 55.23 106.83 61.2 106.83 61.2 94.52 55.31 94.52 55.31 96.9" style="fill: none;stroke: #e8eef1;stroke-linecap: round;stroke-miterlimit: 10;stroke-width: 0.6000000000000001px"/>
    <line style="fill: none;stroke: #e8eef1;stroke-linecap: round;stroke-miterlimit: 10;stroke-width: 0.6000000000000001px" x1="54.88" x2="55.65" y1="97.67" y2="97.67"/>
    <polyline points="62.84 116.03 62.84 113.69 63.74 111.7 61.77 111.7 62.68 113.81" style="fill: none;stroke: #e8eef1;stroke-linecap: round;stroke-miterlimit: 10;stroke-width: 0.6000000000000001px"/>
    <line style="fill: none;stroke: #e8eef1;stroke-linecap: round;stroke-miterlimit: 10;stroke-width: 0.6000000000000001px" x1="62.84" x2="62.84" y1="109.59" y2="111.7"/>
    <line style="fill: none;stroke: #e8eef1;stroke-linecap: round;stroke-miterlimit: 10;stroke-width: 0.6000000000000001px" x1="63.74" x2="61.97" y1="114.58" y2="114.58"/>
    <polyline points="54.77 126.88 54.77 130.28 57.15 128.88 54.93 126.88" style="fill: none;stroke: #e8eef1;stroke-linecap: round;stroke-miterlimit: 10;stroke-width: 0.6000000000000001px"/>
    <g>
      <path d="M17.1,143a.67.67,0,0,1-.08.38.61.61,0,0,1-.58.3h-.23a.63.63,0,0,1-.56-.23.6.6,0,0,1-.12-.4v-.58a.2.2,0,0,1,.4,0v.52c0,.23,0,.3.28.3h.22c.17,0,.27,0,.27-.22v-2.29a.2.2,0,1,1,.4,0Z" style="fill: #fff" transform="translate(0.15 -1.75)"/>
      <path d="M17.61,140.92a.2.2,0,1,1,0-.4H19a.39.39,0,0,1,.4.4v.77a.56.56,0,0,0,0,.78v.77a.39.39,0,0,1-.4.4H17.61a.2.2,0,1,1,0-.4H19v-.66c0-.22-.09-.29-.2-.29H18a.2.2,0,1,1,0-.4h.78c.11,0,.2-.07.2-.29v-.66Z" style="fill: #fff" transform="translate(0.15 -1.75)"/>
    </g>
    <g>
      <path d="M55.41,122.52h-.15c-.13,0-.24,0-.24-.2s.11-.2.23-.2h.67a.6.6,0,0,1,.6.4l.35.7a.92.92,0,0,1,0,.9l-.36.73a.6.6,0,0,1-.63.38h-.66a.2.2,0,1,1,0-.4h.19Zm.4,2.31h.08c.17,0,.21,0,.28-.17l.35-.71a.55.55,0,0,0,.08-.26.68.68,0,0,0-.1-.33l-.33-.68c-.08-.17-.12-.17-.3-.17h0Z" style="fill: #fff" transform="translate(0.15 -1.75)"/>
      <path d="M58.67,124.83V124a.2.2,0,0,1,.4,0v1a.18.18,0,0,1-.2.2H57.3a.2.2,0,1,1,0-.4h.59v-2.31H57.3a.2.2,0,1,1,0-.4h1v2.71Z" style="fill: #fff" transform="translate(0.15 -1.75)"/>
      <path d="M60.91,122.12a.4.4,0,0,1,.4.4v2.31a.39.39,0,0,1-.4.4H59.74a.39.39,0,0,1-.4-.4v-2.31a.4.4,0,0,1,.4-.4Zm0,2.71v-2.31H59.74v2.31Z" style="fill: #fff" transform="translate(0.15 -1.75)"/>
    </g>
    <g>
      <path d="M62.1,128.27a.6.6,0,0,1-.6-.38l-.37-.74a.9.9,0,0,1-.11-.42.87.87,0,0,1,.11-.44l.37-.74a.6.6,0,0,1,.62-.38h.68a.19.19,0,0,1,.2.2.19.19,0,0,1-.2.2h-.67c-.17,0-.2,0-.28.17l-.35.7a.61.61,0,0,0-.08.3.56.56,0,0,0,.08.28l.34.69c.08.16.12.18.3.18h.65a.19.19,0,0,1,.2.2.19.19,0,0,1-.2.2Z" style="fill: #fff" transform="translate(0.15 -1.75)"/>
      <path d="M63.74,127.87h1.38a.2.2,0,1,1,0,.4H63.34V127a.4.4,0,0,1,.45-.45h1.12v-1H63.54a.2.2,0,1,1,0-.4h1.33a.41.41,0,0,1,.45.47v.82a.41.41,0,0,1-.45.47H63.74Z" style="fill: #fff" transform="translate(0.15 -1.75)"/>
      <path d="M65.9,126.86h1.34c.2,0,.24.08.24.27v.9c0,.19-.08.25-.26.25H65.76c-.19,0-.26-.07-.26-.25v-2.66c0-.09,0-.2.17-.2h.24a.2.2,0,0,1,.19.2.19.19,0,0,1-.2.2Zm0,.4v.62h1.18v-.62Z" style="fill: #fff" transform="translate(0.15 -1.75)"/>
    </g>
    <g>
      <path d="M68,100.52a.2.2,0,1,1-.4,0V97.61H69a.6.6,0,0,1,.63.58v.28A.58.58,0,0,1,69,99H68.6l.9,1.29a.4.4,0,0,1,.1.21.19.19,0,0,1-.2.19.21.21,0,0,1-.18-.11L68.12,99H68Zm0-1.89h.89c.11,0,.29,0,.29-.17v-.28c0-.16-.16-.18-.28-.18H68Z" style="fill: #fff" transform="translate(0.15 -1.75)"/>
      <path d="M70.91,99.31h1.34c.2,0,.24.08.24.27v.9c0,.19-.08.25-.26.25H70.77c-.19,0-.26-.07-.26-.25V97.81c0-.09,0-.2.17-.2h.24a.2.2,0,0,1,.19.2.19.19,0,0,1-.2.2Zm0,.4v.62h1.18v-.62Z" style="fill: #fff" transform="translate(0.15 -1.75)"/>
    </g>
    <g>
      <path d="M68,108.54a.2.2,0,1,1-.4,0v-2.91H69a.6.6,0,0,1,.63.58v.28a.58.58,0,0,1-.63.57H68.6l.9,1.29a.4.4,0,0,1,.1.21.19.19,0,0,1-.2.19.21.21,0,0,1-.18-.11l-1.1-1.58H68Zm0-1.89h.89c.11,0,.29,0,.29-.17v-.28c0-.16-.16-.18-.28-.18H68Z" style="fill: #fff" transform="translate(0.15 -1.75)"/>
      <path d="M70.71,106a.2.2,0,1,1,0-.4h1.38a.39.39,0,0,1,.4.4v.77a.56.56,0,0,0,0,.78v.77a.39.39,0,0,1-.4.4H70.71a.2.2,0,1,1,0-.4h1.38v-.66c0-.22-.09-.29-.2-.29H71.1a.2.2,0,1,1,0-.4h.78c.11,0,.2-.07.2-.29V106Z" style="fill: #fff" transform="translate(0.15 -1.75)"/>
    </g>
    <g>
      <path d="M55.42,94.93a.2.2,0,1,1-.4,0V92h1.34a.6.6,0,0,1,.63.58v.28a.58.58,0,0,1-.63.57H56l.9,1.29a.4.4,0,0,1,.1.21.19.19,0,0,1-.2.19.21.21,0,0,1-.18-.11l-1.1-1.58h-.09Zm0-1.89h.89c.11,0,.29,0,.29-.17V92.6c0-.16-.16-.18-.28-.18h-.89Z" style="fill: #fff" transform="translate(0.15 -1.75)"/>
      <path d="M57.9,94.73h1.38a.2.2,0,1,1,0,.4H57.5v-1.3a.4.4,0,0,1,.45-.45h1.12v-1H57.7a.2.2,0,1,1,0-.4H59a.41.41,0,0,1,.45.47v.82a.41.41,0,0,1-.45.47H57.9Z" style="fill: #fff" transform="translate(0.15 -1.75)"/>
      <path d="M61.19,93.72V92.56a.2.2,0,1,1,.4,0v1.16a.2.2,0,1,1,0,.4v.82a.2.2,0,1,1-.4,0v-.82H60V92.22a.2.2,0,1,1,.4,0v1.5Z" style="fill: #fff" transform="translate(0.15 -1.75)"/>
    </g>
    <g>
      <path d="M44.36,97a.2.2,0,1,1-.4,0V94.11H45.3a.6.6,0,0,1,.63.58V95a.58.58,0,0,1-.63.57h-.37l.9,1.29a.4.4,0,0,1,.1.21.19.19,0,0,1-.2.19.21.21,0,0,1-.18-.11l-1.1-1.58h-.09Zm0-1.89h.89c.11,0,.29,0,.29-.17v-.28c0-.16-.16-.18-.28-.18h-.89Z" style="fill: #fff" transform="translate(0.15 -1.75)"/>
      <path d="M47.53,96.82V96a.2.2,0,1,1,.4,0v1a.18.18,0,0,1-.2.2H46.16a.2.2,0,1,1,0-.4h.59V94.51h-.59a.2.2,0,1,1,0-.4h1v2.71Z" style="fill: #fff" transform="translate(0.15 -1.75)"/>
      <path d="M48.44,96.82h1.38a.2.2,0,1,1,0,.4H48v-1.3a.4.4,0,0,1,.45-.45h1.12v-1H48.24a.2.2,0,1,1,0-.4h1.33a.41.41,0,0,1,.45.47v.82a.41.41,0,0,1-.45.47H48.44Z" style="fill: #fff" transform="translate(0.15 -1.75)"/>
      <path d="M51.19,97.22a.6.6,0,0,1-.6-.38l-.37-.74a.9.9,0,0,1-.11-.42.88.88,0,0,1,.11-.44l.37-.74a.6.6,0,0,1,.62-.38h.68a.19.19,0,0,1,.2.2.19.19,0,0,1-.2.2h-.67c-.17,0-.2,0-.28.17l-.35.7a.61.61,0,0,0-.08.3.56.56,0,0,0,.08.28l.34.69c.08.16.12.18.3.18h.65a.19.19,0,0,1,.2.2.19.19,0,0,1-.2.2Z" style="fill: #fff" transform="translate(0.15 -1.75)"/>
      <path d="M53.57,94.11a.19.19,0,0,1,.2.2v1.16a.41.41,0,0,1,.29.11.39.39,0,0,1,.11.29v1a.37.37,0,0,1-.4.4H52.6a.37.37,0,0,1-.4-.4v-1a.39.39,0,0,1,.11-.29.41.41,0,0,1,.29-.11V94.31a.19.19,0,0,1,.2-.2Zm.2,2.71v-1H52.6v1Zm-.4-1.36v-1H53v1Z" style="fill: #fff" transform="translate(0.15 -1.75)"/>
    </g>
    <g>
      <path d="M38.94,99.52a.6.6,0,0,1-.6-.38L38,98.4a.9.9,0,0,1-.11-.42.88.88,0,0,1,.11-.44l.37-.74a.6.6,0,0,1,.62-.38h.68a.19.19,0,0,1,.2.2.19.19,0,0,1-.2.2H39c-.17,0-.2,0-.28.17l-.35.7a.61.61,0,0,0-.08.3.56.56,0,0,0,.08.28l.34.69c.08.16.12.18.3.18h.65a.19.19,0,0,1,.2.2.19.19,0,0,1-.2.2Z" style="fill: #fff" transform="translate(0.15 -1.75)"/>
      <path d="M41.4,98.1V96.95a.2.2,0,1,1,.4,0V98.1a.2.2,0,1,1,0,.4v.82a.2.2,0,1,1-.4,0V98.5H40.22V96.61a.2.2,0,1,1,.4,0v1.5Z" style="fill: #fff" transform="translate(0.15 -1.75)"/>
    </g>
    <g>
      <path d="M16,113.57a.6.6,0,0,1,.38-.6l.74-.37a.91.91,0,0,1,.42-.11.88.88,0,0,1,.44.11l.74.37a.6.6,0,0,1,.38.62v.68a.19.19,0,0,1-.2.2.19.19,0,0,1-.2-.2v-.67c0-.17,0-.2-.17-.28l-.7-.35a.62.62,0,0,0-.3-.08.56.56,0,0,0-.28.08l-.69.34c-.16.08-.18.12-.18.3v.65a.19.19,0,0,1-.2.2.19.19,0,0,1-.2-.2Z" style="fill: #fff" transform="translate(0.15 -1.75)"/>
      <path d="M16.42,115.45v1.38a.2.2,0,1,1-.4,0v-1.78h1.3a.4.4,0,0,1,.45.45v1.12h1v-1.37a.2.2,0,1,1,.4,0v1.33a.41.41,0,0,1-.47.45h-.82a.41.41,0,0,1-.47-.45v-1.13Z" style="fill: #fff" transform="translate(0.15 -1.75)"/>
      <path d="M17.43,118.59h1.16a.2.2,0,1,1,0,.4H17.43a.2.2,0,1,1-.4,0h-.82a.2.2,0,1,1,0-.4H17v-1.17h1.89a.2.2,0,1,1,0,.4h-1.5Z" style="fill: #fff" transform="translate(0.15 -1.75)"/>
    </g>
    <g>
      <path d="M31.68,118.74a.6.6,0,0,1,.38-.6l.74-.37a.9.9,0,0,1,.42-.11.87.87,0,0,1,.44.11l.74.37a.6.6,0,0,1,.38.62v.68a.19.19,0,0,1-.2.2.19.19,0,0,1-.2-.2v-.67c0-.17,0-.2-.17-.28l-.7-.35a.61.61,0,0,0-.3-.08.56.56,0,0,0-.28.08l-.69.34c-.16.08-.18.12-.18.3v.65a.19.19,0,0,1-.2.2.19.19,0,0,1-.2-.2Z" style="fill: #fff" transform="translate(0.15 -1.75)"/>
      <path d="M32.08,121.32h.81a.2.2,0,1,1,0,.4h-1a.18.18,0,0,1-.2-.2v-1.58a.2.2,0,1,1,.4,0v.59h2.31v-.59a.2.2,0,1,1,.4,0v1H32.08Z" style="fill: #fff" transform="translate(0.15 -1.75)"/>
      <path d="M32.08,122.38v1.38a.2.2,0,1,1-.4,0V122H33a.4.4,0,0,1,.45.45v1.12h1v-1.37a.2.2,0,1,1,.4,0v1.33a.41.41,0,0,1-.47.45h-.82a.41.41,0,0,1-.47-.45v-1.13Z" style="fill: #fff" transform="translate(0.15 -1.75)"/>
    </g>
    <g>
      <path d="M36.35,118.74a.6.6,0,0,1,.38-.6l.74-.37a.9.9,0,0,1,.42-.11.87.87,0,0,1,.44.11l.74.37a.6.6,0,0,1,.38.62v.68a.19.19,0,0,1-.2.2.19.19,0,0,1-.2-.2v-.67c0-.17,0-.2-.17-.28l-.7-.35a.61.61,0,0,0-.3-.08.56.56,0,0,0-.28.08l-.69.34c-.16.08-.18.12-.18.3v.65a.19.19,0,0,1-.2.2.19.19,0,0,1-.2-.2Z" style="fill: #fff" transform="translate(0.15 -1.75)"/>
      <path d="M36.75,121.24h.81a.2.2,0,0,1,0,.4h-1a.18.18,0,0,1-.2-.2v-1.58a.2.2,0,1,1,.4,0v.59h2.31v-.59a.2.2,0,1,1,.4,0v1H36.75Z" style="fill: #fff" transform="translate(0.15 -1.75)"/>
      <path d="M38.1,122.62v.74a.41.41,0,0,1-.11.32.39.39,0,0,1-.34.12H36.8a.42.42,0,0,1-.31-.1.39.39,0,0,1-.14-.35v-.89a.58.58,0,0,1,.07-.26l.07-.15c0-.11.08-.23.22-.23a.2.2,0,0,1,.2.19.28.28,0,0,1,0,.13l-.05.12a.7.7,0,0,0-.08.21v.92h1v-1.18h1.75v1.38a.2.2,0,1,1-.4,0v-1Z" style="fill: #fff" transform="translate(0.15 -1.75)"/>
    </g>
    <g>
      <path d="M40.76,117.71a.2.2,0,1,1,0-.4h2.91v1.34a.6.6,0,0,1-.58.63h-.28a.58.58,0,0,1-.57-.63v-.37l-1.29.9a.4.4,0,0,1-.21.1.19.19,0,0,1-.19-.2.21.21,0,0,1,.11-.18l1.58-1.1v-.09Zm1.89,0v.89c0,.11,0,.29.17.29h.28c.16,0,.18-.16.18-.28v-.89Z" style="fill: #fff" transform="translate(0.15 -1.75)"/>
      <path d="M41,120.89h.81a.2.2,0,1,1,0,.4h-1a.18.18,0,0,1-.2-.2v-1.57a.2.2,0,1,1,.4,0v.59h2.31v-.59a.2.2,0,1,1,.4,0v1H41Z" style="fill: #fff" transform="translate(0.15 -1.75)"/>
      <path d="M41,122.89h.81a.2.2,0,1,1,0,.4h-1a.18.18,0,0,1-.2-.2v-1.57a.2.2,0,1,1,.4,0v.59h2.31v-.59a.2.2,0,1,1,.4,0v1H41Z" style="fill: #fff" transform="translate(0.15 -1.75)"/>
    </g>
    <g>
      <path d="M45.79,117.71a.2.2,0,1,1,0-.4H48.7v1.34a.6.6,0,0,1-.58.63h-.28a.58.58,0,0,1-.57-.63v-.37l-1.29.9a.4.4,0,0,1-.21.1.19.19,0,0,1-.19-.2.21.21,0,0,1,.11-.18l1.58-1.1v-.09Zm1.89,0v.89c0,.11,0,.29.17.29h.28c.16,0,.18-.16.18-.28v-.89Z" style="fill: #fff" transform="translate(0.15 -1.75)"/>
      <path d="M46,121h.81a.2.2,0,1,1,0,.4h-1a.18.18,0,0,1-.2-.2v-1.57a.2.2,0,1,1,.4,0v.59H48.3v-.59a.2.2,0,1,1,.4,0v1H46Z" style="fill: #fff" transform="translate(0.15 -1.75)"/>
      <path d="M48.3,121.51a.2.2,0,1,1,.4,0v1.38a.39.39,0,0,1-.4.4h-.77a.47.47,0,0,1-.39-.16.46.46,0,0,1-.39.16H46a.39.39,0,0,1-.4-.4v-1.37a.2.2,0,1,1,.4,0v1.38h.66c.22,0,.29-.09.29-.2v-.78a.2.2,0,1,1,.4,0v.78c0,.11.07.2.29.2h.66Z" style="fill: #fff" transform="translate(0.15 -1.75)"/>
    </g>
    <g>
      <path d="M49.34,118.39a.6.6,0,0,1,.38-.6l.74-.37a.91.91,0,0,1,.42-.11.88.88,0,0,1,.44.11l.74.37a.6.6,0,0,1,.38.62v.68a.19.19,0,0,1-.2.2.19.19,0,0,1-.2-.2v-.67c0-.17,0-.2-.17-.28l-.7-.35a.62.62,0,0,0-.3-.08.56.56,0,0,0-.28.08l-.69.34c-.16.08-.18.12-.18.3v.65a.19.19,0,0,1-.2.2.19.19,0,0,1-.2-.2Z" style="fill: #fff" transform="translate(0.15 -1.75)"/>
      <path d="M49.74,121h.81a.2.2,0,1,1,0,.4h-1a.18.18,0,0,1-.2-.2v-1.57a.2.2,0,1,1,.4,0v.59H52v-.59a.2.2,0,1,1,.4,0v1H49.74Z" style="fill: #fff" transform="translate(0.15 -1.75)"/>
      <path d="M50.75,122v1.33c0,.2-.08.24-.27.24h-.9c-.19,0-.25-.08-.25-.26v-1.46c0-.19.07-.26.25-.26h2.66c.09,0,.2,0,.2.17V122a.2.2,0,0,1-.2.19.19.19,0,0,1-.2-.2Zm-.4,0h-.62v1.17h.62Z" style="fill: #fff" transform="translate(0.15 -1.75)"/>
    </g>
    <g>
      <path d="M27.93,94.22a.6.6,0,0,1-.6-.38L27,93.09a.9.9,0,0,1-.11-.42.88.88,0,0,1,.11-.44l.37-.74a.6.6,0,0,1,.62-.38h.68a.19.19,0,0,1,.2.2.19.19,0,0,1-.2.2H28c-.17,0-.2,0-.28.17l-.35.7a.61.61,0,0,0-.08.3.56.56,0,0,0,.08.28l.34.69c.08.16.12.18.3.18h.65a.19.19,0,0,1,.2.2.19.19,0,0,1-.2.2Z" style="fill: #fff" transform="translate(0.15 -1.75)"/>
      <path d="M30.43,93.82V93a.2.2,0,1,1,.4,0v1a.18.18,0,0,1-.2.2H29.05a.2.2,0,1,1,0-.4h.59V91.51h-.59a.2.2,0,1,1,0-.4h1v2.71Z" style="fill: #fff" transform="translate(0.15 -1.75)"/>
      <path d="M31.21,91.51a.2.2,0,1,1,0-.4h1.38a.39.39,0,0,1,.4.4v.77a.56.56,0,0,0,0,.78v.77a.39.39,0,0,1-.4.4H31.21a.2.2,0,1,1,0-.4h1.38v-.66c0-.22-.09-.29-.2-.29h-.78a.2.2,0,1,1,0-.4h.78c.11,0,.2-.07.2-.29v-.66Z" style="fill: #fff" transform="translate(0.15 -1.75)"/>
    </g>
    <g>
      <path d="M15.75,93.27a.2.2,0,1,1-.4,0V90.36h1.33a.59.59,0,0,1,.46.16.6.6,0,0,1,.19.52v.54a.66.66,0,0,1-.16.51.62.62,0,0,1-.54.19h-.88Zm0-1.37h.89c.24,0,.29-.06.29-.29V91c0-.23-.05-.29-.29-.29h-.89Z" style="fill: #fff" transform="translate(0.15 -1.75)"/>
      <path d="M18.91,93.47a.6.6,0,0,1-.6-.38l-.37-.74a.9.9,0,0,1-.11-.42.88.88,0,0,1,.11-.44l.37-.74a.6.6,0,0,1,.62-.38h.68a.19.19,0,0,1,.2.2.19.19,0,0,1-.2.2h-.67c-.17,0-.2,0-.28.17l-.35.7a.61.61,0,0,0-.08.3.56.56,0,0,0,.08.28l.34.69c.08.16.12.18.3.18h.65a.19.19,0,0,1,.2.2.19.19,0,0,1-.2.2Z" style="fill: #fff" transform="translate(0.15 -1.75)"/>
      <path d="M21.53,90.36a.19.19,0,0,1,.2.2v1.16a.41.41,0,0,1,.29.11.39.39,0,0,1,.11.29v1a.37.37,0,0,1-.4.4H20.55a.37.37,0,0,1-.4-.4v-1a.39.39,0,0,1,.11-.29.41.41,0,0,1,.29-.11V90.56a.19.19,0,0,1,.2-.2Zm.2,2.71v-1H20.55v1Zm-.4-1.36v-1H21v1Z" style="fill: #fff" transform="translate(0.15 -1.75)"/>
    </g>
    <g>
      <path d="M22,102a.2.2,0,1,1-.4,0V99.07h1.33a.59.59,0,0,1,.46.16.6.6,0,0,1,.19.52v.54a.66.66,0,0,1-.16.51.62.62,0,0,1-.54.19H22Zm0-1.37h.89c.24,0,.29-.06.29-.29v-.56c0-.23-.05-.29-.29-.29H22Z" style="fill: #fff" transform="translate(0.15 -1.75)"/>
      <path d="M25.07,102.18a.6.6,0,0,1-.6-.38l-.37-.74a.9.9,0,0,1-.11-.42.88.88,0,0,1,.11-.44l.37-.74a.6.6,0,0,1,.62-.38h.68a.19.19,0,0,1,.2.2.19.19,0,0,1-.2.2h-.67c-.17,0-.2,0-.28.17l-.35.7a.61.61,0,0,0-.08.3.56.56,0,0,0,.08.28l.34.69c.08.16.12.18.3.18h.65a.19.19,0,0,1,.2.2.19.19,0,0,1-.2.2Z" style="fill: #fff" transform="translate(0.15 -1.75)"/>
      <path d="M27.65,100.49H26.28a.2.2,0,0,1-.2-.2v-1a.2.2,0,0,1,.2-.2h1.57a.2.2,0,0,1,.2.2V102a.2.2,0,0,1-.2.2h-.2a.2.2,0,0,1-.2-.2.19.19,0,0,1,.2-.2Zm0-.4v-.62H26.48v.62Z" style="fill: #fff" transform="translate(0.15 -1.75)"/>
    </g>
    <g>
      <path d="M30.08,104a.2.2,0,1,1-.4,0v-2.91H31a.6.6,0,0,1,.63.58V102a.58.58,0,0,1-.63.57h-.37l.9,1.29a.4.4,0,0,1,.1.21.19.19,0,0,1-.2.19.21.21,0,0,1-.18-.11l-1.1-1.58h-.09Zm0-1.89H31c.11,0,.29,0,.29-.17v-.28c0-.16-.16-.18-.28-.18h-.89Z" style="fill: #fff" transform="translate(0.15 -1.75)"/>
      <path d="M33.25,103.82V103a.2.2,0,1,1,.4,0v1a.18.18,0,0,1-.2.2H31.88a.2.2,0,1,1,0-.4h.59v-2.31h-.59a.2.2,0,1,1,0-.4h1v2.71Z" style="fill: #fff" transform="translate(0.15 -1.75)"/>
    </g>
    <g>
      <path d="M80.67,143a.68.68,0,0,1-.08.38.61.61,0,0,1-.58.3h-.23a.63.63,0,0,1-.56-.23.6.6,0,0,1-.12-.4v-.58a.2.2,0,0,1,.4,0v.52c0,.23,0,.3.28.3H80c.17,0,.27,0,.27-.22v-2.29a.2.2,0,1,1,.4,0Z" style="fill: #fff" transform="translate(0.15 -1.75)"/>
      <path d="M81.54,143.24h1.38a.2.2,0,1,1,0,.4H81.14v-1.3a.4.4,0,0,1,.45-.45h1.12v-1H81.34a.2.2,0,1,1,0-.4h1.33a.41.41,0,0,1,.45.47v.82a.41.41,0,0,1-.45.47H81.54Z" style="fill: #fff" transform="translate(0.15 -1.75)"/>
    </g>
    <polyline points="41.42 92.34 41.42 92.95 40.55 93.83 34.26 93.83 33.52 93.09 33.52 90.09 34.21 89.52 40.55 89.52 41.59 90.56 41.59 91.28" style="fill: none;stroke: #fff;stroke-miterlimit: 10;stroke-width: 0.6000000000000001px"/>
    <line style="fill: none;stroke: #fff;stroke-miterlimit: 10;stroke-width: 0.6000000000000001px" x1="42.61" x2="40.99" y1="91.62" y2="91.62"/>
    <path d="M68.48,124.42a3,3,0,0,0-1,2,3.11,3.11,0,0,0,1,2.4h6.44a3,3,0,0,0,1-2.37,3,3,0,0,0-1-2Z" style="fill: none;stroke: #fff;stroke-miterlimit: 10;stroke-width: 0.6000000000000001px" transform="translate(0.15 -1.75)"/>
  </g>
  <g data-name="Layer 7" id="Layer_7">
    <rect height="1.07" id="circuitoCon_Tx" style="fill: #8c8c8c" width="2.16" x="57.23" y="151.44"/>
    <rect height="1.07" id="circuitoCon_RX" style="fill: #8c8c8c" width="2.16" x="62.4" y="151.45"/>
    <rect height="1.07" id="circuitoCon_GND" style="fill: #8c8c8c" width="2.16" x="67.57" y="151.46"/>
    <rect height="1.07" id="circuitoCon_VCC" style="fill: #8c8c8c" width="2.16" x="72.74" y="151.47"/>
  </g>
</svg>