<?xml version="1.0" ?><svg data-name="Layer 14" height="19.76mm" id="Layer_14" viewBox="0 0 89.83 56" width="31.69mm" xmlns="http://www.w3.org/2000/svg" xmlns:xlink="http://www.w3.org/1999/xlink">
  <defs>
    <radialGradient cx="56.07" cy="28.02" gradientUnits="userSpaceOnUse" id="radial-gradient" r="24">
      <stop offset="0.75" stop-color="#ff6c2c"/>
      <stop offset="0.85" stop-color="#ff6d2e"/>
      <stop offset="0.89" stop-color="#ff7335"/>
      <stop offset="0.91" stop-color="#ff7c40"/>
      <stop offset="0.96" stop-color="#ff874f"/>
      <stop offset="1" stop-color="#ff935f"/>
    </radialGradient>
    <linearGradient data-name="Steel 02" gradientUnits="userSpaceOnUse" id="Steel_02" x1="41.44" x2="70.69" y1="28.02" y2="28.02">
      <stop offset="0" stop-color="#e5e2df"/>
      <stop offset="0" stop-color="#d8d4d0"/>
      <stop offset="0" stop-color="#ccc7c2"/>
      <stop offset="0.07" stop-color="#bdb9b4"/>
      <stop offset="0.15" stop-color="#a7a3a0"/>
      <stop offset="0.52" stop-color="#e0e1e2"/>
      <stop offset="0.62" stop-color="#d3d3d3"/>
      <stop offset="0.82" stop-color="#b2afac"/>
      <stop offset="0.88" stop-color="#a7a3a0"/>
      <stop offset="1" stop-color="#d1d3d4"/>
      <stop offset="1" stop-color="#a7a9ac"/>
    </linearGradient>
    <clipPath id="clip-path">
      <circle cx="56.07" cy="28" r="14.62" style="fill: none"/>
    </clipPath>
  </defs>
  <title>MQ3</title>
  <g data-name="STROKE background" id="STROKE_background">
    <path d="M89.83,56V0H0V56ZM84,2.4c5.71,0,5.7,8.86,0,8.86S78.3,2.4,84,2.4Zm-.27,42.35c5.71,0,5.7,8.86,0,8.86S78,44.76,83.73,44.76ZM7.5,2.24c5.71,0,5.7,8.86,0,8.86S1.8,2.24,7.5,2.24Zm-2,34.93a1.71,1.71,0,0,1,0,3.42A1.71,1.71,0,0,1,5.54,37.17Zm-.06-7.37a1.71,1.71,0,0,1,0,3.42A1.71,1.71,0,0,1,5.48,29.79ZM5.6,26a1.71,1.71,0,0,1,0-3.42A1.71,1.71,0,0,1,5.6,26ZM5.42,15.48a1.71,1.71,0,0,1,0,3.42A1.71,1.71,0,0,1,5.42,15.48ZM7.33,44.9c5.71,0,5.7,8.86,0,8.86S1.63,44.9,7.33,44.9Z" style="fill: #1e5973"/>
  </g>
  <g id="backdround">
    <path d="M89.83,56V0H1.29V56ZM84,2.4c5.71,0,5.7,8.86,0,8.86S78.3,2.4,84,2.4Zm-.27,42.35c5.71,0,5.7,8.86,0,8.86S78,44.76,83.73,44.76ZM7.5,2.24c5.71,0,5.7,8.86,0,8.86S1.8,2.24,7.5,2.24ZM5.44,37c2.2,0,2.2,3.5,0,3.5S3.25,37,5.44,37Zm.06-7.28c2.2,0,2.2,3.5,0,3.5S3.3,29.71,5.5,29.71Zm.1-3.8c-2.2,0-2.2-3.5,0-3.5S7.8,25.91,5.6,25.91ZM5.42,15.1c2.2,0,2.2,3.5,0,3.5S3.22,15.1,5.42,15.1ZM7.33,44.9c5.71,0,5.7,8.86,0,8.86S1.63,44.9,7.33,44.9Z" style="fill: #0b5597"/>
  </g>
  <g id="points">
    <path d="M70.45,51.92" style="fill: none;stroke: #1a2c80;stroke-miterlimit: 10;stroke-width: 0.04px"/>
    <path d="M3.18,32.67a2.6,2.6,0,0,0,1.3,1.25,2.7,2.7,0,0,0,2.06,0c.41-.2.46-.4,1.13-.8a6.15,6.15,0,0,1,1-.46H16l2.89,2.89V50a1.81,1.81,0,0,0,0,1.9,1.1,1.1,0,0,0,.38.29,1.65,1.65,0,0,0,1.51-.29H70.45c1.1.29,1.85.06,2.13-.88-.14-1.21-.87-1.55-2.13-1.12H20.67V34.71l-4.5-4.33H8.58A6.22,6.22,0,0,1,7.84,30c-.43-.27-.61-.45-.84-.61a2.9,2.9,0,0,0-1.64-.49,2.71,2.71,0,0,0-2.17,3.78Zm2.3-2.88a1.71,1.71,0,0,1,0,3.42A1.71,1.71,0,0,1,5.48,29.79Z" style="fill: none;stroke: #1a2c80;stroke-miterlimit: 10;stroke-width: 0.5px"/>
  </g>
  <g data-name="white ellipse" id="white_ellipse">
    <g>
      <circle cx="7.41" cy="6.73" r="4.46" style="fill: none;stroke: #a7a098;stroke-miterlimit: 10"/>
      <circle cx="7.41" cy="49.23" r="4.46" style="fill: none;stroke: #a7a098;stroke-miterlimit: 10"/>
      <circle cx="83.75" cy="6.73" r="4.46" style="fill: none;stroke: #a7a098;stroke-miterlimit: 10"/>
    </g>
    <circle cx="83.75" cy="49.23" r="4.46" style="fill: none;stroke: #a7a098;stroke-miterlimit: 10"/>
  </g>
  <g data-name="orange ellipse" id="orange_ellipse">
    <circle cx="56.07" cy="28.02" r="24" style="fill: url(#radial-gradient)"/>
    <circle cx="56.07" cy="28.02" r="14.62" style="fill: url(#Steel_02)"/>
  </g>
  <g data-name="Layer 13" id="Layer_13">
    <g style="clip-path: url(#clip-path)">
      <line style="fill: none;stroke: #383838;stroke-miterlimit: 10;stroke-width: 0.25px" x1="57.01" x2="79.13" y1="50.84" y2="28.72"/>
      <line style="fill: none;stroke: #383838;stroke-miterlimit: 10;stroke-width: 0.25px" x1="56.62" x2="78.75" y1="50.45" y2="28.33"/>
      <line style="fill: none;stroke: #383838;stroke-miterlimit: 10;stroke-width: 0.25px" x1="56.24" x2="78.36" y1="50.06" y2="27.94"/>
      <line style="fill: none;stroke: #383838;stroke-miterlimit: 10;stroke-width: 0.25px" x1="55.85" x2="77.97" y1="49.67" y2="27.55"/>
      <line style="fill: none;stroke: #383838;stroke-miterlimit: 10;stroke-width: 0.25px" x1="55.46" x2="77.58" y1="49.28" y2="27.16"/>
      <line style="fill: none;stroke: #383838;stroke-miterlimit: 10;stroke-width: 0.25px" x1="55.07" x2="77.19" y1="48.89" y2="26.77"/>
      <line style="fill: none;stroke: #383838;stroke-miterlimit: 10;stroke-width: 0.25px" x1="54.68" x2="76.8" y1="48.5" y2="26.38"/>
      <line style="fill: none;stroke: #383838;stroke-miterlimit: 10;stroke-width: 0.25px" x1="54.29" x2="76.41" y1="48.11" y2="25.99"/>
      <line style="fill: none;stroke: #383838;stroke-miterlimit: 10;stroke-width: 0.25px" x1="53.9" x2="76.02" y1="47.72" y2="25.6"/>
      <line style="fill: none;stroke: #383838;stroke-miterlimit: 10;stroke-width: 0.25px" x1="53.51" x2="75.63" y1="47.33" y2="25.21"/>
      <line style="fill: none;stroke: #383838;stroke-miterlimit: 10;stroke-width: 0.25px" x1="53.12" x2="75.24" y1="46.94" y2="24.82"/>
      <line style="fill: none;stroke: #383838;stroke-miterlimit: 10;stroke-width: 0.25px" x1="52.73" x2="74.85" y1="46.56" y2="24.44"/>
      <line style="fill: none;stroke: #383838;stroke-miterlimit: 10;stroke-width: 0.25px" x1="52.34" x2="74.46" y1="46.17" y2="24.05"/>
      <line style="fill: none;stroke: #383838;stroke-miterlimit: 10;stroke-width: 0.25px" x1="51.95" x2="74.07" y1="45.78" y2="23.66"/>
      <line style="fill: none;stroke: #383838;stroke-miterlimit: 10;stroke-width: 0.25px" x1="51.56" x2="73.68" y1="45.39" y2="23.27"/>
      <line style="fill: none;stroke: #383838;stroke-miterlimit: 10;stroke-width: 0.25px" x1="51.17" x2="73.29" y1="45" y2="22.88"/>
      <line style="fill: none;stroke: #383838;stroke-miterlimit: 10;stroke-width: 0.25px" x1="50.78" x2="72.91" y1="44.61" y2="22.49"/>
      <line style="fill: none;stroke: #383838;stroke-miterlimit: 10;stroke-width: 0.25px" x1="50.4" x2="72.52" y1="44.22" y2="22.1"/>
      <line style="fill: none;stroke: #383838;stroke-miterlimit: 10;stroke-width: 0.25px" x1="50.01" x2="72.13" y1="43.83" y2="21.71"/>
      <line style="fill: none;stroke: #383838;stroke-miterlimit: 10;stroke-width: 0.25px" x1="49.62" x2="71.74" y1="43.44" y2="21.32"/>
      <line style="fill: none;stroke: #383838;stroke-miterlimit: 10;stroke-width: 0.25px" x1="49.23" x2="71.35" y1="43.05" y2="20.93"/>
      <line style="fill: none;stroke: #383838;stroke-miterlimit: 10;stroke-width: 0.25px" x1="48.84" x2="70.96" y1="42.66" y2="20.54"/>
      <line style="fill: none;stroke: #383838;stroke-miterlimit: 10;stroke-width: 0.25px" x1="48.45" x2="70.57" y1="42.27" y2="20.15"/>
      <line style="fill: none;stroke: #383838;stroke-miterlimit: 10;stroke-width: 0.25px" x1="48.06" x2="70.18" y1="41.88" y2="19.76"/>
      <line style="fill: none;stroke: #383838;stroke-miterlimit: 10;stroke-width: 0.25px" x1="47.67" x2="69.79" y1="41.49" y2="19.37"/>
      <line style="fill: none;stroke: #383838;stroke-miterlimit: 10;stroke-width: 0.25px" x1="47.28" x2="69.4" y1="41.1" y2="18.98"/>
      <line style="fill: none;stroke: #383838;stroke-miterlimit: 10;stroke-width: 0.25px" x1="46.89" x2="69.01" y1="40.72" y2="18.6"/>
      <line style="fill: none;stroke: #383838;stroke-miterlimit: 10;stroke-width: 0.25px" x1="46.5" x2="68.62" y1="40.33" y2="18.21"/>
      <line style="fill: none;stroke: #383838;stroke-miterlimit: 10;stroke-width: 0.25px" x1="46.11" x2="68.23" y1="39.94" y2="17.82"/>
      <line style="fill: none;stroke: #383838;stroke-miterlimit: 10;stroke-width: 0.25px" x1="45.72" x2="67.84" y1="39.55" y2="17.43"/>
      <line style="fill: none;stroke: #383838;stroke-miterlimit: 10;stroke-width: 0.25px" x1="45.33" x2="67.45" y1="39.16" y2="17.04"/>
      <line style="fill: none;stroke: #383838;stroke-miterlimit: 10;stroke-width: 0.25px" x1="44.94" x2="67.07" y1="38.77" y2="16.65"/>
      <line style="fill: none;stroke: #383838;stroke-miterlimit: 10;stroke-width: 0.25px" x1="44.56" x2="66.68" y1="38.38" y2="16.26"/>
      <line style="fill: none;stroke: #383838;stroke-miterlimit: 10;stroke-width: 0.25px" x1="44.17" x2="66.29" y1="37.99" y2="15.87"/>
      <line style="fill: none;stroke: #383838;stroke-miterlimit: 10;stroke-width: 0.25px" x1="43.78" x2="65.9" y1="37.6" y2="15.48"/>
      <line style="fill: none;stroke: #383838;stroke-miterlimit: 10;stroke-width: 0.25px" x1="43.39" x2="65.51" y1="37.21" y2="15.09"/>
      <line style="fill: none;stroke: #383838;stroke-miterlimit: 10;stroke-width: 0.25px" x1="43" x2="65.12" y1="36.82" y2="14.7"/>
      <line style="fill: none;stroke: #383838;stroke-miterlimit: 10;stroke-width: 0.25px" x1="42.61" x2="64.73" y1="36.43" y2="14.31"/>
      <line style="fill: none;stroke: #383838;stroke-miterlimit: 10;stroke-width: 0.25px" x1="42.22" x2="64.34" y1="36.04" y2="13.92"/>
      <line style="fill: none;stroke: #383838;stroke-miterlimit: 10;stroke-width: 0.25px" x1="41.83" x2="63.95" y1="35.65" y2="13.53"/>
      <line style="fill: none;stroke: #383838;stroke-miterlimit: 10;stroke-width: 0.25px" x1="41.44" x2="63.56" y1="35.27" y2="13.14"/>
      <line style="fill: none;stroke: #383838;stroke-miterlimit: 10;stroke-width: 0.25px" x1="41.05" x2="63.17" y1="34.88" y2="12.76"/>
      <line style="fill: none;stroke: #383838;stroke-miterlimit: 10;stroke-width: 0.25px" x1="40.66" x2="62.78" y1="34.49" y2="12.37"/>
      <line style="fill: none;stroke: #383838;stroke-miterlimit: 10;stroke-width: 0.25px" x1="40.27" x2="62.39" y1="34.1" y2="11.98"/>
      <line style="fill: none;stroke: #383838;stroke-miterlimit: 10;stroke-width: 0.25px" x1="39.88" x2="62" y1="33.71" y2="11.59"/>
      <line style="fill: none;stroke: #383838;stroke-miterlimit: 10;stroke-width: 0.25px" x1="39.49" x2="61.61" y1="33.32" y2="11.2"/>
      <line style="fill: none;stroke: #383838;stroke-miterlimit: 10;stroke-width: 0.25px" x1="39.11" x2="61.23" y1="32.93" y2="10.81"/>
      <line style="fill: none;stroke: #383838;stroke-miterlimit: 10;stroke-width: 0.25px" x1="38.72" x2="60.84" y1="32.54" y2="10.42"/>
      <line style="fill: none;stroke: #383838;stroke-miterlimit: 10;stroke-width: 0.25px" x1="38.33" x2="60.45" y1="32.15" y2="10.03"/>
      <line style="fill: none;stroke: #383838;stroke-miterlimit: 10;stroke-width: 0.25px" x1="37.94" x2="60.06" y1="31.76" y2="9.64"/>
      <line style="fill: none;stroke: #383838;stroke-miterlimit: 10;stroke-width: 0.25px" x1="37.55" x2="59.67" y1="31.37" y2="9.25"/>
      <line style="fill: none;stroke: #383838;stroke-miterlimit: 10;stroke-width: 0.25px" x1="37.16" x2="59.28" y1="30.98" y2="8.86"/>
      <line style="fill: none;stroke: #383838;stroke-miterlimit: 10;stroke-width: 0.25px" x1="36.77" x2="58.89" y1="30.59" y2="8.47"/>
      <line style="fill: none;stroke: #383838;stroke-miterlimit: 10;stroke-width: 0.25px" x1="36.38" x2="58.5" y1="30.2" y2="8.08"/>
      <line style="fill: none;stroke: #383838;stroke-miterlimit: 10;stroke-width: 0.25px" x1="35.99" x2="58.11" y1="29.81" y2="7.69"/>
      <line style="fill: none;stroke: #383838;stroke-miterlimit: 10;stroke-width: 0.25px" x1="35.6" x2="57.72" y1="29.43" y2="7.3"/>
      <line style="fill: none;stroke: #383838;stroke-miterlimit: 10;stroke-width: 0.25px" x1="35.21" x2="57.33" y1="29.04" y2="6.92"/>
      <line style="fill: none;stroke: #383838;stroke-miterlimit: 10;stroke-width: 0.25px" x1="34.82" x2="56.94" y1="28.65" y2="6.53"/>
      <line style="fill: none;stroke: #383838;stroke-miterlimit: 10;stroke-width: 0.25px" x1="34.43" x2="56.55" y1="28.26" y2="6.14"/>
      <line style="fill: none;stroke: #383838;stroke-miterlimit: 10;stroke-width: 0.25px" x1="34.04" x2="56.16" y1="27.87" y2="5.75"/>
      <line style="fill: none;stroke: #383838;stroke-miterlimit: 10;stroke-width: 0.25px" x1="33.65" x2="55.77" y1="27.48" y2="5.36"/>
      <line style="fill: none;stroke: #383838;stroke-miterlimit: 10;stroke-width: 0.25px" x1="33.27" x2="55.39" y1="27.09" y2="4.97"/>
      <line style="fill: none;stroke: #383838;stroke-miterlimit: 10;stroke-width: 0.25px" x1="32.88" x2="55" y1="26.7" y2="4.58"/>
      <path d="M79.45,35.15" style="fill: #fff;stroke: #000;stroke-miterlimit: 10"/>
      <line style="fill: none;stroke: #383838;stroke-miterlimit: 10;stroke-width: 0.25px" x1="79.97" x2="57.85" y1="25.66" y2="3.54"/>
      <line style="fill: none;stroke: #383838;stroke-miterlimit: 10;stroke-width: 0.25px" x1="79.58" x2="57.46" y1="26.05" y2="3.93"/>
      <line style="fill: none;stroke: #383838;stroke-miterlimit: 10;stroke-width: 0.25px" x1="79.2" x2="57.08" y1="26.44" y2="4.32"/>
      <line style="fill: none;stroke: #383838;stroke-miterlimit: 10;stroke-width: 0.25px" x1="78.81" x2="56.69" y1="26.83" y2="4.71"/>
      <line style="fill: none;stroke: #383838;stroke-miterlimit: 10;stroke-width: 0.25px" x1="78.42" x2="56.3" y1="27.22" y2="5.1"/>
      <line style="fill: none;stroke: #383838;stroke-miterlimit: 10;stroke-width: 0.25px" x1="78.03" x2="55.91" y1="27.61" y2="5.49"/>
      <line style="fill: none;stroke: #383838;stroke-miterlimit: 10;stroke-width: 0.25px" x1="77.64" x2="55.52" y1="28" y2="5.88"/>
      <line style="fill: none;stroke: #383838;stroke-miterlimit: 10;stroke-width: 0.25px" x1="77.25" x2="55.13" y1="28.39" y2="6.27"/>
      <line style="fill: none;stroke: #383838;stroke-miterlimit: 10;stroke-width: 0.25px" x1="76.86" x2="54.74" y1="28.78" y2="6.66"/>
      <line style="fill: none;stroke: #383838;stroke-miterlimit: 10;stroke-width: 0.25px" x1="76.47" x2="54.35" y1="29.17" y2="7.05"/>
      <line style="fill: none;stroke: #383838;stroke-miterlimit: 10;stroke-width: 0.25px" x1="76.08" x2="53.96" y1="29.56" y2="7.44"/>
      <line style="fill: none;stroke: #383838;stroke-miterlimit: 10;stroke-width: 0.25px" x1="75.69" x2="53.57" y1="29.95" y2="7.83"/>
      <line style="fill: none;stroke: #383838;stroke-miterlimit: 10;stroke-width: 0.25px" x1="75.3" x2="53.18" y1="30.34" y2="8.22"/>
      <line style="fill: none;stroke: #383838;stroke-miterlimit: 10;stroke-width: 0.25px" x1="74.91" x2="52.79" y1="30.73" y2="8.6"/>
      <line style="fill: none;stroke: #383838;stroke-miterlimit: 10;stroke-width: 0.25px" x1="74.52" x2="52.4" y1="31.11" y2="8.99"/>
      <line style="fill: none;stroke: #383838;stroke-miterlimit: 10;stroke-width: 0.25px" x1="74.13" x2="52.01" y1="31.5" y2="9.38"/>
      <line style="fill: none;stroke: #383838;stroke-miterlimit: 10;stroke-width: 0.25px" x1="73.74" x2="51.62" y1="31.89" y2="9.77"/>
      <line style="fill: none;stroke: #383838;stroke-miterlimit: 10;stroke-width: 0.25px" x1="73.36" x2="51.24" y1="32.28" y2="10.16"/>
      <line style="fill: none;stroke: #383838;stroke-miterlimit: 10;stroke-width: 0.25px" x1="72.97" x2="50.85" y1="32.67" y2="10.55"/>
      <line style="fill: none;stroke: #383838;stroke-miterlimit: 10;stroke-width: 0.25px" x1="72.58" x2="50.46" y1="33.06" y2="10.94"/>
      <line style="fill: none;stroke: #383838;stroke-miterlimit: 10;stroke-width: 0.25px" x1="72.19" x2="50.07" y1="33.45" y2="11.33"/>
      <line style="fill: none;stroke: #383838;stroke-miterlimit: 10;stroke-width: 0.25px" x1="71.8" x2="49.68" y1="33.84" y2="11.72"/>
      <line style="fill: none;stroke: #383838;stroke-miterlimit: 10;stroke-width: 0.25px" x1="71.41" x2="49.29" y1="34.23" y2="12.11"/>
      <line style="fill: none;stroke: #383838;stroke-miterlimit: 10;stroke-width: 0.25px" x1="71.02" x2="48.9" y1="34.62" y2="12.5"/>
      <line style="fill: none;stroke: #383838;stroke-miterlimit: 10;stroke-width: 0.25px" x1="70.63" x2="48.51" y1="35.01" y2="12.89"/>
      <line style="fill: none;stroke: #383838;stroke-miterlimit: 10;stroke-width: 0.25px" x1="70.24" x2="48.12" y1="35.4" y2="13.28"/>
      <line style="fill: none;stroke: #383838;stroke-miterlimit: 10;stroke-width: 0.25px" x1="69.85" x2="47.73" y1="35.79" y2="13.67"/>
      <line style="fill: none;stroke: #383838;stroke-miterlimit: 10;stroke-width: 0.25px" x1="69.46" x2="47.34" y1="36.18" y2="14.06"/>
      <line style="fill: none;stroke: #383838;stroke-miterlimit: 10;stroke-width: 0.25px" x1="69.07" x2="46.95" y1="36.57" y2="14.44"/>
      <line style="fill: none;stroke: #383838;stroke-miterlimit: 10;stroke-width: 0.25px" x1="68.68" x2="46.56" y1="36.95" y2="14.83"/>
      <line style="fill: none;stroke: #383838;stroke-miterlimit: 10;stroke-width: 0.25px" x1="68.29" x2="46.17" y1="37.34" y2="15.22"/>
      <line style="fill: none;stroke: #383838;stroke-miterlimit: 10;stroke-width: 0.25px" x1="67.9" x2="45.78" y1="37.73" y2="15.61"/>
      <line style="fill: none;stroke: #383838;stroke-miterlimit: 10;stroke-width: 0.25px" x1="67.52" x2="45.4" y1="38.12" y2="16"/>
      <line style="fill: none;stroke: #383838;stroke-miterlimit: 10;stroke-width: 0.25px" x1="67.13" x2="45.01" y1="38.51" y2="16.39"/>
      <line style="fill: none;stroke: #383838;stroke-miterlimit: 10;stroke-width: 0.25px" x1="66.74" x2="44.62" y1="38.9" y2="16.78"/>
      <line style="fill: none;stroke: #383838;stroke-miterlimit: 10;stroke-width: 0.25px" x1="66.35" x2="44.23" y1="39.29" y2="17.17"/>
      <line style="fill: none;stroke: #383838;stroke-miterlimit: 10;stroke-width: 0.25px" x1="65.96" x2="43.84" y1="39.68" y2="17.56"/>
      <line style="fill: none;stroke: #383838;stroke-miterlimit: 10;stroke-width: 0.25px" x1="65.57" x2="43.45" y1="40.07" y2="17.95"/>
      <line style="fill: none;stroke: #383838;stroke-miterlimit: 10;stroke-width: 0.25px" x1="65.18" x2="43.06" y1="40.46" y2="18.34"/>
      <line style="fill: none;stroke: #383838;stroke-miterlimit: 10;stroke-width: 0.25px" x1="64.79" x2="42.67" y1="40.85" y2="18.73"/>
      <line style="fill: none;stroke: #383838;stroke-miterlimit: 10;stroke-width: 0.25px" x1="64.4" x2="42.28" y1="41.24" y2="19.12"/>
      <line style="fill: none;stroke: #383838;stroke-miterlimit: 10;stroke-width: 0.25px" x1="64.01" x2="41.89" y1="41.63" y2="19.51"/>
      <line style="fill: none;stroke: #383838;stroke-miterlimit: 10;stroke-width: 0.25px" x1="63.62" x2="41.5" y1="42.02" y2="19.9"/>
      <line style="fill: none;stroke: #383838;stroke-miterlimit: 10;stroke-width: 0.25px" x1="63.23" x2="41.11" y1="42.41" y2="20.28"/>
      <line style="fill: none;stroke: #383838;stroke-miterlimit: 10;stroke-width: 0.25px" x1="62.84" x2="40.72" y1="42.79" y2="20.67"/>
      <line style="fill: none;stroke: #383838;stroke-miterlimit: 10;stroke-width: 0.25px" x1="62.45" x2="40.33" y1="43.18" y2="21.06"/>
      <line style="fill: none;stroke: #383838;stroke-miterlimit: 10;stroke-width: 0.25px" x1="62.06" x2="39.94" y1="43.57" y2="21.45"/>
      <line style="fill: none;stroke: #383838;stroke-miterlimit: 10;stroke-width: 0.25px" x1="61.68" x2="39.56" y1="43.96" y2="21.84"/>
      <line style="fill: none;stroke: #383838;stroke-miterlimit: 10;stroke-width: 0.25px" x1="61.29" x2="39.17" y1="44.35" y2="22.23"/>
      <line style="fill: none;stroke: #383838;stroke-miterlimit: 10;stroke-width: 0.25px" x1="60.9" x2="38.78" y1="44.74" y2="22.62"/>
      <line style="fill: none;stroke: #383838;stroke-miterlimit: 10;stroke-width: 0.25px" x1="60.51" x2="38.39" y1="45.13" y2="23.01"/>
      <line style="fill: none;stroke: #383838;stroke-miterlimit: 10;stroke-width: 0.25px" x1="60.12" x2="38" y1="45.52" y2="23.4"/>
      <line style="fill: none;stroke: #383838;stroke-miterlimit: 10;stroke-width: 0.25px" x1="59.73" x2="37.61" y1="45.91" y2="23.79"/>
      <line style="fill: none;stroke: #383838;stroke-miterlimit: 10;stroke-width: 0.25px" x1="59.34" x2="37.22" y1="46.3" y2="24.18"/>
      <line style="fill: none;stroke: #383838;stroke-miterlimit: 10;stroke-width: 0.25px" x1="58.95" x2="36.83" y1="46.69" y2="24.57"/>
      <line style="fill: none;stroke: #383838;stroke-miterlimit: 10;stroke-width: 0.25px" x1="58.56" x2="36.44" y1="47.08" y2="24.96"/>
      <line style="fill: none;stroke: #383838;stroke-miterlimit: 10;stroke-width: 0.25px" x1="58.17" x2="36.05" y1="47.47" y2="25.35"/>
      <line style="fill: none;stroke: #383838;stroke-miterlimit: 10;stroke-width: 0.25px" x1="57.78" x2="35.66" y1="47.86" y2="25.74"/>
      <line style="fill: none;stroke: #383838;stroke-miterlimit: 10;stroke-width: 0.25px" x1="57.39" x2="35.27" y1="48.25" y2="26.12"/>
      <line style="fill: none;stroke: #383838;stroke-miterlimit: 10;stroke-width: 0.25px" x1="57" x2="34.88" y1="48.63" y2="26.51"/>
      <line style="fill: none;stroke: #383838;stroke-miterlimit: 10;stroke-width: 0.25px" x1="56.61" x2="34.49" y1="49.02" y2="26.9"/>
      <line style="fill: none;stroke: #383838;stroke-miterlimit: 10;stroke-width: 0.25px" x1="56.22" x2="34.1" y1="49.41" y2="27.29"/>
      <line style="fill: none;stroke: #383838;stroke-miterlimit: 10;stroke-width: 0.25px" x1="55.84" x2="33.72" y1="49.8" y2="27.68"/>
    </g>
  </g>
  <g data-name="POINTS +" id="POINTS_">
    <circle cx="19.88" cy="50.85" r="0.42" style="fill: #20364f"/>
    <circle cx="19.88" cy="50.85" r="0.15" style="fill: #4e5e71"/>
    <circle cx="71.44" cy="50.85" r="0.42" style="fill: #20364f"/>
    <circle cx="71.44" cy="50.85" r="0.15" style="fill: #4e5e71"/>
  </g>
  <g id="buttons">
    <circle cx="30.39" cy="10.18" r="2.53" style="fill: #434e58"/>
    <circle cx="30.39" cy="10.18" r="1.85" style="fill: #6d6666"/>
    <circle cx="23.29" cy="17.29" r="2.53" style="fill: #434e58"/>
    <circle cx="23.29" cy="17.29" r="1.85" style="fill: #6d6666"/>
    <g>
      <circle cx="16.18" cy="10.18" r="2.53" style="fill: #434e58"/>
      <circle cx="16.18" cy="10.18" r="1.85" style="fill: #6d6666"/>
    </g>
    <g>
      <path d="M11.37,15.8v-1a.3.3,0,0,1,.6,0v.95a.62.62,0,0,1,0,.23l-1.15,2.92c-.06.15-.11.26-.3.26s-.24-.11-.3-.26L9,16a.61.61,0,0,1,0-.23v-.95a.3.3,0,1,1,.6,0v1l.88,2.29Z" style="fill: #fff"/>
      <path d="M14.94,19.21a.9.9,0,0,1-.9-.57l-.55-1.12a1.34,1.34,0,0,1-.16-.63,1.31,1.31,0,0,1,.17-.67L14,15.12a.9.9,0,0,1,.92-.58h1a.28.28,0,0,1,.3.3.28.28,0,0,1-.3.3H15c-.26,0-.3,0-.41.25l-.52,1a.93.93,0,0,0-.13.46.83.83,0,0,0,.13.41l.51,1c.12.25.18.26.45.26h1a.28.28,0,0,1,.3.3.28.28,0,0,1-.3.3Z" style="fill: #fff"/>
      <path d="M19.26,19.21a.9.9,0,0,1-.9-.57l-.55-1.12a1.34,1.34,0,0,1-.16-.63,1.31,1.31,0,0,1,.17-.67l.55-1.11a.9.9,0,0,1,.92-.58h1a.28.28,0,0,1,.3.3.28.28,0,0,1-.3.3h-1c-.26,0-.3,0-.41.25l-.52,1a.93.93,0,0,0-.13.46.83.83,0,0,0,.13.41l.51,1c.12.25.18.26.45.26h1a.28.28,0,0,1,.3.3.28.28,0,0,1-.3.3Z" style="fill: #fff"/>
    </g>
    <g>
      <path d="M18.07,2.06h.75V6.43a.3.3,0,1,1-.6,0V2.89h0l-.57.85v.1c0,.19-.07.36-.3.36S17,4,17,3.83v-.1l-.57-.85h0V6.43a.3.3,0,1,1-.6,0V2.06h.75l.73,1.05Z" style="fill: #fff"/>
      <path d="M21.84,6.18l-.4.34a.74.74,0,0,1-.54.21.7.7,0,0,1-.53-.23.76.76,0,0,1-.2-.59V4.34a1.18,1.18,0,0,1,.48-1l1.22-1a.72.72,0,0,1,1.26.53V4.43a1.18,1.18,0,0,1-.47,1l-.35.31.15.36h.35a.3.3,0,0,1,.32.3c0,.25-.19.3-.4.3h-.69Zm.25-1,.14-.11a.66.66,0,0,0,.32-.67V2.9c0-.1,0-.24-.12-.24s-.11.06-.17.1l-1.21,1a.61.61,0,0,0-.27.56V5.92c0,.1,0,.21.13.21A.3.3,0,0,0,21.09,6l.52-.45-.16-.4a.8.8,0,0,1-.08-.28.3.3,0,0,1,.3-.29c.23,0,.27.2.35.38Z" style="fill: #fff"/>
      <path d="M26.68,4c.25,0,.36.1.36.37s-.11.37-.36.37h-1.4c-.25,0-.36-.1-.36-.37S25,4,25.28,4Z" style="fill: #fff"/>
      <path d="M29.12,2.66a.28.28,0,0,1-.3-.3.28.28,0,0,1,.3-.3h2.06a.59.59,0,0,1,.6.6V3.81a.69.69,0,0,1-.23.58.7.7,0,0,1,.23.58V6.13a.59.59,0,0,1-.6.6H29.12a.3.3,0,0,1,0-.6h2.06v-1c0-.34-.13-.44-.3-.44H29.71a.28.28,0,0,1-.3-.3.28.28,0,0,1,.3-.3h1.17c.17,0,.3-.1.3-.44v-1Z" style="fill: #fff"/>
    </g>
    <g>
      <path d="M10.79,25.09a.3.3,0,1,1,0-.6H12v1.18a.89.89,0,0,1-1,.94H10a.91.91,0,0,1-.69-.24A.87.87,0,0,1,9,25.64v-1.5a1.22,1.22,0,0,1,.31-.88l.71-.91a.91.91,0,0,1,.84-.41h.8a.3.3,0,1,1,0,.6H11c-.33,0-.31,0-.5.25l-.65.83a1.14,1.14,0,0,0-.19.78v1.18c0,.33.07.43.41.43h1c.22,0,.4,0,.4-.31v-.61Z" style="fill: #fff"/>
      <path d="M15.7,22.26a.3.3,0,0,1,.6,0v4.37h-.79L13.94,23h0v3.3a.3.3,0,1,1-.6,0V22h.79l1.57,3.64h0Z" style="fill: #fff"/>
      <path d="M18.24,22.55H18c-.2,0-.37-.07-.37-.3s.16-.3.35-.3h1a.9.9,0,0,1,.91.6l.53,1.05a1.39,1.39,0,0,1,0,1.36l-.55,1.09a.91.91,0,0,1-.95.56h-1a.3.3,0,1,1,0-.6h.29Zm.6,3.47h.11c.25,0,.31,0,.42-.25l.53-1.07a.84.84,0,0,0,.11-.39,1,1,0,0,0-.15-.49l-.5-1c-.13-.26-.18-.25-.46-.25h-.07Z" style="fill: #fff"/>
    </g>
    <g>
      <path d="M9.6,30H9.37c-.2,0-.37-.07-.37-.3s.16-.3.35-.3h1a.9.9,0,0,1,.91.6L11.79,31a1.39,1.39,0,0,1,0,1.36l-.55,1.09a.91.91,0,0,1-.95.56h-1a.3.3,0,0,1,0-.6H9.6Zm.6,3.47h.11c.25,0,.31,0,.42-.25l.53-1.07a.84.84,0,0,0,.11-.39,1,1,0,0,0-.15-.49l-.5-1c-.13-.26-.18-.25-.46-.25H10.2Z" style="fill: #fff"/>
      <path d="M15.69,29.36a.6.6,0,0,1,.6.6v3.47a.59.59,0,0,1-.6.6H13.93a.59.59,0,0,1-.6-.6V30a.6.6,0,0,1,.6-.6Zm0,4.07V30H13.93v3.47Z" style="fill: #fff"/>
    </g>
    <g>
      <path d="M10.18,37.07c0-.16.11-.31.31-.31s.27.15.31.31L12,41.13c0,.14-.12.3-.29.3a.36.36,0,0,1-.32-.3l-.22-.72H9.85l-.23.72a.36.36,0,0,1-.32.3c-.17,0-.33-.16-.29-.3Zm.31,1.12h0L10,39.81H11Z" style="fill: #fff"/>
      <path d="M15.69,36.76a.6.6,0,0,1,.6.6v3.47a.59.59,0,0,1-.6.6H13.93a.59.59,0,0,1-.6-.6V37.36a.6.6,0,0,1,.6-.6Zm0,4.07V37.36H13.93v3.47Z" style="fill: #fff"/>
    </g>
  </g>
  <g id="Connectors">
    <ellipse cx="5.44" cy="17.16" data-cir-type="male" id="circuitoCon_5V" rx="1.99" ry="2.05" style="fill: none;stroke: #e8e5df;stroke-miterlimit: 10;stroke-width: 1.224px"/>
    <ellipse cx="5.44" cy="24.35" data-cir-type="male" id="circuitoCon_GND" rx="1.99" ry="2.05" style="fill: none;stroke: #e8e5df;stroke-miterlimit: 10;stroke-width: 1.224px"/>
    <ellipse cx="5.44" cy="31.55" data-cir-type="male" id="circuitoCon_DOUT" rx="1.99" ry="2.05" style="fill: none;stroke: #e8e5df;stroke-miterlimit: 10;stroke-width: 1.224px"/>
    <ellipse cx="5.44" cy="38.74" data-cir-type="male" id="circuitoCon_AOUT" rx="1.99" ry="2.05" style="fill: none;stroke: #e8e5df;stroke-miterlimit: 10;stroke-width: 1.224px"/>
  </g>
  <g data-name="Layer 12" id="Layer_12">
    <ellipse cx="56.07" cy="28.01" rx="27.11" ry="27.28" style="fill: none;stroke: #cbcccf;stroke-miterlimit: 10"/>
  </g>
</svg>