<?xml version="1.0" ?><svg height="27.21mm" viewBox="0 0 56.25 77.13" width="19.84mm" xmlns="http://www.w3.org/2000/svg">
  <title>Standalone Momentary Capacitive Touch</title>
  <g data-name="Layer 7" id="Layer_7">
    <g>
      <circle cx="28.38" cy="5.5" r="3.75" style="fill: #aea68d"/>
      <circle cx="28.38" cy="5.5" r="2.22" style="fill: #a29585"/>
      <circle cx="28.38" cy="5.5" r="0.63" style="fill: #67614e"/>
    </g>
  </g>
  <g id="HOLES">
    <circle cx="28.29" cy="5.5" r="4" style="fill: #aaa77e"/>
    <circle cx="28.29" cy="5.5" r="2.19" style="fill: #b0a091"/>
    <circle cx="28.29" cy="5.5" r="0.46" style="fill: #5d5744"/>
    <path d="M49.5,0H6.75A6.75,6.75,0,0,0,0,6.75V70.38a6.75,6.75,0,0,0,6.75,6.75H49.5a6.75,6.75,0,0,0,6.75-6.75V6.75A6.75,6.75,0,0,0,49.5,0ZM7.16,74.43a4.63,4.63,0,1,1,4.62-4.62A4.62,4.62,0,0,1,7.16,74.43Zm0-63.12a4.63,4.63,0,1,1,4.62-4.63A4.63,4.63,0,0,1,7.16,11.31ZM17.23,73.79a2,2,0,1,1,2-2A2,2,0,0,1,17.23,73.79Zm7.25,0a2,2,0,1,1,2-2A2,2,0,0,1,24.48,73.79Zm1.58-20.85a2,2,0,1,1,2-2A2,2,0,0,1,26.06,52.94Zm5.61,20.85a2,2,0,1,1,2-2A2,2,0,0,1,31.67,73.79Zm7.19,0a2,2,0,1,1,2-2A2,2,0,0,1,38.86,73.79Zm10.55.64A4.63,4.63,0,1,1,54,69.81,4.62,4.62,0,0,1,49.41,74.43Zm1.26-14.37a1,1,0,1,1,1,1A1,1,0,0,1,50.67,60.06ZM49.41,11.31A4.63,4.63,0,1,1,54,6.68,4.63,4.63,0,0,1,49.41,11.31Z" style="fill: #1a2c80"/>
    <polyline points="28.09 47.25 28.09 48.78 27.31 49.13" style="fill: none;stroke: #0b5597;stroke-linecap: round;stroke-linejoin: round;stroke-width: 0.75px"/>
    <circle cx="7.16" cy="69.81" r="4.63" style="fill: none;stroke: #ebd29d;stroke-miterlimit: 10"/>
    <circle cx="7.16" cy="6.68" r="4.63" style="fill: none;stroke: #ebd29d;stroke-miterlimit: 10"/>
    <circle cx="49.41" cy="6.68" r="4.63" style="fill: none;stroke: #ebd29d;stroke-miterlimit: 10"/>
    <circle cx="26.06" cy="50.91" r="2.03" style="fill: none;stroke: #ebd29d;stroke-miterlimit: 10;stroke-width: 0.5px" transform="translate(-27.25 71.6) rotate(-84.1)"/>
    <circle cx="51.69" cy="60.06" r="1.02" style="fill: none;stroke: #ebd29d;stroke-miterlimit: 10;stroke-width: 0.5px"/>
    <circle cx="49.41" cy="69.81" r="4.9" style="fill: none;stroke: #f4d39c;stroke-miterlimit: 10;stroke-width: 0.75px"/>
    <polyline points="50.36 61.08 42.97 67.34 29.58 67.34 26.47 70.31" style="fill: none;stroke: #0b5597;stroke-linecap: round;stroke-linejoin: round;stroke-width: 0.75px"/>
  </g>
  <g data-name="Layer 5" id="Layer_5">
    <rect height="35.44" rx="8.97" ry="8.97" style="fill: #1a2c80" width="35" x="10.5" y="11.31"/>
    <rect height="36.25" rx="8.92" ry="8.92" style="fill: none;stroke: #fff;stroke-miterlimit: 10;stroke-width: 0.5px" width="36.25" x="9.88" y="10.9"/>
  </g>
  <g id="text">
    <g>
      <path d="M13,54.26c0-.13.09-.24.24-.24s.2.12.23.24l.88,3.09c0,.11-.09.22-.22.22a.26.26,0,0,1-.24-.22l-.17-.55h-1l-.18.55a.26.26,0,0,1-.24.22c-.13,0-.25-.11-.22-.22Zm.24.85h0l-.35,1.23h.71Z" style="fill: #fff"/>
      <path d="M15.83,54.48v.17c0,.14-.07.22-.23.22s-.23-.08-.23-.22V54h2.25v.63c0,.14-.06.22-.23.22a.19.19,0,0,1-.22-.22v-.17h-.45v2.87a.19.19,0,0,1-.22.22c-.17,0-.23-.08-.23-.22V54.48Z" style="fill: #fff"/>
      <path d="M20.23,56V54.64a.21.21,0,0,1,.23-.23.21.21,0,0,1,.22.23V56a.21.21,0,0,1,.23.23.21.21,0,0,1-.23.23v.93a.19.19,0,0,1-.22.22c-.17,0-.23-.08-.23-.22v-.93H18.89V54.25a.21.21,0,0,1,.22-.23.21.21,0,0,1,.23.23V56Z" style="fill: #fff"/>
      <path d="M22.4,57.12H24a.21.21,0,0,1,.23.23.21.21,0,0,1-.23.22H22V56.09a.46.46,0,0,1,.51-.52h1.29V54.48H22.18a.21.21,0,0,1-.23-.23.21.21,0,0,1,.23-.23h1.51a.5.5,0,0,1,.37.13.48.48,0,0,1,.14.41v.93a.48.48,0,0,1-.14.41.5.5,0,0,1-.37.13H22.4Z" style="fill: #fff"/>
      <path d="M26.5,57.16l-.3.25a.56.56,0,0,1-.41.16.53.53,0,0,1-.4-.17.57.57,0,0,1-.15-.45V55.76A.91.91,0,0,1,25.6,55l.93-.8a.6.6,0,0,1,.39-.19.56.56,0,0,1,.57.6v1.21a.89.89,0,0,1-.36.78l-.27.23.12.28h.26a.23.23,0,0,1,.25.23c0,.19-.14.22-.3.22h-.53Zm.19-.76.1-.09A.5.5,0,0,0,27,55.8V54.66c0-.07,0-.18-.09-.18s-.08.05-.12.08l-.92.79a.46.46,0,0,0-.21.43V57c0,.07,0,.16.1.16a.27.27,0,0,0,.14-.07l.39-.34-.12-.3a.9.9,0,0,1-.06-.22.23.23,0,0,1,.23-.22c.18,0,.2.16.26.29Z" style="fill: #fff"/>
      <path d="M29,54.48v.17c0,.14-.06.22-.23.22a.19.19,0,0,1-.22-.22V54h2.25v.63c0,.14-.06.22-.23.22s-.23-.08-.23-.22v-.17h-.44v2.87c0,.14-.06.22-.23.22a.19.19,0,0,1-.22-.22V54.48Z" style="fill: #fff"/>
      <path d="M33.61,57.12V56.2a.23.23,0,1,1,.46,0v1.15a.21.21,0,0,1-.23.22H32a.2.2,0,0,1-.22-.22.2.2,0,0,1,.22-.23h.67V54.48H32a.2.2,0,0,1-.22-.23A.21.21,0,0,1,32,54h1.13v3.1Z" style="fill: #fff"/>
      <path d="M36.9,54a.47.47,0,0,1,.46.46v2.64a.45.45,0,0,1-.46.45H35.56a.45.45,0,0,1-.46-.45V54.48a.47.47,0,0,1,.46-.46Zm0,3.1V54.48H35.56v2.64Z" style="fill: #fff"/>
      <path d="M40.19,57.12V56.2a.23.23,0,1,1,.46,0v1.15a.21.21,0,0,1-.23.22h-1.8a.21.21,0,0,1-.23-.22.21.21,0,0,1,.23-.23h.67V54.48h-.67a.21.21,0,0,1-.23-.23.21.21,0,0,1,.23-.23h1.13v3.1Z" style="fill: #fff"/>
      <path d="M43.48,54a.47.47,0,0,1,.46.46v2.64a.45.45,0,0,1-.46.45H42.14a.45.45,0,0,1-.46-.45V54.48a.47.47,0,0,1,.46-.46Zm0,3.1V54.48H42.14v2.64Z" style="fill: #fff"/>
    </g>
    <g>
      <path d="M17.76,67a.2.2,0,0,1-.4,0v-.78h.78a.59.59,0,0,1,.62.63v.68a.61.61,0,0,1-.16.46.58.58,0,0,1-.48.18h-1a.79.79,0,0,1-.58-.2l-.6-.47a.6.6,0,0,1-.26-.55v-.53a.18.18,0,0,1,.19-.2.18.18,0,0,1,.2.2v.47c0,.22,0,.2.16.33l.55.43a.73.73,0,0,0,.52.13h.77c.22,0,.28,0,.28-.28v-.63c0-.14,0-.26-.2-.26h-.4Z" style="fill: #fff"/>
      <path d="M15.89,63.76a.2.2,0,1,1,0-.4h2.87v.52l-2.37,1h2.17a.2.2,0,1,1,0,.4H15.69V64.8l2.39-1H15.89Z" style="fill: #fff"/>
      <path d="M16.08,62.09v.15c0,.13,0,.24-.2.24s-.19-.11-.19-.23v-.66a.59.59,0,0,1,.39-.6l.7-.35a.88.88,0,0,1,.45-.11,1,1,0,0,1,.44.11l.72.36a.6.6,0,0,1,.37.62v.66a.2.2,0,1,1-.4,0v-.19Zm2.28-.4v-.07c0-.17,0-.21-.16-.28L17.5,61a.52.52,0,0,0-.26-.08.64.64,0,0,0-.33.1l-.66.33c-.17.08-.17.12-.17.3v0Z" style="fill: #fff"/>
    </g>
    <g>
      <path d="M23.42,66.31a1,1,0,0,1,.91,0l.73.36a.53.53,0,0,1,0,1l-.73.36a1,1,0,0,1-.91,0l-.79-.4a.51.51,0,0,1,0-1Zm-.6.74c-.06,0-.11,0-.11.13s.05.11.11.14l.72.35a.6.6,0,0,0,.32.1.59.59,0,0,0,.26-.07l.75-.38c.06,0,.12-.06.12-.14s-.06-.1-.12-.13l-.75-.38a.59.59,0,0,0-.26-.07.7.7,0,0,0-.32.09Z" style="fill: #fff"/>
      <path d="M25.38,64.68a.58.58,0,0,1-.2.49.62.62,0,0,1-.47.15h-2.2a.2.2,0,1,1,0-.4h2.2c.22,0,.28-.06.28-.24V64c0-.18-.06-.25-.28-.25h-2.2c-.13,0-.2,0-.2-.2s.07-.19.2-.19h2.2a.62.62,0,0,1,.47.15.58.58,0,0,1,.2.49Z" style="fill: #fff"/>
      <path d="M22.71,62.08h.14c.12,0,.19.06.19.2s-.07.2-.19.2h-.54V60.53h.54c.12,0,.19,0,.19.19s-.07.2-.19.2h-.14v.38h2.48c.12,0,.19.06.19.2s-.07.2-.19.2H22.71Z" style="fill: #fff"/>
    </g>
    <g>
      <path d="M31.47,66.6h-.63c-.13,0-.2,0-.2-.19s.07-.2.2-.2h.62a.41.41,0,0,1,.16,0l1.92.76c.1,0,.18.07.18.19s-.08.16-.18.2l-1.92.76a.41.41,0,0,1-.16,0h-.62c-.13,0-.2,0-.2-.2s.07-.19.2-.19h.63L33,67.18Z" style="fill: #fff"/>
      <path d="M31,64.93v.15c0,.13-.05.24-.2.24s-.2-.11-.2-.23v-.66a.6.6,0,0,1,.4-.6l.69-.34a1,1,0,0,1,.46-.12,1,1,0,0,1,.44.11l.72.36a.6.6,0,0,1,.37.63v.65a.2.2,0,0,1-.4,0v-.19Zm2.28-.39v-.08a.25.25,0,0,0-.16-.28l-.71-.34a.49.49,0,0,0-.25-.08.75.75,0,0,0-.33.1l-.67.33c-.17.08-.16.12-.16.3v.05Z" style="fill: #fff"/>
      <path d="M31,62.09v.15c0,.13-.05.24-.2.24s-.2-.11-.2-.23v-.66A.6.6,0,0,1,31,61l.69-.35a1,1,0,0,1,.46-.11,1,1,0,0,1,.44.11l.72.36a.6.6,0,0,1,.37.62v.66a.2.2,0,1,1-.4,0v-.19Zm2.28-.4v-.07c0-.17,0-.21-.16-.28L32.45,61a.49.49,0,0,0-.25-.08.64.64,0,0,0-.33.1l-.67.33c-.17.08-.16.12-.16.3v0Z" style="fill: #fff"/>
    </g>
    <g>
      <path d="M39.74,66.56c0-.1,0-.18.2-.18a.17.17,0,0,1,.19.18v1.63H37.26c-.13,0-.2,0-.2-.18s.07-.19.2-.19h2.48Z" style="fill: #fff"/>
      <path d="M39.74,63.92a.18.18,0,0,1,.2-.19.17.17,0,0,1,.19.19v1.63H37.06V63.92a.18.18,0,0,1,.2-.19.17.17,0,0,1,.19.19v1.26h.95v-.54c0-.1.05-.18.2-.18a.17.17,0,0,1,.19.18v.54h1Z" style="fill: #fff"/>
      <path d="M37.45,62.55v.13c0,.12,0,.23-.19.23s-.2-.1-.2-.22v-.61a.57.57,0,0,1,.39-.56l.7-.32a1,1,0,0,1,.46-.11.92.92,0,0,1,.43.11l.72.33a.56.56,0,0,1,.37.58v.61a.17.17,0,0,1-.19.19.18.18,0,0,1-.2-.19v-.17Zm2.29-.37v-.07c0-.16,0-.19-.17-.26l-.7-.32a.59.59,0,0,0-.26-.07.7.7,0,0,0-.32.09l-.67.31c-.17.07-.17.1-.17.27v0Z" style="fill: #fff"/>
      <path d="M37.26,59.54c-.11,0-.2-.07-.2-.18s.1-.17.2-.19l2.68-.71c.09,0,.19.07.19.17s-.1.17-.19.2l-.48.14v.78l.48.14c.09,0,.19.08.19.2s-.1.2-.19.17Zm.74-.19h0l1.07.29v-.58Z" style="fill: #fff"/>
    </g>
  </g>
  <g id="Connectors">
    <ellipse cx="38.86" cy="71.8" data-cir-type="male" id="circuitoCon_LEDA" rx="2.05" ry="1.99" style="fill: none;stroke: #e5e3dd;stroke-miterlimit: 10;stroke-width: 1.224px"/>
    <ellipse cx="24.48" cy="71.8" data-cir-type="male" id="circuitoCon_OUT" rx="2.05" ry="1.99" style="fill: none;stroke: #e5e3dd;stroke-miterlimit: 10;stroke-width: 1.224px"/>
    <ellipse cx="17.23" cy="71.8" data-cir-type="male" id="circuitoCon_GND" rx="2.05" ry="1.99" style="fill: none;stroke: #e5e3dd;stroke-miterlimit: 10;stroke-width: 1.224px"/>
    <ellipse cx="31.67" cy="71.8" data-cir-type="male" id="circuitoCon_VDD" rx="2.05" ry="1.99" style="fill: none;stroke: #e5e3dd;stroke-miterlimit: 10;stroke-width: 1.224px"/>
  </g>
</svg>