<?xml version="1.0" ?><svg height="12.64mm" viewBox="0 0 43.31 35.82" width="15.28mm" xmlns="http://www.w3.org/2000/svg">
  <title>Logic Level Converter - Bi-Directional</title>
  <g data-name="Layer 1" id="Layer_1">
    <ellipse cx="32.52" cy="22.84" rx="0.97" ry="0.9" style="fill: #d5d2ca"/>
    <path d="M42.8,0H.52A.51.51,0,0,0,0,.5V35.32a.51.51,0,0,0,.52.5H42.8a.51.51,0,0,0,.52-.5V.5A.51.51,0,0,0,42.8,0ZM.66,13.74a1.14,1.14,0,0,1,1.15-1.12,1.12,1.12,0,1,1,0,2.24A1.14,1.14,0,0,1,.66,13.74ZM3.58,34.05a1.4,1.4,0,1,1,0-2.8,1.4,1.4,0,1,1,0,2.8Zm0-28.93a1.42,1.42,0,0,1-1.44-1.4,1.42,1.42,0,0,1,1.44-1.4A1.42,1.42,0,0,1,5,3.72,1.42,1.42,0,0,1,3.58,5.12Zm7.24,28.93a1.4,1.4,0,1,1,1.44-1.4A1.42,1.42,0,0,1,10.83,34.05Zm0-28.93a1.42,1.42,0,0,1-1.44-1.4,1.44,1.44,0,0,1,2.87,0A1.42,1.42,0,0,1,10.83,5.12ZM18,34.05a1.4,1.4,0,1,1,1.44-1.4A1.42,1.42,0,0,1,18,34.05ZM18,5.12a1.42,1.42,0,0,1-1.44-1.4,1.44,1.44,0,0,1,2.87,0A1.42,1.42,0,0,1,18,5.12Zm7.19,28.93a1.4,1.4,0,1,1,1.44-1.4A1.42,1.42,0,0,1,25.21,34.05Zm0-28.93a1.42,1.42,0,0,1-1.44-1.4,1.44,1.44,0,0,1,2.87,0A1.42,1.42,0,0,1,25.21,5.12Zm7.19,28.93a1.4,1.4,0,1,1,1.44-1.4A1.42,1.42,0,0,1,32.41,34.05ZM31.36,22.73a1.16,1.16,0,1,1,1.15,1.12A1.14,1.14,0,0,1,31.36,22.73ZM32.41,5.12A1.42,1.42,0,0,1,31,3.72a1.44,1.44,0,0,1,2.87,0A1.42,1.42,0,0,1,32.41,5.12ZM39.6,34.05A1.4,1.4,0,1,1,41,32.65,1.42,1.42,0,0,1,39.6,34.05Zm0-28.93a1.42,1.42,0,0,1-1.44-1.4,1.44,1.44,0,0,1,2.87,0A1.42,1.42,0,0,1,39.6,5.12Z" style="fill: #cf2f27"/>
    <ellipse cx="1.82" cy="13.84" rx="0.97" ry="0.9" style="fill: #d5d2ca"/>
    <polygon points="2.93 11.88 2.93 12.72 4.58 14.34 5.08 13.88 3.38 12.23 3.38 11.75 2.93 11.88" style="fill: none;stroke: #8a231e;stroke-miterlimit: 10;stroke-width: 0.5px"/>
    <polyline points="9.16 11.66 11.17 13.61 11.17 17.1 12.16 18.07 13.5 18.07" style="fill: none;stroke: #8a231e;stroke-miterlimit: 10;stroke-width: 0.5px"/>
    <polyline points="13.85 11.35 13.85 13.98 14.45 14.55 15.44 14.55" style="fill: none;stroke: #8a231e;stroke-miterlimit: 10;stroke-width: 0.5px"/>
    <line style="fill: #5e5e5e;stroke: #8a231e;stroke-miterlimit: 10;stroke-width: 0.5px" x1="18.58" x2="18.58" y1="11.35" y2="16.14"/>
    <polyline points="9.52 18.08 11.75 20.62 13.13 20.8" style="fill: none;stroke: #8a231e;stroke-miterlimit: 10;stroke-width: 0.5px"/>
    <line style="fill: none;stroke: #8a231e;stroke-miterlimit: 10;stroke-width: 0.5px" x1="13.83" x2="13.83" y1="21.55" y2="24.65"/>
    <line style="fill: #5e5e5e;stroke: #8a231e;stroke-miterlimit: 10;stroke-width: 0.5px" x1="7.94" x2="7.94" y1="21.73" y2="24.54"/>
    <line style="fill: #5e5e5e;stroke: #8a231e;stroke-miterlimit: 10;stroke-width: 0.5px" x1="3.17" x2="3.17" y1="21.73" y2="24.14"/>
    <polyline points="7.94 26.43 7.94 28.17 4.85 31.27" style="fill: none;stroke: #8a231e;stroke-miterlimit: 10;stroke-width: 0.5px"/>
    <polyline points="14.15 26.61 14.15 28.71 16.38 30.88" style="fill: none;stroke: #8a231e;stroke-miterlimit: 10;stroke-width: 0.5px"/>
    <polyline points="19.39 31.18 21.91 28.73 22.63 28.73 24.27 26.87" style="fill: #5e5e5e;stroke: #8a231e;stroke-miterlimit: 10;stroke-width: 0.5px"/>
    <polyline points="30.65 26.61 32.6 28.75 31.31 30.66" style="fill: none;stroke: #8a231e;stroke-miterlimit: 10;stroke-width: 0.5px"/>
    <polyline points="35.22 24.65 35.08 21.43 30.85 16.91" style="fill: none;stroke: #8a231e;stroke-miterlimit: 10;stroke-width: 0.5px"/>
    <line style="fill: #5e5e5e;stroke: #8a231e;stroke-miterlimit: 10;stroke-width: 0.5px" x1="40.53" x2="40.53" y1="21.55" y2="24.54"/>
    <line style="fill: #5e5e5e;stroke: #8a231e;stroke-miterlimit: 10;stroke-width: 0.5px" x1="24.44" x2="24.44" y1="21.55" y2="24.65"/>
    <line style="fill: #5e5e5e;stroke: #8a231e;stroke-miterlimit: 10;stroke-width: 0.5px" x1="29.88" x2="29.88" y1="21.55" y2="24.65"/>
    <line style="fill: #5e5e5e;stroke: #8a231e;stroke-miterlimit: 10;stroke-width: 0.5px" x1="18.94" x2="18.94" y1="21.55" y2="24.34"/>
    <g>
      <polyline points="19.88 24.65 21.43 23.13 21.43 15.29 21.43 15.03" style="fill: none;stroke: #8a231e;stroke-miterlimit: 10;stroke-width: 0.5px"/>
      <ellipse cx="21.38" cy="14" rx="1.08" ry="1.05" style="fill: none;stroke: #8a231e;stroke-miterlimit: 10;stroke-width: 0.5px"/>
    </g>
    <line style="fill: #5e5e5e;stroke: #8a231e;stroke-miterlimit: 10;stroke-width: 0.5px" x1="23.78" x2="23.78" y1="11.66" y2="16.14"/>
    <path d="M27.26,14" style="fill: #5e5e5e;stroke: #8a231e;stroke-miterlimit: 10;stroke-width: 0.5px"/>
    <line style="fill: #5e5e5e;stroke: #8a231e;stroke-miterlimit: 10;stroke-width: 0.5px" x1="29.53" x2="27.19" y1="11.66" y2="13.93"/>
    <polyline points="34 11.57 29.94 15.81 29.1 16.69" style="fill: #5e5e5e;stroke: #8a231e;stroke-miterlimit: 10;stroke-width: 0.5px"/>
    <polyline points="39.6 11.35 39.6 13.68 38.4 14.86" style="fill: none;stroke: #8a231e;stroke-miterlimit: 10;stroke-width: 0.5px"/>
    <line style="fill: #5e5e5e;stroke: #8a231e;stroke-miterlimit: 10;stroke-width: 0.5px" x1="19.72" x2="23.17" y1="10.68" y2="10.68"/>
    <polyline points="12.13 5.26 13.83 6.91 13.83 9.87" style="fill: none;stroke: #8a231e;stroke-miterlimit: 10;stroke-width: 0.5px"/>
    <polyline points="31.11 5.26 29.15 7.17 29.15 9.87" style="fill: none;stroke: #8a231e;stroke-miterlimit: 10;stroke-width: 0.5px"/>
    <ellipse cx="21.37" cy="14" rx="0.72" ry="0.7" style="fill: none;stroke: #d65c53;stroke-miterlimit: 10;stroke-width: 0.1px"/>
    <ellipse cx="21.37" cy="14.01" rx="0.56" ry="0.54" style="fill: none;stroke: #d65c53;stroke-miterlimit: 10;stroke-width: 0.1px"/>
    <path d="M4.31,24.16H3.58V24a.12.12,0,0,0-.12-.11h-.6a.12.12,0,0,0-.12.11v.19H1.88a.34.34,0,0,0-.34.33v2.16a.34.34,0,0,0,.34.33H4.31a.34.34,0,0,0,.34-.33V24.49A.34.34,0,0,0,4.31,24.16Z" style="fill: #e2e2e2"/>
    <path d="M9.23,24.16H8.5V24a.12.12,0,0,0-.12-.11h-.6a.12.12,0,0,0-.12.11v.19H6.79a.34.34,0,0,0-.34.33v2.16a.34.34,0,0,0,.34.33H9.23a.34.34,0,0,0,.34-.33V24.49A.34.34,0,0,0,9.23,24.16Z" style="fill: #e2e2e2"/>
    <path d="M20.33,24.16H19.6V24a.12.12,0,0,0-.12-.11h-.6a.12.12,0,0,0-.12.11v.19H17.9a.34.34,0,0,0-.34.33v2.16a.34.34,0,0,0,.34.33h2.44a.34.34,0,0,0,.34-.33V24.49A.34.34,0,0,0,20.33,24.16Z" style="fill: #e2e2e2"/>
    <path d="M13,24.16h.73V24a.12.12,0,0,1,.12-.11h.6a.12.12,0,0,1,.12.11v.19h.87a.34.34,0,0,1,.34.33v2.16a.34.34,0,0,1-.34.33H13a.34.34,0,0,1-.34-.33V24.49A.34.34,0,0,1,13,24.16Z" style="fill: #e2e2e2"/>
    <path d="M30.88,24.16h-.73V24a.12.12,0,0,0-.12-.11h-.6a.12.12,0,0,0-.12.11v.19h-.87a.34.34,0,0,0-.34.33v2.16a.34.34,0,0,0,.34.33h2.44a.34.34,0,0,0,.34-.33V24.49A.34.34,0,0,0,30.88,24.16Z" style="fill: #e2e2e2"/>
    <path d="M23.51,24.16h.73V24a.12.12,0,0,1,.12-.11H25a.12.12,0,0,1,.12.11v.19h.87a.34.34,0,0,1,.34.33v2.16a.34.34,0,0,1-.34.33H23.51a.34.34,0,0,1-.34-.33V24.49A.34.34,0,0,1,23.51,24.16Z" style="fill: #e2e2e2"/>
    <path d="M41.31,24.16h-.73V24a.12.12,0,0,0-.12-.11h-.6a.12.12,0,0,0-.12.11v.19h-.87a.34.34,0,0,0-.34.33v2.16a.34.34,0,0,0,.34.33h2.44a.34.34,0,0,0,.34-.33V24.49A.34.34,0,0,0,41.31,24.16Z" style="fill: #e2e2e2"/>
    <path d="M33.93,24.16h.73V24a.12.12,0,0,1,.12-.11h.6a.12.12,0,0,1,.12.11v.19h.87a.34.34,0,0,1,.34.33v2.16a.34.34,0,0,1-.34.33H33.93a.34.34,0,0,1-.34-.33V24.49A.34.34,0,0,1,33.93,24.16Z" style="fill: #e2e2e2"/>
    <path d="M41.46,19.61h-.05v-.25a.08.08,0,0,0-.09-.08h-1a.08.08,0,0,0-.09.08v.25h-.59a.27.27,0,0,0-.27.27v1.85a.27.27,0,0,0,.27.27h1.8a.27.27,0,0,0,.27-.27V19.87A.27.27,0,0,0,41.46,19.61Z" style="fill: #e2e2e2"/>
    <path d="M36.05,19.61H36v-.25a.08.08,0,0,0-.09-.08h-1a.08.08,0,0,0-.09.08v.25h-.59a.27.27,0,0,0-.27.27v1.85a.27.27,0,0,0,.27.27h1.8a.27.27,0,0,0,.27-.27V19.87A.27.27,0,0,0,36.05,19.61Z" style="fill: #e2e2e2"/>
    <path d="M30.8,19.61h-.05v-.25a.08.08,0,0,0-.09-.08h-1a.08.08,0,0,0-.08.08v.25H29a.27.27,0,0,0-.27.27v1.85A.27.27,0,0,0,29,22h1.8a.27.27,0,0,0,.27-.27V19.87A.27.27,0,0,0,30.8,19.61Z" style="fill: #e2e2e2"/>
    <path d="M25.39,19.61h-.05v-.25a.08.08,0,0,0-.09-.08h-1a.08.08,0,0,0-.09.08v.25H23.6a.27.27,0,0,0-.27.27v1.85a.27.27,0,0,0,.27.27h1.8a.27.27,0,0,0,.27-.27V19.87A.27.27,0,0,0,25.39,19.61Z" style="fill: #e2e2e2"/>
    <path d="M20,19.61H20v-.25a.08.08,0,0,0-.09-.08h-1a.08.08,0,0,0-.09.08v.25h-.59a.27.27,0,0,0-.27.27v1.85a.27.27,0,0,0,.27.27H20a.27.27,0,0,0,.27-.27V19.87A.27.27,0,0,0,20,19.61Z" style="fill: #e2e2e2"/>
    <path d="M14.71,19.61h-.05v-.25a.08.08,0,0,0-.08-.08h-1a.08.08,0,0,0-.09.08v.25h-.59a.27.27,0,0,0-.27.27v1.85a.27.27,0,0,0,.27.27h1.8a.27.27,0,0,0,.27-.27V19.87A.27.27,0,0,0,14.71,19.61Z" style="fill: #e2e2e2"/>
    <path d="M9.19,19.61H9.14v-.25a.08.08,0,0,0-.09-.08h-1a.08.08,0,0,0-.09.08v.25H7.4a.27.27,0,0,0-.27.27v1.85A.27.27,0,0,0,7.4,22h1.8a.27.27,0,0,0,.27-.27V19.87A.27.27,0,0,0,9.19,19.61Z" style="fill: #e2e2e2"/>
    <path d="M4.53,15.78h.06V16a.09.09,0,0,0,.09.08H5.76A.09.09,0,0,0,5.85,16v-.25h.64a.28.28,0,0,0,.3-.27V13.67a.28.28,0,0,0-.3-.27h-2a.28.28,0,0,0-.3.27v1.85A.28.28,0,0,0,4.53,15.78Z" style="fill: #e2e2e2"/>
    <path d="M15.44,15.78h.06V16a.09.09,0,0,0,.09.08h1.08a.09.09,0,0,0,.09-.08v-.25h.64a.28.28,0,0,0,.3-.27V13.67a.28.28,0,0,0-.3-.27h-2a.28.28,0,0,0-.3.27v1.85A.28.28,0,0,0,15.44,15.78Z" style="fill: #e2e2e2"/>
    <path d="M26.22,15.78h.06V16a.09.09,0,0,0,.09.08h1.08a.09.09,0,0,0,.09-.08v-.25h.64a.28.28,0,0,0,.3-.27V13.67a.28.28,0,0,0-.3-.27h-2a.28.28,0,0,0-.3.27v1.85A.28.28,0,0,0,26.22,15.78Z" style="fill: #e2e2e2"/>
    <path d="M36.82,15.78h.06V16a.09.09,0,0,0,.09.08h1.08a.09.09,0,0,0,.09-.08v-.25h.64a.28.28,0,0,0,.3-.27V13.67a.28.28,0,0,0-.3-.27h-2a.28.28,0,0,0-.3.27v1.85A.28.28,0,0,0,36.82,15.78Z" style="fill: #e2e2e2"/>
    <path d="M3.87,19.61H3.81v-.25a.08.08,0,0,0-.09-.08h-1a.08.08,0,0,0-.09.08v.25H2.07a.27.27,0,0,0-.27.27v1.85a.27.27,0,0,0,.27.27h1.8a.27.27,0,0,0,.27-.27V19.87A.27.27,0,0,0,3.87,19.61Z" style="fill: #e2e2e2"/>
    <rect height="2.37" style="fill: #3a393c" width="2.75" x="4.26" y="24.24"/>
    <rect height="2.37" style="fill: #3a393c" width="2.75" x="15.25" y="24.24"/>
    <rect height="2.37" style="fill: #3a393c" width="2.75" x="25.82" y="24.3"/>
    <rect height="2.37" style="fill: #3a393c" width="2.75" x="36.23" y="24.24"/>
    <path d="M4.31,9.22H3.58V9a.12.12,0,0,0-.12-.11h-.6A.12.12,0,0,0,2.75,9v.19H1.88a.34.34,0,0,0-.34.33v2.16a.34.34,0,0,0,.34.33H4.31a.34.34,0,0,0,.34-.33V9.55A.34.34,0,0,0,4.31,9.22Z" style="fill: #e2e2e2"/>
    <path d="M9.23,9.22H8.5V9a.12.12,0,0,0-.12-.11h-.6A.12.12,0,0,0,7.67,9v.19H6.79a.34.34,0,0,0-.34.33v2.16a.34.34,0,0,0,.34.33H9.23a.34.34,0,0,0,.34-.33V9.55A.34.34,0,0,0,9.23,9.22Z" style="fill: #e2e2e2"/>
    <path d="M20.33,9.22H19.6V9a.12.12,0,0,0-.12-.11h-.6a.12.12,0,0,0-.12.11v.19H17.9a.34.34,0,0,0-.34.33v2.16a.34.34,0,0,0,.34.33h2.44a.34.34,0,0,0,.34-.33V9.55A.34.34,0,0,0,20.33,9.22Z" style="fill: #e2e2e2"/>
    <path d="M13,9.22h.73V9a.12.12,0,0,1,.12-.11h.6a.12.12,0,0,1,.12.11v.19h.87a.34.34,0,0,1,.34.33v2.16a.34.34,0,0,1-.34.33H13a.34.34,0,0,1-.34-.33V9.55A.34.34,0,0,1,13,9.22Z" style="fill: #e2e2e2"/>
    <path d="M30.88,9.22h-.73V9A.12.12,0,0,0,30,8.92h-.6a.12.12,0,0,0-.12.11v.19h-.87a.34.34,0,0,0-.34.33v2.16a.34.34,0,0,0,.34.33h2.44a.34.34,0,0,0,.34-.33V9.55A.34.34,0,0,0,30.88,9.22Z" style="fill: #e2e2e2"/>
    <path d="M23.51,9.22h.73V9a.12.12,0,0,1,.12-.11H25a.12.12,0,0,1,.12.11v.19h.87a.34.34,0,0,1,.34.33v2.16a.34.34,0,0,1-.34.33H23.51a.34.34,0,0,1-.34-.33V9.55A.34.34,0,0,1,23.51,9.22Z" style="fill: #e2e2e2"/>
    <path d="M41.31,9.22h-.73V9a.12.12,0,0,0-.12-.11h-.6a.12.12,0,0,0-.12.11v.19h-.87a.34.34,0,0,0-.34.33v2.16a.34.34,0,0,0,.34.33h2.44a.34.34,0,0,0,.34-.33V9.55A.34.34,0,0,0,41.31,9.22Z" style="fill: #e2e2e2"/>
    <path d="M33.93,9.22h.73V9a.12.12,0,0,1,.12-.11h.6A.12.12,0,0,1,35.5,9v.19h.87a.34.34,0,0,1,.34.33v2.16a.34.34,0,0,1-.34.33H33.93a.34.34,0,0,1-.34-.33V9.55A.34.34,0,0,1,33.93,9.22Z" style="fill: #e2e2e2"/>
    <rect height="2.37" style="fill: #3a393c" width="2.75" x="4.26" y="9.3"/>
    <rect height="2.37" style="fill: #3a393c" width="2.75" x="15.25" y="9.3"/>
    <rect height="2.37" style="fill: #3a393c" width="2.75" x="25.82" y="9.36"/>
    <rect height="2.37" style="fill: #3a393c" width="2.75" x="36.23" y="9.3"/>
    <rect height="3.89" rx="0.74" ry="0.74" style="fill: #3a393c" width="7.92" x="1.8" y="15.54"/>
    <rect height="3.89" rx="0.91" ry="0.91" style="fill: #3a393c" width="7.92" x="12.88" y="15.54"/>
    <rect height="3.89" rx="0.87" ry="0.87" style="fill: #3a393c" width="7.92" x="23.3" y="15.54"/>
    <path d="M30.13,15.64H24.36a.91.91,0,0,0-.94.88v1.85a.91.91,0,0,0,.94.88h5.77a.91.91,0,0,0,.94-.88V16.52A.91.91,0,0,0,30.13,15.64Zm.5,2.53a.91.91,0,0,1-.94.88H24.8a.91.91,0,0,1-.94-.88V16.72a.91.91,0,0,1,.94-.88h4.9a.91.91,0,0,1,.94.88Z" style="fill: #dfdfef"/>
    <rect height="3.89" rx="1" ry="1" style="fill: #3a393c" width="7.92" x="33.98" y="15.54"/>
    <path d="M40.88,15.64H35a.93.93,0,0,0-1,.9v1.89a.93.93,0,0,0,1,.9h5.89a.93.93,0,0,0,1-.9V16.53A.93.93,0,0,0,40.88,15.64Zm.51,2.58a.93.93,0,0,1-1,.9h-5a.93.93,0,0,1-1-.9V16.74a.93.93,0,0,1,1-.9h5a.93.93,0,0,1,1,.9Z" style="fill: #dfdfef"/>
    <path d="M8.64,15.64H2.88a.91.91,0,0,0-.94.88v1.85a.91.91,0,0,0,.94.88H8.64a.91.91,0,0,0,.94-.88V16.52A.91.91,0,0,0,8.64,15.64Zm.5,2.52A.91.91,0,0,1,8.2,19H3.31a.91.91,0,0,1-.94-.88V16.72a.91.91,0,0,1,.94-.88H8.2a.91.91,0,0,1,.94.88Z" style="fill: #dfdfef"/>
    <path d="M19.78,15.64H13.89a.93.93,0,0,0-1,.9v1.89a.93.93,0,0,0,1,.9h5.89a.93.93,0,0,0,1-.9V16.53A.93.93,0,0,0,19.78,15.64Zm.51,2.58a.93.93,0,0,1-1,.9h-5a.93.93,0,0,1-1-.9V16.74a.93.93,0,0,1,1-.9h5a.93.93,0,0,1,1,.9Z" style="fill: #dfdfef"/>
    <path d="M6.38,8.63V8.07c0-.08,0-.14.15-.14s.15.06.15.14v.7a.13.13,0,0,1-.15.14H5.37a.14.14,0,1,1,0-.28H5.8V7H5.37a.14.14,0,1,1,0-.28h.72V8.63Z" style="fill: #fff"/>
    <g>
      <path d="M9.11,7.93v.83c0,.09,0,.14-.15.14s-.15-.05-.15-.14v-2c0-.09,0-.14.15-.14s.15.05.15.14v.83H10V6.81c0-.09,0-.14.15-.14s.15.05.15.14v2c0,.09,0,.14-.15.14S10,8.85,10,8.76V7.93Z" style="fill: #fff"/>
      <path d="M12.21,7.27V6.81c0-.09,0-.14.15-.14s.15.05.15.14v.46a.29.29,0,0,1,0,.11l-.59,1.4c0,.07-.06.13-.15.13s-.12-.05-.15-.13L11,7.37a.28.28,0,0,1,0-.11V6.81c0-.09,0-.14.15-.14s.15.05.15.14v.46l.45,1.1Z" style="fill: #fff"/>
    </g>
    <g>
      <path d="M1.44,7.93v.83c0,.09,0,.14-.15.14s-.15-.05-.15-.14v-2c0-.09,0-.14.15-.14s.15.05.15.14v.83h.9V6.81c0-.09,0-.14.15-.14s.15.05.15.14v2c0,.09,0,.14-.15.14s-.15-.05-.15-.14V7.93Z" style="fill: #fff"/>
      <path d="M4.54,7.27V6.81c0-.09,0-.14.15-.14s.15.05.15.14v.46a.29.29,0,0,1,0,.11l-.59,1.4c0,.07-.06.13-.15.13S4,8.85,3.94,8.78l-.59-1.4a.28.28,0,0,1,0-.11V6.81c0-.09,0-.14.15-.14s.15.05.15.14v.46l.45,1.1Z" style="fill: #fff"/>
    </g>
    <g>
      <path d="M16.84,7.93v.83c0,.09,0,.14-.15.14s-.15-.05-.15-.14v-2c0-.09,0-.14.15-.14s.15.05.15.14v.83h.9V6.81c0-.09,0-.14.15-.14s.15.05.15.14v2c0,.09,0,.14-.15.14s-.15-.05-.15-.14V7.93Z" style="fill: #fff"/>
      <path d="M19.95,7.27V6.81c0-.09,0-.14.15-.14s.15.05.15.14v.46a.29.29,0,0,1,0,.11l-.59,1.4c0,.07-.06.13-.15.13s-.12-.05-.15-.13l-.59-1.4a.28.28,0,0,1,0-.11V6.81c0-.09,0-.14.15-.14s.15.05.15.14v.46l.45,1.1Z" style="fill: #fff"/>
    </g>
    <g>
      <path d="M23.35,8.17a.14.14,0,1,1,0-.29H24v.57a.44.44,0,0,1-.49.45h-.53a.48.48,0,0,1-.35-.12.4.4,0,0,1-.14-.35V7.71a.57.57,0,0,1,.16-.42L23,6.86a.48.48,0,0,1,.43-.2h.41a.14.14,0,1,1,0,.29h-.37c-.17,0-.16,0-.26.12l-.33.4a.52.52,0,0,0-.09.38v.56c0,.16,0,.21.21.21h.49c.11,0,.2,0,.2-.15V8.17Z" style="fill: #fff"/>
      <path d="M25.85,6.81c0-.09,0-.14.15-.14s.15.05.15.14v2.1h-.41L25,7.18h0V8.76c0,.09,0,.14-.15.14s-.15-.05-.15-.14V6.66H25l.8,1.75h0Z" style="fill: #fff"/>
      <path d="M27.15,6.95H27c-.1,0-.19,0-.19-.14s.08-.14.18-.14h.51a.46.46,0,0,1,.46.29l.27.51a.63.63,0,0,1,0,.65L28,8.63a.47.47,0,0,1-.48.27H27a.14.14,0,1,1,0-.29h.15Zm.31,1.67h.06c.13,0,.16,0,.21-.12L28,8a.39.39,0,0,0,.06-.19A.46.46,0,0,0,28,7.56l-.25-.49c-.06-.12-.09-.12-.23-.12h0Z" style="fill: #fff"/>
    </g>
    <g>
      <path d="M30.29,7.93v.83c0,.09,0,.14-.15.14S30,8.85,30,8.76v-2c0-.09,0-.14.15-.14s.15.05.15.14v.83h.9V6.8c0-.09,0-.14.15-.14s.15.05.15.14v2c0,.09,0,.14-.15.14s-.15-.05-.15-.14V7.93Z" style="fill: #fff"/>
      <path d="M33.4,7.26V6.8c0-.09,0-.14.15-.14s.15.05.15.14v.46a.29.29,0,0,1,0,.11l-.59,1.4c0,.07-.06.13-.15.13s-.12-.05-.15-.13l-.59-1.4a.28.28,0,0,1,0-.11V6.8c0-.09,0-.14.15-.14s.15.05.15.14v.46l.45,1.1Z" style="fill: #fff"/>
      <path d="M34.55,6.95a.14.14,0,1,1,0-.29H35.6a.29.29,0,0,1,.31.29V7.5a.32.32,0,0,1-.12.28.33.33,0,0,1,.12.28v.55a.29.29,0,0,1-.31.29H34.55a.14.14,0,1,1,0-.29H35.6V8.14c0-.16-.07-.21-.15-.21h-.6a.14.14,0,1,1,0-.29h.6c.09,0,.15,0,.15-.21V6.95Z" style="fill: #fff"/>
    </g>
    <g>
      <path d="M37.31,7.93v.83c0,.09,0,.14-.15.14S37,8.85,37,8.76v-2c0-.09,0-.14.15-.14s.15.05.15.14v.83h.9V6.8c0-.09,0-.14.15-.14s.15.05.15.14v2c0,.09,0,.14-.15.14s-.15-.05-.15-.14V7.93Z" style="fill: #fff"/>
      <path d="M40.41,7.26V6.8c0-.09,0-.14.15-.14s.15.05.15.14v.46a.29.29,0,0,1,0,.11l-.59,1.4c0,.07-.06.13-.15.13s-.12-.05-.15-.13l-.59-1.4a.28.28,0,0,1,0-.11V6.8c0-.09,0-.14.15-.14s.15.05.15.14v.46L40,8.37Z" style="fill: #fff"/>
      <path d="M42.47,7.88V7a.15.15,0,0,1,.31,0v.83a.14.14,0,1,1,0,.29v.59c0,.09,0,.14-.15.14s-.15-.05-.15-.14V8.17h-.9V6.8a.15.15,0,0,1,.31,0V7.88Z" style="fill: #fff"/>
    </g>
    <path d="M13.19,8.63h1a.14.14,0,1,1,0,.28h-1.3V8c0-.21.11-.31.33-.31H14V7H13a.14.14,0,1,1,0-.28h1a.32.32,0,0,1,.24.08.28.28,0,0,1,.09.25v.57a.28.28,0,0,1-.09.25A.32.32,0,0,1,14,8h-.83Z" style="fill: #fff"/>
    <g>
      <path d="M2.49,29.14a.14.14,0,1,1,0,.29H1.13v-2.1c0-.09,0-.14.15-.14s.15.05.15.14v1.81Z" style="fill: #fff"/>
      <path d="M4.54,27.79v-.46c0-.09,0-.14.15-.14s.15.05.15.14v.46a.29.29,0,0,1,0,.11l-.59,1.4c0,.07-.06.13-.15.13s-.12-.05-.15-.13l-.59-1.4a.28.28,0,0,1,0-.11v-.46c0-.09,0-.14.15-.14s.15.05.15.14v.46l.45,1.1Z" style="fill: #fff"/>
    </g>
    <path d="M6.38,29.33v-.56c0-.08,0-.14.15-.14s.15.06.15.14v.7a.13.13,0,0,1-.15.14H5.37a.14.14,0,1,1,0-.28H5.8v-1.6H5.37a.14.14,0,1,1,0-.28h.72v1.87Z" style="fill: #fff"/>
    <g>
      <path d="M9.62,29.14a.14.14,0,1,1,0,.29H8.26v-2.1c0-.09,0-.14.15-.14s.15.05.15.14v1.81Z" style="fill: #fff"/>
      <path d="M11.67,27.79v-.46c0-.09,0-.14.15-.14s.15.05.15.14v.46a.29.29,0,0,1,0,.11l-.59,1.4c0,.07-.06.13-.15.13s-.12-.05-.15-.13l-.59-1.4a.28.28,0,0,1,0-.11v-.46c0-.09,0-.14.15-.14s.15.05.15.14v.46l.45,1.1Z" style="fill: #fff"/>
    </g>
    <g>
      <path d="M17.9,29.14a.14.14,0,1,1,0,.29H16.53v-2.1c0-.09,0-.14.15-.14s.15.05.15.14v1.81Z" style="fill: #fff"/>
      <path d="M19.95,27.79v-.46c0-.09,0-.14.15-.14s.15.05.15.14v.46a.29.29,0,0,1,0,.11l-.59,1.4c0,.07-.06.13-.15.13s-.12-.05-.15-.13l-.59-1.4a.28.28,0,0,1,0-.11v-.46c0-.09,0-.14.15-.14s.15.05.15.14v.46l.45,1.1Z" style="fill: #fff"/>
    </g>
    <g>
      <path d="M23.73,28.7a.14.14,0,1,1,0-.29h.6V29a.44.44,0,0,1-.49.45h-.53a.49.49,0,0,1-.35-.12.4.4,0,0,1-.14-.35v-.72a.57.57,0,0,1,.16-.42l.36-.44a.48.48,0,0,1,.43-.2h.41a.14.14,0,1,1,0,.29h-.37c-.17,0-.16,0-.26.12l-.33.4a.52.52,0,0,0-.09.38v.57c0,.16,0,.21.21.21h.49c.11,0,.2,0,.2-.15V28.7Z" style="fill: #fff"/>
      <path d="M26.23,27.34c0-.09,0-.14.15-.14s.15.05.15.14v2.1h-.41l-.8-1.73h0v1.59c0,.09,0,.14-.15.14s-.15-.05-.15-.14v-2.1h.4l.8,1.75h0Z" style="fill: #fff"/>
      <path d="M27.52,27.48h-.11c-.1,0-.19,0-.19-.14s.08-.14.18-.14h.51a.46.46,0,0,1,.46.29l.27.51a.63.63,0,0,1,0,.65l-.28.52a.47.47,0,0,1-.48.27h-.51a.14.14,0,1,1,0-.29h.15Zm.31,1.67h.06c.13,0,.16,0,.21-.12l.27-.51a.39.39,0,0,0,.06-.19.46.46,0,0,0-.08-.24l-.25-.49c-.06-.12-.09-.12-.23-.12h0Z" style="fill: #fff"/>
    </g>
    <g>
      <path d="M31.35,29.32a.14.14,0,1,1,0,.29H30v-2.1c0-.09,0-.14.15-.14s.15.05.15.14v1.81Z" style="fill: #fff"/>
      <path d="M33.4,28v-.46c0-.09,0-.14.15-.14s.15.05.15.14V28a.29.29,0,0,1,0,.11l-.59,1.4c0,.07-.06.13-.15.13s-.12-.05-.15-.13l-.59-1.4a.28.28,0,0,1,0-.11v-.46c0-.09,0-.14.15-.14s.15.05.15.14V28l.45,1.1Z" style="fill: #fff"/>
      <path d="M34.55,27.66a.14.14,0,1,1,0-.29H35.6a.29.29,0,0,1,.31.29v.55a.32.32,0,0,1-.12.28.33.33,0,0,1,.12.28v.55a.29.29,0,0,1-.31.29H34.55a.14.14,0,1,1,0-.29H35.6v-.48c0-.16-.07-.21-.15-.21h-.6a.14.14,0,1,1,0-.29h.6c.09,0,.15,0,.15-.21v-.48Z" style="fill: #fff"/>
    </g>
    <g>
      <path d="M38.36,29.32a.14.14,0,1,1,0,.29H37v-2.1c0-.09,0-.14.15-.14s.15.05.15.14v1.81Z" style="fill: #fff"/>
      <path d="M40.41,28v-.46c0-.09,0-.14.15-.14s.15.05.15.14V28a.29.29,0,0,1,0,.11l-.59,1.4c0,.07-.06.13-.15.13s-.12-.05-.15-.13l-.59-1.4a.28.28,0,0,1,0-.11v-.46c0-.09,0-.14.15-.14s.15.05.15.14V28l.45,1.1Z" style="fill: #fff"/>
      <path d="M42.47,28.59v-.83a.15.15,0,0,1,.31,0v.83a.14.14,0,1,1,0,.29v.59c0,.09,0,.14-.15.14s-.15-.05-.15-.14v-.59h-.9V27.51a.15.15,0,0,1,.31,0v1.08Z" style="fill: #fff"/>
    </g>
    <path d="M13.19,29.33h1a.14.14,0,1,1,0,.28h-1.3v-.9c0-.21.11-.31.33-.31H14v-.66H13a.14.14,0,1,1,0-.28h1a.32.32,0,0,1,.24.08.28.28,0,0,1,.09.25v.57a.28.28,0,0,1-.09.25.32.32,0,0,1-.24.08h-.83Z" style="fill: #fff"/>
  </g>
  <g id="Connectors">
    <ellipse cx="39.6" cy="32.65" data-cir-type="male" id="circuitoCon_LV4" rx="2.05" ry="1.99" style="fill: none;stroke: #e8e5df;stroke-miterlimit: 10;stroke-width: 1.224px"/>
    <ellipse cx="32.41" cy="32.65" data-cir-type="male" id="circuitoCon_LV3" rx="2.05" ry="1.99" style="fill: none;stroke: #e8e5df;stroke-miterlimit: 10;stroke-width: 1.224px"/>
    <ellipse cx="25.21" cy="32.65" data-cir-type="male" id="circuitoCon_GND1" rx="2.05" ry="1.99" style="fill: none;stroke: #e8e5df;stroke-miterlimit: 10;stroke-width: 1.224px"/>
    <ellipse cx="10.83" cy="32.65" data-cir-type="male" id="circuitoCon_LV2" rx="2.05" ry="1.99" style="fill: none;stroke: #e8e5df;stroke-miterlimit: 10;stroke-width: 1.224px"/>
    <ellipse cx="3.58" cy="32.65" data-cir-type="male" id="circuitoCon_LV1" rx="2.05" ry="1.99" style="fill: none;stroke: #e8e5df;stroke-miterlimit: 10;stroke-width: 1.224px"/>
    <ellipse cx="18.02" cy="32.65" data-cir-type="male" id="circuitoCon_LV" rx="2.05" ry="1.99" style="fill: none;stroke: #e8e5df;stroke-miterlimit: 10;stroke-width: 1.224px"/>
    <ellipse cx="39.6" cy="3.72" data-cir-type="male" id="circuitoCon_HV4" rx="2.05" ry="1.99" style="fill: none;stroke: #e8e5df;stroke-miterlimit: 10;stroke-width: 1.224px"/>
    <ellipse cx="32.41" cy="3.72" data-cir-type="male" id="circuitoCon_HV3" rx="2.05" ry="1.99" style="fill: none;stroke: #e8e5df;stroke-miterlimit: 10;stroke-width: 1.224px"/>
    <ellipse cx="25.21" cy="3.72" data-cir-type="male" id="circuitoCon_GND" rx="2.05" ry="1.99" style="fill: none;stroke: #e8e5df;stroke-miterlimit: 10;stroke-width: 1.224px"/>
    <ellipse cx="18.02" cy="3.72" data-cir-type="male" id="circuitoCon_HV" rx="2.05" ry="1.99" style="fill: none;stroke: #e8e5df;stroke-miterlimit: 10;stroke-width: 1.224px"/>
    <ellipse cx="10.83" cy="3.72" data-cir-type="male" id="circuitoCon_HV2" rx="2.05" ry="1.99" style="fill: none;stroke: #e8e5df;stroke-miterlimit: 10;stroke-width: 1.224px"/>
    <ellipse cx="3.58" cy="3.72" data-cir-type="male" id="circuitoCon_HV1" rx="2.05" ry="1.99" style="fill: none;stroke: #e8e5df;stroke-miterlimit: 10;stroke-width: 1.224px"/>
  </g>
</svg>