<?xml version="1.0" ?><svg height="26.67mm" viewBox="0 0 66.38 75.6" width="23.42mm" xmlns="http://www.w3.org/2000/svg">
  <title>Capacitive Touch Sensor Module</title>
  <g id="Background">
    <path d="M0,0V66.25H66.38V0ZM61.18,2.22A3.28,3.28,0,1,1,57.9,5.5,3.28,3.28,0,0,1,61.18,2.22ZM15.13,32.69a1.69,1.69,0,1,1-1.69,1.69A1.69,1.69,0,0,1,15.13,32.69ZM5.24,1.88A3.28,3.28,0,1,1,2,5.16,3.28,3.28,0,0,1,5.24,1.88ZM.67,58.79v-18l.21-.24H6.42V44h.5v5.38h.71v2.13H7v4.92l-.33.21a5.11,5.11,0,0,0-2.88-.15A5.28,5.28,0,0,0,.67,58.79ZM2.33,61a3.28,3.28,0,1,1,3.28,3.28A3.28,3.28,0,0,1,2.33,61Zm58.5,2.81a3.28,3.28,0,1,1,3.28-3.28A3.28,3.28,0,0,1,60.82,63.86ZM65.3,58.5h-.5a4.74,4.74,0,0,0-4.34-2.29,5,5,0,0,0-3.71,2.29,4.89,4.89,0,0,0-.58,3.6,5,5,0,0,0,2.58,3.19l-51.23.2v-.2A4.66,4.66,0,0,0,10,61.1h.72l1.63,1.69,35.17-.34,3.27-3.17L51,57.59h5.59V52.73H49.41l4.77-3V45.61H55.7v5.3h5.12v-9H56.52v.64H54.11V41.8H49.48v6.78H16v-1H37.11a2.22,2.22,0,0,0,2.48-3.69,2.42,2.42,0,0,0-2.78.2H15.47l0-3.55,49.61-.13.41.44Z" style="fill: #1a2c80"/>
  </g>
  <g data-name="Layer 4" id="Layer_4">
    <polyline points="8.89 55.63 8.89 57.13 12.86 61.09 24.91 61.09" style="fill: none;stroke: #0b5597;stroke-miterlimit: 10"/>
    <polyline points="14.41 54.16 18.06 54.16 20.34 56.44 20.34 61.09" style="fill: none;stroke: #0b5597;stroke-miterlimit: 10"/>
    <line style="fill: none;stroke: #0b5597;stroke-miterlimit: 10" x1="15.47" x2="50.1" y1="50.47" y2="50.47"/>
    <line style="fill: none;stroke: #0b5597;stroke-miterlimit: 10" x1="33.72" x2="33.72" y1="50.47" y2="54.86"/>
    <line style="fill: none;stroke: #0b5597;stroke-miterlimit: 10" x1="14.56" x2="37.5" y1="45.69" y2="45.69"/>
    <circle cx="38.36" cy="45.69" r="1.03" style="fill: #0b5597"/>
    <polyline points="8.89 44.81 8.89 40.54 14.01 35.42" style="fill: none;stroke: #0b5597;stroke-miterlimit: 10"/>
    <polyline points="11.66 44.76 11.66 43.02 13.3 41.38 15.81 41.38" style="fill: none;stroke: #0b5597;stroke-miterlimit: 10"/>
    <polyline points="43.53 61.09 46.31 61.09 46.75 61.09 49.2 58.64 49.2 57.29" style="fill: none;stroke: #0b5597;stroke-miterlimit: 10"/>
    <path d="M35.46,53.81V52.4l.17-.21H47.31v.27l-.5.5v4.16l.36.36.34.34L45.83,59.5l-1.37-1.37-2-2V54.52a1.88,1.88,0,0,0-2.15,0h-1l-1.54,1.54L36.2,54.58h-.74Z" style="fill: #0b5597"/>
    <path d="M30.29,55.1l1.65-1.54V52H15.56v.75H19L22,56v3.21h1.5V54.86L25,53.37h.93l.58.58.89-.89h1.78Z" style="fill: #0b5597"/>
    <path d="M7.63,49.33H6.92V44h-.5V40.54H.88l-.21.24v18a5.28,5.28,0,0,1,3.16-2.35,5.11,5.11,0,0,1,2.88.15L7,56.38V51.46h.58ZM4,54.39a.82.82,0,1,1,.82-.82A.82.82,0,0,1,4,54.39Z" style="fill: #0b5597"/>
    <path d="M15.13,36.06a1.69,1.69,0,1,0-1.69-1.69A1.69,1.69,0,0,0,15.13,36.06Zm.29-2.1a.82.82,0,1,1-.82.82A.82.82,0,0,1,15.42,34Z" style="fill: #0b5597"/>
    <path d="M15.48,40.48v0l0,3.55H36.81a2.42,2.42,0,0,1,2.78-.2,2.23,2.23,0,1,1-2.48,3.69H16v1H49.48V41.8h4.63v.78h2.41v-.64h4.31v9H55.7v-5.3H54.17v4.08l-4.77,3h7.16v4.86H51l-.23,1.67-3.27,3.17-35.17.34L10.67,61.1H10a4.66,4.66,0,0,1-2.44,4.2v.2l51.23-.2a5,5,0,0,1-2.58-3.19,4.89,4.89,0,0,1,.58-3.6,5,5,0,0,1,3.71-2.29A4.74,4.74,0,0,1,64.8,58.5h.5l.2-17.72-.41-.44Zm5.68,2.91a.82.82,0,1,1,.82-.82A.82.82,0,0,1,21.17,43.38Zm6.09,0a.82.82,0,1,1,.82-.82A.82.82,0,0,1,27.26,43.38Z" style="fill: #0b5597"/>
    <path d="M0,0V39.54H66.38V0ZM5.24,8.45A3.28,3.28,0,1,1,8.52,5.16,3.28,3.28,0,0,1,5.24,8.45Zm55.94.34A3.28,3.28,0,1,1,64.46,5.5,3.28,3.28,0,0,1,61.18,8.78Z" style="fill: #0b5597"/>
  </g>
  <g data-name="Layer 3" id="Layer_3">
    <rect height="2.52" style="fill: #cbcac3" width="2.75" x="48.13" y="53.94"/>
    <rect height="2.52" style="fill: #cbcac3" width="2.75" x="52.88" y="53.94"/>
    <rect height="2.02" width="3.81" x="50.1" y="54.23"/>
    <rect height="2.52" style="fill: #cbcac3" width="2.75" x="7.63" y="40.25"/>
    <rect height="2.52" style="fill: #cbcac3" width="2.75" x="12.38" y="40.25"/>
    <rect height="2.02" style="fill: #e6cabe" width="3.81" x="9.6" y="40.54"/>
    <rect height="2.52" style="fill: #cbcac3" transform="translate(3.44 100.58) rotate(-90)" width="2.75" x="50.64" y="47.31"/>
    <rect height="2.52" style="fill: #cbcac3" transform="translate(8.19 95.83) rotate(-90)" width="2.75" x="50.64" y="42.56"/>
    <rect height="2.02" transform="translate(5.99 98.11) rotate(-90)" width="3.81" x="50.15" y="45.05"/>
    <rect height="2.52" style="fill: #cbcac3" transform="translate(9.81 106.96) rotate(-90)" width="2.75" x="57.01" y="47.31"/>
    <rect height="2.52" style="fill: #cbcac3" transform="translate(14.56 102.21) rotate(-90)" width="2.75" x="57.01" y="42.56"/>
    <rect height="2.02" style="fill: #e6cabe" transform="translate(12.36 104.49) rotate(-90)" width="3.81" x="56.52" y="45.05"/>
    <rect height="4" width="7.79" x="8.02" y="48.77"/>
    <path d="M9.44,48.77H8.35v-1a.84.84,0,0,1,.59-.2.83.83,0,0,1,.49.2Z" style="fill: #a9997f"/>
    <rect height="1.02" style="fill: #7a746a" width="0.79" x="8.5" y="46.74"/>
    <rect height="2.09" style="fill: #d1d0cc" width="0.93" x="8.43" y="44.64"/>
    <path d="M12.2,48.77H11.12v-1a.84.84,0,0,1,.59-.2.83.83,0,0,1,.49.2Z" style="fill: #a9997f"/>
    <rect height="1.02" style="fill: #7a746a" width="0.79" x="11.26" y="46.74"/>
    <rect height="2.09" style="fill: #d1d0cc" width="0.93" x="11.2" y="44.64"/>
    <path d="M14.94,48.77H13.86v-1a.84.84,0,0,1,.59-.2.83.83,0,0,1,.49.2Z" style="fill: #a9997f"/>
    <rect height="1.02" style="fill: #7a746a" width="0.79" x="14" y="46.74"/>
    <rect height="2.09" style="fill: #d1d0cc" width="0.93" x="13.94" y="44.64"/>
    <path d="M13.86,52.77h1.08v.82a1,1,0,0,1-.59.16,1,1,0,0,1-.49-.16Z" style="fill: #a9997f"/>
    <rect height="0.81" style="fill: #7a746a" transform="translate(28.82 107.94) rotate(-180)" width="0.79" x="14.01" y="53.57"/>
    <rect height="1.65" style="fill: #d1d0cc" transform="translate(28.8 110.39) rotate(-180)" width="0.93" x="13.94" y="54.37"/>
    <path d="M11.1,52.77h1.08v.82a1,1,0,0,1-.59.16,1,1,0,0,1-.49-.16Z" style="fill: #a9997f"/>
    <rect height="0.81" style="fill: #7a746a" transform="translate(23.29 107.94) rotate(-180)" width="0.79" x="11.25" y="53.57"/>
    <rect height="1.65" style="fill: #d1d0cc" transform="translate(23.27 110.39) rotate(-180)" width="0.93" x="11.17" y="54.37"/>
    <path d="M8.35,52.77H9.44v.82a1,1,0,0,1-.59.16,1,1,0,0,1-.49-.16Z" style="fill: #a9997f"/>
    <rect height="0.81" style="fill: #7a746a" transform="translate(17.8 107.94) rotate(-180)" width="0.79" x="8.51" y="53.57"/>
    <rect height="1.65" style="fill: #d1d0cc" transform="translate(17.79 110.39) rotate(-180)" width="0.93" x="8.43" y="54.37"/>
    <circle cx="33.19" cy="19.38" r="1.32" style="fill: none;stroke: #d1d0cc;stroke-miterlimit: 10"/>
    <circle cx="33.19" cy="19.38" r="5.34" style="fill: none;stroke: #d1d0cc;stroke-miterlimit: 10"/>
    <circle cx="33.19" cy="19.38" r="8.68" style="fill: none;stroke: #d1d0cc;stroke-miterlimit: 10"/>
    <circle cx="33.19" cy="19.38" r="11.21" style="fill: none;stroke: #d1d0cc;stroke-miterlimit: 10"/>
    <circle cx="33.19" cy="19.38" r="13.43" style="fill: none;stroke: #d1d0cc;stroke-miterlimit: 10"/>
    <circle cx="33.19" cy="19.38" r="15.22" style="fill: none;stroke: #d1d0cc;stroke-miterlimit: 10"/>
    <circle cx="33.19" cy="19.38" r="16.62" style="fill: none;stroke: #d1d0cc;stroke-miterlimit: 10"/>
    <circle cx="61.18" cy="5.5" r="3.62" style="fill: none;stroke: #d1d0cc;stroke-miterlimit: 10;stroke-width: 0.7000000000000001px"/>
    <circle cx="5.24" cy="5.16" r="3.62" style="fill: none;stroke: #d1d0cc;stroke-miterlimit: 10;stroke-width: 0.7000000000000001px"/>
    <circle cx="60.82" cy="60.58" r="3.62" style="fill: none;stroke: #d1d0cc;stroke-miterlimit: 10;stroke-width: 0.7000000000000001px"/>
    <circle cx="5.61" cy="61.05" r="3.62" style="fill: none;stroke: #d1d0cc;stroke-miterlimit: 10;stroke-width: 0.7000000000000001px"/>
    <path d="M15.48,40.48l0,3.55H36.81a2.42,2.42,0,0,1,2.78-.2,2.23,2.23,0,1,1-2.48,3.69H16v1H49.48V41.8h4.63v.78h2.41v-.64h4.31v9H55.7v-5.3H54.17v4.08l-4.77,3h7.16v4.86H51l-.23,1.67-3.27,3.17-35.17.34L10.67,61.1H10a4.66,4.66,0,0,1-2.44,4.2v.2l51.23-.2a5,5,0,0,1-2.58-3.19,4.89,4.89,0,0,1,.58-3.6,5,5,0,0,1,3.71-2.29A4.74,4.74,0,0,1,64.8,58.5h.5l.2-17.72-.41-.44Z" style="fill: none"/>
    <circle cx="15.12" cy="34.38" r="1.69" style="fill: none"/>
    <path d="M6.71,56.58,7,56.38V51.46h.58V49.33H6.92V44h-.5V40.54H.88l-.21.24v18a5.28,5.28,0,0,1,3.16-2.35A5.11,5.11,0,0,1,6.71,56.58Z" style="fill: none"/>
  </g>
  <g data-name="Layer 6" id="Layer_6">
    <g>
      <path d="M51.25,55.8v-.4a.1.1,0,0,1,.2,0v.5a.09.09,0,0,1-.1.1h-.79a.1.1,0,1,1,0-.2h.29V54.64h-.29a.1.1,0,1,1,0-.2h.49V55.8Z" style="fill: #fff"/>
      <path d="M52,54.44a.2.2,0,0,1,.2.2V55.8a.2.2,0,0,1-.2.2h-.59a.2.2,0,0,1-.2-.2V54.64a.2.2,0,0,1,.2-.2Zm0,1.35V54.64h-.59V55.8Z" style="fill: #fff"/>
      <path d="M52.42,55.8h.69a.1.1,0,0,1,0,.2h-.89v-.65a.2.2,0,0,1,.23-.23H53v-.48h-.69a.1.1,0,1,1,0-.2H53a.21.21,0,0,1,.22.23v.41a.21.21,0,0,1-.22.23h-.56Z" style="fill: #fff"/>
    </g>
    <g>
      <path d="M52.51,46.86h-.4a.1.1,0,1,1,0-.2h.5a.09.09,0,0,1,.1.1v.79a.1.1,0,1,1-.2,0v-.29H51.35v.29a.1.1,0,1,1-.2,0v-.49h1.35Z" style="fill: #fff"/>
      <path d="M51.15,46.14a.2.2,0,0,1,.2-.2h1.16a.2.2,0,0,1,.2.2v.59a.2.2,0,0,1-.2.2H51.35a.2.2,0,0,1-.2-.2Zm1.35,0H51.35v.59h1.16Z" style="fill: #fff"/>
      <path d="M52.51,45.69V45a.1.1,0,0,1,.2,0v.89h-.65a.2.2,0,0,1-.23-.23V45.1h-.48v.69a.1.1,0,1,1-.2,0v-.66a.21.21,0,0,1,.23-.22h.41a.21.21,0,0,1,.23.22v.56Z" style="fill: #fff"/>
    </g>
    <polyline points="54.63 47.44 54.63 50.34 49.78 50.34 49.78 47.44 49.78 47.2" style="fill: none;stroke: #f0e1da;stroke-linecap: round;stroke-miterlimit: 10;stroke-width: 0.8px"/>
    <polyline points="49.78 44.38 49.78 41.47 54.63 41.47 54.63 44.38 54.63 44.62" style="fill: none;stroke: #f0e1da;stroke-linecap: round;stroke-miterlimit: 10;stroke-width: 0.8px"/>
    <polyline points="61.06 47.44 61.06 50.34 56.22 50.34 56.22 47.44 56.22 47.2" style="fill: none;stroke: #f0e1da;stroke-linecap: round;stroke-miterlimit: 10;stroke-width: 0.8px"/>
    <polyline points="56.22 44.38 56.22 41.47 61.06 41.47 61.06 44.38 61.06 44.62" style="fill: none;stroke: #f0e1da;stroke-linecap: round;stroke-miterlimit: 10;stroke-width: 0.8px"/>
    <polyline points="50.52 57.29 47.62 57.29 47.62 52.45 50.52 52.45 50.76 52.45" style="fill: none;stroke: #f0e1da;stroke-linecap: round;stroke-miterlimit: 10;stroke-width: 0.8px"/>
    <polyline points="53.58 52.45 56.49 52.45 56.49 57.29 53.58 57.29 53.34 57.29" style="fill: none;stroke: #f0e1da;stroke-linecap: round;stroke-miterlimit: 10;stroke-width: 0.8px"/>
    <polyline points="10.11 43.55 7.2 43.55 7.2 38.7 10.11 38.7 10.35 38.7" style="fill: none;stroke: #f0e1da;stroke-linecap: round;stroke-miterlimit: 10;stroke-width: 0.8px"/>
    <polyline points="13.17 38.7 16.07 38.7 16.07 43.55 13.17 43.55 12.93 43.55" style="fill: none;stroke: #f0e1da;stroke-linecap: round;stroke-miterlimit: 10;stroke-width: 0.8px"/>
    <g>
      <path d="M63.29,40.83v-.18a.25.25,0,0,1,.5,0v.68H61.32v-.68a.25.25,0,0,1,.5,0v.18h.49V37.69a.25.25,0,0,1,.5,0v3.14Z" style="fill: #fff"/>
      <path d="M60.73,39.24a.65.65,0,0,1-.3.63.86.86,0,0,1-.68.27h-.38a.86.86,0,0,1-.68-.27.65.65,0,0,1-.3-.63v-.91a.7.7,0,0,1,.33-.65.8.8,0,0,1,.66-.25h.38a.8.8,0,0,1,.66.25.7.7,0,0,1,.33.65Zm-.48-.91c0-.1,0-.17-.17-.29a.44.44,0,0,0-.33-.13h-.38a.44.44,0,0,0-.33.13c-.14.12-.17.19-.17.29v.91c0,.1,0,.17.17.29a.44.44,0,0,0,.33.13h.38a.44.44,0,0,0,.33-.13c.14-.12.17-.19.17-.29Z" style="fill: #fff"/>
      <path d="M57.35,39.17v-1.4c0-.17,0-.33.24-.33s.24.17.24.33v2c0,.17,0,.35-.24.35s-.24-.18-.24-.35v-.06h0L57,40a.79.79,0,0,1-.42.16h-.36a.61.61,0,0,1-.45-.17c-.21-.19-.21-.39-.21-.65l0-1.51c0-.17,0-.36.23-.36s.24.17.24.33L56,39.25c0,.3,0,.41.33.41h.16a.29.29,0,0,0,.15,0Z" style="fill: #fff"/>
      <path d="M55.13,39a.68.68,0,0,1-.29.63l-.36.3a.76.76,0,0,1-.62.19h-.76c-.16,0-.33,0-.33-.24s.19-.24.33-.24H54a.45.45,0,0,0,.28-.12l.29-.25c.08-.06.13-.11.13-.21v-.6c0-.09-.05-.14-.13-.21L54.23,38a.45.45,0,0,0-.28-.12h-.85c-.14,0-.33,0-.33-.24s.17-.24.33-.24h.76a.76.76,0,0,1,.62.19l.36.29a.68.68,0,0,1,.29.63Z" style="fill: #fff"/>
      <path d="M50.89,39.66a.29.29,0,0,0,.15,0l.71-.45v-1.4c0-.17,0-.33.24-.33s.24.17.24.33v3c0,.17,0,.33-.24.33s-.24-.17-.24-.33V39.72l-.39.25a.82.82,0,0,1-.43.16h-.32a.64.64,0,0,1-.47-.17c-.21-.19-.21-.39-.21-.65l0-1.51c0-.17,0-.36.24-.36s.23.17.24.33l0,1.48c0,.23,0,.41.26.41Z" style="fill: #fff"/>
    </g>
    <g>
      <path d="M44.18,38.42A.65.65,0,0,1,44,38a.56.56,0,0,1,.63-.57h1.1a.74.74,0,0,1,.51.16.63.63,0,0,1,.24.47.27.27,0,0,1-.27.3.24.24,0,0,1-.24-.25c0-.15-.08-.17-.22-.17H44.67s-.17,0-.17.06.07.12.09.15l1.72,2.21a.6.6,0,0,1,.17.41.56.56,0,0,1-.27.48.67.67,0,0,1-.42.09H44.74a.71.71,0,0,1-.5-.17.68.68,0,0,1-.24-.48.26.26,0,0,1,.26-.29.22.22,0,0,1,.24.24c0,.17.08.2.24.2h1.06c.05,0,.17,0,.17-.07s-.05-.11-.07-.13Z" style="fill: #fff"/>
      <path d="M42.54,37.44a.51.51,0,0,1,.43.13l.21.18a.6.6,0,0,1,.25.54v.93a.63.63,0,0,1-.24.58l-.17.14a.64.64,0,0,1-.53.2H42a.68.68,0,0,1-.53-.17l-.2-.16a.68.68,0,0,1-.25-.63V38.8c0-.28,0-.36.33-.36h1.54v-.16a.24.24,0,0,0-.07-.14L42.75,38a.41.41,0,0,0-.32-.09h-1c-.16,0-.33,0-.33-.24s.19-.24.33-.24Zm.4,1.48H41.55v.29c0,.09,0,.17.06.23l.19.16a.34.34,0,0,0,.23.06h.41a.39.39,0,0,0,.25-.05l.17-.12a.22.22,0,0,0,.1-.22Z" style="fill: #fff"/>
      <path d="M40,39.17v-1.4c0-.17,0-.33.24-.33s.24.17.24.33v2c0,.17,0,.35-.24.35S40,40,40,39.79v-.06h0l-.39.25a.79.79,0,0,1-.42.16h-.36a.61.61,0,0,1-.45-.17c-.21-.19-.21-.39-.21-.65l0-1.51c0-.17,0-.36.23-.36s.24.17.24.33l.05,1.48c0,.3,0,.41.33.41h.16a.29.29,0,0,0,.15,0Z" style="fill: #fff"/>
      <path d="M36.8,39.66c.1,0,.27,0,.27-.13s-.06-.11-.13-.14l-1.2-.55a.68.68,0,0,1-.47-.68.69.69,0,0,1,.79-.72h.74a.86.86,0,0,1,.6.15c.09.07.22.16.22.28a.25.25,0,0,1-.25.24.23.23,0,0,1-.18-.08.51.51,0,0,0-.39-.11h-.65c-.17,0-.4,0-.4.27,0,.11.14.19.25.24l1.13.51a.59.59,0,0,1,.42.59.61.61,0,0,1-.66.61h-.82a.69.69,0,0,1-.56-.17c-.09-.08-.19-.13-.19-.27a.24.24,0,0,1,.25-.24.25.25,0,0,1,.21.1.35.35,0,0,0,.3.09Z" style="fill: #fff"/>
      <path d="M34.62,39.24a.65.65,0,0,1-.3.63.86.86,0,0,1-.68.27h-.38a.86.86,0,0,1-.68-.27.65.65,0,0,1-.3-.63v-.91a.7.7,0,0,1,.33-.65.8.8,0,0,1,.66-.25h.38a.8.8,0,0,1,.66.25.7.7,0,0,1,.33.65Zm-.48-.91c0-.1,0-.17-.17-.29a.44.44,0,0,0-.33-.13h-.38a.44.44,0,0,0-.33.13c-.14.12-.17.19-.17.29v.91c0,.1,0,.17.17.29a.44.44,0,0,0,.33.13h.38a.44.44,0,0,0,.33-.13c.14-.12.17-.19.17-.29Z" style="fill: #fff"/>
      <path d="M31.72,39.78c0,.17,0,.35-.24.35s-.24-.16-.24-.32v-.19l-.37.31a.72.72,0,0,1-.43.21h-.38a.63.63,0,0,1-.47-.19.7.7,0,0,1-.21-.55c0-.17,0-.33.23-.33s.25.14.25.29a.32.32,0,0,0,0,.21c.06.08.17.08.29.08h.14a.38.38,0,0,0,.24-.11l.67-.56V37.77c0-.17,0-.33.24-.33s.24.17.24.33Z" style="fill: #fff"/>
    </g>
    <g>
      <path d="M42.65,50.92a.45.45,0,0,1-.12-.29.39.39,0,0,1,.44-.39h.77a.52.52,0,0,1,.35.11.44.44,0,0,1,.16.32.19.19,0,0,1-.19.21.17.17,0,0,1-.16-.18c0-.1-.06-.12-.15-.12H43s-.12,0-.12,0,0,.08.06.1l1.2,1.54a.42.42,0,0,1,.12.29.39.39,0,0,1-.19.33.46.46,0,0,1-.29.06H43a.5.5,0,0,1-.35-.12.48.48,0,0,1-.16-.33.18.18,0,0,1,.18-.2.16.16,0,0,1,.17.16c0,.12.06.14.17.14h.74s.12,0,.12,0,0-.07-.05-.09Z" style="fill: #fff"/>
      <path d="M41.46,50.58h-.51a.17.17,0,0,1,0-.35h1.38a.17.17,0,0,1,0,.35h-.51v2h.51a.17.17,0,1,1,0,.35H40.95a.17.17,0,1,1,0-.35h.51Z" style="fill: #fff"/>
      <path d="M39.36,51.12a.17.17,0,1,1,0,.35h-.69v-.69a.52.52,0,0,1,.56-.55h.6a.53.53,0,0,1,.4.14.5.5,0,0,1,.17.43v.87a.71.71,0,0,1-.18.51l-.41.53a.53.53,0,0,1-.49.24h-.47a.17.17,0,1,1,0-.35h.42c.19,0,.18,0,.29-.14l.38-.49a.66.66,0,0,0,.11-.45v-.69c0-.19,0-.25-.24-.25h-.56c-.13,0-.23,0-.23.18v.36Z" style="fill: #fff"/>
      <path d="M35.8,52.22v.56a.17.17,0,0,1-.35,0v-.55a.36.36,0,0,1,0-.14l.67-1.7c0-.09.07-.15.17-.15s.14.07.17.15l.67,1.7a.36.36,0,0,1,0,.14v.55a.17.17,0,0,1-.35,0v-.56l-.51-1.33Z" style="fill: #fff"/>
      <path d="M34.14,50.24a.52.52,0,0,1,.52.33l.32.65a.79.79,0,0,1,.09.37A.76.76,0,0,1,35,52l-.32.65a.52.52,0,0,1-.54.34h-.59a.16.16,0,0,1-.17-.17.17.17,0,0,1,.17-.17h.58c.15,0,.17,0,.24-.15l.3-.61a.55.55,0,0,0,.07-.27.49.49,0,0,0-.07-.24l-.3-.6c-.07-.14-.11-.15-.26-.15h-.57a.16.16,0,0,1-.17-.17.17.17,0,0,1,.17-.17Z" style="fill: #fff"/>
      <path d="M31.9,50.24a.52.52,0,0,1,.52.33l.32.65a.79.79,0,0,1,.09.37.76.76,0,0,1-.1.39l-.32.65a.52.52,0,0,1-.54.34h-.59a.16.16,0,0,1-.17-.17.17.17,0,0,1,.17-.17h.58c.15,0,.17,0,.24-.15l.3-.61a.55.55,0,0,0,.07-.27.49.49,0,0,0-.07-.24l-.3-.6c-.07-.14-.11-.15-.26-.15h-.57a.16.16,0,0,1-.17-.17.17.17,0,0,1,.17-.17Z" style="fill: #fff"/>
      <path d="M28.58,51.12a.17.17,0,1,1,0,.35H27.9v-.69a.52.52,0,0,1,.56-.55h.6a.54.54,0,0,1,.4.14.5.5,0,0,1,.16.43v.87a.71.71,0,0,1-.18.51l-.41.53a.53.53,0,0,1-.49.24h-.47a.17.17,0,0,1,0-.35h.42c.19,0,.18,0,.29-.14l.38-.49a.66.66,0,0,0,.11-.45v-.69c0-.19,0-.25-.24-.25h-.56c-.13,0-.23,0-.23.18v.36Z" style="fill: #fff"/>
      <path d="M25.86,52.78a.17.17,0,1,1-.35,0V50.23H26l.91,2.1h0V50.41a.17.17,0,1,1,.35,0V53h-.46l-.91-2.12h0Z" style="fill: #fff"/>
      <path d="M24.87,52.6H25c.12,0,.21,0,.21.17s-.09.17-.2.17h-.58a.53.53,0,0,1-.53-.35L23.59,52a.81.81,0,0,1,0-.79l.32-.64a.53.53,0,0,1,.55-.33H25a.17.17,0,0,1,0,.35h-.17Zm-.35-2h-.07c-.15,0-.18,0-.24.15l-.31.62a.49.49,0,0,0-.07.23.59.59,0,0,0,.09.29l.29.59c.07.15.11.15.27.15h0Z" style="fill: #fff"/>
    </g>
    <path d="M63.71,46.95h.17a.17.17,0,1,1,0,.35H63.3a.53.53,0,0,1-.55-.33l-.32-.64a.81.81,0,0,1,0-.79l.31-.62a.53.53,0,0,1,.53-.35h.58c.11,0,.2,0,.2.17s-.1.17-.21.17h-.13Zm-.35-2h0c-.16,0-.19,0-.27.15l-.29.59a.59.59,0,0,0-.09.29.49.49,0,0,0,.07.23l.31.62c.06.13.1.15.24.15h.07Z" style="fill: #fff"/>
    <g>
      <path d="M63,33.92v.17c0,.12,0,.25-.17.25s-.16-.09-.16-.2V33.9a.28.28,0,0,1,0-.14l.5-1.1c0-.07.09-.21.17-.21h.22c.08,0,.14.14.17.21l.5,1.1a.28.28,0,0,1,0,.14v.24c0,.11,0,.2-.16.2s-.17-.13-.17-.25v-.17l-.49-1.11Z" style="fill: #fff"/>
      <path d="M60.87,32.8v.71a.17.17,0,0,1-.35,0v-.88a.16.16,0,0,1,.17-.17h1.38a.17.17,0,1,1,0,.35h-.51v2h.51a.17.17,0,0,1,0,.35H61.2V32.8Z" style="fill: #fff"/>
      <path d="M59.48,32.9c.08,0,.13,0,.18.07a.22.22,0,0,1,0,.16v.2a.22.22,0,0,1,0,.16c0,.07-.11.07-.18.07h-.25c-.08,0-.13,0-.18-.07a.22.22,0,0,1,0-.16v-.2A.22.22,0,0,1,59,33c0-.07.1-.07.18-.07Z" style="fill: #fff"/>
      <path d="M56.18,35.17a.35.35,0,0,1-.35-.35v-2a.34.34,0,0,1,.35-.35h1a.34.34,0,0,1,.35.35v2a.35.35,0,0,1-.35.35Zm0-2.37v2h1v-2Z" style="fill: #fff"/>
    </g>
    <g>
      <path d="M12.24,35.55a.52.52,0,0,1,.52.33l.32.65a.79.79,0,0,1,.09.37.76.76,0,0,1-.1.39l-.32.65a.53.53,0,0,1-.54.34h-.59a.16.16,0,0,1-.17-.17.17.17,0,0,1,.17-.17h.58c.15,0,.17,0,.24-.15l.3-.61a.54.54,0,0,0,.07-.27.49.49,0,0,0-.07-.24l-.3-.6c-.07-.14-.1-.15-.26-.15h-.57a.16.16,0,0,1-.17-.17.17.17,0,0,1,.17-.17Z" style="fill: #fff"/>
      <path d="M9.91,35.9v.71a.17.17,0,0,1-.35,0v-.88a.16.16,0,0,1,.17-.17h1.38a.17.17,0,0,1,0,.35H10.6v2h.51a.17.17,0,0,1,0,.35h-.86V35.9Z" style="fill: #fff"/>
    </g>
    <g>
      <path d="M48.89,47.58a.17.17,0,0,1,0,.35H46.34V46.76a.53.53,0,0,1,.51-.55h.24a.51.51,0,0,1,.5.55v.32l1.13-.79a.35.35,0,0,1,.19-.09.17.17,0,0,1,.16.18.18.18,0,0,1-.1.15l-1.38,1v.08Zm-1.65,0v-.78c0-.1,0-.25-.15-.25h-.24c-.14,0-.16.14-.16.25v.78Z" style="fill: #fff"/>
      <path d="M48.71,45.06v-1.2a.17.17,0,1,1,.35,0v1.55H47.92a.35.35,0,0,1-.4-.4V44h-.83v1.2a.17.17,0,0,1-.35,0V44.08a.36.36,0,0,1,.41-.39h.72a.36.36,0,0,1,.41.39v1Z" style="fill: #fff"/>
    </g>
    <g>
      <path d="M60.26,53.54a.17.17,0,1,1,.35,0v2.54H59.43a.53.53,0,0,1-.55-.51v-.24a.51.51,0,0,1,.55-.5h.32L59,53.71a.35.35,0,0,1-.09-.19.17.17,0,0,1,.18-.16.18.18,0,0,1,.15.1l1,1.38h.08Zm0,1.65h-.78c-.1,0-.25,0-.25.15v.24c0,.14.14.16.25.16h.78Z" style="fill: #fff"/>
      <path d="M57.55,53.71v.71a.17.17,0,0,1-.35,0v-.88a.16.16,0,0,1,.17-.17h1.38a.17.17,0,1,1,0,.35h-.51v2h.51a.17.17,0,0,1,0,.35h-.86V53.71Z" style="fill: #fff"/>
    </g>
  </g>
  <g data-name="Layer 7" id="Layer_7">
    <g id="Connectors">
      <polygon points="36.36 54.63 37.79 56.16 37.79 60.4 36.36 61.83 32.13 61.83 30.59 60.4 30.59 56.16 32.13 54.63 36.36 54.63" style="fill: #323232"/>
      <rect height="17.37" style="fill: #b0acb0" width="2.27" x="33.17" y="58.23"/>
      <polygon points="43.56 54.63 44.99 56.16 44.99 60.4 43.56 61.83 39.33 61.83 37.79 60.4 37.79 56.16 39.33 54.63 43.56 54.63" style="fill: #323232"/>
      <rect height="17.37" style="fill: #b0acb0" width="2.27" x="40.37" y="58.23"/>
      <polygon points="29.16 54.63 30.59 56.16 30.59 60.4 29.16 61.83 24.93 61.83 23.39 60.4 23.39 56.16 24.93 54.63 29.16 54.63" style="fill: #323232"/>
      <rect height="17.37" style="fill: #b0acb0" width="2.27" x="25.97" y="58.23"/>
    </g>
  </g>
  <g data-name="Layer 8" id="Layer_8">
    <rect height="2.22" id="circuitoCon_VCC" style="fill: none" width="2.31" x="33.15" y="73.38"/>
    <rect height="2.22" id="circuitoCon_SIG" style="fill: none" width="2.27" x="40.37" y="73.38"/>
    <rect height="2.22" id="circuitoCon_GND" style="fill: none" width="2.27" x="25.97" y="73.38"/>
  </g>
</svg>