<?xml version="1.0" ?><svg height="21.48mm" viewBox="0 0 118.67 60.88" width="41.86mm" xmlns="http://www.w3.org/2000/svg">
  <title>DS3231 Precision RTC Breakout</title>
  <g data-name="Layer 8" id="Layer_8">
    <circle cx="36.85" cy="6.01" r="3.16" style="fill: none"/>
    <circle cx="107.82" cy="6.56" r="3.16" style="fill: none"/>
    <circle cx="36.85" cy="54.47" r="3.16" style="fill: none"/>
    <path d="M111.39,0H21.15a7.28,7.28,0,0,0-7.28,7.28V53.59a7.28,7.28,0,0,0,7.28,7.28h90.24a7.28,7.28,0,0,0,7.28-7.28V7.28A7.28,7.28,0,0,0,111.39,0ZM36.85,57.63A3.16,3.16,0,1,1,40,54.47,3.16,3.16,0,0,1,36.85,57.63Zm0-48.46A3.16,3.16,0,1,1,40,6,3.16,3.16,0,0,1,36.85,9.17Zm71,.55A3.16,3.16,0,1,1,111,6.56,3.16,3.16,0,0,1,107.82,9.72ZM114.52,43a1.33,1.33,0,1,1,1.33-1.33A1.33,1.33,0,0,1,114.52,43Zm0-7.2a1.33,1.33,0,1,1,1.33-1.33A1.33,1.33,0,0,1,114.52,35.83Zm0-7.2a1.33,1.33,0,1,1,1.33-1.33A1.33,1.33,0,0,1,114.52,28.63Zm0-7.2a1.33,1.33,0,1,1,1.33-1.33A1.33,1.33,0,0,1,114.52,21.43Z" style="fill: #1a2c80"/>
  </g>
  <g data-name="Layer 6" id="Layer_6">
    <circle cx="33.4" cy="16.5" r="1.02" style="fill: #0b5597"/>
    <circle cx="33.27" cy="12.62" r="1.02" style="fill: #0b5597"/>
    <circle cx="55.03" cy="34.25" r="1.02" style="fill: #0b5597"/>
    <circle cx="56.4" cy="42.59" r="1.02" style="fill: #0b5597"/>
    <circle cx="59.24" cy="56.67" r="1.02" style="fill: #0b5597"/>
    <circle cx="76.24" cy="52.34" r="1.02" style="fill: #0b5597"/>
    <circle cx="82.68" cy="53.21" r="1.02" style="fill: #0b5597"/>
    <circle cx="95.01" cy="47.03" r="1.02" style="fill: #0b5597"/>
    <circle cx="61.56" cy="38" r="1.02" style="fill: #0b5597"/>
    <circle cx="58.56" cy="34.81" r="1.02" style="fill: #0b5597"/>
    <circle cx="46.47" cy="20" r="1.02" style="fill: #0b5597"/>
    <circle cx="66.1" cy="38.31" r="1.02" style="fill: #0b5597"/>
    <path d="M72.57,37c.06-.13.39-.75.9-.78.24,0,.45.1.86.34A5.48,5.48,0,0,1,75,37v-.84h.61V37l.4,0c.77-.73,1.16-.78,1.37-.69s.33.37.78.58a1.83,1.83,0,0,0,.38.13v-.84h.63V37a1.57,1.57,0,0,0,.85-.26c.35-.24.37-.51.61-.53s.39.36.92.62a1.87,1.87,0,0,0,.58.17v-.84h.58V37H83a3.37,3.37,0,0,0,.55-.33c.36-.27.44-.44.62-.42s.25.26.57.49a1.47,1.47,0,0,0,.65.26v-.84H86V37a1.49,1.49,0,0,1,.64.26,1.46,1.46,0,0,1,.31.3v.58l-1.65,1.65-11.19,0-.38-.37-.06-1-.91-.91Z" style="fill: #0b5597"/>
    <line style="fill: none;stroke: #0b5597;stroke-miterlimit: 10" x1="20.52" x2="44.29" y1="41.81" y2="41.81"/>
    <polyline points="52.67 40.45 54.25 40.45 55.91 42.11" style="fill: none;stroke: #0b5597;stroke-miterlimit: 10;stroke-width: 0.7000000000000001px"/>
    <polyline points="56.96 43.32 58.07 44.43 60.73 44.43" style="fill: none;stroke: #0b5597;stroke-miterlimit: 10;stroke-width: 0.7000000000000001px"/>
    <polyline points="60.65 45.98 54.29 45.98 51.98 43.67 50.81 43.67" style="fill: none;stroke: #0b5597;stroke-miterlimit: 10;stroke-width: 0.7000000000000001px"/>
    <line style="fill: none;stroke: #0b5597;stroke-miterlimit: 10;stroke-width: 0.7000000000000001px" x1="60.65" x2="52.43" y1="47.23" y2="47.23"/>
    <line style="fill: none;stroke: #0b5597;stroke-miterlimit: 10;stroke-width: 0.7000000000000001px" x1="60.42" x2="53.03" y1="49.48" y2="49.48"/>
    <polyline points="52.67 51.71 54.4 51.71 58.46 55.94" style="fill: none;stroke: #0b5597;stroke-miterlimit: 10;stroke-width: 0.7000000000000001px"/>
    <polyline points="73.7 47.47 76.25 47.47 81.18 42.54 99.35 42.54 103.02 46.21 103.02 48.06" style="fill: none;stroke: #0b5597;stroke-miterlimit: 10"/>
    <polyline points="72.71 40.92 85.42 40.92 88.09 38.24 88.09 31.07 88.09 29.17" style="fill: none;stroke: #0b5597;stroke-miterlimit: 10"/>
    <polyline points="76.9 51.57 83.53 44.94 96.08 44.94 97.62 46.48 97.62 47.71" style="fill: none;stroke: #0b5597;stroke-miterlimit: 10;stroke-width: 0.7000000000000001px"/>
    <polyline points="83.33 52.61 86.44 49.5 90.85 49.5" style="fill: none;stroke: #0b5597;stroke-miterlimit: 10;stroke-width: 0.7000000000000001px"/>
    <polyline points="92.48 10.92 92.48 5.96 88.57 2.05 48.35 2.05 37.6 12.81 37.6 27.9" style="fill: none;stroke: #0b5597;stroke-miterlimit: 10"/>
    <line style="fill: none;stroke: #0b5597;stroke-miterlimit: 10;stroke-width: 2px" x1="72.14" x2="87.79" y1="6.06" y2="6.06"/>
    <polyline points="19.85 32.47 33.38 18.94 33.38 17.29" style="fill: none;stroke: #0b5597;stroke-miterlimit: 10;stroke-width: 0.7000000000000001px"/>
    <polyline points="20.1 25.22 32.16 13.16 32.58 12.74" style="fill: none;stroke: #0b5597;stroke-miterlimit: 10;stroke-width: 0.7000000000000001px"/>
    <polyline points="52.6 38.31 55.21 38.31 58.37 35.15" style="fill: none;stroke: #0b5597;stroke-miterlimit: 10;stroke-width: 0.7000000000000001px"/>
    <line style="fill: none;stroke: #0b5597;stroke-miterlimit: 10;stroke-width: 0.7000000000000001px" x1="59.3" x2="61.12" y1="34.12" y2="32.3"/>
    <polyline points="52.87 36.08 53.34 36.08 54.86 34.55" style="fill: none;stroke: #0b5597;stroke-miterlimit: 10;stroke-width: 0.7000000000000001px"/>
    <polyline points="55.91 33.58 56.85 32.64 56.85 27.93 59.87 24.91" style="fill: none;stroke: #0b5597;stroke-miterlimit: 10;stroke-width: 0.7000000000000001px"/>
    <circle cx="46.47" cy="19.83" r="0.48" style="fill: #4a5164"/>
    <line style="fill: none;stroke: #0b5597;stroke-miterlimit: 10;stroke-width: 0.7000000000000001px" x1="46.36" x2="46.36" y1="53.36" y2="18.08"/>
    <rect height="2" style="fill: #0b5597" width="5.6" x="47.75" y="32.47"/>
    <rect height="2.23" rx="0.48" ry="0.48" style="fill: #0b5597" width="8.31" x="48.08" y="25.53"/>
    <rect height="2.23" rx="0.38" ry="0.38" style="fill: #0b5597" width="8.31" x="48.27" y="18.72"/>
    <rect height="1.64" rx="0.38" ry="0.38" style="fill: #0b5597" width="8.31" x="51.17" y="12.02"/>
    <line style="fill: none;stroke: #0b5597;stroke-miterlimit: 10;stroke-width: 0.7000000000000001px" x1="48.08" x2="51.7" y1="11.73" y2="15.35"/>
    <line style="fill: none;stroke: #0b5597;stroke-miterlimit: 10;stroke-width: 0.7000000000000001px" x1="52.43" x2="51.08" y1="12.26" y2="10.91"/>
    <line style="fill: none;stroke: #0b5597;stroke-miterlimit: 10" x1="62.25" x2="64.85" y1="38.31" y2="35.71"/>
    <line style="fill: none;stroke: #0b5597;stroke-miterlimit: 10" x1="66.57" x2="67.42" y1="37.79" y2="36.94"/>
    <line style="fill: none;stroke: #0b5597;stroke-miterlimit: 10;stroke-width: 1.5px" x1="94.89" x2="94.89" y1="47.03" y2="57"/>
    <line style="fill: none;stroke: #0b5597;stroke-miterlimit: 10" x1="100.39" x2="100.39" y1="56.41" y2="46.69"/>
    <line style="fill: none;stroke: #0b5597;stroke-miterlimit: 10;stroke-width: 2px" x1="93.29" x2="105.73" y1="53.91" y2="53.91"/>
    <path d="M87.23,6.94q.08.9.13,1.86A39.19,39.19,0,0,1,87.23,14V24.42l2.44-1.29V9.72l1.26-1-.16-2.65L88.56,3.87a.7.7,0,0,0-.65,0,.69.69,0,0,0-.32.49l.52,1.14a.37.37,0,0,1,0,.21.36.36,0,0,1-.06.13l-.69-.56Z" style="fill: #0b5597"/>
    <path d="M94.48,22.35H96.1l4.13-4.13V14.58" style="fill: none;stroke: #0b5597;stroke-miterlimit: 10"/>
    <polyline points="106.54 14.97 106.54 26.83 113.16 33.45" style="fill: none;stroke: #0b5597;stroke-miterlimit: 10"/>
    <path d="M93.6,16.47h1.58V10.06H93.82V5.34L90.5,2l.66-.84h15.66V2.5A3.8,3.8,0,0,0,104.35,4a3.83,3.83,0,0,0-.62,2.77,4.27,4.27,0,0,0,.83,2,4.43,4.43,0,0,0,2,1.46l-1,.78H98.66v7l-2.59,2.59-1.15-1.15H93.45Z" style="fill: #0b5597"/>
    <path d="M101.25,15v3.76L96,24.07h-.81v1.35H90.29l-1.15,1.15v1.73h1.15a3.71,3.71,0,0,1,6.33,2.6,4.14,4.14,0,0,1-2,2.93,4,4,0,0,1-4.37-.37H89.15v5.34L87.54,40.4l.55.89H99.58l4.8,4.8v1h.8v9.13H92.29v-.39l-2.18-2.18h-.32V50.5h-3L84.29,53v.81h.9v1.31H79.37V52.83l2-2,.51-.11a.87.87,0,0,0,.53.78.89.89,0,0,0,1.07-.42L86,48.59h3.46l.44-.34v-2L89.44,46H84.08l-6,6a2.05,2.05,0,0,1-.61,1.64,2,2,0,0,1-1.5.52,1.75,1.75,0,0,1-1.73-1h-.75v2h-.87V57h.59v2.63h38.5a7,7,0,0,0,3.81-2.29,7.16,7.16,0,0,0,1.59-5.16V43.92h-4.87l-.47-.55V40l1.23-1.23V37.56L111.53,36V33.45L105,26.93V15Z" style="fill: #0b5597"/>
    <path d="M103.23,55.45a12.36,12.36,0,0,0,0,1.38" style="fill: none;stroke: #0b5597;stroke-miterlimit: 10"/>
    <path d="M73.52,48.46h3.12l.4-.08a.78.78,0,0,1,.6,1.13l-1,1a1.11,1.11,0,0,1-1,0l-.28-.55-2.18,0Z" style="fill: #0b5597"/>
    <polygon points="60.54 22.97 56.3 27.21 56.3 24.53 55.33 24.53 55.33 22.34 55.7 22.34 55.7 12.54 54.13 12.54 54.13 7.13 52.24 7.13 52.24 7.9 51.7 7.9 51.7 7.13 46.95 7.13 46.36 6.53 49.63 3.25 59.87 3.25 60.54 22.97" style="fill: #0b5597"/>
    <path d="M19,24.22,31.58,11.68,31,11.61h-.5V9.91H33.4L35.32,11l-.34.47V12.9l-.9.9v.8L35.5,16l.92-.53v-3.6L37.7,10.6v-.53a4.65,4.65,0,0,1-3.61-1.58,4.57,4.57,0,0,1-1-3.35A5.45,5.45,0,0,1,36.2,1.87v-1H20.29a8.09,8.09,0,0,0-5,5V9.83Z" style="fill: #0b5597"/>
    <path d="M14.67,51.87a7.22,7.22,0,0,0,1.64,5,7.43,7.43,0,0,0,5.86,2.46H35.51v-1a4.25,4.25,0,0,1-2.72-5.06,4.16,4.16,0,0,1,3.75-2.8,3.93,3.93,0,0,1,1,7.74v1.38H59.36v-.86l-.46-.46H56.72l.82-2.16L54.4,53a1.09,1.09,0,0,0-.78.31,1.05,1.05,0,0,0-.28.57v1.6l-8.8,0,.36-11.14-1.42-1.22H19.81Z" style="fill: #0b5597"/>
    <line style="fill: none;stroke: #0b5597;stroke-miterlimit: 10;stroke-width: 3px" x1="77.13" x2="88.07" y1="31.33" y2="31.33"/>
  </g>
  <g data-name="Layer 4" id="Layer_4">
    <g id="g525">
      <g id="copper1">
        <g id="copper0">
          <path d="M116.67,17.95h-4.29v4.29h4.29Zm-2.14,3.48a1.33,1.33,0,1,1,1.33-1.33A1.33,1.33,0,0,1,114.52,21.43Z" id="connector9pin" style="fill: #e8e5df"/>
          <path d="M114.52,29.52a2.23,2.23,0,1,0-2.23-2.23A2.23,2.23,0,0,0,114.52,29.52Zm0-3.56a1.33,1.33,0,1,1-1.33,1.33A1.33,1.33,0,0,1,114.52,26Z" id="connector8pin" style="fill: #e8e5df"/>
          <path d="M114.52,36.72a2.23,2.23,0,1,0-2.23-2.23A2.23,2.23,0,0,0,114.52,36.72Zm0-3.56a1.33,1.33,0,1,1-1.33,1.33A1.33,1.33,0,0,1,114.52,33.16Z" id="connector7pin" style="fill: #e8e5df"/>
          <path d="M114.52,43.92a2.23,2.23,0,1,0-2.23-2.23A2.23,2.23,0,0,0,114.52,43.92Zm0-3.56a1.33,1.33,0,1,1-1.33,1.33A1.33,1.33,0,0,1,114.52,40.36Z" id="connector6pin" style="fill: #e8e5df"/>
        </g>
      </g>
    </g>
  </g>
  <g data-name="Layer 5" id="Layer_5">
    <circle cx="66.24" cy="38.31" r="0.48" style="fill: #4a5164"/>
    <line style="fill: none;stroke: #fff;stroke-miterlimit: 10;stroke-width: 0.30000000000000004px" x1="95.64" x2="94.18" y1="18.81" y2="17.36"/>
    <rect height="4.96" style="fill: #efe2ce" width="4.38" x="90.29" y="10.44"/>
    <rect height="4.96" style="fill: #efe2ce" width="4.38" x="90.29" y="19.97"/>
    <rect height="1.37" style="fill: #82705f" width="6.61" x="45.82" y="35.27"/>
    <rect height="1.37" style="fill: #82705f" width="6.61" x="45.82" y="37.62"/>
    <rect height="1.37" style="fill: #82705f" width="6.61" x="45.82" y="39.77"/>
    <rect height="1.37" style="fill: #82705f" width="6.61" x="45.82" y="42.03"/>
    <polygon points="47.15 34.81 51.46 34.81 51.46 36.73 50.48 36.73 50.48 37.58 51.25 37.58 51.25 39.08 50.5 39.08 50.5 39.88 51.19 39.88 51.19 41.17 50.54 41.17 50.54 42.14 51.1 42.14 51.1 43.88 46.96 43.88 46.96 41.98 47.77 41.98 47.77 41.15 46.96 41.15 46.96 39.73 47.67 39.73 47.67 38.88 46.96 38.88 46.96 37.48 47.79 37.48 47.79 36.69 47.06 36.69 47.15 34.81" style="fill: #e0c9a5"/>
    <rect height="10.91" style="fill: #3a2c1f" width="13.81" x="60.2" y="42.59"/>
    <rect height="20.5" style="fill: #281e13" width="29.18" x="59.57" y="9.42"/>
    <path d="M60.32,9.72l27.75.06V29.41H60.25v-7.5a2.4,2.4,0,0,0,0-4.75Z" style="fill: #574c3c"/>
    <g>
      <rect height="1.44" style="fill: #5d6366" transform="translate(94.47 -28.32) rotate(90)" width="4.02" x="59.39" y="32.36"/>
      <rect height="1.71" style="fill: #969086" transform="translate(92.17 -30.62) rotate(90)" width="1.72" x="60.54" y="29.92"/>
      <rect height="1.71" style="fill: #969086" transform="translate(96.73 -26.07) rotate(90)" width="1.72" x="60.54" y="34.47"/>
    </g>
    <g>
      <rect height="1.44" style="fill: #5d6366" transform="translate(97.96 -31.81) rotate(90)" width="4.02" x="62.87" y="32.36"/>
      <rect height="1.71" style="fill: #969086" transform="translate(95.66 -34.11) rotate(90)" width="1.72" x="64.02" y="29.92"/>
      <rect height="1.71" style="fill: #969086" transform="translate(100.21 -29.55) rotate(90)" width="1.72" x="64.02" y="34.47"/>
    </g>
    <g>
      <rect height="1.44" style="fill: #5d6366" transform="translate(101.44 -35.29) rotate(90)" width="4.02" x="66.36" y="32.36"/>
      <rect height="1.71" style="fill: #969086" transform="translate(99.14 -37.59) rotate(90)" width="1.72" x="67.51" y="29.92"/>
      <rect height="1.71" style="fill: #969086" transform="translate(103.7 -33.04) rotate(90)" width="1.72" x="67.51" y="34.47"/>
    </g>
    <g>
      <rect height="1.44" style="fill: #5d6366" transform="translate(104.93 -38.78) rotate(90)" width="4.02" x="69.84" y="32.36"/>
      <rect height="1.71" style="fill: #969086" transform="translate(102.63 -41.08) rotate(90)" width="1.72" x="70.99" y="29.92"/>
      <rect height="1.71" style="fill: #969086" transform="translate(107.18 -36.52) rotate(90)" width="1.72" x="70.99" y="34.47"/>
    </g>
    <g>
      <rect height="1.44" style="fill: #5d6366" transform="translate(102.35 -21.45) rotate(90)" width="3.38" x="60.21" y="39.73"/>
      <rect height="1.71" style="fill: #969086" transform="translate(100.41 -23.38) rotate(90)" width="1.45" x="61.18" y="37.66"/>
      <rect height="1.71" style="fill: #969086" transform="translate(104.24 -19.55) rotate(90)" width="1.45" x="61.18" y="41.49"/>
    </g>
    <g>
      <rect height="1.44" style="fill: #5d6366" transform="translate(105.83 -24.93) rotate(90)" width="3.38" x="63.69" y="39.73"/>
      <rect height="1.71" style="fill: #969086" transform="translate(103.9 -26.87) rotate(90)" width="1.45" x="64.66" y="37.66"/>
      <rect height="1.71" style="fill: #969086" transform="translate(107.73 -23.04) rotate(90)" width="1.45" x="64.66" y="41.49"/>
    </g>
    <g>
      <rect height="1.44" style="fill: #5d6366" transform="translate(109.32 -28.42) rotate(90)" width="3.38" x="67.18" y="39.73"/>
      <rect height="1.71" style="fill: #969086" transform="translate(107.38 -30.35) rotate(90)" width="1.45" x="68.15" y="37.66"/>
      <rect height="1.71" style="fill: #969086" transform="translate(111.21 -26.52) rotate(90)" width="1.45" x="68.15" y="41.49"/>
    </g>
    <g>
      <rect height="1.44" style="fill: #5d6366" transform="translate(112.8 -31.9) rotate(90)" width="3.38" x="70.66" y="39.73"/>
      <rect height="1.71" style="fill: #969086" transform="translate(110.87 -33.84) rotate(90)" width="1.45" x="71.63" y="37.66"/>
      <rect height="1.71" style="fill: #969086" transform="translate(114.7 -30.01) rotate(90)" width="1.45" x="71.63" y="41.49"/>
    </g>
    <g>
      <rect height="1.44" style="fill: #5d6366" transform="translate(117.92 -5.6) rotate(90)" width="3.38" x="60.07" y="55.44"/>
      <rect height="1.71" style="fill: #969086" transform="translate(115.99 -7.54) rotate(90)" width="1.45" x="61.04" y="53.37"/>
      <rect height="1.71" style="fill: #969086" transform="translate(119.82 -3.71) rotate(90)" width="1.45" x="61.04" y="57.2"/>
    </g>
    <g>
      <rect height="1.44" style="fill: #5d6366" transform="translate(121.41 -9.09) rotate(90)" width="3.38" x="63.56" y="55.44"/>
      <rect height="1.71" style="fill: #969086" transform="translate(119.47 -11.02) rotate(90)" width="1.45" x="64.52" y="53.37"/>
      <rect height="1.71" style="fill: #969086" transform="translate(123.3 -7.19) rotate(90)" width="1.45" x="64.52" y="57.2"/>
    </g>
    <g>
      <rect height="1.44" style="fill: #5d6366" transform="translate(124.89 -12.57) rotate(90)" width="3.38" x="67.04" y="55.44"/>
      <rect height="1.71" style="fill: #969086" transform="translate(122.96 -14.51) rotate(90)" width="1.45" x="68.01" y="53.37"/>
      <rect height="1.71" style="fill: #969086" transform="translate(126.79 -10.68) rotate(90)" width="1.45" x="68.01" y="57.2"/>
    </g>
    <g>
      <rect height="1.44" style="fill: #5d6366" transform="translate(128.38 -16.06) rotate(90)" width="3.38" x="70.53" y="55.44"/>
      <rect height="1.71" style="fill: #969086" transform="translate(126.44 -17.99) rotate(90)" width="1.45" x="71.49" y="53.37"/>
      <rect height="1.71" style="fill: #969086" transform="translate(130.27 -14.16) rotate(90)" width="1.45" x="71.49" y="57.2"/>
    </g>
    <g>
      <rect height="1.44" style="fill: #5d6366" transform="translate(108.41 -42.26) rotate(90)" width="4.02" x="73.33" y="32.36"/>
      <rect height="1.71" style="fill: #969086" transform="translate(106.11 -44.56) rotate(90)" width="1.72" x="74.48" y="29.92"/>
      <rect height="1.71" style="fill: #969086" transform="translate(110.67 -40.01) rotate(90)" width="1.72" x="74.48" y="34.47"/>
    </g>
    <g>
      <rect height="1.44" style="fill: #5d6366" transform="translate(111.9 -45.75) rotate(90)" width="4.02" x="76.81" y="32.36"/>
      <rect height="1.71" style="fill: #969086" transform="translate(109.6 -48.05) rotate(90)" width="1.72" x="77.96" y="29.92"/>
      <rect height="1.71" style="fill: #969086" transform="translate(114.15 -43.49) rotate(90)" width="1.72" x="77.96" y="34.47"/>
    </g>
    <g>
      <rect height="1.44" style="fill: #5d6366" transform="translate(115.38 -49.23) rotate(90)" width="4.02" x="80.3" y="32.36"/>
      <rect height="1.71" style="fill: #969086" transform="translate(113.08 -51.53) rotate(90)" width="1.72" x="81.45" y="29.92"/>
      <rect height="1.71" style="fill: #969086" transform="translate(117.64 -46.98) rotate(90)" width="1.72" x="81.45" y="34.47"/>
    </g>
    <g>
      <rect height="1.44" style="fill: #5d6366" transform="translate(118.87 -52.72) rotate(90)" width="4.02" x="83.78" y="32.36"/>
      <rect height="1.71" style="fill: #969086" transform="translate(116.57 -55.02) rotate(90)" width="1.72" x="84.93" y="29.92"/>
      <rect height="1.71" style="fill: #969086" transform="translate(121.12 -50.46) rotate(90)" width="1.72" x="84.93" y="34.47"/>
    </g>
    <g>
      <rect height="1.44" style="fill: #5d6366" transform="translate(67.7 -55.09) rotate(90)" width="4.02" x="59.39" y="5.59"/>
      <rect height="1.71" style="fill: #969086" transform="translate(65.4 -57.39) rotate(90)" width="1.72" x="60.54" y="3.15"/>
      <rect height="1.71" style="fill: #969086" transform="translate(69.95 -52.84) rotate(90)" width="1.72" x="60.54" y="7.7"/>
    </g>
    <g>
      <rect height="1.44" style="fill: #5d6366" transform="translate(71.19 -58.58) rotate(90)" width="4.02" x="62.87" y="5.59"/>
      <rect height="1.71" style="fill: #969086" transform="translate(68.89 -60.88) rotate(90)" width="1.72" x="64.02" y="3.15"/>
      <rect height="1.71" style="fill: #969086" transform="translate(73.44 -56.33) rotate(90)" width="1.72" x="64.02" y="7.7"/>
    </g>
    <g>
      <rect height="1.44" style="fill: #5d6366" transform="translate(74.67 -62.06) rotate(90)" width="4.02" x="66.36" y="5.59"/>
      <rect height="1.71" style="fill: #969086" transform="translate(72.37 -64.36) rotate(90)" width="1.72" x="67.51" y="3.15"/>
      <rect height="1.71" style="fill: #969086" transform="translate(76.92 -59.81) rotate(90)" width="1.72" x="67.51" y="7.7"/>
    </g>
    <g>
      <rect height="1.44" style="fill: #5d6366" transform="translate(78.16 -65.55) rotate(90)" width="4.02" x="69.84" y="5.59"/>
      <rect height="1.71" style="fill: #969086" transform="translate(75.86 -67.85) rotate(90)" width="1.72" x="70.99" y="3.15"/>
      <rect height="1.71" style="fill: #969086" transform="translate(80.41 -63.3) rotate(90)" width="1.72" x="70.99" y="7.7"/>
    </g>
    <g>
      <rect height="1.44" style="fill: #5d6366" transform="translate(81.64 -69.03) rotate(90)" width="4.02" x="73.33" y="5.59"/>
      <rect height="1.71" style="fill: #969086" transform="translate(79.34 -71.33) rotate(90)" width="1.72" x="74.48" y="3.15"/>
      <rect height="1.71" style="fill: #969086" transform="translate(83.89 -66.78) rotate(90)" width="1.72" x="74.48" y="7.7"/>
    </g>
    <g>
      <rect height="1.44" style="fill: #5d6366" transform="translate(85.13 -72.52) rotate(90)" width="4.02" x="76.81" y="5.59"/>
      <rect height="1.71" style="fill: #969086" transform="translate(82.83 -74.82) rotate(90)" width="1.72" x="77.96" y="3.15"/>
      <rect height="1.71" style="fill: #969086" transform="translate(87.38 -70.27) rotate(90)" width="1.72" x="77.96" y="7.7"/>
    </g>
    <g>
      <rect height="1.44" style="fill: #5d6366" transform="translate(88.61 -76) rotate(90)" width="4.02" x="80.3" y="5.59"/>
      <rect height="1.71" style="fill: #969086" transform="translate(86.31 -78.3) rotate(90)" width="1.72" x="81.45" y="3.15"/>
      <rect height="1.71" style="fill: #969086" transform="translate(90.86 -73.75) rotate(90)" width="1.72" x="81.45" y="7.7"/>
    </g>
    <g>
      <rect height="1.44" style="fill: #5d6366" transform="translate(92.1 -79.49) rotate(90)" width="4.02" x="83.78" y="5.59"/>
      <rect height="1.71" style="fill: #969086" transform="translate(89.8 -81.79) rotate(90)" width="1.72" x="84.93" y="3.15"/>
      <rect height="1.71" style="fill: #969086" transform="translate(94.35 -77.24) rotate(90)" width="1.72" x="84.93" y="7.7"/>
    </g>
    <rect height="8.81" style="fill: #6b5c45" width="12.45" x="60.91" y="43.07"/>
    <circle cx="63.1" cy="49.94" r="0.92" style="fill: #463f33"/>
    <rect height="8.19" style="fill: #3a2c1f" width="2.08" x="48.08" y="35.21"/>
    <rect height="1.23" rx="0.29" ry="0.29" style="fill: #fffcf8" width="0.86" x="45.03" y="35.33"/>
    <rect height="1.23" rx="0.29" ry="0.29" style="fill: #fffcf8" width="0.86" x="52.17" y="35.33"/>
    <rect height="1.23" rx="0.29" ry="0.29" style="fill: #fffcf8" width="0.86" x="45.03" y="37.69"/>
    <rect height="1.23" rx="0.29" ry="0.29" style="fill: #fffcf8" width="0.86" x="52.17" y="37.69"/>
    <rect height="1.23" rx="0.29" ry="0.29" style="fill: #fffcf8" width="0.86" x="45.03" y="39.83"/>
    <rect height="1.23" rx="0.29" ry="0.29" style="fill: #fffcf8" width="0.86" x="52.17" y="39.83"/>
    <rect height="1.23" rx="0.29" ry="0.29" style="fill: #fffcf8" width="0.86" x="45.03" y="42.09"/>
    <rect height="1.23" rx="0.29" ry="0.29" style="fill: #fffcf8" width="0.86" x="52.17" y="42.09"/>
    <rect height="9.84" rx="0.26" ry="0.26" style="fill: none;stroke: #fff;stroke-miterlimit: 10;stroke-width: 0.34px" width="9.48" x="44.52" y="34.47"/>
    <rect height="1.37" style="fill: #82705f" width="6.61" x="45.82" y="46.43"/>
    <rect height="1.37" style="fill: #82705f" width="6.61" x="45.82" y="48.79"/>
    <rect height="1.37" style="fill: #82705f" width="6.61" x="45.82" y="50.93"/>
    <rect height="1.37" style="fill: #82705f" width="6.61" x="45.82" y="53.19"/>
    <polygon points="47.15 45.98 51.46 45.98 51.46 47.9 50.48 47.9 50.48 48.75 51.25 48.75 51.25 50.25 50.5 50.25 50.5 51.04 51.19 51.04 51.19 52.33 50.54 52.33 50.54 53.31 51.1 53.31 51.1 55.04 46.96 55.04 46.96 53.15 47.77 53.15 47.77 52.31 46.96 52.31 46.96 50.9 47.67 50.9 47.67 50.04 46.96 50.04 46.96 48.65 47.79 48.65 47.79 47.85 47.06 47.85 47.15 45.98" style="fill: #e0c9a5"/>
    <rect height="8.19" style="fill: #3a2c1f" width="2.08" x="48.08" y="46.37"/>
    <rect height="1.23" rx="0.29" ry="0.29" style="fill: #fffcf8" width="0.86" x="45.03" y="46.49"/>
    <rect height="1.23" rx="0.29" ry="0.29" style="fill: #fffcf8" width="0.86" x="52.17" y="46.5"/>
    <rect height="1.23" rx="0.29" ry="0.29" style="fill: #fffcf8" width="0.86" x="45.03" y="48.85"/>
    <rect height="1.23" rx="0.29" ry="0.29" style="fill: #fffcf8" width="0.86" x="52.17" y="48.86"/>
    <rect height="1.23" rx="0.29" ry="0.29" style="fill: #fffcf8" width="0.86" x="45.03" y="50.99"/>
    <rect height="1.23" rx="0.29" ry="0.29" style="fill: #fffcf8" width="0.86" x="52.17" y="51"/>
    <rect height="1.23" rx="0.29" ry="0.29" style="fill: #fffcf8" width="0.86" x="45.03" y="53.26"/>
    <rect height="1.23" rx="0.29" ry="0.29" style="fill: #fffcf8" width="0.86" x="52.17" y="53.26"/>
    <rect height="9.84" rx="0.26" ry="0.26" style="fill: none;stroke: #fff;stroke-miterlimit: 10;stroke-width: 0.34px" width="9.48" x="44.52" y="45.63"/>
    <rect height="3.19" style="fill: #cac6bb" width="11.13" x="44.39" y="21.52"/>
    <rect height="3.97" style="fill: #d0d1cd" width="7.09" x="46.12" y="21.09"/>
    <path d="M52.62,25.06H46.84s.39-.44.39-2-.39-2-.39-2h5.77a4.87,4.87,0,0,0-.43,2A5.24,5.24,0,0,0,52.62,25.06Z" style="fill: #b38f70"/>
    <rect height="3.19" style="fill: #cac6bb" width="11.13" x="44.39" y="28.36"/>
    <rect height="3.97" style="fill: #d0d1cd" width="7.09" x="46.12" y="27.93"/>
    <path d="M52.62,31.9H46.84s.39-.44.39-2-.39-2-.39-2h5.77a4.87,4.87,0,0,0-.43,2A5.24,5.24,0,0,0,52.62,31.9Z" style="fill: #b38f70"/>
    <rect height="3.19" style="fill: #cac6bb" width="9.69" x="44.6" y="8.23"/>
    <rect height="3.97" style="fill: #d0d1cd" width="6.17" x="46.11" y="7.81"/>
    <path d="M51.77,11.77h-5a3.69,3.69,0,0,0,.34-2c0-1.57-.34-2-.34-2h5a5.46,5.46,0,0,0-.38,2A5.88,5.88,0,0,0,51.77,11.77Z" style="fill: #b38f70"/>
    <rect height="3.19" style="fill: #cac6bb" width="11.13" x="44.39" y="14.89"/>
    <rect height="3.97" style="fill: #d0d1cd" width="7.09" x="46.12" y="14.46"/>
    <path d="M52.62,18.43H46.84s.39-.44.39-2-.39-2-.39-2h5.77a4.87,4.87,0,0,0-.43,2A5.24,5.24,0,0,0,52.62,18.43Z"/>
    <rect height="3.19" style="fill: #cac6bb" width="11.13" x="98" y="11.85"/>
    <rect height="3.97" style="fill: #d0d1cd" width="7.09" x="99.73" y="11.43"/>
    <path d="M106.23,15.4h-5.77s.39-.44.39-2-.39-2-.39-2h5.77a4.87,4.87,0,0,0-.43,2A5.24,5.24,0,0,0,106.23,15.4Z"/>
    <rect height="1.03" style="fill: #6bc496" width="0.9" x="49.83" y="7.9"/>
    <rect height="1.03" style="fill: #6bc496" width="0.9" x="49.83" y="10.7"/>
    <polyline points="48.9 32.77 43.83 32.77 43.83 27.08 48.75 27.08" style="fill: none;stroke: #fff;stroke-linecap: round;stroke-miterlimit: 10;stroke-width: 0.30000000000000004px"/>
    <polyline points="51.47 27.07 56.53 27.07 56.53 32.76 51.61 32.76" style="fill: none;stroke: #fff;stroke-linecap: round;stroke-miterlimit: 10;stroke-width: 0.30000000000000004px"/>
    <polyline points="48.9 25.96 43.83 25.96 43.83 20.27 48.75 20.27" style="fill: none;stroke: #fff;stroke-linecap: round;stroke-miterlimit: 10;stroke-width: 0.30000000000000004px"/>
    <polyline points="51.6 20.23 56.66 20.23 56.66 25.92 51.74 25.92" style="fill: none;stroke: #fff;stroke-linecap: round;stroke-miterlimit: 10;stroke-width: 0.30000000000000004px"/>
    <polyline points="48.9 19.35 43.83 19.35 43.83 13.66 48.75 13.66" style="fill: none;stroke: #fff;stroke-linecap: round;stroke-miterlimit: 10;stroke-width: 0.30000000000000004px"/>
    <polyline points="51.6 13.62 56.66 13.62 56.66 19.31 51.74 19.31" style="fill: none;stroke: #fff;stroke-linecap: round;stroke-miterlimit: 10;stroke-width: 0.30000000000000004px"/>
    <polyline points="48.35 12.58 43.98 12.58 43.98 6.89 48.23 6.89" style="fill: none;stroke: #fff;stroke-linecap: round;stroke-miterlimit: 10;stroke-width: 0.30000000000000004px"/>
    <polyline points="50.69 6.86 55.06 6.86 55.06 12.54 50.81 12.54" style="fill: none;stroke: #fff;stroke-linecap: round;stroke-miterlimit: 10;stroke-width: 0.30000000000000004px"/>
    <polyline points="102.46 16.28 97.4 16.28 97.4 10.59 102.32 10.59" style="fill: none;stroke: #fff;stroke-linecap: round;stroke-miterlimit: 10;stroke-width: 0.30000000000000004px"/>
    <polyline points="105.04 10.58 110.1 10.58 110.1 16.27 105.18 16.27" style="fill: none;stroke: #fff;stroke-linecap: round;stroke-miterlimit: 10;stroke-width: 0.30000000000000004px"/>
    <rect height="7.25" style="fill: #d06c3b" width="3.41" x="90.78" y="13.73"/>
    <path d="M90.89,13.81l-.25,0-.37,0A2.22,2.22,0,0,1,91,12.19a2.16,2.16,0,0,1,1.39-.5,2.21,2.21,0,0,1,1.76.68,2.15,2.15,0,0,1,.54,1.44H90.89Z" style="fill: #917650"/>
    <path d="M94.07,20.9l.25,0,.37,0a2.22,2.22,0,0,1-.75,1.62,2.16,2.16,0,0,1-1.39.5,2.21,2.21,0,0,1-1.76-.68,2.15,2.15,0,0,1-.54-1.44h3.81Z" style="fill: #917650"/>
    <rect height="16.15" rx="0.67" ry="0.67" style="fill: none;stroke: #fff;stroke-miterlimit: 10;stroke-width: 0.30000000000000004px" width="6.09" x="89.67" y="9.42"/>
    <line style="fill: none;stroke: #fff;stroke-miterlimit: 10;stroke-width: 0.30000000000000004px" x1="95.76" x2="94.18" y1="18.81" y2="18.81"/>
    <line style="fill: none;stroke: #fff;stroke-miterlimit: 10;stroke-width: 0.30000000000000004px" x1="94.18" x2="95.18" y1="16.28" y2="16.28"/>
    <rect height="5.74" style="fill: #a58968" width="5.69" x="34.7" y="27.41"/>
    <circle cx="37.54" cy="29.93" r="2.03" style="fill: #524a42"/>
    <rect height="1.57" style="fill: #f1ebdb" width="1" x="37.45" y="29.09"/>
    <circle cx="93.01" cy="30.9" r="2.97" style="fill: #9e907e"/>
    <circle cx="92.62" cy="30.78" r="1.36" style="fill: #988670"/>
    <circle cx="92.37" cy="30.9" r="0.25" style="fill: #f8f2e7"/>
    <circle cx="76.24" cy="52.34" r="0.48" style="fill: #4a5164"/>
    <circle cx="56.47" cy="42.34" r="0.48" style="fill: #4a5164"/>
    <circle cx="59.36" cy="56.38" r="0.48" style="fill: #4a5164"/>
    <circle cx="58.81" cy="34.6" r="0.48" style="fill: #4a5164"/>
    <circle cx="55.03" cy="34.12" r="0.48" style="fill: #4a5164"/>
    <circle cx="33.54" cy="16.66" r="0.48" style="fill: #4a5164"/>
    <circle cx="88.75" cy="8.07" r="0.48" style="fill: #4a5164"/>
    <circle cx="33.27" cy="12.73" r="0.48" style="fill: #4a5164"/>
    <circle cx="25.69" cy="6.5" r="0.48" style="fill: #4a5164"/>
    <circle cx="82.68" cy="53.09" r="0.48" style="fill: #4a5164"/>
    <rect height="3.25" style="fill: #f8ecda" width="2.88" x="101.79" y="47.91"/>
    <rect height="3.25" style="fill: #f8ecda" width="2.88" x="96.17" y="47.91"/>
    <rect height="3.25" style="fill: #f8ecda" width="2.88" x="90.6" y="47.91"/>
    <rect height="3.25" style="fill: #f8ecda" width="2.88" x="90.6" y="52.37"/>
    <rect height="3.25" style="fill: #f8ecda" width="2.88" x="96.17" y="52.37"/>
    <rect height="3.25" style="fill: #f8ecda" width="2.88" x="101.79" y="52.37"/>
    <rect height="1.56" style="fill: #f8ecda" width="1.47" x="102.48" y="47.53"/>
    <rect height="2" style="fill: #f8ecda" width="1.56" x="96.82" y="47.53"/>
    <rect height="1.41" style="fill: #f8ecda" width="1.75" x="90.29" y="48.72"/>
    <rect height="2.22" style="fill: #f8ecda" width="2" x="90.29" y="53.62"/>
    <rect height="0.22" style="fill: #f8ecda" width="0.81" x="97.2" y="55.62"/>
    <rect height="2.13" style="fill: #f8ecda" width="1.72" x="95.89" y="52.84"/>
    <rect height="2.13" style="fill: #f8ecda" width="0.72" x="98.64" y="52.84"/>
    <rect height="0.59" style="fill: #f8ecda" width="0.78" x="102.89" y="55.25"/>
    <rect height="2.13" style="fill: #f8ecda" width="0.88" x="101.6" y="52.84"/>
  </g>
  <g data-name="Layer 7" id="Layer_7">
    <g>
      <path d="M102.2,14h.69a.1.1,0,0,1,0,.2H102v-.65a.2.2,0,0,1,.23-.23h.56v-.48h-.69a.1.1,0,1,1,0-.2h.66a.21.21,0,0,1,.22.23v.41a.21.21,0,0,1-.22.23h-.56Z" style="fill: #fff"/>
      <path d="M103.82,12.69a.2.2,0,0,1,.2.2V14a.2.2,0,0,1-.2.2h-.59a.2.2,0,0,1-.2-.2V12.89a.2.2,0,0,1,.2-.2Zm0,1.36V12.89h-.59V14Z" style="fill: #fff"/>
      <path d="M104.83,14v-.4a.1.1,0,1,1,.2,0v.5a.09.09,0,0,1-.1.1h-.79a.1.1,0,1,1,0-.2h.29V12.89h-.29a.1.1,0,1,1,0-.2h.49V14Z" style="fill: #fff"/>
    </g>
    <g>
      <path d="M49,16.94v-.4a.1.1,0,1,1,.2,0V17a.09.09,0,0,1-.1.1h-.79a.1.1,0,0,1,0-.2h.29V15.79h-.29a.1.1,0,0,1,0-.2h.49v1.36Z" style="fill: #fff"/>
      <path d="M50,15.59a.2.2,0,0,1,.2.2v1.16a.2.2,0,0,1-.2.2h-.59a.2.2,0,0,1-.2-.2V15.79a.2.2,0,0,1,.2-.2Zm0,1.36V15.79h-.59v1.16Z" style="fill: #fff"/>
      <path d="M50.47,16.94h.69a.1.1,0,1,1,0,.2h-.89v-.65a.2.2,0,0,1,.23-.23h.56v-.48h-.69a.1.1,0,0,1,0-.2H51a.21.21,0,0,1,.22.23v.41a.21.21,0,0,1-.22.23h-.56Z" style="fill: #fff"/>
    </g>
    <g>
      <path d="M49.11,37.45h.58a.1.1,0,1,1,0,.2h-.58a.1.1,0,0,1-.2,0H48.5a.1.1,0,1,1,0-.2h.41v-.59h.95a.1.1,0,0,1,0,.2h-.75Z" style="fill: #fff"/>
      <path d="M49.76,39.12a.1.1,0,1,1,0-.2h.1a.1.1,0,0,1,.1.1v.89h-.58c-.07,0-.08,0-.13-.05L49,39.57c0-.05,0-.05-.12-.05H48.5a.1.1,0,0,1,0-.2H49a.11.11,0,0,1,.12.05l.24.28c.06.07.06.06.14.06h.28Z" style="fill: #fff"/>
      <path d="M48.6,41.36V42a.1.1,0,0,1-.2,0v-.89h.65a.2.2,0,0,1,.23.23v.56h.48v-.69a.1.1,0,0,1,.2,0v.66a.21.21,0,0,1-.23.22h-.41a.21.21,0,0,1-.23-.22v-.56Z" style="fill: #fff"/>
    </g>
    <g>
      <path d="M48.75,48.42h.58a.1.1,0,0,1,0,.2h-.58a.1.1,0,0,1-.2,0h-.41a.1.1,0,0,1,0-.2h.41v-.59h.95a.1.1,0,0,1,0,.2h-.75Z" style="fill: #fff"/>
      <path d="M49.4,50.1a.1.1,0,1,1,0-.2h.1a.1.1,0,0,1,.1.1v.89H49c-.07,0-.08,0-.13-.05l-.24-.28c0-.05,0-.06-.12-.06h-.39a.1.1,0,0,1,0-.2h.48a.11.11,0,0,1,.12.05l.24.28c.06.07.06.06.14.06h.28Z" style="fill: #fff"/>
      <path d="M48.25,52.34V53a.1.1,0,1,1-.2,0v-.89h.65a.2.2,0,0,1,.23.23v.56h.48v-.69a.1.1,0,0,1,.2,0v.66a.21.21,0,0,1-.06.16.21.21,0,0,1-.18.06H49a.21.21,0,0,1-.23-.22v-.56Z" style="fill: #fff"/>
    </g>
    <g>
      <path d="M23.23,12.21a.25.25,0,0,1,0-.5H25a.49.49,0,0,1,.5.5v1a.58.58,0,0,1-.2.49.58.58,0,0,1,.2.49v1a.49.49,0,0,1-.5.5H23.23a.25.25,0,1,1,0-.5H25v-.83c0-.28-.11-.37-.25-.37h-1a.25.25,0,0,1,0-.5h1c.14,0,.25-.08.25-.37v-.83Z" style="fill: #fff"/>
      <path d="M26.78,15.1H28.5a.25.25,0,1,1,0,.5H26.28V14a.5.5,0,0,1,.57-.57h1.41v-1.2H26.53a.25.25,0,0,1,0-.5h1.66a.52.52,0,0,1,.56.59v1a.52.52,0,0,1-.56.59H26.78Z" style="fill: #fff"/>
      <path d="M29.48,12a.25.25,0,1,1,.5,0v1.15l1.53-1.3a.33.33,0,0,1,.21-.1A.25.25,0,0,1,32,12a.3.3,0,0,1-.12.21l-1.73,1.47,1.72,1.47a.29.29,0,0,1,.13.22.25.25,0,0,1-.24.26c-.11,0-.19-.09-.27-.15L30,14.2v1.16a.25.25,0,1,1-.5,0Z" style="fill: #fff"/>
    </g>
    <g>
      <path d="M25.28,21.58a.65.65,0,0,1,.18.42.56.56,0,0,1-.63.57h-1.1a.74.74,0,0,1-.51-.16.63.63,0,0,1-.24-.47.27.27,0,0,1,.27-.3.24.24,0,0,1,.23.26c0,.15.08.17.22.17h1.09s.17,0,.17-.06-.07-.12-.09-.15l-1.72-2.21a.6.6,0,0,1-.17-.41.56.56,0,0,1,.27-.48.67.67,0,0,1,.42-.09h1.06a.71.71,0,0,1,.5.17.68.68,0,0,1,.24.48.26.26,0,0,1-.26.29.22.22,0,0,1-.24-.24c0-.17-.09-.19-.24-.19H23.65c-.06,0-.17,0-.17.07s.06.1.08.14Z" style="fill: #fff"/>
      <path d="M28,22.1l-.33.28a.62.62,0,0,1-.45.18.59.59,0,0,1-.44-.19.63.63,0,0,1-.17-.49V20.57a1,1,0,0,1,.4-.83l1-.87a.6.6,0,0,1,1.05.45v1.33a1,1,0,0,1-.4.86l-.3.26.13.3h.3a.25.25,0,0,1,.27.25c0,.21-.16.25-.33.25h-.58Zm.21-.84.11-.09a.55.55,0,0,0,.27-.56V19.37c0-.08,0-.2-.1-.2s-.1,0-.14.08l-1,.87a.51.51,0,0,0-.23.47v1.3c0,.08,0,.18.11.18a.25.25,0,0,0,.15-.08l.43-.37-.13-.33a.67.67,0,0,1-.07-.24.25.25,0,0,1,.25-.24c.2,0,.23.17.29.32Z" style="fill: #fff"/>
      <path d="M31.73,22.56c-.17,0-.27,0-.31-.22h0c0,.18-.14.22-.31.22h-.37a.27.27,0,0,1-.31-.18l-.17-.31a.35.35,0,0,1-.07-.26v-2.9a.25.25,0,1,1,.5,0v2.9l.14.24H31l.14-.24V20.24c0-.15.07-.3.25-.3s.25.14.25.3v1.58l.14.24H32l.14-.24v-2.9a.25.25,0,1,1,.5,0v2.9a.35.35,0,0,1-.07.26l-.17.31a.27.27,0,0,1-.31.18Z" style="fill: #fff"/>
    </g>
    <g>
      <path d="M25.28,28.33a.65.65,0,0,1,.18.42.56.56,0,0,1-.63.57h-1.1a.74.74,0,0,1-.51-.16.63.63,0,0,1-.24-.47.27.27,0,0,1,.27-.3.24.24,0,0,1,.23.26c0,.15.08.17.22.17h1.09s.17,0,.17-.06-.07-.12-.09-.15L23.15,26.4A.6.6,0,0,1,23,26a.56.56,0,0,1,.27-.48.67.67,0,0,1,.42-.09h1.06a.71.71,0,0,1,.5.17.68.68,0,0,1,.24.48.26.26,0,0,1-.26.29.22.22,0,0,1-.24-.24c0-.17-.09-.19-.24-.19H23.65c-.06,0-.17,0-.17.07s.06.1.08.14Z" style="fill: #fff"/>
      <path d="M27.43,29.31a.75.75,0,0,1-.75-.48l-.46-.93a1.13,1.13,0,0,1-.14-.53,1.09,1.09,0,0,1,.14-.56l.46-.93a.75.75,0,0,1,.77-.48h.85a.23.23,0,0,1,.25.25.24.24,0,0,1-.25.25h-.84c-.21,0-.25,0-.35.21l-.44.87a.77.77,0,0,0-.11.38.69.69,0,0,0,.11.35l.43.87c.1.21.15.22.38.22h.82a.23.23,0,0,1,.25.25.24.24,0,0,1-.25.25Z" style="fill: #fff"/>
      <path d="M31.9,28.81a.25.25,0,1,1,0,.5H29.68V25.67a.25.25,0,1,1,.5,0v3.14Z" style="fill: #fff"/>
    </g>
    <g>
      <path d="M25.28,35.49a.65.65,0,0,1,.18.42.56.56,0,0,1-.63.57h-1.1a.74.74,0,0,1-.51-.16.63.63,0,0,1-.24-.47.27.27,0,0,1,.27-.3.24.24,0,0,1,.23.25c0,.15.08.17.22.17h1.09s.17,0,.17-.06-.07-.12-.09-.15l-1.72-2.21a.6.6,0,0,1-.17-.41.56.56,0,0,1,.27-.48.67.67,0,0,1,.42-.09h1.06a.71.71,0,0,1,.5.17.68.68,0,0,1,.24.47.26.26,0,0,1-.26.29.22.22,0,0,1-.24-.24c0-.17-.09-.19-.24-.19H23.65c-.06,0-.17,0-.17.07s.06.11.08.14Z" style="fill: #fff"/>
      <path d="M26.37,33.07h-.19c-.17,0-.31-.06-.31-.25s.14-.25.29-.25H27a.75.75,0,0,1,.76.5l.44.88a1.18,1.18,0,0,1,.15.58,1.19,1.19,0,0,1-.15.55l-.46.91a.76.76,0,0,1-.79.47h-.83a.25.25,0,1,1,0-.5h.24Zm.5,2.89H27c.21,0,.26,0,.35-.21l.44-.89a.7.7,0,0,0,.1-.33.84.84,0,0,0-.12-.41l-.42-.85c-.1-.21-.15-.21-.38-.21h-.06Z" style="fill: #fff"/>
      <path d="M30.46,32.83c0-.14.1-.26.26-.26s.23.13.26.26l1,3.39c0,.12-.1.25-.24.25a.3.3,0,0,1-.27-.25l-.19-.6H30.18l-.19.6a.3.3,0,0,1-.27.25c-.14,0-.28-.13-.24-.25Zm.26.93h0l-.39,1.36h.79Z" style="fill: #fff"/>
    </g>
    <g>
      <path d="M25,40.85v-.8a.25.25,0,0,1,.5,0v.79a.51.51,0,0,1,0,.2l-1,2.44c0,.13-.09.22-.25.22s-.2-.09-.25-.22L23,41a.51.51,0,0,1,0-.2v-.79a.25.25,0,0,1,.5,0v.8l.74,1.91Z" style="fill: #fff"/>
      <path d="M27.33,43.7a.75.75,0,0,1-.75-.48l-.46-.93a1.12,1.12,0,0,1-.14-.53,1.09,1.09,0,0,1,.14-.56l.46-.93a.75.75,0,0,1,.77-.48h.85a.23.23,0,0,1,.25.25.24.24,0,0,1-.25.25h-.84c-.22,0-.25,0-.35.21l-.44.87a.77.77,0,0,0-.1.38.7.7,0,0,0,.1.35L27,43c.1.21.15.22.38.22h.82a.23.23,0,0,1,.25.25.24.24,0,0,1-.25.25Z" style="fill: #fff"/>
      <path d="M30.93,43.7a.75.75,0,0,1-.75-.48l-.46-.93a1.12,1.12,0,0,1-.14-.53,1.09,1.09,0,0,1,.14-.56l.46-.93A.75.75,0,0,1,31,39.8h.85a.23.23,0,0,1,.25.25.24.24,0,0,1-.25.25H31c-.21,0-.25,0-.35.21l-.44.87a.77.77,0,0,0-.11.38.69.69,0,0,0,.11.35l.43.87c.1.21.15.22.38.22h.82a.23.23,0,0,1,.25.25.24.24,0,0,1-.25.25Z" style="fill: #fff"/>
    </g>
    <g>
      <path d="M24.47,49.16a.25.25,0,0,1,0-.5h1v1a.75.75,0,0,1-.8.79h-.86a.76.76,0,0,1-.58-.2.72.72,0,0,1-.24-.62V48.37a1,1,0,0,1,.26-.73l.59-.75a.77.77,0,0,1,.7-.34h.67a.25.25,0,1,1,0,.5h-.6c-.27,0-.26,0-.42.21l-.55.7a1,1,0,0,0-.16.65v1c0,.28.06.36.35.36h.8c.18,0,.33,0,.33-.26v-.51Z" style="fill: #fff"/>
      <path d="M28.16,46.8a.25.25,0,0,1,.5,0v3.64H28l-1.31-3h0v2.75a.25.25,0,1,1-.5,0V46.54h.66l1.31,3h0Z" style="fill: #fff"/>
      <path d="M29.67,47h-.19c-.17,0-.31-.06-.31-.25s.14-.25.29-.25h.84a.75.75,0,0,1,.76.5l.44.88a1.15,1.15,0,0,1,0,1.13l-.46.91a.76.76,0,0,1-.79.47h-.83a.25.25,0,1,1,0-.5h.24Zm.5,2.89h.09c.21,0,.26,0,.35-.21l.44-.89a.7.7,0,0,0,.1-.33A.84.84,0,0,0,31,48.1l-.42-.85c-.11-.21-.15-.21-.38-.21h-.06Z" style="fill: #fff"/>
    </g>
    <g>
      <path d="M102.19,41.92a.25.25,0,0,1,0-.5h1v1a.74.74,0,0,1-.8.79h-.86a.76.76,0,0,1-.58-.2.72.72,0,0,1-.24-.62V41.13a1,1,0,0,1,.26-.73l.59-.75a.77.77,0,0,1,.7-.34h.67a.25.25,0,1,1,0,.5h-.6c-.28,0-.26,0-.42.21l-.55.7a1,1,0,0,0-.15.65v1c0,.28.06.36.34.36h.8c.18,0,.33,0,.33-.26v-.51Z" style="fill: #fff"/>
      <path d="M105.78,39.56a.25.25,0,0,1,.5,0V43.2h-.66l-1.31-3h0v2.75a.25.25,0,0,1-.5,0V39.3h.66l1.31,3h0Z" style="fill: #fff"/>
      <path d="M107.39,39.8h-.18c-.17,0-.31-.06-.31-.25s.13-.25.29-.25H108a.75.75,0,0,1,.76.5l.44.88a1.15,1.15,0,0,1,0,1.13l-.46.91a.76.76,0,0,1-.79.47h-.83a.25.25,0,0,1,0-.5h.24Zm.5,2.89H108c.21,0,.26,0,.35-.21l.44-.89a.7.7,0,0,0,.1-.33.84.84,0,0,0-.13-.41l-.42-.85c-.11-.22-.15-.21-.38-.21h-.06Z" style="fill: #fff"/>
    </g>
    <g>
      <path d="M102.67,33.27v-.8a.25.25,0,1,1,.5,0v.79a.51.51,0,0,1,0,.2l-1,2.44c0,.13-.09.22-.25.22s-.2-.1-.25-.22l-1-2.44a.51.51,0,0,1,0-.2v-.79a.25.25,0,1,1,.5,0v.8l.74,1.91Z" style="fill: #fff"/>
      <path d="M104.95,36.11a.75.75,0,0,1-.75-.48l-.46-.93a1.13,1.13,0,0,1-.14-.53,1.1,1.1,0,0,1,.14-.55l.46-.93a.75.75,0,0,1,.77-.48h.85a.23.23,0,0,1,.25.25.24.24,0,0,1-.25.25H105c-.21,0-.25,0-.35.21l-.43.87a.77.77,0,0,0-.11.38.69.69,0,0,0,.11.35l.42.87c.1.21.15.22.38.22h.82a.23.23,0,0,1,.25.25.24.24,0,0,1-.25.25Z" style="fill: #fff"/>
      <path d="M108.15,36.11a.75.75,0,0,1-.75-.48l-.46-.93a1.13,1.13,0,0,1-.13-.53,1.09,1.09,0,0,1,.14-.55l.46-.93a.75.75,0,0,1,.77-.48H109a.24.24,0,0,1,.25.25.24.24,0,0,1-.25.25h-.84c-.21,0-.25,0-.34.21l-.44.87a.77.77,0,0,0-.11.38.69.69,0,0,0,.11.35l.43.87c.1.21.15.22.38.22H109a.24.24,0,0,1,.25.25.24.24,0,0,1-.25.25Z" style="fill: #fff"/>
    </g>
    <g>
      <path d="M103,28a.65.65,0,0,1,.17.42.56.56,0,0,1-.63.57h-1.1a.74.74,0,0,1-.51-.16.63.63,0,0,1-.24-.47.27.27,0,0,1,.27-.3.24.24,0,0,1,.24.26c0,.15.08.17.22.17h1.09s.17,0,.17-.06-.07-.12-.09-.15l-1.72-2.21a.6.6,0,0,1-.17-.41.56.56,0,0,1,.27-.48.67.67,0,0,1,.42-.09h1.06a.71.71,0,0,1,.5.17.68.68,0,0,1,.24.48.26.26,0,0,1-.26.29.22.22,0,0,1-.24-.24c0-.17-.08-.19-.24-.19h-1.06c-.05,0-.17,0-.17.07s.05.1.07.14Z" style="fill: #fff"/>
      <path d="M104,25.59h-.19c-.17,0-.31-.06-.31-.25s.14-.25.29-.25h.84a.75.75,0,0,1,.76.5l.44.88a1.17,1.17,0,0,1,.15.58,1.19,1.19,0,0,1-.14.55l-.46.91a.76.76,0,0,1-.79.47h-.83a.25.25,0,1,1,0-.5H104Zm.5,2.89h.09c.21,0,.26,0,.35-.21l.44-.89a.69.69,0,0,0,.1-.33.84.84,0,0,0-.12-.41l-.42-.85c-.1-.22-.15-.21-.38-.21h-.06Z" style="fill: #fff"/>
      <path d="M107.88,25.35c0-.14.1-.26.26-.26s.22.13.26.26l1,3.39c0,.12-.1.25-.24.25a.3.3,0,0,1-.27-.25l-.19-.6H107.6l-.19.6a.3.3,0,0,1-.27.25c-.14,0-.28-.13-.24-.25Zm.26.93h0l-.39,1.36h.79Z" style="fill: #fff"/>
    </g>
    <g>
      <path d="M102.79,21.38a.65.65,0,0,1,.18.42.56.56,0,0,1-.63.57h-1.1a.74.74,0,0,1-.5-.16.63.63,0,0,1-.24-.47.27.27,0,0,1,.27-.3.24.24,0,0,1,.23.26c0,.15.08.17.22.17h1.09s.17,0,.17-.06-.07-.12-.09-.15l-1.72-2.21a.6.6,0,0,1-.17-.41.56.56,0,0,1,.27-.48.67.67,0,0,1,.42-.09h1.06a.71.71,0,0,1,.5.17.68.68,0,0,1,.24.48.26.26,0,0,1-.26.29.22.22,0,0,1-.24-.24c0-.17-.08-.19-.24-.19h-1.06c-.06,0-.17,0-.17.07s.06.1.08.14Z" style="fill: #fff"/>
      <path d="M104.94,22.36a.75.75,0,0,1-.75-.48l-.46-.93a1.13,1.13,0,0,1-.14-.53,1.09,1.09,0,0,1,.14-.56l.46-.93a.75.75,0,0,1,.77-.48h.85a.23.23,0,0,1,.25.25.24.24,0,0,1-.25.25H105c-.21,0-.25,0-.35.21l-.43.87a.77.77,0,0,0-.11.38.69.69,0,0,0,.11.35l.42.87c.1.21.15.22.38.22h.82a.23.23,0,0,1,.25.25.24.24,0,0,1-.25.25Z" style="fill: #fff"/>
      <path d="M109.31,21.86a.25.25,0,0,1,0,.5h-2.22V18.72a.25.25,0,1,1,.5,0v3.14Z" style="fill: #fff"/>
    </g>
    <g>
      <path d="M78.83,42.24,77,45.31h1.55a.25.25,0,1,1,0,.5H76.36v-.32l1.79-3.08H76.61a.25.25,0,1,1,0-.5h2.22Z" style="fill: #fff"/>
      <path d="M81.85,44.83a.65.65,0,0,1,.18.42.56.56,0,0,1-.63.57H80.3a.74.74,0,0,1-.5-.16.63.63,0,0,1-.24-.47.27.27,0,0,1,.27-.3.24.24,0,0,1,.23.25c0,.15.08.17.22.17h1.09s.17,0,.17-.06-.07-.12-.09-.15L79.72,42.9a.61.61,0,0,1-.17-.41.56.56,0,0,1,.27-.48.67.67,0,0,1,.42-.09H81.3a.71.71,0,0,1,.5.17.68.68,0,0,1,.24.47.26.26,0,0,1-.26.29.22.22,0,0,1-.24-.24c0-.17-.09-.19-.24-.19H80.23c-.06,0-.17,0-.17.07s.06.11.08.14Z" style="fill: #fff"/>
      <path d="M85,43.56c.21,0,.3.08.3.31s-.1.31-.3.31H83.81c-.21,0-.3-.08-.3-.31s.09-.31.3-.31Z" style="fill: #fff"/>
      <path d="M88.73,41.92a.5.5,0,0,1,.5.5v2.89a.49.49,0,0,1-.5.5H87.26a.49.49,0,0,1-.5-.5V42.42a.5.5,0,0,1,.5-.5Zm0,3.39V42.42H87.26v2.89Z" style="fill: #fff"/>
      <path d="M91.28,44V42.59a.25.25,0,0,1,.5,0V44a.25.25,0,0,1,0,.5v1a.25.25,0,1,1-.5,0v-1H89.81V42.17a.25.25,0,0,1,.5,0V44Z" style="fill: #fff"/>
      <path d="M93.46,45.31h1.72a.25.25,0,0,1,0,.5H93V44.18a.5.5,0,0,1,.57-.57h1.41v-1.2H93.21a.25.25,0,0,1,0-.5h1.66a.52.52,0,0,1,.56.59v1a.52.52,0,0,1-.56.59H93.46Z" style="fill: #fff"/>
    </g>
    <g>
      <path d="M90.34,56c0-.14.09-.26.25-.26s.23.13.26.26l1,3.39c0,.12-.1.25-.24.25a.3.3,0,0,1-.27-.25l-.19-.6H90.06l-.19.6a.3.3,0,0,1-.27.25c-.14,0-.28-.13-.24-.25Zm.26.93h0l-.39,1.36H91Z" style="fill: #fff"/>
      <path d="M94.93,55.79a.5.5,0,0,1,.5.5v2.89a.49.49,0,0,1-.5.5H93.46a.49.49,0,0,1-.5-.5V56.29a.5.5,0,0,1,.5-.5Zm0,3.39V56.29H93.46v2.89Z" style="fill: #fff"/>
      <path d="M97.24,56c0-.14.09-.26.25-.26s.23.13.26.26l1,3.39c0,.12-.1.25-.24.25a.3.3,0,0,1-.27-.25l-.19-.6H97l-.19.6a.3.3,0,0,1-.27.25c-.14,0-.28-.13-.24-.25Zm.26.93h0l-.39,1.36h.79Z" style="fill: #fff"/>
      <path d="M100.83,59.18v-1a.25.25,0,0,1,.5,0v1.26a.23.23,0,0,1-.25.25h-2a.25.25,0,0,1,0-.5h.74V56.29h-.74a.25.25,0,0,1,0-.5h1.24v3.39Z" style="fill: #fff"/>
      <path d="M102.64,56c0-.14.09-.26.25-.26s.23.13.26.26l1,3.39c0,.12-.1.25-.24.25a.3.3,0,0,1-.27-.25l-.19-.6h-1.07l-.19.6a.3.3,0,0,1-.27.25c-.14,0-.27-.13-.24-.25Zm.26.93h0l-.39,1.36h.79Z" style="fill: #fff"/>
      <path d="M105,59.18h1.72a.25.25,0,0,1,0,.5h-2.22V58.05a.5.5,0,0,1,.57-.57h1.41v-1.2h-1.72a.25.25,0,0,1,0-.5h1.66a.52.52,0,0,1,.56.59v1a.52.52,0,0,1-.56.59H105Z" style="fill: #fff"/>
    </g>
    <g>
      <path d="M43.72,5.37a.25.25,0,1,1-.5,0V1.73h1.66a.74.74,0,0,1,.58.21.76.76,0,0,1,.24.66v.68a.82.82,0,0,1-.21.64.77.77,0,0,1-.67.24h-1.1Zm0-1.72h1.11c.3,0,.36-.07.36-.36v-.7c0-.29-.06-.36-.36-.36H43.72Z" style="fill: #fff"/>
      <path d="M48.86,3.14a1.13,1.13,0,0,1,.13.56,1.22,1.22,0,0,1-.17.6l-.46.92a.66.66,0,0,1-1.22,0l-.46-.92a1.22,1.22,0,0,1-.17-.6,1.13,1.13,0,0,1,.13-.56l.5-1a.65.65,0,0,1,1.21,0Zm-.94-.76c0-.08-.07-.15-.17-.15s-.13.07-.17.15l-.45.91a.78.78,0,0,0-.12.41A.68.68,0,0,0,47.1,4l.48,1c0,.07.07.15.17.15s.14-.08.17-.15l.48-1a.68.68,0,0,0,.08-.33.78.78,0,0,0-.12-.41Z" style="fill: #fff"/>
      <path d="M51.67,5.62c-.17,0-.27,0-.31-.22h0c0,.18-.14.22-.31.22h-.37a.27.27,0,0,1-.31-.18l-.17-.31a.35.35,0,0,1-.07-.26V2a.25.25,0,1,1,.5,0v2.9l.14.24H51l.14-.24V3.31c0-.15.07-.3.25-.3s.25.14.25.3V4.88l.14.24H52l.14-.24V2a.25.25,0,1,1,.5,0v2.9a.35.35,0,0,1-.07.26l-.17.31a.27.27,0,0,1-.31.18Z" style="fill: #fff"/>
      <path d="M56.24,5.12a.25.25,0,1,1,0,.5H54V1.73h2.22a.23.23,0,0,1,.25.25.23.23,0,0,1-.25.25H54.52v1.2h.74a.23.23,0,0,1,.25.25.23.23,0,0,1-.25.25h-.74v1.2Z" style="fill: #fff"/>
      <path d="M57.42,5.37a.25.25,0,1,1-.5,0V1.73H58.6a.76.76,0,0,1,.79.73V2.8a.73.73,0,0,1-.79.71h-.46l1.13,1.61a.5.5,0,0,1,.13.27.24.24,0,0,1-.26.24.26.26,0,0,1-.22-.14l-1.38-2h-.12Zm0-2.36h1.11c.14,0,.36,0,.36-.21V2.45c0-.2-.21-.23-.36-.23H57.42Z" style="fill: #fff"/>
    </g>
  </g>
  <g data-name="Layer 9" id="Layer_9">
    <polygon points="20.98 43.87 19.45 45.3 15.21 45.3 13.78 43.87 13.78 39.64 15.21 38.1 19.45 38.1 20.98 39.64 20.98 43.87" style="fill: #323232"/>
    <rect height="2.27" style="fill: #b0acb0" width="17.37" x="0.01" y="40.68"/>
    <polygon points="20.98 51.06 19.45 52.49 15.21 52.49 13.78 51.06 13.78 46.84 15.21 45.3 19.45 45.3 20.98 46.84 20.98 51.06" style="fill: #323232"/>
    <rect height="2.27" style="fill: #b0acb0" width="17.37" x="0.01" y="47.88"/>
    <polygon points="20.98 36.67 19.45 38.1 15.21 38.1 13.78 36.67 13.78 32.44 15.21 30.9 19.45 30.9 20.98 32.44 20.98 36.67" style="fill: #323232"/>
    <rect height="2.27" style="fill: #b0acb0" width="17.37" x="0.01" y="33.48"/>
    <polygon points="20.98 22.27 19.45 23.7 15.21 23.7 13.78 22.27 13.78 18.04 15.21 16.5 19.45 16.5 20.98 18.04 20.98 22.27" style="fill: #323232"/>
    <rect height="2.27" style="fill: #b0acb0" width="17.37" x="0.01" y="19.08"/>
    <polygon points="20.98 29.47 19.45 30.9 15.21 30.9 13.78 29.47 13.78 25.24 15.21 23.7 19.45 23.7 20.98 25.24 20.98 29.47" style="fill: #323232"/>
    <rect height="2.27" style="fill: #b0acb0" width="17.37" x="0.01" y="26.28"/>
    <polygon points="20.98 15.07 19.45 16.5 15.21 16.5 13.78 15.07 13.78 10.84 15.21 9.3 19.45 9.3 20.98 10.84 20.98 15.07" style="fill: #323232"/>
    <rect height="2.27" style="fill: #b0acb0" width="17.37" x="0.01" y="11.88"/>
  </g>
  <g id="Connectors">
    <rect data-cir-type="male" height="1.13" id="circuitoCon_VCC" style="fill: none" width="1.13" y="41.25"/>
    <rect data-cir-type="male" height="1.13" id="circuitoCon_GND" style="fill: none" width="1.13" y="48.45"/>
    <rect data-cir-type="male" height="1.13" id="circuitoCon_SDA" style="fill: none" width="1.13" y="34.05"/>
    <rect data-cir-type="male" height="1.13" id="circuitoCon_SQW" style="fill: none" width="1.13" y="19.65"/>
    <rect data-cir-type="male" height="1.13" id="circuitoCon_SCL" style="fill: none" width="1.13" y="26.85"/>
    <rect data-cir-type="male" data-name="1" height="1.13" id="circuitoCon_32K" style="fill: none" width="1.13" y="12.45"/>
  </g>
</svg>