<?xml version="1.0" ?><svg height="17.93mm" viewBox="0 0 36.17 50.82" width="12.76mm" xmlns="http://www.w3.org/2000/svg">
  <title>WS2812B Breakout</title>
  <g data-name="Layer 2" id="Layer_2">
    <path d="M0,50.82H36.17V.07H0ZM33.7,47a1.62,1.62,0,0,1-3.23,0A1.62,1.62,0,0,1,33.7,47ZM16,47.05a1.62,1.62,0,0,1,3.23,0A1.62,1.62,0,0,1,16,47.05ZM26.57,47a1.62,1.62,0,0,1-3.23,0A1.62,1.62,0,0,1,26.57,47ZM11.83,43.44A4.83,4.83,0,1,1,7,38.61,4.83,4.83,0,0,1,11.83,43.44ZM7,12.11a4.84,4.84,0,1,1,4.83-4.84A4.84,4.84,0,0,1,7,12.11ZM19.32,3.67a1.62,1.62,0,0,1-3.23,0A1.62,1.62,0,0,1,19.32,3.67Zm14.44,0a1.62,1.62,0,0,1-3.23,0A1.62,1.62,0,0,1,33.76,3.67Zm-7.25-.06a1.62,1.62,0,0,1-3.23,0A1.62,1.62,0,0,1,26.51,3.61Z" style="fill: #cf2f27"/>
    <circle cx="33.92" cy="15.87" r="1.55" style="fill: #ddcabe"/>
    <circle cx="1.87" cy="34.03" r="1.55" style="fill: #ddcabe"/>
    <polyline points="28.88 39.09 26.51 39.06 26.53 36.16 28.91 36.18 28.88 39.09" style="fill: #c6c2ba"/>
    <rect height="2.38" style="fill: #c6c2ba" transform="translate(-13.94 61.1) rotate(-89.44)" width="2.91" x="22.42" y="36.4"/>
    <rect height="1.74" style="fill: #fffbf2" transform="matrix(0.01, -1, 1, 0.01, -13.77, 61.07)" width="2.37" x="22.76" y="36.62"/>
    <polyline points="28.64 38.91 26.75 38.89 26.78 36.33 28.66 36.35 28.64 38.91" style="fill: #fffbf2"/>
    <rect height="0.89" rx="0.25" ry="0.25" style="fill: #a3a19e" transform="translate(-10.54 64.59) rotate(-89.44)" width="1.37" x="26.65" y="37.17"/>
    <rect height="0.82" rx="0.11" ry="0.11" style="fill: #a3a19e" transform="translate(-13.46 61.39) rotate(-89.44)" width="1.27" x="23.63" y="37.08"/>
    <rect height="2.23" style="fill: #ab826c" transform="translate(-12.07 63.02) rotate(-89.44)" width="1.37" x="25.09" y="36.49"/>
  </g>
  <g data-name="Layer 4" id="Layer_4">
    <path d="M20.32,46.27s-1.14-2-2.47-1.83a3.31,3.31,0,0,0-2.58,1.38V33.51l.56-1.21,6.18.51s.42,1.16-1.29,2.56l0,1.49h.82l-.06,2.38-1,.07Z" style="fill: #8a231e"/>
    <rect height="10.13" style="fill: #8a231e" width="0.91" x="23.79" y="7.55"/>
    <path d="M25.54,17.77" style="fill: none"/>
    <path d="M30.58,36.16l.32-.68,0-2.56h.74v-.21h.54l.06-3.4h-.51v-8h.23l-.17-3.73-1,0-.12.24-.09-.1-.17-.54h.26V15.48A1,1,0,0,0,30,15a7.25,7.25,0,0,0-.8-.08l0,.44-1.3,0s0-.32-.31-.32l-.67,0a.49.49,0,0,0-.53.52c0,.57,0,1.89,0,1.89H27v.36h-1.5V12l.15-4.35H26.8l1.63-1.6,1.69,1.6,4-.08L34.77,7v6.57s-3-.2-3.23,2.32,3.06,2.47,3.06,2.47l.17,25.16L34.14,43l-3.91.09-1.68,1.58L26.92,43l-3.87,0L21.46,44.3l.06-3.84,5.73-.16.09-.69,1.32,0,.15.62.92,0s.71-.12.75-.66a7,7,0,0,0,0-.86l-.46,0V37.58l.55-.2Z" style="fill: #8a231e"/>
    <polygon points="35.64 1.86 33.84 0.25 30.21 0.25 28.36 1.9 26.59 0.32 22.88 0.32 21 2 19.09 0.3 15.67 0.3 14.04 1.75 14.04 5.9 15.67 7.35 19.09 7.35 21 5.65 22.88 7.33 26.59 7.33 28.36 5.75 30.21 7.4 33.84 7.4 35.64 5.79 35.64 1.86" style="fill: none;stroke: #eeefeb;stroke-miterlimit: 10;stroke-width: 0.5px"/>
    <polygon points="35.85 44.87 34.04 43.26 30.41 43.26 28.57 44.91 26.8 43.33 23.09 43.33 21.2 45.01 19.29 43.3 15.88 43.3 14.24 44.76 14.24 48.9 15.88 50.36 19.29 50.36 21.2 48.66 23.09 50.34 26.8 50.34 28.57 48.76 30.41 50.41 34.04 50.41 35.85 48.8 35.85 44.87" style="fill: none;stroke: #eeefeb;stroke-miterlimit: 10;stroke-width: 0.5px"/>
  </g>
  <g data-name="Layer 3" id="Layer_3">
    <rect height="15.25" style="fill: #e8e8ea" transform="translate(-1.41 49.23) rotate(-89.71)" width="15.12" x="16.47" y="17.7"/>
    <rect height="0.97" style="fill: #e8e8ea" transform="translate(0.21 62.19) rotate(-89.08)" width="3.4" x="30.01" y="30.51"/>
    <rect height="0.97" style="fill: #e8e8ea" transform="translate(13.03 51.75) rotate(-92.26)" width="3.4" x="29.69" y="19.13"/>
    <rect height="2.59" style="fill: #948b81" transform="translate(-13.81 52.63) rotate(-90.35)" width="0.84" x="18.83" y="31.88"/>
    <polygon points="17.96 34.76 17.45 32.77 18.15 32.77 21 32.75 20.55 34.74 17.96 34.76" style="fill: #948b81"/>
    <polygon points="27.64 34.8 27.13 32.71 27.82 32.7 30.68 32.69 30.23 34.78 27.64 34.8" style="fill: #948b81"/>
    <polygon points="30.07 15.68 30.59 17.85 29.89 17.86 27.04 17.88 27.49 15.69 30.07 15.68" style="fill: #948b81"/>
    <polygon points="20.4 15.87 20.91 17.91 20.21 17.92 17.36 17.93 17.81 15.88 20.4 15.87" style="fill: #948b81"/>
    <rect height="15.13" style="fill: none" transform="translate(-1.04 49.59) rotate(-90.35)" width="14.84" x="16.7" y="17.75"/>
    <rect height="0.97" style="fill: #e8e8ea" transform="matrix(0.03, -1, 1, 0.03, 10.93, 49.8)" width="3.4" x="29.53" y="18.76"/>
    <path d="M18,25.35a6.09,6.09,0,1,0,6-6.13A6.1,6.1,0,0,0,18,25.35Zm11.21-.07a5.12,5.12,0,1,1-5.15-5.09A5.11,5.11,0,0,1,29.24,25.28Z" style="fill: #d5d4d2"/>
    <circle cx="24.12" cy="25.31" r="5.12" style="fill: none" transform="translate(-5.29 6.4) rotate(-13.64)"/>
    <path d="M20.82,29.22a.52.52,0,0,1,.16-.45.6.6,0,0,1,.51-.15h.83l.26-.27V26.6l-.63-.67-.26.18-2.63-.06a5.63,5.63,0,0,0,.65,1.79A5.36,5.36,0,0,0,20.82,29.22Z" style="fill: #9b9c9f"/>
    <path d="M19,25l2.28,0,.26-.34V23.28l.09-.13a.84.84,0,0,1-.52,0,.9.9,0,0,1-.32-.24V21.43A5.25,5.25,0,0,0,19.56,23,5.41,5.41,0,0,0,19,25Z" style="fill: #9b9c9f"/>
    <path d="M27.52,29.14a.57.57,0,0,0-.13-.39.39.39,0,0,0-.2-.13H26l-.28-.28V26.63l.6-.67h2.9a5.36,5.36,0,0,1-.59,1.78A5.26,5.26,0,0,1,27.52,29.14Z" style="fill: #9b9c9f"/>
    <path d="M29.23,24.93l-2.17-.07-.25-.28V23.16a.86.86,0,0,0,.38-.09.69.69,0,0,0,.25-.2,1.55,1.55,0,0,0,0-.15,1.4,1.4,0,0,0,.05-.41c0-.23,0-.51,0-.85a5.45,5.45,0,0,1,1.26,1.69A5.34,5.34,0,0,1,29.23,24.93Z" style="fill: #9b9c9f"/>
    <path d="M22.08,20.61v1.6l4.09,0V20.62a5,5,0,0,0-2-.44A5.3,5.3,0,0,0,22.08,20.61Z" style="fill: #9b9c9f"/>
    <path d="M22.41,30.14a5.75,5.75,0,0,0,.71-.45l.36-.31,0-3.89a.8.8,0,0,0-.32-.23.93.93,0,0,0-.7,0V23.35a2.34,2.34,0,0,1,3.42,0v1.92h-.72a.89.89,0,0,0-.18.13.74.74,0,0,0-.15.2l0,3.74.33.27a5.72,5.72,0,0,0,.78.51,5.18,5.18,0,0,1-3.53,0Z" style="fill: #9b9c9f"/>
    <rect height="2.26" style="fill: #392f26;stroke: #000;stroke-miterlimit: 10;stroke-width: 0.05708067734108546px" transform="translate(0.57 47.72) rotate(-90.35)" width="2.97" x="22.51" y="22.45"/>
    <rect height="1.13" style="fill: #6a5d54" transform="translate(1.31 47.89) rotate(-90.35)" width="1.14" x="23.88" y="22.73"/>
    <circle cx="24.14" cy="26.63" r="0.6" style="fill: #c6c2ba"/>
    <rect height="0.7" style="fill: #8d5436;stroke: #000;stroke-miterlimit: 10;stroke-width: 0.05708067734108546px" transform="translate(-2.32 50.95) rotate(-90.35)" width="0.62" x="23.84" y="26.28"/>
    <circle cx="24.14" cy="26.63" r="0.18" style="fill: #d1b270"/>
    <circle cx="23.79" cy="24.33" r="0.18" style="fill: #d1b270"/>
    <circle cx="24.21" cy="24.33" r="0.18" style="fill: #d1b270"/>
    <circle cx="24.61" cy="24.33" r="0.18" style="fill: #d1b270"/>
    <circle cx="24.96" cy="24.47" r="0.17" style="fill: #d1b270"/>
    <circle cx="23.79" cy="23.24" r="0.17" style="fill: #d1b270"/>
    <circle cx="23.33" cy="23.11" r="0.17" style="fill: #d1b270"/>
    <circle cx="23.22" cy="20.94" r="0.17" style="fill: #d1b270"/>
    <circle cx="23.96" cy="22.39" r="0.17" style="fill: #d1b270"/>
    <circle cx="24.54" cy="22.45" r="0.17" style="fill: #d1b270"/>
    <circle cx="27.59" cy="23.93" r="0.17" style="fill: #d1b270"/>
    <circle cx="28.55" cy="26.29" r="0.17" style="fill: #d1b270"/>
    <circle cx="26.76" cy="27.29" r="0.17" style="fill: #d1b270"/>
    <circle cx="26.39" cy="27.74" r="0.17" style="fill: #d1b270"/>
    <circle cx="24.34" cy="29.46" r="0.17" style="fill: #d1b270"/>
    <circle cx="24.06" cy="29.09" r="0.17" style="fill: #d1b270"/>
    <circle cx="21.75" cy="27.32" r="0.17" style="fill: #d1b270"/>
    <circle cx="21.36" cy="26.9" r="0.17" style="fill: #d1b270"/>
    <circle cx="21.11" cy="24.4" r="0.17" style="fill: #d1b270"/>
    <circle cx="20.39" cy="23.09" r="0.17" style="fill: #d1b270"/>
    <rect height="0.25" style="fill: #6f676e" transform="translate(-0.09 48.06) rotate(-90.35)" width="0.1" x="23.78" y="23.95"/>
    <rect height="0.26" style="fill: #6f676e" transform="translate(0.28 48.42) rotate(-90.35)" width="0.1" x="24.15" y="23.94"/>
    <rect height="0.3" style="fill: #6f676e" transform="translate(0.68 48.82) rotate(-90.35)" width="0.1" x="24.55" y="23.92"/>
    <rect height="0.33" style="fill: #6a5d54" transform="translate(1.15 45.84) rotate(-90.35)" width="0.25" x="23.23" y="22.19"/>
    <rect height="0.27" style="fill: #6a5d54" transform="translate(0.97 46.75) rotate(-90.35)" width="0.24" x="23.59" y="22.76"/>
    <rect height="0.28" style="fill: #6a5d54" transform="translate(0.12 47.39) rotate(-90.35)" width="0.21" x="23.51" y="23.49"/>
    <polyline points="21.2 24.35 21.78 23.84 23.67 23.27" style="fill: none;stroke: #d1b270;stroke-miterlimit: 10;stroke-width: 0.05708067734108546px"/>
    <polyline points="20.44 23.09 21.96 23.02 23.33 23.14" style="fill: none;stroke: #d1b270;stroke-miterlimit: 10;stroke-width: 0.05708067734108546px"/>
    <polyline points="21.46 26.77 22.79 25.26 23.76 24.38" style="fill: none;stroke: #d1b270;stroke-miterlimit: 10;stroke-width: 0.05708067734108546px"/>
    <polyline points="24.21 26.54 24.15 25.48 24.28 24.33" style="fill: none;stroke: #d1b270;stroke-miterlimit: 10;stroke-width: 0.05708067734108546px"/>
    <path d="M24.55,24.41" style="fill: none;stroke: #d1b270;stroke-miterlimit: 10;stroke-width: 0.05708067734108546px"/>
    <polyline points="24.61 24.38 26.14 26.02 26.76 27.2" style="fill: none;stroke: #d1b270;stroke-miterlimit: 10;stroke-width: 0.05708067734108546px"/>
    <line style="fill: none;stroke: #d1b270;stroke-miterlimit: 10;stroke-width: 0.05708067734108546px" x1="24.97" x2="28.43" y1="24.55" y2="26.29"/>
    <polyline points="27.51 23.93 25.96 23.29 24.54 22.41" style="fill: none;stroke: #d1b270;stroke-miterlimit: 10;stroke-width: 0.05708067734108546px"/>
    <polyline points="23.26 21 23.48 21.31 23.57 21.15 24.02 22.39" style="fill: none;stroke: #d1b270;stroke-miterlimit: 10;stroke-width: 0.05708067734108546px"/>
    <line style="fill: none;stroke: #d1b270;stroke-miterlimit: 10;stroke-width: 0.05708067734108546px" x1="24.06" x2="21.81" y1="29.09" y2="27.32"/>
    <line style="fill: none;stroke: #d1b270;stroke-miterlimit: 10;stroke-width: 0.05708067734108546px" x1="24.47" x2="26.39" y1="29.36" y2="27.74"/>
    <g>
      <path d="M6.87,33.61H8l.17-.1v-.15L8,33.26H6a.17.17,0,0,1-.12,0,.18.18,0,0,1-.06-.13A.21.21,0,0,1,6,32.9H8.09L8.2,33l.27.16a.16.16,0,0,1,.09.15v.33a.19.19,0,0,1-.15.2.19.19,0,0,1,.15.19v.31a.2.2,0,0,1-.1.19l-.26.15a.21.21,0,0,1-.11,0H6a.14.14,0,0,1-.12-.06.16.16,0,0,1-.06-.12.14.14,0,0,1,.06-.12A.13.13,0,0,1,6,34.33H8l.16-.11v-.15L8,34H6.87a.17.17,0,0,1-.18-.17.17.17,0,0,1,.18-.18Z" style="fill: #fff"/>
      <path d="M5.78,31.7v-.92a.5.5,0,0,1,.48-.46.17.17,0,0,1,.13.05.16.16,0,0,1,.05.12c0,.06,0,.1,0,.12a.34.34,0,0,1-.15.07.13.13,0,0,0-.11.13v.87s0,.06,0,.06l.06,0L7.9,30.41a.43.43,0,0,1,.26-.09.41.41,0,0,1,.28.11.35.35,0,0,1,.12.26v.94a.43.43,0,0,1-.15.33.44.44,0,0,1-.31.14c-.13,0-.2-.06-.2-.19a.18.18,0,0,1,0-.12.21.21,0,0,1,.12-.05.13.13,0,0,0,.1,0,.14.14,0,0,0,0-.09v-.88s0-.05,0-.05a.06.06,0,0,0-.05,0L6.44,32a.42.42,0,0,1-.25.1A.4.4,0,0,1,5.9,32,.38.38,0,0,1,5.78,31.7Z" style="fill: #fff"/>
      <path d="M8.55,27.92v1.6H7.34a.34.34,0,0,1-.25-.11.33.33,0,0,1-.1-.25V28.1H6.13v1.25a.17.17,0,0,1-.17.18.17.17,0,0,1-.18-.18V28.1a.34.34,0,0,1,.11-.25.33.33,0,0,1,.24-.1H7a.34.34,0,0,1,.35.35v1.06H8.2V27.92a.17.17,0,0,1,.18-.17.15.15,0,0,1,.12.05A.17.17,0,0,1,8.55,27.92Z" style="fill: #fff"/>
      <path d="M8.2,26.94H7.34a.35.35,0,0,1-.25-.1.37.37,0,0,1-.1-.25H6a.21.21,0,0,1-.13-.05.19.19,0,0,1,0-.13V25.7A.17.17,0,0,1,6,25.53H7a.33.33,0,0,1,.1-.25.34.34,0,0,1,.25-.11H8.2a.34.34,0,0,1,.25.11.33.33,0,0,1,.1.25v1.06a.34.34,0,0,1-.11.25A.33.33,0,0,1,8.2,26.94Zm-2.07-.7H7v-.37H6.13Zm1.21.35H8.2V25.53H7.34Z" style="fill: #fff"/>
      <path d="M8.2,24.19v-.54H6.13v.53a.17.17,0,0,1-.17.17.17.17,0,0,1-.18-.17V23.3H8.2V23H7.47a.17.17,0,0,1-.17-.18.13.13,0,0,1,0-.12.17.17,0,0,1,.12,0h.91a.18.18,0,0,1,.12,0,.17.17,0,0,1,.05.12v1.42a.17.17,0,0,1-.18.17.13.13,0,0,1-.12-.05A.17.17,0,0,1,8.2,24.19Z" style="fill: #fff"/>
      <path d="M8.55,20.18v1.59H7.34A.34.34,0,0,1,7,21.42V20.36H6.13v1.25a.17.17,0,0,1-.17.18.17.17,0,0,1-.18-.18V20.36a.34.34,0,0,1,.11-.25A.34.34,0,0,1,6.13,20H7a.34.34,0,0,1,.25.11.33.33,0,0,1,.1.25v1.06H8.2V20.18a.17.17,0,0,1,.05-.12A.18.18,0,0,1,8.38,20a.16.16,0,0,1,.12.06A.17.17,0,0,1,8.55,20.18Z" style="fill: #fff"/>
      <path d="M7.7,17.42h.15a.69.69,0,0,1,.5.21.67.67,0,0,1,.21.49V19.2H5.78V18.12a.72.72,0,0,1,.71-.7h.15a.71.71,0,0,1,.53.24A.68.68,0,0,1,7.7,17.42Zm-1.07.36H6.49a.34.34,0,0,0-.25.11.34.34,0,0,0-.11.24v.72H7v-.72a.33.33,0,0,0-.1-.24A.34.34,0,0,0,6.63,17.78Zm1.22,0H7.7a.36.36,0,0,0-.25.11.33.33,0,0,0-.1.24v.71H8.2v-.71a.33.33,0,0,0-.1-.24A.34.34,0,0,0,7.85,17.78Z" style="fill: #fff"/>
      <path d="M12.82,32.91H13a.68.68,0,0,1,.49.2.67.67,0,0,1,.21.5v1.07H10.91V33.61a.67.67,0,0,1,.21-.5.68.68,0,0,1,.49-.2h.15a.68.68,0,0,1,.53.24A.71.71,0,0,1,12.82,32.91Zm-1.06.36h-.15a.35.35,0,0,0-.25.1.37.37,0,0,0-.1.25v.71h.85v-.71a.37.37,0,0,0-.1-.25A.35.35,0,0,0,11.76,33.27Zm1.22,0h-.15a.34.34,0,0,0-.35.35v.71h.85v-.71a.34.34,0,0,0-.11-.25A.31.31,0,0,0,13,33.27Z" style="fill: #fff"/>
      <path d="M13.51,32.09H11.84a.18.18,0,0,1-.12-.05.16.16,0,0,1-.06-.12.18.18,0,0,1,.06-.13.17.17,0,0,1,.12-.05h.22l-.24-.28a.56.56,0,0,1-.15-.35v-.26a.51.51,0,0,1,.15-.37.53.53,0,0,1,.37-.15h.1a.17.17,0,0,1,.18.17.17.17,0,0,1-.18.18h-.1a.15.15,0,0,0-.12.05.17.17,0,0,0-.05.12v.23a.27.27,0,0,0,.08.16l.43.5h1a.18.18,0,0,1,.12.05.17.17,0,0,1,0,.13.15.15,0,0,1,0,.12A.18.18,0,0,1,13.51,32.09Z" style="fill: #fff"/>
      <path d="M12.33,27.75h.42a.13.13,0,0,1,.12.05.14.14,0,0,1,.06.12v1.24H13a.19.19,0,0,0,.15-.08l.09-.1a.27.27,0,0,0,.06-.16v-.9a.17.17,0,0,1,.18-.17.16.16,0,0,1,.12.05.17.17,0,0,1,0,.12v.93a.46.46,0,0,1,0,.19.35.35,0,0,1-.08.15l-.14.15a.43.43,0,0,1-.16.13.49.49,0,0,1-.19.05h-.8a.45.45,0,0,1-.19-.06.42.42,0,0,1-.18-.13l-.11-.15a.47.47,0,0,1-.12-.32v-.49a.52.52,0,0,1,.15-.35l.13-.13A.46.46,0,0,1,12.33,27.75Zm0,1.41h.27V28.09h-.24a.18.18,0,0,0-.15.06l-.09.11a.26.26,0,0,0-.07.14v.44a.24.24,0,0,0,.06.15l.09.1A.17.17,0,0,0,12.3,29.16Z" style="fill: #fff"/>
      <path d="M12.42,26.41v-.69a1.37,1.37,0,0,1,0-.16h-.25a.18.18,0,0,0-.12.05.21.21,0,0,0-.05.13v.66a.17.17,0,0,1-.18.18.18.18,0,0,1-.12,0,.19.19,0,0,1-.05-.13v-.66a.5.5,0,0,1,.15-.37.52.52,0,0,1,.37-.16l1.32-.05a.16.16,0,0,1,.12.06.13.13,0,0,1,0,.12.17.17,0,0,1,0,.13.18.18,0,0,1-.12.05l.17.3v.59a.51.51,0,0,1-.53.53H13a.51.51,0,0,1-.38-.16A.51.51,0,0,1,12.42,26.41Zm.68-.88H13a.17.17,0,0,0-.17.18v.69a.17.17,0,0,0,.17.17h.2a.17.17,0,0,0,.17-.17v-.5Z" style="fill: #fff"/>
      <path d="M13.51,24.35H11.09A.21.21,0,0,1,11,24.3a.18.18,0,0,1-.05-.12.19.19,0,0,1,.05-.13.21.21,0,0,1,.13-.05h1.43l-.8-.94a.24.24,0,0,1-.05-.13.17.17,0,0,1,.05-.13.21.21,0,0,1,.13-.05.17.17,0,0,1,.12.05l.62.74.8-.91a.16.16,0,0,1,.11-.05.21.21,0,0,1,.13.05.18.18,0,0,1,0,.25l-.81.94L13,24h.53a.18.18,0,0,1,.12.05.15.15,0,0,1,0,.13.15.15,0,0,1,0,.12A.18.18,0,0,1,13.51,24.35Z" style="fill: #fff"/>
      <path d="M12.3,20H13a.6.6,0,0,1,.44.23.68.68,0,0,1,.2.46v.41a.63.63,0,0,1-.21.45.57.57,0,0,1-.43.22H12.3a.59.59,0,0,1-.43-.21.65.65,0,0,1-.21-.46v-.41a.68.68,0,0,1,.2-.46A.59.59,0,0,1,12.3,20Zm0,1.42H13a.19.19,0,0,0,.16-.07l.11-.13a.21.21,0,0,0,0-.12v-.41a.21.21,0,0,0-.07-.16l-.09-.11a.18.18,0,0,0-.14-.06h-.71a.18.18,0,0,0-.15.06l-.1.12a.2.2,0,0,0-.06.15v.36a.29.29,0,0,0,.06.19l.1.11A.18.18,0,0,0,12.32,21.42Z" style="fill: #fff"/>
      <path d="M13.33,18.36,13,17.77H11.84a.16.16,0,0,1-.12-.06.15.15,0,0,1,0-.24.15.15,0,0,1,.12,0h1.67a.16.16,0,0,1,.12,0,.17.17,0,0,1,0,.24.17.17,0,0,1-.12.06h-.14l.2.3a.72.72,0,0,1,.11.36v.17a.49.49,0,0,1-.15.36.52.52,0,0,1-.37.17l-1.32.05a.16.16,0,0,1-.12-.05.18.18,0,0,1-.05-.12.21.21,0,0,1,.05-.13.21.21,0,0,1,.12-.05l1.3,0c.12,0,.19-.07.19-.21Z" style="fill: #fff"/>
      <path d="M13.68,15.38v.35a.51.51,0,0,1-.15.37.5.5,0,0,1-.37.16H12v.18a.17.17,0,0,1,0,.12.15.15,0,0,1-.13.05.15.15,0,0,1-.12-.05.17.17,0,0,1-.05-.12v-.19h-.43a.17.17,0,0,1-.18-.17.21.21,0,0,1,.18-.18h.43v-.7a.17.17,0,0,1,.05-.12.17.17,0,0,1,.12-.06.18.18,0,0,1,.13.06.17.17,0,0,1,0,.12v.71h1.14a.17.17,0,0,0,.12-.06.17.17,0,0,0,.05-.12v-.34a.18.18,0,0,0-.15-.19A.18.18,0,0,1,13,15a.17.17,0,0,1,.05-.12.15.15,0,0,1,.13-.05.45.45,0,0,1,.31.15A.48.48,0,0,1,13.68,15.38Z" style="fill: #fff"/>
    </g>
    <g>
      <path d="M18.86,42.32v-.63h-.67v.82H17v-1a.13.13,0,0,1,0-.1.13.13,0,0,1,.09,0,.14.14,0,0,1,.14.14v.69h.67v-.55a.26.26,0,0,1,.08-.2.27.27,0,0,1,.19-.08h.67a.27.27,0,0,1,.27.28v.63a.42.42,0,0,1,0,.18l-.08.21a.14.14,0,0,1-.13.08.13.13,0,0,1-.1,0,.1.1,0,0,1,0-.09.29.29,0,0,1,0-.09l.08-.19A.14.14,0,0,0,18.86,42.32Z" style="fill: #fff"/>
      <path d="M17.11,39.42h.51L19,40c.07,0,.11.07.11.13s0,.11-.11.14l-1.41.55h-.51a.14.14,0,0,1-.13-.13.13.13,0,0,1,0-.1.11.11,0,0,1,.09,0h.45l1.06-.42-1.06-.41h-.45a.15.15,0,0,1-.09,0,.15.15,0,0,1,0-.2A.15.15,0,0,1,17.11,39.42Z" style="fill: #fff"/>
    </g>
    <g>
      <path d="M24.23,42.68v-.54a.32.32,0,0,1,.07-.2.38.38,0,0,1,.16-.15l.55-.27a.67.67,0,0,1,.31-.07.56.56,0,0,1,.3.08l.54.27a.35.35,0,0,1,.17.15.4.4,0,0,1,.06.22v.52a.1.1,0,0,1,0,.09.12.12,0,0,1-.09,0,.13.13,0,0,1-.1,0,.1.1,0,0,1,0-.09v-.15H24.51v.14a.18.18,0,0,1,0,.1.14.14,0,0,1-.24-.1Zm.28-.41h1.61v-.09A.15.15,0,0,0,26,42l-.54-.27a.51.51,0,0,0-.17-.05.33.33,0,0,0-.17,0l-.56.28a.14.14,0,0,0-.08.14Z" style="fill: #fff"/>
      <path d="M24.23,40.67v-1.1a.14.14,0,0,1,.24-.1.18.18,0,0,1,0,.1V40h1.61v-.41a.14.14,0,0,1,.14-.14.11.11,0,0,1,.09,0,.13.13,0,0,1,0,.1v1.1a.13.13,0,0,1,0,.1.11.11,0,0,1-.09,0,.14.14,0,0,1-.14-.14v-.42H24.51v.42a.18.18,0,0,1,0,.1.14.14,0,0,1-.24-.1Z" style="fill: #fff"/>
    </g>
    <g>
      <path d="M31.52,42v-.46a.18.18,0,0,1,0-.1.17.17,0,0,1,.1,0,.13.13,0,0,1,.1,0,.12.12,0,0,1,0,.09V42a.15.15,0,0,0,.06.11l.49.38a.25.25,0,0,0,.16,0h.76a.14.14,0,0,0,.14-.14v-.55a.14.14,0,0,0-.14-.14H33V42a.14.14,0,1,1-.28,0v-.55h.57a.41.41,0,0,1,.41.41v.55a.41.41,0,0,1-.41.41h-.75a.52.52,0,0,1-.35-.11l-.51-.4a.4.4,0,0,1-.1-.12A.47.47,0,0,1,31.52,42Z" style="fill: #fff"/>
      <path d="M31.66,39.43h2v.37L32,40.53h1.54a.13.13,0,0,1,.09,0,.14.14,0,0,1,0,.2.13.13,0,0,1-.09,0h-2v-.36l1.68-.74H31.66a.14.14,0,0,1-.1-.05.15.15,0,0,1,0-.09.18.18,0,0,1,0-.1A.13.13,0,0,1,31.66,39.43Z" style="fill: #fff"/>
      <path d="M31.52,38.66v-.54a.44.44,0,0,1,.07-.21.43.43,0,0,1,.16-.14l.55-.27a.68.68,0,0,1,.31-.08.67.67,0,0,1,.3.08l.54.27a.5.5,0,0,1,.17.15.43.43,0,0,1,.06.22v.52a.13.13,0,0,1,0,.1.11.11,0,0,1-.09,0,.14.14,0,0,1-.14-.14v-.14H31.8v.14a.13.13,0,0,1,0,.1.14.14,0,0,1-.24-.1Zm.28-.41h1.61v-.1a.14.14,0,0,0-.09-.13l-.54-.27a.35.35,0,0,0-.17,0,.33.33,0,0,0-.17,0l-.56.28a.14.14,0,0,0-.08.14Z" style="fill: #fff"/>
    </g>
    <g>
      <path d="M18.68,10.87v-.63H18v.82H16.79v-1a.1.1,0,0,1,0-.09.13.13,0,0,1,.1,0A.12.12,0,0,1,17,10a.13.13,0,0,1,0,.1v.69h.67v-.55A.27.27,0,0,1,18,10h.67a.25.25,0,0,1,.19.08.26.26,0,0,1,.08.19v.63a.39.39,0,0,1,0,.18l-.09.21a.13.13,0,0,1-.13.08.13.13,0,0,1-.1,0,.12.12,0,0,1,0-.09.16.16,0,0,1,0-.09l.08-.18A.19.19,0,0,0,18.68,10.87Z" style="fill: #fff"/>
      <path d="M16.93,8h.5l1.42.55a.15.15,0,0,1,.1.14.13.13,0,0,1-.1.13l-1.42.56h-.5a.18.18,0,0,1-.1,0,.14.14,0,0,1,.1-.24h.45l1.06-.41-1.06-.42h-.45a.14.14,0,0,1-.14-.14.11.11,0,0,1,0-.09A.13.13,0,0,1,16.93,8Z" style="fill: #fff"/>
    </g>
    <g>
      <path d="M24.05,11.24V10.7a.42.42,0,0,1,.06-.21.49.49,0,0,1,.17-.15l.54-.27a.67.67,0,0,1,.31-.07.62.62,0,0,1,.31.08l.54.27a.46.46,0,0,1,.16.15.36.36,0,0,1,.07.22v.52a.14.14,0,0,1-.24.1.13.13,0,0,1,0-.1V11.1H24.32v.14a.11.11,0,0,1,0,.09.13.13,0,0,1-.1,0,.14.14,0,0,1-.13-.13Zm.27-.42h1.61v-.09a.15.15,0,0,0-.09-.14l-.53-.27a.49.49,0,0,0-.18-.05.33.33,0,0,0-.17,0l-.55.28a.15.15,0,0,0-.09.14Z" style="fill: #fff"/>
      <path d="M24.25,8.35l.61-.3a.56.56,0,0,1,.54,0l.61.3a.33.33,0,0,1,.2.32.34.34,0,0,1-.06.2A.43.43,0,0,1,26,9l-.61.3a.64.64,0,0,1-.54,0L24.25,9a.34.34,0,0,1-.2-.33A.32.32,0,0,1,24.25,8.35Zm.13.41.58.29a.38.38,0,0,0,.34,0l.58-.29a.09.09,0,0,0,.05-.09.08.08,0,0,0-.05-.08L25.3,8.3a.38.38,0,0,0-.17,0,.33.33,0,0,0-.17,0l-.58.29a.08.08,0,0,0-.06.08A.1.1,0,0,0,24.38,8.76Z" style="fill: #fff"/>
    </g>
    <g>
      <path d="M31.34,12.59v-.45a.13.13,0,0,1,0-.1.11.11,0,0,1,.09,0,.12.12,0,0,1,.1,0,.13.13,0,0,1,0,.1v.43a.14.14,0,0,0,.06.11l.5.38a.21.21,0,0,0,.16,0h.76a.13.13,0,0,0,.1,0,.15.15,0,0,0,0-.09v-.56a.14.14,0,0,0-.14-.14h-.3v.29a.14.14,0,0,1-.13.13.13.13,0,0,1-.1,0,.11.11,0,0,1,0-.09V12h.57a.41.41,0,0,1,.41.41V13a.41.41,0,0,1-.41.41h-.76a.55.55,0,0,1-.34-.11l-.51-.4a.34.34,0,0,1-.1-.13A.29.29,0,0,1,31.34,12.59Z" style="fill: #fff"/>
      <path d="M31.48,10h2v.37l-1.68.74h1.54a.13.13,0,0,1,.1,0,.11.11,0,0,1,0,.09.14.14,0,0,1-.14.14h-2V11L33,10.27H31.48a.14.14,0,0,1-.1-.24A.18.18,0,0,1,31.48,10Z" style="fill: #fff"/>
      <path d="M31.34,9.23V8.69a.45.45,0,0,1,.23-.36l.54-.27A.7.7,0,0,1,32.42,8a.6.6,0,0,1,.31.08l.54.27a.4.4,0,0,1,.23.37v.52a.13.13,0,0,1,0,.1.14.14,0,0,1-.24-.1V9.09H31.61v.14a.11.11,0,0,1,0,.09.12.12,0,0,1-.1,0,.12.12,0,0,1-.09,0A.11.11,0,0,1,31.34,9.23Zm.27-.42h1.62V8.72a.15.15,0,0,0-.09-.14l-.54-.27a.49.49,0,0,0-.18-.05.35.35,0,0,0-.17,0l-.55.28a.15.15,0,0,0-.09.14Z" style="fill: #fff"/>
    </g>
  </g>
  <g id="Connectors">
    <ellipse cx="17.7" cy="46.98" data-cir-type="male" id="circuitoCon_5v_I" rx="2.05" ry="1.99" style="fill: none;stroke: #e8e5df;stroke-miterlimit: 10;stroke-width: 1.224px"/>
    <ellipse cx="24.89" cy="46.98" data-cir-type="male" id="circuitoCon_DI" rx="2.05" ry="1.99" style="fill: none;stroke: #e8e5df;stroke-miterlimit: 10;stroke-width: 1.224px"/>
    <ellipse cx="32.09" cy="46.98" data-cir-type="male" id="circuitoCon_GND_I" rx="2.05" ry="1.99" style="fill: none;stroke: #e8e5df;stroke-miterlimit: 10;stroke-width: 1.224px"/>
    <ellipse cx="17.7" cy="3.6" data-cir-type="male" id="circuitoCon_5v_O" rx="2.05" ry="1.99" style="fill: none;stroke: #e8e5df;stroke-miterlimit: 10;stroke-width: 1.224px"/>
    <ellipse cx="24.89" cy="3.6" data-cir-type="male" id="circuitoCon_DO" rx="2.05" ry="1.99" style="fill: none;stroke: #e8e5df;stroke-miterlimit: 10;stroke-width: 1.224px"/>
    <ellipse cx="32.09" cy="3.6" data-cir-type="male" id="circuitoCon_GND_O" rx="2.05" ry="1.99" style="fill: none;stroke: #e8e5df;stroke-miterlimit: 10;stroke-width: 1.224px"/>
  </g>
</svg>