<?xml version="1.0" ?><svg height="22.86mm" viewBox="0 0 293.04 64.8" width="103.38mm" xmlns="http://www.w3.org/2000/svg" xmlns:xlink="http://www.w3.org/1999/xlink">
  <defs>
    <linearGradient gradientUnits="userSpaceOnUse" id="linear-gradient" x1="230.43" x2="230.81" y1="17.28" y2="17.28">
      <stop offset="0.01" stop-color="#37363b"/>
      <stop offset="0.13" stop-color="#515256"/>
      <stop offset="0.32" stop-color="#696a6d"/>
      <stop offset="0.77" stop-color="#f1f1f2" stop-opacity="0.88"/>
      <stop offset="1"/>
    </linearGradient>
    <linearGradient id="linear-gradient-2" x1="233.38" x2="233.6" xlink:href="#linear-gradient" y1="17.28" y2="17.28"/>
    <linearGradient data-name="Silver 01" gradientUnits="userSpaceOnUse" id="Silver_01" x2="178.26" y1="18.38" y2="18.38">
      <stop offset="0" stop-color="#cbd1d6"/>
      <stop offset="0.2" stop-color="#bac0c5"/>
      <stop offset="0.43" stop-color="#aab1b5"/>
      <stop offset="0.52" stop-color="#b7bec2"/>
      <stop offset="0.84" stop-color="#e3eaed"/>
      <stop offset="1" stop-color="#f4fbfe"/>
    </linearGradient>
    <linearGradient id="Silver_01-2" x1="89.13" x2="89.13" xlink:href="#Silver_01" y1="49.29" y2="28.4"/>
    <linearGradient id="Silver_01-3" x1="162.33" x2="174.2" xlink:href="#Silver_01" y1="18.51" y2="18.51"/>
    <linearGradient id="Silver_01-4" x1="129.41" x2="141.28" xlink:href="#Silver_01" y1="18.51" y2="18.51"/>
    <linearGradient id="Silver_01-5" x1="38.65" x2="52.09" xlink:href="#Silver_01" y1="18.54" y2="18.54"/>
    <linearGradient id="Silver_01-6" x1="5.25" x2="18.69" xlink:href="#Silver_01" y1="18.38" y2="18.38"/>
    <linearGradient gradientUnits="userSpaceOnUse" id="linear-gradient-3" x1="7.32" x2="16.26" y1="20.12" y2="20.12">
      <stop offset="0" stop-color="#444"/>
      <stop offset="0.3" stop-color="#777a7c"/>
      <stop offset="0.55" stop-color="#9ca2a5"/>
      <stop offset="0.67" stop-color="#aab1b5"/>
      <stop offset="0.82" stop-color="#737779"/>
      <stop offset="0.94" stop-color="#4b4c4d"/>
      <stop offset="1" stop-color="#3c3c3c"/>
    </linearGradient>
    <linearGradient id="linear-gradient-4" x1="40.9" x2="49.84" xlink:href="#linear-gradient-3" y1="20.12" y2="20.12"/>
    <linearGradient id="linear-gradient-5" x1="131.67" x2="139.02" xlink:href="#linear-gradient-3" y1="20.1" y2="20.1"/>
    <linearGradient id="linear-gradient-6" x1="164.59" x2="171.94" xlink:href="#linear-gradient-3" y1="20.1" y2="20.1"/>
    <linearGradient id="linear-gradient-7" x1="69.06" x2="109.27" xlink:href="#linear-gradient-3" y1="39.2" y2="39.2"/>
  </defs>
  <title>SparkFun Load Cell Amplifier - HX711</title>
  <g data-name="Layer 10" id="Layer_10">
    <g data-name="BACKGROUND RED" id="BACKGROUND_RED">
      <path d="M206.94,0V64.8H293V0Zm78.68,2.19a5,5,0,1,1-5,5A5,5,0,0,1,285.62,2.19ZM210.06,23.53a1.67,1.67,0,1,1-1.67,1.67A1.67,1.67,0,0,1,210.06,23.53ZM208.4,18a1.67,1.67,0,1,1,1.67,1.67A1.67,1.67,0,0,1,208.4,18Zm1.67,12.73a1.67,1.67,0,1,1-1.67,1.67A1.67,1.67,0,0,1,210.06,30.73Zm0,7.2a1.67,1.67,0,1,1-1.67,1.67A1.67,1.67,0,0,1,210.06,37.93Zm0,7.16a1.67,1.67,0,1,1-1.67,1.67A1.67,1.67,0,0,1,210.06,45.1Zm3.8,17.38a5,5,0,1,1,5-5A5,5,0,0,1,213.87,62.48Zm0-50.28a5,5,0,1,1,5-5A5,5,0,0,1,213.87,12.2Zm71.75,50.28a5,5,0,1,1,5-5A5,5,0,0,1,285.62,62.48Zm3.65-14.05a1.67,1.67,0,1,1,1.67-1.67A1.67,1.67,0,0,1,289.26,48.43Zm0-7.16a1.67,1.67,0,1,1,1.67-1.67A1.67,1.67,0,0,1,289.26,41.27Zm0-7.2a1.67,1.67,0,1,1,1.67-1.67A1.67,1.67,0,0,1,289.26,34.07Zm0-7.2a1.67,1.67,0,1,1,1.67-1.67A1.67,1.67,0,0,1,289.26,26.87Zm0-7.2A1.67,1.67,0,1,1,290.93,18,1.67,1.67,0,0,1,289.26,19.67Z" style="fill: #8a231e"/>
    </g>
    <g data-name="RED LINDE" id="RED_LINDE">
      <path d="M232.92,16.31h2.67a1,1,0,0,0,1.23-.42h3q.72.22.48.73l0,1.38c-.51.21-1,.43-1,1-.42.28-.77.15-1.06-.31-.13-.44-.59.13-1.27,0-.59-.46-.3-.93-1-.88H233v.55h3.13v1h1.7l.92.88-.06,2.58h6.22V18.39h-1.06a.77.77,0,0,1-.6-.58V16.45c0-.41.38-.57,1-.56l29.81.06,2.75,2.75v5h-4.21l-.53-.53h-3.89l-.47.47-.58-.58h-3.62l-.48.48-1.35-1.35h-1.21l-.7-.3.45-.53h2.42l.67.67h3.86c0-.42,1.25-.42,1.25,0h1V20.66h1.5v1c0,.46,1.34.46,1.34,0V18.09a1,1,0,0,0-1.59,0h-1.34c0-.5-1.41-.5-1.41,0l-.47,0-.22-.41-3.8,0-.64.64h-7.91v1h9.3v1.38h-9.53v2.41h6.78l1.11,1.11v.67h1.42v.75H262.3v1.75c1.75,0,1.75,2.92,0,2.92a1.54,1.54,0,0,1-.87-2.95v-3l-.48-.48h-6.1v9.86h7.52L264,32.13h21.52V30.81L287.35,29l-1.89-1.89v-1H270.87l.72-1.59h6V18.31l-3-3h-32v3.84h-1.44V15.34h-8.23Z" style="fill: #cf2f27"/>
      <path d="M242.23,45.2v6.63H246v.83H221.4l-4.71-4.54.21-4.79-3.08-2.87v.83l2.54,2.38-.12,5L221,53.45h5.21c.36-.15.65-.11.8.26.06.62.36,1,1.25.75l2.84.07.78-.51.38.51h3.91c.44-.18.67-.45.44-.95,0-.35.44-.46,1.22-.34l6.66.13a.69.69,0,0,1,.75.66c0,.4.32.56.86.51h3.08l.53-.53.61.54h3.63c.44,0,.74-.31.75-1.1V50.57c0-.37-.15-.63-.72-.64-.38.05-.56-.17-.55-.66V45.76h-.94v5.42h-.75V45.95Z" style="fill: #cf2f27"/>
      <polygon points="291.69 22.05 291.69 23.99 285.6 23.99 285.6 24.58 291.69 24.62 292.61 24.62 292.61 22.05 291.69 22.05" style="fill: none"/>
      <circle cx="213.81" cy="7.15" r="5.02" style="fill: none"/>
      <circle cx="285.61" cy="7.15" r="5.02" style="fill: none"/>
      <path d="M279.81,24l0-6.56-4.21-4.08-.52-.25h-10.5c-.47,0-.87-.06-.83-.79v-.83c0-.36.17-.59.73-.58h1.85l.08-1.6h8.83l0,1.25c.05.29.29.39.65.38h.4c.54-.06.78-.39.73-1l0-1.9h-.81V6.64h.79V4.76c.09-.63-.41-.9-1.4-.87l-.27.71-9,.08-.54-1.19h-.5l0,.38H263.9c-.5-.05-.85.09-.77.83v.79c-.16.48-.67.55-1.37.4-.25-.52-.55-.9-1.06-.69h-2.75a.65.65,0,0,0-.87.33h-.45V5.21h-3.42c-.49-.06-.87,0-.87.73l0,.59h.84V8.1l-.8,0V8.7c0,.46.23.75.84.77l.66,0,0-.56h1.22l0,.45c.59.14,1.19.28,1.38-.11s.63-.16.91.34h2.67a.75.75,0,0,1,.91.77l0,2.09c-.12.49-.53.72-1.33.61h-23l-.33-.46H233l-2.7,2.76h-3.06a.63.63,0,0,0-.56.39v2.91l.69.69c.29.13.42.31.33.58v1.84c.31.48.44.93,0,1.27l-.75.75-4.61-4.61c-.58.08-.76.39-.27,1.08l4.31,4.19h1.22l.5.8,0,.82h-2.34l-5.47-5.53-.06-1.62-6.41,0v.69l5.72.06,0,.91a1,1,0,0,0,.55,1l5.43,5.37H227a1,1,0,0,0,.69.92c.33.12.44.32-.35.85l-.33.29,0,3.65c0,.49.52.58,1.33.44.51.58.43.88-.29.9-.53-.11-.95,0-1,.58l0,.73h1.17l0,1.58h-1.12v.78a.71.71,0,0,0,.85.63h.73l0-1.17h1.49l.09,1.17a.92.92,0,0,0,1.22-.44c.43-.06.75,0,.78.51h3.84c1.08,0,1.08.93,0,.93h-3.28c-.49,0-.8.09-.84.42h-.62l-.06-.36-.87,0v1.16h-1.59V39.6c0-.64-1.72-.64-1.72,0l0,1h1.19v1.56h-1v1c0,.54,1.5.54,1.5,0l0-.81h1.69l-.06,1.22a2.1,2.1,0,0,0,1.34-.25c.42-.1.72,0,.78.41h3.78c.88,0,.88.84,0,.84h-3.72l-.81.44-.37-.44H227.8c-.41-.07-.68.25-.84.88h-2.09l-2.56-2.66-.06-7.31-4.44-4.34-4-.06v.78h3.72s4.09,3.94,4,4,0,7.3,0,7.3l3.07,3.07h3.82v1H224.4s-3.77-3.67-3.77-3.77V36.37L217,32.77h-3.2v1.39l-1.65,1.65L214,37.6l0,1.77,4,3.67-.08,5.13,3.79,3.67h19.79l0-7.33h4.13l-.08-3-5.75.2-1.67,1.72v2.54l-1.37,1.38h-1.5V46.12l1,.33,1.25-1.25V42.7l1.79-1.79h5.5V38h-5.29l-1.29,1.25v1l-1.58,1.58h-1.12v-1h.79l1.25-1.25v-.75l1.6-1.6h5.65V30.53l-4.62.5H238.9l-.67.67v3.71l-.9.9h-1.81l.42-.85,1,.17.63-.5V33.49h-7.71l-.92-.92V31.49h.88v.67l.63.63h6.83V31.53l1.44-1.44h6.06V27.25l-6.17.53-1.08,1-4-.21.13-2.37L235,27v.3h2.25l.65-.77c.09-.25.47-.36,1.11-.33h6.16L245,23.71l-5.77.08c-.78.06-1.34-.1-1.3-.91l0-2.08c0-.36-.27-.57-.8-.53l-2.07,0-4.42-.19V17.33h-2.17l.33.92.21,2.54c-.07.84.43,1.2,1.29,1.25l3.42,0,1.13,1.07-1,.26-.5-.71h-4.21l-.87-1.21,0-3.49V15.95h2.92l5.08-2.37H261.4L261.52,8V6.53l1.79.13,0,.33.75-.12V8H263v5.67h11.5a2,2,0,0,1,1.46.83l3.21,3.15v6.67l0,.26,6.41,0V24Z" style="fill: #cf2f27"/>
      <path d="M292.8.27H206.9V15.84l1.59-1.37,3.62,0,1.75,1.78,0,.94,4.84,0L224.4,12H228l1.78-1.87.06-2.62,1.41.09.25,3.09-3,2.63-3.25.09-2.91,2.91,1-.06,2-2h3.28l3.16-3a.77.77,0,0,0,.31-.78l0-.73.71-.74c.37-.24.69-.16,1,.36l0,1.19a.73.73,0,0,0,.84.39l1.78-.08V3.74h-1.71c-.55-.19-.88.07-1,.67V5.47l-.46.35-.69-.67L228.81,5l-.46.38-.4.1,0,1.54-3.17-.25.1-1.65c-.85,0-1.41.13-1.33,1.27l1,0,0,1.63-1,.06c-.24,1,.2,1.56,1.6,1.4l0-1.17.33,0,.06.5h1.08v.63h1.13c.22-.39.51-.44.92,0,.3.27.4.59-.15,1.13l-.46.48c-.27.38-1,.29-1.87.13a4.26,4.26,0,0,0-2.06.14c-.56.31-.92.27-1-.29,0-1.4-.59-2.27-2.31-2.21-.56-.08-.93-.27-.71-.85,0-2.38-.52-4.45-2.6-5.77-.56-.31-.46-1.1.46-1h63c1.33,0,1.64.41.71,1.27-1.91,1.75-3.34,3.73-2.35,6.85,1.49,3.24,4,5,8.42,4.06a8.57,8.57,0,0,0,3.08-2c.54-.81.82-.69.79.58v10.1h.92v2.56h.19Zm-74,6.88a5,5,0,1,1-5-5A5,5,0,0,1,218.83,7.15Zm66.78,5a5,5,0,1,1,5-5A5,5,0,0,1,285.61,12.17Z" style="fill: #cf2f27"/>
      <circle cx="213.81" cy="57.49" r="5.02" style="fill: none"/>
      <circle cx="285.61" cy="57.49" r="5.02" style="fill: none"/>
      <path d="M287.15,36.16c0-.38-.42-.43-1-1.12-.11-.15-1-1.26-.58-2a.74.74,0,0,1,.09-.1H264.52l-1.87,1.88h-8.44l.27,5.94,10.71.17a2.64,2.64,0,0,1,.42-3.36c1.39-1.25,2.83-1.17,4.31,0a3,3,0,0,1-.5,4.34,3.12,3.12,0,0,1-3.55-.05H254.71v2.63H265.4c.57.13.81-.08.94-.41a3.36,3.36,0,0,1,4.16,1.5c.39,2.65-.53,4.11-3.09,4.06-1.94-.47-2.72-1.63-2.44-3.41.28-.78.16-.92-.16-.75l-10.31-.16,0,1.31,5.25,0,.36-.47,3.32,0c.64,0,1,.25.78,1.06a3.52,3.52,0,0,0,2.75,3,3.39,3.39,0,0,0,4-2.56,3.52,3.52,0,0,0-1.78-4c-.65-.44-.47-.77.18-1,1.9-.93,2.12-2.85,1.46-4.58-.35-.65-.27-1.06.88-.87h13.54l.54.54.27-.48-.73-.73H264.15l-1.71,1.88-8-.08v-1l4.13.22h3.62L264,35.78h21.87l1,.82A.62.62,0,0,0,287.15,36.16Z" style="fill: #cf2f27"/>
      <path d="M292.56,32.93V39.6l-.08,2L291,43.1l1.65,1.65-.17,4.1-.67.58,0,.41.06,3.28c0,1.65-.55,1.31-1.31.34-1.17-1.65-3.07-2.4-5.56-2.44a6.76,6.76,0,0,0-3.56,1.72c-.35.34-.69.52-.94.09a2.21,2.21,0,0,0-1.72-1.16c-1.85,0-2.53.89-2.56,2.38s1,2.1,2.41,2.09c.73.12.92.54.56,1.25a5.73,5.73,0,0,0,2.72,5.13c.69.81.5,1.14-.37,1.09l-63.22,0c-1.51-.14-1.24-.67,0-1.41,2.89-3.28,2.59-7.19-.31-9.56a6.78,6.78,0,0,0-9.2,1.08c-.76.81-1.12.82-.7-.7V49.95l-1.1-1.1V64.43H292.8V32.93ZM208.8,57.49a5,5,0,1,1,5,5A5,5,0,0,1,208.8,57.49Zm76.81,5a5,5,0,1,1,5-5A5,5,0,0,1,285.61,62.5Z" style="fill: #cf2f27"/>
    </g>
    <g data-name="WHITE LINES" id="WHITE_LINES">
      <g data-name="&lt;Group&gt;" id="_Group_">
        <polygon data-name="&lt;Path&gt;" id="_Path_" points="208.26 14.37 206.81 16 206.81 19.42 208.51 21.33 206.83 23.22 206.83 26.93 208.41 28.69 206.76 30.54 206.76 34.17 208.37 35.98 206.84 37.69 206.84 41.29 208.42 43.07 206.69 45.01 206.69 48.37 208.4 50.3 212.27 50.3 213.98 48.37 213.98 45.01 212.25 43.07 213.83 41.29 213.83 37.69 212.3 35.98 213.91 34.17 213.91 30.54 212.26 28.69 213.84 26.93 213.84 23.22 212.16 21.33 213.86 19.42 213.86 16 212.41 14.37 208.26 14.37" style="fill: none;stroke: #eeefeb;stroke-miterlimit: 10;stroke-width: 0.5px"/>
      </g>
      <g data-name="&lt;Group&gt;" id="_Group_2">
        <polygon data-name="&lt;Path&gt;" id="_Path_2" points="287.03 14.63 285.58 16.26 285.58 19.68 287.28 21.59 285.6 23.47 285.6 27.18 287.18 28.95 285.53 30.8 285.53 34.42 287.14 36.23 285.61 37.95 285.61 41.54 287.19 43.32 285.46 45.27 285.46 48.63 287.17 50.55 291.04 50.55 292.75 48.63 292.75 45.27 291.02 43.32 292.6 41.54 292.6 37.95 291.07 36.23 292.68 34.42 292.68 30.8 291.03 28.95 292.61 27.18 292.61 23.47 290.93 21.59 292.63 19.68 292.63 16.26 291.18 14.63 287.03 14.63" style="fill: none;stroke: #eeefeb;stroke-miterlimit: 10;stroke-width: 0.5px"/>
      </g>
    </g>
    <g data-name="WHIET ELIPSE" id="WHIET_ELIPSE">
      <circle cx="221.01" cy="10.76" r="1.58" style="fill: #fff"/>
      <circle cx="278.52" cy="54.04" r="1.58" style="fill: #fff"/>
      <circle cx="249.84" cy="3.64" r="0.9" style="fill: #fff"/>
      <circle cx="274.94" cy="21.58" r="0.9" style="fill: #fff"/>
      <circle cx="262.02" cy="28.83" r="0.9" style="fill: #fff"/>
    </g>
    <g id="CONNECTORS">
      <polygon points="243.9 19.36 243.9 18.92 240.28 18.92 240.28 20.39 243.9 20.39 243.9 19.89 244.75 19.89 244.75 19.36 243.9 19.36" style="fill: #c7c6c5"/>
      <polygon points="243.9 23.04 243.9 22.6 240.28 22.6 240.28 24.07 243.9 24.07 243.9 23.57 244.75 23.57 244.75 23.04 243.9 23.04" style="fill: #c7c6c5"/>
      <polygon points="243.9 26.67 243.9 26.23 240.28 26.23 240.28 27.7 243.9 27.7 243.9 27.2 244.75 27.2 244.75 26.67 243.9 26.67" style="fill: #c7c6c5"/>
      <polygon points="243.9 30.24 243.9 29.8 240.28 29.8 240.28 31.27 243.9 31.27 243.9 30.77 244.75 30.77 244.75 30.24 243.9 30.24" style="fill: #c7c6c5"/>
      <polygon points="243.9 33.82 243.9 33.38 240.28 33.38 240.28 34.85 243.9 34.85 243.9 34.35 244.75 34.35 244.75 33.82 243.9 33.82" style="fill: #c7c6c5"/>
      <polygon points="243.9 37.4 243.9 36.96 240.28 36.96 240.28 38.43 243.9 38.43 243.9 37.93 244.75 37.93 244.75 37.4 243.9 37.4" style="fill: #c7c6c5"/>
      <polygon points="243.9 40.98 243.9 40.55 240.28 40.55 240.28 42.01 243.9 42.01 243.9 41.51 244.75 41.51 244.75 40.98 243.9 40.98" style="fill: #c7c6c5"/>
      <polygon points="243.9 44.57 243.9 44.13 240.28 44.13 240.28 45.6 243.9 45.6 243.9 45.1 244.75 45.1 244.75 44.57 243.9 44.57" style="fill: #c7c6c5"/>
      <polygon points="256.25 45.16 256.25 45.6 259.87 45.6 259.87 44.13 256.25 44.13 256.25 44.63 255.4 44.63 255.4 45.16 256.25 45.16" style="fill: #c7c6c5"/>
      <polygon points="256.25 41.48 256.25 41.91 259.87 41.91 259.87 40.45 256.25 40.45 256.25 40.95 255.4 40.95 255.4 41.48 256.25 41.48" style="fill: #c7c6c5"/>
      <polygon points="256.25 37.85 256.25 38.29 259.87 38.29 259.87 36.82 256.25 36.82 256.25 37.32 255.4 37.32 255.4 37.85 256.25 37.85" style="fill: #c7c6c5"/>
      <polygon points="256.25 34.27 256.25 34.71 259.87 34.71 259.87 33.24 256.25 33.24 256.25 33.74 255.4 33.74 255.4 34.27 256.25 34.27" style="fill: #c7c6c5"/>
      <polygon points="256.25 30.7 256.25 31.14 259.87 31.14 259.87 29.67 256.25 29.67 256.25 30.17 255.4 30.17 255.4 30.7 256.25 30.7" style="fill: #c7c6c5"/>
      <polygon points="256.25 27.11 256.25 27.55 259.87 27.55 259.87 26.09 256.25 26.09 256.25 26.59 255.4 26.59 255.4 27.11 256.25 27.11" style="fill: #c7c6c5"/>
      <polygon points="256.25 23.53 256.25 23.97 259.87 23.97 259.87 22.5 256.25 22.5 256.25 23 255.4 23 255.4 23.53 256.25 23.53" style="fill: #c7c6c5"/>
      <polygon points="256.25 19.95 256.25 20.39 259.87 20.39 259.87 18.92 256.25 18.92 256.25 19.42 255.4 19.42 255.4 19.95 256.25 19.95" style="fill: #c7c6c5"/>
      <rect height="29.42" rx="1.49" ry="1.49" style="fill: #c7b6b3" width="11.65" x="244.19" y="17.66"/>
      <g>
        <rect height="27.86" style="fill: #343338" width="1.34" x="244.34" y="18.36"/>
        <rect height="27.86" style="fill: #343338" width="9.17" x="245.69" y="18.36"/>
        <rect height="27.86" style="fill: #343338" width="0.78" x="254.86" y="18.36"/>
      </g>
      <g>
        <rect height="7.68" style="fill: url(#linear-gradient)" width="0.38" x="230.43" y="13.44"/>
        <rect height="7.68" style="fill: #343438" width="2.58" x="230.81" y="13.44"/>
        <rect height="7.68" style="fill: url(#linear-gradient-2)" width="0.22" x="233.38" y="13.44"/>
      </g>
      <rect height="4.26" rx="0.92" ry="0.92" style="fill: #413e41" transform="translate(206.67 256.97) rotate(-90)" width="2.53" x="230.56" y="23.02"/>
      <rect height="2.09" rx="0.42" ry="0.42" style="fill: #e7e6e8" transform="translate(245.56 295.76) rotate(-90)" width="3.09" x="269.12" y="24.05"/>
      <rect height="2.55" rx="0.73" ry="0.73" style="fill: #e7e6e8" transform="translate(239.8 290) rotate(-90)" width="3.04" x="263.38" y="23.83"/>
      <rect height="4.26" rx="0.92" ry="0.92" style="fill: #e7e6e8" transform="translate(242.74 292.94) rotate(-90)" width="2.53" x="266.57" y="22.97"/>
      <rect height="2.16" style="fill: #2a292d" width="3.25" x="266.21" y="24.07"/>
      <g>
        <path d="M267.76,24.91a.3.3,0,0,1,0,.12.31.31,0,0,1,0,.13l-.08.2a.11.11,0,0,1-.22,0l-.08-.2a.31.31,0,0,1,0-.13.3.3,0,0,1,0-.12l.09-.22a.11.11,0,0,1,.22,0Zm-.17-.17s0,0,0,0,0,0,0,0l-.08.2a.2.2,0,0,0,0,.09.18.18,0,0,0,0,.07l.09.21s0,0,0,0,0,0,0,0l.09-.21a.18.18,0,0,0,0-.07.19.19,0,0,0,0-.09Z" style="fill: #fbfcfe"/>
        <path d="M268,24.66s0-.05,0-.05,0,0,0,.05v.25l.28-.29,0,0s0,0,0,.06a.07.07,0,0,1,0,0l-.31.32.31.32a.07.07,0,0,1,0,0s0,.06,0,.06,0,0,0,0l-.26-.28v.25s0,.05,0,.05,0,0,0-.05Z" style="fill: #fbfcfe"/>
      </g>
      <rect height="2.09" rx="0.42" ry="0.42" style="fill: #e7e6e8" transform="translate(198.65 270.64) rotate(-90)" width="3.09" x="233.11" y="34.95"/>
      <rect height="2.55" rx="0.73" ry="0.73" style="fill: #e7e6e8" transform="translate(192.89 264.88) rotate(-90)" width="3.04" x="227.37" y="34.72"/>
      <rect height="4.26" rx="0.92" ry="0.92" style="fill: #e7e6e8" transform="translate(195.83 267.82) rotate(-90)" width="2.53" x="230.56" y="33.87"/>
      <rect height="2.16" style="fill: #2a292d" width="3.25" x="230.2" y="34.96"/>
      <g>
        <path d="M231.45,35.71a.23.23,0,0,1-.11.19.25.25,0,0,1,.14.24.22.22,0,1,1-.44,0,.25.25,0,0,1,.14-.24.24.24,0,0,1-.11-.19.19.19,0,0,1,.39,0Zm-.07.42c0-.09-.06-.13-.13-.17s-.13.08-.13.17a.13.13,0,1,0,.25,0Zm-.23-.41a.16.16,0,0,0,.1.13s.1-.06.1-.12-.06-.08-.1-.08S231.15,35.66,231.15,35.72Z" style="fill: #fbfcfe"/>
        <path d="M232.08,36.25v.1h-.39v-.06a.39.39,0,0,1,.18-.36s.12-.09.12-.17a.12.12,0,0,0-.1-.12.32.32,0,0,0-.19.09V35.6a.27.27,0,0,1,.18-.07.2.2,0,0,1,.21.22c0,.15-.09.2-.17.27a.28.28,0,0,0-.13.2v0Z" style="fill: #fbfcfe"/>
        <path d="M232.73,36.25v.1h-.39v-.06a.39.39,0,0,1,.18-.36s.12-.09.12-.17a.12.12,0,0,0-.1-.12.32.32,0,0,0-.19.09V35.6a.27.27,0,0,1,.18-.07.2.2,0,0,1,.21.22c0,.15-.09.2-.17.27a.28.28,0,0,0-.13.2v0Z" style="fill: #fbfcfe"/>
      </g>
      <rect height="2.09" rx="0.42" ry="0.42" style="fill: #e7e6e8" transform="translate(187.85 281.45) rotate(-90)" width="3.09" x="233.11" y="45.75"/>
      <rect height="2.55" rx="0.73" ry="0.73" style="fill: #e7e6e8" transform="translate(182.08 275.68) rotate(-90)" width="3.04" x="227.37" y="45.53"/>
      <rect height="4.26" rx="0.92" ry="0.92" style="fill: #e7e6e8" transform="translate(185.02 278.62) rotate(-90)" width="2.53" x="230.56" y="44.67"/>
      <rect height="2.16" style="fill: #2a292d" width="3.25" x="230.2" y="45.77"/>
      <g>
        <path d="M232.35,47.16a1.08,1.08,0,0,1,0-.28.77.77,0,0,1,.06-.37.27.27,0,0,1,.31,0,.77.77,0,0,1,.06.38,1.08,1.08,0,0,1,0,.28c0,.11-.1.12-.19.12S232.38,47.27,232.35,47.16Zm.31-.07a1.85,1.85,0,0,0,0-.22,1,1,0,0,0,0-.28s-.07,0-.1,0-.08,0-.1,0a1,1,0,0,0,0,.28,2.08,2.08,0,0,0,0,.22c0,.08,0,.09.12.09S232.65,47.17,232.66,47.09Z" style="fill: #fbfcfe"/>
        <path d="M232.07,47v.14l-.16.16h-.1v-.8h.09v.67Z" style="fill: #fbfcfe"/>
        <path d="M231.34,46.68l0-.21h.09l-.17.75h-.12l-.17-.75h.09l0,.21Zm-.09.43h0l.07-.32h-.13Z" style="fill: #fbfcfe"/>
      </g>
      <rect height="2.09" rx="0.42" ry="0.42" style="fill: #e7e6e8" transform="translate(182.55 286.74) rotate(-90)" width="3.09" x="233.11" y="51.05"/>
      <rect height="2.55" rx="0.73" ry="0.73" style="fill: #e7e6e8" transform="translate(176.79 280.98) rotate(-90)" width="3.04" x="227.37" y="50.82"/>
      <rect height="4.26" rx="0.92" ry="0.92" style="fill: #e7e6e8" transform="translate(179.73 283.91) rotate(-90)" width="2.53" x="230.56" y="49.97"/>
      <rect height="2.16" style="fill: #2a292d" width="3.25" x="230.2" y="51.06"/>
      <g>
        <path d="M231.44,51.76a1.08,1.08,0,0,1,0,.28.77.77,0,0,1-.06.38.27.27,0,0,1-.31,0A.77.77,0,0,1,231,52a1.08,1.08,0,0,1,0-.28c0-.11.1-.12.19-.12S231.41,51.65,231.44,51.76Zm-.31.07a1.85,1.85,0,0,0,0,.22,1,1,0,0,0,0,.28s.07,0,.1,0,.08,0,.1,0a1,1,0,0,0,0-.28,2.08,2.08,0,0,0,0-.22c0-.08,0-.09-.12-.09S231.15,51.74,231.14,51.83Z" style="fill: #fbfcfe"/>
        <path d="M231.72,52v-.14l.16-.16h.1v.8h-.09v-.67Z" style="fill: #fbfcfe"/>
        <path d="M232.46,52.24l0,.21h-.09l.17-.75h.12l.17.75h-.09l0-.21Zm.09-.43h0l-.07.32h.13Z" style="fill: #fbfcfe"/>
      </g>
      <g>
        <rect height="2.09" rx="0.42" ry="0.42" style="fill: #e7e6e8" transform="translate(204.11 265.19) rotate(-90)" width="3.09" x="233.11" y="29.49"/>
        <rect height="2.55" rx="0.73" ry="0.73" style="fill: #e7e6e8" transform="translate(198.35 259.42) rotate(-90)" width="3.04" x="227.37" y="29.26"/>
        <rect height="4.26" rx="0.92" ry="0.92" style="fill: #e7e6e8" transform="translate(201.28 262.36) rotate(-90)" width="2.53" x="230.56" y="28.41"/>
        <rect height="2.16" style="fill: #2a292d" width="3.25" x="230.2" y="29.51"/>
      </g>
      <g>
        <path d="M231.44,30.21l-.17.2a.21.21,0,0,1,.19.24.24.24,0,0,1-.25.26.36.36,0,0,1-.17,0v-.11a.26.26,0,0,0,.17.06.15.15,0,0,0,.16-.16.14.14,0,0,0-.15-.15h-.07v-.09l.17-.21H231v-.1h.4Z" style="fill: #fbfcfe"/>
        <path d="M232.09,30.2a1.08,1.08,0,0,1,0,.28.77.77,0,0,1-.06.38.27.27,0,0,1-.31,0,.77.77,0,0,1-.06-.37,1.08,1.08,0,0,1,0-.28c0-.11.1-.12.19-.12S232.06,30.09,232.09,30.2Zm-.31.07a1.85,1.85,0,0,0,0,.22,1,1,0,0,0,0,.28s.07,0,.1,0,.08,0,.1,0a1,1,0,0,0,0-.28,2.08,2.08,0,0,0,0-.22c0-.08,0-.09-.12-.09S231.79,30.19,231.78,30.27Z" style="fill: #fbfcfe"/>
        <path d="M232.64,30.32a.07.07,0,0,0-.08-.07c-.1,0-.11.19-.11.28s0,.28.11.28a.08.08,0,0,0,.08-.08h.09a.17.17,0,0,1-.16.18c-.17,0-.21-.22-.21-.38s0-.38.21-.38a.17.17,0,0,1,.16.18Z" style="fill: #fbfcfe"/>
      </g>
      <rect height="2.09" rx="0.42" ry="0.42" style="fill: #e7e6e8" transform="translate(209.5 259.8) rotate(-90)" width="3.09" x="233.11" y="24.1"/>
      <rect height="2.55" rx="0.73" ry="0.73" style="fill: #e7e6e8" transform="translate(203.74 254.03) rotate(-90)" width="3.04" x="227.37" y="23.88"/>
      <g>
        <rect height="2.1" rx="0.42" ry="0.42" style="fill: #e7e6e8" transform="translate(251.16 290.57) rotate(-90)" width="2.83" x="269.45" y="18.65"/>
        <rect height="2.56" rx="0.73" ry="0.73" style="fill: #fffdf3" transform="translate(245.28 284.7) rotate(-90)" width="2.78" x="263.6" y="18.43"/>
        <rect height="4.28" rx="0.92" ry="0.92" style="fill: #b99069" transform="translate(247.67 287.17) rotate(-90)" width="2.22" x="266.31" y="17.61"/>
        <path d="M269.17,18.47q.8-.15.79.75l-.05,1.47c-.2.39-.47.51-.85.15a4.39,4.39,0,0,1-.21-1.9A.45.45,0,0,1,269.17,18.47Z" style="fill: #757376"/>
        <path d="M265.48,18.47q.8-.15.79.75l-.05,1.47c-.2.39-.47.51-.85.15a4.39,4.39,0,0,1-.21-1.9A.45.45,0,0,1,265.48,18.47Z" style="fill: #757376"/>
      </g>
      <g>
        <rect height="2.1" rx="0.42" ry="0.42" style="fill: #e7e6e8" transform="translate(252.93 267.22) rotate(-90)" width="2.82" x="258.66" y="6.1"/>
        <rect height="2.56" rx="0.73" ry="0.73" style="fill: #fffdf3" transform="translate(247.05 261.35) rotate(-90)" width="2.78" x="252.81" y="5.87"/>
        <rect height="4.28" rx="0.92" ry="0.92" style="fill: #b99069" transform="translate(249.44 263.82) rotate(-90)" width="2.22" x="255.52" y="5.05"/>
        <path d="M258.37,5.91q.8-.15.79.75l-.05,1.47c-.2.39-.47.51-.85.15a4.39,4.39,0,0,1-.21-1.9A.45.45,0,0,1,258.37,5.91Z" style="fill: #757376"/>
        <path d="M254.69,5.91q.8-.15.79.75l-.05,1.47c-.2.39-.47.51-.85.15a4.39,4.39,0,0,1-.21-1.9A.45.45,0,0,1,254.69,5.91Z" style="fill: #757376"/>
      </g>
      <g>
        <rect height="5.13" rx="0.91" ry="0.91" style="fill: #e1ddd9" width="2.13" x="244.55" y="4.63"/>
        <rect height="5.13" rx="0.91" ry="0.91" style="fill: #e1ddd9" width="2.13" x="234.63" y="4.63"/>
        <g>
          <rect height="3.23" rx="0.42" ry="0.42" style="fill: #e7e6e8" transform="translate(236.72 250.58) rotate(-90)" width="7.6" x="239.85" y="5.31"/>
          <rect height="3.13" rx="0.73" ry="0.73" style="fill: #fffdf3" transform="translate(230.9 244.64) rotate(-90)" width="7.48" x="234.03" y="5.3"/>
          <rect height="6.58" rx="0.92" ry="0.92" style="fill: #734b3f" transform="translate(233.43 247.29) rotate(-90)" width="6.88" x="236.92" y="3.64"/>
          <path d="M243,3.63q1.22-.4,1.21,2l-.08,4c-.31,1-.72,1.37-1.31.41a20.2,20.2,0,0,1-.32-5.11A1.38,1.38,0,0,1,243,3.63Z" style="fill: #757376"/>
          <path d="M237.38,3.63q1.22-.4,1.21,2l-.08,4c-.31,1-.72,1.37-1.31.41a20.19,20.19,0,0,1-.32-5.11A1.38,1.38,0,0,1,237.38,3.63Z" style="fill: #757376"/>
        </g>
      </g>
      <g>
        <rect height="5.13" rx="0.91" ry="0.91" style="fill: #e1ddd9" width="2.13" x="273.86" y="4.63"/>
        <rect height="5.13" rx="0.91" ry="0.91" style="fill: #e1ddd9" width="2.12" x="263.94" y="4.63"/>
        <g>
          <rect height="3.23" rx="0.42" ry="0.42" style="fill: #e7e6e8" transform="translate(266.03 279.89) rotate(-90)" width="7.6" x="269.16" y="5.31"/>
          <rect height="3.13" rx="0.73" ry="0.73" style="fill: #fffdf3" transform="translate(260.21 273.95) rotate(-90)" width="7.48" x="263.34" y="5.3"/>
          <rect height="6.58" rx="0.92" ry="0.92" style="fill: #734b3f" transform="translate(262.74 276.6) rotate(-90)" width="6.88" x="266.23" y="3.64"/>
          <path d="M272.35,3.63q1.22-.4,1.21,2l-.08,4c-.31,1-.72,1.37-1.31.41a20.19,20.19,0,0,1-.32-5.11A1.38,1.38,0,0,1,272.35,3.63Z" style="fill: #757376"/>
          <path d="M266.69,3.63q1.22-.4,1.21,2l-.08,4c-.31,1-.72,1.37-1.31.41a20.19,20.19,0,0,1-.32-5.11A1.38,1.38,0,0,1,266.69,3.63Z" style="fill: #757376"/>
        </g>
      </g>
      <g>
        <rect height="2.1" rx="0.42" ry="0.42" style="fill: #e7e6e8" transform="translate(224.24 238.54) rotate(-90)" width="2.82" x="229.98" y="6.1"/>
        <rect height="2.56" rx="0.73" ry="0.73" style="fill: #fffdf3" transform="translate(218.36 232.66) rotate(-90)" width="2.78" x="224.12" y="5.87"/>
        <rect height="4.28" rx="0.92" ry="0.92" style="fill: #b99069" transform="translate(220.75 235.14) rotate(-90)" width="2.22" x="226.83" y="5.05"/>
        <path d="M229.69,5.91q.8-.15.79.75l-.06,1.47c-.2.39-.47.51-.85.15a4.39,4.39,0,0,1-.21-1.9A.45.45,0,0,1,229.69,5.91Z" style="fill: #757376"/>
        <path d="M226,5.91q.8-.15.79.75l-.05,1.47c-.2.39-.47.51-.85.15a4.39,4.39,0,0,1-.21-1.9A.45.45,0,0,1,226,5.91Z" style="fill: #757376"/>
      </g>
      <g>
        <rect height="2.1" rx="0.42" ry="0.42" style="fill: #e7e6e8" transform="translate(194.08 276.12) rotate(-90)" width="2.82" x="233.69" y="39.97"/>
        <rect height="2.56" rx="0.73" ry="0.73" style="fill: #fffdf3" transform="translate(188.2 270.24) rotate(-90)" width="2.78" x="227.83" y="39.74"/>
        <rect height="4.28" rx="0.92" ry="0.92" style="fill: #b99069" transform="translate(190.59 272.72) rotate(-90)" width="2.22" x="230.54" y="38.93"/>
        <path d="M233.4,39.78q.8-.15.79.75L234.13,42c-.2.39-.47.51-.85.15a4.39,4.39,0,0,1-.21-1.9A.45.45,0,0,1,233.4,39.78Z" style="fill: #757376"/>
        <path d="M229.72,39.78q.8-.15.79.75L230.45,42c-.2.39-.47.51-.85.15a4.39,4.39,0,0,1-.21-1.9A.45.45,0,0,1,229.72,39.78Z" style="fill: #757376"/>
      </g>
      <g>
        <rect height="2.1" rx="0.42" ry="0.42" style="fill: #e7e6e8" transform="translate(200.92 304.85) rotate(-90)" width="2.83" x="251.48" y="50.91"/>
        <rect height="2.56" rx="0.73" ry="0.73" style="fill: #fffdf3" transform="translate(195.05 298.97) rotate(-90)" width="2.78" x="245.62" y="50.68"/>
        <rect height="4.28" rx="0.92" ry="0.92" style="fill: #b99069" transform="translate(197.43 301.45) rotate(-90)" width="2.22" x="248.33" y="49.87"/>
        <path d="M251.19,50.73q.8-.15.79.75l-.06,1.47c-.2.39-.47.51-.85.15a4.39,4.39,0,0,1-.21-1.9A.45.45,0,0,1,251.19,50.73Z" style="fill: #757376"/>
        <path d="M247.5,50.73q.8-.15.79.75l-.05,1.47c-.2.39-.47.51-.85.15a4.39,4.39,0,0,1-.21-1.9A.45.45,0,0,1,247.5,50.73Z" style="fill: #757376"/>
      </g>
      <circle cx="247.24" cy="20.39" r="0.88" style="fill: #49484e"/>
      <polyline points="229.91 14.9 229.91 13.02 232.09 13.02" style="fill: none;stroke: #fff;stroke-linecap: round;stroke-linejoin: round;stroke-width: 0.5px"/>
      <polyline points="231.74 21.48 229.87 21.48 229.87 19.29" style="fill: none;stroke: #fff;stroke-linecap: round;stroke-linejoin: round;stroke-width: 0.5px"/>
    </g>
    <g id="TEXT">
      <g>
        <path d="M215.74,19.08a.23.23,0,1,1-.46,0V15.77h1.53a.69.69,0,0,1,.72.66v.31a.66.66,0,0,1-.72.65h-.42l1,1.46a.46.46,0,0,1,.11.24.22.22,0,0,1-.23.21.24.24,0,0,1-.2-.13l-1.25-1.79h-.1Zm0-2.15h1c.13,0,.33,0,.33-.19v-.31c0-.18-.19-.21-.32-.21h-1Z" style="fill: #fff"/>
        <path d="M220.58,18.86a.23.23,0,0,1,0,.46h-2V15.77h2a.23.23,0,0,1,0,.46H219v1.09h.67a.23.23,0,0,1,0,.46H219v1.09Z" style="fill: #fff"/>
        <path d="M222.29,16.23h-.17c-.15,0-.28-.05-.28-.23s.12-.23.26-.23h.76a.68.68,0,0,1,.69.46l.4.8a1.05,1.05,0,0,1,0,1l-.41.83a.69.69,0,0,1-.72.43h-.75a.23.23,0,1,1,0-.46h.22Zm.46,2.63h.09c.19,0,.24,0,.32-.19l.4-.81a.64.64,0,0,0,.09-.3.75.75,0,0,0-.11-.37l-.38-.77c-.1-.2-.14-.19-.35-.19h-.05Z" style="fill: #fff"/>
      </g>
      <g>
        <path d="M215.29,23.11h1.27c.67,0,1,.41,1,1.05a.88.88,0,0,1-.3.72,1,1,0,0,1,.3.82.9.9,0,0,1-1,.95h-1.27Zm.46,1.54h.82c.33,0,.52-.15.52-.49s-.1-.6-.52-.6h-.82Zm0,1.54h.82c.33,0,.52-.15.52-.49s-.1-.6-.52-.6h-.82Z" style="fill: #fff"/>
        <path d="M220.58,26.19a.23.23,0,0,1,0,.46h-2V23.33a.23.23,0,1,1,.46,0v2.86Z" style="fill: #fff"/>
        <path d="M221.84,23.33a.23.23,0,0,1,.46,0v1l1.39-1.18a.3.3,0,0,1,.19-.09.22.22,0,0,1,.22.24.27.27,0,0,1-.1.19l-1.57,1.34L224,26.21a.27.27,0,0,1,.11.2.22.22,0,0,1-.22.24c-.1,0-.17-.08-.25-.14l-1.33-1.14v1a.23.23,0,0,1-.46,0Z" style="fill: #fff"/>
      </g>
      <g>
        <path d="M216.69,33.56c-.15,0-.25,0-.28-.2h0c0,.16-.12.2-.28.2h-.34a.25.25,0,0,1-.28-.16l-.16-.28a.32.32,0,0,1-.06-.23V30.25a.23.23,0,1,1,.46,0v2.64l.12.22h.2l.12-.22V31.46c0-.14.06-.27.23-.27s.23.13.23.27v1.43l.12.22h.2l.12-.22V30.25a.23.23,0,1,1,.46,0v2.64a.32.32,0,0,1-.06.23l-.16.28a.25.25,0,0,1-.28.16Z" style="fill: #fff"/>
        <path d="M219,32v1.31a.23.23,0,1,1-.46,0V30.25a.23.23,0,1,1,.46,0v1.31h1.34V30.25a.23.23,0,1,1,.45,0v3.08a.23.23,0,1,1-.45,0V32Z" style="fill: #fff"/>
        <path d="M222.3,30.48v.16a.23.23,0,0,1-.46,0V30h2.25v.62a.23.23,0,1,1-.45,0v-.16h-.44v2.86a.23.23,0,0,1-.46,0V30.48Z" style="fill: #fff"/>
      </g>
      <g>
        <path d="M216.64,39.82a.23.23,0,1,1,0-.45h.9v.9a.68.68,0,0,1-.73.71H216a.69.69,0,0,1-.52-.18.66.66,0,0,1-.21-.56V39.1a.93.93,0,0,1,.24-.66l.54-.69a.7.7,0,0,1,.64-.31h.61a.23.23,0,1,1,0,.46h-.55c-.25,0-.23,0-.38.19l-.5.63a.86.86,0,0,0-.14.59v.89c0,.25.05.33.31.33h.72c.16,0,.3,0,.3-.24v-.46Z" style="fill: #fff"/>
        <path d="M219,40.75a.23.23,0,1,1-.46,0V37.44h1.53a.69.69,0,0,1,.72.66v.31a.66.66,0,0,1-.72.65h-.42l1,1.46a.46.46,0,0,1,.11.24.22.22,0,0,1-.23.21.24.24,0,0,1-.2-.13l-1.25-1.79H219Zm0-2.15h1c.13,0,.33,0,.33-.19V38.1c0-.18-.19-.21-.32-.21h-1Z" style="fill: #fff"/>
        <path d="M223.64,37.67a.23.23,0,1,1,.46,0V41h-.6l-1.19-2.73h0v2.5a.23.23,0,0,1-.46,0V37.44h.6l1.19,2.76h0Z" style="fill: #fff"/>
      </g>
      <g>
        <path d="M216.64,48.17a.23.23,0,1,1-.45,0V46.71l-.9-1.16v-.46a.23.23,0,1,1,.46,0v.31l.67.87.67-.87v-.31a.23.23,0,1,1,.46,0v.46l-.9,1.16Z" style="fill: #fff"/>
        <path d="M220.58,47.94a.23.23,0,0,1,0,.46h-2V45.08a.23.23,0,1,1,.46,0v2.86Z" style="fill: #fff"/>
        <path d="M223.64,45.09a.23.23,0,1,1,.46,0V48.4h-.6l-1.19-2.73h0v2.5a.23.23,0,0,1-.46,0V44.86h.6l1.19,2.76h0Z" style="fill: #fff"/>
      </g>
      <g>
        <path d="M277.24,16.73V16a.23.23,0,1,1,.46,0v.72a.48.48,0,0,1,0,.18l-.87,2.21c0,.11-.09.2-.23.2s-.18-.09-.23-.2l-.87-2.21a.48.48,0,0,1,0-.18V16a.23.23,0,0,1,.46,0v.73l.67,1.74Z" style="fill: #fff"/>
        <path d="M279.18,16.23H279c-.15,0-.28-.05-.28-.23s.12-.23.26-.23h.76a.68.68,0,0,1,.69.46l.4.8a1.05,1.05,0,0,1,0,1l-.41.83a.69.69,0,0,1-.72.43H279a.23.23,0,1,1,0-.46h.22Zm.46,2.63h.09c.19,0,.24,0,.32-.19l.4-.81a.64.64,0,0,0,.09-.3.75.75,0,0,0-.11-.37l-.38-.77c-.1-.2-.14-.19-.35-.19h-.05Z" style="fill: #fff"/>
        <path d="M282.45,16.23h-.17c-.15,0-.28-.05-.28-.23s.12-.23.26-.23H283a.68.68,0,0,1,.69.46l.4.8a1.05,1.05,0,0,1,0,1l-.41.83a.69.69,0,0,1-.72.43h-.75a.23.23,0,1,1,0-.46h.22Zm.46,2.63H283c.19,0,.24,0,.32-.19l.4-.81a.64.64,0,0,0,.09-.3.75.75,0,0,0-.11-.37l-.38-.77c-.1-.2-.14-.19-.35-.19h-.05Z" style="fill: #fff"/>
      </g>
      <g>
        <path d="M277.24,24.06v-.73a.23.23,0,1,1,.46,0v.72a.48.48,0,0,1,0,.18l-.87,2.21c0,.11-.09.2-.23.2s-.18-.09-.23-.2l-.87-2.21a.48.48,0,0,1,0-.18v-.72a.23.23,0,0,1,.46,0v.73l.67,1.74Z" style="fill: #fff"/>
        <path d="M280,26.64a.68.68,0,0,1-.68-.43l-.42-.85a1,1,0,0,1-.12-.48,1,1,0,0,1,.13-.5l.42-.84a.68.68,0,0,1,.7-.44h.77a.21.21,0,0,1,.23.23.22.22,0,0,1-.23.23H280c-.2,0-.23,0-.31.19l-.4.79a.7.7,0,0,0-.1.35.63.63,0,0,0,.1.31l.39.79c.09.19.14.2.34.2h.74a.21.21,0,0,1,.23.23.22.22,0,0,1-.23.23Z" style="fill: #fff"/>
        <path d="M283.23,26.64a.68.68,0,0,1-.68-.43l-.42-.85a1,1,0,0,1-.12-.48,1,1,0,0,1,.13-.5l.42-.84a.68.68,0,0,1,.7-.44H284a.21.21,0,0,1,.23.23.22.22,0,0,1-.23.23h-.76c-.2,0-.23,0-.31.19l-.4.79a.7.7,0,0,0-.1.35.63.63,0,0,0,.1.31l.39.79c.09.19.14.2.34.2H284a.21.21,0,0,1,.23.23.22.22,0,0,1-.23.23Z" style="fill: #fff"/>
      </g>
      <g>
        <path d="M275.9,30.48h-.17c-.15,0-.28-.05-.28-.23s.12-.23.26-.23h.76a.68.68,0,0,1,.69.46l.4.8a1,1,0,0,1,0,1l-.41.83a.69.69,0,0,1-.72.43h-.75a.23.23,0,1,1,0-.46h.22Zm.46,2.63h.09c.19,0,.24,0,.32-.19l.4-.81a.64.64,0,0,0,.09-.3.76.76,0,0,0-.11-.37l-.38-.77c-.1-.2-.14-.19-.35-.19h-.05Z" style="fill: #fff"/>
        <path d="M279.62,30.26c0-.12.09-.23.23-.23s.21.11.24.23l.88,3.08c0,.11-.09.23-.22.23a.27.27,0,0,1-.25-.23l-.17-.55h-1l-.17.55a.27.27,0,0,1-.25.23c-.13,0-.25-.12-.22-.23Zm.24.85h0l-.36,1.23h.71Z" style="fill: #fff"/>
        <path d="M282.46,30.48v.16a.23.23,0,0,1-.46,0V30h2.25v.62a.23.23,0,1,1-.45,0v-.16h-.44v2.86a.23.23,0,1,1-.46,0V30.48Z" style="fill: #fff"/>
      </g>
      <g>
        <path d="M276.68,41a.68.68,0,0,1-.68-.43l-.42-.85a1,1,0,0,1-.12-.48,1,1,0,0,1,.13-.5l.42-.84a.68.68,0,0,1,.7-.44h.77a.21.21,0,0,1,.23.23.22.22,0,0,1-.23.23h-.76c-.2,0-.23,0-.31.19l-.4.79a.71.71,0,0,0-.09.35.63.63,0,0,0,.09.31l.39.79c.09.19.14.2.34.2h.74a.21.21,0,0,1,.23.23.22.22,0,0,1-.23.23Z" style="fill: #fff"/>
        <path d="M280.75,40.52a.23.23,0,0,1,0,.46h-2V37.67a.23.23,0,1,1,.46,0v2.86Z" style="fill: #fff"/>
        <path d="M282,37.67a.23.23,0,0,1,.46,0v1l1.39-1.18a.3.3,0,0,1,.19-.09.22.22,0,0,1,.22.24.27.27,0,0,1-.1.19l-1.57,1.34,1.56,1.34a.27.27,0,0,1,.11.2A.22.22,0,0,1,284,41c-.1,0-.17-.08-.25-.14l-1.33-1.14v1a.23.23,0,0,1-.46,0Z" style="fill: #fff"/>
      </g>
      <g>
        <path d="M276.8,47.24a.23.23,0,1,1,0-.45h.9v.9a.68.68,0,0,1-.73.71h-.78a.69.69,0,0,1-.52-.18.66.66,0,0,1-.21-.56V46.52a.93.93,0,0,1,.24-.66l.54-.69a.7.7,0,0,1,.64-.31h.61a.23.23,0,1,1,0,.46h-.54c-.25,0-.23,0-.38.19l-.5.63a.86.86,0,0,0-.14.59v.89c0,.25.05.33.31.33h.72c.16,0,.3,0,.3-.24v-.46Z" style="fill: #fff"/>
        <path d="M280.53,45.09a.23.23,0,0,1,.46,0V48.4h-.6l-1.19-2.73h0v2.5a.23.23,0,1,1-.46,0V44.86h.6l1.19,2.76h0Z" style="fill: #fff"/>
        <path d="M282.45,45.31h-.17c-.15,0-.28-.05-.28-.23s.12-.23.26-.23H283a.68.68,0,0,1,.69.46l.4.8a1.05,1.05,0,0,1,0,1l-.41.83a.69.69,0,0,1-.72.43h-.75a.23.23,0,1,1,0-.46h.22Zm.46,2.63H283c.19,0,.24,0,.32-.19l.4-.81a.64.64,0,0,0,.09-.3.75.75,0,0,0-.11-.37l-.38-.77c-.1-.2-.14-.19-.35-.19h-.05Z" style="fill: #fff"/>
      </g>
      <g>
        <path d="M224.4,60.39a.34.34,0,1,1,0,.69h-3.06v-5a.34.34,0,0,1,.69,0v4.32Z" style="fill: #fff"/>
        <path d="M226.38,58.6a.89.89,0,0,1,.42-.86,1.18,1.18,0,0,1,.94-.37h.52a1.18,1.18,0,0,1,.94.37.89.89,0,0,1,.42.86v1.25a1,1,0,0,1-.45.89,1.1,1.1,0,0,1-.9.34h-.52a1.1,1.1,0,0,1-.9-.34,1,1,0,0,1-.45-.89Zm.66,1.25c0,.14,0,.23.24.39a.6.6,0,0,0,.45.18h.52a.6.6,0,0,0,.45-.18c.19-.17.24-.25.24-.39V58.6c0-.14,0-.23-.24-.39a.6.6,0,0,0-.45-.18h-.52a.6.6,0,0,0-.45.18c-.19.17-.24.25-.24.39Z" style="fill: #fff"/>
        <path d="M232.44,58c-.19,0-.45,0-.45-.33s.23-.33.45-.33h.91a1,1,0,0,1,.85.3,1,1,0,0,1,.3.78l.07,2.24c0,.19-.09.39-.31.39a.34.34,0,0,1-.34-.33l-.45.23a.6.6,0,0,1-.41.1h-.63a1,1,0,0,1-.75-.23.92.92,0,0,1-.34-.81v-.29a.86.86,0,0,1,.32-.74,1.09,1.09,0,0,1,.77-.25h1.42v-.15c0-.5-.11-.58-.58-.58Zm0,1.39c-.18,0-.44,0-.44.29v.44c0,.22.27.27.43.27h.73l.73-.38V59.9c0-.37-.1-.47-.47-.47Z" style="fill: #fff"/>
        <path d="M238.1,57.37a.94.94,0,0,1,.65.36l.11.12V56.46c0-.23,0-.46.33-.46s.33.23.33.46v4.16c0,.23,0,.46-.33.46s-.33-.22-.33-.44v0l-.14.14a1,1,0,0,1-.63.34h-.64a1,1,0,0,1-.56-.23l-.23-.19a.86.86,0,0,1-.36-.76V58.56a.85.85,0,0,1,.36-.76l.23-.19a.83.83,0,0,1,.63-.23ZM237,59.63c0,.19,0,.42.1.5l.2.16a.44.44,0,0,0,.25.13H238a.55.55,0,0,0,.32-.17l.38-.32c.1-.08.19-.17.19-.29v-.83c0-.12-.1-.21-.19-.29l-.38-.32A.56.56,0,0,0,238,58h-.47a.44.44,0,0,0-.25.13l-.2.16c-.1.08-.1.32-.1.5Z" style="fill: #fff"/>
      </g>
      <g>
        <path d="M246.45,61.08a.89.89,0,0,1-.89-.65L245,59.15a1.73,1.73,0,0,1-.16-.72,1.69,1.69,0,0,1,.17-.76l.54-1.27a.89.89,0,0,1,.91-.66h1a.3.3,0,0,1,.3.34.3.3,0,0,1-.3.34h-1c-.26,0-.3,0-.41.29l-.51,1.2a1.2,1.2,0,0,0-.12.52,1.07,1.07,0,0,0,.13.47l.5,1.19c.12.28.18.3.44.3h1a.3.3,0,0,1,.3.34.3.3,0,0,1-.3.34Z" style="fill: #fff"/>
        <path d="M250.23,61.08a.55.55,0,0,1-.51-.18l-.24-.25a.88.88,0,0,1-.29-.74V58.64a.94.94,0,0,1,.28-.79l.2-.2a.71.71,0,0,1,.63-.28h.52a.74.74,0,0,1,.63.24l.23.21a1,1,0,0,1,.3.86v.53c0,.38-.05.49-.39.49h-1.82v.22a.34.34,0,0,0,.08.19l.14.18c.08.1.19.12.38.12h1.22c.19,0,.39,0,.39.33s-.23.33-.39.33Zm-.47-2h1.65v-.4a.41.41,0,0,0-.07-.31l-.22-.22a.36.36,0,0,0-.27-.08h-.48a.41.41,0,0,0-.29.08l-.2.17c-.07.06-.12.11-.12.3Z" style="fill: #fff"/>
        <path d="M255.14,60.42h.43c.19,0,.39,0,.39.33s-.22.33-.39.33h-1.44c-.17,0-.39,0-.39-.33s.2-.33.39-.33h.45V56.67h-.45c-.17,0-.39,0-.39-.33s.2-.33.39-.33h.6c.33,0,.42.07.42.46Z" style="fill: #fff"/>
        <path d="M259.4,60.42h.43c.19,0,.39,0,.39.33s-.22.33-.39.33h-1.44c-.17,0-.39,0-.39-.33s.2-.33.39-.33h.45V56.67h-.45c-.17,0-.39,0-.39-.33s.2-.33.39-.33h.6c.33,0,.42.07.42.46Z" style="fill: #fff"/>
      </g>
      <g>
        <path d="M266.31,56.08c.05-.19.12-.35.33-.35s.29.17.34.35l1.25,4.66c0,.17-.13.34-.31.34s-.3-.18-.35-.34l-.24-.83H266l-.25.83c0,.17-.15.34-.35.34s-.36-.18-.31-.34Zm.34,1.28h0l-.51,1.86h1Z" style="fill: #fff"/>
        <path d="M271.61,58.48v2.15c0,.23,0,.45-.31.45s-.31-.23-.31-.45V58.42c0-.11,0-.32-.15-.32s-.12.06-.17.11l-.27.27v2.15c0,.23,0,.45-.31.45s-.31-.23-.31-.45V57.84c0-.23.06-.47.32-.47a.31.31,0,0,1,.3.26l.05,0a.64.64,0,0,1,1,.11l.05-.05c.19-.21.27-.28.54-.28a.63.63,0,0,1,.52.27,1,1,0,0,1,.15.66l.06,2.29c0,.23,0,.5-.3.5s-.3-.23-.31-.45l-.06-2.18c0-.12,0-.35-.14-.35s-.21.17-.26.23Z" style="fill: #fff"/>
        <path d="M277.48,59.65a1,1,0,0,1-.39,1l-.37.32c-.13.11-.33.3-.5.3h-.42c-.28,0-.41-.19-.61-.39l-.12-.12V62c0,.23,0,.46-.31.46s-.31-.23-.31-.46V57.86c0-.23,0-.49.31-.49s.31.21.31.43v.08l.12-.12c.16-.15.41-.4.58-.4h.43c.15,0,.35.17.52.3l.38.31a1,1,0,0,1,.39,1Zm-.62-.8a.34.34,0,0,0-.13-.29l-.47-.41a.34.34,0,0,0-.21-.12h-.16c-.09,0-.2.12-.27.19l-.39.39a.44.44,0,0,0-.17.35v.65a.42.42,0,0,0,.09.28l.47.47c.09.1.19.19.27.19h.16a.33.33,0,0,0,.21-.12l.47-.41a.34.34,0,0,0,.13-.29Z" style="fill: #fff"/>
      </g>
      <g>
        <path d="M251.73,27.59h-.86a.13.13,0,0,1-.15-.15c0-.11.05-.15.15-.15h2c.1,0,.15,0,.15.15a.13.13,0,0,1-.15.15H252v.87h.86c.1,0,.15,0,.15.15s-.05.15-.15.15h-2c-.1,0-.15,0-.15-.15s.05-.15.15-.15h.86Z" style="fill: #524c49"/>
        <path d="M251.88,30l.92-.53a.2.2,0,0,1,.11,0,.15.15,0,0,1,.14.14c0,.1-.08.13-.15.17l-.71.41.71.42c.07,0,.15.07.15.17a.15.15,0,0,1-.14.15.2.2,0,0,1-.11,0l-.92-.53-.92.53a.19.19,0,0,1-.11,0,.15.15,0,0,1-.14-.15c0-.1.08-.13.15-.17l.71-.42-.71-.41c-.07,0-.15-.07-.15-.17a.15.15,0,0,1,.14-.14.19.19,0,0,1,.11,0Z" style="fill: #524c49"/>
        <path d="M252.75,31.86a.15.15,0,1,1,0-.3h.15a.15.15,0,0,1,.15.15V33h-.87c-.11,0-.12,0-.19-.08l-.36-.41c-.07-.08-.08-.08-.18-.08h-.58a.13.13,0,0,1-.15-.15c0-.11.05-.15.15-.15h.72a.16.16,0,0,1,.17.08l.36.41c.09.1.08.09.22.09h.41Z" style="fill: #524c49"/>
        <path d="M251,34.86h.6a.15.15,0,1,1,0,.3h-.75a.14.14,0,0,1-.15-.15V33.84a.15.15,0,0,1,.3,0v.44h1.73v-.44a.15.15,0,0,1,.3,0v.73h-2Z" style="fill: #524c49"/>
        <path d="M251,37h.6a.15.15,0,1,1,0,.3h-.75a.14.14,0,0,1-.15-.15V36a.15.15,0,0,1,.3,0v.44h1.73V36a.15.15,0,0,1,.3,0v.73h-2Z" style="fill: #524c49"/>
      </g>
      <g>
        <path d="M248.48,26.56v.75c0,.11-.06.13-.2.13h-.67c-.14,0-.19,0-.19-.15v-.82c0-.11.05-.15.19-.15h2c.07,0,.15,0,.15.1v.13c0,.06-.07.11-.15.11s-.15,0-.15-.11Zm-.3,0h-.46v.66h.46Z" style="fill: #524c49"/>
        <path d="M248.48,28.18v.75c0,.11-.06.13-.2.13h-.67c-.14,0-.19,0-.19-.15V28.1c0-.11.05-.15.19-.15h2c.07,0,.15,0,.15.1v.13c0,.06-.07.11-.15.11s-.15,0-.15-.11Zm-.3,0h-.46v.66h.46Z" style="fill: #524c49"/>
        <path d="M247.72,30.46h.6c.09,0,.15,0,.15.11s-.06.11-.15.11h-.75c-.11,0-.15-.05-.15-.11v-.88c0-.06,0-.11.15-.11s.15.05.15.11V30h1.73v-.33c0-.06,0-.11.15-.11s.15.05.15.11v.55h-2Z" style="fill: #524c49"/>
        <path d="M249.75,32.07c0,.12-.13.22-.3.22h-1.73c-.17,0-.3-.1-.3-.22v-.66c0-.13.13-.22.3-.22h1.73c.17,0,.3.1.3.22Zm-2,0h1.73v-.66h-1.73Z" style="fill: #524c49"/>
        <path d="M249.45,32.91c0-.06,0-.11.15-.11s.15.05.15.11v.77c0,.13-.13.22-.3.22h-.57a.53.53,0,0,0-.58,0h-.57c-.17,0-.3-.1-.3-.22v-.77c0-.06,0-.11.15-.11s.15.05.15.11v.77h.5c.17,0,.22,0,.22-.11v-.44c0-.06,0-.11.15-.11s.15.05.15.11v.44c0,.06.05.11.22.11h.5Z" style="fill: #524c49"/>
        <path d="M248.48,35.19h.86c.08,0,.15,0,.15.11s-.07.11-.15.11h-.86c0,.06,0,.11-.15.11s-.15-.05-.15-.11h-.61c-.1,0-.15,0-.15-.11s.05-.11.15-.11h.61v-.66h1.42c.08,0,.15,0,.15.11s-.08.11-.15.11h-1.12Z" style="fill: #524c49"/>
        <path d="M247.72,36.92h.6c.09,0,.15,0,.15.11s-.06.11-.15.11h-.75c-.11,0-.15-.05-.15-.11v-.88c0-.06,0-.11.15-.11s.15.05.15.11v.33h1.73v-.33c0-.06,0-.11.15-.11s.15.05.15.11v.55h-2Z" style="fill: #524c49"/>
      </g>
      <g>
        <path d="M232.7,18.66h-.34s-.09,0-.09-.06,0-.06.09-.06h.43c.06,0,.09,0,.09.06v.5s0,.06-.09.06-.08,0-.08-.06v-.19h-1v.19s0,.06-.09.06-.09,0-.09-.06v-.32h1.16Z" style="fill: #524c49"/>
        <path d="M232.7,18.11v-.44s0-.06.08-.06.09,0,.09.06v.57h-.56c-.13,0-.19,0-.19-.15v-.36h-.41v.44s0,.06-.09.06-.09,0-.09-.06v-.43a.12.12,0,0,1,0-.1.21.21,0,0,1,.15,0h.35a.22.22,0,0,1,.15,0,.12.12,0,0,1,0,.1v.36Z" style="fill: #524c49"/>
        <path d="M231.71,17.19h.06c.05,0,.09,0,.09.06s0,.06-.09.06h-.23v-.63h.23c.05,0,.09,0,.09.06s0,.06-.09.06h-.06v.12h1.07c.05,0,.09,0,.09.06s0,.06-.09.06h-1.07Z" style="fill: #524c49"/>
      </g>
      <path d="M260.4,49.13l-.26.18a.32.32,0,0,0-.09.38.69.69,0,0,0,.8.36.6.6,0,0,0,.54-.64.81.81,0,0,0-.26-.48,5.49,5.49,0,0,1-.45-.51,1,1,0,0,1-.21-.74,1.13,1.13,0,0,1,.84-.85,1.42,1.42,0,0,1,1.3.26,3,3,0,0,0-.37,0,.5.5,0,0,0-.29.86,1.73,1.73,0,0,0,.54.4c.31.15.51,0,.51-.35,0,0,0,0,0-.12a2.92,2.92,0,0,1,.33.26,2.05,2.05,0,0,1,.53,1.28,2.49,2.49,0,0,1-2.64,2.73,1,1,0,0,0-.83.34l-1.23,1.37L259,54c0-.07,0-.12,0-.16q0-1.79,0-3.58a2.07,2.07,0,0,1,0-.41A1,1,0,0,1,260.4,49.13Z" style="fill: #fff"/>
      <g>
        <g>
          <polygon points="233.49 13.04 233.49 15.7 234.82 14.37 233.49 13.04" style="fill: #75615d"/>
          <polygon points="234.82 14.37 236.15 15.7 236.15 13.04 234.82 14.37" style="fill: #75615d"/>
          <polygon points="234.82 14.37 233.49 13.04 233.49 15.7 234.82 14.37" style="fill: #75615d"/>
        </g>
        <g>
          <polygon points="233.49 15.7 236.15 15.7 234.82 14.37 233.49 15.7" style="fill: #75615d"/>
          <polygon points="234.82 14.37 236.15 13.04 233.49 13.04 234.82 14.37" style="fill: #75615d"/>
          <polygon points="234.82 14.37 233.49 15.7 236.15 15.7 234.82 14.37" style="fill: #75615d"/>
        </g>
      </g>
      <g>
        <g>
          <polygon points="233.49 18.42 233.49 21.08 234.82 19.75 233.49 18.42" style="fill: #75615d"/>
          <polygon points="234.82 19.75 236.15 21.08 236.15 18.42 234.82 19.75" style="fill: #75615d"/>
          <polygon points="234.82 19.75 233.49 18.42 233.49 21.08 234.82 19.75" style="fill: #75615d"/>
        </g>
        <g>
          <polygon points="233.49 21.08 236.15 21.08 234.82 19.75 233.49 21.08" style="fill: #75615d"/>
          <polygon points="234.82 19.75 236.15 18.42 233.49 18.42 234.82 19.75" style="fill: #75615d"/>
          <polygon points="234.82 19.75 233.49 21.08 236.15 21.08 234.82 19.75" style="fill: #75615d"/>
        </g>
      </g>
      <g>
        <g>
          <polygon points="227.24 15.77 227.24 18.42 228.83 17.1 227.24 15.77" style="fill: #75615d"/>
          <polygon points="228.83 17.1 230.41 18.42 230.41 15.77 228.83 17.1" style="fill: #75615d"/>
          <polygon points="228.83 17.1 227.24 15.77 227.24 18.42 228.83 17.1" style="fill: #75615d"/>
        </g>
        <g>
          <polygon points="227.24 18.42 230.41 18.42 228.83 17.1 227.24 18.42" style="fill: #75615d"/>
          <polygon points="228.83 17.1 230.41 15.77 227.24 15.77 228.83 17.1" style="fill: #75615d"/>
          <polygon points="228.83 17.1 227.24 18.42 230.41 18.42 228.83 17.1" style="fill: #75615d"/>
        </g>
      </g>
      <circle cx="213.87" cy="7.2" r="5.01" style="fill: none"/>
      <circle cx="213.87" cy="57.47" r="5.01" style="fill: none"/>
      <circle cx="285.62" cy="57.47" r="5.01" style="fill: none"/>
      <circle cx="285.62" cy="7.2" r="5.01" style="fill: none"/>
    </g>
  </g>
  <g id="Connectors">
    <circle cx="289.26" cy="18" data-cir-type="male" id="circuitoCon_VDD" r="2.05" style="fill: none;stroke: #e8e5df;stroke-width: 1.224px"/>
    <circle cx="289.26" cy="25.2" data-cir-type="male" id="circuitoCon_VCC" r="2.05" style="fill: none;stroke: #e8e5df;stroke-width: 1.224px"/>
    <circle cx="289.26" cy="32.4" data-cir-type="male" id="circuitoCon_DAT" r="2.05" style="fill: none;stroke: #e8e5df;stroke-width: 1.224px"/>
    <circle cx="289.26" cy="39.6" data-cir-type="male" id="circuitoCon_CLK" r="2.05" style="fill: none;stroke: #e8e5df;stroke-width: 1.224px"/>
    <circle cx="289.26" cy="46.8" data-cir-type="male" id="circuitoCon_GND" r="2.05" style="fill: none;stroke: #e8e5df;stroke-width: 1.224px"/>
    <circle cx="267.66" cy="39.6" id="connector21pin" r="2.05" style="fill: none;stroke: #e8e5df;stroke-width: 1.224px"/>
    <circle cx="267.66" cy="46.8" id="connector22pin" r="2.05" style="fill: none;stroke: #e8e5df;stroke-width: 1.224px"/>
    <circle cx="210.06" cy="46.8" data-cir-type="female" id="circuitoCon_YLW" r="2.05" style="fill: none;stroke: #e8e5df;stroke-width: 1.224px"/>
    <circle cx="210.06" cy="39.6" data-cir-type="female" id="circuitoCon_GRN" r="2.05" style="fill: none;stroke: #e8e5df;stroke-width: 1.224px"/>
    <circle cx="210.06" cy="32.4" data-cir-type="female" id="circuitoCon_WHT" r="2.05" style="fill: none;stroke: #e8e5df;stroke-width: 1.224px"/>
    <circle cx="210.06" cy="25.2" data-cir-type="female" id="circuitoCon_BLK" r="2.05" style="fill: none;stroke: #e8e5df;stroke-width: 1.224px"/>
    <circle cx="210.06" cy="18" data-cir-type="female" id="circuitoCon_RED" r="2.05" style="fill: none;stroke: #e8e5df;stroke-width: 1.224px"/>
  </g>
  <g data-name="Layer 11" id="Layer_11">
    <path d="M175.72,19.94h34.15a1.94,1.94,0,0,0,0-3.87H175.72Z" style="fill: #ff3b3b"/>
    <path d="M175.72,27.15h34.15a1.94,1.94,0,0,0,0-3.87H175.72Z" style="fill: #333"/>
    <path d="M175.72,34.36h34.15a1.94,1.94,0,0,0,0-3.87H175.72Z" style="fill: #d3d3d3"/>
    <path d="M175.72,41.57h34.15a1.94,1.94,0,0,0,0-3.87H175.72Z" style="fill: #3bbd3b"/>
  </g>
  <g id="Cell">
    <rect height="20.04" style="fill: url(#Silver_01)" width="178.26" y="8.36"/>
    <rect height="20.89" style="fill: url(#Silver_01-2)" width="178.26" y="28.4"/>
    <ellipse cx="168.26" cy="18.51" rx="5.94" ry="4.24" style="fill: url(#Silver_01-3)"/>
    <ellipse cx="135.34" cy="18.51" rx="5.94" ry="4.24" style="fill: url(#Silver_01-4)"/>
    <ellipse cx="45.37" cy="18.54" rx="6.72" ry="4.8" style="fill: url(#Silver_01-5)"/>
    <ellipse cx="11.97" cy="18.38" rx="6.72" ry="4.8" style="fill: url(#Silver_01-6)"/>
    <ellipse cx="11.79" cy="20.12" rx="4.47" ry="3.22" style="fill: url(#linear-gradient-3)"/>
    <ellipse cx="45.37" cy="20.12" rx="4.47" ry="3.22" style="fill: url(#linear-gradient-4)"/>
    <ellipse cx="135.34" cy="20.1" rx="3.68" ry="2.64" style="fill: url(#linear-gradient-5)"/>
    <ellipse cx="168.26" cy="20.1" rx="3.68" ry="2.64" style="fill: url(#linear-gradient-6)"/>
    <path d="M98,31.3a13.34,13.34,0,0,0-8.87,3.05A13.34,13.34,0,0,0,80.3,31.3c-6.2,0-11.23,3.53-11.23,7.89s5,7.89,11.23,7.89A13.34,13.34,0,0,0,89.17,44,13.34,13.34,0,0,0,98,47.09c6.2,0,11.23-3.53,11.23-7.89S104.24,31.3,98,31.3Z" style="fill: url(#linear-gradient-7)"/>
  </g>
</svg>