<?xml version="1.0" ?><svg height="116.27mm" viewBox="0 0 189.5 329.58" width="66.85mm" xmlns="http://www.w3.org/2000/svg" xmlns:xlink="http://www.w3.org/1999/xlink">
  <defs>
    <linearGradient gradientTransform="matrix(1, 0, 0, -1, -128.79, 333.77)" gradientUnits="userSpaceOnUse" id="linear-gradient" x1="199.58" x2="199.58" y1="27.33" y2="21.08">
      <stop offset="0" stop-color="#979797"/>
      <stop offset="1" stop-color="#f1f1f1"/>
    </linearGradient>
    <linearGradient gradientTransform="matrix(1, 0, 0, -1, -114.39, 333.77)" id="linear-gradient-2" x1="192.38" x2="192.38" xlink:href="#linear-gradient" y1="27.33" y2="21.08"/>
    <linearGradient gradientTransform="matrix(1, 0, 0, -1, -100, 333.77)" id="linear-gradient-3" x1="185.18" x2="185.18" xlink:href="#linear-gradient" y1="27.33" y2="21.08"/>
    <linearGradient gradientTransform="matrix(1, 0, 0, -1, -85.6, 333.77)" id="linear-gradient-4" x1="177.99" x2="177.99" xlink:href="#linear-gradient" y1="27.33" y2="21.08"/>
    <linearGradient gradientTransform="matrix(1, 0, 0, -1, -71.21, 333.77)" id="linear-gradient-5" x1="170.79" x2="170.79" xlink:href="#linear-gradient" y1="27.33" y2="21.08"/>
    <linearGradient gradientTransform="matrix(1, 0, 0, -1, -56.81, 333.77)" id="linear-gradient-6" x1="163.59" x2="163.59" xlink:href="#linear-gradient" y1="27.33" y2="21.08"/>
    <linearGradient gradientTransform="matrix(1, 0, 0, -1, -42.42, 333.77)" id="linear-gradient-7" x1="156.39" x2="156.39" xlink:href="#linear-gradient" y1="27.33" y2="21.08"/>
  </defs>
  <title>Membrane 3x4 Matrix Keypad</title>
  <g id="square">
    <g>
      <rect height="210.33" rx="14.73" ry="14.73" style="fill: #1c1c1c" width="189.5"/>
      <rect height="190.08" rx="7.33" ry="7.33" style="fill: none;stroke: #fff;stroke-miterlimit: 10;stroke-width: 1.5px" width="169.75" x="9.42" y="10.33"/>
      <rect height="184" rx="5.67" ry="5.67" style="fill: none;stroke: #fff;stroke-miterlimit: 10;stroke-width: 1.5px" width="163.88" x="12.29" y="13.5"/>
    </g>
  </g>
  <g data-name="down square" id="down_square" style="opacity: 0.5">
    <rect height="72.86" style="fill: #cadee4" width="50.43" x="67.11" y="210.3"/>
  </g>
  <g data-name="white line" id="white_line">
    <g>
      <rect height="72.71" style="fill: #e5d2c1" width="2.75" x="71.54" y="210.44"/>
      <rect height="72.71" style="fill: #e5d2c1" width="2.75" x="78.23" y="210.44"/>
      <rect height="72.71" style="fill: #e5d2c1" width="2.75" x="84.92" y="210.44"/>
      <rect height="72.71" style="fill: #e5d2c1" width="2.75" x="91.6" y="210.44"/>
      <rect height="72.71" style="fill: #e5d2c1" width="2.75" x="98.29" y="210.44"/>
      <rect height="72.71" style="fill: #e5d2c1" width="2.75" x="104.98" y="210.44"/>
      <rect height="72.71" style="fill: #e5d2c1" width="2.75" x="111.67" y="210.44"/>
    </g>
  </g>
  <g id="BUTTONS">
    <g>
      <g>
        <rect height="32.83" rx="4.13" ry="4.13" style="fill: #fff" width="33.17" x="36.92" y="27.67"/>
        <rect height="26.03" rx="1.28" ry="1.28" style="fill: #8ccffd" width="26.38" x="40.29" y="31.19"/>
      </g>
      <g>
        <rect height="32.83" rx="4.13" ry="4.13" style="fill: #fff" width="33.17" x="78" y="27.67"/>
        <rect height="26.03" rx="1.28" ry="1.28" style="fill: #8ccffd" width="26.38" x="81.37" y="31.19"/>
      </g>
      <g>
        <rect height="32.83" rx="4.13" ry="4.13" style="fill: #fff" width="33.17" x="118.83" y="27.67"/>
        <rect height="26.03" rx="1.28" ry="1.28" style="fill: #8ccffd" width="26.38" x="122.21" y="31.19"/>
      </g>
      <g>
        <rect height="32.83" rx="4.13" ry="4.13" style="fill: #fff" width="33.17" x="36.92" y="68.58"/>
        <rect height="26.03" rx="1.28" ry="1.28" style="fill: #8ccffd" width="26.38" x="40.29" y="72.1"/>
      </g>
      <g>
        <rect height="32.83" rx="4.13" ry="4.13" style="fill: #fff" width="33.17" x="78" y="68.58"/>
        <rect height="26.03" rx="1.28" ry="1.28" style="fill: #8ccffd" width="26.38" x="81.37" y="72.1"/>
      </g>
      <g>
        <rect height="32.83" rx="4.13" ry="4.13" style="fill: #fff" width="33.17" x="118.83" y="68.58"/>
        <rect height="26.03" rx="1.28" ry="1.28" style="fill: #8ccffd" width="26.38" x="122.21" y="72.1"/>
      </g>
      <g>
        <rect height="32.83" rx="4.13" ry="4.13" style="fill: #fff" width="33.17" x="36.92" y="109.5"/>
        <rect height="26.03" rx="1.28" ry="1.28" style="fill: #8ccffd" width="26.38" x="40.29" y="113.02"/>
      </g>
      <g>
        <rect height="32.83" rx="4.13" ry="4.13" style="fill: #fff" width="33.17" x="78" y="109.5"/>
        <rect height="26.03" rx="1.28" ry="1.28" style="fill: #8ccffd" width="26.38" x="81.37" y="113.02"/>
      </g>
      <g>
        <rect height="32.83" rx="4.13" ry="4.13" style="fill: #fff" width="33.17" x="118.83" y="109.5"/>
        <rect height="26.03" rx="1.28" ry="1.28" style="fill: #8ccffd" width="26.38" x="122.21" y="113.02"/>
      </g>
      <g>
        <rect height="32.83" rx="4.13" ry="4.13" style="fill: #fff" width="33.17" x="36.92" y="150.42"/>
        <rect height="26.03" rx="1.28" ry="1.28" style="fill: #e45f5d" width="26.38" x="40.29" y="153.94"/>
      </g>
      <g>
        <rect height="32.83" rx="4.13" ry="4.13" style="fill: #fff" width="33.17" x="78" y="150.42"/>
        <rect height="26.03" rx="1.28" ry="1.28" style="fill: #8ccffd" width="26.38" x="81.37" y="153.94"/>
      </g>
      <g>
        <rect height="32.83" rx="4.13" ry="4.13" style="fill: #fff" width="33.17" x="118.83" y="150.42"/>
        <rect height="26.03" rx="1.28" ry="1.28" style="fill: #e45f5d" width="26.38" x="122.21" y="153.94"/>
      </g>
    </g>
  </g>
  <g id="numbers">
    <path d="M55.44,50.77H52.71V39.55H49.93V37.62l5.51-.49Z" style="fill: #fff"/>
    <path d="M100.07,50.77H90.76V49l4.41-4.73a10.68,10.68,0,0,0,1.36-1.85,3,3,0,0,0,.4-1.4,2.1,2.1,0,0,0-.46-1.41A1.63,1.63,0,0,0,95.15,39a1.7,1.7,0,0,0-1.44.64,2.74,2.74,0,0,0-.49,1.71H90.56l0-.06a4.12,4.12,0,0,1,1.21-3.12,4.55,4.55,0,0,1,3.39-1.28A4.74,4.74,0,0,1,98.46,38,3.76,3.76,0,0,1,99.67,41,4.1,4.1,0,0,1,99,43.24,22.56,22.56,0,0,1,96.74,46l-2.42,2.64,0,0h5.73Z" style="fill: #fff"/>
    <path d="M133.61,43h1.54a1.87,1.87,0,0,0,1.44-.51,2,2,0,0,0,.47-1.42,1.84,1.84,0,0,0-.47-1.32,1.78,1.78,0,0,0-1.36-.5,1.91,1.91,0,0,0-1.29.45,1.48,1.48,0,0,0-.52,1.18h-2.65l0-.06A3.1,3.1,0,0,1,132,38.15a4.89,4.89,0,0,1,3.18-1,5.23,5.23,0,0,1,3.38,1A3.48,3.48,0,0,1,139.79,41a2.9,2.9,0,0,1-.56,1.69,3.74,3.74,0,0,1-1.54,1.25,3.48,3.48,0,0,1,1.73,1.24,3.25,3.25,0,0,1,.59,1.94,3.54,3.54,0,0,1-1.36,2.94,5.47,5.47,0,0,1-3.49,1.07,5.33,5.33,0,0,1-3.26-1,3.21,3.21,0,0,1-1.32-2.84l0-.06h2.65a1.66,1.66,0,0,0,.56,1.29,2,2,0,0,0,1.42.51,2.07,2.07,0,0,0,1.49-.52,1.87,1.87,0,0,0,.55-1.42,2.06,2.06,0,0,0-.54-1.57,2.26,2.26,0,0,0-1.59-.5h-1.54Z" style="fill: #fff"/>
    <path d="M55.94,87.26h1.54v2.11H55.94v3H53.22v-3H47.66l-.12-1.64,5.66-9h2.75Zm-5.86,0h3.14V82.34l-.06,0-.22.38Z" style="fill: #fff"/>
    <path d="M90.31,86.25l.79-7.59h7.6v2.19H93.34L93,84a3.24,3.24,0,0,1,.91-.46,4.27,4.27,0,0,1,4.23,1,4.93,4.93,0,0,1,1.08,3.39A4.67,4.67,0,0,1,98,91.18a4.38,4.38,0,0,1-3.41,1.3,5.13,5.13,0,0,1-3.22-1,3.26,3.26,0,0,1-1.29-2.83l0,0,2.63-.13a1.91,1.91,0,0,0,.52,1.42,1.83,1.83,0,0,0,1.35.51A1.58,1.58,0,0,0,96,89.7a3.13,3.13,0,0,0,.45-1.77A3.28,3.28,0,0,0,96,86a1.64,1.64,0,0,0-1.44-.71,2.09,2.09,0,0,0-1.2.29,1.59,1.59,0,0,0-.59.79Z" style="fill: #fff"/>
    <path d="M135.74,78.5a6.52,6.52,0,0,1,1.42.15,7.41,7.41,0,0,1,1.31.43l-.49,2a10,10,0,0,0-1.1-.32,5.17,5.17,0,0,0-1.12-.11,2.44,2.44,0,0,0-2,.93,3.78,3.78,0,0,0-.7,2.58l0,0a3.17,3.17,0,0,1,1.16-.75,4.35,4.35,0,0,1,1.58-.27,3.46,3.46,0,0,1,2.86,1.3,5.14,5.14,0,0,1,1,3.31,4.72,4.72,0,0,1-1.28,3.4,4.37,4.37,0,0,1-3.31,1.34,4.58,4.58,0,0,1-3.52-1.47A5.74,5.74,0,0,1,130.26,87V84.34a5.84,5.84,0,0,1,1.54-4.26A5.26,5.26,0,0,1,135.74,78.5Zm-.63,6.75a3.1,3.1,0,0,0-1.29.24,2,2,0,0,0-.82.66v.91a4.44,4.44,0,0,0,.58,2.49,1.8,1.8,0,0,0,1.56.87,1.56,1.56,0,0,0,1.35-.77,3.3,3.3,0,0,0,.51-1.86,3,3,0,0,0-.51-1.83A1.63,1.63,0,0,0,135.11,85.25Z" style="fill: #fff"/>
    <path d="M57.95,122.52a16,16,0,0,0-3,4.78,23.53,23.53,0,0,0-1.15,5.36L53.68,134H50.94l.13-1.39a19.62,19.62,0,0,1,1.37-5.52,17,17,0,0,1,2.87-4.62h-7v-2.11h9.63Z" style="fill: #fff"/>
    <path d="M99.66,123.69a3.13,3.13,0,0,1-.54,1.81,3.59,3.59,0,0,1-1.48,1.23A4,4,0,0,1,99.36,128,3.2,3.2,0,0,1,100,130a3.49,3.49,0,0,1-1.28,2.91,6.08,6.08,0,0,1-6.73,0A3.49,3.49,0,0,1,90.69,130a3.21,3.21,0,0,1,.62-2A4,4,0,0,1,93,126.71a3.54,3.54,0,0,1-1.49-1.22,3.11,3.11,0,0,1-.53-1.8,3.47,3.47,0,0,1,1.19-2.81,5.43,5.43,0,0,1,6.27,0A3.46,3.46,0,0,1,99.66,123.69Zm-2.42,6.1a2,2,0,0,0-.53-1.47,1.84,1.84,0,0,0-1.39-.55,1.81,1.81,0,0,0-1.38.55,2.05,2.05,0,0,0-.52,1.47,2,2,0,0,0,.52,1.47,1.86,1.86,0,0,0,1.4.54,1.83,1.83,0,0,0,1.38-.54A2,2,0,0,0,97.25,129.79Zm-.31-6a2,2,0,0,0-.44-1.33,1.48,1.48,0,0,0-1.17-.5,1.46,1.46,0,0,0-1.17.49,2,2,0,0,0-.42,1.33,2,2,0,0,0,.43,1.35,1.47,1.47,0,0,0,1.18.5,1.45,1.45,0,0,0,1.17-.5A2,2,0,0,0,96.94,123.81Z" style="fill: #fff"/>
    <path d="M134.2,131.91a2.2,2.2,0,0,0,1.75-.8,3.42,3.42,0,0,0,.68-2.28v-.67a3,3,0,0,1-1.09.88,3.14,3.14,0,0,1-1.36.3,3.78,3.78,0,0,1-3-1.24,4.9,4.9,0,0,1-1.09-3.36,4.72,4.72,0,0,1,1.29-3.39,4.69,4.69,0,0,1,6.68.08,5.81,5.81,0,0,1,1.3,4v3.22a5.21,5.21,0,0,1-1.46,3.9A5.09,5.09,0,0,1,134.2,134a7.71,7.71,0,0,1-1.47-.15,6.63,6.63,0,0,1-1.4-.43l.32-2a6.66,6.66,0,0,0,1.2.34A7.58,7.58,0,0,0,134.2,131.91Zm.44-4.58a2.61,2.61,0,0,0,1.18-.25,2.21,2.21,0,0,0,.81-.67v-1.25a4.08,4.08,0,0,0-.52-2.28,1.64,1.64,0,0,0-1.42-.78,1.57,1.57,0,0,0-1.34.77,3.26,3.26,0,0,0-.52,1.87,3.35,3.35,0,0,0,.47,1.88A1.52,1.52,0,0,0,134.64,127.33Z" style="fill: #fff"/>
    <path d="M52.58,167.73l-2.83-.83.53-1.66,2.78,1.15-.17-3.25h1.75l-.18,3.31,2.72-1.12.52,1.69-2.87.83,1.87,2.48-1.42,1-1.63-2.72-1.62,2.63-1.43-1Z" style="fill: #fff"/>
    <path d="M98.79,169.34a6,6,0,0,1-1.24,4.11,4.75,4.75,0,0,1-6.74,0,6,6,0,0,1-1.25-4.11v-3a6,6,0,0,1,1.24-4.11,4.72,4.72,0,0,1,6.73,0,6,6,0,0,1,1.25,4.11ZM96.06,166a4.48,4.48,0,0,0-.49-2.37,1.69,1.69,0,0,0-2.81,0,4.55,4.55,0,0,0-.48,2.38v3.55a4.56,4.56,0,0,0,.48,2.39,1.58,1.58,0,0,0,1.42.75,1.55,1.55,0,0,0,1.39-.75,4.59,4.59,0,0,0,.48-2.39Z" style="fill: #fff"/>
    <path d="M135.42,171.44h-1.8l-.67,3.83h-1.72l.67-3.83h-2.12v-1.59h2.4l.48-2.72h-2.17v-1.59h2.45l.68-3.9h1.71l-.68,3.9h1.8l.69-3.9h1.71l-.68,3.9h2.06v1.59h-2.34l-.48,2.72h2.11v1.59h-2.38l-.67,3.83h-1.72Zm-1.52-1.59h1.79l.48-2.72h-1.8Z" style="fill: #fff"/>
  </g>
  <g id="Connectors">
    <g>
      <rect data-name="&lt;Rectangle&gt;" height="32.4" id="_Rectangle_" style="fill: #363636" transform="translate(184.73 598.68) rotate(-180)" width="50.4" x="67.17" y="283.14"/>
      <rect height="7.2" style="fill: #353535" width="7.2" x="67.17" y="315.39"/>
      <polygon points="68.41 316.61 68.41 316.62 70.78 318.99 73.14 316.62 73.14 316.61 68.41 316.61" style="fill: #202020"/>
      <polygon points="68.41 321.35 68.41 321.35 70.78 318.97 73.15 321.34 73.15 321.35 68.41 321.35" style="fill: #4e4e4e"/>
      <polygon points="73.15 316.61 73.15 316.61 70.78 318.98 73.14 321.35 73.15 321.35 73.15 316.61" style="fill: #666"/>
      <polygon points="68.41 316.62 68.41 316.62 70.78 318.99 68.42 321.36 68.41 321.36 68.41 316.62" style="fill: #353535"/>
      <rect height="2.83" style="fill: #202020" width="2.83" x="69.36" y="317.56"/>
      <rect height="7.2" style="fill: #353535" width="7.2" x="74.37" y="315.39"/>
      <polygon points="75.61 316.61 75.61 316.62 77.98 318.99 80.34 316.62 80.34 316.61 75.61 316.61" style="fill: #202020"/>
      <polygon points="75.61 321.35 75.61 321.35 77.98 318.97 80.35 321.34 80.35 321.35 75.61 321.35" style="fill: #4e4e4e"/>
      <polygon points="80.35 316.61 80.35 316.61 77.97 318.98 80.34 321.35 80.35 321.35 80.35 316.61" style="fill: #666"/>
      <polygon points="75.61 316.62 75.61 316.62 77.98 318.99 75.62 321.36 75.61 321.36 75.61 316.62" style="fill: #353535"/>
      <rect height="2.83" style="fill: #202020" width="2.83" x="76.56" y="317.56"/>
      <rect height="7.2" style="fill: #353535" width="7.2" x="81.57" y="315.39"/>
      <polygon points="82.81 316.61 82.81 316.62 85.18 318.99 87.55 316.62 87.55 316.61 82.81 316.61" style="fill: #202020"/>
      <polygon points="82.81 321.35 82.81 321.35 85.18 318.97 87.55 321.34 87.55 321.35 82.81 321.35" style="fill: #4e4e4e"/>
      <polygon points="87.55 316.61 87.55 316.61 85.17 318.98 87.54 321.35 87.55 321.35 87.55 316.61" style="fill: #666"/>
      <polygon points="82.81 316.62 82.81 316.62 85.19 318.99 82.82 321.36 82.81 321.36 82.81 316.62" style="fill: #353535"/>
      <rect height="2.83" style="fill: #202020" width="2.83" x="83.76" y="317.56"/>
      <rect height="7.2" style="fill: #353535" width="7.2" x="88.77" y="315.39"/>
      <polygon points="90 316.61 90 316.62 92.38 318.99 94.75 316.62 94.75 316.61 90 316.61" style="fill: #202020"/>
      <polygon points="90.01 321.35 90.01 321.35 92.38 318.97 94.75 321.34 94.75 321.35 90.01 321.35" style="fill: #4e4e4e"/>
      <polygon points="94.75 316.61 94.75 316.61 92.38 318.98 94.74 321.35 94.75 321.35 94.75 316.61" style="fill: #666"/>
      <polygon points="90.01 316.62 90.01 316.62 92.39 318.99 90.02 321.36 90.01 321.36 90.01 316.62" style="fill: #353535"/>
      <rect height="2.83" style="fill: #202020" width="2.83" x="90.96" y="317.56"/>
      <rect height="7.2" style="fill: #353535" width="7.2" x="95.97" y="315.39"/>
      <polygon points="97.2 316.61 97.2 316.62 99.58 318.99 101.94 316.62 101.94 316.61 97.2 316.61" style="fill: #202020"/>
      <polygon points="97.21 321.35 97.21 321.35 99.58 318.97 101.95 321.34 101.95 321.35 97.21 321.35" style="fill: #4e4e4e"/>
      <polygon points="101.95 316.61 101.95 316.61 99.58 318.98 101.94 321.35 101.95 321.35 101.95 316.61" style="fill: #666"/>
      <polygon points="97.21 316.62 97.21 316.62 99.58 318.99 97.22 321.36 97.21 321.36 97.21 316.62" style="fill: #353535"/>
      <rect height="2.83" style="fill: #202020" width="2.83" x="98.16" y="317.56"/>
      <rect height="7.2" style="fill: #353535" width="7.2" x="103.17" y="315.39"/>
      <polygon points="104.41 316.61 104.41 316.62 106.78 318.99 109.14 316.62 109.14 316.61 104.41 316.61" style="fill: #202020"/>
      <polygon points="104.41 321.35 104.41 321.35 106.78 318.97 109.15 321.34 109.15 321.35 104.41 321.35" style="fill: #4e4e4e"/>
      <polygon points="109.15 316.61 109.15 316.61 106.78 318.98 109.14 321.35 109.15 321.35 109.15 316.61" style="fill: #666"/>
      <polygon points="104.41 316.62 104.41 316.62 106.78 318.99 104.42 321.36 104.41 321.36 104.41 316.62" style="fill: #353535"/>
      <rect height="2.83" style="fill: #202020" width="2.83" x="105.36" y="317.56"/>
      <rect height="7.2" style="fill: #353535" width="7.2" x="110.37" y="315.39"/>
      <polygon points="111.61 316.61 111.61 316.62 113.98 318.99 116.34 316.62 116.34 316.61 111.61 316.61" style="fill: #202020"/>
      <polygon points="111.61 321.35 111.61 321.35 113.98 318.97 116.35 321.34 116.35 321.35 111.61 321.35" style="fill: #4e4e4e"/>
      <polygon points="116.35 316.61 116.35 316.61 113.97 318.98 116.34 321.35 116.35 321.35 116.35 316.61" style="fill: #666"/>
      <polygon points="111.61 316.62 111.61 316.62 113.98 318.99 111.62 321.36 111.61 321.36 111.61 316.62" style="fill: #353535"/>
      <rect height="2.83" style="fill: #202020" width="2.83" x="112.56" y="317.56"/>
      <g>
        <g data-name="&lt;Group&gt;" id="_Group_">
          <rect data-name="&lt;Rectangle&gt;" height="6.24" id="_Rectangle_2" style="fill: url(#linear-gradient)" transform="translate(141.58 619.12) rotate(-180)" width="2.92" x="69.33" y="306.44"/>
        </g>
        <g data-name="&lt;Group&gt;" id="_Group_2">
          <rect data-name="&lt;Rectangle&gt;" height="6.24" id="_Rectangle_3" style="fill: url(#linear-gradient-2)" transform="translate(155.98 619.12) rotate(-180)" width="2.92" x="76.53" y="306.44"/>
        </g>
        <g data-name="&lt;Group&gt;" id="_Group_3">
          <rect data-name="&lt;Rectangle&gt;" height="6.24" id="_Rectangle_4" style="fill: url(#linear-gradient-3)" transform="translate(170.37 619.12) rotate(-180)" width="2.92" x="83.73" y="306.44"/>
        </g>
        <g data-name="&lt;Group&gt;" id="_Group_4">
          <rect data-name="&lt;Rectangle&gt;" height="6.24" id="_Rectangle_5" style="fill: url(#linear-gradient-4)" transform="translate(184.77 619.12) rotate(-180)" width="2.92" x="90.93" y="306.44"/>
        </g>
        <g data-name="&lt;Group&gt;" id="_Group_5">
          <rect data-name="&lt;Rectangle&gt;" height="6.24" id="_Rectangle_6" style="fill: url(#linear-gradient-5)" transform="translate(199.16 619.12) rotate(-180)" width="2.92" x="98.12" y="306.44"/>
        </g>
        <g data-name="&lt;Group&gt;" id="_Group_6">
          <rect data-name="&lt;Rectangle&gt;" height="6.24" id="_Rectangle_7" style="fill: url(#linear-gradient-6)" transform="translate(213.56 619.12) rotate(-180)" width="2.92" x="105.32" y="306.44"/>
        </g>
        <g data-name="&lt;Group&gt;" id="_Group_7">
          <rect data-name="&lt;Rectangle&gt;" height="6.24" id="_Rectangle_8" style="fill: url(#linear-gradient-7)" transform="translate(227.96 619.12) rotate(-180)" width="2.92" x="112.52" y="306.44"/>
        </g>
      </g>
    </g>
  </g>
  <g data-name="Layer 8" id="Layer_8">
    <rect data-name="7" height="2.83" id="_7" style="fill: #202020" width="2.83" x="69.36" y="317.56"/>
    <rect data-name="6" height="2.83" id="_6" style="fill: #202020" width="2.83" x="76.56" y="317.56"/>
    <rect data-name="5" height="2.83" id="_5" style="fill: #202020" width="2.83" x="83.76" y="317.56"/>
    <rect data-name="4" height="2.83" id="_4" style="fill: #202020" width="2.83" x="90.96" y="317.56"/>
    <rect data-name="3" height="2.83" id="_3" style="fill: #202020" width="2.83" x="98.16" y="317.56"/>
    <rect data-name="2" height="2.83" id="_2" style="fill: #202020" width="2.83" x="105.36" y="317.56"/>
    <rect data-name="1" height="2.83" id="_1" style="fill: #202020" width="2.83" x="112.56" y="317.56"/>
  </g>
  <g data-name="Layer 9" id="Layer_9">
    <rect height="12.02" style="fill: #aca9ad" width="2.27" x="76.85" y="317.56"/>
    <rect height="12.02" style="fill: #aca9ad" width="2.27" x="84.05" y="317.56"/>
    <rect height="12.02" style="fill: #aca9ad" width="2.27" x="69.65" y="317.56"/>
    <rect height="12.02" style="fill: #aca9ad" width="2.27" x="98.45" y="317.56"/>
    <rect height="12.02" style="fill: #aca9ad" width="2.27" x="105.65" y="317.56"/>
    <rect height="12.02" style="fill: #aca9ad" width="2.27" x="112.85" y="317.56"/>
    <rect height="12.02" style="fill: #aca9ad" width="2.27" x="91.25" y="317.56"/>
  </g>
  <g data-name="Layer 10" id="Layer_10">
    <rect height="2.83" id="circuitoCon_row1" style="fill: none" width="2.83" x="69.37" y="326.74"/>
    <rect height="2.83" id="circuitoCon_row2" style="fill: none" width="2.83" x="76.57" y="326.74"/>
    <rect height="2.83" id="circuitoCon_row3" style="fill: none" width="2.83" x="83.77" y="326.74"/>
    <rect height="2.83" id="circuitoCon_row4" style="fill: none" width="2.83" x="90.97" y="326.74"/>
    <rect height="2.83" id="circuitoCon_col1" style="fill: none" width="2.83" x="98.17" y="326.74"/>
    <rect height="2.83" id="circuitoCon_col2" style="fill: none" width="2.83" x="105.37" y="326.74"/>
    <rect height="2.83" id="circuitoCon_col3" style="fill: none" width="2.83" x="112.57" y="326.74"/>
  </g>
</svg>