<?xml version="1.0" ?><svg height="31.18mm" viewBox="0 0 36.9 88.37" width="13.02mm" xmlns="http://www.w3.org/2000/svg" xmlns:xlink="http://www.w3.org/1999/xlink">
  <defs>
    <linearGradient data-name="Silver 02" gradientTransform="matrix(0.98, 0.19, -0.19, 0.98, 3.32, -2.37)" gradientUnits="userSpaceOnUse" id="Silver_02" x1="14.01" x2="-8.22" y1="15.93" y2="19.68">
      <stop offset="0" stop-color="#bfbdbe"/>
      <stop offset="0.04" stop-color="#cccbcc"/>
      <stop offset="0.12" stop-color="#e4e3e4"/>
      <stop offset="0.2" stop-color="#f3f2f3"/>
      <stop offset="0.26" stop-color="#f8f7f8"/>
      <stop offset="0.31" stop-color="#f2f1f2"/>
      <stop offset="0.37" stop-color="#e1e0e1"/>
      <stop offset="0.43" stop-color="#c6c4c5"/>
      <stop offset="0.45" stop-color="#bfbdbe"/>
      <stop offset="0.58" stop-color="#bfbdbe"/>
      <stop offset="0.62" stop-color="#cecccd"/>
      <stop offset="0.7" stop-color="#e5e3e4"/>
      <stop offset="0.77" stop-color="#f2f0f1"/>
      <stop offset="0.83" stop-color="#f7f5f6"/>
      <stop offset="1" stop-color="#c0bebf"/>
    </linearGradient>
    <linearGradient gradientTransform="matrix(1, 0, 0, 1, 0, 0)" id="Silver_02-2" x1="10.15" x2="27.12" xlink:href="#Silver_02" y1="33.3" y2="33.3"/>
    <linearGradient data-name="Silver 03" gradientUnits="userSpaceOnUse" id="Silver_03" x1="18.68" x2="18.68" y1="43.47" y2="39.06">
      <stop offset="0" stop-color="#e5e2df"/>
      <stop offset="0" stop-color="#ded9d6"/>
      <stop offset="0.06" stop-color="#cfcac9"/>
      <stop offset="0.18" stop-color="#a8a4a7"/>
      <stop offset="0.26" stop-color="#8b878d"/>
      <stop offset="0.52" stop-color="#f3f4f4"/>
      <stop offset="0.58" stop-color="#e5e5e6"/>
      <stop offset="0.7" stop-color="#c0bec0"/>
      <stop offset="0.86" stop-color="#858085"/>
      <stop offset="0.88" stop-color="#807b80"/>
      <stop offset="1" stop-color="#d1d3d4"/>
      <stop offset="1" stop-color="#a7a9ac"/>
    </linearGradient>
    <linearGradient id="Silver_03-2" x1="18.51" x2="18.51" xlink:href="#Silver_03" y1="51.53" y2="47.12"/>
    <linearGradient gradientTransform="matrix(1, 0, 0, 1, 0, 0)" id="Silver_02-3" x1="9.02" x2="9.02" xlink:href="#Silver_02" y1="43.47" y2="39.27"/>
    <linearGradient gradientTransform="matrix(1, 0, 0, 1, 0, 0)" id="Silver_02-4" x1="28.4" x2="28.4" xlink:href="#Silver_02" y1="43.47" y2="39.27"/>
    <linearGradient gradientTransform="matrix(1, 0, 0, 1, 0, 0)" id="Silver_02-5" x1="18.72" x2="18.72" xlink:href="#Silver_02" y1="43.54" y2="39.06"/>
    <linearGradient gradientTransform="matrix(1, 0, 0, 1, 0, 0)" id="Silver_02-6" x1="8.82" x2="8.82" xlink:href="#Silver_02" y1="51.53" y2="47.32"/>
    <linearGradient gradientUnits="userSpaceOnUse" id="linear-gradient" x1="5.66" x2="11.98" y1="49.43" y2="49.43">
      <stop offset="0" stop-color="#fff"/>
      <stop offset="1"/>
    </linearGradient>
    <linearGradient gradientTransform="matrix(1, 0, 0, 1, 0, 0)" id="Silver_02-7" x1="28.2" x2="28.2" xlink:href="#Silver_02" y1="51.53" y2="47.32"/>
    <linearGradient id="linear-gradient-2" x1="25.05" x2="31.36" xlink:href="#linear-gradient" y1="49.43" y2="49.43"/>
    <linearGradient gradientTransform="matrix(1, 0, 0, 1, 0, 0)" id="Silver_02-8" x1="18.51" x2="18.51" xlink:href="#Silver_02" y1="51.6" y2="47.12"/>
    <linearGradient id="linear-gradient-3" x1="11.93" x2="25.09" xlink:href="#linear-gradient" y1="49.36" y2="49.36"/>
    <linearGradient gradientTransform="matrix(1, 0, 0, 1, 0, 0)" id="Silver_02-9" x1="3.85" x2="33.48" xlink:href="#Silver_02" y1="44.27" y2="44.27"/>
    <linearGradient gradientTransform="matrix(1, 0, 0, 1, 0, 0)" id="Silver_02-10" x1="0.03" x2="35.15" xlink:href="#Silver_02" y1="44.69" y2="44.69"/>
    <linearGradient gradientTransform="matrix(1, 0, 0, 1, 0, 0)" id="Silver_02-11" x1="4.9" x2="32.56" xlink:href="#Silver_02" y1="60.48" y2="60.48"/>
    <linearGradient gradientTransform="matrix(1, 0, 0, 1, 0, 0)" id="Silver_02-12" x1="0.58" x2="4.9" xlink:href="#Silver_02" y1="52.37" y2="52.37"/>
    <linearGradient gradientTransform="matrix(1, 0, 0, 1, 0, 0)" id="Silver_02-13" x1="32.56" x2="36.88" xlink:href="#Silver_02" y1="52.37" y2="52.37"/>
    <linearGradient data-name="Silver 01" gradientUnits="userSpaceOnUse" id="Silver_01" x1="4.9" x2="6.94" y1="82.89" y2="82.89">
      <stop offset="0" stop-color="#cbd1d6"/>
      <stop offset="0.2" stop-color="#bac0c5"/>
      <stop offset="0.43" stop-color="#aab1b5"/>
      <stop offset="0.52" stop-color="#b7bec2"/>
      <stop offset="0.84" stop-color="#e3eaed"/>
      <stop offset="1" stop-color="#f4fbfe"/>
    </linearGradient>
    <linearGradient id="Silver_01-2" x1="17.77" x2="19.81" xlink:href="#Silver_01" y1="82.89" y2="82.89"/>
    <linearGradient id="Silver_01-3" x1="30.52" x2="32.56" xlink:href="#Silver_01" y1="82.89" y2="82.89"/>
  </defs>
  <title>Mini Panel Mount SPDT Toggle Switch</title>
  <g data-name="Layer 2" id="Layer_2">
    <rect height="32.3" rx="4.02" ry="4.02" style="stroke: #7f7f7f;stroke-miterlimit: 10;stroke-width: 0.05249136919448059px;fill: url(#Silver_02)" transform="translate(-2.8 2.96) rotate(-11.07)" width="8.05" x="9.87" y="-0.2"/>
    <path d="M13.14,27.54h11a3,3,0,0,1,3,3v8.53a0,0,0,0,1,0,0h-17a0,0,0,0,1,0,0V30.53a3,3,0,0,1,3-3Z" style="stroke: #7f7f7f;stroke-miterlimit: 10;stroke-width: 0.05249136919448059px;fill: url(#Silver_02-2)"/>
    <rect height="4.41" style="fill: url(#Silver_03)" width="17.59" x="9.89" y="39.06"/>
    <rect height="4.41" style="fill: url(#Silver_03-2)" width="17.93" x="9.55" y="47.12"/>
    <path d="M5.89,40.47v1.67a4.42,4.42,0,0,0,6.27,0V40.47A4.7,4.7,0,0,0,5.89,40.47Z" style="stroke: #7f7f7f;stroke-miterlimit: 10;stroke-width: 0.05249136919448059px;fill: url(#Silver_02-3)"/>
    <path d="M25.27,40.47v1.67a4.42,4.42,0,0,0,6.27,0V40.47A4.7,4.7,0,0,0,25.27,40.47Z" style="stroke: #7f7f7f;stroke-miterlimit: 10;stroke-width: 0.05249136919448059px;fill: url(#Silver_02-4)"/>
    <path d="M12.16,40.47v1.67s5.19,3.15,13.11,0V40.47S20,37.29,12.16,40.47Z" style="stroke: #7f7f7f;stroke-miterlimit: 10;stroke-width: 0.05249136919448059px;fill: url(#Silver_02-5)"/>
    <path d="M5.69,48.53V50.2a4.41,4.41,0,0,0,6.26,0V48.53A4.68,4.68,0,0,0,5.69,48.53Z" style="stroke-miterlimit: 10;stroke-width: 0.05249136919448059px;fill: url(#Silver_02-6);stroke: url(#linear-gradient)"/>
    <path d="M25.07,48.53V50.2a4.42,4.42,0,0,0,6.27,0V48.53A4.7,4.7,0,0,0,25.07,48.53Z" style="stroke-miterlimit: 10;stroke-width: 0.05249136919448059px;fill: url(#Silver_02-7);stroke: url(#linear-gradient-2)"/>
    <path d="M12,48.53V50.2s5.19,3.15,13.12,0V48.53S19.78,45.35,12,48.53Z" style="stroke-miterlimit: 10;stroke-width: 0.05249136919448059px;fill: url(#Silver_02-8);stroke: url(#linear-gradient-3)"/>
    <rect height="1.6" style="stroke: #7f7f7f;stroke-miterlimit: 10;stroke-width: 0.05249136919448059px;fill: url(#Silver_02-9)" width="29.63" x="3.85" y="43.47"/>
    <path d="M2.43,45.07v-3H0v3.22a2,2,0,0,0,2.05,2h.35v-.2H35.15v-2Z" style="stroke: #7f7f7f;stroke-miterlimit: 10;stroke-width: 0.05249136919448059px;fill: url(#Silver_02-10)"/>
    <rect height="25.82" style="fill: #007af4" width="27.65" x="4.9" y="51.6"/>
    <polygon points="32.56 51.6 4.9 51.6 4.9 67.91 9.84 67.91 9.87 69.36 13.82 69.36 13.79 67.91 23.57 67.91 23.57 69.36 27.65 69.36 27.68 67.91 32.56 67.91 32.56 51.6" style="stroke: #7f7f7f;stroke-miterlimit: 10;stroke-width: 0.05249136919448059px;fill: url(#Silver_02-11)"/>
    <rect height="1.69" style="stroke: #7f7f7f;stroke-miterlimit: 10;stroke-width: 0.05249136919448059px;fill: url(#Silver_02-12)" width="4.32" x="0.58" y="51.53"/>
    <rect height="1.69" style="stroke: #7f7f7f;stroke-miterlimit: 10;stroke-width: 0.05249136919448059px;fill: url(#Silver_02-13)" width="4.32" x="32.56" y="51.53"/>
    <rect height="24.2" style="fill: #007af4" width="4.32" x="0.58" y="53.22"/>
    <rect height="24.2" style="fill: #007af4" width="4.32" x="32.56" y="53.22"/>
    <rect height="9.51" style="fill: #007af4" width="9.78" x="13.79" y="67.91"/>
    <rect height="10.96" style="fill: url(#Silver_01)" width="2.04" x="4.9" y="77.42"/>
    <rect height="10.96" style="fill: url(#Silver_01-2)" width="2.04" x="17.77" y="77.42"/>
    <rect height="10.96" style="fill: url(#Silver_01-3)" width="2.04" x="30.52" y="77.42"/>
    <rect height="8.06" style="fill: #0058b0" width="3.92" x="9.87" y="69.36"/>
    <rect height="8.06" style="fill: #0058b0" width="3.92" x="23.56" y="69.36"/>
  </g>
  <g id="Connectors">
    <rect data-cir-type="male" height="2.07" id="circuitoCon_1" style="fill: none" width="2.07" x="4.9" y="86.3"/>
    <rect data-cir-type="male" height="2.07" id="circuitoCon_2" style="fill: none" width="2.07" x="17.76" y="86.3"/>
  </g>
</svg>