<?xml version="1.0" ?><svg height="13.49mm" viewBox="0 0 93.26 38.25" width="32.9mm" xmlns="http://www.w3.org/2000/svg" xmlns:xlink="http://www.w3.org/1999/xlink">
  <defs>
    <radialGradient cx="-17.61" cy="171.66" gradientTransform="translate(29.78 -145.55)" gradientUnits="userSpaceOnUse" id="radial-gradient" r="9.27">
      <stop offset="0" stop-color="#fff"/>
      <stop offset="0.21" stop-color="#eceeef"/>
      <stop offset="0.22" stop-color="#eaeced"/>
      <stop offset="0.47" stop-color="#c1c9d2"/>
      <stop offset="0.66" stop-color="#a8b4c0"/>
      <stop offset="0.78" stop-color="#9facba"/>
      <stop offset="0.83" stop-color="#a5b2bf"/>
      <stop offset="0.9" stop-color="#b8c3cb"/>
      <stop offset="0.96" stop-color="#ccd7da"/>
      <stop offset="1" stop-color="#d7e2e6"/>
    </radialGradient>
    <radialGradient cx="-17.62" cy="171.18" gradientTransform="translate(28.95 -145.21)" gradientUnits="userSpaceOnUse" id="radial-gradient-2" r="8.38">
      <stop offset="0" stop-color="#fff"/>
      <stop offset="0.59" stop-color="#a3a8ae"/>
      <stop offset="1" stop-color="#616973"/>
    </radialGradient>
    <linearGradient gradientTransform="translate(-98.86 -106.89) rotate(-45)" gradientUnits="userSpaceOnUse" id="linear-gradient" x1="-17.65" x2="-17.65" y1="171.15" y2="178.57">
      <stop offset="0" stop-color="#fff"/>
      <stop offset="1" stop-color="#cbcfd3"/>
    </linearGradient>
    <linearGradient id="linear-gradient-2" x1="-17.65" x2="-17.65" xlink:href="#linear-gradient" y1="173.33" y2="174.26"/>
    <radialGradient cx="-17.55" cy="176" gradientTransform="translate(-98.86 -106.89) rotate(-45)" gradientUnits="userSpaceOnUse" id="radial-gradient-3" r="4.03">
      <stop offset="0" stop-color="#858c94"/>
      <stop offset="0.31" stop-color="#7e858e"/>
      <stop offset="0.75" stop-color="#6a727c"/>
      <stop offset="1" stop-color="#5d6570"/>
    </radialGradient>
    <radialGradient cx="-5.34" cy="159.3" gradientTransform="translate(17.45 -150.6)" id="radial-gradient-4" r="9.27" xlink:href="#radial-gradient"/>
    <radialGradient cx="-5.35" cy="158.82" gradientTransform="translate(16.62 -150.26)" id="radial-gradient-5" r="8.38" xlink:href="#radial-gradient-2"/>
    <linearGradient id="linear-gradient-3" x1="-5.38" x2="-5.38" xlink:href="#linear-gradient" y1="158.79" y2="166.21"/>
    <linearGradient id="linear-gradient-4" x1="-5.38" x2="-5.38" xlink:href="#linear-gradient" y1="160.97" y2="161.9"/>
    <radialGradient cx="-5.28" cy="163.64" id="radial-gradient-6" r="4.03" xlink:href="#radial-gradient-3"/>
  </defs>
  <title>Current Sensor Module ACS712</title>
  <g style="isolation: isolate">
    <g data-name="background spate" id="background_spate">
      <path d="M92.14,13s0-.07,0-.1V8.34s0-.07,0-.1Z" style="fill: #2f2f30" transform="translate(-0.05 -0.47)"/>
      <path d="M90.72,6.91H85a1.43,1.43,0,0,0-1.43,1.43v4.53A1.43,1.43,0,0,0,85,14.3h5.75A1.43,1.43,0,0,0,92.14,13V8.23A1.43,1.43,0,0,0,90.72,6.91Zm-3.07,5.86a2.07,2.07,0,1,1,2.07-2.07A2.07,2.07,0,0,1,87.65,12.77Z" style="fill: #0b5597" transform="translate(-0.05 -0.47)"/>
      <path d="M92.15,22V17.42s0-.07,0-.1v4.74S92.15,22,92.15,22Z" style="fill: #2f2f30" transform="translate(-0.05 -0.47)"/>
      <path d="M90.72,16H85a1.43,1.43,0,0,0-1.43,1.43V22A1.43,1.43,0,0,0,85,23.38h5.75a1.43,1.43,0,0,0,1.42-1.32V17.32A1.43,1.43,0,0,0,90.72,16Zm-3.07,5.84a2.07,2.07,0,1,1,2.07-2.07A2.07,2.07,0,0,1,87.65,21.83Z" style="fill: #0b5597" transform="translate(-0.05 -0.47)"/>
      <path d="M92.15,31V26.42s0-.07,0-.1v4.74S92.15,31,92.15,31Z" style="fill: #2f2f30" transform="translate(-0.05 -0.47)"/>
      <path d="M90.72,25H85a1.43,1.43,0,0,0-1.43,1.43V31A1.43,1.43,0,0,0,85,32.38h5.75a1.43,1.43,0,0,0,1.42-1.32V26.32A1.43,1.43,0,0,0,90.72,25Zm-3.07,5.77a2.07,2.07,0,1,1,2.07-2.07A2.07,2.07,0,0,1,87.65,30.76Z" style="fill: #0b5597" transform="translate(-0.05 -0.47)"/>
      <path d="M90.72,14.3H85a1.43,1.43,0,0,1-1.43-1.43V8.34A1.43,1.43,0,0,1,85,6.91h5.75a1.43,1.43,0,0,1,1.42,1.32V1.81H78.26V3.6H62.78V1.81H50.95a6,6,0,0,1,.25,5.35,6.13,6.13,0,0,1-4.69,3.27A6,6,0,0,1,41.67,7.6a5.65,5.65,0,0,1,.13-5.79H5.38v34.7H41.54a5,5,0,0,1,4.91-7.88A5.07,5.07,0,0,1,51,36.33H92.14V31.06a1.43,1.43,0,0,1-1.42,1.32H85A1.43,1.43,0,0,1,83.54,31V26.42A1.43,1.43,0,0,1,85,25h5.75a1.43,1.43,0,0,1,1.42,1.32V22.06a1.43,1.43,0,0,1-1.42,1.32H85A1.43,1.43,0,0,1,83.54,22V17.42A1.43,1.43,0,0,1,85,16h5.75a1.43,1.43,0,0,1,1.42,1.32V13A1.43,1.43,0,0,1,90.72,14.3Z" style="fill: #0b5597" transform="translate(-0.05 -0.47)"/>
    </g>
    <g data-name="conectoare 2" id="conectoare_2">
      <polygon points="77.48 14 76.21 13.02 78.3 12.72 78.53 14.07 77.48 14.07 77.48 14" style="fill: #0b2f60"/>
      <circle cx="80.22" cy="4.3" r="0.67" style="fill: #0b2f60"/>
    </g>
    <g data-name="BLUE CON" id="BLUE_CON">
      <polyline points="33.99 24.11 39.74 24.42 39.83 25.7 38.22 25.91 33.99 26.46" style="fill: #72a0e1"/>
      <polyline points="33.99 20.28 39.74 20.59 39.83 21.87 38.22 22.08 33.99 22.63" style="fill: #72a0e1"/>
      <polyline points="33.99 14.71 39.74 15.03 39.83 16.3 38.22 16.51 33.99 17.06" style="fill: #72a0e1"/>
      <polyline points="33.99 10.71 39.74 11.03 39.83 12.3 38.22 12.51 33.99 13.06" style="fill: #72a0e1"/>
    </g>
    <g data-name="Layer 15" id="Layer_15">
      <g>
        <rect height="2.33" style="fill: #1a2c80" width="0.98" x="76.66" y="2.55"/>
        <rect height="2.3" style="fill: #1a2c80" width="1.33" x="76.54" y="5.78"/>
        <g>
          <polygon points="83.12 9.22 67.93 9.22 67.93 8.14 67.93 7.65 83.12 7.65 83.12 9.22" style="fill: #1a2c80"/>
          <polyline points="67.21 8.9 67.93 8.08 67.93 8.9" style="fill: #1a2c80"/>
        </g>
        <rect height="3.32" style="fill: #1a2c80" width="5.25" x="77.74" y="14.91"/>
        <rect height="3.41" style="fill: #1a2c80" width="13.09" x="63.37" y="14.63"/>
        <rect height="3.28" style="fill: #1a2c80" width="13.72" x="69.4" y="19.29"/>
        <rect height="1.47" style="fill: #1a2c80" width="4.66" x="78.46" y="23.57"/>
        <g>
          <rect height="3.24" style="fill: #1a2c80" width="1.71" x="64.31" y="8.34"/>
          <rect height="0.59" rx="0.27" ry="0.27" style="fill: #1a2c80" width="2.43" x="63.6" y="11.33"/>
          <rect height="1.58" style="fill: #1a2c80" width="8.19" x="52.65" y="9.75"/>
          <rect height="1.53" style="fill: #1a2c80" width="2.79" x="60.31" y="10.1"/>
          <rect height="7.54" style="fill: #1a2c80" width="1.27" x="63.04" y="2.88"/>
          <path d="M62,11.28a3,3,0,0,0,1.77-1.77,2.74,2.74,0,0,0,.08-1.39" style="fill: #1a2c80" transform="translate(-0.05 -0.47)"/>
        </g>
        <rect height="2.33" style="fill: #1a2c80" width="6.98" x="52.84" y="13.29"/>
        <polygon points="59.6 12.94 63.05 13.83 63.15 18.23 61.92 18.23 59.6 16.28 59.6 12.94" style="fill: #1a2c80"/>
        <rect height="2.16" style="fill: #1a2c80" width="6.47" x="52.84" y="17.68"/>
        <path d="M59.33,18.15l1.56,1.47,2.2.34v4.17l-3.82-3.86Z" style="fill: #1a2c80" transform="translate(-0.05 -0.47)"/>
        <rect height="1.85" style="fill: #1a2c80" width="6.39" x="52.84" y="22.3"/>
        <polyline points="58.66 22.69 58.66 21.9 59.6 22.17 61.47 23.76 61.62 27.61 63.1 29.26 62.41 30.82 60.12 28.44 59.82 27.65 56.93 27.61 56.93 26.36 59.39 26.36 59.23 24.15" style="fill: #1a2c80"/>
        <rect height="1.23" style="fill: #1a2c80" width="3.26" x="52.84" y="26.36"/>
        <polygon points="66.65 25.91 67.53 26.97 64.96 26.97 64.81 25.91 66.65 25.91" style="fill: #1a2c80"/>
        <polygon points="68.06 25.91 68.65 26.97 77.53 26.97 77.53 23.57 69.53 24.15 68.06 25.91" style="fill: #1a2c80"/>
        <polygon points="77.53 15.16 76.26 15.62 76.26 17.91 79.15 18.04 78.21 15.16 77.53 15.16" style="fill: #1a2c80"/>
        <rect height="3.22" style="fill: #1a2c80" width="10.66" x="69.71" y="10.23"/>
        <rect height="3.72" style="fill: #1a2c80" width="5.38" x="77.74" y="10.35"/>
        <polyline points="30.5 9.68 35.81 9.68 38.7 9.68 40.01 11.13 40.01 25.93 37.71 27.43 30.5 27.43" style="fill: none;stroke: #1a2c80;stroke-linecap: round;stroke-linejoin: round;stroke-width: 1.5px"/>
        <line style="fill: none;stroke: #1a2c80;stroke-linecap: round;stroke-linejoin: round;stroke-width: 1.5px" x1="39.83" x2="31.62" y1="18.56" y2="18.56"/>
      </g>
    </g>
    <g id="connector">
      <rect height="4.12" style="fill: #fffff8" transform="translate(46.36 93.64) rotate(-90)" width="4.17" x="68.18" y="21.8"/>
      <g>
        <g>
          <line style="fill: none;stroke: #bcbcbc;stroke-linecap: round;stroke-miterlimit: 10" x1="76.45" x2="76.45" y1="12.04" y2="17.13"/>
          <line style="fill: none;stroke: #bcbcbc;stroke-linecap: round;stroke-miterlimit: 10" x1="64.25" x2="64.25" y1="12.04" y2="17.13"/>
          <rect height="12.21" rx="0.58" ry="0.58" style="fill: #e2e2e2" transform="translate(85.23 -55.99) rotate(90)" width="5.61" x="67.59" y="8.78"/>
        </g>
        <rect height="5.72" style="fill: #1d1e1b" transform="translate(85.35 -56.11) rotate(90)" width="5.61" x="67.71" y="12.02"/>
      </g>
      <g>
        <rect height="3.91" style="fill: #b1aeaa" transform="translate(33.64 98.34) rotate(-90)" width="4.39" x="64.05" y="30.61"/>
        <rect height="3.91" style="fill: #b1aeaa" transform="translate(41.85 106.55) rotate(-90)" width="4.39" x="72.26" y="30.61"/>
        <rect height="6.76" style="fill: #b1b0a7" transform="translate(37.85 102.65) rotate(-90)" width="5.01" x="68" y="29.24"/>
        <rect height="4.63" style="fill: #bda368" transform="translate(37.86 102.66) rotate(-90)" width="5.01" x="68.01" y="30.3"/>
      </g>
      <g>
        <rect height="3.91" style="fill: #b1aeaa" transform="translate(60.15 71.83) rotate(-90)" width="4.39" x="64.05" y="4.1"/>
        <rect height="3.91" style="fill: #b1aeaa" transform="translate(68.36 80.04) rotate(-90)" width="4.39" x="72.26" y="4.1"/>
        <rect height="6.76" style="fill: #b1b0a7" transform="translate(64.36 76.14) rotate(-90)" width="5.01" x="68" y="2.72"/>
        <rect height="4.63" style="fill: #bda368" transform="translate(64.37 76.15) rotate(-90)" width="5.01" x="68.01" y="3.79"/>
      </g>
      <rect height="4.49" style="fill: #b1aeaa" transform="translate(43.6 90.72) rotate(-90)" width="5.15" x="64.85" y="21.53"/>
      <rect height="4.49" style="fill: #b1aeaa" transform="translate(49.76 96.88) rotate(-90)" width="5.15" x="71" y="21.53"/>
    </g>
    <g id="DREPT">
      <rect height="35.57" style="fill: #6dbbfc" width="28.54" y="1.35"/>
      <rect height="34.47" style="fill: #3591ec" width="2.25" x="28.49" y="1.34"/>
      <line style="fill: #0b5597" x1="84.52" x2="85.47" y1="37.71" y2="38.25"/>
    </g>
    <g data-name="Layer 22" id="Layer_22">
      <circle cx="11.93" cy="11.11" r="7.48" style="fill: #4aa8fe"/>
    </g>
    <g data-name="PATRAT COLT" id="PATRAT_COLT-2">
      <rect height="2.26" rx="0.2" ry="0.2" style="fill: #fff" width="2.33" x="86.44" y="18.17"/>
      <rect height="2.26" rx="0.2" ry="0.2" style="fill: #fff" width="2.33" x="86.5" y="9.09"/>
      <rect height="2.26" rx="0.2" ry="0.2" style="fill: #fff" width="2.33" x="86.44" y="27.17"/>
    </g>
    <g id="linii">
      <line style="fill: none;stroke: #fff;stroke-linecap: round;stroke-miterlimit: 10;stroke-width: 0.5px" x1="40.01" x2="45.29" y1="9.92" y2="9.92"/>
      <path d="M47.66,10.4l5.18.08q0,.25,0,.51t0,.5" style="fill: none;stroke: #fff;stroke-linecap: round;stroke-miterlimit: 10;stroke-width: 0.5px" transform="translate(-0.05 -0.47)"/>
      <line style="fill: none;stroke: #fff;stroke-linecap: round;stroke-miterlimit: 10;stroke-width: 0.5px" x1="52.85" x2="52.85" y1="21.76" y2="24.19"/>
      <line style="fill: none;stroke: #fff;stroke-linecap: round;stroke-miterlimit: 10;stroke-width: 0.5px" x1="52.85" x2="52.85" y1="17.49" y2="19.79"/>
      <line style="fill: none;stroke: #fff;stroke-linecap: round;stroke-miterlimit: 10;stroke-width: 0.5px" x1="52.85" x2="52.85" y1="13.11" y2="15.56"/>
      <path d="M52.88,26.89a5.24,5.24,0,0,1,0,.63,1.23,1.23,0,0,1-.12.63.81.81,0,0,1-.27.26h-12a.25.25,0,0,1-.16-.08s0-.07-.05-.18a1.78,1.78,0,0,1,0-.29" style="fill: none;stroke: #fff;stroke-linecap: round;stroke-miterlimit: 10;stroke-width: 0.5px" transform="translate(-0.05 -0.47)"/>
      <g>
        <line style="fill: none;stroke: #fff;stroke-miterlimit: 10;stroke-width: 1.2000000000000002px" x1="51.73" x2="52.65" y1="12.28" y2="12.28"/>
        <line style="fill: none;stroke: #fff;stroke-miterlimit: 10;stroke-width: 1.2000000000000002px" x1="52.46" x2="59.05" y1="12.29" y2="12.29"/>
        <line style="fill: none;stroke: #fff;stroke-miterlimit: 10;stroke-width: 0.5px" x1="52.85" x2="52.85" y1="11.82" y2="11.24"/>
        <line style="fill: none;stroke: #fff;stroke-miterlimit: 10;stroke-width: 0.5px" x1="52.85" x2="52.85" y1="13.29" y2="12.71"/>
        <path d="M59,12.29a2.8,2.8,0,0,1,.36.34l.06.08,0,.06,0,.08a.13.13,0,0,1,0,0,.16.16,0,0,1,0,.09.46.46,0,0,1-.12.1l-.13.07a.69.69,0,0,1-.2,0,.53.53,0,0,1-.37,0c-.21-.17,0-.65,0-.76a.22.22,0,0,1,.09-.11A.27.27,0,0,1,59,12.29Z" style="fill: none;stroke: #fff;stroke-miterlimit: 10;stroke-width: 0.25px" transform="translate(-0.05 -0.47)"/>
        <ellipse cx="58.98" cy="12.15" rx="0.15" ry="0.18" style="fill: none;stroke: #fff;stroke-miterlimit: 10;stroke-width: 0.25px"/>
        <ellipse cx="59.16" cy="12.45" rx="0.1" ry="0.12" style="fill: none;stroke: #fff;stroke-miterlimit: 10;stroke-width: 0.25px"/>
        <ellipse cx="59.21" cy="12.45" rx="0.08" ry="0.07" style="fill: none;stroke: #fff;stroke-miterlimit: 10;stroke-width: 0.25px"/>
      </g>
      <g>
        <line style="fill: none;stroke: #fff;stroke-miterlimit: 10;stroke-width: 1.2000000000000002px" x1="51.73" x2="52.65" y1="16.48" y2="16.48"/>
        <line style="fill: none;stroke: #fff;stroke-miterlimit: 10;stroke-width: 1.2000000000000002px" x1="52.46" x2="59.05" y1="16.49" y2="16.49"/>
        <line style="fill: none;stroke: #fff;stroke-miterlimit: 10;stroke-width: 0.5px" x1="52.85" x2="52.85" y1="16.03" y2="15.44"/>
        <line style="fill: none;stroke: #fff;stroke-miterlimit: 10;stroke-width: 0.5px" x1="52.85" x2="52.85" y1="17.49" y2="16.91"/>
        <path d="M59,16.49a2.8,2.8,0,0,1,.36.34l.06.08,0,.06,0,.08a.13.13,0,0,1,0,.05.16.16,0,0,1,0,.09.46.46,0,0,1-.12.1l-.13.07a.69.69,0,0,1-.2,0,.53.53,0,0,1-.37,0c-.21-.17,0-.65,0-.76a.22.22,0,0,1,.09-.11A.27.27,0,0,1,59,16.49Z" style="fill: none;stroke: #fff;stroke-miterlimit: 10;stroke-width: 0.25px" transform="translate(-0.05 -0.47)"/>
        <ellipse cx="58.98" cy="16.35" rx="0.15" ry="0.18" style="fill: none;stroke: #fff;stroke-miterlimit: 10;stroke-width: 0.25px"/>
        <ellipse cx="59.16" cy="16.65" rx="0.1" ry="0.12" style="fill: none;stroke: #fff;stroke-miterlimit: 10;stroke-width: 0.25px"/>
        <ellipse cx="59.21" cy="16.65" rx="0.08" ry="0.07" style="fill: none;stroke: #fff;stroke-miterlimit: 10;stroke-width: 0.25px"/>
      </g>
      <g>
        <line style="fill: none;stroke: #fff;stroke-miterlimit: 10;stroke-width: 1.2000000000000002px" x1="51.73" x2="52.65" y1="20.74" y2="20.74"/>
        <line style="fill: none;stroke: #fff;stroke-miterlimit: 10;stroke-width: 1.2000000000000002px" x1="52.46" x2="59.05" y1="20.74" y2="20.74"/>
        <line style="fill: none;stroke: #fff;stroke-miterlimit: 10;stroke-width: 0.5px" x1="52.85" x2="52.85" y1="20.28" y2="19.7"/>
        <line style="fill: none;stroke: #fff;stroke-miterlimit: 10;stroke-width: 0.5px" x1="52.85" x2="52.85" y1="21.75" y2="21.17"/>
        <path d="M59,20.75a2.81,2.81,0,0,1,.36.34l.06.08,0,.06,0,.08a.13.13,0,0,1,0,0,.16.16,0,0,1,0,.09.46.46,0,0,1-.12.1l-.13.07a.69.69,0,0,1-.2,0,.53.53,0,0,1-.37,0c-.21-.17,0-.65,0-.76a.22.22,0,0,1,.09-.11A.27.27,0,0,1,59,20.75Z" style="fill: none;stroke: #fff;stroke-miterlimit: 10;stroke-width: 0.25px" transform="translate(-0.05 -0.47)"/>
        <ellipse cx="58.98" cy="20.61" rx="0.15" ry="0.18" style="fill: none;stroke: #fff;stroke-miterlimit: 10;stroke-width: 0.25px"/>
        <ellipse cx="59.16" cy="20.91" rx="0.1" ry="0.12" style="fill: none;stroke: #fff;stroke-miterlimit: 10;stroke-width: 0.25px"/>
        <ellipse cx="59.21" cy="20.9" rx="0.08" ry="0.07" style="fill: none;stroke: #fff;stroke-miterlimit: 10;stroke-width: 0.25px"/>
      </g>
      <g>
        <line style="fill: none;stroke: #fff;stroke-miterlimit: 10;stroke-width: 1.2000000000000002px" x1="51.73" x2="52.65" y1="25.23" y2="25.23"/>
        <line style="fill: none;stroke: #fff;stroke-miterlimit: 10;stroke-width: 1.2000000000000002px" x1="52.46" x2="59.05" y1="25.23" y2="25.23"/>
        <line style="fill: none;stroke: #fff;stroke-miterlimit: 10;stroke-width: 0.5px" x1="52.85" x2="52.85" y1="24.77" y2="24.19"/>
        <line style="fill: none;stroke: #fff;stroke-miterlimit: 10;stroke-width: 0.5px" x1="52.85" x2="52.85" y1="26.24" y2="25.65"/>
        <path d="M59,25.24a2.81,2.81,0,0,1,.36.34l.06.08,0,.06,0,.08a.13.13,0,0,1,0,.05.16.16,0,0,1,0,.09.46.46,0,0,1-.12.1l-.13.07a.69.69,0,0,1-.2,0,.53.53,0,0,1-.37,0c-.21-.17,0-.65,0-.76a.22.22,0,0,1,.09-.11A.27.27,0,0,1,59,25.24Z" style="fill: none;stroke: #fff;stroke-miterlimit: 10;stroke-width: 0.25px" transform="translate(-0.05 -0.47)"/>
        <ellipse cx="58.98" cy="25.1" rx="0.15" ry="0.18" style="fill: none;stroke: #fff;stroke-miterlimit: 10;stroke-width: 0.25px"/>
        <ellipse cx="59.16" cy="25.4" rx="0.1" ry="0.12" style="fill: none;stroke: #fff;stroke-miterlimit: 10;stroke-width: 0.25px"/>
        <ellipse cx="59.21" cy="25.39" rx="0.08" ry="0.07" style="fill: none;stroke: #fff;stroke-miterlimit: 10;stroke-width: 0.25px"/>
      </g>
      <line style="fill: none;stroke: #fff;stroke-miterlimit: 10;stroke-width: 0.5px" x1="52.85" x2="52.85" y1="11.34" y2="10.73"/>
      <line style="fill: none;stroke: #fff;stroke-miterlimit: 10;stroke-width: 0.5px" x1="52.85" x2="52.85" y1="26.76" y2="25.79"/>
      <path d="M37.38,26.84" style="fill: #72a0e1" transform="translate(-0.05 -0.47)"/>
      <g>
        <path d="M69,2.23h-4.6A5.56,5.56,0,0,0,62.8,6a5.59,5.59,0,0,0,1.63,4H69" style="fill: none;stroke: #f3ffff;stroke-linecap: round;stroke-miterlimit: 10" transform="translate(-0.05 -0.47)"/>
        <path d="M72,10h4.6a5.56,5.56,0,0,0,1.63-3.73,5.59,5.59,0,0,0-1.62-4H72" style="fill: none;stroke: #f3ffff;stroke-linecap: round;stroke-miterlimit: 10" transform="translate(-0.05 -0.47)"/>
      </g>
      <g>
        <path d="M68.75,29.08h-4.6a5.43,5.43,0,0,0,0,7.75h4.6" style="fill: none;stroke: #f3ffff;stroke-linecap: round;stroke-miterlimit: 10" transform="translate(-0.05 -0.47)"/>
        <path d="M71.77,36.83h4.6a5.43,5.43,0,0,0,0-7.75h-4.6" style="fill: none;stroke: #f3ffff;stroke-linecap: round;stroke-miterlimit: 10" transform="translate(-0.05 -0.47)"/>
      </g>
      <polyline points="68.84 10.73 63.29 10.73 63.29 18.3 68.58 18.3" style="fill: none;stroke: #f3ffff;stroke-linecap: round;stroke-miterlimit: 10;stroke-width: 0.8px"/>
      <polyline points="72.07 10.73 77.84 10.73 77.84 18.3 72.33 18.3" style="fill: none;stroke: #f3ffff;stroke-linecap: round;stroke-miterlimit: 10;stroke-width: 0.8px"/>
      <polyline points="72.54 19.61 77.93 19.61 77.93 27.42 73.89 27.42 72.06 27.42" style="fill: none;stroke: #f3ffff;stroke-linecap: round;stroke-miterlimit: 10;stroke-width: 0.8px"/>
      <g>
        <g>
          <polyline points="67.61 19.79 64.25 19.79 64.25 27.24 68.73 27.24" style="fill: none;stroke: #f3ffff;stroke-linecap: round;stroke-miterlimit: 10;stroke-width: 0.8px"/>
          <polyline points="63.59 19.79 63.2 19.79 63.2 27.24 64.45 27.24" style="fill: none;stroke: #f3ffff;stroke-linecap: round;stroke-miterlimit: 10;stroke-width: 0.8px"/>
        </g>
        <line style="fill: none;stroke: #f3ffff;stroke-linecap: round;stroke-miterlimit: 10;stroke-width: 0.8px" x1="63.31" x2="64.46" y1="19.79" y2="19.79"/>
      </g>
    </g>
    <g data-name="linii negre" id="linii_negre">
      <line style="fill: none;stroke: #231f20;stroke-miterlimit: 10;stroke-width: 0.4px" x1="52.19" x2="52.19" y1="21.34" y2="24.63"/>
      <line style="fill: none;stroke: #231f20;stroke-miterlimit: 10;stroke-width: 0.4px" x1="52.19" x2="52.19" y1="17.08" y2="20.14"/>
      <line style="fill: none;stroke: #231f20;stroke-miterlimit: 10;stroke-width: 0.4px" x1="52.19" x2="52.19" y1="12.87" y2="15.89"/>
      <path d="M52.23,26.34v.59a.54.54,0,0,1-.14.44.58.58,0,0,1-.28.11,1,1,0,0,1-.34,0" style="fill: none;stroke: #231f20;stroke-miterlimit: 10;stroke-width: 0.4px" transform="translate(-0.05 -0.47)"/>
    </g>
    <g data-name="conector principal" id="conector_principal">
      <g>
        <rect height="15.54" style="fill: #454748" width="11.22" x="40.51" y="10.7"/>
        <circle cx="42.27" cy="12.84" r="0.95" style="fill: #231f20"/>
      </g>
    </g>
    <g id="text">
      <g>
        <path d="M81.42,32.51a.22.22,0,0,1-.44,0V31.7h.87a.64.64,0,0,1,.69.66v.71a.61.61,0,0,1-.18.48.66.66,0,0,1-.54.2h-1.1a.93.93,0,0,1-.64-.22L79.41,33a.62.62,0,0,1-.3-.58V31.9a.22.22,0,0,1,.44,0v.5c0,.23,0,.21.18.35l.61.45a.87.87,0,0,0,.57.13h.86c.24,0,.32,0,.32-.29v-.66c0-.15,0-.27-.23-.27h-.45Z" style="fill: #fff" transform="translate(-0.05 -0.47)"/>
        <path d="M81,30.31h1.23c.15,0,.29,0,.29.2s-.15.2-.29.2H80.48c-.15,0-.31,0-.31-.2s.16-.2.31-.2h.06L80.31,30a.63.63,0,0,1-.14-.34v-.29a.49.49,0,0,1,.15-.37.69.69,0,0,1,.57-.18l1.33,0c.15,0,.32,0,.32.2s-.15.2-.29.2l-1.3,0c-.26,0-.36,0-.36.27v.13a.23.23,0,0,0,0,.12Z" style="fill: #fff" transform="translate(-0.05 -0.47)"/>
        <path d="M80.16,26.64a.56.56,0,0,1,.23-.39l.08-.07h-.89c-.15,0-.29,0-.29-.2s.15-.2.29-.2h2.66c.15,0,.3,0,.3.2s-.14.2-.28.2h0l.09.09a.62.62,0,0,1,.22.38V27a.59.59,0,0,1-.15.34l-.12.14a.56.56,0,0,1-.49.22h-.85a.56.56,0,0,1-.49-.22l-.12-.14a.48.48,0,0,1-.15-.38Zm1.45.69c.12,0,.27,0,.32-.06l.1-.12a.26.26,0,0,0,.08-.15v-.28a.33.33,0,0,0-.11-.2l-.21-.23a.26.26,0,0,0-.19-.12h-.53a.27.27,0,0,0-.19.12l-.21.23a.33.33,0,0,0-.11.2V27a.26.26,0,0,0,.08.15l.1.12c.05.06.2.06.32.06Z" style="fill: #fff" transform="translate(-0.05 -0.47)"/>
      </g>
      <g>
        <path d="M80.35,21.55a1,1,0,0,1,.49-.11,1.14,1.14,0,0,1,.52.14l.81.38a.53.53,0,0,1,0,1l-.81.38a1.14,1.14,0,0,1-.52.14,1,1,0,0,1-.49-.11L79.47,23a.53.53,0,0,1,0-1Zm-.67.78c-.07,0-.13.05-.13.14s.06.11.13.14l.8.37a.72.72,0,0,0,.36.1.62.62,0,0,0,.29-.07l.84-.4c.06,0,.13-.06.13-.14s-.07-.11-.13-.14l-.84-.4a.62.62,0,0,0-.29-.07.72.72,0,0,0-.36.1Z" style="fill: #fff" transform="translate(-0.05 -0.47)"/>
        <path d="M82.23,18.51c.1,0,.31,0,.31.2s-.15.2-.3.2h-.07l.22.32a.63.63,0,0,1,.14.34v.29a.53.53,0,0,1-.15.37.69.69,0,0,1-.57.18l-1.33,0c-.15,0-.32,0-.32-.2s.15-.19.29-.2l1.3,0A.74.74,0,0,0,82,20a.27.27,0,0,0,.09-.23v-.13a.21.21,0,0,0,0-.12l-.39-.58H80.45c-.15,0-.29,0-.29-.2s.15-.2.29-.2Z" style="fill: #fff" transform="translate(-0.05 -0.47)"/>
        <path d="M81.74,16.68c.24,0,.38,0,.38-.27v-.2c0-.16,0-.24-.19-.28a.2.2,0,0,1,0-.4.66.66,0,0,1,.35.14.63.63,0,0,1,.22.55v.2a.63.63,0,0,1-.21.51.8.8,0,0,1-.59.15H80.59v.13c0,.12,0,.27-.21.27s-.21-.14-.21-.27v-.13h-.43c-.15,0-.29,0-.29-.2s.15-.2.29-.2h.43V16c0-.13,0-.27.21-.27s.21.16.21.27v.67Z" style="fill: #fff" transform="translate(-0.05 -0.47)"/>
      </g>
      <g>
        <path d="M80,12.09h-.71c-.14,0-.22-.05-.22-.19s.08-.19.22-.19H80a.53.53,0,0,1,.17,0l2.15.71c.11,0,.19.07.19.19s-.08.15-.19.19l-2.15.71a.53.53,0,0,1-.17,0h-.7c-.14,0-.22-.05-.22-.19s.08-.19.22-.19H80l1.68-.54Z" style="fill: #fff" transform="translate(-0.05 -0.47)"/>
        <path d="M81.15,10.84a.65.65,0,0,1-.56-.21l-.26-.26a.51.51,0,0,1-.17-.46V9.34c0-.12,0-.24.21-.24s.21.14.21.24V10a.31.31,0,0,0,.11.2l.22.21a.23.23,0,0,0,.18.1h.53a.23.23,0,0,0,.18-.1l.22-.21a.32.32,0,0,0,.11-.2V9.34c0-.1,0-.24.21-.24s.21.13.21.24V9.9a.51.51,0,0,1-.17.46l-.26.26a.65.65,0,0,1-.56.21Z" style="fill: #fff" transform="translate(-0.05 -0.47)"/>
        <path d="M81.15,8.17A.65.65,0,0,1,80.59,8l-.26-.26a.51.51,0,0,1-.17-.46V6.67c0-.12,0-.24.21-.24s.21.14.21.24V7.3a.31.31,0,0,0,.11.2l.22.21a.23.23,0,0,0,.18.1h.53a.23.23,0,0,0,.18-.1L82,7.5a.32.32,0,0,0,.11-.2V6.67c0-.1,0-.24.21-.24s.21.13.21.24v.56a.51.51,0,0,1-.17.46L82.11,8a.65.65,0,0,1-.56.21Z" style="fill: #fff" transform="translate(-0.05 -0.47)"/>
      </g>
      <g>
        <path d="M69.83,15.28v-.43c0-.06,0-.11.07-.11s.07,0,.07.11v.54c0,.08,0,.11-.07.11h-.57s-.07,0-.07-.11,0-.11.07-.11h.21V14h-.21s-.07,0-.07-.11,0-.11.07-.11h.36v1.45Z" style="fill: #fff" transform="translate(-0.05 -0.47)"/>
        <path d="M70.87,13.83c.08,0,.14.1.14.21v1.23c0,.12-.06.21-.14.21h-.43c-.08,0-.14-.09-.14-.21V14c0-.12.07-.21.14-.21Zm0,1.45V14h-.43v1.23Z" style="fill: #fff" transform="translate(-0.05 -0.47)"/>
        <path d="M71.49,15.28H72s.07,0,.07.11,0,.11-.07.11h-.64v-.7c0-.16.05-.24.16-.24h.41V14h-.5s-.07,0-.07-.11,0-.11.07-.11h.48a.13.13,0,0,1,.12.06.29.29,0,0,1,0,.19v.44a.29.29,0,0,1,0,.19.13.13,0,0,1-.12.06h-.41Z" style="fill: #fff" transform="translate(-0.05 -0.47)"/>
      </g>
      <g>
        <path d="M49.34,13.92c.07,0,.13,0,.13.12s-.06.11-.13.12l-1.71.46c-.06,0-.13,0-.13-.11s.07-.11.13-.13l.3-.09v-.51l-.3-.09c-.06,0-.13-.06-.13-.13s.07-.13.13-.12Zm-.47.12h0l-.69-.19v.38Z" style="fill: #555657" transform="translate(-0.05 -0.47)"/>
        <path d="M47.49,15.82a.36.36,0,0,1,.24-.36l.47-.22a.59.59,0,0,1,.27-.06.58.58,0,0,1,.28.07l.47.22a.36.36,0,0,1,.24.37v.41a.11.11,0,0,1-.13.12.12.12,0,0,1-.13-.12v-.4c0-.1,0-.12-.11-.17l-.44-.21a.41.41,0,0,0-.19-.05.37.37,0,0,0-.17.05l-.44.2c-.1,0-.11.07-.11.18v.39a.12.12,0,0,1-.13.12.12.12,0,0,1-.13-.12Z" style="fill: #555657" transform="translate(-0.05 -0.47)"/>
        <path d="M48,18a.34.34,0,0,1-.21.08.28.28,0,0,1-.29-.3v-.53a.34.34,0,0,1,.08-.24.33.33,0,0,1,.24-.11c.08,0,.15,0,.15.13a.12.12,0,0,1-.13.11c-.08,0-.09,0-.09.11v.52s0,.08,0,.08.06,0,.07,0L49,17a.31.31,0,0,1,.21-.08.29.29,0,0,1,.24.13.31.31,0,0,1,0,.2v.51a.33.33,0,0,1-.08.24.35.35,0,0,1-.24.11c-.08,0-.15,0-.15-.12a.11.11,0,0,1,.12-.12c.09,0,.1,0,.1-.11v-.51s0-.08,0-.08-.05,0-.07,0Z" style="fill: #555657" transform="translate(-0.05 -0.47)"/>
        <path d="M49.21,18.88a.12.12,0,1,1,0-.24h.13a.13.13,0,0,1,.13.12v1.06h-.73c-.09,0-.1,0-.16-.06l-.31-.34a.15.15,0,0,0-.15-.07h-.49c-.08,0-.13,0-.13-.12s0-.12.13-.12h.61a.14.14,0,0,1,.15.06l.3.33c.07.08.07.07.18.07h.35Z" style="fill: #555657" transform="translate(-0.05 -0.47)"/>
        <path d="M47.75,21.31h.51c.07,0,.13,0,.13.12s-.05.12-.13.12h-.64a.11.11,0,0,1-.13-.12v-.94a.13.13,0,0,1,.25,0v.35h1.46v-.35a.13.13,0,0,1,.25,0v.59H47.75Z" style="fill: #555657" transform="translate(-0.05 -0.47)"/>
        <path d="M47.75,22.33v.82a.13.13,0,0,1-.25,0V22.09h.83c.19,0,.29.09.29.27V23h.61v-.82a.13.13,0,0,1,.25,0V23a.24.24,0,0,1-.07.19.27.27,0,0,1-.23.07h-.52a.27.27,0,0,1-.23-.07.24.24,0,0,1-.07-.19v-.67Z" style="fill: #555657" transform="translate(-0.05 -0.47)"/>
        <path d="M49.21,24.06h-.09c-.08,0-.13,0-.13-.12s0-.12.13-.12h.34V25h-.34C49,25,49,25,49,24.88s0-.12.13-.12h.09v-.23H47.62c-.08,0-.13,0-.13-.12s0-.12.13-.12h1.59Z" style="fill: #555657" transform="translate(-0.05 -0.47)"/>
      </g>
      <g>
        <path d="M44.69,14.51a.13.13,0,0,1-.25,0V13.45h2v1.06a.13.13,0,0,1-.25,0v-.82h-.61V14a.13.13,0,0,1-.25,0v-.35h-.61Z" style="fill: #555657" transform="translate(-0.05 -0.47)"/>
        <path d="M44.69,16.24a.13.13,0,0,1-.25,0V15.18h1.84c.08,0,.13,0,.13.12s0,.12-.13.12H44.69Z" style="fill: #555657" transform="translate(-0.05 -0.47)"/>
        <path d="M44.43,17.55a.36.36,0,0,1,.24-.36l.47-.22a.59.59,0,0,1,.27-.06.58.58,0,0,1,.28.07l.47.22a.36.36,0,0,1,.24.37V18a.11.11,0,0,1-.13.12.12.12,0,0,1-.13-.12v-.4c0-.1,0-.12-.11-.17l-.44-.21a.41.41,0,0,0-.19-.05.37.37,0,0,0-.17.05l-.44.2c-.1,0-.11.07-.11.18V18a.12.12,0,0,1-.13.12.12.12,0,0,1-.13-.12Z" style="fill: #555657" transform="translate(-0.05 -0.47)"/>
        <path d="M45.57,19.51c0,.1,0,.14-.15.14s-.15,0-.15-.14v-.56c0-.1,0-.14.15-.14s.15,0,.15.14Z" style="fill: #555657" transform="translate(-0.05 -0.47)"/>
        <path d="M46.15,20.48a.13.13,0,0,1,.25,0v.82a.24.24,0,0,1-.25.24h-.49a.37.37,0,0,0-.49,0h-.49a.24.24,0,0,1-.25-.24v-.82a.13.13,0,0,1,.25,0v.82h.42c.14,0,.19-.05.19-.12v-.47a.13.13,0,0,1,.25,0v.47c0,.07,0,.12.19.12h.42Z" style="fill: #555657" transform="translate(-0.05 -0.47)"/>
        <path d="M46.4,23a.25.25,0,0,1-.25.24H44.69a.24.24,0,0,1-.25-.24v-.7a.24.24,0,0,1,.25-.24h1.46a.25.25,0,0,1,.25.24Zm-1.72,0h1.46v-.7H44.69Z" style="fill: #555657" transform="translate(-0.05 -0.47)"/>
        <path d="M46.27,24.29c.07,0,.13,0,.13.12s-.06.11-.13.13L44.56,25c-.06,0-.13,0-.13-.12s.07-.11.13-.13l.3-.09v-.51l-.3-.09c-.06,0-.13-.05-.13-.13s.07-.13.13-.12Zm-.47.13h0l-.69-.19v.38Z" style="fill: #555657" transform="translate(-0.05 -0.47)"/>
      </g>
    </g>
    <g data-name="cercuri" id="cercuri-2">
      <circle cx="11.93" cy="28.62" r="7.48" style="fill: #4aa8fe"/>
      <circle cx="11.93" cy="28.62" r="6.27" style="fill: #0d2d45"/>
      <circle cx="11.93" cy="11.11" r="6.27" style="fill: #0d2d45"/>
      <g>
        <circle cx="23.01" cy="10.25" r="1.55" style="fill: #3e9cf6"/>
        <path d="M22.31,12.07l-.09,0a1,1,0,0,1-.24-.18l1.92-2.43.16.14.13.12Z" style="fill: #185fd4" transform="translate(-0.05 -0.47)"/>
      </g>
      <g>
        <circle cx="23.01" cy="28.62" r="1.55" style="fill: #3e9cf6"/>
        <path d="M22.31,30.44l-.09,0a1,1,0,0,1-.24-.18l1.92-2.43.16.14.13.12Z" style="fill: #185fd4" transform="translate(-0.05 -0.47)"/>
      </g>
      <g>
        <rect height="3.41" style="fill: #2d6ebe;opacity: 0.42" width="15.18" x="4.34" y="17.82"/>
        <rect height="2.03" style="fill: #0f1f45" width="14.53" x="4.34" y="18.54"/>
      </g>
      <path d="M90.72,25H85a1.43,1.43,0,0,0-1.43,1.43V31A1.43,1.43,0,0,0,85,32.38h5.75a1.43,1.43,0,0,0,1.42-1.32s0-.07,0-.1V26.42s0-.07,0-.1A1.43,1.43,0,0,0,90.72,25Z" style="fill: none" transform="translate(-0.05 -0.47)"/>
      <path d="M90.72,16H85a1.43,1.43,0,0,0-1.43,1.43V22A1.43,1.43,0,0,0,85,23.38h5.75a1.43,1.43,0,0,0,1.42-1.32s0-.07,0-.1V17.42s0-.07,0-.1A1.43,1.43,0,0,0,90.72,16Z" style="fill: none" transform="translate(-0.05 -0.47)"/>
      <path d="M90.72,6.91H85a1.43,1.43,0,0,0-1.43,1.43v4.53A1.43,1.43,0,0,0,85,14.3h5.75A1.43,1.43,0,0,0,92.14,13s0-.07,0-.1V8.34s0-.07,0-.1A1.43,1.43,0,0,0,90.72,6.91Z" style="fill: none" transform="translate(-0.05 -0.47)"/>
      <path d="M46.19,9.06a3.75,3.75,0,0,0,2.73-1.18,3.5,3.5,0,1,1,1-2.54s0,0,0-.05a3.77,3.77,0,1,0-3.77,3.77Z" style="fill: #2e3b2c" transform="translate(-0.05 -0.47)"/>
      <path d="M50,5.4s0,0,0-.05a3.75,3.75,0,0,1-1,2.54A3.49,3.49,0,0,0,50,5.4Z" style="fill: #a2a8ad" transform="translate(-0.05 -0.47)"/>
      <path d="M46.49,37.06a3.72,3.72,0,1,1,3.64-4.47,3.88,3.88,0,1,0,0,1.5A3.72,3.72,0,0,1,46.49,37.06Z" style="fill: #3a4732" transform="translate(-0.05 -0.47)"/>
      <path d="M50.13,32.59a3.89,3.89,0,0,1,.08.75A3.74,3.74,0,0,0,50.13,32.59Z" style="fill: #faf9fe" transform="translate(-0.05 -0.47)"/>
      <path d="M50.13,34.09a3.74,3.74,0,0,0,.08-.75A3.89,3.89,0,0,1,50.13,34.09Z" style="fill: #faf9fe" transform="translate(-0.05 -0.47)"/>
      <circle cx="80.17" cy="4.27" r="0.65" style="fill: #1a2c80"/>
      <path d="M52.89,11.1" style="fill: none" transform="translate(-0.05 -0.47)"/>
      <path d="M46.19,1.52a3.77,3.77,0,1,0,2.73,6.37A3.49,3.49,0,0,0,50,5.4s0,0,0-.05,0,0,0-.05A3.77,3.77,0,0,0,46.19,1.52Z" style="fill: none" transform="translate(-0.05 -0.47)"/>
      <path d="M41.54,36.51a5,5,0,0,1,4.91-7.88A5.07,5.07,0,0,1,51,36.33H92.14V31.06s0-.07,0-.1V26.42s0-.07,0-.1V22.06s0-.07,0-.1V17.42s0-.07,0-.1V13s0-.07,0-.1V8.34s0-.07,0-.1V1.81H78.26V3.6H62.78V1.81H50.95a6,6,0,0,1,.25,5.35,6.13,6.13,0,0,1-4.69,3.27A6,6,0,0,1,41.67,7.6a5.65,5.65,0,0,1,.13-5.79H5.38v34.7Z" style="fill: none" transform="translate(-0.05 -0.47)"/>
      <path d="M46.32,29.46a3.88,3.88,0,1,0,3.8,4.63,3.76,3.76,0,0,0,0-1.5A3.88,3.88,0,0,0,46.32,29.46Z" style="fill: none" transform="translate(-0.05 -0.47)"/>
      <path d="M46.32,29.46a3.88,3.88,0,1,0,3.8,4.63,3.76,3.76,0,0,0,0-1.5A3.88,3.88,0,0,0,46.32,29.46Z" style="fill: none" transform="translate(-0.05 -0.47)"/>
      <path d="M46.19,1.52a3.77,3.77,0,1,0,2.73,6.37A3.49,3.49,0,0,0,50,5.4s0,0,0-.05,0,0,0-.05A3.77,3.77,0,0,0,46.19,1.52Z" style="fill: none" transform="translate(-0.05 -0.47)"/>
      <path d="M3.43.47V1.81H41.79a5.65,5.65,0,0,0-.12,5.79,6,6,0,0,0,4.84,2.83A6.13,6.13,0,0,0,51.2,7.17a6,6,0,0,0-.25-5.35H62.78V3.6H78.26V1.81H92.14V8.23s0,.07,0,.1v4.53s0,.07,0,.1v4.35s0,.07,0,.1V22s0,.07,0,.1v4.26s0,.07,0,.1V31s0,.07,0,.1v5.27H51a5.07,5.07,0,0,0-4.58-7.7,5,5,0,0,0-4.91,7.88h-13v.89H3.43v1H93.31V.47ZM50,5.4a3.49,3.49,0,0,1-1,2.49,3.76,3.76,0,1,1,1-2.6s0,0,0,.05S50,5.38,50,5.4Zm.17,28.69a3.88,3.88,0,1,1,0-1.5,3.76,3.76,0,0,1,0,1.5Z" style="fill: #1a2c80" transform="translate(-0.05 -0.47)"/>
    </g>
    <g id="screws">
      <g>
        <circle cx="12.13" cy="29.06" r="6.45" style="fill: url(#radial-gradient)" transform="translate(-17.04 16.62) rotate(-45)"/>
        <circle cx="11.31" cy="28.24" r="4.96" style="opacity: 0.8;mix-blend-mode: soft-light;fill: url(#radial-gradient-2)" transform="translate(-16.7 15.79) rotate(-45)"/>
        <g>
          <path d="M14.26,25.94l-2,2-2-2L9,27.28l2,2-2,2,1.11,1.11a.33.33,0,0,0,.47,0l1.72-1.72L14,32.29a.33.33,0,0,0,.47,0l.87-.87a.33.33,0,0,0,0-.47l-1.72-1.72,1.72-1.72a.33.33,0,0,0,0-.47Z" style="opacity: 0.8;fill: url(#linear-gradient)" transform="translate(-0.05 -0.47)"/>
          <path d="M10.05,32.23l2-2,2,2,1.34-1.34-2-2,2-2L14.2,25.88a.33.33,0,0,0-.47,0L12,27.6l-1.72-1.72a.33.33,0,0,0-.47,0l-.87.87a.33.33,0,0,0,0,.47l1.72,1.72L8.95,30.66a.33.33,0,0,0,0,.47Z" style="fill: url(#linear-gradient-2)" transform="translate(-0.05 -0.47)"/>
          <path d="M13.94,25.91l-1.81,1.81-1.81-1.81a.2.2,0,0,0-.29,0L9,27a.2.2,0,0,0,0,.29l1.81,1.81L9,30.87a.2.2,0,0,0,0,.29L10,32.21a.2.2,0,0,0,.29,0l1.81-1.81,1.81,1.81a.2.2,0,0,0,.29,0l1.05-1.05a.2.2,0,0,0,0-.29l-1.81-1.81,1.81-1.81a.2.2,0,0,0,0-.29l-1.05-1.05A.2.2,0,0,0,13.94,25.91Z" style="fill: url(#radial-gradient-3)" transform="translate(-0.05 -0.47)"/>
          <g>
            <path d="M9.5,31.39l1.66-1.66a.21.21,0,0,0,0-.3l-.37-.37L9,30.87a.2.2,0,0,0,0,.29l.52.52A.2.2,0,0,1,9.5,31.39Z" style="fill: #30383a;opacity: 0.43" transform="translate(-0.05 -0.47)"/>
            <path d="M9.5,27.48l1.05-1.05a.2.2,0,0,1,.29,0l-.52-.52a.2.2,0,0,0-.29,0L9,27a.2.2,0,0,0,0,.29l.52.52A.2.2,0,0,1,9.5,27.48Z" style="fill: #30383a;opacity: 0.43" transform="translate(-0.05 -0.47)"/>
            <path d="M13.94,25.91l-1.81,1.81.37.37a.21.21,0,0,0,.3,0l1.66-1.66a.2.2,0,0,1,.29,0l-.52-.52A.2.2,0,0,0,13.94,25.91Z" style="fill: #30383a;opacity: 0.43" transform="translate(-0.05 -0.47)"/>
          </g>
        </g>
      </g>
      <g>
        <circle cx="12.07" cy="11.65" r="6.45" style="fill: url(#radial-gradient-4)" transform="translate(-4.75 11.47) rotate(-45)"/>
        <circle cx="11.24" cy="10.82" r="4.96" style="opacity: 0.8;mix-blend-mode: soft-light;fill: url(#radial-gradient-5)" transform="translate(-4.41 10.64) rotate(-45)"/>
        <g>
          <path d="M14.19,8.53l-2,2-2-2L8.95,9.87l2,2-2,2,1.11,1.11a.33.33,0,0,0,.47,0l1.72-1.72L14,14.88a.33.33,0,0,0,.47,0L15.3,14a.33.33,0,0,0,0-.47l-1.72-1.72L15.3,10.1a.33.33,0,0,0,0-.47Z" style="opacity: 0.8;fill: url(#linear-gradient-3)" transform="translate(-0.05 -0.47)"/>
          <path d="M10,14.82l2-2,2,2,1.34-1.34-2-2,2-2L14.13,8.46a.33.33,0,0,0-.47,0l-1.72,1.72L10.22,8.46a.33.33,0,0,0-.47,0l-.87.87a.33.33,0,0,0,0,.47l1.72,1.72L8.88,13.24a.33.33,0,0,0,0,.47Z" style="fill: url(#linear-gradient-4)" transform="translate(-0.05 -0.47)"/>
          <path d="M13.87,8.5,12.06,10.3,10.26,8.5a.2.2,0,0,0-.29,0L8.91,9.55a.2.2,0,0,0,0,.29l1.81,1.81L8.91,13.45a.2.2,0,0,0,0,.29L10,14.8a.2.2,0,0,0,.29,0L12.06,13l1.81,1.81a.2.2,0,0,0,.29,0l1.05-1.05a.2.2,0,0,0,0-.29L13.4,11.65l1.81-1.81a.2.2,0,0,0,0-.29L14.16,8.5A.2.2,0,0,0,13.87,8.5Z" style="fill: url(#radial-gradient-6)" transform="translate(-0.05 -0.47)"/>
          <g>
            <path d="M9.43,14l1.66-1.66a.21.21,0,0,0,0-.3l-.37-.37L8.91,13.45a.2.2,0,0,0,0,.29l.52.52A.2.2,0,0,1,9.43,14Z" style="fill: #30383a;opacity: 0.43" transform="translate(-0.05 -0.47)"/>
            <path d="M9.43,10.07,10.49,9a.2.2,0,0,1,.29,0l-.52-.52a.2.2,0,0,0-.29,0L8.91,9.55a.2.2,0,0,0,0,.29l.52.52A.2.2,0,0,1,9.43,10.07Z" style="fill: #30383a;opacity: 0.43" transform="translate(-0.05 -0.47)"/>
            <path d="M13.87,8.5,12.06,10.3l.37.37a.21.21,0,0,0,.3,0L14.39,9a.2.2,0,0,1,.29,0l-.52-.52A.2.2,0,0,0,13.87,8.5Z" style="fill: #30383a;opacity: 0.43" transform="translate(-0.05 -0.47)"/>
          </g>
        </g>
      </g>
    </g>
    <g id="Connectors">
      <g>
        <circle cx="87.6" cy="10.22" id="circuitoCon_5V" r="2.34" style="fill: none;stroke: #e8e5df;stroke-width: 0.864px"/>
        <circle cx="87.6" cy="19.3" id="circuitoCon_VO" r="2.34" style="fill: none;stroke: #e8e5df;stroke-width: 0.864px"/>
        <circle cx="87.6" cy="28.3" id="circuitoCon_GND" r="2.34" style="fill: none;stroke: #e8e5df;stroke-width: 0.864px"/>
      </g>
      <circle cx="87.6" cy="28.3" r="1.91" style="fill: none"/>
      <circle cx="87.6" cy="19.3" r="1.91" style="fill: none"/>
      <circle cx="87.6" cy="10.23" r="1.91" style="fill: none"/>
    </g>
  </g>
</svg>