<?xml version="1.0" ?><svg height="20.89mm" viewBox="0 0 16.44 59.23" width="5.8mm" xmlns="http://www.w3.org/2000/svg" xmlns:xlink="http://www.w3.org/1999/xlink">
  <defs>
    <linearGradient gradientUnits="userSpaceOnUse" id="Gold" x2="16.44" y1="7" y2="7">
      <stop offset="0.01" stop-color="#fbca2a"/>
      <stop offset="0.25" stop-color="#fdf9ce"/>
      <stop offset="0.3" stop-color="#f7eebd"/>
      <stop offset="0.41" stop-color="#e6d190"/>
      <stop offset="0.55" stop-color="#cca348"/>
      <stop offset="0.6" stop-color="#c2922e"/>
      <stop offset="0.87" stop-color="#eed688"/>
      <stop offset="1" stop-color="#fdf9ce"/>
    </linearGradient>
    <linearGradient data-name="Gold" id="Gold-2" x1="1.87" x2="14.12" xlink:href="#Gold" y1="15.81" y2="15.81"/>
    <linearGradient data-name="Gold" id="Gold-3" x1="0.69" x2="15.94" xlink:href="#Gold" y1="22.41" y2="22.41"/>
    <linearGradient data-name="Gold" id="Gold-4" x1="0.81" x2="15.82" xlink:href="#Gold" y1="13.25" y2="13.25"/>
    <linearGradient data-name="Gold" id="Gold-5" x1="7.65" x2="15.38" xlink:href="#Gold" y1="18.44" y2="18.44"/>
  </defs>
  <title>650nm Red Laser Diode Module</title>
  <g data-name="Layer 1" id="Layer_1">
    <rect height="10.38" style="fill: #d0cfc4" width="9.58" x="2.83" y="26.5"/>
    <rect height="24.46" style="fill: #fd4f57" width="2.38" x="10.03" y="34.77"/>
    <rect height="24.46" style="fill: #4d4845" width="2.38" x="2.83" y="34.77"/>
    <rect height="3.81" style="fill: #b68935" width="9.58" x="2.83" y="26.5"/>
    <rect height="17" style="fill: #482c25" width="2.25" x="5.52" y="19.91"/>
    <polyline points="7.77 19.91 9.71 19.91 9.71 36.91 7.77 36.91" style="fill: #c2b276"/>
    <rect height="14" rx="1.24" ry="1.24" style="fill: url(#Gold)" width="16.44"/>
    <rect height="4.38" style="fill: url(#Gold-2)" width="12.25" x="1.87" y="13.63"/>
    <rect height="8.81" rx="0.57" ry="0.57" style="fill: url(#Gold-3)" width="15.25" x="0.69" y="18"/>
    <path d="M.81,13.37c2.15-.14,4.42-.23,6.79-.24,2.9,0,5.64.07,8.22.24" style="stroke: #c8bc7a;stroke-linecap: round;stroke-miterlimit: 10;fill: url(#Gold-4)"/>
    <path d="M7.65,18.33c2.73,0,5.31.07,7.73.23" style="stroke: #c8bc7a;stroke-linecap: round;stroke-miterlimit: 10;fill: url(#Gold-5)"/>
  </g>
  <g id="Connectors">
    <rect data-cir-type="male" height="2.6" id="circuitoCon_GND" style="fill: none" width="2.38" x="2.83" y="56.63"/>
    <rect data-cir-type="male" height="2.6" id="circuitoCon_S" style="fill: none" width="2.38" x="10.03" y="56.63"/>
  </g>
</svg>