<?xml version="1.0" ?><svg height="42.38mm" viewBox="0 0 94.16 120.13" width="33.22mm" xmlns="http://www.w3.org/2000/svg" xmlns:xlink="http://www.w3.org/1999/xlink">
  <defs>
    <linearGradient gradientTransform="translate(107.84 67.08) rotate(180)" gradientUnits="userSpaceOnUse" id="linear-gradient" x1="84.38" x2="49.25" y1="-40.42" y2="-24.99">
      <stop offset="0" stop-color="#d6e5e9"/>
      <stop offset="1" stop-color="#8dc1d7"/>
    </linearGradient>
    <linearGradient id="linear-gradient-2" x1="94.45" x2="38.31" xlink:href="#linear-gradient" y1="26.85" y2="51.52"/>
    <linearGradient gradientTransform="translate(-671.04 293.33) rotate(90)" gradientUnits="userSpaceOnUse" id="linear-gradient-3" x1="-215.95" x2="-179.13" y1="-722.44" y2="-722.44">
      <stop offset="0" stop-color="#00adee"/>
      <stop offset="0.46" stop-color="#231f20"/>
      <stop offset="0.88"/>
      <stop offset="1" stop-color="#2e3191"/>
    </linearGradient>
    <linearGradient gradientUnits="userSpaceOnUse" id="linear-gradient-4" x1="40.07" x2="45.61" y1="83.74" y2="89.85">
      <stop offset="0.06" stop-color="#fff"/>
      <stop offset="0.86" stop-color="#00adee"/>
    </linearGradient>
    <linearGradient id="linear-gradient-5" x1="44.02" x2="46.72" xlink:href="#linear-gradient-4" y1="87.94" y2="90.93"/>
    <linearGradient id="linear-gradient-6" x1="46.36" x2="47.87" xlink:href="#linear-gradient-4" y1="90.25" y2="91.92"/>
    <linearGradient id="linear-gradient-7" x1="47.09" x2="48.6" xlink:href="#linear-gradient-4" y1="91.42" y2="93.08"/>
    <linearGradient gradientUnits="userSpaceOnUse" id="linear-gradient-8" x1="47.56" x2="51.59" y1="93.91" y2="93.91">
      <stop offset="0" stop-color="#5098d2"/>
      <stop offset="1" stop-color="#00adee"/>
    </linearGradient>
    <linearGradient gradientTransform="translate(-2014.96 77.22) rotate(177.37)" id="linear-gradient-9" x1="-2074.44" x2="-2068.91" xlink:href="#linear-gradient-4" y1="-125.34" y2="-119.22"/>
    <linearGradient gradientTransform="translate(-2016.25 18.42) rotate(-179.45)" id="linear-gradient-10" x1="-2073.45" x2="-2071.94" xlink:href="#linear-gradient-4" y1="-62.47" y2="-60.8"/>
    <linearGradient gradientTransform="translate(-720.63 273.6) rotate(90)" id="linear-gradient-11" x1="-268" x2="-231.18" xlink:href="#linear-gradient-3" y1="-771.86" y2="-771.86"/>
    <linearGradient id="linear-gradient-12" x1="39.91" x2="45.45" xlink:href="#linear-gradient-4" y1="11.96" y2="18.08"/>
    <linearGradient id="linear-gradient-13" x1="43.86" x2="46.56" xlink:href="#linear-gradient-4" y1="16.16" y2="19.15"/>
    <linearGradient id="linear-gradient-14" x1="46.2" x2="47.71" xlink:href="#linear-gradient-4" y1="18.47" y2="20.14"/>
    <linearGradient id="linear-gradient-15" x1="46.92" x2="48.43" xlink:href="#linear-gradient-4" y1="19.64" y2="21.31"/>
    <linearGradient id="linear-gradient-16" x1="47.4" x2="51.43" xlink:href="#linear-gradient-8" y1="22.13" y2="22.13"/>
    <linearGradient gradientTransform="translate(-2014.96 77.22) rotate(177.37)" id="linear-gradient-17" x1="-2077.58" x2="-2072.04" xlink:href="#linear-gradient-4" y1="-53.63" y2="-47.51"/>
    <linearGradient gradientTransform="translate(-2016.25 18.42) rotate(-179.45)" id="linear-gradient-18" x1="-2072.6" x2="-2071.09" xlink:href="#linear-gradient-4" y1="9.3" y2="10.97"/>
  </defs>
  <title>LIDAR-Lite v3</title>
  <g data-name="Layer 8" id="Layer_8">
    <path d="M28.92,93.7a9.58,9.58,0,0,0-.23-2.06l-.08,4.44A9.55,9.55,0,0,0,28.92,93.7Z" style="fill: #514a44"/>
    <g>
      <g>
        <path d="M19.35,103.26a9.39,9.39,0,0,0,.95-.05h-.06a8.12,8.12,0,0,1,8.15,5l.23-12.15c0,.14-.09.31-.15.5.05-.17.1-.33.15-.5l.08-4.44c0-.2-.1-.4-.15-.6.07.23.12.44.15.6q0-7.57,0-15.15a9,9,0,0,1-3.93,6.66,8,8,0,0,1-3.71,1.15,9.28,9.28,0,0,0-1.72-.17,9.57,9.57,0,1,0,0,19.13Zm1.13-.07.64-.1Zm4.19-1.56h0Zm.42-.3.14-.11Zm.44-.35.44-.4Zm1-1,.17-.2Zm1.78-3,.07-.18ZM27,99.4l.14-.19Zm.47-.69.05-.08Zm1-7.75A9.51,9.51,0,0,0,27.1,88.1,9.45,9.45,0,0,1,28.51,91ZM27,88l-.33-.42Zm-7.84.77h.16a4.92,4.92,0,1,1,0,9.83H19.2a4.91,4.91,0,0,1,0-9.82Z"/>
        <path d="M19.35,34.06A9.39,9.39,0,0,0,20.3,34h-.06a8.12,8.12,0,0,1,8.15,5l.23-12.15c0,.14-.09.31-.15.5.05-.17.1-.33.15-.5l.08-4.44c0-.2-.1-.4-.15-.6.07.23.12.44.15.6q0-7.57,0-15.15a9,9,0,0,1-3.93,6.66,8,8,0,0,1-3.71,1.15,9.28,9.28,0,0,0-1.72-.17,9.57,9.57,0,1,0,0,19.13ZM20.48,34l.64-.1Zm4.19-1.56h0Zm.42-.3.14-.11Zm.44-.35.44-.4Zm1-1,.17-.2Zm1.78-3,.07-.18ZM27,30.2l.14-.19Zm.47-.69.05-.08Zm1-7.75A9.51,9.51,0,0,0,27.1,18.9,9.45,9.45,0,0,1,28.51,21.75ZM27,18.81l-.33-.42Zm-7.84.77h.16a4.92,4.92,0,0,1,0,9.83H19.2a4.91,4.91,0,0,1,0-9.82Z"/>
      </g>
      <g>
        <path d="M94.16,94.14a9.57,9.57,0,0,0-9.57-9.57,9.28,9.28,0,0,0-1.72.17,8,8,0,0,1-3.71-1.15,9,9,0,0,1-3.93-6.66q0,7.57,0,15.15c0-.16.09-.37.15-.6-.06.2-.11.4-.15.6l.08,4.44c0,.17.1.33.15.5-.06-.19-.11-.36-.15-.5l.23,12.15a8.12,8.12,0,0,1,8.15-5h-.06a9.39,9.39,0,0,0,.95.05A9.57,9.57,0,0,0,94.16,94.14Zm-11.33,9.39.64.1Zm-3.57-1.47h0Zm-.54-.39.14.11ZM78,101l.44.4Zm-.71-.77.17.2Zm-1.68-3,.07.18Zm1.22,2.36.14.19Zm-.39-.59.05.08Zm.44-10.52a9.51,9.51,0,0,0-1.41,2.85A9.45,9.45,0,0,1,76.84,88.55Zm.4-.51-.33.42Zm12.27,6.1A4.91,4.91,0,0,1,84.75,99h-.16a4.92,4.92,0,1,1,0-9.83h.16A4.91,4.91,0,0,1,89.51,94.14Z"/>
        <path d="M94.16,24.94a9.57,9.57,0,0,0-9.57-9.57,9.28,9.28,0,0,0-1.72.17,8,8,0,0,1-3.71-1.15,9,9,0,0,1-3.93-6.66q0,7.57,0,15.15c0-.16.09-.37.15-.6-.06.2-.11.4-.15.6l.08,4.44c0,.17.1.33.15.5-.06-.19-.11-.36-.15-.5l.23,12.15a8.12,8.12,0,0,1,8.15-5h-.06a9.39,9.39,0,0,0,.95.05A9.57,9.57,0,0,0,94.16,24.94ZM82.82,34.33l.64.1Zm-3.57-1.47h0Zm-.54-.39.14.11ZM78,31.83l.44.4Zm-.71-.77.17.2Zm-1.68-3,.07.18Zm1.22,2.36.14.19Zm-.39-.59.05.08Zm.44-10.52a9.51,9.51,0,0,0-1.41,2.85A9.45,9.45,0,0,1,76.84,19.35Zm.4-.51-.33.42Zm12.27,6.1a4.91,4.91,0,0,1-4.76,4.91h-.16a4.92,4.92,0,1,1,0-9.83h.16A4.91,4.91,0,0,1,89.51,24.94Z"/>
      </g>
    </g>
  </g>
  <g data-name="Layer 9" id="Layer_9">
    <rect height="29.32" style="fill: #598d68" transform="translate(53.37 121.72) rotate(-180)" width="1.62" x="25.87" y="46.2"/>
  </g>
  <g data-name="Backgroun blacik" id="Backgroun_blacik">
    <rect height="117.12" rx="1.07" ry="1.07" transform="translate(103.38 119) rotate(-180)" width="48.49" x="27.45" y="0.94"/>
  </g>
  <g data-name="middle part" id="middle_part">
    <path d="M32,81.36,68.57,80A30.82,30.82,0,0,1,64,63.92V53.39a21.06,21.06,0,0,1,4.71-13l-34.27.83A22,22,0,0,1,38.55,54l.09,10.62a23.82,23.82,0,0,1-2.71,11.27A23.29,23.29,0,0,1,32,81.36Zm20.14-24a2.84,2.84,0,1,1-2.84,2.84A2.84,2.84,0,0,1,52.1,57.34Z" style="fill: #1c1c1c"/>
  </g>
  <g data-name="ellipse black" id="ellipse_black">
    <ellipse cx="51.13" cy="96.09" rx="24.44" ry="24.03" style="fill: #1c1c1c"/>
    <ellipse cx="51.13" cy="24.03" rx="24.44" ry="24.03" style="fill: #1c1c1c"/>
  </g>
  <g data-name="brown ellipse" id="brown_ellipse">
    <g>
      <path d="M51.15,115.54A19.79,19.79,0,1,0,31.36,95.75,19.79,19.79,0,0,0,51.15,115.54Zm0-37.79a18,18,0,1,1-18,18A18,18,0,0,1,51.15,77.75Z" style="fill: #59433b"/>
      <path d="M51.15,43.84A19.79,19.79,0,1,0,31.36,24.06,19.79,19.79,0,0,0,51.15,43.84Zm0-37.79a18,18,0,1,1-18,18A18,18,0,0,1,51.15,6.05Z" style="fill: #59433b"/>
    </g>
  </g>
  <g data-name="Layer 5" id="Layer_5">
    <g>
      <circle cx="51.15" cy="95.75" r="18" style="fill: #292929"/>
      <circle cx="51.15" cy="24.06" r="18" style="fill: #292929"/>
    </g>
  </g>
  <g data-name="Layer 11" id="Layer_11">
    <rect data-name="6" height="2.77" id="_6" style="fill: #d54f55" width="24.43" y="50.29"/>
    <rect data-name="5" height="2.77" id="_5" style="fill: #ff6c2c" width="24.43" y="53.96"/>
    <rect data-name="4" height="2.77" id="_4" style="fill: #ffe800" width="24.43" y="57.64"/>
    <rect data-name="3" height="2.77" id="_3" style="fill: #00aa8f" width="24.43" y="61.32"/>
    <rect data-name="2" height="2.77" id="_2" style="fill: #39499b" width="24.43" y="64.99"/>
    <rect data-name="1" height="2.77" id="_1" style="fill: #4d4845" width="24.43" y="68.67"/>
  </g>
  <g data-name="Layer 10" id="Layer_10">
    <g style="opacity: 0.88">
      <circle cx="51.13" cy="95.35" r="18" style="fill: url(#linear-gradient)"/>
      <circle cx="51.13" cy="23.65" r="18" style="fill: url(#linear-gradient-2)"/>
    </g>
    <rect height="29.3" style="fill: #f4f4f4;stroke: #9c9c9c;stroke-miterlimit: 10;stroke-width: 0.10137172270049996px" transform="translate(51.76 121.7) rotate(-180)" width="3.22" x="24.27" y="46.2"/>
    <rect height="2.01" style="fill: #d9d9d9;stroke: #464646;stroke-miterlimit: 10;stroke-width: 0.10137172270049996px" transform="translate(51.76 132.81) rotate(-180)" width="3.22" x="24.27" y="65.4"/>
    <rect height="2.01" style="fill: #d9d9d9;stroke: #464646;stroke-miterlimit: 10;stroke-width: 0.10137172270049996px" transform="translate(51.75 113.47) rotate(-180)" width="3.22" x="24.26" y="55.73"/>
  </g>
  <g data-name="Layer 12" id="Layer_12">
    <g>
      <circle cx="51.39" cy="95.8" r="18.41" style="fill: url(#linear-gradient-3)" transform="translate(-51.92 61.95) rotate(-43.65)"/>
      <path d="M50.09,86.16l-3.2-6.92s-3.27.22-7.41,4.38a16,16,0,0,0-4.18,6.9l6.57,2.57a10,10,0,0,1,8.21-6.92Z" style="opacity: 0.6000000000000001;fill: url(#linear-gradient-4)"/>
      <path d="M48.91,89.12l-1.56-3.38s-1.6.11-3.62,2.14a7.83,7.83,0,0,0-2,3.37L44.9,92.5a4.87,4.87,0,0,1,4-3.38Z" style="opacity: 0.15;fill: url(#linear-gradient-5)"/>
      <path d="M49.09,90.91,48.22,89a3.57,3.57,0,0,0-2,1.19,4.37,4.37,0,0,0-1.14,1.88l1.79.7a2.72,2.72,0,0,1,2.24-1.89Z" style="opacity: 0.15;fill: url(#linear-gradient-6)"/>
      <path d="M49.82,92.08l-.87-1.89a3.57,3.57,0,0,0-2,1.19,4.37,4.37,0,0,0-1.14,1.88l1.79.7a2.72,2.72,0,0,1,2.24-1.89Z" style="opacity: 0.15;fill: url(#linear-gradient-7)"/>
      <path d="M51.59,93.91,50.72,92a3.57,3.57,0,0,0-2,1.19,4.37,4.37,0,0,0-1.14,1.88l1.79.7a2.72,2.72,0,0,1,2.24-1.89Z" style="opacity: 0.15;fill: url(#linear-gradient-8)"/>
      <path d="M52.84,105.25,56.35,112s3.26-.37,7.2-4.71a16,16,0,0,0,3.86-7.08L60.72,98a10,10,0,0,1-7.89,7.29Z" style="opacity: 0.1;fill: url(#linear-gradient-9)"/>
      <path d="M53.88,100.1l.85,1.9a3.57,3.57,0,0,0,2-1.17A4.37,4.37,0,0,0,57.92,99l-1.79-.72a2.72,2.72,0,0,1-2.26,1.87Z" style="opacity: 0.09;fill: url(#linear-gradient-10)"/>
      <path d="M58.05,91.26l1.18-1s-.56-1.5-3.08-2.87a7.83,7.83,0,0,0-3.81-1l-.12,1.44a8.27,8.27,0,0,1,5.06,2.52A8.36,8.36,0,0,1,58.05,91.26Z" style="fill: #4863ad;opacity: 0.15"/>
      <path d="M61.9,89.09l2-1.76s-.95-2.57-5.25-4.89a13.38,13.38,0,0,0-6.51-1.71l-.21,2.47a14.12,14.12,0,0,1,8.64,4.3A14.28,14.28,0,0,1,61.9,89.09Z" style="fill: #4863ad;opacity: 0.41000000000000003"/>
    </g>
    <g>
      <circle cx="51.22" cy="24.02" r="18.41" style="fill: url(#linear-gradient-11)" transform="translate(-2.42 41.99) rotate(-43.65)"/>
      <path d="M49.93,14.38l-3.2-6.92s-3.27.22-7.41,4.38a16,16,0,0,0-4.18,6.9l6.57,2.57a10,10,0,0,1,8.21-6.92Z" style="opacity: 0.6000000000000001;fill: url(#linear-gradient-12)"/>
      <path d="M48.75,17.34,47.19,14s-1.6.11-3.62,2.14a7.83,7.83,0,0,0-2,3.37l3.21,1.26a4.87,4.87,0,0,1,4-3.38Z" style="opacity: 0.15;fill: url(#linear-gradient-13)"/>
      <path d="M48.93,19.13l-.87-1.89a3.57,3.57,0,0,0-2,1.19,4.37,4.37,0,0,0-1.14,1.88l1.79.7a2.72,2.72,0,0,1,2.24-1.89Z" style="opacity: 0.15;fill: url(#linear-gradient-14)"/>
      <path d="M49.66,20.3l-.87-1.89a3.57,3.57,0,0,0-2,1.19,4.37,4.37,0,0,0-1.14,1.88l1.79.7a2.72,2.72,0,0,1,2.24-1.89Z" style="opacity: 0.15;fill: url(#linear-gradient-15)"/>
      <path d="M51.43,22.13l-.87-1.89a3.57,3.57,0,0,0-2,1.19,4.37,4.37,0,0,0-1.14,1.88l1.79.7a2.72,2.72,0,0,1,2.24-1.89Z" style="opacity: 0.15;fill: url(#linear-gradient-16)"/>
      <path d="M52.68,33.47l3.51,6.77s3.26-.37,7.2-4.71a16,16,0,0,0,3.86-7.08l-6.68-2.26a10,10,0,0,1-7.89,7.29Z" style="opacity: 0.1;fill: url(#linear-gradient-17)"/>
      <path d="M53.72,28.32l.85,1.9a3.57,3.57,0,0,0,2-1.17,4.37,4.37,0,0,0,1.16-1.87L56,26.46a2.72,2.72,0,0,1-2.26,1.87Z" style="opacity: 0.09;fill: url(#linear-gradient-18)"/>
      <path d="M57.89,19.48l1.18-1s-.56-1.5-3.08-2.87a7.83,7.83,0,0,0-3.81-1L52.06,16a8.27,8.27,0,0,1,5.06,2.52A8.36,8.36,0,0,1,57.89,19.48Z" style="fill: #4863ad;opacity: 0.15"/>
      <path d="M61.74,17.31l2-1.76S62.8,13,58.49,10.65A13.38,13.38,0,0,0,52,8.94l-.21,2.47a14.12,14.12,0,0,1,8.64,4.3A14.28,14.28,0,0,1,61.74,17.31Z" style="fill: #4863ad;opacity: 0.41000000000000003"/>
    </g>
  </g>
  <g id="Connectors">
    <rect data-cir-color="red" data-cir-type="female" height="2.77" id="circuitoCon_5V" style="fill: none" width="2.77" y="50.29"/>
    <rect data-cir-type="female" height="2.77" id="circuitoCon_PWR_EN" style="fill: none" width="2.77" y="53.96"/>
    <rect data-cir-type="female" height="2.77" id="circuitoCon_MODE" style="fill: none" width="2.77" y="57.64"/>
    <rect data-cir-color="green" data-cir-type="female" height="2.77" id="circuitoCon_SCL" style="fill: none" width="2.77" y="61.32"/>
    <rect data-cir-color="blue" data-cir-type="female" height="2.77" id="circuitoCon_SDA" style="fill: none" width="2.77" y="64.99"/>
    <rect data-cir-color="black" data-cir-type="female" height="2.77" id="circuitoCon_GND" style="fill: none" width="2.77" y="68.67"/>
  </g>
</svg>