<?xml version="1.0" ?><svg height="26.28mm" viewBox="0 0 51.53 74.49" width="18.18mm" xmlns="http://www.w3.org/2000/svg" xmlns:xlink="http://www.w3.org/1999/xlink">
  <defs>
    <linearGradient gradientUnits="userSpaceOnUse" id="linear-gradient" x1="38.09" x2="42.13" y1="63.59" y2="63.59">
      <stop offset="0" stop-color="#e6e6e5"/>
      <stop offset="1" stop-color="#989898"/>
    </linearGradient>
    <linearGradient id="linear-gradient-2" x1="23.98" x2="28.01" xlink:href="#linear-gradient" y1="63.59" y2="63.59"/>
    <linearGradient id="linear-gradient-3" x1="9.65" x2="13.68" xlink:href="#linear-gradient" y1="63.59" y2="63.59"/>
    <linearGradient gradientUnits="userSpaceOnUse" id="linear-gradient-4" x1="2.46" x2="18.05" y1="17.97" y2="33.56">
      <stop offset="0" stop-color="#fff"/>
      <stop offset="0.14" stop-color="#dcdcdc"/>
      <stop offset="0.33" stop-color="#b3b3b3"/>
      <stop offset="0.51" stop-color="#929292"/>
      <stop offset="0.69" stop-color="#7a7a7a"/>
      <stop offset="0.86" stop-color="#6c6c6c"/>
      <stop offset="1" stop-color="#676767"/>
    </linearGradient>
    <linearGradient gradientUnits="userSpaceOnUse" id="linear-gradient-5" x1="33.54" x2="49.09" y1="17.99" y2="33.54">
      <stop offset="0" stop-color="#fff"/>
      <stop offset="0.17" stop-color="#fbfbfb"/>
      <stop offset="0.33" stop-color="#f0f0f0"/>
      <stop offset="0.49" stop-color="#ddd"/>
      <stop offset="0.65" stop-color="#c2c2c2"/>
      <stop offset="0.8" stop-color="#a0a0a0"/>
      <stop offset="0.95" stop-color="#767676"/>
      <stop offset="1" stop-color="#676767"/>
    </linearGradient>
    <linearGradient gradientUnits="userSpaceOnUse" id="linear-gradient-6" x1="25.77" x2="25.77" y1="41.05" y2="10.81">
      <stop offset="0" stop-color="#989898"/>
      <stop offset="1" stop-color="#e6e6e5"/>
    </linearGradient>
    <linearGradient id="linear-gradient-7" x1="15.76" x2="35.77" xlink:href="#linear-gradient" y1="15.79" y2="35.81"/>
    <linearGradient gradientTransform="translate(-0.34 11.74) rotate(10)" id="linear-gradient-8" x1="16.75" x2="39.57" xlink:href="#linear-gradient" y1="9.32" y2="9.32"/>
    <linearGradient id="linear-gradient-9" x1="22.46" x2="29.07" xlink:href="#linear-gradient" y1="49.76" y2="49.76"/>
    <linearGradient id="linear-gradient-10" x1="36.75" x2="43.36" xlink:href="#linear-gradient" y1="49.76" y2="49.76"/>
    <linearGradient id="linear-gradient-11" x1="8.17" x2="14.78" xlink:href="#linear-gradient" y1="49.76" y2="49.76"/>
  </defs>
  <title>Rotary Potentiometer - 10k Ohm, Linear</title>
  <g data-name="Layer 1" id="Layer_1">
    <g data-name="&lt;Group&gt;" id="_Group_">
      <polygon data-name="&lt;Path&gt;" id="_Path_" points="41.37 74.49 41.37 61.81 42.13 61.81 42.13 55.99 41.37 55.99 41.37 52.69 38.98 52.69 38.98 55.99 38.09 55.99 38.09 61.81 38.98 61.81 38.98 74.49 41.37 74.49" style="fill: url(#linear-gradient)"/>
      <polygon data-name="&lt;Path&gt;" id="_Path_2" points="27.26 74.49 27.26 61.81 28.01 61.81 28.01 55.99 27.26 55.99 27.26 52.69 24.86 52.69 24.86 55.99 23.98 55.99 23.98 61.81 24.86 61.81 24.86 74.49 27.26 74.49" style="fill: url(#linear-gradient-2)"/>
      <polygon data-name="&lt;Path&gt;" id="_Path_3" points="12.93 74.49 12.93 61.81 13.68 61.81 13.68 55.99 12.93 55.99 12.93 52.69 10.53 52.69 10.53 55.99 9.65 55.99 9.65 61.81 10.53 61.81 10.53 74.49 12.93 74.49" style="fill: url(#linear-gradient-3)"/>
      <circle cx="25.77" cy="25.77" data-name="&lt;Path&gt;" id="_Path_4" r="25.77" style="fill: #a77d52"/>
      <polygon data-name="&lt;Path&gt;" id="_Path_5" points="4.55 36.88 4.55 53.53 8.07 57.22 9.76 57.22 9.76 56 13.59 56 13.59 57.22 24.19 57.22 24.19 56 27.84 56 27.84 57.22 38.27 57.22 38.27 56 41.92 56 41.92 57.22 43.43 57.22 47.13 53.5 47.13 36.88 4.55 36.88" style="fill: #81471e"/>
      <circle cx="25.77" cy="25.77" data-name="&lt;Path&gt;" id="_Path_6" r="25.46" style="fill: #81471e"/>
      <path d="M0,25.9A26,26,0,0,0,5.69,42.1H45.84A25.9,25.9,0,0,0,45.9,9.77H5.63A26,26,0,0,0,0,25.9Z" data-name="&lt;Path&gt;" id="_Path_7" style="fill: #b4b4b4"/>
      <path d="M.3,25.93a25.17,25.17,0,0,0,5,15.12H46.24a25.42,25.42,0,0,0,0-30.24H5.29A25.17,25.17,0,0,0,.3,25.93Z" data-name="&lt;Path&gt;" id="_Path_8" style="fill: #e6e6e5"/>
      <path d="M.3,25.93a25.17,25.17,0,0,0,5,15.12H46.24a25.42,25.42,0,0,0,0-30.24H5.29A25.17,25.17,0,0,0,.3,25.93Z" data-name="&lt;Path&gt;" id="_Path_9" style="fill: #ccc"/>
      <path d="M1.15,19.28A25.59,25.59,0,0,0,.3,25.8a25.33,25.33,0,0,0,.83,6.44l24.72-6.48Z" data-name="&lt;Path&gt;" id="_Path_10" style="fill: url(#linear-gradient-4)"/>
      <path d="M50.41,32.22a25.33,25.33,0,0,0,.82-6.42,25.59,25.59,0,0,0-.84-6.5L25.77,25.76Z" data-name="&lt;Path&gt;" id="_Path_11" style="fill: url(#linear-gradient-5)"/>
      <path d="M5.72,25.9a19.93,19.93,0,0,0,6.94,15.16H38.87A20,20,0,0,0,39,10.81H12.58A19.93,19.93,0,0,0,5.72,25.9Z" data-name="&lt;Path&gt;" id="_Path_12" style="fill: url(#linear-gradient-6)"/>
      <path d="M6.7,25.9a19,19,0,0,0,7.52,15.16H37.31A19,19,0,0,0,44.83,25.9,19.25,19.25,0,0,0,37.4,10.81H14.13A19.25,19.25,0,0,0,6.7,25.9Z" data-name="&lt;Path&gt;" id="_Path_13" style="fill: #ccc"/>
      <path d="M6.56,13.57,4.47,11.84a25.1,25.1,0,0,0-3,6.38l2.71.49A2.93,2.93,0,0,0,6.56,13.57Z" data-name="&lt;Path&gt;" id="_Path_14" style="fill: #e6e6e5"/>
      <path d="M4.15,32.84l-2.71.49a25.78,25.78,0,0,0,3,6.39L6.55,38A2.93,2.93,0,0,0,4.15,32.84Z" data-name="&lt;Path&gt;" id="_Path_15" style="fill: #e6e6e5"/>
      <path d="M47.09,11.88,45,13.62a2.93,2.93,0,0,0,2.4,5.14l2.72-.49A25.1,25.1,0,0,0,47.09,11.88Z" data-name="&lt;Path&gt;" id="_Path_16" style="fill: #e6e6e5"/>
      <path d="M50.13,33.18l-2.69-.49A2.93,2.93,0,0,0,45,37.83l2.11,1.75A25.74,25.74,0,0,0,50.13,33.18Z" data-name="&lt;Path&gt;" id="_Path_17" style="fill: #e6e6e5"/>
      <circle cx="25.77" cy="25.8" data-name="&lt;Path&gt;" id="_Path_18" r="14.16" style="fill: url(#linear-gradient-7)"/>
      <circle cx="25.77" cy="25.8" data-name="&lt;Path&gt;" id="_Path_19" r="12.52" style="fill: #ccc"/>
      <g data-name="&lt;Group&gt;" id="_Group_2">
        <polygon data-name="&lt;Path&gt;" id="_Path_20" points="18.07 35.01 13.97 23.77 21.67 14.6 33.46 16.68 37.56 27.93 29.86 37.09 18.07 35.01" style="fill: #b4b4b4"/>
        <polygon data-name="&lt;Path&gt;" id="_Path_21" points="18.44 34.53 14.54 23.82 21.87 15.09 33.11 17.07 37.01 27.78 29.68 36.51 18.44 34.53" style="fill: url(#linear-gradient-8)"/>
      </g>
      <circle cx="25.77" cy="25.85" data-name="&lt;Path&gt;" id="_Path_22" r="6.43" style="fill: #4e4e4e"/>
      <circle cx="25.77" cy="25.85" data-name="&lt;Path&gt;" id="_Path_23" r="6.12" style="fill: #ccc"/>
      <path d="M21.5,30.15a5.26,5.26,0,0,0,.68.58l8.55-8.55a5.61,5.61,0,0,0-1.26-1.26l-8.55,8.55A5.26,5.26,0,0,0,21.5,30.15Z" data-name="&lt;Path&gt;" id="_Path_24" style="fill: #b4b4b4"/>
      <g data-name="&lt;Group&gt;" id="_Group_3">
        <circle cx="25.77" cy="49.76" data-name="&lt;Path&gt;" id="_Path_25" r="3.3" style="fill: url(#linear-gradient-9)"/>
        <circle cx="25.77" cy="49.76" data-name="&lt;Path&gt;" id="_Path_26" r="2.29" style="fill: #818181"/>
      </g>
      <g data-name="&lt;Group&gt;" id="_Group_4">
        <circle cx="40.05" cy="49.76" data-name="&lt;Path&gt;" id="_Path_27" r="3.3" style="fill: url(#linear-gradient-10)"/>
        <circle cx="40.05" cy="49.76" data-name="&lt;Path&gt;" id="_Path_28" r="2.29" style="fill: #818181"/>
      </g>
      <g data-name="&lt;Group&gt;" id="_Group_5">
        <circle cx="11.48" cy="49.76" data-name="&lt;Path&gt;" id="_Path_29" r="3.3" style="fill: url(#linear-gradient-11)"/>
        <circle cx="11.48" cy="49.76" data-name="&lt;Path&gt;" id="_Path_30" r="2.29" style="fill: #818181"/>
      </g>
      <g data-name="&lt;Group&gt;" id="_Group_6">
        <path d="M23,7.11h-.68V4.56a2.34,2.34,0,0,1-.88.51V4.46A2,2,0,0,0,22,4.13a1.25,1.25,0,0,0,.43-.57H23Z" data-name="&lt;Compound Path&gt;" id="_Compound_Path_" style="fill: #fff"/>
        <path d="M25.15,3.56a1,1,0,0,1,.8.37,2.34,2.34,0,0,1,.34,1.44,2.35,2.35,0,0,1-.35,1.44,1,1,0,0,1-.8.36,1,1,0,0,1-.83-.4A2.35,2.35,0,0,1,24,5.36a2.34,2.34,0,0,1,.35-1.44A1,1,0,0,1,25.15,3.56Zm0,.56a.34.34,0,0,0-.22.08.53.53,0,0,0-.15.28,3.87,3.87,0,0,0-.07.89,3.85,3.85,0,0,0,.06.86.6.6,0,0,0,.16.31.35.35,0,0,0,.44,0,.53.53,0,0,0,.15-.28,3.84,3.84,0,0,0,.07-.88,3.85,3.85,0,0,0-.06-.86.61.61,0,0,0-.16-.31A.33.33,0,0,0,25.15,4.12Z" data-name="&lt;Compound Path&gt;" id="_Compound_Path_2" style="fill: #fff"/>
        <path d="M26.91,7.11V3.58h.71V5.15l1.44-1.57h1L28.69,5l1.4,2.16h-.92l-1-1.66L27.62,6V7.11Z" data-name="&lt;Compound Path&gt;" id="_Compound_Path_3" style="fill: #fff"/>
      </g>
    </g>
  </g>
  <g id="Connectors">
    <rect data-cir-type="male" height="2.4" id="circuitoCon_Vin" style="fill: none" width="2.4" x="10.53" y="72.09"/>
    <rect data-cir-type="male" height="2.38" id="circuitoCon_Sig" style="fill: none" width="2.38" x="24.87" y="72.1"/>
    <rect data-cir-type="male" height="2.42" id="circuitoCon_0" style="fill: none" width="2.38" x="38.99" y="72.07"/>
  </g>
</svg>