<?xml version="1.0" ?><svg height="27.02mm" viewBox="0 0 102.34 76.58" width="36.1mm" xmlns="http://www.w3.org/2000/svg">
  <title>ATMEGA328P-PU</title>
  <g data-name="Layer 2" id="Layer_2">
    <rect height="15.55" rx="1.86" ry="1.86" style="fill: #292e32" transform="translate(102.34 23.78) rotate(180)" width="102.34" y="4.12"/>
    <path d="M2.78,11.89A2.77,2.77,0,0,0,0,9.11v5.56A2.78,2.78,0,0,0,2.78,11.89Z" style="fill: #1b1b1b"/>
    <g>
      <path d="M29.4,13.43l1-3.35a.24.24,0,0,1,.24-.18.21.21,0,0,1,.23.15l1,3.4a.2.2,0,0,1,0,.07.24.24,0,0,1-.07.18.26.26,0,0,1-.16.07.22.22,0,0,1-.24-.18l-.2-.66H30.06l-.21.71a.18.18,0,0,1-.07.09.37.37,0,0,1-.14,0,.25.25,0,0,1-.18-.07.24.24,0,0,1-.07-.18A.28.28,0,0,1,29.4,13.43ZM30.63,11l-.42,1.4H31Z" style="fill: #999"/>
      <path d="M33,10.56V9.9h2.48v.67a.21.21,0,0,1-.08.17.22.22,0,0,1-.17.07.24.24,0,0,1-.18-.07.22.22,0,0,1-.07-.17v-.18h-.5v3.13a.24.24,0,0,1-.07.18.26.26,0,0,1-.17.07A.29.29,0,0,1,34,13.7a.24.24,0,0,1-.07-.18V10.39h-.5v.17a.24.24,0,0,1-.41.18A.25.25,0,0,1,33,10.56Z" style="fill: #999"/>
      <path d="M37.58,11.42v-.13l-.51-.72v2.95a.24.24,0,0,1-.07.18.26.26,0,0,1-.17.07.24.24,0,0,1-.25-.25V9.9h.64l.6.87.62-.87h.62v3.62a.24.24,0,0,1-.25.25.26.26,0,0,1-.17-.07.25.25,0,0,1-.08-.18V10.58l-.49.7v.14a.28.28,0,0,1-.07.17.24.24,0,0,1-.18.07.24.24,0,0,1-.24-.24Z" style="fill: #999"/>
      <path d="M42.42,10.39H40.69v1.19h.74a.25.25,0,0,1,.18.08.26.26,0,0,1,.07.17.24.24,0,0,1-.07.18.29.29,0,0,1-.18.07h-.74v1.2h1.73a.24.24,0,0,1,.18.07.28.28,0,0,1,.07.17.24.24,0,0,1-.25.25H40.2V9.9h2.22a.24.24,0,0,1,.18.07.29.29,0,0,1,.07.18.28.28,0,0,1-.07.17A.24.24,0,0,1,42.42,10.39Z" style="fill: #999"/>
      <path d="M45.22,9.9H46a.24.24,0,0,1,.18.07.22.22,0,0,1,.07.17.25.25,0,0,1-.08.18.23.23,0,0,1-.17.07h-.77a.26.26,0,0,0-.2.11l-.69.88a.43.43,0,0,0-.08.29V13a.24.24,0,0,0,.07.18.26.26,0,0,0,.17.07h1a.28.28,0,0,0,.17-.07.24.24,0,0,0,.07-.18V12.5h-.5a.24.24,0,0,1-.18-.07.24.24,0,0,1,0-.34.25.25,0,0,1,.18-.08h1v1a.73.73,0,0,1-.73.74h-1a.69.69,0,0,1-.52-.22.67.67,0,0,1-.22-.52V11.68a1,1,0,0,1,.2-.62l.72-.91a.58.58,0,0,1,.22-.18A.59.59,0,0,1,45.22,9.9Z" style="fill: #999"/>
      <path d="M47.42,13.43l1-3.35a.24.24,0,0,1,.24-.18.21.21,0,0,1,.23.15l1,3.4a.2.2,0,0,1,0,.07.24.24,0,0,1-.07.18.24.24,0,0,1-.16.07.22.22,0,0,1-.24-.18l-.2-.66H48.08l-.21.71a.18.18,0,0,1-.07.09.37.37,0,0,1-.14,0,.25.25,0,0,1-.18-.07.24.24,0,0,1-.07-.18A.28.28,0,0,1,47.42,13.43ZM48.65,11l-.42,1.4h.83Z" style="fill: #999"/>
      <path d="M53.48,10.39v.91a.7.7,0,0,1-.2.52.76.76,0,0,1,.2.5v.95a.5.5,0,0,1-.14.35.52.52,0,0,1-.35.14H51.26a.24.24,0,0,1-.18-.07.22.22,0,0,1-.07-.17.24.24,0,0,1,.07-.18.29.29,0,0,1,.18-.07H53v-.95a.24.24,0,0,0-.07-.18.23.23,0,0,0-.17-.07h-1a.26.26,0,0,1-.17-.07.24.24,0,0,1-.07-.18.24.24,0,0,1,.24-.24h1a.26.26,0,0,0,.17-.07.25.25,0,0,0,.08-.18v-.94H51.24a.25.25,0,0,1-.18-.08.24.24,0,0,1-.07-.17.26.26,0,0,1,.07-.17.24.24,0,0,1,.18-.07H53a.44.44,0,0,1,.34.14A.47.47,0,0,1,53.48,10.39Z" style="fill: #999"/>
      <path d="M56.83,13.76H54.61V12.07a.52.52,0,0,1,.14-.35.5.5,0,0,1,.35-.14h1.48V10.39H54.84a.25.25,0,0,1-.18-.08.21.21,0,0,1-.07-.17.22.22,0,0,1,.07-.17.24.24,0,0,1,.18-.07h1.74a.45.45,0,0,1,.35.14.47.47,0,0,1,.15.35v1.19a.47.47,0,0,1-.15.35.48.48,0,0,1-.35.14H55.1v1.2h1.73a.29.29,0,0,1,.18.07.24.24,0,0,1,.07.18.22.22,0,0,1-.07.17A.24.24,0,0,1,56.83,13.76Z" style="fill: #999"/>
      <path d="M58.2,13.27v-1.2a.45.45,0,0,1,.15-.34.45.45,0,0,1,.35-.15V10.14a.22.22,0,0,1,.07-.17.21.21,0,0,1,.17-.07h1a.24.24,0,0,1,.24.24v1.44a.52.52,0,0,1,.35.14.5.5,0,0,1,.14.35v1.2a.5.5,0,0,1-.14.35.52.52,0,0,1-.35.14H58.7a.45.45,0,0,1-.35-.15A.48.48,0,0,1,58.2,13.27Zm.5-1.2v1.2h1.48v-1.2Zm.49-1.68v1.19h.5V10.39Z" style="fill: #999"/>
      <path d="M61.82,13.52V9.9h1.74a.73.73,0,0,1,.73.74v.91a.73.73,0,0,1-.73.74H62.32v1.23a.25.25,0,1,1-.5,0Zm.5-1.72h1.24a.22.22,0,0,0,.17-.07.24.24,0,0,0,.07-.18v-.91a.24.24,0,0,0-.07-.18.26.26,0,0,0-.17-.07H62.32Z" style="fill: #999"/>
      <path d="M67.89,11.82V12a.24.24,0,0,1-.07.18.23.23,0,0,1-.17.07h-2a.22.22,0,0,1-.17-.07.24.24,0,0,1-.07-.18v-.21a.24.24,0,0,1,.07-.18.26.26,0,0,1,.17-.07h2a.23.23,0,0,1,.17.07A.23.23,0,0,1,67.89,11.82Z" style="fill: #999"/>
      <path d="M69,13.52V9.9h1.74a.75.75,0,0,1,.73.74v.91a.73.73,0,0,1-.73.74H69.53v1.23a.25.25,0,0,1-.08.18.24.24,0,0,1-.17.07.24.24,0,0,1-.25-.25Zm.5-1.72h1.24a.23.23,0,0,0,.17-.07.24.24,0,0,0,.07-.18v-.91a.24.24,0,0,0-.07-.18.28.28,0,0,0-.17-.07H69.53Z" style="fill: #999"/>
      <path d="M72.63,13V10.15A.24.24,0,0,1,72.7,10a.23.23,0,0,1,.17-.07.24.24,0,0,1,.18.07.28.28,0,0,1,.07.17V13a.22.22,0,0,0,.07.17.23.23,0,0,0,.17.07h1a.24.24,0,0,0,.18-.07.21.21,0,0,0,.07-.17V10.15a.24.24,0,0,1,.07-.18.23.23,0,0,1,.17-.07.24.24,0,0,1,.25.25V13a.7.7,0,0,1-.22.52.69.69,0,0,1-.52.22h-1a.73.73,0,0,1-.73-.74Z" style="fill: #999"/>
    </g>
    <circle cx="4.57" cy="16.13" r="1.39" style="fill: #1b1b1b"/>
  </g>
  <g data-name="Layer 3" id="Layer_3">
    <path d="M3.54,1.85h0V.33c0-.18.09-.33.19-.33H5.38c.1,0,.18.15.18.33V1.85h.05c.07,0,.13.09.15.21H3.39C3.4,1.94,3.46,1.85,3.54,1.85Z" style="fill: #9d9d9e"/>
    <path d="M6.27,4.13V2.06H2.88s0,0,0,.07v2Z" style="fill: #ababab"/>
    <path d="M17.94,1.85h0V.33c0-.18.09-.33.19-.33h1.6c.11,0,.19.15.19.33V1.85H20c.07,0,.13.09.15.21H17.78C17.8,1.94,17.86,1.85,17.94,1.85Z" style="fill: #9d9d9e"/>
    <path d="M20.67,4.13v-2a.17.17,0,0,0,0-.07H17.28a.17.17,0,0,0,0,.07v2Z" style="fill: #ababab"/>
    <path d="M10.74,1.85h0V.33c0-.18.09-.33.19-.33h1.6c.11,0,.19.15.19.33V1.85h.05c.07,0,.13.09.15.21H10.58C10.6,1.94,10.66,1.85,10.74,1.85Z" style="fill: #9d9d9e"/>
    <path d="M13.47,4.13V2.06H10.08s0,0,0,.07v2Z" style="fill: #ababab"/>
    <path d="M25.14,1.85h0V.33c0-.18.09-.33.19-.33H27c.11,0,.19.15.19.33V1.85h.05c.07,0,.13.09.15.21H25C25,1.94,25.06,1.85,25.14,1.85Z" style="fill: #9d9d9e"/>
    <path d="M28.24,4.13v-2a.17.17,0,0,0,0-.07H24.11a.17.17,0,0,0,0,.07v2Z" style="fill: #ababab"/>
    <path d="M32.33,1.85h.05V.33c0-.18.08-.33.19-.33h1.6c.11,0,.19.15.19.33V1.85h0c.08,0,.14.09.16.21H32.18C32.2,1.94,32.26,1.85,32.33,1.85Z" style="fill: #9d9d9e"/>
    <path d="M35.07,4.13v-2a.17.17,0,0,0,0-.07H31.68a.17.17,0,0,0,0,.07v2Z" style="fill: #ababab"/>
    <path d="M39.53,1.85h0V.33c0-.18.08-.33.19-.33h1.6c.1,0,.19.15.19.33V1.85h0c.08,0,.14.09.16.21H39.38C39.4,1.94,39.46,1.85,39.53,1.85Z" style="fill: #9d9d9e"/>
    <path d="M42.27,4.13v-2a.17.17,0,0,0,0-.07H38.88a.17.17,0,0,0,0,.07v2Z" style="fill: #ababab"/>
    <path d="M46.73,1.85h.05V.33c0-.18.08-.33.19-.33h1.6c.1,0,.19.15.19.33V1.85h0c.08,0,.14.09.16.21H46.58C46.6,1.94,46.66,1.85,46.73,1.85Z" style="fill: #9d9d9e"/>
    <path d="M49.47,4.13v-2a.17.17,0,0,0,0-.07H46.07V4.13Z" style="fill: #ababab"/>
    <path d="M53.93,1.85h0V.33c0-.18.08-.33.18-.33h1.61c.1,0,.19.15.19.33V1.85h0c.08,0,.14.09.16.21H53.78C53.8,1.94,53.86,1.85,53.93,1.85Z" style="fill: #9d9d9e"/>
    <path d="M56.67,4.13v-2s0,0,0-.07H53.27V4.13Z" style="fill: #ababab"/>
    <path d="M3.54,21.93h0v1.53c0,.18.09.33.19.33H5.38c.1,0,.18-.15.18-.33V21.93h.05c.07,0,.13-.09.15-.21H3.39C3.4,21.84,3.46,21.93,3.54,21.93Z" style="fill: #9d9d9e"/>
    <rect height="0.56" style="fill: #9a9a9b" width="3.4" x="2.87" y="19.66"/>
    <path d="M2.87,21.66s0,0,0,.06H6.27v-1.5H2.87Z" style="fill: #ababab"/>
    <path d="M10.74,21.93h0v1.53c0,.18.09.33.19.33h1.6c.11,0,.19-.15.19-.33V21.93h.05c.07,0,.13-.09.15-.21H10.58C10.6,21.84,10.66,21.93,10.74,21.93Z" style="fill: #9d9d9e"/>
    <rect height="0.56" style="fill: #9a9a9b" width="3.4" x="10.07" y="19.66"/>
    <path d="M10.08,21.72h3.39v-1.5h-3.4v1.44S10.08,21.7,10.08,21.72Z" style="fill: #ababab"/>
    <path d="M17.94,21.93h0v1.53c0,.18.09.33.19.33h1.6c.11,0,.19-.15.19-.33V21.93H20c.07,0,.13-.09.15-.21H17.78C17.8,21.84,17.86,21.93,17.94,21.93Z" style="fill: #9d9d9e"/>
    <rect height="0.56" style="fill: #9a9a9b" width="3.4" x="17.27" y="19.66"/>
    <path d="M17.28,21.72h3.38a.13.13,0,0,0,0-.06V20.22h-3.4v1.44A.13.13,0,0,0,17.28,21.72Z" style="fill: #ababab"/>
    <path d="M25.14,21.93h0v1.53c0,.18.09.33.19.33H27c.11,0,.19-.15.19-.33V21.93h.05c.07,0,.13-.09.15-.21H25C25,21.84,25.06,21.93,25.14,21.93Z" style="fill: #9d9d9e"/>
    <rect height="0.56" style="fill: #9a9a9b" width="3.4" x="24.47" y="19.66"/>
    <path d="M24.48,21.72h3.38a.13.13,0,0,0,0-.06V20.22h-3.4v1.44A.13.13,0,0,0,24.48,21.72Z" style="fill: #ababab"/>
    <path d="M32.34,21.93h0v1.53c0,.18.08.33.19.33h1.6c.11,0,.19-.15.19-.33V21.93h0c.08,0,.14-.09.16-.21H32.18C32.2,21.84,32.26,21.93,32.34,21.93Z" style="fill: #9d9d9e"/>
    <path d="M31.68,21.72h3.38a.13.13,0,0,0,0-.06V20.22h-3.4v1.44A.13.13,0,0,0,31.68,21.72Z" style="fill: #ababab"/>
    <rect height="0.56" style="fill: #9a9a9b" width="3.4" x="31.67" y="19.66"/>
    <path d="M39.53,21.93h0v1.53c0,.18.08.33.19.33h1.6c.1,0,.19-.15.19-.33V21.93h0c.08,0,.14-.09.16-.21H39.38C39.4,21.84,39.46,21.93,39.53,21.93Z" style="fill: #9d9d9e"/>
    <rect height="0.56" style="fill: #9a9a9b" width="3.4" x="38.87" y="19.66"/>
    <path d="M38.88,21.72h3.38a.13.13,0,0,0,0-.06V20.22h-3.4v1.44A.13.13,0,0,0,38.88,21.72Z" style="fill: #ababab"/>
    <path d="M46.73,21.93h.05v1.53c0,.18.08.33.19.33h1.6c.1,0,.19-.15.19-.33V21.93h0c.08,0,.14-.09.16-.21H46.58C46.6,21.84,46.66,21.93,46.73,21.93Z" style="fill: #9d9d9e"/>
    <path d="M46.07,21.72h3.39a.13.13,0,0,0,0-.06V20.22h-3.4v1.5Z" style="fill: #ababab"/>
    <rect height="0.56" style="fill: #9a9a9b" width="3.4" x="46.07" y="19.66"/>
    <path d="M53.93,21.93h0v1.53c0,.18.08.33.18.33h1.61c.1,0,.19-.15.19-.33V21.93h0c.08,0,.14-.09.16-.21H53.78C53.8,21.84,53.86,21.93,53.93,21.93Z" style="fill: #9d9d9e"/>
    <path d="M53.27,21.72h3.39s0,0,0-.06V20.22h-3.4v1.5Z" style="fill: #ababab"/>
    <rect height="0.56" style="fill: #9a9a9b" width="3.4" x="53.27" y="19.66"/>
    <path d="M61.19,1.85h0V.33c0-.18.09-.33.19-.33H63c.1,0,.18.15.18.33V1.85h0c.07,0,.13.09.15.21H61C61.05,1.94,61.11,1.85,61.19,1.85Z" style="fill: #9d9d9e"/>
    <path d="M63.92,4.13V2.06H60.53s0,0,0,.07v2Z" style="fill: #ababab"/>
    <path d="M75.59,1.85h0V.33c0-.18.09-.33.19-.33h1.6c.11,0,.19.15.19.33V1.85h0c.07,0,.13.09.15.21H75.43C75.45,1.94,75.51,1.85,75.59,1.85Z" style="fill: #9d9d9e"/>
    <path d="M78.32,4.13v-2a.17.17,0,0,0,0-.07H74.93a.17.17,0,0,0,0,.07v2Z" style="fill: #ababab"/>
    <path d="M68.39,1.85h0V.33c0-.18.09-.33.19-.33h1.6c.11,0,.19.15.19.33V1.85h0c.07,0,.13.09.15.21H68.23C68.25,1.94,68.31,1.85,68.39,1.85Z" style="fill: #9d9d9e"/>
    <path d="M71.12,4.13V2.06H67.73s0,0,0,.07v2Z" style="fill: #ababab"/>
    <path d="M82.79,1.85h0V.33c0-.18.09-.33.19-.33h1.6c.11,0,.19.15.19.33V1.85h0c.07,0,.13.09.15.21H82.63C82.65,1.94,82.71,1.85,82.79,1.85Z" style="fill: #9d9d9e"/>
    <path d="M85.89,4.13v-2a.17.17,0,0,0,0-.07H81.76a.17.17,0,0,0,0,.07v2Z" style="fill: #ababab"/>
    <path d="M90,1.85h0V.33c0-.18.08-.33.19-.33h1.6c.11,0,.19.15.19.33V1.85h0c.08,0,.14.09.16.21H89.83C89.85,1.94,89.91,1.85,90,1.85Z" style="fill: #9d9d9e"/>
    <path d="M92.72,4.13v-2a.17.17,0,0,0,0-.07H89.33a.17.17,0,0,0,0,.07v2Z" style="fill: #ababab"/>
    <path d="M97.18,1.85h0V.33c0-.18.08-.33.19-.33H99c.1,0,.19.15.19.33V1.85h0c.08,0,.14.09.16.21H97C97.05,1.94,97.11,1.85,97.18,1.85Z" style="fill: #9d9d9e"/>
    <path d="M99.92,4.13v-2a.17.17,0,0,0,0-.07H96.53a.17.17,0,0,0,0,.07v2Z" style="fill: #ababab"/>
    <path d="M61.19,21.93h0v1.53c0,.18.09.33.19.33H63c.1,0,.18-.15.18-.33V21.93h0c.07,0,.13-.09.15-.21H61C61.05,21.84,61.11,21.93,61.19,21.93Z" style="fill: #9d9d9e"/>
    <rect height="0.56" style="fill: #9a9a9b" width="3.4" x="60.52" y="19.66"/>
    <path d="M60.52,21.66s0,0,0,.06h3.39v-1.5h-3.4Z" style="fill: #ababab"/>
    <path d="M68.39,21.93h0v1.53c0,.18.09.33.19.33h1.6c.11,0,.19-.15.19-.33V21.93h0c.07,0,.13-.09.15-.21H68.23C68.25,21.84,68.31,21.93,68.39,21.93Z" style="fill: #9d9d9e"/>
    <rect height="0.56" style="fill: #9a9a9b" width="3.4" x="67.72" y="19.66"/>
    <path d="M67.73,21.72h3.39v-1.5h-3.4v1.44S67.73,21.7,67.73,21.72Z" style="fill: #ababab"/>
    <path d="M75.59,21.93h0v1.53c0,.18.09.33.19.33h1.6c.11,0,.19-.15.19-.33V21.93h0c.07,0,.13-.09.15-.21H75.43C75.45,21.84,75.51,21.93,75.59,21.93Z" style="fill: #9d9d9e"/>
    <rect height="0.56" style="fill: #9a9a9b" width="3.4" x="74.92" y="19.66"/>
    <path d="M74.93,21.72h3.38a.13.13,0,0,0,0-.06V20.22h-3.4v1.44A.13.13,0,0,0,74.93,21.72Z" style="fill: #ababab"/>
    <path d="M82.79,21.93h0v1.53c0,.18.09.33.19.33h1.6c.11,0,.19-.15.19-.33V21.93h0c.07,0,.13-.09.15-.21H82.63C82.65,21.84,82.71,21.93,82.79,21.93Z" style="fill: #9d9d9e"/>
    <rect height="0.56" style="fill: #9a9a9b" width="3.4" x="82.12" y="19.66"/>
    <path d="M82.13,21.72h3.38a.13.13,0,0,0,0-.06V20.22h-3.4v1.44A.13.13,0,0,0,82.13,21.72Z" style="fill: #ababab"/>
    <path d="M90,21.93h0v1.53c0,.18.08.33.19.33h1.6c.11,0,.19-.15.19-.33V21.93h0c.08,0,.14-.09.16-.21H89.83C89.85,21.84,89.91,21.93,90,21.93Z" style="fill: #9d9d9e"/>
    <path d="M89.33,21.72h3.38a.13.13,0,0,0,0-.06V20.22h-3.4v1.44A.13.13,0,0,0,89.33,21.72Z" style="fill: #ababab"/>
    <rect height="0.56" style="fill: #9a9a9b" width="3.4" x="89.32" y="19.66"/>
    <path d="M97.18,21.93h0v1.53c0,.18.08.33.19.33H99c.1,0,.19-.15.19-.33V21.93h0c.08,0,.14-.09.16-.21H97C97.05,21.84,97.11,21.93,97.18,21.93Z" style="fill: #9d9d9e"/>
    <rect height="0.56" style="fill: #9a9a9b" width="3.4" x="96.52" y="19.66"/>
    <path d="M96.53,21.72h3.38a.13.13,0,0,0,0-.06V20.22h-3.4v1.44A.13.13,0,0,0,96.53,21.72Z" style="fill: #ababab"/>
  </g>
  <g id="Connectors">
    <rect data-cir-type="male" height="1.83" id="circuitoCon_9" style="fill: none" width="1.98" x="97.24"/>
    <rect data-cir-type="male" height="1.83" id="circuitoCon_10" style="fill: none" width="1.98" x="90.03"/>
    <rect data-cir-type="male" height="1.83" id="circuitoCon_11" style="fill: none" width="1.98" x="82.82"/>
    <rect data-cir-type="male" height="1.83" id="circuitoCon_12" style="fill: none" width="1.98" x="75.6"/>
    <rect data-cir-type="male" height="1.83" id="circuitoCon_13" style="fill: none" width="1.98" x="68.39"/>
    <rect data-cir-type="male" height="1.83" id="circuitoCon_AVCC" style="fill: none" width="1.98" x="61.18"/>
    <rect data-cir-type="male" height="1.83" id="circuitoCon_AREF" style="fill: none" width="1.98" x="53.96"/>
    <rect data-cir-type="male" height="1.83" id="circuitoCon_GND2" style="fill: none" width="1.98" x="46.75"/>
    <rect data-cir-type="male" height="1.83" id="circuitoCon_A0" style="fill: none" width="1.98" x="39.54"/>
    <rect data-cir-type="male" height="1.83" id="circuitoCon_A1" style="fill: none" width="1.98" x="32.32"/>
    <rect data-cir-type="male" height="1.83" id="circuitoCon_A2" style="fill: none" width="1.98" x="25.11"/>
    <rect data-cir-type="male" height="1.83" id="circuitoCon_A3" style="fill: none" width="1.98" x="17.9"/>
    <rect data-cir-type="male" height="1.83" id="circuitoCon_A4" style="fill: none" width="1.98" x="10.68"/>
    <rect data-cir-type="male" height="1.83" id="circuitoCon_A5" style="fill: none" width="1.98" x="3.47"/>
    <rect data-cir-type="male" height="1.83" id="circuitoCon_8" style="fill: none" width="1.98" x="97.24" y="21.95"/>
    <rect data-cir-type="male" height="1.83" id="circuitoCon_7" style="fill: none" width="1.98" x="90.03" y="21.95"/>
    <rect data-cir-type="male" height="1.83" id="circuitoCon_6" style="fill: none" width="1.98" x="82.82" y="21.95"/>
    <rect data-cir-type="male" height="1.83" id="circuitoCon_5" style="fill: none" width="1.98" x="75.6" y="21.95"/>
    <rect height="1.83" id="circuitoCon__XTAL2" style="fill: none" width="1.98" x="68.39" y="21.95"/>
    <rect data-cir-type="male" height="1.83" id="circuitoCon_XTAL1" style="fill: none" width="1.98" x="61.18" y="21.95"/>
    <rect data-cir-type="male" height="1.83" id="circuitoCon_GND" style="fill: none" width="1.98" x="53.96" y="21.95"/>
    <rect data-cir-type="male" height="1.83" id="circuitoCon_VCC" style="fill: none" width="1.98" x="46.75" y="21.95"/>
    <rect data-cir-type="male" height="1.83" id="circuitoCon_4" style="fill: none" width="1.98" x="39.54" y="21.95"/>
    <rect data-cir-type="male" height="1.83" id="circuitoCon_3" style="fill: none" width="1.98" x="32.32" y="21.95"/>
    <rect data-cir-type="male" height="1.83" id="circuitoCon_2" style="fill: none" width="1.98" x="25.11" y="21.95"/>
    <rect data-cir-type="male" height="1.83" id="circuitoCon_TXD" style="fill: none" width="1.98" x="17.9" y="21.95"/>
    <rect data-cir-type="male" height="1.83" id="circuitoCon_RXD" style="fill: none" width="1.98" x="10.68" y="21.95"/>
    <rect data-cir-type="male" height="1.83" id="circuitoCon_RESET" style="fill: none" width="1.98" x="3.47" y="21.95"/>
    <rect height="5.13" id="circuitoCon_FTDI" style="fill: none" width="47.09" y="100.45"/>
  </g>
</svg>