<?xml version="1.0" ?><svg height="27.99mm" viewBox="0 0 79.14 79.33" width="27.92mm" xmlns="http://www.w3.org/2000/svg">
  <title>Adafruit Arduino Gemma v2</title>
  <g id="Part">
    <g id="BACKGROUND">
      <circle cx="62.1" cy="16.96" r="1.8" style="fill: none" transform="translate(6.19 48.88) rotate(-45)"/>
      <circle cx="16.72" cy="16.96" r="1.8" style="fill: none" transform="translate(-7.1 16.79) rotate(-45)"/>
      <circle cx="16.72" cy="62.35" r="1.8" style="fill: none" transform="translate(-39.19 30.08) rotate(-45)"/>
      <circle cx="62.1" cy="62.35" r="1.8" style="fill: none" transform="translate(-25.9 62.17) rotate(-45)"/>
      <circle cx="39.41" cy="71.72" r="1.8" style="fill: none"/>
      <path d="M.72,39.78c0,1.86-.79,3.57-.54,5.36a39.66,39.66,0,1,0,.33-13C0,34.61.72,37.22.72,39.78ZM46.56,78.53a42.43,42.43,0,0,1-14.17,0V74.16a7.09,7.09,0,0,1,14.17,0ZM68.9,59.07l3.1,3.1a42.44,42.44,0,0,1-10,10l-3.09-3.09a7.09,7.09,0,0,1,10-10Zm-48.83,0a7.09,7.09,0,0,1,0,10L17,72.18a42.44,42.44,0,0,1-10-10L10,59.07A7.09,7.09,0,0,1,20.07,59.07ZM10,20.26,7,17.17a42.43,42.43,0,0,1,10-10l3.09,3.09a7.09,7.09,0,0,1-10,10ZM67.4,11.74A43,43,0,0,1,72,17.17L68.9,20.26a7.09,7.09,0,0,1-10-10L62,7.15A43,43,0,0,1,67.4,11.74ZM41.79,7.63c0,3-4.64,3-4.64,0S41.79,4.65,41.79,7.63Z"/>
      <path d="M.17,34.27"/>
    </g>
    <g data-name="&lt;Layer&gt;" id="_Layer_">
      <circle cx="26.17" cy="50.08" r="0.98" style="fill: none;stroke: #1c1c1c;stroke-linecap: round;stroke-miterlimit: 10;stroke-width: 0.5px"/>
      <circle cx="24.37" cy="58.51" r="0.98" style="fill: none;stroke: #1c1c1c;stroke-linecap: round;stroke-miterlimit: 10;stroke-width: 0.5px"/>
      <circle cx="32.69" cy="53.74" r="0.98" style="fill: none;stroke: #1c1c1c;stroke-linecap: round;stroke-miterlimit: 10;stroke-width: 0.5px"/>
      <circle cx="35.6" cy="54.78" r="0.98" style="fill: none;stroke: #1c1c1c;stroke-linecap: round;stroke-miterlimit: 10;stroke-width: 0.5px"/>
      <circle cx="41.55" cy="49.37" r="0.98" style="fill: none;stroke: #1c1c1c;stroke-linecap: round;stroke-miterlimit: 10;stroke-width: 0.5px"/>
      <circle cx="46.23" cy="49.37" r="0.98" style="fill: none;stroke: #1c1c1c;stroke-linecap: round;stroke-miterlimit: 10;stroke-width: 0.5px"/>
      <circle cx="45.14" cy="37.92" r="0.98" style="fill: none;stroke: #1c1c1c;stroke-linecap: round;stroke-miterlimit: 10;stroke-width: 0.5px"/>
      <circle cx="37.84" cy="37.84" r="0.98" style="fill: none;stroke: #1c1c1c;stroke-linecap: round;stroke-miterlimit: 10;stroke-width: 0.5px"/>
      <g>
        <rect height="0.92" style="fill: #ebeee9" transform="translate(-8.54 67.19) rotate(-90)" width="1.48" x="28.58" y="37.41"/>
        <rect height="0.92" style="fill: #ebeee9" transform="translate(-7.09 68.65) rotate(-90)" width="1.48" x="30.04" y="37.41"/>
        <rect height="0.92" style="fill: #ebeee9" transform="translate(-5.64 70.1) rotate(-90)" width="1.48" x="31.49" y="37.41"/>
        <rect height="0.92" style="fill: #ebeee9" transform="translate(-4.19 71.55) rotate(-90)" width="1.48" x="32.94" y="37.41"/>
        <rect height="0.92" style="fill: #ebeee9" transform="translate(-2.73 73.01) rotate(-90)" width="1.48" x="34.4" y="37.41"/>
      </g>
      <g>
        <rect height="0.92" style="fill: #ebeee9" transform="translate(76.82 94.16) rotate(-180)" width="1.48" x="37.67" y="46.62"/>
        <rect height="0.92" style="fill: #ebeee9" transform="translate(76.82 91.25) rotate(-180)" width="1.48" x="37.67" y="45.17"/>
        <rect height="0.92" style="fill: #ebeee9" transform="translate(76.82 88.34) rotate(-180)" width="1.48" x="37.67" y="43.71"/>
        <rect height="0.92" style="fill: #ebeee9" transform="translate(76.82 85.44) rotate(-180)" width="1.48" x="37.67" y="42.26"/>
        <rect height="0.92" style="fill: #ebeee9" transform="translate(76.82 82.53) rotate(-180)" width="1.48" x="37.67" y="40.81"/>
      </g>
      <g>
        <rect height="0.92" style="fill: #ebeee9" transform="translate(52.2 94.16) rotate(-180)" width="1.48" x="25.36" y="46.62"/>
        <rect height="0.92" style="fill: #ebeee9" transform="translate(52.2 91.25) rotate(-180)" width="1.48" x="25.36" y="45.17"/>
        <rect height="0.92" style="fill: #ebeee9" transform="translate(52.2 88.34) rotate(-180)" width="1.48" x="25.36" y="43.71"/>
        <rect height="0.92" style="fill: #ebeee9" transform="translate(52.2 85.44) rotate(-180)" width="1.48" x="25.36" y="42.26"/>
        <rect height="0.92" style="fill: #ebeee9" transform="translate(52.2 82.53) rotate(-180)" width="1.48" x="25.36" y="40.81"/>
      </g>
      <g>
        <rect height="0.92" style="fill: #ebeee9" transform="translate(-20.98 79.63) rotate(-90)" width="1.48" x="28.58" y="49.85"/>
        <rect height="0.92" style="fill: #ebeee9" transform="translate(-19.53 81.08) rotate(-90)" width="1.48" x="30.04" y="49.85"/>
        <rect height="0.92" style="fill: #ebeee9" transform="translate(-18.08 82.54) rotate(-90)" width="1.48" x="31.49" y="49.85"/>
        <rect height="0.92" style="fill: #ebeee9" transform="translate(-16.62 83.99) rotate(-90)" width="1.48" x="32.94" y="49.85"/>
        <rect height="0.92" style="fill: #ebeee9" transform="translate(-15.17 85.44) rotate(-90)" width="1.48" x="34.4" y="49.85"/>
      </g>
      <rect height="11.37" style="fill: #212121" transform="translate(-11.81 76.33) rotate(-90)" width="11.5" x="26.51" y="38.38"/>
      <g>
        <g>
          <polyline points="26.37 48.15 26.37 50.01 28.36 50.01" style="fill: none;stroke: #ebeee9;stroke-miterlimit: 10;stroke-width: 0.400000005960465px"/>
          <polyline points="26.37 40.08 26.37 38.22 28.36 38.22" style="fill: none;stroke: #ebeee9;stroke-miterlimit: 10;stroke-width: 0.400000005960465px"/>
        </g>
        <g>
          <polyline points="38.14 40.03 38.14 38.17 36.16 38.17" style="fill: none;stroke: #ebeee9;stroke-miterlimit: 10;stroke-width: 0.400000005960465px"/>
          <polyline points="38.14 48.1 38.14 49.96 36.16 49.96" style="fill: none;stroke: #ebeee9;stroke-miterlimit: 10;stroke-width: 0.400000005960465px"/>
        </g>
      </g>
      <polyline points="33.47 50.45 33.23 51.57 35.47 54.02" style="fill: none;stroke: #1c1c1c;stroke-linecap: round;stroke-miterlimit: 10;stroke-width: 0.5px"/>
      <line style="fill: none;stroke: #1c1c1c;stroke-linecap: round;stroke-miterlimit: 10;stroke-width: 0.5px" x1="39.03" x2="40.56" y1="51.7" y2="50.45"/>
    </g>
    <g data-name="LINES AROUND" id="LINES_AROUND">
      <polyline points="27.63 23.85 27.63 20.76 29.32 19.83 26.37 16.96" style="fill: none;stroke: #dfe0df;stroke-linecap: round;stroke-miterlimit: 10;stroke-width: 0.200000002980232px"/>
      <path d="M49.53,45.91a2.53,2.53,0,0,0,.47,2.2,3.78,3.78,0,0,0-1.84,1c-.4.3-.48.56.21.73a2.24,2.24,0,0,0,2,.23c-.39.55-.17,1.28.25,2.08.24.56.51.52.81.1a2.6,2.6,0,0,0,.84-1.56c-.06-.3-.05-.46.13-.27a2.77,2.77,0,0,0,2.08.23c.61-.07.52-.33.16-.67a2.48,2.48,0,0,0-1.26-1.27c-.22-.1-.37-.18-.19-.25a.55.55,0,0,0,.38-.32,5.4,5.4,0,0,0,.54-1.61c.11-.38,0-.49-.42-.36a8.57,8.57,0,0,0-.87.18,1.73,1.73,0,0,0-.74.34l-.14.13-.08.26c-.13.27-.23.24-.29-.06-.17-.64-.74-1-1.36-1.27C49.82,45.41,49.6,45.53,49.53,45.91Z" style="fill: #fff"/>
      <line style="fill: none;stroke: #dfe0df;stroke-linecap: round;stroke-miterlimit: 10;stroke-width: 0.200000002980232px" x1="15.35" x2="15.76" y1="25.42" y2="21.79"/>
      <polyline points="11.7 54.02 12.02 53.54 12.02 50.08" style="fill: none;stroke: #dfe0df;stroke-linecap: round;stroke-miterlimit: 10;stroke-width: 0.200000002980232px"/>
    </g>
    <g data-name="Layer 6" id="Layer_6">
      <circle cx="28.27" cy="5.22" r="2.8" style="fill: #40433e"/>
      <line style="fill: none;stroke: #1c1c1c;stroke-linecap: round;stroke-miterlimit: 10;stroke-width: 0.5px" x1="25.18" x2="25.18" y1="21.7" y2="20.04"/>
      <line style="fill: none;stroke: #dfe0df;stroke-linecap: round;stroke-miterlimit: 10;stroke-width: 0.200000002980232px" x1="55.08" x2="59.43" y1="55.86" y2="60.22"/>
      <g>
        <g>
          <rect height="2.36" style="fill: #362e32" transform="translate(1.14 58.38) rotate(-90)" width="3.12" x="28.2" y="27.44"/>
          <rect height="2.36" style="fill: #362e32" transform="translate(8.16 51.36) rotate(-90)" width="3.12" x="28.2" y="20.42"/>
        </g>
        <g>
          <rect height="2.36" style="fill: #362e32" transform="translate(19.39 76.62) rotate(-90)" width="3.12" x="46.44" y="27.44"/>
          <rect height="2.36" style="fill: #362e32" transform="translate(26.41 69.6) rotate(-90)" width="3.12" x="46.44" y="20.42"/>
        </g>
      </g>
      <polygon points="30.48 20.14 30.48 22.98 29.14 22.98 29.14 27.35 30.48 27.35 30.48 29.87 47.17 29.87 47.17 27.35 48.91 27.35 48.91 22.98 47.17 22.98 47.17 20.14 30.48 20.14" style="fill: #9c9793"/>
      <rect height="3.43" rx="1.36" ry="1.36" style="fill: #dfe0df" transform="translate(-12.33 43.84) rotate(-90)" width="5.94" x="12.79" y="26.37"/>
      <rect height="3.43" rx="1.36" ry="1.36" style="fill: #dfe0df" transform="translate(-35.29 66.8) rotate(-90)" width="5.94" x="12.79" y="49.33"/>
      <rect height="1.62" style="fill: #736641" transform="translate(-30.04 95.79) rotate(-90)" width="2.56" x="31.59" y="62.11"/>
      <rect height="1.62" style="fill: #736641" transform="translate(-25.64 91.38) rotate(-90)" width="2.56" x="31.59" y="57.7"/>
      <rect height="1.62" style="fill: #736641" transform="translate(-17.16 108.67) rotate(-90)" width="2.56" x="44.47" y="62.11"/>
      <rect height="1.62" style="fill: #736641" transform="translate(-12.75 104.26) rotate(-90)" width="2.56" x="44.47" y="57.7"/>
      <rect height="3.25" style="fill: #ebe6dc" transform="translate(-31.86 90.16) rotate(-90)" width="9.21" x="24.55" y="59.38"/>
      <rect height="3.73" rx="0.59" ry="0.59" style="fill: #f9fcf7" transform="translate(-2.17 52.54) rotate(-90)" width="12.19" x="19.09" y="25.49"/>
      <g>
        <g>
          <path d="M22.27,35.64h-2c-.45,0-.82-.49-.82-1.1s.37-1.1.82-1.1h2c.45,0,.82.49.82,1.1S22.73,35.64,22.27,35.64Z" style="fill: #bcbcbc"/>
          <path d="M22.27,41.5h-2c-.45,0-.82-.49-.82-1.1s.37-1.1.82-1.1h2c.45,0,.82.49.82,1.1S22.73,41.5,22.27,41.5Z" style="fill: #bcbcbc"/>
          <rect height="5.86" rx="0.58" ry="0.58" style="fill: #e2e2e2" width="2.21" x="20.1" y="34.55"/>
        </g>
        <rect height="2.75" style="fill: #acc7c8" width="2.21" x="20.1" y="36.04"/>
      </g>
      <g>
        <g>
          <path d="M21.69,26.52h-2c-.45,0-.82-.49-.82-1.1s.37-1.1.82-1.1h2c.45,0,.82.49.82,1.1S22.14,26.52,21.69,26.52Z" style="fill: #bcbcbc"/>
          <path d="M21.69,32.38h-2c-.45,0-.82-.49-.82-1.1s.37-1.1.82-1.1h2c.45,0,.82.49.82,1.1S22.14,32.38,21.69,32.38Z" style="fill: #bcbcbc"/>
          <rect height="5.86" rx="0.58" ry="0.58" style="fill: #e2e2e2" width="2.21" x="19.51" y="25.42"/>
        </g>
        <rect height="2.75" width="2.21" x="19.51" y="26.92"/>
      </g>
      <g>
        <g>
          <path d="M28.88,54.74v-2c0-.45.49-.82,1.1-.82s1.1.37,1.1.82v2c0,.45-.49.82-1.1.82S28.88,55.19,28.88,54.74Z" style="fill: #bcbcbc"/>
          <path d="M23,54.74v-2c0-.45.49-.82,1.1-.82s1.1.37,1.1.82v2c0,.45-.49.82-1.1.82S23,55.19,23,54.74Z" style="fill: #bcbcbc"/>
          <rect height="5.86" rx="0.58" ry="0.58" style="fill: #e2e2e2" transform="translate(80.72 26.62) rotate(90)" width="2.21" x="25.94" y="50.74"/>
        </g>
        <rect height="2.75" transform="translate(80.78 26.57) rotate(90)" width="2.21" x="26" y="52.3"/>
      </g>
      <g>
        <g>
          <path d="M54,55.39v-2c0-.45.49-.82,1.1-.82s1.1.37,1.1.82v2c0,.45-.49.82-1.1.82S54,55.85,54,55.39Z" style="fill: #bcbcbc"/>
          <path d="M48.12,55.39v-2c0-.45.49-.82,1.1-.82s1.1.37,1.1.82v2c0,.45-.49.82-1.1.82S48.12,55.85,48.12,55.39Z" style="fill: #bcbcbc"/>
          <rect height="5.86" rx="0.58" ry="0.58" style="fill: #e2e2e2" transform="translate(106.47 2.17) rotate(90)" width="2.21" x="51.04" y="51.39"/>
        </g>
        <rect height="2.75" transform="translate(106.53 2.12) rotate(90)" width="2.21" x="51.1" y="52.95"/>
      </g>
      <g>
        <g>
          <path d="M21.69,45.19h-2c-.45,0-.82-.49-.82-1.1s.37-1.1.82-1.1h2c.45,0,.82.49.82,1.1S22.14,45.19,21.69,45.19Z" style="fill: #bcbcbc"/>
          <path d="M21.69,51h-2c-.45,0-.82-.49-.82-1.1s.37-1.1.82-1.1h2c.45,0,.82.49.82,1.1S22.14,51,21.69,51Z" style="fill: #bcbcbc"/>
          <rect height="5.86" rx="0.58" ry="0.58" style="fill: #e2e2e2" width="2.21" x="19.51" y="44.09"/>
        </g>
        <rect height="2.75" style="fill: #acc7c8" width="2.21" x="19.51" y="45.59"/>
      </g>
      <g>
        <rect height="1.64" style="fill: #b1aeaa" transform="translate(94.55 -1.35) rotate(90)" width="2.14" x="46.88" y="45.78"/>
        <rect height="1.17" style="fill: #bcbcbc" transform="translate(92.99 -2.89) rotate(90)" width="0.96" x="47.46" y="44.47"/>
        <rect height="1.64" style="fill: #b1aeaa" transform="translate(91.86 1.33) rotate(90)" width="2.14" x="44.2" y="45.78"/>
        <rect height="1.17" style="fill: #bcbcbc" transform="translate(90.3 -0.2) rotate(90)" width="0.96" x="44.77" y="44.47"/>
        <rect height="1.64" style="fill: #b1aeaa" transform="translate(89.21 3.99) rotate(90)" width="2.14" x="41.54" y="45.78"/>
        <rect height="1.17" style="fill: #bcbcbc" transform="translate(87.65 2.46) rotate(90)" width="0.96" x="42.11" y="44.47"/>
        <rect height="1.64" style="fill: #b1aeaa" transform="translate(4.76 80.61) rotate(-90)" width="2.14" x="41.62" y="37.1"/>
        <rect height="1.17" style="fill: #bcbcbc" transform="translate(3.23 82.17) rotate(-90)" width="0.96" x="42.22" y="38.88"/>
        <rect height="1.64" style="fill: #b1aeaa" transform="translate(10.07 85.91) rotate(-90)" width="2.14" x="46.92" y="37.1"/>
        <rect height="1.17" style="fill: #bcbcbc" transform="translate(8.54 87.47) rotate(-90)" width="0.96" x="47.53" y="38.88"/>
        <rect height="8" style="fill: #303030" transform="translate(87.4 -2.88) rotate(90)" width="4.63" x="42.83" y="38.26"/>
      </g>
      <g>
        <rect height="3.07" style="fill: #b1aeaa" transform="translate(-13.8 92.55) rotate(-90)" width="3.54" x="37.6" y="51.64"/>
        <rect height="3.07" style="fill: #b1aeaa" transform="translate(-7.36 98.99) rotate(-90)" width="3.54" x="44.04" y="51.64"/>
        <rect height="5.3" style="fill: #edca9c" transform="translate(-10.5 95.93) rotate(-90)" width="4.04" x="40.69" y="50.57"/>
        <rect height="3.63" style="fill: #f7f6e9" transform="translate(-10.5 95.94) rotate(-90)" width="4.04" x="40.7" y="51.4"/>
      </g>
      <g>
        <rect height="2.95" style="fill: #b1aeaa" transform="translate(104.9 66.15) rotate(-180)" width="3.65" x="50.62" y="31.6"/>
        <rect height="2.95" style="fill: #b1aeaa" transform="translate(104.9 53.79) rotate(-180)" width="3.65" x="50.62" y="25.42"/>
        <rect height="5.09" style="fill: #edca9c" transform="translate(104.98 59.73) rotate(-180)" width="4.17" x="50.41" y="27.32"/>
        <rect height="3.48" style="fill: #f7f6e9" transform="translate(104.98 59.72) rotate(-180)" width="4.17" x="50.41" y="28.12"/>
      </g>
      <rect height="5.2" rx="0.73" ry="0.73" transform="translate(-1.61 52.85) rotate(-90)" width="7.56" x="21.84" y="24.63"/>
      <rect height="3.73" rx="0.59" ry="0.59" style="fill: #f9fcf7" transform="translate(33.16 71.81) rotate(-90)" width="12.19" x="46.39" y="17.46"/>
      <rect height="5.2" rx="0.73" ry="0.73" transform="translate(33.72 72.12) rotate(-90)" width="7.56" x="49.14" y="16.6"/>
      <g>
        <rect height="5.8" style="fill: #e1dbb3" transform="translate(58.44 122.11) rotate(-180)" width="3.71" x="27.36" y="58.16"/>
        <rect height="0.75" style="fill: #b2d09e" transform="translate(60.96 124.28) rotate(-180)" width="1.19" x="29.88" y="61.77"/>
        <rect height="0.75" style="fill: #b2d09e" transform="translate(55.98 124.28) rotate(-180)" width="1.19" x="27.39" y="61.77"/>
      </g>
      <rect height="3.25" style="fill: #ebe6dc" transform="translate(-11.53 110.49) rotate(-90)" width="9.21" x="44.88" y="59.38"/>
      <g>
        <rect height="5.8" style="fill: #e1dbb3" transform="translate(99.1 122.11) rotate(-180)" width="3.71" x="47.69" y="58.16"/>
        <rect height="0.75" style="fill: #b2d09e" transform="translate(101.62 124.28) rotate(-180)" width="1.19" x="50.21" y="61.77"/>
        <rect height="0.75" style="fill: #b2d09e" transform="translate(96.64 124.28) rotate(-180)" width="1.19" x="47.72" y="61.77"/>
      </g>
      <path d="M34.14,64.76V64H32.78V62h1.36V59.73h-1.2V57.13h1.2v-.25H35.6l.28.28h2.41l.24-.24h1.72l.36.36h2.25l.34-.34h1.45l.16.16v.75l.4.4v1.52h-.48l-.18.18v1.89l.25.25h.3v1.48l-.4.4v1L42,64.85l-.29-.44-.59,0-.41.46H37.94c0-.63-1.25-.67-1.27,0Z" style="fill: #c6dae0"/>
      <path d="M39.42,58.51a6.19,6.19,0,0,1,1.45.23A3.24,3.24,0,0,1,42,59.1a2.28,2.28,0,0,1,.63,1.8,2.21,2.21,0,0,1-.5,1.7,3,3,0,0,1-1.36.5,5.31,5.31,0,0,1-1.32.2A4.94,4.94,0,0,1,37.83,63c-.76-.23-1.14-.35-1.37-.69s-.22-.68-.22-1.43,0-1.15.22-1.46.62-.46,1.36-.69A5,5,0,0,1,39.42,58.51Z" style="fill: #232127"/>
      <line style="fill: none;stroke: #fff;stroke-linecap: round;stroke-miterlimit: 10;stroke-width: 0.5px" x1="33.47" x2="45.75" y1="65.13" y2="65.35"/>
      <line style="fill: none;stroke: #fff;stroke-linecap: round;stroke-miterlimit: 10;stroke-width: 0.5px" x1="33.47" x2="45.75" y1="56.3" y2="56.51"/>
      <line style="fill: none;stroke: #fff;stroke-linecap: round;stroke-miterlimit: 10;stroke-width: 0.5px" x1="28.95" x2="49.35" y1="19.61" y2="19.83"/>
      <g>
        <rect height="3.66" style="fill: #6d6e74" width="6.99" x="4.17" y="25.45"/>
        <rect height="3.66" style="fill: #6d6e74" width="6.99" x="4.17" y="50.08"/>
        <g>
          <g>
            <rect height="1.09" style="fill: #b1aeaa" width="2.18" x="14.9" y="34.91"/>
            <rect height="1.09" style="fill: #b1aeaa" width="2.18" x="14.9" y="36.8"/>
            <rect height="1.09" style="fill: #b1aeaa" width="2.18" x="14.9" y="38.69"/>
            <rect height="1.09" style="fill: #b1aeaa" width="2.18" x="14.9" y="40.58"/>
            <rect height="1.09" style="fill: #b1aeaa" width="2.18" x="14.9" y="42.47"/>
            <rect height="4.16" rx="1.06" ry="1.06" style="fill: #b1aeaa" width="2.18" x="14.9" y="30.11"/>
            <rect height="4.16" rx="1.06" ry="1.06" style="fill: #b1aeaa" width="2.18" x="14.9" y="44.52"/>
            <polygon points="0.56 28.95 15.35 28.95 15.35 50.41 0.56 50.41 0 49.41 1.02 49.2 1.02 48.69 0 48 0.13 31.3 1.15 30.71 1.16 30.32 0 30.11 0.56 28.95" style="fill: #b1aeaa"/>
          </g>
          <polygon points="14.97 35.98 12.02 35.98 12.02 30.5 13.49 30.5 13.49 33.45 15.35 33.45 15.35 35.98 14.97 35.98" style="fill: #424242"/>
          <polygon points="14.96 43.39 12.02 43.39 12.02 48.87 13.49 48.87 13.49 45.92 15.35 45.92 15.35 43.39 14.96 43.39" style="fill: #424242"/>
          <path d="M2.5,31.17l.23-.29H4l.27.29h2.9a.57.57,0,0,1,.57.57v2.17a.59.59,0,0,1-.59.59H4.23L4,34.78H2.74L2.5,34.5v-.6l.66-.21,0-1.87-.65-.19Z" style="fill: #424242"/>
          <path d="M2.5,45l.23-.29H4l.27.29h2.9a.57.57,0,0,1,.57.57v2.17a.59.59,0,0,1-.59.59H4.23L4,48.62H2.74l-.23-.28v-.6l.66-.21,0-1.87-.65-.19Z" style="fill: #424242"/>
        </g>
      </g>
      <rect height="9.36" style="fill: #231f1c" transform="translate(17.03 60.61) rotate(-90)" width="3.31" x="37.17" y="17.11"/>
      <g>
        <circle cx="36.55" cy="25.82" r="1.42" style="fill: #7d5d3c"/>
        <circle cx="41.14" cy="25.82" r="1.42" style="fill: #7d5d3c"/>
      </g>
      <path d="M12.1,28.78l.17-.17V25.93a1.32,1.32,0,0,0-.53-1.22c-.09-.25,0-.4.27-.47" style="fill: none;stroke: #dfe0df;stroke-linecap: round;stroke-miterlimit: 10;stroke-width: 0.200000002980232px"/>
      <path d="M15,54.29q-1.57-.55-1.17-3.72" style="fill: none;stroke: #dfe0df;stroke-linecap: round;stroke-miterlimit: 10;stroke-width: 0.200000002980232px"/>
      <path d="M18.94,51.12c-.28,0-.11-2.15-.1-3.53" style="fill: none;stroke: #dfe0df;stroke-linecap: round;stroke-miterlimit: 10;stroke-width: 0.200000002980232px"/>
      <polyline points="18.86 45.86 18.86 42.99 18.39 42.52 18.39 40.41 17.97 39.99" style="fill: none;stroke: #dfe0df;stroke-linecap: round;stroke-miterlimit: 10;stroke-width: 0.200000002980232px"/>
      <line style="fill: none;stroke: #dfe0df;stroke-linecap: round;stroke-miterlimit: 10;stroke-width: 0.200000002980232px" x1="17.87" x2="19.5" y1="37.13" y2="35.5"/>
      <line style="fill: none;stroke: #dfe0df;stroke-linecap: round;stroke-miterlimit: 10;stroke-width: 0.200000002980232px" x1="22.76" x2="24.8" y1="37.66" y2="35.62"/>
      <polyline points="25.18 37.47 23.52 39.14 23.52 46.82 22.4 47.94" style="fill: none;stroke: #dfe0df;stroke-linecap: round;stroke-miterlimit: 10;stroke-width: 0.200000002980232px"/>
      <polyline points="40.78 30.36 40.78 33.74 41.01 34.01" style="fill: none;stroke: #dfe0df;stroke-linecap: round;stroke-miterlimit: 10;stroke-width: 0.200000002980232px"/>
      <polyline points="41.41 42.38 40.16 40.98 40.16 40.41 40.16 36.3 43.62 32.84 43.89 32.3" style="fill: none;stroke: #dfe0df;stroke-linecap: round;stroke-miterlimit: 10;stroke-width: 0.200000002980232px"/>
      <polyline points="47.7 36.11 47.53 35.82 47.95 35.2 47.99 30.36" style="fill: none;stroke: #dfe0df;stroke-linecap: round;stroke-miterlimit: 10;stroke-width: 0.200000002980232px"/>
      <polyline points="49.05 36.22 49.35 36.7 49.35 47.67 49.05 48.3" style="fill: none;stroke: #dfe0df;stroke-linecap: round;stroke-miterlimit: 10;stroke-width: 0.200000002980232px"/>
      <polyline points="43.43 50.45 43.29 50.11 43.29 49.03 43.18 48.66 43.51 48.3" style="fill: none;stroke: #dfe0df;stroke-linecap: round;stroke-miterlimit: 10;stroke-width: 0.200000002980232px"/>
      <path d="M47.53,50.59c1,.35.23,1.27.59,1.48" style="fill: none;stroke: #dfe0df;stroke-linecap: round;stroke-miterlimit: 10;stroke-width: 0.200000002980232px"/>
      <polyline points="55.75 22.33 57.14 23.72 57.14 26.89 59.07 28.83" style="fill: none;stroke: #dfe0df;stroke-linecap: round;stroke-miterlimit: 10;stroke-width: 0.200000002980232px"/>
      <polyline points="54.96 24.41 54.96 25 55.53 25.57 55.53 28.37" style="fill: none;stroke: #dfe0df;stroke-linecap: round;stroke-miterlimit: 10;stroke-width: 0.200000002980232px"/>
      <polyline points="45.39 15.7 45.39 13.82 49.35 9.86" style="fill: none;stroke: #dfe0df;stroke-linecap: round;stroke-miterlimit: 10;stroke-width: 0.200000002980232px"/>
      <circle cx="25.18" cy="18.85" r="0.98" style="fill: none;stroke: #1c1c1c;stroke-linecap: round;stroke-miterlimit: 10;stroke-width: 0.5px"/>
      <circle cx="17.77" cy="33.45" r="0.98" style="fill: none;stroke: #1c1c1c;stroke-linecap: round;stroke-miterlimit: 10;stroke-width: 0.5px"/>
      <rect height="3.5" style="fill: #f8f8f5" transform="translate(45.21 105.48) rotate(-90)" width="4.1" x="73.29" y="28.39"/>
      <rect height="3.5" style="fill: #f8f8f5" transform="translate(25.53 125.16) rotate(-90)" width="4.1" x="73.29" y="48.07"/>
      <circle cx="28.22" cy="5" r="1.38" style="fill: #f8e5b5"/>
    </g>
    <g id="text">
      <rect height="1.42" style="fill: #dad9c0" transform="translate(20.68 100.31) rotate(-90)" width="17.48" x="51.75" y="39.11"/>
      <rect height="9.82" style="fill: #e7e7e3" transform="translate(18.89 92.6) rotate(-90)" width="3.04" x="54.23" y="31.94"/>
      <rect height="9.82" style="fill: #e7e7e3" transform="translate(13.25 98.24) rotate(-90)" width="3.04" x="54.23" y="37.59"/>
      <g>
        <path d="M20.18,72.48l-.1.14c-.08.12-.2.2-.34.1a.23.23,0,0,1,0-.35l.43-.62a.68.68,0,0,1,.76-.31l.88.12a1,1,0,0,1,.85.58l.45.81a.69.69,0,0,1-.06.83l-.43.62a.23.23,0,0,1-.37-.26l.12-.18Zm2.41,1.11,0-.07c.11-.16.12-.21,0-.37l-.44-.79a.63.63,0,0,0-.19-.24.78.78,0,0,0-.37-.12l-.84-.12c-.21,0-.23,0-.35.18l0,0Z" style="fill: #fff"/>
        <path d="M24.19,71.27,25.07,70a.23.23,0,1,1,.37.26L24.3,71.9l-1.22-.84a.45.45,0,0,1-.13-.71l.72-1-.89-.61L21.9,70a.23.23,0,0,1-.37-.26l.85-1.24a.47.47,0,0,1,.72-.12l.77.53a.47.47,0,0,1,.15.72l-.73,1.05Z" style="fill: #fff"/>
      </g>
      <g>
        <path d="M24.17,61.72a.4.4,0,0,1,.4-.39l2.3,0a.39.39,0,0,1,.39.4l0,1.17a.39.39,0,0,1-.4.39l-2.3,0a.4.4,0,0,1-.39-.4Zm2.7,0-2.3,0,0,1.17,2.3,0Z" style="fill: #fff"/>
        <path d="M26.91,58.88h-.8a.2.2,0,1,1,0-.4h1a.18.18,0,0,1,.2.2l0,1.57a.2.2,0,1,1-.4,0v-.58l-2.3,0v.58a.2.2,0,0,1-.4,0v-1l2.7,0Z" style="fill: #fff"/>
      </g>
      <g>
        <path d="M26.23,10.41a.23.23,0,1,1-.33.31l-.6-.66.66-.6a.68.68,0,0,1,1,.05l.53.57a.69.69,0,0,1,.22.51.66.66,0,0,1-.27.53l-.83.77a.92.92,0,0,1-.65.27l-.87.07a.69.69,0,0,1-.66-.26L24,11.53a.23.23,0,0,1,.33-.31l.37.4c.17.18.15.17.39.15l.8-.06a.85.85,0,0,0,.53-.29l.65-.6c.18-.17.2-.26,0-.45l-.49-.53c-.11-.12-.23-.2-.38-.06l-.34.31Z" style="fill: #fff"/>
        <path d="M22.14,9.14a.23.23,0,0,1-.31-.33l2.43-2.23.41.44-1.2,2.71h0L25.31,8a.23.23,0,1,1,.31.33l-2.43,2.23-.41-.44L24,7.44h0Z" style="fill: #fff"/>
        <path d="M21,7.58l.11.12c.1.11.15.24,0,.36a.23.23,0,0,1-.35,0l-.51-.56a.68.68,0,0,1-.13-.81l.32-.83a1.08,1.08,0,0,1,.3-.46,1.07,1.07,0,0,1,.46-.24l.89-.26a.69.69,0,0,1,.8.24l.51.55a.23.23,0,0,1-.33.31l-.15-.16Zm1.62-2.11-.06-.06c-.13-.14-.18-.16-.35-.1l-.86.25a.64.64,0,0,0-.27.14.76.76,0,0,0-.2.33l-.31.79c-.08.2,0,.23.09.38l0,0Z" style="fill: #fff"/>
      </g>
      <g>
        <path d="M47.35,9.9l-.06.16c-.05.14-.15.24-.31.18a.23.23,0,0,1-.12-.33l.26-.71a.68.68,0,0,1,.66-.48l.89-.1a1.09,1.09,0,0,1,.54.06,1.06,1.06,0,0,1,.42.3l.63.67a.68.68,0,0,1,.15.82l-.26.71a.23.23,0,1,1-.42-.16l.08-.2Zm2.61.49,0-.08c.07-.18.06-.23-.07-.36l-.62-.66a.62.62,0,0,0-.25-.18.76.76,0,0,0-.39,0l-.85.09c-.22,0-.23.06-.3.26l0,.05Z" style="fill: #fff"/>
        <path d="M51.41,6.49l-.86-.32a.23.23,0,0,1,.16-.42l1.07.4a.21.21,0,0,1,.13.29l-.62,1.67A.23.23,0,1,1,50.87,8l.23-.62-2.46-.91L48.41,7A.23.23,0,1,1,48,6.89l.39-1,2.88,1.07Z" style="fill: #fff"/>
        <path d="M51.27,3.27c.08,0,.12-.06.15-.12L51.47,3a0,0,0,0,0,0-.07l-.26-.1A.2.2,0,0,1,51,2.53a.19.19,0,0,1,.28-.14l.37.14a.37.37,0,0,1,.24.49l-.13.35a.46.46,0,0,1-.25.27l-.67.31c-.08,0-.12.06-.15.12l-.06.16a0,0,0,0,0,0,.07l.26.1a.2.2,0,0,1,.13.29.19.19,0,0,1-.28.14l-.37-.14a.37.37,0,0,1-.24-.49l.13-.35a.46.46,0,0,1,.25-.27Z" style="fill: #fff"/>
      </g>
      <g>
        <path d="M65,24.35l-.3-.66a.23.23,0,1,1,.41-.19l.3.65a.47.47,0,0,1,0,.17l.14,2.37c0,.12,0,.22-.12.28s-.2,0-.29-.09l-1.71-1.64a.49.49,0,0,1-.1-.15l-.3-.65a.23.23,0,1,1,.41-.19l.3.66,1.33,1.29Z" style="fill: #fff"/>
        <path d="M66.76,24.56a.59.59,0,0,1,0-.63.78.78,0,0,1,.46-.48l.31-.14a.78.78,0,0,1,.66,0,.58.58,0,0,1,.49.4l.34.75a.64.64,0,0,1,0,.66.73.73,0,0,1-.45.45l-.31.14a.73.73,0,0,1-.63,0,.63.63,0,0,1-.52-.41Zm.74.56c0,.08.09.12.25.17a.4.4,0,0,0,.32,0l.31-.14a.39.39,0,0,0,.22-.23c.07-.15.07-.22,0-.3l-.34-.75c0-.08-.09-.12-.25-.17a.4.4,0,0,0-.32,0l-.31.14a.39.39,0,0,0-.22.23c-.07.15-.07.22,0,.3Z" style="fill: #fff"/>
        <path d="M72.2,23.5c0,.09.15.28-.06.38s-.26,0-.33-.18l0-.07-.22.36a.72.72,0,0,1-.28.29l-.29.13a.6.6,0,0,1-.43,0c-.25-.07-.32-.24-.43-.45l-.61-1.22c-.07-.14-.12-.3.06-.39s.26.06.32.18l.6,1.2a.76.76,0,0,0,.16.24.31.31,0,0,0,.27,0l.13-.06a.24.24,0,0,0,.11-.09l.41-.63L71,22c-.06-.14-.1-.28.07-.36s.26,0,.32.18Z" style="fill: #fff"/>
        <path d="M73.81,22.21c.1.22.15.35.42.23l.2-.09c.16-.07.23-.12.2-.3a.22.22,0,0,1,.12-.25.22.22,0,0,1,.29.1.64.64,0,0,1,0,.39.7.7,0,0,1-.45.45l-.2.09a.71.71,0,0,1-.6,0c-.23-.1-.3-.27-.4-.49l-.49-1.07-.13.06c-.12.05-.28.1-.36-.07s0-.26.18-.32l.13-.06-.19-.4c-.06-.14-.1-.29.07-.36s.26,0,.32.18l.19.4.66-.31c.13-.06.29-.1.36.07s-.06.27-.18.32l-.66.31Z" style="fill: #fff"/>
      </g>
      <g>
        <path d="M72.56,58.65a.21.21,0,0,1,.12.3.21.21,0,0,1-.3.11l-1.42-.63a.44.44,0,0,1-.23-.6l.35-.79a.53.53,0,0,1,.34-.33.53.53,0,0,1,0-.47l.35-.79a.44.44,0,0,1,.6-.23l1.42.64a.23.23,0,1,1-.18.41l-1.42-.64-.31.69c-.1.23,0,.34.07.39l.81.36a.23.23,0,1,1-.18.41l-.81-.36c-.12-.05-.24,0-.34.21l-.31.69Z" style="fill: #fff"/>
        <path d="M68.36,56.24l-.29.66a.23.23,0,0,1-.41-.19l.29-.65a.49.49,0,0,1,.1-.15l1.69-1.66c.09-.08.16-.15.29-.09s.13.15.13.28L70,56.8A.46.46,0,0,1,70,57l-.29.65a.23.23,0,0,1-.41-.18l.29-.66.1-1.85Z" style="fill: #fff"/>
        <path d="M67.35,54.75a.59.59,0,0,1-.48.41.77.77,0,0,1-.66,0L65.89,55a.78.78,0,0,1-.46-.47.59.59,0,0,1,0-.63l.33-.75a.63.63,0,0,1,.51-.41.73.73,0,0,1,.63,0l.31.14a.73.73,0,0,1,.45.45.63.63,0,0,1,0,.66Zm-.06-.93c0-.08,0-.15,0-.3A.39.39,0,0,0,67,53.3l-.31-.14a.4.4,0,0,0-.32,0c-.16,0-.21.09-.25.17l-.33.75c0,.08,0,.15,0,.3a.4.4,0,0,0,.23.23l.31.14a.4.4,0,0,0,.32,0c.16,0,.21-.09.25-.17Z" style="fill: #fff"/>
      </g>
      <g>
        <path d="M48.56,76.79l0,.17c0,.15,0,.28-.19.3s-.24-.09-.26-.23l-.1-.75a.68.68,0,0,1,.36-.74l.74-.5a1,1,0,0,1,1-.14l.87.3a.68.68,0,0,1,.51.66l.1.75a.23.23,0,0,1-.45.06l0-.22ZM51.1,76v-.08c0-.19-.05-.23-.23-.29L50,75.34a.64.64,0,0,0-.3,0,.77.77,0,0,0-.35.16l-.71.47c-.18.12-.17.16-.14.37v.05Z" style="fill: #fff"/>
        <path d="M47.52,72.29a.46.46,0,0,1,.39-.51l2.6-.34a.45.45,0,0,1,.51.39l.17,1.32a.45.45,0,0,1-.39.51L48.2,74a.46.46,0,0,1-.51-.39Zm3-.4-2.6.34.17,1.32,2.6-.34Z" style="fill: #fff"/>
        <path d="M48.94,69.1a.23.23,0,0,0,.07-.18l0-.17a0,0,0,0,0-.06,0l-.28,0a.2.2,0,0,1-.25-.2.19.19,0,0,1,.19-.25l.39-.05a.37.37,0,0,1,.44.32l0,.37a.46.46,0,0,1-.1.36l-.45.58c-.05.07-.08.11-.07.18l0,.17a0,0,0,0,0,.06,0l.28,0a.2.2,0,0,1,.25.2.19.19,0,0,1-.19.25l-.39.05a.37.37,0,0,1-.44-.32l0-.37a.45.45,0,0,1,.1-.35Z" style="fill: #fff"/>
      </g>
      <g>
        <path d="M5.79,57.41c-.06-.12-.09-.23,0-.33s.23-.06.33,0l2.74,1.64a.21.21,0,0,1,0,.31.27.27,0,0,1-.33,0L8,58.77l-.7.66.25.51a.27.27,0,0,1,0,.33.21.21,0,0,1-.31,0Zm.75.45h0L7.11,59l.52-.49Z" style="fill: #fff"/>
        <path d="M10.76,56.64,10.14,56a.23.23,0,1,1,.33-.31l.78.83a.21.21,0,0,1,0,.32L9.93,58a.23.23,0,0,1-.31-.33l.49-.46L8.32,55.34l-.49.46a.23.23,0,1,1-.31-.33l.82-.77,2.1,2.24Z" style="fill: #fff"/>
      </g>
      <g>
        <path d="M55.06,65.17c.13,0,.2.06.2.2s-.07.2-.2.2h-3v-1.3a.56.56,0,0,1,.17-.45.63.63,0,0,1,.54-.18h.56a.69.69,0,0,1,.52.16.59.59,0,0,1,.2.53v.86Zm-1.41,0V64.3c0-.23-.06-.28-.29-.28h-.57c-.23,0-.29.05-.29.28v.87Z" style="fill: #fff"/>
        <path d="M55.27,61.53c0,.13,0,.21-.18.24h0c.15,0,.18.11.18.24v.29c0,.14,0,.17-.15.24l-.25.14a.3.3,0,0,1-.21.05H52.29c-.13,0-.2-.05-.2-.2s.07-.2.2-.2h2.37l.2-.11v-.17l-.2-.11H53.37c-.13,0-.24-.05-.24-.2s.11-.2.24-.2h1.29l.2-.11v-.17l-.2-.11H52.29c-.13,0-.2-.05-.2-.2s.07-.2.2-.2h2.37a.3.3,0,0,1,.21.05l.25.14c.12.07.15.1.15.24Z" style="fill: #fff"/>
        <path d="M55.06,59.53c.13,0,.2.06.2.2s-.07.2-.2.2h-3V58.61a.6.6,0,0,1,.59-.62H53a.58.58,0,0,1,.58.62V59l1.32-.88a.42.42,0,0,1,.22-.1.19.19,0,0,1,.19.2.21.21,0,0,1-.11.17l-1.61,1.08v.09Zm-1.93,0v-.87c0-.11,0-.28-.17-.28h-.28c-.16,0-.18.16-.18.28v.87Z" style="fill: #fff"/>
      </g>
      <g>
        <path d="M42.15,16.9a1,1,0,0,1,.45-.1,1,1,0,0,1,.49.13l.75.36a.51.51,0,0,1,0,1l-.75.36a1,1,0,0,1-.49.13,1,1,0,0,1-.45-.1l-.81-.39a.5.5,0,0,1,0-.95Zm-.62.73c-.07,0-.12.05-.12.13s.06.1.12.13l.74.35a.66.66,0,0,0,.33.09.57.57,0,0,0,.27-.07l.78-.38c.06,0,.12-.06.12-.13s-.07-.11-.12-.13l-.78-.38a.57.57,0,0,0-.27-.07.65.65,0,0,0-.33.09Z" style="fill: #fff"/>
        <path d="M42.77,15.49h1.14c.13,0,.27,0,.27.19s-.13.19-.27.19H42.27c-.14,0-.29,0-.29-.19s.15-.19.29-.19h.05l-.21-.31a.6.6,0,0,1-.13-.33v-.28a.47.47,0,0,1,.14-.35.64.64,0,0,1,.53-.17l1.24,0c.14,0,.29,0,.29.18s-.13.18-.27.19l-1.21,0c-.24,0-.33,0-.33.25v.13a.21.21,0,0,0,0,.12Z" style="fill: #fff"/>
      </g>
      <g>
        <path d="M35,17.05A1.23,1.23,0,0,1,35.5,17a1.3,1.3,0,0,1,.49.1l.75.27c.2.07.34.19.34.36s-.14.29-.34.36l-.75.27a1.3,1.3,0,0,1-.49.1,1.24,1.24,0,0,1-.45-.08l-.81-.29c-.19-.07-.33-.19-.33-.36s.14-.29.33-.36Zm-.62.55c-.07,0-.12,0-.12.1s.06.08.12.1l.74.27a.83.83,0,0,0,.33.07.73.73,0,0,0,.27,0l.78-.28c.06,0,.12,0,.12-.1s-.07-.08-.12-.1l-.78-.28a.72.72,0,0,0-.27-.05.83.83,0,0,0-.33.07Z" style="fill: #fff"/>
        <path d="M35.26,15.86v.08a.17.17,0,0,1-.2.19c-.17,0-.2-.1-.2-.19v-.08h-.05a.84.84,0,0,1-.56-.14.46.46,0,0,1-.2-.44V15.1c0-.1,0-.21.2-.21s.2.1.2.19v.22c0,.19.05.27.34.27h.08v-.25c0-.09,0-.19.2-.19a.17.17,0,0,1,.2.19v.25h1.54c.13,0,.27,0,.27.14s-.13.14-.27.14Z" style="fill: #fff"/>
        <path d="M35.26,13.75v.08a.17.17,0,0,1-.2.19c-.17,0-.2-.1-.2-.19v-.08h-.05a.84.84,0,0,1-.56-.14.46.46,0,0,1-.2-.44V13c0-.1,0-.21.2-.21s.2.1.2.19v.22c0,.19.05.27.34.27h.08v-.25c0-.09,0-.19.2-.19a.17.17,0,0,1,.2.19v.25h1.54c.13,0,.27,0,.27.14s-.13.14-.27.14Z" style="fill: #fff"/>
      </g>
      <g>
        <path d="M20,47.48c0-.06.07-.11.16-.11h.9c.09,0,.16,0,.16.11v.33c0,.06-.07.11-.16.11h-.9c-.09,0-.16,0-.16-.11Zm1.06,0h-.9v.33h.9Z"/>
        <path d="M20,46.73s0-.06.08-.06h.45a.1.1,0,0,1,0-.08.19.19,0,0,1,.11,0h.37c.1,0,.16,0,.16.11V47c0,.07-.06.11-.16.11H20.7a.19.19,0,0,1-.11,0,.1.1,0,0,1,0-.08H20.1S20,47,20,46.94Zm.53.06h-.37v.1h.37Zm.53-.11H20.7V47h.37Z"/>
        <path d="M20.57,45.86v.38s0,.06-.08.06h-.4s-.08,0-.08-.06v-.44s0-.06.08-.06h1.06s.08,0,.08.06v.06s0,.06-.08.06-.08,0-.08-.06Zm-.16,0h-.24v.33h.24Z"/>
      </g>
      <g>
        <path d="M26.32,53.84v-.45s0-.08.06-.08.06,0,.06.08v.45s.06,0,.06.08,0,.08-.06.08v.32s0,.08-.06.08-.06,0-.06-.08V54H26v-.74s0-.08.06-.08.06,0,.06.08v.58Z" style="fill: #fff"/>
        <path d="M26.85,53.34s0,.08-.06.08-.06,0-.06-.08v-.08s0-.08.06-.08h.49v.45c0,.05,0,.06,0,.1l-.16.19a.1.1,0,0,0,0,.09v.3s0,.08-.06.08-.06,0-.06-.08v-.37a.1.1,0,0,1,0-.09l.15-.19s0,0,0-.11v-.21Z" style="fill: #fff"/>
        <path d="M28,54.24v-.31s0-.08.06-.08.06,0,.06.08v.39c0,.06,0,.08-.06.08H27.6s-.06,0-.06-.08,0-.08.06-.08h.16v-.9H27.6s-.06,0-.06-.08,0-.08.06-.08h.27v1.05Z" style="fill: #fff"/>
      </g>
      <g>
        <path d="M51.36,54.22v-.45s0-.08.06-.08.06,0,.06.08v.45s.06,0,.06.08,0,.08-.06.08v.32s0,.08-.06.08-.06,0-.06-.08v-.32H51v-.74s0-.08.06-.08.06,0,.06.08v.58Z" style="fill: #fff"/>
        <path d="M51.89,53.71s0,.08-.06.08-.06,0-.06-.08v-.08s0-.08.06-.08h.49V54c0,.05,0,.06,0,.1l-.16.19a.1.1,0,0,0,0,.09v.3s0,.08-.06.08-.06,0-.06-.08v-.37a.1.1,0,0,1,0-.09l.15-.19s0,0,0-.11v-.21Z" style="fill: #fff"/>
        <path d="M53,54.61V54.3s0-.08.06-.08.06,0,.06.08v.39c0,.06,0,.08-.06.08h-.44s-.06,0-.06-.08,0-.08.06-.08h.16v-.9h-.16s-.06,0-.06-.08,0-.08.06-.08h.27v1.05Z" style="fill: #fff"/>
      </g>
      <g>
        <path d="M21.4,38.37V38c0-.06,0-.07.1-.07h.35c.07,0,.1,0,.1.07v.41c0,.05,0,.07-.1.07h-1s-.08,0-.08,0v-.07s0-.05.08-.05.08,0,.08.06Zm.16,0h.24V38h-.24Z"/>
        <path d="M20.74,37.29s0-.06.08-.06h.45a.1.1,0,0,1,0-.08.19.19,0,0,1,.11,0h.37c.1,0,.16,0,.16.11v.33c0,.07-.06.11-.16.11h-.37a.19.19,0,0,1-.11,0,.1.1,0,0,1,0-.08h-.45s-.08,0-.08-.06Zm.53.06h-.37v.1h.37Zm.53-.11h-.37v.33h.37Z"/>
        <path d="M21.29,36.43v.38s0,.06-.08.06h-.4s-.08,0-.08-.06v-.44s0-.06.08-.06h1.06s.08,0,.08.06v.06s0,.06-.08.06-.08,0-.08-.06Zm-.16,0h-.24v.33h.24Z"/>
      </g>
      <g>
        <path d="M21,28.93h-.31s-.08,0-.08-.06,0-.06.08-.06h.39c.06,0,.08,0,.08.06v.44s0,.06-.08.06-.08,0-.08-.06v-.16h-.9v.16s0,.06-.08.06-.08,0-.08-.06V29H21Z" style="fill: #c2b18f"/>
        <path d="M20,28.19s0-.06.08-.06h.45a.1.1,0,0,1,0-.08.19.19,0,0,1,.11,0H21c.1,0,.16,0,.16.11v.33c0,.07-.06.11-.16.11h-.37a.19.19,0,0,1-.11,0,.1.1,0,0,1,0-.08h-.45s-.08,0-.08-.06Zm.53.06h-.37v.1h.37Zm.53-.11h-.37v.33H21Z" style="fill: #c2b18f"/>
        <path d="M20,27.76v-.31c0-.16.14-.24.36-.24a.37.37,0,0,1,.25.07.42.42,0,0,1,.28-.07c.2,0,.32.1.32.24v.31Zm.53-.11v-.2c0-.08,0-.13-.17-.13s-.2,0-.2.13v.2Zm.53,0v-.2c0-.08,0-.13-.17-.13s-.2,0-.2.13v.2Z" style="fill: #c2b18f"/>
      </g>
      <g>
        <path d="M24.89,27.9v-.44c0-.23.2-.34.51-.34a.52.52,0,0,1,.35.1.6.6,0,0,1,.4-.1c.29,0,.46.14.46.34v.44Zm.75-.16v-.29c0-.11-.07-.18-.24-.18s-.29,0-.29.18v.29Zm.75,0v-.29c0-.11-.07-.18-.24-.18s-.29,0-.29.18v.29Z" style="fill: #c2b18f"/>
        <path d="M25.64,26.44v-.29a.14.14,0,0,1,.06-.13.27.27,0,0,1,.19,0h.47a.3.3,0,0,1,.17,0,.13.13,0,0,1,.08.14v.35a.18.18,0,0,1,0,.1l0,.06s0,.09-.12.09-.11,0-.11-.08a.09.09,0,0,1,0-.05l0,0s0-.06,0-.08v-.37h-.53v.47h-1v-.55s0-.08.11-.08.11,0,.11.08v.39Z" style="fill: #c2b18f"/>
      </g>
      <g>
        <path d="M26.81,24.42c0-.1,0-.15-.08-.15h-.06c-.05,0-.07,0-.09.07s0,.07-.06.07-.06,0-.06-.09a.31.31,0,0,1,0-.14.17.17,0,0,1,.17-.09h.06a.17.17,0,0,1,.16.09.4.4,0,0,1,0,.24v.47h0a.08.08,0,0,1,.08.09c0,.07,0,.08-.08.08h0v.18c0,.06,0,.12-.06.12s-.06-.06-.06-.12v-.18h-.21s-.08,0-.08-.08a.08.08,0,0,1,.08-.09h.21Z" style="fill: #c2b18f"/>
        <path d="M25.71,24.73v.52s0,.09-.06.09-.06,0-.06-.09v-.52s-.06,0-.06-.09,0-.09.06-.09v-.36c0-.06,0-.09.06-.09s.06,0,.06.09v.36h.38v.85s0,.09-.06.09-.06,0-.06-.09v-.67Z" style="fill: #c2b18f"/>
        <path d="M24.78,24.73v.52s0,.09-.06.09-.06,0-.06-.09v-.52s-.06,0-.06-.09,0-.09.06-.09v-.36c0-.06,0-.09.06-.09s.06,0,.06.09v.36h.38v.85s0,.09-.06.09-.06,0-.06-.09v-.67Z" style="fill: #c2b18f"/>
      </g>
      <g>
        <path d="M51.64,20.58v-.44c0-.23.2-.34.51-.34a.52.52,0,0,1,.35.1.6.6,0,0,1,.4-.1c.29,0,.46.14.46.34v.44Zm.75-.16v-.29c0-.11-.07-.18-.24-.18s-.29,0-.29.18v.29Zm.75,0v-.29c0-.11-.07-.18-.24-.18s-.29,0-.29.18v.29Z" style="fill: #c2b18f"/>
        <path d="M52.39,19.12v-.29a.14.14,0,0,1,.06-.13.27.27,0,0,1,.19,0h.47a.3.3,0,0,1,.17,0,.13.13,0,0,1,.08.14v.35a.18.18,0,0,1,0,.1l0,.06s0,.09-.12.09-.11,0-.11-.08a.09.09,0,0,1,0-.05l0,0s0-.06,0-.08v-.37h-.53v.47h-1v-.55s0-.08.11-.08.11,0,.11.08v.39Z" style="fill: #c2b18f"/>
      </g>
      <g>
        <path d="M53.56,17.09c0-.1,0-.15-.08-.15h-.06s-.07,0-.09.07,0,.07-.06.07-.06,0-.06-.09a.31.31,0,0,1,0-.14.17.17,0,0,1,.17-.09h.06a.17.17,0,0,1,.16.09.4.4,0,0,1,0,.24v.47h0a.08.08,0,0,1,.08.09c0,.07,0,.08-.08.08h0v.18c0,.06,0,.12-.06.12s-.06-.06-.06-.12v-.18h-.21s-.08,0-.08-.08a.08.08,0,0,1,.08-.09h.21Z" style="fill: #c2b18f"/>
        <path d="M52.46,17.4v.52s0,.09-.06.09-.06,0-.06-.09V17.4s-.06,0-.06-.09,0-.09.06-.09v-.36c0-.06,0-.09.06-.09s.06,0,.06.09v.36h.38v.85s0,.09-.06.09-.06,0-.06-.09V17.4Z" style="fill: #c2b18f"/>
        <path d="M51.53,17.4v.52s0,.09-.06.09-.06,0-.06-.09V17.4s-.06,0-.06-.09,0-.09.06-.09v-.36c0-.06,0-.09.06-.09s.06,0,.06.09v.36h.38v.85s0,.09-.06.09-.06,0-.06-.09V17.4Z" style="fill: #c2b18f"/>
      </g>
      <g>
        <path d="M46.76,42.86a.67.67,0,0,1,0-.25.71.71,0,0,1,.05-.27l.15-.41c0-.11.1-.19.2-.19s.16.08.2.19l.15.41a.71.71,0,0,1,.05.27.69.69,0,0,1,0,.25l-.16.45c0,.11-.1.18-.2.18s-.16-.08-.2-.18Zm.3.34s0,.07.06.07,0,0,.05-.07l.15-.41a.45.45,0,0,0,0-.18.4.4,0,0,0,0-.15L47.17,42s0-.07-.05-.07,0,0-.06.07l-.16.43a.4.4,0,0,0,0,.15.46.46,0,0,0,0,.18Z" style="fill: #4d5148"/>
        <path d="M46.19,43.27v-.08c0-.07,0-.11.08-.11s.08,0,.08.11v.31h-.8v-.31c0-.07,0-.11.08-.11s.08,0,.08.11v.08h.16V41.86c0-.07,0-.11.08-.11s.08,0,.08.11v1.41Z" style="fill: #4d5148"/>
        <path d="M45.11,43.27s.08,0,.08.11,0,.11-.08.11h-.56c-.09,0-.16-.1-.16-.22v-.43a.32.32,0,0,1,.06-.22.32.32,0,0,1-.06-.22V42c0-.13.07-.22.16-.22h.56s.08,0,.08.11,0,.11-.08.11h-.56v.37c0,.13,0,.16.08.16H45s.08,0,.08.11,0,.11-.08.11h-.32s-.08,0-.08.16v.37Z" style="fill: #4d5148"/>
        <path d="M44,43.27s.08,0,.08.11,0,.11-.08.11H43.4c-.09,0-.16-.1-.16-.22v-.43a.32.32,0,0,1,.06-.22.32.32,0,0,1-.06-.22V42c0-.13.07-.22.16-.22H44s.08,0,.08.11S44,42,44,42H43.4v.37c0,.13,0,.16.08.16h.32s.08,0,.08.11,0,.11-.08.11h-.32s-.08,0-.08.16v.37Z" style="fill: #4d5148"/>
      </g>
      <g>
        <path d="M36.65,42.27c.06,0,.12,0,.12.09s-.06.08-.12.09l-1.59.33a.1.1,0,0,1-.12-.08c0-.05.06-.08.12-.09l.28-.06v-.36l-.28-.06c-.06,0-.12,0-.12-.09a.1.1,0,0,1,.12-.08Zm-.44.09h0l-.64-.13v.27Z" style="fill: #4d5148"/>
        <path d="M36.54,43.24s0-.08.12-.08.12,0,.12.08v.58c0,.1-.1.17-.23.17h-.45a.33.33,0,0,1-.23-.07.33.33,0,0,1-.23.07h-.45c-.13,0-.23-.07-.23-.17v-.58s0-.08.12-.08.12,0,.12.08v.58h.39c.13,0,.17,0,.17-.08v-.33s0-.08.12-.08.12,0,.12.08v.33s0,.08.17.08h.39Z" style="fill: #4d5148"/>
        <path d="M35.18,44.54v.58s0,.09-.12.09-.12,0-.12-.09v-.75h.77c.18,0,.27.06.27.19V45h.56v-.58s0-.08.12-.08.12,0,.12.08V45a.15.15,0,0,1-.07.14.31.31,0,0,1-.21.05H36a.31.31,0,0,1-.21-.05.15.15,0,0,1-.07-.14v-.48Z" style="fill: #4d5148"/>
        <path d="M35.77,46.18h.68c.06,0,.12,0,.12.08s-.06.08-.12.08h-.68s0,.08-.12.08-.12,0-.12-.08h-.48c-.08,0-.12,0-.12-.08s0-.08.12-.08h.48v-.5h1.11c.06,0,.12,0,.12.08s-.06.08-.12.08h-.88Z" style="fill: #4d5148"/>
      </g>
      <g>
        <path d="M34.54,42.86h-.08c-.08,0-.12,0-.12-.08s0-.08.12-.08h.32v.84h-.32c-.08,0-.12,0-.12-.09s0-.08.12-.08h.08v-.16H33.06c-.08,0-.12,0-.12-.08s0-.08.12-.08h1.48Z" style="fill: #4d5148"/>
        <path d="M34.77,44.49c0,.06-.06.08-.12.08H34a.15.15,0,0,1-.07.12.29.29,0,0,1-.17,0h-.56c-.14,0-.23-.06-.23-.17v-.5c0-.1.09-.17.23-.17h.56a.28.28,0,0,1,.17,0,.15.15,0,0,1,.07.12h.68c.06,0,.12,0,.12.08Zm-1.59.08h.56v-.5h-.56Zm.8-.17h.56v-.16H34Z" style="fill: #4d5148"/>
        <path d="M34,45.46v.31a.15.15,0,0,1-.07.14.29.29,0,0,1-.2.05h-.5a.32.32,0,0,1-.18,0,.15.15,0,0,1-.08-.15V45.4a.19.19,0,0,1,0-.11l0-.06s0-.1.13-.1.12,0,.12.08a.1.1,0,0,1,0,.05l0,.05s0,.06,0,.09v.39h.56v-.5h1v.58s0,.09-.12.09-.12,0-.12-.09v-.41Z" style="fill: #4d5148"/>
      </g>
      <g>
        <path d="M31.05,40.79v.61s0,.09-.12.09-.12,0-.12-.09v-.79h.77c.18,0,.27.07.27.2v.5h.56V40.7s0-.09.12-.09.12,0,.12.09v.59a.16.16,0,0,1-.07.14.3.3,0,0,1-.21.05h-.48a.3.3,0,0,1-.21-.05.16.16,0,0,1-.07-.14v-.5Z" style="fill: #4d5148"/>
        <path d="M32,42.73a.69.69,0,0,1-.26,0,.71.71,0,0,1-.28-.06L31,42.55c-.11,0-.19-.11-.19-.22s.08-.18.19-.22l.43-.16a.73.73,0,0,1,.28-.06.67.67,0,0,1,.26,0l.47.18c.11,0,.19.12.19.22s-.08.17-.19.22Zm.35-.33s.07,0,.07-.06,0,0-.07-.06l-.43-.16a.46.46,0,0,0-.19,0,.4.4,0,0,0-.16,0l-.45.17s-.07,0-.07.06,0,0,.07.06l.45.17a.4.4,0,0,0,.16,0,.44.44,0,0,0,.19,0Z" style="fill: #4d5148"/>
        <path d="M32.64,43.84v.22H30.93c-.08,0-.12,0-.12-.09s0-.09.12-.09h1.39L32,43.71h0c-.07,0-.14,0-.14-.09s.07-.09.14-.09h0l.33-.17H30.93c-.08,0-.12,0-.12-.09s0-.09.12-.09h1.71v.22l-.41.22Z" style="fill: #4d5148"/>
        <path d="M30.82,44.76a.24.24,0,0,1,.12-.22.46.46,0,0,1,.28-.07h1.31c.08,0,.12,0,.12.09s0,.09-.12.09H31.22c-.13,0-.16,0-.16.11v.3c0,.08,0,.11.16.11h1.31c.08,0,.12,0,.12.09s0,.09-.12.09H31.22a.46.46,0,0,1-.28-.07.24.24,0,0,1-.12-.22Z" style="fill: #4d5148"/>
        <path d="M32.64,45.76v.5c0,.26-.21.38-.54.38a.53.53,0,0,1-.37-.12.61.61,0,0,1-.43.12c-.31,0-.49-.16-.49-.38v-.5Zm-1.59.18v.32c0,.13.08.2.25.2s.31,0,.31-.2v-.32Zm.8,0v.32c0,.13.08.2.25.2s.31,0,.31-.2v-.32Z" style="fill: #4d5148"/>
        <path d="M32.64,47v.5c0,.26-.21.38-.54.38a.54.54,0,0,1-.37-.12.61.61,0,0,1-.43.12c-.31,0-.49-.16-.49-.38V47Zm-1.59.18v.32c0,.13.08.2.25.2s.31,0,.31-.2v-.32Zm.8,0v.32c0,.13.08.2.25.2s.31,0,.31-.2v-.32Z" style="fill: #4d5148"/>
      </g>
      <g>
        <path d="M29.66,40.7s0-.09.12-.09.12,0,.12.09v.61c0,.1-.1.18-.23.18h-.45a.32.32,0,0,1-.23-.07.32.32,0,0,1-.23.07H28.3c-.13,0-.23-.08-.23-.18V40.7s0-.09.12-.09.12,0,.12.09v.61h.39c.13,0,.17,0,.17-.09v-.35s0-.09.12-.09.12,0,.12.09v.35c0,.05,0,.09.17.09h.39Z" style="fill: #4d5148"/>
        <path d="M28.07,42.18a.24.24,0,0,1,.12-.22.45.45,0,0,1,.28-.07h1.31c.08,0,.12,0,.12.09s0,.09-.12.09H28.47c-.13,0-.16,0-.16.11v.3c0,.08,0,.11.16.11h1.31c.08,0,.12,0,.12.09s0,.09-.12.09H28.47a.46.46,0,0,1-.28-.07.24.24,0,0,1-.12-.22Z" style="fill: #4d5148"/>
        <path d="M29.66,43.27s0-.09.12-.09.12,0,.12.09v.61c0,.1-.1.18-.23.18h-.45A.32.32,0,0,1,29,44a.32.32,0,0,1-.23.07H28.3c-.13,0-.23-.08-.23-.18v-.61s0-.09.12-.09.12,0,.12.09v.61h.39c.13,0,.17,0,.17-.09v-.35s0-.09.12-.09.12,0,.12.09v.35s0,.09.17.09h.39Z" style="fill: #4d5148"/>
        <path d="M29.06,45.17v-.61s.06-.09.12-.09h.6c.06,0,.12,0,.12.09v.7c0,.05-.06.09-.12.09H28.18c-.06,0-.12,0-.12-.09v-.09c0-.05.05-.09.12-.09s.12,0,.12.09Zm.23,0h.37v-.52h-.37Z" style="fill: #4d5148"/>
        <path d="M29.66,45.85s0-.09.12-.09.12,0,.12.09v.61c0,.1-.1.18-.23.18h-.45a.32.32,0,0,1-.23-.07.32.32,0,0,1-.23.07H28.3c-.13,0-.23-.08-.23-.18v-.61s0-.09.12-.09.12,0,.12.09v.61h.39c.13,0,.17,0,.17-.09V46s0-.09.12-.09.12,0,.12.09v.35s0,.09.17.09h.39Z" style="fill: #4d5148"/>
        <path d="M29.06,47.75v-.62s.06-.09.12-.09h.6c.06,0,.12,0,.12.09v.7s-.06.09-.12.09H28.18c-.06,0-.12,0-.12-.09v-.09c0-.05.05-.09.12-.09s.12,0,.12.09Zm.23,0h.37v-.53h-.37Z" style="fill: #4d5148"/>
      </g>
      <polygon points="55.27 31.6 60.37 31.6 60.37 48.55 55.27 48.55 55.27 52.07 60.37 52.07 62.17 52.07 75.03 52.07 75.03 49.32 77.97 49.32 77.97 31.6 75.03 31.6 75.03 28.08 62.17 28.08 60.37 28.08 55.27 28.08 55.27 31.6" style="fill: #f7f5e3"/>
      <g>
        <rect height="11.95" style="fill: #b99858" transform="translate(31.34 101.36) rotate(-90)" width="3.13" x="64.79" y="29.03"/>
        <polygon points="60.37 35.32 60.37 36.57 65.45 36.57 65.45 35.32 63.74 35.32 63.74 33.45 60.37 33.45 60.37 35.32" style="fill: #efe9d2"/>
      </g>
      <g>
        <rect height="11.95" style="fill: #b99858" transform="translate(112.11 -20.59) rotate(90)" width="3.13" x="64.79" y="39.78"/>
        <polygon points="60.37 45.45 60.37 44.2 65.45 44.2 65.45 45.45 63.74 45.45 63.74 47.32 60.37 47.32 60.37 45.45" style="fill: #efe9d2"/>
      </g>
      <g>
        <rect height="3.34" style="fill: #978d80" transform="translate(-1.36 64.47) rotate(-90)" width="3.99" x="29.56" y="31.25"/>
        <g>
          <rect height="1.92" style="fill: #c0bdb0" transform="translate(0.16 63.47) rotate(-90)" width="3.58" x="30.02" y="30.7"/>
          <rect height="1.92" style="fill: #e1dedc" transform="translate(1.13 62.5) rotate(-90)" width="1.63" x="31" y="29.72"/>
        </g>
      </g>
      <g>
        <rect height="3.34" style="fill: #978d80" transform="translate(5.7 71.53) rotate(-90)" width="3.99" x="36.62" y="31.25"/>
        <g>
          <rect height="1.92" style="fill: #c0bdb0" transform="translate(7.22 70.53) rotate(-90)" width="3.58" x="37.09" y="30.7"/>
          <rect height="1.92" style="fill: #e1dedc" transform="translate(8.2 69.56) rotate(-90)" width="1.63" x="38.06" y="29.72"/>
        </g>
      </g>
      <g>
        <rect height="3.34" style="fill: #978d80" transform="translate(13.16 79) rotate(-90)" width="3.99" x="44.09" y="31.25"/>
        <g>
          <rect height="1.92" style="fill: #c0bdb0" transform="translate(14.69 78) rotate(-90)" width="3.58" x="44.55" y="30.7"/>
          <rect height="1.92" style="fill: #e1dedc" transform="translate(15.66 77.02) rotate(-90)" width="1.63" x="45.53" y="29.72"/>
        </g>
      </g>
      <g>
        <rect height="3.34" style="fill: #978d80" transform="translate(48.64 -14.47) rotate(90)" width="3.99" x="29.56" y="15.41"/>
        <g>
          <rect height="1.92" style="fill: #c0bdb0" transform="translate(50.16 -13.47) rotate(90)" width="3.58" x="30.03" y="17.39"/>
          <rect height="1.92" style="fill: #e1dedc" transform="translate(51.14 -12.5) rotate(90)" width="1.63" x="31.01" y="18.36"/>
        </g>
        <rect height="3.34" style="fill: #978d80" transform="translate(55.71 -21.54) rotate(90)" width="3.99" x="36.63" y="15.41"/>
        <g>
          <rect height="1.92" style="fill: #c0bdb0" transform="translate(57.23 -20.54) rotate(90)" width="3.58" x="37.09" y="17.39"/>
          <rect height="1.92" style="fill: #e1dedc" transform="translate(58.2 -19.56) rotate(90)" width="1.63" x="38.07" y="18.36"/>
        </g>
        <rect height="3.34" style="fill: #978d80" transform="translate(63.17 -29) rotate(90)" width="3.99" x="44.09" y="15.41"/>
        <g>
          <rect height="1.92" style="fill: #c0bdb0" transform="translate(64.69 -28) rotate(90)" width="3.58" x="44.56" y="17.39"/>
          <rect height="1.92" style="fill: #e1dedc" transform="translate(65.67 -27.03) rotate(90)" width="1.63" x="45.53" y="18.36"/>
        </g>
      </g>
    </g>
  </g>
  <g id="Connectors">
    <path d="M58.88,59.06a7.09,7.09,0,0,0,0,10L62,72.18a42.43,42.43,0,0,0,10-10l-3.1-3.1A7.09,7.09,0,0,0,58.88,59.06Zm4.56,4.56a1.8,1.8,0,1,1,0-2.55A1.8,1.8,0,0,1,63.44,63.62Z" id="path1657" style="fill: #ceb47a"/>
    <path d="M39.48,67.06a7.09,7.09,0,0,0-7.09,7.09v4.38a42.43,42.43,0,0,0,14.17,0V74.15A7.09,7.09,0,0,0,39.48,67.06Zm0,6.45a1.8,1.8,0,1,1,1.8-1.8A1.8,1.8,0,0,1,39.48,73.52Z" id="path1678" style="fill: #ceb47a"/>
    <path d="M39.48,12.25a7.09,7.09,0,0,0,7.09-7.09V.79a42.43,42.43,0,0,0-14.17,0V5.17A7.09,7.09,0,0,0,39.48,12.25Zm0-6.45a1.8,1.8,0,1,1-1.8,1.8A1.8,1.8,0,0,1,39.48,5.8Z" id="path1699" style="fill: #ceb47a"/>
    <path d="M20.07,59.06a7.09,7.09,0,0,0-10,0L7,62.15a42.43,42.43,0,0,0,10,10l3.1-3.1A7.09,7.09,0,0,0,20.07,59.06Zm-4.56,4.56a1.8,1.8,0,1,1,2.55,0A1.8,1.8,0,0,1,15.51,63.62Z" id="path1720" style="fill: #ceb47a"/>
    <path d="M20.08,20.25a7.09,7.09,0,0,0,0-10L17,7.14a42.43,42.43,0,0,0-10,10l3.1,3.1A7.09,7.09,0,0,0,20.08,20.25Zm-4.56-4.56a1.8,1.8,0,1,1,0,2.55A1.8,1.8,0,0,1,15.51,15.69Z" id="path1889" style="fill: #ceb47a"/>
    <path d="M58.88,20.25a7.09,7.09,0,0,0,10,0L72,17.16a42.43,42.43,0,0,0-10-10l-3.1,3.1A7.09,7.09,0,0,0,58.88,20.25Zm4.56-4.56a1.8,1.8,0,1,1-2.55,0A1.8,1.8,0,0,1,63.44,15.69Z" id="path2320" style="fill: #ceb47a"/>
    <circle cx="16.79" cy="62.35" data-cir-type="female" id="circuitoCon_D2" r="1.8" style="fill: none"/>
    <circle cx="39.61" cy="71.72" data-cir-type="female" id="circuitoCon_D0" r="1.8" style="fill: none"/>
    <circle cx="62.1" cy="62.35" data-cir-color="orangered" data-cir-type="female" id="circuitoCon_3.3V" r="1.8" style="fill: none"/>
    <circle cx="62.29" cy="16.96" data-cir-type="female" id="circuitoCon_Vout" r="1.8" style="fill: none"/>
    <circle cx="39.48" cy="7.53" data-cir-type="female" id="circuitoCon_D1" r="1.8" style="fill: none"/>
    <circle cx="16.79" cy="16.96" data-cir-color="black" data-cir-type="female" id="circuitoCon_GND" r="1.8" style="fill: none"/>
    <rect data-cir-type="female" data-name="circuitoCon_BAT+" height="3.12" id="circuitoCon_BAT+" style="fill: none" transform="translate(25 116.52) rotate(-90)" width="3.12" x="69.2" y="44.2"/>
    <rect data-cir-type="female" height="3.12" id="circuitoCon_BAT-" style="fill: none" transform="translate(35.75 105.77) rotate(-90)" width="3.12" x="69.2" y="33.45"/>
    <rect data-cir-type="power" height="17.24" id="circuitoCon_USB_MICRO" style="fill: none" width="7.83" x="2.15" y="30.8"/>
  </g>
</svg>