<?xml version="1.0" ?><svg height="16.55mm" viewBox="0 0 53.42 46.92" width="18.84mm" xmlns="http://www.w3.org/2000/svg">
  <title>Adafruit TSL2591 High Dynamic Range Digital Light Sensor</title>
  <g id="goles5">
    <path d="M47.58,0H5.84A5.83,5.83,0,0,0,0,5.84V41.08a5.84,5.84,0,0,0,5.84,5.84H47.58a5.85,5.85,0,0,0,5.84-5.84V5.84A5.84,5.84,0,0,0,47.58,0ZM30.3,13.28a1,1,0,1,1-1,1A1,1,0,0,1,30.3,13.28ZM2.67,24.85a1,1,0,1,1,1-1A1,1,0,0,1,2.67,24.85ZM8.49,41.72a2,2,0,1,1,2-2A2,2,0,0,1,8.49,41.72ZM6.9,11.45a4.23,4.23,0,1,1,4.24-4.23A4.23,4.23,0,0,1,6.9,11.45Zm7.86.46a1,1,0,1,1-1,1A1,1,0,0,1,14.76,11.91Zm1,29.81a2,2,0,1,1,2-2A2,2,0,0,1,15.74,41.72Zm7.36,0a2,2,0,1,1,2-2A2,2,0,0,1,23.1,41.72Zm7.07,0a2,2,0,1,1,2-2A2,2,0,0,1,30.17,41.72Zm3.71-25.56a1,1,0,1,1,1-1A1,1,0,0,1,33.88,16.16Zm3.44,25.56a2,2,0,1,1,2-2A2,2,0,0,1,37.32,41.72Zm7.09,0a2,2,0,1,1,2-2A2,2,0,0,1,44.41,41.72Zm2.15-30.27a4.23,4.23,0,1,1,4.23-4.23A4.23,4.23,0,0,1,46.56,11.45Z" style="fill: #1a2c80"/>
  </g>
  <g id="lines">
    <polyline points="5.8 15.71 2.46 15.71 2.46 22.86" style="fill: none;stroke: #0b5597;stroke-linecap: round;stroke-linejoin: round;stroke-width: 0.75px"/>
    <line style="fill: none;stroke: #0b5597;stroke-linecap: round;stroke-linejoin: round;stroke-width: 0.75px" x1="11.83" x2="14.02" y1="15.71" y2="13.75"/>
    <polyline points="15.73 11.98 16.98 10.87 41.19 10.87 48.65 18.33 48.65 19.43" style="fill: none;stroke: #0b5597;stroke-linecap: round;stroke-linejoin: round;stroke-width: 0.75px"/>
    <polyline points="42.94 19.89 42.94 18.53 37.76 18.53" style="fill: none;stroke: #0b5597;stroke-linecap: round;stroke-linejoin: round;stroke-width: 0.75px"/>
    <line style="fill: none;stroke: #0b5597;stroke-linecap: round;stroke-linejoin: round;stroke-width: 0.75px" x1="37.61" x2="42.78" y1="23.19" y2="23.19"/>
    <polyline points="45.43 26.31 42.22 26.31 38.85 29.68" style="fill: none;stroke: #0b5597;stroke-linecap: round;stroke-linejoin: round;stroke-width: 0.75px"/>
    <line style="fill: none;stroke: #0b5597;stroke-linecap: round;stroke-linejoin: round;stroke-width: 0.75px" x1="37.61" x2="43.12" y1="32.78" y2="38.29"/>
    <line style="fill: none;stroke: #0b5597;stroke-linecap: round;stroke-linejoin: round;stroke-width: 0.75px" x1="28.3" x2="35.17" y1="32.6" y2="39.47"/>
    <line style="fill: none;stroke: #0b5597;stroke-linecap: round;stroke-linejoin: round;stroke-width: 0.75px" x1="20.3" x2="26.71" y1="31.63" y2="31.63"/>
    <path d="M9.36,41.74,12,44.38H46.43s2.44-2.55,2.54-2.55,0-6.66,0-6.66" style="fill: none;stroke: #0b5597;stroke-linecap: round;stroke-linejoin: round;stroke-width: 0.75px"/>
    <line style="fill: none;stroke: #0b5597;stroke-linecap: round;stroke-linejoin: round;stroke-width: 0.75px" x1="45.15" x2="47.83" y1="32.05" y2="33.67"/>
    <line style="fill: none;stroke: #0b5597;stroke-linecap: round;stroke-linejoin: round;stroke-width: 0.75px" x1="30.9" x2="34.83" y1="25.86" y2="25.86"/>
    <polyline points="13.19 32.88 13.19 35.03 15.7 37.55" style="fill: none;stroke: #0b5597;stroke-linecap: round;stroke-linejoin: round;stroke-width: 0.75px"/>
    <line style="fill: none;stroke: #0b5597;stroke-linecap: round;stroke-linejoin: round;stroke-width: 0.75px" x1="3.77" x2="4.81" y1="23.69" y2="23.69"/>
    <path d="M14.44,23.69a20.85,20.85,0,0,0,2.74,0v1" style="fill: none;stroke: #0b5597;stroke-linecap: round;stroke-linejoin: round;stroke-width: 0.75px"/>
    <polyline points="13.69 20.57 13.69 17.18 11.83 17.18" style="fill: none;stroke: #0b5597;stroke-linecap: round;stroke-linejoin: round;stroke-width: 0.75px"/>
    <polyline points="19.86 15.71 21.99 17.91 21.99 19.8 23.5 19.8" style="fill: none;stroke: #0b5597;stroke-linecap: round;stroke-linejoin: round;stroke-width: 0.75px"/>
    <line style="fill: none;stroke: #0b5597;stroke-linecap: round;stroke-linejoin: round;stroke-width: 0.75px" x1="20.3" x2="23.8" y1="21.41" y2="21.41"/>
    <line style="fill: none;stroke: #0b5597;stroke-linecap: round;stroke-linejoin: round;stroke-width: 0.75px" x1="30.3" x2="30.3" y1="17.45" y2="15.37"/>
    <polyline points="30.9 19.76 32.99 19.76 32.99 16.28 33.31 15.96" style="fill: none;stroke: #0b5597;stroke-linecap: round;stroke-linejoin: round;stroke-width: 0.75px"/>
    <line style="fill: none;stroke: #0b5597;stroke-linecap: round;stroke-linejoin: round;stroke-width: 0.75px" x1="31.08" x2="35.17" y1="21.65" y2="21.65"/>
    <circle cx="14.76" cy="12.92" r="1.01" style="fill: none;stroke: #0b5597;stroke-linecap: round;stroke-linejoin: round;stroke-width: 0.75px"/>
    <circle cx="2.67" cy="23.84" r="1.01" style="fill: none;stroke: #0b5597;stroke-linecap: round;stroke-linejoin: round;stroke-width: 0.75px"/>
    <circle cx="30.3" cy="14.29" r="1.01" style="fill: none;stroke: #0b5597;stroke-linecap: round;stroke-linejoin: round;stroke-width: 0.75px"/>
    <circle cx="33.88" cy="15.15" r="1.01" style="fill: none;stroke: #0b5597;stroke-linecap: round;stroke-linejoin: round;stroke-width: 0.75px"/>
    <circle cx="33.13" cy="22.76" r="0.77" style="fill: none;stroke: #fff;stroke-miterlimit: 10;stroke-width: 0.75px"/>
    <polyline points="32.19 27.11 32.19 30.73 22.56 30.73 22.56 27.1" style="fill: none;stroke: #fff;stroke-linecap: round;stroke-linejoin: round;stroke-width: 0.5px"/>
    <polyline points="50.97 21.76 50.97 25.38 41.34 25.38 41.34 21.75" style="fill: none;stroke: #fff;stroke-linecap: round;stroke-linejoin: round;stroke-width: 0.5px"/>
    <line style="fill: none;stroke: #fff;stroke-linecap: round;stroke-linejoin: round;stroke-width: 0.5px" x1="7.21" x2="12.07" y1="18.7" y2="18.7"/>
    <line style="fill: none;stroke: #fff;stroke-linecap: round;stroke-linejoin: round;stroke-width: 0.5px" x1="7.21" x2="12.07" y1="28.09" y2="28.09"/>
    <line style="fill: none;stroke: #fff;stroke-linecap: round;stroke-linejoin: round;stroke-width: 0.5px" x1="12.71" x2="12.71" y1="22.29" y2="24.46"/>
    <line style="fill: none;stroke: #fff;stroke-linecap: round;stroke-linejoin: round;stroke-width: 0.5px" x1="26.54" x2="28.08" y1="26.84" y2="26.84"/>
  </g>
  <g data-name="Layer 3" id="Layer_3">
    <g>
      <path d="M6.73,14.37v2.68a1.12,1.12,0,0,1-2.24,0V14.37a1.12,1.12,0,0,1,2.24,0Z" style="fill: #bababa"/>
      <path d="M12.71,14.37v2.68a1.12,1.12,0,0,1-2.24,0V14.37a1.12,1.12,0,0,1,2.24,0Z" style="fill: #bababa"/>
      <rect height="5.97" rx="0.58" ry="0.58" style="fill: #e0e0e0" transform="translate(-7.11 24.31) rotate(-90)" width="2.95" x="7.12" y="12.72"/>
      <rect height="2.8" style="fill: #ac947a" transform="translate(-7.17 24.25) rotate(-90)" width="2.95" x="7.07" y="14.31"/>
    </g>
    <g>
      <path d="M8.33,29.78v2.69a1.12,1.12,0,0,1-2.24,0V29.78a1.12,1.12,0,0,1,2.24,0Z" style="fill: #bababa"/>
      <path d="M14.31,29.78v2.69a1.12,1.12,0,0,1-2.24,0V29.78a1.12,1.12,0,0,1,2.24,0Z" style="fill: #bababa"/>
      <rect height="5.97" rx="0.58" ry="0.58" style="fill: #e0e0e0" transform="translate(-20.93 41.33) rotate(-90)" width="2.95" x="8.72" y="28.14"/>
      <rect height="2.8" style="fill: #ac947a" transform="translate(-20.98 41.27) rotate(-90)" width="2.95" x="8.66" y="29.73"/>
    </g>
    <g>
      <g>
        <path d="M17.32,30.11H20a1.26,1.26,0,0,1,0,2.49H17.32a1.26,1.26,0,0,1,0-2.49Z" style="fill: #bababa"/>
        <path d="M17.32,23.46H20A1.26,1.26,0,0,1,20,26H17.32a1.26,1.26,0,0,1,0-2.49Z" style="fill: #bababa"/>
        <rect height="6.65" rx="0.58" ry="0.58" style="fill: #e0e0e0" transform="translate(37.31 56.06) rotate(180)" width="2.95" x="17.18" y="24.71"/>
        <rect height="4.16" transform="translate(37.31 56.06) rotate(180)" width="2.95" x="17.18" y="25.95"/>
      </g>
      <g>
        <path d="M19,29.74v-.19h-.75v.19s0,0,0,.05h-.09s0,0,0-.05v-.32H19v-.13h-.26s0,0-.05,0a.05.05,0,0,1,0,0s0,0,0-.05l.05,0h.33l0,0s0,0,0,.05v.51a.08.08,0,0,1,0,.05l0,0-.05,0A.08.08,0,0,1,19,29.74Z" style="fill: #fff"/>
        <path d="M19,28.87h-.77a.12.12,0,0,1-.08,0,.1.1,0,0,1,0-.09v-.39a.1.1,0,0,1,0-.09.12.12,0,0,1,.08,0H19a.12.12,0,0,1,.08,0,.1.1,0,0,1,0,.09v.39a.1.1,0,0,1,0,.09A.12.12,0,0,1,19,28.87Zm0-.52h-.75v.39H19Z" style="fill: #fff"/>
        <path d="M19,27.93h-.77a.12.12,0,0,1-.08,0,.1.1,0,0,1,0-.09v-.39a.1.1,0,0,1,0-.09.11.11,0,0,1,.08,0H19a.11.11,0,0,1,.08,0,.1.1,0,0,1,0,.09v.39a.1.1,0,0,1,0,.09A.09.09,0,0,1,19,27.93Zm0-.52h-.75v.39H19Z" style="fill: #fff"/>
        <path d="M19.16,26.41V27h-.44a.13.13,0,0,1-.09,0,.12.12,0,0,1,0-.09v-.39h-.31v.46a.05.05,0,0,1,0,0l0,0,0,0a.05.05,0,0,1,0,0v-.46a.14.14,0,0,1,.13-.13h.31a.13.13,0,0,1,.09,0,.12.12,0,0,1,0,.09v.39H19v-.45a.08.08,0,0,1,0-.05l.05,0,0,0A.08.08,0,0,1,19.16,26.41Z" style="fill: #fff"/>
      </g>
    </g>
    <g>
      <g>
        <path d="M35.23,24.61h2.68a1.25,1.25,0,0,1,0,2.49H35.23a1.26,1.26,0,0,1,0-2.49Z" style="fill: #bababa"/>
        <path d="M35.23,18h2.68a1.25,1.25,0,0,1,0,2.49H35.23a1.26,1.26,0,0,1,0-2.49Z" style="fill: #bababa"/>
        <rect height="6.65" rx="0.58" ry="0.58" style="fill: #e0e0e0" transform="translate(73.15 45.06) rotate(180)" width="2.95" x="35.1" y="19.21"/>
        <rect height="4.16" transform="translate(73.15 45.06) rotate(180)" width="2.95" x="35.1" y="20.45"/>
      </g>
      <g>
        <path d="M37,24.24v-.19H36.2v.19s0,0,0,.05h-.09s0,0,0-.05v-.32H37v-.13h-.27a0,0,0,0,1,0,0,.05.05,0,0,1,0,0s0,0,0-.05l0,0H37l.05,0s0,0,0,.05v.51a.08.08,0,0,1,0,.05l-.05,0,0,0S37,24.26,37,24.24Z" style="fill: #fff"/>
        <path d="M37,23.37h-.76a.18.18,0,0,1-.09,0,.12.12,0,0,1,0-.09v-.39a.12.12,0,0,1,0-.09.18.18,0,0,1,.09,0H37a.14.14,0,0,1,.13.13v.39a.14.14,0,0,1-.13.13Zm0-.52H36.2v.39H37Z" style="fill: #fff"/>
        <path d="M37,22.43h-.76a.18.18,0,0,1-.09,0,.12.12,0,0,1,0-.09v-.39a.12.12,0,0,1,0-.09.16.16,0,0,1,.09,0H37a.12.12,0,0,1,.09,0,.13.13,0,0,1,0,.09v.39a.13.13,0,0,1,0,.09A.1.1,0,0,1,37,22.43Zm0-.52H36.2v.39H37Z" style="fill: #fff"/>
        <path d="M37.08,20.91v.58h-.44a.18.18,0,0,1-.1,0,.16.16,0,0,1,0-.09V21H36.2v.46a.05.05,0,0,1,0,0l0,0,0,0a.05.05,0,0,1,0,0V21a.12.12,0,0,1,0-.09.13.13,0,0,1,.09,0h.31a.14.14,0,0,1,.13.13v.39H37v-.45s0,0,0-.05l0,0,.05,0A.08.08,0,0,1,37.08,20.91Z" style="fill: #fff"/>
      </g>
    </g>
    <g>
      <g>
        <path d="M43.16,32.07V29.39a1.26,1.26,0,0,1,2.49,0v2.68a1.26,1.26,0,0,1-2.49,0Z" style="fill: #bababa"/>
        <path d="M36.51,32.07V29.39a1.26,1.26,0,0,1,2.5,0v2.68a1.26,1.26,0,0,1-2.5,0Z" style="fill: #bababa"/>
        <rect height="6.65" rx="0.58" ry="0.58" style="fill: #e0e0e0" transform="translate(71.81 -10.36) rotate(90)" width="2.95" x="39.61" y="27.4"/>
        <rect height="4.16" transform="translate(71.81 -10.36) rotate(90)" width="2.95" x="39.61" y="28.65"/>
      </g>
      <g>
        <path d="M42.8,30.35h-.2v.75h.19l.05,0a.08.08,0,0,1,0,.05.05.05,0,0,1,0,0s0,0-.05,0h-.32v-.88h-.12v.27a.08.08,0,0,1,0,0l0,0a.05.05,0,0,1,0,0,0,0,0,0,1,0,0v-.33s0,0,0-.05a.05.05,0,0,1,0,0h.52l0,0s0,0,0,.05a.05.05,0,0,1,0,0A0,0,0,0,1,42.8,30.35Z" style="fill: #fff"/>
        <path d="M41.92,30.35v.76a.12.12,0,0,1,0,.09.11.11,0,0,1-.08,0h-.4a.11.11,0,0,1-.12-.12v-.76a.12.12,0,0,1,0-.09.18.18,0,0,1,.09,0h.4a.12.12,0,0,1,.08,0A.1.1,0,0,1,41.92,30.35Zm-.52,0v.75h.39v-.75Z" style="fill: #fff"/>
        <path d="M41,30.35v.76a.12.12,0,0,1,0,.09.11.11,0,0,1-.08,0h-.4a.11.11,0,0,1-.12-.12v-.76a.12.12,0,0,1,0-.09.18.18,0,0,1,.09,0h.4a.12.12,0,0,1,.08,0A.1.1,0,0,1,41,30.35Zm-.52,0v.75h.39v-.75Z" style="fill: #fff"/>
        <path d="M39.46,30.22H40v.44a.13.13,0,0,1,0,.1.12.12,0,0,1-.09,0h-.39v.31H40l.05,0a.07.07,0,0,1,0,.05s0,0,0,0a.06.06,0,0,1-.05,0h-.46a.12.12,0,0,1-.12-.13v-.31a.16.16,0,0,1,0-.09.18.18,0,0,1,.09,0h.39v-.31h-.45a.06.06,0,0,1-.05,0s0,0,0,0a.07.07,0,0,1,0-.05Z" style="fill: #fff"/>
      </g>
    </g>
    <g>
      <g>
        <path d="M20,15.37H17.32a1.17,1.17,0,0,1-1.09-1.25,1.16,1.16,0,0,1,1.09-1.24H20a1.17,1.17,0,0,1,1.09,1.24A1.18,1.18,0,0,1,20,15.37Z" style="fill: #bababa"/>
        <path d="M20,22H17.32a1.26,1.26,0,0,1,0-2.49H20A1.26,1.26,0,0,1,20,22Z" style="fill: #bababa"/>
        <rect height="6.65" rx="0.58" ry="0.58" style="fill: #e0e0e0" width="2.95" x="17.18" y="14.12"/>
        <rect height="4.16" width="2.95" x="17.18" y="15.37"/>
      </g>
      <g>
        <path d="M18.28,15.74v.19H19v-.19a.09.09,0,0,1,0-.05l.05,0,0,0a.06.06,0,0,1,0,.05v.32h-.88v.13h.27s0,0,0,0,0,0,0,0a.06.06,0,0,1,0,.05h-.42a.09.09,0,0,1,0-.05v-.51a.07.07,0,0,1,0-.05l0,0,0,0S18.28,15.72,18.28,15.74Z" style="fill: #fff"/>
        <path d="M18.28,16.61H19a.18.18,0,0,1,.09,0,.12.12,0,0,1,0,.09v.39a.14.14,0,0,1,0,.09.16.16,0,0,1-.09,0h-.76a.11.11,0,0,1-.12-.12v-.39a.12.12,0,0,1,0-.09A.11.11,0,0,1,18.28,16.61Zm0,.52H19v-.39h-.76Z" style="fill: #fff"/>
        <path d="M18.28,17.55H19a.12.12,0,0,1,.09,0,.11.11,0,0,1,0,.08v.4a.14.14,0,0,1,0,.09.16.16,0,0,1-.09,0h-.76a.11.11,0,0,1-.12-.12v-.4a.11.11,0,0,1,0-.08A.11.11,0,0,1,18.28,17.55Zm0,.52H19v-.39h-.76Z" style="fill: #fff"/>
        <path d="M18.16,19.07v-.58h.44a.12.12,0,0,1,.12.13V19H19v-.46s0,0,0,0a.06.06,0,0,1,.05,0s0,0,0,0,0,0,0,0V19a.16.16,0,0,1,0,.09.18.18,0,0,1-.09,0h-.32a.18.18,0,0,1-.09,0,.16.16,0,0,1,0-.09v-.39h-.32v.45a.06.06,0,0,1,0,.05l0,0,0,0A.09.09,0,0,1,18.16,19.07Z" style="fill: #fff"/>
      </g>
    </g>
    <g>
      <g>
        <rect height="1.65" style="fill: #aeaba8" width="2.15" x="12.8" y="19.8"/>
        <rect height="1.18" style="fill: #bababa" width="0.97" x="11.83" y="20.05"/>
        <rect height="1.65" style="fill: #aeaba8" width="2.15" x="12.8" y="22.51"/>
        <rect height="1.18" style="fill: #bababa" width="0.97" x="11.83" y="22.76"/>
        <rect height="1.65" style="fill: #aeaba8" width="2.15" x="12.8" y="25.19"/>
        <rect height="1.18" style="fill: #bababa" width="0.97" x="11.83" y="25.44"/>
        <rect height="1.65" style="fill: #aeaba8" transform="translate(10.25 51.87) rotate(180)" width="2.15" x="4.05" y="25.11"/>
        <rect height="1.18" style="fill: #bababa" transform="translate(13.37 51.84) rotate(180)" width="0.97" x="6.2" y="25.33"/>
        <rect height="1.65" style="fill: #aeaba8" transform="translate(10.25 41.17) rotate(180)" width="2.15" x="4.05" y="19.76"/>
        <rect height="1.18" style="fill: #bababa" transform="translate(13.37 41.14) rotate(180)" width="0.97" x="6.2" y="19.98"/>
        <rect height="1.65" style="fill: #aeaba8" transform="translate(10.25 46.92) rotate(180)" width="2.15" x="4.05" y="22.63"/>
        <rect height="1.18" style="fill: #bababa" transform="translate(13.37 46.89) rotate(180)" width="0.97" x="6.2" y="22.86"/>
        <rect height="8.07" style="fill: #333" width="4.66" x="7.17" y="19.43"/>
      </g>
      <g>
        <path d="M10,26.25H8.73a.2.2,0,0,1-.15-.06.2.2,0,0,1-.06-.14v-.66a.21.21,0,0,1,.21-.21H10a.2.2,0,0,1,.14.06.2.2,0,0,1,.06.15v.66a.18.18,0,0,1-.06.14A.2.2,0,0,1,10,26.25Zm0-.86H8.74V26H10Z" style="fill: #403937"/>
        <path d="M8.81,24.69H8.53V23.61h.29a.09.09,0,0,1,.07,0,.13.13,0,0,1,0,.08.09.09,0,0,1,0,.07.09.09,0,0,1-.07,0H8.74V24H10.1a.09.09,0,0,1,.07,0,.1.1,0,0,1,0,.08.12.12,0,0,1-.11.11H8.74v.21h.07a.1.1,0,0,1,.11.11.13.13,0,0,1,0,.08A.11.11,0,0,1,8.81,24.69Z" style="fill: #403937"/>
        <path d="M8.74,22.05h.39a.34.34,0,0,1,.23.08A.33.33,0,0,1,9.58,22H10a.18.18,0,0,1,.15.07.2.2,0,0,1,.06.15V23a.11.11,0,0,1,0,.08.09.09,0,0,1-.07,0A.1.1,0,0,1,10,23v-.75H9.58a.1.1,0,0,0-.11.11v.42a.1.1,0,0,1,0,.08.12.12,0,0,1-.16,0,.1.1,0,0,1,0-.08v-.42a.11.11,0,0,0,0-.08.09.09,0,0,0-.07,0H8.74V23a.08.08,0,0,1,0,.07.09.09,0,0,1-.07,0,.13.13,0,0,1-.08,0,.09.09,0,0,1,0-.07v-.76a.18.18,0,0,1,.07-.15A.2.2,0,0,1,8.74,22.05Z" style="fill: #403937"/>
        <path d="M8.74,20.48h.39a.3.3,0,0,1,.23.09.33.33,0,0,1,.22-.09H10a.21.21,0,0,1,.21.21v.76a.11.11,0,0,1,0,.07.09.09,0,0,1-.07,0,.11.11,0,0,1-.08,0,.11.11,0,0,1,0-.07V20.7H9.58a.11.11,0,0,0-.08,0,.09.09,0,0,0,0,.07v.43a.13.13,0,0,1,0,.08.12.12,0,0,1-.16,0,.13.13,0,0,1,0-.08V20.8a.13.13,0,0,0,0-.08.09.09,0,0,0-.07,0H8.74v.76a.12.12,0,0,1-.11.11.13.13,0,0,1-.08,0,.11.11,0,0,1,0-.08v-.76a.18.18,0,0,1,.07-.15A.2.2,0,0,1,8.74,20.48Z" style="fill: #403937"/>
      </g>
    </g>
    <g>
      <g>
        <path d="M23.77,26.7h.06V27a.09.09,0,0,0,.09.09H25a.09.09,0,0,0,.09-.09V26.7h.64a.3.3,0,0,0,.3-.29v-2a.3.3,0,0,0-.3-.29H23.77a.29.29,0,0,0-.3.29v2A.29.29,0,0,0,23.77,26.7Z" style="fill: #aeaba8"/>
        <path d="M29.1,26.67h.06v.27a.09.09,0,0,0,.09.09h1.07a.09.09,0,0,0,.09-.09v-.27h.64a.3.3,0,0,0,.3-.29v-2a.29.29,0,0,0-.3-.28H29.1a.28.28,0,0,0-.3.28v2A.29.29,0,0,0,29.1,26.67Z" style="fill: #aeaba8"/>
        <path d="M28.47,30.82h-.06v-.28a.1.1,0,0,0-.1-.09H27.14a.09.09,0,0,0-.1.09v.28h-.7a.3.3,0,0,0-.32.29v2a.3.3,0,0,0,.32.29h2.13a.31.31,0,0,0,.33-.29v-2A.31.31,0,0,0,28.47,30.82Z" style="fill: #aeaba8"/>
        <rect height="4.22" rx="0.91" ry="0.91" style="fill: #3c3c3e" transform="translate(54.81 57.95) rotate(180)" width="8.61" x="23.1" y="26.86"/>
      </g>
      <g>
        <g>
          <path d="M29.39,28.54v.31a.1.1,0,0,1-.2,0v-.31a.1.1,0,0,0-.1-.1h-.2a.11.11,0,0,0-.07,0,.09.09,0,0,0,0,.07v1.15a.09.09,0,0,1,0,.07.07.07,0,0,1-.06,0,.09.09,0,0,1-.07,0,.11.11,0,0,1,0-.07V28.54a.27.27,0,0,1,.09-.21.27.27,0,0,1,.2-.09h.2a.31.31,0,0,1,.3.3Z" style="fill: #5e5b55"/>
          <path d="M28,28.44h-.3v1.15h.29a.09.09,0,0,1,.07,0,.11.11,0,0,1,0,.07.1.1,0,0,1-.1.1h-.49V28.44h-.19v.41a.11.11,0,0,1,0,.07.1.1,0,0,1-.17-.07v-.51a.1.1,0,0,1,.1-.1H28a.09.09,0,0,1,.07,0,.11.11,0,0,1,0,.07.1.1,0,0,1-.1.1Z" style="fill: #5e5b55"/>
        </g>
        <path d="M26.63,28.63h.26v1h-.27a.07.07,0,0,1-.06,0,.09.09,0,0,1,0-.07.11.11,0,0,1,0-.07.09.09,0,0,1,.06,0h.08v-.2H25.44a.11.11,0,0,1-.07,0,.09.09,0,0,1,0-.06.11.11,0,0,1,0-.08l.07,0H26.7v-.2h-.07a.1.1,0,0,1,0-.2Z" style="fill: #5e5b55"/>
      </g>
    </g>
    <g>
      <g>
        <path d="M42.52,21.29h.06v.27a.09.09,0,0,0,.09.09h1.07a.09.09,0,0,0,.09-.09v-.27h.64a.3.3,0,0,0,.3-.29V19a.3.3,0,0,0-.3-.29H42.52a.29.29,0,0,0-.3.29v2A.29.29,0,0,0,42.52,21.29Z" style="fill: #aeaba8"/>
        <path d="M47.85,21.26h.06v.27a.09.09,0,0,0,.09.09h1.07a.09.09,0,0,0,.09-.09v-.27h.64a.3.3,0,0,0,.3-.29V19a.3.3,0,0,0-.3-.29H47.85a.29.29,0,0,0-.3.29v2A.29.29,0,0,0,47.85,21.26Z" style="fill: #aeaba8"/>
        <path d="M47.22,25.41h-.06v-.27a.1.1,0,0,0-.1-.09H45.89a.09.09,0,0,0-.1.09v.27h-.7a.3.3,0,0,0-.32.29v2a.3.3,0,0,0,.32.29h2.13a.31.31,0,0,0,.33-.29v-2A.31.31,0,0,0,47.22,25.41Z" style="fill: #aeaba8"/>
        <rect height="4.22" rx="0.91" ry="0.91" style="fill: #3c3c3e" transform="translate(92.31 47.13) rotate(180)" width="8.61" x="41.85" y="21.46"/>
      </g>
      <g>
        <g>
          <path d="M48.14,23.13v.31a.1.1,0,0,1-.2,0v-.31a.1.1,0,0,0-.1-.1h-.2a.11.11,0,0,0-.07,0,.09.09,0,0,0,0,.07v1.16a.11.11,0,0,1-.09.09.1.1,0,0,1-.1-.1V23.13a.29.29,0,0,1,.09-.21.27.27,0,0,1,.2-.09h.2a.31.31,0,0,1,.3.3Z" style="fill: #5e5b55"/>
          <path d="M46.7,23h-.3v1.16h.29a.1.1,0,0,1,.1.1.07.07,0,0,1,0,.06.09.09,0,0,1-.07,0H46.2V23H46v.41a.1.1,0,0,1-.2,0v-.51a.07.07,0,0,1,0-.06.09.09,0,0,1,.07,0h.79a.1.1,0,0,1,.1.1.07.07,0,0,1,0,.06A.09.09,0,0,1,46.7,23Z" style="fill: #5e5b55"/>
        </g>
        <path d="M45.38,23.22h.26v1h-.27a.07.07,0,0,1-.06,0,.09.09,0,0,1,0-.06.11.11,0,0,1,0-.08.09.09,0,0,1,.06,0h.08v-.19H44.19a.11.11,0,0,1-.07,0,.1.1,0,0,1,0-.14.11.11,0,0,1,.07,0h1.26v-.2h-.07a.1.1,0,0,1,0-.2Z" style="fill: #5e5b55"/>
      </g>
    </g>
    <g>
      <path d="M27.61,17.75v-.94h1.58s.21.71,1.71.71h.7v1h-4Z" style="fill: #eadcd9"/>
      <path d="M27.34,17.75v-.94H25.76s-.2.71-1.7.71h-.71v1h4Z" style="fill: #eadcd9"/>
      <path d="M27.2,21.94v.94H25.62s-.2-.71-1.7-.71h-.71v-1h4Z" style="fill: #eadcd9"/>
      <path d="M27.48,21.94v.94h1.58s.2-.71,1.7-.71h.71v-1h-4Z" style="fill: #eadcd9"/>
      <rect height="1.25" style="fill: #eadcd9" width="2.61" x="28.99" y="19.21"/>
      <rect height="1.25" style="fill: #eadcd9" width="2.58" x="23.35" y="19.21"/>
      <rect height="6.78" style="fill: #b9a536;opacity: 0.58" width="5.69" x="24.52" y="16.41"/>
      <rect height="1.65" style="fill: #a25a0a" width="1.65" x="26.54" y="20.64"/>
      <rect height="2.7" style="fill: #512708" width="3.13" x="25.86" y="17.19"/>
      <rect height="5.32" style="fill: #301606;opacity: 0.46" width="3.13" x="25.86" y="17.19"/>
    </g>
  </g>
  <g data-name="Layer 29" id="Layer_29">
    <g>
      <path d="M52.56,33.05a2.44,2.44,0,0,0-2.15-.29,3.64,3.64,0,0,0-.27-2c-.14-.46-.36-.62-.74-.05a2.18,2.18,0,0,0-.87,1.79c-.38-.53-1.12-.57-2-.45-.58,0-.64.3-.35.71A2.56,2.56,0,0,0,47.35,34c.3,0,.44.1.21.21a2.66,2.66,0,0,0-.9,1.82c-.13.58.13.58.56.36a2.36,2.36,0,0,0,1.56-.74c.16-.17.29-.27.29-.08a.55.55,0,0,0,.17.45,5.29,5.29,0,0,0,1.29,1c.31.22.45.12.46-.27s.09-.62.11-.85a1.76,1.76,0,0,0-.06-.79L51,35l-.21-.16c-.2-.21-.15-.29.15-.25a2.1,2.1,0,0,0,1.6-.83C52.92,33.48,52.89,33.24,52.56,33.05Z" style="fill: #fff"/>
      <path d="M49.61,32.05a1.4,1.4,0,0,1-.15,1.15,1.5,1.5,0,0,1-.05-.59A1.35,1.35,0,0,1,49.61,32.05Z" style="fill: #1a397c"/>
      <path d="M48.87,34.42a1.4,1.4,0,0,1-.36.47,1.37,1.37,0,0,1-.52.28,1.4,1.4,0,0,1,.36-.47A1.25,1.25,0,0,1,48.87,34.42Z" style="fill: #1a397c"/>
      <path d="M49.71,34.48A1.57,1.57,0,0,1,50,35a1.44,1.44,0,0,1,.1.59,1.41,1.41,0,0,1-.43-1.08Z" style="fill: #1a397c"/>
      <path d="M47.67,33a1.29,1.29,0,0,1,.56.19,1.38,1.38,0,0,1,.44.4,1.45,1.45,0,0,1-1-.59Z" style="fill: #1a397c"/>
      <path d="M50.14,33.88a1.39,1.39,0,0,1,1.14-.21,1.39,1.39,0,0,1-1.14.21Z" style="fill: #1a397c"/>
    </g>
    <g>
      <circle cx="39.79" cy="14.5" r="2.75" style="fill: #6f6a5a"/>
      <circle cx="39.79" cy="14.5" r="1.4" style="fill: #f6ecc8"/>
    </g>
    <path d="M6.9,2.07a5.15,5.15,0,1,0,5.15,5.15A5.15,5.15,0,0,0,6.9,2.07ZM6.9,11a3.78,3.78,0,1,1,3.79-3.78A3.78,3.78,0,0,1,6.9,11Z" style="fill: #fff3d8"/>
    <circle cx="6.9" cy="7.22" r="5.9" style="fill: none;stroke: #fff;stroke-miterlimit: 10;stroke-width: 0.5px"/>
    <path d="M46.56,2.07a5.15,5.15,0,1,0,5.15,5.15A5.16,5.16,0,0,0,46.56,2.07Zm0,8.93a3.78,3.78,0,1,1,3.78-3.78A3.78,3.78,0,0,1,46.56,11Z" style="fill: #fff3d8"/>
    <circle cx="46.56" cy="7.22" r="5.9" style="fill: none;stroke: #fff;stroke-miterlimit: 10;stroke-width: 0.5px"/>
    <path d="M2.38,35.17A2.75,2.75,0,0,0,0,36.56v2.72a2.75,2.75,0,1,0,2.38-4.11Zm0,4.15a1.4,1.4,0,1,1,0-2.79,1.4,1.4,0,0,1,0,2.79Z" style="fill: #6f6a5a"/>
    <path d="M2.38,36.53a1.4,1.4,0,1,0,1.39,1.39A1.4,1.4,0,0,0,2.38,36.53Z" style="fill: #f6ecc8"/>
  </g>
  <g id="text">
    <g>
      <path d="M15.5,2.82V2.21h2.26v.61A.23.23,0,0,1,17.7,3a.25.25,0,0,1-.16.06A.23.23,0,0,1,17.38,3a.21.21,0,0,1-.07-.16V2.66h-.46V5.53a.2.2,0,0,1-.06.15.21.21,0,0,1-.16.07.2.2,0,0,1-.16-.07.18.18,0,0,1-.07-.15V2.66H16v.16a.18.18,0,0,1-.07.15.19.19,0,0,1-.16.07A.18.18,0,0,1,15.57,3,.18.18,0,0,1,15.5,2.82Z" style="fill: #fff"/>
      <path d="M19.31,2.21h1.17a.62.62,0,0,1,.4.17.58.58,0,0,1,.19.44A.19.19,0,0,1,21,3a.18.18,0,0,1-.15.07.19.19,0,0,1-.15,0,.67.67,0,0,1-.09-.19.16.16,0,0,0-.17-.15H19.33s-.08,0-.08.06,0,0,0,.07L21,4.92a.51.51,0,0,1,0,.68.46.46,0,0,1-.33.15H19.39A.55.55,0,0,1,19,5.57a.57.57,0,0,1-.18-.4c0-.17.08-.25.23-.25a.23.23,0,0,1,.16.06.22.22,0,0,1,.06.15.17.17,0,0,0,.18.17h1.11c.05,0,.07,0,.07-.06s0,0,0-.07L18.92,3.05a.52.52,0,0,1-.12-.33.51.51,0,0,1,.51-.51Z" style="fill: #fff"/>
      <path d="M22.1,5.75V2.43a.26.26,0,0,1,.07-.16.24.24,0,0,1,.32,0,.25.25,0,0,1,.06.16V5.3h1.59a.21.21,0,0,1,.16.07.22.22,0,0,1,.07.16.24.24,0,0,1-.23.22Z" style="fill: #fff"/>
      <path d="M27.44,5.74h-2V4.2a.42.42,0,0,1,.13-.32.43.43,0,0,1,.32-.14h1.36V2.65h-1.6a.22.22,0,0,1-.23-.22.2.2,0,0,1,.07-.16.21.21,0,0,1,.16-.06h1.6a.44.44,0,0,1,.32.13.4.4,0,0,1,.13.31V3.74a.44.44,0,0,1-.13.33.48.48,0,0,1-.32.13H25.85V5.3h1.59a.2.2,0,0,1,.15.06.21.21,0,0,1,.07.16.2.2,0,0,1-.07.16A.2.2,0,0,1,27.44,5.74Z" style="fill: #fff"/>
      <path d="M29.52,5.3h1V4.2H29.21v-2h1.57a.22.22,0,1,1,0,.44H29.66v1.1h.9a.44.44,0,0,1,.32.13A.48.48,0,0,1,31,4.2V5.3a.46.46,0,0,1-.13.31.44.44,0,0,1-.32.13h-1a.79.79,0,0,1-.29-.06l-.34-.14a.22.22,0,0,1-.14-.22.25.25,0,0,1,.06-.16A.2.2,0,0,1,29,5.1a.34.34,0,0,1,.16,0l.29.12A.19.19,0,0,0,29.52,5.3Z" style="fill: #fff"/>
      <path d="M34,5.74h-.23a.21.21,0,0,1-.16-.07.2.2,0,0,1-.06-.15.22.22,0,0,1,.22-.23V3.81H32.23A.24.24,0,0,1,32,3.59V2.42a.18.18,0,0,1,.07-.15.18.18,0,0,1,.15-.07H34a.18.18,0,0,1,.15.07.18.18,0,0,1,.07.15v3.1a.2.2,0,0,1-.06.15A.21.21,0,0,1,34,5.74Zm-.22-2.38V2.65H32.46v.71Z" style="fill: #fff"/>
      <path d="M35.51,5.3h.69V2.65h-.68a.25.25,0,0,1-.16-.06.25.25,0,0,1-.06-.16.23.23,0,0,1,.06-.16.25.25,0,0,1,.16-.06h1.13V5.3h.45V4.36a.2.2,0,0,1,.06-.15.2.2,0,0,1,.16-.07.23.23,0,0,1,.16.06.25.25,0,0,1,.06.16V5.52a.21.21,0,0,1-.22.22H35.51a.21.21,0,0,1-.22-.22.21.21,0,0,1,.06-.16A.25.25,0,0,1,35.51,5.3Z" style="fill: #fff"/>
    </g>
    <g>
      <path d="M14.15,10V7.27a.18.18,0,0,1,.06-.13.15.15,0,0,1,.13,0,.15.15,0,0,1,.12,0,.18.18,0,0,1,.06.13V9.59H15.8a.18.18,0,1,1,0,.36Z" style="fill: #fff"/>
      <path d="M17.68,9.58l.61-.38V8.05a.18.18,0,1,1,.36,0V9.77a.18.18,0,1,1-.36,0V9.63l-.32.2a.65.65,0,0,1-.37.12h-.17a.51.51,0,0,1-.38-.16.56.56,0,0,1-.17-.37l-.05-1.37a.13.13,0,0,1,.05-.12.17.17,0,0,1,.26,0,.17.17,0,0,1,.05.12l0,1.34c0,.13.08.19.22.19Z" style="fill: #fff"/>
      <path d="M20.43,9.17l-.59.71a.19.19,0,0,1-.28,0,.22.22,0,0,1,0-.14.15.15,0,0,1,0-.1l.66-.78-.61-.72a.18.18,0,0,1,0-.1.21.21,0,0,1,.05-.13.18.18,0,0,1,.13-.06.18.18,0,0,1,.15.07l.55.66L21,7.93a.15.15,0,0,1,.13-.06.21.21,0,0,1,.12,0A.14.14,0,0,1,21.3,8a.16.16,0,0,1,0,.11l-.61.73.64.78a.12.12,0,0,1,0,.1.19.19,0,0,1-.05.13.18.18,0,0,1-.13.06A.21.21,0,0,1,21,9.88Z" style="fill: #fff"/>
      <path d="M25.22,7.09h.94a.5.5,0,0,1,.48.49.17.17,0,0,1-.05.14.21.21,0,0,1-.12,0c-.06,0-.11,0-.13,0a.53.53,0,0,1-.06-.16c0-.07-.07-.11-.14-.11h-.9s-.06,0-.06,0,0,0,0,.06l1.35,1.72a.43.43,0,0,1,.09.26.39.39,0,0,1-.11.29.37.37,0,0,1-.26.12h-1a.5.5,0,0,1-.48-.47c0-.14.06-.2.19-.2a.13.13,0,0,1,.12.05.16.16,0,0,1,.06.12.13.13,0,0,0,0,.1.12.12,0,0,0,.1,0h.9s.05,0,.05-.05,0,0,0,0L24.9,7.77a.44.44,0,0,1-.09-.27.41.41,0,0,1,.41-.41Z" style="fill: #fff"/>
      <path d="M29.3,8.55V9a.17.17,0,0,1-.18.18H27.84v.11a.19.19,0,0,0,.08.15l.11.09a.23.23,0,0,0,.16.07h.93a.18.18,0,1,1,0,.36h-.95a.48.48,0,0,1-.2,0l-.16-.08-.16-.14a.59.59,0,0,1-.13-.17.53.53,0,0,1-.05-.2V8.49a.45.45,0,0,1,.06-.19.47.47,0,0,1,.14-.19L27.82,8a.52.52,0,0,1,.33-.12h.51A.51.51,0,0,1,29,8l.13.13A.5.5,0,0,1,29.3,8.55Zm-1.46,0V8.8h1.1V8.55a.18.18,0,0,0-.06-.15l-.1-.1a.29.29,0,0,0-.15-.06h-.46A.24.24,0,0,0,28,8.3l-.1.08A.19.19,0,0,0,27.84,8.52Z" style="fill: #fff"/>
      <path d="M31,8.29l-.49.32V9.77a.18.18,0,0,1-.06.13.19.19,0,0,1-.13,0,.18.18,0,0,1-.12,0,.18.18,0,0,1-.06-.13V8.05a.18.18,0,0,1,.06-.13.17.17,0,0,1,.12,0,.19.19,0,0,1,.13,0,.18.18,0,0,1,.06.13v.12l.33-.2a.66.66,0,0,1,.37-.1h.17a.51.51,0,0,1,.37.15.54.54,0,0,1,.17.38l0,1.37a.18.18,0,0,1-.31.13.17.17,0,0,1-.05-.13l-.06-1.35c0-.13-.07-.19-.2-.19h-.17A.32.32,0,0,0,31,8.29Z" style="fill: #fff"/>
      <path d="M33.31,7.87h.83a.55.55,0,0,1,.35.12.3.3,0,0,1,.15.22.16.16,0,0,1-.06.13.21.21,0,0,1-.12.05.23.23,0,0,1-.16-.08.22.22,0,0,0-.15-.08h-.82c-.08,0-.12,0-.12.1a.12.12,0,0,0,.08.11l1,.43a.59.59,0,0,1,.24.21.56.56,0,0,1,.09.31.54.54,0,0,1-.16.4.52.52,0,0,1-.38.16h-.73A.63.63,0,0,1,33,9.84c-.11-.08-.17-.15-.17-.23a.16.16,0,0,1,.06-.12A.16.16,0,0,1,33,9.43a.22.22,0,0,1,.15.08.32.32,0,0,0,.23.08H34a.18.18,0,0,0,.14-.06.24.24,0,0,0,0-.14.18.18,0,0,0-.12-.18l-1-.44a.45.45,0,0,1-.29-.42A.48.48,0,0,1,33,8,.45.45,0,0,1,33.31,7.87Z" style="fill: #fff"/>
      <path d="M37.3,8.52v.77a.62.62,0,0,1-.23.45.71.71,0,0,1-.48.21h-.42a.67.67,0,0,1-.47-.21.59.59,0,0,1-.23-.45V8.52a.6.6,0,0,1,.22-.44.7.7,0,0,1,.48-.21h.42a.66.66,0,0,1,.48.2A.62.62,0,0,1,37.3,8.52Zm-1.46,0v.73a.19.19,0,0,0,.07.16l.13.11a.17.17,0,0,0,.13,0h.42a.27.27,0,0,0,.17-.06l.11-.1a.17.17,0,0,0,.06-.14V8.54a.21.21,0,0,0-.06-.16l-.13-.1a.25.25,0,0,0-.15,0h-.38a.29.29,0,0,0-.19.06l-.12.1A.2.2,0,0,0,35.84,8.54Z" style="fill: #fff"/>
      <path d="M38.14,9.77V8.05a.17.17,0,0,1,.18-.18.17.17,0,0,1,.13,0,.21.21,0,0,1,0,.13v.23L38.8,8a.53.53,0,0,1,.35-.16h.27A.49.49,0,0,1,39.8,8a.51.51,0,0,1,.16.38v.1a.19.19,0,0,1-.05.13.17.17,0,0,1-.26,0,.17.17,0,0,1,0-.12V8.41a.17.17,0,0,0-.05-.12.18.18,0,0,0-.13-.06h-.24a.32.32,0,0,0-.17.08l-.51.45v1a.18.18,0,1,1-.36,0Z" style="fill: #fff"/>
    </g>
    <g>
      <path d="M6.88,34.26v.6l-.67,1.7a.17.17,0,0,1-.16.13.16.16,0,0,1-.16-.13l-.67-1.7v-.6a.17.17,0,0,1,.17-.17.16.16,0,0,1,.11,0,.13.13,0,0,1,0,.12v.53l.5,1.28.5-1.27v-.54a.17.17,0,0,1,.17-.17.16.16,0,0,1,.11,0A.17.17,0,0,1,6.88,34.26Z" style="fill: #fff"/>
      <path d="M9,36.68H8a.15.15,0,0,1-.11,0,.15.15,0,0,1,0-.12.16.16,0,0,1,0-.12.15.15,0,0,1,.11,0H8.3V35.13H8a.17.17,0,0,1-.12-.05.16.16,0,0,1,0-.11.17.17,0,0,1,0-.12A.13.13,0,0,1,8,34.8h.5a.13.13,0,0,1,.11.05.17.17,0,0,1,.05.12v1.39H9a.19.19,0,0,1,.12,0,.17.17,0,0,1,0,.24A.17.17,0,0,1,9,36.68ZM8.29,34h.18a.15.15,0,0,1,.11,0,.18.18,0,0,1,.05.12v.14a.17.17,0,0,1-.05.12.16.16,0,0,1-.11.05H8.29a.17.17,0,0,1-.12-.05.14.14,0,0,1,0-.12v-.14a.18.18,0,0,1,0-.12A.15.15,0,0,1,8.29,34Z" style="fill: #fff"/>
      <path d="M10.83,35.18l-.45.29v1.05a.13.13,0,0,1-.05.12.16.16,0,0,1-.11,0,.18.18,0,0,1-.12,0,.17.17,0,0,1,0-.12V35a.17.17,0,0,1,0-.12.13.13,0,0,1,.12-.05.13.13,0,0,1,.11.05.13.13,0,0,1,.05.12v.11l.3-.19A.67.67,0,0,1,11,34.8h.16a.42.42,0,0,1,.33.14.43.43,0,0,1,.15.34l.05,1.24a.13.13,0,0,1-.05.12.16.16,0,0,1-.11,0,.17.17,0,0,1-.17-.17l-.05-1.22c0-.12-.06-.17-.18-.17H11A.27.27,0,0,0,10.83,35.18Z" style="fill: #fff"/>
    </g>
    <g>
      <path d="M21.65,33.54v.65a.53.53,0,0,1-.14.37.54.54,0,0,1,.14.35v.68a.33.33,0,0,1-.1.24.34.34,0,0,1-.25.11H20.07a.14.14,0,0,1-.12-.06.17.17,0,0,1,0-.24.17.17,0,0,1,.12,0h1.22v-.68a.13.13,0,0,0-.05-.12.14.14,0,0,0-.12-.06h-.7a.13.13,0,0,1-.12,0,.17.17,0,0,1,0-.24.13.13,0,0,1,.12,0h.71a.17.17,0,0,0,.12-.06.17.17,0,0,0,.05-.12v-.67H20.06a.17.17,0,0,1-.12,0,.13.13,0,0,1-.05-.12.17.17,0,0,1,.17-.18H21.3a.33.33,0,0,1,.24.1A.36.36,0,0,1,21.65,33.54Z" style="fill: #fff"/>
      <path d="M24.2,34.12v.33l-.6,1.37q-.06.12-.15.12h-.22a.19.19,0,0,1-.18-.13l-.6-1.36v-.33A.17.17,0,0,1,22.5,34a.15.15,0,0,1,.12,0,.17.17,0,0,1,.18.17v.26l.53,1.2.52-1.2v-.26a.14.14,0,0,1,.06-.12.17.17,0,0,1,.29.12Z" style="fill: #fff"/>
      <path d="M26.76,34.57v.73a.59.59,0,0,1-.22.44.7.7,0,0,1-.45.2h-.41a.67.67,0,0,1-.46-.21A.57.57,0,0,1,25,35.3v-.73a.61.61,0,0,1,.21-.43.66.66,0,0,1,.46-.2h.41a.65.65,0,0,1,.45.2A.55.55,0,0,1,26.76,34.57Zm-1.4,0v.7a.18.18,0,0,0,.07.15l.13.11a.16.16,0,0,0,.12,0h.4a.21.21,0,0,0,.16-.07l.11-.09a.17.17,0,0,0,.06-.14v-.7a.18.18,0,0,0-.06-.15l-.12-.1a.27.27,0,0,0-.15-.05h-.36a.3.3,0,0,0-.18.05l-.12.11A.17.17,0,0,0,25.36,34.59Z" style="fill: #fff"/>
    </g>
    <g>
      <path d="M26.76,42.82h1.41a.17.17,0,0,1,.17.17.17.17,0,0,1-.17.18h-.53v2h.53a.17.17,0,0,1,0,.34H26.76a.16.16,0,0,1-.12-.05.17.17,0,0,1,0-.24.16.16,0,0,1,.12-.05h.54v-2h-.54a.17.17,0,0,1-.17-.17.19.19,0,0,1,.05-.13A.16.16,0,0,1,26.76,42.82Z" style="fill: #fff"/>
      <path d="M30,44l-.47.31v1.11a.17.17,0,0,1-.05.12.16.16,0,0,1-.12.05.17.17,0,0,1-.18-.17V43.74a.18.18,0,0,1,.05-.12.17.17,0,0,1,.13,0,.16.16,0,0,1,.12,0,.18.18,0,0,1,.05.12v.12l.32-.19a.61.61,0,0,1,.36-.1h.16a.54.54,0,0,1,.36.14.49.49,0,0,1,.15.36l0,1.32a.17.17,0,0,1-.17.17.16.16,0,0,1-.12,0,.2.2,0,0,1-.06-.13l-.05-1.3c0-.12-.06-.18-.19-.18h-.17A.32.32,0,0,0,30,44Z" style="fill: #fff"/>
      <path d="M32.93,45.56h-.35a.51.51,0,0,1-.37-.15.51.51,0,0,1-.16-.37V43.92h-.17a.17.17,0,0,1-.18-.18.18.18,0,0,1,.05-.12.21.21,0,0,1,.13,0h.18v-.43a.21.21,0,0,1,0-.12.17.17,0,0,1,.24,0,.17.17,0,0,1,.06.12v.43h.69a.21.21,0,0,1,.13,0,.21.21,0,0,1,.05.12.17.17,0,0,1-.18.18h-.7V45a.17.17,0,0,0,.18.18h.34a.18.18,0,0,0,.18-.15.18.18,0,0,1,.18-.15.13.13,0,0,1,.12,0,.14.14,0,0,1,.05.13.47.47,0,0,1-.15.31A.48.48,0,0,1,32.93,45.56Z" style="fill: #fff"/>
    </g>
    <g>
      <path d="M13.1,42.82h.58a.13.13,0,0,1,.12,0,.17.17,0,0,1,0,.12.21.21,0,0,1,0,.13.21.21,0,0,1-.12.05h-.55a.15.15,0,0,0-.14.08l-.49.62a.33.33,0,0,0-.06.21v1a.17.17,0,0,0,.17.18h.71a.17.17,0,0,0,.12,0,.21.21,0,0,0,.05-.13v-.37h-.36a.17.17,0,0,1-.12-.05.21.21,0,0,1,0-.13.18.18,0,0,1,0-.12.17.17,0,0,1,.12,0h.71V45a.5.5,0,0,1-.15.37.53.53,0,0,1-.37.15h-.71a.51.51,0,0,1-.37-.15.5.5,0,0,1-.15-.37v-1a.62.62,0,0,1,.14-.43l.51-.65a.47.47,0,0,1,.15-.13A.41.41,0,0,1,13.1,42.82Z" style="fill: #fff"/>
      <path d="M16.4,43v2.56h-.47L15,43.43v2a.17.17,0,0,1-.05.12.16.16,0,0,1-.12.05.17.17,0,0,1-.18-.17V42.82h.46L16.05,45V43a.17.17,0,0,1,.18-.18.15.15,0,0,1,.12,0A.19.19,0,0,1,16.4,43Z" style="fill: #fff"/>
      <path d="M17.38,42.82h.68a.56.56,0,0,1,.27.08.6.6,0,0,1,.18.21l.34.69a.82.82,0,0,1,.1.4.87.87,0,0,1-.1.39l-.35.68a.5.5,0,0,1-.19.22.5.5,0,0,1-.27.07h-.67a.15.15,0,0,1-.12-.05.17.17,0,0,1,0-.24.16.16,0,0,1,.12-.06h.18v-2h-.17A.17.17,0,0,1,17.2,43a.17.17,0,0,1,.18-.17Zm.52.35v2H18a.19.19,0,0,0,.18-.12l.34-.68a.56.56,0,0,0,.06-.22.42.42,0,0,0-.05-.22l-.35-.71a.19.19,0,0,0-.18-.1Z" style="fill: #fff"/>
    </g>
    <g>
      <path d="M41.11,42.82H42a.42.42,0,0,1,.31.14.43.43,0,0,1,.15.33.16.16,0,0,1-.06.13.13.13,0,0,1-.11,0c-.06,0-.1,0-.12,0s0-.07-.07-.15a.13.13,0,0,0-.13-.11h-.86s-.06,0-.06,0a.07.07,0,0,0,0,.06l1.29,1.65a.36.36,0,0,1,.1.25.38.38,0,0,1-.12.28.31.31,0,0,1-.25.11h-.93a.46.46,0,0,1-.46-.45c0-.13.06-.19.18-.19A.16.16,0,0,1,41,45a.17.17,0,0,1,0,.12.11.11,0,0,0,0,.09.1.1,0,0,0,.09,0h.87a0,0,0,0,0,0,0,.17.17,0,0,0,0-.05l-1.29-1.65a.4.4,0,0,1-.09-.25.37.37,0,0,1,.11-.28A.38.38,0,0,1,41.11,42.82Z" style="fill: #fff"/>
      <path d="M44.23,45.22h.63a.15.15,0,0,1,.12.05.17.17,0,0,1,0,.24.15.15,0,0,1-.12.05h-.65a.51.51,0,0,1-.26-.07.44.44,0,0,1-.18-.18l-.4-.77a.76.76,0,0,1-.09-.35.67.67,0,0,1,.08-.33l.41-.77A.46.46,0,0,1,44,42.9a.38.38,0,0,1,.23-.08h.69a.13.13,0,0,1,.12,0A.17.17,0,0,1,45,43a.21.21,0,0,1,0,.13.17.17,0,0,1-.12.05h-.66c-.06,0-.1,0-.14.1l-.38.72a.39.39,0,0,0,0,.2.46.46,0,0,0,0,.21l.37.71A.18.18,0,0,0,44.23,45.22Z" style="fill: #fff"/>
      <path d="M45.83,45.56V43a.17.17,0,0,1,.18-.17.16.16,0,0,1,.12,0,.17.17,0,0,1,0,.12v2.23h1.23a.13.13,0,0,1,.12.05.15.15,0,0,1,0,.24.13.13,0,0,1-.12.05Z" style="fill: #fff"/>
    </g>
    <g>
      <path d="M34.69,33.19h.91a.5.5,0,0,1,.46.48.21.21,0,0,1-.05.13.21.21,0,0,1-.12.05.17.17,0,0,1-.12,0,.57.57,0,0,1-.06-.15.13.13,0,0,0-.14-.11h-.86s-.06,0-.06,0a.09.09,0,0,0,0,.06L36,35.29a.43.43,0,0,1,.09.26.4.4,0,0,1-.11.27.35.35,0,0,1-.25.12h-.94a.45.45,0,0,1-.32-.14.42.42,0,0,1-.14-.31c0-.13.06-.2.18-.2a.17.17,0,0,1,.12.05.21.21,0,0,1,0,.12.1.1,0,0,0,0,.09.11.11,0,0,0,.09,0h.87s.05,0,.05,0,0,0,0-.06l-1.29-1.64a.43.43,0,0,1-.09-.26.41.41,0,0,1,.11-.28A.39.39,0,0,1,34.69,33.19Z" style="fill: #fff"/>
      <path d="M37,33.19h.69a.48.48,0,0,1,.26.09.57.57,0,0,1,.18.2l.35.7a.86.86,0,0,1,.09.39.81.81,0,0,1-.1.39l-.34.69a.55.55,0,0,1-.19.21.57.57,0,0,1-.28.08H37a.21.21,0,0,1-.13,0,.21.21,0,0,1,0-.12.17.17,0,0,1,.18-.18h.18V33.54H37a.17.17,0,0,1-.17-.17.17.17,0,0,1,.17-.18Zm.52.35v2.05h.13a.2.2,0,0,0,.17-.11l.34-.68a.65.65,0,0,0,.07-.23.39.39,0,0,0-.06-.21l-.35-.71a.2.2,0,0,0-.18-.11Z" style="fill: #fff"/>
      <path d="M39.43,35.7l.7-2.38a.16.16,0,0,1,.17-.13.15.15,0,0,1,.16.11l.7,2.41v.06a.15.15,0,0,1,0,.12.16.16,0,0,1-.11,0,.16.16,0,0,1-.17-.13l-.14-.47H39.9l-.16.51s0,0-.05.06a.17.17,0,0,1-.1,0,.17.17,0,0,1-.17-.18A.13.13,0,0,1,39.43,35.7ZM40.3,34,40,35h.59Z" style="fill: #fff"/>
    </g>
  </g>
  <g id="Connectors">
    <ellipse cx="44.51" cy="39.75" data-cir-type="male" id="circuitoCon_SCL" rx="2.05" ry="1.99" style="fill: none;stroke: #e5e3dd;stroke-miterlimit: 10;stroke-width: 1.224px"/>
    <ellipse cx="37.32" cy="39.75" data-cir-type="male" id="circuitoCon_SDA" rx="2.05" ry="1.99" style="fill: none;stroke: #e5e3dd;stroke-miterlimit: 10;stroke-width: 1.224px"/>
    <ellipse cx="30.13" cy="39.75" data-cir-type="male" id="circuitoCon_INT" rx="2.05" ry="1.99" style="fill: none;stroke: #e5e3dd;stroke-miterlimit: 10;stroke-width: 1.224px"/>
    <ellipse cx="15.74" cy="39.75" data-cir-type="male" id="circuitoCon_GND" rx="2.05" ry="1.99" style="fill: none;stroke: #e5e3dd;stroke-miterlimit: 10;stroke-width: 1.224px"/>
    <ellipse cx="8.49" cy="39.75" data-cir-type="male" id="circuitoCon_VIN" rx="2.05" ry="1.99" style="fill: none;stroke: #e5e3dd;stroke-miterlimit: 10;stroke-width: 1.224px"/>
    <ellipse cx="22.93" cy="39.75" data-cir-type="male" id="circuitoCon_3Vo" rx="2.05" ry="1.99" style="fill: none;stroke: #e5e3dd;stroke-miterlimit: 10;stroke-width: 1.224px"/>
  </g>
</svg>