<?xml version="1.0" ?><svg height="20.08mm" viewBox="0 0 57.83 56.92" width="20.4mm" xmlns="http://www.w3.org/2000/svg">
  <title>RGB Color Sensor with IR filter and White LED - TCS34725</title>
  <g id="HOLES">
    <path d="M51.88,0H6A6,6,0,0,0,0,6V51a6,6,0,0,0,6,6H51.88a6,6,0,0,0,5.95-6V6A6,6,0,0,0,51.88,0ZM13.22,16.27a1.2,1.2,0,1,1-1.2,1.2A1.19,1.19,0,0,1,13.22,16.27ZM7.28,54.83a2,2,0,1,1,2-2A2,2,0,0,1,7.28,54.83Zm-.22-44.5a3.76,3.76,0,1,1,3.77-3.76A3.76,3.76,0,0,1,7.06,10.33ZM11.12,45.1a1.2,1.2,0,1,1,1.2,1.2A1.19,1.19,0,0,1,11.12,45.1Zm3.29,9.73a2,2,0,1,1,2-2A2,2,0,0,1,14.41,54.83Zm2-19.23a1.2,1.2,0,1,1,1.19-1.19A1.19,1.19,0,0,1,16.4,35.6Zm5.36,19.23a2,2,0,1,1,2-2A2,2,0,0,1,21.76,54.83Zm3.61-32.37a1.2,1.2,0,1,1,1.19,1.2A1.19,1.19,0,0,1,25.37,22.46ZM29,54.83a2,2,0,1,1,2-2A2,2,0,0,1,29,54.83Zm3.31-31A1.2,1.2,0,1,1,33.52,25,1.19,1.19,0,0,1,32.33,23.85Zm3.94,31a2,2,0,1,1,2-2A2,2,0,0,1,36.27,54.83Zm3.32-36.06a1.2,1.2,0,0,1,2.39,0,1.2,1.2,0,1,1-2.39,0Zm3.79,36.06a2,2,0,1,1,2-2A2,2,0,0,1,43.38,54.83Zm2.87-33.59a1.31,1.31,0,1,1,1.3-1.3A1.31,1.31,0,0,1,46.25,21.24Zm4.31,33.59a2,2,0,1,1,2-2A2,2,0,0,1,50.56,54.83Zm2.09-32.92a1.2,1.2,0,1,1,1.2-1.2A1.19,1.19,0,0,1,52.65,21.91ZM51.16,10.33a3.76,3.76,0,1,1,3.76-3.76A3.76,3.76,0,0,1,51.16,10.33Z" style="fill: #1a2c97"/>
  </g>
  <g data-name="Layer 5" id="Layer_5">
    <line style="fill: none;stroke: #0b5597;stroke-linecap: round;stroke-linejoin: round;stroke-width: 0.75px" x1="6.22" x2="11.35" y1="22.46" y2="22.46"/>
    <polyline points="10.09 19.94 10.09 14.65 11.46 13.28 19.59 13.28 23.18 16.87" style="fill: none;stroke: #0b5597;stroke-linecap: round;stroke-linejoin: round;stroke-width: 0.75px"/>
    <line style="fill: none;stroke: #0b5597;stroke-linecap: round;stroke-linejoin: round;stroke-width: 0.75px" x1="24.63" x2="31.28" y1="17.67" y2="17.67"/>
    <polyline points="30.82 15.81 30.82 11.29 39.49 11.29 46.25 17.93 46.25 18.63" style="fill: none;stroke: #0b5597;stroke-linecap: round;stroke-linejoin: round;stroke-width: 0.75px"/>
    <line style="fill: none;stroke: #0b5597;stroke-linecap: round;stroke-linejoin: round;stroke-width: 0.75px" x1="46.59" x2="46.59" y1="21.27" y2="23.78"/>
    <line style="fill: none;stroke: #0b5597;stroke-linecap: round;stroke-linejoin: round;stroke-width: 0.75px" x1="14.52" x2="17.31" y1="17.67" y2="17.67"/>
    <circle cx="13.22" cy="17.47" r="1.3" style="fill: none;stroke: #0b5597;stroke-linecap: round;stroke-linejoin: round;stroke-width: 0.75px"/>
    <circle cx="26.56" cy="22.46" r="1.3" style="fill: none;stroke: #0b5597;stroke-linecap: round;stroke-linejoin: round;stroke-width: 0.75px"/>
    <circle cx="16.39" cy="34.41" r="1.3" style="fill: none;stroke: #0b5597;stroke-linecap: round;stroke-linejoin: round;stroke-width: 0.75px"/>
    <circle cx="12.32" cy="45.1" r="1.3" style="fill: none;stroke: #0b5597;stroke-linecap: round;stroke-linejoin: round;stroke-width: 0.75px"/>
    <circle cx="33.52" cy="23.85" r="1.3" style="fill: none;stroke: #0b5597;stroke-linecap: round;stroke-linejoin: round;stroke-width: 0.75px"/>
    <circle cx="40.78" cy="18.77" r="1.3" style="fill: none;stroke: #0b5597;stroke-linecap: round;stroke-linejoin: round;stroke-width: 0.75px"/>
    <circle cx="52.65" cy="20.71" r="1.3" style="fill: none;stroke: #0b5597;stroke-linecap: round;stroke-linejoin: round;stroke-width: 0.75px"/>
    <circle cx="46.25" cy="19.97" r="1.3" style="fill: none;stroke: #0b5597;stroke-linecap: round;stroke-linejoin: round;stroke-width: 0.75px"/>
    <polyline points="25.14 23 24.33 23.85 24.33 28.06 24.81 28.38 26.29 28.38" style="fill: none;stroke: #0b5597;stroke-linecap: round;stroke-linejoin: round;stroke-width: 0.75px"/>
    <polyline points="12.96 28.76 15.54 28.76 17.86 26.3" style="fill: none;stroke: #0b5597;stroke-linecap: round;stroke-linejoin: round;stroke-width: 0.75px"/>
    <polyline points="5.77 36.74 5.77 33.33 7.43 31.67 18.41 31.67" style="fill: none;stroke: #0b5597;stroke-linecap: round;stroke-linejoin: round;stroke-width: 0.75px"/>
    <polyline points="4.87 28.57 4.87 30.46 2.44 32.89 2.44 39.71 2.98 40.24 7.58 40.24" style="fill: none;stroke: #0b5597;stroke-linecap: round;stroke-linejoin: round;stroke-width: 0.75px"/>
    <polyline points="9.33 40.24 9.33 46.04 7.08 48.29 7.08 50.63" style="fill: none;stroke: #0b5597;stroke-linecap: round;stroke-linejoin: round;stroke-width: 0.75px"/>
    <polyline points="13.26 34.62 13.26 36.46 14.96 38.16 14.96 42.5 13.56 43.9" style="fill: none;stroke: #0b5597;stroke-linecap: round;stroke-linejoin: round;stroke-width: 0.75px"/>
    <polyline points="18.36 37.5 19.74 35.28 22.86 35.28 26.51 31.63" style="fill: none;stroke: #0b5597;stroke-linecap: round;stroke-linejoin: round;stroke-width: 0.75px"/>
    <polyline points="23.64 37.5 27.42 33.33 31.89 33.33 31.89 32.13" style="fill: none;stroke: #0b5597;stroke-linecap: round;stroke-linejoin: round;stroke-width: 0.75px"/>
    <polyline points="27.87 36.6 26.29 38.01 26.29 43.31 24.81 44.42 20.67 44.42 20.67 50.42" style="fill: none;stroke: #0b5597;stroke-linecap: round;stroke-linejoin: round;stroke-width: 0.75px"/>
    <line style="fill: none;stroke: #0b5597;stroke-linecap: round;stroke-linejoin: round;stroke-width: 0.75px" x1="30.29" x2="36.48" y1="50.86" y2="44.67"/>
    <polyline points="40.51 44.15 43.5 47.42 45.64 47.42 49.01 50.79" style="fill: none;stroke: #0b5597;stroke-linecap: round;stroke-linejoin: round;stroke-width: 0.75px"/>
    <polyline points="53.24 43.67 53.24 49.55 51.94 50.85" style="fill: none;stroke: #0b5597;stroke-linecap: round;stroke-linejoin: round;stroke-width: 0.75px"/>
    <polyline points="40.08 38.28 49.17 38.28 50.29 36.35" style="fill: none;stroke: #0b5597;stroke-linecap: round;stroke-linejoin: round;stroke-width: 0.75px"/>
    <line style="fill: none;stroke: #0b5597;stroke-linecap: round;stroke-linejoin: round;stroke-width: 0.75px" x1="48.91" x2="46.59" y1="38.47" y2="41.65"/>
    <polyline points="53.85 30.51 55.83 30.51 55.83 36.04 53.24 36.04 53.24 40.06" style="fill: none;stroke: #0b5597;stroke-linecap: round;stroke-linejoin: round;stroke-width: 0.75px"/>
    <polyline points="34.6 35.87 36.27 34.02 43.5 34.02 44.76 35.28" style="fill: none;stroke: #0b5597;stroke-linecap: round;stroke-linejoin: round;stroke-width: 0.75px"/>
    <polyline points="33.02 28.57 36.08 28.57 38.97 31.45" style="fill: none;stroke: #0b5597;stroke-linecap: round;stroke-linejoin: round;stroke-width: 0.75px"/>
    <line style="fill: none;stroke: #0b5597;stroke-linecap: round;stroke-linejoin: round;stroke-width: 0.75px" x1="36.08" x2="36.08" y1="28.57" y2="20.71"/>
    <polyline points="33.52 14.29 36.94 14.29 40.03 17.38" style="fill: none;stroke: #0b5597;stroke-linecap: round;stroke-linejoin: round;stroke-width: 0.75px"/>
    <circle cx="35" cy="30.13" r="0.92" style="fill: #fff"/>
  </g>
  <g id="TEXT">
    <g>
      <path d="M15.81,3.35V2.74H18.1v.61a.22.22,0,0,1-.07.17.23.23,0,0,1-.16.06.21.21,0,0,1-.16-.07.19.19,0,0,1-.07-.16V3.19h-.46V6.1a.22.22,0,0,1-.23.22.23.23,0,0,1-.16-.06.21.21,0,0,1-.07-.16V3.19h-.46v.16a.23.23,0,0,1-.06.16.26.26,0,0,1-.16.07.26.26,0,0,1-.17-.07A.23.23,0,0,1,15.81,3.35Z" style="fill: #fff"/>
      <path d="M20.4,5.87h.82a.23.23,0,0,1,.16.06.22.22,0,0,1,.07.17.22.22,0,0,1-.23.22h-.85a.6.6,0,0,1-.33-.1A.59.59,0,0,1,19.8,6l-.53-1a1,1,0,0,1-.1-.45.87.87,0,0,1,.1-.44l.53-1A.75.75,0,0,1,20,2.84a.58.58,0,0,1,.31-.11h.9a.21.21,0,0,1,.16.07.24.24,0,0,1,0,.32.21.21,0,0,1-.16.07h-.87a.19.19,0,0,0-.17.13l-.51.94a.53.53,0,0,0-.06.26.61.61,0,0,0,.07.28l.48.93A.24.24,0,0,0,20.4,5.87Z" style="fill: #fff"/>
      <path d="M23,2.73h1.18a.59.59,0,0,1,.41.18.59.59,0,0,1,.2.44.26.26,0,0,1-.07.17.26.26,0,0,1-.15.07.18.18,0,0,1-.16-.06.56.56,0,0,1-.09-.19.16.16,0,0,0-.17-.14H23c-.06,0-.09,0-.09,0a.09.09,0,0,0,0,.07l1.68,2.16a.48.48,0,0,1,.13.33.49.49,0,0,1-.15.36.46.46,0,0,1-.33.15H23.1a.58.58,0,0,1-.43-.18.59.59,0,0,1-.18-.41c0-.17.08-.25.24-.25a.23.23,0,0,1,.16.06A.25.25,0,0,1,23,5.7a.17.17,0,0,0,.05.12.21.21,0,0,0,.13,0h1.13s.07,0,.07-.06a.13.13,0,0,0,0-.07L22.61,3.59a.56.56,0,0,1-.12-.34.46.46,0,0,1,.16-.36A.46.46,0,0,1,23,2.73Z" style="fill: #fff"/>
      <path d="M28.13,3.18V4a.68.68,0,0,1-.18.48.69.69,0,0,1,.18.46v.88a.42.42,0,0,1-.13.32.45.45,0,0,1-.33.14h-1.6a.23.23,0,0,1-.16-.39.2.2,0,0,1,.16-.07h1.6V5a.24.24,0,0,0-.23-.24h-.91a.23.23,0,0,1-.16-.06.2.2,0,0,1-.07-.16.19.19,0,0,1,.07-.16.2.2,0,0,1,.16-.07h.92a.22.22,0,0,0,.22-.23V3.18H26.05A.21.21,0,0,1,25.83,3a.22.22,0,0,1,.22-.23h1.62a.49.49,0,0,1,.33.13A.48.48,0,0,1,28.13,3.18Z" style="fill: #fff"/>
      <path d="M30.67,6.09v-1H29.3V3a.26.26,0,0,1,.07-.17.25.25,0,0,1,.17-.06.2.2,0,0,1,.15.06.22.22,0,0,1,.07.17V4.68h.91V3.35a.21.21,0,0,1,.07-.16.22.22,0,0,1,.16-.07.26.26,0,0,1,.16.07.25.25,0,0,1,.06.16V4.68a.26.26,0,0,1,.17.07.25.25,0,0,1,.06.16.23.23,0,0,1-.06.16.22.22,0,0,1-.17.07v1a.23.23,0,0,1-.06.16.21.21,0,0,1-.16.07.19.19,0,0,1-.16-.07A.2.2,0,0,1,30.67,6.09Z" style="fill: #fff"/>
      <path d="M32.52,3.16V3a.25.25,0,0,1,.06-.16.25.25,0,0,1,.17-.06h2V4.13a.21.21,0,0,1-.08.18L33.89,5v1a.26.26,0,0,1-.07.17.22.22,0,0,1-.32,0,.21.21,0,0,1-.07-.16V4.94a.24.24,0,0,1,.08-.2L34.35,4V3.19H33a.21.21,0,0,1-.22.19.25.25,0,0,1-.17-.06A.25.25,0,0,1,32.52,3.16Z" style="fill: #fff"/>
      <path d="M37.93,6.32H35.87V4.75A.46.46,0,0,1,36,4.42a.48.48,0,0,1,.32-.13H37.7V3.18H36.08A.22.22,0,0,1,35.85,3a.19.19,0,0,1,.07-.16.19.19,0,0,1,.16-.07H37.7a.46.46,0,0,1,.32.13.45.45,0,0,1,.14.32V4.29a.45.45,0,0,1-.14.33.46.46,0,0,1-.32.13H36.32V5.86h1.61a.23.23,0,0,1,.16.39A.2.2,0,0,1,37.93,6.32Z" style="fill: #fff"/>
      <path d="M40.05,5.86H41.1V4.75H39.72v-2h1.6a.24.24,0,0,1,.23.23.22.22,0,0,1-.23.22H40.18V4.3h.92a.44.44,0,0,1,.45.45V5.86a.42.42,0,0,1-.13.32.45.45,0,0,1-.32.14H40.05a.82.82,0,0,1-.3-.07l-.35-.14a.22.22,0,0,1-.14-.22.24.24,0,0,1,.07-.16.21.21,0,0,1,.15-.07.48.48,0,0,1,.15,0l.3.13Z" style="fill: #fff"/>
    </g>
    <g>
      <path d="M12.88,11.41V8h1.61a.7.7,0,0,1,.68.69V9a.7.7,0,0,1-.68.69H14.2l.92,1.59a.27.27,0,0,1,.05.14.26.26,0,0,1-.07.16.25.25,0,0,1-.16.06.22.22,0,0,1-.21-.12L13.67,9.68h-.33v1.73a.21.21,0,0,1-.07.16.24.24,0,0,1-.32,0A.21.21,0,0,1,12.88,11.41Zm.46-2.19h1.15a.25.25,0,0,0,.16-.06A.25.25,0,0,0,14.71,9V8.73a.23.23,0,0,0-.06-.16.21.21,0,0,0-.16-.07H13.34Z" style="fill: #fff"/>
      <path d="M17.54,8h.75a.24.24,0,0,1,.23.23.26.26,0,0,1-.07.17.25.25,0,0,1-.16.06h-.72a.21.21,0,0,0-.18.1l-.64.82a.4.4,0,0,0-.08.27V11a.23.23,0,0,0,.06.16.22.22,0,0,0,.17.07h.92a.21.21,0,0,0,.16-.07.22.22,0,0,0,.07-.16v-.49h-.47a.25.25,0,0,1-.17-.06.25.25,0,0,1-.06-.16.21.21,0,0,1,.23-.23h.92V11a.66.66,0,0,1-.2.48.62.62,0,0,1-.48.2H16.9a.64.64,0,0,1-.49-.2.66.66,0,0,1-.2-.48V9.7a.88.88,0,0,1,.18-.57l.67-.85a.67.67,0,0,1,.2-.17A.68.68,0,0,1,17.54,8Z" style="fill: #fff"/>
      <path d="M21.85,10.52v.2a.89.89,0,0,1-.27.65.84.84,0,0,1-.64.26H19.55V8h1.39a.85.85,0,0,1,.64.27.88.88,0,0,1,.27.65v.19a.89.89,0,0,1-.31.69A.89.89,0,0,1,21.85,10.52Zm-.47-1.38V9a.44.44,0,0,0-.13-.33.44.44,0,0,0-.32-.13H20V9.6h.92a.45.45,0,0,0,.32-.14A.42.42,0,0,0,21.38,9.14Zm0,1.58v-.19a.44.44,0,0,0-.13-.32.45.45,0,0,0-.32-.14H20v1.11h.92a.45.45,0,0,0,.32-.14A.42.42,0,0,0,21.38,10.72Z" style="fill: #fff"/>
      <path d="M26.76,8h1.18a.56.56,0,0,1,.41.19.57.57,0,0,1,.2.44.24.24,0,0,1-.07.16.21.21,0,0,1-.16.07.19.19,0,0,1-.15-.05.63.63,0,0,1-.09-.2.16.16,0,0,0-.17-.14H26.78c-.05,0-.08,0-.08.05a.12.12,0,0,0,0,.08l1.68,2.15a.5.5,0,0,1,0,.69.46.46,0,0,1-.33.15H26.85a.58.58,0,0,1-.43-.18.57.57,0,0,1-.18-.41c0-.17.08-.25.24-.25a.21.21,0,0,1,.16.07.2.2,0,0,1,.06.15.17.17,0,0,0,.05.12.21.21,0,0,0,.13,0H28s.07,0,.07-.06a.13.13,0,0,0,0-.07L26.36,8.9a.52.52,0,0,1-.12-.34A.55.55,0,0,1,26.76,8Z" style="fill: #fff"/>
      <path d="M31.88,9.88v.55a.21.21,0,0,1-.07.16.24.24,0,0,1-.16.07h-1.6v.13a.25.25,0,0,0,.1.2l.13.11a.37.37,0,0,0,.2.08h1.17a.2.2,0,0,1,.16.07.19.19,0,0,1,.07.16.21.21,0,0,1-.07.16.25.25,0,0,1-.16.06h-1.2a.81.81,0,0,1-.25,0,.79.79,0,0,1-.19-.11l-.2-.18a.58.58,0,0,1-.16-.21.61.61,0,0,1-.06-.25v-1a.56.56,0,0,1,.07-.24.51.51,0,0,1,.17-.23L30,9.18A.63.63,0,0,1,30.43,9h.64a.62.62,0,0,1,.45.2l.17.16A.6.6,0,0,1,31.88,9.88Zm-1.83,0v.35h1.38V9.88a.24.24,0,0,0-.08-.19l-.13-.12A.28.28,0,0,0,31,9.49h-.58a.28.28,0,0,0-.19.07l-.13.11A.21.21,0,0,0,30.05,9.85Z" style="fill: #fff"/>
      <path d="M34,9.55l-.62.41v1.45a.21.21,0,0,1-.07.16.23.23,0,0,1-.16.06.21.21,0,0,1-.22-.22V9.25A.25.25,0,0,1,33,9.09.21.21,0,0,1,33.16,9a.2.2,0,0,1,.16.07.21.21,0,0,1,.07.16v.16l.41-.26A1,1,0,0,1,34.27,9h.22a.66.66,0,0,1,.46.19.63.63,0,0,1,.21.48l.06,1.72a.17.17,0,0,1-.06.16.24.24,0,0,1-.32,0,.22.22,0,0,1-.07-.16l-.07-1.7c0-.16-.09-.23-.25-.23h-.22A.4.4,0,0,0,34,9.55Z" style="fill: #fff"/>
      <path d="M36.91,9h1a.64.64,0,0,1,.43.14c.13.1.19.19.19.28a.19.19,0,0,1-.07.16.23.23,0,0,1-.15.07.3.3,0,0,1-.2-.1.24.24,0,0,0-.19-.1h-1c-.1,0-.15,0-.15.13a.13.13,0,0,0,.1.13l1.2.54a.65.65,0,0,1,.31.26.77.77,0,0,1,.11.4.68.68,0,0,1-.2.49.64.64,0,0,1-.47.2h-.92a.7.7,0,0,1-.44-.14c-.14-.09-.21-.19-.21-.28a.18.18,0,0,1,.07-.15.21.21,0,0,1,.17-.07.3.3,0,0,1,.19.09.36.36,0,0,0,.28.1h.85A.18.18,0,0,0,38,11.1a.23.23,0,0,0,.07-.17.22.22,0,0,0-.15-.22l-1.22-.55a.62.62,0,0,1-.27-.23.58.58,0,0,1-.09-.3.6.6,0,0,1,.58-.6Z" style="fill: #fff"/>
      <path d="M41.91,9.85v1a.76.76,0,0,1-.29.56.89.89,0,0,1-.59.26H40.5a.9.9,0,0,1-.6-.26.78.78,0,0,1-.28-.56v-1a.8.8,0,0,1,.27-.57A.9.9,0,0,1,40.5,9H41a.85.85,0,0,1,.59.26A.76.76,0,0,1,41.91,9.85Zm-1.83,0v.92a.24.24,0,0,0,.09.2l.17.15a.23.23,0,0,0,.16,0H41a.29.29,0,0,0,.21-.09l.14-.12a.19.19,0,0,0,.08-.18V9.87a.22.22,0,0,0-.08-.2l-.16-.13A.31.31,0,0,0,41,9.48h-.47a.36.36,0,0,0-.24.07l-.15.13A.22.22,0,0,0,40.08,9.86Z" style="fill: #fff"/>
      <path d="M43,11.41V9.25A.26.26,0,0,1,43,9.09.21.21,0,0,1,43.19,9a.24.24,0,0,1,.23.23v.29l.37-.32A.68.68,0,0,1,44.24,9h.33a.62.62,0,0,1,.48.2.66.66,0,0,1,.2.48v.12a.2.2,0,0,1-.07.16.19.19,0,0,1-.16.07.21.21,0,0,1-.22-.22V9.71a.19.19,0,0,0-.07-.16.2.2,0,0,0-.16-.07h-.29a.33.33,0,0,0-.22.1l-.64.56v1.27a.21.21,0,0,1-.07.16.23.23,0,0,1-.16.06.25.25,0,0,1-.16-.06A.26.26,0,0,1,43,11.41Z" style="fill: #fff"/>
    </g>
    <g>
      <path d="M4.46,49.55V47.4a.14.14,0,0,1,.24-.1.14.14,0,0,1,0,.1v1.86h1a.15.15,0,0,1,.11,0,.18.18,0,0,1,0,.1.14.14,0,0,1-.15.15Z" style="fill: #fff"/>
      <path d="M7.9,47.55h-1v.71h.44a.13.13,0,0,1,.1,0,.14.14,0,0,1,0,.1.16.16,0,0,1,0,.11.15.15,0,0,1-.1,0H6.88v.71h1a.14.14,0,0,1,.14.14.15.15,0,0,1,0,.11.21.21,0,0,1-.11,0H6.59V47.26H7.9a.15.15,0,0,1,.11,0,.13.13,0,0,1,0,.1.14.14,0,0,1-.15.15Z" style="fill: #fff"/>
      <path d="M8.87,47.26h.57a.43.43,0,0,1,.37.24l.29.58a.73.73,0,0,1,.08.33.68.68,0,0,1-.09.32l-.28.58a.44.44,0,0,1-.16.17.39.39,0,0,1-.23.07H8.86a.18.18,0,0,1-.1,0,.15.15,0,0,1,0-.11.14.14,0,0,1,.14-.14H9V47.55H8.87a.18.18,0,0,1-.11,0,.15.15,0,0,1,0-.11.13.13,0,0,1,0-.1A.14.14,0,0,1,8.87,47.26Zm.43.29v1.71h.1a.15.15,0,0,0,.15-.1l.29-.57a.49.49,0,0,0,.05-.18.34.34,0,0,0,0-.18l-.3-.59a.16.16,0,0,0-.15-.09Z" style="fill: #fff"/>
    </g>
    <g>
      <path d="M11.85,47.26H13a.13.13,0,0,1,.1,0,.14.14,0,0,1,.05.1.16.16,0,0,1-.05.11.18.18,0,0,1-.1,0h-.44v1.71H13a.12.12,0,0,1,.1,0,.14.14,0,0,1,.05.1.16.16,0,0,1-.05.11.18.18,0,0,1-.1,0H11.85a.15.15,0,0,1-.1,0,.16.16,0,0,1-.05-.11.14.14,0,0,1,.05-.1.12.12,0,0,1,.1,0h.44V47.55h-.44a.12.12,0,0,1-.1,0,.16.16,0,0,1-.05-.11.14.14,0,0,1,.05-.1A.12.12,0,0,1,11.85,47.26Z" style="fill: #fff"/>
      <path d="M15.3,47.4v2.15h-.39l-.78-1.78V49.4a.15.15,0,0,1,0,.11.18.18,0,0,1-.1,0,.18.18,0,0,1-.11,0,.15.15,0,0,1,0-.11V47.26h.38L15,49V47.4a.14.14,0,0,1,.14-.14.15.15,0,0,1,.11,0A.13.13,0,0,1,15.3,47.4Z" style="fill: #fff"/>
      <path d="M16,47.65v-.39h1.46v.39a.14.14,0,0,1,0,.11.13.13,0,0,1-.1,0,.14.14,0,0,1-.15-.15v-.1h-.29V49.4a.16.16,0,0,1-.05.11.14.14,0,0,1-.2,0,.16.16,0,0,1-.05-.11V47.55h-.29v.1a.12.12,0,0,1,0,.1.14.14,0,0,1-.1,0,.14.14,0,0,1-.11,0A.12.12,0,0,1,16,47.65Z" style="fill: #fff"/>
    </g>
    <g>
      <path d="M19.1,47.26h.75a.4.4,0,0,1,.26.11.39.39,0,0,1,.13.28.14.14,0,0,1,0,.11.13.13,0,0,1-.1,0,.13.13,0,0,1-.1,0,.34.34,0,0,1,0-.13c0-.06-.05-.09-.11-.09h-.72s-.05,0-.05,0l0,0L20.16,49a.37.37,0,0,1,.08.21.34.34,0,0,1-.1.23.26.26,0,0,1-.21.1h-.78a.37.37,0,0,1-.27-.12.34.34,0,0,1-.11-.26c0-.11.05-.16.15-.16a.14.14,0,0,1,.14.14.1.1,0,0,0,.11.11h.72s.05,0,.05,0l0,0L18.84,47.8a.34.34,0,0,1,0-.44A.31.31,0,0,1,19.1,47.26Z" style="fill: #fff"/>
      <path d="M21,47.26h.58a.35.35,0,0,1,.21.07.37.37,0,0,1,.16.17l.29.58a.73.73,0,0,1,.08.33.68.68,0,0,1-.09.32l-.29.58a.41.41,0,0,1-.15.17.4.4,0,0,1-.24.07H21a.18.18,0,0,1-.1,0,.15.15,0,0,1,0-.11.14.14,0,0,1,.14-.14h.15V47.55H21a.18.18,0,0,1-.1,0,.15.15,0,0,1,0-.11.14.14,0,0,1,.14-.14Zm.44.29v1.71h.1a.15.15,0,0,0,.15-.1l.28-.57a.38.38,0,0,0,.06-.18.48.48,0,0,0,0-.18l-.3-.59a.16.16,0,0,0-.15-.09Z" style="fill: #fff"/>
      <path d="M23,49.35l.59-2a.13.13,0,0,1,.14-.1.13.13,0,0,1,.14.09l.58,2s0,0,0,0a.16.16,0,0,1-.05.11.15.15,0,0,1-.09,0,.14.14,0,0,1-.15-.11l-.11-.39h-.66l-.13.42a.07.07,0,0,1,0,.05l-.09,0a.18.18,0,0,1-.1,0,.15.15,0,0,1,0-.11Zm.73-1.42-.25.83H24Z" style="fill: #fff"/>
    </g>
    <g>
      <path d="M26.72,47.26h.76a.42.42,0,0,1,.26.11.38.38,0,0,1,.12.28.14.14,0,0,1,0,.11.14.14,0,0,1-.1,0,.13.13,0,0,1-.1,0,.31.31,0,0,1-.06-.13.1.1,0,0,0-.11-.09h-.71s-.06,0-.06,0a.09.09,0,0,0,0,0L27.78,49a.37.37,0,0,1,.08.21.33.33,0,0,1-.09.23.29.29,0,0,1-.21.1h-.78a.34.34,0,0,1-.27-.12.35.35,0,0,1-.12-.26c0-.11.05-.16.15-.16a.12.12,0,0,1,.1,0,.13.13,0,0,1,0,.1.12.12,0,0,0,0,.08.1.1,0,0,0,.08,0h.72s0,0,0,0,0,0,0,0L26.47,47.8a.32.32,0,0,1-.08-.21.34.34,0,0,1,.33-.33Z" style="fill: #fff"/>
      <path d="M29.32,49.26h.53a.14.14,0,0,1,.14.14.15.15,0,0,1,0,.11.18.18,0,0,1-.1,0H29.3a.35.35,0,0,1-.21-.07.34.34,0,0,1-.15-.14l-.34-.65a.72.72,0,0,1-.06-.29.64.64,0,0,1,.06-.28l.34-.64a.45.45,0,0,1,.15-.16.35.35,0,0,1,.19-.06h.58a.14.14,0,0,1,.14.14.15.15,0,0,1,0,.11.18.18,0,0,1-.1,0H29.3a.14.14,0,0,0-.11.08l-.32.6a.43.43,0,0,0,0,.17.48.48,0,0,0,0,.18l.31.59A.15.15,0,0,0,29.32,49.26Z" style="fill: #fff"/>
      <path d="M30.66,49.55V47.4a.18.18,0,0,1,0-.1.15.15,0,0,1,.11,0,.14.14,0,0,1,.14.14v1.86h1a.14.14,0,0,1,.11,0,.13.13,0,0,1,0,.1.15.15,0,0,1,0,.11.18.18,0,0,1-.11,0Z" style="fill: #fff"/>
    </g>
    <g>
      <path d="M35.13,47.55v.54a.41.41,0,0,1-.11.31.42.42,0,0,1,.12.29v.57a.28.28,0,0,1-.09.2.26.26,0,0,1-.2.08h-1a.14.14,0,1,1,0-.28h1v-.57a.12.12,0,0,0,0-.1.14.14,0,0,0-.1-.05h-.59A.14.14,0,0,1,34,48.4a.15.15,0,0,1,0-.11.18.18,0,0,1,.1,0h.59a.13.13,0,0,0,.1,0,.14.14,0,0,0,.05-.1v-.56h-1a.14.14,0,0,1-.1,0,.12.12,0,0,1,0-.1.14.14,0,0,1,.14-.14h1a.26.26,0,0,1,.2.08A.28.28,0,0,1,35.13,47.55Z" style="fill: #fff"/>
      <path d="M37.28,47.4v.54l-.6,1.5c0,.07-.07.11-.14.11a.16.16,0,0,1-.14-.11l-.59-1.5V47.4a.14.14,0,0,1,0-.1.12.12,0,0,1,.1,0,.14.14,0,0,1,.14.14v.48L36.54,49,37,47.88V47.4a.14.14,0,0,1,.05-.1.14.14,0,0,1,.2,0A.14.14,0,0,1,37.28,47.4Z" style="fill: #fff"/>
      <path d="M39.4,47.55v.54a.41.41,0,0,1-.12.31.38.38,0,0,1,.12.29v.57a.27.27,0,0,1-.08.2.28.28,0,0,1-.21.08h-1a.15.15,0,0,1-.11,0,.14.14,0,0,1,0-.2.15.15,0,0,1,.11,0h1v-.57a.15.15,0,0,0,0-.1.16.16,0,0,0-.11-.05h-.58a.14.14,0,0,1-.14-.14.15.15,0,0,1,0-.11.18.18,0,0,1,.1,0H39a.14.14,0,0,0,.14-.14v-.56h-1a.16.16,0,0,1-.11,0,.15.15,0,0,1,0-.1.18.18,0,0,1,0-.1.15.15,0,0,1,.11,0h1a.28.28,0,0,1,.21.08A.32.32,0,0,1,39.4,47.55Z" style="fill: #fff"/>
    </g>
    <g>
      <path d="M41.7,47.26h.48a.15.15,0,0,1,.11,0,.18.18,0,0,1,0,.1.16.16,0,0,1,0,.11.13.13,0,0,1-.1,0h-.46a.14.14,0,0,0-.11.06l-.41.53a.29.29,0,0,0-.05.17v.8a.15.15,0,0,0,0,.11.18.18,0,0,0,.1,0h.59a.14.14,0,0,0,.15-.15V48.8h-.3a.12.12,0,0,1-.1,0,.14.14,0,0,1-.05-.11.14.14,0,0,1,.05-.1.12.12,0,0,1,.1,0h.59v.6a.44.44,0,0,1-.44.44h-.59a.42.42,0,0,1-.31-.13.43.43,0,0,1-.12-.31v-.8A.55.55,0,0,1,41,48l.43-.55a.34.34,0,0,1,.13-.1A.35.35,0,0,1,41.7,47.26Z" style="fill: #fff"/>
      <path d="M44.46,47.4v2.15h-.39l-.78-1.78V49.4a.16.16,0,0,1,0,.11.15.15,0,0,1-.1,0,.18.18,0,0,1-.1,0,.15.15,0,0,1,0-.11V47.26h.38L44.16,49V47.4a.14.14,0,0,1,.05-.1.14.14,0,0,1,.2,0A.14.14,0,0,1,44.46,47.4Z" style="fill: #fff"/>
      <path d="M45.27,47.26h.57a.36.36,0,0,1,.22.07.52.52,0,0,1,.16.17l.28.58a.63.63,0,0,1,.09.33.68.68,0,0,1-.09.32l-.29.58a.44.44,0,0,1-.16.17.37.37,0,0,1-.23.07h-.55a.15.15,0,0,1-.1,0,.16.16,0,0,1-.05-.11.14.14,0,0,1,.05-.1.12.12,0,0,1,.1,0h.15V47.55h-.15a.18.18,0,0,1-.1,0,.15.15,0,0,1,0-.11.14.14,0,0,1,.14-.14Zm.44.29v1.71h.1a.16.16,0,0,0,.15-.1l.28-.57a.54.54,0,0,0,.06-.18.35.35,0,0,0,0-.18L46,47.64a.17.17,0,0,0-.16-.09Z" style="fill: #fff"/>
    </g>
    <g>
      <path d="M49.74,47.4v.54l-.6,1.5a.14.14,0,0,1-.14.11.16.16,0,0,1-.14-.11l-.59-1.5V47.4a.14.14,0,0,1,0-.1.12.12,0,0,1,.1,0,.14.14,0,0,1,.14.14v.48L49,49l.45-1.12V47.4a.14.14,0,0,1,.14-.14.12.12,0,0,1,.1,0A.14.14,0,0,1,49.74,47.4Z" style="fill: #fff"/>
      <path d="M50.54,47.26h1.18a.14.14,0,0,1,.1,0,.13.13,0,0,1,0,.1.15.15,0,0,1,0,.11.18.18,0,0,1-.1,0h-.44v1.71h.44a.14.14,0,0,1,.14.14.15.15,0,0,1,0,.11.18.18,0,0,1-.1,0H50.54a.18.18,0,0,1-.1,0,.15.15,0,0,1,0-.11.14.14,0,0,1,.14-.14H51V47.55h-.45a.13.13,0,0,1-.1,0,.15.15,0,0,1,0-.11.14.14,0,0,1,.14-.14Z" style="fill: #fff"/>
      <path d="M54,47.4v2.15h-.39l-.78-1.78V49.4a.16.16,0,0,1,0,.11.15.15,0,0,1-.1,0,.18.18,0,0,1-.1,0,.15.15,0,0,1,0-.11V47.26h.38L53.7,49V47.4a.14.14,0,0,1,0-.1.15.15,0,0,1,.2,0A.14.14,0,0,1,54,47.4Z" style="fill: #fff"/>
    </g>
    <line style="fill: none;stroke: #fff;stroke-linecap: round;stroke-linejoin: round;stroke-width: 0.75px" x1="53.88" x2="53.88" y1="50.42" y2="54.39"/>
    <g>
      <path d="M10.64,15.46a2.27,2.27,0,0,0-2.11-.3,4,4,0,0,0-.26-2.06c-.14-.48-.35-.65-.72,0a2.27,2.27,0,0,0-.86,1.85c-.37-.55-1.09-.59-1.94-.47-.57,0-.62.31-.34.73a2.57,2.57,0,0,0,1.13,1.32c.28.05.43.11.2.22a2.82,2.82,0,0,0-.88,1.88c-.13.61.13.61.55.38a2.34,2.34,0,0,0,1.53-.76c.15-.18.28-.29.28-.09a.52.52,0,0,0,.16.46,5.36,5.36,0,0,0,1.26,1.06c.31.23.45.13.46-.28s.09-.64.11-.88a1.83,1.83,0,0,0-.07-.81.57.57,0,0,0-.07-.17l-.21-.17c-.19-.21-.14-.3.15-.26a2,2,0,0,0,1.57-.85C11,15.9,11,15.66,10.64,15.46Z" style="fill: #fff"/>
      <path d="M6.41,15.89a1.58,1.58,0,0,1-.72-.24,1.66,1.66,0,0,1-.55-.54,1.62,1.62,0,0,1,.71.24A1.8,1.8,0,0,1,6.41,15.89Z" style="fill: #1f377e"/>
      <path d="M9.88,15.94a1.62,1.62,0,0,1-.71.26,1.37,1.37,0,0,1-.74-.08,1.62,1.62,0,0,1,.71-.26A1.6,1.6,0,0,1,9.88,15.94Z" style="fill: #1f377e"/>
      <path d="M7.57,15.35a1.8,1.8,0,0,1-.06-.79,1.77,1.77,0,0,1,.26-.75,1.8,1.8,0,0,1,.06.79A1.77,1.77,0,0,1,7.57,15.35Z" style="fill: #1f377e"/>
      <path d="M8.57,18.49A1.74,1.74,0,0,1,8,17.94a1.83,1.83,0,0,1-.27-.74,1.67,1.67,0,0,1,.54.55A1.91,1.91,0,0,1,8.57,18.49Z" style="fill: #1f377e"/>
      <path d="M5.77,18.22a1.74,1.74,0,0,1,.4-.67,1.57,1.57,0,0,1,.63-.43,1.74,1.74,0,0,1-.4.67A1.65,1.65,0,0,1,5.77,18.22Z" style="fill: #1f377e"/>
    </g>
  </g>
  <g id="pieces">
    <rect height="1.02" style="fill: #dfddd7" width="8.27" x="25.5" y="26.17"/>
    <rect height="1.02" style="fill: #dfddd7" width="8.27" x="25.5" y="28.06"/>
    <rect height="1.02" style="fill: #dfddd7" width="8.27" x="25.5" y="29.95"/>
    <rect height="12.25" rx="0.51" ry="0.51" style="fill: #221f24" width="4.19" x="18.36" y="21.73"/>
    <rect height="8.81" rx="0.5" ry="0.5" style="fill: #fff" width="6.62" x="17.14" y="23.32"/>
    <g>
      <rect height="1.64" style="fill: #aeaba8" width="2.14" x="52.18" y="29.69"/>
      <rect height="1.17" style="fill: #bababa" width="0.96" x="51.22" y="29.94"/>
      <rect height="1.64" style="fill: #aeaba8" width="2.14" x="52.18" y="32.38"/>
      <rect height="1.17" style="fill: #bababa" width="0.96" x="51.22" y="32.63"/>
      <rect height="1.64" style="fill: #aeaba8" width="2.14" x="52.18" y="35.04"/>
      <rect height="1.17" style="fill: #bababa" width="0.96" x="51.22" y="35.28"/>
      <rect height="1.64" style="fill: #aeaba8" transform="translate(89.14 71.56) rotate(180)" width="2.14" x="43.5" y="34.96"/>
      <rect height="1.17" style="fill: #bababa" transform="translate(92.23 71.53) rotate(180)" width="0.96" x="45.64" y="35.18"/>
      <rect height="1.64" style="fill: #aeaba8" transform="translate(89.14 60.94) rotate(180)" width="2.14" x="43.5" y="29.65"/>
      <rect height="1.17" style="fill: #bababa" transform="translate(92.23 60.92) rotate(180)" width="0.96" x="45.64" y="29.87"/>
      <rect height="8" style="fill: #333" width="4.63" x="46.59" y="29.33"/>
    </g>
    <g>
      <path d="M47.52,23.94v2.31c0,.52-.57.94-1.27.94S45,26.77,45,26.25V23.94c0-.52.56-.94,1.27-.94S47.52,23.42,47.52,23.94Z" style="fill: #bababa"/>
      <path d="M54.29,23.94v2.31c0,.52-.57.94-1.27.94s-1.27-.42-1.27-.94V23.94c0-.52.57-.94,1.27-.94S54.29,23.42,54.29,23.94Z" style="fill: #bababa"/>
      <rect height="6.77" rx="0.58" ry="0.58" style="fill: #e0e0e0" transform="translate(24.54 74.73) rotate(-90)" width="3.58" x="47.84" y="21.7"/>
      <rect height="3.18" style="fill: #dbc89b" transform="translate(24.48 74.66) rotate(-90)" width="3.58" x="47.78" y="23.5"/>
    </g>
    <g>
      <path d="M48.44,41.69V44c0,.52-.57.94-1.27.94S45.9,44.52,45.9,44V41.69c0-.52.57-.94,1.27-.94S48.44,41.17,48.44,41.69Z" style="fill: #bababa"/>
      <path d="M55.22,41.69V44c0,.52-.57.94-1.27.94s-1.27-.42-1.27-.94V41.69c0-.52.57-.94,1.27-.94S55.22,41.17,55.22,41.69Z" style="fill: #bababa"/>
      <rect height="6.77" rx="0.58" ry="0.58" style="fill: #e0e0e0" transform="translate(7.72 93.4) rotate(-90)" width="3.58" x="48.77" y="39.45"/>
      <rect height="3.18" style="fill: #dbc89b" transform="translate(7.65 93.34) rotate(-90)" width="3.58" x="48.7" y="41.25"/>
    </g>
    <g>
      <path d="M35.28,35.73V38c0,.52-.57.94-1.27.94s-1.27-.42-1.27-.94V35.73c0-.52.56-.94,1.27-.94S35.28,35.21,35.28,35.73Z" style="fill: #bababa"/>
      <path d="M42.05,35.73V38c0,.52-.57.94-1.27.94s-1.27-.42-1.27-.94V35.73c0-.52.57-.94,1.27-.94S42.05,35.21,42.05,35.73Z" style="fill: #bababa"/>
      <rect height="6.77" rx="0.58" ry="0.58" style="fill: #e0e0e0" transform="translate(0.51 74.28) rotate(-90)" width="3.58" x="35.6" y="33.5"/>
      <rect height="3.18" style="fill: #dbc89b" transform="translate(0.44 74.21) rotate(-90)" width="3.58" x="35.54" y="35.3"/>
    </g>
    <g>
      <g>
        <path d="M4.09,27.49H6.4c.52,0,.94.57.94,1.27S6.92,30,6.4,30H4.09c-.52,0-.94-.57-.94-1.27S3.57,27.49,4.09,27.49Z" style="fill: #bababa"/>
        <path d="M4.09,20.71H6.4c.52,0,.94.57.94,1.27s-.42,1.27-.94,1.27H4.09c-.52,0-.94-.56-.94-1.27S3.57,20.71,4.09,20.71Z" style="fill: #bababa"/>
        <rect height="6.77" rx="0.58" ry="0.58" style="fill: #e0e0e0" transform="translate(10.49 50.74) rotate(180)" width="3.58" x="3.45" y="21.98"/>
        <rect height="3.18" transform="translate(10.49 50.87) rotate(180)" width="3.58" x="3.45" y="23.85"/>
      </g>
      <g>
        <path d="M5,24.28v.14h.56v-.14s0,0,0,0l0,0,0,0s0,0,0,0v.24H5v.09h.2l0,0a0,0,0,0,1,0,0s0,0,0,0l0,0H4.92l0,0s0,0,0,0v-.38s0,0,0,0H5S5,24.26,5,24.28Z" style="fill: #fff"/>
        <path d="M5,24.93h.57a.07.07,0,0,1,.06,0,.09.09,0,0,1,0,.06v.3a.09.09,0,0,1,0,.06.07.07,0,0,1-.06,0H5a.07.07,0,0,1-.06,0,.09.09,0,0,1,0-.06V25A.11.11,0,0,1,5,24.93Zm0,.38h.56V25H5Z" style="fill: #fff"/>
        <path d="M5,25.63h.57a.11.11,0,0,1,.09.09V26a.09.09,0,0,1,0,.06.07.07,0,0,1-.06,0H5a.07.07,0,0,1-.06,0,.09.09,0,0,1,0-.06v-.3A.11.11,0,0,1,5,25.63ZM5,26h.56v-.29H5Z" style="fill: #fff"/>
        <path d="M4.87,26.76v-.43H5.2a.11.11,0,0,1,.07,0,.14.14,0,0,1,0,.06v.29h.23v-.34s0,0,0,0h.07s0,0,0,0v.34a.1.1,0,0,1-.1.1H5.29a.07.07,0,0,1-.06,0,.09.09,0,0,1,0-.07v-.29H5v.34a0,0,0,0,1,0,0l0,0,0,0A0,0,0,0,1,4.87,26.76Z" style="fill: #fff"/>
      </g>
    </g>
    <g>
      <g>
        <path d="M39.16,29.67h2.31c.52,0,.94.57.94,1.27s-.42,1.27-.94,1.27H39.16c-.52,0-.94-.57-.94-1.27S38.64,29.67,39.16,29.67Z" style="fill: #bababa"/>
        <path d="M39.16,22.9h2.31c.52,0,.94.56.94,1.27s-.42,1.27-.94,1.27H39.16c-.52,0-.94-.57-.94-1.27S38.64,22.9,39.16,22.9Z" style="fill: #bababa"/>
        <rect height="6.77" rx="0.58" ry="0.58" style="fill: #e0e0e0" transform="translate(80.63 55.11) rotate(180)" width="3.58" x="38.52" y="24.17"/>
        <rect height="3.18" transform="translate(80.63 55.24) rotate(180)" width="3.58" x="38.52" y="26.03"/>
      </g>
      <g>
        <path d="M40,26.46v.15h.56v-.15a0,0,0,0,1,0,0h.07a0,0,0,0,1,0,0v.24H40v.1h.23a0,0,0,0,1,0,0s0,0,0,0H40s0,0,0,0a.05.05,0,0,1,0,0v-.38s0,0,0,0l0,0,0,0S40,26.45,40,26.46Z" style="fill: #fff"/>
        <path d="M40,27.11h.57a.09.09,0,0,1,.07,0,.14.14,0,0,1,0,.06v.3a.08.08,0,0,1,0,.06.09.09,0,0,1-.07,0H40a.09.09,0,0,1-.06,0,.06.06,0,0,1,0-.06v-.3a.11.11,0,0,1,.09-.09Zm0,.39h.56v-.29H40Z" style="fill: #fff"/>
        <path d="M40,27.81h.57a.09.09,0,0,1,.07,0,.14.14,0,0,1,0,.06v.3a.11.11,0,0,1,0,.06.09.09,0,0,1-.07,0H40a.09.09,0,0,1-.06,0,.07.07,0,0,1,0-.06v-.3a.11.11,0,0,1,.09-.09Zm0,.39h.56v-.29H40Z" style="fill: #fff"/>
        <path d="M39.94,28.94v-.43h.33a.1.1,0,0,1,.1.1v.29h.23v-.34s0,0,0,0h.07s0,0,0,0v.34a.11.11,0,0,1-.09.09h-.23a.09.09,0,0,1-.07,0,.09.09,0,0,1,0-.06v-.29H40v.33a.05.05,0,0,1,0,0H40A.05.05,0,0,1,39.94,28.94Z" style="fill: #fff"/>
      </g>
    </g>
    <g>
      <g>
        <path d="M30.18,38H27.87c-.52,0-.94-.57-.94-1.27s.42-1.27.94-1.27h2.31c.52,0,.94.57.94,1.27S30.7,38,30.18,38Z" style="fill: #bababa"/>
        <path d="M30.18,44.78H27.87c-.52,0-.94-.56-.94-1.27s.42-1.27.94-1.27h2.31c.52,0,.94.57.94,1.27S30.7,44.78,30.18,44.78Z" style="fill: #bababa"/>
        <rect height="6.77" rx="0.58" ry="0.58" style="fill: #e0e0e0" width="3.58" x="27.23" y="36.74"/>
        <rect height="3.18" width="3.58" x="27.23" y="38.47"/>
      </g>
      <g>
        <path d="M29.3,41.22v-.15h-.56v.15a0,0,0,0,1,0,0h-.07a0,0,0,0,1,0,0V41h.65v-.1h-.23a0,0,0,0,1,0,0s0,0,0,0h.32s0,0,0,0v.38l0,0,0,0,0,0Z" style="fill: #fff"/>
        <path d="M29.31,40.57h-.57a.06.06,0,0,1-.06,0,.09.09,0,0,1,0-.06v-.3a.09.09,0,0,1,0-.07l.06,0h.57l.06,0a.09.09,0,0,1,0,.07v.3a.11.11,0,0,1-.09.09Zm0-.39h-.56v.29h.56Z" style="fill: #fff"/>
        <path d="M29.31,39.87h-.57a.06.06,0,0,1-.06,0,.09.09,0,0,1,0-.06v-.3a.11.11,0,0,1,.09-.09h.57a.09.09,0,0,1,.06,0,.07.07,0,0,1,0,.06v.3a.09.09,0,0,1,0,.06Zm0-.39h-.56v.29h.56Z" style="fill: #fff"/>
        <path d="M29.4,38.74v.43h-.33a.09.09,0,0,1-.07,0,.14.14,0,0,1,0-.07v-.29h-.24v.34s0,0,0,0h-.07s0,0,0,0v-.34a.09.09,0,0,1,0-.06l.06,0H29a.07.07,0,0,1,.06,0,.09.09,0,0,1,0,.06v.29h.23v-.33a.05.05,0,0,1,0,0h.07S29.4,38.72,29.4,38.74Z" style="fill: #fff"/>
      </g>
    </g>
    <g>
      <g>
        <path d="M36.27,42.16v2.31c0,.51-.57.93-1.27.93s-1.27-.42-1.27-.93V42.16c0-.52.57-.94,1.27-.94S36.27,41.64,36.27,42.16Z" style="fill: #bababa"/>
        <path d="M43,42.16v2.31c0,.51-.56.93-1.27.93S40.5,45,40.5,44.47V42.16c0-.52.57-.94,1.27-.94S43,41.64,43,42.16Z" style="fill: #bababa"/>
        <rect height="6.77" rx="0.58" ry="0.58" style="fill: #e0e0e0" transform="translate(-4.92 81.7) rotate(-90)" width="3.58" x="36.6" y="39.92"/>
        <rect height="3.18" transform="translate(-4.99 81.63) rotate(-90)" width="3.58" x="36.53" y="41.72"/>
      </g>
      <g>
        <path d="M39.48,43h-.15v.56h.15l0,0s0,0,0,0l0,0,0,0h-.24V43h-.1v.2a0,0,0,0,1,0,0l0,0a.05.05,0,0,1,0,0,0,0,0,0,1,0,0V43a0,0,0,0,1,0,0h.45a.05.05,0,0,1,0,0l0,0Z" style="fill: #fff"/>
        <path d="M38.83,43v.57a.11.11,0,0,1-.09.09h-.3a.07.07,0,0,1-.06,0,.09.09,0,0,1,0-.06V43a.09.09,0,0,1,0-.07l.06,0h.3l.06,0A.09.09,0,0,1,38.83,43Zm-.39,0v.56h.29V43Z" style="fill: #fff"/>
        <path d="M38.13,43v.57a.11.11,0,0,1-.09.09h-.3a.11.11,0,0,1-.09-.09V43a.09.09,0,0,1,0-.07l.06,0H38l.06,0A.09.09,0,0,1,38.13,43Zm-.39,0v.56H38V43Z" style="fill: #fff"/>
        <path d="M37,42.94h.43v.32a.1.1,0,0,1-.1.1H37v.23h.34l0,0s0,0,0,0a0,0,0,0,1,0,0l0,0H37l-.06,0a.09.09,0,0,1,0-.07v-.23a.09.09,0,0,1,0-.07l.06,0h.29V43H37s0,0,0,0a0,0,0,0,1,0,0Z" style="fill: #fff"/>
      </g>
    </g>
    <g>
      <g>
        <path d="M19.13,16.69V19c0,.52-.57.94-1.27.94s-1.27-.42-1.27-.94V16.69c0-.52.57-.94,1.27-.94S19.13,16.17,19.13,16.69Z" style="fill: #bababa"/>
        <path d="M25.9,16.69V19c0,.52-.56.94-1.27.94s-1.27-.42-1.27-.94V16.69c0-.52.57-.94,1.27-.94S25.9,16.17,25.9,16.69Z" style="fill: #bababa"/>
        <rect height="6.77" rx="0.58" ry="0.58" style="fill: #e0e0e0" transform="translate(3.41 39.09) rotate(-90)" width="3.58" x="19.46" y="14.46"/>
        <rect height="3.18" transform="translate(3.34 39.02) rotate(-90)" width="3.58" x="19.39" y="16.25"/>
      </g>
      <g>
        <path d="M22.34,17.56h-.15v.56h.15l0,0a0,0,0,0,1,0,.06l0,0H22.1v-.66H22v.2a0,0,0,0,1,0,0l0,0a.05.05,0,0,1,0,0s0,0,0,0v-.24s0,0,0,0h.45a.05.05,0,0,1,0,0s0,0,0,0Z" style="fill: #fff"/>
        <path d="M21.69,17.56v.57a.11.11,0,0,1-.09.09h-.3a.07.07,0,0,1-.06,0,.09.09,0,0,1,0-.06v-.57a.06.06,0,0,1,0-.06.07.07,0,0,1,.06,0h.3a.09.09,0,0,1,.06,0A.06.06,0,0,1,21.69,17.56Zm-.39,0v.56h.29v-.56Z" style="fill: #fff"/>
        <path d="M21,17.56v.57a.11.11,0,0,1-.09.09h-.3a.11.11,0,0,1-.09-.09v-.57a.06.06,0,0,1,0-.06.09.09,0,0,1,.06,0h.3a.09.09,0,0,1,.06,0A.06.06,0,0,1,21,17.56Zm-.39,0v.56h.29v-.56Z" style="fill: #fff"/>
        <path d="M19.86,17.47h.43v.33a.09.09,0,0,1,0,.06.09.09,0,0,1-.07,0h-.28v.23h.33a.05.05,0,0,1,0,0,0,0,0,0,1,0,.06.05.05,0,0,1,0,0h-.33a.1.1,0,0,1-.1-.1v-.23a.11.11,0,0,1,0-.07.08.08,0,0,1,.07,0h.28v-.24h-.37a0,0,0,0,1,0,0s0,0,0,0Z" style="fill: #fff"/>
      </g>
    </g>
    <g>
      <g>
        <path d="M13.47,23.32H11.16c-.52,0-.94-.57-.94-1.27s.42-1.27.94-1.27h2.31c.52,0,.94.57.94,1.27S14,23.32,13.47,23.32Z" style="fill: #bababa"/>
        <path d="M13.47,30.09H11.16c-.52,0-.94-.56-.94-1.27s.42-1.27.94-1.27h2.31c.52,0,.94.57.94,1.27S14,30.09,13.47,30.09Z" style="fill: #bababa"/>
        <rect height="6.77" rx="0.58" ry="0.58" style="fill: #e0e0e0" width="3.58" x="10.52" y="22.05"/>
        <rect height="3.18" width="3.58" x="10.52" y="23.78"/>
      </g>
      <g>
        <path d="M12.6,26.58H12a.07.07,0,0,1-.06,0,.09.09,0,0,1,0-.07v-.29a.09.09,0,0,1,0-.07l.06,0h.57l.06,0a.09.09,0,0,1,0,.07v.29a.09.09,0,0,1,0,.07A.07.07,0,0,1,12.6,26.58Zm0-.39H12v.29h.56Z" style="fill: #fff"/>
        <path d="M12.59,25.88h-.23a.07.07,0,0,1-.06,0,.09.09,0,0,1,0-.07H12s0,0,0,0v-.22a.05.05,0,0,1,0,0h.28a.14.14,0,0,1,0-.06.11.11,0,0,1,.07,0h.24a.11.11,0,0,1,.09.09v.29a.1.1,0,0,1-.1.1ZM12,25.69h.23v-.1H12Zm.32.09h.24v-.29h-.24Z" style="fill: #fff"/>
        <path d="M12.69,24.74v.05s0,0,0,0h-.07a.05.05,0,0,1,0,0h-.31v.34a0,0,0,0,1,0,0H12a0,0,0,0,1,0,0v-.39a0,0,0,0,1,0,0h.73Zm-.51.05H12v.29h.14Z" style="fill: #fff"/>
      </g>
    </g>
    <g>
      <path d="M17.83,39.34h.05v.25a.09.09,0,0,0,.09.08h1a.09.09,0,0,0,.08-.08v-.25h.59a.27.27,0,0,0,.27-.27V37.22a.27.27,0,0,0-.27-.27h-1.8a.27.27,0,0,0-.27.27v1.85A.27.27,0,0,0,17.83,39.34Z" style="fill: #aeaba8"/>
      <path d="M22.74,39.31h.05v.25a.09.09,0,0,0,.09.08h1a.09.09,0,0,0,.09-.08v-.25h.58a.28.28,0,0,0,.28-.27V37.19a.28.28,0,0,0-.28-.27H22.74a.28.28,0,0,0-.28.27V39A.28.28,0,0,0,22.74,39.31Z" style="fill: #aeaba8"/>
      <path d="M22.16,43.13H22.1v-.25a.09.09,0,0,0-.09-.09H20.93a.09.09,0,0,0-.09.09v.25H20.2a.28.28,0,0,0-.3.26v1.85a.28.28,0,0,0,.3.27h2a.28.28,0,0,0,.3-.27V43.39A.28.28,0,0,0,22.16,43.13Z" style="fill: #aeaba8"/>
      <rect height="3.89" rx="0.91" ry="0.91" style="fill: #3c3c3e" transform="translate(42.36 82.86) rotate(180)" width="7.92" x="17.22" y="39.49"/>
    </g>
    <g>
      <path d="M22.46,41v.37a.12.12,0,0,1,0,.08.09.09,0,0,1-.08,0,.11.11,0,0,1-.09,0,.11.11,0,0,1,0-.08V41a.09.09,0,0,0,0-.08.11.11,0,0,0-.08,0h-.24a.11.11,0,0,0-.08,0,.11.11,0,0,0,0,.09v1.39a.11.11,0,0,1,0,.08.14.14,0,0,1-.09,0,.11.11,0,0,1-.08,0,.18.18,0,0,1,0-.09V41a.36.36,0,0,1,.11-.26.35.35,0,0,1,.25-.1h.24a.33.33,0,0,1,.25.1A.38.38,0,0,1,22.46,41Z" style="fill: #515350"/>
      <path d="M20.73,40.84h-.37v1.39h.36a.11.11,0,0,1,.08,0,.11.11,0,0,1,0,.09.09.09,0,0,1,0,.08.11.11,0,0,1-.08,0h-.59V40.84h-.24v.49a.11.11,0,0,1,0,.08.11.11,0,0,1-.09,0,.09.09,0,0,1-.08,0,.11.11,0,0,1,0-.08v-.61a.11.11,0,0,1,0-.08.09.09,0,0,1,.08,0h1a.09.09,0,0,1,.08,0,.12.12,0,0,1,0,.16A.09.09,0,0,1,20.73,40.84Z" style="fill: #515350"/>
    </g>
    <g>
      <path d="M11,33.9V34h-.25a.09.09,0,0,0-.09.08v1a.08.08,0,0,0,.09.08H11v.59a.27.27,0,0,0,.26.27h1.85a.27.27,0,0,0,.27-.27V33.9a.27.27,0,0,0-.27-.27H11.3A.27.27,0,0,0,11,33.9Z" style="fill: #aeaba8"/>
      <path d="M11.07,38.81v0h-.26a.09.09,0,0,0-.08.09v1a.09.09,0,0,0,.08.08h.26v.59a.26.26,0,0,0,.26.27h1.85a.27.27,0,0,0,.27-.27v-1.8a.27.27,0,0,0-.27-.27H11.33A.26.26,0,0,0,11.07,38.81Z" style="fill: #aeaba8"/>
      <path d="M7.25,38.24v-.06H7.5a.09.09,0,0,0,.08-.09V37a.1.1,0,0,0-.08-.1H7.25v-.64A.29.29,0,0,0,7,36H5.13a.29.29,0,0,0-.27.3v2a.29.29,0,0,0,.27.3H7A.29.29,0,0,0,7.25,38.24Z" style="fill: #aeaba8"/>
      <rect height="3.89" rx="0.91" ry="0.91" style="fill: #3c3c3e" transform="translate(-28.32 46.2) rotate(-90)" width="7.92" x="4.98" y="35.31"/>
    </g>
    <g>
      <path d="M9.42,38.53H9a.11.11,0,0,1-.08,0,.14.14,0,0,1,0-.09.11.11,0,0,1,0-.08.12.12,0,0,1,.08,0h.38a.11.11,0,0,0,.08,0,.13.13,0,0,0,0-.09v-.23a.13.13,0,0,0,0-.09.12.12,0,0,0-.08,0H8a.14.14,0,0,1-.09,0,.11.11,0,0,1,0-.08.12.12,0,0,1,0-.09.11.11,0,0,1,.08,0H9.42a.31.31,0,0,1,.25.11.33.33,0,0,1,.1.25v.23a.35.35,0,0,1-.1.26A.39.39,0,0,1,9.42,38.53Z" style="fill: #515350"/>
      <path d="M9.54,36.8v-.36H8.14v.35a.12.12,0,0,1,0,.09.11.11,0,0,1-.08,0,.14.14,0,0,1-.09,0,.12.12,0,0,1,0-.09V36.2H9.54V36H9a.12.12,0,0,1-.08,0,.12.12,0,0,1,0-.16.09.09,0,0,1,.08,0h.61a.11.11,0,0,1,.09,0,.11.11,0,0,1,0,.08v.95a.11.11,0,0,1-.2.08A.11.11,0,0,1,9.54,36.8Z" style="fill: #515350"/>
    </g>
    <path d="M8.3,34.85H8v.27h.34v.5H7.94l0,0a.05.05,0,0,1,0,0l0,0h.28v-.27H8a.09.09,0,0,1-.08,0,.12.12,0,0,1,0-.08v-.27a.12.12,0,0,1,0-.08.11.11,0,0,1,.08,0h.33l.08,0a.05.05,0,0,1,0,.05.05.05,0,0,1,0,0l0,0h0l-.08,0Z" style="fill: #515350"/>
    <g>
      <path d="M36.67,19.35h-.05V19.1a.09.09,0,0,0-.09-.09h-1a.09.09,0,0,0-.08.09v.25h-.59a.27.27,0,0,0-.27.26v1.86a.27.27,0,0,0,.27.26h1.8a.27.27,0,0,0,.27-.26V19.61A.27.27,0,0,0,36.67,19.35Z" style="fill: #aeaba8"/>
      <path d="M31.76,19.38h-.05v-.25a.09.09,0,0,0-.09-.09h-1a.09.09,0,0,0-.09.09v.25H30a.28.28,0,0,0-.28.26V21.5a.28.28,0,0,0,.28.26h1.79A.27.27,0,0,0,32,21.5V19.64A.27.27,0,0,0,31.76,19.38Z" style="fill: #aeaba8"/>
      <path d="M32.34,15.56h.06v.25a.09.09,0,0,0,.09.08h1.08a.09.09,0,0,0,.09-.08v-.25h.64a.28.28,0,0,0,.3-.27V13.44a.28.28,0,0,0-.3-.27h-2a.28.28,0,0,0-.3.27v1.85A.28.28,0,0,0,32.34,15.56Z" style="fill: #aeaba8"/>
      <rect height="3.89" rx="0.91" ry="0.91" style="fill: #3c3c3e" width="7.92" x="29.36" y="15.31"/>
    </g>
    <g>
      <path d="M32,17.73v-.37a.15.15,0,0,1,0-.09.11.11,0,0,1,.08,0,.11.11,0,0,1,.12.12v.37a.14.14,0,0,0,.12.12h.24a.14.14,0,0,0,.12-.12V16.34a.11.11,0,0,1,0-.08.11.11,0,0,1,.09,0,.09.09,0,0,1,.08,0,.12.12,0,0,1,0,.08v1.39a.34.34,0,0,1-.11.25.36.36,0,0,1-.25.11H32.4a.38.38,0,0,1-.36-.36Z" style="fill: #515350"/>
      <path d="M33.77,17.85h.37V16.46h-.36a.12.12,0,0,1-.08,0,.12.12,0,0,1,.08-.2h.59v1.63h.24v-.49a.11.11,0,0,1,.12-.12.11.11,0,0,1,.08,0,.14.14,0,0,1,0,.09V18a.14.14,0,0,1,0,.09.11.11,0,0,1-.08,0h-1a.11.11,0,0,1-.08,0,.16.16,0,0,1,0-.09.1.1,0,0,1,.11-.11Z" style="fill: #515350"/>
    </g>
    <g>
      <path d="M49.61,31l-.53.26a.64.64,0,0,1-.24,0,.59.59,0,0,1-.23,0L48.09,31a.29.29,0,0,1-.18-.28.31.31,0,0,1,.05-.17.33.33,0,0,1,.13-.11l.52-.27a.56.56,0,0,1,.23-.05.6.6,0,0,1,.24.05l.53.27a.29.29,0,0,1,.17.28A.3.3,0,0,1,49.61,31Zm-.12-.36-.5-.25a.4.4,0,0,0-.15,0,.32.32,0,0,0-.14,0l-.5.26s-.05,0-.05.07,0,.05.05.07l.5.25.14,0a.37.37,0,0,0,.15,0l.5-.25a.08.08,0,0,0,0-.07A.09.09,0,0,0,49.49,30.66Z" style="fill: #515350"/>
      <path d="M49.46,31.88h.31v1.19h-.32a.09.09,0,0,1-.08,0,.11.11,0,0,1,0-.08.16.16,0,0,1,0-.09.11.11,0,0,1,.08,0h.09v-.24H48a.12.12,0,0,1,0-.24h1.51v-.24h-.08a.14.14,0,0,1-.09,0,.11.11,0,0,1,0-.08.12.12,0,0,1,0-.09A.14.14,0,0,1,49.46,31.88Z" style="fill: #515350"/>
      <path d="M49.54,34.8H49.1a.35.35,0,0,1-.25-.09.37.37,0,0,1-.24.1h-.46a.24.24,0,0,1-.23-.24v-.84a.1.1,0,0,1,.11-.11.14.14,0,0,1,.09,0,.11.11,0,0,1,0,.08v.83h.46l.09,0a.11.11,0,0,0,0-.08V34a.09.09,0,0,1,0-.08.1.1,0,0,1,.16,0A.09.09,0,0,1,49,34v.48a.11.11,0,0,0,0,.08.15.15,0,0,0,.09,0h.45v-.85a.09.09,0,0,1,0-.08.12.12,0,0,1,.16,0,.09.09,0,0,1,0,.08v.85a.24.24,0,0,1-.07.16A.22.22,0,0,1,49.54,34.8Z" style="fill: #515350"/>
      <path d="M49.54,36.54H49.1a.32.32,0,0,1-.25-.1.33.33,0,0,1-.24.1h-.46a.2.2,0,0,1-.16-.07.22.22,0,0,1-.07-.17v-.83a.11.11,0,0,1,0-.08.09.09,0,0,1,.08,0,.11.11,0,0,1,.09,0,.11.11,0,0,1,0,.08v.83h.46l.09,0a.16.16,0,0,0,0-.09v-.47a.12.12,0,0,1,0-.09.12.12,0,0,1,.16,0,.12.12,0,0,1,0,.09v.48a.13.13,0,0,0,0,.08.14.14,0,0,0,.09,0h.45v-.84a.12.12,0,0,1,.24,0v.84a.26.26,0,0,1-.07.17A.22.22,0,0,1,49.54,36.54Z" style="fill: #515350"/>
    </g>
    <g>
      <path d="M35.18,16.32h.14v-.55h-.17a.05.05,0,0,1,0,0l0,0h.26v.64h.1v-.2a0,0,0,0,1,0,0h0s0,0,0,0,0,0,0,0v.24a.05.05,0,0,1,0,0s0,0,0,0h-.41s0,0,0,0,0,0,0,0Z" style="fill: #515350"/>
      <path d="M35.82,16.32v-.55a.08.08,0,0,1,0-.07l.06,0h.29l.07,0a.14.14,0,0,1,0,.07v.55a.11.11,0,0,1,0,.06.09.09,0,0,1-.07,0H35.9a.09.09,0,0,1-.06,0S35.82,16.34,35.82,16.32Zm.37,0v-.55h-.28v.55Z" style="fill: #515350"/>
    </g>
    <g>
      <circle cx="3.33" cy="44.15" r="2.74" style="fill: #908f8b"/>
      <circle cx="3.33" cy="44.15" r="1.38" style="fill: #ceb98f"/>
    </g>
    <g>
      <circle cx="49.91" cy="16.03" r="2.74" style="fill: #908f8b"/>
      <circle cx="49.91" cy="16.03" r="1.38" style="fill: #ceb98f"/>
    </g>
    <path d="M7.06,1.29a5.28,5.28,0,1,0,5.28,5.28A5.29,5.29,0,0,0,7.06,1.29Zm0,9a3.76,3.76,0,1,1,3.77-3.76A3.76,3.76,0,0,1,7.06,10.33Z" style="fill: #908f8b"/>
    <path d="M51.16,1.29a5.28,5.28,0,1,0,5.28,5.28A5.28,5.28,0,0,0,51.16,1.29Zm0,9a3.76,3.76,0,1,1,3.76-3.76A3.76,3.76,0,0,1,51.16,10.33Z" style="fill: #908f8b"/>
    <rect height="4.81" style="fill: #fefabd" width="3.21" x="18.85" y="25.32"/>
    <rect height="11" rx="0.41" ry="0.41" style="fill: none;stroke: #fff;stroke-miterlimit: 10;stroke-width: 0.5px" width="5.26" x="2.61" y="19.94"/>
    <rect height="11" rx="0.41" ry="0.41" style="fill: none;stroke: #fff;stroke-miterlimit: 10;stroke-width: 0.5px" width="5.26" x="9.68" y="19.94"/>
    <rect height="11" rx="0.41" ry="0.41" style="fill: none;stroke: #fff;stroke-miterlimit: 10;stroke-width: 0.5px" width="5.26" x="26.55" y="34.62"/>
    <rect height="11" rx="0.41" ry="0.41" style="fill: none;stroke: #fff;stroke-miterlimit: 10;stroke-width: 0.5px" width="5.26" x="37.31" y="22.22"/>
    <rect height="11" rx="0.41" ry="0.41" style="fill: none;stroke: #fff;stroke-miterlimit: 10;stroke-width: 0.5px" transform="translate(0.68 74.11) rotate(-90)" width="5.26" x="34.76" y="31.21"/>
    <rect height="11" rx="0.41" ry="0.41" style="fill: none;stroke: #fff;stroke-miterlimit: 10;stroke-width: 0.5px" transform="translate(3.2 38.89) rotate(-90)" width="5.26" x="18.42" y="12.34"/>
    <rect height="11" rx="0.41" ry="0.41" style="fill: none;stroke: #fff;stroke-miterlimit: 10;stroke-width: 0.5px" transform="translate(-4.41 81.46) rotate(-90)" width="5.26" x="35.89" y="37.43"/>
    <rect height="11" rx="0.41" ry="0.41" style="fill: none;stroke: #fff;stroke-miterlimit: 10;stroke-width: 0.5px" transform="translate(7.8 93.19) rotate(-90)" width="5.26" x="47.86" y="37.19"/>
    <rect height="11" rx="0.41" ry="0.41" style="fill: none;stroke: #fff;stroke-miterlimit: 10;stroke-width: 0.5px" transform="translate(24.48 74.66) rotate(-90)" width="5.26" x="46.94" y="19.59"/>
    <polyline points="10.38 32.63 6.63 32.63 6.63 35.47" style="fill: none;stroke: #fff;stroke-linecap: round;stroke-linejoin: round;stroke-width: 0.5px"/>
    <polyline points="10.38 42.24 6.41 42.24 6.41 39.49" style="fill: none;stroke: #fff;stroke-linecap: round;stroke-linejoin: round;stroke-width: 0.5px"/>
    <polyline points="15.88 39.34 15.88 43.31 25.46 43.31 25.46 39.64" style="fill: none;stroke: #fff;stroke-linecap: round;stroke-linejoin: round;stroke-width: 0.5px"/>
    <line style="fill: none;stroke: #fff;stroke-linecap: round;stroke-linejoin: round;stroke-width: 0.5px" x1="46.59" x2="51.29" y1="28.82" y2="28.82"/>
    <polyline points="26.55 25.44 26.55 24.67 32.58 24.67 32.58 25.44" style="fill: none;stroke: #fff;stroke-linecap: round;stroke-linejoin: round;stroke-width: 0.5px"/>
    <polyline points="32.58 31.35 32.58 32.13 26.55 32.13 26.55 31.35" style="fill: none;stroke: #fff;stroke-linecap: round;stroke-linejoin: round;stroke-width: 0.5px"/>
    <rect height="5.56" style="fill: #77401e" width="3.29" x="27.99" y="25.79"/>
  </g>
  <g id="Connectors">
    <ellipse cx="7.28" cy="52.84" data-cir-type="male" id="circuitoCon_LED" rx="2.05" ry="1.99" style="fill: none;stroke: #e5e3dd;stroke-miterlimit: 10;stroke-width: 1.224px"/>
    <ellipse cx="50.56" cy="52.84" data-cir-type="male" id="circuitoCon_VIN" rx="2.05" ry="1.99" style="fill: none;stroke: #e5e3dd;stroke-miterlimit: 10;stroke-width: 1.224px"/>
    <ellipse cx="43.37" cy="52.84" data-cir-type="male" id="circuitoCon_GND" rx="2.05" ry="1.99" style="fill: none;stroke: #e5e3dd;stroke-miterlimit: 10;stroke-width: 1.224px"/>
    <ellipse cx="36.17" cy="52.84" data-cir-type="male" id="circuitoCon_3V3" rx="2.05" ry="1.99" style="fill: none;stroke: #e5e3dd;stroke-miterlimit: 10;stroke-width: 1.224px"/>
    <ellipse cx="21.79" cy="52.84" data-cir-type="male" id="circuitoCon_SDA" rx="2.05" ry="1.99" style="fill: none;stroke: #e5e3dd;stroke-miterlimit: 10;stroke-width: 1.224px"/>
    <ellipse cx="14.54" cy="52.84" data-cir-type="male" id="circuitoCon_INT" rx="2.05" ry="1.99" style="fill: none;stroke: #e5e3dd;stroke-miterlimit: 10;stroke-width: 1.224px"/>
    <ellipse cx="28.98" cy="52.84" data-cir-type="male" id="circuitoCon_SCL" rx="2.05" ry="1.99" style="fill: none;stroke: #e5e3dd;stroke-miterlimit: 10;stroke-width: 1.224px"/>
  </g>
</svg>