<?xml version="1.0" ?><svg height="36.68mm" viewBox="0 0 109.25 103.98" width="38.54mm" xmlns="http://www.w3.org/2000/svg" xmlns:xlink="http://www.w3.org/1999/xlink">
  <defs>
    <linearGradient gradientUnits="userSpaceOnUse" id="linear-gradient" x1="14.29" x2="93.96" y1="41.83" y2="41.83">
      <stop offset="0" stop-color="#fff"/>
      <stop offset="0.02" stop-color="#fdfdfd"/>
      <stop offset="0.03" stop-color="#f6f6f6"/>
      <stop offset="0.03" stop-color="#ebebeb"/>
      <stop offset="0.04" stop-color="#dcdcdc"/>
      <stop offset="0.91" stop-color="#dadada"/>
      <stop offset="1" stop-color="#d9d9d9"/>
    </linearGradient>
    <radialGradient cx="55.05" cy="43.44" gradientUnits="userSpaceOnUse" id="radial-gradient" r="13.37">
      <stop offset="0" stop-color="#fff"/>
      <stop offset="0.66" stop-color="#fdfdfd"/>
      <stop offset="0.9" stop-color="#f6f6f6"/>
      <stop offset="1" stop-color="#f0f0f0"/>
    </radialGradient>
    <radialGradient cx="55.05" cy="22.91" id="radial-gradient-2" r="11.47" xlink:href="#radial-gradient"/>
    <radialGradient cx="72.39" cy="33.17" id="radial-gradient-3" r="10.29" xlink:href="#radial-gradient"/>
    <radialGradient cx="72.39" cy="52.76" id="radial-gradient-4" r="9.83" xlink:href="#radial-gradient"/>
    <radialGradient cx="55.05" cy="62.09" id="radial-gradient-5" r="10.88" xlink:href="#radial-gradient"/>
    <radialGradient cx="37.07" cy="52.76" id="radial-gradient-6" r="10.12" xlink:href="#radial-gradient"/>
    <radialGradient cx="37.07" cy="33.17" id="radial-gradient-7" r="10.56" xlink:href="#radial-gradient"/>
    <radialGradient cx="37.07" cy="16.82" id="radial-gradient-8" r="8.8" xlink:href="#radial-gradient"/>
    <radialGradient cx="55.05" cy="10.78" id="radial-gradient-9" r="10.41" xlink:href="#radial-gradient"/>
    <radialGradient cx="72.39" cy="16.82" id="radial-gradient-10" r="8.47" xlink:href="#radial-gradient"/>
    <radialGradient cx="83.65" cy="22.91" id="radial-gradient-11" r="7.66" xlink:href="#radial-gradient"/>
    <radialGradient cx="83.65" cy="62.09" id="radial-gradient-12" r="6.75" xlink:href="#radial-gradient"/>
    <radialGradient cx="72.39" cy="67.59" id="radial-gradient-13" r="8.26" xlink:href="#radial-gradient"/>
    <radialGradient cx="37.07" cy="67.59" id="radial-gradient-14" r="8.6" xlink:href="#radial-gradient"/>
    <radialGradient cx="25.76" cy="62.09" id="radial-gradient-15" r="6.63" xlink:href="#radial-gradient"/>
    <radialGradient cx="25.76" cy="43.44" id="radial-gradient-16" r="10.21" xlink:href="#radial-gradient"/>
    <radialGradient cx="24.79" cy="22.91" id="radial-gradient-17" r="7.64" xlink:href="#radial-gradient"/>
    <radialGradient cx="55.05" cy="73.09" id="radial-gradient-18" r="10.58" xlink:href="#radial-gradient"/>
    <radialGradient cx="83.65" cy="43.44" id="radial-gradient-19" r="10.29" xlink:href="#radial-gradient"/>
    <radialGradient cx="54.34" cy="42.31" id="radial-gradient-20" r="42.31" xlink:href="#radial-gradient"/>
  </defs>
  <title>PIR (motion) sensor</title>
  <g data-name="Layer 6" id="Layer_6">
    <g data-name="Layer 5" id="Layer_5">
      <rect height="24.69" style="fill: #4d4a47" width="3.87" x="45.76" y="79.29"/>
      <rect height="24.69" style="fill: #f1cd41" width="3.87" x="50.66" y="79.29"/>
      <rect height="24.69" style="fill: #db5057" width="3.87" x="55.57" y="79.29"/>
    </g>
  </g>
  <g id="background">
    <path d="M0,.67V83.54H109.25V.67ZM6.36,45.87a3.39,3.39,0,1,1,3.39-3.39A3.39,3.39,0,0,1,6.36,45.87ZM99.92,71a.55.55,0,1,1,.55-.55A.55.55,0,0,1,99.92,71Zm3.69-8.29a.55.55,0,1,1,.55-.55A.55.55,0,0,1,103.62,62.74Zm-1-16.86A3.39,3.39,0,1,1,106,42.48,3.39,3.39,0,0,1,102.6,45.87Z" style="fill: #296344"/>
  </g>
  <g data-name="lines around" id="lines_around">
    <path d="M1.25,2.73H3.06q1,.17.25,1.17a3.91,3.91,0,0,0,1,4.19c.71.43.79.84,0,1.23a3.4,3.4,0,0,0-1.12,2.4H4.52v.81l-1.33.1A4,4,0,0,0,6.4,16.15V14.33H7.54v1.81A3.56,3.56,0,0,0,11,12.5H9v-.75h1.85A3.08,3.08,0,0,0,9.69,9.31C9,8.94,9.09,8.5,9.69,8a4.1,4.1,0,0,0,1-4.35c-.23-.7-.24-1.22.75-.94h4v8c-2-1.15-3.21,4.23,0,5.42V69.83c-2.81,0-2.81,4.92,0,4.92L93.63,57.12h3.67c.71.31.94,1,.71,2.08L98.09,69c-2.84,4.46,5.85,5.79,3.7,0v-5c2.14,2.47,6-.88,3.86-3.34.44-3.49,0-6.66-3.31-8.7-1.82-.95-5.26-.71-8.59-.55l1.13-23,.06-5.06c0-1.39.92-1.89,2.42-1.77l6.75,0a4.23,4.23,0,0,0,2.42-.9c.64-.61,1.12-.84,1.15,0V39.63c0,1.2-.36,1.36-1.2.28a4.73,4.73,0,0,0-8.66,2.72c-.31,3.59,4.09,7,8.47,3.5l.69-1c.37-.44.66-.54.7.41v37H10.38l.54-2.29L9,80.17a.78.78,0,0,1-.12-.51c0-.37,1.92-.24,1.92-.24a2.9,2.9,0,0,0-1-2.42c-.74-.45-.71-.91,0-1.37,2.14-3,.58-6.58-2.71-6.87-4,.54-5.21,4.17-2.87,6.88.74.4,1,.85,0,1.44a2.75,2.75,0,0,0-1.1,2.21H4.77v.86H3a2.58,2.58,0,0,0,.47,1.49c.22.3.25.56-.42.61l-1.82-.07v-37c.17-.88.42-.82.72-.19,2,2.59,5.34,3.59,8.63.16Q12.88,41,8.66,38.07c-3.13-1-5.37-.14-6.84,2.34-.42.81-.67.69-.78-.25Z" style="fill: #45925a"/>
    <path d="M93.19,15.95c1.06.51,1.89-.34,2.37-3.09-.27-.77-.11-1.07.81-.53l1.22.44V10.45l1.16.28V12.6a3.4,3.4,0,0,0,2.41-1.19c.26-.4.55-.59.94-.16A3.55,3.55,0,0,0,104,12.63c.66,0,.87.3.66.91l.08,3.59-.46.19-.16.38-12.4-.19Z" style="fill: #45925a"/>
    <path d="M92.58,3.46h9.88q3,0,3,3" style="fill: none;stroke: #45925a;stroke-linecap: round;stroke-miterlimit: 10;stroke-width: 0.5px"/>
    <path d="M106.5,10.25v6.42c.05,2.15-1.05,3.38-4.17,3l-6.21-.12L93.38,21" style="fill: none;stroke: #45925a;stroke-linecap: round;stroke-miterlimit: 10;stroke-width: 0.5px"/>
    <path d="M94,53H99.5c3.93.35,4.74,3.55,4.19,8" style="fill: none;stroke: #45925a;stroke-linecap: round;stroke-miterlimit: 10;stroke-width: 0.5px"/>
    <path d="M94,55.21h3.35c4.3-.09,2.35,8.06,2.56,14.25" style="fill: none;stroke: #45925a;stroke-linecap: round;stroke-miterlimit: 10;stroke-width: 0.5px"/>
    <circle cx="99.92" cy="70.48" r="1.02" style="fill: none;stroke: #45925a;stroke-linecap: round;stroke-miterlimit: 10;stroke-width: 0.5px"/>
    <circle cx="103.62" cy="62.19" r="1.02" style="fill: none;stroke: #45925a;stroke-linecap: round;stroke-miterlimit: 10;stroke-width: 0.5px"/>
  </g>
  <g id="holes">
    <g>
      <circle cx="7.06" cy="79.66" r="2.59" style="fill: #626055"/>
      <circle cx="7.06" cy="79.66" r="0.94" style="fill: #e8e8e8"/>
    </g>
    <g>
      <circle cx="7.06" cy="72.82" r="2.59" style="fill: #626055"/>
      <circle cx="7.06" cy="72.82" r="0.94" style="fill: #e8e8e8"/>
    </g>
    <g>
      <circle cx="7.06" cy="12.09" r="2.59" style="fill: #626055"/>
      <circle cx="7.06" cy="12.09" r="0.94" style="fill: #e8e8e8"/>
    </g>
    <g>
      <circle cx="7.06" cy="5.24" r="2.59" style="fill: #626055"/>
      <circle cx="7.06" cy="5.24" r="0.94" style="fill: #e8e8e8"/>
    </g>
    <g>
      <circle cx="105.11" cy="8.66" r="2.59" style="fill: #626055"/>
      <circle cx="105.11" cy="8.66" r="0.94" style="fill: #e8e8e8"/>
    </g>
    <g>
      <circle cx="98.27" cy="8.66" r="2.59" style="fill: #626055"/>
      <circle cx="98.27" cy="8.66" r="0.94" style="fill: #e8e8e8"/>
    </g>
    <circle cx="103.75" cy="78.67" r="0.63" style="fill: #2e5245"/>
  </g>
  <g data-name="Layer 2" id="Layer_2">
    <rect height="82.33" rx="2.83" ry="2.83" style="fill: url(#linear-gradient)" width="79.67" x="14.29" y="0.67"/>
    <g>
      <path d="M62.47,30.87H48c-2.9,5-4.64,7.54-7,12.56,2.4,5,4.14,7.54,7,12.56H62.47c2.9-5,4.62-7.54,6.7-12.56C67.09,38.41,65.37,35.9,62.47,30.87Z" style="fill: url(#radial-gradient)"/>
      <path d="M62.47,15H48c-2.9,5-4.64,5.7-7,8,2.4,2.26,4.14,2.93,7,8H62.47c2.9-5,4.62-5.7,6.7-8C67.09,20.65,65.37,20,62.47,15Z" style="fill: url(#radial-gradient-2)"/>
      <path d="M76.8,22.91H68.89c-2.15,2.26-3.91,2.93-6.81,8,2.9,5,4.66,7.54,6.81,12.56H76.8c1.83-5,3.8-7.54,5.9-12.56C80.59,25.85,78.62,25.18,76.8,22.91Z" style="fill: url(#radial-gradient-3)"/>
      <path d="M76.8,43.44H68.89C66.74,48.46,65,51,62.08,56c2.9,5,4.66,4.95,6.81,6.09H76.8c1.83-1.14,3.8-1.06,5.9-6.09C80.59,51,78.62,48.46,76.8,43.44Z" style="fill: url(#radial-gradient-4)"/>
      <path d="M62.47,56H48c-2.9,5-4.64,4.95-7,6.09,2.4,1.14,4.14,1.06,7,6.09H62.47c2.9-5,4.62-4.95,6.7-6.09C67.09,60.95,65.37,61,62.47,56Z" style="fill: url(#radial-gradient-5)"/>
      <path d="M40.89,43.44H32.13c-1.84,5-3.5,7.54-5.91,12.56,2.41,5,4.07,4.95,5.91,6.09h8.76C43.28,60.95,45,61,47.92,56,45,51,43.28,48.46,40.89,43.44Z" style="fill: url(#radial-gradient-6)"/>
      <path d="M40.89,22.91H32.13c-1.84,2.26-3.5,2.93-5.91,8,2.41,5,4.07,7.54,5.91,12.56h8.76c2.39-5,4.13-7.54,7-12.56C45,25.85,43.28,25.18,40.89,22.91Z" style="fill: url(#radial-gradient-7)"/>
      <path d="M40.89,10.78H32.13c-1.84,0-3.5-.86-5.91,4.17,2.41,5,4.07,5.7,5.91,8h8.76c2.39-2.26,4.13-2.93,7-8C45,9.93,43.28,10.77,40.89,10.78Z" style="fill: url(#radial-gradient-8)"/>
      <path d="M62.47,6.62H48c-2.9,5-4.64,4.18-7,4.17,2.4,0,4.14-.86,7,4.17H62.47c2.9-5,4.62-4.18,6.7-4.17C67.09,10.8,65.37,11.64,62.47,6.62Z" style="fill: url(#radial-gradient-9)"/>
      <path d="M76.8,10.78H68.89c-2.15,0-3.91-.86-6.81,4.17,2.9,5,4.66,5.7,6.81,8H76.8c1.83-2.26,3.8-2.93,5.9-8C80.59,9.93,78.62,10.77,76.8,10.78Z" style="fill: url(#radial-gradient-10)"/>
      <path d="M86.79,15H82.07c-2.41,5-4.05,5.7-5.77,8,1.71,2.26,3.36,2.93,5.77,8h4.73c.78-5,1.3-5.7,4.2-8C88.09,20.65,87.58,20,86.79,15Z" style="fill: url(#radial-gradient-11)"/>
      <path d="M86.79,56H82.07c-2.41,5-4.05,4.95-5.77,6.09,1.71,1.14,3.36,1.06,5.77,6.09h4.73c.78-5,1.3-4.95,4.2-6.09C88.09,60.95,87.58,61,86.79,56Z" style="fill: url(#radial-gradient-12)"/>
      <path d="M76.8,62.09H68.89c-2.15,1.14-3.91,1.06-6.81,6.09,2.9,5,4.66,4.48,6.81,4.92H76.8c1.83-.44,3.8.11,5.9-4.92C80.59,63.15,78.62,63.22,76.8,62.09Z" style="fill: url(#radial-gradient-13)"/>
      <path d="M40.89,62.09H32.13c-1.84,1.14-3.5,1.06-5.91,6.09,2.41,5,4.07,4.48,5.91,4.92h8.76c2.39-.44,4.13.11,7-4.92C45,63.15,43.28,63.22,40.89,62.09Z" style="fill: url(#radial-gradient-14)"/>
      <path d="M27.36,56H21.91c-.58,5-.9,4.95-3.28,6.09,2.38,1.14,2.7,1.06,3.28,6.09h5.45c2.89-5,3.81-4.95,5.53-6.09C31.17,60.95,30.25,61,27.36,56Z" style="fill: url(#radial-gradient-15)"/>
      <path d="M27.36,30.87H21.91c-.58,5-.9,7.54-3.28,12.56C21,48.46,21.34,51,21.91,56h5.45a58.79,58.79,0,0,0,5.53-12.56A58.79,58.79,0,0,0,27.36,30.87Z" style="fill: url(#radial-gradient-16)"/>
      <path d="M26.19,15H21.62c-.75,5-1.25,5.7-4.15,8,2.9,2.26,3.4,2.93,4.15,8h4.56c2.4-5,4.07-5.7,5.92-8C30.26,20.65,28.58,20,26.19,15Z" style="fill: url(#radial-gradient-17)"/>
      <path d="M62.47,68.17H48c-2.9,5-4.64,4.48-7,4.92,2.4.44,4.14-.11,7,4.92H62.47c2.9-5,4.62-4.48,6.7-4.92C67.09,72.65,65.37,73.2,62.47,68.17Z" style="fill: url(#radial-gradient-18)"/>
      <path d="M86.79,30.87H82.07c-2.41,5-4.05,7.54-5.77,12.56C78,48.46,79.66,51,82.07,56h4.73c.78-5,1.3-7.54,4.2-12.56C88.09,38.41,87.58,35.9,86.79,30.87Z" style="fill: url(#radial-gradient-19)"/>
    </g>
    <circle cx="54.34" cy="42.31" r="37.35" style="fill: none;stroke-miterlimit: 10;stroke-width: 9.92125988006592px;stroke: url(#radial-gradient-20)"/>
  </g>
  <g id="Connectors">
    <rect data-cir-type="male" height="2.46" id="circuitoCon_GND" style="fill: none" width="3.87" x="45.76" y="101.52"/>
    <rect data-cir-type="male" height="2.46" id="circuitoCon_SIG" style="fill: none" width="3.87" x="50.66" y="101.52"/>
    <rect data-cir-type="male" height="2.46" id="circuitoCon_VDD" style="fill: none" width="3.87" x="55.57" y="101.52"/>
  </g>
</svg>