<?xml version="1.0" ?><svg height="29.73mm" viewBox="0 0 51.71 84.28" width="18.24mm" xmlns="http://www.w3.org/2000/svg" xmlns:xlink="http://www.w3.org/1999/xlink">
  <defs>
    <linearGradient gradientUnits="userSpaceOnUse" id="Lead" x1="12.05" x2="46" y1="19.1" y2="19.1">
      <stop offset="0.01" stop-color="#c4c6c8"/>
      <stop offset="0.36" stop-color="#939598"/>
      <stop offset="0.59" stop-color="#a2a4a7"/>
      <stop offset="0.65" stop-color="#a7a9ac"/>
      <stop offset="0.87" stop-color="#a9abae"/>
      <stop offset="1" stop-color="#a7a9ac"/>
      <stop offset="1" stop-color="#d1d3d4"/>
    </linearGradient>
    <linearGradient data-name="Lead" gradientTransform="matrix(1, 0, 0, -1, 0, 38.19)" id="Lead-2" x1="12.34" x2="46.29" xlink:href="#Lead" y1="-1.67" y2="-1.67"/>
    <radialGradient cx="29" cy="29.9" data-name="Tin Radial" gradientUnits="userSpaceOnUse" id="Tin_Radial" r="10.5">
      <stop offset="0.01" stop-color="#c4c6c8"/>
      <stop offset="0.3" stop-color="#bcbec0"/>
      <stop offset="0.66" stop-color="#a7a9ac"/>
      <stop offset="1" stop-color="#9b9da0"/>
    </radialGradient>
    <radialGradient cx="28.94" cy="29.77" gradientUnits="userSpaceOnUse" id="radial-gradient" r="8.44">
      <stop offset="0" stop-color="#e5e2df"/>
      <stop offset="0" stop-color="#ded9d6"/>
      <stop offset="0.06" stop-color="#cfcac9"/>
      <stop offset="0.18" stop-color="#a8a4a7"/>
      <stop offset="0.26" stop-color="#8b878d"/>
      <stop offset="0.52" stop-color="#f3f4f4"/>
      <stop offset="0.58" stop-color="#e5e5e6"/>
      <stop offset="0.7" stop-color="#c0bec0"/>
      <stop offset="0.86" stop-color="#858085"/>
      <stop offset="0.88" stop-color="#807b80"/>
      <stop offset="1" stop-color="#d1d3d4"/>
      <stop offset="1" stop-color="#a7a9ac"/>
    </radialGradient>
    <radialGradient cx="28.75" cy="29.83" data-name="Steel Radial" gradientUnits="userSpaceOnUse" id="Steel_Radial" r="6.63">
      <stop offset="0" stop-color="#e5e2df"/>
      <stop offset="0" stop-color="#f1efee"/>
      <stop offset="0" stop-color="#fff"/>
      <stop offset="0.13" stop-color="#f0f0f1"/>
      <stop offset="0.37" stop-color="#c9cacb"/>
      <stop offset="0.52" stop-color="#adaeb0"/>
      <stop offset="0.6" stop-color="#a3a5a7"/>
      <stop offset="0.74" stop-color="#898d90"/>
      <stop offset="0.91" stop-color="#5f6769"/>
      <stop offset="1" stop-color="#465053"/>
    </radialGradient>
  </defs>
  <title>Rotary Encoder Module</title>
  <g id="BACKGHROUND">
    <path d="M.29,0V72.92H51.71V0ZM5.6,57.64a3.91,3.91,0,1,1,3.91-3.91A3.91,3.91,0,0,1,5.6,57.64Zm0-39.25a3.91,3.91,0,1,1,3.91-3.91A3.91,3.91,0,0,1,5.6,18.39Z"/>
  </g>
  <g data-name="LINES AROUND" id="LINES_AROUND">
    <polyline points="40.53 47.52 46.69 47.52 46.69 9.96 10.79 9.96 10.79 47.62 20.16 47.62" style="fill: none;stroke: #fff;stroke-linecap: round;stroke-linejoin: round;stroke-width: 0.75px"/>
    <line style="fill: none;stroke: #fff;stroke-linecap: round;stroke-linejoin: round;stroke-width: 0.75px" x1="26.62" x2="34.69" y1="47.68" y2="47.68"/>
    <circle cx="5.6" cy="14.48" r="5.35" style="fill: none;stroke: #fff;stroke-linecap: round;stroke-linejoin: round;stroke-width: 0.5px"/>
    <circle cx="5.6" cy="53.73" r="5.35" style="fill: none;stroke: #fff;stroke-linecap: round;stroke-linejoin: round;stroke-width: 0.5px"/>
    <polyline points="11.47 70.08 10.66 70.08 10.66 62.96 18 62.96 18 65.18" style="fill: none;stroke: #fff;stroke-linecap: round;stroke-linejoin: round;stroke-width: 0.5px"/>
    <polyline points="18 62.96 46.41 62.96 46.66 63.65" style="fill: none;stroke: #fff;stroke-linecap: round;stroke-linejoin: round;stroke-width: 0.5px"/>
  </g>
  <g id="METAL">
    <g>
      <rect height="5" rx="0.68" ry="0.68" style="fill: #c8ab77" width="4.35" x="19.99" y="7.65"/>
      <rect height="5.48" rx="0.46" ry="0.46" style="fill: #c59358" width="1.23" x="21.55" y="7.37"/>
    </g>
    <g>
      <rect height="5" rx="0.68" ry="0.68" style="fill: #c8ab77" width="4.35" x="27.03" y="7.65"/>
      <rect height="5.48" rx="0.46" ry="0.46" style="fill: #c59358" width="1.23" x="28.59" y="7.37"/>
    </g>
    <g>
      <rect height="5" rx="0.68" ry="0.68" style="fill: #c8ab77" width="4.35" x="34.11" y="7.65"/>
      <rect height="5.48" rx="0.46" ry="0.46" style="fill: #c59358" width="1.23" x="35.68" y="7.37"/>
    </g>
    <g>
      <rect height="5" rx="0.68" ry="0.68" style="fill: #c8ab77" width="4.35" x="34.11" y="44.33"/>
      <rect height="5.48" rx="0.46" ry="0.46" style="fill: #c59358" width="1.23" x="35.68" y="44.06"/>
    </g>
    <g>
      <rect height="5" rx="0.68" ry="0.68" style="fill: #c8ab77" width="4.35" x="20.18" y="44.33"/>
      <rect height="5.48" rx="0.46" ry="0.46" style="fill: #c59358" width="1.23" x="21.74" y="44.06"/>
    </g>
  </g>
  <g data-name="SILVER SQUARE" id="SILVER_SQUARE">
    <rect height="11.25" rx="1.56" ry="1.56" style="fill: #fdfdfb" width="35.44" x="11.44" y="23.65"/>
    <rect height="34.88" rx="3.25" ry="3.25" style="fill: #8a7f71" width="34.06" x="11.94" y="11.83"/>
    <g>
      <rect height="25.38" style="fill: #947e6e" width="31.19" x="13.35" y="16.4"/>
      <g>
        <path d="M12.72,16.9l.77-1.13c-.33-2.4.28-3.65,2.14-3.37l26.71-.23c2-.17,1.93,1.56,2.05,4,.92.29,1.53.08,1.38,1L46,25.71H40c-3.89-10.37-17.58-11.37-23.11,0-.17.32-.56.36-1,.31H12V16.87Z" style="fill: url(#Lead)"/>
        <path d="M13,42.06l.77,1.13c-.33,2.4.28,3.65,2.14,3.38l26.71.23c2,.17,1.93-1.56,2.05-4,.92-.29,1.53-.08,1.38-1l.23-8.63h-6c-3.89,10.37-17.58,11.38-23.11,0-.17-.32-.56-.36-1-.31H12.34v9.15Z" style="fill: url(#Lead-2)"/>
      </g>
    </g>
  </g>
  <g id="ELLIPSE">
    <g>
      <circle cx="29" cy="29.9" r="10.5" style="fill: url(#Tin_Radial)"/>
      <circle cx="28.94" cy="29.77" r="8.44" style="fill: url(#radial-gradient)"/>
      <path d="M35.37,29.83a6.63,6.63,0,1,1-12.19-3.6l.07-.1a6.63,6.63,0,0,1,12.12,3.7Z" style="fill: url(#Steel_Radial)"/>
    </g>
    <line style="fill: none;stroke: #a9a095;stroke-linecap: round;stroke-miterlimit: 10" x1="23.72" x2="34.91" y1="26.33" y2="30.15"/>
  </g>
  <g id="text">
    <path d="M6.47,6.42H6.9c.3,0,.62.05.62.43s-.24.41-.51.41H6.42a.69.69,0,0,1-.34-.1L3.35,5.91c-.17-.08-.52-.23-.52-.44V4.94c0-.21.35-.36.52-.44L6.08,3.25a.69.69,0,0,1,.34-.1H7c.27,0,.51.11.51.41S7.2,4,6.9,4H6.47L3.69,5.21Z" style="fill: #fff"/>
    <g>
      <path d="M34.09,16.33h.21c.19,0,.35.06.35.25s-.16.25-.34.25h-1a.88.88,0,0,1-.87-.49L32,15.46a1,1,0,0,1,0-1.12l.53-.9a.9.9,0,0,1,.91-.46h1c.15,0,.29.07.29.25s-.14.25-.29.25h-.28Zm-.58-2.86H33.4c-.24,0-.3,0-.41.21l-.51.88a.62.62,0,0,0-.11.32.74.74,0,0,0,.14.41l.48.84c.12.21.17.21.44.21h.07Z" style="fill: #fff"/>
      <path d="M29.91,14.65V13.22c0-.16.08-.25.29-.25s.29.09.29.25v3.35c0,.16-.08.25-.29.25s-.29-.09-.29-.25V15.15h-1.7v1.43c0,.16-.08.25-.29.25s-.29-.09-.29-.25V13.22c0-.16.08-.25.29-.25s.29.09.29.25v1.43Z" style="fill: #fff"/>
      <path d="M24,15.78v.79c0,.16-.08.25-.29.25s-.29-.09-.29-.25v-.78a.44.44,0,0,1,0-.19l1.1-2.41c.06-.12.11-.22.29-.22s.23.09.29.22l1.1,2.41a.44.44,0,0,1,0,.19v.78c0,.16-.08.25-.29.25s-.29-.09-.29-.25v-.79L24.9,13.9Z" style="fill: #fff"/>
    </g>
    <g>
      <path d="M13.67,53.12a.25.25,0,0,1,.5,0V54h-1a.72.72,0,0,1-.79-.75v-.81a.69.69,0,0,1,.2-.54.75.75,0,0,1,.62-.22h1.25a1.06,1.06,0,0,1,.73.24l.76.55a.7.7,0,0,1,.34.66v.63a.25.25,0,0,1-.5,0v-.56c0-.26,0-.24-.21-.39l-.7-.51a1,1,0,0,0-.65-.15h-1c-.28,0-.36.06-.36.32v.75c0,.17,0,.31.26.31h.51Z" style="fill: #fff"/>
      <path d="M16,57c.16,0,.25.07.25.23s-.09.23-.25.23H12.39v-.62l3-1.23H12.65c-.16,0-.25-.07-.25-.23s.09-.23.25-.23h3.64v.62l-3,1.23H16Z" style="fill: #fff"/>
      <path d="M15.79,59v-.17c0-.16.06-.29.25-.29a.24.24,0,0,1,.25.27v.78a.71.71,0,0,1-.5.71l-.88.41a1.22,1.22,0,0,1-1.13,0l-.91-.43a.71.71,0,0,1-.47-.74v-.78a.25.25,0,0,1,.5,0V59Zm-2.89.47v.09c0,.2,0,.24.21.33l.89.41a.73.73,0,0,0,.33.09.87.87,0,0,0,.41-.12l.85-.39c.22-.1.21-.14.21-.36v-.06Z" style="fill: #fff"/>
    </g>
    <g>
      <path d="M7.42,21.74c.22,0,.35.08.35.3s-.13.3-.35.3H5.81l1.81,1.81a.38.38,0,0,1,.14.24c0,.17-.17.29-.36.29a.44.44,0,0,1-.29-.14L5,22.49,3,24.53a.43.43,0,0,1-.3.15c-.2,0-.36-.11-.36-.29s.13-.23.21-.32l1.76-1.74H2.67c-.22,0-.35-.08-.35-.3s.13-.3.35-.3Z" style="fill: #fff"/>
      <path d="M2.32,27.14a.55.55,0,0,1,.18-.51l.25-.24a.9.9,0,0,1,.76-.29h1.3a1,1,0,0,1,.81.28l.2.2a.7.7,0,0,1,.28.63v.52a.74.74,0,0,1-.25.63l-.22.23a1,1,0,0,1-.88.3H4.22c-.39,0-.5-.05-.5-.39V26.67H3.5a.36.36,0,0,0-.2.08l-.18.14C3,27,3,27.09,3,27.28V28.5c0,.19,0,.39-.34.39s-.34-.23-.34-.39Zm2.07-.48v1.65H4.8a.42.42,0,0,0,.31-.07L5.34,28a.36.36,0,0,0,.08-.27v-.48A.41.41,0,0,0,5.35,27l-.17-.2c-.06-.07-.11-.12-.31-.12Z" style="fill: #fff"/>
      <path d="M5.25,32.61h.39c.23,0,.46,0,.46.29s-.23.29-.46.29H5.36a1,1,0,0,1-.43-.07L1.24,31.67c-.31-.12-.35-.19-.35-.45v-.44c0-.17,0-.39.34-.39s.34.2.34.39v.39l1,.42v0c0-.24.13-.25.36-.34l1.83-.7a1.48,1.48,0,0,1,.55-.14h.3c.23,0,.46,0,.46.29s-.23.29-.46.29H5.25l-2,.77v.13Z" style="fill: #fff"/>
      <path d="M2.32,35.71a.55.55,0,0,1,.18-.51L2.76,35a.9.9,0,0,1,.76-.29h1.3a1,1,0,0,1,.81.28l.2.2a.7.7,0,0,1,.28.63v.52a.74.74,0,0,1-.25.63l-.22.23a1,1,0,0,1-.88.3H4.22c-.39,0-.5-.05-.5-.39V35.24H3.5a.36.36,0,0,0-.2.08l-.18.14c-.1.08-.13.19-.13.38v1.23c0,.19,0,.39-.34.39s-.34-.23-.34-.39Zm2.07-.48v1.65H4.8a.42.42,0,0,0,.31-.07l.22-.22a.36.36,0,0,0,.08-.27v-.48a.41.41,0,0,0-.08-.29l-.17-.2c-.06-.07-.11-.12-.31-.12Z" style="fill: #fff"/>
      <path d="M5.43,39.93c0-.12,0-.32-.19-.32s-.15.07-.2.15l-.76,1.43a1,1,0,0,1-1,.56.89.89,0,0,1-1-.94v-.88a.91.91,0,0,1,.21-.71c.1-.11.22-.26.39-.26a.32.32,0,0,1,.34.3.26.26,0,0,1-.12.22.54.54,0,0,0-.15.46v.77c0,.2,0,.48.37.48.16,0,.27-.17.34-.3l.72-1.34a.83.83,0,0,1,.82-.5.79.79,0,0,1,.85.79v1a.75.75,0,0,1-.23.66c-.1.11-.19.23-.38.23a.32.32,0,0,1-.34-.29.29.29,0,0,1,.14-.24.38.38,0,0,0,.13-.35Z" style="fill: #fff"/>
    </g>
    <path d="M21.21,57.21c0-.16.07-.25.23-.25s.23.09.23.25V58h.69a.25.25,0,0,1,0,.5h-.69v.74c0,.16-.07.25-.23.25s-.23-.09-.23-.25v-.74h-.69a.25.25,0,0,1,0-.5h.69Z" style="fill: #fff"/>
    <g>
      <path d="M26.92,59.08v-.59h3.64c.16,0,.25.07.25.23s-.09.24-.25.24h-3l.71.45h.08c.16,0,.3.06.3.23s-.15.24-.3.24h-.08l-.71.45h3c.16,0,.25.07.25.23s-.09.24-.25.24H26.92v-.59l.88-.57Z" style="fill: #fff"/>
      <path d="M29.84,55.27a.67.67,0,0,1,.42-.16.54.54,0,0,1,.57.59v1a.67.67,0,0,1-.16.47.65.65,0,0,1-.47.22c-.16,0-.3-.08-.3-.25a.23.23,0,0,1,.25-.22c.15,0,.17-.08.17-.21v-1s0-.16-.06-.16-.12.07-.15.08L27.9,57.28a.62.62,0,0,1-.41.15.57.57,0,0,1-.48-.25.6.6,0,0,1-.09-.39v-1a.64.64,0,0,1,.17-.47.7.7,0,0,1,.48-.22c.16,0,.29.08.29.24a.22.22,0,0,1-.24.23c-.17,0-.2.08-.2.23v1c0,.05,0,.16.07.16s.1-.05.14-.07Z" style="fill: #fff"/>
    </g>
    <g>
      <path d="M37.41,55.57V55.4c0-.16.06-.29.25-.29a.24.24,0,0,1,.25.27v.78a.71.71,0,0,1-.5.71l-.88.41a1.23,1.23,0,0,1-1.13,0l-.91-.43a.71.71,0,0,1-.47-.74v-.78a.25.25,0,0,1,.5,0v.23ZM34.51,56v.09c0,.2,0,.24.21.33l.89.41a.73.73,0,0,0,.33.09.88.88,0,0,0,.41-.12l.85-.39c.21-.1.21-.14.21-.36V56Z" style="fill: #fff"/>
      <path d="M37.41,59h-.18c-.16,0-.25-.07-.25-.24s.09-.23.25-.23h.68v2.32h-.68c-.16,0-.25-.07-.25-.24s.09-.23.25-.23h.18v-.46H34.26c-.16,0-.25-.07-.25-.24s.09-.23.25-.23h3.14Z" style="fill: #fff"/>
    </g>
    <g>
      <path d="M41.08,53a.7.7,0,0,1,.48-.71l.93-.43a1.18,1.18,0,0,1,.53-.13,1.15,1.15,0,0,1,.56.13l.93.43A.7.7,0,0,1,45,53v.8a.23.23,0,0,1-.25.23.23.23,0,0,1-.25-.23V53c0-.2,0-.24-.21-.32l-.87-.41a.82.82,0,0,0-.38-.1.74.74,0,0,0-.35.1l-.87.4c-.21.09-.22.14-.22.35v.77a.23.23,0,0,1-.25.23.23.23,0,0,1-.25-.23Z" style="fill: #fff"/>
      <path d="M41.58,57.2a.25.25,0,0,1-.5,0V55.11h3.64c.16,0,.25.07.25.23s-.09.23-.25.23H41.58Z" style="fill: #fff"/>
      <path d="M44.72,58.49c.16,0,.25.07.25.24s-.09.23-.25.23H43.57l1.3,1.43a.31.31,0,0,1,.1.19.24.24,0,0,1-.26.23.3.3,0,0,1-.21-.11L43,59.09,41.55,60.7a.3.3,0,0,1-.22.12.24.24,0,0,1-.26-.23c0-.1.09-.18.15-.25L42.48,59H41.33c-.16,0-.25-.07-.25-.23s.09-.24.25-.24Z" style="fill: #fff"/>
    </g>
  </g>
  <g data-name="Layer 10" id="Layer_10">
    <g id="Connectors">
      <polygon points="24 63.3 25.43 64.83 25.43 69.07 24 70.5 19.77 70.5 18.23 69.07 18.23 64.83 19.77 63.3 24 63.3" style="fill: #323232"/>
      <rect height="17.37" style="fill: #b0acb0" width="2.27" x="20.81" y="66.9"/>
      <polygon points="31.2 63.3 32.63 64.83 32.63 69.07 31.2 70.5 26.97 70.5 25.43 69.07 25.43 64.83 26.97 63.3 31.2 63.3" style="fill: #323232"/>
      <rect height="17.37" style="fill: #b0acb0" width="2.27" x="28.01" y="66.9"/>
      <polygon points="38.44 63.3 39.87 64.83 39.87 69.07 38.44 70.5 34.2 70.5 32.66 69.07 32.66 64.83 34.2 63.3 38.44 63.3" style="fill: #323232"/>
      <rect height="17.37" style="fill: #b0acb0" width="2.27" x="35.24" y="66.9"/>
      <polygon points="45.58 63.26 47.01 64.79 47.01 69.03 45.58 70.46 41.35 70.46 39.81 69.03 39.81 64.79 41.35 63.26 45.58 63.26" style="fill: #323232"/>
      <rect height="17.37" style="fill: #b0acb0" width="2.27" x="42.39" y="66.86"/>
      <polygon points="16.8 63.3 18.23 64.83 18.23 69.07 16.8 70.5 12.57 70.5 11.03 69.07 11.03 64.83 12.57 63.3 16.8 63.3" style="fill: #323232"/>
      <rect height="17.37" style="fill: #b0acb0" width="2.27" x="13.61" y="66.9"/>
    </g>
    <g data-name="Layer 7" id="Layer_7">
      <rect height="1.13" id="circuitoCon_VCC" style="fill: none" width="1.13" x="21.37" y="83.15"/>
      <rect height="1.13" id="circuitoCon_S1" style="fill: none" width="1.13" x="28.57" y="83.15"/>
      <rect height="1.13" id="circuitoCon_GND" style="fill: none" width="1.13" x="14.17" y="83.15"/>
      <rect height="1.13" id="circuitoCon_D" style="fill: none" width="1.13" x="35.8" y="83.15"/>
      <rect height="1.13" id="circuitoCon_CLK" style="fill: none" width="1.13" x="43" y="83.15"/>
    </g>
  </g>
</svg>