<?xml version="1.0" ?><svg height="33.46mm" viewBox="0 0 127.37 94.84" width="44.93mm" xmlns="http://www.w3.org/2000/svg" xmlns:xlink="http://www.w3.org/1999/xlink">
  <defs>
    <linearGradient gradientUnits="userSpaceOnUse" id="linear-gradient" x1="21.96" x2="47.54" y1="38.26" y2="38.26">
      <stop offset="0" stop-color="#3b3b3b"/>
      <stop offset="0.1" stop-color="#676667"/>
      <stop offset="0.28" stop-color="#0b0b0b"/>
      <stop offset="0.8" stop-color="#333"/>
      <stop offset="0.95" stop-color="#3d3d3d"/>
      <stop offset="1" stop-color="#1c1c1c"/>
    </linearGradient>
    <linearGradient gradientTransform="matrix(-1, 0, 0, 1, 179.42, 0.3)" id="linear-gradient-2" x1="74.05" x2="103.84" xlink:href="#linear-gradient" y1="38.32" y2="38.32"/>
    <linearGradient gradientUnits="userSpaceOnUse" id="linear-gradient-3" x1="90.4" x2="90.32" y1="3.65" y2="58.52">
      <stop offset="0.02" stop-color="#424143"/>
      <stop offset="0.78" stop-color="#0b0b0b"/>
      <stop offset="1" stop-color="#6b6a6b"/>
    </linearGradient>
    <linearGradient gradientUnits="userSpaceOnUse" id="linear-gradient-4" x1="90.35" x2="90.35" y1="34.4" y2="14.87">
      <stop offset="0" stop-color="#0d0d0d"/>
      <stop offset="1" stop-color="#787878"/>
    </linearGradient>
    <linearGradient id="linear-gradient-5" x1="90.42" x2="90.42" xlink:href="#linear-gradient-4" y1="34.4" y2="10.11"/>
    <linearGradient gradientUnits="userSpaceOnUse" id="linear-gradient-6" x1="6.85" x2="-0.09" y1="46.98" y2="-0.64">
      <stop offset="0.02"/>
      <stop offset="0.21" stop-color="#676667"/>
      <stop offset="0.44" stop-color="#efefef"/>
      <stop offset="0.56" stop-color="#c9c8c9"/>
      <stop offset="0.9" stop-color="#545355"/>
    </linearGradient>
    <linearGradient gradientUnits="userSpaceOnUse" id="linear-gradient-7" x1="16.18" x2="16.18" y1="64.95" y2="-40.82">
      <stop offset="0.02"/>
      <stop offset="0.34" stop-color="#676667"/>
      <stop offset="0.56" stop-color="#efefef"/>
      <stop offset="0.74" stop-color="#c9c8c9"/>
      <stop offset="0.79" stop-color="#c6c5c6"/>
      <stop offset="0.9" stop-color="#545355"/>
    </linearGradient>
    <linearGradient id="linear-gradient-8" x1="17.41" x2="10.47" xlink:href="#linear-gradient-6" y1="45.44" y2="-2.18"/>
    <linearGradient id="linear-gradient-10" x1="8.33" x2="1.38" xlink:href="#linear-gradient-6" y1="46.76" y2="-0.86"/>
    <linearGradient id="linear-gradient-11" x1="16.17" x2="16.17" xlink:href="#linear-gradient-7" y1="64.95" y2="-40.82"/>
    <linearGradient id="linear-gradient-12" x1="17.49" x2="10.55" xlink:href="#linear-gradient-6" y1="45.43" y2="-2.2"/>
    <linearGradient id="linear-gradient-13" x1="123.21" x2="116.27" xlink:href="#linear-gradient-6" y1="45.44" y2="-2.18"/>
    <linearGradient id="linear-gradient-14" x1="111.21" x2="111.21" xlink:href="#linear-gradient-7" y1="64.95" y2="-40.82"/>
    <linearGradient id="linear-gradient-16" x1="111.22" x2="111.22" xlink:href="#linear-gradient-7" y1="64.95" y2="-40.82"/>
    <linearGradient id="linear-gradient-17" x1="114.13" x2="107.19" xlink:href="#linear-gradient-6" y1="46.77" y2="-0.86"/>
    <linearGradient gradientUnits="userSpaceOnUse" id="linear-gradient-18" x1="89.16" x2="106.17" y1="21.23" y2="4.98">
      <stop offset="0" stop-color="#0d0d0d"/>
      <stop offset="0.83" stop-color="#787878"/>
    </linearGradient>
    <linearGradient id="linear-gradient-19" x1="27.77" x2="32.48" xlink:href="#linear-gradient-4" y1="28.73" y2="28.73"/>
    <linearGradient id="linear-gradient-20" x1="37.32" x2="42.02" xlink:href="#linear-gradient-4" y1="28.73" y2="28.73"/>
    <radialGradient cx="34.9" cy="26.1" gradientUnits="userSpaceOnUse" id="radial-gradient" r="7.04">
      <stop offset="0.02" stop-color="#424143"/>
      <stop offset="0.21" stop-color="#676667"/>
      <stop offset="0.44" stop-color="#efefef"/>
      <stop offset="1" stop-color="#6b6a6b"/>
    </radialGradient>
    <linearGradient gradientUnits="userSpaceOnUse" id="linear-gradient-21" x1="35.31" x2="58.57" y1="25.41" y2="10.76">
      <stop offset="0" stop-color="#0d0d0d"/>
      <stop offset="0.45" stop-color="#787878"/>
    </linearGradient>
  </defs>
  <title>Infrared Proximity Sensor Long Range - Sharp GP2Y0A02YK0F</title>
  <g data-name="vecto r" id="vecto_r">
    <path d="M105.83,32c0-.13,0-.26,0-.39s0-.26,0-.39a10.54,10.54,0,0,1,10.77-10.3v-6H105.83V10.11h-2.16V4.73H47.46v5.38H21.54v4.76H10.82v6a10.54,10.54,0,0,1,10.72,10.3c0,.13,0,.26,0,.39s0,.26,0,.39a10.54,10.54,0,0,1-10.72,10.3v3.47H21.54v4.75h84.29V45.67H116.6V42.29A10.54,10.54,0,0,1,105.83,32Z" style="fill: #333030"/>
    <path d="M10.82,18.29c7.34.48,11.14,6,10.59,11.33L10.77,20.91Z" style="fill: #1a1a1a"/>
    <path d="M116.43,18.26a10.62,10.62,0,0,0-3.2.46,10.75,10.75,0,0,0-6.21,5,10.59,10.59,0,0,0-1.14,6.65l10.59-9.47Z" style="fill: #1a1a1a"/>
    <path d="M22,32V42.44c.55,2.59,2.36,3.8,5,4.15H42.48A5.22,5.22,0,0,0,46.17,45V37.67c.85-.86,1.63-1.57,1.29-7.75Z" style="fill: url(#linear-gradient)"/>
    <rect height="10.72" style="fill: #404040" width="15.52" x="26.96" y="35.87"/>
    <path d="M105.27,31.23l0,11.25a4.89,4.89,0,0,1-1,2.31,5.78,5.78,0,0,1-4.83,1.82l-18.26-.05A5.21,5.21,0,0,1,78,45.92,4.9,4.9,0,0,1,76.81,45l0-7.33a3.32,3.32,0,0,1-.78-.81,4.36,4.36,0,0,1-.58-2.68c0-1.22,0-2.51,0-4.19Z" style="fill: url(#linear-gradient-2)"/>
    <polygon points="81.13 46.57 99.35 46.62 99.39 35.9 81.17 35.85 81.13 46.57" style="fill: #404040"/>
    <rect height="35.87" rx="4.73" ry="4.73" style="fill: #404040" width="29.79" x="75.46"/>
    <path d="M102.42,6.37l-5.31-4.8H83.38L78.3,6.65V30.57L82.9,34.4H98.44l4-4.2V6.37Z" style="fill: url(#linear-gradient-3)"/>
    <rect height="8.1" style="fill: #212121" width="13.79" x="83.38" y="1.58"/>
    <path d="M101.77,26a11.42,11.42,0,0,0-22.83,0,11,11,0,0,0,3.92,8.39h15A11,11,0,0,0,101.77,26Z" style="fill: url(#linear-gradient-4)"/>
    <path d="M101.7,20.79c-.94-4.92-5.26-10.7-11.34-10.68-6.8,0-11,7.26-11.41,12.48A12.15,12.15,0,0,0,80.31,29,12,12,0,0,0,86.7,34.4H94a11.91,11.91,0,0,0,5.67-4.09A12.32,12.32,0,0,0,101.7,20.79Z" style="fill: url(#linear-gradient-5)"/>
    <rect height="35.87" rx="4.73" ry="4.73" style="fill: #404040" width="25.5" x="21.96"/>
    <rect height="27.69" style="fill: #333030" width="23" x="23.27" y="4.09"/>
    <path d="M116.6,26.75A4.5,4.5,0,0,0,112,31.17s0,.1,0,.14a4.26,4.26,0,0,1,4.51-3.77c1.8,0,4.44,1.44,4.52,3.9s-2.61,4.19-4.48,4.18a5,5,0,0,1-2-.5,5,5,0,0,1-1.84-1.52,5.19,5.19,0,0,0,1.86,1.52,5.09,5.09,0,0,0,1.94.5,4.7,4.7,0,0,0,4.6-4.45A4.58,4.58,0,0,0,116.6,26.75Z" style="fill: #1a1a1a"/>
    <path d="M10.77,41.51A10.56,10.56,0,0,1,0,31.6c0,.13,0,.26,0,.39a10.54,10.54,0,0,0,10.77,10.3h.05v-.78Z" style="fill: url(#linear-gradient-6)"/>
    <path d="M21.54,32c0-.13,0-.26,0-.39a10.55,10.55,0,0,1-10.7,9.91v.78A10.54,10.54,0,0,0,21.54,32Z" style="fill: url(#linear-gradient-7)"/>
    <path d="M21.54,32c0-.13,0-.26,0-.39a10.55,10.55,0,0,1-10.7,9.91v.78A10.54,10.54,0,0,0,21.54,32Z" style="fill: url(#linear-gradient-8)"/>
    <path d="M10.77,21.69h.05v-.78h-.05A10.54,10.54,0,0,0,0,31.21c0,.13,0,.26,0,.39A10.56,10.56,0,0,1,10.77,21.69Z" style="fill: #333030"/>
    <path d="M21.52,31.6c0-.13,0-.26,0-.39a10.54,10.54,0,0,0-10.72-10.3v.78A10.55,10.55,0,0,1,21.52,31.6Z" style="fill: url(#linear-gradient-7)"/>
    <path d="M21.52,31.6c0-.13,0-.26,0-.39a10.54,10.54,0,0,0-10.72-10.3v.78A10.55,10.55,0,0,1,21.52,31.6Z" style="fill: #333030"/>
    <path d="M10.77,41.51h.05V35.68h0a4.48,4.48,0,1,1,0-9h0v-5h-.05A10.56,10.56,0,0,0,0,31.6,10.56,10.56,0,0,0,10.77,41.51Z" style="fill: url(#linear-gradient-10)"/>
    <path d="M10.77,41.51h.05V35.68h0a4.48,4.48,0,1,1,0-9h0v-5h-.05A10.56,10.56,0,0,0,0,31.6,10.56,10.56,0,0,0,10.77,41.51Z" style="fill: #333030"/>
    <path d="M10.82,21.69v5a4.48,4.48,0,1,1,0,9v5.82a10.55,10.55,0,0,0,10.7-9.91A10.55,10.55,0,0,0,10.82,21.69Z" style="fill: url(#linear-gradient-11)"/>
    <path d="M10.82,21.69v5a4.48,4.48,0,1,1,0,9v5.82a10.55,10.55,0,0,0,10.7-9.91A10.55,10.55,0,0,0,10.82,21.69Z" style="fill: url(#linear-gradient-12)"/>
    <path d="M10.82,21.69v5a4.48,4.48,0,1,1,0,9v5.82a10.55,10.55,0,0,0,10.7-9.91A10.55,10.55,0,0,0,10.82,21.69Z" style="fill: #333030"/>
    <path d="M116.6,41.51v.78A10.54,10.54,0,0,0,127.37,32c0-.13,0-.26,0-.39A10.56,10.56,0,0,1,116.6,41.51Z" style="fill: url(#linear-gradient-13)"/>
    <path d="M105.85,31.6c0,.13,0,.26,0,.39a10.54,10.54,0,0,0,10.77,10.3v-.78A10.56,10.56,0,0,1,105.85,31.6Z" style="fill: url(#linear-gradient-14)"/>
    <path d="M105.85,31.6c0,.13,0,.26,0,.39a10.54,10.54,0,0,0,10.77,10.3v-.78A10.56,10.56,0,0,1,105.85,31.6Z" style="fill: #333030"/>
    <path d="M127.35,31.6c0-.13,0-.26,0-.39a10.54,10.54,0,0,0-10.77-10.3v.78A10.56,10.56,0,0,1,127.35,31.6Z" style="fill: #333030"/>
    <path d="M105.83,31.21c0,.13,0,.26,0,.39a10.56,10.56,0,0,1,10.75-9.91v-.78A10.54,10.54,0,0,0,105.83,31.21Z" style="fill: url(#linear-gradient-14)"/>
    <path d="M105.83,31.21c0,.13,0,.26,0,.39a10.56,10.56,0,0,1,10.75-9.91v-.78A10.54,10.54,0,0,0,105.83,31.21Z" style="fill: #333030"/>
    <path d="M116.6,21.69v5.06a4.42,4.42,0,1,1,0,8.84v5.92a10.56,10.56,0,0,0,10.75-9.91A10.56,10.56,0,0,0,116.6,21.69Z" style="fill: #333030"/>
    <path d="M116.6,21.69v5.06a4.42,4.42,0,1,1,0,8.84v5.92a10.56,10.56,0,0,0,10.75-9.91A10.56,10.56,0,0,0,116.6,21.69Z" style="fill: #333030"/>
    <path d="M112,31.17a4.5,4.5,0,0,1,4.58-4.42V21.69a10.56,10.56,0,0,0-10.75,9.91,10.56,10.56,0,0,0,10.75,9.91V35.59A4.5,4.5,0,0,1,112,31.17Z" style="fill: url(#linear-gradient-16)"/>
    <path d="M112,31.17a4.5,4.5,0,0,1,4.58-4.42V21.69a10.56,10.56,0,0,0-10.75,9.91,10.56,10.56,0,0,0,10.75,9.91V35.59A4.5,4.5,0,0,1,112,31.17Z" style="fill: url(#linear-gradient-17)"/>
    <path d="M112,31.17a4.5,4.5,0,0,1,4.58-4.42V21.69a10.56,10.56,0,0,0-10.75,9.91,10.56,10.56,0,0,0,10.75,9.91V35.59A4.5,4.5,0,0,1,112,31.17Z" style="fill: #333030"/>
    <path d="M10.82,26.73a4.56,4.56,0,0,0-4.64,4.48s0,.1,0,.15a4.31,4.31,0,0,1,4.56-3.82c1.82,0,4.5,1.46,4.58,3.95s-2.64,4.24-4.54,4.23a5,5,0,0,1-2-.51A5.09,5.09,0,0,1,7,33.67a5.26,5.26,0,0,0,1.88,1.54,5.16,5.16,0,0,0,2,.51c1.87,0,4.67-1.65,4.66-4.51A4.64,4.64,0,0,0,10.82,26.73Z" style="fill: #1a1a1a"/>
    <rect height="8.12" style="fill: #212121" width="23" x="23.27" y="4.15"/>
    <ellipse cx="90.35" cy="20.09" rx="11.41" ry="11.14" style="fill: url(#linear-gradient-18)"/>
    <path d="M27.79,25.67c0,.14,0,.28,0,.43a6.89,6.89,0,0,0,3,5.68h1.68A7,7,0,0,1,27.79,25.67Z" style="fill: url(#linear-gradient-19)"/>
    <path d="M42,26.1c0-.14,0-.28,0-.43a7,7,0,0,1-4.68,6.11H39A6.89,6.89,0,0,0,42,26.1Z" style="fill: url(#linear-gradient-20)"/>
    <path d="M32.48,31.78h4.84A7,7,0,0,0,42,25.67a7.13,7.13,0,0,0-14.21,0A7,7,0,0,0,32.48,31.78Z" style="fill: url(#radial-gradient)"/>
    <path d="M32.48,31.78h4.84A7,7,0,0,0,42,25.67a7.13,7.13,0,0,0-14.21,0A7,7,0,0,0,32.48,31.78Z" style="fill: url(#linear-gradient-21)"/>
    <polygon points="82.9 34.4 98.44 34.4 102.44 30.2 82.9 34.4" style="fill: none"/>
    <polygon points="83.33 9.69 78.3 14.87 78.3 6.65 83.38 1.58 83.33 9.69" style="fill: #212121"/>
    <path d="M97.17,9.68l5.29,4.88V6.4L97.15,1.57Z" style="fill: #212121"/>
    <rect height="3.32" style="fill: #404040" width="10.72" x="10.82" y="42.44"/>
    <rect height="3.33" style="fill: #404040" width="84.29" x="21.54" y="47.17"/>
    <rect height="3.32" style="fill: #404040" width="10.72" x="105.75" y="42.44"/>
    <rect height="7.3" style="fill: #404040" width="30.65" x="46.17" y="37.67"/>
    <rect height="6.94" style="fill: #e8e8e8" width="21.65" x="50.68" y="47.02"/>
    <rect height="46" style="fill: #ffe100" width="2.38" x="53.12" y="48.84"/>
    <rect height="46" width="2.38" x="60.32" y="48.84"/>
    <rect height="46" style="fill: #ff3b3b" width="2.38" x="67.52" y="48.84"/>
    <rect height="7.79" style="fill: #d0d2d3" width="21.65" x="50.68" y="39.23"/>
  </g>
  <g id="Connectors">
    <rect data-cir-type="male" height="2.29" id="circuitoCon_Vout" style="fill: none" width="2.38" x="53.12" y="92.55"/>
    <rect data-cir-type="male" height="2.29" id="circuitoCon_GND" style="fill: none" width="2.38" x="60.32" y="92.55"/>
    <rect data-cir-type="male" height="2.29" id="circuitoCon_Vcc" style="fill: none" width="2.38" x="67.52" y="92.55"/>
  </g>
</svg>