<?xml version="1.0" ?><svg height="16.08mm" viewBox="0 0 5.47 45.59" width="1.93mm" xmlns="http://www.w3.org/2000/svg" xmlns:xlink="http://www.w3.org/1999/xlink">
  <defs>
    <linearGradient gradientUnits="userSpaceOnUse" id="linear-gradient" x1="2.73" x2="2.73" y1="5.06" y2="5.06">
      <stop offset="0" stop-color="#fff"/>
      <stop offset="1"/>
    </linearGradient>
    <linearGradient gradientUnits="userSpaceOnUse" id="linear-gradient-2" x1="1.53" x2="3.94" y1="5.06" y2="5.06">
      <stop offset="0.01" stop-color="#7f7f7f"/>
      <stop offset="0.53" stop-color="#fff"/>
      <stop offset="1" stop-color="#616161"/>
    </linearGradient>
    <linearGradient id="linear-gradient-3" x1="2.73" x2="2.73" xlink:href="#linear-gradient" y1="40.53" y2="40.53"/>
    <linearGradient id="linear-gradient-4" x1="1.53" x2="3.94" xlink:href="#linear-gradient-2" y1="40.53" y2="40.53"/>
    <linearGradient gradientTransform="translate(247.11 -150.03) rotate(90)" gradientUnits="userSpaceOnUse" id="linear-gradient-5" x1="172.24" x2="172.24" y1="247.11" y2="241.64">
      <stop offset="0.04" stop-color="#daeddf"/>
      <stop offset="0.33" stop-color="#d9ebe1"/>
      <stop offset="0.47" stop-color="#d5e4e8"/>
      <stop offset="0.6" stop-color="#d1e6da"/>
      <stop offset="0.75" stop-color="#cfe7d2"/>
      <stop offset="1" stop-color="#cee7cf"/>
    </linearGradient>
    <linearGradient data-name="Neutral 3" gradientTransform="translate(221.21 276.59) rotate(-90)" gradientUnits="userSpaceOnUse" id="Neutral_3" x1="261.48" x2="261.48" y1="-217.69" y2="-220.15">
      <stop offset="0" stop-color="#fff"/>
      <stop offset="0.15" stop-color="#939393"/>
      <stop offset="0.44" stop-color="#fff"/>
      <stop offset="0.74" stop-color="#d6d6d6"/>
      <stop offset="1" stop-color="#fff"/>
    </linearGradient>
    <linearGradient gradientTransform="translate(247.11 -150.03) rotate(90)" id="Neutral_3-2" x1="179.14" x2="179.14" xlink:href="#Neutral_3" y1="245.47" y2="243.01"/>
    <linearGradient gradientTransform="translate(247.11 -150.03) rotate(90)" gradientUnits="userSpaceOnUse" id="linear-gradient-6" x1="172.24" x2="172.24" y1="246.35" y2="242.39">
      <stop offset="0.04" stop-color="#daeddf"/>
      <stop offset="0.33" stop-color="#d9ebe1"/>
      <stop offset="0.47" stop-color="#d5e4e8"/>
      <stop offset="0.5" stop-color="#d0e3e3"/>
      <stop offset="0.62" stop-color="#c2e1d6"/>
      <stop offset="0.76" stop-color="#badfce"/>
      <stop offset="1" stop-color="#b7dfcc"/>
    </linearGradient>
  </defs>
  <title>Reed Switch</title>
  <g style="isolation: isolate">
    <g data-name="Layer 2" id="Layer_2">
      <line style="stroke-miterlimit: 10;stroke-width: 2.40944886207581px;fill: url(#linear-gradient);stroke: url(#linear-gradient-2)" x1="2.73" x2="2.73" y2="10.12"/>
      <line style="stroke-miterlimit: 10;stroke-width: 2.40944886207581px;fill: url(#linear-gradient-3);stroke: url(#linear-gradient-4)" x1="2.73" x2="2.73" y1="35.48" y2="45.59"/>
      <path d="M.75,37.81V6.75c1.51-3.1,2.81-2.72,4,0V37.81Q2.73,41.92.75,37.81Z" style="fill: #fff"/>
      <path d="M0,35.5V9C2.08,6.4,3.87,6.73,5.47,9V35.5Q2.73,39,0,35.5Z" style="mix-blend-mode: soft-light;fill: url(#linear-gradient-5)"/>
      <line style="fill: #3b4299" x1="0.52" x2="4.94" y1="8.72" y2="8.72"/>
      <path d="M3,18.74v3.58l-1.34.22L1.36,19ZM1.86,8a3.84,3.84,0,0,1-.16,2.15A13.92,13.92,0,0,0,1.06,15a18.48,18.48,0,0,0,.3,4l1.91-.27S4,12.58,3,10A4.62,4.62,0,0,1,3,7.86.78.78,0,0,0,1.86,8Z" style="fill: url(#Neutral_3)"/>
      <path d="M2.18,25.49V21.91l1.34-.22.27,3.53ZM3.3,36.21a3.84,3.84,0,0,1,.16-2.15,13.92,13.92,0,0,0,.63-4.79,18.48,18.48,0,0,0-.3-4l-1.91.27s-.71,6.16.3,8.69a4.62,4.62,0,0,1,0,2.19A.78.78,0,0,0,3.3,36.21Z" style="fill: url(#Neutral_3-2)"/>
      <path d="M.75,37.81V6.75c1.51-3.1,2.81-2.72,4,0V37.81Q2.73,41.92.75,37.81Z" style="mix-blend-mode: multiply;fill: url(#linear-gradient-6)"/>
      <path d="M0,35.5V9C2.08,6.4,3.87,6.73,5.47,9V35.5Q2.73,39,0,35.5Z" style="opacity: 0.47000000000000003;mix-blend-mode: multiply;fill: url(#linear-gradient-5)"/>
    </g>
    <g id="Connectors">
      <rect data-cir-type="male" height="2.35" id="circuitoCon_1" style="fill: none" width="2.43" x="1.51"/>
      <rect data-cir-type="male" height="2.35" id="circuitoCon_2" style="fill: none" width="2.43" x="1.51" y="43.24"/>
    </g>
  </g>
</svg>