<?xml version="1.0" ?><svg data-name="Layer 10" height="57.99mm" id="Layer_10" viewBox="0 0 62.24 164.38" width="21.96mm" xmlns="http://www.w3.org/2000/svg">
  <title>Soil Moisture Sensor</title>
  <g data-name="BACKROUND RED" id="BACKROUND_RED">
    <circle cx="55" cy="7.11" r="4.93" style="fill: none"/>
    <circle cx="7.17" cy="7.11" r="4.93" style="fill: none"/>
    <path d="M20.38,59a4,4,0,0,0,4,4H37.53a4,4,0,0,0,4-4V55.67H20.38Z" style="fill: none"/>
    <path d="M53.37,0H9A8.88,8.88,0,0,0,.12,8.88V44.5H20.54A4,4,0,0,1,24.46,41H37.65a4,4,0,0,1,3.92,3.5H62.24V8.88A8.88,8.88,0,0,0,53.37,0ZM7.17,12a4.93,4.93,0,1,1,4.93-4.93A4.93,4.93,0,0,1,7.17,12Zm13.61-.79a1.74,1.74,0,1,1,1.75-1.74A1.74,1.74,0,0,1,20.78,11.25Zm2.8,7.66a1.5,1.5,0,1,1,1.5-1.5A1.5,1.5,0,0,1,23.58,18.9Zm7.2,0a1.5,1.5,0,1,1,1.5-1.5A1.5,1.5,0,0,1,30.78,18.9Zm-.1-7.66a1.74,1.74,0,1,1,1.75-1.74A1.74,1.74,0,0,1,30.67,11.25ZM38,18.9a1.5,1.5,0,1,1,1.5-1.5A1.5,1.5,0,0,1,38,18.9Zm2.7-7.66a1.74,1.74,0,1,1,1.75-1.74A1.74,1.74,0,0,1,40.67,11.25ZM55,12a4.93,4.93,0,1,1,4.93-4.93A4.93,4.93,0,0,1,55,12Z" style="fill: #cf2f27"/>
  </g>
  <g id="TEXT">
    <g>
      <path d="M20,2.86a.53.53,0,0,1,.1.3.37.37,0,0,1-.37.41h-.65a.38.38,0,0,1-.3-.12.5.5,0,0,1-.14-.34c0-.12.05-.22.16-.22S19,3,19,3.08s0,.12.13.12h.64s.1,0,.1,0,0-.08-.05-.11l-1-1.61a.5.5,0,0,1-.1-.3A.43.43,0,0,1,18.82.8a.34.34,0,0,1,.25-.07h.63A.37.37,0,0,1,20,.86a.54.54,0,0,1,.14.35c0,.12,0,.21-.15.21s-.14-.07-.14-.17-.05-.14-.14-.14h-.63s-.1,0-.1.05a.26.26,0,0,0,0,.1Z" style="fill: #fff"/>
      <path d="M21.67,3.21h.44c.08,0,.15.05.15.18s-.07.18-.15.18H20.94c-.08,0-.15-.05-.15-.18s.07-.18.15-.18h.44V1.1h-.44c-.08,0-.15-.05-.15-.18s.07-.18.15-.18h1.17c.08,0,.15.05.15.18s-.07.18-.15.18h-.44Z" style="fill: #fff"/>
      <path d="M23.8,2.65c-.08,0-.15-.05-.15-.18s.07-.18.15-.18h.58V3c0,.35-.19.57-.47.57H23.4a.4.4,0,0,1-.34-.15A.6.6,0,0,1,22.92,3V2.07a.85.85,0,0,1,.15-.53L23.43,1a.43.43,0,0,1,.41-.25h.4c.08,0,.15.05.15.18s-.07.18-.15.18h-.36c-.16,0-.15,0-.25.15l-.32.51a.82.82,0,0,0-.09.47v.71c0,.2,0,.26.2.26h.47c.11,0,.2,0,.2-.19V2.65Z" style="fill: #fff"/>
    </g>
    <g>
      <path d="M4.5,38.55a.69.69,0,0,1,.14.39.48.48,0,0,1-.49.54H3.29a.51.51,0,0,1-.39-.15.65.65,0,0,1-.18-.44c0-.15.07-.28.21-.28s.18.11.18.24.06.16.17.16h.84s.13,0,.13-.06-.05-.11-.07-.14L2.84,36.72a.64.64,0,0,1-.13-.39.56.56,0,0,1,.21-.46.45.45,0,0,1,.32-.09h.83a.49.49,0,0,1,.38.16.7.7,0,0,1,.18.45c0,.15-.06.27-.2.27s-.19-.09-.19-.22-.07-.19-.19-.19H3.23s-.13,0-.13.07a.33.33,0,0,0,.06.13Z" style="fill: #fff"/>
      <path d="M5.56,37.78a.67.67,0,0,1,.24-.59.61.61,0,0,1,.53-.26h.3a.61.61,0,0,1,.53.26.66.66,0,0,1,.24.59v.86a.71.71,0,0,1-.26.61.57.57,0,0,1-.51.24h-.3a.57.57,0,0,1-.51-.24.71.71,0,0,1-.26-.61Zm.37.86a.35.35,0,0,0,.14.27.31.31,0,0,0,.26.12h.3a.31.31,0,0,0,.26-.12A.35.35,0,0,0,7,38.63v-.86a.35.35,0,0,0-.14-.27.31.31,0,0,0-.26-.12h-.3a.31.31,0,0,0-.26.12.35.35,0,0,0-.14.27Z" style="fill: #fff"/>
      <path d="M9.47,39h.28c.12,0,.26,0,.26.23s-.15.23-.26.23H8.8c-.11,0-.26,0-.26-.23S8.68,39,8.8,39h.3V37.38H8.8c-.11,0-.26,0-.26-.23s.13-.23.26-.23h.39c.21,0,.28,0,.28.32Zm-.56-3c0-.16.07-.21.17-.21h.21c.1,0,.17.05.17.21v.22c0,.16-.07.21-.17.21H9.08c-.1,0-.17-.05-.17-.21Z" style="fill: #fff"/>
      <path d="M12.27,39h.28c.12,0,.26,0,.26.23s-.15.23-.26.23H11.6c-.11,0-.26,0-.26-.23s.13-.23.26-.23h.3V36.44h-.3c-.11,0-.26,0-.26-.23s.13-.23.26-.23H12c.21,0,.28,0,.28.32Z" style="fill: #fff"/>
    </g>
    <g>
      <path d="M18.09,35.79h.49v3.45c0,.15-.06.24-.2.24s-.2-.09-.2-.24v-2.8h0l-.38.67v.08c0,.15,0,.28-.2.28s-.2-.14-.2-.28v-.08L17,36.45h0v2.8c0,.15-.06.24-.2.24s-.2-.09-.2-.24V35.79h.49l.48.83Z" style="fill: #fff"/>
      <path d="M19.53,37.78a.66.66,0,0,1,.24-.59.63.63,0,0,1,.54-.26h.3a.62.62,0,0,1,.54.26.66.66,0,0,1,.24.59v.86a.71.71,0,0,1-.26.61.58.58,0,0,1-.52.24h-.3a.58.58,0,0,1-.52-.24.71.71,0,0,1-.26-.61Zm.38.86a.35.35,0,0,0,.14.27.32.32,0,0,0,.26.12h.3a.32.32,0,0,0,.26-.12.35.35,0,0,0,.14-.27v-.86a.35.35,0,0,0-.14-.27.32.32,0,0,0-.26-.12h-.3a.32.32,0,0,0-.26.12.35.35,0,0,0-.14.27Z" style="fill: #fff"/>
      <path d="M23.49,39h.28c.13,0,.26,0,.26.23s-.15.23-.26.23h-1c-.11,0-.26,0-.26-.23s.13-.23.26-.23h.3V37.38h-.3c-.11,0-.26,0-.26-.23s.13-.23.26-.23h.4c.22,0,.28,0,.28.32Zm-.57-3c0-.16.08-.21.18-.21h.22c.1,0,.18.05.18.21v.22c0,.16-.07.21-.18.21H23.1c-.1,0-.18-.05-.18-.21Z" style="fill: #fff"/>
      <path d="M25.86,37.38c-.08,0-.21,0-.21.13s0,.1.1.13l.95.52a.66.66,0,0,1,.37.65.6.6,0,0,1-.62.68h-.58a.6.6,0,0,1-.47-.14c-.07-.07-.17-.15-.17-.27a.21.21,0,0,1,.2-.23.17.17,0,0,1,.15.08.35.35,0,0,0,.3.1h.51c.13,0,.32,0,.32-.25,0-.11-.11-.18-.2-.23l-.89-.49a.56.56,0,0,1-.33-.56.53.53,0,0,1,.52-.58h.65a.49.49,0,0,1,.44.16c.07.07.15.13.15.26a.21.21,0,0,1-.19.23.19.19,0,0,1-.16-.1.25.25,0,0,0-.23-.09Z" style="fill: #fff"/>
      <path d="M28.82,38.63c0,.26,0,.4.25.4h.19c.15,0,.23,0,.27-.2a.21.21,0,0,1,.19-.19.21.21,0,0,1,.19.23.76.76,0,0,1-.13.38.56.56,0,0,1-.52.23h-.19a.57.57,0,0,1-.49-.23,1,1,0,0,1-.14-.64V37.38h-.12c-.11,0-.26,0-.26-.23s.13-.23.26-.23h.12v-.47c0-.16,0-.31.19-.31s.19.16.19.31v.47h.64c.13,0,.26,0,.26.23s-.15.23-.26.23h-.64Z" style="fill: #fff"/>
      <path d="M32.76,39.15c0,.1,0,.34-.19.34s-.19-.16-.19-.32v-.08l-.31.24a.57.57,0,0,1-.33.15h-.28a.48.48,0,0,1-.35-.17.81.81,0,0,1-.17-.62l0-1.43c0-.17,0-.34.19-.34s.18.17.19.31l0,1.4a.91.91,0,0,0,0,.29.24.24,0,0,0,.22.09h.13a.19.19,0,0,0,.12,0l.56-.42V37.24c0-.16,0-.31.19-.31s.19.16.19.31Z" style="fill: #fff"/>
      <path d="M33.74,37.26c0-.17,0-.34.19-.34s.19.15.19.3v.19l.3-.29a.53.53,0,0,1,.34-.19h.3a.46.46,0,0,1,.37.18.74.74,0,0,1,.17.52c0,.16,0,.32-.19.32s-.19-.13-.19-.28a.35.35,0,0,0,0-.2c0-.08-.14-.08-.23-.08h-.11a.27.27,0,0,0-.19.11l-.53.53v1.15c0,.16,0,.31-.19.31s-.19-.16-.19-.31Z" style="fill: #fff"/>
      <path d="M37.28,39.48a.36.36,0,0,1-.34-.12l-.16-.17a.62.62,0,0,1-.19-.51V37.8a.66.66,0,0,1,.19-.55l.13-.14a.46.46,0,0,1,.42-.19h.35a.49.49,0,0,1,.42.17l.15.15a.71.71,0,0,1,.2.59v.37c0,.26,0,.34-.26.34H37v.15a.24.24,0,0,0,.06.13l.09.12c.05.07.13.09.25.09h.81c.13,0,.26,0,.26.23s-.15.23-.26.23ZM37,38.08h1.1V37.8a.3.3,0,0,0,0-.21l-.15-.15a.23.23,0,0,0-.18-.06h-.32a.26.26,0,0,0-.19.05l-.13.11a.22.22,0,0,0-.08.21Z" style="fill: #fff"/>
    </g>
    <g>
      <path d="M44.51,38.55a.65.65,0,0,1,.15.39.5.5,0,0,1-.54.54h-.94a.59.59,0,0,1-.43-.15.63.63,0,0,1-.2-.44c0-.15.08-.28.23-.28a.22.22,0,0,1,.2.24c0,.14.07.16.19.16h.93s.14,0,.14-.06-.06-.11-.08-.14l-1.47-2.09a.61.61,0,0,1-.14-.39.55.55,0,0,1,.23-.46.53.53,0,0,1,.36-.09H44a.57.57,0,0,1,.42.16.67.67,0,0,1,.2.45c0,.15-.07.27-.22.27a.2.2,0,0,1-.21-.22c0-.16-.07-.19-.21-.19h-.91s-.14,0-.14.07,0,.1.06.13Z" style="fill: #fff"/>
      <path d="M46.42,39.48a.41.41,0,0,1-.37-.12l-.18-.17a.59.59,0,0,1-.21-.51V37.8a.63.63,0,0,1,.2-.55l.14-.14a.52.52,0,0,1,.45-.19h.38a.55.55,0,0,1,.45.17l.17.15a.68.68,0,0,1,.21.59v.37c0,.26,0,.34-.28.34H46.08v.15a.23.23,0,0,0,.06.13l.1.12c.06.07.14.09.27.09h.88c.14,0,.28,0,.28.23s-.16.23-.28.23Zm-.34-1.4h1.19V37.8a.28.28,0,0,0-.05-.21l-.16-.15a.27.27,0,0,0-.2-.06h-.35a.3.3,0,0,0-.21.05l-.14.11c-.05,0-.09.08-.09.21Z" style="fill: #fff"/>
      <path d="M49.16,37.85v1.32c0,.16,0,.31-.21.31s-.21-.16-.21-.31V37.26c0-.17,0-.34.21-.34s.21.17.21.33v.05h0l.33-.24a.64.64,0,0,1,.35-.15h.3a.49.49,0,0,1,.38.17.77.77,0,0,1,.18.62l0,1.43c0,.16,0,.34-.2.34s-.2-.16-.21-.31l0-1.4c0-.28,0-.39-.28-.39h-.14a.23.23,0,0,0-.13,0Z" style="fill: #fff"/>
      <path d="M52.52,37.38c-.09,0-.23,0-.23.13s.05.1.11.13l1,.52a.65.65,0,0,1,.4.65.62.62,0,0,1-.67.68h-.63a.68.68,0,0,1-.51-.14c-.08-.07-.19-.15-.19-.27a.22.22,0,0,1,.21-.23.19.19,0,0,1,.16.08.4.4,0,0,0,.33.1h.55c.15,0,.34,0,.34-.25,0-.11-.12-.18-.21-.23l-1-.49a.56.56,0,0,1-.36-.56.55.55,0,0,1,.56-.58h.7a.56.56,0,0,1,.47.16c.08.07.16.13.16.26a.22.22,0,0,1-.21.23.21.21,0,0,1-.18-.1.28.28,0,0,0-.25-.09Z" style="fill: #fff"/>
      <path d="M54.9,37.78a.64.64,0,0,1,.26-.59.7.7,0,0,1,.58-.26h.32a.7.7,0,0,1,.58.26.64.64,0,0,1,.26.59v.86a.69.69,0,0,1-.28.61.65.65,0,0,1-.56.24h-.32a.65.65,0,0,1-.56-.24.69.69,0,0,1-.28-.61Zm.41.86c0,.1,0,.16.15.27a.36.36,0,0,0,.28.12h.32a.36.36,0,0,0,.28-.12c.12-.11.15-.18.15-.27v-.86c0-.09,0-.16-.15-.27a.36.36,0,0,0-.28-.12h-.32a.36.36,0,0,0-.28.12c-.12.11-.15.18-.15.27Z" style="fill: #fff"/>
      <path d="M58,37.26c0-.17,0-.34.21-.34s.21.15.21.3v.19l.32-.29a.59.59,0,0,1,.36-.19h.33a.51.51,0,0,1,.4.18.71.71,0,0,1,.18.52c0,.16,0,.32-.2.32s-.21-.13-.21-.28a.32.32,0,0,0,0-.2c-.05-.08-.15-.08-.25-.08h-.12a.3.3,0,0,0-.21.11l-.57.53v1.15c0,.16,0,.31-.21.31s-.21-.16-.21-.31Z" style="fill: #fff"/>
    </g>
    <g>
      <path d="M28.64,2.65a.16.16,0,0,1-.16-.18.16.16,0,0,1,.16-.18h.65V3a.52.52,0,0,1-.52.57h-.56a.47.47,0,0,1-.38-.15A.56.56,0,0,1,27.66,3V2.07a.79.79,0,0,1,.17-.53L28.22,1a.49.49,0,0,1,.46-.25h.44a.16.16,0,0,1,.16.18.16.16,0,0,1-.16.18h-.39c-.18,0-.17,0-.28.15l-.36.51a.75.75,0,0,0-.1.47v.71c0,.2,0,.26.23.26h.52c.12,0,.22,0,.22-.19V2.65Z" style="fill: #fff"/>
      <path d="M31.32.92c0-.12,0-.18.16-.18s.16.07.16.18V3.58h-.43l-.86-2.19h0v2c0,.12,0,.18-.16.18S30,3.51,30,3.39V.74h.43L31.32,3h0Z" style="fill: #fff"/>
      <path d="M32.71,1.1h-.12c-.11,0-.2,0-.2-.18a.17.17,0,0,1,.19-.18h.55a.49.49,0,0,1,.5.36l.29.64a.94.94,0,0,1,.1.42,1,1,0,0,1-.09.4l-.3.66a.49.49,0,0,1-.52.34h-.54a.16.16,0,0,1-.16-.18.16.16,0,0,1,.16-.18h.16ZM33,3.21h.06c.14,0,.17,0,.23-.15l.29-.65a.55.55,0,0,0,.06-.24.66.66,0,0,0-.08-.3l-.27-.62c-.07-.16-.1-.15-.25-.15h0Z" style="fill: #fff"/>
    </g>
    <g>
      <path d="M38.37,1.5V.92c0-.12,0-.18.16-.18s.16.07.16.18v.58a.41.41,0,0,1,0,.14l-.63,1.78c0,.09-.06.16-.16.16s-.13-.07-.16-.16L37.1,1.64a.41.41,0,0,1,0-.14V.92c0-.12,0-.18.16-.18s.16.07.16.18V1.5l.48,1.39Z" style="fill: #fff"/>
      <path d="M40.33,3.57a.49.49,0,0,1-.49-.35l-.3-.68a.88.88,0,0,1-.09-.38.87.87,0,0,1,.09-.4l.3-.67a.49.49,0,0,1,.5-.35h.56a.16.16,0,0,1,.16.18.16.16,0,0,1-.16.18h-.55c-.14,0-.16,0-.23.15l-.29.63a.62.62,0,0,0-.07.28.55.55,0,0,0,.07.25l.28.63c.07.15.1.16.25.16h.53a.16.16,0,0,1,.16.18.16.16,0,0,1-.16.18Z" style="fill: #fff"/>
      <path d="M42.69,3.57a.49.49,0,0,1-.49-.35l-.3-.68a.89.89,0,0,1-.09-.38.87.87,0,0,1,.09-.4l.3-.67a.49.49,0,0,1,.51-.35h.56a.16.16,0,0,1,.16.18.16.16,0,0,1-.16.18h-.55c-.14,0-.16,0-.23.15l-.29.63a.61.61,0,0,0-.07.28.55.55,0,0,0,.07.25l.28.63c.07.15.1.16.25.16h.54a.16.16,0,0,1,.16.18.16.16,0,0,1-.16.18Z" style="fill: #fff"/>
    </g>
    <path d="M33.27,22.32,33,22.5a.3.3,0,0,0-.09.37.66.66,0,0,0,.76.34.57.57,0,0,0,.51-.61.77.77,0,0,0-.25-.45,5.24,5.24,0,0,1-.43-.49.9.9,0,0,1-.2-.7,1.07,1.07,0,0,1,.79-.81,1.35,1.35,0,0,1,1.24.24,2.87,2.87,0,0,0-.35,0,.48.48,0,0,0-.28.82,1.64,1.64,0,0,0,.52.38c.29.14.48,0,.49-.33,0,0,0,0,0-.11a2.77,2.77,0,0,1,.31.24,2,2,0,0,1,.51,1.22A2.37,2.37,0,0,1,34,25.23a1,1,0,0,0-.79.33l-1.17,1.3L32,27c0-.07,0-.11,0-.16q0-1.7,0-3.41A2,2,0,0,1,32,23,1,1,0,0,1,33.27,22.32Z" style="fill: #fff"/>
    <g>
      <path d="M19.38,27.86v.44h0a1.59,1.59,0,0,1,2.48.09,2.63,2.63,0,0,1,0,2.81,1.58,1.58,0,0,1-2,.45,1.4,1.4,0,0,1-.24-.17c-.07-.06-.14-.14-.22-.23V34l0,0-.14-.12-.82-.73a.25.25,0,0,1-.07-.16q0-2.42,0-4.84c0-.06,0-.12.08-.13l.85-.15Zm1.9,2a2.19,2.19,0,0,0-.23-.86.8.8,0,0,0-.75-.42.76.76,0,0,0-.73.44,1.82,1.82,0,0,0,0,1.59.78.78,0,0,0,.78.45.77.77,0,0,0,.76-.5A5.71,5.71,0,0,0,21.29,29.81Z" style="fill: #fff"/>
      <path d="M30.83,26.36v2.86L31,29.1l1.14-1.18a.32.32,0,0,1,.2-.09h1.13L32,29.26l1.62,2.44H32.43a.18.18,0,0,1-.18-.1l-.91-1.49L31.24,30l-.38.38a.21.21,0,0,0,0,.13c0,.35,0,.7,0,1.06,0,0,0,.1,0,.16H29.78s0-.1,0-.14q0-2.24,0-4.48a.2.2,0,0,1,.12-.2Z" style="fill: #fff"/>
      <path d="M22.75,29a1.18,1.18,0,0,1,.68-1,2.34,2.34,0,0,1,1.08-.23,2.61,2.61,0,0,1,1.22.21.9.9,0,0,1,.53.86c0,.62,0,1.23,0,1.85a3.1,3.1,0,0,0,.12,1.05h-.92c-.11,0-.16,0-.17-.14s0-.13,0-.21h0a1.88,1.88,0,0,1-1.76.37,1,1,0,0,1-.81-1,1,1,0,0,1,.72-1.08,10,10,0,0,1,1.12-.21,4.78,4.78,0,0,0,.47-.1A.33.33,0,0,0,25.2,29a.44.44,0,0,0-.24-.46,1,1,0,0,0-.86,0,.57.57,0,0,0-.3.49Zm2.44.85-.64.13a4,4,0,0,0-.59.15.46.46,0,0,0-.27.54.43.43,0,0,0,.39.39,1.53,1.53,0,0,0,.35,0,.72.72,0,0,0,.76-.7A4.26,4.26,0,0,0,25.19,29.86Z" style="fill: #fff"/>
      <path d="M38.91,27.84h1v3.85H39v-.51l0,0a1.43,1.43,0,0,1-1.5.58,1.11,1.11,0,0,1-1-1.09,5.58,5.58,0,0,1,0-.57c0-.71,0-1.42,0-2.13v-.16H37.4V28c0,.67,0,1.33,0,2a2.72,2.72,0,0,0,0,.33.72.72,0,0,0,1.42.12,3,3,0,0,0,.07-.62c0-.61,0-1.21,0-1.82C38.91,28,38.91,27.9,38.91,27.84Z" style="fill: #fff"/>
      <path d="M43.14,31.69v-.16c0-.66,0-1.32,0-2a2.84,2.84,0,0,0,0-.37c-.08-.6-.44-.67-.88-.6a.63.63,0,0,0-.54.53,2.26,2.26,0,0,0-.06.49c0,.64,0,1.29,0,1.93,0,.05,0,.1,0,.16H40.58V27.84h1v.52l0,0a1.43,1.43,0,0,1,1.5-.58,1.11,1.11,0,0,1,1,1.21c0,.9,0,1.8,0,2.7v0Z" style="fill: #fff"/>
      <path d="M14.37,30.45h1a.63.63,0,0,1,0,.08.61.61,0,0,0,.45.51,1.05,1.05,0,0,0,.7,0,.68.68,0,0,0,.24-.14.35.35,0,0,0-.07-.59,4.47,4.47,0,0,0-.69-.24c-.31-.09-.64-.16-.95-.27a.83.83,0,0,1-.6-.76,1.07,1.07,0,0,1,.44-1,1.67,1.67,0,0,1,.82-.28,2.82,2.82,0,0,1,1.33.12,1.18,1.18,0,0,1,.78.95s0,.08,0,.13h-1l0-.07a.48.48,0,0,0-.46-.42,2.88,2.88,0,0,0-.62,0,.27.27,0,0,0-.24.26.29.29,0,0,0,.16.33,6,6,0,0,0,.67.22c.28.08.57.13.84.22a1,1,0,0,1,.75.85,1.11,1.11,0,0,1-.61,1.18,2.45,2.45,0,0,1-2.49-.11A1.14,1.14,0,0,1,14.37,30.45Z" style="fill: #fff"/>
      <path d="M34.26,27.85c0-.16,0-.3,0-.43a1,1,0,0,1,1-1c.27,0,.55,0,.84,0v.78h-.42a.32.32,0,0,0-.36.35c0,.1,0,.2,0,.32H36v.72h-.72v3.15H34.25V28.54h-1l.45-.46C33.82,27.92,34,27.76,34.26,27.85Z" style="fill: #fff"/>
      <path d="M26.87,28l1-.17v.68h0l.06-.11a1.33,1.33,0,0,1,1.24-.68c.12,0,.17,0,.16.18s0,.54,0,.81a5.08,5.08,0,0,0-.53,0,.92.92,0,0,0-.88.9c0,.32,0,.65,0,1s0,.73,0,1.1H26.87Z" style="fill: #fff"/>
    </g>
    <path d="M5.33,17.65s0,.07.06.11a1.39,1.39,0,0,1-.14-.36A1.41,1.41,0,0,0,5.33,17.65Z" style="fill: none"/>
    <path d="M5.42,17.82a1.45,1.45,0,0,0,.94.69v0A1.42,1.42,0,0,1,5.42,17.82Z" style="fill: none"/>
    <path d="M8.06,17.11A1.41,1.41,0,0,1,7,18.47v0l.19-.06a1.44,1.44,0,0,0-1.08-2.67,1.32,1.32,0,0,0-.18.12,1.4,1.4,0,0,1,2.12,1.21Z" style="fill: none"/>
    <path d="M9.51,18a.19.19,0,0,1,.18-.15l1.09-.17c0-.3,0-.59,0-.89,0-.12,0-.15-.14-.16l-1-.17a.25.25,0,0,1-.14-.13c-.09-.2-.15-.4-.24-.6a.18.18,0,0,1,0-.22l.57-.8s.05-.13,0-.15c-.22-.24-.44-.46-.66-.69l-.9.63a.25.25,0,0,1-.2,0c-.22-.08-.43-.17-.64-.27a.21.21,0,0,1-.11-.13c-.06-.33-.11-.67-.17-1,0,0,0-.11-.08-.11l-1,0c-.07.38-.13.73-.19,1.08a.18.18,0,0,1-.14.16,4.48,4.48,0,0,0-.57.22.24.24,0,0,1-.29,0l-.85-.63-.64.62a.13.13,0,0,0,0,.2c.18.25.34.51.52.76a.24.24,0,0,1,0,.3,2.34,2.34,0,0,0-.22.5.25.25,0,0,1-.24.21c-.34,0-.69.1-1,.16v1l1.08.21a.25.25,0,0,1,.15.13c.09.2.15.4.24.6a.21.21,0,0,1,0,.26q-.29.38-.56.77a.16.16,0,0,0,0,.15c.21.23.43.45.65.67l.1-.06.8-.55a.2.2,0,0,1,.24,0,4,4,0,0,0,.45.19l.71-1.39a1.45,1.45,0,0,1-.94-.69l0-.06s0-.07-.06-.11a1.41,1.41,0,0,1-.07-.25h0a1.43,1.43,0,0,1,0-.2s0-.06,0-.09h0s0-.08,0-.12a1.28,1.28,0,0,1,.36-.81A1.42,1.42,0,0,1,5.78,16l.17-.11a1.32,1.32,0,0,1,.18-.12A1.44,1.44,0,0,1,7.2,18.44L7,18.5,7.52,20a3.44,3.44,0,0,0,.51-.2.22.22,0,0,1,.27,0l.88.64.73-.71-.63-.9a.2.2,0,0,1,0-.25A4.34,4.34,0,0,0,9.51,18Z" style="fill: #fff"/>
    <path d="M6.07,21.09c0,.08,0,.13.14.13h.9l.1-.51L6,20.57Z" style="fill: none"/>
    <path d="M5.22,17.11s0,.06,0,.09,0-.06,0-.09Z" style="fill: none"/>
    <path d="M7.32,20.16c0,.19-.07.38-.11.56l.6.08L7.52,20h0A.21.21,0,0,0,7.32,20.16Z" style="fill: none"/>
    <path d="M7,18.5v0a1.42,1.42,0,0,1-.36.05l-.27,0v0A1.44,1.44,0,0,0,7,18.5Z" style="fill: none"/>
    <path d="M5.78,20l-.12-.05c-.16.33-.28.57-.28.58l.62.08c0-.14,0-.29-.06-.43A.18.18,0,0,0,5.78,20Z" style="fill: none"/>
    <g style="opacity: 0.43">
      <g>
        <path d="M52.21,40.9v-.76c0-.15.07-.24.25-.24s.25.09.25.24v.75a.47.47,0,0,1,0,.19l-.94,2.31c0,.12-.09.21-.25.21s-.2-.09-.25-.21l-.94-2.31a.46.46,0,0,1,0-.19v-.75c0-.15.07-.24.25-.24s.25.09.25.24v.76l.72,1.81Z" style="fill: #fff"/>
        <path d="M55.75,43.12v-1a.25.25,0,0,1,.49,0v1.2a.22.22,0,0,1-.25.24H54.06a.24.24,0,1,1,0-.47h.72V40.38h-.72a.24.24,0,1,1,0-.47h1.22v3.22Z" style="fill: #fff"/>
        <path d="M59.3,41.59h-1.7a.25.25,0,0,1-.25-.24V40.14a.25.25,0,0,1,.25-.24h1.94a.25.25,0,0,1,.25.24v3.22a.24.24,0,0,1-.25.24H59.3a.24.24,0,0,1-.25-.24.23.23,0,0,1,.25-.24Zm0-.47v-.74H57.85v.74Z" style="fill: #fff"/>
      </g>
    </g>
  </g>
  <g data-name="long connect" id="long_connect">
    <rect height="1.33" style="fill: #dcc59f" width="6.13" x="48.91" y="163.05"/>
    <rect height="1.33" style="fill: #dcc59f" width="6.13" x="7.32" y="163.05"/>
  </g>
  <g id="points">
    <polygon points="1.39 44.42 0 44.42 0 144.36 7.36 163.72 7.88 163.72 1.39 144.36 1.39 44.42" style="fill: #dcc59f"/>
    <polygon points="19.38 144.36 13.21 163.72 13.41 163.72 20.42 144.36 20.42 44.42 19.38 44.42 19.38 144.36" style="fill: #dcc59f"/>
    <polygon points="42.88 44.42 41.45 44.42 41.45 144.36 48.91 163.72 49.37 163.72 42.88 144.36 42.88 44.42" style="fill: #dcc59f"/>
    <polygon points="60.88 44.42 60.88 144.36 54.7 163.72 55.03 163.72 62.13 144.36 62.13 44.42 60.88 44.42" style="fill: #dcc59f"/>
    <path d="M19.38,44.42h-18v99.94l6.49,19.35h5.33l6.17-19.35Zm-15.83,87a1,1,0,1,1,1-1A1,1,0,0,1,3.55,131.39Zm0-27.41a1,1,0,1,1,1-1A1,1,0,0,1,3.55,104Zm0-27.52a1,1,0,1,1,1-1A1,1,0,0,1,3.55,76.46Zm0-27.41a1,1,0,1,1,1-1A1,1,0,0,1,3.55,49.05ZM6.9,145.27a1,1,0,1,1,1-1A1,1,0,0,1,6.9,145.27Zm0-27.41a1,1,0,1,1,1-1A1,1,0,0,1,6.9,117.86Zm0-27.52a1,1,0,1,1,1-1A1,1,0,0,1,6.9,90.33Zm0-27.41a1,1,0,1,1,1-1A1,1,0,0,1,6.9,62.92Zm3.5-15.81a1,1,0,1,1-1,1A1,1,0,0,1,10.4,47.11Zm0,27.41a1,1,0,1,1-1,1A1,1,0,0,1,10.4,74.52Zm0,27.52a1,1,0,1,1-1,1A1,1,0,0,1,10.4,102Zm0,27.41a1,1,0,1,1-1,1A1,1,0,0,1,10.4,129.45Zm0,29.34a1,1,0,1,1,1-1A1,1,0,0,1,10.43,158.8Zm3.5-13.53a1,1,0,1,1,1-1A1,1,0,0,1,13.93,145.27Zm0-27.41a1,1,0,1,1,1-1A1,1,0,0,1,13.93,117.86Zm0-27.52a1,1,0,1,1,1-1A1,1,0,0,1,13.93,90.33Zm0-27.41a1,1,0,1,1,1-1A1,1,0,0,1,13.93,62.92Zm3.44,68.47a1,1,0,1,1,1-1A1,1,0,0,1,17.36,131.39Zm0-27.41a1,1,0,1,1,1-1A1,1,0,0,1,17.36,104Zm0-27.52a1,1,0,1,1,1-1A1,1,0,0,1,17.36,76.46Zm0-27.41a1,1,0,1,1,1-1A1,1,0,0,1,17.36,49.05Z" style="fill: #dedbd9"/>
    <path d="M60.88,44.42h-18v99.94l6.49,19.35H54.7l6.17-19.35Zm-16,87a1,1,0,1,1,1-1A1,1,0,0,1,44.83,131.39Zm0-27.41a1,1,0,1,1,1-1A1,1,0,0,1,44.83,104Zm0-27.52a1,1,0,1,1,1-1A1,1,0,0,1,44.83,76.46Zm0-27.41a1,1,0,1,1,1-1A1,1,0,0,1,44.83,49.05Zm3.34,96.21a1,1,0,1,1,1-1A1,1,0,0,1,48.18,145.27Zm0-27.41a1,1,0,1,1,1-1A1,1,0,0,1,48.18,117.86Zm0-27.52a1,1,0,1,1,1-1A1,1,0,0,1,48.18,90.33Zm0-27.41a1,1,0,1,1,1-1A1,1,0,0,1,48.18,62.92Zm3.5-15.81a1,1,0,1,1-1,1A1,1,0,0,1,51.68,47.11Zm0,27.41a1,1,0,1,1-1,1A1,1,0,0,1,51.68,74.52Zm0,27.52a1,1,0,1,1-1,1A1,1,0,0,1,51.68,102Zm0,27.41a1,1,0,1,1-1,1A1,1,0,0,1,51.68,129.45Zm0,29.34a1,1,0,1,1,1-1A1,1,0,0,1,51.69,158.8Zm3.52-13.53a1,1,0,1,1,1-1A1,1,0,0,1,55.21,145.27Zm0-27.41a1,1,0,1,1,1-1A1,1,0,0,1,55.21,117.86Zm0-27.52a1,1,0,1,1,1-1A1,1,0,0,1,55.21,90.33Zm0-27.41a1,1,0,1,1,1-1A1,1,0,0,1,55.21,62.92Zm3.44,68.47a1,1,0,1,1,1-1A1,1,0,0,1,58.64,131.39Zm0-27.41a1,1,0,1,1,1-1A1,1,0,0,1,58.64,104Zm0-27.52a1,1,0,1,1,1-1A1,1,0,0,1,58.64,76.46Zm0-27.41a1,1,0,1,1,1-1A1,1,0,0,1,58.64,49.05Z" style="fill: #dedbd9"/>
  </g>
  <g id="Connectors">
    <circle cx="23.58" cy="17.41" id="circle32" r="2.1" style="fill: none;stroke: #e8e5df;stroke-width: 1.22399997711182px"/>
    <circle cx="30.78" cy="17.41" id="connector4pin" r="2.1" style="fill: none;stroke: #e8e5df;stroke-width: 1.22399997711182px"/>
    <circle cx="37.97" cy="17.41" id="connector5pin" r="2.1" style="fill: none;stroke: #e8e5df;stroke-width: 1.22399997711182px"/>
    <circle cx="40.67" cy="9.51" data-cir-type="female" id="circuitoCon_Vin" r="2.6" style="fill: none;stroke: #e8e5df;stroke-width: 1.71920001506805px"/>
    <rect height="5.1" id="circle37" style="fill: none;stroke: #e8e5df;stroke-width: 1.71920001506805px" width="5.1" x="35.42" y="14.74"/>
    <circle cx="30.67" cy="9.51" data-cir-type="female" id="circuitoCon_GND" r="2.6" style="fill: none;stroke: #e8e5df;stroke-width: 1.71920001506805px"/>
    <circle cx="20.77" cy="9.51" data-cir-type="female" id="circuitoCon_Sig" r="2.6" style="fill: none;stroke: #e8e5df;stroke-width: 1.71920001506805px"/>
    <ellipse cx="23.4" cy="17.29" rx="1.62" ry="1.62" style="fill: none"/>
  </g>
</svg>