<?xml version="1.0" ?><svg height="19.08mm" viewBox="0 0 50.59 54.08" width="17.85mm" xmlns="http://www.w3.org/2000/svg">
  <title>Adafruit BMP280</title>
  <g data-name="blk holes" id="blk_holes">
    <path d="M42.59,0H8A8,8,0,0,0,0,8V46.08a8,8,0,0,0,8,8H42.59a8,8,0,0,0,8-8V8A8,8,0,0,0,42.59,0ZM18.05,16.41a.38.38,0,1,1-.38.38A.38.38,0,0,1,18.05,16.41ZM3.87,48.85A1.43,1.43,0,1,1,5.3,47.43,1.43,1.43,0,0,1,3.87,48.85Zm3-23.3a.38.38,0,0,1-.39-.38.39.39,0,1,1,.77,0A.38.38,0,0,1,6.9,25.55Zm.18-14.67a3.55,3.55,0,1,1,3.54-3.55A3.55,3.55,0,0,1,7.08,10.88Zm2.26,5.29a.38.38,0,1,1,.39-.38A.38.38,0,0,1,9.34,16.17Zm1.77,32.68a1.43,1.43,0,1,1,1.43-1.42A1.43,1.43,0,0,1,11.11,48.85Zm7.2,0a1.43,1.43,0,1,1,1.42-1.42A1.43,1.43,0,0,1,18.31,48.85Zm7.19,0a1.43,1.43,0,1,1,1.43-1.42A1.43,1.43,0,0,1,25.5,48.85Zm5.15-27.68a.38.38,0,1,1,.38-.38A.38.38,0,0,1,30.65,21.17Zm2,27.68a1.43,1.43,0,1,1,1.43-1.42A1.43,1.43,0,0,1,32.69,48.85Zm7.2,0a1.43,1.43,0,1,1,1.42-1.42A1.43,1.43,0,0,1,39.89,48.85ZM39.8,7.33a3.55,3.55,0,1,1,3.54,3.55A3.55,3.55,0,0,1,39.8,7.33ZM47,48.85a1.43,1.43,0,1,1,1.42-1.42A1.43,1.43,0,0,1,47,48.85Z" style="fill: #1a2c80"/>
  </g>
  <g data-name="blue ligt line" id="blue_ligt_line">
    <line style="fill: none;stroke: #0b5597;stroke-linecap: round;stroke-linejoin: round;stroke-width: 0.5px" x1="10.22" x2="16.74" y1="39.21" y2="45.73"/>
    <polyline points="9.64 30.17 9.64 32.13 13.16 32.63 15.72 33.33 20.36 37.92 22.39 37.92 25.3 40.96 25.3 45.13" style="fill: none;stroke: #0b5597;stroke-linecap: round;stroke-linejoin: round;stroke-width: 0.5px"/>
    <line style="fill: none;stroke: #0b5597;stroke-linecap: round;stroke-linejoin: round;stroke-width: 0.5px" x1="26.51" x2="29.8" y1="36.71" y2="33.96"/>
    <line style="fill: none;stroke: #0b5597;stroke-linecap: round;stroke-linejoin: round;stroke-width: 0.5px" x1="25.68" x2="25.68" y1="30.17" y2="32.37"/>
    <line style="fill: none;stroke: #0b5597;stroke-linecap: round;stroke-linejoin: round;stroke-width: 0.5px" x1="20.35" x2="20.35" y1="30.17" y2="32.37"/>
    <polyline points="22.43 22.96 20.36 24.46 20.36 26.83" style="fill: none;stroke: #0b5597;stroke-linecap: round;stroke-linejoin: round;stroke-width: 0.5px"/>
    <polyline points="22.05 18.58 19.8 20.38 19.8 21.71 16.26 25.17" style="fill: none;stroke: #0b5597;stroke-linecap: round;stroke-linejoin: round;stroke-width: 0.5px"/>
    <line style="fill: none;stroke: #0b5597;stroke-linecap: round;stroke-linejoin: round;stroke-width: 0.5px" x1="9.34" x2="9.34" y1="18.25" y2="16.79"/>
    <circle cx="9.34" cy="15.75" r="0.98" style="fill: none;stroke: #0b5597;stroke-linecap: round;stroke-linejoin: round;stroke-width: 0.5px"/>
    <circle cx="6.9" cy="25.17" r="0.98" style="fill: none;stroke: #0b5597;stroke-linecap: round;stroke-linejoin: round;stroke-width: 0.5px"/>
    <circle cx="18.09" cy="16.79" r="1" style="fill: none;stroke: #0b5597;stroke-linecap: round;stroke-linejoin: round;stroke-width: 0.5px"/>
    <circle cx="30.65" cy="20.79" r="0.96" style="fill: none;stroke: #0b5597;stroke-linecap: round;stroke-linejoin: round;stroke-width: 0.5px"/>
    <line style="fill: none;stroke: #0b5597;stroke-linecap: round;stroke-linejoin: round;stroke-width: 0.5px" x1="16.05" x2="17.37" y1="18.79" y2="17.48"/>
    <line style="fill: none;stroke: #0b5597;stroke-linecap: round;stroke-linejoin: round;stroke-width: 0.5px" x1="18.89" x2="22.05" y1="16.19" y2="16.19"/>
    <polyline points="24.22 15.46 24.22 13.67 28.16 13.67 28.16 15.46" style="fill: none;stroke: #0b5597;stroke-linecap: round;stroke-linejoin: round;stroke-width: 0.5px"/>
    <polyline points="28.3 16.19 30.65 16 33.8 18.13 38.55 18.25 39.34 19 39.34 20.63" style="fill: none;stroke: #0b5597;stroke-linecap: round;stroke-linejoin: round;stroke-width: 0.5px"/>
    <polyline points="26.19 23.13 26.84 24 33.09 24 34.09 23.13" style="fill: none;stroke: #0b5597;stroke-linecap: round;stroke-linejoin: round;stroke-width: 0.5px"/>
    <polyline points="24.22 22.58 24.22 23.75 26.19 25.42 28.97 25.42 30.43 26.83 35.89 27.04" style="fill: none;stroke: #0b5597;stroke-linecap: round;stroke-linejoin: round;stroke-width: 0.5px"/>
    <polyline points="27.55 28.75 32.69 28.75 34.59 30.65 34.59 34.67 36.3 35.33" style="fill: none;stroke: #0b5597;stroke-linecap: round;stroke-linejoin: round;stroke-width: 0.5px"/>
    <path d="M37.18,29.29a16.2,16.2,0,0,1,0,2" style="fill: none;stroke: #0b5597;stroke-linecap: round;stroke-linejoin: round;stroke-width: 0.5px"/>
    <path d="M42.81,29.29a16.2,16.2,0,0,1,0,2" style="fill: none;stroke: #0b5597;stroke-linecap: round;stroke-linejoin: round;stroke-width: 0.5px"/>
    <line style="fill: none;stroke: #0b5597;stroke-linecap: round;stroke-linejoin: round;stroke-width: 0.5px" x1="32.89" x2="38.64" y1="38.29" y2="38.29"/>
    <path d="M40.09,39.21v6.23" style="fill: none;stroke: #0b5597;stroke-linecap: round;stroke-linejoin: round;stroke-width: 0.5px"/>
    <path d="M44.34,37.25v7.46l1.25,1" style="fill: none;stroke: #0b5597;stroke-linecap: round;stroke-linejoin: round;stroke-width: 0.5px"/>
    <polyline points="44.34 22.21 47.01 24.81 47.01 32.79 43.99 35.81" style="fill: none;stroke: #0b5597;stroke-linecap: round;stroke-linejoin: round;stroke-width: 0.5px"/>
    <line style="fill: none;stroke: #0b5597;stroke-linecap: round;stroke-linejoin: round;stroke-width: 0.5px" x1="6.72" x2="8.09" y1="34.17" y2="36.12"/>
    <line style="fill: none;stroke: #0b5597;stroke-linecap: round;stroke-linejoin: round;stroke-width: 0.5px" x1="4.09" x2="4.09" y1="33.75" y2="36.12"/>
  </g>
  <g data-name="wHITE LINES" id="wHITE_LINES">
    <g>
      <circle cx="43.34" cy="7.33" r="5.41" style="fill: none;stroke: #fff;stroke-linecap: round;stroke-linejoin: round;stroke-width: 0.5px"/>
      <circle cx="43.34" cy="7.33" r="4.04" style="fill: none;stroke: #fdeacd;stroke-miterlimit: 10"/>
    </g>
    <g>
      <circle cx="7.08" cy="7.33" r="5.41" style="fill: none;stroke: #fff;stroke-linecap: round;stroke-linejoin: round;stroke-width: 0.5px"/>
      <circle cx="7.08" cy="7.33" r="4.04" style="fill: none;stroke: #fdeacd;stroke-miterlimit: 10"/>
    </g>
    <g>
      <circle cx="3.03" cy="14.92" r="2.73" style="fill: #797257"/>
      <circle cx="3.03" cy="14.92" r="1.31" style="fill: #fdeacd"/>
    </g>
    <g>
      <circle cx="47.86" cy="37.65" r="2.73" style="fill: #797257"/>
      <circle cx="47.86" cy="37.65" r="1.31" style="fill: #fdeacd"/>
    </g>
    <path d="M48.84,16a2.54,2.54,0,0,0-2.23-.3,3.74,3.74,0,0,0-.28-2c-.14-.48-.36-.65-.76-.05a2.22,2.22,0,0,0-.9,1.84c-.39-.54-1.15-.59-2-.46-.61,0-.66.31-.37.73A2.66,2.66,0,0,0,43.46,17c.3.05.45.11.2.22a2.78,2.78,0,0,0-.92,1.88c-.14.6.14.6.58.37a2.43,2.43,0,0,0,1.61-.76c.17-.17.3-.28.3-.09a.55.55,0,0,0,.17.47,5.56,5.56,0,0,0,1.33,1.05c.33.24.48.13.48-.27s.1-.64.12-.88a1.68,1.68,0,0,0-.07-.81,1.78,1.78,0,0,0-.08-.18L47,17.84c-.21-.21-.16-.3.16-.26a2.18,2.18,0,0,0,1.65-.85C49.21,16.42,49.18,16.18,48.84,16Z" style="fill: #fff"/>
    <line style="fill: none;stroke: #fff;stroke-linecap: round;stroke-linejoin: round;stroke-width: 0.75px" x1="11.49" x2="11.49" y1="26.15" y2="31.11"/>
    <line style="fill: none;stroke: #fff;stroke-linecap: round;stroke-linejoin: round;stroke-width: 0.75px" x1="2.02" x2="2.02" y1="26.15" y2="31.11"/>
    <line style="fill: none;stroke: #fff;stroke-linecap: round;stroke-linejoin: round;stroke-width: 0.5px" x1="29.25" x2="29.25" y1="14.96" y2="22.62"/>
    <line style="fill: none;stroke: #fff;stroke-linecap: round;stroke-linejoin: round;stroke-width: 0.5px" x1="21.18" x2="21.18" y1="14.92" y2="22.58"/>
    <circle cx="27.97" cy="24.5" r="1.41" style="fill: #fff"/>
    <path d="M35.22,33.12v4.13h2.71" style="fill: none;stroke: #fff;stroke-linecap: round;stroke-linejoin: round;stroke-width: 0.75px"/>
    <path d="M45,33.12v4.13H42.25" style="fill: none;stroke: #fff;stroke-linecap: round;stroke-linejoin: round;stroke-width: 0.75px"/>
    <path d="M18.05,34.18V38.3h2.71" style="fill: none;stroke: #fff;stroke-linecap: round;stroke-linejoin: round;stroke-width: 0.75px"/>
    <path d="M27.79,34.18V38.3H25.08" style="fill: none;stroke: #fff;stroke-linecap: round;stroke-linejoin: round;stroke-width: 0.75px"/>
    <line style="fill: none;stroke: #fff;stroke-linecap: round;stroke-linejoin: round;stroke-width: 0.75px" x1="35.89" x2="41.94" y1="19.83" y2="19.83"/>
    <line style="fill: none;stroke: #fff;stroke-linecap: round;stroke-linejoin: round;stroke-width: 0.75px" x1="35.89" x2="41.94" y1="23.86" y2="23.86"/>
  </g>
  <g id="text">
    <g>
      <path d="M18.58,5.19v.19a.82.82,0,0,1-.27.61.91.91,0,0,1-.65.25H16.23V2.84h1.43a.91.91,0,0,1,.65.25.82.82,0,0,1,.27.61v.19a.83.83,0,0,1-.31.65A.83.83,0,0,1,18.58,5.19Zm-.47-1.31V3.7A.39.39,0,0,0,18,3.4a.44.44,0,0,0-.33-.13H16.7v1h.94A.44.44,0,0,0,18,4.18.39.39,0,0,0,18.11,3.88Zm0,1.5V5.2A.41.41,0,0,0,18,4.89a.44.44,0,0,0-.33-.13H16.7v1h.94A.49.49,0,0,0,18,5.68.42.42,0,0,0,18.11,5.38Z" style="fill: #fff"/>
      <path d="M20.6,4.18V4.07l-.48-.64V6a.18.18,0,0,1-.07.15.23.23,0,0,1-.16.06.25.25,0,0,1-.17-.06A.26.26,0,0,1,19.65,6V2.84h.6l.57.77.59-.77H22V6a.18.18,0,0,1-.07.15.23.23,0,0,1-.16.06.25.25,0,0,1-.17-.06A.26.26,0,0,1,21.53,6V3.44l-.47.61v.13a.21.21,0,0,1-.07.15.24.24,0,0,1-.32,0A.21.21,0,0,1,20.6,4.18Z" style="fill: #fff"/>
      <path d="M23.08,6V2.84h1.65a.69.69,0,0,1,.49.19.6.6,0,0,1,.21.46V4.3a.6.6,0,0,1-.21.45.67.67,0,0,1-.49.19H23.55V6a.2.2,0,0,1-.06.15.25.25,0,0,1-.17.06.27.27,0,0,1-.17-.06A.21.21,0,0,1,23.08,6Zm.47-1.52h1.18a.23.23,0,0,0,.16-.06A.18.18,0,0,0,25,4.3V3.49a.18.18,0,0,0-.07-.15.24.24,0,0,0-.16-.07H23.55Z" style="fill: #fff"/>
    </g>
    <g>
      <path d="M28.36,6.23H26.24V4.75a.43.43,0,0,1,.14-.31.49.49,0,0,1,.33-.13h1.41v-1H26.46a.22.22,0,0,1-.17-.07.22.22,0,0,1,0-.3.25.25,0,0,1,.17-.06h1.66a.48.48,0,0,1,.33.12.43.43,0,0,1,.14.31v1a.41.41,0,0,1-.14.31.44.44,0,0,1-.33.13H26.71v1h1.65a.26.26,0,0,1,.16.07.2.2,0,0,1,0,.3A.25.25,0,0,1,28.36,6.23Z" style="fill: #fff"/>
      <path d="M29.65,5.8v-1a.39.39,0,0,1,.14-.3.46.46,0,0,1,.33-.13V3.05a.21.21,0,0,1,.07-.15.25.25,0,0,1,.17-.06h.94a.25.25,0,0,1,.17.06.2.2,0,0,1,.06.15V4.32a.48.48,0,0,1,.33.12.43.43,0,0,1,.14.31v1a.43.43,0,0,1-.14.31.48.48,0,0,1-.33.12H30.12a.44.44,0,0,1-.33-.13A.42.42,0,0,1,29.65,5.8Zm.47-1v1h1.41v-1Zm.47-1.48V4.32h.48V3.27Z" style="fill: #fff"/>
      <path d="M33.08,5.82V3.25a.43.43,0,0,1,.13-.3.47.47,0,0,1,.32-.12H35a.45.45,0,0,1,.31.12.39.39,0,0,1,.13.3V5.82a.37.37,0,0,1-.13.29.45.45,0,0,1-.32.12H33.53a.45.45,0,0,1-.32-.12A.37.37,0,0,1,33.08,5.82ZM35,5.8V3.27H33.55V5.8Z" style="fill: #fff"/>
    </g>
    <g>
      <path d="M14.14,9.93V7.72h1.14a.45.45,0,0,1,.34.13.42.42,0,0,1,.15.32v.56a.41.41,0,0,1-.14.31.5.5,0,0,1-.35.14h-.81v.75a.14.14,0,0,1-.05.1.16.16,0,0,1-.11.05.17.17,0,0,1-.12-.05A.14.14,0,0,1,14.14,9.93Zm.33-1h.81a.17.17,0,0,0,.12-.05.14.14,0,0,0,0-.1V8.17A.15.15,0,0,0,15.28,8h-.81Z" style="fill: #fff"/>
      <path d="M16.51,9.93V8.51a.14.14,0,0,1,0-.1.17.17,0,0,1,.23,0,.15.15,0,0,1,0,.11V8.7l.27-.21a.55.55,0,0,1,.32-.13h.23a.51.51,0,0,1,.34.13.41.41,0,0,1,.14.32v.08a.15.15,0,0,1,0,.11A.16.16,0,0,1,18,9a.15.15,0,0,1-.11,0,.14.14,0,0,1-.05-.11V8.81a.12.12,0,0,0,0-.1.18.18,0,0,0-.12-.05h-.21a.25.25,0,0,0-.15.07l-.46.37v.83a.13.13,0,0,1,0,.1.17.17,0,0,1-.12.05.16.16,0,0,1-.11-.05A.14.14,0,0,1,16.51,9.93Z" style="fill: #fff"/>
      <path d="M20.51,8.92v.36a.14.14,0,0,1-.05.11.16.16,0,0,1-.12,0H19.21v.09a.15.15,0,0,0,.07.13l.09.07a.24.24,0,0,0,.15.06h.82a.15.15,0,0,1,.17.15.14.14,0,0,1-.05.1.18.18,0,0,1-.12.05H19.5a.39.39,0,0,1-.18,0L19.18,10,19,9.86a.26.26,0,0,1-.11-.14.27.27,0,0,1-.05-.16V8.87a.37.37,0,0,1,.05-.15.4.4,0,0,1,.12-.16l.14-.1a.48.48,0,0,1,.29-.1h.45a.5.5,0,0,1,.32.13l.13.11A.41.41,0,0,1,20.51,8.92Zm-1.3,0v.23h1V8.92a.14.14,0,0,0-.06-.12L20,8.72a.2.2,0,0,0-.13-.05H19.5a.2.2,0,0,0-.13,0l-.1.08A.13.13,0,0,0,19.21,8.9Z" style="fill: #fff"/>
      <path d="M21.71,8.36h.73a.55.55,0,0,1,.31.1c.09.06.13.12.13.18a.14.14,0,0,1-.05.11.15.15,0,0,1-.11,0,.22.22,0,0,1-.14-.06.16.16,0,0,0-.13-.07h-.73c-.07,0-.1,0-.1.08a.09.09,0,0,0,.07.09l.85.36a.46.46,0,0,1,.22.17.47.47,0,0,1,.08.26.41.41,0,0,1-.15.32.47.47,0,0,1-.33.14h-.65a.5.5,0,0,1-.31-.1q-.15-.09-.15-.18a.14.14,0,0,1,.05-.1.17.17,0,0,1,.12,0,.22.22,0,0,1,.13.06.27.27,0,0,0,.2.07h.6a.17.17,0,0,0,.12,0,.18.18,0,0,0,.05-.12c0-.07,0-.11-.11-.14l-.86-.36A.49.49,0,0,1,21.36,9a.32.32,0,0,1-.07-.2.38.38,0,0,1,.12-.28A.41.41,0,0,1,21.71,8.36Z" style="fill: #fff"/>
      <path d="M24.08,8.36h.73a.55.55,0,0,1,.31.1c.09.06.13.12.13.18a.12.12,0,0,1-.05.11.15.15,0,0,1-.11,0A.22.22,0,0,1,25,8.73a.16.16,0,0,0-.13-.07h-.73c-.07,0-.1,0-.1.08a.09.09,0,0,0,.07.09l.85.36a.46.46,0,0,1,.22.17.47.47,0,0,1,.08.26.41.41,0,0,1-.15.32.45.45,0,0,1-.33.14h-.65a.5.5,0,0,1-.31-.1q-.15-.09-.15-.18a.14.14,0,0,1,.05-.1.17.17,0,0,1,.12,0,.19.19,0,0,1,.13.06.27.27,0,0,0,.2.07h.6a.17.17,0,0,0,.12,0,.15.15,0,0,0,.05-.12c0-.07,0-.11-.11-.14l-.86-.36A.49.49,0,0,1,23.73,9a.32.32,0,0,1-.07-.2.38.38,0,0,1,.12-.28A.41.41,0,0,1,24.08,8.36Z" style="fill: #fff"/>
      <path d="M26.76,9.77l.54-.31v-1a.14.14,0,0,1,.05-.1.17.17,0,0,1,.12-.05.16.16,0,0,1,.11.05.14.14,0,0,1,.05.1V9.93a.14.14,0,0,1-.05.1.16.16,0,0,1-.11.05.17.17,0,0,1-.12-.05.14.14,0,0,1-.05-.1V9.81L27,10a.74.74,0,0,1-.34.1h-.15A.53.53,0,0,1,26.2,10a.48.48,0,0,1-.15-.31L26,8.51a.14.14,0,0,1,.05-.1.17.17,0,0,1,.12-.05.16.16,0,0,1,.11.05.14.14,0,0,1,0,.1l0,1.11c0,.1.07.15.2.15Z" style="fill: #fff"/>
      <path d="M28.37,9.93V8.51a.13.13,0,0,1,0-.1.18.18,0,0,1,.12-.05.15.15,0,0,1,.11,0,.16.16,0,0,1,.05.11V8.7L29,8.49a.57.57,0,0,1,.32-.13h.24a.53.53,0,0,1,.34.13.45.45,0,0,1,.14.32v.08a.16.16,0,0,1,0,.11.15.15,0,0,1-.11,0,.17.17,0,0,1-.12,0,.14.14,0,0,1,0-.11V8.81a.12.12,0,0,0-.05-.1.16.16,0,0,0-.11-.05H29.3a.21.21,0,0,0-.15.07l-.46.37v.83a.14.14,0,0,1-.05.1.16.16,0,0,1-.11.05.18.18,0,0,1-.12-.05A.13.13,0,0,1,28.37,9.93Z" style="fill: #fff"/>
      <path d="M32.36,8.92v.36a.14.14,0,0,1,0,.11.15.15,0,0,1-.11,0H31.06v.09a.15.15,0,0,0,.07.13l.1.07a.24.24,0,0,0,.14.06h.83a.15.15,0,0,1,.11,0,.16.16,0,0,1,0,.11.14.14,0,0,1,0,.1.16.16,0,0,1-.11.05h-.85a.42.42,0,0,1-.18,0L31,10l-.15-.12a.4.4,0,0,1-.11-.14.34.34,0,0,1,0-.16V8.87a.34.34,0,0,1,0-.15.53.53,0,0,1,.13-.16l.13-.1a.53.53,0,0,1,.29-.1h.46a.52.52,0,0,1,.32.13l.12.11A.38.38,0,0,1,32.36,8.92Zm-1.3,0v.23h1V8.92A.17.17,0,0,0,32,8.8l-.1-.08a.2.2,0,0,0-.13-.05h-.4a.23.23,0,0,0-.14,0l-.09.08A.14.14,0,0,0,31.06,8.9Z" style="fill: #fff"/>
    </g>
    <path d="M37.78,9.74l-.29-.13-.2.32s0,.05-.09.07l-.37.14a.63.63,0,0,1-.45,0,.5.5,0,0,1-.29-.31L36,9.59a.16.16,0,0,1,0-.16L36.26,9l-.46-.22a.2.2,0,0,1-.12-.13l-.08-.21a.49.49,0,0,1,0-.41.66.66,0,0,1,.34-.3l.36-.13a.63.63,0,0,1,.45,0,.5.5,0,0,1,.29.3l.08.23a.25.25,0,0,1,0,.2l-.31.5.54.25.13-.22a.29.29,0,0,1,.12-.1.26.26,0,0,1,.15,0,.18.18,0,0,1,.09.1.17.17,0,0,1,0,.14l-.14.22.26.13a.19.19,0,0,1,.1.1.17.17,0,0,1,0,.14.2.2,0,0,1-.11.09A.2.2,0,0,1,37.78,9.74Zm-1-1.5-.06-.16a.15.15,0,0,0-.09-.1.16.16,0,0,0-.15,0l-.37.14A.17.17,0,0,0,36,8.2a.16.16,0,0,0,0,.15l.06.16.44.21ZM36.4,9.53l.06.17a.17.17,0,0,0,.1.1.17.17,0,0,0,.14,0l.3-.11.14-.24-.53-.25Z" style="fill: #fff"/>
    <g>
      <path d="M12.57,12.12V11.7h1.7v.42a.12.12,0,0,1,0,.11.17.17,0,0,1-.12,0,.21.21,0,0,1-.12,0,.14.14,0,0,1-.05-.11V12h-.34v2a.16.16,0,0,1-.05.11.17.17,0,0,1-.24,0,.13.13,0,0,1-.05-.11V12h-.34v.11a.16.16,0,0,1-.05.11.21.21,0,0,1-.12,0,.17.17,0,0,1-.12,0A.13.13,0,0,1,12.57,12.12Z" style="fill: #fff"/>
      <path d="M16.76,13v.38a.18.18,0,0,1-.05.11.19.19,0,0,1-.12,0h-1.2v.09a.17.17,0,0,0,.08.14l.1.08a.3.3,0,0,0,.15,0h.87a.21.21,0,0,1,.12.05.15.15,0,0,1,0,.22.21.21,0,0,1-.12.05H15.7a.72.72,0,0,1-.19,0l-.14-.07-.15-.12a.44.44,0,0,1-.12-.15.41.41,0,0,1,0-.17V12.9a.47.47,0,0,1,0-.16.53.53,0,0,1,.13-.16l.14-.11a.6.6,0,0,1,.31-.1h.48a.49.49,0,0,1,.33.14l.13.11A.43.43,0,0,1,16.76,13Zm-1.36,0v.25h1V13a.22.22,0,0,0-.05-.14l-.1-.08a.3.3,0,0,0-.14-.05h-.42a.21.21,0,0,0-.15.05l-.09.07A.13.13,0,0,0,15.4,12.93Z" style="fill: #fff"/>
      <path d="M17.5,14V12.53a.14.14,0,0,1,.05-.11.17.17,0,0,1,.12-.05.15.15,0,0,1,.16.12.49.49,0,0,1,.32-.12.41.41,0,0,1,.33.16.47.47,0,0,1,.35-.16.36.36,0,0,1,.27.1.38.38,0,0,1,.13.26L19.28,14a.16.16,0,0,1-.05.11.21.21,0,0,1-.12.05.17.17,0,0,1-.12-.05.17.17,0,0,1-.06-.11l0-1.23c0-.06,0-.1-.06-.1a.09.09,0,0,0-.07,0l-.2.16V14a.16.16,0,0,1,0,.11.19.19,0,0,1-.12,0,.15.15,0,0,1-.17-.15V12.76a.07.07,0,0,0-.07-.08.09.09,0,0,0-.07,0l-.24.19V14a.16.16,0,0,1-.05.11.17.17,0,0,1-.12.05.21.21,0,0,1-.12-.05A.16.16,0,0,1,17.5,14Z" style="fill: #fff"/>
      <path d="M20.37,14v.69a.16.16,0,0,1-.05.11.17.17,0,0,1-.24,0,.13.13,0,0,1,0-.11V12.45a.13.13,0,0,1,0-.11.17.17,0,0,1,.12-.05.18.18,0,0,1,.12.05.16.16,0,0,1,.05.11v.1a.67.67,0,0,1,.48-.25h.08a.52.52,0,0,1,.33.12l.28.23a.45.45,0,0,1,.19.37v.49a.5.5,0,0,1-.2.39l-.28.22a.48.48,0,0,1-.34.11h-.08a.48.48,0,0,1-.33-.12Zm.47-.07h.09a.19.19,0,0,0,.13-.06l.27-.21a.18.18,0,0,0,.06-.14V13a.16.16,0,0,0-.07-.13L21,12.65a.25.25,0,0,0-.11,0h-.1s-.08,0-.14.09l-.26.23a.2.2,0,0,0-.06.14v.4a.19.19,0,0,0,.07.14l.25.22A.25.25,0,0,0,20.84,13.92Z" style="fill: #fff"/>
      <path d="M25.38,11.69h.88a.5.5,0,0,1,.3.13.36.36,0,0,1,.14.3.13.13,0,0,1-.05.12.15.15,0,0,1-.11,0,.17.17,0,0,1-.12,0,.48.48,0,0,1-.06-.14.13.13,0,0,0-.13-.1h-.84s-.06,0-.06,0a.09.09,0,0,0,0,0l1.25,1.48a.37.37,0,0,1,.09.23.31.31,0,0,1-.11.25.34.34,0,0,1-.24.11h-.91a.46.46,0,0,1-.31-.13.4.4,0,0,1-.14-.28.16.16,0,0,1,.18-.18.18.18,0,0,1,.12.05.14.14,0,0,1,0,.11.12.12,0,0,0,0,.08l.09,0h.84s.06,0,.06,0a.09.09,0,0,0,0-.05l-1.25-1.48a.33.33,0,0,1,0-.48A.37.37,0,0,1,25.38,11.69Z" style="fill: #fff"/>
      <path d="M29.18,13v.38a.18.18,0,0,1-.05.11.16.16,0,0,1-.12,0H27.82v.09a.16.16,0,0,0,.07.14l.1.08a.37.37,0,0,0,.15,0H29a.17.17,0,0,1,.12.05.15.15,0,0,1,0,.22.17.17,0,0,1-.12.05h-.89a.58.58,0,0,1-.18,0,.53.53,0,0,1-.15-.07l-.15-.12a1,1,0,0,1-.12-.15.38.38,0,0,1,0-.17V12.9a.32.32,0,0,1,.05-.16.42.42,0,0,1,.13-.16l.14-.11a.55.55,0,0,1,.31-.1h.47a.53.53,0,0,1,.34.14l.12.11A.4.4,0,0,1,29.18,13Zm-1.36,0v.25h1V13a.18.18,0,0,0-.06-.14l-.1-.08a.3.3,0,0,0-.14-.05h-.42a.19.19,0,0,0-.14.05l-.1.07A.15.15,0,0,0,27.82,12.93Z" style="fill: #fff"/>
      <path d="M30.76,12.73,30.3,13v1a.13.13,0,0,1-.05.11.16.16,0,0,1-.11.05.17.17,0,0,1-.12-.05A.13.13,0,0,1,30,14V12.53a.15.15,0,0,1,.05-.12.16.16,0,0,1,.12,0,.15.15,0,0,1,.11,0,.15.15,0,0,1,.05.12v.1l.31-.17a.7.7,0,0,1,.35-.09h.16a.51.51,0,0,1,.35.13.46.46,0,0,1,.15.32L31.67,14a.16.16,0,0,1-.05.11.17.17,0,0,1-.12.05.18.18,0,0,1-.12-.05.13.13,0,0,1-.05-.11l0-1.17c0-.11-.07-.16-.18-.16h-.17A.41.41,0,0,0,30.76,12.73Z" style="fill: #fff"/>
      <path d="M32.92,12.37h.78a.53.53,0,0,1,.32.1c.09.07.13.13.13.19s0,.09,0,.11a.16.16,0,0,1-.11.05.26.26,0,0,1-.15-.07.21.21,0,0,0-.14-.07h-.76c-.07,0-.11,0-.11.09a.09.09,0,0,0,.07.09l.9.37a.58.58,0,0,1,.23.18.54.54,0,0,1,.08.28A.46.46,0,0,1,34,14a.52.52,0,0,1-.35.14h-.68a.64.64,0,0,1-.33-.1c-.1-.07-.15-.13-.15-.19a.12.12,0,0,1,0-.11.13.13,0,0,1,.12,0,.19.19,0,0,1,.14.07.33.33,0,0,0,.21.06h.63a.17.17,0,0,0,.13,0,.21.21,0,0,0,.05-.12.16.16,0,0,0-.12-.15l-.9-.38a.41.41,0,0,1-.2-.16.35.35,0,0,1-.07-.21.42.42,0,0,1,.12-.29A.45.45,0,0,1,32.92,12.37Z" style="fill: #fff"/>
      <path d="M36.64,12.93v.66a.53.53,0,0,1-.22.39.68.68,0,0,1-.44.18h-.4a.68.68,0,0,1-.44-.18.51.51,0,0,1-.21-.39v-.66a.51.51,0,0,1,.21-.38.66.66,0,0,1,.44-.18H36a.62.62,0,0,1,.44.17A.53.53,0,0,1,36.64,12.93Zm-1.37,0v.63a.19.19,0,0,0,.07.14l.13.1a.16.16,0,0,0,.11,0H36a.22.22,0,0,0,.15-.06l.11-.08a.15.15,0,0,0,.06-.13V13a.17.17,0,0,0-.06-.14l-.12-.08a.19.19,0,0,0-.14-.05h-.35a.3.3,0,0,0-.18.05l-.11.09A.14.14,0,0,0,35.27,13Z" style="fill: #fff"/>
      <path d="M37.42,14V12.53a.18.18,0,0,1,0-.12.2.2,0,0,1,.24,0,.17.17,0,0,1,0,.12v.19L38,12.5a.56.56,0,0,1,.34-.13h.24a.52.52,0,0,1,.36.14.43.43,0,0,1,.15.33v.08a.17.17,0,0,1,0,.12.17.17,0,0,1-.29-.11v-.09a.13.13,0,0,0-.05-.11.17.17,0,0,0-.12-.05h-.22a.33.33,0,0,0-.15.07l-.48.39V14a.16.16,0,0,1,0,.11.18.18,0,0,1-.12.05.17.17,0,0,1-.12-.05A.16.16,0,0,1,37.42,14Z" style="fill: #fff"/>
    </g>
    <g>
      <path d="M2.06,41.38v.56l-.67,1.57a.17.17,0,0,1-.32,0L.41,41.94v-.56a.15.15,0,0,1,0-.11.21.21,0,0,1,.12-.05.17.17,0,0,1,.12.05.15.15,0,0,1,0,.11v.49l.5,1.18.5-1.17v-.5a.17.17,0,0,1,.16-.16.17.17,0,0,1,.12.05A.16.16,0,0,1,2.06,41.38Z" style="fill: #fff"/>
      <path d="M3,41.22H4.29a.18.18,0,0,1,.12.05.16.16,0,0,1,0,.11.18.18,0,0,1,0,.11.16.16,0,0,1-.12,0H3.8v1.79h.49a.15.15,0,0,1,.12.26.21.21,0,0,1-.12,0H3a.25.25,0,0,1-.12,0,.17.17,0,0,1,0-.22.17.17,0,0,1,.12,0h.5V41.53H3a.17.17,0,0,1-.12,0,.17.17,0,0,1,0-.22A.18.18,0,0,1,3,41.22Z" style="fill: #fff"/>
      <path d="M6.86,41.38v2.24H6.43l-.89-1.86v1.71a.15.15,0,0,1,0,.11.25.25,0,0,1-.12,0,.28.28,0,0,1-.12,0,.15.15,0,0,1,0-.11V41.22h.43l.88,1.86v-1.7a.16.16,0,0,1,0-.11.17.17,0,0,1,.24,0A.15.15,0,0,1,6.86,41.38Z" style="fill: #fff"/>
    </g>
    <g>
      <path d="M15.22,41.22h.59a.19.19,0,0,1,.13.05.14.14,0,0,1,.05.11.16.16,0,0,1-.05.11.2.2,0,0,1-.13,0h-.56a.18.18,0,0,0-.15.07l-.5.54a.28.28,0,0,0-.06.18v.84a.14.14,0,0,0,.05.11.19.19,0,0,0,.13,0h.72a.21.21,0,0,0,.13,0,.14.14,0,0,0,0-.1v-.33h-.37a.21.21,0,0,1-.13-.05.14.14,0,0,1,0-.1.14.14,0,0,1,0-.11.21.21,0,0,1,.13,0H16v.64a.4.4,0,0,1-.16.32.55.55,0,0,1-.38.13h-.72a.59.59,0,0,1-.39-.13.42.42,0,0,1-.15-.32v-.84a.51.51,0,0,1,.14-.38l.53-.57a.41.41,0,0,1,.16-.11A.54.54,0,0,1,15.22,41.22Z" style="fill: #fff"/>
      <path d="M18.61,41.38v2.24h-.48l-1-1.86v1.71a.16.16,0,0,1-.05.11.25.25,0,0,1-.13,0,.21.21,0,0,1-.12,0,.14.14,0,0,1-.06-.11V41.22h.48l1,1.86v-1.7a.14.14,0,0,1,.06-.11.18.18,0,0,1,.12-.05.19.19,0,0,1,.13.05A.13.13,0,0,1,18.61,41.38Z" style="fill: #fff"/>
      <path d="M19.62,41.22h.71a.61.61,0,0,1,.26.08.51.51,0,0,1,.2.18l.35.6a.64.64,0,0,1,.1.35.68.68,0,0,1-.11.34l-.35.6a.59.59,0,0,1-.2.18.53.53,0,0,1-.28.07h-.68a.19.19,0,0,1-.13,0,.11.11,0,0,1,0-.1.13.13,0,0,1,0-.11.19.19,0,0,1,.13,0h.18V41.53h-.18a.2.2,0,0,1-.13,0,.18.18,0,0,1,0-.11.16.16,0,0,1,0-.11A.21.21,0,0,1,19.62,41.22Zm.54.31v1.79h.12a.21.21,0,0,0,.18-.1l.36-.6a.45.45,0,0,0,.06-.19.41.41,0,0,0-.05-.19l-.37-.62a.19.19,0,0,0-.18-.09Z" style="fill: #fff"/>
    </g>
    <g>
      <path d="M22,50.72h.88a.45.45,0,0,1,.3.13.36.36,0,0,1,.15.29.16.16,0,0,1-.05.11.18.18,0,0,1-.12,0,.21.21,0,0,1-.12,0,.4.4,0,0,1-.06-.13.13.13,0,0,0-.13-.1H22s-.06,0-.06,0a.09.09,0,0,0,0,0l1.26,1.44a.33.33,0,0,1,.09.22.34.34,0,0,1-.11.24.35.35,0,0,1-.25.1H22a.47.47,0,0,1-.32-.12.38.38,0,0,1-.13-.28c0-.11.06-.16.18-.16a.15.15,0,0,1,.11,0,.11.11,0,0,1,.05.1.1.1,0,0,0,0,.08.12.12,0,0,0,.09,0h.85a0,0,0,0,0,.05,0,.06.06,0,0,0,0-.05L21.67,51.3a.35.35,0,0,1-.09-.23.34.34,0,0,1,.11-.24A.41.41,0,0,1,22,50.72Z" style="fill: #fff"/>
      <path d="M25,52.82h.61a.16.16,0,0,1,.12,0,.13.13,0,0,1,0,.22.21.21,0,0,1-.12,0H25a.47.47,0,0,1-.25-.07.4.4,0,0,1-.18-.15l-.39-.68a.62.62,0,0,1,0-.59l.4-.67a.44.44,0,0,1,.17-.16.46.46,0,0,1,.23-.08h.67a.17.17,0,0,1,.12.05.13.13,0,0,1,.05.11.14.14,0,0,1-.05.11.16.16,0,0,1-.12,0H25a.14.14,0,0,0-.13.09l-.38.62a.34.34,0,0,0,0,.18.27.27,0,0,0,0,.18l.35.62A.18.18,0,0,0,25,52.82Z" style="fill: #fff"/>
      <path d="M26.57,53V50.88a.16.16,0,0,1,.05-.11.17.17,0,0,1,.24,0,.14.14,0,0,1,.05.11v.71L28,50.76a.25.25,0,0,1,.12,0,.17.17,0,0,1,.12.05.13.13,0,0,1,.05.11.14.14,0,0,1-.05.1L27,51.92l1.23.94a.14.14,0,0,1,.05.1.16.16,0,0,1-.05.11.21.21,0,0,1-.12,0,.2.2,0,0,1-.13,0l-1.08-.83V53a.16.16,0,0,1-.05.11.21.21,0,0,1-.12,0,.28.28,0,0,1-.12,0A.16.16,0,0,1,26.57,53Z" style="fill: #fff"/>
    </g>
    <g>
      <path d="M8.47,51v.57a.41.41,0,0,1-.15.32.4.4,0,0,1,.15.3v.59a.28.28,0,0,1-.11.22.37.37,0,0,1-.25.09H6.86a.21.21,0,0,1-.13,0A.14.14,0,0,1,6.68,53a.14.14,0,0,1,.05-.1.21.21,0,0,1,.13,0H8.11v-.59a.14.14,0,0,0-.06-.11.16.16,0,0,0-.12,0H7.22a.21.21,0,0,1-.13,0,.12.12,0,0,1,0-.1.14.14,0,0,1,0-.11.21.21,0,0,1,.13-.05h.71a.2.2,0,0,0,.13,0,.14.14,0,0,0,0-.11V51H6.85A.21.21,0,0,1,6.72,51a.14.14,0,0,1,0-.1.14.14,0,0,1,0-.11.21.21,0,0,1,.13-.05H8.11a.37.37,0,0,1,.25.09A.28.28,0,0,1,8.47,51Z" style="fill: #fff"/>
      <path d="M11.08,50.88v.56L10.36,53a.18.18,0,0,1-.17.11A.19.19,0,0,1,10,53l-.72-1.57v-.56a.14.14,0,0,1,.06-.11.17.17,0,0,1,.12-.05.21.21,0,0,1,.13.05.16.16,0,0,1,.05.11v.49l.54,1.18.54-1.17v-.5a.13.13,0,0,1,0-.11.17.17,0,0,1,.12-.05.21.21,0,0,1,.13.05A.16.16,0,0,1,11.08,50.88Z" style="fill: #fff"/>
      <path d="M13.68,51.93v.64a.47.47,0,0,1-.22.37.75.75,0,0,1-.47.18h-.41a.75.75,0,0,1-.47-.18.51.51,0,0,1-.22-.37v-.64a.48.48,0,0,1,.22-.38.75.75,0,0,1,.47-.17H13a.68.68,0,0,1,.47.17A.47.47,0,0,1,13.68,51.93Zm-1.43,0v.61a.14.14,0,0,0,.07.13l.13.1a.23.23,0,0,0,.13,0H13a.3.3,0,0,0,.16-.05l.11-.08a.15.15,0,0,0,.07-.12v-.62a.16.16,0,0,0-.07-.13l-.12-.09a.26.26,0,0,0-.15,0h-.37a.3.3,0,0,0-.18,0l-.12.09A.13.13,0,0,0,12.25,51.94Z" style="fill: #fff"/>
    </g>
    <g>
      <path d="M36.83,50.72h.85a.45.45,0,0,1,.29.13.38.38,0,0,1,.14.29.13.13,0,0,1,0,.11.16.16,0,0,1-.22,0,.4.4,0,0,1-.06-.13.13.13,0,0,0-.13-.1h-.81s-.06,0-.06,0a.09.09,0,0,0,0,0L38,52.56A.33.33,0,0,1,38,53a.34.34,0,0,1-.24.1h-.88a.45.45,0,0,1-.31-.12.43.43,0,0,1-.13-.28c0-.11.06-.16.17-.16a.16.16,0,0,1,.12,0,.13.13,0,0,1,0,.1.1.1,0,0,0,0,.08.1.1,0,0,0,.09,0h.81s.06,0,.06,0a.09.09,0,0,0,0-.05L36.54,51.3a.35.35,0,0,1-.09-.23.34.34,0,0,1,.11-.24A.39.39,0,0,1,36.83,50.72Z" style="fill: #fff"/>
      <path d="M39,50.72h.65a.61.61,0,0,1,.25.08.48.48,0,0,1,.17.18l.33.6a.73.73,0,0,1,.09.35.77.77,0,0,1-.1.34l-.32.6a.77.77,0,0,1-.18.18.5.5,0,0,1-.27.07H39a.18.18,0,0,1-.12,0,.13.13,0,0,1,0-.1.15.15,0,0,1,0-.11.18.18,0,0,1,.12,0h.17V51H39a.15.15,0,0,1-.11,0,.18.18,0,0,1,0-.11.17.17,0,0,1,.16-.16Zm.5.31v1.79h.11a.19.19,0,0,0,.17-.1l.32-.6a.45.45,0,0,0,.06-.19.41.41,0,0,0,0-.19l-.33-.62a.2.2,0,0,0-.17-.09Z" style="fill: #fff"/>
      <path d="M41.43,50.72h1.32a.17.17,0,0,1,.12.05.16.16,0,0,1,.05.11.18.18,0,0,1-.05.11.16.16,0,0,1-.12,0h-.49v1.79h.49a.15.15,0,0,1,.12.26.21.21,0,0,1-.12,0H41.43a.21.21,0,0,1-.11,0,.15.15,0,0,1,0-.22.15.15,0,0,1,.11,0h.5V51h-.5a.15.15,0,0,1-.11,0,.15.15,0,0,1,0-.22A.16.16,0,0,1,41.43,50.72Z" style="fill: #fff"/>
    </g>
    <g>
      <path d="M29.62,41.22h.9a.5.5,0,0,1,.31.13.36.36,0,0,1,.15.29.16.16,0,0,1-.05.11.21.21,0,0,1-.12,0,.17.17,0,0,1-.12,0,.4.4,0,0,1-.06-.13.14.14,0,0,0-.14-.1h-.85s-.06,0-.06,0l0,0,1.29,1.44a.33.33,0,0,1,.09.22.34.34,0,0,1-.11.24.36.36,0,0,1-.25.1h-.93a.45.45,0,0,1-.32-.12.4.4,0,0,1-.14-.28c0-.11.06-.16.18-.16a.16.16,0,0,1,.12,0,.14.14,0,0,1,0,.1.08.08,0,0,0,0,.08.1.1,0,0,0,.09,0h.86s.06,0,.06,0a.09.09,0,0,0,0-.05L29.32,41.8a.35.35,0,0,1-.09-.23.34.34,0,0,1,.11-.24A.41.41,0,0,1,29.62,41.22Z" style="fill: #fff"/>
      <path d="M31.94,41.22h.68a.61.61,0,0,1,.26.08.47.47,0,0,1,.19.18l.34.6a.64.64,0,0,1,.1.35.77.77,0,0,1-.1.34l-.35.6a.47.47,0,0,1-.19.18.5.5,0,0,1-.27.07h-.66a.17.17,0,0,1-.12,0,.11.11,0,0,1-.05-.1.13.13,0,0,1,.05-.11.17.17,0,0,1,.12,0h.18V41.53h-.18a.16.16,0,0,1-.12,0,.18.18,0,0,1-.05-.11.16.16,0,0,1,.05-.11A.17.17,0,0,1,31.94,41.22Zm.52.31v1.79h.12a.21.21,0,0,0,.18-.1l.34-.6a.45.45,0,0,0,.06-.19.32.32,0,0,0,0-.19l-.35-.62a.2.2,0,0,0-.18-.09Z" style="fill: #fff"/>
      <path d="M35.59,41.45l.38.68a.52.52,0,0,1,.08.3.56.56,0,0,1-.08.3l-.38.67a.43.43,0,0,1-.41.22.54.54,0,0,1-.25-.06.61.61,0,0,1-.16-.16l-.38-.67a.61.61,0,0,1-.08-.3.58.58,0,0,1,.08-.3l.38-.68a.44.44,0,0,1,.41-.23A.43.43,0,0,1,35.59,41.45Zm-.52.15-.36.64a.41.41,0,0,0-.05.18.41.41,0,0,0,.05.19l.37.65a.11.11,0,0,0,.2,0l.37-.65a.32.32,0,0,0,.05-.19.29.29,0,0,0-.05-.18l-.36-.64a.12.12,0,0,0-.22,0Z" style="fill: #fff"/>
    </g>
    <g>
      <path d="M45.39,43.32H46a.15.15,0,0,1,.12.26.21.21,0,0,1-.12,0h-.61a.44.44,0,0,1-.24-.07A.43.43,0,0,1,45,43.4l-.38-.68a.64.64,0,0,1-.08-.3.55.55,0,0,1,.08-.29l.38-.67a.38.38,0,0,1,.17-.16.4.4,0,0,1,.22-.08H46a.17.17,0,0,1,.12.05.16.16,0,0,1,0,.11.18.18,0,0,1,0,.11.16.16,0,0,1-.12,0h-.62a.14.14,0,0,0-.12.09l-.37.62a.38.38,0,0,0,0,.36l.34.62A.16.16,0,0,0,45.39,43.32Z" style="fill: #fff"/>
      <path d="M47.27,41.22h.85a.47.47,0,0,1,.3.13.38.38,0,0,1,.14.29.16.16,0,0,1-.05.11.18.18,0,0,1-.11,0,.17.17,0,0,1-.12,0,.4.4,0,0,1-.06-.13.13.13,0,0,0-.12-.1h-.81s-.06,0-.06,0l0,0,1.22,1.44a.33.33,0,0,1,.09.22.34.34,0,0,1-.11.24.33.33,0,0,1-.24.1h-.88a.42.42,0,0,1-.3-.12.38.38,0,0,1-.13-.28c0-.11.06-.16.17-.16a.15.15,0,0,1,.11,0,.14.14,0,0,1,0,.1.08.08,0,0,0,0,.08.1.1,0,0,0,.09,0h.81a0,0,0,0,0,0,0,.06.06,0,0,0,0-.05L47,41.8a.4.4,0,0,1-.08-.23.3.3,0,0,1,.11-.24A.36.36,0,0,1,47.27,41.22Z" style="fill: #fff"/>
    </g>
  </g>
  <g id="a">
    <g>
      <path d="M4.8,18.78v2.45a1.14,1.14,0,0,1-1.25,1,1.14,1.14,0,0,1-1.26-1V18.78a1.15,1.15,0,0,1,1.26-1A1.15,1.15,0,0,1,4.8,18.78Z" style="fill: #bababa"/>
      <path d="M11.5,18.78v2.45a1.14,1.14,0,0,1-1.25,1,1.14,1.14,0,0,1-1.26-1V18.78a1.15,1.15,0,0,1,1.26-1A1.15,1.15,0,0,1,11.5,18.78Z" style="fill: #bababa"/>
      <rect height="6.7" rx="0.58" ry="0.58" style="fill: #e0e0e0" transform="translate(-13.15 26.94) rotate(-90)" width="3.25" x="5.27" y="16.7"/>
      <rect height="3.14" style="fill: #ac947a" transform="translate(-13.22 26.88) rotate(-90)" width="3.25" x="5.21" y="18.48"/>
    </g>
    <g>
      <path d="M4.8,36.62v2.44a1.14,1.14,0,0,1-1.25,1,1.14,1.14,0,0,1-1.26-1V36.62a1.15,1.15,0,0,1,1.26-1A1.15,1.15,0,0,1,4.8,36.62Z" style="fill: #bababa"/>
      <path d="M11.5,36.62v2.44a1.14,1.14,0,0,1-1.25,1,1.14,1.14,0,0,1-1.26-1V36.62a1.15,1.15,0,0,1,1.26-1A1.15,1.15,0,0,1,11.5,36.62Z" style="fill: #bababa"/>
      <rect height="6.7" rx="0.58" ry="0.58" style="fill: #e0e0e0" transform="translate(-30.98 44.78) rotate(-90)" width="3.25" x="5.27" y="34.53"/>
      <rect height="3.14" style="fill: #ac947a" transform="translate(-31.05 44.71) rotate(-90)" width="3.25" x="5.21" y="36.31"/>
    </g>
    <g>
      <rect height="1.64" style="fill: #aeaba8" transform="translate(42.88 23.81) rotate(90)" width="2.14" x="8.47" y="32.53"/>
      <rect height="1.17" style="fill: #bababa" transform="translate(41.32 22.28) rotate(90)" width="0.96" x="9.04" y="31.21"/>
      <rect height="1.64" style="fill: #aeaba8" transform="translate(40.19 26.5) rotate(90)" width="2.14" x="5.78" y="32.53"/>
      <rect height="1.17" style="fill: #bababa" transform="translate(38.63 24.97) rotate(90)" width="0.96" x="6.35" y="31.21"/>
      <rect height="1.64" style="fill: #aeaba8" transform="translate(37.54 29.16) rotate(90)" width="2.14" x="3.12" y="32.53"/>
      <rect height="1.17" style="fill: #bababa" transform="translate(35.98 27.63) rotate(90)" width="0.96" x="3.7" y="31.21"/>
      <rect height="1.64" style="fill: #aeaba8" transform="translate(-20.4 28.94) rotate(-90)" width="2.14" x="3.2" y="23.85"/>
      <rect height="1.17" style="fill: #bababa" transform="translate(-21.94 30.5) rotate(-90)" width="0.96" x="3.8" y="25.63"/>
      <rect height="1.64" style="fill: #aeaba8" transform="translate(-15.1 34.24) rotate(-90)" width="2.14" x="8.51" y="23.85"/>
      <rect height="1.17" style="fill: #bababa" transform="translate(-16.63 35.8) rotate(-90)" width="0.96" x="9.11" y="25.63"/>
      <rect height="8" style="fill: #101111" transform="translate(35.73 22.29) rotate(90)" width="4.63" x="4.41" y="25.01"/>
    </g>
    <g>
      <path d="M9.41,28.92v1a.14.14,0,0,1-.06.11.13.13,0,0,1-.12.05H8.64a.17.17,0,0,1-.13-.05.16.16,0,0,1,0-.11v-1a.17.17,0,0,1,0-.12.21.21,0,0,1,.13-.05h.59a.21.21,0,0,1,.13.05A.17.17,0,0,1,9.41,28.92Zm-.77,0v1h.58v-1Z" style="fill: #363637"/>
      <path d="M7.93,28.93H7.64v1h.28L8,30a.09.09,0,0,1,0,.07.09.09,0,0,1,0,.06l-.07,0H7.45v-1.2H7.26v.36a.09.09,0,0,1,0,.06.09.09,0,0,1-.07,0,.09.09,0,0,1-.06,0,.07.07,0,0,1,0-.06v-.45a.06.06,0,0,1,0-.06.09.09,0,0,1,.06,0h.77a.11.11,0,0,1,.09.09.07.07,0,0,1,0,.06A.09.09,0,0,1,7.93,28.93Z" style="fill: #363637"/>
      <path d="M5.67,30v-.33a.26.26,0,0,1,.08-.19.25.25,0,0,1-.08-.17v-.34a.18.18,0,0,1,.06-.13.19.19,0,0,1,.13-.05h.67a.09.09,0,0,1,.07,0,.08.08,0,0,1,0,.06.14.14,0,0,1,0,.06.09.09,0,0,1-.07,0H5.86v.34a.09.09,0,0,0,0,.06.09.09,0,0,0,.07,0h.38l.07,0a.14.14,0,0,1,0,.06.14.14,0,0,1,0,.07l-.07,0H6a.09.09,0,0,0-.07,0,.07.07,0,0,0,0,.06V30h.68l.06,0a.09.09,0,0,1,0,.07.09.09,0,0,1,0,.06l-.06,0H5.86a.15.15,0,0,1-.13-.05A.14.14,0,0,1,5.67,30Z" style="fill: #363637"/>
      <path d="M4.28,30v-.33a.26.26,0,0,1,.08-.19.25.25,0,0,1-.08-.17v-.34a.18.18,0,0,1,.06-.13.19.19,0,0,1,.13-.05h.67a.09.09,0,0,1,.07,0,.08.08,0,0,1,0,.06.14.14,0,0,1,0,.06.09.09,0,0,1-.07,0H4.47v.34a.09.09,0,0,0,0,.06.09.09,0,0,0,.07,0H5l.06,0a.09.09,0,0,1,0,.06.09.09,0,0,1,0,.07l-.06,0H4.57a.09.09,0,0,0-.07,0,.07.07,0,0,0,0,.06V30h.68l.06,0a.09.09,0,0,1,0,.07.09.09,0,0,1,0,.06l-.06,0H4.47a.15.15,0,0,1-.13-.05A.14.14,0,0,1,4.28,30Z" style="fill: #363637"/>
    </g>
    <g>
      <rect height="9.16" rx="0.4" ry="0.4" style="fill: #dfdfd3" width="3.7" x="13.01" y="18.42"/>
      <rect height="5.65" rx="0.4" ry="0.4" style="fill: #fcfcf9" width="3.7" x="13.01" y="20.26"/>
      <rect height="3.78" rx="0.4" ry="0.4" style="fill: #1f211e" width="2.78" x="13.47" y="21.11"/>
    </g>
    <g>
      <path d="M14.67,22v.12h.44V22a0,0,0,0,1,0,0h.05a0,0,0,0,1,0,0v.2h-.51v.08h.18a0,0,0,0,1,0,0s0,0,0,0h-.22s0,0,0,0,0,0,0,0V22a0,0,0,0,1,0,0s0,0,0,0h0A0,0,0,0,1,14.67,22Z" style="fill: #fff"/>
      <path d="M14.67,22.6v.12h.44V22.6a0,0,0,0,1,0,0h.05a0,0,0,0,1,0,0v.2h-.51v.08h.18a.05.05,0,0,1,0,.06h-.22s0,0,0,0a0,0,0,0,1,0,0V22.6a0,0,0,0,1,0,0s0,0,0,0h0A0,0,0,0,1,14.67,22.6Z" style="fill: #fff"/>
      <path d="M14.67,23.15h.44l.05,0a.07.07,0,0,1,0,.06v.25a.06.06,0,0,1,0,.05l-.05,0h-.44l-.05,0s0,0,0-.06v-.24a.07.07,0,0,1,0-.06Zm0,.32h.44v-.24h-.44Z" style="fill: #fff"/>
      <path d="M14.6,24.1v-.36h.25l.05,0a.09.09,0,0,1,0,.06v.24h.18v-.28a0,0,0,0,1,0,0h.05a0,0,0,0,1,0,0v.28a.11.11,0,0,1,0,.06.06.06,0,0,1-.05,0h-.18a.07.07,0,0,1-.06,0,.11.11,0,0,1,0-.06v-.24h-.18v.28a0,0,0,0,1,0,0h0s0,0,0,0A0,0,0,0,1,14.6,24.1Z" style="fill: #fff"/>
    </g>
    <g>
      <rect height="9.16" rx="0.4" ry="0.4" style="fill: #dfdfd3" transform="translate(29.73 71.25) rotate(180)" width="3.7" x="13.01" y="31.04"/>
      <rect height="5.65" rx="0.4" ry="0.4" style="fill: #fcfcf9" transform="translate(29.73 71.07) rotate(180)" width="3.7" x="13.01" y="32.71"/>
      <rect height="3.78" rx="0.4" ry="0.4" style="fill: #1f211e" transform="translate(29.73 71.24) rotate(180)" width="2.78" x="13.47" y="33.73"/>
    </g>
    <g>
      <path d="M15.06,36.61v-.12h-.44v.12a0,0,0,0,1,0,0h0a0,0,0,0,1,0,0v-.2h.51v-.08h-.18a.05.05,0,0,1,0-.06h.24a0,0,0,0,1,0,0v.32a0,0,0,0,1,0,0h0A0,0,0,0,1,15.06,36.61Z" style="fill: #fff"/>
      <path d="M15.06,36V35.9h-.44V36a0,0,0,0,1,0,0h0s0,0,0,0a0,0,0,0,1,0,0v-.2h.51v-.08H14.9s0,0,0,0a.05.05,0,0,1,0-.06h.24a0,0,0,0,1,0,0V36s0,0,0,0h0S15.06,36,15.06,36Z" style="fill: #fff"/>
      <path d="M15.06,35.47h-.44s0,0,0,0,0,0,0-.05v-.25s0,0,0,0a.05.05,0,0,1,0,0h.44a.05.05,0,0,1,0,0,.08.08,0,0,1,0,0v.25a.08.08,0,0,1,0,.05S15.08,35.47,15.06,35.47Zm0-.32h-.44v.24h.44Z" style="fill: #fff"/>
      <path d="M15.13,34.52v.36h-.25a.07.07,0,0,1-.06,0,.08.08,0,0,1,0-.06v-.24h-.18v.29a0,0,0,0,1,0,0h0a0,0,0,0,1,0,0v-.29s0,0,0-.05a.05.05,0,0,1,0,0h.18a.12.12,0,0,1,.08.08v.24h.18v-.28a0,0,0,0,1,0,0h0A0,0,0,0,1,15.13,34.52Z" style="fill: #fff"/>
    </g>
    <g>
      <rect height="9.16" rx="0.4" ry="0.4" style="fill: #dfdfd3" transform="translate(62.06 71.07) rotate(180)" width="3.7" x="29.18" y="30.96"/>
      <rect height="5.65" rx="0.4" ry="0.4" style="fill: #fcfcf9" transform="translate(62.06 70.9) rotate(180)" width="3.7" x="29.18" y="32.62"/>
      <rect height="3.78" rx="0.4" ry="0.4" style="fill: #1f211e" transform="translate(62.06 71.07) rotate(180)" width="2.78" x="29.64" y="33.64"/>
    </g>
    <g>
      <path d="M31.22,36.53v-.12h-.44v.12s0,0,0,0a0,0,0,0,1,0,0l0,0s0,0,0,0v-.2h.51v-.08h-.15l0,0s0,0,0,0,0,0,0,0h.24a0,0,0,0,1,0,0v.33l0,0h-.05S31.22,36.54,31.22,36.53Z" style="fill: #fff"/>
      <path d="M31.22,35.94v-.12h-.44v.12a0,0,0,0,1,0,0h-.05a0,0,0,0,1,0,0v-.2h.51v-.08h-.15l0,0s0,0,0,0,0,0,0,0h.22s0,0,0,0,0,0,0,0v.32s0,0,0,0h-.05S31.22,36,31.22,35.94Z" style="fill: #fff"/>
      <path d="M31.22,35.39h-.44l-.05,0a.14.14,0,0,1,0-.06v-.25a.08.08,0,0,1,0-.05s0,0,.05,0h.44a.07.07,0,0,1,.06,0,.08.08,0,0,1,0,.05v.25a.14.14,0,0,1,0,.06Zm0-.32h-.44v.24h.44Z" style="fill: #fff"/>
      <path d="M31.3,34.43v.37H31a.05.05,0,0,1-.05,0s0,0,0-.05v-.24h-.19v.28a0,0,0,0,1,0,0h-.05a0,0,0,0,1,0,0v-.28a.08.08,0,0,1,0-.06s0,0,.05,0H31s0,0,.05,0a.08.08,0,0,1,0,.06v.24h.18v-.29s0,0,0,0l0,0,0,0Z" style="fill: #fff"/>
    </g>
    <g>
      <rect height="9.16" rx="0.4" ry="0.4" style="fill: #dfdfd3" transform="translate(67.25 -12.94) rotate(90)" width="3.7" x="38.24" y="22.58"/>
      <rect height="5.65" rx="0.4" ry="0.4" style="fill: #fcfcf9" transform="translate(67.17 -12.85) rotate(90)" width="3.7" x="38.16" y="24.33"/>
      <rect height="3.78" rx="0.4" ry="0.4" style="fill: #1f211e" transform="translate(67.25 -12.93) rotate(90)" width="2.78" x="38.7" y="25.27"/>
    </g>
    <g>
      <path d="M41.09,27H41v.43h.15a.05.05,0,0,1,0,.06h-.23V27H40.8v.15a0,0,0,0,1,0,0h-.06v-.22s0,0,0,0h.38l0,0s0,0,0,0Z" style="fill: #fff"/>
      <path d="M40.5,27h-.13v.43h.15a.05.05,0,0,1,0,.06h-.23V27h-.08v.15a0,0,0,0,1,0,0h-.06v-.22s0,0,0,0h.38l0,0s0,0,0,0Z" style="fill: #fff"/>
      <path d="M40,27v.45s0,0,0,.05l-.05,0h-.25l0,0s0,0,0-.05V27s0,0,0-.05l0,0h.25l.05,0S40,26.94,40,27Zm-.33,0v.43h.25V27Z" style="fill: #fff"/>
      <path d="M39,26.89h.37v.26a.05.05,0,0,1,0,.05s0,0,0,0H39v.18h.32a.05.05,0,0,1,0,.06H39l-.05,0a.09.09,0,0,1,0-.06v-.18a.05.05,0,0,1,0,0s0,0,.05,0h.25V27H39s0,0,0,0l0,0Z" style="fill: #fff"/>
    </g>
    <g>
      <rect height="9.16" rx="0.4" ry="0.4" style="fill: #dfdfd3" transform="translate(51.96 5.54) rotate(90)" width="3.7" x="21.36" y="24.17"/>
      <rect height="5.65" rx="0.4" ry="0.4" style="fill: #fcfcf9" transform="translate(51.87 5.63) rotate(90)" width="3.7" x="21.27" y="25.92"/>
      <rect height="3.78" rx="0.4" ry="0.4" style="fill: #1f211e" transform="translate(51.96 5.54) rotate(90)" width="2.78" x="21.82" y="26.86"/>
    </g>
    <g>
      <path d="M24.2,28.56h-.12V29h.12l0,0a0,0,0,0,1,0,0v0H24v-.51h-.08v.18h-.06a0,0,0,0,1,0,0v-.19a0,0,0,0,1,0,0h.38a.05.05,0,0,1,0,.06Z" style="fill: #fff"/>
      <path d="M23.61,28.56h-.12V29h.12l0,0a0,0,0,0,1,0,0v0h-.23v-.51h-.08v.18h-.06a0,0,0,0,1,0,0v-.19a0,0,0,0,1,0,0h.38a.05.05,0,0,1,0,.06Z" style="fill: #fff"/>
      <path d="M23.06,28.55V29s0,0,0,.05l-.06,0h-.25l-.05,0s0,0,0-.05v-.45a.17.17,0,0,1,0-.05l.06,0H23a.11.11,0,0,1,.06,0A.17.17,0,0,1,23.06,28.55Zm-.32,0V29H23v-.43Z" style="fill: #fff"/>
      <path d="M22.11,28.48h.36v.26a.08.08,0,0,1,0,.05.07.07,0,0,1-.06,0h-.24V29h.28l0,0s0,0,0,0a0,0,0,0,1,0,0h-.31l-.06,0a.07.07,0,0,1,0-.06v-.18a.06.06,0,0,1,0,0l.06,0h.24v-.18h-.31a0,0,0,0,1,0-.06Z" style="fill: #fff"/>
    </g>
    <g>
      <g>
        <rect height="2.72" style="fill: #b9b8a8" width="2.72" x="19.17" y="31.8"/>
        <rect height="2.72" style="fill: #b9b8a8" width="2.72" x="24.49" y="31.8"/>
        <rect height="2.72" style="fill: #b9b8a8" width="2.72" x="22.02" y="38.3"/>
        <rect height="4.1" rx="0.53" ry="0.53" style="fill: #29272b" width="8.34" x="19.03" y="34.18"/>
        <rect height="3.14" rx="0.79" ry="0.79" style="fill: #18181a" width="7.88" x="19.32" y="34.92"/>
      </g>
      <g>
        <path d="M20.87,37.15h-.4a.28.28,0,0,1-.18-.06l-.19-.15a.25.25,0,0,1-.08-.18v-.23a.2.2,0,0,1,.1-.19l.16-.14a.27.27,0,0,1,.17-.06h.42a.09.09,0,0,1,.07,0,.07.07,0,0,1,0,.06.06.06,0,0,1,0,.06.09.09,0,0,1-.07,0h-.4a.09.09,0,0,0-.07,0l-.16.12a.08.08,0,0,0,0,.07v.22a.05.05,0,0,0,0,.05l.16.14.09,0h.38a.09.09,0,0,1,.07,0,.07.07,0,0,1,0,.06.09.09,0,0,1,0,.06A.09.09,0,0,1,20.87,37.15Z" style="fill: #363637"/>
        <path d="M22.07,37.15h-.19a.28.28,0,0,1-.2-.08.23.23,0,0,1-.09-.19v-.56H21.5a.09.09,0,0,1-.07,0,.06.06,0,0,1,0-.06.07.07,0,0,1,0-.06.09.09,0,0,1,.07,0h.1v-.21s0,0,0-.06a.09.09,0,0,1,.07,0,.11.11,0,0,1,.07,0,.08.08,0,0,1,0,.06v.21h.38a.09.09,0,0,1,.07,0,.07.07,0,0,1,0,.12.09.09,0,0,1-.07,0h-.38v.56a.09.09,0,0,0,0,.07l.07,0h.18a.09.09,0,0,0,.1-.07.11.11,0,0,1,.1-.08.09.09,0,0,1,.07,0,.11.11,0,0,1,0,.06.21.21,0,0,1-.08.16A.28.28,0,0,1,22.07,37.15Z" style="fill: #363637"/>
        <path d="M22.79,37.06v-.83a.07.07,0,0,1,0-.06.09.09,0,0,1,.07,0,.09.09,0,0,1,.09.09v.11l.16-.12a.29.29,0,0,1,.18-.08h.14a.28.28,0,0,1,.2.08.23.23,0,0,1,.09.18v.05a.06.06,0,0,1,0,.06.09.09,0,0,1-.07,0l-.07,0a.14.14,0,0,1,0-.07V36.4a.09.09,0,0,0,0-.06l-.07,0h-.12a.12.12,0,0,0-.09,0l-.27.21v.49a.14.14,0,0,1,0,.06.11.11,0,0,1-.07,0,.09.09,0,0,1-.07,0A.09.09,0,0,1,22.79,37.06Z" style="fill: #363637"/>
      </g>
    </g>
    <g>
      <g>
        <rect height="2.72" style="fill: #b9b8a8" width="2.72" x="36.05" y="30.58"/>
        <rect height="2.72" style="fill: #b9b8a8" width="2.72" x="41.38" y="30.58"/>
        <rect height="2.72" style="fill: #b9b8a8" width="2.72" x="38.91" y="37.08"/>
        <rect height="4.1" rx="0.53" ry="0.53" style="fill: #29272b" width="8.34" x="35.92" y="32.96"/>
        <rect height="3.14" rx="0.79" ry="0.79" style="fill: #18181a" width="7.88" x="36.21" y="33.69"/>
      </g>
      <g>
        <path d="M37.76,35.93h-.4a.28.28,0,0,1-.18-.06L37,35.72a.23.23,0,0,1-.09-.19v-.22a.25.25,0,0,1,.1-.2l.17-.13a.27.27,0,0,1,.17-.06h.42a.09.09,0,0,1,.07,0,.06.06,0,0,1,0,.06.09.09,0,0,1,0,.06.09.09,0,0,1-.07,0h-.4a.12.12,0,0,0-.08,0l-.15.12a.11.11,0,0,0,0,.08v.21a.08.08,0,0,0,0,.06l.17.13a.11.11,0,0,0,.08,0h.39a.09.09,0,0,1,.07,0,.06.06,0,0,1,0,.06.09.09,0,0,1,0,.06A.09.09,0,0,1,37.76,35.93Z" style="fill: #363637"/>
        <path d="M39,35.93h-.19a.28.28,0,0,1-.2-.08.25.25,0,0,1-.09-.19V35.1h-.1a.11.11,0,0,1-.09-.09.06.06,0,0,1,0-.06.09.09,0,0,1,.06,0h.1v-.21a.09.09,0,0,1,0-.07l.07,0,.06,0a.09.09,0,0,1,0,.07v.21h.38a.09.09,0,0,1,.07,0,.06.06,0,0,1,0,.06.09.09,0,0,1,0,.06.09.09,0,0,1-.07,0h-.38v.56a.06.06,0,0,0,0,.06.09.09,0,0,0,.07,0H39a.11.11,0,0,0,.1-.07c0-.06.05-.08.1-.08a.07.07,0,0,1,.06,0,.06.06,0,0,1,0,.06.27.27,0,0,1-.08.16A.28.28,0,0,1,39,35.93Z" style="fill: #363637"/>
        <path d="M39.68,35.84V35a.06.06,0,0,1,0-.06.09.09,0,0,1,.07,0l.06,0a.09.09,0,0,1,0,.07v.11L40,35a.34.34,0,0,1,.19-.08h.14a.3.3,0,0,1,.2.08.22.22,0,0,1,.08.18v0a.08.08,0,0,1,0,.06.11.11,0,0,1-.07,0,.09.09,0,0,1-.07,0,.06.06,0,0,1,0-.06v0a.14.14,0,0,0,0-.06.08.08,0,0,0-.07,0h-.12a.16.16,0,0,0-.09,0l-.27.22v.49a.11.11,0,0,1-.09.09.09.09,0,0,1-.07,0A.09.09,0,0,1,39.68,35.84Z" style="fill: #363637"/>
      </g>
    </g>
    <g>
      <rect height="2.6" rx="0.54" ry="0.54" style="fill: #b9b8a8" width="11.34" x="33.63" y="20.79"/>
      <rect height="3.6" style="fill: #272727" width="4.36" x="37.04" y="20.26"/>
    </g>
    <g>
      <rect height="8.1" style="fill: #fffaf6" width="0.96" x="21.95" y="15.19"/>
      <rect height="8.1" style="fill: #fffaf6" width="0.96" x="23.86" y="15.19"/>
      <rect height="8.1" style="fill: #fffaf6" width="0.96" x="25.71" y="15.19"/>
      <rect height="8.1" style="fill: #fffaf6" width="0.96" x="27.49" y="15.19"/>
      <rect height="5.77" rx="0.52" ry="0.52" style="fill: #fffaf6" width="7.21" x="21.6" y="16.15"/>
      <rect height="4.58" rx="0.71" ry="0.71" style="fill: none;stroke: #a09691;stroke-miterlimit: 10;stroke-width: 0.25px" width="6.1" x="22.15" y="16.74"/>
      <circle cx="26.89" cy="20.05" r="0.74"/>
    </g>
  </g>
  <g id="Connectors">
    <ellipse cx="47.01" cy="47.43" data-cir-type="male" id="circuitoCon_CS" rx="2.05" ry="1.99" style="fill: none;stroke: #e5e3dd;stroke-miterlimit: 10;stroke-width: 1.224px"/>
    <ellipse cx="39.89" cy="47.43" data-cir-type="male" id="circuitoCon_SDI" rx="2.05" ry="1.99" style="fill: none;stroke: #e5e3dd;stroke-miterlimit: 10;stroke-width: 1.224px"/>
    <ellipse cx="32.69" cy="47.43" data-cir-type="male" id="circuitoCon_SDO" rx="2.05" ry="1.99" style="fill: none;stroke: #e5e3dd;stroke-miterlimit: 10;stroke-width: 1.224px"/>
    <ellipse cx="25.5" cy="47.43" data-cir-type="male" id="circuitoCon_SCK" rx="2.05" ry="1.99" style="fill: none;stroke: #e5e3dd;stroke-miterlimit: 10;stroke-width: 1.224px"/>
    <ellipse cx="11.11" cy="47.43" data-cir-type="male" id="circuitoCon_3v" rx="2.05" ry="1.99" style="fill: none;stroke: #e5e3dd;stroke-miterlimit: 10;stroke-width: 1.224px"/>
    <ellipse cx="3.87" cy="47.43" data-cir-type="male" id="circuitoCon_VIN" rx="2.05" ry="1.99" style="fill: none;stroke: #e5e3dd;stroke-miterlimit: 10;stroke-width: 1.224px"/>
    <ellipse cx="18.31" cy="47.43" data-cir-type="male" id="circuitoCon_GND" rx="2.05" ry="1.99" style="fill: none;stroke: #e5e3dd;stroke-miterlimit: 10;stroke-width: 1.224px"/>
  </g>
</svg>