<?xml version="1.0" ?><svg height="17.75mm" viewBox="0 0 43.23 50.3" width="15.25mm" xmlns="http://www.w3.org/2000/svg">
  <title>SparkFun Triple Axis Accelerometer Breakout - ADXL335</title>
  <g data-name="Layer 9" id="Layer_9">
    <g id="BACKGROUND">
      <circle cx="3.32" cy="33.62" r="1.56" style="fill: #e9e9e5" transform="translate(-28.06 21.11) rotate(-62.61)"/>
      <circle cx="40.3" cy="14" r="1.56" style="fill: #e9e9e5" transform="translate(9.33 43.34) rotate(-62.61)"/>
      <circle cx="22.61" cy="10.47" r="1.06" style="fill: #e9e9e5"/>
      <circle cx="7.53" cy="32.26" r="0.8" style="fill: #e9e9e5"/>
      <circle cx="14.64" cy="31.29" r="0.8" style="fill: #e9e9e5"/>
      <circle cx="12.12" cy="21.92" r="0.8" style="fill: #e9e9e5"/>
      <circle cx="35.96" cy="7.15" r="4.51" style="fill: none"/>
      <circle cx="7.41" cy="7.15" r="4.51" style="fill: none"/>
      <path d="M1.3,31.56a.4.4,0,1,0,.78.19,1.4,1.4,0,0,1,1.4-.35,2.22,2.22,0,0,1,1.88,2.75c-.86,1.4-1.88,1.86-3.46,1.1q-.67-.53-.58.34v7.65l.57-.35H5.3l1.91,1.7L9.1,42.9H10V31.83L7.15,28.94v-.67c.2-.53,0-.75-.56-.77-.3,0-.45-.22-.56-.54V23.83c0-.24,0-.44.12-.42l.18-.16c.2-.16.21-.33,0-.52l-.39-.39v-.86c0-.28.11-.35.26-.28h.9V19.8H6v-1a.77.77,0,0,1,.52-.61h.78c.21.05.3.17.26.36v.82H8.74v-.91c0-.2.14-.26.27-.27h.83a.77.77,0,0,1,.59.54v.91c0,.22-.15.3-.33.27H9.14v1.2h1c.24,0,.28.16.22.35v.76c0,.18-.07.3-.15.33-.46.35-.41.66,0,.94v.65c0,.33.06.51.34.5h3.56a.32.32,0,0,0,.3-.11c.08-.38.2-.47.34-.42l.77,0,.28-.58-.94,0c-.33,0-.37-.14-.27-.37s.18-.3,0-.47,0-.41.31-.48l.69.08.31-.61-.58,0c-.45.09-.76,0-.85-.34q.43-.28,0-.56c-.1-.3.07-.38.32-.39h.92v-.53h-1c-.31,0-.29-.19-.11-.53.38-.25.25-.61,0-1,0-.79.19-1.07.63-1H17.8l.1-.85.66-.68h1c.12.18.23.23.34,0a.8.8,0,0,1,.67,0v1.07h.47l0-.52c-.06-.41.07-.56.32-.54s.36-.22.27-.52V12.22a2,2,0,0,1-1-2.15,2.15,2.15,0,1,1,4.23.74A3,3,0,0,1,24,12.09a.71.71,0,0,0-.19.57v2.85c0,.29.15.36.34.35h1l.53.54.16,2.65h2.31l.45.41c.17.12.25.26.18.44v.47c0,.34.08.57.38.63h1l1,.87,2,0c.36,0,.5-.19.38-.47V21c.47-.32.42-.69-.08-1.11l-.09-.59c0-.55.19-.75.5-.64h.64V17.42l-.77,0c-.58-.15-.34-.9-.22-1.57.81-.44,1.24-.2,1.52.29V17H36.1v-.69c-.07-.62.22-.86.8-.8s1,.48,1,.92v.38c0,.45-.31.55-.73.55v1c.41.16.67.39.71.71v1l-.51.51.34.34v2.6l2.87,2.87V42.94h.75l.78.78V15.87c-.09-.55-.33-.43-.64,0a2.27,2.27,0,0,1-3.28-1.93c-.09-.64,1.45-2.41-1-1.27-2.57.56-4.67-.46-6.33-3C29.54,5.55,31.29,3,34.1,2c1.21,0,1.21-.87,0-.87H9.33c-1.19,0-1.19.81,0,.81,3.08.92,4,3.5,3.52,7.25-2.4,4.88-8.29,4.71-10.75.13-.6-3.48.21-6.16,3.58-7.37,1,0,1-.81,0-.81H1.3V31.56ZM41.1,20a.8.8,0,1,1-.8-.8A.8.8,0,0,1,41.1,20Z" style="fill: #cf2f27"/>
      <path d="M.35,1.16V48.72a1.16,1.16,0,0,0,1.16,1.16H42.07a1.16,1.16,0,0,0,1.16-1.16V1.16A1.16,1.16,0,0,0,42.07,0H1.51A1.16,1.16,0,0,0,.35,1.16ZM41.55,46.6a1.74,1.74,0,1,1-1.74-1.74A1.74,1.74,0,0,1,41.55,46.6Zm-7.2,0a1.74,1.74,0,1,1-1.74-1.74A1.74,1.74,0,0,1,34.35,46.6Zm-7.2,0a1.74,1.74,0,1,1-1.74-1.74A1.74,1.74,0,0,1,27.15,46.6Zm-7.2,0a1.74,1.74,0,1,1-1.74-1.74A1.74,1.74,0,0,1,20,46.6Zm-7.2,0A1.74,1.74,0,1,1,11,44.86,1.74,1.74,0,0,1,12.75,46.6Zm-7.2,0a1.74,1.74,0,1,1-1.74-1.74A1.74,1.74,0,0,1,5.55,46.6ZM40.47,7.15A4.51,4.51,0,1,1,36,2.64,4.51,4.51,0,0,1,40.47,7.15Zm-34.78-6c1,0,1,.81,0,.81C2.32,3.15,1.51,5.83,2.1,9.31c2.46,4.58,8.35,4.75,10.75-.12.53-3.75-.44-6.33-3.52-7.25-1.19,0-1.19-.81,0-.81H34.1c1.21,0,1.21.88,0,.88-2.81,1-4.57,3.55-3.23,7.69,1.65,2.52,3.76,3.54,6.33,3,2.41-1.14.86.63,1,1.27a2.27,2.27,0,0,0,3.28,1.93c.31-.43.55-.55.64,0V43.72l-.78-.78h-.75V26.34l-2.87-2.87v-2.6l-.34-.34.51-.51v-1c0-.32-.3-.55-.71-.71v-1c.43,0,.76-.09.73-.55v-.37c0-.44-.29-.76-1-.92s-.87.17-.8.8V17H35v-.86c-.28-.49-.7-.73-1.52-.29-.12.67-.36,1.42.22,1.57l.77,0v1.23h-.64c-.31-.11-.48.1-.5.64l.09.59c.5.42.55.8.08,1.11v.39c.12.27,0,.42-.37.47l-2,0-1-.87h-1c-.3-.06-.4-.29-.37-.63V19.9c.07-.17,0-.32-.18-.44l-.45-.41H25.81l-.16-2.65-.53-.54h-1c-.18,0-.32-.05-.34-.35V12.67a.71.71,0,0,1,.19-.57,3,3,0,0,0,.89-1.29,2.15,2.15,0,1,0-4.23-.74,2,2,0,0,0,1,2.15v3.13c.09.3,0,.47-.27.52s-.39.13-.32.54l0,.52h-.47V15.87a.8.8,0,0,0-.67,0c-.11.23-.22.18-.34,0h-1l-.66.68-.1.85H15.29c-.44-.12-.66.17-.62,1,.25.39.38.75,0,1-.18.35-.2.56.11.53h1v.53h-.92c-.25,0-.42.09-.32.39q.41.28,0,.56c.09.36.4.44.85.34l.58,0-.31.61-.69-.08c-.26.07-.44.2-.31.48s.2.32,0,.47-.06.38.27.38l.94,0-.28.58-.77,0c-.14,0-.27,0-.34.42a.32.32,0,0,1-.3.11H10.57c-.28,0-.38-.17-.34-.5v-.65c-.41-.28-.46-.59,0-.94.08,0,.12-.15.15-.33v-.76c.06-.19,0-.32-.22-.35h-1v-1.2h.95c.17,0,.29-.05.33-.27V18.7a.77.77,0,0,0-.59-.54H9c-.13,0-.23.07-.27.27v.91H7.53v-.82c0-.19-.05-.31-.26-.36H6.49a.77.77,0,0,0-.52.61v1H7.09v1.39H6.2c-.15-.07-.24,0-.26.28v.86l.39.39c.21.19.2.37,0,.52l-.18.16c-.15,0-.14.19-.12.42V27c.11.33.27.57.56.54.52,0,.76.24.56.77v.67L10,31.83V42.9H9.1L7.21,44.59,5.3,42.88H1.88l-.57.35V35.58q-.08-.87.58-.34c1.58.76,2.6.3,3.46-1.1a2.22,2.22,0,0,0-1.88-2.75,1.4,1.4,0,0,0-1.4.35.4.4,0,1,1-.78-.19V1.12ZM7.41,2.64A4.51,4.51,0,1,1,2.9,7.15,4.51,4.51,0,0,1,7.41,2.64Z" style="fill: #8a231e"/>
    </g>
    <g data-name="LIGHT RED PATH" id="LIGHT_RED_PATH">
      <polyline points="39.57 44.37 39.57 26.84 35.04 22.85 30.56 22.87 29.73 22.05 27.92 22.05" style="fill: none;stroke: #cf2f27;stroke-miterlimit: 10;stroke-width: 0.5px"/>
      <polyline points="27.75 23.86 29.63 23.86 30.59 22.9" style="fill: none;stroke: #cf2f27;stroke-miterlimit: 10;stroke-width: 0.5px"/>
      <line style="fill: none;stroke: #cf2f27;stroke-miterlimit: 10;stroke-width: 0.5px" x1="24.42" x2="24.42" y1="33.87" y2="28.28"/>
      <polyline points="23.7 36.48 23.7 40.81 25.28 42.4 25.28 44.37" style="fill: none;stroke: #cf2f27;stroke-miterlimit: 10;stroke-width: 0.5px"/>
      <line style="fill: none;stroke: #cf2f27;stroke-miterlimit: 10;stroke-width: 0.5px" x1="18.1" x2="18.1" y1="44.37" y2="36.69"/>
      <polyline points="8.07 26.44 8.07 28.52 10.92 31.37 10.92 44.55" style="fill: none;stroke: #cf2f27;stroke-miterlimit: 10;stroke-width: 0.5px"/>
      <line style="fill: none;stroke: #cf2f27;stroke-miterlimit: 10;stroke-width: 0.5px" x1="9.35" x2="16.76" y1="25.56" y2="25.56"/>
      <polyline points="19.5 34.25 20.81 32.94 20.81 28.72" style="fill: none;stroke: #cf2f27;stroke-miterlimit: 10;stroke-width: 0.5px"/>
      <circle cx="22.61" cy="10.47" r="1.32" style="fill: none;stroke: #cf2f27;stroke-miterlimit: 10;stroke-width: 0.5px"/>
      <line style="fill: none;stroke: #cf2f27;stroke-miterlimit: 10;stroke-width: 0.5px" x1="22.77" x2="22.77" y1="17.76" y2="11.78"/>
      <path d="M25.41,33.1V26.79h2.5l.76-.76c0-1,.24-1.28,1.47-1.16.43-.62.92-1,1.5-.92h1.15c.61,0,1,.13.75.6.15.25.21.54.91.48h1.9l2,2v15.9h-.59L36.2,44.5l-1.84-1.84H30.89l-2,2L27,42.88H25.28V42.4l-.49-.52V37.71a1.06,1.06,0,0,1,.92-.25c.27-.58.69-.55,1.25.08l1.09,0v-.37l-.78,0c-.33-.14-.35-.38-.25-.66h2.4v1c1.15.13,1.88-.15,1.62-1.46l-1.52,0,.06-1.4,1.42.13c.23-1.26-.25-1.85-1.58-1.65v1H28c.23-1.1-.25-1.38-1.83-.38Z" style="fill: #cf2f27"/>
      <path d="M13.07,34v-.63l-.2-.19h-.73V31L9.48,28.31c-.36-.26-.48-.5,0-.69a1,1,0,0,0,.83-.67c-.06-.32.15-.42.59-.31h4.8l2.19,2.19-.12.77.78.44h1.16v2.44l-.72.72H16.64l-.49.49-.54-.54H14.5c-.25-.07-.37.28-.43.86Z" style="fill: #cf2f27"/>
      <path d="M12,42.9V37.64h.85V36.39h1.43v1h1.24c.36-.37.69-.52.94,0h.68v5.4h-.77l-1.85,1.65L12.81,42.9Z" style="fill: #cf2f27"/>
    </g>
    <g data-name="clp mask" id="clp_mask">
      <circle cx="35.96" cy="7.15" r="4.51" style="fill: none"/>
      <circle cx="7.41" cy="7.15" r="4.51" style="fill: none"/>
      <path d="M1.3,31.56a.4.4,0,1,0,.78.19,1.4,1.4,0,0,1,1.4-.35,2.22,2.22,0,0,1,1.88,2.75c-.86,1.4-1.88,1.86-3.46,1.1q-.67-.53-.58.34v7.65l.57-.35H5.3l1.91,1.7L9.1,42.9H10V31.83L7.15,28.94v-.67c.2-.53,0-.75-.56-.77-.3,0-.45-.22-.56-.54V23.83c0-.24,0-.44.12-.42l.18-.16c.2-.16.21-.33,0-.52l-.39-.39v-.86c0-.28.11-.35.26-.28h.9V19.8H6v-1a.77.77,0,0,1,.52-.61h.78c.21.05.3.17.26.36v.82H8.74v-.91c0-.2.14-.26.27-.27h.83a.77.77,0,0,1,.59.54v.91c0,.22-.15.3-.33.27H9.14v1.2h1c.24,0,.28.16.22.35v.76c0,.18-.07.3-.15.33-.46.35-.41.66,0,.94v.65c0,.33.06.51.34.5h3.56a.32.32,0,0,0,.3-.11c.08-.38.2-.47.34-.42l.77,0,.28-.58-.94,0c-.33,0-.37-.14-.27-.37s.18-.3,0-.47,0-.41.31-.48l.69.08.31-.61-.58,0c-.45.09-.76,0-.85-.34q.43-.28,0-.56c-.1-.3.07-.38.32-.39h.92v-.53h-1c-.31,0-.29-.19-.11-.53.38-.25.25-.61,0-1,0-.79.19-1.07.63-1H17.8l.1-.85.66-.68h1c.12.18.23.23.34,0a.8.8,0,0,1,.67,0v1.07h.47l0-.52c-.06-.41.07-.56.32-.54s.36-.22.27-.52V12.22a2,2,0,0,1-1-2.15,2.15,2.15,0,1,1,4.23.74A3,3,0,0,1,24,12.09a.71.71,0,0,0-.19.57v2.85c0,.29.15.36.34.35h1l.53.54.16,2.65h2.31l.45.41c.17.12.25.26.18.44v.47c0,.34.08.57.38.63h1l1,.87,2,0c.36,0,.5-.19.38-.47V21c.47-.32.42-.69-.08-1.11l-.09-.59c0-.55.19-.75.5-.64h.64V17.42l-.77,0c-.58-.15-.34-.9-.22-1.57.81-.44,1.24-.2,1.52.29V17H36.1v-.69c-.07-.62.22-.86.8-.8s1,.48,1,.92v.38c0,.45-.31.55-.73.55v1c.41.16.67.39.71.71v1l-.51.51.34.34v2.6l2.87,2.87V42.94h.75l.78.78V15.87c-.09-.55-.33-.43-.64,0a2.27,2.27,0,0,1-3.28-1.93c-.09-.64,1.45-2.41-1-1.27-2.57.56-4.67-.46-6.33-3C29.54,5.55,31.29,3,34.1,2c1.21,0,1.21-.87,0-.87H9.33c-1.19,0-1.19.81,0,.81,3.08.92,4,3.5,3.52,7.25-2.4,4.88-8.29,4.71-10.75.13-.6-3.48.21-6.16,3.58-7.37,1,0,1-.81,0-.81H1.3V31.56Z" style="fill: none"/>
    </g>
    <g data-name="Layer 3" id="Layer_3">
      <g>
        <rect height="0.94" rx="0.3" ry="0.3" style="fill: #e3ddd6" transform="translate(-9.54 47.87) rotate(-90)" width="1.16" x="18.59" y="28.23"/>
        <rect height="0.94" rx="0.3" ry="0.3" style="fill: #e3ddd6" transform="translate(-7.73 49.67) rotate(-90)" width="1.16" x="20.39" y="28.23"/>
        <rect height="0.94" rx="0.3" ry="0.3" style="fill: #e3ddd6" transform="translate(-5.93 51.48) rotate(-90)" width="1.16" x="22.2" y="28.23"/>
        <rect height="0.94" rx="0.3" ry="0.3" style="fill: #e3ddd6" transform="translate(-4.12 53.28) rotate(-90)" width="1.16" x="24" y="28.23"/>
      </g>
      <g>
        <rect height="0.94" rx="0.3" ry="0.3" style="fill: #e3ddd6" transform="translate(1.98 36.35) rotate(-90)" width="1.16" x="18.59" y="16.72"/>
        <rect height="0.94" rx="0.3" ry="0.3" style="fill: #e3ddd6" transform="translate(3.78 38.16) rotate(-90)" width="1.16" x="20.39" y="16.72"/>
        <rect height="0.94" rx="0.3" ry="0.3" style="fill: #e3ddd6" transform="translate(5.59 39.96) rotate(-90)" width="1.16" x="22.2" y="16.72"/>
        <rect height="0.94" rx="0.3" ry="0.3" style="fill: #e3ddd6" transform="translate(7.39 41.77) rotate(-90)" width="1.16" x="24" y="16.72"/>
      </g>
      <g>
        <rect height="0.94" rx="0.3" ry="0.3" style="fill: #e3ddd6" transform="translate(55.5 51.32) rotate(180)" width="1.16" x="27.17" y="25.19"/>
        <rect height="0.94" rx="0.3" ry="0.3" style="fill: #e3ddd6" transform="translate(55.5 47.71) rotate(180)" width="1.16" x="27.17" y="23.39"/>
        <rect height="0.94" rx="0.3" ry="0.3" style="fill: #e3ddd6" transform="translate(55.5 44.11) rotate(180)" width="1.16" x="27.17" y="21.58"/>
        <rect height="0.94" rx="0.3" ry="0.3" style="fill: #e3ddd6" transform="translate(55.5 40.5) rotate(180)" width="1.16" x="27.17" y="19.78"/>
      </g>
      <g>
        <rect height="0.94" rx="0.3" ry="0.3" style="fill: #e3ddd6" transform="translate(31.86 51.32) rotate(180)" width="1.16" x="15.35" y="25.19"/>
        <rect height="0.94" rx="0.3" ry="0.3" style="fill: #e3ddd6" transform="translate(31.86 47.71) rotate(180)" width="1.16" x="15.35" y="23.39"/>
        <rect height="0.94" rx="0.3" ry="0.3" style="fill: #e3ddd6" transform="translate(31.86 44.11) rotate(180)" width="1.16" x="15.35" y="21.58"/>
        <rect height="0.94" rx="0.3" ry="0.3" style="fill: #e3ddd6" transform="translate(31.86 40.5) rotate(180)" width="1.16" x="15.35" y="19.78"/>
      </g>
      <rect height="11.31" style="fill: #3f3a40" transform="translate(-1.22 44.69) rotate(-90)" width="11.12" x="16.17" y="17.3"/>
      <polyline points="17.54 28.72 15.98 28.72 15.98 27.06" style="fill: none;stroke: #f6ffff;stroke-linecap: round;stroke-miterlimit: 10;stroke-width: 0.4px"/>
      <polyline points="27.6 27.11 27.6 28.67 25.95 28.67" style="fill: none;stroke: #f6ffff;stroke-linecap: round;stroke-miterlimit: 10;stroke-width: 0.4px"/>
      <polyline points="15.93 18.75 15.93 17.19 17.59 17.19" style="fill: none;stroke: #f6ffff;stroke-linecap: round;stroke-miterlimit: 10;stroke-width: 0.4px"/>
      <g>
        <rect height="1.95" rx="0.42" ry="0.42" style="fill: #e7e6e8" transform="translate(16.56 40.2) rotate(180)" width="3.14" x="6.71" y="19.12"/>
        <rect height="2.38" rx="0.73" ry="0.73" style="fill: #fffdf3" transform="translate(16.56 51.12) rotate(180)" width="3.09" x="6.73" y="24.37"/>
        <rect height="3.97" rx="0.92" ry="0.92" style="fill: #b18063" transform="translate(16.66 46.6) rotate(180)" width="2.48" x="7.09" y="21.31"/>
        <path d="M6.9,21.68q-.16-.74.83-.73L9.38,21c.43.19.57.43.17.79A5.8,5.8,0,0,1,7.43,22,.51.51,0,0,1,6.9,21.68Z" style="fill: #757376"/>
        <path d="M6.9,25.1q-.16-.74.83-.73l1.64.05c.43.19.57.43.17.79a5.79,5.79,0,0,1-2.11.19A.51.51,0,0,1,6.9,25.1Z" style="fill: #757376"/>
      </g>
      <g>
        <rect height="1.95" rx="0.42" ry="0.42" style="fill: #e7e6e8" transform="translate(71.7 35.36) rotate(180)" width="3.14" x="34.28" y="16.7"/>
        <rect height="2.38" rx="0.73" ry="0.73" style="fill: #fffdf3" transform="translate(71.7 46.27) rotate(180)" width="3.09" x="34.3" y="21.95"/>
        <rect height="3.97" rx="0.92" ry="0.92" style="fill: #b18063" transform="translate(71.8 41.76) rotate(-180)" width="2.48" x="34.66" y="18.89"/>
        <path d="M34.47,19.26q-.16-.74.83-.73l1.64.05c.43.19.57.43.17.79a5.79,5.79,0,0,1-2.11.19A.51.51,0,0,1,34.47,19.26Z" style="fill: #757376"/>
        <path d="M34.47,22.68q-.16-.74.83-.73l1.64.05c.43.19.57.43.17.79A5.79,5.79,0,0,1,35,23,.51.51,0,0,1,34.47,22.68Z" style="fill: #757376"/>
      </g>
      <g>
        <rect height="1.95" rx="0.42" ry="0.42" style="fill: #e7e6e8" transform="translate(-16.43 53.96) rotate(-90)" width="3.14" x="17.2" y="34.22"/>
        <rect height="2.38" rx="0.73" ry="0.73" style="fill: #fffdf3" transform="translate(-21.89 48.5) rotate(-90)" width="3.09" x="11.76" y="34.01"/>
        <rect height="3.97" rx="0.92" ry="0.92" style="fill: #b18063" transform="translate(-19.68 50.81) rotate(-90)" width="2.48" x="14.33" y="33.26"/>
        <path d="M17.19,33.82q.74-.16.73.83l-.05,1.64c-.19.43-.43.57-.79.17a5.79,5.79,0,0,1-.19-2.11A.51.51,0,0,1,17.19,33.82Z" style="fill: #757376"/>
        <path d="M13.77,33.82q.74-.16.73.83l-.05,1.64c-.19.43-.43.57-.79.17a5.79,5.79,0,0,1-.19-2.11A.51.51,0,0,1,13.77,33.82Z" style="fill: #757376"/>
      </g>
      <g>
        <rect height="1.95" rx="0.42" ry="0.42" style="fill: #e7e6e8" transform="translate(-5.82 64.67) rotate(-90)" width="3.14" x="27.85" y="34.27"/>
        <rect height="2.38" rx="0.73" ry="0.73" style="fill: #fffdf3" transform="translate(-11.28 59.21) rotate(-90)" width="3.09" x="22.42" y="34.05"/>
        <rect height="3.97" rx="0.92" ry="0.92" style="fill: #b18063" transform="translate(-9.07 61.52) rotate(-90)" width="2.48" x="24.98" y="33.31"/>
        <path d="M27.84,33.87q.74-.16.73.83l-.05,1.64c-.19.43-.43.57-.79.17a5.8,5.8,0,0,1-.19-2.11A.51.51,0,0,1,27.84,33.87Z" style="fill: #757376"/>
        <path d="M24.42,33.87q.74-.16.73.83l-.05,1.64c-.19.43-.43.57-.79.17a5.8,5.8,0,0,1-.19-2.11A.51.51,0,0,1,24.42,33.87Z" style="fill: #757376"/>
      </g>
    </g>
    <g id="TEXT">
      <g>
        <path d="M25.06,21.72l.72-.42a.15.15,0,0,1,.08,0,.12.12,0,0,1,.11.12c0,.08-.06.1-.12.14l-.57.33.57.33c.06,0,.12.06.12.14a.12.12,0,0,1-.11.12.15.15,0,0,1-.08,0L25.06,22l-.72.42a.15.15,0,0,1-.08,0,.12.12,0,0,1-.11-.12c0-.08.06-.1.12-.14l.57-.33-.57-.33c-.06,0-.12-.06-.12-.14a.12.12,0,0,1,.11-.12.15.15,0,0,1,.08,0Z" style="fill: #8d8a8a"/>
        <path d="M24.38,24a.12.12,0,1,1-.24,0V23h1.72a.12.12,0,0,1,0,.24H24.38Z" style="fill: #8d8a8a"/>
      </g>
      <g>
        <path d="M23.78,18.76a.12.12,0,1,1,.24,0v.88a.24.24,0,0,1-.24.26h-.45a.26.26,0,0,1-.23-.1.26.26,0,0,1-.23.1h-.45a.24.24,0,0,1-.24-.26v-.88a.12.12,0,1,1,.24,0v.88h.39c.13,0,.17-.06.17-.13V19a.12.12,0,1,1,.24,0v.5c0,.07,0,.13.17.13h.39Z" style="fill: #8d8a8a"/>
        <path d="M23.78,20.6a.12.12,0,1,1,.24,0v.88a.24.24,0,0,1-.24.26h-.45a.26.26,0,0,1-.23-.1.26.26,0,0,1-.23.1h-.45a.24.24,0,0,1-.24-.26V20.6a.12.12,0,1,1,.24,0v.88h.39c.13,0,.17-.06.17-.13v-.5a.12.12,0,1,1,.24,0v.5c0,.07,0,.13.17.13h.39Z" style="fill: #8d8a8a"/>
        <path d="M23.21,22.83v.47a.28.28,0,0,1-.07.21.22.22,0,0,1-.2.08h-.51a.24.24,0,0,1-.18-.06.26.26,0,0,1-.08-.22v-.57a.4.4,0,0,1,0-.17l0-.1c0-.07,0-.15.13-.15a.12.12,0,0,1,.12.12.2.2,0,0,1,0,.08l0,.08a.46.46,0,0,0,0,.14v.59H23v-.76h1v.88a.12.12,0,1,1-.24,0v-.63Z" style="fill: #8d8a8a"/>
        <path d="M24,25a.12.12,0,0,1-.12.13h-.68a.28.28,0,0,1-.07.19.22.22,0,0,1-.17.07h-.56a.23.23,0,0,1-.24-.26v-.75a.23.23,0,0,1,.24-.26H23a.22.22,0,0,1,.17.07.28.28,0,0,1,.07.19h.68a.12.12,0,0,1,.12.13Zm-1.6.13H23v-.75h-.57Zm.8-.26h.57v-.24h-.57Z" style="fill: #8d8a8a"/>
      </g>
      <g>
        <path d="M21.17,19.24h.23c.08,0,.16,0,.16.13s-.08.13-.16.13h-.23v.08c0,.09,0,.18-.11.18s-.11-.08-.11-.18v-.08h-.26v.08c0,.09,0,.18-.11.18s-.11-.08-.11-.18v-.08h-.23c-.08,0-.16,0-.16-.13s.08-.13.16-.13h.23V19h-.23c-.08,0-.16,0-.16-.13s.08-.13.16-.13h.23v-.08c0-.09,0-.17.11-.17s.11.08.11.17v.08h.26v-.08c0-.09,0-.17.11-.17s.11.08.11.17v.08h.23c.08,0,.16,0,.16.13s-.08.13-.16.13h-.23ZM20.94,19h-.26v.25h.26Z" style="fill: #8d8a8a"/>
        <path d="M20.07,21.41h.48c.07,0,.12,0,.12.13s0,.13-.12.13h-.6a.12.12,0,0,1-.12-.13v-1a.12.12,0,0,1,.12-.13c.09,0,.12.06.12.13v.39h1.37V20.5a.12.12,0,1,1,.24,0v.66h-1.6Z" style="fill: #8d8a8a"/>
        <path d="M20.67,23.19h.68c.06,0,.12,0,.12.13s-.06.13-.12.13h-.68a.12.12,0,1,1-.24,0h-.48c-.08,0-.12,0-.12-.13s0-.13.12-.13h.48v-.78h1.12c.06,0,.12,0,.12.13s-.06.13-.12.13h-.88Z" style="fill: #8d8a8a"/>
        <path d="M20.07,25.23h.48c.07,0,.12,0,.12.13s0,.13-.12.13h-.6a.12.12,0,0,1-.12-.13v-1a.12.12,0,1,1,.24,0v.39h1.37v-.39a.12.12,0,1,1,.24,0V25h-1.6Z" style="fill: #8d8a8a"/>
        <path d="M20.83,27.14v-.91a.13.13,0,0,1,.12-.13h.61a.13.13,0,0,1,.12.13v1a.13.13,0,0,1-.12.13h-1.6a.12.12,0,0,1-.12-.13v-.13a.12.12,0,0,1,.12-.13.12.12,0,0,1,.12.13Zm.24,0h.37v-.78h-.37Z" style="fill: #8d8a8a"/>
      </g>
      <g>
        <path d="M19.64,19.37a.12.12,0,0,1-.12.13h-.68a.29.29,0,0,1-.07.19.22.22,0,0,1-.17.07H18a.23.23,0,0,1-.24-.27v-.78a.23.23,0,0,1,.24-.27h.56a.22.22,0,0,1,.17.07.29.29,0,0,1,.07.19h.68a.12.12,0,0,1,.12.13ZM18,19.5h.57v-.78H18Zm.8-.26h.57V19h-.57Z" style="fill: #8d8a8a"/>
        <path d="M18.8,21.41V20.5a.13.13,0,0,1,.12-.13h.61a.13.13,0,0,1,.12.13v1a.13.13,0,0,1-.12.13h-1.6a.12.12,0,0,1-.12-.13v-.13a.12.12,0,0,1,.12-.13.12.12,0,0,1,.12.13Zm.24,0h.37v-.78H19Z" style="fill: #8d8a8a"/>
        <path d="M18.64,22.54v.89c0,.13,0,.16-.16.16h-.53c-.11,0-.15-.05-.15-.17v-1c0-.12,0-.17.15-.17h1.57a.1.1,0,0,1,.12.11v.16a.12.12,0,0,1-.12.13.12.12,0,0,1-.12-.13Zm-.24,0H18v.78h.36Z" style="fill: #8d8a8a"/>
        <path d="M18,24.45v.91a.12.12,0,1,1-.24,0V24.18h.77c.18,0,.27.1.27.3v.75h.57v-.91a.12.12,0,1,1,.24,0v.88a.3.3,0,0,1-.07.21.23.23,0,0,1-.21.08h-.48a.23.23,0,0,1-.21-.08.3.3,0,0,1-.07-.21v-.75Z" style="fill: #8d8a8a"/>
        <path d="M19.52,26.09c.08,0,.12,0,.12.13s0,.13-.12.13H19l.61.81a.18.18,0,0,1,0,.11.12.12,0,0,1-.12.13.14.14,0,0,1-.1-.06l-.7-.92-.7.91a.14.14,0,0,1-.1.07.12.12,0,0,1-.12-.13.28.28,0,0,1,.07-.14l.59-.78h-.55c-.08,0-.12,0-.12-.13s0-.13.12-.13Z" style="fill: #8d8a8a"/>
      </g>
      <g>
        <path d="M4.72,40.15A.4.4,0,0,1,5,40c.25,0,.37.21.37.46v.81a.59.59,0,0,1-.1.37.4.4,0,0,1-.3.17.18.18,0,0,1-.2-.19.17.17,0,0,1,.17-.17c.1,0,.11-.06.11-.16v-.79s0-.12,0-.12-.08.05-.09.07L3.46,41.71a.37.37,0,0,1-.27.12.36.36,0,0,1-.31-.19.54.54,0,0,1-.06-.3v-.78a.56.56,0,0,1,.11-.36A.43.43,0,0,1,3.23,40a.18.18,0,0,1,.19.19.15.15,0,0,1-.15.18c-.11,0-.13.06-.13.18v.78s0,.12,0,.12.07,0,.09-.05Z" style="fill: #fff"/>
        <path d="M3.14,38.83h.12c.1,0,.16.05.16.18s-.06.18-.16.18H2.81V37.39h.44c.1,0,.16.05.16.18s-.06.18-.16.18H3.14v.35H5.19c.1,0,.16.05.16.18s-.06.18-.16.18H3.14Z" style="fill: #fff"/>
      </g>
      <path d="M10,40l2,1.31V40.21a.16.16,0,1,1,.33,0v1.63h-.21l-2-1.31v1.13a.16.16,0,1,1-.33,0V40Z" style="fill: #fff"/>
      <path d="M19.16,40.75c.1,0,.16.05.16.18s-.06.18-.16.18h-1l-.84.72h-.33c-.1,0-.16-.05-.16-.18s.06-.18.16-.18h.22l.62-.54-.62-.54h-.22c-.1,0-.16-.05-.16-.18s.06-.18.16-.18h.33l.84.72Z" style="fill: #fff"/>
      <path d="M25.5,41.14l-1,.65a.19.19,0,0,1-.12,0,.17.17,0,0,1-.15-.18c0-.12.08-.16.16-.21l.78-.51-.78-.51c-.08-.05-.16-.09-.16-.21a.17.17,0,0,1,.15-.18.19.19,0,0,1,.12,0l1,.65,1-.65a.2.2,0,0,1,.12,0,.17.17,0,0,1,.15.18c0,.12-.08.16-.16.21l-.78.51.78.51c.08.05.16.09.16.21a.17.17,0,0,1-.15.18.2.2,0,0,1-.12,0Z" style="fill: #fff"/>
      <path d="M28.89,11.16c.1,0,.16.05.16.18s-.06.18-.16.18h-1l-.84.72h-.33c-.1,0-.16-.05-.16-.18s.06-.18.16-.18h.22l.62-.54-.62-.54h-.22c-.1,0-.16-.05-.16-.18s.06-.18.16-.18H27l.84.72Z" style="fill: #fff"/>
      <path d="M18.56,2.76l-1,.65a.19.19,0,0,1-.12,0,.17.17,0,0,1-.15-.18c0-.12.08-.16.16-.21l.78-.51L17.45,2c-.08-.05-.16-.09-.16-.21a.17.17,0,0,1,.15-.18.19.19,0,0,1,.12,0l1,.65,1-.65a.2.2,0,0,1,.12,0,.17.17,0,0,1,.15.18c0,.12-.08.16-.16.21l-.78.51.78.51c.08.05.16.09.16.21a.17.17,0,0,1-.15.18.2.2,0,0,1-.12,0Z" style="fill: #fff"/>
      <path d="M28.81,1.65l2,1.31V1.83a.16.16,0,1,1,.33,0V3.46h-.21l-2-1.31V3.28a.16.16,0,1,1-.33,0V1.65Z" style="fill: #fff"/>
      <g>
        <path d="M33,41.18a.16.16,0,1,1-.33,0v-.65h.64a.49.49,0,0,1,.51.53v.57a.5.5,0,0,1-.13.38.47.47,0,0,1-.4.15h-.82A.66.66,0,0,1,32,42l-.49-.39a.51.51,0,0,1-.22-.46v-.44a.16.16,0,1,1,.33,0v.4c0,.18,0,.17.13.28l.45.36a.61.61,0,0,0,.42.1h.64c.18,0,.23,0,.23-.23v-.52c0-.12,0-.22-.17-.22H33Z" style="fill: #fff"/>
        <path d="M31.43,38.48a.14.14,0,0,1-.16-.16c0-.12.06-.17.16-.17h2.38v.44l-2,.86h1.79c.1,0,.16,0,.16.17s-.06.16-.16.16H31.27v-.44l2-.86H31.43Z" style="fill: #fff"/>
        <path d="M31.59,37.08v.12c0,.11,0,.2-.16.2s-.16-.09-.16-.19v-.55a.5.5,0,0,1,.33-.5l.57-.29a.76.76,0,0,1,.38-.1.77.77,0,0,1,.36.1l.59.3a.5.5,0,0,1,.31.52v.55a.16.16,0,1,1-.33,0v-.16Zm1.89-.33v-.06c0-.14,0-.17-.14-.23l-.58-.29a.45.45,0,0,0-.21-.06.55.55,0,0,0-.27.08l-.55.27c-.14.07-.14.1-.14.25v0Z" style="fill: #fff"/>
      </g>
      <g>
        <path d="M2,13.49c0-.09.06-.17.17-.17s.15.08.17.17L3,15.7c0,.08-.07.16-.16.16a.2.2,0,0,1-.18-.16l-.12-.39H1.8l-.13.39a.2.2,0,0,1-.18.16c-.09,0-.18-.08-.16-.16Zm.17.61h0L1.9,15h.52Z" style="fill: #fff"/>
        <path d="M4,13.65H3.92c-.11,0-.2,0-.2-.16s.09-.16.19-.16h.55a.5.5,0,0,1,.5.33l.29.57a.76.76,0,0,1,.1.38.77.77,0,0,1-.1.36l-.3.59a.5.5,0,0,1-.52.31H3.88a.16.16,0,1,1,0-.33H4Zm.33,1.89h.06c.14,0,.17,0,.23-.14L5,14.82A.45.45,0,0,0,5,14.61a.55.55,0,0,0-.08-.27l-.27-.55c-.07-.14-.1-.14-.25-.14h0Z" style="fill: #fff"/>
        <path d="M6.72,14.6l-.59-1a.21.21,0,0,1,0-.12.16.16,0,0,1,.16-.15c.11,0,.14.08.19.16l.46.78.46-.78c0-.08.08-.16.19-.16a.16.16,0,0,1,.16.15.21.21,0,0,1,0,.12l-.59,1,.59,1a.21.21,0,0,1,0,.12.16.16,0,0,1-.16.15c-.11,0-.14-.08-.19-.16l-.46-.78-.46.78c0,.08-.08.16-.19.16a.16.16,0,0,1-.16-.15.21.21,0,0,1,0-.12Z" style="fill: #fff"/>
        <path d="M9.93,15.54a.16.16,0,1,1,0,.33H8.47V13.49c0-.1,0-.16.16-.16s.17.06.17.16v2.05Z" style="fill: #fff"/>
        <path d="M13.41,13.65a.16.16,0,1,1,0-.33H14.6a.33.33,0,0,1,.35.33v.63a.37.37,0,0,1-.14.32.37.37,0,0,1,.14.32v.63a.33.33,0,0,1-.35.33H13.41a.16.16,0,1,1,0-.33H14.6V15c0-.18-.08-.24-.17-.24h-.68a.16.16,0,1,1,0-.33h.68c.1,0,.17-.06.17-.24v-.54Z" style="fill: #fff"/>
        <path d="M15.9,13.65a.16.16,0,1,1,0-.33h1.19a.33.33,0,0,1,.35.33v.63a.37.37,0,0,1-.13.32.37.37,0,0,1,.13.32v.63a.33.33,0,0,1-.35.33H15.9a.16.16,0,1,1,0-.33h1.19V15c0-.18-.08-.24-.17-.24h-.68a.16.16,0,1,1,0-.33h.68c.1,0,.17-.06.17-.24v-.54Z" style="fill: #fff"/>
        <path d="M18.91,14.43h.64a.37.37,0,0,1,.28.09.31.31,0,0,1,.11.28v.7a.33.33,0,0,1-.08.25.35.35,0,0,1-.3.11h-.77a.53.53,0,0,1-.23-.06l-.13-.06c-.09,0-.2-.07-.2-.18a.17.17,0,0,1,.17-.16l.11,0,.1,0a.6.6,0,0,0,.18.07h.8v-.78h-1V13.33h1.2a.16.16,0,1,1,0,.33h-.85Z" style="fill: #fff"/>
      </g>
      <g>
        <path d="M38.89,40.67h-.52c-.1,0-.16-.05-.16-.18s.06-.18.16-.18h.52a.31.31,0,0,1,.13,0l1.59.7c.08,0,.14.07.14.18s-.06.15-.14.18l-1.59.7a.31.31,0,0,1-.13,0h-.52c-.1,0-.16-.05-.16-.18s.06-.18.16-.18h.52l1.25-.54Z" style="fill: #fff"/>
        <path d="M40.74,38.5a.55.55,0,0,1-.31.55l-.61.34a.67.67,0,0,1-.34.1.65.65,0,0,1-.36-.1l-.6-.34a.56.56,0,0,1-.31-.56v-.62a.16.16,0,0,1,.16-.18.17.17,0,0,1,.16.18v.61c0,.16,0,.18.14.25l.57.32a.47.47,0,0,0,.25.08.42.42,0,0,0,.23-.08l.56-.31c.13-.07.14-.11.14-.27v-.6a.16.16,0,0,1,.16-.18.17.17,0,0,1,.16.18Z" style="fill: #fff"/>
        <path d="M40.74,35.86a.55.55,0,0,1-.31.55l-.61.34a.67.67,0,0,1-.34.1.65.65,0,0,1-.36-.1l-.6-.34a.56.56,0,0,1-.31-.56v-.62a.16.16,0,0,1,.16-.18.17.17,0,0,1,.16.18v.61c0,.16,0,.18.14.25l.57.32a.47.47,0,0,0,.25.08.42.42,0,0,0,.23-.08l.56-.31c.13-.07.14-.11.14-.27v-.6a.16.16,0,0,1,.16-.18.17.17,0,0,1,.16.18Z" style="fill: #fff"/>
      </g>
      <polygon points="30.89 42.76 28.95 44.5 27.17 42.91 23.57 42.91 21.86 44.44 20.05 42.83 16.42 42.83 14.57 44.48 12.8 42.9 9.1 42.9 7.21 44.59 5.3 42.88 1.88 42.88 0.25 44.34 0.25 48.48 1.88 49.94 5.3 49.94 7.21 48.23 9.1 49.91 12.8 49.91 14.57 48.34 16.42 49.98 20.05 49.98 21.86 48.37 23.57 49.91 27.17 49.91 28.95 48.32 30.89 50.05 34.25 50.05 36.18 48.34 37.76 49.86 41.03 49.86 42.92 47.97 42.92 44.57 41.29 42.94 37.76 42.94 36.18 44.48 34.25 42.76 30.89 42.76" style="fill: none;stroke: #eeefeb;stroke-miterlimit: 10;stroke-width: 0.5px"/>
      <line style="fill: none;stroke: #fff;stroke-linecap: round;stroke-miterlimit: 10" x1="25.81" x2="25.81" y1="8.06" y2="14.35"/>
      <polyline points="24.58 14.23 25.75 15.4 26.92 14.23" style="fill: none;stroke: #fff;stroke-linecap: round;stroke-linejoin: round"/>
      <line style="fill: none;stroke: #fff;stroke-linecap: round;stroke-miterlimit: 10" x1="22.43" x2="16.14" y1="4.62" y2="4.62"/>
      <polyline points="16.27 3.39 15.1 4.56 16.27 5.73" style="fill: none;stroke: #fff;stroke-linecap: round;stroke-linejoin: round"/>
    </g>
  </g>
  <g id="Connectors">
    <circle cx="3.81" cy="46.6" data-cir-type="male" id="circuitoCon_ST" r="2.05" style="fill: none;stroke: #e8e5df;stroke-width: 1.224px"/>
    <circle cx="11.01" cy="46.6" data-cir-type="male" id="circuitoCon_ZOUT" r="2.05" style="fill: none;stroke: #e8e5df;stroke-width: 1.224px"/>
    <circle cx="18.21" cy="46.6" data-cir-type="male" id="circuitoCon_YOUT" r="2.05" style="fill: none;stroke: #e8e5df;stroke-width: 1.224px"/>
    <circle cx="25.41" cy="46.6" data-cir-type="male" id="circuitoCon_XOUT" r="2.05" style="fill: none;stroke: #e8e5df;stroke-width: 1.224px"/>
    <circle cx="32.61" cy="46.6" data-cir-type="male" id="circuitoCon_GND" r="2.05" style="fill: none;stroke: #e8e5df;stroke-width: 1.224px"/>
    <circle cx="39.81" cy="46.6" data-cir-type="male" id="circuitoCon_VCC" r="2.05" style="fill: none;stroke: #e8e5df;stroke-width: 1.224px"/>
  </g>
</svg>