<?xml version="1.0" ?><svg height="11.93mm" viewBox="0 0 52.42 33.81" width="18.49mm" xmlns="http://www.w3.org/2000/svg" xmlns:xlink="http://www.w3.org/1999/xlink">
  <defs>
    <linearGradient gradientTransform="matrix(1, 0, 0, -1, -6.05, 33.8)" gradientUnits="userSpaceOnUse" id="linear-gradient" x1="32.28" x2="32.28" y1="0.24" y2="32.84">
      <stop offset="0" stop-color="#040404"/>
      <stop offset="0.99" stop-color="#262626"/>
      <stop offset="0.99" stop-color="#1e1e1e"/>
      <stop offset="0.99" stop-color="#131313"/>
      <stop offset="0.99" stop-color="#0c0c0c"/>
      <stop offset="1" stop-color="#0a0a0a"/>
      <stop offset="1" stop-color="#262626"/>
    </linearGradient>
    <linearGradient gradientTransform="matrix(1, 0, 0, -1, -0.1, 33.66)" gradientUnits="userSpaceOnUse" id="linear-gradient-2" x1="2.58" x2="9.74" y1="16.47" y2="16.47">
      <stop offset="0" stop-color="#141414"/>
      <stop offset="0.35" stop-color="#343434"/>
      <stop offset="0.5" stop-color="#424242"/>
      <stop offset="0.65" stop-color="#343434"/>
      <stop offset="1" stop-color="#141414"/>
    </linearGradient>
    <linearGradient gradientTransform="matrix(1, 0, 0, -1, -6.05, 33.8)" gradientUnits="userSpaceOnUse" id="linear-gradient-3" x1="7.64" x2="16.85" y1="27.32" y2="27.32">
      <stop offset="0" stop-color="#e5e2df"/>
      <stop offset="0" stop-color="#d8d4d0"/>
      <stop offset="0" stop-color="#ccc7c2"/>
      <stop offset="0.07" stop-color="#bdb9b4"/>
      <stop offset="0.15" stop-color="#a7a3a0"/>
      <stop offset="0.52" stop-color="#e0e1e2"/>
      <stop offset="0.62" stop-color="#d3d3d3"/>
      <stop offset="0.82" stop-color="#b2afac"/>
      <stop offset="0.88" stop-color="#a7a3a0"/>
      <stop offset="1" stop-color="#d1d3d4"/>
      <stop offset="1" stop-color="#a7a9ac"/>
    </linearGradient>
    <linearGradient id="linear-gradient-4" x1="7.64" x2="16.85" xlink:href="#linear-gradient-3" y1="29.96" y2="29.96"/>
    <linearGradient id="linear-gradient-5" x1="7.64" x2="16.84" xlink:href="#linear-gradient-3" y1="24.69" y2="24.69"/>
    <linearGradient id="linear-gradient-6" x1="7.64" x2="16.85" xlink:href="#linear-gradient-3" y1="22.09" y2="22.09"/>
    <linearGradient id="linear-gradient-7" x1="7.64" x2="16.85" xlink:href="#linear-gradient-3" y1="19.47" y2="19.47"/>
    <linearGradient id="linear-gradient-8" x1="7.64" x2="16.85" xlink:href="#linear-gradient-3" y1="16.86" y2="16.86"/>
    <linearGradient id="linear-gradient-9" x1="7.64" x2="16.85" xlink:href="#linear-gradient-3" y1="14.24" y2="14.24"/>
    <linearGradient id="linear-gradient-10" x1="7.64" x2="16.85" xlink:href="#linear-gradient-3" y1="11.63" y2="11.63"/>
    <linearGradient id="linear-gradient-11" x1="7.64" x2="16.85" xlink:href="#linear-gradient-3" y1="9.01" y2="9.01"/>
    <linearGradient id="linear-gradient-12" x1="7.64" x2="16.85" xlink:href="#linear-gradient-3" y1="6.4" y2="6.4"/>
    <linearGradient id="linear-gradient-13" x1="7.64" x2="16.84" xlink:href="#linear-gradient-3" y1="3.79" y2="3.79"/>
    <linearGradient gradientUnits="userSpaceOnUse" id="linear-gradient-14" x1="32.27" x2="39.17" y1="15.56" y2="3.6">
      <stop offset="0" stop-color="#cbd1d6"/>
      <stop offset="0.2" stop-color="#bac0c5"/>
      <stop offset="0.43" stop-color="#aab1b5"/>
      <stop offset="0.52" stop-color="#b7bec2"/>
      <stop offset="0.84" stop-color="#e3eaed"/>
      <stop offset="1" stop-color="#f4fbfe"/>
    </linearGradient>
    <linearGradient id="linear-gradient-15" x1="36.8" x2="44.5" xlink:href="#linear-gradient-14" y1="31.24" y2="17.91"/>
    <linearGradient id="linear-gradient-16" x1="43.52" x2="51.5" xlink:href="#linear-gradient-14" y1="16.47" y2="2.64"/>
  </defs>
  <title>Relay SPDT</title>
  <g data-name="Layer 1" id="Layer_1">
    <g data-name="Layer 3" id="Layer_3">
      <path d="M52.43,32.56a1,1,0,0,1-.9,1H.91a1,1,0,0,1-.9-1V2a1,1,0,0,1,.9-1H51.52a1,1,0,0,1,.9,1Z" id="path19" style="fill: url(#linear-gradient)" transform="translate(-0.01 -0.07)"/>
      <rect height="32.2" style="fill: url(#linear-gradient-2)" width="7.16" x="2.48" y="1.1"/>
    </g>
    <g data-name="Layer 2" id="Layer_2">
      <g id="Element">
        <path d="M2.2,6.44a.75.75,0,0,1-.6-.87h0A.75.75,0,0,1,2.49,5h0l7.69,1.55a.75.75,0,0,1,.6.87h0A.75.75,0,0,1,9.9,8Z" style="fill: url(#linear-gradient-3)" transform="translate(-0.01 -0.07)"/>
        <path d="M2.2,3.8a.75.75,0,0,1-.6-.87h0a.75.75,0,0,1,.89-.57h0l7.69,1.55a.75.75,0,0,1,.6.87h0a.75.75,0,0,1-.89.57Z" style="fill: url(#linear-gradient-4)" transform="translate(-0.01 -0.07)"/>
        <path d="M2.2,9.07a.75.75,0,0,1-.6-.87h0a.75.75,0,0,1,.89-.57h0l7.68,1.54a.75.75,0,0,1,.6.87h0a.75.75,0,0,1-.89.57Z" style="fill: url(#linear-gradient-5)" transform="translate(-0.01 -0.07)"/>
        <path d="M2.2,11.67a.75.75,0,0,1-.6-.87h0a.75.75,0,0,1,.89-.57h0l7.69,1.55a.75.75,0,0,1,.6.87h0a.75.75,0,0,1-.89.57Z" style="fill: url(#linear-gradient-6)" transform="translate(-0.01 -0.07)"/>
        <path d="M2.2,14.28a.75.75,0,0,1-.6-.87h0a.75.75,0,0,1,.89-.57h0l7.69,1.55a.75.75,0,0,1,.6.87h0a.75.75,0,0,1-.89.57Z" style="fill: url(#linear-gradient-7)" transform="translate(-0.01 -0.07)"/>
        <path d="M2.2,16.89A.75.75,0,0,1,1.6,16h0a.75.75,0,0,1,.89-.57h0L10.19,17a.75.75,0,0,1,.6.87h0a.75.75,0,0,1-.89.57Z" style="fill: url(#linear-gradient-8)" transform="translate(-0.01 -0.07)"/>
        <path d="M2.2,19.51a.75.75,0,0,1-.6-.87h0a.75.75,0,0,1,.89-.57h0l7.69,1.55a.75.75,0,0,1,.6.87h0a.75.75,0,0,1-.89.57Z" style="fill: url(#linear-gradient-9)" transform="translate(-0.01 -0.07)"/>
        <path d="M2.2,22.12a.75.75,0,0,1-.6-.87h0a.75.75,0,0,1,.89-.57h0l7.69,1.55a.75.75,0,0,1,.6.87h0a.75.75,0,0,1-.89.57Z" style="fill: url(#linear-gradient-10)" transform="translate(-0.01 -0.07)"/>
        <path d="M2.2,24.74a.75.75,0,0,1-.6-.87h0a.75.75,0,0,1,.89-.57h0l7.69,1.55a.75.75,0,0,1,.6.87h0a.75.75,0,0,1-.89.57Z" style="fill: url(#linear-gradient-11)" transform="translate(-0.01 -0.07)"/>
        <path d="M2.2,27.35a.75.75,0,0,1-.6-.87h0a.75.75,0,0,1,.89-.57h0l7.69,1.55a.75.75,0,0,1,.6.87h0a.75.75,0,0,1-.89.57Z" style="fill: url(#linear-gradient-12)" transform="translate(-0.01 -0.07)"/>
        <path d="M2.2,30a.75.75,0,0,1-.6-.87h0a.75.75,0,0,1,.89-.57h0l7.68,1.53a.75.75,0,0,1,.6.87h0a.75.75,0,0,1-.89.57Z" style="fill: url(#linear-gradient-13)" transform="translate(-0.01 -0.07)"/>
      </g>
    </g>
    <g data-name="Layer 6" id="Layer_6">
      <ellipse cx="33.75" cy="1.98" data-name="circuitoCon NC" id="circuitoCon_NC" rx="1.6" ry="1.67" style="fill: none"/>
      <circle cx="5.21" cy="2.26" data-name="circuitoCon Coil1" id="circuitoCon_Coil1" r="1.53" style="fill: none"/>
      <ellipse cx="5.21" cy="32.03" data-name="circuitoCon Coil2" id="circuitoCon_Coil2" rx="1.8" ry="1.4" style="fill: none"/>
      <circle cx="47.86" cy="1.87" data-name="circuitoCon NO" id="circuitoCon_NO" r="1.87" style="fill: none"/>
      <ellipse cx="41.03" cy="32.32" data-name="circuitoCon Main" id="circuitoCon_Main" rx="1.6" ry="1.49" style="fill: none"/>
    </g>
  </g>
  <g id="Connectors">
    <g>
      <polygon points="33.57 16.31 33.56 0.94 34.56 0.94 34.57 15.29 39.02 15.21 39.04 16.21 33.57 16.31" style="fill: url(#linear-gradient-14)"/>
      <polygon points="40.69 33.49 40.69 19.04 39.47 15.9 40.4 15.54 41.69 18.95 41.69 33.49 40.69 33.49" style="fill: url(#linear-gradient-15)"/>
    </g>
    <polygon points="48.54 16.31 48.55 0.94 47.55 0.94 47.54 15.29 43.09 15.21 43.07 16.21 48.54 16.31" style="fill: url(#linear-gradient-16)"/>
  </g>
</svg>