<?xml version="1.0" ?><svg height="134.58mm" viewBox="0 0 394.25 381.48" width="139.08mm" xmlns="http://www.w3.org/2000/svg" xmlns:xlink="http://www.w3.org/1999/xlink">
  <defs>
    <linearGradient gradientTransform="translate(-2.48 2.56) rotate(-0.74)" gradientUnits="userSpaceOnUse" id="linear-gradient" x1="188.12" x2="210.32" y1="64.32" y2="97.33">
      <stop offset="0" stop-color="#fff"/>
      <stop offset="0.1" stop-color="#fbfbfb"/>
      <stop offset="0.19" stop-color="#f1f0f0"/>
      <stop offset="0.28" stop-color="#dfdddc"/>
      <stop offset="0.37" stop-color="#c5c3c1"/>
      <stop offset="0.46" stop-color="#a5a19e"/>
      <stop offset="0.53" stop-color="#847e7a"/>
      <stop offset="0.73" stop-color="#827c78"/>
      <stop offset="0.8" stop-color="#7b7672"/>
      <stop offset="0.85" stop-color="#706a67"/>
      <stop offset="0.9" stop-color="#5f5a57"/>
      <stop offset="0.93" stop-color="#494543"/>
      <stop offset="0.96" stop-color="#2d2b2a"/>
      <stop offset="0.99" stop-color="#0e0d0d"/>
      <stop offset="1"/>
    </linearGradient>
    <linearGradient gradientTransform="translate(27.77 -64.12) rotate(16.9)" gradientUnits="userSpaceOnUse" id="linear-gradient-2" x1="225.72" x2="247.9" y1="56.83" y2="124.72">
      <stop offset="0" stop-color="#fff"/>
      <stop offset="0.04" stop-color="#fbfbfb"/>
      <stop offset="0.07" stop-color="#f1f0f0"/>
      <stop offset="0.11" stop-color="#dfdddc"/>
      <stop offset="0.15" stop-color="#c5c3c1"/>
      <stop offset="0.18" stop-color="#a5a19e"/>
      <stop offset="0.21" stop-color="#847e7a"/>
      <stop offset="0.28" stop-color="#6e6966"/>
      <stop offset="0.44" stop-color="#474442"/>
      <stop offset="0.59" stop-color="#282625"/>
      <stop offset="0.73" stop-color="#121110"/>
      <stop offset="0.87" stop-color="#050404"/>
      <stop offset="1"/>
    </linearGradient>
    <linearGradient gradientTransform="translate(31.67 -64.67) rotate(16.9)" id="linear-gradient-3" x1="229.32" x2="251.12" xlink:href="#linear-gradient-2" y1="69.35" y2="136.04"/>
    <linearGradient gradientTransform="matrix(0.96, 0.11, -0.29, 0.37, 25.27, 12.46)" id="linear-gradient-4" x1="222.61" x2="244.8" xlink:href="#linear-gradient-2" y1="46.91" y2="114.8"/>
    <linearGradient gradientTransform="matrix(0.96, 0.11, -0.29, 0.37, 30.19, 11.64)" id="linear-gradient-5" x1="235.08" x2="257.27" xlink:href="#linear-gradient-2" y1="87.26" y2="155.16"/>
  </defs>
  <title>Coin Acceptor - Programmable (3 coin types)</title>
  <g id="BLACKSQUARE">
    <g>
      <g>
        <rect height="25.25" style="fill: #363235" transform="translate(-4.56 1.86) rotate(-0.74)" width="11.63" x="135.11" y="340.02"/>
        <polygon points="134.95 340.1 136.81 337.57 149.23 337.41 146.57 339.95 134.95 340.1" style="fill: #c8c5bf"/>
      </g>
      <polygon points="149.23 337.41 149.55 362.08 146.9 365.19 146.57 339.95 149.23 337.41" style="fill: #c8c5bf"/>
    </g>
    <g>
      <rect height="25.25" style="fill: #363235" transform="translate(-4.57 0.43) rotate(-0.74)" width="11.63" x="25.07" y="340.2"/>
      <polygon points="24.91 340.27 26.77 337.75 39.19 337.59 36.53 340.12 24.91 340.27" style="fill: #c8c5bf"/>
    </g>
    <rect height="25.25" style="fill: #363235" transform="translate(-2.32 0.43) rotate(-0.74)" width="11.63" x="26.04" y="166.17"/>
    <rect height="6.83" style="fill: #56585c" transform="translate(-27.45 36.28) rotate(-18.46)" width="24.74" x="85.52" y="99.19"/>
    <polygon points="151.05 91.87 147.82 86.41 29.33 123.7 28.67 381.48 142.62 380 142.8 275.24 151.05 91.87" style="fill: #262324"/>
    <rect height="31.25" style="fill: #0e1411" transform="translate(-3.09 2.3) rotate(-0.74)" width="43.67" x="153.76" y="223.65"/>
    <rect height="29.08" rx="1.92" ry="1.92" style="fill: #302f33" transform="translate(-3.09 2.3) rotate(-0.74)" width="43.67" x="153.76" y="224.73"/>
    <rect height="3.44" style="fill: #fd4f57" transform="translate(-2.55 0.24) rotate(-0.74)" width="34.33" x="0.02" y="194.81"/>
    <rect height="3.44" style="fill: #dbd9d6" transform="translate(-2.64 0.24) rotate(-0.74)" width="34.33" x="0.12" y="202.21"/>
    <rect height="3.44" style="fill: #4d4845" transform="translate(-2.74 0.24) rotate(-0.74)" width="34.33" x="0.21" y="209.61"/>
    <rect height="3.44" style="fill: #a5a5a8" transform="translate(-2.83 0.24) rotate(-0.74)" width="34.33" x="0.31" y="217.01"/>
  </g>
  <g id="CABLE">
    <path d="M153.61,289.6c14.54,19.06,18.23,28.43,1.15,27.74l-22.65,1.54" style="fill: none;stroke: #b0332c;stroke-miterlimit: 10;stroke-width: 3px"/>
    <path d="M161.27,289.5c15.4,21.77,4.19,31.4-20.71,34.77" style="fill: none;stroke: #0c0b0b;stroke-miterlimit: 10;stroke-width: 3px"/>
  </g>
  <g data-name="RIGHT PIECES" id="RIGHT_PIECES">
    <g>
      <rect height="7.67" style="fill: #949c9d" transform="translate(-1.27 4.22) rotate(-0.74)" width="17.33" x="316.13" y="95.95"/>
      <polygon points="309.57 108.56 305.68 116.7 305.01 65.37 308.98 62.65 309.57 108.56" style="fill: #1d2020"/>
      <ellipse cx="308.01" cy="72" rx="2.92" ry="9.33" style="fill: #bebfc3" transform="translate(-0.91 4) rotate(-0.74)"/>
      <rect height="19.33" style="fill: #c4bdb5" transform="translate(-0.91 4.17) rotate(-0.74)" width="24" x="309.1" y="62.5"/>
      <rect height="49" rx="3.08" ry="3.08" style="fill: #45474d" transform="translate(-1.1 4.07) rotate(-0.74)" width="7.67" x="309.29" y="62.6"/>
      <polygon points="309.57 108.56 317.24 108.47 311.71 118.95 305.71 119.03 305.68 116.7 309.57 108.56" style="fill: #1a1b1c"/>
      <ellipse cx="305.65" cy="72.53" rx="2.88" ry="7.94" style="fill: #66696a" transform="translate(-0.91 3.97) rotate(-0.74)"/>
      <ellipse cx="303.69" cy="72.55" rx="1.6" ry="3.29" style="fill: #a7a4a3" transform="translate(-0.92 3.94) rotate(-0.74)"/>
    </g>
    <g>
      <rect height="10.04" style="fill: #949c9d" transform="translate(-3.41 4.24) rotate(-0.74)" width="18.35" x="316.42" y="259.73"/>
      <polygon points="309.21 253.72 304.84 243.19 305.71 310.39 309.99 313.83 309.21 253.72" style="fill: #1d2020"/>
      <ellipse cx="308.69" cy="301.62" rx="3.09" ry="12.22" style="fill: #bebfc3" transform="translate(-3.88 4.03) rotate(-0.74)"/>
      <rect height="25.31" style="fill: #c4bdb5" transform="translate(-3.88 4.21) rotate(-0.74)" width="25.41" x="309.83" y="288.35"/>
      <rect height="64.15" rx="3.08" ry="3.08" style="fill: #45474d" transform="translate(-3.63 4.09) rotate(-0.74)" width="8.12" x="309.58" y="249.63"/>
      <polygon points="309.21 253.72 317.33 253.61 311.15 240.06 304.8 240.14 304.84 243.19 309.21 253.72" style="fill: #1a1b1c"/>
      <ellipse cx="306.16" cy="301" rx="3.04" ry="10.39" style="fill: #66696a" transform="translate(-3.88 3.99) rotate(-0.74)"/>
      <ellipse cx="304.09" cy="301.03" rx="1.69" ry="4.31" style="fill: #a7a4a3" transform="translate(-3.88 3.97) rotate(-0.74)"/>
    </g>
  </g>
  <g id="background">
    <path d="M332.12,355.88l-26.47-15.5A99.29,99.29,0,0,0,307.09,325c.1-6.51-.5-8.89,1.09-12,2.46-4.84,8.56-8.34,13.77-7.8,7.79.8,15.35,10.81,13.56,23.83Z" style="fill: #928e8f"/>
    <polygon points="332.69 43.05 331.19 4.69 306.57 31.22 306.21 47.6 332.69 43.05" style="fill: #bfc1bc"/>
    <polygon points="331.35 17.08 326.05 23.34 326.39 49.12 332.93 46.26 331.35 17.08" style="fill: #e5e9eb"/>
    <path d="M343,40.21c14.44-.19,15.68,95.14,1.24,95.33Z" style="fill: #dddfe0"/>
    <rect height="39.25" style="fill: #494d4f" transform="translate(-2.36 4.74) rotate(-0.74)" width="11.5" x="358.9" y="165.11"/>
    <polygon points="344.49 153.53 362.8 157.88 363.46 208.83 342.57 213.65 344.49 153.53" style="fill: #373c44"/>
    <rect height="41" rx="3.81" ry="3.81" style="fill: #e6e7e9" transform="translate(-4 4.82) rotate(-0.74)" width="48.75" x="345.29" y="290.8"/>
    <path d="M343.28,60.17c12-.16,12.71,54.6.71,54.76Z" style="fill: #4a4c4d"/>
    <path d="M330.69,9.08,310.46,35.86c-4.12-.32-5.25-1.19-3.87-2.52L331.16,2.9Z" style="fill: #615b57"/>
    <path d="M306.51,34.1,330.25,4.66l.33-4.34L305.08,29.85C304.67,33.31,305.25,34.49,306.51,34.1Z" style="fill: #dddee0"/>
    <path d="M190.36,67.27c-1,.54-.94,2.64-.68,5.1l10.82,24.45,2.23-20.95Z" style="fill: url(#linear-gradient)"/>
    <polygon points="155.57 83.97 179.72 76 181.86 82.07 277.39 49.48 276.07 44.74 297.24 38.22 332.66 37.76 333.15 127.51 335.62 330.25 125.42 284.14 155.57 83.97" style="fill: #212224"/>
    <rect height="20.49" style="fill: #747573" transform="translate(-2.65 4.07) rotate(-0.74)" width="45.17" x="290.17" y="196.13"/>
    <polygon points="311.95 189.29 312.06 197.46 305.56 197.54 305.76 212.87 324.04 208.63 325.56 187.61 311.95 189.29" style="fill: #585a59"/>
    <rect height="25.67" style="fill: #555" transform="translate(-2.13 4.18) rotate(-0.74)" width="17.67" x="312.33" y="153.84"/>
    <polygon points="320.19 156.51 314.25 160.76 314.52 181.43 320.74 179.01 320.19 156.51" style="fill: #2e2c2b"/>
    <rect height="18.5" style="fill: #252324" transform="translate(-2.35 4.24) rotate(-0.74)" width="13.92" x="318.54" y="174.11"/>
    <rect height="22.6" style="fill: #434748" transform="translate(-1.62 3.78) rotate(-0.74)" width="8" x="286.81" y="115.62"/>
    <rect height="22.6" style="fill: #434748" transform="translate(-3.2 3.81) rotate(-0.74)" width="8" x="288.38" y="237.06"/>
    <path d="M130.9,379.57l-92,1.19c-5.08,1.06-7.1-2.31-7.6-7.9l.84-243.78c-.16-3.45,1.86-6.19,7.15-7.84l96-31.58,3.32-1,142-.17c5,0,9,1.58,9,10.22L291.92,277c-.3,7-4.77,9-11.73,8.15l-129,.92c-7-.22-9.81,3-8.63,9.61l.24,76.5C143.1,377.63,139.25,380.18,130.9,379.57Z" style="fill: #2e2c2d"/>
    <rect height="11.47" style="fill: #434748" transform="translate(73.64 -44.86) rotate(12.79)" width="25.9" x="224.07" y="300.44"/>
    <rect height="18.33" style="fill: #8a8983" transform="translate(-2.12 4.24) rotate(-0.74)" width="11.92" x="320.31" y="156.44"/>
    <rect height="18.33" style="fill: #8a8983" transform="translate(-2.58 4.25) rotate(-0.74)" width="11.92" x="320.77" y="191.63"/>
    <rect height="19.17" style="fill: #8a8983" transform="translate(-2.36 4.17) rotate(-0.74)" width="4.5" x="318.55" y="174.18"/>
    <rect height="3" style="fill: #8a8983" transform="translate(-1.97 4.05) rotate(-0.74)" width="44" x="289.49" y="152.46"/>
    <rect height="19.67" style="fill: #8a8983" transform="translate(-1.87 4.31) rotate(-0.74)" width="6" x="328.57" y="136.7"/>
    <rect height="8.5" style="fill: #434549" transform="translate(-2.39 4.16) rotate(-0.74)" width="6.62" x="316.46" y="182.19"/>
    <rect height="8.5" style="fill: #434549" transform="translate(-2.39 4.03) rotate(-0.74)" width="12.33" x="303.08" y="182.32"/>
    <rect height="9.67" rx="0.92" ry="0.92" style="fill: #343127" transform="translate(-2.61 4.02) rotate(-0.74)" width="1.83" x="307.63" y="198.34"/>
    <rect height="8.91" style="fill: #5e646a" transform="translate(-8.58 75.68) rotate(-18.35)" width="104.17" x="177.86" y="59.93"/>
    <rect height="13.1" rx="6.55" ry="6.55" style="fill: #5e646a" transform="translate(-8.46 83.23) rotate(-17.69)" width="21.53" x="252.47" y="62.26"/>
    <rect height="39" rx="4.44" ry="4.44" style="fill: #313335" transform="translate(-4.02 4.78) rotate(-0.74)" width="45.45" x="343.85" y="292.84"/>
    <polygon points="333.09 0 346.72 16.88 347.99 346.34 337.73 357.47 333.09 0" style="fill: #bfc1c0"/>
    <rect height="357.5" rx="1.91" ry="1.91" style="fill: #373c44" transform="translate(-2.29 4.35) rotate(-0.74)" width="5.33" x="331.98" y="-0.01"/>
    <rect height="10.75" rx="1.65" ry="1.65" style="fill: #acaba5" transform="translate(-0.37 4.25) rotate(-0.74)" width="3.29" x="326.15" y="25.57"/>
    <polygon points="331.77 329.6 331.67 321.55 307.94 318.83 307.94 318.83 308.01 324.24 331.77 329.6" style="fill: none"/>
    <polygon points="308.02 325.48 312.73 326.29 309.06 330.59 307.28 330.61 307.42 340.74 332.07 352.67 331.77 329.6 308.01 324.24 308.02 325.48" style="fill: none"/>
    <polygon points="331.77 329.6 332.07 352.67 307.42 340.74 307.28 330.61 309.06 330.59 312.73 326.29 308.02 325.48 308.01 324.24 304.86 323.53 305.13 344.39 332.49 359.04 334.3 357.24 333.95 330.09 331.77 329.6" style="fill: #b6c2c8"/>
  </g>
  <g id="ELLIPSE">
    <rect height="16.08" rx="8.04" ry="8.04" style="fill: #012c29" transform="translate(-2.4 2.72) rotate(-0.74)" width="84.5" x="166.58" y="178.72"/>
    <ellipse cx="102.19" cy="251.95" rx="31.11" ry="24.89" style="fill: #5e815e" transform="translate(-3.26 1.35) rotate(-0.74)"/>
    <ellipse cx="101.1" cy="253.28" rx="25.67" ry="20.08" style="fill: #b6fda7" transform="translate(-3.28 1.33) rotate(-0.74)"/>
    <g>
      <circle cx="144.63" cy="187.21" r="7.66" style="fill: #161612" transform="translate(-2.42 1.89) rotate(-0.74)"/>
      <circle cx="144.63" cy="187.21" r="4.5" style="fill: #8e9193" transform="translate(-2.42 1.89) rotate(-0.74)"/>
    </g>
    <g>
      <circle cx="140.79" cy="238.6" r="7.66" style="fill: #161612" transform="translate(-3.08 1.85) rotate(-0.74)"/>
      <circle cx="140.79" cy="238.6" r="4.5" style="fill: #8e9193" transform="translate(-3.08 1.85) rotate(-0.74)"/>
    </g>
    <g>
      <circle cx="211.36" cy="237.68" r="7.66" style="fill: #161612" transform="translate(-3.06 2.76) rotate(-0.74)"/>
      <circle cx="211.36" cy="237.68" r="4.5" style="fill: #8e9193" transform="translate(-3.06 2.76) rotate(-0.74)"/>
    </g>
    <g>
      <circle cx="174.28" cy="187.91" r="4.66" style="fill: #c3c1b9" transform="translate(-2.42 2.28) rotate(-0.74)"/>
      <rect height="3.33" style="fill: #3b323d" transform="translate(-2.42 2.28) rotate(-0.74)" width="3.33" x="172.61" y="186.24"/>
    </g>
    <g>
      <circle cx="187.9" cy="187.73" r="4.66" style="fill: #c3c1b9" transform="translate(-2.42 2.45) rotate(-0.74)"/>
      <rect height="3.33" style="fill: #3b323d" transform="translate(-2.42 2.45) rotate(-0.74)" width="3.33" x="186.23" y="186.07"/>
    </g>
    <g>
      <circle cx="201.42" cy="187.56" r="4.66" style="fill: #c3c1b9" transform="translate(-2.41 2.63) rotate(-0.74)"/>
      <rect height="3.33" style="fill: #3b323d" transform="translate(-2.41 2.63) rotate(-0.74)" width="3.33" x="199.75" y="185.89"/>
    </g>
    <g>
      <circle cx="215.21" cy="187.38" r="4.66" style="fill: #c3c1b9" transform="translate(-2.41 2.81) rotate(-0.74)"/>
      <rect height="3.33" style="fill: #3b323d" transform="translate(-2.41 2.81) rotate(-0.74)" width="3.33" x="213.54" y="185.71"/>
    </g>
    <g>
      <circle cx="228.71" cy="187.2" r="4.66" style="fill: #c3c1b9" transform="translate(-2.41 2.98) rotate(-0.74)"/>
      <rect height="3.33" style="fill: #3b323d" transform="translate(-2.41 2.98) rotate(-0.74)" width="3.33" x="227.04" y="185.54"/>
    </g>
    <g>
      <circle cx="242.54" cy="187.02" r="4.66" style="fill: #c3c1b9" transform="translate(-2.4 3.16) rotate(-0.74)"/>
      <rect height="3.33" style="fill: #3b323d" transform="translate(-2.4 3.16) rotate(-0.74)" width="3.33" x="240.87" y="185.36"/>
    </g>
    <circle cx="290.23" cy="56.81" r="9" style="fill: #2c2d32" transform="translate(-0.71 3.77) rotate(-0.74)"/>
    <circle cx="293.45" cy="305.04" r="9" style="fill: #2c2d32" transform="translate(-3.93 3.83) rotate(-0.74)"/>
    <rect height="12.44" style="fill: url(#linear-gradient-2)" transform="translate(-9.5 72.09) rotate(-17.65)" width="70.87" x="192" y="60.44"/>
    <rect height="12.44" rx="5.96" ry="5.96" style="fill: url(#linear-gradient-3)" transform="translate(-13.05 73.79) rotate(-17.65)" width="70.87" x="195.71" y="72.72"/>
    <rect height="4.79" style="fill: url(#linear-gradient-4)" transform="matrix(0.95, -0.3, 0.3, 0.95, -7.25, 70.93)" width="70.87" x="189.42" y="56.41"/>
    <rect height="4.79" style="fill: url(#linear-gradient-5)" transform="translate(-11.68 73.21) rotate(-17.65)" width="70.87" x="194.53" y="71.85"/>
  </g>
  <g id="text">
    <g>
      <path d="M41.93,239c.3,0,.44.11.44.44s-.13.45-.43.45l-1.71,0c-.3,0-.44-.11-.44-.44s.13-.45.43-.45Z" style="fill: #6b6f76"/>
      <path d="M47.38,236.86a.36.36,0,0,1,.73,0l.07,5.31h-1l-2-4.35h0l.05,4a.36.36,0,0,1-.73,0l-.07-5.31h1l2,4.4h0Z" style="fill: #6b6f76"/>
      <path d="M53.18,238.46a1.66,1.66,0,0,1,.2.81,1.78,1.78,0,0,1-.23.87l-.65,1.35a1,1,0,0,1-1.78,0L50,240.18a1.78,1.78,0,0,1-.25-.86,1.65,1.65,0,0,1,.18-.81l.71-1.46a1,1,0,0,1,1.77,0Zm-1.38-1.08c-.06-.12-.1-.22-.25-.22s-.19.1-.25.22l-.64,1.33a1.13,1.13,0,0,0-.16.59,1,1,0,0,0,.13.48l.72,1.38c.05.1.1.22.25.22s.2-.12.24-.22l.68-1.39a1,1,0,0,0,.12-.48,1.13,1.13,0,0,0-.18-.59Z" style="fill: #6b6f76"/>
    </g>
    <g>
      <path d="M40.7,195.09c.24,0,.36.11.36.44s-.11.45-.35.45l-1.38,0c-.24,0-.36-.11-.36-.44s.11-.45.35-.45Z" style="fill: #6b6f76"/>
      <path d="M43.36,193.39h-.22a.37.37,0,0,1,0-.73h1c.46,0,.69.22.9.72l.54,1.28a2,2,0,0,1,0,1.65L45,197.63a.89.89,0,0,1-.92.7h-1c-.15,0-.3-.1-.3-.36s.14-.37.29-.37h.28Zm.65,4.21h.11c.25,0,.31,0,.41-.31L45,196a1.2,1.2,0,0,0,.11-.48,1.43,1.43,0,0,0-.16-.6l-.51-1.23c-.13-.31-.18-.3-.45-.3h-.07Z" style="fill: #6b6f76"/>
      <path d="M48.68,198.26c-.44,0-.7-.21-.9-.68l-.56-1.35a2,2,0,0,1-.17-.76,1.89,1.89,0,0,1,.15-.81l.53-1.36c.19-.51.45-.71.9-.71h1c.13,0,.3.08.3.36s-.16.37-.29.37h-1c-.25,0-.29,0-.4.31l-.5,1.28a1.34,1.34,0,0,0-.12.56,1.2,1.2,0,0,0,.13.5l.52,1.25c.12.3.18.32.45.31h1c.13,0,.3.08.3.36s-.15.37-.29.37Z" style="fill: #6b6f76"/>
      <path d="M53.66,197.47l0-1.47c0-.21.07-.37.29-.37s.3.15.3.36l0,1.84c0,.26-.14.37-.29.37l-2.33,0c-.15,0-.3-.1-.3-.36s.14-.37.29-.37h.87l-.05-4.22h-.87c-.15,0-.3-.1-.3-.36s.14-.37.29-.37l1.46,0,.06,4.94Z" style="fill: #6b6f76"/>
      <path d="M56.18,197.44l2,0c.15,0,.3.1.3.36s-.14.37-.29.37l-2.62,0,0-2.38c0-.55.21-.83.66-.83l1.66,0,0-1.74-2,0c-.15,0-.3-.1-.3-.36s.14-.37.29-.37l2,0a.55.55,0,0,1,.48.2.88.88,0,0,1,.19.65l0,1.5a.88.88,0,0,1-.17.65.55.55,0,0,1-.48.21l-1.67,0Z" style="fill: #6b6f76"/>
      <path d="M62.12,193.95l0-1.17c0-.23.08-.37.29-.37s.3.13.3.36v1.15a.91.91,0,0,1,0,.28l-1.08,3.57c-.06.18-.11.32-.29.32s-.24-.14-.3-.32l-1.17-3.54a.92.92,0,0,1,0-.28v-1.15c0-.23.08-.37.29-.37s.3.13.3.36l0,1.17.9,2.77Z" style="fill: #6b6f76"/>
    </g>
    <g>
      <path d="M40.89,209.74c.24,0,.36.11.36.44s-.11.45-.35.45l-1.38,0c-.24,0-.36-.11-.36-.44s.11-.45.35-.45Z" style="fill: #6b6f76"/>
      <path d="M44.76,211.11c-.15,0-.3-.1-.3-.36s.14-.37.29-.37l1.16,0,0,1.44c0,.71-.37,1.15-.93,1.16H44a.8.8,0,0,1-.68-.28,1.2,1.2,0,0,1-.29-.89L43,210a1.72,1.72,0,0,1,.29-1.07L44,207.8a.86.86,0,0,1,.82-.51h.79c.15,0,.3.1.3.36s-.14.37-.29.37h-.71c-.33,0-.3,0-.49.31l-.63,1a1.65,1.65,0,0,0-.17,1l0,1.43c0,.4.08.52.41.52H45c.21,0,.39-.06.38-.38v-.74Z" style="fill: #6b6f76"/>
      <path d="M49.55,207.6c0-.23.08-.37.29-.37s.3.13.3.36l.07,5.31h-.78l-1.6-4.36h0l.05,4c0,.23-.08.37-.29.37s-.3-.13-.3-.36l-.07-5.31H48l1.6,4.41h0Z" style="fill: #6b6f76"/>
      <path d="M52.05,207.92h-.22a.37.37,0,0,1,0-.73h1c.46,0,.69.22.9.72l.54,1.28a2,2,0,0,1,0,1.65l-.52,1.33a.89.89,0,0,1-.92.7h-1c-.15,0-.3-.1-.3-.36s.14-.37.29-.37h.28Zm.65,4.21h.11c.25,0,.31,0,.41-.31l.5-1.3a1.22,1.22,0,0,0,.11-.48,1.44,1.44,0,0,0-.16-.6l-.51-1.23c-.13-.31-.18-.3-.45-.3h-.07Z" style="fill: #6b6f76"/>
    </g>
    <g>
      <path d="M41,216.86c.24,0,.36.11.36.44s-.11.45-.35.45l-1.38,0c-.24,0-.36-.11-.36-.44s.11-.45.35-.45Z" style="fill: #6b6f76"/>
      <path d="M44.71,220.09c-.44,0-.7-.21-.9-.68l-.56-1.35a2,2,0,0,1-.17-.76,1.9,1.9,0,0,1,.15-.81l.53-1.36c.19-.51.45-.71.9-.71h1c.13,0,.3.08.3.36s-.16.37-.29.37h-1c-.25,0-.29,0-.4.31l-.5,1.28a1.34,1.34,0,0,0-.12.56,1.2,1.2,0,0,0,.13.5l.52,1.25c.12.3.18.32.45.31h1c.13,0,.3.08.3.36s-.15.37-.29.37Z" style="fill: #6b6f76"/>
      <path d="M50.09,216.4a2,2,0,0,1,.16.81,2.11,2.11,0,0,1-.18.87l-.53,1.35a.73.73,0,0,1-1.44,0l-.56-1.33a2.11,2.11,0,0,1-.21-.87,2,2,0,0,1,.14-.81l.57-1.46a.73.73,0,0,1,1.43,0ZM49,215.31c0-.12-.08-.22-.2-.22s-.15.1-.2.22l-.51,1.33a1.34,1.34,0,0,0-.13.59,1.17,1.17,0,0,0,.11.48l.58,1.38c0,.1.09.22.2.22s.16-.12.2-.22l.55-1.39a1.18,1.18,0,0,0,.09-.48,1.34,1.34,0,0,0-.14-.59Z" style="fill: #6b6f76"/>
      <path d="M52.59,220a.82.82,0,0,1-.74-.36,1.34,1.34,0,0,1-.24-.86l-.05-4.07c0-.23.08-.37.29-.37s.3.13.3.36l.05,4.07c0,.41.11.51.37.51h1c.27,0,.37-.11.36-.51l-.05-4.07c0-.23.08-.37.29-.37s.3.13.3.36l.05,4.07a1.34,1.34,0,0,1-.21.87.82.82,0,0,1-.73.38Z" style="fill: #6b6f76"/>
      <path d="M58.15,214.61c0-.23.08-.37.29-.37s.3.13.3.36l.07,5.31H58l-1.6-4.36h0l.05,4c0,.23-.08.37-.29.37s-.3-.13-.3-.36l-.07-5.31h.78l1.6,4.41h0Z" style="fill: #6b6f76"/>
      <path d="M60.66,214.94v.26c0,.23-.08.37-.29.37s-.3-.13-.3-.36v-1l2.92,0v1c0,.23-.08.37-.29.37s-.3-.13-.3-.36v-.26h-.57l.06,4.58c0,.23-.08.37-.29.37s-.3-.13-.3-.36l-.06-4.58Z" style="fill: #6b6f76"/>
      <path d="M67,219.07c.15,0,.3.1.3.36s-.14.37-.29.37l-2.62,0-.07-5.67,2.62,0c.15,0,.3.1.3.36s-.14.37-.29.37l-2,0,0,1.74h.87c.15,0,.3.1.3.36s-.14.37-.29.37h-.87l0,1.74Z" style="fill: #6b6f76"/>
      <path d="M69.22,219.41c0,.23-.08.37-.29.37s-.3-.13-.3-.36l-.07-5.31,2,0a1,1,0,0,1,.95,1v.5a1,1,0,0,1-.92,1H70L71.4,219a.81.81,0,0,1,.15.38.31.31,0,0,1-.3.35c-.12,0-.2-.08-.26-.2l-1.67-2.85h-.14Zm0-3.44,1.31,0c.17,0,.43,0,.42-.31v-.5c0-.29-.25-.33-.42-.32l-1.32,0Z" style="fill: #6b6f76"/>
    </g>
    <g>
      <path d="M40.79,202c.24,0,.36.11.36.44s-.11.45-.35.45l-1.38,0c-.24,0-.36-.11-.36-.44s.11-.45.35-.45Z" style="fill: #6b6f76"/>
      <path d="M44.52,205.22c-.44,0-.7-.21-.9-.68l-.56-1.35a2,2,0,0,1-.17-.76,1.9,1.9,0,0,1,.15-.81l.53-1.36c.19-.51.45-.71.9-.71h1c.13,0,.3.08.3.36s-.16.37-.29.37h-1c-.25,0-.29,0-.4.31l-.5,1.28a1.34,1.34,0,0,0-.12.56,1.2,1.2,0,0,0,.13.5l.52,1.25c.12.3.18.32.45.31h1c.13,0,.3.08.3.36s-.15.37-.29.37Z" style="fill: #6b6f76"/>
      <path d="M49.9,201.52a2,2,0,0,1,.16.81,2.11,2.11,0,0,1-.18.87l-.53,1.35a.73.73,0,0,1-1.44,0l-.56-1.33a2.11,2.11,0,0,1-.21-.87,2,2,0,0,1,.14-.81l.57-1.46a.73.73,0,0,1,1.43,0Zm-1.12-1.09c0-.12-.08-.22-.2-.22s-.15.1-.2.22l-.51,1.33a1.34,1.34,0,0,0-.13.59,1.17,1.17,0,0,0,.11.48l.58,1.38c0,.1.09.22.2.22s.16-.12.2-.22l.55-1.39a1.18,1.18,0,0,0,.09-.48,1.34,1.34,0,0,0-.14-.59Z" style="fill: #6b6f76"/>
      <path d="M53.18,204.38H54c.15,0,.3.1.3.36s-.14.37-.29.37l-2.33,0c-.15,0-.3-.1-.3-.36s.14-.37.29-.37h.87l-.05-4.22h-.87c-.15,0-.3-.1-.3-.36s.14-.37.29-.37l2.33,0c.15,0,.3.1.3.36s-.14.37-.29.37h-.87Z" style="fill: #6b6f76"/>
      <path d="M58,199.74c0-.23.08-.37.29-.37s.3.13.3.36l.07,5.31h-.78l-1.6-4.36h0l.05,4c0,.23-.08.37-.29.37s-.3-.13-.3-.36l-.07-5.31h.78L58,203.8h0Z" style="fill: #6b6f76"/>
    </g>
    <g>
      <path d="M42,245.83c.3,0,.44.11.44.44s-.13.45-.43.45l-1.71,0c-.3,0-.44-.11-.44-.44s.13-.45.43-.45Z" style="fill: #6b6f76"/>
      <path d="M47.47,243.73a.36.36,0,0,1,.73,0l.07,5.31h-1l-2-4.35h0l.05,4a.36.36,0,1,1-.73,0l-.07-5.31h1l2,4.4h0Z" style="fill: #6b6f76"/>
      <path d="M51.87,249a1.09,1.09,0,0,1-1.1-.68L50.07,247a1.64,1.64,0,0,1-.21-.76,1.59,1.59,0,0,1,.19-.81l.65-1.36a1.1,1.1,0,0,1,1.11-.71l1.24,0a.34.34,0,0,1,.37.36.35.35,0,0,1-.36.37l-1.22,0c-.31,0-.36,0-.5.31l-.62,1.28a1.13,1.13,0,0,0-.15.56,1,1,0,0,0,.16.5l.64,1.25c.15.3.22.32.55.31l1.19,0a.34.34,0,0,1,.37.36.35.35,0,0,1-.36.37Z" style="fill: #6b6f76"/>
    </g>
    <g>
      <path d="M88.84,247.88c.2.29.23.51,0,.67s-.43.06-.63-.23l-4.57-6.51,2.1-1.48a1,1,0,0,1,1-.14,2.09,2.09,0,0,1,1.12,1l.85,1.22a2.32,2.32,0,0,1,.54,1.33,1,1,0,0,1-.55,1l-1.39,1Zm-2.16-3.08,1.41-1c.37-.26.36-.46,0-1l-.88-1.25c-.36-.51-.53-.59-.91-.32l-1.41,1Z" style="fill: #54765a"/>
      <path d="M91.24,238c-.05-.3-.07-.57.16-.67s.43.12.58.36L96.16,244a.46.46,0,0,1-.14.65c-.22.09-.44-.13-.59-.35l-.76-1.11-1.53.62.22,1.33c0,.26,0,.57-.18.66a.46.46,0,0,1-.55-.37Zm1.14,1.73h0l.56,3,1.13-.46Z" style="fill: #54765a"/>
      <path d="M100.87,241.47a1.76,1.76,0,0,1,.41.86c.13.81-.25,1.29-.78,1.37l-1.68.26a.94.94,0,0,1-.83-.23,1.63,1.63,0,0,1-.51-1c-.05-.35,0-.67.31-.71s.4.2.45.5.18.35.39.32l1.66-.26c.06,0,.26,0,.23-.17a1.07,1.07,0,0,0-.19-.29L97,237.8a1.64,1.64,0,0,1-.39-.85,1.39,1.39,0,0,1,.25-1.1.8.8,0,0,1,.61-.29l1.62-.25a.91.91,0,0,1,.81.24,1.78,1.78,0,0,1,.52,1c.05.35,0,.65-.3.69s-.4-.15-.45-.45-.19-.4-.43-.36l-1.62.25c-.08,0-.26,0-.24.19a.85.85,0,0,0,.16.27Z" style="fill: #54765a"/>
      <path d="M106.53,241.69a1.76,1.76,0,0,1,.19.93c-.07.82-.55,1.19-1.08,1.14l-1.7-.15a.94.94,0,0,1-.75-.42,1.64,1.64,0,0,1-.27-1c0-.35.2-.64.47-.62s.34.29.31.59.09.38.31.4l1.67.15c.06,0,.25.06.27-.11a1.09,1.09,0,0,0-.11-.33l-2.21-5a1.63,1.63,0,0,1-.17-.92,1.38,1.38,0,0,1,.5-1,.8.8,0,0,1,.66-.14l1.63.15a.91.91,0,0,1,.73.43,1.77,1.77,0,0,1,.27,1.07c0,.35-.18.62-.46.6s-.35-.24-.32-.54-.09-.44-.33-.46l-1.63-.15c-.08,0-.26-.06-.28.13a.81.81,0,0,0,.09.3Z" style="fill: #54765a"/>
      <path d="M111.46,244.25c.19.07.31.27.18.65s-.36.45-.55.38l-3.23-1.16,2.87-8,3.23,1.16c.19.07.31.28.18.65s-.36.45-.55.38l-2.5-.9-.88,2.46,1.07.38c.19.07.31.28.18.64s-.36.45-.55.38l-1.07-.38-.88,2.46Z" style="fill: #54765a"/>
      <path d="M117.51,240.38l-.23-.17c-.21-.15-.31-.38-.07-.72s.49-.32.68-.19l1.05.75c.49.35.54.81.32,1.57l-.56,2a3.46,3.46,0,0,1-1.42,2l-1.72,1.22c-.67.48-1.1.48-1.59.13l-1-.74c-.16-.12-.23-.35,0-.67s.47-.34.63-.22l.3.22Zm-3,5.6.12.08c.27.19.36.19.71-.06l1.68-1.2a2,2,0,0,0,.53-.49,2.4,2.4,0,0,0,.36-.84l.54-1.88c.14-.48.08-.51-.21-.71l-.08-.05Z" style="fill: #54765a"/>
    </g>
    <g>
      <path d="M92.94,263.21l-.65.8a1.07,1.07,0,0,1-.89.5,1,1,0,0,1-.88-.52,2.29,2.29,0,0,1-.35-1.37l0-3.69a3.28,3.28,0,0,1,.77-2.33l2-2.47c.26-.33.48-.58.84-.59.76,0,1.26.77,1.27,1.81l0,3.73a3.33,3.33,0,0,1-.76,2.43l-.58.73.26.84h.59c.3,0,.54.25.55.7s-.3.71-.65.71H93.32Zm.38-2.35.23-.27a1.82,1.82,0,0,0,.51-1.58l0-3.5c0-.23,0-.56-.21-.56s-.19.14-.28.24l-2,2.47a1.69,1.69,0,0,0-.43,1.31l0,3.64c0,.23,0,.49.23.49s.22-.12.3-.21l.84-1.07-.27-.92a2.52,2.52,0,0,1-.15-.66c0-.38.23-.68.49-.68s.45.47.59.89Z" style="fill: #54765a"/>
      <path d="M100.05,264.4c-.75,0-1.18-.41-1.51-1.32l-1-2.6A4.24,4.24,0,0,1,97.3,259a4.12,4.12,0,0,1,.26-1.56l.88-2.61c.33-1,.75-1.36,1.52-1.37l1.69,0c.22,0,.5.16.51.7s-.26.71-.49.71l-1.66,0c-.43,0-.5.06-.68.6l-.83,2.46a2.9,2.9,0,0,0-.2,1.07,2.58,2.58,0,0,0,.22,1l.88,2.42c.21.57.31.62.75.61l1.62,0c.22,0,.5.16.51.7s-.26.71-.49.71Z" style="fill: #54765a"/>
      <path d="M112.08,254.7c-.26,0-.5-.19-.51-.7s.23-.71.49-.71l3.43,0c.57,0,1,.59,1,1.39l0,2.7a2.59,2.59,0,0,0,0,2.73l0,2.7c0,.8-.41,1.41-1,1.42l-3.43,0c-.26,0-.5-.19-.51-.7s.23-.71.49-.71l3.43,0,0-2.33c0-.79-.23-1-.51-1l-2,0c-.26,0-.5-.19-.51-.7s.23-.71.49-.71l2,0c.28,0,.5-.25.48-1l0-2.33Z" style="fill: #54765a"/>
    </g>
    <path d="M169,249.2l-9.41-.16a1.6,1.6,0,0,1-1.39-1.32l2.62-.73,7.53.13Zm-10.73-2,1-6.7.7-.5,1.67,1.58-.71,4.89Zm4.58-14.13L162.1,238,160,239.49l-.52-.52,1-6.7Zm7.34,5.81,1.08,1.05-1.4,1-8.16-.14-1.11-1.05,1.43-1Zm.27-6.19-7.5-.13-2.4-.82a2.19,2.19,0,0,1,1.75-1.26l9.38.16Zm1.41,7.51.56.53-1,7.21a2.19,2.19,0,0,1-1.75,1.26l-.65-2.08.78-5.41Zm-1.56-2.09.79-5.41,1.23-2a1.59,1.59,0,0,1,1.39,1.32l-1,7.21-.73.5Z" style="fill: #fff"/>
    <path d="M175.13,249.08l-2.51,0,.32-2.06,2.51,0Z" style="fill: #fff"/>
    <path d="M190,248.93l-9.41-.16a1.6,1.6,0,0,1-1.39-1.32l2.62-.73,7.53.13Zm-10.73-2,1-6.7.7-.5,1.67,1.58-.71,4.89Zm4.58-14.13-.71,4.89L181,239.22l-.52-.52,1-6.7Zm7.34,5.81,1.08,1.05-1.4,1-8.16-.14-1.11-1.05,1.43-1Zm.27-6.19-7.5-.13-2.4-.82a2.19,2.19,0,0,1,1.75-1.26l9.38.16Zm1.41,7.51.56.53-1,7.21a2.19,2.19,0,0,1-1.75,1.26l-.65-2.08.78-5.41Zm-1.56-2.09.79-5.41,1.23-2a1.59,1.59,0,0,1,1.39,1.32l-1,7.21-.73.5Z" style="fill: #fff"/>
    <path d="M196.13,248.81l-2.51,0,.32-2.06,2.51,0Z" style="fill: #fff"/>
  </g>
  <g id="Connectors">
    <rect data-cir-type="male" height="3.38" id="circuitoCon_12V" style="fill: none" width="3.38" y="195.03"/>
    <rect data-cir-type="male" height="3.38" id="circuitoCon_SIG" style="fill: none" width="3.38" y="202.44"/>
    <rect data-cir-type="male" height="3.38" id="circuitoCon_GND" style="fill: none" width="3.38" y="209.84"/>
    <rect data-cir-type="male" height="3.38" id="circuitoCon_CTR" style="fill: none" width="3.38" y="217.24"/>
  </g>
</svg>