<?xml version="1.0" ?><svg height="114.34mm" viewBox="0 0 256.84 324.13" width="90.61mm" xmlns="http://www.w3.org/2000/svg">
  <title>Blower - Squirrel Cage (12V)</title>
  <g data-name="Layer 2" id="Layer_2">
    <rect height="76.71" width="3.87" x="123.89" y="247.42"/>
    <rect height="76.71" style="fill: #ff3b3b" width="3.87" x="128.79" y="247.42"/>
    <path d="M246.11,78.38h0l0-.06A125.56,125.56,0,0,0,231.2,52.83l-1-1.74c-1.46-2.47-1.14-4.76,1-6.87l9-10.11c1-1.75,2.56-3.17,3-5.19C250,10.25,227.78,0,217,10.33l-9.5,10.5c-3,4.31-6.63,2.87-10.5-.58A126.17,126.17,0,0,0,127.75,0H0V100.63l14.31-.1c.72.16,5.26,1.26,7.31,5.36a11.65,11.65,0,0,1,.82,7c-.09.52-.35,1.42-.87,3.19-.86,2.9-1.56,5-1.62,5.25-1.77,5.42-2.94,22.61-2.39,16.94q-.48,5-.48,10.13c0,5.65,2,32.95,19,59.23h0c1.58,3.29,1.48,6-.41,8l-2.37,2.5-6.62,7.76h0a17.72,17.72,0,0,0-1.94,2,16.38,16.38,0,0,0-3.93,10.46c.16,8.27,7.71,16.55,16.71,16.71a15.73,15.73,0,0,0,8.85-2.65h0a16.3,16.3,0,0,0,1.94-1.43l.43-.36.27-.25.32-.3c1.18-1.1,2.38-2.39,3.59-3.77l5.56-6.19a5.54,5.54,0,0,1,2.81-2.31,5.87,5.87,0,0,1,5,.7v0c27.58,18.58,55.61,19,64.05,19.06a124.22,124.22,0,0,0,44.48-8.74c36.08-14.13,55.07-40.83,60.91-49.76a129.84,129.84,0,0,0,21.08-68.67A126.87,126.87,0,0,0,246.11,78.38ZM37.66,249.93A11.33,11.33,0,1,1,49,238.6,11.33,11.33,0,0,1,37.66,249.93ZM216.45,22.77a11.33,11.33,0,1,1,11.33,11.33A11.33,11.33,0,0,1,216.45,22.77Z" style="fill: #333"/>
    <circle cx="128.42" cy="138.5" r="80.35" style="fill: #0e0f12"/>
    <circle cx="128.42" cy="138.5" r="72.42" style="fill: #474747"/>
    <ellipse cx="128.42" cy="138.5" rx="61.42" ry="61.63" style="fill: #141619"/>
    <circle cx="128.42" cy="138.5" r="72.42" style="fill: none"/>
    <path d="M71.77,241.52" style="fill: none"/>
    <path d="M137.4,210.48a34.08,34.08,0,0,0,.39,7.68c-1.18.14-2.46.25-3.8.35A14.12,14.12,0,0,1,137.4,210.48Z" style="fill: #787878"/>
    <path d="M151,207.34a34.08,34.08,0,0,0,1.69,7.5c-1.14.34-2.38.67-3.68,1A14.12,14.12,0,0,1,151,207.34Z" style="fill: #787878"/>
    <path d="M163.51,201.86a62.89,62.89,0,0,0,3.2,7.18l-3.42,1.75A17.89,17.89,0,0,1,163.51,201.86Z" style="fill: #787878"/>
    <path d="M174.88,194a31.84,31.84,0,0,0,4.55,6.42l-3.1,2.43A14.81,14.81,0,0,1,174.88,194Z" style="fill: #787878"/>
    <path d="M184.66,184.12a25.22,25.22,0,0,0,5.59,5.61l-2.49,2.85a14.09,14.09,0,0,1-3.1-8.29Z" style="fill: #787878"/>
    <path d="M192.26,172.71a36.6,36.6,0,0,0,6.61,4.39L197,180.38C194.48,177.69,192.86,175.12,192.26,172.71Z" style="fill: #787878"/>
    <path d="M197.62,159.91A20.23,20.23,0,0,0,205,163l-1.29,3.68C200.69,164.59,198.61,162.33,197.62,159.91Z" style="fill: #787878"/>
    <path d="M200.4,146.49a26.18,26.18,0,0,0,7.83,1.64l-.54,3.69A15.55,15.55,0,0,1,200.4,146.49Z" style="fill: #787878"/>
    <path d="M200.59,132.45a17.41,17.41,0,0,0,8,.25l.2,3.75A13.88,13.88,0,0,1,200.59,132.45Z" style="fill: #787878"/>
    <path d="M198.42,119.08a34.72,34.72,0,0,0,7.72-1.37l.87,3.64C203.61,121.31,200.63,120.7,198.42,119.08Z" style="fill: #787878"/>
    <path d="M200.84,103.39a26.57,26.57,0,0,1-7.5,3,17.94,17.94,0,0,0,9,.4Z" style="fill: #787878"/>
    <path d="M192.86,90.27a39.93,39.93,0,0,1-6.8,4.38,16.51,16.51,0,0,0,9-1.29Z" style="fill: #787878"/>
    <path d="M182.48,78.86a23.52,23.52,0,0,1-5.81,5.64,17.17,17.17,0,0,0,8.64-2.94Z" style="fill: #787878"/>
    <path d="M170.37,69.77l3.11,2a16.78,16.78,0,0,1-8,4.47A28.73,28.73,0,0,0,170.37,69.77Z" style="fill: #787878"/>
    <path d="M156.76,63.06a25.54,25.54,0,0,1-3.75,7.2,15.55,15.55,0,0,0,7.11-5.67Z" style="fill: #787878"/>
    <path d="M141.94,59.12c-.56,2.65-1.2,5.28-2,7.88,2.65-2.2,4.79-4.53,5.61-7.17Z" style="fill: #787878"/>
    <path d="M126.75,58a30.62,30.62,0,0,1-.54,8.1c2.08-2.68,4-5.36,4.13-8.09Z" style="fill: #787878"/>
    <path d="M111.45,59.8a20.57,20.57,0,0,1,1.1,8c1.77-2.87,2.87-5.76,2.58-8.73Z" style="fill: #787878"/>
    <path d="M96.93,64.42a25.82,25.82,0,0,1,2.56,7.67c1.34-4,1.56-7,.89-9Z" style="fill: #787878"/>
    <path d="M83.57,71.7a49.79,49.79,0,0,1,4,7,22.14,22.14,0,0,0-.81-9Z" style="fill: #787878"/>
    <path d="M71.82,81.36A38.49,38.49,0,0,1,77,87.54a19.36,19.36,0,0,0-2.34-8.84Z" style="fill: #787878"/>
    <path d="M62.06,93.1a36.87,36.87,0,0,1,6.18,5.11,18.44,18.44,0,0,0-4-8.18Z" style="fill: #787878"/>
    <path d="M54.73,106.38a36.75,36.75,0,0,1,7,3.88A16.92,16.92,0,0,0,56.27,103Z" style="fill: #787878"/>
    <path d="M50,121c2.9.52,5.67,1.15,7.57,2.48-1-2.14-3.47-4.16-6.68-6.12Z" style="fill: #787878"/>
    <path d="M48.32,132.49A16.9,16.9,0,0,1,56,137a51.43,51.43,0,0,0-7.68-.87Z" style="fill: #787878"/>
    <path d="M49.19,151.53a18.63,18.63,0,0,1,7.85-.75,17.35,17.35,0,0,0-8.39-3.08Z" style="fill: #787878"/>
    <path d="M53.13,166.34a25.72,25.72,0,0,1,7.52-2.29,14.73,14.73,0,0,0-8.78-1.39Z" style="fill: #787878"/>
    <path d="M57.87,176.75a15.29,15.29,0,0,1,8.87-.29,25.27,25.27,0,0,0-7,3.48Z" style="fill: #787878"/>
    <path d="M66.35,189.32A17.49,17.49,0,0,1,75,187.38L68.68,192Z" style="fill: #787878"/>
    <path d="M80.11,202.52c-.42-.53,4.72-6.06,5.23-5.81a15.87,15.87,0,0,0-8.26,3.41Z" style="fill: #787878"/>
    <path d="M89.72,208.76a16.89,16.89,0,0,1,7.32-5,21.47,21.47,0,0,0-3.9,6.76Z" style="fill: #787878"/>
    <path d="M107.29,215.88c-.29,0,2.9-7.11,2.7-7.33-.54-.6-6.77,5.64-6.16,6.3Z" style="fill: #787878"/>
    <path d="M122.46,218.51a20.79,20.79,0,0,1,1.17-7.75,19.8,19.8,0,0,0-5,7.35l4,.41Z" style="fill: #787878"/>
    <circle cx="128.27" cy="138.35" r="58.99" style="fill: #2b2b2b"/>
  </g>
  <g id="Connectors">
    <rect data-cir-color="black" data-cir-type="female" height="3.87" id="circuitoCon_Coil1" style="fill: none" width="3.87" x="123.89" y="320.26"/>
    <rect data-cir-color="red" data-cir-type="female" height="3.87" id="circuitoCon_Coil2" style="fill: none" width="3.87" x="128.79" y="320.26"/>
  </g>
</svg>