<?xml version="1.0" ?><svg height="43.36mm" viewBox="0 0 124.25 122.92" width="43.83mm" xmlns="http://www.w3.org/2000/svg" xmlns:xlink="http://www.w3.org/1999/xlink">
  <defs>
    <linearGradient gradientTransform="translate(0.57 1.13)" gradientUnits="userSpaceOnUse" id="linear-gradient" x1="182.42" x2="-26.67" y1="-36.59" y2="131.58">
      <stop offset="0.01" stop-color="#ecebeb"/>
      <stop offset="0.05" stop-color="#dedddd"/>
      <stop offset="0.88"/>
      <stop offset="1" stop-color="#d4d3d3"/>
    </linearGradient>
    <linearGradient gradientTransform="translate(0.57 1.13)" gradientUnits="userSpaceOnUse" id="linear-gradient-2" x1="25.87" x2="27.4" y1="4.9" y2="4.9">
      <stop offset="0.05" stop-color="#fff"/>
      <stop offset="1"/>
    </linearGradient>
    <linearGradient id="linear-gradient-3" x1="17.59" x2="19.12" xlink:href="#linear-gradient-2" y1="4.9" y2="4.9"/>
    <linearGradient gradientTransform="translate(0.57 1.13)" gradientUnits="userSpaceOnUse" id="linear-gradient-4" x1="23.81" x2="25.15" y1="4.81" y2="4.81">
      <stop offset="0.2" stop-color="#fff"/>
      <stop offset="0.52" stop-opacity="0.55"/>
      <stop offset="0.79" stop-color="#ecebeb" stop-opacity="0.88"/>
    </linearGradient>
    <linearGradient id="linear-gradient-5" x1="19.78" x2="21.12" xlink:href="#linear-gradient-4" y1="4.81" y2="4.81"/>
  </defs>
  <title>Graphic LCD 84x48 - Nokia 5110</title>
  <g data-name="Layer 1" id="Layer_1">
    <circle cx="118.16" cy="116.88" r="4.12" style="fill: none"/>
    <circle cx="118.17" cy="6.44" r="4.12" style="fill: none"/>
    <path d="M0,0V122.92H124.25V0ZM6.42,122.83a5.94,5.94,0,1,1,5.94-5.94A5.94,5.94,0,0,1,6.42,122.83Zm0-110.46a5.94,5.94,0,1,1,5.94-5.94A5.94,5.94,0,0,1,6.42,12.37Zm31.72,107a3.4,3.4,0,0,1-2.12-.32,1.52,1.52,0,0,1-.75-1.61,1,1,0,0,1,.18-.53,1.07,1.07,0,0,1,.67-1.86,1,1,0,0,1,.51.14,1.07,1.07,0,0,1,.45-.09,1,1,0,0,1,.27.06,1,1,0,0,1,.27-.06h0a1.07,1.07,0,0,1,.43-.09,1.31,1.31,0,0,1,1.19,1.1C39.3,117.26,39.7,119,38.14,119.37ZM38.6,7.88a6.42,6.42,0,0,1-1.31.1c-.28,0-.56,0-.84,0-.89-.06-1.24-.76-1.3-1.57a.87.87,0,0,1,.31-.71,1,1,0,0,1,.7-1.61c.55,0,1.09.07,1.63.13a.95.95,0,0,1,1.33.88,1.29,1.29,0,0,1-.07.56,6.26,6.26,0,0,0,.22,1A1,1,0,0,1,38.6,7.88Zm5.82,111.77c-3.18,0-3.17-4.93,0-4.93S47.59,119.65,44.42,119.65Zm.08-111c-3.18,0-3.17-4.93,0-4.93S47.67,8.65,44.5,8.65Zm7.17,111.08c-3.18,0-3.17-4.93,0-4.93S54.84,119.73,51.67,119.73ZM51.38,8.82c-3.18,0-3.17-4.93,0-4.93S54.55,8.82,51.38,8.82Zm7.28,110.92c-3.18,0-3.17-4.93,0-4.93S61.84,119.73,58.67,119.73Zm0-111.08c-3.18,0-3.17-4.93,0-4.93S61.84,8.65,58.67,8.65Zm7.08-4.84c3.18,0,3.17,4.93,0,4.93S62.58,3.81,65.75,3.81Zm.08,115.84c-3.18,0-3.17-4.93,0-4.93S69,119.65,65.83,119.65ZM72.75,3.72c3.18,0,3.17,4.93,0,4.93S69.58,3.72,72.75,3.72Zm.51,115.84c-3.18,0-3.17-4.93,0-4.93S76.43,119.57,73.26,119.57ZM79.92,3.72c3.18,0,3.17,4.93,0,4.93S76.75,3.72,79.92,3.72Zm.51,115.93c-3.18,0-3.17-4.93,0-4.93S83.6,119.65,80.43,119.65ZM87.34,3.72c3.18,0,3.17,4.93,0,4.93S84.17,3.72,87.34,3.72Zm.53,116c-3.18,0-3.17-4.93,0-4.93S91,119.73,87.88,119.73Zm15.71,1.5a5.94,5.94,0,1,1,5.94-5.94A5.94,5.94,0,0,1,103.58,121.24Zm14.58,1.58a5.94,5.94,0,1,1,5.94-5.94A5.94,5.94,0,0,1,118.16,122.82Zm0-110.45a5.94,5.94,0,1,1,5.94-5.94A5.94,5.94,0,0,1,118.17,12.37Z" style="fill: #cf2f27"/>
    <path d="M118.17.5a5.94,5.94,0,1,0,5.94,5.94A5.94,5.94,0,0,0,118.17.5Zm0,10.06a4.12,4.12,0,1,1,4.12-4.12A4.12,4.12,0,0,1,118.17,10.56Z" style="fill: #cf2f27"/>
    <path d="M118.17.5a5.94,5.94,0,1,0,5.94,5.94A5.94,5.94,0,0,0,118.17.5Zm0,10.06a4.12,4.12,0,1,1,4.12-4.12A4.12,4.12,0,0,1,118.17,10.56Z" style="fill: #9c9292"/>
    <path d="M6.42.5a5.94,5.94,0,1,0,5.94,5.94A5.94,5.94,0,0,0,6.42.5Zm0,10.06a4.12,4.12,0,1,1,4.12-4.12A4.12,4.12,0,0,1,6.42,10.56Z" style="fill: #cf2f27"/>
    <path d="M6.42.5a5.94,5.94,0,1,0,5.94,5.94A5.94,5.94,0,0,0,6.42.5Zm0,10.06a4.12,4.12,0,1,1,4.12-4.12A4.12,4.12,0,0,1,6.42,10.56Z" style="fill: #9c9292"/>
    <path d="M6.42,111a5.94,5.94,0,1,0,5.94,5.94A5.94,5.94,0,0,0,6.42,111Zm0,10.06a4.12,4.12,0,1,1,4.12-4.12A4.12,4.12,0,0,1,6.42,121Z" style="fill: #cf2f27"/>
    <path d="M6.42,111a5.94,5.94,0,1,0,5.94,5.94A5.94,5.94,0,0,0,6.42,111Zm0,10.06a4.12,4.12,0,1,1,4.12-4.12A4.12,4.12,0,0,1,6.42,121Z" style="fill: #9c9292"/>
    <path d="M118.16,110.95a5.94,5.94,0,1,0,5.94,5.94A5.94,5.94,0,0,0,118.16,110.95Zm0,10.06a4.12,4.12,0,1,1,4.12-4.12A4.12,4.12,0,0,1,118.16,121Z" style="fill: #cf2f27"/>
    <path d="M118.16,110.95a5.94,5.94,0,1,0,5.94,5.94A5.94,5.94,0,0,0,118.16,110.95Zm0,10.06a4.12,4.12,0,1,1,4.12-4.12A4.12,4.12,0,0,1,118.16,121Z" style="fill: #9c9292"/>
    <path d="M103.58,109.37a5.94,5.94,0,1,0,5.94,5.94A5.94,5.94,0,0,0,103.58,109.37Zm0,10.06a4.12,4.12,0,1,1,4.12-4.12A4.12,4.12,0,0,1,103.58,119.42Z" style="fill: #cf2f27"/>
    <path d="M103.58,109.37a5.94,5.94,0,1,0,5.94,5.94A5.94,5.94,0,0,0,103.58,109.37Zm0,10.06a4.12,4.12,0,1,1,4.12-4.12A4.12,4.12,0,0,1,103.58,119.42Z" style="fill: #9c9292"/>
    <rect height="16.33" rx="5.25" ry="5.25" style="fill: #625755" width="104.33" x="9.83" y="30.77"/>
    <path d="M8,14.76v93.5H116.84V14.76Zm106.22,80A10.28,10.28,0,0,1,104,105H21A10.28,10.28,0,0,1,10.72,94.73V42A10.28,10.28,0,0,1,21,31.76h83A10.28,10.28,0,0,1,114.23,42Z" style="fill: url(#linear-gradient)"/>
    <path d="M7.83,14.94v93.5H116.67V14.94ZM114.05,94.51a10.8,10.8,0,0,1-10.8,10.8H21.34a10.8,10.8,0,0,1-10.8-10.8V43a10.8,10.8,0,0,1,10.8-10.8h81.91A10.8,10.8,0,0,1,114.05,43Z" style="fill: none"/>
    <rect height="71.58" rx="10.77" ry="10.77" style="fill: #666d60" width="103.64" x="10.53" y="35.85"/>
    <rect height="71.58" rx="8.67" ry="8.67" style="fill: none;stroke: #3d384d;stroke-miterlimit: 10;stroke-width: 2.3000000000000003px" width="102.86" x="10.72" y="35.85"/>
    <path d="M7.71,15V41.27c.11-5.2,0-11.07,2.08-10.58,1.42-.12,1.84-1.41,1.54-3.54-.42-4-.32-7.51,2.54-8.67A9.09,9.09,0,0,1,20,17.35l38-.13h46.15c6.06-.67,9.46,1.47,10,7V99.27c-.19,5-2.35,8-7.29,8.17H17.38a12.21,12.21,0,0,1-8-8.67L7.71,41.69v66.83H116.54V15Z" style="fill: #585352"/>
    <path d="M5,82.19H5a2.7,2.7,0,0,1-2.7-2.7V69.35A2.7,2.7,0,0,1,5,66.65H5a2.7,2.7,0,0,1,2.7,2.7V79.49A2.7,2.7,0,0,1,5,82.19Z" style="fill: #fff"/>
    <path d="M119.55,28.44h0a2.7,2.7,0,0,1-2.7-2.7V15.6a2.7,2.7,0,0,1,2.7-2.7h0a2.7,2.7,0,0,1,2.7,2.7V25.74A2.7,2.7,0,0,1,119.55,28.44Z" style="fill: #fff"/>
    <path d="M119.55,82.19h0a2.7,2.7,0,0,1-2.7-2.7V69.35a2.7,2.7,0,0,1,2.7-2.7h0a2.7,2.7,0,0,1,2.7,2.7V79.49A2.7,2.7,0,0,1,119.55,82.19Z" style="fill: #fff"/>
    <path d="M5,28.44H5a2.7,2.7,0,0,1-2.7-2.7V15.6A2.7,2.7,0,0,1,5,12.9H5a2.7,2.7,0,0,1,2.7,2.7V25.74A2.7,2.7,0,0,1,5,28.44Z" style="fill: #fff"/>
    <path d="M5.94,12.63A3.38,3.38,0,0,0,9,11.88H114.88a6.56,6.56,0,0,0,3.41.84A2.14,2.14,0,0,0,117.06,15c1.33-.36,1.86.16,1.94,1.19V26.31c.29,1.43,0,2.1-.87,1.92V67.06c.33-.41.09,15.42-.15,15v6c.58.13.83.4.27,1v1.29c.45.22.39.46,0,.71v18.19H6.38l-.44-.21V83.69c.24-1.82.57-16.38.44-17.83V29.15a29.68,29.68,0,0,0-.25-8.65,8.49,8.49,0,0,1,0-4.25c.16-.54.71-2.12.88-2.08H7a5.12,5.12,0,0,1,.65.92Q7.94,24,8,33.23q0,7.21,0,14.21a7,7,0,0,1,.29,1.67,7.15,7.15,0,0,1-.62,3.27q.2,9.68.21,19.69,0,8.17-.12,16.13a2.72,2.72,0,0,1,0,4v15.5a1.1,1.1,0,0,0,.5.74,1.12,1.12,0,0,0,1,0l40.67,0,50,0,15.46-.08a2.07,2.07,0,0,1,.85-.66,2,2,0,0,1,.52-.13q0-8.15.08-16.29a2.24,2.24,0,0,1-.73-2,2,2,0,0,1,.73-1.17q0-14.27,0-28.54V15.4l-.48-.27-108.6,0a4,4,0,0,1-.39-.38,4.94,4.94,0,0,1-.65-.95C6.5,13.51,6.26,13.11,5.94,12.63Z" style="fill: #e8e2e4"/>
    <rect height="1.87" style="fill: #e1dcda" width="8.28" x="18.92" y="5.1"/>
    <g>
      <polyline points="22.34 2.72 17.03 2.72 17.03 9.03 22.34 9.03" style="fill: none;stroke: #e8e2e4;stroke-linecap: round;stroke-linejoin: round;stroke-width: 0.5px"/>
      <polyline points="23.78 9.03 29.09 9.03 29.09 2.72 23.78 2.72" style="fill: none;stroke: #e8e2e4;stroke-linecap: round;stroke-linejoin: round;stroke-width: 0.5px"/>
    </g>
    <polyline points="98.34 2.72 92.83 2.72 92.83 9.81 98.34 9.81" style="fill: none;stroke: #e8e2e4;stroke-linecap: round;stroke-linejoin: round;stroke-width: 0.5px"/>
    <polyline points="104.25 9.81 109.76 9.81 109.76 2.72 104.25 2.72" style="fill: none;stroke: #e8e2e4;stroke-linecap: round;stroke-linejoin: round;stroke-width: 0.5px"/>
    <g>
      <line style="fill: none;stroke: #e8e2e4;stroke-linecap: round;stroke-linejoin: round;stroke-width: 0.5px" x1="101.37" x2="101.37" y1="4.71" y2="7.75"/>
      <line style="fill: none;stroke: #e8e2e4;stroke-linecap: round;stroke-linejoin: round;stroke-width: 0.5px" x1="100.27" x2="103.12" y1="6.23" y2="6.23"/>
      <polygon points="101.38 6.23 102.93 4.68 102.93 7.75 101.38 6.23" style="fill: none;stroke: #e8e2e4;stroke-linecap: round;stroke-linejoin: round;stroke-width: 0.5px"/>
    </g>
    <g>
      <polygon points="94.66 4.31 98.94 4.31 97.64 5.61 95.91 5.61 94.66 4.31" style="fill: #5c5253"/>
      <polygon points="98.94 8.53 94.66 8.53 95.96 7.23 97.68 7.23 98.94 8.53" style="fill: #5c5253"/>
      <polygon points="97.64 5.61 97.68 7.23 98.94 8.53 98.94 4.31 97.64 5.61" style="fill: #5c5253"/>
      <polygon points="95.96 7.23 95.91 5.61 94.66 4.31 94.66 8.53 95.96 7.23" style="fill: #5c5253"/>
      <polygon points="95.91 5.61 97.64 5.61 97.68 7.23 95.96 7.23 95.91 5.61" style="fill: #5c5253"/>
    </g>
    <g>
      <polygon points="104.25 4.31 108.53 4.31 107.23 5.61 105.5 5.61 104.25 4.31" style="fill: #5c5253"/>
      <polygon points="108.53 8.53 104.25 8.53 105.55 7.23 107.28 7.23 108.53 8.53" style="fill: #5c5253"/>
      <polygon points="107.23 5.61 107.28 7.23 108.53 8.53 108.53 4.31 107.23 5.61" style="fill: #5c5253"/>
      <polygon points="105.55 7.23 105.5 5.61 104.25 4.31 104.25 8.53 105.55 7.23" style="fill: #5c5253"/>
      <polygon points="105.5 5.61 107.23 5.61 107.28 7.23 105.55 7.23 105.5 5.61" style="fill: #5c5253"/>
    </g>
    <rect height="4.22" style="fill: none" width="4.28" x="94.66" y="4.31"/>
    <g>
      <polygon points="33.69 2.72 40.79 2.72 91.11 2.72 91.11 9.81 33.69 9.81 33.69 2.72" style="fill: none;stroke: #feffff;stroke-miterlimit: 10;stroke-width: 0.4px"/>
      <line style="fill: none;stroke: #feffff;stroke-miterlimit: 10;stroke-width: 0.4px" x1="40.75" x2="40.75" y1="9.81" y2="2.72"/>
    </g>
    <g>
      <polygon points="33.69 113.63 40.81 113.63 91.29 113.63 91.29 120.72 33.69 120.72 33.69 113.63" style="fill: none;stroke: #feffff;stroke-miterlimit: 10;stroke-width: 0.4px"/>
      <line style="fill: none;stroke: #feffff;stroke-miterlimit: 10;stroke-width: 0.4px" x1="40.75" x2="40.75" y1="120.72" y2="113.63"/>
    </g>
    <g>
      <rect height="3.27" style="fill: #c2ab94" width="4.44" x="20.9" y="4.29"/>
      <rect height="3.74" style="fill: url(#linear-gradient-2)" width="1.53" x="26.44" y="4.17"/>
      <rect height="3.74" style="fill: url(#linear-gradient-3)" width="1.53" x="18.16" y="4.17"/>
      <rect height="3.55" rx="0.54" ry="0.54" style="fill: url(#linear-gradient-4)" width="1.34" x="24.38" y="4.17"/>
      <rect height="3.55" rx="0.51" ry="0.51" style="fill: url(#linear-gradient-5)" width="1.34" x="20.34" y="4.17"/>
    </g>
    <path d="M100.17,1H100c-.15,0-.28,0-.28-.19s.12-.19.27-.19h.77a.7.7,0,0,1,.69.39l.4.69a.78.78,0,0,1,0,.88l-.42.71a.72.72,0,0,1-.73.37h-.76c-.12,0-.23-.05-.23-.19s.11-.19.23-.19h.22Zm.46,2.25h.09c.19,0,.24,0,.32-.16l.4-.69a.48.48,0,0,0,.09-.25.58.58,0,0,0-.11-.32L101,1.2c-.1-.17-.14-.16-.35-.16h-.05Z" style="fill: #feffff"/>
    <path d="M103,3.08V2.42c0-.09,0-.16.11-.16s.11.07.11.16v.81c0,.12-.05.16-.11.16h-.87c-.06,0-.11,0-.11-.16s.05-.16.11-.16h.33V1.21h-.33c-.06,0-.11,0-.11-.16s.05-.16.11-.16h.55V3.08Z" style="fill: #feffff"/>
    <path d="M14,3.68a.7.7,0,0,1-.69-.37l-.42-.72a.77.77,0,0,1-.12-.41.75.75,0,0,1,.13-.43L13.35,1a.71.71,0,0,1,.71-.37h.78a.2.2,0,0,1,.23.19.2.2,0,0,1-.23.19h-.77c-.2,0-.23,0-.32.16l-.4.68a.53.53,0,0,0-.1.3.48.48,0,0,0,.1.27l.39.67c.09.16.14.17.34.17h.75a.2.2,0,0,1,.23.19.21.21,0,0,1-.23.19Z" style="fill: #feffff"/>
    <path d="M16.12,3.08V2.42c0-.09,0-.16.11-.16s.11.07.11.16v.81c0,.12-.05.16-.11.16h-.87c-.06,0-.11,0-.11-.16s.05-.16.11-.16h.33V1.21h-.33c-.06,0-.11,0-.11-.16s.05-.16.11-.16h.55V3.08Z" style="fill: #feffff"/>
  </g>
  <g id="Connectors">
    <circle cx="80.49" cy="117.17" data-cir-type="male" id="circuitoCon_LED" r="2.05" style="fill: none;stroke: #e8e5df;stroke-miterlimit: 10;stroke-width: 1.224px"/>
    <circle cx="87.79" cy="117.17" data-cir-type="male" id="circuitoCon_SCLK" r="2.05" style="fill: none;stroke: #e8e5df;stroke-miterlimit: 10;stroke-width: 1.224px"/>
    <circle cx="73.29" cy="117.17" data-cir-type="male" id="circuitoCon_DN" r="2.05" style="fill: none;stroke: #e8e5df;stroke-miterlimit: 10;stroke-width: 1.224px"/>
    <circle cx="66.1" cy="117.17" data-cir-type="male" id="circuitoCon_DC" r="2.05" style="fill: none;stroke: #e8e5df;stroke-miterlimit: 10;stroke-width: 1.224px"/>
    <circle cx="58.91" cy="117.17" data-cir-type="male" id="circuitoCon_RST" r="2.05" style="fill: none;stroke: #e8e5df;stroke-miterlimit: 10;stroke-width: 1.224px"/>
    <circle cx="51.71" cy="117.17" data-cir-type="male" id="circuitoCon_CS" r="2.05" style="fill: none;stroke: #e8e5df;stroke-miterlimit: 10;stroke-width: 1.224px"/>
    <circle cx="44.47" cy="117.17" data-cir-type="male" id="circuitoCon_GND" r="2.05" style="fill: none;stroke: #e8e5df;stroke-miterlimit: 10;stroke-width: 1.224px"/>
    <circle cx="37.33" cy="117.17" data-cir-type="male" id="circuitoCon_VCC" r="2.05" style="fill: none;stroke: #e8e5df;stroke-miterlimit: 10;stroke-width: 1.224px"/>
    <circle cx="80.1" cy="6.27" id="connector35pin" r="2.05" style="fill: none;stroke: #e8e5df;stroke-miterlimit: 10;stroke-width: 1.224px"/>
    <circle cx="87.4" cy="6.27" data-name="connector35pin" id="connector35pin-2" r="2.05" style="fill: none;stroke: #e8e5df;stroke-miterlimit: 10;stroke-width: 1.224px"/>
    <circle cx="72.91" cy="6.27" id="connector36pin" r="2.05" style="fill: none;stroke: #e8e5df;stroke-miterlimit: 10;stroke-width: 1.224px"/>
    <circle cx="65.86" cy="6.27" id="connector37pin" r="2.05" style="fill: none;stroke: #e8e5df;stroke-miterlimit: 10;stroke-width: 1.224px"/>
    <circle cx="58.66" cy="6.27" id="connector38pin" r="2.05" style="fill: none;stroke: #e8e5df;stroke-miterlimit: 10;stroke-width: 1.224px"/>
    <circle cx="51.33" cy="6.27" id="connector39pin" r="2.05" style="fill: none;stroke: #e8e5df;stroke-miterlimit: 10;stroke-width: 1.224px"/>
    <circle cx="44.23" cy="6.27" id="connector40pin" r="2.05" style="fill: none;stroke: #e8e5df;stroke-miterlimit: 10;stroke-width: 1.224px"/>
    <circle cx="37.11" cy="6.24" data-name="connector40pin" id="connector40pin-2" r="2.05" style="fill: none;stroke: #e8e5df;stroke-miterlimit: 10;stroke-width: 1.224px"/>
  </g>
</svg>