<?xml version="1.0" ?><svg data-name="Layer 13" height="69.5mm" id="Layer_13" viewBox="0 0 144.75 197.01" width="51.06mm" xmlns="http://www.w3.org/2000/svg">
  <title>Keypad - 12 Button</title>
  <g data-name="green square" id="green_square">
    <path d="M21.56,182.5V197H121.81V182.5Zm6.15,10.34A2.33,2.33,0,1,1,30,190.51,2.33,2.33,0,0,1,27.7,192.84Zm15.94-1.15c-3,0-3-4.71,0-4.71S46.67,191.69,43.64,191.69Zm7.25.25c-3,0-3-4.71,0-4.71S53.92,191.94,50.89,191.94Zm7.25.08c-3,0-3-4.71,0-4.71S61.17,192,58.14,192Zm7.08,0c-3,0-3-4.71,0-4.71S68.25,192,65.22,192Zm7.33-.17c-3,0-3-4.71,0-4.71S75.59,191.86,72.56,191.86Zm7.17.08c-3,0-3-4.71,0-4.71S82.75,191.94,79.72,191.94Zm7.25,0c-3,0-3-4.71,0-4.71S90,191.94,87,191.94Zm7.08-.08c-3,0-3-4.71,0-4.71S97.09,191.86,94.06,191.86Zm7.08-.08c-3,0-3-4.71,0-4.71S104.17,191.78,101.14,191.78Z" style="fill: #0e5e38"/>
  </g>
  <g id="parts">
    <g>
      <path d="M45.21,185.43H41.87l-1.75,1.75v4.32l2,2V197h3v-3.55l2-2v-4.23Zm-1.57,6.27c-3,0-3-4.71,0-4.71S46.67,191.69,43.64,191.69Z" style="fill: #e8e5df"/>
      <path d="M52.16,185.26v-3.54h-3v3.55l-2,2v4.23L49,193.3h3.34l1.75-1.75v-4.32Zm-1.27,6.69c-3,0-3-4.71,0-4.71S53.92,191.94,50.89,191.94Z" style="fill: #e8e5df"/>
      <path d="M59.46,185.26v-3.54h-3v3.55l-2,2v4.23l1.82,1.82h3.34l1.75-1.75v-4.32ZM58.14,192c-3,0-3-4.71,0-4.71S61.17,192,58.14,192Z" style="fill: #e8e5df"/>
      <path d="M66.66,185.26v-3.54h-3v3.55l-2,2v4.23l1.82,1.82h3.34l1.75-1.75v-4.32ZM65.22,192c-3,0-3-4.71,0-4.71S68.25,192,65.22,192Z" style="fill: #e8e5df"/>
      <path d="M73.86,185.26v-3.54h-3v3.55l-2,2v4.23l1.82,1.82h3.34l1.75-1.75v-4.32Zm-1.31,6.6c-3,0-3-4.71,0-4.71S75.59,191.86,72.56,191.86Z" style="fill: #e8e5df"/>
      <path d="M81.06,185.26v-3.54h-3v3.55l-2,2v4.23l1.82,1.82h3.34L83,191.55v-4.32Zm-1.34,6.69c-3,0-3-4.71,0-4.71S82.75,191.94,79.72,191.94Z" style="fill: #e8e5df"/>
      <path d="M88.26,185.26v-3.54h-3v3.55l-2,2v4.23l1.82,1.82h3.34l1.75-1.75v-4.32ZM87,191.94c-3,0-3-4.71,0-4.71S90,191.94,87,191.94Z" style="fill: #e8e5df"/>
      <path d="M95.46,185.26v-3.54h-3v3.55l-2,2v4.23l1.82,1.82h3.34l1.75-1.75v-4.32Zm-1.4,6.6c-3,0-3-4.71,0-4.71S97.09,191.86,94.06,191.86Z" style="fill: #e8e5df"/>
      <path d="M102.81,185.43H99.46l-1.75,1.75v4.32l2,2V197h3v-3.55l2-2v-4.23Zm-1.67,6.35c-3,0-3-4.71,0-4.71S104.17,191.78,101.14,191.78Z" style="fill: #e8e5df"/>
    </g>
  </g>
  <g id="background">
    <path d="M138.13,0H80.74V8.09a.87.87,0,0,1-.87.87H64.31a.87.87,0,0,1-.87-.87V0H6.63A6.63,6.63,0,0,0,0,6.62V175.87a6.63,6.63,0,0,0,6.63,6.63h131.5a6.63,6.63,0,0,0,6.62-6.62V6.62A6.62,6.62,0,0,0,138.13,0Z" style="fill: #211e1f"/>
  </g>
  <g data-name="ellipse from square" id="ellipse_from_square">
    <g>
      <circle cx="6.68" cy="6.85" r="3.31" style="fill: #514f4b"/>
      <circle cx="137.12" cy="6.85" r="3.31" style="fill: #514f4b"/>
    </g>
    <g>
      <circle cx="6.68" cy="175.43" r="3.31" style="fill: #514f4b"/>
      <circle cx="137.12" cy="175.43" r="3.31" style="fill: #514f4b"/>
    </g>
  </g>
  <g data-name="black square inside" id="black_square_inside">
    <rect height="163.07" rx="10.39" ry="10.39" style="fill: #2f2f2f" width="132.14" x="6.17" y="9.72"/>
  </g>
  <g data-name="numbers case" id="numbers_case">
    <rect height="22" rx="3.51" ry="3.51" style="fill: #eae9e4" width="25.13" x="19.31" y="24.09"/>
    <rect height="22" rx="3.51" ry="3.51" style="fill: #eae9e4" width="25.12" x="59.81" y="24.09"/>
    <rect height="22" rx="3.51" ry="3.51" style="fill: #eae9e4" width="25.12" x="101.17" y="24.09"/>
    <rect height="22" rx="3.51" ry="3.51" style="fill: #eae9e4" width="25.13" x="19.31" y="61.34"/>
    <rect height="22" rx="3.51" ry="3.51" style="fill: #eae9e4" width="25.12" x="59.81" y="61.34"/>
    <rect height="22" rx="3.51" ry="3.51" style="fill: #eae9e4" width="25.12" x="101.17" y="61.34"/>
    <rect height="22" rx="3.51" ry="3.51" style="fill: #eae9e4" width="25.13" x="19.31" y="98.84"/>
    <rect height="22" rx="3.51" ry="3.51" style="fill: #eae9e4" width="25.12" x="59.81" y="98.84"/>
    <rect height="22" rx="3.51" ry="3.51" style="fill: #eae9e4" width="25.12" x="101.17" y="98.84"/>
    <rect height="22" rx="3.51" ry="3.51" style="fill: #eae9e4" width="25.13" x="19.31" y="135.84"/>
    <rect height="22" rx="3.51" ry="3.51" style="fill: #eae9e4" width="25.12" x="59.81" y="135.84"/>
    <rect height="22" rx="3.51" ry="3.51" style="fill: #eae9e4" width="25.12" x="101.17" y="135.84"/>
  </g>
  <g data-name="numbers on case" id="numbers_on_case">
    <path d="M35.51,39.87v1.55H28.2V39.87h3v-9a17.48,17.48,0,0,1-2.44,1l-.21-1.45a16.35,16.35,0,0,0,3.17-1.45h1.21v11Z"/>
    <path d="M68,40.29l1.36-1c2.64-1.87,5-4.1,5-6.21a2.37,2.37,0,0,0-2.55-2.66,4.89,4.89,0,0,0-3.12,1.21L68,30.19a6.48,6.48,0,0,1,4-1.4,3.82,3.82,0,0,1,4.14,4.12c0,2.78-2.87,5.29-5.17,7,.91,0,1.74-.06,3.13-.06h2.7v1.59H68Z"/>
    <path d="M109.89,38.76A5.63,5.63,0,0,0,113.4,40c2.21,0,2.85-1,2.85-2.06s-.94-2.15-3.15-2.15h-1.45V34.17H113c2,0,2.76-.81,2.76-1.87s-.59-1.91-2.47-1.91a5.13,5.13,0,0,0-3.17,1l-.51-1.49a7,7,0,0,1,3.85-1.13c2.76,0,4,1.49,4,3.27a2.81,2.81,0,0,1-2.1,2.74v0A3.12,3.12,0,0,1,118,37.93c0,2.17-1.76,3.68-4.57,3.68a7,7,0,0,1-4.19-1.23Z"/>
    <path d="M27.2,74.32c1-1.36,4.8-6.72,5.8-7.95h1.74V74h1.83v1.55H34.75v3.36H33.11V75.53H27.2ZM33.11,74V72c0-1.64,0-3.08.08-3.72h0c-.7,1-3.55,5-4.06,5.74Z"/>
    <path d="M68.52,76.21a5.81,5.81,0,0,0,3.55,1.25C74.43,77.47,75,76.1,75,75s-.64-2.59-3.63-2.59a10.27,10.27,0,0,0-2.61.34v-.53l.94-5.78h6.53l-.13,1.62H70.86l-.45,3a7.89,7.89,0,0,1,1.51-.13c3.46,0,4.83,1.85,4.83,4,0,2.47-1.7,4.21-4.8,4.21a6.53,6.53,0,0,1-4-1.23Z"/>
    <path d="M116.17,66.29a4.61,4.61,0,0,1,1.06.08L117.14,68a5.92,5.92,0,0,0-1-.08,4.8,4.8,0,0,0-5.1,4.31,4.42,4.42,0,0,1,3.36-1.51,3.7,3.7,0,0,1,3.93,4,4.24,4.24,0,0,1-4.42,4.36c-2.93,0-4.61-2.34-4.61-5.63C109.26,68.67,112.55,66.29,116.17,66.29Zm-2.23,11.2a2.52,2.52,0,0,0,2.66-2.61A2.44,2.44,0,0,0,114,72.26a3.52,3.52,0,0,0-3,1.62C111,75.83,112.19,77.51,113.93,77.49Z"/>
    <path d="M34.26,106.23H27.54v-1.62h8.54v1.25c-1.21,2.7-3.7,8.18-5.17,11.16H29.07C31.09,113,33.75,107.25,34.26,106.23Z"/>
    <path d="M70.3,110.57a2.94,2.94,0,0,1-1.93-2.83c0-1.7,1.25-3.34,4-3.34s3.87,1.68,3.87,3.27a2.8,2.8,0,0,1-1.81,2.78,3.07,3.07,0,0,1,2.3,3c0,2.08-1.47,3.76-4.49,3.76S68,115.39,68,113.56A3.08,3.08,0,0,1,70.3,110.57Zm2.13,5.12c1.91,0,2.59-1.13,2.59-2.19,0-1.3-1-2.19-2.7-2.19s-2.59,1-2.59,2.13S70.58,115.69,72.43,115.69Zm2.19-7.82c0-1.08-.7-1.93-2.32-1.93s-2.25.91-2.25,1.85c0,1.15.85,2,2.32,2C74,109.74,74.62,108.91,74.62,107.87Z"/>
    <path d="M110.36,115.54a4.35,4.35,0,0,0,.74.06,5.05,5.05,0,0,0,5.33-4.21,4.1,4.1,0,0,1-3.19,1.47c-2.64,0-4.06-1.74-4.06-4.21a4.21,4.21,0,0,1,4.46-4.25c2.83,0,4.51,2.25,4.51,5.76,0,4.7-3.25,7.08-6.84,7.08a7.93,7.93,0,0,1-1-.06Zm6.08-5.78c-.06-2-1-3.76-2.93-3.76a2.47,2.47,0,0,0-2.62,2.59,2.51,2.51,0,0,0,2.68,2.68A3.29,3.29,0,0,0,116.44,109.76Z"/>
    <path d="M27.75,150.39l2.94-2.52-3.25-1.24.85-1.81,2.94,2,.23-3.76,2,.25-.93,3.67L36,146l.34,1.84-3.56.31,2.43,3.14-1.58,1-2-3.54L29,151.72Z"/>
    <path d="M72.41,141.62c3.34,0,4.61,3.13,4.61,6.38,0,3.51-1.49,6.46-4.59,6.46s-4.68-2.61-4.68-6.46S69.58,141.62,72.41,141.62Zm.06,11.24c1.89,0,2.74-2.12,2.74-4.87,0-3-1.06-4.8-2.87-4.8-1.64,0-2.85,1.7-2.85,4.76C69.5,150.81,70.54,152.87,72.47,152.87Z"/>
    <path d="M116.55,146.58l-.64,2.57h1.51v1.66h-1.91l-.85,3.51h-1.34l.87-3.51h-2.34l-.87,3.51h-1.32l.87-3.51H109v-1.66h2l.64-2.57H110V145h2l.79-3.17h1.32l-.79,3.17h2.3l.79-3.19h1.32l-.79,3.19h1.62v1.62Zm-1.34,0h-2.29l-.64,2.57h2.32Z"/>
  </g>
  <g id="Connectors">
    <circle cx="43.58" cy="189.75" r="2.33" style="fill: none"/>
    <circle cx="50.77" cy="189.75" data-cir-type="male" id="circuitoCon_col2" r="2.33" style="fill: none"/>
    <circle cx="57.97" cy="189.75" data-cir-type="male" id="circuitoCon_row1" r="2.33" style="fill: none"/>
    <circle cx="65.17" cy="189.75" data-cir-type="male" id="circuitoCon_col1" r="2.33" style="fill: none"/>
    <circle cx="72.37" cy="189.75" data-cir-type="male" id="circuitoCon_row4" r="2.33" style="fill: none"/>
    <circle cx="79.57" cy="189.75" data-cir-type="male" id="circuitoCon_col3" r="2.33" style="fill: none"/>
    <circle cx="86.77" cy="189.75" data-cir-type="male" id="circuitoCon_row3" r="2.33" style="fill: none"/>
    <circle cx="93.97" cy="189.75" data-cir-type="male" id="circuitoCon_row2" r="2.33" style="fill: none"/>
    <circle cx="101.17" cy="189.75" r="2.33" style="fill: none"/>
  </g>
</svg>