<?xml version="1.0" ?><svg height="19.87mm" viewBox="0 0 91.54 56.33" width="32.29mm" xmlns="http://www.w3.org/2000/svg">
  <title>Adafruit 9-DOF LSM9DS1</title>
  <g id="holes">
    <path d="M85.92,0H6.42A5.87,5.87,0,0,0,.55,5.88V50.46a5.87,5.87,0,0,0,5.87,5.87h79.5a5.87,5.87,0,0,0,5.88-5.87V5.88A5.88,5.88,0,0,0,85.92,0ZM75.61,16a1.31,1.31,0,1,1-1.31,1.31A1.31,1.31,0,0,1,75.61,16Zm-29.32-11a2,2,0,1,1-2,2A2,2,0,0,1,46.29,4.93Zm-7.19,0a2,2,0,1,1-2,2A2,2,0,0,1,39.1,4.93Zm-7.2,0a2,2,0,1,1-2,2A2,2,0,0,1,31.9,4.93ZM7.42,53.37A3.63,3.63,0,1,1,11,49.74,3.63,3.63,0,0,1,7.42,53.37Zm0-42.72A3.63,3.63,0,1,1,11,7,3.62,3.62,0,0,1,7.42,10.65Zm9.92,41.08a2,2,0,1,1,2-2A2,2,0,0,1,17.34,51.73Zm7.25,0a2,2,0,1,1,2-2A2,2,0,0,1,24.59,51.73Zm7.2,0a2,2,0,1,1,2-2A2,2,0,0,1,31.79,51.73ZM30,18.57a1.31,1.31,0,1,1,1.31,1.31A1.31,1.31,0,0,1,30,18.57ZM34.37,41v-.87h1.12V38L37,38V40.3h1.62v2.43H36.1Zm4.68,10.73a2,2,0,1,1,2-2A2,2,0,0,1,39.05,51.73Zm7.24,0a2,2,0,1,1,2-2A2,2,0,0,1,46.29,51.73Zm2.48-24.68H40V23.64H37.62V22.9h2.15V21.31H37V20.1h3V18.26H38.27v.88H36.44V18H34.11V20.1h1.94v1.4H34.11v1.25h1.78v.89H34.11v4.27h-.84V20.7c-.59,0-.59-1.39,0-1.39.3-1.6-.23-2.48-1.61-2.58H25.22L24.15,18H22.89l-.81.38h-.41V13.93H39.45l2.95,2.95h6.37Zm4.72,24.68a2,2,0,1,1,2-2A2,2,0,0,1,53.49,51.73Zm0-42.82a2,2,0,1,1,2-2A2,2,0,0,1,53.49,8.91Zm7.19,42.82a2,2,0,1,1,2-2A2,2,0,0,1,60.68,51.73Zm0-42.82a2,2,0,1,1,2-2A2,2,0,0,1,60.68,8.91Zm3.93,6.27a1.31,1.31,0,1,1,1.31,1.32A1.31,1.31,0,0,1,64.61,15.18Zm3.26,36.55a2,2,0,1,1,2-2A2,2,0,0,1,67.87,51.73Zm2.85-39A1.31,1.31,0,1,1,72,11.41,1.31,1.31,0,0,1,70.72,12.72Zm4.35,39a2,2,0,1,1,2-2A2,2,0,0,1,75.07,51.73Zm10.35,1.64A3.63,3.63,0,1,1,89,49.74,3.63,3.63,0,0,1,85.42,53.37Zm0-42.72A3.63,3.63,0,1,1,89,7,3.62,3.62,0,0,1,85.42,10.65Z" style="fill: #1a2c80" transform="translate(-0.55)"/>
    <path d="M38.62,40.3H37V38l-1.51,0v2.13H34.37V41l1.73,1.73h2.52ZM36,41.65a.47.47,0,0,1-.48-.48.48.48,0,0,1,.48-.48.49.49,0,0,1,.48.48A.48.48,0,0,1,36,41.65Z" style="fill: #0b5597" transform="translate(-0.55)"/>
    <path d="M39.45,13.93H21.67v4.46h.41l.81-.38h1.26l1.07-1.28h6.44c1.38.1,1.91,1,1.61,2.58-.59,0-.59,1.39,0,1.39v7.21h.84V23.64h1.78v-.89H34.11V21.5h1.94V20.1H34.11V18h2.33v1.13h1.83v-.88H40V20.1H37v1.21h2.8V22.9H37.62v.74H40v3.41h8.76V16.88H42.4Zm-1.83,3.33a.65.65,0,1,1,.65-.65A.65.65,0,0,1,37.62,17.26Z" style="fill: #0b5597" transform="translate(-0.55)"/>
    <path d="M31.35,19.88A1.31,1.31,0,1,0,30,18.57,1.31,1.31,0,0,0,31.35,19.88Zm0-1.95a.65.65,0,1,1-.65.64A.65.65,0,0,1,31.35,17.93Z" style="fill: #0b5597" transform="translate(-0.55)"/>
    <path d="M67.23,15.18a1.31,1.31,0,1,0-1.31,1.32A1.31,1.31,0,0,0,67.23,15.18Zm-2,0a.65.65,0,1,1,.64.65A.64.64,0,0,1,65.28,15.18Z" style="fill: #0b5597" transform="translate(-0.55)"/>
    <path d="M70.72,10.1A1.31,1.31,0,1,0,72,11.41,1.31,1.31,0,0,0,70.72,10.1Zm0,2a.65.65,0,1,1,.65-.65A.65.65,0,0,1,70.72,12.06Z" style="fill: #0b5597" transform="translate(-0.55)"/>
    <path d="M75.61,18.57a1.31,1.31,0,1,0-1.31-1.31A1.31,1.31,0,0,0,75.61,18.57Zm0-2a.65.65,0,1,1-.65.65A.65.65,0,0,1,75.61,16.61Z" style="fill: #0b5597" transform="translate(-0.55)"/>
    <path d="M31.35,19.22a.65.65,0,1,0-.65-.65A.65.65,0,0,0,31.35,19.22Zm0-1a.31.31,0,1,1-.31.31A.31.31,0,0,1,31.35,18.26Z" style="fill: #0b5597" transform="translate(-0.55)"/>
    <path d="M66.57,15.18a.65.65,0,1,0-.65.65A.65.65,0,0,0,66.57,15.18Zm-1,0a.31.31,0,1,1,.31.32A.31.31,0,0,1,65.61,15.18Z" style="fill: #0b5597" transform="translate(-0.55)"/>
    <path d="M70.72,10.76a.65.65,0,1,0,.65.65A.65.65,0,0,0,70.72,10.76Zm0,1a.31.31,0,1,1,.32-.31A.31.31,0,0,1,70.72,11.72Z" style="fill: #0b5597" transform="translate(-0.55)"/>
    <path d="M75.61,17.91a.65.65,0,1,0-.65-.65A.65.65,0,0,0,75.61,17.91Zm0-1a.31.31,0,1,1-.31.31A.31.31,0,0,1,75.61,17Z" style="fill: #0b5597" transform="translate(-0.55)"/>
  </g>
  <g data-name="LINES\" id="LINES_">
    <path d="M56.2,1.08s3.1,3.23,3.25,3.08a3.75,3.75,0,0,1,1-.35c2.44-.56,4.78,2.82,2.88,5.1a3.28,3.28,0,0,1-5.57-3.4L55.85,3.6H54.7s1.19,1.21,1.78,1.84.25,2.19.25,2.19l-.65,1.43A3.87,3.87,0,0,0,59,11.3l-.69.68v1H61.7v1h2.82c.86-1,1.85-.94,2.93-.1.92,1.32.71,2.32-.4,3.07v.75L69.2,18V13c-.59-1.29-.87-2.75.42-3.31,1.55-1,3.68,1,2.43,2.9l1,.88v4.37c.75-.18.79-1.28.79-1.28.47-1.5,3.34-1.75,3.47,1.09v7.63H78l.5.81V36l-.8.4.48.48V42.5s-1.81.06-2.84,0-.82.36-.82.36l1.26,1.25v2.67a3.32,3.32,0,0,1,1.09,5.69c-4.41,2.54-7.81-3.35-3.4-5.89V44.87l-1.7-1.7v-.73h-.71v2l-.6.15L69.42,47c3.6,3.38-.81,7.91-3.88,5.41L62.09,56H82.15c-10.1-10.62,6-18,9.65-8.25V9.83c-4.36,6.66-12.94,4.1-12.94-3.39-3.19,1.25-6.08-2-4.31-5.65H9.86c11,6.13-2.19,20.09-8.39,8.46V46.12S5.33,41,11,43.88l1.34-1.78s-1.29-1.38-.29-1.8a2.44,2.44,0,0,1,1.87,0l0-1.36H11.8V37h2.12v1.26L15.23,38V34.61l-1.35.6L8.8,34.93V27.66l.76-.76h4.8V23.07l-1,1V25.9H11.73L11,25.25V23.88h2.92V22.57H11V20.26h2.07v1h1.25V19.73H11.27v-6h4.16v2.6h1.31V13.93h1.44V1.84h3.9V5.58h6.79s1.36-3.64,5.61-1a3.4,3.4,0,0,1-.37,5c-2.69,2.5-5.24-1.35-5.24-1.35H20.3l1.78.76v2.61H38.17V10.21c-3.38-1.5-2.68-5.68,0-6.33,1.56-.33,3.39-.28,4.38,2.37.08,1.17-.55,2.49-1.94,4l3,3.22h2.24s.28-.21.29-.43-.8-1-.8-1V10.23s-4.18-2.4-1.21-5.73a3.16,3.16,0,0,1,4.78.43V1.05Z" style="fill: #0b5597" transform="translate(-0.55)"/>
    <line style="fill: none;stroke: #0b5597;stroke-linecap: round;stroke-linejoin: round;stroke-width: 0.5px" x1="19.75" x2="28.94" y1="6.92" y2="6.92"/>
    <polyline points="19.75 12.65 39.53 12.65 42.49 15.61 48.47 15.61 49.47 16.61 49.47 24.74" style="fill: none;stroke: #0b5597;stroke-linecap: round;stroke-linejoin: round;stroke-width: 0.5px"/>
    <polyline points="38.55 9.13 38.55 10.53 43.09 14.44 50.16 14.44 50.77 15.05 50.77 25.25 48.84 25.25" style="fill: none;stroke: #0b5597;stroke-linecap: round;stroke-linejoin: round;stroke-width: 0.5px"/>
    <polyline points="45.74 9.13 45.74 11.69 47.2 13.14 51.34 13.14 52.31 14.11 52.31 25.89 51.44 26.45 49.02 26.45" style="fill: none;stroke: #0b5597;stroke-linecap: round;stroke-linejoin: round;stroke-width: 0.5px"/>
    <polyline points="49.02 27.66 52.69 27.66 53.91 26.44 53.91 11.98 52.52 10.6 50.89 10.6 49.52 9.23 49.52 3.06 50.2 2.38 55.5 2.38 58.39 5.27" style="fill: none;stroke: #0b5597;stroke-linecap: round;stroke-linejoin: round;stroke-width: 0.5px"/>
    <polyline points="54 8.91 55.7 10.61 55.7 26.87 53.55 29.02 49.19 29.02" style="fill: none;stroke: #0b5597;stroke-linecap: round;stroke-linejoin: round;stroke-width: 0.5px"/>
    <path d="M49.57,28.84" style="fill: none" transform="translate(-0.55)"/>
    <polyline points="49.02 30.08 55.7 30.08 59.94 25.84 62.75 25.84" style="fill: none;stroke: #0b5597;stroke-linecap: round;stroke-linejoin: round;stroke-width: 0.5px"/>
    <polyline points="49.02 31.28 57.15 31.28 59.66 28.77 68.91 28.77" style="fill: none;stroke: #0b5597;stroke-linecap: round;stroke-linejoin: round;stroke-width: 0.5px"/>
    <line style="fill: none;stroke: #0b5597;stroke-linecap: round;stroke-linejoin: round;stroke-width: 0.5px" x1="48.75" x2="68.91" y1="32.5" y2="32.5"/>
    <polyline points="50.59 34.06 64.99 34.06 69.26 38.33" style="fill: none;stroke: #0b5597;stroke-linecap: round;stroke-linejoin: round;stroke-width: 0.5px"/>
    <polyline points="46.48 32.5 46.48 34.44 47.54 35.51 47.54 39.16" style="fill: none;stroke: #0b5597;stroke-linecap: round;stroke-linejoin: round;stroke-width: 0.5px"/>
    <line style="fill: none;stroke: #0b5597;stroke-linecap: round;stroke-linejoin: round;stroke-width: 0.5px" x1="47.54" x2="52.16" y1="37.01" y2="37.01"/>
    <polyline points="58.46 39.64 49.85 39.64 49.85 44.91 46.92 47.83" style="fill: none;stroke: #0b5597;stroke-linecap: round;stroke-linejoin: round;stroke-width: 0.5px"/>
    <polyline points="52.69 43.17 52.69 44.78 49.17 48.3 49.17 52.13 47.16 54.14 25.25 54.14 24.05 52.94 24.05 52" style="fill: none;stroke: #0b5597;stroke-linecap: round;stroke-linejoin: round;stroke-width: 0.5px"/>
    <polyline points="16.19 51.97 20.28 55.27 51.5 55.27 60.29 55.27 63.33 52.23 63.33 40.3" style="fill: none;stroke: #0b5597;stroke-linecap: round;stroke-linejoin: round;stroke-width: 0.5px"/>
    <polyline points="69.67 41.57 69.67 43.88 66.97 46.12 66.97 47.41" style="fill: none;stroke: #0b5597;stroke-linecap: round;stroke-linejoin: round;stroke-width: 0.5px"/>
    <polyline points="72.25 40.44 72.25 42.85 74.16 44.76 74.16 47.41" style="fill: none;stroke: #0b5597;stroke-linecap: round;stroke-linejoin: round;stroke-width: 0.5px"/>
    <line style="fill: none;stroke: #0b5597;stroke-linecap: round;stroke-linejoin: round;stroke-width: 0.5px" x1="29.88" x2="42.38" y1="28.84" y2="28.84"/>
    <line style="fill: none;stroke: #0b5597;stroke-linecap: round;stroke-linejoin: round;stroke-width: 0.5px" x1="38.08" x2="41.68" y1="31.28" y2="31.28"/>
    <polyline points="36.84 34.61 38.91 34.61 42.09 31.43" style="fill: none;stroke: #0b5597;stroke-linecap: round;stroke-linejoin: round;stroke-width: 0.5px"/>
    <polyline points="30.22 31.88 30.22 35.01 31.09 35.88 32 35.88 32.6 36.49 32.6 41.17 35.19 44.11 38.37 44.11 39.15 43.34 39.15 39.7 41.57 39.7" style="fill: none;stroke: #0b5597;stroke-linecap: round;stroke-linejoin: round;stroke-width: 0.5px"/>
    <line style="fill: none;stroke: #0b5597;stroke-linecap: round;stroke-linejoin: round;stroke-width: 0.5px" x1="30.63" x2="37.02" y1="41.58" y2="47.97"/>
    <polyline points="19.13 41.58 19.13 47.18 18.31 47.99" style="fill: none;stroke: #0b5597;stroke-linecap: round;stroke-linejoin: round;stroke-width: 0.5px"/>
    <line style="fill: none;stroke: #0b5597;stroke-linecap: round;stroke-linejoin: round" x1="15.57" x2="18.79" y1="34.39" y2="38.47"/>
    <line style="fill: none;stroke: #0b5597;stroke-linecap: round;stroke-linejoin: round" x1="13.82" x2="18.14" y1="17.45" y2="22.75"/>
    <polyline points="19.75 21.81 22.42 19.14 29.59 19.14" style="fill: none;stroke: #0b5597;stroke-linecap: round;stroke-linejoin: round"/>
    <path d="M37.62,17.93a1.32,1.32,0,1,1,1.31-1.32A1.32,1.32,0,0,1,37.62,17.93Zm0-1.63a.32.32,0,1,0,.31.31A.31.31,0,0,0,37.62,16.3Z" style="fill: #0b5597" transform="translate(-0.55)"/>
    <line style="fill: none;stroke: #0b5597;stroke-linecap: round;stroke-linejoin: round" x1="75.54" x2="75.54" y1="18.15" y2="26.08"/>
    <polyline points="75.49 21.88 73.03 19.39 71.04 19.39" style="fill: none;stroke: #0b5597;stroke-linecap: round;stroke-linejoin: round"/>
    <line style="fill: none;stroke: #0b5597;stroke-linecap: round;stroke-linejoin: round" x1="70.18" x2="70.18" y1="12.29" y2="14.65"/>
    <line style="fill: none;stroke: #0b5597;stroke-linecap: round;stroke-linejoin: round" x1="66.2" x2="69.67" y1="19.31" y2="19.31"/>
    <line style="fill: none;stroke: #0b5597;stroke-linecap: round;stroke-linejoin: round;stroke-width: 0.5px" x1="59.61" x2="64.46" y1="15.29" y2="15.29"/>
    <line style="fill: none;stroke: #0b5597;stroke-linecap: round;stroke-linejoin: round;stroke-width: 0.5px" x1="58.97" x2="58.97" y1="23.88" y2="26.82"/>
    <line style="fill: none;stroke: #0b5597;stroke-linecap: round;stroke-linejoin: round;stroke-width: 0.5px" x1="44.38" x2="44.38" y1="40.88" y2="47.78"/>
    <line style="fill: none;stroke: #0b5597;stroke-linecap: round;stroke-linejoin: round;stroke-width: 0.5px" x1="42.08" x2="42.08" y1="43.44" y2="54.14"/>
    <line style="fill: none;stroke: #0b5597;stroke-linecap: round;stroke-linejoin: round" x1="19.75" x2="19.75" y1="24.56" y2="28.39"/>
    <line style="fill: none;stroke: #0b5597;stroke-linecap: round;stroke-linejoin: round" x1="19.59" x2="24.75" y1="39.7" y2="39.7"/>
    <polygon points="17.78 29.63 25.49 29.63 25.49 36.75 18.31 36.75 18.31 35.4 22.17 35.4 22.17 32.31 17.78 32.31 17.78 29.63" style="fill: #0b5597"/>
    <line style="fill: none;stroke: #0b5597;stroke-linecap: round;stroke-linejoin: round;stroke-width: 0.5px" x1="27.28" x2="30.34" y1="34.61" y2="38.26"/>
    <line style="fill: none;stroke: #0b5597;stroke-linecap: round;stroke-linejoin: round" x1="30.16" x2="30.16" y1="19.18" y2="21.81"/>
    <polyline points="37.72 26.47 37.72 27.81 42.09 27.81" style="fill: none;stroke: #0b5597;stroke-linecap: round;stroke-linejoin: round;stroke-width: 0.5px"/>
    <polyline points="30.63 32.13 33.23 34.61 34.84 34.61" style="fill: none;stroke: #0b5597;stroke-linecap: round;stroke-linejoin: round;stroke-width: 0.5px"/>
    <polyline points="43.47 32.93 41.34 35.05 41.34 38.47" style="fill: none;stroke: #0b5597;stroke-linecap: round;stroke-linejoin: round;stroke-width: 0.5px"/>
    <polygon points="37.72 36.91 38.5 36.91 38.5 35.83 39.25 35.83 40.27 34.81 40.27 38.47 37.37 38.47 37.72 36.91" style="fill: #0b5597"/>
    <path d="M21,42.39h1.06a.42.42,0,0,1,.84,0H27.3c0-.56,1-.56,1,0h2.16L36,48c-.53,1.87-.27,3.38,1,4.44H33.78s1.49-1.19,1.36-2.16h-.91V49.13h1s-.75-2.32-2.37-2.69v1.12a3.29,3.29,0,0,0-1.44-.12v-1.1a3.09,3.09,0,0,0-2.55,2.45h.6v1.49h-.74a2.71,2.71,0,0,0,1.47,2.16H26.8s2.15-2,1-4.44a3.81,3.81,0,0,0-4.11-1.59c-2.55.78-2.83,4.14-1.33,5.32l1.5,1.18v1.47h-6v-1S20.5,52.19,21,50.31Z" style="fill: #0b5597" transform="translate(-0.55)"/>
  </g>
  <g id="Connectors">
    <ellipse cx="31.24" cy="49.74" data-cir-type="male" id="circuitoCon_GND" rx="2.05" ry="1.99" style="fill: none;stroke: #e5e3dd;stroke-miterlimit: 10;stroke-width: 1.224px"/>
    <ellipse cx="24.05" cy="49.74" id="circuitoCon_3V3" rx="2.05" ry="1.99" style="fill: none;stroke: #e5e3dd;stroke-miterlimit: 10;stroke-width: 1.224px"/>
    <ellipse cx="16.85" cy="49.74" data-cir-type="male" id="circuitoCon_VIN" rx="2.05" ry="1.99" style="fill: none;stroke: #e5e3dd;stroke-miterlimit: 10;stroke-width: 1.224px"/>
    <ellipse cx="74.52" cy="49.74" id="circuitoCon_SDOM" rx="2.05" ry="1.99" style="fill: none;stroke: #e5e3dd;stroke-miterlimit: 10;stroke-width: 1.224px"/>
    <ellipse cx="67.33" cy="49.74" id="circuitoCon_SDOAG" rx="2.05" ry="1.99" style="fill: none;stroke: #e5e3dd;stroke-miterlimit: 10;stroke-width: 1.224px"/>
    <ellipse cx="60.13" cy="49.74" id="circuitoCon_CSM" rx="2.05" ry="1.99" style="fill: none;stroke: #e5e3dd;stroke-miterlimit: 10;stroke-width: 1.224px"/>
    <ellipse cx="45.74" cy="49.74" data-cir-type="male" id="circuitoCon_SDA" rx="2.05" ry="1.99" style="fill: none;stroke: #e5e3dd;stroke-miterlimit: 10;stroke-width: 1.224px"/>
    <ellipse cx="38.5" cy="49.74" data-cir-type="male" id="circuitoCon_SCL" rx="2.05" ry="1.99" style="fill: none;stroke: #e5e3dd;stroke-miterlimit: 10;stroke-width: 1.224px"/>
    <ellipse cx="52.94" cy="49.74" id="circuitoCon_CSAG" rx="2.05" ry="1.99" style="fill: none;stroke: #e5e3dd;stroke-miterlimit: 10;stroke-width: 1.224px"/>
    <ellipse cx="60.13" cy="6.92" data-name="0" id="_0" rx="2.05" ry="1.99" style="fill: none;stroke: #e5e3dd;stroke-miterlimit: 10;stroke-width: 1.224px"/>
    <ellipse cx="52.94" cy="6.92" data-name="0" id="_0-2" rx="2.05" ry="1.99" style="fill: none;stroke: #e5e3dd;stroke-miterlimit: 10;stroke-width: 1.224px"/>
    <ellipse cx="45.74" cy="6.92" data-name="0" id="_0-3" rx="2.05" ry="1.99" style="fill: none;stroke: #e5e3dd;stroke-miterlimit: 10;stroke-width: 1.224px"/>
    <ellipse cx="31.36" cy="6.92" data-name="0" id="_0-4" rx="2.05" ry="1.99" style="fill: none;stroke: #e5e3dd;stroke-miterlimit: 10;stroke-width: 1.224px"/>
    <ellipse cx="38.55" cy="6.92" data-name="0" id="_0-5" rx="2.05" ry="1.99" style="fill: none;stroke: #e5e3dd;stroke-miterlimit: 10;stroke-width: 1.224px"/>
  </g>
  <g id="cicle">
    <g>
      <rect height="1.64" style="fill: #aeaba8" transform="translate(24.13 67.5) rotate(180)" width="2.14" x="11.27" y="32.93"/>
      <rect height="1.17" style="fill: #bababa" transform="translate(27.22 67.47) rotate(180)" width="0.96" x="13.41" y="33.15"/>
      <rect height="1.64" style="fill: #aeaba8" transform="translate(24.13 62.12) rotate(180)" width="2.14" x="11.27" y="30.24"/>
      <rect height="1.17" style="fill: #bababa" transform="translate(27.22 62.09) rotate(180)" width="0.96" x="13.41" y="30.46"/>
      <rect height="1.64" style="fill: #aeaba8" transform="translate(24.13 56.81) rotate(180)" width="2.14" x="11.27" y="27.59"/>
      <rect height="1.17" style="fill: #bababa" transform="translate(27.22 56.78) rotate(180)" width="0.96" x="13.41" y="27.8"/>
      <rect height="1.64" style="fill: #aeaba8" width="2.14" x="19.4" y="27.66"/>
      <rect height="1.17" style="fill: #bababa" width="0.96" x="18.44" y="27.91"/>
      <rect height="1.64" style="fill: #aeaba8" width="2.14" x="19.4" y="32.97"/>
      <rect height="1.17" style="fill: #bababa" width="0.96" x="18.44" y="33.22"/>
      <rect height="8" style="fill: #333" transform="translate(32.81 61.87) rotate(180)" width="4.63" x="14.36" y="26.93"/>
    </g>
    <rect height="10.98" style="fill: #f2f5f3" width="2.21" x="58.01" y="13.69"/>
    <path d="M7.42,2.07a5,5,0,1,0,4.95,5A5,5,0,0,0,7.42,2.07Zm0,8.58A3.63,3.63,0,1,1,11,7,3.62,3.62,0,0,1,7.42,10.65Z" style="fill: #e6d5ae" transform="translate(-0.55)"/>
    <circle cx="6.87" cy="7.03" r="5.94" style="fill: none;stroke: #fff;stroke-miterlimit: 10;stroke-width: 0.5px"/>
    <path d="M7.42,44.78a5,5,0,1,0,4.95,5A5,5,0,0,0,7.42,44.78Zm0,8.59A3.63,3.63,0,1,1,11,49.74,3.63,3.63,0,0,1,7.42,53.37Z" style="fill: #e6d5ae" transform="translate(-0.55)"/>
    <circle cx="6.87" cy="49.74" r="5.94" style="fill: none;stroke: #fff;stroke-miterlimit: 10;stroke-width: 0.5px"/>
    <path d="M85.42,2.07a5,5,0,1,0,5,5A5,5,0,0,0,85.42,2.07Zm0,8.58A3.63,3.63,0,1,1,89,7,3.62,3.62,0,0,1,85.42,10.65Z" style="fill: #e6d5ae" transform="translate(-0.55)"/>
    <circle cx="84.87" cy="7.03" r="5.94" style="fill: none;stroke: #fff;stroke-miterlimit: 10;stroke-width: 0.5px"/>
    <path d="M85.42,44.78a5,5,0,1,0,5,5A5,5,0,0,0,85.42,44.78Zm0,8.59A3.63,3.63,0,1,1,89,49.74,3.63,3.63,0,0,1,85.42,53.37Z" style="fill: #e6d5ae" transform="translate(-0.55)"/>
    <circle cx="84.87" cy="49.74" r="5.94" style="fill: none;stroke: #fff;stroke-miterlimit: 10;stroke-width: 0.5px"/>
    <g>
      <circle cx="76.87" cy="3.19" r="2.4" style="fill: #6e6548"/>
      <circle cx="76.88" cy="3.19" r="1.34" style="fill: #e6d5ae"/>
    </g>
    <g>
      <circle cx="14.22" cy="44.78" r="2.4" style="fill: #6e6548"/>
      <circle cx="14.22" cy="44.78" r="1.34" style="fill: #e6d5ae"/>
    </g>
    <g>
      <path d="M32.71,13.94a3.73,3.73,0,0,0-3.29-.44,5.56,5.56,0,0,0-.41-3c-.21-.71-.54-1-1.12-.07a3.28,3.28,0,0,0-1.33,2.72c-.57-.81-1.7-.87-3-.68-.9.05-1,.45-.54,1.07a3.86,3.86,0,0,0,1.76,1.94c.44.06.66.16.3.32a4,4,0,0,0-1.35,2.77c-.21.88.2.89.84.55A3.68,3.68,0,0,0,26.94,18c.25-.26.44-.42.44-.13a.8.8,0,0,0,.26.69,8.09,8.09,0,0,0,2,1.55c.48.34.7.18.7-.41a11.55,11.55,0,0,0,.18-1.29,2.6,2.6,0,0,0-.1-1.2,2.27,2.27,0,0,0-.12-.26l-.32-.24c-.3-.31-.22-.44.24-.38a3.21,3.21,0,0,0,2.44-1.25C33.25,14.59,33.21,14.23,32.71,13.94Z" style="fill: #fff" transform="translate(-0.55)"/>
      <path d="M26.12,14.58A2.65,2.65,0,0,1,25,14.22a2.48,2.48,0,0,1-.86-.79,2.51,2.51,0,0,1,1.11.36A2.58,2.58,0,0,1,26.12,14.58Z" style="fill: #1e377f" transform="translate(-0.55)"/>
      <path d="M31.53,14.65a2.5,2.5,0,0,1-1.1.38,2.45,2.45,0,0,1-1.16-.11,2.42,2.42,0,0,1,1.1-.38A2.46,2.46,0,0,1,31.53,14.65Z" style="fill: #1e377f" transform="translate(-0.55)"/>
      <path d="M27.93,13.78a2.45,2.45,0,0,1-.09-1.16,2.58,2.58,0,0,1,.4-1.1,2.45,2.45,0,0,1,.09,1.16A2.58,2.58,0,0,1,27.93,13.78Z" style="fill: #1e377f" transform="translate(-0.55)"/>
      <path d="M29.49,18.4a2.48,2.48,0,0,1-.83-.81,2.67,2.67,0,0,1-.42-1.09,2.61,2.61,0,0,1,.84.81A2.48,2.48,0,0,1,29.49,18.4Z" style="fill: #1e377f" transform="translate(-0.55)"/>
      <path d="M25.13,18a2.57,2.57,0,0,1,.62-1,2.42,2.42,0,0,1,1-.64,2.44,2.44,0,0,1-.61,1A2.61,2.61,0,0,1,25.13,18Z" style="fill: #1e377f" transform="translate(-0.55)"/>
    </g>
    <path d="M82.21,25.25s-2.29,5.42.71,8" style="fill: none;stroke: #fff;stroke-linecap: round;stroke-linejoin: round" transform="translate(-0.55)"/>
    <path d="M83.63,34.05l-.44-3.51a.08.08,0,0,0-.12-.05l-2.82,2.14a.07.07,0,0,0,0,.13l3.27,1.37a.07.07,0,0,0,.1-.08l-.44-3.51a.08.08,0,0,0-.12-.05l-2.82,2.14a.07.07,0,0,0,0,.13l3.27,1.37A.07.07,0,0,0,83.63,34.05Z" style="fill: #fff" transform="translate(-0.55)"/>
    <path d="M88.43,19.36l-3.51-.44a.08.08,0,0,1-.06-.12L87,16a.08.08,0,0,1,.13,0l1.37,3.27a.07.07,0,0,1-.08.1l-3.51-.44a.08.08,0,0,1-.06-.12L87,16a.08.08,0,0,1,.13,0l1.37,3.27A.07.07,0,0,1,88.43,19.36Z" style="fill: #fff" transform="translate(-0.55)"/>
    <path d="M82.94,13.06l2.26,2.15s0,.08-.08.08H80.6c-.08,0-.13,0-.09-.08l2.27-2.15a.15.15,0,0,1,.16,0l2.26,2.15s0,.08-.08.08H80.6c-.08,0-.13,0-.09-.08l2.27-2.15A.15.15,0,0,1,82.94,13.06Z" style="fill: #fff" transform="translate(-0.55)"/>
    <path d="M88.54,28.9l-2.25-2s-.09,0-.09.08l0,4.51c0,.07.05.12.09.08l2.22-2.07a.39.39,0,0,0,0-.57l-2.25-2s-.09,0-.09.08l0,4.51c0,.07.05.12.09.08l2.22-2.07A.39.39,0,0,0,88.54,28.9Z" style="fill: #fff" transform="translate(-0.55)"/>
    <line style="fill: none;stroke: #fff;stroke-linecap: round;stroke-linejoin: round;stroke-width: 0.5px" x1="82.38" x2="86.33" y1="28.17" y2="28.17"/>
    <line style="fill: none;stroke: #fff;stroke-linecap: round;stroke-linejoin: round;stroke-width: 0.5px" x1="82.38" x2="86.33" y1="29.92" y2="29.92"/>
    <path d="M90.35,19.8l-1.09,1.85a.31.31,0,0,1-.29.16.31.31,0,0,1-.24-.1.33.33,0,0,1-.11-.23.36.36,0,0,1,.06-.2L90,19.12,88.71,17a.46.46,0,0,1-.08-.23.34.34,0,0,1,.1-.23.34.34,0,0,1,.53.06l1.1,1.85,1.08-1.84a.32.32,0,0,1,.29-.17.35.35,0,0,1,.25.1.3.3,0,0,1,.1.24.41.41,0,0,1,0,.18l-1.28,2.18L92,21.3a.37.37,0,0,1,0,.18.33.33,0,0,1-.1.24.36.36,0,0,1-.24.09.33.33,0,0,1-.3-.16Z" style="fill: #fff" transform="translate(-0.55)"/>
    <path d="M90.64,29.54v2.24a.33.33,0,0,1-.1.25.37.37,0,0,1-.24.1.34.34,0,0,1-.35-.35V29.54L88.58,27.8v-.72a.33.33,0,0,1,.1-.25.37.37,0,0,1,.24-.1.34.34,0,0,1,.25.11.33.33,0,0,1,.1.24v.47l1,1.32,1-1.31v-.48a.37.37,0,0,1,.1-.24.34.34,0,0,1,.24-.11.37.37,0,0,1,.24.1.32.32,0,0,1,.1.25v.72Z" style="fill: #fff" transform="translate(-0.55)"/>
    <path d="M88.9,36.39H92v.44L89.5,41.1h2.16a.33.33,0,0,1,.25.1.37.37,0,0,1,.1.24.34.34,0,0,1-.11.24.3.3,0,0,1-.24.1h-3.1v-.45l2.5-4.25H88.9a.37.37,0,0,1-.24-.1.37.37,0,0,1-.1-.25.37.37,0,0,1,.1-.24A.33.33,0,0,1,88.9,36.39Z" style="fill: #fff" transform="translate(-0.55)"/>
    <path d="M81.38,21.94V18.51a.28.28,0,0,1,.08-.21.29.29,0,0,1,.21-.09.31.31,0,0,1,.29.29v3.44a.3.3,0,0,0,.08.2.28.28,0,0,0,.21.08h1.19a.24.24,0,0,0,.2-.08.25.25,0,0,0,.09-.2V18.51a.32.32,0,0,1,.08-.21.29.29,0,0,1,.42,0,.32.32,0,0,1,.08.21v3.42a.85.85,0,0,1-.26.62.8.8,0,0,1-.61.26H82.25a.85.85,0,0,1-.87-.87Z" style="fill: #fff" transform="translate(-0.55)"/>
    <path d="M78.86,18.5s2.8-3.69,7.82-.41" style="fill: none;stroke: #fff;stroke-linecap: round;stroke-linejoin: round" transform="translate(-0.55)"/>
    <circle cx="82.54" cy="39.58" r="1.38" style="fill: none;stroke: #fff;stroke-miterlimit: 10"/>
    <path d="M83.26,42.8l0,.06a3.18,3.18,0,1,0-.23,0l.06-.15Z" style="fill: none" transform="translate(-0.55)"/>
    <g>
      <path d="M80.27,43.71a.06.06,0,0,0,0,.09l1.58-.2A4.33,4.33,0,0,1,80.63,43Z" style="fill: #fff" transform="translate(-0.55)"/>
      <path d="M82.85,43.17l-.12.31A.21.21,0,0,0,82.85,43.17Z" style="fill: #fff" transform="translate(-0.55)"/>
      <path d="M81.7,41.08a.06.06,0,0,0-.1,0l-.51,1a3.34,3.34,0,0,0,1.52.64Z" style="fill: #fff" transform="translate(-0.55)"/>
      <path d="M83.09,35.21A4.27,4.27,0,0,0,80.63,43l.46-.89a3.29,3.29,0,1,1,2.14.68l-.39,1,.25,0a4.3,4.3,0,0,0,0-8.59Z" style="fill: #fff" transform="translate(-0.55)"/>
      <path d="M81.89,43.6l.79-.1,0,0,.12-.31h0l-.24-.43a3.34,3.34,0,0,1-1.52-.64l-.46.89A4.33,4.33,0,0,0,81.89,43.6Z" style="fill: #fff" transform="translate(-0.55)"/>
    </g>
    <g>
      <path d="M13.65,25.64a1.14,1.14,0,0,1-1.15-1.15V21.65a1.16,1.16,0,1,1,2.31,0v2.84A1.15,1.15,0,0,1,13.65,25.64Z" style="fill: #bababa" transform="translate(-0.55)"/>
      <path d="M19.82,25.64a1.15,1.15,0,0,1-1.16-1.15V21.65a1.16,1.16,0,0,1,2.32,0v2.84A1.15,1.15,0,0,1,19.82,25.64Z" style="fill: #bababa" transform="translate(-0.55)"/>
      <rect height="6.17" rx="0.58" ry="0.58" style="fill: #e0e0e0" transform="translate(-6.88 39.8) rotate(-90)" width="3.13" x="15.17" y="19.98"/>
      <rect height="2.89" style="fill: #ac947a" transform="translate(-6.94 39.74) rotate(-90)" width="3.13" x="15.11" y="21.62"/>
    </g>
    <g>
      <path d="M13.65,42.19A1.15,1.15,0,0,1,12.5,41V38.19a1.16,1.16,0,1,1,2.31,0V41A1.16,1.16,0,0,1,13.65,42.19Z" style="fill: #bababa" transform="translate(-0.55)"/>
      <path d="M19.82,42.19A1.16,1.16,0,0,1,18.66,41V38.19a1.16,1.16,0,0,1,2.32,0V41A1.16,1.16,0,0,1,19.82,42.19Z" style="fill: #bababa" transform="translate(-0.55)"/>
      <rect height="6.17" rx="0.58" ry="0.58" style="fill: #e0e0e0" transform="translate(-23.42 56.35) rotate(-90)" width="3.13" x="15.17" y="36.52"/>
      <rect height="2.89" style="fill: #ac947a" transform="translate(-23.48 56.29) rotate(-90)" width="3.13" x="15.11" y="38.16"/>
    </g>
    <g>
      <path d="M33.78,31.15A1.16,1.16,0,0,1,34.93,30h2.85a1.16,1.16,0,0,1,0,2.32H34.93A1.16,1.16,0,0,1,33.78,31.15Z" style="fill: #bababa" transform="translate(-0.55)"/>
      <path d="M33.78,37.32a1.16,1.16,0,0,1,1.15-1.16h2.85a1.16,1.16,0,0,1,0,2.31H34.93A1.15,1.15,0,0,1,33.78,37.32Z" style="fill: #bababa" transform="translate(-0.55)"/>
      <rect height="6.17" rx="0.58" ry="0.58" style="fill: #e0e0e0" width="3.13" x="34.24" y="31.15"/>
      <rect height="2.89" style="fill: #ac947a" width="3.13" x="34.24" y="32.73"/>
    </g>
    <g>
      <path d="M62.6,19.55a1.16,1.16,0,0,1,1.16-1.16H66.6a1.16,1.16,0,0,1,0,2.31H63.76A1.15,1.15,0,0,1,62.6,19.55Z" style="fill: #bababa" transform="translate(-0.55)"/>
      <path d="M62.6,25.71a1.15,1.15,0,0,1,1.16-1.15H66.6a1.16,1.16,0,0,1,0,2.31H63.76A1.16,1.16,0,0,1,62.6,25.71Z" style="fill: #bababa" transform="translate(-0.55)"/>
      <rect height="6.17" rx="0.58" ry="0.58" style="fill: #e0e0e0" width="3.13" x="63.06" y="19.55"/>
      <rect height="2.89" width="3.13" x="63.06" y="21.12"/>
    </g>
    <g>
      <path d="M34.48,19.73a1.16,1.16,0,0,1,1.16-1.16h2.84a1.16,1.16,0,1,1,0,2.31H35.64A1.15,1.15,0,0,1,34.48,19.73Z" style="fill: #bababa" transform="translate(-0.55)"/>
      <path d="M34.48,25.9a1.16,1.16,0,0,1,1.16-1.16h2.84a1.16,1.16,0,1,1,0,2.31H35.64A1.16,1.16,0,0,1,34.48,25.9Z" style="fill: #bababa" transform="translate(-0.55)"/>
      <rect height="6.17" rx="0.58" ry="0.58" style="fill: #e0e0e0" width="3.13" x="34.94" y="19.73"/>
      <rect height="2.89" style="fill: #ac947a" width="3.13" x="34.94" y="21.31"/>
    </g>
    <g>
      <path d="M65.44,23.73v-.14h-.53v.13s0,0,0,0h-.07s0,0,0,0V23.5h.62v-.09h-.19l0,0a0,0,0,0,1,0-.06h.3a0,0,0,0,1,0,0v.37a0,0,0,0,1,0,0h-.06Z" style="fill: #fff" transform="translate(-0.55)"/>
      <path d="M65.45,23.1H64.9a.07.07,0,0,1-.06,0,.14.14,0,0,1,0-.06v-.29a.14.14,0,0,1,0-.06l.06,0h.55l.06,0a.14.14,0,0,1,0,.07V23a.14.14,0,0,1,0,.06A.07.07,0,0,1,65.45,23.1Zm0-.36h-.53V23h.53Z" style="fill: #fff" transform="translate(-0.55)"/>
      <path d="M65.45,22.44H64.9a.09.09,0,0,1-.06,0,.14.14,0,0,1,0-.06v-.28a.08.08,0,0,1,0-.06.09.09,0,0,1,.06,0h.55l.06,0a.08.08,0,0,1,0,.06v.28a.08.08,0,0,1,0,.06Zm0-.37h-.53v.28h.53Z" style="fill: #fff" transform="translate(-0.55)"/>
      <path d="M65.53,21.36v.41h-.31a.07.07,0,0,1-.06,0,.09.09,0,0,1,0-.06V21.4h-.22v.33s0,0,0,0h-.07a0,0,0,0,1,0,0V21.4a.09.09,0,0,1,0-.06.06.06,0,0,1,.06,0h.22a.07.07,0,0,1,.06,0,.09.09,0,0,1,0,.06v.28h.22v-.32s0,0,0,0l0,0,0,0S65.53,21.34,65.53,21.36Z" style="fill: #fff" transform="translate(-0.55)"/>
    </g>
    <g>
      <path d="M76.38,25.25a1.16,1.16,0,0,1,1.16,1.16v2.84a1.16,1.16,0,0,1-2.31,0V26.41A1.15,1.15,0,0,1,76.38,25.25Z" style="fill: #bababa" transform="translate(-0.55)"/>
      <path d="M70.22,25.25a1.16,1.16,0,0,1,1.15,1.16v2.84a1.16,1.16,0,0,1-2.31,0V26.41A1.16,1.16,0,0,1,70.22,25.25Z" style="fill: #bababa" transform="translate(-0.55)"/>
      <rect height="6.17" rx="0.58" ry="0.58" style="fill: #e0e0e0" transform="translate(100.58 -45.47) rotate(90)" width="3.13" x="71.73" y="24.74"/>
      <rect height="2.89" transform="translate(100.64 -45.53) rotate(90)" width="3.13" x="71.79" y="26.38"/>
    </g>
    <g>
      <path d="M72.2,28.09h.14v-.53h-.17s0,0,0,0a0,0,0,0,1,0,0h.26v.62h.09V27.9l0,0s0,0,0,0h0a0,0,0,0,1,0,0v.24a0,0,0,0,1,0,0h-.43a0,0,0,0,1,0,0s0,0,0,0Z" style="fill: #fff" transform="translate(-0.55)"/>
      <path d="M72.82,28.1v-.55a.09.09,0,0,1,0-.06l.06,0h.28l.07,0a.14.14,0,0,1,0,.06v.55a.14.14,0,0,1,0,.06.08.08,0,0,1-.07,0h-.28a.07.07,0,0,1-.06,0A.09.09,0,0,1,72.82,28.1Zm.37,0v-.53h-.27v.53Z" style="fill: #fff" transform="translate(-0.55)"/>
      <path d="M73.49,28.1v-.55a.09.09,0,0,1,0-.06l.06,0h.28l.06,0a.09.09,0,0,1,0,.06v.55a.09.09,0,0,1,0,.06.07.07,0,0,1-.06,0h-.28s0,0-.06,0A.09.09,0,0,1,73.49,28.1Zm.37,0v-.53h-.28v.53Z" style="fill: #fff" transform="translate(-0.55)"/>
      <path d="M74.57,28.18h-.41v-.31a.11.11,0,0,1,.09-.09h.28v-.22h-.36s0,0,0,0a0,0,0,0,1,0,0h.36l.06,0a.06.06,0,0,1,0,.06v.22a.06.06,0,0,1,0,.06l-.06,0h-.28v.22h.32l0,0s0,0,0,0l0,0Z" style="fill: #fff" transform="translate(-0.55)"/>
    </g>
    <g>
      <path d="M76.38,37a1.15,1.15,0,0,1,1.16,1.15V41a1.16,1.16,0,1,1-2.31,0V38.16A1.14,1.14,0,0,1,76.38,37Z" style="fill: #bababa" transform="translate(-0.55)"/>
      <path d="M70.22,37a1.15,1.15,0,0,1,1.15,1.15V41a1.16,1.16,0,1,1-2.31,0V38.16A1.15,1.15,0,0,1,70.22,37Z" style="fill: #bababa" transform="translate(-0.55)"/>
      <rect height="6.17" rx="0.58" ry="0.58" style="fill: #e0e0e0" transform="translate(112.33 -33.72) rotate(90)" width="3.13" x="71.73" y="36.5"/>
      <rect height="2.89" transform="translate(112.4 -33.78) rotate(90)" width="3.13" x="71.79" y="38.14"/>
    </g>
    <g>
      <path d="M72.2,39.85h.14v-.54h-.17a0,0,0,0,1,0-.06l0,0h.23v.63h.09v-.19l0,0s0,0,0,0h0a0,0,0,0,1,0,0v.23s0,0,0,0h-.43s0,0,0,0a0,0,0,0,1,0,0Z" style="fill: #fff" transform="translate(-0.55)"/>
      <path d="M72.82,39.85v-.54a.09.09,0,0,1,0-.06l.06,0h.28a.09.09,0,0,1,.07,0,.14.14,0,0,1,0,.06v.54a.08.08,0,0,1,0,.06.09.09,0,0,1-.07,0h-.28l-.06,0A.06.06,0,0,1,72.82,39.85Zm.37,0v-.54h-.27v.54Z" style="fill: #fff" transform="translate(-0.55)"/>
      <path d="M73.49,39.85v-.54a.09.09,0,0,1,0-.06.07.07,0,0,1,.06,0h.28a.07.07,0,0,1,.06,0,.09.09,0,0,1,0,.06v.54a.06.06,0,0,1,0,.06.09.09,0,0,1-.06,0h-.28a.11.11,0,0,1-.09-.09Zm.37,0v-.54h-.28v.54Z" style="fill: #fff" transform="translate(-0.55)"/>
      <path d="M74.57,39.94h-.41v-.31a.09.09,0,0,1,0-.07s0,0,.06,0h.28v-.23h-.36a0,0,0,0,1,0-.06l0,0h.33l.06,0a.09.09,0,0,1,0,.06v.23a.09.09,0,0,1,0,.06l-.06,0h-.28v.22h.35l0,0a.05.05,0,0,1,0,0Z" style="fill: #fff" transform="translate(-0.55)"/>
    </g>
    <g>
      <path d="M65.17,37a1.15,1.15,0,0,1,1.16,1.15V41A1.16,1.16,0,1,1,64,41V38.16A1.14,1.14,0,0,1,65.17,37Z" style="fill: #bababa" transform="translate(-0.55)"/>
      <path d="M59,37a1.15,1.15,0,0,1,1.15,1.15V41a1.16,1.16,0,1,1-2.31,0V38.16A1.15,1.15,0,0,1,59,37Z" style="fill: #bababa" transform="translate(-0.55)"/>
      <rect height="6.17" rx="0.58" ry="0.58" style="fill: #e0e0e0" transform="translate(101.12 -22.51) rotate(90)" width="3.13" x="60.52" y="36.5"/>
      <rect height="2.89" transform="translate(101.19 -22.57) rotate(90)" width="3.13" x="60.58" y="38.14"/>
    </g>
    <g>
      <path d="M61,39.85h.14v-.54H61a0,0,0,0,1,0-.06l0,0h.23v.63h.09v-.19l0,0s0,0,0,0h0a0,0,0,0,1,0,0v.23s0,0,0,0H61s0,0,0,0a0,0,0,0,1,0,0Z" style="fill: #fff" transform="translate(-0.55)"/>
      <path d="M61.61,39.85v-.54a.11.11,0,0,1,.09-.09H62a.09.09,0,0,1,.07,0,.14.14,0,0,1,0,.06v.54a.08.08,0,0,1,0,.06.09.09,0,0,1-.07,0H61.7a.09.09,0,0,1-.06,0A.06.06,0,0,1,61.61,39.85Zm.37,0v-.54h-.27v.54Z" style="fill: #fff" transform="translate(-0.55)"/>
      <path d="M62.28,39.85v-.54a.09.09,0,0,1,0-.06.07.07,0,0,1,.06,0h.28a.07.07,0,0,1,.06,0,.09.09,0,0,1,0,.06v.54a.06.06,0,0,1,0,.06.09.09,0,0,1-.06,0h-.28a.11.11,0,0,1-.09-.09Zm.37,0v-.54h-.28v.54Z" style="fill: #fff" transform="translate(-0.55)"/>
      <path d="M63.36,39.94H63v-.31a.09.09,0,0,1,0-.07s0,0,.06,0h.28v-.23H63a0,0,0,0,1,0-.06l0,0h.33a.11.11,0,0,1,.09.09v.23a.09.09,0,0,1,0,.06l-.06,0H63v.22h.35l0,0a.05.05,0,0,1,0,0Z" style="fill: #fff" transform="translate(-0.55)"/>
    </g>
    <g>
      <path d="M31.05,37.36a1.15,1.15,0,0,1,1.15,1.16v2.84a1.16,1.16,0,1,1-2.31,0V38.52A1.16,1.16,0,0,1,31.05,37.36Z" style="fill: #bababa" transform="translate(-0.55)"/>
      <path d="M24.88,37.36A1.16,1.16,0,0,1,26,38.52v2.84a1.16,1.16,0,0,1-2.32,0V38.52A1.16,1.16,0,0,1,24.88,37.36Z" style="fill: #bababa" transform="translate(-0.55)"/>
      <rect height="6.17" rx="0.58" ry="0.58" style="fill: #e0e0e0" transform="translate(67.36 11.98) rotate(90)" width="3.13" x="26.4" y="36.86"/>
      <rect height="2.89" transform="translate(67.42 11.92) rotate(90)" width="3.13" x="26.46" y="38.5"/>
    </g>
    <g>
      <path d="M26.87,40.21H27v-.54h-.17l0,0s0,0,0,0l0,0h.23v.63h.09V40a0,0,0,0,1,0,0l0,0a.05.05,0,0,1,0,0s0,0,0,0v.23a0,0,0,0,1,0,0l0,0h-.36s0,0,0,0l0,0,0,0Z" style="fill: #fff" transform="translate(-0.55)"/>
      <path d="M27.49,40.21v-.54a.07.07,0,0,1,0-.06.06.06,0,0,1,.06,0h.28l.06,0a.07.07,0,0,1,0,.06v.54a.09.09,0,0,1,0,.06l-.06,0h-.28a.06.06,0,0,1-.06,0A.09.09,0,0,1,27.49,40.21Zm.37,0v-.54h-.28v.54Z" style="fill: #fff" transform="translate(-0.55)"/>
      <path d="M28.16,40.21v-.54a.11.11,0,0,1,0-.06.09.09,0,0,1,.07,0h.28l.06,0a.11.11,0,0,1,0,.06v.54a.14.14,0,0,1,0,.06l-.06,0h-.28a.09.09,0,0,1-.07,0A.14.14,0,0,1,28.16,40.21Zm.36,0v-.54h-.27v.54Z" style="fill: #fff" transform="translate(-0.55)"/>
      <path d="M29.24,40.3h-.41V40a.07.07,0,0,1,0-.06.09.09,0,0,1,.07,0h.27v-.22h-.36v0a0,0,0,0,1,0,0l0,0h.32a.09.09,0,0,1,.07,0,.14.14,0,0,1,0,.06v.22a.14.14,0,0,1,0,.07.08.08,0,0,1-.07,0h-.27v.23h.35a0,0,0,0,1,0,0s0,0,0,0Z" style="fill: #fff" transform="translate(-0.55)"/>
    </g>
    <g>
      <path d="M31.05,20.7a1.15,1.15,0,0,1,1.15,1.16V24.7a1.16,1.16,0,1,1-2.31,0V21.86A1.16,1.16,0,0,1,31.05,20.7Z" style="fill: #bababa" transform="translate(-0.55)"/>
      <path d="M24.88,20.7A1.16,1.16,0,0,1,26,21.86V24.7a1.16,1.16,0,0,1-2.32,0V21.86A1.16,1.16,0,0,1,24.88,20.7Z" style="fill: #bababa" transform="translate(-0.55)"/>
      <rect height="6.17" rx="0.58" ry="0.58" style="fill: #e0e0e0" transform="translate(50.7 -4.68) rotate(90)" width="3.13" x="26.4" y="20.2"/>
      <rect height="2.89" transform="translate(50.76 -4.74) rotate(90)" width="3.13" x="26.46" y="21.84"/>
    </g>
    <g>
      <path d="M26.87,23.55H27V23h-.17s0,0,0,0,0,0,0,0l0,0h.23v.63h.09v-.19a0,0,0,0,1,0,0l0,0a.05.05,0,0,1,0,0v.26a.1.1,0,0,1,0,0l0,0h-.36s0,0,0,0,0,0,0,0,0,0,0,0Z" style="fill: #fff" transform="translate(-0.55)"/>
      <path d="M27.49,23.55V23a.11.11,0,0,1,.09-.09h.28l.06,0A.06.06,0,0,1,28,23v.54a.09.09,0,0,1,0,.06l-.06,0h-.28a.06.06,0,0,1-.06,0A.09.09,0,0,1,27.49,23.55Zm.37,0V23h-.28v.54Z" style="fill: #fff" transform="translate(-0.55)"/>
      <path d="M28.16,23.55V23a.08.08,0,0,1,0-.06.09.09,0,0,1,.07,0h.28a.09.09,0,0,1,.06,0,.08.08,0,0,1,0,.06v.54a.14.14,0,0,1,0,.06.09.09,0,0,1-.06,0h-.28a.09.09,0,0,1-.07,0A.14.14,0,0,1,28.16,23.55Zm.36,0V23h-.27v.54Z" style="fill: #fff" transform="translate(-0.55)"/>
      <path d="M29.24,23.64h-.41v-.32a.07.07,0,0,1,0-.06.09.09,0,0,1,.07,0h.27V23h-.36s0,0,0,0a0,0,0,0,1,0,0l0,0h.32a.09.09,0,0,1,.07,0,.14.14,0,0,1,0,.06v.22a.14.14,0,0,1,0,.07.08.08,0,0,1-.07,0h-.27v.23h.35a0,0,0,0,1,0,0s0,0,0,0Z" style="fill: #fff" transform="translate(-0.55)"/>
    </g>
    <g>
      <path d="M19.76,14.16a1.15,1.15,0,0,1,1.16,1.15v2.84a1.16,1.16,0,0,1-2.32,0V15.31A1.15,1.15,0,0,1,19.76,14.16Z" style="fill: #bababa" transform="translate(-0.55)"/>
      <path d="M13.59,14.16a1.15,1.15,0,0,1,1.16,1.15v2.84a1.16,1.16,0,1,1-2.31,0V15.31A1.14,1.14,0,0,1,13.59,14.16Z" style="fill: #bababa" transform="translate(-0.55)"/>
      <rect height="6.17" rx="0.58" ry="0.58" style="fill: #e0e0e0" transform="translate(32.86 0.06) rotate(90)" width="3.13" x="15.11" y="13.65"/>
      <rect height="2.89" transform="translate(32.92 0) rotate(90)" width="3.13" x="15.17" y="15.29"/>
    </g>
    <g>
      <path d="M15.58,17h.14v-.53h-.14l0,0a0,0,0,0,1,0-.06l0,0h.23V17h.09v-.19a0,0,0,0,1,0,0H16a0,0,0,0,1,0,0V17s0,0,0,0h-.43a.05.05,0,0,1,0,0l0,0Z" style="fill: #fff" transform="translate(-0.55)"/>
      <path d="M16.2,17v-.54a.11.11,0,0,1,.09-.09h.28a.06.06,0,0,1,.06,0,.09.09,0,0,1,0,.06V17a.11.11,0,0,1-.09.09h-.28a.07.07,0,0,1-.06,0A.06.06,0,0,1,16.2,17Zm.37,0v-.53h-.28V17Z" style="fill: #fff" transform="translate(-0.55)"/>
      <path d="M16.87,17v-.54a.09.09,0,0,1,0-.06.06.06,0,0,1,.06,0h.28a.11.11,0,0,1,.09.09V17a.06.06,0,0,1,0,.06.09.09,0,0,1-.06,0H17a.11.11,0,0,1-.09-.09Zm.37,0v-.53H17V17Z" style="fill: #fff" transform="translate(-0.55)"/>
      <path d="M18,17.09h-.41v-.31a.14.14,0,0,1,0-.07.08.08,0,0,1,.07,0h.27v-.22h-.32l0,0,0,0s0,0,0,0l0,0h.32a.09.09,0,0,1,.07,0,.08.08,0,0,1,0,.07v.22a.07.07,0,0,1,0,.06.09.09,0,0,1-.07,0h-.27V17H18a0,0,0,0,1,0,0s0,0,0,0Z" style="fill: #fff" transform="translate(-0.55)"/>
    </g>
    <g>
      <path d="M56.57,42.73a1.14,1.14,0,0,1-1.15,1.15H52.58a1.16,1.16,0,1,1,0-2.31h2.84A1.15,1.15,0,0,1,56.57,42.73Z" style="fill: #bababa" transform="translate(-0.55)"/>
      <path d="M56.57,36.56a1.15,1.15,0,0,1-1.15,1.16H52.58a1.16,1.16,0,1,1,0-2.32h2.84A1.15,1.15,0,0,1,56.57,36.56Z" style="fill: #bababa" transform="translate(-0.55)"/>
      <rect height="6.17" rx="0.58" ry="0.58" style="fill: #e0e0e0" transform="translate(107.44 79.29) rotate(180)" width="3.13" x="52.43" y="36.56"/>
      <rect height="2.89" transform="translate(107.44 79.41) rotate(180)" width="3.13" x="52.43" y="38.26"/>
    </g>
    <g>
      <path d="M53.73,38.55v.14h.53v-.14l0,0,0,0,0,0a0,0,0,0,1,0,0v.23h-.62v.09H54a0,0,0,0,1,0,0s0,0,0,0h-.3s0,0,0,0v-.36s0,0,0,0l0,0,0,0S53.73,38.53,53.73,38.55Z" style="fill: #fff" transform="translate(-0.55)"/>
      <path d="M53.73,39.17h.54a.09.09,0,0,1,.06,0,.06.06,0,0,1,0,.06v.28a.09.09,0,0,1,0,.06l-.06,0h-.54a.06.06,0,0,1-.06,0,.09.09,0,0,1,0-.06v-.28a.11.11,0,0,1,.09-.09Zm0,.37h.53v-.28h-.53Z" style="fill: #fff" transform="translate(-0.55)"/>
      <path d="M53.73,39.84h.54l.06,0a.09.09,0,0,1,0,.06v.29a.09.09,0,0,1,0,.06l-.06,0h-.54l-.06,0a.09.09,0,0,1,0-.06v-.29a.09.09,0,0,1,0-.06Zm0,.36h.53v-.27h-.53Z" style="fill: #fff" transform="translate(-0.55)"/>
      <path d="M53.64,40.92V40.5H54a.09.09,0,0,1,.07,0,.14.14,0,0,1,0,.07v.27h.22v-.32a.05.05,0,0,1,0,0h.06s0,0,0,0v.32a.08.08,0,0,1,0,.07l-.07,0H54l-.06,0a.09.09,0,0,1,0-.07V40.6h-.22v.32a0,0,0,0,1,0,0h-.07A0,0,0,0,1,53.64,40.92Z" style="fill: #fff" transform="translate(-0.55)"/>
    </g>
    <g>
      <path d="M70.22,36.18A1.16,1.16,0,0,1,69.06,35V32.18a1.16,1.16,0,1,1,2.31,0V35A1.16,1.16,0,0,1,70.22,36.18Z" style="fill: #bababa" transform="translate(-0.55)"/>
      <path d="M76.38,36.18A1.15,1.15,0,0,1,75.23,35V32.18a1.16,1.16,0,1,1,2.31,0V35A1.16,1.16,0,0,1,76.38,36.18Z" style="fill: #bababa" transform="translate(-0.55)"/>
      <rect height="6.17" rx="0.58" ry="0.58" style="fill: #e0e0e0" transform="translate(39.15 106.9) rotate(-90)" width="3.13" x="71.73" y="30.51"/>
      <rect height="2.89" transform="translate(39.09 106.84) rotate(-90)" width="3.13" x="71.67" y="32.15"/>
    </g>
    <g>
      <path d="M74.4,33.33h-.14v.54h.17v0s0,0,0,0l0,0h-.22v-.63h-.09v.19l0,0,0,0,0,0,0,0v-.23a.05.05,0,0,1,0,0h.43s0,0,0,0a0,0,0,0,1,0,0Z" style="fill: #fff" transform="translate(-0.55)"/>
      <path d="M73.77,33.33v.54a.14.14,0,0,1,0,.06.09.09,0,0,1-.06,0H73.4a.09.09,0,0,1-.06,0,.14.14,0,0,1,0-.06v-.54a.08.08,0,0,1,0-.06.09.09,0,0,1,.06,0h.29a.09.09,0,0,1,.06,0A.08.08,0,0,1,73.77,33.33Zm-.36,0v.54h.27v-.54Z" style="fill: #fff" transform="translate(-0.55)"/>
      <path d="M73.11,33.33v.54A.11.11,0,0,1,73,34h-.28a.06.06,0,0,1-.06,0,.09.09,0,0,1,0-.06v-.54a.11.11,0,0,1,.09-.09H73a.09.09,0,0,1,.06,0A.06.06,0,0,1,73.11,33.33Zm-.37,0v.54H73v-.54Z" style="fill: #fff" transform="translate(-0.55)"/>
      <path d="M72,33.24h.41v.31a.09.09,0,0,1,0,.07.09.09,0,0,1-.06,0h-.28v.22h.36a0,0,0,0,1,0,.06l0,0h-.33a.11.11,0,0,1-.09-.09v-.22a.09.09,0,0,1,0-.07l.06,0h.28v-.22H72a0,0,0,0,1,0,0s0,0,0,0Z" style="fill: #fff" transform="translate(-0.55)"/>
    </g>
    <rect height="10.32" rx="0.98" ry="0.98" style="fill: #474348" width="8.56" x="41.31" y="23.28"/>
    <rect height="11.16" rx="0.45" ry="0.45" style="fill: none;stroke: #fff;stroke-miterlimit: 10;stroke-width: 0.25px" width="9.79" x="41.01" y="22.9"/>
    <rect height="4.54" rx="0.49" ry="0.49" style="fill: #474348" width="3.42" x="57.41" y="16.91"/>
    <line style="fill: none;stroke: #fff;stroke-linecap: round;stroke-linejoin: round;stroke-width: 0.5px" x1="57.15" x2="57.15" y1="16.29" y2="22.48"/>
    <line style="fill: none;stroke: #fff;stroke-linecap: round;stroke-linejoin: round;stroke-width: 0.5px" x1="61.4" x2="61.4" y1="16.29" y2="22.48"/>
    <rect height="10.98" style="fill: #f2f5f3" width="2.21" x="18.14" y="2.45"/>
    <rect height="4.54" rx="0.49" ry="0.49" style="fill: #474348" width="3.42" x="17.53" y="5.67"/>
    <line style="fill: none;stroke: #fff;stroke-linecap: round;stroke-linejoin: round;stroke-width: 0.5px" x1="17.27" x2="17.27" y1="5.05" y2="11.24"/>
    <line style="fill: none;stroke: #fff;stroke-linecap: round;stroke-linejoin: round;stroke-width: 0.5px" x1="21.53" x2="21.53" y1="5.05" y2="11.24"/>
    <rect height="10.98" style="fill: #f2f5f3" width="2.21" x="69.07" y="13.69"/>
    <rect height="4.54" rx="0.49" ry="0.49" style="fill: #474348" width="3.42" x="68.47" y="16.91"/>
    <line style="fill: none;stroke: #fff;stroke-linecap: round;stroke-linejoin: round;stroke-width: 0.5px" x1="68.21" x2="68.21" y1="16.29" y2="22.48"/>
    <line style="fill: none;stroke: #fff;stroke-linecap: round;stroke-linejoin: round;stroke-width: 0.5px" x1="72.46" x2="72.46" y1="16.29" y2="22.48"/>
    <g>
      <path d="M47.92,41.73h-.05v-.25a.09.09,0,0,0-.09-.09h-1a.09.09,0,0,0-.08.09v.25h-.59a.27.27,0,0,0-.27.26v1.86a.27.27,0,0,0,.27.26h1.8a.27.27,0,0,0,.27-.26V42A.27.27,0,0,0,47.92,41.73Z" style="fill: #aeaba8" transform="translate(-0.55)"/>
      <path d="M43,41.76h0v-.25a.09.09,0,0,0-.09-.09h-1a.09.09,0,0,0-.09.09v.25h-.58a.28.28,0,0,0-.28.26v1.86a.28.28,0,0,0,.28.26H43a.27.27,0,0,0,.28-.26V42A.27.27,0,0,0,43,41.76Z" style="fill: #aeaba8" transform="translate(-0.55)"/>
      <path d="M43.59,37.94h.06v.25a.09.09,0,0,0,.09.08h1.08a.09.09,0,0,0,.09-.08v-.25h.64a.28.28,0,0,0,.3-.27V35.82a.28.28,0,0,0-.3-.27h-2a.28.28,0,0,0-.3.27v1.85A.28.28,0,0,0,43.59,37.94Z" style="fill: #aeaba8" transform="translate(-0.55)"/>
      <rect height="3.89" rx="0.91" ry="0.91" style="fill: #3c3c3e" width="7.92" x="40.06" y="37.69"/>
    </g>
    <g>
      <path d="M42.59,40.36V40a.1.1,0,0,1,.11-.11.09.09,0,0,1,.07,0,.11.11,0,0,1,0,.08v.34a.09.09,0,0,0,0,.07.09.09,0,0,0,.07,0h.22a.12.12,0,0,0,.11-.11V39.11a.1.1,0,0,1,.1-.1.13.13,0,0,1,.08,0,.11.11,0,0,1,0,.08v1.24a.29.29,0,0,1-.1.23.31.31,0,0,1-.22.09h-.22a.29.29,0,0,1-.22-.09A.29.29,0,0,1,42.59,40.36Z" style="fill: #565656" transform="translate(-0.55)"/>
      <path d="M44.15,40.47h.32V39.22h-.32a.09.09,0,0,1-.07,0,.11.11,0,0,1,0-.08.1.1,0,0,1,.1-.1h.54v1.46h.21V40a.11.11,0,0,1,0-.08.11.11,0,0,1,.07,0,.1.1,0,0,1,.11.11v.55a.11.11,0,0,1,0,.07.11.11,0,0,1-.08,0h-.85a.1.1,0,0,1-.11-.11.09.09,0,0,1,0-.07A.11.11,0,0,1,44.15,40.47Z" style="fill: #565656" transform="translate(-0.55)"/>
      <path d="M46.17,40.23l-.35.41a.11.11,0,0,1-.09,0,.1.1,0,0,1-.1-.1.08.08,0,0,1,0-.07l.38-.45-.35-.42a.09.09,0,0,1,0-.07.11.11,0,0,1,0-.07.11.11,0,0,1,.08,0,.09.09,0,0,1,.08,0l.32.38.33-.39a.11.11,0,0,1,.08,0l.07,0a.11.11,0,0,1,0,.08s0,0,0,.06l-.36.43.38.45a.14.14,0,0,1,0,.06.1.1,0,0,1-.11.11.09.09,0,0,1-.08,0Z" style="fill: #565656" transform="translate(-0.55)"/>
    </g>
    <g>
      <path d="M24.73,28.84h.06v.25a.08.08,0,0,0,.08.08h1a.07.07,0,0,0,.08-.08v-.25h.59a.27.27,0,0,0,.27-.27V26.72a.27.27,0,0,0-.27-.27h-1.8a.27.27,0,0,0-.27.27v1.85A.27.27,0,0,0,24.73,28.84Z" style="fill: #aeaba8" transform="translate(-0.55)"/>
      <path d="M29.64,28.81h.05v.25a.08.08,0,0,0,.09.08h1a.08.08,0,0,0,.08-.08v-.25h.59a.27.27,0,0,0,.27-.27V26.69a.26.26,0,0,0-.27-.26h-1.8a.26.26,0,0,0-.27.26v1.85A.27.27,0,0,0,29.64,28.81Z" style="fill: #aeaba8" transform="translate(-0.55)"/>
      <path d="M29.07,32.63H29v-.25c0-.05,0-.08-.1-.08H27.84c-.06,0-.1,0-.1.08v.25H27.1a.29.29,0,0,0-.3.27v1.85a.29.29,0,0,0,.3.26h2a.29.29,0,0,0,.3-.26V32.9A.29.29,0,0,0,29.07,32.63Z" style="fill: #aeaba8" transform="translate(-0.55)"/>
      <rect height="3.89" rx="0.91" ry="0.91" style="fill: #3c3c3e" transform="translate(55.62 61.87) rotate(180)" width="7.92" x="24.12" y="28.99"/>
    </g>
    <g>
      <path d="M30.06,30.2v.34a.09.09,0,0,1,0,.07.08.08,0,0,1-.07,0,.12.12,0,0,1-.11-.11V30.2a.09.09,0,0,0,0-.07.11.11,0,0,0-.08,0h-.21a.11.11,0,0,0-.08,0,.09.09,0,0,0,0,.07v1.25a.11.11,0,0,1,0,.08.11.11,0,0,1-.07,0,.11.11,0,0,1-.08,0,.13.13,0,0,1,0-.08V30.2A.29.29,0,0,1,29.3,30a.3.3,0,0,1,.23-.1h.21A.29.29,0,0,1,30,30,.31.31,0,0,1,30.06,30.2Z" style="fill: #565656" transform="translate(-0.55)"/>
      <path d="M28.51,30.1h-.33v1.25h.32a.11.11,0,0,1,.08,0,.11.11,0,0,1,0,.07.1.1,0,0,1-.11.11H28V30.1h-.21v.44a.09.09,0,0,1,0,.07.12.12,0,0,1-.08,0,.15.15,0,0,1-.11-.11V30a.08.08,0,0,1,0-.07.09.09,0,0,1,.07,0h.86a.1.1,0,0,1,.1.1.11.11,0,0,1,0,.08A.09.09,0,0,1,28.51,30.1Z" style="fill: #565656" transform="translate(-0.55)"/>
      <path d="M26.49,30.34l.35-.41a.1.1,0,0,1,.08-.05.11.11,0,0,1,.08,0A.13.13,0,0,1,27,30a.14.14,0,0,1,0,.07l-.38.45.35.42A.14.14,0,0,1,27,31a.11.11,0,0,1,0,.08.09.09,0,0,1-.07,0,.1.1,0,0,1-.09,0l-.32-.38-.33.38a.08.08,0,0,1-.07,0,.11.11,0,0,1-.08,0A.09.09,0,0,1,26,31s0-.05,0-.06l.36-.43L26,30.06A.09.09,0,0,1,26,30a.1.1,0,0,1,0-.08.08.08,0,0,1,.07,0,.14.14,0,0,1,.09.05Z" style="fill: #565656" transform="translate(-0.55)"/>
    </g>
    <g>
      <path d="M17.17,33.43h-1a.13.13,0,0,1-.12,0,.16.16,0,0,1-.05-.11v-.54a.16.16,0,0,1,.05-.11.13.13,0,0,1,.12,0h1a.13.13,0,0,1,.12,0,.16.16,0,0,1,.05.11v.54a.16.16,0,0,1-.05.11A.13.13,0,0,1,17.17,33.43Zm0-.69h-1v.52h1Z" style="fill: #565656" transform="translate(-0.55)"/>
      <path d="M17.17,32.08v-.26h-1v.26a.09.09,0,0,1,0,.06l-.06,0a.07.07,0,0,1-.06,0,.09.09,0,0,1,0-.06v-.43h1.19v-.17h-.36a.09.09,0,0,1-.06,0,.1.1,0,0,1,0-.12.09.09,0,0,1,.06,0h.44a.09.09,0,0,1,.07,0,.14.14,0,0,1,0,.06v.69a.11.11,0,0,1-.09.09l-.06,0A.08.08,0,0,1,17.17,32.08Z" style="fill: #565656" transform="translate(-0.55)"/>
      <path d="M16.16,30h.32a.29.29,0,0,1,.18.07.23.23,0,0,1,.17-.07h.34a.17.17,0,0,1,.12,0,.21.21,0,0,1,.05.12v.61a.08.08,0,0,1,0,.06.09.09,0,0,1-.07,0,.09.09,0,0,1-.06,0,.08.08,0,0,1,0-.06v-.6h-.34a.07.07,0,0,0-.08.08v.35a.09.09,0,0,1,0,.06.1.1,0,0,1-.12,0,.09.09,0,0,1,0-.06v-.35a.14.14,0,0,0,0-.06.09.09,0,0,0-.06,0h-.33v.62a.09.09,0,0,1,0,.06.07.07,0,0,1-.06,0s-.05,0-.06,0a.09.09,0,0,1,0-.06V30.2a.21.21,0,0,1,.05-.12A.21.21,0,0,1,16.16,30Z" style="fill: #565656" transform="translate(-0.55)"/>
      <path d="M16.16,28.77h.32a.24.24,0,0,1,.18.07.23.23,0,0,1,.17-.07h.34a.13.13,0,0,1,.12.05.17.17,0,0,1,.05.12v.61a.14.14,0,0,1,0,.06l-.07,0-.06,0a.14.14,0,0,1,0-.06v-.61h-.34a.09.09,0,0,0-.06,0s0,0,0,.06v.34a.06.06,0,0,1,0,.06.07.07,0,0,1-.12,0,.06.06,0,0,1,0-.06V29a.14.14,0,0,0,0-.06l-.06,0h-.33v.61a.06.06,0,0,1,0,.06.09.09,0,0,1-.06,0,.07.07,0,0,1-.06,0,.06.06,0,0,1,0-.06v-.61a.17.17,0,0,1,.18-.17Z" style="fill: #565656" transform="translate(-0.55)"/>
    </g>
    <path d="M9.37,17.05l-2.14-.63a.15.15,0,0,1-.12-.16.14.14,0,0,1,.1-.14l2.18-.63h0a.17.17,0,0,1,.12,0,.13.13,0,0,1,0,.1.15.15,0,0,1-.11.16l-.43.12v.72l.46.14a.07.07,0,0,1,.05,0,.16.16,0,0,1,0,.09.13.13,0,0,1-.05.12.14.14,0,0,1-.11,0Zm-1.53-.78.89.26V16Z" style="fill: #fff" transform="translate(-0.55)"/>
    <circle cx="7.89" cy="16.49" r="2.56" style="fill: none;stroke: #fff;stroke-miterlimit: 10"/>
  </g>
  <g id="text">
    <g>
      <path d="M34.66,10.18H36a.14.14,0,0,1,.16.16.15.15,0,0,1,0,.11.15.15,0,0,1-.12.05h-.48v1.9H36a.17.17,0,0,1,.12,0,.15.15,0,0,1,0,.11.16.16,0,0,1,0,.12.17.17,0,0,1-.12,0h-1.3a.15.15,0,0,1-.11,0,.13.13,0,0,1,0-.12.13.13,0,0,1,0-.11.16.16,0,0,1,.11,0h.49V10.5h-.49a.17.17,0,0,1-.16-.16.16.16,0,0,1,0-.12A.15.15,0,0,1,34.66,10.18Z" style="fill: #fff" transform="translate(-0.55)"/>
      <path d="M38.49,10.34v2.38h-.43l-.86-2v1.81a.17.17,0,0,1-.05.12.16.16,0,0,1-.12,0,.15.15,0,0,1-.11,0,.17.17,0,0,1-.05-.12V10.18h.43l.87,2V10.34a.16.16,0,0,1,0-.11.13.13,0,0,1,.11-.05.16.16,0,0,1,.12,0A.19.19,0,0,1,38.49,10.34Z" style="fill: #fff" transform="translate(-0.55)"/>
      <path d="M39.24,10.62v-.44h1.63v.44a.16.16,0,0,1,0,.11.17.17,0,0,1-.12,0,.17.17,0,0,1-.16-.16V10.5h-.33v2.06a.16.16,0,0,1,0,.12.17.17,0,0,1-.12,0,.15.15,0,0,1-.11,0,.13.13,0,0,1,0-.12V10.5h-.33v.12a.15.15,0,0,1,0,.11.18.18,0,0,1-.12,0,.17.17,0,0,1-.16-.16Z" style="fill: #fff" transform="translate(-0.55)"/>
      <path d="M43.08,12.72H41.61V11.61a.29.29,0,0,1,.1-.23.28.28,0,0,1,.22-.1h1V10.5H41.76a.14.14,0,0,1-.11-.05.16.16,0,0,1,0-.11.17.17,0,0,1,0-.12.14.14,0,0,1,.11,0h1.15a.32.32,0,0,1,.23.09.33.33,0,0,1,.1.23v.78a.33.33,0,0,1-.1.23.29.29,0,0,1-.23.1h-1v.79h1.15a.15.15,0,0,1,.11,0,.18.18,0,0,1,.05.12.17.17,0,0,1-.16.16Z" style="fill: #fff" transform="translate(-0.55)"/>
    </g>
    <g>
      <path d="M23.13,44.21v.64a.49.49,0,0,1-.14.36.56.56,0,0,1,.14.35v.67a.37.37,0,0,1-.1.24.33.33,0,0,1-.25.1H21.57a.13.13,0,0,1-.12,0,.17.17,0,0,1,.12-.29h1.21v-.67a.17.17,0,0,0-.05-.12.17.17,0,0,0-.12-.06h-.69a.16.16,0,0,1-.12,0,.17.17,0,0,1-.05-.13.16.16,0,0,1,.05-.12.17.17,0,0,1,.12-.05h.69a.17.17,0,0,0,.17-.17v-.66H21.56a.17.17,0,0,1-.12-.05.16.16,0,0,1-.05-.12.13.13,0,0,1,.05-.12.14.14,0,0,1,.12-.06h1.22a.38.38,0,0,1,.35.35Z" style="fill: #fff" transform="translate(-0.55)"/>
      <path d="M25.66,44v.63L25,46.45a.19.19,0,0,1-.17.13.18.18,0,0,1-.17-.13l-.69-1.78V44a.13.13,0,0,1,.05-.12.15.15,0,0,1,.24,0,.17.17,0,0,1,.05.12v.56l.52,1.33.52-1.33V44a.17.17,0,0,1,.05-.12.17.17,0,0,1,.12-.06.18.18,0,0,1,.13.06A.17.17,0,0,1,25.66,44Z" style="fill: #fff" transform="translate(-0.55)"/>
      <path d="M28.17,44.21v.64a.45.45,0,0,1-.14.36.52.52,0,0,1,.15.35v.67a.34.34,0,0,1-.11.24.31.31,0,0,1-.24.1H26.62a.17.17,0,0,1-.12-.29.17.17,0,0,1,.12-.05h1.21v-.67a.17.17,0,0,0,0-.12.18.18,0,0,0-.13-.06H27a.19.19,0,0,1-.12,0,.21.21,0,0,1-.05-.13A.17.17,0,0,1,27,45h.7a.16.16,0,0,0,.12,0,.17.17,0,0,0,0-.12v-.66H26.61a.21.21,0,0,1-.13-.05.21.21,0,0,1-.05-.12.17.17,0,0,1,.05-.12.18.18,0,0,1,.13-.06h1.22a.32.32,0,0,1,.24.11A.3.3,0,0,1,28.17,44.21Z" style="fill: #fff" transform="translate(-0.55)"/>
    </g>
    <g>
      <path d="M5,43.52H1.32a.23.23,0,0,1-.17-.07.25.25,0,0,1-.08-.18.23.23,0,0,1,.08-.17A.25.25,0,0,1,1.32,43H4.54V41.25a.24.24,0,0,1,.07-.18.24.24,0,0,1,.36,0,.29.29,0,0,1,.07.18Z" style="fill: #fff" transform="translate(-0.55)"/>
      <path d="M1.07,39.27V38a.66.66,0,0,1,.2-.45.68.68,0,0,1,.49-.22.25.25,0,0,1,.18.08.25.25,0,0,1,.08.17.23.23,0,0,1-.06.18.69.69,0,0,1-.22.09.18.18,0,0,0-.15.19v1.24c0,.06,0,.09,0,.09a.12.12,0,0,0,.09,0L4.1,37.43a.62.62,0,0,1,.38-.14.56.56,0,0,1,.39.17.51.51,0,0,1,.17.36v1.35a.7.7,0,0,1-.65.67c-.19,0-.29-.09-.29-.27a.25.25,0,0,1,.08-.17.22.22,0,0,1,.17-.07.21.21,0,0,0,.19-.19V37.89c0-.06,0-.08-.07-.08l-.07,0L2,39.71a.64.64,0,0,1-.37.13.58.58,0,0,1-.41-.17A.56.56,0,0,1,1.07,39.27Z" style="fill: #fff" transform="translate(-0.55)"/>
      <path d="M2.63,35.13H2.5l-.74.52h3a.24.24,0,0,1,.18.07A.29.29,0,0,1,5,35.9a.25.25,0,0,1-.08.18.22.22,0,0,1-.17.07H1.07V35.5l.9-.61-.9-.64v-.64H4.79a.25.25,0,0,1,.18.08.29.29,0,0,1,.07.18.25.25,0,0,1-.08.18.22.22,0,0,1-.17.07h-3l.72.51h.14a.25.25,0,1,1,0,.5Z" style="fill: #fff" transform="translate(-0.55)"/>
      <path d="M5,30.17v.25A.25.25,0,0,1,5,30.6a.21.21,0,0,1-.17.08.25.25,0,0,1-.18-.08.24.24,0,0,1-.07-.18H2.87v1.77a.25.25,0,0,1-.08.18.21.21,0,0,1-.17.07H1.32a.24.24,0,0,1-.25-.25v-2A.23.23,0,0,1,1.14,30a.25.25,0,0,1,.18-.08H4.78A.21.21,0,0,1,5,30,.23.23,0,0,1,5,30.17Zm-2.67.25H1.57v1.52h.79Z" style="fill: #fff" transform="translate(-0.55)"/>
      <path d="M1.07,28.51v-1a.72.72,0,0,1,.13-.38.82.82,0,0,1,.29-.27l1-.49a1.14,1.14,0,0,1,.56-.14,1.25,1.25,0,0,1,.57.15l1,.5a.66.66,0,0,1,.3.27.7.7,0,0,1,.12.4v1A.25.25,0,0,1,5,28.7a.26.26,0,0,1-.17.07.29.29,0,0,1-.18-.07.25.25,0,0,1-.08-.18v-.26H1.58v.25a.25.25,0,0,1-.08.18.24.24,0,0,1-.18.07.23.23,0,0,1-.17-.07A.25.25,0,0,1,1.07,28.51Zm.51-.76h3v-.17a.27.27,0,0,0-.17-.25l-1-.5a.82.82,0,0,0-.33-.09.67.67,0,0,0-.31.07l-1,.52a.27.27,0,0,0-.15.26Z" style="fill: #fff" transform="translate(-0.55)"/>
      <path d="M1.07,24.5V23.19a.68.68,0,0,1,.2-.45.67.67,0,0,1,.49-.21.24.24,0,0,1,.18.07.27.27,0,0,1,.08.17A.22.22,0,0,1,2,23a.69.69,0,0,1-.22.09.18.18,0,0,0-.15.19v1.24c0,.06,0,.09,0,.09a.16.16,0,0,0,.09,0L4.1,22.66a.6.6,0,0,1,.38-.13.54.54,0,0,1,.39.16.51.51,0,0,1,.17.36v1.36a.62.62,0,0,1-.21.46.62.62,0,0,1-.44.2c-.19,0-.29-.09-.29-.26a.21.21,0,0,1,.08-.17.23.23,0,0,1,.17-.08.19.19,0,0,0,.13,0,.18.18,0,0,0,.06-.14V23.12c0-.05,0-.08-.07-.08s0,0-.07,0L2,24.94a.58.58,0,0,1-.37.13.54.54,0,0,1-.41-.17A.54.54,0,0,1,1.07,24.5Z" style="fill: #fff" transform="translate(-0.55)"/>
      <path d="M4.53,21.14v-.77h-3v.76a.24.24,0,0,1-.07.18.29.29,0,0,1-.18.07.24.24,0,0,1-.17-.07.25.25,0,0,1-.08-.18V19.87H4.53v-.5h-1a.25.25,0,0,1-.18-.08.21.21,0,0,1-.07-.17.24.24,0,0,1,.25-.25H4.78a.24.24,0,0,1,.25.25v2a.25.25,0,0,1-.43.18A.29.29,0,0,1,4.53,21.14Z" style="fill: #fff" transform="translate(-0.55)"/>
    </g>
    <g>
      <path d="M11,37.41v.25a.26.26,0,0,1-.07.17.25.25,0,0,1-.18.08.29.29,0,0,1-.18-.07.24.24,0,0,1-.07-.18H8.87v1.76a.24.24,0,0,1-.07.18.25.25,0,0,1-.18.08H7.32a.25.25,0,0,1-.18-.08.24.24,0,0,1-.07-.18v-2a.24.24,0,0,1,.25-.25h3.46a.24.24,0,0,1,.18.07A.29.29,0,0,1,11,37.41Zm-2.67.24H7.58v1.52h.78Z" style="fill: #fff" transform="translate(-0.55)"/>
      <path d="M9,33.46h.22a.27.27,0,0,1,.26.26v2a.25.25,0,0,1-.08.18.24.24,0,0,1-.18.07H9a.24.24,0,0,1-.25-.25v-2a.24.24,0,0,1,.07-.18A.25.25,0,0,1,9,33.46Z" style="fill: #fff" transform="translate(-0.55)"/>
      <path d="M7.07,32.05v-1a.82.82,0,0,1,.13-.38.77.77,0,0,1,.3-.27l1-.49a1.25,1.25,0,0,1,.56-.14,1.21,1.21,0,0,1,.57.15l1,.5a.74.74,0,0,1,.31.27.77.77,0,0,1,.11.4v1a.25.25,0,0,1-.43.18.25.25,0,0,1-.08-.18V31.8H7.58v.25a.24.24,0,0,1-.07.18.26.26,0,0,1-.18.07.24.24,0,0,1-.18-.07A.25.25,0,0,1,7.07,32.05Zm.51-.76h3v-.17a.28.28,0,0,0-.17-.25l-1-.5a.82.82,0,0,0-.33-.09.87.87,0,0,0-.31.07l-1,.52a.27.27,0,0,0-.15.26Z" style="fill: #fff" transform="translate(-0.55)"/>
      <path d="M7.44,26.75l1.13-.55a1,1,0,0,1,.49-.12,1.06,1.06,0,0,1,.5.12l1.11.55a.61.61,0,0,1,.37.6.65.65,0,0,1-.1.36.78.78,0,0,1-.27.24l-1.11.55a1,1,0,0,1-.5.11,1,1,0,0,1-.49-.11L7.44,28a.65.65,0,0,1-.37-.6A.63.63,0,0,1,7.44,26.75Zm.25.76L8.75,28a.7.7,0,0,0,.31.07A.67.67,0,0,0,9.37,28l1.07-.53a.16.16,0,0,0,0-.3l-1.07-.54a.7.7,0,0,0-.31-.07.67.67,0,0,0-.31.07l-1.06.53a.16.16,0,0,0-.11.16A.17.17,0,0,0,7.69,27.51Z" style="fill: #fff" transform="translate(-0.55)"/>
      <path d="M10.79,24.92H7.07V22.64a.25.25,0,0,1,.08-.17.25.25,0,0,1,.18-.08.31.31,0,0,1,.18.07.24.24,0,0,1,.07.18v1.77h.79V23.14A.24.24,0,0,1,8.44,23a.27.27,0,0,1,.36,0,.24.24,0,0,1,.07.18v1.27h1.92a.25.25,0,0,1,.18.08.22.22,0,0,1,.07.17.24.24,0,0,1-.07.18A.25.25,0,0,1,10.79,24.92Z" style="fill: #fff" transform="translate(-0.55)"/>
    </g>
    <g>
      <path d="M34.64,43.86h.9a.46.46,0,0,1,.31.14.48.48,0,0,1,.14.34.13.13,0,0,1-.05.12.16.16,0,0,1-.11,0c-.06,0-.1,0-.12,0s-.05-.07-.07-.15a.12.12,0,0,0-.13-.1h-.85s-.06,0-.06,0a.09.09,0,0,0,0,.05l1.27,1.63a.4.4,0,0,1,.09.25.36.36,0,0,1-.11.27.32.32,0,0,1-.25.12h-.92a.45.45,0,0,1-.32-.14.46.46,0,0,1-.14-.31c0-.13.06-.19.18-.19a.13.13,0,0,1,.12.05.16.16,0,0,1,.05.11.13.13,0,0,0,0,.1.14.14,0,0,0,.09,0h.86s0,0,0,0l0,0-1.28-1.63a.4.4,0,0,1-.09-.25.38.38,0,0,1,.12-.28A.37.37,0,0,1,34.64,43.86Z" style="fill: #fff" transform="translate(-0.55)"/>
      <path d="M37.72,46.23h.62a.17.17,0,0,1,.12.05.17.17,0,0,1,.06.12.18.18,0,0,1-.06.13.17.17,0,0,1-.12,0H37.7a.49.49,0,0,1-.25-.08.43.43,0,0,1-.18-.17l-.4-.77a.81.81,0,0,1-.08-.34.67.67,0,0,1,.08-.33l.4-.76a.42.42,0,0,1,.17-.18.4.4,0,0,1,.24-.09h.67a.14.14,0,0,1,.12.06.13.13,0,0,1,.05.12.15.15,0,0,1-.05.12.17.17,0,0,1-.12.05H37.7a.14.14,0,0,0-.13.1l-.38.71a.39.39,0,0,0,0,.2.46.46,0,0,0,0,.21l.36.7A.18.18,0,0,0,37.72,46.23Z" style="fill: #fff" transform="translate(-0.55)"/>
      <path d="M39.31,46.58V44a.13.13,0,0,1,0-.12.14.14,0,0,1,.12-.06.17.17,0,0,1,.12.06.17.17,0,0,1,0,.12v2.19h1.21a.17.17,0,0,1,.12.05.17.17,0,0,1,.06.12.18.18,0,0,1-.06.13.17.17,0,0,1-.12,0Z" style="fill: #fff" transform="translate(-0.55)"/>
    </g>
    <g>
      <path d="M16.08,52.73v.63l-.7,1.78a.19.19,0,0,1-.17.13.18.18,0,0,1-.17-.13l-.69-1.78v-.63a.17.17,0,0,1,.29-.12.17.17,0,0,1,0,.12v.56l.52,1.33.52-1.33v-.56a.17.17,0,0,1,0-.12.16.16,0,0,1,.12,0,.17.17,0,0,1,.18.17Z" style="fill: #fff" transform="translate(-0.55)"/>
      <path d="M17,52.56h1.39a.15.15,0,0,1,.12,0,.17.17,0,0,1,0,.24.13.13,0,0,1-.12,0H17.9v2h.52a.17.17,0,0,1,.12,0,.21.21,0,0,1,.05.13.21.21,0,0,1-.05.12.17.17,0,0,1-.12.05H17a.18.18,0,0,1-.12-.05.21.21,0,0,1-.05-.12.21.21,0,0,1,.05-.13.18.18,0,0,1,.12,0h.53v-2H17a.15.15,0,0,1-.12,0,.17.17,0,0,1,0-.24A.15.15,0,0,1,17,52.56Z" style="fill: #fff" transform="translate(-0.55)"/>
      <path d="M21.12,52.73v2.54h-.46l-.93-2.11V55.1a.16.16,0,0,1-.05.12.17.17,0,0,1-.24,0,.21.21,0,0,1-.05-.12V52.56h.45l.93,2.1V52.73a.17.17,0,0,1,.05-.12.16.16,0,0,1,.12,0,.17.17,0,0,1,.18.17Z" style="fill: #fff" transform="translate(-0.55)"/>
    </g>
    <g>
      <path d="M29.66,53h.57a.17.17,0,0,1,.17.17.15.15,0,0,1-.06.13.16.16,0,0,1-.11,0h-.55a.17.17,0,0,0-.14.07l-.48.62a.33.33,0,0,0-.06.21v1a.17.17,0,0,0,.05.12.16.16,0,0,0,.12.05h.7a.17.17,0,0,0,.17-.17V54.8h-.35a.17.17,0,0,1-.12,0,.17.17,0,0,1,.12-.29h.7v.71a.46.46,0,0,1-.16.36.49.49,0,0,1-.36.15h-.7a.51.51,0,0,1-.51-.51v-1a.69.69,0,0,1,.13-.43l.51-.64a.49.49,0,0,1,.15-.13A.54.54,0,0,1,29.66,53Z" style="fill: #fff" transform="translate(-0.55)"/>
      <path d="M32.91,53.15v2.53h-.46l-.92-2.1v1.93a.17.17,0,0,1-.05.12.17.17,0,0,1-.29-.12V53h.45l.93,2.11V53.15a.13.13,0,0,1,0-.12.14.14,0,0,1,.12-.06.17.17,0,0,1,.17.18Z" style="fill: #fff" transform="translate(-0.55)"/>
      <path d="M33.88,53h.68a.43.43,0,0,1,.25.09.52.52,0,0,1,.19.2l.34.69a.85.85,0,0,1,.09.38.81.81,0,0,1-.1.39L35,55.4a.63.63,0,0,1-.19.21.5.5,0,0,1-.27.07h-.66a.16.16,0,0,1-.12,0,.17.17,0,0,1,0-.12.18.18,0,0,1,0-.12.21.21,0,0,1,.12,0h.18v-2h-.17a.17.17,0,0,1-.17-.18.16.16,0,0,1,0-.12A.17.17,0,0,1,33.88,53Zm.52.35v2h.12a.2.2,0,0,0,.17-.11l.34-.67a.6.6,0,0,0,.06-.23.54.54,0,0,0-.05-.21l-.35-.7a.19.19,0,0,0-.18-.1Z" style="fill: #fff" transform="translate(-0.55)"/>
    </g>
    <g>
      <path d="M41.42,52.56h.89a.46.46,0,0,1,.45.47.13.13,0,0,1,0,.12.13.13,0,0,1-.11.05c-.06,0-.1,0-.12,0a.35.35,0,0,1-.07-.14c0-.08-.06-.11-.13-.11h-.85s-.06,0-.06,0a.09.09,0,0,0,0,0l1.27,1.63a.4.4,0,0,1,.09.25.36.36,0,0,1-.11.27.31.31,0,0,1-.24.12h-.93a.45.45,0,0,1-.32-.14.43.43,0,0,1-.13-.31c0-.13.06-.19.18-.19a.16.16,0,0,1,.11,0,.13.13,0,0,1,0,.12.18.18,0,0,0,0,.09.17.17,0,0,0,.1,0h.85s0,0,0,0a.06.06,0,0,0,0-.05L41.12,53.2A.38.38,0,0,1,41,53a.37.37,0,0,1,.11-.28A.41.41,0,0,1,41.42,52.56Z" style="fill: #fff" transform="translate(-0.55)"/>
      <path d="M43.72,52.56h.68a.52.52,0,0,1,.26.08.67.67,0,0,1,.18.2l.34.69a.87.87,0,0,1,.1.39.82.82,0,0,1-.11.38l-.34.68a.46.46,0,0,1-.18.21.57.57,0,0,1-.28.08h-.65a.17.17,0,0,1-.12-.05.16.16,0,0,1-.05-.12.17.17,0,0,1,.17-.18h.18v-2h-.18a.13.13,0,0,1-.12,0,.17.17,0,0,1,0-.24A.13.13,0,0,1,43.72,52.56Zm.52.34v2h.12a.17.17,0,0,0,.17-.11l.34-.67a.56.56,0,0,0,.06-.22.36.36,0,0,0,0-.21l-.35-.7a.2.2,0,0,0-.18-.11Z" style="fill: #fff" transform="translate(-0.55)"/>
      <path d="M46.09,55l.69-2.35a.16.16,0,0,1,.17-.12c.09,0,.14,0,.16.11l.69,2.38v.05a.16.16,0,0,1,0,.12.17.17,0,0,1-.28-.08l-.13-.46h-.79l-.15.5s0,0,0,.06a.17.17,0,0,1-.1,0,.17.17,0,0,1-.17-.18A.13.13,0,0,1,46.09,55ZM47,53.35l-.3,1h.58Z" style="fill: #fff" transform="translate(-0.55)"/>
    </g>
    <g>
      <path d="M49.56,55.69h.58a.15.15,0,0,1,.11,0,.17.17,0,0,1,0,.12.16.16,0,0,1,0,.11.15.15,0,0,1-.11,0h-.6a.43.43,0,0,1-.23-.07.44.44,0,0,1-.17-.16l-.37-.71a.7.7,0,0,1-.07-.31.62.62,0,0,1,.07-.31l.37-.7a.46.46,0,0,1,.16-.18.4.4,0,0,1,.22-.07h.63a.15.15,0,0,1,.11,0,.18.18,0,0,1,.05.12.17.17,0,0,1-.16.16h-.61a.14.14,0,0,0-.12.09l-.35.66a.35.35,0,0,0,0,.18.42.42,0,0,0,0,.2l.34.65A.16.16,0,0,0,49.56,55.69Z" style="fill: #fff" transform="translate(-0.55)"/>
      <path d="M51.39,53.49h.83a.41.41,0,0,1,.29.13.38.38,0,0,1,.13.3.16.16,0,0,1,0,.12.18.18,0,0,1-.11.05c-.06,0-.09,0-.11,0a.38.38,0,0,1-.06-.14.13.13,0,0,0-.12-.1h-.79s-.06,0-.06,0,0,0,0,0l1.18,1.51a.37.37,0,0,1,.08.24.35.35,0,0,1-.1.25.3.3,0,0,1-.23.1h-.86a.4.4,0,0,1-.29-.12.41.41,0,0,1-.13-.29c0-.12,0-.18.17-.18a.16.16,0,0,1,.11.05.15.15,0,0,1,0,.11.09.09,0,0,0,0,.08.12.12,0,0,0,.08,0h.8a0,0,0,0,0,0,0s0,0,0,0l-1.18-1.51a.41.41,0,0,1-.08-.24.38.38,0,0,1,.36-.36Z" style="fill: #fff" transform="translate(-0.55)"/>
      <path d="M53.39,55.78,54,53.61a.15.15,0,0,1,.16-.12.14.14,0,0,1,.15.1L55,55.8a.07.07,0,0,1,0,.05.16.16,0,0,1,0,.11.13.13,0,0,1-.1,0,.14.14,0,0,1-.16-.11l-.12-.43h-.73l-.14.46a.13.13,0,0,1,0,.06.15.15,0,0,1-.09,0,.14.14,0,0,1-.16-.16A.13.13,0,0,1,53.39,55.78Zm.8-1.56-.28.91h.54Z" style="fill: #fff" transform="translate(-0.55)"/>
      <path d="M56.64,53.49h.53a.14.14,0,0,1,.11,0,.13.13,0,0,1,0,.12.17.17,0,0,1-.16.16h-.5a.15.15,0,0,0-.13.07l-.45.57a.29.29,0,0,0-.05.19v.88a.15.15,0,0,0,.15.17h.65a.14.14,0,0,0,.11,0,.13.13,0,0,0,0-.11v-.35h-.33a.15.15,0,0,1-.11,0,.17.17,0,0,1-.05-.12.17.17,0,0,1,.16-.16h.65v.67a.45.45,0,0,1-.14.33.44.44,0,0,1-.34.14h-.65a.48.48,0,0,1-.48-.47v-.88a.66.66,0,0,1,.13-.4l.47-.6a.42.42,0,0,1,.14-.12A.43.43,0,0,1,56.64,53.49Z" style="fill: #fff" transform="translate(-0.55)"/>
    </g>
    <g>
      <path d="M59.69,55.51h.62a.21.21,0,0,1,.12.05.17.17,0,0,1,0,.24.21.21,0,0,1-.12.05h-.65a.43.43,0,0,1-.25-.08.43.43,0,0,1-.18-.17l-.4-.77a.76.76,0,0,1-.08-.33.74.74,0,0,1,.08-.34l.4-.75a.54.54,0,0,1,.18-.19.43.43,0,0,1,.23-.08h.68a.21.21,0,0,1,.12,0,.18.18,0,0,1,.05.12.17.17,0,0,1-.05.12.16.16,0,0,1-.12.06h-.66s-.09,0-.13.09l-.38.71a.42.42,0,0,0,0,.2.36.36,0,0,0,0,.21l.36.7A.18.18,0,0,0,59.69,55.51Z" style="fill: #fff" transform="translate(-0.55)"/>
      <path d="M61.66,53.14h.89a.46.46,0,0,1,.31.14.42.42,0,0,1,.14.33.17.17,0,0,1,0,.13.16.16,0,0,1-.11,0,.17.17,0,0,1-.12,0,.35.35,0,0,1-.07-.15.13.13,0,0,0-.13-.11h-.85s-.06,0-.06,0a.09.09,0,0,0,0,.06l1.27,1.62a.43.43,0,0,1,.09.26.36.36,0,0,1-.11.27.34.34,0,0,1-.24.11h-.93a.45.45,0,0,1-.32-.14.42.42,0,0,1-.13-.31c0-.12.06-.19.17-.19a.17.17,0,0,1,.12,0,.15.15,0,0,1,0,.12.13.13,0,0,0,0,.09.12.12,0,0,0,.09,0h.86a0,0,0,0,0,0,0,.06.06,0,0,0,0-.05l-1.27-1.62a.41.41,0,0,1-.09-.26.36.36,0,0,1,.11-.27A.38.38,0,0,1,61.66,53.14Z" style="fill: #fff" transform="translate(-0.55)"/>
      <path d="M64.48,54.21v-.09l-.35-.51v2.07a.17.17,0,0,1,0,.12.21.21,0,0,1-.12.05.17.17,0,0,1-.12-.05.13.13,0,0,1-.05-.12V53.14h.44l.42.61.43-.61h.44v2.54a.17.17,0,0,1,0,.12.21.21,0,0,1-.13.05.21.21,0,0,1-.12-.05.17.17,0,0,1,0-.12V53.62l-.34.49v.1a.17.17,0,0,1-.06.12.17.17,0,0,1-.12.05.17.17,0,0,1-.17-.17Z" style="fill: #fff" transform="translate(-0.55)"/>
    </g>
    <g>
      <path d="M69.89,53.1h.92a.43.43,0,0,1,.32.14.45.45,0,0,1,.15.34.15.15,0,0,1,0,.13.16.16,0,0,1-.12,0c-.06,0-.1,0-.12,0a.42.42,0,0,1-.07-.15.13.13,0,0,0-.13-.11h-.88s-.06,0-.06,0a.14.14,0,0,0,0,.06l1.32,1.68a.41.41,0,0,1,.09.26.36.36,0,0,1-.11.27.35.35,0,0,1-.26.12H70a.43.43,0,0,1-.33-.14.47.47,0,0,1-.14-.32.17.17,0,0,1,.19-.19.15.15,0,0,1,.12,0,.17.17,0,0,1,0,.12.1.1,0,0,0,0,.09.12.12,0,0,0,.1,0h.88s0,0,0,0a.14.14,0,0,0,0-.06l-1.32-1.68a.41.41,0,0,1-.09-.26.41.41,0,0,1,.4-.4Z" style="fill: #fff" transform="translate(-0.55)"/>
      <path d="M72.27,53.1H73a.48.48,0,0,1,.27.09.52.52,0,0,1,.19.2l.34.71a.82.82,0,0,1,.1.4.88.88,0,0,1-.1.4l-.35.7a.51.51,0,0,1-.2.21.44.44,0,0,1-.28.08h-.67a.17.17,0,0,1-.13,0,.18.18,0,0,1,0-.12.21.21,0,0,1,0-.13.17.17,0,0,1,.13-.05h.18V53.46h-.18a.14.14,0,0,1-.12-.06.16.16,0,0,1-.06-.13.16.16,0,0,1,.06-.12A.13.13,0,0,1,72.27,53.1Zm.54.36v2.08h.12a.17.17,0,0,0,.17-.12l.35-.69a.49.49,0,0,0,.07-.23.54.54,0,0,0,0-.22l-.36-.72a.2.2,0,0,0-.19-.1Z" style="fill: #fff" transform="translate(-0.55)"/>
      <path d="M76,53.36l.39.79a.82.82,0,0,1,.08.35.85.85,0,0,1-.08.35l-.39.78a.42.42,0,0,1-.42.26.43.43,0,0,1-.25-.07.39.39,0,0,1-.17-.19l-.4-.78a.91.91,0,0,1,0-.7l.4-.79a.43.43,0,0,1,.42-.26A.42.42,0,0,1,76,53.36Zm-.54.17-.36.75a.42.42,0,0,0,0,.22.44.44,0,0,0,0,.22l.37.75a.11.11,0,0,0,.11.07.1.1,0,0,0,.1-.07l.38-.75a.47.47,0,0,0,.05-.22.42.42,0,0,0-.05-.22l-.37-.75a.12.12,0,0,0-.11-.08A.14.14,0,0,0,75.47,53.53Z" style="fill: #fff" transform="translate(-0.55)"/>
      <path d="M78,54.2v-.1l-.37-.52v2.14a.17.17,0,0,1-.18.17.13.13,0,0,1-.12,0,.15.15,0,0,1,0-.12V53.1h.45l.44.63.45-.63h.44v2.62a.13.13,0,0,1,0,.12.17.17,0,0,1-.13,0,.17.17,0,0,1-.17-.17V53.59l-.36.51v.1a.21.21,0,0,1-.05.12.21.21,0,0,1-.13,0,.17.17,0,0,1-.12,0A.16.16,0,0,1,78,54.2Z" style="fill: #fff" transform="translate(-0.55)"/>
    </g>
    <g>
      <path d="M61.67,43.78h.92a.5.5,0,0,1,.47.49.17.17,0,0,1-.05.12.17.17,0,0,1-.12.06.17.17,0,0,1-.12,0,.34.34,0,0,1-.07-.16.13.13,0,0,0-.13-.11h-.88s-.06,0-.06,0a.14.14,0,0,0,0,.06L63,45.92a.42.42,0,0,1,0,.54.35.35,0,0,1-.26.12h-.95a.43.43,0,0,1-.33-.15.44.44,0,0,1-.14-.31c0-.14.06-.2.18-.2a.17.17,0,0,1,.18.17.1.1,0,0,0,0,.09.11.11,0,0,0,.09,0h.88s.06,0,.06,0a.09.09,0,0,0,0-.06l-1.31-1.67a.43.43,0,0,1-.09-.26.4.4,0,0,1,.12-.29A.38.38,0,0,1,61.67,43.78Z" style="fill: #fff" transform="translate(-0.55)"/>
      <path d="M64.05,43.78h.7a.43.43,0,0,1,.26.09.54.54,0,0,1,.19.21l.35.7a.82.82,0,0,1,.1.4.88.88,0,0,1-.1.4l-.35.7a.6.6,0,0,1-.2.22.54.54,0,0,1-.28.08H64a.16.16,0,0,1-.12-.06.17.17,0,0,1-.05-.12.21.21,0,0,1,.05-.13.18.18,0,0,1,.12-.05h.19V44.14h-.18a.18.18,0,0,1-.13-.06.17.17,0,0,1-.05-.12.17.17,0,0,1,.18-.18Zm.53.36v2.08h.13a.18.18,0,0,0,.17-.11l.35-.7a.49.49,0,0,0,.07-.23.59.59,0,0,0,0-.22l-.37-.72a.18.18,0,0,0-.18-.1Z" style="fill: #fff" transform="translate(-0.55)"/>
      <path d="M67.79,44l.39.79a.85.85,0,0,1,.08.35.82.82,0,0,1-.08.35l-.39.79a.43.43,0,0,1-.42.26.47.47,0,0,1-.26-.08.58.58,0,0,1-.17-.18l-.39-.79a.78.78,0,0,1-.07-.35.81.81,0,0,1,.07-.35l.39-.79a.48.48,0,0,1,.85,0Zm-.54.17-.37.75a.59.59,0,0,0,0,.22.54.54,0,0,0,0,.22l.38.75a.11.11,0,0,0,.11.07.1.1,0,0,0,.1-.07l.38-.75a.44.44,0,0,0,.05-.22.42.42,0,0,0-.05-.22l-.37-.75a.12.12,0,0,0-.11-.08A.14.14,0,0,0,67.25,44.21Z" style="fill: #fff" transform="translate(-0.55)"/>
      <path d="M69.09,46.33l.72-2.42a.16.16,0,0,1,.17-.13.16.16,0,0,1,.17.11l.7,2.46a.09.09,0,0,1,0,0,.13.13,0,0,1,0,.12.14.14,0,0,1-.11.06.17.17,0,0,1-.18-.13L70.38,46h-.81l-.15.51a.13.13,0,0,1-.06.07.17.17,0,0,1-.1,0,.18.18,0,0,1-.13-.06.17.17,0,0,1,0-.12S69.09,46.35,69.09,46.33ZM70,44.6l-.3,1h.6Z" style="fill: #fff" transform="translate(-0.55)"/>
      <path d="M72.71,43.78h.59a.17.17,0,0,1,.12,0,.17.17,0,0,1,0,.26.21.21,0,0,1-.12,0h-.56a.18.18,0,0,0-.15.07l-.49.64a.28.28,0,0,0-.06.21v1a.17.17,0,0,0,0,.13.13.13,0,0,0,.12,0h.72a.17.17,0,0,0,.13,0,.21.21,0,0,0,0-.12v-.39h-.37a.17.17,0,0,1-.17-.17.17.17,0,0,1,.17-.18h.72v.74a.51.51,0,0,1-.15.37.55.55,0,0,1-.38.16h-.72a.55.55,0,0,1-.38-.16.51.51,0,0,1-.15-.37v-1a.73.73,0,0,1,.14-.45l.52-.66a.47.47,0,0,1,.37-.18Z" style="fill: #fff" transform="translate(-0.55)"/>
    </g>
    <g>
      <path d="M49.33,10.18H50a.39.39,0,0,1,.25.08.52.52,0,0,1,.17.19l.32.64a.81.81,0,0,1,.09.37.89.89,0,0,1-.1.36l-.32.63a.44.44,0,0,1-.18.2.43.43,0,0,1-.25.07h-.62a.15.15,0,0,1-.11,0,.18.18,0,0,1-.05-.12.16.16,0,0,1,.05-.11.13.13,0,0,1,.11,0h.17V10.5h-.16a.13.13,0,0,1-.12-.05.15.15,0,0,1,0-.11.17.17,0,0,1,0-.12A.16.16,0,0,1,49.33,10.18Zm.48.32v1.9h.12a.17.17,0,0,0,.16-.1l.31-.64a.48.48,0,0,0,.06-.21.41.41,0,0,0,0-.19l-.33-.66a.18.18,0,0,0-.17-.1Z" style="fill: #fff" transform="translate(-0.55)"/>
      <path d="M51.54,12.56V10.18h1.14a.44.44,0,0,1,.34.14.46.46,0,0,1,.15.34v.19a.45.45,0,0,1-.15.34.44.44,0,0,1-.34.14h-.2l.65,1.13a.26.26,0,0,1,0,.1.17.17,0,0,1-.05.12.19.19,0,0,1-.12,0,.14.14,0,0,1-.14-.08l-.76-1.31h-.23v1.23a.17.17,0,0,1,0,.12.16.16,0,0,1-.12,0,.15.15,0,0,1-.11,0A.17.17,0,0,1,51.54,12.56ZM51.87,11h.81a.14.14,0,0,0,.16-.16v-.19a.15.15,0,0,0,0-.11.18.18,0,0,0-.12-.05h-.81Z" style="fill: #fff" transform="translate(-0.55)"/>
      <path d="M54.07,10.18h.63a.39.39,0,0,1,.25.08.44.44,0,0,1,.17.19l.32.64a.81.81,0,0,1,.09.37.76.76,0,0,1-.1.36l-.32.63a.45.45,0,0,1-.43.27h-.62a.15.15,0,0,1-.11,0,.18.18,0,0,1-.05-.12.16.16,0,0,1,.05-.11.13.13,0,0,1,.11,0h.17V10.5h-.16a.15.15,0,0,1-.12-.05.15.15,0,0,1,0-.11.14.14,0,0,1,.16-.16Zm.48.32v1.9h.12a.17.17,0,0,0,.16-.1l.32-.64a.48.48,0,0,0,.06-.21.41.41,0,0,0-.05-.19l-.33-.66a.18.18,0,0,0-.17-.1Z" style="fill: #fff" transform="translate(-0.55)"/>
      <path d="M57.26,11.5v1.06a.17.17,0,0,1,0,.12.15.15,0,0,1-.11,0,.16.16,0,0,1-.12,0,.17.17,0,0,1,0-.12V11.5l-.64-.82v-.34a.19.19,0,0,1,0-.12.16.16,0,0,1,.12,0,.17.17,0,0,1,.16.16v.22l.48.62.5-.62v-.22a.15.15,0,0,1,0-.11.13.13,0,0,1,.12-.05.15.15,0,0,1,.11,0,.17.17,0,0,1,0,.12v.34Z" style="fill: #fff" transform="translate(-0.55)"/>
    </g>
    <g>
      <path d="M42.11,1.05h1.31a.17.17,0,0,1,.16.16.17.17,0,0,1,0,.12.16.16,0,0,1-.11,0h-.49v1.9h.49a.15.15,0,0,1,.11,0,.17.17,0,0,1,0,.12.17.17,0,0,1-.16.16H42.11A.17.17,0,0,1,42,3.44a.17.17,0,0,1,0-.12.15.15,0,0,1,.11,0h.5V1.38h-.5A.17.17,0,0,1,42,1.22a.17.17,0,0,1,0-.12A.16.16,0,0,1,42.11,1.05Z" style="fill: #fff" transform="translate(-0.55)"/>
      <path d="M46,1.22V3.6h-.43l-.87-2V3.44a.17.17,0,0,1-.16.16.17.17,0,0,1-.12-.05.15.15,0,0,1,0-.11V1.05h.42l.87,2V1.22a.17.17,0,0,1,.17-.17.16.16,0,0,1,.11.05A.17.17,0,0,1,46,1.22Z" style="fill: #fff" transform="translate(-0.55)"/>
      <path d="M46.69,1.49V1.06h1.63v.43a.17.17,0,0,1,0,.12.16.16,0,0,1-.11,0A.17.17,0,0,1,48,1.49V1.38h-.32V3.44a.17.17,0,0,1-.16.16.17.17,0,0,1-.12-.05.16.16,0,0,1,0-.11V1.38H47v.11A.14.14,0,0,1,47,1.6a.13.13,0,0,1-.12,0,.13.13,0,0,1-.11,0A.14.14,0,0,1,46.69,1.49Z" style="fill: #fff" transform="translate(-0.55)"/>
      <path d="M49.22,3.27h.49V1.37h-.49a.15.15,0,0,1-.11,0,.17.17,0,0,1,0-.12.17.17,0,0,1,.16-.16H50V3.27h.33V2.6a.15.15,0,0,1,0-.11.17.17,0,0,1,.12-.05.17.17,0,0,1,.16.16v.83a.17.17,0,0,1,0,.12.15.15,0,0,1-.11,0h-1.3a.16.16,0,0,1-.12,0,.19.19,0,0,1,0-.12.15.15,0,0,1,0-.11A.17.17,0,0,1,49.22,3.27Z" style="fill: #fff" transform="translate(-0.55)"/>
    </g>
    <g>
      <path d="M29.42,1.05h.64a.46.46,0,0,1,.24.08.44.44,0,0,1,.17.19l.32.65a.74.74,0,0,1,.09.36.8.8,0,0,1-.09.36l-.32.64A.53.53,0,0,1,30,3.6h-.61a.17.17,0,0,1-.12-.05.15.15,0,0,1,0-.11.16.16,0,0,1,0-.12.17.17,0,0,1,.12,0h.17V1.38h-.17a.16.16,0,0,1-.11,0,.17.17,0,0,1,0-.12.17.17,0,0,1,.16-.16Zm.49.33v1.9H30a.17.17,0,0,0,.16-.11l.32-.63a.48.48,0,0,0,.06-.21.46.46,0,0,0,0-.2l-.33-.65a.17.17,0,0,0-.17-.1Z" style="fill: #fff" transform="translate(-0.55)"/>
      <path d="M33.09,1.38H32v.78h.49a.17.17,0,0,1,.16.16.17.17,0,0,1,0,.12.16.16,0,0,1-.11.05H32v.79H33.1a.15.15,0,0,1,.11,0,.17.17,0,0,1,0,.12.16.16,0,0,1,0,.11.17.17,0,0,1-.12.05H31.63V1.05h1.46a.17.17,0,0,1,.17.17.16.16,0,0,1,0,.11A.17.17,0,0,1,33.09,1.38Z" style="fill: #fff" transform="translate(-0.55)"/>
      <path d="M35.63,1.22V3.6h-.44l-.86-2V3.44a.17.17,0,0,1-.16.16.17.17,0,0,1-.12-.05.15.15,0,0,1,0-.11V1.05h.42l.87,2V1.22a.17.17,0,0,1,.17-.17.16.16,0,0,1,.11.05A.17.17,0,0,1,35.63,1.22Z" style="fill: #fff" transform="translate(-0.55)"/>
    </g>
    <g>
      <path d="M56.4,1.05h1.31a.17.17,0,0,1,.16.16.17.17,0,0,1,0,.12.16.16,0,0,1-.11,0h-.49v1.9h.49a.15.15,0,0,1,.11,0,.17.17,0,0,1,0,.12.17.17,0,0,1-.16.16H56.4a.17.17,0,0,1-.16-.16.17.17,0,0,1,0-.12.15.15,0,0,1,.11,0h.5V1.38h-.5a.17.17,0,0,1-.16-.16.17.17,0,0,1,0-.12A.16.16,0,0,1,56.4,1.05Z" style="fill: #fff" transform="translate(-0.55)"/>
      <path d="M60.24,1.22V3.6h-.43l-.87-2V3.44a.17.17,0,0,1-.16.16.18.18,0,0,1-.12-.05.15.15,0,0,1,0-.11V1.05H59l.87,2V1.22a.17.17,0,0,1,.17-.17.16.16,0,0,1,.11.05A.17.17,0,0,1,60.24,1.22Z" style="fill: #fff" transform="translate(-0.55)"/>
      <path d="M61,1.49V1.06h1.63v.43a.17.17,0,0,1,0,.12.16.16,0,0,1-.11,0,.18.18,0,0,1-.12,0,.17.17,0,0,1,0-.12V1.38H62V3.44a.17.17,0,0,1-.16.16.17.17,0,0,1-.12-.05.16.16,0,0,1,0-.11V1.38h-.32v.11a.14.14,0,0,1-.05.11.13.13,0,0,1-.11,0,.13.13,0,0,1-.12,0A.14.14,0,0,1,61,1.49Z" style="fill: #fff" transform="translate(-0.55)"/>
      <path d="M64,2.05V2l-.34-.48v2a.15.15,0,0,1,0,.11.17.17,0,0,1-.12.05.17.17,0,0,1-.16-.16V1.05h.42l.39.58.41-.58H65V3.44a.17.17,0,0,1-.16.16.17.17,0,0,1-.12-.05.16.16,0,0,1,0-.11V1.5L64.33,2v.09a.18.18,0,0,1,0,.12.15.15,0,0,1-.11,0,.17.17,0,0,1-.12,0A.17.17,0,0,1,64,2.05Z" style="fill: #fff" transform="translate(-0.55)"/>
    </g>
    <path d="M79.65,27.92c-1.14,0-1.14,2.16,0,2.16" style="fill: none;stroke: #fff;stroke-linecap: round;stroke-linejoin: round;stroke-width: 0.5px" transform="translate(-0.55)"/>
  </g>
</svg>