<?xml version="1.0" ?><svg height="56.18mm" id="Part" viewBox="0 0 49.5 159.24" width="17.46mm" xmlns="http://www.w3.org/2000/svg">
  <title>Force Sensitive Resistor 0.5</title>
  <g data-name="Part" id="Part-2">
    <g id="square">
      <path d="M51.45,25.58a24.75,24.75,0,1,0-36.18,22l1.11,2.8H36.77l2-3.13A24.74,24.74,0,0,0,51.45,25.58Z" style="fill: #3b373f" transform="translate(-1.95 -0.83)"/>
    </g>
    <g data-name="white square" id="white_square">
      <rect height="103.38" style="fill: #dddee2" width="20.59" x="14.3" y="49.5"/>
    </g>
    <g id="lines">
      <rect height="96.7" style="fill: #b5a59e" width="4.25" x="18.99" y="44.42"/>
      <rect height="96.7" style="fill: #b5a59e" width="4.25" x="26.01" y="44.42"/>
    </g>
    <g data-name="Layer 9" id="Layer_9">
      <ellipse cx="24.55" cy="25.07" rx="20.75" ry="20.41" style="fill: #5d565a"/>
    </g>
    <g data-name="ellipse yellow" id="ellipse_yellow">
      <g>
        <line style="fill: none;stroke: #b9afa9;stroke-linecap: round;stroke-miterlimit: 10;stroke-width: 0.75px" x1="27.38" x2="15.47" y1="8" y2="8"/>
        <line style="fill: none;stroke: #b9afa9;stroke-linecap: round;stroke-miterlimit: 10;stroke-width: 0.75px" x1="18.13" x2="35.55" y1="9.25" y2="9.25"/>
        <line style="fill: none;stroke: #b9afa9;stroke-linecap: round;stroke-miterlimit: 10;stroke-width: 0.75px" x1="33.55" x2="11.63" y1="10.75" y2="10.75"/>
        <line style="fill: none;stroke: #b9afa9;stroke-linecap: round;stroke-miterlimit: 10;stroke-width: 0.75px" x1="13.55" x2="38.8" y1="12" y2="12"/>
        <line style="fill: none;stroke: #b9afa9;stroke-linecap: round;stroke-miterlimit: 10;stroke-width: 0.75px" x1="36.88" x2="9.05" y1="13.5" y2="13.5"/>
        <line style="fill: none;stroke: #b9afa9;stroke-linecap: round;stroke-miterlimit: 10;stroke-width: 0.75px" x1="11.3" x2="41.22" y1="14.83" y2="14.83"/>
        <line style="fill: none;stroke: #b9afa9;stroke-linecap: round;stroke-miterlimit: 10;stroke-width: 0.75px" x1="38.8" x2="6.8" y1="16.25" y2="16.25"/>
        <line style="fill: none;stroke: #b9afa9;stroke-linecap: round;stroke-miterlimit: 10;stroke-width: 0.75px" x1="9.05" x2="42.86" y1="17.54" y2="17.54"/>
        <line style="fill: none;stroke: #b9afa9;stroke-linecap: round;stroke-miterlimit: 10;stroke-width: 0.75px" x1="40.36" x2="5.8" y1="18.98" y2="18.98"/>
        <line style="fill: none;stroke: #b9afa9;stroke-linecap: round;stroke-miterlimit: 10;stroke-width: 0.75px" x1="8.3" x2="43.36" y1="20.17" y2="20.17"/>
        <line style="fill: none;stroke: #b9afa9;stroke-linecap: round;stroke-miterlimit: 10;stroke-width: 0.75px" x1="21.75" x2="33.66" y1="42.08" y2="42.08"/>
        <line style="fill: none;stroke: #b9afa9;stroke-linecap: round;stroke-miterlimit: 10;stroke-width: 0.75px" x1="31" x2="13.58" y1="40.83" y2="40.83"/>
        <line style="fill: none;stroke: #b9afa9;stroke-linecap: round;stroke-miterlimit: 10;stroke-width: 0.75px" x1="15.58" x2="37.5" y1="39.33" y2="39.33"/>
        <line style="fill: none;stroke: #b9afa9;stroke-linecap: round;stroke-miterlimit: 10;stroke-width: 0.75px" x1="35.58" x2="10.33" y1="38.08" y2="38.08"/>
        <line style="fill: none;stroke: #b9afa9;stroke-linecap: round;stroke-miterlimit: 10;stroke-width: 0.75px" x1="12.25" x2="40.08" y1="36.58" y2="36.58"/>
        <line style="fill: none;stroke: #b9afa9;stroke-linecap: round;stroke-miterlimit: 10;stroke-width: 0.75px" x1="37.83" x2="7.91" y1="35.25" y2="35.25"/>
        <line style="fill: none;stroke: #b9afa9;stroke-linecap: round;stroke-miterlimit: 10;stroke-width: 0.75px" x1="10.33" x2="42.33" y1="33.83" y2="33.83"/>
        <line style="fill: none;stroke: #b9afa9;stroke-linecap: round;stroke-miterlimit: 10;stroke-width: 0.75px" x1="40.08" x2="6.27" y1="32.54" y2="32.54"/>
        <line style="fill: none;stroke: #b9afa9;stroke-linecap: round;stroke-miterlimit: 10;stroke-width: 0.75px" x1="8.77" x2="43.33" y1="31.1" y2="31.1"/>
        <line style="fill: none;stroke: #b9afa9;stroke-linecap: round;stroke-miterlimit: 10;stroke-width: 0.75px" x1="40.83" x2="5.77" y1="29.92" y2="29.92"/>
        <line style="fill: none;stroke: #b9afa9;stroke-linecap: round;stroke-miterlimit: 10;stroke-width: 0.75px" x1="41.22" x2="5.11" y1="21.67" y2="21.67"/>
        <line style="fill: none;stroke: #b9afa9;stroke-linecap: round;stroke-miterlimit: 10;stroke-width: 0.75px" x1="7.67" x2="44.05" y1="22.85" y2="22.85"/>
        <line style="fill: none;stroke: #b9afa9;stroke-linecap: round;stroke-miterlimit: 10;stroke-width: 0.75px" x1="41.67" x2="5.11" y1="24.54" y2="24.54"/>
        <line style="fill: none;stroke: #b9afa9;stroke-linecap: round;stroke-miterlimit: 10;stroke-width: 0.75px" x1="7.67" x2="44.05" y1="25.73" y2="25.73"/>
        <line style="fill: none;stroke: #b9afa9;stroke-linecap: round;stroke-miterlimit: 10;stroke-width: 0.75px" x1="41.22" x2="5.11" y1="27.17" y2="27.17"/>
        <line style="fill: none;stroke: #b9afa9;stroke-linecap: round;stroke-miterlimit: 10;stroke-width: 0.75px" x1="7.91" x2="44.05" y1="28.42" y2="28.42"/>
      </g>
    </g>
    <g data-name="ellipse orange" id="ellipse_orange">
      <g>
        <path d="M22.88,8.19V7.76A18.57,18.57,0,0,0,7.63,25.91a18.64,18.64,0,0,0,18.8,18.48,18.64,18.64,0,0,0,18.8-18.48A18.57,18.57,0,0,0,30.06,7.78v.41Z" style="fill: none" transform="translate(-1.95 -0.83)"/>
        <path d="M30.06,5.82v2A18.57,18.57,0,0,1,45.23,25.91a18.64,18.64,0,0,1-18.8,18.48A18.64,18.64,0,0,1,7.63,25.91,18.57,18.57,0,0,1,22.88,7.76V5.83A20.5,20.5,0,0,0,5.75,25.91,20.58,20.58,0,0,0,26.5,46.31,20.58,20.58,0,0,0,47.25,25.91,20.5,20.5,0,0,0,30.06,5.82Z" style="fill: #bbb0a6" transform="translate(-1.95 -0.83)"/>
      </g>
    </g>
    <g id="VECTOE">
      <polygon points="26.3 155.17 30.22 155.17 30.22 156.42 29 156.42 29 159.24 27.36 159.24 27.36 156.4 26.3 156.4 26.3 155.17" style="fill: #dfd6db"/>
      <polygon points="19.38 155.17 23.3 155.17 23.3 156.42 22.09 156.42 22.09 159.24 20.45 159.24 20.45 156.4 19.38 156.4 19.38 155.17" style="fill: #dfd6db"/>
      <path d="M24.4,141.52V140.3H22.18v1.22c-1.18-.38-1.27.77-1.17,2.19V156h4.56V143.72C25.67,142.29,25.58,141.14,24.4,141.52ZM24,151.46a.73.73,0,0,1-1.44,0v-8.9a.73.73,0,0,1,1.44,0Z" style="fill: #decec5" transform="translate(-1.95 -0.83)"/>
      <path d="M21,150.29a.54.54,0,0,1-.56-.5v-7.34a.57.57,0,0,1,1.13,0v7.34A.54.54,0,0,1,21,150.29Z" style="fill: #ffe4af" transform="translate(-1.95 -0.83)"/>
      <path d="M31.19,141.52V140.3H29v1.22c-1.18-.38-1.27.77-1.17,2.19V156h4.56V143.72C32.46,142.29,32.37,141.14,31.19,141.52Zm-.39,9.94a.73.73,0,0,1-1.44,0v-8.9a.73.73,0,0,1,1.44,0Z" style="fill: #decec5" transform="translate(-1.95 -0.83)"/>
      <path d="M27.78,150.29a.53.53,0,0,1-.56-.5v-7.34a.57.57,0,0,1,1.13,0v7.34A.54.54,0,0,1,27.78,150.29Z" style="fill: #ffe4af" transform="translate(-1.95 -0.83)"/>
      <path d="M32.07,151.81a.52.52,0,0,1-.56-.48v-7a.57.57,0,0,1,1.13,0v7A.52.52,0,0,1,32.07,151.81Z" style="fill: #ffe4af" transform="translate(-1.95 -0.83)"/>
      <path d="M25.28,151.81a.52.52,0,0,1-.56-.48v-7a.57.57,0,0,1,1.13,0v7A.52.52,0,0,1,25.28,151.81Z" style="fill: #ffe4af" transform="translate(-1.95 -0.83)"/>
    </g>
    <g id="points">
      <rect height="1.46" style="fill: #beb5ad" width="2.71" x="14.3" y="68.12"/>
      <rect height="1.46" style="fill: #beb5ad" width="2.71" x="32.19" y="68.12"/>
      <rect height="1.34" style="fill: #c0aea2" width="4.12" x="14.43" y="112.89"/>
      <rect height="1.34" style="fill: #c0aea2" width="4.12" x="14.43" y="115.65"/>
      <rect height="1.34" style="fill: #c0aea2" width="4.12" x="14.43" y="118.41"/>
      <rect height="1.34" style="fill: #c0aea2" width="4.12" x="14.43" y="121.17"/>
    </g>
    <g id="text">
      <g>
        <path d="M33.38,96.74v.55c0,.1-.07.19-.25.18s-.25-.09-.25-.19l0-1.48c0-.1.07-.19.25-.18s.25.09.25.19v.55l2.89.05v-.55c0-.1.07-.19.25-.18s.25.09.25.19l0,1.48c0,.1-.07.19-.25.18s-.25-.09-.25-.19v-.55Z" style="fill: #c0aea2" transform="translate(-1.95 -0.83)"/>
        <path d="M33.37,100.08c0,.1-.07.19-.25.18s-.25-.09-.25-.19l0-1.67,3.89.07,0,1.67c0,.1-.07.19-.25.18s-.25-.09-.25-.19l0-1.29-1.2,0v.55c0,.1-.07.19-.25.18s-.25-.09-.25-.19v-.55l-1.2,0Z" style="fill: #c0aea2" transform="translate(-1.95 -0.83)"/>
        <path d="M36.79,101.26l0,1.67c0,.1-.07.19-.25.18s-.25-.09-.25-.19l0-1.29h-.77v.92c0,.1-.07.19-.25.18s-.25-.09-.25-.19l0-.92-1.87,0c-.16,0-.25-.06-.25-.19s.09-.19.25-.18Z" style="fill: #c0aea2" transform="translate(-1.95 -0.83)"/>
        <path d="M33.85,105.72a.78.78,0,0,1-.42.12c-.37,0-.56-.22-.56-.48v-.83a.47.47,0,0,1,.17-.38.72.72,0,0,1,.47-.17c.16,0,.3.07.3.2s-.12.17-.26.17-.17.06-.17.16v.81s0,.12.06.13a.47.47,0,0,0,.15-.06l2.23-1.25a.71.71,0,0,1,.41-.12.62.62,0,0,1,.48.21.41.41,0,0,1,.08.31v.8a.45.45,0,0,1-.17.37.78.78,0,0,1-.48.17c-.16,0-.29-.07-.29-.2s.1-.18.24-.18.2-.06.2-.18v-.8s0-.13-.07-.13a.36.36,0,0,0-.14.05Z" style="fill: #c0aea2" transform="translate(-1.95 -0.83)"/>
        <path d="M33.14,107.14c-.16,0-.25-.06-.25-.19s.09-.19.25-.18l3.64.07,0,1.26a.66.66,0,0,1-.74.58h-.34a.63.63,0,0,1-.7-.61v-.34l-1.62.81a.59.59,0,0,1-.27.09.21.21,0,0,1-.23-.2c0-.08.06-.12.14-.16l2-1v-.09Zm2.36,0V108c0,.11,0,.27.21.27H36c.2,0,.23-.15.23-.26v-.84Z" style="fill: #c0aea2" transform="translate(-1.95 -0.83)"/>
        <path d="M33.53,110.36c0-.08,0-.14.1-.19a.4.4,0,0,1,.23,0h.28a.41.41,0,0,1,.22,0c.09.05.09.11.09.2v.27c0,.08,0,.14-.1.19a.41.41,0,0,1-.23,0h-.28a.4.4,0,0,1-.22,0c-.09-.05-.09-.11-.09-.2Z" style="fill: #c0aea2" transform="translate(-1.95 -0.83)"/>
        <path d="M32.88,113.58a.65.65,0,0,1,.49-.64l.94-.38a1.27,1.27,0,0,1,.53-.11,1.25,1.25,0,0,1,.55.13l.92.42a.65.65,0,0,1,.47.68v.74a.22.22,0,0,1-.25.21.22.22,0,0,1-.25-.22v-.73c0-.19,0-.22-.21-.3l-.86-.39a.87.87,0,0,0-.38-.1.77.77,0,0,0-.35.08l-.87.35c-.21.08-.22.13-.23.32v.71a.22.22,0,0,1-.25.21.22.22,0,0,1-.25-.22Z" style="fill: #c0aea2" transform="translate(-1.95 -0.83)"/>
        <path d="M35.35,117.71a1.28,1.28,0,0,1-.56.1,1.36,1.36,0,0,1-.59-.15l-.91-.42a.55.55,0,0,1,0-1.06l.93-.38a1.37,1.37,0,0,1,.6-.13,1.27,1.27,0,0,1,.55.12l1,.45a.54.54,0,0,1,0,1.05Zm.77-.8c.08,0,.15-.05.15-.14s-.07-.11-.15-.15l-.9-.41a.86.86,0,0,0-.4-.11.75.75,0,0,0-.33.07l-1,.4c-.07,0-.15.06-.15.14s.08.12.15.15l.94.43a.76.76,0,0,0,.33.08.87.87,0,0,0,.41-.09Z" style="fill: #c0aea2" transform="translate(-1.95 -0.83)"/>
        <path d="M36.77,120.52v.54L33.12,121c-.16,0-.25-.07-.25-.22s.09-.22.25-.21l3,.05h0l-.7-.43H35.3c-.16,0-.3-.06-.3-.22s.15-.21.3-.21h.08l.71-.4h0l-3-.05c-.16,0-.25-.07-.25-.22s.09-.22.25-.21l3.64.07v.54l-.89.51Z" style="fill: #c0aea2" transform="translate(-1.95 -0.83)"/>
      </g>
      <path d="M16.88,107.68l1,0c.15,0,.25.05.25.19s-.11.19-.25.18l-1.26,0c-.18,0-.25-.1-.25-.19l0-1.48c0-.1.07-.19.25-.18s.25.1.25.19v.55l2.89.05v-.55c0-.1.07-.19.25-.18s.25.09.25.19v.93l-3.39-.06Z" style="fill: #c0aea2" transform="translate(-1.95 -0.83)"/>
      <path d="M18.15,112l1.45,0c.13,0,.25,0,.25.19s-.13.19-.25.18l-1.45,0c0,.1-.07.19-.25.18s-.25-.09-.25-.19l-1,0c-.16,0-.25-.06-.25-.19s.09-.19.25-.18l1,0,0-1.1,2.37,0c.13,0,.25,0,.25.19s-.13.19-.25.18l-1.87,0Z" style="fill: #c0aea2" transform="translate(-1.95 -0.83)"/>
    </g>
  </g>
  <g id="Connectors">
    <rect data-cir-type="male" height="1.64" id="circuitoCon_1" style="fill: none" width="1.64" x="20.45" y="157.6"/>
    <rect data-cir-type="male" height="1.64" id="circuitoCon_2" style="fill: none" width="1.64" x="27.37" y="157.6"/>
  </g>
</svg>