<?xml version="1.0" ?><svg height="28.31mm" viewBox="0 0 199.13 80.26" width="70.25mm" xmlns="http://www.w3.org/2000/svg" xmlns:xlink="http://www.w3.org/1999/xlink">
  <defs>
    <linearGradient gradientTransform="matrix(1, 0, 0, -1, -358.85, 378.59)" gradientUnits="userSpaceOnUse" id="linear-gradient" x1="372.52" x2="372.52" y1="308.63" y2="301.19">
      <stop offset="0" stop-color="#999"/>
      <stop offset="1" stop-color="#f2f2f2"/>
    </linearGradient>
    <linearGradient gradientTransform="matrix(1, 0, 0, -1, -365.82, 371.63)" id="linear-gradient-2" x1="379.49" x2="379.49" xlink:href="#linear-gradient" y1="308.63" y2="301.19"/>
    <linearGradient gradientTransform="matrix(1, 0, 0, -1, -372.79, 364.66)" id="linear-gradient-3" x1="386.45" x2="386.45" xlink:href="#linear-gradient" y1="308.63" y2="301.19"/>
    <linearGradient gradientTransform="matrix(1, 0, 0, -1, -219.37, 11.39)" gradientUnits="userSpaceOnUse" id="linear-gradient-4" x1="374.79" x2="388.58" y1="5.7" y2="5.7">
      <stop offset="0" stop-color="#ae7418"/>
      <stop offset="1" stop-color="#fcc062"/>
    </linearGradient>
    <linearGradient gradientTransform="matrix(1, 0, 0, -1, -205.97, 11.39)" id="linear-gradient-5" x1="374.79" x2="375.18" xlink:href="#linear-gradient-4" y1="5.7" y2="5.7"/>
    <linearGradient gradientTransform="matrix(1, 0, 0, -1, -207.89, 11.39)" id="linear-gradient-6" x1="375.75" x2="376.14" xlink:href="#linear-gradient-4" y1="5.7" y2="5.7"/>
    <linearGradient gradientTransform="matrix(1, 0, 0, -1, -209.8, 11.39)" id="linear-gradient-7" x1="376.7" x2="377.09" xlink:href="#linear-gradient-4" y1="5.7" y2="5.7"/>
    <linearGradient gradientTransform="matrix(1, 0, 0, -1, -211.71, 11.39)" id="linear-gradient-8" x1="377.66" x2="378.05" xlink:href="#linear-gradient-4" y1="5.7" y2="5.7"/>
    <linearGradient gradientTransform="matrix(1, 0, 0, -1, -213.63, 11.39)" id="linear-gradient-9" x1="378.62" x2="379.01" xlink:href="#linear-gradient-4" y1="5.7" y2="5.7"/>
    <linearGradient gradientTransform="matrix(1, 0, 0, -1, -215.54, 11.39)" id="linear-gradient-10" x1="379.58" x2="379.96" xlink:href="#linear-gradient-4" y1="5.7" y2="5.7"/>
    <linearGradient gradientTransform="matrix(1, 0, 0, -1, -217.46, 11.39)" id="linear-gradient-11" x1="380.53" x2="380.92" xlink:href="#linear-gradient-4" y1="5.7" y2="5.7"/>
    <linearGradient id="linear-gradient-12" x1="381.49" x2="381.88" xlink:href="#linear-gradient-4" y1="5.7" y2="5.7"/>
    <linearGradient gradientTransform="matrix(1, 0, 0, -1, -221.29, 11.39)" id="linear-gradient-13" x1="382.45" x2="382.83" xlink:href="#linear-gradient-4" y1="5.7" y2="5.7"/>
    <linearGradient gradientTransform="matrix(1, 0, 0, -1, -223.2, 11.39)" id="linear-gradient-14" x1="383.4" x2="383.79" xlink:href="#linear-gradient-4" y1="5.7" y2="5.7"/>
    <linearGradient gradientTransform="matrix(1, 0, 0, -1, -225.11, 11.39)" id="linear-gradient-15" x1="384.36" x2="384.75" xlink:href="#linear-gradient-4" y1="5.7" y2="5.7"/>
    <linearGradient gradientTransform="matrix(1, 0, 0, -1, -227.03, 11.39)" id="linear-gradient-16" x1="385.32" x2="385.71" xlink:href="#linear-gradient-4" y1="5.7" y2="5.7"/>
    <linearGradient gradientTransform="matrix(1, 0, 0, -1, -228.94, 11.39)" id="linear-gradient-17" x1="386.28" x2="386.66" xlink:href="#linear-gradient-4" y1="5.7" y2="5.7"/>
    <linearGradient gradientTransform="matrix(1, 0, 0, -1, -230.86, 11.39)" id="linear-gradient-18" x1="387.23" x2="387.62" xlink:href="#linear-gradient-4" y1="5.7" y2="5.7"/>
    <linearGradient gradientTransform="matrix(1, 0, 0, -1, -232.77, 11.39)" id="linear-gradient-19" x1="388.19" x2="388.58" xlink:href="#linear-gradient-4" y1="5.7" y2="5.7"/>
    <linearGradient gradientTransform="matrix(1, 0, 0, -1, -180.77, 158.51)" gradientUnits="userSpaceOnUse" id="linear-gradient-20" x1="360.56" x2="364.21" y1="79.25" y2="79.25">
      <stop offset="0" stop-color="#f2f2f2"/>
      <stop offset="0.5" stop-color="#999"/>
      <stop offset="1" stop-color="#f2f2f2"/>
    </linearGradient>
    <linearGradient gradientTransform="matrix(1, 0, 0, -1, -331.71, 158.51)" id="linear-gradient-21" x1="436.03" x2="439.68" xlink:href="#linear-gradient-20" y1="79.25" y2="79.25"/>
    <linearGradient gradientTransform="matrix(1, 0, 0, -1, -256.29, 59.22)" gradientUnits="userSpaceOnUse" id="linear-gradient-22" x1="344.87" x2="455.42" y1="29.61" y2="29.61">
      <stop offset="0" stop-color="#666"/>
      <stop offset="0.05" stop-color="#333"/>
      <stop offset="0.95" stop-color="#333"/>
      <stop offset="1" stop-color="#666"/>
    </linearGradient>
    <linearGradient gradientTransform="matrix(1, 0, 0, -1, -262.44, 30.63)" gradientUnits="userSpaceOnUse" id="linear-gradient-23" x1="393.99" x2="412.45" y1="15.31" y2="15.31">
      <stop offset="0" stop-color="#555355"/>
      <stop offset="0.06" stop-color="#494749"/>
      <stop offset="0.16" stop-color="#3b393c"/>
      <stop offset="0.29" stop-color="#333133"/>
      <stop offset="0.5" stop-color="#302e31"/>
      <stop offset="0.71" stop-color="#333133"/>
      <stop offset="0.84" stop-color="#3b393c"/>
      <stop offset="0.94" stop-color="#494749"/>
      <stop offset="1" stop-color="#555355"/>
    </linearGradient>
    <linearGradient gradientTransform="matrix(1, 0, 0, -1, -219.37, 29.67)" id="linear-gradient-24" x1="363.23" x2="400.14" xlink:href="#linear-gradient-23" y1="14.83" y2="14.83"/>
    <linearGradient gradientTransform="matrix(1, 0, 0, -1, -256.29, 97.89)" id="linear-gradient-25" x1="359.81" x2="440.47" xlink:href="#linear-gradient-22" y1="48.95" y2="48.95"/>
    <linearGradient gradientTransform="matrix(1, 0, 0, -1, -256.29, 52.24)" id="linear-gradient-26" x1="359.81" x2="440.47" xlink:href="#linear-gradient-22" y1="26.12" y2="26.12"/>
  </defs>
  <title>Servo - Generic Metal Gear (Micro Size)</title>
  <g data-name="Layer 3" id="Layer_3">
    <g>
      <g>
        <g data-name="&lt;Group&gt;" id="_Group_">
          <polyline data-name="&lt;Path&gt;" id="_Path_" points="23.05 64.42 122.38 64.73 122.38 60.12 23.05 60.12" style="fill: #ffe000"/>
        </g>
        <g data-name="&lt;Group&gt;" id="_Group_2">
          <polyline data-name="&lt;Path&gt;" id="_Path_2" points="23.05 68.72 126.68 69.02 126.68 64.42 23.05 64.42" style="fill: #ff8135"/>
        </g>
        <g data-name="&lt;Group&gt;" id="_Group_3">
          <polyline data-name="&lt;Path&gt;" id="_Path_3" points="23.05 73.32 130.98 73.32 130.98 68.72 23.05 68.72" style="fill: #b2876f"/>
        </g>
      </g>
      <g>
        <rect data-name="&lt;Rectangle&gt;" height="37.48" id="_Rectangle_" style="fill: #333" transform="translate(-47.98 85.46) rotate(-90)" width="23.47" x="7" y="47.98"/>
        <g data-name="&lt;Group&gt;" id="_Group_4">
          <rect data-name="&lt;Rectangle&gt;" height="14.88" id="_Rectangle_2" style="fill: #1a1a1a" transform="translate(-63.74 83.63) rotate(-90)" width="2.89" x="8.5" y="66.25"/>
          <rect data-name="&lt;Rectangle&gt;" height="7.44" id="_Rectangle_3" style="fill: url(#linear-gradient)" transform="translate(-60.02 87.35) rotate(-90)" width="2.89" x="12.22" y="69.97"/>
          <rect data-name="&lt;Rectangle&gt;" height="14.88" id="_Rectangle_4" style="fill: #1a1a1a" transform="translate(-56.78 76.66) rotate(-90)" width="2.89" x="8.5" y="59.28"/>
          <rect data-name="&lt;Rectangle&gt;" height="7.44" id="_Rectangle_5" style="fill: url(#linear-gradient-2)" transform="translate(-53.06 80.38) rotate(-90)" width="2.89" x="12.22" y="63"/>
          <rect data-name="&lt;Rectangle&gt;" height="14.88" id="_Rectangle_6" style="fill: #1a1a1a" transform="translate(-49.81 69.7) rotate(-90)" width="2.89" x="8.5" y="52.31"/>
          <rect data-name="&lt;Rectangle&gt;" height="7.44" id="_Rectangle_7" style="fill: url(#linear-gradient-3)" transform="translate(-46.09 73.42) rotate(-90)" width="2.89" x="12.22" y="56.03"/>
        </g>
      </g>
      <rect height="2.89" id="circuitoCon_Sig" style="fill: none" width="2.89" y="58.31"/>
      <rect height="2.89" id="circuitoCon_Vin" style="fill: none" width="2.89" y="65.27"/>
      <rect height="2.89" id="circuitoCon_0" style="fill: none" width="2.89" y="72.24"/>
    </g>
  </g>
  <g data-name="Layer 1" id="Layer_1">
    <g data-name="&lt;Group&gt;" id="_Group_5">
      <rect data-name="&lt;Rectangle&gt;" height="11.39" id="_Rectangle_8" style="fill: url(#linear-gradient-4)" transform="translate(324.63 11.39) rotate(-180)" width="13.79" x="155.42"/>
      <rect data-name="&lt;Rectangle&gt;" height="11.39" id="_Rectangle_9" style="fill: url(#linear-gradient-5)" transform="translate(338.02 11.39) rotate(-180)" width="0.39" x="168.82"/>
      <rect data-name="&lt;Rectangle&gt;" height="11.39" id="_Rectangle_10" style="fill: url(#linear-gradient-6)" transform="translate(336.11 11.39) rotate(-180)" width="0.39" x="167.86"/>
      <rect data-name="&lt;Rectangle&gt;" height="11.39" id="_Rectangle_11" style="fill: url(#linear-gradient-7)" transform="translate(334.2 11.39) rotate(-180)" width="0.39" x="166.9"/>
      <rect data-name="&lt;Rectangle&gt;" height="11.39" id="_Rectangle_12" style="fill: url(#linear-gradient-8)" transform="translate(332.28 11.39) rotate(-180)" width="0.39" x="165.95"/>
      <rect data-name="&lt;Rectangle&gt;" height="11.39" id="_Rectangle_13" style="fill: url(#linear-gradient-9)" transform="translate(330.37 11.39) rotate(-180)" width="0.39" x="164.99"/>
      <rect data-name="&lt;Rectangle&gt;" height="11.39" id="_Rectangle_14" style="fill: url(#linear-gradient-10)" transform="translate(328.45 11.39) rotate(-180)" width="0.39" x="164.03"/>
      <rect data-name="&lt;Rectangle&gt;" height="11.39" id="_Rectangle_15" style="fill: url(#linear-gradient-11)" transform="translate(326.54 11.39) rotate(-180)" width="0.39" x="163.08"/>
      <rect data-name="&lt;Rectangle&gt;" height="11.39" id="_Rectangle_16" style="fill: url(#linear-gradient-12)" transform="translate(324.63 11.39) rotate(-180)" width="0.39" x="162.12"/>
      <rect data-name="&lt;Rectangle&gt;" height="11.39" id="_Rectangle_17" style="fill: url(#linear-gradient-13)" transform="translate(322.71 11.39) rotate(-180)" width="0.39" x="161.16"/>
      <rect data-name="&lt;Rectangle&gt;" height="11.39" id="_Rectangle_18" style="fill: url(#linear-gradient-14)" transform="translate(320.8 11.39) rotate(-180)" width="0.39" x="160.2"/>
      <rect data-name="&lt;Rectangle&gt;" height="11.39" id="_Rectangle_19" style="fill: url(#linear-gradient-15)" transform="translate(318.88 11.39) rotate(-180)" width="0.39" x="159.25"/>
      <rect data-name="&lt;Rectangle&gt;" height="11.39" id="_Rectangle_20" style="fill: url(#linear-gradient-16)" transform="translate(316.97 11.39) rotate(-180)" width="0.39" x="158.29"/>
      <rect data-name="&lt;Rectangle&gt;" height="11.39" id="_Rectangle_21" style="fill: url(#linear-gradient-17)" transform="translate(315.05 11.39) rotate(-180)" width="0.39" x="157.33"/>
      <rect data-name="&lt;Rectangle&gt;" height="11.39" id="_Rectangle_22" style="fill: url(#linear-gradient-18)" transform="translate(313.14 11.39) rotate(-180)" width="0.39" x="156.38"/>
      <rect data-name="&lt;Rectangle&gt;" height="11.39" id="_Rectangle_23" style="fill: url(#linear-gradient-19)" transform="translate(311.23 11.39) rotate(-180)" width="0.39" x="155.42"/>
    </g>
    <path d="M181.07,78.62h1.09a1.28,1.28,0,0,1,1.28,1.28v0a0,0,0,0,1,0,0h-3.65a0,0,0,0,1,0,0v0a1.28,1.28,0,0,1,1.28-1.28Z" data-name="&lt;Rectangle&gt;" id="_Rectangle_24" style="fill: url(#linear-gradient-20)" transform="translate(363.23 158.51) rotate(-180)"/>
    <path d="M105.6,78.62h1.09A1.28,1.28,0,0,1,108,79.89v0a0,0,0,0,1,0,0h-3.65a0,0,0,0,1,0,0v0A1.28,1.28,0,0,1,105.6,78.62Z" data-name="&lt;Rectangle&gt;" id="_Rectangle_25" style="fill: url(#linear-gradient-21)" transform="translate(212.29 158.51) rotate(180)"/>
    <path d="M112.51,76.7H175.2a3.55,3.55,0,0,1,3.55,3.55v0a0,0,0,0,1,0,0H109a0,0,0,0,1,0,0v0A3.55,3.55,0,0,1,112.51,76.7Z" data-name="&lt;Rectangle&gt;" id="_Rectangle_26" style="fill: #242224" transform="translate(287.71 156.96) rotate(-180)"/>
    <rect data-name="&lt;Rectangle&gt;" height="6.98" id="_Rectangle_27" style="fill: url(#linear-gradient-22)" transform="translate(287.71 59.22) rotate(-180)" width="110.55" x="88.58" y="26.12"/>
    <path d="M131.55,9H150a0,0,0,0,1,0,0v8.09a4.49,4.49,0,0,1-4.49,4.49h-14a0,0,0,0,1,0,0V9A0,0,0,0,1,131.55,9Z" data-name="&lt;Rectangle&gt;" id="_Rectangle_28" style="fill: url(#linear-gradient-23)" transform="translate(281.56 30.63) rotate(-180)"/>
    <path d="M143.86,8.07h36.91a0,0,0,0,1,0,0v9a4.49,4.49,0,0,1-4.49,4.49H148.35a4.49,4.49,0,0,1-4.49-4.49v-9A0,0,0,0,1,143.86,8.07Z" data-name="&lt;Rectangle&gt;" id="_Rectangle_29" style="fill: url(#linear-gradient-24)" transform="translate(324.63 29.67) rotate(-180)"/>
    <rect data-name="&lt;Rectangle&gt;" height="59.61" id="_Rectangle_30" rx="1.71" ry="1.71" style="fill: url(#linear-gradient-25)" transform="translate(287.71 97.89) rotate(-180)" width="80.67" x="103.52" y="19.14"/>
    <rect data-name="&lt;Rectangle&gt;" height="13.96" id="_Rectangle_31" rx="0.83" ry="0.83" style="fill: url(#linear-gradient-26)" transform="translate(287.71 52.24) rotate(-180)" width="80.67" x="103.52" y="19.14"/>
    <rect data-name="&lt;Rectangle&gt;" height="0.55" id="_Rectangle_32" style="fill: #201e20" transform="translate(287.71 133.44) rotate(-180)" width="80.67" x="103.52" y="66.45"/>
    <rect data-name="&lt;Rectangle&gt;" height="0.55" id="_Rectangle_33" style="fill: #201e20" transform="translate(287.71 65.63) rotate(-180)" width="80.67" x="103.52" y="32.54"/>
    <path d="M108,73.46" data-name="&lt;Path&gt;" id="_Path_4" style="fill: none;stroke: #c69c6d;stroke-miterlimit: 10;stroke-width: 15px"/>
  </g>
  <g id="Connectors">
    <rect height="26.96" rx="2.83" ry="2.83" style="fill: #1e1e1e" width="48.69" x="119.36" y="36.41"/>
    <g>
      <path d="M128.39,40.11a3.27,3.27,0,0,1,1.2,1.31,3.75,3.75,0,0,1,0,3.38,3.27,3.27,0,0,1-1.2,1.31,3.55,3.55,0,0,1-1.94.51h-2a.45.45,0,0,1-.45-.45v-6.1a.45.45,0,0,1,.13-.33.43.43,0,0,1,.32-.14h2A3.56,3.56,0,0,1,128.39,40.11Zm-.61,5.32a2.4,2.4,0,0,0,1-.93,3,3,0,0,0,0-2.76,2.4,2.4,0,0,0-1-.93,3,3,0,0,0-1.45-.34h-1.45v5.31h1.45A3,3,0,0,0,127.78,45.42Z" style="fill: #fff"/>
      <path d="M137.16,42.91a.47.47,0,0,1,.14.34v2.28a.69.69,0,0,1-.11.38.65.65,0,0,1-.28.25,5.09,5.09,0,0,1-2.3.56,3.65,3.65,0,0,1-1.84-.46A3.18,3.18,0,0,1,131.53,45a3.86,3.86,0,0,1-.44-1.86,3.79,3.79,0,0,1,.46-1.89A3.28,3.28,0,0,1,132.81,40a3.54,3.54,0,0,1,1.77-.45,4.46,4.46,0,0,1,1.37.19,5.05,5.05,0,0,1,1.13.53.35.35,0,0,1,.14.14.42.42,0,0,1,.06.22.4.4,0,0,1-.42.41.46.46,0,0,1-.21-.05,4.2,4.2,0,0,0-.94-.42,3.58,3.58,0,0,0-1-.14,2.92,2.92,0,0,0-1.38.32,2.31,2.31,0,0,0-1,.94,3.24,3.24,0,0,0,0,2.87,2.4,2.4,0,0,0,.94,1,2.88,2.88,0,0,0,1.46.36,3.62,3.62,0,0,0,1.76-.44V43.59h-1.66a.41.41,0,0,1,0-.82h2A.46.46,0,0,1,137.16,42.91Z" style="fill: #fff"/>
      <path d="M139.75,42.08a1.61,1.61,0,0,0,.59.35,9.26,9.26,0,0,0,1,.27,10,10,0,0,1,1.28.38,2.09,2.09,0,0,1,.83.59,1.6,1.6,0,0,1,.35,1.09,1.69,1.69,0,0,1-.32,1,2.11,2.11,0,0,1-.9.7,3.38,3.38,0,0,1-1.35.25,6,6,0,0,1-2.39-.48.46.46,0,0,1-.2-.17.43.43,0,0,1,0-.54.39.39,0,0,1,.3-.13.46.46,0,0,1,.19,0,4.81,4.81,0,0,0,2,.41q1.76,0,1.76-1.16a.64.64,0,0,0-.23-.5,1.64,1.64,0,0,0-.56-.32q-.33-.12-.94-.28a12,12,0,0,1-1.32-.41,2.28,2.28,0,0,1-.86-.59,1.48,1.48,0,0,1-.36-1,1.88,1.88,0,0,1,.3-1,2.08,2.08,0,0,1,.89-.74,3.3,3.3,0,0,1,1.41-.28,5.73,5.73,0,0,1,2,.33.39.39,0,0,1,.28.4.44.44,0,0,1-.11.29.36.36,0,0,1-.29.13.46.46,0,0,1-.16,0,4.9,4.9,0,0,0-1.62-.27,2.47,2.47,0,0,0-1.29.3.94.94,0,0,0-.5.84A.78.78,0,0,0,139.75,42.08Z" style="fill: #fff"/>
      <path d="M149.2,45.62a.36.36,0,0,1,.12.28.43.43,0,0,1-.26.37,3.14,3.14,0,0,1-1.76.44,2.57,2.57,0,0,1-1.91-.7,2.68,2.68,0,0,1-.69-2,3.27,3.27,0,0,1,.26-1.32,2.23,2.23,0,0,1,.8-1,2.31,2.31,0,0,1,1.34-.37,2.34,2.34,0,0,1,1.29.35,2.24,2.24,0,0,1,.82.92,2.84,2.84,0,0,1,.28,1.26.44.44,0,0,1-.46.45h-3.41a1.65,1.65,0,0,0,.52,1.1,1.8,1.8,0,0,0,1.24.39,3,3,0,0,0,.74-.08,3.08,3.08,0,0,0,.62-.23.42.42,0,0,1,.46.07Zm-2.77-3.3a1.35,1.35,0,0,0-.55.49,1.64,1.64,0,0,0-.25.82h3a1.61,1.61,0,0,0-.26-.82,1.38,1.38,0,0,0-.56-.49,1.53,1.53,0,0,0-1.35,0Z" style="fill: #fff"/>
      <path d="M153.58,41.52a.45.45,0,0,1,.13.32.4.4,0,0,1-.13.31.47.47,0,0,1-.33.12h0a1.71,1.71,0,0,0-.88.24,2,2,0,0,0-.67.65v3.06a.43.43,0,0,1-.14.32.45.45,0,0,1-.33.13.45.45,0,0,1-.45-.45V41.9a.45.45,0,0,1,.13-.33.43.43,0,0,1,.32-.14.46.46,0,0,1,.46.46v.43a2,2,0,0,1,1.58-.94h.05A.42.42,0,0,1,153.58,41.52Z" style="fill: #fff"/>
      <path d="M158.75,41.57a.45.45,0,0,1,.13.33.57.57,0,0,1,0,.21l-1.75,4.18a.63.63,0,0,1-.22.27.57.57,0,0,1-.33.11h-.1a.57.57,0,0,1-.33-.11.63.63,0,0,1-.22-.27l-1.75-4.18a.56.56,0,0,1-.05-.21.45.45,0,0,1,.13-.33.43.43,0,0,1,.32-.14.44.44,0,0,1,.25.08.44.44,0,0,1,.17.19l1.54,3.9L158,41.7a.43.43,0,0,1,.17-.19.44.44,0,0,1,.25-.08A.43.43,0,0,1,158.75,41.57Z" style="fill: #fff"/>
      <path d="M163.48,41.72a2.29,2.29,0,0,1,.9.94,3.17,3.17,0,0,1,0,2.78,2.28,2.28,0,0,1-.9.94,2.92,2.92,0,0,1-2.7,0,2.25,2.25,0,0,1-.9-.94,3.22,3.22,0,0,1,0-2.78,2.25,2.25,0,0,1,.9-.94,2.92,2.92,0,0,1,2.7,0Zm-.56,4a1.54,1.54,0,0,0,.62-.6,2,2,0,0,0,.25-1,2,2,0,0,0-.25-1,1.5,1.5,0,0,0-.62-.6,1.76,1.76,0,0,0-.79-.19,1.78,1.78,0,0,0-.8.19,1.47,1.47,0,0,0-.62.6,2,2,0,0,0-.24,1,2,2,0,0,0,.24,1,1.5,1.5,0,0,0,.62.6,1.75,1.75,0,0,0,.8.19A1.73,1.73,0,0,0,162.92,45.69Z" style="fill: #fff"/>
    </g>
    <g>
      <path d="M128,56.67a.33.33,0,0,1,.1.24V60a.23.23,0,0,1-.23.23.23.23,0,0,1-.17-.07.22.22,0,0,1-.07-.16V57.06L126.47,60a.35.35,0,0,1-.13.16.36.36,0,0,1-.4,0,.34.34,0,0,1-.13-.16l-1.19-2.93V60a.22.22,0,0,1-.07.16.23.23,0,0,1-.17.07.23.23,0,0,1-.23-.23V56.91a.33.33,0,0,1,.1-.24.32.32,0,0,1,.24-.1h.17a.31.31,0,0,1,.19.06.38.38,0,0,1,.13.15l1.17,2.91,1.17-2.91a.37.37,0,0,1,.13-.15.31.31,0,0,1,.19-.06h.17A.32.32,0,0,1,128,56.67Z" style="fill: #fff"/>
      <path d="M132.07,60a.23.23,0,0,1-.06.16.22.22,0,0,1-.17.07.24.24,0,0,1-.13,0,.25.25,0,0,1-.09-.11l-.33-.8h-1.75l-.33.8a.25.25,0,0,1-.09.11.24.24,0,0,1-.13,0,.22.22,0,0,1-.17-.07.23.23,0,0,1-.06-.16.28.28,0,0,1,0-.1l1.31-3.09a.39.39,0,0,1,.12-.15.28.28,0,0,1,.18-.06h.05a.28.28,0,0,1,.18.06.39.39,0,0,1,.12.15L132,59.87A.28.28,0,0,1,132.07,60Zm-1.66-2.81-.69,1.67h1.39Z" style="fill: #fff"/>
      <path d="M135,56.85a1.67,1.67,0,0,1,.61.67,1.91,1.91,0,0,1,0,1.73,1.67,1.67,0,0,1-.61.67,1.82,1.82,0,0,1-1,.26h-1a.23.23,0,0,1-.23-.23V56.83a.23.23,0,0,1,.07-.17.22.22,0,0,1,.16-.07h1A1.81,1.81,0,0,1,135,56.85Zm-.31,2.72a1.23,1.23,0,0,0,.49-.48,1.52,1.52,0,0,0,0-1.41,1.23,1.23,0,0,0-.49-.48,1.53,1.53,0,0,0-.74-.17h-.74v2.71h.74A1.53,1.53,0,0,0,134.65,59.57Z" style="fill: #fff"/>
      <path d="M139,59.81a.21.21,0,0,1,.06.16.21.21,0,0,1-.06.15.22.22,0,0,1-.16.06h-2.06a.23.23,0,0,1-.23-.23V56.83a.23.23,0,0,1,.07-.17.22.22,0,0,1,.16-.07h2.06a.22.22,0,0,1,.22.22A.21.21,0,0,1,139,57a.22.22,0,0,1-.16.06H137v1.14h1.64a.22.22,0,0,1,.22.22.2.2,0,0,1-.06.15.22.22,0,0,1-.16.06H137v1.14h1.82A.21.21,0,0,1,139,59.81Z" style="fill: #fff"/>
      <path d="M141.56,56.64a.23.23,0,0,1,.07.17V60a.22.22,0,0,1-.07.16.23.23,0,0,1-.17.07.23.23,0,0,1-.23-.23V56.8a.23.23,0,0,1,.07-.17.22.22,0,0,1,.16-.07A.23.23,0,0,1,141.56,56.64Z" style="fill: #fff"/>
      <path d="M145.69,56.64a.23.23,0,0,1,.07.17v3.07a.32.32,0,0,1-.1.24.33.33,0,0,1-.24.1h-.06a.32.32,0,0,1-.15,0,.35.35,0,0,1-.12-.1l-2-2.87V60a.22.22,0,0,1-.07.16.23.23,0,0,1-.17.07.23.23,0,0,1-.23-.23V56.91a.33.33,0,0,1,.1-.24.32.32,0,0,1,.24-.1H143a.35.35,0,0,1,.28.15l2,2.86V56.8a.23.23,0,0,1,.07-.17.22.22,0,0,1,.16-.07A.23.23,0,0,1,145.69,56.64Z" style="fill: #fff"/>
      <path d="M150.91,59.58a.19.19,0,0,1,.06.14.21.21,0,0,1-.11.2,2.65,2.65,0,0,1-.55.24,2.18,2.18,0,0,1-.62.08,1.89,1.89,0,0,1-.92-.22,1.61,1.61,0,0,1-.64-.64,2.16,2.16,0,0,1,0-2,1.61,1.61,0,0,1,.64-.64,1.89,1.89,0,0,1,.92-.22,2.18,2.18,0,0,1,.62.08,2.68,2.68,0,0,1,.55.24.21.21,0,0,1,.11.2.19.19,0,0,1-.06.14.2.2,0,0,1-.15.06l-.09,0a2.37,2.37,0,0,0-.44-.18,1.81,1.81,0,0,0-.5-.06,1.46,1.46,0,0,0-.75.18,1.17,1.17,0,0,0-.47.5,1.72,1.72,0,0,0,0,1.43,1.17,1.17,0,0,0,.47.5,1.46,1.46,0,0,0,.75.18,1.83,1.83,0,0,0,.5-.06,2.37,2.37,0,0,0,.44-.18l.09,0A.2.2,0,0,1,150.91,59.58Z" style="fill: #fff"/>
      <path d="M154.49,56.64a.23.23,0,0,1,.07.17V60a.22.22,0,0,1-.07.16.23.23,0,0,1-.17.07.23.23,0,0,1-.23-.23V58.61h-1.95V60a.22.22,0,0,1-.07.16.23.23,0,0,1-.17.07.23.23,0,0,1-.23-.23V56.8a.23.23,0,0,1,.07-.17.22.22,0,0,1,.16-.07.24.24,0,0,1,.24.24v1.37h1.95V56.8a.23.23,0,0,1,.07-.17.22.22,0,0,1,.16-.07A.23.23,0,0,1,154.49,56.64Z" style="fill: #fff"/>
      <path d="M156,56.64a.23.23,0,0,1,.07.17V60a.22.22,0,0,1-.07.16.23.23,0,0,1-.17.07.23.23,0,0,1-.23-.23V56.8a.23.23,0,0,1,.07-.17.22.22,0,0,1,.16-.07A.23.23,0,0,1,156,56.64Z" style="fill: #fff"/>
      <path d="M160.08,56.64a.23.23,0,0,1,.07.17v3.07a.32.32,0,0,1-.1.24.33.33,0,0,1-.24.1h-.06a.32.32,0,0,1-.15,0,.35.35,0,0,1-.12-.1l-2-2.87V60a.22.22,0,0,1-.07.16.23.23,0,0,1-.17.07A.23.23,0,0,1,157,60V56.91a.33.33,0,0,1,.1-.24.32.32,0,0,1,.24-.1h.07a.35.35,0,0,1,.28.15l2,2.86V56.8a.23.23,0,0,1,.07-.17.22.22,0,0,1,.16-.07A.23.23,0,0,1,160.08,56.64Z" style="fill: #fff"/>
      <path d="M164.1,60a.23.23,0,0,1-.06.16.22.22,0,0,1-.17.07.24.24,0,0,1-.13,0,.25.25,0,0,1-.09-.11l-.33-.8h-1.75l-.33.8a.25.25,0,0,1-.09.11.24.24,0,0,1-.13,0,.22.22,0,0,1-.17-.07.23.23,0,0,1-.06-.16.28.28,0,0,1,0-.1l1.31-3.09a.39.39,0,0,1,.12-.15.28.28,0,0,1,.18-.06h.05a.28.28,0,0,1,.18.06.39.39,0,0,1,.12.15l1.31,3.09A.28.28,0,0,1,164.1,60Zm-1.66-2.81-.69,1.67h1.39Z" style="fill: #fff"/>
    </g>
    <rect height="5.75" style="fill: #fff" width="48.69" x="119.36" y="48.16"/>
    <g>
      <path d="M131,52.54a1.83,1.83,0,0,0,.93.26c.53,0,.84-.28.84-.68s-.21-.59-.76-.8-1.06-.57-1.06-1.14a1.15,1.15,0,0,1,1.3-1.09,1.82,1.82,0,0,1,.89.2l-.14.42a1.6,1.6,0,0,0-.76-.19c-.55,0-.76.33-.76.6s.24.56.8.77,1,.59,1,1.18-.46,1.15-1.4,1.15a2.08,2.08,0,0,1-1-.26Z"/>
      <path d="M136.38,51.2c0,1.31-.49,2-1.34,2s-1.27-.71-1.28-2,.56-2,1.34-2S136.38,50,136.38,51.2Zm-2.1.06c0,1,.31,1.58.79,1.58s.79-.62.79-1.61-.24-1.58-.79-1.58S134.28,50.21,134.28,51.26Z"/>
      <path d="M139.17,49.75H137.7l-.15,1a2.1,2.1,0,0,1,.32,0,1.64,1.64,0,0,1,.83.21,1.1,1.1,0,0,1,.55,1,1.34,1.34,0,0,1-1.44,1.32,1.9,1.9,0,0,1-1-.24l.13-.4a1.73,1.73,0,0,0,.83.21.85.85,0,0,0,.92-.84c0-.5-.34-.86-1.11-.86a4,4,0,0,0-.54,0l.25-1.86h1.85Z"/>
      <path d="M140.1,53.18v-4h.57l1.29,2a11.34,11.34,0,0,1,.72,1.3h0c0-.54-.06-1-.06-1.65V49.16h.49v4h-.52l-1.27-2a12.71,12.71,0,0,1-.75-1.34h0c0,.51,0,1,0,1.65v1.71Z"/>
      <path d="M144,49.16h2.16v.43h-1.64v1.33H146v.43h-1.52v1.81H144Z"/>
      <path d="M148.1,52.54a1.83,1.83,0,0,0,.93.26c.53,0,.84-.28.84-.68s-.21-.59-.76-.8-1.06-.57-1.06-1.14a1.15,1.15,0,0,1,1.3-1.09,1.82,1.82,0,0,1,.89.2l-.14.42a1.6,1.6,0,0,0-.76-.19c-.55,0-.76.33-.76.6s.24.56.8.77,1,.59,1,1.18-.46,1.15-1.4,1.15a2.08,2.08,0,0,1-1-.26Z"/>
      <path d="M151.87,49.6h-1.22v-.44h3v.44h-1.23v3.57h-.52Z"/>
      <path d="M154.06,49.22a7.45,7.45,0,0,1,1.1-.08,2.3,2.3,0,0,1,1.62.5,1.85,1.85,0,0,1,.57,1.44,2.12,2.12,0,0,1-.58,1.56,2.47,2.47,0,0,1-1.77.58,8.36,8.36,0,0,1-.94,0Zm.52,3.55a3.25,3.25,0,0,0,.52,0,1.54,1.54,0,0,0,1.71-1.7,1.43,1.43,0,0,0-1.62-1.55,2.94,2.94,0,0,0-.61.05Z"/>
    </g>
  </g>
</svg>