<?xml version="1.0" ?><svg height="60.66mm" viewBox="0 0 92.83 171.95" width="32.75mm" xmlns="http://www.w3.org/2000/svg" xmlns:xlink="http://www.w3.org/1999/xlink">
  <defs>
    <radialGradient cx="5.9" cy="17.53" gradientUnits="userSpaceOnUse" id="radial-gradient" r="4.52">
      <stop offset="0" stop-color="#fff"/>
      <stop offset="0.4" stop-color="#fdfdfd"/>
      <stop offset="0.58" stop-color="#f5f5f5"/>
      <stop offset="0.72" stop-color="#e9e9e9"/>
      <stop offset="0.84" stop-color="#d7d7d7"/>
      <stop offset="0.94" stop-color="#bfbfbf"/>
      <stop offset="1" stop-color="#adadad"/>
    </radialGradient>
    <radialGradient cx="17.48" cy="17.53" id="radial-gradient-2" r="4.52" xlink:href="#radial-gradient"/>
    <radialGradient cx="29.19" cy="17.53" id="radial-gradient-3" r="4.52" xlink:href="#radial-gradient"/>
    <radialGradient cx="40.86" cy="17.53" id="radial-gradient-4" r="4.52" xlink:href="#radial-gradient"/>
    <radialGradient cx="52.36" cy="17.53" id="radial-gradient-5" r="4.52" xlink:href="#radial-gradient"/>
    <radialGradient cx="64.11" cy="17.53" id="radial-gradient-6" r="4.52" xlink:href="#radial-gradient"/>
    <radialGradient cx="75.77" cy="17.53" id="radial-gradient-7" r="4.52" xlink:href="#radial-gradient"/>
    <radialGradient cx="87.44" cy="17.53" id="radial-gradient-8" r="4.52" xlink:href="#radial-gradient"/>
    <radialGradient cx="5.9" cy="29.31" id="radial-gradient-9" r="4.52" xlink:href="#radial-gradient"/>
    <radialGradient cx="17.48" cy="29.31" id="radial-gradient-10" r="4.52" xlink:href="#radial-gradient"/>
    <radialGradient cx="29.19" cy="29.31" id="radial-gradient-11" r="4.52" xlink:href="#radial-gradient"/>
    <radialGradient cx="40.86" cy="29.31" id="radial-gradient-12" r="4.52" xlink:href="#radial-gradient"/>
    <radialGradient cx="52.36" cy="29.31" id="radial-gradient-13" r="4.52" xlink:href="#radial-gradient"/>
    <radialGradient cx="64.11" cy="29.31" id="radial-gradient-14" r="4.52" xlink:href="#radial-gradient"/>
    <radialGradient cx="75.77" cy="29.31" id="radial-gradient-15" r="4.52" xlink:href="#radial-gradient"/>
    <radialGradient cx="87.44" cy="29.31" id="radial-gradient-16" r="4.52" xlink:href="#radial-gradient"/>
    <radialGradient cx="5.9" cy="41.08" id="radial-gradient-17" r="4.52" xlink:href="#radial-gradient"/>
    <radialGradient cx="17.48" cy="41.08" id="radial-gradient-18" r="4.52" xlink:href="#radial-gradient"/>
    <radialGradient cx="29.19" cy="41.08" id="radial-gradient-19" r="4.52" xlink:href="#radial-gradient"/>
    <radialGradient cx="40.86" cy="41.08" id="radial-gradient-20" r="4.52" xlink:href="#radial-gradient"/>
    <radialGradient cx="52.36" cy="41.08" id="radial-gradient-21" r="4.52" xlink:href="#radial-gradient"/>
    <radialGradient cx="64.11" cy="41.08" id="radial-gradient-22" r="4.52" xlink:href="#radial-gradient"/>
    <radialGradient cx="75.77" cy="41.08" id="radial-gradient-23" r="4.52" xlink:href="#radial-gradient"/>
    <radialGradient cx="87.44" cy="41.08" id="radial-gradient-24" r="4.52" xlink:href="#radial-gradient"/>
    <radialGradient cx="5.9" cy="52.85" id="radial-gradient-25" r="4.52" xlink:href="#radial-gradient"/>
    <radialGradient cx="17.48" cy="52.85" id="radial-gradient-26" r="4.52" xlink:href="#radial-gradient"/>
    <radialGradient cx="29.19" cy="52.85" id="radial-gradient-27" r="4.52" xlink:href="#radial-gradient"/>
    <radialGradient cx="40.86" cy="52.85" id="radial-gradient-28" r="4.52" xlink:href="#radial-gradient"/>
    <radialGradient cx="52.36" cy="52.85" id="radial-gradient-29" r="4.52" xlink:href="#radial-gradient"/>
    <radialGradient cx="64.11" cy="52.85" id="radial-gradient-30" r="4.52" xlink:href="#radial-gradient"/>
    <radialGradient cx="75.77" cy="52.85" id="radial-gradient-31" r="4.52" xlink:href="#radial-gradient"/>
    <radialGradient cx="87.44" cy="52.85" id="radial-gradient-32" r="4.52" xlink:href="#radial-gradient"/>
    <radialGradient cx="5.9" cy="64.63" id="radial-gradient-33" r="4.52" xlink:href="#radial-gradient"/>
    <radialGradient cx="17.48" cy="64.63" id="radial-gradient-34" r="4.52" xlink:href="#radial-gradient"/>
    <radialGradient cx="29.19" cy="64.63" id="radial-gradient-35" r="4.52" xlink:href="#radial-gradient"/>
    <radialGradient cx="40.86" cy="64.63" id="radial-gradient-36" r="4.52" xlink:href="#radial-gradient"/>
    <radialGradient cx="52.36" cy="64.63" id="radial-gradient-37" r="4.52" xlink:href="#radial-gradient"/>
    <radialGradient cx="64.11" cy="64.63" id="radial-gradient-38" r="4.52" xlink:href="#radial-gradient"/>
    <radialGradient cx="75.77" cy="64.63" id="radial-gradient-39" r="4.52" xlink:href="#radial-gradient"/>
    <radialGradient cx="87.44" cy="64.63" id="radial-gradient-40" r="4.52" xlink:href="#radial-gradient"/>
    <radialGradient cx="5.9" cy="76.4" id="radial-gradient-41" r="4.52" xlink:href="#radial-gradient"/>
    <radialGradient cx="17.48" cy="76.4" id="radial-gradient-42" r="4.52" xlink:href="#radial-gradient"/>
    <radialGradient cx="29.19" cy="76.4" id="radial-gradient-43" r="4.52" xlink:href="#radial-gradient"/>
    <radialGradient cx="40.86" cy="76.4" id="radial-gradient-44" r="4.52" xlink:href="#radial-gradient"/>
    <radialGradient cx="52.36" cy="76.4" id="radial-gradient-45" r="4.52" xlink:href="#radial-gradient"/>
    <radialGradient cx="64.11" cy="76.4" id="radial-gradient-46" r="4.52" xlink:href="#radial-gradient"/>
    <radialGradient cx="75.77" cy="76.4" id="radial-gradient-47" r="4.52" xlink:href="#radial-gradient"/>
    <radialGradient cx="87.44" cy="76.4" id="radial-gradient-48" r="4.52" xlink:href="#radial-gradient"/>
    <radialGradient cx="5.9" cy="88.18" id="radial-gradient-49" r="4.52" xlink:href="#radial-gradient"/>
    <radialGradient cx="17.48" cy="88.18" id="radial-gradient-50" r="4.52" xlink:href="#radial-gradient"/>
    <radialGradient cx="29.19" cy="88.18" id="radial-gradient-51" r="4.52" xlink:href="#radial-gradient"/>
    <radialGradient cx="40.86" cy="88.18" id="radial-gradient-52" r="4.52" xlink:href="#radial-gradient"/>
    <radialGradient cx="52.36" cy="88.18" id="radial-gradient-53" r="4.52" xlink:href="#radial-gradient"/>
    <radialGradient cx="64.11" cy="88.18" id="radial-gradient-54" r="4.52" xlink:href="#radial-gradient"/>
    <radialGradient cx="75.77" cy="88.18" id="radial-gradient-55" r="4.52" xlink:href="#radial-gradient"/>
    <radialGradient cx="87.44" cy="88.18" id="radial-gradient-56" r="4.52" xlink:href="#radial-gradient"/>
    <radialGradient cx="5.9" cy="99.95" id="radial-gradient-57" r="4.52" xlink:href="#radial-gradient"/>
    <radialGradient cx="17.48" cy="99.95" id="radial-gradient-58" r="4.52" xlink:href="#radial-gradient"/>
    <radialGradient cx="29.19" cy="99.95" id="radial-gradient-59" r="4.52" xlink:href="#radial-gradient"/>
    <radialGradient cx="40.86" cy="99.95" id="radial-gradient-60" r="4.52" xlink:href="#radial-gradient"/>
    <radialGradient cx="52.36" cy="99.95" id="radial-gradient-61" r="4.52" xlink:href="#radial-gradient"/>
    <radialGradient cx="64.11" cy="99.95" id="radial-gradient-62" r="4.52" xlink:href="#radial-gradient"/>
    <radialGradient cx="75.77" cy="99.95" id="radial-gradient-63" r="4.52" xlink:href="#radial-gradient"/>
    <radialGradient cx="87.44" cy="99.95" id="radial-gradient-64" r="4.52" xlink:href="#radial-gradient"/>
  </defs>
  <title>8x8 LED display Matrix - MAX7219</title>
  <g data-name="square green" id="square_green">
    <path d="M86.42,97H3.75A3.75,3.75,0,0,0,0,100.79V151a3.75,3.75,0,0,0,3.75,3.75H86.42A3.75,3.75,0,0,0,90.17,151V100.79A3.75,3.75,0,0,0,86.42,97ZM8,153.1A5.07,5.07,0,1,1,13.07,148,5.07,5.07,0,0,1,8,153.1ZM18.37,149a.65.65,0,1,1,.65-.65A.65.65,0,0,1,18.37,149Zm65.14,4.1A5.07,5.07,0,1,1,88.59,148,5.07,5.07,0,0,1,83.51,153.1Z" style="fill: #007056"/>
  </g>
  <g data-name="Layer 2" id="Layer_2">
    <g>
      <g>
        <polygon points="34.67 148.71 36.1 150.24 36.1 154.48 34.67 155.91 30.44 155.91 28.9 154.48 28.9 150.24 30.44 148.71 34.67 148.71" style="fill: #323232"/>
        <g>
          <polygon points="33.75 165.41 33.75 165.4 32.61 164.27 31.48 165.4 31.48 165.41 33.75 165.41" style="fill: #e9e9ea"/>
          <polygon points="33.74 163.14 33.74 163.14 32.61 164.28 31.48 163.15 31.48 163.14 33.74 163.14" style="fill: #b0acb0"/>
          <polygon points="31.48 165.41 31.48 165.41 32.61 164.27 31.48 163.14 31.48 163.14 31.48 165.41" style="fill: #d3d1d3"/>
          <polygon points="33.74 165.4 33.74 165.4 32.61 164.27 33.74 163.14 33.74 163.14 33.74 165.4" style="fill: #989498"/>
          <rect height="1.13" style="fill: #c0bec2" transform="translate(65.23 328.54) rotate(180)" width="1.13" x="32.05" y="163.7"/>
        </g>
        <rect height="10.83" style="fill: #b0acb0" width="2.27" x="31.48" y="152.31"/>
      </g>
      <g>
        <polygon points="41.87 148.71 43.3 150.24 43.3 154.48 41.87 155.91 37.64 155.91 36.1 154.48 36.1 150.24 37.64 148.71 41.87 148.71" style="fill: #323232"/>
        <g>
          <polygon points="40.95 165.41 40.95 165.4 39.81 164.27 38.68 165.4 38.68 165.41 40.95 165.41" style="fill: #e9e9ea"/>
          <polygon points="40.94 163.14 40.94 163.14 39.81 164.28 38.68 163.15 38.68 163.14 40.94 163.14" style="fill: #b0acb0"/>
          <polygon points="38.68 165.41 38.68 165.41 39.81 164.27 38.68 163.14 38.68 163.14 38.68 165.41" style="fill: #d3d1d3"/>
          <polygon points="40.94 165.4 40.94 165.4 39.81 164.27 40.94 163.14 40.94 163.14 40.94 165.4" style="fill: #989498"/>
          <rect height="1.13" style="fill: #c0bec2" transform="translate(79.63 328.54) rotate(180)" width="1.13" x="39.25" y="163.7"/>
        </g>
        <rect height="10.83" style="fill: #b0acb0" width="2.27" x="38.68" y="152.31"/>
      </g>
      <g>
        <polygon points="49.07 148.71 50.5 150.24 50.5 154.48 49.07 155.91 44.84 155.91 43.3 154.48 43.3 150.24 44.84 148.71 49.07 148.71" style="fill: #323232"/>
        <g>
          <polygon points="48.15 165.41 48.15 165.4 47.01 164.27 45.88 165.4 45.88 165.41 48.15 165.41" style="fill: #e9e9ea"/>
          <polygon points="48.14 163.14 48.14 163.14 47.01 164.28 45.88 163.15 45.88 163.14 48.14 163.14" style="fill: #b0acb0"/>
          <polygon points="45.88 165.41 45.88 165.41 47.01 164.27 45.88 163.14 45.88 163.14 45.88 165.41" style="fill: #d3d1d3"/>
          <polygon points="48.14 165.4 48.14 165.4 47.01 164.27 48.14 163.14 48.14 163.14 48.14 165.4" style="fill: #989498"/>
          <rect height="1.13" style="fill: #c0bec2" transform="translate(94.03 328.54) rotate(180)" width="1.13" x="46.45" y="163.7"/>
        </g>
        <rect height="10.83" style="fill: #b0acb0" width="2.27" x="45.88" y="152.31"/>
      </g>
      <g>
        <polygon points="56.27 148.71 57.7 150.24 57.7 154.48 56.27 155.91 52.04 155.91 50.5 154.48 50.5 150.24 52.04 148.71 56.27 148.71" style="fill: #323232"/>
        <g>
          <polygon points="55.35 165.41 55.35 165.4 54.21 164.27 53.08 165.4 53.08 165.41 55.35 165.41" style="fill: #e9e9ea"/>
          <polygon points="55.34 163.14 55.34 163.14 54.21 164.28 53.08 163.15 53.08 163.14 55.34 163.14" style="fill: #b0acb0"/>
          <polygon points="53.08 165.41 53.08 165.41 54.21 164.27 53.08 163.14 53.08 163.14 53.08 165.41" style="fill: #d3d1d3"/>
          <polygon points="55.34 165.4 55.34 165.4 54.21 164.27 55.34 163.14 55.34 163.14 55.34 165.4" style="fill: #989498"/>
          <rect height="1.13" style="fill: #c0bec2" transform="translate(108.43 328.54) rotate(180)" width="1.13" x="53.65" y="163.7"/>
        </g>
        <rect height="10.83" style="fill: #b0acb0" width="2.27" x="53.08" y="152.31"/>
      </g>
      <g>
        <polygon points="63.47 148.71 64.9 150.24 64.9 154.48 63.47 155.91 59.24 155.91 57.7 154.48 57.7 150.24 59.24 148.71 63.47 148.71" style="fill: #323232"/>
        <g>
          <polygon points="62.55 165.41 62.55 165.4 61.41 164.27 60.28 165.4 60.28 165.41 62.55 165.41" style="fill: #e9e9ea"/>
          <polygon points="62.54 163.14 62.54 163.14 61.41 164.28 60.28 163.15 60.28 163.14 62.54 163.14" style="fill: #b0acb0"/>
          <polygon points="60.28 165.41 60.28 165.41 61.41 164.27 60.28 163.14 60.28 163.14 60.28 165.41" style="fill: #d3d1d3"/>
          <polygon points="62.54 165.4 62.54 165.4 61.41 164.27 62.54 163.14 62.54 163.14 62.54 165.4" style="fill: #989498"/>
          <rect height="1.13" style="fill: #c0bec2" transform="translate(122.83 328.54) rotate(180)" width="1.13" x="60.85" y="163.7"/>
        </g>
        <rect height="10.83" style="fill: #b0acb0" width="2.27" x="60.28" y="152.31"/>
      </g>
    </g>
  </g>
  <g data-name="Layer 13" id="Layer_13">
    <g id="Connectors">
      <polygon points="41.98 148.71 43.41 150.24 43.41 154.48 41.98 155.91 37.75 155.91 36.21 154.48 36.21 150.24 37.75 148.71 41.98 148.71" style="fill: #323232"/>
      <polygon points="41.06 171.95 41.06 171.95 39.93 170.81 38.8 171.95 38.8 171.95 41.06 171.95" style="fill: #e9e9ea"/>
      <polygon points="41.06 169.69 41.06 169.69 39.92 170.82 38.79 169.69 38.79 169.69 41.06 169.69" style="fill: #b0acb0"/>
      <polygon points="38.79 171.95 38.79 171.95 39.93 170.82 38.8 169.69 38.79 169.69 38.79 171.95" style="fill: #d3d1d3"/>
      <polygon points="41.06 171.95 41.06 171.95 39.92 170.81 41.05 169.68 41.06 169.68 41.06 171.95" style="fill: #989498"/>
      <rect height="1.13" style="fill: #c0bec2" width="1.13" x="39.36" y="170.25"/>
      <rect height="17.37" style="fill: #b0acb0" width="2.27" x="38.79" y="152.31"/>
      <polygon points="49.18 148.71 50.61 150.24 50.61 154.48 49.18 155.91 44.95 155.91 43.41 154.48 43.41 150.24 44.95 148.71 49.18 148.71" style="fill: #323232"/>
      <polygon points="48.26 171.95 48.26 171.95 47.13 170.81 46 171.95 46 171.95 48.26 171.95" style="fill: #e9e9ea"/>
      <polygon points="48.26 169.69 48.26 169.69 47.12 170.82 45.99 169.69 45.99 169.69 48.26 169.69" style="fill: #b0acb0"/>
      <polygon points="45.99 171.95 45.99 171.95 47.13 170.82 46 169.69 45.99 169.69 45.99 171.95" style="fill: #d3d1d3"/>
      <polygon points="48.26 171.95 48.26 171.95 47.12 170.81 48.25 169.68 48.26 169.68 48.26 171.95" style="fill: #989498"/>
      <rect height="1.13" style="fill: #c0bec2" width="1.13" x="46.56" y="170.25"/>
      <rect height="17.37" style="fill: #b0acb0" width="2.27" x="45.99" y="152.31"/>
      <polygon points="56.27 148.71 57.7 150.24 57.7 154.48 56.27 155.91 52.04 155.91 50.5 154.48 50.5 150.24 52.04 148.71 56.27 148.71" style="fill: #323232"/>
      <polygon points="55.35 171.95 55.35 171.95 54.22 170.81 53.09 171.95 53.09 171.95 55.35 171.95" style="fill: #e9e9ea"/>
      <polygon points="55.35 169.69 55.35 169.69 54.21 170.82 53.08 169.69 53.08 169.69 55.35 169.69" style="fill: #b0acb0"/>
      <polygon points="53.08 171.95 53.08 171.95 54.22 170.82 53.09 169.69 53.08 169.69 53.08 171.95" style="fill: #d3d1d3"/>
      <polygon points="55.35 171.95 55.35 171.95 54.21 170.81 55.34 169.68 55.35 169.68 55.35 171.95" style="fill: #989498"/>
      <rect height="1.13" style="fill: #c0bec2" width="1.13" x="53.65" y="170.25"/>
      <rect height="17.37" style="fill: #b0acb0" width="2.27" x="53.08" y="152.31"/>
      <polygon points="63.47 148.71 64.9 150.24 64.9 154.48 63.47 155.91 59.24 155.91 57.7 154.48 57.7 150.24 59.24 148.71 63.47 148.71" style="fill: #323232"/>
      <polygon points="62.55 171.95 62.55 171.95 61.42 170.81 60.29 171.95 60.29 171.95 62.55 171.95" style="fill: #e9e9ea"/>
      <polygon points="62.55 169.69 62.55 169.69 61.41 170.82 60.28 169.69 60.28 169.69 62.55 169.69" style="fill: #b0acb0"/>
      <polygon points="60.28 171.95 60.28 171.95 61.42 170.82 60.29 169.69 60.28 169.69 60.28 171.95" style="fill: #d3d1d3"/>
      <polygon points="62.55 171.95 62.55 171.95 61.41 170.81 62.54 169.68 62.55 169.68 62.55 171.95" style="fill: #989498"/>
      <rect height="1.13" style="fill: #c0bec2" width="1.13" x="60.85" y="170.25"/>
      <rect height="17.37" style="fill: #b0acb0" width="2.27" x="60.28" y="152.31"/>
      <polygon points="34.78 148.71 36.21 150.24 36.21 154.48 34.78 155.91 30.55 155.91 29.01 154.48 29.01 150.24 30.55 148.71 34.78 148.71" style="fill: #323232"/>
      <polygon points="33.86 171.95 33.86 171.94 32.73 170.81 31.6 171.94 31.6 171.95 33.86 171.95" style="fill: #e9e9ea"/>
      <polygon points="33.86 169.68 33.86 169.68 32.72 170.82 31.59 169.69 31.59 169.68 33.86 169.68" style="fill: #b0acb0"/>
      <polygon points="31.59 171.95 31.59 171.95 32.73 170.81 31.6 169.68 31.59 169.68 31.59 171.95" style="fill: #d3d1d3"/>
      <polygon points="33.86 171.94 33.86 171.94 32.72 170.81 33.85 169.68 33.86 169.68 33.86 171.94" style="fill: #989498"/>
      <rect height="1.13" style="fill: #c0bec2" width="1.13" x="32.16" y="170.25"/>
      <rect height="17.37" style="fill: #b0acb0" width="2.27" x="31.59" y="152.31"/>
      <polygon points="53.85 0 53.85 0 54.98 1.14 56.11 0 56.11 0 53.85 0" style="fill: #e9e9ea"/>
      <polygon points="53.85 2.26 53.85 2.26 54.99 1.13 56.12 2.26 56.12 2.26 53.85 2.26" style="fill: #b0acb0"/>
      <polygon points="56.12 0 56.12 0 54.98 1.13 56.11 2.26 56.12 2.26 56.12 0" style="fill: #d3d1d3"/>
      <polygon points="53.85 0 53.85 0 54.99 1.14 53.86 2.27 53.85 2.27 53.85 0" style="fill: #989498"/>
      <rect height="1.13" style="fill: #c0bec2" width="1.13" x="54.42" y="0.57"/>
      <rect height="17.37" style="fill: #b0acb0" width="2.27" x="53.85" y="2.27"/>
      <polygon points="46.65 0 46.65 0 47.78 1.14 48.91 0 48.91 0 46.65 0" style="fill: #e9e9ea"/>
      <polygon points="46.65 2.26 46.65 2.26 47.79 1.13 48.92 2.26 48.92 2.26 46.65 2.26" style="fill: #b0acb0"/>
      <polygon points="48.92 0 48.92 0 47.78 1.13 48.91 2.26 48.92 2.26 48.92 0" style="fill: #d3d1d3"/>
      <polygon points="46.65 0 46.65 0 47.79 1.14 46.66 2.27 46.65 2.27 46.65 0" style="fill: #989498"/>
      <rect height="1.13" style="fill: #c0bec2" width="1.13" x="47.22" y="0.57"/>
      <rect height="17.37" style="fill: #b0acb0" width="2.27" x="46.65" y="2.27"/>
      <polygon points="39.56 0 39.56 0 40.69 1.14 41.82 0 41.82 0 39.56 0" style="fill: #e9e9ea"/>
      <polygon points="39.56 2.26 39.56 2.26 40.7 1.13 41.83 2.26 41.83 2.26 39.56 2.26" style="fill: #b0acb0"/>
      <polygon points="41.83 0 41.83 0 40.69 1.13 41.82 2.26 41.83 2.26 41.83 0" style="fill: #d3d1d3"/>
      <polygon points="39.56 0 39.56 0 40.7 1.14 39.57 2.27 39.56 2.27 39.56 0" style="fill: #989498"/>
      <rect height="1.13" style="fill: #c0bec2" width="1.13" x="40.13" y="0.57"/>
      <rect height="17.37" style="fill: #b0acb0" width="2.27" x="39.56" y="2.27"/>
      <polygon points="32.36 0 32.36 0 33.49 1.14 34.62 0 34.62 0 32.36 0" style="fill: #e9e9ea"/>
      <polygon points="32.36 2.26 32.36 2.26 33.5 1.13 34.63 2.26 34.63 2.26 32.36 2.26" style="fill: #b0acb0"/>
      <polygon points="34.63 0 34.63 0 33.49 1.13 34.62 2.26 34.63 2.26 34.63 0" style="fill: #d3d1d3"/>
      <polygon points="32.36 0 32.36 0 33.5 1.14 32.37 2.27 32.36 2.27 32.36 0" style="fill: #989498"/>
      <rect height="1.13" style="fill: #c0bec2" width="1.13" x="32.93" y="0.57"/>
      <rect height="17.37" style="fill: #b0acb0" width="2.27" x="32.36" y="2.27"/>
      <polygon points="61.05 0 61.05 0.01 62.18 1.14 63.31 0.01 63.31 0 61.05 0" style="fill: #e9e9ea"/>
      <polygon points="61.05 2.27 61.05 2.27 62.19 1.13 63.32 2.26 63.32 2.27 61.05 2.27" style="fill: #b0acb0"/>
      <polygon points="63.32 0 63.32 0 62.18 1.14 63.31 2.27 63.32 2.27 63.32 0" style="fill: #d3d1d3"/>
      <polygon points="61.05 0.01 61.05 0.01 62.19 1.14 61.06 2.27 61.05 2.27 61.05 0.01" style="fill: #989498"/>
      <rect height="1.13" style="fill: #c0bec2" width="1.13" x="61.62" y="0.57"/>
      <rect height="17.37" style="fill: #b0acb0" width="2.27" x="61.05" y="2.27"/>
    </g>
  </g>
  <g data-name="black background" id="black_background">
    <path d="M.58,101.38v47.33A6.22,6.22,0,0,0,4,154.8H28.08" style="fill: none;stroke: #1e4341;stroke-linecap: round;stroke-miterlimit: 10;stroke-width: 0.75px"/>
    <rect height="92.83" rx="2.75" ry="2.75" style="fill: #1c1c1c" width="92.83" y="12.3"/>
  </g>
  <g data-name="lines around" id="lines_around">
    <polyline points="84.27 134.24 78.15 140.36 66.33 140.36 58.06 148.63 58.06 151.67" style="fill: none;stroke: #1e4341;stroke-linecap: round;stroke-miterlimit: 10;stroke-width: 0.5px"/>
    <polyline points="82.08 134.24 77.43 138.89 66.02 138.89 56.79 148.13 56.79 151.05" style="fill: none;stroke: #1e4341;stroke-linecap: round;stroke-miterlimit: 10;stroke-width: 0.5px"/>
    <polyline points="8.58 134.24 10.37 136.02 45.88 136.02 48.25 133.65" style="fill: none;stroke: #1e4341;stroke-linecap: round;stroke-miterlimit: 10;stroke-width: 0.5px"/>
    <polyline points="4.02 134.24 7.71 137.92 20.96 137.92 32.73 149.69" style="fill: none;stroke: #1e4341;stroke-linecap: round;stroke-miterlimit: 10;stroke-width: 0.5px"/>
    <polyline points="0.58 134.24 6.65 140.3 20.4 140.3 30.86 150.77" style="fill: none;stroke: #1e4341;stroke-linecap: round;stroke-miterlimit: 10;stroke-width: 0.5px"/>
    <line style="fill: none;stroke: #1e4341;stroke-linecap: round;stroke-miterlimit: 10;stroke-width: 0.75px" x1="31.47" x2="47.02" y1="134.24" y2="149.78"/>
    <line style="fill: none;stroke: #1e4341;stroke-linecap: round;stroke-miterlimit: 10;stroke-width: 0.75px" x1="31.04" x2="46.2" y1="136.23" y2="151.35"/>
    <path d="M3.71,114.86H1.38v5c2.69,0,2.69,2.77,0,2.77v4.54H4.46" style="fill: none;stroke: #fff;stroke-linecap: round;stroke-miterlimit: 10;stroke-width: 0.5px"/>
  </g>
  <g id="points">
    <g>
      <g>
        <circle cx="5.9" cy="17.53" r="4.52" style="fill: url(#radial-gradient)"/>
        <circle cx="17.48" cy="17.53" r="4.52" style="fill: url(#radial-gradient-2)"/>
        <circle cx="29.19" cy="17.53" r="4.52" style="fill: url(#radial-gradient-3)"/>
        <circle cx="40.86" cy="17.53" r="4.52" style="fill: url(#radial-gradient-4)"/>
        <circle cx="52.36" cy="17.53" r="4.52" style="fill: url(#radial-gradient-5)"/>
        <circle cx="64.11" cy="17.53" r="4.52" style="fill: url(#radial-gradient-6)"/>
        <circle cx="75.77" cy="17.53" r="4.52" style="fill: url(#radial-gradient-7)"/>
        <circle cx="87.44" cy="17.53" r="4.52" style="fill: url(#radial-gradient-8)"/>
      </g>
      <g>
        <circle cx="5.9" cy="29.31" r="4.52" style="fill: url(#radial-gradient-9)"/>
        <circle cx="17.48" cy="29.31" r="4.52" style="fill: url(#radial-gradient-10)"/>
        <circle cx="29.19" cy="29.31" r="4.52" style="fill: url(#radial-gradient-11)"/>
        <circle cx="40.86" cy="29.31" r="4.52" style="fill: url(#radial-gradient-12)"/>
        <circle cx="52.36" cy="29.31" r="4.52" style="fill: url(#radial-gradient-13)"/>
        <circle cx="64.11" cy="29.31" r="4.52" style="fill: url(#radial-gradient-14)"/>
        <circle cx="75.77" cy="29.31" r="4.52" style="fill: url(#radial-gradient-15)"/>
        <circle cx="87.44" cy="29.31" r="4.52" style="fill: url(#radial-gradient-16)"/>
      </g>
      <g>
        <circle cx="5.9" cy="41.08" r="4.52" style="fill: url(#radial-gradient-17)"/>
        <circle cx="17.48" cy="41.08" r="4.52" style="fill: url(#radial-gradient-18)"/>
        <circle cx="29.19" cy="41.08" r="4.52" style="fill: url(#radial-gradient-19)"/>
        <circle cx="40.86" cy="41.08" r="4.52" style="fill: url(#radial-gradient-20)"/>
        <circle cx="52.36" cy="41.08" r="4.52" style="fill: url(#radial-gradient-21)"/>
        <circle cx="64.11" cy="41.08" r="4.52" style="fill: url(#radial-gradient-22)"/>
        <circle cx="75.77" cy="41.08" r="4.52" style="fill: url(#radial-gradient-23)"/>
        <circle cx="87.44" cy="41.08" r="4.52" style="fill: url(#radial-gradient-24)"/>
      </g>
      <g>
        <circle cx="5.9" cy="52.85" r="4.52" style="fill: url(#radial-gradient-25)"/>
        <circle cx="17.48" cy="52.85" r="4.52" style="fill: url(#radial-gradient-26)"/>
        <circle cx="29.19" cy="52.85" r="4.52" style="fill: url(#radial-gradient-27)"/>
        <circle cx="40.86" cy="52.85" r="4.52" style="fill: url(#radial-gradient-28)"/>
        <circle cx="52.36" cy="52.85" r="4.52" style="fill: url(#radial-gradient-29)"/>
        <circle cx="64.11" cy="52.85" r="4.52" style="fill: url(#radial-gradient-30)"/>
        <circle cx="75.77" cy="52.85" r="4.52" style="fill: url(#radial-gradient-31)"/>
        <circle cx="87.44" cy="52.85" r="4.52" style="fill: url(#radial-gradient-32)"/>
      </g>
      <g>
        <circle cx="5.9" cy="64.63" r="4.52" style="fill: url(#radial-gradient-33)"/>
        <circle cx="17.48" cy="64.63" r="4.52" style="fill: url(#radial-gradient-34)"/>
        <circle cx="29.19" cy="64.63" r="4.52" style="fill: url(#radial-gradient-35)"/>
        <circle cx="40.86" cy="64.63" r="4.52" style="fill: url(#radial-gradient-36)"/>
        <circle cx="52.36" cy="64.63" r="4.52" style="fill: url(#radial-gradient-37)"/>
        <circle cx="64.11" cy="64.63" r="4.52" style="fill: url(#radial-gradient-38)"/>
        <circle cx="75.77" cy="64.63" r="4.52" style="fill: url(#radial-gradient-39)"/>
        <circle cx="87.44" cy="64.63" r="4.52" style="fill: url(#radial-gradient-40)"/>
      </g>
      <g>
        <circle cx="5.9" cy="76.4" r="4.52" style="fill: url(#radial-gradient-41)"/>
        <circle cx="17.48" cy="76.4" r="4.52" style="fill: url(#radial-gradient-42)"/>
        <circle cx="29.19" cy="76.4" r="4.52" style="fill: url(#radial-gradient-43)"/>
        <circle cx="40.86" cy="76.4" r="4.52" style="fill: url(#radial-gradient-44)"/>
        <circle cx="52.36" cy="76.4" r="4.52" style="fill: url(#radial-gradient-45)"/>
        <circle cx="64.11" cy="76.4" r="4.52" style="fill: url(#radial-gradient-46)"/>
        <circle cx="75.77" cy="76.4" r="4.52" style="fill: url(#radial-gradient-47)"/>
        <circle cx="87.44" cy="76.4" r="4.52" style="fill: url(#radial-gradient-48)"/>
      </g>
      <g>
        <circle cx="5.9" cy="88.18" r="4.52" style="fill: url(#radial-gradient-49)"/>
        <circle cx="17.48" cy="88.18" r="4.52" style="fill: url(#radial-gradient-50)"/>
        <circle cx="29.19" cy="88.18" r="4.52" style="fill: url(#radial-gradient-51)"/>
        <circle cx="40.86" cy="88.18" r="4.52" style="fill: url(#radial-gradient-52)"/>
        <circle cx="52.36" cy="88.18" r="4.52" style="fill: url(#radial-gradient-53)"/>
        <circle cx="64.11" cy="88.18" r="4.52" style="fill: url(#radial-gradient-54)"/>
        <circle cx="75.77" cy="88.18" r="4.52" style="fill: url(#radial-gradient-55)"/>
        <circle cx="87.44" cy="88.18" r="4.52" style="fill: url(#radial-gradient-56)"/>
      </g>
      <g>
        <circle cx="5.9" cy="99.95" r="4.52" style="fill: url(#radial-gradient-57)"/>
        <circle cx="17.48" cy="99.95" r="4.52" style="fill: url(#radial-gradient-58)"/>
        <circle cx="29.19" cy="99.95" r="4.52" style="fill: url(#radial-gradient-59)"/>
        <circle cx="40.86" cy="99.95" r="4.52" style="fill: url(#radial-gradient-60)"/>
        <circle cx="52.36" cy="99.95" r="4.52" style="fill: url(#radial-gradient-61)"/>
        <circle cx="64.11" cy="99.95" r="4.52" style="fill: url(#radial-gradient-62)"/>
        <circle cx="75.77" cy="99.95" r="4.52" style="fill: url(#radial-gradient-63)"/>
        <circle cx="87.44" cy="99.95" r="4.52" style="fill: url(#radial-gradient-64)"/>
      </g>
    </g>
  </g>
  <g id="text">
    <g>
      <path d="M31.45,145.38h-.81a.25.25,0,1,1,0-.51h.8a.52.52,0,0,1,.2,0l2.47,1c.13.05.22.1.22.25s-.1.2-.22.25l-2.47,1a.52.52,0,0,1-.2,0h-.8a.25.25,0,1,1,0-.51h.81l1.94-.75Z" style="fill: #fff"/>
      <path d="M34.33,142.36a.76.76,0,0,1-.48.76l-.94.47a1.15,1.15,0,0,1-.53.14,1.11,1.11,0,0,1-.56-.14l-.94-.47a.76.76,0,0,1-.49-.78v-.86a.24.24,0,0,1,.25-.25.24.24,0,0,1,.25.25v.85c0,.22,0,.25.21.35l.88.44a.79.79,0,0,0,.39.11.7.7,0,0,0,.35-.11l.88-.43c.21-.1.22-.15.22-.38v-.83a.24.24,0,0,1,.25-.25.24.24,0,0,1,.25.25Z" style="fill: #fff"/>
      <path d="M34.33,138.71a.76.76,0,0,1-.48.76l-.94.47a1.15,1.15,0,0,1-.53.14,1.11,1.11,0,0,1-.56-.14l-.94-.47a.76.76,0,0,1-.49-.78v-.86a.24.24,0,0,1,.25-.25.24.24,0,0,1,.25.25v.85c0,.22,0,.25.21.35l.88.44a.79.79,0,0,0,.39.11.7.7,0,0,0,.35-.11l.88-.43c.21-.1.22-.15.22-.38v-.83a.24.24,0,0,1,.25-.25.24.24,0,0,1,.25.25Z" style="fill: #fff"/>
    </g>
    <g>
      <path d="M40.46,145.88a.25.25,0,0,1-.51,0v-1h1a.76.76,0,0,1,.8.81v.87a.77.77,0,0,1-.2.58.73.73,0,0,1-.62.24H39.65a1,1,0,0,1-.74-.26l-.77-.6a.78.78,0,0,1-.35-.71v-.68a.25.25,0,0,1,.51,0v.61c0,.28,0,.26.21.43l.71.55a1,1,0,0,0,.66.16h1c.28,0,.37-.06.37-.35v-.81c0-.18,0-.33-.26-.33h-.52Z" style="fill: #fff"/>
      <path d="M38.06,141.72a.25.25,0,1,1,0-.51h3.7v.67l-3,1.33H41.5a.25.25,0,1,1,0,.51H37.8v-.67l3.08-1.33H38.06Z" style="fill: #fff"/>
      <path d="M38.31,139.58v.19c0,.17-.06.31-.25.31s-.25-.14-.25-.29v-.85a.76.76,0,0,1,.51-.77l.89-.45a1.17,1.17,0,0,1,1.15,0l.92.46a.77.77,0,0,1,.48.8v.84a.25.25,0,0,1-.51,0v-.24Zm2.94-.51V139c0-.21,0-.26-.21-.36l-.9-.45a.71.71,0,0,0-.33-.1.85.85,0,0,0-.42.13l-.86.42c-.22.11-.21.15-.21.39v.06Z" style="fill: #fff"/>
    </g>
    <g>
      <path d="M45.47,146.89v.19c0,.17-.06.31-.25.31s-.25-.14-.25-.29v-.85a.76.76,0,0,1,.51-.77l.89-.45a1.17,1.17,0,0,1,1.15,0l.92.46a.77.77,0,0,1,.48.8v.84a.25.25,0,0,1-.51,0v-.24Zm2.94-.51v-.1c0-.21,0-.26-.21-.36l-.9-.45a.71.71,0,0,0-.33-.1.85.85,0,0,0-.42.13l-.86.42c-.22.11-.21.15-.21.39v.06Z" style="fill: #fff"/>
      <path d="M48.41,142.22v-.75a.25.25,0,0,1,.51,0v2a.25.25,0,0,1-.51,0v-.75H45.47v.75a.25.25,0,0,1-.51,0v-2a.25.25,0,0,1,.51,0v.75Z" style="fill: #fff"/>
      <path d="M45.22,138.07a.25.25,0,1,1,0-.51h3.7v.67l-3,1.33h2.79a.25.25,0,1,1,0,.51H45v-.67L48,138.08H45.22Z" style="fill: #fff"/>
    </g>
    <g>
      <path d="M56.25,146a.76.76,0,0,1-.48.76l-.95.47a1.14,1.14,0,0,1-.53.14,1.11,1.11,0,0,1-.56-.14l-.94-.47a.76.76,0,0,1-.49-.78v-.86a.24.24,0,0,1,.25-.25.24.24,0,0,1,.25.25V146c0,.22,0,.25.21.35l.88.44a.79.79,0,0,0,.39.11.7.7,0,0,0,.35-.11l.88-.43c.21-.1.22-.15.22-.38v-.83a.24.24,0,0,1,.25-.25.24.24,0,0,1,.25.25Z" style="fill: #fff"/>
      <path d="M55.25,141.4a.66.66,0,0,1,.42-.18.57.57,0,0,1,.57.64V143a.75.75,0,0,1-.16.51.64.64,0,0,1-.47.24.27.27,0,0,1-.3-.27.24.24,0,0,1,.26-.24c.15,0,.17-.08.17-.22v-1.1s0-.17-.06-.17-.12.07-.15.09l-2.24,1.74a.61.61,0,0,1-.42.17.56.56,0,0,1-.49-.27.68.68,0,0,1-.09-.42V142a.72.72,0,0,1,.17-.5.69.69,0,0,1,.48-.24.26.26,0,0,1,.29.26.23.23,0,0,1-.24.24c-.17,0-.2.09-.2.24v1.08c0,.06,0,.17.07.17s.11-.06.14-.08Z" style="fill: #fff"/>
    </g>
    <g>
      <path d="M63.58,146a.76.76,0,0,1-.48.76l-.94.47a1.15,1.15,0,0,1-.53.14,1.11,1.11,0,0,1-.56-.14l-.94-.47a.76.76,0,0,1-.49-.78v-.86a.24.24,0,0,1,.25-.25.24.24,0,0,1,.25.25V146c0,.22,0,.25.21.35l.88.44a.78.78,0,0,0,.39.11.7.7,0,0,0,.35-.11l.88-.43c.21-.1.22-.15.22-.38v-.83a.24.24,0,0,1,.25-.25.24.24,0,0,1,.25.25Z" style="fill: #fff"/>
      <path d="M63.08,141.48a.25.25,0,0,1,.51,0v2.26h-3.7a.25.25,0,1,1,0-.51h3.19Z" style="fill: #fff"/>
      <path d="M59.89,140.08a.25.25,0,1,1,0-.51h1.17L59.74,138a.34.34,0,0,1-.1-.21.25.25,0,0,1,.26-.24.3.3,0,0,1,.21.12l1.49,1.75,1.49-1.74a.3.3,0,0,1,.22-.13.25.25,0,0,1,.26.24c0,.11-.09.19-.15.27l-1.28,1.48h1.17a.25.25,0,1,1,0,.51Z" style="fill: #fff"/>
    </g>
  </g>
  <g data-name="BLACK_SQUARE" id="BLACK_SQUARE">
    <rect height="27.87" style="fill: #151317" width="87.75" x="2.92" y="106.96"/>
  </g>
  <g id="SILVER">
    <rect height="4" style="fill: #9fa2a2" width="2.83" x="6.33" y="109.13"/>
    <rect height="4" style="fill: #9fa2a2" width="2.83" x="6.33" y="128.09"/>
    <rect height="4" style="fill: #9fa2a2" width="2.83" x="86.02" y="109.13"/>
    <rect height="4" style="fill: #9fa2a2" width="2.83" x="86.02" y="128.09"/>
    <rect height="4.75" style="fill: #9fa2a2" width="3.92" x="12.67" y="109.13"/>
    <rect height="4.75" style="fill: #9fa2a2" width="3.92" x="12.67" y="127.17"/>
    <rect height="4.75" style="fill: #9fa2a2" width="3.92" x="20.04" y="109.13"/>
    <rect height="4.75" style="fill: #9fa2a2" width="3.92" x="20.04" y="127.17"/>
    <rect height="4.75" style="fill: #9fa2a2" width="3.92" x="27.23" y="109.13"/>
    <rect height="4.75" style="fill: #9fa2a2" width="3.92" x="27.23" y="127.17"/>
    <rect height="4.75" style="fill: #9fa2a2" width="3.92" x="34.7" y="109.13"/>
    <rect height="4.75" style="fill: #9fa2a2" width="3.92" x="34.7" y="127.17"/>
    <rect height="4.75" style="fill: #9fa2a2" width="3.92" x="41.96" y="109.13"/>
    <rect height="4.75" style="fill: #9fa2a2" width="3.92" x="41.96" y="127.17"/>
    <rect height="4.75" style="fill: #9fa2a2" width="3.92" x="49.16" y="109.13"/>
    <rect height="4.75" style="fill: #9fa2a2" width="3.92" x="49.16" y="127.17"/>
    <rect height="4.75" style="fill: #9fa2a2" width="3.92" x="56.79" y="109.13"/>
    <rect height="4.75" style="fill: #9fa2a2" width="3.92" x="56.79" y="127.17"/>
    <rect height="4.75" style="fill: #9fa2a2" width="3.92" x="64.11" y="109.13"/>
    <rect height="4.75" style="fill: #9fa2a2" width="3.92" x="64.11" y="127.17"/>
    <rect height="4.75" style="fill: #9fa2a2" width="3.92" x="71.26" y="109.13"/>
    <rect height="4.75" style="fill: #9fa2a2" width="3.92" x="71.26" y="127.17"/>
    <rect height="4.75" style="fill: #9fa2a2" width="3.92" x="78.67" y="109.13"/>
    <rect height="4.75" style="fill: #9fa2a2" width="3.92" x="78.67" y="127.17"/>
  </g>
  <g id="ELLIPSE">
    <rect height="18.67" style="fill: #a5a9b4;opacity: 0.4" width="86.21" x="4.46" y="111.55"/>
    <path d="M5.5,112.88v5.51a2.64,2.64,0,0,1,.4,0,2.67,2.67,0,1,1,0,5.33,2.64,2.64,0,0,1-.4,0v5.9H89.92V112.88Z" style="fill: #393c46"/>
    <circle cx="16.58" cy="121.02" r="2.67" style="fill: #222429"/>
    <path d="M8.56,121a2.67,2.67,0,0,0-2.67-2.67,2.64,2.64,0,0,0-.4,0v5.25a2.64,2.64,0,0,0,.4,0A2.67,2.67,0,0,0,8.56,121Z" style="fill: #222429"/>
    <circle cx="78.44" cy="121.02" r="2.67" style="fill: #222429"/>
  </g>
  <g id="textmaxim">
    <g>
      <polygon points="48.78 118.1 50.36 118.1 52.07 116.39 52.07 114.81 48.78 118.1" style="fill: #4d4d4d"/>
      <g>
        <polygon points="40.48 118.1 42.06 118.1 43.77 116.39 43.77 114.81 40.48 118.1" style="fill: #4d4d4d"/>
        <polygon points="44.03 114.73 45.13 114.73 45.13 116.34 46.81 114.66 46.81 116.46 45.19 118.07 44.03 118.07 44.03 114.73" style="fill: #4d4d4d"/>
        <rect height="3.41" style="fill: #4d4d4d" width="1.18" x="47.09" y="114.66"/>
      </g>
      <g>
        <polygon points="60.81 118.1 62.39 118.1 64.11 116.39 64.11 114.81 60.81 118.1" style="fill: #4d4d4d"/>
        <polygon points="64.36 114.73 65.46 114.73 65.46 116.34 67.14 114.66 67.14 116.46 65.53 118.07 64.36 118.07 64.36 114.73" style="fill: #4d4d4d"/>
        <rect height="3.41" style="fill: #4d4d4d" width="1.18" x="67.43" y="114.66"/>
      </g>
      <polygon points="52.28 114.66 53.35 114.66 53.35 118.07 51.47 118.07 52.35 117.19 52.28 114.66" style="fill: #4d4d4d"/>
      <polygon points="53.78 114.66 55.16 114.66 55.97 115.48 55.25 116.2 53.78 114.66" style="fill: #4d4d4d"/>
      <polygon points="57.14 114.66 58.51 114.66 56.85 116.31 58.56 118.02 57.13 118.02 56.16 117.06 55.1 118.12 53.78 118.12 57.14 114.66" style="fill: #4d4d4d"/>
      <rect height="3.41" style="fill: #4d4d4d" width="1.03" x="59.21" y="114.66"/>
      <g>
        <path d="M43.5,120v3.14h-.42V121s0-.07,0-.11,0-.08,0-.13l-1,1.86a.18.18,0,0,1-.17.12h-.07a.18.18,0,0,1-.17-.12l-1-1.87s0,.08,0,.13,0,.08,0,.12v2.15h-.42V120h.46a.13.13,0,0,1,.06.07l1,1.82.06.13.05.14L42,122l.06-.13.94-1.82A.13.13,0,0,1,43,120h.46Z" style="fill: #4d4d4d"/>
        <path d="M46.68,123.11h-.37a.15.15,0,0,1-.1,0,.22.22,0,0,1-.06-.08l-.25-.69H44.62l-.25.69a.21.21,0,0,1-.06.08.15.15,0,0,1-.1,0h-.37L45,120h.49Zm-.91-1.18-.41-1.15a3.31,3.31,0,0,1-.1-.34q0,.1,0,.19l0,.15-.41,1.14Z" style="fill: #4d4d4d"/>
        <path d="M49.37,123.11h-.48a.11.11,0,0,1-.08,0l0-.06L48,121.76l0,0,0,0L47.27,123l-.05.06a.1.1,0,0,1-.07,0H46.7l1-1.61-1-1.53h.48l.08,0,0,0,.72,1.2,0-.05,0-.05.67-1.08,0-.06.06,0h.46l-1,1.5Z" style="fill: #4d4d4d"/>
        <path d="M51.64,120v.21a.49.49,0,0,1,0,.15l0,.1-1.17,2.52a.32.32,0,0,1-.09.12.23.23,0,0,1-.15,0h-.32l1.2-2.48.07-.12.07-.1H49.71a.1.1,0,0,1-.07,0,.11.11,0,0,1,0-.08V120Z" style="fill: #4d4d4d"/>
        <path d="M53.82,122.66a.15.15,0,0,1,.11,0,.16.16,0,0,1,0,.11v.28H52v-.16a.3.3,0,0,1,0-.1.27.27,0,0,1,.06-.1l.92-1,.21-.24a1.7,1.7,0,0,0,.16-.23,1.06,1.06,0,0,0,.1-.23.87.87,0,0,0,0-.25.61.61,0,0,0,0-.22.44.44,0,0,0-.1-.16.41.41,0,0,0-.15-.09.56.56,0,0,0-.19,0,.55.55,0,0,0-.19,0,.51.51,0,0,0-.15.08.48.48,0,0,0-.11.13.58.58,0,0,0-.06.16.22.22,0,0,1-.08.12.2.2,0,0,1-.14,0l-.23,0a1.23,1.23,0,0,1,.12-.39.91.91,0,0,1,.22-.28.9.9,0,0,1,.3-.17,1.12,1.12,0,0,1,.36-.06,1,1,0,0,1,.36.06.84.84,0,0,1,.29.18.8.8,0,0,1,.19.28,1,1,0,0,1,.07.37,1,1,0,0,1,0,.32,1.35,1.35,0,0,1-.13.28,2,2,0,0,1-.19.26l-.23.26-.72.78.18,0,.17,0Z" style="fill: #4d4d4d"/>
        <path d="M56.3,122.75v.36H54.68v-.36h.62v-2c0-.07,0-.14,0-.21l-.48.42-.06,0h-.06l0,0,0,0-.14-.2.89-.81h.36v2.79Z" style="fill: #4d4d4d"/>
        <path d="M58,121.88l.08-.1.07-.1a.81.81,0,0,1-.24.12.91.91,0,0,1-.28,0,.85.85,0,0,1-.31-.06.77.77,0,0,1-.26-.17.84.84,0,0,1-.18-.28,1,1,0,0,1-.07-.39,1,1,0,0,1,.07-.39,1,1,0,0,1,.21-.32,1,1,0,0,1,.32-.21,1.1,1.1,0,0,1,.81,0,.86.86,0,0,1,.31.21,1,1,0,0,1,.19.32,1.21,1.21,0,0,1,.07.41,1.46,1.46,0,0,1,0,.27,1.49,1.49,0,0,1-.07.25,1.79,1.79,0,0,1-.11.23l-.14.23-.7,1.06a.23.23,0,0,1-.09.08.3.3,0,0,1-.14,0h-.41Zm-.76-1a.6.6,0,0,0,.14.43.52.52,0,0,0,.39.15.59.59,0,0,0,.24,0,.53.53,0,0,0,.18-.12.52.52,0,0,0,.11-.18.65.65,0,0,0,0-.22.7.7,0,0,0,0-.25.53.53,0,0,0-.11-.18.49.49,0,0,0-.17-.12.59.59,0,0,0-.22,0,.56.56,0,0,0-.23,0,.51.51,0,0,0-.17.12.54.54,0,0,0-.11.18A.66.66,0,0,0,57.21,120.9Z" style="fill: #4d4d4d"/>
      </g>
    </g>
  </g>
  <g data-name="Connectors" id="Connectors-2">
    <rect height="1.13" id="circuitoCon_GND" style="fill: #c0bec2" width="1.13" x="39.36" y="170.25"/>
    <rect height="1.13" id="circuitoCon_DIN" style="fill: #c0bec2" width="1.13" x="46.56" y="170.25"/>
    <rect height="1.13" id="circuitoCon_CS" style="fill: #c0bec2" width="1.13" x="53.65" y="170.25"/>
    <rect height="1.13" id="circuitoCon_CLK" style="fill: #c0bec2" width="1.13" x="60.85" y="170.25"/>
    <rect height="1.13" id="circuitoCon_VCC" style="fill: #c0bec2" width="1.13" x="32.16" y="170.25"/>
    <rect height="1.13" id="circuitoCon_CS_PT" style="fill: #c0bec2" width="1.13" x="54.42" y="0.57"/>
    <rect height="1.13" id="circuitoCon_DIN_CHN" style="fill: #c0bec2" width="1.13" x="47.22" y="0.57"/>
    <rect height="1.13" id="circuitoCon_GND_PT" style="fill: #c0bec2" width="1.13" x="40.13" y="0.57"/>
    <rect height="1.13" id="circuitoCon_VCC_PT" style="fill: #c0bec2" width="1.13" x="32.93" y="0.57"/>
    <rect height="1.13" id="circuitoCon_CLK_PT" style="fill: #c0bec2" width="1.13" x="61.62" y="0.57"/>
  </g>
</svg>