<?xml version="1.0" ?><svg height="18.76mm" viewBox="0 0 35.18 53.19" width="12.41mm" xmlns="http://www.w3.org/2000/svg">
  <title>Adafruit MiCS5524 CO, Alcohol and VOC Gas Sensor Breakout</title>
  <g id="holes">
    <path d="M29.68,0H5.5A5.5,5.5,0,0,0,0,5.5V47.69a5.5,5.5,0,0,0,5.5,5.5H29.68a5.5,5.5,0,0,0,5.5-5.5V5.5A5.5,5.5,0,0,0,29.68,0ZM6.73,49.44a1.83,1.83,0,1,1,1.83-1.83A1.83,1.83,0,0,1,6.73,49.44Zm.41-39.21a3.68,3.68,0,1,1,3.67-3.68A3.68,3.68,0,0,1,7.14,10.23Zm6.79,39.21a1.83,1.83,0,1,1,1.83-1.83A1.83,1.83,0,0,1,13.93,49.44Zm7.19,0A1.83,1.83,0,1,1,23,47.61,1.83,1.83,0,0,1,21.12,49.44Zm3.59-9a.9.9,0,1,1,.89-.9A.9.9,0,0,1,24.71,40.41Zm3.6,9a1.83,1.83,0,1,1,1.83-1.83A1.83,1.83,0,0,1,28.31,49.44Zm.24-39.21a3.68,3.68,0,1,1,3.68-3.68A3.68,3.68,0,0,1,28.55,10.23Z" style="fill: #1a2c80"/>
  </g>
  <g id="LINES">
    <path d="M24.88,1H10.39s5.3,2.84,2.2,8.93a7.45,7.45,0,0,1-6,3.07c1.16,3.28-2,6.22-5.86,4.32V45.62S.53,52,7.87,51.78s22,0,22,0,5.4-1.25,4.4-6.56l-2.56,2.62a3.74,3.74,0,0,1-5.27,2.88,3.16,3.16,0,0,1-1.57-2s-.35-.57-.6.29a4,4,0,0,1-3.42,2.07,3.78,3.78,0,0,1-3.08-2.3c-.56-1.31-.81,1.28-2,1.78s-1,.39-1,.39V49.86H13.44v.94a3.2,3.2,0,0,1-2.53-1.53c-.79-1.47-.74-.65-1.16.17a3,3,0,0,1-2.5,1.5A3.38,3.38,0,0,1,4,49.19a3.26,3.26,0,0,1,.58-4.27,3.58,3.58,0,0,1,5.06.28c1.13,1.3.66,1.69,1.46.72s1.47-1.75,2.42-1.65v1h1.34V44.12a3.7,3.7,0,0,1,2.67,2.35s.43.48.76-.53a.86.86,0,0,1,.41-.66c.41-.3.37-.66-.41-1.28s-5.93-5.92-5.93-5.92V34.47H7.06v.65c-.6,0-.6,1.28,0,1.28v1.21H4.6l.93.93V39H6.89v1.33l-.49.49H4.84V39.44H3.23v1.4h-1s-1.2,0-.89-1.7h1l.59-1.53H1.17V36.52c.65,0,.65-1.5,0-1.5V30.84l.51-.5h5l.53.52v.78h5.69l-.87.75-6.89-.07L5,33.53h9.28l-.59-4.8-6.5-.13-.64.85H2l-.64-.63v-4c.52,0,.52-1.17,0-1.17V22.25H3V20.52H1.37V19.4L1.82,19H3.5v1.41H4.86V18.92H6.47l.56.56a1.72,1.72,0,0,1,1.78-1.23c1.47,0,3.84-3.43,3.84-3.43V11.08s-.15-1,1.29-1,1.29,0,1.29,0a1,1,0,0,1,.8,1.16V15h3.7V11a.94.94,0,0,1,.85-.8c.73,0,1.87,0,1.87,0a.93.93,0,0,1,.67.94c0,.77,0,4.39,0,4.39l.69,3.19h4.1l.58.58h2.07v1H32V19.3h1.83l.45.44v1.31H31.44v1.57h2.78v1c-.67,0-.67,1.5,0,1.5v4l-.46.46v1.25l.8.25V17.9a4.48,4.48,0,0,1-3.87.12c-2-.94-2.09-4.06-1.59-4.81,0,0-5.77-.39-6.64-5.08s2-6.34,2.83-7C25.29,1.17,25.62,1,24.88,1Z" style="fill: #0b5597"/>
    <path d="M13.41,32.84V38l7.36,7.37h1.45l-7.56-7.55V32h1.1V36.4l-.9.89,8.67,7.63.72.86c.14.59.21,1.38,1,.28,0,0,.85-2.34,4.47-1.69a3.51,3.51,0,0,1,.84.69c.25.35.5-.64,1.19-.94V41.41h-4V37.53H26.27s1.44,2.33-.23,3.31c-3.2,1.89-3.95-2.26-2.6-2.89V35.22l1.28-1.29H22.88v2.6l-.47.47H20.16l-.56-.55v-4Z" style="fill: #0b5597"/>
    <polyline points="30.56 47.06 33.28 44.34 33.28 36.94" style="fill: none;stroke: #0b5597;stroke-linecap: round;stroke-linejoin: round;stroke-width: 0.75px"/>
    <line style="fill: none;stroke: #0b5597;stroke-linecap: round;stroke-linejoin: round;stroke-width: 0.75px" x1="32.56" x2="32.56" y1="32.03" y2="27.96"/>
    <polyline points="23.53 27.08 27 30 29.13 30 29.95 30.83 29.95 35.22" style="fill: none;stroke: #0b5597;stroke-linecap: round;stroke-linejoin: round;stroke-width: 0.75px"/>
    <polyline points="27.13 33.38 24.63 35.63 24.63 38.29" style="fill: none;stroke: #0b5597;stroke-linecap: round;stroke-linejoin: round;stroke-width: 0.75px"/>
    <circle cx="24.71" cy="39.51" r="1.12" style="fill: none;stroke: #0b5597;stroke-linecap: round;stroke-linejoin: round;stroke-width: 0.75px"/>
  </g>
  <g id="etxt">
    <rect height="1.76" rx="0.81" ry="0.81" style="fill: #ebddba" width="19.83" x="7.9" y="19.19"/>
    <rect height="1.76" rx="0.81" ry="0.81" style="fill: #ebddba" width="19.83" x="7.9" y="22.69"/>
    <rect height="1.76" rx="0.81" ry="0.81" style="fill: #ebddba" width="19.83" x="7.9" y="26.2"/>
    <rect height="4.02" rx="0.36" ry="0.36" style="fill: #b6b189" width="1.66" x="13.25" y="32.3"/>
    <rect height="4.02" rx="0.36" ry="0.36" style="fill: #b6b189" width="1.66" x="20.39" y="32.3"/>
    <rect height="4.02" rx="0.36" ry="0.36" style="fill: #b6b189" width="1.66" x="13.25" y="11.38"/>
    <rect height="4.02" rx="0.36" ry="0.36" style="fill: #b6b189" width="1.66" x="20.39" y="11.38"/>
    <rect height="18.76" rx="1.77" ry="1.77" style="fill: #fafbfe" width="13.25" x="11.25" y="14.28"/>
    <path d="M7.14,1.75a4.8,4.8,0,1,0,4.8,4.8A4.8,4.8,0,0,0,7.14,1.75Zm0,8.48a3.68,3.68,0,1,1,3.67-3.68A3.68,3.68,0,0,1,7.14,10.23Z" style="fill: #7f694b"/>
    <circle cx="7.14" cy="6.55" r="5.68" style="fill: none;stroke: #fff;stroke-miterlimit: 10;stroke-width: 0.5px"/>
    <path d="M28.55,1.75a4.8,4.8,0,1,0,4.8,4.8A4.8,4.8,0,0,0,28.55,1.75Zm0,8.48a3.68,3.68,0,1,1,3.68-3.68A3.68,3.68,0,0,1,28.55,10.23Z" style="fill: #7f694b"/>
    <circle cx="28.55" cy="6.55" r="5.68" style="fill: none;stroke: #fff;stroke-miterlimit: 10;stroke-width: 0.5px"/>
    <g>
      <circle cx="32.44" cy="14.82" r="2.74" style="fill: #6d8788"/>
      <circle cx="32.44" cy="14.82" r="1.43" style="fill: #d6c598"/>
    </g>
    <g>
      <circle cx="3.16" cy="14.82" r="2.74" style="fill: #6d8788"/>
      <circle cx="3.16" cy="14.82" r="1.43" style="fill: #d6c598"/>
    </g>
    <g>
      <path d="M6.61,27.42a1.19,1.19,0,0,1-1.15,1.23H2.62a1.23,1.23,0,0,1,0-2.45H5.46A1.18,1.18,0,0,1,6.61,27.42Z" style="fill: #bababa"/>
      <path d="M6.61,20.89a1.19,1.19,0,0,1-1.15,1.22H2.62a1.23,1.23,0,0,1,0-2.45H5.46A1.19,1.19,0,0,1,6.61,20.89Z" style="fill: #bababa"/>
      <rect height="6.53" rx="0.58" ry="0.58" style="fill: #e0e0e0" transform="translate(8.07 48.31) rotate(180)" width="3.13" x="2.47" y="20.89"/>
      <rect height="3.06" transform="translate(8.07 48.44) rotate(180)" width="3.13" x="2.47" y="22.69"/>
    </g>
    <g>
      <path d="M3.77,22.76H4a.09.09,0,0,1,.07,0,.11.11,0,0,1,0,.06h.3a.05.05,0,0,1,0,0v.18s0,0,0,0h-.3a.14.14,0,0,1,0,.07.09.09,0,0,1-.07,0H3.77a.07.07,0,0,1-.06,0,.09.09,0,0,1,0-.07v-.27a.07.07,0,0,1,0-.06A.09.09,0,0,1,3.77,22.76Zm.22.09H3.77v.27H4Zm.31.09H4.08V23H4.3Z" style="fill: #fff"/>
      <path d="M3.68,23.84v-.41H4a.09.09,0,0,1,.07,0s0,0,0,.06v.27H4.3v-.32l0,0,0,0,0,0,0,0v.32a.09.09,0,0,1,0,.07.08.08,0,0,1-.07,0H4.08a.07.07,0,0,1-.06,0,.09.09,0,0,1,0-.07v-.27H3.77v.32a0,0,0,0,1,0,0H3.69A0,0,0,0,1,3.68,23.84Z" style="fill: #fff"/>
      <path d="M3.72,24.1H4.4v.32a.15.15,0,0,1,0,.09.13.13,0,0,1-.1,0h0a.13.13,0,0,1-.1,0,.1.1,0,0,1,0-.09v-.06l-.32.18H3.69a0,0,0,0,1,0,0,.05.05,0,0,1,0,0l.37-.22v-.06H3.72l0,0s0,0,0,0a0,0,0,0,1,0,0Zm.44.09v.23a0,0,0,0,0,0,0h.12a0,0,0,0,0,0,0v-.23Z" style="fill: #fff"/>
      <path d="M4.33,25.1l-.2.1-.09,0L4,25.2l-.2-.1a.11.11,0,0,1,0-.17l0-.05.2-.1.09,0,.09,0,.2.1a.12.12,0,0,1,0,.22Zm0-.14-.19-.09,0,0-.06,0L3.79,25l0,0s0,0,0,0l.19.09.06,0,0,0L4.28,25s0,0,0,0S4.3,25,4.28,25Z" style="fill: #fff"/>
    </g>
    <g>
      <path d="M6.61,38.84a1.19,1.19,0,0,1-1.15,1.22H2.62a1.23,1.23,0,0,1,0-2.45H5.46A1.19,1.19,0,0,1,6.61,38.84Z" style="fill: #bababa"/>
      <path d="M6.61,32.3a1.19,1.19,0,0,1-1.15,1.23H2.62a1.23,1.23,0,0,1,0-2.45H5.46A1.18,1.18,0,0,1,6.61,32.3Z" style="fill: #bababa"/>
      <rect height="6.53" rx="0.58" ry="0.58" style="fill: #e0e0e0" transform="translate(8.07 71.14) rotate(180)" width="3.13" x="2.47" y="32.3"/>
      <rect height="3.06" transform="translate(8.07 71.27) rotate(180)" width="3.13" x="2.47" y="34.1"/>
    </g>
    <g>
      <path d="M3.77,34.39v.14H4.3v-.14l0,0h.06l0,0v.23H3.77v.09H4a0,0,0,0,1,0,0s0,0,0,0h-.3s0,0,0,0v-.36a0,0,0,0,1,0,0l0,0,0,0A0,0,0,0,1,3.77,34.39Z" style="fill: #fff"/>
      <path d="M3.77,35h.54l.06,0a.06.06,0,0,1,0,.06v.28a.11.11,0,0,1-.09.09H3.77a.06.06,0,0,1-.06,0,.09.09,0,0,1,0-.06V35.1A.11.11,0,0,1,3.77,35Zm0,.37H4.3V35.1H3.77Z" style="fill: #fff"/>
      <path d="M3.77,35.68h.54l.06,0a.09.09,0,0,1,0,.07v.28a.09.09,0,0,1,0,.06.07.07,0,0,1-.06,0H3.77s0,0-.06,0a.09.09,0,0,1,0-.06v-.28a.09.09,0,0,1,0-.07Zm0,.37H4.3v-.28H3.77Z" style="fill: #fff"/>
      <path d="M3.68,36.76v-.41H4a.07.07,0,0,1,.09.09v.27H4.3v-.32s0,0,0,0l0,0,0,0s0,0,0,0v.32a.09.09,0,0,1,0,.07l-.07,0H4.08l-.06,0a.09.09,0,0,1,0-.07v-.27H3.77v.32a0,0,0,0,1,0,0H3.69A0,0,0,0,1,3.68,36.76Z" style="fill: #fff"/>
    </g>
    <g>
      <path d="M28.71,21a1.19,1.19,0,0,1,1.16-1.22h2.84a1.23,1.23,0,0,1,0,2.45H29.87A1.2,1.2,0,0,1,28.71,21Z" style="fill: #bababa"/>
      <path d="M28.71,27.48a1.19,1.19,0,0,1,1.16-1.22h2.84a1.23,1.23,0,0,1,0,2.45H29.87A1.2,1.2,0,0,1,28.71,27.48Z" style="fill: #bababa"/>
      <rect height="6.53" rx="0.58" ry="0.58" style="fill: #e0e0e0" width="3.13" x="29.72" y="20.95"/>
      <rect height="3.06" width="3.13" x="29.72" y="22.62"/>
    </g>
    <g>
      <path d="M31.55,25.4v-.14H31v.14s0,0,0,0h-.07a0,0,0,0,1,0,0v-.23h.62v-.09h-.22s0,0,0,0a0,0,0,0,1,0,0h.3a0,0,0,0,1,0,0v.37a0,0,0,0,1,0,0h0s0,0,0,0S31.55,25.41,31.55,25.4Z" style="fill: #fff"/>
      <path d="M31.56,24.78H31a.09.09,0,0,1-.06,0,.14.14,0,0,1,0-.06v-.28a.08.08,0,0,1,0-.06.09.09,0,0,1,.06,0h.55a.09.09,0,0,1,.06,0,.08.08,0,0,1,0,.06v.28a.14.14,0,0,1,0,.06A.09.09,0,0,1,31.56,24.78Zm0-.37H31v.28h.53Z" style="fill: #fff"/>
      <path d="M31.56,24.11H31a.09.09,0,0,1-.06,0,.08.08,0,0,1,0-.06v-.28a.14.14,0,0,1,0-.06.09.09,0,0,1,.06,0h.55a.09.09,0,0,1,.06,0,.14.14,0,0,1,0,.06V24a.08.08,0,0,1,0,.06A.09.09,0,0,1,31.56,24.11Zm0-.37H31V24h.53Z" style="fill: #fff"/>
      <path d="M31.64,23v.41h-.31a.11.11,0,0,1-.09-.09v-.27H31v.32s0,0,0,0h-.07a0,0,0,0,1,0,0v-.32A.09.09,0,0,1,31,23,.06.06,0,0,1,31,23h.22a.07.07,0,0,1,.06,0,.09.09,0,0,1,0,.07v.27h.22V23s0,0,0,0l0,0,0,0A0,0,0,0,1,31.64,23Z" style="fill: #fff"/>
    </g>
    <g>
      <path d="M26.37,34.07h.05v.25a.08.08,0,0,0,.09.08h1a.08.08,0,0,0,.08-.08v-.25h.59a.27.27,0,0,0,.27-.27V32a.26.26,0,0,0-.27-.26h-1.8a.26.26,0,0,0-.27.26V33.8A.27.27,0,0,0,26.37,34.07Z" style="fill: #aeaba8"/>
      <path d="M31.28,34h0v.25a.08.08,0,0,0,.09.08h1a.08.08,0,0,0,.09-.08V34h.58a.28.28,0,0,0,.28-.27V31.92a.27.27,0,0,0-.28-.26H31.28a.27.27,0,0,0-.28.26v1.85A.28.28,0,0,0,31.28,34Z" style="fill: #aeaba8"/>
      <path d="M30.7,37.86h-.06v-.25a.08.08,0,0,0-.09-.08H29.47a.08.08,0,0,0-.09.08v.25h-.64a.28.28,0,0,0-.3.27V40a.28.28,0,0,0,.3.26h2A.28.28,0,0,0,31,40V38.13A.28.28,0,0,0,30.7,37.86Z" style="fill: #aeaba8"/>
      <rect height="3.89" rx="0.91" ry="0.91" style="fill: #3c3c3e" transform="translate(59.44 72.33) rotate(180)" width="7.92" x="25.76" y="34.22"/>
    </g>
    <g>
      <path d="M21.17,37.91A2.46,2.46,0,0,0,19,37.62a3.64,3.64,0,0,0-.27-2c-.14-.46-.35-.62-.73-.05a2.19,2.19,0,0,0-.88,1.79c-.37-.53-1.11-.57-2-.45-.58,0-.63.3-.35.71A2.54,2.54,0,0,0,16,38.9c.29,0,.43.1.2.21a2.65,2.65,0,0,0-.89,1.82c-.14.58.13.58.55.36a2.41,2.41,0,0,0,1.57-.73c.16-.17.28-.28.28-.09a.55.55,0,0,0,.17.45,5.43,5.43,0,0,0,1.29,1c.31.23.46.12.46-.27a6.61,6.61,0,0,0,.11-.85,1.58,1.58,0,0,0-.06-.78,1.44,1.44,0,0,0-.08-.17l-.2-.16c-.21-.2-.15-.29.15-.25a2.08,2.08,0,0,0,1.6-.82C21.53,38.34,21.5,38.1,21.17,37.91Z" style="fill: #fff"/>
      <path d="M16.84,38.33a1.74,1.74,0,0,1-.73-.23,1.62,1.62,0,0,1-.56-.52,1.74,1.74,0,0,1,1.29.75Z" style="fill: #1f377e"/>
      <path d="M20.39,38.38a1.77,1.77,0,0,1-.72.25,1.81,1.81,0,0,1-.76-.07,1.7,1.7,0,0,1,.72-.26A1.67,1.67,0,0,1,20.39,38.38Z" style="fill: #1f377e"/>
      <path d="M18,37.8A1.65,1.65,0,0,1,18,37a1.72,1.72,0,0,1,.27-.72,1.7,1.7,0,0,1,.06.77A1.63,1.63,0,0,1,18,37.8Z" style="fill: #1f377e"/>
      <path d="M19.06,40.84a1.58,1.58,0,0,1-.55-.54,1.65,1.65,0,0,1-.27-.71,1.86,1.86,0,0,1,.55.53A1.74,1.74,0,0,1,19.06,40.84Z" style="fill: #1f377e"/>
      <path d="M16.2,40.58a1.66,1.66,0,0,1,.4-.65,1.78,1.78,0,0,1,.64-.42,1.59,1.59,0,0,1-.4.65A1.66,1.66,0,0,1,16.2,40.58Z" style="fill: #1f377e"/>
    </g>
    <polyline points="10.44 28.9 10.44 33.9 12.81 33.9" style="fill: none;stroke: #fff;stroke-linecap: round;stroke-linejoin: round;stroke-width: 0.5px"/>
    <polyline points="25.25 28.9 25.25 33.9 22.88 33.9" style="fill: none;stroke: #fff;stroke-linecap: round;stroke-linejoin: round;stroke-width: 0.5px"/>
    <line style="fill: none;stroke: #fff;stroke-linecap: round;stroke-linejoin: round;stroke-width: 0.5px" x1="15.76" x2="19.85" y1="33.9" y2="33.9"/>
    <polyline points="25.2 18.75 25.2 13.75 22.83 13.75" style="fill: none;stroke: #fff;stroke-linecap: round;stroke-linejoin: round;stroke-width: 0.5px"/>
    <polyline points="10.39 18.75 10.39 13.75 12.77 13.75" style="fill: none;stroke: #fff;stroke-linecap: round;stroke-linejoin: round;stroke-width: 0.5px"/>
    <line style="fill: none;stroke: #fff;stroke-linecap: round;stroke-linejoin: round;stroke-width: 0.5px" x1="19.88" x2="15.79" y1="13.75" y2="13.75"/>
    <circle cx="8.9" cy="17.56" r="1.13" style="fill: #fff"/>
    <circle cx="15.55" cy="16.65" r="0.65"/>
    <circle cx="17.84" cy="16.65" r="0.65"/>
    <circle cx="20.3" cy="16.65" r="0.65"/>
    <circle cx="15.55" cy="19.4" r="0.65"/>
    <circle cx="17.84" cy="19.4" r="0.65"/>
    <circle cx="20.3" cy="19.4" r="0.65"/>
    <circle cx="15.55" cy="22.15" r="0.65"/>
    <circle cx="17.84" cy="22.15" r="0.65"/>
    <circle cx="20.3" cy="22.15" r="0.65"/>
    <circle cx="15.55" cy="25.04" r="0.65"/>
    <circle cx="17.84" cy="25.04" r="0.65"/>
    <circle cx="20.3" cy="25.04" r="0.65"/>
    <circle cx="15.55" cy="27.96" r="0.65"/>
    <circle cx="17.84" cy="27.96" r="0.65"/>
    <circle cx="20.3" cy="27.96" r="0.65"/>
    <circle cx="15.55" cy="30.65" r="0.65"/>
    <circle cx="17.84" cy="30.65" r="0.65"/>
    <circle cx="20.3" cy="30.65" r="0.65"/>
    <path d="M9.48,36.88h1.06c.56,0,.82.34.82.88a.74.74,0,0,1-.25.6.82.82,0,0,1,.25.68.75.75,0,0,1-.82.79H9.48Zm.38,1.29h.68c.28,0,.44-.13.44-.41s-.09-.5-.44-.5H9.86Zm0,1.28h.68c.28,0,.44-.12.44-.41s-.09-.49-.44-.49H9.86Z" style="fill: #fff"/>
    <circle cx="10.32" cy="38.53" r="2.45" style="fill: none;stroke: #fff;stroke-miterlimit: 10"/>
    <polyline points="25.04 34.4 25.04 38.4 27.83 38.4" style="fill: none;stroke: #fff;stroke-linecap: round;stroke-linejoin: round;stroke-width: 0.5px"/>
    <polyline points="34.67 34.31 34.67 38.4 31.75 38.4" style="fill: none;stroke: #fff;stroke-linecap: round;stroke-linejoin: round;stroke-width: 0.5px"/>
    <line style="fill: none;stroke: #fff;stroke-linecap: round;stroke-linejoin: round;stroke-width: 0.5px" x1="26.27" x2="30.56" y1="41.41" y2="41.41"/>
  </g>
  <g id="text">
    <g>
      <path d="M5.47,43.83h.66v-.69H5.27V41.88h1a.13.13,0,0,1,.1,0,.18.18,0,0,1,0,.1.14.14,0,0,1-.14.14H5.56v.69h.57a.25.25,0,0,1,.19.09.25.25,0,0,1,.09.2v.69a.3.3,0,0,1-.08.2.27.27,0,0,1-.2.08H5.47a.46.46,0,0,1-.19,0L5.07,44A.13.13,0,0,1,5,43.85a.15.15,0,0,1,0-.1.13.13,0,0,1,.1,0,.16.16,0,0,1,.09,0l.19.08Z" style="fill: #fff"/>
      <path d="M8.47,42.63v.27L8,44c0,.06-.07.1-.12.1H7.67A.16.16,0,0,1,7.52,44L7,42.9v-.27a.14.14,0,0,1,0-.1.12.12,0,0,1,.1,0,.14.14,0,0,1,.1,0,.18.18,0,0,1,0,.1v.22l.43,1,.43-1v-.22a.14.14,0,0,1,.14-.14.12.12,0,0,1,.1,0A.14.14,0,0,1,8.47,42.63Z" style="fill: #fff"/>
    </g>
    <g>
      <path d="M19.33,43.92,19.91,42a.13.13,0,0,1,.14-.1.13.13,0,0,1,.13.08l.57,2v0a.14.14,0,0,1,0,.1.13.13,0,0,1-.09,0,.14.14,0,0,1-.14-.11l-.11-.38h-.65l-.13.41a.05.05,0,0,1,0,.05.11.11,0,0,1-.08,0,.15.15,0,0,1-.1,0,.15.15,0,0,1,0-.11Zm.72-1.39-.25.81h.48Z" style="fill: #fff"/>
      <path d="M22.84,43v.6a.47.47,0,0,1-.18.35.53.53,0,0,1-.37.16H22a.52.52,0,0,1-.37-.16.48.48,0,0,1-.18-.35V43a.51.51,0,0,1,.17-.35.54.54,0,0,1,.38-.16h.33a.52.52,0,0,1,.37.15A.48.48,0,0,1,22.84,43ZM21.7,43v.58a.13.13,0,0,0,.05.12l.11.09a.15.15,0,0,0,.1,0h.33a.24.24,0,0,0,.13,0l.08-.08a.11.11,0,0,0,.06-.11V43a.15.15,0,0,0-.06-.13l-.1-.08a.15.15,0,0,0-.11,0H22a.25.25,0,0,0-.15,0l-.09.08A.12.12,0,0,0,21.7,43Z" style="fill: #fff"/>
    </g>
    <g>
      <path d="M27.67,42.16h-1v.69h.43a.15.15,0,0,1,.1,0,.16.16,0,0,1,.05.1.14.14,0,0,1-.15.15h-.43v.69h1a.18.18,0,0,1,.1,0,.15.15,0,0,1,0,.11.14.14,0,0,1-.15.14H26.39V41.88h1.28a.15.15,0,0,1,.11,0,.14.14,0,0,1,0,.2A.15.15,0,0,1,27.67,42.16Z" style="fill: #fff"/>
      <path d="M29.15,42.82l-.39.25V44a.21.21,0,0,1,0,.1.18.18,0,0,1-.1,0,.15.15,0,0,1-.1,0,.16.16,0,0,1-.05-.1V42.63a.14.14,0,0,1,.05-.1.12.12,0,0,1,.1,0,.13.13,0,0,1,.1,0,.18.18,0,0,1,0,.1v.1l.26-.16a.47.47,0,0,1,.29-.08h.13a.45.45,0,0,1,.43.41l0,1.08a.14.14,0,0,1,0,.1.14.14,0,0,1-.24-.1l0-1.06a.14.14,0,0,0-.16-.15h-.14A.27.27,0,0,0,29.15,42.82Z" style="fill: #fff"/>
    </g>
    <g>
      <path d="M11.77,41.88h.47a.14.14,0,0,1,.14.14.14.14,0,0,1-.14.14h-.45a.14.14,0,0,0-.11.06l-.4.52a.25.25,0,0,0,0,.16v.79a.18.18,0,0,0,0,.1.13.13,0,0,0,.1,0H12a.14.14,0,0,0,.14-.14v-.31H11.8a.14.14,0,0,1-.14-.14.13.13,0,0,1,0-.1.15.15,0,0,1,.1,0h.58v.59a.42.42,0,0,1-.13.3.38.38,0,0,1-.3.13h-.58a.38.38,0,0,1-.3-.13.41.41,0,0,1-.12-.3v-.78a.55.55,0,0,1,.11-.36l.42-.53a.4.4,0,0,1,.12-.1A.35.35,0,0,1,11.77,41.88Z" style="fill: #fff"/>
      <path d="M14.46,42v2.1h-.38l-.76-1.74V44a.14.14,0,0,1,0,.1.14.14,0,0,1-.2,0,.14.14,0,0,1,0-.1v-2.1h.37l.77,1.73V42a.14.14,0,0,1,.14-.14.12.12,0,0,1,.1,0A.13.13,0,0,1,14.46,42Z" style="fill: #fff"/>
      <path d="M15.26,41.88h.56A.36.36,0,0,1,16,42a.38.38,0,0,1,.15.16l.28.57a.72.72,0,0,1,.08.32.68.68,0,0,1-.09.32l-.28.56a.41.41,0,0,1-.15.17.39.39,0,0,1-.23.07h-.54a.18.18,0,0,1-.1,0,.14.14,0,0,1,0-.1.15.15,0,0,1,0-.11.13.13,0,0,1,.1,0h.15V42.16h-.15a.14.14,0,1,1,0-.28Zm.43.28v1.67h.1a.15.15,0,0,0,.14-.09l.28-.56a.35.35,0,0,0,.05-.18.33.33,0,0,0,0-.17l-.29-.58a.16.16,0,0,0-.15-.09Z" style="fill: #fff"/>
    </g>
    <g>
      <path d="M21.2,9.72V8.9h-.86V10H18.78V8.73a.13.13,0,0,1,0-.12A.14.14,0,0,1,19,8.55a.17.17,0,0,1,.18.18v.88H20V8.9a.33.33,0,0,1,.1-.24.34.34,0,0,1,.25-.11h.86a.36.36,0,0,1,.25.11.33.33,0,0,1,.1.24v.82a.68.68,0,0,1-.05.23l-.11.26a.16.16,0,0,1-.17.11.17.17,0,0,1-.13-.05.16.16,0,0,1-.05-.11.19.19,0,0,1,0-.12l.09-.24A.11.11,0,0,0,21.2,9.72Z" style="fill: #fff"/>
      <path d="M21.2,7.13V6.32h-.86V7.38H18.78V6.14A.17.17,0,0,1,19,6a.17.17,0,0,1,.18.17V7H20v-.7A.34.34,0,0,1,20.34,6h.86a.35.35,0,0,1,.25.1.33.33,0,0,1,.1.25v.81a.68.68,0,0,1-.05.23l-.11.27a.18.18,0,0,1-.17.11.21.21,0,0,1-.13,0A.17.17,0,0,1,21,7.57a.24.24,0,0,1,0-.12l.09-.23A.16.16,0,0,0,21.2,7.13Z" style="fill: #fff"/>
      <path d="M21.55,3.59v1.6H20.34a.33.33,0,0,1-.25-.1A.34.34,0,0,1,20,4.84V3.77h-.85V5A.17.17,0,0,1,19,5.2.17.17,0,0,1,18.78,5V3.77a.35.35,0,0,1,.1-.25.33.33,0,0,1,.25-.1H20a.32.32,0,0,1,.25.1.36.36,0,0,1,.11.25V4.84h.86V3.59a.18.18,0,0,1,.05-.12.15.15,0,0,1,.12-.05.17.17,0,0,1,.13.05A.18.18,0,0,1,21.55,3.59Z" style="fill: #fff"/>
      <path d="M21.37,1.45h-.73V2.51H19a.21.21,0,0,1-.13,0,.21.21,0,0,1-.05-.13A.17.17,0,0,1,19,2.16h1.34V1.45h-1a.17.17,0,0,1-.18-.17.21.21,0,0,1,.05-.13.21.21,0,0,1,.13,0h1A.13.13,0,0,1,20.34,1a.13.13,0,0,1,.12,0,.17.17,0,0,1,.18.17h.73a.21.21,0,0,1,.13,0,.21.21,0,0,1,.05.13.17.17,0,0,1-.18.17Z" style="fill: #fff"/>
    </g>
    <g>
      <path d="M15.57,9.19h-.09L15,9.55h2.12a.17.17,0,0,1,.17.18.13.13,0,0,1-.05.12.15.15,0,0,1-.12.05H14.47V9.45L15.1,9l-.63-.45V8.13h2.61a.17.17,0,0,1,.17.18.17.17,0,0,1-.17.17H15l.5.36h.1a.16.16,0,0,1,.12.05.21.21,0,0,1,.05.12.21.21,0,0,1-.05.13A.21.21,0,0,1,15.57,9.19Z" style="fill: #fff"/>
      <path d="M17.25,5.89V7a.17.17,0,0,1-.18.18.18.18,0,0,1-.12,0A.21.21,0,0,1,16.9,7V6.6H15.59V7a.14.14,0,0,1-.06.12.13.13,0,0,1-.12,0A.17.17,0,0,1,15.23,7V6.42a.17.17,0,0,1,0-.12.21.21,0,0,1,.13,0H16.9V5.9A.17.17,0,0,1,17,5.77a.13.13,0,0,1,.12,0,.17.17,0,0,1,.13,0A.18.18,0,0,1,17.25,5.89Zm-2.93.72V6.42a.17.17,0,0,1,0-.12.19.19,0,0,1,.13,0h.15a.18.18,0,0,1,.12,0,.14.14,0,0,1,.06.12v.19a.18.18,0,0,1-.06.13.21.21,0,0,1-.12,0H14.5a.15.15,0,0,1-.13,0A.17.17,0,0,1,14.32,6.61Z" style="fill: #fff"/>
      <path d="M16.9,3.76V3.13A.19.19,0,0,1,17,3a.17.17,0,0,1,.13,0,.13.13,0,0,1,.12,0,.15.15,0,0,1,.05.13v.65a.44.44,0,0,1-.08.26.53.53,0,0,1-.17.19l-.79.4a.72.72,0,0,1-.35.08.74.74,0,0,1-.34-.07l-.77-.41a.54.54,0,0,1-.19-.18.45.45,0,0,1-.09-.24v-.7A.14.14,0,0,1,14.53,3a.13.13,0,0,1,.12-.05.17.17,0,0,1,.18.17v.67c0,.06,0,.1.1.14l.73.39a.4.4,0,0,0,.2,0,.42.42,0,0,0,.22,0l.71-.37A.16.16,0,0,0,16.9,3.76Z" style="fill: #fff"/>
      <path d="M14.47,1.74V.83a.45.45,0,0,1,.15-.32A.43.43,0,0,1,15,.36a.21.21,0,0,1,.13,0,.21.21,0,0,1,.05.12.17.17,0,0,1,0,.12.34.34,0,0,1-.16.07.13.13,0,0,0-.11.13v.87c0,.05,0,.07,0,.07a.09.09,0,0,0,.06,0L16.6.45a.43.43,0,0,1,.26-.09.4.4,0,0,1,.27.11.35.35,0,0,1,.12.26v1a.41.41,0,0,1-.14.32.42.42,0,0,1-.31.14c-.14,0-.2-.06-.2-.18a.17.17,0,0,1,0-.12.13.13,0,0,1,.12-.05.13.13,0,0,0,.09,0,.13.13,0,0,0,0-.1V.78s0-.06,0-.06a.09.09,0,0,0-.06,0l-1.66,1.3a.43.43,0,0,1-.26.09A.4.4,0,0,1,14.59,2,.36.36,0,0,1,14.47,1.74Z" style="fill: #fff"/>
    </g>
  </g>
  <g id="Connectors">
    <ellipse cx="28.31" cy="47.61" data-cir-type="male" id="circuitoCon_En" rx="2.05" ry="1.99" style="fill: none;stroke: #e5e3dd;stroke-miterlimit: 10;stroke-width: 1.224px"/>
    <ellipse cx="21.12" cy="47.61" data-cir-type="male" id="circuitoCon_Ao" rx="2.05" ry="1.99" style="fill: none;stroke: #e5e3dd;stroke-miterlimit: 10;stroke-width: 1.224px"/>
    <ellipse cx="13.93" cy="47.61" data-cir-type="male" id="circuitoCon_GND" rx="2.05" ry="1.99" style="fill: none;stroke: #e5e3dd;stroke-miterlimit: 10;stroke-width: 1.224px"/>
    <ellipse cx="6.73" cy="47.61" data-cir-type="male" id="circuitoCon_5V" rx="2.05" ry="1.99" style="fill: none;stroke: #e5e3dd;stroke-miterlimit: 10;stroke-width: 1.224px"/>
  </g>
</svg>