<?xml version="1.0" ?><svg height="14.64mm" viewBox="0 0 174.77 41.5" width="61.66mm" xmlns="http://www.w3.org/2000/svg" xmlns:xlink="http://www.w3.org/1999/xlink">
  <defs>
    <linearGradient data-name="Silver 04" gradientUnits="userSpaceOnUse" id="Silver_04" x1="87.37" x2="87.37" y1="-112.72" y2="60">
      <stop offset="0" stop-color="#cbd1d6"/>
      <stop offset="0.09" stop-color="#c7ced2"/>
      <stop offset="0.17" stop-color="#bcc3c7"/>
      <stop offset="0.25" stop-color="#aab1b5"/>
      <stop offset="0.25" stop-color="#aab1b5"/>
      <stop offset="0.29" stop-color="#cad1d5"/>
      <stop offset="0.33" stop-color="#e1e8ec"/>
      <stop offset="0.37" stop-color="#eff6f9"/>
      <stop offset="0.4" stop-color="#f4fbfe"/>
      <stop offset="0.63" stop-color="#f4fbfe"/>
      <stop offset="0.75" stop-color="#979da1"/>
      <stop offset="0.83" stop-color="#b0b7bc"/>
      <stop offset="0.85" stop-color="#959b9f"/>
      <stop offset="0.87" stop-color="#7d8387"/>
      <stop offset="0.89" stop-color="#6f7478"/>
      <stop offset="0.91" stop-color="#6a6f73"/>
      <stop offset="0.93" stop-color="#71767a"/>
      <stop offset="0.95" stop-color="#84898e"/>
      <stop offset="0.97" stop-color="#a4a9ae"/>
      <stop offset="1" stop-color="#cbd1d6"/>
    </linearGradient>
    <linearGradient gradientUnits="userSpaceOnUse" id="linear-gradient" x1="1.4" x2="173.35" y1="3.23" y2="3.23">
      <stop offset="0.13" stop-color="#cfd4da"/>
      <stop offset="0.26" stop-color="#fff"/>
      <stop offset="0.59" stop-color="#cfd4da"/>
      <stop offset="0.77" stop-color="#cecccd"/>
    </linearGradient>
    <linearGradient id="linear-gradient-2" x1="14.35" x2="160.37" xlink:href="#linear-gradient" y1="13.39" y2="13.39"/>
    <linearGradient id="linear-gradient-3" x1="14.35" x2="160.37" xlink:href="#linear-gradient" y1="11.44" y2="11.44"/>
    <linearGradient data-name="Silver 02" gradientUnits="userSpaceOnUse" id="Silver_02" x1="82.85" x2="98.76" y1="7.5" y2="7.5">
      <stop offset="0" stop-color="#bfbdbe"/>
      <stop offset="0.04" stop-color="#cccbcc"/>
      <stop offset="0.12" stop-color="#e4e3e4"/>
      <stop offset="0.2" stop-color="#f3f2f3"/>
      <stop offset="0.26" stop-color="#f8f7f8"/>
      <stop offset="0.31" stop-color="#f2f1f2"/>
      <stop offset="0.37" stop-color="#e1e0e1"/>
      <stop offset="0.43" stop-color="#c6c4c5"/>
      <stop offset="0.45" stop-color="#bfbdbe"/>
      <stop offset="0.58" stop-color="#bfbdbe"/>
      <stop offset="0.62" stop-color="#cecccd"/>
      <stop offset="0.7" stop-color="#e5e3e4"/>
      <stop offset="0.77" stop-color="#f2f0f1"/>
      <stop offset="0.83" stop-color="#f7f5f6"/>
      <stop offset="1" stop-color="#c0bebf"/>
    </linearGradient>
    <linearGradient data-name="Steel 02" gradientUnits="userSpaceOnUse" id="Steel_02" x1="83.92" x2="97.71" y1="1" y2="1">
      <stop offset="0" stop-color="#e5e2df"/>
      <stop offset="0" stop-color="#d8d4d0"/>
      <stop offset="0" stop-color="#ccc7c2"/>
      <stop offset="0.07" stop-color="#bdb9b4"/>
      <stop offset="0.15" stop-color="#a7a3a0"/>
      <stop offset="0.52" stop-color="#e0e1e2"/>
      <stop offset="0.62" stop-color="#d3d3d3"/>
      <stop offset="0.82" stop-color="#b2afac"/>
      <stop offset="0.88" stop-color="#a7a3a0"/>
      <stop offset="1" stop-color="#d1d3d4"/>
      <stop offset="1" stop-color="#a7a9ac"/>
    </linearGradient>
    <linearGradient data-name="Silver 01" gradientUnits="userSpaceOnUse" id="Silver_01" x1="1.63" x2="6.63" y1="37.21" y2="37.21">
      <stop offset="0" stop-color="#cbd1d6"/>
      <stop offset="0.2" stop-color="#bac0c5"/>
      <stop offset="0.43" stop-color="#aab1b5"/>
      <stop offset="0.52" stop-color="#b7bec2"/>
      <stop offset="0.84" stop-color="#e3eaed"/>
      <stop offset="1" stop-color="#f4fbfe"/>
    </linearGradient>
    <linearGradient id="Silver_01-2" x1="162.22" x2="167.22" xlink:href="#Silver_01" y1="37.21" y2="37.21"/>
    <linearGradient id="Silver_01-3" x1="168.11" x2="173.1" xlink:href="#Silver_01" y1="33.79" y2="33.79"/>
    <linearGradient id="Silver_04-2" x1="0.01" x2="174.73" xlink:href="#Silver_04" y1="29.47" y2="29.47"/>
    <linearGradient gradientUnits="userSpaceOnUse" id="linear-gradient-4" x1="8.44" x2="8.45" y1="11.5" y2="16.46">
      <stop offset="0.17" stop-color="#96908c"/>
      <stop offset="0.32" stop-color="#c9c6c8"/>
      <stop offset="0.36" stop-color="#cecccd"/>
      <stop offset="0.58" stop-color="#f9f9f9"/>
      <stop offset="0.79" stop-color="#f3f2f3"/>
      <stop offset="0.79" stop-color="#f6f6f6"/>
    </linearGradient>
    <linearGradient gradientUnits="userSpaceOnUse" id="linear-gradient-5" x1="8.74" x2="13.23" y1="13.06" y2="11.46">
      <stop offset="0" stop-color="#72726f"/>
      <stop offset="0.46" stop-color="#fff"/>
      <stop offset="0.79" stop-color="#e4e4e4"/>
      <stop offset="0.99" stop-color="#656562"/>
    </linearGradient>
    <linearGradient id="linear-gradient-6" x1="166.4" x2="166.41" xlink:href="#linear-gradient-4" y1="11.42" y2="16.37"/>
    <linearGradient id="linear-gradient-7" x1="166.71" x2="171.26" xlink:href="#linear-gradient-5" y1="12.98" y2="11.36"/>
    <linearGradient gradientUnits="userSpaceOnUse" id="linear-gradient-8" x1="-4.94" x2="10.27" y1="13.04" y2="14.57">
      <stop offset="0.01" stop-color="#c9c6c8"/>
      <stop offset="0.29" stop-color="#cfccce"/>
      <stop offset="0.33" stop-color="#f9f9f9"/>
      <stop offset="0.37" stop-color="#c9c6c8"/>
      <stop offset="0.41" stop-color="#c9c6c8"/>
    </linearGradient>
    <linearGradient gradientTransform="matrix(-1, 0, 0, 1, 348.53, 0.57)" id="linear-gradient-9" x1="168.78" x2="183.99" xlink:href="#linear-gradient-8" y1="13.04" y2="14.57"/>
    <linearGradient gradientUnits="userSpaceOnUse" id="linear-gradient-10" x1="123.42" x2="123.42" y1="18.18" y2="38.95">
      <stop offset="0.26" stop-color="#fff"/>
      <stop offset="0.54" stop-color="#cfd4da"/>
      <stop offset="0.7" stop-color="#dab98f"/>
      <stop offset="0.99" stop-color="#cfd3d8"/>
    </linearGradient>
    <linearGradient gradientUnits="userSpaceOnUse" id="linear-gradient-11" x1="123.42" x2="123.42" y1="22.26" y2="43.04">
      <stop offset="0.26" stop-color="#fff"/>
      <stop offset="0.33" stop-color="#dab98f"/>
      <stop offset="0.41" stop-color="#d46b26"/>
    </linearGradient>
    <linearGradient gradientUnits="userSpaceOnUse" id="linear-gradient-12" x1="123.29" x2="123.29" y1="20.28" y2="40.56">
      <stop offset="0.26" stop-color="#fff"/>
      <stop offset="0.62" stop-color="#cfd4da"/>
      <stop offset="0.64" stop-color="#dab98f"/>
      <stop offset="0.99" stop-color="#cfd3d8"/>
    </linearGradient>
    <linearGradient id="linear-gradient-13" x1="146.61" x2="146.61" xlink:href="#linear-gradient-10" y1="18.18" y2="38.95"/>
    <linearGradient id="linear-gradient-14" x1="146.61" x2="146.61" xlink:href="#linear-gradient-11" y1="22.26" y2="43.04"/>
    <linearGradient id="linear-gradient-15" x1="166.89" x2="166.89" xlink:href="#linear-gradient-10" y1="14.35" y2="40.52"/>
    <linearGradient id="linear-gradient-16" x1="166.89" x2="166.89" xlink:href="#linear-gradient-11" y1="19.5" y2="45.67"/>
    <linearGradient id="linear-gradient-17" x1="146.49" x2="146.49" xlink:href="#linear-gradient-12" y1="20.28" y2="40.56"/>
    <linearGradient id="linear-gradient-18" x1="156.53" x2="156.53" xlink:href="#linear-gradient-12" y1="20.13" y2="40.4"/>
    <linearGradient id="linear-gradient-19" x1="110.09" x2="110.09" xlink:href="#linear-gradient-12" y1="20.13" y2="40.4"/>
    <linearGradient id="linear-gradient-20" x1="64.72" x2="64.72" xlink:href="#linear-gradient-12" y1="20.13" y2="40.4"/>
    <linearGradient id="linear-gradient-21" x1="18.32" x2="18.32" xlink:href="#linear-gradient-12" y1="20.13" y2="40.4"/>
    <linearGradient id="linear-gradient-22" x1="51.39" x2="51.39" xlink:href="#linear-gradient-10" y1="17.93" y2="39.05"/>
    <linearGradient id="linear-gradient-23" x1="51.39" x2="51.39" xlink:href="#linear-gradient-11" y1="22.08" y2="43.2"/>
    <linearGradient id="linear-gradient-24" x1="51.32" x2="51.32" xlink:href="#linear-gradient-12" y1="20.07" y2="40.68"/>
    <linearGradient id="linear-gradient-25" x1="28.15" x2="28.15" xlink:href="#linear-gradient-10" y1="17.96" y2="39.04"/>
    <linearGradient id="linear-gradient-26" x1="28.15" x2="28.15" xlink:href="#linear-gradient-11" y1="22.1" y2="43.18"/>
    <linearGradient id="linear-gradient-27" x1="28.1" x2="28.1" xlink:href="#linear-gradient-12" y1="20.09" y2="40.66"/>
    <linearGradient id="linear-gradient-28" x1="7.81" x2="7.81" xlink:href="#linear-gradient-10" y1="14.63" y2="40.41"/>
    <linearGradient id="linear-gradient-29" x1="7.81" x2="7.81" xlink:href="#linear-gradient-11" y1="19.7" y2="45.48"/>
    <linearGradient id="linear-gradient-30" x1="87.35" x2="87.35" xlink:href="#linear-gradient-10" y1="18.18" y2="38.95"/>
    <linearGradient id="linear-gradient-31" x1="87.35" x2="87.35" xlink:href="#linear-gradient-11" y1="22.26" y2="43.04"/>
    <linearGradient id="linear-gradient-32" x1="87.33" x2="87.33" xlink:href="#linear-gradient-12" y1="20.28" y2="40.56"/>
    <linearGradient gradientUnits="userSpaceOnUse" id="linear-gradient-33" x1="87.41" x2="87.41" y1="87.99" y2="-83.96">
      <stop offset="0.37" stop-color="#c9c6c8"/>
      <stop offset="0.37" stop-color="#f9f9f9"/>
      <stop offset="0.38" stop-color="#c9c6c8"/>
      <stop offset="0.69" stop-color="#c9c6c8"/>
    </linearGradient>
    <linearGradient id="Silver_02-2" x1="15.32" x2="21.19" xlink:href="#Silver_02" y1="30.5" y2="30.5"/>
    <linearGradient id="Silver_02-3" x1="16.85" x2="19.79" xlink:href="#Silver_02" y1="32.4" y2="32.4"/>
  </defs>
  <title>Slide Pot - X-Large (10k Linear Taper)</title>
  <g data-name="Layer 2" id="Layer_2">
    <polygon points="173.35 3.63 173.35 3.23 1.4 3.23 1.4 3.63 1.01 3.63 1.01 24.85 173.74 24.85 173.74 3.63 173.35 3.63" style="fill: url(#Silver_04)"/>
    <rect height="0.33" style="stroke: #000;stroke-miterlimit: 10;stroke-width: 0.009999999776483px;fill: url(#linear-gradient)" width="171.96" x="1.4" y="3.07"/>
    <polygon points="117.1 11.77 64.48 11.77 14.35 11.77 14.35 15 64.48 15 117.1 15 160.38 15 160.38 11.77 117.1 11.77" style="stroke: #000;stroke-miterlimit: 10;stroke-width: 0.100000001490116px;fill: url(#linear-gradient-2)"/>
    <rect height="0.67" style="fill: url(#linear-gradient-3)" width="146.02" x="14.35" y="11.1"/>
    <g>
      <rect height="15" rx="0.98" ry="0.98" style="fill: url(#Silver_02)" width="15.91" x="82.85"/>
      <rect height="2" style="fill: url(#Steel_02)" width="13.79" x="83.92"/>
      <polygon points="6.63 32.91 1.64 32.91 1.64 37.91 3.17 37.91 3.17 41.5 5.09 41.5 5.09 37.91 6.63 37.91 6.63 32.91" style="fill: url(#Silver_01)"/>
      <polygon points="167.22 32.91 162.22 32.91 162.22 37.91 163.76 37.91 163.76 41.5 165.68 41.5 165.68 37.91 167.22 37.91 167.22 32.91" style="fill: url(#Silver_01-2)"/>
      <polygon points="173.1 29.49 168.11 29.49 168.11 34.49 169.65 34.49 169.65 38.09 171.57 38.09 171.57 34.49 173.1 34.49 173.1 29.49" style="fill: url(#Silver_01-3)"/>
    </g>
    <polygon points="0.01 24.45 1.46 24.45 1.46 24.11 173.35 24.11 173.35 24.45 174.73 24.45 174.73 29.15 162.97 29.15 162.97 30.51 159.56 30.51 159.56 32.29 158.01 32.29 158.01 32.75 155.05 32.75 155.05 32.24 139.75 32.24 139.75 34.83 133.83 34.83 133.83 32.24 111.61 32.29 111.61 32.77 108.57 32.77 108.57 32.32 106.78 32.32 66.2 32.32 66.2 32.74 63.23 32.74 63.23 32.26 60.14 32.26 40.99 32.26 40.99 34.83 35.08 34.83 35.08 30.56 21.19 30.56 21.19 32.34 19.79 32.34 19.79 33.01 16.85 33.01 16.85 32.27 0.34 32.27 0.34 29.13 0.01 29.13 0.01 24.45" style="fill: url(#Silver_04-2)"/>
    <g>
      <ellipse cx="8.45" cy="13.17" rx="2.48" ry="1.79" style="fill: url(#linear-gradient-4)"/>
      <path d="M8.45,11.38c-1.37,0-2.48.8-2.48,1.79a.32.32,0,0,0,0,.06H6A2.7,2.7,0,0,1,7.88,12a3.38,3.38,0,0,1,2.58.82c.37.33.41.57.41.69a.86.86,0,0,1-.3.58A2.93,2.93,0,0,1,8.44,15a3.26,3.26,0,0,1-1.06-.2,2.65,2.65,0,0,1-1-.62,2.74,2.74,0,0,0,1,.62,3.49,3.49,0,0,0,1.05.2c1,0,2.49-.66,2.49-1.81S9.7,11.38,8.45,11.38Z" style="fill: url(#linear-gradient-5)"/>
    </g>
    <g>
      <ellipse cx="166.41" cy="13.09" rx="2.52" ry="1.79" style="fill: url(#linear-gradient-6)"/>
      <path d="M166.41,11.3c-1.39,0-2.52.8-2.52,1.79a.32.32,0,0,0,0,.06h0a2.74,2.74,0,0,1,1.93-1.25,3.48,3.48,0,0,1,2.62.82c.38.33.42.57.41.69a.85.85,0,0,1-.3.58,3,3,0,0,1-2.17.91,3.36,3.36,0,0,1-1.08-.2,2.69,2.69,0,0,1-1-.62,2.79,2.79,0,0,0,1,.62,3.59,3.59,0,0,0,1.07.2c1,0,2.53-.66,2.53-1.81S167.68,11.3,166.41,11.3Z" style="fill: url(#linear-gradient-7)"/>
    </g>
    <g>
      <path d="M7.89,12a1.59,1.59,0,0,1-.55.85,1.65,1.65,0,0,1-1.31.3A2.67,2.67,0,0,1,7.89,12Z" style="fill: #48352e"/>
      <path d="M6.95,12.32a.51.51,0,0,1-.63.5" style="fill: none;stroke: #191717;stroke-linecap: round;stroke-miterlimit: 10;stroke-width: 0.050000000745058px"/>
    </g>
    <path d="M167.22,12a1.67,1.67,0,0,0,.42.9,1.73,1.73,0,0,0,1.23.53.83.83,0,0,0-.06-.33,1,1,0,0,0-.27-.35,3,3,0,0,0-.53-.41A3.3,3.3,0,0,0,167.22,12Z" style="fill: #48352e"/>
    <path d="M168.11,12.49a.63.63,0,0,0,.17.41.64.64,0,0,0,.48.19" style="fill: none;stroke: #191717;stroke-linecap: round;stroke-miterlimit: 10;stroke-width: 0.050000000745058px"/>
    <polyline points="9.62 12.27 9.62 13.88 9.62 14.49 6.88 14.49" style="fill: none;stroke: #191717;stroke-linecap: round;stroke-miterlimit: 10;stroke-width: 0.050000000745058px"/>
    <line style="fill: none;stroke: #191717;stroke-linecap: round;stroke-miterlimit: 10;stroke-width: 0.050000000745058px" x1="6.19" x2="9.62" y1="13.88" y2="13.88"/>
    <line style="fill: none;stroke: #000;stroke-miterlimit: 10;stroke-width: 0.100000001490116px" x1="117.1" x2="117.1" y1="11.77" y2="15"/>
    <line style="fill: none;stroke: #000;stroke-miterlimit: 10;stroke-width: 0.100000001490116px" x1="64.48" x2="64.48" y1="11.77" y2="15"/>
    <g>
      <polygon points="1.01 23.55 0.03 23.55 0.03 3.63 0.7 3.63 1.01 3.63 1.01 23.55" style="fill: url(#linear-gradient-8)"/>
      <path d="M0,4.13a1.36,1.36,0,0,1,.63-.5" style="fill: none;stroke: #000;stroke-miterlimit: 10;stroke-width: 0.009999999776483px"/>
    </g>
    <g>
      <polygon points="173.72 23.55 174.7 23.55 174.77 3.63 174.1 3.63 173.78 3.63 173.72 23.55" style="fill: url(#linear-gradient-9)"/>
      <path d="M174.77,4.13a1.36,1.36,0,0,0-.62-.51" style="fill: none;stroke: #000;stroke-miterlimit: 10;stroke-width: 0.009999999776483px"/>
    </g>
    <rect height="1.71" style="fill: none;stroke: #000;stroke-miterlimit: 10;stroke-width: 0.009999999776483px" width="13.88" x="21.23" y="31.15"/>
    <rect height="1.71" style="fill: none;stroke: #000;stroke-miterlimit: 10;stroke-width: 0.009999999776483px" width="13.88" x="21.23" y="29.44"/>
    <rect height="0.31" style="fill: none;stroke: #000;stroke-miterlimit: 10;stroke-width: 0.009999999776483px" width="13.36" x="21.46" y="32.85"/>
    <rect height="1.71" style="fill: none;stroke: #000;stroke-miterlimit: 10;stroke-width: 0.009999999776483px" width="20.71" x="41.06" y="31.15"/>
    <rect height="1.71" style="fill: none;stroke: #000;stroke-miterlimit: 10;stroke-width: 0.009999999776483px" width="20.71" x="41.06" y="29.44"/>
    <rect height="0.31" style="fill: none;stroke: #000;stroke-miterlimit: 10;stroke-width: 0.009999999776483px" width="19.95" x="41.41" y="32.85"/>
    <g>
      <rect height="1.71" style="fill: url(#linear-gradient-10)" width="20.82" x="113.01" y="31.2"/>
      <rect height="1.71" style="fill: url(#linear-gradient-11)" width="20.82" x="113.01" y="29.49"/>
      <rect height="0.31" style="fill: url(#linear-gradient-12)" width="20.27" x="113.16" y="32.91"/>
    </g>
    <rect height="1.71" style="fill: url(#linear-gradient-13)" width="13.82" x="139.7" y="31.2"/>
    <rect height="1.71" style="fill: url(#linear-gradient-14)" width="13.82" x="139.7" y="29.49"/>
    <rect height="2.15" style="fill: url(#linear-gradient-15)" width="15.15" x="159.31" y="30.76"/>
    <rect height="2.15" style="fill: url(#linear-gradient-16)" width="15.15" x="159.31" y="28.6"/>
    <rect height="0.31" style="fill: url(#linear-gradient-17)" width="13.39" x="139.8" y="32.91"/>
    <rect height="0.31" style="fill: url(#linear-gradient-18)" width="2.96" x="155.05" y="32.75"/>
    <rect height="0.31" style="fill: url(#linear-gradient-19)" width="3.04" x="108.57" y="32.75"/>
    <rect height="0.31" style="fill: url(#linear-gradient-20)" width="2.97" x="63.24" y="32.75"/>
    <rect height="0.31" style="fill: url(#linear-gradient-21)" width="2.95" x="16.85" y="32.75"/>
    <g>
      <rect height="1.74" style="fill: url(#linear-gradient-22)" width="20.83" x="40.97" y="31.17"/>
      <rect height="1.74" style="fill: url(#linear-gradient-23)" width="20.83" x="40.97" y="29.43"/>
      <rect height="0.31" style="fill: url(#linear-gradient-24)" width="20.27" x="41.18" y="32.9"/>
    </g>
    <g>
      <rect height="1.73" style="fill: url(#linear-gradient-25)" width="13.91" x="21.19" y="31.17"/>
      <rect height="1.73" style="fill: url(#linear-gradient-26)" width="13.91" x="21.19" y="29.44"/>
      <rect height="0.31" style="fill: url(#linear-gradient-27)" width="13.54" x="21.33" y="32.9"/>
    </g>
    <rect height="2.12" style="fill: url(#linear-gradient-28)" width="15.03" x="0.29" y="30.79"/>
    <rect height="2.12" style="fill: url(#linear-gradient-29)" width="15.03" x="0.29" y="28.67"/>
    <g>
      <rect height="1.71" style="fill: url(#linear-gradient-30)" width="39.56" x="67.57" y="31.2"/>
      <rect height="1.71" style="fill: url(#linear-gradient-31)" width="39.56" x="67.57" y="29.49"/>
      <rect height="0.31" style="fill: url(#linear-gradient-32)" width="38.95" x="67.85" y="32.91"/>
    </g>
    <g>
      <path d="M1.46,22.61v2H0V23.23Q.32,22.51,1.46,22.61Z" style="fill: #6c5f5c;stroke: #000;stroke-miterlimit: 10;stroke-width: 0.009999999776483px"/>
      <rect height="0.59" style="fill: #6c5f5c;stroke: #000;stroke-miterlimit: 10;stroke-width: 0.009999999776483px" width="1.45" x="0.01" y="23.99"/>
      <rect height="0.78" style="fill: #6c5f5c;stroke: #000;stroke-miterlimit: 10;stroke-width: 0.009999999776483px" width="0.59" x="0.87" y="23.21"/>
      <rect height="0.45" style="fill: #6c5f5c;stroke: #000;stroke-miterlimit: 10;stroke-width: 0.009999999776483px" width="0.87" x="0.01" y="23.55"/>
    </g>
    <g>
      <path d="M173.36,22.61v2h1.38V23.25Q174.43,22.51,173.36,22.61Z" style="fill: #6c5f5c;stroke: #000;stroke-miterlimit: 10;stroke-width: 0.009999999776483px"/>
      <rect height="0.6" style="fill: #6c5f5c;stroke: #000;stroke-miterlimit: 10;stroke-width: 0.009999999776483px" transform="translate(347.99 49.21) rotate(-179.81)" width="1.38" x="173.35" y="24.01"/>
      <rect height="0.8" style="fill: #6c5f5c;stroke: #000;stroke-miterlimit: 10;stroke-width: 0.009999999776483px" transform="matrix(-1, 0, 0, -1, 347.18, 47.81)" width="0.56" x="173.35" y="23.22"/>
      <rect height="0.45" style="fill: #6c5f5c;stroke: #000;stroke-miterlimit: 10;stroke-width: 0.009999999776483px" transform="translate(348.56 48.16) rotate(-179.81)" width="0.82" x="173.91" y="23.56"/>
    </g>
    <rect height="1.44" style="fill: url(#linear-gradient-33)" width="171.89" x="1.46" y="22.85"/>
    <rect height="3.67" style="fill: url(#Silver_02-2)" width="5.87" x="15.32" y="28.67"/>
    <rect height="0.72" style="fill: url(#Silver_02-3)" width="2.95" x="16.85" y="32.04"/>
  </g>
  <g id="Connectors">
    <rect data-cir-type="male" height="0.45" id="circuitoCon_leg1" style="fill: none" width="1.92" x="3.17" y="41.05"/>
    <rect data-cir-type="male" height="0.45" id="circuitoCon_wiper" style="fill: none" width="1.92" x="163.76" y="41.05"/>
    <rect data-cir-type="male" height="0.45" id="circuitoCon_leg2" style="fill: none" width="1.92" x="169.65" y="37.64"/>
  </g>
</svg>