<?xml version="1.0" ?><svg height="8.39mm" id="svg2" version="1.1" viewBox="0 0 59.33 23.79" width="20.93mm" xmlns="http://www.w3.org/2000/svg" xmlns:cc="http://creativecommons.org/ns#" xmlns:dc="http://purl.org/dc/elements/1.1/" xmlns:rdf="http://www.w3.org/1999/02/22-rdf-syntax-ns#" xmlns:svg="http://www.w3.org/2000/svg">
    <defs id="defs137"/>
    <title id="title4">SN74HC595</title>
    <g data-name="Layer 2" id="Layer_2">
        <rect height="15.55" id="rect7" rx="1.42" ry="1.42" style="fill: #292e32" transform="translate(59.33 23.78) rotate(180)" width="59.33" y="4.12"/>
        <path d="M2.78,11.89A2.77,2.77,0,0,0,0,9.11v5.56A2.78,2.78,0,0,0,2.78,11.89Z" id="path9" style="fill: #1b1b1b"/>
        <circle cx="4.57" cy="16.13" id="circle35" r="1.39" style="fill: #1b1b1b"/>
        <text id="text4267" style="font-style:normal;font-weight:normal;font-size:5.35160971px;line-height:125%;font-family:sans-serif;letter-spacing:0px;word-spacing:0px;fill:#ffffff;fill-opacity:1;stroke:none;stroke-width:1px;stroke-linecap:butt;stroke-linejoin:miter;stroke-opacity:1" transform="scale(0.92254437,1.0839587)" x="13.633895" xml:space="preserve" y="12.94669">
            <tspan id="tspan4269" x="13.633895" y="12.94669">SN74HC595N</tspan>
        </text>
    </g>
    <g data-name="Layer 3" id="Layer_3">
        <path d="M3.54,1.85h0V.33c0-.18.09-.33.19-.33H5.38c.1,0,.18.15.18.33V1.85h.05c.07,0,.13.09.15.21H3.39C3.4,1.94,3.46,1.85,3.54,1.85Z" id="path38" style="fill: #9d9d9e"/>
        <path d="M6.27,4.13V2.06H2.88s0,0,0,.07v2Z" id="path40" style="fill: #ababab"/>
        <path d="M17.94,1.85h0V.33c0-.18.09-.33.19-.33h1.6c.11,0,.19.15.19.33V1.85H20c.07,0,.13.09.15.21H17.78C17.8,1.94,17.86,1.85,17.94,1.85Z" id="path42" style="fill: #9d9d9e"/>
        <path d="M20.67,4.13v-2a.17.17,0,0,0,0-.07H17.28a.17.17,0,0,0,0,.07v2Z" id="path44" style="fill: #ababab"/>
        <path d="M10.74,1.85h0V.33c0-.18.09-.33.19-.33h1.6c.11,0,.19.15.19.33V1.85h.05c.07,0,.13.09.15.21H10.58C10.6,1.94,10.66,1.85,10.74,1.85Z" id="path46" style="fill: #9d9d9e"/>
        <path d="M13.47,4.13V2.06H10.08s0,0,0,.07v2Z" id="path48" style="fill: #ababab"/>
        <path d="M25.14,1.85h0V.33c0-.18.09-.33.19-.33H27c.11,0,.19.15.19.33V1.85h.05c.07,0,.13.09.15.21H25C25,1.94,25.06,1.85,25.14,1.85Z" id="path50" style="fill: #9d9d9e"/>
        <path d="M28.24,4.13v-2a.17.17,0,0,0,0-.07H24.11a.17.17,0,0,0,0,.07v2Z" id="path52" style="fill: #ababab"/>
        <path d="M32.33,1.85h.05V.33c0-.18.08-.33.19-.33h1.6c.11,0,.19.15.19.33V1.85h0c.08,0,.14.09.16.21H32.18C32.2,1.94,32.26,1.85,32.33,1.85Z" id="path54" style="fill: #9d9d9e"/>
        <path d="M35.07,4.13v-2a.17.17,0,0,0,0-.07H31.68a.17.17,0,0,0,0,.07v2Z" id="path56" style="fill: #ababab"/>
        <path d="M39.53,1.85h0V.33c0-.18.08-.33.19-.33h1.6c.1,0,.19.15.19.33V1.85h0c.08,0,.14.09.16.21H39.38C39.4,1.94,39.46,1.85,39.53,1.85Z" id="path58" style="fill: #9d9d9e"/>
        <path d="M42.27,4.13v-2a.17.17,0,0,0,0-.07H38.88a.17.17,0,0,0,0,.07v2Z" id="path60" style="fill: #ababab"/>
        <path d="M46.73,1.85h.05V.33c0-.18.08-.33.19-.33h1.6c.1,0,.19.15.19.33V1.85h0c.08,0,.14.09.16.21H46.58C46.6,1.94,46.66,1.85,46.73,1.85Z" id="path62" style="fill: #9d9d9e"/>
        <path d="M49.47,4.13v-2a.17.17,0,0,0,0-.07H46.07V4.13Z" id="path64" style="fill: #ababab"/>
        <path d="M53.93,1.85h0V.33c0-.18.08-.33.18-.33h1.61c.1,0,.19.15.19.33V1.85h0c.08,0,.14.09.16.21H53.78C53.8,1.94,53.86,1.85,53.93,1.85Z" id="path66" style="fill: #9d9d9e"/>
        <path d="M56.67,4.13v-2s0,0,0-.07H53.27V4.13Z" id="path68" style="fill: #ababab"/>
        <path d="M3.54,21.93h0v1.53c0,.18.09.33.19.33H5.38c.1,0,.18-.15.18-.33V21.93h.05c.07,0,.13-.09.15-.21H3.39C3.4,21.84,3.46,21.93,3.54,21.93Z" id="path70" style="fill: #9d9d9e"/>
        <rect height="0.56" id="rect72" style="fill: #9a9a9b" width="3.4" x="2.87" y="19.66"/>
        <path d="M2.87,21.66s0,0,0,.06H6.27v-1.5H2.87Z" id="path74" style="fill: #ababab"/>
        <path d="M10.74,21.93h0v1.53c0,.18.09.33.19.33h1.6c.11,0,.19-.15.19-.33V21.93h.05c.07,0,.13-.09.15-.21H10.58C10.6,21.84,10.66,21.93,10.74,21.93Z" id="path76" style="fill: #9d9d9e"/>
        <rect height="0.56" id="rect78" style="fill: #9a9a9b" width="3.4" x="10.07" y="19.66"/>
        <path d="M10.08,21.72h3.39v-1.5h-3.4v1.44S10.08,21.7,10.08,21.72Z" id="path80" style="fill: #ababab"/>
        <path d="M17.94,21.93h0v1.53c0,.18.09.33.19.33h1.6c.11,0,.19-.15.19-.33V21.93H20c.07,0,.13-.09.15-.21H17.78C17.8,21.84,17.86,21.93,17.94,21.93Z" id="path82" style="fill: #9d9d9e"/>
        <rect height="0.56" id="rect84" style="fill: #9a9a9b" width="3.4" x="17.27" y="19.66"/>
        <path d="M17.28,21.72h3.38a.13.13,0,0,0,0-.06V20.22h-3.4v1.44A.13.13,0,0,0,17.28,21.72Z" id="path86" style="fill: #ababab"/>
        <path d="M25.14,21.93h0v1.53c0,.18.09.33.19.33H27c.11,0,.19-.15.19-.33V21.93h.05c.07,0,.13-.09.15-.21H25C25,21.84,25.06,21.93,25.14,21.93Z" id="path88" style="fill: #9d9d9e"/>
        <rect height="0.56" id="rect90" style="fill: #9a9a9b" width="3.4" x="24.47" y="19.66"/>
        <path d="M24.48,21.72h3.38a.13.13,0,0,0,0-.06V20.22h-3.4v1.44A.13.13,0,0,0,24.48,21.72Z" id="path92" style="fill: #ababab"/>
        <path d="M32.34,21.93h0v1.53c0,.18.08.33.19.33h1.6c.11,0,.19-.15.19-.33V21.93h0c.08,0,.14-.09.16-.21H32.18C32.2,21.84,32.26,21.93,32.34,21.93Z" id="path94" style="fill: #9d9d9e"/>
        <path d="M31.68,21.72h3.38a.13.13,0,0,0,0-.06V20.22h-3.4v1.44A.13.13,0,0,0,31.68,21.72Z" id="path96" style="fill: #ababab"/>
        <rect height="0.56" id="rect98" style="fill: #9a9a9b" width="3.4" x="31.67" y="19.66"/>
        <path d="M39.53,21.93h0v1.53c0,.18.08.33.19.33h1.6c.1,0,.19-.15.19-.33V21.93h0c.08,0,.14-.09.16-.21H39.38C39.4,21.84,39.46,21.93,39.53,21.93Z" id="path100" style="fill: #9d9d9e"/>
        <rect height="0.56" id="rect102" style="fill: #9a9a9b" width="3.4" x="38.87" y="19.66"/>
        <path d="M38.88,21.72h3.38a.13.13,0,0,0,0-.06V20.22h-3.4v1.44A.13.13,0,0,0,38.88,21.72Z" id="path104" style="fill: #ababab"/>
        <path d="M46.73,21.93h.05v1.53c0,.18.08.33.19.33h1.6c.1,0,.19-.15.19-.33V21.93h0c.08,0,.14-.09.16-.21H46.58C46.6,21.84,46.66,21.93,46.73,21.93Z" id="path106" style="fill: #9d9d9e"/>
        <path d="M46.07,21.72h3.39a.13.13,0,0,0,0-.06V20.22h-3.4v1.5Z" id="path108" style="fill: #ababab"/>
        <rect height="0.56" id="rect110" style="fill: #9a9a9b" width="3.4" x="46.07" y="19.66"/>
        <path d="M53.93,21.93h0v1.53c0,.18.08.33.18.33h1.61c.1,0,.19-.15.19-.33V21.93h0c.08,0,.14-.09.16-.21H53.78C53.8,21.84,53.86,21.93,53.93,21.93Z" id="path112" style="fill: #9d9d9e"/>
        <path d="M53.27,21.72h3.39s0,0,0-.06V20.22h-3.4v1.5Z" id="path114" style="fill: #ababab"/>
        <rect height="0.56" id="rect116" style="fill: #9a9a9b" width="3.4" x="53.27" y="19.66"/>
    </g>
    <g data-name="Layer 4" id="Connectors">
        <rect data-cir-type="male" height="1.72" id="circuitoCon_VCC" style="fill: none" width="1.98" x="3.58" y="0.08"/>
        <rect data-cir-type="male" height="1.72" id="circuitoCon_SER" style="fill: none" width="1.98" x="17.99" y="0.08"/>
        <rect data-cir-type="male" height="1.72" id="circuitoCon_QA" style="fill: none" width="1.98" x="10.78" y="0.08"/>
        <rect data-cir-type="male" height="1.72" id="circuitoCon_OEnot" style="fill: none" width="1.98" x="25.18" y="0.08"/>
        <rect data-cir-type="male" height="1.72" id="circuitoCon_RCLK" style="fill: none" width="1.98" x="32.39" y="0.08"/>
        <rect data-cir-type="male" height="1.72" id="circuitoCon_SRCLK" style="fill: none" width="1.98" x="39.59" y="0.08"/>
        <rect data-cir-type="male" height="1.72" id="circuitoCon_SRCLRnot" style="fill: none" width="1.98" x="46.79" y="0.08"/>
        <rect data-cir-type="male" height="1.72" id="circuitoCon_QHnot" style="fill: none" width="1.98" x="53.98" y="0.08"/>
        <rect data-cir-type="male" height="1.83" id="circuitoCon_QB" style="fill: none" width="1.98" x="3.59" y="21.95"/>
        <rect data-cir-type="male" height="1.83" id="circuitoCon_QC" style="fill: none" width="1.98" x="10.79" y="21.95"/>
        <rect data-cir-type="male" height="1.83" id="circuitoCon_QD" style="fill: none" width="1.98" x="17.99" y="21.95"/>
        <rect data-cir-type="male" height="1.83" id="circuitoCon_QE" style="fill: none" width="1.98" x="25.19" y="21.95"/>
        <rect data-cir-type="male" height="1.83" id="circuitoCon_QF" style="fill: none" width="1.98" x="32.39" y="21.95"/>
        <rect data-cir-type="male" height="1.83" id="circuitoCon_QG" style="fill: none" width="1.98" x="39.59" y="21.95"/>
        <rect data-cir-type="male" height="1.83" id="circuitoCon_QH" style="fill: none" width="1.98" x="46.8" y="21.95"/>
        <rect data-cir-type="male" height="1.83" id="circuitoCon_GND" style="fill: none" width="1.98" x="53.98" y="21.95"/>
    </g>
</svg>