<?xml version="1.0" ?><svg data-name="Layer 1" height="8.38mm" id="Layer_1" viewBox="0 0 7.88 23.75" width="2.78mm" xmlns="http://www.w3.org/2000/svg">
  <title>Diode Rectifier - 1A 50V</title>
  <g>
  <line data-name="2" id="_2" style="fill: none;stroke: #8c8c8c;stroke-width: 2.2885808978271047px" x1="3.98" x2="3.98" y1="23.75" y2="17.11"/>
  <line data-name="1" id="_1" style="fill: none;stroke: #8c8c8c;stroke-width: 2.2885808978271047px" x1="3.94" x2="3.94" y2="6.65"/>
    <polygon points="7.88 3.75 7.88 6.92 7.88 6.93 7.88 19.71 4.32 19.71 3.94 19.71 3.56 19.71 0 19.71 0 6.92 0 3.75 7.88 3.75" style="fill: #333"/>
    <polygon points="7.88 3.75 7.88 6.92 4.32 6.92 3.94 6.92 3.56 6.92 0 6.92 0 3.75 7.88 3.75" style="fill: #989898"/>
    <rect height="15.95" style="fill: #1a1a1a" width="3.94" x="3.94" y="3.75"/>
    <rect height="3.18" style="fill: #818181" width="3.94" x="3.94" y="3.75"/>
  
  </g>
  <g id="Connectors">
    
    
  
  <rect data-cir-type="male" height="1.23" id="circuitoCon_pos" style="fill: none" width="2.28" x="2.83" y="22.52"/>
  <rect data-cir-type="male" height="1.23" id="circuitoCon_neg" style="fill: none" width="2.23" x="2.84"/>
  
    </g>
</svg>