<?xml version="1.0" ?><svg height="6.53mm" viewBox="0 0 32.54 18.5" width="11.48mm" xmlns="http://www.w3.org/2000/svg" xmlns:xlink="http://www.w3.org/1999/xlink">
  <defs>
    <linearGradient data-name="Silver 4" gradientUnits="userSpaceOnUse" id="Silver_4" x1="7.89" x2="10.26" y1="16.54" y2="16.54">
      <stop offset="0" stop-color="#cbd0d5"/>
      <stop offset="0.13" stop-color="#afb4b9"/>
      <stop offset="0.33" stop-color="#878c90"/>
      <stop offset="0.43" stop-color="#787d80"/>
      <stop offset="0.69" stop-color="#b7bdc0"/>
      <stop offset="0.9" stop-color="#e2e9ec"/>
      <stop offset="1" stop-color="#f3fafd"/>
    </linearGradient>
    <linearGradient id="Silver_4-2" x1="22.3" x2="24.67" xlink:href="#Silver_4" y1="16.62" y2="16.62"/>
    <linearGradient data-name="Silver 3" gradientUnits="userSpaceOnUse" id="Silver_3" x2="32.54" y1="10.68" y2="10.68">
      <stop offset="0" stop-color="#cbd0d5"/>
      <stop offset="0.21" stop-color="#b9bfc4"/>
      <stop offset="0.43" stop-color="#a9b1b5"/>
      <stop offset="0.52" stop-color="#b6bec2"/>
      <stop offset="0.84" stop-color="#e2e9ed"/>
      <stop offset="1" stop-color="#f3fafd"/>
    </linearGradient>
    <linearGradient gradientUnits="userSpaceOnUse" id="linear-gradient" x1="16.3" x2="16.3" y1="14.38" y2="5.83">
      <stop offset="0" stop-color="#cbd0d5"/>
      <stop offset="0.21" stop-color="#b9bfc4"/>
      <stop offset="0.43" stop-color="#a9b1b5"/>
      <stop offset="0.57" stop-color="#adb5b9"/>
      <stop offset="0.7" stop-color="#b8c0c4"/>
      <stop offset="0.82" stop-color="#cbd2d6"/>
      <stop offset="0.95" stop-color="#e5ecef"/>
      <stop offset="1" stop-color="#f3fafd"/>
    </linearGradient>
    <linearGradient id="Silver_3-2" x1="1.36" x2="31.43" xlink:href="#Silver_3" y1="8.96" y2="8.96"/>
    <linearGradient id="linear-gradient-2" x1="16.39" x2="16.39" xlink:href="#linear-gradient" y1="8.07" y2="0"/>
  </defs>
  <title>Crystal oscillator 16</title>
  <g data-name="Layer 2" id="Layer_2">
    <path d="M7.89,14.66h2.37a0,0,0,0,1,0,0v2.7a1.07,1.07,0,0,1-1.07,1.07H9a1.07,1.07,0,0,1-1.07-1.07v-2.7A0,0,0,0,1,7.89,14.66Z" style="fill: url(#Silver_4)"/>
    <path d="M22.3,14.73h2.37a0,0,0,0,1,0,0v2.7A1.07,1.07,0,0,1,23.6,18.5h-.22a1.07,1.07,0,0,1-1.07-1.07v-2.7A0,0,0,0,1,22.3,14.73Z" style="fill: url(#Silver_4-2)"/>
    <path d="M5.5,5.83H27c6.4-.17,8.35,8.55,0,9.69H5.5C-2.18,14.38-1.48,6.36,5.5,5.83Z" style="fill: url(#Silver_3)"/>
    <path d="M6,5.83H26.5c6.09-.16,8.36,7.71,0,8.55H6C-1.63,13.45-.65,6.29,6,5.83Z" style="fill: url(#linear-gradient)"/>
    <path d="M31.43,4H1.36V9.87h0V10h0c.07,1.75,1.69,3.47,5.15,3.88H26.19c3.67-.36,5.21-2.11,5.24-3.88h0Z" style="fill: url(#Silver_3-2)"/>
    <path d="M6.91.16h18.8c5.59-.13,7.67,6.34,0,7H6.91C-.1,6.44.8.54,6.91.16Z" style="fill: none;stroke: #000;stroke-miterlimit: 10;stroke-width: 0.014750556551135512px"/>
    <path d="M6.51,0H26.19c5.86-.15,8,7.27,0,8.07H6.51C-.83,7.19.12.44,6.51,0Z" style="fill: url(#linear-gradient-2)"/>
    <g>
      <path d="M6.64,5.14h.75V2.25H6.65a.21.21,0,0,1-.17-.07A.25.25,0,0,1,6.4,2a.25.25,0,0,1,.08-.17.21.21,0,0,1,.17-.07H7.88V5.14h.49v-1a.24.24,0,0,1,.07-.18.26.26,0,0,1,.17-.07.24.24,0,0,1,.25.25V5.38a.24.24,0,0,1-.07.17.25.25,0,0,1-.18.08h-2a.25.25,0,0,1-.18-.08.29.29,0,0,1-.07-.18.24.24,0,0,1,.07-.16A.24.24,0,0,1,6.64,5.14Z" style="fill: #6d6c6c"/>
      <path d="M10.26,1.76h.25a.22.22,0,0,1,.17.07.23.23,0,0,1,.07.17.24.24,0,0,1-.07.18.22.22,0,0,1-.17.07V3.87h1.72a.21.21,0,0,1,.17.07.25.25,0,0,1,.08.18V5.38a.21.21,0,0,1-.08.17.23.23,0,0,1-.17.08h-2a.25.25,0,0,1-.17-.08A.23.23,0,0,1,10,5.38V2a.25.25,0,0,1,.08-.17A.21.21,0,0,1,10.26,1.76Zm.24,2.6v.78H12V4.36Z" style="fill: #6d6c6c"/>
      <path d="M14.6,4.09h.49a.22.22,0,0,1,.17.07.23.23,0,0,1,.08.17v.42a.25.25,0,0,1-.08.18.24.24,0,0,1-.17.07h-.5a.21.21,0,0,1-.17-.07.25.25,0,0,1-.08-.18V4.33a.23.23,0,0,1,.08-.17A.24.24,0,0,1,14.6,4.09Z" style="fill: #6d6c6c"/>
      <path d="M17.21,5.15V2.23a.49.49,0,0,1,.14-.34.45.45,0,0,1,.33-.14h1.53a.45.45,0,0,1,.32.14.45.45,0,0,1,.14.34V5.15a.44.44,0,0,1-.14.34.45.45,0,0,1-.33.14H17.68a.45.45,0,0,1-.33-.14A.44.44,0,0,1,17.21,5.15Zm2,0V2.25H17.7V5.14Z" style="fill: #6d6c6c"/>
      <path d="M20.81,5.15V2.23A.49.49,0,0,1,21,1.89a.49.49,0,0,1,.33-.14h1.53a.45.45,0,0,1,.33.14.49.49,0,0,1,.14.34V5.15a.48.48,0,0,1-.48.48H21.28A.45.45,0,0,1,21,5.49.48.48,0,0,1,20.81,5.15Zm2,0V2.25H21.3V5.14Z" style="fill: #6d6c6c"/>
      <path d="M24.42,5.15V2.23a.48.48,0,0,1,.47-.48h1.52a.45.45,0,0,1,.33.14.49.49,0,0,1,.14.34V5.15a.48.48,0,0,1-.14.34.45.45,0,0,1-.33.14H24.89a.48.48,0,0,1-.34-.14A.47.47,0,0,1,24.42,5.15Zm2,0V2.25H24.91V5.14Z" style="fill: #6d6c6c"/>
    </g>
  </g>
  <g id="Connectors">
    <circle cx="23.49" cy="17.24" data-cir-type="male" id="circuitoCon_1" r="0.83" style="fill: none"/>
    <circle cx="9.08" cy="17.16" data-cir-type="male" id="circuitoCon_0" r="0.83" style="fill: none"/>
  </g>
</svg>