<?xml version="1.0" ?><svg height="8.39mm" viewBox="0 0 59.33 23.79" width="20.93mm" xmlns="http://www.w3.org/2000/svg">
  <title>CD74HC4051E</title>
  <g data-name="Layer 2" id="Layer_2">
    <rect height="15.55" rx="1.42" ry="1.42" style="fill: #292e32" transform="translate(59.33 23.78) rotate(180)" width="59.33" y="4.12"/>
    <path d="M2.78,11.89A2.77,2.77,0,0,0,0,9.11v5.56A2.78,2.78,0,0,0,2.78,11.89Z" style="fill: #1b1b1b"/>
    <g>
      <path d="M13.57,13.28h.88a.24.24,0,0,1,.18.07.28.28,0,0,1,.07.17.29.29,0,0,1-.07.18.24.24,0,0,1-.18.07h-.92a.79.79,0,0,1-.62-.36l-.56-1.09a1.07,1.07,0,0,1-.12-.49,1,1,0,0,1,.11-.47l.57-1.08a.83.83,0,0,1,.26-.27.62.62,0,0,1,.33-.11h1a.24.24,0,0,1,.24.24.24.24,0,0,1-.07.18.23.23,0,0,1-.17.07h-.94a.21.21,0,0,0-.18.14l-.55,1a.65.65,0,0,0-.06.29.6.6,0,0,0,.07.3l.52,1A.23.23,0,0,0,13.57,13.28Z" style="fill: #fff"/>
      <path d="M16.07,9.9h1a.65.65,0,0,1,.37.12.82.82,0,0,1,.27.29l.48,1a1.18,1.18,0,0,1,.14.55,1.17,1.17,0,0,1-.15.55l-.49,1a.83.83,0,0,1-.26.3.77.77,0,0,1-.39.11h-.94a.24.24,0,0,1-.24-.25.23.23,0,0,1,.07-.17.21.21,0,0,1,.17-.08h.26V10.39h-.25a.24.24,0,0,1-.18-.07.29.29,0,0,1-.07-.18.28.28,0,0,1,.07-.17A.24.24,0,0,1,16.07,9.9Zm.74.49v2.89H17a.25.25,0,0,0,.24-.16l.48-1a.68.68,0,0,0,.1-.32.61.61,0,0,0-.08-.3l-.5-1a.26.26,0,0,0-.25-.15Z" style="fill: #fff"/>
      <path d="M19.42,10.36v-.21a.24.24,0,0,1,.07-.18.28.28,0,0,1,.17-.07h2.22v1.51a.23.23,0,0,1-.09.19l-.9.77v1.14a.24.24,0,0,1-.07.18.22.22,0,0,1-.17.07.24.24,0,0,1-.18-.07.23.23,0,0,1-.07-.17V12.28a.26.26,0,0,1,.09-.21l.9-.77v-.91H19.91a.25.25,0,0,1-.25.21.23.23,0,0,1-.17-.07A.22.22,0,0,1,19.42,10.36Z" style="fill: #fff"/>
      <path d="M24.63,13.52v-1H23.16V10.14a.22.22,0,0,1,.07-.17.25.25,0,0,1,.18-.08.28.28,0,0,1,.25.25V12h1V10.57a.25.25,0,0,1,.08-.18.24.24,0,0,1,.34,0,.24.24,0,0,1,.07.18V12a.29.29,0,0,1,.18.07.24.24,0,0,1,.07.18.22.22,0,0,1-.07.17.24.24,0,0,1-.18.07v1a.24.24,0,0,1-.24.24.21.21,0,0,1-.17-.07A.23.23,0,0,1,24.63,13.52Z" style="fill: #fff"/>
      <path d="M26.63,13.52V10.14A.23.23,0,0,1,26.7,10a.22.22,0,0,1,.17-.07A.21.21,0,0,1,27,10a.25.25,0,0,1,.08.17v1.44h1.49V10.14a.24.24,0,0,1,.24-.24A.24.24,0,0,1,29,10a.29.29,0,0,1,.07.18v3.37a.25.25,0,0,1-.08.18.26.26,0,0,1-.17.07.21.21,0,0,1-.17-.07.24.24,0,0,1-.07-.18V12.07H27.12v1.45a.24.24,0,0,1-.07.18.29.29,0,0,1-.18.07.23.23,0,0,1-.17-.07A.24.24,0,0,1,26.63,13.52Z" style="fill: #fff"/>
      <path d="M31.59,13.28h.88a.24.24,0,0,1,.18.07.28.28,0,0,1,.07.17.29.29,0,0,1-.07.18.24.24,0,0,1-.18.07h-.92a.79.79,0,0,1-.62-.36l-.56-1.09a1.07,1.07,0,0,1-.12-.49,1,1,0,0,1,.11-.47l.57-1.08a.83.83,0,0,1,.26-.27.62.62,0,0,1,.33-.11h1a.24.24,0,0,1,.24.24.24.24,0,0,1-.07.18.23.23,0,0,1-.17.07h-.94a.21.21,0,0,0-.18.14l-.55,1a.65.65,0,0,0-.06.29.6.6,0,0,0,.07.3l.52,1A.23.23,0,0,0,31.59,13.28Z" style="fill: #fff"/>
      <path d="M35.45,13.52v-1H34V10.14a.23.23,0,0,1,.08-.17.25.25,0,0,1,.17-.08.21.21,0,0,1,.17.08.23.23,0,0,1,.08.17V12h1V10.57a.24.24,0,0,1,.07-.18.22.22,0,0,1,.17-.07.21.21,0,0,1,.17.07.25.25,0,0,1,.08.18V12a.28.28,0,0,1,.17.07.24.24,0,0,1,.07.18.22.22,0,0,1-.07.17.23.23,0,0,1-.17.07v1a.23.23,0,0,1-.08.17.24.24,0,0,1-.41-.17Z" style="fill: #fff"/>
      <path d="M37.44,13.29V10.36a.48.48,0,0,1,.47-.47h1.53a.49.49,0,0,1,.33.14.44.44,0,0,1,.13.33v2.93a.44.44,0,0,1-.13.33.45.45,0,0,1-.34.14H37.91a.48.48,0,0,1-.47-.47Zm2,0V10.39H37.93v2.88Z" style="fill: #fff"/>
      <path d="M42,13.27h1.13v-1.2H41.6V9.9h1.73a.24.24,0,0,1,.24.24.21.21,0,0,1-.07.17.25.25,0,0,1-.17.08H42.1v1.19h1a.49.49,0,0,1,.35.15.49.49,0,0,1,.14.34v1.2a.5.5,0,0,1-.14.35.46.46,0,0,1-.35.14H42a.77.77,0,0,1-.32-.07l-.37-.15a.23.23,0,0,1-.15-.24.25.25,0,0,1,.06-.17.22.22,0,0,1,.17-.07.41.41,0,0,1,.17,0l.32.14A.27.27,0,0,0,42,13.27Z" style="fill: #fff"/>
      <path d="M44.89,13.27h.75V10.39H44.9a.25.25,0,0,1-.18-.08.24.24,0,0,1-.07-.17.26.26,0,0,1,.07-.17.24.24,0,0,1,.18-.07h1.23v3.37h.49v-1a.23.23,0,0,1,.07-.17.24.24,0,0,1,.34,0,.25.25,0,0,1,.08.17v1.27a.23.23,0,0,1-.08.17.21.21,0,0,1-.17.07h-2a.24.24,0,0,1-.25-.25.23.23,0,0,1,.07-.17A.29.29,0,0,1,44.89,13.27Z" style="fill: #fff"/>
      <path d="M50.48,10.39H48.75v1.19h.75a.25.25,0,0,1,.17.08.22.22,0,0,1,.07.17.24.24,0,0,1-.07.18.22.22,0,0,1-.17.07h-.75v1.2h1.74a.24.24,0,0,1,.24.24.24.24,0,0,1-.25.25H48.26V9.9h2.22a.24.24,0,0,1,.25.25.23.23,0,0,1-.07.17A.24.24,0,0,1,50.48,10.39Z" style="fill: #fff"/>
    </g>
    <circle cx="4.57" cy="16.13" r="1.39" style="fill: #1b1b1b"/>
  </g>
  <g data-name="Layer 3" id="Layer_3">
    <path d="M3.54,1.85h0V.33c0-.18.09-.33.19-.33H5.38c.1,0,.18.15.18.33V1.85h.05c.07,0,.13.09.15.21H3.39C3.4,1.94,3.46,1.85,3.54,1.85Z" style="fill: #9d9d9e"/>
    <path d="M6.27,4.13V2.06H2.88s0,0,0,.07v2Z" style="fill: #ababab"/>
    <path d="M17.94,1.85h0V.33c0-.18.09-.33.19-.33h1.6c.11,0,.19.15.19.33V1.85H20c.07,0,.13.09.15.21H17.78C17.8,1.94,17.86,1.85,17.94,1.85Z" style="fill: #9d9d9e"/>
    <path d="M20.67,4.13v-2a.17.17,0,0,0,0-.07H17.28a.17.17,0,0,0,0,.07v2Z" style="fill: #ababab"/>
    <path d="M10.74,1.85h0V.33c0-.18.09-.33.19-.33h1.6c.11,0,.19.15.19.33V1.85h.05c.07,0,.13.09.15.21H10.58C10.6,1.94,10.66,1.85,10.74,1.85Z" style="fill: #9d9d9e"/>
    <path d="M13.47,4.13V2.06H10.08s0,0,0,.07v2Z" style="fill: #ababab"/>
    <path d="M25.14,1.85h0V.33c0-.18.09-.33.19-.33H27c.11,0,.19.15.19.33V1.85h.05c.07,0,.13.09.15.21H25C25,1.94,25.06,1.85,25.14,1.85Z" style="fill: #9d9d9e"/>
    <path d="M28.24,4.13v-2a.17.17,0,0,0,0-.07H24.11a.17.17,0,0,0,0,.07v2Z" style="fill: #ababab"/>
    <path d="M32.33,1.85h.05V.33c0-.18.08-.33.19-.33h1.6c.11,0,.19.15.19.33V1.85h0c.08,0,.14.09.16.21H32.18C32.2,1.94,32.26,1.85,32.33,1.85Z" style="fill: #9d9d9e"/>
    <path d="M35.07,4.13v-2a.17.17,0,0,0,0-.07H31.68a.17.17,0,0,0,0,.07v2Z" style="fill: #ababab"/>
    <path d="M39.53,1.85h0V.33c0-.18.08-.33.19-.33h1.6c.1,0,.19.15.19.33V1.85h0c.08,0,.14.09.16.21H39.38C39.4,1.94,39.46,1.85,39.53,1.85Z" style="fill: #9d9d9e"/>
    <path d="M42.27,4.13v-2a.17.17,0,0,0,0-.07H38.88a.17.17,0,0,0,0,.07v2Z" style="fill: #ababab"/>
    <path d="M46.73,1.85h.05V.33c0-.18.08-.33.19-.33h1.6c.1,0,.19.15.19.33V1.85h0c.08,0,.14.09.16.21H46.58C46.6,1.94,46.66,1.85,46.73,1.85Z" style="fill: #9d9d9e"/>
    <path d="M49.47,4.13v-2a.17.17,0,0,0,0-.07H46.07V4.13Z" style="fill: #ababab"/>
    <path d="M53.93,1.85h0V.33c0-.18.08-.33.18-.33h1.61c.1,0,.19.15.19.33V1.85h0c.08,0,.14.09.16.21H53.78C53.8,1.94,53.86,1.85,53.93,1.85Z" style="fill: #9d9d9e"/>
    <path d="M56.67,4.13v-2s0,0,0-.07H53.27V4.13Z" style="fill: #ababab"/>
    <path d="M3.54,21.93h0v1.53c0,.18.09.33.19.33H5.38c.1,0,.18-.15.18-.33V21.93h.05c.07,0,.13-.09.15-.21H3.39C3.4,21.84,3.46,21.93,3.54,21.93Z" style="fill: #9d9d9e"/>
    <rect height="0.56" style="fill: #9a9a9b" width="3.4" x="2.87" y="19.66"/>
    <path d="M2.87,21.66s0,0,0,.06H6.27v-1.5H2.87Z" style="fill: #ababab"/>
    <path d="M10.74,21.93h0v1.53c0,.18.09.33.19.33h1.6c.11,0,.19-.15.19-.33V21.93h.05c.07,0,.13-.09.15-.21H10.58C10.6,21.84,10.66,21.93,10.74,21.93Z" style="fill: #9d9d9e"/>
    <rect height="0.56" style="fill: #9a9a9b" width="3.4" x="10.07" y="19.66"/>
    <path d="M10.08,21.72h3.39v-1.5h-3.4v1.44S10.08,21.7,10.08,21.72Z" style="fill: #ababab"/>
    <path d="M17.94,21.93h0v1.53c0,.18.09.33.19.33h1.6c.11,0,.19-.15.19-.33V21.93H20c.07,0,.13-.09.15-.21H17.78C17.8,21.84,17.86,21.93,17.94,21.93Z" style="fill: #9d9d9e"/>
    <rect height="0.56" style="fill: #9a9a9b" width="3.4" x="17.27" y="19.66"/>
    <path d="M17.28,21.72h3.38a.13.13,0,0,0,0-.06V20.22h-3.4v1.44A.13.13,0,0,0,17.28,21.72Z" style="fill: #ababab"/>
    <path d="M25.14,21.93h0v1.53c0,.18.09.33.19.33H27c.11,0,.19-.15.19-.33V21.93h.05c.07,0,.13-.09.15-.21H25C25,21.84,25.06,21.93,25.14,21.93Z" style="fill: #9d9d9e"/>
    <rect height="0.56" style="fill: #9a9a9b" width="3.4" x="24.47" y="19.66"/>
    <path d="M24.48,21.72h3.38a.13.13,0,0,0,0-.06V20.22h-3.4v1.44A.13.13,0,0,0,24.48,21.72Z" style="fill: #ababab"/>
    <path d="M32.34,21.93h0v1.53c0,.18.08.33.19.33h1.6c.11,0,.19-.15.19-.33V21.93h0c.08,0,.14-.09.16-.21H32.18C32.2,21.84,32.26,21.93,32.34,21.93Z" style="fill: #9d9d9e"/>
    <path d="M31.68,21.72h3.38a.13.13,0,0,0,0-.06V20.22h-3.4v1.44A.13.13,0,0,0,31.68,21.72Z" style="fill: #ababab"/>
    <rect height="0.56" style="fill: #9a9a9b" width="3.4" x="31.67" y="19.66"/>
    <path d="M39.53,21.93h0v1.53c0,.18.08.33.19.33h1.6c.1,0,.19-.15.19-.33V21.93h0c.08,0,.14-.09.16-.21H39.38C39.4,21.84,39.46,21.93,39.53,21.93Z" style="fill: #9d9d9e"/>
    <rect height="0.56" style="fill: #9a9a9b" width="3.4" x="38.87" y="19.66"/>
    <path d="M38.88,21.72h3.38a.13.13,0,0,0,0-.06V20.22h-3.4v1.44A.13.13,0,0,0,38.88,21.72Z" style="fill: #ababab"/>
    <path d="M46.73,21.93h.05v1.53c0,.18.08.33.19.33h1.6c.1,0,.19-.15.19-.33V21.93h0c.08,0,.14-.09.16-.21H46.58C46.6,21.84,46.66,21.93,46.73,21.93Z" style="fill: #9d9d9e"/>
    <path d="M46.07,21.72h3.39a.13.13,0,0,0,0-.06V20.22h-3.4v1.5Z" style="fill: #ababab"/>
    <rect height="0.56" style="fill: #9a9a9b" width="3.4" x="46.07" y="19.66"/>
    <path d="M53.93,21.93h0v1.53c0,.18.08.33.18.33h1.61c.1,0,.19-.15.19-.33V21.93h0c.08,0,.14-.09.16-.21H53.78C53.8,21.84,53.86,21.93,53.93,21.93Z" style="fill: #9d9d9e"/>
    <path d="M53.27,21.72h3.39s0,0,0-.06V20.22h-3.4v1.5Z" style="fill: #ababab"/>
    <rect height="0.56" style="fill: #9a9a9b" width="3.4" x="53.27" y="19.66"/>
  </g>
  <g data-name="Layer 4" id="Connectors">
    <rect data-cir-type="male" height="1.72" id="circuitoCon_VCC" style="fill: none" width="1.98" x="3.58" y="0.08"/>
    <rect data-cir-type="male" height="1.72" id="circuitoCon_A1" style="fill: none" width="1.98" x="17.99" y="0.08"/>
    <rect data-cir-type="male" height="1.72" id="circuitoCon_A2" style="fill: none" width="1.98" x="10.78" y="0.08"/>
    <rect data-cir-type="male" height="1.72" id="circuitoCon_A0" style="fill: none" width="1.98" x="25.18" y="0.08"/>
    <rect data-cir-type="male" height="1.72" id="circuitoCon_A3" style="fill: none" width="1.98" x="32.39" y="0.08"/>
    <rect data-cir-type="male" height="1.72" id="circuitoCon_S0" style="fill: none" width="1.98" x="39.59" y="0.08"/>
    <rect data-cir-type="male" height="1.72" id="circuitoCon_S1" style="fill: none" width="1.98" x="46.79" y="0.08"/>
    <rect data-cir-type="male" height="1.72" id="circuitoCon_S2" style="fill: none" width="1.98" x="53.98" y="0.08"/>
    <rect data-cir-type="male" height="1.83" id="circuitoCon_A4" style="fill: none" width="1.98" x="3.59" y="21.95"/>
    <rect data-cir-type="male" height="1.83" id="circuitoCon_A6" style="fill: none" width="1.98" x="10.79" y="21.95"/>
    <rect data-cir-type="male" height="1.83" id="circuitoCon_A" style="fill: none" width="1.98" x="17.99" y="21.95"/>
    <rect data-cir-type="male" height="1.83" id="circuitoCon_A7" style="fill: none" width="1.98" x="25.19" y="21.95"/>
    <rect data-cir-type="male" height="1.83" id="circuitoCon_A5" style="fill: none" width="1.98" x="32.39" y="21.95"/>
    <rect data-cir-type="male" height="1.83" id="circuitoCon_Enot" style="fill: none" width="1.98" x="39.59" y="21.95"/>
    <rect data-cir-type="male" height="1.83" id="circuitoCon_VEE" style="fill: none" width="1.98" x="46.8" y="21.95"/>
    <rect data-cir-type="male" height="1.83" id="circuitoCon_GND" style="fill: none" width="1.98" x="53.98" y="21.95"/>
  </g>
</svg>