<?xml version="1.0" ?><svg height="8.39mm" id="svg2" viewBox="0 0 59.35 23.78" width="20.94mm" xmlns="http://www.w3.org/2000/svg">
  <title>circuito_MCP3008</title>
  <g data-name="Layer 2" id="Layer_2">
    <rect height="15.55" id="rect7" rx="1.42" ry="1.42" style="fill: #292e32" width="59.31" x="0.03" y="4.11"/>
    <path d="M2.79,11.89A2.77,2.77,0,0,0,0,9.11H0v5.56A2.79,2.79,0,0,0,2.79,11.89Z" id="path9" style="fill: #1b1b1b" transform="translate(-0.01)"/>
    <g id="g11">
      <g id="text4267" style="isolation: isolate">
        <g style="isolation: isolate">
          <path d="M16.92,11.55v-.12l-.59-.7V13.6a.21.21,0,0,1-.08.16.31.31,0,0,1-.2.07.31.31,0,0,1-.21-.07.23.23,0,0,1-.08-.16V10.08h.74l.69.85.72-.85h.72V13.6a.21.21,0,0,1-.08.16.31.31,0,0,1-.21.07.31.31,0,0,1-.2-.07.23.23,0,0,1-.08-.16V10.74l-.58.68v.13a.2.2,0,0,1-.08.17.29.29,0,0,1-.2.07.27.27,0,0,1-.2-.07A.2.2,0,0,1,16.92,11.55Z" style="fill: #fff" transform="translate(-0.01)"/>
          <path d="M21.51,13.36h1a.31.31,0,0,1,.21.07.21.21,0,0,1,.08.17.21.21,0,0,1-.08.16.31.31,0,0,1-.21.07H21.47a.93.93,0,0,1-.72-.34l-.65-1.07A.87.87,0,0,1,20,12a.89.89,0,0,1,.12-.47l.66-1a.78.78,0,0,1,.3-.26.72.72,0,0,1,.38-.11h1.12a.27.27,0,0,1,.2.07.19.19,0,0,1,.09.16.2.2,0,0,1-.09.17.28.28,0,0,1-.2.08H21.47a.25.25,0,0,0-.22.13l-.63,1a.51.51,0,0,0-.07.28.55.55,0,0,0,.08.29l.6,1A.3.3,0,0,0,21.51,13.36Z" style="fill: #fff" transform="translate(-0.01)"/>
          <path d="M24.13,13.6V10.08h2a.88.88,0,0,1,.6.21.63.63,0,0,1,.25.5v.89a.63.63,0,0,1-.25.51.88.88,0,0,1-.6.21H24.71v1.2a.19.19,0,0,1-.09.16.32.32,0,0,1-.4,0A.19.19,0,0,1,24.13,13.6Zm.58-1.68h1.43a.27.27,0,0,0,.2-.07.2.2,0,0,0,.09-.17v-.89a.19.19,0,0,0-.09-.16.27.27,0,0,0-.2-.07H24.71Z" style="fill: #fff" transform="translate(-0.01)"/>
          <path d="M31.17,10.55v.89a.61.61,0,0,1-.23.5.68.68,0,0,1,.23.48v.93a.42.42,0,0,1-.17.34.61.61,0,0,1-.4.14h-2a.35.35,0,0,1-.2-.07.22.22,0,0,1,0-.34.35.35,0,0,1,.2-.07h2v-.93a.25.25,0,0,0-.08-.17.35.35,0,0,0-.2-.07H29.17a.27.27,0,0,1-.2-.07.2.2,0,0,1-.09-.17.19.19,0,0,1,.09-.16.27.27,0,0,1,.2-.07h1.14a.32.32,0,0,0,.2-.07.21.21,0,0,0,.09-.17v-.92h-2a.29.29,0,0,1-.2-.07.23.23,0,0,1-.08-.17.25.25,0,0,1,.08-.17.34.34,0,0,1,.2-.06h2a.6.6,0,0,1,.4.13A.45.45,0,0,1,31.17,10.55Z" style="fill: #fff" transform="translate(-0.01)"/>
          <path d="M32.47,13.37V10.53a.42.42,0,0,1,.16-.32.55.55,0,0,1,.39-.14h1.77a.53.53,0,0,1,.38.14.39.39,0,0,1,.16.32v2.84a.39.39,0,0,1-.16.32.6.6,0,0,1-.39.14H33a.6.6,0,0,1-.39-.14A.42.42,0,0,1,32.47,13.37Zm2.3,0v-2.8H33v2.8Z" style="fill: #fff" transform="translate(-0.01)"/>
          <path d="M36.65,13.37V10.53a.39.39,0,0,1,.16-.32.55.55,0,0,1,.39-.14H39a.54.54,0,0,1,.38.14.42.42,0,0,1,.16.32v2.84a.42.42,0,0,1-.16.32.6.6,0,0,1-.39.14H37.2a.58.58,0,0,1-.39-.14A.39.39,0,0,1,36.65,13.37Zm2.3,0v-2.8H37.22v2.8Z" style="fill: #fff" transform="translate(-0.01)"/>
          <path d="M40.82,13.35V12.19a.45.45,0,0,1,.17-.34.63.63,0,0,1,.4-.14v-1.4a.22.22,0,0,1,.09-.17.32.32,0,0,1,.2-.06h1.15a.32.32,0,0,1,.2.06.22.22,0,0,1,.09.17v1.4a.65.65,0,0,1,.4.14.41.41,0,0,1,.16.34v1.16a.44.44,0,0,1-.16.34.65.65,0,0,1-.4.14H41.39a.59.59,0,0,1-.4-.15A.45.45,0,0,1,40.82,13.35Zm.57-1.16v1.16h1.73V12.19ZM42,10.55v1.16h.59V10.55Z" style="fill: #fff" transform="translate(-0.01)"/>
        </g>
      </g>
    </g>
    <circle cx="4.57" cy="16.13" id="circle35" r="1.39" style="fill: #1b1b1b"/>
  </g>
  <g data-name="Layer 3" id="Layer_3">
    <path d="M3.55,1.85h0V.33c0-.18.09-.33.19-.33H5.39c.1,0,.18.15.18.33V1.85h0c.07,0,.13.09.15.21H3.4C3.41,1.94,3.47,1.85,3.55,1.85Z" id="path38" style="fill: #9d9d9e" transform="translate(-0.01)"/>
    <path d="M6.28,4.13V2.06H2.89V4.13Z" id="path40" style="fill: #ababab" transform="translate(-0.01)"/>
    <path d="M17.94,1.85h0V.33c0-.18.09-.33.19-.33h1.6c.11,0,.19.15.19.33V1.85H20c.07,0,.13.09.15.21H17.78C17.8,1.94,17.86,1.85,17.94,1.85Z" id="path42" style="fill: #9d9d9e" transform="translate(-0.01)"/>
    <path d="M20.67,4.13v-2a.09.09,0,0,0,0-.07H17.28V4.13Z" id="path44" style="fill: #ababab" transform="translate(-0.01)"/>
    <path d="M10.75,1.85h0V.33c0-.18.09-.33.19-.33h1.59c.11,0,.19.15.19.33V1.85h0c.07,0,.13.09.15.21H10.59C10.61,1.94,10.67,1.85,10.75,1.85Z" id="path46" style="fill: #9d9d9e" transform="translate(-0.01)"/>
    <path d="M13.47,4.13V2.06H10.09V4.13Z" id="path48" style="fill: #ababab" transform="translate(-0.01)"/>
    <path d="M25.14,1.85h0V.33c0-.18.09-.33.19-.33H27c.11,0,.19.15.19.33V1.85h0c.07,0,.13.09.15.21H25C25,1.94,25.06,1.85,25.14,1.85Z" id="path50" style="fill: #9d9d9e" transform="translate(-0.01)"/>
    <path d="M28.24,4.13V2.06H24.11V4.13Z" id="path52" style="fill: #ababab" transform="translate(-0.01)"/>
    <path d="M32.33,1.85h.05V.33c0-.18.08-.33.19-.33h1.6c.11,0,.19.15.19.33V1.85h0c.08,0,.14.09.16.21H32.18C32.2,1.94,32.26,1.85,32.33,1.85Z" id="path54" style="fill: #9d9d9e" transform="translate(-0.01)"/>
    <path d="M35.07,4.13V2.06H31.68a.09.09,0,0,0,0,.07v2Z" id="path56" style="fill: #ababab" transform="translate(-0.01)"/>
    <path d="M39.53,1.85h0V.33c0-.18.08-.33.19-.33h1.6c.1,0,.19.15.19.33V1.85h0c.08,0,.14.09.16.21H39.38C39.4,1.94,39.46,1.85,39.53,1.85Z" id="path58" style="fill: #9d9d9e" transform="translate(-0.01)"/>
    <path d="M42.27,4.13V2.06H38.88a.09.09,0,0,0,0,.07v2Z" id="path60" style="fill: #ababab" transform="translate(-0.01)"/>
    <path d="M46.72,1.85h.05V.33c0-.18.08-.33.19-.33h1.6c.1,0,.19.15.19.33V1.85h0c.08,0,.14.09.16.21H46.57C46.59,1.94,46.65,1.85,46.72,1.85Z" id="path62" style="fill: #9d9d9e" transform="translate(-0.01)"/>
    <path d="M49.46,4.13v-2a.09.09,0,0,0,0-.07h-3.4V4.13Z" id="path64" style="fill: #ababab" transform="translate(-0.01)"/>
    <path d="M53.92,1.85h0V.33c0-.18.08-.33.18-.33h1.61c.1,0,.19.15.19.33V1.85h0c.08,0,.14.09.16.21H53.77C53.79,1.94,53.85,1.85,53.92,1.85Z" id="path66" style="fill: #9d9d9e" transform="translate(-0.01)"/>
    <path d="M56.66,4.13V2.06h-3.4V4.13Z" id="path68" style="fill: #ababab" transform="translate(-0.01)"/>
    <path d="M3.55,21.92h0v1.53c0,.18.09.33.19.33H5.39c.1,0,.18-.15.18-.33V21.92h0c.07,0,.13-.09.15-.21H3.4C3.41,21.83,3.47,21.92,3.55,21.92Z" id="path70" style="fill: #9d9d9e" transform="translate(-0.01)"/>
    <rect height="0.56" id="rect72" style="fill: #9a9a9b" width="3.4" x="2.87" y="19.65"/>
    <path d="M2.88,21.65v.06h3.4v-1.5H2.88Z" id="path74" style="fill: #ababab" transform="translate(-0.01)"/>
    <path d="M10.75,21.92h0v1.53c0,.18.09.33.19.33h1.59c.11,0,.19-.15.19-.33V21.92h0c.07,0,.13-.09.15-.21H10.59C10.61,21.83,10.67,21.92,10.75,21.92Z" id="path76" style="fill: #9d9d9e" transform="translate(-0.01)"/>
    <rect height="0.56" id="rect78" style="fill: #9a9a9b" width="3.4" x="10.07" y="19.65"/>
    <path d="M10.09,21.71h3.38v-1.5H10.08v1.44A.35.35,0,0,1,10.09,21.71Z" id="path80" style="fill: #ababab" transform="translate(-0.01)"/>
    <path d="M17.94,21.92h0v1.53c0,.18.09.33.19.33h1.6c.11,0,.19-.15.19-.33V21.92H20c.07,0,.13-.09.15-.21H17.78C17.8,21.83,17.86,21.92,17.94,21.92Z" id="path82" style="fill: #9d9d9e" transform="translate(-0.01)"/>
    <rect height="0.56" id="rect84" style="fill: #9a9a9b" width="3.4" x="17.26" y="19.65"/>
    <path d="M17.28,21.71h3.38a.06.06,0,0,0,0-.06V20.21h-3.4v1.44S17.27,21.7,17.28,21.71Z" id="path86" style="fill: #ababab" transform="translate(-0.01)"/>
    <path d="M25.14,21.92h0v1.53c0,.18.09.33.19.33H27c.11,0,.19-.15.19-.33V21.92h0c.07,0,.13-.09.15-.21H25C25,21.83,25.06,21.92,25.14,21.92Z" id="path88" style="fill: #9d9d9e" transform="translate(-0.01)"/>
    <rect height="0.56" id="rect90" style="fill: #9a9a9b" width="3.4" x="24.46" y="19.65"/>
    <path d="M24.48,21.71h3.38v-1.5h-3.4v1.44A.11.11,0,0,0,24.48,21.71Z" id="path92" style="fill: #ababab" transform="translate(-0.01)"/>
    <path d="M32.34,21.92h0v1.53c0,.18.08.33.19.33h1.6c.11,0,.19-.15.19-.33V21.92h0c.08,0,.14-.09.16-.21h-2.3C32.2,21.83,32.26,21.92,32.34,21.92Z" id="path94" style="fill: #9d9d9e" transform="translate(-0.01)"/>
    <path d="M31.68,21.71h3.38v-1.5h-3.4v1.44A.11.11,0,0,0,31.68,21.71Z" id="path96" style="fill: #ababab" transform="translate(-0.01)"/>
    <rect height="0.56" id="rect98" style="fill: #9a9a9b" width="3.4" x="31.66" y="19.65"/>
    <path d="M39.53,21.92h0v1.53c0,.18.08.33.19.33h1.6c.1,0,.19-.15.19-.33V21.92h0c.08,0,.14-.09.16-.21H39.38C39.4,21.83,39.46,21.92,39.53,21.92Z" id="path100" style="fill: #9d9d9e" transform="translate(-0.01)"/>
    <rect height="0.56" id="rect102" style="fill: #9a9a9b" width="3.4" x="38.86" y="19.65"/>
    <path d="M38.88,21.71h3.38v-1.5h-3.4v1.44A.11.11,0,0,0,38.88,21.71Z" id="path104" style="fill: #ababab" transform="translate(-0.01)"/>
    <path d="M46.72,21.92h.05v1.53c0,.18.08.33.19.33h1.6c.1,0,.19-.15.19-.33V21.92h0c.08,0,.14-.09.16-.21H46.57C46.59,21.83,46.65,21.92,46.72,21.92Z" id="path106" style="fill: #9d9d9e" transform="translate(-0.01)"/>
    <path d="M46.06,21.71h3.39a.06.06,0,0,0,0-.06V20.21h-3.4v1.5Z" id="path108" style="fill: #ababab" transform="translate(-0.01)"/>
    <rect height="0.56" id="rect110" style="fill: #9a9a9b" width="3.4" x="46.06" y="19.65"/>
    <path d="M53.92,21.92h0v1.53c0,.18.08.33.18.33h1.61c.1,0,.19-.15.19-.33V21.92h0c.08,0,.14-.09.16-.21H53.77C53.79,21.83,53.85,21.92,53.92,21.92Z" id="path112" style="fill: #9d9d9e" transform="translate(-0.01)"/>
    <path d="M53.26,21.71h3.39v-1.5h-3.4v1.5Z" id="path114" style="fill: #ababab" transform="translate(-0.01)"/>
    <rect height="0.56" id="rect116" style="fill: #9a9a9b" width="3.4" x="53.25" y="19.65"/>
  </g>
  <g id="Connectors">
    <rect data-cir-type="male" data-name="circuitoCon VCC" height="1.72" id="circuitoCon_VCC" style="fill: none" width="1.98" x="3.58" y="0.08"/>
    <rect data-cir-type="male" data-name="circuitoCon AGND" height="1.72" id="circuitoCon_AGND" style="fill: none" width="1.98" x="17.98" y="0.08"/>
    <rect data-cir-type="male" data-name="circuitoCon VREF" height="1.72" id="circuitoCon_VREF" style="fill: none" width="1.98" x="10.78" y="0.08"/>
    <rect data-cir-type="male" data-name="circuitoCon CLK" height="1.72" id="circuitoCon_CLK" style="fill: none" width="1.98" x="25.17" y="0.08"/>
    <rect data-cir-type="male" data-name="circuitoCon DOUT" height="1.72" id="circuitoCon_DOUT" style="fill: none" width="1.98" x="32.38" y="0.08"/>
    <rect data-cir-type="male" data-name="circuitoCon DIN" height="1.72" id="circuitoCon_DIN" style="fill: none" width="1.98" x="39.58" y="0.08"/>
    <rect data-cir-type="male" data-name="circuitoCon CS" height="1.72" id="circuitoCon_CS" style="fill: none" width="1.98" x="46.78" y="0.08"/>
    <rect data-cir-type="male" data-name="circuitoCon DGND" height="1.72" id="circuitoCon_DGND" style="fill: none" width="1.98" x="53.96" y="0.08"/>
    <rect data-cir-type="male" data-name="circuitoCon CH0" height="1.83" id="circuitoCon_CH0" style="fill: none" width="1.98" x="3.59" y="21.94"/>
    <rect data-cir-type="male" data-name="circuitoCon CH1" height="1.83" id="circuitoCon_CH1" style="fill: none" width="1.98" x="10.79" y="21.94"/>
    <rect data-cir-type="male" data-name="circuitoCon CH2" height="1.83" id="circuitoCon_CH2" style="fill: none" width="1.98" x="17.98" y="21.94"/>
    <rect data-cir-type="male" data-name="circuitoCon CH3" height="1.83" id="circuitoCon_CH3" style="fill: none" width="1.98" x="25.18" y="21.94"/>
    <rect data-cir-type="male" data-name="circuitoCon CH4" height="1.83" id="circuitoCon_CH4" style="fill: none" width="1.98" x="32.38" y="21.94"/>
    <rect data-cir-type="male" data-name="circuitoCon CH5" height="1.83" id="circuitoCon_CH5" style="fill: none" width="1.98" x="39.58" y="21.94"/>
    <rect data-cir-type="male" data-name="circuitoCon CH6" height="1.83" id="circuitoCon_CH6" style="fill: none" width="1.98" x="46.79" y="21.94"/>
    <rect data-cir-type="male" data-name="circuitoCon CH7" height="1.83" id="circuitoCon_CH7" style="fill: none" width="1.98" x="53.96" y="21.94"/>
  </g>
</svg>